<svg xmlns="http://www.w3.org/2000/svg" width="150" height="50" viewBox="0,0,150,50"><path fill="#111" d="M38.18 38.90L38.30 39.02L38.30 39.02Q40.17 36.62 44.93 29.35L44.90 29.33L44.90 29.33Q48.92 23.10 51.77 19.83L51.69 19.74L51.73 19.79Q49.69 20.15 47.60 20.15L47.58 20.13L47.59 20.14Q42.26 20.06 38.27 18.27L38.32 18.33L38.31 18.32Q37.56 16.31 36.88 14.75L36.92 14.80L36.98 14.85Q41.44 16.92 47.12 17.04L47.18 17.10L47.29 17.21Q52.37 17.23 57.55 15.32L57.57 15.35L57.49 15.27Q57.04 16.03 56.73 16.83L56.87 16.96L56.30 18.57L56.32 18.58Q53.28 22.24 49.28 28.07L49.08 27.87L45.96 32.89L45.93 32.87Q44.12 35.16 42.29 37.45L42.32 37.48L42.29 37.45Q45.71 36.95 49.02 37.02L48.99 36.99L49.07 37.07Q52.38 37.14 55.54 38.06L55.45 37.97L56.07 39.69L56.04 39.66Q56.26 40.45 56.60 41.29L56.62 41.31L56.48 41.17Q51.88 39.65 46.74 39.84L46.71 39.81L46.66 39.76Q41.59 40.02 37.10 42.04L37.05 41.99L37.22 42.16Q37.50 41.00 38.22 38.94ZM36.45 42.69L36.61 42.85L36.47 42.71Q37.80 42.21 38.60 41.94L38.52 41.86L38.64 41.98Q38.26 42.63 37.58 44.15L37.63 44.21L37.64 44.21Q43.40 42.14 49.38 42.37L49.31 42.30L49.29 42.27Q55.59 42.49 60.62 45.27L60.58 45.23L60.60 45.25Q59.33 42.99 58.53 40.82L58.34 40.63L58.43 40.72Q58.00 40.55 56.47 39.98L56.32 39.82L56.39 39.90Q56.30 39.24 55.88 37.75L55.79 37.66L55.80 37.67Q51.71 36.55 46.61 36.74L46.65 36.78L46.59 36.72Q48.60 33.86 52.14 28.31L52.27 28.43L52.26 28.42Q55.81 22.61 57.71 20.06L57.73 20.07L57.87 20.21Q58.37 18.81 59.40 16.11L59.35 16.06L59.21 15.92Q58.64 16.37 57.19 16.98L57.25 17.04L57.21 17.00Q57.51 16.16 58.23 14.64L58.17 14.57L58.23 14.64Q52.92 16.79 47.21 16.71L47.12 16.62L47.12 16.62Q41.29 16.65 36.34 14.14L36.26 14.06L36.25 14.05Q37.35 16.37 38.08 18.61L38.11 18.65L38.22 18.76Q39.26 19.23 40.06 19.46L39.98 19.38L40.09 19.48Q40.34 20.16 40.61 21.60L40.53 21.53L40.48 21.47Q44.32 22.65 49.20 22.46L49.10 22.37L49.25 22.51Q46.87 25.74 43.56 30.72L43.38 30.55L37.90 38.92L37.92 38.94Q37.59 40.25 36.56 42.80Z"/><path fill="#333" d="M27.44 40.87L27.52 40.95L27.62 41.04Q26.18 39.22 24.88 36.14L24.95 36.20L22.76 31.02L22.77 31.02Q21.22 35.07 20.61 36.37L20.50 36.25L20.65 36.40Q19.13 39.26 17.53 41.16L17.58 41.21L17.51 41.15Q17.11 41.12 16.35 41.24L16.48 41.37L16.46 41.35Q16.40 33.86 10.57 27.92L10.57 27.92L10.55 27.90Q8.75 26.02 6.73 24.53L6.72 24.52L6.78 24.59Q8.65 25.17 10.52 25.47L10.48 25.43L10.62 25.57Q16.52 30.37 17.97 36.61L18.06 36.70L18.14 36.78Q18.88 34.78 20.06 31.58L20.18 31.70L20.06 31.58Q21.53 27.95 22.10 26.66L21.94 26.50L23.52 26.67L23.42 26.57Q24.30 28.29 25.48 31.56L25.54 31.62L25.45 31.53Q26.78 35.19 27.43 36.60L27.51 36.67L27.41 36.57Q29.21 30.27 34.70 25.70L34.80 25.81L34.84 25.84Q36.03 25.74 38.77 25.17L38.69 25.09L38.65 25.05Q30.03 31.08 28.85 41.06L28.93 41.14L28.27 41.02L28.20 40.95Q27.95 41.00 27.61 41.04ZM30.62 43.52L32.58 43.61L32.51 43.54Q32.28 42.09 32.28 40.57L32.16 40.45L32.26 40.55Q32.33 37.38 33.74 34.15L33.64 34.05L33.68 34.09Q35.59 29.49 39.70 26.40L39.72 26.42L39.72 26.42Q38.54 26.73 36.68 27.07L36.74 27.13L36.63 27.03Q38.65 25.43 39.94 24.52L40.03 24.60L37.40 24.94L37.44 24.98Q36.26 25.25 34.93 25.40L34.78 25.26L34.81 25.29Q29.67 29.54 27.72 34.57L27.75 34.60L27.78 34.62Q27.05 32.37 25.68 28.11L25.71 28.14L25.66 28.08Q25.52 28.29 25.26 28.29L25.17 28.21L24.56 28.13L24.60 28.17Q24.61 27.99 23.81 26.24L23.72 26.14L21.75 26.23L21.71 26.19Q20.69 28.94 18.60 34.58L18.67 34.65L18.53 34.51Q17.26 30.88 14.18 27.61L14.29 27.72L14.24 27.67Q14.00 27.69 13.69 27.66L13.57 27.54L13.04 27.46L12.99 27.40Q12.30 26.76 10.51 25.16L10.51 25.16L10.37 25.02Q7.28 24.44 5.60 23.94L5.66 24.00L5.63 23.97Q16.39 31.45 16.01 41.77L16.02 41.79L16.02 41.78Q16.06 41.63 16.42 41.59L16.49 41.67L16.50 41.68Q16.83 41.60 17.02 41.60L16.95 41.54L17.10 41.68Q17.13 41.56 17.32 43.65L17.18 43.51L19.13 43.37L19.11 43.35Q21.81 40.65 24.06 34.90L24.08 34.92L23.93 34.77Q25.52 38.72 27.39 41.39L27.40 41.40L27.42 41.42Q27.77 41.42 28.03 41.44L27.88 41.29L27.97 41.38Q28.13 41.29 28.39 41.29L28.56 41.46L30.49 43.39Z"/><path fill="#444" d="M64.85 46.99L64.90 47.04L64.94 47.08Q64.01 47.30 62.11 47.60L62.15 47.64L62.06 47.55Q63.35 45.38 64.38 44.08L64.38 44.08L64.48 44.19Q66.10 44.35 66.25 44.35L66.23 44.34L66.27 44.37Q66.61 44.49 67.15 44.38L67.07 44.30L67.20 44.43Q67.79 44.26 67.98 44.26L68.03 44.31L67.99 44.27Q70.48 43.94 70.40 41.77L70.40 41.77L70.45 41.82Q70.48 40.40 70.36 34.15L70.35 34.14L70.43 34.22Q70.26 30.55 70.34 26.40L70.46 26.52L71.80 26.26L71.76 26.22Q72.35 26.06 73.04 25.83L73.03 25.82L73.12 25.91Q72.91 30.34 72.95 34.72L72.88 34.65L72.86 34.63Q73.01 39.13 73.54 43.50L73.46 43.42L73.46 43.42Q73.61 43.80 73.61 44.06L73.57 44.02L73.49 43.94Q73.49 45.58 71.81 45.96L71.91 46.05L71.95 46.10Q68.71 46.36 64.87 47.01ZM71.65 22.81L69.55 19.71L69.51 19.67Q70.67 18.40 72.50 15.62L72.51 15.63L72.35 15.47Q73.12 16.47 74.46 18.30L74.43 18.28L71.81 22.97ZM74.78 49.53L74.80 49.55L74.81 49.56Q75.27 49.53 76.03 49.19L76.00 49.16L76.05 49.21Q76.39 48.52 76.39 48.07L76.40 48.07L76.36 48.03Q76.26 47.58 76.14 46.98L76.25 47.08L76.23 47.07Q74.96 40.73 74.96 32.81L74.94 32.80L74.88 32.73Q74.92 29.92 75.07 27.02L75.13 27.08L75.05 27.00Q74.47 27.14 73.32 27.45L73.33 27.45L73.36 27.49Q73.34 26.97 73.38 26.44L73.47 26.53L73.52 25.40L73.51 25.39Q71.71 25.95 69.93 25.99L70.10 26.16L70.05 26.11Q69.87 30.31 69.91 33.89L70.00 33.98L70.12 41.83L70.19 41.90Q70.16 43.77 67.99 43.89L67.95 43.85L68.08 43.97Q67.85 43.97 67.33 44.03L67.27 43.97L67.22 43.92Q66.87 44.13 66.60 44.13L66.43 43.97L66.43 43.96Q66.06 44.05 64.50 43.63L64.38 43.51L64.36 43.49Q64.07 44.27 62.97 45.95L62.88 45.85L61.44 48.26L61.33 48.16Q62.22 47.98 63.86 47.60L63.80 47.54L63.38 48.30L62.96 49.06L62.96 49.06Q65.07 48.74 66.40 48.81L66.56 48.97L66.50 48.90Q68.69 48.97 74.63 49.38ZM71.75 23.66L71.61 23.52L71.98 23.02L72.06 23.09Q72.32 23.43 73.27 25.03L73.39 25.16L73.31 25.08Q74.95 22.07 76.51 18.98L76.51 18.98L76.42 18.89Q75.47 17.33 74.51 16.04L74.52 16.04L74.57 16.09Q74.25 16.19 73.90 16.72L73.92 16.74L73.87 16.69Q73.64 16.23 72.65 14.93L72.63 14.91L72.65 14.93Q71.37 16.43 69.04 19.78L69.14 19.88L69.12 19.85Q69.88 20.92 71.59 23.51Z"/><path fill="#222" d="M95.53 40.27L95.49 40.23L95.47 40.21Q92.00 40.32 90.36 39.79L90.45 39.88L90.33 39.75Q88.37 39.12 88.06 35.73L88.18 35.85L89.46 34.62L89.60 34.75Q90.32 34.22 91.08 33.72L90.98 33.63L91.06 33.71Q90.75 35.56 92.34 36.78L92.31 36.74L92.37 36.81Q93.63 37.80 95.76 37.61L95.84 37.69L95.84 37.69Q100.23 37.28 100.04 33.74L99.99 33.69L99.96 33.66Q99.76 31.37 97.13 30.15L97.18 30.19L97.27 30.28Q94.28 29.08 91.92 27.87L91.93 27.87L91.89 27.84Q89.40 26.57 88.41 21.88L88.42 21.90L88.42 21.90Q88.37 21.50 88.26 20.74L88.15 20.63L88.26 20.75Q88.11 19.91 88.19 19.34L88.16 19.31L88.22 19.37Q88.28 17.68 89.54 17.22L89.72 17.40L89.67 17.35Q92.03 16.44 96.02 16.63L96.09 16.69L95.94 16.54Q97.92 16.81 98.72 16.89L98.64 16.81L98.74 16.90Q100.13 17.00 101.20 17.46L101.14 17.40L101.29 17.55Q103.21 17.84 103.44 20.32L103.56 20.43L103.43 20.30Q102.41 21.04 100.21 22.37L100.26 22.42L100.35 22.51Q99.79 19.36 95.41 19.36L95.45 19.40L95.58 19.53Q93.51 19.36 92.52 20.05L92.53 20.06L92.55 20.09Q91.51 20.72 91.74 22.50L91.58 22.35L91.63 22.40Q91.90 24.61 94.87 26.13L94.96 26.23L94.82 26.08Q95.47 26.43 99.97 28.07L99.82 27.92L99.88 27.99Q102.45 29.41 102.87 33.79L102.92 33.84L102.93 33.85Q102.94 34.01 103.01 35.27L103.01 35.26L102.93 35.18Q103.03 37.99 101.47 39.09L101.45 39.07L101.45 39.07Q99.64 40.07 95.45 40.19ZM97.77 42.58L97.75 42.56L97.76 42.58Q99.22 42.67 101.20 42.67L101.27 42.74L101.31 42.77Q103.41 42.78 104.66 42.36L104.61 42.31L104.56 42.26Q105.78 41.42 105.70 39.63L105.76 39.69L105.67 39.60Q105.61 38.58 105.23 36.53L105.33 36.64L105.38 36.68Q104.41 31.94 102.31 30.07L102.23 29.99L102.39 30.16Q101.59 28.56 100.26 27.83L100.24 27.82L94.90 25.71L94.81 25.61Q94.56 25.52 94.11 25.29L94.21 25.40L94.04 24.96L93.95 24.53L93.94 24.52Q93.78 23.10 94.92 22.49L95.01 22.59L95.01 22.58Q95.78 22.01 97.49 21.82L97.37 21.70L97.48 21.82Q98.54 21.62 99.68 22.07L99.64 22.04L99.62 22.01Q99.83 22.26 100.02 23.10L99.89 22.97L100.07 23.15Q100.26 22.99 100.75 22.76L100.76 22.77L100.69 22.70Q101.48 23.69 101.60 24.83L101.52 24.75L101.58 24.81Q101.58 24.70 105.24 22.11L105.31 22.18L105.30 22.17Q104.97 19.48 103.52 18.79L103.51 18.79L103.58 18.86Q102.86 17.45 101.41 16.92L101.47 16.97L101.40 16.91Q99.21 16.20 96.01 16.20L96.11 16.30L96.03 16.22Q91.10 16.20 89.24 16.88L89.27 16.92L89.19 16.84Q87.92 17.35 87.80 19.03L87.85 19.07L87.83 19.05Q87.69 19.49 88.11 21.70L88.27 21.86L88.12 21.71Q88.92 25.59 91.09 27.84L91.09 27.83L90.95 27.70Q91.77 29.42 93.27 30.11L93.40 30.24L93.43 30.27Q94.75 30.78 98.68 32.34L98.70 32.36L98.82 32.52L99.51 32.90L99.52 32.95L99.50 32.93Q99.69 33.38 99.72 33.73L99.67 33.67L99.64 33.64Q99.66 37.06 95.74 37.21L95.84 37.30L95.82 37.28Q94.66 37.31 93.37 36.93L93.27 36.83L93.36 36.92Q93.05 36.11 93.05 35.39L92.99 35.33L92.92 35.26Q93.10 35.18 93.14 34.91L93.11 34.88L93.05 34.82Q92.69 35.10 91.89 35.60L91.80 35.51L91.74 35.45Q91.43 34.53 91.58 33.16L91.47 33.05L91.55 33.13Q89.46 34.31 87.86 35.72L87.84 35.70L87.79 35.65Q87.84 36.46 87.91 37.49L88.00 37.57L87.91 37.48Q88.31 39.29 89.60 40.05L89.52 39.97L89.54 39.99Q90.78 41.84 93.33 42.22L93.35 42.24L93.35 42.24Q94.81 42.36 97.74 42.56Z"/><path fill="#444" d="M116.52 32.98L116.59 33.05L116.51 32.97Q119.57 32.56 122.77 32.67L122.72 32.63L122.69 32.60Q122.79 30.19 122.79 27.79L122.83 27.83L122.65 27.65Q122.83 25.35 123.02 22.80L122.92 22.70L122.87 22.65Q121.76 24.48 116.55 33.00ZM126.37 40.28L126.45 40.36L126.45 40.36Q124.77 40.04 122.98 39.97L123.02 40.01L122.89 39.88Q122.82 37.64 122.70 35.16L122.57 35.03L122.57 35.03Q117.27 34.86 112.54 36.27L112.57 36.30L112.59 36.32Q112.68 35.80 112.87 34.81L112.80 34.74L112.83 34.77Q114.68 31.67 118.26 25.39L118.24 25.37L118.33 25.46Q121.14 20.51 124.57 16.62L124.62 16.67L124.58 16.63Q125.42 16.41 127.10 16.14L127.14 16.19L127.18 16.23Q125.29 22.67 125.29 29.72L125.14 29.57L125.12 29.55Q125.13 31.05 125.21 32.53L125.23 32.55L126.51 32.65L126.52 32.66Q127.19 32.76 127.80 32.88L127.74 32.81L127.76 32.83Q127.84 33.79 128.11 35.74L128.23 35.85L128.23 35.86Q127.04 35.61 125.55 35.42L125.46 35.33L125.48 35.35Q125.81 37.47 126.49 40.40ZM128.05 32.47L128.13 32.56L128.01 32.43Q127.83 32.37 127.64 32.37L127.76 32.49L127.28 32.39L127.31 32.42Q127.29 31.03 127.29 29.62L127.15 29.48L127.18 29.52Q127.17 23.11 129.23 17.09L129.30 17.16L129.23 17.10Q128.55 17.45 127.11 17.83L127.12 17.84L127.02 17.74Q127.34 17.07 127.79 15.66L127.68 15.55L127.76 15.62Q126.44 15.98 124.38 16.21L124.33 16.15L124.39 16.22Q120.40 20.49 115.18 29.85L115.21 29.88L117.38 26.30L117.29 26.21Q116.82 27.19 116.55 27.76L116.58 27.78L112.19 36.87L112.23 36.91Q112.76 36.64 113.91 36.26L113.96 36.31L113.92 36.66L113.89 36.63Q113.68 37.21 113.37 38.47L113.33 38.43L113.49 38.59Q117.51 37.17 122.35 37.36L122.26 37.27L122.45 37.46Q122.32 38.24 122.51 40.22L122.68 40.40L122.67 40.38Q123.60 40.24 124.66 40.36L124.78 40.47L124.63 40.32Q124.86 41.09 125.13 42.46L125.12 42.45L125.22 42.55Q127.08 42.74 130.09 43.65L130.12 43.68L130.11 43.68Q129.09 41.51 128.18 38.24L128.16 38.23L129.55 38.63L129.66 38.74Q130.23 38.84 130.91 39.18L131.01 39.28L131.04 39.31Q130.11 36.67 129.96 34.99L130.03 35.07L130.07 35.10Q129.46 34.91 128.32 34.68L128.40 34.76L128.35 34.72Q128.17 33.47 128.17 32.59ZM120.14 32.41L120.05 32.32L120.07 32.33Q120.83 31.05 122.39 28.49L122.36 28.46L122.48 28.58Q122.32 29.37 122.28 30.32L122.29 30.33L122.29 30.33Q122.41 31.45 122.45 32.40L122.49 32.43L122.31 32.26Q121.92 32.40 121.35 32.40L121.33 32.38L121.21 32.27Q120.79 32.45 120.18 32.45Z"/></svg>