<svg xmlns="http://www.w3.org/2000/svg" width="150" height="50" viewBox="0,0,150,50"><path fill="#333" d="M119.70 29.82L119.67 29.78L119.68 29.80Q119.58 29.93 119.28 29.93L119.27 29.92L119.16 29.81Q117.84 29.82 116.39 30.66L116.36 30.63L116.37 30.64Q114.99 31.70 114.99 33.60L115.14 33.75L115.04 33.64Q115.07 37.10 116.59 38.44L116.54 38.38L116.65 38.49Q117.47 39.55 119.76 39.55L119.91 39.70L119.82 39.61Q120.13 39.69 120.43 39.69L120.31 39.56L120.41 39.66Q122.10 39.64 123.24 38.00L123.23 37.99L123.30 38.06Q124.38 36.59 124.30 34.80L124.15 34.65L124.25 34.75Q124.19 34.15 124.19 33.73L124.28 33.82L124.30 33.85Q124.20 31.96 122.83 30.80L122.88 30.84L122.91 30.88Q121.49 29.66 119.70 29.82ZM124.31 40.10L124.16 39.95L124.30 40.09Q123.25 41.97 119.52 42.09L119.57 42.14L119.44 42.01Q116.03 42.09 114.43 40.50L114.45 40.52L114.48 40.55Q113.11 38.87 112.31 34.08L112.32 34.09L112.29 34.06Q112.01 32.33 112.01 31.07L111.87 30.94L112.04 31.10Q112.02 29.30 112.75 28.23L112.77 28.26L112.64 28.13Q114.09 26.84 117.06 26.84L117.01 26.79L117.05 26.83Q123.37 26.83 125.27 29.41L125.18 29.32L125.28 29.42Q125.51 28.66 125.93 27.06L125.76 26.89L125.91 27.04Q127.12 26.69 129.55 25.89L129.52 25.85L129.63 25.97Q127.04 31.45 126.81 37.77L126.86 37.82L126.83 37.78Q126.55 43.90 128.68 49.73L128.70 49.74L128.71 49.75Q127.08 49.23 125.29 48.96L125.24 48.91L125.35 49.02Q124.43 45.06 124.32 40.11ZM124.92 49.16L125.05 49.29L125.00 49.24Q125.82 49.49 127.23 49.79L127.05 49.62L127.15 49.72Q127.34 50.40 127.91 51.81L127.88 51.77L128.04 51.93Q130.43 52.47 132.72 53.76L132.89 53.93L132.87 53.92Q128.70 47.19 128.70 38.66L128.71 38.67L128.69 38.66Q128.78 32.39 131.25 26.60L131.29 26.64L131.33 26.68Q130.60 26.93 129.23 27.58L129.27 27.62L129.12 27.47Q129.43 26.68 130.08 25.12L130.05 25.10L130.13 25.17Q128.66 25.80 125.46 26.67L125.50 26.71L125.44 26.65Q125.40 27.30 125.10 28.48L125.02 28.40L124.99 28.37Q123.02 26.51 116.89 26.36L116.89 26.36L116.94 26.41Q113.69 26.29 112.32 27.77L112.23 27.68L112.34 27.79Q111.52 28.87 111.56 30.78L111.64 30.86L111.64 30.85Q111.68 33.79 112.67 37.56L112.74 37.63L112.72 37.61Q113.41 40.05 114.32 41.00L114.16 40.84L114.52 41.20L114.60 41.28Q115.70 43.97 121.14 44.20L121.29 44.36L121.26 44.32Q122.37 44.44 124.19 44.13L124.09 44.03L124.14 44.08Q124.33 46.90 124.94 49.18ZM121.58 32.12L121.67 32.21L121.67 32.20Q122.78 32.25 123.62 32.56L123.56 32.50L123.51 32.45Q123.78 33.06 123.90 33.67L123.85 33.63L123.92 33.70Q123.87 34.10 123.79 34.71L123.84 34.76L123.96 34.88Q123.82 36.64 122.79 37.94L122.84 37.98L122.75 37.89Q121.61 39.34 119.75 39.15L119.88 39.29L119.82 39.22Q118.59 39.29 117.64 38.87L117.64 38.87L117.68 38.91Q117.27 38.05 117.27 36.83L117.18 36.74L117.28 36.84Q117.28 36.53 117.28 36.23L117.28 36.23L117.12 36.07Q117.25 34.45 118.58 33.28L118.61 33.31L118.48 33.19Q119.78 32.00 121.54 32.07Z"/><path fill="#111" d="M22.60 41.37L22.61 41.39L22.52 41.30Q19.72 41.55 18.47 41.01L18.40 40.94L18.39 40.94Q16.52 40.21 16.60 37.73L16.59 37.73L16.49 37.63Q16.75 34.34 16.75 34.92L16.72 34.89L16.70 34.87Q16.63 29.47 13.78 24.64L13.91 24.77L13.93 24.79Q15.92 25.75 17.90 26.13L17.74 25.97L17.76 25.99Q19.56 30.69 19.45 35.18L19.45 35.18L19.33 35.07Q19.27 36.64 20.11 37.86L20.18 37.93L20.11 37.86Q21.11 39.28 22.64 39.09L22.55 39.00L22.92 38.88L22.96 38.92Q24.36 38.92 25.18 38.16L25.02 37.99L25.17 38.14Q25.88 37.27 25.88 36.32L25.98 36.42L25.96 36.40Q25.93 36.14 25.89 35.95L25.90 35.96L25.91 35.97Q25.71 30.60 26.86 26.26L27.00 26.40L26.88 26.29Q27.94 26.24 28.93 26.01L28.97 26.05L31.00 25.56L31.01 25.58Q28.32 30.47 28.63 36.02L28.72 36.11L28.66 36.06Q28.84 39.13 27.13 40.27L27.27 40.41L27.28 40.42Q25.92 41.23 22.61 41.38ZM24.96 43.81L24.86 43.72L25.00 43.85Q28.48 44.02 30.30 43.26L30.26 43.21L30.30 43.26Q31.19 42.47 31.19 41.06L31.07 40.94L31.15 41.02Q31.19 40.15 30.92 38.58L30.88 38.54L30.90 38.56Q30.39 35.39 30.77 32.38L30.86 32.46L30.85 32.46Q31.24 29.31 32.65 26.57L32.48 26.40L32.52 26.44Q31.92 26.79 30.59 27.21L30.50 27.13L30.64 27.26Q30.76 26.54 31.06 25.97L31.03 25.94L31.72 24.92L31.61 24.81Q29.81 25.60 26.65 26.09L26.50 25.94L26.52 25.96Q25.44 30.90 25.60 36.00L25.47 35.87L25.48 35.88Q25.55 37.97 22.89 38.47L22.89 38.47L22.65 38.68L22.39 38.58L21.57 38.56L21.47 38.46Q21.45 37.64 21.49 37.14L21.35 37.01L21.35 37.01Q21.63 32.57 20.95 28.15L20.87 28.08L19.82 27.94L19.90 28.02Q19.32 27.93 18.78 27.81L18.86 27.89L18.85 27.88Q18.51 26.51 18.24 25.75L18.20 25.70L18.23 25.74Q15.34 25.21 13.10 23.92L13.18 24.00L13.20 24.02Q15.32 27.51 16.04 30.90L16.10 30.96L16.10 30.95Q16.59 33.16 16.44 36.66L16.26 36.49L16.37 36.60Q16.45 36.79 16.37 37.89L16.40 37.92L16.23 37.74Q16.15 40.18 17.52 41.14L17.57 41.18L17.48 41.09Q17.94 43.42 24.95 43.80Z"/><path fill="#333" d="M50.26 27.18L50.28 27.21L50.33 27.25Q51.09 27.22 52.50 27.06L52.40 26.96L52.52 27.09Q52.35 27.60 52.35 28.25L52.38 28.27L52.37 29.52L52.44 29.59Q51.63 29.61 50.79 29.69L50.71 29.61L50.73 29.63Q49.81 29.59 48.97 29.55L49.13 29.70L49.00 29.58Q46.29 35.89 42.86 40.50L42.85 40.49L42.71 40.34Q40.22 41.01 38.92 41.62L39.02 41.71L38.94 41.63Q43.10 35.97 46.14 29.69L46.14 29.68L43.47 29.65L43.43 29.61Q43.54 28.38 43.43 27.05L43.35 26.97L43.41 27.04Q45.20 27.08 47.26 27.08L47.30 27.12L49.24 23.46L49.17 23.39Q50.27 21.59 51.48 19.99L51.41 19.92L51.43 19.94Q49.97 20.19 48.37 20.19L48.32 20.14L48.33 20.15Q42.18 20.09 38.41 17.89L38.49 17.96L37.81 16.22L37.83 16.24Q37.43 15.35 37.05 14.47L37.06 14.48L37.14 14.56Q41.41 17.11 47.12 17.34L47.12 17.34L47.07 17.30Q52.32 17.63 57.46 15.65L57.45 15.65L57.43 15.62Q57.28 16.08 56.78 16.95L56.71 16.88L56.80 16.97Q53.20 21.74 50.34 27.26ZM58.27 18.21L58.27 18.21L59.36 16.29L59.36 16.29Q58.38 16.76 56.71 17.49L56.69 17.47L56.89 17.17L56.89 17.18Q56.94 16.96 57.05 16.84L57.06 16.85L57.06 16.85Q57.49 16.22 58.22 14.89L58.19 14.86L58.21 14.88Q52.79 17.07 47.04 16.84L47.10 16.91L47.05 16.85Q41.19 16.75 36.43 13.78L36.27 13.61L36.32 13.66Q37.45 15.63 38.28 18.29L38.13 18.13L38.28 18.29Q39.28 18.83 40.08 19.13L40.16 19.22L40.08 19.14Q40.20 19.44 40.65 21.31L40.75 21.41L40.78 21.44Q43.96 22.71 49.48 22.56L49.37 22.45L49.38 22.46Q49.06 23.02 47.08 26.79L47.16 26.86L47.14 26.84Q45.12 26.88 43.14 26.69L43.00 26.55L43.13 26.68Q43.07 27.38 43.07 28.26L43.12 28.30L43.08 29.98L44.75 29.97L44.82 31.45L44.84 31.47Q40.85 38.79 38.08 42.37L38.06 42.35L38.23 42.53Q39.82 41.76 41.46 41.26L41.41 41.21L41.40 41.20Q40.66 42.06 39.28 43.77L39.26 43.75L39.25 43.73Q42.51 42.73 44.94 42.50L44.89 42.45L44.93 42.49Q47.85 38.70 50.97 31.93L50.91 31.87L54.31 32.03L54.35 32.08Q54.31 31.19 54.31 30.28L54.39 30.36L54.22 28.41L54.30 28.48Q54.14 28.59 53.59 28.63L53.44 28.48L53.43 28.47Q52.91 28.54 52.65 28.54L52.67 28.57L52.59 28.48Q52.60 28.38 52.64 28.23L52.73 28.32L52.76 28.08L52.72 28.04Q55.26 22.93 58.34 18.29Z"/><path fill="#222" d="M80.54 41.65L80.50 41.60L80.43 41.54Q78.24 41.06 76.07 40.91L76.17 41.01L76.13 40.97Q74.72 39.56 72.06 35.72L72.05 35.71L72.12 35.77Q69.81 38.76 67.41 41.19L67.41 41.19L65.40 41.66L65.47 41.73Q64.38 41.89 63.39 42.16L63.39 42.16L63.30 42.07Q67.43 37.90 70.44 33.79L70.61 33.96L70.56 33.91Q67.17 29.61 61.76 24.81L61.86 24.90L61.86 24.91Q64.01 25.57 66.71 25.99L66.77 26.05L66.72 26.00Q70.11 29.05 72.02 31.75L72.02 31.76L72.13 31.87Q74.32 28.88 77.07 26.37L77.06 26.36L76.90 26.21Q80.05 25.96 81.87 25.47L81.82 25.41L81.79 25.38Q77.32 29.10 73.63 33.67L73.73 33.77L73.55 33.59Q77.05 38.38 80.51 41.62ZM83.22 24.61L83.25 24.64L83.32 24.71Q80.33 25.44 76.79 25.79L76.84 25.84L76.87 25.88Q73.90 28.46 72.19 30.94L72.33 31.08L72.30 31.04Q71.40 30.00 69.77 28.02L69.84 28.09L69.52 27.96L69.55 28.00Q69.39 27.94 69.27 27.94L69.29 27.96L69.32 27.99Q68.50 27.10 66.87 25.65L66.86 25.65L66.86 25.65Q63.38 25.21 60.52 23.99L60.55 24.02L60.37 23.84Q65.91 28.65 69.94 33.79L70.05 33.90L70.10 33.95Q66.57 38.41 62.16 42.72L62.23 42.79L62.21 42.77Q62.43 42.65 65.93 41.81L65.89 41.77L65.91 41.79Q64.50 43.24 62.87 44.57L62.93 44.63L62.74 44.44Q66.10 43.69 69.26 43.50L69.19 43.43L69.18 43.42Q71.61 41.21 73.51 38.47L73.53 38.48L73.47 38.42Q74.94 40.24 76.16 41.42L76.08 41.34L76.02 41.28Q76.23 41.37 76.30 41.45L76.33 41.48L76.58 41.53L76.58 41.53Q77.76 42.56 79.09 43.62L78.98 43.52L79.09 43.62Q82.75 44.24 85.65 45.27L85.45 45.08L85.58 45.21Q79.35 40.69 75.66 35.51L75.78 35.63L75.62 35.48Q79.28 30.45 83.84 26.37L83.83 26.36L83.86 26.39Q82.94 26.77 81.95 27.00L82.03 27.07L79.93 27.45L80.03 27.55Q81.09 26.51 83.26 24.65Z"/><path fill="#444" d="M98.07 20.21L98.06 20.20L97.88 20.03Q93.65 20.10 89.96 19.11L89.92 19.07L89.86 19.01Q91.44 23.64 91.63 28.47L91.74 28.58L91.70 28.54Q91.83 33.27 90.61 37.88L90.55 37.82L90.54 37.81Q93.41 37.25 96.91 37.10L96.99 37.18L97.01 37.20Q100.81 36.89 102.60 34.45L102.73 34.59L102.71 34.56Q104.21 32.48 104.40 28.37L104.32 28.29L104.37 28.34Q104.54 26.68 104.08 24.97L104.02 24.91L104.04 24.93Q102.61 20.04 97.89 20.04ZM86.06 42.12L86.13 42.19L86.12 42.19Q88.87 36.37 88.87 29.67L89.04 29.84L89.04 29.84Q88.97 21.24 84.67 14.24L84.63 14.20L84.64 14.21Q89.96 16.94 98.22 17.13L98.15 17.06L98.10 17.01Q106.96 17.19 107.30 24.35L107.43 24.47L107.32 24.36Q107.53 27.16 107.49 28.61L107.42 28.54L107.42 28.54Q107.30 33.17 106.46 35.34L106.64 35.53L106.56 35.44Q106.04 36.45 105.28 37.28L105.32 37.33L105.40 37.41Q104.06 38.96 101.43 39.45L101.42 39.44L101.47 39.49Q99.81 39.69 96.80 39.92L96.87 39.99L96.80 39.92Q90.63 40.33 86.02 42.08ZM103.94 41.96L104.00 42.02L103.94 41.96Q106.68 41.61 108.31 40.13L108.36 40.18L108.37 40.19Q109.58 38.42 109.54 35.68L109.47 35.61L109.57 35.72Q109.57 34.34 109.41 30.84L109.39 30.81L108.96 26.19L108.99 26.23Q108.79 23.93 107.84 21.84L107.88 21.88L107.83 21.83Q107.39 20.97 106.71 20.33L106.61 20.23L106.76 20.22L106.64 20.11Q105.04 17.25 100.63 16.87L100.57 16.81L100.49 16.74Q97.87 16.66 90.86 15.94L90.83 15.91L90.95 16.03Q87.54 15.43 83.85 13.42L83.99 13.56L83.95 13.52Q88.69 20.81 88.69 29.57L88.66 29.53L88.71 29.59Q88.76 36.64 85.41 42.80L85.33 42.73L85.40 42.80Q86.08 42.52 87.41 42.03L87.39 42.01L87.42 42.03Q87.06 42.86 86.18 44.34L86.15 44.31L86.22 44.38Q89.26 43.31 92.61 42.81L92.61 42.82L92.53 42.73Q94.62 42.42 98.27 42.31L98.36 42.39L98.19 42.23Q102.22 42.26 104.04 42.06ZM103.95 28.30L104.05 28.41L104.07 28.42Q103.74 36.47 97.04 36.85L97.02 36.83L97.01 36.82Q94.97 36.84 92.92 37.10L93.05 37.24L92.93 37.11Q93.63 33.25 93.63 29.60L93.77 29.73L93.62 29.58Q93.56 25.83 92.83 21.98L92.92 22.07L92.93 22.08Q95.27 22.52 99.95 22.52L99.94 22.51L99.87 22.43Q101.35 22.40 102.99 23.35L102.80 23.15L102.98 23.34Q104.19 25.54 104.04 28.39Z"/></svg>