<svg xmlns="http://www.w3.org/2000/svg" width="150" height="50" viewBox="0,0,150,50"><path fill="#222" d="M97.31 40.05L97.44 40.18L95.37 40.40L95.34 40.37Q94.79 40.27 93.82 40.33L93.88 40.39L93.75 40.26Q92.94 40.48 92.45 40.48L92.31 40.34L92.39 40.42Q90.70 40.37 89.67 39.53L89.75 39.61L89.70 39.56Q90.60 38.55 92.23 36.42L92.06 36.25L92.13 36.32Q93.49 37.98 95.70 37.75L95.66 37.72L95.56 37.62Q96.56 37.59 97.21 36.94L97.24 36.97L97.12 36.85Q97.87 36.31 97.76 35.44L97.77 35.45L97.77 35.44Q97.65 30.83 97.72 26.26L97.64 26.18L97.61 26.15Q97.67 21.57 98.20 16.96L98.26 17.02L98.23 16.99Q100.28 16.90 102.41 15.87L102.35 15.82L102.23 15.69Q100.48 22.55 100.48 29.78L100.45 29.75L100.45 29.76Q100.36 33.20 100.81 36.70L100.87 36.76L100.97 36.85Q101.03 37.18 101.03 37.52L100.94 37.44L100.93 37.43Q101.09 38.15 100.86 38.69L100.70 38.53L100.66 38.49Q100.20 39.85 97.38 40.12ZM102.29 42.94L102.34 42.99L102.57 42.87L102.89 42.77L103.12 42.62L103.11 42.61Q103.52 42.45 103.59 42.34L103.51 42.25L103.54 42.29Q103.80 41.17 103.53 40.18L103.53 40.18L103.53 40.18Q102.11 34.31 102.38 27.95L102.50 28.07L102.35 27.92Q102.60 21.82 104.39 15.92L104.48 16.00L104.39 15.91Q103.67 16.72 102.42 17.44L102.29 17.31L102.38 17.40Q102.59 16.67 103.01 15.14L102.93 15.07L102.98 15.11Q100.34 16.31 97.67 16.62L97.69 16.63L97.70 16.65Q97.49 21.19 97.41 26.14L97.26 25.99L97.31 26.04Q97.25 31.96 97.33 35.39L97.29 35.35L97.41 35.47Q97.32 37.10 95.57 37.25L95.61 37.29L95.60 37.28Q93.89 37.40 92.22 35.76L92.18 35.72L92.22 35.76Q90.14 38.25 89.19 39.81L89.28 39.90L89.27 39.89Q89.85 40.47 90.88 40.70L90.93 40.75L90.81 40.63Q90.82 40.87 90.55 41.10L90.59 41.14L90.47 41.02Q91.93 41.98 93.91 42.24L93.97 42.31L93.90 42.24Q94.45 42.44 97.74 42.75L97.64 42.65L97.70 42.71Q100.93 42.95 102.31 42.95Z"/><path fill="#222" d="M123.57 39.84L123.54 39.80L121.61 39.82L121.58 39.79Q120.67 39.83 119.72 39.94L119.79 40.01L119.77 39.99Q120.21 33.66 120.21 29.66L120.31 29.76L120.26 29.71Q116.38 23.13 108.73 14.45L108.64 14.36L108.70 14.42Q110.39 15.31 113.74 16.11L113.76 16.13L113.80 16.17Q118.99 21.90 122.00 27.11L121.83 26.94L121.95 27.07Q124.85 21.40 129.23 16.38L129.28 16.42L129.27 16.42Q131.72 16.04 134.23 15.24L134.17 15.18L134.28 15.29Q128.20 21.36 123.32 29.77L123.21 29.65L123.35 29.79Q123.37 36.86 123.68 39.94ZM132.75 17.34L135.30 14.33L135.30 14.34Q132.32 15.62 129.20 16.07L129.13 16.01L129.23 16.11Q124.90 20.72 122.08 25.83L122.20 25.95L122.14 25.88Q120.05 22.27 116.85 18.38L116.87 18.41L116.86 18.39Q116.60 18.40 116.11 18.33L116.05 18.27L116.12 18.33Q115.31 17.42 113.79 15.74L113.77 15.72L113.90 15.85Q110.38 14.96 107.41 13.40L107.46 13.45L107.50 13.49Q115.24 21.99 120.00 29.91L119.93 29.84L119.98 29.89Q119.95 36.29 119.34 40.44L119.32 40.42L119.29 40.39Q119.97 40.31 121.42 40.20L121.51 40.28L121.35 41.16L121.45 41.25Q121.37 41.64 121.30 42.17L121.29 42.16L121.30 42.17Q124.98 42.31 126.73 42.50L126.71 42.48L126.73 42.51Q125.37 37.71 125.25 31.74L125.20 31.68L125.24 31.72Q129.69 23.34 136.23 15.99L136.30 16.06L132.67 17.26Z"/><path fill="#333" d="M15.06 15.81L15.02 15.77L15.06 15.81Q17.03 20.75 17.60 25.93L17.56 25.89L17.64 25.96Q21.25 21.73 27.15 16.90L27.18 16.93L27.14 16.89Q30.32 16.57 32.95 15.77L33.07 15.89L26.37 21.37L26.42 21.42Q23.10 24.46 20.25 27.32L20.20 27.27L20.24 27.31Q28.19 36.44 33.25 41.16L33.27 41.18L33.19 41.10Q30.03 40.11 27.71 39.96L27.84 40.08L27.79 40.04Q21.99 34.62 17.69 28.80L17.71 28.82L17.72 28.83Q17.88 35.50 16.02 40.83L15.95 40.77L15.91 40.72Q15.80 40.87 15.30 41.06L15.15 40.91L15.27 41.23L15.25 41.21Q15.03 41.22 12.48 42.13L12.42 42.07L12.37 42.01Q15.36 35.49 15.01 28.02L15.00 28.01L15.12 28.13Q14.74 20.75 11.20 14.24L11.14 14.17L11.66 14.43L12.20 14.86L12.19 14.81L12.09 14.71Q12.98 15.25 15.18 15.94ZM15.36 15.54L15.38 15.56L15.36 15.54Q13.14 15.03 10.51 13.51L10.50 13.50L10.39 13.39Q14.81 20.82 14.81 29.77L14.69 29.64L14.85 29.80Q14.80 36.75 11.83 42.81L11.79 42.77L13.74 41.83L13.87 41.96Q13.36 42.85 12.67 44.15L12.79 44.26L12.67 44.14Q15.07 43.50 17.01 43.08L16.87 42.93L17.11 42.95L17.01 42.85Q17.35 42.88 17.92 42.73L17.82 42.64L17.86 42.67Q19.43 36.67 19.55 31.87L19.59 31.91L19.60 31.93Q21.63 34.37 23.45 36.24L23.53 36.31L23.60 36.38Q24.64 37.35 27.65 40.31L27.71 40.38L27.75 40.42L27.71 40.38Q28.75 41.23 30.62 42.83L30.70 42.91L30.60 42.81Q34.39 43.44 37.86 45.16L37.94 45.24L37.93 45.23Q28.73 36.75 22.49 29.33L22.46 29.31L22.43 29.28Q26.85 25.02 35.61 16.41L35.60 16.41L35.67 16.47Q33.02 17.51 31.00 17.90L31.02 17.92L30.97 17.87Q32.27 16.96 34.59 14.94L34.59 14.94L34.58 14.93Q30.44 16.31 27.09 16.50L27.07 16.48L27.13 16.54Q24.25 18.80 19.38 23.48L19.39 23.50L19.39 23.49Q19.00 20.90 18.43 18.35L18.39 18.31L18.25 18.17Q17.10 18.04 16.11 17.70L16.13 17.72L16.21 17.80Q15.97 17.03 15.40 15.58Z"/><path fill="#111" d="M43.62 19.30L43.72 19.40L43.78 19.47Q44.58 23.65 44.73 27.23L44.63 27.13L44.72 27.22Q45.75 27.23 46.82 27.23L46.93 27.34L49.03 27.23L49.14 27.34Q50.07 27.20 50.94 25.79L50.90 25.75L50.95 25.80Q51.66 24.61 51.78 23.43L51.89 23.54L51.74 23.39Q52.16 20.42 47.93 19.93L47.96 19.96L47.99 19.98Q46.31 19.94 43.68 19.37ZM44.78 30.02L44.70 29.94L44.61 29.85Q44.62 36.14 43.48 40.56L43.50 40.58L43.40 40.48Q42.08 41.02 39.75 42.09L39.75 42.08L39.75 42.09Q42.10 35.42 41.84 28.14L41.74 28.04L41.74 28.04Q41.55 20.78 38.77 14.34L38.72 14.29L38.80 14.38Q42.91 17.11 49.15 17.11L49.12 17.08L49.15 17.11Q55.16 17.07 55.31 20.53L55.24 20.46L55.41 20.63Q55.34 22.91 54.35 25.58L54.32 25.56L54.44 25.67Q54.04 26.79 53.08 28.01L53.14 28.06L53.01 27.93Q51.82 29.68 49.27 29.94L49.20 29.88L49.13 29.80Q46.90 29.85 44.65 29.89ZM50.75 32.11L50.77 32.13L50.79 32.15Q55.06 32.50 56.32 27.70L56.18 27.57L56.32 27.71Q57.23 24.01 57.08 21.99L57.01 21.92L57.04 21.95Q56.84 20.35 56.08 19.36L56.17 19.45L56.10 19.37Q55.86 19.14 55.37 18.91L55.24 18.78L55.41 18.95Q55.35 18.74 54.74 17.98L54.64 17.88L54.63 17.87Q53.08 16.55 49.12 16.55L49.17 16.59L49.30 16.72Q42.21 16.53 37.98 13.37L38.07 13.46L38.10 13.48Q41.16 20.46 41.42 27.92L41.60 28.10L41.52 28.01Q41.85 35.74 39.19 42.82L39.12 42.75L39.13 42.76Q40.22 42.13 41.21 41.75L41.15 41.70L40.90 42.96L40.92 42.98Q40.53 43.36 40.27 43.94L40.39 44.06L40.29 43.96Q42.80 43.00 45.69 42.47L45.67 42.44L45.63 42.41Q46.57 36.99 46.65 32.27L46.62 32.24L46.56 32.18Q47.66 32.10 48.65 32.10L48.77 32.23L48.61 32.07Q49.96 32.07 50.75 32.11ZM49.95 22.33L49.94 22.31L49.80 22.18Q50.39 22.26 51.38 22.49L51.37 22.48L51.37 22.48Q51.45 22.68 51.48 22.98L51.55 23.04L51.55 23.04Q51.52 23.24 51.44 23.51L51.43 23.50L51.45 23.52Q51.43 24.83 50.71 25.71L50.68 25.68L50.74 25.74Q50.06 26.70 49.03 26.89L49.02 26.88L49.02 26.87Q48.20 26.78 46.57 26.78L46.63 26.84L46.69 26.91Q46.61 24.58 46.38 22.22L46.30 22.13L48.20 22.36L48.13 22.30Q49.06 22.39 49.94 22.31Z"/><path fill="#222" d="M64.37 15.79L64.38 15.80L64.52 15.93Q66.31 20.70 66.88 25.87L66.88 25.88L67.00 25.99Q70.71 21.86 76.61 17.02L76.42 16.84L76.56 16.98Q79.69 16.60 82.32 15.81L82.24 15.73L75.72 21.39L75.77 21.44Q72.29 24.31 69.43 27.17L69.42 27.16L69.50 27.24Q77.49 36.40 82.55 41.12L82.52 41.09L82.59 41.17Q79.46 40.20 77.14 40.05L77.06 39.97L77.09 40.01Q71.26 34.56 66.96 28.74L67.13 28.90L67.02 28.79Q67.17 35.46 65.31 40.79L65.35 40.83L65.38 40.86Q65.01 40.76 64.52 40.95L64.64 41.07L64.48 41.10L64.50 41.12Q64.35 41.20 61.80 42.11L61.76 42.08L61.76 42.07Q64.74 35.53 64.40 28.07L64.27 27.95L64.28 27.96Q64.08 20.75 60.54 14.24L60.52 14.22L61.11 14.55L61.41 14.73L61.50 14.78L61.58 14.86Q62.22 15.16 64.43 15.85ZM64.68 15.53L64.65 15.50L64.80 15.65Q62.40 14.97 59.78 13.44L59.82 13.48L59.73 13.39Q64.02 20.70 64.02 29.64L64.03 29.65L64.14 29.76Q64.17 36.79 61.20 42.84L61.14 42.79L63.09 41.84L63.11 41.86Q62.78 42.94 62.10 44.24L62.07 44.21L62.16 44.30Q64.25 43.35 66.19 42.93L66.18 42.91L66.33 42.84L66.37 42.87Q66.69 42.90 67.26 42.74L67.13 42.61L67.19 42.67Q68.83 36.74 68.95 31.94L69.00 32.00L68.96 31.95Q71.04 34.45 72.87 36.32L72.94 36.39L72.76 36.21Q74.03 37.40 77.04 40.37L77.00 40.34L77.08 40.41L77.14 40.47Q78.16 41.30 80.02 42.90L79.91 42.79L80.03 42.91Q83.75 43.47 87.22 45.18L87.28 45.25L87.22 45.18Q78.04 36.73 71.80 29.31L71.84 29.35L71.67 29.18Q76.10 24.93 84.86 16.33L84.90 16.37L84.88 16.35Q82.33 17.49 80.31 17.87L80.39 17.95L80.26 17.82Q81.54 16.89 83.86 14.88L83.91 14.92L83.91 14.92Q79.86 16.39 76.51 16.58L76.43 16.50L76.44 16.51Q73.50 18.72 68.63 23.40L68.67 23.44L68.56 23.33Q68.21 20.77 67.64 18.22L67.74 18.32L67.59 18.18Q66.52 18.13 65.53 17.78L65.54 17.80L65.52 17.77Q65.25 16.98 64.68 15.53Z"/></svg>