<svg xmlns="http://www.w3.org/2000/svg" width="150" height="50" viewBox="0,0,150,50"><path fill="#111" d="M48.83 32.13L39.57 22.11L39.70 22.24Q40.48 25.87 40.48 29.60L40.54 29.66L40.49 29.61Q40.49 35.59 38.43 41.15L38.36 41.08L38.33 41.04Q37.38 41.43 35.14 42.19L35.16 42.21L35.07 42.12Q37.89 36.34 37.89 29.64L37.98 29.73L37.94 29.69Q37.93 21.04 33.44 13.62L33.39 13.56L33.38 13.56Q33.77 13.68 34.45 14.10L34.44 14.08L34.57 14.21Q46.53 25.30 54.37 34.55L54.44 34.61L54.51 34.69Q54.19 32.24 54.19 29.80L54.05 29.66L54.08 29.69Q54.08 22.45 56.59 16.25L56.74 16.40L56.61 16.27Q58.96 15.77 60.56 15.08L60.55 15.07L60.60 15.12Q57.23 21.23 56.93 28.39L56.94 28.40L57.04 28.50Q56.72 35.83 59.69 42.00L59.73 42.04L59.57 41.88Q59.09 41.90 58.67 41.71L58.71 41.74L58.55 41.58Q54.17 37.81 48.95 32.25L48.92 32.22ZM62.27 45.15L62.18 45.06L62.26 45.14Q62.71 45.28 63.13 45.47L63.04 45.39L63.94 45.79L64.06 45.91Q58.92 38.99 58.92 29.62L58.76 29.46L58.79 29.49Q58.76 22.23 62.08 15.99L62.10 16.01L62.20 16.11Q61.45 16.23 60.04 16.84L60.18 16.99L60.04 16.84Q60.42 16.01 61.26 14.45L61.26 14.45L61.39 14.58Q58.74 15.28 56.30 15.85L56.30 15.85L56.32 15.87Q53.76 22.40 53.76 29.82L53.83 29.89L53.72 29.79Q53.67 31.61 53.86 33.58L53.91 33.63L53.92 33.64Q49.33 28.02 44.57 23.41L44.46 23.31L34.52 13.74L34.39 13.61Q33.89 13.38 32.67 12.81L32.59 12.73L32.60 12.74Q37.51 20.50 37.51 29.60L37.61 29.70L37.62 29.71Q37.63 36.85 34.55 42.86L34.54 42.85L34.45 42.76Q34.68 42.58 36.32 41.97L36.47 42.11L36.42 42.06Q36.14 42.89 35.30 44.37L35.19 44.26L35.22 44.29Q36.58 43.79 40.05 42.99L39.98 42.93L40.15 43.09Q42.41 36.91 42.41 29.71L42.44 29.74L42.46 29.76Q42.39 27.59 42.16 25.46L42.15 25.45L42.21 25.51Q53.64 38.28 62.25 45.13Z"/><path fill="#333" d="M120.35 29.11L120.40 29.17L120.37 29.13Q118.50 28.98 117.26 30.40L117.30 30.44L117.35 30.50Q116.09 31.90 115.90 33.81L115.93 33.83L115.92 33.83Q115.56 35.75 116.65 36.72L116.73 36.81L116.65 36.73Q117.72 37.68 119.81 37.56L119.91 37.66L119.84 37.59Q121.97 37.47 123.07 36.79L123.14 36.85L123.14 36.85Q124.13 35.60 124.13 34.04L124.15 34.05L124.31 34.22Q124.31 33.84 124.23 33.46L124.24 33.46L124.18 33.41Q124.24 31.71 123.13 30.36L123.15 30.38L123.19 30.42Q121.92 28.90 120.25 29.01ZM119.92 40.22L119.95 40.25L119.87 40.17Q115.59 40.27 114.18 39.50L114.05 39.38L114.21 39.54Q113.05 38.65 112.86 36.93L112.89 36.96L112.88 36.95Q112.91 36.34 112.95 35.61L112.93 35.59L112.94 35.60Q113.00 34.56 113.00 34.10L112.96 34.06L112.94 34.04Q113.42 31.21 113.57 30.53L113.65 30.60L113.66 30.61Q114.20 28.75 115.04 27.34L115.03 27.34L114.96 27.27Q117.65 22.91 123.58 16.55L123.63 16.60L123.56 16.53Q126.13 16.13 128.34 15.33L128.49 15.48L128.41 15.40Q121.59 22.89 118.39 27.12L118.43 27.16L118.36 27.08Q119.26 26.50 120.55 26.50L120.75 26.70L120.59 26.54Q124.03 26.67 125.56 28.61L125.40 28.46L125.42 28.47Q126.90 30.26 127.24 33.80L127.26 33.82L127.18 33.74Q127.30 34.51 127.30 35.12L127.25 35.06L127.33 35.15Q127.26 38.19 125.05 39.26L125.00 39.21L125.05 39.26Q123.80 39.83 119.91 40.22ZM122.15 42.57L122.15 42.57L122.20 42.62Q123.57 42.66 125.55 42.73L125.43 42.61L125.44 42.62Q127.13 42.75 128.69 42.03L128.71 42.05L128.65 41.99Q129.74 41.17 129.74 39.38L129.83 39.48L129.76 39.40Q129.70 38.85 129.53 37.86L129.65 37.98L129.60 37.93Q129.48 36.99 129.48 36.54L129.50 36.56L129.38 36.44Q128.50 31.70 126.90 29.80L126.96 29.87L126.99 29.90Q126.91 29.78 126.76 29.55L126.68 29.47L126.52 29.39L126.41 29.32L126.27 29.18Q126.10 28.85 125.49 27.90L125.34 27.75L125.47 27.88Q124.55 26.93 122.57 26.47L122.53 26.43L122.59 26.48Q123.71 24.79 126.68 21.10L126.67 21.08L130.89 15.78L130.94 15.83Q129.29 16.62 126.89 17.38L127.06 17.55L126.90 17.39Q127.79 16.38 129.57 14.40L129.64 14.47L129.68 14.50Q127.31 15.59 123.43 16.16L123.38 16.12L123.32 16.06Q117.66 22.01 114.69 26.96L114.65 26.92L114.77 27.04Q113.14 29.44 112.57 35.69L112.55 35.67L112.69 35.80Q112.52 36.28 112.59 37.23L112.61 37.25L112.64 37.28Q112.79 39.10 113.89 40.02L113.76 39.88L113.77 39.89Q114.22 40.12 114.18 40.15L114.18 40.15L114.19 40.16Q114.58 41.09 115.38 41.51L115.32 41.44L115.38 41.50Q116.77 42.13 118.71 42.32L118.64 42.25L118.73 42.34Q118.64 42.26 122.15 42.56ZM122.03 31.44L122.02 31.44L121.95 31.36Q122.46 31.19 123.41 31.68L123.48 31.75L123.44 31.71Q123.88 32.76 123.88 33.41L123.93 33.46L123.89 33.42Q123.98 35.18 123.03 36.17L123.16 36.31L123.05 36.19Q121.96 36.89 119.86 37.20L120.02 37.35L119.90 37.23Q118.47 37.25 117.93 36.98L117.98 37.02L117.97 37.01Q117.79 36.57 117.79 36.27L117.79 36.26L117.79 36.27Q117.50 32.93 120.43 31.64L120.48 31.68L120.37 31.58Q121.20 31.30 121.96 31.38Z"/><path fill="#333" d="M67.23 33.02L67.11 32.90L67.11 32.90Q70.16 32.49 73.36 32.60L73.43 32.67L73.44 32.68Q73.35 30.08 73.35 27.68L73.40 27.73L73.41 27.74Q73.47 25.32 73.66 22.77L73.60 22.72L73.70 22.81Q72.36 24.41 67.15 32.94ZM77.01 40.25L77.02 40.26L77.01 40.24Q75.36 39.97 73.57 39.90L73.60 39.93L73.70 40.02Q73.46 37.62 73.35 35.14L73.36 35.15L73.24 35.04Q67.88 34.82 63.16 36.22L63.18 36.24L63.32 36.38Q63.43 35.88 63.62 34.89L63.47 34.74L63.47 34.75Q65.44 31.76 69.02 25.48L68.93 25.39L69.00 25.46Q71.74 20.44 75.17 16.56L75.14 16.53L75.21 16.60Q76.05 16.37 77.72 16.10L77.69 16.07L77.74 16.12Q75.88 22.60 75.88 29.64L75.90 29.66L75.91 29.67Q75.86 31.10 75.93 32.59L76.03 32.68L77.22 32.69L77.19 32.67Q77.91 32.82 78.52 32.93L78.45 32.86L78.41 32.82Q78.54 33.82 78.80 35.76L78.89 35.85L78.81 35.77Q77.60 35.51 76.12 35.32L76.12 35.32L76.07 35.28Q76.34 37.34 77.03 40.27ZM78.66 32.42L78.76 32.52L78.71 32.47Q78.62 32.49 78.43 32.49L78.32 32.38L77.91 32.36L77.98 32.43Q77.79 30.86 77.79 29.45L77.77 29.44L77.80 29.47Q77.77 23.04 79.82 17.02L79.99 17.19L80.00 17.20Q79.19 17.42 77.74 17.80L77.62 17.67L77.69 17.75Q77.97 17.04 78.43 15.63L78.30 15.50L78.32 15.52Q77.17 16.05 75.12 16.28L75.06 16.22L74.95 16.11Q71.06 20.48 65.85 29.85L65.99 29.99L68.02 26.27L67.98 26.24Q67.55 27.25 67.28 27.82L67.35 27.88L62.80 36.81L62.91 36.92Q63.54 36.75 64.68 36.37L64.62 36.31L64.53 36.60L64.55 36.62Q64.31 37.18 64.01 38.44L64.17 38.61L64.05 38.48Q68.10 37.09 72.94 37.28L72.95 37.29L72.94 37.28Q73.09 38.35 73.28 40.33L73.20 40.25L73.28 40.33Q74.32 40.30 75.39 40.42L75.45 40.48L75.45 40.48Q75.50 41.06 75.77 42.43L75.75 42.42L75.76 42.43Q77.79 42.78 80.79 43.69L80.77 43.67L80.79 43.69Q79.68 41.43 78.76 38.16L78.80 38.20L80.25 38.66L80.23 38.63Q80.94 38.88 81.62 39.23L81.69 39.29L81.72 39.33Q80.83 36.72 80.68 35.05L80.73 35.10L80.75 35.12Q80.16 34.95 79.02 34.72L79.06 34.76L78.92 34.62Q78.80 33.44 78.80 32.56ZM70.78 32.39L70.76 32.36L70.66 32.26Q71.57 31.11 73.13 28.56L73.17 28.60L73.10 28.53Q73.09 29.48 73.05 30.43L73.06 30.44L73.10 30.48Q73.10 31.47 73.14 32.42L73.12 32.40L73.01 32.29Q72.57 32.38 72.00 32.38L71.90 32.29L71.99 32.37Q71.26 32.25 70.65 32.25Z"/><path fill="#333" d="M23.65 29.85L23.77 29.96L23.81 30.01Q21.22 29.81 19.89 31.03L19.88 31.03L19.84 30.99Q18.45 32.15 18.76 34.66L18.76 34.66L18.74 34.64Q19.07 37.18 20.29 38.44L20.38 38.53L20.42 38.56Q21.35 39.77 23.49 39.69L23.47 39.68L23.49 39.70Q24.06 39.69 24.25 39.69L24.37 39.82L24.23 39.68Q27.87 39.17 27.98 34.56L27.95 34.53L27.90 34.48Q27.94 32.08 27.25 31.28L27.39 31.41L27.25 31.27Q26.30 30.09 23.75 29.94ZM27.02 41.63L27.05 41.66L27.09 41.70Q25.65 42.16 24.09 42.08L24.17 42.16L24.16 42.16Q20.28 42.31 18.98 39.72L18.97 39.71L18.94 39.68Q18.84 45.10 17.51 49.36L17.58 49.44L17.58 49.44Q15.80 49.94 14.16 50.66L14.11 50.61L14.17 50.67Q16.63 44.60 16.36 37.63L16.30 37.57L16.36 37.63Q16.21 30.90 13.32 24.84L13.31 24.84L13.19 24.71Q15.18 25.94 16.89 26.40L16.98 26.49L17.47 27.93L17.45 27.91Q17.52 28.21 17.79 29.31L17.83 29.35L17.82 29.34Q18.85 27.30 22.43 27.11L22.33 27.00L22.43 27.10Q23.18 26.94 24.05 26.94L24.14 27.02L24.53 26.92L24.55 26.94Q24.72 27.00 24.91 27.04L25.03 27.15L25.28 27.10L25.31 27.13Q27.36 27.39 28.08 27.62L28.03 27.56L28.01 27.54Q29.58 28.08 30.45 29.03L30.49 29.08L30.40 28.99Q31.33 30.25 31.29 31.66L31.21 31.58L31.15 31.53Q31.28 34.50 30.48 37.17L30.40 37.09L30.33 37.02Q29.44 40.67 27.08 41.69ZM31.24 42.19L31.24 42.16L31.19 42.11Q32.49 40.32 32.79 36.21L32.72 36.14L32.66 36.07Q32.88 34.40 32.88 33.14L32.92 33.17L32.95 33.21Q32.94 31.67 32.18 30.27L32.15 30.24L32.23 30.31Q31.59 29.64 31.09 29.26L31.22 29.38L30.94 28.99L30.83 28.76L30.77 28.59L30.84 28.66Q29.08 26.59 24.74 26.59L24.66 26.52L24.16 26.63L24.10 26.56Q19.42 26.52 17.78 28.12L17.83 28.17L17.82 28.16Q17.65 27.65 17.49 27.15L17.50 27.16L17.28 26.14L17.16 26.03Q14.84 25.56 12.63 24.08L12.54 23.99L12.63 24.08Q15.83 30.32 16.13 37.56L16.19 37.62L16.03 37.45Q16.45 44.84 13.59 51.31L13.51 51.23L15.44 50.30L15.61 50.47Q15.21 51.06 14.53 52.62L14.51 52.61L14.50 52.60Q17.20 51.53 19.52 51.19L19.70 51.36L19.51 51.17Q20.65 46.37 20.80 42.64L20.94 42.78L20.79 42.63Q22.27 44.19 25.89 44.42L25.91 44.44L25.87 44.40Q29.75 44.59 31.20 42.15L31.22 42.18ZM25.70 32.24L25.69 32.23L25.68 32.22Q26.31 32.12 27.41 32.47L27.35 32.40L27.32 32.38Q27.71 33.49 27.68 34.67L27.58 34.57L27.62 34.62Q27.51 35.42 27.32 36.07L27.43 36.18L27.32 36.07Q26.73 39.09 24.21 39.39L24.15 39.33L24.21 39.27L24.28 39.35Q24.11 39.25 24.00 39.29L24.14 39.44L23.56 39.38L23.55 39.37Q22.30 39.30 21.31 38.81L21.32 38.83L21.04 36.83L20.97 36.76Q20.90 34.52 22.19 33.49L22.15 33.45L22.21 33.50Q23.22 32.43 25.62 32.16Z"/><path fill="#333" d="M89.90 49.55L89.94 49.59L89.91 49.56Q92.83 45.70 95.73 39.49L95.74 39.51L95.87 39.64Q92.71 33.05 86.62 24.98L86.62 24.98L86.66 25.02Q88.43 26.03 91.21 26.68L91.18 26.65L91.16 26.63Q94.81 31.42 97.24 36.63L97.26 36.65L97.12 36.51Q99.45 31.38 102.53 26.96L102.47 26.90L102.49 26.92Q104.67 26.55 106.76 25.75L106.76 25.74L106.70 25.69Q103.45 29.67 99.98 37.09L99.84 36.94L97.07 43.01L97.04 42.98Q95.65 46.16 93.90 48.79L93.87 48.75L93.85 48.73Q91.36 49.02 89.91 49.55ZM96.19 51.00L96.12 50.93L96.15 50.96Q97.80 48.00 99.25 44.73L99.24 44.73L102.10 38.53L101.99 38.42Q105.61 30.50 108.92 26.50L108.93 26.51L108.96 26.54Q107.46 27.05 105.56 27.74L105.68 27.86L106.67 26.41L106.58 26.33Q107.29 25.78 107.90 25.10L107.70 24.90L107.90 25.10Q105.16 26.09 102.30 26.54L102.20 26.44L102.26 26.50Q99.48 30.38 97.54 34.84L97.61 34.91L97.69 34.98Q96.06 31.68 94.27 28.86L94.26 28.86L94.17 28.76Q94.04 28.82 93.68 28.78L93.55 28.66L93.70 28.81Q93.23 28.66 93.04 28.66L93.14 28.76L92.98 28.60Q92.24 27.36 91.28 26.22L91.39 26.32L91.36 26.30Q88.28 25.73 85.54 24.02L85.39 23.87L85.40 23.88Q91.62 31.85 95.32 39.47L95.39 39.54L95.47 39.62Q93.26 44.65 89.19 50.28L89.08 50.17L89.17 50.26Q90.08 50.06 90.88 49.91L90.77 49.81L92.32 49.38L92.40 49.46Q91.79 50.18 90.61 51.81L90.51 51.71L90.55 51.76Q92.79 51.10 96.06 50.87Z"/></svg>