<svg xmlns="http://www.w3.org/2000/svg" width="150" height="50" viewBox="0,0,150,50"><path fill="#222" d="M115.57 19.08L115.69 19.20L115.67 19.18Q116.72 23.59 116.88 26.79L117.01 26.92L116.91 26.82Q117.38 26.83 121.75 26.94L121.85 27.04L121.91 27.10Q124.39 27.06 124.77 23.60L124.77 23.60L124.76 23.59Q124.86 21.74 123.94 20.83L123.94 20.83L124.08 20.97Q122.67 19.94 120.70 19.79L120.86 19.96L120.85 19.94Q117.58 19.68 115.71 19.22ZM117.15 28.88L117.02 28.75L117.16 28.89Q117.33 34.90 115.55 40.83L115.40 40.69L115.41 40.70Q114.12 40.97 111.53 42.00L111.66 42.13L111.59 42.05Q114.47 35.61 114.13 28.15L114.01 28.03L114.09 28.11Q113.82 20.79 110.50 14.28L110.46 14.24L110.40 14.18Q115.43 17.15 122.40 17.15L122.28 17.03L122.34 17.10Q127.95 17.08 128.22 20.62L128.29 20.68L128.24 20.63Q128.21 21.14 128.14 21.75L128.19 21.81L128.18 23.01L128.20 23.03Q127.39 26.99 125.26 28.70L125.21 28.65L125.10 28.53Q124.30 29.22 123.27 29.22L123.43 29.38L120.85 29.39L120.74 29.28Q126.39 36.57 130.92 41.13L130.85 41.06L130.97 41.18Q128.69 40.35 125.76 40.01L125.85 40.10L125.73 39.98Q122.06 36.12 117.15 28.89ZM125.70 40.44L125.61 40.35L125.91 40.35L127.19 41.63L127.12 41.56Q127.68 42.08 128.33 42.69L128.35 42.71L128.44 42.80Q132.03 43.46 135.60 45.32L135.62 45.33L135.52 45.24Q128.70 38.61 123.29 31.68L123.20 31.58L124.87 31.51L125.02 31.66Q128.12 31.67 129.45 27.14L129.31 26.99L129.42 27.11Q129.98 24.77 129.98 22.07L130.02 22.11L130.04 22.14Q130.12 19.93 128.41 19.28L128.25 19.13L128.37 19.24Q128.20 18.81 127.63 18.13L127.70 18.19L127.75 18.25Q126.03 16.75 122.38 16.68L122.26 16.56L122.42 16.72Q114.43 16.46 109.75 13.45L109.73 13.43L109.73 13.43Q113.59 20.38 113.93 28.07L113.84 27.98L113.77 27.90Q114.09 35.84 110.97 42.69L111.13 42.85L111.04 42.76Q112.23 42.13 113.03 41.82L113.03 41.83L112.20 44.26L112.05 44.12Q114.78 43.08 117.45 42.59L117.43 42.57L117.62 42.76Q118.87 37.61 119.06 32.39L119.01 32.34L118.89 32.23Q122.48 37.26 125.64 40.38ZM124.45 22.52L124.48 22.55L124.34 22.41Q124.48 22.78 124.48 23.12L124.50 23.14L124.47 23.68L124.50 23.71Q124.40 24.71 123.71 25.67L123.78 25.74L123.66 25.61Q123.16 26.48 122.24 26.67L122.31 26.73L122.30 26.73Q121.94 26.63 120.34 26.67L120.41 26.74L120.46 26.79Q119.90 26.84 119.06 26.72L118.90 26.57L118.91 26.58Q118.93 25.18 118.59 22.14L118.44 22.00L118.47 22.02Q119.86 22.19 120.55 22.19L120.56 22.21L120.61 22.26Q122.45 22.27 124.39 22.46Z"/><path fill="#111" d="M26.06 31.00L25.89 30.83L25.91 30.85Q25.86 29.69 23.91 28.97L23.94 28.99L23.99 29.05Q23.41 28.77 22.87 28.77L22.87 28.76L22.88 28.78Q21.46 28.72 20.39 29.29L20.54 29.43L20.44 29.34Q19.12 30.12 19.24 31.33L19.09 31.19L19.12 31.21Q19.43 34.00 19.28 36.24L19.37 36.34L19.31 36.28Q19.28 38.84 18.56 41.35L18.51 41.31L18.47 41.26Q16.40 41.82 15.22 42.24L15.23 42.25L15.21 42.23Q16.78 38.58 16.78 34.58L16.73 34.54L16.80 34.61Q16.71 29.07 14.12 24.62L14.24 24.74L14.19 24.68Q15.46 25.24 17.86 25.96L17.74 25.84L17.90 26.00Q18.06 26.58 18.44 28.10L18.53 28.19L18.49 28.15Q19.82 26.05 23.70 26.13L23.81 26.23L23.65 26.07Q25.23 26.21 26.03 26.32L25.95 26.25L25.99 26.29Q28.97 26.68 29.05 28.70L28.95 28.59L29.08 28.73Q29.12 29.65 28.93 30.68L28.82 30.56L28.91 30.65Q28.36 33.07 28.55 36.08L28.59 36.12L28.55 36.08Q28.88 39.11 29.87 41.66L29.69 41.48L29.76 41.55Q28.09 41.18 26.38 41.03L26.26 40.91L26.40 41.05Q25.98 38.72 25.90 36.06L25.74 35.90L25.79 35.95Q25.73 33.22 25.96 30.90ZM25.94 41.31L25.92 41.29L25.93 41.30Q26.67 41.24 27.96 41.47L28.12 41.62L28.50 42.69L28.49 42.68Q28.53 43.03 28.76 43.56L28.88 43.68L28.88 43.68Q31.04 43.98 33.74 45.16L33.85 45.27L33.91 45.32Q31.41 42.06 30.72 38.25L30.78 38.31L30.74 38.26Q30.36 36.09 30.47 32.40L30.62 32.55L30.57 32.50Q30.58 32.21 30.62 31.41L30.69 31.48L30.56 31.35Q30.66 30.77 30.59 30.27L30.58 30.26L30.59 30.28Q30.51 28.63 29.40 28.14L29.30 28.03L29.36 28.09Q29.30 27.35 28.54 26.74L28.50 26.70L28.49 26.69Q26.68 25.57 23.63 25.64L23.77 25.78L23.64 25.65Q21.77 25.68 20.93 25.87L21.03 25.97L21.07 26.01Q19.61 26.34 18.66 27.25L18.71 27.31L18.71 27.30Q18.41 26.59 18.03 25.56L18.16 25.69L18.06 25.59Q15.25 24.91 13.43 23.92L13.48 23.98L13.47 23.97Q16.45 28.78 16.45 34.53L16.57 34.64L16.49 34.56Q16.46 38.91 14.55 42.75L14.54 42.74L14.54 42.74Q15.23 42.45 16.53 42.06L16.54 42.07L16.59 42.13Q16.16 43.44 15.62 44.43L15.54 44.35L15.64 44.45Q16.88 43.83 20.42 43.25L20.53 43.36L20.57 43.40Q21.52 38.22 21.41 33.39L21.35 33.33L21.47 33.46Q21.43 32.61 22.61 31.89L22.58 31.86L22.57 31.85Q23.54 31.14 24.64 31.03L24.59 30.97L24.75 31.14Q25.12 31.01 25.54 31.20L25.64 31.30L25.57 31.24Q25.37 33.73 25.40 36.28L25.50 36.38L25.33 36.21Q25.55 38.90 26.04 41.42Z"/><path fill="#222" d="M55.19 30.40L55.19 30.40L55.07 30.28Q55.27 29.98 55.23 29.56L55.29 29.62L55.31 29.64Q55.19 29.22 54.89 29.03L54.77 28.92L54.74 28.89Q54.12 28.42 53.24 28.57L53.27 28.59L53.21 28.53Q52.07 28.46 50.43 29.56L50.54 29.67L50.48 29.61Q49.02 30.47 49.02 31.65L49.08 31.72L49.20 31.83Q49.12 33.01 49.12 36.32L49.20 36.40L49.08 36.28Q49.16 38.95 49.31 40.96L49.13 40.78L49.13 40.79Q47.53 40.90 47.53 40.90L47.53 40.90L47.49 40.86Q46.53 40.85 45.81 40.93L45.79 40.91L45.89 41.01Q46.26 38.44 46.33 36.20L46.28 36.14L46.36 36.23Q46.40 31.47 45.76 30.18L45.81 30.23L45.83 30.25Q45.52 29.63 44.95 29.33L44.87 29.26L44.93 29.31Q44.05 28.55 42.49 28.43L42.54 28.48L42.52 28.46Q40.60 28.34 40.07 29.94L40.05 29.92L40.02 29.89Q39.87 30.38 39.98 30.87L40.01 30.90L39.94 30.83Q40.66 33.65 40.32 36.43L40.29 36.40L40.19 36.30Q40.05 39.28 38.64 41.72L38.64 41.72L38.55 41.62Q37.63 41.89 35.54 42.31L35.54 42.31L35.52 42.29Q37.88 38.90 37.88 34.60L37.97 34.69L37.98 34.70Q37.87 28.73 33.84 24.50L33.85 24.51L33.82 24.49Q34.69 24.90 35.64 25.13L35.71 25.20L37.25 25.41L37.42 25.57Q37.76 26.07 38.64 27.74L38.72 27.83L38.81 27.91Q38.80 25.85 41.24 25.82L41.33 25.91L41.25 25.82Q41.54 25.93 42.53 26.01L42.52 25.99L42.35 25.82Q47.42 26.21 48.56 29.03L48.65 29.11L48.57 29.03Q50.19 26.27 55.21 25.74L55.32 25.85L55.25 25.77Q56.00 25.65 56.88 25.77L56.97 25.87L56.94 25.83Q59.13 26.00 58.98 27.56L58.94 27.52L59.05 27.64Q58.97 28.28 58.70 29.04L58.67 29.00L58.59 28.93Q57.19 31.94 57.42 35.48L57.40 35.47L57.43 35.49Q57.70 39.03 59.60 41.85L59.63 41.88L59.49 41.74Q57.95 41.54 56.12 41.31L56.17 41.35L56.14 41.32Q54.91 38.76 54.72 35.98L54.61 35.88L54.62 35.88Q54.39 32.99 55.04 30.25ZM55.94 41.73L55.87 41.66L55.83 41.63Q56.64 41.79 57.97 41.98L57.81 41.82L57.97 41.97Q58.47 42.66 59.61 44.07L59.54 44.00L59.59 44.05Q62.46 44.56 64.55 45.21L64.52 45.17L64.61 45.27Q59.59 41.35 59.33 34.84L59.38 34.89L59.38 34.89Q59.27 32.77 59.88 30.87L59.92 30.90L59.79 30.78Q60.09 29.97 60.09 29.25L60.11 29.27L60.00 29.15Q60.02 28.26 59.41 27.69L59.49 27.77L59.41 27.66L59.49 27.73Q59.59 27.26 59.52 26.77L59.39 26.65L59.46 26.72Q59.39 26.23 58.94 25.96L58.88 25.90L58.80 25.83Q58.11 25.33 57.24 25.29L57.21 25.26L57.26 25.31Q54.53 25.32 51.86 26.27L51.78 26.19L51.74 26.15Q49.88 26.96 48.70 28.37L48.57 28.23L48.71 28.38Q47.14 25.89 42.30 25.55L42.21 25.45L42.19 25.44Q41.48 25.37 41.06 25.37L41.15 25.45L41.15 25.46Q39.11 25.47 38.50 26.73L38.41 26.64L38.51 26.74Q38.22 26.26 37.53 25.19L37.47 25.12L37.50 25.16Q35.00 24.60 33.02 23.95L32.94 23.88L33.13 24.06Q37.68 28.35 37.68 34.63L37.77 34.72L37.77 34.71Q37.76 39.43 34.91 42.89L34.78 42.77L34.84 42.83Q35.21 42.59 35.71 42.52L35.87 42.67L36.82 42.49L36.82 42.49Q36.13 43.55 35.02 44.76L34.86 44.59L34.94 44.68Q36.66 44.46 39.79 43.85L39.64 43.70L39.61 43.68Q42.35 39.64 42.35 34.72L42.42 34.80L42.44 34.82Q42.29 33.87 42.21 33.03L42.29 33.11L42.36 33.18Q42.25 32.38 43.24 31.58L43.27 31.61L43.28 31.66L43.24 31.62Q43.87 31.19 45.05 31.07L45.00 31.02L45.01 31.03Q45.41 31.02 45.72 31.02L45.84 31.14L45.74 31.22L45.80 31.29Q45.98 33.91 45.87 36.27L45.93 36.33L46.04 36.44Q45.84 38.64 45.35 41.31L45.24 41.19L45.24 41.20Q46.38 41.31 46.38 41.31L46.31 41.24L46.41 41.34Q47.84 41.32 47.50 41.32L47.53 41.35L47.36 41.18Q47.54 41.86 47.50 42.31L47.48 42.29L47.53 42.34Q47.34 42.65 47.34 43.14L47.41 43.21L49.89 43.22L49.91 43.24Q51.12 43.19 52.37 43.27L52.35 43.25L52.42 43.31Q50.82 39.54 51.01 33.60L51.05 33.64L51.02 33.62Q51.13 32.58 52.31 31.82L52.24 31.75L52.24 31.75Q53.22 31.01 54.47 30.82L54.40 30.75L54.73 30.78L54.82 30.87Q54.26 32.67 54.26 34.65L54.37 34.76L54.36 34.75Q54.27 38.42 55.79 41.58ZM50.30 30.08L50.51 30.06L50.39 30.29L50.41 30.19Z"/><path fill="#333" d="M81.30 34.75L81.16 34.62L81.25 34.70Q81.26 38.29 78.10 39.59L78.01 39.50L78.06 39.54Q76.26 40.45 71.84 40.60L71.80 40.56L71.87 40.63Q66.91 40.59 64.67 39.41L64.80 39.54L64.82 39.55Q62.82 38.09 62.98 34.74L63.07 34.84L63.12 34.89Q63.06 34.18 63.25 32.20L63.34 32.29L63.29 32.24Q63.34 30.58 63.34 29.59L63.30 29.54L63.39 29.64Q63.35 21.60 59.16 14.18L59.26 14.28L59.26 14.28Q60.34 14.86 63.31 15.93L63.36 15.98L63.39 16.01Q66.19 22.66 66.19 30.04L66.19 30.04L66.19 30.04Q66.15 30.61 66.05 31.79L66.20 31.93L66.21 31.95Q66.08 33.09 66.08 33.69L65.98 33.60L66.12 33.74Q66.00 35.90 67.56 36.89L67.53 36.86L67.52 36.85Q69.21 37.71 72.18 37.71L72.22 37.74L72.19 37.71Q74.80 37.70 76.44 36.52L76.39 36.47L76.45 36.53Q78.27 35.15 78.12 32.64L78.14 32.66L78.17 32.70Q78.03 31.26 78.03 29.93L78.01 29.90L77.99 29.88Q78.07 22.92 80.47 16.41L80.51 16.45L82.65 15.85L82.54 15.74Q83.56 15.50 84.66 15.05L84.72 15.10L84.67 15.06Q80.89 22.13 80.89 29.70L80.98 29.79L81.00 29.82Q80.94 30.59 81.07 32.23L81.04 32.19L81.19 32.35Q81.18 33.83 81.18 34.63ZM83.30 35.50L83.48 35.68L83.31 35.51Q82.42 30.54 83.14 25.44L83.25 25.55L83.33 25.63Q84.03 20.40 86.43 16.02L86.31 15.89L86.32 15.90Q85.77 16.27 84.33 16.92L84.32 16.91L84.38 16.98Q84.65 16.03 85.45 14.47L85.46 14.48L85.48 14.50Q82.00 15.69 80.09 16.04L80.20 16.14L80.18 16.12Q77.68 22.49 77.68 29.76L77.81 29.89L77.65 29.74Q77.70 31.15 77.77 32.56L77.88 32.67L77.75 32.54Q77.88 34.91 76.09 36.13L76.16 36.20L76.19 36.24Q74.63 37.22 72.12 37.26L72.18 37.32L72.22 37.36Q69.40 37.36 67.96 36.60L68.05 36.70L68.05 36.69Q67.92 36.14 67.84 35.68L67.91 35.76L67.72 35.57Q67.86 35.24 67.97 34.75L67.84 34.62L67.93 34.71Q68.10 32.33 68.10 30.01L68.13 30.04L68.04 29.95Q68.07 24.16 66.55 18.26L66.65 18.36L66.67 18.37Q65.90 18.21 64.49 17.87L64.50 17.88L64.51 17.89Q63.97 16.44 63.51 15.52L63.63 15.64L63.68 15.69Q60.94 14.89 58.54 13.52L58.50 13.48L58.50 13.47Q63.03 20.98 63.03 29.69L63.00 29.66L63.14 29.80Q63.03 31.33 62.87 33.04L62.86 33.03L62.87 33.04Q62.79 35.59 62.87 36.77L62.86 36.76L62.86 36.76Q62.85 38.54 64.11 39.68L64.19 39.76L64.17 39.75Q65.15 42.21 69.79 42.59L69.81 42.61L69.82 42.62Q71.97 42.83 74.11 42.90L74.15 42.95L74.02 42.82Q79.45 43.07 82.23 42.12L82.11 42.00L82.19 42.08Q83.73 41.15 83.73 39.09L83.75 39.11L83.86 39.21Q83.80 38.02 83.34 35.54Z"/><path fill="#333" d="M89.61 47.08L89.59 47.07L89.64 47.11Q88.64 47.26 86.74 47.56L86.66 47.49L86.78 47.60Q88.01 45.37 89.04 44.08L89.08 44.12L89.03 44.06Q90.87 44.46 91.02 44.46L91.05 44.49L90.92 44.36Q91.20 44.41 91.74 44.30L91.77 44.33L91.76 44.32Q92.44 44.24 92.63 44.24L92.76 44.37L92.61 44.22Q95.27 44.06 95.19 41.89L95.16 41.86L95.21 41.91Q95.03 40.28 94.91 34.04L95.10 34.23L95.00 34.13Q95.05 30.67 95.13 26.52L94.97 26.36L96.50 26.30L96.48 26.28Q97.08 26.12 97.77 25.89L97.86 25.98L97.82 25.94Q97.48 30.24 97.51 34.62L97.57 34.67L97.54 34.64Q97.71 39.16 98.24 43.54L98.27 43.56L98.14 43.43Q98.17 43.69 98.17 43.95L98.18 43.96L98.28 44.06Q98.27 45.69 96.59 46.07L96.59 46.07L96.58 46.06Q93.39 46.37 89.54 47.01ZM96.37 22.85L94.23 19.72L94.24 19.73Q95.32 18.38 97.15 15.60L97.03 15.48L97.08 15.54Q97.84 16.52 99.17 18.35L99.21 18.39L96.34 22.82ZM99.43 49.52L99.48 49.57L99.47 49.56Q99.88 49.48 100.64 49.13L100.60 49.09L100.73 49.22Q101.10 48.56 101.10 48.10L100.94 47.94L101.08 48.08Q100.90 47.56 100.78 46.95L100.82 46.98L100.91 47.08Q99.48 40.58 99.48 32.66L99.62 32.80L99.53 32.72Q99.50 29.83 99.65 26.94L99.75 27.03L99.74 27.02Q99.26 27.27 98.12 27.57L98.04 27.50L98.08 27.53Q98.08 27.04 98.12 26.51L98.08 26.47L98.25 25.46L98.09 25.30Q96.54 26.11 94.75 26.14L94.63 26.02L94.60 26.00Q94.60 30.38 94.64 33.95L94.61 33.93L94.82 41.86L94.85 41.90Q94.93 43.88 92.76 43.99L92.72 43.95L92.72 43.95Q92.47 43.93 91.96 43.99L91.89 43.92L91.87 43.90Q91.37 43.97 91.10 43.97L91.07 43.94L91.26 44.13Q90.70 44.02 89.14 43.60L89.01 43.48L89.04 43.51Q88.56 44.09 87.46 45.77L87.63 45.94L86.12 48.27L85.99 48.15Q86.84 47.93 88.47 47.55L88.54 47.61L88.07 48.33L87.52 48.95L87.65 49.08Q89.76 48.75 91.09 48.83L91.09 48.83L91.25 48.99Q93.36 48.97 99.30 49.39ZM96.38 23.63L96.37 23.62L96.74 23.11L96.70 23.07Q96.99 23.44 97.95 25.04L97.93 25.02L98.02 25.11Q99.60 22.05 101.16 18.96L101.11 18.92L101.07 18.87Q100.12 17.32 99.17 16.03L99.15 16.00L99.14 15.99Q98.88 16.15 98.54 16.69L98.65 16.80L98.69 16.84Q98.27 16.19 97.28 14.90L97.27 14.88L97.30 14.92Q96.11 16.51 93.79 19.86L93.70 19.77L93.79 19.86Q94.62 20.99 96.34 23.58Z"/></svg>