<svg xmlns="http://www.w3.org/2000/svg" width="150" height="50" viewBox="0,0,150,50"><path fill="#333" d="M128.95 40.29L129.02 40.36L128.96 40.30Q126.05 36.48 123.43 27.83L123.43 27.84L123.45 27.85Q122.79 25.71 121.99 23.58L122.02 23.61L119.14 32.38L119.18 32.42Q117.18 37.16 114.79 40.40L114.86 40.47L114.96 40.57Q113.96 40.48 112.32 40.63L112.35 40.67L112.34 40.66Q112.49 39.51 112.49 38.26L112.48 38.25L112.56 38.32Q112.60 32.35 109.86 26.22L109.72 26.08L109.81 26.17Q106.58 19.17 100.71 14.18L100.87 14.33L100.73 14.20Q102.96 14.98 105.32 15.51L105.35 15.55L105.33 15.53Q113.98 23.95 115.28 34.91L115.34 34.97L115.29 34.93Q116.86 31.54 118.30 26.17L118.28 26.15L118.28 26.15Q120.31 18.70 120.81 17.30L120.84 17.33L123.10 17.35L123.12 17.36Q123.73 19.30 124.38 21.63L124.49 21.74L125.75 26.20L125.66 26.11Q127.26 31.59 128.67 34.83L128.67 34.82L128.58 34.74Q130.26 23.13 138.17 15.78L138.13 15.73L138.22 15.83Q139.73 15.47 142.70 14.83L142.78 14.90L142.69 14.81Q137.40 19.15 134.35 25.28L134.27 25.20L134.32 25.25Q131.35 31.61 131.35 38.39L131.32 38.35L131.18 38.21Q131.32 39.46 131.39 40.60L131.31 40.51L130.09 40.33L130.15 40.38Q129.57 40.34 129.00 40.34ZM135.24 43.22L135.31 43.30L135.20 43.19Q134.05 39.72 134.17 35.83L134.22 35.89L134.07 35.74Q134.45 24.24 143.82 15.98L143.86 16.02L143.80 15.96Q142.81 16.16 140.87 16.69L140.87 16.69L141.01 16.83Q141.93 15.96 143.83 14.17L143.77 14.10L143.76 14.10Q141.08 14.85 138.15 15.34L138.23 15.42L138.21 15.40Q130.62 22.43 128.72 31.91L128.90 32.09L128.76 31.95Q128.15 30.27 125.29 18.81L125.33 18.85L125.39 18.91Q125.03 19.04 124.07 19.04L124.01 18.98L123.63 17.83L123.68 17.88Q123.54 17.33 123.32 16.84L123.36 16.88L120.50 16.91L120.40 16.81Q119.56 19.25 118.29 24.37L118.35 24.43L118.46 24.54Q117.05 29.53 116.06 32.00L116.13 32.08L116.11 32.05Q114.45 24.07 108.89 17.75L108.89 17.75L109.07 17.93Q108.57 17.85 107.62 17.66L107.47 17.51L107.57 17.62Q106.76 16.69 105.20 15.05L105.26 15.11L105.27 15.12Q101.93 14.37 99.76 13.57L99.60 13.41L99.75 13.56Q105.45 18.27 108.72 24.47L108.71 24.46L108.73 24.48Q112.08 30.99 112.08 38.00L112.08 37.99L112.02 37.94Q112.14 39.62 111.95 41.22L111.92 41.18L111.92 41.18Q112.06 41.10 112.52 41.01L112.58 41.06L112.53 41.02Q112.96 40.90 113.19 40.90L113.20 40.91L113.19 41.93L113.32 42.05Q113.20 42.39 113.27 42.92L113.27 42.92L113.38 43.03Q114.53 42.96 116.82 42.81L116.72 42.71L116.85 42.84Q120.42 37.39 123.16 27.99L123.16 27.99L123.09 27.91Q125.97 36.81 128.94 40.77L128.85 40.68L128.94 40.77Q129.49 40.86 130.32 40.97L130.25 40.90L130.21 40.86Q131.02 41.86 132.08 42.92L132.21 43.06L132.15 42.99Q132.84 42.96 135.24 43.22Z"/><path fill="#111" d="M15.00 41.05L15.15 41.20L15.13 41.18Q18.29 36.92 24.99 29.00L24.95 28.96L24.87 28.88Q18.99 29.13 15.22 27.75L15.24 27.78L15.26 27.80Q14.52 26.30 13.76 24.89L13.87 24.99L13.83 24.95Q17.98 26.52 22.43 26.55L22.43 26.55L22.39 26.52Q26.76 26.46 30.94 25.40L31.01 25.46L31.10 25.55Q30.54 26.06 30.28 26.60L30.32 26.64L30.23 26.54Q27.88 28.96 25.07 32.58L25.00 32.51L20.17 38.79L20.04 38.66Q22.34 38.53 24.59 38.61L24.65 38.67L24.63 38.65Q26.65 38.54 28.90 38.92L28.96 38.98L28.96 38.98Q29.18 39.66 29.90 41.68L29.78 41.55L29.83 41.60Q26.19 40.86 22.20 40.97L22.05 40.83L22.04 40.82Q18.11 40.96 14.46 42.14L14.60 42.29L14.43 42.12Q14.52 41.98 14.98 41.03ZM13.96 42.82L14.05 42.92L13.98 42.85Q14.79 42.55 16.39 42.13L16.42 42.16L16.38 42.12Q16.09 42.29 15.67 42.71L15.69 42.73L15.62 42.66Q15.36 43.20 14.75 44.34L14.85 44.44L14.85 44.44Q19.64 43.18 24.63 43.33L24.46 43.16L24.63 43.33Q29.47 43.37 34.04 45.24L34.02 45.22L33.99 45.19Q32.68 43.46 31.77 41.41L31.74 41.38L31.67 41.31Q31.00 41.09 29.93 40.87L29.91 40.85L29.82 40.75Q29.70 40.10 29.32 38.65L29.21 38.55L29.26 38.60Q27.85 38.41 24.27 38.29L24.13 38.15L24.14 38.16Q26.64 34.95 31.67 28.59L31.63 28.56L31.52 28.44Q31.91 27.85 32.60 26.51L32.58 26.50L30.21 27.18L30.20 27.16Q30.39 27.20 30.54 27.09L30.53 27.08L30.70 26.87L30.71 26.88Q31.20 25.84 31.77 24.89L31.77 24.89L31.63 24.75Q26.98 26.12 22.26 26.04L22.34 26.12L22.24 26.02Q17.60 26.10 13.11 24.28L13.02 24.19L13.12 24.29Q14.23 26.08 15.03 28.14L15.04 28.15L15.00 28.11Q15.78 28.35 16.84 28.61L17.01 28.78L16.98 28.75Q17.15 29.41 17.45 30.86L17.34 30.75L17.42 30.83Q18.98 31.05 22.29 31.21L22.36 31.28L22.40 31.32Q20.00 34.63 14.82 41.06L14.84 41.08L14.75 40.99Q14.55 41.63 13.98 42.85Z"/><path fill="#222" d="M43.78 40.39L43.77 40.38L43.87 40.48Q39.79 40.70 38.80 38.37L38.67 38.24L38.80 38.38Q39.45 37.31 41.01 35.52L41.01 35.52L40.94 35.45Q41.60 37.64 44.61 37.75L44.58 37.72L44.59 37.74Q47.95 37.78 49.59 36.45L49.53 36.39L49.64 36.50Q50.98 34.83 50.90 32.13L50.91 32.14L50.85 32.07Q50.66 26.97 45.86 27.20L45.86 27.20L45.97 27.31Q43.12 27.43 41.37 28.68L41.29 28.60L41.07 28.54L40.82 28.37L40.93 28.48Q41.20 25.24 41.08 22.50L41.00 22.42L41.12 22.53Q40.91 19.81 40.57 16.50L40.67 16.60L40.60 16.54Q44.23 17.46 48.04 17.35L48.00 17.31L48.05 17.36Q51.84 17.26 55.42 16.01L55.46 16.05L54.98 17.66L54.93 17.62Q54.56 18.32 54.37 19.15L54.33 19.11L54.40 19.18Q51.27 20.20 47.39 20.20L47.31 20.13L47.38 20.19Q45.86 20.12 44.38 19.97L44.45 20.04L44.39 19.98Q44.36 20.71 44.02 25.17L43.96 25.10L44.14 25.29Q44.91 24.76 46.97 24.61L47.02 24.67L46.90 24.54Q50.74 24.89 52.19 26.56L52.15 26.52L52.12 26.49Q53.50 28.02 53.76 31.87L53.76 31.86L53.67 31.77Q53.98 36.01 52.76 38.02L52.82 38.08L52.84 38.10Q50.84 40.02 47.53 40.25L47.49 40.22L47.53 40.25Q46.47 40.25 43.80 40.41ZM49.92 42.75L49.81 42.65L49.76 42.59Q53.21 42.69 55.11 41.59L55.11 41.59L55.14 41.62Q56.15 40.11 56.15 38.02L56.16 38.03L56.25 38.12Q56.25 35.03 55.29 30.92L55.28 30.91L55.19 30.81Q54.78 29.04 53.56 27.63L53.60 27.67L53.58 27.69L53.35 27.37L53.03 27.21L53.11 27.30Q52.86 26.62 52.21 25.94L52.11 25.83L52.02 25.79L52.10 25.86Q50.49 24.10 46.80 24.10L46.81 24.11L46.73 24.30L46.66 24.23Q46.65 23.57 46.84 22.47L46.93 22.56L46.92 22.55Q51.98 22.73 56.01 21.10L55.99 21.07L55.82 20.91Q56.38 19.63 57.33 16.82L57.39 16.87L55.22 17.76L55.19 17.73Q55.48 16.49 55.98 15.35L56.02 15.40L56.04 15.41Q52.20 16.87 48.09 16.94L48.02 16.87L48.14 16.99Q44.06 17.14 40.10 16.03L40.08 16.01L40.13 16.07Q40.81 20.48 40.81 24.89L40.79 24.87L40.78 24.86Q40.75 26.73 40.63 28.64L40.68 28.68L40.65 28.65Q40.95 28.88 41.52 29.18L41.40 29.06L41.55 29.21Q41.84 28.93 42.49 28.59L42.45 28.55L42.40 28.49Q42.31 29.21 42.08 30.73L42.12 30.77L42.24 30.89Q42.55 30.97 42.97 31.20L43.09 31.32L42.97 31.20Q45.72 29.42 47.59 29.42L47.56 29.40L47.56 29.40Q49.03 29.53 50.21 30.18L50.26 30.23L50.24 30.21Q50.51 31.16 50.54 32.11L50.47 32.04L50.58 32.15Q50.55 34.63 49.52 35.73L49.61 35.82L49.52 35.73Q48.32 37.12 46.08 37.35L46.08 37.35L46.01 37.28Q45.05 37.35 44.36 37.28L44.33 37.25L44.31 37.22Q43.48 37.11 42.71 36.77L42.73 36.78L42.78 36.65L42.56 36.65L42.60 36.69Q41.76 36.16 41.23 34.82L41.32 34.91L41.26 34.86Q39.88 36.22 38.21 38.35L38.30 38.44L38.34 38.48Q38.57 39.06 39.41 40.01L39.38 39.98L39.47 40.07Q40.41 41.77 43.23 42.27L43.31 42.35L43.19 42.23Q44.43 42.52 49.80 42.64Z"/><path fill="#222" d="M97.73 29.93L97.65 29.85L97.73 29.92Q95.13 29.73 93.80 30.94L93.75 30.90L93.92 31.07Q92.46 32.15 92.76 34.66L92.83 34.74L92.72 34.63Q93.04 37.15 94.25 38.40L94.42 38.56L94.26 38.41Q95.43 39.85 97.56 39.77L97.46 39.67L97.57 39.78Q98.01 39.65 98.20 39.65L98.28 39.73L98.29 39.73Q101.85 39.15 101.97 34.54L102.02 34.60L102.02 34.59Q102.02 32.16 101.33 31.36L101.27 31.29L101.40 31.43Q100.17 29.97 97.62 29.82ZM101.02 41.63L101.01 41.62L101.06 41.67Q99.69 42.20 98.13 42.13L98.22 42.22L98.09 42.09Q94.23 42.27 92.94 39.68L93.12 39.86L93.08 39.82Q92.75 45.01 91.42 49.28L91.60 49.45L91.43 49.28Q89.79 49.93 88.16 50.66L88.06 50.56L88.03 50.52Q90.56 44.53 90.29 37.56L90.43 37.71L90.33 37.60Q90.10 30.78 87.21 24.73L87.34 24.86L87.15 24.67Q89.27 26.03 90.98 26.49L90.98 26.49L91.40 27.86L91.45 27.91Q91.60 28.29 91.87 29.40L91.79 29.31L91.69 29.22Q92.88 27.33 96.46 27.14L96.39 27.06L96.31 26.98Q97.17 26.93 98.04 26.93L98.15 27.04L98.55 26.94L98.68 27.07Q98.82 27.10 99.01 27.14L98.87 26.99L99.33 27.15L99.27 27.09Q101.26 27.29 101.98 27.52L102.05 27.58L101.96 27.50Q103.52 28.03 104.40 28.98L104.40 28.98L104.40 28.99Q105.17 30.09 105.13 31.50L105.25 31.62L105.15 31.52Q105.21 34.43 104.41 37.10L104.36 37.05L104.46 37.15Q103.39 40.61 101.03 41.64ZM105.21 42.17L105.38 42.30L105.26 42.18Q106.35 40.18 106.65 36.07L106.75 36.16L106.73 36.15Q106.92 34.43 106.92 33.17L106.90 33.16L106.76 33.02Q106.98 31.71 106.22 30.30L106.17 30.25L106.05 30.14Q105.70 29.75 105.20 29.37L105.17 29.34L105.05 29.10L104.92 28.86L104.83 28.65L104.87 28.69Q103.08 26.60 98.74 26.60L98.71 26.57L98.17 26.63L98.20 26.67Q93.42 26.53 91.79 28.13L91.80 28.15L91.95 28.29Q91.64 27.64 91.49 27.15L91.46 27.12L91.29 26.15L91.27 26.13Q88.72 25.45 86.51 23.96L86.53 23.98L86.56 24.01Q89.78 30.28 90.09 37.51L90.05 37.48L90.09 37.52Q90.41 44.80 87.55 51.27L87.58 51.30L89.61 50.47L89.49 50.35Q89.33 51.18 88.65 52.74L88.67 52.77L88.51 52.60Q91.37 51.70 93.69 51.36L93.70 51.36L93.51 51.17Q94.77 46.50 94.93 42.77L94.83 42.68L94.87 42.71Q96.30 44.22 99.92 44.45L99.86 44.39L99.96 44.49Q103.78 44.62 105.23 42.18L105.34 42.29ZM99.71 32.25L99.52 32.06L99.71 32.25Q100.25 32.06 101.35 32.40L101.36 32.42L101.42 32.47Q101.64 33.42 101.61 34.60L101.53 34.52L101.63 34.63Q101.60 35.51 101.41 36.16L101.48 36.23L101.51 36.25Q100.73 39.09 98.21 39.39L98.14 39.32L98.30 39.37L98.27 39.34Q98.17 39.31 98.05 39.35L98.02 39.32L97.53 39.36L97.47 39.29Q96.33 39.34 95.34 38.85L95.41 38.91L95.08 36.87L94.99 36.78Q94.83 34.45 96.12 33.42L96.11 33.41L96.18 33.48Q97.25 32.45 99.65 32.19Z"/><path fill="#222" d="M64.42 15.84L64.50 15.92L64.45 15.87Q66.29 20.67 66.86 25.85L66.95 25.95L66.90 25.89Q70.57 21.72 76.47 16.89L76.44 16.86L76.56 16.98Q79.64 16.55 82.26 15.75L82.34 15.82L75.84 21.51L75.81 21.48Q72.37 24.39 69.51 27.25L69.41 27.15L69.50 27.23Q77.50 36.42 82.56 41.14L82.48 41.06L82.57 41.15Q79.45 40.20 77.13 40.04L77.22 40.13L77.03 39.95Q71.33 34.63 67.03 28.80L66.98 28.75L67.08 28.86Q67.21 35.50 65.35 40.83L65.28 40.76L65.35 40.83Q64.97 40.72 64.48 40.91L64.54 40.97L64.44 41.06L64.61 41.23Q64.26 41.11 61.71 42.02L61.75 42.06L61.71 42.02Q64.75 35.55 64.41 28.09L64.33 28.01L64.34 28.02Q64.15 20.82 60.61 14.31L60.59 14.30L61.00 14.43L61.41 14.74L61.49 14.78L61.54 14.82Q62.24 15.18 64.45 15.87ZM64.62 15.46L64.65 15.50L64.70 15.55Q62.33 14.89 59.70 13.37L59.88 13.55L59.77 13.43Q64.03 20.70 64.03 29.65L64.03 29.65L64.20 29.81Q64.12 36.75 61.15 42.80L61.23 42.88L63.25 42.00L63.23 41.98Q62.82 42.98 62.14 44.28L62.13 44.27L62.00 44.14Q64.24 43.34 66.19 42.92L66.32 43.05L66.36 42.86L66.42 42.92Q66.65 42.85 67.22 42.70L67.13 42.61L67.21 42.68Q68.84 36.75 68.96 31.95L68.98 31.98L68.89 31.88Q71.09 34.50 72.92 36.37L72.81 36.25L72.85 36.30Q74.07 37.44 77.08 40.41L77.03 40.36L77.12 40.46L77.04 40.38Q77.99 41.13 79.86 42.73L80.01 42.89L80.00 42.88Q83.75 43.47 87.21 45.18L87.34 45.31L87.33 45.30Q78.04 36.73 71.79 29.30L71.69 29.20L71.80 29.31Q76.08 24.91 84.83 16.30L84.96 16.43L84.89 16.36Q82.33 17.49 80.31 17.87L80.39 17.95L80.34 17.91Q81.66 17.01 83.98 15.00L83.92 14.94L83.95 14.96Q79.73 16.26 76.38 16.45L76.38 16.45L76.50 16.58Q73.50 18.71 68.63 23.40L68.56 23.33L68.54 23.31Q68.32 20.89 67.75 18.33L67.67 18.25L67.75 18.33Q66.49 18.10 65.50 17.76L65.49 17.74L65.43 17.69Q65.31 17.03 64.74 15.58Z"/></svg>