<svg xmlns="http://www.w3.org/2000/svg" width="150" height="50" viewBox="0,0,150,50"><path fill="#333" d="M20.90 28.93L20.88 28.91L20.97 28.99Q18.36 28.94 17.34 30.12L17.32 30.10L17.41 30.20Q16.27 31.26 16.27 33.89L16.39 34.00L16.20 33.82Q16.29 39.00 20.89 38.81L20.86 38.78L20.99 38.91Q22.97 38.99 24.32 37.43L24.37 37.47L24.27 37.38Q25.71 35.90 25.48 33.85L25.56 33.93L25.49 33.86Q25.40 31.22 24.53 30.19L24.49 30.16L24.54 30.21Q23.08 28.89 20.87 28.89ZM25.86 38.64L26.01 38.79L25.98 38.76Q24.78 41.21 20.09 41.21L20.05 41.17L18.68 41.25L18.66 41.22Q16.21 41.13 15.10 39.99L15.14 40.03L15.12 40.01Q14.13 39.02 13.87 36.62L13.77 36.52L13.82 36.57Q13.68 35.11 13.61 33.32L13.70 33.41L13.68 33.39Q13.54 32.30 13.39 30.36L13.53 30.50L13.45 30.42Q13.31 26.09 18.49 26.09L18.45 26.06L20.12 26.16L20.14 26.18Q22.96 26.11 25.05 27.40L25.02 27.37L25.07 27.43Q25.94 27.99 26.44 28.68L26.28 28.51L26.37 28.61Q26.54 27.71 27.08 26.08L27.21 26.21L27.15 26.15Q28.27 25.86 30.59 25.26L30.77 25.43L30.64 25.30Q28.18 29.65 28.18 34.91L28.06 34.79L28.03 34.76Q28.01 38.47 29.38 41.55L29.56 41.73L29.47 41.64Q28.25 41.26 26.35 41.03L26.45 41.13L26.33 41.02Q26.29 40.33 25.99 38.77ZM29.16 43.85L29.18 43.86L31.34 44.39L31.42 44.47Q32.66 44.80 33.65 45.25L33.71 45.31L33.71 45.31Q29.90 40.82 29.90 34.73L30.08 34.91L29.93 34.76Q29.93 30.22 32.06 26.41L32.07 26.42L32.16 26.52Q31.44 26.67 30.10 27.05L30.09 27.03L30.06 27.01Q30.43 26.27 31.30 24.75L31.40 24.84L31.42 24.87Q30.73 24.94 26.73 25.77L26.89 25.93L26.23 27.66L26.20 27.64Q24.34 25.82 19.93 25.59L20.01 25.67L20.06 25.73Q18.82 25.63 16.58 25.78L16.75 25.95L16.65 25.85Q13.01 26.25 13.13 30.29L13.14 30.30L13.10 30.26Q13.31 33.67 13.88 38.12L13.84 38.09L13.75 38.41L13.72 38.38Q13.84 39.22 14.64 40.32L14.79 40.48L14.74 40.43Q14.80 40.48 14.99 40.60L15.05 40.66L14.98 40.59Q15.29 41.13 15.67 41.70L15.75 41.78L15.70 41.73Q17.18 43.32 20.56 43.51L20.52 43.47L20.50 43.45Q22.21 43.64 22.37 43.64L22.33 43.60L23.95 43.66L23.77 43.48Q27.05 43.56 28.27 42.00L28.34 42.07L28.31 42.05Q28.63 42.63 29.24 43.92ZM22.70 31.18L22.69 31.17L22.77 31.25Q24.11 31.25 24.94 31.71L24.81 31.58L24.93 31.70Q25.26 32.52 25.26 33.97L25.10 33.81L25.20 33.91Q25.29 35.72 24.02 37.14L23.99 37.11L24.08 37.20Q22.87 38.69 20.96 38.50L20.89 38.43L20.86 38.40Q19.50 38.49 18.47 38.07L18.47 38.06L18.42 38.02Q18.15 37.10 18.15 35.89L18.25 35.98L18.22 35.95Q18.45 32.52 21.07 31.57L20.95 31.45L20.93 31.43Q21.79 31.07 22.59 31.07Z"/><path fill="#333" d="M46.66 19.70L46.61 19.65L46.58 19.62Q44.73 19.86 43.78 20.01L43.70 19.93L43.74 19.98Q42.15 20.26 40.94 20.79L40.79 20.64L40.80 20.66Q37.34 22.14 37.23 26.83L37.14 26.74L37.14 26.74Q37.17 29.51 37.82 32.44L37.89 32.51L37.71 32.33Q38.73 36.51 42.34 37.69L42.20 37.55L42.33 37.68Q44.22 38.23 45.66 38.08L45.67 38.09L46.05 38.01L46.14 38.10Q46.18 37.95 46.37 37.99L46.37 37.99L46.51 38.13Q46.53 37.99 46.68 37.96L46.65 37.92L46.76 38.03Q49.28 37.66 50.65 37.09L50.71 37.15L47.15 33.63L47.23 33.71Q47.48 33.31 48.09 32.70L48.03 32.65L49.07 31.86L49.06 31.84Q50.84 33.85 52.82 35.91L52.76 35.85L52.78 35.87Q55.19 34.13 55.46 28.77L55.52 28.82L55.38 28.68Q55.46 27.77 55.46 26.86L55.43 26.83L55.49 26.89Q55.56 21.29 50.49 20.18L50.39 20.08L50.50 20.19Q49.08 19.75 46.56 19.60ZM59.47 41.80L59.38 41.70L59.35 41.68Q58.80 42.16 57.62 43.03L57.63 43.04L53.28 39.41L53.30 39.44Q50.66 40.49 46.39 40.52L46.54 40.67L46.44 40.57Q39.94 40.73 37.12 38.48L37.12 38.49L37.12 38.49Q35.28 36.64 34.82 33.68L34.81 33.66L34.91 33.76Q34.77 32.02 34.39 28.44L34.21 28.26L34.27 28.32Q34.27 27.60 34.15 25.85L34.10 25.79L34.19 25.88Q33.99 24.27 34.02 23.40L34.13 23.50L34.07 23.44Q34.17 20.38 35.92 18.82L35.98 18.88L35.84 18.74Q37.52 17.56 40.72 17.07L40.63 16.98L40.74 17.09Q43.13 16.63 46.03 16.71L45.98 16.66L45.97 16.65Q53.52 16.82 56.65 19.18L56.72 19.26L56.56 19.09Q58.80 21.29 58.53 26.20L58.51 26.19L58.47 26.14Q58.42 29.93 58.23 31.27L58.23 31.27L58.24 31.28Q57.43 35.61 55.11 37.93L55.21 38.03L55.23 38.05Q56.60 39.20 59.35 41.67ZM54.58 17.49L54.48 17.39L54.51 17.43Q52.48 16.68 45.97 16.19L46.07 16.29L46.12 16.34Q44.73 16.36 41.95 16.48L41.85 16.38L41.84 16.36Q37.70 16.68 35.45 18.66L35.36 18.57L35.43 18.64Q33.63 19.95 33.63 23.11L33.67 23.16L33.69 23.18Q33.78 24.10 33.93 25.81L33.84 25.72L33.85 25.74Q34.07 27.52 34.07 28.39L33.96 28.28L34.01 28.33Q34.16 30.08 34.54 33.66L34.47 33.58L34.63 33.75Q34.91 36.54 36.51 38.60L36.43 38.52L36.51 38.60Q36.76 39.34 37.98 40.48L37.98 40.49L38.06 40.57Q40.84 42.62 46.02 42.89L45.99 42.86L46.00 42.87Q46.34 42.87 48.74 42.99L48.69 42.94L48.70 42.95Q53.52 43.12 55.81 42.06L55.82 42.07L55.88 42.13Q56.64 42.70 61.36 46.28L61.41 46.33L61.31 46.22Q62.04 45.81 63.33 44.82L63.35 44.84L63.27 44.76Q62.44 44.13 61.64 43.44L61.71 43.51L60.01 41.99L60.13 41.96L60.14 41.97Q59.40 41.35 58.18 40.32L58.34 40.48L58.21 40.35Q60.09 37.81 60.09 33.28L60.20 33.39L60.10 33.29Q60.10 32.87 60.14 32.04L60.29 32.19L60.27 32.16Q60.23 31.25 60.23 30.83L60.31 30.92L60.34 30.95Q60.16 25.25 59.44 22.89L59.63 23.08L59.59 23.03Q59.12 21.65 58.24 20.58L58.20 20.54L58.32 20.66Q57.43 18.44 54.49 17.41ZM48.63 22.12L48.43 21.93L48.48 21.98Q52.60 21.95 54.43 23.55L54.42 23.54L54.38 23.50Q54.92 24.68 55.03 26.02L55.17 26.15L55.17 26.16Q55.25 27.42 55.18 28.79L55.09 28.70L55.09 28.70Q54.70 33.60 52.76 35.31L52.93 35.48L52.78 35.34Q51.45 34.00 48.93 31.26L48.97 31.30L48.93 31.26Q48.18 32.03 46.62 33.59L46.69 33.66L46.63 33.60Q47.29 34.30 48.43 35.48L48.32 35.37L48.35 35.51L48.31 35.47Q48.84 35.96 49.86 37.03L49.82 36.98L49.99 37.15Q48.85 37.27 46.53 37.58L46.50 37.55L46.01 37.59L45.62 37.62L45.74 37.77L45.73 37.77Q42.18 37.68 40.20 36.05L40.17 36.01L40.13 35.97Q39.13 33.91 39.17 30.79L39.25 30.87L39.11 30.73Q39.44 22.18 48.61 22.11Z"/><path fill="#111" d="M120.55 19.70L120.44 19.60L118.93 19.76L118.85 19.68Q116.69 19.88 116.46 21.90L116.51 21.94L116.52 21.95Q116.41 22.64 116.45 23.63L116.47 23.65L116.35 23.53Q116.52 25.61 117.78 26.95L117.71 26.88L117.73 26.90Q118.89 28.14 120.80 27.98L120.78 27.96L120.83 28.02Q123.01 27.99 123.77 27.08L123.70 27.00L123.68 26.98Q124.79 26.11 125.05 23.86L125.08 23.89L124.95 23.77Q125.25 21.54 123.99 20.71L124.08 20.80L123.94 20.66Q123.05 19.85 120.39 19.54ZM126.53 28.89L126.48 28.83L125.25 31.18L125.17 31.10Q122.52 35.95 118.75 40.02L118.73 40.00L118.69 39.96Q117.09 40.15 114.39 40.95L114.37 40.93L114.37 40.94Q119.83 34.78 122.99 29.99L122.82 29.82L122.94 29.93Q121.82 30.50 120.19 30.57L120.29 30.67L120.32 30.70Q117.29 30.83 115.77 28.85L115.62 28.71L115.63 28.72Q114.43 27.14 113.33 22.57L113.32 22.56L113.36 22.60Q113.33 22.11 113.18 21.18L113.17 21.17L113.30 21.30Q113.16 20.39 113.16 19.93L113.08 19.85L113.14 19.91Q113.16 18.14 114.22 17.53L114.07 17.38L114.21 17.51Q115.33 16.66 117.20 16.66L117.28 16.74L117.19 16.65Q120.45 16.71 120.45 16.71L120.50 16.77L120.45 16.71Q122.69 16.81 123.94 17.01L123.81 16.88L123.83 16.89Q126.05 17.25 126.97 17.74L127.00 17.78L126.98 17.76Q128.30 18.47 128.49 20.22L128.53 20.26L128.46 20.19Q128.49 20.45 128.30 23.11L128.37 23.19L128.19 23.01Q128.00 25.33 127.77 26.16L127.72 26.11L127.69 26.08Q127.31 27.49 126.55 28.90ZM128.46 31.30L128.38 31.23L128.40 31.24Q129.51 29.16 130.04 24.86L129.99 24.80L130.00 24.81Q130.15 22.49 130.11 21.61L130.17 21.67L130.19 21.69Q130.11 19.78 128.93 18.87L129.00 18.94L128.75 18.88L128.64 18.77Q128.39 18.03 127.48 17.38L127.39 17.29L127.45 17.35Q125.11 16.31 120.31 16.16L120.38 16.22L120.30 16.15Q119.42 16.22 116.99 16.22L116.94 16.17L117.04 16.27Q115.29 16.27 113.80 16.95L113.73 16.89L113.68 16.83Q112.62 17.71 112.69 19.54L112.72 19.56L112.74 19.58Q112.83 20.40 113.02 22.42L113.02 22.42L113.05 22.44Q113.60 25.02 113.87 25.85L114.02 26.00L114.03 26.02Q114.56 27.84 115.51 29.13L115.40 29.02L115.43 29.05Q115.79 29.49 116.17 29.87L116.20 29.90L116.09 29.79Q116.42 30.30 117.06 31.22L117.06 31.21L117.10 31.25Q118.49 32.52 120.43 32.72L120.41 32.70L120.52 32.81Q118.58 35.44 117.02 37.34L116.98 37.30L113.36 41.68L113.34 41.65Q115.56 40.87 117.20 40.53L117.20 40.53L117.26 40.59Q116.48 41.45 114.92 43.16L114.93 43.17L114.97 43.21Q118.09 42.33 121.21 42.29L121.26 42.34L121.07 42.15Q123.48 39.65 127.82 32.42L127.85 32.45L127.90 32.58L127.89 32.56Q128.07 31.75 128.41 31.26ZM122.34 21.95L122.49 22.10L122.33 21.94Q123.09 21.98 123.54 22.09L123.40 21.95L123.49 22.04Q124.21 22.22 124.59 22.34L124.56 22.30L124.57 22.32Q124.63 22.64 124.71 23.06L124.68 23.04L124.71 23.06Q124.78 23.48 124.67 23.86L124.71 23.90L124.63 23.82Q124.67 25.62 123.49 26.72L123.46 26.69L123.35 26.58Q122.41 27.61 120.77 27.58L120.94 27.75L120.93 27.73Q120.44 27.66 118.91 27.36L118.85 27.29L118.94 27.39Q118.73 26.53 118.73 25.80L118.75 25.82L118.78 25.85Q118.55 25.43 118.55 25.20L118.58 25.23L118.60 25.26Q118.64 23.09 120.93 22.29L120.92 22.28L120.93 22.29Q121.52 21.97 122.36 21.97Z"/><path fill="#111" d="M99.99 29.48L100.02 29.52L99.95 29.44Q98.76 28.68 98.12 28.71L98.12 28.72L98.15 28.75Q96.87 28.92 95.83 29.93L95.82 29.92L95.75 29.85Q94.77 30.92 94.88 32.29L94.86 32.27L94.83 32.24Q95.21 36.66 94.34 41.19L94.23 41.09L94.22 41.07Q92.07 41.59 90.97 42.12L90.98 42.13L90.86 42.01Q92.41 37.89 92.18 33.44L92.21 33.46L92.25 33.51Q92.04 29.03 90.33 24.96L90.27 24.90L90.22 24.85Q91.48 25.66 93.77 26.30L93.69 26.22L94.28 28.95L94.19 28.86Q94.86 25.95 99.12 25.95L99.16 25.99L99.22 26.04Q99.64 26.01 99.94 26.01L99.85 25.92L99.95 26.01Q101.11 25.88 102.36 26.57L102.44 26.64L102.45 26.65Q101.18 28.04 100.04 29.53ZM101.67 31.55L101.80 31.52L101.69 31.42Q102.59 30.26 104.26 27.82L104.35 27.91L104.23 27.79Q103.80 27.47 102.27 27.20L102.25 27.18L102.34 27.26Q102.61 26.89 103.07 26.28L102.99 26.20L103.04 26.26Q101.12 25.32 99.18 25.51L99.16 25.50L99.15 25.49Q97.36 25.82 96.63 26.09L96.60 26.06L96.63 26.09Q95.15 26.43 94.35 27.53L94.27 27.45L94.14 26.68L93.89 25.78L94.03 25.92Q91.63 25.50 89.65 24.16L89.56 24.08L89.65 24.17Q91.73 28.49 91.96 33.37L91.91 33.32L91.94 33.35Q92.27 38.36 90.52 42.89L90.50 42.87L90.41 42.78Q91.60 42.41 92.47 42.10L92.32 41.95L92.44 42.07Q92.09 43.10 91.60 44.16L91.64 44.20L91.71 44.28Q94.55 43.42 96.68 43.30L96.57 43.19L96.86 38.77L96.75 38.66Q96.84 36.38 96.84 34.13L96.99 34.28L96.90 34.19Q96.86 32.98 97.78 32.01L97.83 32.07L97.80 32.04Q98.79 31.14 99.93 31.06L99.82 30.95L99.88 31.01Q100.57 30.94 101.29 31.63L101.21 31.54L101.60 31.47ZM96.56 29.63L96.58 29.58L96.64 29.75L96.52 29.59Z"/><path fill="#222" d="M71.38 19.76L71.39 19.76L71.39 19.77Q69.23 19.70 68.28 19.85L68.43 20.00L68.45 20.02Q66.67 20.10 65.45 20.64L65.44 20.63L65.52 20.71Q61.98 22.12 61.87 26.80L61.85 26.78L61.96 26.89Q61.76 29.44 62.41 32.37L62.56 32.52L62.43 32.39Q63.31 36.43 66.93 37.61L67.00 37.69L66.92 37.60Q68.94 38.29 70.39 38.14L70.32 38.07L70.81 38.11L70.67 37.96Q71.01 38.11 71.20 38.15L71.06 38.01L71.20 38.15Q71.33 38.13 71.48 38.09L71.48 38.09L71.33 37.94Q74.12 37.83 75.49 37.26L75.39 37.16L71.74 33.55L71.93 33.74Q72.25 33.41 72.86 32.80L72.85 32.80L73.68 31.80L73.79 31.91Q75.55 33.90 77.53 35.95L77.49 35.91L77.59 36.02Q79.86 34.14 80.13 28.77L80.11 28.75L80.05 28.69Q80.21 27.86 80.21 26.95L80.09 26.82L80.26 27.00Q80.17 21.23 75.11 20.13L75.16 20.18L75.18 20.20Q73.89 19.90 71.37 19.75ZM84.12 41.79L84.03 41.69L84.03 41.69Q83.52 42.21 82.34 43.08L82.26 43.00L77.90 39.37L77.85 39.32Q75.39 40.55 71.12 40.59L71.22 40.69L71.10 40.56Q64.51 40.64 61.69 38.39L61.74 38.44L61.79 38.49Q59.97 36.67 59.51 33.70L59.58 33.77L59.61 33.79Q59.35 31.94 58.97 28.36L58.88 28.27L58.95 28.33Q58.97 27.63 58.85 25.88L58.91 25.94L58.85 25.88Q58.71 24.33 58.75 23.45L58.68 23.39L58.79 23.49Q58.91 20.45 60.66 18.89L60.55 18.78L60.67 18.91Q62.08 17.46 65.28 16.96L65.25 16.93L65.33 17.02Q67.88 16.71 70.77 16.78L70.78 16.80L70.77 16.78Q78.12 16.75 81.24 19.11L81.21 19.08L81.29 19.16Q83.46 21.29 83.19 26.20L83.29 26.30L83.19 26.20Q83.00 29.85 82.81 31.18L82.88 31.25L82.88 31.26Q82.16 35.67 79.84 38.00L79.79 37.95L79.93 38.08Q81.35 39.28 84.09 41.75ZM79.18 17.43L79.21 17.46L79.14 17.38Q77.28 16.83 70.77 16.33L70.71 16.27L70.63 16.19Q69.32 16.28 66.54 16.40L66.62 16.48L66.63 16.49Q62.33 16.64 60.09 18.62L60.10 18.64L60.11 18.65Q58.47 20.13 58.47 23.29L58.48 23.30L58.49 23.31Q58.38 24.03 58.53 25.75L58.55 25.77L58.50 25.71Q58.62 27.40 58.62 28.28L58.79 28.44L58.71 28.37Q58.92 30.17 59.30 33.75L59.20 33.65L59.18 33.63Q59.57 36.53 61.17 38.59L61.23 38.65L61.21 38.63Q61.44 39.35 62.66 40.50L62.83 40.67L62.71 40.55Q65.49 42.61 70.67 42.87L70.62 42.83L70.58 42.79Q70.96 42.82 73.36 42.93L73.47 43.05L73.35 42.92Q78.16 43.09 80.45 42.03L80.48 42.06L80.56 42.14Q81.30 42.69 86.02 46.27L85.97 46.22L86.14 46.39Q86.69 45.80 87.99 44.81L88.06 44.88L87.88 44.71Q87.03 44.04 86.23 43.36L86.24 43.37L84.57 41.89L84.78 41.95L84.76 41.93Q84.18 41.46 82.96 40.43L82.96 40.43L83.02 40.49Q84.91 37.97 84.91 33.44L84.79 33.32L84.82 33.35Q84.78 32.89 84.82 32.05L84.80 32.03L84.93 32.16Q84.93 31.28 84.93 30.86L84.98 30.92L84.83 30.76Q84.83 25.25 84.11 22.89L84.30 23.08L84.17 22.95Q83.77 21.64 82.90 20.57L82.92 20.60L82.97 20.65Q82.19 18.53 79.25 17.50ZM73.14 21.97L73.27 22.10L73.15 21.98Q77.32 22.00 79.15 23.60L79.14 23.59L79.10 23.55Q79.76 24.86 79.88 26.20L79.84 26.16L79.75 26.07Q79.91 27.41 79.83 28.78L79.79 28.74L79.71 28.65Q79.37 33.61 77.43 35.32L77.54 35.43L77.49 35.38Q76.25 34.14 73.74 31.40L73.61 31.27L73.77 31.44Q72.85 32.04 71.29 33.60L71.34 33.65L71.24 33.54Q71.93 34.27 73.07 35.45L73.09 35.48L73.04 35.54L72.93 35.42Q73.45 35.91 74.48 36.98L74.63 37.13L74.64 37.14Q73.66 37.41 71.34 37.72L71.31 37.69L70.67 37.58L70.28 37.61L70.28 37.65L70.32 37.69Q66.84 37.67 64.86 36.04L64.80 35.98L64.95 36.12Q63.87 33.98 63.91 30.86L63.91 30.86L63.86 30.81Q64.12 22.21 73.30 22.13Z"/></svg>