<svg xmlns="http://www.w3.org/2000/svg" width="150" height="50" viewBox="0,0,150,50"><path fill="#333" d="M95.77 29.21L95.70 29.13L95.77 29.20Q93.95 29.25 92.74 30.58L92.60 30.45L92.65 30.50Q91.42 31.82 91.27 33.72L91.38 33.83L91.26 33.71Q91.18 35.96 92.40 36.97L92.37 36.94L92.39 36.96Q93.50 37.86 95.63 37.78L95.66 37.81L95.71 37.86Q98.01 37.69 98.96 36.74L98.86 36.63L98.86 36.63Q99.93 35.23 99.82 33.40L99.95 33.54L99.93 33.51Q99.66 31.49 98.58 30.30L98.67 30.39L98.73 30.45Q97.57 29.17 95.74 29.17ZM95.72 19.75L95.63 19.66L95.71 19.74Q94.35 19.68 93.02 20.17L93.02 20.17L92.90 20.05Q91.61 20.85 91.84 22.72L91.98 22.86L91.94 22.82Q92.44 26.56 95.79 26.56L95.66 26.42L95.77 26.54Q97.39 26.78 98.38 25.64L98.31 25.58L98.38 25.65Q99.21 24.35 99.25 22.78L99.33 22.87L99.31 22.84Q99.35 21.06 98.63 20.45L98.65 20.47L98.64 20.47Q96.98 19.64 95.68 19.71ZM95.53 40.39L95.36 40.21L92.41 40.31L92.32 40.22Q90.78 40.20 89.45 39.33L89.45 39.33L89.57 39.45Q88.25 38.36 88.40 35.50L88.38 35.48L88.29 35.39Q88.75 28.55 92.37 27.56L92.47 27.65L92.41 27.60Q90.11 26.66 88.77 21.29L88.86 21.38L88.79 21.31Q88.35 19.80 88.42 19.00L88.57 19.14L88.61 19.19Q88.86 17.00 92.55 16.96L92.53 16.94L92.50 16.91Q96.73 16.84 98.18 17.03L98.17 17.03L98.12 16.97Q101.95 17.49 102.41 19.51L102.50 19.61L102.41 19.51Q102.65 20.25 102.65 20.63L102.63 20.61L102.58 20.56Q102.61 21.27 102.42 21.88L102.38 21.85L102.41 21.87Q101.74 26.04 98.81 27.56L98.97 27.72L98.89 27.64Q102.36 28.41 102.86 33.70L102.80 33.65L102.81 33.66Q102.81 33.80 102.84 35.10L102.83 35.08L102.93 35.18Q102.92 37.84 101.32 38.90L101.43 39.01L101.35 38.93Q100.09 39.92 95.52 40.38ZM97.65 42.54L97.71 42.60L101.09 42.71L101.10 42.72Q102.72 42.70 104.25 41.98L104.28 42.02L104.36 42.09Q105.39 41.26 105.46 39.39L105.58 39.50L105.45 39.38Q105.61 38.40 105.23 36.46L105.14 36.36L105.10 36.32Q104.25 31.75 102.16 29.88L102.12 29.84L101.91 29.44L101.81 29.27L101.67 29.01L101.68 29.02Q103.39 27.73 104.31 23.58L104.22 23.49L104.20 23.47Q104.11 23.00 104.18 22.16L104.35 22.32L104.25 22.22Q104.42 21.63 104.34 21.02L104.25 20.93L104.27 20.95Q104.17 19.56 102.99 19.07L102.98 19.06L102.95 18.98L102.83 18.95L102.89 19.00Q102.50 18.15 101.32 17.35L101.31 17.35L101.34 17.34L101.42 17.42Q99.48 16.78 95.41 16.59L95.36 16.53L95.40 16.58Q93.76 16.38 92.39 16.50L92.47 16.58L92.41 16.51Q91.62 16.56 90.33 16.72L90.39 16.78L90.41 16.80Q88.42 17.13 88.19 18.77L88.20 18.78L88.09 18.67Q88.08 19.19 88.12 19.99L88.09 19.96L88.10 19.97Q88.24 20.53 88.81 22.89L88.80 22.88L88.75 22.84Q89.54 26.06 91.29 27.39L91.32 27.42L91.55 27.64L91.51 27.61Q88.72 28.89 88.18 34.07L88.10 33.99L88.12 34.00Q87.92 36.20 87.92 37.11L87.88 37.08L88.03 37.23Q87.93 38.84 89.11 39.75L89.23 39.87L89.21 39.85Q89.35 39.95 89.61 40.14L89.58 40.11L89.56 40.08Q90.58 42.36 97.70 42.59ZM97.38 31.53L97.33 31.48L97.44 31.60Q98.37 31.54 99.25 31.99L99.19 31.94L99.09 31.83Q99.49 32.85 99.45 33.38L99.57 33.50L99.48 33.41Q99.50 33.70 99.50 34.00L99.52 34.02L99.49 33.99Q99.63 36.49 97.35 37.33L97.33 37.31L97.22 37.20Q96.39 37.48 95.59 37.36L95.72 37.49L95.76 37.53Q94.56 37.55 93.42 37.10L93.37 37.04L93.41 37.08Q93.22 36.52 93.30 35.53L93.19 35.42L93.16 35.38Q93.41 33.89 94.61 32.67L94.68 32.74L94.64 32.69Q95.80 31.44 97.40 31.56ZM97.55 21.99L97.64 22.09L97.62 22.06Q98.41 21.94 98.94 22.09L98.93 22.08L99.04 23.00L98.85 22.81Q99.01 24.37 98.10 25.38L98.00 25.28L98.08 25.37Q97.18 26.39 95.81 26.20L95.67 26.06L95.76 26.14Q94.75 26.12 94.33 25.89L94.39 25.96L94.31 25.88Q94.39 25.73 94.28 25.04L94.21 24.97L94.20 24.97Q94.00 23.62 95.21 22.79L95.08 22.65L95.13 22.70Q96.23 22.05 97.64 22.09Z"/><path fill="#222" d="M70.36 27.62L70.36 27.62L70.29 27.55Q68.15 27.66 66.88 29.16L66.87 29.16L66.90 29.19Q65.54 30.61 65.43 32.89L65.43 32.89L65.50 32.97Q65.33 35.58 66.17 36.53L66.20 36.56L66.25 36.61Q67.28 37.79 69.60 37.64L69.58 37.62L69.70 37.73Q74.25 37.34 74.63 34.33L74.60 34.30L74.55 34.25Q74.79 33.58 74.79 32.78L74.70 32.69L74.75 32.74Q74.80 30.81 73.66 29.28L73.52 29.15L73.61 29.23Q72.29 27.58 70.35 27.62ZM75.19 37.71L75.13 37.65L75.17 37.68Q73.74 39.87 69.36 40.10L69.36 40.10L69.40 40.14Q65.27 40.35 63.64 39.25L63.60 39.22L63.56 39.18Q62.58 38.23 62.43 36.52L62.39 36.48L62.47 36.56Q62.42 35.44 62.61 33.57L62.55 33.51L62.53 33.49Q63.13 29.30 64.35 27.47L64.22 27.34L64.27 27.39Q65.91 24.92 69.75 24.96L69.89 25.10L69.70 24.91Q72.24 24.97 74.52 27.29L74.62 27.39L74.66 27.44Q74.80 21.63 76.40 15.12L76.30 15.02L76.35 15.07Q78.28 14.68 80.15 13.85L80.14 13.84L80.04 13.74Q77.40 20.31 77.13 27.32L77.24 27.42L77.16 27.34Q76.85 34.49 78.98 41.08L78.94 41.04L78.95 41.04Q77.48 40.60 75.76 40.22L75.65 40.11L75.66 40.12Q75.27 38.74 75.12 37.64ZM78.28 43.24L78.24 43.19L78.31 43.27Q80.38 43.81 82.94 45.34L82.86 45.26L82.89 45.29Q79.16 38.21 79.00 29.91L78.99 29.90L79.03 29.93Q78.80 21.63 81.88 14.25L81.99 14.36L82.01 14.37Q81.28 14.79 79.83 15.44L79.94 15.54L79.80 15.40Q80.16 14.28 80.77 13.06L80.80 13.09L80.71 12.99Q78.31 14.06 75.87 14.63L76.04 14.80L75.94 14.70Q74.60 20.59 74.33 26.68L74.17 26.52L74.34 26.69Q72.26 24.68 69.74 24.57L69.72 24.55L69.77 24.60Q66.39 24.52 64.48 26.62L64.37 26.51L64.45 26.58Q62.72 28.93 62.30 33.61L62.33 33.64L62.29 33.60Q61.97 36.29 61.97 36.71L62.08 36.82L61.99 36.73Q62.13 38.54 63.27 39.61L63.23 39.57L63.19 39.52Q63.46 39.79 63.65 39.87L63.80 40.02L64.20 40.61L64.24 40.65Q65.17 41.96 68.14 42.23L68.10 42.19L68.06 42.15Q70.33 42.36 71.70 42.44L71.78 42.52L71.70 42.43Q75.88 42.62 77.59 41.29L77.58 41.27L77.51 41.20Q77.75 42.02 78.21 43.16ZM72.02 29.97L72.06 30.01L71.90 29.85Q72.93 29.85 73.77 30.35L73.80 30.37L73.81 30.39Q74.34 31.72 74.42 32.75L74.38 32.71L74.45 32.78Q74.61 36.85 69.58 37.20L69.62 37.23L69.64 37.26Q68.77 37.30 67.66 37.03L67.66 37.02L67.68 37.05Q67.52 36.51 67.45 35.98L67.46 35.99L67.48 36.01Q67.34 35.26 67.37 34.65L67.39 34.66L67.41 34.69Q67.66 31.20 70.29 30.21L70.35 30.27L70.42 30.35Q71.37 29.97 72.06 30.01Z"/><path fill="#111" d="M21.01 28.69L21.02 28.70L21.00 28.69Q18.02 28.52 17.26 30.76L17.29 30.80L17.33 30.83Q17.07 31.53 16.96 32.17L17.04 32.26L16.92 32.14Q19.61 32.43 21.25 32.43L21.28 32.46L21.26 32.44Q22.83 32.38 25.42 32.26L25.53 32.37L25.41 32.26Q25.30 30.55 23.90 29.48L23.91 29.50L23.89 29.47Q22.75 28.64 20.96 28.64ZM20.99 41.16L21.03 41.19L21.09 41.25Q16.82 41.21 15.52 39.80L15.44 39.72L15.59 39.87Q14.62 38.41 14.47 35.13L14.30 34.97L14.39 35.05Q14.35 34.78 14.27 33.41L14.23 33.37L14.27 33.41Q14.16 31.13 14.16 30.40L14.17 30.42L14.17 30.42Q14.13 28.51 14.85 27.41L14.92 27.47L14.88 27.44Q16.30 26.04 19.27 26.04L19.35 26.11L20.82 26.02L20.74 25.94Q22.86 26.01 24.39 26.32L24.37 26.31L24.46 26.40Q26.43 26.77 27.42 27.98L27.50 28.07L27.40 27.96Q28.09 29.11 28.17 31.20L28.21 31.24L28.07 31.11Q28.04 32.22 28.08 34.39L28.19 34.50L28.23 34.54Q25.31 34.52 22.54 34.52L22.58 34.56L17.02 34.60L17.00 34.58Q17.10 38.94 21.17 38.71L21.08 38.62L21.21 38.75Q24.95 38.53 26.17 36.70L26.22 36.76L26.11 36.64Q27.09 37.28 28.69 38.46L28.62 38.40L28.57 38.35Q27.21 40.76 23.06 41.02L23.17 41.13L23.09 41.05Q22.39 41.11 21.02 41.18ZM23.32 43.53L23.35 43.55L23.40 43.61Q24.42 43.49 25.64 43.56L25.60 43.52L25.52 43.45Q30.57 43.70 31.49 40.92L31.45 40.88L31.57 41.00Q29.83 39.64 28.73 38.88L28.86 39.01L28.76 38.92Q28.95 38.53 29.14 38.30L29.17 38.33L29.08 38.24Q28.53 37.96 27.16 37.01L27.03 36.88L27.02 36.87Q28.12 36.94 30.18 37.25L30.16 37.23L30.11 37.18Q30.05 35.94 29.97 35.25L29.97 35.25L29.89 33.38L29.89 33.38Q29.68 30.97 29.04 29.48L28.98 29.43L29.02 29.47Q28.81 29.18 28.23 28.57L28.08 28.41L28.19 28.53Q27.98 28.16 27.75 27.59L27.70 27.54L27.81 27.65Q25.80 25.49 20.74 25.49L20.86 25.61L19.14 25.57L19.09 25.51Q15.82 25.48 14.38 26.97L14.55 27.14L14.52 27.11Q13.82 28.20 13.86 30.25L13.72 30.12L13.78 30.18Q13.84 31.15 13.96 33.40L14.01 33.45L14.02 33.46Q14.08 35.05 14.19 37.10L14.10 37.01L14.26 37.17Q14.48 39.37 15.36 40.44L15.25 40.32L15.44 40.52Q15.58 40.66 15.77 40.77L15.58 40.59L16.07 41.42L15.94 41.28Q16.68 43.09 23.27 43.48ZM21.26 38.39L21.25 38.37L21.25 38.37Q19.96 38.33 19.04 37.88L19.18 38.02L19.15 37.98Q19.02 37.51 18.83 36.83L18.91 36.90L18.92 36.92Q20.64 36.85 22.24 36.85L22.17 36.78L22.07 36.67Q23.75 36.68 25.42 36.80L25.44 36.82L25.51 36.88Q24.16 38.16 21.15 38.27ZM22.74 30.88L22.75 30.89L22.82 30.96Q23.49 31.02 24.82 31.40L24.73 31.31L25.07 31.83L25.07 32.03L24.95 31.90Q23.57 32.01 22.66 31.98L22.80 32.12L22.75 32.07Q20.35 31.92 20.31 31.92L20.41 32.01L20.48 32.08Q21.07 30.99 22.74 30.88Z"/><path fill="#333" d="M121.55 18.40L121.60 18.45L121.58 18.43Q120.88 18.84 120.73 19.64L120.73 19.63L120.68 24.73L120.79 24.84Q121.83 24.74 124.04 24.47L124.06 24.49L123.99 24.42Q124.03 24.92 123.99 25.76L123.98 25.75L124.09 25.85Q123.99 26.56 123.99 27.01L123.98 27.00L122.37 27.06L122.34 27.04Q121.68 27.24 120.80 27.24L120.81 27.25L120.82 27.27Q120.79 31.43 120.72 39.80L120.74 39.82L120.57 39.66Q118.49 39.86 117.01 40.54L117.01 40.54L116.88 40.42Q117.96 34.27 117.85 27.04L117.82 27.00L117.92 27.10Q117.36 27.15 116.06 26.89L115.90 26.72L116.01 26.83Q116.06 25.89 115.87 23.95L115.86 23.94L115.70 23.78Q116.81 24.28 117.76 24.47L117.85 24.56L117.89 24.60Q117.88 23.98 117.57 21.50L117.52 21.46L117.43 21.36Q117.25 19.35 117.25 18.40L117.20 18.35L117.19 18.35Q117.20 16.68 118.61 16.11L118.69 16.19L118.62 16.12Q119.51 15.83 124.35 14.99L124.33 14.98L124.30 14.94Q125.12 14.81 125.96 14.70L125.94 14.69L126.03 14.77Q125.78 15.51 125.63 16.39L125.51 16.27L125.39 18.01L125.33 17.95Q124.59 17.71 124.09 17.82L124.10 17.83L124.05 17.78Q123.55 17.89 121.64 18.50ZM127.06 19.61L127.12 19.67L126.98 19.53Q127.40 17.39 128.01 14.84L127.99 14.83L128.06 14.90Q127.32 15.11 126.02 15.72L126.07 15.76L126.49 14.09L126.39 13.99Q125.34 14.35 122.87 14.88L122.69 14.71L122.88 14.89Q121.63 14.90 118.43 15.81L118.40 15.79L118.35 15.74Q116.90 16.27 116.90 18.13L116.77 18.00L116.89 18.12Q116.91 18.44 116.98 18.78L116.97 18.77L116.88 18.68Q117.11 20.02 117.23 21.35L117.23 21.35L117.36 23.95L117.55 24.14Q116.14 23.73 115.49 23.27L115.50 23.28L115.52 23.29Q115.48 24.09 115.52 25.12L115.58 25.18L115.71 27.18L115.75 27.22Q116.39 27.33 117.19 27.40L117.18 27.39L117.17 29.48L117.55 29.48L117.50 29.43Q117.40 35.57 116.41 41.02L116.44 41.04L116.57 41.18Q117.40 40.52 118.58 40.25L118.73 40.40L118.54 42.46L118.39 42.30Q119.76 42.15 121.05 42.12L121.08 42.14L120.95 42.01Q122.34 42.14 123.59 42.41L123.58 42.39L123.52 42.33Q122.68 37.34 122.68 29.39L122.61 29.32L122.75 29.47Q123.81 29.42 125.90 29.49L125.80 29.39L125.93 27.65L125.86 27.59Q125.94 26.72 125.98 25.76L125.94 25.72L125.97 25.76Q125.46 25.81 124.39 26.08L124.43 26.12L124.32 26.00Q124.39 25.39 124.50 24.06L124.41 23.97L124.47 24.03Q123.54 24.16 122.74 24.24L122.82 24.32L122.78 24.27Q122.79 22.88 122.90 21.47L122.97 21.53L122.88 21.44Q122.99 20.76 123.53 20.42L123.64 20.52L123.61 20.50Q124.58 19.83 125.40 19.76L125.41 19.77L125.29 19.65Q126.14 19.61 126.98 19.53Z"/><path fill="#333" d="M56.63 34.75L56.64 34.77L56.61 34.73Q56.50 38.20 53.34 39.49L53.52 39.67L53.48 39.63Q51.62 40.48 47.20 40.63L47.11 40.54L47.04 40.46Q42.40 40.73 40.15 39.55L39.98 39.39L39.98 39.38Q38.22 38.15 38.37 34.80L38.33 34.76L38.38 34.81Q38.36 34.14 38.55 32.17L38.71 32.33L38.71 32.32Q38.67 30.57 38.67 29.58L38.73 29.64L38.81 29.72Q38.81 21.73 34.62 14.31L34.59 14.27L34.46 14.15Q35.62 14.80 38.59 15.87L38.74 16.02L38.61 15.89Q41.55 22.68 41.55 30.07L41.61 30.12L41.65 30.16Q41.48 30.60 41.38 31.78L41.54 31.94L41.48 31.88Q41.26 32.94 41.26 33.55L41.44 33.73L41.34 33.63Q41.39 35.96 42.95 36.95L42.87 36.86L42.95 36.94Q44.46 37.62 47.43 37.62L47.49 37.68L47.61 37.80Q50.22 37.79 51.86 36.61L51.81 36.55L51.72 36.47Q53.70 35.25 53.55 32.74L53.57 32.76L53.55 32.74Q53.42 31.32 53.42 29.99L53.34 29.90L53.46 30.02Q53.45 22.96 55.84 16.45L55.83 16.44L57.96 15.83L57.90 15.77Q58.92 15.54 60.03 15.08L60.14 15.19L60.04 15.10Q56.31 22.21 56.31 29.78L56.26 29.73L56.23 29.71Q56.27 30.58 56.40 32.22L56.42 32.24L56.51 32.33Q56.63 33.95 56.63 34.75ZM58.81 35.68L58.79 35.66L58.80 35.67Q57.91 30.70 58.64 25.60L58.58 25.55L58.58 25.55Q59.40 20.43 61.80 16.06L61.68 15.93L61.71 15.97Q61.17 16.34 59.72 16.98L59.64 16.90L59.71 16.97Q59.99 16.03 60.79 14.47L60.76 14.44L60.88 14.56Q57.44 15.80 55.53 16.14L55.36 15.97L55.37 15.98Q53.12 22.60 53.12 29.87L53.17 29.92L53.17 29.92Q53.11 31.24 53.19 32.65L53.21 32.66L53.15 32.60Q53.26 34.96 51.47 36.18L51.56 36.26L51.46 36.16Q50.04 37.30 47.52 37.33L47.45 37.26L47.57 37.38Q44.77 37.39 43.32 36.63L43.36 36.67L43.32 36.63Q43.14 36.03 43.06 35.58L43.21 35.72L43.13 35.64Q43.03 35.09 43.15 34.59L43.26 34.71L43.29 34.74Q43.48 32.38 43.48 30.05L43.43 30.00L43.50 30.07Q43.54 24.29 42.02 18.39L41.93 18.30L41.83 18.20Q41.29 18.27 39.88 17.92L39.76 17.81L39.89 17.93Q39.39 16.52 38.93 15.61L38.87 15.54L38.91 15.58Q36.20 14.82 33.81 13.45L33.79 13.44L33.80 13.44Q38.39 21.00 38.39 29.72L38.37 29.70L38.41 29.74Q38.51 31.48 38.36 33.19L38.26 33.09L38.31 33.14Q38.10 35.56 38.18 36.74L38.08 36.64L38.09 36.66Q38.33 38.68 39.58 39.83L39.60 39.84L39.51 39.75Q40.47 42.19 45.11 42.57L45.25 42.71L45.07 42.53Q47.20 42.72 49.33 42.79L49.40 42.86L49.34 42.81Q54.75 43.04 57.53 42.09L57.45 42.00L57.64 42.19Q59.21 41.30 59.21 39.24L59.18 39.20L59.16 39.18Q59.25 38.13 58.79 35.66Z"/></svg>