<svg xmlns="http://www.w3.org/2000/svg" width="150" height="50" viewBox="0,0,150,50"><path fill="#444" d="M73.15 30.01L73.01 29.88L72.99 29.86Q70.55 29.81 69.22 31.03L69.10 30.91L69.23 31.04Q67.76 32.13 68.07 34.64L68.20 34.77L68.16 34.73Q68.52 37.30 69.74 38.55L69.70 38.52L69.68 38.50Q70.85 39.94 72.99 39.86L72.87 39.75L72.99 39.86Q73.40 39.70 73.59 39.70L73.57 39.68L73.70 39.81Q77.11 39.07 77.22 34.46L77.31 34.55L77.27 34.51Q77.42 32.22 76.73 31.42L76.69 31.38L76.57 31.27Q75.59 30.05 73.04 29.90ZM76.34 41.62L76.36 41.64L76.28 41.55Q74.98 42.16 73.41 42.08L73.52 42.19L73.51 42.18Q69.58 42.28 68.29 39.69L68.29 39.69L68.37 39.78Q68.21 45.14 66.88 49.40L66.90 49.42L66.92 49.45Q65.05 49.86 63.41 50.58L63.35 50.51L63.46 50.63Q65.94 44.58 65.67 37.61L65.76 37.70L65.71 37.65Q65.39 30.74 62.49 24.69L62.62 24.81L62.60 24.80Q64.47 25.90 66.18 26.35L66.16 26.33L66.77 27.90L66.71 27.84Q66.83 28.18 67.10 29.29L67.17 29.37L67.14 29.33Q68.17 27.28 71.75 27.09L71.63 26.97L71.71 27.05Q72.62 27.04 73.49 27.04L73.48 27.03L73.99 27.05L74.00 27.06Q74.17 27.11 74.36 27.15L74.28 27.07L74.66 27.15L74.60 27.08Q76.65 27.35 77.38 27.58L77.42 27.62L77.44 27.64Q78.81 27.98 79.69 28.94L79.75 29.00L79.80 29.05Q80.53 30.12 80.49 31.53L80.58 31.62L80.63 31.67Q80.58 34.47 79.78 37.13L79.80 37.15L79.84 37.19Q78.80 40.69 76.44 41.72ZM80.72 42.34L80.60 42.19L80.71 42.29Q81.79 40.29 82.09 36.17L81.94 36.02L82.00 36.09Q82.09 34.27 82.09 33.01L82.17 33.10L82.09 33.02Q82.16 31.56 81.40 30.15L81.44 30.20L81.37 30.13Q81.09 29.81 80.60 29.43L80.55 29.38L80.42 29.13L80.26 28.86L80.13 28.61L80.05 28.54Q78.42 26.60 74.08 26.60L74.01 26.53L73.42 26.55L73.40 26.53Q68.87 26.64 67.23 28.24L67.15 28.16L67.21 28.22Q66.94 27.61 66.79 27.12L66.85 27.18L66.63 26.16L66.65 26.17Q64.05 25.44 61.84 23.95L61.85 23.97L61.86 23.97Q65.11 30.28 65.42 37.51L65.38 37.47L65.49 37.58Q65.78 44.83 62.92 51.31L62.86 51.24L64.94 50.46L64.89 50.41Q64.55 51.07 63.87 52.63L63.85 52.61L63.97 52.74Q66.69 51.68 69.01 51.34L68.86 51.20L68.89 51.22Q70.12 46.51 70.27 42.78L70.15 42.66L70.16 42.67Q71.60 44.18 75.21 44.41L75.26 44.46L75.28 44.47Q79.24 44.74 80.69 42.31L80.67 42.29ZM75.05 32.25L74.90 32.10L74.86 32.07Q75.56 32.04 76.67 32.39L76.67 32.39L76.75 32.47Q76.88 33.32 76.84 34.50L76.86 34.52L77.00 34.67Q76.99 35.57 76.80 36.22L76.81 36.23L76.77 36.19Q76.08 39.11 73.56 39.41L73.50 39.34L73.61 39.34L73.64 39.38Q73.46 39.26 73.34 39.30L73.48 39.44L72.81 39.30L72.95 39.44Q71.76 39.44 70.77 38.94L70.79 38.96L70.33 36.79L70.35 36.80Q70.26 34.54 71.55 33.52L71.60 33.57L71.46 33.42Q72.49 32.37 74.89 32.10Z"/><path fill="#333" d="M99.92 29.42L100.02 29.52L100.08 29.58Q98.80 28.72 98.16 28.75L98.21 28.81L98.15 28.75Q96.79 28.83 95.74 29.84L95.81 29.91L95.77 29.87Q94.62 30.77 94.73 32.14L94.77 32.19L94.77 32.19Q95.08 36.53 94.21 41.06L94.20 41.05L94.32 41.17Q92.03 41.55 90.93 42.08L91.02 42.17L90.90 42.05Q92.47 37.95 92.24 33.50L92.12 33.37L92.26 33.51Q91.88 28.87 90.17 24.80L90.35 24.98L90.19 24.83Q91.42 25.60 93.70 26.24L93.77 26.30L94.20 28.87L94.20 28.87Q94.92 26.01 99.18 26.01L99.16 25.98L99.15 25.98Q99.67 26.04 99.97 26.04L99.85 25.91L99.98 26.05Q101.16 25.94 102.42 26.62L102.42 26.62L102.39 26.59Q101.17 28.03 100.03 29.52ZM101.54 31.41L101.76 31.48L101.74 31.47Q102.51 30.18 104.19 27.74L104.21 27.76L104.24 27.79Q103.85 27.52 102.32 27.25L102.33 27.25L102.31 27.23Q102.58 26.86 103.03 26.25L103.03 26.24L103.15 26.36Q101.12 25.32 99.17 25.51L99.26 25.59L99.26 25.59Q97.35 25.82 96.63 26.08L96.48 25.94L96.52 25.98Q95.25 26.53 94.45 27.63L94.34 27.52L94.11 26.65L94.08 25.97L94.08 25.97Q91.53 25.40 89.55 24.07L89.68 24.20L89.56 24.08Q91.66 28.42 91.89 33.30L91.93 33.34L91.90 33.31Q92.12 38.21 90.36 42.74L90.49 42.86L90.51 42.88Q91.42 42.23 92.29 41.93L92.48 42.11L92.36 41.99Q92.10 43.11 91.61 44.17L91.61 44.17L91.57 44.13Q94.44 43.31 96.57 43.20L96.57 43.19L96.71 38.61L96.82 38.72Q96.97 36.51 96.97 34.27L96.99 34.29L96.91 34.21Q96.83 32.95 97.75 31.98L97.85 32.08L97.77 32.01Q98.78 31.13 99.92 31.05L99.97 31.10L99.91 31.04Q100.56 30.93 101.28 31.61L101.18 31.51L101.56 31.44ZM96.64 29.71L96.74 29.73L96.59 29.70L96.69 29.76Z"/><path fill="#222" d="M50.71 30.89L50.80 30.98L50.69 30.87Q50.72 29.37 49.90 28.46L50.07 28.63L50.04 28.60Q49.17 27.64 47.73 27.68L47.63 27.58L47.73 27.68Q45.37 27.72 44.54 29.85L44.49 29.80L44.47 29.79Q44.31 30.70 44.28 31.38L44.32 31.43L44.16 31.26Q44.04 36.21 43.13 40.55L43.01 40.44L43.11 40.53Q41.44 41.07 39.58 42.06L39.59 42.07L39.62 42.10Q41.94 35.17 41.67 27.86L41.57 27.77L41.52 27.72Q41.31 20.42 38.76 13.61L38.80 13.65L38.71 13.56Q40.53 14.92 42.54 15.60L42.54 15.60L42.61 15.67Q43.96 21.36 44.15 27.22L44.20 27.27L44.26 27.33Q45.50 25.10 48.20 25.18L48.26 25.24L48.24 25.22Q53.38 25.37 53.49 30.74L53.42 30.67L53.40 30.64Q53.69 36.49 55.06 41.14L55.06 41.14L54.91 40.99Q53.19 40.29 51.43 40.10L51.43 40.09L51.27 39.94Q50.86 36.78 50.74 30.92ZM50.96 40.28L51.03 40.35L51.10 40.42Q52.11 40.51 53.21 40.78L53.15 40.71L53.17 40.73Q53.22 40.90 53.75 42.88L53.71 42.84L53.87 42.99Q56.73 43.84 58.75 45.29L58.84 45.37L58.66 45.19Q55.97 39.42 55.43 33.10L55.58 33.24L55.46 33.12Q55.26 29.54 53.85 27.98L53.77 27.90L53.90 28.03Q53.72 27.77 53.08 27.31L53.05 27.29L53.15 27.39Q52.93 26.90 52.28 26.14L52.29 26.15L52.19 25.97L52.34 26.12Q51.49 25.27 48.37 25.01L48.19 24.82L48.22 24.86Q47.54 24.91 46.14 25.25L46.18 25.29L46.12 25.23Q45.88 20.34 45.53 17.83L45.54 17.83L45.63 17.92Q44.73 17.68 43.25 17.37L43.32 17.44L43.43 17.56Q43.26 16.81 42.99 15.32L43.00 15.34L42.96 15.29Q39.97 14.28 38.10 12.72L38.16 12.78L38.06 12.68Q41.07 19.88 41.34 27.68L41.35 27.69L41.35 27.70Q41.62 35.46 39.06 42.81L39.07 42.82L38.98 42.73Q39.98 42.20 41.12 41.71L41.01 41.59L40.35 43.94L40.46 44.05Q43.53 42.66 45.51 42.47L45.41 42.38L45.50 42.46Q46.05 37.04 46.24 33.08L46.21 33.05L46.29 33.13Q46.30 31.20 48.24 30.10L48.30 30.15L48.23 30.08Q48.71 29.80 49.24 29.84L49.27 29.87L49.40 29.99Q49.53 29.97 49.87 30.01L49.90 30.04L50.32 30.12L50.19 29.99Q50.23 30.41 50.35 30.87L50.29 30.82L50.38 30.90Q50.61 36.99 51.10 40.42Z"/><path fill="#333" d="M115.73 19.25L115.58 19.10L115.73 19.24Q116.72 23.58 116.87 26.78L116.90 26.81L116.90 26.81Q117.48 26.93 121.86 27.05L121.91 27.10L121.74 26.92Q124.38 27.06 124.76 23.59L124.75 23.58L124.79 23.62Q124.98 21.87 124.06 20.95L124.02 20.91L123.96 20.84Q122.84 20.11 120.86 19.96L120.69 19.79L120.72 19.82Q117.52 19.63 115.66 19.17ZM117.08 28.81L117.00 28.74L116.98 28.72Q117.27 34.83 115.48 40.77L115.56 40.85L115.53 40.82Q114.27 41.12 111.68 42.15L111.55 42.02L111.67 42.14Q114.38 35.52 114.03 28.06L114.11 28.13L114.17 28.19Q113.87 20.85 110.56 14.34L110.47 14.25L110.50 14.28Q115.41 17.13 122.38 17.13L122.41 17.16L122.37 17.12Q127.88 17.00 128.14 20.54L128.15 20.55L128.26 20.66Q128.31 21.24 128.24 21.85L128.14 21.76L128.18 23.01L128.15 22.99Q127.23 26.82 125.10 28.53L125.27 28.71L125.25 28.69Q124.47 29.39 123.44 29.39L123.34 29.29L120.77 29.31L120.74 29.28Q126.43 36.60 130.96 41.17L130.80 41.01L130.91 41.13Q128.74 40.40 125.81 40.06L125.77 40.02L125.66 39.90Q122.08 36.14 117.17 28.90ZM125.72 40.46L125.57 40.31L125.89 40.33L127.13 41.57L127.25 41.69Q127.77 42.17 128.42 42.78L128.45 42.81L128.51 42.87Q131.94 43.37 135.52 45.24L135.49 45.21L135.50 45.21Q128.54 38.45 123.14 31.52L123.10 31.49L124.88 31.51L124.88 31.51Q128.11 31.66 129.44 27.13L129.40 27.09L129.38 27.07Q130.03 24.83 130.03 22.13L130.07 22.16L130.01 22.10Q129.96 19.77 128.25 19.12L128.39 19.27L128.33 19.21Q128.21 18.82 127.64 18.13L127.64 18.13L127.56 18.05Q126.02 16.74 122.37 16.67L122.31 16.61L122.26 16.56Q114.53 16.55 109.84 13.55L109.80 13.50L109.85 13.56Q113.49 20.28 113.84 27.97L113.86 27.99L113.91 28.04Q114.21 35.96 111.09 42.81L111.04 42.76L111.09 42.81Q112.30 42.19 113.10 41.89L113.04 41.83L112.03 44.09L112.18 44.25Q114.86 43.16 117.53 42.66L117.43 42.57L117.43 42.57Q118.74 37.48 118.93 32.26L118.92 32.26L119.02 32.35Q122.54 37.32 125.70 40.44ZM124.42 22.49L124.31 22.38L124.38 22.45Q124.51 22.81 124.51 23.15L124.46 23.10L124.35 23.56L124.39 23.60Q124.39 24.71 123.71 25.66L123.72 25.67L123.78 25.73Q123.16 26.48 122.24 26.67L122.26 26.68L122.19 26.62Q121.93 26.62 120.33 26.66L120.35 26.68L120.34 26.67Q119.78 26.72 118.95 26.61L119.07 26.73L119.07 26.73Q118.87 25.12 118.53 22.08L118.43 21.98L118.50 22.06Q120.01 22.34 120.69 22.34L120.53 22.18L120.53 22.17Q122.45 22.27 124.39 22.46Z"/><path fill="#222" d="M28.41 28.73L28.37 28.68L22.43 28.72L22.39 28.68Q19.46 28.72 16.53 28.64L16.57 28.68L16.69 28.80Q16.82 35.52 14.76 41.04L14.59 40.87L14.62 40.90Q12.82 41.42 11.07 42.10L11.16 42.20L11.06 42.09Q13.87 36.41 13.87 29.75L13.97 29.85L13.94 29.82Q13.91 21.31 9.80 14.26L9.73 14.20L9.81 14.28Q11.23 14.97 13.71 15.77L13.80 15.86L13.79 15.86Q15.96 20.96 16.49 25.83L16.35 25.68L16.43 25.77Q19.54 26.10 22.40 26.06L22.45 26.11L22.53 26.20Q25.20 26.20 28.52 25.94L28.38 25.81L28.50 25.92Q28.85 21.40 30.60 16.29L30.58 16.28L30.63 16.33Q32.68 16.01 34.92 15.17L34.95 15.20L34.93 15.18Q31.21 21.81 31.21 29.77L31.27 29.83L31.14 29.71Q31.22 35.99 33.59 41.32L33.67 41.40L33.69 41.43Q31.94 40.67 29.88 40.36L29.99 40.46L29.86 40.34Q28.23 35.35 28.34 28.65ZM29.73 40.82L29.71 40.80L29.64 40.73Q30.67 40.88 31.78 41.15L31.72 41.09L31.87 41.25Q32.14 41.90 32.79 43.38L32.74 43.33L32.71 43.30Q36.14 44.33 37.93 45.24L37.89 45.21L37.97 45.28Q33.51 39.11 33.20 30.85L33.16 30.81L33.22 30.87Q32.93 22.86 36.59 16.04L36.46 15.92L35.54 16.52L35.36 16.33Q35.03 16.73 34.42 16.88L34.33 16.79L34.37 16.83Q34.68 15.92 35.52 14.36L35.55 14.40L35.59 14.43Q32.86 15.40 30.23 15.89L30.35 16.00L30.29 15.95Q28.70 20.87 28.25 25.55L28.16 25.46L28.16 25.47Q25.80 25.81 23.36 25.81L23.34 25.79L23.20 25.64Q20.97 25.82 18.46 25.67L18.30 25.51L18.37 25.57Q18.10 22.26 16.99 18.18L17.10 18.29L17.03 18.22Q16.40 18.16 14.96 17.78L14.92 17.74L14.92 17.75Q14.54 16.53 14.09 15.50L14.03 15.45L14.14 15.56Q11.39 14.79 9.11 13.53L9.14 13.56L9.01 13.43Q13.56 20.84 13.56 29.64L13.55 29.62L13.68 29.76Q13.55 36.60 10.43 42.72L10.50 42.79L10.52 42.81Q11.20 42.50 12.53 41.93L12.45 41.85L12.61 42.01Q12.12 42.70 11.32 44.23L11.33 44.23L11.33 44.24Q14.14 43.23 16.38 42.81L16.40 42.83L16.46 42.89Q18.37 37.38 18.56 31.21L18.58 31.23L18.52 31.17Q20.14 31.12 23.34 31.08L23.34 31.08L23.25 30.99Q26.23 31.07 28.13 31.15L28.17 31.19L28.11 31.13Q28.32 36.82 29.65 40.74Z"/></svg>