<svg xmlns="http://www.w3.org/2000/svg" width="150" height="50" viewBox="0,0,150,50"><path fill="#222" d="M46.07 29.63L46.18 29.75L46.21 29.78Q41.87 29.43 41.30 32.48L41.32 32.50L41.38 32.56Q41.14 33.57 41.33 34.45L41.43 34.55L41.41 34.53Q41.48 35.36 41.93 36.77L41.76 36.59L41.94 36.78Q42.88 39.81 46.19 39.65L46.27 39.74L46.18 39.64Q48.29 39.81 49.62 38.25L49.61 38.24L49.53 38.16Q50.87 36.80 50.87 34.74L50.74 34.61L50.90 34.77Q50.92 34.06 50.76 33.00L50.75 32.99L50.80 33.03Q50.78 32.17 50.36 31.49L50.38 31.51L50.29 31.42Q48.74 29.83 46.15 29.72ZM50.97 48.16L51.00 48.19L51.04 48.23Q49.26 48.85 41.19 49.23L41.07 49.12L41.13 49.17Q39.33 49.12 37.69 48.29L37.75 48.35L37.70 48.30Q38.69 47.50 40.52 45.71L40.42 45.61L40.52 45.71Q42.89 46.71 44.98 46.52L45.00 46.53L44.99 46.53Q47.91 46.28 48.74 46.01L48.63 45.90L48.63 45.90Q50.89 45.23 50.89 43.44L50.95 43.50L50.99 43.54Q50.92 43.24 50.84 43.01L50.86 43.03L50.76 41.44L50.81 41.49Q50.78 40.70 50.78 39.90L50.69 39.82L50.68 39.81Q49.34 42.08 45.95 42.08L45.87 42.00L45.90 42.02Q42.12 42.14 40.49 39.93L40.45 39.89L40.47 39.91Q39.31 38.33 38.51 33.92L38.57 33.98L38.55 33.96Q38.18 32.37 38.18 30.96L38.29 31.07L38.19 30.97Q38.15 29.14 39.06 28.15L39.21 28.30L39.24 28.33Q40.84 26.85 45.49 26.85L45.39 26.74L47.23 27.03L47.19 26.99Q50.40 27.34 51.73 29.28L51.68 29.23L51.66 29.21Q51.86 28.38 52.28 26.75L52.35 26.81L52.31 26.78Q54.28 26.54 56.03 25.82L55.89 25.67L55.90 25.69Q53.36 31.90 53.36 39.13L53.20 38.98L53.19 38.97Q53.36 41.80 53.74 44.43L53.73 44.42L53.60 44.29Q53.76 44.94 53.69 45.63L53.75 45.70L53.71 45.65Q53.61 47.11 52.39 47.87L52.46 47.94L52.27 47.76Q51.82 48.06 50.98 48.17ZM53.90 51.06L53.90 51.06L54.02 51.17Q55.48 51.23 56.24 50.28L56.27 50.31L56.18 50.21Q56.67 49.41 56.56 48.69L56.37 48.50L56.45 48.59Q56.32 47.92 56.13 47.15L56.13 47.15L56.10 47.12Q55.01 42.04 55.35 36.79L55.30 36.73L55.23 36.67Q55.73 31.37 57.86 26.54L57.75 26.43L55.77 27.49L55.75 27.48Q56.00 26.89 56.23 26.32L56.13 26.22L56.68 25.14L56.60 25.05Q54.27 26.03 52.06 26.45L52.01 26.40L51.99 26.38Q51.78 27.35 51.63 28.38L51.54 28.29L51.67 28.42Q49.45 26.39 45.41 26.39L45.51 26.49L43.58 26.31L43.64 26.36Q40.50 26.47 38.83 27.88L38.70 27.75L38.70 27.75Q37.80 28.76 37.84 30.66L37.95 30.76L37.99 30.81Q37.88 33.14 38.91 37.40L38.91 37.40L38.97 37.46Q39.55 39.48 40.76 40.89L40.63 40.75L41.01 41.14L41.11 41.24L40.97 41.10Q42.17 43.48 44.76 44.01L44.76 44.01L44.67 43.92Q46.19 44.33 47.63 44.37L47.63 44.37L47.58 44.32Q49.32 44.34 50.38 43.96L50.35 43.93L50.33 43.91Q49.81 45.56 47.15 45.90L47.22 45.97L47.16 45.91Q46.14 46.11 45.46 46.11L45.40 46.06L45.08 46.12L44.98 46.02Q42.11 45.97 40.44 45.02L40.59 45.17L38.86 46.87L38.84 46.85Q37.91 47.59 37.08 48.55L37.18 48.65L37.06 48.53Q38.11 49.13 39.10 49.32L39.04 49.25L38.31 50.27L38.30 50.26Q40.94 51.27 46.58 51.27L46.47 51.17L46.78 51.25L46.76 51.23Q50.47 51.32 54.05 51.20ZM48.15 32.14L48.04 32.02L48.13 32.12Q49.30 31.91 50.21 32.33L50.27 32.39L50.23 32.35Q50.47 32.90 50.55 33.58L50.55 33.58L50.46 33.49Q50.59 33.89 50.55 34.80L50.53 34.78L50.56 34.81Q50.49 36.72 49.39 38.01L49.32 37.95L49.40 38.03Q48.18 39.39 46.27 39.36L46.30 39.39L46.34 39.42Q44.84 39.30 44.01 38.88L44.04 38.91L43.91 38.78Q43.69 37.80 43.65 36.77L43.65 36.77L43.52 36.64Q43.51 32.41 48.12 32.11Z"/><path fill="#333" d="M71.31 40.28L71.17 40.14L68.82 33.33L68.82 33.33Q64.52 20.82 58.59 14.42L58.44 14.28L58.60 14.44Q60.48 15.36 63.07 15.97L63.20 16.10L63.16 16.06Q68.24 22.28 72.58 35.03L72.63 35.09L72.67 35.13Q75.59 26.89 76.27 25.29L76.29 25.31L76.39 25.41Q78.65 19.68 81.47 16.37L81.60 16.50L81.52 16.42Q83.58 16.04 86.20 15.16L86.22 15.17L86.26 15.21Q81.67 19.80 78.63 27.04L78.67 27.08L78.61 27.03Q77.17 30.64 73.47 40.16L73.43 40.11L73.49 40.18Q72.99 40.25 72.42 40.21L72.45 40.24L72.41 40.20Q71.74 40.10 71.17 40.14ZM76.23 42.61L76.26 42.64L76.28 42.66Q79.05 32.64 80.61 28.60L80.59 28.58L80.51 28.50Q83.49 20.79 87.91 15.92L88.05 16.05L87.93 15.93Q86.90 16.31 84.80 17.04L84.92 17.15L85.96 15.72L86.02 15.78Q86.66 15.16 87.27 14.51L87.11 14.36L87.14 14.39Q84.37 15.42 81.36 15.99L81.29 15.92L81.39 16.02Q76.92 21.26 73.04 32.72L73.21 32.89L73.17 32.85Q69.56 22.77 66.37 18.39L66.18 18.21L66.23 18.25Q65.97 18.30 65.09 18.15L65.02 18.07L65.07 18.13Q64.87 17.77 63.27 15.72L63.15 15.60L63.10 15.55Q60.31 15.00 57.60 13.59L57.58 13.57L57.58 13.57Q64.11 20.55 68.49 33.34L68.44 33.30L68.44 33.30Q69.65 36.94 70.83 40.52L71.00 40.69L70.84 40.54Q71.35 40.74 72.19 40.62L72.06 40.49L72.21 40.65Q72.44 41.22 73.12 42.55L73.22 42.64L73.12 42.54Q74.03 42.54 74.75 42.62L74.74 42.60L74.71 42.58Q75.42 42.56 76.18 42.56Z"/><path fill="#111" d="M16.98 19.16L16.93 19.11L17.08 19.26Q18.12 23.65 18.27 26.85L18.25 26.82L18.36 26.93Q18.76 26.88 23.13 26.99L23.14 26.99L23.13 26.99Q25.64 26.99 26.02 23.52L26.05 23.54L26.01 23.51Q26.25 21.81 25.34 20.89L25.40 20.95L25.36 20.91Q24.07 20.00 22.09 19.85L22.02 19.78L22.04 19.80Q18.87 19.65 17.01 19.19ZM18.36 28.76L18.50 28.90L18.34 28.74Q18.59 34.82 16.80 40.76L16.86 40.81L16.81 40.77Q15.62 41.14 13.03 42.17L12.87 42.01L12.99 42.13Q15.84 35.64 15.49 28.18L15.44 28.12L15.53 28.21Q15.08 20.72 11.76 14.21L11.89 14.34L11.80 14.25Q16.74 17.13 23.71 17.13L23.58 17.01L23.68 17.10Q29.31 17.10 29.58 20.64L29.62 20.68L29.51 20.57Q29.62 21.21 29.54 21.82L29.59 21.87L29.43 22.93L29.42 22.92Q28.55 26.81 26.42 28.52L26.50 28.60L26.57 28.67Q25.62 29.21 24.60 29.21L24.71 29.33L22.01 29.21L22.16 29.36Q27.63 36.47 32.16 41.04L32.20 41.08L32.28 41.16Q30.00 40.32 27.07 39.98L27.08 40.00L27.00 39.91Q23.32 36.04 18.41 28.81ZM27.04 40.45L26.88 40.29L27.19 40.30L28.47 41.57L28.57 41.67Q29.08 42.15 29.73 42.76L29.67 42.70L29.79 42.82Q33.32 43.41 36.89 45.28L36.88 45.27L36.82 45.20Q29.87 38.44 24.46 31.51L24.55 31.60L26.20 31.50L26.27 31.58Q29.36 31.58 30.69 27.05L30.64 26.99L30.80 27.16Q31.45 24.91 31.45 22.21L31.30 22.06L31.41 22.17Q31.43 19.91 29.72 19.26L29.64 19.18L29.67 19.21Q29.50 18.78 28.93 18.09L29.00 18.16L29.05 18.21Q27.33 16.72 23.68 16.64L23.58 16.54L23.63 16.59Q15.78 16.47 11.09 13.46L11.01 13.38L11.05 13.42Q14.80 20.26 15.15 27.95L15.24 28.04L15.22 28.02Q15.47 35.88 12.35 42.73L12.46 42.84L12.38 42.77Q13.64 42.20 14.44 41.90L14.48 41.94L13.52 44.26L13.43 44.16Q16.16 43.13 18.83 42.63L18.91 42.71L18.84 42.65Q20.03 37.43 20.22 32.22L20.23 32.23L20.32 32.32Q23.86 37.30 27.02 40.43ZM25.73 22.47L25.64 22.37L25.71 22.44Q25.69 22.65 25.69 22.99L25.70 23.01L25.73 23.61L25.74 23.62Q25.76 24.75 25.08 25.70L25.00 25.62L25.02 25.64Q24.49 26.48 23.58 26.67L23.62 26.72L23.45 26.54Q23.24 26.60 21.64 26.64L21.77 26.77L21.72 26.72Q21.19 26.79 20.35 26.68L20.23 26.56L20.27 26.60Q20.14 25.06 19.80 22.02L19.88 22.10L19.82 22.04Q21.16 22.16 21.85 22.16L21.88 22.19L21.99 22.30Q23.76 22.25 25.70 22.44Z"/><path fill="#222" d="M98.13 32.10L88.88 22.08L88.86 22.07Q89.85 25.91 89.85 29.64L89.68 29.47L89.75 29.54Q89.82 35.58 87.76 41.14L87.70 41.09L87.69 41.07Q86.61 41.33 84.37 42.09L84.33 42.06L84.33 42.05Q87.29 36.40 87.29 29.70L87.17 29.59L87.20 29.61Q87.28 21.06 82.79 13.64L82.65 13.50L82.67 13.51Q83.06 13.64 83.75 14.06L83.80 14.11L83.81 14.12Q95.98 25.42 103.82 34.67L103.73 34.58L103.80 34.64Q103.44 32.15 103.44 29.72L103.55 29.83L103.44 29.72Q103.48 22.53 106.00 16.32L105.92 16.25L106.08 16.40Q108.23 15.70 109.83 15.01L109.83 15.02L109.82 15.00Q106.59 21.25 106.28 28.41L106.27 28.40L106.37 28.50Q105.95 35.73 108.92 41.89L109.06 42.04L108.99 41.97Q108.36 41.83 107.94 41.64L108.04 41.74L107.89 41.59Q103.42 37.73 98.20 32.17L98.09 32.06ZM111.66 45.21L111.69 45.24L111.64 45.19Q112.00 45.25 112.42 45.44L112.53 45.54L113.25 45.77L113.26 45.77Q108.15 38.88 108.15 29.52L108.11 29.47L108.24 29.60Q108.22 22.35 111.53 16.11L111.56 16.14L111.51 16.09Q110.81 16.26 109.40 16.87L109.38 16.85L109.34 16.81Q109.81 16.06 110.65 14.50L110.73 14.58L110.60 14.45Q108.20 15.40 105.76 15.97L105.83 16.04L105.79 16.00Q103.08 22.39 103.08 29.81L103.20 29.93L103.16 29.89Q103.05 31.65 103.24 33.63L103.25 33.64L103.29 33.68Q98.59 27.95 93.83 23.34L93.89 23.40L83.89 13.78L83.70 13.60Q83.17 13.32 81.95 12.75L82.04 12.85L82.07 12.88Q86.95 20.61 86.95 29.71L86.91 29.67L86.93 29.69Q86.97 36.85 83.88 42.86L83.81 42.79L83.81 42.79Q84.03 42.59 85.67 41.98L85.81 42.13L85.84 42.15Q85.43 42.85 84.59 44.33L84.64 44.37L84.60 44.34Q85.85 43.72 89.31 42.92L89.43 43.04L89.43 43.04Q91.81 36.97 91.81 29.77L91.70 29.67L91.68 29.65Q91.71 27.58 91.48 25.44L91.47 25.43L91.42 25.39Q103.03 38.33 111.63 45.18Z"/><path fill="#333" d="M122.64 20.12L122.67 20.15L122.71 20.19Q118.22 20.00 114.53 19.01L114.60 19.08L114.59 19.08Q116.16 23.69 116.35 28.52L116.31 28.48L116.26 28.44Q116.43 33.21 115.21 37.82L115.36 37.96L115.33 37.94Q118.14 37.32 121.65 37.17L121.62 37.15L121.52 37.05Q125.60 37.02 127.39 34.58L127.31 34.50L127.40 34.58Q128.76 32.36 128.95 28.25L128.98 28.28L129.00 28.31Q129.03 26.51 128.57 24.79L128.64 24.86L128.72 24.95Q127.33 20.09 122.61 20.09ZM110.70 42.10L110.72 42.12L110.79 42.19Q113.56 36.40 113.56 29.70L113.65 29.79L113.55 29.68Q113.58 21.19 109.28 14.19L109.35 14.26L109.37 14.28Q114.54 16.85 122.80 17.04L122.92 17.16L122.89 17.13Q131.64 17.21 131.99 24.37L131.99 24.37L132.04 24.42Q132.24 27.21 132.21 28.66L132.22 28.67L132.12 28.57Q131.96 33.17 131.13 35.34L131.25 35.47L131.19 35.41Q130.75 36.49 129.99 37.33L129.98 37.32L129.94 37.28Q128.57 38.80 125.94 39.29L125.98 39.33L126.11 39.46Q124.57 39.79 121.56 40.01L121.41 39.87L121.46 39.91Q115.34 40.38 110.73 42.13ZM128.76 42.11L128.74 42.09L128.72 42.07Q131.31 41.58 132.94 40.09L132.97 40.12L133.12 40.27Q134.23 38.41 134.20 35.67L134.18 35.65L134.25 35.73Q134.16 34.27 134.01 30.76L134.12 30.88L133.64 26.21L133.64 26.21Q133.45 23.93 132.50 21.83L132.49 21.83L132.48 21.81Q132.15 21.06 131.46 20.42L131.33 20.28L131.31 20.11L131.42 20.22Q129.67 17.21 125.25 16.83L125.18 16.76L125.15 16.73Q122.58 16.70 115.57 15.98L115.52 15.93L115.59 16.00Q112.34 15.56 108.64 13.55L108.56 13.46L108.66 13.56Q113.40 20.85 113.40 29.61L113.35 29.56L113.30 29.51Q113.32 36.54 109.97 42.70L110.07 42.80L109.99 42.72Q110.65 42.43 111.98 41.93L111.98 41.93L112.08 42.03Q111.81 42.94 110.93 44.43L110.86 44.36L110.91 44.40Q113.83 43.21 117.18 42.72L117.18 42.71L117.26 42.80Q119.39 42.53 123.05 42.41L122.91 42.28L123.04 42.41Q126.86 42.23 128.69 42.04ZM128.68 28.37L128.79 28.48L128.79 28.48Q128.30 36.36 121.60 36.75L121.72 36.86L121.67 36.81Q119.73 36.93 117.68 37.20L117.61 37.13L117.68 37.20Q118.41 33.36 118.41 29.70L118.44 29.74L118.29 29.59Q118.38 25.98 117.65 22.14L117.60 22.09L117.51 22.00Q119.81 22.39 124.49 22.39L124.62 22.52L124.49 22.39Q125.86 22.23 127.49 23.18L127.57 23.26L127.50 23.19Q128.88 25.56 128.73 28.42Z"/></svg>