<svg xmlns="http://www.w3.org/2000/svg" width="150" height="50" viewBox="0,0,150,50"><path fill="#222" d="M124.57 30.85L124.70 30.97L124.65 30.92Q124.44 29.61 122.50 28.89L122.61 29.00L122.65 29.04Q122.03 28.72 121.50 28.72L121.46 28.69L121.47 28.69Q120.25 28.84 119.18 29.41L119.20 29.43L119.07 29.30Q117.64 29.97 117.76 31.19L117.82 31.25L117.89 31.32Q118.23 34.14 118.08 36.39L118.14 36.44L118.12 36.43Q117.95 38.85 117.23 41.36L117.10 41.23L117.15 41.28Q114.94 41.69 113.76 42.11L113.86 42.21L113.83 42.18Q115.44 38.58 115.44 34.58L115.47 34.61L115.41 34.55Q115.42 29.12 112.83 24.66L112.83 24.66L112.93 24.77Q114.17 25.28 116.57 26.00L116.53 25.96L116.56 26.00Q116.72 26.57 117.10 28.10L117.19 28.18L117.21 28.20Q118.47 26.03 122.35 26.11L122.34 26.10L122.29 26.05Q123.91 26.23 124.71 26.34L124.69 26.32L124.64 26.27Q127.68 26.72 127.76 28.74L127.73 28.71L127.68 28.66Q127.76 29.62 127.57 30.65L127.52 30.59L127.59 30.66Q127.10 33.14 127.29 36.15L127.29 36.15L127.20 36.06Q127.52 39.08 128.51 41.63L128.43 41.55L128.44 41.56Q126.66 41.08 124.95 40.93L125.02 41.00L124.94 40.92Q124.54 38.62 124.47 35.96L124.47 35.96L124.50 35.98Q124.47 33.30 124.70 30.98ZM124.69 41.39L124.71 41.42L124.69 41.39Q125.50 41.41 126.80 41.63L126.73 41.57L127.08 42.61L127.12 42.64Q127.29 43.12 127.52 43.65L127.43 43.57L127.57 43.71Q129.75 44.02 132.45 45.20L132.56 45.31L132.50 45.25Q130.22 42.21 129.54 38.40L129.39 38.25L129.44 38.30Q129.02 36.09 129.14 32.40L129.28 32.54L129.30 32.56Q129.19 32.15 129.23 31.35L129.29 31.41L129.30 31.42Q129.25 30.69 129.18 30.20L129.21 30.23L129.36 30.38Q129.24 28.70 128.13 28.20L128.13 28.19L128.08 28.15Q127.97 27.36 127.21 26.75L127.14 26.67L127.24 26.77Q125.41 25.63 122.36 25.70L122.40 25.74L122.38 25.72Q120.47 25.72 119.63 25.91L119.64 25.91L119.59 25.86Q118.20 26.26 117.24 27.17L117.35 27.28L117.36 27.29Q117.21 26.72 116.83 25.69L116.84 25.70L116.76 25.62Q114.04 25.03 112.21 24.04L112.22 24.05L112.18 24.01Q115.16 28.81 115.16 34.56L115.23 34.64L115.13 34.54Q115.19 38.98 113.29 42.82L113.29 42.82L113.26 42.79Q114.06 42.60 115.35 42.22L115.32 42.19L115.23 42.10Q114.73 43.35 114.20 44.34L114.29 44.44L114.27 44.41Q115.58 43.86 119.13 43.29L119.27 43.44L119.10 43.26Q120.10 38.14 119.99 33.31L120.03 33.35L120.16 33.47Q119.93 32.44 121.11 31.72L121.24 31.85L121.12 31.73Q122.23 31.17 123.33 31.05L123.27 30.99L123.38 31.10Q123.76 30.98 124.18 31.17L124.22 31.22L124.30 31.30Q124.12 33.82 124.16 36.37L124.05 36.27L124.05 36.26Q124.18 38.86 124.67 41.38Z"/><path fill="#222" d="M68.48 40.42L68.52 40.46L68.46 40.40Q64.35 40.59 63.36 38.27L63.34 38.25L63.35 38.25Q64.23 37.42 65.79 35.64L65.78 35.62L65.77 35.61Q66.22 37.59 69.23 37.70L69.27 37.74L69.19 37.67Q72.58 37.74 74.21 36.40L74.17 36.36L74.16 36.36Q75.62 34.81 75.55 32.10L75.59 32.15L75.63 32.18Q75.47 27.12 70.67 27.35L70.71 27.38L70.56 27.24Q67.88 27.52 66.13 28.78L66.14 28.79L65.72 28.52L65.57 28.44L65.59 28.47Q65.87 25.24 65.75 22.50L65.82 22.57L65.70 22.45Q65.60 19.84 65.26 16.53L65.34 16.60L65.29 16.56Q68.97 17.53 72.77 17.42L72.72 17.36L72.67 17.31Q76.61 17.36 80.18 16.11L80.12 16.04L79.60 17.61L79.53 17.55Q79.35 18.44 79.16 19.28L79.16 19.27L79.06 19.17Q75.88 20.14 71.99 20.14L72.14 20.28L72.16 20.30Q70.60 20.19 69.12 20.04L69.10 20.03L69.09 20.02Q69.14 20.83 68.80 25.28L68.74 25.22L68.67 25.15Q69.55 24.74 71.61 24.59L71.68 24.66L71.66 24.64Q75.28 24.76 76.73 26.43L76.70 26.40L76.81 26.51Q78.19 28.05 78.45 31.89L78.38 31.82L78.51 31.94Q78.74 36.09 77.52 38.11L77.37 37.96L77.45 38.05Q75.42 39.94 72.11 40.17L72.16 40.21L72.06 40.12Q71.09 40.21 68.43 40.37ZM74.41 42.57L74.55 42.72L74.56 42.73Q77.97 42.79 79.87 41.69L79.78 41.59L79.74 41.55Q80.80 40.10 80.80 38.00L80.72 37.93L80.81 38.02Q80.79 34.91 79.84 30.80L79.84 30.80L79.86 30.83Q79.43 29.02 78.21 27.61L78.29 27.69L78.28 27.72L78.11 27.47L77.81 27.33L77.78 27.29Q77.34 26.44 76.70 25.76L76.82 25.87L76.83 25.93L76.76 25.86Q75.23 24.18 71.54 24.18L71.57 24.21L71.39 24.29L71.21 24.11Q71.44 23.69 71.63 22.59L71.55 22.51L71.54 22.50Q76.55 22.64 80.58 21.00L80.66 21.08L80.61 21.02Q81.00 19.59 81.95 16.77L81.98 16.80L79.82 17.69L79.80 17.66Q80.27 16.61 80.77 15.47L80.70 15.40L80.64 15.35Q76.94 16.94 72.83 17.02L72.79 16.98L72.84 17.03Q68.60 17.01 64.64 15.90L64.75 16.01L64.76 16.02Q65.40 20.39 65.40 24.81L65.45 24.86L65.49 24.91Q65.33 26.65 65.22 28.55L65.23 28.56L65.29 28.63Q65.52 28.78 66.09 29.08L66.14 29.13L66.09 29.08Q66.49 28.91 67.14 28.57L67.17 28.60L67.07 28.51Q67.10 29.33 66.87 30.85L66.80 30.78L66.90 30.88Q67.20 30.95 67.62 31.18L67.77 31.34L67.73 31.30Q70.37 29.41 72.24 29.41L72.28 29.45L72.38 29.55Q73.72 29.55 74.90 30.20L74.79 30.09L74.85 30.15Q75.27 31.26 75.31 32.21L75.31 32.21L75.21 32.11Q75.39 34.80 74.36 35.91L74.25 35.80L74.32 35.86Q72.81 36.94 70.56 37.17L70.65 37.26L70.55 37.16Q69.75 37.39 69.07 37.31L69.00 37.24L69.06 37.31Q68.08 37.05 67.32 36.71L67.51 36.89L67.41 36.60L67.36 36.78L67.31 36.74Q66.43 36.16 65.90 34.83L66.00 34.93L65.84 34.77Q64.62 36.29 62.95 38.43L62.86 38.34L62.94 38.42Q63.28 39.10 64.11 40.05L64.07 40.00L64.03 39.97Q65.20 41.90 68.02 42.39L67.88 42.25L67.89 42.26Q69.15 42.57 74.52 42.69Z"/><path fill="#333" d="M32.42 23.09L32.33 23.00L32.42 23.08Q30.52 25.71 27.85 31.35L27.87 31.36L25.96 35.69L25.88 35.62Q24.99 37.50 23.66 39.75L23.68 39.77L23.81 39.90Q24.11 39.74 22.43 39.78L22.55 39.90L22.47 39.82Q22.54 39.89 21.29 39.89L21.25 39.86L21.29 39.90Q20.43 38.28 17.50 31.12L17.62 31.24L17.68 31.30Q15.42 25.84 13.32 22.83L13.25 22.76L13.32 22.82Q14.16 25.99 14.16 29.15L14.02 29.01L14.12 29.11Q14.17 35.67 11.20 41.23L11.02 41.04L11.13 41.15Q9.84 41.55 7.48 42.27L7.49 42.27L7.38 42.16Q11.04 36.46 11.04 29.22L11.05 29.24L11.08 29.27Q11.18 20.42 5.77 13.45L5.76 13.44L5.81 13.49Q7.32 14.09 9.68 14.77L9.71 14.81L9.75 14.84Q16.77 21.55 22.86 34.88L22.86 34.88L22.76 34.78Q26.27 27.78 28.48 24.28L28.64 24.44L28.63 24.44Q32.04 18.48 36.00 15.02L36.06 15.08L36.18 15.20Q37.30 14.83 39.66 14.07L39.66 14.07L39.79 14.20Q34.72 20.74 34.72 29.34L34.77 29.40L34.64 29.26Q34.72 36.00 38.14 41.52L38.19 41.57L38.06 41.44Q36.78 41.19 34.04 40.58L34.00 40.54L34.10 40.64Q31.68 35.78 31.68 29.80L31.76 29.89L31.81 29.93Q31.74 26.44 32.42 23.09ZM33.85 40.96L33.94 41.05L33.91 41.02Q34.59 41.13 36.04 41.40L35.95 41.31L36.04 41.40Q36.40 42.07 37.35 43.55L37.35 43.55L37.39 43.59Q39.52 44.01 42.99 45.23L42.96 45.20L42.95 45.19Q36.71 38.87 36.71 29.05L36.74 29.08L36.70 29.04Q36.68 21.29 41.06 15.16L41.19 15.29L38.90 15.89L38.99 15.99Q39.85 14.30 40.50 13.42L40.57 13.49L40.57 13.49Q38.80 14.24 36.18 14.77L36.17 14.76L36.14 14.74Q29.32 20.78 23.27 33.38L23.34 33.46L23.22 33.33Q17.99 22.32 13.05 17.07L13.12 17.14L13.14 17.17Q12.79 17.12 12.22 17.01L12.10 16.89L11.00 15.71L11.02 15.73Q10.35 14.98 9.66 14.37L9.67 14.38L9.72 14.43Q6.65 13.42 4.86 12.70L4.95 12.79L4.84 12.67Q10.90 19.95 10.90 29.36L10.84 29.30L10.83 29.28Q10.87 36.93 6.72 42.80L6.60 42.68L6.73 42.81Q7.39 42.55 8.68 42.14L8.61 42.07L8.70 42.15Q8.57 42.41 7.16 44.50L7.19 44.52L7.15 44.48Q9.02 44.08 12.53 43.32L12.36 43.15L12.38 43.16Q16.18 36.19 15.99 28.43L16.06 28.50L15.99 28.43Q17.54 32.45 21.00 40.33L21.04 40.37L20.87 40.20Q21.11 40.14 21.34 40.14L21.50 40.29L21.92 40.19L21.94 40.21Q22.41 40.90 23.21 42.20L23.12 42.11L23.23 42.22Q24.96 42.31 24.96 42.31L24.92 42.27L24.95 42.30Q25.93 42.25 26.57 42.33L26.55 42.30L26.55 42.30Q28.02 38.18 31.37 30.18L31.45 30.26L31.39 30.20Q31.32 35.69 33.91 41.02Z"/><path fill="#333" d="M105.15 41.59L105.16 41.60L105.10 41.54Q103.02 41.17 100.85 41.02L100.80 40.97L100.74 40.91Q99.48 39.65 96.81 35.81L96.80 35.79L96.82 35.81Q94.61 38.89 92.21 41.33L92.10 41.22L89.97 41.56L90.08 41.68Q88.99 41.84 88.00 42.11L88.07 42.18L88.07 42.18Q92.24 38.04 95.25 33.93L95.22 33.90L95.14 33.83Q91.99 29.76 86.58 24.97L86.47 24.85L86.46 24.85Q88.74 25.64 91.44 26.06L91.35 25.97L91.36 25.97Q94.98 29.25 96.88 31.95L96.86 31.93L96.72 31.79Q98.86 28.75 101.60 26.24L101.72 26.36L101.69 26.33Q104.79 26.04 106.62 25.55L106.43 25.36L106.54 25.47Q101.99 29.10 98.29 33.67L98.30 33.67L98.33 33.70Q101.61 38.28 105.08 41.52ZM107.88 24.61L107.92 24.65L108.06 24.78Q105.07 25.53 101.53 25.87L101.62 25.95L101.46 25.80Q98.55 28.44 96.83 30.92L96.88 30.96L97.00 31.08Q96.05 29.98 94.41 28.00L94.33 27.91L94.25 28.03L94.32 28.10Q94.16 28.05 94.04 28.05L93.96 27.97L93.98 27.99Q93.14 27.07 91.50 25.62L91.60 25.72L91.52 25.64Q87.90 25.06 85.05 23.85L85.13 23.94L85.15 23.95Q90.62 28.70 94.66 33.84L94.75 33.93L94.59 33.77Q91.40 38.58 86.98 42.88L86.84 42.73L87.01 42.90Q87.06 42.61 90.56 41.78L90.73 41.94L90.75 41.96Q89.19 43.25 87.55 44.59L87.49 44.53L87.55 44.59Q90.61 43.53 93.77 43.34L93.94 43.52L93.77 43.34Q96.30 41.23 98.20 38.49L98.06 38.34L98.15 38.44Q99.61 40.24 100.83 41.42L100.75 41.34L100.85 41.44Q100.98 41.46 101.06 41.53L100.87 41.35L101.23 41.51L101.10 41.39Q102.46 42.59 103.79 43.66L103.66 43.53L103.71 43.58Q107.39 44.21 110.28 45.24L110.12 45.08L110.31 45.27Q103.96 40.63 100.27 35.45L100.43 35.61L100.36 35.54Q103.92 30.43 108.49 26.35L108.57 26.44L108.60 26.46Q107.71 26.87 106.72 27.10L106.74 27.12L104.61 27.46L104.71 27.56Q105.87 26.63 108.04 24.76Z"/><path fill="#222" d="M49.56 39.82L49.61 39.88L47.70 39.91L47.72 39.93Q46.62 39.78 45.67 39.90L45.83 40.06L45.64 39.87Q46.39 33.83 46.39 29.84L46.23 29.68L46.22 29.67Q42.35 23.10 34.70 14.42L34.79 14.51L34.68 14.40Q36.45 15.37 39.80 16.17L39.79 16.16L39.79 16.16Q44.95 21.86 47.96 27.07L48.00 27.11L47.98 27.09Q50.84 21.39 55.22 16.36L55.29 16.44L55.30 16.44Q57.66 15.99 60.18 15.19L60.14 15.15L60.15 15.16Q54.12 21.28 49.25 29.69L49.20 29.64L49.24 29.68Q49.23 36.72 49.54 39.81ZM58.74 17.33L61.31 14.34L61.31 14.35Q58.27 15.57 55.15 16.02L55.23 16.11L55.12 15.99Q51.05 20.87 48.23 25.97L48.10 25.84L48.06 25.80Q45.93 22.15 42.73 18.27L42.89 18.42L42.82 18.36Q42.62 18.42 42.13 18.35L42.13 18.35L42.03 18.24Q41.36 17.47 39.84 15.79L39.92 15.87L39.78 15.74Q36.41 14.99 33.44 13.43L33.55 13.54L33.57 13.56Q41.28 22.03 46.04 29.95L45.91 29.82L46.04 29.95Q45.84 36.18 45.23 40.33L45.25 40.35L45.21 40.31Q45.92 40.26 47.37 40.15L47.44 40.22L47.37 41.18L47.48 41.29Q47.53 41.79 47.45 42.32L47.28 42.16L47.29 42.16Q50.99 42.32 52.74 42.51L52.71 42.48L52.76 42.53Q51.34 37.69 51.23 31.71L51.22 31.70L51.29 31.77Q55.75 23.41 62.30 16.06L62.17 15.93L58.75 17.34Z"/></svg>