<svg xmlns="http://www.w3.org/2000/svg" width="150" height="50" viewBox="0,0,150,50"><path fill="#222" d="M74.28 39.88L74.34 39.94L72.32 39.87L72.22 39.76Q71.36 39.85 70.41 39.97L70.31 39.87L70.32 39.88Q71.06 33.85 71.06 29.85L70.90 29.69L71.01 29.80Q66.93 23.01 59.27 14.33L59.34 14.39L59.26 14.32Q61.23 15.48 64.58 16.28L64.59 16.29L64.58 16.28Q69.47 21.71 72.48 26.92L72.56 27.01L72.62 27.07Q75.54 21.42 79.92 16.39L79.89 16.37L80.04 16.52Q82.30 15.95 84.81 15.16L84.90 15.25L84.92 15.27Q78.76 21.25 73.89 29.67L73.85 29.63L73.98 29.76Q73.95 36.77 74.26 39.86ZM83.38 17.31L86.12 14.49L86.09 14.46Q82.98 15.61 79.85 16.06L79.79 16.00L79.88 16.09Q75.54 20.69 72.72 25.79L72.85 25.93L72.79 25.87Q70.65 22.20 67.45 18.32L67.44 18.30L67.41 18.28Q67.23 18.36 66.74 18.29L66.80 18.35L66.80 18.35Q66.06 17.50 64.54 15.82L64.51 15.80L64.42 15.70Q61.16 15.07 58.19 13.51L58.09 13.41L58.16 13.48Q65.93 22.01 70.69 29.93L70.64 29.89L70.68 29.92Q70.48 36.15 69.87 40.30L69.88 40.31L69.99 40.42Q70.67 40.34 72.12 40.23L72.21 40.32L72.06 41.20L72.17 41.31Q72.07 41.66 71.99 42.20L72.01 42.22L72.12 42.33Q75.53 42.20 77.29 42.39L77.30 42.40L77.35 42.45Q76.12 37.80 76.01 31.82L76.01 31.83L76.05 31.87Q80.38 23.36 86.93 16.02L86.90 15.99L83.40 17.32Z"/><path fill="#444" d="M129.25 23.25L129.37 23.37L129.23 23.23Q127.61 19.24 121.40 19.43L121.38 19.41L121.34 19.37Q116.99 19.55 115.01 21.00L115.01 21.00L114.93 20.91Q112.58 22.71 112.58 26.83L112.68 26.92L112.52 28.64L112.55 28.67Q112.54 37.49 121.56 37.49L121.68 37.60L121.60 37.53Q123.62 37.49 125.11 36.69L125.19 36.77L125.11 36.70Q127.06 35.79 126.91 33.92L126.84 33.86L126.79 33.81Q126.59 31.70 122.90 30.79L123.00 30.89L120.93 30.76L120.92 30.75Q120.14 30.92 119.19 30.96L119.01 30.78L119.04 30.81Q119.09 29.91 119.05 28.01L119.15 28.10L119.10 28.05Q126.69 28.00 130.88 27.65L130.89 27.66L130.98 27.76Q130.85 28.50 130.85 29.30L130.93 29.38L130.81 29.26Q130.80 30.04 130.83 30.84L130.84 30.85L130.96 30.97Q129.79 30.91 129.79 30.91L129.88 31.00L129.73 30.85Q128.31 30.80 128.69 30.80L128.74 30.84L128.83 30.93Q129.94 32.58 130.32 34.56L130.33 34.57L130.18 34.42Q130.34 35.19 130.34 35.65L130.37 35.67L130.32 35.62Q130.35 40.30 121.56 40.30L121.62 40.36L121.48 40.22Q114.46 40.32 111.87 38.23L111.82 38.18L111.95 38.30Q109.97 35.94 109.97 30.88L109.80 30.71L109.87 30.78Q109.97 29.82 109.82 27.12L109.62 26.92L109.77 27.06Q109.66 24.75 109.70 23.37L109.60 23.28L109.54 23.21Q109.73 20.44 111.10 18.84L111.10 18.84L111.07 18.81Q113.56 16.69 118.43 16.50L118.60 16.66L121.09 16.42L121.12 16.44Q124.20 16.33 127.63 16.75L127.64 16.77L127.63 16.75Q131.51 17.36 132.46 20.59L132.45 20.58L132.50 20.63Q131.39 21.46 129.29 23.29ZM130.72 25.51L130.87 25.55L130.86 25.54Q132.00 24.40 133.87 22.42L133.88 22.44L133.94 22.49Q133.54 21.44 132.55 19.73L132.57 19.75L132.57 19.75Q131.45 17.15 127.65 16.50L127.56 16.41L127.60 16.45Q125.47 16.34 121.17 16.04L121.14 16.01L118.45 16.13L118.43 16.11Q113.32 16.38 110.73 18.36L110.64 18.26L110.75 18.38Q109.26 19.89 109.14 22.97L109.28 23.10L109.24 23.07Q109.24 22.62 109.47 28.10L109.46 28.08L109.45 28.08Q109.52 29.48 109.60 32.22L109.65 32.27L109.57 32.19Q109.71 36.60 111.46 38.54L111.58 38.66L111.52 38.60Q111.96 39.50 112.84 40.37L112.76 40.29L112.87 40.40Q115.69 42.20 121.21 42.54L121.10 42.43L124.07 42.69L124.13 42.76Q125.66 42.80 127.67 42.68L127.74 42.75L127.68 42.69Q129.23 42.72 131.32 42.18L131.22 42.08L131.20 42.06Q133.19 41.61 133.15 39.29L133.18 39.31L133.15 39.29Q133.21 38.10 132.15 35.32L132.04 35.21L132.03 35.20Q131.69 34.25 131.15 33.45L131.31 33.60L131.27 33.57Q131.92 33.65 133.10 33.84L133.12 33.86L132.99 33.73Q132.62 30.04 132.66 29.36L132.76 29.46L132.70 29.40Q132.30 29.37 131.88 29.34L131.95 29.41L132.04 29.50Q131.49 29.29 131.11 29.37L131.22 29.48L131.11 29.37Q131.22 28.38 131.30 27.31L131.36 27.38L131.24 27.25Q125.06 27.85 118.78 27.73L118.68 27.64L118.79 27.74Q118.68 28.51 118.68 29.42L118.83 29.57L118.75 31.25L118.75 31.24Q119.25 31.37 119.67 31.33L119.57 31.23L119.60 31.26Q119.99 31.23 120.44 31.23L120.44 31.22L120.33 31.11Q120.45 31.69 120.49 32.18L120.41 32.11L120.38 32.07Q120.53 32.69 120.50 33.18L120.48 33.17L120.39 33.08Q121.42 33.04 122.45 33.01L122.49 33.05L122.49 33.05Q123.56 33.09 124.59 33.13L124.53 33.07L124.65 33.19Q125.56 33.30 126.43 33.68L126.41 33.65L126.39 33.67L126.56 33.85Q126.62 35.27 124.95 36.19L124.97 36.21L124.97 36.21Q123.29 37.12 121.57 37.12L121.52 37.06L121.67 37.21Q117.80 37.19 115.37 35.44L115.36 35.43L115.42 35.49Q114.42 33.43 114.58 30.88L114.55 30.86L114.52 30.82Q114.77 25.97 116.61 23.97L116.63 23.99L116.65 24.01Q118.61 22.12 123.29 21.82L123.28 21.80L123.14 21.67Q126.81 21.46 128.76 23.25L128.89 23.38L128.90 23.39Q128.83 23.35 128.94 23.54L128.91 23.51L129.15 23.64L129.20 23.69Q129.78 24.38 130.35 25.49L130.41 25.55L130.72 25.52Z"/><path fill="#111" d="M13.66 39.05L13.60 38.98L13.68 39.06Q15.41 36.53 20.17 29.26L20.19 29.28L20.19 29.28Q24.26 23.11 27.11 19.83L27.03 19.75L27.11 19.83Q25.06 20.18 22.97 20.18L22.87 20.09L22.85 20.06Q17.63 20.09 13.63 18.31L13.63 18.30L13.74 18.41Q12.97 16.38 12.28 14.82L12.32 14.86L12.24 14.79Q16.92 17.06 22.59 17.17L22.49 17.07L22.48 17.07Q27.63 17.15 32.80 15.24L32.93 15.37L32.83 15.27Q32.47 16.13 32.16 16.93L32.15 16.92L31.52 18.45L31.55 18.49Q28.52 22.15 24.52 27.98L24.51 27.96L21.15 32.75L21.20 32.80Q19.51 35.22 17.68 37.50L17.79 37.62L17.65 37.47Q20.91 36.82 24.23 36.89L24.23 36.90L24.26 36.93Q27.68 37.12 30.84 38.03L30.76 37.94L31.26 39.55L31.27 39.56Q31.58 40.45 31.93 41.28L31.82 41.18L32.00 41.35Q27.14 39.58 22.00 39.77L22.04 39.81L22.04 39.81Q16.94 40.04 12.45 42.06L12.53 42.13L12.50 42.11Q12.79 40.95 13.51 38.90ZM11.92 42.82L11.96 42.86L11.94 42.84Q13.05 42.12 13.85 41.86L13.83 41.84L13.93 41.94Q13.58 42.61 12.89 44.14L12.98 44.22L12.93 44.18Q18.58 41.98 24.56 42.21L24.66 42.32L24.71 42.36Q30.98 42.54 36.00 45.32L36.03 45.35L35.96 45.28Q34.61 42.94 33.81 40.77L33.77 40.73L33.68 40.63Q33.24 40.47 31.72 39.90L31.74 39.91L31.82 39.99Q31.60 39.21 31.18 37.72L31.21 37.75L31.13 37.67Q26.93 36.44 21.83 36.63L21.91 36.71L21.87 36.67Q23.94 33.86 27.48 28.31L27.54 28.36L27.50 28.33Q31.25 22.72 33.16 20.17L33.21 20.22L33.15 20.16Q33.55 18.66 34.58 15.96L34.55 15.93L34.66 16.03Q33.90 16.30 32.45 16.91L32.41 16.87L32.56 17.02Q32.77 16.09 33.49 14.56L33.49 14.56L33.66 14.73Q28.19 16.72 22.48 16.65L22.52 16.68L22.45 16.61Q16.51 16.54 11.56 14.03L11.66 14.12L11.66 14.13Q12.83 16.51 13.55 18.76L13.38 18.59L13.40 18.60Q14.59 19.22 15.39 19.45L15.47 19.53L15.36 19.42Q15.60 20.09 15.87 21.53L15.94 21.61L15.90 21.57Q19.57 22.56 24.44 22.37L24.45 22.38L24.54 22.47Q22.13 25.66 18.82 30.65L18.75 30.58L13.22 38.90L13.33 39.02Q12.91 40.24 11.89 42.79Z"/><path fill="#222" d="M95.95 41.20L95.81 41.07L94.27 41.24L94.25 41.22Q90.82 41.18 89.87 39.04L89.74 38.91L89.91 39.08Q91.10 38.06 92.54 36.96L92.49 36.90L92.46 36.88Q92.96 38.98 95.82 38.83L95.93 38.94L95.80 38.81Q96.62 38.79 97.65 38.56L97.70 38.61L97.76 38.67Q98.58 38.05 98.51 37.10L98.54 37.13L98.57 37.17Q98.48 36.04 96.69 35.36L96.65 35.32L92.98 33.93L92.79 33.74Q90.63 32.57 90.29 29.03L90.23 28.98L90.26 29.00Q90.06 26.87 92.23 26.30L92.18 26.24L92.22 26.29Q93.05 25.93 96.02 25.93L96.21 26.12L96.04 25.95Q101.04 26.07 101.95 28.59L101.84 28.48L101.83 28.47Q101.21 29.03 100.49 29.49L100.60 29.60L99.10 30.46L99.05 30.41Q98.67 28.62 95.44 28.39L95.31 28.27L95.35 28.30Q94.79 28.35 93.76 28.77L93.78 28.80L93.79 28.80Q93.13 29.05 93.13 30.16L93.20 30.23L93.22 30.25Q93.53 31.28 95.36 31.97L95.37 31.99L95.33 31.94Q96.50 32.42 99.16 33.53L99.05 33.42L99.08 33.45Q100.94 34.32 101.13 36.87L101.05 36.79L101.23 36.97Q101.26 37.56 101.18 38.55L101.20 38.57L101.09 38.46Q101.15 39.43 100.57 40.08L100.57 40.08L100.52 40.03Q98.85 41.06 95.81 41.06ZM100.72 43.80L100.66 43.74L100.74 43.82Q101.55 43.76 102.92 43.45L102.85 43.38L102.89 43.42Q104.00 42.79 103.81 41.57L103.85 41.60L103.88 41.64Q103.78 41.04 103.48 39.44L103.39 39.35L103.44 39.41Q102.81 36.38 101.02 35.16L101.05 35.19L101.13 35.27Q100.50 33.77 99.25 33.04L99.24 33.04L99.34 33.13Q97.99 32.63 95.52 31.68L95.58 31.74L95.62 31.77Q95.83 31.37 96.09 31.26L95.91 31.07L95.93 31.10Q96.55 30.65 97.20 30.62L97.33 30.74L97.34 30.76Q98.15 30.73 98.91 30.99L98.74 30.82L98.81 30.97L98.83 30.88L99.27 31.12L99.25 31.14L99.14 31.03Q100.21 31.49 100.40 32.75L100.39 32.73L100.37 32.72Q101.72 31.98 103.62 30.30L103.52 30.19L103.60 30.28Q103.42 29.64 102.43 28.46L102.36 28.39L102.29 28.32Q101.13 25.60 96.03 25.49L96.12 25.58L96.12 25.57Q92.87 25.44 90.89 26.01L90.93 26.06L90.96 26.09Q89.65 26.76 89.88 28.85L89.85 28.82L89.74 28.71Q89.96 30.07 90.87 32.17L90.90 32.20L90.76 32.06Q91.41 33.27 92.44 34.00L92.32 33.89L92.37 33.93Q93.17 35.53 94.46 36.21L94.33 36.08L94.42 36.17Q95.27 36.33 96.22 36.71L96.33 36.83L98.17 37.52L98.15 37.51Q97.91 38.71 95.97 38.59L95.81 38.44L95.98 38.61Q95.46 38.58 94.24 38.28L94.18 38.22L94.13 38.01L94.01 38.12L94.04 38.15Q93.31 37.92 92.67 36.43L92.57 36.34L92.56 36.33Q90.43 37.89 89.33 39.04L89.32 39.02L89.35 39.05Q89.67 39.99 90.70 40.79L90.68 40.77L90.55 40.94L90.47 40.86Q91.97 43.05 96.20 43.43L96.15 43.39L96.07 43.31Q97.46 43.55 100.70 43.78Z"/><path fill="#111" d="M54.40 37.96L54.43 38.00L54.40 37.97Q54.71 38.96 55.24 40.98L55.18 40.91L55.19 40.93Q50.90 39.53 46.29 39.79L46.38 39.88L46.44 39.94Q41.70 40.04 37.71 42.02L37.69 42.01L37.82 42.13Q37.96 41.36 38.00 41.44L37.97 41.41L37.99 41.43Q41.69 37.44 45.61 33.02L45.63 33.04L45.74 33.15Q50.18 28.18 51.36 23.50L51.21 23.36L51.24 23.39Q51.83 21.77 50.55 20.59L50.52 20.55L50.53 20.56Q49.26 19.39 47.47 19.54L47.37 19.44L47.47 19.54Q47.01 19.38 46.66 19.38L46.63 19.35L46.65 19.37Q45.26 19.50 44.00 20.41L43.85 20.26L43.97 20.38Q42.65 21.72 42.88 24.39L42.95 24.46L42.84 24.35Q41.04 24.00 39.82 23.54L39.90 23.62L39.85 23.57Q39.70 22.20 39.62 20.75L39.66 20.79L39.64 20.77Q39.47 19.04 40.08 17.89L40.07 17.89L40.15 17.97Q41.84 16.50 45.19 16.50L45.36 16.67L46.94 16.50L46.96 16.52Q49.24 16.55 50.19 16.66L50.25 16.72L50.22 16.69Q54.54 17.10 54.81 19.53L54.82 19.55L54.92 19.64Q54.91 20.12 54.83 20.92L54.80 20.89L54.93 21.02Q54.84 21.62 54.69 22.31L54.72 22.33L54.76 22.37Q53.00 30.36 45.42 37.21L45.46 37.25L45.51 37.30Q46.88 37.11 48.25 37.11L48.22 37.08L48.15 37.01Q51.54 37.16 54.40 37.96ZM53.67 16.98L53.85 17.16L53.76 17.08Q52.17 16.43 50.46 16.36L50.45 16.35L47.03 16.17L46.95 16.09Q42.56 15.88 40.35 16.98L40.41 17.05L40.36 16.99Q39.22 18.29 39.22 20.34L39.26 20.39L39.21 20.34Q39.28 21.09 39.58 23.91L39.71 24.04L39.59 23.92Q40.13 24.16 41.31 24.46L41.28 24.43L41.43 25.60L41.28 25.45Q41.41 26.08 41.48 26.61L41.32 26.45L41.45 26.58Q42.67 26.65 45.14 26.88L45.22 26.96L45.04 26.78Q45.09 26.49 45.09 26.14L45.17 26.23L45.03 26.08Q45.15 24.38 46.37 23.02L46.27 22.93L46.22 22.88Q47.45 21.53 49.24 21.65L49.33 21.74L49.39 21.81Q50.13 21.82 50.89 21.97L50.80 21.88L50.77 21.84Q50.87 22.22 50.95 22.64L51.03 22.72L50.96 22.65Q51.03 23.10 50.95 23.44L50.96 23.45L51.03 23.51Q49.67 28.17 45.25 33.01L45.36 33.11L45.24 33.00Q43.15 35.28 37.71 41.34L37.72 41.35L37.83 41.46Q37.45 42.11 37.11 42.68L37.12 42.69L37.15 42.72Q38.79 41.88 40.31 41.35L40.30 41.34L40.42 41.46Q39.63 41.97 38.68 43.45L38.72 43.49L38.65 43.42Q38.49 43.72 38.38 44.06L38.51 44.20L38.52 44.20Q43.40 42.15 48.88 42.34L48.71 42.18L48.80 42.26Q54.53 42.47 59.10 44.83L59.02 44.76L58.04 42.63L58.04 42.63Q57.34 41.25 57.07 40.45L57.17 40.55L57.05 40.43Q56.32 40.00 55.10 39.58L55.18 39.66L55.19 39.67Q54.97 38.88 54.59 37.51L54.61 37.53L54.69 37.61Q52.44 36.99 50.15 36.80L50.20 36.85L50.20 36.85Q54.75 32.15 56.27 23.89L56.30 23.91L56.50 21.03L56.48 21.01Q56.45 19.27 55.23 18.58L55.22 18.57L55.29 18.68L55.13 18.52Q55.14 18.49 55.07 18.49L55.17 18.59L55.05 18.48Q54.87 17.69 53.76 17.08Z"/></svg>