<svg xmlns="http://www.w3.org/2000/svg" width="150" height="50" viewBox="0,0,150,50"><path fill="#333" d="M118.32 26.80L118.28 26.77L118.34 26.82Q120.22 27.06 122.05 27.06L122.03 27.05L121.93 26.94Q123.81 27.04 125.64 26.88L125.56 26.81L125.56 26.81Q125.42 27.43 125.42 28.16L125.51 28.25L125.52 29.58L125.54 29.60Q123.03 29.45 118.27 29.57L118.27 29.56L118.41 29.71Q118.28 35.51 117.13 40.50L117.17 40.54L117.20 40.57Q115.07 41.33 113.59 42.13L113.56 42.10L113.57 42.12Q115.89 35.30 115.62 28.18L115.59 28.15L115.49 28.04Q115.32 20.98 112.65 14.32L112.68 14.35L112.59 14.25Q116.25 16.78 121.01 17.01L121.10 17.09L121.02 17.01Q125.70 17.20 129.85 15.45L129.90 15.50L129.83 15.43Q129.67 16.38 129.45 17.18L129.46 17.20L128.94 18.77L128.89 18.72Q126.21 19.85 123.24 20.00L123.17 19.93L123.19 19.94Q120.23 20.07 117.37 19.34L117.35 19.32L117.34 19.31Q118.16 22.84 118.35 26.83ZM130.54 14.81L130.58 14.85L130.62 14.89Q125.90 16.91 121.03 16.61L121.05 16.62L120.97 16.54Q115.76 16.36 112.03 13.50L111.89 13.37L111.95 13.42Q114.94 20.49 115.24 28.10L115.23 28.09L115.22 28.08Q115.59 36.06 113.08 42.84L112.94 42.70L113.10 42.86Q113.57 42.27 114.94 41.62L115.01 41.68L114.96 41.64Q114.90 42.53 114.33 44.06L114.25 43.97L114.30 44.02Q116.64 42.97 119.53 42.48L119.57 42.52L119.47 42.41Q120.19 37.65 120.38 31.94L120.22 31.78L120.39 31.95Q122.09 31.83 123.92 31.83L123.98 31.89L123.84 31.75Q125.67 31.79 127.50 31.98L127.61 32.10L127.46 31.94Q127.48 31.13 127.48 30.21L127.48 30.21L127.49 28.32L127.40 28.23Q126.58 28.29 125.74 28.29L125.76 28.30L125.88 28.42Q125.90 27.57 125.97 26.54L125.92 26.48L125.94 26.51Q124.47 26.60 123.06 26.60L123.14 26.67L123.14 26.67Q121.64 26.58 120.26 26.54L120.27 26.54L120.33 24.48L120.23 24.38Q120.25 23.33 120.14 22.26L120.01 22.13L120.16 22.28Q121.18 22.39 122.17 22.39L122.00 22.22L122.15 22.37Q126.75 22.21 130.36 20.30L130.39 20.33L130.41 20.35Q130.86 18.48 131.77 15.85L131.88 15.96L131.82 15.90Q130.56 16.77 129.76 17.11L129.72 17.07L129.76 17.11Q129.97 16.29 130.46 14.73Z"/><path fill="#444" d="M20.65 39.88L20.70 39.93L20.62 39.86Q16.57 39.42 14.74 37.97L14.61 37.84L14.60 37.83Q12.76 36.37 12.34 33.36L12.37 33.39L12.45 33.47Q12.47 33.15 12.13 28.39L12.00 28.27L11.99 28.26Q12.09 27.14 12.01 25.88L12.11 25.97L11.99 25.86Q11.93 20.93 14.14 19.18L13.98 19.02L14.06 19.09Q16.77 17.04 24.53 16.36L24.47 16.30L24.41 16.24Q25.86 16.20 27.49 16.24L27.55 16.29L27.40 16.14Q27.56 16.30 30.53 16.30L30.42 16.19L30.49 16.26Q31.21 16.14 32.92 16.29L32.97 16.34L33.01 16.38Q32.49 17.31 31.47 20.40L31.49 20.42L31.52 20.45Q29.43 19.23 26.42 19.23L26.40 19.21L26.30 19.12Q25.57 19.15 24.77 19.22L24.88 19.34L24.81 19.26Q19.74 19.75 17.23 21.73L17.09 21.59L17.11 21.61Q15.11 23.23 14.96 26.58L15.09 26.71L15.07 26.69Q15.07 27.33 15.10 28.59L14.99 28.47L15.07 28.55Q15.13 33.33 17.53 35.43L17.49 35.39L17.48 35.38Q19.65 37.32 24.64 37.63L24.68 37.67L24.68 37.67Q27.85 37.88 30.86 36.09L30.87 36.10L30.77 35.99Q31.45 38.81 32.06 40.18L31.94 40.05L31.97 40.08Q29.88 40.35 28.24 40.32L28.28 40.36L28.32 40.39Q23.85 40.34 20.73 39.96ZM35.71 43.57L35.85 43.70L35.84 43.70Q34.05 40.68 33.36 38.09L33.41 38.14L33.29 38.02Q32.96 38.38 31.97 38.76L31.91 38.70L31.89 38.67Q31.48 37.81 31.29 36.97L31.48 37.16L30.94 35.29L30.99 35.34Q27.75 37.43 24.63 37.31L24.53 37.21L24.55 37.24Q20.26 37.02 17.94 35.27L18.04 35.37L18.07 35.40Q16.86 33.50 16.93 30.57L16.88 30.52L17.01 30.65Q17.06 26.06 19.54 23.93L19.53 23.92L19.53 23.92Q21.63 21.98 26.31 21.37L26.39 21.45L26.43 21.49Q27.14 21.29 27.87 21.29L27.92 21.35L27.98 21.40Q30.62 21.27 32.72 22.79L32.86 22.93L32.74 22.81Q33.31 20.76 34.53 17.52L34.55 17.55L34.41 17.40Q34.21 17.47 33.66 17.41L33.76 17.51L33.66 17.41Q33.07 17.32 32.80 17.32L32.92 17.43L32.87 17.39Q33.03 16.82 33.48 15.83L33.60 15.94L33.54 15.89Q33.33 15.91 30.84 15.83L30.88 15.87L30.88 15.88Q28.37 15.78 27.72 15.82L27.65 15.75L27.70 15.79Q17.07 16.02 13.61 18.61L13.66 18.66L13.72 18.71Q11.58 20.42 11.58 24.34L11.71 24.48L11.63 24.40Q11.66 25.53 11.78 28.23L11.73 28.18L11.88 28.33Q11.89 31.77 12.12 33.48L12.06 33.43L12.05 33.42Q12.56 36.67 14.16 38.19L14.01 38.04L14.17 38.20Q14.52 38.74 15.78 39.89L15.92 40.02L15.82 39.93Q19.06 41.69 24.32 42.45L24.48 42.61L24.28 42.41Q30.86 43.51 35.85 43.70Z"/><path fill="#444" d="M87.61 14.27L87.66 14.31L87.66 14.32Q91.53 16.93 96.29 17.16L96.14 17.01L96.26 17.13Q100.86 17.28 105.12 15.52L105.03 15.43L105.17 15.57Q104.87 16.07 104.11 18.85L104.08 18.82L104.19 18.93Q101.30 19.81 98.33 19.96L98.43 20.06L98.48 20.11Q95.48 20.23 92.59 19.51L92.56 19.49L92.53 19.45Q93.27 23.13 93.46 26.78L93.38 26.69L93.46 26.78Q95.48 27.01 97.08 26.98L96.95 26.85L96.97 26.86Q98.33 27.00 100.73 26.89L100.54 26.70L100.55 26.71Q100.66 27.50 100.66 28.19L100.49 28.02L100.55 29.41L100.62 29.48Q98.11 29.37 93.31 29.45L93.32 29.46L93.35 29.48Q93.43 33.68 92.86 37.67L92.91 37.73L92.73 37.55Q95.47 37.01 98.21 37.13L98.18 37.09L98.11 37.02Q100.87 37.16 103.46 38.00L103.50 38.03L103.44 37.98Q103.64 38.90 103.90 39.66L103.89 39.64L104.32 41.14L104.20 41.02Q101.11 39.84 97.69 39.84L97.60 39.75L97.71 39.86Q92.77 39.80 88.51 42.04L88.45 41.99L88.49 42.02Q90.89 35.28 90.62 28.16L90.48 28.03L90.65 28.19Q90.33 20.98 87.66 14.32ZM88.12 42.87L88.09 42.84L88.02 42.77Q89.37 42.15 90.14 41.80L90.00 41.67L90.13 41.80Q89.84 42.46 89.27 43.99L89.21 43.93L89.24 43.95Q93.87 42.08 98.94 42.34L98.88 42.28L98.91 42.32Q104.01 42.54 108.01 45.25L108.07 45.31L108.01 45.25Q106.84 42.71 106.16 40.77L106.28 40.89L106.18 40.80Q105.29 40.28 104.30 39.94L104.21 39.85L104.17 39.81Q103.74 38.39 103.59 37.59L103.59 37.60L103.65 37.66Q100.63 36.73 97.48 36.73L97.44 36.69L97.47 36.73Q96.29 36.69 95.15 36.80L95.10 36.76L95.16 36.81Q95.28 35.57 95.32 34.35L95.37 34.40L95.42 31.86L95.37 31.81Q97.18 31.72 98.97 31.76L98.90 31.69L98.98 31.76Q100.78 31.77 102.56 31.92L102.58 31.94L102.53 31.89Q102.46 30.95 102.46 29.99L102.54 30.08L102.54 28.17L101.70 28.21L101.73 28.23Q101.23 28.23 100.78 28.23L100.89 28.35L100.80 28.26Q100.95 27.72 101.10 26.43L100.99 26.32L101.03 26.36Q99.36 26.51 98.18 26.55L98.23 26.60L98.13 26.50Q97.30 26.62 95.47 26.54L95.49 26.56L95.36 26.43Q95.31 25.05 95.12 22.24L95.22 22.33L95.20 22.32Q96.30 22.50 97.29 22.50L97.14 22.35L97.26 22.47Q101.99 22.48 105.68 20.58L105.68 20.57L105.64 20.53Q106.28 18.25 107.16 16.04L107.10 15.98L107.13 16.01Q105.73 16.78 104.89 17.12L104.91 17.14L104.85 17.07Q105.26 16.42 105.71 14.86L105.68 14.82L105.69 14.83Q101.02 16.94 96.14 16.63L96.19 16.68L96.18 16.67Q90.84 16.32 87.00 13.47L86.98 13.44L87.06 13.53Q89.94 20.48 90.25 28.10L90.21 28.06L90.21 28.06Q90.54 36.00 88.02 42.77Z"/><path fill="#333" d="M46.63 41.22L46.59 41.17L44.85 41.15L44.94 41.24Q41.36 41.05 40.41 38.92L40.41 38.92L40.42 38.93Q41.74 38.04 43.19 36.94L43.19 36.94L43.08 36.83Q43.72 39.07 46.58 38.92L46.64 38.98L46.56 38.90Q47.41 38.92 48.44 38.69L48.37 38.62L48.44 38.68Q49.20 38.00 49.13 37.05L49.26 37.18L49.19 37.12Q49.06 35.95 47.27 35.27L47.34 35.34L43.46 33.74L43.55 33.84Q41.15 32.42 40.81 28.88L40.82 28.90L40.96 29.04Q40.78 26.92 42.95 26.35L42.83 26.23L42.92 26.31Q43.73 25.95 46.70 25.95L46.71 25.95L46.85 26.10Q51.74 26.12 52.66 28.63L52.50 28.47L52.55 28.52Q51.97 29.12 51.24 29.57L51.17 29.50L49.88 30.57L49.84 30.53Q49.31 28.59 46.07 28.36L46.02 28.31L45.99 28.28Q45.52 28.42 44.49 28.84L44.48 28.82L44.43 28.78Q43.99 29.25 43.99 30.35L43.89 30.26L43.86 30.22Q44.20 31.28 46.02 31.97L46.06 32.00L46.15 32.09Q47.07 32.33 49.74 33.44L49.79 33.49L49.85 33.55Q51.71 34.42 51.90 36.97L51.90 36.97L51.76 36.83Q51.86 37.50 51.79 38.49L51.84 38.55L51.74 38.44Q51.84 39.46 51.27 40.11L51.23 40.07L51.29 40.13Q49.56 41.10 46.52 41.10ZM51.23 43.64L51.22 43.64L51.31 43.73Q52.21 43.75 53.58 43.45L53.53 43.39L53.53 43.40Q54.66 42.78 54.47 41.56L54.39 41.48L54.55 41.64Q54.31 40.90 54.00 39.30L54.16 39.45L54.07 39.36Q53.49 36.39 51.70 35.17L51.87 35.34L51.68 35.15Q51.24 33.84 49.98 33.11L50.00 33.12L49.97 33.10Q48.79 32.76 46.32 31.81L46.31 31.79L46.29 31.78Q46.50 31.38 46.77 31.27L46.76 31.26L46.69 31.19Q47.29 30.72 47.94 30.68L47.97 30.72L47.97 30.72Q48.71 30.62 49.47 30.89L49.42 30.83L49.61 31.10L49.61 30.98L49.89 31.08L49.74 30.97L49.82 31.05Q50.87 31.48 51.06 32.74L51.16 32.84L51.04 32.72Q52.31 31.90 54.22 30.23L54.36 30.37L54.28 30.29Q54.06 29.61 53.07 28.43L53.01 28.37L53.10 28.46Q51.96 25.76 46.86 25.65L46.87 25.66L46.80 25.59Q43.65 25.56 41.67 26.13L41.62 26.08L41.66 26.12Q40.17 26.61 40.40 28.70L40.40 28.70L40.55 28.86Q40.58 30.03 41.49 32.12L41.40 32.03L41.43 32.06Q42.09 33.29 43.12 34.01L42.98 33.87L42.96 33.85Q43.73 35.43 45.03 36.11L45.10 36.19L44.97 36.06Q46.02 36.42 46.97 36.80L46.95 36.77L48.78 37.46L48.82 37.51Q48.51 38.65 46.57 38.53L46.59 38.56L46.53 38.49Q46.20 38.65 44.98 38.35L44.90 38.27L44.79 38.01L44.71 38.16L44.80 38.25Q43.89 37.83 43.24 36.34L43.16 36.27L43.34 36.44Q41.20 38.00 40.10 39.14L39.99 39.03L39.95 38.99Q40.28 39.93 41.31 40.73L41.22 40.65L41.17 40.89L41.14 40.86Q42.57 42.98 46.80 43.36L46.91 43.48L46.86 43.43Q48.07 43.50 51.31 43.73Z"/><path fill="#333" d="M72.06 30.49L72.04 30.47L72.03 30.46Q68.57 36.81 65.14 40.77L65.15 40.78L65.15 40.78Q63.31 41.22 60.87 42.10L60.71 41.93L60.78 42.01Q65.69 36.41 70.45 28.00L70.46 28.01L70.50 28.05Q65.92 21.11 59.94 14.71L59.89 14.66L59.88 14.65Q62.78 15.83 65.06 16.33L65.10 16.36L65.04 16.31Q69.64 21.48 72.08 25.44L72.12 25.49L72.11 25.47Q74.67 21.10 78.59 16.68L78.65 16.74L78.56 16.66Q80.21 16.40 83.41 15.64L83.38 15.61L83.32 15.55Q77.21 21.97 73.75 27.91L73.93 28.09L73.75 27.91Q78.93 36.59 83.31 41.16L83.37 41.22L83.37 41.22Q80.90 40.54 78.80 40.31L78.68 40.19L78.67 40.18Q75.98 37.29 72.06 30.48ZM78.59 40.52L78.68 40.61L78.70 40.63Q78.90 40.56 79.35 40.67L79.34 40.66L79.44 40.76Q80.12 41.40 81.64 43.00L81.63 42.98L81.72 43.08Q85.07 43.87 88.12 45.25L88.22 45.35L88.08 45.21Q80.98 38.65 75.88 29.89L75.86 29.87L75.83 29.83Q79.70 23.31 85.60 16.46L85.46 16.32L85.52 16.38Q84.13 17.09 81.96 17.62L81.96 17.62L81.84 17.50Q82.88 16.75 84.63 14.96L84.53 14.86L84.46 14.79Q82.10 15.70 78.40 16.27L78.37 16.24L78.36 16.23Q75.12 20.22 72.53 24.52L72.37 24.36L72.44 24.43Q71.63 22.93 70.45 21.45L70.41 21.41L68.04 18.39L67.65 18.39L67.61 18.34Q67.50 18.39 67.27 18.31L67.35 18.39L67.39 18.43Q66.54 17.43 65.06 15.87L65.22 16.03L65.22 16.02Q61.40 15.14 58.81 13.77L58.80 13.76L58.78 13.74Q65.43 20.92 70.00 27.96L69.98 27.94L70.02 27.99Q65.61 36.25 59.86 42.84L59.84 42.82L59.79 42.77Q61.15 42.15 63.29 41.58L63.30 41.60L61.89 42.93L61.93 42.97Q62.04 43.08 60.71 44.41L60.66 44.36L60.67 44.37Q63.71 43.34 66.87 42.85L66.74 42.71L66.89 42.86Q70.71 38.16 73.30 33.40L73.41 33.51L73.48 33.58Q76.01 37.78 78.71 40.64Z"/></svg>