<svg xmlns="http://www.w3.org/2000/svg" width="150" height="50" viewBox="0,0,150,50"><path fill="#111" d="M13.59 38.97L13.66 39.04L13.62 39.00Q15.33 36.45 20.09 29.18L20.24 29.33L20.16 29.25Q24.26 23.11 27.12 19.84L27.04 19.76L27.09 19.81Q25.07 20.19 22.98 20.19L22.89 20.11L22.88 20.09Q17.67 20.13 13.67 18.34L13.59 18.27L13.69 18.36Q12.95 16.36 12.26 14.80L12.20 14.74L12.29 14.83Q16.85 16.99 22.52 17.11L22.54 17.13L22.60 17.18Q27.63 17.15 32.81 15.25L32.75 15.19L32.81 15.25Q32.45 16.11 32.15 16.91L32.22 16.98L31.69 18.62L31.54 18.47Q28.58 22.22 24.59 28.04L24.52 27.97L21.24 32.84L21.22 32.82Q19.58 35.29 17.75 37.58L17.66 37.48L17.78 37.60Q21.10 37.01 24.41 37.08L24.35 37.02L24.33 37.00Q27.63 37.07 30.79 37.98L30.74 37.92L31.34 39.63L31.30 39.59Q31.52 40.38 31.87 41.22L31.94 41.29L31.95 41.31Q27.26 39.70 22.12 39.89L21.99 39.76L22.08 39.85Q16.88 39.98 12.39 42.00L12.41 42.02L12.55 42.16Q12.87 41.04 13.60 38.98ZM11.79 42.69L11.81 42.72L11.84 42.74Q13.13 42.21 13.93 41.94L13.82 41.83L13.96 41.97Q13.54 42.58 12.86 44.10L12.94 44.18L12.86 44.10Q18.71 42.12 24.69 42.35L24.62 42.27L24.56 42.22Q30.99 42.55 36.02 45.33L35.90 45.21L35.91 45.23Q34.64 42.97 33.84 40.80L33.73 40.69L33.83 40.79Q33.27 40.49 31.74 39.92L31.82 40.00L31.72 39.90Q31.49 39.10 31.08 37.61L31.21 37.75L31.13 37.67Q27.06 36.57 21.96 36.76L21.86 36.66L21.95 36.75Q24.01 33.94 27.55 28.38L27.51 28.33L27.48 28.31Q31.15 22.61 33.05 20.06L33.05 20.06L33.04 20.05Q33.55 18.65 34.58 15.95L34.70 16.07L34.62 15.99Q34.04 16.45 32.60 17.06L32.55 17.01L32.57 17.03Q32.77 16.09 33.50 14.57L33.58 14.65L33.63 14.70Q28.29 16.82 22.58 16.75L22.44 16.60L22.55 16.71Q16.49 16.51 11.54 14.00L11.70 14.17L11.60 14.06Q12.74 16.43 13.47 18.67L13.42 18.62L13.53 18.73Q14.67 19.30 15.47 19.53L15.45 19.52L15.35 19.41Q15.67 20.15 15.93 21.60L15.86 21.52L15.92 21.58Q19.59 22.59 24.46 22.39L24.55 22.49L24.44 22.37Q22.19 25.72 18.88 30.71L18.78 30.61L13.23 38.91L13.21 38.90Q12.87 40.19 11.84 42.74Z"/><path fill="#333" d="M119.82 29.94L119.77 29.89L119.81 29.93Q119.45 29.80 119.15 29.80L119.16 29.81L119.12 29.77Q117.82 29.80 116.37 30.64L116.36 30.63L116.40 30.67Q114.99 31.70 114.99 33.60L115.06 33.67L115.07 33.68Q115.10 37.14 116.62 38.47L116.59 38.43L116.54 38.38Q117.54 39.61 119.83 39.61L119.82 39.61L119.78 39.57Q120.09 39.65 120.40 39.65L120.31 39.57L120.41 39.66Q122.15 39.69 123.29 38.05L123.34 38.10L123.35 38.11Q124.38 36.59 124.30 34.80L124.18 34.68L124.15 34.65Q124.23 34.19 124.23 33.77L124.25 33.80L124.34 33.89Q124.21 31.97 122.84 30.80L123.00 30.97L122.95 30.92Q121.56 29.74 119.77 29.89ZM124.24 40.03L124.32 40.11L124.33 40.12Q123.30 42.03 119.57 42.14L119.46 42.03L119.51 42.08Q116.02 42.09 114.42 40.49L114.53 40.60L114.47 40.53Q113.01 38.77 112.21 33.98L112.33 34.09L112.23 34.00Q112.01 32.33 112.01 31.07L111.88 30.94L111.93 31.00Q111.94 29.21 112.66 28.15L112.75 28.23L112.63 28.12Q114.05 26.79 117.02 26.79L117.05 26.83L116.95 26.72Q123.36 26.82 125.27 29.41L125.26 29.40L125.19 29.33Q125.44 28.59 125.85 26.99L125.81 26.94L125.91 27.04Q127.06 26.63 129.50 25.83L129.48 25.81L129.61 25.95Q127.11 31.51 126.88 37.83L126.79 37.75L126.82 37.77Q126.66 44.01 128.79 49.83L128.85 49.89L128.75 49.80Q127.03 49.18 125.25 48.92L125.36 49.03L125.20 48.87Q124.32 44.95 124.21 40.00ZM125.08 49.32L125.01 49.26L125.06 49.30Q125.70 49.37 127.11 49.67L127.13 49.70L127.19 49.76Q127.34 50.41 127.92 51.81L128.01 51.91L127.96 51.86Q130.44 52.48 132.73 53.77L132.73 53.78L132.90 53.95Q128.73 47.22 128.73 38.69L128.70 38.66L128.74 38.70Q128.86 32.47 131.33 26.68L131.28 26.63L131.27 26.62Q130.47 26.81 129.10 27.45L129.19 27.54L129.22 27.58Q129.59 26.84 130.23 25.28L130.07 25.11L130.18 25.22Q128.67 25.81 125.47 26.68L125.37 26.58L125.42 26.63Q125.27 27.17 124.97 28.35L125.06 28.44L124.93 28.31Q122.94 26.43 116.81 26.28L116.84 26.31L116.84 26.31Q113.68 26.27 112.30 27.75L112.31 27.76L112.39 27.83Q111.51 28.86 111.55 30.76L111.53 30.74L111.57 30.79Q111.73 33.84 112.72 37.61L112.58 37.47L112.73 37.62Q113.26 39.90 114.18 40.85L114.17 40.84L114.52 41.20L114.62 41.30Q115.79 44.07 121.24 44.30L121.25 44.31L121.26 44.33Q122.26 44.33 124.08 44.02L124.16 44.10L124.17 44.11Q124.45 47.02 125.06 49.30ZM121.68 32.22L121.61 32.15L121.53 32.07Q122.77 32.24 123.61 32.54L123.60 32.54L123.57 32.51Q123.69 32.97 123.80 33.58L123.83 33.61L123.83 33.61Q123.90 34.13 123.82 34.74L123.90 34.82L123.95 34.86Q123.80 36.62 122.77 37.92L122.82 37.96L122.90 38.05Q121.71 39.44 119.84 39.25L119.85 39.26L119.81 39.22Q118.56 39.27 117.61 38.85L117.54 38.78L117.54 38.78Q117.24 38.02 117.24 36.80L117.30 36.86L117.31 36.87Q117.27 36.53 117.27 36.22L117.30 36.25L117.15 36.10Q117.13 34.33 118.47 33.17L118.58 33.29L118.44 33.15Q119.91 32.12 121.66 32.20Z"/><path fill="#222" d="M98.77 39.93L98.70 39.86L98.69 39.85Q96.82 39.89 94.80 40.08L94.78 40.06L94.78 40.06Q95.46 34.84 95.46 30.00L95.40 29.94L95.29 29.83Q95.38 25.01 94.73 19.79L94.73 19.79L94.85 19.91Q90.09 19.33 86.89 17.66L87.03 17.80L86.26 16.00L86.33 16.07Q86.05 15.48 85.44 14.27L85.46 14.29L85.49 14.31Q90.52 16.95 96.53 17.14L96.57 17.17L96.59 17.20Q102.37 17.26 107.81 15.21L107.89 15.29L107.86 15.26Q107.05 16.57 106.40 18.40L106.43 18.43L106.56 18.56Q102.96 19.87 98.69 20.06L98.53 19.89L98.69 20.05Q98.40 24.98 98.40 29.93L98.43 29.96L98.39 29.92Q98.48 34.96 98.78 39.94ZM108.52 14.55L108.51 14.53L108.41 14.43Q102.72 16.86 96.52 16.67L96.55 16.69L96.52 16.67Q89.81 16.43 84.71 13.46L84.64 13.40L84.63 13.38Q85.46 14.74 86.75 18.02L86.80 18.06L86.75 18.01Q87.51 18.43 88.77 19.00L88.61 18.85L88.63 18.87Q89.03 19.72 89.37 21.25L89.30 21.17L89.24 21.11Q91.63 22.05 94.67 22.28L94.57 22.18L94.71 22.32Q94.98 25.90 94.98 29.67L95.04 29.73L94.92 29.61Q94.92 34.98 94.12 40.35L94.17 40.40L94.12 40.34Q95.83 40.26 96.36 40.26L96.35 40.25L96.44 40.34Q96.50 40.71 96.44 41.37L96.41 41.34L96.42 41.35Q96.21 41.86 96.21 42.20L96.21 42.21L96.32 42.31Q97.38 42.12 98.90 42.20L99.08 42.37L98.92 42.21Q99.83 42.25 101.66 42.40L101.72 42.46L101.81 42.55Q100.57 37.62 100.46 32.44L100.31 32.29L100.36 32.35Q100.31 27.12 100.84 22.21L100.72 22.08L100.72 22.09Q104.80 21.68 107.96 20.46L107.92 20.41L107.95 20.44Q108.67 18.09 109.70 16.03L109.51 15.84L109.57 15.90Q108.32 16.67 107.52 16.97L107.45 16.90L107.48 16.93Q107.90 15.63 108.47 14.49Z"/><path fill="#444" d="M64.45 41.16L64.30 41.01L64.36 41.08Q67.50 36.79 74.20 28.87L74.32 28.99L74.27 28.94Q68.25 29.05 64.48 27.68L64.62 27.82L64.65 27.85Q63.97 26.41 63.21 25.00L63.12 24.91L63.12 24.92Q67.20 26.41 71.66 26.45L71.78 26.56L71.70 26.49Q76.20 26.57 80.39 25.50L80.39 25.51L80.42 25.54Q80.00 26.19 79.74 26.72L79.67 26.65L79.63 26.62Q77.16 28.90 74.34 32.52L74.23 32.41L69.34 38.63L69.36 38.66Q71.65 38.51 73.90 38.58L73.90 38.58L73.98 38.66Q76.02 38.58 78.27 38.96L78.36 39.05L78.37 39.06Q78.40 39.54 79.12 41.56L79.24 41.68L79.21 41.65Q75.55 40.89 71.56 41.00L71.51 40.95L71.43 40.87Q67.56 41.08 63.91 42.26L63.89 42.24L63.93 42.28Q63.85 41.97 64.31 41.02ZM63.21 42.74L63.23 42.76L63.36 42.90Q64.06 42.49 65.66 42.07L65.63 42.04L65.65 42.06Q65.44 42.31 65.02 42.73L65.07 42.78L64.96 42.67Q64.80 43.31 64.19 44.45L64.13 44.39L64.25 44.51Q68.80 43.01 73.79 43.16L73.86 43.23L73.94 43.31Q78.80 43.37 83.37 45.24L83.37 45.24L83.35 45.22Q81.91 43.36 81.00 41.30L81.00 41.31L80.99 41.30Q80.21 40.97 79.14 40.74L79.16 40.76L79.22 40.82Q79.06 40.13 78.68 38.68L78.61 38.61L78.68 38.68Q77.18 38.40 73.60 38.29L73.48 38.17L73.61 38.29Q75.96 34.94 80.99 28.58L81.01 28.60L80.98 28.57Q81.14 27.74 81.82 26.41L81.86 26.44L79.67 27.30L79.49 27.12Q79.66 27.14 79.82 27.03L79.91 27.12L80.05 26.89L79.92 26.75Q80.39 25.70 80.96 24.74L80.99 24.77L81.02 24.81Q76.37 26.17 71.65 26.09L71.66 26.10L71.62 26.06Q66.94 26.11 62.45 24.28L62.28 24.11L62.43 24.27Q63.61 26.12 64.41 28.18L64.36 28.13L64.37 28.14Q65.16 28.40 66.23 28.66L66.32 28.76L66.16 28.60Q66.48 29.41 66.78 30.86L66.66 30.73L66.75 30.83Q68.41 31.16 71.73 31.31L71.64 31.22L71.72 31.30Q69.18 34.48 64.01 40.91L64.11 41.02L63.98 40.89Q63.88 41.62 63.30 42.84Z"/><path fill="#333" d="M49.61 39.88L49.54 39.81L47.63 39.84L47.74 39.95Q46.76 39.92 45.80 40.03L45.79 40.01L45.78 40.00Q46.27 33.72 46.27 29.72L46.39 29.84L46.36 29.81Q42.27 23.02 34.62 14.34L34.67 14.39L34.77 14.50Q36.53 15.45 39.88 16.25L39.77 16.14L39.86 16.23Q44.88 21.78 47.88 26.99L47.97 27.08L47.99 27.11Q50.95 21.49 55.32 16.47L55.36 16.50L55.20 16.35Q57.67 16.00 60.19 15.20L60.17 15.18L60.11 15.12Q54.06 21.22 49.19 29.63L49.20 29.64L49.36 29.80Q49.26 36.74 49.56 39.83ZM58.69 17.28L61.33 14.37L61.40 14.43Q58.28 15.58 55.16 16.04L55.12 16.00L55.25 16.13Q51.03 20.85 48.21 25.95L48.05 25.79L48.13 25.87Q46.08 22.30 42.89 18.42L42.80 18.34L42.82 18.35Q42.61 18.41 42.11 18.33L42.12 18.34L42.00 18.22Q41.34 17.44 39.82 15.77L39.78 15.73L39.92 15.87Q36.49 15.07 33.52 13.51L33.38 13.37L33.41 13.40Q41.20 21.95 45.96 29.87L46.05 29.96L46.04 29.95Q45.92 36.26 45.31 40.41L45.33 40.43L45.26 40.36Q45.99 40.33 47.44 40.22L47.44 40.22L47.46 41.27L47.53 41.34Q47.54 41.80 47.46 42.34L47.28 42.15L47.30 42.17Q51.00 42.33 52.75 42.52L52.74 42.51L52.70 42.47Q51.42 37.77 51.31 31.79L51.21 31.69L51.29 31.77Q55.73 23.39 62.28 16.04L62.17 15.93L58.62 17.21Z"/></svg>