<svg xmlns="http://www.w3.org/2000/svg" width="150" height="50" viewBox="0,0,150,50"><path fill="#111" d="M29.74 37.97L29.74 37.97L29.70 37.93Q29.97 38.88 30.50 40.90L30.57 40.97L30.58 40.99Q26.25 39.55 21.64 39.81L21.64 39.81L21.65 39.82Q17.13 40.13 13.13 42.11L13.16 42.14L13.07 42.05Q13.26 41.33 13.30 41.41L13.28 41.39L13.31 41.41Q17.11 37.53 21.03 33.11L21.07 33.15L21.07 33.15Q25.52 28.19 26.70 23.51L26.56 23.37L26.70 23.51Q27.09 21.69 25.81 20.51L25.82 20.52L25.75 20.45Q24.55 19.34 22.76 19.50L22.80 19.53L22.76 19.49Q22.49 19.53 22.15 19.53L22.02 19.41L21.97 19.36Q20.45 19.35 19.19 20.27L19.28 20.36L19.25 20.33Q17.99 21.73 18.22 24.40L18.24 24.42L18.30 24.48Q16.50 24.13 15.29 23.67L15.22 23.60L15.24 23.62Q14.94 22.11 14.87 20.66L14.98 20.78L14.92 20.72Q14.79 19.02 15.40 17.88L15.42 17.90L15.54 18.02Q17.30 16.63 20.65 16.63L20.54 16.52L22.29 16.52L22.39 16.61Q24.62 16.60 25.57 16.71L25.59 16.73L25.53 16.66Q29.89 17.11 30.16 19.55L30.15 19.54L30.15 19.54Q30.21 20.10 30.14 20.90L30.18 20.94L30.13 20.89Q30.26 21.71 30.11 22.39L29.96 22.24L30.07 22.35Q28.35 30.38 20.78 37.23L20.83 37.29L20.89 37.35Q22.15 37.04 23.52 37.04L23.61 37.13L23.64 37.16Q26.78 37.07 29.63 37.87ZM29.07 17.05L29.15 17.13L29.02 17.00Q27.47 16.40 25.75 16.32L25.80 16.36L22.30 16.10L22.40 16.20Q17.93 15.92 15.72 17.03L15.67 16.98L15.72 17.02Q14.60 18.34 14.60 20.40L14.54 20.33L14.56 20.35Q14.75 21.23 15.05 24.05L14.98 23.97L14.93 23.92Q15.58 24.27 16.76 24.57L16.76 24.57L16.77 25.62L16.69 25.53Q16.64 25.97 16.71 26.51L16.73 26.52L16.64 26.43Q17.93 26.58 20.40 26.81L20.53 26.94L20.44 26.85Q20.38 26.45 20.38 26.10L20.38 26.10L20.39 26.11Q20.49 24.39 21.71 23.03L21.66 22.98L21.71 23.04Q22.81 21.57 24.60 21.68L24.70 21.77L24.63 21.70Q25.41 21.77 26.17 21.92L26.13 21.88L26.08 21.82Q26.36 22.37 26.43 22.79L26.32 22.68L26.43 22.79Q26.46 23.19 26.38 23.53L26.34 23.49L26.28 23.44Q25.13 28.30 20.71 33.13L20.72 33.14L20.71 33.13Q18.48 35.28 13.04 41.33L13.05 41.34L13.16 41.45Q12.95 42.27 12.61 42.85L12.44 42.68L12.53 42.77Q14.12 41.88 15.64 41.34L15.70 41.40L15.63 41.34Q14.94 41.94 13.98 43.42L14.06 43.50L14.03 43.47Q13.96 43.85 13.84 44.19L13.77 44.12L13.79 44.14Q18.68 42.10 24.16 42.29L24.04 42.17L24.09 42.22Q29.85 42.46 34.42 44.82L34.34 44.75L33.31 42.57L33.37 42.63Q32.80 41.37 32.53 40.57L32.53 40.57L32.36 40.40Q31.70 40.04 30.48 39.63L30.56 39.70L30.61 39.76Q30.27 38.84 29.89 37.47L29.97 37.56L29.88 37.47Q27.86 37.08 25.57 36.89L25.39 36.71L25.50 36.82Q30.09 32.15 31.61 23.89L31.70 23.98L31.91 21.11L31.91 21.11Q31.80 19.29 30.58 18.60L30.66 18.68L30.48 18.53L30.59 18.65Q30.59 18.61 30.51 18.61L30.35 18.45L30.38 18.48Q30.20 17.68 29.09 17.07Z"/><path fill="#333" d="M93.16 40.43L93.19 40.46L93.14 40.41Q89.10 40.68 88.11 38.35L88.14 38.38L88.05 38.29Q88.72 37.25 90.28 35.46L90.46 35.63L90.34 35.52Q90.95 37.65 93.96 37.77L93.92 37.73L93.87 37.68Q97.29 37.78 98.92 36.45L98.83 36.35L98.99 36.51Q100.31 34.83 100.24 32.13L100.29 32.18L100.22 32.11Q100.08 27.06 95.29 27.29L95.28 27.29L95.18 27.19Q92.50 27.47 90.75 28.73L90.64 28.62L90.39 28.53L90.09 28.31L90.20 28.42Q90.55 25.25 90.43 22.51L90.43 22.51L90.44 22.53Q90.35 19.92 90.01 16.61L90.00 16.60L89.97 16.57Q93.57 17.47 97.38 17.35L97.45 17.42L97.48 17.46Q101.24 17.33 104.82 16.08L104.75 16.00L104.20 17.55L104.32 17.67Q103.99 18.41 103.80 19.25L103.68 19.13L103.82 19.27Q100.69 20.29 96.81 20.29L96.65 20.13L96.77 20.24Q95.18 20.11 93.70 19.95L93.70 19.96L93.83 20.09Q93.67 20.69 93.33 25.14L93.33 25.15L93.32 25.14Q94.23 24.75 96.28 24.60L96.32 24.64L96.27 24.59Q99.92 24.73 101.37 26.41L101.41 26.45L101.53 26.57Q102.80 27.99 103.07 31.84L103.09 31.86L103.02 31.79Q103.26 35.95 102.04 37.97L102.08 38.01L102.03 37.96Q100.19 40.04 96.88 40.27L96.76 40.15L96.71 40.09Q95.83 40.28 93.16 40.43ZM99.09 42.59L99.16 42.66L99.18 42.68Q102.64 42.80 104.55 41.69L104.46 41.60L104.53 41.68Q105.42 40.05 105.42 37.96L105.57 38.10L105.50 38.04Q105.53 34.99 104.58 30.88L104.54 30.84L104.56 30.85Q104.06 28.98 102.84 27.57L102.99 27.72L102.95 27.73L102.68 27.38L102.49 27.34L102.41 27.26Q102.02 26.45 101.38 25.77L101.36 25.75L101.51 25.94L101.49 25.92Q99.84 24.12 96.15 24.12L96.24 24.21L95.94 24.18L96.01 24.25Q96.07 23.66 96.26 22.56L96.13 22.43L96.30 22.60Q101.29 22.71 105.32 21.07L105.21 20.96L105.16 20.91Q105.65 19.57 106.60 16.75L106.66 16.82L104.44 17.64L104.57 17.77Q104.99 16.66 105.48 15.52L105.32 15.36L105.41 15.45Q101.50 16.83 97.39 16.91L97.50 17.02L97.40 16.92Q93.26 17.00 89.30 15.90L89.46 16.06L89.40 16.00Q89.99 20.33 89.99 24.74L90.14 24.89L89.98 24.72Q90.06 26.71 89.94 28.61L89.88 28.55L89.94 28.61Q90.12 28.71 90.69 29.01L90.80 29.12L90.78 29.11Q91.10 28.85 91.75 28.51L91.77 28.53L91.77 28.54Q91.81 29.38 91.59 30.90L91.48 30.79L91.59 30.90Q91.88 30.97 92.30 31.20L92.33 31.23L92.30 31.20Q95.18 29.54 97.04 29.54L97.06 29.56L96.93 29.43Q98.35 29.52 99.53 30.17L99.50 30.14L99.42 30.05Q99.82 31.14 99.86 32.09L99.79 32.03L99.87 32.11Q100.02 34.77 99.00 35.88L99.02 35.89L98.99 35.87Q97.53 36.99 95.28 37.22L95.38 37.33L95.30 37.24Q94.40 37.37 93.72 37.29L93.68 37.25L93.66 37.24Q92.87 37.17 92.11 36.83L92.01 36.73L91.95 36.48L91.84 36.60L91.98 36.74Q91.04 36.10 90.51 34.77L90.55 34.82L90.55 34.82Q89.29 36.29 87.61 38.43L87.68 38.49L87.59 38.41Q87.96 39.11 88.80 40.06L88.76 40.03L88.81 40.08Q89.85 41.88 92.67 42.37L92.67 42.38L92.67 42.38Q93.84 42.60 99.21 42.71Z"/><path fill="#333" d="M38.27 14.26L38.37 14.36L38.41 14.40Q42.10 16.83 46.85 17.06L46.85 17.05L46.81 17.01Q51.46 17.21 55.73 15.46L55.68 15.42L55.84 15.58Q55.44 15.97 54.68 18.75L54.83 18.91L54.71 18.78Q52.05 19.90 49.08 20.05L49.07 20.04L49.07 20.03Q46.08 20.17 43.19 19.45L43.10 19.36L43.22 19.47Q43.90 23.09 44.09 26.75L44.15 26.81L44.12 26.77Q46.00 26.86 47.60 26.82L47.75 26.98L47.63 26.86Q48.84 26.85 51.24 26.73L51.23 26.72L51.26 26.76Q51.25 27.43 51.25 28.12L51.22 28.08L51.23 29.43L51.34 29.54Q48.92 29.52 44.12 29.59L44.00 29.47L43.96 29.43Q43.98 33.56 43.41 37.56L43.44 37.59L43.52 37.67Q46.22 37.09 48.96 37.20L48.76 37.01L48.91 37.16Q51.48 37.11 54.07 37.94L54.14 38.01L54.14 38.01Q54.23 38.83 54.50 39.59L54.43 39.52L54.91 41.06L55.01 41.17Q51.79 39.85 48.36 39.85L48.39 39.87L48.37 39.86Q43.38 39.74 39.12 41.98L39.28 42.15L39.21 42.07Q41.47 35.20 41.21 28.08L41.31 28.19L41.22 28.10Q41.05 21.04 38.39 14.38ZM38.68 42.76L38.64 42.72L38.61 42.69Q40.02 42.12 40.78 41.78L40.71 41.71L40.61 41.61Q40.52 42.47 39.94 43.99L40.02 44.06L39.89 43.93Q44.51 42.04 49.57 42.31L49.62 42.36L49.62 42.36Q54.74 42.61 58.74 45.31L58.71 45.29L58.64 45.21Q57.57 42.77 56.88 40.83L56.81 40.76L56.78 40.73Q55.88 40.21 54.89 39.87L54.78 39.75L54.88 39.86Q54.50 38.48 54.35 37.68L54.27 37.61L54.41 37.75Q51.17 36.60 48.01 36.60L48.09 36.68L48.17 36.76Q46.99 36.73 45.85 36.84L45.74 36.73L45.76 36.75Q45.92 35.54 45.96 34.32L46.02 34.39L46.09 31.86L46.07 31.84Q47.79 31.66 49.58 31.69L49.64 31.76L49.65 31.77Q51.54 31.87 53.33 32.02L53.28 31.98L53.36 32.06Q53.17 30.98 53.17 30.03L53.12 29.98L53.18 28.15L52.31 28.15L52.35 28.19Q52.04 28.37 51.58 28.37L51.47 28.26L51.52 28.31Q51.62 27.72 51.77 26.43L51.64 26.30L51.60 26.25Q50.13 26.61 48.95 26.65L48.86 26.56L48.82 26.52Q48.03 26.68 46.20 26.60L46.16 26.56L46.10 26.50Q45.96 25.03 45.77 22.21L45.93 22.37L45.86 22.30Q46.80 22.34 47.79 22.34L47.95 22.50L47.86 22.41Q52.67 22.49 56.36 20.59L56.25 20.48L56.28 20.51Q56.77 18.07 57.65 15.86L57.79 16.00L57.63 15.84Q56.47 16.85 55.63 17.19L55.55 17.11L55.48 17.04Q55.88 16.38 56.34 14.82L56.39 14.87L56.41 14.89Q51.75 17.01 46.88 16.70L46.85 16.67L46.74 16.57Q41.60 16.41 37.76 13.56L37.62 13.42L37.58 13.38Q40.60 20.47 40.91 28.09L40.77 27.95L40.89 28.08Q41.20 35.99 38.68 42.77Z"/><path fill="#111" d="M74.82 27.08L74.86 27.11L74.86 27.12Q75.67 27.12 77.07 26.97L77.10 26.99L77.08 26.97Q77.09 27.67 77.09 28.32L77.11 28.34L77.06 29.55L77.06 29.54Q76.18 29.50 75.34 29.58L75.35 29.59L75.31 29.55Q74.54 29.65 73.70 29.61L73.64 29.55L73.80 29.71Q70.92 35.85 67.49 40.46L67.45 40.42L67.41 40.38Q64.98 41.11 63.69 41.72L63.62 41.64L63.68 41.71Q67.66 35.87 70.71 29.59L70.79 29.67L68.17 29.68L68.09 29.59Q68.21 28.38 68.09 27.05L68.13 27.08L68.04 27.00Q69.91 27.12 71.97 27.12L72.01 27.16L73.99 23.55L73.95 23.50Q74.96 21.62 76.18 20.03L76.08 19.92L76.20 20.04Q74.49 20.05 72.89 20.05L72.99 20.15L72.91 20.06Q66.97 20.22 63.20 18.01L63.02 17.82L62.52 16.26L62.42 16.16Q62.17 15.42 61.79 14.54L61.75 14.50L61.65 14.40Q66.05 17.09 71.76 17.31L71.88 17.43L71.73 17.28Q76.86 17.50 82.00 15.52L82.11 15.64L82.06 15.59Q81.81 15.95 81.32 16.83L81.47 16.98L81.44 16.94Q77.84 21.72 74.98 27.24ZM82.91 18.19L83.08 18.36L83.95 16.22L83.98 16.25Q82.99 16.70 81.31 17.43L81.40 17.51L81.62 17.24L81.46 17.08Q81.72 17.07 81.83 16.96L81.69 16.82L81.82 16.95Q82.12 16.18 82.85 14.85L82.86 14.86L82.86 14.86Q77.63 17.24 71.88 17.01L71.76 16.90L71.77 16.91Q65.80 16.68 61.04 13.71L61.08 13.76L60.93 13.60Q62.02 15.54 62.86 18.20L62.89 18.23L62.86 18.20Q64.05 18.94 64.85 19.24L64.75 19.14L64.70 19.08Q64.86 19.44 65.31 21.30L65.47 21.45L65.41 21.40Q68.53 22.61 74.05 22.46L74.02 22.43L74.07 22.48Q73.72 23.01 71.75 26.78L71.74 26.78L71.78 26.82Q69.77 26.86 67.79 26.67L67.74 26.62L67.66 26.55Q67.93 27.57 67.93 28.45L67.92 28.44L67.90 30.13L69.51 30.06L69.47 31.43L69.48 31.44Q65.56 38.83 62.78 42.41L62.77 42.40L62.74 42.37Q64.40 41.67 66.04 41.17L66.05 41.19L66.11 41.24Q65.29 42.03 63.92 43.74L63.91 43.73L64.05 43.87Q67.06 42.62 69.50 42.39L69.64 42.53L69.50 42.39Q72.57 38.76 75.69 31.98L75.64 31.93L79.06 32.12L79.15 32.21Q79.05 31.27 79.05 30.35L78.96 30.26L79.06 28.57L79.05 28.56Q78.76 28.54 78.21 28.58L78.21 28.58L78.14 28.51Q77.72 28.68 77.45 28.68L77.42 28.65L77.26 28.48Q77.34 28.45 77.38 28.30L77.45 28.37L77.43 28.09L77.37 28.03Q79.86 22.87 82.95 18.22Z"/><path fill="#222" d="M120.54 41.09L120.40 40.94L120.44 40.99Q116.34 29.80 111.20 24.82L111.10 24.72L111.18 24.80Q112.66 25.44 115.63 26.09L115.53 25.99L115.58 26.04Q119.03 29.87 121.58 36.53L121.68 36.63L121.65 36.60Q124.31 29.25 126.93 26.20L126.97 26.24L127.00 26.27Q128.83 26.00 131.26 25.32L131.28 25.33L131.33 25.38Q128.17 28.12 126.00 32.69L126.09 32.78L126.08 32.77Q125.58 33.30 122.20 40.92L122.32 41.04L122.28 41.00Q121.72 41.13 120.50 41.05ZM125.14 43.48L125.14 43.48L125.09 43.43Q128.52 31.21 133.09 26.53L132.95 26.39L131.53 26.95L131.54 26.97Q130.73 27.18 129.89 27.30L129.94 27.34L129.86 27.27Q130.41 26.94 131.23 26.07L131.14 25.97L131.07 25.90Q132.02 25.15 132.47 24.74L132.52 24.78L132.42 24.69Q130.17 25.28 126.74 25.78L126.88 25.92L126.71 25.75Q124.18 29.12 122.13 34.72L122.03 34.62L122.02 34.61Q120.30 30.35 118.48 27.87L118.54 27.93L118.14 28.07L118.09 28.02Q117.71 27.90 117.48 27.90L117.42 27.84L117.51 27.93Q117.30 27.61 115.59 25.56L115.69 25.66L115.58 25.55Q112.33 25.16 110.09 24.01L110.08 24.00L110.00 23.92Q116.09 29.59 120.08 41.32L120.21 41.44L121.20 41.45L121.20 41.45Q121.54 42.09 122.38 43.38L122.36 43.36L123.76 43.39L123.75 43.38Q124.35 43.26 125.00 43.34Z"/></svg>