<svg xmlns="http://www.w3.org/2000/svg" width="150" height="50" viewBox="0,0,150,50"><path fill="#333" d="M95.05 29.83L95.00 29.78L95.04 29.83Q94.86 29.88 94.56 29.88L94.57 29.89L94.42 29.74Q93.17 29.83 91.73 30.66L91.68 30.61L91.79 30.72Q90.44 31.81 90.44 33.71L90.42 33.69L90.44 33.71Q90.36 37.06 91.88 38.39L92.02 38.53L91.91 38.42Q92.98 39.71 95.26 39.71L95.23 39.68L95.11 39.57Q95.34 39.57 95.65 39.57L95.65 39.57L95.74 39.66Q97.53 39.74 98.67 38.10L98.53 37.96L98.58 38.01Q99.52 36.40 99.45 34.61L99.49 34.66L99.49 34.65Q99.54 34.18 99.54 33.76L99.67 33.89L99.66 33.88Q99.61 32.03 98.24 30.87L98.21 30.85L98.17 30.80Q96.85 29.70 95.06 29.85ZM99.55 40.01L99.65 40.11L99.63 40.08Q98.66 42.05 94.93 42.16L94.81 42.04L94.94 42.17Q91.42 42.15 89.82 40.55L89.86 40.60L89.83 40.56Q88.30 38.73 87.50 33.93L87.58 34.01L87.67 34.10Q87.28 32.27 87.28 31.01L87.32 31.05L87.23 30.96Q87.32 29.26 88.04 28.19L88.02 28.17L87.95 28.10Q89.39 26.81 92.36 26.81L92.31 26.76L92.25 26.70Q98.73 26.85 100.63 29.44L100.55 29.36L100.61 29.42Q100.72 28.53 101.13 26.94L101.16 26.96L101.14 26.94Q102.36 26.60 104.79 25.80L104.91 25.91L104.91 25.92Q102.49 31.57 102.26 37.88L102.16 37.78L102.28 37.90Q101.90 43.91 104.03 49.74L104.03 49.74L104.20 49.91Q102.49 49.30 100.70 49.04L100.69 49.03L100.59 48.93Q99.61 44.90 99.50 39.95ZM100.31 49.22L100.31 49.22L100.36 49.27Q101.00 49.34 102.41 49.64L102.51 49.75L102.42 49.66Q102.70 50.43 103.27 51.84L103.25 51.81L103.31 51.88Q105.84 52.54 108.13 53.84L108.15 53.86L108.22 53.93Q104.06 47.22 104.06 38.69L104.11 38.75L104.03 38.66Q104.16 32.43 106.63 26.64L106.54 26.55L106.53 26.55Q105.91 26.92 104.54 27.57L104.49 27.51L104.44 27.47Q104.85 26.77 105.50 25.21L105.40 25.11L105.54 25.25Q103.92 25.72 100.72 26.60L100.81 26.68L100.84 26.72Q100.64 27.20 100.34 28.38L100.36 28.40L100.35 28.39Q98.35 26.51 92.22 26.36L92.27 26.41L92.17 26.31Q88.94 26.20 87.57 27.68L87.67 27.78L87.54 27.65Q86.96 28.98 87.00 30.88L86.86 30.74L86.90 30.78Q87.05 33.82 88.04 37.59L88.09 37.65L88.03 37.59Q88.64 39.94 89.55 40.89L89.52 40.87L89.90 41.25L89.91 41.26Q91.14 44.09 96.59 44.32L96.52 44.25L96.64 44.36Q97.51 44.25 99.34 43.94L99.41 44.02L99.39 43.99Q99.78 47.01 100.39 49.30ZM96.87 32.08L96.89 32.09L96.98 32.18Q98.00 32.14 98.84 32.44L98.91 32.52L98.97 32.57Q99.16 33.11 99.27 33.72L99.24 33.69L99.16 33.60Q99.21 34.11 99.14 34.72L99.16 34.74L99.27 34.85Q99.13 36.62 98.10 37.91L98.14 37.95L98.15 37.96Q97.07 39.46 95.20 39.27L95.24 39.32L95.21 39.29Q93.78 39.15 92.83 38.73L92.98 38.88L92.85 38.75Q92.49 37.93 92.49 36.71L92.62 36.84L92.67 36.89Q92.62 36.54 92.62 36.23L92.63 36.25L92.50 36.11Q92.62 34.48 93.95 33.32L93.95 33.32L93.93 33.30Q95.13 32.01 96.88 32.09Z"/><path fill="#333" d="M124.21 27.14L124.30 27.23L124.32 27.24Q125.01 27.13 126.42 26.98L126.54 27.10L126.53 27.10Q126.32 27.57 126.32 28.22L126.34 28.24L126.45 29.60L126.37 29.52Q125.55 29.54 124.71 29.62L124.65 29.55L124.76 29.66Q123.98 29.76 123.15 29.72L123.10 29.67L123.03 29.61Q120.23 35.83 116.80 40.44L116.82 40.45L116.85 40.48Q114.17 40.97 112.88 41.57L112.94 41.63L113.01 41.71Q117.07 35.94 120.12 29.66L120.11 29.66L117.57 29.74L117.55 29.73Q117.43 28.27 117.31 26.94L117.38 27.00L117.43 27.05Q119.39 27.26 121.45 27.26L121.37 27.18L123.16 23.38L123.26 23.48Q124.17 21.50 125.39 19.90L125.43 19.94L125.51 20.02Q123.88 20.10 122.28 20.10L122.28 20.10L122.34 20.16Q116.23 20.14 112.46 17.93L112.44 17.91L111.85 16.26L111.89 16.30Q111.51 15.42 111.13 14.54L111.05 14.47L111.01 14.43Q115.40 17.11 121.11 17.34L121.19 17.42L121.18 17.40Q126.30 17.62 131.44 15.64L131.39 15.59L131.40 15.59Q131.30 16.10 130.81 16.98L130.80 16.98L130.73 16.90Q127.17 21.71 124.31 27.23ZM132.29 18.23L132.31 18.25L133.23 16.16L133.24 16.18Q132.44 16.82 130.76 17.54L130.58 17.36L130.91 17.19L130.91 17.20Q130.92 16.94 131.03 16.83L131.10 16.89L131.09 16.88Q131.40 16.12 132.12 14.79L132.16 14.83L132.27 14.94Q126.84 17.13 121.10 16.90L121.16 16.96L121.10 16.91Q115.20 16.75 110.44 13.78L110.43 13.77L110.41 13.75Q111.35 15.53 112.19 18.19L112.25 18.26L112.23 18.23Q113.37 18.92 114.17 19.22L114.20 19.26L114.14 19.19Q114.36 19.60 114.81 21.47L114.67 21.32L114.71 21.36Q117.91 22.66 123.43 22.51L123.45 22.53L123.35 22.43Q123.01 22.96 121.03 26.73L121.14 26.84L121.15 26.85Q119.03 26.79 117.05 26.60L117.18 26.73L117.11 26.66Q117.16 27.46 117.16 28.34L117.19 28.38L117.22 30.12L118.81 30.04L118.88 31.51L118.77 31.40Q114.99 38.93 112.22 42.51L112.20 42.49L112.17 42.46Q113.82 41.75 115.46 41.26L115.32 41.13L115.44 41.25Q114.61 42.01 113.24 43.73L113.28 43.77L113.36 43.84Q116.50 42.72 118.93 42.49L119.00 42.55L118.92 42.47Q121.78 38.63 124.90 31.86L125.05 32.01L128.34 32.06L128.39 32.11Q128.35 31.23 128.35 30.32L128.34 30.31L128.29 28.48L128.39 28.58Q128.01 28.46 127.46 28.49L127.56 28.60L127.56 28.60Q126.97 28.60 126.70 28.60L126.60 28.49L126.59 28.49Q126.69 28.47 126.73 28.32L126.64 28.23L126.66 27.99L126.80 28.12Q129.15 22.82 132.24 18.18Z"/><path fill="#111" d="M45.40 39.96L45.34 39.91L45.35 39.92Q41.10 39.28 39.27 37.84L39.41 37.97L39.37 37.94Q37.51 36.46 37.10 33.45L37.19 33.55L37.14 33.50Q37.15 33.16 36.80 28.40L36.63 28.23L36.74 28.34Q36.88 27.26 36.80 26.00L36.64 25.84L36.81 26.01Q36.62 20.94 38.82 19.19L38.82 19.19L38.70 19.07Q41.45 17.06 49.21 16.37L49.21 16.37L49.20 16.35Q50.45 16.13 52.09 16.16L52.05 16.13L52.10 16.17Q52.09 16.16 55.05 16.16L55.05 16.16L55.08 16.19Q55.86 16.13 57.57 16.28L57.74 16.45L57.64 16.35Q57.21 17.37 56.18 20.45L56.12 20.39L56.08 20.34Q54.04 19.18 51.03 19.18L51.00 19.15L50.97 19.12Q50.24 19.15 49.44 19.22L49.43 19.21L49.52 19.31Q44.37 19.72 41.86 21.70L41.86 21.69L41.92 21.76Q39.80 23.26 39.65 26.61L39.69 26.64L39.73 26.68Q39.65 27.25 39.69 28.51L39.65 28.47L39.62 28.44Q39.72 33.26 42.12 35.35L42.11 35.34L42.27 35.50Q44.35 37.36 49.34 37.66L49.29 37.61L49.42 37.74Q52.53 37.88 55.53 36.09L55.45 36.01L55.57 36.13Q56.06 38.75 56.67 40.12L56.76 40.21L56.62 40.07Q54.68 40.49 53.04 40.46L52.87 40.28L52.89 40.30Q48.50 40.33 45.38 39.95ZM60.49 43.67L60.48 43.67L60.49 43.67Q58.77 40.74 58.09 38.15L57.90 37.96L58.08 38.14Q57.55 38.30 56.56 38.68L56.53 38.65L56.62 38.74Q56.33 38.00 56.14 37.16L56.05 37.07L55.75 35.44L55.60 35.29Q52.40 37.41 49.28 37.30L49.22 37.24L49.21 37.23Q44.96 37.06 42.64 35.31L42.71 35.38L42.69 35.36Q41.51 33.49 41.59 30.56L41.69 30.67L41.58 30.56Q41.83 26.16 44.31 24.03L44.25 23.97L44.24 23.96Q46.36 22.05 51.05 21.44L51.06 21.45L51.05 21.44Q51.79 21.27 52.51 21.27L52.61 21.36L52.53 21.29Q55.39 21.36 57.48 22.89L57.46 22.87L57.51 22.91Q57.92 20.70 59.14 17.47L59.17 17.49L59.14 17.46Q58.85 17.45 58.30 17.39L58.42 17.51L58.45 17.54Q57.82 17.40 57.55 17.40L57.54 17.39L57.51 17.36Q57.65 16.78 58.11 15.79L58.10 15.77L58.24 15.92Q58.05 15.95 55.55 15.88L55.40 15.72L55.52 15.85Q52.88 15.62 52.23 15.66L52.35 15.77L52.25 15.68Q41.83 16.10 38.36 18.69L38.36 18.69L38.29 18.62Q36.30 20.48 36.30 24.40L36.41 24.51L36.37 24.47Q36.27 25.47 36.38 28.17L36.47 28.26L36.44 28.22Q36.51 31.73 36.74 33.44L36.85 33.55L36.71 33.41Q37.21 36.65 38.81 38.17L38.82 38.18L38.73 38.10Q39.25 38.81 40.51 39.95L40.58 40.02L40.61 40.05Q43.84 41.79 49.09 42.55L48.97 42.43L49.07 42.54Q55.44 43.42 60.43 43.61Z"/><path fill="#333" d="M23.79 27.80L23.74 27.74L23.64 27.65Q20.13 27.56 19.03 30.91L19.18 31.06L19.16 31.05Q18.75 32.08 18.63 33.15L18.64 33.16L18.64 33.15Q18.48 35.25 19.47 36.58L19.32 36.43L19.40 36.50Q20.83 37.78 23.30 37.81L23.15 37.66L23.16 37.67Q24.96 37.68 26.36 36.54L26.36 36.54L26.38 36.55Q27.82 35.45 27.82 33.66L27.94 33.77L27.76 33.59Q27.91 33.40 27.83 33.02L27.81 33.00L27.82 33.01Q27.51 27.79 23.71 27.71ZM23.67 40.24L23.54 40.11L23.56 40.13Q19.87 40.48 18.08 38.46L18.12 38.50L18.00 38.38Q17.83 39.46 17.37 40.83L17.34 40.80L17.31 40.77Q15.26 41.42 14.00 42.00L14.17 42.16L14.16 42.15Q16.25 36.09 16.25 29.58L16.35 29.69L16.38 29.71Q16.24 21.28 12.82 13.44L12.90 13.52L12.90 13.51Q15.14 14.77 16.47 15.23L16.53 15.29L16.49 15.24Q18.72 22.00 18.87 27.82L18.82 27.78L18.87 27.82Q20.35 25.20 24.08 25.23L24.03 25.18L23.93 25.09Q27.25 25.21 28.74 27.07L28.70 27.03L28.78 27.11Q30.55 29.34 30.70 32.92L30.75 32.97L30.72 32.94Q30.73 34.06 30.66 35.65L30.68 35.67L30.65 35.65Q30.72 37.20 29.84 38.34L29.83 38.32L29.73 38.23Q27.98 39.94 23.64 40.21ZM29.12 42.72L29.04 42.64L29.10 42.70Q30.64 42.76 32.13 42.08L32.07 42.01L32.03 41.98Q33.30 40.85 33.34 38.91L33.20 38.76L33.15 38.72Q33.24 38.31 33.08 37.13L33.05 37.09L33.17 37.22Q32.97 36.41 32.86 35.50L32.88 35.51L32.82 35.46Q32.14 30.82 30.58 28.76L30.43 28.61L30.44 28.62Q30.53 28.67 29.73 27.80L29.80 27.87L29.77 27.84Q29.53 27.56 29.00 26.76L28.92 26.68L29.02 26.78Q27.39 24.81 24.04 24.85L24.01 24.82L24.02 24.83Q22.00 24.90 20.74 25.51L20.76 25.53L20.68 25.45Q20.26 20.84 19.65 17.65L19.79 17.78L19.70 17.69Q19.08 17.65 17.60 17.27L17.50 17.17L17.43 17.10Q17.29 16.35 16.83 14.90L16.91 14.98L17.01 15.08Q14.58 14.29 12.33 12.72L12.14 12.53L12.14 12.53Q16.06 20.87 16.06 29.66L16.03 29.63L16.03 29.63Q15.93 36.49 13.45 42.70L13.49 42.74L13.44 42.69Q14.30 42.52 15.63 41.95L15.56 41.87L15.53 41.84Q15.34 42.65 14.74 44.17L14.64 44.08L14.62 44.05Q16.76 43.30 19.54 42.77L19.44 42.67L19.87 40.89L19.82 40.85Q22.26 42.67 29.19 42.79ZM25.28 29.98L25.36 30.05L25.42 30.11Q26.44 30.10 26.97 30.48L26.87 30.39L26.95 30.47Q27.26 30.96 27.49 32.98L27.33 32.83L27.42 32.91Q27.59 34.76 26.34 36.07L26.44 36.17L26.41 36.15Q25.11 37.41 23.17 37.30L23.18 37.31L23.17 37.30Q22.38 37.58 20.89 37.08L20.84 37.03L20.72 36.91Q20.57 36.50 20.57 35.96L20.52 35.91L20.64 36.03Q20.61 32.92 22.17 31.32L22.08 31.22L22.18 31.37L22.01 31.19Q23.67 30.04 25.42 30.11Z"/><path fill="#222" d="M71.01 29.11L71.04 29.14L70.91 29.01Q69.28 29.09 68.04 30.52L68.02 30.50L67.87 30.34Q66.81 31.95 66.62 33.86L66.54 33.78L66.44 33.68Q66.31 35.84 67.40 36.81L67.44 36.85L67.35 36.76Q68.47 37.76 70.56 37.65L70.64 37.72L70.50 37.58Q72.57 37.41 73.68 36.72L73.73 36.78L73.84 36.89Q74.90 35.71 74.90 34.14L74.90 34.15L74.99 34.23Q74.92 33.78 74.84 33.40L74.72 33.28L74.81 33.36Q74.89 31.70 73.79 30.34L73.79 30.35L73.76 30.32Q72.61 28.92 70.94 29.04ZM70.54 40.18L70.57 40.21L70.58 40.22Q66.12 40.13 64.71 39.37L64.80 39.46L64.74 39.40Q63.78 38.70 63.59 36.99L63.55 36.95L63.66 37.06Q63.47 36.23 63.51 35.50L63.65 35.64L63.58 35.58Q63.79 34.68 63.79 34.23L63.79 34.23L63.62 34.05Q64.14 31.26 64.29 30.57L64.35 30.63L64.30 30.58Q64.70 28.59 65.54 27.18L65.61 27.25L65.52 27.16Q68.27 22.87 74.21 16.51L74.20 16.50L74.24 16.54Q76.95 16.29 79.16 15.49L79.14 15.46L79.00 15.32Q72.23 22.87 69.03 27.09L69.11 27.18L69.00 27.06Q69.97 26.55 71.27 26.55L71.25 26.53L71.41 26.70Q74.64 26.61 76.16 28.55L76.07 28.46L76.17 28.56Q77.48 30.17 77.82 33.71L77.78 33.67L77.81 33.70Q77.97 34.51 77.97 35.12L77.90 35.04L77.98 35.12Q77.87 38.14 75.66 39.20L75.76 39.31L75.76 39.30Q74.47 39.84 70.59 40.22ZM72.91 42.66L72.83 42.58L72.96 42.70Q74.11 42.53 76.09 42.60L76.06 42.57L76.25 42.76Q77.80 42.76 79.36 42.03L79.29 41.96L79.33 42.00Q80.40 41.17 80.40 39.38L80.47 39.44L80.47 39.45Q80.50 38.98 80.33 37.99L80.29 37.95L80.23 37.89Q80.07 36.91 80.07 36.45L80.06 36.44L80.12 36.50Q79.23 31.77 77.63 29.87L77.65 29.89L77.68 29.91Q77.51 29.71 77.36 29.48L77.33 29.45L77.17 29.37L77.04 29.28L76.97 29.20Q76.72 28.80 76.11 27.85L76.16 27.90L76.00 27.74Q75.22 26.92 73.24 26.46L73.27 26.50L73.22 26.44Q74.35 24.76 77.32 21.07L77.29 21.03L81.55 15.78L81.64 15.88Q79.94 16.61 77.55 17.37L77.66 17.49L77.65 17.48Q78.50 16.42 80.29 14.45L80.25 14.41L80.40 14.56Q78.01 15.63 74.13 16.20L74.07 16.14L74.02 16.09Q68.41 22.10 65.45 27.05L65.33 26.94L65.31 26.91Q63.83 29.46 63.25 35.71L63.19 35.64L63.23 35.68Q63.25 36.34 63.32 37.30L63.36 37.34L63.33 37.30Q63.45 39.10 64.55 40.01L64.53 39.99L64.44 39.90Q64.94 40.17 64.90 40.21L64.75 40.06L64.72 40.03Q65.26 41.10 66.06 41.52L66.07 41.53L66.06 41.52Q67.47 42.16 69.41 42.36L69.31 42.26L69.33 42.28Q69.30 42.25 72.81 42.56ZM72.67 31.42L72.68 31.42L72.60 31.34Q73.25 31.32 74.21 31.81L74.23 31.84L74.15 31.76Q74.51 32.72 74.51 33.37L74.47 33.33L74.48 33.34Q74.66 35.19 73.71 36.18L73.81 36.29L73.85 36.32Q72.78 37.05 70.69 37.36L70.65 37.32L70.61 37.28Q69.19 37.30 68.65 37.03L68.64 37.02L68.58 36.96Q68.42 36.53 68.42 36.22L68.48 36.29L68.51 36.32Q68.23 32.99 71.16 31.70L71.03 31.57L71.17 31.70Q71.86 31.29 72.62 31.37Z"/></svg>