<svg xmlns="http://www.w3.org/2000/svg" width="150" height="50" viewBox="0,0,150,50"><path fill="#333" d="M30.32 40.32L30.44 40.44L30.41 40.42Q27.37 36.46 24.75 27.82L24.76 27.83L24.84 27.92Q24.10 25.69 23.30 23.56L23.20 23.46L20.38 32.29L20.43 32.33Q18.68 37.33 16.28 40.56L16.14 40.42L16.24 40.52Q15.41 40.60 13.78 40.76L13.75 40.74L13.73 40.72Q13.76 39.45 13.76 38.19L13.79 38.22L13.84 38.27Q13.88 32.30 11.14 26.17L11.12 26.15L11.20 26.23Q8.05 19.31 2.19 14.33L2.16 14.30L2.11 14.25Q4.26 14.95 6.62 15.48L6.70 15.56L6.59 15.45Q15.23 23.87 16.53 34.83L16.57 34.87L16.64 34.94Q18.31 31.66 19.76 26.29L19.66 26.20L19.61 26.15Q21.61 18.67 22.11 17.27L22.16 17.31L24.46 17.37L24.32 17.23Q25.18 19.43 25.83 21.75L25.78 21.70L27.03 26.15L26.92 26.03Q28.59 31.59 30.00 34.83L29.98 34.81L30.01 34.84Q31.70 23.24 39.62 15.89L39.53 15.80L39.47 15.75Q41.07 15.48 44.04 14.83L44.07 14.86L43.97 14.76Q38.68 19.11 35.64 25.24L35.71 25.31L35.71 25.31Q32.55 31.47 32.55 38.25L32.62 38.32L32.57 38.27Q32.51 39.31 32.59 40.46L32.73 40.60L31.49 40.39L31.55 40.45Q30.86 40.29 30.29 40.29ZM36.53 43.18L36.53 43.18L36.64 43.29Q35.40 39.73 35.51 35.84L35.50 35.84L35.42 35.75Q35.77 24.22 45.13 15.96L45.11 15.93L45.23 16.06Q44.30 16.31 42.35 16.84L42.34 16.83L42.30 16.78Q43.34 16.03 45.24 14.24L45.22 14.22L45.12 14.12Q42.56 14.99 39.63 15.48L39.65 15.50L39.46 15.32Q32.08 22.55 30.17 32.03L30.19 32.04L30.24 32.10Q29.64 30.43 26.79 18.97L26.65 18.84L26.74 18.93Q26.34 19.02 25.39 19.02L25.44 19.08L25.10 17.97L25.06 17.93Q24.85 17.30 24.62 16.81L24.75 16.94L21.81 16.89L21.74 16.82Q20.89 19.25 19.62 24.37L19.60 24.35L19.71 24.46Q18.51 29.65 17.52 32.13L17.34 31.95L17.38 31.99Q15.87 24.16 10.31 17.84L10.34 17.87L10.25 17.78Q9.72 17.67 8.77 17.48L8.93 17.64L8.96 17.67Q8.24 16.83 6.68 15.20L6.65 15.17L6.59 15.11Q3.28 14.39 1.11 13.59L0.94 13.42L0.94 13.42Q6.78 18.27 10.05 24.47L10.07 24.49L10.00 24.42Q13.49 31.06 13.49 38.07L13.50 38.09L13.52 38.10Q13.45 39.59 13.26 41.19L13.16 41.09L13.23 41.16Q13.52 41.23 13.98 41.13L13.93 41.08L13.88 41.03Q14.38 40.98 14.61 40.98L14.57 40.94L14.57 41.97L14.67 42.07Q14.70 42.56 14.78 43.09L14.75 43.06L14.60 42.91Q15.87 42.97 18.16 42.82L18.08 42.74L18.08 42.74Q21.68 37.32 24.42 27.91L24.54 28.04L24.55 28.05Q27.30 36.80 30.27 40.76L30.21 40.71L30.30 40.80Q30.67 40.71 31.50 40.82L31.60 40.91L31.56 40.87Q32.42 41.93 33.49 43.00L33.42 42.93L33.38 42.89Q34.25 43.04 36.65 43.30Z"/><path fill="#111" d="M129.73 41.50L129.70 41.48L129.88 41.65Q127.69 41.17 125.52 41.02L125.49 41.00L125.42 40.92Q124.03 39.54 121.37 35.69L121.35 35.67L121.51 35.83Q119.20 38.81 116.80 41.25L116.88 41.33L114.74 41.66L114.66 41.59Q113.66 41.85 112.67 42.11L112.70 42.14L112.65 42.08Q116.86 38.00 119.87 33.89L119.88 33.90L119.80 33.82Q116.60 29.70 111.19 24.91L111.11 24.82L111.13 24.84Q113.50 25.73 116.20 26.15L116.17 26.12L116.08 26.03Q119.63 29.24 121.54 31.94L121.37 31.78L121.54 31.94Q123.63 28.85 126.37 26.34L126.35 26.32L126.35 26.32Q129.33 25.92 131.16 25.42L131.11 25.37L131.10 25.36Q126.69 29.14 123.00 33.71L122.90 33.61L122.88 33.59Q126.38 38.38 129.85 41.62ZM132.68 24.74L132.69 24.74L132.66 24.71Q129.68 25.46 126.14 25.81L126.22 25.89L126.14 25.81Q123.35 28.58 121.64 31.05L121.58 31.00L121.69 31.10Q120.81 30.07 119.17 28.09L119.00 27.92L118.92 28.03L118.91 28.02Q118.84 28.06 118.73 28.06L118.60 27.94L118.56 27.90Q117.95 27.21 116.31 25.76L116.19 25.64L116.13 25.59Q112.57 25.07 109.72 23.85L109.71 23.85L109.82 23.95Q115.30 28.71 119.34 33.85L119.34 33.86L119.29 33.80Q116.03 38.54 111.62 42.84L111.60 42.82L111.56 42.79Q111.84 42.72 115.34 41.88L115.30 41.84L115.28 41.82Q113.84 43.24 112.21 44.58L112.13 44.50L112.14 44.51Q115.31 43.57 118.47 43.38L118.57 43.48L118.54 43.45Q120.86 41.12 122.76 38.38L122.85 38.47L122.76 38.38Q124.28 40.24 125.50 41.42L125.35 41.27L125.44 41.37Q125.63 41.44 125.70 41.51L125.58 41.39L125.90 41.52L125.77 41.39Q127.10 42.56 128.43 43.63L128.36 43.56L128.41 43.61Q132.04 44.19 134.93 45.22L134.87 45.16L134.90 45.19Q128.68 40.68 124.99 35.51L124.99 35.51L125.09 35.60Q128.76 30.59 133.32 26.52L133.25 26.45L133.21 26.41Q132.25 26.74 131.26 26.97L131.30 27.00L129.24 27.43L129.26 27.44Q130.47 26.56 132.64 24.69Z"/><path fill="#222" d="M67.98 33.33L68.03 33.38L68.00 33.35Q67.70 36.02 66.52 40.66L66.61 40.76L66.64 40.79Q64.88 41.34 63.28 42.14L63.32 42.19L63.22 42.09Q65.81 35.05 65.55 27.63L65.60 27.68L65.63 27.71Q65.23 20.19 62.15 13.45L62.24 13.55L62.20 13.51Q64.18 14.80 66.05 15.37L66.01 15.33L66.01 15.34Q68.17 22.33 68.17 28.99L68.27 29.09L68.17 28.99Q68.17 30.44 68.10 31.93L68.17 31.99L68.18 32.01Q69.29 30.76 74.51 25.81L74.44 25.74L74.56 25.86Q75.55 25.75 76.54 25.68L76.55 25.69L78.64 25.53L78.56 25.45Q75.45 28.50 71.14 32.27L71.26 32.39L71.10 32.22Q74.44 34.96 80.91 40.78L80.97 40.84L80.94 40.81Q78.28 39.97 75.31 39.78L75.34 39.82L75.31 39.78Q72.91 37.80 68.04 33.39ZM77.83 42.46L77.76 42.39L77.89 42.52Q82.52 43.27 85.64 45.21L85.67 45.24L85.77 45.33Q84.44 43.90 81.82 41.50L81.92 41.60L81.97 41.65Q82.07 41.60 82.34 41.71L82.40 41.77L82.31 41.69Q80.37 39.82 78.12 37.92L78.11 37.90L73.71 34.04L73.64 33.97Q78.63 29.78 81.07 26.89L80.96 26.78L81.02 26.84Q79.87 26.99 77.39 27.25L77.21 27.07L77.34 27.19Q79.01 25.82 79.69 24.98L79.50 24.79L79.52 24.81Q76.78 25.35 74.31 25.35L74.38 25.42L74.40 25.44Q72.93 26.67 70.19 29.34L70.18 29.33L70.14 29.28Q70.19 23.55 69.20 17.73L69.12 17.64L69.22 17.75Q68.46 17.51 66.97 17.25L66.94 17.22L67.06 17.34Q66.86 16.56 66.40 15.08L66.34 15.02L66.31 14.99Q63.70 14.20 61.45 12.64L61.57 12.76L61.55 12.74Q64.84 19.42 65.19 27.53L65.20 27.55L65.34 27.69Q65.56 35.48 62.55 42.71L62.63 42.79L62.62 42.78Q63.29 42.46 64.62 41.82L64.61 41.81L64.59 41.78Q64.50 42.76 63.86 44.21L63.76 44.11L63.74 44.09Q66.61 43.05 68.75 42.66L68.71 42.63L68.69 42.61Q69.22 40.05 69.71 35.79L69.86 35.94L69.82 35.90Q72.41 38.15 77.86 42.49Z"/><path fill="#333" d="M50.24 27.16L50.19 27.11L50.34 27.26Q50.97 27.09 52.38 26.94L52.45 27.01L52.43 27.00Q52.47 27.72 52.47 28.37L52.37 28.26L52.44 29.59L52.36 29.52Q51.65 29.64 50.81 29.71L50.82 29.72L50.67 29.58Q49.93 29.71 49.10 29.67L49.13 29.71L49.05 29.62Q46.27 35.87 42.85 40.48L42.86 40.49L42.84 40.47Q40.31 41.10 39.01 41.71L39.00 41.70L39.02 41.72Q43.17 36.04 46.21 29.76L46.12 29.66L43.60 29.77L43.56 29.73Q43.58 28.42 43.47 27.09L43.40 27.02L43.45 27.08Q45.21 27.08 47.26 27.08L47.39 27.21L49.17 23.39L49.24 23.46Q50.19 21.52 51.41 19.92L51.46 19.97L51.54 20.05Q49.95 20.17 48.35 20.17L48.29 20.12L48.39 20.22Q42.20 20.11 38.43 17.90L38.53 18.00L37.73 16.14L37.80 16.21Q37.37 15.28 36.99 14.41L37.01 14.43L37.06 14.48Q41.39 17.09 47.10 17.32L47.12 17.34L47.16 17.38Q52.26 17.57 57.40 15.59L57.33 15.52L57.43 15.63Q57.13 15.94 56.64 16.81L56.78 16.95L56.80 16.98Q53.02 21.56 50.16 27.08ZM58.25 18.20L58.29 18.23L59.28 16.22L59.24 16.18Q58.36 16.74 56.69 17.47L56.69 17.47L56.82 17.11L56.97 17.26Q57.03 17.05 57.14 16.93L57.09 16.88L57.12 16.91Q57.41 16.13 58.13 14.80L58.20 14.87L58.17 14.84Q52.77 17.06 47.03 16.83L47.03 16.83L47.05 16.86Q41.07 16.62 36.31 13.65L36.32 13.67L36.39 13.73Q37.37 15.55 38.21 18.21L38.25 18.26L38.26 18.27Q39.26 18.81 40.05 19.11L40.03 19.09L40.19 19.25Q40.21 19.46 40.67 21.32L40.83 21.48L40.80 21.45Q43.80 22.55 49.32 22.40L49.48 22.55L49.38 22.45Q49.13 23.08 47.15 26.85L47.16 26.87L47.19 26.89Q45.13 26.89 43.15 26.70L43.06 26.61L43.02 26.57Q43.22 27.53 43.22 28.40L43.27 28.45L43.23 30.12L44.82 30.04L44.93 31.57L44.84 31.47Q41.00 38.93 38.22 42.51L38.19 42.48L38.17 42.46Q39.72 41.65 41.36 41.16L41.39 41.20L41.39 41.19Q40.71 42.11 39.34 43.82L39.34 43.82L39.25 43.73Q42.44 42.66 44.88 42.43L44.87 42.42L44.83 42.39Q47.87 38.73 51.00 31.95L50.92 31.88L54.38 32.10L54.45 32.17Q54.42 31.30 54.42 30.39L54.33 30.30L54.23 28.42L54.31 28.49Q54.14 28.59 53.59 28.62L53.41 28.45L53.49 28.53Q52.97 28.59 52.70 28.59L52.69 28.59L52.77 28.67Q52.59 28.37 52.62 28.22L52.82 28.41L52.78 28.10L52.68 28.00Q55.15 22.83 58.24 18.18Z"/><path fill="#444" d="M97.76 29.96L97.65 29.85L97.80 30.00Q95.11 29.70 93.78 30.92L93.79 30.93L93.74 30.89Q92.60 32.29 92.90 34.81L92.88 34.78L92.88 34.79Q93.19 37.30 94.41 38.56L94.29 38.44L94.26 38.41Q95.37 39.79 97.50 39.71L97.50 39.71L97.56 39.77Q98.16 39.80 98.35 39.80L98.30 39.74L98.20 39.65Q101.91 39.21 102.02 34.60L101.97 34.55L102.04 34.61Q101.96 32.10 101.28 31.30L101.36 31.39L101.30 31.32Q100.30 30.09 97.75 29.94ZM100.94 41.55L101.03 41.63L100.99 41.60Q99.60 42.11 98.04 42.04L98.17 42.17L98.08 42.08Q94.31 42.34 93.01 39.75L93.10 39.84L93.13 39.87Q92.90 45.16 91.57 49.42L91.54 49.40L91.47 49.33Q89.67 49.81 88.03 50.53L88.16 50.66L88.09 50.59Q90.61 44.58 90.34 37.61L90.37 37.64L90.42 37.69Q90.17 30.86 87.28 24.80L87.27 24.80L87.19 24.72Q89.10 25.87 90.81 26.32L90.86 26.37L91.35 27.81L91.34 27.80Q91.44 28.12 91.70 29.23L91.68 29.21L91.69 29.21Q92.72 27.16 96.30 26.97L96.30 26.97L96.42 27.10Q97.30 27.06 98.18 27.06L98.12 27.01L98.61 27.00L98.71 27.10Q98.78 27.05 98.97 27.09L98.92 27.04L99.33 27.14L99.30 27.11Q101.29 27.31 102.01 27.54L102.01 27.54L102.00 27.53Q103.60 28.10 104.47 29.05L104.47 29.05L104.39 28.97Q105.33 30.26 105.29 31.66L105.12 31.49L105.18 31.55Q105.22 34.45 104.42 37.11L104.33 37.02L104.48 37.17Q103.42 40.65 101.06 41.67ZM105.38 42.33L105.19 42.11L105.37 42.29Q106.40 40.23 106.71 36.12L106.70 36.12L106.64 36.06Q106.78 34.30 106.78 33.04L106.80 33.05L106.81 33.07Q106.96 31.70 106.20 30.29L106.07 30.15L106.07 30.16Q105.72 29.77 105.23 29.39L105.10 29.26L104.99 29.04L104.90 28.84L104.72 28.54L104.81 28.63Q103.14 26.66 98.80 26.66L98.84 26.70L98.07 26.53L98.05 26.51Q93.44 26.55 91.80 28.15L91.78 28.12L91.92 28.27Q91.73 27.74 91.58 27.24L91.50 27.16L91.28 26.14L91.32 26.18Q88.71 25.44 86.51 23.96L86.51 23.96L86.46 23.91Q89.73 30.23 90.04 37.46L90.09 37.51L90.16 37.58Q90.27 44.66 87.42 51.14L87.56 51.28L89.50 50.36L89.45 50.31Q89.35 51.20 88.66 52.76L88.54 52.63L88.62 52.72Q91.32 51.65 93.64 51.30L93.60 51.26L93.60 51.27Q94.76 46.49 94.92 42.76L94.89 42.73L94.85 42.69Q96.30 44.21 99.91 44.44L99.96 44.49L99.97 44.50Q103.76 44.60 105.21 42.16L105.28 42.23ZM99.61 32.15L99.65 32.19L99.66 32.20Q100.18 32.00 101.29 32.34L101.30 32.35L101.46 32.51Q101.72 33.50 101.69 34.68L101.58 34.58L101.69 34.68Q101.62 35.53 101.43 36.18L101.39 36.13L101.41 36.16Q100.74 39.10 98.23 39.41L98.21 39.39L98.36 39.42L98.23 39.30Q98.20 39.34 98.08 39.38L98.18 39.47L97.65 39.48L97.50 39.33Q96.33 39.33 95.34 38.84L95.48 38.98L94.96 36.75L95.02 36.81Q94.93 34.55 96.22 33.52L96.16 33.45L96.09 33.39Q97.29 32.50 99.69 32.23Z"/></svg>