<svg xmlns="http://www.w3.org/2000/svg" width="150" height="50" viewBox="0,0,150,50"><path fill="#444" d="M128.29 37.86L128.25 37.81L128.36 37.93Q128.57 38.83 129.11 40.84L129.11 40.85L129.09 40.83Q124.90 39.53 120.29 39.80L120.39 39.89L120.25 39.76Q115.72 40.06 111.72 42.04L111.84 42.15L111.75 42.06Q111.95 41.35 111.99 41.43L111.95 41.39L112.13 41.57Q115.84 37.59 119.76 33.17L119.76 33.17L119.79 33.20Q124.17 28.18 125.35 23.50L125.29 23.43L125.32 23.47Q125.69 21.63 124.42 20.45L124.52 20.56L124.44 20.48Q123.28 19.41 121.50 19.56L121.50 19.57L121.47 19.54Q121.16 19.54 120.82 19.54L120.71 19.43L120.77 19.49Q119.23 19.47 117.98 20.38L117.97 20.38L117.93 20.34Q116.65 21.72 116.88 24.39L116.81 24.33L116.96 24.47Q115.14 24.09 113.92 23.64L113.84 23.56L113.89 23.61Q113.64 22.14 113.57 20.70L113.56 20.69L113.65 20.78Q113.58 19.15 114.19 18.01L114.14 17.96L114.12 17.93Q115.90 16.56 119.25 16.56L119.33 16.64L120.94 16.50L121.12 16.68Q123.27 16.58 124.23 16.70L124.27 16.75L124.21 16.68Q128.60 17.15 128.87 19.59L128.82 19.54L128.93 19.65Q128.98 20.20 128.91 21.00L128.88 20.97L128.82 20.91Q128.87 21.65 128.72 22.34L128.60 22.21L128.68 22.30Q127.05 30.41 119.47 37.26L119.53 37.32L119.50 37.29Q120.85 37.08 122.22 37.08L122.31 37.17L122.30 37.16Q125.56 37.18 128.42 37.98ZM127.68 17.00L127.71 17.02L127.74 17.05Q126.21 16.47 124.49 16.39L124.53 16.43L121.11 16.24L120.96 16.10Q116.54 15.87 114.33 16.97L114.37 17.00L114.28 16.92Q113.34 18.42 113.34 20.47L113.29 20.42L113.37 20.50Q113.37 21.19 113.68 24.00L113.55 23.88L113.73 24.05Q114.27 24.30 115.45 24.60L115.38 24.53L115.38 25.55L115.27 25.45Q115.34 26.01 115.41 26.54L115.49 26.62L115.47 26.60Q116.55 26.54 119.03 26.77L119.21 26.95L119.12 26.85Q119.15 26.54 119.15 26.20L119.01 26.06L119.03 26.08Q119.10 24.32 120.32 22.97L120.34 22.99L120.30 22.96Q121.52 21.60 123.30 21.72L123.29 21.70L123.41 21.82Q124.12 21.81 124.88 21.96L124.76 21.84L124.79 21.86Q124.96 22.31 125.04 22.73L124.94 22.63L125.08 22.76Q125.04 23.11 124.97 23.45L124.94 23.43L124.90 23.39Q123.74 28.24 119.32 33.08L119.28 33.03L119.28 33.04Q117.10 35.24 111.66 41.29L111.70 41.33L111.79 41.42Q111.60 42.26 111.26 42.83L111.19 42.76L111.25 42.82Q112.85 41.95 114.38 41.42L114.42 41.46L114.32 41.36Q113.53 41.86 112.58 43.35L112.70 43.47L112.69 43.46Q112.45 43.68 112.33 44.02L112.51 44.20L112.39 44.07Q117.40 42.15 122.88 42.34L122.70 42.16L122.84 42.31Q128.45 42.39 133.01 44.75L133.07 44.81L132.01 42.61L132.08 42.67Q131.41 41.32 131.14 40.52L131.02 40.40L131.13 40.50Q130.47 40.15 129.25 39.73L129.22 39.70L129.18 39.66Q128.93 38.83 128.55 37.46L128.64 37.56L128.65 37.57Q126.40 36.96 124.12 36.77L124.08 36.73L124.15 36.80Q128.78 32.18 130.30 23.92L130.26 23.88L130.60 21.13L130.54 21.07Q130.44 19.26 129.22 18.57L129.29 18.64L129.19 18.58L129.29 18.68Q129.15 18.51 129.08 18.51L129.08 18.51L129.15 18.58Q128.96 17.78 127.86 17.17Z"/><path fill="#333" d="M74.89 27.15L74.94 27.19L74.89 27.15Q75.66 27.12 77.07 26.96L77.04 26.94L77.07 26.97Q76.98 27.57 76.98 28.21L77.10 28.33L77.06 29.54L77.18 29.66Q76.25 29.57 75.41 29.65L75.35 29.59L75.33 29.57Q74.55 29.66 73.71 29.62L73.83 29.74L73.78 29.69Q70.87 35.81 67.45 40.41L67.36 40.33L67.53 40.50Q64.95 41.08 63.66 41.69L63.59 41.61L63.64 41.67Q67.72 35.93 70.76 29.64L70.82 29.70L68.25 29.76L68.24 29.74Q68.26 28.43 68.14 27.10L68.04 27.00L68.01 26.96Q70.02 27.22 72.07 27.22L72.03 27.18L73.84 23.39L73.93 23.48Q74.86 21.52 76.07 19.92L76.22 20.06L76.22 20.06Q74.59 20.14 72.99 20.14L73.07 20.22L72.94 20.09Q66.93 20.18 63.16 17.97L63.16 17.96L62.50 16.25L62.56 16.30Q62.16 15.41 61.78 14.53L61.65 14.40L61.83 14.58Q66.00 17.03 71.71 17.26L71.84 17.39L71.76 17.32Q76.98 17.63 82.12 15.65L81.99 15.51L81.99 15.51Q81.92 16.06 81.43 16.93L81.32 16.82L81.47 16.98Q77.78 21.66 74.93 27.18ZM83.00 18.28L82.95 18.23L83.98 16.24L83.89 16.16Q83.11 16.83 81.43 17.55L81.42 17.53L81.44 17.06L81.56 17.18Q81.64 17.00 81.76 16.88L81.79 16.92L81.76 16.88Q82.09 16.15 82.81 14.82L82.95 14.96L82.86 14.86Q77.49 17.10 71.74 16.87L71.82 16.96L71.86 16.99Q65.70 16.58 60.94 13.61L61.08 13.76L60.98 13.65Q61.95 15.46 62.79 18.13L62.91 18.25L62.91 18.25Q63.94 18.82 64.74 19.13L64.78 19.17L64.84 19.23Q65.02 19.60 65.47 21.46L65.32 21.31L65.31 21.30Q68.50 22.58 74.02 22.43L74.01 22.42L74.08 22.49Q73.82 23.11 71.84 26.87L71.74 26.77L71.73 26.77Q69.65 26.74 67.67 26.55L67.85 26.73L67.78 26.66Q67.92 27.56 67.92 28.43L67.92 28.44L67.90 30.13L69.61 30.16L69.53 31.50L69.51 31.48Q65.67 38.94 62.89 42.52L62.77 42.40L62.76 42.39Q64.45 41.72 66.08 41.22L65.99 41.12L65.98 41.12Q65.35 42.08 63.98 43.79L63.99 43.81L64.08 43.90Q67.05 42.60 69.48 42.37L69.50 42.39L69.52 42.41Q72.45 38.64 75.57 31.86L75.56 31.85L79.05 32.11L79.10 32.15Q78.91 31.12 78.91 30.21L78.95 30.26L78.98 28.50L79.08 28.60Q78.65 28.43 78.10 28.47L78.21 28.58L78.19 28.56Q77.64 28.60 77.37 28.60L77.42 28.65L77.35 28.58Q77.38 28.50 77.42 28.34L77.38 28.31L77.31 27.97L77.31 27.97Q79.92 22.93 83.01 18.28Z"/><path fill="#444" d="M18.38 40.27L18.49 40.37L18.44 40.32Q17.09 40.45 15.53 40.04L15.41 39.92L15.41 39.92Q14.37 39.19 14.22 37.55L14.15 37.47L14.17 37.50Q14.13 37.30 14.32 34.68L14.33 34.69L14.30 34.65Q15.27 34.41 17.29 34.03L17.35 34.09L17.09 34.79L17.11 34.81Q16.83 36.54 18.24 37.11L18.34 37.21L18.25 37.13Q19.03 37.45 21.13 37.45L21.26 37.58L21.08 37.40Q22.78 37.35 22.97 37.27L22.90 37.21L22.97 37.28Q23.80 37.04 24.52 36.54L24.63 36.65L24.60 36.62Q25.94 35.60 25.75 33.51L25.90 33.66L25.75 33.51Q25.69 31.20 23.96 29.64L23.95 29.63L23.97 29.65Q22.12 27.98 19.65 27.98L19.76 28.08L19.66 27.76L19.65 27.75Q20.11 27.79 20.98 27.71L20.96 27.69L21.02 27.75Q22.78 27.50 24.16 26.26L24.30 26.41L24.20 26.30Q25.58 25.08 25.73 23.21L25.79 23.27L25.65 23.13Q25.76 22.82 25.76 22.47L25.76 22.47L25.76 22.47Q25.79 20.98 24.42 20.07L24.36 20.01L24.50 20.15Q23.21 19.28 21.61 19.40L21.60 19.39L21.65 19.43Q20.33 19.25 19.11 19.67L19.06 19.62L19.13 19.69Q17.64 20.18 17.33 21.32L17.36 21.35L17.43 21.42Q17.20 22.14 17.27 22.90L17.18 22.81L17.33 22.96Q16.29 22.72 14.24 22.00L14.11 21.87L14.20 21.96Q13.96 20.28 14.00 19.44L14.04 19.47L13.89 19.32Q14.08 17.88 15.15 17.19L15.09 17.13L15.06 17.10Q16.58 16.61 18.18 16.61L18.17 16.60L18.07 16.50Q21.34 16.57 24.50 16.83L24.55 16.88L24.42 16.75Q29.57 17.26 29.26 21.03L29.31 21.08L29.21 20.98Q29.14 22.47 28.65 24.03L28.67 24.05L28.70 24.08Q27.71 27.10 25.35 28.01L25.40 28.06L25.37 28.02Q28.06 28.63 28.67 31.98L28.63 31.93L28.70 32.00Q28.80 33.02 28.88 35.03L29.01 35.17L28.94 35.10Q29.05 39.51 24.45 39.97L24.40 39.92L24.40 39.92Q23.66 39.98 18.37 40.25ZM23.75 42.66L23.71 42.62L23.70 42.61Q24.36 42.70 27.21 42.77L27.07 42.63L27.22 42.78Q28.89 42.77 30.52 42.12L30.62 42.22L30.43 42.03Q31.76 41.23 31.57 39.48L31.42 39.33L31.58 39.49Q31.37 38.06 31.06 36.31L31.12 36.37L31.00 36.25Q30.41 31.88 28.47 30.25L28.45 30.23L28.18 29.77L28.30 29.85L28.23 29.78Q29.99 28.34 30.75 23.97L30.63 23.84L30.63 23.85Q30.85 23.57 30.96 22.62L30.88 22.54L30.81 22.47Q30.96 21.78 30.89 21.09L30.90 21.10L30.78 20.99Q30.79 19.48 29.50 18.79L29.41 18.71L29.30 18.67L29.44 18.81Q29.00 17.69 27.86 17.15L27.86 17.15L27.89 17.18Q26.39 16.52 21.25 16.22L21.21 16.17L21.26 16.23Q19.58 16.15 17.98 16.15L17.89 16.06L18.05 16.21Q16.44 16.20 14.92 16.85L14.85 16.78L14.83 16.76Q13.67 17.58 13.67 19.33L13.58 19.24L13.53 19.19Q13.63 18.88 13.90 22.23L13.90 22.23L13.94 22.27Q14.17 22.27 15.81 22.88L15.79 22.87L15.85 22.92Q15.79 23.39 15.75 23.89L15.77 23.91L15.87 24.00Q15.70 24.33 15.74 24.86L15.78 24.91L15.90 25.02Q17.56 25.28 19.58 25.39L19.57 25.39L19.73 25.55Q19.65 23.52 20.75 22.69L20.68 22.61L20.60 22.53Q21.56 22.01 23.58 21.78L23.50 21.70L23.61 21.82Q24.65 21.71 25.23 21.90L25.14 21.82L25.24 21.92Q25.30 22.06 25.34 22.17L25.29 22.12L25.35 22.37L25.52 22.99L25.47 22.95Q25.47 23.13 25.43 23.29L25.39 23.25L25.34 23.20Q25.24 24.89 23.72 26.07L23.85 26.20L23.85 26.21Q22.97 27.15 20.96 27.34L20.80 27.19L20.76 27.15Q20.24 27.50 19.36 27.50L19.19 27.33L19.36 27.50Q19.28 27.72 19.43 28.40L19.39 28.36L19.43 28.40Q21.29 28.51 22.74 29.24L22.65 29.16L22.53 29.14L20.95 29.32L20.90 29.26Q21.03 29.70 21.14 30.31L21.16 30.33L21.22 30.38Q23.27 30.23 24.99 31.56L25.00 31.58L25.05 31.63Q25.25 31.97 25.55 33.61L25.60 33.66L25.48 33.54Q25.66 36.46 22.73 36.88L22.71 36.86L22.73 36.88Q20.75 37.26 20.18 37.22L20.14 37.19L20.01 37.06Q19.63 37.02 19.10 36.94L19.15 37.00L19.02 36.41L19.26 36.08L19.25 35.65L19.31 35.36L19.30 35.35Q18.29 35.37 17.49 35.56L17.56 35.63L17.52 35.59Q17.45 35.33 17.45 35.14L17.58 35.27L17.47 35.16Q17.58 35.04 17.58 34.81L17.62 34.86L17.64 34.88Q17.60 34.38 17.76 33.66L17.69 33.60L17.74 33.64Q15.94 33.93 14.07 34.28L13.92 34.12L13.91 34.11Q14.03 34.74 13.92 35.86L13.94 35.88L13.95 35.89Q13.72 36.89 13.72 37.50L13.84 37.63L13.81 37.60Q13.80 39.56 15.17 40.32L15.20 40.35L15.32 40.47Q16.68 42.63 21.40 42.44L21.39 42.43L21.49 42.53Q22.23 42.51 23.75 42.66Z"/><path fill="#333" d="M46.49 40.12L46.53 40.16L44.12 33.30L44.20 33.38Q39.70 20.65 33.76 14.26L33.76 14.26L33.82 14.32Q35.76 15.31 38.35 15.92L38.53 16.10L38.50 16.07Q43.65 22.37 47.99 35.12L48.02 35.15L47.88 35.00Q51.01 26.98 51.70 25.39L51.59 25.27L51.63 25.31Q54.15 19.84 56.97 16.53L56.91 16.48L56.91 16.48Q58.85 15.98 61.48 15.10L61.56 15.18L61.52 15.14Q57.06 19.86 54.01 27.09L53.93 27.01L53.84 26.92Q52.63 30.77 48.93 40.28L48.91 40.27L48.85 40.20Q48.35 40.27 47.77 40.23L47.64 40.09L47.73 40.18Q47.20 40.23 46.63 40.27ZM51.51 42.56L51.60 42.65L51.68 42.72Q54.42 32.68 55.98 28.64L56.00 28.66L56.00 28.66Q58.84 20.80 63.25 15.93L63.31 15.99L63.40 16.07Q62.22 16.30 60.13 17.03L60.26 17.16L61.35 15.77L61.40 15.82Q61.85 15.02 62.46 14.37L62.61 14.52L62.48 14.39Q59.77 15.49 56.76 16.06L56.64 15.94L56.74 16.03Q52.30 21.30 48.42 32.76L48.54 32.89L48.49 32.84Q44.89 22.76 41.69 18.39L41.67 18.36L41.55 18.24Q41.15 18.15 40.27 17.99L40.38 18.10L40.40 18.12Q40.21 17.78 38.61 15.73L38.49 15.60L38.61 15.72Q35.48 14.84 32.78 13.43L32.81 13.46L32.91 13.57Q39.48 20.59 43.86 33.38L43.90 33.42L43.94 33.46Q45.09 37.05 46.27 40.62L46.24 40.60L46.25 40.61Q46.59 40.65 47.43 40.53L47.57 40.67L47.39 40.49Q47.75 41.19 48.44 42.53L48.41 42.51L48.54 42.63Q49.38 42.56 50.10 42.64L50.05 42.58L50.15 42.68Q50.84 42.65 51.60 42.65Z"/><path fill="#333" d="M95.82 19.64L95.82 19.64L94.32 19.81L94.16 19.66Q92.09 19.94 91.86 21.96L91.71 21.81L91.80 21.90Q91.69 22.59 91.73 23.58L91.79 23.64L91.65 23.51Q91.72 25.48 92.98 26.81L93.13 26.96L93.09 26.92Q94.29 28.20 96.20 28.05L96.18 28.04L96.13 27.99Q98.33 27.97 99.09 27.06L99.03 27.00L98.97 26.94Q100.09 26.08 100.35 23.83L100.39 23.87L100.31 23.79Q100.55 21.51 99.29 20.68L99.39 20.77L99.27 20.66Q98.39 19.85 95.73 19.55ZM101.81 28.83L101.80 28.82L100.60 31.20L100.66 31.26Q97.80 35.89 94.03 39.97L94.13 40.07L94.00 39.94Q92.47 40.20 89.77 41.00L89.73 40.96L89.79 41.02Q95.00 34.62 98.16 29.82L98.23 29.90L98.27 29.93Q97.26 30.60 95.63 30.68L95.51 30.56L95.54 30.60Q92.55 30.76 91.03 28.78L91.10 28.85L90.97 28.73Q89.93 27.30 88.82 22.73L88.65 22.56L88.77 22.68Q88.71 22.16 88.55 21.23L88.60 21.27L88.62 21.30Q88.36 20.25 88.36 19.79L88.40 19.84L88.35 19.78Q88.43 18.07 89.49 17.46L89.57 17.54L89.47 17.44Q90.62 16.62 92.49 16.62L92.58 16.71L92.63 16.76Q95.68 16.60 95.68 16.60L95.79 16.71L95.86 16.79Q98.00 16.79 99.25 16.98L99.16 16.89L99.19 16.92Q101.33 17.20 102.25 17.69L102.18 17.63L102.30 17.75Q103.57 18.41 103.76 20.16L103.74 20.14L103.81 20.21Q103.86 20.49 103.67 23.15L103.56 23.04L103.60 23.08Q103.32 25.31 103.09 26.15L102.98 26.04L103.10 26.16Q102.54 27.39 101.78 28.80ZM103.82 31.33L103.82 31.33L103.80 31.32Q104.74 29.06 105.28 24.76L105.26 24.74L105.35 24.83Q105.47 22.47 105.43 21.60L105.54 21.71L105.47 21.64Q105.44 19.78 104.26 18.87L104.34 18.95L103.99 18.79L103.95 18.75Q103.73 18.03 102.81 17.38L102.87 17.44L102.73 17.30Q100.58 16.45 95.79 16.29L95.79 16.30L95.77 16.28Q94.87 16.33 92.43 16.33L92.40 16.30L92.26 16.16Q90.57 16.22 89.09 16.90L89.16 16.97L89.09 16.91Q87.88 17.64 87.96 19.47L88.09 19.60L88.02 19.53Q88.28 20.51 88.47 22.53L88.33 22.39L88.48 22.55Q88.99 25.07 89.25 25.90L89.22 25.87L89.31 25.96Q89.80 27.75 90.76 29.04L90.73 29.01L90.74 29.03Q91.08 29.44 91.46 29.83L91.41 29.77L91.51 29.87Q91.66 30.22 92.31 31.13L92.38 31.20L92.46 31.28Q93.96 32.67 95.90 32.86L95.79 32.75L95.76 32.71Q93.84 35.36 92.28 37.27L92.28 37.27L88.82 41.80L88.79 41.77Q91.05 41.03 92.69 40.69L92.68 40.67L92.67 40.66Q91.82 41.45 90.26 43.16L90.31 43.22L90.32 43.22Q93.31 42.22 96.44 42.18L96.58 42.33L96.47 42.22Q98.74 39.58 103.08 32.34L103.14 32.41L103.24 32.58L103.18 32.52Q103.49 31.84 103.83 31.35ZM97.73 22.01L97.80 22.08L97.78 22.05Q98.37 21.92 98.83 22.04L98.76 21.97L98.75 21.96Q99.37 22.05 99.75 22.16L99.89 22.30L99.78 22.19Q99.93 22.61 100.01 23.03L100.12 23.14L100.03 23.05Q100.18 23.55 100.07 23.93L99.95 23.81L100.09 23.95Q99.92 25.53 98.74 26.63L98.83 26.72L98.78 26.68Q97.76 27.63 96.12 27.59L96.12 27.59L96.19 27.66Q95.81 27.71 94.29 27.40L94.19 27.30L94.18 27.29Q93.99 26.45 93.99 25.73L94.09 25.83L94.09 25.82Q93.88 25.43 93.88 25.20L93.94 25.26L94.04 25.36Q94.03 23.15 96.32 22.35L96.16 22.19L96.18 22.21Q96.89 22.00 97.73 22.00Z"/></svg>