<svg xmlns="http://www.w3.org/2000/svg" width="150" height="50" viewBox="0,0,150,50"><path fill="#333" d="M119.67 29.79L119.78 29.90L119.85 29.97Q119.52 29.87 119.22 29.87L119.24 29.89L119.23 29.88Q117.83 29.81 116.38 30.65L116.44 30.70L116.47 30.74Q115.15 31.85 115.15 33.76L115.08 33.69L115.04 33.64Q115.04 37.07 116.56 38.40L116.62 38.47L116.60 38.44Q117.53 39.60 119.81 39.60L119.83 39.62L119.79 39.58Q120.18 39.74 120.48 39.74L120.37 39.62L120.40 39.65Q122.02 39.56 123.16 37.92L123.18 37.94L123.24 38.00Q124.35 36.56 124.27 34.77L124.23 34.73L124.21 34.71Q124.35 34.31 124.35 33.89L124.27 33.82L124.30 33.85Q124.34 32.10 122.97 30.94L122.86 30.83L122.93 30.90Q121.49 29.66 119.70 29.81ZM124.16 39.95L124.19 39.98L124.27 40.06Q123.19 41.92 119.46 42.03L119.59 42.15L119.45 42.01Q116.11 42.18 114.51 40.58L114.59 40.66L114.56 40.63Q113.00 38.77 112.20 33.97L112.35 34.12L112.20 33.96Q112.00 32.32 112.00 31.06L111.99 31.05L111.93 31.00Q111.87 29.14 112.59 28.08L112.59 28.08L112.60 28.08Q114.05 26.79 117.02 26.79L117.11 26.88L116.98 26.75Q123.28 26.74 125.19 29.33L125.22 29.36L125.26 29.40Q125.50 28.65 125.92 27.06L125.92 27.05L125.86 26.99Q127.10 26.67 129.54 25.87L129.55 25.88L129.57 25.91Q127.20 31.61 126.97 37.93L126.90 37.85L126.95 37.91Q126.67 44.02 128.80 49.85L128.76 49.80L128.78 49.83Q127.01 49.16 125.22 48.89L125.24 48.91L125.26 48.93Q124.39 45.02 124.28 40.07ZM124.95 49.19L125.00 49.24L124.93 49.17Q125.76 49.43 127.17 49.73L127.10 49.67L127.11 49.68Q127.29 50.35 127.86 51.76L127.90 51.80L127.85 51.74Q130.50 52.53 132.78 53.82L132.79 53.84L132.83 53.87Q128.87 47.36 128.87 38.83L128.87 38.83L128.72 38.68Q128.78 32.38 131.25 26.60L131.25 26.60L131.19 26.54Q130.61 26.95 129.24 27.60L129.28 27.63L129.23 27.58Q129.46 26.71 130.11 25.15L130.15 25.19L130.12 25.16Q128.53 25.66 125.33 26.54L125.51 26.72L125.33 26.54Q125.23 27.13 124.93 28.31L124.96 28.34L125.06 28.44Q123.02 26.51 116.89 26.36L116.91 26.38L116.84 26.31Q113.57 26.16 112.20 27.65L112.39 27.84L112.37 27.82Q111.59 28.94 111.62 30.84L111.56 30.78L111.49 30.70Q111.69 33.80 112.68 37.57L112.59 37.48L112.71 37.60Q113.25 39.89 114.16 40.84L114.14 40.82L114.62 41.30L114.59 41.27Q115.81 44.08 121.25 44.31L121.15 44.21L121.18 44.24Q122.23 44.30 124.06 44.00L124.11 44.05L124.16 44.10Q124.47 47.04 125.08 49.32ZM121.65 32.19L121.64 32.18L121.54 32.08Q122.66 32.13 123.50 32.44L123.46 32.40L123.61 32.55Q123.74 33.02 123.85 33.63L123.77 33.55L123.93 33.70Q124.04 34.27 123.97 34.88L123.90 34.82L123.77 34.69Q123.89 36.71 122.86 38.01L122.81 37.95L122.85 37.99Q121.71 39.44 119.84 39.25L119.91 39.32L119.90 39.30Q118.57 39.27 117.62 38.85L117.64 38.88L117.52 38.75Q117.32 38.09 117.32 36.88L117.24 36.80L117.22 36.78Q117.26 36.52 117.26 36.21L117.11 36.06L117.22 36.17Q117.27 34.47 118.60 33.31L118.58 33.29L118.49 33.19Q119.86 32.07 121.61 32.15Z"/><path fill="#111" d="M46.07 29.64L46.21 29.78L46.19 29.76Q42.02 29.59 41.45 32.63L41.49 32.67L41.45 32.63Q41.25 33.68 41.44 34.56L41.46 34.58L41.45 34.57Q41.47 35.35 41.92 36.76L41.95 36.79L41.85 36.69Q42.89 39.81 46.20 39.66L46.17 39.63L46.18 39.64Q48.19 39.72 49.53 38.15L49.63 38.26L49.59 38.22Q50.75 36.67 50.75 34.62L50.79 34.66L50.93 34.80Q51.00 34.15 50.85 33.09L50.77 33.01L50.80 33.04Q50.69 32.08 50.27 31.40L50.39 31.52L50.30 31.43Q48.75 29.84 46.16 29.73ZM51.00 48.19L50.93 48.13L50.94 48.13Q49.14 48.73 41.07 49.11L41.17 49.21L41.03 49.08Q39.37 49.17 37.74 48.33L37.79 48.39L37.72 48.32Q38.55 47.36 40.38 45.57L40.46 45.65L40.50 45.69Q42.76 46.58 44.85 46.39L44.86 46.39L44.94 46.48Q47.83 46.21 48.67 45.94L48.67 45.94L48.63 45.90Q50.93 45.27 50.93 43.48L50.98 43.53L50.86 43.41Q50.96 43.28 50.88 43.05L50.76 42.93L50.67 41.35L50.84 41.52Q50.80 40.72 50.80 39.92L50.65 39.77L50.78 39.91Q49.39 42.13 46.00 42.13L45.88 42.01L45.96 42.09Q42.10 42.11 40.46 39.90L40.40 39.84L40.42 39.86Q39.26 38.28 38.46 33.86L38.59 34.00L38.48 33.89Q38.18 32.36 38.18 30.96L38.22 30.99L38.28 31.06Q38.22 29.21 39.13 28.22L39.14 28.22L39.19 28.27Q40.76 26.76 45.41 26.76L45.41 26.77L47.19 26.98L47.27 27.07Q50.41 27.35 51.74 29.29L51.81 29.37L51.66 29.21Q51.85 28.38 52.27 26.74L52.36 26.83L52.35 26.82Q54.26 26.52 56.01 25.80L55.89 25.67L55.93 25.72Q53.37 31.91 53.37 39.15L53.30 39.07L53.31 39.09Q53.36 41.80 53.74 44.42L53.56 44.25L53.60 44.28Q53.87 45.05 53.79 45.73L53.76 45.70L53.75 45.69Q53.48 46.98 52.26 47.74L52.31 47.79L52.32 47.80Q51.93 48.17 51.09 48.29ZM53.99 51.14L54.05 51.21L54.08 51.24Q55.58 51.32 56.34 50.37L56.27 50.30L56.22 50.26Q56.50 49.25 56.39 48.52L56.56 48.69L56.52 48.65Q56.30 47.89 56.11 47.13L56.23 47.26L56.20 47.23Q54.93 41.96 55.27 36.70L55.37 36.80L55.23 36.66Q55.62 31.27 57.75 26.43L57.86 26.54L55.60 27.33L55.76 27.49Q55.88 26.77 56.11 26.19L56.15 26.24L56.67 25.12L56.56 25.01Q54.34 26.10 52.13 26.52L52.00 26.39L52.09 26.48Q51.82 27.40 51.67 28.42L51.58 28.33L51.69 28.44Q49.55 26.49 45.51 26.49L45.37 26.35L43.75 26.48L43.73 26.45Q40.53 26.49 38.85 27.90L38.85 27.90L38.82 27.87Q37.86 28.82 37.90 30.72L37.88 30.69L37.94 30.76Q37.95 33.21 38.98 37.47L39.00 37.49L38.90 37.39Q39.53 39.47 40.75 40.88L40.67 40.79L40.92 41.05L40.99 41.12L41.08 41.21Q42.20 43.51 44.79 44.04L44.70 43.95L44.84 44.09Q46.21 44.36 47.66 44.40L47.66 44.39L47.53 44.27Q49.45 44.47 50.51 44.09L50.36 43.94L50.41 43.99Q49.74 45.48 47.07 45.83L47.10 45.85L47.08 45.84Q46.18 46.15 45.49 46.15L45.40 46.05L45.05 46.09L45.01 46.05Q42.27 46.13 40.59 45.17L40.54 45.12L38.75 46.75L38.87 46.88Q37.99 47.67 37.15 48.62L37.06 48.54L37.13 48.60Q38.03 49.04 39.02 49.23L39.18 49.39L38.15 50.12L38.17 50.13Q40.95 51.28 46.58 51.28L46.61 51.30L46.86 51.33L46.74 51.21Q50.45 51.30 54.03 51.19ZM48.01 32.00L48.00 31.98L48.05 32.04Q49.42 32.03 50.33 32.45L50.32 32.44L50.29 32.41Q50.48 32.90 50.56 33.59L50.44 33.47L50.50 33.53Q50.58 33.88 50.54 34.79L50.57 34.82L50.50 34.75Q50.43 36.66 49.33 37.95L49.41 38.04L49.28 37.91Q48.16 39.38 46.26 39.34L46.27 39.35L46.19 39.28Q44.86 39.32 44.03 38.90L44.08 38.95L44.07 38.94Q43.55 37.66 43.51 36.64L43.60 36.72L43.63 36.75Q43.44 32.34 48.05 32.03Z"/><path fill="#333" d="M17.86 32.98L17.87 32.99L17.76 32.89Q20.88 32.54 24.08 32.65L24.12 32.69L24.10 32.67Q24.07 30.14 24.07 27.74L24.18 27.84L24.03 27.70Q24.02 25.21 24.21 22.66L24.20 22.65L24.24 22.69Q23.12 24.50 17.90 33.03ZM27.66 40.23L27.78 40.35L27.78 40.35Q26.14 40.08 24.35 40.01L24.31 39.96L24.35 40.01Q24.00 37.49 23.89 35.02L23.99 35.12L24.01 35.14Q18.69 34.96 13.97 36.37L13.82 36.21L13.84 36.23Q13.93 35.71 14.12 34.72L14.20 34.80L14.25 34.86Q16.04 31.69 19.62 25.41L19.62 25.42L19.67 25.47Q22.55 20.58 25.98 16.70L25.91 16.63L25.89 16.61Q26.72 16.37 28.39 16.11L28.48 16.19L28.40 16.12Q26.54 22.59 26.54 29.64L26.58 29.67L26.53 29.62Q26.61 31.19 26.69 32.67L26.63 32.62L27.84 32.65L27.88 32.68Q28.50 32.74 29.11 32.85L29.21 32.95L29.20 32.94Q29.29 33.91 29.56 35.85L29.56 35.85L29.43 35.72Q28.25 35.49 26.77 35.30L26.86 35.40L26.85 35.39Q27.14 37.47 27.83 40.40ZM29.37 32.47L29.47 32.56L29.49 32.58Q29.29 32.49 29.10 32.49L28.95 32.35L28.70 32.47L28.72 32.50Q28.47 30.88 28.47 29.47L28.62 29.62L28.45 29.45Q28.49 23.10 30.55 17.08L30.51 17.04L30.64 17.17Q29.90 17.47 28.46 17.85L28.35 17.74L28.32 17.71Q28.51 16.91 28.97 15.50L29.16 15.69L29.12 15.65Q27.76 15.97 25.70 16.20L25.79 16.28L25.63 16.12Q21.86 20.62 16.65 29.98L16.49 29.83L18.74 26.33L18.68 26.26Q18.26 27.29 17.99 27.86L17.97 27.84L13.57 36.91L13.57 36.92Q14.13 36.68 15.28 36.30L15.26 36.29L15.22 36.63L15.25 36.66Q15.12 37.32 14.81 38.58L14.81 38.58L14.69 38.46Q18.80 37.12 23.64 37.31L23.70 37.38L23.68 37.35Q23.68 38.27 23.87 40.25L23.88 40.26L23.83 40.21Q25.06 40.37 26.12 40.48L26.06 40.42L26.09 40.45Q26.15 41.05 26.42 42.42L26.48 42.48L26.46 42.46Q28.42 42.75 31.43 43.66L31.45 43.68L31.39 43.62Q30.47 41.55 29.55 38.28L29.39 38.12L30.87 38.61L30.97 38.71Q31.63 38.91 32.31 39.25L32.24 39.18L32.25 39.19Q31.56 36.79 31.41 35.11L31.38 35.08L31.37 35.07Q30.75 34.87 29.60 34.64L29.66 34.69L29.70 34.74Q29.39 33.36 29.39 32.48ZM21.40 32.34L21.34 32.27L21.38 32.31Q22.20 31.08 23.76 28.53L23.80 28.57L23.72 28.48Q23.68 29.40 23.64 30.35L23.66 30.37L23.79 30.50Q23.66 31.36 23.69 32.31L23.66 32.27L23.71 32.32Q23.17 32.32 22.60 32.32L22.62 32.34L22.63 32.35Q22.11 32.44 21.50 32.44Z"/><path fill="#222" d="M67.79 40.34L67.76 40.31L67.75 40.30Q66.47 40.50 64.90 40.08L64.76 39.93L64.86 40.03Q63.56 39.04 63.41 37.40L63.48 37.48L63.47 37.46Q63.38 37.22 63.57 34.59L63.64 34.66L63.61 34.63Q64.73 34.53 66.75 34.15L66.65 34.06L66.41 34.77L66.44 34.80Q66.12 36.50 67.53 37.07L67.60 37.14L67.53 37.07Q68.44 37.52 70.53 37.52L70.43 37.42L70.44 37.42Q72.05 37.29 72.24 37.21L72.26 37.23L72.32 37.30Q73.25 37.15 73.97 36.66L73.96 36.65L73.92 36.61Q75.29 35.61 75.10 33.52L75.19 33.62L75.20 33.62Q74.95 31.13 73.22 29.57L73.20 29.54L73.23 29.58Q71.53 28.05 69.06 28.05L68.96 27.96L69.10 27.87L69.07 27.84Q69.32 27.67 70.20 27.59L70.17 27.57L70.23 27.63Q72.24 27.62 73.61 26.38L73.54 26.31L73.46 26.23Q74.86 25.02 75.01 23.16L75.06 23.21L75.03 23.17Q75.20 22.93 75.20 22.59L75.06 22.44L75.19 22.58Q75.16 21.03 73.79 20.11L73.72 20.03L73.77 20.08Q72.54 19.27 70.94 19.39L70.91 19.36L70.88 19.33Q69.60 19.19 68.38 19.61L68.35 19.57L68.53 19.76Q66.92 20.13 66.62 21.27L66.76 21.41L66.70 21.36Q66.60 22.21 66.68 22.97L66.64 22.93L66.58 22.87Q65.63 22.72 63.57 21.99L63.50 21.93L63.58 22.00Q63.25 20.23 63.29 19.39L63.27 19.37L63.26 19.36Q63.41 17.88 64.48 17.19L64.48 17.19L64.47 17.19Q65.79 16.49 67.39 16.49L67.51 16.61L67.47 16.56Q70.60 16.50 73.76 16.77L73.73 16.74L73.90 16.91Q78.95 17.31 78.65 21.08L78.47 20.91L78.61 21.04Q78.52 22.51 78.02 24.07L78.04 24.09L78.08 24.13Q77.17 27.22 74.81 28.13L74.70 28.02L74.73 28.05Q77.36 28.59 77.97 31.94L78.01 31.98L78.05 32.02Q78.14 33.02 78.21 35.04L78.30 35.12L78.32 35.15Q78.44 39.57 73.84 40.03L73.80 39.98L73.84 40.03Q73.15 40.14 67.86 40.40ZM73.04 42.62L73.00 42.58L72.95 42.53Q73.70 42.71 76.56 42.78L76.53 42.76L76.46 42.69Q78.29 42.85 79.93 42.20L79.78 42.04L79.84 42.11Q81.05 41.18 80.86 39.43L80.89 39.47L80.94 39.51Q80.65 38.01 80.35 36.26L80.35 36.26L80.48 36.39Q79.62 31.76 77.68 30.12L77.71 30.16L77.49 29.75L77.53 29.75L77.54 29.76Q79.23 28.25 79.99 23.87L80.06 23.94L80.14 24.02Q80.08 23.47 80.20 22.52L80.29 22.61L80.15 22.47Q80.26 21.75 80.19 21.06L80.26 21.14L80.24 21.11Q80.08 19.43 78.78 18.74L78.79 18.75L78.77 18.81L78.64 18.67Q78.29 17.64 77.14 17.10L77.26 17.22L77.27 17.23Q75.66 16.46 70.53 16.16L70.57 16.21L70.62 16.25Q68.86 16.09 67.26 16.09L67.29 16.12L67.32 16.15Q65.74 16.17 64.22 16.82L64.19 16.78L64.08 16.68Q63.05 17.63 63.05 19.38L62.97 19.30L62.93 19.26Q62.89 18.80 63.15 22.15L63.28 22.27L63.23 22.23Q63.50 22.27 65.14 22.87L65.16 22.90L65.09 22.83Q65.17 23.44 65.13 23.94L65.07 23.88L65.17 23.97Q65.05 24.35 65.09 24.88L65.26 25.05L65.27 25.06Q66.93 25.31 68.95 25.43L69.00 25.49L69.01 25.49Q68.80 23.34 69.91 22.51L69.93 22.53L70.09 22.69Q70.79 21.90 72.81 21.67L72.91 21.78L72.92 21.79Q73.90 21.63 74.47 21.82L74.64 21.99L74.65 22.00Q74.54 21.97 74.58 22.08L74.67 22.17L74.60 22.28L74.69 22.84L74.75 22.90Q74.80 23.14 74.77 23.29L74.65 23.17L74.69 23.21Q74.69 25.01 73.17 26.19L73.08 26.10L73.03 26.05Q72.12 26.96 70.10 27.15L70.29 27.34L70.25 27.31Q69.52 27.45 68.64 27.45L68.54 27.34L68.63 27.43Q68.56 27.67 68.72 28.36L68.74 28.38L68.81 28.45Q70.55 28.44 72.00 29.17L72.04 29.20L71.87 29.15L70.25 29.28L70.31 29.34Q70.37 29.71 70.49 30.32L70.51 30.34L70.49 30.32Q72.68 30.31 74.39 31.64L74.32 31.56L74.23 31.47Q74.48 31.88 74.79 33.51L74.89 33.62L74.91 33.64Q74.95 36.42 72.02 36.84L72.14 36.96L72.00 36.82Q70.05 37.23 69.48 37.19L69.42 37.13L69.38 37.09Q68.92 36.98 68.39 36.90L68.44 36.95L68.47 36.53L68.62 36.11L68.55 35.61L68.65 35.37L68.69 35.42Q67.59 35.34 66.79 35.53L66.82 35.56L66.92 35.66Q66.93 35.48 66.93 35.28L66.89 35.25L66.80 35.16Q66.82 34.95 66.82 34.72L66.97 34.87L66.88 34.79Q66.87 34.32 67.02 33.59L67.01 33.58L67.04 33.61Q65.28 33.94 63.41 34.28L63.27 34.14L63.37 34.24Q63.29 34.66 63.18 35.78L63.19 35.79L63.18 35.79Q63.04 36.89 63.04 37.50L63.16 37.61L63.08 37.53Q63.19 39.62 64.56 40.38L64.48 40.30L64.47 40.29Q66.00 42.63 70.73 42.43L70.78 42.49L70.83 42.54Q71.48 42.42 73.00 42.58Z"/><path fill="#444" d="M97.66 29.85L97.74 29.94L97.66 29.86Q95.08 29.67 93.75 30.89L93.77 30.92L93.77 30.92Q92.55 32.24 92.85 34.75L92.72 34.63L92.86 34.76Q93.10 37.21 94.32 38.47L94.27 38.42L94.33 38.48Q95.47 39.88 97.60 39.81L97.54 39.74L97.57 39.77Q98.05 39.68 98.24 39.68L98.25 39.70L98.19 39.63Q101.87 39.16 101.98 34.56L102.00 34.58L102.03 34.61Q102.04 32.18 101.35 31.38L101.24 31.27L101.36 31.39Q100.26 30.06 97.71 29.91ZM101.01 41.62L101.05 41.66L100.94 41.55Q99.71 42.22 98.15 42.14L98.14 42.14L98.10 42.10Q94.42 42.45 93.12 39.86L93.12 39.86L93.05 39.79Q92.87 45.13 91.54 49.39L91.48 49.33L91.49 49.34Q89.69 49.83 88.06 50.56L88.06 50.56L87.99 50.49Q90.65 44.62 90.38 37.66L90.31 37.58L90.40 37.67Q90.05 30.74 87.16 24.69L87.19 24.72L87.18 24.71Q89.10 25.86 90.81 26.32L90.89 26.39L91.40 27.86L91.32 27.78Q91.45 28.14 91.72 29.24L91.78 29.31L91.79 29.31Q92.82 27.26 96.40 27.07L96.46 27.14L96.34 27.01Q97.23 26.98 98.10 26.98L98.15 27.04L98.61 27.00L98.54 26.93Q98.76 27.03 98.95 27.07L99.03 27.15L99.17 26.99L99.27 27.09Q101.36 27.38 102.08 27.61L102.09 27.62L102.05 27.58Q103.47 27.98 104.35 28.93L104.44 29.02L104.47 29.06Q105.31 30.24 105.27 31.65L105.21 31.58L105.13 31.50Q105.12 34.35 104.32 37.01L104.50 37.19L104.40 37.10Q103.30 40.52 100.94 41.55ZM105.33 42.29L105.31 42.22L105.33 42.24Q106.47 40.30 106.78 36.19L106.63 36.05L106.65 36.07Q106.93 34.44 106.93 33.19L106.80 33.06L106.81 33.06Q106.90 31.64 106.14 30.23L106.04 30.13L106.23 30.31Q105.76 29.81 105.27 29.43L105.08 29.24L104.97 29.02L104.87 28.80L104.88 28.70L104.87 28.69Q102.98 26.50 98.64 26.50L98.77 26.63L98.05 26.52L98.13 26.59Q93.59 26.70 91.95 28.30L91.81 28.15L91.80 28.15Q91.72 27.72 91.57 27.23L91.53 27.19L91.21 26.07L91.30 26.16Q88.82 25.55 86.62 24.07L86.64 24.09L86.56 24.01Q89.85 30.34 90.15 37.58L90.03 37.46L90.12 37.55Q90.41 44.80 87.55 51.27L87.59 51.30L89.45 50.31L89.59 50.45Q89.24 51.10 88.56 52.66L88.54 52.64L88.48 52.58Q91.36 51.68 93.68 51.34L93.67 51.34L93.51 51.17Q94.76 46.48 94.91 42.75L94.85 42.70L94.81 42.65Q96.30 44.22 99.91 44.44L99.93 44.46L99.98 44.51Q103.82 44.66 105.27 42.22L105.21 42.17ZM99.55 32.09L99.67 32.21L99.53 32.07Q100.34 32.16 101.45 32.50L101.39 32.44L101.38 32.44Q101.72 33.50 101.69 34.68L101.52 34.52L101.67 34.66Q101.68 35.59 101.49 36.23L101.49 36.24L101.43 36.17Q100.76 39.12 98.25 39.43L98.09 39.27L98.28 39.35L98.20 39.27Q98.27 39.42 98.16 39.45L98.17 39.47L97.46 39.29L97.59 39.41Q96.40 39.41 95.41 38.91L95.46 38.97L94.94 36.73L95.10 36.89Q94.82 34.44 96.12 33.42L96.16 33.45L96.23 33.53Q97.25 32.45 99.65 32.19Z"/></svg>