<svg xmlns="http://www.w3.org/2000/svg" width="150" height="50" viewBox="0,0,150,50"><path fill="#222" d="M26.04 29.53L26.05 29.54L25.91 29.41Q24.82 28.73 24.18 28.77L24.14 28.73L24.21 28.80Q22.87 28.92 21.83 29.93L21.67 29.77L21.73 29.83Q20.70 30.86 20.82 32.23L20.77 32.18L20.76 32.17Q21.17 36.62 20.29 41.15L20.27 41.12L20.26 41.12Q18.00 41.51 16.89 42.05L16.97 42.12L17.03 42.18Q18.35 37.83 18.12 33.38L18.26 33.52L18.13 33.38Q17.87 28.87 16.16 24.79L16.21 24.85L16.18 24.82Q17.33 25.50 19.61 26.15L19.71 26.25L20.30 28.97L20.34 29.01Q20.90 25.99 25.16 25.99L25.22 26.05L25.17 26.00Q25.48 25.85 25.79 25.85L25.83 25.90L25.94 26.00Q27.13 25.90 28.39 26.59L28.42 26.63L28.45 26.65Q27.16 28.02 26.01 29.51ZM27.53 31.40L27.77 31.49L27.78 31.50Q28.64 30.30 30.31 27.87L30.33 27.88L30.22 27.77Q29.72 27.38 28.19 27.12L28.36 27.29L28.22 27.14Q28.56 26.83 29.01 26.22L29.15 26.36L29.02 26.23Q27.23 25.44 25.29 25.63L25.29 25.62L25.27 25.60Q23.21 25.68 22.49 25.94L22.56 26.02L22.52 25.97Q21.12 26.40 20.32 27.50L20.27 27.45L20.12 26.65L19.96 25.85L19.94 25.84Q17.57 25.45 15.59 24.11L15.59 24.11L15.64 24.16Q17.83 28.59 18.06 33.47L17.87 33.28L17.93 33.34Q18.10 38.19 16.35 42.72L16.38 42.75L16.53 42.90Q17.57 42.39 18.45 42.08L18.33 41.96L18.31 41.94Q18.05 43.05 17.55 44.12L17.70 44.27L17.70 44.26Q20.42 43.29 22.55 43.18L22.60 43.23L22.70 38.61L22.71 38.61Q22.94 36.48 22.94 34.23L22.84 34.13L22.91 34.21Q22.98 33.09 23.89 32.12L23.92 32.15L23.74 31.97Q24.75 31.10 25.89 31.02L25.81 30.94L25.85 30.98Q26.49 30.86 27.22 31.55L27.31 31.64L27.58 31.45ZM22.55 29.62L22.72 29.72L22.59 29.70L22.54 29.61Z"/><path fill="#222" d="M70.37 27.63L70.41 27.68L70.36 27.62Q68.10 27.61 66.82 29.11L66.91 29.19L66.83 29.12Q65.69 30.76 65.58 33.04L65.42 32.89L65.46 32.92Q65.32 35.56 66.16 36.51L66.22 36.58L66.21 36.57Q67.29 37.80 69.61 37.64L69.74 37.77L69.70 37.73Q74.23 37.31 74.61 34.31L74.54 34.24L74.59 34.28Q74.65 33.43 74.65 32.63L74.68 32.66L74.83 32.81Q74.70 30.71 73.56 29.18L73.56 29.19L73.59 29.22Q72.38 27.66 70.44 27.70ZM75.25 37.76L75.18 37.69L75.27 37.79Q73.75 39.88 69.37 40.11L69.45 40.19L69.38 40.12Q65.25 40.32 63.61 39.22L63.51 39.12L63.51 39.12Q62.60 38.25 62.44 36.53L62.47 36.55L62.50 36.59Q62.43 35.45 62.62 33.59L62.57 33.54L62.69 33.65Q63.06 29.23 64.28 27.40L64.40 27.53L64.23 27.35Q65.91 24.93 69.76 24.97L69.89 25.10L69.76 24.96Q72.25 24.98 74.54 27.31L74.52 27.29L74.63 27.40Q74.62 21.45 76.22 14.94L76.39 15.12L76.36 15.09Q78.25 14.65 80.11 13.81L80.01 13.70L80.03 13.73Q77.35 20.26 77.08 27.27L77.16 27.34L77.13 27.31Q76.97 34.62 79.11 41.20L78.91 41.00L79.05 41.15Q77.41 40.54 75.70 40.16L75.78 40.23L75.72 40.17Q75.44 38.91 75.29 37.81ZM78.28 43.23L78.34 43.29L78.16 43.12Q80.28 43.71 82.83 45.23L82.93 45.33L82.97 45.37Q79.25 38.30 79.10 30.00L79.02 29.93L78.99 29.90Q78.90 21.73 81.98 14.35L81.92 14.28L81.89 14.26Q81.29 14.80 79.85 15.45L79.90 15.50L79.75 15.35Q80.28 14.39 80.88 13.17L80.72 13.00L80.72 13.01Q78.32 14.08 75.89 14.65L76.01 14.77L75.90 14.66Q74.48 20.47 74.21 26.56L74.19 26.54L74.26 26.61Q72.38 24.81 69.87 24.70L69.81 24.63L69.71 24.53Q66.42 24.56 64.52 26.66L64.47 26.60L64.54 26.67Q62.82 29.03 62.41 33.72L62.33 33.64L62.36 33.67Q61.99 36.31 61.99 36.73L62.16 36.89L62.04 36.78Q62.11 38.52 63.25 39.59L63.24 39.57L63.24 39.58Q63.46 39.80 63.65 39.87L63.62 39.84L64.12 40.53L64.13 40.54Q65.15 41.95 68.12 42.21L68.09 42.18L68.11 42.19Q70.37 42.41 71.74 42.48L71.66 42.40L71.68 42.42Q75.97 42.71 77.68 41.38L77.55 41.24L77.51 41.21Q77.79 42.06 78.25 43.20ZM71.88 29.82L72.02 29.97L72.00 29.95Q73.10 30.01 73.93 30.51L73.89 30.47L73.91 30.49Q74.25 31.63 74.33 32.66L74.34 32.67L74.45 32.78Q74.68 36.93 69.66 37.28L69.68 37.30L69.62 37.24Q68.78 37.31 67.68 37.05L67.72 37.08L67.63 36.99Q67.50 36.49 67.43 35.96L67.37 35.90L67.40 35.93Q67.32 35.25 67.36 34.64L67.40 34.68L67.40 34.68Q67.70 31.24 70.32 30.25L70.31 30.24L70.38 30.31Q71.25 29.85 71.94 29.88Z"/><path fill="#444" d="M120.65 41.24L120.58 41.17L118.90 41.20L118.90 41.20Q115.38 41.07 114.43 38.94L114.45 38.96L114.47 38.98Q115.71 38.01 117.15 36.90L117.11 36.86L117.10 36.85Q117.71 39.06 120.57 38.91L120.50 38.84L120.46 38.80Q121.43 38.93 122.45 38.70L122.44 38.69L122.43 38.68Q123.25 38.05 123.18 37.10L123.16 37.09L123.25 37.17Q123.04 35.94 121.25 35.26L121.42 35.42L117.62 33.90L117.62 33.90Q115.13 32.41 114.79 28.87L114.88 28.96L114.94 29.02Q114.62 26.76 116.79 26.19L116.92 26.31L116.78 26.17Q117.78 26.00 120.75 26.00L120.72 25.96L120.77 26.01Q125.66 26.04 126.58 28.55L126.48 28.45L126.64 28.62Q125.97 29.12 125.24 29.57L125.14 29.47L123.87 30.56L123.78 30.47Q123.21 28.49 119.97 28.26L120.10 28.39L120.15 28.44Q119.55 28.45 118.52 28.87L118.43 28.78L118.52 28.86Q117.89 29.15 117.89 30.25L117.82 30.19L117.98 30.34Q118.19 31.28 120.02 31.96L120.14 32.09L120.11 32.05Q121.06 32.32 123.72 33.42L123.78 33.48L123.86 33.56Q125.61 34.32 125.80 36.87L125.89 36.96L125.74 36.81Q125.87 37.51 125.79 38.50L125.88 38.59L125.81 38.52Q125.78 39.40 125.21 40.05L125.30 40.14L125.12 39.96Q123.62 41.16 120.58 41.16ZM125.39 43.81L125.34 43.75L125.40 43.82Q126.32 43.86 127.69 43.55L127.66 43.53L127.61 43.47Q128.65 42.76 128.46 41.55L128.38 41.47L128.45 41.54Q128.41 41.00 128.11 39.40L128.00 39.30L128.17 39.47Q127.50 36.40 125.71 35.18L125.84 35.31L125.71 35.18Q125.17 33.77 123.92 33.04L124.04 33.16L123.93 33.06Q122.80 32.77 120.33 31.81L120.23 31.72L120.25 31.74Q120.47 31.35 120.73 31.23L120.75 31.25L120.75 31.25Q121.35 30.79 122.00 30.75L121.96 30.71L121.99 30.74Q122.82 30.73 123.58 30.99L123.45 30.86L123.62 31.11L123.60 30.98L123.92 31.11L123.75 30.98L123.79 31.02Q124.94 31.55 125.13 32.81L125.14 32.82L125.18 32.86Q126.35 31.94 128.26 30.27L128.32 30.32L128.19 30.19Q128.02 29.58 127.03 28.39L127.09 28.46L127.03 28.39Q125.85 25.65 120.74 25.53L120.71 25.50L120.78 25.56Q117.71 25.62 115.73 26.19L115.65 26.11L115.66 26.12Q114.25 26.69 114.48 28.78L114.44 28.75L114.37 28.68Q114.59 30.04 115.50 32.13L115.59 32.21L115.42 32.05Q116.09 33.29 117.12 34.01L117.07 33.96L117.12 34.02Q117.81 35.51 119.11 36.19L118.98 36.06L119.07 36.15Q120.04 36.44 120.99 36.82L120.84 36.67L122.89 37.57L122.85 37.54Q122.52 38.66 120.58 38.54L120.54 38.50L120.50 38.46Q120.19 38.64 118.97 38.34L118.85 38.22L118.91 38.13L118.69 38.14L118.86 38.30Q117.81 37.75 117.16 36.26L117.15 36.25L117.26 36.36Q115.10 37.90 114.00 39.04L113.95 38.99L113.98 39.02Q114.21 39.86 115.24 40.66L115.35 40.77L115.17 40.90L115.19 40.92Q116.54 42.95 120.76 43.33L120.76 43.33L120.91 43.47Q122.01 43.43 125.24 43.66Z"/><path fill="#333" d="M95.66 29.09L95.65 29.09L95.74 29.17Q93.77 28.92 92.53 30.34L92.56 30.37L92.67 30.48Q91.33 31.81 91.14 33.71L91.24 33.81L91.27 33.84Q90.99 35.84 92.07 36.81L92.03 36.77L92.12 36.86Q93.16 37.78 95.25 37.67L95.27 37.69L95.28 37.70Q97.41 37.58 98.51 36.90L98.36 36.74L98.37 36.75Q99.63 35.77 99.63 34.21L99.61 34.19L99.53 34.10Q99.63 33.82 99.55 33.44L99.41 33.30L99.47 33.36Q99.59 31.73 98.49 30.38L98.46 30.35L98.50 30.39Q97.31 28.96 95.64 29.07ZM95.18 40.14L95.32 40.28L95.33 40.29Q90.82 40.17 89.41 39.41L89.45 39.45L89.49 39.49Q88.48 38.74 88.29 37.03L88.23 36.97L88.30 37.04Q88.20 36.29 88.24 35.56L88.32 35.65L88.25 35.58Q88.42 34.65 88.42 34.19L88.47 34.23L88.30 34.07Q88.76 31.22 88.91 30.53L88.98 30.60L88.92 30.53Q89.53 28.75 90.37 27.34L90.19 27.16L90.32 27.30Q92.93 22.86 98.86 16.50L98.82 16.45L98.89 16.53Q101.63 16.30 103.84 15.50L103.79 15.45L103.79 15.45Q96.87 22.84 93.67 27.07L93.71 27.11L93.60 27.00Q94.60 26.51 95.89 26.51L96.08 26.69L96.06 26.68Q99.29 26.59 100.81 28.53L100.73 28.45L100.86 28.58Q102.18 30.21 102.52 33.75L102.49 33.71L102.40 33.62Q102.58 34.45 102.58 35.06L102.52 35.01L102.48 34.96Q102.64 38.25 100.44 39.31L100.42 39.30L100.30 39.18Q99.08 39.78 95.20 40.16ZM97.47 42.56L97.46 42.54L97.58 42.66Q98.87 42.62 100.85 42.70L100.73 42.58L100.90 42.75Q102.39 42.67 103.95 41.95L103.98 41.98L104.02 42.02Q105.07 41.17 105.07 39.38L105.20 39.51L105.04 39.35Q105.16 38.97 104.99 37.98L104.86 37.85L105.03 38.03Q104.78 36.96 104.78 36.50L104.72 36.44L104.76 36.48Q103.99 31.86 102.39 29.96L102.29 29.87L102.37 29.94Q102.13 29.66 101.98 29.43L102.11 29.56L101.72 29.26L101.66 29.23L101.62 29.19Q101.37 28.79 100.77 27.84L100.82 27.89L100.65 27.72Q99.84 26.88 97.86 26.42L97.90 26.46L97.81 26.37Q99.04 24.78 102.01 21.09L102.02 21.11L106.29 15.86L106.26 15.82Q104.78 16.79 102.39 17.55L102.24 17.40L102.28 17.44Q103.25 16.51 105.04 14.53L105.06 14.54L105.08 14.56Q102.71 15.66 98.82 16.23L98.70 16.11L98.66 16.07Q92.94 21.96 89.97 26.91L90.02 26.95L90.00 26.94Q88.61 29.58 88.04 35.83L87.96 35.74L87.91 35.70Q87.92 36.35 87.99 37.30L87.93 37.24L87.96 37.27Q87.96 38.94 89.06 39.86L89.15 39.94L89.18 39.97Q89.44 40.01 89.40 40.04L89.50 40.14L89.40 40.04Q89.94 41.12 90.74 41.54L90.66 41.46L90.59 41.39Q92.03 42.06 93.97 42.25L94.05 42.33L94.07 42.35Q94.14 42.42 97.64 42.72ZM97.25 31.33L97.32 31.40L97.23 31.31Q97.92 31.31 98.87 31.81L98.83 31.77L98.92 31.86Q99.23 32.77 99.23 33.42L99.11 33.30L99.10 33.29Q99.29 35.16 98.34 36.15L98.41 36.22L98.33 36.14Q97.36 36.96 95.26 37.26L95.22 37.22L95.29 37.29Q93.91 37.35 93.38 37.09L93.25 36.96L93.30 37.01Q93.11 36.55 93.11 36.25L93.08 36.22L93.02 36.16Q92.88 32.97 95.81 31.68L95.73 31.60L95.69 31.56Q96.60 31.37 97.36 31.44Z"/><path fill="#444" d="M46.50 41.09L46.63 41.22L44.82 41.12L44.83 41.13Q41.40 41.09 40.45 38.96L40.45 38.96L40.49 38.99Q41.59 37.89 43.04 36.79L43.14 36.89L43.18 36.93Q43.68 39.03 46.53 38.88L46.63 38.97L46.50 38.84Q47.34 38.84 48.37 38.61L48.35 38.59L48.42 38.67Q49.39 38.19 49.31 37.24L49.17 37.09L49.21 37.13Q49.20 36.10 47.41 35.41L47.41 35.41L43.60 33.88L43.58 33.86Q41.18 32.45 40.83 28.91L40.98 29.05L40.91 28.99Q40.69 26.83 42.86 26.26L42.92 26.32L42.89 26.28Q43.77 25.98 46.74 25.98L46.84 26.08L46.71 25.95Q51.59 25.96 52.50 28.48L52.66 28.63L52.63 28.61Q51.85 29.00 51.12 29.46L51.19 29.52L49.86 30.55L49.81 30.50Q49.31 28.59 46.07 28.37L45.98 28.27L46.16 28.45Q45.50 28.40 44.47 28.82L44.41 28.76L44.50 28.85Q43.94 29.20 43.94 30.31L43.98 30.35L43.87 30.23Q44.22 31.31 46.05 32.00L46.09 32.03L46.15 32.10Q47.22 32.48 49.89 33.58L49.77 33.47L49.74 33.44Q51.59 34.30 51.78 36.85L51.76 36.83L51.85 36.92Q51.86 37.50 51.78 38.49L51.83 38.54L51.88 38.59Q51.75 39.37 51.18 40.02L51.26 40.10L51.12 39.95Q49.67 41.21 46.62 41.21ZM51.30 43.72L51.37 43.78L51.40 43.82Q52.33 43.87 53.70 43.56L53.53 43.40L53.57 43.44Q54.74 42.86 54.55 41.64L54.45 41.54L54.56 41.65Q54.37 40.96 54.07 39.37L54.07 39.37L54.06 39.36Q53.65 36.55 51.86 35.33L51.85 35.32L51.83 35.30Q51.25 33.85 50.00 33.12L50.07 33.19L49.93 33.06Q48.63 32.59 46.15 31.64L46.32 31.81L46.18 31.67Q46.31 31.19 46.58 31.08L46.61 31.11L46.66 31.16Q47.35 30.78 47.99 30.74L47.85 30.60L48.01 30.75Q48.77 30.68 49.53 30.95L49.49 30.90L49.53 31.02L49.68 31.06L49.93 31.11L49.74 30.96L49.77 31.00Q50.96 31.57 51.15 32.83L51.03 32.71L51.05 32.73Q52.48 32.06 54.38 30.39L54.24 30.25L54.18 30.19Q54.01 29.56 53.02 28.38L53.05 28.41L53.10 28.46Q51.79 25.59 46.69 25.48L46.70 25.49L46.85 25.64Q43.56 25.47 41.58 26.04L41.63 26.09L41.63 26.09Q40.20 26.64 40.43 28.74L40.53 28.83L40.37 28.68Q40.50 29.94 41.41 32.04L41.41 32.04L41.55 32.18Q41.98 33.17 43.00 33.90L42.97 33.86L43.02 33.91Q43.71 35.40 45.00 36.09L45.08 36.16L44.96 36.05Q45.90 36.30 46.85 36.68L46.87 36.70L48.93 37.61L48.92 37.60Q48.59 38.73 46.65 38.61L46.51 38.47L46.53 38.50Q46.05 38.50 44.83 38.20L44.91 38.27L44.88 38.10L44.86 38.30L44.79 38.24Q43.94 37.88 43.29 36.40L43.16 36.27L43.30 36.40Q41.05 37.84 39.94 38.99L40.03 39.08L40.08 39.13Q40.20 39.85 41.23 40.65L41.36 40.78L41.22 40.95L41.10 40.83Q42.69 43.10 46.91 43.48L46.82 43.38L46.87 43.44Q48.17 43.59 51.41 43.82Z"/></svg>