<svg xmlns="http://www.w3.org/2000/svg" width="150" height="50" viewBox="0,0,150,50"><path fill="#444" d="M47.31 30.40L47.45 30.54L47.42 30.51Q43.75 36.67 40.33 40.62L40.43 40.73L40.48 40.78Q38.47 41.05 36.04 41.93L36.04 41.94L36.18 42.08Q40.94 36.33 45.70 27.92L45.80 28.01L45.83 28.04Q41.26 21.12 35.29 14.72L35.30 14.74L35.28 14.71Q38.22 15.94 40.50 16.44L40.42 16.36L40.38 16.31Q45.13 21.64 47.57 25.59L47.59 25.62L47.42 25.45Q50.06 21.16 53.98 16.74L53.98 16.74L53.96 16.72Q55.58 16.44 58.78 15.68L58.82 15.72L58.78 15.68Q52.58 22.00 49.11 27.94L49.21 28.04L49.22 28.05Q54.27 36.60 58.65 41.17L58.68 41.20L58.68 41.20Q56.15 40.46 54.06 40.23L53.96 40.13L54.09 40.26Q51.32 37.31 47.40 30.49ZM54.01 40.60L54.02 40.62L53.95 40.54Q54.37 40.70 54.83 40.81L54.73 40.71L54.73 40.71Q55.56 41.50 57.08 43.10L57.12 43.14L56.97 42.99Q60.47 43.94 63.52 45.31L63.38 45.17L63.36 45.16Q56.29 38.62 51.19 29.86L51.25 29.92L51.21 29.88Q54.93 23.21 60.83 16.35L60.83 16.36L60.80 16.33Q59.42 17.04 57.25 17.57L57.23 17.56L57.27 17.60Q58.07 16.61 59.82 14.82L59.94 14.93L59.92 14.91Q57.47 15.74 53.78 16.31L53.74 16.28L53.87 16.40Q50.44 20.20 47.85 24.50L47.76 24.42L47.78 24.43Q46.79 22.76 45.61 21.28L45.67 21.34L43.32 18.34L43.08 18.48L43.05 18.45Q42.86 18.41 42.63 18.34L42.63 18.34L42.62 18.32Q41.85 17.40 40.37 15.84L40.55 16.03L40.49 15.96Q36.61 15.02 34.02 13.65L34.03 13.65L33.97 13.60Q40.90 21.06 45.47 28.10L45.32 27.96L45.33 27.96Q40.84 36.15 35.09 42.73L35.21 42.85L35.23 42.87Q36.38 42.04 38.51 41.47L38.51 41.47L37.35 43.05L37.21 42.91Q37.37 43.08 36.04 44.41L36.00 44.37L36.05 44.42Q39.01 43.30 42.17 42.81L42.19 42.83L42.20 42.84Q46.16 38.27 48.75 33.52L48.64 33.40L48.82 33.59Q51.35 37.79 54.06 40.65Z"/><path fill="#111" d="M87.65 14.31L87.69 14.35L87.57 14.23Q91.37 16.77 96.13 17.00L96.16 17.03L96.25 17.12Q100.88 17.29 105.14 15.54L105.07 15.47L105.13 15.53Q104.86 16.06 104.09 18.84L104.07 18.81L103.99 18.74Q101.27 19.78 98.30 19.93L98.42 20.06L98.42 20.05Q95.42 20.17 92.53 19.45L92.50 19.42L92.45 19.37Q93.25 23.11 93.44 26.76L93.46 26.78L93.41 26.73Q95.31 26.84 96.91 26.80L97.09 26.98L97.08 26.98Q98.18 26.86 100.58 26.74L100.69 26.86L100.61 26.77Q100.62 27.46 100.62 28.15L100.58 28.11L100.60 29.47L100.53 29.40Q98.22 29.48 93.42 29.56L93.32 29.46L93.47 29.61Q93.39 33.64 92.82 37.63L92.89 37.71L92.81 37.62Q95.51 37.05 98.25 37.16L98.18 37.09L98.10 37.01Q100.89 37.18 103.48 38.02L103.44 37.98L103.58 38.11Q103.54 38.80 103.81 39.56L103.77 39.52L104.33 41.15L104.37 41.19Q101.10 39.83 97.68 39.83L97.62 39.77L97.56 39.71Q92.80 39.83 88.54 42.07L88.55 42.09L88.52 42.06Q90.92 35.32 90.65 28.20L90.58 28.12L90.53 28.08Q90.36 21.02 87.70 14.35ZM87.96 42.71L88.08 42.83L87.96 42.72Q89.21 41.98 89.97 41.64L90.07 41.74L90.11 41.78Q89.83 42.45 89.26 43.97L89.36 44.07L89.33 44.04Q93.80 42.01 98.87 42.28L98.83 42.24L98.86 42.27Q104.05 42.58 108.05 45.29L108.13 45.38L107.97 45.21Q106.90 42.77 106.22 40.83L106.23 40.84L106.12 40.74Q105.14 40.13 104.15 39.79L104.12 39.76L104.29 39.93Q103.92 38.57 103.76 37.77L103.61 37.61L103.63 37.63Q100.64 36.74 97.48 36.74L97.49 36.74L97.35 36.61Q96.21 36.61 95.07 36.72L95.09 36.75L95.19 36.85Q95.30 35.59 95.34 34.37L95.36 34.39L95.30 31.74L95.41 31.85Q97.25 31.79 99.04 31.82L98.92 31.71L99.03 31.82Q100.84 31.84 102.63 31.99L102.58 31.94L102.59 31.95Q102.46 30.95 102.46 29.99L102.50 30.03L102.50 28.13L101.70 28.20L101.66 28.17Q101.26 28.26 100.81 28.26L100.80 28.26L100.80 28.25Q100.80 27.57 100.95 26.27L101.02 26.34L101.08 26.41Q99.40 26.56 98.22 26.59L98.26 26.63L98.19 26.56Q97.18 26.51 95.36 26.43L95.42 26.50L95.46 26.53Q95.44 25.18 95.25 22.36L95.28 22.39L95.12 22.23Q96.23 22.43 97.22 22.43L97.19 22.40L97.15 22.36Q101.90 22.39 105.60 20.49L105.69 20.58L105.56 20.45Q106.25 18.21 107.12 16.00L106.99 15.86L107.16 16.03Q105.78 16.83 104.94 17.17L104.79 17.02L104.81 17.04Q105.19 16.35 105.64 14.79L105.64 14.79L105.75 14.89Q100.94 16.86 96.07 16.56L96.05 16.54L96.12 16.61Q90.86 16.33 87.01 13.48L87.06 13.53L87.02 13.48Q89.80 20.34 90.11 27.96L90.11 27.96L90.10 27.95Q90.52 35.99 88.01 42.76Z"/><path fill="#111" d="M131.11 23.11L131.08 23.08L131.11 23.11Q129.16 25.69 126.49 31.32L126.64 31.46L124.52 35.59L124.54 35.61Q123.76 37.61 122.43 39.86L122.47 39.90L122.30 39.72Q122.75 39.72 121.07 39.75L121.21 39.90L121.16 39.84Q121.23 39.92 119.98 39.92L119.84 39.78L120.00 39.94Q119.21 38.39 116.28 31.23L116.27 31.23L116.18 31.13Q114.05 25.80 111.95 22.79L111.98 22.82L112.08 22.93Q112.80 25.96 112.80 29.12L112.71 29.03L112.75 29.07Q112.83 35.66 109.86 41.22L109.83 41.19L109.71 41.07Q108.40 41.44 106.04 42.16L106.03 42.15L106.16 42.28Q109.86 36.61 109.86 29.38L109.73 29.25L109.86 29.38Q109.87 20.44 104.46 13.48L104.28 13.29L104.31 13.32Q106.11 14.21 108.47 14.90L108.42 14.84L108.42 14.85Q115.47 21.59 121.56 34.91L121.53 34.88L121.54 34.89Q125.07 27.92 127.28 24.42L127.14 24.27L127.14 24.27Q130.78 18.55 134.73 15.08L134.66 15.01L134.79 15.14Q136.02 14.88 138.38 14.12L138.43 14.17L138.36 14.10Q133.39 20.74 133.39 29.35L133.46 29.42L133.36 29.31Q133.39 36.01 136.82 41.53L136.76 41.47L136.89 41.61Q135.44 41.18 132.70 40.57L132.64 40.51L132.64 40.51Q130.46 35.89 130.46 29.92L130.42 29.88L130.37 29.82Q130.30 26.33 130.98 22.98ZM132.49 40.93L132.45 40.89L132.59 41.03Q133.31 41.18 134.76 41.45L134.68 41.37L134.73 41.42Q135.11 42.11 136.06 43.59L136.01 43.53L136.09 43.62Q138.23 44.05 141.70 45.27L141.60 45.17L141.70 45.27Q135.46 38.95 135.46 29.13L135.37 29.04L135.44 29.11Q135.37 21.31 139.74 15.18L139.69 15.13L137.65 15.98L137.66 15.99Q138.56 14.34 139.21 13.47L139.31 13.57L139.28 13.54Q137.36 14.13 134.73 14.66L134.83 14.76L134.66 14.59Q128.00 20.79 121.94 33.39L121.84 33.29L121.87 33.32Q116.71 22.37 111.76 17.12L111.85 17.21L111.70 17.06Q111.36 17.02 110.78 16.91L110.83 16.95L109.59 15.63L109.57 15.61Q108.97 14.94 108.28 14.33L108.37 14.42L108.39 14.43Q105.23 13.33 103.44 12.61L103.59 12.75L103.47 12.63Q109.46 19.84 109.46 29.25L109.43 29.22L109.41 29.20Q109.55 36.96 105.40 42.82L105.32 42.73L105.29 42.70Q106.08 42.58 107.37 42.16L107.42 42.21L107.39 42.18Q107.22 42.39 105.81 44.48L105.75 44.42L105.83 44.50Q107.65 44.04 111.16 43.28L111.19 43.32L111.12 43.24Q114.87 36.22 114.68 28.45L114.56 28.33L114.59 28.36Q116.22 32.47 119.68 40.35L119.57 40.23L119.58 40.24Q119.90 40.26 120.13 40.26L120.04 40.17L120.57 40.17L120.59 40.18Q121.06 40.89 121.86 42.18L121.80 42.12L121.94 42.26Q123.60 42.28 123.60 42.28L123.52 42.20L123.43 42.11Q124.43 42.08 125.07 42.16L125.22 42.31L125.16 42.25Q126.76 38.25 130.11 30.25L130.00 30.15L130.13 30.27Q129.95 35.65 132.54 40.98Z"/><path fill="#222" d="M75.40 29.56L75.32 29.48L75.32 29.48Q74.25 28.83 73.61 28.87L73.57 28.83L73.48 28.75Q72.04 28.75 71.00 29.76L71.00 29.77L71.08 29.84Q69.96 30.78 70.08 32.15L70.23 32.31L70.17 32.25Q70.55 36.66 69.67 41.19L69.53 41.05L69.52 41.04Q67.39 41.58 66.29 42.11L66.27 42.09L66.20 42.02Q67.73 37.88 67.51 33.43L67.52 33.44L67.49 33.41Q67.28 28.94 65.56 24.86L65.64 24.94L65.57 24.87Q66.78 25.62 69.06 26.27L69.09 26.30L69.60 28.94L69.57 28.91Q70.35 26.11 74.61 26.11L74.48 25.98L74.50 25.99Q74.82 25.86 75.13 25.86L75.26 26.00L75.32 26.05Q76.53 25.97 77.79 26.65L77.77 26.64L77.68 26.54Q76.42 27.95 75.28 29.44ZM76.86 31.40L77.02 31.41L77.05 31.43Q77.84 30.17 79.52 27.74L79.59 27.81L79.54 27.76Q79.15 27.48 77.63 27.22L77.68 27.27L77.56 27.15Q77.94 26.88 78.40 26.27L78.38 26.26L78.34 26.22Q76.51 25.38 74.57 25.57L74.61 25.61L74.50 25.50Q72.67 25.80 71.94 26.06L71.91 26.03L71.86 25.99Q70.48 26.43 69.68 27.53L69.65 27.50L69.61 26.81L69.32 25.88L69.34 25.89Q66.85 25.39 64.87 24.06L64.91 24.10L64.92 24.11Q67.08 28.51 67.31 33.39L67.25 33.32L67.20 33.28Q67.54 38.29 65.78 42.82L65.82 42.86L65.72 42.76Q66.89 42.37 67.76 42.06L67.63 41.93L67.80 42.10Q67.52 43.19 67.03 44.26L66.89 44.12L66.87 44.10Q69.90 43.43 72.03 43.32L72.04 43.33L72.05 38.62L72.17 38.74Q72.20 36.41 72.20 34.16L72.17 34.14L72.28 34.25Q72.21 32.99 73.12 32.02L73.19 32.09L73.20 32.10Q74.07 31.08 75.21 31.01L75.28 31.08L75.19 30.99Q75.75 30.79 76.47 31.47L76.65 31.65L77.02 31.56ZM72.01 29.75L72.03 29.69L71.91 29.69L72.03 29.77Z"/><path fill="#333" d="M21.91 40.22L21.83 40.13L19.43 33.28L19.54 33.39Q15.07 20.70 9.13 14.30L9.13 14.30L9.07 14.24Q11.23 15.44 13.82 16.05L13.79 16.03L13.76 15.99Q18.84 22.22 23.18 34.97L23.25 35.04L23.24 35.03Q26.38 27.02 27.07 25.42L26.96 25.31L26.94 25.29Q29.33 19.69 32.15 16.38L32.16 16.39L32.23 16.46Q34.31 16.10 36.93 15.22L36.87 15.16L36.95 15.24Q32.39 19.85 29.34 27.08L29.22 26.97L29.31 27.06Q27.81 30.62 24.12 40.14L24.08 40.10L24.19 40.21Q23.60 40.19 23.03 40.15L23.02 40.15L22.94 40.07Q22.43 40.13 21.86 40.16ZM26.82 42.53L26.94 42.66L26.86 42.57Q29.71 32.63 31.27 28.59L31.23 28.55L31.26 28.58Q34.22 20.85 38.64 15.98L38.62 15.96L38.68 16.02Q37.59 16.33 35.49 17.06L35.57 17.14L36.69 15.78L36.61 15.71Q37.19 15.03 37.80 14.38L37.91 14.49L37.79 14.36Q35.01 15.39 32.00 15.96L32.11 16.07L31.98 15.95Q27.69 21.37 23.81 32.82L23.73 32.74L23.78 32.79Q20.21 22.75 17.02 18.38L16.95 18.31L17.03 18.39Q16.53 18.19 15.65 18.04L15.64 18.03L15.68 18.07Q15.39 17.63 13.80 15.58L13.89 15.67L13.76 15.54Q10.97 14.99 8.26 13.58L8.16 13.48L8.25 13.57Q14.86 20.63 19.24 33.43L19.17 33.36L19.09 33.28Q20.44 37.07 21.62 40.65L21.52 40.54L21.62 40.65Q22.04 40.76 22.88 40.65L22.72 40.49L22.71 40.48Q23.13 41.25 23.82 42.58L23.88 42.64L23.74 42.50Q24.61 42.45 25.33 42.53L25.38 42.58L25.48 42.68Q26.20 42.68 26.96 42.68Z"/></svg>