<svg xmlns="http://www.w3.org/2000/svg" width="150" height="50" viewBox="0,0,150,50"><path fill="#222" d="M100.05 29.54L100.04 29.53L99.95 29.45Q98.79 28.70 98.15 28.74L98.17 28.76L98.20 28.80Q96.72 28.77 95.68 29.78L95.81 29.91L95.84 29.94Q94.65 30.81 94.77 32.18L94.80 32.21L94.73 32.14Q95.19 36.63 94.31 41.16L94.18 41.03L94.25 41.10Q92.03 41.55 90.92 42.08L90.87 42.02L91.02 42.17Q92.41 37.89 92.18 33.44L92.10 33.36L92.26 33.52Q91.87 28.86 90.16 24.79L90.19 24.82L90.31 24.94Q91.45 25.62 93.73 26.27L93.76 26.30L94.33 29.00L94.20 28.87Q94.95 26.04 99.21 26.04L99.19 26.02L99.15 25.98Q99.55 25.92 99.85 25.92L99.82 25.89L99.97 26.04Q101.21 25.99 102.47 26.67L102.39 26.59L102.50 26.70Q101.23 28.10 100.09 29.58ZM101.58 31.46L101.81 31.53L101.76 31.48Q102.61 30.27 104.28 27.84L104.35 27.91L104.32 27.88Q103.73 27.39 102.20 27.13L102.34 27.27L102.33 27.26Q102.67 26.95 103.13 26.34L103.06 26.27L103.03 26.24Q101.22 25.42 99.28 25.61L99.25 25.58L99.28 25.61Q97.20 25.66 96.48 25.93L96.55 26.00L96.54 26.00Q95.12 26.40 94.32 27.50L94.34 27.52L94.18 26.72L93.94 25.83L94.05 25.94Q91.63 25.51 89.66 24.17L89.54 24.05L89.70 24.22Q91.80 28.56 92.03 33.44L92.01 33.42L91.97 33.38Q92.12 38.21 90.37 42.74L90.45 42.83L90.41 42.79Q91.59 42.40 92.47 42.10L92.45 42.08L92.44 42.07Q92.17 43.17 91.68 44.24L91.54 44.10L91.53 44.09Q94.58 43.45 96.71 43.33L96.62 43.25L96.73 38.63L96.79 38.69Q96.88 36.42 96.88 34.18L96.99 34.29L96.90 34.20Q96.83 32.94 97.74 31.97L97.81 32.04L97.78 32.02Q98.80 31.15 99.94 31.07L99.91 31.04L99.94 31.07Q100.43 30.80 101.16 31.49L101.23 31.56L101.53 31.41ZM96.59 29.66L96.74 29.74L96.63 29.74L96.70 29.77Z"/><path fill="#333" d="M46.20 40.27L46.12 40.19L46.20 40.27Q42.60 40.26 40.97 39.72L41.12 39.88L41.09 39.84Q39.14 39.23 38.84 35.84L38.86 35.86L40.18 34.67L40.15 34.64Q40.85 34.08 41.61 33.59L41.78 33.76L41.70 33.68Q41.34 35.49 42.93 36.70L42.99 36.76L43.00 36.77Q44.25 37.75 46.38 37.56L46.54 37.72L46.49 37.67Q50.88 37.26 50.69 33.72L50.70 33.74L50.73 33.76Q50.51 31.45 47.88 30.23L47.86 30.21L47.86 30.21Q45.02 29.15 42.66 27.93L42.65 27.93L42.61 27.89Q40.06 26.56 39.07 21.88L39.06 21.86L39.20 22.00Q39.01 21.48 38.90 20.71L38.84 20.65L38.87 20.68Q38.86 19.99 38.94 19.42L38.93 19.41L38.95 19.43Q39.06 17.79 40.31 17.33L40.19 17.21L40.27 17.29Q42.64 16.39 46.64 16.58L46.78 16.72L46.72 16.66Q48.45 16.68 49.25 16.75L49.39 16.89L49.22 16.72Q50.82 17.03 51.89 17.49L51.93 17.52L51.82 17.42Q53.89 17.85 54.12 20.33L54.23 20.44L54.16 20.37Q53.09 21.05 50.88 22.38L50.86 22.36L50.92 22.42Q50.54 19.45 46.17 19.45L46.13 19.41L46.16 19.44Q44.22 19.41 43.23 20.09L43.27 20.14L43.16 20.03Q42.11 20.65 42.34 22.44L42.21 22.31L42.40 22.50Q42.60 24.64 45.57 26.17L45.55 26.15L45.58 26.17Q46.02 26.31 50.51 27.94L50.51 27.95L50.49 27.92Q53.26 29.55 53.67 33.93L53.60 33.86L53.64 33.89Q53.62 34.03 53.70 35.29L53.60 35.19L53.61 35.19Q53.71 38.00 52.15 39.10L52.12 39.07L52.18 39.14Q50.30 40.07 46.11 40.19ZM48.51 42.66L48.53 42.68L48.39 42.54Q49.86 42.64 51.84 42.64L51.93 42.73L51.98 42.78Q53.92 42.62 55.17 42.20L55.29 42.32L55.28 42.31Q56.49 41.46 56.41 39.67L56.41 39.67L56.43 39.69Q56.39 38.70 56.01 36.65L55.98 36.62L55.96 36.60Q55.10 31.97 53.01 30.10L52.91 30.01L53.03 30.12Q52.28 28.58 50.95 27.85L50.82 27.73L45.52 25.66L45.55 25.69Q45.15 25.45 44.70 25.22L44.72 25.25L44.64 24.89L44.61 24.52L44.60 24.52Q44.48 23.14 45.63 22.53L45.56 22.46L45.66 22.57Q46.29 21.86 48.00 21.67L48.12 21.79L48.04 21.71Q49.19 21.60 50.33 22.06L50.36 22.09L50.39 22.12Q50.38 22.15 50.57 22.98L50.65 23.06L50.56 22.97Q50.77 22.83 51.26 22.61L51.42 22.77L51.24 22.59Q52.05 23.59 52.17 24.73L52.20 24.77L52.23 24.80Q52.18 24.63 55.84 22.04L55.89 22.10L55.95 22.16Q55.63 19.48 54.18 18.79L54.26 18.87L54.10 18.71Q53.65 17.57 52.20 17.04L52.19 17.03L52.08 16.92Q49.84 16.16 46.65 16.16L46.66 16.18L46.66 16.18Q41.71 16.14 39.84 16.82L39.99 16.97L39.85 16.83Q38.62 17.39 38.51 19.07L38.47 19.03L38.39 18.95Q38.50 19.62 38.91 21.83L38.85 21.77L38.82 21.74Q39.54 25.54 41.71 27.78L41.62 27.69L41.63 27.71Q42.55 29.54 44.05 30.23L43.94 30.11L43.94 30.12Q45.58 30.93 49.50 32.49L49.43 32.43L49.34 32.38L50.09 32.82L50.10 32.87L50.18 32.94Q50.17 33.21 50.21 33.55L50.22 33.56L50.35 33.69Q50.28 37.01 46.36 37.16L46.55 37.34L46.53 37.33Q45.30 37.28 44.00 36.90L44.07 36.97L44.06 36.95Q43.77 36.16 43.77 35.44L43.77 35.44L43.62 35.30Q43.69 35.10 43.73 34.84L43.62 34.73L43.75 34.85Q43.38 35.13 42.58 35.62L42.47 35.52L42.42 35.47Q42.08 34.51 42.23 33.14L42.17 33.08L42.17 33.08Q40.02 34.20 38.42 35.61L38.44 35.64L38.53 35.72Q38.44 36.40 38.52 37.43L38.55 37.46L38.60 37.51Q38.88 39.19 40.17 39.95L40.28 40.07L40.31 40.09Q41.39 41.79 43.94 42.17L43.91 42.14L44.00 42.22Q45.49 42.38 48.42 42.57Z"/><path fill="#222" d="M68.44 29.56L68.55 29.67L68.61 29.73Q68.51 33.90 67.79 38.05L67.77 38.03L67.70 37.96Q69.99 37.43 73.07 37.32L73.22 37.46L73.15 37.40Q74.46 37.56 75.52 36.56L75.58 36.61L75.56 36.60Q76.54 35.50 76.54 34.17L76.67 34.30L76.60 34.22Q76.58 33.90 76.54 33.64L76.47 33.56L76.48 33.57Q76.47 30.78 74.22 29.94L74.08 29.80L74.14 29.86Q73.30 29.48 72.61 29.55L72.66 29.60L72.76 29.70Q71.56 29.49 70.54 29.53L70.58 29.57L70.55 29.54Q69.46 29.56 68.43 29.56ZM67.37 19.28L67.29 19.20L67.28 19.19Q68.19 22.54 68.46 26.92L68.40 26.86L68.46 26.92Q69.98 27.11 72.64 27.15L72.51 27.01L72.62 27.12Q75.39 27.00 75.73 23.46L75.88 23.61L75.91 23.63Q76.11 21.71 74.70 20.87L74.68 20.85L74.71 20.87Q73.71 20.26 69.30 19.61L69.23 19.54L69.29 19.61Q68.21 19.44 67.30 19.21ZM63.56 42.01L63.57 42.02L63.64 42.09Q66.18 35.49 65.92 28.11L65.87 28.06L65.84 28.04Q65.59 20.78 62.66 14.31L62.65 14.30L62.72 14.36Q66.44 16.83 72.67 17.08L72.56 16.98L72.62 17.04Q78.82 17.26 79.16 20.15L79.13 20.12L79.25 20.24Q79.53 22.95 78.12 25.61L78.25 25.74L78.21 25.71Q77.29 27.04 75.69 27.72L75.70 27.72L75.86 27.89Q79.44 28.50 79.67 33.87L79.59 33.79L79.60 33.80Q79.74 34.97 79.67 36.38L79.66 36.37L79.61 36.32Q79.62 37.70 78.69 38.63L78.76 38.71L78.68 38.63Q77.80 39.61 76.47 39.77L76.46 39.76L76.45 39.74Q75.06 39.92 73.99 39.92L73.86 39.79L73.95 39.88Q68.27 39.90 63.74 42.19ZM76.43 42.39L76.49 42.45L76.35 42.31Q77.32 42.41 79.19 42.52L79.19 42.52L79.17 42.50Q80.70 42.66 81.80 41.79L81.77 41.76L81.73 41.72Q82.58 40.86 82.47 39.30L82.51 39.34L82.52 39.35Q82.37 38.31 81.64 34.85L81.61 34.82L81.75 34.96Q81.01 31.67 79.15 30.19L79.13 30.17L78.76 29.38L78.67 29.29Q80.36 27.90 80.93 24.13L80.92 24.11L80.96 24.15Q81.00 22.91 80.93 21.50L81.07 21.64L81.07 21.64Q81.02 20.33 79.91 19.49L79.82 19.40L79.80 19.38Q79.61 19.30 79.49 19.26L79.45 19.22L79.46 19.23Q79.13 18.64 78.29 17.84L78.42 17.96L78.28 17.82Q76.82 16.82 72.60 16.63L72.49 16.52L72.54 16.57Q65.94 16.34 61.95 13.44L61.96 13.45L61.87 13.37Q65.25 20.48 65.56 28.01L65.54 28.00L65.48 27.94Q65.95 35.91 63.13 42.84L63.00 42.71L65.16 41.86L65.17 41.87Q64.66 42.87 64.16 44.02L64.30 44.16L64.17 44.03Q68.53 42.21 73.55 42.21L73.67 42.34L73.55 42.21Q75.07 42.33 76.52 42.48ZM74.38 31.93L74.21 31.75L74.33 31.88Q75.13 31.88 76.04 32.33L76.04 32.33L75.92 32.21Q75.97 32.49 76.12 33.56L76.18 33.61L76.24 33.67Q76.36 34.97 75.42 36.02L75.40 35.99L75.50 36.10Q74.48 37.05 73.07 36.94L73.06 36.93L71.72 37.18L71.69 37.16Q70.97 37.24 70.25 37.35L70.24 37.34L70.24 37.34Q70.47 35.44 70.54 31.97L70.49 31.92L70.49 31.93Q71.27 31.98 72.53 31.94L72.54 31.95L72.51 31.92Q73.69 31.81 74.30 31.85ZM73.24 22.22L73.35 22.34L73.73 22.33L73.72 22.32Q73.97 22.35 74.16 22.39L74.03 22.25L74.53 22.37L74.72 22.37L75.50 22.62L75.35 22.47Q75.54 22.81 75.54 23.12L75.48 23.05L75.40 23.51L75.45 23.55Q75.57 24.93 74.69 25.87L74.62 25.79L74.61 25.79Q73.71 26.69 72.49 26.69L72.58 26.78L72.58 26.78Q71.57 26.79 71.57 26.79L71.49 26.71L71.48 26.71Q70.15 26.67 70.50 26.67L70.52 26.69L70.45 26.63Q70.46 25.15 70.15 22.10L70.07 22.02L70.25 22.20Q71.76 22.27 73.29 22.27Z"/><path fill="#111" d="M121.91 40.10L122.08 40.27L121.97 40.16Q120.05 40.03 118.38 40.60L118.43 40.66L118.52 40.74Q119.08 37.16 119.20 34.04L119.14 33.98L119.17 34.01Q119.18 30.86 118.95 27.21L118.96 27.21L119.06 27.32Q117.54 26.82 116.77 26.44L116.74 26.40L116.52 23.55L116.34 23.38Q117.16 24.08 118.76 24.65L118.80 24.69L118.76 24.65Q118.50 22.49 118.08 19.75L118.12 19.79L118.22 19.89Q120.43 20.50 122.07 20.35L122.08 20.36L122.06 25.06L121.99 24.99Q123.29 24.80 124.62 24.31L124.77 24.46L124.67 24.36Q124.71 25.35 124.48 27.10L124.52 27.14L124.49 27.11Q122.89 27.37 121.86 27.37L121.87 27.38L121.94 27.46Q121.92 29.60 121.92 33.86L121.83 33.77L121.79 33.74Q121.91 38.01 121.99 40.18ZM125.07 23.77L125.09 23.79L125.19 23.89Q124.85 23.92 124.24 24.15L124.31 24.22L124.68 21.44L124.66 21.42Q123.78 21.64 122.37 21.87L122.34 21.83L122.37 21.87Q122.33 21.14 122.49 19.77L122.53 19.81L122.51 19.80Q122.02 19.99 121.44 19.99L121.48 20.02L121.35 19.89Q119.35 20.03 117.71 19.30L117.58 19.17L117.72 19.31Q118.16 21.73 118.43 24.21L118.33 24.11L118.34 24.12Q117.47 23.78 115.95 22.76L116.07 22.88L115.96 22.77Q116.35 24.11 116.58 26.81L116.49 26.73L116.61 26.85Q116.94 26.95 118.12 27.37L118.27 27.52L118.27 27.51Q118.18 28.03 118.21 29.44L118.30 29.52L118.66 29.54L118.85 29.65L118.73 29.53Q118.71 30.69 118.71 31.87L118.84 32.00L118.72 31.88Q118.88 36.99 118.08 41.33L118.05 41.30L118.00 41.25Q118.28 41.23 120.22 40.70L120.18 40.65L120.07 40.55Q120.24 41.36 120.12 42.73L120.04 42.65L120.08 42.69Q120.95 42.68 121.75 42.68L121.61 42.54L121.67 42.60Q123.35 42.56 124.98 43.13L125.00 43.15L125.05 43.20Q123.70 37.47 123.89 29.56L123.81 29.47L126.32 29.20L126.34 29.23Q126.25 28.14 126.32 27.12L126.49 27.28L126.66 25.24L126.66 25.24Q126.08 25.50 124.90 25.96L124.77 25.83L124.89 25.95Q125.09 24.51 125.01 24.17L125.08 24.23L125.17 24.32Q125.12 24.08 125.19 23.89Z"/><path fill="#444" d="M21.88 19.70L21.84 19.66L20.15 19.65L20.29 19.78Q17.95 19.80 17.72 21.82L17.85 21.95L17.71 21.82Q17.76 22.66 17.80 23.65L17.80 23.65L17.75 23.60Q17.74 25.50 19.00 26.83L18.98 26.81L19.07 26.91Q20.20 28.11 22.11 27.96L22.23 28.09L22.17 28.02Q24.29 27.93 25.05 27.02L25.02 26.99L25.01 26.98Q26.15 26.14 26.42 23.90L26.27 23.75L26.38 23.86Q26.70 21.67 25.44 20.83L25.37 20.75L25.32 20.70Q24.50 19.96 21.84 19.66ZM27.91 28.93L27.89 28.91L26.50 31.09L26.54 31.13Q23.79 35.89 20.02 39.96L20.16 40.09L20.14 40.08Q18.44 40.17 15.74 40.97L15.70 40.93L15.76 40.99Q21.04 34.66 24.20 29.86L24.22 29.89L24.31 29.97Q23.15 30.49 21.52 30.57L21.51 30.56L21.51 30.56Q18.48 30.69 16.95 28.71L17.11 28.87L17.10 28.86Q15.82 27.19 14.72 22.63L14.77 22.68L14.80 22.71Q14.66 22.11 14.51 21.18L14.51 21.18L14.59 21.26Q14.46 20.35 14.46 19.89L14.39 19.83L14.38 19.81Q14.38 18.03 15.45 17.42L15.52 17.49L15.42 17.39Q16.62 16.61 18.49 16.61L18.53 16.65L18.56 16.69Q21.85 16.78 21.85 16.78L21.76 16.68L21.74 16.67Q23.90 16.69 25.15 16.88L25.24 16.97L25.27 17.00Q27.24 17.10 28.15 17.60L28.30 17.75L28.30 17.75Q29.52 18.36 29.71 20.11L29.74 20.14L29.78 20.18Q29.83 20.46 29.64 23.12L29.70 23.19L29.70 23.18Q29.14 25.14 28.91 25.97L29.00 26.06L29.02 26.08Q28.54 27.39 27.78 28.80ZM29.72 31.24L29.75 31.26L29.74 31.25Q30.79 29.10 31.32 24.80L31.37 24.85L31.31 24.79Q31.56 22.57 31.53 21.69L31.47 21.63L31.52 21.69Q31.46 19.80 30.28 18.89L30.37 18.98L30.01 18.81L29.97 18.77Q29.83 18.13 28.91 17.48L28.84 17.41L28.91 17.48Q26.62 16.48 21.82 16.33L21.75 16.25L21.64 16.15Q20.76 16.22 18.33 16.22L18.44 16.34L18.36 16.26Q16.53 16.18 15.05 16.87L15.20 17.02L15.04 16.86Q13.97 17.73 14.05 19.56L13.95 19.46L14.01 19.52Q14.32 20.56 14.51 22.57L14.36 22.42L14.44 22.50Q14.94 25.02 15.21 25.86L15.21 25.86L15.36 26.01Q15.93 27.87 16.88 29.17L16.91 29.19L16.73 29.02Q17.18 29.54 17.56 29.92L17.53 29.89L17.38 29.75Q17.83 30.38 18.48 31.30L18.44 31.26L18.30 31.12Q19.83 32.54 21.78 32.73L21.74 32.69L21.87 32.82Q19.84 35.36 18.28 37.27L18.40 37.38L14.79 41.78L14.64 41.62Q16.98 40.95 18.61 40.61L18.64 40.64L18.57 40.56Q17.91 41.54 16.35 43.26L16.21 43.12L16.24 43.15Q19.39 42.30 22.52 42.26L22.54 42.29L22.42 42.16Q24.77 39.60 29.11 32.37L29.15 32.42L29.22 32.56L29.11 32.45Q29.48 31.83 29.82 31.33ZM23.65 21.93L23.66 21.94L23.71 21.99Q24.43 21.98 24.88 22.09L24.90 22.11L24.89 22.10Q25.45 22.13 25.83 22.24L25.89 22.30L25.79 22.21Q25.92 22.60 26.00 23.02L26.10 23.12L26.02 23.04Q26.05 23.41 25.94 23.79L25.99 23.85L25.94 23.80Q25.88 25.49 24.70 26.59L24.84 26.74L24.74 26.63Q23.86 27.73 22.22 27.69L22.25 27.73L22.26 27.73Q21.84 27.73 20.32 27.43L20.15 27.26L20.22 27.33Q19.98 26.45 19.98 25.72L20.05 25.79L19.96 25.70Q20.04 25.59 20.04 25.36L19.87 25.19L20.02 25.34Q19.99 23.10 22.27 22.30L22.14 22.17L22.23 22.25Q22.86 21.98 23.70 21.98Z"/></svg>