<svg xmlns="http://www.w3.org/2000/svg" width="150" height="50" viewBox="0,0,150,50"><path fill="#222" d="M113.68 15.77L113.75 15.84L113.70 15.78Q115.76 20.81 116.33 25.99L116.28 25.94L116.22 25.88Q120.04 21.86 125.94 17.02L125.90 16.98L125.78 16.86Q129.00 16.58 131.63 15.78L131.65 15.80L125.03 21.37L125.16 21.50Q121.76 24.46 118.91 27.31L118.78 27.19L118.83 27.23Q126.87 36.45 131.93 41.17L131.92 41.16L131.79 41.03Q128.83 40.24 126.51 40.09L126.53 40.12L126.38 39.96Q120.72 34.68 116.42 28.86L116.37 28.81L116.42 28.86Q116.53 35.48 114.67 40.81L114.62 40.76L114.54 40.69Q114.48 40.89 113.99 41.08L113.82 40.92L113.77 41.06L113.77 41.06Q113.76 41.27 111.21 42.19L111.05 42.03L111.12 42.10Q114.04 35.50 113.69 28.04L113.64 27.99L113.67 28.01Q113.39 20.73 109.85 14.22L109.80 14.17L110.40 14.50L110.77 14.76L110.93 14.89L110.94 14.89Q111.48 15.09 113.69 15.78ZM114.08 15.59L114.13 15.65L114.00 15.52Q111.85 15.08 109.23 13.56L109.04 13.37L109.07 13.41Q113.46 20.80 113.46 29.74L113.35 29.63L113.48 29.77Q113.38 36.67 110.41 42.73L110.37 42.69L112.39 41.81L112.40 41.82Q112.05 42.88 111.37 44.18L111.49 44.30L111.34 44.15Q113.65 43.41 115.59 42.99L115.59 42.99L115.70 42.87L115.62 42.79Q115.93 42.80 116.51 42.65L116.58 42.72L116.54 42.68Q118.22 36.79 118.34 32.00L118.22 31.87L118.26 31.92Q120.38 34.46 122.21 36.32L122.20 36.32L122.16 36.27Q123.45 37.49 126.46 40.46L126.28 40.28L126.41 40.41L126.33 40.33Q127.31 41.12 129.18 42.72L129.34 42.89L129.33 42.87Q133.17 43.55 136.63 45.27L136.58 45.21L136.69 45.33Q127.33 36.69 121.09 29.27L121.18 29.36L121.01 29.18Q125.46 24.96 134.22 16.36L134.18 16.31L134.31 16.45Q131.65 17.48 129.63 17.86L129.72 17.95L129.62 17.84Q130.88 16.90 133.20 14.88L133.18 14.86L133.28 14.96Q129.03 16.24 125.68 16.43L125.87 16.61L125.69 16.43Q122.88 18.76 118.00 23.44L118.03 23.47L118.04 23.48Q117.66 20.89 117.09 18.34L117.02 18.27L117.02 18.27Q115.75 18.03 114.76 17.68L114.92 17.84L114.79 17.71Q114.57 16.96 114.00 15.52Z"/><path fill="#222" d="M71.19 41.11L71.25 41.17L69.51 41.15L69.54 41.17Q66.05 41.07 65.09 38.94L65.14 38.99L65.26 39.10Q66.35 37.99 67.80 36.88L67.72 36.80L67.84 36.92Q68.37 39.05 71.22 38.90L71.23 38.90L71.26 38.94Q72.10 38.93 73.12 38.70L73.03 38.61L73.01 38.59Q73.87 38.00 73.79 37.05L73.87 37.13L73.80 37.06Q73.74 35.97 71.95 35.29L71.94 35.27L68.23 33.85L68.21 33.83Q65.92 32.52 65.57 28.98L65.49 28.90L65.48 28.89Q65.37 26.84 67.54 26.27L67.57 26.30L67.53 26.26Q68.52 26.07 71.49 26.07L71.47 26.05L71.41 25.99Q76.37 26.07 77.28 28.59L77.18 28.48L77.28 28.58Q76.65 29.14 75.93 29.60L75.83 29.50L74.39 30.42L74.56 30.58Q73.98 28.60 70.74 28.37L70.75 28.37L70.73 28.36Q70.15 28.38 69.12 28.80L69.04 28.72L69.11 28.79Q68.60 29.19 68.60 30.29L68.51 30.21L68.58 30.28Q68.90 31.32 70.73 32.01L70.67 31.95L70.79 32.07Q71.76 32.35 74.42 33.46L74.55 33.58L74.47 33.50Q76.22 34.27 76.42 36.82L76.50 36.91L76.52 36.93Q76.46 37.44 76.38 38.42L76.53 38.57L76.46 38.50Q76.37 39.32 75.80 39.97L75.77 39.94L75.81 39.98Q74.19 41.06 71.14 41.06ZM75.91 43.66L75.91 43.66L76.02 43.77Q76.87 43.75 78.24 43.44L78.19 43.39L78.17 43.37Q79.29 42.74 79.10 41.52L79.09 41.51L79.09 41.51Q79.16 41.09 78.85 39.49L78.73 39.36L78.78 39.41Q78.32 36.55 76.53 35.33L76.46 35.26L76.43 35.23Q75.88 33.81 74.62 33.09L74.69 33.15L74.63 33.10Q73.30 32.60 70.82 31.65L70.97 31.79L70.83 31.65Q71.16 31.38 71.43 31.26L71.37 31.20L71.35 31.18Q72.04 30.80 72.68 30.76L72.55 30.63L72.57 30.65Q73.35 30.60 74.11 30.86L74.22 30.97L74.26 31.08L74.28 30.99L74.59 31.11L74.54 31.10L74.55 31.11Q75.63 31.58 75.82 32.84L75.87 32.89L75.88 32.89Q77.08 32.00 78.98 30.32L79.03 30.37L78.88 30.22Q78.68 29.57 77.69 28.39L77.75 28.45L77.64 28.34Q76.47 25.61 71.37 25.49L71.52 25.65L71.49 25.61Q68.26 25.50 66.28 26.07L66.30 26.09L66.23 26.02Q64.90 26.67 65.13 28.77L65.22 28.86L65.11 28.75Q65.28 30.06 66.19 32.15L66.17 32.13L66.23 32.19Q66.77 33.30 67.79 34.02L67.70 33.93L67.65 33.88Q68.32 35.35 69.61 36.03L69.65 36.06L69.71 36.13Q70.61 36.34 71.56 36.72L71.60 36.77L73.46 37.48L73.48 37.50Q73.16 38.63 71.22 38.51L71.21 38.50L71.24 38.54Q70.82 38.61 69.60 38.30L69.57 38.27L69.46 38.01L69.42 38.20L69.51 38.28Q68.57 37.84 67.92 36.36L67.88 36.31L67.97 36.41Q65.80 37.93 64.70 39.08L64.70 39.08L64.73 39.10Q65.00 39.98 66.03 40.78L65.90 40.65L65.84 40.90L65.81 40.87Q67.27 43.02 71.50 43.40L71.48 43.38L71.58 43.48Q72.81 43.57 76.05 43.80Z"/><path fill="#222" d="M30.40 30.28L30.48 30.36L30.54 30.41Q30.64 30.02 30.60 29.60L30.65 29.65L30.47 29.47Q30.51 29.21 30.21 29.02L30.15 28.96L30.13 28.94Q29.39 28.35 28.52 28.51L28.62 28.61L28.63 28.62Q27.43 28.48 25.79 29.59L25.78 29.57L25.88 29.68Q24.51 30.63 24.51 31.81L24.51 31.81L24.40 31.70Q24.47 33.02 24.47 36.33L24.41 36.27L24.37 36.24Q24.31 38.77 24.46 40.79L24.55 40.87L24.52 40.84Q22.81 40.84 22.81 40.84L22.93 40.96L22.93 40.97Q21.81 40.80 21.09 40.88L21.21 41.00L21.12 40.90Q21.49 38.34 21.56 36.10L21.68 36.22L21.61 36.14Q21.68 31.42 21.03 30.12L21.03 30.12L21.17 30.26Q20.86 29.65 20.29 29.34L20.37 29.42L20.21 29.26Q19.42 28.58 17.86 28.47L17.79 28.40L17.89 28.51Q15.84 28.24 15.31 29.84L15.36 29.89L15.26 29.79Q15.22 30.40 15.33 30.89L15.36 30.92L15.26 30.82Q15.97 33.62 15.63 36.40L15.69 36.47L15.62 36.40Q15.25 39.15 13.84 41.59L13.94 41.69L13.81 41.56Q12.84 41.76 10.74 42.18L10.85 42.29L10.78 42.22Q13.38 39.07 13.38 34.77L13.21 34.59L13.20 34.59Q13.34 28.86 9.30 24.64L9.25 24.59L9.31 24.64Q9.97 24.85 10.92 25.08L11.05 25.20L12.67 25.49L12.64 25.46Q13.17 26.14 14.04 27.82L14.06 27.84L14.06 27.84Q14.16 25.87 16.59 25.84L16.67 25.91L16.61 25.85Q16.77 25.82 17.76 25.90L17.82 25.96L17.71 25.85Q22.84 26.29 23.98 29.11L23.90 29.03L23.87 29.00Q25.69 26.44 30.72 25.91L30.62 25.82L30.63 25.82Q31.45 25.77 32.33 25.89L32.21 25.77L32.30 25.86Q34.54 26.08 34.39 27.64L34.36 27.61L34.31 27.57Q34.17 28.15 33.91 28.91L33.95 28.95L33.96 28.97Q32.65 32.07 32.88 35.61L32.91 35.64L32.81 35.55Q33.03 39.04 34.94 41.86L34.88 41.80L34.84 41.76Q33.31 41.56 31.48 41.33L31.39 41.24L31.35 41.20Q30.21 38.73 30.02 35.95L29.97 35.90L30.02 35.95Q29.90 33.16 30.54 30.42ZM31.16 41.62L31.21 41.67L31.20 41.66Q31.92 41.73 33.25 41.92L33.29 41.96L33.15 41.82Q33.75 42.61 34.89 44.02L34.86 43.99L34.81 43.94Q37.90 44.67 39.99 45.31L40.00 45.32L39.91 45.23Q34.81 41.24 34.55 34.73L34.67 34.85L34.59 34.78Q34.57 32.73 35.18 30.83L35.21 30.86L35.16 30.81Q35.44 29.99 35.44 29.27L35.29 29.12L35.30 29.12Q35.41 28.32 34.80 27.74L34.74 27.68L34.66 27.57L34.70 27.61Q34.75 27.09 34.67 26.59L34.80 26.72L34.78 26.70Q34.73 26.23 34.27 25.96L34.12 25.81L34.18 25.88Q33.47 25.35 32.59 25.31L32.53 25.25L32.63 25.34Q29.76 25.22 27.10 26.18L27.15 26.22L27.05 26.13Q25.22 26.97 24.04 28.37L23.99 28.32L23.95 28.28Q22.48 25.90 17.64 25.55L17.59 25.50L17.52 25.43Q16.90 25.46 16.48 25.46L16.48 25.46L16.42 25.39Q14.33 25.36 13.72 26.62L13.72 26.62L13.81 26.71Q13.61 26.31 12.92 25.25L12.84 25.17L12.82 25.15Q10.39 24.66 8.41 24.01L8.35 23.95L8.31 23.91Q13.11 28.44 13.11 34.72L13.11 34.73L13.07 34.68Q13.03 39.37 10.18 42.83L10.18 42.83L10.18 42.84Q10.54 42.58 11.03 42.51L11.05 42.53L12.04 42.37L12.02 42.35Q11.34 43.43 10.24 44.64L10.32 44.73L10.36 44.77Q11.89 44.36 15.02 43.75L15.02 43.75L14.99 43.73Q17.74 39.69 17.74 34.78L17.64 34.69L17.78 34.82Q17.73 33.97 17.65 33.14L17.71 33.19L17.68 33.17Q17.54 32.34 18.53 31.54L18.44 31.45L18.60 31.65L18.48 31.53Q19.12 31.10 20.30 30.99L20.22 30.91L20.22 30.91Q20.70 30.97 21.01 30.97L21.12 31.08L21.11 31.26L21.22 31.37Q21.49 34.08 21.38 36.44L21.36 36.43L21.20 36.26Q21.17 38.64 20.68 41.30L20.73 41.35L20.68 41.30Q21.70 41.30 21.70 41.30L21.73 41.32L21.78 41.37Q23.08 41.23 22.73 41.23L22.66 41.16L22.82 41.31Q22.78 41.77 22.74 42.23L22.68 42.16L22.77 42.25Q22.66 42.63 22.66 43.13L22.67 43.14L25.15 43.14L25.11 43.10Q26.39 43.14 27.65 43.21L27.69 43.25L27.69 43.25Q26.29 39.68 26.48 33.74L26.38 33.65L26.35 33.61Q26.36 32.48 27.54 31.72L27.60 31.78L27.65 31.83Q28.47 30.94 29.73 30.75L29.75 30.77L30.10 30.81L30.07 30.78Q29.65 32.73 29.65 34.71L29.66 34.71L29.73 34.79Q29.68 38.51 31.21 41.67ZM25.74 30.18L25.78 29.99L25.69 30.24L25.62 30.06Z"/><path fill="#111" d="M46.66 19.70L46.53 19.57L46.71 19.75Q44.62 19.76 43.67 19.91L43.74 19.97L43.65 19.88Q42.12 20.22 40.90 20.76L40.77 20.63L40.85 20.71Q37.27 22.08 37.16 26.76L37.14 26.74L37.25 26.85Q37.05 29.39 37.70 32.33L37.72 32.34L37.75 32.38Q38.75 36.54 42.37 37.72L42.39 37.73L42.24 37.59Q44.15 38.17 45.60 38.01L45.56 37.98L46.16 38.12L46.16 38.12Q46.17 37.94 46.36 37.98L46.41 38.03L46.37 37.99Q46.62 38.08 46.77 38.05L46.70 37.97L46.69 37.96Q49.42 37.81 50.79 37.24L50.75 37.19L47.17 33.65L47.17 33.65Q47.54 33.37 48.15 32.76L48.11 32.73L49.07 31.86L48.96 31.74Q50.93 33.94 52.91 36.00L52.82 35.91L52.79 35.88Q55.10 34.04 55.37 28.67L55.42 28.73L55.34 28.65Q55.60 27.91 55.60 27.00L55.41 26.81L55.54 26.94Q55.57 21.30 50.51 20.20L50.41 20.10L50.47 20.16Q49.14 19.82 46.63 19.67ZM59.32 41.64L59.29 41.62L59.42 41.75Q58.80 42.16 57.62 43.03L57.54 42.96L53.17 39.31L53.29 39.42Q50.82 40.65 46.56 40.69L46.41 40.54L46.52 40.65Q40.02 40.81 37.21 38.57L37.14 38.50L37.16 38.53Q35.37 36.73 34.91 33.76L34.78 33.63L34.93 33.78Q34.63 31.88 34.25 28.30L34.28 28.34L34.32 28.37Q34.20 27.54 34.09 25.78L34.17 25.86L34.26 25.96Q34.06 24.34 34.09 23.47L34.04 23.41L34.07 23.44Q34.22 20.44 35.98 18.87L36.01 18.91L36.00 18.90Q37.45 17.50 40.65 17.00L40.73 17.08L40.60 16.95Q43.04 16.54 45.94 16.62L46.00 16.68L46.08 16.76Q53.61 16.90 56.73 19.26L56.71 19.24L56.59 19.12Q58.73 21.23 58.47 26.14L58.63 26.31L58.45 26.12Q58.38 29.90 58.19 31.23L58.16 31.19L58.17 31.21Q57.48 35.66 55.16 37.98L55.26 38.08L55.29 38.11Q56.59 39.19 59.33 41.66ZM54.53 17.44L54.64 17.56L54.60 17.51Q52.46 16.66 45.95 16.17L45.94 16.17L46.06 16.28Q44.68 16.31 41.90 16.42L41.86 16.39L41.85 16.38Q37.62 16.59 35.37 18.57L35.34 18.54L35.39 18.60Q33.69 20.01 33.69 23.17L33.81 23.30L33.82 23.31Q33.81 24.14 33.97 25.85L33.96 25.84L33.86 25.75Q33.97 27.41 33.97 28.29L33.98 28.31L33.96 28.28Q34.26 30.18 34.64 33.76L34.62 33.73L34.54 33.65Q34.99 36.62 36.59 38.67L36.46 38.55L36.41 38.49Q36.87 39.45 38.09 40.59L38.04 40.55L38.12 40.63Q40.84 42.62 46.01 42.88L45.93 42.80L45.90 42.77Q46.37 42.90 48.77 43.02L48.63 42.88L48.75 42.99Q53.47 43.07 55.75 42.00L55.76 42.01L55.84 42.09Q56.78 42.84 61.50 46.42L61.30 46.22L61.48 46.40Q61.97 45.74 63.26 44.75L63.25 44.74L63.22 44.71Q62.52 44.20 61.72 43.51L61.72 43.52L59.93 41.92L60.07 41.90L60.03 41.87Q59.56 41.51 58.35 40.48L58.31 40.45L58.26 40.40Q60.09 37.81 60.09 33.28L60.17 33.36L60.17 33.36Q60.25 33.03 60.29 32.19L60.23 32.12L60.13 32.03Q60.26 31.28 60.26 30.86L60.23 30.84L60.27 30.88Q60.33 25.41 59.60 23.05L59.63 23.08L59.61 23.06Q59.22 21.75 58.34 20.69L58.19 20.54L58.20 20.54Q57.55 18.56 54.62 17.54ZM48.51 22.00L48.61 22.11L48.45 21.94Q52.69 22.04 54.52 23.64L54.53 23.65L54.50 23.62Q55.00 24.77 55.12 26.10L55.05 26.04L55.10 26.08Q55.25 27.41 55.17 28.78L55.06 28.67L55.03 28.64Q54.68 33.58 52.74 35.29L52.90 35.46L52.86 35.42Q51.59 34.15 49.08 31.40L48.96 31.28L49.07 31.40Q48.15 32.00 46.59 33.56L46.61 33.59L46.59 33.56Q47.33 34.34 48.47 35.52L48.34 35.39L48.34 35.51L48.33 35.50Q48.79 35.91 49.82 36.98L49.84 37.01L49.95 37.12Q48.98 37.40 46.65 37.70L46.61 37.65L46.02 37.60L45.65 37.65L45.69 37.72L45.71 37.75Q42.24 37.74 40.26 36.10L40.20 36.04L40.29 36.13Q39.21 33.99 39.25 30.87L39.22 30.84L39.18 30.80Q39.30 22.05 48.48 21.98Z"/><path fill="#333" d="M92.90 30.58L92.89 30.56L92.88 30.56Q93.01 30.68 96.39 30.65L96.32 30.57L96.26 30.51Q98.53 30.49 99.59 30.53L99.71 30.65L99.57 30.51Q98.67 27.78 96.23 22.14L96.21 22.13L96.26 22.18Q95.66 23.55 94.61 26.41L94.58 26.38L94.60 26.40Q93.47 29.17 92.90 30.57ZM100.75 33.06L100.80 33.11L100.74 33.05Q98.42 32.98 96.21 33.01L96.39 33.19L96.37 33.18Q94.16 33.25 91.88 33.44L91.78 33.34L91.73 33.29Q90.27 36.78 87.04 40.97L87.00 40.94L86.96 40.89Q84.46 41.59 83.08 42.08L82.98 41.98L83.08 42.08Q88.19 36.42 92.88 23.06L92.79 22.97L92.93 23.11Q94.03 19.53 95.40 16.29L95.56 16.45L95.53 16.42Q95.82 16.41 96.17 16.41L96.08 16.33L96.95 16.47L96.95 16.47Q97.67 17.80 102.51 29.45L102.48 29.42L102.43 29.38Q105.81 37.32 109.80 41.47L109.71 41.37L109.68 41.35Q109.21 41.25 105.33 40.38L105.34 40.40L105.40 40.45Q102.78 37.26 100.80 33.11ZM105.21 40.68L105.24 40.71L105.77 40.75L105.77 40.74Q106.08 40.82 106.38 40.94L106.45 41.00L106.36 40.92Q106.66 41.26 108.49 43.27L108.55 43.34L108.50 43.28Q112.10 44.14 114.50 45.17L114.61 45.29L114.54 45.21Q109.04 40.66 105.04 32.67L105.10 32.73L105.14 32.76Q103.37 29.33 101.93 25.37L101.99 25.43L99.25 17.93L99.35 18.03Q98.97 18.00 98.74 18.00L98.88 18.13L98.30 18.09L98.35 18.13Q97.93 17.41 97.21 16.04L97.16 15.99L97.16 16.00Q96.69 16.05 96.23 16.02L96.26 16.05L96.22 16.01Q95.64 15.85 95.11 15.85L95.21 15.95L95.15 15.88Q93.82 19.88 89.93 30.05L89.88 30.00L89.82 29.94Q86.73 37.93 82.09 42.72L82.08 42.71L82.10 42.73Q83.17 42.36 85.19 41.75L85.10 41.66L85.21 41.77Q84.35 42.55 82.79 44.34L82.94 44.48L82.93 44.47Q84.64 43.83 88.56 43.07L88.52 43.03L88.56 43.07Q92.03 38.76 93.59 35.53L93.39 35.33L93.43 35.37Q95.17 35.25 97.49 35.29L97.52 35.31L97.64 35.44Q100.32 35.41 101.69 35.48L101.57 35.36L101.55 35.34Q102.79 37.69 105.15 40.62ZM97.56 26.07L97.43 25.93L97.54 26.04Q98.42 28.14 99.18 30.24L99.15 30.20L95.78 30.14L95.84 30.21Q96.37 28.71 97.43 25.93Z"/></svg>