<svg xmlns="http://www.w3.org/2000/svg" width="150" height="50" viewBox="0,0,150,50"><path fill="#222" d="M32.37 23.03L32.38 23.04L32.33 22.99Q30.64 25.84 27.98 31.47L27.88 31.37L26.02 35.75L25.95 35.69Q25.13 37.64 23.80 39.89L23.65 39.74L23.77 39.87Q24.13 39.76 22.45 39.80L22.43 39.78L22.55 39.90Q22.40 39.75 21.14 39.75L21.17 39.77L21.23 39.83Q20.53 38.38 17.60 31.22L17.63 31.25L17.55 31.17Q15.47 25.89 13.38 22.88L13.38 22.89L13.36 22.87Q14.01 25.84 14.01 29.00L14.05 29.04L13.98 28.97Q14.18 35.68 11.21 41.24L11.13 41.16L11.17 41.20Q9.75 41.45 7.39 42.18L7.52 42.30L7.47 42.25Q11.11 36.53 11.11 29.30L11.12 29.31L11.02 29.21Q11.06 20.30 5.66 13.34L5.73 13.41L5.64 13.33Q7.28 14.05 9.64 14.73L9.63 14.72L9.63 14.72Q16.78 21.57 22.87 34.89L22.82 34.84L22.82 34.84Q26.35 27.86 28.56 24.36L28.50 24.30L28.57 24.37Q32.14 18.58 36.10 15.11L35.99 15.01L36.11 15.12Q37.35 14.88 39.71 14.12L39.74 14.14L39.76 14.17Q34.73 20.75 34.73 29.36L34.79 29.41L34.64 29.26Q34.80 36.08 38.22 41.60L38.21 41.59L38.15 41.53Q36.76 41.17 34.02 40.56L34.06 40.60L34.01 40.55Q31.63 35.73 31.63 29.76L31.81 29.93L31.61 29.74Q31.62 26.32 32.31 22.97ZM33.94 41.05L33.97 41.08L33.84 40.95Q34.53 41.06 35.97 41.33L35.96 41.32L36.03 41.39Q36.41 42.07 37.36 43.55L37.47 43.66L37.40 43.60Q39.56 44.05 43.03 45.27L43.02 45.26L43.09 45.33Q36.80 38.96 36.80 29.14L36.80 29.14L36.67 29.01Q36.82 21.44 41.20 15.31L41.15 15.25L39.03 16.03L38.90 15.89Q39.97 14.41 40.61 13.54L40.51 13.43L40.60 13.53Q38.79 14.23 36.17 14.76L35.99 14.59L35.99 14.59Q29.25 20.71 23.20 33.32L23.32 33.44L23.18 33.30Q18.08 22.41 13.13 17.16L13.04 17.07L13.09 17.11Q12.68 17.01 12.11 16.90L12.09 16.88L11.04 15.75L10.98 15.69Q10.42 15.06 9.74 14.45L9.73 14.44L9.70 14.41Q6.66 13.42 4.87 12.70L4.97 12.80L4.78 12.61Q10.81 19.86 10.81 29.26L10.91 29.36L10.88 29.33Q10.86 36.92 6.71 42.79L6.78 42.86L6.74 42.83Q7.42 42.59 8.72 42.17L8.66 42.11L8.59 42.04Q8.63 42.47 7.22 44.56L7.14 44.48L7.16 44.50Q8.86 43.91 12.36 43.15L12.52 43.31L12.46 43.25Q16.12 36.14 15.93 28.37L15.90 28.34L15.91 28.35Q17.52 32.43 20.98 40.31L20.94 40.27L21.00 40.33Q21.12 40.14 21.34 40.14L21.43 40.22L21.94 40.21L21.95 40.21Q22.45 40.94 23.25 42.24L23.32 42.30L23.30 42.29Q24.78 42.13 24.78 42.13L24.84 42.19L24.92 42.27Q25.77 42.09 26.41 42.16L26.46 42.21L26.53 42.28Q28.09 38.25 31.44 30.25L31.39 30.20L31.50 30.31Q31.37 35.74 33.96 41.07Z"/><path fill="#444" d="M71.25 40.21L71.23 40.20L68.91 33.42L68.81 33.32Q64.40 20.69 58.46 14.30L58.53 14.36L58.50 14.33Q60.46 15.35 63.05 15.96L63.06 15.96L63.08 15.98Q68.23 22.28 72.57 35.03L72.68 35.14L72.53 34.99Q75.58 26.88 76.26 25.28L76.37 25.39L76.36 25.38Q78.68 19.70 81.50 16.39L81.62 16.52L81.53 16.43Q83.66 16.12 86.29 15.25L86.25 15.21L86.21 15.16Q81.70 19.84 78.66 27.07L78.61 27.02L78.62 27.03Q77.26 30.73 73.57 40.25L73.45 40.13L73.60 40.29Q72.90 40.16 72.33 40.12L72.36 40.15L72.38 40.17Q71.78 40.14 71.21 40.18ZM76.33 42.71L76.34 42.72L76.21 42.59Q79.03 32.62 80.59 28.58L80.53 28.52L80.54 28.53Q83.53 20.82 87.95 15.95L87.99 16.00L88.02 16.03Q86.99 16.40 84.89 17.13L84.96 17.19L86.04 15.80L85.96 15.72Q86.62 15.12 87.22 14.47L87.14 14.38L87.14 14.39Q84.48 15.53 81.47 16.10L81.43 16.06L81.40 16.03Q76.96 21.29 73.07 32.75L73.07 32.75L73.06 32.74Q69.43 22.64 66.23 18.26L66.35 18.38L66.36 18.39Q65.97 18.30 65.09 18.15L65.09 18.15L64.99 18.05Q64.73 17.63 63.13 15.58L63.25 15.70L63.27 15.72Q60.21 14.90 57.51 13.50L57.48 13.47L57.53 13.52Q64.23 20.67 68.61 33.46L68.50 33.36L68.46 33.32Q69.82 37.12 71.00 40.70L70.99 40.68L71.00 40.69Q71.32 40.71 72.16 40.60L72.10 40.54L72.08 40.52Q72.43 41.21 73.11 42.54L73.19 42.62L73.19 42.62Q74.05 42.56 74.77 42.64L74.67 42.54L74.76 42.62Q75.48 42.62 76.24 42.62Z"/><path fill="#222" d="M45.51 28.87L45.59 28.94L45.60 28.96Q43.03 28.94 42.00 30.12L41.98 30.10L41.99 30.11Q40.94 31.26 40.94 33.89L41.02 33.97L40.87 33.82Q40.96 39.01 45.57 38.82L45.64 38.89L45.54 38.79Q47.72 39.08 49.08 37.52L48.95 37.39L49.04 37.48Q50.42 35.94 50.19 33.89L50.13 33.83L50.06 33.76Q50.03 31.18 49.16 30.15L49.21 30.21L49.23 30.23Q47.79 28.94 45.58 28.94ZM50.51 38.62L50.56 38.68L50.58 38.70Q49.31 41.08 44.63 41.08L44.69 41.15L43.31 41.21L43.24 41.14Q40.85 41.11 39.74 39.97L39.73 39.95L39.87 40.09Q38.87 39.10 38.61 36.70L38.61 36.70L38.46 36.55Q38.36 35.12 38.29 33.33L38.28 33.32L38.27 33.31Q38.21 32.30 38.05 30.36L38.09 30.39L38.01 30.31Q38.04 26.15 43.21 26.15L43.24 26.18L44.74 26.12L44.69 26.06Q47.57 26.06 49.67 27.35L49.67 27.35L49.62 27.30Q50.47 27.85 50.97 28.54L51.08 28.65L50.91 28.48Q51.35 27.86 51.89 26.22L51.75 26.09L51.84 26.17Q53.11 26.04 55.43 25.43L55.28 25.27L55.42 25.42Q52.79 29.59 52.79 34.85L52.75 34.82L52.66 34.72Q52.71 38.50 54.08 41.59L54.20 41.70L54.11 41.62Q52.93 41.28 51.03 41.05L51.04 41.06L51.10 41.12Q50.96 40.33 50.65 38.77ZM53.94 43.96L53.83 43.85L56.02 44.40L56.19 44.57Q57.39 44.86 58.38 45.32L58.29 45.23L58.38 45.31Q54.68 40.93 54.68 34.84L54.58 34.74L54.71 34.87Q54.72 30.34 56.85 26.54L56.71 26.40L56.80 26.49Q56.19 26.76 54.86 27.14L54.86 27.14L54.82 27.09Q55.14 26.31 56.01 24.79L56.03 24.80L55.94 24.72Q55.45 24.99 51.45 25.83L51.55 25.93L50.98 27.75L50.87 27.64Q49.12 25.93 44.71 25.70L44.78 25.77L44.75 25.74Q43.53 25.67 41.28 25.82L41.28 25.81L41.40 25.94Q37.64 26.21 37.75 30.25L37.77 30.26L37.76 30.25Q37.82 33.52 38.40 37.97L38.47 38.05L38.43 38.42L38.55 38.54Q38.62 39.33 39.42 40.44L39.34 40.36L39.43 40.45Q39.60 40.63 39.79 40.74L39.68 40.63L39.68 40.62Q39.96 41.13 40.34 41.70L40.39 41.76L40.48 41.84Q41.82 43.30 45.21 43.49L45.14 43.42L45.09 43.37Q46.88 43.64 47.04 43.64L46.90 43.50L48.47 43.51L48.53 43.57Q51.66 43.50 52.87 41.94L52.90 41.97L53.01 42.08Q53.27 42.60 53.88 43.89ZM47.33 31.15L47.33 31.14L47.33 31.14Q48.76 31.24 49.60 31.70L49.61 31.71L49.47 31.57Q49.91 32.50 49.91 33.95L49.82 33.86L49.85 33.89Q50.04 35.80 48.77 37.22L48.80 37.26L48.66 37.12Q47.49 38.65 45.58 38.46L45.57 38.45L45.53 38.40Q44.05 38.37 43.02 37.95L43.11 38.04L43.13 38.06Q42.86 37.14 42.86 35.92L42.96 36.03L42.87 35.93Q43.01 32.42 45.64 31.47L45.70 31.53L45.63 31.46Q46.49 31.10 47.29 31.10Z"/><path fill="#222" d="M124.72 31.00L124.65 30.92L124.55 30.82Q124.50 29.67 122.56 28.95L122.56 28.94L122.57 28.95Q122.05 28.74 121.52 28.74L121.47 28.69L121.59 28.81Q120.20 28.80 119.14 29.37L119.05 29.28L119.15 29.38Q117.68 30.01 117.80 31.23L117.77 31.20L117.79 31.22Q118.19 34.09 118.04 36.34L118.05 36.35L118.12 36.43Q117.90 38.79 117.17 41.30L117.15 41.28L117.11 41.24Q114.94 41.69 113.76 42.11L113.77 42.12L113.82 42.17Q115.40 38.54 115.40 34.54L115.41 34.55L115.45 34.59Q115.46 29.15 112.87 24.70L112.78 24.61L112.86 24.69Q114.11 25.22 116.51 25.94L116.40 25.84L116.44 25.87Q116.78 26.63 117.16 28.15L117.12 28.12L117.16 28.16Q118.50 26.07 122.39 26.15L122.38 26.14L122.31 26.07Q123.85 26.17 124.65 26.28L124.65 26.28L124.64 26.26Q127.54 26.58 127.61 28.59L127.70 28.68L127.66 28.64Q127.74 29.60 127.55 30.62L127.57 30.64L127.63 30.71Q127.14 33.19 127.33 36.20L127.30 36.16L127.35 36.21Q127.50 39.06 128.49 41.62L128.41 41.53L128.36 41.49Q126.65 41.07 124.94 40.92L124.91 40.89L125.09 41.07Q124.54 38.62 124.46 35.95L124.49 35.98L124.39 35.88Q124.48 33.30 124.70 30.98ZM124.67 41.37L124.60 41.31L124.72 41.42Q125.52 41.43 126.82 41.66L126.66 41.50L127.10 42.63L127.09 42.62Q127.36 43.19 127.59 43.72L127.44 43.58L127.48 43.61Q129.79 44.06 132.50 45.24L132.58 45.32L132.49 45.23Q130.11 42.09 129.43 38.29L129.51 38.37L129.48 38.34Q129.14 36.21 129.26 32.52L129.31 32.58L129.17 32.44Q129.21 32.18 129.25 31.38L129.23 31.36L129.27 31.40Q129.32 30.76 129.24 30.26L129.18 30.20L129.33 30.35Q129.06 28.52 127.96 28.02L128.09 28.16L127.98 28.05Q127.85 27.23 127.09 26.62L127.05 26.59L127.22 26.76Q125.49 25.71 122.44 25.78L122.43 25.77L122.37 25.71Q120.51 25.75 119.67 25.94L119.75 26.03L119.64 25.91Q118.28 26.34 117.33 27.25L117.34 27.27L117.30 27.22Q117.07 26.58 116.69 25.55L116.80 25.66L116.74 25.60Q113.91 24.90 112.08 23.91L112.18 24.02L112.07 23.90Q115.17 28.83 115.17 34.57L115.28 34.69L115.22 34.63Q115.26 39.05 113.36 42.89L113.22 42.76L113.32 42.85Q114.07 42.61 115.36 42.23L115.34 42.21L115.36 42.23Q114.78 43.40 114.25 44.39L114.14 44.28L114.24 44.38Q115.62 43.89 119.16 43.32L119.12 43.28L119.22 43.38Q120.20 38.23 120.08 33.40L120.11 33.42L120.02 33.34Q119.93 32.44 121.11 31.72L121.16 31.77L121.17 31.78Q122.14 31.08 123.24 30.96L123.29 31.01L123.42 31.14Q123.87 31.09 124.29 31.28L124.20 31.19L124.16 31.15Q124.04 33.74 124.07 36.29L124.12 36.33L124.00 36.22Q124.18 38.86 124.67 41.38Z"/><path fill="#222" d="M97.40 40.14L97.45 40.19L95.23 40.26L95.23 40.26Q94.86 40.34 93.89 40.40L93.82 40.33L93.93 40.44Q92.96 40.50 92.47 40.50L92.40 40.43L92.40 40.43Q90.75 40.42 89.72 39.58L89.77 39.63L89.70 39.56Q90.43 38.39 92.07 36.26L92.16 36.35L92.15 36.33Q93.34 37.84 95.55 37.61L95.52 37.58L95.64 37.69Q96.46 37.48 97.10 36.84L97.17 36.91L97.21 36.94Q97.88 36.32 97.76 35.44L97.62 35.29L97.63 35.31Q97.68 30.86 97.76 26.30L97.77 26.31L97.67 26.21Q97.75 21.65 98.28 17.04L98.28 17.03L98.21 16.96Q100.26 16.89 102.39 15.86L102.29 15.76L102.41 15.87Q100.46 22.52 100.46 29.76L100.50 29.80L100.51 29.81Q100.46 33.31 100.92 36.81L100.95 36.84L100.85 36.74Q100.95 37.11 100.95 37.45L101.04 37.54L101.06 37.56Q101.04 38.11 100.81 38.64L100.81 38.64L100.71 38.54Q100.20 39.86 97.39 40.13ZM102.24 42.88L102.35 43.00L102.73 43.03L102.99 42.87L103.21 42.71L103.14 42.65Q103.54 42.47 103.61 42.36L103.58 42.32L103.67 42.41Q103.84 41.22 103.58 40.23L103.51 40.16L103.52 40.17Q102.26 34.46 102.53 28.10L102.53 28.10L102.53 28.10Q102.62 21.83 104.41 15.93L104.51 16.04L104.44 15.96Q103.54 16.58 102.28 17.31L102.37 17.40L102.35 17.38Q102.48 16.55 102.90 15.03L102.87 15.00L102.88 15.02Q100.47 16.45 97.81 16.76L97.85 16.80L97.77 16.72Q97.50 21.21 97.43 26.16L97.29 26.02L97.39 26.12Q97.23 31.93 97.30 35.36L97.37 35.43L97.43 35.49Q97.31 37.08 95.56 37.24L95.54 37.21L95.65 37.33Q93.96 37.47 92.29 35.83L92.17 35.71L92.32 35.86Q90.11 38.22 89.16 39.78L89.30 39.92L89.32 39.94Q89.95 40.57 90.98 40.80L90.87 40.69L90.86 40.68Q90.84 40.89 90.57 41.12L90.53 41.08L90.48 41.03Q91.95 42.00 93.93 42.26L94.08 42.42L93.96 42.30Q94.39 42.38 97.68 42.68L97.71 42.71L97.69 42.69Q100.94 42.96 102.31 42.96Z"/></svg>