<svg xmlns="http://www.w3.org/2000/svg" width="150" height="50" viewBox="0,0,150,50"><path fill="#111" d="M92.92 30.60L93.02 30.69L93.02 30.70Q92.93 30.61 96.32 30.57L96.42 30.67L96.32 30.57Q98.57 30.54 99.63 30.57L99.65 30.59L99.60 30.54Q98.56 27.67 96.12 22.04L96.17 22.09L96.29 22.20Q95.62 23.51 94.57 26.36L94.65 26.44L94.65 26.45Q93.53 29.22 92.95 30.63ZM100.87 33.18L100.81 33.12L100.84 33.15Q98.47 33.03 96.26 33.06L96.24 33.05L96.25 33.05Q93.98 33.06 91.69 33.25L91.77 33.34L91.69 33.26Q90.16 36.67 86.92 40.86L87.00 40.94L87.06 40.99Q84.34 41.47 82.97 41.97L83.08 42.08L83.12 42.12Q88.28 36.51 92.97 23.14L92.94 23.12L92.94 23.12Q94.07 19.57 95.44 16.33L95.43 16.31L95.49 16.37Q95.76 16.35 96.10 16.35L96.10 16.34L96.84 16.36L96.87 16.39Q97.57 17.70 102.40 29.35L102.45 29.39L102.52 29.46Q105.67 37.18 109.67 41.33L109.74 41.40L109.78 41.44Q109.29 41.33 105.40 40.45L105.35 40.40L105.37 40.42Q102.70 37.18 100.72 33.03ZM105.15 40.62L105.26 40.73L105.83 40.81L105.79 40.77Q106.11 40.86 106.42 40.97L106.34 40.89L106.36 40.92Q106.70 41.30 108.53 43.31L108.55 43.34L108.63 43.41Q112.26 44.30 114.65 45.33L114.50 45.17L114.50 45.18Q109.02 40.64 105.02 32.65L105.00 32.63L105.15 32.78Q103.40 29.35 101.95 25.39L101.92 25.36L99.27 17.95L99.26 17.94Q98.93 17.95 98.70 17.95L98.69 17.94L98.18 17.96L98.15 17.94Q97.86 17.34 97.14 15.97L97.15 15.98L97.22 16.06Q96.67 16.04 96.21 16.00L96.25 16.04L96.15 15.94Q95.67 15.87 95.14 15.87L95.24 15.98L95.20 15.93Q93.86 19.92 89.97 30.09L89.96 30.08L89.82 29.93Q86.85 38.04 82.20 42.84L82.14 42.77L82.24 42.88Q83.16 42.34 85.17 41.73L85.21 41.77L85.22 41.78Q84.52 42.72 82.96 44.51L82.78 44.33L82.97 44.51Q84.53 43.71 88.45 42.95L88.58 43.08L88.43 42.94Q91.86 38.59 93.42 35.36L93.57 35.52L93.41 35.35Q95.17 35.25 97.49 35.29L97.61 35.41L97.58 35.37Q100.36 35.45 101.73 35.53L101.68 35.47L101.68 35.48Q102.80 37.69 105.16 40.63ZM97.44 25.94L97.46 25.96L97.57 26.07Q98.37 28.09 99.13 30.19L99.09 30.14L95.92 30.28L95.85 30.21Q96.51 28.86 97.58 26.08Z"/><path fill="#111" d="M21.85 40.15L21.88 40.18L19.52 33.37L19.39 33.24Q15.11 20.73 9.17 14.34L9.08 14.25L9.09 14.26Q11.12 15.33 13.70 15.94L13.76 15.99L13.88 16.11Q18.93 22.31 23.27 35.07L23.29 35.08L23.34 35.13Q26.22 26.86 26.90 25.26L26.98 25.33L26.95 25.30Q29.35 19.71 32.17 16.40L32.20 16.43L32.19 16.42Q34.30 16.09 36.92 15.22L36.83 15.12L36.89 15.18Q32.22 19.68 29.17 26.92L29.34 27.09L29.35 27.10Q27.88 30.69 24.19 40.21L24.20 40.22L24.24 40.26Q23.68 40.27 23.11 40.23L23.03 40.15L22.97 40.09Q22.54 40.23 21.97 40.27ZM26.97 42.68L26.83 42.54L27.00 42.71Q29.73 32.66 31.29 28.62L31.31 28.63L31.32 28.65Q34.27 20.90 38.69 16.03L38.76 16.10L38.73 16.07Q37.70 16.45 35.60 17.17L35.55 17.12L36.67 15.76L36.65 15.74Q37.19 15.03 37.80 14.38L37.85 14.43L37.93 14.51Q34.97 15.36 31.97 15.93L31.99 15.95L32.09 16.05Q27.72 21.39 23.84 32.85L23.86 32.87L23.70 32.71Q20.19 22.73 16.99 18.35L16.98 18.34L16.88 18.24Q16.61 18.28 15.74 18.12L15.66 18.05L15.60 17.99Q15.45 17.68 13.85 15.63L13.79 15.57L13.90 15.68Q10.79 14.81 8.09 13.41L8.20 13.52L8.27 13.59Q14.74 20.52 19.12 33.31L19.20 33.39L19.19 33.38Q20.46 37.08 21.64 40.66L21.66 40.69L21.58 40.60Q22.00 40.72 22.84 40.61L22.87 40.64L22.76 40.53Q23.20 41.31 23.88 42.64L23.74 42.50L23.76 42.51Q24.60 42.45 25.32 42.52L25.41 42.61L25.45 42.65Q26.06 42.53 26.82 42.53Z"/><path fill="#222" d="M73.16 27.84L73.03 27.70L72.97 27.64Q69.51 27.61 68.40 30.96L68.33 30.88L68.39 30.95Q68.06 32.06 67.95 33.13L68.00 33.19L67.97 33.15Q67.76 35.18 68.75 36.52L68.77 36.54L68.82 36.59Q69.96 37.58 72.44 37.62L72.51 37.69L72.47 37.65Q74.34 37.73 75.75 36.59L75.69 36.53L75.80 36.65Q77.17 35.46 77.17 33.67L77.25 33.75L77.25 33.75Q77.19 33.35 77.12 32.97L77.02 32.87L77.15 33.00Q76.96 27.90 73.15 27.83ZM72.93 40.17L73.04 40.27L72.93 40.17Q69.09 40.36 67.30 38.34L67.44 38.48L67.32 38.36Q67.17 39.47 66.71 40.84L66.77 40.89L66.59 40.72Q64.64 41.47 63.38 42.04L63.45 42.11L63.39 42.05Q65.67 36.18 65.67 29.67L65.57 29.57L65.64 29.64Q65.72 21.42 62.29 13.58L62.25 13.54L62.23 13.51Q64.50 14.79 65.83 15.25L65.88 15.30L65.93 15.35Q67.94 21.89 68.09 27.72L68.21 27.83L68.20 27.82Q69.65 25.16 73.38 25.19L73.30 25.12L73.41 25.23Q76.48 25.10 77.96 26.96L78.12 27.12L78.12 27.12Q79.80 29.25 79.95 32.83L80.02 32.91L80.07 32.96Q80.14 34.13 80.07 35.73L80.05 35.72L80.05 35.72Q79.93 37.08 79.05 38.22L79.05 38.22L79.16 38.32Q77.34 39.97 73.00 40.24ZM78.47 42.74L78.42 42.69L78.43 42.69Q79.97 42.76 81.46 42.07L81.54 42.15L81.51 42.13Q82.58 40.80 82.62 38.85L82.60 38.83L82.56 38.79Q82.50 38.24 82.35 37.06L82.41 37.12L82.40 37.11Q82.45 36.56 82.34 35.64L82.32 35.62L82.18 35.49Q81.35 30.70 79.79 28.64L79.83 28.68L79.86 28.71Q79.89 28.70 79.09 27.82L79.00 27.74L79.11 27.85Q78.77 27.47 78.24 26.67L78.37 26.80L78.31 26.74Q76.66 24.75 73.31 24.78L73.25 24.73L73.41 24.89Q71.22 24.79 69.96 25.39L70.12 25.55L69.98 25.41Q69.75 20.99 69.14 17.80L69.05 17.71L69.03 17.68Q68.31 17.54 66.83 17.16L66.77 17.10L66.90 17.24Q66.63 16.36 66.18 14.91L66.23 14.97L66.35 15.09Q63.73 14.10 61.48 12.54L61.50 12.55L61.55 12.61Q65.26 20.73 65.26 29.52L65.31 29.58L65.35 29.61Q65.36 36.59 62.88 42.80L62.77 42.68L62.79 42.71Q63.52 42.41 64.86 41.84L64.92 41.91L64.82 41.80Q64.62 42.60 64.01 44.12L63.95 44.06L63.97 44.07Q65.96 43.17 68.74 42.64L68.73 42.63L69.10 40.79L69.27 40.97Q71.44 42.52 78.37 42.63ZM74.58 29.94L74.68 30.04L74.69 30.05Q75.73 30.06 76.26 30.44L76.23 30.41L76.19 30.37Q76.57 30.94 76.80 32.96L76.69 32.85L76.71 32.87Q76.99 34.83 75.74 36.14L75.70 36.10L75.80 36.20Q74.51 37.48 72.56 37.36L72.45 37.25L72.48 37.28Q71.54 37.40 70.05 36.91L70.04 36.89L70.06 36.92Q69.96 36.55 69.96 36.02L70.00 36.06L69.94 36.00Q69.90 32.87 71.46 31.27L71.42 31.23L71.36 31.21L71.42 31.27Q72.91 29.95 74.66 30.02Z"/><path fill="#111" d="M120.57 19.61L120.54 19.58L120.72 19.76Q118.70 19.84 117.75 19.99L117.65 19.89L117.70 19.93Q116.11 20.21 114.89 20.75L114.88 20.73L114.86 20.71Q111.41 22.21 111.29 26.89L111.13 26.73L111.21 26.81Q111.09 29.43 111.74 32.36L111.87 32.49L111.80 32.43Q112.60 36.38 116.21 37.56L116.21 37.56L116.25 37.60Q118.12 38.14 119.57 37.99L119.69 38.10L119.99 37.95L120.12 38.08Q120.21 37.98 120.40 38.01L120.53 38.15L120.46 38.08Q120.66 38.12 120.81 38.08L120.77 38.04L120.70 37.98Q123.37 37.75 124.74 37.18L124.77 37.21L121.22 33.70L121.12 33.60Q121.53 33.36 122.14 32.75L122.06 32.67L123.13 31.91L122.95 31.74Q124.78 33.79 126.76 35.85L126.92 36.01L126.83 35.92Q129.25 34.19 129.51 28.82L129.41 28.72L129.33 28.63Q129.46 27.78 129.46 26.87L129.49 26.89L129.56 26.97Q129.47 21.20 124.41 20.10L124.53 20.22L124.50 20.19Q123.15 19.83 120.64 19.68ZM133.39 41.72L133.48 41.81L133.30 41.63Q132.74 42.10 131.56 42.98L131.64 43.05L127.18 39.31L127.14 39.27Q124.75 40.58 120.49 40.62L120.49 40.62L120.58 40.71Q113.96 40.76 111.15 38.51L111.09 38.45L111.03 38.39Q109.23 36.60 108.78 33.63L108.77 33.62L108.93 33.78Q108.67 31.92 108.29 28.34L108.31 28.36L108.31 28.37Q108.37 27.70 108.25 25.95L108.20 25.89L108.10 25.79Q107.95 24.24 107.99 23.36L108.04 23.42L108.11 23.48Q108.18 20.39 109.93 18.83L110.01 18.91L109.97 18.87Q111.40 17.45 114.60 16.95L114.60 16.95L114.58 16.94Q117.18 16.68 120.08 16.76L120.04 16.72L119.94 16.62Q127.56 16.85 130.68 19.21L130.74 19.27L130.66 19.19Q132.87 21.37 132.61 26.28L132.62 26.29L132.45 26.12Q132.26 29.78 132.07 31.11L132.24 31.28L132.24 31.28Q131.61 35.79 129.28 38.11L129.24 38.06L129.29 38.12Q130.68 39.28 133.42 41.75ZM128.61 17.53L128.58 17.49L128.57 17.48Q126.57 16.78 120.06 16.28L119.97 16.19L119.99 16.21Q118.72 16.35 115.94 16.46L115.89 16.42L115.77 16.30Q111.62 16.60 109.37 18.58L109.41 18.61L109.41 18.62Q107.67 19.99 107.67 23.15L107.78 23.27L107.77 23.26Q107.72 24.04 107.87 25.76L107.81 25.69L107.78 25.66Q108.06 27.51 108.06 28.38L107.95 28.27L108.01 28.33Q108.15 30.07 108.53 33.65L108.63 33.75L108.59 33.71Q109.00 36.63 110.60 38.68L110.58 38.66L110.58 38.67Q110.90 39.48 112.11 40.62L112.13 40.63L112.02 40.53Q114.89 42.67 120.07 42.94L119.92 42.79L120.08 42.95Q120.40 42.93 122.80 43.04L122.67 42.92L122.77 43.01Q127.45 43.05 129.73 41.98L129.84 42.09L129.87 42.12Q130.70 42.76 135.42 46.34L135.32 46.24L135.37 46.29Q135.95 45.73 137.25 44.74L137.31 44.80L137.31 44.80Q136.39 44.08 135.59 43.39L135.71 43.51L133.94 41.93L134.10 41.93L133.99 41.82Q133.47 41.41 132.25 40.39L132.33 40.47L132.19 40.33Q134.15 37.88 134.15 33.35L134.27 33.46L134.26 33.45Q134.18 32.96 134.22 32.12L134.31 32.21L134.27 32.16Q134.28 31.30 134.28 30.88L134.22 30.82L134.28 30.89Q134.24 25.32 133.52 22.96L133.56 23.01L133.57 23.02Q133.25 21.78 132.38 20.72L132.27 20.61L132.23 20.57Q131.48 18.49 128.55 17.47ZM122.62 22.11L122.45 21.94L122.46 21.96Q126.64 21.98 128.46 23.58L128.36 23.48L128.41 23.53Q129.10 24.87 129.22 26.20L129.16 26.15L129.04 26.02Q129.10 27.26 129.02 28.63L129.09 28.71L129.02 28.63Q128.86 33.77 126.92 35.48L126.77 35.33L126.91 35.47Q125.57 34.13 123.06 31.39L122.96 31.29L123.03 31.36Q122.27 32.12 120.71 33.68L120.66 33.63L120.63 33.61Q121.15 34.16 122.29 35.34L122.44 35.49L122.28 35.44L122.26 35.42Q122.79 35.91 123.82 36.98L123.81 36.98L123.85 37.01Q122.89 37.31 120.57 37.62L120.64 37.69L120.05 37.63L119.72 37.72L119.72 37.76L119.59 37.62Q116.11 37.61 114.13 35.98L114.28 36.13L114.11 35.95Q113.23 34.01 113.27 30.89L113.30 30.92L113.21 30.83Q113.37 22.12 122.55 22.04Z"/><path fill="#444" d="M38.26 38.98L38.35 39.07L38.27 38.99Q40.11 36.57 44.87 29.29L44.88 29.30L44.77 29.20Q48.98 23.17 51.84 19.89L51.70 19.76L51.76 19.81Q49.72 20.17 47.63 20.17L47.66 20.21L47.51 20.05Q42.39 20.19 38.39 18.40L38.28 18.29L38.41 18.41Q37.58 16.33 36.90 14.77L36.95 14.83L36.92 14.79Q41.43 16.91 47.10 17.02L47.26 17.18L47.29 17.21Q52.39 17.24 57.56 15.34L57.52 15.30L57.47 15.25Q57.12 16.12 56.82 16.92L56.74 16.83L56.36 18.62L56.19 18.46Q53.19 22.16 49.20 27.98L49.21 27.99L45.82 32.75L45.96 32.90Q44.25 35.29 42.42 37.58L42.46 37.62L42.41 37.57Q45.68 36.92 49.00 37.00L49.03 37.03L49.03 37.03Q52.34 37.11 55.50 38.02L55.47 37.99L55.91 39.53L55.99 39.61Q56.32 40.51 56.66 41.35L56.66 41.35L56.59 41.28Q51.86 39.63 46.72 39.82L46.74 39.85L46.81 39.92Q41.66 40.10 37.17 42.11L37.20 42.14L37.13 42.07Q37.51 41.01 38.24 38.95ZM36.63 42.87L36.61 42.84L36.47 42.71Q37.83 42.24 38.63 41.97L38.54 41.89L38.63 41.97Q38.31 42.68 37.63 44.21L37.56 44.14L37.69 44.27Q43.28 42.01 49.25 42.24L49.22 42.21L49.34 42.32Q55.52 42.41 60.54 45.19L60.59 45.24L60.73 45.38Q59.21 42.87 58.41 40.70L58.47 40.76L58.49 40.79Q58.00 40.55 56.47 39.98L56.41 39.92L56.35 39.86Q56.26 39.19 55.84 37.71L55.87 37.74L55.72 37.60Q51.62 36.46 46.52 36.66L46.49 36.62L46.56 36.69Q48.72 33.98 52.26 28.42L52.27 28.43L52.21 28.37Q55.85 22.64 57.75 20.09L57.79 20.13L57.80 20.15Q58.21 18.65 59.23 15.94L59.39 16.10L59.23 15.93Q58.63 16.37 57.18 16.97L57.25 17.04L57.12 16.91Q57.49 16.14 58.22 14.62L58.27 14.67L58.26 14.66Q52.95 16.81 47.23 16.73L47.29 16.79L47.24 16.74Q41.20 16.56 36.25 14.05L36.27 14.07L36.21 14.01Q37.50 16.52 38.22 18.76L38.11 18.65L38.19 18.73Q39.34 19.31 40.14 19.54L40.02 19.42L40.12 19.51Q40.39 20.21 40.66 21.66L40.59 21.59L40.55 21.55Q44.29 22.62 49.16 22.43L49.16 22.43L49.11 22.38Q46.79 25.66 43.48 30.64L43.50 30.66L38.04 39.06L38.04 39.06Q37.53 40.19 36.50 42.74Z"/></svg>