<svg xmlns="http://www.w3.org/2000/svg" width="150" height="50" viewBox="0,0,150,50"><path fill="#333" d="M104.47 40.48L104.33 40.34L104.32 40.32Q101.43 36.52 98.80 27.88L98.72 27.79L98.75 27.82Q98.08 25.67 97.28 23.53L97.35 23.60L94.48 32.38L94.51 32.42Q92.52 37.16 90.12 40.40L90.31 40.59L90.23 40.51Q89.32 40.51 87.68 40.66L87.79 40.77L87.76 40.74Q87.83 39.52 87.83 38.26L87.84 38.28L87.90 38.33Q87.95 32.36 85.21 26.23L85.14 26.17L85.13 26.16Q81.95 19.21 76.09 14.22L76.11 14.24L76.21 14.34Q78.26 14.95 80.62 15.48L80.53 15.39L80.54 15.40Q89.40 24.03 90.69 34.99L90.60 34.90L90.53 34.83Q92.25 31.61 93.70 26.24L93.70 26.23L93.62 26.16Q95.70 18.76 96.19 17.35L96.18 17.34L98.44 17.35L98.35 17.26Q99.15 19.39 99.80 21.72L99.71 21.63L100.89 26.01L100.90 26.01Q102.60 31.60 104.01 34.84L104.00 34.83L103.92 34.75Q105.70 23.24 113.62 15.89L113.62 15.89L113.49 15.77Q114.98 15.39 117.95 14.74L118.08 14.88L118.04 14.83Q112.73 19.15 109.69 25.28L109.72 25.31L109.70 25.30Q106.55 31.48 106.55 38.26L106.52 38.22L106.67 38.37Q106.51 39.31 106.59 40.46L106.72 40.59L105.54 40.44L105.62 40.52Q105.00 40.43 104.43 40.43ZM110.53 43.18L110.53 43.18L110.55 43.20Q109.37 39.70 109.49 35.82L109.39 35.72L109.49 35.83Q109.79 24.25 119.16 15.99L119.19 16.02L119.22 16.05Q118.15 16.16 116.21 16.70L116.36 16.84L116.29 16.77Q117.33 16.03 119.24 14.24L119.13 14.13L119.23 14.23Q116.42 14.85 113.49 15.34L113.47 15.33L113.46 15.31Q105.95 22.43 104.05 31.91L104.06 31.92L104.19 32.04Q103.65 30.44 100.80 18.98L100.62 18.81L100.65 18.84Q100.22 18.90 99.26 18.90L99.42 19.05L98.97 17.85L99.09 17.96Q99.01 17.47 98.79 16.97L98.71 16.90L95.74 16.82L95.90 16.98Q94.89 19.25 93.62 24.37L93.73 24.48L93.72 24.47Q92.38 29.52 91.39 32.00L91.53 32.14L91.47 32.08Q89.80 24.09 84.24 17.77L84.30 17.83L84.33 17.86Q83.78 17.73 82.83 17.54L82.84 17.55L82.90 17.61Q82.19 16.78 80.62 15.14L80.62 15.13L80.64 15.16Q77.24 14.35 75.07 13.55L74.99 13.46L75.05 13.52Q80.65 18.13 83.92 24.34L83.96 24.38L83.89 24.31Q87.48 31.06 87.48 38.07L87.53 38.11L87.51 38.10Q87.48 39.62 87.29 41.22L87.30 41.24L87.16 41.10Q87.51 41.22 87.97 41.12L87.97 41.12L87.95 41.11Q88.33 40.93 88.56 40.93L88.55 40.92L88.61 42.01L88.59 41.99Q88.56 42.42 88.63 42.95L88.73 43.05L88.61 42.92Q89.77 42.87 92.06 42.72L92.04 42.70L92.14 42.80Q95.78 37.42 98.52 28.02L98.42 27.92L98.42 27.91Q101.31 36.81 104.28 40.77L104.28 40.78L104.21 40.71Q104.62 40.66 105.46 40.78L105.49 40.81L105.60 40.92Q106.38 41.89 107.45 42.96L107.55 43.06L107.38 42.88Q108.18 42.97 110.58 43.23Z"/><path fill="#333" d="M120.47 41.06L120.52 41.11L118.80 41.10L118.90 41.20Q115.36 41.05 114.41 38.92L114.46 38.97L114.53 39.04Q115.62 37.92 117.06 36.81L117.20 36.95L117.08 36.83Q117.64 38.99 120.49 38.83L120.48 38.82L120.60 38.94Q121.41 38.91 122.44 38.68L122.30 38.55L122.36 38.61Q123.22 38.02 123.14 37.07L123.23 37.16L123.21 37.13Q123.18 36.07 121.39 35.39L121.29 35.30L117.57 33.85L117.59 33.88Q115.17 32.45 114.83 28.91L114.96 29.03L114.85 28.92Q114.72 26.86 116.89 26.29L116.92 26.31L116.90 26.30Q117.87 26.09 120.84 26.09L120.84 26.09L120.82 26.07Q125.67 26.04 126.58 28.56L126.52 28.49L126.54 28.52Q125.84 28.99 125.12 29.45L125.19 29.52L123.89 30.58L123.75 30.44Q123.28 28.56 120.04 28.33L120.10 28.39L120.06 28.35Q119.42 28.32 118.39 28.74L118.53 28.87L118.45 28.80Q117.84 29.10 117.84 30.20L117.87 30.23L117.84 30.20Q118.30 31.39 120.13 32.08L120.00 31.95L120.15 32.09Q121.15 32.41 123.82 33.52L123.79 33.49L123.80 33.50Q125.71 34.42 125.90 36.97L125.84 36.91L125.89 36.96Q125.96 37.60 125.89 38.59L125.79 38.50L125.81 38.51Q125.85 39.47 125.28 40.12L125.29 40.13L125.15 39.98Q123.58 41.12 120.54 41.12ZM125.26 43.67L125.27 43.68L125.36 43.78Q126.20 43.74 127.57 43.43L127.69 43.56L127.53 43.39Q128.65 42.77 128.46 41.55L128.41 41.50L128.38 41.47Q128.31 40.90 128.01 39.30L128.19 39.49L128.13 39.42Q127.49 36.39 125.70 35.17L125.84 35.31L125.84 35.31Q125.31 33.90 124.05 33.18L124.00 33.13L123.98 33.10Q122.80 32.77 120.32 31.81L120.28 31.77L120.18 31.67Q120.42 31.30 120.68 31.18L120.76 31.26L120.63 31.13Q121.24 30.68 121.89 30.64L121.89 30.63L121.98 30.73Q122.80 30.71 123.56 30.97L123.55 30.96L123.59 31.08L123.69 31.07L123.83 31.02L123.91 31.14L123.74 30.96Q124.95 31.57 125.14 32.83L125.10 32.78L125.08 32.76Q126.36 31.94 128.26 30.27L128.36 30.36L128.26 30.27Q128.03 29.58 127.04 28.40L127.10 28.46L126.96 28.32Q125.90 25.70 120.79 25.58L120.87 25.65L120.83 25.62Q117.70 25.61 115.72 26.19L115.74 26.20L115.65 26.12Q114.20 26.64 114.43 28.73L114.53 28.84L114.53 28.83Q114.50 29.95 115.41 32.04L115.51 32.13L115.42 32.05Q116.09 33.29 117.12 34.02L117.15 34.04L117.03 33.92Q117.82 35.52 119.12 36.20L118.94 36.03L119.07 36.16Q119.94 36.34 120.89 36.72L120.94 36.76L122.83 37.52L122.76 37.44Q122.57 38.70 120.62 38.59L120.47 38.43L120.58 38.54Q120.12 38.58 118.90 38.27L118.89 38.26L118.92 38.14L118.73 38.17L118.71 38.16Q117.88 37.82 117.23 36.33L117.25 36.35L117.20 36.30Q115.09 37.89 113.99 39.03L113.98 39.02L113.91 38.95Q114.29 39.94 115.31 40.73L115.25 40.67L115.23 40.96L115.06 40.79Q116.55 42.97 120.78 43.35L120.82 43.39L120.88 43.45Q121.98 43.40 125.21 43.63Z"/><path fill="#111" d="M62.98 14.30L63.02 14.34L63.03 14.36Q66.71 16.78 71.47 17.01L71.46 17.00L71.53 17.07Q76.12 17.20 80.38 15.45L80.36 15.43L80.47 15.54Q80.13 16.00 79.37 18.78L79.50 18.91L79.36 18.77Q76.72 19.90 73.75 20.05L73.76 20.06L73.63 19.93Q70.69 20.12 67.80 19.39L67.82 19.41L67.76 19.35Q68.61 23.13 68.80 26.79L68.82 26.80L68.74 26.72Q70.66 26.85 72.26 26.82L72.42 26.98L72.31 26.87Q73.64 26.98 76.04 26.86L76.02 26.85L76.05 26.88Q75.93 27.44 75.93 28.13L75.83 28.03L75.85 29.38L75.85 29.38Q73.48 29.41 68.69 29.49L68.73 29.54L68.81 29.61Q68.73 33.64 68.16 37.64L68.07 37.55L68.07 37.55Q70.84 37.05 73.58 37.16L73.60 37.19L73.58 37.17Q76.32 37.27 78.91 38.11L78.79 37.99L78.72 37.92Q78.93 38.86 79.20 39.62L79.23 39.66L79.58 41.07L79.63 41.12Q76.42 39.81 73.00 39.81L73.07 39.89L72.90 39.72Q68.20 39.89 63.94 42.14L63.80 42.00L63.82 42.02Q66.17 35.23 65.90 28.11L65.90 28.11L65.90 28.12Q65.59 20.91 62.93 14.25ZM63.43 42.85L63.31 42.73L63.26 42.68Q64.69 42.13 65.46 41.79L65.28 41.62L65.39 41.72Q65.17 42.46 64.60 43.98L64.59 43.98L64.61 43.99Q69.15 42.02 74.21 42.28L74.24 42.32L74.23 42.30Q79.47 42.67 83.46 45.37L83.39 45.29L83.40 45.31Q82.13 42.66 81.44 40.72L81.51 40.79L81.46 40.74Q80.58 40.24 79.59 39.90L79.53 39.83L79.47 39.78Q79.23 38.55 79.08 37.75L79.02 37.69L79.10 37.77Q75.86 36.62 72.70 36.62L72.70 36.63L72.85 36.78Q71.53 36.60 70.39 36.71L70.54 36.86L70.53 36.85Q70.69 35.64 70.72 34.42L70.65 34.34L70.75 31.86L70.77 31.87Q72.63 31.83 74.42 31.87L74.30 31.75L74.39 31.84Q76.20 31.86 77.98 32.01L78.00 32.02L77.94 31.96Q77.85 31.00 77.85 30.05L77.95 30.15L77.80 28.09L77.09 28.26L77.16 28.34Q76.68 28.35 76.22 28.35L76.27 28.39L76.18 28.31Q76.10 27.53 76.25 26.24L76.29 26.28L76.38 26.37Q74.66 26.48 73.48 26.51L73.66 26.69L73.48 26.52Q72.62 26.61 70.80 26.54L70.74 26.48L70.72 26.46Q70.72 25.13 70.53 22.31L70.60 22.38L70.47 22.25Q71.46 22.33 72.45 22.33L72.59 22.47L72.63 22.50Q77.33 22.49 81.02 20.58L80.97 20.53L80.89 20.45Q81.46 18.09 82.34 15.88L82.35 15.89L82.38 15.93Q80.98 16.70 80.15 17.04L80.19 17.09L80.26 17.15Q80.47 16.30 80.93 14.74L81.04 14.85L80.97 14.78Q76.28 16.87 71.41 16.57L71.55 16.70L71.50 16.66Q66.22 16.36 62.37 13.51L62.38 13.51L62.39 13.52Q65.17 20.37 65.47 27.99L65.48 28.00L65.50 28.02Q65.87 36.00 63.36 42.78Z"/><path fill="#444" d="M38.23 14.22L38.38 14.37L38.23 14.22Q42.13 16.86 46.89 17.09L46.97 17.18L46.90 17.11Q51.43 17.18 55.70 15.43L55.65 15.39L55.84 15.57Q55.43 15.97 54.67 18.75L54.71 18.78L54.69 18.77Q51.94 19.79 48.97 19.94L49.14 20.10L49.01 19.97Q46.04 20.13 43.15 19.40L43.23 19.49L43.28 19.54Q43.87 23.06 44.06 26.72L44.04 26.69L43.98 26.63Q45.98 26.85 47.58 26.81L47.76 26.98L47.67 26.90Q48.96 26.97 51.36 26.86L51.29 26.79L51.23 26.73Q51.25 27.43 51.25 28.12L51.19 28.06L51.28 29.47L51.22 29.41Q48.91 29.51 44.11 29.58L44.15 29.62L44.16 29.63Q44.15 33.74 43.58 37.73L43.53 37.68L43.56 37.71Q46.15 37.02 48.89 37.14L48.82 37.07L48.76 37.01Q51.49 37.12 54.08 37.95L54.17 38.04L54.20 38.07Q54.24 38.83 54.51 39.59L54.45 39.53L54.93 41.08L54.95 41.11Q51.78 39.84 48.36 39.84L48.23 39.71L48.29 39.77Q43.53 39.89 39.27 42.14L39.23 42.10L39.11 41.97Q41.57 35.30 41.30 28.18L41.27 28.15L41.32 28.19Q40.99 20.98 38.32 14.32ZM38.77 42.86L38.79 42.87L38.64 42.72Q39.98 42.09 40.75 41.75L40.64 41.64L40.73 41.73Q40.43 42.38 39.86 43.91L40.02 44.07L40.03 44.08Q44.39 41.93 49.45 42.19L49.49 42.23L49.56 42.30Q54.79 42.66 58.79 45.36L58.74 45.31L58.64 45.22Q57.60 42.80 56.92 40.86L56.80 40.75L56.84 40.78Q55.83 40.16 54.84 39.81L54.92 39.89L54.94 39.92Q54.46 38.44 54.30 37.64L54.36 37.69L54.40 37.74Q51.30 36.73 48.14 36.73L48.00 36.59L48.07 36.66Q46.86 36.59 45.71 36.70L45.86 36.85L45.89 36.87Q45.85 35.47 45.89 34.25L46.05 34.41L46.10 31.87L46.04 31.82Q47.85 31.72 49.64 31.76L49.69 31.81L49.66 31.78Q51.42 31.75 53.21 31.90L53.36 32.05L53.28 31.98Q53.19 31.01 53.19 30.06L53.26 30.12L53.10 28.06L52.33 28.17L52.44 28.28Q52.01 28.34 51.55 28.34L51.61 28.40L51.53 28.32Q51.45 27.56 51.60 26.26L51.67 26.33L51.70 26.35Q50.01 26.50 48.83 26.53L48.81 26.52L48.86 26.56Q48.04 26.69 46.21 26.62L46.17 26.58L46.13 26.53Q46.09 25.17 45.90 22.35L45.80 22.25L45.94 22.39Q46.97 22.50 47.96 22.50L47.81 22.36L47.89 22.44Q52.51 22.33 56.20 20.43L56.24 20.47L56.28 20.51Q56.80 18.09 57.67 15.89L57.66 15.87L57.73 15.94Q56.49 16.87 55.65 17.22L55.59 17.15L55.65 17.21Q55.84 16.33 56.29 14.77L56.23 14.70L56.28 14.76Q51.64 16.90 46.77 16.59L46.74 16.56L46.88 16.70Q41.47 16.28 37.63 13.43L37.63 13.43L37.69 13.49Q40.50 20.37 40.80 27.98L40.95 28.14L40.81 27.99Q41.20 36.00 38.69 42.78Z"/><path fill="#444" d="M26.02 29.51L26.09 29.59L25.91 29.40Q24.73 28.64 24.08 28.68L24.25 28.85L24.17 28.77Q22.80 28.85 21.76 29.86L21.66 29.76L21.68 29.78Q20.80 30.95 20.91 32.33L20.77 32.18L20.76 32.17Q21.09 36.53 20.21 41.07L20.34 41.19L20.26 41.12Q18.14 41.66 17.04 42.19L17.01 42.16L17.04 42.19Q18.42 37.90 18.19 33.44L18.22 33.48L18.14 33.40Q17.89 28.88 16.17 24.81L16.32 24.95L16.19 24.82Q17.40 25.57 19.68 26.22L19.61 26.15L20.24 28.91L20.21 28.88Q20.87 25.96 25.13 25.96L25.16 25.99L25.27 26.10Q25.52 25.90 25.83 25.90L25.79 25.86L25.93 26.00Q27.23 26.01 28.49 26.69L28.42 26.62L28.36 26.56Q27.09 27.96 25.95 29.44ZM27.62 31.49L27.70 31.42L27.81 31.53Q28.50 30.17 30.18 27.73L30.30 27.86L30.27 27.83Q29.73 27.40 28.21 27.14L28.37 27.29L28.21 27.14Q28.53 26.81 28.99 26.20L29.13 26.34L29.00 26.21Q27.12 25.32 25.18 25.51L25.17 25.50L25.26 25.59Q23.33 25.80 22.61 26.07L22.48 25.94L22.57 26.03Q21.11 26.40 20.32 27.50L20.41 27.59L20.16 26.70L19.88 25.78L19.90 25.79Q17.67 25.54 15.69 24.21L15.54 24.06L15.54 24.06Q17.69 28.46 17.92 33.33L17.99 33.40L18.01 33.42Q18.12 38.21 16.37 42.74L16.45 42.82L16.35 42.73Q17.54 42.35 18.41 42.04L18.29 41.92L18.42 42.06Q18.06 43.07 17.57 44.13L17.55 44.12L17.66 44.22Q20.43 43.30 22.56 43.18L22.64 43.26L22.82 38.72L22.89 38.79Q22.83 36.37 22.83 34.13L22.99 34.28L22.97 34.27Q23.00 33.12 23.91 32.15L23.80 32.03L23.75 31.99Q24.74 31.08 25.88 31.01L25.90 31.03L25.91 31.04Q26.40 30.77 27.12 31.45L27.15 31.48L27.61 31.48ZM22.58 29.65L22.64 29.64L22.57 29.68L22.69 29.76Z"/></svg>