<svg xmlns="http://www.w3.org/2000/svg" width="150" height="50" viewBox="0,0,150,50"><path fill="#444" d="M28.35 28.66L28.44 28.75L22.47 28.76L22.55 28.84Q19.57 28.83 16.64 28.76L16.62 28.73L16.62 28.73Q16.72 35.42 14.67 40.94L14.72 41.00L14.76 41.04Q12.78 41.38 11.03 42.06L11.19 42.23L11.04 42.08Q13.81 36.35 13.81 29.69L13.88 29.76L13.88 29.76Q13.90 21.29 9.78 14.25L9.71 14.17L9.80 14.26Q11.29 15.03 13.76 15.83L13.78 15.84L13.72 15.78Q15.99 20.98 16.52 25.86L16.34 25.68L16.37 25.71Q19.58 26.14 22.44 26.10L22.43 26.09L22.45 26.11Q25.10 26.10 28.42 25.84L28.41 25.83L28.47 25.89Q28.88 21.42 30.63 16.32L30.58 16.28L30.60 16.30Q32.69 16.03 34.94 15.19L34.78 15.03L34.76 15.01Q31.21 21.82 31.21 29.77L31.23 29.79L31.31 29.87Q31.32 36.09 33.68 41.42L33.67 41.40L33.60 41.34Q31.95 40.68 29.90 40.38L29.96 40.44L29.96 40.44Q28.25 35.38 28.37 28.68ZM29.59 40.68L29.64 40.73L29.65 40.74Q30.61 40.83 31.72 41.09L31.79 41.16L31.74 41.11Q32.21 41.97 32.86 43.45L32.74 43.33L32.74 43.33Q36.18 44.37 37.96 45.28L37.96 45.28L37.87 45.19Q33.41 39.02 33.11 30.76L33.13 30.78L33.16 30.81Q32.95 22.87 36.60 16.06L36.45 15.90L35.40 16.37L35.53 16.51Q34.88 16.58 34.27 16.73L34.43 16.89L34.36 16.82Q34.70 15.94 35.54 14.38L35.71 14.55L35.58 14.43Q32.87 15.41 30.24 15.90L30.27 15.93L30.22 15.88Q28.56 20.73 28.11 25.41L28.11 25.42L28.12 25.43Q25.62 25.63 23.18 25.63L23.18 25.63L23.22 25.67Q20.93 25.77 18.41 25.62L18.37 25.57L18.34 25.55Q18.07 22.23 16.97 18.16L16.98 18.17L17.11 18.30Q16.27 18.03 14.82 17.65L14.87 17.69L14.82 17.65Q14.45 16.44 13.99 15.41L14.03 15.44L14.09 15.51Q11.34 14.74 9.05 13.48L9.08 13.51L9.07 13.49Q13.61 20.89 13.61 29.68L13.69 29.76L13.61 29.69Q13.68 36.72 10.56 42.85L10.41 42.70L10.59 42.88Q11.27 42.58 12.60 42.00L12.59 41.99L12.44 41.84Q12.26 42.84 11.46 44.36L11.49 44.40L11.46 44.36Q14.26 43.36 16.51 42.94L16.40 42.83L16.50 42.93Q18.28 37.28 18.47 31.12L18.58 31.23L18.54 31.19Q20.11 31.09 23.31 31.05L23.24 30.98L23.33 31.07Q26.21 31.05 28.11 31.13L28.16 31.17L28.07 31.09Q28.34 36.84 29.67 40.76Z"/><path fill="#333" d="M49.35 39.85L49.43 39.92L49.34 39.84Q47.34 39.74 45.32 39.93L45.32 39.93L45.46 40.07Q46.03 34.73 46.03 29.90L45.96 29.84L45.97 29.84Q46.00 24.96 45.36 19.75L45.52 19.91L45.42 19.81Q40.73 19.31 37.54 17.64L37.54 17.64L36.82 15.89L36.99 16.07Q36.67 15.44 36.06 14.22L36.03 14.19L36.05 14.21Q41.25 17.01 47.26 17.20L47.21 17.15L47.20 17.13Q52.95 17.18 58.39 15.12L58.54 15.26L58.39 15.12Q57.71 16.57 57.06 18.39L57.12 18.46L57.19 18.52Q53.54 19.78 49.27 19.97L49.35 20.05L49.37 20.07Q49.01 24.92 49.01 29.87L48.99 29.85L49.09 29.95Q49.00 34.81 49.30 39.80ZM59.25 14.61L59.20 14.55L59.27 14.62Q53.25 16.72 47.05 16.53L47.19 16.67L47.05 16.53Q40.42 16.38 35.32 13.41L35.43 13.52L35.39 13.48Q36.18 14.80 37.48 18.07L37.44 18.03L37.46 18.05Q38.11 18.37 39.37 18.94L39.34 18.91L39.27 18.84Q39.64 19.67 39.99 21.19L39.91 21.12L39.93 21.14Q42.17 21.93 45.22 22.16L45.31 22.26L45.29 22.23Q45.65 25.90 45.65 29.67L45.66 29.68L45.72 29.74Q45.76 35.15 44.96 40.52L44.86 40.41L44.87 40.43Q46.54 40.31 47.07 40.31L47.15 40.38L47.11 40.35Q47.16 40.70 47.10 41.36L47.04 41.31L47.05 41.32Q46.92 41.91 46.92 42.25L46.87 42.20L46.86 42.19Q48.15 42.22 49.67 42.30L49.72 42.35L49.60 42.23Q50.66 42.41 52.49 42.56L52.45 42.53L52.49 42.57Q51.27 37.66 51.16 32.48L51.01 32.33L50.97 32.29Q50.90 27.05 51.44 22.13L51.52 22.22L51.46 22.16Q55.42 21.63 58.58 20.41L58.65 20.48L58.61 20.43Q59.18 17.93 60.21 15.87L60.20 15.87L60.34 16.00Q58.99 16.67 58.19 16.97L58.18 16.97L58.21 16.99Q58.56 15.63 59.13 14.49Z"/><path fill="#222" d="M95.77 19.59L95.74 19.56L94.19 19.69L94.33 19.82Q91.97 19.82 91.74 21.84L91.71 21.81L91.87 21.97Q91.80 22.70 91.83 23.69L91.80 23.66L91.65 23.50Q91.81 25.56 93.06 26.90L93.07 26.90L93.05 26.88Q94.34 28.25 96.25 28.10L96.17 28.03L96.18 28.03Q98.33 27.98 99.09 27.06L99.01 26.98L99.01 26.98Q100.13 26.12 100.40 23.87L100.44 23.91L100.26 23.74Q100.61 21.57 99.35 20.74L99.25 20.64L99.27 20.65Q98.57 20.03 95.91 19.73ZM101.89 28.91L101.78 28.80L100.58 31.17L100.64 31.24Q97.90 35.99 94.13 40.07L94.14 40.08L94.14 40.08Q92.48 40.21 89.78 41.01L89.71 40.94L89.73 40.96Q95.08 34.70 98.24 29.90L98.24 29.90L98.30 29.96Q97.19 30.52 95.55 30.60L95.60 30.65L95.64 30.70Q92.55 30.77 91.03 28.79L91.01 28.77L91.15 28.90Q89.74 27.12 88.64 22.55L88.69 22.60L88.66 22.57Q88.69 22.14 88.53 21.20L88.51 21.18L88.50 21.17Q88.46 20.35 88.46 19.89L88.37 19.81L88.36 19.80Q88.44 18.08 89.50 17.47L89.53 17.50L89.42 17.39Q90.70 16.69 92.57 16.69L92.62 16.75L92.48 16.61Q95.83 16.76 95.83 16.76L95.73 16.65L95.68 16.61Q98.02 16.82 99.28 17.01L99.25 16.97L99.27 17.00Q101.27 17.13 102.18 17.63L102.33 17.77L102.33 17.78Q103.71 18.55 103.90 20.30L103.78 20.18L103.83 20.23Q103.73 20.35 103.54 23.02L103.69 23.18L103.55 23.03Q103.18 25.17 102.95 26.01L103.10 26.16L103.01 26.06Q102.65 27.50 101.89 28.90ZM103.71 31.22L103.86 31.37L103.67 31.18Q104.74 29.05 105.27 24.75L105.38 24.86L105.27 24.75Q105.46 22.47 105.42 21.59L105.44 21.61L105.57 21.74Q105.44 19.78 104.26 18.87L104.34 18.95L103.94 18.74L103.94 18.74Q103.73 18.04 102.82 17.39L102.77 17.34L102.81 17.38Q100.47 16.33 95.67 16.18L95.77 16.28L95.67 16.18Q94.73 16.19 92.29 16.19L92.32 16.22L92.43 16.33Q90.54 16.19 89.05 16.87L89.04 16.86L89.19 17.01Q88.06 17.82 88.14 19.65L88.05 19.56L88.10 19.61Q88.16 20.39 88.35 22.41L88.33 22.39L88.34 22.41Q89.11 25.18 89.37 26.02L89.31 25.96L89.31 25.96Q89.81 27.76 90.76 29.05L90.74 29.03L90.85 29.14Q91.01 29.37 91.39 29.75L91.41 29.77L91.53 29.89Q91.83 30.38 92.47 31.29L92.35 31.17L92.34 31.16Q93.82 32.53 95.76 32.72L95.88 32.84L95.83 32.78Q93.94 35.46 92.38 37.37L92.32 37.30L88.71 41.69L88.74 41.72Q90.95 40.93 92.59 40.59L92.68 40.68L92.58 40.57Q91.91 41.54 90.35 43.25L90.25 43.16L90.34 43.25Q93.38 42.28 96.50 42.25L96.56 42.31L96.58 42.33Q98.73 39.56 103.07 32.33L103.06 32.32L103.17 32.51L103.24 32.58Q103.33 31.68 103.68 31.19ZM97.78 22.05L97.80 22.08L97.66 21.94Q98.42 21.98 98.88 22.09L98.80 22.01L98.91 22.13Q99.52 22.20 99.90 22.32L99.76 22.17L99.93 22.35Q100.00 22.68 100.08 23.10L100.12 23.14L99.96 22.98Q100.09 23.46 99.98 23.84L100.07 23.93L100.00 23.86Q100.03 25.64 98.85 26.75L98.71 26.61L98.83 26.72Q97.75 27.62 96.11 27.59L96.14 27.61L96.18 27.66Q95.73 27.62 94.21 27.32L94.27 27.38L94.35 27.46Q93.98 26.44 93.98 25.72L94.02 25.76L94.03 25.77Q93.95 25.50 93.95 25.27L94.03 25.35L93.95 25.27Q93.96 23.07 96.24 22.27L96.17 22.20L96.32 22.34Q96.85 21.97 97.69 21.97Z"/><path fill="#111" d="M117.71 40.32L117.72 40.33L117.77 40.38Q113.76 40.67 112.77 38.35L112.80 38.38L112.69 38.27Q113.53 37.39 115.09 35.60L114.94 35.45L115.11 35.62Q115.52 37.56 118.53 37.67L118.46 37.60L118.61 37.75Q121.90 37.73 123.54 36.40L123.53 36.38L123.62 36.48Q124.88 34.73 124.80 32.03L124.95 32.17L124.83 32.05Q124.70 27.01 119.90 27.24L119.94 27.28L120.03 27.37Q117.12 27.42 115.36 28.68L115.30 28.62L114.96 28.43L114.88 28.42L114.81 28.35Q115.17 25.21 115.05 22.47L115.06 22.48L114.99 22.41Q114.91 19.81 114.56 16.50L114.52 16.45L114.63 16.57Q118.28 17.51 122.09 17.40L122.04 17.35L122.03 17.33Q125.96 17.38 129.53 16.13L129.53 16.12L128.86 17.54L128.86 17.54Q128.66 18.41 128.47 19.25L128.38 19.16L128.39 19.17Q125.23 20.15 121.34 20.15L121.36 20.17L121.48 20.29Q119.85 20.11 118.37 19.96L118.48 20.07L118.47 20.06Q118.31 20.66 117.96 25.11L117.99 25.14L118.07 25.22Q118.94 24.79 120.99 24.64L120.97 24.61L120.98 24.63Q124.65 24.79 126.09 26.46L126.16 26.54L126.18 26.55Q127.43 27.96 127.70 31.80L127.82 31.92L127.80 31.90Q127.96 35.99 126.74 38.00L126.87 38.13L126.86 38.12Q124.83 40.01 121.51 40.24L121.51 40.23L121.55 40.27Q120.48 40.27 117.81 40.42ZM123.86 42.70L123.91 42.74L123.83 42.67Q127.32 42.81 129.22 41.70L129.13 41.61L129.12 41.60Q130.05 40.02 130.05 37.92L130.12 37.99L130.19 38.07Q130.09 34.87 129.13 30.76L129.20 30.83L129.12 30.75Q128.85 29.11 127.63 27.70L127.60 27.66L127.56 27.67L127.40 27.43L127.13 27.31L127.12 27.30Q126.72 26.48 126.07 25.80L126.18 25.90L126.18 25.94L126.18 25.95Q124.65 24.26 120.96 24.26L120.85 24.15L120.54 24.11L120.60 24.17Q120.68 23.60 120.87 22.50L120.98 22.61L120.82 22.45Q125.92 22.67 129.95 21.03L129.85 20.93L129.85 20.93Q130.36 19.62 131.31 16.80L131.24 16.73L129.18 17.72L129.24 17.77Q129.64 16.65 130.14 15.51L130.05 15.42L130.13 15.50Q126.20 16.86 122.09 16.94L122.07 16.92L122.16 17.01Q117.99 17.07 114.04 15.97L113.95 15.89L114.11 16.04Q114.76 20.42 114.76 24.84L114.64 24.72L114.64 24.72Q114.72 26.70 114.60 28.60L114.56 28.56L114.60 28.60Q114.94 28.87 115.51 29.17L115.52 29.18L115.37 29.03Q115.73 28.82 116.38 28.48L116.54 28.64L116.54 28.63Q116.38 29.28 116.15 30.80L116.26 30.91L116.15 30.80Q116.56 30.98 116.98 31.21L117.09 31.32L117.04 31.27Q119.85 29.55 121.72 29.55L121.73 29.56L121.68 29.51Q122.95 29.45 124.13 30.10L124.08 30.05L124.13 30.10Q124.54 31.19 124.57 32.14L124.54 32.11L124.54 32.10Q124.56 34.64 123.53 35.75L123.52 35.73L123.52 35.73Q122.13 36.93 119.89 37.16L120.06 37.33L119.97 37.25Q118.93 37.24 118.25 37.16L118.34 37.25L118.38 37.29Q117.50 37.13 116.73 36.79L116.78 36.83L116.71 36.57L116.58 36.67L116.55 36.64Q115.83 36.23 115.30 34.89L115.18 34.77L115.36 34.95Q113.88 36.22 112.21 38.35L112.33 38.48L112.20 38.34Q112.59 39.08 113.42 40.03L113.36 39.97L113.46 40.06Q114.41 41.77 117.23 42.27L117.33 42.37L117.37 42.42Q118.43 42.52 123.80 42.63Z"/><path fill="#444" d="M73.56 32.19L64.20 22.07L64.23 22.11Q65.15 25.88 65.15 29.61L65.03 29.48L65.19 29.65Q65.15 35.58 63.09 41.14L63.13 41.18L63.04 41.08Q61.97 41.35 59.72 42.11L59.76 42.14L59.69 42.08Q62.62 36.40 62.62 29.70L62.53 29.62L62.62 29.70Q62.59 21.03 58.10 13.61L57.98 13.49L57.99 13.50Q58.53 13.78 59.22 14.20L59.25 14.22L59.26 14.24Q71.23 25.33 79.07 34.58L79.19 34.70L79.14 34.65Q78.88 32.26 78.88 29.82L78.91 29.85L78.85 29.79Q78.84 22.55 81.35 16.34L81.43 16.42L81.25 16.24Q83.66 15.80 85.26 15.11L85.28 15.14L85.22 15.07Q81.84 21.18 81.54 28.33L81.63 28.42L81.55 28.35Q81.42 35.86 84.39 42.03L84.25 41.89L84.33 41.97Q83.73 41.87 83.31 41.68L83.33 41.70L83.35 41.72Q78.82 37.79 73.60 32.23L73.51 32.15ZM86.97 45.19L86.85 45.06L86.97 45.18Q87.41 45.32 87.83 45.51L87.86 45.54L88.64 45.83L88.69 45.88Q83.47 38.87 83.47 29.51L83.47 29.50L83.58 29.61Q83.46 22.26 86.77 16.02L86.84 16.08L86.89 16.13Q86.15 16.27 84.74 16.88L84.68 16.82L84.73 16.86Q85.19 16.11 86.03 14.55L85.96 14.48L86.02 14.54Q83.58 15.45 81.14 16.02L81.16 16.03L81.11 15.98Q78.45 22.42 78.45 29.85L78.45 29.85L78.37 29.77Q78.46 31.72 78.65 33.70L78.61 33.66L78.72 33.77Q73.91 27.94 69.15 23.33L69.13 23.30L59.21 13.77L59.04 13.60Q58.47 13.30 57.25 12.72L57.33 12.81L57.32 12.79Q62.24 20.57 62.24 29.67L62.27 29.70L62.13 29.56Q62.19 36.74 59.11 42.75L59.08 42.72L59.20 42.85Q59.51 42.74 61.15 42.13L61.02 42.00L61.04 42.02Q60.87 42.95 60.03 44.43L59.96 44.36L59.96 44.36Q61.33 43.87 64.79 43.07L64.80 43.08L64.79 43.07Q67.14 36.96 67.14 29.77L67.06 29.69L66.96 29.59Q67.13 27.67 66.91 25.54L66.79 25.42L66.85 25.48Q78.32 38.29 86.93 45.14Z"/></svg>