<svg xmlns="http://www.w3.org/2000/svg" width="150" height="50" viewBox="0,0,150,50"><path fill="#111" d="M71.91 41.36L71.97 41.42L72.01 41.45Q68.95 41.44 67.69 40.91L67.82 41.03L67.87 41.08Q65.88 40.23 65.95 37.76L65.90 37.70L65.93 37.74Q65.98 34.25 65.98 34.82L66.08 34.91L66.15 34.99Q66.05 29.56 63.20 24.72L63.19 24.71L63.20 24.73Q65.24 25.74 67.22 26.12L67.11 26.01L67.24 26.14Q68.83 30.62 68.72 35.12L68.73 35.13L68.73 35.13Q68.57 36.60 69.41 37.82L69.45 37.87L69.52 37.93Q70.45 39.29 71.97 39.10L71.84 38.97L72.33 38.96L72.23 38.85Q73.51 38.73 74.33 37.96L74.41 38.05L74.45 38.09Q75.24 37.30 75.24 36.35L75.16 36.27L75.18 36.29Q75.32 36.20 75.28 36.01L75.12 35.85L75.21 35.93Q75.03 30.58 76.17 26.24L76.30 26.37L76.28 26.35Q77.35 26.31 78.34 26.08L78.31 26.06L80.35 25.58L80.31 25.55Q77.70 30.50 78.00 36.06L78.06 36.12L78.10 36.16Q78.26 39.21 76.55 40.36L76.45 40.26L76.49 40.30Q75.25 41.23 71.94 41.38ZM74.24 43.76L74.20 43.72L74.28 43.80Q77.73 43.94 79.55 43.17L79.64 43.26L79.57 43.19Q80.53 42.48 80.53 41.07L80.45 40.98L80.37 40.91Q80.53 40.15 80.26 38.59L80.16 38.49L80.15 38.48Q79.68 35.34 80.06 32.34L80.05 32.32L80.03 32.31Q80.53 29.26 81.94 26.52L81.80 26.39L81.85 26.44Q81.33 26.87 80.00 27.29L80.01 27.30L79.92 27.21Q80.10 26.55 80.40 25.98L80.45 26.02L81.03 24.89L80.97 24.83Q79.12 25.57 75.96 26.06L75.87 25.98L76.00 26.10Q74.80 30.92 74.95 36.02L74.83 35.90L74.79 35.86Q74.96 38.05 72.30 38.55L72.20 38.45L71.90 38.60L71.83 38.69L70.85 38.51L70.78 38.43Q70.70 37.56 70.74 37.06L70.74 37.07L70.82 37.15Q71.03 32.64 70.35 28.22L70.16 28.04L69.16 27.94L69.22 28.00Q68.70 27.98 68.17 27.87L68.14 27.84L68.24 27.93Q67.78 26.45 67.51 25.69L67.49 25.67L67.60 25.78Q64.71 25.25 62.46 23.95L62.53 24.02L62.40 23.89Q64.57 27.43 65.30 30.82L65.39 30.91L65.31 30.84Q65.85 33.09 65.70 36.59L65.61 36.50L65.72 36.61Q65.80 36.80 65.72 37.90L65.71 37.90L65.66 37.84Q65.44 40.14 66.81 41.09L66.84 41.12L66.92 41.20Q67.25 43.40 74.26 43.78Z"/><path fill="#111" d="M130.52 34.64L130.57 34.69L130.64 34.77Q130.63 38.33 127.47 39.62L127.44 39.59L127.33 39.48Q125.53 40.39 121.11 40.54L121.18 40.60L121.02 40.45Q116.40 40.74 114.15 39.56L114.06 39.46L114.13 39.53Q112.16 38.09 112.31 34.74L112.42 34.85L112.46 34.89Q112.48 34.26 112.67 32.28L112.59 32.21L112.64 32.25Q112.66 30.57 112.66 29.58L112.74 29.66L112.67 29.58Q112.80 21.72 108.61 14.30L108.59 14.28L108.60 14.28Q109.63 14.82 112.60 15.88L112.65 15.94L112.72 16.00Q115.59 22.72 115.59 30.11L115.57 30.09L115.58 30.09Q115.56 30.69 115.47 31.87L115.43 31.83L115.46 31.86Q115.31 32.99 115.31 33.60L115.38 33.66L115.39 33.68Q115.31 35.87 116.87 36.86L117.00 37.00L116.99 36.99Q118.57 37.73 121.54 37.73L121.51 37.70L121.52 37.71Q124.06 37.63 125.70 36.45L125.69 36.44L125.76 36.51Q127.72 35.27 127.57 32.75L127.55 32.73L127.45 32.64Q127.44 31.34 127.44 30.01L127.42 29.98L127.38 29.94Q127.30 22.81 129.69 16.30L129.77 16.38L131.93 15.80L131.92 15.78Q133.02 15.63 134.12 15.17L134.00 15.05L134.10 15.15Q130.40 22.30 130.40 29.87L130.22 29.70L130.26 29.74Q130.22 30.54 130.36 32.18L130.40 32.22L130.50 32.31Q130.58 33.90 130.58 34.70ZM132.73 35.59L132.74 35.61L132.69 35.55Q131.79 30.59 132.52 25.49L132.57 25.54L132.62 25.59Q133.37 20.40 135.77 16.02L135.75 16.00L135.64 15.89Q134.98 16.15 133.53 16.79L133.56 16.82L133.64 16.90Q133.97 16.01 134.77 14.45L134.89 14.57L134.80 14.48Q131.39 15.76 129.49 16.10L129.43 16.04L129.44 16.05Q127.02 22.50 127.02 29.77L127.04 29.79L127.08 29.83Q127.05 31.18 127.13 32.59L127.18 32.64L127.08 32.54Q127.27 34.97 125.48 36.19L125.62 36.33L125.55 36.26Q124.03 37.29 121.52 37.33L121.54 37.35L121.52 37.33Q118.80 37.43 117.36 36.67L117.39 36.70L117.30 36.61Q117.18 36.07 117.10 35.61L117.16 35.67L117.06 35.58Q117.17 35.23 117.28 34.73L117.18 34.63L117.29 34.74Q117.38 32.28 117.38 29.96L117.45 30.02L117.38 29.96Q117.49 24.23 115.96 18.33L115.87 18.24L115.83 18.21Q115.28 18.26 113.88 17.92L113.87 17.92L113.83 17.88Q113.30 16.43 112.84 15.52L112.83 15.51L112.90 15.58Q110.31 14.93 107.91 13.56L107.79 13.44L107.79 13.43Q112.33 20.95 112.33 29.66L112.42 29.75L112.52 29.85Q112.40 31.37 112.25 33.08L112.30 33.14L112.24 33.08Q112.03 35.49 112.11 36.67L112.13 36.70L112.16 36.72Q112.18 38.54 113.44 39.68L113.57 39.81L113.59 39.83Q114.56 42.29 119.21 42.67L119.10 42.56L119.25 42.72Q121.17 42.69 123.30 42.77L123.31 42.78L123.38 42.84Q128.67 42.95 131.45 42.00L131.62 42.17L131.49 42.04Q133.08 41.16 133.08 39.11L133.14 39.17L133.17 39.19Q133.27 38.15 132.81 35.68Z"/><path fill="#111" d="M19.17 40.44L19.10 40.37L19.01 40.28Q14.98 40.55 13.99 38.23L14.14 38.38L14.06 38.30Q14.83 37.36 16.39 35.57L16.44 35.62L16.38 35.56Q16.96 37.66 19.97 37.78L19.92 37.72L19.97 37.77Q23.28 37.77 24.92 36.44L24.84 36.36L24.82 36.35Q26.28 34.80 26.20 32.10L26.30 32.19L26.15 32.04Q26.16 27.14 21.36 27.37L21.23 27.23L21.30 27.31Q18.38 27.35 16.63 28.61L16.61 28.60L16.34 28.48L16.15 28.36L16.25 28.46Q16.54 25.25 16.42 22.51L16.39 22.47L16.49 22.57Q16.35 19.92 16.01 16.61L15.95 16.55L15.87 16.47Q19.58 17.47 23.38 17.36L23.43 17.41L23.34 17.31Q27.32 17.41 30.90 16.15L30.80 16.06L30.23 17.58L30.17 17.52Q29.92 18.34 29.73 19.18L29.67 19.12L29.69 19.14Q26.63 20.23 22.75 20.23L22.79 20.27L22.80 20.28Q21.31 20.24 19.83 20.09L19.78 20.04L19.88 20.13Q19.65 20.67 19.31 25.12L19.47 25.28L19.32 25.13Q20.23 24.76 22.29 24.60L22.32 24.63L22.33 24.64Q25.93 24.74 27.37 26.41L27.39 26.42L27.39 26.43Q28.86 28.05 29.13 31.90L29.16 31.93L29.01 31.78Q29.29 35.98 28.08 38.00L28.19 38.11L28.05 37.97Q26.12 39.97 22.81 40.20L22.87 40.25L22.88 40.26Q21.72 40.17 19.05 40.32ZM25.11 42.61L25.23 42.74L25.17 42.68Q28.50 42.66 30.41 41.55L30.44 41.59L30.49 41.64Q31.57 40.20 31.57 38.11L31.42 37.96L31.45 37.99Q31.46 34.92 30.51 30.81L30.62 30.91L30.48 30.78Q30.09 29.02 28.87 27.61L28.97 27.71L29.07 27.84L28.68 27.38L28.45 27.30L28.41 27.25Q28.13 26.56 27.48 25.87L27.37 25.76L27.49 25.92L27.51 25.94Q26.02 24.29 22.32 24.29L22.22 24.19L21.87 24.11L21.98 24.22Q21.97 23.56 22.16 22.46L22.26 22.55L22.22 22.51Q27.21 22.63 31.24 20.99L31.35 21.10L31.19 20.94Q31.71 19.63 32.66 16.81L32.66 16.81L30.61 17.81L30.48 17.68Q31.00 16.68 31.50 15.53L31.34 15.38L31.45 15.49Q27.57 16.90 23.46 16.98L23.41 16.92L23.49 17.01Q19.29 17.03 15.33 15.93L15.29 15.89L15.36 15.96Q16.11 20.44 16.11 24.86L16.11 24.86L16.12 24.87Q16.11 26.76 16.00 28.66L15.89 28.56L15.86 28.53Q16.21 28.80 16.78 29.11L16.84 29.17L16.73 29.05Q17.04 28.79 17.68 28.45L17.78 28.55L17.71 28.47Q17.77 29.33 17.54 30.86L17.59 30.90L17.54 30.85Q17.86 30.95 18.28 31.18L18.43 31.33L18.25 31.15Q21.07 29.44 22.94 29.44L22.92 29.42L22.99 29.49Q24.23 29.40 25.41 30.04L25.45 30.08L25.56 30.19Q25.93 31.25 25.97 32.21L25.90 32.13L25.80 32.03Q25.89 34.64 24.87 35.75L25.03 35.91L24.95 35.83Q23.53 37.00 21.29 37.23L21.24 37.18L21.39 37.34Q20.35 37.32 19.66 37.24L19.68 37.26L19.66 37.24Q18.75 37.05 17.99 36.71L18.04 36.77L17.97 36.50L17.93 36.69L17.98 36.74Q17.03 36.09 16.50 34.76L16.59 34.85L16.56 34.82Q15.24 36.25 13.57 38.38L13.68 38.49L13.67 38.48Q13.99 39.14 14.82 40.09L14.78 40.05L14.82 40.09Q15.76 41.79 18.57 42.28L18.62 42.33L18.67 42.38Q19.76 42.51 25.12 42.63Z"/><path fill="#111" d="M39.80 41.19L39.70 41.09L39.72 41.11Q42.96 36.92 49.66 29.00L49.56 28.90L49.55 28.89Q43.65 29.12 39.89 27.75L39.86 27.73L39.95 27.82Q39.17 26.27 38.40 24.86L38.54 25.00L38.55 25.01Q42.55 26.42 47.00 26.45L46.97 26.43L46.96 26.41Q51.49 26.53 55.68 25.47L55.72 25.51L55.63 25.41Q55.31 26.17 55.05 26.70L55.00 26.65L54.98 26.63Q52.40 28.81 49.59 32.43L49.61 32.45L44.66 38.62L44.73 38.69Q46.98 38.50 49.22 38.58L49.32 38.68L49.15 38.50Q51.33 38.55 53.58 38.93L53.65 39.01L53.57 38.93Q53.81 39.62 54.53 41.64L54.61 41.72L54.52 41.63Q50.80 40.79 46.80 40.91L46.88 40.99L46.76 40.87Q42.78 40.96 39.12 42.14L39.13 42.15L39.22 42.24Q39.18 41.97 39.63 41.02ZM38.67 42.87L38.63 42.83L38.63 42.83Q39.41 42.51 41.01 42.09L41.03 42.11L41.06 42.13Q40.66 42.20 40.24 42.62L40.24 42.61L40.28 42.66Q40.10 43.27 39.49 44.41L39.47 44.40L39.57 44.50Q44.22 43.09 49.21 43.24L49.15 43.18L49.16 43.20Q54.13 43.37 58.70 45.23L58.81 45.34L58.77 45.31Q57.22 43.34 56.31 41.28L56.39 41.36L56.41 41.38Q55.55 40.98 54.49 40.76L54.44 40.71L54.49 40.76Q54.30 40.03 53.92 38.59L53.88 38.55L54.03 38.70Q52.51 38.39 48.93 38.28L48.83 38.19L48.81 38.16Q51.22 34.87 56.25 28.51L56.22 28.48L56.25 28.51Q56.59 27.86 57.28 26.53L57.24 26.49L54.92 27.22L55.01 27.31Q54.97 27.12 55.12 27.00L55.14 27.02L55.24 26.74L55.39 26.89Q55.76 25.73 56.33 24.78L56.27 24.72L56.27 24.72Q51.68 26.14 46.96 26.07L46.99 26.11L47.08 26.19Q42.16 26.00 37.67 24.17L37.71 24.21L37.61 24.11Q38.80 25.98 39.60 28.04L39.59 28.03L39.64 28.08Q40.52 28.43 41.59 28.69L41.51 28.62L41.61 28.71Q41.87 29.47 42.18 30.92L42.09 30.84L42.16 30.91Q43.74 31.15 47.05 31.30L46.96 31.21L47.09 31.34Q44.69 34.65 39.51 41.09L39.49 41.06L39.38 40.95Q39.25 41.66 38.68 42.88Z"/><path fill="#444" d="M89.11 41.16L89.05 41.10L88.97 41.01Q92.23 36.85 98.93 28.93L98.90 28.90L98.90 28.91Q93.08 29.21 89.31 27.84L89.18 27.72L89.34 27.87Q88.48 26.25 87.72 24.84L87.77 24.89L87.86 24.99Q91.95 26.49 96.41 26.53L96.42 26.54L96.31 26.43Q100.81 26.52 105.00 25.45L104.94 25.39L105.06 25.51Q104.64 26.16 104.38 26.69L104.42 26.73L104.25 26.56Q101.81 28.88 98.99 32.50L98.97 32.48L94.04 38.67L94.00 38.62Q96.29 38.48 98.54 38.56L98.54 38.56L98.50 38.52Q100.82 38.71 103.07 39.09L102.95 38.98L102.90 38.92Q103.21 39.69 103.93 41.71L103.96 41.74L103.85 41.63Q100.09 40.76 96.09 40.87L96.17 40.95L96.23 41.00Q92.26 41.11 88.60 42.29L88.60 42.29L88.56 42.25Q88.68 42.14 89.14 41.19ZM87.85 42.72L87.89 42.76L88.04 42.90Q88.77 42.53 90.36 42.11L90.42 42.16L90.30 42.05Q90.10 42.30 89.68 42.72L89.67 42.71L89.75 42.79Q89.35 43.19 88.74 44.33L88.82 44.41L88.85 44.44Q93.47 43.01 98.46 43.16L98.58 43.28L98.44 43.14Q103.39 43.29 107.95 45.16L108.09 45.29L108.11 45.31Q106.66 43.45 105.75 41.39L105.75 41.39L105.68 41.32Q104.86 40.96 103.80 40.73L103.88 40.82L103.80 40.73Q103.73 40.14 103.35 38.69L103.38 38.72L103.26 38.60Q101.81 38.37 98.24 38.26L98.10 38.12L98.10 38.12Q100.54 34.85 105.57 28.50L105.67 28.59L105.66 28.59Q105.87 27.80 106.55 26.47L106.44 26.35L104.32 27.28L104.24 27.21Q104.30 27.12 104.46 27.00L104.54 27.09L104.76 26.92L104.72 26.88Q105.06 25.70 105.63 24.75L105.68 24.80L105.76 24.88Q100.96 26.10 96.24 26.02L96.32 26.10L96.27 26.05Q91.58 26.07 87.08 24.25L86.96 24.12L87.00 24.17Q88.18 26.03 88.98 28.09L88.93 28.03L88.99 28.09Q89.83 28.40 90.89 28.66L90.98 28.75L90.85 28.63Q91.11 29.38 91.42 30.83L91.46 30.87L91.40 30.81Q93.04 31.12 96.35 31.27L96.32 31.24L96.30 31.22Q93.84 34.47 88.66 40.90L88.74 40.98L88.71 40.95Q88.54 41.61 87.97 42.83Z"/></svg>