<svg xmlns="http://www.w3.org/2000/svg" width="150" height="50" viewBox="0,0,150,50"><path fill="#333" d="M106.38 23.04L106.36 23.02L106.39 23.05Q104.63 25.82 101.96 31.46L101.94 31.44L99.85 35.59L99.98 35.72Q99.13 37.65 97.80 39.89L97.72 39.81L97.78 39.88Q98.23 39.87 96.56 39.91L96.43 39.78L96.43 39.78Q96.55 39.90 95.29 39.90L95.23 39.84L95.34 39.94Q94.53 38.38 91.60 31.22L91.63 31.25L91.61 31.23Q89.34 25.76 87.24 22.75L87.27 22.78L87.31 22.82Q88.05 25.88 88.05 29.04L88.04 29.03L88.11 29.10Q88.09 35.59 85.12 41.15L85.04 41.06L85.09 41.12Q83.84 41.55 81.48 42.27L81.39 42.17L81.36 42.14Q85.19 36.61 85.19 29.38L85.08 29.27L85.06 29.25Q85.21 20.45 79.80 13.48L79.77 13.45L79.63 13.31Q81.42 14.19 83.78 14.88L83.67 14.76L83.68 14.77Q90.75 21.53 96.84 34.86L96.77 34.80L96.86 34.88Q100.40 27.91 102.60 24.41L102.63 24.44L102.60 24.40Q106.12 18.56 110.08 15.09L110.03 15.05L110.16 15.18Q111.30 14.83 113.66 14.07L113.66 14.07L113.63 14.04Q108.68 20.70 108.68 29.30L108.81 29.44L108.62 29.24Q108.66 35.94 112.08 41.46L112.11 41.49L112.06 41.44Q110.83 41.24 108.09 40.63L108.08 40.62L108.01 40.55Q105.80 35.90 105.80 29.93L105.77 29.90L105.75 29.88Q105.76 26.46 106.45 23.11ZM107.87 40.98L107.83 40.94L107.95 41.06Q108.51 41.04 109.95 41.31L109.97 41.33L110.03 41.39Q110.56 42.22 111.51 43.71L111.49 43.68L111.50 43.69Q113.60 44.08 117.06 45.30L117.06 45.29L116.96 45.20Q110.81 38.97 110.81 29.15L110.77 29.11L110.77 29.11Q110.81 21.42 115.19 15.29L115.10 15.20L112.90 15.90L112.89 15.89Q113.90 14.35 114.55 13.47L114.62 13.55L114.56 13.49Q112.62 14.05 109.99 14.58L110.04 14.64L110.17 14.76Q103.32 20.78 97.27 33.38L97.21 33.33L97.18 33.30Q92.03 22.36 87.08 17.10L87.21 17.23L87.06 17.08Q86.73 17.06 86.16 16.94L86.21 17.00L84.90 15.61L85.05 15.76Q84.49 15.13 83.80 14.52L83.63 14.34L83.78 14.50Q80.60 13.37 78.81 12.64L78.77 12.61L78.91 12.74Q84.80 19.85 84.80 29.25L84.93 29.39L84.94 29.39Q84.77 36.84 80.62 42.70L80.76 42.84L80.80 42.88Q81.39 42.55 82.68 42.14L82.75 42.20L82.68 42.13Q82.52 42.35 81.11 44.45L81.09 44.43L81.24 44.58Q82.91 43.96 86.41 43.20L86.47 43.26L86.38 43.17Q90.28 36.29 90.09 28.52L89.97 28.41L89.95 28.39Q91.59 32.51 95.06 40.39L94.88 40.21L94.93 40.26Q95.11 40.14 95.34 40.14L95.33 40.13L95.88 40.14L95.95 40.21Q96.51 41.00 97.31 42.29L97.32 42.30L97.27 42.26Q98.92 42.27 98.92 42.27L98.92 42.27L98.79 42.14Q99.78 42.10 100.43 42.18L100.46 42.21L100.59 42.35Q102.10 38.25 105.45 30.26L105.50 30.31L105.43 30.24Q105.20 35.57 107.79 40.90Z"/><path fill="#333" d="M81.33 34.79L81.20 34.65L81.19 34.65Q81.32 38.35 78.16 39.64L78.15 39.64L78.17 39.66Q76.19 40.39 71.78 40.54L71.84 40.60L71.86 40.61Q66.94 40.61 64.69 39.43L64.66 39.40L64.80 39.54Q62.88 38.15 63.03 34.80L63.05 34.81L63.07 34.84Q63.15 34.27 63.34 32.29L63.23 32.18L63.31 32.26Q63.30 30.54 63.30 29.55L63.44 29.68L63.38 29.63Q63.47 21.72 59.28 14.30L59.22 14.23L59.13 14.15Q60.36 14.88 63.33 15.95L63.39 16.00L63.29 15.91Q66.30 22.77 66.30 30.15L66.27 30.11L66.30 30.14Q66.15 30.61 66.05 31.79L66.05 31.78L66.17 31.90Q66.01 33.02 66.01 33.63L66.12 33.74L66.05 33.67Q65.98 35.88 67.54 36.87L67.66 36.99L67.55 36.88Q69.15 37.65 72.12 37.65L72.22 37.74L72.25 37.77Q74.91 37.81 76.55 36.63L76.51 36.59L76.55 36.63Q78.37 35.25 78.22 32.74L78.17 32.69L78.08 32.60Q78.03 31.26 78.03 29.93L78.11 30.01L77.98 29.87Q78.03 22.88 80.43 16.37L80.50 16.45L82.55 15.75L82.60 15.80Q83.60 15.55 84.71 15.09L84.74 15.13L84.64 15.03Q80.96 22.19 80.96 29.77L81.00 29.82L80.97 29.78Q80.91 30.56 81.05 32.20L81.16 32.31L81.05 32.20Q81.31 33.97 81.31 34.77ZM83.48 35.67L83.33 35.53L83.31 35.51Q82.44 30.56 83.16 25.46L83.27 25.57L83.21 25.51Q83.97 20.34 86.37 15.96L86.45 16.03L86.48 16.06Q85.69 16.19 84.24 16.83L84.31 16.90L84.32 16.92Q84.66 16.04 85.46 14.47L85.49 14.51L85.44 14.46Q82.11 15.81 80.21 16.15L80.02 15.96L80.07 16.01Q77.72 22.53 77.72 29.80L77.69 29.78L77.78 29.87Q77.85 31.30 77.92 32.71L77.83 32.62L77.77 32.56Q77.94 34.98 76.15 36.19L76.13 36.17L76.18 36.22Q74.68 37.27 72.17 37.31L72.19 37.33L72.14 37.28Q69.51 37.47 68.06 36.71L68.03 36.67L68.01 36.65Q67.95 36.18 67.87 35.72L67.79 35.64L67.74 35.58Q67.69 35.08 67.81 34.59L67.97 34.75L67.98 34.76Q68.08 32.30 68.08 29.98L68.19 30.10L68.04 29.95Q68.09 24.18 66.57 18.27L66.53 18.24L66.67 18.38Q65.79 18.10 64.38 17.76L64.44 17.82L64.53 17.91Q64.13 16.59 63.67 15.68L63.50 15.51L63.58 15.58Q60.93 14.88 58.53 13.51L58.50 13.48L58.44 13.42Q63.12 21.07 63.12 29.79L63.16 29.83L63.10 29.77Q63.17 31.47 63.01 33.18L63.03 33.20L62.93 33.10Q62.81 35.60 62.88 36.78L62.86 36.76L62.75 36.65Q63.01 38.69 64.26 39.84L64.29 39.86L64.28 39.85Q65.12 42.18 69.77 42.56L69.83 42.62L69.76 42.55Q71.91 42.77 74.05 42.84L74.01 42.81L74.06 42.86Q79.51 43.13 82.28 42.17L82.18 42.07L82.11 42.00Q83.85 41.27 83.85 39.21L83.84 39.20L83.77 39.13Q83.83 38.05 83.38 35.58Z"/><path fill="#111" d="M129.69 41.46L129.71 41.48L129.76 41.54Q127.69 41.18 125.52 41.03L125.41 40.92L125.39 40.89Q124.12 39.63 121.46 35.78L121.32 35.64L121.32 35.64Q119.25 38.87 116.85 41.30L116.72 41.17L114.70 41.63L114.72 41.64Q113.62 41.80 112.63 42.07L112.64 42.08L112.58 42.01Q116.81 37.94 119.81 33.83L119.94 33.96L119.80 33.82Q116.55 29.66 111.15 24.86L111.19 24.91L111.20 24.91Q113.43 25.66 116.13 26.08L116.17 26.12L116.21 26.16Q119.54 29.14 121.44 31.85L121.53 31.94L121.52 31.93Q123.61 28.84 126.35 26.32L126.32 26.29L126.42 26.39Q129.38 25.97 131.21 25.47L131.24 25.50L131.10 25.36Q126.68 29.13 122.99 33.69L122.87 33.58L123.05 33.76Q126.25 38.25 129.71 41.48ZM132.70 24.75L132.64 24.69L132.72 24.77Q129.71 25.50 126.17 25.84L126.16 25.82L126.29 25.95Q123.36 28.58 121.64 31.06L121.59 31.00L121.53 30.94Q120.64 29.90 119.00 27.92L118.99 27.91L118.83 27.94L118.97 28.08Q118.77 27.99 118.65 27.99L118.60 27.94L118.67 28.00Q117.91 27.17 116.27 25.72L116.33 25.78L116.28 25.73Q112.61 25.11 109.75 23.89L109.74 23.88L109.80 23.94Q115.31 28.72 119.34 33.86L119.28 33.80L119.26 33.77Q116.02 38.53 111.60 42.83L111.49 42.72L111.60 42.83Q111.76 42.65 115.27 41.81L115.40 41.94L115.35 41.90Q113.76 43.16 112.12 44.49L112.15 44.52L112.17 44.54Q115.27 43.53 118.43 43.34L118.51 43.42L118.58 43.49Q120.90 41.17 122.81 38.43L122.83 38.45L122.86 38.47Q124.15 40.11 125.37 41.29L125.52 41.44L125.44 41.37Q125.57 41.38 125.64 41.45L125.58 41.39L125.81 41.43L125.81 41.43Q127.06 42.53 128.40 43.60L128.44 43.64L128.34 43.54Q131.90 44.06 134.79 45.08L134.89 45.18L134.91 45.20Q128.77 40.77 125.07 35.59L125.07 35.59L125.07 35.59Q128.73 30.56 133.29 26.49L133.17 26.36L133.25 26.45Q132.23 26.72 131.24 26.94L131.34 27.05L129.38 27.56L129.27 27.46Q130.44 26.53 132.61 24.66Z"/><path fill="#222" d="M55.74 41.52L55.71 41.48L55.84 41.62Q53.61 41.10 51.44 40.95L51.51 41.01L51.55 41.06Q50.05 39.56 47.39 35.71L47.32 35.64L47.42 35.74Q45.21 38.83 42.81 41.27L42.82 41.28L40.66 41.58L40.63 41.56Q39.64 41.82 38.65 42.09L38.71 42.14L38.68 42.12Q42.74 37.88 45.75 33.77L45.90 33.92L45.92 33.94Q42.65 29.76 37.25 24.96L37.20 24.91L37.20 24.91Q39.48 25.71 42.18 26.13L42.14 26.09L42.20 26.15Q45.55 29.16 47.46 31.86L47.51 31.91L47.44 31.84Q49.55 28.78 52.29 26.27L52.37 26.34L52.29 26.27Q55.31 25.89 57.14 25.40L57.12 25.38L57.25 25.51Q52.62 29.06 48.92 33.63L49.05 33.76L49.02 33.73Q52.31 38.31 55.77 41.54ZM58.64 24.70L58.70 24.76L58.58 24.63Q55.84 25.63 52.30 25.97L52.13 25.80L52.25 25.92Q49.29 28.52 47.58 30.99L47.52 30.93L47.51 30.92Q46.77 30.03 45.14 28.05L45.16 28.07L44.80 27.91L44.93 28.04Q44.71 27.93 44.59 27.93L44.65 27.99L44.69 28.03Q43.83 27.09 42.19 25.64L42.19 25.64L42.15 25.60Q38.62 25.12 35.77 23.90L35.79 23.92L35.78 23.91Q41.28 28.69 45.32 33.83L45.38 33.89L45.45 33.97Q41.91 38.42 37.49 42.72L37.65 42.88L37.56 42.79Q37.89 42.77 41.39 41.94L41.35 41.89L41.25 41.80Q39.78 43.18 38.14 44.51L38.25 44.62L38.09 44.46Q41.26 43.52 44.42 43.33L44.57 43.48L44.48 43.39Q46.91 41.17 48.81 38.43L48.76 38.38L48.80 38.42Q50.25 40.22 51.47 41.40L51.39 41.32L51.38 41.30Q51.50 41.31 51.58 41.39L51.57 41.38L51.92 41.54L51.80 41.42Q53.13 42.59 54.46 43.66L54.40 43.60L54.45 43.65Q57.95 44.10 60.84 45.13L60.83 45.11L60.91 45.19Q54.80 40.80 51.11 35.63L51.06 35.58L51.02 35.54Q54.62 30.46 59.19 26.39L59.23 26.43L59.16 26.35Q58.39 26.88 57.40 27.11L57.22 26.93L55.22 27.40L55.22 27.41Q56.49 26.58 58.66 24.72Z"/><path fill="#444" d="M28.30 28.61L28.43 28.75L22.53 28.82L22.56 28.85Q19.56 28.82 16.63 28.75L16.71 28.83L16.67 28.78Q16.63 35.33 14.58 40.85L14.65 40.93L14.77 41.05Q12.88 41.48 11.13 42.16L11.17 42.21L11.08 42.11Q13.94 36.49 13.94 29.83L13.79 29.67L13.88 29.77Q13.90 21.30 9.79 14.25L9.75 14.22L9.77 14.23Q11.33 15.07 13.80 15.87L13.70 15.76L13.67 15.74Q15.98 20.97 16.51 25.85L16.38 25.72L16.47 25.80Q19.59 26.14 22.44 26.11L22.58 26.24L22.51 26.17Q25.08 26.08 28.40 25.82L28.38 25.80L28.45 25.87Q28.91 21.46 30.66 16.36L30.60 16.29L30.56 16.26Q32.56 15.90 34.81 15.06L34.80 15.05L34.88 15.13Q31.15 21.76 31.15 29.71L31.27 29.83L31.18 29.74Q31.14 35.91 33.50 41.24L33.68 41.42L33.56 41.30Q31.91 40.64 29.85 40.33L29.95 40.42L30.00 40.48Q28.31 35.43 28.42 28.73ZM29.69 40.78L29.71 40.80L29.71 40.80Q30.68 40.89 31.78 41.16L31.71 41.09L31.77 41.14Q32.24 41.99 32.88 43.48L32.76 43.35L32.86 43.46Q36.12 44.32 37.91 45.23L38.00 45.32L37.92 45.24Q33.39 39.00 33.09 30.74L33.22 30.87L33.25 30.90Q32.90 22.82 36.55 16.00L36.53 15.98L35.36 16.34L35.43 16.40Q34.92 16.62 34.31 16.77L34.43 16.88L34.29 16.75Q34.86 16.10 35.70 14.54L35.66 14.51L35.57 14.41Q33.01 15.54 30.38 16.04L30.33 15.98L30.29 15.95Q28.64 20.81 28.19 25.49L28.10 25.40L28.17 25.47Q25.62 25.63 23.18 25.63L23.34 25.79L23.25 25.70Q20.85 25.69 18.34 25.54L18.41 25.62L18.34 25.54Q18.15 22.31 17.05 18.24L16.97 18.16L17.05 18.24Q16.33 18.09 14.88 17.71L14.98 17.81L14.91 17.74Q14.45 16.44 13.99 15.41L14.09 15.51L14.04 15.46Q11.31 14.71 9.03 13.45L9.08 13.50L9.11 13.54Q13.52 20.80 13.52 29.60L13.62 29.70L13.56 29.63Q13.69 36.74 10.57 42.86L10.40 42.69L10.54 42.83Q11.11 42.42 12.45 41.84L12.45 41.85L12.49 41.89Q12.23 42.81 11.43 44.33L11.38 44.28L11.47 44.37Q14.14 43.24 16.39 42.82L16.46 42.89L16.46 42.89Q18.31 37.32 18.50 31.15L18.45 31.10L18.47 31.12Q20.17 31.15 23.37 31.11L23.30 31.04L23.40 31.13Q26.23 31.08 28.14 31.15L28.10 31.11L28.04 31.05Q28.41 36.91 29.74 40.83Z"/></svg>