<svg xmlns="http://www.w3.org/2000/svg" width="150" height="50" viewBox="0,0,150,50"><path fill="#222" d="M73.62 32.25L64.32 22.19L64.25 22.12Q65.10 25.83 65.10 29.56L65.20 29.66L65.18 29.64Q65.03 35.46 62.97 41.02L63.13 41.18L63.01 41.06Q61.96 41.34 59.71 42.10L59.70 42.09L59.79 42.18Q62.54 36.32 62.54 29.62L62.61 29.69L62.58 29.66Q62.57 21.01 58.07 13.58L58.08 13.59L58.12 13.63Q58.47 13.72 59.16 14.13L59.11 14.09L59.13 14.11Q71.37 25.47 79.21 34.72L79.19 34.70L79.13 34.64Q78.72 32.10 78.72 29.66L78.85 29.79L78.83 29.77Q78.73 22.44 81.24 16.23L81.31 16.31L81.39 16.39Q83.70 15.84 85.30 15.15L85.27 15.12L85.30 15.16Q82.00 21.33 81.70 28.49L81.63 28.42L81.60 28.40Q81.42 35.86 84.39 42.03L84.31 41.95L84.27 41.92Q83.77 41.91 83.35 41.72L83.25 41.62L83.41 41.77Q78.67 37.64 73.45 32.08L73.55 32.18ZM87.02 45.23L86.83 45.05L87.00 45.22Q87.45 45.36 87.87 45.55L87.76 45.44L88.62 45.81L88.67 45.85Q83.54 38.94 83.54 29.57L83.42 29.45L83.48 29.51Q83.44 22.24 86.75 16.00L86.80 16.04L86.84 16.09Q86.19 16.30 84.78 16.91L84.67 16.81L84.73 16.87Q85.20 16.12 86.04 14.56L86.05 14.57L86.01 14.53Q83.41 15.28 80.98 15.86L81.14 16.01L80.96 15.84Q78.48 22.46 78.48 29.88L78.45 29.85L78.52 29.92Q78.52 31.78 78.71 33.76L78.55 33.60L78.64 33.69Q74.02 28.04 69.26 23.44L69.22 23.40L59.09 13.64L59.22 13.77Q58.51 13.33 57.29 12.76L57.42 12.89L57.35 12.82Q62.21 20.54 62.21 29.64L62.31 29.74L62.24 29.66Q62.31 36.85 59.22 42.87L59.22 42.87L59.22 42.86Q59.44 42.66 61.07 42.05L61.11 42.09L61.17 42.15Q60.73 42.81 59.89 44.30L59.98 44.39L59.88 44.29Q61.18 43.72 64.64 42.92L64.80 43.08L64.70 42.98Q67.00 36.82 67.00 29.63L66.96 29.59L66.98 29.61Q67.00 27.54 66.78 25.41L66.85 25.49L66.81 25.44Q78.29 38.26 86.89 45.11Z"/><path fill="#222" d="M99.52 27.11L99.51 27.10L99.63 27.22Q100.44 27.23 101.85 27.08L101.69 26.92L101.69 26.92Q101.73 27.65 101.73 28.30L101.72 28.28L101.78 29.60L101.82 29.64Q100.98 29.63 100.14 29.71L100.07 29.64L100.12 29.69Q99.17 29.62 98.33 29.58L98.47 29.71L98.45 29.70Q95.46 35.72 92.03 40.33L92.15 40.45L92.18 40.48Q89.71 41.16 88.41 41.77L88.26 41.62L88.27 41.63Q92.42 35.96 95.46 29.67L95.51 29.73L92.83 29.67L92.82 29.66Q92.90 28.41 92.79 27.08L92.79 27.08L92.64 26.93Q94.63 27.17 96.69 27.17L96.72 27.20L98.67 23.55L98.60 23.48Q99.67 21.67 100.89 20.07L100.81 19.99L100.70 19.88Q99.19 20.08 97.59 20.08L97.60 20.09L97.69 20.18Q91.55 20.13 87.78 17.92L87.73 17.87L87.16 16.24L87.22 16.29Q86.81 15.39 86.43 14.52L86.32 14.41L86.48 14.57Q90.71 17.08 96.42 17.31L96.45 17.33L96.46 17.35Q101.50 17.48 106.64 15.50L106.71 15.57L106.71 15.57Q106.48 15.95 105.99 16.83L106.00 16.84L106.05 16.89Q102.39 21.60 99.53 27.12ZM107.73 18.34L107.70 18.31L108.61 16.21L108.57 16.17Q107.73 16.78 106.06 17.51L106.01 17.45L106.20 17.16L106.12 17.08Q106.27 16.96 106.39 16.84L106.50 16.96L106.42 16.88Q106.88 16.27 107.60 14.94L107.51 14.84L107.50 14.84Q102.26 17.21 96.51 16.98L96.40 16.87L96.46 16.93Q90.46 16.67 85.70 13.71L85.59 13.60L85.66 13.67Q86.78 15.62 87.61 18.29L87.57 18.24L87.50 18.17Q88.57 18.79 89.37 19.09L89.51 19.23L89.54 19.26Q89.58 19.49 90.04 21.36L90.03 21.35L90.12 21.44Q93.21 22.63 98.73 22.48L98.71 22.45L98.83 22.58Q98.53 23.15 96.55 26.92L96.37 26.74L96.39 26.76Q94.42 26.84 92.44 26.65L92.33 26.54L92.44 26.65Q92.58 27.55 92.58 28.43L92.41 28.26L92.53 30.09L94.22 30.11L94.12 31.41L94.17 31.47Q90.23 38.83 87.45 42.41L87.51 42.47L87.40 42.37Q89.05 41.65 90.69 41.16L90.78 41.24L90.68 41.15Q90.06 42.13 88.69 43.84L88.64 43.79L88.57 43.72Q91.78 42.67 94.22 42.44L94.29 42.52L94.33 42.55Q97.21 38.73 100.33 31.96L100.21 31.84L103.63 32.02L103.80 32.18Q103.61 31.16 103.61 30.25L103.67 30.31L103.61 28.46L103.74 28.59Q103.33 28.45 102.78 28.48L102.81 28.51L102.91 28.62Q102.19 28.48 101.92 28.48L101.95 28.52L101.94 28.50Q102.05 28.50 102.09 28.35L101.98 28.23L102.00 27.99L101.96 27.95Q104.64 22.98 107.73 18.34Z"/><path fill="#444" d="M17.78 32.90L17.93 33.05L17.88 33.00Q20.86 32.52 24.06 32.63L24.11 32.68L24.21 32.78Q24.09 30.15 24.09 27.75L24.14 27.81L24.13 27.80Q24.13 25.32 24.32 22.77L24.25 22.69L24.26 22.71Q23.10 24.48 17.89 33.01ZM27.65 40.22L27.81 40.38L27.69 40.26Q26.03 39.97 24.24 39.90L24.30 39.96L24.34 40.00Q24.12 37.60 24.00 35.13L23.97 35.09L23.92 35.05Q18.71 34.97 13.99 36.38L13.93 36.33L13.89 36.29Q14.05 35.84 14.24 34.85L14.15 34.75L14.12 34.73Q16.04 31.69 19.62 25.41L19.67 25.47L19.50 25.29Q22.43 20.46 25.86 16.58L25.88 16.60L25.93 16.65Q26.75 16.41 28.43 16.14L28.36 16.07L28.46 16.17Q26.52 22.57 26.52 29.61L26.45 29.55L26.54 29.63Q26.51 31.09 26.59 32.58L26.66 32.64L28.01 32.82L27.91 32.72Q28.58 32.81 29.19 32.93L29.05 32.79L29.19 32.93Q29.25 33.87 29.52 35.81L29.59 35.88L29.55 35.84Q28.32 35.56 26.83 35.37L26.74 35.28L26.85 35.39Q26.96 37.28 27.64 40.21ZM29.50 32.59L29.40 32.50L29.32 32.41Q29.20 32.41 29.01 32.41L29.08 32.48L28.56 32.34L28.71 32.49Q28.45 30.86 28.45 29.45L28.49 29.49L28.44 29.44Q28.62 23.23 30.68 17.21L30.55 17.08L30.59 17.13Q29.77 17.33 28.33 17.71L28.32 17.71L28.43 17.82Q28.61 17.00 29.06 15.60L28.97 15.50L29.13 15.66Q27.84 16.04 25.78 16.27L25.62 16.11L25.71 16.20Q21.70 20.45 16.48 29.82L16.61 29.95L18.71 26.30L18.73 26.32Q18.18 27.21 17.92 27.79L18.08 27.95L13.55 36.90L13.47 36.82Q14.18 36.73 15.32 36.35L15.36 36.39L15.18 36.58L15.12 36.52Q14.97 37.18 14.67 38.43L14.70 38.47L14.68 38.44Q18.82 37.14 23.66 37.34L23.76 37.43L23.64 37.31Q23.67 38.26 23.86 40.24L23.84 40.22L23.97 40.35Q24.94 40.25 26.00 40.37L25.96 40.33L26.09 40.45Q26.30 41.19 26.57 42.56L26.47 42.47L26.44 42.44Q28.30 42.62 31.31 43.54L31.39 43.62L31.37 43.60Q30.41 41.50 29.50 38.23L29.50 38.23L30.95 38.69L30.85 38.59Q31.66 38.94 32.35 39.28L32.38 39.32L32.29 39.23Q31.47 36.70 31.32 35.02L31.30 35.00L31.40 35.10Q30.79 34.91 29.65 34.68L29.66 34.69L29.57 34.60Q29.43 33.40 29.43 32.52ZM21.47 32.41L21.43 32.37L21.44 32.37Q22.20 31.08 23.76 28.53L23.77 28.54L23.82 28.58Q23.77 29.49 23.73 30.44L23.66 30.37L23.60 30.31Q23.77 31.47 23.81 32.42L23.83 32.44L23.73 32.35Q23.23 32.37 22.65 32.37L22.66 32.38L22.58 32.30Q22.11 32.44 21.50 32.44Z"/><path fill="#444" d="M129.36 23.35L129.21 23.21L129.36 23.35Q127.48 19.12 121.28 19.31L121.47 19.50L121.33 19.36Q116.91 19.47 114.93 20.91L114.95 20.94L115.08 21.06Q112.62 22.76 112.62 26.87L112.57 26.82L112.50 28.62L112.57 28.69Q112.62 37.56 121.64 37.56L121.57 37.49L121.57 37.49Q123.68 37.55 125.16 36.75L125.07 36.66L125.12 36.70Q126.89 35.62 126.74 33.75L126.82 33.84L126.87 33.89Q126.69 31.80 123.00 30.89L122.84 30.74L121.04 30.87L120.92 30.76Q120.07 30.86 119.12 30.89L119.09 30.87L119.03 30.80Q119.13 29.95 119.09 28.05L119.02 27.98L119.04 28.00Q126.68 27.98 130.87 27.64L130.85 27.63L130.93 27.71Q130.90 28.55 130.90 29.35L130.94 29.39L130.92 29.37Q130.87 30.12 130.90 30.92L130.92 30.93L130.83 30.84Q129.88 31.00 129.88 31.00L129.84 30.95L129.70 30.81Q128.30 30.79 128.68 30.79L128.68 30.78L128.79 30.90Q129.95 32.59 130.34 34.57L130.20 34.44L130.20 34.43Q130.38 35.22 130.38 35.68L130.33 35.64L130.45 35.75Q130.39 40.34 121.59 40.34L121.56 40.31L121.62 40.36Q114.42 40.28 111.83 38.19L111.88 38.24L111.91 38.27Q109.84 35.82 109.84 30.75L109.81 30.72L109.88 30.79Q109.89 29.74 109.74 27.03L109.65 26.94L109.75 27.04Q109.53 24.62 109.57 23.25L109.55 23.23L109.68 23.36Q109.81 20.52 111.18 18.92L111.16 18.89L111.00 18.74Q113.59 16.73 118.47 16.54L118.57 16.64L121.13 16.46L121.22 16.55Q124.34 16.47 127.77 16.89L127.74 16.86L127.79 16.91Q131.38 17.22 132.33 20.46L132.35 20.48L132.45 20.58Q131.31 21.38 129.21 23.21ZM130.70 25.50L130.89 25.57L130.88 25.56Q132.00 24.40 133.87 22.42L133.81 22.36L133.83 22.38Q133.63 21.53 132.64 19.82L132.57 19.75L132.56 19.75Q131.29 16.99 127.49 16.34L127.50 16.36L127.61 16.47Q125.41 16.28 121.11 15.98L121.22 16.09L118.55 16.24L118.46 16.15Q113.37 16.43 110.78 18.41L110.78 18.40L110.62 18.25Q109.40 20.03 109.29 23.12L109.21 23.04L109.16 22.99Q109.34 22.71 109.57 28.19L109.41 28.04L109.47 28.10Q109.48 29.44 109.56 32.18L109.55 32.18L109.63 32.26Q109.83 36.72 111.58 38.66L111.49 38.56L111.53 38.61Q111.92 39.46 112.80 40.33L112.84 40.37L112.84 40.38Q115.73 42.24 121.25 42.58L121.16 42.49L124.07 42.70L124.12 42.75Q125.71 42.85 127.73 42.74L127.65 42.66L127.61 42.62Q129.12 42.60 131.21 42.07L131.30 42.16L131.23 42.09Q133.12 41.55 133.08 39.22L133.20 39.34L133.17 39.31Q133.19 38.07 132.12 35.29L132.09 35.26L132.02 35.19Q131.85 34.41 131.31 33.61L131.20 33.49L131.32 33.62Q131.78 33.50 132.96 33.69L133.03 33.76L133.05 33.78Q132.77 30.19 132.81 29.51L132.83 29.53L132.83 29.53Q132.45 29.53 132.03 29.49L131.94 29.40L132.01 29.47Q131.66 29.46 131.28 29.54L131.24 29.50L131.19 29.44Q131.14 28.29 131.22 27.23L131.23 27.25L131.26 27.28Q125.02 27.81 118.74 27.70L118.73 27.68L118.71 27.67Q118.80 28.63 118.80 29.54L118.65 29.39L118.81 31.31L118.82 31.31Q119.13 31.25 119.55 31.21L119.51 31.17L119.61 31.27Q119.99 31.23 120.45 31.23L120.37 31.15L120.50 31.29Q120.33 31.57 120.37 32.06L120.54 32.24L120.38 32.07Q120.50 32.65 120.46 33.15L120.49 33.18L120.33 33.02Q121.42 33.04 122.44 33.00L122.52 33.07L122.46 33.01Q123.49 33.02 124.52 33.06L124.58 33.12L124.65 33.19Q125.67 33.41 126.54 33.79L126.40 33.64L126.53 33.81L126.54 33.82Q126.58 35.23 124.90 36.15L125.07 36.31L125.05 36.29Q123.26 37.09 121.55 37.09L121.59 37.13L121.58 37.13Q117.80 37.19 115.37 35.44L115.39 35.46L115.25 35.32Q114.35 33.35 114.50 30.80L114.50 30.80L114.46 30.76Q114.75 25.95 116.60 23.95L116.58 23.94L116.77 24.13Q118.52 22.03 123.20 21.73L123.17 21.70L123.29 21.82Q126.77 21.42 128.72 23.21L128.89 23.38L128.74 23.23Q128.92 23.45 129.03 23.64L128.90 23.51L129.07 23.56L129.08 23.57Q129.82 24.43 130.39 25.53L130.29 25.43L130.76 25.55Z"/><path fill="#333" d="M50.81 30.98L50.67 30.85L50.71 30.89Q50.71 29.36 49.89 28.45L50.02 28.58L49.89 28.45Q49.11 27.57 47.66 27.61L47.81 27.76L47.76 27.71Q45.38 27.73 44.54 29.86L44.63 29.95L44.63 29.95Q44.37 30.76 44.34 31.44L44.32 31.43L44.19 31.30Q44.02 36.19 43.10 40.53L43.14 40.56L43.07 40.49Q41.38 41.01 39.52 42.00L39.64 42.12L39.64 42.12Q41.76 35.00 41.49 27.69L41.62 27.81L41.56 27.75Q41.35 20.46 38.80 13.65L38.66 13.51L38.78 13.63Q40.61 15.00 42.63 15.69L42.51 15.57L42.46 15.52Q44.02 21.42 44.21 27.28L44.08 27.15L44.25 27.32Q45.60 25.21 48.30 25.28L48.33 25.31L48.34 25.32Q53.41 25.40 53.52 30.77L53.54 30.78L53.40 30.65Q53.52 36.33 54.89 40.97L55.05 41.13L54.92 41.00Q53.11 40.21 51.36 40.02L51.46 40.12L51.45 40.12Q50.88 36.81 50.77 30.95ZM51.00 40.32L50.94 40.26L51.00 40.32Q52.14 40.54 53.24 40.81L53.15 40.71L53.14 40.71Q53.15 40.83 53.68 42.81L53.80 42.92L53.86 42.98Q56.81 43.91 58.83 45.36L58.72 45.26L58.78 45.31Q56.05 39.50 55.52 33.18L55.62 33.28L55.48 33.15Q55.12 29.40 53.71 27.84L53.83 27.96L53.81 27.94Q53.77 27.82 53.12 27.36L53.09 27.33L53.11 27.35Q52.99 26.96 52.34 26.20L52.17 26.03L52.22 26.00L52.21 25.99Q51.50 25.28 48.38 25.01L48.22 24.85L48.20 24.84Q47.48 24.84 46.07 25.18L46.21 25.33L46.21 25.32Q45.88 20.35 45.54 17.84L45.61 17.91L45.49 17.79Q44.74 17.69 43.26 17.38L43.39 17.52L43.39 17.51Q43.20 16.75 42.93 15.27L42.92 15.26L42.89 15.23Q39.88 14.19 38.01 12.63L38.14 12.76L38.02 12.64Q41.01 19.81 41.27 27.62L41.33 27.67L41.20 27.55Q41.56 35.40 39.00 42.75L38.99 42.73L39.07 42.81Q40.00 42.22 41.14 41.73L41.15 41.73L40.37 43.96L40.28 43.88Q43.49 42.62 45.46 42.43L45.46 42.42L45.49 42.46Q45.98 36.97 46.17 33.01L46.19 33.03L46.22 33.06Q46.34 31.24 48.28 30.14L48.24 30.10L48.31 30.16Q48.69 29.79 49.23 29.82L49.31 29.90L49.39 29.99Q49.41 29.86 49.76 29.90L49.82 29.96L50.22 30.02L50.35 30.15Q50.18 30.36 50.30 30.82L50.37 30.89L50.44 30.97Q50.51 36.89 51.00 40.32Z"/></svg>