<svg xmlns="http://www.w3.org/2000/svg" width="150" height="50" viewBox="0,0,150,50"><path fill="#333" d="M102.28 28.60L102.38 28.69L96.44 28.73L96.52 28.81Q93.57 28.83 90.64 28.76L90.59 28.71L90.58 28.69Q90.80 35.50 88.74 41.02L88.77 41.05L88.70 40.97Q86.87 41.47 85.12 42.15L85.12 42.16L85.03 42.06Q87.86 36.41 87.86 29.75L87.80 29.69L87.80 29.68Q87.80 21.19 83.69 14.15L83.72 14.19L83.72 14.18Q85.26 15.00 87.74 15.80L87.74 15.81L87.84 15.91Q89.91 20.90 90.44 25.78L90.45 25.78L90.48 25.82Q93.71 26.27 96.56 26.23L96.57 26.23L96.56 26.22Q99.11 26.11 102.42 25.84L102.54 25.96L102.53 25.95Q102.93 21.48 104.68 16.37L104.71 16.41L104.72 16.42Q106.55 15.88 108.79 15.05L108.86 15.12L108.94 15.19Q105.33 21.93 105.33 29.89L105.23 29.80L105.21 29.77Q105.23 36.00 107.59 41.33L107.69 41.42L107.55 41.29Q105.99 40.72 103.93 40.41L103.98 40.46L103.86 40.34Q102.17 35.30 102.29 28.60ZM103.57 40.66L103.65 40.74L103.65 40.74Q104.65 40.86 105.75 41.13L105.77 41.14L105.75 41.12Q106.07 41.82 106.71 43.31L106.70 43.29L106.83 43.42Q110.20 44.39 111.99 45.31L111.96 45.28L112.01 45.33Q107.42 39.03 107.12 30.77L107.26 30.90L107.25 30.90Q106.95 22.87 110.61 16.06L110.44 15.90L109.53 16.51L109.46 16.43Q108.98 16.67 108.37 16.83L108.31 16.77L108.33 16.79Q108.80 16.05 109.64 14.48L109.52 14.37L109.58 14.42Q106.90 15.43 104.27 15.93L104.22 15.88L104.23 15.89Q102.62 20.79 102.16 25.47L102.11 25.42L102.18 25.49Q99.64 25.65 97.21 25.65L97.34 25.79L97.33 25.78Q94.96 25.81 92.45 25.66L92.30 25.50L92.39 25.60Q92.04 22.20 90.94 18.13L90.97 18.16L91.02 18.21Q90.34 18.10 88.89 17.72L89.00 17.83L88.84 17.67Q88.61 16.60 88.15 15.57L88.04 15.46L88.10 15.52Q85.26 14.65 82.97 13.40L83.12 13.54L82.98 13.41Q87.54 20.82 87.54 29.61L87.62 29.69L87.59 29.67Q87.51 36.55 84.39 42.68L84.48 42.77L84.44 42.73Q85.15 42.46 86.49 41.89L86.53 41.93L86.64 42.03Q86.21 42.79 85.41 44.31L85.42 44.32L85.42 44.32Q88.22 43.31 90.46 42.89L90.40 42.83L90.48 42.91Q92.31 37.31 92.50 31.15L92.61 31.26L92.61 31.25Q94.04 31.01 97.23 30.97L97.22 30.96L97.41 31.14Q100.19 31.04 102.10 31.11L101.99 31.01L102.00 31.01Q102.32 36.81 103.65 40.74Z"/><path fill="#222" d="M30.46 40.46L30.33 40.33L30.39 40.40Q27.43 36.52 24.80 27.88L24.81 27.89L24.84 27.92Q24.18 25.77 23.38 23.64L23.35 23.60L20.47 32.38L20.41 32.32Q18.64 37.28 16.24 40.52L16.31 40.59L16.17 40.45Q15.32 40.51 13.68 40.67L13.69 40.67L13.65 40.63Q13.82 39.51 13.82 38.25L13.83 38.26L13.94 38.37Q13.85 32.27 11.11 26.14L11.13 26.16L11.11 26.14Q8.05 19.31 2.19 14.32L2.05 14.19L2.16 14.29Q4.31 15.00 6.67 15.53L6.59 15.45L6.64 15.50Q15.29 23.93 16.59 34.89L16.53 34.83L16.65 34.95Q18.15 31.50 19.60 26.14L19.74 26.28L19.58 26.12Q21.71 18.77 22.21 17.36L22.08 17.23L24.49 17.40L24.35 17.26Q25.20 19.44 25.84 21.76L25.71 21.62L27.03 26.14L27.06 26.18Q28.64 31.64 30.05 34.87L29.93 34.76L29.98 34.81Q31.56 23.10 39.48 15.75L39.61 15.88L39.58 15.85Q41.12 15.53 44.09 14.88L43.99 14.78L43.95 14.74Q38.78 19.21 35.74 25.34L35.65 25.24L35.63 25.23Q32.63 31.56 32.63 38.33L32.67 38.37L32.54 38.24Q32.66 39.47 32.74 40.61L32.65 40.52L31.49 40.39L31.53 40.42Q30.88 40.31 30.31 40.31ZM36.55 43.20L36.67 43.32L36.70 43.35Q35.45 39.78 35.56 35.90L35.39 35.73L35.43 35.76Q35.78 24.23 45.14 15.97L45.13 15.96L45.11 15.94Q44.25 16.26 42.31 16.80L42.38 16.87L42.36 16.84Q43.16 15.86 45.06 14.07L45.11 14.11L45.22 14.23Q42.50 14.93 39.57 15.42L39.65 15.50L39.60 15.45Q32.08 22.56 30.18 32.04L30.16 32.02L30.19 32.05Q29.67 30.46 26.82 19.00L26.75 18.93L26.78 18.96Q26.38 19.06 25.43 19.06L25.41 19.05L25.07 17.94L24.98 17.85Q24.90 17.35 24.67 16.86L24.66 16.85L21.81 16.89L21.72 16.80Q20.97 19.32 19.69 24.44L19.79 24.54L19.80 24.55Q18.44 29.58 17.45 32.05L17.38 31.99L17.41 32.02Q15.79 24.08 10.23 17.76L10.32 17.85L10.26 17.79Q9.76 17.70 8.81 17.51L8.93 17.64L8.79 17.50Q8.19 16.79 6.63 15.15L6.67 15.19L6.63 15.14Q3.10 14.21 0.93 13.41L1.04 13.51L0.93 13.41Q6.77 18.26 10.04 24.46L10.03 24.45L10.00 24.42Q13.41 30.99 13.41 38.00L13.50 38.08L13.48 38.06Q13.34 39.49 13.15 41.09L13.33 41.26L13.16 41.09Q13.52 41.22 13.97 41.13L13.86 41.01L13.84 40.99Q14.39 40.99 14.62 40.99L14.53 40.90L14.70 42.10L14.55 41.95Q14.68 42.54 14.76 43.07L14.74 43.05L14.76 43.07Q15.79 42.89 18.07 42.73L18.16 42.82L18.20 42.86Q21.68 37.32 24.42 27.91L24.46 27.95L24.43 27.93Q27.26 36.77 30.23 40.73L30.16 40.66L30.15 40.64Q30.64 40.68 31.48 40.80L31.51 40.82L31.50 40.81Q32.46 41.97 33.52 43.03L33.42 42.93L33.54 43.04Q34.21 42.99 36.61 43.26Z"/><path fill="#222" d="M68.38 40.32L68.41 40.35L68.49 40.43Q64.30 40.54 63.31 38.22L63.47 38.38L63.35 38.25Q64.08 37.27 65.64 35.48L65.73 35.58L65.78 35.63Q66.21 37.58 69.22 37.70L69.14 37.62L69.14 37.62Q72.57 37.73 74.21 36.40L74.15 36.34L74.29 36.49Q75.72 34.90 75.64 32.20L75.65 32.21L75.51 32.07Q75.37 27.01 70.57 27.24L70.56 27.23L70.57 27.24Q67.81 27.46 66.06 28.71L66.07 28.72L65.61 28.41L65.47 28.35L65.55 28.42Q65.95 25.32 65.84 22.58L65.83 22.58L65.74 22.49Q65.64 19.88 65.30 16.57L65.37 16.64L65.21 16.47Q68.89 17.45 72.69 17.34L72.81 17.45L72.75 17.39Q76.46 17.22 80.04 15.97L80.07 15.99L79.52 17.53L79.60 17.61Q79.22 18.31 79.03 19.14L79.15 19.26L79.07 19.18Q75.98 20.24 72.10 20.24L72.15 20.30L72.04 20.18Q70.60 20.19 69.12 20.04L69.17 20.10L69.12 20.05Q69.08 20.76 68.74 25.22L68.61 25.10L68.81 25.29Q69.53 24.71 71.58 24.56L71.51 24.49L71.60 24.57Q75.42 24.90 76.87 26.57L76.84 26.55L76.70 26.41Q78.10 27.96 78.37 31.80L78.34 31.78L78.38 31.81Q78.61 35.97 77.39 37.98L77.48 38.07L77.46 38.06Q75.41 39.93 72.10 40.16L72.12 40.18L72.06 40.11Q71.13 40.25 68.47 40.41ZM74.51 42.68L74.52 42.68L74.42 42.59Q77.97 42.79 79.87 41.68L79.79 41.60L79.91 41.72Q80.86 40.16 80.86 38.06L80.80 38.01L80.75 37.95Q80.87 34.99 79.92 30.88L79.91 30.87L79.83 30.80Q79.39 28.98 78.17 27.58L78.34 27.74L78.31 27.75L78.00 27.36L77.79 27.31L77.75 27.27Q77.50 26.60 76.85 25.91L76.80 25.86L76.86 25.96L76.81 25.90Q75.21 24.15 71.52 24.15L71.55 24.19L71.31 24.21L71.33 24.24Q71.42 23.68 71.61 22.57L71.59 22.55L71.59 22.55Q76.65 22.74 80.68 21.10L80.53 20.94L80.53 20.95Q80.98 19.57 81.93 16.75L81.93 16.75L79.93 17.80L79.96 17.82Q80.21 16.55 80.70 15.41L80.76 15.46L80.70 15.41Q76.95 16.95 72.84 17.03L72.73 16.92L72.73 16.91Q68.71 17.12 64.75 16.01L64.64 15.91L64.77 16.04Q65.38 20.38 65.38 24.80L65.34 24.75L65.48 24.89Q65.33 26.65 65.22 28.55L65.19 28.52L65.20 28.54Q65.60 28.85 66.17 29.16L66.15 29.15L66.18 29.17Q66.46 28.88 67.11 28.54L67.11 28.54L67.17 28.60Q67.05 29.28 66.82 30.80L66.79 30.78L66.86 30.84Q67.20 30.95 67.62 31.18L67.68 31.24L67.78 31.34Q70.38 29.41 72.24 29.41L72.37 29.54L72.40 29.57Q73.74 29.57 74.92 30.22L74.74 30.04L74.87 30.17Q75.28 31.26 75.31 32.21L75.14 32.04L75.26 32.16Q75.33 34.75 74.31 35.85L74.31 35.86L74.27 35.82Q72.93 37.06 70.68 37.29L70.71 37.32L70.56 37.17Q69.67 37.30 68.98 37.23L68.97 37.21L68.97 37.21Q68.22 37.19 67.46 36.85L67.50 36.89L67.40 36.60L67.25 36.67L67.23 36.66Q66.42 36.15 65.89 34.82L65.89 34.82L66.03 34.96Q64.66 36.33 62.98 38.46L62.83 38.31L62.83 38.31Q63.30 39.12 64.14 40.07L64.06 39.99L64.09 40.02Q65.17 41.86 67.98 42.36L67.99 42.37L67.92 42.30Q69.13 42.55 74.49 42.66Z"/><path fill="#222" d="M121.28 30.37L121.40 30.49L121.26 30.35Q117.77 36.68 114.34 40.64L114.35 40.65L114.42 40.72Q112.62 41.21 110.19 42.08L110.11 42.00L110.05 41.94Q115.01 36.40 119.77 27.98L119.87 28.08L119.75 27.96Q115.19 21.05 109.21 14.65L109.25 14.69L109.22 14.65Q112.22 15.94 114.51 16.44L114.35 16.28L114.43 16.37Q119.02 21.52 121.45 25.48L121.46 25.49L121.41 25.44Q124.06 21.16 127.98 16.74L127.99 16.75L127.89 16.65Q129.47 16.33 132.67 15.57L132.69 15.58L132.67 15.57Q126.61 22.03 123.14 27.97L123.08 27.91L123.14 27.97Q128.33 36.66 132.71 41.23L132.76 41.28L132.64 41.16Q130.19 40.50 128.10 40.27L128.08 40.25L128.06 40.23Q125.32 37.30 121.40 30.49ZM127.99 40.59L127.93 40.52L127.91 40.50Q128.29 40.61 128.74 40.73L128.68 40.66L128.80 40.78Q129.59 41.53 131.11 43.13L131.10 43.12L130.97 42.99Q134.34 43.81 137.39 45.18L137.50 45.29L137.43 45.23Q130.38 38.71 125.28 29.95L125.27 29.95L125.18 29.85Q128.92 23.20 134.82 16.35L134.96 16.48L134.82 16.35Q133.35 16.97 131.18 17.50L131.23 17.55L131.18 17.50Q132.17 16.70 133.92 14.92L133.90 14.90L133.80 14.80Q131.58 15.85 127.89 16.42L127.88 16.42L127.71 16.25Q124.33 20.10 121.75 24.40L121.68 24.34L121.84 24.49Q120.89 22.86 119.71 21.37L119.64 21.31L117.46 18.48L116.92 18.32L116.97 18.37Q116.89 18.44 116.66 18.37L116.60 18.30L116.56 18.27Q115.96 17.52 114.48 15.95L114.54 16.02L114.49 15.97Q110.76 15.16 108.17 13.79L107.97 13.59L107.99 13.62Q114.75 20.90 119.31 27.95L119.41 28.04L119.41 28.04Q114.80 36.11 109.05 42.70L109.19 42.83L109.13 42.78Q110.55 42.22 112.68 41.64L112.50 41.46L111.28 42.99L111.26 42.96Q111.33 43.03 110.00 44.36L109.99 44.35L109.98 44.35Q113.01 43.31 116.17 42.81L116.13 42.77L116.07 42.71Q120.15 38.26 122.73 33.50L122.73 33.49L122.72 33.49Q125.23 37.68 127.94 40.53Z"/><path fill="#333" d="M50.58 30.85L50.59 30.87L50.67 30.95Q50.47 29.64 48.53 28.92L48.57 28.96L48.66 29.05Q47.98 28.67 47.44 28.67L47.62 28.84L47.52 28.74Q46.15 28.75 45.08 29.32L45.17 29.40L45.17 29.40Q43.70 30.03 43.82 31.25L43.84 31.27L43.85 31.28Q44.10 34.00 43.95 36.25L44.05 36.35L44.05 36.35Q43.98 38.87 43.25 41.38L43.26 41.39L43.24 41.37Q40.99 41.75 39.81 42.17L39.86 42.21L39.75 42.11Q41.39 38.52 41.39 34.53L41.54 34.68L41.55 34.69Q41.42 29.11 38.83 24.66L38.94 24.77L38.90 24.73Q40.07 25.17 42.46 25.90L42.50 25.93L42.38 25.82Q42.73 26.58 43.11 28.10L43.16 28.16L43.26 28.25Q44.57 26.14 48.46 26.22L48.39 26.15L48.43 26.19Q49.95 26.26 50.75 26.38L50.67 26.30L50.69 26.32Q53.68 26.72 53.76 28.74L53.71 28.69L53.81 28.79Q53.81 29.67 53.62 30.70L53.53 30.61L53.54 30.61Q53.11 33.16 53.30 36.16L53.19 36.06L53.25 36.11Q53.54 39.11 54.53 41.66L54.34 41.47L54.50 41.63Q52.62 41.04 50.91 40.89L50.95 40.93L50.94 40.92Q50.59 38.67 50.51 36.00L50.38 35.87L50.51 36.00Q50.50 33.32 50.72 31.00ZM50.61 41.31L50.71 41.41L50.68 41.39Q51.44 41.34 52.73 41.57L52.73 41.57L53.02 42.54L53.15 42.67Q53.23 43.06 53.46 43.59L53.44 43.57L53.48 43.61Q55.73 43.99 58.43 45.17L58.49 45.24L58.56 45.30Q56.18 42.16 55.50 38.36L55.39 38.25L55.50 38.37Q55.12 36.20 55.24 32.50L55.21 32.47L55.22 32.48Q55.32 32.29 55.36 31.49L55.26 31.38L55.27 31.39Q55.30 30.74 55.22 30.24L55.27 30.29L55.25 30.27Q55.14 28.60 54.04 28.11L53.98 28.04L54.08 28.15Q53.86 27.24 53.10 26.63L53.17 26.70L53.18 26.72Q51.34 25.56 48.30 25.64L48.31 25.65L48.37 25.71Q46.42 25.66 45.58 25.85L45.70 25.97L45.60 25.87Q44.28 26.34 43.33 27.26L43.19 27.12L43.28 27.21Q43.17 26.68 42.79 25.65L42.80 25.66L42.74 25.61Q39.98 24.97 38.15 23.98L38.10 23.93L38.05 23.88Q41.19 28.85 41.19 34.60L41.10 34.51L41.27 34.68Q41.13 38.92 39.23 42.76L39.27 42.81L39.19 42.73Q39.93 42.47 41.22 42.09L41.33 42.20L41.21 42.07Q40.71 43.33 40.18 44.32L40.17 44.31L40.24 44.38Q41.61 43.89 45.15 43.32L45.18 43.35L45.28 43.45Q46.17 38.20 46.05 33.37L46.06 33.37L46.12 33.44Q46.12 32.63 47.30 31.91L47.24 31.85L47.20 31.81Q48.16 31.09 49.26 30.98L49.26 30.98L49.38 31.10Q49.75 30.98 50.17 31.17L50.12 31.12L50.16 31.16Q50.11 33.81 50.15 36.36L50.06 36.27L50.01 36.22Q50.09 38.77 50.58 41.28Z"/></svg>