<svg xmlns="http://www.w3.org/2000/svg" width="150" height="50" viewBox="0,0,150,50"><path fill="#222" d="M55.10 30.31L55.15 30.36L55.02 30.23Q55.22 29.94 55.18 29.52L55.15 29.48L55.26 29.60Q55.07 29.09 54.76 28.90L54.90 29.05L54.72 28.86Q54.17 28.47 53.30 28.62L53.31 28.64L53.24 28.56Q52.06 28.45 50.43 29.56L50.52 29.65L50.45 29.58Q49.20 30.65 49.20 31.83L49.06 31.69L49.19 31.83Q49.11 33.00 49.11 36.31L49.10 36.31L49.13 36.33Q49.13 38.93 49.29 40.94L49.13 40.79L49.21 40.87Q47.57 40.94 47.57 40.94L47.59 40.96L47.48 40.85Q46.48 40.80 45.75 40.87L45.80 40.92L45.77 40.89Q46.16 38.35 46.23 36.10L46.21 36.08L46.30 36.17Q46.46 31.53 45.81 30.24L45.83 30.25L45.70 30.13Q45.54 29.66 44.97 29.35L44.90 29.29L44.91 29.30Q44.17 28.67 42.61 28.55L42.55 28.49L42.54 28.48Q40.56 28.29 40.02 29.89L39.97 29.84L40.00 29.87Q39.84 30.35 39.95 30.85L40.04 30.94L40.03 30.92Q40.56 33.55 40.22 36.33L40.22 36.33L40.34 36.45Q40.02 39.25 38.61 41.69L38.64 41.71L38.47 41.55Q37.51 41.76 35.41 42.18L35.57 42.34L35.45 42.22Q37.94 38.96 37.94 34.66L37.97 34.69L37.86 34.58Q38.03 28.88 33.99 24.66L33.90 24.57L33.98 24.65Q34.65 24.86 35.61 25.09L35.62 25.11L37.42 25.57L37.37 25.52Q37.80 26.10 38.67 27.78L38.63 27.73L38.65 27.76Q38.88 25.93 41.32 25.90L41.29 25.87L41.30 25.87Q41.43 25.82 42.42 25.90L42.39 25.86L42.48 25.96Q47.40 26.18 48.54 29.00L48.65 29.11L48.63 29.09Q50.31 26.40 55.34 25.86L55.28 25.81L55.24 25.77Q56.10 25.75 56.97 25.86L56.97 25.86L56.98 25.87Q59.13 26.01 58.98 27.57L58.92 27.50L59.00 27.58Q58.96 28.26 58.69 29.03L58.65 28.98L58.74 29.07Q57.18 31.93 57.41 35.47L57.43 35.49L57.53 35.59Q57.61 38.95 59.51 41.77L59.59 41.84L59.52 41.77Q57.91 41.50 56.08 41.27L56.16 41.35L56.06 41.25Q54.94 38.79 54.75 36.01L54.63 35.89L54.57 35.83Q54.42 33.02 55.07 30.28ZM55.87 41.67L55.84 41.63L55.84 41.64Q56.48 41.63 57.81 41.82L57.84 41.84L57.93 41.93Q58.51 42.71 59.65 44.12L59.52 43.99L59.50 43.96Q62.57 44.67 64.67 45.32L64.53 45.18L64.59 45.25Q59.51 41.27 59.24 34.76L59.24 34.76L59.25 34.76Q59.30 32.79 59.91 30.89L59.79 30.78L59.90 30.89Q60.00 29.88 60.00 29.16L60.02 29.17L60.11 29.27Q60.00 28.24 59.39 27.67L59.38 27.66L59.50 27.74L59.50 27.75Q59.53 27.20 59.46 26.71L59.35 26.60L59.51 26.76Q59.39 26.23 58.94 25.96L58.78 25.81L58.91 25.94Q58.23 25.44 57.35 25.40L57.21 25.26L57.25 25.30Q54.48 25.28 51.82 26.23L51.88 26.29L51.82 26.23Q49.83 26.91 48.65 28.32L48.56 28.23L48.63 28.29Q47.18 25.93 42.34 25.59L42.33 25.58L42.27 25.51Q41.58 25.47 41.16 25.47L41.14 25.45L41.18 25.48Q39.08 25.44 38.47 26.70L38.43 26.66L38.40 26.63Q38.13 26.17 37.45 25.11L37.54 25.20L37.49 25.15Q34.95 24.55 32.97 23.90L33.05 23.98L32.96 23.90Q37.64 28.30 37.64 34.58L37.64 34.59L37.78 34.73Q37.66 39.33 34.80 42.79L34.76 42.75L34.83 42.82Q35.19 42.57 35.69 42.49L35.72 42.52L36.66 42.32L36.79 42.46Q36.07 43.49 34.97 44.71L35.03 44.77L35.04 44.78Q36.51 44.30 39.63 43.69L39.68 43.74L39.77 43.84Q42.28 39.57 42.28 34.65L42.38 34.76L42.35 34.73Q42.37 33.95 42.29 33.11L42.30 33.12L42.39 33.21Q42.31 32.45 43.30 31.65L43.27 31.62L43.25 31.63L43.20 31.58Q43.68 30.99 44.86 30.88L44.91 30.93L44.96 30.98Q45.40 31.00 45.70 31.00L45.70 30.99L45.75 31.24L45.71 31.20Q46.12 34.04 46.00 36.40L45.98 36.38L45.95 36.35Q45.75 38.55 45.26 41.22L45.41 41.37L45.40 41.35Q46.28 41.21 46.28 41.21L46.34 41.27L46.44 41.37Q47.83 41.31 47.49 41.31L47.49 41.32L47.41 41.24Q47.45 41.77 47.41 42.23L47.36 42.17L47.49 42.30Q47.30 42.61 47.30 43.10L47.46 43.26L49.80 43.13L49.87 43.20Q51.11 43.18 52.36 43.26L52.35 43.25L52.37 43.27Q50.80 39.52 50.99 33.58L51.02 33.62L51.09 33.69Q51.00 32.45 52.18 31.69L52.20 31.72L52.30 31.81Q53.18 30.98 54.43 30.79L54.47 30.82L54.65 30.69L54.81 30.86Q54.29 32.70 54.29 34.68L54.39 34.78L54.33 34.72Q54.28 38.44 55.81 41.60ZM50.37 30.15L50.46 30.01L50.34 30.23L50.29 30.07Z"/><path fill="#444" d="M28.29 28.60L28.32 28.64L22.55 28.84L22.39 28.68Q19.53 28.79 16.59 28.71L16.62 28.74L16.67 28.79Q16.81 35.51 14.75 41.03L14.58 40.85L14.69 40.96Q12.91 41.51 11.16 42.19L11.12 42.16L11.03 42.07Q13.84 36.39 13.84 29.73L13.89 29.77L13.92 29.81Q13.82 21.21 9.71 14.17L9.68 14.14L9.70 14.16Q11.32 15.06 13.80 15.86L13.81 15.88L13.72 15.78Q15.82 20.81 16.35 25.69L16.52 25.85L16.44 25.78Q19.66 26.22 22.51 26.18L22.56 26.22L22.51 26.17Q25.22 26.22 28.53 25.95L28.54 25.97L28.44 25.86Q28.96 21.50 30.71 16.40L30.57 16.27L30.57 16.27Q32.69 16.02 34.94 15.19L34.78 15.03L34.79 15.04Q31.16 21.77 31.16 29.73L31.20 29.77L31.14 29.70Q31.31 36.08 33.67 41.41L33.51 41.25L33.64 41.38Q32.07 40.79 30.01 40.49L29.93 40.41L30.01 40.49Q28.22 35.35 28.33 28.65ZM29.62 40.71L29.73 40.82L29.67 40.76Q30.70 40.92 31.81 41.18L31.87 41.24L31.82 41.20Q32.16 41.91 32.80 43.40L32.71 43.30L32.85 43.45Q36.21 44.41 38.00 45.32L38.01 45.33L37.96 45.28Q33.44 39.04 33.13 30.78L33.10 30.75L33.09 30.74Q32.84 22.76 36.49 15.95L36.52 15.98L35.42 16.39L35.42 16.39Q35.02 16.72 34.41 16.87L34.40 16.86L34.42 16.88Q34.78 16.02 35.61 14.46L35.64 14.48L35.68 14.52Q32.90 15.43 30.27 15.93L30.29 15.95L30.32 15.98Q28.65 20.82 28.19 25.50L28.14 25.45L28.19 25.49Q25.79 25.80 23.36 25.80L23.22 25.67L23.32 25.76Q20.88 25.73 18.37 25.57L18.45 25.66L18.38 25.59Q18.11 22.27 17.01 18.20L16.96 18.15L16.98 18.17Q16.34 18.10 14.90 17.72L14.84 17.66L14.89 17.72Q14.53 16.52 14.07 15.49L14.09 15.50L13.97 15.39Q11.39 14.79 9.10 13.53L9.07 13.50L9.06 13.48Q13.62 20.90 13.62 29.69L13.55 29.63L13.51 29.59Q13.58 36.62 10.46 42.75L10.57 42.86L10.53 42.82Q11.20 42.50 12.53 41.93L12.48 41.88L12.58 41.98Q12.28 42.86 11.48 44.38L11.37 44.28L11.49 44.39Q14.15 43.24 16.39 42.82L16.51 42.94L16.54 42.97Q18.39 37.40 18.58 31.23L18.58 31.22L18.61 31.26Q20.18 31.16 23.38 31.12L23.36 31.10L23.32 31.06Q26.10 30.94 28.00 31.02L28.01 31.02L28.09 31.11Q28.43 36.93 29.77 40.85Z"/><path fill="#333" d="M80.50 41.61L80.47 41.58L80.44 41.54Q78.27 41.09 76.10 40.94L76.22 41.06L76.07 40.91Q74.69 39.53 72.02 35.68L72.17 35.83L72.02 35.67Q69.90 38.85 67.50 41.28L67.54 41.32L65.28 41.54L65.40 41.66Q64.38 41.90 63.39 42.16L63.35 42.12L63.39 42.16Q67.42 37.89 70.42 33.78L70.57 33.92L70.43 33.78Q67.25 29.69 61.84 24.89L61.82 24.86L61.83 24.88Q64.10 25.66 66.80 26.08L66.81 26.09L66.73 26.01Q70.27 29.21 72.17 31.91L72.20 31.93L72.02 31.76Q74.25 28.81 76.99 26.30L77.07 26.37L77.04 26.34Q79.98 25.89 81.80 25.40L81.87 25.46L81.95 25.55Q77.28 29.06 73.59 33.63L73.71 33.75L73.71 33.75Q76.96 38.30 80.42 41.53ZM83.29 24.67L83.40 24.79L83.27 24.66Q80.43 25.55 76.89 25.89L76.89 25.89L76.79 25.79Q74.00 28.56 72.28 31.03L72.34 31.09L72.25 31.00Q71.40 30.00 69.77 28.02L69.85 28.10L69.62 28.06L69.56 28.00Q69.50 28.06 69.39 28.06L69.20 27.87L69.22 27.89Q68.49 27.08 66.85 25.64L66.89 25.67L66.88 25.66Q63.37 25.20 60.51 23.98L60.46 23.93L60.40 23.86Q66.08 28.82 70.11 33.96L69.94 33.79L70.11 33.95Q66.68 38.53 62.27 42.83L62.30 42.86L62.25 42.81Q62.52 42.73 66.02 41.90L66.04 41.92L65.97 41.85Q64.48 43.21 62.84 44.55L62.81 44.51L62.88 44.58Q66.00 43.59 69.16 43.40L69.16 43.40L69.24 43.48Q71.50 41.10 73.40 38.35L73.48 38.43L73.46 38.41Q74.94 40.23 76.15 41.41L76.10 41.35L76.11 41.36Q76.22 41.36 76.30 41.44L76.38 41.52L76.51 41.46L76.55 41.50Q77.82 42.62 79.16 43.69L79.14 43.68L79.05 43.58Q82.68 44.17 85.58 45.20L85.49 45.11L85.56 45.18Q79.32 40.66 75.63 35.48L75.66 35.51L75.72 35.57Q79.33 30.50 83.90 26.43L83.91 26.44L83.89 26.42Q82.99 26.81 82.00 27.04L81.94 26.98L79.98 27.49L79.94 27.45Q81.19 26.61 83.36 24.75Z"/><path fill="#111" d="M122.95 32.25L113.53 22.07L113.61 22.15Q114.46 25.85 114.46 29.58L114.54 29.66L114.53 29.66Q114.39 35.50 112.34 41.05L112.35 41.07L112.34 41.05Q111.36 41.41 109.12 42.17L109.09 42.14L109.15 42.21Q111.87 36.32 111.87 29.62L111.90 29.65L111.99 29.74Q111.97 21.07 107.47 13.65L107.33 13.50L107.43 13.60Q107.74 13.65 108.43 14.07L108.46 14.11L108.54 14.18Q120.59 25.36 128.44 34.61L128.36 34.54L128.41 34.58Q128.20 32.24 128.20 29.81L128.10 29.71L128.11 29.72Q128.07 22.45 130.59 16.25L130.72 16.38L130.75 16.41Q133.01 15.81 134.61 15.13L134.52 15.04L134.67 15.18Q131.22 21.22 130.92 28.38L130.98 28.44L130.88 28.34Q130.73 35.84 133.69 42.00L133.63 41.94L133.66 41.97Q133.10 41.91 132.69 41.72L132.63 41.66L132.60 41.63Q128.10 37.74 122.88 32.18L122.95 32.25ZM136.16 45.04L136.34 45.22L136.34 45.22Q136.62 45.20 137.04 45.39L137.18 45.53L137.91 45.77L137.94 45.80Q132.90 38.97 132.90 29.60L132.92 29.61L132.93 29.63Q132.92 22.39 136.23 16.14L136.08 15.99L136.14 16.05Q135.55 16.33 134.14 16.94L134.18 16.98L134.05 16.86Q134.47 16.06 135.31 14.50L135.38 14.57L135.30 14.49Q132.83 15.37 130.40 15.94L130.39 15.94L130.35 15.90Q127.67 22.32 127.67 29.74L127.78 29.84L127.73 29.79Q127.73 31.66 127.92 33.64L127.90 33.62L127.99 33.71Q123.33 28.02 118.57 23.42L118.53 23.37L108.54 13.76L108.40 13.62Q107.93 13.42 106.71 12.85L106.69 12.83L106.72 12.86Q111.54 20.54 111.54 29.64L111.49 29.58L111.50 29.59Q111.50 36.71 108.42 42.73L108.37 42.68L108.42 42.73Q108.81 42.71 110.45 42.10L110.45 42.10L110.48 42.13Q110.12 42.88 109.29 44.36L109.25 44.32L109.23 44.31Q110.69 43.90 114.15 43.10L114.09 43.04L114.03 42.97Q116.44 36.93 116.44 29.74L116.40 29.70L116.48 29.77Q116.42 27.63 116.19 25.49L116.15 25.45L116.18 25.48Q127.75 38.38 136.35 45.23Z"/><path fill="#111" d="M95.69 29.12L95.75 29.19L95.69 29.12Q93.90 29.20 92.68 30.53L92.75 30.60L92.60 30.45Q91.52 31.92 91.37 33.83L91.34 33.80L91.30 33.76Q91.05 35.83 92.27 36.84L92.42 36.99L92.40 36.97Q93.52 37.87 95.65 37.80L95.61 37.76L95.64 37.79Q98.02 37.70 98.97 36.75L98.98 36.75L98.93 36.70Q100.04 35.34 99.93 33.51L99.94 33.52L99.91 33.49Q99.71 31.55 98.63 30.35L98.69 30.41L98.75 30.47Q97.55 29.15 95.72 29.15ZM95.68 19.71L95.68 19.71L95.69 19.72Q94.39 19.71 93.05 20.20L93.07 20.22L92.91 20.06Q91.70 20.95 91.93 22.81L91.92 22.80L91.91 22.80Q92.34 26.46 95.69 26.46L95.78 26.55L95.74 26.51Q97.25 26.65 98.24 25.51L98.30 25.56L98.31 25.58Q99.31 24.44 99.34 22.88L99.40 22.94L99.42 22.96Q99.42 21.13 98.70 20.52L98.75 20.57L98.59 20.41Q96.91 19.57 95.62 19.65ZM95.42 40.27L95.44 40.29L92.44 40.34L92.34 40.24Q90.87 40.30 89.54 39.42L89.60 39.48L89.53 39.41Q88.13 38.24 88.29 35.39L88.39 35.49L88.25 35.35Q88.84 28.63 92.46 27.64L92.42 27.61L92.41 27.59Q90.04 26.60 88.71 21.23L88.81 21.33L88.88 21.40Q88.41 19.86 88.48 19.06L88.57 19.15L88.54 19.12Q88.73 16.87 92.42 16.83L92.62 17.03L92.47 16.88Q96.84 16.95 98.29 17.14L98.25 17.11L98.14 16.99Q101.95 17.49 102.40 19.51L102.49 19.59L102.43 19.53Q102.57 20.17 102.57 20.55L102.57 20.55L102.54 20.52Q102.59 21.26 102.40 21.87L102.45 21.91L102.51 21.97Q101.84 26.13 98.91 27.66L98.93 27.68L98.90 27.65Q102.43 28.48 102.92 33.77L102.92 33.77L102.90 33.75Q102.86 33.85 102.90 35.15L102.90 35.16L103.01 35.26Q102.90 37.82 101.30 38.88L101.38 38.97L101.35 38.93Q99.95 39.78 95.38 40.23ZM97.68 42.57L97.79 42.68L101.04 42.66L101.12 42.74Q102.76 42.74 104.29 42.02L104.35 42.08L104.38 42.12Q105.55 41.42 105.63 39.56L105.48 39.41L105.50 39.43Q105.53 38.32 105.15 36.37L105.28 36.50L105.22 36.44Q104.35 31.85 102.26 29.98L102.20 29.93L101.99 29.52L101.71 29.17L101.60 28.94L101.73 29.07Q103.36 27.70 104.28 23.55L104.29 23.56L104.14 23.41Q104.17 23.06 104.25 22.23L104.27 22.25L104.20 22.18Q104.44 21.66 104.36 21.05L104.19 20.87L104.36 21.04Q104.03 19.42 102.85 18.93L102.89 18.96L103.06 19.10L102.75 18.86L102.78 18.89Q102.47 18.13 101.29 17.33L101.27 17.30L101.46 17.46L101.30 17.30Q99.41 16.70 95.34 16.51L95.40 16.57L95.40 16.57Q93.83 16.45 92.46 16.57L92.40 16.51L92.37 16.48Q91.60 16.54 90.30 16.69L90.40 16.79L90.33 16.72Q88.45 17.17 88.22 18.80L88.05 18.63L88.12 18.69Q88.03 19.14 88.07 19.94L88.24 20.11L88.21 20.09Q88.28 20.57 88.85 22.93L88.80 22.88L88.91 22.99Q89.56 26.08 91.31 27.41L91.35 27.45L91.51 27.61L91.42 27.51Q88.72 28.89 88.18 34.07L88.20 34.08L88.15 34.03Q87.94 36.22 87.94 37.14L88.02 37.21L88.01 37.20Q87.97 38.88 89.15 39.79L89.22 39.86L89.11 39.75Q89.37 39.98 89.64 40.17L89.53 40.06L89.67 40.20Q90.57 42.36 97.69 42.58ZM97.43 31.58L97.33 31.48L97.48 31.64Q98.28 31.44 99.15 31.90L99.24 31.99L99.26 32.01Q99.51 32.87 99.47 33.40L99.49 33.41L99.52 33.45Q99.53 33.73 99.53 34.03L99.47 33.97L99.56 34.06Q99.48 36.34 97.20 37.18L97.34 37.32L97.31 37.29Q96.39 37.48 95.59 37.36L95.72 37.49L95.60 37.37Q94.62 37.61 93.48 37.15L93.52 37.19L93.42 37.09Q93.20 36.50 93.28 35.51L93.17 35.40L93.34 35.57Q93.43 33.90 94.63 32.69L94.57 32.62L94.57 32.63Q95.83 31.47 97.42 31.58ZM97.65 22.10L97.52 21.97L97.72 22.17Q98.45 21.99 98.99 22.14L98.96 22.12L99.00 22.96L98.99 22.94Q99.03 24.39 98.12 25.40L98.10 25.38L98.12 25.40Q97.11 26.32 95.74 26.13L95.82 26.20L95.85 26.24Q94.69 26.07 94.27 25.84L94.32 25.89L94.35 25.92Q94.27 25.61 94.16 24.93L94.27 25.04L94.14 24.91Q93.86 23.49 95.08 22.65L95.13 22.70L95.15 22.72Q96.30 22.12 97.71 22.16Z"/></svg>