<svg xmlns="http://www.w3.org/2000/svg" width="150" height="50" viewBox="0,0,150,50"><path fill="#333" d="M24.66 39.83L24.76 39.92L24.64 39.80Q22.65 39.72 20.63 39.91L20.70 39.98L20.75 40.02Q21.34 34.71 21.34 29.88L21.40 29.94L21.34 29.87Q21.33 24.96 20.68 19.74L20.84 19.90L20.80 19.86Q16.12 19.37 12.93 17.70L12.90 17.67L12.18 15.92L12.27 16.01Q12.07 15.50 11.46 14.28L11.44 14.26L11.54 14.36Q16.57 17.00 22.58 17.19L22.50 17.10L22.51 17.11Q28.39 17.29 33.84 15.23L33.86 15.25L33.78 15.17Q33.19 16.72 32.55 18.55L32.44 18.44L32.47 18.47Q28.94 19.85 24.68 20.04L24.62 19.98L24.61 19.98Q24.39 24.97 24.39 29.92L24.35 29.88L24.30 29.83Q24.37 34.85 24.67 39.83ZM34.57 14.59L34.53 14.55L34.43 14.46Q28.62 16.75 22.41 16.56L22.53 16.68L22.56 16.71Q15.85 16.47 10.75 13.50L10.62 13.37L10.75 13.50Q11.57 14.85 12.86 18.12L12.79 18.05L12.74 18.01Q13.34 18.26 14.60 18.83L14.70 18.93L14.64 18.87Q15.03 19.72 15.37 21.24L15.25 21.12L15.26 21.13Q17.60 22.02 20.64 22.25L20.59 22.20L20.52 22.13Q21.08 26.00 21.08 29.76L21.05 29.74L21.04 29.73Q20.99 35.05 20.19 40.42L20.10 40.32L20.29 40.52Q21.78 40.21 22.31 40.21L22.41 40.31L22.34 40.24Q22.45 40.66 22.39 41.32L22.36 41.29L22.39 41.32Q22.29 41.95 22.29 42.29L22.25 42.25L22.23 42.23Q23.41 42.15 24.93 42.23L24.94 42.23L24.92 42.21Q25.85 42.27 27.68 42.42L27.79 42.53L27.67 42.42Q26.46 37.51 26.34 32.33L26.40 32.39L26.47 32.46Q26.17 26.98 26.71 22.07L26.80 22.17L26.84 22.21Q30.76 21.63 33.92 20.41L34.00 20.49L33.96 20.46Q34.62 18.04 35.65 15.98L35.66 15.99L35.56 15.89Q34.19 16.53 33.39 16.84L33.39 16.84L33.50 16.95Q33.85 15.59 34.43 14.45Z"/><path fill="#444" d="M70.25 28.60L70.35 28.70L70.25 28.60Q67.41 28.57 66.64 30.82L66.74 30.91L66.59 30.77Q66.39 31.52 66.28 32.16L66.44 32.32L66.27 32.16Q68.87 32.35 70.51 32.35L70.48 32.33L70.50 32.35Q72.26 32.47 74.85 32.36L74.82 32.33L74.89 32.40Q74.71 30.62 73.30 29.56L73.34 29.59L73.40 29.65Q72.00 28.56 70.21 28.56ZM70.38 41.22L70.40 41.24L70.40 41.23Q66.19 41.25 64.90 39.84L64.80 39.75L64.91 39.86Q63.84 38.29 63.69 35.01L63.62 34.95L63.76 35.09Q63.78 34.88 63.70 33.51L63.65 33.46L63.60 33.40Q63.53 31.17 63.53 30.45L63.51 30.42L63.50 30.41Q63.41 28.46 64.14 27.36L64.14 27.36L64.27 27.49Q65.59 25.99 68.56 25.99L68.67 26.11L70.07 25.95L70.14 26.01Q72.22 26.04 73.74 26.34L73.70 26.29L73.69 26.29Q75.86 26.86 76.85 28.08L76.72 27.95L76.82 28.05Q77.45 29.14 77.53 31.23L77.43 31.13L77.53 31.23Q77.47 32.31 77.51 34.48L77.43 34.41L77.47 34.44Q74.70 34.57 71.92 34.57L71.83 34.48L66.28 34.53L66.18 34.42Q66.48 38.99 70.56 38.76L70.43 38.63L70.48 38.68Q74.36 38.61 75.58 36.78L75.57 36.77L75.46 36.66Q76.28 37.14 77.88 38.32L78.02 38.47L77.92 38.36Q76.64 40.85 72.49 41.12L72.40 41.02L72.47 41.10Q71.62 41.00 70.25 41.08ZM72.67 43.54L72.73 43.60L72.65 43.53Q73.80 43.53 75.02 43.61L75.05 43.64L75.03 43.62Q79.98 43.77 80.89 40.99L80.87 40.97L80.95 41.05Q79.31 39.79 78.21 39.03L78.25 39.07L78.19 39.01Q78.32 38.57 78.51 38.34L78.49 38.32L78.59 38.42Q77.67 37.77 76.30 36.82L76.37 36.89L76.38 36.89Q77.38 36.87 79.43 37.17L79.61 37.35L79.51 37.25Q79.27 35.83 79.20 35.14L79.31 35.26L79.09 33.25L79.19 33.35Q79.02 30.97 78.37 29.49L78.30 29.42L78.33 29.44Q78.07 29.10 77.49 28.49L77.50 28.50L77.42 28.42Q77.30 28.15 77.07 27.58L77.05 27.56L77.07 27.58Q75.28 25.63 70.21 25.63L70.10 25.52L68.51 25.61L68.42 25.51Q65.33 25.65 63.88 27.14L63.73 26.99L63.81 27.07Q63.15 28.20 63.19 30.26L63.17 30.23L63.16 30.23Q63.17 31.15 63.28 33.39L63.32 33.43L63.28 33.39Q63.37 35.00 63.48 37.06L63.59 37.17L63.51 37.09Q63.80 39.35 64.68 40.42L64.71 40.46L64.62 40.37Q64.84 40.58 65.03 40.70L65.02 40.69L65.30 41.31L65.25 41.26Q66.10 43.18 72.69 43.56ZM70.44 38.23L70.57 38.36L70.48 38.27Q69.44 38.49 68.53 38.03L68.46 37.96L68.48 37.98Q68.38 37.54 68.19 36.85L68.13 36.79L68.23 36.90Q69.87 36.74 71.47 36.74L71.44 36.72L71.54 36.82Q73.07 36.67 74.75 36.79L74.81 36.85L74.86 36.90Q73.60 38.26 70.59 38.38ZM72.23 31.04L72.13 30.93L72.14 30.94Q72.87 31.07 74.20 31.45L74.23 31.48L74.34 31.78L74.36 31.98L74.43 32.06Q73.07 32.18 72.15 32.14L71.99 31.98L72.14 32.12Q69.73 31.96 69.69 31.96L69.75 32.02L69.73 32.00Q70.53 31.13 72.21 31.01Z"/><path fill="#333" d="M120.50 29.27L120.52 29.29L120.46 29.23Q118.51 29.14 117.29 30.47L117.41 30.59L117.39 30.57Q116.16 31.89 116.01 33.80L115.97 33.75L115.93 33.72Q115.74 35.85 116.96 36.86L116.91 36.81L116.95 36.85Q118.15 37.84 120.28 37.76L120.44 37.92L120.37 37.85Q122.64 37.65 123.60 36.70L123.67 36.78L123.68 36.78Q124.66 35.29 124.54 33.46L124.59 33.50L124.47 33.39Q124.51 31.68 123.43 30.48L123.43 30.48L123.23 30.29Q122.26 29.20 120.43 29.20ZM120.39 19.76L120.39 19.76L120.32 19.68Q119.07 19.73 117.74 20.23L117.73 20.22L117.60 20.08Q116.29 20.87 116.52 22.73L116.59 22.81L116.54 22.76Q116.97 26.43 120.32 26.43L120.36 26.46L120.45 26.55Q122.01 26.74 123.00 25.60L122.91 25.51L123.06 25.66Q124.06 24.52 124.09 22.96L123.97 22.84L123.91 22.78Q124.04 21.08 123.32 20.47L123.36 20.51L123.25 20.41Q121.74 19.74 120.45 19.81ZM120.11 40.30L120.07 40.25L117.01 40.24L117.09 40.32Q115.46 40.21 114.13 39.34L114.18 39.39L114.31 39.52Q112.94 38.38 113.09 35.53L112.98 35.41L113.08 35.51Q113.50 28.63 117.12 27.64L117.03 27.55L117.15 27.67Q114.84 26.73 113.51 21.36L113.46 21.31L113.39 21.25Q113.03 19.81 113.10 19.01L113.24 19.15L113.20 19.11Q113.40 16.87 117.09 16.84L117.25 16.99L117.21 16.95Q121.41 16.85 122.86 17.04L122.77 16.96L122.84 17.03Q126.61 17.48 127.07 19.50L127.17 19.60L127.23 19.66Q127.19 20.12 127.19 20.50L127.34 20.65L127.33 20.64Q127.23 21.22 127.04 21.83L127.03 21.83L127.02 21.82Q126.50 26.13 123.57 27.66L123.57 27.65L123.53 27.62Q127.13 28.51 127.62 33.80L127.59 33.77L127.45 33.62Q127.44 33.77 127.48 35.06L127.50 35.08L127.49 35.08Q127.70 37.95 126.10 39.01L126.13 39.04L126.05 38.97Q124.64 39.80 120.07 40.26ZM122.38 42.61L122.45 42.67L125.80 42.75L125.70 42.66Q127.43 42.74 128.95 42.02L129.03 42.10L129.02 42.09Q130.07 41.28 130.15 39.41L130.22 39.48L130.14 39.40Q130.22 38.34 129.84 36.40L129.87 36.43L129.89 36.45Q128.88 31.70 126.78 29.84L126.89 29.95L126.71 29.58L126.49 29.28L126.29 28.96L126.38 29.06Q127.96 27.63 128.87 23.48L128.91 23.51L128.78 23.38Q128.83 23.06 128.91 22.22L128.89 22.20L128.90 22.21Q129.12 21.67 129.04 21.06L128.97 20.99L128.86 20.88Q128.84 19.56 127.66 19.06L127.56 18.96L127.63 19.00L127.45 18.90L127.48 18.92Q127.24 18.22 126.06 17.43L126.02 17.39L126.06 17.39L126.09 17.42Q123.98 16.61 119.91 16.42L120.06 16.57L120.05 16.56Q118.39 16.34 117.02 16.46L117.04 16.48L117.14 16.58Q116.26 16.54 114.96 16.69L114.97 16.69L115.02 16.74Q112.97 17.02 112.75 18.66L112.84 18.76L112.84 18.75Q112.77 19.21 112.81 20.01L112.74 19.94L112.90 20.11Q112.88 20.51 113.46 22.87L113.41 22.82L113.50 22.92Q114.36 26.21 116.11 27.54L115.98 27.42L116.14 27.57L116.21 27.64Q113.32 28.82 112.79 34.00L112.83 34.04L112.73 33.95Q112.65 36.26 112.65 37.17L112.54 37.07L112.65 37.18Q112.75 38.99 113.93 39.90L113.93 39.91L113.90 39.87Q113.96 39.89 114.22 40.08L114.16 40.02L114.18 40.04Q115.29 42.40 122.41 42.63ZM121.99 31.48L122.10 31.59L122.10 31.59Q123.01 31.51 123.88 31.96L123.90 31.98L123.93 32.01Q124.32 33.01 124.29 33.55L124.27 33.53L124.23 33.49Q124.27 33.80 124.27 34.11L124.15 33.98L124.26 34.09Q124.17 36.36 121.89 37.20L121.93 37.24L121.92 37.24Q121.06 37.48 120.26 37.37L120.28 37.38L120.38 37.49Q119.19 37.51 118.04 37.05L118.11 37.12L118.03 37.03Q117.88 36.51 117.96 35.52L117.94 35.50L117.86 35.42Q118.00 33.81 119.20 32.59L119.26 32.65L119.23 32.62Q120.37 31.34 121.97 31.46ZM122.19 21.98L122.24 22.02L122.31 22.09Q123.12 21.99 123.65 22.14L123.69 22.18L123.53 22.82L123.62 22.91Q123.71 24.41 122.80 25.42L122.63 25.25L122.73 25.35Q121.70 26.24 120.33 26.05L120.42 26.14L120.45 26.17Q119.35 26.06 118.93 25.84L119.07 25.97L119.11 26.01Q119.07 25.75 118.96 25.06L118.95 25.05L118.94 25.04Q118.67 23.63 119.89 22.79L119.78 22.69L119.88 22.78Q120.81 21.97 122.22 22.00Z"/><path fill="#222" d="M98.82 39.75L98.96 39.90L96.95 39.82L97.01 39.88Q96.10 39.92 95.15 40.04L95.12 40.01L94.99 39.88Q95.66 33.78 95.66 29.78L95.74 29.86L95.65 29.77Q91.62 23.03 83.96 14.35L84.05 14.44L83.97 14.35Q85.82 15.41 89.17 16.21L89.25 16.28L89.14 16.18Q94.30 21.87 97.30 27.08L97.29 27.07L97.31 27.09Q100.24 21.45 104.62 16.43L104.53 16.34L104.64 16.45Q107.12 16.12 109.63 15.32L109.58 15.26L109.46 15.14Q103.47 21.29 98.60 29.71L98.58 29.70L98.55 29.66Q98.67 36.82 98.97 39.90ZM108.08 17.34L110.79 14.49L110.63 14.33Q107.65 15.61 104.52 16.07L104.53 16.08L104.41 15.96Q100.21 20.70 97.39 25.80L97.49 25.90L97.40 25.81Q95.26 22.15 92.06 18.26L92.16 18.36L92.05 18.25Q91.96 18.43 91.47 18.35L91.40 18.29L91.34 18.22Q90.65 17.42 89.13 15.74L89.16 15.78L89.09 15.71Q85.79 15.04 82.82 13.47L82.76 13.41L82.81 13.46Q90.47 21.88 95.23 29.80L95.36 29.94L95.29 29.87Q95.16 36.17 94.56 40.32L94.62 40.38L94.56 40.33Q95.25 40.25 96.69 40.14L96.85 40.29L96.81 41.28L96.80 41.27Q96.70 41.63 96.62 42.16L96.67 42.21L96.79 42.33Q100.24 42.24 101.99 42.43L102.01 42.45L101.92 42.36Q100.67 37.68 100.55 31.70L100.55 31.70L100.62 31.77Q105.09 23.41 111.64 16.07L111.53 15.95L108.07 17.33Z"/><path fill="#222" d="M52.18 40.94L52.11 40.88L52.26 41.02Q50.82 39.20 49.52 36.12L49.56 36.16L47.55 31.13L47.49 31.07Q45.85 35.03 45.24 36.32L45.22 36.31L45.34 36.43Q43.78 39.24 42.18 41.15L42.23 41.20L42.31 41.27Q41.89 41.24 41.13 41.35L41.10 41.32L41.06 41.28Q41.07 33.87 35.24 27.93L35.15 27.83L35.31 28.00Q33.57 26.17 31.55 24.69L31.58 24.72L31.39 24.53Q33.28 25.13 35.15 25.43L35.25 25.54L35.25 25.54Q41.31 30.49 42.75 36.73L42.70 36.68L42.71 36.69Q43.67 34.91 44.85 31.71L44.76 31.62L44.75 31.61Q46.07 27.82 46.64 26.53L46.78 26.68L48.02 26.51L48.21 26.69Q49.06 28.38 50.24 31.65L50.11 31.52L50.13 31.54Q51.53 35.27 52.18 36.68L52.03 36.53L52.07 36.57Q53.95 30.34 59.43 25.77L59.34 25.68L59.37 25.71Q60.74 25.78 63.48 25.21L63.44 25.18L63.28 25.01Q54.74 31.13 53.56 41.10L53.57 41.12L52.89 40.96L52.78 40.86Q52.47 40.86 52.13 40.89ZM55.26 43.49L57.29 43.65L57.25 43.61Q56.89 42.04 56.89 40.51L56.96 40.58L56.85 40.48Q56.82 37.20 58.23 33.97L58.22 33.96L58.34 34.08Q60.25 29.48 64.36 26.40L64.48 26.51L64.31 26.35Q63.18 26.70 61.31 27.04L61.35 27.08L61.41 27.14Q63.34 25.45 64.63 24.54L64.65 24.55L62.06 24.94L62.05 24.93Q60.93 25.25 59.59 25.40L59.45 25.26L59.45 25.25Q54.37 29.58 52.43 34.61L52.44 34.62L52.43 34.60Q51.68 32.34 50.31 28.07L50.31 28.07L50.36 28.12Q50.13 28.23 49.86 28.23L49.88 28.25L49.34 28.24L49.35 28.25Q49.21 27.93 48.41 26.18L48.45 26.21L46.36 26.18L46.25 26.06Q45.45 29.04 43.36 34.67L43.24 34.55L43.21 34.53Q41.91 30.86 38.82 27.59L38.91 27.68L38.87 27.63Q38.50 27.53 38.20 27.49L38.28 27.58L37.67 27.43L37.80 27.55Q36.92 26.71 35.13 25.11L35.01 24.99L35.19 25.17Q32.00 24.49 30.33 24.00L30.30 23.97L30.29 23.96Q41.07 31.47 40.69 41.78L40.53 41.63L40.59 41.68Q40.81 41.72 41.17 41.68L41.24 41.74L41.25 41.76Q41.52 41.62 41.71 41.62L41.65 41.57L41.79 41.70Q41.65 41.41 41.84 43.50L41.82 43.49L43.83 43.40L43.82 43.40Q46.35 40.52 48.59 34.77L48.73 34.91L48.75 34.92Q50.08 38.61 51.95 41.28L52.01 41.35L52.05 41.38Q52.29 41.28 52.55 41.30L52.53 41.27L52.52 41.26Q52.80 41.30 53.07 41.30L53.14 41.37L55.25 43.48Z"/></svg>