<svg xmlns="http://www.w3.org/2000/svg" width="150" height="50" viewBox="0,0,150,50"><path fill="#222" d="M43.15 40.36L43.11 40.33L43.09 40.30Q41.73 40.43 40.17 40.01L40.09 39.93L40.10 39.95Q38.87 39.02 38.72 37.38L38.70 37.36L38.77 37.43Q38.75 37.26 38.94 34.63L38.89 34.58L38.91 34.60Q40.06 34.53 42.08 34.15L42.00 34.08L41.76 34.79L41.83 34.85Q41.54 36.59 42.95 37.16L43.02 37.23L42.92 37.13Q43.75 37.50 45.84 37.50L45.75 37.40L45.88 37.54Q47.44 37.35 47.63 37.27L47.67 37.31L47.64 37.27Q48.60 37.17 49.32 36.67L49.32 36.68L49.19 36.54Q50.76 35.75 50.57 33.66L50.54 33.63L50.55 33.64Q50.21 31.05 48.47 29.49L48.60 29.61L48.63 29.64Q46.92 28.10 44.44 28.10L44.30 27.96L44.39 27.82L44.44 27.87Q44.68 27.69 45.55 27.62L45.53 27.59L45.61 27.67Q47.52 27.56 48.89 26.33L48.80 26.24L48.96 26.39Q50.21 25.04 50.36 23.18L50.44 23.25L50.46 23.27Q50.50 22.90 50.50 22.55L50.45 22.50L50.57 22.62Q50.57 21.09 49.20 20.18L49.07 20.06L49.02 20.00Q47.85 19.26 46.25 19.37L46.31 19.43L46.19 19.31Q44.91 19.17 43.69 19.59L43.68 19.57L43.79 19.69Q42.38 20.26 42.08 21.40L41.96 21.28L41.95 21.27Q41.92 22.19 41.99 22.95L41.95 22.91L41.84 22.80Q40.94 22.70 38.89 21.98L38.79 21.88L38.80 21.89Q38.62 20.27 38.66 19.43L38.72 19.49L38.63 19.39Q38.68 17.82 39.75 17.13L39.82 17.20L39.92 17.30Q41.25 16.62 42.85 16.62L42.75 16.51L42.84 16.61Q46.06 16.63 49.22 16.90L49.16 16.83L49.05 16.72Q54.21 17.24 53.91 21.01L53.96 21.06L53.91 21.01Q53.86 22.52 53.36 24.08L53.39 24.11L53.31 24.03Q52.41 27.12 50.05 28.04L50.04 28.03L50.07 28.06Q52.76 28.65 53.37 32.00L53.20 31.83L53.22 31.86Q53.56 33.11 53.64 35.13L53.66 35.15L53.64 35.13Q53.67 39.47 49.07 39.92L49.11 39.97L49.23 40.08Q48.38 40.03 43.08 40.30ZM48.44 42.68L48.43 42.68L48.39 42.64Q48.96 42.63 51.81 42.71L51.73 42.62L51.79 42.69Q53.58 42.80 55.22 42.15L55.16 42.09L55.17 42.10Q56.35 41.15 56.16 39.40L56.22 39.46L56.11 39.35Q56.06 38.08 55.75 36.33L55.81 36.38L55.74 36.31Q55.05 31.86 53.11 30.23L53.14 30.26L52.82 29.74L52.81 29.70L52.82 29.70Q54.54 28.23 55.30 23.85L55.29 23.84L55.37 23.92Q55.52 23.57 55.63 22.62L55.53 22.52L55.58 22.56Q55.69 21.84 55.61 21.15L55.61 21.15L55.53 21.07Q55.47 19.49 54.17 18.80L54.00 18.63L54.09 18.79L54.10 18.80Q53.71 17.73 52.57 17.20L52.53 17.15L52.63 17.26Q51.09 16.55 45.95 16.25L45.93 16.22L45.84 16.14Q44.27 16.17 42.67 16.17L42.56 16.05L42.70 16.19Q40.99 16.08 39.46 16.73L39.51 16.78L39.44 16.71Q38.21 17.45 38.21 19.20L38.22 19.22L38.35 19.35Q38.32 18.90 38.59 22.25L38.55 22.21L38.50 22.16Q38.81 22.24 40.45 22.85L40.49 22.90L40.55 22.95Q40.60 23.53 40.56 24.03L40.44 23.91L40.43 23.90Q40.49 24.45 40.52 24.99L40.52 24.98L40.45 24.91Q42.24 25.29 44.26 25.41L44.39 25.54L44.29 25.44Q44.31 23.52 45.41 22.68L45.41 22.68L45.36 22.62Q46.18 21.96 48.20 21.73L48.15 21.68L48.16 21.70Q49.30 21.70 49.87 21.89L49.95 21.96L49.99 22.00Q49.91 22.00 49.95 22.11L50.01 22.18L50.03 22.38L50.11 22.92L50.19 23.00Q50.11 23.11 50.07 23.27L50.05 23.25L50.09 23.29Q49.93 24.91 48.41 26.09L48.51 26.20L48.38 26.07Q47.64 27.15 45.62 27.34L45.46 27.17L45.46 27.18Q44.81 27.41 43.94 27.41L43.83 27.30L44.02 27.49Q43.90 27.68 44.05 28.36L44.03 28.34L44.16 28.47Q45.81 28.37 47.26 29.09L47.36 29.19L47.27 29.21L45.60 29.30L45.59 29.29Q45.61 29.61 45.72 30.22L45.86 30.36L45.73 30.23Q47.85 30.14 49.56 31.47L49.61 31.52L49.58 31.49Q49.77 31.83 50.08 33.47L50.25 33.65L50.10 33.50Q50.29 36.43 47.36 36.84L47.50 36.98L47.47 36.96Q45.26 37.11 44.69 37.07L44.84 37.22L44.69 37.07Q44.30 37.03 43.77 36.95L43.86 37.04L43.76 36.48L43.91 36.06L44.02 35.76L43.87 35.26L43.95 35.34Q43.02 35.44 42.22 35.63L42.27 35.67L42.14 35.55Q42.15 35.37 42.15 35.18L42.11 35.14L42.18 35.21Q42.23 35.03 42.23 34.80L42.26 34.83L42.24 34.81Q42.23 34.34 42.38 33.62L42.37 33.61L42.34 33.58Q40.54 33.87 38.67 34.21L38.59 34.13L38.60 34.14Q38.69 34.72 38.57 35.84L38.48 35.75L38.59 35.86Q38.41 36.92 38.41 37.53L38.48 37.59L38.40 37.52Q38.52 39.61 39.89 40.37L39.99 40.47L39.90 40.38Q41.37 42.65 46.09 42.46L46.17 42.54L46.13 42.51Q46.89 42.51 48.42 42.66Z"/><path fill="#444" d="M18.94 19.29L19.06 19.41L19.04 19.39Q19.87 23.61 20.03 27.19L20.04 27.21L19.99 27.16Q21.11 27.25 22.18 27.25L22.16 27.23L24.37 27.24L24.29 27.16Q25.48 27.28 26.35 25.87L26.24 25.75L26.36 25.88Q27.07 24.68 27.18 23.50L27.21 23.52L27.11 23.43Q27.51 20.44 23.29 19.95L23.33 19.99L23.24 19.90Q21.54 19.84 18.92 19.27ZM20.03 29.94L20.10 30.01L19.97 29.88Q20.05 36.24 18.91 40.66L18.73 40.48L18.87 40.62Q17.29 40.90 14.96 41.97L14.99 41.99L14.97 41.97Q17.45 35.43 17.19 28.16L17.05 28.03L17.16 28.13Q16.83 20.72 14.05 14.29L13.97 14.21L13.97 14.21Q18.15 17.02 24.40 17.02L24.37 17.00L24.49 17.12Q30.60 17.17 30.75 20.63L30.59 20.48L30.66 20.55Q30.77 23.01 29.78 25.68L29.78 25.68L29.84 25.74Q29.38 26.80 28.43 28.02L28.32 27.91L28.48 28.07Q27.02 29.54 24.47 29.80L24.54 29.88L24.59 29.93Q22.19 29.82 19.95 29.86ZM26.16 32.18L26.18 32.21L26.12 32.15Q30.27 32.37 31.52 27.57L31.53 27.58L31.59 27.64Q32.44 23.89 32.29 21.87L32.34 21.92L32.28 21.86Q32.24 20.41 31.48 19.42L31.52 19.46L31.40 19.34Q31.11 19.05 30.61 18.82L30.71 18.92L30.65 18.86Q30.66 18.72 30.05 17.95L30.04 17.94L29.97 17.87Q28.51 16.65 24.56 16.65L24.54 16.63L24.63 16.72Q17.55 16.53 13.32 13.37L13.49 13.54L13.50 13.55Q16.66 20.62 16.92 28.09L16.83 27.99L16.80 27.97Q17.07 35.62 14.41 42.70L14.45 42.75L14.55 42.85Q15.47 42.05 16.46 41.67L16.54 41.75L16.25 42.99L16.24 42.97Q16.03 43.53 15.76 44.10L15.77 44.10L15.77 44.10Q18.16 43.03 21.06 42.50L21.10 42.55L21.04 42.48Q21.89 36.98 21.97 32.26L21.96 32.25L22.04 32.33Q23.10 32.21 24.09 32.21L24.13 32.25L24.11 32.23Q25.36 32.15 26.16 32.18ZM25.26 22.30L25.21 22.25L25.18 22.22Q25.73 22.28 26.72 22.51L26.73 22.51L26.75 22.53Q26.91 22.81 26.95 23.11L26.83 22.99L26.83 22.99Q26.85 23.25 26.78 23.51L26.75 23.48L26.78 23.51Q26.71 24.78 25.99 25.65L25.96 25.62L26.03 25.70Q25.48 26.79 24.46 26.98L24.43 26.95L24.39 26.92Q23.63 26.87 21.99 26.87L21.96 26.85L21.92 26.80Q21.93 24.57 21.70 22.21L21.74 22.24L23.49 22.32L23.48 22.31Q24.27 22.26 25.14 22.18Z"/><path fill="#333" d="M120.09 40.17L120.19 40.26L120.23 40.30Q116.68 40.33 115.04 39.79L115.12 39.87L114.97 39.73Q112.98 39.07 112.68 35.68L112.68 35.69L114.12 34.61L114.25 34.74Q114.85 34.09 115.61 33.59L115.70 33.68L115.66 33.64Q115.35 35.50 116.95 36.72L117.05 36.82L116.97 36.74Q118.25 37.75 120.38 37.56L120.53 37.71L120.45 37.63Q124.75 37.13 124.56 33.59L124.56 33.59L124.63 33.66Q124.53 31.46 121.90 30.25L121.87 30.21L121.86 30.21Q118.96 29.10 116.60 27.88L116.57 27.85L116.65 27.93Q114.07 26.56 113.08 21.88L113.04 21.84L113.02 21.83Q113.05 21.51 112.93 20.75L112.96 20.78L112.84 20.65Q112.80 19.93 112.88 19.36L112.91 19.39L112.93 19.41Q113.05 17.78 114.30 17.32L114.26 17.28L114.34 17.36Q116.59 16.34 120.59 16.53L120.70 16.64L120.63 16.57Q122.46 16.68 123.26 16.76L123.25 16.75L123.29 16.79Q124.86 17.06 125.92 17.52L125.81 17.41L125.90 17.49Q128.04 18.00 128.27 20.48L128.27 20.48L128.10 20.31Q127.09 21.04 124.88 22.38L124.94 22.43L125.03 22.53Q124.62 19.53 120.24 19.53L120.15 19.44L120.18 19.47Q118.34 19.53 117.35 20.22L117.34 20.21L117.31 20.17Q116.02 20.56 116.25 22.35L116.34 22.44L116.40 22.50Q116.52 24.57 119.49 26.09L119.48 26.08L119.54 26.14Q120.10 26.39 124.59 28.02L124.62 28.06L124.64 28.08Q127.18 29.47 127.60 33.85L127.64 33.89L127.54 33.79Q127.59 33.99 127.66 35.25L127.60 35.19L127.76 35.34Q127.79 38.08 126.23 39.19L126.22 39.17L126.21 39.16Q124.41 40.18 120.23 40.30ZM122.43 42.58L122.44 42.59L122.43 42.58Q124.00 42.78 125.98 42.78L125.84 42.64L125.81 42.61Q128.10 42.80 129.35 42.38L129.35 42.38L129.34 42.37Q130.44 41.41 130.36 39.63L130.46 39.72L130.46 39.72Q130.28 38.59 129.90 36.53L129.99 36.63L129.95 36.59Q129.16 32.02 127.06 30.16L126.93 30.02L126.87 29.97Q126.21 28.50 124.88 27.78L124.86 27.76L119.45 25.59L119.56 25.70Q119.17 25.46 118.71 25.23L118.86 25.38L118.65 24.91L118.62 24.54L118.69 24.61Q118.45 23.11 119.59 22.50L119.64 22.55L119.67 22.57Q120.33 21.90 122.04 21.71L122.06 21.73L122.10 21.76Q123.30 21.71 124.44 22.17L124.40 22.12L124.33 22.06Q124.49 22.26 124.68 23.10L124.62 23.04L124.61 23.02Q124.90 22.97 125.39 22.74L125.28 22.63L125.27 22.62Q126.02 23.56 126.14 24.70L126.18 24.75L126.25 24.81Q126.28 24.73 129.94 22.14L129.89 22.09L129.98 22.19Q129.66 19.50 128.21 18.82L128.20 18.81L128.19 18.79Q127.64 17.57 126.20 17.03L126.26 17.10L126.17 17.01Q123.97 16.29 120.77 16.29L120.67 16.19L120.74 16.26Q115.73 16.15 113.86 16.84L113.88 16.86L113.90 16.88Q112.50 17.27 112.39 18.95L112.52 19.07L112.53 19.09Q112.43 19.56 112.85 21.77L112.94 21.86L112.90 21.82Q113.53 25.53 115.70 27.78L115.60 27.68L115.75 27.83Q116.44 29.43 117.95 30.12L117.97 30.14L118.08 30.26Q119.41 30.76 123.33 32.33L123.34 32.34L123.42 32.45L123.99 32.72L124.15 32.92L124.13 32.89Q124.19 33.22 124.23 33.57L124.23 33.57L124.37 33.70Q124.38 37.11 120.46 37.26L120.46 37.26L120.38 37.18Q119.28 37.26 117.99 36.88L118.02 36.92L117.89 36.78Q117.73 36.13 117.73 35.40L117.76 35.43L117.59 35.27Q117.63 35.04 117.67 34.77L117.73 34.84L117.80 34.90Q117.34 35.09 116.54 35.59L116.59 35.64L116.56 35.60Q116.01 34.45 116.16 33.08L116.07 32.98L116.21 33.12Q114.05 34.23 112.45 35.64L112.53 35.72L112.52 35.72Q112.59 36.54 112.66 37.57L112.64 37.55L112.65 37.56Q112.93 39.24 114.22 40.00L114.16 39.95L114.25 40.04Q115.42 41.82 117.97 42.20L117.99 42.21L117.92 42.15Q119.58 42.47 122.52 42.66Z"/><path fill="#222" d="M77.78 28.76L77.63 28.61L71.80 28.76L71.84 28.80Q68.86 28.78 65.93 28.71L65.92 28.70L66.02 28.81Q66.03 35.40 63.97 40.92L63.99 40.93L63.99 40.94Q62.19 41.46 60.44 42.15L60.37 42.08L60.37 42.07Q63.18 36.39 63.18 29.73L63.18 29.73L63.15 29.70Q63.18 21.24 59.07 14.20L59.03 14.16L59.16 14.30Q60.57 14.97 63.04 15.77L63.13 15.87L63.01 15.74Q65.24 20.91 65.78 25.78L65.82 25.83L65.73 25.73Q68.97 26.20 71.83 26.16L71.88 26.21L71.88 26.21Q74.55 26.21 77.86 25.95L77.85 25.94L77.75 25.84Q78.18 21.40 79.93 16.30L80.00 16.36L80.04 16.40Q81.96 15.97 84.21 15.13L84.28 15.20L84.16 15.08Q80.53 21.80 80.53 29.76L80.65 29.88L80.65 29.88Q80.59 36.02 82.95 41.35L82.94 41.35L83.02 41.43Q81.26 40.65 79.20 40.35L79.28 40.42L79.24 40.39Q77.52 35.32 77.63 28.61ZM78.97 40.72L79.00 40.76L79.05 40.80Q79.98 40.86 81.09 41.13L81.12 41.16L81.23 41.28Q81.41 41.83 82.06 43.32L82.11 43.37L82.04 43.30Q85.40 44.26 87.19 45.18L87.17 45.16L87.33 45.31Q82.91 39.18 82.60 30.92L82.55 30.86L82.47 30.79Q82.24 22.83 85.89 16.01L85.91 16.03L84.81 16.45L84.84 16.49Q84.29 16.66 83.68 16.81L83.70 16.83L83.63 16.75Q84.16 16.07 85.00 14.51L85.02 14.53L85.03 14.54Q82.32 15.52 79.69 16.01L79.67 16.00L79.57 15.90Q78.00 20.83 77.54 25.51L77.54 25.51L77.48 25.46Q74.97 25.64 72.53 25.64L72.54 25.65L72.53 25.64Q70.12 25.63 67.61 25.48L67.76 25.63L67.75 25.62Q67.51 22.34 66.41 18.27L66.39 18.25L66.31 18.17Q65.63 18.06 64.18 17.68L64.19 17.68L64.23 17.73Q63.82 16.48 63.36 15.45L63.40 15.49L63.34 15.42Q60.74 14.80 58.45 13.55L58.39 13.49L58.41 13.50Q62.98 20.93 62.98 29.73L62.98 29.72L62.91 29.65Q62.88 36.59 59.76 42.71L59.81 42.77L59.82 42.78Q60.56 42.53 61.89 41.96L61.78 41.85L61.79 41.86Q61.56 42.80 60.76 44.33L60.80 44.37L60.75 44.32Q63.52 43.28 65.77 42.86L65.86 42.96L65.78 42.88Q67.67 37.34 67.86 31.17L67.85 31.16L67.76 31.08Q69.38 31.02 72.58 30.99L72.70 31.11L72.57 30.97Q75.56 31.07 77.46 31.15L77.44 31.12L77.50 31.18Q77.66 36.82 78.99 40.74Z"/><path fill="#222" d="M106.37 23.04L106.40 23.06L106.37 23.03Q104.50 25.69 101.84 31.33L101.84 31.34L99.96 35.70L99.97 35.70Q99.03 37.55 97.70 39.79L97.79 39.88L97.70 39.79Q98.11 39.75 96.43 39.79L96.55 39.90L96.40 39.75Q96.49 39.84 95.23 39.84L95.25 39.86L95.15 39.76Q94.54 38.38 91.60 31.22L91.62 31.24L91.49 31.11Q89.35 25.77 87.25 22.76L87.37 22.87L87.27 22.78Q88.10 25.93 88.10 29.09L88.13 29.12L88.12 29.11Q88.16 35.66 85.19 41.22L85.08 41.10L85.08 41.11Q83.86 41.56 81.50 42.29L81.33 42.11L81.46 42.25Q85.21 36.63 85.21 29.39L85.21 29.40L85.18 29.36Q85.12 20.37 79.72 13.40L79.65 13.33L79.61 13.29Q81.29 14.06 83.65 14.74L83.67 14.76L83.78 14.87Q90.78 21.57 96.87 34.89L96.86 34.88L96.91 34.93Q100.31 27.83 102.52 24.32L102.49 24.29L102.53 24.33Q106.16 18.60 110.12 15.13L110.05 15.06L110.06 15.08Q111.37 14.90 113.73 14.14L113.61 14.01L113.62 14.03Q108.80 20.81 108.80 29.42L108.73 29.35L108.72 29.34Q108.67 35.96 112.10 41.48L112.20 41.58L112.09 41.47Q110.76 41.17 108.02 40.56L108.12 40.66L108.14 40.68Q105.67 35.78 105.67 29.80L105.69 29.82L105.73 29.86Q105.74 26.43 106.42 23.08ZM107.93 41.04L107.96 41.07L107.97 41.08Q108.47 41.01 109.91 41.27L110.11 41.47L110.06 41.42Q110.48 42.14 111.43 43.63L111.41 43.61L111.41 43.60Q113.50 43.98 116.96 45.20L117.05 45.29L117.02 45.26Q110.66 38.82 110.66 29.00L110.65 28.99L110.82 29.16Q110.65 21.26 115.03 15.13L115.09 15.19L113.01 16.01L113.02 16.02Q113.89 14.34 114.54 13.46L114.50 13.42L114.53 13.46Q112.79 14.23 110.16 14.76L110.18 14.77L110.11 14.70Q103.24 20.70 97.19 33.31L97.26 33.38L97.30 33.42Q92.16 22.49 87.21 17.23L87.14 17.17L87.22 17.25Q86.84 17.17 86.26 17.05L86.10 16.89L85.04 15.75L84.89 15.60Q84.42 15.06 83.74 14.45L83.77 14.48L83.79 14.50Q80.58 13.34 78.79 12.62L78.93 12.76L78.92 12.75Q84.91 19.96 84.91 29.36L84.83 29.28L84.89 29.35Q84.87 36.94 80.72 42.80L80.72 42.80L80.80 42.88Q81.43 42.60 82.72 42.18L82.63 42.08L82.77 42.22Q82.51 42.34 81.10 44.44L81.19 44.53L81.24 44.58Q82.90 43.95 86.40 43.19L86.51 43.30L86.38 43.17Q90.14 36.16 89.95 28.39L89.99 28.43L89.98 28.42Q91.57 32.48 95.04 40.37L95.04 40.37L95.00 40.33Q95.24 40.26 95.47 40.26L95.41 40.20L95.95 40.21L95.95 40.21Q96.38 40.88 97.18 42.17L97.27 42.26L97.19 42.17Q98.87 42.22 98.87 42.22L98.94 42.29L98.88 42.23Q99.80 42.13 100.45 42.20L100.43 42.18L100.47 42.23Q101.99 38.15 105.34 30.15L105.43 30.24L105.45 30.26Q105.39 35.76 107.98 41.08Z"/></svg>