<svg xmlns="http://www.w3.org/2000/svg" width="150" height="50" viewBox="0,0,150,50"><path fill="#444" d="M48.30 27.64L48.50 27.84L48.41 27.75Q44.77 27.54 43.67 30.89L43.77 30.99L43.66 30.88Q43.44 32.11 43.32 33.17L43.27 33.12L43.33 33.18Q43.10 35.19 44.09 36.53L44.09 36.53L43.99 36.43Q45.43 37.72 47.91 37.75L47.88 37.73L47.88 37.73Q49.79 37.84 51.19 36.70L51.17 36.68L51.09 36.60Q52.57 35.53 52.57 33.74L52.51 33.68L52.47 33.64Q52.44 33.26 52.36 32.88L52.45 32.97L52.46 32.98Q52.13 27.74 48.32 27.66ZM48.34 40.24L48.34 40.24L48.34 40.24Q44.47 40.41 42.68 38.39L42.70 38.41L42.61 38.32Q42.38 39.35 41.92 40.72L41.93 40.72L42.06 40.86Q39.93 41.43 38.68 42.00L38.80 42.12L38.87 42.19Q40.94 36.12 40.94 29.61L41.02 29.69L40.96 29.62Q41.07 21.44 37.64 13.59L37.61 13.56L37.45 13.41Q39.79 14.75 41.12 15.21L41.24 15.33L41.14 15.23Q43.39 22.01 43.54 27.83L43.46 27.75L43.48 27.77Q44.95 25.13 48.68 25.17L48.70 25.18L48.59 25.07Q51.92 25.21 53.41 27.07L53.48 27.14L53.33 27.00Q55.09 29.21 55.24 32.79L55.38 32.93L55.33 32.88Q55.42 34.08 55.35 35.68L55.38 35.71L55.28 35.61Q55.27 37.08 54.39 38.22L54.41 38.24L54.49 38.32Q52.61 39.91 48.27 40.17ZM53.67 42.60L53.72 42.65L53.71 42.64Q55.23 42.68 56.71 41.99L56.70 41.98L56.79 42.06Q57.92 40.80 57.96 38.86L58.01 38.91L57.89 38.79Q58.01 38.42 57.86 37.24L57.76 37.14L57.82 37.20Q57.62 36.39 57.51 35.48L57.66 35.63L57.53 35.50Q56.67 30.68 55.11 28.62L55.20 28.72L55.24 28.75Q55.20 28.67 54.40 27.80L54.45 27.85L54.29 27.69Q54.11 27.47 53.58 26.67L53.54 26.64L53.57 26.66Q52.09 24.85 48.74 24.89L48.73 24.87L48.60 24.74Q46.70 24.94 45.45 25.55L45.40 25.50L45.33 25.43Q45.05 20.97 44.44 17.77L44.49 17.81L44.46 17.78Q43.72 17.62 42.24 17.24L42.28 17.28L42.23 17.23Q42.03 16.42 41.57 14.98L41.59 14.99L41.62 15.02Q39.11 14.15 36.87 12.59L36.84 12.57L36.92 12.64Q40.60 20.74 40.60 29.54L40.68 29.62L40.68 29.62Q40.77 36.67 38.29 42.87L38.25 42.83L38.29 42.87Q38.96 42.51 40.29 41.94L40.27 41.92L40.12 41.77Q40.06 42.70 39.45 44.22L39.29 44.06L39.44 44.21Q41.41 43.29 44.19 42.75L44.19 42.76L44.50 40.86L44.49 40.85Q46.83 42.58 53.76 42.69ZM49.92 29.95L50.08 30.10L49.98 30.01Q51.06 30.05 51.59 30.44L51.52 30.37L51.64 30.48Q51.86 30.90 52.09 32.92L52.16 32.98L52.15 32.97Q52.39 34.89 51.13 36.20L51.09 36.16L51.15 36.22Q49.89 37.53 47.95 37.42L47.78 37.25L47.86 37.33Q46.99 37.52 45.50 37.03L45.57 37.09L45.46 36.98Q45.14 36.40 45.14 35.87L45.26 35.99L45.34 36.06Q45.33 32.97 46.89 31.37L46.72 31.20L46.74 31.26L46.78 31.29Q48.30 30.00 50.05 30.08Z"/><path fill="#333" d="M20.87 28.90L20.89 28.91L20.84 28.86Q18.33 28.90 17.30 30.08L17.33 30.11L17.29 30.08Q16.19 31.18 16.19 33.81L16.24 33.86L16.34 33.95Q16.38 39.10 20.98 38.90L20.82 38.75L20.95 38.87Q23.05 39.07 24.40 37.51L24.39 37.49L24.30 37.41Q25.66 35.85 25.43 33.80L25.46 33.83L25.49 33.85Q25.48 31.30 24.61 30.27L24.54 30.21L24.69 30.35Q23.15 28.96 20.94 28.96ZM25.92 38.71L25.86 38.64L26.00 38.79Q24.84 41.28 20.16 41.28L20.02 41.14L18.67 41.23L18.71 41.28Q16.31 41.24 15.21 40.09L15.12 40.01L15.08 39.97Q14.08 38.97 13.82 36.57L13.82 36.58L13.87 36.63Q13.78 35.20 13.70 33.41L13.59 33.30L13.67 33.38Q13.58 32.33 13.42 30.39L13.41 30.38L13.50 30.47Q13.38 26.16 18.56 26.16L18.58 26.18L20.08 26.12L20.12 26.17Q22.98 26.13 25.07 27.42L25.04 27.39L24.98 27.33Q25.84 27.89 26.34 28.57L26.34 28.58L26.36 28.60Q26.56 27.74 27.10 26.10L27.13 26.13L27.08 26.08Q28.39 25.98 30.71 25.37L30.78 25.44L30.63 25.29Q28.15 29.63 28.15 34.88L28.04 34.77L28.00 34.73Q28.02 38.48 29.39 41.57L29.40 41.57L29.47 41.64Q28.41 41.42 26.51 41.20L26.43 41.12L26.35 41.04Q26.24 40.28 25.94 38.72ZM29.33 44.02L29.18 43.87L31.48 44.53L31.40 44.45Q32.70 44.84 33.69 45.29L33.59 45.19L33.71 45.32Q29.96 40.88 29.96 34.78L30.01 34.84L30.00 34.82Q29.90 30.19 32.03 26.39L32.19 26.55L32.17 26.53Q31.41 26.64 30.08 27.02L30.08 27.03L30.21 27.15Q30.42 26.26 31.29 24.74L31.34 24.78L31.32 24.76Q30.71 24.91 26.71 25.75L26.88 25.92L26.15 27.59L26.26 27.70Q24.38 25.85 19.96 25.62L20.00 25.67L20.00 25.67Q18.87 25.67 16.62 25.82L16.60 25.80L16.64 25.85Q12.98 26.21 13.09 30.25L13.06 30.22L13.01 30.17Q13.20 33.55 13.77 38.01L13.85 38.09L13.74 38.40L13.90 38.56Q14.00 39.39 14.80 40.49L14.67 40.35L14.77 40.46Q14.80 40.49 14.99 40.60L15.06 40.67L15.08 40.70Q15.37 41.21 15.76 41.79L15.75 41.78L15.69 41.72Q17.09 43.23 20.48 43.43L20.44 43.39L20.51 43.46Q22.25 43.67 22.40 43.67L22.38 43.65L23.77 43.48L23.94 43.65Q27.06 43.57 28.28 42.01L28.32 42.06L28.37 42.10Q28.67 42.67 29.28 43.96ZM22.63 31.11L22.67 31.15L22.60 31.08Q23.94 31.09 24.78 31.55L24.89 31.66L24.84 31.60Q25.10 32.36 25.10 33.81L25.10 33.81L25.25 33.96Q25.44 35.86 24.16 37.29L24.04 37.16L24.06 37.19Q22.88 38.71 20.98 38.52L20.89 38.43L20.85 38.39Q19.55 38.53 18.52 38.11L18.52 38.11L18.33 37.93Q18.16 37.11 18.16 35.89L18.21 35.94L18.16 35.89Q18.39 32.46 21.01 31.51L20.92 31.41L20.88 31.37Q21.83 31.11 22.63 31.11Z"/><path fill="#222" d="M114.21 47.02L114.31 47.12L114.35 47.16Q113.41 47.36 111.50 47.66L111.34 47.50L111.45 47.61Q112.65 45.34 113.68 44.05L113.73 44.10L113.79 44.16Q115.53 44.45 115.68 44.45L115.57 44.34L115.60 44.37Q116.00 44.54 116.53 44.43L116.44 44.33L116.43 44.32Q117.25 44.39 117.44 44.39L117.42 44.36L117.44 44.38Q119.98 44.11 119.90 41.94L119.89 41.93L119.92 41.95Q119.89 40.48 119.78 34.23L119.61 34.06L119.60 34.06Q119.57 30.53 119.65 26.38L119.63 26.36L121.11 26.24L121.16 26.29Q121.85 26.22 122.53 25.99L122.52 25.97L122.48 25.94Q122.32 30.42 122.36 34.80L122.27 34.71L122.21 34.65Q122.21 38.99 122.74 43.36L122.83 43.45L122.80 43.42Q123.01 43.86 123.01 44.13L122.89 44.01L122.98 44.10Q123.01 45.77 121.33 46.15L121.20 46.02L121.28 46.09Q118.18 46.49 114.33 47.14ZM121.13 22.94L118.97 19.80L118.98 19.81Q119.91 18.31 121.74 15.53L121.80 15.59L121.77 15.55Q122.55 16.56 123.88 18.39L123.80 18.31L121.02 22.84ZM124.01 49.43L123.97 49.39L124.11 49.53Q124.67 49.59 125.43 49.25L125.43 49.25L125.27 49.09Q125.66 48.46 125.66 48.00L125.72 48.06L125.67 48.01Q125.69 47.69 125.58 47.08L125.48 46.99L125.55 47.05Q124.13 40.56 124.13 32.65L124.15 32.66L124.25 32.77Q124.15 29.81 124.30 26.92L124.34 26.96L124.36 26.97Q123.78 27.12 122.64 27.43L122.78 27.56L122.74 27.53Q122.62 26.91 122.66 26.38L122.76 26.48L122.93 25.47L122.81 25.35Q121.09 25.99 119.30 26.03L119.26 25.99L119.35 26.08Q119.36 30.46 119.39 34.04L119.28 33.93L119.40 41.78L119.42 41.80Q119.58 43.86 117.41 43.97L117.26 43.82L117.33 43.90Q117.11 43.90 116.59 43.96L116.69 44.05L116.55 43.92Q116.05 43.99 115.79 43.99L115.84 44.04L115.74 43.94Q115.26 43.92 113.70 43.50L113.84 43.64L113.86 43.66Q113.42 44.28 112.31 45.96L112.29 45.94L110.71 48.20L110.77 48.26Q111.50 47.92 113.14 47.54L113.30 47.71L112.77 48.36L112.23 48.99L112.26 49.03Q114.54 48.87 115.87 48.95L115.93 49.01L115.84 48.91Q118.06 49.00 124.00 49.42ZM120.94 23.52L121.03 23.61L121.40 23.10L121.44 23.15Q121.78 23.56 122.73 25.16L122.68 25.11L122.60 25.02Q124.29 22.08 125.85 18.99L125.82 18.96L125.73 18.87Q124.73 17.26 123.78 15.97L123.81 15.99L123.86 16.05Q123.71 16.32 123.37 16.85L123.21 16.69L123.32 16.80Q122.87 16.13 121.88 14.83L121.89 14.83L121.88 14.83Q120.74 16.46 118.41 19.81L118.45 19.85L118.37 19.77Q119.23 20.93 120.94 23.52Z"/><path fill="#333" d="M95.11 29.89L95.05 29.84L95.05 29.83Q94.88 29.89 94.57 29.89L94.42 29.74L94.53 29.84Q93.21 29.86 91.77 30.70L91.67 30.60L91.77 30.71Q90.49 31.86 90.49 33.76L90.41 33.68L90.46 33.73Q90.44 37.14 91.96 38.47L91.84 38.35L91.95 38.46Q92.80 39.53 95.08 39.53L95.25 39.71L95.19 39.65Q95.45 39.67 95.75 39.67L95.73 39.66L95.82 39.74Q97.43 39.64 98.58 38.00L98.66 38.09L98.54 37.96Q99.52 36.40 99.44 34.61L99.58 34.74L99.63 34.79Q99.63 34.26 99.63 33.85L99.66 33.88L99.64 33.86Q99.58 32.01 98.21 30.85L98.20 30.83L98.22 30.85Q96.85 29.69 95.06 29.84ZM99.67 40.12L99.61 40.07L99.59 40.04Q98.51 41.90 94.78 42.01L94.95 42.18L94.94 42.17Q91.50 42.24 89.90 40.64L89.78 40.52L89.82 40.56Q88.45 38.88 87.65 34.09L87.60 34.03L87.67 34.10Q87.23 32.22 87.23 30.97L87.29 31.02L87.20 30.93Q87.32 29.26 88.04 28.20L87.92 28.07L88.02 28.17Q89.31 26.72 92.27 26.72L92.29 26.73L92.29 26.74Q98.76 26.88 100.66 29.47L100.65 29.45L100.50 29.30Q100.84 28.65 101.25 27.05L101.24 27.04L101.13 26.93Q102.41 26.65 104.84 25.85L104.79 25.80L104.82 25.82Q102.43 31.50 102.20 37.82L102.12 37.74L102.11 37.74Q101.88 43.90 104.02 49.73L104.02 49.73L104.09 49.80Q102.31 49.12 100.52 48.85L100.58 48.92L100.57 48.91Q99.68 44.97 99.56 40.02ZM100.32 49.22L100.41 49.32L100.38 49.29Q101.16 49.49 102.57 49.80L102.43 49.66L102.46 49.70Q102.71 50.44 103.28 51.85L103.28 51.85L103.36 51.93Q105.86 52.56 108.14 53.85L108.06 53.77L108.06 53.77Q104.09 47.25 104.09 38.72L104.13 38.76L104.16 38.79Q104.06 32.34 106.54 26.55L106.65 26.66L106.63 26.65Q105.95 26.95 104.58 27.60L104.55 27.57L104.48 27.50Q104.91 26.82 105.55 25.26L105.56 25.27L105.43 25.14Q103.98 25.78 100.78 26.66L100.73 26.60L100.83 26.71Q100.65 27.21 100.35 28.39L100.28 28.33L100.27 28.32Q98.40 26.56 92.27 26.41L92.19 26.33L92.15 26.29Q88.96 26.22 87.59 27.70L87.60 27.71L87.64 27.76Q86.85 28.87 86.89 30.77L86.96 30.85L86.89 30.77Q87.01 33.79 88.00 37.56L88.04 37.59L88.06 37.62Q88.74 40.05 89.66 41.00L89.65 41.00L89.86 41.21L89.92 41.26Q91.18 44.12 96.62 44.35L96.53 44.26L96.49 44.22Q97.64 44.38 99.47 44.07L99.42 44.02L99.52 44.12Q99.70 46.93 100.31 49.22ZM97.05 32.26L96.89 32.09L97.00 32.21Q98.09 32.23 98.93 32.53L98.98 32.58L98.97 32.57Q99.03 32.98 99.15 33.59L99.25 33.69L99.29 33.73Q99.19 34.09 99.12 34.70L99.19 34.78L99.23 34.82Q99.23 36.72 98.20 38.01L98.11 37.92L98.21 38.02Q97.11 39.50 95.24 39.31L95.16 39.23L95.08 39.15Q93.92 39.29 92.97 38.87L92.92 38.82L92.88 38.78Q92.61 38.06 92.61 36.84L92.53 36.75L92.59 36.82Q92.52 36.45 92.52 36.14L92.51 36.13L92.59 36.21Q92.53 34.40 93.86 33.24L93.83 33.20L93.86 33.23Q95.18 32.05 96.93 32.13Z"/><path fill="#222" d="M67.83 40.38L67.85 40.40L67.87 40.41Q66.47 40.51 64.91 40.09L64.87 40.04L64.82 40.00Q63.64 39.12 63.49 37.48L63.55 37.54L63.37 37.37Q63.51 37.35 63.70 34.73L63.70 34.72L63.59 34.61Q64.62 34.43 66.64 34.05L66.64 34.04L66.55 34.91L66.37 34.73Q66.21 36.59 67.62 37.16L67.69 37.23L67.55 37.09Q68.42 37.51 70.52 37.51L70.44 37.43L70.56 37.55Q72.04 37.27 72.23 37.20L72.30 37.27L72.21 37.18Q73.19 37.10 73.92 36.60L73.97 36.66L73.89 36.58Q75.29 35.62 75.10 33.52L75.24 33.66L75.19 33.61Q74.93 31.10 73.19 29.54L73.23 29.58L73.20 29.55Q71.50 28.02 69.03 28.02L69.10 28.10L68.94 27.71L68.93 27.70Q69.43 27.77 70.30 27.70L70.23 27.63L70.33 27.73Q72.16 27.53 73.53 26.30L73.49 26.26L73.60 26.37Q74.85 25.02 75.01 23.15L75.02 23.17L75.02 23.17Q75.15 22.88 75.15 22.54L75.14 22.53L75.10 22.48Q75.16 21.02 73.79 20.11L73.70 20.01L73.78 20.10Q72.47 19.21 70.87 19.32L70.92 19.37L70.90 19.35Q69.65 19.24 68.43 19.66L68.44 19.67L68.39 19.62Q66.97 20.18 66.67 21.32L66.73 21.39L66.69 21.34Q66.45 22.05 66.52 22.82L66.66 22.96L66.64 22.94Q65.65 22.74 63.59 22.01L63.45 21.87L63.53 21.95Q63.18 20.16 63.22 19.32L63.22 19.32L63.24 19.34Q63.44 17.90 64.50 17.21L64.56 17.27L64.56 17.27Q65.96 16.65 67.56 16.65L67.59 16.68L67.56 16.66Q70.65 16.55 73.81 16.82L73.88 16.88L73.82 16.83Q78.92 17.28 78.61 21.05L78.54 20.97L78.54 20.97Q78.45 22.45 77.96 24.01L77.93 23.98L77.95 24.00Q77.09 27.14 74.73 28.05L74.73 28.05L74.78 28.11Q77.32 28.55 77.93 31.90L77.86 31.83L77.93 31.90Q78.18 33.06 78.25 35.08L78.20 35.03L78.27 35.10Q78.40 39.53 73.79 39.98L73.82 40.01L73.78 39.97Q73.08 40.07 67.79 40.34ZM72.95 42.53L73.07 42.65L73.02 42.59Q73.68 42.69 76.53 42.76L76.40 42.63L76.44 42.67Q78.19 42.74 79.82 42.09L79.84 42.11L79.87 42.14Q81.10 41.23 80.91 39.48L80.83 39.40L80.93 39.51Q80.82 38.18 80.52 36.43L80.39 36.30L80.34 36.25Q79.68 31.82 77.74 30.18L77.69 30.13L77.64 29.90L77.46 29.68L77.61 29.83Q79.28 28.30 80.04 23.92L80.09 23.97L80.11 23.99Q80.05 23.44 80.17 22.49L80.23 22.55L80.16 22.48Q80.34 21.82 80.26 21.14L80.13 21.00L80.17 21.04Q80.08 19.43 78.78 18.74L78.67 18.63L78.69 18.73L78.77 18.81Q78.45 17.80 77.31 17.27L77.32 17.28L77.17 17.13Q75.61 16.41 70.48 16.11L70.56 16.20L70.64 16.28Q68.88 16.11 67.28 16.11L67.25 16.08L67.31 16.14Q65.75 16.18 64.23 16.83L64.26 16.86L64.16 16.76Q62.93 17.51 62.93 19.26L62.86 19.19L62.96 19.29Q62.89 18.80 63.16 22.15L63.15 22.14L63.32 22.31Q63.44 22.20 65.08 22.81L65.13 22.86L65.10 22.84Q65.18 23.45 65.14 23.95L65.23 24.03L65.03 23.84Q65.20 24.50 65.24 25.03L65.09 24.89L65.13 24.93Q67.02 25.41 69.04 25.52L68.94 25.42L69.00 25.48Q69.00 23.54 70.10 22.70L69.94 22.54L70.02 22.62Q70.80 21.92 72.82 21.69L72.92 21.79L72.79 21.66Q74.05 21.78 74.62 21.97L74.53 21.87L74.49 21.83Q74.63 22.05 74.67 22.17L74.65 22.15L74.71 22.40L74.69 22.83L74.80 22.95Q74.81 23.14 74.77 23.29L74.67 23.20L74.73 23.25Q74.60 24.91 73.08 26.09L73.22 26.24L73.05 26.06Q72.26 27.10 70.24 27.30L70.11 27.16L70.24 27.29Q69.43 27.36 68.55 27.36L68.69 27.50L68.59 27.40Q68.61 27.72 68.76 28.41L68.81 28.45L68.88 28.52Q70.54 28.43 71.99 29.15L72.05 29.22L71.83 29.11L70.30 29.33L70.29 29.32Q70.38 29.71 70.49 30.32L70.37 30.20L70.54 30.37Q72.52 30.14 74.23 31.47L74.24 31.48L74.35 31.60Q74.49 31.89 74.80 33.53L74.79 33.52L74.79 33.52Q74.98 36.45 72.05 36.87L72.05 36.87L72.06 36.88Q70.01 37.19 69.44 37.15L69.44 37.15L69.39 37.11Q68.96 37.02 68.43 36.94L68.44 36.95L68.48 36.53L68.47 35.95L68.58 35.65L68.64 35.36L68.65 35.37Q67.75 35.50 66.95 35.69L66.90 35.64L66.79 35.53Q66.92 35.47 66.92 35.28L66.80 35.16L66.88 35.24Q66.98 35.11 66.98 34.88L66.96 34.86L66.92 34.83Q66.82 34.27 66.98 33.55L67.11 33.68L67.05 33.62Q65.22 33.89 63.36 34.23L63.41 34.28L63.32 34.19Q63.34 34.71 63.23 35.83L63.21 35.81L63.24 35.84Q63.19 37.03 63.19 37.64L63.16 37.61L63.13 37.58Q63.18 39.61 64.55 40.38L64.61 40.43L64.57 40.39Q66.05 42.67 70.77 42.48L70.80 42.51L70.68 42.39Q71.48 42.43 73.01 42.58Z"/></svg>