<svg xmlns="http://www.w3.org/2000/svg" width="150" height="50" viewBox="0,0,150,50"><path fill="#111" d="M122.30 29.83L122.41 29.94L122.43 29.96Q119.87 29.80 118.54 31.02L118.42 30.90L118.44 30.92Q117.13 32.16 117.43 34.67L117.46 34.70L117.42 34.66Q117.82 37.27 119.04 38.52L118.92 38.41L119.05 38.53Q120.04 39.79 122.17 39.71L122.15 39.69L122.22 39.76Q122.73 39.70 122.92 39.70L122.97 39.75L123.00 39.78Q126.46 39.09 126.57 34.48L126.69 34.60L126.55 34.46Q126.65 32.13 125.97 31.33L126.02 31.38L126.06 31.42Q124.98 30.11 122.43 29.95ZM125.62 41.57L125.68 41.62L125.68 41.62Q124.28 42.13 122.72 42.05L122.79 42.12L122.77 42.10Q119.08 42.45 117.78 39.86L117.77 39.84L117.74 39.81Q117.50 45.09 116.16 49.35L116.20 49.39L116.12 49.31Q114.39 49.87 112.76 50.59L112.72 50.55L112.76 50.60Q115.34 44.65 115.08 37.68L114.96 37.56L115.03 37.64Q114.78 30.80 111.89 24.75L111.88 24.74L111.87 24.73Q113.83 25.93 115.55 26.39L115.54 26.38L115.98 27.78L115.98 27.77Q116.15 28.17 116.42 29.28L116.47 29.33L116.38 29.24Q117.39 27.17 120.97 26.98L120.97 26.98L121.08 27.09Q121.85 26.94 122.72 26.94L122.88 27.10L123.38 27.10L123.38 27.11Q123.43 27.04 123.62 27.08L123.54 27.00L124.00 27.15L123.89 27.05Q125.91 27.27 126.63 27.50L126.66 27.53L126.65 27.52Q128.19 28.03 129.07 28.98L129.02 28.94L129.17 29.08Q129.96 30.21 129.92 31.62L129.88 31.59L129.96 31.67Q129.94 34.50 129.14 37.16L129.14 37.17L129.01 37.04Q128.06 40.62 125.70 41.64ZM129.95 42.24L129.96 42.21L129.87 42.12Q131.00 40.17 131.30 36.06L131.29 36.04L131.46 36.21Q131.53 34.37 131.53 33.12L131.45 33.04L131.47 33.06Q131.56 31.63 130.80 30.22L130.73 30.15L130.84 30.26Q130.30 29.68 129.80 29.30L129.85 29.35L129.61 28.99L129.47 28.74L129.41 28.56L129.44 28.59Q127.76 26.61 123.42 26.61L123.32 26.51L122.85 26.65L122.82 26.62Q118.14 26.58 116.50 28.18L116.43 28.11L116.57 28.25Q116.27 27.61 116.12 27.11L116.08 27.07L116.01 26.20L115.87 26.06Q113.52 25.58 111.31 24.09L111.18 23.96L111.32 24.10Q114.37 30.20 114.68 37.43L114.75 37.51L114.75 37.51Q115.10 44.82 112.24 51.29L112.12 51.17L114.24 50.44L114.26 50.45Q113.88 51.06 113.19 52.62L113.15 52.58L113.17 52.60Q115.99 51.65 118.31 51.31L118.18 51.18L118.22 51.22Q119.38 46.44 119.53 42.71L119.49 42.66L119.47 42.64Q121.00 44.25 124.62 44.48L124.62 44.48L124.48 44.34Q128.54 44.71 129.99 42.28L130.01 42.30ZM124.23 32.10L124.23 32.10L124.30 32.17Q124.88 32.03 125.99 32.37L126.03 32.41L126.05 32.43Q126.29 33.40 126.25 34.58L126.28 34.61L126.31 34.63Q126.27 35.51 126.08 36.16L126.06 36.14L126.15 36.23Q125.43 39.13 122.92 39.43L122.84 39.36L123.01 39.41L122.89 39.29Q122.83 39.31 122.72 39.34L122.72 39.35L122.32 39.48L122.26 39.42Q121.11 39.45 120.12 38.96L120.11 38.95L119.64 36.76L119.66 36.78Q119.63 34.58 120.92 33.55L120.89 33.52L120.82 33.45Q121.95 32.49 124.35 32.22Z"/><path fill="#222" d="M95.72 29.15L95.80 29.23L95.77 29.21Q93.98 29.28 92.76 30.61L92.70 30.55L92.71 30.56Q91.48 31.88 91.33 33.78L91.31 33.76L91.39 33.85Q91.02 35.80 92.24 36.81L92.39 36.96L92.37 36.94Q93.46 37.82 95.59 37.74L95.59 37.74L95.62 37.77Q98.04 37.72 98.99 36.76L98.97 36.74L98.96 36.74Q100.03 35.33 99.92 33.50L99.95 33.53L99.87 33.45Q99.67 31.51 98.59 30.31L98.63 30.35L98.59 30.31Q97.58 29.18 95.75 29.18ZM95.74 19.77L95.82 19.85L95.80 19.83Q94.32 19.65 92.99 20.14L93.07 20.22L92.97 20.12Q91.77 21.01 92.00 22.88L91.91 22.80L91.96 22.85Q92.31 26.43 95.66 26.43L95.75 26.52L95.82 26.59Q97.37 26.76 98.36 25.62L98.39 25.66L98.37 25.64Q99.36 24.49 99.40 22.93L99.25 22.78L99.42 22.95Q99.35 21.06 98.63 20.45L98.73 20.55L98.66 20.48Q97.01 19.66 95.71 19.74ZM95.46 40.32L95.40 40.26L92.43 40.32L92.39 40.29Q90.85 40.27 89.51 39.39L89.57 39.45L89.63 39.51Q88.27 38.38 88.42 35.52L88.41 35.51L88.40 35.51Q88.81 28.60 92.42 27.61L92.38 27.56L92.47 27.65Q90.13 26.69 88.80 21.32L88.74 21.26L88.83 21.35Q88.39 19.84 88.46 19.04L88.61 19.19L88.50 19.08Q88.84 16.98 92.53 16.94L92.58 16.99L92.57 16.98Q96.75 16.86 98.20 17.05L98.23 17.08L98.29 17.14Q102.01 17.55 102.47 19.57L102.52 19.62L102.42 19.52Q102.58 20.18 102.58 20.56L102.63 20.60L102.53 20.50Q102.57 21.23 102.38 21.84L102.46 21.92L102.50 21.96Q101.77 26.06 98.84 27.59L98.88 27.63L98.86 27.61Q102.46 28.51 102.95 33.80L102.88 33.73L102.79 33.63Q102.92 33.92 102.96 35.21L102.84 35.09L102.85 35.10Q102.98 37.90 101.38 38.96L101.36 38.94L101.45 39.04Q99.98 39.81 95.41 40.26ZM97.65 42.54L97.68 42.58L101.06 42.68L100.99 42.61Q102.88 42.86 104.40 42.14L104.38 42.12L104.41 42.14Q105.41 41.27 105.48 39.41L105.62 39.55L105.63 39.56Q105.54 38.32 105.15 36.38L105.22 36.45L105.19 36.42Q104.24 31.73 102.14 29.87L102.25 29.98L102.06 29.60L101.83 29.28L101.66 29.00L101.56 28.91Q103.29 27.62 104.20 23.47L104.20 23.47L104.23 23.50Q104.28 23.17 104.36 22.34L104.23 22.21L104.38 22.35Q104.35 21.56 104.27 20.95L104.38 21.06L104.23 20.91Q104.09 19.48 102.91 18.99L102.96 19.04L102.99 19.02L102.73 18.85L102.75 18.87Q102.44 18.09 101.26 17.29L101.37 17.40L101.35 17.35L101.38 17.37Q99.38 16.67 95.31 16.48L95.25 16.43L95.37 16.55Q93.80 16.42 92.43 16.54L92.49 16.60L92.34 16.44Q91.70 16.64 90.40 16.79L90.26 16.65L90.34 16.73Q88.35 17.06 88.12 18.70L88.04 18.62L88.05 18.63Q88.05 19.16 88.09 19.96L88.10 19.97L88.21 20.08Q88.35 20.64 88.92 23.00L88.90 22.98L88.85 22.93Q89.57 26.08 91.32 27.42L91.47 27.57L91.39 27.48L91.44 27.54Q88.71 28.88 88.17 34.06L88.06 33.94L88.09 33.98Q87.92 36.20 87.92 37.11L87.89 37.09L87.96 37.16Q88.05 38.96 89.23 39.87L89.25 39.89L89.22 39.86Q89.35 39.95 89.61 40.14L89.58 40.11L89.58 40.11Q90.63 42.42 97.75 42.64ZM97.39 31.54L97.45 31.61L97.35 31.51Q98.38 31.54 99.25 32.00L99.24 31.98L99.12 31.86Q99.49 32.84 99.45 33.38L99.45 33.38L99.47 33.40Q99.55 33.74 99.55 34.05L99.60 34.10L99.50 34.00Q99.51 36.37 97.23 37.21L97.27 37.25L97.33 37.32Q96.55 37.63 95.75 37.52L95.61 37.38L95.73 37.50Q94.52 37.51 93.37 37.05L93.51 37.19L93.34 37.01Q93.18 36.47 93.25 35.48L93.21 35.44L93.30 35.53Q93.33 33.81 94.53 32.59L94.58 32.64L94.67 32.73Q95.75 31.40 97.35 31.51ZM97.58 22.03L97.66 22.11L97.57 22.02Q98.47 22.01 99.01 22.16L98.87 22.03L98.92 22.87L99.02 22.97Q98.99 24.35 98.07 25.36L98.12 25.41L97.98 25.26Q97.16 26.37 95.79 26.18L95.70 26.09L95.75 26.14Q94.80 26.18 94.38 25.95L94.36 25.93L94.41 25.97Q94.33 25.67 94.21 24.98L94.11 24.88L94.26 25.03Q93.90 23.53 95.12 22.69L95.08 22.65L95.06 22.63Q96.16 21.98 97.57 22.02Z"/><path fill="#111" d="M64.36 41.08L64.34 41.05L64.43 41.14Q67.54 36.83 74.24 28.91L74.31 28.98L74.16 28.83Q68.41 29.21 64.64 27.84L64.50 27.71L64.59 27.80Q63.94 26.38 63.18 24.97L63.22 25.01L63.14 24.93Q67.16 26.37 71.62 26.40L71.63 26.42L71.71 26.50Q76.06 26.43 80.24 25.36L80.41 25.53L80.38 25.50Q79.92 26.10 79.65 26.63L79.65 26.63L79.67 26.65Q77.17 28.92 74.36 32.53L74.24 32.42L69.45 38.75L69.51 38.80Q71.71 38.57 73.96 38.64L73.82 38.50L73.94 38.62Q75.98 38.53 78.22 38.91L78.27 38.96L78.22 38.91Q78.51 39.66 79.24 41.68L79.14 41.58L79.18 41.62Q75.51 40.84 71.51 40.96L71.47 40.91L71.39 40.83Q67.51 41.03 63.85 42.21L63.90 42.26L63.93 42.28Q63.93 42.05 64.38 41.10ZM63.19 42.73L63.24 42.78L63.30 42.83Q64.03 42.46 65.63 42.04L65.78 42.19L65.59 42.00Q65.35 42.22 64.93 42.63L64.98 42.68L65.08 42.78Q64.84 43.35 64.23 44.49L64.18 44.44L64.09 44.35Q68.87 43.07 73.86 43.22L73.88 43.25L73.78 43.15Q78.85 43.42 83.42 45.29L83.30 45.17L83.43 45.30Q82.03 43.48 81.11 41.42L81.10 41.41L81.02 41.33Q80.20 40.97 79.14 40.74L79.20 40.80L79.28 40.88Q78.99 40.06 78.61 38.61L78.66 38.67L78.60 38.60Q77.18 38.40 73.60 38.28L73.46 38.15L73.48 38.17Q75.82 34.80 80.85 28.44L80.89 28.48L80.83 28.42Q81.27 27.87 81.95 26.54L81.92 26.51L79.59 27.22L79.53 27.16Q79.65 27.13 79.80 27.02L79.71 26.92L79.96 26.79L80.04 26.87Q80.40 25.71 80.98 24.76L80.94 24.73L81.01 24.80Q76.45 26.25 71.73 26.17L71.57 26.01L71.73 26.18Q66.94 26.11 62.45 24.28L62.46 24.29L62.45 24.28Q63.46 25.97 64.26 28.03L64.40 28.17L64.45 28.22Q65.13 28.37 66.20 28.64L66.24 28.68L66.23 28.67Q66.53 29.47 66.84 30.91L66.81 30.89L66.66 30.74Q68.34 31.08 71.65 31.24L71.60 31.18L71.68 31.26Q69.20 34.50 64.02 40.93L64.08 40.99L64.15 41.05Q63.81 41.55 63.24 42.77Z"/><path fill="#444" d="M39.64 41.02L39.68 41.07L39.78 41.16Q42.84 36.80 49.54 28.88L49.63 28.97L49.67 29.01Q43.64 29.11 39.87 27.74L39.84 27.71L39.84 27.71Q39.32 26.42 38.55 25.01L38.54 25.00L38.37 24.83Q42.52 26.39 46.97 26.42L47.06 26.51L47.12 26.57Q51.42 26.46 55.61 25.40L55.74 25.52L55.60 25.39Q55.26 26.11 54.99 26.64L55.07 26.72L55.01 26.66Q52.43 28.84 49.62 32.46L49.73 32.57L44.78 38.73L44.75 38.71Q47.05 38.57 49.30 38.65L49.29 38.64L49.33 38.68Q51.33 38.55 53.58 38.94L53.61 38.96L53.60 38.95Q53.73 39.54 54.45 41.56L54.43 41.54L54.56 41.67Q50.86 40.86 46.86 40.98L46.80 40.92L46.79 40.90Q42.85 41.04 39.20 42.22L39.22 42.24L39.26 42.28Q39.30 42.09 39.76 41.14ZM38.70 42.90L38.60 42.80L38.53 42.73Q39.35 42.45 40.95 42.03L41.05 42.13L41.11 42.19Q40.84 42.37 40.42 42.79L40.34 42.71L40.40 42.77Q40.07 43.24 39.46 44.38L39.50 44.42L39.44 44.36Q44.16 43.03 49.15 43.18L49.29 43.33L49.24 43.27Q54.14 43.38 58.71 45.24L58.74 45.28L58.63 45.17Q57.32 43.44 56.41 41.38L56.42 41.39L56.35 41.32Q55.65 41.08 54.58 40.85L54.59 40.86L54.63 40.90Q54.33 40.06 53.95 38.62L53.96 38.63L53.89 38.56Q52.34 38.23 48.76 38.11L48.86 38.21L48.88 38.23Q51.15 34.80 56.18 28.44L56.27 28.53L56.15 28.41Q56.51 27.78 57.20 26.45L57.27 26.52L54.88 27.18L54.84 27.14Q54.99 27.13 55.14 27.02L55.24 27.12L55.30 26.79L55.25 26.75Q55.73 25.71 56.31 24.76L56.30 24.75L56.43 24.89Q51.68 26.15 46.96 26.07L46.98 26.09L47.08 26.19Q42.16 25.99 37.66 24.16L37.71 24.21L37.66 24.15Q38.82 26.00 39.62 28.06L39.64 28.08L39.63 28.06Q40.42 28.33 41.49 28.60L41.59 28.70L41.63 28.74Q41.87 29.47 42.17 30.92L42.01 30.76L41.98 30.73Q43.66 31.07 46.97 31.22L47.03 31.28L46.93 31.18Q44.62 34.58 39.44 41.02L39.46 41.03L39.32 40.89Q39.27 41.68 38.70 42.90Z"/><path fill="#222" d="M25.94 29.43L26.01 29.50L26.05 29.54Q24.84 28.75 24.20 28.79L24.20 28.80L24.27 28.87Q22.76 28.80 21.71 29.81L21.85 29.95L21.76 29.86Q20.64 30.80 20.76 32.17L20.75 32.16L20.86 32.28Q21.13 36.58 20.25 41.11L20.26 41.12L20.26 41.12Q18.14 41.66 17.04 42.19L16.88 42.04L16.87 42.03Q18.43 37.91 18.20 33.45L18.19 33.45L18.11 33.36Q17.99 28.99 16.28 24.91L16.15 24.79L16.32 24.96Q17.32 25.50 19.61 26.15L19.77 26.31L20.17 28.85L20.31 28.98Q20.84 25.93 25.10 25.93L25.25 26.08L25.21 26.04Q25.58 25.95 25.88 25.95L25.79 25.86L25.94 26.01Q27.15 25.92 28.41 26.61L28.48 26.69L28.47 26.67Q27.10 27.96 25.96 29.45ZM27.69 31.57L27.70 31.42L27.80 31.52Q28.57 30.24 30.25 27.80L30.36 27.92L30.31 27.86Q29.88 27.54 28.35 27.28L28.19 27.12L28.28 27.21Q28.65 26.93 29.11 26.32L29.12 26.33L29.18 26.39Q27.27 25.47 25.33 25.66L25.16 25.49L25.26 25.59Q23.27 25.73 22.54 26.00L22.63 26.08L22.53 25.99Q21.11 26.39 20.31 27.49L20.34 27.52L20.12 26.66L20.08 25.97L20.03 25.92Q17.52 25.39 15.54 24.06L15.55 24.07L15.66 24.17Q17.68 28.44 17.91 33.32L18.02 33.42L17.87 33.28Q18.12 38.21 16.37 42.74L16.41 42.78L16.45 42.82Q17.45 42.26 18.33 41.96L18.39 42.02L18.47 42.10Q18.02 43.03 17.53 44.09L17.72 44.28L17.52 44.09Q20.39 43.26 22.52 43.15L22.71 43.33L22.83 38.73L22.85 38.75Q22.91 36.45 22.91 34.21L22.99 34.29L22.97 34.27Q22.90 33.02 23.82 32.05L23.92 32.15L23.91 32.15Q24.81 31.16 25.95 31.08L25.81 30.94L25.94 31.07Q26.45 30.82 27.18 31.51L27.23 31.56L27.64 31.51ZM22.55 29.62L22.62 29.62L22.61 29.72L22.55 29.63Z"/></svg>