<svg xmlns="http://www.w3.org/2000/svg" width="150" height="50" viewBox="0,0,150,50"><path fill="#333" d="M23.38 40.12L23.40 40.14L21.20 40.23L21.24 40.27Q20.87 40.35 19.90 40.41L19.75 40.26L19.75 40.26Q18.89 40.43 18.40 40.43L18.34 40.37L18.33 40.36Q16.84 40.51 15.81 39.67L15.79 39.65L15.70 39.56Q16.54 38.49 18.17 36.36L18.09 36.28L18.14 36.33Q19.38 37.87 21.58 37.64L21.62 37.68L21.64 37.69Q22.45 37.48 23.10 36.83L23.13 36.86L23.13 36.87Q23.80 36.24 23.69 35.37L23.79 35.46L23.66 35.34Q23.70 30.89 23.78 26.32L23.77 26.31L23.71 26.25Q23.73 21.63 24.26 17.02L24.28 17.04L24.25 17.01Q26.27 16.90 28.40 15.87L28.41 15.87L28.38 15.84Q26.53 22.60 26.53 29.84L26.51 29.81L26.47 29.78Q26.50 33.34 26.95 36.84L26.92 36.81L26.99 36.88Q26.94 37.09 26.94 37.43L27.07 37.57L27.08 37.58Q26.90 37.97 26.67 38.50L26.75 38.58L26.80 38.63Q26.28 39.94 23.47 40.21ZM28.23 42.87L28.33 42.97L28.63 42.94L28.89 42.78L29.16 42.66L29.24 42.75Q29.56 42.50 29.64 42.38L29.54 42.28L29.61 42.35Q29.75 41.12 29.48 40.13L29.49 40.14L29.54 40.19Q28.08 34.28 28.35 27.92L28.50 28.07L28.51 28.08Q28.76 21.97 30.55 16.07L30.44 15.97L30.45 15.97Q29.65 16.69 28.39 17.42L28.28 17.31L28.39 17.41Q28.50 16.57 28.91 15.05L28.99 15.12L28.84 14.97Q26.36 16.34 23.70 16.64L23.68 16.63L23.76 16.71Q23.48 21.18 23.40 26.13L23.33 26.06L23.32 26.05Q23.26 31.97 23.34 35.40L23.28 35.34L23.30 35.36Q23.42 37.19 21.67 37.34L21.59 37.27L21.64 37.31Q19.81 37.31 18.14 35.68L18.31 35.85L18.28 35.82Q16.10 38.21 15.15 39.77L15.19 39.81L15.24 39.86Q15.86 40.48 16.88 40.71L16.88 40.71L16.86 40.68Q16.77 40.82 16.50 41.05L16.61 41.16L16.53 41.08Q18.03 42.08 20.01 42.35L20.00 42.34L19.88 42.22Q20.42 42.41 23.71 42.72L23.72 42.73L23.71 42.71Q26.92 42.93 28.29 42.93Z"/><path fill="#333" d="M91.76 32.88L91.84 32.96L91.93 33.05Q94.84 32.50 98.03 32.61L98.11 32.69L98.12 32.70Q98.00 30.06 98.00 27.66L98.15 27.81L98.06 27.72Q98.15 25.34 98.34 22.79L98.23 22.67L98.22 22.66Q97.05 24.43 91.84 32.96ZM101.72 40.29L101.76 40.33L101.82 40.40Q100.00 39.94 98.21 39.87L98.19 39.84L98.19 39.85Q98.03 37.52 97.92 35.05L97.96 35.09L98.01 35.14Q92.65 34.92 87.93 36.33L87.97 36.36L87.97 36.37Q88.02 35.80 88.21 34.81L88.30 34.90L88.19 34.79Q89.92 31.58 93.50 25.30L93.68 25.48L93.64 25.44Q96.39 20.43 99.82 16.54L99.91 16.63L99.97 16.69Q100.75 16.40 102.42 16.14L102.40 16.12L102.44 16.15Q100.56 22.61 100.56 29.65L100.57 29.67L100.48 29.57Q100.61 31.18 100.68 32.67L100.65 32.64L101.94 32.75L102.00 32.81Q102.54 32.78 103.15 32.89L103.22 32.96L103.19 32.93Q103.18 33.80 103.45 35.74L103.44 35.73L103.43 35.72Q102.33 35.58 100.85 35.39L100.78 35.32L100.80 35.34Q101.04 37.36 101.72 40.29ZM103.39 32.49L103.31 32.40L103.46 32.55Q103.13 32.34 102.94 32.34L102.95 32.35L102.66 32.44L102.68 32.46Q102.50 30.91 102.50 29.50L102.48 29.48L102.60 29.60Q102.47 23.07 104.53 17.06L104.67 17.20L104.51 17.04Q103.85 17.41 102.40 17.79L102.29 17.68L102.38 17.76Q102.64 17.04 103.09 15.63L103.10 15.64L102.97 15.50Q101.79 16.00 99.74 16.23L99.76 16.26L99.63 16.13Q95.80 20.55 90.58 29.92L90.65 29.99L92.74 26.32L92.65 26.23Q92.25 27.28 91.98 27.85L91.93 27.80L87.49 36.84L87.61 36.95Q88.25 36.80 89.39 36.42L89.41 36.43L89.18 36.59L89.12 36.53Q89.06 37.27 88.76 38.52L88.72 38.49L88.85 38.61Q92.89 37.21 97.72 37.40L97.64 37.32L97.60 37.28Q97.81 38.40 98.00 40.38L97.94 40.32L97.85 40.23Q98.89 40.21 99.96 40.32L100.03 40.39L100.03 40.39Q100.24 41.13 100.50 42.50L100.54 42.54L100.56 42.56Q102.35 42.68 105.36 43.59L105.36 43.59L105.31 43.54Q104.36 41.44 103.44 38.17L103.43 38.16L104.99 38.73L104.89 38.63Q105.67 38.95 106.35 39.29L106.20 39.14L106.22 39.16Q105.48 36.70 105.33 35.03L105.35 35.05L105.31 35.01Q104.76 34.88 103.62 34.65L103.72 34.75L103.56 34.59Q103.37 33.34 103.37 32.47ZM95.39 32.32L95.46 32.40L95.39 32.33Q96.10 30.98 97.66 28.43L97.72 28.49L97.77 28.54Q97.64 29.36 97.60 30.31L97.73 30.44L97.65 30.36Q97.74 31.44 97.78 32.39L97.64 32.25L97.75 32.37Q97.09 32.24 96.52 32.24L96.64 32.36L96.55 32.27Q95.98 32.31 95.37 32.31Z"/><path fill="#111" d="M121.99 40.18L121.96 40.15L121.95 40.14Q120.23 40.21 118.56 40.78L118.45 40.68L118.47 40.70Q118.90 36.98 119.02 33.85L119.20 34.03L119.12 33.96Q119.15 30.83 118.92 27.18L119.03 27.29L118.95 27.21Q117.60 26.88 116.84 26.50L116.79 26.45L116.37 23.40L116.38 23.41Q117.19 24.11 118.79 24.69L118.77 24.67L118.81 24.70Q118.55 22.54 118.13 19.80L118.21 19.88L118.23 19.89Q120.39 20.45 122.02 20.30L122.10 20.38L121.92 24.92L122.05 25.05Q123.42 24.93 124.75 24.44L124.79 24.48L124.65 24.34Q124.64 25.27 124.41 27.03L124.47 27.09L124.52 27.14Q122.86 27.35 121.84 27.35L121.82 27.33L121.82 27.34Q121.81 29.49 121.81 33.76L121.90 33.85L121.88 33.82Q121.86 37.96 121.94 40.13ZM125.15 23.85L125.14 23.84L125.14 23.84Q124.94 24.02 124.33 24.25L124.23 24.14L124.55 21.31L124.55 21.31Q123.83 21.69 122.42 21.92L122.49 21.99L122.41 21.90Q122.45 21.26 122.60 19.89L122.62 19.91L122.57 19.86Q121.96 19.93 121.39 19.93L121.39 19.93L121.45 19.99Q119.22 19.89 117.58 19.17L117.56 19.15L117.60 19.19Q118.14 21.71 118.41 24.19L118.35 24.12L118.38 24.15Q117.46 23.77 115.93 22.74L116.05 22.86L115.93 22.73Q116.37 24.13 116.60 26.83L116.61 26.84L116.52 26.75Q116.99 26.99 118.17 27.41L118.14 27.38L118.19 27.43Q118.26 28.11 118.30 29.52L118.36 29.58L118.68 29.56L118.74 29.55L118.84 29.64Q118.72 30.70 118.72 31.88L118.90 32.06L118.74 31.90Q118.79 36.91 118.00 41.25L118.10 41.35L118.01 41.26Q118.19 41.14 120.13 40.61L120.07 40.54L120.11 40.58Q120.12 41.24 120.01 42.62L120.02 42.62L119.98 42.59Q120.86 42.59 121.66 42.59L121.72 42.65L121.63 42.56Q123.41 42.63 125.05 43.20L125.05 43.20L124.94 43.09Q123.69 37.47 123.88 29.55L123.92 29.59L126.22 29.11L126.34 29.23Q126.38 28.28 126.46 27.25L126.43 27.22L126.51 25.09L126.60 25.19Q125.95 25.37 124.77 25.83L124.82 25.88L124.89 25.95Q125.25 24.67 125.18 24.33L125.16 24.32L125.00 24.16Q125.09 24.05 125.16 23.86Z"/><path fill="#111" d="M70.20 28.89L70.25 28.94L70.27 28.96Q67.74 28.98 66.71 30.16L66.62 30.07L66.55 30.00Q65.66 31.31 65.66 33.94L65.62 33.90L65.60 33.88Q65.55 38.93 70.15 38.74L70.31 38.90L70.14 38.73Q72.33 39.02 73.68 37.46L73.64 37.41L73.65 37.42Q75.11 35.97 74.88 33.92L74.78 33.81L74.71 33.74Q74.76 31.25 73.89 30.22L73.83 30.16L73.83 30.16Q72.37 28.85 70.16 28.85ZM75.29 38.74L75.23 38.68L75.23 38.68Q74.01 41.12 69.33 41.12L69.36 41.15L67.94 41.17L67.99 41.22Q65.62 41.21 64.51 40.07L64.39 39.94L64.51 40.07Q63.49 39.05 63.22 36.65L63.12 36.54L63.24 36.67Q62.99 35.08 62.92 33.29L62.92 33.29L63.00 33.38Q62.85 32.27 62.69 30.33L62.73 30.37L62.85 30.49Q62.57 26.02 67.75 26.02L67.93 26.20L69.37 26.08L69.31 26.02Q72.35 26.17 74.44 27.46L74.37 27.39L74.46 27.48Q75.20 27.92 75.70 28.60L75.77 28.68L75.70 28.60Q76.02 27.85 76.55 26.22L76.39 26.06L76.49 26.16Q77.76 26.02 80.08 25.41L80.03 25.36L80.05 25.38Q77.36 29.50 77.36 34.75L77.34 34.73L77.48 34.87Q77.45 38.58 78.82 41.66L78.87 41.71L78.74 41.58Q77.73 41.41 75.83 41.18L75.81 41.16L75.70 41.05Q75.51 40.22 75.21 38.66ZM78.57 43.93L78.57 43.92L80.82 44.54L80.86 44.57Q82.01 44.81 83.00 45.26L82.93 45.20L82.97 45.24Q79.41 40.99 79.41 34.90L79.27 34.76L79.26 34.75Q79.28 30.24 81.41 26.44L81.44 26.47L81.47 26.49Q80.82 26.72 79.49 27.10L79.43 27.05L79.57 27.18Q79.90 26.40 80.77 24.88L80.70 24.81L80.75 24.86Q80.17 25.04 76.17 25.88L76.08 25.79L75.65 27.75L75.64 27.75Q73.87 26.01 69.45 25.78L69.30 25.62L69.44 25.76Q68.23 25.70 65.98 25.85L65.99 25.86L65.91 25.78Q62.26 26.16 62.37 30.20L62.46 30.29L62.41 30.23Q62.64 33.66 63.21 38.12L63.06 37.96L63.23 38.56L63.17 38.50Q63.23 39.28 64.03 40.38L64.16 40.51L64.10 40.45Q64.28 40.63 64.47 40.75L64.41 40.69L64.47 40.75Q64.61 41.11 64.99 41.68L65.03 41.73L65.15 41.85Q66.38 43.20 69.77 43.39L69.92 43.54L69.85 43.47Q71.45 43.54 71.61 43.54L71.61 43.55L73.27 43.64L73.21 43.59Q76.35 43.53 77.57 41.97L77.54 41.94L77.63 42.03Q77.87 42.54 78.48 43.83ZM72.04 31.19L72.06 31.21L71.99 31.14Q73.39 31.20 74.22 31.66L74.22 31.65L74.23 31.67Q74.44 32.37 74.44 33.82L74.42 33.79L74.52 33.90Q74.73 35.82 73.46 37.25L73.40 37.20L73.47 37.26Q72.19 38.68 70.29 38.49L70.21 38.42L70.25 38.46Q68.85 38.50 67.82 38.09L67.70 37.97L67.80 38.06Q67.53 37.15 67.53 35.93L67.52 35.92L67.50 35.89Q67.73 32.47 70.36 31.52L70.39 31.56L70.31 31.47Q71.18 31.13 71.98 31.13Z"/><path fill="#333" d="M50.89 41.25L50.91 41.27L47.87 41.09L47.89 41.10Q45.45 40.95 44.65 40.83L44.63 40.82L44.79 40.97Q42.89 40.56 41.71 39.69L41.71 39.69L41.63 39.60Q40.44 38.30 40.21 34.95L40.08 34.82L40.23 34.97Q40.10 34.39 40.03 33.17L40.10 33.24L40.07 33.21Q40.02 32.74 39.94 31.64L39.99 31.69L39.96 31.66Q39.89 30.79 39.93 30.06L39.98 30.11L39.92 30.05Q40.09 28.09 41.12 27.33L41.28 27.49L41.21 27.42Q43.10 26.23 47.93 26.00L47.99 26.06L48.06 26.13Q50.01 25.94 50.81 25.94L50.85 25.98L50.71 25.85Q52.22 25.87 53.59 26.18L53.57 26.16L53.59 26.17Q53.16 27.57 52.63 29.40L52.50 29.27L52.60 29.37Q52.12 29.47 51.63 29.43L51.60 29.39L51.46 29.25Q51.34 29.22 50.81 29.10L50.92 29.22L50.02 29.04L49.92 28.93Q48.87 28.69 48.27 28.73L48.29 28.76L48.17 28.63Q43.46 28.72 42.85 31.54L42.99 31.68L42.95 31.64Q42.70 32.79 42.77 33.74L42.66 33.63L42.78 33.75Q42.92 36.33 44.16 37.41L44.04 37.29L44.14 37.40Q45.47 38.57 48.06 38.61L47.93 38.49L47.92 38.47Q49.39 38.49 50.11 38.19L50.20 38.28L51.23 37.78L51.22 37.77Q51.78 37.57 52.35 37.49L52.29 37.44L52.40 37.55Q52.50 39.21 52.88 40.50L52.92 40.55L52.94 40.56Q52.61 40.84 50.82 41.18ZM54.09 44.15L54.11 44.17L54.11 44.17Q54.52 44.23 55.35 44.31L55.37 44.32L55.43 44.38Q56.00 44.35 56.35 43.78L56.35 43.78L56.30 43.73Q55.05 41.61 54.56 39.51L54.60 39.55L54.53 39.48Q54.28 39.54 53.82 39.54L53.77 39.48L53.90 39.62Q53.45 39.59 53.07 39.78L53.10 39.81L53.07 39.78Q52.69 38.48 52.53 37.07L52.53 37.06L52.57 37.11Q51.89 36.96 50.68 37.54L50.63 37.49L50.68 37.54Q49.44 38.09 48.94 38.09L48.92 38.06L48.99 38.13Q48.44 38.07 47.83 38.04L47.84 38.05L48.00 38.20Q47.01 38.09 45.03 37.52L45.12 37.61L45.02 37.52Q44.65 36.76 44.69 35.62L44.63 35.56L44.66 35.59Q45.00 31.51 49.95 30.98L49.78 30.81L49.83 30.86Q50.60 30.95 51.97 31.29L51.86 31.18L51.95 31.27Q53.21 31.51 53.94 31.47L54.10 31.63L54.04 31.57Q54.45 29.31 55.13 27.49L55.21 27.57L55.07 27.43Q54.66 27.29 54.28 27.21L54.28 27.20L53.64 27.25L53.51 27.12Q53.73 26.66 54.11 25.78L54.16 25.83L54.09 25.75Q52.55 25.40 50.99 25.40L50.99 25.40L51.17 25.58Q48.71 25.52 44.34 25.90L44.23 25.79L44.26 25.83Q42.44 26.10 40.88 27.09L40.78 27.00L40.80 27.02Q39.54 27.92 39.54 29.83L39.66 29.94L39.60 29.88Q39.50 30.21 39.62 31.43L39.66 31.47L39.67 31.48Q39.70 32.46 39.66 33.07L39.77 33.18L39.70 33.10Q39.74 35.01 40.46 38.74L40.43 38.71L40.60 38.88Q40.79 39.53 41.29 40.02L41.40 40.14L41.51 40.24L41.71 40.41L41.59 40.28Q42.62 42.42 46.54 43.03L46.65 43.14L46.68 43.17Q49.69 43.51 52.35 43.78L52.42 43.85L52.47 43.90Q53.26 43.96 54.17 44.23Z"/></svg>