<svg xmlns="http://www.w3.org/2000/svg" width="150" height="50" viewBox="0,0,150,50"><path fill="#444" d="M124.19 27.11L124.27 27.19L124.19 27.12Q125.06 27.18 126.46 27.03L126.38 26.95L126.44 27.00Q126.36 27.61 126.36 28.25L126.39 28.29L126.37 29.52L126.35 29.50Q125.49 29.48 124.65 29.55L124.65 29.55L124.74 29.64Q123.97 29.75 123.13 29.71L123.00 29.58L123.13 29.71Q120.26 35.86 116.84 40.47L116.72 40.35L116.88 40.51Q114.20 40.99 112.90 41.60L112.90 41.59L112.97 41.67Q117.11 35.99 120.16 29.71L120.21 29.76L117.42 29.59L117.41 29.58Q117.56 28.40 117.44 27.06L117.34 26.96L117.38 27.01Q119.24 27.11 121.30 27.11L121.38 27.20L123.17 23.39L123.25 23.47Q124.33 21.66 125.55 20.06L125.39 19.90L125.47 19.98Q123.97 20.19 122.37 20.19L122.31 20.13L122.31 20.13Q116.13 20.04 112.36 17.83L112.40 17.87L111.79 16.20L111.75 16.16Q111.45 15.37 111.07 14.49L111.00 14.41L111.11 14.53Q115.48 17.19 121.19 17.42L121.04 17.27L121.15 17.37Q126.20 17.52 131.34 15.54L131.31 15.51L131.48 15.68Q131.16 15.97 130.67 16.84L130.73 16.90L130.80 16.98Q127.18 21.73 124.33 27.25ZM132.39 18.33L132.26 18.21L133.27 16.20L133.30 16.23Q132.26 16.65 130.59 17.37L130.61 17.39L130.91 17.20L130.88 17.16Q130.91 16.93 131.02 16.81L131.10 16.89L131.02 16.81Q131.41 16.14 132.13 14.80L132.20 14.87L132.18 14.85Q126.81 17.10 121.06 16.87L121.10 16.90L121.09 16.90Q115.05 16.60 110.29 13.63L110.41 13.75L110.36 13.70Q111.30 15.48 112.14 18.15L112.29 18.30L112.20 18.20Q113.38 18.93 114.18 19.24L114.21 19.27L114.03 19.09Q114.22 19.47 114.68 21.33L114.74 21.39L114.82 21.48Q117.97 22.72 123.49 22.57L123.37 22.45L123.37 22.45Q123.16 23.11 121.18 26.88L121.07 26.77L121.20 26.90Q119.16 26.92 117.18 26.73L117.05 26.60L117.14 26.68Q117.18 27.49 117.18 28.36L117.18 28.37L117.11 30.00L118.89 30.11L118.87 31.50L118.88 31.51Q114.93 38.87 112.15 42.45L112.17 42.46L112.13 42.42Q113.79 41.72 115.42 41.23L115.29 41.09L115.35 41.15Q114.71 42.11 113.34 43.83L113.42 43.90L113.37 43.86Q116.39 42.62 118.83 42.39L118.85 42.41L118.96 42.51Q121.78 38.64 124.90 31.86L125.01 31.97L128.42 32.14L128.37 32.09Q128.29 31.17 128.29 30.26L128.28 30.25L128.33 28.51L128.26 28.44Q128.03 28.48 127.48 28.52L127.45 28.49L127.42 28.46Q126.91 28.54 126.65 28.54L126.73 28.63L126.66 28.56Q126.61 28.39 126.65 28.24L126.69 28.28L126.68 28.01L126.79 28.11Q129.18 22.85 132.27 18.21Z"/><path fill="#222" d="M95.05 29.84L95.11 29.90L95.05 29.84Q94.83 29.84 94.52 29.84L94.58 29.90L94.59 29.91Q93.11 29.76 91.66 30.60L91.82 30.75L91.66 30.59Q90.37 31.74 90.37 33.65L90.39 33.66L90.43 33.70Q90.33 37.03 91.85 38.36L91.94 38.45L91.94 38.45Q92.84 39.58 95.13 39.58L95.22 39.67L95.22 39.68Q95.48 39.71 95.79 39.71L95.65 39.58L95.74 39.67Q97.36 39.57 98.50 37.93L98.57 38.00L98.59 38.02Q99.68 36.55 99.60 34.77L99.52 34.68L99.49 34.65Q99.69 34.32 99.69 33.90L99.68 33.89L99.62 33.83Q99.55 31.97 98.18 30.81L98.27 30.90L98.22 30.85Q96.84 29.68 95.05 29.84ZM99.56 40.02L99.55 40.01L99.68 40.14Q98.64 42.03 94.91 42.14L94.90 42.14L94.94 42.17Q91.42 42.15 89.82 40.55L89.89 40.63L89.81 40.55Q88.45 38.88 87.65 34.08L87.64 34.08L87.55 33.98Q87.28 32.26 87.28 31.01L87.30 31.03L87.34 31.07Q87.27 29.22 88.00 28.15L88.03 28.19L87.98 28.13Q89.46 26.87 92.42 26.87L92.30 26.74L92.44 26.89Q98.59 26.71 100.49 29.30L100.64 29.44L100.50 29.31Q100.73 28.54 101.15 26.95L101.26 27.06L101.28 27.08Q102.47 26.71 104.91 25.91L104.83 25.84L104.80 25.81Q102.44 31.52 102.21 37.84L102.12 37.75L102.27 37.89Q102.07 44.09 104.20 49.91L104.01 49.72L104.09 49.80Q102.39 49.20 100.60 48.94L100.57 48.91L100.52 48.86Q99.64 44.93 99.53 39.98ZM100.29 49.20L100.43 49.34L100.27 49.18Q101.15 49.49 102.56 49.79L102.52 49.76L102.47 49.70Q102.73 50.45 103.30 51.86L103.26 51.83L103.20 51.77Q105.82 52.52 108.11 53.82L108.22 53.93L108.15 53.86Q104.15 47.31 104.15 38.78L104.08 38.72L104.07 38.70Q104.01 32.29 106.49 26.50L106.53 26.54L106.59 26.60Q105.88 26.89 104.51 27.53L104.51 27.53L104.51 27.53Q104.78 26.69 105.42 25.13L105.49 25.20L105.51 25.22Q103.89 25.69 100.69 26.57L100.84 26.72L100.78 26.66Q100.68 27.24 100.38 28.42L100.31 28.36L100.33 28.38Q98.35 26.51 92.22 26.36L92.22 26.36L92.11 26.25Q89.07 26.33 87.70 27.82L87.65 27.76L87.62 27.74Q86.90 28.92 86.94 30.82L86.96 30.84L86.85 30.73Q86.96 33.74 87.95 37.51L88.02 37.57L87.92 37.48Q88.65 39.96 89.56 40.91L89.56 40.90L89.92 41.27L90.02 41.36Q91.05 43.99 96.49 44.22L96.51 44.24L96.52 44.25Q97.63 44.37 99.46 44.07L99.48 44.09L99.33 43.94Q99.68 46.91 100.29 49.20ZM96.85 32.06L96.95 32.15L97.02 32.22Q98.00 32.14 98.84 32.44L98.88 32.49L98.89 32.50Q99.04 32.98 99.15 33.59L99.25 33.69L99.27 33.72Q99.24 34.14 99.16 34.75L99.10 34.69L99.25 34.83Q99.22 36.71 98.19 38.00L98.07 37.88L98.08 37.89Q97.07 39.47 95.21 39.28L95.16 39.24L95.14 39.21Q93.93 39.30 92.98 38.88L92.99 38.89L92.84 38.74Q92.56 38.01 92.56 36.79L92.53 36.76L92.60 36.83Q92.57 36.49 92.57 36.18L92.55 36.17L92.59 36.20Q92.61 34.48 93.94 33.32L93.82 33.19L93.79 33.17Q95.19 32.07 96.94 32.15Z"/><path fill="#111" d="M45.58 28.94L45.61 28.97L45.53 28.89Q42.93 28.84 41.91 30.02L41.98 30.10L42.00 30.11Q40.89 31.22 40.89 33.84L41.05 34.00L40.89 33.84Q41.02 39.07 45.63 38.88L45.66 38.92L45.55 38.81Q47.70 39.05 49.05 37.49L49.05 37.48L49.08 37.52Q50.34 35.87 50.11 33.81L50.12 33.81L50.04 33.74Q50.22 31.37 49.35 30.35L49.31 30.31L49.34 30.33Q47.75 28.90 45.54 28.90ZM50.64 38.75L50.68 38.80L50.51 38.63Q49.39 41.16 44.71 41.16L44.81 41.26L43.35 41.25L43.38 41.28Q40.95 41.21 39.85 40.07L39.88 40.10L39.90 40.12Q38.75 38.97 38.48 36.57L38.48 36.57L38.62 36.71Q38.31 35.07 38.24 33.28L38.32 33.37L38.32 33.36Q38.29 32.39 38.14 30.44L38.05 30.36L38.11 30.41Q37.99 26.11 43.17 26.11L43.09 26.03L44.63 26.01L44.82 26.20Q47.65 26.13 49.74 27.43L49.79 27.48L49.73 27.41Q50.50 27.88 51.00 28.57L50.98 28.55L51.06 28.63Q51.35 27.85 51.88 26.21L51.79 26.13L51.83 26.17Q53.04 25.96 55.36 25.35L55.30 25.29L55.36 25.35Q52.76 29.57 52.76 34.82L52.84 34.91L52.76 34.83Q52.70 38.50 54.07 41.58L54.14 41.64L54.20 41.71Q53.06 41.40 51.16 41.17L51.10 41.12L51.01 41.03Q50.80 40.18 50.50 38.61ZM53.92 43.94L53.82 43.84L56.13 44.51L56.05 44.43Q57.32 44.79 58.31 45.24L58.24 45.18L58.24 45.18Q54.58 40.83 54.58 34.74L54.76 34.92L54.58 34.74Q54.58 30.21 56.72 26.41L56.81 26.50L56.71 26.40Q56.23 26.80 54.90 27.18L54.77 27.05L54.87 27.15Q55.10 26.28 55.98 24.75L55.96 24.74L56.01 24.79Q55.55 25.09 51.55 25.93L51.41 25.78L50.96 27.73L50.88 27.65Q49.14 25.95 44.73 25.72L44.70 25.70L44.59 25.59Q43.57 25.71 41.33 25.87L41.36 25.90L41.30 25.84Q37.59 26.17 37.71 30.20L37.77 30.27L37.79 30.28Q37.95 33.64 38.52 38.09L38.48 38.06L38.41 38.40L38.38 38.38Q38.55 39.27 39.35 40.37L39.48 40.50L39.32 40.34Q39.53 40.55 39.72 40.67L39.72 40.66L39.77 40.72Q39.91 41.08 40.29 41.65L40.42 41.79L40.46 41.82Q41.71 43.19 45.10 43.38L45.15 43.43L45.17 43.45Q46.77 43.52 46.92 43.52L47.07 43.67L48.49 43.54L48.48 43.52Q51.81 43.65 53.03 42.09L52.92 41.99L53.02 42.09Q53.27 42.60 53.88 43.90ZM47.37 31.19L47.30 31.11L47.39 31.20Q48.73 31.21 49.56 31.66L49.54 31.64L49.43 31.53Q49.85 32.44 49.85 33.89L49.86 33.90L49.86 33.90Q50.01 35.77 48.74 37.19L48.67 37.13L48.73 37.19Q47.44 38.60 45.54 38.41L45.66 38.54L45.66 38.53Q44.08 38.40 43.05 37.98L43.13 38.06L43.17 38.10Q42.99 37.27 42.99 36.05L42.93 35.99L42.80 35.87Q43.01 32.42 45.64 31.47L45.63 31.46L45.55 31.38Q46.49 31.10 47.29 31.10Z"/><path fill="#333" d="M64.49 15.91L64.37 15.79L64.44 15.86Q66.31 20.70 66.88 25.87L66.90 25.90L67.00 26.00Q70.61 21.77 76.51 16.93L76.53 16.94L76.42 16.84Q79.77 16.68 82.39 15.88L82.28 15.76L75.78 21.45L75.81 21.48Q72.30 24.32 69.44 27.18L69.41 27.15L69.43 27.17Q77.41 36.33 82.47 41.05L82.46 41.03L82.62 41.20Q79.40 40.15 77.08 39.99L77.10 40.02L77.13 40.05Q71.38 34.68 67.08 28.85L67.10 28.87L67.02 28.80Q67.13 35.42 65.27 40.75L65.24 40.71L65.21 40.69Q65.10 40.85 64.61 41.04L64.57 41.01L64.58 41.20L64.57 41.19Q64.37 41.22 61.82 42.14L61.84 42.15L61.86 42.17Q64.71 35.51 64.37 28.04L64.31 27.99L64.45 28.13Q64.06 20.73 60.52 14.22L60.57 14.27L61.11 14.55L61.52 14.84L61.56 14.84L61.50 14.78Q62.30 15.24 64.51 15.93ZM64.79 15.64L64.69 15.54L64.77 15.62Q62.41 14.97 59.78 13.45L59.77 13.43L59.82 13.48Q64.08 20.75 64.08 29.70L64.01 29.63L64.19 29.81Q64.10 36.72 61.13 42.78L61.19 42.83L63.22 41.97L63.09 41.84Q62.67 42.83 61.99 44.13L62.06 44.20L62.15 44.29Q64.28 43.37 66.22 42.95L66.35 43.08L66.38 42.89L66.36 42.87Q66.71 42.91 67.28 42.76L67.29 42.76L67.27 42.74Q68.79 36.69 68.90 31.90L68.88 31.87L68.91 31.90Q71.12 34.53 72.95 36.40L72.78 36.23L72.91 36.36Q74.02 37.39 77.02 40.36L77.09 40.42L77.08 40.42L77.05 40.38Q78.09 41.24 79.96 42.84L79.98 42.86L79.85 42.73Q83.86 43.58 87.32 45.29L87.24 45.21L87.24 45.21Q78.05 36.74 71.80 29.31L71.74 29.25L71.80 29.31Q76.13 24.96 84.89 16.36L84.97 16.44L84.95 16.42Q82.43 17.59 80.41 17.97L80.44 18.00L80.34 17.90Q81.63 16.99 83.96 14.97L83.90 14.92L83.84 14.86Q79.74 16.28 76.39 16.47L76.41 16.48L76.42 16.50Q73.49 18.70 68.61 23.38L68.57 23.34L68.66 23.43Q68.18 20.74 67.61 18.19L67.71 18.29L67.71 18.29Q66.50 18.11 65.51 17.77L65.51 17.76L65.51 17.76Q65.32 17.05 64.75 15.60Z"/><path fill="#222" d="M18.49 40.37L18.47 40.35L18.43 40.31Q17.05 40.42 15.49 40.00L15.48 39.99L15.42 39.92Q14.36 39.18 14.21 37.54L14.20 37.53L14.03 37.36Q14.16 37.34 14.35 34.71L14.22 34.58L14.30 34.65Q15.35 34.49 17.37 34.11L17.32 34.06L17.13 34.83L17.05 34.74Q16.94 36.65 18.35 37.22L18.26 37.14L18.33 37.20Q18.98 37.40 21.08 37.40L21.15 37.47L21.24 37.57Q22.79 37.36 22.98 37.28L22.96 37.27L23.03 37.33Q23.89 37.13 24.62 36.64L24.62 36.64L24.58 36.60Q25.97 35.63 25.78 33.54L25.89 33.65L25.73 33.49Q25.55 31.06 23.82 29.50L23.79 29.47L23.89 29.57Q22.24 28.09 19.76 28.09L19.68 28.00L19.58 27.68L19.63 27.73Q20.05 27.74 20.93 27.66L20.89 27.62L20.99 27.72Q22.85 27.56 24.22 26.33L24.17 26.27L24.12 26.22Q25.54 25.04 25.70 23.17L25.75 23.23L25.67 23.15Q25.86 22.92 25.86 22.57L25.78 22.49L25.74 22.46Q25.85 21.05 24.48 20.14L24.36 20.01L24.49 20.14Q23.32 19.39 21.72 19.50L21.72 19.50L21.61 19.39Q20.37 19.30 19.15 19.72L19.16 19.73L19.19 19.75Q17.76 20.30 17.45 21.44L17.41 21.39L17.33 21.32Q17.11 22.05 17.19 22.81L17.23 22.85L17.32 22.94Q16.23 22.65 14.17 21.93L14.21 21.97L14.22 21.98Q13.86 20.17 13.90 19.34L13.91 19.35L14.01 19.44Q14.14 17.93 15.20 17.25L15.18 17.22L15.11 17.16Q16.53 16.55 18.12 16.55L18.09 16.52L18.22 16.65Q21.27 16.51 24.43 16.77L24.48 16.82L24.55 16.89Q29.46 17.15 29.16 20.92L29.14 20.91L29.31 21.08Q29.15 22.48 28.66 24.04L28.58 23.96L28.67 24.05Q27.80 27.18 25.44 28.09L25.32 27.97L25.44 28.10Q27.92 28.48 28.53 31.83L28.54 31.84L28.72 32.03Q28.92 33.13 28.99 35.15L28.87 35.03L28.83 34.99Q29.05 39.51 24.45 39.97L24.43 39.95L24.43 39.95Q23.66 39.98 18.37 40.25ZM23.71 42.63L23.62 42.53L23.63 42.54Q24.20 42.54 27.05 42.61L27.14 42.70L27.17 42.73Q28.95 42.83 30.59 42.19L30.56 42.16L30.48 42.08Q31.65 41.12 31.46 39.37L31.53 39.44L31.56 39.47Q31.47 38.16 31.17 36.41L31.18 36.43L31.08 36.32Q30.43 31.90 28.49 30.27L28.50 30.28L28.33 29.92L28.14 29.69L28.22 29.77Q30.03 28.38 30.79 24.00L30.82 24.03L30.62 23.84Q30.71 23.43 30.82 22.47L30.85 22.50L30.95 22.61Q30.86 21.67 30.78 20.99L30.90 21.10L30.85 21.05Q30.70 19.38 29.40 18.70L29.48 18.77L29.35 18.72L29.42 18.79Q29.11 17.79 27.97 17.26L27.86 17.16L27.96 17.26Q26.41 16.55 21.28 16.24L21.15 16.12L21.24 16.21Q19.62 16.19 18.03 16.19L17.89 16.05L17.99 16.15Q16.40 16.16 14.88 16.81L14.86 16.80L14.91 16.84Q13.59 17.50 13.59 19.25L13.55 19.21L13.68 19.34Q13.60 18.85 13.87 22.20L13.98 22.31L13.82 22.15Q14.26 22.36 15.90 22.97L15.83 22.90L15.84 22.91Q15.91 23.52 15.87 24.01L15.78 23.92L15.87 24.01Q15.72 24.36 15.76 24.89L15.85 24.98L15.87 25.00Q17.54 25.26 19.56 25.38L19.62 25.44L19.61 25.43Q19.49 23.36 20.59 22.52L20.57 22.51L20.62 22.56Q21.48 21.93 23.50 21.70L23.60 21.80L23.46 21.66Q24.76 21.82 25.33 22.01L25.31 21.99L25.26 21.94Q25.23 21.98 25.26 22.09L25.26 22.09L25.30 22.32L25.51 22.99L25.43 22.91Q25.46 23.13 25.42 23.28L25.32 23.18L25.43 23.29Q25.40 25.05 23.88 26.23L23.83 26.18L23.75 26.10Q22.85 27.03 20.83 27.22L20.90 27.28L20.90 27.28Q20.06 27.32 19.19 27.32L19.26 27.40L19.30 27.44Q19.33 27.78 19.49 28.46L19.55 28.52L19.45 28.42Q21.14 28.37 22.59 29.09L22.63 29.13L22.53 29.15L20.97 29.34L20.88 29.25Q21.03 29.70 21.14 30.31L21.11 30.27L21.15 30.32Q23.27 30.23 24.98 31.56L25.01 31.58L24.99 31.56Q25.26 31.99 25.56 33.62L25.51 33.57L25.44 33.51Q25.77 36.57 22.83 36.99L22.75 36.90L22.80 36.95Q20.63 37.15 20.06 37.11L20.14 37.19L20.01 37.06Q19.74 37.13 19.21 37.05L19.07 36.92L19.20 36.59L19.19 36.00L19.28 35.68L19.37 35.43L19.20 35.26Q18.34 35.42 17.54 35.61L17.58 35.66L17.57 35.64Q17.41 35.30 17.41 35.11L17.43 35.12L17.55 35.25Q17.61 35.08 17.61 34.85L17.54 34.78L17.63 34.86Q17.67 34.45 17.82 33.72L17.78 33.68L17.65 33.55Q15.95 33.94 14.08 34.29L14.03 34.23L13.94 34.14Q14.05 34.75 13.94 35.87L13.85 35.79L13.94 35.88Q13.73 36.91 13.73 37.52L13.84 37.62L13.83 37.62Q13.85 39.62 15.22 40.38L15.14 40.29L15.26 40.41Q16.62 42.58 21.34 42.39L21.45 42.49L21.40 42.44Q22.23 42.51 23.75 42.66Z"/></svg>