<svg xmlns="http://www.w3.org/2000/svg" width="150" height="50" viewBox="0,0,150,50"><path fill="#444" d="M96.53 41.31L96.61 41.38L96.66 41.44Q93.61 41.43 92.35 40.90L92.47 41.02L92.49 41.04Q90.44 40.13 90.52 37.66L90.60 37.74L90.62 37.76Q90.82 34.41 90.82 34.99L90.74 34.91L90.67 34.83Q90.79 29.63 87.94 24.80L87.94 24.80L87.91 24.77Q89.87 25.70 91.85 26.08L91.78 26.01L91.89 26.13Q93.64 30.77 93.53 35.26L93.50 35.24L93.49 35.22Q93.37 36.74 94.20 37.95L94.19 37.94L94.04 37.79Q94.98 39.15 96.50 38.96L96.56 39.02L96.95 38.91L97.03 38.99Q98.24 38.80 99.06 38.04L99.04 38.01L99.09 38.06Q99.85 37.25 99.85 36.29L99.89 36.33L99.84 36.29Q99.86 36.07 99.82 35.88L99.85 35.91L99.83 35.89Q99.80 30.68 100.94 26.34L100.94 26.34L100.90 26.30Q101.89 26.19 102.88 25.96L102.86 25.94L105.04 25.60L104.92 25.48Q102.36 30.50 102.66 36.06L102.68 36.07L102.74 36.14Q102.96 39.25 101.25 40.39L101.30 40.44L101.17 40.31Q99.86 41.17 96.55 41.32ZM98.88 43.74L98.95 43.81L98.95 43.81Q102.33 43.87 104.16 43.11L104.30 43.25L104.23 43.18Q105.20 42.48 105.20 41.07L105.06 40.93L105.10 40.97Q105.09 40.05 104.82 38.48L104.81 38.47L104.87 38.53Q104.33 35.33 104.71 32.32L104.70 32.31L104.78 32.39Q105.13 29.20 106.54 26.46L106.50 26.42L106.57 26.49Q106.02 26.89 104.68 27.30L104.59 27.22L104.49 27.11Q104.75 26.53 105.05 25.96L105.13 26.04L105.74 24.94L105.64 24.84Q103.69 25.48 100.53 25.97L100.60 26.04L100.63 26.07Q99.27 30.73 99.42 35.83L99.59 35.99L99.55 35.95Q99.66 38.08 97.00 38.58L97.00 38.58L96.68 38.71L96.51 38.70L95.55 38.54L95.39 38.38Q95.38 37.56 95.41 37.07L95.51 37.17L95.40 37.05Q95.58 32.52 94.90 28.10L94.83 28.03L93.83 27.94L93.97 28.08Q93.33 27.94 92.79 27.82L92.87 27.90L92.73 27.76Q92.44 26.44 92.17 25.68L92.27 25.78L92.10 25.61Q89.31 25.18 87.07 23.89L87.21 24.04L87.10 23.93Q89.29 27.48 90.02 30.87L90.10 30.95L90.06 30.92Q90.42 32.99 90.27 36.49L90.28 36.51L90.28 36.51Q90.47 36.81 90.39 37.91L90.39 37.91L90.32 37.83Q90.07 40.11 91.44 41.06L91.58 41.20L91.48 41.09Q91.90 43.37 98.90 43.75Z"/><path fill="#222" d="M46.59 40.22L46.57 40.20L44.07 33.25L44.14 33.32Q39.78 20.74 33.85 14.35L33.88 14.38L33.83 14.33Q35.79 15.34 38.38 15.95L38.40 15.97L38.50 16.07Q43.60 22.31 47.94 35.07L47.89 35.01L47.84 34.97Q50.89 26.87 51.58 25.27L51.72 25.41L51.68 25.37Q54.00 19.69 56.82 16.38L56.83 16.39L56.85 16.41Q58.94 16.06 61.56 15.19L61.55 15.18L61.52 15.14Q57.03 19.83 53.98 27.06L54.02 27.10L53.95 27.03Q52.58 30.72 48.88 40.24L48.86 40.21L48.75 40.10Q48.29 40.21 47.72 40.17L47.75 40.20L47.74 40.20Q47.11 40.13 46.54 40.17ZM51.50 42.54L51.62 42.67L51.54 42.59Q54.40 32.65 55.96 28.62L55.93 28.59L55.99 28.64Q58.92 20.88 63.33 16.01L63.38 16.05L63.33 16.00Q62.29 16.37 60.19 17.09L60.18 17.07L61.46 15.88L61.46 15.89Q61.85 15.01 62.46 14.37L62.49 14.40L62.58 14.49Q59.66 15.38 56.65 15.95L56.63 15.92L56.70 16.00Q52.30 21.31 48.42 32.77L48.38 32.73L48.47 32.82Q44.85 22.73 41.65 18.35L41.60 18.29L41.64 18.33Q41.18 18.18 40.31 18.03L40.33 18.05L40.25 17.98Q40.15 17.72 38.55 15.67L38.56 15.67L38.47 15.58Q35.48 14.84 32.77 13.43L32.85 13.51L32.92 13.57Q39.42 20.53 43.80 33.32L43.76 33.28L43.91 33.43Q44.98 36.94 46.16 40.52L46.30 40.66L46.23 40.59Q46.64 40.69 47.47 40.58L47.46 40.57L47.51 40.61Q47.85 41.30 48.54 42.63L48.40 42.49L48.58 42.67Q49.37 42.55 50.09 42.62L50.04 42.57L50.14 42.67Q50.72 42.53 51.48 42.53Z"/><path fill="#111" d="M15.10 41.15L15.02 41.07L14.99 41.04Q18.26 36.89 24.96 28.97L24.83 28.84L24.98 28.98Q19.04 29.18 15.27 27.81L15.20 27.73L15.20 27.74Q14.62 26.39 13.86 24.98L13.71 24.84L13.78 24.91Q17.97 26.50 22.42 26.54L22.31 26.43L22.41 26.53Q26.81 26.52 31.00 25.45L31.00 25.45L30.97 25.42Q30.56 26.08 30.29 26.61L30.35 26.67L30.35 26.66Q27.84 28.92 25.03 32.53L25.07 32.58L20.06 38.69L20.08 38.71Q22.36 38.55 24.60 38.62L24.51 38.53L24.56 38.58Q26.65 38.54 28.89 38.92L29.01 39.03L29.05 39.07Q29.11 39.59 29.83 41.60L29.88 41.65L29.85 41.62Q26.18 40.85 22.18 40.96L22.23 41.01L22.13 40.91Q18.14 40.99 14.49 42.17L14.47 42.16L14.42 42.11Q14.61 42.07 15.07 41.12ZM13.90 42.77L13.97 42.84L14.01 42.88Q14.77 42.53 16.37 42.12L16.35 42.10L16.27 42.01Q16.01 42.21 15.59 42.63L15.70 42.74L15.69 42.73Q15.52 43.35 14.91 44.50L14.75 44.34L14.91 44.50Q19.48 43.02 24.47 43.17L24.63 43.33L24.47 43.17Q29.49 43.39 34.05 45.26L33.97 45.17L34.02 45.22Q32.52 43.30 31.60 41.24L31.78 41.43L31.70 41.34Q30.96 41.05 29.89 40.82L29.94 40.88L29.80 40.74Q29.64 40.05 29.26 38.60L29.23 38.57L29.25 38.59Q27.76 38.32 24.18 38.20L24.21 38.23L24.24 38.26Q26.59 34.90 31.62 28.54L31.52 28.44L31.65 28.58Q31.84 27.77 32.52 26.44L32.54 26.45L30.23 27.20L30.27 27.23Q30.29 27.10 30.44 26.98L30.46 27.01L30.64 26.80L30.68 26.85Q31.20 25.84 31.77 24.89L31.61 24.73L31.73 24.85Q27.05 26.19 22.33 26.11L22.35 26.13L22.39 26.17Q17.45 25.95 12.96 24.12L12.97 24.13L13.03 24.20Q14.23 26.08 15.03 28.14L14.99 28.10L14.98 28.09Q15.84 28.42 16.91 28.68L16.82 28.60L16.96 28.74Q17.17 29.44 17.48 30.89L17.50 30.91L17.51 30.92Q19.01 31.08 22.32 31.24L22.36 31.28L22.34 31.26Q19.85 34.48 14.68 40.92L14.73 40.97L14.69 40.93Q14.47 41.55 13.90 42.77Z"/><path fill="#111" d="M71.84 41.28L71.86 41.30L71.86 41.30Q68.95 41.44 67.69 40.90L67.80 41.01L67.82 41.03Q65.85 40.20 65.93 37.73L65.91 37.71L65.93 37.74Q66.13 34.39 66.13 34.96L66.07 34.91L66.00 34.84Q65.98 29.48 63.12 24.65L63.17 24.69L63.23 24.76Q65.09 25.59 67.07 25.97L67.15 26.05L67.11 26.01Q68.88 30.68 68.77 35.17L68.81 35.21L68.76 35.16Q68.58 36.62 69.42 37.84L69.55 37.96L69.51 37.93Q70.44 39.28 71.96 39.08L71.98 39.10L72.32 38.95L72.26 38.89Q73.61 38.82 74.42 38.06L74.49 38.13L74.40 38.04Q75.31 37.37 75.31 36.42L75.30 36.40L75.29 36.39Q75.32 36.20 75.28 36.01L75.18 35.91L75.22 35.95Q75.03 30.58 76.17 26.24L76.27 26.34L76.26 26.33Q77.29 26.25 78.28 26.03L78.27 26.02L80.33 25.56L80.25 25.49Q77.82 30.63 78.12 36.18L77.99 36.05L78.08 36.14Q78.18 39.14 76.47 40.28L76.48 40.29L76.62 40.43Q75.14 41.12 71.83 41.27ZM74.15 43.67L74.24 43.76L74.30 43.82Q77.78 43.99 79.61 43.23L79.45 43.07L79.55 43.17Q80.46 42.41 80.46 41.00L80.40 40.94L80.41 40.94Q80.40 40.02 80.13 38.46L80.16 38.49L80.20 38.52Q79.82 35.49 80.20 32.48L80.15 32.43L80.13 32.40Q80.43 29.16 81.83 26.42L81.96 26.55L81.88 26.47Q81.26 26.79 79.92 27.21L79.97 27.26L79.91 27.19Q80.25 26.70 80.55 26.12L80.55 26.13L81.04 24.90L80.95 24.81Q79.16 25.61 76.00 26.10L76.00 26.11L75.85 25.96Q74.78 30.90 74.94 36.01L74.89 35.96L74.88 35.95Q74.84 37.93 72.18 38.43L72.20 38.45L71.99 38.69L71.69 38.54L70.76 38.41L70.85 38.51Q70.64 37.50 70.68 37.00L70.72 37.04L70.73 37.06Q71.02 32.62 70.34 28.21L70.22 28.09L69.18 27.97L69.30 28.09Q68.78 28.06 68.25 27.95L68.17 27.87L68.18 27.88Q67.78 26.45 67.51 25.69L67.52 25.69L67.49 25.67Q64.64 25.18 62.40 23.88L62.51 23.99L62.42 23.91Q64.71 27.57 65.43 30.95L65.38 30.90L65.42 30.95Q65.85 33.09 65.70 36.59L65.63 36.52L65.78 36.67Q65.64 36.64 65.56 37.75L65.59 37.78L65.60 37.78Q65.52 40.22 66.89 41.17L66.93 41.21L66.86 41.14Q67.30 43.44 74.30 43.82Z"/><path fill="#222" d="M124.81 30.99L124.72 30.89L124.81 30.99Q124.83 29.49 124.01 28.57L124.05 28.61L124.00 28.56Q123.08 27.55 121.64 27.59L121.80 27.75L121.62 27.57Q119.29 27.64 118.46 29.77L118.64 29.96L118.48 29.79Q118.35 30.73 118.31 31.42L118.22 31.33L118.21 31.32Q118.09 36.26 117.18 40.60L117.06 40.49L117.10 40.52Q115.42 41.05 113.56 42.04L113.47 41.96L113.52 42.01Q115.82 35.06 115.55 27.75L115.55 27.74L115.53 27.73Q115.25 20.36 112.69 13.54L112.82 13.67L112.67 13.52Q114.43 14.82 116.45 15.51L116.48 15.54L116.50 15.56Q117.92 21.32 118.11 27.18L118.25 27.32L118.08 27.15Q119.59 25.20 122.29 25.27L122.38 25.36L122.38 25.36Q127.30 25.30 127.42 30.66L127.38 30.63L127.47 30.72Q127.70 36.50 129.07 41.15L128.89 40.97L129.02 41.10Q127.08 40.19 125.33 39.99L125.30 39.97L125.47 40.14Q124.78 36.71 124.67 30.85ZM125.10 40.41L125.04 40.36L125.09 40.41Q126.14 40.54 127.24 40.81L127.16 40.72L127.22 40.78Q127.30 40.97 127.83 42.95L127.68 42.81L127.77 42.89Q130.81 43.91 132.82 45.36L132.83 45.36L132.82 45.36Q130.08 39.53 129.55 33.21L129.59 33.25L129.48 33.15Q129.25 29.53 127.84 27.97L127.71 27.83L127.80 27.93Q127.70 27.75 127.05 27.29L127.13 27.37L127.12 27.36Q126.98 26.95 126.33 26.19L126.34 26.20L126.20 25.99L126.29 26.08Q125.49 25.27 122.37 25.01L122.29 24.93L122.33 24.96Q121.55 24.91 120.14 25.25L120.22 25.33L120.07 25.19Q119.83 20.30 119.48 17.78L119.62 17.91L119.60 17.90Q118.84 17.78 117.35 17.48L117.41 17.53L117.41 17.53Q117.26 16.81 116.99 15.33L116.91 15.25L116.87 15.21Q113.85 14.17 111.99 12.61L112.01 12.63L112.17 12.79Q115.11 19.92 115.38 27.73L115.25 27.59L115.31 27.66Q115.61 35.45 113.06 42.80L113.01 42.75L113.12 42.87Q113.88 42.10 115.02 41.60L115.11 41.69L114.36 43.95L114.35 43.94Q117.52 42.66 119.50 42.47L119.38 42.35L119.54 42.51Q119.96 36.94 120.15 32.99L120.32 33.16L120.15 32.99Q120.34 31.24 122.28 30.14L122.28 30.13L122.25 30.10Q122.78 29.88 123.32 29.91L123.22 29.82L123.29 29.89Q123.54 29.98 123.88 30.02L123.83 29.97L124.23 30.02L124.21 30.00Q124.23 30.41 124.34 30.87L124.32 30.84L124.29 30.81Q124.52 36.90 125.01 40.33Z"/></svg>