<svg xmlns="http://www.w3.org/2000/svg" width="150" height="50" viewBox="0,0,150,50"><path fill="#222" d="M103.60 37.83L103.64 37.87L103.76 37.99Q103.90 38.82 104.43 40.83L104.61 41.01L104.61 41.01Q100.35 39.65 95.74 39.91L95.62 39.78L95.58 39.75Q91.05 40.05 87.05 42.03L87.02 42.00L87.12 42.10Q87.27 41.34 87.31 41.42L87.45 41.55L87.31 41.41Q91.15 37.56 95.07 33.15L95.01 33.09L95.10 33.18Q99.40 28.08 100.58 23.40L100.57 23.38L100.54 23.35Q101.18 21.78 99.90 20.60L99.78 20.48L99.72 20.42Q98.62 19.41 96.83 19.56L96.79 19.53L96.84 19.57Q96.49 19.53 96.14 19.53L96.10 19.49L96.03 19.41Q94.57 19.48 93.32 20.39L93.23 20.31L93.22 20.30Q91.91 21.65 92.14 24.32L92.12 24.30L92.24 24.42Q90.36 23.99 89.14 23.53L89.17 23.56L89.16 23.54Q89.05 22.21 88.97 20.77L89.01 20.81L88.90 20.70Q88.88 19.12 89.49 17.98L89.48 17.97L89.55 18.04Q91.16 16.49 94.51 16.49L94.64 16.62L96.37 16.59L96.38 16.60Q98.58 16.55 99.53 16.67L99.52 16.66L99.64 16.78Q103.96 17.18 104.23 19.62L104.30 19.69L104.14 19.53Q104.30 20.18 104.22 20.98L104.29 21.05L104.26 21.02Q104.21 21.65 104.05 22.34L104.05 22.34L103.95 22.23Q102.28 30.31 94.70 37.16L94.78 37.23L94.89 37.34Q96.23 37.12 97.60 37.12L97.63 37.15L97.54 37.07Q100.72 37.01 103.58 37.81ZM103.20 17.18L103.15 17.13L103.12 17.10Q101.49 16.42 99.78 16.35L99.75 16.32L96.28 16.08L96.40 16.20Q91.83 15.82 89.62 16.92L89.78 17.09L89.67 16.98Q88.56 18.30 88.56 20.35L88.67 20.46L88.57 20.37Q88.62 21.10 88.92 23.92L89.03 24.03L89.01 24.00Q89.55 24.24 90.73 24.54L90.73 24.55L90.72 25.56L90.61 25.46Q90.68 26.02 90.76 26.55L90.65 26.44L90.75 26.55Q91.97 26.62 94.44 26.85L94.40 26.81L94.39 26.79Q94.45 26.51 94.45 26.17L94.46 26.18L94.32 26.04Q94.44 24.33 95.66 22.98L95.56 22.89L95.58 22.91Q96.80 21.55 98.59 21.66L98.61 21.69L98.70 21.77Q99.48 21.83 100.24 21.99L100.08 21.82L100.20 21.95Q100.19 22.20 100.26 22.62L100.41 22.76L100.36 22.71Q100.49 23.22 100.41 23.57L100.23 23.39L100.38 23.54Q99.08 28.25 94.66 33.08L94.73 33.15L94.60 33.02Q92.57 35.37 87.12 41.42L87.05 41.34L87.13 41.43Q86.95 42.27 86.61 42.84L86.47 42.70L86.57 42.80Q88.11 41.87 89.63 41.34L89.76 41.47L89.62 41.33Q89.01 42.01 88.06 43.49L87.91 43.35L88.07 43.50Q87.80 43.69 87.69 44.04L87.66 44.02L87.67 44.02Q92.70 42.12 98.18 42.32L98.08 42.21L98.08 42.21Q103.84 42.45 108.41 44.82L108.37 44.77L107.31 42.57L107.29 42.55Q106.75 41.33 106.48 40.53L106.41 40.46L106.53 40.57Q105.64 39.99 104.42 39.57L104.45 39.59L104.47 39.61Q104.44 39.01 104.06 37.64L103.93 37.51L103.97 37.56Q101.84 37.06 99.55 36.87L99.48 36.79L99.44 36.76Q104.11 32.18 105.64 23.92L105.73 24.01L105.84 21.04L105.86 21.06Q105.81 19.30 104.59 18.61L104.52 18.54L104.57 18.63L104.53 18.58Q104.47 18.49 104.39 18.49L104.38 18.48L104.48 18.58Q104.25 17.74 103.15 17.13Z"/><path fill="#222" d="M23.69 27.70L23.70 27.71L23.78 27.79Q20.27 27.70 19.17 31.05L19.07 30.96L19.09 30.98Q18.81 32.14 18.69 33.21L18.62 33.14L18.73 33.25Q18.34 35.10 19.33 36.43L19.35 36.45L19.48 36.58Q20.72 37.67 23.20 37.71L23.26 37.78L23.20 37.71Q25.03 37.76 26.44 36.62L26.34 36.51L26.35 36.53Q27.80 35.42 27.80 33.63L27.78 33.61L27.83 33.67Q27.92 33.41 27.84 33.03L27.71 32.90L27.75 32.94Q27.52 27.80 23.72 27.72ZM23.61 40.18L23.60 40.17L23.64 40.21Q19.91 40.51 18.12 38.49L18.05 38.43L18.11 38.49Q17.71 39.34 17.25 40.71L17.31 40.78L17.25 40.71Q15.38 41.55 14.13 42.12L14.14 42.13L14.06 42.05Q16.22 36.06 16.22 29.55L16.35 29.68L16.33 29.67Q16.40 21.44 12.98 13.60L12.88 13.50L12.96 13.58Q15.26 14.89 16.59 15.34L16.58 15.33L16.59 15.34Q18.58 21.86 18.73 27.69L18.74 27.70L18.88 27.83Q20.34 25.18 24.07 25.22L24.04 25.19L24.02 25.18Q27.26 25.22 28.75 27.08L28.79 27.12L28.70 27.04Q30.55 29.34 30.70 32.92L30.66 32.87L30.63 32.85Q30.74 34.06 30.66 35.66L30.57 35.57L30.58 35.58Q30.57 37.05 29.70 38.20L29.68 38.18L29.74 38.24Q28.03 39.99 23.69 40.26ZM29.09 42.69L29.06 42.66L29.20 42.80Q30.63 42.74 32.11 42.06L32.18 42.12L32.02 41.96Q33.18 40.73 33.22 38.79L33.27 38.83L33.28 38.85Q33.29 38.36 33.13 37.18L33.06 37.11L33.06 37.11Q33.00 36.44 32.89 35.52L32.97 35.61L32.93 35.57Q32.02 30.70 30.46 28.64L30.42 28.60L30.49 28.67Q30.59 28.73 29.79 27.86L29.79 27.86L29.79 27.86Q29.47 27.50 28.93 26.70L28.92 26.68L28.96 26.72Q27.37 24.79 24.02 24.83L24.08 24.89L24.10 24.91Q21.88 24.78 20.63 25.39L20.74 25.51L20.63 25.39Q20.27 20.85 19.66 17.65L19.78 17.77L19.68 17.67Q18.99 17.55 17.50 17.17L17.62 17.28L17.62 17.29Q17.38 16.44 16.92 14.99L16.91 14.98L16.83 14.89Q14.44 14.15 12.20 12.59L12.22 12.61L12.18 12.57Q15.91 20.72 15.91 29.51L16.02 29.62L16.07 29.67Q16.02 36.59 13.55 42.80L13.46 42.70L13.61 42.86Q14.14 42.36 15.48 41.79L15.52 41.84L15.52 41.83Q15.39 42.69 14.78 44.21L14.65 44.09L14.70 44.14Q16.73 43.28 19.51 42.74L19.38 42.61L19.92 40.94L19.87 40.89Q22.17 42.58 29.10 42.70ZM25.29 29.98L25.40 30.09L25.30 29.99Q26.45 30.11 26.98 30.49L26.86 30.37L26.95 30.46Q27.21 30.92 27.44 32.93L27.44 32.93L27.41 32.91Q27.65 34.82 26.39 36.13L26.47 36.21L26.33 36.07Q25.11 37.41 23.16 37.30L23.14 37.28L23.18 37.31Q22.33 37.53 20.84 37.03L20.88 37.07L20.71 36.90Q20.59 36.51 20.59 35.98L20.60 35.99L20.53 35.92Q20.51 32.82 22.07 31.22L22.04 31.19L22.03 31.21L22.19 31.37Q23.54 29.90 25.29 29.98Z"/><path fill="#333" d="M70.34 27.60L70.27 27.53L70.38 27.64Q68.20 27.71 66.92 29.21L66.89 29.18L66.90 29.19Q65.60 30.66 65.48 32.95L65.50 32.97L65.55 33.01Q65.41 35.66 66.25 36.61L66.23 36.58L66.16 36.52Q67.35 37.86 69.68 37.71L69.72 37.75L69.58 37.62Q74.30 37.38 74.68 34.38L74.63 34.33L74.69 34.39Q74.82 33.61 74.82 32.81L74.78 32.77L74.80 32.79Q74.68 30.68 73.54 29.16L73.48 29.11L73.49 29.11Q72.21 27.49 70.27 27.53ZM75.10 37.62L75.21 37.73L75.17 37.69Q73.74 39.87 69.36 40.10L69.47 40.21L69.36 40.10Q65.20 40.28 63.57 39.18L63.50 39.11L63.58 39.19Q62.54 38.19 62.38 36.47L62.49 36.58L62.40 36.49Q62.49 35.51 62.68 33.65L62.56 33.53L62.53 33.50Q63.06 29.23 64.28 27.40L64.23 27.36L64.35 27.47Q66.04 25.05 69.88 25.09L69.81 25.02L69.81 25.01Q72.30 25.04 74.59 27.36L74.52 27.29L74.67 27.44Q74.62 21.46 76.22 14.95L76.29 15.01L76.24 14.96Q78.11 14.51 79.97 13.67L80.09 13.79L80.07 13.76Q77.41 20.32 77.14 27.32L77.13 27.31L77.21 27.39Q76.93 34.57 79.06 41.16L78.93 41.03L79.00 41.10Q77.36 40.49 75.65 40.11L75.76 40.21L75.66 40.11Q75.33 38.80 75.18 37.69ZM78.17 43.12L78.30 43.25L78.30 43.25Q80.27 43.70 82.83 45.23L82.80 45.20L82.86 45.26Q79.22 38.27 79.06 29.97L78.97 29.87L79.08 29.98Q78.96 21.79 82.04 14.41L81.94 14.30L82.02 14.38Q81.29 14.80 79.85 15.45L79.75 15.35L79.91 15.51Q80.21 14.33 80.82 13.11L80.85 13.14L80.85 13.14Q78.46 14.21 76.02 14.78L75.94 14.70L75.94 14.70Q74.58 20.57 74.31 26.66L74.22 26.57L74.24 26.59Q72.29 24.72 69.78 24.60L69.85 24.68L69.87 24.70Q66.42 24.56 64.52 26.66L64.42 26.56L64.41 26.54Q62.77 28.98 62.35 33.66L62.26 33.57L62.24 33.55Q62.09 36.40 62.09 36.82L62.07 36.81L62.16 36.89Q62.11 38.52 63.25 39.58L63.26 39.60L63.32 39.65Q63.54 39.88 63.73 39.95L63.74 39.96L64.23 40.64L64.11 40.53Q65.16 41.95 68.13 42.22L68.17 42.26L68.09 42.17Q70.38 42.41 71.75 42.49L71.64 42.38L71.70 42.44Q75.89 42.63 77.60 41.30L77.57 41.27L77.62 41.31Q77.81 42.08 78.27 43.22ZM71.94 29.88L72.04 29.98L71.94 29.89Q73.07 29.99 73.91 30.48L73.90 30.48L73.86 30.44Q74.31 31.68 74.38 32.71L74.42 32.75L74.40 32.73Q74.75 37.00 69.73 37.35L69.60 37.22L69.60 37.21Q68.76 37.29 67.66 37.03L67.65 37.02L67.69 37.06Q67.46 36.45 67.39 35.92L67.33 35.86L67.33 35.86Q67.32 35.24 67.36 34.63L67.44 34.71L67.42 34.70Q67.66 31.21 70.29 30.22L70.36 30.29L70.23 30.16Q71.35 29.95 72.04 29.99Z"/><path fill="#111" d="M122.38 29.91L122.34 29.87L122.29 29.82Q119.76 29.69 118.43 30.91L118.50 30.98L118.42 30.90Q117.07 32.10 117.38 34.61L117.45 34.69L117.43 34.67Q117.72 37.17 118.94 38.43L119.02 38.50L119.00 38.48Q120.10 39.85 122.23 39.77L122.22 39.76L122.24 39.78Q122.72 39.69 122.91 39.69L123.05 39.83L122.92 39.70Q126.43 39.06 126.54 34.45L126.64 34.55L126.59 34.50Q126.75 32.22 126.06 31.42L126.00 31.36L125.91 31.27Q125.01 30.14 122.46 29.99ZM125.61 41.55L125.72 41.66L125.75 41.69Q124.40 42.25 122.84 42.17L122.80 42.13L122.83 42.16Q119.09 42.45 117.79 39.86L117.74 39.81L117.79 39.86Q117.45 45.04 116.12 49.31L116.18 49.37L116.20 49.38Q114.43 49.90 112.79 50.63L112.81 50.64L112.84 50.67Q115.38 44.68 115.11 37.72L115.03 37.63L114.98 37.58Q114.73 30.75 111.83 24.69L111.84 24.70L111.85 24.70Q113.80 25.90 115.52 26.36L115.51 26.35L116.02 27.82L115.96 27.76Q116.19 28.21 116.46 29.32L116.36 29.22L116.44 29.30Q117.51 27.29 121.09 27.10L121.03 27.04L121.08 27.08Q122.00 27.10 122.88 27.10L122.87 27.09L123.34 27.06L123.28 27.00Q123.43 27.04 123.62 27.08L123.61 27.07L123.81 26.97L123.97 27.12Q125.94 27.31 126.67 27.53L126.64 27.51L126.68 27.55Q128.27 28.11 129.15 29.06L129.00 28.91L129.01 28.92Q129.92 30.18 129.89 31.59L129.95 31.65L129.79 31.49Q129.85 34.41 129.05 37.07L129.09 37.11L129.18 37.20Q128.03 40.58 125.67 41.61ZM129.98 42.27L129.93 42.18L130.06 42.31Q131.11 40.28 131.42 36.17L131.46 36.21L131.43 36.18Q131.56 34.41 131.56 33.15L131.46 33.05L131.61 33.20Q131.53 31.60 130.77 30.19L130.75 30.17L130.72 30.14Q130.26 29.64 129.76 29.26L129.76 29.25L129.70 29.08L129.47 28.74L129.45 28.61L129.56 28.71Q127.70 26.55 123.36 26.55L123.33 26.52L122.70 26.50L122.87 26.67Q118.25 26.69 116.61 28.29L116.45 28.13L116.51 28.19Q116.40 27.74 116.25 27.24L116.10 27.09L115.91 26.11L115.87 26.07Q113.39 25.45 111.19 23.97L111.19 23.97L111.29 24.07Q114.36 30.19 114.67 37.43L114.74 37.50L114.76 37.52Q115.02 44.74 112.17 51.22L112.17 51.22L114.10 50.30L114.21 50.41Q113.89 51.07 113.20 52.63L113.27 52.70L113.16 52.59Q116.01 51.68 118.34 51.33L118.33 51.33L118.31 51.31Q119.28 46.34 119.43 42.61L119.43 42.61L119.56 42.73Q120.98 44.23 124.60 44.46L124.56 44.42L124.65 44.51Q128.43 44.60 129.87 42.16L129.87 42.15ZM124.26 32.14L124.22 32.09L124.30 32.17Q124.95 32.09 126.05 32.44L126.10 32.48L126.06 32.45Q126.34 33.45 126.30 34.63L126.27 34.60L126.20 34.53Q126.30 35.55 126.11 36.19L125.98 36.06L126.01 36.09Q125.42 39.11 122.90 39.42L122.92 39.43L123.04 39.44L122.87 39.27Q122.85 39.33 122.74 39.36L122.80 39.43L122.17 39.33L122.14 39.30Q121.05 39.39 120.06 38.89L120.09 38.93L119.73 36.85L119.71 36.83Q119.57 34.53 120.87 33.50L120.80 33.43L120.94 33.57Q121.84 32.38 124.24 32.11Z"/><path fill="#333" d="M49.43 39.93L49.31 39.80L49.44 39.93Q47.42 39.82 45.40 40.01L45.40 40.00L45.38 39.99Q45.96 34.67 45.96 29.83L46.05 29.92L46.02 29.89Q45.99 24.95 45.35 19.74L45.35 19.74L45.40 19.79Q40.77 19.35 37.57 17.68L37.70 17.80L36.95 16.02L36.82 15.89Q36.75 15.52 36.14 14.30L36.14 14.30L36.07 14.23Q41.16 16.93 47.18 17.12L47.19 17.13L47.19 17.13Q53.02 17.25 58.47 15.19L58.58 15.31L58.50 15.23Q57.85 16.71 57.20 18.54L57.10 18.44L57.16 18.50Q53.59 19.83 49.33 20.02L49.18 19.88L49.34 20.04Q48.98 24.89 48.98 29.84L48.99 29.85L49.04 29.90Q49.05 34.86 49.35 39.85ZM59.18 14.54L59.27 14.62L59.15 14.51Q53.34 16.81 47.14 16.62L47.22 16.71L47.07 16.55Q40.56 16.51 35.46 13.54L35.37 13.45L35.37 13.46Q36.05 14.67 37.35 17.94L37.41 18.00L37.42 18.02Q38.15 18.40 39.40 18.97L39.34 18.91L39.34 18.90Q39.54 19.57 39.89 21.09L39.93 21.14L39.94 21.14Q42.26 22.02 45.31 22.25L45.19 22.14L45.22 22.16Q45.68 25.93 45.68 29.70L45.57 29.59L45.57 29.59Q45.66 35.05 44.86 40.42L44.85 40.41L44.80 40.36Q46.49 40.26 47.03 40.26L46.98 40.22L47.02 40.25Q47.01 40.55 46.95 41.22L47.05 41.32L47.00 41.27Q47.00 41.99 47.00 42.33L46.95 42.28L46.90 42.22Q48.21 42.29 49.74 42.36L49.63 42.26L49.57 42.20Q50.65 42.40 52.48 42.55L52.47 42.54L52.34 42.42Q51.23 37.62 51.12 32.44L51.08 32.40L51.12 32.44Q50.88 27.02 51.42 22.11L51.51 22.21L51.40 22.10Q55.50 21.71 58.66 20.49L58.64 20.47L58.58 20.41Q59.34 18.08 60.37 16.03L60.25 15.92L60.26 15.92Q59.01 16.69 58.21 17.00L58.20 16.99L58.16 16.94Q58.67 15.74 59.24 14.60Z"/></svg>