<svg xmlns="http://www.w3.org/2000/svg" width="150" height="50" viewBox="0,0,150,50"><path fill="#333" d="M48.93 32.23L39.55 22.09L39.69 22.23Q40.44 25.83 40.44 29.56L40.47 29.59L40.45 29.57Q40.44 35.54 38.38 41.10L38.29 41.01L38.38 41.09Q37.31 41.36 35.07 42.12L35.11 42.17L35.14 42.20Q37.86 36.31 37.86 29.61L37.85 29.61L37.92 29.67Q37.85 20.96 33.35 13.53L33.45 13.63L33.48 13.66Q33.77 13.69 34.46 14.10L34.41 14.06L34.52 14.17Q46.63 25.40 54.47 34.65L54.42 34.60L54.37 34.55Q54.06 32.10 54.06 29.67L54.19 29.80L54.24 29.85Q54.08 22.46 56.59 16.25L56.58 16.23L56.63 16.29Q59.00 15.81 60.60 15.12L60.53 15.05L60.67 15.19Q57.22 21.22 56.91 28.37L56.90 28.36L56.98 28.44Q56.62 35.73 59.59 41.90L59.59 41.90L59.67 41.98Q59.12 41.92 58.70 41.73L58.73 41.77L58.59 41.63Q53.98 37.62 48.76 32.06L48.81 32.11ZM62.27 45.15L62.17 45.05L62.25 45.14Q62.74 45.32 63.16 45.51L63.12 45.47L64.01 45.86L63.97 45.82Q58.75 38.82 58.75 29.45L58.88 29.58L58.79 29.49Q58.75 22.21 62.06 15.97L62.19 16.10L62.13 16.04Q61.48 16.27 60.07 16.88L60.16 16.97L60.15 16.95Q60.57 16.15 61.40 14.59L61.32 14.51L61.23 14.42Q58.87 15.40 56.43 15.97L56.30 15.85L56.37 15.92Q53.86 22.50 53.86 29.93L53.75 29.82L53.69 29.76Q53.68 31.61 53.87 33.59L53.89 33.61L53.90 33.63Q49.29 27.98 44.53 23.38L44.49 23.33L34.53 13.75L34.49 13.72Q33.99 13.48 32.77 12.91L32.72 12.86L32.73 12.87Q37.52 20.52 37.52 29.62L37.63 29.72L37.60 29.69Q37.62 36.84 34.54 42.85L34.43 42.74L34.47 42.78Q34.76 42.66 36.40 42.05L36.48 42.13L36.43 42.08Q36.16 42.91 35.32 44.39L35.36 44.43L35.25 44.33Q36.66 43.86 40.12 43.06L40.06 43.01L40.12 43.06Q42.47 36.96 42.47 29.77L42.33 29.62L42.46 29.76Q42.43 27.63 42.20 25.50L42.07 25.37L42.12 25.42Q53.65 38.29 62.26 45.14Z"/><path fill="#111" d="M95.48 29.71L95.45 29.69L95.52 29.75Q91.34 29.57 90.77 32.62L90.74 32.58L90.67 32.52Q90.47 33.57 90.66 34.45L90.68 34.47L90.74 34.52Q90.79 35.34 91.25 36.75L91.20 36.70L91.14 36.64Q92.36 39.95 95.67 39.80L95.68 39.81L95.65 39.78Q97.54 39.73 98.87 38.17L98.92 38.21L99.04 38.34Q100.08 36.67 100.08 34.61L100.11 34.65L100.13 34.67Q100.31 34.12 100.15 33.05L100.26 33.16L100.15 33.05Q100.05 32.12 99.63 31.43L99.64 31.44L99.62 31.41Q98.00 29.76 95.41 29.64ZM100.32 48.18L100.30 48.16L100.40 48.27Q98.55 48.81 90.48 49.19L90.50 49.21L90.47 49.18Q88.79 49.25 87.16 48.42L87.15 48.41L87.07 48.33Q87.90 47.38 89.73 45.59L89.71 45.57L89.69 45.55Q92.13 46.61 94.22 46.42L94.31 46.52L94.33 46.53Q97.15 46.19 97.99 45.93L97.99 45.92L97.97 45.91Q100.34 45.34 100.34 43.55L100.21 43.42L100.17 43.39Q100.23 43.22 100.15 42.99L100.19 43.03L100.03 41.38L100.09 41.44Q100.01 40.60 100.01 39.80L100.09 39.88L100.06 39.85Q98.71 42.12 95.32 42.12L95.33 42.13L95.34 42.14Q91.43 42.10 89.79 39.90L89.72 39.82L89.72 39.83Q88.63 38.32 87.83 33.90L87.93 34.00L87.80 33.87Q87.50 32.36 87.50 30.95L87.47 30.92L87.66 31.11Q87.60 29.26 88.52 28.27L88.55 28.30L88.51 28.26Q90.16 26.83 94.80 26.83L94.87 26.89L96.61 27.08L96.51 26.97Q99.84 27.45 101.17 29.39L101.18 29.39L101.00 29.22Q101.30 28.49 101.72 26.85L101.67 26.80L101.71 26.84Q103.59 26.52 105.35 25.80L105.21 25.66L105.26 25.71Q102.64 31.85 102.64 39.08L102.56 39.00L102.64 39.08Q102.60 41.71 102.98 44.34L102.93 44.29L103.01 44.36Q103.23 45.08 103.15 45.76L103.09 45.70L103.07 45.68Q102.99 47.16 101.78 47.92L101.77 47.92L101.69 47.84Q101.17 48.08 100.33 48.19ZM103.33 51.15L103.29 51.12L103.29 51.11Q104.88 51.30 105.64 50.34L105.57 50.27L105.62 50.32Q105.85 49.26 105.74 48.54L105.76 48.55L105.71 48.51Q105.75 48.01 105.56 47.25L105.50 47.20L105.53 47.22Q104.28 41.98 104.62 36.72L104.64 36.74L104.63 36.74Q105.01 31.32 107.14 26.49L107.18 26.53L105.10 27.49L104.94 27.33Q105.32 26.88 105.55 26.31L105.56 26.32L105.92 25.04L106.05 25.17Q103.57 26.00 101.36 26.42L101.34 26.40L101.31 26.36Q101.02 27.25 100.86 28.28L100.98 28.40L100.99 28.41Q98.73 26.33 94.69 26.33L94.82 26.47L93.01 26.41L93.07 26.47Q89.69 26.32 88.01 27.73L88.01 27.72L88.09 27.81Q87.11 28.73 87.15 30.64L87.23 30.71L87.32 30.81Q87.32 33.24 88.35 37.51L88.43 37.58L88.39 37.55Q88.86 39.47 90.08 40.87L90.02 40.81L90.25 41.04L90.35 41.14L90.27 41.06Q91.58 43.55 94.17 44.08L94.03 43.95L94.12 44.04Q95.57 44.39 97.02 44.42L96.94 44.35L96.84 44.25Q98.78 44.47 99.85 44.09L99.84 44.09L99.67 43.92Q99.04 45.46 96.38 45.80L96.56 45.98L96.45 45.87Q95.49 46.14 94.81 46.14L94.78 46.11L94.32 46.02L94.38 46.09Q91.49 46.01 89.81 45.06L89.90 45.15L88.05 46.72L88.12 46.79Q87.39 47.74 86.55 48.69L86.57 48.70L86.49 48.63Q87.51 49.19 88.49 49.38L88.43 49.31L87.56 50.19L87.67 50.30Q90.28 51.28 95.92 51.28L95.83 51.19L96.12 51.25L96.11 51.25Q99.67 51.19 103.25 51.08ZM97.34 32.00L97.48 32.14L97.47 32.12Q98.67 31.95 99.59 32.37L99.63 32.41L99.52 32.31Q99.85 32.94 99.93 33.63L99.77 33.47L99.85 33.55Q99.93 33.89 99.89 34.81L99.94 34.85L99.90 34.82Q99.75 36.65 98.65 37.94L98.59 37.89L98.72 38.02Q97.46 39.34 95.55 39.30L95.62 39.37L95.59 39.34Q94.11 39.23 93.27 38.81L93.40 38.94L93.22 38.76Q92.89 37.67 92.85 36.64L92.92 36.71L92.95 36.74Q92.86 32.42 97.47 32.12Z"/><path fill="#222" d="M126.24 41.00L126.16 40.92L126.18 40.94Q124.92 39.30 123.63 36.22L123.66 36.25L121.55 31.14L121.40 30.98Q119.81 34.99 119.20 36.28L119.35 36.44L119.19 36.28Q117.76 39.22 116.16 41.12L116.15 41.11L116.20 41.16Q115.83 41.18 115.07 41.29L115.14 41.36L115.08 41.30Q115.14 33.94 109.31 28.00L109.28 27.96L109.19 27.87Q107.58 26.19 105.56 24.70L105.38 24.52L105.57 24.71Q107.40 25.24 109.26 25.55L109.27 25.56L109.30 25.58Q115.33 30.52 116.78 36.76L116.74 36.72L116.68 36.65Q117.71 34.94 118.89 31.74L118.72 31.58L118.79 31.65Q120.23 27.98 120.80 26.69L120.81 26.70L122.12 26.60L122.04 26.52Q123.01 28.34 124.20 31.61L124.14 31.55L124.11 31.52Q125.48 35.22 126.13 36.63L126.12 36.62L126.14 36.64Q127.87 30.26 133.36 25.70L133.52 25.86L133.52 25.86Q134.69 25.73 137.43 25.16L137.46 25.19L137.35 25.08Q128.74 31.13 127.56 41.11L127.60 41.14L126.82 40.89L126.87 40.94Q126.46 40.84 126.12 40.88ZM129.16 43.39L131.32 43.68L131.25 43.61Q130.86 42.01 130.86 40.49L130.84 40.47L130.84 40.46Q130.95 37.34 132.36 34.10L132.28 34.03L132.30 34.05Q134.28 29.51 138.39 26.43L138.49 26.53L138.49 26.53Q137.11 26.64 135.25 26.98L135.28 27.02L135.41 27.14Q137.37 25.48 138.66 24.57L138.65 24.56L136.17 25.05L136.16 25.04Q134.82 25.14 133.49 25.29L133.56 25.36L133.55 25.36Q128.26 29.47 126.32 34.50L126.49 34.67L126.50 34.67Q125.84 32.49 124.47 28.23L124.36 28.12L124.37 28.13Q124.01 28.11 123.75 28.11L123.81 28.18L123.37 28.27L123.33 28.23Q123.19 27.90 122.39 26.15L122.35 26.11L120.42 26.24L120.35 26.16Q119.36 28.94 117.26 34.58L117.29 34.60L117.32 34.64Q115.98 30.93 112.90 27.66L112.77 27.53L112.79 27.56Q112.56 27.59 112.26 27.55L112.24 27.54L111.82 27.57L111.81 27.56Q110.89 26.68 109.10 25.08L109.15 25.13L109.15 25.13Q105.88 24.37 104.20 23.88L104.20 23.88L104.25 23.92Q114.95 31.35 114.57 41.67L114.68 41.78L114.53 41.63Q114.80 41.71 115.16 41.67L115.08 41.59L115.08 41.59Q115.53 41.64 115.72 41.64L115.65 41.57L115.71 41.63Q115.79 41.56 115.99 43.65L115.93 43.60L117.89 43.46L117.77 43.35Q120.43 40.60 122.67 34.85L122.66 34.83L122.74 34.91Q124.12 38.66 125.99 41.32L126.12 41.45L125.96 41.30Q126.44 41.43 126.71 41.45L126.63 41.37L126.53 41.27Q126.96 41.46 127.23 41.46L127.10 41.33L129.23 43.46Z"/><path fill="#111" d="M23.24 40.09L23.37 40.22L23.34 40.19Q21.52 40.17 19.85 40.74L19.80 40.69L19.75 40.64Q20.31 37.05 20.42 33.93L20.40 33.91L20.40 33.90Q20.53 30.87 20.30 27.22L20.33 27.25L20.23 27.15Q18.86 26.81 18.10 26.43L18.24 26.57L17.85 23.55L17.86 23.56Q18.49 24.07 20.09 24.64L20.17 24.73L20.08 24.64Q19.97 22.62 19.55 19.88L19.39 19.73L19.43 19.77Q21.84 20.58 23.48 20.42L23.32 20.26L23.37 25.04L23.22 24.89Q24.69 24.87 26.02 24.38L25.97 24.32L26.06 24.42Q26.02 25.33 25.80 27.08L25.87 27.15L25.83 27.12Q24.21 27.36 23.19 27.36L23.25 27.43L23.22 27.40Q23.15 29.50 23.15 33.77L23.25 33.86L23.31 33.92Q23.21 37.97 23.29 40.14ZM26.56 23.92L26.51 23.87L26.43 23.79Q26.15 23.90 25.55 24.13L25.52 24.10L26.05 21.47L25.92 21.34Q25.15 21.67 23.74 21.90L23.70 21.87L23.75 21.91Q23.79 21.27 23.95 19.90L23.93 19.89L24.00 19.96Q23.37 20.01 22.80 20.01L22.67 19.88L22.78 19.99Q20.66 20.00 19.02 19.28L18.96 19.21L18.86 19.12Q19.36 21.60 19.63 24.07L19.65 24.09L19.81 24.26Q18.79 23.77 17.27 22.74L17.37 22.84L17.42 22.89Q17.70 24.12 17.93 26.83L17.94 26.84L17.87 26.77Q18.38 27.05 19.56 27.47L19.48 27.39L19.54 27.45Q19.48 27.99 19.51 29.40L19.57 29.46L19.89 29.43L20.15 29.62L20.10 29.57Q20.14 30.79 20.14 31.97L20.20 32.03L20.08 31.91Q20.12 36.90 19.32 41.24L19.43 41.35L19.27 41.19Q19.46 41.08 21.40 40.54L21.45 40.59L21.54 40.68Q21.58 41.37 21.47 42.74L21.36 42.64L21.40 42.67Q22.27 42.67 23.07 42.67L23.09 42.68L23.08 42.68Q24.71 42.60 26.35 43.17L26.40 43.22L26.38 43.19Q24.94 37.38 25.13 29.46L25.16 29.49L27.67 29.22L27.66 29.21Q27.69 28.25 27.77 27.22L27.68 27.14L27.88 25.13L28.03 25.28Q27.30 25.39 26.12 25.84L26.17 25.89L26.24 25.97Q26.55 24.64 26.48 24.30L26.42 24.24L26.42 24.24Q26.44 24.07 26.52 23.88Z"/><path fill="#111" d="M70.40 27.67L70.32 27.58L70.45 27.71Q68.17 27.68 66.89 29.18L66.81 29.10L66.96 29.25Q65.65 30.72 65.54 33.00L65.48 32.95L65.50 32.96Q65.40 35.64 66.23 36.59L66.19 36.55L66.13 36.49Q67.29 37.80 69.61 37.65L69.72 37.76L69.60 37.63Q74.23 37.32 74.61 34.31L74.55 34.25L74.72 34.42Q74.71 33.49 74.71 32.69L74.67 32.66L74.78 32.77Q74.67 30.68 73.53 29.16L73.66 29.28L73.65 29.28Q72.32 27.61 70.38 27.65ZM75.20 37.72L75.25 37.77L75.10 37.62Q73.80 39.93 69.42 40.16L69.43 40.17L69.43 40.16Q65.10 40.18 63.46 39.07L63.47 39.09L63.46 39.07Q62.57 38.22 62.42 36.51L62.53 36.62L62.48 36.57Q62.33 35.35 62.52 33.48L62.68 33.64L62.62 33.59Q63.03 29.20 64.24 27.37L64.31 27.43L64.23 27.36Q65.90 24.91 69.74 24.95L69.78 24.99L69.79 24.99Q72.40 25.13 74.68 27.45L74.68 27.45L74.62 27.39Q74.65 21.48 76.24 14.97L76.24 14.96L76.34 15.07Q78.29 14.69 80.16 13.85L80.07 13.77L80.14 13.84Q77.47 20.38 77.21 27.39L77.24 27.42L77.17 27.35Q76.80 34.45 78.94 41.03L78.97 41.07L78.99 41.08Q77.37 40.49 75.66 40.11L75.78 40.23L75.69 40.15Q75.43 38.90 75.28 37.80ZM78.20 43.16L78.18 43.13L78.19 43.14Q80.42 43.85 82.97 45.37L82.86 45.27L82.79 45.19Q79.09 38.14 78.94 29.84L78.97 29.88L78.97 29.88Q78.95 21.79 82.04 14.40L82.02 14.38L82.07 14.44Q81.37 14.88 79.92 15.52L79.82 15.42L79.77 15.37Q80.16 14.27 80.76 13.05L80.84 13.13L80.79 13.07Q78.45 14.20 76.01 14.77L75.94 14.70L75.99 14.75Q74.55 20.54 74.28 26.64L74.22 26.58L74.32 26.67Q72.36 24.79 69.85 24.67L69.71 24.53L69.89 24.71Q66.39 24.53 64.49 26.63L64.56 26.70L64.46 26.60Q62.84 29.05 62.42 33.73L62.25 33.56L62.24 33.55Q62.09 36.41 62.09 36.83L61.99 36.72L61.99 36.73Q62.08 38.49 63.22 39.56L63.35 39.69L63.37 39.71Q63.56 39.90 63.76 39.98L63.61 39.83L64.23 40.64L64.12 40.53Q65.05 41.85 68.02 42.11L68.05 42.14L68.06 42.15Q70.28 42.31 71.65 42.39L71.69 42.43L71.74 42.48Q75.88 42.62 77.60 41.29L77.51 41.20L77.55 41.25Q77.69 41.96 78.15 43.10ZM71.92 29.87L72.01 29.96L72.03 29.98Q73.08 30.00 73.92 30.49L73.78 30.35L73.85 30.42Q74.24 31.61 74.31 32.64L74.34 32.67L74.33 32.66Q74.63 36.88 69.60 37.22L69.74 37.36L69.63 37.24Q68.84 37.37 67.74 37.10L67.66 37.03L67.72 37.09Q67.42 36.41 67.34 35.87L67.45 35.98L67.45 35.98Q67.27 35.19 67.30 34.58L67.49 34.76L67.35 34.63Q67.60 31.15 70.23 30.16L70.30 30.22L70.41 30.34Q71.35 29.95 72.04 29.99Z"/></svg>