<svg xmlns="http://www.w3.org/2000/svg" width="150" height="50" viewBox="0,0,150,50"><path fill="#222" d="M46.10 29.66L46.12 29.69L46.08 29.65Q41.99 29.55 41.42 32.60L41.43 32.60L41.49 32.67Q41.20 33.63 41.39 34.51L41.41 34.53L41.40 34.52Q41.47 35.35 41.93 36.76L41.79 36.63L41.86 36.69Q42.93 39.86 46.25 39.71L46.32 39.78L46.36 39.82Q48.37 39.90 49.71 38.34L49.70 38.33L49.71 38.34Q50.80 36.72 50.80 34.67L50.92 34.79L50.85 34.72Q50.96 34.10 50.80 33.04L50.78 33.01L50.80 33.04Q50.81 32.21 50.40 31.53L50.38 31.51L50.41 31.54Q48.77 29.86 46.18 29.75ZM51.09 48.28L50.98 48.18L50.94 48.14Q49.11 48.70 41.04 49.08L41.09 49.13L41.00 49.04Q39.44 49.24 37.80 48.40L37.85 48.44L37.83 48.42Q38.57 47.37 40.39 45.58L40.39 45.58L40.44 45.63Q42.92 46.74 45.01 46.55L45.03 46.56L44.85 46.39Q47.77 46.14 48.61 45.88L48.75 46.02L48.64 45.91Q50.86 45.20 50.86 43.41L50.90 43.45L50.94 43.49Q50.85 43.17 50.77 42.94L50.87 43.04L50.85 41.53L50.83 41.51Q50.64 40.56 50.64 39.76L50.62 39.75L50.68 39.80Q49.29 42.03 45.90 42.03L45.88 42.00L46.02 42.14Q42.06 42.07 40.42 39.86L40.42 39.86L40.36 39.80Q39.25 38.27 38.45 33.86L38.45 33.85L38.56 33.97Q38.33 32.51 38.33 31.11L38.24 31.02L38.31 31.09Q38.31 29.29 39.22 28.31L39.12 28.20L39.08 28.17Q40.80 26.80 45.45 26.80L45.44 26.80L47.32 27.12L47.14 26.94Q50.52 27.46 51.85 29.40L51.76 29.31L51.80 29.35Q51.96 28.48 52.38 26.85L52.28 26.75L52.40 26.86Q54.28 26.54 56.03 25.81L55.95 25.73L55.89 25.67Q53.25 31.79 53.25 39.02L53.29 39.07L53.25 39.02Q53.32 41.76 53.70 44.39L53.63 44.32L53.70 44.39Q53.92 45.10 53.84 45.78L53.78 45.72L53.81 45.75Q53.52 47.02 52.30 47.78L52.43 47.91L52.33 47.81Q51.89 48.13 51.05 48.24ZM54.03 51.19L54.07 51.23L54.07 51.23Q55.41 51.15 56.17 50.20L56.32 50.36L56.32 50.36Q56.66 49.40 56.55 48.68L56.53 48.66L56.54 48.67Q56.40 48.00 56.21 47.24L56.18 47.21L56.20 47.23Q54.95 41.98 55.30 36.73L55.28 36.72L55.34 36.78Q55.66 31.31 57.79 26.47L57.84 26.52L55.69 27.41L55.64 27.37Q55.98 26.87 56.21 26.30L56.19 26.27L56.65 25.10L56.69 25.15Q54.32 26.09 52.11 26.50L52.12 26.51L52.02 26.41Q51.65 27.22 51.50 28.25L51.65 28.41L51.59 28.34Q49.45 26.39 45.41 26.39L45.39 26.36L43.65 26.38L43.73 26.46Q40.51 26.47 38.83 27.88L38.72 27.77L38.82 27.87Q37.76 28.72 37.80 30.62L37.96 30.78L37.94 30.76Q37.89 33.14 38.92 37.41L38.94 37.43L39.07 37.56Q39.50 39.44 40.72 40.84L40.75 40.88L40.91 41.04L41.02 41.15L41.02 41.14Q42.11 43.42 44.70 43.95L44.75 44.00L44.70 43.95Q46.20 44.34 47.64 44.38L47.59 44.33L47.63 44.37Q49.35 44.38 50.42 44.00L50.47 44.04L50.47 44.05Q49.87 45.62 47.20 45.96L47.19 45.95L47.19 45.95Q46.07 46.04 45.38 46.04L45.37 46.03L45.02 46.06L44.96 46.00Q42.25 46.10 40.57 45.15L40.58 45.16L38.77 46.77L38.77 46.77Q38.02 47.70 37.18 48.66L37.23 48.70L37.12 48.59Q38.05 49.07 39.04 49.26L39.16 49.38L38.29 50.25L38.15 50.12Q41.04 51.36 46.67 51.36L46.55 51.24L46.87 51.34L46.80 51.26Q50.37 51.22 53.95 51.10ZM48.12 32.11L48.09 32.07L48.00 31.99Q49.36 31.98 50.27 32.39L50.25 32.37L50.20 32.32Q50.56 32.98 50.63 33.66L50.47 33.50L50.57 33.60Q50.60 33.90 50.56 34.82L50.62 34.87L50.60 34.85Q50.52 36.75 49.41 38.04L49.36 37.99L49.33 37.96Q48.22 39.44 46.32 39.40L46.22 39.30L46.26 39.34Q44.74 39.20 43.90 38.78L43.90 38.78L44.00 38.87Q43.63 37.74 43.59 36.72L43.51 36.64L43.53 36.66Q43.39 32.29 48.00 31.98Z"/><path fill="#111" d="M94.94 28.62L95.02 28.70L94.98 28.66Q92.05 28.55 91.29 30.80L91.44 30.95L91.41 30.92Q91.20 31.66 91.09 32.30L91.00 32.22L91.04 32.26Q93.58 32.40 95.21 32.40L95.34 32.52L95.24 32.42Q96.92 32.46 99.50 32.35L99.53 32.37L99.47 32.31Q99.35 30.59 97.94 29.52L98.02 29.61L98.06 29.65Q96.82 28.72 95.03 28.72ZM94.98 41.15L95.01 41.18L94.95 41.12Q90.88 41.28 89.59 39.87L89.44 39.72L89.53 39.81Q88.47 38.26 88.32 34.98L88.35 35.01L88.35 35.02Q88.45 34.88 88.37 33.51L88.41 33.55L88.30 33.43Q88.20 31.17 88.20 30.45L88.11 30.36L88.14 30.39Q88.13 28.51 88.85 27.41L88.83 27.39L88.89 27.44Q90.33 26.07 93.30 26.07L93.17 25.94L94.75 25.96L94.87 26.08Q96.90 26.05 98.42 26.35L98.45 26.39L98.42 26.35Q100.37 26.71 101.36 27.92L101.39 27.95L101.50 28.06Q102.01 29.03 102.09 31.13L102.15 31.19L102.22 31.26Q102.09 32.27 102.13 34.44L102.15 34.46L102.24 34.55Q99.31 34.51 96.53 34.51L96.45 34.43L90.90 34.48L91.01 34.59Q91.19 39.03 95.26 38.80L95.20 38.74L95.19 38.73Q99.02 38.60 100.24 36.77L100.15 36.69L100.08 36.61Q101.04 37.24 102.64 38.42L102.55 38.32L102.62 38.39Q101.27 40.82 97.12 41.08L97.10 41.06L97.11 41.07Q96.33 41.05 94.96 41.13ZM97.24 43.45L97.36 43.57L97.26 43.46Q98.31 43.38 99.53 43.45L99.55 43.47L99.64 43.56Q104.63 43.76 105.55 40.98L105.46 40.89L105.58 41.02Q103.86 39.68 102.76 38.91L102.73 38.89L102.88 39.03Q102.97 38.56 103.16 38.33L103.23 38.39L103.24 38.40Q102.50 37.93 101.13 36.98L101.02 36.87L101.00 36.85Q102.12 36.94 104.18 37.25L104.25 37.33L104.28 37.35Q104.02 35.91 103.94 35.22L104.05 35.33L103.74 33.23L103.85 33.35Q103.59 30.87 102.94 29.39L102.93 29.37L102.92 29.37Q102.75 29.12 102.18 28.52L102.10 28.43L102.10 28.44Q102.00 28.18 101.77 27.61L101.78 27.62L101.70 27.53Q99.98 25.67 94.92 25.67L94.78 25.53L93.08 25.51L93.08 25.50Q89.88 25.54 88.43 27.02L88.47 27.06L88.42 27.01Q87.83 28.21 87.87 30.26L87.89 30.29L87.74 30.14Q87.93 31.25 88.05 33.49L88.06 33.50L88.07 33.51Q88.13 35.10 88.24 37.15L88.28 37.19L88.14 37.05Q88.47 39.36 89.35 40.43L89.30 40.38L89.38 40.46Q89.44 40.52 89.63 40.64L89.77 40.77L90.09 41.43L90.00 41.34Q90.72 43.14 97.31 43.52ZM95.28 38.40L95.16 38.28L95.20 38.32Q94.05 38.43 93.14 37.97L93.18 38.01L93.18 38.01Q93.10 37.59 92.91 36.90L92.96 36.96L92.93 36.93Q94.62 36.83 96.22 36.83L96.10 36.71L96.20 36.81Q97.81 36.75 99.49 36.86L99.45 36.83L99.42 36.79Q98.25 38.25 95.24 38.37ZM96.91 31.05L96.89 31.03L96.83 30.96Q97.56 31.09 98.89 31.47L98.85 31.42L98.89 31.66L98.98 31.94L98.97 31.92Q97.62 32.06 96.71 32.02L96.75 32.07L96.70 32.02Q94.44 32.00 94.40 32.00L94.35 31.95L94.49 32.10Q95.20 31.13 96.88 31.01Z"/><path fill="#444" d="M79.81 30.36L79.79 30.33L79.73 30.27Q79.91 29.96 79.87 29.54L79.87 29.53L79.88 29.55Q79.86 29.23 79.56 29.04L79.39 28.86L79.41 28.89Q78.85 28.47 77.97 28.63L77.80 28.46L77.97 28.63Q76.80 28.53 75.17 29.63L75.15 29.62L75.25 29.71Q73.69 30.48 73.69 31.66L73.78 31.75L73.84 31.80Q73.76 32.98 73.76 36.29L73.70 36.24L73.72 36.26Q73.77 38.89 73.92 40.91L73.91 40.89L73.79 40.78Q72.09 40.79 72.09 40.79L72.10 40.80L72.11 40.81Q71.10 40.76 70.38 40.84L70.55 41.01L70.55 41.01Q70.95 38.47 71.02 36.22L70.89 36.09L70.86 36.06Q71.19 31.59 70.54 30.30L70.52 30.28L70.42 30.18Q70.28 29.73 69.71 29.43L69.64 29.36L69.59 29.30Q68.84 28.67 67.28 28.56L67.14 28.42L67.24 28.52Q65.24 28.31 64.71 29.91L64.67 29.87L64.71 29.91Q64.44 30.29 64.56 30.79L64.65 30.88L64.71 30.93Q65.29 33.61 64.95 36.39L64.90 36.34L65.00 36.44Q64.65 39.21 63.24 41.65L63.20 41.61L63.32 41.73Q62.16 41.75 60.07 42.17L60.14 42.24L60.18 42.28Q62.55 38.90 62.55 34.60L62.67 34.72L62.53 34.58Q62.60 28.79 58.57 24.56L58.60 24.60L58.59 24.58Q59.32 24.86 60.27 25.09L60.26 25.08L61.95 25.43L62.06 25.55Q62.55 26.19 63.43 27.87L63.40 27.84L63.33 27.76Q63.61 25.99 66.04 25.95L65.92 25.83L65.90 25.81Q66.14 25.86 67.13 25.93L67.09 25.90L67.13 25.94Q72.19 26.31 73.33 29.13L73.21 29.01L73.32 29.12Q74.87 26.29 79.89 25.75L80.03 25.89L80.00 25.86Q80.75 25.74 81.63 25.85L81.61 25.84L81.67 25.89Q83.85 26.06 83.70 27.62L83.72 27.63L83.76 27.68Q83.57 28.21 83.30 28.97L83.24 28.92L83.29 28.96Q81.94 32.03 82.17 35.57L82.07 35.47L82.18 35.57Q82.31 38.99 84.22 41.80L84.25 41.83L84.26 41.85Q82.64 41.56 80.81 41.33L80.76 41.27L80.79 41.30Q79.49 38.68 79.30 35.90L79.39 35.98L79.31 35.91Q79.14 33.08 79.79 30.33ZM80.60 41.73L80.58 41.70L80.44 41.57Q81.32 41.80 82.66 41.99L82.56 41.90L82.52 41.86Q83.03 42.56 84.17 43.97L84.24 44.04L84.21 44.00Q87.14 44.57 89.23 45.22L89.18 45.16L89.27 45.26Q84.30 41.40 84.04 34.89L84.07 34.91L83.88 34.73Q83.90 32.73 84.51 30.83L84.47 30.79L84.42 30.74Q84.69 29.91 84.69 29.18L84.77 29.26L84.79 29.28Q84.76 28.34 84.15 27.76L84.10 27.71L84.10 27.68L84.15 27.73Q84.21 27.21 84.13 26.72L84.11 26.70L84.08 26.67Q83.97 26.14 83.51 25.87L83.51 25.87L83.55 25.91Q82.82 25.37 81.95 25.33L81.86 25.25L82.03 25.42Q79.07 25.20 76.41 26.15L76.40 26.15L76.43 26.17Q74.48 26.89 73.30 28.30L73.25 28.25L73.27 28.26Q71.72 25.80 66.89 25.46L67.02 25.59L66.87 25.45Q66.28 25.50 65.86 25.50L65.88 25.53L65.76 25.40Q63.79 25.49 63.18 26.74L63.20 26.76L63.10 26.67Q62.76 26.13 62.08 25.07L62.22 25.21L62.19 25.19Q59.78 24.71 57.80 24.06L57.80 24.07L57.72 23.99Q62.40 28.40 62.40 34.68L62.27 34.55L62.32 34.60Q62.28 39.28 59.43 42.75L59.52 42.84L59.57 42.89Q59.95 42.66 60.44 42.58L60.36 42.50L61.32 42.32L61.47 42.47Q60.75 43.50 59.65 44.72L59.54 44.62L59.56 44.63Q61.33 44.46 64.45 43.85L64.45 43.85L64.42 43.82Q67.10 39.73 67.10 34.82L67.05 34.76L66.99 34.70Q66.96 33.87 66.88 33.03L67.01 33.16L66.94 33.10Q66.83 32.30 67.82 31.50L67.94 31.62L67.88 31.60L67.94 31.65Q68.42 31.07 69.60 30.95L69.55 30.91L69.68 31.03Q70.14 31.08 70.45 31.08L70.36 30.99L70.53 31.35L70.46 31.28Q70.67 33.93 70.56 36.29L70.55 36.28L70.64 36.37Q70.58 38.72 70.09 41.38L70.02 41.31L69.96 41.25Q70.99 41.25 70.99 41.25L70.99 41.25L71.10 41.36Q72.52 41.34 72.18 41.34L72.18 41.34L72.09 41.25Q72.12 41.77 72.08 42.23L72.09 42.24L72.08 42.23Q71.98 42.62 71.98 43.12L72.08 43.22L74.45 43.11L74.53 43.20Q75.72 43.13 76.98 43.20L77.12 43.35L77.10 43.33Q75.51 39.57 75.71 33.63L75.74 33.67L75.70 33.63Q75.65 32.44 76.84 31.68L76.92 31.76L76.86 31.70Q77.83 30.96 79.08 30.77L79.15 30.83L79.41 30.80L79.36 30.74Q79.05 32.79 79.05 34.77L78.97 34.69L78.98 34.70Q79.00 38.49 80.52 41.65ZM75.02 30.13L75.26 30.15L74.97 30.20L75.10 30.21Z"/><path fill="#222" d="M114.29 47.10L114.18 46.99L114.24 47.05Q113.35 47.30 111.45 47.61L111.42 47.58L111.40 47.56Q112.74 45.43 113.76 44.14L113.81 44.18L113.79 44.16Q115.45 44.38 115.61 44.38L115.56 44.33L115.65 44.42Q115.86 44.41 116.40 44.29L116.45 44.35L116.42 44.32Q117.08 44.21 117.27 44.21L117.39 44.34L117.30 44.24Q119.87 43.99 119.79 41.82L119.87 41.91L119.80 41.83Q119.76 40.35 119.65 34.10L119.68 34.14L119.74 34.19Q119.58 30.54 119.66 26.39L119.72 26.45L121.16 26.29L121.21 26.34Q121.83 26.20 122.52 25.98L122.51 25.96L122.40 25.85Q122.29 30.39 122.33 34.77L122.18 34.62L122.19 34.63Q122.35 39.13 122.88 43.51L122.74 43.37L122.79 43.42Q123.00 43.85 123.00 44.12L122.97 44.09L122.94 44.06Q122.84 45.60 121.17 45.98L121.24 46.05L121.31 46.12Q118.18 46.49 114.33 47.14ZM120.96 22.78L118.90 19.73L118.96 19.79Q119.90 18.29 121.72 15.51L121.67 15.46L121.74 15.53Q122.44 16.45 123.77 18.28L123.74 18.25L121.06 22.88ZM124.09 49.52L123.97 49.39L124.09 49.51Q124.69 49.62 125.45 49.27L125.34 49.17L125.38 49.20Q125.78 48.57 125.78 48.12L125.73 48.07L125.62 47.96Q125.60 47.60 125.49 46.99L125.63 47.13L125.45 46.95Q124.24 40.68 124.24 32.76L124.14 32.66L124.23 32.75Q124.21 29.87 124.36 26.98L124.45 27.07L124.43 27.05Q123.86 27.20 122.72 27.51L122.67 27.45L122.69 27.48Q122.68 26.98 122.72 26.45L122.65 26.37L122.78 25.32L122.76 25.30Q121.06 25.97 119.27 26.00L119.29 26.02L119.39 26.12Q119.33 30.44 119.37 34.02L119.33 33.97L119.45 41.82L119.51 41.89Q119.49 43.77 117.32 43.89L117.39 43.95L117.33 43.90Q117.09 43.88 116.58 43.94L116.53 43.89L116.60 43.96Q116.08 44.02 115.82 44.02L115.90 44.10L115.77 43.97Q115.39 44.04 113.82 43.62L113.76 43.56L113.75 43.55Q113.24 44.11 112.14 45.78L112.24 45.89L110.68 48.17L110.73 48.22Q111.65 48.07 113.29 47.69L113.30 47.71L112.77 48.35L112.15 48.92L112.26 49.03Q114.45 48.78 115.78 48.86L115.76 48.84L115.79 48.86Q118.17 49.11 124.11 49.53ZM121.07 23.65L120.92 23.50L121.31 23.01L121.31 23.01Q121.79 23.57 122.74 25.17L122.59 25.02L122.72 25.14Q124.16 21.94 125.72 18.86L125.77 18.91L125.74 18.88Q124.80 17.33 123.85 16.04L123.91 16.10L123.77 15.95Q123.59 16.20 123.25 16.73L123.21 16.69L123.24 16.73Q122.86 16.12 121.87 14.82L121.84 14.79L121.90 14.85Q120.72 16.45 118.40 19.80L118.39 19.79L118.44 19.84Q119.37 21.07 121.08 23.66Z"/><path fill="#333" d="M21.04 27.63L20.98 27.57L21.11 27.70Q18.75 27.59 17.48 29.10L17.58 29.20L17.51 29.13Q16.20 30.60 16.08 32.88L16.18 32.98L16.15 32.95Q16.04 35.61 16.87 36.57L16.83 36.52L16.83 36.52Q18.03 37.87 20.35 37.72L20.37 37.74L20.29 37.66Q24.93 37.35 25.31 34.34L25.25 34.28L25.35 34.38Q25.43 33.54 25.43 32.74L25.38 32.70L25.47 32.79Q25.44 30.78 24.29 29.25L24.18 29.14L24.18 29.14Q23.06 27.67 21.12 27.71ZM25.78 37.63L25.95 37.80L25.82 37.67Q24.36 39.83 19.98 40.05L20.01 40.08L20.05 40.13Q15.86 40.27 14.22 39.16L14.19 39.13L14.20 39.14Q13.28 38.27 13.13 36.55L13.05 36.47L13.03 36.45Q13.12 35.47 13.31 33.61L13.30 33.60L13.30 33.60Q13.71 29.21 14.93 27.39L14.88 27.34L15.02 27.48Q16.70 25.05 20.55 25.09L20.48 25.02L20.48 25.02Q22.96 25.03 25.24 27.35L25.34 27.45L25.35 27.46Q25.37 21.53 26.97 15.02L26.99 15.04L26.96 15.02Q28.95 14.68 30.81 13.84L30.66 13.69L30.76 13.79Q28.05 20.29 27.78 27.30L27.82 27.34L27.75 27.26Q27.50 34.47 29.63 41.06L29.72 41.15L29.71 41.14Q28.03 40.49 26.32 40.11L26.31 40.10L26.43 40.22Q26.08 38.88 25.93 37.78ZM28.82 43.10L28.96 43.25L28.88 43.17Q31.03 43.79 33.58 45.31L33.48 45.21L33.58 45.31Q29.82 38.21 29.67 29.91L29.67 29.91L29.69 29.93Q29.59 21.76 32.67 14.37L32.73 14.43L32.69 14.38Q31.87 14.71 30.42 15.35L30.49 15.42L30.58 15.51Q30.76 14.20 31.36 12.99L31.46 13.08L31.41 13.03Q29.08 14.16 26.64 14.73L26.57 14.66L26.68 14.78Q25.27 20.59 25.00 26.68L24.85 26.53L24.84 26.53Q22.88 24.64 20.36 24.52L20.39 24.54L20.46 24.62Q17.00 24.47 15.09 26.56L15.05 26.52L15.10 26.57Q13.39 28.93 12.97 33.61L12.92 33.57L13.00 33.64Q12.80 36.45 12.80 36.87L12.67 36.74L12.75 36.82Q12.76 38.50 13.90 39.57L14.03 39.70L14.04 39.71Q14.15 39.82 14.34 39.90L14.45 40.01L14.91 40.66L14.75 40.50Q15.72 41.85 18.69 42.11L18.83 42.25L18.86 42.28Q21.04 42.41 22.41 42.48L22.37 42.45L22.27 42.34Q26.59 42.66 28.30 41.33L28.22 41.25L28.21 41.24Q28.46 42.06 28.91 43.20ZM22.70 29.98L22.55 29.83L22.59 29.87Q23.72 29.97 24.56 30.47L24.49 30.40L24.53 30.44Q25.02 31.73 25.10 32.76L25.11 32.77L25.14 32.80Q25.28 36.86 20.25 37.20L20.33 37.28L20.27 37.22Q19.39 37.25 18.29 36.99L18.29 36.99L18.45 37.15Q18.16 36.48 18.08 35.94L18.07 35.93L18.16 36.02Q18.09 35.35 18.13 34.74L18.01 34.62L18.08 34.69Q18.46 31.33 21.08 30.34L21.07 30.33L20.91 30.17Q22.03 29.96 22.72 30.00Z"/></svg>