<svg xmlns="http://www.w3.org/2000/svg" width="150" height="50" viewBox="0,0,150,50"><path fill="#333" d="M21.79 40.09L21.82 40.12L19.49 33.34L19.59 33.43Q15.16 20.78 9.22 14.38L9.11 14.28L9.23 14.40Q11.29 15.50 13.88 16.11L13.80 16.04L13.81 16.05Q18.98 22.36 23.32 35.11L23.17 34.97L23.31 35.11Q26.33 26.96 27.01 25.36L27.08 25.43L27.05 25.40Q29.31 19.67 32.13 16.36L32.13 16.36L32.20 16.43Q34.19 15.98 36.82 15.11L36.82 15.11L36.90 15.19Q32.39 19.85 29.34 27.08L29.24 26.99L29.19 26.94Q27.84 30.64 24.14 40.16L24.23 40.25L24.19 40.20Q23.68 40.27 23.11 40.23L23.11 40.24L23.09 40.22Q22.36 40.06 21.79 40.09ZM26.95 42.66L26.84 42.55L26.89 42.61Q29.70 32.63 31.26 28.59L31.19 28.52L31.20 28.52Q34.25 20.87 38.66 16.00L38.67 16.01L38.71 16.05Q37.57 16.32 35.48 17.04L35.48 17.04L36.65 15.75L36.61 15.70Q37.37 15.20 37.98 14.55L37.81 14.39L37.90 14.47Q34.96 15.35 31.95 15.92L32.03 15.99L32.09 16.05Q27.70 21.37 23.82 32.83L23.80 32.81L23.75 32.76Q20.19 22.73 16.99 18.36L16.88 18.24L16.88 18.24Q16.60 18.27 15.73 18.12L15.63 18.02L15.71 18.09Q15.44 17.67 13.84 15.62L13.90 15.68L13.92 15.70Q10.95 14.97 8.24 13.56L8.16 13.48L8.13 13.45Q14.72 20.50 19.10 33.29L19.14 33.33L19.27 33.46Q20.39 37.02 21.57 40.60L21.56 40.58L21.67 40.70Q21.90 40.62 22.74 40.51L22.70 40.47L22.76 40.53Q23.22 41.34 23.91 42.67L23.89 42.65L23.75 42.51Q24.58 42.43 25.30 42.50L25.40 42.60L25.47 42.67Q26.15 42.63 26.92 42.63Z"/><path fill="#222" d="M97.71 29.91L97.62 29.81L97.75 29.94Q95.13 29.73 93.80 30.95L93.87 31.02L93.82 30.96Q92.57 32.26 92.87 34.78L92.88 34.78L92.78 34.68Q93.17 37.28 94.38 38.53L94.38 38.53L94.41 38.56Q95.34 39.76 97.48 39.68L97.58 39.79L97.63 39.84Q98.04 39.68 98.23 39.68L98.25 39.70L98.32 39.77Q101.75 39.05 101.87 34.44L102.01 34.58L101.88 34.46Q101.94 32.08 101.25 31.28L101.40 31.43L101.42 31.45Q100.18 29.98 97.63 29.83ZM101.03 41.64L101.08 41.69L101.12 41.73Q99.66 42.18 98.10 42.10L98.23 42.23L98.09 42.09Q94.34 42.37 93.04 39.78L92.99 39.73L93.12 39.85Q92.91 45.17 91.58 49.43L91.61 49.46L91.45 49.30Q89.78 49.92 88.15 50.65L88.01 50.51L88.11 50.61Q90.59 44.56 90.33 37.60L90.27 37.54L90.38 37.65Q90.15 30.83 87.25 24.78L87.34 24.86L87.31 24.83Q89.28 26.05 90.99 26.50L90.81 26.32L91.42 27.88L91.33 27.79Q91.59 28.28 91.86 29.39L91.70 29.22L91.69 29.22Q92.88 27.33 96.46 27.13L96.29 26.96L96.47 27.15Q97.35 27.11 98.23 27.11L98.07 26.95L98.64 27.03L98.54 26.93Q98.74 27.01 98.93 27.05L98.84 26.96L99.26 27.07L99.16 26.98Q101.35 27.38 102.08 27.61L102.06 27.59L102.10 27.64Q103.53 28.04 104.41 28.99L104.40 28.98L104.43 29.01Q105.25 30.18 105.21 31.58L105.14 31.51L105.27 31.65Q105.16 34.39 104.36 37.05L104.32 37.01L104.38 37.07Q103.42 40.64 101.06 41.67ZM105.28 42.23L105.33 42.25L105.24 42.15Q106.42 40.26 106.73 36.15L106.69 36.10L106.73 36.15Q106.91 34.43 106.91 33.17L106.79 33.04L106.91 33.17Q106.86 31.60 106.10 30.19L106.07 30.16L106.19 30.27Q105.75 29.80 105.25 29.42L105.23 29.39L104.94 28.99L104.93 28.86L104.81 28.64L104.82 28.64Q103.18 26.70 98.84 26.70L98.66 26.52L98.14 26.61L98.10 26.57Q93.48 26.59 91.85 28.19L91.82 28.17L91.78 28.12Q91.56 27.57 91.41 27.07L91.42 27.08L91.15 26.01L91.27 26.13Q88.77 25.50 86.57 24.02L86.46 23.91L86.54 23.99Q89.83 30.32 90.13 37.55L90.09 37.52L90.06 37.49Q90.46 44.85 87.60 51.32L87.42 51.14L89.61 50.47L89.51 50.38Q89.24 51.09 88.55 52.65L88.48 52.58L88.48 52.58Q91.19 51.52 93.51 51.18L93.70 51.36L93.70 51.36Q94.65 46.38 94.80 42.64L94.80 42.64L94.77 42.61Q96.21 44.12 99.82 44.35L99.86 44.39L99.85 44.38Q103.94 44.78 105.39 42.34L105.29 42.24ZM99.60 32.14L99.53 32.07L99.68 32.22Q100.36 32.18 101.46 32.52L101.40 32.46L101.45 32.51Q101.63 33.41 101.59 34.59L101.68 34.67L101.57 34.57Q101.52 35.43 101.33 36.08L101.39 36.14L101.36 36.11Q100.75 39.12 98.24 39.42L98.18 39.36L98.36 39.42L98.31 39.38Q98.28 39.42 98.17 39.46L98.12 39.42L97.59 39.42L97.46 39.29Q96.45 39.46 95.46 38.96L95.35 38.85L94.93 36.72L95.04 36.83Q94.97 34.59 96.26 33.56L96.15 33.45L96.19 33.49Q97.16 32.36 99.56 32.10Z"/><path fill="#333" d="M45.53 28.55L45.62 28.64L45.50 28.52Q42.84 28.67 42.08 30.92L42.00 30.84L42.05 30.89Q41.89 31.68 41.78 32.33L41.71 32.26L41.73 32.29Q44.25 32.41 45.89 32.41L45.96 32.48L45.93 32.45Q47.66 32.54 50.25 32.43L50.16 32.34L50.07 32.25Q50.08 30.66 48.67 29.59L48.65 29.57L48.56 29.48Q47.35 28.57 45.56 28.57ZM45.68 41.18L45.67 41.17L45.59 41.09Q41.42 41.14 40.12 39.73L40.10 39.71L40.10 39.71Q39.17 38.29 39.02 35.01L39.06 35.05L39.00 34.99Q39.09 34.85 39.01 33.48L38.96 33.43L39.03 33.50Q38.92 31.22 38.92 30.50L38.92 30.50L38.74 30.32Q38.89 28.60 39.61 27.50L39.50 27.39L39.56 27.45Q40.94 26.01 43.91 26.01L43.93 26.03L45.57 26.11L45.59 26.13Q47.51 25.99 49.03 26.30L49.13 26.40L49.11 26.37Q51.11 26.78 52.10 28.00L52.14 28.03L52.12 28.01Q52.73 29.08 52.80 31.17L52.76 31.13L52.89 31.26Q52.75 32.26 52.79 34.43L52.74 34.39L52.91 34.56Q50.04 34.58 47.26 34.58L47.17 34.48L41.64 34.55L41.65 34.56Q41.70 38.87 45.77 38.65L45.82 38.70L45.87 38.74Q49.62 38.54 50.84 36.71L50.77 36.64L50.87 36.74Q51.62 37.15 53.22 38.33L53.21 38.32L53.32 38.43Q51.93 40.81 47.79 41.08L47.85 41.15L47.76 41.05Q47.11 41.16 45.74 41.24ZM47.98 43.51L47.94 43.48L48.03 43.57Q49.12 43.51 50.34 43.59L50.30 43.55L50.35 43.60Q55.32 43.78 56.24 41.00L56.25 41.01L56.25 41.02Q54.62 39.77 53.52 39.00L53.54 39.03L53.53 39.02Q53.58 38.50 53.77 38.27L53.83 38.33L53.82 38.32Q53.06 37.83 51.69 36.88L51.82 37.01L51.66 36.85Q52.85 37.01 54.91 37.31L54.89 37.30L54.84 37.24Q54.77 35.99 54.69 35.31L54.57 35.19L54.43 33.26L54.40 33.23Q54.27 30.89 53.63 29.41L53.68 29.46L53.68 29.46Q53.33 29.03 52.76 28.42L52.92 28.58L52.91 28.58Q52.63 28.15 52.40 27.58L52.44 27.62L52.38 27.55Q50.58 25.60 45.52 25.60L45.56 25.64L43.84 25.59L43.91 25.67Q40.55 25.54 39.10 27.03L39.04 26.96L39.23 27.15Q38.48 28.19 38.51 30.25L38.46 30.19L38.52 30.25Q38.64 31.28 38.75 33.53L38.67 33.44L38.60 33.38Q38.84 35.14 38.95 37.19L38.83 37.07L38.94 37.18Q39.14 39.36 40.01 40.43L40.02 40.43L40.06 40.47Q40.09 40.50 40.28 40.61L40.42 40.76L40.66 41.34L40.66 41.34Q41.47 43.22 48.06 43.60ZM45.81 38.26L45.77 38.23L45.79 38.24Q44.76 38.47 43.84 38.01L43.75 37.92L43.71 37.88Q43.76 37.58 43.57 36.90L43.61 36.95L43.63 36.96Q45.15 36.69 46.74 36.69L46.82 36.77L46.74 36.68Q48.53 36.80 50.21 36.91L50.27 36.98L50.22 36.93Q48.97 38.31 45.97 38.42ZM47.43 30.90L47.46 30.93L47.43 30.90Q48.19 31.05 49.52 31.43L49.52 31.43L49.72 31.82L49.59 31.88L49.60 31.89Q48.25 32.02 47.34 31.99L47.36 32.01L47.41 32.06Q45.07 31.96 45.03 31.96L45.17 32.10L45.05 31.98Q45.82 31.08 47.49 30.96Z"/><path fill="#222" d="M62.91 14.23L62.88 14.21L63.07 14.40Q66.70 16.76 71.45 16.99L71.50 17.04L71.59 17.12Q76.18 17.26 80.44 15.51L80.39 15.46L80.36 15.43Q80.15 16.02 79.39 18.80L79.46 18.87L79.44 18.85Q76.72 19.90 73.75 20.05L73.65 19.94L73.63 19.93Q70.83 20.25 67.93 19.52L67.76 19.35L67.84 19.43Q68.57 23.09 68.76 26.75L68.66 26.65L68.71 26.70Q70.72 26.92 72.32 26.88L72.42 26.98L72.25 26.81Q73.64 26.98 76.04 26.87L76.03 26.86L76.06 26.88Q75.97 27.48 75.97 28.17L75.94 28.14L75.85 29.38L75.97 29.50Q73.58 29.51 68.78 29.59L68.66 29.46L68.76 29.56Q68.71 33.63 68.14 37.63L68.06 37.54L68.25 37.73Q70.87 37.08 73.61 37.19L73.54 37.12L73.46 37.04Q76.25 37.20 78.83 38.04L78.84 38.05L78.86 38.06Q78.99 38.91 79.25 39.68L79.24 39.66L79.63 41.12L79.66 41.15Q76.45 39.84 73.02 39.84L72.99 39.81L72.91 39.73Q68.17 39.86 63.91 42.11L63.82 42.02L63.89 42.09Q66.28 35.34 66.01 28.22L65.88 28.09L65.83 28.04Q65.66 20.99 63.00 14.32ZM63.33 42.75L63.42 42.84L63.36 42.77Q64.65 42.08 65.41 41.74L65.36 41.69L65.43 41.76Q65.16 42.45 64.59 43.97L64.60 43.98L64.58 43.96Q69.17 42.04 74.24 42.31L74.20 42.28L74.29 42.37Q79.32 42.52 83.32 45.22L83.36 45.27L83.31 45.22Q82.12 42.66 81.43 40.71L81.45 40.73L81.45 40.73Q80.58 40.25 79.59 39.90L79.48 39.79L79.51 39.82Q79.10 38.42 78.95 37.62L78.93 37.60L78.92 37.59Q75.89 36.66 72.73 36.66L72.85 36.78L72.80 36.72Q71.57 36.64 70.43 36.76L70.45 36.77L70.46 36.78Q70.56 35.51 70.60 34.30L70.56 34.26L70.78 31.89L70.75 31.85Q72.49 31.70 74.28 31.74L74.23 31.68L74.26 31.71Q76.10 31.76 77.88 31.91L77.92 31.95L77.97 31.99Q77.85 31.01 77.85 30.05L77.87 30.06L77.87 28.17L77.14 28.31L77.07 28.24Q76.62 28.28 76.16 28.28L76.20 28.32L76.13 28.25Q76.20 27.64 76.35 26.34L76.28 26.28L76.25 26.25Q74.72 26.54 73.54 26.58L73.63 26.66L73.57 26.61Q72.61 26.60 70.78 26.52L70.82 26.56L70.70 26.44Q70.68 25.09 70.49 22.27L70.60 22.38L70.53 22.31Q71.63 22.50 72.62 22.50L72.47 22.35L72.47 22.34Q77.21 22.37 80.91 20.47L80.87 20.43L80.85 20.41Q81.59 18.22 82.46 16.01L82.44 15.99L82.40 15.95Q81.03 16.75 80.19 17.09L80.21 17.10L80.32 17.22Q80.57 16.40 81.03 14.84L81.07 14.88L80.98 14.79Q76.36 16.95 71.49 16.65L71.43 16.58L71.48 16.64Q66.22 16.36 62.38 13.51L62.36 13.50L62.30 13.43Q65.25 20.46 65.55 28.07L65.60 28.11L65.49 28.00Q65.91 36.04 63.40 42.82Z"/><path fill="#333" d="M124.61 29.44L124.59 29.41L124.59 29.41Q123.55 28.80 122.90 28.83L122.75 28.68L122.86 28.79Q121.51 28.88 120.46 29.89L120.41 29.85L120.49 29.92Q119.32 30.81 119.43 32.18L119.52 32.26L119.43 32.17Q119.85 36.63 118.97 41.16L118.84 41.02L118.90 41.08Q116.76 41.61 115.65 42.14L115.61 42.09L115.65 42.14Q117.08 37.89 116.85 33.44L116.84 33.43L116.85 33.44Q116.64 28.97 114.93 24.89L114.98 24.94L114.86 24.82Q116.07 25.58 118.35 26.22L118.34 26.21L118.82 28.83L118.98 28.98Q119.68 26.10 123.94 26.10L123.87 26.03L123.83 25.99Q124.27 25.97 124.57 25.97L124.46 25.86L124.46 25.86Q125.77 25.88 127.03 26.56L127.07 26.61L127.17 26.71Q125.71 27.91 124.57 29.40ZM126.23 31.44L126.45 31.50L126.42 31.47Q127.28 30.28 128.96 27.84L128.85 27.74L129.00 27.89Q128.52 27.53 127.00 27.26L127.01 27.27L126.91 27.17Q127.34 26.95 127.80 26.34L127.70 26.25L127.79 26.33Q125.89 25.43 123.95 25.62L123.98 25.64L123.81 25.48Q122.01 25.80 121.28 26.07L121.17 25.95L121.28 26.07Q119.73 26.35 118.93 27.45L118.96 27.48L118.92 26.79L118.65 25.88L118.75 25.97Q116.29 25.50 114.31 24.16L114.30 24.15L114.32 24.17Q116.47 28.56 116.69 33.44L116.60 33.34L116.69 33.43Q116.90 38.32 115.15 42.85L115.02 42.72L115.13 42.84Q116.16 42.31 117.04 42.00L117.08 42.05L117.11 42.08Q116.73 43.07 116.24 44.13L116.24 44.13L116.22 44.12Q119.11 43.31 121.24 43.19L121.30 43.26L121.51 38.75L121.46 38.70Q121.49 36.37 121.49 34.12L121.63 34.26L121.66 34.30Q121.50 32.95 122.42 31.98L122.47 32.04L122.48 32.05Q123.41 31.09 124.55 31.02L124.64 31.10L124.50 30.96Q125.25 30.95 125.97 31.64L125.83 31.49L126.18 31.38ZM121.24 29.65L121.39 29.72L121.31 29.76L121.29 29.70Z"/></svg>