<svg xmlns="http://www.w3.org/2000/svg" width="150" height="50" viewBox="0,0,150,50"><path fill="#222" d="M112.29 39.01L112.25 38.97L112.18 38.90Q114.10 36.55 118.85 29.28L118.91 29.34L118.86 29.29Q122.82 23.00 125.68 19.73L125.83 19.89L125.70 19.75Q123.64 20.10 121.55 20.10L121.60 20.15L121.68 20.22Q116.40 20.20 112.41 18.41L112.34 18.34L112.39 18.39Q111.69 16.44 111.00 14.88L110.94 14.82L111.00 14.88Q115.56 17.03 121.23 17.15L121.16 17.07L121.24 17.16Q126.38 17.24 131.56 15.34L131.42 15.19L131.50 15.28Q131.12 16.11 130.81 16.91L130.90 17.00L130.33 18.60L130.26 18.52Q127.23 22.20 123.24 28.02L123.11 27.90L119.80 32.74L119.84 32.77Q118.15 35.19 116.32 37.48L116.42 37.57L116.45 37.61Q119.60 36.84 122.91 36.91L122.90 36.90L122.99 36.99Q126.26 37.03 129.42 37.94L129.43 37.95L130.05 39.67L130.09 39.72Q130.16 40.36 130.50 41.19L130.60 41.29L130.49 41.17Q125.91 39.69 120.77 39.88L120.77 39.88L120.74 39.84Q115.64 40.07 111.15 42.09L111.20 42.15L111.11 42.06Q111.56 41.06 112.28 39.00ZM110.61 42.85L110.51 42.75L110.56 42.80Q111.72 42.13 112.52 41.87L112.64 41.98L112.58 41.92Q112.34 42.71 111.65 44.23L111.60 44.18L111.52 44.10Q117.31 42.04 123.28 42.27L123.37 42.36L123.20 42.19Q129.66 42.56 134.69 45.34L134.71 45.37L134.67 45.32Q133.25 42.91 132.45 40.74L132.41 40.70L132.34 40.63Q131.98 40.54 130.46 39.97L130.33 39.84L130.33 39.84Q130.32 39.26 129.90 37.77L129.83 37.70L129.90 37.78Q125.70 36.54 120.60 36.73L120.45 36.59L120.48 36.62Q122.66 33.92 126.20 28.37L126.32 28.48L126.22 28.38Q129.93 22.73 131.83 20.18L131.81 20.16L131.81 20.16Q132.26 18.70 133.29 15.99L133.37 16.07L133.26 15.97Q132.60 16.33 131.15 16.94L131.12 16.91L131.27 17.07Q131.48 16.13 132.21 14.61L132.23 14.63L132.22 14.62Q126.94 16.80 121.23 16.73L121.12 16.62L121.22 16.72Q115.31 16.67 110.36 14.16L110.33 14.13L110.30 14.10Q111.34 16.36 112.06 18.60L112.10 18.64L112.15 18.69Q113.25 19.22 114.05 19.44L114.14 19.54L114.00 19.40Q114.29 20.10 114.55 21.55L114.66 21.66L114.53 21.52Q118.21 22.55 123.09 22.36L123.09 22.36L123.11 22.38Q120.83 25.69 117.52 30.68L117.49 30.66L111.94 38.96L111.86 38.88Q111.66 40.31 110.63 42.86Z"/><path fill="#333" d="M18.96 19.31L18.96 19.31L19.08 19.43Q19.85 23.59 20.00 27.17L19.91 27.08L19.92 27.09Q21.11 27.25 22.17 27.25L22.09 27.16L24.44 27.30L24.36 27.22Q25.39 27.19 26.27 25.78L26.26 25.78L26.25 25.76Q26.92 24.53 27.03 23.35L27.05 23.36L27.21 23.53Q27.58 20.51 23.36 20.02L23.36 20.02L23.30 19.96Q21.63 19.93 19.00 19.35ZM20.07 29.98L20.03 29.94L19.98 29.89Q19.97 36.16 18.83 40.57L18.73 40.47L18.84 40.59Q17.32 40.93 15.00 42.00L15.13 42.14L14.98 41.98Q17.46 35.43 17.19 28.16L17.06 28.03L17.13 28.11Q16.88 20.77 14.10 14.34L14.09 14.33L14.04 14.27Q18.16 17.03 24.40 17.03L24.42 17.05L24.55 17.17Q30.50 17.07 30.65 20.54L30.73 20.61L30.60 20.48Q30.66 22.91 29.67 25.57L29.75 25.65L29.79 25.69Q29.42 26.84 28.46 28.05L28.33 27.92L28.43 28.03Q27.02 29.54 24.47 29.81L24.60 29.94L24.45 29.79Q22.26 29.88 20.01 29.92ZM26.08 32.11L26.22 32.25L26.22 32.24Q30.26 32.36 31.52 27.57L31.62 27.67L31.57 27.62Q32.46 23.90 32.31 21.89L32.35 21.93L32.48 22.05Q32.22 20.39 31.46 19.40L31.47 19.41L31.46 19.40Q31.10 19.04 30.60 18.81L30.70 18.91L30.67 18.88Q30.67 18.73 30.06 17.97L30.12 18.03L30.02 17.93Q28.52 16.65 24.56 16.65L24.60 16.69L24.48 16.57Q17.70 16.68 13.47 13.52L13.35 13.39L13.47 13.51Q16.53 20.50 16.80 27.97L16.84 28.00L16.87 28.03Q17.19 35.74 14.53 42.82L14.47 42.77L14.42 42.72Q15.58 42.16 16.57 41.78L16.46 41.67L16.12 42.86L16.21 42.95Q15.99 43.49 15.72 44.06L15.63 43.96L15.73 44.07Q18.14 43.01 21.03 42.48L21.00 42.45L21.04 42.48Q21.89 36.97 21.96 32.25L21.86 32.15L21.98 32.27Q23.12 32.22 24.11 32.22L23.99 32.11L24.03 32.15Q25.42 32.21 26.22 32.25ZM25.30 22.34L25.22 22.26L25.20 22.24Q25.63 22.18 26.62 22.41L26.73 22.51L26.61 22.40Q26.82 22.72 26.86 23.03L26.90 23.06L26.93 23.09Q26.82 23.22 26.75 23.48L26.76 23.50L26.78 23.52Q26.62 24.69 25.90 25.57L25.89 25.55L25.91 25.57Q25.48 26.78 24.45 26.97L24.43 26.95L24.36 26.88Q23.62 26.86 21.98 26.86L21.88 26.77L21.99 26.87Q21.87 24.51 21.64 22.15L21.64 22.14L23.51 22.34L23.50 22.32Q24.25 22.24 25.12 22.16Z"/><path fill="#111" d="M75.53 41.23L75.48 41.18L72.58 41.13L72.65 41.20Q70.20 41.04 69.40 40.92L69.39 40.91L69.26 40.78Q67.58 40.58 66.40 39.70L66.32 39.63L66.39 39.70Q65.07 38.26 64.84 34.91L64.78 34.85L64.90 34.97Q64.79 34.40 64.71 33.18L64.68 33.16L64.69 33.16Q64.64 32.69 64.56 31.59L64.66 31.69L64.61 31.64Q64.61 30.83 64.64 30.11L64.65 30.12L64.61 30.08Q64.78 28.11 65.81 27.35L65.86 27.40L65.81 27.35Q67.81 26.27 72.64 26.04L72.53 25.93L72.60 26.00Q74.74 26.01 75.54 26.01L75.44 25.91L75.43 25.89Q76.98 25.97 78.36 26.27L78.26 26.18L78.30 26.21Q77.70 27.44 77.16 29.27L77.20 29.30L77.21 29.31Q76.62 29.30 76.13 29.26L76.29 29.43L76.28 29.41Q76.02 29.23 75.48 29.11L75.66 29.28L74.64 28.99L74.61 28.96Q73.59 28.74 72.98 28.77L72.96 28.76L72.84 28.64Q68.31 28.91 67.70 31.72L67.58 31.60L67.70 31.72Q67.36 32.79 67.44 33.74L67.48 33.79L67.35 33.65Q67.59 36.33 68.82 37.41L68.89 37.48L68.88 37.47Q70.12 38.55 72.71 38.59L72.53 38.42L72.70 38.58Q74.11 38.54 74.83 38.24L74.86 38.27L75.95 37.84L75.85 37.74Q76.41 37.53 76.98 37.46L76.90 37.38L76.91 37.39Q77.28 39.32 77.66 40.62L77.65 40.60L77.56 40.51Q77.36 40.92 75.57 41.27ZM78.85 44.24L78.88 44.27L78.76 44.15Q79.25 44.30 80.09 44.37L80.10 44.39L79.93 44.22Q80.62 44.29 80.96 43.72L80.98 43.74L80.99 43.75Q79.82 41.71 79.32 39.61L79.23 39.52L79.26 39.55Q78.97 39.56 78.51 39.56L78.47 39.52L78.53 39.58Q78.06 39.53 77.68 39.72L77.79 39.83L77.79 39.83Q77.33 38.45 77.17 37.04L77.24 37.11L77.15 37.02Q76.55 36.95 75.33 37.52L75.44 37.64L75.29 37.48Q74.21 38.20 73.72 38.20L73.66 38.14L73.56 38.03Q73.25 38.22 72.64 38.18L72.62 38.17L72.67 38.22Q71.75 38.17 69.77 37.60L69.64 37.46L69.68 37.51Q69.28 36.73 69.32 35.59L69.38 35.65L69.38 35.65Q69.59 31.44 74.53 30.90L74.49 30.86L74.45 30.82Q75.18 30.86 76.55 31.21L76.54 31.20L76.56 31.21Q77.87 31.50 78.60 31.46L78.62 31.49L78.71 31.58Q79.14 29.34 79.83 27.52L79.70 27.39L79.74 27.42Q79.32 27.28 78.94 27.20L79.00 27.26L78.20 27.15L78.18 27.12Q78.52 26.78 78.90 25.91L78.80 25.80L78.79 25.79Q77.27 25.46 75.71 25.46L75.82 25.57L75.72 25.47Q73.32 25.46 68.94 25.85L69.01 25.91L68.92 25.82Q67.13 26.13 65.57 27.12L65.48 27.03L65.37 26.92Q64.17 27.88 64.17 29.79L64.31 29.93L64.30 29.92Q64.29 30.32 64.40 31.54L64.28 31.42L64.38 31.52Q64.41 32.51 64.38 33.12L64.37 33.11L64.43 33.17Q64.35 34.96 65.08 38.69L65.18 38.80L65.07 38.68Q65.49 39.56 65.98 40.05L66.05 40.12L66.35 40.42L66.28 40.31L66.23 40.26Q67.34 42.48 71.26 43.09L71.17 43.00L71.24 43.07Q74.35 43.51 77.02 43.78L77.00 43.76L77.12 43.88Q77.96 43.99 78.87 44.26Z"/><path fill="#222" d="M50.81 30.99L50.64 30.82L50.62 30.80Q50.77 29.42 49.95 28.51L50.06 28.62L49.90 28.46Q49.24 27.71 47.80 27.75L47.65 27.60L47.68 27.63Q45.48 27.83 44.64 29.96L44.48 29.80L44.58 29.90Q44.31 30.70 44.27 31.38L44.25 31.35L44.30 31.41Q44.01 36.18 43.10 40.52L43.03 40.46L43.19 40.61Q41.47 41.10 39.60 42.09L39.65 42.13L39.60 42.08Q41.89 35.12 41.62 27.81L41.49 27.69L41.60 27.80Q41.20 20.31 38.65 13.50L38.82 13.67L38.82 13.66Q40.61 15.00 42.63 15.69L42.54 15.60L42.50 15.56Q43.92 21.32 44.11 27.19L44.14 27.21L44.21 27.28Q45.56 25.17 48.27 25.25L48.24 25.22L48.28 25.26Q53.41 25.40 53.53 30.77L53.37 30.62L53.46 30.70Q53.67 36.48 55.04 41.12L54.90 40.98L55.01 41.09Q53.20 40.31 51.45 40.12L51.31 39.98L51.45 40.11Q50.90 36.83 50.79 30.96ZM51.01 40.32L51.03 40.35L51.00 40.32Q52.02 40.42 53.12 40.69L53.27 40.83L53.28 40.84Q53.22 40.90 53.75 42.88L53.84 42.97L53.85 42.98Q56.68 43.78 58.70 45.23L58.76 45.30L58.75 45.28Q56.08 39.53 55.55 33.21L55.54 33.21L55.44 33.11Q55.23 29.51 53.82 27.95L53.81 27.93L53.73 27.86Q53.85 27.90 53.20 27.44L53.12 27.36L53.19 27.43Q52.85 26.82 52.20 26.06L52.19 26.05L52.35 26.13L52.26 26.04Q51.35 25.13 48.23 24.87L48.21 24.84L48.23 24.87Q47.61 24.97 46.20 25.31L46.21 25.33L46.14 25.25Q45.96 20.43 45.62 17.91L45.59 17.88L45.53 17.83Q44.90 17.85 43.42 17.55L43.41 17.54L43.31 17.44Q43.25 16.80 42.98 15.32L42.93 15.27L43.00 15.33Q39.92 14.23 38.05 12.67L38.17 12.79L38.04 12.66Q40.99 19.80 41.26 27.60L41.34 27.69L41.19 27.53Q41.64 35.48 39.09 42.83L39.11 42.85L38.94 42.68Q39.99 42.21 41.13 41.71L41.03 41.61L40.35 43.94L40.42 44.01Q43.56 42.69 45.54 42.50L45.49 42.45L45.44 42.40Q46.09 37.08 46.28 33.12L46.28 33.12L46.16 33.00Q46.39 31.29 48.34 30.19L48.36 30.22L48.19 30.04Q48.81 29.90 49.34 29.94L49.31 29.91L49.36 29.95Q49.45 29.89 49.79 29.93L49.75 29.89L50.20 29.99L50.29 30.09Q50.23 30.41 50.35 30.87L50.44 30.96L50.32 30.84Q50.54 36.92 51.03 40.35Z"/><path fill="#444" d="M87.67 39.05L87.66 39.04L87.68 39.06Q89.46 36.58 94.22 29.31L94.23 29.31L94.18 29.27Q98.29 23.14 101.14 19.86L101.09 19.81L101.09 19.81Q99.06 20.18 96.97 20.18L96.96 20.17L96.96 20.17Q91.73 20.20 87.73 18.41L87.59 18.27L87.69 18.36Q87.04 16.46 86.36 14.90L86.38 14.92L86.32 14.86Q90.88 17.03 96.56 17.14L96.57 17.15L96.44 17.02Q101.65 17.18 106.83 15.27L106.90 15.34L106.88 15.32Q106.44 16.10 106.13 16.90L106.16 16.92L105.65 18.59L105.65 18.58Q102.42 22.05 98.42 27.88L98.53 27.98L95.13 32.73L95.17 32.78Q93.57 35.28 91.74 37.56L91.80 37.62L91.79 37.61Q95.01 36.92 98.33 36.99L98.32 36.99L98.29 36.96Q101.76 37.19 104.92 38.11L104.75 37.94L105.27 39.56L105.39 39.68Q105.51 40.37 105.85 41.21L105.80 41.16L105.85 41.21Q101.22 39.66 96.08 39.85L96.12 39.89L96.08 39.85Q90.93 40.03 86.44 42.04L86.54 42.15L86.41 42.01Q86.90 41.06 87.62 39.01ZM85.92 42.82L85.93 42.83L85.95 42.85Q87.05 42.12 87.85 41.86L87.92 41.93L87.94 41.94Q87.65 42.69 86.97 44.21L86.84 44.09L86.97 44.22Q92.67 42.07 98.64 42.30L98.66 42.31L98.65 42.30Q104.98 42.55 110.01 45.33L110.02 45.33L109.87 45.19Q108.56 42.89 107.76 40.72L107.72 40.68L107.75 40.71Q107.33 40.55 105.81 39.98L105.78 39.95L105.84 40.01Q105.57 39.17 105.15 37.69L105.10 37.64L105.17 37.71Q101.07 36.58 95.97 36.77L95.91 36.71L95.94 36.74Q98.02 33.94 101.56 28.38L101.57 28.40L101.47 28.30Q105.16 22.63 107.07 20.08L107.11 20.12L107.11 20.12Q107.69 18.80 108.72 16.10L108.69 16.07L108.74 16.11Q107.95 16.35 106.51 16.96L106.59 17.04L106.54 17.00Q106.76 16.08 107.49 14.56L107.48 14.55L107.61 14.68Q102.19 16.72 96.48 16.65L96.45 16.62L96.60 16.76Q90.48 16.51 85.53 13.99L85.60 14.07L85.60 14.06Q86.70 16.38 87.42 18.63L87.49 18.70L87.50 18.70Q88.50 19.14 89.30 19.37L89.39 19.45L89.32 19.38Q89.56 20.04 89.82 21.49L89.92 21.58L89.89 21.55Q93.74 22.73 98.61 22.54L98.43 22.37L98.51 22.44Q96.11 25.64 92.80 30.63L92.75 30.58L87.26 38.95L87.29 38.97Q87.00 40.32 85.97 42.88Z"/></svg>