<svg xmlns="http://www.w3.org/2000/svg" width="150" height="50" viewBox="0,0,150,50"><path fill="#444" d="M120.42 29.19L120.35 29.12L120.51 29.28Q118.57 29.20 117.35 30.53L117.37 30.56L117.43 30.62Q116.02 31.76 115.87 33.66L115.94 33.73L116.00 33.79Q115.79 35.90 117.01 36.91L116.94 36.84L116.95 36.85Q118.27 37.97 120.41 37.89L120.34 37.82L120.35 37.83Q122.66 37.67 123.61 36.72L123.67 36.78L123.61 36.72Q124.56 35.19 124.45 33.36L124.51 33.43L124.61 33.53Q124.50 31.66 123.41 30.46L123.43 30.49L123.38 30.44Q122.19 29.13 120.36 29.13ZM120.32 19.69L120.41 19.77L120.45 19.81Q118.92 19.58 117.59 20.08L117.67 20.15L117.58 20.07Q116.41 20.99 116.64 22.86L116.57 22.79L116.54 22.76Q117.16 26.61 120.51 26.61L120.34 26.44L120.51 26.61Q121.94 26.67 122.93 25.53L122.96 25.56L123.07 25.66Q124.06 24.52 124.09 22.96L123.97 22.84L124.00 22.86Q124.03 21.07 123.30 20.46L123.30 20.45L123.44 20.60Q121.75 19.74 120.45 19.82ZM120.02 40.21L120.12 40.31L117.03 40.26L116.98 40.22Q115.50 40.25 114.17 39.38L114.20 39.41L114.26 39.48Q112.79 38.23 112.94 35.38L113.01 35.45L112.93 35.36Q113.40 28.52 117.01 27.53L117.14 27.66L116.98 27.50Q114.79 26.68 113.46 21.31L113.47 21.32L113.43 21.28Q113.15 19.94 113.23 19.14L113.25 19.16L113.20 19.11Q113.50 16.98 117.20 16.94L117.09 16.83L117.23 16.98Q121.38 16.82 122.82 17.01L122.87 17.05L122.77 16.96Q126.61 17.48 127.07 19.50L127.24 19.67L127.17 19.60Q127.28 20.21 127.28 20.59L127.28 20.59L127.27 20.58Q127.36 21.36 127.17 21.97L127.11 21.91L127.04 21.83Q126.42 26.05 123.49 27.58L123.56 27.64L123.47 27.56Q127.12 28.50 127.61 33.79L127.46 33.63L127.57 33.75Q127.52 33.85 127.56 35.14L127.51 35.10L127.53 35.11Q127.60 37.85 126.00 38.92L126.09 39.01L126.12 39.04Q124.63 39.80 120.07 40.25ZM122.46 42.68L122.33 42.55L125.72 42.68L125.77 42.72Q127.54 42.86 129.06 42.13L128.98 42.05L128.89 41.96Q130.03 41.23 130.10 39.37L130.29 39.55L130.12 39.38Q130.20 38.32 129.82 36.38L129.94 36.50L129.81 36.37Q129.02 31.85 126.93 29.99L126.84 29.89L126.57 29.43L126.46 29.25L126.25 28.92L126.29 28.97Q127.92 27.58 128.83 23.43L128.96 23.56L128.94 23.55Q128.82 23.04 128.89 22.20L129.00 22.31L128.92 22.23Q129.03 21.58 128.95 20.97L129.03 21.04L129.03 21.04Q128.89 19.62 127.71 19.12L127.62 19.03L127.61 18.98L127.54 18.99L127.36 18.81Q127.26 18.24 126.08 17.44L125.94 17.31L125.97 17.30L125.97 17.30Q124.04 16.67 119.97 16.48L120.03 16.54L119.94 16.45Q118.34 16.30 116.97 16.41L117.07 16.51L116.97 16.41Q116.26 16.54 114.96 16.69L114.89 16.61L114.95 16.67Q113.09 17.13 112.86 18.77L112.72 18.63L112.83 18.74Q112.75 19.19 112.79 19.99L112.71 19.91L112.83 20.03Q112.88 20.50 113.45 22.86L113.43 22.84L113.53 22.94Q114.32 26.17 116.07 27.51L116.07 27.50L116.14 27.57L116.21 27.64Q113.28 28.78 112.75 33.96L112.74 33.95L112.84 34.05Q112.68 36.29 112.68 37.20L112.67 37.20L112.52 37.05Q112.75 38.99 113.93 39.90L113.95 39.92L113.89 39.86Q114.08 40.01 114.35 40.20L114.24 40.10L114.18 40.04Q115.37 42.49 122.49 42.71ZM121.98 31.47L122.11 31.60L122.07 31.56Q123.01 31.51 123.89 31.97L123.93 32.01L123.82 31.90Q124.15 32.84 124.11 33.37L124.25 33.51L124.09 33.36Q124.33 33.85 124.33 34.16L124.19 34.02L124.29 34.12Q124.13 36.33 121.85 37.16L121.94 37.26L121.90 37.22Q121.14 37.55 120.34 37.44L120.42 37.53L120.30 37.41Q119.17 37.49 118.03 37.04L118.13 37.14L118.04 37.05Q117.82 36.45 117.90 35.46L117.89 35.45L117.95 35.51Q118.06 33.87 119.26 32.65L119.25 32.64L119.17 32.56Q120.45 31.43 122.05 31.54ZM122.38 22.16L122.31 22.09L122.28 22.06Q123.07 21.93 123.60 22.09L123.64 22.12L123.56 22.85L123.57 22.86Q123.64 24.34 122.73 25.35L122.64 25.26L122.71 25.33Q121.79 26.33 120.42 26.14L120.36 26.08L120.42 26.14Q119.49 26.20 119.08 25.98L119.06 25.96L119.11 26.01Q119.05 25.72 118.93 25.03L118.78 24.88L118.90 25.00Q118.57 23.53 119.79 22.69L119.86 22.76L119.88 22.78Q120.97 22.12 122.38 22.16Z"/><path fill="#222" d="M46.17 40.24L46.06 40.13L46.21 40.28Q42.77 40.43 41.14 39.89L41.03 39.79L40.97 39.72Q39.05 39.13 38.74 35.75L38.84 35.84L40.23 34.73L40.12 34.62Q41.01 34.24 41.77 33.75L41.80 33.78L41.75 33.73Q41.41 35.56 43.01 36.78L43.13 36.90L43.03 36.80Q44.26 37.76 46.39 37.57L46.50 37.68L46.56 37.74Q50.93 37.32 50.74 33.78L50.60 33.63L50.71 33.74Q50.40 31.34 47.77 30.12L47.87 30.22L47.87 30.22Q45.01 29.15 42.65 27.93L42.67 27.95L42.59 27.87Q40.07 26.57 39.08 21.89L39.11 21.92L39.19 22.00Q38.91 21.37 38.79 20.61L38.93 20.75L38.93 20.75Q38.90 20.03 38.97 19.45L38.96 19.45L38.89 19.38Q38.98 17.71 40.24 17.25L40.20 17.22L40.24 17.26Q42.78 16.52 46.78 16.72L46.63 16.57L46.74 16.68Q48.60 16.82 49.40 16.90L49.25 16.75L49.38 16.88Q50.73 16.94 51.79 17.39L51.79 17.39L51.84 17.43Q53.86 17.82 54.09 20.30L54.13 20.33L54.27 20.47Q53.12 21.08 50.91 22.41L50.99 22.49L50.88 22.38Q50.51 19.42 46.13 19.42L46.16 19.45L46.12 19.41Q44.30 19.49 43.31 20.17L43.25 20.11L43.31 20.17Q42.00 20.54 42.23 22.33L42.39 22.49L42.32 22.43Q42.67 24.72 45.64 26.24L45.49 26.08L45.60 26.20Q46.13 26.42 50.62 28.05L50.49 27.92L50.51 27.95Q53.26 29.55 53.68 33.93L53.71 33.96L53.69 33.94Q53.64 34.04 53.71 35.30L53.70 35.29L53.79 35.37Q53.68 37.97 52.12 39.07L52.20 39.15L52.29 39.25Q50.30 40.07 46.11 40.19ZM48.41 42.56L48.43 42.58L48.50 42.64Q49.97 42.75 51.95 42.75L51.91 42.71L51.93 42.73Q53.98 42.68 55.23 42.26L55.33 42.36L55.32 42.35Q56.41 41.39 56.34 39.60L56.41 39.67L56.36 39.62Q56.29 38.60 55.91 36.54L55.98 36.62L55.99 36.62Q55.07 31.93 52.97 30.07L52.90 29.99L52.94 30.03Q52.18 28.47 50.85 27.75L50.86 27.77L45.47 25.61L45.59 25.73Q45.22 25.51 44.76 25.28L44.69 25.21L44.71 24.96L44.71 24.62L44.58 24.49Q44.57 23.23 45.71 22.62L45.65 22.56L45.63 22.53Q46.30 21.87 48.01 21.68L48.02 21.69L48.19 21.85Q49.18 21.59 50.32 22.05L50.39 22.12L50.47 22.20Q50.54 22.30 50.73 23.14L50.65 23.07L50.57 22.98Q50.83 22.90 51.32 22.67L51.26 22.61L51.41 22.75Q52.03 23.57 52.15 24.71L52.08 24.65L52.13 24.69Q52.32 24.77 55.98 22.19L55.86 22.07L55.83 22.04Q55.73 19.57 54.28 18.89L54.22 18.83L54.17 18.78Q53.69 17.62 52.25 17.08L52.10 16.93L52.21 17.04Q49.95 16.27 46.75 16.27L46.76 16.28L46.71 16.23Q41.75 16.18 39.88 16.86L39.96 16.94L39.94 16.92Q38.52 17.29 38.41 18.97L38.45 19.01L38.54 19.09Q38.47 19.60 38.89 21.80L38.91 21.83L38.90 21.82Q39.44 25.45 41.61 27.69L41.77 27.85L41.70 27.78Q42.42 29.41 43.92 30.10L44.01 30.18L44.05 30.22Q45.56 30.91 49.48 32.47L49.39 32.39L49.44 32.47L50.05 32.78L50.15 32.92L50.13 32.90Q50.21 33.24 50.25 33.59L50.24 33.58L50.21 33.55Q50.47 37.20 46.55 37.35L46.37 37.17L46.37 37.17Q45.32 37.30 44.03 36.92L44.02 36.91L43.92 36.81Q43.73 36.13 43.73 35.40L43.64 35.31L43.77 35.44Q43.73 35.14 43.77 34.87L43.68 34.78L43.64 34.74Q43.26 35.01 42.46 35.50L42.54 35.58L42.48 35.52Q42.05 34.49 42.20 33.12L42.12 33.04L42.17 33.09Q40.12 34.30 38.52 35.71L38.51 35.70L38.44 35.63Q38.56 36.52 38.64 37.55L38.60 37.51L38.58 37.49Q39.01 39.33 40.30 40.09L40.29 40.07L40.13 39.92Q41.36 41.75 43.91 42.14L43.91 42.14L43.89 42.11Q45.47 42.36 48.40 42.55Z"/><path fill="#111" d="M20.99 29.77L21.05 29.83L21.01 29.79Q20.74 29.75 20.43 29.75L20.44 29.76L20.57 29.89Q19.23 29.88 17.78 30.72L17.80 30.74L17.77 30.71Q16.43 31.80 16.43 33.71L16.39 33.67L16.46 33.73Q16.43 37.13 17.95 38.46L18.01 38.52L17.93 38.44Q18.90 39.64 21.18 39.64L21.19 39.65L21.09 39.55Q21.33 39.56 21.64 39.56L21.76 39.68L21.68 39.60Q23.52 39.73 24.66 38.09L24.63 38.06L24.68 38.11Q25.58 36.46 25.50 34.67L25.56 34.72L25.60 34.76Q25.69 34.33 25.69 33.91L25.59 33.80L25.66 33.87Q25.57 31.99 24.20 30.83L24.33 30.96L24.21 30.85Q22.90 29.75 21.12 29.90ZM25.48 39.94L25.62 40.07L25.56 40.02Q24.69 42.08 20.96 42.19L20.89 42.12L20.91 42.14Q17.37 42.10 15.77 40.50L15.82 40.55L15.93 40.67Q14.40 38.83 13.60 34.03L13.60 34.03L13.52 33.95Q13.30 32.28 13.30 31.03L13.32 31.05L13.23 30.96Q13.33 29.27 14.05 28.21L14.09 28.24L13.97 28.13Q15.42 26.84 18.39 26.84L18.39 26.83L18.35 26.80Q24.64 26.76 26.54 29.35L26.65 29.45L26.51 29.32Q26.85 28.67 27.27 27.07L27.14 26.94L27.14 26.94Q28.36 26.60 30.80 25.80L30.97 25.97L30.88 25.89Q28.53 31.60 28.30 37.92L28.20 37.83L28.14 37.76Q27.92 43.94 30.05 49.76L30.10 49.81L30.09 49.80Q28.47 49.28 26.68 49.02L26.52 48.86L26.54 48.88Q25.78 45.07 25.67 40.12ZM26.29 49.20L26.40 49.31L26.28 49.19Q27.00 49.34 28.41 49.64L28.37 49.61L28.38 49.61Q28.62 50.35 29.19 51.76L29.32 51.89L29.29 51.85Q31.84 52.54 34.13 53.84L34.10 53.81L34.14 53.85Q30.13 47.29 30.13 38.76L30.18 38.81L30.14 38.77Q30.12 32.40 32.60 26.61L32.50 26.52L32.56 26.57Q31.89 26.90 30.52 27.54L30.51 27.53L30.48 27.50Q30.79 26.71 31.44 25.15L31.38 25.09L31.53 25.24Q29.95 25.76 26.76 26.63L26.70 26.58L26.83 26.71Q26.63 27.19 26.32 28.37L26.31 28.36L26.35 28.40Q24.27 26.43 18.14 26.28L18.23 26.36L18.23 26.37Q15.02 26.27 13.65 27.76L13.61 27.72L13.64 27.76Q12.82 28.84 12.86 30.74L12.92 30.80L12.95 30.83Q13.00 33.78 13.99 37.55L13.94 37.50L14.05 37.61Q14.60 39.90 15.51 40.85L15.47 40.82L15.97 41.31L15.89 41.24Q17.07 44.01 22.51 44.24L22.62 44.35L22.64 44.37Q23.62 44.36 25.45 44.06L25.34 43.95L25.39 43.99Q25.78 47.01 26.39 49.30ZM22.93 32.14L23.03 32.23L22.96 32.17Q24.03 32.16 24.86 32.47L24.95 32.55L24.96 32.57Q25.04 32.98 25.15 33.59L25.19 33.63L25.25 33.70Q25.23 34.13 25.16 34.74L25.22 34.81L25.11 34.70Q25.20 36.69 24.17 37.98L24.07 37.88L24.18 37.99Q22.95 39.34 21.08 39.15L21.18 39.26L21.11 39.18Q19.81 39.18 18.86 38.76L18.87 38.77L18.87 38.78Q18.58 38.02 18.58 36.80L18.66 36.88L18.53 36.75Q18.60 36.52 18.60 36.22L18.57 36.19L18.52 36.13Q18.47 34.34 19.81 33.18L19.85 33.23L19.93 33.30Q21.12 32.00 22.87 32.07Z"/><path fill="#222" d="M79.72 40.39L79.69 40.36L79.80 40.47Q76.77 36.52 74.14 27.88L74.06 27.80L74.18 27.92Q73.41 25.67 72.62 23.54L72.57 23.49L69.83 32.40L69.72 32.30Q68.04 37.35 65.64 40.59L65.46 40.41L65.56 40.50Q64.73 40.59 63.09 40.74L63.12 40.77L62.98 40.63Q63.16 39.51 63.16 38.26L63.22 38.32L63.24 38.34Q63.14 32.23 60.40 26.10L60.54 26.24L60.47 26.17Q57.25 19.18 51.39 14.19L51.43 14.23L51.38 14.18Q53.62 14.97 55.98 15.50L55.95 15.48L56.01 15.54Q64.66 23.96 65.96 34.93L66.00 34.97L65.89 34.86Q67.52 31.54 68.97 26.18L69.04 26.25L68.93 26.14Q70.93 18.65 71.42 17.24L71.45 17.27L73.72 17.29L73.69 17.27Q74.43 19.33 75.07 21.66L75.15 21.73L76.33 26.11L76.34 26.12Q77.92 31.59 79.33 34.82L79.21 34.71L79.20 34.70Q81.05 23.26 88.97 15.91L88.90 15.84L88.86 15.80Q90.41 15.49 93.38 14.84L93.35 14.81L93.37 14.82Q88.01 19.10 84.97 25.23L85.01 25.27L84.94 25.21Q81.87 31.46 81.87 38.24L81.92 38.29L81.95 38.31Q82.01 39.48 82.08 40.62L81.96 40.50L80.85 40.41L80.80 40.36Q80.23 40.32 79.65 40.32ZM85.98 43.30L86.05 43.37L85.90 43.22Q84.60 39.60 84.72 35.72L84.86 35.86L84.91 35.91Q85.17 24.29 94.53 16.03L94.50 16.00L94.56 16.05Q93.48 16.16 91.54 16.69L91.69 16.84L91.68 16.84Q92.52 15.88 94.42 14.09L94.49 14.16L94.57 14.24Q91.85 14.94 88.92 15.44L88.94 15.47L88.94 15.46Q81.46 22.60 79.56 32.08L79.57 32.09L79.46 31.99Q78.96 30.42 76.11 18.96L76.15 19.00L76.00 18.85Q75.58 18.92 74.63 18.92L74.63 18.93L74.31 17.85L74.38 17.92Q74.25 17.37 74.02 16.88L74.08 16.93L71.15 16.90L71.12 16.86Q70.22 19.24 68.94 24.36L69.06 24.47L69.08 24.50Q67.85 29.66 66.86 32.13L66.86 32.14L66.78 32.06Q65.13 24.09 59.57 17.77L59.68 17.87L59.71 17.91Q59.12 17.73 58.17 17.54L58.29 17.67L58.26 17.64Q57.58 16.84 56.01 15.20L55.87 15.05L55.95 15.13Q52.58 14.36 50.41 13.56L50.29 13.43L50.39 13.53Q56.02 18.17 59.29 24.38L59.28 24.37L59.30 24.39Q62.69 30.93 62.69 37.94L62.79 38.04L62.74 37.99Q62.80 39.62 62.61 41.21L62.64 41.24L62.55 41.15Q62.71 41.08 63.17 40.99L63.17 40.99L63.18 41.00Q63.82 41.09 64.05 41.09L63.91 40.95L64.00 42.07L63.86 41.92Q63.92 42.44 64.00 42.98L64.11 43.09L64.09 43.08Q65.12 42.89 67.41 42.74L67.38 42.71L67.53 42.86Q71.15 37.45 73.89 28.05L73.81 27.97L73.84 28.00Q76.56 36.74 79.53 40.70L79.49 40.65L79.59 40.75Q79.96 40.67 80.80 40.78L80.88 40.86L80.95 40.93Q81.69 41.87 82.76 42.93L82.85 43.03L82.76 42.94Q83.56 43.01 85.96 43.28Z"/><path fill="#222" d="M97.46 40.20L97.40 40.14L95.38 40.40L95.21 40.24Q94.80 40.28 93.83 40.34L93.83 40.34L93.86 40.37Q92.86 40.40 92.37 40.40L92.44 40.48L92.45 40.49Q90.68 40.35 89.65 39.51L89.67 39.53L89.75 39.61Q90.47 38.43 92.11 36.30L92.13 36.32L92.07 36.26Q93.41 37.90 95.62 37.67L95.72 37.77L95.55 37.60Q96.60 37.63 97.25 36.98L97.11 36.85L97.22 36.95Q97.84 36.28 97.73 35.41L97.81 35.49L97.81 35.49Q97.69 30.87 97.76 26.30L97.61 26.15L97.77 26.31Q97.72 21.62 98.26 17.01L98.22 16.97L98.26 17.01Q100.12 16.74 102.25 15.71L102.32 15.78L102.26 15.73Q100.50 22.57 100.50 29.80L100.40 29.70L100.42 29.72Q100.55 33.40 101.01 36.90L100.91 36.80L100.85 36.74Q101.06 37.21 101.06 37.55L100.97 37.47L100.99 37.49Q100.90 37.97 100.67 38.50L100.72 38.55L100.72 38.55Q100.11 39.76 97.29 40.03ZM102.29 42.93L102.40 43.05L102.71 43.02L102.96 42.84L103.26 42.76L103.30 42.80Q103.43 42.37 103.51 42.25L103.67 42.41L103.55 42.29Q103.69 41.07 103.43 40.08L103.58 40.23L103.49 40.14Q102.18 34.37 102.44 28.01L102.50 28.07L102.51 28.08Q102.65 21.87 104.44 15.97L104.43 15.96L104.49 16.01Q103.57 16.62 102.31 17.34L102.36 17.39L102.40 17.43Q102.52 16.60 102.94 15.07L103.01 15.14L103.02 15.15Q100.48 16.46 97.81 16.76L97.80 16.75L97.68 16.63Q97.43 21.13 97.35 26.08L97.34 26.07L97.42 26.15Q97.19 31.89 97.26 35.32L97.29 35.35L97.27 35.33Q97.33 37.10 95.58 37.26L95.60 37.27L95.52 37.20Q93.95 37.45 92.28 35.82L92.22 35.76L92.17 35.71Q90.24 38.35 89.29 39.91L89.16 39.78L89.23 39.85Q89.94 40.56 90.96 40.79L90.99 40.81L90.99 40.81Q90.86 40.91 90.59 41.14L90.52 41.07L90.60 41.14Q91.95 42.01 93.93 42.27L93.94 42.28L93.89 42.22Q94.45 42.45 97.75 42.75L97.59 42.60L97.75 42.75Q100.87 42.88 102.24 42.88Z"/></svg>