<svg xmlns="http://www.w3.org/2000/svg" width="150" height="50" viewBox="0,0,150,50"><path fill="#111" d="M122.32 29.85L122.35 29.88L122.44 29.97Q119.87 29.80 118.54 31.01L118.51 30.99L118.42 30.90Q117.07 32.10 117.38 34.62L117.37 34.61L117.48 34.71Q117.76 37.20 118.97 38.46L118.93 38.42L119.03 38.52Q120.10 39.85 122.23 39.78L122.23 39.77L122.25 39.79Q122.74 39.71 122.93 39.71L122.94 39.72L122.99 39.77Q126.48 39.11 126.60 34.51L126.64 34.55L126.54 34.45Q126.63 32.10 125.94 31.30L125.98 31.34L125.98 31.34Q124.85 29.98 122.30 29.83ZM125.64 41.58L125.59 41.54L125.75 41.70Q124.35 42.20 122.79 42.12L122.83 42.16L122.80 42.13Q118.90 42.27 117.61 39.68L117.60 39.67L117.67 39.74Q117.51 45.10 116.18 49.37L116.26 49.44L116.12 49.31Q114.31 49.78 112.67 50.50L112.83 50.66L112.71 50.54Q115.22 44.53 114.96 37.56L114.98 37.59L115.08 37.68Q114.88 30.90 111.98 24.84L111.85 24.71L112.00 24.86Q113.83 25.92 115.54 26.38L115.49 26.33L116.04 27.83L116.12 27.91Q116.09 28.11 116.36 29.22L116.43 29.29L116.35 29.20Q117.44 27.21 121.01 27.02L120.97 26.98L121.03 27.04Q121.96 27.05 122.84 27.05L122.78 27.00L123.27 26.99L123.32 27.05Q123.48 27.09 123.67 27.13L123.64 27.09L123.96 27.11L123.91 27.06Q126.05 27.41 126.78 27.64L126.79 27.66L126.79 27.66Q128.30 28.14 129.18 29.09L129.15 29.06L129.02 28.94Q129.91 30.16 129.87 31.57L129.80 31.50L129.88 31.59Q129.91 34.47 129.11 37.14L129.03 37.06L129.17 37.19Q128.10 40.65 125.74 41.68ZM130.05 42.34L130.04 42.29L129.93 42.18Q130.97 40.14 131.28 36.03L131.32 36.07L131.27 36.02Q131.43 34.28 131.43 33.02L131.59 33.18L131.44 33.03Q131.57 31.64 130.81 30.23L130.76 30.18L130.84 30.27Q130.31 29.69 129.81 29.31L129.87 29.37L129.79 29.17L129.50 28.77L129.44 28.60L129.46 28.61Q127.74 26.59 123.40 26.59L123.50 26.69L122.85 26.65L122.81 26.61Q118.15 26.59 116.51 28.19L116.55 28.23L116.44 28.12Q116.42 27.76 116.27 27.26L116.22 27.21L115.89 26.08L115.98 26.18Q113.43 25.49 111.22 24.00L111.20 23.98L111.27 24.06Q114.54 30.37 114.85 37.61L114.81 37.57L114.85 37.60Q114.95 44.68 112.10 51.15L112.26 51.31L114.27 50.46L114.22 50.42Q113.98 51.16 113.29 52.72L113.25 52.68L113.32 52.76Q115.93 51.60 118.25 51.25L118.18 51.18L118.22 51.22Q119.44 46.50 119.59 42.77L119.51 42.69L119.53 42.71Q120.92 44.17 124.54 44.40L124.51 44.38L124.58 44.45Q128.59 44.76 130.03 42.32L129.86 42.15ZM124.28 32.15L124.38 32.25L124.20 32.07Q125.01 32.16 126.12 32.51L126.05 32.44L125.95 32.34Q126.36 33.47 126.32 34.65L126.27 34.60L126.25 34.58Q126.18 35.43 125.99 36.07L125.99 36.07L126.01 36.09Q125.35 39.05 122.84 39.35L122.88 39.40L123.00 39.40L122.98 39.38Q122.85 39.33 122.74 39.37L122.72 39.35L122.15 39.31L122.30 39.46Q121.00 39.34 120.01 38.85L120.09 38.93L119.71 36.83L119.61 36.73Q119.55 34.50 120.85 33.48L120.94 33.57L120.89 33.52Q121.88 32.42 124.28 32.15Z"/><path fill="#444" d="M54.29 37.85L54.25 37.81L54.42 37.98Q54.72 38.97 55.25 40.99L55.14 40.88L55.12 40.85Q50.91 39.54 46.31 39.81L46.30 39.80L46.40 39.91Q41.77 40.11 37.77 42.08L37.73 42.05L37.73 42.05Q37.97 41.37 38.01 41.45L38.04 41.47L38.12 41.56Q41.76 37.51 45.68 33.10L45.62 33.03L45.62 33.03Q50.14 28.15 51.32 23.47L51.23 23.38L51.26 23.41Q51.70 21.64 50.42 20.46L50.49 20.52L50.51 20.54Q49.15 19.28 47.36 19.43L47.38 19.45L47.34 19.40Q47.02 19.40 46.68 19.40L46.80 19.52L46.74 19.46Q45.21 19.45 43.95 20.36L43.95 20.36L43.88 20.29Q42.58 21.66 42.81 24.32L42.86 24.37L42.93 24.44Q41.02 23.98 39.80 23.52L39.81 23.53L39.88 23.60Q39.72 22.22 39.64 20.77L39.64 20.77L39.63 20.76Q39.63 19.20 40.24 18.05L40.23 18.04L40.23 18.05Q41.85 16.51 45.20 16.51L45.34 16.64L46.95 16.51L47.10 16.66Q49.24 16.55 50.19 16.66L50.19 16.66L50.25 16.73Q54.68 17.23 54.95 19.67L54.93 19.65L54.85 19.57Q54.90 20.11 54.82 20.91L54.84 20.93L54.86 20.95Q54.78 21.55 54.62 22.24L54.69 22.31L54.78 22.39Q53.13 30.49 45.56 37.35L45.53 37.32L45.37 37.16Q46.91 37.14 48.28 37.14L48.28 37.13L48.18 37.04Q51.44 37.06 54.30 37.86ZM53.77 17.09L53.82 17.13L53.68 16.99Q52.20 16.47 50.49 16.39L50.43 16.33L47.06 16.20L46.99 16.12Q42.66 15.98 40.45 17.09L40.41 17.05L40.41 17.04Q39.38 18.46 39.38 20.51L39.36 20.49L39.26 20.39Q39.42 21.24 39.73 24.05L39.60 23.93L39.64 23.97Q40.10 24.13 41.28 24.43L41.42 24.57L41.32 25.50L41.45 25.62Q41.34 26.01 41.41 26.54L41.42 26.54L41.35 26.47Q42.74 26.72 45.21 26.95L45.13 26.86L45.17 26.91Q45.06 26.45 45.06 26.11L45.18 26.24L45.02 26.08Q45.07 24.30 46.29 22.95L46.26 22.91L46.23 22.89Q47.54 21.63 49.33 21.74L49.36 21.78L49.27 21.68Q50.01 21.70 50.77 21.85L50.87 21.95L50.88 21.96Q50.90 22.25 50.98 22.66L50.93 22.62L50.95 22.63Q51.11 23.18 51.03 23.52L51.02 23.51L51.07 23.55Q49.67 28.17 45.25 33.01L45.26 33.02L45.27 33.03Q43.21 35.34 37.76 41.39L37.69 41.32L37.84 41.46Q37.49 42.15 37.15 42.72L37.19 42.76L37.14 42.71Q38.86 41.96 40.39 41.43L40.33 41.36L40.27 41.31Q39.65 41.98 38.70 43.47L38.68 43.45L38.63 43.41Q38.56 43.78 38.44 44.13L38.49 44.18L38.45 44.14Q43.27 42.03 48.75 42.22L48.74 42.20L48.80 42.26Q54.45 42.39 59.02 44.75L58.99 44.72L58.07 42.66L58.08 42.67Q57.48 41.39 57.21 40.59L57.15 40.53L57.17 40.54Q56.42 40.10 55.21 39.69L55.15 39.63L55.16 39.64Q55.00 38.91 54.62 37.54L54.55 37.47L54.64 37.56Q52.53 37.08 50.24 36.89L50.05 36.70L50.06 36.71Q54.85 32.25 56.37 23.99L56.40 24.02L56.52 21.05L56.62 21.15Q56.46 19.27 55.24 18.59L55.18 18.54L55.16 18.55L55.26 18.65Q55.13 18.48 55.06 18.48L55.18 18.61L55.12 18.55Q54.77 17.59 53.67 16.98Z"/><path fill="#333" d="M21.88 41.13L21.79 41.04L20.26 41.22L20.21 41.18Q16.87 41.22 15.92 39.09L15.81 38.99L15.91 39.08Q16.99 37.96 18.44 36.86L18.44 36.86L18.40 36.82Q19.04 39.06 21.90 38.90L21.95 38.96L21.97 38.98Q22.72 38.89 23.75 38.66L23.62 38.54L23.74 38.65Q24.60 38.07 24.53 37.12L24.49 37.09L24.61 37.20Q24.48 36.05 22.69 35.36L22.59 35.26L18.87 33.82L18.86 33.81Q16.57 32.51 16.23 28.97L16.31 29.05L16.22 28.96Q16.11 26.91 18.28 26.34L18.24 26.30L18.18 26.24Q19.20 26.08 22.16 26.08L22.19 26.10L22.09 26.00Q27.09 26.13 28.00 28.64L27.82 28.46L27.88 28.52Q27.28 29.10 26.56 29.56L26.62 29.62L25.06 30.42L25.22 30.58Q24.68 28.63 21.44 28.40L21.44 28.39L21.46 28.42Q20.85 28.42 19.82 28.84L19.70 28.71L19.84 28.85Q19.18 29.10 19.18 30.21L19.19 30.23L19.26 30.29Q19.62 31.38 21.45 32.06L21.32 31.93L21.34 31.95Q22.41 32.34 25.07 33.44L25.03 33.40L25.19 33.56Q26.90 34.28 27.09 36.83L27.05 36.79L27.10 36.83Q27.16 37.47 27.08 38.46L27.04 38.42L27.16 38.53Q27.04 39.33 26.47 39.98L26.59 40.10L26.61 40.11Q24.98 41.19 21.94 41.19ZM26.71 43.79L26.66 43.75L26.71 43.80Q27.56 43.77 28.93 43.47L28.83 43.37L28.85 43.39Q29.96 42.74 29.77 41.53L29.89 41.65L29.73 41.48Q29.68 40.94 29.38 39.34L29.43 39.40L29.51 39.48Q28.87 36.43 27.08 35.21L27.13 35.26L27.18 35.32Q26.53 33.79 25.27 33.07L25.34 33.13L25.39 33.18Q24.12 32.75 21.64 31.80L21.55 31.71L21.57 31.72Q21.69 31.23 21.95 31.12L22.08 31.25L21.96 31.12Q22.64 30.74 23.28 30.70L23.35 30.76L23.18 30.59Q24.07 30.65 24.83 30.91L24.76 30.84L24.94 31.09L24.84 30.88L25.12 30.97L25.12 31.02L25.12 31.01Q26.30 31.58 26.49 32.84L26.51 32.86L26.40 32.75Q27.72 31.98 29.63 30.30L29.70 30.38L29.57 30.24Q29.33 29.55 28.35 28.37L28.39 28.42L28.28 28.31Q27.30 25.77 22.20 25.65L22.12 25.58L22.09 25.54Q18.95 25.53 16.97 26.10L16.95 26.08L16.89 26.02Q15.57 26.68 15.80 28.77L15.72 28.70L15.85 28.82Q15.85 29.96 16.76 32.06L16.83 32.12L16.74 32.03Q17.32 33.19 18.35 33.91L18.38 33.94L18.45 34.01Q19.10 35.46 20.39 36.14L20.41 36.16L20.33 36.08Q21.34 36.41 22.29 36.79L22.18 36.68L24.19 37.55L24.13 37.49Q23.90 38.70 21.96 38.59L21.94 38.56L21.90 38.53Q21.43 38.56 20.22 38.25L20.28 38.32L20.25 38.13L20.01 38.12L20.12 38.23Q19.17 37.77 18.52 36.29L18.58 36.35L18.49 36.26Q16.35 37.81 15.24 38.95L15.42 39.13L15.34 39.05Q15.61 39.92 16.63 40.72L16.65 40.74L16.55 40.94L16.47 40.87Q17.99 43.06 22.21 43.45L22.21 43.44L22.11 43.34Q23.49 43.58 26.72 43.81Z"/><path fill="#444" d="M68.45 29.57L68.55 29.68L68.45 29.58Q68.43 33.82 67.71 37.97L67.77 38.03L67.80 38.06Q69.98 37.43 73.07 37.32L73.14 37.39L73.14 37.39Q74.41 37.52 75.48 36.51L75.56 36.59L75.54 36.57Q76.63 35.59 76.63 34.26L76.66 34.28L76.51 34.13Q76.58 33.90 76.54 33.63L76.48 33.57L76.54 33.63Q76.35 30.67 74.11 29.83L74.16 29.88L74.21 29.93Q73.46 29.64 72.77 29.71L72.67 29.61L72.68 29.62Q71.55 29.48 70.52 29.52L70.66 29.65L70.61 29.60Q69.46 29.55 68.43 29.55ZM67.25 19.17L67.30 19.21L67.36 19.28Q68.11 22.46 68.37 26.84L68.40 26.86L68.40 26.86Q69.98 27.11 72.64 27.14L72.59 27.10L72.63 27.13Q75.40 27.01 75.75 23.47L75.85 23.57L75.73 23.46Q76.01 21.60 74.60 20.76L74.62 20.79L74.56 20.73Q73.61 20.16 69.19 19.51L69.21 19.53L69.27 19.58Q68.15 19.37 67.23 19.15ZM63.67 42.12L63.70 42.15L63.59 42.04Q66.12 35.44 65.86 28.05L65.81 28.01L65.81 28.00Q65.51 20.70 62.58 14.22L62.64 14.29L62.66 14.31Q66.44 16.83 72.67 17.08L72.65 17.06L72.59 17.01Q78.93 17.36 79.27 20.26L79.29 20.28L79.24 20.23Q79.62 23.04 78.21 25.71L78.21 25.71L78.08 25.58Q77.36 27.10 75.76 27.79L75.69 27.72L75.74 27.77Q79.41 28.47 79.64 33.84L79.73 33.93L79.73 33.93Q79.69 34.91 79.61 36.32L79.70 36.41L79.69 36.40Q79.69 37.77 78.76 38.70L78.64 38.59L78.75 38.69Q77.85 39.66 76.52 39.82L76.42 39.71L76.37 39.67Q75.00 39.86 73.94 39.86L73.99 39.91L73.91 39.83Q68.19 39.83 63.66 42.11ZM76.42 42.38L76.38 42.34L76.42 42.38Q77.35 42.44 79.22 42.55L79.31 42.65L79.33 42.67Q80.58 42.55 81.69 41.67L81.82 41.80L81.68 41.67Q82.54 40.81 82.43 39.25L82.50 39.32L82.53 39.36Q82.28 38.23 81.55 34.76L81.68 34.89L81.66 34.87Q80.95 31.61 79.08 30.12L79.01 30.05L78.59 29.21L78.66 29.28Q80.44 27.97 81.01 24.20L80.91 24.11L80.83 24.03Q81.02 22.92 80.94 21.51L81.09 21.66L81.02 21.58Q81.02 20.34 79.92 19.50L79.95 19.53L79.82 19.40Q79.48 19.17 79.37 19.14L79.49 19.26L79.40 19.17Q79.18 18.68 78.34 17.88L78.35 17.90L78.36 17.90Q76.84 16.84 72.61 16.65L72.50 16.54L72.52 16.55Q65.92 16.31 61.93 13.42L62.03 13.52L62.00 13.49Q65.16 20.38 65.46 27.92L65.65 28.11L65.63 28.09Q65.82 35.78 63.00 42.71L63.12 42.83L65.07 41.76L65.17 41.87Q64.70 42.92 64.21 44.06L64.28 44.14L64.31 44.17Q68.58 42.27 73.60 42.27L73.62 42.29L73.57 42.23Q74.98 42.23 76.42 42.38ZM74.21 31.75L74.37 31.92L74.36 31.90Q75.00 31.75 75.92 32.21L75.95 32.24L75.92 32.21Q76.13 32.65 76.28 33.71L76.14 33.57L76.29 33.72Q76.43 35.04 75.49 36.09L75.37 35.96L75.51 36.11Q74.57 37.14 73.16 37.02L73.19 37.05L71.63 37.10L71.67 37.14Q70.95 37.21 70.22 37.33L70.16 37.26L70.11 37.21Q70.39 35.36 70.47 31.90L70.62 32.05L70.53 31.96Q71.21 31.91 72.46 31.88L72.54 31.95L72.52 31.94Q73.73 31.85 74.34 31.89ZM73.26 22.25L73.36 22.34L73.64 22.24L73.62 22.22Q73.94 22.31 74.13 22.35L74.17 22.39L74.41 22.25L74.76 22.41L75.47 22.59L75.46 22.57Q75.39 22.66 75.39 22.97L75.49 23.07L75.46 23.57L75.47 23.58Q75.56 24.92 74.68 25.85L74.57 25.74L74.68 25.85Q73.77 26.75 72.56 26.75L72.61 26.81L72.54 26.74Q71.39 26.61 71.39 26.61L71.40 26.63L71.47 26.70Q70.25 26.77 70.59 26.77L70.51 26.68L70.53 26.71Q70.46 25.15 70.15 22.11L70.18 22.14L70.23 22.19Q71.77 22.27 73.29 22.27Z"/><path fill="#333" d="M97.34 40.20L97.24 40.09L97.35 40.21Q95.45 40.10 93.78 40.67L93.72 40.62L93.86 40.75Q94.27 37.01 94.39 33.89L94.53 34.04L94.53 34.04Q94.55 30.90 94.32 27.24L94.39 27.31L94.26 27.18Q92.83 26.77 92.07 26.39L92.10 26.43L91.79 23.49L91.80 23.51Q92.61 24.19 94.20 24.76L94.16 24.72L94.16 24.72Q93.81 22.47 93.39 19.73L93.49 19.82L93.47 19.80Q95.82 20.56 97.46 20.41L97.36 20.30L97.37 25.03L97.37 25.03Q98.72 24.90 100.05 24.41L100.06 24.42L99.94 24.30Q99.93 25.23 99.70 26.98L99.75 27.04L99.69 26.97Q98.33 27.48 97.30 27.48L97.26 27.44L97.26 27.43Q97.23 29.58 97.23 33.85L97.20 33.81L97.25 33.86Q97.33 38.09 97.40 40.26ZM100.50 23.86L100.45 23.81L100.44 23.81Q100.14 23.88 99.53 24.11L99.65 24.24L99.95 21.37L99.98 21.40Q99.07 21.60 97.67 21.83L97.66 21.82L97.69 21.85Q97.78 21.26 97.93 19.89L97.81 19.77L97.84 19.80Q97.27 19.91 96.70 19.91L96.80 20.01L96.63 19.84Q94.60 19.95 92.96 19.22L93.04 19.29L92.94 19.20Q93.36 21.59 93.62 24.07L93.62 24.07L93.77 24.22Q92.81 23.79 91.29 22.76L91.40 22.87L91.25 22.72Q91.66 24.09 91.89 26.79L91.83 26.73L91.94 26.84Q92.27 26.94 93.45 27.36L93.46 27.37L93.55 27.46Q93.48 28.00 93.52 29.41L93.61 29.49L94.06 29.61L94.14 29.61L94.10 29.57Q94.10 30.75 94.10 31.93L94.21 32.04L94.06 31.89Q94.19 36.97 93.39 41.31L93.35 41.26L93.44 41.35Q93.58 41.20 95.53 40.67L95.38 40.52L95.53 40.67Q95.45 41.24 95.34 42.61L95.33 42.60L95.32 42.59Q96.29 42.68 97.09 42.68L96.91 42.51L96.92 42.52Q98.68 42.56 100.32 43.13L100.24 43.06L100.24 43.06Q99.02 37.46 99.21 29.54L99.18 29.51L101.53 29.08L101.54 29.09Q101.65 28.21 101.73 27.18L101.75 27.21L102.02 25.27L101.99 25.24Q101.46 25.55 100.28 26.01L100.09 25.81L100.27 25.99Q100.49 24.57 100.41 24.23L100.49 24.31L100.47 24.29Q100.38 24.01 100.46 23.82Z"/></svg>