<svg xmlns="http://www.w3.org/2000/svg" width="150" height="50" viewBox="0,0,150,50"><path fill="#222" d="M18.91 19.27L19.11 19.46L19.09 19.44Q19.78 23.53 19.94 27.10L20.00 27.17L20.05 27.22Q21.20 27.34 22.26 27.34L22.27 27.34L24.37 27.24L24.44 27.31Q25.49 27.29 26.36 25.88L26.24 25.76L26.23 25.75Q27.07 24.68 27.18 23.50L27.15 23.46L27.13 23.45Q27.45 20.38 23.23 19.89L23.22 19.88L23.18 19.84Q21.59 19.88 18.96 19.31ZM19.96 29.87L20.04 29.95L20.07 29.98Q20.04 36.23 18.90 40.65L18.91 40.66L18.81 40.56Q17.47 41.08 15.15 42.15L14.97 41.97L15.10 42.10Q17.38 35.36 17.11 28.08L17.19 28.17L17.24 28.22Q16.93 20.82 14.15 14.39L13.99 14.22L14.15 14.39Q18.12 16.98 24.36 16.98L24.40 17.03L24.36 16.98Q30.50 17.07 30.65 20.53L30.72 20.60L30.61 20.49Q30.74 22.98 29.75 25.65L29.79 25.69L29.81 25.70Q29.27 26.69 28.32 27.91L28.42 28.01L28.47 28.06Q27.10 29.62 24.55 29.89L24.50 29.84L24.45 29.79Q22.38 30.00 20.13 30.04ZM26.18 32.21L26.23 32.25L26.20 32.23Q30.33 32.43 31.58 27.63L31.61 27.66L31.52 27.57Q32.52 23.96 32.37 21.94L32.39 21.97L32.36 21.94Q32.22 20.39 31.46 19.40L31.43 19.38L31.47 19.41Q31.19 19.13 30.70 18.91L30.65 18.86L30.70 18.91Q30.72 18.78 30.11 18.02L30.01 17.92L30.11 18.01Q28.51 16.64 24.55 16.64L24.61 16.70L24.44 16.53Q17.55 16.53 13.32 13.37L13.44 13.49L13.44 13.49Q16.49 20.46 16.76 27.92L16.91 28.07L16.82 27.99Q17.07 35.62 14.41 42.70L14.40 42.70L14.44 42.74Q15.57 42.15 16.56 41.77L16.57 41.79L16.18 42.91L16.06 42.79Q16.04 43.54 15.78 44.11L15.76 44.09L15.77 44.11Q18.17 43.04 21.07 42.51L21.09 42.53L21.09 42.53Q21.86 36.94 21.93 32.22L22.04 32.33L21.93 32.22Q23.11 32.21 24.10 32.21L24.12 32.24L24.00 32.12Q25.33 32.12 26.13 32.16ZM25.28 22.32L25.13 22.17L25.15 22.19Q25.75 22.30 26.74 22.53L26.73 22.51L26.66 22.44Q26.76 22.66 26.80 22.97L26.81 22.98L26.86 23.03Q26.95 23.34 26.87 23.61L26.88 23.61L26.83 23.56Q26.65 24.71 25.92 25.59L25.89 25.55L26.01 25.68Q25.49 26.79 24.46 26.98L24.47 27.00L24.39 26.91Q23.69 26.93 22.05 26.93L21.96 26.84L21.90 26.78Q22.01 24.65 21.78 22.29L21.65 22.15L23.43 22.26L23.48 22.31Q24.30 22.29 25.17 22.21Z"/><path fill="#111" d="M53.04 28.69L53.06 28.71L47.10 28.73L47.23 28.86Q44.16 28.76 41.23 28.68L41.31 28.76L41.29 28.74Q41.39 35.42 39.33 40.94L39.26 40.88L39.24 40.86Q37.44 41.38 35.69 42.06L35.72 42.09L35.84 42.21Q38.59 36.47 38.59 29.81L38.47 29.68L38.63 29.84Q38.49 21.22 34.38 14.17L34.36 14.16L34.44 14.24Q35.87 14.95 38.35 15.75L38.38 15.78L38.35 15.75Q40.53 20.86 41.06 25.73L41.00 25.67L41.03 25.70Q44.35 26.24 47.20 26.20L47.08 26.07L47.09 26.09Q49.74 26.07 53.05 25.81L53.19 25.95L53.05 25.81Q53.58 21.47 55.34 16.36L55.24 16.27L55.33 16.36Q57.36 16.03 59.60 15.19L59.58 15.17L59.58 15.17Q55.81 21.75 55.81 29.70L55.94 29.84L55.84 29.74Q55.81 35.91 58.17 41.24L58.17 41.24L58.33 41.40Q56.64 40.70 54.58 40.39L54.67 40.48L54.70 40.51Q52.86 35.32 52.97 28.62ZM54.43 40.85L54.28 40.70L54.35 40.77Q55.39 40.93 56.49 41.20L56.51 41.22L56.40 41.11Q56.87 41.96 57.52 43.44L57.50 43.42L57.46 43.39Q60.74 44.27 62.53 45.19L62.53 45.18L62.67 45.32Q58.07 39.01 57.76 30.74L57.90 30.88L57.77 30.75Q57.54 22.80 61.20 15.98L61.21 16.00L60.09 16.40L60.19 16.50Q59.62 16.65 59.01 16.80L59.01 16.81L58.98 16.77Q59.37 15.95 60.21 14.39L60.37 14.55L60.35 14.52Q57.53 15.40 54.90 15.89L55.04 16.03L55.03 16.02Q53.28 20.78 52.82 25.46L52.81 25.45L52.88 25.52Q50.42 25.77 47.99 25.77L47.96 25.74L47.88 25.66Q45.61 25.79 43.10 25.63L43.01 25.55L43.08 25.61Q42.75 22.25 41.65 18.17L41.79 18.32L41.69 18.22Q40.98 18.07 39.53 17.69L39.52 17.68L39.66 17.82Q39.11 16.44 38.66 15.41L38.68 15.44L38.67 15.42Q35.97 14.70 33.69 13.45L33.70 13.46L33.76 13.51Q38.25 20.86 38.25 29.66L38.34 29.75L38.21 29.62Q38.29 36.67 35.17 42.80L35.11 42.74L35.13 42.75Q35.80 42.44 37.13 41.87L37.16 41.90L37.23 41.97Q36.90 42.82 36.10 44.34L36.11 44.34L36.11 44.35Q38.96 43.38 41.20 42.97L41.03 42.79L41.09 42.86Q42.95 37.29 43.14 31.12L43.17 31.15L43.21 31.19Q44.73 31.04 47.93 31.00L47.94 31.01L48.04 31.11Q50.74 30.92 52.65 31.00L52.71 31.06L52.66 31.01Q52.92 36.75 54.25 40.68Z"/><path fill="#333" d="M95.06 27.66L95.09 27.69L95.05 27.65Q92.76 27.60 91.48 29.10L91.51 29.13L91.59 29.21Q90.24 30.64 90.12 32.92L90.22 33.02L90.09 32.89Q89.98 35.56 90.82 36.51L90.92 36.61L90.93 36.62Q92.07 37.91 94.39 37.76L94.39 37.76L94.37 37.74Q98.92 37.34 99.30 34.33L99.32 34.35L99.34 34.37Q99.39 33.51 99.39 32.71L99.45 32.77L99.39 32.71Q99.42 30.76 98.28 29.24L98.24 29.20L98.19 29.15Q96.94 27.56 95.00 27.60ZM99.88 37.72L99.93 37.78L99.94 37.79Q98.41 39.87 94.03 40.10L93.96 40.03L94.00 40.07Q89.82 40.23 88.18 39.13L88.12 39.07L88.19 39.13Q87.34 38.33 87.19 36.61L87.02 36.45L87.08 36.50Q87.00 35.35 87.19 33.49L87.17 33.47L87.29 33.59Q87.85 29.35 89.06 27.52L89.02 27.48L88.93 27.39Q90.69 25.04 94.54 25.08L94.38 24.92L94.50 25.04Q96.93 24.99 99.21 27.31L99.23 27.34L99.26 27.36Q99.45 21.61 101.05 15.10L100.89 14.95L100.98 15.03Q102.94 14.67 104.81 13.84L104.84 13.87L104.67 13.70Q102.12 20.36 101.85 27.37L101.85 27.36L101.90 27.41Q101.54 34.52 103.68 41.11L103.63 41.06L103.76 41.19Q102.10 40.56 100.38 40.18L100.32 40.11L100.29 40.08Q99.98 38.78 99.83 37.68ZM103.00 43.29L102.96 43.25L102.87 43.16Q105.10 43.86 107.65 45.38L107.52 45.25L107.46 45.20Q103.85 38.23 103.69 29.93L103.62 29.86L103.57 29.81Q103.59 21.76 106.68 14.37L106.67 14.37L106.73 14.43Q105.96 14.80 104.52 15.45L104.42 15.35L104.52 15.46Q104.93 14.38 105.54 13.16L105.39 13.01L105.56 13.18Q103.08 14.16 100.64 14.74L100.58 14.67L100.62 14.72Q99.25 20.58 98.99 26.67L98.83 26.51L98.91 26.60Q97.04 24.80 94.53 24.69L94.53 24.69L94.45 24.61Q90.97 24.44 89.06 26.53L89.10 26.57L89.15 26.62Q87.46 29.00 87.04 33.68L86.93 33.57L86.91 33.55Q86.80 36.45 86.80 36.86L86.70 36.77L86.71 36.78Q86.83 38.57 87.97 39.64L87.98 39.65L88.04 39.71Q88.19 39.86 88.38 39.94L88.41 39.96L88.85 40.59L88.92 40.67Q89.74 41.87 92.71 42.14L92.78 42.21L92.76 42.18Q95.00 42.36 96.37 42.44L96.36 42.43L96.28 42.35Q100.47 42.55 102.18 41.21L102.19 41.22L102.23 41.26Q102.51 42.11 102.97 43.25ZM96.53 29.81L96.57 29.85L96.63 29.91Q97.60 29.85 98.43 30.34L98.43 30.35L98.51 30.42Q99.02 31.73 99.10 32.76L99.08 32.74L99.00 32.66Q99.39 36.97 94.36 37.31L94.31 37.26L94.34 37.29Q93.40 37.27 92.30 37.00L92.35 37.06L92.29 36.99Q92.10 36.42 92.02 35.88L91.99 35.86L92.15 36.02Q92.02 35.27 92.06 34.67L91.97 34.58L92.05 34.66Q92.39 31.26 95.01 30.27L95.01 30.27L94.99 30.25Q95.99 29.92 96.68 29.96Z"/><path fill="#111" d="M62.84 38.89L62.98 39.03L62.99 39.04Q64.82 36.60 69.57 29.33L69.59 29.35L69.55 29.31Q73.60 23.12 76.46 19.84L76.41 19.79L76.36 19.74Q74.29 20.08 72.20 20.08L72.29 20.17L72.28 20.16Q67.05 20.19 63.06 18.40L62.97 18.31L63.07 18.41Q62.24 16.32 61.55 14.76L61.70 14.90L61.65 14.86Q66.28 17.09 71.95 17.21L71.84 17.09L71.87 17.12Q76.93 17.12 82.11 15.21L82.22 15.33L82.20 15.30Q81.87 16.20 81.57 16.99L81.46 16.89L80.85 18.45L81.00 18.60Q77.88 22.18 73.89 28.01L73.88 28.00L70.47 32.74L70.57 32.84Q68.87 35.25 67.04 37.53L67.08 37.58L66.95 37.44Q70.38 36.95 73.69 37.03L73.67 37.01L73.71 37.05Q76.98 37.08 80.14 37.99L80.13 37.99L80.64 39.60L80.73 39.68Q80.81 40.34 81.16 41.18L81.22 41.24L81.19 41.21Q76.48 39.59 71.34 39.78L71.51 39.94L71.42 39.85Q66.35 40.12 61.86 42.13L61.73 42.01L61.88 42.16Q62.24 41.07 62.96 39.01ZM61.27 42.84L61.29 42.86L61.20 42.77Q62.43 42.17 63.23 41.91L63.32 42.00L63.30 41.98Q62.94 42.65 62.26 44.17L62.19 44.11L62.19 44.10Q67.92 41.99 73.89 42.22L73.92 42.24L73.98 42.30Q80.20 42.43 85.22 45.21L85.27 45.26L85.36 45.34Q83.88 42.88 83.08 40.71L83.09 40.71L83.16 40.78Q82.68 40.57 81.16 40.00L81.02 39.86L81.11 39.95Q80.83 39.10 80.41 37.62L80.47 37.68L80.42 37.62Q76.30 36.47 71.19 36.66L71.27 36.73L71.30 36.77Q73.31 33.91 76.85 28.35L76.82 28.32L76.83 28.33Q80.62 22.75 82.52 20.20L82.43 20.10L82.47 20.15Q82.97 18.74 84.00 16.04L83.91 15.96L83.90 15.94Q83.33 16.40 81.88 17.01L81.88 17.00L81.76 16.89Q82.14 16.12 82.86 14.60L82.94 14.67L82.82 14.55Q77.61 16.81 71.90 16.73L71.87 16.70L71.85 16.68Q65.97 16.66 61.02 14.15L60.95 14.08L60.89 14.02Q62.09 16.44 62.81 18.68L62.82 18.69L62.81 18.68Q63.81 19.12 64.61 19.34L64.70 19.43L64.74 19.47Q65.03 20.18 65.30 21.63L65.22 21.55L65.21 21.54Q68.91 22.57 73.78 22.38L73.89 22.49L73.89 22.49Q71.45 25.64 68.13 30.63L68.04 30.54L62.70 39.06L62.70 39.06Q62.28 40.27 61.25 42.82Z"/><path fill="#222" d="M121.22 41.33L121.25 41.36L121.22 41.33Q118.39 41.55 117.13 41.01L117.19 41.07L117.21 41.09Q115.09 40.11 115.16 37.64L115.22 37.69L115.19 37.66Q115.41 34.34 115.41 34.91L115.34 34.84L115.32 34.82Q115.46 29.63 112.60 24.79L112.47 24.66L112.54 24.73Q114.45 25.62 116.43 26.00L116.51 26.08L116.43 26.00Q118.22 30.68 118.10 35.17L118.04 35.10L118.14 35.21Q117.98 36.69 118.82 37.91L118.79 37.87L118.71 37.79Q119.68 39.18 121.20 38.99L121.21 39.00L121.59 38.88L121.54 38.84Q122.89 38.77 123.70 38.01L123.79 38.10L123.72 38.02Q124.61 37.34 124.61 36.38L124.53 36.31L124.65 36.43Q124.60 36.15 124.56 35.96L124.47 35.86L124.45 35.84Q124.44 30.65 125.58 26.31L125.53 26.26L125.68 26.41Q126.70 26.33 127.69 26.11L127.67 26.09L129.56 25.46L129.66 25.56Q127.18 30.65 127.48 36.21L127.44 36.17L127.48 36.21Q127.60 39.22 125.89 40.37L125.94 40.42L125.77 40.25Q124.67 41.31 121.35 41.47ZM123.49 43.67L123.55 43.73L123.61 43.80Q127.08 43.95 128.91 43.19L128.79 43.08L128.92 43.20Q129.87 42.49 129.87 41.08L129.74 40.94L129.83 41.03Q129.88 40.17 129.61 38.61L129.48 38.47L129.43 38.43Q128.97 35.30 129.36 32.30L129.45 32.39L129.37 32.31Q129.88 29.28 131.28 26.54L131.18 26.43L131.20 26.45Q130.63 26.84 129.30 27.25L129.35 27.30L129.24 27.20Q129.45 26.57 129.76 26.00L129.83 26.07L130.41 24.94L130.42 24.95Q128.36 25.48 125.20 25.97L125.22 25.99L125.25 26.02Q123.94 30.73 124.09 35.83L124.29 36.02L124.11 35.84Q124.17 37.93 121.51 38.42L121.59 38.50L121.26 38.63L121.16 38.69L120.08 38.40L120.13 38.45Q120.13 37.66 120.17 37.16L120.02 37.01L119.99 36.98Q120.17 32.44 119.49 28.03L119.58 28.12L118.62 28.07L118.51 27.96Q117.99 27.93 117.45 27.82L117.41 27.77L117.55 27.92Q117.05 26.39 116.79 25.63L116.90 25.74L116.91 25.75Q114.14 25.35 111.90 24.05L111.80 23.95L111.91 24.06Q113.95 27.48 114.68 30.87L114.60 30.79L114.58 30.77Q115.26 33.16 115.11 36.67L115.04 36.60L115.07 36.63Q115.11 36.78 115.03 37.89L114.96 37.81L115.03 37.88Q114.88 40.24 116.25 41.19L116.10 41.04L116.14 41.08Q116.53 43.34 123.53 43.72Z"/></svg>