<svg xmlns="http://www.w3.org/2000/svg" width="150" height="50" viewBox="0,0,150,50"><path fill="#333" d="M122.03 40.22L121.91 40.10L122.05 40.24Q120.04 40.02 118.36 40.59L118.38 40.61L118.40 40.62Q118.93 37.00 119.04 33.88L119.05 33.89L119.16 34.00Q119.28 30.96 119.05 27.31L119.03 27.28L118.96 27.22Q117.67 26.95 116.91 26.57L116.91 26.57L116.54 23.57L116.46 23.50Q117.21 24.13 118.81 24.70L118.89 24.78L118.90 24.79Q118.66 22.65 118.24 19.91L118.11 19.77L118.25 19.91Q120.36 20.43 122.00 20.28L122.00 20.28L121.90 24.90L122.05 25.05Q123.36 24.88 124.69 24.38L124.80 24.49L124.66 24.35Q124.68 25.32 124.46 27.07L124.39 27.01L124.48 27.10Q122.90 27.38 121.87 27.38L121.84 27.35L121.94 27.45Q121.92 29.60 121.92 33.86L121.86 33.80L121.88 33.83Q121.99 38.09 122.07 40.26ZM125.10 23.80L125.15 23.84L125.07 23.76Q124.87 23.95 124.26 24.18L124.34 24.25L124.65 21.41L124.58 21.34Q123.93 21.78 122.52 22.01L122.50 21.99L122.37 21.87Q122.50 21.31 122.65 19.94L122.60 19.88L122.67 19.96Q121.87 19.85 121.30 19.85L121.34 19.89L121.42 19.97Q119.34 20.02 117.70 19.30L117.53 19.12L117.68 19.27Q118.03 21.60 118.30 24.07L118.38 24.16L118.46 24.24Q117.46 23.77 115.94 22.75L116.06 22.86L116.05 22.85Q116.33 24.08 116.55 26.79L116.47 26.70L116.63 26.86Q117.07 27.07 118.25 27.49L118.24 27.49L118.19 27.44Q118.19 28.04 118.23 29.45L118.24 29.46L118.70 29.58L118.82 29.62L118.72 29.53Q118.88 30.86 118.88 32.04L118.73 31.90L118.77 31.93Q118.88 36.99 118.08 41.33L118.00 41.25L117.92 41.18Q118.29 41.24 120.23 40.70L120.22 40.69L120.11 40.58Q120.17 41.29 120.06 42.66L120.07 42.68L120.01 42.61Q120.93 42.66 121.73 42.66L121.62 42.55L121.72 42.65Q123.33 42.55 124.97 43.12L125.07 43.22L124.93 43.08Q123.60 37.38 123.79 29.46L123.94 29.60L126.23 29.11L126.30 29.18Q126.32 28.22 126.40 27.19L126.43 27.22L126.71 25.29L126.68 25.27Q126.13 25.55 124.95 26.00L124.89 25.95L124.78 25.83Q125.23 24.65 125.15 24.31L125.05 24.21L125.10 24.25Q124.99 23.96 125.07 23.77Z"/><path fill="#111" d="M38.34 39.06L38.32 39.04L38.20 38.91Q40.06 36.51 44.82 29.24L44.80 29.22L44.78 29.20Q48.99 23.17 51.84 19.90L51.83 19.88L51.84 19.89Q49.73 20.18 47.63 20.18L47.63 20.17L47.65 20.19Q42.41 20.21 38.42 18.42L38.24 18.25L38.29 18.30Q37.74 16.49 37.05 14.93L36.99 14.86L36.95 14.83Q41.60 17.08 47.27 17.19L47.21 17.13L47.16 17.08Q52.40 17.26 57.58 15.35L57.55 15.32L57.53 15.30Q57.22 16.21 56.92 17.01L56.75 16.85L56.32 18.58L56.30 18.56Q53.21 22.18 49.21 28.00L49.28 28.07L45.96 32.90L45.85 32.79Q44.16 35.21 42.34 37.49L42.44 37.60L42.32 37.48Q45.58 36.82 48.89 36.89L49.00 37.00L48.99 36.99Q52.40 37.17 55.56 38.08L55.55 38.06L56.03 39.65L55.91 39.54Q56.23 40.42 56.57 41.26L56.51 41.20L56.65 41.34Q51.88 39.65 46.74 39.84L46.66 39.76L46.72 39.82Q41.68 40.11 37.19 42.13L37.21 42.15L37.17 42.11Q37.46 40.95 38.18 38.90ZM36.58 42.81L36.62 42.86L36.50 42.74Q37.72 42.13 38.52 41.86L38.46 41.80L38.61 41.96Q38.27 42.64 37.59 44.16L37.60 44.18L37.64 44.22Q43.42 42.15 49.39 42.38L49.30 42.29L49.33 42.32Q55.61 42.51 60.64 45.29L60.58 45.23L60.65 45.30Q59.22 42.88 58.42 40.71L58.47 40.76L58.47 40.76Q57.91 40.47 56.39 39.90L56.47 39.98L56.39 39.90Q56.32 39.26 55.90 37.78L55.86 37.73L55.82 37.69Q51.56 36.40 46.45 36.59L46.48 36.61L46.60 36.74Q48.74 34.00 52.28 28.44L52.21 28.37L52.17 28.33Q55.91 22.70 57.81 20.15L57.78 20.12L57.80 20.14Q58.37 18.81 59.40 16.11L59.26 15.97L59.37 16.07Q58.71 16.45 57.26 17.06L57.27 17.06L57.19 16.98Q57.50 16.15 58.22 14.62L58.33 14.74L58.19 14.59Q52.95 16.81 47.24 16.74L47.13 16.63L47.20 16.70Q41.26 16.62 36.31 14.11L36.29 14.09L36.35 14.15Q37.34 16.35 38.06 18.60L38.18 18.72L38.09 18.63Q39.33 19.30 40.13 19.53L40.06 19.46L40.13 19.53Q40.23 20.05 40.50 21.49L40.56 21.56L40.65 21.64Q44.22 22.56 49.10 22.37L49.27 22.54L49.19 22.46Q46.81 25.67 43.50 30.66L43.48 30.64L37.95 38.97L38.05 39.07Q37.48 40.13 36.45 42.68Z"/><path fill="#222" d="M26.17 41.20L26.14 41.17L23.30 41.18L23.31 41.20Q20.86 41.03 20.06 40.92L19.92 40.78L20.08 40.93Q18.23 40.57 17.05 39.70L17.00 39.64L16.99 39.63Q15.77 38.30 15.54 34.95L15.51 34.91L15.44 34.84Q15.55 34.50 15.47 33.28L15.47 33.28L15.32 33.13Q15.44 32.83 15.36 31.72L15.35 31.71L15.21 31.58Q15.20 30.76 15.24 30.04L15.29 30.09L15.26 30.06Q15.48 28.15 16.51 27.38L16.43 27.31L16.50 27.38Q18.42 26.21 23.25 25.98L23.31 26.04L23.38 26.11Q25.28 25.88 26.08 25.88L26.03 25.83L26.19 25.99Q27.59 25.90 28.96 26.21L28.88 26.13L28.94 26.19Q28.41 27.49 27.88 29.32L27.89 29.33L27.95 29.39Q27.36 29.37 26.86 29.33L26.85 29.31L26.96 29.43Q26.82 29.36 26.29 29.25L26.22 29.18L25.22 28.90L25.23 28.91Q24.16 28.64 23.55 28.68L23.64 28.77L23.67 28.80Q18.78 28.71 18.17 31.53L18.20 31.55L18.17 31.53Q18.05 32.82 18.13 33.77L18.15 33.78L18.12 33.76Q18.23 36.30 19.46 37.38L19.48 37.41L19.45 37.37Q20.65 38.42 23.24 38.46L23.34 38.56L23.32 38.53Q24.83 38.60 25.55 38.29L25.57 38.32L26.56 37.78L26.51 37.73Q27.08 37.54 27.65 37.46L27.62 37.43L27.64 37.45Q27.87 39.24 28.25 40.53L28.34 40.62L28.26 40.54Q27.95 40.84 26.16 41.19ZM29.48 44.20L29.55 44.27L29.37 44.09Q29.77 44.15 30.60 44.22L30.77 44.39L30.59 44.20Q31.40 44.41 31.75 43.84L31.58 43.68L31.58 43.68Q30.38 41.60 29.88 39.51L29.93 39.55L30.05 39.67Q29.67 39.60 29.22 39.60L29.13 39.52L29.19 39.57Q28.80 39.61 28.42 39.80L28.30 39.67L28.26 39.64Q27.93 38.39 27.78 36.98L27.81 37.01L27.78 36.99Q27.19 36.93 25.98 37.50L26.03 37.56L26.06 37.59Q24.80 38.11 24.30 38.11L24.37 38.17L24.30 38.11Q23.94 38.24 23.33 38.21L23.34 38.22L23.25 38.13Q22.30 38.05 20.32 37.48L20.44 37.60L20.27 37.43Q20.04 36.82 20.08 35.68L20.13 35.73L20.13 35.73Q20.29 31.48 25.24 30.94L25.10 30.80L25.19 30.90Q25.81 30.83 27.19 31.17L27.34 31.33L27.16 31.15Q28.71 31.67 29.43 31.63L29.41 31.60L29.40 31.60Q29.73 29.27 30.42 27.44L30.55 27.57L30.49 27.51Q30.06 27.34 29.67 27.27L29.70 27.29L28.89 27.17L29.00 27.28Q29.08 26.68 29.46 25.80L29.51 25.84L29.49 25.82Q28.04 25.55 26.48 25.55L26.39 25.46L26.39 25.47Q23.99 25.47 19.61 25.85L19.57 25.81L19.68 25.91Q17.70 26.03 16.14 27.02L16.05 26.93L16.08 26.96Q14.92 27.97 14.92 29.88L14.96 29.91L15.01 29.96Q14.86 30.23 14.97 31.45L14.99 31.47L15.05 31.53Q15.10 32.52 15.06 33.13L15.11 33.19L15.08 33.15Q15.21 35.15 15.93 38.88L15.76 38.70L15.82 38.76Q16.16 39.56 16.65 40.06L16.80 40.21L17.00 40.40L17.07 40.44L17.01 40.38Q18.09 42.56 22.01 43.16L21.99 43.15L21.95 43.10Q25.03 43.52 27.69 43.79L27.66 43.75L27.75 43.85Q28.63 44.00 29.54 44.26Z"/><path fill="#333" d="M68.51 40.45L68.51 40.45L68.45 40.38Q64.37 40.61 63.38 38.29L63.37 38.28L63.44 38.35Q64.23 37.42 65.79 35.63L65.68 35.52L65.75 35.59Q66.22 37.59 69.23 37.70L69.12 37.59L69.12 37.59Q72.66 37.82 74.29 36.49L74.32 36.52L74.31 36.51Q75.63 34.82 75.56 32.11L75.65 32.21L75.61 32.17Q75.48 27.12 70.68 27.35L70.55 27.23L70.62 27.29Q67.85 27.49 66.10 28.75L66.12 28.77L65.67 28.47L65.51 28.39L65.56 28.44Q65.94 25.32 65.83 22.57L65.78 22.53L65.73 22.48Q65.53 19.76 65.18 16.45L65.21 16.47L65.25 16.52Q68.95 17.52 72.76 17.40L72.77 17.41L72.68 17.32Q76.58 17.34 80.16 16.08L80.11 16.04L79.58 17.60L79.51 17.53Q79.16 18.24 78.97 19.08L79.08 19.19L79.11 19.22Q75.97 20.23 72.08 20.23L72.11 20.25L72.15 20.30Q70.57 20.16 69.09 20.01L69.19 20.11L69.22 20.14Q69.10 20.79 68.76 25.24L68.71 25.19L68.72 25.20Q69.61 24.80 71.67 24.65L71.51 24.49L71.63 24.61Q75.35 24.82 76.79 26.50L76.72 26.43L76.70 26.41Q78.21 28.07 78.48 31.92L78.45 31.88L78.45 31.88Q78.62 35.98 77.40 38.00L77.54 38.13L77.39 37.98Q75.38 39.89 72.06 40.12L72.21 40.26L72.12 40.18Q71.19 40.31 68.53 40.46ZM74.46 42.63L74.52 42.69L74.59 42.76Q77.97 42.79 79.88 41.69L79.77 41.58L79.75 41.57Q80.88 40.18 80.88 38.09L80.90 38.10L80.84 38.04Q80.90 35.02 79.95 30.91L79.82 30.79L79.88 30.84Q79.47 29.06 78.25 27.65L78.22 27.62L78.30 27.73L78.12 27.48L77.73 27.24L77.67 27.19Q77.41 26.51 76.76 25.82L76.88 25.94L76.84 25.93L76.69 25.79Q75.29 24.23 71.59 24.23L71.59 24.22L71.23 24.14L71.31 24.21Q71.46 23.71 71.65 22.61L71.47 22.44L71.62 22.58Q76.48 22.57 80.52 20.94L80.59 21.01L80.58 21.00Q81.03 19.61 81.98 16.80L81.99 16.81L79.90 17.77L79.87 17.74Q80.33 16.67 80.82 15.53L80.83 15.54L80.64 15.35Q76.83 16.82 72.71 16.90L72.70 16.88L72.68 16.87Q68.64 17.05 64.68 15.95L64.66 15.92L64.69 15.96Q65.49 20.49 65.49 24.91L65.43 24.85L65.37 24.78Q65.47 26.79 65.36 28.69L65.31 28.64L65.32 28.66Q65.58 28.84 66.15 29.14L66.17 29.16L66.05 29.04Q66.41 28.83 67.06 28.49L67.18 28.61L67.08 28.51Q67.07 29.30 66.84 30.83L66.81 30.79L66.75 30.73Q67.28 31.03 67.70 31.26L67.75 31.31L67.60 31.17Q70.54 29.57 72.41 29.57L72.33 29.50L72.33 29.50Q73.60 29.44 74.79 30.09L74.81 30.11L74.83 30.14Q75.25 31.23 75.28 32.18L75.21 32.11L75.19 32.09Q75.21 34.62 74.18 35.73L74.24 35.79L74.27 35.82Q72.86 36.99 70.61 37.22L70.55 37.16L70.64 37.25Q69.79 37.43 69.11 37.35L68.98 37.23L69.01 37.26Q68.10 37.07 67.34 36.73L67.33 36.72L67.44 36.64L67.27 36.70L67.29 36.71Q66.56 36.29 66.03 34.96L65.87 34.80L65.87 34.80Q64.61 36.29 62.94 38.42L62.96 38.44L62.97 38.45Q63.13 38.95 63.97 39.90L64.07 40.01L64.12 40.06Q65.13 41.82 67.94 42.32L67.95 42.33L67.95 42.33Q69.14 42.56 74.51 42.68Z"/><path fill="#222" d="M105.03 41.47L105.10 41.54L105.07 41.51Q102.99 41.14 100.82 40.99L100.83 41.00L100.82 40.99Q99.32 39.49 96.66 35.65L96.72 35.71L96.73 35.72Q94.53 38.81 92.13 41.25L92.17 41.29L90.02 41.61L89.98 41.58Q88.98 41.83 87.99 42.10L88.05 42.16L88.02 42.12Q92.20 38.01 95.21 33.89L95.20 33.89L95.21 33.90Q91.85 29.62 86.44 24.82L86.60 24.98L86.56 24.94Q88.83 25.73 91.54 26.15L91.44 26.05L91.51 26.13Q94.89 29.16 96.79 31.86L96.78 31.85L96.72 31.79Q98.97 28.86 101.71 26.35L101.61 26.25L101.58 26.22Q104.69 25.94 106.51 25.44L106.44 25.37L106.60 25.53Q101.97 29.08 98.28 33.65L98.31 33.69L98.36 33.74Q101.67 38.34 105.14 41.58ZM108.05 24.77L107.96 24.68L107.99 24.71Q105.09 25.54 101.55 25.89L101.48 25.81L101.48 25.82Q98.69 28.59 96.98 31.06L96.87 30.95L96.92 31.00Q96.01 29.93 94.37 27.95L94.35 27.94L94.26 28.04L94.24 28.02Q94.04 27.93 93.92 27.93L94.03 28.04L93.92 27.92Q93.18 27.11 91.54 25.66L91.66 25.78L91.53 25.65Q87.94 25.10 85.08 23.88L85.08 23.89L85.22 24.02Q90.61 28.68 94.64 33.82L94.65 33.83L94.78 33.96Q91.26 38.44 86.84 42.74L86.94 42.84L87.01 42.91Q87.16 42.71 90.67 41.88L90.60 41.81L90.74 41.95Q89.21 43.27 87.57 44.61L87.46 44.49L87.46 44.50Q90.69 43.62 93.85 43.43L93.79 43.37L93.85 43.43Q96.27 41.20 98.18 38.46L98.12 38.40L98.24 38.52Q99.63 40.26 100.85 41.44L100.70 41.29L100.85 41.44Q100.84 41.31 100.91 41.39L101.01 41.49L101.18 41.47L101.10 41.38Q102.33 42.47 103.66 43.53L103.81 43.68L103.78 43.65Q107.25 44.08 110.15 45.10L110.20 45.16L110.18 45.14Q104.05 40.72 100.35 35.54L100.30 35.49L100.39 35.58Q104.00 30.51 108.57 26.44L108.66 26.53L108.68 26.54Q107.68 26.84 106.69 27.06L106.64 27.01L104.60 27.45L104.63 27.48Q105.90 26.66 108.07 24.79Z"/></svg>