<svg xmlns="http://www.w3.org/2000/svg" width="150" height="50" viewBox="0,0,150,50"><path fill="#333" d="M62.95 14.28L62.95 14.27L62.99 14.31Q66.72 16.78 71.47 17.01L71.56 17.10L71.48 17.01Q76.12 17.20 80.38 15.45L80.48 15.55L80.46 15.53Q80.21 16.08 79.45 18.86L79.45 18.86L79.50 18.91Q76.74 19.91 73.77 20.07L73.71 20.01L73.81 20.11Q70.70 20.12 67.81 19.40L67.93 19.52L67.84 19.43Q68.61 23.13 68.80 26.79L68.66 26.65L68.82 26.81Q70.72 26.92 72.32 26.88L72.28 26.84L72.38 26.94Q73.61 26.95 76.01 26.84L75.93 26.76L75.90 26.73Q75.87 27.38 75.87 28.07L75.93 28.13L75.88 29.41L75.91 29.44Q73.61 29.54 68.81 29.61L68.66 29.46L68.81 29.61Q68.80 33.71 68.23 37.71L68.21 37.70L68.14 37.63Q70.81 37.02 73.55 37.13L73.55 37.14L73.61 37.19Q76.30 37.26 78.89 38.10L78.86 38.07L78.75 37.96Q78.86 38.79 79.13 39.55L79.25 39.67L79.68 41.17L79.64 41.12Q76.47 39.86 73.04 39.86L72.97 39.79L73.06 39.88Q68.15 39.84 63.89 42.09L63.94 42.14L63.84 42.04Q66.22 35.28 65.95 28.16L65.82 28.03L65.98 28.19Q65.67 20.99 63.01 14.33ZM63.37 42.79L63.34 42.76L63.38 42.80Q64.67 42.10 65.43 41.76L65.44 41.77L65.43 41.77Q65.19 42.48 64.62 44.00L64.58 43.96L64.61 44.00Q69.17 42.04 74.23 42.31L74.29 42.36L74.23 42.30Q79.29 42.49 83.29 45.20L83.37 45.28L83.33 45.23Q82.15 42.69 81.47 40.75L81.45 40.73L81.48 40.76Q80.62 40.28 79.63 39.93L79.52 39.82L79.45 39.75Q79.11 38.43 78.95 37.63L78.91 37.58L78.93 37.60Q75.96 36.73 72.80 36.73L72.76 36.69L72.66 36.59Q71.52 36.59 70.38 36.70L70.57 36.89L70.55 36.88Q70.63 35.58 70.67 34.36L70.65 34.34L70.70 31.80L70.70 31.81Q72.61 31.81 74.39 31.85L74.33 31.79L74.35 31.80Q76.23 31.89 78.02 32.04L78.00 32.02L78.03 32.06Q77.93 31.08 77.93 30.13L77.93 30.12L77.79 28.09L77.11 28.28L76.97 28.14Q76.70 28.36 76.24 28.36L76.11 28.23L76.14 28.26Q76.12 27.56 76.28 26.27L76.26 26.25L76.42 26.41Q74.73 26.55 73.55 26.59L73.64 26.68L73.53 26.57Q72.60 26.59 70.77 26.51L70.74 26.48L70.81 26.55Q70.68 25.09 70.49 22.27L70.49 22.27L70.54 22.32Q71.60 22.47 72.59 22.47L72.47 22.34L72.54 22.41Q77.34 22.49 81.03 20.59L81.04 20.60L80.98 20.54Q81.48 18.11 82.36 15.90L82.47 16.02L82.49 16.04Q81.00 16.72 80.16 17.06L80.30 17.19L80.27 17.17Q80.54 16.37 80.99 14.81L81.05 14.86L81.04 14.85Q76.27 16.85 71.39 16.55L71.49 16.65L71.38 16.54Q66.20 16.34 62.36 13.49L62.24 13.37L62.27 13.40Q65.21 20.42 65.52 28.03L65.55 28.06L65.54 28.06Q65.97 36.10 63.46 42.88Z"/><path fill="#111" d="M21.69 29.12L21.77 29.20L21.85 29.28Q19.97 29.27 18.75 30.60L18.61 30.46L18.65 30.50Q17.45 31.85 17.30 33.75L17.24 33.69L17.32 33.78Q17.19 35.97 18.41 36.98L18.43 37.00L18.25 36.82Q19.56 37.92 21.69 37.84L21.59 37.74L21.64 37.79Q23.92 37.60 24.88 36.65L25.02 36.79L24.93 36.70Q25.89 35.19 25.78 33.36L25.94 33.52L25.87 33.46Q25.78 31.61 24.69 30.41L24.68 30.40L24.64 30.36Q23.66 29.26 21.83 29.26ZM21.74 19.77L21.62 19.65L21.69 19.72Q20.39 19.71 19.05 20.21L19.04 20.20L18.95 20.10Q17.72 20.97 17.95 22.83L17.91 22.79L18.00 22.89Q18.33 26.45 21.68 26.45L21.82 26.59L21.76 26.53Q23.29 26.69 24.28 25.55L24.25 25.51L24.30 25.56Q25.29 24.43 25.33 22.87L25.34 22.87L25.32 22.85Q25.49 21.20 24.77 20.59L24.74 20.56L24.60 20.42Q23.09 19.75 21.80 19.83ZM21.36 40.21L21.49 40.35L18.43 40.33L18.35 40.25Q16.86 40.28 15.53 39.41L15.56 39.44L15.50 39.38Q14.27 38.37 14.42 35.52L14.34 35.44L14.31 35.41Q14.82 28.61 18.44 27.62L18.39 27.57L18.45 27.63Q16.21 26.77 14.88 21.40L14.70 21.22L14.85 21.37Q14.43 19.88 14.51 19.08L14.61 19.19L14.56 19.14Q14.83 16.97 18.52 16.93L18.59 17.00L18.51 16.93Q22.76 16.86 24.20 17.05L24.27 17.12L24.23 17.09Q28.07 17.61 28.52 19.62L28.58 19.68L28.45 19.55Q28.68 20.27 28.68 20.65L28.60 20.58L28.53 20.51Q28.56 21.22 28.37 21.83L28.44 21.90L28.47 21.93Q27.76 26.05 24.83 27.58L24.78 27.53L24.95 27.70Q28.29 28.34 28.78 33.63L28.91 33.76L28.94 33.78Q28.87 33.86 28.90 35.16L28.97 35.22L28.83 35.08Q28.99 37.90 27.39 38.97L27.37 38.95L27.41 38.99Q26.07 39.90 21.50 40.35ZM23.71 42.61L23.74 42.63L27.10 42.72L27.01 42.63Q28.74 42.72 30.27 42.00L30.26 41.99L30.26 41.99Q31.54 41.41 31.61 39.54L31.48 39.41L31.44 39.37Q31.61 38.39 31.23 36.45L31.10 36.33L31.28 36.51Q30.37 31.87 28.28 30.00L28.19 29.91L27.94 29.47L27.86 29.32L27.69 29.04L27.56 28.90Q29.29 27.63 30.21 23.48L30.20 23.47L30.27 23.54Q30.13 23.02 30.20 22.18L30.24 22.22L30.36 22.34Q30.36 21.58 30.29 20.97L30.28 20.96L30.25 20.93Q30.21 19.60 29.03 19.10L28.98 19.05L28.95 18.98L28.89 19.00L28.84 18.95Q28.51 18.17 27.33 17.37L27.43 17.46L27.30 17.30L27.38 17.38Q25.45 16.74 21.38 16.55L21.34 16.51L21.33 16.50Q19.86 16.49 18.49 16.60L18.36 16.46L18.32 16.43Q17.53 16.48 16.24 16.63L16.23 16.62L16.33 16.72Q14.30 17.01 14.07 18.65L14.14 18.72L14.20 18.78Q14.15 19.26 14.19 20.06L14.18 20.06L14.23 20.10Q14.16 20.45 14.73 22.81L14.92 23.00L14.88 22.96Q15.59 26.11 17.34 27.44L17.32 27.42L17.52 27.62L17.54 27.64Q14.73 28.90 14.20 34.08L14.17 34.05L14.10 33.98Q13.95 36.23 13.95 37.15L14.03 37.22L13.91 37.11Q13.94 38.85 15.12 39.76L15.19 39.83L15.14 39.78Q15.27 39.87 15.54 40.06L15.62 40.15L15.67 40.20Q16.67 42.45 23.79 42.68ZM23.31 31.46L23.30 31.46L23.48 31.63Q24.35 31.52 25.23 31.98L25.22 31.97L25.25 31.99Q25.52 32.87 25.48 33.41L25.58 33.51L25.58 33.51Q25.56 33.76 25.56 34.06L25.63 34.13L25.64 34.14Q25.56 36.42 23.27 37.25L23.32 37.30L23.29 37.27Q22.54 37.63 21.74 37.51L21.62 37.39L21.61 37.38Q20.48 37.47 19.34 37.02L19.33 37.01L19.34 37.02Q19.25 36.54 19.33 35.55L19.34 35.56L19.15 35.38Q19.39 33.87 20.59 32.65L20.55 32.61L20.57 32.63Q21.74 31.38 23.34 31.50ZM23.59 22.03L23.65 22.10L23.54 21.99Q24.49 22.03 25.03 22.18L24.97 22.12L24.85 22.81L24.94 22.89Q24.90 24.27 23.99 25.28L23.97 25.26L24.05 25.34Q23.09 26.29 21.71 26.10L21.78 26.17L21.68 26.06Q20.84 26.22 20.42 25.99L20.34 25.91L20.36 25.93Q20.24 25.58 20.12 24.89L20.21 24.98L20.13 24.90Q19.87 23.49 21.08 22.66L21.14 22.71L21.24 22.81Q22.12 21.94 23.53 21.98Z"/><path fill="#333" d="M131.05 23.05L130.99 22.99L131.11 23.10Q129.30 25.83 126.64 31.47L126.52 31.35L124.64 35.70L124.61 35.68Q123.80 37.65 122.47 39.90L122.38 39.81L122.32 39.75Q122.94 39.91 121.26 39.95L121.16 39.84L121.09 39.77Q121.24 39.93 119.99 39.93L119.94 39.88L119.91 39.85Q119.25 38.43 116.32 31.27L116.30 31.25L116.25 31.20Q114.06 25.82 111.97 22.81L111.99 22.84L112.02 22.86Q112.78 25.94 112.78 29.10L112.75 29.07L112.75 29.07Q112.78 35.61 109.81 41.17L109.70 41.06L109.69 41.05Q108.35 41.39 105.99 42.11L106.03 42.15L106.16 42.28Q109.70 36.45 109.70 29.22L109.75 29.28L109.74 29.26Q109.85 20.42 104.44 13.46L104.35 13.37L104.34 13.36Q106.04 14.14 108.40 14.83L108.30 14.73L108.40 14.82Q115.51 21.63 121.60 34.96L121.59 34.94L121.52 34.87Q125.05 27.90 127.26 24.40L127.26 24.40L127.27 24.41Q130.83 18.61 134.79 15.14L134.78 15.12L134.85 15.19Q135.93 14.79 138.29 14.03L138.29 14.03L138.45 14.20Q133.46 20.81 133.46 29.42L133.39 29.35L133.33 29.29Q133.45 36.07 136.88 41.59L136.85 41.56L136.88 41.60Q135.38 41.12 132.64 40.51L132.81 40.68L132.73 40.60Q130.44 35.87 130.44 29.90L130.28 29.74L130.29 29.75Q130.38 26.41 131.07 23.06ZM132.45 40.89L132.58 41.02L132.58 41.03Q133.18 41.05 134.62 41.32L134.77 41.46L134.72 41.41Q135.18 42.18 136.13 43.66L136.05 43.58L136.07 43.60Q138.13 43.94 141.59 45.16L141.60 45.17L141.77 45.35Q135.38 38.87 135.38 29.05L135.48 29.15L135.37 29.05Q135.41 21.35 139.79 15.22L139.80 15.24L137.68 16.01L137.57 15.90Q138.66 14.44 139.31 13.57L139.26 13.51L139.26 13.52Q137.43 14.20 134.80 14.73L134.74 14.67L134.73 14.66Q127.93 20.72 121.87 33.33L122.02 33.48L121.95 33.41Q116.69 22.36 111.74 17.10L111.75 17.11L111.90 17.26Q111.44 17.10 110.86 16.99L110.87 16.99L109.58 15.62L109.56 15.60Q108.96 14.93 108.28 14.32L108.47 14.51L108.28 14.32Q105.40 13.50 103.61 12.78L103.63 12.79L103.54 12.71Q109.57 19.95 109.57 29.36L109.47 29.25L109.46 29.24Q109.46 36.87 105.31 42.73L105.34 42.75L105.28 42.70Q105.96 42.46 107.25 42.04L107.42 42.21L107.30 42.08Q107.32 42.49 105.91 44.58L105.82 44.49L105.78 44.45Q107.55 43.94 111.05 43.18L111.19 43.31L111.04 43.16Q114.94 36.29 114.75 28.52L114.62 28.39L114.61 28.38Q116.14 32.39 119.61 40.27L119.71 40.37L119.73 40.39Q119.88 40.24 120.11 40.24L120.08 40.21L120.53 40.13L120.54 40.14Q121.04 40.87 121.84 42.16L121.96 42.28L121.79 42.11Q123.59 42.28 123.59 42.28L123.45 42.14L123.61 42.30Q124.49 42.14 125.13 42.22L125.06 42.15L125.12 42.20Q126.75 38.24 130.10 30.25L130.10 30.25L130.00 30.14Q129.87 35.57 132.46 40.90Z"/><path fill="#111" d="M47.92 40.11L48.08 40.27L47.92 40.10Q46.21 40.19 44.54 40.76L44.41 40.64L44.41 40.64Q44.97 37.05 45.09 33.93L45.01 33.85L45.08 33.92Q45.29 30.96 45.06 27.31L45.09 27.34L44.96 27.21Q43.54 26.82 42.78 26.44L42.89 26.55L42.49 23.52L42.51 23.54Q43.19 24.11 44.79 24.68L44.77 24.66L44.78 24.67Q44.66 22.65 44.24 19.91L44.15 19.81L44.13 19.80Q46.45 20.52 48.09 20.36L47.99 20.27L48.02 25.02L47.92 24.92Q49.47 24.98 50.80 24.49L50.69 24.37L50.67 24.36Q50.63 25.27 50.41 27.02L50.48 27.10L50.37 26.98Q48.95 27.43 47.92 27.43L47.81 27.32L47.86 27.37Q47.82 29.50 47.82 33.76L47.98 33.92L47.85 33.80Q47.91 38.01 47.99 40.18ZM51.09 23.79L51.07 23.77L51.05 23.74Q50.90 23.98 50.29 24.20L50.24 24.16L50.65 21.41L50.65 21.40Q49.89 21.75 48.48 21.98L48.50 22.00L48.37 21.86Q48.37 21.18 48.52 19.81L48.48 19.77L48.53 19.82Q47.88 19.86 47.31 19.86L47.35 19.90L47.36 19.91Q45.34 20.01 43.70 19.29L43.60 19.19L43.59 19.18Q44.18 21.75 44.44 24.22L44.47 24.24L44.31 24.09Q43.46 23.77 41.93 22.74L42.06 22.86L41.89 22.69Q42.31 24.07 42.54 26.77L42.56 26.79L42.57 26.80Q43.01 27.01 44.19 27.43L44.11 27.36L44.10 27.34Q44.29 28.14 44.33 29.55L44.26 29.48L44.56 29.44L44.71 29.51L44.78 29.58Q44.75 30.74 44.75 31.92L44.78 31.95L44.77 31.93Q44.90 37.02 44.10 41.36L44.01 41.26L43.91 41.16Q44.16 41.11 46.10 40.58L46.19 40.66L46.22 40.69Q46.10 41.22 45.99 42.59L46.14 42.74L45.98 42.58Q46.94 42.67 47.74 42.67L47.58 42.51L47.65 42.58Q49.45 42.67 51.09 43.24L51.04 43.19L51.06 43.21Q49.73 37.51 49.92 29.59L49.81 29.47L52.32 29.20L52.35 29.24Q52.40 28.29 52.47 27.26L52.42 27.21L52.68 25.26L52.68 25.27Q52.00 25.42 50.82 25.87L50.77 25.83L50.87 25.93Q51.16 24.58 51.08 24.24L51.01 24.17L51.16 24.31Q51.07 24.04 51.15 23.85Z"/><path fill="#333" d="M99.66 27.25L99.53 27.12L99.50 27.09Q100.48 27.27 101.89 27.12L101.80 27.03L101.76 26.98Q101.76 27.68 101.76 28.32L101.69 28.26L101.72 29.54L101.71 29.53Q100.87 29.52 100.03 29.60L100.09 29.66L100.03 29.60Q99.16 29.60 98.32 29.57L98.31 29.55L98.45 29.69Q95.45 35.72 92.03 40.32L92.13 40.43L92.07 40.37Q89.59 41.05 88.30 41.66L88.37 41.73L88.40 41.77Q92.33 35.87 95.38 29.59L95.38 29.59L92.86 29.70L92.77 29.62Q92.78 28.28 92.66 26.95L92.63 26.92L92.70 26.99Q94.57 27.11 96.63 27.11L96.64 27.12L98.64 23.52L98.60 23.49Q99.57 21.56 100.78 19.96L100.78 19.96L100.86 20.04Q99.15 20.04 97.55 20.04L97.64 20.13L97.68 20.17Q91.45 20.03 87.68 17.82L87.78 17.92L87.21 16.28L87.21 16.28Q86.79 15.37 86.41 14.50L86.48 14.57L86.37 14.46Q90.75 17.12 96.46 17.35L96.44 17.33L96.53 17.42Q101.65 17.63 106.79 15.65L106.65 15.51L106.66 15.52Q106.50 15.97 106.01 16.85L106.12 16.96L106.02 16.85Q102.40 21.61 99.54 27.13ZM107.71 18.32L107.67 18.28L108.65 16.25L108.63 16.23Q107.78 16.83 106.11 17.56L106.00 17.45L106.27 17.23L106.21 17.17Q106.36 17.04 106.47 16.93L106.40 16.86L106.51 16.97Q106.83 16.23 107.56 14.89L107.63 14.97L107.50 14.83Q102.20 17.15 96.45 16.92L96.48 16.95L96.40 16.87Q90.52 16.74 85.76 13.77L85.62 13.63L85.69 13.70Q86.66 15.50 87.50 18.17L87.63 18.31L87.51 18.19Q88.59 18.81 89.39 19.11L89.51 19.23L89.45 19.18Q89.57 19.49 90.03 21.35L90.06 21.38L90.03 21.35Q93.22 22.63 98.74 22.48L98.81 22.56L98.82 22.56Q98.41 23.03 96.43 26.80L96.55 26.92L96.37 26.74Q94.38 26.81 92.40 26.61L92.47 26.68L92.35 26.56Q92.54 27.51 92.54 28.39L92.43 28.28L92.51 30.08L94.18 30.07L94.10 31.40L94.12 31.42Q90.18 38.78 87.40 42.36L87.45 42.41L87.48 42.44Q89.15 41.75 90.78 41.25L90.76 41.22L90.77 41.24Q90.00 42.07 88.63 43.78L88.65 43.81L88.64 43.79Q91.77 42.66 94.21 42.43L94.24 42.46L94.26 42.48Q97.14 38.66 100.26 31.89L100.21 31.84L103.73 32.12L103.69 32.08Q103.62 31.17 103.62 30.26L103.70 30.33L103.57 28.42L103.59 28.44Q103.38 28.50 102.83 28.53L102.85 28.56L102.82 28.53Q102.36 28.65 102.09 28.65L102.07 28.63L101.92 28.48Q102.01 28.45 102.05 28.30L101.96 28.21L102.02 28.01L102.06 28.05Q104.50 22.84 107.58 18.19Z"/></svg>