<svg xmlns="http://www.w3.org/2000/svg" width="150" height="50" viewBox="0,0,150,50"><path fill="#222" d="M24.20 32.17L15.00 22.20L14.98 22.18Q15.83 25.89 15.83 29.62L15.79 29.58L15.77 29.56Q15.86 35.62 13.80 41.18L13.74 41.12L13.71 41.09Q12.75 41.47 10.51 42.23L10.40 42.12L10.47 42.19Q13.17 36.29 13.17 29.59L13.25 29.67L13.23 29.65Q13.16 20.94 8.67 13.51L8.66 13.51L8.77 13.61Q9.25 13.83 9.94 14.25L9.81 14.12L9.74 14.05Q21.89 25.33 29.73 34.58L29.89 34.73L29.75 34.59Q29.46 32.17 29.46 29.73L29.54 29.82L29.39 29.67Q29.41 22.45 31.92 16.25L31.94 16.27L32.09 16.42Q34.34 15.81 35.94 15.13L36.00 15.18L36.00 15.19Q32.63 21.30 32.33 28.45L32.32 28.44L32.23 28.35Q32.06 35.83 35.03 42.00L34.94 41.92L34.94 41.91Q34.45 41.92 34.03 41.73L33.99 41.69L33.91 41.61Q29.46 37.77 24.25 32.21L24.26 32.22ZM37.64 45.18L37.62 45.16L37.61 45.16Q38.13 45.37 38.54 45.56L38.54 45.56L39.34 45.86L39.28 45.80Q34.12 38.85 34.12 29.48L34.26 29.63L34.22 29.59Q34.16 22.29 37.47 16.04L37.51 16.09L37.55 16.12Q36.83 16.28 35.42 16.89L35.38 16.85L35.47 16.94Q35.86 16.12 36.70 14.56L36.69 14.54L36.61 14.46Q34.14 15.35 31.71 15.92L31.70 15.91L31.82 16.03Q29.18 22.49 29.18 29.91L29.17 29.90L29.19 29.92Q29.03 31.63 29.22 33.61L29.29 33.68L29.33 33.72Q24.68 28.04 19.92 23.43L19.91 23.43L9.79 13.69L9.79 13.68Q9.28 13.44 8.07 12.87L8.01 12.82L7.97 12.78Q12.94 20.60 12.94 29.70L12.92 29.68L12.83 29.59Q12.84 36.72 9.76 42.74L9.83 42.81L9.71 42.69Q10.19 42.75 11.83 42.14L11.77 42.08L11.66 41.97Q11.48 42.90 10.64 44.38L10.63 44.37L10.67 44.41Q11.94 43.81 15.40 43.01L15.44 43.05L15.42 43.03Q17.65 36.81 17.65 29.61L17.69 29.65L17.62 29.59Q17.69 27.56 17.46 25.43L17.40 25.36L17.57 25.54Q28.96 38.26 37.56 45.11Z"/><path fill="#222" d="M119.69 28.70L119.60 28.61L119.54 28.55Q116.74 28.58 115.98 30.82L116.07 30.91L116.09 30.92Q115.70 31.49 115.58 32.14L115.63 32.18L115.59 32.14Q118.35 32.50 119.99 32.50L119.83 32.34L119.93 32.45Q121.56 32.44 124.15 32.33L124.15 32.33L124.20 32.38Q124.13 30.71 122.72 29.65L122.64 29.56L122.73 29.65Q121.34 28.56 119.55 28.56ZM119.72 41.22L119.67 41.17L119.62 41.12Q115.39 41.11 114.09 39.70L114.18 39.79L114.15 39.76Q113.26 38.37 113.10 35.10L113.02 35.01L113.03 35.02Q113.07 34.84 112.99 33.47L112.95 33.42L113.07 33.55Q112.82 31.12 112.82 30.40L112.82 30.40L112.92 30.50Q112.86 28.57 113.58 27.47L113.48 27.36L113.50 27.39Q115.01 26.08 117.98 26.08L117.87 25.97L119.40 25.94L119.57 26.11Q121.50 25.99 123.03 26.29L123.02 26.29L123.01 26.27Q125.18 26.85 126.17 28.06L126.17 28.07L126.14 28.04Q126.73 29.08 126.80 31.17L126.80 31.17L126.83 31.20Q126.72 32.23 126.76 34.40L126.83 34.47L126.76 34.40Q123.95 34.49 121.17 34.49L121.19 34.51L115.67 34.58L115.64 34.55Q115.76 38.94 119.84 38.71L119.92 38.79L119.88 38.75Q123.68 38.60 124.90 36.77L124.79 36.66L124.91 36.78Q125.69 37.21 127.28 38.39L127.31 38.42L127.22 38.33Q125.88 40.75 121.73 41.02L121.77 41.07L121.79 41.09Q120.95 41.01 119.58 41.08ZM121.91 43.45L121.92 43.46L121.90 43.44Q123.07 43.47 124.29 43.55L124.21 43.46L124.24 43.49Q129.33 43.79 130.24 41.01L130.28 41.04L130.23 41.00Q128.61 39.75 127.50 38.99L127.51 39.00L127.55 39.04Q127.69 38.61 127.88 38.38L127.90 38.40L127.77 38.27Q127.11 37.87 125.74 36.92L125.82 37.01L125.76 36.95Q126.84 37.00 128.90 37.30L128.91 37.31L128.81 37.21Q128.66 35.88 128.58 35.19L128.55 35.17L128.38 33.21L128.54 33.36Q128.25 30.87 127.60 29.38L127.61 29.39L127.63 29.41Q127.35 29.05 126.78 28.44L126.90 28.56L126.85 28.52Q126.67 28.18 126.44 27.61L126.52 27.69L126.53 27.70Q124.61 25.63 119.54 25.63L119.45 25.53L117.91 25.66L117.77 25.52Q114.66 25.65 113.21 27.14L113.05 26.98L113.04 26.96Q112.43 28.14 112.47 30.20L112.45 30.18L112.47 30.20Q112.62 31.26 112.73 33.51L112.70 33.47L112.68 33.46Q112.69 34.99 112.80 37.05L112.94 37.19L112.93 37.17Q113.20 39.42 114.08 40.49L113.99 40.40L114.06 40.47Q114.22 40.63 114.41 40.74L114.26 40.60L114.56 41.24L114.74 41.42Q115.41 43.16 122.00 43.54ZM119.81 38.27L119.78 38.23L119.77 38.23Q118.75 38.46 117.83 38.00L117.70 37.87L117.75 37.92Q117.65 37.48 117.46 36.79L117.63 36.96L117.57 36.90Q119.12 36.67 120.72 36.67L120.74 36.68L120.78 36.72Q122.45 36.71 124.12 36.83L124.25 36.96L124.21 36.91Q122.86 38.19 119.85 38.30ZM121.55 31.02L121.47 30.94L121.42 30.89Q122.17 31.03 123.50 31.41L123.57 31.48L123.60 31.70L123.75 32.04L123.63 31.92Q122.27 32.05 121.36 32.01L121.47 32.12L121.33 31.98Q119.21 32.10 119.17 32.10L119.05 31.99L119.01 31.95Q119.91 31.17 121.58 31.05Z"/><path fill="#444" d="M42.41 32.86L42.54 33.00L42.55 33.00Q45.55 32.54 48.75 32.66L48.78 32.69L48.76 32.67Q48.74 30.14 48.74 27.74L48.72 27.72L48.74 27.74Q48.78 25.31 48.97 22.75L48.93 22.71L48.87 22.65Q47.66 24.38 42.45 32.91ZM52.35 40.26L52.41 40.32L52.47 40.38Q50.67 39.95 48.88 39.87L48.92 39.91L48.92 39.91Q48.78 37.60 48.67 35.12L48.69 35.15L48.68 35.14Q43.36 34.96 38.64 36.36L38.67 36.40L38.58 36.31Q38.60 35.72 38.79 34.73L38.91 34.85L38.81 34.75Q40.64 31.63 44.22 25.35L44.20 25.33L44.27 25.40Q47.22 20.59 50.65 16.70L50.55 16.61L50.62 16.67Q51.46 16.45 53.14 16.18L53.03 16.08L53.08 16.12Q51.27 22.66 51.27 29.70L51.20 29.63L51.27 29.70Q51.24 31.15 51.31 32.63L51.32 32.64L52.64 32.78L52.65 32.79Q53.26 32.83 53.87 32.94L53.83 32.90L53.89 32.97Q53.82 33.77 54.09 35.72L54.10 35.73L54.20 35.83Q52.99 35.57 51.50 35.37L51.39 35.26L51.48 35.35Q51.62 37.27 52.30 40.21ZM54.06 32.48L54.16 32.58L54.12 32.55Q53.84 32.38 53.65 32.38L53.70 32.43L53.32 32.43L53.21 32.32Q53.26 31.01 53.26 29.60L53.17 29.50L53.10 29.43Q53.20 23.13 55.25 17.12L55.27 17.13L55.22 17.08Q54.53 17.43 53.09 17.81L53.09 17.81L53.03 17.75Q53.31 17.04 53.76 15.63L53.74 15.61L53.70 15.56Q52.41 15.95 50.36 16.18L50.41 16.24L50.41 16.23Q46.51 20.60 41.30 29.97L41.23 29.90L43.39 26.31L43.43 26.34Q42.99 27.35 42.72 27.92L42.70 27.90L38.30 36.98L38.19 36.87Q38.80 36.68 39.94 36.30L39.93 36.29L39.76 36.50L39.90 36.64Q39.75 37.29 39.44 38.54L39.51 38.61L39.37 38.47Q43.51 37.17 48.35 37.36L48.45 37.46L48.31 37.32Q48.37 38.29 48.56 40.27L48.69 40.40L48.68 40.39Q49.65 40.30 50.72 40.42L50.71 40.41L50.72 40.41Q50.79 41.01 51.05 42.38L51.19 42.53L51.07 42.41Q53.06 42.72 56.07 43.63L56.10 43.66L56.01 43.57Q55.03 41.46 54.12 38.18L54.25 38.31L55.62 38.69L55.55 38.62Q56.27 38.88 56.95 39.22L56.91 39.19L56.88 39.15Q56.17 36.73 56.02 35.06L56.11 35.15L56.01 35.05Q55.37 34.83 54.23 34.60L54.33 34.70L54.37 34.74Q54.02 33.32 54.02 32.44ZM46.12 32.39L46.04 32.31L45.99 32.26Q46.89 31.10 48.45 28.55L48.39 28.49L48.47 28.58Q48.35 29.40 48.31 30.35L48.27 30.31L48.44 30.48Q48.41 31.44 48.45 32.40L48.39 32.34L48.30 32.25Q47.88 32.36 47.31 32.36L47.24 32.30L47.23 32.28Q46.74 32.40 46.13 32.40Z"/><path fill="#222" d="M98.90 39.83L98.88 39.81L96.93 39.81L96.97 39.84Q96.10 39.93 95.15 40.04L95.04 39.93L95.13 40.02Q95.74 33.85 95.74 29.86L95.69 29.81L95.72 29.84Q91.68 23.10 84.03 14.42L84.06 14.45L84.11 14.49Q85.91 15.50 89.26 16.30L89.17 16.21L89.09 16.13Q94.21 21.78 97.21 26.99L97.16 26.94L97.25 27.03Q100.21 21.42 104.59 16.40L104.56 16.37L104.65 16.46Q107.00 15.99 109.51 15.19L109.63 15.31L109.56 15.24Q103.41 21.23 98.53 29.64L98.70 29.81L98.62 29.73Q98.70 36.86 99.01 39.94ZM107.96 17.22L110.69 14.39L110.80 14.50Q107.65 15.61 104.53 16.07L104.49 16.03L104.47 16.02Q100.31 20.80 97.49 25.90L97.42 25.83L97.41 25.82Q95.37 22.25 92.17 18.37L92.19 18.39L92.22 18.42Q91.93 18.40 91.44 18.32L91.28 18.16L91.30 18.19Q90.78 17.55 89.26 15.87L89.10 15.71L89.08 15.70Q85.87 15.12 82.90 13.56L82.82 13.47L82.76 13.41Q90.55 21.97 95.31 29.89L95.39 29.97L95.23 29.80Q95.14 36.15 94.53 40.30L94.54 40.31L94.58 40.35Q95.35 40.36 96.80 40.25L96.85 40.30L96.73 41.20L96.88 41.35Q96.78 41.71 96.71 42.25L96.64 42.18L96.65 42.19Q100.22 42.22 101.97 42.41L102.03 42.47L102.06 42.50Q100.65 37.67 100.54 31.69L100.56 31.71L100.72 31.87Q105.10 23.42 111.65 16.07L111.62 16.05L108.03 17.29Z"/><path fill="#222" d="M64.43 41.15L64.45 41.17L64.33 41.05Q67.62 36.91 74.32 28.99L74.27 28.94L74.18 28.86Q68.37 29.17 64.60 27.80L64.53 27.73L64.65 27.85Q63.91 26.35 63.14 24.94L63.03 24.83L63.04 24.84Q67.21 26.41 71.66 26.45L71.78 26.57L71.66 26.44Q76.11 26.48 80.29 25.41L80.43 25.55L80.31 25.42Q79.87 26.05 79.60 26.58L79.56 26.54L79.59 26.57Q77.09 28.84 74.28 32.45L74.33 32.51L69.41 38.70L69.32 38.62Q71.75 38.60 73.99 38.68L73.85 38.53L73.98 38.67Q75.98 38.53 78.23 38.91L78.29 38.98L78.29 38.98Q78.41 39.56 79.14 41.58L79.17 41.61L79.18 41.62Q75.44 40.77 71.44 40.89L71.42 40.86L71.40 40.85Q67.60 41.12 63.94 42.30L63.79 42.14L63.91 42.26Q63.86 41.98 64.31 41.03ZM63.36 42.89L63.35 42.88L63.31 42.85Q64.11 42.54 65.71 42.12L65.75 42.16L65.72 42.13Q65.37 42.23 64.95 42.65L65.04 42.74L65.02 42.73Q64.78 43.29 64.17 44.43L64.07 44.33L64.13 44.39Q68.96 43.16 73.95 43.31L73.91 43.28L73.93 43.30Q78.88 43.45 83.45 45.32L83.48 45.35L83.46 45.33Q81.95 43.40 81.04 41.35L80.95 41.25L80.99 41.30Q80.35 41.11 79.28 40.89L79.20 40.81L79.21 40.82Q79.04 40.11 78.66 38.66L78.65 38.65L78.53 38.53Q77.09 38.31 73.51 38.20L73.59 38.28L73.52 38.21Q75.88 34.85 80.90 28.49L80.86 28.45L80.95 28.54Q81.22 27.82 81.90 26.49L81.95 26.54L79.64 27.27L79.52 27.15Q79.59 27.07 79.74 26.95L79.76 26.97L79.93 26.76L79.93 26.77Q80.39 25.70 80.96 24.75L80.95 24.74L81.09 24.87Q76.42 26.22 71.70 26.15L71.58 26.02L71.56 26.01Q66.84 26.00 62.35 24.18L62.30 24.13L62.30 24.13Q63.60 26.12 64.40 28.17L64.44 28.21L64.35 28.13Q65.09 28.33 66.16 28.60L66.20 28.64L66.32 28.76Q66.53 29.46 66.83 30.91L66.84 30.92L66.84 30.92Q68.37 31.11 71.68 31.26L71.66 31.24L71.56 31.15Q69.21 34.50 64.03 40.94L64.02 40.93L64.05 40.96Q63.83 41.57 63.26 42.79Z"/></svg>