<svg xmlns="http://www.w3.org/2000/svg" width="150" height="50" viewBox="0,0,150,50"><path fill="#333" d="M64.90 47.04L65.01 47.15L64.85 46.99Q64.03 47.31 62.12 47.61L62.03 47.52L62.00 47.49Q63.46 45.48 64.49 44.19L64.32 44.03L64.48 44.18Q66.11 44.37 66.27 44.37L66.37 44.48L66.25 44.36Q66.69 44.56 67.22 44.45L67.12 44.35L67.24 44.47Q67.91 44.38 68.11 44.38L68.01 44.28L67.95 44.23Q70.57 44.03 70.49 41.86L70.42 41.79L70.58 41.95Q70.37 40.29 70.25 34.05L70.26 34.05L70.41 34.20Q70.34 30.62 70.41 26.48L70.39 26.46L71.82 26.28L71.85 26.32Q72.42 26.12 73.10 25.89L73.11 25.90L73.03 25.82Q72.94 30.38 72.98 34.75L72.91 34.69L72.94 34.71Q72.97 39.08 73.50 43.46L73.51 43.47L73.56 43.52Q73.56 43.75 73.56 44.01L73.61 44.06L73.61 44.06Q73.67 45.76 71.99 46.14L71.83 45.97L71.84 45.98Q68.75 46.40 64.90 47.05ZM71.69 22.84L69.68 19.84L69.62 19.78Q70.56 18.29 72.39 15.51L72.49 15.61L72.40 15.52Q73.08 16.43 74.42 18.26L74.37 18.21L71.77 22.92ZM74.70 49.45L74.76 49.51L74.75 49.50Q75.34 49.60 76.10 49.25L75.99 49.14L75.97 49.12Q76.42 48.55 76.42 48.09L76.35 48.02L76.30 47.98Q76.35 47.68 76.23 47.07L76.11 46.95L76.26 47.10Q74.90 40.67 74.90 32.75L74.86 32.71L74.85 32.70Q74.98 29.97 75.13 27.08L75.11 27.06L74.93 26.88Q74.45 27.12 73.31 27.43L73.41 27.53L73.39 27.51Q73.28 26.91 73.32 26.38L73.29 26.35L73.47 25.34L73.43 25.31Q71.72 25.96 69.93 25.99L70.05 26.11L70.08 26.14Q69.92 30.36 69.96 33.94L70.06 34.04L70.15 41.86L70.14 41.85Q70.10 43.71 67.93 43.83L67.97 43.86L68.07 43.97Q67.70 43.83 67.19 43.88L67.25 43.94L67.26 43.96Q66.69 43.96 66.43 43.96L66.55 44.09L66.41 43.94Q66.02 44.01 64.46 43.59L64.44 43.57L64.42 43.55Q63.97 44.17 62.87 45.85L62.97 45.95L61.46 48.28L61.26 48.09Q62.25 48.01 63.89 47.63L63.90 47.64L63.41 48.33L62.94 49.04L62.98 49.08Q65.21 48.87 66.54 48.95L66.52 48.93L66.57 48.98Q68.69 48.97 74.63 49.39ZM71.71 23.63L71.73 23.64L72.07 23.11L71.94 22.98Q72.41 23.52 73.36 25.12L73.40 25.17L73.43 25.19Q74.91 22.02 76.47 18.94L76.39 18.86L76.35 18.82Q75.51 17.37 74.56 16.08L74.47 15.99L74.51 16.03Q74.23 16.17 73.89 16.70L73.99 16.81L73.89 16.71Q73.59 16.18 72.60 14.88L72.55 14.84L72.60 14.88Q71.32 16.39 69.00 19.74L69.14 19.87L69.07 19.80Q70.01 21.05 71.73 23.64Z"/><path fill="#222" d="M26.08 29.58L26.00 29.50L26.08 29.57Q24.86 28.77 24.21 28.81L24.14 28.73L24.13 28.73Q22.75 28.80 21.70 29.80L21.82 29.92L21.82 29.92Q20.72 30.88 20.83 32.25L20.82 32.23L20.79 32.21Q21.19 36.64 20.32 41.17L20.34 41.19L20.26 41.12Q18.05 41.56 16.94 42.10L16.96 42.11L16.95 42.10Q18.51 37.99 18.28 33.54L18.12 33.38L18.11 33.36Q18.01 29.00 16.29 24.93L16.16 24.79L16.24 24.87Q17.48 25.66 19.77 26.30L19.72 26.26L20.16 28.83L20.28 28.95Q21.01 26.10 25.28 26.10L25.20 26.03L25.23 26.06Q25.67 26.04 25.98 26.04L25.86 25.93L25.94 26.00Q27.13 25.90 28.39 26.59L28.35 26.55L28.34 26.54Q27.17 28.04 26.03 29.52ZM27.70 31.57L27.65 31.37L27.80 31.52Q28.68 30.35 30.36 27.91L30.19 27.75L30.19 27.75Q29.80 27.47 28.28 27.20L28.26 27.18L28.28 27.20Q28.64 26.92 29.10 26.31L28.99 26.20L29.17 26.38Q27.21 25.42 25.27 25.61L25.29 25.62L25.31 25.64Q23.35 25.81 22.62 26.08L22.53 25.99L22.54 26.00Q21.19 26.47 20.39 27.58L20.40 27.59L20.23 26.76L20.02 25.91L19.95 25.84Q17.63 25.50 15.65 24.17L15.58 24.10L15.65 24.17Q17.77 28.54 18.00 33.41L18.03 33.44L18.06 33.47Q18.26 38.36 16.51 42.89L16.35 42.73L16.41 42.78Q17.60 42.41 18.47 42.11L18.36 41.99L18.44 42.07Q18.05 43.05 17.55 44.11L17.54 44.10L17.64 44.21Q20.46 43.33 22.59 43.21L22.66 43.28L22.77 38.67L22.79 38.69Q22.94 36.49 22.94 34.24L22.84 34.14L22.82 34.12Q22.92 33.03 23.83 32.06L23.84 32.08L23.84 32.07Q24.72 31.07 25.86 30.99L25.95 31.08L25.84 30.97Q26.53 30.90 27.25 31.58L27.15 31.48L27.64 31.52ZM22.66 29.73L22.71 29.71L22.56 29.67L22.64 29.71Z"/><path fill="#444" d="M123.26 39.75L123.33 39.83L123.36 39.86Q121.36 39.76 119.34 39.95L119.37 39.98L119.37 39.97Q119.95 34.65 119.95 29.82L120.07 29.94L120.12 29.99Q120.16 25.12 119.51 19.90L119.48 19.87L119.39 19.79Q114.74 19.32 111.54 17.65L111.72 17.82L110.85 15.92L110.85 15.93Q110.73 15.50 110.12 14.28L110.11 14.27L110.06 14.22Q115.22 16.98 121.24 17.18L121.09 17.03L121.12 17.06Q126.95 17.17 132.39 15.12L132.49 15.21L132.55 15.28Q131.73 16.59 131.08 18.41L131.06 18.39L131.07 18.40Q127.46 19.71 123.20 19.90L123.32 20.02L123.24 19.94Q123.07 24.98 123.07 29.93L123.14 30.00L123.14 30.00Q123.11 34.93 123.42 39.91ZM133.10 14.45L133.13 14.48L133.20 14.56Q127.42 16.89 121.22 16.70L121.24 16.72L121.12 16.60Q114.47 16.42 109.36 13.45L109.44 13.53L109.46 13.54Q110.05 14.67 111.34 17.94L111.36 17.96L111.38 17.98Q112.03 18.28 113.28 18.85L113.37 18.94L113.28 18.84Q113.64 19.66 113.98 21.18L113.94 21.14L113.95 21.15Q116.26 22.02 119.30 22.25L119.30 22.24L119.22 22.16Q119.65 25.90 119.65 29.67L119.56 29.58L119.62 29.65Q119.64 35.03 118.84 40.40L118.85 40.41L118.77 40.33Q120.45 40.22 120.98 40.22L121.14 40.38L121.15 40.39Q120.98 40.52 120.92 41.18L121.01 41.27L121.03 41.29Q120.87 41.85 120.87 42.20L120.93 42.26L121.02 42.35Q122.07 42.14 123.59 42.22L123.65 42.28L123.57 42.20Q124.47 42.22 126.30 42.38L126.46 42.54L126.35 42.43Q125.18 37.57 125.07 32.39L125.16 32.48L125.03 32.35Q124.91 27.05 125.44 22.14L125.41 22.11L125.35 22.05Q129.44 21.65 132.60 20.43L132.47 20.30L132.56 20.39Q133.25 18.00 134.28 15.94L134.37 16.04L134.20 15.86Q132.98 16.66 132.18 16.96L132.08 16.86L132.13 16.91Q132.57 15.64 133.14 14.50Z"/><path fill="#333" d="M46.55 41.14L46.54 41.13L44.88 41.18L44.88 41.18Q41.53 41.22 40.58 39.09L40.53 39.04L40.42 38.93Q41.61 37.91 43.06 36.81L43.07 36.82L43.11 36.86Q43.73 39.08 46.59 38.93L46.61 38.96L46.46 38.80Q47.36 38.86 48.39 38.64L48.39 38.64L48.44 38.69Q49.34 38.15 49.27 37.19L49.26 37.18L49.15 37.08Q49.12 36.02 47.33 35.33L47.36 35.36L43.48 33.77L43.58 33.86Q41.21 32.48 40.87 28.94L40.80 28.87L40.90 28.98Q40.66 26.80 42.83 26.23L42.89 26.29L42.95 26.34Q43.89 26.11 46.86 26.11L46.79 26.03L46.77 26.01Q51.72 26.09 52.63 28.60L52.48 28.46L52.57 28.54Q51.93 29.08 51.20 29.53L51.16 29.49L49.79 30.48L49.74 30.43Q49.34 28.62 46.10 28.39L46.14 28.43L46.00 28.29Q45.54 28.44 44.52 28.86L44.44 28.78L44.56 28.91Q43.79 29.05 43.79 30.16L43.87 30.23L43.86 30.23Q44.22 31.31 46.05 31.99L46.05 32.00L46.14 32.08Q47.14 32.40 49.81 33.51L49.86 33.56L49.87 33.57Q51.57 34.28 51.76 36.83L51.87 36.94L51.87 36.93Q51.78 37.42 51.71 38.41L51.90 38.60L51.84 38.55Q51.81 39.43 51.24 40.08L51.17 40.01L51.16 39.99Q49.55 41.10 46.51 41.10ZM51.24 43.66L51.32 43.74L51.35 43.77Q52.23 43.78 53.61 43.47L53.69 43.55L53.55 43.42Q54.61 42.72 54.42 41.50L54.49 41.58L54.44 41.53Q54.40 40.99 54.10 39.40L54.00 39.29L54.13 39.43Q53.49 36.39 51.70 35.17L51.68 35.15L51.80 35.28Q51.20 33.80 49.95 33.08L50.06 33.19L49.97 33.10Q48.74 32.71 46.27 31.76L46.21 31.70L46.19 31.68Q46.35 31.23 46.62 31.12L46.60 31.10L46.63 31.13Q47.32 30.76 47.97 30.72L47.85 30.59L48.00 30.75Q48.75 30.66 49.51 30.93L49.45 30.86L49.62 31.11L49.56 30.94L49.95 31.13L49.84 31.07L49.75 30.98Q50.88 31.49 51.07 32.75L51.17 32.85L51.21 32.90Q52.40 31.99 54.31 30.32L54.22 30.23L54.26 30.27Q54.08 29.63 53.09 28.45L53.10 28.46L52.97 28.33Q51.95 25.75 46.85 25.63L46.70 25.49L46.70 25.49Q43.59 25.50 41.61 26.07L41.59 26.05L41.58 26.04Q40.25 26.69 40.48 28.78L40.49 28.80L40.46 28.76Q40.54 29.99 41.46 32.08L41.46 32.09L41.48 32.10Q42.01 33.21 43.04 33.93L42.98 33.87L43.09 33.98Q43.70 35.40 45.00 36.08L45.03 36.12L44.94 36.03Q45.95 36.35 46.91 36.73L46.94 36.77L48.82 37.50L48.86 37.55Q48.47 38.60 46.53 38.49L46.55 38.51L46.47 38.43Q46.14 38.60 44.93 38.29L44.88 38.25L44.97 38.19L44.86 38.30L44.74 38.18Q43.96 37.90 43.32 36.42L43.22 36.32L43.33 36.43Q41.03 37.82 39.93 38.97L39.92 38.96L39.99 39.03Q40.26 39.91 41.29 40.71L41.31 40.73L41.10 40.82L41.05 40.78Q42.68 43.09 46.90 43.47L46.75 43.32L46.80 43.36Q48.03 43.45 51.26 43.68Z"/><path fill="#444" d="M95.06 29.84L95.09 29.88L95.02 29.80Q94.83 29.84 94.52 29.84L94.55 29.87L94.61 29.93Q93.28 29.93 91.83 30.77L91.72 30.65L91.80 30.73Q90.39 31.76 90.39 33.66L90.50 33.77L90.36 33.64Q90.36 37.07 91.89 38.40L91.89 38.40L92.00 38.51Q92.87 39.61 95.16 39.61L95.07 39.53L95.23 39.68Q95.53 39.76 95.83 39.76L95.67 39.59L95.79 39.72Q97.37 39.58 98.51 37.94L98.54 37.97L98.58 38.00Q99.56 36.44 99.49 34.65L99.54 34.70L99.62 34.78Q99.59 34.22 99.59 33.81L99.60 33.81L99.66 33.87Q99.59 32.01 98.22 30.85L98.20 30.83L98.23 30.87Q96.78 29.63 94.99 29.78ZM99.61 40.06L99.57 40.03L99.55 40.01Q98.53 41.92 94.80 42.03L94.83 42.06L94.85 42.08Q91.35 42.09 89.75 40.49L89.82 40.56L89.77 40.50Q88.35 38.78 87.55 33.99L87.65 34.08L87.65 34.09Q87.38 32.37 87.38 31.11L87.23 30.96L87.33 31.06Q87.23 29.17 87.95 28.11L88.05 28.21L88.09 28.24Q89.31 26.72 92.28 26.72L92.33 26.78L92.42 26.86Q98.72 26.85 100.63 29.43L100.60 29.41L100.61 29.42Q100.73 28.54 101.15 26.95L101.25 27.05L101.16 26.96Q102.37 26.61 104.81 25.81L104.94 25.94L104.82 25.82Q102.45 31.52 102.22 37.84L102.22 37.84L102.11 37.73Q102.00 44.01 104.13 49.84L104.02 49.73L104.07 49.78Q102.44 49.25 100.65 48.98L100.68 49.02L100.64 48.97Q99.61 44.90 99.49 39.95ZM100.43 49.33L100.33 49.24L100.42 49.33Q100.98 49.32 102.39 49.63L102.55 49.79L102.52 49.76Q102.63 50.36 103.20 51.77L103.20 51.76L103.31 51.88Q105.78 52.48 108.07 53.78L108.06 53.77L108.22 53.93Q104.14 47.30 104.14 38.77L104.01 38.64L104.02 38.65Q104.12 32.40 106.60 26.61L106.60 26.61L106.52 26.54Q105.86 26.86 104.49 27.51L104.45 27.47L104.62 27.64Q104.84 26.76 105.49 25.20L105.52 25.23L105.57 25.28Q104.04 25.84 100.84 26.72L100.75 26.63L100.83 26.71Q100.72 27.28 100.41 28.46L100.25 28.30L100.25 28.29Q98.39 26.55 92.26 26.40L92.26 26.40L92.16 26.30Q88.97 26.23 87.60 27.72L87.67 27.78L87.66 27.77Q86.94 28.96 86.98 30.86L86.97 30.86L86.84 30.72Q87.11 33.89 88.10 37.66L87.95 37.51L87.97 37.52Q88.68 39.99 89.60 40.94L89.54 40.89L89.99 41.34L89.97 41.31Q91.04 43.98 96.48 44.21L96.66 44.39L96.65 44.38Q97.66 44.40 99.48 44.09L99.40 44.01L99.37 43.98Q99.78 47.01 100.39 49.29ZM97.04 32.24L96.86 32.06L96.93 32.13Q98.00 32.14 98.84 32.44L98.87 32.47L98.80 32.41Q99.11 33.06 99.23 33.67L99.12 33.56L99.23 33.67Q99.20 34.10 99.12 34.71L99.23 34.82L99.14 34.73Q99.14 36.63 98.11 37.92L98.27 38.08L98.10 37.91Q96.95 39.35 95.08 39.16L95.20 39.27L95.19 39.26Q93.95 39.31 92.99 38.89L92.94 38.84L92.94 38.84Q92.54 37.99 92.54 36.77L92.52 36.75L92.60 36.83Q92.50 36.42 92.50 36.11L92.46 36.07L92.56 36.18Q92.58 34.44 93.91 33.28L93.81 33.18L93.84 33.21Q95.16 32.03 96.91 32.11Z"/></svg>