<svg xmlns="http://www.w3.org/2000/svg" width="150" height="50" viewBox="0,0,150,50"><path fill="#222" d="M72.12 30.54L72.12 30.54L71.93 30.35Q68.47 36.72 65.05 40.68L64.99 40.63L65.17 40.80Q63.32 41.23 60.88 42.11L60.87 42.09L60.86 42.09Q65.76 36.48 70.52 28.07L70.36 27.91L70.53 28.08Q65.84 21.03 59.87 14.64L59.82 14.59L59.86 14.63Q62.88 15.94 65.17 16.43L65.01 16.28L65.14 16.41Q69.66 21.49 72.09 25.45L72.25 25.61L72.14 25.50Q74.69 21.12 78.61 16.70L78.64 16.73L78.68 16.77Q80.26 16.45 83.46 15.69L83.44 15.67L83.41 15.64Q77.22 21.98 73.76 27.92L73.75 27.91L73.82 27.98Q79.07 36.73 83.44 41.30L83.48 41.33L83.47 41.33Q80.87 40.52 78.78 40.29L78.65 40.15L78.79 40.30Q75.86 37.18 71.94 30.36ZM78.67 40.60L78.61 40.53L78.58 40.50Q79.03 40.68 79.48 40.80L79.49 40.81L79.33 40.64Q80.15 41.43 81.67 43.03L81.82 43.18L81.75 43.11Q85.03 43.83 88.08 45.20L88.07 45.20L88.22 45.35Q80.91 38.58 75.81 29.82L75.86 29.87L75.90 29.90Q79.55 23.16 85.45 16.31L85.57 16.44L85.59 16.46Q84.17 17.13 82.00 17.66L81.91 17.56L81.93 17.58Q82.80 16.67 84.55 14.88L84.48 14.80L84.48 14.81Q82.20 15.80 78.50 16.37L78.37 16.24L78.48 16.34Q75.04 20.14 72.45 24.44L72.48 24.47L72.47 24.46Q71.56 22.86 70.38 21.38L70.32 21.32L68.00 18.35L67.63 18.37L67.67 18.40Q67.45 18.33 67.22 18.26L67.22 18.26L67.35 18.39Q66.68 17.56 65.19 16.00L65.14 15.95L65.14 15.95Q61.42 15.16 58.83 13.79L58.82 13.78L58.74 13.70Q65.44 20.93 70.01 27.97L70.04 28.01L70.11 28.07Q65.49 36.14 59.74 42.72L59.76 42.74L59.85 42.83Q61.18 42.18 63.32 41.61L63.33 41.62L61.92 42.96L61.92 42.96Q61.90 42.94 60.57 44.27L60.60 44.30L60.66 44.37Q63.64 43.27 66.80 42.78L66.78 42.75L66.81 42.79Q70.81 38.25 73.39 33.49L73.44 33.53L73.49 33.59Q75.86 37.63 78.56 40.48Z"/><path fill="#333" d="M20.87 28.89L20.80 28.83L20.91 28.93Q18.36 28.93 17.33 30.11L17.36 30.14L17.38 30.16Q16.30 31.29 16.30 33.92L16.37 33.98L16.26 33.88Q16.32 39.04 20.93 38.85L20.81 38.73L20.83 38.75Q22.98 39.00 24.33 37.44L24.36 37.46L24.38 37.49Q25.67 35.87 25.44 33.81L25.48 33.85L25.41 33.77Q25.41 31.23 24.54 30.20L24.56 30.22L24.49 30.16Q23.08 28.90 20.87 28.90ZM25.97 38.75L26.01 38.80L25.90 38.68Q24.77 41.20 20.09 41.20L20.00 41.12L18.57 41.14L18.61 41.17Q16.24 41.17 15.14 40.02L15.13 40.02L15.17 40.06Q14.10 38.98 13.83 36.59L13.76 36.52L13.77 36.52Q13.61 35.03 13.53 33.24L13.64 33.35L13.55 33.26Q13.56 32.32 13.41 30.38L13.39 30.36L13.42 30.39Q13.35 26.14 18.53 26.14L18.44 26.05L20.00 26.04L19.96 26.01Q23.05 26.20 25.14 27.49L25.05 27.40L25.06 27.41Q25.91 27.96 26.41 28.64L26.30 28.53L26.37 28.61Q26.69 27.86 27.22 26.22L27.10 26.10L27.04 26.04Q28.28 25.88 30.61 25.27L30.68 25.34L30.73 25.39Q28.08 29.55 28.08 34.81L28.18 34.91L28.11 34.84Q28.15 38.61 29.52 41.70L29.56 41.73L29.50 41.67Q28.36 41.37 26.46 41.14L26.33 41.02L26.47 41.15Q26.31 40.35 26.01 38.79ZM29.30 43.99L29.19 43.87L31.36 44.41L31.37 44.42Q32.61 44.74 33.60 45.20L33.66 45.26L33.70 45.30Q29.92 40.84 29.92 34.74L29.97 34.79L30.05 34.87Q30.00 30.30 32.13 26.49L32.21 26.57L32.11 26.47Q31.38 26.61 30.05 27.00L30.10 27.05L30.09 27.03Q30.51 26.35 31.39 24.83L31.32 24.76L31.42 24.86Q30.79 24.99 26.79 25.83L26.89 25.93L26.31 27.74L26.25 27.69Q24.47 25.94 20.05 25.71L19.92 25.59L20.00 25.66Q18.83 25.64 16.59 25.79L16.70 25.91L16.72 25.93Q13.00 26.23 13.11 30.27L13.02 30.18L13.14 30.30Q13.26 33.62 13.83 38.07L13.72 37.96L13.80 38.46L13.91 38.57Q13.99 39.37 14.78 40.47L14.78 40.47L14.67 40.36Q14.95 40.63 15.14 40.75L15.04 40.65L15.05 40.67Q15.42 41.26 15.81 41.84L15.81 41.84L15.79 41.82Q17.12 43.26 20.51 43.45L20.42 43.37L20.43 43.38Q22.08 43.51 22.23 43.51L22.31 43.58L23.80 43.52L23.96 43.67Q27.10 43.62 28.32 42.06L28.27 42.01L28.24 41.98Q28.66 42.66 29.26 43.95ZM22.75 31.23L22.67 31.15L22.74 31.22Q23.94 31.09 24.78 31.55L24.79 31.56L24.85 31.62Q25.11 32.38 25.11 33.82L25.15 33.86L25.17 33.88Q25.34 35.76 24.06 37.18L23.99 37.11L24.03 37.15Q22.77 38.59 20.86 38.40L20.89 38.43L20.82 38.36Q19.38 38.37 18.35 37.95L18.39 37.98L18.46 38.06Q18.13 37.08 18.13 35.86L18.23 35.96L18.21 35.94Q18.41 32.49 21.04 31.54L21.06 31.56L20.95 31.45Q21.91 31.19 22.71 31.19Z"/><path fill="#333" d="M47.44 30.53L47.34 30.43L47.34 30.43Q43.81 36.73 40.39 40.69L40.46 40.76L40.40 40.70Q38.64 41.22 36.20 42.09L36.18 42.08L36.19 42.08Q40.99 36.37 45.74 27.96L45.85 28.06L45.79 28.01Q41.24 21.09 35.26 14.70L35.22 14.65L35.13 14.57Q38.06 15.78 40.34 16.28L40.40 16.33L40.43 16.37Q45.17 21.67 47.60 25.63L47.46 25.48L47.43 25.46Q50.05 21.15 53.97 16.74L54.01 16.77L53.85 16.62Q55.53 16.38 58.73 15.62L58.81 15.70L58.64 15.54Q52.61 22.03 49.15 27.97L49.09 27.91L49.18 28.00Q54.27 36.59 58.64 41.16L58.65 41.17L58.66 41.18Q56.11 40.42 54.02 40.19L54.00 40.18L53.98 40.15Q51.29 37.28 47.37 30.46ZM54.07 40.66L53.99 40.58L54.07 40.66Q54.26 40.58 54.71 40.70L54.82 40.81L54.71 40.69Q55.57 41.51 57.09 43.11L57.04 43.06L57.09 43.12Q60.39 43.86 63.44 45.23L63.44 45.24L63.43 45.23Q56.24 38.57 51.14 29.81L51.23 29.91L51.18 29.85Q54.98 23.26 60.88 16.40L60.81 16.34L60.96 16.49Q59.48 17.10 57.31 17.63L57.25 17.58L57.35 17.67Q58.23 16.76 59.98 14.97L59.89 14.89L59.97 14.96Q57.39 15.66 53.70 16.23L53.88 16.41L53.85 16.39Q50.44 20.20 47.85 24.50L47.84 24.50L47.72 24.37Q46.79 22.76 45.61 21.27L45.58 21.25L43.43 18.45L43.08 18.48L43.11 18.51Q42.85 18.40 42.62 18.32L42.71 18.41L42.64 18.35Q42.03 17.59 40.55 16.02L40.41 15.88L40.48 15.95Q36.60 15.01 34.01 13.64L33.99 13.62L34.16 13.78Q40.83 20.99 45.40 28.03L45.47 28.10L45.31 27.94Q40.91 36.22 35.16 42.81L35.15 42.80L35.14 42.79Q36.54 42.20 38.67 41.63L38.61 41.57L37.29 43.00L37.24 42.94Q37.33 43.03 35.99 44.36L36.06 44.43L35.90 44.27Q39.02 43.31 42.18 42.82L42.14 42.78L42.21 42.85Q46.15 38.27 48.74 33.51L48.75 33.52L48.71 33.48Q51.27 37.71 53.97 40.57Z"/><path fill="#333" d="M95.02 28.70L94.87 28.55L94.97 28.65Q92.06 28.55 91.29 30.80L91.31 30.82L91.43 30.94Q91.15 31.60 91.03 32.25L91.08 32.30L91.00 32.22Q93.60 32.42 95.24 32.42L95.31 32.49L95.18 32.36Q96.89 32.44 99.48 32.33L99.58 32.42L99.45 32.30Q99.37 30.61 97.96 29.55L98.03 29.62L97.93 29.51Q96.74 28.63 94.95 28.63ZM95.02 41.19L95.07 41.24L94.96 41.13Q90.76 41.16 89.47 39.75L89.52 39.80L89.48 39.76Q88.47 38.25 88.32 34.98L88.35 35.01L88.38 35.04Q88.47 34.91 88.40 33.54L88.37 33.51L88.33 33.47Q88.14 31.11 88.14 30.39L88.06 30.31L88.15 30.40Q88.12 28.50 88.84 27.40L88.88 27.44L88.97 27.52Q90.31 26.04 93.28 26.04L93.22 25.99L94.83 26.04L94.90 26.11Q96.95 26.10 98.47 26.40L98.45 26.38L98.37 26.30Q100.38 26.71 101.37 27.93L101.35 27.91L101.47 28.03Q102.18 29.20 102.26 31.29L102.20 31.23L102.17 31.21Q102.10 32.28 102.14 34.45L102.23 34.54L102.13 34.44Q99.26 34.46 96.48 34.46L96.62 34.60L90.98 34.56L90.86 34.44Q91.17 39.01 95.24 38.78L95.24 38.78L95.23 38.77Q98.90 38.48 100.12 36.65L100.11 36.65L100.11 36.65Q101.07 37.26 102.67 38.44L102.72 38.49L102.60 38.37Q101.35 40.89 97.20 41.16L97.17 41.13L97.08 41.04Q96.37 41.09 95.00 41.16ZM97.31 43.52L97.39 43.59L97.29 43.49Q98.42 43.48 99.64 43.56L99.67 43.59L99.68 43.60Q104.69 43.81 105.60 41.04L105.62 41.05L105.60 41.04Q103.83 39.64 102.73 38.88L102.74 38.90L102.91 39.06Q103.03 38.61 103.22 38.38L103.23 38.40L103.20 38.37Q102.49 37.92 101.11 36.97L101.10 36.95L101.02 36.87Q102.15 36.97 104.20 37.28L104.20 37.27L104.14 37.21Q103.95 35.85 103.88 35.16L103.93 35.21L103.89 33.38L103.81 33.31Q103.69 30.98 103.04 29.49L103.10 29.54L103.09 29.53Q102.66 29.03 102.09 28.43L102.08 28.41L102.20 28.53Q101.95 28.13 101.72 27.56L101.88 27.72L101.82 27.66Q99.96 25.65 94.90 25.65L94.77 25.52L93.10 25.52L93.16 25.59Q89.84 25.50 88.39 26.98L88.51 27.10L88.48 27.08Q87.82 28.20 87.86 30.26L87.90 30.30L87.74 30.14Q87.95 31.26 88.06 33.51L87.92 33.36L87.98 33.42Q88.08 35.05 88.19 37.10L88.18 37.09L88.17 37.08Q88.50 39.39 89.37 40.45L89.43 40.51L89.34 40.42Q89.49 40.57 89.68 40.69L89.68 40.68L90.07 41.42L90.03 41.38Q90.73 43.14 97.32 43.52ZM95.26 38.38L95.25 38.37L95.25 38.37Q94.08 38.46 93.16 38.00L93.20 38.04L93.21 38.04Q93.17 37.66 92.98 36.98L92.85 36.85L92.93 36.93Q94.54 36.75 96.14 36.75L96.22 36.82L96.24 36.85Q97.75 36.68 99.43 36.80L99.43 36.80L99.58 36.95Q98.31 38.31 95.30 38.42ZM96.77 30.91L96.77 30.91L96.79 30.93Q97.41 30.93 98.74 31.31L98.82 31.40L98.88 31.65L98.95 31.90L99.03 31.99Q97.65 32.09 96.74 32.05L96.67 31.98L96.71 32.03Q94.45 32.02 94.42 32.02L94.41 32.01L94.47 32.07Q95.11 31.04 96.79 30.93Z"/><path fill="#222" d="M129.75 41.53L129.72 41.50L129.77 41.54Q127.67 41.16 125.50 41.01L125.54 41.04L125.45 40.95Q124.17 39.67 121.50 35.83L121.39 35.71L121.43 35.76Q119.17 38.79 116.77 41.23L116.89 41.34L114.80 41.73L114.70 41.63Q113.60 41.79 112.61 42.05L112.60 42.03L112.57 42.01Q116.84 37.98 119.85 33.87L119.87 33.89L119.90 33.92Q116.57 29.68 111.17 24.88L111.09 24.81L111.10 24.82Q113.41 25.64 116.11 26.06L116.06 26.01L116.18 26.13Q119.58 29.18 121.48 31.88L121.52 31.93L121.47 31.87Q123.64 28.87 126.38 26.36L126.38 26.35L126.33 26.30Q129.29 25.88 131.12 25.38L131.11 25.37L131.18 25.44Q126.75 29.20 123.06 33.77L122.92 33.62L122.90 33.61Q126.23 38.23 129.69 41.47ZM132.58 24.63L132.55 24.60L132.58 24.64Q129.66 25.44 126.11 25.78L126.27 25.94L126.21 25.88Q123.37 28.59 121.65 31.07L121.58 31.00L121.70 31.11Q120.82 30.08 119.18 28.10L119.05 27.97L118.86 27.97L118.83 27.94Q118.70 27.93 118.59 27.93L118.71 28.05L118.56 27.89Q117.91 27.17 116.27 25.72L116.23 25.68L116.29 25.74Q112.73 25.23 109.88 24.01L109.72 23.86L109.75 23.88Q115.27 28.69 119.31 33.83L119.30 33.82L119.33 33.85Q115.92 38.43 111.50 42.73L111.64 42.86L111.55 42.78Q111.73 42.62 115.23 41.78L115.23 41.77L115.33 41.87Q113.84 43.24 112.21 44.58L112.17 44.54L112.20 44.57Q115.36 43.62 118.52 43.43L118.46 43.37L118.57 43.48Q120.87 41.13 122.77 38.39L122.73 38.35L122.81 38.43Q124.22 40.18 125.44 41.36L125.37 41.29L125.51 41.43Q125.49 41.30 125.57 41.38L125.71 41.52L125.76 41.38L125.79 41.41Q127.04 42.51 128.37 43.57L128.48 43.68L128.43 43.63Q132.07 44.22 134.96 45.25L134.83 45.12L134.89 45.18Q128.77 40.77 125.07 35.59L125.02 35.53L125.11 35.62Q128.67 30.51 133.24 26.43L133.18 26.38L133.18 26.37Q132.32 26.81 131.33 27.03L131.30 27.01L129.27 27.45L129.32 27.51Q130.55 26.64 132.72 24.77Z"/></svg>