<svg xmlns="http://www.w3.org/2000/svg" width="150" height="50" viewBox="0,0,150,50"><path fill="#222" d="M46.52 40.15L46.62 40.25L44.21 33.40L44.17 33.35Q39.79 20.75 33.85 14.35L33.92 14.42L33.93 14.43Q35.83 15.38 38.42 15.99L38.46 16.03L38.41 15.98Q43.65 22.36 47.99 35.12L47.95 35.08L47.85 34.98Q50.87 26.84 51.56 25.25L51.61 25.30L51.60 25.29Q54.05 19.74 56.87 16.43L56.83 16.40L56.87 16.43Q59.01 16.13 61.63 15.26L61.56 15.19L61.60 15.23Q56.98 19.78 53.93 27.01L53.95 27.03L53.91 26.99Q52.53 30.67 48.83 40.19L48.87 40.22L48.82 40.18Q48.27 40.19 47.70 40.15L47.75 40.20L47.64 40.09Q47.15 40.18 46.58 40.21ZM51.60 42.65L51.67 42.72L51.58 42.63Q54.37 32.62 55.93 28.59L55.97 28.62L55.92 28.58Q58.87 20.83 63.29 15.96L63.36 16.03L63.28 15.95Q62.23 16.31 60.14 17.04L60.32 17.22L61.43 15.85L61.43 15.85Q61.86 15.03 62.47 14.38L62.63 14.54L62.62 14.53Q59.80 15.51 56.79 16.08L56.70 16.00L56.80 16.10Q52.36 21.36 48.47 32.82L48.56 32.90L48.48 32.83Q44.72 22.60 41.52 18.22L41.54 18.24L41.57 18.26Q41.25 18.25 40.38 18.10L40.40 18.12L40.25 17.98Q40.20 17.77 38.60 15.72L38.48 15.60L38.47 15.59Q35.63 14.99 32.93 13.58L32.85 13.51L32.92 13.57Q39.57 20.68 43.95 33.47L43.91 33.43L43.94 33.46Q45.12 37.08 46.30 40.66L46.32 40.68L46.20 40.56Q46.64 40.70 47.48 40.58L47.42 40.52L47.38 40.49Q47.72 41.17 48.41 42.50L48.43 42.52L48.57 42.66Q49.42 42.60 50.15 42.68L50.01 42.54L50.05 42.58Q50.80 42.61 51.56 42.61Z"/><path fill="#333" d="M21.81 41.03L21.86 41.08L21.82 41.04Q17.61 29.74 12.47 24.75L12.57 24.86L12.46 24.75Q14.02 25.47 16.99 26.11L16.96 26.09L16.96 26.08Q20.52 30.03 23.07 36.69L22.96 36.58L22.93 36.55Q25.63 29.23 28.25 26.19L28.34 26.28L28.22 26.16Q30.21 26.06 32.65 25.37L32.56 25.28L32.63 25.35Q29.58 28.20 27.41 32.77L27.39 32.75L27.25 32.61Q26.90 33.29 23.51 40.90L23.64 41.03L23.67 41.06Q23.01 41.08 21.79 41.01ZM26.41 43.42L26.36 43.37L26.44 43.45Q29.71 31.07 34.27 26.38L34.32 26.43L32.83 26.92L32.76 26.85Q32.07 27.19 31.23 27.30L31.22 27.29L31.14 27.21Q31.59 26.78 32.41 25.91L32.56 26.06L32.56 26.06Q33.25 25.06 33.71 24.64L33.78 24.71L33.74 24.67Q31.55 25.33 28.12 25.83L28.06 25.76L28.10 25.81Q25.42 29.02 23.36 34.62L23.42 34.68L23.45 34.70Q21.79 30.50 19.97 28.03L19.85 27.91L19.39 27.98L19.47 28.07Q19.02 27.88 18.79 27.88L18.78 27.87L18.79 27.88Q18.67 27.64 16.96 25.59L16.97 25.60L17.04 25.67Q13.63 25.12 11.39 23.98L11.39 23.99L11.36 23.95Q17.50 29.68 21.50 41.40L21.38 41.29L22.49 41.40L22.38 41.29Q22.84 42.05 23.68 43.35L23.61 43.28L25.13 43.43L25.14 43.45Q25.81 43.39 26.46 43.47Z"/><path fill="#444" d="M98.92 39.85L98.96 39.90L96.91 39.79L97.01 39.89Q96.09 39.91 95.13 40.03L95.16 40.05L95.15 40.04Q95.71 33.83 95.71 29.83L95.73 29.85L95.61 29.72Q91.59 23.01 83.94 14.33L84.11 14.49L84.09 14.47Q85.79 15.38 89.14 16.18L89.11 16.15L89.23 16.27Q94.20 21.77 97.21 26.99L97.18 26.96L97.29 27.07Q100.23 21.45 104.61 16.42L104.60 16.41L104.67 16.48Q107.11 16.11 109.63 15.31L109.49 15.17L109.51 15.19Q103.51 21.33 98.63 29.74L98.54 29.65L98.71 29.82Q98.65 36.81 98.96 39.89ZM107.98 17.24L110.68 14.38L110.68 14.38Q107.64 15.61 104.52 16.06L104.47 16.01L104.44 15.98Q100.21 20.70 97.39 25.80L97.46 25.87L97.49 25.90Q95.37 22.25 92.17 18.37L92.21 18.41L92.21 18.41Q91.93 18.40 91.44 18.32L91.44 18.32L91.28 18.17Q90.61 17.38 89.09 15.70L89.15 15.77L89.12 15.74Q85.73 14.98 82.76 13.42L82.83 13.48L82.74 13.39Q90.55 21.96 95.30 29.88L95.37 29.94L95.33 29.90Q95.26 36.27 94.66 40.42L94.60 40.36L94.64 40.41Q95.40 40.40 96.85 40.29L96.68 40.13L96.70 41.18L96.87 41.35Q96.77 41.70 96.69 42.23L96.74 42.28L96.66 42.20Q100.26 42.26 102.01 42.45L101.95 42.39L101.95 42.39Q100.78 37.79 100.66 31.81L100.57 31.72L100.70 31.85Q104.95 23.27 111.50 15.92L111.51 15.94L108.05 17.31Z"/><path fill="#333" d="M77.62 28.60L77.73 28.71L71.85 28.81L71.76 28.71Q68.82 28.75 65.89 28.67L65.93 28.71L66.01 28.79Q66.16 35.53 64.10 41.05L63.97 40.91L64.08 41.03Q62.21 41.48 60.46 42.16L60.44 42.15L60.45 42.16Q63.23 36.44 63.23 29.78L63.22 29.77L63.12 29.67Q63.16 21.22 59.05 14.18L59.13 14.26L59.04 14.17Q60.60 15.00 63.07 15.80L63.00 15.73L63.04 15.77Q65.31 20.97 65.84 25.85L65.70 25.70L65.69 25.70Q69.01 26.23 71.86 26.19L71.83 26.16L71.74 26.07Q74.52 26.18 77.83 25.92L77.83 25.92L77.80 25.89Q78.33 21.54 80.08 16.44L79.96 16.32L79.99 16.36Q81.89 15.90 84.14 15.06L84.24 15.15L84.19 15.11Q80.52 21.79 80.52 29.75L80.47 29.70L80.60 29.83Q80.59 36.02 82.95 41.35L82.96 41.37L82.98 41.39Q81.34 40.73 79.28 40.43L79.32 40.47L79.21 40.36Q77.59 35.38 77.70 28.68ZM79.01 40.77L79.04 40.80L79.01 40.76Q80.07 40.95 81.18 41.22L81.10 41.15L81.05 41.10Q81.52 41.94 82.17 43.43L82.19 43.45L82.05 43.31Q85.38 44.24 87.17 45.15L87.33 45.31L87.22 45.21Q82.90 39.17 82.59 30.91L82.44 30.76L82.52 30.84Q82.23 22.81 85.88 16.00L85.91 16.02L84.74 16.38L84.81 16.46Q84.34 16.71 83.73 16.86L83.67 16.79L83.60 16.72Q84.20 16.11 85.04 14.55L85.03 14.54L84.88 14.39Q82.36 15.56 79.73 16.06L79.66 15.99L79.61 15.93Q78.06 20.89 77.60 25.57L77.46 25.44L77.43 25.41Q75.05 25.73 72.61 25.73L72.69 25.80L72.61 25.73Q70.26 25.77 67.75 25.62L67.64 25.51L67.69 25.56Q67.48 22.30 66.37 18.23L66.42 18.28L66.31 18.17Q65.65 18.08 64.20 17.70L64.27 17.77L64.29 17.78Q63.76 16.42 63.30 15.39L63.37 15.45L63.48 15.57Q60.57 14.64 58.29 13.38L58.43 13.52L58.33 13.42Q62.94 20.89 62.94 29.68L63.03 29.77L62.84 29.58Q62.97 36.68 59.85 42.81L59.77 42.72L59.79 42.75Q60.54 42.50 61.87 41.93L61.79 41.85L61.86 41.93Q61.53 42.78 60.73 44.30L60.72 44.29L60.66 44.23Q63.52 43.28 65.76 42.86L65.71 42.80L65.71 42.81Q67.59 37.26 67.78 31.09L67.84 31.16L67.80 31.12Q69.40 31.04 72.59 31.00L72.67 31.08L72.72 31.12Q75.56 31.07 77.46 31.15L77.36 31.04L77.38 31.06Q77.63 36.80 78.97 40.72Z"/><path fill="#222" d="M127.10 28.74L127.05 28.70L121.20 28.82L121.19 28.82Q118.21 28.81 115.28 28.73L115.31 28.76L115.23 28.68Q115.31 35.35 113.26 40.87L113.29 40.90L113.33 40.94Q111.49 41.43 109.74 42.11L109.71 42.08L109.79 42.16Q112.60 36.48 112.60 29.81L112.49 29.71L112.56 29.77Q112.61 21.34 108.50 14.29L108.37 14.17L108.53 14.33Q110.02 15.09 112.49 15.89L112.42 15.82L112.49 15.89Q114.62 20.95 115.16 25.83L115.09 25.76L115.14 25.81Q118.21 26.11 121.07 26.07L121.07 26.06L121.07 26.07Q123.75 26.08 127.06 25.81L127.12 25.88L127.12 25.87Q127.52 21.40 129.27 16.30L129.24 16.27L129.35 16.38Q131.19 15.86 133.44 15.02L133.49 15.07L133.55 15.13Q129.82 21.76 129.82 29.71L129.99 29.89L129.99 29.89Q129.84 35.94 132.20 41.27L132.21 41.28L132.28 41.35Q130.62 40.68 128.57 40.38L128.59 40.40L128.63 40.44Q126.84 35.30 126.95 28.60ZM128.26 40.68L128.34 40.76L128.31 40.73Q129.40 40.95 130.50 41.21L130.41 41.11L130.38 41.09Q130.90 41.99 131.55 43.48L131.55 43.47L131.50 43.43Q134.88 44.41 136.67 45.32L136.50 45.15L136.67 45.32Q132.16 39.10 131.86 30.84L131.92 30.90L131.89 30.87Q131.51 22.76 135.16 15.95L135.10 15.89L134.13 16.43L134.15 16.46Q133.53 16.56 132.92 16.72L133.09 16.89L133.05 16.85Q133.50 16.08 134.34 14.52L134.36 14.53L134.29 14.47Q131.64 15.51 129.02 16.01L128.90 15.89L129.06 16.05Q127.39 20.89 126.93 25.57L126.77 25.41L126.93 25.57Q124.33 25.67 121.90 25.67L121.90 25.68L121.97 25.75Q119.61 25.79 117.10 25.64L117.05 25.59L117.13 25.67Q116.89 22.38 115.78 18.31L115.70 18.22L115.64 18.16Q114.92 18.01 113.47 17.63L113.52 17.68L113.63 17.79Q113.11 16.44 112.66 15.41L112.72 15.48L112.74 15.49Q110.03 14.76 107.75 13.51L107.72 13.48L107.69 13.45Q112.18 20.79 112.18 29.59L112.31 29.72L112.35 29.76Q112.24 36.62 109.12 42.74L109.14 42.76L109.23 42.86Q109.97 42.61 111.31 42.04L111.29 42.03L111.12 41.86Q110.81 42.72 110.01 44.25L110.16 44.39L110.13 44.36Q112.91 43.34 115.15 42.92L115.19 42.95L115.07 42.84Q117.06 37.40 117.25 31.23L117.14 31.12L117.10 31.08Q118.72 31.02 121.92 30.99L122.08 31.15L122.03 31.10Q124.75 30.93 126.66 31.01L126.75 31.10L126.76 31.11Q127.00 36.83 128.33 40.75Z"/></svg>