<svg xmlns="http://www.w3.org/2000/svg" width="150" height="50" viewBox="0,0,150,50"><path fill="#333" d="M95.86 40.16L95.98 40.28L93.44 33.28L93.45 33.29Q89.10 20.72 83.16 14.33L83.18 14.35L83.24 14.40Q85.18 15.40 87.77 16.01L87.69 15.93L87.73 15.96Q92.94 22.32 97.28 35.07L97.16 34.96L97.23 35.02Q100.20 26.84 100.89 25.24L101.00 25.35L100.99 25.34Q103.31 19.67 106.13 16.36L106.18 16.41L106.15 16.38Q108.17 15.97 110.80 15.09L110.93 15.22L110.90 15.19Q106.25 19.72 103.21 26.95L103.20 26.94L103.31 27.06Q101.87 30.68 98.18 40.20L98.10 40.12L98.13 40.15Q97.69 40.28 97.12 40.24L97.10 40.22L97.01 40.13Q96.41 40.11 95.84 40.14ZM100.96 42.67L100.82 42.53L101.00 42.72Q103.72 32.64 105.28 28.60L105.24 28.56L105.34 28.67Q108.26 20.89 112.67 16.01L112.68 16.02L112.75 16.09Q111.56 16.31 109.47 17.03L109.47 17.04L110.77 15.86L110.77 15.86Q111.35 15.19 111.96 14.54L111.84 14.42L111.80 14.38Q109.08 15.46 106.07 16.03L105.96 15.92L106.04 16.00Q101.60 21.27 97.71 32.73L97.71 32.72L97.77 32.78Q94.08 22.62 90.88 18.25L90.97 18.33L91.00 18.36Q90.47 18.13 89.59 17.98L89.68 18.07L89.69 18.08Q89.54 17.78 87.94 15.72L87.84 15.62L87.94 15.72Q84.89 14.91 82.18 13.50L82.14 13.46L82.10 13.42Q88.71 20.49 93.09 33.28L93.14 33.33L93.15 33.34Q94.48 37.11 95.66 40.69L95.55 40.57L95.49 40.52Q96.05 40.77 96.88 40.65L96.71 40.48L96.83 40.60Q97.09 41.20 97.78 42.54L97.91 42.67L97.89 42.65Q98.76 42.60 99.48 42.68L99.37 42.56L99.34 42.54Q100.08 42.55 100.84 42.55Z"/><path fill="#111" d="M72.25 18.43L72.29 18.47L72.27 18.45Q71.45 18.74 71.30 19.54L71.36 19.60L71.42 24.80L71.33 24.71Q72.49 24.73 74.70 24.46L74.82 24.58L74.75 24.51Q74.76 24.98 74.72 25.81L74.58 25.67L74.75 25.85Q74.58 26.48 74.58 26.94L74.66 27.01L73.06 27.09L72.98 27.01Q72.23 27.13 71.35 27.13L71.34 27.12L71.47 27.25Q71.37 31.34 71.29 39.71L71.30 39.72L71.26 39.67Q69.03 39.73 67.54 40.41L67.70 40.57L67.71 40.58Q68.75 34.39 68.64 27.15L68.53 27.05L68.57 27.09Q67.95 27.08 66.66 26.81L66.64 26.79L66.62 26.78Q66.58 25.75 66.39 23.80L66.37 23.78L66.48 23.90Q67.57 24.37 68.52 24.56L68.55 24.60L68.40 24.45Q68.39 23.83 68.09 21.35L68.08 21.35L68.24 21.51Q67.99 19.42 67.99 18.47L67.92 18.41L67.83 18.32Q68.01 16.83 69.42 16.25L69.41 16.24L69.26 16.09Q70.12 15.77 74.96 14.93L75.03 15.01L74.99 14.97Q75.86 14.89 76.70 14.78L76.66 14.74L76.58 14.65Q76.33 15.39 76.18 16.27L76.25 16.34L76.02 17.97L76.04 18.00Q75.36 17.82 74.87 17.93L74.91 17.97L74.91 17.97Q74.18 17.85 72.28 18.46ZM77.69 19.58L77.76 19.65L77.73 19.62Q78.11 17.44 78.72 14.89L78.59 14.76L78.72 14.89Q78.07 15.19 76.77 15.80L76.85 15.88L77.04 13.98L77.15 14.08Q75.88 14.22 73.41 14.75L73.44 14.79L73.47 14.82Q72.32 14.92 69.12 15.84L69.12 15.84L69.15 15.87Q67.46 16.15 67.46 18.02L67.60 18.16L67.44 18.00Q67.52 18.38 67.59 18.73L67.59 18.72L67.59 18.73Q67.84 20.07 67.95 21.41L67.83 21.29L68.09 24.02L68.18 24.11Q66.69 23.61 66.04 23.15L66.10 23.21L66.09 23.20Q66.27 24.22 66.31 25.25L66.23 25.17L66.40 27.20L66.38 27.18Q67.00 27.27 67.80 27.35L67.90 27.45L67.94 29.58L68.26 29.52L68.22 29.48Q68.24 35.74 67.25 41.19L67.22 41.16L67.23 41.16Q68.20 40.66 69.38 40.39L69.31 40.31L69.14 42.40L69.20 42.45Q70.35 42.08 71.64 42.04L71.62 42.02L71.74 42.13Q72.82 41.96 74.08 42.23L74.23 42.38L74.25 42.40Q73.28 37.28 73.28 29.33L73.26 29.31L73.26 29.31Q74.54 29.48 76.63 29.55L76.62 29.54L76.49 27.55L76.46 27.52Q76.47 26.58 76.51 25.62L76.62 25.74L76.67 25.78Q76.14 25.83 75.08 26.10L75.08 26.10L75.02 26.04Q75.10 25.44 75.22 24.10L75.16 24.05L75.12 24.01Q74.35 24.30 73.55 24.38L73.53 24.36L73.49 24.32Q73.51 22.93 73.63 21.53L73.62 21.51L73.69 21.59Q73.79 20.89 74.32 20.55L74.21 20.43L74.29 20.51Q75.28 19.87 76.10 19.79L76.10 19.80L76.10 19.80Q76.79 19.59 77.63 19.51Z"/><path fill="#222" d="M114.58 49.56L114.56 49.53L114.55 49.53Q117.45 45.65 120.35 39.45L120.42 39.52L120.48 39.59Q117.38 33.06 111.29 24.99L111.28 24.97L111.29 24.99Q113.09 26.02 115.87 26.67L115.99 26.79L115.95 26.75Q119.53 31.48 121.97 36.69L121.88 36.60L121.85 36.57Q123.97 31.23 127.05 26.82L127.11 26.88L127.09 26.85Q129.25 26.46 131.35 25.66L131.50 25.82L131.37 25.69Q127.92 29.48 124.46 36.90L124.63 37.07L121.80 43.07L121.82 43.10Q120.26 46.11 118.51 48.73L118.51 48.73L118.48 48.70Q116.09 49.09 114.64 49.62ZM120.81 50.95L120.75 50.89L120.91 51.05Q122.58 48.12 124.03 44.85L123.94 44.76L126.82 38.57L126.80 38.55Q130.18 30.40 133.50 26.41L133.59 26.50L133.61 26.52Q132.19 27.12 130.29 27.80L130.36 27.88L131.32 26.40L131.43 26.51Q131.82 25.65 132.43 24.96L132.50 25.03L132.42 24.95Q129.76 26.02 126.90 26.47L126.93 26.50L126.87 26.44Q124.16 30.39 122.22 34.85L122.21 34.84L122.17 34.80Q120.73 31.68 118.94 28.86L118.80 28.73L118.78 28.71Q118.58 28.70 118.22 28.66L118.20 28.64L118.35 28.79Q117.98 28.75 117.79 28.75L117.64 28.60L117.65 28.61Q116.93 27.39 115.98 26.25L116.00 26.27L116.09 26.36Q112.85 25.64 110.11 23.92L110.08 23.89L110.06 23.87Q116.35 31.91 120.04 39.52L120.12 39.61L120.12 39.60Q117.90 44.61 113.83 50.25L113.75 50.18L113.78 50.20Q114.68 50.00 115.48 49.85L115.43 49.80L117.09 49.47L116.96 49.35Q116.39 50.11 115.21 51.74L115.36 51.90L115.35 51.88Q117.62 51.26 120.89 51.04Z"/><path fill="#444" d="M18.51 40.39L18.45 40.33L18.48 40.36Q17.10 40.46 15.54 40.04L15.48 39.99L15.54 40.04Q14.22 39.03 14.07 37.40L14.12 37.44L14.22 37.54Q14.06 37.24 14.25 34.61L14.27 34.62L14.34 34.70Q15.39 34.53 17.41 34.15L17.29 34.03L17.18 34.87L17.13 34.83Q16.88 36.59 18.29 37.17L18.37 37.24L18.17 37.05Q19.03 37.45 21.12 37.45L21.24 37.57L21.24 37.56Q22.78 37.35 22.97 37.28L23.01 37.32L22.91 37.21Q23.83 37.07 24.55 36.57L24.64 36.66L24.65 36.67Q25.92 35.58 25.73 33.49L25.76 33.52L25.90 33.65Q25.72 31.23 23.99 29.67L23.81 29.50L23.82 29.50Q22.07 27.93 19.60 27.93L19.68 28.01L19.74 27.84L19.72 27.82Q20.06 27.74 20.93 27.66L21.00 27.73L20.97 27.70Q22.89 27.60 24.26 26.36L24.17 26.27L24.13 26.23Q25.66 25.15 25.81 23.29L25.74 23.22L25.81 23.28Q25.90 22.96 25.90 22.62L25.86 22.57L25.85 22.57Q25.77 20.96 24.40 20.05L24.41 20.06L24.42 20.07Q23.30 19.37 21.70 19.48L21.66 19.44L21.68 19.46Q20.25 19.17 19.03 19.59L19.19 19.75L19.11 19.68Q17.70 20.24 17.39 21.38L17.26 21.25L17.30 21.29Q17.27 22.21 17.34 22.97L17.23 22.85L17.26 22.89Q16.24 22.66 14.18 21.94L14.18 21.94L14.12 21.87Q14.02 20.33 14.06 19.49L13.92 19.36L13.96 19.39Q14.08 17.88 15.15 17.20L15.20 17.25L15.09 17.13Q16.65 16.68 18.25 16.68L18.24 16.67L18.24 16.67Q21.33 16.56 24.49 16.83L24.46 16.80L24.56 16.89Q29.52 17.21 29.21 20.98L29.30 21.07L29.14 20.91Q29.08 22.41 28.58 23.97L28.65 24.03L28.73 24.12Q27.68 27.06 25.32 27.98L25.30 27.96L25.33 27.99Q28.05 28.61 28.66 31.96L28.54 31.85L28.66 31.96Q28.85 33.07 28.93 35.08L28.88 35.03L28.89 35.04Q29.04 39.50 24.44 39.96L24.38 39.91L24.54 40.06Q23.77 40.09 18.47 40.36ZM23.60 42.51L23.58 42.49L23.59 42.50Q24.38 42.72 27.24 42.80L27.04 42.61L27.17 42.73Q28.92 42.80 30.55 42.16L30.49 42.09L30.52 42.12Q31.64 41.11 31.45 39.35L31.53 39.44L31.53 39.44Q31.31 38.00 31.00 36.25L31.04 36.28L31.04 36.28Q30.31 31.79 28.37 30.15L28.50 30.28L28.19 29.78L28.26 29.81L28.23 29.78Q29.97 28.33 30.73 23.95L30.75 23.97L30.77 23.99Q30.85 23.57 30.97 22.62L30.78 22.43L30.82 22.48Q30.95 21.77 30.88 21.08L30.79 20.99L30.87 21.08Q30.69 19.37 29.39 18.69L29.42 18.71L29.37 18.74L29.41 18.78Q29.10 17.78 27.95 17.25L27.94 17.23L27.89 17.18Q26.41 16.54 21.27 16.23L21.25 16.22L21.18 16.15Q19.57 16.13 17.97 16.13L17.99 16.15L17.91 16.07Q16.42 16.18 14.90 16.83L14.85 16.78L14.85 16.78Q13.58 17.49 13.58 19.24L13.64 19.30L13.69 19.35Q13.53 18.77 13.80 22.12L13.89 22.22L13.99 22.32Q14.17 22.27 15.80 22.87L15.81 22.88L15.76 22.83Q15.90 23.50 15.86 24.00L15.86 24.00L15.76 23.90Q15.77 24.40 15.81 24.94L15.85 24.98L15.92 25.04Q17.59 25.31 19.61 25.43L19.64 25.46L19.62 25.44Q19.52 23.40 20.63 22.56L20.72 22.65L20.59 22.53Q21.60 22.04 23.61 21.81L23.50 21.70L23.57 21.77Q24.76 21.82 25.33 22.01L25.16 21.84L25.15 21.83Q25.29 22.05 25.33 22.16L25.27 22.10L25.35 22.37L25.45 22.92L25.50 22.98Q25.50 23.17 25.46 23.32L25.42 23.28L25.39 23.25Q25.26 24.91 23.73 26.09L23.76 26.11L23.82 26.17Q22.80 26.97 20.78 27.16L20.89 27.27L20.85 27.24Q20.21 27.47 19.33 27.47L19.17 27.31L19.31 27.45Q19.21 27.66 19.37 28.34L19.53 28.51L19.51 28.48Q21.19 28.41 22.63 29.13L22.74 29.24L22.44 29.06L20.96 29.33L21.02 29.38Q20.93 29.60 21.04 30.21L21.09 30.25L21.07 30.24Q23.17 30.12 24.88 31.46L25.06 31.64L25.06 31.63Q25.23 31.96 25.54 33.60L25.46 33.52L25.43 33.49Q25.67 36.47 22.74 36.89L22.79 36.94L22.73 36.88Q20.58 37.09 20.01 37.05L20.07 37.11L20.07 37.11Q19.65 37.04 19.11 36.96L19.17 37.01L19.16 36.55L19.29 36.11L19.24 35.64L19.23 35.28L19.34 35.40Q18.39 35.47 17.59 35.66L17.60 35.68L17.52 35.59Q17.53 35.42 17.53 35.23L17.59 35.28L17.56 35.26Q17.47 34.94 17.47 34.71L17.62 34.86L17.50 34.74Q17.50 34.28 17.65 33.56L17.80 33.70L17.69 33.60Q15.91 33.91 14.05 34.25L14.00 34.21L14.00 34.21Q13.96 34.67 13.85 35.79L13.97 35.91L13.89 35.83Q13.70 36.88 13.70 37.49L13.81 37.59L13.75 37.53Q13.89 39.65 15.26 40.41L15.15 40.30L15.31 40.46Q16.64 42.60 21.36 42.41L21.37 42.41L21.39 42.43Q22.10 42.39 23.63 42.54Z"/><path fill="#222" d="M39.64 41.03L39.68 41.06L39.69 41.07Q42.89 36.85 49.59 28.93L49.51 28.85L49.55 28.89Q43.71 29.18 39.94 27.81L39.95 27.82L39.94 27.81Q39.32 26.43 38.56 25.02L38.50 24.96L38.46 24.92Q42.48 26.35 46.93 26.39L47.03 26.48L47.09 26.54Q51.50 26.53 55.68 25.47L55.75 25.53L55.58 25.37Q55.27 26.12 55.01 26.66L55.03 26.68L54.89 26.54Q52.38 28.79 49.56 32.41L49.75 32.59L44.71 38.67L44.67 38.63Q46.90 38.42 49.15 38.50L49.21 38.56L49.32 38.68Q51.36 38.58 53.60 38.96L53.70 39.05L53.73 39.09Q53.72 39.53 54.44 41.55L54.60 41.71L54.56 41.67Q50.73 40.73 46.73 40.84L46.89 41.00L46.81 40.92Q42.82 41.01 39.17 42.19L39.10 42.12L39.24 42.26Q39.32 42.11 39.77 41.15ZM38.66 42.86L38.63 42.83L38.66 42.86Q39.43 42.52 41.02 42.10L40.94 42.01L40.99 42.07Q40.80 42.33 40.38 42.75L40.31 42.68L40.24 42.62Q40.03 43.20 39.42 44.35L39.53 44.46L39.55 44.47Q44.28 43.15 49.27 43.30L49.29 43.32L49.20 43.24Q54.21 43.45 58.78 45.32L58.75 45.28L58.81 45.35Q57.28 43.40 56.37 41.34L56.27 41.24L56.39 41.36Q55.59 41.02 54.53 40.80L54.48 40.75L54.62 40.89Q54.28 40.02 53.90 38.57L54.00 38.67L53.87 38.54Q52.49 38.38 48.91 38.26L48.80 38.15L48.95 38.30Q51.27 34.91 56.29 28.55L56.21 28.46L56.25 28.51Q56.54 27.81 57.22 26.47L57.25 26.50L54.84 27.14L55.00 27.30Q54.90 27.05 55.06 26.94L55.17 27.04L55.26 26.75L55.27 26.77Q55.87 25.85 56.44 24.90L56.43 24.89L56.27 24.72Q51.68 26.15 46.96 26.07L47.01 26.12L47.02 26.13Q42.11 25.94 37.62 24.11L37.63 24.13L37.64 24.14Q38.84 26.02 39.64 28.08L39.67 28.11L39.69 28.13Q40.52 28.43 41.59 28.69L41.52 28.62L41.69 28.79Q41.74 29.34 42.04 30.78L42.11 30.86L42.08 30.82Q43.59 31.00 46.90 31.15L47.03 31.29L46.97 31.22Q44.60 34.56 39.43 41.00L39.47 41.04L39.39 40.96Q39.15 41.56 38.58 42.78Z"/></svg>