<svg xmlns="http://www.w3.org/2000/svg" width="150" height="50" viewBox="0,0,150,50"><path fill="#111" d="M22.90 18.42L22.93 18.44L22.87 18.39Q22.20 18.82 22.04 19.62L22.15 19.72L22.08 24.79L22.12 24.83Q23.16 24.73 25.37 24.47L25.49 24.58L25.34 24.44Q25.30 24.86 25.26 25.69L25.35 25.78L25.24 25.67Q25.30 26.52 25.30 26.98L25.33 27.02L23.65 27.01L23.80 27.16Q22.97 27.20 22.09 27.20L22.08 27.19L22.04 27.15Q22.03 31.33 21.96 39.71L22.04 39.79L21.96 39.71Q19.86 39.90 18.38 40.58L18.20 40.40L18.24 40.44Q19.42 34.39 19.30 27.15L19.32 27.17L19.20 27.05Q18.68 27.15 17.39 26.88L17.29 26.78L17.34 26.83Q17.33 25.83 17.14 23.89L17.06 23.81L17.21 23.96Q18.31 24.45 19.26 24.64L19.19 24.56L19.15 24.53Q19.22 23.99 18.91 21.51L18.88 21.48L18.73 21.32Q18.63 19.40 18.63 18.45L18.54 18.36L18.55 18.37Q18.69 16.84 20.10 16.27L19.97 16.13L20.05 16.21Q20.77 15.75 25.60 14.92L25.73 15.05L25.76 15.07Q26.43 14.79 27.26 14.67L27.27 14.67L27.32 14.73Q27.06 15.46 26.91 16.33L27.02 16.44L26.68 17.97L26.69 17.98Q26.02 17.81 25.53 17.92L25.47 17.86L25.54 17.93Q24.80 17.80 22.89 18.41ZM28.33 19.55L28.39 19.61L28.33 19.55Q28.75 17.42 29.36 14.87L29.32 14.83L29.31 14.81Q28.63 15.08 27.33 15.69L27.52 15.88L27.82 14.09L27.89 14.16Q26.57 14.24 24.09 14.77L24.08 14.77L24.09 14.77Q22.97 14.90 19.77 15.82L19.70 15.75L19.79 15.84Q18.15 16.18 18.15 18.05L18.26 18.15L18.23 18.12Q18.18 18.38 18.25 18.72L18.17 18.64L18.19 18.66Q18.48 20.05 18.59 21.38L18.62 21.41L18.82 24.08L18.74 24.00Q17.37 23.63 16.73 23.17L16.79 23.23L16.78 23.23Q16.92 24.20 16.96 25.23L16.95 25.22L17.04 27.17L17.09 27.22Q17.84 27.44 18.64 27.52L18.52 27.40L18.63 29.61L18.88 29.47L18.97 29.56Q18.92 35.76 17.93 41.20L17.92 41.19L17.82 41.09Q18.86 40.65 20.04 40.38L20.06 40.40L19.74 42.33L19.76 42.35Q21.00 42.06 22.29 42.02L22.31 42.04L22.42 42.15Q23.51 41.98 24.77 42.25L24.89 42.38L24.81 42.29Q23.92 37.25 23.92 29.30L24.10 29.48L24.01 29.39Q25.06 29.34 27.16 29.41L27.25 29.50L27.17 27.56L27.16 27.55Q27.23 26.67 27.27 25.71L27.24 25.69L27.33 25.78Q26.73 25.75 25.66 26.02L25.67 26.02L25.64 25.99Q25.71 25.37 25.82 24.04L25.84 24.06L25.87 24.09Q24.97 24.26 24.17 24.33L24.20 24.36L24.16 24.32Q24.23 22.98 24.34 21.57L24.26 21.49L24.22 21.45Q24.38 20.81 24.92 20.47L24.99 20.55L24.86 20.42Q25.91 19.83 26.73 19.75L26.81 19.84L26.70 19.72Q27.63 19.76 28.47 19.68Z"/><path fill="#333" d="M105.13 41.57L105.09 41.53L105.19 41.63Q103.06 41.21 100.89 41.06L100.73 40.91L100.74 40.91Q99.39 39.57 96.73 35.72L96.74 35.73L96.65 35.64Q94.54 38.83 92.14 41.26L92.09 41.21L90.07 41.66L90.04 41.64Q88.94 41.79 87.95 42.06L88.08 42.19L88.05 42.16Q92.25 38.06 95.26 33.95L95.25 33.94L95.14 33.82Q91.99 29.76 86.58 24.96L86.57 24.95L86.53 24.92Q88.72 25.61 91.42 26.03L91.50 26.11L91.51 26.13Q94.91 29.18 96.82 31.89L96.70 31.77L96.80 31.87Q99.00 28.90 101.74 26.38L101.58 26.22L101.70 26.33Q104.64 25.89 106.47 25.40L106.51 25.44L106.57 25.50Q102.03 29.14 98.34 33.71L98.23 33.60L98.38 33.75Q101.74 38.41 105.20 41.64ZM107.94 24.66L107.90 24.62L108.03 24.75Q105.14 25.60 101.60 25.94L101.54 25.87L101.48 25.82Q98.57 28.46 96.86 30.94L96.93 31.02L96.91 30.99Q95.99 29.92 94.35 27.94L94.42 28.00L94.31 28.09L94.25 28.02Q94.16 28.05 94.04 28.05L93.96 27.97L93.87 27.87Q93.24 27.16 91.60 25.72L91.64 25.76L91.66 25.78Q88.02 25.18 85.16 23.97L85.07 23.87L85.17 23.97Q90.64 28.71 94.67 33.85L94.63 33.81L94.69 33.87Q91.29 38.46 86.87 42.77L87.00 42.90L86.92 42.82Q87.12 42.67 90.62 41.84L90.59 41.80L90.67 41.88Q89.07 43.14 87.43 44.47L87.46 44.50L87.40 44.44Q90.69 43.62 93.85 43.43L93.85 43.42L93.93 43.50Q96.34 41.27 98.25 38.53L98.12 38.41L98.14 38.43Q99.60 40.23 100.82 41.41L100.88 41.47L100.75 41.34Q100.82 41.29 100.89 41.37L100.90 41.38L101.24 41.53L101.19 41.48Q102.47 42.60 103.80 43.67L103.84 43.71L103.78 43.65Q107.33 44.16 110.23 45.18L110.31 45.26L110.20 45.16Q104.02 40.69 100.32 35.51L100.43 35.62L100.44 35.62Q104.03 30.54 108.60 26.47L108.57 26.43L108.65 26.51Q107.68 26.84 106.69 27.07L106.56 26.94L104.63 27.48L104.64 27.49Q105.77 26.53 107.94 24.66Z"/><path fill="#111" d="M38.24 14.23L38.22 14.21L38.22 14.21Q42.17 16.90 46.92 17.13L46.83 17.03L46.86 17.07Q51.41 17.16 55.67 15.41L55.75 15.48L55.76 15.49Q55.43 15.96 54.67 18.74L54.78 18.86L54.83 18.90Q51.96 19.80 48.99 19.95L49.09 20.05L49.13 20.09Q46.01 20.09 43.11 19.37L43.26 19.52L43.21 19.46Q43.86 23.04 44.05 26.70L44.06 26.71L43.98 26.63Q46.04 26.91 47.64 26.87L47.71 26.93L47.70 26.93Q48.90 26.90 51.30 26.79L51.30 26.79L51.21 26.71Q51.26 27.44 51.26 28.12L51.25 28.11L51.35 29.54L51.30 29.50Q48.86 29.45 44.06 29.53L44.13 29.60L44.15 29.62Q44.08 33.66 43.51 37.65L43.48 37.63L43.45 37.60Q46.02 36.90 48.76 37.01L48.91 37.16L48.84 37.09Q51.50 37.12 54.09 37.96L54.24 38.11L54.19 38.06Q54.22 38.81 54.49 39.58L54.42 39.51L54.98 41.14L54.94 41.09Q51.70 39.76 48.27 39.76L48.24 39.72L48.37 39.86Q43.45 39.81 39.19 42.05L39.18 42.05L39.12 41.99Q41.59 35.32 41.32 28.20L41.25 28.13L41.27 28.15Q40.90 20.89 38.24 14.23ZM38.69 42.78L38.65 42.73L38.63 42.71Q39.94 42.05 40.70 41.70L40.80 41.81L40.65 41.66Q40.58 42.53 40.01 44.05L39.89 43.93L39.85 43.90Q44.48 42.02 49.55 42.29L49.62 42.37L49.64 42.38Q54.78 42.64 58.77 45.35L58.79 45.36L58.70 45.27Q57.57 42.77 56.88 40.83L56.92 40.87L56.76 40.70Q55.90 40.23 54.91 39.88L54.92 39.89L54.91 39.89Q54.40 38.38 54.25 37.59L54.44 37.78L54.34 37.68Q51.19 36.62 48.03 36.62L48.14 36.73L48.19 36.79Q46.86 36.60 45.72 36.71L45.82 36.81L45.81 36.80Q45.88 35.50 45.92 34.28L45.97 34.33L46.04 31.81L46.04 31.81Q47.93 31.80 49.72 31.84L49.72 31.84L49.73 31.85Q51.39 31.72 53.18 31.88L53.26 31.95L53.19 31.88Q53.29 31.11 53.29 30.16L53.20 30.07L53.13 28.09L52.34 28.18L52.46 28.30Q52.00 28.34 51.55 28.34L51.61 28.40L51.56 28.35Q51.49 27.60 51.64 26.30L51.63 26.29L51.75 26.41Q50.16 26.65 48.98 26.68L48.87 26.57L48.81 26.51Q47.99 26.65 46.17 26.57L46.07 26.48L46.10 26.50Q45.99 25.07 45.80 22.25L45.76 22.21L45.85 22.29Q46.81 22.35 47.80 22.35L47.87 22.42L47.85 22.39Q52.69 22.51 56.38 20.61L56.21 20.43L56.27 20.50Q56.91 18.21 57.79 16.00L57.77 15.98L57.73 15.94Q56.46 16.84 55.62 17.18L55.48 17.05L55.48 17.04Q55.78 16.28 56.24 14.71L56.33 14.81L56.25 14.72Q51.60 16.85 46.73 16.55L46.73 16.56L46.82 16.65Q41.56 16.37 37.71 13.51L37.60 13.40L37.72 13.52Q40.63 20.51 40.94 28.12L40.89 28.07L40.85 28.03Q41.22 36.02 38.71 42.79Z"/><path fill="#333" d="M70.90 40.31L70.85 40.26L70.86 40.27Q67.42 40.40 65.78 39.87L65.74 39.83L65.70 39.79Q63.80 39.22 63.49 35.83L63.52 35.86L64.85 34.67L64.92 34.75Q65.53 34.10 66.29 33.60L66.32 33.64L66.30 33.61Q66.04 35.52 67.64 36.74L67.76 36.86L67.72 36.82Q68.96 37.79 71.09 37.60L71.17 37.69L71.21 37.72Q75.46 37.18 75.27 33.64L75.28 33.65L75.22 33.58Q75.26 31.53 72.63 30.31L72.57 30.25L72.54 30.23Q69.77 29.24 67.41 28.03L67.26 27.87L67.34 27.95Q64.78 26.61 63.79 21.93L63.76 21.90L63.71 21.85Q63.72 21.52 63.61 20.75L63.50 20.65L63.52 20.67Q63.53 20.00 63.61 19.43L63.51 19.32L63.49 19.30Q63.65 17.71 64.91 17.26L64.93 17.28L65.04 17.39Q67.40 16.48 71.40 16.67L71.34 16.61L71.30 16.57Q73.18 16.74 73.98 16.82L73.91 16.74L73.91 16.74Q75.43 16.97 76.50 17.43L76.44 17.37L76.57 17.50Q78.67 17.96 78.90 20.44L78.84 20.38L78.91 20.45Q77.85 21.14 75.64 22.47L75.69 22.52L75.65 22.49Q75.13 19.37 70.75 19.37L70.88 19.50L70.79 19.41Q68.83 19.35 67.84 20.03L67.94 20.14L67.90 20.10Q66.66 20.53 66.89 22.32L66.98 22.41L67.05 22.48Q67.17 24.55 70.14 26.07L70.21 26.14L70.25 26.18Q70.79 26.41 75.28 28.05L75.27 28.04L75.27 28.04Q77.96 29.58 78.37 33.96L78.38 33.97L78.31 33.90Q78.20 33.94 78.28 35.20L78.29 35.21L78.36 35.28Q78.40 38.02 76.84 39.13L76.78 39.07L76.96 39.24Q75.04 40.14 70.85 40.26ZM73.07 42.55L73.19 42.68L73.18 42.66Q74.68 42.79 76.66 42.79L76.62 42.75L76.65 42.78Q78.57 42.61 79.82 42.19L79.89 42.26L79.90 42.27Q81.10 41.41 81.03 39.62L81.11 39.71L81.06 39.65Q81.11 38.76 80.73 36.70L80.71 36.67L80.71 36.68Q79.67 31.86 77.57 30.00L77.61 30.03L77.56 29.99Q76.85 28.48 75.52 27.76L75.52 27.76L70.14 25.61L70.12 25.59Q69.98 25.61 69.52 25.38L69.38 25.23L69.24 24.82L69.35 24.60L69.34 24.59Q69.15 23.13 70.29 22.52L70.36 22.60L70.21 22.44Q70.96 21.86 72.67 21.67L72.80 21.80L72.75 21.75Q73.92 21.67 75.07 22.13L75.13 22.19L75.08 22.14Q75.02 22.12 75.22 22.96L75.25 23.00L75.34 23.09Q75.44 22.84 75.93 22.61L75.96 22.64L76.04 22.72Q76.65 23.52 76.77 24.66L76.84 24.74L76.83 24.73Q76.82 24.60 80.48 22.02L80.61 22.15L80.65 22.19Q80.37 19.55 78.92 18.86L78.86 18.80L78.88 18.82Q78.22 17.47 76.77 16.94L76.81 16.98L76.91 17.08Q74.53 16.18 71.33 16.18L71.43 16.28L71.27 16.12Q66.41 16.18 64.55 16.86L64.57 16.88L64.55 16.86Q63.15 17.25 63.03 18.92L63.17 19.07L63.09 18.98Q63.01 19.47 63.43 21.68L63.44 21.69L63.43 21.68Q64.24 25.58 66.41 27.82L66.36 27.77L66.44 27.85Q67.22 29.54 68.72 30.23L68.71 30.21L68.71 30.21Q70.11 30.80 74.03 32.36L74.08 32.41L74.07 32.44L74.74 32.81L74.84 32.94L74.69 32.79Q74.91 33.27 74.94 33.61L74.97 33.64L74.94 33.61Q74.97 37.03 71.05 37.18L71.22 37.35L71.11 37.24Q70.01 37.32 68.71 36.94L68.72 36.95L68.72 36.95Q68.40 36.13 68.40 35.41L68.32 35.33L68.41 35.42Q68.40 35.14 68.44 34.87L68.30 34.74L68.36 34.79Q67.99 35.08 67.19 35.57L67.19 35.57L67.13 35.50Q66.66 34.43 66.82 33.06L66.74 32.98L66.85 33.10Q64.75 34.27 63.15 35.68L63.18 35.71L63.12 35.64Q63.18 36.47 63.25 37.49L63.26 37.50L63.27 37.52Q63.52 39.17 64.82 39.93L64.86 39.97L64.85 39.96Q66.14 41.86 68.69 42.24L68.74 42.29L68.67 42.23Q70.29 42.52 73.22 42.71Z"/><path fill="#333" d="M118.26 26.74L118.33 26.81L118.38 26.87Q120.16 27.00 121.99 27.00L122.03 27.04L121.89 26.91Q123.75 26.98 125.58 26.82L125.54 26.79L125.66 26.91Q125.45 27.46 125.45 28.18L125.45 28.19L125.37 29.43L125.51 29.57Q123.09 29.52 118.33 29.63L118.26 29.55L118.40 29.70Q118.40 35.64 117.26 40.63L117.19 40.55L117.17 40.54Q114.95 41.21 113.47 42.01L113.49 42.03L113.59 42.13Q115.88 35.28 115.61 28.16L115.58 28.13L115.49 28.05Q115.23 20.89 112.56 14.23L112.70 14.36L112.63 14.30Q116.24 16.76 120.99 16.99L121.06 17.05L121.02 17.01Q125.69 17.19 129.84 15.44L129.94 15.54L129.98 15.58Q129.70 16.41 129.48 17.21L129.43 17.16L128.84 18.67L128.96 18.79Q126.24 19.88 123.27 20.03L123.20 19.95L123.27 20.02Q120.23 20.07 117.38 19.35L117.37 19.34L117.48 19.45Q118.15 22.82 118.34 26.82ZM130.50 14.77L130.44 14.71L130.58 14.84Q125.94 16.94 121.06 16.64L121.02 16.60L121.10 16.68Q115.63 16.23 111.90 13.38L112.01 13.48L112.08 13.55Q114.80 20.35 115.11 27.97L115.27 28.13L115.15 28.01Q115.44 35.91 112.93 42.69L112.97 42.73L113.04 42.80Q113.64 42.33 115.01 41.69L115.03 41.71L115.01 41.68Q114.81 42.44 114.24 43.96L114.21 43.93L114.32 44.05Q116.65 42.99 119.55 42.49L119.47 42.41L119.45 42.39Q120.09 37.56 120.28 31.85L120.27 31.84L120.33 31.89Q121.99 31.73 123.82 31.73L123.84 31.75L123.84 31.75Q125.72 31.84 127.55 32.03L127.61 32.09L127.49 31.97Q127.37 31.02 127.37 30.10L127.36 30.09L127.38 28.21L127.43 28.26Q126.66 28.37 125.82 28.37L125.77 28.31L125.72 28.26Q125.90 27.57 125.98 26.54L125.89 26.45L125.87 26.43Q124.46 26.58 123.05 26.58L123.05 26.58L123.20 26.73Q121.62 26.56 120.25 26.52L120.37 26.64L120.22 24.36L120.32 24.46Q120.30 23.38 120.19 22.31L120.06 22.19L120.07 22.20Q121.11 22.32 122.10 22.32L122.08 22.30L122.05 22.27Q126.78 22.24 130.40 20.34L130.39 20.34L130.37 20.31Q130.86 18.48 131.78 15.86L131.78 15.86L131.90 15.98Q130.47 16.68 129.67 17.02L129.78 17.13L129.84 17.19Q130.09 16.41 130.58 14.85Z"/></svg>