<svg xmlns="http://www.w3.org/2000/svg" width="150" height="50" viewBox="0,0,150,50"><path fill="#222" d="M74.04 39.87L74.05 39.88L74.06 39.89Q72.06 39.79 70.04 39.98L69.97 39.91L70.03 39.97Q70.75 34.79 70.75 29.95L70.77 29.98L70.64 29.84Q70.68 24.98 70.04 19.76L70.19 19.92L70.16 19.88Q65.54 19.46 62.34 17.78L62.38 17.82L61.51 15.92L61.56 15.97Q61.34 15.44 60.73 14.22L60.74 14.23L60.78 14.28Q65.91 17.01 71.93 17.20L71.93 17.20L71.90 17.17Q77.71 17.27 83.15 15.21L83.11 15.17L83.15 15.21Q82.37 16.56 81.72 18.39L81.73 18.40L81.90 18.57Q78.29 19.87 74.03 20.06L73.90 19.93L73.98 20.01Q73.71 24.96 73.71 29.91L73.63 29.83L73.71 29.90Q73.73 34.87 74.03 39.86ZM83.86 14.55L83.78 14.47L83.80 14.49Q78.00 16.80 71.80 16.61L71.74 16.55L71.74 16.55Q65.14 16.42 60.04 13.45L59.98 13.39L60.05 13.46Q60.77 14.72 62.06 17.99L62.08 18.01L62.13 18.06Q62.68 18.27 63.94 18.84L64.05 18.95L63.92 18.82Q64.27 19.63 64.61 21.15L64.62 21.16L64.69 21.23Q66.98 22.07 70.03 22.30L69.92 22.19L69.95 22.23Q70.35 25.94 70.35 29.71L70.23 29.59L70.28 29.64Q70.25 34.98 69.45 40.35L69.56 40.45L69.45 40.35Q71.22 40.32 71.75 40.32L71.65 40.22L71.82 40.39Q71.69 40.56 71.63 41.23L71.60 41.19L71.68 41.28Q71.55 41.88 71.55 42.22L71.57 42.23L71.58 42.24Q72.79 42.19 74.31 42.27L74.39 42.35L74.41 42.37Q75.22 42.31 77.05 42.46L77.07 42.48L77.13 42.54Q75.83 37.55 75.72 32.37L75.68 32.33L75.73 32.38Q75.54 27.02 76.08 22.11L76.05 22.09L76.14 22.17Q80.15 21.69 83.31 20.47L83.23 20.39L83.24 20.41Q83.95 18.03 84.98 15.97L84.99 15.98L84.95 15.94Q83.64 16.65 82.84 16.95L82.91 17.02L82.84 16.96Q83.31 15.71 83.88 14.57Z"/><path fill="#333" d="M48.46 29.99L48.43 29.96L48.43 29.96Q45.83 29.75 44.49 30.97L44.46 30.94L44.42 30.90Q43.21 32.24 43.52 34.75L43.50 34.74L43.41 34.65Q43.69 37.13 44.91 38.39L44.90 38.38L45.04 38.52Q46.12 39.87 48.25 39.79L48.20 39.74L48.15 39.69Q48.81 39.78 49.00 39.78L48.89 39.67L48.95 39.73Q52.49 39.12 52.60 34.51L52.51 34.42L52.56 34.47Q52.63 32.10 51.94 31.30L51.98 31.34L52.03 31.39Q50.88 30.01 48.33 29.86ZM51.63 41.57L51.66 41.60L51.78 41.72Q50.33 42.18 48.77 42.10L48.80 42.13L48.75 42.08Q44.97 42.33 43.67 39.75L43.67 39.74L43.64 39.71Q43.55 45.14 42.21 49.40L42.09 49.28L42.26 49.45Q40.48 49.95 38.84 50.68L38.71 50.54L38.76 50.59Q41.30 44.60 41.03 37.64L41.02 37.62L41.05 37.65Q40.74 30.76 37.85 24.71L37.96 24.82L37.94 24.80Q39.81 25.91 41.52 26.36L41.50 26.34L42.12 27.91L42.13 27.92Q42.18 28.20 42.45 29.31L42.41 29.27L42.34 29.20Q43.47 27.25 47.05 27.06L47.02 27.03L47.15 27.15Q48.00 27.09 48.88 27.09L48.73 26.95L49.24 26.96L49.34 27.06Q49.40 27.01 49.59 27.04L49.58 27.03L49.99 27.14L49.91 27.06Q51.97 27.33 52.69 27.56L52.77 27.64L52.65 27.52Q54.27 28.11 55.15 29.06L55.16 29.07L55.17 29.09Q55.86 30.12 55.82 31.53L55.93 31.64L55.95 31.65Q55.80 34.36 55.00 37.02L55.18 37.20L55.17 37.19Q54.01 40.56 51.65 41.59ZM56.03 42.31L56.02 42.27L55.88 42.13Q57.12 40.29 57.43 36.18L57.46 36.21L57.39 36.14Q57.50 34.35 57.50 33.09L57.48 33.07L57.46 33.05Q57.52 31.59 56.76 30.18L56.86 30.28L56.72 30.14Q56.31 29.69 55.81 29.31L55.93 29.42L55.62 29.00L55.43 28.70L55.38 28.53L55.50 28.66Q53.84 26.69 49.50 26.69L49.40 26.59L48.87 26.66L48.86 26.65Q44.11 26.56 42.48 28.16L42.44 28.12L42.44 28.12Q42.37 27.70 42.21 27.21L42.08 27.07L41.84 26.04L41.96 26.15Q39.35 25.40 37.14 23.92L37.28 24.07L37.16 23.95Q40.37 30.20 40.68 37.44L40.82 37.58L40.85 37.61Q41.11 44.83 38.26 51.31L38.21 51.26L40.16 50.36L40.26 50.46Q39.85 51.04 39.17 52.60L39.21 52.65L39.33 52.76Q41.92 51.58 44.24 51.24L44.25 51.24L44.31 51.31Q45.47 46.53 45.62 42.80L45.55 42.73L45.49 42.67Q46.93 44.18 50.54 44.41L50.49 44.35L50.53 44.39Q54.50 44.67 55.95 42.24L55.96 42.24ZM50.22 32.09L50.35 32.22L50.34 32.21Q50.99 32.14 52.09 32.48L52.10 32.49L51.98 32.37Q52.36 33.47 52.32 34.65L52.24 34.57L52.18 34.51Q52.17 35.41 51.98 36.06L52.10 36.18L52.07 36.15Q51.37 39.07 48.86 39.37L48.76 39.27L48.90 39.30L48.97 39.37Q48.84 39.31 48.72 39.35L48.74 39.37L48.30 39.46L48.32 39.48Q47.01 39.35 46.02 38.86L46.11 38.94L45.76 36.89L45.72 36.84Q45.66 34.61 46.95 33.59L46.93 33.56L46.80 33.43Q47.93 32.47 50.33 32.20Z"/><path fill="#333" d="M119.56 28.92L119.49 28.84L119.52 28.87Q117.08 28.99 116.05 30.17L115.92 30.03L115.94 30.05Q115.01 31.33 115.01 33.96L114.89 33.84L114.92 33.87Q115.05 39.10 119.66 38.91L119.59 38.84L119.61 38.86Q121.58 38.93 122.93 37.37L122.91 37.35L123.02 37.46Q124.35 35.88 124.13 33.82L124.22 33.92L124.23 33.93Q124.21 31.36 123.34 30.33L123.30 30.30L123.23 30.23Q121.84 28.99 119.64 28.99ZM124.57 38.69L124.55 38.66L124.49 38.61Q123.46 41.23 118.78 41.23L118.80 41.26L117.33 41.23L117.31 41.21Q114.85 41.11 113.75 39.97L113.72 39.95L113.76 39.98Q112.86 39.08 112.59 36.68L112.49 36.58L112.51 36.60Q112.35 35.10 112.27 33.31L112.32 33.36L112.38 33.42Q112.23 32.33 112.08 30.39L112.04 30.34L112.03 30.33Q111.93 26.04 117.11 26.04L117.09 26.03L118.82 26.20L118.75 26.13Q121.58 26.06 123.67 27.35L123.67 27.35L123.71 27.39Q124.45 27.83 124.94 28.51L124.98 28.55L124.97 28.54Q125.36 27.87 125.90 26.23L125.81 26.15L125.72 26.05Q126.96 25.89 129.29 25.28L129.30 25.29L129.32 25.31Q126.84 29.65 126.84 34.90L126.82 34.88L126.76 34.82Q126.82 38.62 128.20 41.70L128.04 41.55L128.18 41.69Q127.08 41.42 125.18 41.20L125.11 41.13L125.03 41.05Q124.80 40.17 124.49 38.61ZM127.96 43.98L127.86 43.88L130.10 44.48L130.02 44.40Q131.33 44.79 132.32 45.25L132.32 45.25L132.31 45.24Q128.69 40.94 128.69 34.85L128.64 34.80L128.57 34.73Q128.73 30.36 130.86 26.55L130.78 26.47L130.75 26.44Q130.11 26.68 128.78 27.06L128.89 27.17L128.82 27.09Q129.12 26.30 130.00 24.78L129.94 24.72L130.05 24.83Q129.45 24.99 125.46 25.83L125.49 25.86L124.85 27.62L124.85 27.62Q123.05 25.86 118.63 25.63L118.76 25.76L118.69 25.68Q117.50 25.64 115.26 25.79L115.28 25.82L115.44 25.97Q111.63 26.20 111.74 30.23L111.67 30.16L111.80 30.30Q111.84 33.53 112.41 37.98L112.44 38.01L112.51 38.50L112.45 38.44Q112.59 39.31 113.39 40.41L113.36 40.39L113.49 40.51Q113.46 40.48 113.65 40.60L113.76 40.71L113.77 40.71Q114.04 41.21 114.42 41.78L114.47 41.83L114.36 41.73Q115.78 43.26 119.17 43.45L119.27 43.55L119.14 43.42Q120.87 43.62 121.02 43.62L120.98 43.58L122.51 43.55L122.62 43.67Q125.70 43.54 126.91 41.98L127.01 42.07L126.94 42.01Q127.35 42.69 127.96 43.98ZM121.31 31.12L121.35 31.16L121.42 31.23Q122.73 31.22 123.57 31.67L123.54 31.64L123.57 31.68Q123.77 32.37 123.77 33.81L123.85 33.89L123.88 33.92Q124.06 35.82 122.79 37.24L122.83 37.29L122.82 37.28Q121.39 38.55 119.48 38.36L119.66 38.53L119.55 38.43Q118.08 38.40 117.05 37.98L117.00 37.93L117.13 38.06Q116.91 37.20 116.91 35.98L116.93 35.99L116.90 35.97Q117.00 32.41 119.63 31.46L119.71 31.54L119.68 31.51Q120.56 31.18 121.36 31.18Z"/><path fill="#222" d="M98.76 39.92L98.72 39.88L98.76 39.92Q96.76 39.83 94.75 40.02L94.77 40.04L94.65 39.92Q95.33 34.70 95.33 29.87L95.35 29.89L95.45 29.99Q95.47 25.10 94.83 19.88L94.81 19.86L94.79 19.85Q90.08 19.32 86.88 17.65L87.06 17.82L86.25 15.99L86.29 16.03Q85.96 15.40 85.35 14.18L85.50 14.33L85.36 14.18Q90.49 16.92 96.51 17.11L96.53 17.14L96.58 17.18Q102.29 17.18 107.73 15.13L107.88 15.28L107.72 15.12Q107.13 16.65 106.48 18.48L106.45 18.45L106.42 18.42Q102.85 19.76 98.58 19.95L98.65 20.01L98.66 20.02Q98.30 24.88 98.30 29.83L98.48 30.01L98.45 29.98Q98.31 34.79 98.61 39.78ZM108.44 14.46L108.54 14.56L108.48 14.51Q102.70 16.83 96.49 16.64L96.47 16.62L96.42 16.56Q89.91 16.53 84.81 13.56L84.62 13.37L84.62 13.37Q85.54 14.83 86.84 18.10L86.72 17.98L86.85 18.12Q87.50 18.42 88.75 18.99L88.69 18.92L88.66 18.90Q88.87 19.56 89.21 21.09L89.33 21.20L89.24 21.11Q91.59 22.02 94.64 22.25L94.61 22.22L94.56 22.17Q95.02 25.94 95.02 29.71L94.90 29.59L95.03 29.72Q94.91 34.97 94.11 40.33L94.10 40.33L94.14 40.37Q95.95 40.39 96.48 40.39L96.47 40.37L96.38 40.29Q96.47 40.67 96.41 41.34L96.30 41.23L96.26 41.19Q96.28 41.93 96.28 42.27L96.33 42.32L96.32 42.32Q97.44 42.18 98.96 42.25L99.01 42.31L98.94 42.23Q99.92 42.33 101.74 42.49L101.64 42.38L101.74 42.49Q100.60 37.65 100.49 32.48L100.47 32.45L100.31 32.29Q100.20 27.01 100.74 22.10L100.72 22.08L100.85 22.22Q104.83 21.70 107.99 20.48L107.96 20.45L107.93 20.42Q108.59 18.01 109.62 15.95L109.54 15.87L109.63 15.96Q108.32 16.67 107.52 16.97L107.52 16.97L107.45 16.90Q107.91 15.64 108.48 14.50Z"/><path fill="#111" d="M23.35 40.20L23.42 40.27L23.33 40.18Q21.48 40.13 19.81 40.70L19.75 40.64L19.84 40.73Q20.33 37.08 20.45 33.95L20.44 33.95L20.47 33.98Q20.53 30.87 20.30 27.22L20.33 27.25L20.38 27.30Q19.00 26.95 18.24 26.57L18.20 26.52L17.80 23.50L17.81 23.51Q18.47 24.06 20.07 24.63L20.21 24.77L20.16 24.72Q19.85 22.50 19.43 19.76L19.47 19.80L19.54 19.88Q21.82 20.55 23.45 20.40L23.31 20.26L23.23 24.89L23.24 24.91Q24.63 24.81 25.97 24.32L26.08 24.44L25.96 24.32Q26.10 25.40 25.87 27.15L25.69 26.97L25.78 27.06Q24.32 27.47 23.30 27.47L23.30 27.47L23.14 27.32Q23.17 29.52 23.17 33.78L23.29 33.90L23.21 33.82Q23.28 38.04 23.35 40.21ZM26.53 23.89L26.51 23.87L26.44 23.80Q26.15 23.89 25.54 24.12L25.52 24.10L26.01 21.44L25.88 21.30Q25.21 21.73 23.80 21.96L23.80 21.96L23.77 21.94Q23.66 21.14 23.81 19.77L23.96 19.92L23.90 19.86Q23.24 19.88 22.67 19.88L22.79 20.00L22.79 20.00Q20.66 20.00 19.02 19.28L18.98 19.23L19.01 19.26Q19.39 21.62 19.65 24.10L19.64 24.09L19.78 24.23Q18.88 23.86 17.36 22.83L17.31 22.78L17.34 22.81Q17.74 24.16 17.97 26.87L17.86 26.76L17.81 26.71Q18.33 27.00 19.51 27.42L19.43 27.34L19.61 27.51Q19.64 28.15 19.67 29.56L19.66 29.55L20.07 29.61L20.16 29.63L20.12 29.59Q20.23 30.88 20.23 32.06L20.12 31.95L20.18 32.01Q20.18 36.96 19.38 41.30L19.30 41.22L19.26 41.18Q19.57 41.19 21.51 40.65L21.57 40.71L21.45 40.59Q21.42 41.21 21.31 42.58L21.39 42.66L21.41 42.68Q22.18 42.58 22.98 42.58L22.96 42.56L22.99 42.59Q24.74 42.63 26.38 43.20L26.42 43.23L26.35 43.17Q25.07 37.51 25.26 29.59L25.25 29.58L27.62 29.17L27.58 29.13Q27.65 28.21 27.73 27.18L27.68 27.13L27.93 25.18L27.91 25.16Q27.45 25.53 26.27 25.99L26.20 25.92L26.10 25.82Q26.48 24.57 26.40 24.23L26.35 24.17L26.36 24.18Q26.45 24.09 26.53 23.90Z"/></svg>