<svg xmlns="http://www.w3.org/2000/svg" width="150" height="50" viewBox="0,0,150,50"><path fill="#333" d="M23.70 29.90L23.64 29.84L23.77 29.97Q21.14 29.73 19.80 30.95L19.87 31.02L19.73 30.88Q18.47 32.17 18.78 34.68L18.84 34.74L18.82 34.73Q19.02 37.14 20.24 38.39L20.26 38.41L20.33 38.48Q21.50 39.92 23.63 39.84L23.51 39.72L23.60 39.81Q24.16 39.79 24.35 39.79L24.26 39.70L24.26 39.71Q27.80 39.10 27.91 34.49L27.88 34.45L27.93 34.51Q28.03 32.17 27.34 31.37L27.24 31.26L27.42 31.45Q26.17 29.97 23.62 29.82ZM27.01 41.62L27.10 41.71L27.08 41.69Q25.61 42.13 24.05 42.05L24.13 42.13L24.07 42.07Q20.34 42.38 19.05 39.79L19.03 39.77L18.99 39.73Q18.82 45.08 17.49 49.35L17.53 49.38L17.46 49.31Q15.75 49.89 14.12 50.61L14.13 50.63L13.99 50.49Q16.54 44.51 16.27 37.54L16.45 37.72L16.46 37.73Q16.20 30.88 13.30 24.83L13.16 24.69L13.18 24.71Q15.18 25.94 16.89 26.40L16.96 26.46L17.47 27.93L17.40 27.86Q17.56 28.25 17.83 29.35L17.80 29.32L17.83 29.35Q18.82 27.26 22.40 27.07L22.33 27.01L22.44 27.11Q23.27 27.03 24.15 27.03L24.19 27.08L24.70 27.09L24.63 27.02Q24.65 26.92 24.84 26.96L24.93 27.05L25.21 27.03L25.34 27.16Q27.36 27.39 28.08 27.62L28.07 27.61L27.97 27.51Q29.50 28.01 30.38 28.96L30.49 29.07L30.51 29.09Q31.34 30.26 31.30 31.67L31.27 31.64L31.21 31.58Q31.17 34.40 30.37 37.06L30.37 37.06L30.44 37.13Q29.35 40.57 26.99 41.60ZM31.34 42.29L31.29 42.20L31.32 42.24Q32.41 40.24 32.71 36.13L32.70 36.11L32.73 36.15Q32.94 34.45 32.94 33.20L32.86 33.12L32.89 33.14Q32.98 31.72 32.22 30.31L32.10 30.18L32.21 30.29Q31.72 29.77 31.22 29.39L31.11 29.27L31.04 29.09L30.85 28.78L30.80 28.62L30.79 28.61Q29.01 26.53 24.67 26.53L24.84 26.69L24.06 26.52L24.20 26.66Q19.49 26.60 17.86 28.20L17.84 28.18L17.94 28.29Q17.57 27.57 17.41 27.07L17.44 27.10L17.18 26.04L17.33 26.19Q14.73 25.46 12.53 23.98L12.60 24.05L12.66 24.11Q15.79 30.28 16.09 37.51L16.08 37.50L16.17 37.59Q16.39 44.78 13.54 51.25L13.49 51.20L15.61 50.47L15.47 50.33Q15.23 51.08 14.54 52.64L14.49 52.59L14.64 52.73Q17.33 51.66 19.65 51.32L19.68 51.34L19.58 51.24Q20.62 46.35 20.77 42.62L20.95 42.79L20.86 42.70Q22.17 44.09 25.79 44.32L25.88 44.41L25.82 44.35Q29.83 44.67 31.28 42.23L31.33 42.28ZM25.63 32.17L25.54 32.08L25.68 32.22Q26.17 31.98 27.27 32.33L27.33 32.39L27.39 32.45Q27.68 33.46 27.65 34.64L27.55 34.55L27.50 34.50Q27.64 35.55 27.45 36.20L27.37 36.12L27.50 36.25Q26.69 39.05 24.17 39.35L24.07 39.25L24.25 39.32L24.30 39.36Q24.22 39.36 24.11 39.40L24.18 39.47L23.51 39.33L23.57 39.39Q22.32 39.33 21.33 38.83L21.47 38.98L21.01 36.79L21.01 36.80Q20.84 34.46 22.14 33.43L22.21 33.51L22.22 33.52Q23.23 32.43 25.63 32.16Z"/><path fill="#222" d="M71.21 19.58L71.21 19.58L71.25 19.62Q69.30 19.76 68.34 19.92L68.37 19.94L68.34 19.91Q66.69 20.13 65.47 20.66L65.42 20.60L65.55 20.74Q61.98 22.12 61.87 26.80L61.91 26.85L61.94 26.88Q61.91 29.58 62.56 32.51L62.42 32.38L62.44 32.40Q63.33 36.45 66.95 37.63L67.06 37.74L66.87 37.56Q68.77 38.12 70.22 37.97L70.24 37.99L70.72 38.02L70.65 37.95Q70.98 38.09 71.17 38.12L71.02 37.97L71.13 38.08Q71.20 38.00 71.35 37.96L71.47 38.08L71.41 38.02Q74.03 37.75 75.40 37.18L75.36 37.13L71.73 33.55L71.86 33.67Q72.21 33.37 72.82 32.76L72.87 32.81L73.73 31.85L73.78 31.90Q75.47 33.82 77.45 35.87L77.47 35.90L77.41 35.83Q79.90 34.18 80.17 28.81L80.15 28.79L80.14 28.78Q80.07 27.72 80.07 26.81L80.15 26.88L80.22 26.95Q80.15 21.22 75.09 20.11L75.17 20.19L75.19 20.22Q73.86 19.87 71.35 19.72ZM84.12 41.78L84.01 41.68L84.15 41.81Q83.40 42.09 82.22 42.97L82.34 43.09L77.79 39.26L77.97 39.44Q75.31 40.47 71.05 40.51L71.20 40.66L71.06 40.52Q64.67 40.79 61.85 38.55L61.87 38.57L61.81 38.50Q59.92 36.62 59.47 33.65L59.56 33.74L59.45 33.63Q59.34 31.93 58.96 28.35L59.02 28.41L58.93 28.32Q58.89 27.55 58.77 25.80L58.88 25.91L58.86 25.88Q58.71 24.33 58.75 23.46L58.78 23.48L58.80 23.51Q58.94 20.49 60.69 18.93L60.57 18.80L60.58 18.82Q62.16 17.54 65.36 17.04L65.40 17.09L65.37 17.06Q67.82 16.65 70.71 16.72L70.67 16.68L70.60 16.61Q78.26 16.89 81.38 19.25L81.22 19.08L81.37 19.24Q83.51 21.34 83.25 26.25L83.14 26.14L83.13 26.13Q83.12 29.97 82.93 31.30L82.75 31.12L82.89 31.26Q82.09 35.60 79.77 37.92L79.89 38.05L79.86 38.01Q81.31 39.24 84.05 41.71ZM79.17 17.42L79.30 17.54L79.20 17.44Q77.19 16.73 70.68 16.23L70.62 16.18L70.67 16.23Q69.35 16.32 66.57 16.43L66.57 16.43L66.58 16.44Q62.33 16.64 60.08 18.62L60.07 18.61L60.08 18.61Q58.31 19.97 58.31 23.13L58.49 23.31L58.40 23.22Q58.40 24.06 58.55 25.77L58.61 25.82L58.51 25.72Q58.76 27.53 58.76 28.41L58.60 28.26L58.75 28.40Q58.83 30.08 59.21 33.66L59.31 33.76L59.29 33.74Q59.50 36.46 61.10 38.52L61.21 38.63L61.13 38.55Q61.59 39.51 62.81 40.65L62.80 40.64L62.80 40.64Q65.55 42.67 70.73 42.93L70.67 42.87L70.72 42.92Q71.05 42.91 73.45 43.02L73.32 42.90L73.35 42.93Q78.23 43.16 80.51 42.09L80.39 41.97L80.45 42.04Q81.41 42.81 86.13 46.38L86.06 46.31L86.03 46.29Q86.63 45.74 87.93 44.75L87.90 44.73L87.91 44.73Q87.14 44.16 86.34 43.47L86.32 43.45L84.60 41.92L84.80 41.97L84.70 41.87Q84.08 41.36 82.86 40.33L82.93 40.40L82.85 40.32Q84.80 37.85 84.80 33.32L84.87 33.39L84.77 33.29Q84.76 32.86 84.79 32.03L84.92 32.15L84.91 32.15Q84.88 31.23 84.88 30.81L84.98 30.92L85.00 30.93Q84.96 25.38 84.24 23.02L84.21 22.99L84.11 22.89Q83.84 21.71 82.97 20.64L82.97 20.64L82.96 20.63Q82.06 18.40 79.13 17.37ZM73.26 22.09L73.15 21.98L73.10 21.93Q77.21 21.89 79.04 23.49L79.07 23.53L79.15 23.60Q79.72 24.82 79.83 26.15L79.76 26.08L79.87 26.19Q79.84 27.33 79.76 28.70L79.76 28.70L79.74 28.68Q79.45 33.69 77.51 35.40L77.55 35.44L77.47 35.36Q76.25 34.14 73.74 31.40L73.72 31.38L73.77 31.44Q72.82 32.00 71.26 33.57L71.40 33.71L71.31 33.62Q71.96 34.30 73.10 35.48L72.98 35.36L73.05 35.55L72.91 35.41Q73.55 36.01 74.58 37.08L74.64 37.14L74.49 36.99Q73.49 37.24 71.16 37.54L71.24 37.62L70.67 37.58L70.33 37.66L70.24 37.61L70.24 37.61Q66.79 37.62 64.81 35.99L64.93 36.10L64.94 36.12Q63.75 33.86 63.79 30.74L63.82 30.77L63.89 30.84Q64.12 22.20 73.29 22.12Z"/><path fill="#333" d="M114.58 49.56L114.71 49.69L114.57 49.55Q117.54 45.74 120.43 39.53L120.45 39.55L120.47 39.57Q117.29 32.96 111.19 24.89L111.22 24.92L111.28 24.97Q113.09 26.02 115.87 26.67L115.97 26.78L115.81 26.62Q119.38 31.33 121.82 36.54L121.86 36.59L121.82 36.54Q124.06 31.32 127.14 26.91L127.18 26.94L127.06 26.83Q129.45 26.66 131.54 25.86L131.47 25.79L131.51 25.83Q128.08 29.64 124.62 37.06L124.53 36.97L121.71 42.98L121.73 43.01Q120.21 46.05 118.46 48.68L118.64 48.85L118.46 48.68Q116.17 49.17 114.72 49.70ZM120.89 51.03L120.83 50.97L120.76 50.90Q122.54 48.08 123.99 44.81L123.97 44.79L126.72 38.48L126.72 38.48Q130.18 30.40 133.49 26.40L133.58 26.49L133.44 26.35Q132.20 27.13 130.30 27.82L130.30 27.82L131.39 26.48L131.29 26.37Q131.87 25.70 132.48 25.01L132.43 24.96L132.42 24.95Q129.83 26.09 126.97 26.54L126.95 26.52L127.04 26.62Q124.20 30.44 122.26 34.89L122.35 34.98L122.25 34.88Q120.71 31.66 118.92 28.85L118.75 28.68L118.79 28.72Q118.58 28.69 118.21 28.66L118.31 28.75L118.39 28.83Q117.85 28.61 117.66 28.61L117.80 28.75L117.66 28.62Q117.04 27.50 116.09 26.36L116.10 26.37L116.01 26.28Q112.85 25.64 110.11 23.92L110.20 24.01L110.16 23.98Q116.29 31.85 119.98 39.47L120.06 39.54L120.06 39.54Q117.89 44.61 113.82 50.24L113.81 50.23L113.80 50.22Q114.66 49.98 115.46 49.82L115.41 49.78L116.99 49.38L116.96 49.35Q116.48 50.20 115.30 51.84L115.34 51.88L115.30 51.84Q117.52 51.17 120.80 50.94Z"/><path fill="#444" d="M52.13 40.90L52.17 40.94L52.16 40.92Q50.78 39.16 49.48 36.08L49.51 36.10L47.52 31.11L47.50 31.08Q45.78 34.97 45.17 36.26L45.24 36.32L45.28 36.36Q43.82 39.28 42.22 41.19L42.22 41.18L42.18 41.15Q41.91 41.25 41.14 41.37L41.16 41.38L41.06 41.28Q41.10 33.89 35.27 27.95L35.16 27.85L35.23 27.91Q33.43 26.04 31.41 24.55L31.44 24.58L31.52 24.66Q33.29 25.14 35.16 25.44L35.11 25.40L35.23 25.51Q41.17 30.35 42.61 36.59L42.72 36.70L42.64 36.62Q43.58 34.82 44.76 31.62L44.71 31.56L44.72 31.58Q46.05 27.81 46.62 26.51L46.71 26.60L48.21 26.69L48.21 26.69Q49.09 28.41 50.27 31.69L50.12 31.54L50.23 31.65Q51.40 35.14 52.05 36.55L52.21 36.71L52.13 36.62Q54.01 30.40 59.49 25.83L59.33 25.67L59.47 25.81Q60.60 25.64 63.34 25.07L63.48 25.21L63.45 25.18Q54.74 31.13 53.56 41.11L53.53 41.07L52.86 40.93L52.93 41.01Q52.52 40.90 52.18 40.94ZM55.18 43.41L57.23 43.59L57.34 43.71Q56.86 42.01 56.86 40.48L56.91 40.54L56.87 40.50Q56.89 37.28 58.30 34.04L58.31 34.05L58.37 34.12Q60.30 29.54 64.42 26.45L64.48 26.52L64.33 26.37Q63.10 26.62 61.23 26.96L61.27 27.00L61.36 27.09Q63.25 25.36 64.54 24.45L64.57 24.48L62.12 24.99L62.18 25.06Q60.80 25.12 59.47 25.28L59.52 25.33L59.56 25.37Q54.28 29.49 52.33 34.51L52.35 34.53L52.51 34.69Q51.79 32.44 50.42 28.18L50.44 28.20L50.36 28.12Q50.10 28.21 49.84 28.21L49.75 28.12L49.39 28.30L49.22 28.13Q49.26 27.97 48.46 26.22L48.47 26.23L46.39 26.21L46.27 26.09Q45.27 28.86 43.18 34.49L43.20 34.51L43.33 34.65Q41.89 30.84 38.80 27.57L38.92 27.68L38.79 27.56Q38.58 27.61 38.28 27.57L38.34 27.64L37.79 27.54L37.65 27.40Q36.97 26.76 35.19 25.17L35.13 25.11L35.10 25.08Q31.86 24.35 30.18 23.86L30.24 23.91L30.36 24.03Q41.01 31.41 40.63 41.73L40.65 41.75L40.65 41.75Q40.78 41.68 41.14 41.64L41.11 41.61L41.22 41.73Q41.58 41.68 41.77 41.68L41.81 41.73L41.80 41.72Q41.82 41.58 42.01 43.68L41.99 43.65L43.83 43.41L43.86 43.44Q46.47 40.64 48.71 34.89L48.71 34.88L48.68 34.85Q50.11 38.64 51.97 41.31L51.99 41.32L52.13 41.46Q52.39 41.38 52.66 41.40L52.67 41.42L52.55 41.30Q52.95 41.45 53.22 41.45L53.16 41.39L55.28 43.51Z"/><path fill="#333" d="M96.03 19.73L96.02 19.72L96.04 19.75Q94.06 19.86 93.11 20.01L93.08 19.98L93.07 19.98Q91.48 20.25 90.26 20.78L90.22 20.74L90.18 20.70Q86.74 22.21 86.62 26.89L86.61 26.88L86.62 26.88Q86.58 29.59 87.23 32.52L87.20 32.49L87.11 32.41Q88.07 36.53 91.69 37.71L91.58 37.59L91.55 37.56Q93.50 38.18 94.95 38.03L95.07 38.15L95.31 37.94L95.30 37.92Q95.68 38.11 95.87 38.15L95.68 37.97L95.72 38.00Q95.95 38.08 96.10 38.05L96.16 38.10L96.04 37.98Q98.78 37.82 100.15 37.25L99.99 37.10L96.54 33.68L96.48 33.62Q96.85 33.35 97.46 32.74L97.38 32.66L98.28 31.73L98.38 31.83Q100.11 33.79 102.09 35.85L102.19 35.94L102.25 36.01Q104.54 34.14 104.80 28.77L104.76 28.73L104.70 28.67Q104.76 27.75 104.76 26.83L104.91 26.98L104.78 26.85Q104.91 21.31 99.85 20.21L99.70 20.06L99.70 20.05Q98.56 19.90 96.05 19.75ZM108.77 41.77L108.76 41.76L108.74 41.73Q108.05 42.08 106.87 42.95L107.00 43.08L102.49 39.29L102.60 39.40Q100.17 40.67 95.91 40.71L95.90 40.70L95.76 40.55Q89.35 40.81 86.54 38.57L86.51 38.54L86.41 38.44Q84.62 36.65 84.16 33.68L84.27 33.79L84.17 33.69Q83.94 31.86 83.56 28.28L83.55 28.27L83.55 28.27Q83.62 27.62 83.51 25.87L83.50 25.86L83.45 25.81Q83.45 24.40 83.49 23.53L83.42 23.46L83.37 23.41Q83.48 20.36 85.23 18.80L85.27 18.84L85.25 18.81Q86.80 17.51 90.00 17.02L90.08 17.10L90.03 17.05Q92.48 16.64 95.37 16.72L95.29 16.63L95.40 16.74Q102.91 16.87 106.03 19.23L106.06 19.26L105.99 19.19Q108.22 21.38 107.95 26.29L107.93 26.27L107.91 26.25Q107.70 29.88 107.51 31.21L107.59 31.29L107.42 31.13Q106.91 35.75 104.58 38.07L104.60 38.09L104.54 38.03Q106.01 39.27 108.75 41.75ZM103.88 17.46L103.97 17.55L103.95 17.53Q101.92 16.79 95.41 16.30L95.35 16.24L95.42 16.31Q93.92 16.22 91.14 16.33L91.25 16.44L91.15 16.34Q87.03 16.67 84.78 18.65L84.74 18.61L84.81 18.68Q83.14 20.13 83.14 23.29L83.04 23.19L83.08 23.23Q83.11 24.10 83.26 25.81L83.15 25.70L83.31 25.86Q83.32 27.44 83.32 28.31L83.28 28.27L83.45 28.43Q83.54 30.12 83.92 33.70L83.93 33.71L83.95 33.73Q84.19 36.49 85.79 38.54L85.75 38.51L85.93 38.68Q86.18 39.43 87.40 40.57L87.35 40.52L87.47 40.64Q90.06 42.51 95.24 42.78L95.40 42.94L95.32 42.85Q95.69 42.88 98.08 42.99L97.98 42.89L98.04 42.95Q102.84 43.10 105.12 42.04L105.17 42.09L105.16 42.08Q106.05 42.77 110.77 46.35L110.71 46.30L110.68 46.27Q111.38 45.82 112.67 44.83L112.69 44.85L112.67 44.83Q111.84 44.19 111.04 43.50L111.04 43.50L109.37 42.03L109.44 41.94L109.36 41.86Q108.79 41.41 107.58 40.38L107.64 40.45L107.56 40.37Q109.61 38.00 109.61 33.47L109.53 33.39L109.61 33.47Q109.49 32.93 109.53 32.09L109.62 32.18L109.50 32.06Q109.52 31.20 109.52 30.79L109.54 30.81L109.63 30.90Q109.55 25.30 108.83 22.94L108.83 22.94L108.91 23.02Q108.51 21.71 107.63 20.64L107.67 20.68L107.67 20.68Q106.73 18.41 103.80 17.38ZM97.83 21.99L97.96 22.12L97.95 22.11Q101.94 21.96 103.77 23.56L103.87 23.65L103.70 23.48Q104.25 24.68 104.36 26.01L104.35 26.00L104.55 26.20Q104.53 27.36 104.45 28.73L104.37 28.65L104.47 28.74Q104.13 33.70 102.19 35.41L102.24 35.47L102.19 35.42Q100.97 34.19 98.45 31.45L98.35 31.35L98.37 31.36Q97.51 32.03 95.95 33.59L95.92 33.56L96.07 33.71Q96.52 34.19 97.66 35.37L97.70 35.42L97.67 35.50L97.61 35.44Q98.25 36.04 99.28 37.11L99.19 37.02L99.15 36.98Q98.31 37.39 95.98 37.70L95.96 37.68L95.45 37.70L95.04 37.70L95.05 37.75L94.96 37.67Q91.49 37.66 89.51 36.02L89.50 36.01L89.57 36.08Q88.60 34.04 88.63 30.92L88.48 30.77L88.51 30.80Q88.77 22.19 97.95 22.11Z"/></svg>