<svg xmlns="http://www.w3.org/2000/svg" width="150" height="50" viewBox="0,0,150,50"><path fill="#333" d="M122.10 40.29L121.98 40.17L122.08 40.27Q120.22 40.20 118.55 40.77L118.53 40.75L118.50 40.73Q118.97 37.05 119.09 33.93L119.09 33.93L119.02 33.86Q119.25 30.93 119.02 27.27L119.05 27.30L119.01 27.27Q117.52 26.80 116.76 26.42L116.72 26.38L116.46 23.50L116.49 23.53Q117.20 24.12 118.80 24.69L118.73 24.62L118.72 24.62Q118.63 22.62 118.21 19.87L118.25 19.92L118.24 19.91Q120.47 20.54 122.10 20.38L122.07 20.35L121.97 24.97L122.06 25.06Q123.33 24.85 124.67 24.35L124.75 24.44L124.65 24.34Q124.71 25.35 124.48 27.10L124.36 26.98L124.41 27.03Q122.89 27.37 121.86 27.37L121.88 27.39L121.81 27.32Q121.85 29.53 121.85 33.80L121.89 33.83L121.87 33.81Q122.01 38.11 122.09 40.28ZM125.03 23.73L125.04 23.74L125.13 23.83Q124.83 23.91 124.22 24.13L124.16 24.07L124.72 21.48L124.57 21.32Q123.88 21.74 122.47 21.97L122.50 22.00L122.37 21.86Q122.39 21.20 122.54 19.83L122.59 19.88L122.66 19.95Q121.93 19.90 121.36 19.90L121.36 19.90L121.29 19.84Q119.35 20.02 117.71 19.30L117.64 19.24L117.55 19.14Q118.04 21.61 118.30 24.08L118.34 24.12L118.30 24.08Q117.43 23.74 115.90 22.71L116.07 22.87L115.90 22.71Q116.31 24.06 116.53 26.77L116.58 26.81L116.60 26.84Q116.92 26.92 118.10 27.34L118.16 27.40L118.28 27.52Q118.14 27.99 118.18 29.40L118.24 29.46L118.71 29.59L118.81 29.62L118.69 29.49Q118.77 30.75 118.77 31.93L118.79 31.96L118.83 31.99Q118.71 36.82 117.91 41.16L117.91 41.17L117.99 41.24Q118.22 41.17 120.16 40.64L120.15 40.62L120.19 40.66Q120.13 41.25 120.01 42.62L120.09 42.70L119.98 42.58Q120.90 42.63 121.70 42.63L121.65 42.58L121.66 42.59Q123.44 42.65 125.07 43.22L125.02 43.17L125.00 43.15Q123.64 37.42 123.83 29.50L123.82 29.49L126.20 29.09L126.32 29.21Q126.39 28.29 126.47 27.26L126.32 27.12L126.57 25.16L126.51 25.09Q126.10 25.52 124.92 25.97L124.91 25.97L124.86 25.92Q125.21 24.63 125.14 24.29L125.13 24.29L125.08 24.24Q125.01 23.97 125.08 23.78Z"/><path fill="#222" d="M95.05 27.65L94.99 27.59L95.03 27.63Q92.88 27.72 91.60 29.22L91.63 29.25L91.47 29.09Q90.33 30.73 90.21 33.01L90.12 32.92L90.06 32.86Q90.04 35.62 90.88 36.57L90.89 36.58L90.90 36.59Q92.03 37.88 94.36 37.73L94.25 37.62L94.30 37.66Q98.92 37.34 99.30 34.33L99.21 34.24L99.36 34.39Q99.41 33.53 99.41 32.73L99.44 32.76L99.41 32.73Q99.42 30.76 98.28 29.24L98.16 29.12L98.28 29.24Q97.00 27.62 95.06 27.65ZM99.86 37.71L99.92 37.77L99.94 37.79Q98.45 39.91 94.07 40.14L94.01 40.08L94.05 40.12Q89.86 40.27 88.22 39.17L88.30 39.24L88.30 39.24Q87.27 38.25 87.11 36.54L87.03 36.45L87.04 36.46Q87.04 35.40 87.23 33.53L87.22 33.52L87.24 33.55Q87.78 29.28 89.00 27.46L89.01 27.46L89.04 27.49Q90.61 24.95 94.45 24.99L94.49 25.03L94.44 24.98Q96.92 24.99 99.21 27.31L99.36 27.46L99.32 27.42Q99.41 21.57 101.01 15.06L100.95 15.01L101.07 15.12Q102.79 14.53 104.66 13.69L104.76 13.79L104.69 13.72Q102.12 20.36 101.85 27.36L101.77 27.29L101.84 27.36Q101.48 34.46 103.61 41.04L103.72 41.15L103.67 41.11Q102.09 40.55 100.37 40.16L100.42 40.21L100.29 40.08Q100.08 38.88 99.92 37.77ZM102.95 43.23L103.00 43.28L102.91 43.19Q104.92 43.68 107.47 45.21L107.63 45.36L107.50 45.23Q103.82 38.20 103.66 29.90L103.70 29.94L103.64 29.88Q103.59 21.75 106.67 14.37L106.59 14.29L106.62 14.32Q105.91 14.75 104.46 15.40L104.60 15.53L104.49 15.43Q104.89 14.34 105.49 13.12L105.37 12.99L105.48 13.10Q103.11 14.19 100.67 14.77L100.69 14.78L100.57 14.66Q99.25 20.57 98.98 26.67L98.98 26.67L98.82 26.50Q96.98 24.75 94.47 24.63L94.38 24.54L94.51 24.67Q91.13 24.60 89.22 26.69L89.05 26.52L89.07 26.54Q87.38 28.93 86.97 33.61L86.96 33.61L87.10 33.74Q86.75 36.40 86.75 36.82L86.80 36.87L86.72 36.79Q86.90 38.64 88.04 39.71L88.01 39.68L87.96 39.63Q88.10 39.77 88.29 39.84L88.39 39.94L88.89 40.63L88.88 40.62Q89.73 41.86 92.70 42.12L92.80 42.22L92.78 42.20Q95.03 42.40 96.40 42.47L96.31 42.38L96.34 42.41Q100.54 42.61 102.25 41.28L102.21 41.24L102.22 41.25Q102.43 42.03 102.88 43.17ZM96.61 29.89L96.54 29.82L96.63 29.91Q97.67 29.92 98.51 30.42L98.58 30.50L98.44 30.35Q99.04 31.75 99.12 32.78L99.08 32.74L99.10 32.76Q99.31 36.89 94.28 37.23L94.38 37.33L94.26 37.21Q93.39 37.26 92.29 36.99L92.38 37.08L92.44 37.14Q92.07 36.39 91.99 35.86L92.00 35.86L92.15 36.02Q91.98 35.24 92.02 34.63L91.98 34.59L92.03 34.63Q92.42 31.30 95.05 30.31L95.04 30.31L94.95 30.21Q96.00 29.93 96.68 29.96Z"/><path fill="#111" d="M67.99 33.34L67.95 33.30L67.92 33.27Q67.80 36.13 66.62 40.77L66.58 40.73L66.56 40.71Q64.92 41.39 63.32 42.19L63.28 42.14L63.30 42.16Q65.91 35.15 65.65 27.72L65.66 27.74L65.56 27.64Q65.22 20.18 62.14 13.44L62.22 13.53L62.22 13.52Q64.25 14.87 66.12 15.44L66.10 15.42L65.96 15.28Q68.17 22.33 68.17 28.99L68.20 29.02L68.19 29.01Q68.21 30.48 68.13 31.96L68.14 31.97L68.07 31.90Q69.25 30.72 74.46 25.77L74.51 25.81L74.39 25.70Q75.61 25.81 76.60 25.74L76.57 25.70L78.58 25.47L78.65 25.54Q75.55 28.60 71.24 32.37L71.14 32.27L71.14 32.26Q74.58 35.10 81.05 40.92L80.98 40.85L80.93 40.80Q78.20 39.90 75.23 39.71L75.37 39.85L75.40 39.88Q72.90 37.80 68.03 33.38ZM77.84 42.47L77.85 42.48L77.77 42.40Q82.57 43.32 85.69 45.26L85.64 45.21L85.67 45.24Q84.50 43.95 81.87 41.55L81.93 41.61L81.88 41.56Q82.03 41.56 82.30 41.67L82.36 41.74L82.40 41.77Q80.28 39.73 78.03 37.83L77.94 37.73L73.61 33.93L73.54 33.87Q78.58 29.73 81.02 26.84L81.05 26.87L81.03 26.85Q79.79 26.91 77.32 27.18L77.38 27.23L77.25 27.11Q79.01 25.82 79.69 24.98L79.60 24.89L79.65 24.94Q76.72 25.28 74.25 25.28L74.36 25.40L74.35 25.39Q73.02 26.76 70.28 29.42L70.24 29.39L70.20 29.35Q70.20 23.56 69.21 17.73L69.20 17.72L69.17 17.69Q68.46 17.52 66.97 17.25L66.91 17.18L66.95 17.23Q66.82 16.52 66.36 15.04L66.45 15.12L66.29 14.97Q63.71 14.21 61.46 12.65L61.54 12.73L61.56 12.75Q64.99 19.57 65.34 27.68L65.23 27.57L65.25 27.60Q65.65 35.57 62.64 42.80L62.61 42.77L62.57 42.73Q63.35 42.52 64.69 41.88L64.55 41.74L64.64 41.83Q64.35 42.61 63.71 44.06L63.85 44.20L63.72 44.07Q66.50 42.93 68.63 42.55L68.76 42.67L68.65 42.56Q69.24 40.07 69.74 35.81L69.72 35.80L69.81 35.89Q72.37 38.11 77.82 42.45Z"/><path fill="#444" d="M45.63 27.56L45.74 27.67L45.78 27.71Q43.51 27.68 42.23 29.19L42.27 29.22L42.17 29.12Q40.97 30.70 40.85 32.98L40.74 32.87L40.81 32.95Q40.61 35.52 41.45 36.47L41.52 36.55L41.46 36.48Q42.68 37.86 45.01 37.71L44.93 37.63L45.06 37.76Q49.57 37.32 49.95 34.31L50.05 34.42L50.04 34.40Q50.10 33.55 50.10 32.75L50.11 32.76L50.00 32.65Q50.09 30.76 48.95 29.24L48.86 29.15L48.93 29.22Q47.69 27.64 45.75 27.68ZM50.51 37.69L50.63 37.81L50.61 37.79Q49.17 39.97 44.79 40.20L44.72 40.13L44.78 40.19Q40.49 40.23 38.85 39.13L38.87 39.15L38.93 39.21Q37.95 38.27 37.80 36.55L37.76 36.52L37.82 36.58Q37.68 35.37 37.87 33.51L37.95 33.59L37.97 33.60Q38.52 29.36 39.74 27.53L39.74 27.53L39.70 27.50Q41.31 24.99 45.16 25.03L45.21 25.08L45.15 25.02Q47.62 25.02 49.90 27.34L50.00 27.44L49.91 27.34Q50.07 21.57 51.67 15.06L51.59 14.98L51.66 15.05Q53.45 14.52 55.32 13.68L55.44 13.81L55.33 13.69Q52.79 20.37 52.52 27.37L52.51 27.36L52.49 27.33Q52.26 34.57 54.39 41.16L54.36 41.12L54.30 41.07Q52.70 40.49 50.99 40.11L50.95 40.07L51.03 40.16Q50.69 38.82 50.54 37.72ZM53.65 43.27L53.58 43.20L53.54 43.15Q55.61 43.70 58.16 45.23L58.19 45.26L58.20 45.27Q54.44 38.16 54.29 29.86L54.38 29.95L54.32 29.89Q54.32 21.82 57.41 14.44L57.25 14.28L57.37 14.40Q56.71 14.88 55.26 15.53L55.23 15.50L55.11 15.38Q55.62 14.40 56.23 13.18L56.04 12.99L56.11 13.07Q53.82 14.24 51.38 14.81L51.39 14.82L51.29 14.71Q49.91 20.57 49.64 26.66L49.58 26.60L49.55 26.57Q47.64 24.74 45.13 24.62L45.21 24.71L45.22 24.71Q41.70 24.50 39.79 26.59L39.87 26.67L39.88 26.68Q38.17 29.04 37.75 33.72L37.59 33.57L37.68 33.66Q37.37 36.35 37.37 36.77L37.33 36.73L37.47 36.88Q37.45 38.53 38.60 39.60L38.61 39.61L38.58 39.59Q38.84 39.84 39.03 39.92L39.03 39.92L39.57 40.64L39.44 40.51Q40.52 41.98 43.49 42.24L43.39 42.14L43.45 42.21Q45.58 42.28 46.95 42.35L47.12 42.53L46.95 42.35Q51.27 42.68 52.99 41.35L52.95 41.31L52.99 41.35Q53.18 42.12 53.64 43.26ZM47.32 29.93L47.24 29.85L47.27 29.89Q48.37 29.96 49.21 30.45L49.30 30.54L49.11 30.36Q49.68 31.72 49.76 32.75L49.80 32.80L49.74 32.74Q49.94 36.86 44.92 37.20L44.92 37.21L45.03 37.32Q44.07 37.27 42.97 37.00L43.01 37.04L42.95 36.99Q42.71 36.36 42.63 35.83L42.79 35.99L42.64 35.84Q42.60 35.19 42.64 34.58L42.78 34.72L42.75 34.69Q43.06 31.27 45.69 30.28L45.68 30.27L45.64 30.23Q46.54 29.81 47.23 29.84Z"/><path fill="#111" d="M22.62 41.39L22.50 41.28L22.56 41.34Q19.71 41.54 18.46 41.00L18.52 41.07L18.40 40.94Q16.54 40.23 16.62 37.76L16.67 37.81L16.66 37.79Q16.68 34.27 16.68 34.84L16.66 34.83L16.73 34.90Q16.66 29.50 13.80 24.66L13.82 24.68L13.82 24.68Q15.95 25.78 17.93 26.16L17.79 26.02L17.88 26.11Q19.46 30.59 19.35 35.08L19.37 35.10L19.52 35.25Q19.35 36.72 20.19 37.94L20.11 37.86L20.06 37.81Q20.95 39.12 22.47 38.93L22.62 39.07L22.89 38.85L22.91 38.87Q24.29 38.84 25.11 38.08L25.05 38.02L25.09 38.06Q25.92 37.31 25.92 36.36L25.95 36.39L25.98 36.42Q25.92 36.14 25.89 35.95L25.79 35.85L25.80 35.86Q25.77 30.65 26.91 26.31L26.94 26.34L26.86 26.26Q27.96 26.25 28.95 26.03L29.01 26.09L30.90 25.47L30.88 25.44Q28.34 30.48 28.65 36.04L28.64 36.03L28.67 36.06Q28.98 39.27 27.27 40.41L27.21 40.35L27.27 40.41Q26.00 41.31 22.68 41.46ZM24.88 43.74L24.86 43.72L24.99 43.84Q28.46 44.00 30.29 43.24L30.25 43.20L30.18 43.13Q31.05 42.32 31.05 40.92L31.08 40.95L31.15 41.02Q31.10 40.06 30.83 38.50L30.85 38.51L30.91 38.57Q30.47 35.46 30.85 32.45L30.73 32.34L30.75 32.36Q31.07 29.14 32.48 26.40L32.64 26.56L32.51 26.43Q31.95 26.82 30.62 27.24L30.64 27.27L30.58 27.20Q30.81 26.60 31.12 26.03L31.11 26.02L31.76 24.95L31.75 24.94Q29.70 25.48 26.54 25.98L26.60 26.04L26.61 26.05Q25.38 30.83 25.53 35.93L25.42 35.83L25.57 35.97Q25.55 37.97 22.89 38.47L22.99 38.57L22.52 38.55L22.50 38.69L21.41 38.40L21.50 38.49Q21.40 37.59 21.43 37.09L21.44 37.09L21.48 37.14Q21.61 32.55 20.93 28.13L20.92 28.13L19.91 28.02L19.81 27.93Q19.31 27.93 18.78 27.81L18.79 27.82L18.76 27.79Q18.40 26.40 18.13 25.64L18.11 25.62L18.20 25.71Q15.33 25.20 13.09 23.91L13.08 23.90L13.07 23.90Q15.35 27.54 16.07 30.93L15.93 30.78L15.93 30.78Q16.57 33.14 16.42 36.64L16.33 36.56L16.38 36.61Q16.39 36.73 16.31 37.83L16.33 37.85L16.35 37.87Q16.08 40.11 17.45 41.06L17.44 41.05L17.46 41.07Q17.95 43.43 24.96 43.81Z"/></svg>