<svg xmlns="http://www.w3.org/2000/svg" width="150" height="50" viewBox="0,0,150,50"><path fill="#111" d="M88.99 41.04L89.09 41.14L89.08 41.13Q92.15 36.78 98.85 28.86L99.00 29.00L98.86 28.87Q93.06 29.19 89.29 27.82L89.18 27.72L89.32 27.86Q88.52 26.29 87.76 24.88L87.70 24.83L87.75 24.88Q91.92 26.46 96.37 26.50L96.36 26.48L96.28 26.40Q100.82 26.53 105.01 25.46L104.94 25.39L104.96 25.41Q104.58 26.10 104.31 26.63L104.33 26.65L104.34 26.66Q101.84 28.91 99.02 32.53L99.06 32.57L94.17 38.79L94.17 38.80Q96.42 38.61 98.67 38.69L98.64 38.66L98.62 38.64Q100.74 38.63 102.99 39.01L102.93 38.95L102.90 38.92Q103.17 39.65 103.89 41.67L103.87 41.65L103.94 41.71Q100.04 40.71 96.05 40.82L96.21 40.99L96.22 41.00Q92.25 41.10 88.60 42.28L88.53 42.21L88.59 42.28Q88.54 42.00 89.00 41.05ZM87.90 42.77L88.04 42.91L87.98 42.84Q88.80 42.56 90.40 42.14L90.30 42.04L90.40 42.15Q90.03 42.24 89.61 42.65L89.68 42.72L89.68 42.72Q89.51 43.35 88.90 44.49L88.90 44.49L88.76 44.35Q93.49 43.03 98.48 43.18L98.48 43.18L98.59 43.29Q103.42 43.33 107.99 45.19L108.03 45.24L108.15 45.35Q106.52 43.31 105.61 41.25L105.66 41.30L105.71 41.35Q105.00 41.10 103.94 40.87L103.86 40.80L103.77 40.70Q103.75 40.16 103.37 38.71L103.33 38.67L103.36 38.70Q101.76 38.31 98.18 38.20L98.23 38.25L98.17 38.19Q100.63 34.94 105.66 28.58L105.64 28.57L105.58 28.51Q105.87 27.81 106.56 26.47L106.45 26.37L104.20 27.16L104.26 27.23Q104.37 27.18 104.52 27.06L104.41 26.95L104.60 26.76L104.70 26.87Q105.11 25.75 105.68 24.80L105.77 24.89L105.65 24.76Q100.95 26.09 96.23 26.01L96.37 26.15L96.37 26.15Q91.49 25.99 87.00 24.16L87.09 24.25L87.12 24.28Q88.17 26.02 88.97 28.08L89.02 28.13L89.05 28.16Q89.91 28.48 90.97 28.75L90.86 28.63L91.00 28.77Q91.08 29.35 91.39 30.80L91.33 30.74L91.47 30.88Q92.98 31.05 96.29 31.21L96.35 31.27L96.27 31.19Q93.99 34.62 88.81 41.05L88.76 41.00L88.66 40.90Q88.56 41.64 87.99 42.85Z"/><path fill="#333" d="M127.09 28.74L127.10 28.75L121.23 28.86L121.13 28.75Q118.11 28.71 115.18 28.63L115.31 28.76L115.22 28.67Q115.40 35.44 113.34 40.96L113.34 40.95L113.37 40.98Q111.43 41.37 109.68 42.05L109.68 42.04L109.73 42.10Q112.46 36.34 112.46 29.68L112.49 29.70L112.62 29.84Q112.51 21.23 108.39 14.19L108.37 14.17L108.37 14.17Q109.90 14.98 112.38 15.78L112.38 15.77L112.43 15.83Q114.52 20.85 115.06 25.73L115.16 25.83L115.14 25.81Q118.38 26.27 121.23 26.23L121.16 26.16L121.21 26.20Q123.77 26.11 127.09 25.84L127.02 25.78L127.10 25.86Q127.65 21.53 129.40 16.43L129.34 16.37L129.26 16.29Q131.22 15.88 133.46 15.05L133.59 15.17L133.60 15.18Q129.88 21.82 129.88 29.78L129.96 29.86L129.92 29.82Q129.86 35.97 132.23 41.30L132.32 41.39L132.32 41.39Q130.73 40.79 128.67 40.49L128.66 40.47L128.63 40.44Q126.90 35.37 127.02 28.67ZM128.24 40.66L128.24 40.67L128.37 40.79Q129.43 40.98 130.54 41.24L130.49 41.20L130.45 41.16Q130.80 41.89 131.44 43.37L131.47 43.40L131.50 43.43Q134.76 44.29 136.55 45.20L136.67 45.32L136.66 45.31Q132.07 39.01 131.77 30.75L131.87 30.85L131.94 30.92Q131.52 22.78 135.18 15.96L135.20 15.98L134.07 16.38L134.13 16.43Q133.70 16.73 133.09 16.89L132.95 16.75L132.96 16.75Q133.41 15.99 134.25 14.43L134.34 14.52L134.37 14.55Q131.55 15.42 128.92 15.91L128.96 15.95L129.07 16.06Q127.38 20.88 126.92 25.56L126.88 25.52L126.91 25.55Q124.46 25.80 122.02 25.80L121.92 25.69L121.97 25.75Q119.50 25.68 116.99 25.53L117.10 25.64L117.04 25.58Q116.85 22.34 115.75 18.27L115.64 18.16L115.64 18.17Q115.08 18.17 113.63 17.79L113.56 17.72L113.52 17.68Q113.09 16.42 112.64 15.39L112.80 15.55L112.80 15.55Q110.03 14.76 107.75 13.51L107.79 13.55L107.61 13.37Q112.34 20.96 112.34 29.75L112.35 29.75L112.27 29.68Q112.33 36.71 109.21 42.84L109.12 42.75L109.24 42.86Q109.82 42.46 111.15 41.89L111.26 42.00L111.23 41.96Q110.78 42.69 109.98 44.22L110.06 44.30L110.07 44.31Q112.93 43.36 115.17 42.94L115.15 42.91L115.09 42.85Q116.98 37.32 117.17 31.15L117.11 31.09L117.16 31.15Q118.87 31.18 122.07 31.14L121.88 30.96L121.89 30.97Q124.86 31.04 126.76 31.11L126.80 31.15L126.65 31.00Q127.08 36.91 128.41 40.83Z"/><path fill="#333" d="M71.31 19.69L71.25 19.62L71.30 19.67Q69.32 19.79 68.37 19.94L68.41 19.98L68.33 19.91Q66.76 20.19 65.54 20.73L65.46 20.65L65.41 20.60Q62.03 22.16 61.91 26.85L61.92 26.85L61.95 26.89Q61.87 29.54 62.52 32.47L62.37 32.33L62.55 32.51Q63.41 36.53 67.02 37.71L67.04 37.72L66.91 37.60Q68.84 38.19 70.28 38.04L70.36 38.11L70.79 38.09L70.64 37.93Q70.84 37.94 71.03 37.98L71.13 38.08L71.10 38.05Q71.32 38.12 71.47 38.08L71.38 37.99L71.49 38.10Q74.13 37.85 75.50 37.28L75.51 37.28L71.85 33.66L71.93 33.74Q72.17 33.34 72.78 32.73L72.74 32.69L73.79 31.91L73.71 31.83Q75.52 33.87 77.50 35.92L77.52 35.95L77.58 36.00Q79.92 34.20 80.19 28.83L80.17 28.81L80.03 28.67Q80.24 27.89 80.24 26.98L80.12 26.86L80.20 26.94Q80.21 21.28 75.15 20.17L75.12 20.14L75.14 20.17Q73.89 19.91 71.38 19.75ZM83.96 41.62L84.08 41.74L84.02 41.68Q83.48 42.17 82.30 43.04L82.27 43.01L77.91 39.38L77.90 39.37Q75.48 40.64 71.21 40.68L71.12 40.58L71.10 40.56Q64.50 40.63 61.69 38.38L61.71 38.41L61.85 38.55Q59.93 36.63 59.48 33.66L59.63 33.81L59.54 33.72Q59.30 31.88 58.92 28.30L58.98 28.37L59.05 28.44Q58.97 27.64 58.86 25.89L58.82 25.85L58.93 25.95Q58.75 24.37 58.79 23.50L58.67 23.38L58.81 23.52Q58.77 20.32 60.52 18.76L60.69 18.93L60.60 18.84Q62.03 17.41 65.23 16.92L65.23 16.92L65.38 17.07Q67.78 16.61 70.67 16.68L70.76 16.78L70.73 16.75Q78.09 16.72 81.21 19.08L81.40 19.27L81.34 19.20Q83.51 21.33 83.24 26.24L83.30 26.30L83.28 26.28Q82.98 29.83 82.79 31.16L82.79 31.16L82.91 31.29Q82.21 35.72 79.89 38.04L79.79 37.94L79.90 38.06Q81.38 39.31 84.12 41.79ZM79.21 17.46L79.18 17.42L79.19 17.43Q77.28 16.82 70.77 16.33L70.70 16.26L70.64 16.19Q69.39 16.35 66.61 16.47L66.57 16.43L66.62 16.48Q62.24 16.55 59.99 18.53L60.17 18.70L59.97 18.51Q58.38 20.04 58.38 23.20L58.37 23.19L58.45 23.27Q58.40 24.06 58.55 25.77L58.52 25.74L58.58 25.80Q58.69 27.47 58.69 28.34L58.76 28.42L58.71 28.36Q58.86 30.11 59.24 33.69L59.18 33.63L59.20 33.65Q59.65 36.61 61.25 38.67L61.11 38.53L61.14 38.56Q61.53 39.45 62.75 40.59L62.73 40.56L62.66 40.50Q65.55 42.67 70.73 42.94L70.62 42.82L70.67 42.88Q70.97 42.83 73.37 42.95L73.40 42.97L73.48 43.06Q78.24 43.17 80.53 42.11L80.39 41.97L80.42 42.00Q81.44 42.84 86.16 46.41L86.16 46.41L86.11 46.37Q86.60 45.71 87.90 44.72L87.95 44.77L88.00 44.82Q87.00 44.02 86.20 43.33L86.39 43.52L84.54 41.86L84.65 41.82L84.76 41.92Q84.23 41.52 83.02 40.49L82.91 40.38L83.01 40.48Q84.94 38.00 84.94 33.47L84.84 33.36L84.81 33.33Q84.85 32.96 84.89 32.12L84.96 32.19L84.95 32.18Q84.99 31.35 84.99 30.93L84.94 30.88L84.85 30.78Q84.96 25.38 84.24 23.02L84.21 22.99L84.28 23.06Q83.82 21.68 82.94 20.62L82.93 20.60L82.95 20.63Q82.14 18.48 79.20 17.45ZM73.21 22.04L73.26 22.09L73.29 22.12Q77.34 22.02 79.17 23.62L79.16 23.61L79.09 23.54Q79.62 24.72 79.74 26.06L79.83 26.14L79.78 26.10Q79.84 27.34 79.77 28.71L79.81 28.76L79.76 28.71Q79.41 33.65 77.47 35.36L77.50 35.39L77.49 35.38Q76.24 34.13 73.73 31.39L73.70 31.37L73.61 31.27Q72.83 32.01 71.26 33.57L71.30 33.60L71.25 33.55Q71.81 34.15 72.95 35.33L73.09 35.48L73.01 35.51L72.97 35.46Q73.48 35.93 74.50 37.00L74.50 37.00L74.51 37.01Q73.51 37.27 71.19 37.57L71.25 37.63L70.73 37.64L70.32 37.65L70.22 37.59L70.28 37.65Q66.79 37.62 64.81 35.99L64.81 35.98L64.81 35.99Q63.78 33.89 63.82 30.77L63.90 30.85L63.97 30.92Q64.10 22.18 73.27 22.10Z"/><path fill="#333" d="M39.64 41.02L39.73 41.11L39.70 41.08Q42.78 36.74 49.48 28.83L49.66 29.00L49.58 28.92Q43.77 29.24 40.00 27.87L39.85 27.72L39.91 27.78Q39.21 26.32 38.45 24.91L38.40 24.86L38.42 24.88Q42.62 26.49 47.07 26.53L47.01 26.47L47.00 26.45Q51.45 26.49 55.64 25.42L55.67 25.45L55.74 25.52Q55.24 26.09 54.97 26.62L54.94 26.59L55.08 26.73Q52.46 28.87 49.64 32.49L49.74 32.58L44.84 38.80L44.70 38.66Q47.06 38.58 49.30 38.66L49.19 38.54L49.28 38.63Q51.39 38.61 53.63 38.99L53.66 39.02L53.74 39.09Q53.74 39.55 54.46 41.57L54.62 41.72L54.51 41.62Q50.81 40.81 46.81 40.92L46.72 40.83L46.81 40.92Q42.91 41.09 39.25 42.27L39.10 42.12L39.16 42.18Q39.32 42.11 39.78 41.16ZM38.65 42.85L38.69 42.89L38.54 42.74Q39.38 42.47 40.98 42.06L41.09 42.17L41.02 42.10Q40.70 42.23 40.28 42.65L40.37 42.74L40.34 42.72Q40.13 43.31 39.53 44.45L39.47 44.39L39.50 44.42Q44.23 43.10 49.22 43.25L49.27 43.31L49.23 43.27Q54.11 43.35 58.68 45.22L58.67 45.21L58.64 45.18Q57.26 43.38 56.35 41.32L56.42 41.40L56.45 41.42Q55.63 41.06 54.56 40.83L54.48 40.75L54.55 40.82Q54.35 40.09 53.97 38.64L53.97 38.64L54.06 38.73Q52.38 38.27 48.80 38.16L48.94 38.29L48.86 38.22Q51.20 34.85 56.23 28.49L56.31 28.57L56.26 28.51Q56.41 27.68 57.10 26.35L57.20 26.46L55.00 27.30L54.81 27.11Q54.96 27.10 55.11 26.99L55.24 27.12L55.42 26.92L55.40 26.90Q55.84 25.82 56.41 24.87L56.30 24.75L56.40 24.85Q51.63 26.10 46.91 26.03L46.96 26.07L47.00 26.11Q42.15 25.99 37.66 24.16L37.76 24.26L37.68 24.17Q38.84 26.02 39.64 28.08L39.63 28.07L39.64 28.07Q40.47 28.38 41.54 28.65L41.68 28.78L41.50 28.60Q41.76 29.37 42.07 30.81L42.05 30.80L42.05 30.79Q43.68 31.09 46.99 31.25L47.08 31.33L47.07 31.32Q44.60 34.56 39.42 40.99L39.32 40.90L39.35 40.92Q39.26 41.67 38.68 42.88Z"/><path fill="#222" d="M13.74 14.40L13.60 14.26L13.67 14.33Q17.55 16.95 22.31 17.18L22.14 17.01L22.19 17.06Q26.79 17.21 31.06 15.46L31.07 15.47L30.99 15.40Q30.78 15.98 30.02 18.76L30.13 18.87L30.18 18.92Q27.42 19.93 24.45 20.08L24.37 20.00L24.45 20.08Q21.39 20.15 18.50 19.42L18.42 19.35L18.51 19.43Q19.26 23.11 19.45 26.77L19.32 26.64L19.44 26.76Q21.51 27.04 23.11 27.00L23.11 27.00L23.01 26.91Q24.30 26.97 26.70 26.86L26.65 26.81L26.68 26.85Q26.57 27.41 26.57 28.10L26.67 28.21L26.51 29.38L26.51 29.37Q24.16 29.42 19.36 29.50L19.41 29.55L19.31 29.44Q19.38 33.62 18.80 37.62L18.88 37.69L18.86 37.67Q21.50 37.04 24.24 37.15L24.29 37.20L24.16 37.07Q26.91 37.20 29.50 38.03L29.45 37.99L29.53 38.07Q29.48 38.74 29.74 39.50L29.76 39.52L30.33 41.15L30.24 41.06Q27.18 39.90 23.75 39.90L23.64 39.79L23.59 39.74Q18.87 39.89 14.61 42.14L14.55 42.08L14.54 42.08Q16.84 35.23 16.57 28.11L16.63 28.17L16.51 28.06Q16.35 21.01 13.69 14.35ZM14.07 42.82L14.12 42.87L14.07 42.82Q15.23 42.00 15.99 41.66L15.95 41.62L16.07 41.74Q15.89 42.51 15.32 44.03L15.26 43.97L15.28 43.99Q19.85 42.06 24.92 42.32L24.83 42.24L24.95 42.36Q30.09 42.63 34.09 45.33L34.12 45.36L34.01 45.25Q32.87 42.74 32.18 40.80L32.20 40.81L32.10 40.71Q31.10 40.10 30.11 39.76L30.22 39.86L30.26 39.90Q29.91 38.56 29.76 37.76L29.59 37.59L29.64 37.65Q26.66 36.76 23.50 36.76L23.37 36.62L23.34 36.60Q22.38 36.78 21.24 36.89L21.14 36.80L21.25 36.90Q21.17 35.46 21.21 34.24L21.34 34.37L21.38 31.82L21.34 31.78Q23.29 31.83 25.08 31.86L24.98 31.77L25.01 31.79Q26.73 31.73 28.52 31.88L28.68 32.04L28.68 32.04Q28.55 31.04 28.55 30.08L28.49 30.03L28.59 28.22L27.72 28.22L27.81 28.31Q27.31 28.31 26.85 28.31L26.84 28.30L26.81 28.27Q26.90 27.67 27.05 26.38L27.09 26.42L26.95 26.28Q25.38 26.53 24.19 26.56L24.21 26.58L24.20 26.57Q23.34 26.66 21.51 26.59L21.39 26.46L21.55 26.62Q21.40 25.14 21.21 22.32L21.12 22.23L21.25 22.36Q22.20 22.40 23.19 22.40L23.22 22.43L23.28 22.49Q27.89 22.38 31.59 20.48L31.62 20.52L31.68 20.58Q32.18 18.15 33.06 15.94L33.08 15.96L33.04 15.92Q31.69 16.74 30.85 17.08L30.89 17.12L30.95 17.18Q31.15 16.31 31.60 14.75L31.75 14.90L31.65 14.80Q27.06 16.98 22.18 16.67L22.18 16.67L22.19 16.68Q16.77 16.24 12.92 13.39L13.09 13.56L12.91 13.37Q15.99 20.53 16.29 28.14L16.11 27.96L16.10 27.95Q16.56 36.02 14.05 42.80Z"/></svg>