<svg xmlns="http://www.w3.org/2000/svg" width="150" height="50" viewBox="0,0,150,50"><path fill="#333" d="M46.64 40.28L46.58 40.22L44.16 33.35L44.17 33.36Q39.78 20.74 33.84 14.34L33.82 14.32L33.79 14.29Q35.79 15.34 38.38 15.95L38.49 16.06L38.39 15.96Q43.54 22.25 47.88 35.00L47.83 34.96L47.84 34.97Q50.94 26.91 51.62 25.31L51.64 25.33L51.70 25.39Q54.06 19.75 56.87 16.44L56.97 16.53L56.83 16.40Q58.86 15.99 61.49 15.11L61.52 15.14L61.54 15.17Q56.95 19.75 53.90 26.98L54.02 27.10L53.93 27.01Q52.55 30.69 48.85 40.21L48.81 40.16L48.90 40.25Q48.22 40.14 47.65 40.11L47.65 40.10L47.73 40.18Q47.22 40.25 46.65 40.28ZM51.54 42.58L51.55 42.60L51.59 42.63Q54.37 32.62 55.93 28.59L55.96 28.62L55.86 28.52Q58.85 20.81 63.26 15.94L63.26 15.93L63.31 15.98Q62.31 16.39 60.22 17.12L60.26 17.16L61.41 15.83L61.44 15.86Q61.84 15.01 62.45 14.36L62.54 14.45L62.47 14.38Q59.82 15.54 56.81 16.11L56.65 15.94L56.78 16.07Q52.25 21.25 48.36 32.71L48.46 32.80L48.45 32.80Q44.80 22.67 41.60 18.29L41.62 18.32L41.61 18.30Q41.21 18.21 40.33 18.06L40.37 18.09L40.25 17.98Q40.19 17.76 38.59 15.71L38.48 15.59L38.60 15.71Q35.50 14.86 32.79 13.45L32.84 13.50L32.84 13.49Q39.57 20.68 43.95 33.47L43.83 33.35L43.81 33.33Q45.17 37.13 46.35 40.71L46.33 40.69L46.22 40.58Q46.71 40.77 47.55 40.65L47.55 40.66L47.45 40.55Q47.74 41.18 48.42 42.52L48.55 42.64L48.42 42.51Q49.28 42.46 50.01 42.54L49.99 42.52L49.98 42.51Q50.80 42.61 51.57 42.61Z"/><path fill="#222" d="M120.43 29.19L120.40 29.17L120.30 29.07Q118.52 29.00 117.28 30.43L117.22 30.36L117.34 30.49Q116.00 31.81 115.81 33.71L115.84 33.75L115.88 33.78Q115.59 35.78 116.68 36.75L116.76 36.83L116.77 36.84Q117.84 37.79 119.93 37.68L119.98 37.73L119.98 37.73Q121.90 37.40 123.00 36.71L123.01 36.72L123.05 36.77Q124.23 35.70 124.23 34.14L124.30 34.21L124.22 34.13Q124.20 33.72 124.12 33.34L124.22 33.44L124.19 33.41Q124.28 31.75 123.17 30.40L123.07 30.29L123.12 30.34Q122.11 29.09 120.44 29.20ZM119.93 40.23L119.97 40.27L120.01 40.31Q115.62 40.30 114.21 39.54L114.22 39.55L114.20 39.53Q113.15 38.75 112.96 37.03L112.95 37.02L113.01 37.08Q112.97 36.40 113.01 35.67L112.92 35.59L113.00 35.66Q112.97 34.53 112.97 34.07L112.98 34.08L113.06 34.16Q113.46 31.25 113.62 30.57L113.73 30.68L113.58 30.53Q114.13 28.68 114.96 27.27L114.85 27.16L114.87 27.18Q117.63 22.90 123.57 16.54L123.54 16.51L123.46 16.43Q126.29 16.29 128.50 15.49L128.36 15.35L128.50 15.49Q121.55 22.86 118.35 27.08L118.38 27.10L118.35 27.08Q119.42 26.66 120.71 26.66L120.64 26.59L120.67 26.62Q124.03 26.67 125.55 28.61L125.41 28.46L125.48 28.53Q126.74 30.10 127.08 33.64L127.14 33.70L127.16 33.72Q127.30 34.51 127.30 35.12L127.20 35.01L127.19 35.01Q127.16 38.10 124.95 39.16L125.03 39.24L124.97 39.18Q123.77 39.81 119.89 40.19ZM122.12 42.54L122.13 42.54L122.13 42.55Q123.51 42.59 125.49 42.67L125.46 42.64L125.43 42.61Q127.03 42.65 128.59 41.93L128.78 42.12L128.78 42.11Q129.76 41.19 129.76 39.40L129.75 39.40L129.73 39.37Q129.70 38.85 129.53 37.86L129.62 37.95L129.62 37.95Q129.45 36.96 129.45 36.51L129.43 36.49L129.37 36.42Q128.63 31.84 127.03 29.94L126.91 29.81L127.07 29.97Q126.93 29.79 126.77 29.56L126.75 29.54L126.50 29.36L126.42 29.32L126.28 29.19Q126.06 28.81 125.45 27.86L125.38 27.79L125.38 27.79Q124.45 26.82 122.47 26.36L122.42 26.31L122.51 26.40Q123.76 24.84 126.73 21.15L126.64 21.05L130.90 15.80L130.85 15.75Q129.41 16.74 127.01 17.50L126.99 17.48L126.93 17.42Q127.92 16.51 129.71 14.53L129.76 14.58L129.58 14.40Q127.29 15.58 123.41 16.15L123.36 16.10L123.35 16.09Q117.74 22.09 114.77 27.04L114.61 26.88L114.77 27.04Q113.17 29.48 112.60 35.72L112.63 35.75L112.63 35.75Q112.47 36.24 112.55 37.19L112.65 37.29L112.55 37.19Q112.64 38.95 113.74 39.87L113.73 39.86L113.83 39.96Q114.26 40.16 114.23 40.20L114.19 40.17L114.24 40.21Q114.57 41.07 115.36 41.49L115.42 41.54L115.38 41.51Q116.76 42.12 118.70 42.31L118.67 42.28L118.70 42.32Q118.65 42.27 122.16 42.57ZM121.94 31.35L122.05 31.46L121.98 31.39Q122.53 31.26 123.49 31.76L123.55 31.83L123.58 31.85Q123.78 32.66 123.78 33.30L123.88 33.41L123.79 33.31Q124.13 35.33 123.18 36.32L122.99 36.14L123.01 36.16Q121.94 36.87 119.85 37.18L119.83 37.16L119.97 37.30Q118.49 37.27 117.96 37.00L117.85 36.90L118.01 37.06Q117.73 36.51 117.73 36.20L117.85 36.32L117.72 36.19Q117.61 33.04 120.54 31.75L120.52 31.72L120.44 31.64Q121.15 31.25 121.91 31.32Z"/><path fill="#222" d="M21.96 19.66L21.90 19.61L21.98 19.69Q19.90 19.70 18.95 19.85L19.00 19.91L18.97 19.88Q17.40 20.17 16.18 20.70L16.22 20.74L16.26 20.78Q12.75 22.22 12.64 26.90L12.62 26.88L12.57 26.84Q12.52 29.53 13.17 32.46L13.06 32.35L13.23 32.52Q14.07 36.53 17.69 37.71L17.54 37.56L17.53 37.54Q19.44 38.12 20.88 37.97L20.87 37.96L21.31 37.94L21.35 37.98Q21.66 38.09 21.85 38.13L21.73 38.01L21.84 38.12Q21.88 38.01 22.03 37.97L22.06 38.00L22.12 38.06Q24.65 37.70 26.03 37.13L26.04 37.15L22.43 33.58L22.53 33.67Q22.94 33.44 23.55 32.83L23.43 32.71L24.44 31.89L24.41 31.86Q26.21 33.89 28.19 35.94L28.13 35.89L28.10 35.86Q30.39 34.00 30.66 28.63L30.79 28.77L30.74 28.71Q30.86 27.84 30.86 26.93L30.77 26.84L30.81 26.88Q30.86 21.26 25.80 20.16L25.67 20.03L25.76 20.12Q24.48 19.82 21.97 19.67ZM34.66 41.65L34.74 41.74L34.70 41.69Q34.07 42.10 32.89 42.97L32.92 43.00L28.57 39.37L28.58 39.39Q25.98 40.47 21.71 40.51L21.83 40.63L21.75 40.54Q15.17 40.63 12.35 38.38L12.46 38.49L12.51 38.54Q10.62 36.65 10.16 33.68L10.17 33.69L10.28 33.79Q9.92 31.84 9.54 28.26L9.56 28.28L9.59 28.31Q9.56 27.56 9.45 25.81L9.42 25.78L9.53 25.89Q9.28 24.23 9.32 23.35L9.44 23.47L9.37 23.41Q9.54 20.42 11.29 18.86L11.18 18.75L11.33 18.90Q12.71 17.42 15.91 16.93L16.06 17.08L15.89 16.91Q18.50 16.66 21.39 16.74L21.45 16.79L21.30 16.65Q28.88 16.84 32.00 19.20L32.00 19.20L31.92 19.12Q34.18 21.34 33.91 26.25L33.94 26.27L33.87 26.21Q33.78 29.97 33.59 31.30L33.57 31.28L33.47 31.17Q32.78 35.62 30.45 37.94L30.46 37.95L30.53 38.02Q32.06 39.32 34.80 41.80ZM29.97 17.55L29.90 17.48L29.91 17.49Q27.95 16.82 21.44 16.33L21.38 16.27L21.38 16.27Q20.03 16.33 17.25 16.44L17.14 16.33L17.13 16.32Q12.91 16.56 10.67 18.54L10.78 18.65L10.73 18.60Q8.96 19.96 8.96 23.11L9.13 23.28L9.10 23.25Q9.08 24.07 9.24 25.79L9.27 25.82L9.30 25.85Q9.37 27.48 9.37 28.35L9.46 28.45L9.36 28.35Q9.57 30.15 9.95 33.73L9.97 33.76L9.97 33.75Q10.29 36.59 11.89 38.65L11.83 38.58L11.87 38.63Q12.27 39.52 13.49 40.66L13.40 40.57L13.44 40.61Q16.15 42.60 21.33 42.87L21.27 42.81L21.33 42.86Q21.61 42.80 24.00 42.92L24.02 42.93L24.11 43.02Q28.82 43.09 31.11 42.03L31.13 42.05L31.23 42.15Q31.97 42.70 36.69 46.28L36.69 46.28L36.75 46.34Q37.40 45.84 38.69 44.85L38.65 44.81L38.68 44.84Q37.68 44.03 36.88 43.35L36.87 43.33L35.22 41.88L35.35 41.85L35.36 41.86Q34.78 41.39 33.56 40.36L33.66 40.46L33.52 40.33Q35.55 37.93 35.55 33.40L35.50 33.36L35.55 33.41Q35.44 32.88 35.48 32.04L35.49 32.05L35.50 32.06Q35.68 31.37 35.68 30.95L35.62 30.89L35.56 30.83Q35.52 25.27 34.80 22.91L34.95 23.06L34.82 22.93Q34.44 21.64 33.57 20.58L33.66 20.66L33.61 20.62Q32.82 18.50 29.89 17.47ZM23.84 22.00L23.93 22.09L23.77 21.93Q27.97 21.98 29.79 23.58L29.85 23.64L29.78 23.57Q30.29 24.72 30.40 26.05L30.52 26.17L30.38 26.03Q30.61 27.44 30.53 28.81L30.45 28.72L30.40 28.67Q30.07 33.64 28.13 35.35L28.08 35.30L28.22 35.45Q26.80 34.02 24.28 31.28L24.42 31.41L24.30 31.29Q23.52 32.04 21.96 33.60L21.97 33.61L22.03 33.67Q22.61 34.28 23.75 35.46L23.65 35.37L23.71 35.54L23.62 35.45Q24.14 35.93 25.17 37.00L25.14 36.97L25.29 37.12Q24.29 37.38 21.97 37.68L21.98 37.69L21.47 37.72L21.00 37.67L20.97 37.67L20.90 37.60Q17.45 37.62 15.47 35.98L15.58 36.09L15.48 35.99Q14.52 33.97 14.56 30.85L14.45 30.73L14.50 30.79Q14.72 22.14 23.90 22.06Z"/><path fill="#444" d="M95.95 19.66L95.94 19.64L95.87 19.58Q94.02 19.82 93.06 19.97L93.01 19.91L93.00 19.90Q91.40 20.17 90.18 20.70L90.13 20.65L90.23 20.76Q86.60 22.07 86.49 26.76L86.64 26.90L86.47 26.74Q86.46 29.46 87.10 32.40L87.04 32.33L87.21 32.50Q88.04 36.49 91.65 37.67L91.54 37.55L91.66 37.68Q93.49 38.18 94.94 38.02L95.07 38.15L95.44 38.06L95.33 37.96Q95.50 37.94 95.69 37.98L95.79 38.08L95.76 38.04Q96.01 38.14 96.16 38.10L96.11 38.05L96.13 38.08Q98.71 37.75 100.08 37.18L100.09 37.20L96.43 33.57L96.54 33.69Q96.87 33.37 97.48 32.76L97.46 32.74L98.39 31.84L98.29 31.74Q100.29 33.97 102.27 36.02L102.14 35.90L102.07 35.83Q104.47 34.08 104.74 28.71L104.68 28.65L104.81 28.78Q104.78 27.76 104.78 26.85L104.90 26.97L104.89 26.96Q104.90 21.30 99.84 20.19L99.81 20.17L99.82 20.18Q98.43 19.78 95.92 19.62ZM108.81 41.81L108.63 41.63L108.68 41.67Q108.24 42.26 107.06 43.14L106.99 43.07L102.57 39.38L102.46 39.26Q100.04 40.53 95.77 40.57L95.89 40.69L95.76 40.55Q89.29 40.75 86.48 38.51L86.53 38.56L86.42 38.45Q84.71 36.74 84.25 33.77L84.13 33.64L84.11 33.63Q84.10 32.01 83.71 28.44L83.68 28.40L83.62 28.34Q83.62 27.62 83.51 25.87L83.43 25.79L83.54 25.90Q83.36 24.31 83.40 23.44L83.40 23.44L83.49 23.53Q83.61 20.49 85.36 18.93L85.23 18.79L85.35 18.92Q86.70 17.41 89.90 16.91L89.93 16.95L90.07 17.08Q92.40 16.57 95.30 16.64L95.37 16.71L95.27 16.62Q102.85 16.81 105.98 19.17L106.05 19.25L106.05 19.24Q108.07 21.23 107.80 26.14L107.93 26.27L107.82 26.16Q107.79 29.97 107.60 31.30L107.45 31.16L107.53 31.23Q106.95 35.79 104.63 38.12L104.54 38.03L104.51 38.00Q106.05 39.32 108.79 41.79ZM103.90 17.48L103.89 17.47L103.88 17.46Q101.84 16.71 95.33 16.22L95.45 16.34L95.39 16.28Q94.04 16.34 91.26 16.45L91.28 16.48L91.13 16.32Q86.98 16.62 84.73 18.60L84.77 18.64L84.75 18.62Q83.02 20.02 83.02 23.18L83.10 23.25L83.09 23.24Q83.14 24.13 83.29 25.84L83.25 25.80L83.30 25.85Q83.43 27.54 83.43 28.42L83.37 28.35L83.44 28.42Q83.46 30.05 83.84 33.62L83.92 33.70L83.83 33.61Q84.18 36.48 85.78 38.53L85.94 38.69L85.93 38.68Q86.17 39.41 87.38 40.56L87.46 40.64L87.48 40.65Q90.18 42.63 95.36 42.90L95.32 42.86L95.37 42.90Q95.62 42.82 98.02 42.93L98.05 42.96L98.14 43.05Q102.78 43.04 105.06 41.98L105.13 42.05L105.19 42.11Q106.06 42.78 110.78 46.36L110.78 46.37L110.71 46.29Q111.40 45.84 112.70 44.86L112.61 44.77L112.60 44.76Q111.74 44.08 110.94 43.40L110.90 43.37L109.31 41.96L109.34 41.84L109.41 41.91Q108.75 41.36 107.53 40.33L107.58 40.39L107.56 40.37Q109.52 37.91 109.52 33.38L109.43 33.29L109.60 33.45Q109.43 32.87 109.47 32.03L109.56 32.12L109.47 32.03Q109.64 31.32 109.64 30.91L109.58 30.85L109.58 30.85Q109.56 25.31 108.83 22.95L108.88 22.99L108.86 22.97Q108.40 21.60 107.53 20.54L107.63 20.64L107.70 20.71Q106.76 18.43 103.82 17.40ZM97.77 21.93L97.85 22.01L97.93 22.09Q101.87 21.88 103.69 23.48L103.72 23.50L103.83 23.62Q104.28 24.71 104.39 26.04L104.44 26.09L104.42 26.07Q104.49 27.32 104.42 28.69L104.53 28.81L104.55 28.82Q104.18 33.75 102.24 35.47L102.09 35.32L102.13 35.35Q100.90 34.13 98.39 31.38L98.40 31.39L98.46 31.45Q97.53 32.05 95.97 33.61L96.01 33.65L96.09 33.73Q96.64 34.32 97.79 35.50L97.70 35.42L97.62 35.45L97.72 35.55Q98.12 35.91 99.15 36.98L99.26 37.09L99.30 37.13Q98.17 37.26 95.85 37.56L95.96 37.67L95.31 37.55L94.95 37.62L94.94 37.65L95.06 37.76Q91.52 37.69 89.54 36.05L89.50 36.01L89.45 35.96Q88.49 33.93 88.52 30.81L88.47 30.75L88.58 30.86Q88.70 22.11 97.87 22.03Z"/><path fill="#444" d="M75.38 30.98L75.38 30.99L75.39 30.99Q75.24 29.74 73.30 29.02L73.23 28.95L73.21 28.93Q72.72 28.74 72.18 28.74L72.16 28.72L72.14 28.70Q70.86 28.79 69.79 29.36L69.77 29.34L69.72 29.29Q68.32 29.98 68.44 31.20L68.59 31.36L68.61 31.37Q68.77 34.01 68.62 36.26L68.61 36.25L68.76 36.40Q68.53 38.76 67.81 41.27L67.80 41.26L67.92 41.38Q65.62 41.71 64.44 42.12L64.55 42.24L64.43 42.11Q66.08 38.55 66.08 34.55L66.19 34.66L66.14 34.62Q66.21 29.24 63.62 24.79L63.43 24.60L63.54 24.70Q64.66 25.10 67.06 25.82L67.06 25.82L67.20 25.97Q67.54 26.73 67.92 28.25L67.90 28.23L67.86 28.18Q69.11 26.02 73.00 26.09L73.12 26.21L72.97 26.07Q74.48 26.12 75.27 26.24L75.38 26.34L75.40 26.36Q78.35 26.73 78.43 28.75L78.45 28.76L78.32 28.63Q78.45 29.64 78.26 30.67L78.26 30.66L78.31 30.72Q77.77 33.15 77.96 36.16L78.01 36.20L77.95 36.14Q78.05 38.94 79.04 41.49L79.01 41.47L79.13 41.59Q77.32 41.08 75.61 40.93L75.69 41.01L75.75 41.06Q75.20 38.61 75.12 35.94L75.19 36.02L75.05 35.88Q75.06 33.21 75.28 30.89ZM75.36 41.39L75.32 41.36L75.36 41.40Q76.01 41.24 77.30 41.47L77.43 41.60L77.73 42.59L77.79 42.65Q78.01 43.17 78.24 43.71L78.22 43.68L78.26 43.72Q80.57 44.17 83.27 45.35L83.13 45.20L83.18 45.26Q80.89 42.20 80.20 38.40L80.12 38.31L80.09 38.29Q79.71 36.12 79.82 32.42L79.82 32.42L79.87 32.47Q79.91 32.20 79.95 31.40L79.86 31.32L79.97 31.42Q80.08 30.85 80.00 30.35L79.85 30.20L79.90 30.25Q79.89 28.68 78.79 28.19L78.73 28.13L78.65 28.05Q78.59 27.31 77.83 26.70L77.76 26.63L77.83 26.70Q76.06 25.62 73.02 25.69L73.03 25.70L73.01 25.69Q71.18 25.76 70.35 25.95L70.43 26.04L70.40 26.00Q68.96 26.36 68.01 27.27L67.96 27.22L67.91 27.17Q67.88 26.72 67.50 25.69L67.55 25.75L67.51 25.71Q64.59 24.92 62.76 23.93L62.89 24.05L62.89 24.05Q65.90 28.89 65.90 34.64L65.75 34.50L65.82 34.56Q65.88 39.00 63.98 42.84L63.90 42.77L63.97 42.83Q64.55 42.43 65.85 42.05L66.00 42.20L66.02 42.22Q65.39 43.34 64.86 44.33L64.84 44.32L64.87 44.34Q66.23 43.84 69.77 43.27L69.90 43.40L69.89 43.39Q70.92 38.29 70.81 33.46L70.71 33.36L70.73 33.38Q70.65 32.50 71.83 31.78L71.89 31.83L71.92 31.87Q72.93 31.20 74.03 31.08L73.98 31.03L74.07 31.12Q74.55 31.11 74.97 31.30L74.93 31.26L74.79 31.12Q74.76 33.79 74.79 36.34L74.72 36.27L74.81 36.36Q74.86 38.88 75.36 41.39Z"/></svg>