<svg xmlns="http://www.w3.org/2000/svg" width="150" height="50" viewBox="0,0,150,50"><path fill="#111" d="M90.03 49.68L89.95 49.60L89.97 49.61Q92.89 45.76 95.79 39.56L95.69 39.46L95.82 39.59Q92.58 32.92 86.49 24.85L86.62 24.99L86.62 24.99Q88.47 26.08 91.25 26.72L91.32 26.79L91.16 26.63Q94.71 31.32 97.14 36.53L97.17 36.56L97.25 36.64Q99.46 31.39 102.55 26.98L102.49 26.92L102.46 26.89Q104.61 26.49 106.70 25.69L106.84 25.83L106.74 25.73Q103.45 29.67 99.98 37.09L99.79 36.90L96.99 42.93L97.01 42.95Q95.70 46.20 93.94 48.83L93.81 48.70L93.94 48.83Q91.41 49.07 89.96 49.61ZM96.19 50.99L96.22 51.03L96.24 51.05Q97.81 48.01 99.26 44.74L99.30 44.78L102.09 38.51L102.11 38.53Q105.60 30.49 108.92 26.49L108.95 26.53L108.92 26.50Q107.47 27.06 105.57 27.75L105.68 27.87L106.59 26.34L106.69 26.44Q107.26 25.76 107.87 25.07L107.75 24.94L107.85 25.04Q105.17 26.09 102.31 26.55L102.34 26.57L102.27 26.51Q99.60 30.50 97.66 34.96L97.53 34.83L97.65 34.95Q95.91 31.54 94.13 28.72L94.25 28.84L94.18 28.77Q93.91 28.69 93.55 28.65L93.64 28.75L93.69 28.80Q93.24 28.67 93.05 28.67L93.10 28.73L93.05 28.67Q92.23 27.36 91.28 26.21L91.27 26.20L91.30 26.24Q88.22 25.66 85.47 23.95L85.50 23.98L85.47 23.95Q91.64 31.87 95.33 39.48L95.45 39.60L95.32 39.47Q93.21 44.59 89.14 50.23L89.11 50.20L89.08 50.17Q89.99 49.98 90.79 49.83L90.88 49.91L92.36 49.42L92.43 49.48Q91.77 50.16 90.59 51.80L90.59 51.80L90.65 51.86Q92.97 51.28 96.25 51.06Z"/><path fill="#444" d="M80.37 41.48L80.40 41.50L80.54 41.65Q78.29 41.11 76.12 40.95L76.18 41.02L76.09 40.93Q74.70 39.54 72.03 35.69L72.08 35.74L72.10 35.76Q69.79 38.74 67.39 41.18L67.53 41.32L65.43 41.69L65.37 41.63Q64.25 41.77 63.26 42.04L63.25 42.03L63.38 42.15Q67.52 38.00 70.53 33.89L70.54 33.89L70.58 33.93Q67.22 29.66 61.81 24.86L61.85 24.90L61.77 24.81Q63.99 25.56 66.70 25.98L66.81 26.09L66.76 26.04Q70.29 29.23 72.20 31.93L72.15 31.89L72.16 31.90Q74.19 28.75 76.93 26.24L77.04 26.35L77.07 26.38Q80.04 25.95 81.86 25.46L81.83 25.43L81.86 25.45Q77.39 29.17 73.70 33.74L73.60 33.64L73.66 33.70Q77.08 38.42 80.54 41.65ZM83.39 24.78L83.24 24.63L83.34 24.73Q80.38 25.50 76.84 25.85L76.86 25.86L76.91 25.92Q73.95 28.51 72.23 30.98L72.28 31.03L72.26 31.01Q71.34 29.94 69.71 27.96L69.85 28.11L69.66 28.11L69.55 27.99Q69.33 27.89 69.22 27.89L69.28 27.95L69.21 27.88Q68.53 27.12 66.89 25.68L66.90 25.68L66.86 25.64Q63.24 25.07 60.38 23.85L60.43 23.90L60.56 24.03Q66.01 28.76 70.05 33.90L69.93 33.78L70.02 33.87Q66.63 38.48 62.22 42.78L62.17 42.73L62.23 42.79Q62.43 42.65 65.93 41.81L65.95 41.83L66.03 41.91Q64.54 43.27 62.90 44.60L62.82 44.52L62.79 44.50Q66.05 43.64 69.21 43.45L69.17 43.42L69.23 43.47Q71.57 41.16 73.47 38.42L73.40 38.36L73.57 38.52Q74.90 40.20 76.12 41.38L76.13 41.39L76.07 41.33Q76.13 41.27 76.21 41.35L76.35 41.49L76.42 41.37L76.45 41.41Q77.81 42.61 79.14 43.68L79.06 43.59L79.05 43.58Q82.73 44.22 85.62 45.25L85.61 45.23L85.62 45.24Q79.45 40.78 75.76 35.61L75.64 35.49L75.73 35.58Q79.44 30.61 84.01 26.54L83.97 26.50L83.86 26.38Q83.05 26.87 82.06 27.10L81.95 26.99L79.96 27.48L80.05 27.57Q81.08 26.50 83.25 24.64Z"/><path fill="#222" d="M18.42 40.30L18.52 40.40L18.40 40.28Q17.06 40.43 15.50 40.01L15.55 40.06L15.59 40.09Q14.33 39.15 14.18 37.51L14.10 37.43L14.22 37.55Q14.06 37.24 14.25 34.61L14.23 34.59L14.35 34.71Q15.31 34.45 17.33 34.07L17.40 34.14L17.14 34.83L17.16 34.86Q16.80 36.51 18.21 37.08L18.18 37.05L18.23 37.10Q19.07 37.49 21.17 37.49L21.22 37.54L21.11 37.43Q22.67 37.24 22.86 37.17L22.92 37.22L22.98 37.28Q23.82 37.06 24.55 36.57L24.54 36.56L24.51 36.53Q26.07 35.73 25.88 33.64L25.72 33.48L25.90 33.66Q25.55 31.06 23.82 29.50L23.84 29.52L23.90 29.58Q22.17 28.02 19.69 28.02L19.76 28.09L19.64 27.74L19.58 27.68Q20.12 27.80 21.00 27.73L20.85 27.58L20.92 27.64Q22.80 27.51 24.17 26.27L24.17 26.27L24.17 26.28Q25.51 25.01 25.66 23.14L25.65 23.13L25.83 23.31Q25.84 22.90 25.84 22.56L25.91 22.62L25.90 22.62Q25.83 21.02 24.46 20.11L24.44 20.09L24.47 20.12Q23.13 19.20 21.53 19.32L21.53 19.31L21.67 19.45Q20.33 19.26 19.11 19.68L19.12 19.69L19.08 19.65Q17.64 20.18 17.34 21.32L17.27 21.26L17.32 21.31Q17.25 22.19 17.32 22.95L17.16 22.78L17.22 22.85Q16.17 22.60 14.12 21.87L14.13 21.89L14.16 21.92Q13.90 20.21 13.94 19.37L13.95 19.39L13.89 19.33Q14.10 17.89 15.16 17.21L15.15 17.20L15.11 17.16Q16.59 16.61 18.18 16.61L18.19 16.62L18.08 16.51Q21.39 16.62 24.55 16.89L24.45 16.79L24.45 16.79Q29.53 17.22 29.22 20.99L29.28 21.05L29.23 20.99Q29.12 22.45 28.62 24.01L28.76 24.14L28.76 24.15Q27.67 27.05 25.31 27.97L25.32 27.98L25.36 28.02Q28.08 28.64 28.69 31.99L28.71 32.01L28.54 31.84Q28.88 33.10 28.96 35.11L28.99 35.15L28.95 35.11Q29.12 39.58 24.51 40.04L24.46 39.98L24.49 40.01Q23.78 40.10 18.49 40.37ZM23.71 42.62L23.63 42.54L23.68 42.60Q24.38 42.72 27.23 42.79L27.20 42.77L27.07 42.64Q28.97 42.86 30.61 42.21L30.61 42.21L30.50 42.10Q31.79 41.26 31.60 39.51L31.52 39.43L31.58 39.49Q31.43 38.12 31.13 36.37L31.06 36.30L31.18 36.43Q30.44 31.91 28.50 30.28L28.46 30.24L28.31 29.90L28.21 29.76L28.21 29.76Q29.92 28.28 30.68 23.90L30.73 23.95L30.66 23.87Q30.72 23.44 30.83 22.49L30.95 22.60L30.94 22.59Q30.99 21.81 30.91 21.12L30.81 21.02L30.92 21.13Q30.67 19.35 29.37 18.66L29.37 18.66L29.39 18.76L29.37 18.74Q29.07 17.76 27.93 17.22L27.88 17.17L27.93 17.22Q26.29 16.42 21.15 16.11L21.31 16.28L21.14 16.11Q19.49 16.06 17.89 16.06L17.93 16.10L18.07 16.23Q16.34 16.10 14.82 16.75L14.86 16.79L14.79 16.72Q13.65 17.56 13.65 19.32L13.69 19.35L13.56 19.22Q13.69 18.93 13.95 22.28L13.92 22.25L13.96 22.29Q14.16 22.26 15.80 22.87L15.82 22.89L15.84 22.91Q15.86 23.47 15.82 23.96L15.70 23.84L15.82 23.96Q15.79 24.42 15.83 24.96L15.78 24.91L15.75 24.87Q17.60 25.32 19.62 25.44L19.70 25.51L19.68 25.50Q19.57 23.45 20.68 22.61L20.72 22.65L20.69 22.62Q21.47 21.92 23.49 21.69L23.60 21.80L23.44 21.64Q24.60 21.66 25.18 21.85L25.23 21.91L25.23 21.91Q25.34 22.10 25.38 22.21L25.26 22.09L25.34 22.36L25.40 22.87L25.52 23.00Q25.37 23.04 25.33 23.19L25.38 23.23L25.30 23.16Q25.27 24.92 23.75 26.10L23.78 26.13L23.85 26.21Q22.93 27.11 20.92 27.30L20.93 27.31L20.76 27.15Q20.20 27.46 19.32 27.46L19.36 27.50L19.24 27.38Q19.39 27.84 19.55 28.52L19.41 28.39L19.42 28.39Q21.20 28.42 22.64 29.15L22.64 29.14L22.59 29.20L20.97 29.33L21.05 29.42Q21.00 29.67 21.11 30.28L21.09 30.26L21.10 30.27Q23.19 30.15 24.91 31.48L25.05 31.63L25.05 31.62Q25.15 31.88 25.45 33.52L25.56 33.62L25.59 33.65Q25.63 36.44 22.70 36.86L22.79 36.94L22.76 36.92Q20.62 37.13 20.05 37.09L20.14 37.18L20.12 37.16Q19.60 36.98 19.06 36.91L19.18 37.02L19.03 36.42L19.13 35.95L19.24 35.64L19.38 35.44L19.26 35.31Q18.28 35.37 17.48 35.56L17.63 35.71L17.64 35.71Q17.59 35.47 17.59 35.28L17.57 35.27L17.55 35.24Q17.57 35.03 17.57 34.80L17.46 34.69L17.59 34.83Q17.52 34.30 17.68 33.58L17.74 33.65L17.77 33.68Q15.86 33.85 13.99 34.20L13.98 34.19L14.01 34.21Q14.06 34.76 13.95 35.89L13.86 35.80L13.99 35.93Q13.83 37.00 13.83 37.61L13.84 37.62L13.84 37.63Q13.76 39.52 15.13 40.28L15.25 40.40L15.24 40.40Q16.68 42.63 21.40 42.44L21.45 42.49L21.45 42.49Q22.24 42.53 23.77 42.68Z"/><path fill="#111" d="M129.20 30.41L129.07 30.28L129.11 30.32Q129.33 30.04 129.29 29.62L129.16 29.49L129.14 29.47Q129.03 29.06 128.73 28.87L128.85 29.00L128.89 29.04Q128.10 28.40 127.23 28.55L127.18 28.50L127.29 28.61Q126.08 28.47 124.44 29.57L124.58 29.71L124.57 29.70Q123.06 30.51 123.06 31.69L123.12 31.76L123.20 31.83Q123.18 33.07 123.18 36.38L123.17 36.37L123.14 36.34Q123.02 38.81 123.17 40.83L123.19 40.85L123.32 40.97Q121.57 40.94 121.57 40.94L121.48 40.85L121.48 40.85Q120.43 40.76 119.71 40.83L119.77 40.89L119.71 40.83Q120.17 38.36 120.25 36.12L120.19 36.06L120.21 36.07Q120.44 31.51 119.80 30.22L119.87 30.29L119.74 30.16Q119.46 29.58 118.89 29.28L118.92 29.31L119.05 29.44Q118.04 28.54 116.48 28.42L116.66 28.60L116.55 28.49Q114.62 28.35 114.08 29.95L114.08 29.95L114.02 29.89Q113.78 30.30 113.90 30.79L114.04 30.93L113.93 30.83Q114.64 33.63 114.30 36.41L114.19 36.30L114.37 36.48Q114.04 39.27 112.63 41.71L112.59 41.66L112.57 41.65Q111.59 41.85 109.50 42.27L109.53 42.30L109.43 42.20Q112.02 39.04 112.02 34.74L112.03 34.75L111.97 34.69Q112.03 28.89 107.99 24.66L107.93 24.60L107.98 24.65Q108.77 24.97 109.72 25.20L109.65 25.13L111.36 25.51L111.38 25.54Q111.87 26.18 112.75 27.86L112.72 27.82L112.81 27.91Q112.95 26.00 115.39 25.96L115.40 25.97L115.30 25.88Q115.49 25.87 116.48 25.95L116.44 25.91L116.46 25.94Q121.41 26.20 122.56 29.02L122.51 28.98L122.63 29.09Q124.28 26.36 129.30 25.83L129.37 25.90L129.24 25.76Q130.00 25.66 130.88 25.77L130.96 25.85L131.02 25.91Q133.15 26.03 133.00 27.59L133.03 27.62L133.04 27.62Q132.83 28.14 132.56 28.90L132.75 29.09L132.67 29.01Q131.33 32.09 131.56 35.63L131.44 35.50L131.47 35.54Q131.75 39.09 133.65 41.91L133.50 41.75L133.49 41.75Q131.86 41.44 130.03 41.22L130.09 41.28L129.98 41.16Q128.87 38.72 128.68 35.94L128.61 35.87L128.71 35.97Q128.42 33.02 129.06 30.27ZM129.76 41.55L129.79 41.58L129.94 41.73Q130.60 41.75 131.93 41.94L131.95 41.96L131.95 41.95Q132.35 42.54 133.49 43.95L133.50 43.96L133.64 44.10Q136.44 44.54 138.53 45.19L138.61 45.27L138.53 45.19Q133.66 41.41 133.39 34.90L133.26 34.77L133.30 34.81Q133.22 32.72 133.83 30.81L133.91 30.89L133.79 30.77Q134.02 29.90 134.02 29.18L134.05 29.21L134.06 29.22Q134.02 28.26 133.41 27.69L133.38 27.66L133.41 27.65L133.50 27.74Q133.54 27.21 133.47 26.72L133.49 26.74L133.39 26.64Q133.27 26.10 132.81 25.84L132.81 25.83L132.87 25.89Q132.13 25.35 131.26 25.31L131.23 25.28L131.22 25.27Q128.41 25.21 125.75 26.16L125.86 26.27L125.82 26.23Q123.84 26.91 122.66 28.32L122.57 28.24L122.57 28.23Q121.10 25.85 116.26 25.51L116.33 25.57L116.26 25.51Q115.62 25.51 115.20 25.51L115.07 25.38L115.20 25.51Q113.17 25.54 112.56 26.79L112.51 26.74L112.58 26.81Q112.09 26.13 111.41 25.07L111.49 25.15L111.49 25.15Q108.92 24.52 106.94 23.87L107.13 24.07L107.03 23.96Q111.63 28.30 111.63 34.58L111.62 34.57L111.60 34.55Q111.60 39.27 108.74 42.73L108.82 42.81L108.79 42.78Q109.22 42.60 109.72 42.53L109.82 42.62L110.83 42.49L110.67 42.34Q110.07 43.49 108.97 44.71L108.96 44.70L108.92 44.66Q110.57 44.36 113.69 43.76L113.70 43.77L113.77 43.84Q116.40 39.69 116.40 34.78L116.28 34.66L116.34 34.71Q116.40 33.98 116.32 33.14L116.38 33.20L116.28 33.10Q116.27 32.40 117.26 31.60L117.30 31.64L117.26 31.65L117.28 31.67Q117.71 31.02 118.89 30.91L119.01 31.03L118.91 30.93Q119.54 31.15 119.85 31.15L119.71 31.01L119.77 31.26L119.74 31.23Q119.96 33.89 119.85 36.25L120.03 36.43L119.89 36.29Q119.80 38.60 119.31 41.27L119.31 41.26L119.24 41.20Q120.46 41.39 120.46 41.39L120.41 41.34L120.33 41.26Q121.74 41.23 121.40 41.23L121.43 41.25L121.35 41.18Q121.49 41.81 121.45 42.26L121.50 42.32L121.39 42.21Q121.42 42.73 121.42 43.22L121.48 43.28L123.84 43.17L123.81 43.14Q125.20 43.28 126.46 43.35L126.38 43.28L126.43 43.33Q124.87 39.60 125.06 33.66L125.00 33.60L125.00 33.59Q124.99 32.44 126.17 31.68L126.27 31.78L126.30 31.81Q127.27 31.06 128.52 30.87L128.53 30.88L128.72 30.77L128.66 30.71Q128.40 32.80 128.40 34.78L128.28 34.67L128.35 34.74Q128.31 38.47 129.83 41.63ZM124.31 30.09L124.57 30.12L124.30 30.19L124.46 30.24Z"/><path fill="#444" d="M50.79 30.97L50.78 30.96L50.78 30.96Q50.89 29.54 50.07 28.63L49.94 28.50L49.97 28.53Q49.20 27.67 47.75 27.70L47.66 27.61L47.77 27.72Q45.49 27.84 44.65 29.97L44.50 29.81L44.65 29.97Q44.39 30.77 44.35 31.45L44.18 31.29L44.19 31.30Q44.05 36.22 43.14 40.56L43.08 40.51L43.17 40.60Q41.53 41.16 39.67 42.15L39.50 41.98L39.48 41.97Q41.77 35.01 41.50 27.70L41.56 27.75L41.66 27.86Q41.29 20.40 38.74 13.59L38.65 13.50L38.63 13.48Q40.52 14.91 42.54 15.59L42.50 15.56L42.59 15.64Q43.97 21.37 44.16 27.23L44.16 27.23L44.19 27.26Q45.59 25.19 48.29 25.27L48.32 25.30L48.28 25.26Q53.29 25.29 53.41 30.66L53.37 30.62L53.42 30.67Q53.69 36.49 55.06 41.14L54.89 40.97L54.95 41.02Q53.10 40.20 51.35 40.01L51.29 39.95L51.30 39.96Q50.86 36.78 50.74 30.92ZM51.02 40.33L51.12 40.44L51.08 40.39Q52.10 40.50 53.20 40.77L53.22 40.79L53.28 40.85Q53.24 40.92 53.78 42.90L53.69 42.81L53.82 42.95Q56.66 43.77 58.68 45.21L58.71 45.24L58.85 45.38Q56.08 39.53 55.55 33.21L55.48 33.15L55.44 33.11Q55.22 29.50 53.81 27.93L53.79 27.91L53.86 27.98Q53.83 27.87 53.18 27.42L53.10 27.34L53.14 27.38Q52.87 26.84 52.22 26.08L52.21 26.07L52.19 25.97L52.20 25.99Q51.37 25.16 48.25 24.89L48.28 24.92L48.26 24.89Q47.54 24.90 46.14 25.25L46.08 25.20L46.12 25.23Q45.85 20.32 45.51 17.81L45.61 17.91L45.59 17.89Q44.82 17.77 43.34 17.46L43.26 17.39L43.35 17.47Q43.12 16.67 42.85 15.19L42.84 15.18L43.01 15.35Q39.93 14.25 38.06 12.68L38.09 12.71L38.05 12.67Q41.08 19.89 41.35 27.69L41.19 27.53L41.30 27.65Q41.53 35.38 38.98 42.73L39.09 42.83L38.97 42.71Q40.03 42.25 41.17 41.75L41.02 41.60L40.41 44.00L40.29 43.88Q43.49 42.62 45.47 42.43L45.38 42.35L45.56 42.52Q46.13 37.12 46.32 33.16L46.32 33.16L46.27 33.11Q46.44 31.34 48.38 30.24L48.21 30.06L48.23 30.09Q48.73 29.82 49.26 29.86L49.36 29.96L49.41 30.01Q49.51 29.95 49.85 29.99L49.81 29.95L50.24 30.04L50.26 30.05Q50.20 30.38 50.31 30.83L50.42 30.94L50.40 30.92Q50.51 36.89 51.00 40.32Z"/></svg>