<svg xmlns="http://www.w3.org/2000/svg" width="150" height="50" viewBox="0,0,150,50"><path fill="#333" d="M102.40 28.72L102.33 28.64L96.52 28.81L96.56 28.85Q93.50 28.76 90.57 28.69L90.67 28.79L90.63 28.74Q90.83 35.53 88.77 41.05L88.59 40.87L88.58 40.86Q86.76 41.36 85.01 42.04L85.07 42.10L85.18 42.21Q87.96 36.51 87.96 29.84L87.90 29.79L87.88 29.76Q87.80 21.20 83.69 14.15L83.74 14.20L83.79 14.25Q85.33 15.07 87.81 15.87L87.85 15.92L87.82 15.88Q89.91 20.91 90.44 25.78L90.45 25.79L90.51 25.84Q93.68 26.24 96.54 26.20L96.51 26.18L96.44 26.10Q99.10 26.10 102.41 25.83L102.44 25.86L102.46 25.88Q102.83 21.38 104.58 16.28L104.61 16.30L104.60 16.30Q106.53 15.86 108.77 15.03L108.77 15.02L108.89 15.15Q105.16 21.77 105.16 29.73L105.21 29.78L105.24 29.81Q105.20 35.97 107.56 41.30L107.52 41.26L107.52 41.26Q106.02 40.75 103.96 40.44L104.00 40.48L103.91 40.39Q102.28 35.41 102.40 28.71ZM103.59 40.68L103.73 40.81L103.59 40.68Q104.74 40.95 105.85 41.22L105.83 41.20L105.90 41.27Q106.14 41.90 106.79 43.38L106.89 43.48L106.87 43.46Q110.10 44.30 111.89 45.21L111.89 45.20L111.96 45.28Q107.57 39.18 107.27 30.92L107.18 30.82L107.22 30.87Q106.90 22.83 110.56 16.01L110.53 15.98L109.46 16.44L109.44 16.42Q109.00 16.69 108.39 16.85L108.41 16.87L108.37 16.83Q108.76 16.00 109.60 14.44L109.59 14.43L109.57 14.41Q106.95 15.48 104.32 15.98L104.31 15.97L104.42 16.07Q102.63 20.80 102.17 25.48L102.26 25.56L102.18 25.49Q99.64 25.65 97.20 25.65L97.28 25.72L97.35 25.80Q94.78 25.63 92.27 25.47L92.31 25.51L92.41 25.62Q92.24 22.40 91.13 18.32L91.05 18.24L91.05 18.24Q90.36 18.12 88.91 17.74L88.95 17.78L88.93 17.76Q88.62 16.61 88.16 15.58L88.08 15.50L88.06 15.48Q85.26 14.65 82.97 13.40L83.03 13.45L82.99 13.41Q87.68 20.96 87.68 29.75L87.56 29.64L87.51 29.59Q87.54 36.58 84.42 42.71L84.40 42.69L84.46 42.75Q85.25 42.55 86.58 41.98L86.57 41.97L86.57 41.97Q86.20 42.78 85.40 44.30L85.49 44.40L85.46 44.36Q88.24 43.34 90.49 42.92L90.52 42.95L90.48 42.91Q92.33 37.34 92.52 31.17L92.58 31.23L92.44 31.09Q94.07 31.05 97.27 31.01L97.29 31.03L97.26 31.00Q100.24 31.08 102.14 31.16L102.08 31.10L101.98 31.00Q102.35 36.85 103.68 40.77Z"/><path fill="#222" d="M50.63 30.90L50.60 30.87L50.57 30.85Q50.57 29.74 48.63 29.02L48.51 28.90L48.65 29.03Q48.03 28.73 47.50 28.73L47.61 28.83L47.51 28.74Q46.18 28.77 45.11 29.34L45.11 29.34L45.05 29.28Q43.69 30.02 43.80 31.23L43.82 31.25L43.94 31.37Q44.16 34.07 44.01 36.31L43.98 36.28L44.10 36.40Q43.96 38.85 43.23 41.36L43.11 41.24L43.10 41.23Q40.94 41.69 39.76 42.11L39.87 42.22L39.77 42.12Q41.46 38.60 41.46 34.60L41.52 34.66L41.46 34.60Q41.39 29.08 38.80 24.63L38.92 24.75L38.91 24.74Q40.01 25.12 42.41 25.85L42.52 25.95L42.50 25.93Q42.72 26.57 43.10 28.10L43.21 28.21L43.10 28.09Q44.46 26.03 48.34 26.10L48.46 26.22L48.44 26.20Q49.88 26.20 50.68 26.31L50.73 26.36L50.75 26.38Q53.64 26.68 53.71 28.69L53.76 28.74L53.73 28.71Q53.65 29.51 53.46 30.54L53.65 30.73L53.50 30.57Q53.13 33.18 53.32 36.19L53.36 36.22L53.23 36.10Q53.42 38.99 54.41 41.54L54.51 41.63L54.50 41.63Q52.74 41.16 51.02 41.00L51.05 41.03L51.00 40.98Q50.56 38.64 50.49 35.98L50.54 36.02L50.40 35.89Q50.37 33.19 50.60 30.87ZM50.54 41.24L50.69 41.39L50.58 41.28Q51.39 41.29 52.68 41.52L52.82 41.66L53.02 42.55L53.10 42.63Q53.26 43.08 53.48 43.62L53.59 43.72L53.49 43.62Q55.78 44.05 58.48 45.23L58.51 45.25L58.56 45.30Q56.19 42.18 55.51 38.37L55.54 38.41L55.44 38.30Q55.10 36.17 55.21 32.48L55.23 32.49L55.19 32.45Q55.17 32.13 55.21 31.33L55.23 31.35L55.31 31.44Q55.35 30.79 55.28 30.30L55.30 30.32L55.20 30.22Q55.09 28.55 53.99 28.05L54.10 28.17L54.14 28.21Q53.88 27.26 53.12 26.65L53.05 26.58L53.22 26.76Q51.49 25.71 48.45 25.79L48.47 25.81L48.34 25.68Q46.55 25.79 45.71 25.98L45.69 25.96L45.66 25.93Q44.28 26.34 43.33 27.25L43.21 27.14L43.26 27.19Q43.14 26.65 42.76 25.62L42.72 25.59L42.78 25.64Q39.91 24.90 38.08 23.91L38.20 24.03L38.09 23.92Q41.25 28.91 41.25 34.66L41.12 34.53L41.21 34.62Q41.14 38.93 39.24 42.77L39.37 42.90L39.23 42.77Q39.96 42.50 41.25 42.12L41.26 42.13L41.18 42.05Q40.74 43.36 40.20 44.35L40.24 44.39L40.25 44.39Q41.70 43.98 45.24 43.41L45.17 43.34L45.10 43.27Q46.16 38.20 46.05 33.37L46.06 33.38L46.13 33.44Q45.93 32.44 47.11 31.72L47.20 31.82L47.23 31.84Q48.32 31.25 49.42 31.14L49.35 31.07L49.27 30.99Q49.85 31.07 50.27 31.26L50.15 31.15L50.27 31.27Q50.04 33.74 50.08 36.29L50.17 36.38L50.09 36.30Q50.18 38.87 50.68 41.38Z"/><path fill="#222" d="M120.51 41.06L120.47 41.02L120.51 41.06Q116.23 29.70 111.09 24.71L111.13 24.75L111.16 24.78Q112.51 25.30 115.48 25.94L115.62 26.08L115.59 26.05Q119.04 29.88 121.59 36.54L121.63 36.58L121.69 36.65Q124.38 29.32 127.01 26.27L126.85 26.12L126.99 26.26Q128.84 26.02 131.28 25.33L131.31 25.36L131.31 25.36Q128.12 28.07 125.95 32.64L125.92 32.61L126.00 32.70Q125.63 33.35 122.24 40.96L122.27 40.99L122.33 41.05Q121.74 41.15 120.52 41.07ZM125.14 43.48L125.16 43.50L125.00 43.34Q128.50 31.19 133.06 26.51L132.97 26.42L131.44 26.87L131.53 26.95Q130.76 27.21 129.92 27.32L129.80 27.21L129.97 27.37Q130.24 26.77 131.06 25.90L131.13 25.96L131.08 25.92Q131.95 25.09 132.40 24.67L132.47 24.74L132.44 24.70Q130.27 25.39 126.84 25.88L126.82 25.86L126.72 25.76Q124.13 29.07 122.07 34.66L122.07 34.66L122.12 34.71Q120.47 30.52 118.65 28.04L118.51 27.90L118.09 28.02L118.14 28.06Q117.66 27.85 117.43 27.85L117.57 27.99L117.55 27.97Q117.35 27.66 115.64 25.61L115.57 25.54L115.54 25.50Q112.34 25.16 110.09 24.02L110.05 23.98L110.11 24.03Q116.06 29.56 120.05 41.29L120.07 41.30L121.05 41.29L121.21 41.45Q121.44 41.99 122.28 43.28L122.41 43.42L123.76 43.39L123.62 43.26Q124.52 43.43 125.17 43.51Z"/><path fill="#444" d="M65.02 47.17L65.01 47.15L65.04 47.18Q63.93 47.21 62.03 47.52L62.13 47.62L62.02 47.51Q63.45 45.47 64.47 44.18L64.49 44.19L64.37 44.07Q66.12 44.38 66.27 44.38L66.29 44.39L66.23 44.33Q66.62 44.50 67.15 44.38L67.08 44.31L67.14 44.37Q67.93 44.40 68.12 44.40L68.06 44.34L68.09 44.37Q70.64 44.10 70.57 41.93L70.46 41.83L70.49 41.86Q70.49 40.41 70.37 34.16L70.29 34.08L70.37 34.16Q70.40 30.69 70.48 26.54L70.45 26.51L71.83 26.30L71.71 26.18Q72.54 26.24 73.22 26.01L73.11 25.90L73.17 25.96Q72.81 30.24 72.84 34.62L72.97 34.74L72.94 34.71Q73.00 39.11 73.53 43.49L73.59 43.55L73.59 43.55Q73.67 43.86 73.67 44.13L73.54 43.99L73.51 43.97Q73.55 45.64 71.87 46.02L71.95 46.09L71.88 46.02Q68.81 46.46 64.97 47.11ZM71.69 22.84L69.61 19.77L69.53 19.69Q70.70 18.43 72.53 15.65L72.52 15.64L72.37 15.49Q73.19 16.54 74.52 18.37L74.36 18.20L71.82 22.97ZM74.69 49.45L74.74 49.49L74.64 49.40Q75.24 49.50 76.00 49.15L76.02 49.17L76.07 49.23Q76.30 48.43 76.30 47.97L76.35 48.02L76.45 48.12Q76.33 47.66 76.22 47.05L76.16 47.00L76.26 47.09Q74.88 40.65 74.88 32.73L74.92 32.78L74.96 32.82Q74.94 29.94 75.09 27.05L75.02 26.97L74.94 26.89Q74.43 27.11 73.29 27.41L73.25 27.38L73.26 27.38Q73.30 26.93 73.34 26.39L73.32 26.37L73.54 25.41L73.46 25.33Q71.82 26.05 70.03 26.09L69.99 26.06L70.06 26.12Q69.92 30.36 69.96 33.94L69.89 33.87L70.02 41.73L70.14 41.85Q70.18 43.79 68.01 43.91L68.00 43.90L68.08 43.97Q67.72 43.85 67.21 43.91L67.27 43.97L67.21 43.91Q66.81 44.08 66.54 44.08L66.49 44.03L66.58 44.11Q65.96 43.95 64.40 43.54L64.46 43.59L64.38 43.52Q64.05 44.25 62.94 45.92L62.98 45.96L61.43 48.25L61.37 48.19Q62.27 48.02 63.90 47.64L63.83 47.57L63.39 48.31L62.80 48.90L62.94 49.04Q65.09 48.75 66.42 48.83L66.52 48.93L66.55 48.95Q68.73 49.00 74.67 49.42ZM71.76 23.67L71.73 23.64L71.93 22.97L72.12 23.16Q72.41 23.52 73.36 25.12L73.32 25.08L73.35 25.11Q74.86 21.98 76.42 18.89L76.42 18.89L76.53 19.00Q75.40 17.27 74.45 15.97L74.43 15.95L74.51 16.03Q74.34 16.28 74.00 16.81L73.95 16.77L74.00 16.81Q73.63 16.22 72.64 14.93L72.55 14.83L72.53 14.81Q71.32 16.39 69.00 19.74L69.11 19.84L68.99 19.73Q69.93 20.97 71.65 23.56Z"/><path fill="#222" d="M15.99 49.64L15.91 49.56L15.98 49.62Q18.98 45.84 21.87 39.64L21.82 39.59L21.82 39.59Q18.66 33.01 12.57 24.94L12.64 25.00L12.56 24.92Q14.52 26.13 17.30 26.77L17.18 26.65L17.19 26.66Q20.72 31.33 23.16 36.55L23.29 36.69L23.22 36.61Q25.47 31.40 28.55 26.98L28.38 26.81L28.39 26.82Q30.63 26.51 32.72 25.71L32.82 25.80L32.74 25.72Q29.30 29.52 25.84 36.95L25.92 37.03L23.06 43.00L23.01 42.95Q21.64 46.15 19.89 48.77L19.84 48.73L19.87 48.76Q17.50 49.16 16.05 49.70ZM22.25 51.06L22.20 51.01L22.18 50.99Q23.80 48.00 25.25 44.73L25.38 44.86L27.99 38.41L28.02 38.44Q31.53 30.41 34.84 26.42L34.85 26.43L34.90 26.48Q33.52 27.11 31.61 27.80L31.60 27.78L32.63 26.38L32.63 26.38Q33.15 25.64 33.76 24.96L33.83 25.03L33.86 25.05Q31.08 26.00 28.22 26.46L28.28 26.52L28.38 26.62Q25.54 30.44 23.60 34.90L23.67 34.97L23.63 34.92Q21.87 31.50 20.08 28.68L20.15 28.74L20.08 28.68Q20.03 28.81 19.67 28.77L19.59 28.70L19.68 28.79Q19.27 28.70 19.08 28.70L19.00 28.62L19.12 28.74Q18.31 27.44 17.36 26.30L17.43 26.36L17.29 26.22Q14.23 25.68 11.49 23.96L11.42 23.90L11.49 23.97Q17.70 31.93 21.39 39.54L21.33 39.48L21.33 39.48Q19.17 44.56 15.10 50.19L15.10 50.19L15.13 50.22Q15.92 49.90 16.71 49.75L16.72 49.76L18.32 49.38L18.41 49.47Q17.76 50.15 16.58 51.79L16.63 51.84L16.62 51.82Q18.90 51.21 22.17 50.98Z"/></svg>