<svg xmlns="http://www.w3.org/2000/svg" width="150" height="50" viewBox="0,0,150,50"><path fill="#222" d="M18.71 33.39L18.52 33.20L18.54 33.23Q18.56 36.22 17.38 40.86L17.37 40.85L17.32 40.80Q15.43 41.24 13.83 42.03L13.85 42.05L13.95 42.15Q16.45 35.02 16.19 27.60L16.22 27.63L16.23 27.64Q15.97 20.27 12.89 13.53L12.95 13.58L12.77 13.41Q14.82 14.77 16.68 15.34L16.67 15.33L16.62 15.28Q18.82 22.32 18.82 28.98L18.84 29.00L18.91 29.07Q18.87 30.47 18.79 31.95L18.68 31.84L18.79 31.95Q20.00 30.80 25.21 25.85L25.11 25.75L25.12 25.75Q26.23 25.76 27.22 25.69L27.25 25.72L29.28 25.50L29.33 25.56Q26.06 28.45 21.76 32.22L21.81 32.27L21.89 32.35Q25.24 35.09 31.71 40.92L31.75 40.95L31.64 40.84Q28.92 39.95 25.95 39.76L26.01 39.82L26.01 39.81Q23.59 37.81 18.71 33.40ZM28.47 42.43L28.61 42.57L28.58 42.54Q33.33 43.41 36.45 45.35L36.38 45.28L36.40 45.30Q35.25 44.04 32.63 41.64L32.53 41.54L32.45 41.46Q32.71 41.57 32.98 41.69L33.14 41.84L33.01 41.72Q30.99 39.77 28.74 37.87L28.73 37.86L24.21 33.87L24.27 33.93Q29.16 29.64 31.59 26.75L31.74 26.89L31.76 26.91Q30.37 26.82 27.90 27.09L27.92 27.11L27.93 27.13Q29.66 25.80 30.34 24.96L30.19 24.81L30.21 24.83Q27.55 25.45 25.08 25.45L24.94 25.31L24.92 25.29Q23.50 26.58 20.76 29.24L20.89 29.37L20.87 29.35Q20.79 23.49 19.80 17.66L19.84 17.70L19.86 17.72Q19.05 17.45 17.57 17.18L17.66 17.27L17.61 17.22Q17.51 16.55 17.05 15.06L17.09 15.10L17.13 15.15Q14.37 14.21 12.12 12.65L12.12 12.65L12.24 12.76Q15.68 19.59 16.02 27.70L16.02 27.70L15.99 27.66Q16.33 35.58 13.32 42.82L13.32 42.81L13.31 42.80Q14.03 42.54 15.37 41.89L15.31 41.83L15.21 41.73Q15.03 42.62 14.38 44.07L14.52 44.20L14.36 44.04Q17.17 42.94 19.31 42.56L19.45 42.70L19.43 42.68Q19.96 40.13 20.46 35.87L20.40 35.81L20.52 35.93Q23.05 38.12 28.49 42.46Z"/><path fill="#444" d="M120.49 41.08L120.56 41.14L118.81 41.11L118.91 41.21Q115.49 41.17 114.53 39.04L114.57 39.08L114.52 39.03Q115.75 38.05 117.20 36.95L117.15 36.90L117.19 36.94Q117.79 39.13 120.64 38.98L120.60 38.94L120.65 38.99Q121.38 38.88 122.41 38.66L122.43 38.68L122.46 38.71Q123.32 38.12 123.24 37.17L123.19 37.12L123.24 37.17Q123.11 36.01 121.32 35.33L121.39 35.39L117.54 33.83L117.61 33.90Q115.31 32.58 114.96 29.04L114.79 28.87L114.81 28.89Q114.77 26.91 116.94 26.34L116.84 26.24L116.79 26.19Q117.80 26.01 120.77 26.01L120.83 26.08L120.80 26.05Q125.64 26.01 126.56 28.53L126.50 28.48L126.58 28.55Q125.85 29.00 125.13 29.46L125.22 29.55L123.71 30.40L123.80 30.50Q123.36 28.64 120.13 28.42L119.99 28.28L120.15 28.44Q119.56 28.46 118.53 28.87L118.46 28.80L118.39 28.74Q117.91 29.17 117.91 30.28L117.87 30.23L117.91 30.27Q118.16 31.25 119.99 31.94L120.04 31.98L120.05 32.00Q121.12 32.38 123.78 33.48L123.76 33.46L123.84 33.53Q125.66 34.37 125.85 36.92L125.74 36.81L125.88 36.95Q125.82 37.46 125.75 38.45L125.78 38.49L125.77 38.47Q125.81 39.43 125.24 40.08L125.30 40.14L125.16 40.00Q123.59 41.13 120.54 41.13ZM125.25 43.67L125.30 43.72L125.30 43.72Q126.31 43.85 127.68 43.55L127.69 43.55L127.51 43.38Q128.74 42.86 128.55 41.64L128.52 41.60L128.53 41.62Q128.37 40.96 128.07 39.37L128.04 39.34L127.99 39.29Q127.61 36.51 125.82 35.29L125.68 35.15L125.82 35.29Q125.25 33.84 123.99 33.12L123.90 33.03L124.05 33.18Q122.75 32.72 120.28 31.77L120.21 31.69L120.18 31.67Q120.49 31.37 120.75 31.25L120.68 31.18L120.60 31.10Q121.19 30.62 121.83 30.58L121.86 30.61L121.89 30.64Q122.82 30.73 123.58 31.00L123.56 30.98L123.48 30.97L123.60 30.98L123.94 31.13L123.75 30.97L123.79 31.01Q124.85 31.46 125.04 32.72L125.09 32.77L125.11 32.79Q126.41 32.00 128.31 30.32L128.26 30.27L128.32 30.32Q128.02 29.57 127.03 28.39L127.02 28.38L127.08 28.45Q125.84 25.64 120.74 25.52L120.83 25.62L120.73 25.52Q117.62 25.53 115.64 26.10L115.64 26.10L115.60 26.06Q114.33 26.77 114.56 28.86L114.47 28.78L114.53 28.83Q114.67 30.12 115.58 32.21L115.45 32.08L115.51 32.14Q115.99 33.19 117.02 33.91L117.04 33.93L117.04 33.93Q117.71 35.41 119.01 36.09L119.11 36.20L118.97 36.06Q119.95 36.35 120.90 36.73L120.90 36.73L122.85 37.54L122.93 37.61Q122.47 38.60 120.53 38.49L120.52 38.48L120.50 38.46Q120.04 38.50 118.82 38.19L118.96 38.33L118.87 38.09L118.81 38.25L118.75 38.20Q117.88 37.82 117.23 36.33L117.15 36.25L117.16 36.26Q115.21 38.00 114.11 39.15L113.93 38.97L114.03 39.07Q114.33 39.98 115.36 40.78L115.36 40.79L115.18 40.91L115.21 40.93Q116.51 42.93 120.74 43.31L120.74 43.31L120.76 43.33Q122.16 43.59 125.40 43.82Z"/><path fill="#222" d="M73.32 20.13L73.39 20.20L73.26 20.07Q68.96 20.07 65.27 19.08L65.20 19.02L65.24 19.05Q66.74 23.61 66.93 28.44L66.93 28.44L66.97 28.48Q67.27 33.38 66.05 37.99L66.04 37.98L65.93 37.87Q68.69 37.21 72.20 37.05L72.33 37.19L72.21 37.07Q76.22 36.96 78.01 34.53L78.10 34.62L77.99 34.51Q79.60 32.54 79.79 28.43L79.80 28.44L79.69 28.33Q79.74 26.56 79.29 24.84L79.42 24.98L79.27 24.82Q78.10 20.20 73.38 20.20ZM61.48 42.21L61.40 42.13L61.46 42.19Q64.22 36.39 64.22 29.69L64.37 29.83L64.35 29.82Q64.34 21.28 60.04 14.27L59.96 14.19L60.05 14.29Q65.26 16.91 73.52 17.10L73.56 17.14L73.53 17.10Q82.40 17.29 82.74 24.45L82.71 24.42L82.78 24.49Q82.84 27.14 82.80 28.58L82.85 28.63L82.75 28.53Q82.81 33.35 81.97 35.52L81.91 35.46L81.94 35.49Q81.46 36.54 80.70 37.38L80.71 37.38L80.68 37.36Q79.30 38.86 76.67 39.36L76.65 39.33L76.77 39.46Q75.16 39.71 72.15 39.94L72.13 39.92L72.20 39.99Q65.99 40.37 61.39 42.12ZM79.40 42.09L79.31 41.99L79.28 41.97Q82.08 41.68 83.72 40.20L83.65 40.13L83.76 40.24Q84.82 38.34 84.79 35.60L84.84 35.65L84.88 35.69Q84.89 34.33 84.74 30.83L84.68 30.77L84.39 26.29L84.45 26.35Q84.17 23.98 83.22 21.88L83.13 21.79L83.15 21.82Q82.65 20.90 81.96 20.25L81.99 20.28L82.03 20.16L81.96 20.09Q80.33 17.20 75.91 16.82L75.95 16.86L75.87 16.78Q73.20 16.66 66.19 15.93L66.11 15.85L66.19 15.94Q62.82 15.38 59.13 13.37L59.28 13.52L59.14 13.37Q64.01 20.80 64.01 29.55L64.13 29.67L64.11 29.65Q64.02 36.57 60.67 42.74L60.78 42.84L60.81 42.87Q61.41 42.52 62.74 42.02L62.63 41.92L62.63 41.92Q62.32 42.79 61.45 44.27L61.52 44.35L61.48 44.31Q64.65 43.36 68.00 42.87L67.96 42.83L67.96 42.83Q70.06 42.53 73.72 42.42L73.66 42.36L73.60 42.30Q77.51 42.22 79.34 42.03ZM79.44 28.46L79.47 28.49L79.35 28.37Q79.08 36.47 72.38 36.86L72.23 36.71L72.26 36.73Q70.31 36.84 68.25 37.10L68.30 37.15L68.38 37.23Q68.93 33.22 68.93 29.56L69.04 29.67L69.00 29.63Q69.01 25.95 68.28 22.10L68.34 22.16L68.21 22.03Q70.49 22.40 75.17 22.40L75.23 22.46L75.20 22.43Q76.66 22.37 78.30 23.32L78.32 23.34L78.18 23.20Q79.43 25.44 79.28 28.30Z"/><path fill="#333" d="M45.66 29.77L45.77 29.88L45.76 29.88Q45.58 29.93 45.28 29.93L45.14 29.79L45.19 29.84Q43.90 29.88 42.45 30.72L42.33 30.60L42.50 30.76Q41.15 31.86 41.15 33.76L41.12 33.72L41.03 33.64Q41.07 37.10 42.59 38.44L42.64 38.48L42.50 38.34Q43.61 39.68 45.89 39.68L45.92 39.71L45.80 39.58Q46.18 39.74 46.48 39.74L46.41 39.66L46.35 39.61Q48.19 39.73 49.33 38.09L49.27 38.03L49.30 38.07Q50.28 36.50 50.21 34.71L50.14 34.64L50.28 34.77Q50.22 34.19 50.22 33.77L50.27 33.82L50.21 33.75Q50.36 32.12 48.99 30.96L48.93 30.90L48.99 30.95Q47.47 29.64 45.68 29.80ZM50.16 39.95L50.30 40.09L50.19 39.98Q49.17 41.90 45.44 42.01L45.53 42.10L45.53 42.10Q42.01 42.08 40.41 40.48L40.47 40.54L40.54 40.61Q38.96 38.72 38.16 33.92L38.32 34.09L38.23 34.00Q37.97 32.29 37.97 31.04L38.03 31.09L37.99 31.06Q38.01 29.29 38.74 28.22L38.58 28.07L38.59 28.08Q40.01 26.76 42.98 26.76L43.02 26.79L43.04 26.81Q49.32 26.78 51.22 29.36L51.23 29.37L51.20 29.34Q51.46 28.61 51.87 27.01L51.82 26.95L51.75 26.88Q53.01 26.58 55.45 25.78L55.60 25.94L55.45 25.79Q53.01 31.42 52.79 37.74L52.91 37.87L52.82 37.77Q52.72 44.07 54.85 49.89L54.70 49.75L54.72 49.77Q52.97 49.12 51.18 48.85L51.20 48.87L51.30 48.98Q50.33 44.95 50.22 40.01ZM51.10 49.34L51.08 49.32L51.10 49.35Q51.73 49.40 53.14 49.71L53.20 49.76L53.19 49.76Q53.34 50.40 53.91 51.81L53.88 51.78L54.00 51.90Q56.51 52.55 58.80 53.84L58.73 53.77L58.87 53.91Q54.70 47.19 54.70 38.67L54.78 38.75L54.76 38.72Q54.86 32.47 57.34 26.68L57.28 26.63L57.28 26.63Q56.50 26.83 55.12 27.48L55.19 27.55L55.16 27.52Q55.59 26.85 56.24 25.28L56.12 25.17L56.15 25.19Q54.62 25.75 51.42 26.63L51.43 26.64L51.39 26.60Q51.30 27.19 50.99 28.37L51.00 28.38L51.05 28.43Q49.08 26.57 42.95 26.42L42.79 26.26L42.95 26.42Q39.67 26.27 38.30 27.75L38.24 27.69L38.30 27.75Q37.50 28.85 37.54 30.76L37.66 30.88L37.51 30.73Q37.71 33.82 38.70 37.59L38.59 37.48L38.67 37.56Q39.38 40.02 40.30 40.97L40.32 41.00L40.68 41.36L40.54 41.22Q41.83 44.11 47.28 44.34L47.32 44.38L47.33 44.39Q48.23 44.30 50.06 44.00L50.08 44.02L50.04 43.98Q50.30 46.87 50.91 49.15ZM47.67 32.21L47.60 32.14L47.68 32.22Q48.74 32.21 49.58 32.51L49.57 32.51L49.62 32.55Q49.78 33.06 49.89 33.67L49.91 33.69L49.80 33.58Q50.04 34.27 49.96 34.88L49.91 34.83L49.80 34.72Q49.85 36.67 48.83 37.97L48.87 38.01L48.75 37.89Q47.69 39.42 45.82 39.23L45.76 39.17L45.86 39.27Q44.56 39.26 43.61 38.84L43.64 38.88L43.57 38.80Q43.33 38.11 43.33 36.89L43.15 36.71L43.15 36.71Q43.13 36.38 43.13 36.08L43.21 36.16L43.12 36.07Q43.14 34.34 44.47 33.17L44.45 33.15L44.44 33.15Q45.90 32.11 47.65 32.19Z"/><path fill="#222" d="M105.20 41.64L105.13 41.57L105.08 41.52Q102.93 41.08 100.76 40.93L100.88 41.06L100.73 40.90Q99.35 39.53 96.69 35.68L96.80 35.80L96.73 35.73Q94.49 38.78 92.09 41.21L92.20 41.32L90.00 41.60L89.97 41.56Q88.94 41.79 87.95 42.05L87.95 42.06L88.02 42.12Q92.13 37.94 95.14 33.83L95.20 33.88L95.19 33.87Q91.98 29.75 86.57 24.95L86.45 24.84L86.51 24.89Q88.78 25.67 91.48 26.09L91.45 26.07L91.40 26.01Q94.82 29.09 96.73 31.80L96.73 31.80L96.77 31.84Q98.94 28.84 101.68 26.32L101.71 26.34L101.75 26.39Q104.66 25.91 106.48 25.41L106.59 25.52L106.48 25.40Q101.94 29.06 98.25 33.62L98.21 33.59L98.34 33.72Q101.67 38.34 105.14 41.58ZM108.04 24.76L108.04 24.76L108.03 24.75Q105.02 25.47 101.48 25.81L101.51 25.84L101.56 25.90Q98.70 28.59 96.98 31.07L97.02 31.10L97.03 31.11Q96.00 29.93 94.36 27.95L94.49 28.08L94.24 28.01L94.20 27.98Q94.00 27.89 93.89 27.89L94.04 28.04L94.02 28.02Q93.23 27.15 91.59 25.71L91.63 25.75L91.64 25.76Q87.96 25.13 85.11 23.91L85.16 23.96L85.08 23.88Q90.70 28.78 94.74 33.92L94.68 33.86L94.77 33.95Q91.41 38.59 86.99 42.89L86.90 42.79L86.92 42.81Q87.06 42.61 90.56 41.77L90.68 41.89L90.68 41.89Q89.11 43.17 87.47 44.51L87.46 44.49L87.53 44.56Q90.73 43.65 93.89 43.46L93.95 43.53L93.82 43.39Q96.18 41.11 98.09 38.37L98.23 38.51L98.18 38.46Q99.64 40.26 100.85 41.44L100.84 41.43L100.83 41.42Q100.80 41.27 100.87 41.35L101.05 41.52L101.18 41.46L101.13 41.42Q102.51 42.64 103.84 43.71L103.69 43.56L103.84 43.71Q107.34 44.16 110.24 45.19L110.14 45.10L110.23 45.18Q104.00 40.67 100.31 35.49L100.37 35.55L100.26 35.45Q104.00 30.50 108.57 26.43L108.64 26.51L108.62 26.48Q107.66 26.82 106.67 27.05L106.68 27.05L104.65 27.50L104.65 27.50Q105.83 26.59 108.00 24.73Z"/></svg>