<svg xmlns="http://www.w3.org/2000/svg" width="150" height="50" viewBox="0,0,150,50"><path fill="#333" d="M119.26 39.83L119.44 40.01L119.43 40.00Q115.20 39.39 113.38 37.94L113.39 37.96L113.42 37.99Q111.54 36.48 111.12 33.48L111.12 33.48L111.01 33.36Q110.99 33.00 110.64 28.24L110.70 28.30L110.63 28.22Q110.82 27.20 110.74 25.94L110.67 25.87L110.64 25.84Q110.61 20.93 112.81 19.18L112.67 19.04L112.66 19.03Q115.47 17.07 123.23 16.39L123.25 16.41L123.26 16.42Q124.55 16.22 126.18 16.26L126.20 16.28L126.06 16.14Q126.18 16.25 129.15 16.25L129.06 16.17L129.05 16.16Q129.84 16.11 131.55 16.26L131.59 16.30L131.72 16.43Q131.19 17.34 130.16 20.43L130.05 20.31L130.23 20.49Q127.98 19.12 124.97 19.12L125.00 19.14L125.09 19.24Q124.35 19.26 123.55 19.34L123.56 19.35L123.50 19.29Q118.40 19.74 115.89 21.72L115.93 21.77L115.95 21.78Q113.74 23.19 113.58 26.54L113.63 26.58L113.74 26.70Q113.65 27.25 113.69 28.51L113.74 28.56L113.73 28.55Q113.88 33.42 116.28 35.52L116.29 35.53L116.21 35.44Q118.27 37.28 123.26 37.59L123.44 37.77L123.44 37.77Q126.46 37.81 129.47 36.02L129.51 36.07L129.43 35.99Q130.14 38.83 130.75 40.20L130.72 40.17L130.79 40.24Q128.59 40.40 126.95 40.36L126.92 40.33L126.90 40.31Q122.57 40.39 119.44 40.01ZM134.46 43.65L134.39 43.58L134.51 43.70Q132.75 40.71 132.06 38.12L131.97 38.04L131.95 38.01Q131.65 38.40 130.66 38.78L130.49 38.61L130.68 38.80Q130.30 37.96 130.11 37.13L130.08 37.09L129.68 35.37L129.65 35.33Q126.37 37.39 123.25 37.27L123.34 37.36L123.23 37.25Q118.98 37.07 116.65 35.32L116.78 35.44L116.72 35.38Q115.49 33.47 115.57 30.54L115.67 30.64L115.71 30.68Q115.75 26.08 118.23 23.95L118.32 24.04L118.35 24.07Q120.43 22.11 125.11 21.50L125.01 21.41L124.97 21.36Q125.96 21.44 126.68 21.44L126.49 21.25L126.49 21.25Q129.46 21.43 131.55 22.96L131.48 22.88L131.41 22.82Q131.92 20.70 133.13 17.46L133.13 17.46L133.23 17.56Q132.86 17.45 132.30 17.39L132.33 17.42L132.42 17.51Q131.81 17.40 131.55 17.40L131.47 17.32L131.58 17.43Q131.79 16.91 132.24 15.92L132.25 15.93L132.20 15.88Q131.99 15.90 129.50 15.82L129.49 15.81L129.54 15.87Q126.87 15.61 126.22 15.65L126.31 15.74L126.42 15.84Q115.77 16.04 112.30 18.63L112.40 18.73L112.43 18.76Q110.41 20.58 110.41 24.50L110.34 24.43L110.34 24.43Q110.43 25.63 110.54 28.33L110.39 28.17L110.41 28.20Q110.66 31.87 110.88 33.58L110.89 33.59L110.84 33.54Q111.16 36.60 112.76 38.12L112.78 38.15L112.68 38.05Q113.18 38.74 114.44 39.88L114.49 39.93L114.57 40.02Q117.82 41.77 123.07 42.53L123.01 42.47L123.14 42.61Q129.44 43.42 134.42 43.61Z"/><path fill="#111" d="M50.95 41.31L50.84 41.20L47.86 41.08L47.91 41.12Q45.46 40.96 44.66 40.85L44.74 40.92L44.76 40.95Q42.77 40.44 41.59 39.56L41.68 39.66L41.73 39.71Q40.47 38.33 40.24 34.98L40.14 34.88L40.20 34.94Q40.13 34.41 40.05 33.20L40.10 33.24L40.09 33.23Q39.98 32.70 39.90 31.60L40.05 31.74L39.93 31.62Q40.02 30.92 40.06 30.19L40.02 30.15L39.90 30.03Q40.16 28.16 41.19 27.40L41.19 27.40L41.28 27.49Q43.06 26.18 47.89 25.96L47.92 25.99L47.99 26.05Q50.01 25.94 50.81 25.94L50.82 25.95L50.69 25.82Q52.27 25.92 53.64 26.22L53.67 26.25L53.66 26.24Q52.99 27.40 52.45 29.22L52.46 29.23L52.55 29.32Q52.09 29.43 51.60 29.40L51.58 29.38L51.53 29.32Q51.50 29.38 50.97 29.26L50.90 29.19L49.92 28.94L49.90 28.92Q48.86 28.68 48.25 28.72L48.31 28.78L48.24 28.71Q43.64 28.90 43.03 31.72L42.84 31.53L43.03 31.72Q42.70 32.80 42.78 33.75L42.75 33.72L42.76 33.73Q42.82 36.23 44.06 37.31L44.10 37.35L44.08 37.34Q45.28 38.38 47.87 38.42L47.93 38.48L47.88 38.43Q49.45 38.55 50.17 38.25L50.19 38.27L51.20 37.75L51.11 37.66Q51.67 37.47 52.24 37.39L52.37 37.52L52.22 37.37Q52.47 39.17 52.85 40.47L52.84 40.46L52.84 40.46Q52.62 40.85 50.83 41.20ZM54.23 44.29L54.18 44.23L54.20 44.25Q54.47 44.18 55.30 44.26L55.38 44.33L55.26 44.22Q56.06 44.40 56.40 43.83L56.30 43.73L56.43 43.86Q55.20 41.75 54.70 39.66L54.53 39.48L54.58 39.53Q54.31 39.57 53.86 39.57L53.92 39.63L53.92 39.64Q53.34 39.48 52.96 39.67L52.99 39.70L53.01 39.71Q52.77 38.56 52.62 37.16L52.61 37.15L52.45 36.99Q51.99 37.06 50.77 37.63L50.65 37.51L50.73 37.59Q49.51 38.16 49.01 38.16L48.94 38.08L49.08 38.22Q48.63 38.27 48.02 38.23L47.94 38.15L47.96 38.17Q47.10 38.19 45.12 37.62L45.02 37.51L45.07 37.56Q44.68 36.80 44.72 35.65L44.80 35.74L44.82 35.76Q44.90 31.42 49.85 30.89L49.79 30.83L49.95 30.98Q50.57 30.91 51.94 31.26L51.93 31.25L51.85 31.17Q53.31 31.60 54.03 31.56L54.07 31.60L53.97 31.51Q54.50 29.36 55.18 27.54L55.13 27.49L55.03 27.39Q54.80 27.42 54.42 27.35L54.39 27.32L53.50 27.11L53.51 27.12Q53.89 26.81 54.27 25.94L54.25 25.92L54.15 25.82Q52.72 25.57 51.16 25.57L51.04 25.45L51.08 25.49Q48.67 25.48 44.29 25.86L44.26 25.82L44.36 25.93Q42.34 26.00 40.78 26.99L40.76 26.98L40.72 26.93Q39.50 27.89 39.50 29.79L39.63 29.91L39.66 29.94Q39.49 30.20 39.61 31.41L39.68 31.48L39.79 31.60Q39.85 32.61 39.81 33.22L39.70 33.11L39.66 33.06Q39.76 35.04 40.49 38.77L40.48 38.76L40.55 38.83Q40.82 39.55 41.31 40.05L41.44 40.18L41.70 40.44L41.57 40.27L41.56 40.26Q42.74 42.54 46.66 43.15L46.54 43.03L46.69 43.18Q49.71 43.54 52.38 43.81L52.48 43.91L52.38 43.81Q53.30 44.00 54.21 44.27Z"/><path fill="#222" d="M106.31 22.97L106.39 23.06L106.47 23.13Q104.51 25.70 101.84 31.33L101.92 31.41L99.93 35.67L99.87 35.60Q99.06 37.57 97.72 39.82L97.73 39.83L97.62 39.72Q98.10 39.74 96.43 39.78L96.42 39.78L96.55 39.90Q96.44 39.79 95.19 39.79L95.24 39.85L95.20 39.81Q94.53 38.37 91.60 31.22L91.49 31.11L91.65 31.27Q89.49 25.91 87.40 22.91L87.40 22.91L87.42 22.93Q88.16 25.99 88.16 29.15L88.09 29.08L88.06 29.05Q88.06 35.56 85.09 41.12L85.05 41.08L85.17 41.20Q83.69 41.39 81.33 42.11L81.39 42.17L81.47 42.26Q85.15 36.57 85.15 29.33L85.21 29.40L85.08 29.27Q85.21 20.45 79.80 13.48L79.65 13.33L79.79 13.47Q81.41 14.17 83.77 14.86L83.75 14.84L83.78 14.87Q90.83 21.62 96.92 34.94L96.89 34.92L96.77 34.79Q100.33 27.85 102.54 24.34L102.65 24.45L102.62 24.42Q106.09 18.52 110.05 15.06L110.04 15.06L110.02 15.03Q111.37 14.90 113.73 14.14L113.67 14.08L113.66 14.07Q108.66 20.68 108.66 29.28L108.69 29.32L108.73 29.35Q108.77 36.06 112.20 41.58L112.21 41.58L112.21 41.59Q110.84 41.25 108.10 40.64L108.12 40.66L107.97 40.51Q105.67 35.77 105.67 29.79L105.77 29.89L105.77 29.90Q105.62 26.32 106.30 22.97ZM107.79 40.90L107.79 40.90L107.90 41.01Q108.54 41.08 109.99 41.34L109.93 41.29L109.97 41.33Q110.52 42.19 111.48 43.67L111.40 43.60L111.45 43.65Q113.51 43.99 116.97 45.21L117.05 45.29L117.04 45.28Q110.83 38.99 110.83 29.17L110.69 29.03L110.74 29.08Q110.80 21.41 115.18 15.28L115.15 15.25L112.95 15.95L112.90 15.90Q113.86 14.30 114.50 13.43L114.57 13.49L114.50 13.43Q112.81 14.24 110.18 14.78L110.10 14.70L110.07 14.66Q103.36 20.83 97.31 33.43L97.35 33.47L97.24 33.36Q92.15 22.48 87.20 17.23L87.07 17.10L87.14 17.17Q86.80 17.13 86.23 17.01L86.18 16.97L84.88 15.59L84.92 15.63Q84.30 14.93 83.61 14.32L83.68 14.39L83.66 14.38Q80.60 13.37 78.81 12.65L78.80 12.63L78.93 12.77Q84.89 19.94 84.89 29.34L84.83 29.28L84.93 29.38Q84.80 36.87 80.65 42.73L80.71 42.79L80.75 42.83Q81.34 42.51 82.64 42.09L82.62 42.08L82.66 42.11Q82.55 42.39 81.15 44.48L81.23 44.56L81.12 44.46Q82.90 43.95 86.40 43.19L86.43 43.22L86.38 43.17Q90.12 36.13 89.93 28.37L90.08 28.52L90.07 28.51Q91.41 32.33 94.88 40.21L95.06 40.39L95.01 40.34Q95.27 40.30 95.50 40.30L95.33 40.13L95.90 40.17L96.03 40.29Q96.42 40.91 97.22 42.20L97.21 42.20L97.29 42.27Q98.89 42.25 98.89 42.25L98.92 42.27L98.80 42.15Q99.84 42.17 100.49 42.24L100.55 42.31L100.40 42.15Q102.09 38.24 105.44 30.25L105.36 30.17L105.44 30.25Q105.23 35.60 107.82 40.93Z"/><path fill="#333" d="M64.30 41.01L64.35 41.07L64.39 41.11Q67.52 36.81 74.22 28.89L74.18 28.85L74.27 28.95Q68.42 29.22 64.65 27.85L64.67 27.87L64.55 27.75Q63.96 26.40 63.19 24.99L63.06 24.85L63.20 25.00Q67.24 26.45 71.70 26.48L71.60 26.39L71.68 26.47Q76.10 26.47 80.28 25.40L80.31 25.43L80.30 25.42Q79.98 26.17 79.71 26.70L79.61 26.60L79.57 26.55Q77.21 28.95 74.39 32.57L74.25 32.43L69.37 38.67L69.47 38.76Q71.63 38.49 73.88 38.57L73.98 38.67L73.92 38.60Q76.09 38.64 78.33 39.02L78.23 38.92L78.35 39.04Q78.41 39.55 79.13 41.57L79.22 41.66L79.13 41.57Q75.44 40.78 71.45 40.89L71.54 40.99L71.45 40.90Q67.46 40.98 63.81 42.16L63.95 42.30L63.91 42.27Q63.85 41.97 64.31 41.02ZM63.36 42.89L63.19 42.72L63.33 42.86Q64.17 42.59 65.76 42.18L65.76 42.17L65.77 42.18Q65.35 42.22 64.93 42.64L64.91 42.61L65.07 42.78Q64.70 43.21 64.09 44.35L64.14 44.39L64.20 44.45Q68.95 43.15 73.94 43.31L73.88 43.25L73.90 43.27Q78.81 43.38 83.38 45.25L83.43 45.30L83.38 45.25Q81.92 43.37 81.00 41.31L81.04 41.34L81.10 41.41Q80.25 41.01 79.18 40.78L79.21 40.81L79.12 40.72Q78.99 40.06 78.61 38.61L78.61 38.61L78.58 38.59Q77.03 38.25 73.45 38.14L73.46 38.14L73.56 38.24Q75.86 34.84 80.89 28.48L80.98 28.58L80.96 28.56Q81.11 27.71 81.79 26.38L81.91 26.49L79.66 27.29L79.51 27.14Q79.59 27.07 79.74 26.95L79.78 26.99L79.92 26.75L80.09 26.92Q80.54 25.85 81.11 24.90L81.06 24.84L81.10 24.88Q76.40 26.20 71.68 26.12L71.75 26.20L71.61 26.05Q66.82 25.98 62.33 24.16L62.41 24.24L62.40 24.23Q63.52 26.03 64.32 28.09L64.35 28.13L64.36 28.13Q65.25 28.49 66.32 28.76L66.16 28.60L66.29 28.73Q66.52 29.46 66.83 30.90L66.84 30.92L66.71 30.79Q68.38 31.12 71.69 31.28L71.74 31.32L71.74 31.32Q69.28 34.57 64.10 41.01L64.09 41.00L64.07 40.98Q63.77 41.51 63.20 42.73Z"/><path fill="#222" d="M31.15 41.59L31.12 41.56L31.21 41.65Q29.09 41.24 26.92 41.09L26.82 40.99L26.81 40.98Q25.50 39.68 22.84 35.83L22.73 35.72L22.75 35.74Q20.61 38.90 18.21 41.33L18.05 41.16L16.10 41.70L16.04 41.64Q14.99 41.84 14.00 42.11L13.90 42.00L14.01 42.11Q18.16 37.96 21.16 33.85L21.27 33.96L21.10 33.78Q17.85 29.63 12.45 24.83L12.46 24.85L12.43 24.81Q14.68 25.57 17.38 25.99L17.49 26.11L17.39 26.01Q20.90 29.17 22.80 31.87L22.69 31.76L22.82 31.89Q24.82 28.71 27.56 26.20L27.59 26.23L27.75 26.38Q30.71 25.96 32.54 25.46L32.51 25.44L32.60 25.53Q27.91 29.02 24.21 33.59L24.26 33.64L24.40 33.78Q27.73 38.40 31.20 41.64ZM34.07 24.80L33.94 24.66L33.93 24.65Q31.11 25.57 27.57 25.91L27.56 25.90L27.63 25.97Q24.75 28.64 23.03 31.11L22.93 31.01L22.96 31.04Q22.12 30.05 20.49 28.07L20.32 27.91L20.15 27.92L20.22 27.99Q20.18 28.07 20.06 28.07L20.03 28.03L19.88 27.89Q19.25 27.18 17.62 25.73L17.55 25.67L17.58 25.70Q14.00 25.17 11.15 23.95L11.20 24.00L11.04 23.84Q16.65 28.72 20.68 33.86L20.61 33.79L20.66 33.84Q17.28 38.46 12.87 42.76L12.93 42.82L12.89 42.79Q13.24 42.79 16.75 41.96L16.70 41.91L16.65 41.86Q15.14 43.20 13.50 44.53L13.46 44.50L13.48 44.52Q16.70 43.63 19.86 43.44L19.92 43.50L19.81 43.38Q22.18 41.11 24.08 38.37L24.14 38.43L24.06 38.35Q25.58 40.21 26.80 41.39L26.77 41.36L26.85 41.44Q26.99 41.47 27.07 41.54L26.88 41.36L27.20 41.48L27.09 41.38Q28.51 42.64 29.84 43.71L29.76 43.63L29.72 43.59Q33.35 44.17 36.25 45.20L36.27 45.23L36.26 45.21Q30.04 40.71 26.34 35.53L26.39 35.57L26.26 35.45Q30.03 30.53 34.60 26.46L34.54 26.40L34.53 26.39Q33.63 26.78 32.64 27.01L32.55 26.92L30.63 27.48L30.53 27.38Q31.81 26.57 33.98 24.70Z"/></svg>