<svg xmlns="http://www.w3.org/2000/svg" width="150" height="50" viewBox="0,0,150,50"><path fill="#111" d="M50.78 30.95L50.65 30.83L50.73 30.91Q50.71 29.36 49.89 28.45L50.00 28.56L50.00 28.56Q49.22 27.69 47.78 27.73L47.81 27.76L47.72 27.67Q45.38 27.73 44.54 29.86L44.53 29.85L44.62 29.94Q44.21 30.59 44.17 31.28L44.34 31.44L44.29 31.40Q44.05 36.22 43.14 40.56L43.01 40.43L43.18 40.61Q41.41 41.04 39.55 42.03L39.66 42.14L39.64 42.13Q41.87 35.10 41.60 27.80L41.58 27.77L41.52 27.71Q41.20 20.32 38.65 13.50L38.76 13.60L38.74 13.58Q40.43 14.82 42.45 15.51L42.53 15.59L42.57 15.63Q43.96 21.36 44.15 27.22L44.10 27.17L44.10 27.17Q45.63 25.23 48.33 25.31L48.21 25.19L48.28 25.26Q53.44 25.43 53.56 30.80L53.38 30.63L53.42 30.67Q53.54 36.35 54.91 40.99L55.06 41.14L54.90 40.98Q53.12 40.23 51.37 40.04L51.37 40.04L51.46 40.13Q50.76 36.69 50.65 30.83ZM51.01 40.32L51.09 40.40L50.97 40.29Q52.05 40.45 53.16 40.72L53.10 40.67L53.28 40.85Q53.25 40.93 53.78 42.91L53.75 42.88L53.68 42.80Q56.81 43.92 58.83 45.36L58.84 45.38L58.76 45.29Q56.12 39.58 55.59 33.26L55.61 33.27L55.54 33.21Q55.25 29.53 53.85 27.97L53.74 27.86L53.80 27.93Q53.72 27.76 53.07 27.31L53.12 27.36L53.22 27.45Q52.96 26.93 52.31 26.17L52.31 26.16L52.36 26.14L52.24 26.02Q51.49 25.27 48.37 25.00L48.31 24.95L48.37 25.00Q47.47 24.83 46.06 25.18L46.15 25.26L46.19 25.31Q45.98 20.45 45.64 17.94L45.66 17.96L45.64 17.93Q44.74 17.69 43.26 17.38L43.37 17.49L43.30 17.43Q43.27 16.83 43.01 15.34L43.02 15.35L42.85 15.18Q39.98 14.29 38.11 12.73L38.02 12.64L38.11 12.73Q41.04 19.85 41.30 27.65L41.36 27.71L41.33 27.67Q41.64 35.48 39.09 42.83L39.03 42.78L39.05 42.80Q39.98 42.20 41.12 41.70L41.16 41.74L40.42 44.01L40.34 43.93Q43.52 42.66 45.50 42.47L45.49 42.46L45.53 42.49Q46.10 37.09 46.29 33.13L46.24 33.08L46.32 33.16Q46.27 31.17 48.21 30.06L48.20 30.06L48.30 30.15Q48.84 29.93 49.37 29.97L49.32 29.92L49.33 29.93Q49.50 29.95 49.84 29.98L49.76 29.90L50.21 30.01L50.23 30.02Q50.32 30.50 50.43 30.95L50.38 30.90L50.43 30.95Q50.59 36.97 51.08 40.40Z"/><path fill="#222" d="M126.27 41.03L126.27 41.04L126.21 40.97Q124.80 39.18 123.51 36.10L123.63 36.22L121.41 30.99L121.42 31.00Q119.84 35.02 119.23 36.31L119.26 36.34L119.30 36.39Q117.79 39.25 116.19 41.15L116.29 41.26L116.28 41.25Q115.93 41.27 115.17 41.39L115.14 41.36L115.06 41.28Q115.04 33.84 109.22 27.90L109.17 27.86L109.29 27.97Q107.46 26.07 105.44 24.58L105.40 24.54L105.49 24.63Q107.37 25.21 109.23 25.52L109.22 25.51L109.27 25.55Q115.24 30.42 116.69 36.67L116.71 36.68L116.72 36.69Q117.62 34.86 118.80 31.66L118.74 31.60L118.87 31.73Q120.10 27.86 120.67 26.56L120.80 26.69L122.21 26.69L122.02 26.50Q122.92 28.25 124.10 31.52L124.25 31.67L124.20 31.62Q125.51 35.25 126.16 36.66L126.13 36.63L126.08 36.58Q127.85 30.24 133.33 25.67L133.36 25.70L133.45 25.79Q134.62 25.66 137.36 25.09L137.35 25.08L137.47 25.20Q128.62 31.01 127.44 40.99L127.61 41.16L126.81 40.89L126.88 40.96Q126.46 40.84 126.12 40.88ZM129.23 43.46L131.26 43.62L131.17 43.54Q130.91 42.05 130.91 40.53L130.96 40.58L130.93 40.55Q130.87 37.26 132.28 34.03L132.23 33.97L132.25 33.99Q134.34 29.57 138.45 26.49L138.46 26.50L138.34 26.38Q137.16 26.68 135.29 27.02L135.36 27.09L135.36 27.09Q137.37 25.48 138.66 24.57L138.58 24.49L136.11 24.98L136.11 24.98Q134.90 25.22 133.57 25.38L133.53 25.34L133.49 25.30Q128.31 29.52 126.37 34.55L126.48 34.66L126.39 34.56Q125.82 32.47 124.45 28.21L124.39 28.15L124.36 28.12Q124.02 28.12 123.75 28.12L123.76 28.13L123.25 28.15L123.37 28.27Q123.22 27.93 122.42 26.18L122.48 26.24L120.40 26.22L120.27 26.09Q119.43 29.02 117.34 34.65L117.35 34.66L117.31 34.62Q116.04 31.00 112.96 27.72L112.80 27.56L112.93 27.69Q112.52 27.54 112.21 27.51L112.23 27.53L111.73 27.48L111.79 27.54Q110.94 26.73 109.15 25.13L109.05 25.03L109.09 25.07Q105.84 24.34 104.17 23.84L104.28 23.95L104.19 23.86Q114.97 31.36 114.58 41.68L114.68 41.78L114.57 41.67Q114.77 41.68 115.13 41.64L115.17 41.67L115.07 41.58Q115.54 41.65 115.73 41.65L115.72 41.64L115.68 41.59Q115.71 41.48 115.90 43.57L115.92 43.59L117.75 43.33L117.76 43.33Q120.43 40.60 122.67 34.85L122.66 34.83L122.61 34.78Q124.09 38.62 125.96 41.29L126.10 41.44L125.98 41.31Q126.43 41.42 126.70 41.44L126.64 41.38L126.59 41.34Q126.95 41.44 127.21 41.44L127.19 41.42L129.12 43.35Z"/><path fill="#333" d="M14.98 41.02L15.05 41.10L15.00 41.05Q18.28 36.90 24.98 28.99L24.83 28.84L24.91 28.92Q19.09 29.22 15.32 27.85L15.17 27.71L15.16 27.69Q14.63 26.40 13.86 24.99L13.90 25.02L13.81 24.93Q17.97 26.50 22.42 26.54L22.35 26.47L22.31 26.43Q26.74 26.45 30.93 25.38L31.03 25.48L30.97 25.42Q30.60 26.11 30.33 26.65L30.38 26.70L30.33 26.65Q27.75 28.83 24.94 32.45L24.91 32.42L20.06 38.69L20.17 38.80Q22.38 38.57 24.63 38.65L24.67 38.69L24.58 38.60Q26.75 38.64 29.00 39.02L28.99 39.01L29.07 39.09Q29.15 39.63 29.87 41.64L29.81 41.59L29.78 41.55Q26.08 40.74 22.08 40.86L22.11 40.88L22.05 40.83Q18.13 40.98 14.47 42.16L14.60 42.29L14.42 42.11Q14.62 42.08 15.08 41.13ZM13.93 42.80L13.90 42.77L13.95 42.82Q14.83 42.60 16.43 42.18L16.29 42.04L16.30 42.05Q16.08 42.29 15.67 42.70L15.66 42.70L15.68 42.72Q15.38 43.22 14.77 44.36L14.79 44.38L14.76 44.35Q19.61 43.15 24.60 43.30L24.59 43.29L24.48 43.19Q29.41 43.31 33.98 45.18L34.14 45.35L34.12 45.32Q32.69 43.47 31.78 41.42L31.77 41.41L31.62 41.26Q31.02 41.12 29.96 40.89L29.93 40.87L29.92 40.86Q29.65 40.05 29.27 38.60L29.27 38.61L29.38 38.71Q27.74 38.29 24.16 38.18L24.15 38.17L24.17 38.19Q26.52 34.83 31.54 28.47L31.60 28.52L31.54 28.46Q31.91 27.85 32.59 26.51L32.51 26.43L30.17 27.13L30.24 27.20Q30.41 27.23 30.57 27.11L30.38 26.93L30.72 26.89L30.70 26.87Q31.03 25.67 31.60 24.72L31.71 24.83L31.66 24.78Q27.05 26.18 22.33 26.11L22.40 26.18L22.42 26.20Q17.45 25.95 12.96 24.12L13.01 24.18L13.03 24.19Q14.14 25.99 14.94 28.05L14.96 28.06L14.92 28.03Q15.76 28.33 16.82 28.60L17.00 28.78L16.97 28.74Q17.13 29.40 17.44 30.85L17.47 30.88L17.32 30.73Q18.93 31.01 22.24 31.16L22.28 31.19L22.31 31.23Q19.89 34.52 14.72 40.96L14.72 40.96L14.71 40.95Q14.43 41.51 13.86 42.72Z"/><path fill="#333" d="M76.91 41.01L76.90 41.00L76.90 41.00Q75.59 39.30 74.29 36.22L74.29 36.21L72.08 30.99L72.20 31.12Q70.55 35.06 69.94 36.35L69.83 36.25L70.00 36.42Q68.47 39.27 66.87 41.17L66.98 41.28L66.96 41.26Q66.49 41.17 65.73 41.29L65.80 41.35L65.80 41.36Q65.70 33.84 59.88 27.90L59.96 27.98L59.86 27.87Q58.13 26.07 56.11 24.58L56.19 24.66L56.18 24.65Q57.99 25.17 59.86 25.47L59.86 25.48L59.94 25.56Q65.97 30.49 67.42 36.73L67.35 36.66L67.29 36.60Q68.30 34.87 69.48 31.67L69.52 31.71L69.57 31.76Q70.87 27.96 71.44 26.66L71.42 26.64L72.82 26.64L72.88 26.69Q73.72 28.38 74.90 31.65L74.76 31.51L74.79 31.54Q76.04 35.11 76.69 36.52L76.71 36.54L76.71 36.55Q78.61 30.33 84.09 25.77L84.06 25.73L84.09 25.76Q85.28 25.66 88.02 25.09L88.13 25.20L88.10 25.17Q79.38 31.10 78.20 41.07L78.22 41.10L77.62 41.03L77.49 40.90Q77.22 40.94 76.88 40.98ZM79.86 43.42L81.88 43.58L81.93 43.63Q81.66 42.14 81.66 40.61L81.52 40.48L81.60 40.56Q81.50 37.22 82.91 33.99L82.97 34.05L82.98 34.06Q85.00 29.57 89.11 26.48L89.04 26.41L89.10 26.47Q87.92 26.78 86.06 27.12L85.90 26.97L85.97 27.04Q87.94 25.39 89.24 24.47L89.17 24.41L86.83 25.03L86.78 24.99Q85.60 25.26 84.27 25.41L84.11 25.25L84.15 25.29Q79.08 29.62 77.14 34.65L77.05 34.56L77.05 34.56Q76.43 32.42 75.06 28.15L75.03 28.13L75.15 28.24Q74.78 28.22 74.52 28.22L74.57 28.27L74.02 28.26L74.01 28.24Q73.80 27.84 73.00 26.09L73.02 26.11L70.91 26.06L71.03 26.18Q70.00 28.92 67.91 34.55L68.03 34.68L67.96 34.60Q66.65 30.94 63.57 27.67L63.55 27.65L63.47 27.57Q63.35 27.71 63.04 27.67L62.93 27.56L62.41 27.49L62.49 27.57Q61.57 26.69 59.78 25.09L59.75 25.06L59.77 25.09Q56.56 24.38 54.88 23.89L54.84 23.84L54.93 23.93Q65.73 31.46 65.34 41.78L65.34 41.77L65.36 41.79Q65.51 41.75 65.87 41.71L65.89 41.73L65.92 41.76Q66.10 41.54 66.29 41.54L66.32 41.57L66.33 41.58Q66.31 41.40 66.50 43.50L66.56 43.57L68.43 43.34L68.56 43.47Q71.09 40.59 73.33 34.84L73.26 34.77L73.44 34.95Q74.86 38.73 76.73 41.40L76.70 41.37L76.67 41.33Q76.91 41.23 77.17 41.25L77.37 41.45L77.28 41.36Q77.53 41.36 77.80 41.36L77.83 41.39L79.86 43.42Z"/><path fill="#222" d="M103.60 37.84L103.69 37.93L103.65 37.88Q103.96 38.88 104.49 40.90L104.53 40.93L104.59 40.99Q100.22 39.51 95.61 39.78L95.60 39.77L95.67 39.84Q91.06 40.06 87.06 42.04L87.17 42.15L87.12 42.10Q87.29 41.36 87.33 41.43L87.45 41.56L87.30 41.40Q91.13 37.55 95.05 33.13L95.00 33.08L94.94 33.02Q99.49 28.17 100.67 23.49L100.54 23.35L100.62 23.43Q101.10 21.70 99.83 20.52L99.91 20.60L99.72 20.42Q98.52 19.31 96.73 19.46L96.84 19.58L96.71 19.45Q96.40 19.44 96.06 19.44L96.13 19.52L96.15 19.53Q94.55 19.46 93.30 20.37L93.34 20.41L93.31 20.39Q91.95 21.69 92.18 24.35L92.20 24.38L92.16 24.34Q90.39 24.02 89.18 23.56L89.24 23.63L89.14 23.53Q89.03 22.20 88.95 20.75L88.93 20.73L88.85 20.65Q88.87 19.10 89.48 17.96L89.56 18.04L89.48 17.96Q91.29 16.61 94.64 16.61L94.52 16.49L96.35 16.57L96.28 16.50Q98.62 16.60 99.57 16.71L99.70 16.84L99.57 16.71Q104.01 17.23 104.27 19.66L104.28 19.67L104.26 19.65Q104.21 20.09 104.14 20.89L104.30 21.06L104.30 21.06Q104.21 21.66 104.06 22.34L104.02 22.31L103.95 22.23Q102.39 30.42 94.81 37.27L94.90 37.35L94.73 37.19Q96.21 37.10 97.58 37.10L97.60 37.13L97.52 37.05Q100.88 37.17 103.74 37.97ZM103.13 17.11L103.07 17.05L103.14 17.12Q101.41 16.34 99.69 16.26L99.76 16.33L96.42 16.23L96.39 16.20Q91.85 15.84 89.64 16.94L89.62 16.93L89.77 17.08Q88.56 18.30 88.56 20.36L88.55 20.35L88.67 20.47Q88.77 21.25 89.07 24.06L88.88 23.88L89.00 24.00Q89.60 24.29 90.78 24.59L90.61 24.42L90.76 25.60L90.60 25.44Q90.58 25.92 90.66 26.45L90.72 26.51L90.83 26.62Q92.00 26.65 94.48 26.88L94.37 26.78L94.50 26.90Q94.32 26.39 94.32 26.04L94.50 26.22L94.33 26.05Q94.41 24.30 95.63 22.95L95.64 22.96L95.62 22.94Q96.85 21.60 98.64 21.71L98.59 21.67L98.64 21.72Q99.32 21.67 100.08 21.83L100.08 21.82L100.11 21.85Q100.26 22.27 100.34 22.69L100.33 22.68L100.37 22.72Q100.34 23.08 100.27 23.42L100.28 23.44L100.32 23.47Q99.12 28.29 94.71 33.13L94.63 33.05L94.67 33.09Q92.50 35.30 87.05 41.35L87.12 41.41L87.10 41.40Q86.96 42.29 86.62 42.86L86.58 42.82L86.57 42.80Q88.22 41.99 89.75 41.45L89.60 41.30L89.66 41.37Q88.96 41.96 88.01 43.44L87.99 43.43L88.08 43.52Q87.81 43.70 87.70 44.05L87.81 44.16L87.68 44.03Q92.65 42.07 98.13 42.26L98.08 42.21L98.17 42.30Q103.86 42.47 108.43 44.83L108.39 44.79L107.31 42.57L107.32 42.58Q106.74 41.32 106.48 40.52L106.54 40.58L106.48 40.52Q105.73 40.08 104.51 39.66L104.43 39.58L104.49 39.64Q104.39 38.96 104.01 37.59L103.99 37.58L103.95 37.53Q101.75 36.98 99.47 36.79L99.56 36.88L99.56 36.88Q104.24 32.31 105.77 24.05L105.69 23.98L105.84 21.04L105.83 21.03Q105.77 19.25 104.55 18.57L104.56 18.58L104.57 18.63L104.46 18.52Q104.47 18.49 104.40 18.49L104.38 18.48L104.49 18.58Q104.15 17.64 103.05 17.03Z"/></svg>