<svg xmlns="http://www.w3.org/2000/svg" width="150" height="50" viewBox="0,0,150,50"><path fill="#333" d="M53.04 28.69L53.14 28.79L47.22 28.84L47.22 28.84Q44.18 28.77 41.24 28.69L41.34 28.79L41.32 28.77Q41.38 35.42 39.33 40.94L39.30 40.91L39.32 40.93Q37.49 41.42 35.74 42.11L35.81 42.18L35.83 42.20Q38.64 36.52 38.64 29.86L38.58 29.79L38.57 29.79Q38.60 21.32 34.48 14.28L34.50 14.30L34.44 14.23Q35.91 14.98 38.38 15.78L38.50 15.90L38.41 15.81Q40.63 20.96 41.16 25.83L41.11 25.78L41.12 25.79Q44.24 26.13 47.09 26.09L47.14 26.13L47.24 26.23Q49.88 26.22 53.20 25.95L53.17 25.93L53.15 25.91Q53.60 21.48 55.35 16.38L55.32 16.35L55.29 16.32Q57.30 15.97 59.55 15.13L59.56 15.15L59.53 15.12Q55.90 21.84 55.90 29.79L55.90 29.80L55.89 29.79Q55.86 35.96 58.22 41.29L58.26 41.33L58.26 41.33Q56.71 40.77 54.65 40.46L54.56 40.37L54.53 40.34Q53.00 35.46 53.11 28.76ZM54.39 40.82L54.29 40.71L54.43 40.85Q55.44 40.98 56.54 41.25L56.51 41.22L56.38 41.09Q56.89 41.98 57.53 43.46L57.42 43.34L57.43 43.35Q60.87 44.40 62.66 45.31L62.61 45.26L62.51 45.16Q58.23 39.17 57.93 30.91L57.78 30.76L57.84 30.82Q57.53 22.79 61.19 15.97L61.17 15.95L60.20 16.51L60.07 16.38Q59.63 16.66 59.02 16.82L59.03 16.83L59.02 16.81Q59.53 16.10 60.37 14.54L60.20 14.37L60.24 14.42Q57.68 15.55 55.06 16.05L55.06 16.05L54.96 15.95Q53.28 20.78 52.83 25.47L52.92 25.56L52.78 25.42Q50.33 25.67 47.89 25.67L47.85 25.63L47.90 25.68Q45.57 25.75 43.06 25.60L42.94 25.48L42.95 25.49Q42.85 22.34 41.74 18.27L41.64 18.16L41.68 18.21Q41.09 18.18 39.64 17.80L39.63 17.79L39.50 17.66Q39.28 16.60 38.82 15.57L38.72 15.48L38.81 15.56Q35.92 14.65 33.63 13.39L33.69 13.45L33.65 13.41Q38.34 20.95 38.34 29.75L38.21 29.62L38.33 29.74Q38.32 36.69 35.19 42.82L35.12 42.74L35.20 42.83Q35.90 42.53 37.23 41.96L37.26 41.99L37.13 41.86Q36.90 42.82 36.10 44.34L36.09 44.33L35.98 44.22Q38.98 43.41 41.22 42.99L41.14 42.91L41.20 42.96Q42.96 37.30 43.15 31.13L43.09 31.07L43.15 31.14Q44.75 31.05 47.94 31.01L48.06 31.13L48.01 31.08Q50.76 30.94 52.66 31.01L52.67 31.02L52.66 31.01Q53.10 36.94 54.44 40.86Z"/><path fill="#333" d="M31.86 34.65L31.98 34.77L31.94 34.73Q31.90 38.27 28.74 39.56L28.75 39.57L28.69 39.51Q26.89 40.42 22.48 40.57L22.39 40.48L22.42 40.51Q17.70 40.70 15.45 39.52L15.50 39.57L15.46 39.53Q13.51 38.12 13.67 34.77L13.78 34.88L13.77 34.88Q13.76 34.21 13.95 32.23L13.88 32.16L13.99 32.27Q14.11 30.68 14.11 29.69L14.04 29.62L14.03 29.61Q14.07 21.66 9.89 14.24L9.82 14.16L9.92 14.27Q11.07 14.93 14.04 15.99L14.04 15.99L13.98 15.93Q16.81 22.61 16.81 29.99L16.95 30.13L16.94 30.12Q16.85 30.64 16.75 31.82L16.77 31.84L16.79 31.86Q16.75 33.09 16.75 33.70L16.66 33.61L16.66 33.61Q16.77 36.00 18.33 36.99L18.29 36.95L18.21 36.87Q19.84 37.67 22.81 37.67L22.85 37.70L22.82 37.68Q25.58 37.81 27.21 36.63L27.11 36.52L27.12 36.53Q29.03 35.25 28.88 32.74L28.74 32.59L28.86 32.71Q28.71 31.27 28.71 29.94L28.71 29.93L28.67 29.90Q28.81 23.00 31.21 16.49L31.09 16.36L33.31 15.84L33.26 15.80Q34.32 15.60 35.42 15.14L35.34 15.06L35.37 15.09Q31.69 22.26 31.69 29.83L31.57 29.72L31.74 29.88Q31.56 30.54 31.69 32.18L31.80 32.28L31.75 32.24Q32.00 33.99 32.00 34.79ZM34.02 35.56L34.11 35.64L34.11 35.64Q33.17 30.63 33.89 25.53L33.96 25.59L33.82 25.45Q34.63 20.32 37.02 15.94L37.03 15.94L37.03 15.95Q36.38 16.21 34.93 16.86L34.92 16.84L35.02 16.95Q35.25 15.96 36.05 14.40L36.16 14.51L36.08 14.42Q32.75 15.78 30.85 16.12L30.78 16.05L30.69 15.96Q28.35 22.50 28.35 29.77L28.45 29.87L28.44 29.86Q28.35 31.14 28.43 32.55L28.51 32.63L28.45 32.57Q28.67 35.04 26.88 36.26L26.85 36.22L26.82 36.19Q25.46 37.39 22.95 37.43L22.95 37.43L22.82 37.30Q20.01 37.30 18.56 36.54L18.60 36.58L18.61 36.59Q18.57 36.13 18.50 35.67L18.53 35.71L18.41 35.59Q18.54 35.26 18.66 34.77L18.63 34.75L18.46 34.58Q18.86 32.42 18.86 30.10L18.78 30.02L18.82 30.06Q18.75 24.17 17.23 18.27L17.26 18.30L17.31 18.35Q16.46 18.11 15.05 17.76L15.17 17.88L15.17 17.88Q14.64 16.44 14.18 15.53L14.34 15.68L14.34 15.69Q11.57 14.86 9.17 13.49L9.23 13.54L9.16 13.47Q13.71 20.99 13.71 29.71L13.69 29.69L13.76 29.76Q13.75 31.39 13.60 33.10L13.63 33.13L13.67 33.17Q13.30 35.43 13.37 36.61L13.39 36.62L13.36 36.59Q13.51 38.53 14.77 39.67L14.85 39.76L14.85 39.76Q15.77 42.17 20.42 42.55L20.42 42.55L20.49 42.61Q22.57 42.76 24.70 42.83L24.65 42.79L24.78 42.91Q30.16 43.11 32.94 42.16L32.93 42.16L32.92 42.14Q34.47 41.21 34.47 39.16L34.40 39.09L34.49 39.18Q34.51 38.06 34.05 35.58Z"/><path fill="#222" d="M64.90 47.04L64.89 47.03L64.94 47.08Q63.99 47.27 62.08 47.57L62.02 47.51L62.05 47.54Q63.43 45.46 64.46 44.16L64.31 44.01L64.41 44.12Q66.22 44.48 66.37 44.48L66.32 44.43L66.27 44.38Q66.56 44.43 67.09 44.32L67.10 44.33L67.16 44.38Q67.93 44.40 68.12 44.40L68.06 44.34L68.05 44.32Q70.51 43.97 70.44 41.80L70.58 41.95L70.45 41.82Q70.47 40.39 70.35 34.14L70.30 34.09L70.30 34.09Q70.29 30.58 70.36 26.43L70.48 26.54L71.71 26.18L71.76 26.22Q72.48 26.18 73.16 25.95L73.21 26.00L73.06 25.85Q72.90 30.33 72.94 34.71L72.87 34.65L72.94 34.72Q72.98 39.10 73.52 43.47L73.45 43.41L73.60 43.56Q73.56 43.75 73.56 44.02L73.60 44.06L73.57 44.02Q73.52 45.61 71.84 45.99L71.86 46.01L71.87 46.02Q68.87 46.52 65.03 47.17ZM71.64 22.79L69.63 19.79L69.68 19.84Q70.59 18.31 72.41 15.53L72.53 15.65L72.37 15.49Q73.13 16.48 74.46 18.30L74.51 18.35L71.68 22.83ZM74.75 49.51L74.69 49.44L74.66 49.41Q75.17 49.43 75.94 49.09L75.95 49.10L76.03 49.19Q76.41 48.54 76.41 48.08L76.44 48.11L76.32 47.99Q76.37 47.69 76.25 47.09L76.21 47.05L76.11 46.95Q74.89 40.66 74.89 32.74L74.83 32.68L74.81 32.66Q74.84 29.84 74.99 26.94L74.95 26.90L74.96 26.91Q74.59 27.26 73.45 27.57L73.35 27.47L73.26 27.38Q73.37 27.00 73.41 26.46L73.47 26.53L73.52 25.39L73.45 25.33Q71.79 26.03 70.00 26.07L70.04 26.10L69.98 26.04Q69.99 30.43 70.03 34.01L69.95 33.93L70.11 41.82L70.12 41.83Q70.25 43.86 68.08 43.97L67.97 43.87L67.98 43.88Q67.77 43.90 67.26 43.95L67.29 43.99L67.20 43.89Q66.79 44.06 66.52 44.06L66.50 44.03L66.56 44.09Q66.09 44.08 64.53 43.67L64.50 43.63L64.35 43.48Q63.97 44.17 62.86 45.84L62.98 45.96L61.29 48.12L61.35 48.17Q62.27 48.03 63.91 47.65L63.84 47.57L63.42 48.34L62.98 49.08L62.91 49.01Q65.17 48.83 66.50 48.91L66.58 48.99L66.50 48.91Q68.73 49.00 74.66 49.42ZM71.59 23.51L71.66 23.58L71.97 23.00L72.09 23.13Q72.32 23.44 73.27 25.03L73.33 25.09L73.30 25.06Q74.95 22.07 76.52 18.99L76.40 18.87L76.46 18.93Q75.49 17.36 74.54 16.06L74.50 16.02L74.59 16.11Q74.39 16.33 74.05 16.87L73.88 16.70L74.00 16.81Q73.58 16.17 72.59 14.87L72.46 14.74L72.55 14.84Q71.44 16.50 69.11 19.85L68.97 19.71L68.98 19.72Q69.95 20.98 71.66 23.57Z"/><path fill="#111" d="M121.16 41.27L121.16 41.27L121.35 41.47Q118.37 41.52 117.11 40.99L117.11 40.99L117.09 40.97Q115.14 40.16 115.21 37.69L115.22 37.69L115.15 37.62Q115.40 34.33 115.40 34.90L115.40 34.90L115.34 34.84Q115.39 29.57 112.54 24.73L112.46 24.66L112.52 24.72Q114.59 25.76 116.57 26.14L116.54 26.10L116.50 26.07Q118.21 30.67 118.10 35.16L118.09 35.16L118.08 35.15Q117.92 36.62 118.75 37.84L118.83 37.91L118.77 37.85Q119.72 39.22 121.24 39.03L121.20 38.99L121.59 38.89L121.58 38.88Q123.01 38.90 123.83 38.13L123.68 37.98L123.77 38.07Q124.52 37.25 124.52 36.30L124.48 36.26L124.56 36.34Q124.56 36.11 124.52 35.92L124.49 35.89L124.60 35.99Q124.43 30.64 125.57 26.30L125.62 26.36L125.65 26.38Q126.59 26.22 127.58 25.99L127.64 26.05L129.62 25.51L129.55 25.45Q127.03 30.50 127.33 36.06L127.30 36.03L127.36 36.09Q127.66 39.28 125.95 40.42L125.94 40.42L125.96 40.43Q124.60 41.25 121.29 41.40ZM123.51 43.69L123.55 43.74L123.64 43.83Q127.14 44.02 128.97 43.26L128.91 43.19L128.86 43.14Q129.83 42.44 129.83 41.03L129.70 40.90L129.88 41.09Q129.74 40.03 129.48 38.47L129.55 38.55L129.43 38.43Q128.99 35.32 129.37 32.31L129.35 32.29L129.49 32.43Q129.85 29.25 131.26 26.51L131.20 26.46L131.26 26.51Q130.58 26.79 129.25 27.21L129.29 27.24L129.22 27.17Q129.47 26.59 129.78 26.02L129.84 26.08L130.30 24.83L130.43 24.96Q128.48 25.60 125.32 26.09L125.33 26.11L125.22 25.99Q124.05 30.83 124.20 35.93L124.14 35.87L124.24 35.98Q124.33 38.09 121.67 38.58L121.59 38.50L121.35 38.72L121.14 38.66L120.07 38.39L120.25 38.57Q120.07 37.59 120.11 37.10L120.01 37.00L120.13 37.12Q120.23 32.50 119.55 28.09L119.65 28.19L118.63 28.08L118.57 28.02Q118.00 27.95 117.47 27.83L117.49 27.86L117.56 27.93Q117.08 26.42 116.82 25.66L116.89 25.74L116.82 25.67Q114.12 25.32 111.87 24.03L111.87 24.02L111.73 23.88Q114.02 27.54 114.74 30.93L114.63 30.82L114.70 30.89Q115.17 33.07 115.02 36.58L115.09 36.65L114.97 36.53Q114.98 36.65 114.90 37.75L114.98 37.83L114.88 37.73Q114.74 40.11 116.11 41.06L116.14 41.08L116.19 41.14Q116.52 43.33 123.52 43.71Z"/><path fill="#333" d="M97.33 40.18L97.28 40.14L97.29 40.14Q95.53 40.18 93.86 40.75L93.81 40.70L93.86 40.75Q94.31 37.05 94.42 33.93L94.45 33.95L94.51 34.02Q94.56 30.91 94.33 27.25L94.33 27.25L94.40 27.32Q93.02 26.96 92.25 26.58L92.14 26.47L91.82 23.53L91.77 23.47Q92.56 24.14 94.15 24.71L94.21 24.77L94.19 24.75Q93.92 22.57 93.50 19.83L93.52 19.85L93.39 19.72Q95.78 20.51 97.41 20.36L97.34 20.29L97.20 24.86L97.29 24.95Q98.72 24.90 100.06 24.41L100.04 24.39L100.03 24.38Q99.99 25.30 99.77 27.05L99.70 26.98L99.73 27.02Q98.18 27.33 97.15 27.33L97.30 27.48L97.30 27.48Q97.27 29.62 97.27 33.88L97.30 33.91L97.27 33.88Q97.25 38.01 97.33 40.18ZM100.38 23.74L100.44 23.80L100.42 23.78Q100.12 23.86 99.51 24.09L99.58 24.17L99.94 21.36L99.91 21.33Q99.19 21.72 97.78 21.95L97.84 22.01L97.77 21.93Q97.72 21.20 97.87 19.83L97.96 19.91L98.01 19.96Q97.28 19.92 96.71 19.92L96.74 19.95L96.80 20.01Q94.55 19.90 92.92 19.17L93.02 19.27L92.90 19.16Q93.37 21.61 93.64 24.09L93.73 24.17L93.63 24.08Q92.77 23.75 91.25 22.72L91.40 22.87L91.40 22.87Q91.70 24.13 91.93 26.83L91.93 26.83L91.86 26.76Q92.29 26.96 93.47 27.38L93.61 27.52L93.55 27.46Q93.48 28.00 93.52 29.41L93.69 29.58L93.94 29.49L94.12 29.59L94.16 29.63Q94.17 30.82 94.17 32.00L94.20 32.03L94.09 31.92Q94.14 36.92 93.34 41.26L93.41 41.33L93.27 41.19Q93.61 41.23 95.55 40.69L95.41 40.55L95.48 40.62Q95.58 41.37 95.47 42.74L95.40 42.68L95.32 42.59Q96.24 42.64 97.04 42.64L96.95 42.55L96.97 42.56Q98.68 42.57 100.32 43.14L100.40 43.22L100.42 43.24Q98.97 37.41 99.16 29.49L99.19 29.52L101.58 29.14L101.55 29.10Q101.69 28.25 101.76 27.22L101.83 27.29L102.03 25.28L101.99 25.24Q101.37 25.46 100.19 25.91L100.11 25.83L100.19 25.91Q100.41 24.50 100.34 24.16L100.48 24.30L100.32 24.14Q100.39 24.02 100.47 23.83Z"/></svg>