<svg xmlns="http://www.w3.org/2000/svg" width="150" height="50" viewBox="0,0,150,50"><path fill="#111" d="M90.06 49.70L90.07 49.71L89.92 49.56Q92.91 45.78 95.81 39.57L95.75 39.52L95.85 39.62Q92.58 32.92 86.49 24.85L86.66 25.02L86.51 24.88Q88.42 26.02 91.20 26.67L91.19 26.66L91.17 26.64Q94.82 31.43 97.25 36.64L97.25 36.64L97.20 36.59Q99.47 31.40 102.56 26.99L102.44 26.87L102.55 26.98Q104.70 26.58 106.80 25.78L106.86 25.84L106.70 25.69Q103.37 29.59 99.90 37.01L99.88 36.99L97.06 43.00L97.12 43.06Q95.70 46.21 93.95 48.84L93.92 48.81L93.78 48.67Q91.41 49.08 89.97 49.61ZM96.16 50.97L96.14 50.95L96.21 51.02Q97.81 48.01 99.25 44.74L99.39 44.87L102.08 38.50L101.98 38.40Q105.54 30.42 108.85 26.43L108.82 26.40L108.87 26.45Q107.48 27.08 105.58 27.76L105.57 27.75L106.76 26.50L106.57 26.32Q107.29 25.78 107.90 25.09L107.89 25.09L107.87 25.07Q105.23 26.16 102.38 26.62L102.33 26.57L102.25 26.49Q99.48 30.38 97.54 34.84L97.68 34.98L97.61 34.91Q95.90 31.52 94.11 28.70L94.27 28.86L94.15 28.74Q94.04 28.82 93.68 28.79L93.60 28.70L93.56 28.66Q93.35 28.79 93.16 28.79L93.01 28.63L93.03 28.65Q92.28 27.41 91.33 26.27L91.36 26.30L91.41 26.35Q88.20 25.65 85.46 23.93L85.45 23.93L85.53 24.00Q91.61 31.84 95.30 39.45L95.33 39.48L95.40 39.55Q93.15 44.53 89.07 50.16L89.13 50.22L89.10 50.19Q89.95 49.94 90.75 49.79L90.78 49.81L92.42 49.47L92.43 49.49Q91.68 50.07 90.50 51.71L90.57 51.78L90.68 51.88Q92.91 51.22 96.18 50.99Z"/><path fill="#222" d="M119.63 28.65L119.68 28.69L119.51 28.52Q116.76 28.59 116.00 30.84L116.02 30.86L116.01 30.85Q115.87 31.66 115.76 32.31L115.62 32.17L115.65 32.20Q118.26 32.42 119.90 32.42L119.86 32.38L119.96 32.48Q121.60 32.48 124.19 32.36L124.25 32.43L124.22 32.40Q123.98 30.56 122.57 29.49L122.60 29.52L122.71 29.63Q121.29 28.52 119.50 28.52ZM119.63 41.13L119.77 41.27L119.65 41.15Q115.55 41.27 114.25 39.87L114.15 39.76L114.07 39.68Q113.24 38.36 113.09 35.09L113.07 35.06L113.01 35.01Q113.08 34.85 113.00 33.48L112.98 33.46L112.90 33.38Q112.79 31.10 112.79 30.37L112.88 30.46L112.81 30.39Q112.80 28.51 113.52 27.41L113.58 27.46L113.50 27.38Q114.99 26.06 117.95 26.06L117.94 26.04L119.52 26.06L119.58 26.11Q121.50 25.98 123.02 26.29L123.13 26.39L122.99 26.25Q125.12 26.79 126.11 28.00L126.13 28.03L126.07 27.96Q126.81 29.16 126.88 31.25L126.81 31.18L126.81 31.18Q126.86 32.37 126.90 34.54L126.76 34.41L126.80 34.44Q123.97 34.51 121.19 34.51L121.18 34.50L115.54 34.45L115.57 34.48Q115.69 38.86 119.76 38.64L119.75 38.62L119.78 38.65Q123.65 38.57 124.87 36.74L124.90 36.77L124.85 36.72Q125.63 37.16 127.23 38.34L127.35 38.45L127.27 38.38Q126.01 40.89 121.86 41.15L121.77 41.06L121.87 41.16Q121.01 41.07 119.64 41.14ZM121.95 43.49L122.10 43.63L121.99 43.52Q123.12 43.52 124.34 43.60L124.21 43.46L124.36 43.62Q129.23 43.69 130.15 40.91L130.27 41.04L130.11 40.88Q128.49 39.64 127.39 38.88L127.54 39.03L127.43 38.91Q127.58 38.49 127.77 38.27L127.91 38.41L127.74 38.24Q127.02 37.78 125.65 36.83L125.63 36.82L125.75 36.94Q126.75 36.91 128.81 37.21L128.84 37.25L128.83 37.24Q128.76 35.99 128.69 35.30L128.64 35.25L128.50 33.33L128.47 33.29Q128.28 30.90 127.63 29.41L127.69 29.47L127.68 29.46Q127.47 29.17 126.90 28.56L126.86 28.53L126.75 28.42Q126.73 28.24 126.50 27.67L126.47 27.64L126.45 27.62Q124.53 25.55 119.47 25.55L119.49 25.58L117.82 25.58L117.89 25.65Q114.59 25.58 113.14 27.07L113.22 27.15L113.19 27.11Q112.39 28.10 112.42 30.16L112.39 30.12L112.48 30.22Q112.61 31.26 112.72 33.50L112.62 33.40L112.63 33.41Q112.66 34.96 112.77 37.01L112.85 37.09L112.95 37.19Q113.06 39.29 113.94 40.35L114.03 40.44L113.95 40.36Q114.20 40.61 114.39 40.72L114.42 40.75L114.58 41.26L114.62 41.30Q115.40 43.14 121.98 43.52ZM119.82 38.28L119.85 38.31L119.83 38.29Q118.63 38.34 117.71 37.88L117.85 38.02L117.78 37.95Q117.74 37.56 117.54 36.88L117.48 36.81L117.52 36.85Q119.29 36.84 120.89 36.84L120.86 36.80L120.78 36.72Q122.51 36.78 124.19 36.89L124.20 36.91L124.12 36.82Q122.85 38.19 119.85 38.30ZM121.54 31.01L121.59 31.06L121.55 31.02Q122.19 31.05 123.52 31.43L123.43 31.34L123.61 31.71L123.75 32.04L123.62 31.92Q122.33 32.11 121.42 32.07L121.31 31.96L121.33 31.98Q119.10 31.99 119.06 31.99L119.10 32.03L119.02 31.95Q119.92 31.18 121.60 31.07Z"/><path fill="#333" d="M72.79 40.20L72.70 40.11L70.53 40.22L70.57 40.26Q70.15 40.29 69.17 40.35L69.20 40.38L69.21 40.39Q68.26 40.47 67.77 40.47L67.81 40.51L67.78 40.48Q66.11 40.45 65.08 39.61L65.04 39.57L65.07 39.60Q65.95 38.57 67.58 36.44L67.47 36.32L67.42 36.27Q68.67 37.83 70.88 37.60L70.91 37.63L71.00 37.72Q71.93 37.62 72.58 36.98L72.59 36.99L72.56 36.96Q73.11 36.21 72.99 35.34L73.08 35.43L73.11 35.45Q73.00 30.85 73.07 26.28L73.06 26.27L73.04 26.25Q73.01 21.57 73.54 16.97L73.64 17.07L73.59 17.02Q75.53 16.83 77.66 15.80L77.64 15.77L77.66 15.79Q75.72 22.45 75.72 29.69L75.75 29.72L75.80 29.77Q75.73 33.24 76.19 36.75L76.21 36.76L76.30 36.85Q76.23 37.05 76.23 37.39L76.40 37.56L76.34 37.51Q76.30 38.03 76.07 38.57L76.18 38.68L76.15 38.65Q75.46 39.78 72.64 40.05ZM77.71 43.02L77.61 42.93L78.09 43.06L78.22 42.77L78.46 42.63L78.62 42.79Q78.90 42.50 78.97 42.38L78.84 42.25L78.90 42.31Q79.14 41.18 78.87 40.19L78.81 40.13L78.74 40.05Q77.43 34.29 77.70 27.93L77.75 27.98L77.71 27.95Q78.07 21.95 79.86 16.05L79.71 15.90L79.85 16.04Q78.87 16.58 77.61 17.31L77.56 17.25L77.67 17.36Q77.83 16.58 78.25 15.05L78.34 15.14L78.26 15.06Q75.70 16.34 73.03 16.65L73.16 16.78L73.09 16.71Q72.67 21.04 72.59 25.99L72.75 26.14L72.77 26.16Q72.65 32.02 72.72 35.45L72.61 35.34L72.75 35.48Q72.75 37.19 71.00 37.34L71.02 37.36L70.97 37.31Q69.32 37.49 67.65 35.86L67.56 35.77L67.50 35.71Q65.57 38.34 64.62 39.90L64.64 39.93L64.63 39.92Q65.26 40.55 66.29 40.78L66.15 40.64L66.13 40.62Q66.06 40.78 65.80 41.01L65.87 41.08L65.81 41.02Q67.26 41.97 69.23 42.24L69.40 42.40L69.30 42.30Q69.76 42.42 73.05 42.73L73.03 42.70L72.98 42.66Q76.27 42.96 77.64 42.96Z"/><path fill="#222" d="M15.64 47.11L15.53 47.00L15.68 47.16Q14.75 47.37 12.85 47.67L12.81 47.63L12.75 47.57Q14.03 45.39 15.06 44.10L15.00 44.04L14.98 44.02Q16.84 44.43 16.99 44.43L16.92 44.36L16.88 44.32Q17.22 44.43 17.75 44.31L17.82 44.38L17.73 44.29Q18.53 44.33 18.72 44.33L18.68 44.29L18.62 44.24Q21.20 43.99 21.12 41.82L21.23 41.93L21.08 41.78Q21.08 40.33 20.96 34.09L21.06 34.18L20.97 34.09Q20.92 30.54 21.00 26.39L21.06 26.46L22.42 26.22L22.40 26.20Q23.12 26.16 23.81 25.93L23.81 25.93L23.77 25.89Q23.59 30.36 23.63 34.74L23.60 34.71L23.54 34.65Q23.54 38.99 24.08 43.37L24.22 43.51L24.07 43.37Q24.24 43.76 24.24 44.02L24.27 44.05L24.34 44.13Q24.18 45.60 22.50 45.98L22.49 45.97L22.55 46.03Q19.44 46.42 15.59 47.07ZM22.46 22.95L20.25 19.74L20.16 19.66Q21.25 18.31 23.08 15.53L23.09 15.54L23.11 15.56Q23.75 16.43 25.08 18.26L25.04 18.22L22.48 22.96ZM25.41 49.50L25.40 49.49L25.34 49.42Q25.85 49.44 26.61 49.10L26.64 49.13L26.63 49.12Q26.93 48.40 26.93 47.94L26.96 47.96L26.96 47.97Q27.03 47.69 26.91 47.08L26.84 47.01L26.86 47.02Q25.52 40.63 25.52 32.71L25.58 32.77L25.64 32.83Q25.48 29.81 25.63 26.92L25.61 26.89L25.65 26.94Q25.15 27.15 24.00 27.46L23.99 27.45L24.04 27.49Q23.93 26.89 23.96 26.35L24.09 26.48L24.09 25.30L24.20 25.41Q22.48 26.05 20.69 26.08L20.58 25.98L20.61 26.00Q20.51 30.28 20.55 33.86L20.60 33.91L20.85 41.89L20.87 41.92Q20.87 43.82 18.70 43.93L18.79 44.02L18.62 43.85Q18.52 43.97 18.00 44.03L17.95 43.98L17.88 43.91Q17.47 44.07 17.20 44.07L17.15 44.01L17.17 44.04Q16.63 43.95 15.07 43.53L15.05 43.52L15.02 43.49Q14.75 44.28 13.64 45.95L13.64 45.95L11.99 48.14L12.08 48.24Q12.93 48.02 14.57 47.64L14.57 47.64L14.09 48.34L13.61 49.05L13.45 48.89Q15.92 48.91 17.25 48.99L17.14 48.88L17.15 48.89Q19.38 48.99 25.32 49.41ZM22.27 23.51L22.34 23.58L22.64 23.01L22.66 23.03Q22.98 23.43 23.94 25.03L23.93 25.03L24.02 25.11Q25.53 21.98 27.09 18.89L27.04 18.85L27.10 18.91Q26.09 17.28 25.14 15.99L25.22 16.07L25.24 16.09Q24.95 16.22 24.61 16.76L24.72 16.86L24.71 16.86Q24.31 16.23 23.32 14.93L23.13 14.75L23.29 14.90Q21.96 16.35 19.64 19.70L19.79 19.85L19.69 19.76Q20.61 20.99 22.33 23.57Z"/><path fill="#111" d="M50.66 29.48L50.64 29.47L50.71 29.54Q49.39 28.63 48.74 28.67L48.93 28.86L48.83 28.76Q47.56 28.93 46.51 29.94L46.46 29.90L46.37 29.81Q45.29 30.78 45.41 32.15L45.48 32.23L45.39 32.14Q45.80 36.58 44.93 41.11L45.01 41.20L44.88 41.07Q42.69 41.54 41.58 42.07L41.61 42.09L41.56 42.05Q43.11 37.92 42.88 33.47L42.77 33.36L42.81 33.40Q42.60 28.92 40.88 24.85L40.99 24.95L40.92 24.88Q41.99 25.50 44.27 26.14L44.27 26.14L44.84 28.84L44.92 28.92Q45.54 25.97 49.81 25.97L49.79 25.95L49.94 26.10Q50.32 26.02 50.62 26.02L50.45 25.85L50.48 25.88Q51.91 26.02 53.17 26.70L53.04 26.57L53.10 26.64Q51.86 28.06 50.72 29.55ZM52.17 31.38L52.44 31.49L52.38 31.44Q53.34 30.33 55.01 27.90L55.02 27.91L54.85 27.74Q54.40 27.40 52.88 27.14L52.88 27.14L52.86 27.12Q53.22 26.83 53.67 26.22L53.84 26.39L53.76 26.31Q51.76 25.30 49.82 25.49L49.85 25.52L49.81 25.47Q48.03 25.83 47.30 26.09L47.31 26.10L47.28 26.06Q45.80 26.41 45.00 27.52L44.98 27.50L44.87 26.74L44.61 25.84L44.70 25.92Q42.29 25.49 40.31 24.16L40.22 24.07L40.37 24.22Q42.39 28.49 42.62 33.36L42.58 33.32L42.72 33.46Q42.81 38.24 41.06 42.77L41.05 42.75L41.16 42.87Q42.18 42.32 43.05 42.02L42.98 41.94L43.09 42.05Q42.80 43.14 42.31 44.20L42.25 44.15L42.28 44.18Q45.19 43.39 47.32 43.28L47.19 43.15L47.51 38.75L47.37 38.61Q47.64 36.51 47.64 34.27L47.64 34.27L47.54 34.17Q47.54 32.99 48.46 32.02L48.50 32.07L48.46 32.03Q49.33 31.01 50.47 30.94L50.49 30.96L50.59 31.06Q51.16 30.86 51.88 31.55L51.85 31.52L52.19 31.39ZM47.29 29.70L47.24 29.57L47.19 29.63L47.19 29.59Z"/></svg>