<svg xmlns="http://www.w3.org/2000/svg" width="150" height="50" viewBox="0,0,150,50"><path fill="#444" d="M122.71 20.19L122.58 20.06L122.58 20.06Q118.32 20.10 114.63 19.11L114.56 19.04L114.65 19.14Q116.10 23.63 116.29 28.47L116.37 28.54L116.38 28.55Q116.59 33.37 115.37 37.97L115.32 37.93L115.27 37.88Q118.05 37.23 121.56 37.08L121.68 37.21L121.66 37.18Q125.46 36.87 127.25 34.43L127.26 34.45L127.41 34.59Q128.82 32.43 129.01 28.32L129.06 28.37L128.99 28.30Q129.13 26.61 128.68 24.90L128.57 24.79L128.71 24.93Q127.43 20.19 122.71 20.19ZM110.75 42.15L110.70 42.10L110.72 42.12Q113.54 36.37 113.54 29.67L113.65 29.78L113.71 29.85Q113.53 21.13 109.23 14.13L109.29 14.20L109.25 14.15Q114.48 16.79 122.74 16.98L122.79 17.03L122.89 17.13Q131.73 17.29 132.07 24.45L132.15 24.53L132.06 24.43Q132.19 27.16 132.16 28.61L132.11 28.56L132.23 28.68Q132.09 33.30 131.25 35.47L131.17 35.39L131.30 35.51Q130.89 36.63 130.13 37.47L130.09 37.43L129.97 37.31Q128.73 38.96 126.10 39.46L125.98 39.33L125.99 39.34Q124.39 39.61 121.38 39.84L121.43 39.89L121.47 39.92Q115.26 40.30 110.65 42.05ZM128.67 42.02L128.61 41.96L128.58 41.93Q131.36 41.63 133.00 40.15L133.05 40.20L133.03 40.18Q134.23 38.41 134.19 35.67L134.09 35.56L134.24 35.72Q134.20 34.31 134.05 30.80L134.04 30.79L133.61 26.18L133.75 26.32Q133.45 23.93 132.50 21.83L132.49 21.83L132.49 21.82Q131.97 20.88 131.28 20.24L131.42 20.37L131.39 20.19L131.27 20.07Q129.65 17.20 125.24 16.81L125.27 16.84L125.23 16.81Q122.56 16.69 115.56 15.97L115.48 15.89L115.61 16.02Q112.19 15.41 108.49 13.40L108.51 13.41L108.54 13.44Q113.31 20.76 113.31 29.52L113.43 29.64L113.37 29.58Q113.33 36.55 109.98 42.72L109.99 42.72L109.97 42.70Q110.66 42.44 111.99 41.95L112.05 42.00L112.13 42.08Q111.66 42.80 110.79 44.28L110.93 44.42L110.90 44.39Q113.86 43.24 117.21 42.75L117.17 42.70L117.16 42.70Q119.24 42.38 122.90 42.27L122.88 42.25L122.94 42.31Q126.93 42.30 128.76 42.11ZM128.64 28.33L128.64 28.32L128.69 28.38Q128.24 36.30 121.54 36.68L121.68 36.83L121.52 36.66Q119.69 36.89 117.63 37.15L117.63 37.16L117.61 37.13Q118.42 33.37 118.42 29.72L118.38 29.68L118.44 29.74Q118.21 25.81 117.49 21.97L117.61 22.10L117.56 22.05Q119.82 22.40 124.51 22.40L124.53 22.42L124.62 22.51Q125.84 22.21 127.48 23.17L127.54 23.23L127.65 23.34Q128.79 25.47 128.64 28.32Z"/><path fill="#444" d="M99.66 27.25L99.66 27.25L99.57 27.16Q100.45 27.24 101.86 27.09L101.72 26.95L101.73 26.96Q101.67 27.59 101.67 28.24L101.78 28.35L101.69 29.51L101.69 29.51Q100.90 29.56 100.06 29.63L100.16 29.72L100.04 29.61Q99.32 29.76 98.48 29.72L98.34 29.58L98.34 29.58Q95.47 35.73 92.04 40.34L92.21 40.51L92.14 40.44Q89.63 41.09 88.34 41.70L88.23 41.59L88.37 41.73Q92.48 36.02 95.53 29.74L95.47 29.68L92.85 29.69L92.85 29.69Q92.92 28.42 92.80 27.09L92.64 26.93L92.82 27.11Q94.70 27.24 96.76 27.24L96.59 27.08L98.51 23.40L98.55 23.43Q99.62 21.61 100.84 20.01L100.76 19.94L100.78 19.96Q99.15 20.04 97.55 20.04L97.73 20.22L97.58 20.07Q91.52 20.10 87.75 17.89L87.83 17.97L87.09 16.16L87.16 16.23Q86.86 15.44 86.48 14.57L86.49 14.58L86.33 14.42Q90.78 17.16 96.50 17.38L96.40 17.29L96.55 17.44Q101.60 17.58 106.74 15.60L106.82 15.68L106.71 15.57Q106.61 16.07 106.11 16.95L106.02 16.86L106.05 16.89Q102.50 21.72 99.65 27.24ZM107.55 18.16L107.61 18.22L108.68 16.28L108.57 16.17Q107.73 16.78 106.06 17.50L106.02 17.47L106.30 17.25L106.22 17.18Q106.40 17.08 106.51 16.97L106.49 16.95L106.35 16.81Q106.76 16.15 107.48 14.82L107.51 14.84L107.45 14.79Q102.30 17.25 96.55 17.03L96.42 16.89L96.45 16.92Q90.38 16.60 85.62 13.63L85.60 13.61L85.64 13.64Q86.68 15.53 87.52 18.19L87.53 18.20L87.47 18.14Q88.63 18.85 89.43 19.15L89.44 19.16L89.49 19.21Q89.67 19.58 90.13 21.45L90.14 21.46L89.99 21.31Q93.20 22.61 98.72 22.46L98.69 22.44L98.84 22.58Q98.51 23.13 96.53 26.90L96.37 26.74L96.49 26.86Q94.41 26.83 92.43 26.64L92.46 26.67L92.37 26.58Q92.48 27.46 92.48 28.33L92.54 28.39L92.55 30.12L94.11 30.00L94.12 31.41L94.18 31.48Q90.32 38.92 87.54 42.50L87.39 42.35L87.41 42.37Q89.07 41.67 90.70 41.17L90.69 41.16L90.76 41.23Q90.04 42.11 88.67 43.82L88.66 43.82L88.74 43.89Q91.75 42.64 94.19 42.41L94.24 42.46L94.22 42.44Q97.18 38.70 100.30 31.92L100.32 31.94L103.69 32.08L103.77 32.16Q103.67 31.22 103.67 30.31L103.66 30.30L103.57 28.42L103.75 28.60Q103.34 28.45 102.78 28.49L102.75 28.45L102.82 28.53Q102.35 28.64 102.08 28.64L102.06 28.62L102.08 28.65Q101.99 28.44 102.03 28.29L102.11 28.36L102.01 28.00L102.11 28.10Q104.53 22.87 107.61 18.23Z"/><path fill="#222" d="M30.47 40.47L30.40 40.40L30.43 40.43Q27.39 36.48 24.76 27.84L24.79 27.86L24.69 27.77Q24.17 25.76 23.37 23.63L23.31 23.57L20.50 32.41L20.54 32.45Q18.66 37.30 16.26 40.54L16.26 40.54L16.23 40.51Q15.37 40.56 13.73 40.71L13.75 40.73L13.65 40.63Q13.78 39.47 13.78 38.21L13.93 38.36L13.83 38.26Q13.83 32.25 11.09 26.12L11.20 26.23L11.14 26.17Q7.90 19.16 2.04 14.17L2.14 14.28L2.18 14.31Q4.22 14.91 6.58 15.44L6.60 15.46L6.65 15.51Q15.38 24.01 16.68 34.98L16.50 34.80L16.52 34.82Q18.25 31.60 19.69 26.23L19.74 26.28L19.59 26.13Q21.57 18.63 22.06 17.22L22.18 17.34L24.35 17.26L24.42 17.33Q25.03 19.27 25.67 21.59L25.72 21.63L27.06 26.17L26.95 26.07Q28.55 31.54 29.95 34.78L30.04 34.86L29.99 34.82Q31.70 23.24 39.61 15.89L39.53 15.80L39.49 15.76Q41.10 15.51 44.07 14.86L44.12 14.91L44.06 14.85Q38.71 19.13 35.66 25.26L35.71 25.30L35.71 25.31Q32.52 31.44 32.52 38.22L32.51 38.21L32.62 38.32Q32.62 39.43 32.70 40.57L32.67 40.54L31.54 40.44L31.60 40.50Q31.00 40.43 30.43 40.43ZM36.64 43.29L36.60 43.26L36.63 43.28Q35.27 39.60 35.38 35.71L35.44 35.78L35.54 35.87Q35.73 24.18 45.09 15.92L45.25 16.08L45.11 15.94Q44.27 16.28 42.33 16.81L42.35 16.83L42.30 16.78Q43.28 15.97 45.18 14.18L45.12 14.12L45.09 14.09Q42.52 14.95 39.59 15.44L39.63 15.48L39.49 15.34Q31.96 22.43 30.05 31.91L30.14 31.99L30.13 31.98Q29.54 30.33 26.68 18.87L26.75 18.93L26.67 18.86Q26.21 18.89 25.26 18.89L25.34 18.97L25.07 17.94L24.96 17.83Q24.94 17.39 24.71 16.89L24.73 16.92L21.76 16.84L21.82 16.90Q20.93 19.28 19.65 24.40L19.78 24.53L19.78 24.53Q18.45 29.59 17.46 32.06L17.38 31.99L17.37 31.98Q15.87 24.16 10.31 17.84L10.38 17.90L10.30 17.83Q9.76 17.71 8.81 17.52L8.96 17.67L8.88 17.59Q8.08 16.67 6.52 15.04L6.55 15.07L6.52 15.04Q3.24 14.34 1.07 13.54L1.00 13.48L0.98 13.46Q6.74 18.22 10.01 24.43L9.96 24.37L10.05 24.47Q13.42 31.00 13.42 38.01L13.39 37.97L13.52 38.11Q13.47 39.62 13.28 41.22L13.28 41.22L13.27 41.20Q13.46 41.16 13.91 41.07L13.97 41.13L13.89 41.04Q14.44 41.04 14.67 41.04L14.55 40.92L14.68 42.08L14.57 41.97Q14.53 42.39 14.61 42.92L14.69 43.00L14.78 43.10Q15.92 43.02 18.21 42.87L18.05 42.71L18.19 42.85Q21.64 37.28 24.38 27.88L24.52 28.01L24.45 27.94Q27.34 36.84 30.31 40.80L30.27 40.77L30.22 40.71Q30.63 40.67 31.47 40.79L31.63 40.94L31.59 40.91Q32.37 41.88 33.43 42.94L33.53 43.04L33.50 43.00Q34.17 42.95 36.57 43.22Z"/><path fill="#444" d="M48.09 40.28L48.05 40.24L47.90 40.09Q46.07 40.05 44.39 40.62L44.45 40.67L44.55 40.77Q44.92 36.99 45.03 33.87L45.05 33.89L45.09 33.93Q45.21 30.89 44.98 27.23L45.01 27.26L44.98 27.23Q43.60 26.88 42.84 26.50L42.87 26.53L42.48 23.52L42.45 23.48Q43.18 24.10 44.78 24.67L44.76 24.65L44.74 24.64Q44.55 22.54 44.14 19.80L44.22 19.89L44.15 19.81Q46.39 20.46 48.03 20.30L48.00 20.28L47.87 24.87L48.04 25.04Q49.40 24.92 50.73 24.42L50.66 24.35L50.61 24.29Q50.57 25.20 50.34 26.96L50.44 27.05L50.52 27.14Q48.95 27.43 47.92 27.43L47.80 27.31L47.80 27.32Q47.87 29.55 47.87 33.81L47.81 33.76L47.93 33.88Q47.92 38.02 48.00 40.19ZM51.07 23.77L51.18 23.88L51.17 23.87Q50.89 23.97 50.28 24.19L50.24 24.16L50.65 21.41L50.53 21.29Q49.84 21.70 48.44 21.93L48.36 21.86L48.47 21.97Q48.43 21.24 48.58 19.87L48.60 19.89L48.64 19.93Q47.88 19.85 47.31 19.85L47.48 20.02L47.30 19.84Q45.23 19.91 43.59 19.18L43.53 19.12L43.62 19.21Q44.05 21.62 44.31 24.09L44.34 24.12L44.35 24.13Q43.55 23.86 42.03 22.83L41.92 22.72L41.91 22.71Q42.36 24.12 42.59 26.82L42.52 26.76L42.65 26.88Q43.10 27.11 44.28 27.52L44.11 27.35L44.16 27.41Q44.16 28.01 44.20 29.42L44.19 29.41L44.63 29.51L44.85 29.65L44.78 29.59Q44.87 30.86 44.87 32.04L44.71 31.87L44.73 31.90Q44.86 36.98 44.06 41.32L44.09 41.34L43.97 41.22Q44.27 41.22 46.22 40.69L46.19 40.66L46.09 40.56Q46.09 41.21 45.98 42.58L45.97 42.57L46.06 42.66Q46.91 42.64 47.71 42.64L47.57 42.50L47.76 42.69Q49.30 42.52 50.94 43.09L50.91 43.06L51.08 43.23Q49.77 37.55 49.96 29.63L49.92 29.59L52.20 29.08L52.27 29.16Q52.25 28.15 52.33 27.12L52.32 27.11L52.61 25.20L52.65 25.24Q52.04 25.46 50.86 25.91L50.83 25.89L50.86 25.92Q51.11 24.53 51.04 24.19L51.07 24.23L51.04 24.20Q51.04 24.00 51.11 23.81Z"/><path fill="#333" d="M75.34 30.95L75.24 30.85L75.35 30.96Q75.14 29.64 73.20 28.92L73.31 29.03L73.16 28.88Q72.65 28.67 72.11 28.67L72.18 28.74L72.24 28.80Q70.78 28.70 69.71 29.28L69.73 29.30L69.82 29.39Q68.44 30.10 68.56 31.32L68.49 31.26L68.58 31.34Q68.93 34.17 68.78 36.41L68.64 36.27L68.62 36.25Q68.62 38.84 67.90 41.36L67.80 41.26L67.93 41.39Q65.73 41.81 64.55 42.23L64.56 42.25L64.47 42.15Q66.12 38.59 66.12 34.59L66.07 34.54L66.11 34.58Q66.16 29.19 63.57 24.73L63.58 24.74L63.50 24.67Q64.71 25.15 67.11 25.88L67.08 25.85L67.20 25.97Q67.40 26.59 67.78 28.11L67.93 28.26L67.91 28.24Q69.22 26.12 73.10 26.19L73.08 26.17L73.09 26.18Q74.52 26.17 75.32 26.28L75.25 26.21L75.28 26.25Q78.23 26.61 78.31 28.63L78.43 28.74L78.29 28.61Q78.38 29.57 78.19 30.60L78.29 30.70L78.24 30.65Q77.72 33.10 77.91 36.11L77.93 36.12L77.89 36.08Q78.18 39.08 79.17 41.63L79.03 41.49L79.06 41.52Q77.37 41.12 75.65 40.97L75.69 41.01L75.71 41.02Q75.19 38.60 75.11 35.93L75.07 35.89L75.14 35.96Q75.01 33.16 75.23 30.84ZM75.27 41.30L75.26 41.30L75.36 41.40Q76.10 41.34 77.39 41.57L77.38 41.56L77.76 42.62L77.85 42.71Q77.94 43.11 78.17 43.64L78.28 43.74L78.26 43.73Q80.39 43.99 83.09 45.17L83.19 45.26L83.16 45.24Q80.72 42.03 80.03 38.23L80.05 38.24L80.08 38.27Q79.81 36.22 79.93 32.53L79.86 32.46L79.90 32.50Q79.97 32.27 80.01 31.47L79.90 31.35L79.97 31.42Q80.06 30.83 79.98 30.34L79.87 30.22L79.97 30.33Q79.87 28.66 78.76 28.17L78.81 28.21L78.71 28.11Q78.56 27.27 77.79 26.66L77.76 26.63L77.79 26.66Q76.13 25.69 73.09 25.76L73.10 25.77L73.01 25.68Q71.26 25.84 70.42 26.03L70.29 25.90L70.29 25.89Q68.85 26.24 67.89 27.16L67.95 27.21L67.92 27.18Q67.90 26.74 67.52 25.71L67.39 25.58L67.52 25.72Q64.67 24.99 62.84 24.00L62.84 24.00L62.88 24.04Q65.88 28.87 65.88 34.62L65.76 34.50L65.92 34.66Q65.81 38.93 63.90 42.77L63.94 42.81L63.95 42.82Q64.62 42.50 65.91 42.12L65.97 42.17L65.96 42.16Q65.35 43.31 64.82 44.30L65.00 44.48L64.84 44.31Q66.38 43.99 69.92 43.42L69.75 43.25L69.80 43.29Q70.84 38.21 70.72 33.37L70.63 33.28L70.66 33.31Q70.69 32.54 71.87 31.82L71.87 31.82L71.84 31.79Q72.83 31.11 73.94 30.99L74.03 31.08L74.04 31.10Q74.49 31.05 74.91 31.24L74.83 31.16L74.84 31.17Q74.74 33.77 74.77 36.32L74.68 36.23L74.85 36.39Q74.78 38.80 75.28 41.32Z"/></svg>