<svg xmlns="http://www.w3.org/2000/svg" width="150" height="50" viewBox="0,0,150,50"><path fill="#333" d="M41.62 19.13L41.66 19.17L41.69 19.20Q42.83 23.69 42.98 26.89L42.87 26.78L42.94 26.84Q43.39 26.84 47.77 26.95L47.81 27.00L47.79 26.97Q50.42 27.09 50.80 23.63L50.85 23.68L50.71 23.54Q50.92 21.81 50.01 20.89L50.11 20.99L49.94 20.83Q48.83 20.10 46.85 19.95L46.86 19.95L46.70 19.79Q43.44 19.54 41.57 19.09ZM43.04 28.77L43.09 28.82L43.04 28.78Q43.24 34.80 41.45 40.74L41.49 40.78L41.47 40.76Q40.14 40.99 37.55 42.02L37.65 42.12L37.72 42.19Q40.42 35.56 40.08 28.10L40.11 28.13L40.06 28.08Q39.82 20.80 36.51 14.29L36.55 14.33L36.53 14.31Q41.34 17.07 48.31 17.07L48.31 17.07L48.29 17.05Q53.91 17.03 54.17 20.57L54.24 20.64L54.25 20.65Q54.34 21.27 54.26 21.88L54.29 21.90L54.16 22.99L54.16 22.99Q53.35 26.94 51.21 28.65L51.27 28.71L51.16 28.60Q50.37 29.29 49.34 29.29L49.25 29.20L46.81 29.35L46.81 29.35Q52.31 36.49 56.84 41.05L56.83 41.04L56.93 41.14Q54.73 40.39 51.80 40.04L51.83 40.08L51.73 39.98Q48.00 36.06 43.09 28.83ZM51.73 40.47L51.63 40.37L51.99 40.43L53.25 41.69L53.17 41.61Q53.82 42.22 54.46 42.83L54.45 42.82L54.42 42.79Q57.96 43.40 61.54 45.26L61.47 45.19L61.47 45.19Q54.59 38.50 49.19 31.57L49.16 31.54L50.88 31.52L50.95 31.58Q54.10 31.66 55.44 27.13L55.35 27.04L55.34 27.03Q55.96 24.76 55.96 22.05L56.00 22.10L56.04 22.14Q55.97 19.77 54.25 19.13L54.26 19.14L54.43 19.31Q54.19 18.80 53.62 18.11L53.70 18.19L53.66 18.16Q51.97 16.69 48.32 16.62L48.25 16.55L48.25 16.55Q40.38 16.41 35.69 13.40L35.80 13.50L35.72 13.43Q39.45 20.24 39.80 27.93L39.92 28.05L39.84 27.97Q40.22 35.97 37.10 42.82L37.05 42.77L37.09 42.81Q38.37 42.26 39.17 41.96L39.16 41.95L38.04 44.10L38.14 44.21Q40.94 43.24 43.60 42.74L43.50 42.64L43.62 42.76Q44.77 37.51 44.96 32.29L44.89 32.23L45.01 32.35Q48.57 37.35 51.73 40.47ZM50.31 22.38L50.46 22.53L50.36 22.43Q50.40 22.70 50.40 23.04L50.38 23.02L50.32 23.53L50.32 23.53Q50.49 24.81 49.81 25.76L49.73 25.68L49.75 25.70Q49.05 26.37 48.13 26.56L48.24 26.67L48.23 26.66Q48.04 26.73 46.44 26.77L46.28 26.62L46.30 26.63Q45.81 26.75 44.98 26.64L45.06 26.72L44.95 26.62Q44.94 25.19 44.60 22.15L44.58 22.13L44.60 22.15Q45.84 22.17 46.53 22.17L46.54 22.18L46.63 22.28Q48.38 22.20 50.32 22.39Z"/><path fill="#111" d="M93.04 40.31L93.20 40.48L93.19 40.46Q89.05 40.62 88.06 38.30L88.04 38.28L88.05 38.29Q88.85 37.38 90.41 35.59L90.28 35.46L90.46 35.64Q90.92 37.62 93.92 37.73L93.84 37.64L93.87 37.68Q97.19 37.69 98.83 36.36L98.98 36.51L98.90 36.43Q100.30 34.82 100.22 32.11L100.32 32.21L100.17 32.06Q100.02 27.01 95.23 27.23L95.35 27.36L95.30 27.30Q92.43 27.41 90.68 28.66L90.66 28.64L90.32 28.46L90.20 28.41L90.25 28.46Q90.58 25.29 90.46 22.55L90.45 22.53L90.38 22.46Q90.38 19.95 90.03 16.63L90.03 16.63L89.87 16.47Q93.56 17.46 97.37 17.34L97.49 17.47L97.47 17.44Q101.15 17.24 104.73 15.99L104.76 16.02L104.22 17.57L104.14 17.49Q103.99 18.41 103.80 19.25L103.71 19.16L103.83 19.27Q100.53 20.13 96.65 20.13L96.76 20.23L96.66 20.14Q95.29 20.21 93.80 20.06L93.77 20.03L93.83 20.09Q93.79 20.81 93.45 25.27L93.36 25.18L93.41 25.23Q94.15 24.67 96.21 24.52L96.24 24.55L96.27 24.58Q99.90 24.71 101.35 26.39L101.39 26.42L101.35 26.39Q102.84 28.03 103.11 31.88L103.16 31.93L103.03 31.80Q103.42 36.11 102.20 38.12L102.13 38.05L102.22 38.14Q100.17 40.02 96.86 40.25L96.72 40.11L96.73 40.12Q95.74 40.20 93.08 40.35ZM99.19 42.69L99.21 42.72L99.09 42.60Q102.57 42.72 104.47 41.62L104.47 41.61L104.44 41.58Q105.47 40.10 105.47 38.01L105.47 38.01L105.57 38.11Q105.57 35.02 104.61 30.91L104.43 30.73L104.62 30.91Q104.09 29.01 102.87 27.60L102.91 27.65L102.92 27.70L102.74 27.44L102.32 27.17L102.35 27.19Q102.14 26.57 101.49 25.88L101.46 25.85L101.41 25.84L101.49 25.92Q100.01 24.28 96.31 24.28L96.27 24.24L95.96 24.20L96.02 24.26Q96.10 23.69 96.29 22.58L96.20 22.50L96.19 22.49Q101.17 22.59 105.21 20.96L105.16 20.91L105.21 20.96Q105.72 19.64 106.67 16.82L106.52 16.68L104.62 17.82L104.57 17.77Q104.97 16.65 105.47 15.51L105.39 15.43L105.34 15.38Q101.58 16.91 97.47 16.98L97.44 16.96L97.55 17.07Q93.26 17.00 89.30 15.90L89.39 15.99L89.39 15.99Q90.05 20.38 90.05 24.79L90.05 24.80L90.12 24.87Q90.01 26.66 89.90 28.56L90.04 28.71L90.00 28.67Q90.24 28.83 90.81 29.14L90.78 29.10L90.79 29.12Q91.09 28.85 91.74 28.51L91.87 28.63L91.86 28.63Q91.78 29.35 91.55 30.87L91.51 30.83L91.45 30.77Q92.03 31.11 92.45 31.34L92.34 31.24L92.29 31.18Q95.22 29.59 97.09 29.59L96.90 29.40L96.95 29.45Q98.31 29.48 99.49 30.13L99.52 30.15L99.54 30.18Q99.85 31.17 99.89 32.12L99.80 32.03L99.89 32.12Q99.95 34.69 98.92 35.80L98.84 35.72L98.86 35.74Q97.66 37.12 95.41 37.35L95.27 37.21L95.24 37.18Q94.40 37.37 93.71 37.29L93.77 37.34L93.75 37.32Q92.93 37.24 92.17 36.89L91.99 36.71L92.06 36.59L91.88 36.64L91.99 36.74Q91.10 36.16 90.57 34.83L90.60 34.87L90.57 34.83Q89.26 36.26 87.58 38.39L87.54 38.36L87.54 38.36Q87.89 39.05 88.73 40.00L88.73 40.00L88.71 39.98Q89.71 41.74 92.53 42.24L92.62 42.32L92.61 42.32Q93.89 42.64 99.26 42.76Z"/><path fill="#111" d="M21.74 40.95L21.75 40.97L21.85 41.06Q17.53 29.67 12.39 24.68L12.47 24.76L12.49 24.77Q13.86 25.31 16.83 25.95L16.84 25.97L16.87 26.00Q20.52 30.03 23.08 36.69L22.98 36.60L23.02 36.64Q25.58 29.19 28.21 26.14L28.32 26.26L28.20 26.14Q30.13 25.97 32.57 25.29L32.61 25.33L32.69 25.41Q29.47 28.09 27.30 32.66L27.28 32.64L27.37 32.73Q27.04 33.43 23.66 41.04L23.58 40.97L23.56 40.95Q23.02 41.09 21.80 41.02ZM26.33 43.34L26.36 43.37L26.45 43.45Q29.77 31.13 34.33 26.44L34.26 26.37L32.82 26.91L32.76 26.85Q31.99 27.11 31.15 27.22L31.13 27.20L31.19 27.26Q31.75 26.95 32.57 26.07L32.51 26.01L32.43 25.93Q33.27 25.07 33.73 24.66L33.85 24.78L33.67 24.60Q31.59 25.38 28.17 25.87L28.11 25.82L28.13 25.83Q25.48 29.08 23.42 34.68L23.29 34.55L23.41 34.67Q21.75 30.46 19.92 27.98L20.00 28.06L19.43 28.03L19.35 27.95Q19.09 27.96 18.87 27.96L18.94 28.03L18.92 28.01Q18.73 27.70 17.01 25.64L16.84 25.47L16.95 25.58Q13.62 25.11 11.38 23.97L11.35 23.94L11.29 23.88Q17.57 29.74 21.56 41.46L21.42 41.33L22.56 41.47L22.46 41.37Q22.79 42.01 23.63 43.30L23.74 43.41L24.95 43.26L25.01 43.31Q25.82 43.40 26.47 43.48Z"/><path fill="#222" d="M120.64 19.68L120.62 19.66L120.56 19.60Q118.72 19.85 117.77 20.01L117.67 19.91L117.63 19.87Q116.05 20.15 114.83 20.68L114.74 20.60L114.75 20.61Q111.30 22.10 111.18 26.78L111.18 26.78L111.25 26.85Q111.06 29.40 111.70 32.33L111.80 32.42L111.70 32.33Q112.74 36.53 116.36 37.71L116.29 37.64L116.22 37.57Q118.12 38.14 119.57 37.99L119.56 37.98L119.99 37.95L120.04 38.00Q120.32 38.09 120.51 38.13L120.41 38.03L120.36 37.97Q120.49 37.96 120.65 37.92L120.79 38.06L120.68 37.96Q123.28 37.66 124.65 37.09L124.70 37.14L121.16 33.64L121.23 33.70Q121.57 33.40 122.18 32.79L122.09 32.70L123.11 31.89L122.95 31.74Q124.79 33.80 126.77 35.86L126.86 35.95L126.92 36.01Q129.21 34.15 129.48 28.78L129.46 28.76L129.51 28.82Q129.54 27.85 129.54 26.94L129.51 26.91L129.49 26.89Q129.47 21.20 124.40 20.09L124.40 20.09L124.35 20.04Q123.19 19.86 120.67 19.71ZM133.31 41.64L133.34 41.67L133.48 41.81Q132.78 42.13 131.60 43.01L131.67 43.08L127.28 39.42L127.28 39.42Q124.79 40.62 120.53 40.66L120.56 40.69L120.54 40.67Q113.92 40.71 111.10 38.47L111.16 38.52L111.05 38.41Q109.24 36.60 108.78 33.63L108.85 33.71L108.81 33.66Q108.71 31.97 108.33 28.39L108.26 28.32L108.38 28.44Q108.36 27.69 108.24 25.94L108.09 25.78L108.24 25.94Q108.10 24.38 108.13 23.51L108.07 23.44L108.15 23.53Q108.17 20.38 109.92 18.82L110.00 18.90L109.96 18.86Q111.38 17.43 114.58 16.93L114.65 17.00L114.72 17.08Q117.22 16.71 120.11 16.79L119.99 16.67L120.04 16.72Q127.44 16.74 130.56 19.10L130.66 19.19L130.67 19.20Q132.82 21.31 132.55 26.22L132.53 26.20L132.62 26.29Q132.32 29.84 132.13 31.17L132.12 31.16L132.17 31.21Q131.45 35.63 129.12 37.95L129.19 38.01L129.29 38.11Q130.74 39.34 133.48 41.81ZM128.57 17.48L128.45 17.36L128.56 17.48Q126.58 16.79 120.07 16.29L120.08 16.31L120.08 16.31Q118.62 16.25 115.84 16.37L115.96 16.49L115.90 16.43Q111.71 16.68 109.46 18.66L109.31 18.52L109.42 18.62Q107.82 20.14 107.82 23.30L107.75 23.24L107.64 23.12Q107.79 24.12 107.94 25.83L107.89 25.77L107.93 25.82Q108.11 27.55 108.11 28.43L108.01 28.33L108.06 28.39Q108.17 30.09 108.55 33.67L108.54 33.66L108.47 33.59Q108.97 36.60 110.57 38.66L110.60 38.68L110.43 38.52Q110.95 39.53 112.16 40.67L112.10 40.61L112.12 40.62Q114.82 42.60 120.00 42.87L120.02 42.89L119.94 42.81Q120.24 42.77 122.64 42.89L122.74 42.98L122.78 43.02Q127.49 43.09 129.77 42.02L129.88 42.13L129.90 42.15Q130.71 42.77 135.43 46.35L135.34 46.26L135.46 46.37Q135.96 45.74 137.26 44.75L137.38 44.87L137.38 44.87Q136.40 44.08 135.60 43.39L135.59 43.38L133.95 41.93L134.16 41.99L134.01 41.84Q133.42 41.37 132.21 40.34L132.24 40.38L132.19 40.33Q134.09 37.81 134.09 33.28L134.20 33.39L134.12 33.31Q134.14 32.92 134.18 32.08L134.13 32.03L134.28 32.18Q134.34 31.37 134.34 30.95L134.21 30.82L134.26 30.87Q134.24 25.32 133.52 22.96L133.52 22.97L133.56 23.00Q133.16 21.69 132.29 20.63L132.23 20.57L132.23 20.58Q131.40 18.41 128.46 17.38ZM122.56 22.05L122.63 22.13L122.58 22.08Q126.56 21.90 128.38 23.50L128.48 23.60L128.51 23.62Q129.02 24.79 129.13 26.12L129.11 26.10L129.03 26.01Q129.13 27.29 129.05 28.66L129.10 28.71L129.18 28.79Q128.75 33.65 126.81 35.37L126.76 35.32L126.79 35.34Q125.51 34.07 123.00 31.33L123.06 31.39L123.10 31.43Q122.33 32.18 120.77 33.74L120.70 33.67L120.71 33.69Q121.33 34.34 122.48 35.52L122.42 35.47L122.37 35.54L122.34 35.50Q122.91 36.03 123.94 37.10L123.85 37.02L124.00 37.17Q122.97 37.39 120.65 37.69L120.61 37.66L120.04 37.62L119.63 37.63L119.61 37.65L119.56 37.60Q116.22 37.72 114.24 36.09L114.24 36.08L114.25 36.10Q113.07 33.85 113.11 30.73L113.23 30.84L113.14 30.76Q113.29 22.04 122.47 21.96Z"/><path fill="#444" d="M71.17 41.09L71.31 41.23L69.56 41.20L69.57 41.20Q66.17 41.19 65.22 39.06L65.25 39.09L65.16 39.00Q66.31 37.94 67.76 36.84L67.72 36.80L67.77 36.85Q68.39 39.08 71.25 38.92L71.17 38.84L71.30 38.98Q71.96 38.80 72.99 38.57L73.10 38.68L72.99 38.57Q74.01 38.14 73.93 37.19L73.88 37.13L73.90 37.16Q73.82 36.05 72.04 35.37L71.96 35.30L68.30 33.92L68.13 33.75Q65.86 32.47 65.52 28.93L65.49 28.90L65.53 28.94Q65.26 26.73 67.43 26.16L67.58 26.31L67.49 26.22Q68.48 26.03 71.45 26.03L71.39 25.97L71.53 26.11Q76.26 25.96 77.17 28.47L77.23 28.54L77.19 28.49Q76.54 29.02 75.81 29.48L75.91 29.57L74.49 30.51L74.52 30.54Q74.05 28.67 70.82 28.44L70.64 28.26L70.69 28.31Q70.07 28.31 69.05 28.73L69.09 28.77L69.20 28.88Q68.47 29.06 68.47 30.16L68.57 30.27L68.60 30.30Q68.87 31.29 70.70 31.98L70.65 31.92L70.81 32.09Q71.89 32.48 74.55 33.59L74.40 33.43L74.46 33.50Q76.28 34.32 76.47 36.87L76.44 36.84L76.49 36.90Q76.52 37.49 76.44 38.48L76.53 38.57L76.53 38.57Q76.35 39.31 75.78 39.96L75.92 40.10L75.89 40.06Q74.35 41.23 71.31 41.23ZM75.99 43.74L75.98 43.73L75.93 43.68Q76.80 43.67 78.17 43.37L78.18 43.38L78.34 43.54Q79.27 42.72 79.08 41.50L79.15 41.58L79.08 41.51Q79.05 40.97 78.74 39.37L78.75 39.39L78.79 39.42Q78.14 36.37 76.35 35.15L76.46 35.26L76.50 35.30Q75.83 33.76 74.58 33.04L74.62 33.08L74.70 33.16Q73.34 32.64 70.86 31.69L70.82 31.64L70.86 31.69Q71.11 31.32 71.37 31.20L71.25 31.08L71.34 31.17Q72.00 30.76 72.65 30.73L72.59 30.67L72.54 30.62Q73.45 30.69 74.21 30.96L74.07 30.82L74.22 31.04L74.30 31.01L74.63 31.15L74.47 31.03L74.41 30.97Q75.53 31.48 75.73 32.74L75.88 32.90L75.74 32.75Q77.12 32.04 79.02 30.37L78.94 30.29L79.03 30.37Q78.67 29.56 77.68 28.38L77.62 28.31L77.77 28.46Q76.61 25.74 71.50 25.63L71.52 25.64L71.55 25.67Q68.30 25.55 66.32 26.12L66.27 26.07L66.22 26.02Q64.98 26.76 65.21 28.85L65.17 28.81L65.17 28.81Q65.34 30.12 66.25 32.21L66.19 32.15L66.09 32.05Q66.67 33.21 67.70 33.93L67.64 33.87L67.76 33.99Q68.33 35.36 69.62 36.04L69.64 36.06L69.75 36.17Q70.72 36.46 71.67 36.84L71.65 36.81L73.58 37.60L73.51 37.53Q73.14 38.61 71.20 38.49L71.31 38.60L71.29 38.58Q70.79 38.57 69.57 38.27L69.54 38.24L69.64 38.19L69.38 38.16L69.46 38.24Q68.49 37.76 67.84 36.28L67.90 36.34L67.93 36.36Q65.75 37.88 64.65 39.02L64.64 39.01L64.69 39.07Q64.84 39.83 65.87 40.63L66.00 40.75L65.75 40.81L65.80 40.86Q67.31 43.06 71.54 43.44L71.58 43.48L71.40 43.30Q72.77 43.53 76.01 43.76Z"/></svg>