<svg xmlns="http://www.w3.org/2000/svg" width="150" height="50" viewBox="0,0,150,50"><path fill="#333" d="M80.39 41.49L80.42 41.53L80.42 41.53Q78.29 41.11 76.12 40.96L76.08 40.92L76.12 40.96Q74.66 39.50 72.00 35.65L71.98 35.64L71.99 35.65Q69.79 38.74 67.39 41.18L67.43 41.22L65.30 41.56L65.45 41.71Q64.26 41.77 63.27 42.04L63.41 42.18L63.30 42.07Q67.55 38.02 70.56 33.91L70.53 33.88L70.54 33.89Q67.31 29.75 61.91 24.96L61.74 24.79L61.90 24.95Q64.13 25.70 66.83 26.11L66.83 26.11L66.73 26.01Q70.20 29.14 72.10 31.84L72.17 31.91L72.09 31.82Q74.32 28.88 77.07 26.37L76.90 26.21L76.93 26.23Q79.97 25.89 81.80 25.39L81.79 25.38L81.77 25.37Q77.28 29.06 73.59 33.63L73.55 33.59L73.56 33.60Q77.07 38.40 80.53 41.64ZM83.31 24.70L83.23 24.62L83.40 24.79Q80.49 25.60 76.95 25.95L76.87 25.87L76.94 25.94Q73.93 28.49 72.22 30.97L72.18 30.92L72.27 31.01Q71.37 29.97 69.74 27.99L69.66 27.91L69.53 27.97L69.64 28.08Q69.50 28.06 69.39 28.06L69.30 27.97L69.23 27.90Q68.56 27.15 66.92 25.71L66.99 25.78L66.89 25.67Q63.42 25.25 60.57 24.03L60.47 23.94L60.54 24.01Q66.08 28.83 70.12 33.97L69.98 33.82L70.09 33.94Q66.65 38.49 62.23 42.79L62.23 42.79L62.27 42.83Q62.49 42.70 65.99 41.87L66.08 41.96L66.04 41.91Q64.49 43.22 62.85 44.55L62.79 44.49L62.74 44.44Q66.00 43.59 69.16 43.40L69.11 43.35L69.27 43.51Q71.57 41.17 73.48 38.43L73.46 38.41L73.54 38.50Q74.81 40.10 76.03 41.28L76.21 41.46L76.21 41.46Q76.28 41.43 76.36 41.50L76.28 41.42L76.54 41.49L76.46 41.41Q77.72 42.52 79.05 43.59L79.12 43.65L79.00 43.54Q82.73 44.22 85.63 45.25L85.48 45.11L85.51 45.13Q79.49 40.82 75.79 35.64L75.69 35.54L75.74 35.59Q79.28 30.45 83.85 26.38L83.84 26.37L83.96 26.49Q82.99 26.81 82.00 27.04L81.95 26.99L79.89 27.41L79.89 27.40Q81.12 26.54 83.29 24.67Z"/><path fill="#333" d="M124.76 30.93L124.71 30.89L124.82 30.99Q124.82 29.48 124.01 28.56L123.91 28.47L123.89 28.45Q123.22 27.68 121.77 27.72L121.71 27.66L121.64 27.59Q119.45 27.80 118.61 29.93L118.46 29.77L118.55 29.87Q118.29 30.67 118.25 31.35L118.31 31.41L118.29 31.40Q118.12 36.29 117.21 40.63L117.05 40.47L117.01 40.43Q115.53 41.16 113.66 42.15L113.49 41.97L113.64 42.12Q115.92 35.16 115.65 27.85L115.56 27.75L115.53 27.73Q115.27 20.38 112.72 13.56L112.68 13.53L112.77 13.61Q114.51 14.90 116.53 15.59L116.57 15.63L116.61 15.67Q117.94 21.34 118.13 27.20L118.21 27.28L118.10 27.17Q119.57 25.18 122.27 25.25L122.33 25.31L122.29 25.27Q127.41 25.41 127.53 30.77L127.48 30.73L127.48 30.72Q127.54 36.35 128.91 40.99L128.95 41.03L128.91 40.99Q127.22 40.32 125.46 40.13L125.42 40.09L125.44 40.11Q124.81 36.74 124.70 30.88ZM125.08 40.39L125.01 40.32L125.00 40.31Q126.07 40.47 127.17 40.74L127.21 40.77L127.10 40.67Q127.32 41.00 127.85 42.98L127.71 42.84L127.70 42.83Q130.70 43.81 132.72 45.25L132.71 45.24L132.69 45.22Q130.00 39.45 129.46 33.13L129.55 33.21L129.59 33.26Q129.23 29.50 127.82 27.94L127.80 27.93L127.85 27.97Q127.68 27.73 127.03 27.27L127.02 27.26L127.02 27.26Q126.86 26.84 126.22 26.07L126.29 26.15L126.23 26.01L126.30 26.08Q125.48 25.26 122.36 24.99L122.31 24.94L122.34 24.98Q121.49 24.85 120.08 25.19L120.25 25.36L120.08 25.19Q120.00 20.47 119.66 17.96L119.60 17.90L119.59 17.88Q118.88 17.82 117.39 17.52L117.39 17.52L117.30 17.42Q117.24 16.79 116.97 15.31L116.83 15.17L116.95 15.28Q114.01 14.33 112.15 12.77L112.14 12.76L112.00 12.62Q115.11 19.92 115.38 27.72L115.21 27.56L115.19 27.54Q115.65 35.49 113.09 42.84L113.00 42.74L113.13 42.87Q114.05 42.27 115.19 41.77L115.14 41.73L114.40 43.99L114.35 43.94Q117.46 42.60 119.44 42.41L119.54 42.51L119.41 42.38Q120.14 37.13 120.33 33.17L120.28 33.12L120.16 33.00Q120.43 31.33 122.37 30.23L122.26 30.12L122.34 30.19Q122.69 29.78 123.22 29.82L123.36 29.95L123.28 29.87Q123.46 29.91 123.80 29.94L123.89 30.03L124.34 30.14L124.20 30.00Q124.26 30.44 124.38 30.90L124.28 30.80L124.36 30.88Q124.53 36.91 125.02 40.34Z"/><path fill="#333" d="M92.89 30.57L93.01 30.69L93.00 30.68Q92.97 30.65 96.36 30.61L96.44 30.69L96.29 30.54Q98.67 30.63 99.73 30.67L99.66 30.60L99.64 30.58Q98.70 27.81 96.26 22.17L96.29 22.20L96.26 22.18Q95.56 23.45 94.51 26.30L94.52 26.31L94.58 26.38Q93.44 29.13 92.86 30.54ZM100.83 33.14L100.89 33.20L100.85 33.16Q98.54 33.09 96.33 33.13L96.31 33.11L96.34 33.14Q94.02 33.11 91.74 33.30L91.76 33.32L91.69 33.25Q90.28 36.79 87.05 40.98L86.96 40.89L87.05 40.99Q84.34 41.47 82.97 41.97L83.01 42.01L83.14 42.14Q88.29 36.51 92.97 23.15L92.91 23.09L92.85 23.03Q94.11 19.60 95.48 16.37L95.40 16.29L95.41 16.30Q95.90 16.48 96.24 16.48L96.25 16.49L96.83 16.34L96.87 16.39Q97.70 17.82 102.53 29.47L102.49 29.43L102.49 29.44Q105.74 37.25 109.73 41.40L109.67 41.33L109.76 41.42Q109.16 41.20 105.28 40.33L105.40 40.45L105.24 40.29Q102.77 37.25 100.79 33.10ZM105.24 40.71L105.22 40.69L105.91 40.89L105.91 40.89Q106.06 40.81 106.37 40.92L106.36 40.91L106.46 41.01Q106.81 41.40 108.64 43.42L108.60 43.39L108.58 43.36Q112.26 44.30 114.66 45.33L114.60 45.27L114.57 45.24Q109.16 40.79 105.16 32.79L105.05 32.68L105.05 32.68Q103.40 29.35 101.95 25.39L102.05 25.49L99.26 17.94L99.25 17.93Q99.07 18.09 98.84 18.09L98.74 18.00L98.23 18.02L98.20 17.99Q97.84 17.32 97.11 15.95L97.22 16.06L97.06 15.90Q96.72 16.08 96.26 16.05L96.12 15.91L96.29 16.07Q95.80 16.00 95.26 16.00L95.18 15.92L95.30 16.03Q93.70 19.77 89.82 29.93L89.99 30.11L89.92 30.03Q86.86 38.05 82.21 42.85L82.12 42.75L82.08 42.71Q83.20 42.39 85.22 41.78L85.18 41.74L85.26 41.82Q84.35 42.55 82.79 44.34L82.83 44.38L82.94 44.48Q84.65 43.84 88.57 43.08L88.42 42.92L88.47 42.98Q92.00 38.74 93.56 35.50L93.57 35.51L93.48 35.42Q95.29 35.37 97.61 35.41L97.49 35.28L97.52 35.31Q100.28 35.37 101.65 35.44L101.54 35.33L101.70 35.50Q102.93 37.83 105.29 40.76ZM97.44 25.94L97.52 26.02L97.58 26.08Q98.45 28.17 99.21 30.26L99.14 30.20L95.78 30.15L95.75 30.12Q96.43 28.78 97.50 26.00Z"/><path fill="#111" d="M19.15 29.61L19.17 29.63L19.16 29.62Q19.20 33.92 18.48 38.07L18.47 38.07L18.50 38.09Q20.69 37.47 23.77 37.35L23.71 37.29L23.81 37.39Q25.05 37.49 26.11 36.48L26.26 36.62L26.25 36.61Q27.32 35.61 27.32 34.27L27.18 34.13L27.18 34.14Q27.32 33.97 27.28 33.71L27.29 33.71L27.21 33.63Q27.06 30.71 24.82 29.87L24.78 29.83L24.81 29.86Q24.12 29.63 23.43 29.70L23.45 29.72L23.30 29.57Q22.29 29.55 21.26 29.59L21.32 29.64L21.26 29.59Q20.31 29.74 19.28 29.74ZM18.00 19.25L18.06 19.31L18.01 19.26Q18.84 22.52 19.11 26.90L19.20 27.00L19.11 26.91Q20.62 27.08 23.28 27.12L23.13 26.96L23.12 26.96Q26.10 27.04 26.44 23.50L26.43 23.49L26.58 23.64Q26.71 21.64 25.30 20.80L25.19 20.69L25.30 20.80Q24.42 20.30 20.00 19.65L19.88 19.53L19.89 19.54Q18.92 19.48 18.00 19.25ZM14.33 42.11L14.25 42.04L14.26 42.04Q16.69 35.34 16.42 27.95L16.61 28.13L16.51 28.04Q16.25 20.77 13.32 14.30L13.37 14.35L13.21 14.19Q17.18 16.91 23.41 17.16L23.40 17.15L23.26 17.01Q29.56 17.33 29.90 20.22L29.90 20.22L29.82 20.14Q30.19 22.95 28.78 25.61L28.78 25.61L28.90 25.73Q28.03 27.10 26.43 27.79L26.55 27.91L26.54 27.90Q30.03 28.43 30.26 33.79L30.41 33.94L30.29 33.82Q30.45 35.01 30.37 36.42L30.26 36.30L30.24 36.28Q30.37 37.78 29.43 38.71L29.27 38.55L29.27 38.55Q28.41 39.55 27.07 39.70L27.11 39.74L27.06 39.69Q25.72 39.91 24.66 39.91L24.62 39.88L24.62 39.87Q18.83 39.80 14.30 42.08ZM27.16 42.45L27.03 42.33L27.01 42.30Q28.08 42.50 29.94 42.61L29.86 42.53L29.89 42.56Q31.29 42.59 32.40 41.72L32.44 41.75L32.41 41.72Q33.17 40.77 33.05 39.21L33.08 39.24L33.18 39.34Q33.02 38.31 32.30 34.84L32.35 34.89L32.22 34.76Q31.61 31.60 29.74 30.12L29.71 30.08L29.45 29.40L29.42 29.37Q31.00 27.87 31.57 24.10L31.69 24.22L31.57 24.10Q31.72 22.96 31.65 21.55L31.64 21.54L31.67 21.58Q31.72 20.37 30.62 19.53L30.62 19.53L30.61 19.52Q30.16 19.19 30.05 19.15L30.10 19.20L30.07 19.17Q29.88 18.72 29.04 17.92L29.09 17.96L29.06 17.93Q27.42 16.75 23.19 16.56L23.21 16.58L23.21 16.58Q16.63 16.36 12.63 13.46L12.70 13.53L12.64 13.46Q15.91 20.47 16.21 28.00L16.22 28.01L16.18 27.98Q16.50 35.79 13.68 42.72L13.75 42.79L15.86 41.89L15.75 41.78Q15.48 43.03 14.99 44.18L15.00 44.19L14.98 44.17Q19.19 42.21 24.22 42.21L24.27 42.27L24.33 42.33Q25.57 42.16 27.02 42.31ZM24.90 31.78L25.04 31.92L25.05 31.94Q25.72 31.80 26.63 32.26L26.62 32.25L26.69 32.31Q26.64 32.49 26.79 33.56L26.89 33.66L26.90 33.67Q27.00 34.94 26.06 35.99L26.22 36.15L26.20 36.13Q25.26 37.17 23.85 37.06L23.73 36.94L22.33 37.13L22.33 37.13Q21.58 37.18 20.86 37.29L20.89 37.33L20.79 37.23Q21.18 35.49 21.26 32.03L21.14 31.91L21.18 31.95Q21.80 31.84 23.06 31.80L23.15 31.90L23.20 31.94Q24.29 31.75 24.90 31.78ZM23.96 22.28L24.00 22.32L24.29 22.22L24.37 22.31Q24.46 22.16 24.65 22.20L24.70 22.25L25.14 22.31L25.54 22.52L26.03 22.48L26.11 22.56Q26.08 22.69 26.08 22.99L26.09 23.00L26.23 23.67L26.07 23.51Q26.15 24.85 25.28 25.78L25.27 25.77L25.29 25.79Q24.45 26.76 23.23 26.76L23.21 26.74L23.19 26.72Q22.17 26.73 22.17 26.73L22.22 26.78L22.15 26.71Q20.81 26.67 21.15 26.67L21.24 26.75L21.26 26.77Q21.18 25.20 20.87 22.16L20.77 22.05L20.90 22.18Q22.51 22.35 24.03 22.35Z"/><path fill="#333" d="M50.29 27.21L50.16 27.08L50.32 27.24Q50.97 27.09 52.38 26.94L52.46 27.02L52.45 27.01Q52.47 27.72 52.47 28.37L52.51 28.40L52.50 29.65L52.48 29.64Q51.62 29.61 50.78 29.68L50.81 29.71L50.67 29.57Q49.84 29.62 49.00 29.58L49.07 29.65L49.14 29.71Q46.24 35.84 42.81 40.44L42.77 40.40L42.72 40.36Q40.37 41.16 39.07 41.77L39.06 41.75L39.07 41.76Q43.08 35.95 46.12 29.67L46.14 29.69L43.51 29.68L43.48 29.66Q43.50 28.34 43.38 27.01L43.39 27.01L43.46 27.08Q45.24 27.11 47.30 27.11L47.44 27.26L49.33 23.55L49.34 23.56Q50.25 21.58 51.47 19.98L51.50 20.01L51.56 20.06Q49.89 20.11 48.29 20.11L48.25 20.07L48.27 20.09Q42.16 20.07 38.39 17.87L38.44 17.92L37.82 16.22L37.85 16.26Q37.36 15.28 36.98 14.40L37.03 14.44L37.17 14.59Q41.51 17.21 47.22 17.44L47.07 17.29L47.04 17.26Q52.33 17.64 57.47 15.66L57.45 15.65L57.34 15.53Q57.25 16.06 56.76 16.93L56.72 16.90L56.79 16.96Q53.08 21.63 50.23 27.15ZM58.27 18.22L58.24 18.18L59.30 16.23L59.37 16.31Q58.33 16.71 56.65 17.44L56.75 17.53L56.77 17.06L56.82 17.11Q56.95 16.97 57.07 16.86L57.18 16.97L57.06 16.85Q57.50 16.23 58.22 14.89L58.18 14.85L58.28 14.95Q52.92 17.20 47.17 16.98L47.14 16.94L47.11 16.92Q41.16 16.71 36.40 13.74L36.26 13.61L36.41 13.76Q37.36 15.54 38.19 18.20L38.20 18.21L38.17 18.17Q39.42 18.97 40.22 19.27L40.11 19.17L40.18 19.23Q40.34 19.59 40.80 21.45L40.66 21.31L40.76 21.41Q43.93 22.68 49.45 22.53L49.43 22.51L49.32 22.40Q49.13 23.08 47.15 26.85L47.10 26.80L47.11 26.81Q45.07 26.83 43.09 26.64L43.07 26.62L43.10 26.65Q43.22 27.53 43.22 28.41L43.16 28.34L43.22 30.11L44.76 29.99L44.84 31.47L44.86 31.49Q40.85 38.79 38.07 42.36L38.19 42.48L38.19 42.49Q39.74 41.68 41.38 41.18L41.45 41.25L41.44 41.25Q40.64 42.04 39.27 43.75L39.35 43.84L39.39 43.87Q42.49 42.71 44.93 42.49L44.98 42.54L44.82 42.38Q47.79 38.64 50.91 31.87L50.97 31.92L54.31 32.03L54.45 32.18Q54.31 31.20 54.31 30.29L54.35 30.32L54.23 28.41L54.39 28.57Q53.97 28.42 53.42 28.46L53.50 28.53L53.42 28.46Q52.87 28.50 52.60 28.50L52.64 28.54L52.76 28.65Q52.63 28.41 52.66 28.25L52.73 28.32L52.79 28.11L52.80 28.13Q55.21 22.88 58.29 18.23Z"/></svg>