<svg xmlns="http://www.w3.org/2000/svg" width="150" height="50" viewBox="0,0,150,50"><path fill="#444" d="M21.45 29.68L21.45 29.68L21.51 29.74Q17.22 29.45 16.64 32.49L16.77 32.61L16.68 32.52Q16.56 33.66 16.75 34.54L16.82 34.61L16.72 34.50Q16.64 35.19 17.09 36.59L17.29 36.79L17.27 36.77Q18.36 39.96 21.67 39.81L21.57 39.70L21.62 39.75Q23.71 39.90 25.04 38.34L24.94 38.24L24.98 38.27Q26.18 36.77 26.18 34.72L26.10 34.63L26.20 34.74Q26.24 34.05 26.08 32.98L26.24 33.14L26.19 33.09Q26.03 32.10 25.62 31.41L25.58 31.37L25.68 31.47Q24.03 29.79 21.45 29.68ZM26.43 48.29L26.29 48.16L26.27 48.13Q24.44 48.70 16.37 49.08L16.47 49.18L16.44 49.15Q14.76 49.22 13.12 48.38L13.18 48.44L13.12 48.38Q13.89 47.37 15.72 45.58L15.73 45.58L15.86 45.71Q18.22 46.70 20.31 46.51L20.18 46.38L20.24 46.44Q23.10 46.14 23.94 45.87L24.06 46.00L24.07 46.01Q26.25 45.26 26.25 43.47L26.34 43.56L26.33 43.55Q26.25 43.24 26.17 43.01L26.10 42.93L26.17 41.52L26.01 41.37Q25.96 40.55 25.96 39.75L26.03 39.82L25.98 39.77Q24.66 42.06 21.27 42.06L21.28 42.08L21.30 42.09Q17.43 42.11 15.80 39.90L15.80 39.91L15.82 39.92Q14.64 38.32 13.84 33.91L13.94 34.01L13.96 34.03Q13.59 32.44 13.59 31.03L13.48 30.93L13.66 31.11Q13.49 29.15 14.41 28.16L14.54 28.29L14.45 28.21Q16.17 26.84 20.82 26.84L20.83 26.86L22.53 27.00L22.49 26.95Q25.73 27.33 27.06 29.28L27.01 29.23L27.07 29.28Q27.26 28.45 27.68 26.81L27.72 26.85L27.70 26.83Q29.47 26.39 31.22 25.67L31.28 25.74L31.33 25.78Q28.67 31.88 28.67 39.11L28.53 38.97L28.59 39.03Q28.64 41.75 29.02 44.37L29.00 44.35L29.04 44.39Q29.12 44.97 29.04 45.65L29.01 45.62L29.07 45.68Q28.90 47.07 27.68 47.83L27.70 47.85L27.68 47.82Q27.25 48.16 26.41 48.27ZM29.25 51.08L29.23 51.06L29.31 51.14Q30.78 51.19 31.54 50.24L31.65 50.35L31.54 50.24Q31.85 49.26 31.74 48.54L31.75 48.55L31.73 48.52Q31.64 47.91 31.45 47.14L31.46 47.16L31.59 47.28Q30.27 41.96 30.61 36.71L30.66 36.76L30.66 36.76Q31.02 31.34 33.15 26.50L33.12 26.47L30.92 27.32L31.07 27.47Q31.23 26.78 31.45 26.21L31.39 26.14L31.87 24.99L32.04 25.16Q29.54 25.97 27.33 26.39L27.38 26.43L27.30 26.35Q27.03 27.27 26.88 28.30L26.99 28.41L26.86 28.28Q24.73 26.34 20.69 26.34L20.68 26.32L19.02 26.42L18.97 26.37Q15.86 26.49 14.18 27.90L14.20 27.91L14.15 27.87Q13.19 28.81 13.23 30.71L13.30 30.79L13.20 30.68Q13.23 33.15 14.25 37.41L14.42 37.57L14.31 37.46Q14.71 39.31 15.93 40.72L15.96 40.75L16.24 41.03L16.27 41.06L16.43 41.23Q17.52 43.50 20.11 44.03L20.09 44.01L20.11 44.03Q21.55 44.36 22.99 44.40L22.95 44.36L22.98 44.39Q24.79 44.48 25.85 44.10L25.78 44.02L25.79 44.04Q25.14 45.55 22.47 45.89L22.57 45.99L22.44 45.86Q21.43 46.07 20.75 46.07L20.66 45.99L20.38 46.09L20.36 46.06Q17.48 46.01 15.81 45.05L15.77 45.02L14.17 46.84L14.15 46.82Q13.28 47.63 12.45 48.58L12.55 48.68L12.52 48.66Q13.42 49.10 14.41 49.29L14.37 49.25L13.51 50.14L13.58 50.21Q16.25 51.24 21.88 51.24L21.83 51.19L22.11 51.24L22.12 51.25Q25.73 51.25 29.31 51.14ZM23.36 32.01L23.36 32.01L23.38 32.03Q24.74 32.03 25.66 32.44L25.57 32.36L25.67 32.46Q25.80 32.89 25.88 33.58L25.92 33.62L25.95 33.65Q25.92 33.88 25.88 34.80L25.86 34.78L25.84 34.76Q25.70 36.60 24.60 37.89L24.66 37.95L24.75 38.05Q23.55 39.43 21.65 39.40L21.53 39.28L21.55 39.30Q20.17 39.29 19.33 38.87L19.22 38.76L19.39 38.92Q18.84 37.62 18.81 36.60L18.86 36.65L18.88 36.67Q18.80 32.36 23.40 32.06Z"/><path fill="#444" d="M52.19 40.95L52.21 40.97L52.25 41.01Q50.78 39.17 49.49 36.08L49.49 36.08L47.38 30.96L47.40 30.99Q45.85 35.04 45.25 36.33L45.18 36.26L45.33 36.42Q43.73 39.19 42.13 41.10L42.26 41.23L42.27 41.23Q41.90 41.25 41.14 41.36L41.09 41.31L41.16 41.38Q41.14 33.94 35.32 28.00L35.28 27.96L35.33 28.01Q33.47 26.08 31.45 24.59L31.48 24.62L31.56 24.70Q33.26 25.11 35.13 25.41L35.23 25.52L35.14 25.42Q41.16 30.34 42.61 36.59L42.67 36.64L42.69 36.67Q43.60 34.84 44.78 31.64L44.82 31.68L44.75 31.60Q46.06 27.82 46.63 26.53L46.72 26.62L48.18 26.67L48.13 26.62Q49.07 28.40 50.25 31.67L50.17 31.58L50.19 31.61Q51.43 35.16 52.07 36.57L52.17 36.67L52.21 36.70Q53.91 30.30 59.39 25.73L59.50 25.84L59.40 25.74Q60.61 25.65 63.35 25.08L63.44 25.17L63.45 25.18Q54.72 31.11 53.54 41.08L53.47 41.02L52.85 40.93L52.89 40.97Q52.55 40.93 52.21 40.97ZM55.24 43.47L57.17 43.53L57.23 43.59Q56.88 42.03 56.88 40.50L56.83 40.46L56.85 40.47Q56.95 37.34 58.36 34.10L58.23 33.98L58.36 34.10Q60.35 29.59 64.46 26.50L64.31 26.35L64.32 26.36Q63.16 26.68 61.29 27.02L61.37 27.10L61.32 27.05Q63.34 25.45 64.63 24.54L64.65 24.55L62.12 24.99L62.16 25.03Q60.92 25.24 59.59 25.39L59.58 25.39L59.54 25.35Q54.44 29.65 52.50 34.68L52.48 34.66L52.33 34.51Q51.68 32.33 50.31 28.07L50.40 28.16L50.37 28.13Q50.15 28.25 49.88 28.25L49.73 28.10L49.34 28.24L49.23 28.13Q49.24 27.96 48.44 26.20L48.45 26.21L46.42 26.23L46.32 26.14Q45.41 29.00 43.32 34.63L43.33 34.64L43.26 34.57Q41.98 30.93 38.90 27.66L38.88 27.64L38.85 27.62Q38.67 27.70 38.37 27.66L38.33 27.63L37.81 27.56L37.67 27.43Q36.82 26.61 35.03 25.01L35.18 25.16L35.02 25.00Q32.03 24.52 30.36 24.03L30.29 23.96L30.18 23.86Q41.06 31.46 40.68 41.78L40.66 41.76L40.67 41.77Q40.81 41.72 41.18 41.68L41.16 41.66L41.14 41.64Q41.45 41.55 41.64 41.55L41.69 41.61L41.67 41.59Q41.76 41.53 41.95 43.62L41.95 43.62L43.75 43.33L43.93 43.51Q46.46 40.62 48.70 34.88L48.73 34.91L48.67 34.84Q50.17 38.70 52.03 41.37L52.13 41.46L52.12 41.45Q52.32 41.31 52.58 41.33L52.61 41.35L52.61 41.36Q52.82 41.32 53.09 41.32L53.09 41.32L55.21 43.44Z"/><path fill="#222" d="M70.75 40.16L70.86 40.27L70.78 40.19Q67.35 40.33 65.71 39.80L65.75 39.84L65.74 39.83Q63.74 39.16 63.44 35.78L63.37 35.71L64.85 34.68L64.92 34.75Q65.66 34.23 66.42 33.73L66.32 33.63L66.36 33.67Q66.06 35.55 67.66 36.77L67.73 36.83L67.75 36.85Q68.97 37.81 71.10 37.62L71.19 37.70L71.03 37.54Q75.54 37.26 75.35 33.72L75.40 33.77L75.32 33.68Q75.12 31.39 72.49 30.17L72.54 30.22L72.50 30.19Q69.74 29.21 67.38 27.99L67.29 27.90L67.38 27.99Q64.80 26.63 63.81 21.94L63.80 21.94L63.81 21.95Q63.64 21.44 63.53 20.68L63.63 20.77L63.47 20.62Q63.52 19.98 63.59 19.41L63.51 19.33L63.60 19.42Q63.61 17.68 64.87 17.22L64.88 17.23L64.96 17.32Q67.31 16.38 71.30 16.57L71.38 16.65L71.41 16.68Q73.23 16.79 74.03 16.87L74.06 16.89L73.97 16.80Q75.56 17.10 76.63 17.56L76.62 17.55L76.61 17.54Q78.62 17.92 78.85 20.39L78.82 20.35L78.91 20.45Q77.84 21.13 75.63 22.46L75.56 22.39L75.63 22.46Q75.14 19.38 70.76 19.38L70.91 19.53L70.81 19.43Q68.86 19.39 67.87 20.07L67.88 20.08L67.87 20.07Q66.70 20.57 66.93 22.36L66.93 22.37L66.92 22.36Q67.22 24.60 70.19 26.12L70.24 26.17L70.12 26.05Q70.73 26.36 75.22 27.99L75.19 27.96L75.27 28.04Q77.89 29.52 78.31 33.90L78.22 33.81L78.20 33.79Q78.28 34.02 78.35 35.27L78.26 35.18L78.26 35.18Q78.45 38.07 76.89 39.17L76.82 39.10L76.90 39.18Q74.98 40.09 70.80 40.20ZM73.22 42.70L73.22 42.71L73.23 42.71Q74.58 42.69 76.56 42.69L76.50 42.63L76.59 42.73Q78.70 42.74 79.96 42.32L79.89 42.26L80.00 42.36Q81.07 41.38 81.00 39.59L81.08 39.67L81.15 39.75Q81.11 38.75 80.73 36.69L80.71 36.68L80.56 36.52Q79.67 31.87 77.58 30.00L77.61 30.03L77.58 30.01Q76.87 28.50 75.54 27.78L75.60 27.83L70.23 25.71L70.21 25.69Q69.94 25.57 69.49 25.34L69.36 25.21L69.32 24.90L69.21 24.45L69.21 24.45Q69.13 23.11 70.27 22.51L70.21 22.45L70.38 22.61Q70.98 21.88 72.69 21.69L72.83 21.83L72.69 21.69Q73.89 21.63 75.03 22.09L75.09 22.15L75.12 22.18Q75.09 22.18 75.28 23.02L75.39 23.13L75.38 23.12Q75.54 22.95 76.04 22.72L76.06 22.74L75.92 22.60Q76.71 23.58 76.83 24.72L76.89 24.79L76.84 24.74Q76.82 24.60 80.48 22.02L80.49 22.03L80.53 22.07Q80.28 19.46 78.83 18.77L78.90 18.84L78.92 18.86Q78.24 17.49 76.79 16.96L76.82 16.99L76.91 17.08Q74.65 16.30 71.45 16.30L71.36 16.21L71.36 16.21Q66.48 16.24 64.61 16.92L64.62 16.93L64.62 16.94Q63.19 17.30 63.08 18.97L63.17 19.06L63.17 19.06Q63.04 19.50 63.46 21.71L63.50 21.75L63.45 21.70Q64.27 25.61 66.44 27.86L66.46 27.87L66.35 27.76Q67.10 29.43 68.61 30.11L68.75 30.25L68.71 30.22Q70.20 30.89 74.12 32.45L74.14 32.47L74.07 32.44L74.79 32.85L74.82 32.92L74.86 32.96Q74.97 33.33 75.00 33.67L74.94 33.61L75.00 33.68Q74.98 37.04 71.06 37.19L71.16 37.29L71.13 37.27Q69.88 37.19 68.59 36.81L68.58 36.80L68.66 36.88Q68.35 36.09 68.35 35.36L68.37 35.38L68.37 35.37Q68.26 35.00 68.30 34.73L68.36 34.80L68.31 34.75Q67.98 35.06 67.18 35.56L67.09 35.47L67.08 35.46Q66.73 34.50 66.88 33.12L66.79 33.04L66.81 33.06Q64.74 34.26 63.14 35.66L63.07 35.60L63.16 35.69Q63.26 36.55 63.33 37.58L63.28 37.52L63.34 37.58Q63.55 39.20 64.84 39.96L64.93 40.05L64.83 39.95Q66.03 41.76 68.58 42.14L68.64 42.20L68.59 42.15Q70.19 42.41 73.12 42.60Z"/><path fill="#333" d="M96.65 30.40L96.61 30.37L96.69 30.44Q93.13 36.71 89.70 40.66L89.71 40.67L89.80 40.76Q87.97 41.22 85.53 42.09L85.51 42.07L85.40 41.96Q90.41 36.46 95.17 28.05L95.14 28.03L95.08 27.96Q90.50 21.02 84.52 14.62L84.64 14.74L84.56 14.66Q87.47 15.85 89.75 16.35L89.84 16.44L89.81 16.41Q94.33 21.50 96.76 25.46L96.80 25.49L96.74 25.44Q99.26 21.03 103.18 16.61L103.20 16.63L103.22 16.65Q104.78 16.30 107.98 15.54L108.11 15.68L108.02 15.58Q102.00 22.09 98.53 28.03L98.52 28.01L98.45 27.94Q103.78 36.77 108.16 41.34L108.08 41.27L108.14 41.33Q105.56 40.53 103.46 40.30L103.32 40.16L103.43 40.27Q100.55 37.20 96.63 30.38ZM103.37 40.63L103.34 40.60L103.40 40.66Q103.67 40.66 104.13 40.78L104.04 40.69L104.15 40.80Q104.83 41.45 106.36 43.05L106.33 43.02L106.37 43.06Q109.68 43.82 112.73 45.19L112.77 45.23L112.89 45.35Q105.57 38.56 100.46 29.80L100.53 29.87L100.60 29.94Q104.34 23.28 110.24 16.43L110.21 16.40L110.26 16.46Q108.70 16.99 106.53 17.53L106.62 17.61L106.50 17.49Q107.46 16.66 109.21 14.88L109.18 14.84L109.24 14.90Q106.82 15.75 103.13 16.33L103.16 16.36L103.16 16.36Q99.70 20.13 97.11 24.43L97.05 24.37L97.15 24.47Q96.26 22.90 95.08 21.42L94.95 21.28L92.66 18.35L92.36 18.42L92.34 18.41Q92.23 18.45 92.00 18.37L91.89 18.26L92.06 18.43Q91.31 17.53 89.83 15.97L89.76 15.90L89.81 15.95Q86.00 15.08 83.42 13.71L83.31 13.60L83.41 13.70Q90.16 20.98 94.72 28.02L94.61 27.91L94.73 28.03Q90.21 36.18 84.46 42.77L84.41 42.72L84.39 42.70Q85.85 42.19 87.99 41.62L87.90 41.52L86.57 42.94L86.57 42.94Q86.58 42.95 85.25 44.29L85.22 44.25L85.31 44.34Q88.29 43.25 91.45 42.76L91.47 42.78L91.53 42.84Q95.38 38.16 97.97 33.40L98.10 33.53L98.10 33.53Q100.53 37.64 103.23 40.49Z"/><path fill="#333" d="M115.71 19.22L115.61 19.12L115.74 19.26Q116.78 23.64 116.93 26.84L117.04 26.95L116.91 26.82Q117.47 26.92 121.85 27.04L121.90 27.09L121.78 26.97Q124.30 26.97 124.68 23.51L124.76 23.59L124.82 23.65Q124.98 21.87 124.07 20.96L124.05 20.94L123.95 20.84Q122.70 19.97 120.72 19.82L120.84 19.93L120.82 19.91Q117.50 19.61 115.64 19.15ZM117.14 28.88L117.01 28.74L117.03 28.77Q117.25 34.81 115.46 40.75L115.52 40.81L115.40 40.69Q114.23 41.08 111.65 42.11L111.57 42.04L111.64 42.11Q114.37 35.51 114.03 28.05L114.15 28.17L114.03 28.05Q113.74 20.72 110.43 14.21L110.55 14.32L110.42 14.20Q115.27 17.00 122.24 17.00L122.34 17.10L122.35 17.10Q127.88 17.00 128.14 20.54L128.14 20.54L128.26 20.66Q128.31 21.24 128.23 21.84L128.19 21.80L128.24 23.07L128.16 22.99Q127.23 26.83 125.10 28.54L125.23 28.67L125.27 28.71Q124.38 29.30 123.35 29.30L123.29 29.24L120.83 29.36L120.77 29.30Q126.35 36.52 130.88 41.09L130.96 41.17L130.84 41.05Q128.76 40.42 125.82 40.07L125.81 40.06L125.65 39.90Q121.96 36.02 117.05 28.78ZM125.60 40.34L125.72 40.46L125.97 40.41L127.19 41.63L127.16 41.60Q127.76 42.16 128.41 42.77L128.40 42.76L128.50 42.86Q131.88 43.31 135.46 45.18L135.52 45.24L135.63 45.34Q128.69 38.60 123.28 31.67L123.17 31.55L125.01 31.64L124.97 31.60Q127.97 31.52 129.30 26.99L129.27 26.96L129.40 27.08Q130.15 24.94 130.15 22.24L130.01 22.11L129.99 22.08Q130.08 19.89 128.37 19.24L128.29 19.17L128.40 19.27Q128.17 18.78 127.60 18.09L127.69 18.19L127.63 18.12Q125.90 16.62 122.25 16.55L122.39 16.69L122.27 16.57Q114.48 16.50 109.79 13.50L109.85 13.56L109.82 13.52Q113.55 20.33 113.89 28.02L113.85 27.98L113.92 28.05Q114.25 36.00 111.13 42.85L111.01 42.73L111.15 42.87Q112.27 42.16 113.07 41.86L113.11 41.90L112.06 44.12L112.16 44.22Q114.92 43.21 117.58 42.72L117.47 42.60L117.45 42.58Q118.73 37.47 118.92 32.26L118.96 32.29L118.92 32.26Q122.40 37.18 125.56 40.30ZM124.29 22.36L124.44 22.51L124.46 22.53Q124.49 22.78 124.49 23.13L124.34 22.98L124.34 23.56L124.38 23.59Q124.33 24.65 123.65 25.60L123.71 25.66L123.73 25.69Q123.06 26.38 122.15 26.58L122.28 26.70L122.11 26.54Q122.08 26.77 120.48 26.81L120.44 26.77L120.42 26.75Q119.74 26.68 118.90 26.56L118.92 26.58L118.95 26.61Q118.81 25.06 118.46 22.01L118.44 21.99L118.48 22.03Q119.96 22.30 120.65 22.30L120.59 22.24L120.60 22.25Q122.48 22.30 124.42 22.49Z"/></svg>