<svg xmlns="http://www.w3.org/2000/svg" width="150" height="50" viewBox="0,0,150,50"><path fill="#333" d="M46.49 41.04L46.51 41.06L46.40 40.95Q42.30 29.77 37.17 24.79L37.24 24.86L37.20 24.82Q38.53 25.31 41.50 25.96L41.63 26.09L41.52 25.99Q45.12 29.97 47.68 36.63L47.66 36.61L47.69 36.65Q50.38 29.32 53.01 26.28L53.00 26.27L52.98 26.25Q54.89 26.07 57.33 25.38L57.37 25.42L57.29 25.34Q54.21 28.17 52.04 32.73L52.03 32.72L51.90 32.59Q51.70 33.42 48.31 41.03L48.18 40.91L48.17 40.89Q47.69 41.10 46.47 41.02ZM51.14 43.48L51.16 43.50L51.13 43.47Q54.52 31.21 59.08 26.53L59.03 26.47L57.51 26.93L57.55 26.98Q56.79 27.25 55.96 27.36L55.88 27.28L55.88 27.28Q56.34 26.86 57.16 25.99L57.19 26.02L57.23 26.07Q57.89 25.03 58.34 24.61L58.36 24.63L58.51 24.77Q56.23 25.35 52.81 25.85L52.78 25.82L52.76 25.80Q50.04 28.98 47.98 34.57L48.08 34.67L48.05 34.65Q46.39 30.43 44.56 27.95L44.66 28.05L44.05 27.98L44.14 28.06Q43.66 27.85 43.43 27.85L43.53 27.95L43.46 27.89Q43.31 27.61 41.59 25.56L41.55 25.51L41.54 25.51Q38.25 25.07 36.01 23.93L36.00 23.93L35.93 23.85Q42.12 29.62 46.12 41.35L46.19 41.43L47.12 41.36L47.03 41.27Q47.58 42.13 48.41 43.42L48.37 43.37L49.70 43.33L49.81 43.44Q50.51 43.42 51.15 43.49Z"/><path fill="#111" d="M71.18 41.10L71.29 41.21L69.55 41.18L69.44 41.08Q66.18 41.20 65.23 39.07L65.10 38.94L65.21 39.05Q66.32 37.96 67.77 36.85L67.85 36.93L67.71 36.79Q68.29 38.97 71.14 38.82L71.22 38.90L71.32 38.99Q72.08 38.92 73.11 38.69L73.06 38.64L72.95 38.53Q74.00 38.14 73.93 37.18L73.82 37.08L73.87 37.13Q73.78 36.01 71.99 35.33L72.05 35.39L68.15 33.76L68.30 33.92Q65.81 32.42 65.47 28.88L65.63 29.04L65.63 29.04Q65.45 26.92 67.62 26.35L67.50 26.23L67.47 26.20Q68.49 26.03 71.46 26.03L71.44 26.02L71.54 26.11Q76.41 26.12 77.33 28.63L77.16 28.46L77.25 28.55Q76.64 29.12 75.91 29.58L75.84 29.51L74.44 30.47L74.44 30.46Q73.88 28.50 70.65 28.27L70.77 28.40L70.78 28.40Q70.14 28.38 69.12 28.80L69.06 28.74L69.20 28.88Q68.57 29.16 68.57 30.26L68.65 30.35L68.61 30.31Q68.95 31.37 70.78 32.06L70.65 31.93L70.71 31.99Q71.80 32.39 74.46 33.49L74.44 33.47L74.43 33.46Q76.33 34.38 76.53 36.93L76.54 36.95L76.57 36.97Q76.45 37.43 76.38 38.42L76.50 38.54L76.48 38.52Q76.53 39.48 75.96 40.13L75.88 40.05L75.92 40.09Q74.27 41.15 71.23 41.15ZM75.91 43.66L75.95 43.70L75.97 43.72Q76.98 43.85 78.35 43.55L78.18 43.38L78.36 43.56Q79.34 42.79 79.15 41.57L79.10 41.52L79.07 41.49Q78.99 40.92 78.69 39.32L78.80 39.43L78.69 39.32Q78.24 36.48 76.46 35.26L76.37 35.17L76.37 35.17Q75.82 33.75 74.57 33.03L74.67 33.13L74.66 33.12Q73.30 32.60 70.83 31.65L70.97 31.79L70.87 31.69Q71.14 31.35 71.41 31.24L71.27 31.10L71.28 31.11Q71.91 30.67 72.55 30.64L72.69 30.77L72.68 30.76Q73.33 30.57 74.09 30.84L74.22 30.97L74.15 30.97L74.27 30.98L74.60 31.12L74.46 31.02L74.44 30.99Q75.65 31.60 75.84 32.85L75.71 32.73L75.71 32.73Q77.13 32.05 79.04 30.38L78.92 30.26L78.92 30.26Q78.59 29.48 77.60 28.30L77.65 28.35L77.73 28.42Q76.65 25.78 71.55 25.67L71.44 25.56L71.36 25.49Q68.30 25.54 66.32 26.11L66.33 26.12L66.31 26.11Q64.87 26.64 65.10 28.73L65.10 28.73L65.04 28.68Q65.14 29.93 66.06 32.02L66.12 32.09L66.15 32.11Q66.63 33.17 67.66 33.89L67.70 33.92L67.65 33.88Q68.44 35.46 69.73 36.15L69.62 36.03L69.62 36.04Q70.60 36.34 71.55 36.72L71.59 36.75L73.54 37.56L73.57 37.59Q73.11 38.58 71.17 38.46L71.32 38.61L71.15 38.44Q70.87 38.65 69.65 38.35L69.53 38.23L69.54 38.09L69.46 38.24L69.42 38.20Q68.56 37.83 67.91 36.35L67.95 36.39L67.81 36.25Q65.69 37.81 64.58 38.96L64.71 39.08L64.70 39.07Q64.99 39.97 66.02 40.77L65.98 40.74L65.89 40.95L65.87 40.93Q67.36 43.11 71.59 43.49L71.46 43.36L71.49 43.39Q72.75 43.50 75.98 43.73Z"/><path fill="#222" d="M99.94 29.43L99.91 29.40L99.96 29.46Q98.84 28.76 98.20 28.79L98.19 28.79L98.26 28.86Q96.88 28.93 95.84 29.94L95.82 29.92L95.82 29.92Q94.68 30.83 94.79 32.20L94.82 32.23L94.75 32.16Q95.10 36.55 94.22 41.08L94.28 41.14L94.30 41.16Q91.96 41.48 90.86 42.01L90.95 42.10L91.01 42.17Q92.39 37.87 92.16 33.41L92.13 33.39L92.10 33.35Q91.98 28.97 90.27 24.90L90.19 24.82L90.35 24.98Q91.34 25.52 93.63 26.16L93.76 26.30L94.27 28.94L94.16 28.83Q94.87 25.96 99.14 25.96L99.18 26.01L99.21 26.03Q99.60 25.97 99.90 25.97L99.84 25.91L99.87 25.93Q101.18 25.95 102.44 26.64L102.36 26.56L102.39 26.60Q101.16 28.03 100.02 29.52ZM101.58 31.45L101.80 31.52L101.79 31.52Q102.52 30.19 104.20 27.75L104.18 27.74L104.29 27.84Q103.80 27.46 102.27 27.20L102.21 27.14L102.23 27.15Q102.69 26.97 103.15 26.36L103.09 26.30L103.02 26.23Q101.17 25.37 99.23 25.56L99.16 25.50L99.23 25.57Q97.36 25.82 96.63 26.09L96.62 26.07L96.66 26.12Q95.16 26.44 94.36 27.55L94.44 27.62L94.11 26.65L93.93 25.82L93.98 25.87Q91.49 25.36 89.51 24.03L89.65 24.17L89.66 24.18Q91.82 28.58 92.04 33.45L91.89 33.30L92.06 33.47Q92.19 38.28 90.44 42.81L90.40 42.78L90.41 42.78Q91.48 42.29 92.36 41.99L92.36 42.00L92.46 42.10Q92.14 43.15 91.65 44.21L91.67 44.23L91.72 44.28Q94.50 43.37 96.63 43.25L96.56 43.18L96.81 38.72L96.82 38.73Q96.93 36.47 96.93 34.22L96.86 34.16L96.84 34.14Q96.88 33.00 97.80 32.03L97.74 31.97L97.89 32.12Q98.75 31.10 99.89 31.02L99.98 31.11L99.87 31.00Q100.56 30.92 101.28 31.61L101.26 31.59L101.66 31.54ZM96.68 29.76L96.56 29.56L96.71 29.82L96.55 29.63Z"/><path fill="#222" d="M115.57 19.08L115.75 19.26L115.73 19.25Q116.80 23.66 116.95 26.86L117.04 26.95L117.02 26.93Q117.36 26.81 121.73 26.92L121.87 27.06L121.82 27.00Q124.41 27.09 124.79 23.62L124.75 23.59L124.77 23.60Q125.05 21.94 124.14 21.02L124.04 20.93L123.96 20.84Q122.77 20.03 120.79 19.88L120.81 19.91L120.86 19.96Q117.51 19.61 115.64 19.16ZM117.15 28.88L117.00 28.73L117.02 28.76Q117.30 34.86 115.51 40.80L115.55 40.84L115.55 40.84Q114.17 41.02 111.58 42.05L111.70 42.17L111.71 42.18Q114.47 35.60 114.12 28.14L114.13 28.15L114.13 28.15Q113.70 20.68 110.39 14.17L110.40 14.18L110.42 14.20Q115.38 17.10 122.34 17.10L122.38 17.13L122.39 17.14Q128.04 17.16 128.30 20.70L128.29 20.69L128.21 20.61Q128.32 21.25 128.24 21.86L128.32 21.93L128.17 23.01L128.10 22.93Q127.23 26.83 125.10 28.54L125.11 28.55L125.27 28.71Q124.30 29.23 123.28 29.23L123.43 29.38L120.80 29.34L120.83 29.37Q126.37 36.55 130.90 41.11L130.82 41.03L130.94 41.16Q128.72 40.38 125.79 40.04L125.70 39.95L125.74 39.99Q121.90 35.96 116.99 28.73ZM125.67 40.41L125.62 40.36L125.93 40.37L127.14 41.58L127.15 41.59Q127.82 42.22 128.46 42.83L128.42 42.79L128.50 42.86Q131.99 43.43 135.57 45.29L135.52 45.24L135.44 45.16Q128.60 38.51 123.20 31.58L123.21 31.60L125.03 31.67L124.92 31.55Q128.09 31.64 129.42 27.11L129.38 27.07L129.36 27.05Q130.01 24.80 130.01 22.10L130.01 22.10L130.00 22.09Q130.15 19.96 128.44 19.31L128.31 19.18L128.41 19.28Q128.13 18.74 127.56 18.05L127.75 18.25L127.59 18.08Q125.90 16.62 122.25 16.55L122.26 16.56L122.36 16.66Q114.35 16.38 109.66 13.37L109.83 13.53L109.81 13.51Q113.43 20.21 113.77 27.90L113.81 27.94L113.77 27.91Q114.13 35.88 111.01 42.73L110.99 42.72L111.14 42.86Q112.39 42.28 113.19 41.98L113.04 41.83L112.03 44.10L112.22 44.28Q114.88 43.18 117.55 42.68L117.45 42.58L117.51 42.65Q118.88 37.62 119.07 32.41L118.92 32.25L118.91 32.24Q122.48 37.26 125.64 40.38ZM124.47 22.54L124.43 22.50L124.41 22.48Q124.44 22.73 124.44 23.08L124.33 22.97L124.32 23.53L124.32 23.53Q124.34 24.66 123.66 25.61L123.69 25.64L123.79 25.74Q123.16 26.48 122.25 26.67L122.26 26.69L122.23 26.66Q122.03 26.72 120.43 26.76L120.37 26.70L120.43 26.76Q119.78 26.72 118.94 26.61L118.90 26.56L118.91 26.57Q118.94 25.20 118.60 22.15L118.44 21.99L118.54 22.09Q119.93 22.27 120.62 22.27L120.66 22.31L120.68 22.33Q122.45 22.27 124.39 22.46Z"/><path fill="#333" d="M16.93 19.11L16.98 19.16L16.94 19.12Q18.18 23.71 18.34 26.91L18.27 26.84L18.29 26.86Q18.73 26.85 23.11 26.96L23.13 26.99L23.18 27.04Q25.68 27.03 26.06 23.56L26.09 23.59L26.00 23.49Q26.19 21.75 25.28 20.83L25.34 20.90L25.33 20.89Q24.09 20.03 22.11 19.88L22.09 19.86L22.17 19.93Q18.83 19.60 16.97 19.15ZM18.47 28.88L18.40 28.80L18.33 28.74Q18.60 34.83 16.81 40.77L16.84 40.79L16.90 40.86Q15.50 41.01 12.91 42.04L13.05 42.19L13.02 42.16Q15.80 35.60 15.46 28.14L15.39 28.08L15.45 28.14Q15.10 20.74 11.79 14.23L11.80 14.25L11.77 14.22Q16.74 17.13 23.70 17.13L23.66 17.09L23.66 17.08Q29.39 17.18 29.66 20.72L29.59 20.65L29.46 20.53Q29.68 21.28 29.61 21.89L29.65 21.93L29.48 22.98L29.44 22.94Q28.55 26.81 26.42 28.52L26.55 28.65L26.42 28.52Q25.81 29.40 24.78 29.40L24.64 29.25L22.13 29.33L22.00 29.20Q27.69 36.53 32.22 41.10L32.12 41.00L32.31 41.19Q29.97 40.30 27.04 39.96L27.01 39.93L27.01 39.92Q23.37 36.10 18.46 28.86ZM26.97 40.38L26.94 40.35L27.18 40.29L28.60 41.71L28.52 41.63Q29.08 42.15 29.73 42.76L29.84 42.87L29.77 42.80Q33.30 43.40 36.88 45.27L36.90 45.29L36.81 45.19Q29.94 38.52 24.54 31.59L24.44 31.49L26.25 31.55L26.23 31.53Q29.34 31.56 30.68 27.03L30.79 27.14L30.67 27.02Q31.45 24.91 31.45 22.21L31.40 22.16L31.40 22.16Q31.36 19.83 29.64 19.18L29.76 19.30L29.67 19.21Q29.61 18.89 29.04 18.20L28.96 18.12L28.95 18.11Q27.37 16.76 23.72 16.68L23.73 16.69L23.58 16.55Q15.84 16.54 11.16 13.53L11.04 13.41L11.06 13.43Q14.84 20.29 15.18 27.98L15.10 27.90L15.10 27.90Q15.52 35.93 12.40 42.79L12.46 42.85L12.29 42.68Q13.70 42.26 14.50 41.96L14.52 41.98L13.52 44.25L13.49 44.22Q16.12 43.08 18.78 42.59L18.84 42.65L18.82 42.63Q20.14 37.55 20.33 32.33L20.23 32.24L20.26 32.26Q23.80 37.24 26.95 40.37ZM25.70 22.43L25.78 22.52L25.69 22.42Q25.69 22.65 25.69 22.99L25.82 23.12L25.79 23.67L25.84 23.72Q25.79 24.77 25.10 25.72L24.98 25.60L25.00 25.62Q24.42 26.41 23.50 26.60L23.61 26.70L23.53 26.62Q23.31 26.67 21.71 26.71L21.71 26.70L21.74 26.73Q21.23 26.83 20.39 26.72L20.41 26.74L20.32 26.65Q20.23 25.15 19.88 22.10L19.78 22.00L19.78 22.00Q21.21 22.21 21.89 22.21L21.90 22.22L21.89 22.20Q23.86 22.35 25.80 22.54Z"/></svg>