<svg xmlns="http://www.w3.org/2000/svg" width="150" height="50" viewBox="0,0,150,50"><path fill="#222" d="M95.42 29.65L95.53 29.77L95.53 29.77Q91.28 29.51 90.70 32.55L90.73 32.58L90.64 32.49Q90.52 33.62 90.71 34.49L90.80 34.59L90.72 34.51Q90.67 35.22 91.13 36.63L91.11 36.61L91.20 36.70Q92.29 39.89 95.60 39.73L95.52 39.65L95.56 39.70Q97.54 39.73 98.87 38.17L98.95 38.25L98.99 38.29Q100.08 36.67 100.08 34.62L100.08 34.62L100.18 34.72Q100.25 34.06 100.09 32.99L100.17 33.08L100.18 33.08Q100.16 32.23 99.75 31.54L99.60 31.40L99.65 31.44Q98.08 29.84 95.49 29.72ZM100.45 48.31L100.33 48.19L100.30 48.16Q98.43 48.69 90.36 49.07L90.39 49.10L90.38 49.09Q88.72 49.18 87.08 48.34L87.20 48.46L87.05 48.31Q87.89 47.36 89.71 45.57L89.84 45.69L89.72 45.57Q92.18 46.66 94.27 46.47L94.25 46.45L94.19 46.39Q97.17 46.22 98.01 45.95L97.95 45.89L98.01 45.95Q100.15 45.16 100.15 43.37L100.18 43.40L100.23 43.44Q100.25 43.24 100.17 43.01L100.25 43.09L100.19 41.54L100.10 41.45Q100.09 40.68 100.09 39.88L100.03 39.82L99.98 39.77Q98.76 42.17 95.37 42.17L95.22 42.01L95.37 42.16Q91.50 42.18 89.86 39.97L89.78 39.89L89.76 39.87Q88.59 38.28 87.79 33.86L87.78 33.85L87.78 33.86Q87.57 32.42 87.57 31.02L87.53 30.98L87.58 31.02Q87.47 29.13 88.39 28.14L88.56 28.32L88.53 28.28Q90.17 26.84 94.82 26.84L94.73 26.76L96.50 26.97L96.53 27.00Q99.75 27.36 101.09 29.30L101.04 29.26L101.07 29.29Q101.34 28.53 101.76 26.89L101.64 26.78L101.75 26.88Q103.57 26.49 105.32 25.77L105.36 25.82L105.23 25.69Q102.53 31.74 102.53 38.98L102.57 39.01L102.60 39.04Q102.61 41.71 102.99 44.34L103.03 44.38L103.01 44.36Q103.24 45.08 103.16 45.77L103.05 45.66L103.17 45.78Q102.82 46.99 101.60 47.75L101.73 47.88L101.68 47.83Q101.17 48.08 100.33 48.19ZM103.39 51.22L103.35 51.17L103.32 51.14Q104.81 51.23 105.57 50.27L105.55 50.26L105.49 50.19Q105.98 49.39 105.87 48.66L105.72 48.52L105.75 48.55Q105.72 47.98 105.53 47.22L105.57 47.26L105.56 47.26Q104.21 41.91 104.55 36.65L104.52 36.63L104.63 36.73Q104.89 31.20 107.02 26.37L107.12 26.47L105.03 27.43L105.07 27.46Q105.24 26.80 105.47 26.23L105.54 26.30L105.97 25.09L106.03 25.15Q103.60 26.03 101.39 26.45L101.30 26.36L101.36 26.42Q101.13 27.36 100.97 28.39L100.98 28.40L100.91 28.33Q98.71 26.32 94.68 26.32L94.76 26.40L93.06 26.46L92.96 26.35Q89.73 26.36 88.05 27.77L88.02 27.73L88.09 27.80Q87.21 28.83 87.25 30.74L87.21 30.69L87.30 30.78Q87.26 33.18 88.29 37.45L88.33 37.49L88.40 37.56Q88.76 39.36 89.98 40.77L89.94 40.74L90.36 41.15L90.44 41.23L90.33 41.12Q91.41 43.38 93.99 43.91L94.15 44.07L94.09 44.01Q95.58 44.39 97.02 44.43L96.88 44.29L97.01 44.42Q98.63 44.33 99.70 43.95L99.81 44.05L99.76 44.01Q99.24 45.66 96.58 46.00L96.50 45.92L96.38 45.80Q95.50 46.14 94.81 46.14L94.77 46.09L94.31 46.02L94.27 45.97Q91.48 46.00 89.80 45.05L89.88 45.13L88.19 46.87L88.16 46.83Q87.34 47.69 86.50 48.64L86.52 48.66L86.48 48.62Q87.41 49.09 88.40 49.28L88.47 49.35L87.63 50.27L87.62 50.25Q90.35 51.34 95.98 51.34L95.97 51.34L96.06 51.19L96.04 51.17Q99.65 51.17 103.23 51.05ZM97.36 32.01L97.42 32.07L97.40 32.05Q98.60 31.88 99.51 32.30L99.63 32.42L99.65 32.43Q99.80 32.89 99.87 33.57L99.88 33.58L99.79 33.49Q99.83 33.79 99.79 34.71L99.84 34.76L99.88 34.79Q99.74 36.64 98.64 37.94L98.72 38.02L98.66 37.96Q97.47 39.35 95.56 39.31L95.68 39.43L95.52 39.27Q94.13 39.26 93.30 38.84L93.36 38.90L93.32 38.85Q92.85 37.63 92.81 36.60L92.92 36.71L92.91 36.70Q92.69 32.25 97.30 31.95Z"/><path fill="#111" d="M48.11 40.18L48.01 40.09L45.94 40.30L45.96 40.32Q45.40 40.22 44.43 40.28L44.58 40.43L44.54 40.39Q43.49 40.36 42.99 40.36L43.12 40.49L43.04 40.41Q41.32 40.33 40.30 39.49L40.44 39.63L40.48 39.67Q41.16 38.45 42.80 36.32L42.81 36.33L42.86 36.38Q44.14 37.97 46.35 37.74L46.35 37.74L46.26 37.65Q47.27 37.63 47.92 36.99L47.81 36.88L47.86 36.93Q48.40 36.17 48.28 35.29L48.29 35.30L48.44 35.45Q48.19 30.71 48.27 26.14L48.32 26.20L48.40 26.28Q48.38 21.61 48.91 17.00L48.82 16.91L49.00 17.09Q50.81 16.77 52.94 15.74L52.98 15.78L53.03 15.83Q51.19 22.60 51.19 29.83L51.10 29.73L51.12 29.75Q51.06 33.24 51.52 36.74L51.56 36.78L51.57 36.79Q51.74 37.23 51.74 37.57L51.57 37.40L51.69 37.52Q51.69 38.09 51.46 38.63L51.47 38.64L51.39 38.55Q50.94 39.93 48.12 40.20ZM52.97 42.95L53.03 43.01L53.24 42.87L53.68 42.90L53.77 42.61L53.93 42.77Q54.19 42.46 54.27 42.34L54.28 42.36L54.25 42.33Q54.53 41.24 54.26 40.25L54.11 40.09L54.13 40.12Q52.92 34.45 53.19 28.09L53.06 27.97L53.10 28.00Q53.32 21.86 55.11 15.96L55.15 16.01L55.13 15.99Q54.16 16.54 52.91 17.27L53.08 17.44L52.93 17.29Q53.14 16.55 53.56 15.03L53.61 15.07L53.61 15.07Q51.15 16.46 48.48 16.77L48.37 16.65L48.36 16.64Q48.04 21.08 47.97 26.03L47.99 26.05L48.01 26.07Q47.87 31.91 47.95 35.34L47.95 35.34L48.07 35.46Q48.03 37.14 46.28 37.29L46.34 37.35L46.20 37.20Q44.57 37.40 42.89 35.77L42.80 35.68L42.94 35.82Q40.76 38.21 39.81 39.77L39.80 39.76L39.93 39.88Q40.59 40.55 41.62 40.77L41.57 40.72L41.48 40.63Q41.56 40.94 41.29 41.17L41.14 41.02L41.23 41.11Q42.73 42.11 44.71 42.38L44.74 42.41L44.67 42.34Q45.02 42.34 48.31 42.65L48.41 42.75L48.29 42.63Q51.53 42.88 52.90 42.88Z"/><path fill="#333" d="M23.31 40.05L23.43 40.17L21.18 40.21L21.27 40.29Q20.74 40.23 19.77 40.28L19.80 40.31L19.86 40.37Q18.79 40.33 18.30 40.33L18.42 40.45L18.40 40.43Q16.77 40.44 15.75 39.61L15.71 39.57L15.70 39.56Q16.51 38.46 18.14 36.33L18.15 36.34L18.14 36.33Q19.49 37.98 21.69 37.75L21.66 37.71L21.72 37.78Q22.58 37.60 23.22 36.96L23.14 36.87L23.27 37.00Q23.74 36.18 23.63 35.30L23.66 35.34L23.66 35.34Q23.67 30.85 23.75 26.29L23.63 26.17L23.60 26.15Q23.72 21.62 24.26 17.01L24.15 16.91L24.28 17.04Q26.24 16.87 28.37 15.84L28.24 15.71L28.42 15.89Q26.55 22.62 26.55 29.86L26.44 29.75L26.37 29.67Q26.54 33.39 27.00 36.89L26.91 36.80L26.85 36.74Q26.95 37.11 26.95 37.45L27.03 37.53L26.89 37.39Q26.93 37.99 26.70 38.53L26.71 38.54L26.81 38.64Q26.17 39.83 23.36 40.10ZM28.37 43.01L28.34 42.99L28.67 42.97L28.85 42.74L29.18 42.68L29.17 42.68Q29.51 42.44 29.59 42.33L29.60 42.35L29.58 42.32Q29.81 41.18 29.54 40.19L29.52 40.17L29.46 40.11Q28.20 34.40 28.47 28.04L28.37 27.94L28.43 28.00Q28.57 21.79 30.36 15.88L30.54 16.06L30.39 15.91Q29.61 16.66 28.35 17.38L28.37 17.39L28.36 17.39Q28.48 16.56 28.90 15.03L28.85 14.98L28.95 15.09Q26.35 16.32 23.68 16.63L23.66 16.60L23.66 16.61Q23.36 21.06 23.28 26.01L23.37 26.10L23.40 26.13Q23.36 32.07 23.43 35.49L23.40 35.46L23.40 35.46Q23.37 37.15 21.62 37.30L21.71 37.39L21.52 37.20Q19.85 37.35 18.17 35.71L18.26 35.80L18.21 35.75Q16.27 38.38 15.32 39.94L15.21 39.83L15.30 39.92Q15.88 40.51 16.91 40.73L16.92 40.74L16.84 40.67Q16.77 40.82 16.51 41.05L16.64 41.19L16.52 41.06Q18.08 42.13 20.06 42.40L20.04 42.38L20.00 42.34Q20.32 42.31 23.61 42.62L23.65 42.66L23.59 42.59Q27.04 43.06 28.41 43.06Z"/><path fill="#222" d="M121.29 41.40L121.31 41.42L121.30 41.41Q118.32 41.47 117.06 40.94L117.12 41.00L117.07 40.95Q115.16 40.18 115.24 37.71L115.15 37.62L115.34 37.81Q115.36 34.29 115.36 34.86L115.39 34.89L115.35 34.86Q115.49 29.66 112.64 24.83L112.53 24.72L112.46 24.65Q114.43 25.60 116.41 25.98L116.53 26.09L116.53 26.10Q118.13 30.59 118.01 35.08L118.05 35.11L118.18 35.25Q117.97 36.68 118.81 37.90L118.80 37.89L118.81 37.89Q119.77 39.27 121.29 39.08L121.27 39.06L121.67 38.97L121.68 38.97Q122.90 38.79 123.72 38.03L123.69 38.00L123.75 38.06Q124.55 37.27 124.55 36.32L124.51 36.28L124.55 36.32Q124.57 36.12 124.53 35.93L124.48 35.88L124.46 35.86Q124.40 30.62 125.55 26.28L125.69 26.42L125.65 26.38Q126.54 26.17 127.53 25.94L127.64 26.05L129.63 25.53L129.70 25.60Q127.05 30.52 127.35 36.08L127.31 36.04L127.31 36.04Q127.67 39.29 125.96 40.43L125.93 40.41L125.95 40.43Q124.49 41.13 121.17 41.29ZM123.66 43.85L123.50 43.69L123.60 43.79Q127.02 43.89 128.84 43.13L128.90 43.18L128.82 43.11Q129.79 42.40 129.79 41.00L129.87 41.07L129.75 40.95Q129.69 39.98 129.42 38.42L129.50 38.50L129.43 38.43Q129.10 35.43 129.48 32.43L129.38 32.32L129.37 32.31Q129.87 29.27 131.27 26.53L131.29 26.54L131.19 26.44Q130.53 26.73 129.19 27.15L129.32 27.28L129.33 27.28Q129.52 26.64 129.82 26.07L129.80 26.04L130.38 24.91L130.44 24.97Q128.38 25.49 125.22 25.99L125.28 26.05L125.24 26.01Q124.03 30.82 124.18 35.92L124.11 35.84L124.16 35.90Q124.19 37.94 121.53 38.44L121.64 38.56L121.19 38.56L121.08 38.60L120.08 38.40L120.19 38.51Q120.02 37.55 120.06 37.05L120.07 37.06L120.03 37.02Q120.25 32.52 119.56 28.10L119.48 28.02L118.51 27.96L118.46 27.91Q118.11 28.06 117.58 27.94L117.44 27.81L117.42 27.78Q117.18 26.52 116.92 25.76L116.91 25.75L116.75 25.59Q114.15 25.35 111.90 24.06L111.91 24.07L111.87 24.03Q113.96 27.48 114.68 30.87L114.65 30.84L114.67 30.86Q115.16 33.07 115.01 36.57L115.07 36.63L114.95 36.51Q115.07 36.74 115.00 37.85L114.92 37.77L115.02 37.88Q114.75 40.12 116.12 41.07L116.15 41.09L116.13 41.08Q116.56 43.37 123.56 43.75Z"/><path fill="#333" d="M70.91 40.31L70.73 40.14L70.88 40.28Q67.34 40.32 65.70 39.79L65.63 39.72L65.70 39.79Q63.72 39.14 63.41 35.75L63.39 35.72L64.88 34.71L64.98 34.81Q65.58 34.15 66.34 33.66L66.33 33.65L66.35 33.66Q66.15 35.63 67.75 36.85L67.62 36.73L67.77 36.87Q69.07 37.90 71.20 37.71L71.19 37.71L71.15 37.67Q75.41 37.13 75.22 33.59L75.25 33.62L75.34 33.71Q75.16 31.43 72.53 30.21L72.55 30.23L72.63 30.31Q69.58 29.05 67.22 27.84L67.23 27.85L67.41 28.02Q64.73 26.56 63.74 21.88L63.68 21.82L63.86 22.00Q63.65 21.44 63.53 20.68L63.51 20.66L63.57 20.72Q63.50 19.97 63.58 19.40L63.55 19.36L63.55 19.37Q63.74 17.80 65.00 17.35L64.94 17.29L64.88 17.23Q67.30 16.37 71.29 16.56L71.41 16.68L71.41 16.68Q73.20 16.76 74.00 16.83L73.97 16.80L73.89 16.72Q75.45 16.99 76.52 17.45L76.52 17.45L76.55 17.48Q78.54 17.83 78.76 20.30L78.77 20.31L78.88 20.42Q77.84 21.13 75.63 22.46L75.65 22.49L75.53 22.36Q75.22 19.46 70.84 19.46L70.73 19.35L70.83 19.45Q68.84 19.37 67.85 20.05L67.89 20.09L67.91 20.11Q66.82 20.70 67.05 22.49L66.89 22.33L67.01 22.45Q67.28 24.66 70.25 26.18L70.18 26.11L70.22 26.15Q70.77 26.40 75.26 28.03L75.15 27.92L75.14 27.91Q77.86 29.49 78.28 33.86L78.25 33.84L78.27 33.86Q78.19 33.93 78.27 35.19L78.35 35.27L78.41 35.33Q78.39 38.01 76.83 39.12L76.95 39.23L76.85 39.14Q75.01 40.11 70.82 40.23ZM73.06 42.54L73.24 42.72L73.07 42.55Q74.69 42.80 76.67 42.80L76.54 42.68L76.64 42.77Q78.71 42.75 79.97 42.33L79.93 42.29L80.02 42.38Q81.18 41.49 81.11 39.70L81.11 39.70L81.02 39.62Q80.98 38.62 80.60 36.57L80.55 36.52L80.58 36.55Q79.68 31.87 77.58 30.01L77.72 30.15L77.55 29.98Q76.88 28.51 75.55 27.79L75.61 27.85L70.14 25.62L70.14 25.62Q69.87 25.50 69.42 25.27L69.35 25.21L69.43 25.02L69.36 24.61L69.39 24.64Q69.05 23.04 70.19 22.43L70.23 22.47L70.29 22.53Q71.11 22.02 72.83 21.83L72.68 21.69L72.77 21.77Q73.92 21.66 75.06 22.12L75.11 22.17L75.03 22.09Q75.20 22.30 75.39 23.14L75.28 23.02L75.28 23.03Q75.60 23.00 76.09 22.77L76.09 22.77L75.92 22.60Q76.62 23.49 76.74 24.63L76.90 24.80L76.77 24.66Q76.98 24.76 80.63 22.17L80.49 22.03L80.53 22.07Q80.22 19.40 78.77 18.72L78.77 18.71L78.78 18.72Q78.28 17.53 76.83 17.00L76.91 17.08L76.75 16.92Q74.63 16.28 71.43 16.28L71.35 16.21L71.37 16.23Q66.41 16.17 64.54 16.85L64.51 16.83L64.55 16.87Q63.20 17.30 63.08 18.97L63.12 19.01L63.05 18.94Q63.16 19.62 63.58 21.83L63.59 21.84L63.47 21.72Q64.19 25.52 66.36 27.77L66.42 27.83L66.45 27.86Q67.09 29.42 68.59 30.10L68.65 30.15L68.66 30.17Q70.21 30.90 74.13 32.46L74.10 32.43L74.07 32.44L74.71 32.77L74.71 32.81L74.86 32.96Q74.84 33.21 74.88 33.55L74.90 33.57L74.88 33.55Q74.98 37.04 71.06 37.19L71.17 37.31L71.10 37.23Q69.92 37.23 68.62 36.85L68.67 36.89L68.65 36.88Q68.34 36.07 68.34 35.35L68.40 35.41L68.40 35.41Q68.25 35.00 68.29 34.73L68.35 34.79L68.37 34.81Q67.97 35.05 67.17 35.55L67.17 35.55L67.22 35.60Q66.64 34.41 66.79 33.04L66.86 33.11L66.88 33.13Q64.65 34.18 63.06 35.58L63.18 35.71L63.20 35.73Q63.15 36.44 63.23 37.47L63.27 37.51L63.31 37.55Q63.61 39.26 64.91 40.02L64.89 40.00L64.83 39.95Q66.05 41.77 68.60 42.16L68.69 42.25L68.70 42.25Q70.16 42.38 73.09 42.57Z"/></svg>