<svg xmlns="http://www.w3.org/2000/svg" width="150" height="50" viewBox="0,0,150,50"><path fill="#333" d="M47.69 18.55L47.50 18.35L47.58 18.43Q46.94 18.89 46.79 19.69L46.64 19.54L46.63 24.67L46.75 24.80Q47.86 24.77 50.07 24.50L50.15 24.58L50.09 24.52Q50.01 24.89 49.97 25.73L49.98 25.74L49.95 25.71Q50.08 26.64 50.08 27.10L49.98 26.99L48.43 27.13L48.49 27.18Q47.69 27.26 46.82 27.26L46.81 27.25L46.77 27.21Q46.69 31.32 46.62 39.70L46.59 39.68L46.71 39.80Q44.44 39.81 42.95 40.49L43.04 40.58L42.97 40.51Q44.06 34.36 43.95 27.13L43.90 27.08L43.87 27.05Q43.22 27.02 41.93 26.75L41.98 26.80L42.07 26.89Q41.90 25.74 41.71 23.79L41.77 23.85L41.75 23.83Q42.84 24.32 43.79 24.51L43.84 24.55L43.89 24.60Q43.88 23.98 43.57 21.51L43.46 21.39L43.42 21.35Q43.26 19.36 43.26 18.41L43.25 18.41L43.28 18.43Q43.22 16.70 44.63 16.13L44.70 16.20L44.76 16.26Q45.49 15.81 50.33 14.98L50.39 15.04L50.27 14.92Q51.22 14.91 52.06 14.80L51.91 14.65L51.90 14.64Q51.84 15.57 51.68 16.44L51.56 16.32L51.34 17.96L51.28 17.91Q50.56 17.68 50.06 17.79L50.15 17.88L50.18 17.91Q49.49 17.83 47.59 18.44ZM53.14 19.68L53.03 19.58L52.97 19.52Q53.48 17.48 54.09 14.92L53.97 14.81L53.92 14.76Q53.36 15.15 52.07 15.76L52.18 15.87L52.44 14.04L52.55 14.15Q51.23 14.24 48.75 14.77L48.78 14.80L48.85 14.86Q47.65 14.92 44.45 15.83L44.32 15.70L44.33 15.71Q42.80 16.16 42.80 18.02L42.87 18.10L42.90 18.13Q42.77 18.30 42.84 18.64L42.93 18.73L42.88 18.68Q43.12 20.02 43.23 21.35L43.21 21.34L43.36 23.95L43.46 24.05Q42.06 23.64 41.41 23.19L41.39 23.17L41.49 23.27Q41.55 24.16 41.59 25.19L41.66 25.26L41.64 27.11L41.67 27.14Q42.36 27.29 43.16 27.37L43.21 27.43L43.20 29.50L43.62 29.55L43.65 29.57Q43.49 35.66 42.50 41.10L42.52 41.12L42.57 41.17Q43.59 40.71 44.77 40.44L44.59 40.26L44.56 42.48L44.54 42.46Q45.76 42.16 47.06 42.12L47.10 42.16L47.09 42.15Q48.21 42.02 49.47 42.28L49.52 42.34L49.49 42.31Q48.68 37.35 48.68 29.39L48.62 29.34L48.62 29.34Q49.78 29.39 51.87 29.46L51.93 29.52L51.81 27.54L51.77 27.50Q51.78 26.55 51.82 25.60L51.92 25.70L51.81 25.59Q51.48 25.84 50.42 26.10L50.44 26.12L50.36 26.05Q50.42 25.42 50.53 24.09L50.53 24.09L50.52 24.07Q49.56 24.17 48.76 24.25L48.81 24.30L48.88 24.37Q48.85 22.94 48.96 21.53L49.00 21.56L48.94 21.51Q49.03 20.79 49.56 20.45L49.63 20.52L49.66 20.54Q50.50 19.75 51.32 19.67L51.30 19.66L51.33 19.69Q52.20 19.66 53.04 19.58Z"/><path fill="#333" d="M113.77 41.15L113.70 41.08L113.76 41.14Q116.93 36.88 123.63 28.97L123.53 28.87L123.54 28.88Q117.66 29.13 113.89 27.76L113.90 27.77L114.00 27.87Q113.22 26.32 112.46 24.92L112.44 24.90L112.48 24.94Q116.49 26.36 120.94 26.40L121.05 26.51L120.97 26.43Q125.57 26.61 129.76 25.54L129.77 25.55L129.65 25.44Q129.30 26.15 129.04 26.69L129.01 26.66L129.03 26.68Q126.39 28.79 123.57 32.41L123.57 32.41L118.68 38.63L118.70 38.66Q121.05 38.57 123.30 38.65L123.16 38.51L123.18 38.53Q125.41 38.63 127.65 39.01L127.66 39.02L127.62 38.98Q127.87 39.68 128.59 41.70L128.52 41.62L128.59 41.70Q124.79 40.79 120.79 40.90L120.78 40.89L120.71 40.82Q116.78 40.97 113.13 42.15L113.17 42.19L113.26 42.28Q113.23 42.02 113.69 41.07ZM112.62 42.82L112.71 42.91L112.62 42.82Q113.38 42.47 114.97 42.05L114.97 42.05L115.03 42.11Q114.66 42.20 114.25 42.62L114.42 42.79L114.29 42.67Q114.02 43.19 113.41 44.33L113.39 44.32L113.52 44.44Q118.24 43.11 123.22 43.26L123.24 43.28L123.12 43.15Q128.16 43.39 132.72 45.26L132.82 45.35L132.73 45.27Q131.20 43.32 130.29 41.26L130.43 41.40L130.30 41.28Q129.56 40.99 128.49 40.76L128.56 40.82L128.61 40.88Q128.32 40.06 127.94 38.61L128.04 38.71L127.87 38.54Q126.43 38.31 122.85 38.20L122.77 38.12L122.86 38.22Q125.22 34.86 130.25 28.51L130.25 28.51L130.34 28.59Q130.57 27.84 131.25 26.50L131.19 26.44L128.87 27.16L128.92 27.22Q128.90 27.05 129.06 26.93L129.11 26.99L129.38 26.88L129.23 26.73Q129.80 25.78 130.37 24.83L130.45 24.90L130.40 24.86Q125.69 26.16 120.97 26.09L120.93 26.04L121.02 26.13Q116.26 26.09 111.77 24.27L111.75 24.24L111.78 24.28Q112.97 26.15 113.77 28.21L113.71 28.15L113.63 28.07Q114.59 28.50 115.66 28.76L115.66 28.77L115.66 28.76Q115.71 29.31 116.01 30.75L116.00 30.74L116.11 30.85Q117.65 31.06 120.96 31.22L120.91 31.16L121.09 31.34Q118.55 34.51 113.38 40.95L113.43 41.00L113.36 40.93Q113.28 41.69 112.71 42.91Z"/><path fill="#111" d="M28.47 28.79L28.39 28.70L22.39 28.68L22.40 28.69Q19.55 28.81 16.61 28.73L16.53 28.65L16.55 28.67Q16.69 35.40 14.64 40.92L14.74 41.02L14.77 41.05Q12.83 41.43 11.08 42.11L11.00 42.04L11.04 42.08Q13.96 36.51 13.96 29.84L13.96 29.85L13.96 29.85Q13.79 21.19 9.68 14.15L9.78 14.24L9.74 14.20Q11.35 15.09 13.82 15.89L13.74 15.81L13.74 15.80Q15.87 20.87 16.40 25.74L16.51 25.85L16.49 25.83Q19.55 26.10 22.40 26.07L22.51 26.18L22.54 26.21Q25.23 26.23 28.54 25.96L28.49 25.91L28.52 25.94Q28.97 21.52 30.72 16.42L30.76 16.45L30.76 16.45Q32.58 15.91 34.82 15.08L34.77 15.02L34.85 15.10Q31.24 21.84 31.24 29.80L31.33 29.89L31.15 29.71Q31.32 36.09 33.68 41.42L33.58 41.32L33.60 41.34Q31.93 40.65 29.87 40.35L30.02 40.50L29.88 40.36Q28.24 35.37 28.36 28.67ZM29.66 40.75L29.75 40.83L29.75 40.84Q30.77 40.99 31.88 41.25L31.88 41.25L31.85 41.22Q32.17 41.93 32.82 43.41L32.85 43.44L32.77 43.36Q36.22 44.41 38.01 45.33L38.03 45.35L37.99 45.31Q33.57 39.18 33.27 30.92L33.18 30.83L33.12 30.77Q32.80 22.72 36.46 15.91L36.45 15.90L35.50 16.48L35.36 16.34Q35.04 16.74 34.43 16.89L34.42 16.88L34.35 16.81Q34.82 16.06 35.66 14.50L35.67 14.51L35.53 14.37Q32.95 15.48 30.32 15.98L30.24 15.90L30.27 15.92Q28.71 20.88 28.26 25.56L28.17 25.47L28.14 25.45Q25.69 25.70 23.26 25.70L23.22 25.67L23.36 25.80Q20.79 25.63 18.28 25.48L18.44 25.65L18.43 25.63Q18.06 22.22 16.96 18.15L16.95 18.14L16.98 18.17Q16.39 18.15 14.94 17.77L14.94 17.77L14.82 17.64Q14.44 16.43 13.98 15.40L14.12 15.54L14.02 15.44Q11.31 14.71 9.03 13.45L8.97 13.39L9.02 13.45Q13.70 20.98 13.70 29.77L13.56 29.63L13.62 29.69Q13.54 36.58 10.42 42.71L10.51 42.81L10.50 42.79Q11.18 42.48 12.51 41.91L12.61 42.01L12.51 41.91Q12.24 42.82 11.44 44.35L11.38 44.28L11.42 44.32Q14.25 43.35 16.50 42.93L16.50 42.93L16.41 42.84Q18.26 37.26 18.45 31.09L18.46 31.11L18.48 31.13Q20.19 31.17 23.39 31.13L23.30 31.03L23.39 31.13Q26.22 31.07 28.13 31.14L28.10 31.12L28.04 31.06Q28.24 36.74 29.58 40.66Z"/><path fill="#222" d="M68.28 30.63L68.37 30.72L68.30 30.64Q68.27 30.61 71.66 30.58L71.63 30.55L71.64 30.55Q73.88 30.52 74.95 30.55L74.98 30.59L74.96 30.56Q74.03 27.81 71.59 22.17L71.55 22.13L71.48 22.06Q70.87 23.43 69.82 26.28L69.87 26.33L69.82 26.29Q68.81 29.18 68.24 30.59ZM76.17 33.15L76.22 33.19L76.23 33.20Q73.86 33.09 71.66 33.13L71.72 33.19L71.57 33.03Q69.38 33.14 67.10 33.33L67.12 33.35L67.18 33.41Q65.58 36.76 62.35 40.95L62.27 40.87L62.27 40.87Q59.72 41.52 58.35 42.01L58.36 42.02L58.37 42.04Q63.57 36.46 68.25 23.10L68.24 23.08L68.24 23.09Q69.45 19.61 70.82 16.37L70.82 16.38L70.81 16.37Q71.12 16.37 71.46 16.37L71.56 16.47L72.15 16.34L72.16 16.34Q72.86 17.65 77.69 29.30L77.71 29.32L77.77 29.38Q80.99 37.17 84.99 41.32L85.09 41.42L85.05 41.38Q84.60 41.31 80.72 40.43L80.63 40.35L80.56 40.28Q78.20 37.35 76.22 33.20ZM80.62 40.76L80.53 40.67L81.07 40.71L81.17 40.81Q81.52 40.93 81.82 41.05L81.64 40.86L81.83 41.05Q82.13 41.39 83.95 43.41L83.95 43.40L83.92 43.37Q87.59 44.30 89.99 45.33L89.95 45.29L89.94 45.28Q84.49 40.78 80.49 32.79L80.34 32.64L80.43 32.72Q78.71 29.33 77.26 25.37L77.26 25.37L74.58 17.93L74.53 17.88Q74.39 18.08 74.16 18.08L74.11 18.03L73.53 17.98L73.55 18.00Q73.13 17.28 72.41 15.91L72.39 15.89L72.39 15.89Q72.07 16.10 71.61 16.06L71.46 15.92L71.46 15.91Q70.99 15.86 70.46 15.86L70.49 15.89L70.50 15.91Q69.10 19.83 65.22 30.00L65.22 30.00L65.20 29.98Q62.14 38.00 57.50 42.80L57.41 42.71L57.38 42.68Q58.51 42.36 60.52 41.75L60.53 41.76L60.43 41.66Q59.74 42.60 58.18 44.39L58.21 44.43L58.24 44.45Q59.99 43.85 63.91 43.08L63.92 43.09L63.80 42.97Q67.26 38.66 68.82 35.43L68.85 35.46L68.80 35.41Q70.63 35.37 72.95 35.41L72.90 35.36L72.90 35.36Q75.67 35.42 77.04 35.50L77.03 35.50L77.01 35.47Q78.31 37.87 80.67 40.81ZM72.85 26.02L72.86 26.03L72.82 25.99Q73.77 28.16 74.53 30.25L74.43 30.15L71.16 30.19L71.25 30.28Q71.84 28.85 72.90 26.07Z"/><path fill="#333" d="M97.74 27.75L97.79 27.80L97.72 27.72Q94.18 27.62 93.08 30.97L93.05 30.94L93.02 30.90Q92.69 32.02 92.57 33.08L92.54 33.06L92.58 33.10Q92.45 35.21 93.44 36.55L93.34 36.44L93.48 36.58Q94.72 37.67 97.19 37.71L97.26 37.77L97.14 37.66Q98.96 37.68 100.37 36.54L100.38 36.55L100.47 36.64Q101.75 35.38 101.75 33.59L101.76 33.60L101.75 33.58Q101.82 33.31 101.74 32.93L101.67 32.86L101.73 32.92Q101.52 27.80 97.71 27.72ZM97.61 40.18L97.69 40.26L97.54 40.11Q93.73 40.33 91.94 38.31L92.11 38.48L92.07 38.45Q91.84 39.47 91.38 40.84L91.44 40.90L91.33 40.79Q89.45 41.61 88.19 42.18L88.17 42.16L88.04 42.03Q90.34 36.19 90.34 29.68L90.36 29.69L90.35 29.69Q90.41 21.44 86.98 13.60L86.81 13.43L86.90 13.52Q89.17 14.80 90.50 15.26L90.51 15.26L90.58 15.33Q92.62 21.90 92.77 27.73L92.70 27.66L92.74 27.69Q94.23 25.07 97.96 25.11L98.05 25.20L98.08 25.23Q101.23 25.18 102.71 27.05L102.65 26.99L102.81 27.15Q104.53 29.32 104.68 32.90L104.65 32.87L104.75 32.97Q104.64 33.96 104.57 35.56L104.60 35.60L104.76 35.76Q104.55 37.03 103.67 38.17L103.69 38.19L103.83 38.33Q102.01 39.97 97.67 40.24ZM103.17 42.77L103.14 42.74L103.01 42.61Q104.61 42.73 106.09 42.04L106.09 42.04L106.12 42.07Q107.21 40.75 107.24 38.81L107.19 38.76L107.23 38.80Q107.34 38.42 107.19 37.24L107.17 37.21L107.14 37.18Q106.99 36.42 106.87 35.51L106.90 35.53L106.83 35.47Q106.15 30.82 104.59 28.77L104.44 28.62L104.49 28.67Q104.59 28.74 103.79 27.86L103.65 27.71L103.78 27.85Q103.44 27.47 102.91 26.67L102.94 26.70L102.98 26.75Q101.31 24.73 97.96 24.77L97.96 24.77L98.05 24.86Q95.97 24.87 94.71 25.48L94.64 25.41L94.70 25.47Q94.39 20.97 93.78 17.77L93.65 17.65L93.82 17.81Q93.04 17.60 91.55 17.22L91.59 17.26L91.47 17.14Q91.39 16.44 90.93 15.00L90.94 15.01L90.91 14.98Q88.48 14.19 86.24 12.63L86.19 12.59L86.30 12.69Q90.02 20.83 90.02 29.63L90.07 29.67L90.03 29.63Q89.96 36.53 87.49 42.74L87.50 42.74L87.54 42.79Q88.27 42.49 89.60 41.92L89.61 41.93L89.47 41.78Q89.41 42.72 88.80 44.24L88.68 44.11L88.66 44.09Q90.63 43.17 93.41 42.64L93.52 42.76L93.79 40.81L93.95 40.97Q96.25 42.66 103.17 42.77ZM99.26 29.95L99.38 30.07L99.26 29.95Q100.38 30.05 100.92 30.43L100.83 30.35L100.90 30.41Q101.14 30.84 101.37 32.86L101.50 32.99L101.34 32.83Q101.61 34.78 100.36 36.09L100.39 36.12L100.36 36.10Q99.05 37.36 97.11 37.24L97.26 37.39L97.29 37.43Q96.27 37.47 94.78 36.97L94.82 37.01L94.72 36.91Q94.63 36.55 94.63 36.02L94.60 35.99L94.60 35.99Q94.48 32.78 96.04 31.18L96.15 31.30L96.10 31.28L96.16 31.34Q97.57 29.94 99.32 30.01Z"/></svg>