<svg xmlns="http://www.w3.org/2000/svg" width="150" height="50" viewBox="0,0,150,50"><path fill="#444" d="M70.72 40.13L70.85 40.26L70.76 40.17Q67.39 40.38 65.76 39.84L65.64 39.73L65.73 39.82Q63.71 39.13 63.41 35.74L63.52 35.85L64.96 34.79L64.90 34.72Q65.60 34.17 66.36 33.67L66.31 33.62L66.39 33.70Q66.17 35.65 67.77 36.87L67.80 36.90L67.79 36.89Q68.97 37.81 71.11 37.62L71.16 37.67L71.20 37.72Q75.50 37.22 75.31 33.68L75.34 33.70L75.31 33.68Q75.25 31.52 72.62 30.30L72.58 30.26L72.50 30.18Q69.72 29.19 67.36 27.97L67.36 27.98L67.25 27.86Q64.75 26.58 63.76 21.90L63.73 21.87L63.78 21.92Q63.71 21.51 63.60 20.75L63.50 20.64L63.46 20.61Q63.50 19.96 63.57 19.39L63.64 19.46L63.45 19.27Q63.74 17.80 64.99 17.35L65.02 17.37L64.88 17.23Q67.42 16.50 71.42 16.69L71.38 16.65L71.38 16.66Q73.13 16.69 73.93 16.77L73.90 16.73L73.99 16.82Q75.48 17.02 76.54 17.47L76.49 17.42L76.57 17.50Q78.66 17.95 78.89 20.43L78.83 20.37L78.93 20.47Q77.78 21.07 75.57 22.40L75.70 22.53L75.62 22.45Q75.27 19.52 70.90 19.52L70.79 19.41L70.89 19.51Q68.86 19.39 67.87 20.07L67.97 20.17L67.91 20.10Q66.76 20.64 66.99 22.43L67.06 22.49L66.88 22.31Q67.29 24.67 70.26 26.19L70.24 26.17L70.30 26.23Q70.78 26.41 75.27 28.04L75.23 28.00L75.25 28.02Q77.78 29.41 78.20 33.79L78.25 33.83L78.18 33.77Q78.38 34.12 78.46 35.38L78.40 35.32L78.45 35.37Q78.44 38.06 76.88 39.17L76.94 39.22L76.84 39.13Q74.92 40.02 70.73 40.14ZM73.20 42.68L73.07 42.56L73.07 42.55Q74.64 42.75 76.62 42.75L76.63 42.76L76.58 42.71Q78.64 42.68 79.90 42.26L79.84 42.20L79.89 42.25Q81.23 41.54 81.15 39.75L80.99 39.59L81.07 39.66Q81.04 38.69 80.66 36.63L80.70 36.67L80.61 36.58Q79.82 32.02 77.72 30.15L77.60 30.03L77.61 30.03Q76.84 28.47 75.50 27.74L75.52 27.76L70.25 25.72L70.27 25.75Q69.98 25.61 69.53 25.38L69.45 25.31L69.39 24.98L69.23 24.47L69.37 24.61Q69.16 23.15 70.30 22.54L70.21 22.44L70.22 22.46Q71.07 21.97 72.78 21.78L72.67 21.67L72.80 21.80Q73.85 21.60 75.00 22.06L74.97 22.03L74.96 22.02Q75.06 22.16 75.25 23.00L75.34 23.08L75.21 22.96Q75.56 22.97 76.06 22.74L75.98 22.66L76.08 22.76Q76.77 23.64 76.88 24.78L76.76 24.66L76.90 24.79Q76.87 24.66 80.53 22.07L80.58 22.12L80.52 22.06Q80.36 19.54 78.92 18.86L78.94 18.88L78.79 18.73Q78.23 17.48 76.78 16.95L76.78 16.95L76.87 17.04Q74.50 16.16 71.30 16.16L71.41 16.26L71.45 16.30Q66.48 16.25 64.62 16.93L64.53 16.84L64.50 16.82Q63.20 17.30 63.09 18.98L63.18 19.08L63.23 19.12Q63.00 19.47 63.42 21.67L63.51 21.77L63.52 21.77Q64.25 25.58 66.42 27.83L66.33 27.74L66.42 27.83Q67.20 29.52 68.70 30.21L68.77 30.27L68.64 30.15Q70.23 30.92 74.15 32.48L74.08 32.41L74.08 32.45L74.82 32.88L74.69 32.79L74.68 32.78Q74.85 33.21 74.89 33.56L75.03 33.71L74.98 33.65Q75.00 37.05 71.07 37.21L71.11 37.24L71.04 37.17Q69.99 37.30 68.70 36.92L68.59 36.81L68.57 36.79Q68.33 36.06 68.33 35.34L68.26 35.27L68.27 35.28Q68.35 35.09 68.39 34.83L68.46 34.90L68.43 34.87Q68.06 35.15 67.26 35.64L67.19 35.57L67.20 35.57Q66.61 34.38 66.76 33.01L66.78 33.02L66.90 33.15Q64.75 34.27 63.16 35.68L63.21 35.74L63.16 35.69Q63.24 36.53 63.32 37.56L63.23 37.47L63.25 37.49Q63.52 39.17 64.82 39.93L64.86 39.98L64.95 40.07Q66.11 41.83 68.66 42.21L68.66 42.22L68.66 42.22Q70.30 42.52 73.23 42.71Z"/><path fill="#111" d="M30.33 40.33L30.43 40.44L30.42 40.43Q27.46 36.55 24.83 27.90L24.74 27.82L24.76 27.83Q24.16 25.75 23.36 23.62L23.27 23.53L20.53 32.44L20.43 32.34Q18.67 37.32 16.28 40.55L16.14 40.41L16.14 40.42Q15.38 40.58 13.75 40.73L13.64 40.63L13.77 40.75Q13.94 39.63 13.94 38.37L13.86 38.29L13.95 38.38Q13.78 32.20 11.04 26.07L11.02 26.05L11.08 26.11Q8.05 19.31 2.19 14.33L2.20 14.33L2.12 14.26Q4.24 14.93 6.60 15.46L6.65 15.51L6.72 15.58Q15.30 23.93 16.59 34.89L16.69 35.00L16.54 34.85Q18.22 31.58 19.67 26.21L19.69 26.23L19.60 26.14Q21.62 18.68 22.11 17.27L22.11 17.26L24.31 17.22L24.33 17.24Q25.03 19.28 25.68 21.60L25.70 21.61L27.07 26.18L26.98 26.09Q28.46 31.46 29.87 34.69L29.90 34.73L30.02 34.85Q31.61 23.15 39.53 15.80L39.55 15.82L39.59 15.86Q41.02 15.43 43.99 14.78L44.13 14.92L44.01 14.80Q38.69 19.11 35.64 25.24L35.77 25.36L35.76 25.36Q32.64 31.57 32.64 38.34L32.49 38.19L32.51 38.21Q32.64 39.44 32.71 40.58L32.59 40.46L31.60 40.49L31.56 40.46Q31.01 40.45 30.44 40.45ZM36.53 43.18L36.71 43.37L36.60 43.25Q35.35 39.68 35.47 35.80L35.45 35.78L35.42 35.75Q35.84 24.30 45.21 16.04L45.26 16.09L45.15 15.98Q44.23 16.24 42.28 16.77L42.25 16.73L42.30 16.79Q43.28 15.98 45.18 14.19L45.10 14.10L45.10 14.11Q42.53 14.96 39.60 15.46L39.63 15.48L39.57 15.43Q32.07 22.54 30.16 32.02L30.22 32.08L30.12 31.98Q29.66 30.45 26.80 18.99L26.80 18.99L26.77 18.95Q26.32 19.00 25.36 19.00L25.30 18.93L25.07 17.94L25.08 17.95Q24.94 17.39 24.71 16.89L24.61 16.79L21.74 16.82L21.84 16.92Q21.07 19.42 19.79 24.54L19.65 24.40L19.68 24.43Q18.44 29.59 17.45 32.06L17.45 32.06L17.51 32.11Q15.95 24.24 10.39 17.92L10.41 17.93L10.39 17.92Q9.80 17.75 8.85 17.56L8.89 17.60L8.80 17.51Q8.15 16.74 6.59 15.10L6.50 15.02L6.68 15.20Q3.28 14.39 1.11 13.59L1.08 13.55L1.08 13.56Q6.79 18.27 10.06 24.48L9.94 24.36L9.89 24.31Q13.52 31.09 13.52 38.10L13.43 38.01L13.39 37.97Q13.52 39.67 13.33 41.27L13.24 41.18L13.18 41.11Q13.38 41.08 13.83 40.99L13.93 41.08L13.94 41.09Q14.43 41.03 14.66 41.03L14.69 41.06L14.62 42.02L14.52 41.92Q14.60 42.46 14.68 43.00L14.65 42.96L14.77 43.09Q15.74 42.84 18.02 42.68L18.08 42.74L18.18 42.84Q21.68 37.32 24.42 27.92L24.42 27.92L24.52 28.01Q27.34 36.85 30.31 40.81L30.14 40.64L30.15 40.65Q30.67 40.71 31.50 40.82L31.49 40.81L31.57 40.89Q32.36 41.87 33.42 42.93L33.52 43.03L33.46 42.97Q34.17 42.95 36.57 43.22Z"/><path fill="#333" d="M120.13 40.20L120.16 40.23L120.21 40.29Q116.60 40.26 114.97 39.72L115.03 39.79L115.11 39.87Q113.13 39.22 112.83 35.83L112.72 35.72L114.18 34.67L114.24 34.73Q114.93 34.16 115.69 33.67L115.72 33.70L115.69 33.67Q115.43 35.58 117.03 36.79L117.05 36.82L117.08 36.85Q118.23 37.73 120.36 37.54L120.55 37.73L120.36 37.54Q124.79 37.17 124.60 33.63L124.69 33.72L124.72 33.76Q124.53 31.47 121.90 30.25L121.83 30.18L121.90 30.25Q118.97 29.11 116.61 27.89L116.58 27.86L116.59 27.86Q114.06 26.55 113.07 21.87L113.05 21.86L113.16 21.96Q113.06 21.52 112.94 20.76L112.85 20.67L112.87 20.68Q112.80 19.93 112.87 19.36L112.92 19.40L112.80 19.28Q113.09 17.82 114.34 17.36L114.37 17.39L114.19 17.21Q116.76 16.51 120.76 16.70L120.71 16.65L120.76 16.70Q122.55 16.77 123.35 16.85L123.26 16.76L123.26 16.76Q124.73 16.94 125.80 17.39L125.85 17.45L125.90 17.50Q128.04 18.00 128.27 20.47L128.11 20.32L128.20 20.40Q127.22 21.18 125.01 22.51L124.88 22.37L125.03 22.53Q124.54 19.45 120.16 19.45L120.09 19.38L120.22 19.51Q118.35 19.54 117.36 20.22L117.20 20.07L117.31 20.17Q116.13 20.68 116.36 22.46L116.35 22.45L116.29 22.39Q116.48 24.53 119.45 26.05L119.54 26.14L119.60 26.19Q120.10 26.39 124.59 28.03L124.48 27.92L124.60 28.03Q127.26 29.56 127.68 33.94L127.67 33.93L127.54 33.80Q127.63 34.03 127.70 35.29L127.79 35.38L127.69 35.28Q127.82 38.11 126.26 39.21L126.26 39.21L126.22 39.18Q124.38 40.15 120.19 40.26ZM122.42 42.57L122.39 42.54L122.48 42.63Q123.97 42.75 125.95 42.75L125.82 42.62L125.86 42.66Q127.95 42.66 129.21 42.24L129.21 42.24L129.21 42.24Q130.49 41.47 130.42 39.68L130.36 39.62L130.46 39.72Q130.26 38.57 129.88 36.51L129.93 36.57L130.06 36.70Q128.98 31.84 126.88 29.98L127.06 30.16L126.98 30.07Q126.28 28.58 124.95 27.85L124.86 27.76L119.61 25.75L119.46 25.60Q119.19 25.48 118.73 25.25L118.81 25.33L118.75 25.01L118.58 24.50L118.66 24.58Q118.40 23.06 119.54 22.45L119.63 22.53L119.63 22.53Q120.46 22.03 122.17 21.84L122.03 21.70L122.13 21.80Q123.28 21.69 124.42 22.15L124.29 22.02L124.30 22.03Q124.37 22.13 124.56 22.97L124.61 23.02L124.68 23.09Q124.80 22.87 125.30 22.65L125.40 22.74L125.33 22.67Q126.11 23.65 126.23 24.79L126.21 24.77L126.15 24.72Q126.22 24.66 129.87 22.08L129.86 22.07L129.87 22.08Q129.57 19.42 128.13 18.73L128.27 18.88L128.16 18.77Q127.68 17.60 126.23 17.07L126.26 17.09L126.27 17.10Q123.95 16.28 120.76 16.28L120.68 16.20L120.72 16.24Q115.76 16.19 113.90 16.88L113.81 16.79L113.83 16.81Q112.49 17.25 112.37 18.93L112.37 18.93L112.54 19.10Q112.36 19.49 112.78 21.70L112.84 21.76L112.79 21.71Q113.59 25.60 115.76 27.84L115.65 27.72L115.77 27.85Q116.50 29.49 118.01 30.18L118.05 30.22L118.07 30.24Q119.60 30.96 123.52 32.52L123.46 32.46L123.38 32.42L124.02 32.75L124.02 32.78L124.05 32.82Q124.17 33.20 124.21 33.55L124.23 33.56L124.30 33.63Q124.36 37.09 120.44 37.24L120.40 37.20L120.44 37.24Q119.23 37.21 117.94 36.83L117.92 36.82L117.96 36.86Q117.74 36.14 117.74 35.42L117.62 35.30L117.74 35.41Q117.59 35.00 117.63 34.73L117.65 34.76L117.62 34.73Q117.39 35.14 116.59 35.63L116.45 35.49L116.43 35.48Q116.10 34.53 116.25 33.16L116.08 32.99L116.22 33.13Q114.07 34.25 112.47 35.66L112.39 35.58L112.50 35.69Q112.45 36.40 112.52 37.43L112.66 37.57L112.57 37.47Q112.96 39.28 114.25 40.04L114.27 40.06L114.17 39.95Q115.43 41.82 117.98 42.20L117.91 42.13L117.94 42.17Q119.49 42.38 122.42 42.57Z"/><path fill="#333" d="M48.69 20.17L48.65 20.13L48.62 20.10Q44.39 20.18 40.70 19.19L40.66 19.15L40.52 19.01Q42.14 23.67 42.33 28.51L42.28 28.45L42.25 28.43Q42.52 33.30 41.30 37.91L41.25 37.85L41.29 37.89Q44.10 37.27 47.60 37.12L47.70 37.22L47.63 37.15Q51.52 36.93 53.31 34.50L53.35 34.54L53.39 34.58Q54.78 32.39 54.97 28.28L55.03 28.34L55.02 28.32Q55.12 26.59 54.66 24.88L54.59 24.81L54.61 24.83Q53.36 20.11 48.64 20.11ZM36.72 42.12L36.72 42.12L36.72 42.12Q39.64 36.48 39.64 29.78L39.66 29.79L39.61 29.74Q39.55 21.15 35.24 14.15L35.29 14.19L35.41 14.31Q40.63 16.94 48.89 17.13L48.88 17.12L48.81 17.05Q57.76 17.33 58.11 24.48L58.06 24.44L58.07 24.45Q58.20 27.17 58.16 28.61L58.14 28.60L58.14 28.59Q58.10 33.31 57.26 35.48L57.26 35.47L57.27 35.49Q56.82 36.56 56.06 37.40L56.10 37.44L56.12 37.46Q54.76 38.99 52.13 39.49L52.02 39.38L52.08 39.44Q50.53 39.75 47.52 39.98L47.40 39.85L47.47 39.93Q41.42 40.46 36.81 42.21ZM54.68 42.04L54.64 42.00L54.64 41.99Q57.39 41.66 59.03 40.18L59.13 40.28L59.11 40.26Q60.19 38.37 60.15 35.63L60.27 35.75L60.14 35.62Q60.15 34.26 60.00 30.76L60.12 30.88L59.61 26.17L59.65 26.22Q59.47 23.94 58.52 21.85L58.48 21.82L58.56 21.90Q58.07 20.98 57.38 20.33L57.41 20.36L57.39 20.19L57.37 20.17Q55.63 17.18 51.22 16.80L51.14 16.72L51.25 16.82Q48.55 16.68 41.55 15.96L41.52 15.94L41.48 15.89Q38.25 15.47 34.55 13.46L34.50 13.40L34.64 13.54Q39.37 20.82 39.37 29.57L39.47 29.68L39.39 29.60Q39.47 36.69 36.12 42.86L36.07 42.80L36.06 42.79Q36.78 42.56 38.11 42.06L38.09 42.04L38.16 42.11Q37.72 42.85 36.85 44.34L36.92 44.41L36.82 44.31Q39.91 43.29 43.26 42.79L43.15 42.69L43.20 42.73Q45.34 42.48 48.99 42.36L49.01 42.38L48.90 42.27Q52.91 42.28 54.74 42.09ZM54.70 28.39L54.61 28.30L54.69 28.37Q54.30 36.36 47.60 36.74L47.72 36.86L47.52 36.67Q45.66 36.86 43.60 37.12L43.57 37.09L43.63 37.16Q44.33 33.29 44.33 29.63L44.27 29.57L44.34 29.64Q44.33 25.93 43.60 22.09L43.50 21.98L43.60 22.09Q45.84 22.42 50.53 22.42L50.59 22.48L50.55 22.44Q51.90 22.28 53.54 23.23L53.50 23.19L53.56 23.25Q54.76 25.44 54.61 28.30Z"/><path fill="#222" d="M95.18 29.96L95.14 29.92L95.06 29.85Q94.84 29.85 94.54 29.85L94.47 29.79L94.55 29.87Q93.25 29.90 91.81 30.74L91.72 30.65L91.70 30.63Q90.43 31.80 90.43 33.70L90.36 33.63L90.35 33.63Q90.44 37.14 91.97 38.48L91.94 38.45L92.02 38.53Q92.82 39.55 95.10 39.55L95.25 39.70L95.16 39.61Q95.44 39.67 95.75 39.67L95.74 39.66L95.78 39.70Q97.38 39.59 98.52 37.95L98.54 37.97L98.65 38.08Q99.59 36.47 99.51 34.68L99.62 34.78L99.63 34.80Q99.55 34.18 99.55 33.76L99.68 33.89L99.59 33.81Q99.57 31.99 98.20 30.83L98.32 30.96L98.33 30.96Q96.82 29.66 95.03 29.82ZM99.62 40.08L99.50 39.96L99.62 40.08Q98.64 42.02 94.91 42.14L94.80 42.03L94.80 42.04Q91.42 42.15 89.82 40.55L89.88 40.61L89.78 40.52Q88.31 38.74 87.51 33.94L87.64 34.07L87.68 34.12Q87.22 32.20 87.22 30.95L87.37 31.10L87.30 31.03Q87.34 29.29 88.07 28.22L88.07 28.23L87.94 28.09Q89.35 26.76 92.31 26.76L92.29 26.74L92.32 26.76Q98.69 26.81 100.60 29.40L100.67 29.48L100.61 29.41Q100.67 28.49 101.09 26.89L101.10 26.90L101.25 27.05Q102.44 26.68 104.87 25.88L104.95 25.95L104.95 25.95Q102.44 31.52 102.21 37.84L102.15 37.77L102.16 37.78Q101.93 43.95 104.06 49.77L104.06 49.77L104.21 49.92Q102.43 49.25 100.64 48.98L100.57 48.91L100.55 48.89Q99.66 44.95 99.54 40.00ZM100.25 49.16L100.41 49.32L100.25 49.16Q101.03 49.37 102.44 49.67L102.55 49.78L102.38 49.62Q102.76 50.49 103.33 51.90L103.35 51.92L103.18 51.74Q105.80 52.50 108.08 53.79L108.08 53.79L108.19 53.90Q104.16 47.32 104.16 38.79L104.08 38.71L104.09 38.72Q104.07 32.35 106.55 26.56L106.51 26.52L106.68 26.69Q105.98 26.99 104.61 27.63L104.53 27.56L104.62 27.64Q104.85 26.77 105.50 25.21L105.53 25.24L105.44 25.15Q103.92 25.72 100.72 26.60L100.78 26.66L100.71 26.59Q100.60 27.16 100.29 28.34L100.39 28.44L100.36 28.40Q98.36 26.52 92.23 26.37L92.23 26.37L92.24 26.38Q88.90 26.16 87.53 27.64L87.58 27.69L87.71 27.82Q86.87 28.88 86.90 30.79L86.98 30.87L86.88 30.76Q87.00 33.78 87.99 37.55L88.07 37.62L88.09 37.65Q88.58 39.89 89.49 40.84L89.66 41.01L89.99 41.34L90.03 41.38Q91.17 44.12 96.62 44.35L96.49 44.22L96.59 44.32Q97.64 44.38 99.47 44.08L99.48 44.09L99.36 43.96Q99.68 46.91 100.29 49.19ZM96.98 32.18L96.89 32.09L97.01 32.22Q98.10 32.24 98.94 32.54L98.85 32.46L98.92 32.53Q99.13 33.08 99.24 33.69L99.11 33.56L99.14 33.58Q99.21 34.11 99.13 34.71L99.25 34.83L99.26 34.84Q99.22 36.70 98.19 38.00L98.09 37.90L98.19 38.00Q96.99 39.39 95.12 39.20L95.22 39.30L95.16 39.23Q93.81 39.18 92.86 38.76L92.97 38.87L92.90 38.80Q92.51 37.95 92.51 36.73L92.63 36.85L92.57 36.80Q92.46 36.38 92.46 36.08L92.60 36.22L92.50 36.12Q92.45 34.32 93.78 33.16L93.92 33.30L93.93 33.30Q95.17 32.05 96.92 32.12Z"/></svg>