<svg xmlns="http://www.w3.org/2000/svg" width="150" height="50" viewBox="0,0,150,50"><path fill="#333" d="M129.29 23.28L129.32 23.32L129.23 23.22Q127.64 19.28 121.44 19.47L121.42 19.46L121.44 19.48Q117.03 19.60 115.05 21.04L114.89 20.88L114.93 20.92Q112.62 22.75 112.62 26.87L112.48 26.73L112.52 28.64L112.57 28.68Q112.58 37.52 121.60 37.52L121.62 37.55L121.63 37.56Q123.66 37.53 125.15 36.73L125.12 36.70L125.07 36.65Q126.96 35.68 126.80 33.82L126.85 33.86L126.78 33.80Q126.68 31.80 122.99 30.88L122.90 30.79L120.92 30.76L121.01 30.84Q120.05 30.83 119.10 30.87L119.01 30.79L119.15 30.92Q118.99 29.81 118.95 27.91L119.05 28.00L119.14 28.10Q126.78 28.09 130.97 27.75L130.87 27.65L130.84 27.62Q130.94 28.59 130.94 29.39L130.87 29.32L130.77 29.22Q130.89 30.14 130.93 30.94L130.86 30.87L130.83 30.84Q129.86 30.98 129.86 30.98L129.70 30.82L129.76 30.87Q128.31 30.79 128.69 30.79L128.69 30.79L128.73 30.83Q129.77 32.41 130.15 34.39L130.19 34.43L130.25 34.49Q130.36 35.21 130.36 35.66L130.27 35.57L130.37 35.67Q130.30 40.24 121.50 40.24L121.60 40.34L121.60 40.34Q114.37 40.23 111.78 38.13L111.89 38.25L111.85 38.20Q109.97 35.94 109.97 30.88L109.87 30.78L109.95 30.86Q109.93 29.77 109.77 27.07L109.81 27.11L109.70 27.00Q109.60 24.69 109.64 23.31L109.55 23.23L109.58 23.25Q109.75 20.45 111.12 18.86L111.11 18.85L111.11 18.85Q113.66 16.79 118.53 16.60L118.57 16.64L121.17 16.49L121.15 16.47Q124.36 16.49 127.78 16.90L127.63 16.75L127.68 16.80Q131.43 17.28 132.39 20.52L132.40 20.54L132.47 20.60Q131.42 21.50 129.33 23.32ZM130.65 25.44L130.91 25.59L130.75 25.43Q132.03 24.43 133.90 22.45L133.83 22.38L133.76 22.32Q133.63 21.54 132.64 19.83L132.50 19.68L132.48 19.66Q131.41 17.10 127.60 16.46L127.59 16.45L127.57 16.43Q125.45 16.32 121.15 16.02L121.20 16.07L118.46 16.15L118.41 16.10Q113.28 16.33 110.69 18.31L110.75 18.37L110.65 18.27Q109.43 20.06 109.31 23.14L109.20 23.03L109.28 23.11Q109.20 22.58 109.43 28.06L109.58 28.21L109.50 28.12Q109.44 29.39 109.51 32.14L109.55 32.17L109.65 32.28Q109.76 36.65 111.51 38.59L111.55 38.63L111.46 38.54Q111.97 39.50 112.84 40.38L112.75 40.29L112.75 40.28Q115.65 42.16 121.17 42.50L121.09 42.42L124.04 42.67L124.09 42.72Q125.67 42.81 127.68 42.69L127.70 42.71L127.70 42.71Q129.22 42.71 131.31 42.17L131.22 42.08L131.31 42.17Q133.23 41.65 133.19 39.33L133.06 39.20L133.12 39.26Q133.06 37.94 131.99 35.16L132.16 35.33L132.06 35.23Q131.69 34.25 131.16 33.45L131.25 33.55L131.23 33.53Q131.80 33.52 132.98 33.72L133.05 33.79L133.00 33.73Q132.65 30.08 132.69 29.39L132.74 29.44L132.85 29.55Q132.30 29.37 131.88 29.34L131.89 29.35L131.91 29.37Q131.66 29.46 131.28 29.54L131.24 29.50L131.14 29.40Q131.25 28.41 131.33 27.34L131.18 27.20L131.29 27.30Q124.91 27.70 118.63 27.59L118.72 27.68L118.80 27.76Q118.75 28.58 118.75 29.49L118.84 29.58L118.76 31.26L118.66 31.16Q119.09 31.21 119.51 31.17L119.66 31.32L119.57 31.23Q119.87 31.11 120.32 31.11L120.43 31.21L120.41 31.19Q120.44 31.68 120.47 32.17L120.50 32.20L120.45 32.15Q120.41 32.56 120.37 33.06L120.35 33.04L120.33 33.02Q121.48 33.10 122.51 33.07L122.52 33.08L122.52 33.08Q123.53 33.06 124.56 33.10L124.63 33.17L124.51 33.05Q125.67 33.41 126.55 33.79L126.40 33.64L126.38 33.66L126.40 33.68Q126.66 35.32 124.99 36.23L125.05 36.29L125.02 36.26Q123.35 37.18 121.63 37.18L121.54 37.08L121.54 37.08Q117.66 37.04 115.22 35.29L115.26 35.34L115.39 35.46Q114.46 33.47 114.61 30.92L114.48 30.79L114.49 30.79Q114.75 25.95 116.59 23.95L116.72 24.08L116.59 23.94Q118.44 21.96 123.13 21.65L123.12 21.65L123.20 21.73Q126.94 21.58 128.88 23.37L128.71 23.20L128.77 23.26Q128.83 23.36 128.94 23.55L129.03 23.63L129.18 23.67L129.17 23.66Q129.68 24.29 130.25 25.39L130.26 25.39L130.64 25.43Z"/><path fill="#444" d="M47.19 41.30L47.24 41.35L47.17 41.28Q44.34 41.49 43.08 40.96L43.10 40.98L43.07 40.95Q41.18 40.20 41.25 37.73L41.26 37.73L41.19 37.66Q41.33 34.26 41.33 34.83L41.34 34.85L41.40 34.90Q41.41 29.58 38.56 24.75L38.47 24.66L38.57 24.76Q40.60 25.77 42.58 26.15L42.52 26.08L42.40 25.97Q44.16 30.62 44.05 35.11L44.07 35.14L44.06 35.13Q43.99 36.69 44.82 37.91L44.86 37.95L44.77 37.85Q45.76 39.26 47.28 39.07L47.28 39.07L47.61 38.90L47.52 38.81Q48.89 38.77 49.70 38.01L49.84 38.15L49.80 38.11Q50.62 37.34 50.62 36.39L50.53 36.31L50.59 36.36Q50.49 36.04 50.46 35.85L50.50 35.89L50.45 35.85Q50.39 30.61 51.53 26.27L51.57 26.30L51.63 26.37Q52.63 26.26 53.61 26.03L53.63 26.05L55.56 25.46L55.59 25.49Q53.06 30.53 53.36 36.09L53.45 36.18L53.30 36.03Q53.50 39.12 51.79 40.27L51.77 40.25L51.86 40.34Q50.62 41.27 47.31 41.42ZM49.64 43.83L49.64 43.83L49.50 43.69Q52.98 43.85 54.81 43.09L54.89 43.18L54.89 43.18Q55.80 42.41 55.80 41.01L55.77 40.98L55.87 41.07Q55.87 40.16 55.60 38.60L55.48 38.48L55.45 38.45Q55.11 35.44 55.50 32.44L55.53 32.47L55.43 32.37Q55.85 29.25 57.26 26.51L57.33 26.58L57.31 26.57Q56.55 26.75 55.22 27.17L55.23 27.18L55.27 27.23Q55.55 26.67 55.86 26.10L55.88 26.12L56.38 24.90L56.31 24.83Q54.48 25.60 51.32 26.09L51.35 26.12L51.29 26.06Q50.04 30.83 50.19 35.93L50.13 35.87L50.25 35.99Q50.35 38.10 47.68 38.60L47.67 38.59L47.34 38.71L47.15 38.67L46.22 38.54L46.14 38.47Q46.13 37.65 46.17 37.16L46.08 37.07L46.08 37.07Q46.35 32.62 45.66 28.20L45.61 28.14L44.63 28.09L44.64 28.09Q44.09 28.03 43.55 27.92L43.58 27.95L43.54 27.90Q43.15 26.48 42.88 25.72L42.82 25.66L42.92 25.76Q40.08 25.28 37.84 23.99L37.88 24.03L37.79 23.95Q40.05 27.57 40.77 30.96L40.64 30.83L40.66 30.85Q41.23 33.14 41.08 36.64L41.06 36.61L40.97 36.53Q41.15 36.83 41.08 37.93L40.89 37.74L40.93 37.78Q40.87 40.24 42.24 41.19L42.28 41.23L42.26 41.21Q42.60 43.42 49.61 43.80Z"/><path fill="#333" d="M95.94 19.64L95.97 19.68L95.96 19.67Q94.01 19.81 93.06 19.96L92.97 19.88L93.02 19.92Q91.31 20.08 90.09 20.61L90.19 20.72L90.26 20.78Q86.70 22.17 86.58 26.85L86.57 26.83L86.55 26.82Q86.45 29.46 87.10 32.39L87.04 32.33L87.17 32.46Q88.06 36.51 91.67 37.69L91.54 37.56L91.70 37.72Q93.47 38.16 94.92 38.00L94.99 38.08L95.38 38.00L95.49 38.12Q95.51 37.95 95.70 37.99L95.79 38.08L95.80 38.09Q95.99 38.12 96.14 38.08L96.13 38.07L96.01 37.95Q98.78 37.83 100.15 37.26L100.02 37.13L96.50 33.65L96.45 33.60Q96.75 33.24 97.35 32.63L97.42 32.70L98.26 31.72L98.45 31.90Q100.22 33.90 102.20 35.96L102.15 35.91L102.15 35.91Q104.43 34.04 104.70 28.67L104.73 28.70L104.81 28.79Q104.79 27.77 104.79 26.86L104.75 26.82L104.90 26.97Q104.84 21.24 99.78 20.14L99.74 20.09L99.83 20.18Q98.46 19.80 95.95 19.65ZM108.63 41.63L108.76 41.76L108.70 41.70Q108.09 42.11 106.91 42.99L106.92 43.00L102.62 39.42L102.65 39.45Q100.03 40.53 95.77 40.57L95.85 40.64L95.72 40.51Q89.29 40.74 86.47 38.50L86.49 38.52L86.48 38.51Q84.69 36.72 84.24 33.75L84.23 33.75L84.14 33.65Q84.05 31.97 83.67 28.39L83.56 28.28L83.69 28.41Q83.55 27.55 83.44 25.80L83.46 25.82L83.44 25.80Q83.40 24.35 83.44 23.47L83.31 23.35L83.49 23.53Q83.46 20.34 85.21 18.78L85.19 18.75L85.30 18.86Q86.82 17.53 90.02 17.04L89.91 16.93L89.94 16.95Q92.47 16.63 95.36 16.71L95.28 16.62L95.39 16.74Q102.82 16.78 105.94 19.14L106.02 19.22L105.96 19.16Q108.16 21.32 107.89 26.23L107.95 26.29L107.90 26.24Q107.66 29.85 107.47 31.18L107.56 31.27L107.54 31.25Q106.86 35.71 104.54 38.03L104.46 37.95L104.45 37.94Q105.98 39.25 108.72 41.72ZM103.80 17.38L103.79 17.37L103.94 17.52Q101.87 16.75 95.36 16.25L95.33 16.22L95.26 16.15Q94.07 16.36 91.29 16.48L91.12 16.31L91.24 16.43Q87.06 16.71 84.81 18.69L84.64 18.51L84.74 18.62Q83.06 20.05 83.06 23.21L82.99 23.14L83.12 23.27Q83.08 24.07 83.24 25.79L83.27 25.82L83.15 25.70Q83.38 27.49 83.38 28.37L83.35 28.34L83.30 28.29Q83.60 30.19 83.98 33.76L83.95 33.74L83.82 33.60Q84.19 36.49 85.79 38.54L85.86 38.61L85.85 38.60Q86.18 39.43 87.40 40.57L87.43 40.60L87.37 40.54Q90.04 42.49 95.22 42.76L95.39 42.92L95.22 42.76Q95.64 42.84 98.04 42.95L98.04 42.95L98.15 43.06Q102.79 43.05 105.07 41.99L105.06 41.98L105.13 42.05Q106.11 42.84 110.83 46.42L110.74 46.33L110.70 46.28Q111.36 45.81 112.66 44.82L112.57 44.73L112.58 44.73Q111.85 44.20 111.05 43.51L110.88 43.34L109.23 41.88L109.38 41.88L109.36 41.86Q108.85 41.47 107.64 40.44L107.52 40.33L107.57 40.38Q109.50 37.89 109.50 33.36L109.44 33.30L109.47 33.33Q109.61 33.05 109.65 32.21L109.49 32.05L109.46 32.03Q109.51 31.20 109.51 30.78L109.68 30.95L109.68 30.95Q109.53 25.28 108.80 22.92L108.86 22.98L108.84 22.95Q108.55 21.75 107.68 20.69L107.59 20.60L107.61 20.62Q106.83 18.51 103.90 17.48ZM97.83 21.99L97.78 21.95L97.93 22.10Q101.91 21.93 103.74 23.53L103.84 23.62L103.80 23.58Q104.35 24.78 104.46 26.11L104.46 26.11L104.37 26.02Q104.43 27.26 104.36 28.63L104.49 28.76L104.55 28.83Q104.09 33.66 102.15 35.38L102.13 35.36L102.20 35.43Q100.97 34.20 98.46 31.45L98.38 31.38L98.45 31.45Q97.60 32.12 96.04 33.68L96.05 33.69L95.92 33.56Q96.50 34.18 97.64 35.36L97.65 35.36L97.63 35.47L97.71 35.54Q98.11 35.91 99.14 36.97L99.24 37.07L99.32 37.15Q98.29 37.38 95.97 37.68L95.87 37.59L95.38 37.63L94.98 37.65L94.95 37.65L94.99 37.69Q91.43 37.60 89.45 35.96L89.58 36.09L89.49 36.00Q88.48 33.92 88.51 30.80L88.64 30.92L88.53 30.81Q88.74 22.15 97.91 22.08Z"/><path fill="#222" d="M72.80 40.21L72.66 40.07L70.65 40.34L70.53 40.22Q70.14 40.29 69.17 40.35L69.15 40.33L69.25 40.43Q68.29 40.50 67.80 40.50L67.77 40.46L67.75 40.45Q66.14 40.48 65.11 39.64L65.02 39.54L65.06 39.59Q65.88 38.50 67.52 36.37L67.57 36.43L67.50 36.36Q68.83 37.99 71.04 37.76L70.94 37.67L71.03 37.75Q71.86 37.56 72.51 36.91L72.56 36.96L72.57 36.97Q73.24 36.35 73.13 35.47L72.98 35.33L73.09 35.43Q72.88 30.73 72.96 26.17L73.05 26.26L73.00 26.20Q73.01 21.57 73.54 16.97L73.59 17.01L73.51 16.93Q75.54 16.84 77.68 15.81L77.65 15.78L77.62 15.75Q75.73 22.47 75.73 29.70L75.80 29.77L75.84 29.80Q75.81 33.32 76.27 36.82L76.22 36.78L76.33 36.88Q76.25 37.07 76.25 37.42L76.39 37.55L76.24 37.41Q76.42 38.15 76.19 38.69L76.10 38.60L76.16 38.65Q75.55 39.88 72.74 40.14ZM77.73 43.04L77.72 43.04L78.08 43.05L78.34 42.89L78.61 42.78L78.61 42.78Q78.86 42.46 78.94 42.35L78.82 42.23L79.00 42.41Q79.01 41.05 78.74 40.06L78.87 40.19L78.87 40.18Q77.55 34.41 77.81 28.05L77.72 27.96L77.69 27.93Q77.95 21.84 79.74 15.94L79.73 15.92L79.78 15.97Q78.86 16.57 77.60 17.30L77.75 17.44L77.73 17.43Q77.81 16.55 78.23 15.03L78.29 15.09L78.36 15.16Q75.69 16.33 73.02 16.64L73.07 16.68L73.07 16.68Q72.71 21.08 72.63 26.03L72.61 26.01L72.72 26.12Q72.69 32.06 72.76 35.49L72.64 35.36L72.69 35.42Q72.71 37.15 70.96 37.31L71.00 37.34L70.99 37.33Q69.15 37.32 67.47 35.68L67.47 35.67L67.49 35.69Q65.49 38.27 64.54 39.83L64.54 39.82L64.55 39.83Q65.17 40.45 66.19 40.68L66.17 40.66L66.19 40.68Q66.25 40.97 65.99 41.20L65.83 41.04L65.94 41.15Q67.38 42.10 69.36 42.36L69.36 42.37L69.35 42.36Q69.67 42.33 72.96 42.64L72.95 42.62L72.99 42.67Q76.37 43.06 77.74 43.06Z"/><path fill="#111" d="M19.15 29.61L19.28 29.74L19.09 29.55Q19.20 33.92 18.48 38.07L18.44 38.03L18.49 38.09Q20.65 37.43 23.73 37.32L23.85 37.43L23.70 37.28Q25.17 37.61 26.24 36.60L26.19 36.55L26.11 36.48Q27.35 35.64 27.35 34.30L27.28 34.24L27.21 34.16Q27.33 33.98 27.29 33.71L27.17 33.59L27.26 33.69Q27.12 30.77 24.88 29.93L24.73 29.78L24.85 29.90Q24.10 29.61 23.41 29.69L23.30 29.57L23.35 29.62Q22.34 29.60 21.31 29.64L21.21 29.54L21.24 29.56Q20.19 29.62 19.16 29.62ZM18.00 19.25L17.91 19.15L18.04 19.29Q18.75 22.44 19.02 26.82L19.05 26.85L19.20 26.99Q20.65 27.11 23.31 27.15L23.21 27.04L23.19 27.03Q26.06 27.00 26.40 23.46L26.51 23.57L26.56 23.61Q26.67 21.60 25.26 20.76L25.20 20.69L25.18 20.68Q24.40 20.28 19.98 19.63L19.91 19.56L19.94 19.59Q18.91 19.47 18.00 19.24ZM14.28 42.06L14.39 42.17L14.25 42.03Q16.86 35.51 16.60 28.12L16.48 28.01L16.49 28.02Q16.25 20.77 13.32 14.30L13.21 14.19L13.30 14.28Q17.15 16.88 23.38 17.12L23.36 17.11L23.37 17.11Q29.48 17.25 29.83 20.15L29.86 20.18L29.84 20.17Q30.31 23.07 28.90 25.74L28.72 25.55L28.78 25.61Q28.11 27.18 26.51 27.87L26.40 27.76L26.42 27.78Q30.14 28.53 30.36 33.90L30.44 33.97L30.34 33.87Q30.38 34.94 30.31 36.35L30.25 36.30L30.41 36.45Q30.39 37.81 29.46 38.74L29.38 38.66L29.45 38.73Q28.34 39.49 27.01 39.64L27.09 39.72L27.11 39.73Q25.75 39.94 24.68 39.94L24.55 39.81L24.61 39.87Q18.94 39.90 14.41 42.19ZM27.05 42.35L27.04 42.33L27.11 42.41Q28.00 42.42 29.87 42.53L29.87 42.53L30.00 42.67Q31.35 42.65 32.46 41.78L32.42 41.74L32.48 41.80Q33.17 40.78 33.06 39.22L33.14 39.30L33.14 39.30Q33.00 38.29 32.28 34.82L32.26 34.80L32.27 34.81Q31.64 31.63 29.78 30.15L29.81 30.18L29.26 29.22L29.29 29.24Q30.99 27.86 31.56 24.09L31.58 24.11L31.59 24.12Q31.78 23.01 31.70 21.61L31.69 21.59L31.63 21.53Q31.61 20.25 30.50 19.42L30.44 19.35L30.55 19.46Q30.19 19.22 30.08 19.18L30.00 19.10L29.98 19.08Q29.81 18.64 28.97 17.84L29.10 17.98L29.05 17.92Q27.54 16.87 23.32 16.68L23.21 16.58L23.31 16.68Q16.65 16.38 12.65 13.48L12.74 13.56L12.71 13.54Q15.88 20.44 16.18 27.98L16.15 27.94L16.14 27.93Q16.46 35.75 13.64 42.68L13.64 42.68L15.89 41.92L15.73 41.76Q15.36 42.91 14.86 44.05L15.02 44.21L14.90 44.09Q19.18 42.20 24.20 42.20L24.21 42.20L24.18 42.18Q25.67 42.25 27.11 42.41ZM25.01 31.89L24.89 31.77L25.03 31.91Q25.60 31.68 26.51 32.14L26.63 32.25L26.69 32.32Q26.76 32.62 26.92 33.68L26.86 33.62L26.89 33.65Q27.15 35.10 26.22 36.15L26.10 36.02L26.13 36.05Q25.18 37.08 23.77 36.97L23.74 36.94L22.36 37.16L22.31 37.11Q21.45 37.05 20.73 37.16L20.85 37.29L20.78 37.22Q21.19 35.50 21.27 32.03L21.15 31.91L21.14 31.90Q21.92 31.96 23.18 31.93L23.18 31.92L23.07 31.82Q24.34 31.79 24.95 31.83ZM24.04 22.35L23.90 22.22L24.36 22.30L24.23 22.17Q24.56 22.27 24.75 22.30L24.64 22.20L25.20 22.37L25.46 22.44L26.06 22.51L26.04 22.49Q26.09 22.69 26.09 22.99L26.11 23.02L26.18 23.62L26.25 23.69Q26.15 24.85 25.27 25.78L25.27 25.77L25.20 25.71Q24.37 26.68 23.15 26.68L23.27 26.80L23.24 26.77Q22.09 26.65 22.09 26.65L22.10 26.66L22.12 26.68Q20.84 26.70 21.19 26.70L21.15 26.66L21.16 26.67Q21.21 25.24 20.91 22.19L20.75 22.03L20.86 22.15Q22.35 22.19 23.88 22.19Z"/></svg>