<svg xmlns="http://www.w3.org/2000/svg" width="150" height="50" viewBox="0,0,150,50"><path fill="#222" d="M100.04 30.98L99.86 30.80L99.92 30.86Q99.91 29.75 97.97 29.03L98.00 29.05L97.81 28.87Q97.32 28.68 96.79 28.68L96.97 28.87L96.81 28.70Q95.46 28.72 94.40 29.30L94.43 29.32L94.53 29.42Q93.09 30.09 93.21 31.30L93.24 31.34L93.22 31.31Q93.51 34.08 93.36 36.33L93.34 36.31L93.41 36.38Q93.27 38.82 92.54 41.34L92.60 41.39L92.49 41.29Q90.46 41.88 89.28 42.30L89.22 42.24L89.23 42.25Q90.79 38.60 90.79 34.60L90.83 34.64L90.84 34.65Q90.81 29.17 88.22 24.72L88.16 24.66L88.19 24.69Q89.48 25.25 91.88 25.98L91.83 25.93L91.83 25.93Q92.11 26.63 92.49 28.15L92.52 28.18L92.58 28.24Q93.82 26.05 97.70 26.13L97.78 26.21L97.63 26.06Q99.12 26.10 99.92 26.22L99.96 26.26L99.98 26.27Q103.04 26.74 103.11 28.76L103.08 28.73L102.97 28.62Q103.17 29.69 102.98 30.72L102.80 30.55L102.89 30.63Q102.37 33.08 102.56 36.09L102.54 36.07L102.56 36.09Q102.81 39.04 103.80 41.59L103.74 41.53L103.69 41.49Q102.04 41.13 100.33 40.98L100.42 41.07L100.37 41.01Q99.80 38.55 99.73 35.88L99.82 35.97L99.76 35.92Q99.67 33.16 99.89 30.83ZM99.87 41.24L99.88 41.25L99.92 41.29Q100.68 41.25 101.97 41.48L102.07 41.57L102.41 42.60L102.43 42.62Q102.57 43.07 102.80 43.60L102.84 43.64L102.95 43.75Q105.10 44.03 107.80 45.22L107.82 45.23L107.90 45.31Q105.38 42.03 104.70 38.22L104.82 38.35L104.80 38.33Q104.36 36.10 104.47 32.40L104.55 32.49L104.60 32.53Q104.66 32.29 104.70 31.49L104.52 31.31L104.52 31.31Q104.59 30.70 104.52 30.20L104.51 30.19L104.53 30.22Q104.46 28.58 103.35 28.09L103.41 28.14L103.33 28.06Q103.14 27.19 102.38 26.58L102.45 26.65L102.47 26.67Q100.81 25.70 97.76 25.77L97.77 25.78L97.77 25.78Q95.87 25.78 95.04 25.98L94.97 25.91L95.08 26.02Q93.65 26.38 92.70 27.29L92.71 27.30L92.62 27.21Q92.58 26.76 92.20 25.73L92.20 25.73L92.12 25.65Q89.35 25.01 87.53 24.02L87.54 24.04L87.51 24.01Q90.46 28.79 90.46 34.54L90.53 34.60L90.62 34.69Q90.62 39.07 88.72 42.92L88.68 42.88L88.60 42.80Q89.37 42.58 90.67 42.20L90.69 42.22L90.58 42.12Q90.10 43.39 89.57 44.38L89.54 44.35L89.58 44.39Q90.99 43.93 94.53 43.36L94.52 43.35L94.46 43.29Q95.59 38.29 95.47 33.45L95.44 33.43L95.43 33.41Q95.39 32.57 96.57 31.85L96.54 31.82L96.49 31.77Q97.55 31.15 98.65 31.04L98.62 31.01L98.72 31.10Q99.09 30.98 99.51 31.17L99.53 31.19L99.53 31.19Q99.38 33.75 99.42 36.30L99.48 36.36L99.51 36.39Q99.45 38.80 99.95 41.32Z"/><path fill="#222" d="M73.34 20.15L73.30 20.12L73.22 20.03Q69.06 20.18 65.37 19.19L65.33 19.15L65.34 19.16Q66.74 23.60 66.93 28.44L67.05 28.55L67.09 28.60Q67.23 33.34 66.01 37.95L65.93 37.87L65.99 37.93Q68.71 37.22 72.21 37.07L72.34 37.20L72.30 37.16Q76.16 36.90 77.95 34.47L77.90 34.42L78.10 34.62Q79.59 32.53 79.78 28.42L79.67 28.31L79.80 28.44Q79.70 26.51 79.24 24.80L79.23 24.79L79.34 24.90Q78.13 20.22 73.41 20.22ZM61.34 42.08L61.43 42.16L61.36 42.09Q64.36 36.53 64.36 29.83L64.24 29.71L64.26 29.73Q64.24 21.18 59.93 14.17L59.97 14.21L59.94 14.17Q65.33 16.98 73.59 17.17L73.46 17.04L73.59 17.17Q82.36 17.26 82.71 24.42L82.74 24.45L82.80 24.51Q82.83 27.13 82.79 28.58L82.87 28.65L82.81 28.60Q82.68 33.22 81.84 35.39L81.88 35.43L81.86 35.41Q81.46 36.53 80.70 37.37L80.65 37.32L80.64 37.31Q79.37 38.94 76.74 39.43L76.77 39.46L76.75 39.44Q75.12 39.68 72.12 39.91L72.05 39.83L72.21 40.00Q65.93 40.30 61.32 42.05ZM79.37 42.06L79.40 42.09L79.39 42.08Q82.07 41.67 83.71 40.19L83.81 40.29L83.66 40.14Q84.87 38.38 84.83 35.64L84.93 35.74L84.88 35.69Q84.79 34.23 84.64 30.73L84.83 30.92L84.41 26.31L84.36 26.26Q84.16 23.96 83.20 21.87L83.16 21.82L83.28 21.95Q82.65 20.89 81.96 20.25L82.00 20.29L81.94 20.07L81.99 20.12Q80.40 17.28 75.98 16.89L75.81 16.72L75.99 16.91Q73.11 16.57 66.11 15.85L66.15 15.89L66.23 15.97Q63.01 15.57 59.32 13.55L59.17 13.41L59.28 13.51Q64.12 20.91 64.12 29.66L64.06 29.61L64.13 29.68Q64.05 36.60 60.70 42.76L60.69 42.76L60.63 42.70Q61.46 42.57 62.79 42.07L62.69 41.98L62.70 41.98Q62.35 42.82 61.48 44.30L61.60 44.42L61.41 44.24Q64.50 43.21 67.85 42.72L67.87 42.74L67.86 42.73Q70.06 42.53 73.71 42.41L73.69 42.39L73.55 42.25Q77.54 42.25 79.37 42.06ZM79.40 28.42L79.42 28.44L79.43 28.45Q79.03 36.42 72.33 36.80L72.32 36.80L72.20 36.68Q70.44 36.97 68.38 37.23L68.38 37.23L68.27 37.12Q69.11 33.39 69.11 29.74L68.96 29.60L68.94 29.57Q69.06 26.00 68.34 22.16L68.34 22.15L68.35 22.17Q70.54 22.45 75.22 22.45L75.18 22.41L75.28 22.51Q76.54 22.25 78.18 23.20L78.30 23.32L78.20 23.23Q79.43 25.44 79.28 28.30Z"/><path fill="#444" d="M43.25 33.27L43.23 33.25L43.30 33.32Q43.20 36.19 42.02 40.84L42.03 40.84L41.92 40.73Q40.25 41.39 38.65 42.19L38.55 42.08L38.54 42.07Q41.22 35.12 40.95 27.70L40.97 27.72L40.97 27.71Q40.58 20.21 37.50 13.47L37.48 13.45L37.52 13.49Q39.58 14.87 41.44 15.44L41.36 15.35L41.32 15.32Q43.61 22.43 43.61 29.10L43.55 29.04L43.52 29.01Q43.43 30.36 43.35 31.85L43.49 31.99L43.35 31.85Q44.64 30.78 49.86 25.83L49.76 25.73L49.73 25.70Q50.88 25.74 51.87 25.67L51.79 25.59L53.93 25.49L54.01 25.57Q50.91 28.63 46.60 32.40L46.46 32.25L46.46 32.25Q49.89 35.07 56.36 40.90L56.40 40.93L56.26 40.80Q53.65 40.01 50.68 39.82L50.67 39.82L50.71 39.85Q48.20 37.76 43.33 33.35ZM53.08 42.38L53.28 42.57L53.15 42.44Q57.97 43.38 61.09 45.32L61.04 45.27L60.96 45.20Q59.85 43.96 57.22 41.57L57.14 41.48L57.12 41.47Q57.48 41.67 57.74 41.79L57.79 41.83L57.66 41.70Q55.71 39.82 53.46 37.92L53.31 37.77L49.04 34.03L48.97 33.96Q53.84 29.66 56.28 26.77L56.37 26.86L56.41 26.90Q55.13 26.91 52.65 27.18L52.59 27.11L52.56 27.08Q54.17 25.65 54.85 24.81L54.95 24.90L55.02 24.97Q52.11 25.34 49.63 25.34L49.66 25.36L49.61 25.32Q48.29 26.70 45.55 29.36L45.43 29.24L45.61 29.42Q45.55 23.57 44.56 17.75L44.58 17.78L44.53 17.73Q43.81 17.54 42.33 17.27L42.39 17.33L42.33 17.27Q42.20 16.57 41.74 15.09L41.75 15.09L41.62 14.97Q39.07 14.24 36.82 12.68L36.89 12.74L36.85 12.71Q40.31 19.55 40.65 27.66L40.66 27.68L40.56 27.57Q41.05 35.64 38.04 42.87L37.94 42.77L38.02 42.85Q38.65 42.49 39.98 41.84L39.92 41.78L39.96 41.82Q39.67 42.60 39.02 44.04L39.02 44.04L39.06 44.08Q41.84 42.94 43.97 42.56L43.98 42.57L43.98 42.57Q44.56 40.07 45.06 35.80L45.19 35.93L45.12 35.86Q47.66 38.06 53.11 42.40Z"/><path fill="#333" d="M15.15 15.90L15.02 15.77L15.05 15.80Q16.93 20.65 17.50 25.83L17.51 25.84L17.51 25.84Q21.33 21.82 27.23 16.98L27.20 16.95L27.27 17.02Q30.43 16.68 33.06 15.88L33.07 15.89L26.48 21.48L26.50 21.50Q23.07 24.43 20.21 27.28L20.22 27.29L20.16 27.23Q28.15 36.40 33.21 41.12L33.28 41.19L33.28 41.19Q30.05 40.13 27.72 39.97L27.69 39.94L27.87 40.12Q21.92 34.55 17.62 28.72L17.64 28.74L17.76 28.87Q17.83 35.45 15.97 40.78L15.85 40.66L15.92 40.74Q15.70 40.78 15.21 40.97L15.16 40.93L15.13 41.08L15.24 41.19Q14.93 41.11 12.38 42.02L12.46 42.11L12.52 42.17Q15.45 35.58 15.11 28.12L15.13 28.14L15.07 28.08Q14.72 20.72 11.18 14.21L11.20 14.24L11.79 14.56L12.20 14.86L12.21 14.83L12.15 14.77Q12.95 15.22 15.15 15.91ZM15.40 15.58L15.46 15.64L15.44 15.62Q13.00 14.89 10.37 13.37L10.52 13.52L10.44 13.44Q14.75 20.76 14.75 29.70L14.73 29.68L14.67 29.62Q14.68 36.64 11.71 42.69L11.77 42.75L13.77 41.85L13.82 41.91Q13.38 42.88 12.70 44.17L12.68 44.15L12.69 44.16Q15.07 43.50 17.02 43.08L16.96 43.03L16.93 42.77L17.05 42.89Q17.19 42.72 17.76 42.57L17.89 42.70L17.82 42.63Q19.45 36.69 19.57 31.89L19.62 31.94L19.61 31.94Q21.72 34.47 23.55 36.33L23.45 36.23L23.61 36.40Q24.75 37.45 27.76 40.42L27.68 40.35L27.83 40.50L27.80 40.47Q28.77 41.25 30.64 42.85L30.57 42.79L30.64 42.85Q34.49 43.54 37.96 45.26L37.86 45.16L38.00 45.30Q28.58 36.61 22.34 29.18L22.41 29.25L22.47 29.32Q26.82 24.98 35.57 16.38L35.60 16.40L35.53 16.33Q33.02 17.52 31.00 17.90L31.04 17.93L31.12 18.01Q32.33 17.02 34.65 15.00L34.64 14.98L34.61 14.96Q30.38 16.24 27.03 16.43L27.03 16.43L27.10 16.51Q24.08 18.63 19.21 23.31L19.37 23.47L19.33 23.44Q18.87 20.76 18.29 18.21L18.28 18.20L18.32 18.24Q17.17 18.12 16.18 17.77L16.14 17.73L16.24 17.83Q16.04 17.09 15.46 15.65Z"/><path fill="#222" d="M112.21 38.92L112.32 39.04L112.20 38.91Q114.06 36.52 118.82 29.25L118.75 29.17L118.83 29.25Q122.83 23.02 125.69 19.74L125.68 19.73L125.67 19.72Q123.68 20.13 121.58 20.13L121.49 20.03L121.58 20.12Q116.38 20.17 112.38 18.39L112.24 18.25L112.39 18.40Q111.61 16.36 110.92 14.80L110.96 14.84L111.01 14.88Q115.63 17.10 121.30 17.22L121.26 17.18L121.22 17.14Q126.37 17.23 131.55 15.33L131.54 15.32L131.49 15.26Q131.07 16.06 130.77 16.86L130.93 17.02L130.35 18.61L130.31 18.57Q127.12 22.08 123.12 27.91L123.25 28.04L119.85 32.79L119.92 32.86Q118.12 35.17 116.30 37.46L116.43 37.59L116.39 37.55Q119.68 36.92 123.00 37.00L123.07 37.07L123.02 37.02Q126.36 37.13 129.52 38.04L129.43 37.95L129.95 39.58L130.05 39.68Q130.15 40.35 130.50 41.19L130.58 41.27L130.60 41.29Q125.88 39.65 120.74 39.84L120.68 39.78L120.76 39.87Q115.68 40.12 111.19 42.13L111.20 42.14L111.21 42.16Q111.46 40.96 112.19 38.90ZM110.62 42.86L110.59 42.83L110.60 42.84Q111.75 42.16 112.55 41.89L112.47 41.81L112.64 41.98Q112.26 42.63 111.57 44.15L111.61 44.19L111.63 44.21Q117.30 42.04 123.28 42.27L123.30 42.29L123.34 42.32Q129.56 42.46 134.59 45.24L134.72 45.37L134.57 45.23Q133.13 42.79 132.33 40.62L132.48 40.77L132.43 40.72Q131.91 40.47 130.39 39.90L130.36 39.87L130.32 39.83Q130.21 39.15 129.79 37.67L129.82 37.69L129.78 37.65Q125.71 36.55 120.61 36.74L120.54 36.67L120.58 36.71Q122.66 33.92 126.20 28.36L126.33 28.49L126.32 28.48Q129.91 22.71 131.81 20.16L131.75 20.09L131.79 20.13Q132.30 18.74 133.33 16.04L133.25 15.96L133.32 16.02Q132.56 16.30 131.12 16.91L131.09 16.88L131.23 17.02Q131.59 16.24 132.31 14.71L132.15 14.55L132.15 14.55Q126.88 16.75 121.17 16.67L121.25 16.75L121.12 16.62Q115.24 16.61 110.30 14.09L110.32 14.12L110.29 14.09Q111.45 16.47 112.18 18.72L112.11 18.65L112.17 18.70Q113.15 19.12 113.95 19.34L114.13 19.53L114.13 19.52Q114.23 20.04 114.50 21.49L114.48 21.47L114.66 21.66Q118.30 22.63 123.17 22.44L123.17 22.43L123.19 22.46Q120.83 25.70 117.52 30.69L117.37 30.54L111.96 38.98L111.86 38.88Q111.54 40.20 110.51 42.75Z"/></svg>