<svg xmlns="http://www.w3.org/2000/svg" width="150" height="50" viewBox="0,0,150,50"><path fill="#333" d="M31.14 41.58L31.12 41.56L31.16 41.60Q29.00 41.16 26.83 41.00L26.79 40.96L26.78 40.95Q25.34 39.52 22.68 35.67L22.78 35.77L22.68 35.67Q20.61 38.89 18.21 41.33L18.07 41.19L15.98 41.57L15.98 41.58Q15.02 41.87 14.03 42.14L13.92 42.02L13.89 41.99Q18.21 38.02 21.22 33.90L21.21 33.90L21.22 33.90Q17.94 29.71 12.54 24.92L12.44 24.83L12.58 24.96Q14.66 25.56 17.37 25.98L17.40 26.01L17.35 25.97Q20.95 29.22 22.86 31.93L22.88 31.95L22.74 31.81Q25.00 28.89 27.74 26.38L27.68 26.32L27.59 26.23Q30.69 25.95 32.52 25.45L32.56 25.49L32.57 25.50Q27.92 29.03 24.23 33.60L24.30 33.68L24.37 33.75Q27.64 38.31 31.10 41.54ZM34.02 24.74L33.94 24.66L34.03 24.75Q31.03 25.48 27.49 25.82L27.61 25.94L27.54 25.88Q24.71 28.60 22.99 31.07L22.86 30.94L22.86 30.94Q22.07 29.99 20.43 28.02L20.34 27.92L20.24 28.01L20.16 27.93Q20.09 27.98 19.97 27.98L19.88 27.88L20.00 28.00Q19.20 27.13 17.57 25.68L17.62 25.74L17.54 25.65Q14.07 25.24 11.22 24.02L11.21 24.01L11.14 23.94Q16.63 28.71 20.66 33.85L20.71 33.89L20.66 33.84Q17.33 38.51 12.92 42.81L13.02 42.91L12.91 42.80Q13.19 42.75 16.70 41.91L16.67 41.88L16.62 41.83Q15.17 43.24 13.53 44.57L13.53 44.57L13.40 44.43Q16.72 43.64 19.88 43.45L19.79 43.37L19.77 43.34Q22.28 41.21 24.19 38.47L24.18 38.47L24.21 38.49Q25.63 40.26 26.85 41.44L26.82 41.41L26.76 41.35Q26.98 41.45 27.05 41.53L26.98 41.46L27.18 41.47L27.18 41.46Q28.49 42.62 29.82 43.69L29.74 43.60L29.82 43.69Q33.24 44.06 36.13 45.09L36.19 45.15L36.14 45.10Q30.05 40.72 26.36 35.54L26.42 35.60L26.34 35.52Q29.98 30.48 34.55 26.41L34.66 26.52L34.62 26.49Q33.58 26.74 32.59 26.97L32.62 27.00L30.65 27.50L30.66 27.51Q31.72 26.47 33.89 24.61Z"/><path fill="#333" d="M123.54 39.81L123.66 39.93L121.62 39.83L121.73 39.94Q120.72 39.88 119.77 40.00L119.82 40.04L119.75 39.97Q120.33 33.78 120.33 29.79L120.24 29.69L120.23 29.68Q116.25 23.00 108.60 14.32L108.79 14.51L108.79 14.51Q110.45 15.37 113.80 16.17L113.93 16.30L113.81 16.18Q118.98 21.88 121.98 27.10L121.83 26.94L121.98 27.09Q124.92 21.47 129.30 16.45L129.21 16.36L129.36 16.51Q131.70 16.02 134.21 15.22L134.13 15.15L134.18 15.19Q128.14 21.30 123.27 29.71L123.35 29.79L123.34 29.79Q123.31 36.80 123.62 39.88ZM132.75 17.34L135.34 14.38L135.38 14.41Q132.24 15.54 129.12 16.00L129.09 15.96L129.24 16.11Q125.02 20.84 122.20 25.94L122.06 25.80L122.11 25.85Q120.10 22.32 116.90 18.43L116.83 18.36L116.74 18.27Q116.47 18.27 115.97 18.19L115.96 18.18L116.10 18.32Q115.27 17.37 113.74 15.70L113.82 15.77L113.79 15.74Q110.37 14.95 107.40 13.39L107.48 13.47L107.45 13.44Q115.28 22.03 120.04 29.95L119.89 29.80L119.93 29.84Q119.93 36.27 119.32 40.42L119.32 40.42L119.15 40.25Q120.07 40.41 121.52 40.30L121.52 40.30L121.36 41.16L121.46 41.27Q121.50 41.76 121.43 42.30L121.40 42.27L121.30 42.17Q124.97 42.30 126.72 42.49L126.67 42.44L126.71 42.48Q125.41 37.75 125.30 31.78L125.27 31.75L125.31 31.79Q129.67 23.33 136.22 15.98L136.22 15.98L132.61 17.20Z"/><path fill="#222" d="M48.44 29.97L48.31 29.84L48.37 29.90Q45.84 29.77 44.51 30.99L44.51 30.99L44.58 31.06Q43.15 32.18 43.45 34.69L43.49 34.72L43.55 34.79Q43.78 37.23 45.00 38.48L45.04 38.52L45.09 38.57Q46.19 39.94 48.32 39.87L48.19 39.73L48.30 39.84Q48.70 39.67 48.89 39.67L48.92 39.70L48.96 39.74Q52.51 39.14 52.62 34.53L52.57 34.48L52.55 34.46Q52.69 32.17 52.01 31.37L52.09 31.45L51.99 31.35Q50.88 30.01 48.33 29.86ZM51.67 41.61L51.65 41.59L51.73 41.67Q50.45 42.30 48.89 42.22L48.80 42.13L48.71 42.05Q45.09 42.46 43.79 39.87L43.61 39.69L43.78 39.86Q43.57 45.16 42.24 49.43L42.08 49.27L42.12 49.31Q40.46 49.93 38.82 50.65L38.74 50.57L38.76 50.59Q41.35 44.65 41.08 37.68L41.01 37.62L41.02 37.62Q40.75 30.77 37.86 24.72L37.97 24.83L37.89 24.75Q39.84 25.93 41.55 26.39L41.56 26.40L42.03 27.82L42.12 27.91Q42.13 28.15 42.39 29.25L42.39 29.25L42.36 29.22Q43.38 27.16 46.96 26.97L47.07 27.07L47.01 27.01Q47.96 27.05 48.83 27.05L48.87 27.09L49.35 27.08L49.31 27.03Q49.51 27.12 49.70 27.15L49.66 27.12L50.00 27.15L49.95 27.10Q52.09 27.46 52.82 27.68L52.77 27.64L52.69 27.56Q54.29 28.13 55.17 29.08L55.05 28.97L55.17 29.09Q55.97 30.23 55.94 31.64L55.87 31.57L55.85 31.55Q55.91 34.47 55.11 37.14L55.11 37.13L55.11 37.14Q54.10 40.66 51.74 41.69ZM56.02 42.31L55.89 42.14L55.87 42.12Q57.00 40.17 57.31 36.06L57.47 36.22L57.27 36.02Q57.48 34.32 57.48 33.07L57.49 33.08L57.59 33.18Q57.48 31.55 56.72 30.14L56.74 30.16L56.78 30.20Q56.36 29.75 55.87 29.37L55.84 29.33L55.76 29.14L55.45 28.72L55.47 28.62L55.41 28.57Q53.72 26.57 49.38 26.57L49.47 26.66L48.77 26.57L48.87 26.67Q44.15 26.60 42.52 28.20L42.52 28.20L42.45 28.12Q42.39 27.73 42.24 27.23L42.19 27.18L41.81 26.01L41.84 26.04Q39.38 25.44 37.17 23.95L37.24 24.03L37.23 24.01Q40.53 30.36 40.84 37.59L40.69 37.45L40.81 37.57Q41.05 44.78 38.20 51.25L38.09 51.15L40.28 50.47L40.10 50.29Q39.95 51.13 39.26 52.69L39.20 52.63L39.19 52.62Q42.03 51.69 44.35 51.35L44.27 51.27L44.36 51.36Q45.29 46.35 45.44 42.62L45.59 42.76L45.58 42.75Q46.97 44.23 50.59 44.45L50.52 44.38L50.62 44.49Q54.49 44.66 55.93 42.22L55.94 42.22ZM50.35 32.23L50.24 32.11L50.31 32.18Q50.85 32.00 51.95 32.34L52.13 32.52L52.05 32.44Q52.32 33.43 52.28 34.61L52.27 34.59L52.26 34.59Q52.18 35.42 51.99 36.07L52.14 36.22L51.99 36.07Q51.43 39.13 48.92 39.43L48.83 39.35L49.01 39.41L48.89 39.28Q48.85 39.32 48.73 39.36L48.79 39.42L48.31 39.47L48.32 39.49Q47.07 39.41 46.08 38.91L46.09 38.93L45.62 36.74L45.65 36.77Q45.64 34.59 46.94 33.57L46.76 33.39L46.77 33.40Q47.83 32.37 50.23 32.10Z"/><path fill="#333" d="M101.57 41.00L101.54 40.97L101.53 40.96Q100.20 39.25 98.91 36.17L98.86 36.12L96.83 31.09L96.84 31.09Q95.22 35.07 94.61 36.37L94.63 36.39L94.52 36.28Q93.24 39.37 91.64 41.27L91.55 41.18L91.51 41.14Q91.19 41.21 90.43 41.32L90.43 41.31L90.45 41.34Q90.33 33.79 84.50 27.85L84.58 27.93L84.62 27.97Q82.81 26.08 80.79 24.59L80.74 24.55L80.78 24.59Q82.62 25.14 84.49 25.44L84.57 25.52L84.51 25.47Q90.60 30.45 92.05 36.70L91.97 36.61L92.03 36.68Q92.91 34.81 94.09 31.61L94.09 31.62L94.16 31.69Q95.51 27.93 96.08 26.64L96.12 26.68L97.53 26.68L97.49 26.64Q98.35 28.34 99.53 31.61L99.48 31.56L99.58 31.66Q100.84 35.24 101.48 36.65L101.50 36.66L101.37 36.54Q103.32 30.37 108.80 25.80L108.82 25.82L108.70 25.71Q109.95 25.66 112.69 25.09L112.81 25.21L112.65 25.05Q103.99 31.05 102.81 41.02L102.91 41.12L102.22 40.96L102.26 41.00Q101.82 40.87 101.48 40.91ZM104.57 43.47L106.50 43.53L106.62 43.65Q106.31 42.12 106.31 40.60L106.15 40.44L106.29 40.58Q106.24 37.30 107.65 34.06L107.58 33.99L107.56 33.97Q109.64 29.54 113.75 26.46L113.76 26.47L113.70 26.41Q112.58 26.77 110.71 27.11L110.68 27.08L110.61 27.01Q112.57 25.35 113.86 24.43L114.01 24.58L111.44 24.99L111.33 24.87Q110.10 25.09 108.77 25.24L108.82 25.29L108.87 25.35Q103.62 29.50 101.68 34.53L101.85 34.69L101.67 34.51Q101.14 32.46 99.76 28.19L99.73 28.16L99.73 28.16Q99.33 28.10 99.06 28.10L99.26 28.29L98.56 28.13L98.67 28.24Q98.46 27.84 97.67 26.09L97.62 26.05L95.59 26.07L95.74 26.22Q94.77 29.02 92.67 34.65L92.56 34.54L92.59 34.57Q91.32 30.94 88.24 27.67L88.10 27.53L88.23 27.66Q87.90 27.60 87.60 27.56L87.70 27.66L87.11 27.53L87.07 27.49Q86.28 26.74 84.49 25.14L84.52 25.17L84.40 25.05Q81.18 24.34 79.50 23.84L79.65 23.99L79.67 24.01Q90.42 31.49 90.04 41.81L89.92 41.69L89.97 41.74Q90.15 41.72 90.51 41.68L90.52 41.70L90.52 41.69Q90.92 41.69 91.11 41.69L91.15 41.74L91.09 41.67Q91.10 41.53 91.29 43.63L91.20 43.53L93.20 43.44L93.12 43.36Q95.68 40.51 97.92 34.76L98.01 34.85L98.07 34.91Q99.52 38.72 101.39 41.39L101.32 41.32L101.37 41.37Q101.60 41.26 101.87 41.28L101.90 41.31L101.91 41.32Q102.12 41.28 102.39 41.28L102.55 41.45L104.44 43.34Z"/><path fill="#333" d="M73.07 29.93L73.09 29.95L73.10 29.97Q70.55 29.81 69.22 31.03L69.24 31.05L69.12 30.93Q67.80 32.17 68.11 34.68L68.16 34.73L68.15 34.72Q68.43 37.21 69.65 38.47L69.60 38.42L69.60 38.42Q70.72 39.80 72.85 39.72L72.86 39.74L72.88 39.75Q73.49 39.79 73.68 39.79L73.65 39.76L73.65 39.77Q77.13 39.09 77.24 34.49L77.18 34.42L77.30 34.54Q77.44 32.25 76.76 31.45L76.71 31.40L76.61 31.31Q75.55 30.02 73.00 29.87ZM76.36 41.63L76.37 41.64L76.36 41.64Q75.03 42.21 73.47 42.13L73.41 42.08L73.54 42.21Q69.66 42.36 68.36 39.77L68.34 39.74L68.32 39.73Q68.14 45.06 66.80 49.33L66.80 49.32L66.81 49.33Q65.02 49.83 63.38 50.55L63.48 50.65L63.45 50.62Q65.99 44.63 65.72 37.66L65.72 37.66L65.61 37.55Q65.44 30.79 62.55 24.74L62.50 24.69L62.50 24.69Q64.58 26.01 66.29 26.47L66.14 26.31L66.73 27.86L66.74 27.86Q66.90 28.26 67.17 29.36L67.06 29.25L67.11 29.30Q68.05 27.16 71.63 26.97L71.81 27.15L71.82 27.16Q72.59 27.01 73.46 27.01L73.39 26.94L73.87 26.92L73.93 26.99Q74.05 26.99 74.24 27.03L74.23 27.02L74.58 27.07L74.54 27.03Q76.75 27.45 77.47 27.67L77.30 27.51L77.42 27.62Q78.89 28.06 79.77 29.02L79.78 29.03L79.74 28.98Q80.68 30.27 80.64 31.68L80.61 31.65L80.47 31.51Q80.60 34.49 79.80 37.16L79.72 37.08L79.81 37.17Q78.76 40.65 76.40 41.68ZM80.63 42.25L80.61 42.19L80.71 42.29Q81.77 40.27 82.07 36.16L81.94 36.02L82.11 36.19Q82.21 34.39 82.21 33.14L82.16 33.09L82.14 33.06Q82.31 31.71 81.54 30.30L81.55 30.30L81.45 30.21Q81.04 29.75 80.54 29.37L80.45 29.28L80.33 29.05L80.16 28.76L80.07 28.55L80.17 28.66Q78.38 26.56 74.04 26.56L74.07 26.59L73.51 26.64L73.49 26.62Q68.76 26.54 67.12 28.13L67.25 28.26L67.15 28.16Q67.00 27.67 66.85 27.18L66.87 27.20L66.61 26.14L66.57 26.10Q64.07 25.47 61.86 23.98L61.92 24.04L61.80 23.92Q65.16 30.32 65.47 37.56L65.42 37.51L65.53 37.62Q65.70 44.75 62.84 51.23L62.83 51.21L64.84 50.37L64.77 50.30Q64.56 51.07 63.87 52.64L63.97 52.73L63.94 52.70Q66.70 51.69 69.02 51.35L68.94 51.27L68.87 51.20Q70.03 46.42 70.18 42.69L70.27 42.78L70.24 42.75Q71.56 44.15 75.18 44.37L75.28 44.48L75.25 44.45Q79.22 44.73 80.67 42.29L80.54 42.16ZM74.91 32.12L75.05 32.25L75.01 32.21Q75.62 32.11 76.73 32.45L76.62 32.34L76.72 32.44Q76.91 33.35 76.87 34.53L76.86 34.53L76.85 34.51Q76.98 35.55 76.79 36.20L76.84 36.25L76.75 36.16Q76.05 39.08 73.54 39.38L73.58 39.42L73.69 39.42L73.61 39.35Q73.56 39.37 73.44 39.40L73.40 39.36L72.83 39.33L72.92 39.41Q71.67 39.34 70.68 38.85L70.66 38.83L70.37 36.83L70.34 36.80Q70.14 34.42 71.43 33.39L71.52 33.49L71.47 33.43Q72.59 32.46 74.99 32.20Z"/></svg>