<svg xmlns="http://www.w3.org/2000/svg" width="150" height="50" viewBox="0,0,150,50"><path fill="#333" d="M121.51 18.36L121.52 18.38L121.54 18.39Q120.95 18.90 120.79 19.70L120.68 19.59L120.65 24.69L120.67 24.71Q121.87 24.77 124.08 24.51L124.05 24.48L124.08 24.51Q124.07 24.96 124.04 25.80L123.95 25.71L123.90 25.66Q123.98 26.54 123.98 27.00L123.92 26.94L122.40 27.09L122.46 27.15Q121.53 27.10 120.65 27.10L120.74 27.19L120.65 27.10Q120.63 31.26 120.55 39.63L120.69 39.77L120.57 39.65Q118.36 39.73 116.88 40.41L117.06 40.59L116.88 40.42Q118.06 34.37 117.95 27.13L117.81 27.00L117.93 27.11Q117.30 27.10 116.01 26.83L115.92 26.75L116.01 26.83Q115.94 25.77 115.75 23.83L115.78 23.87L115.68 23.76Q116.86 24.34 117.82 24.53L117.90 24.62L117.75 24.46Q117.85 23.95 117.55 21.48L117.45 21.38L117.44 21.37Q117.24 19.35 117.24 18.40L117.20 18.35L117.26 18.42Q117.28 16.76 118.69 16.19L118.72 16.21L118.75 16.25Q119.52 15.83 124.35 15.00L124.28 14.92L124.29 14.94Q125.07 14.77 125.91 14.65L125.96 14.70L125.99 14.73Q125.84 15.57 125.69 16.45L125.53 16.29L125.26 17.89L125.28 17.90Q124.69 17.81 124.20 17.93L124.14 17.87L124.05 17.78Q123.41 17.75 121.51 18.36ZM126.95 19.50L126.98 19.53L127.00 19.55Q127.41 17.41 128.02 14.86L127.93 14.77L128.02 14.86Q127.32 15.11 126.03 15.72L126.02 15.72L126.53 14.13L126.54 14.14Q125.33 14.33 122.85 14.87L122.88 14.90L122.86 14.88Q121.56 14.83 118.36 15.75L118.49 15.88L118.47 15.86Q116.90 16.27 116.90 18.13L116.77 18.00L116.92 18.15Q116.77 18.30 116.84 18.64L116.83 18.63L116.87 18.67Q117.15 20.05 117.26 21.38L117.28 21.41L117.47 24.07L117.52 24.12Q116.11 23.69 115.46 23.24L115.50 23.27L115.41 23.19Q115.53 24.15 115.57 25.17L115.59 25.19L115.62 27.09L115.73 27.20Q116.50 27.43 117.29 27.51L117.28 27.49L117.29 29.60L117.54 29.47L117.62 29.54Q117.54 35.71 116.55 41.15L116.52 41.12L116.57 41.17Q117.41 40.53 118.59 40.27L118.62 40.29L118.53 42.45L118.56 42.47Q119.70 42.10 120.99 42.06L121.11 42.17L120.95 42.01Q122.22 42.03 123.48 42.30L123.47 42.29L123.42 42.23Q122.62 37.29 122.62 29.33L122.66 29.37L122.74 29.45Q123.75 29.36 125.85 29.44L125.96 29.55L125.81 27.53L125.79 27.52Q125.78 26.55 125.82 25.60L125.81 25.59L125.88 25.66Q125.41 25.77 124.35 26.03L124.25 25.94L124.31 26.00Q124.44 25.44 124.55 24.11L124.54 24.09L124.44 24.00Q123.55 24.17 122.75 24.24L122.89 24.39L122.89 24.39Q122.90 22.99 123.02 21.58L122.95 21.51L122.98 21.54Q123.09 20.85 123.62 20.51L123.53 20.42L123.62 20.51Q124.56 19.81 125.38 19.73L125.45 19.81L125.38 19.73Q126.26 19.72 127.10 19.64Z"/><path fill="#333" d="M20.84 28.52L20.98 28.66L20.85 28.53Q18.11 28.61 17.35 30.86L17.36 30.87L17.38 30.88Q17.17 31.63 17.06 32.27L16.92 32.14L17.04 32.26Q19.64 32.46 21.27 32.46L21.30 32.49L21.25 32.44Q23.01 32.55 25.60 32.44L25.41 32.25L25.51 32.35Q25.38 30.62 23.97 29.55L23.97 29.56L23.98 29.57Q22.74 28.63 20.95 28.63ZM20.98 41.14L20.96 41.13L21.07 41.24Q16.71 41.10 15.41 39.69L15.54 39.82L15.52 39.80Q14.60 38.39 14.45 35.11L14.32 34.98L14.48 35.14Q14.32 34.75 14.24 33.38L14.33 33.47L14.31 33.44Q14.10 31.07 14.10 30.35L14.21 30.46L14.17 30.42Q14.07 28.45 14.80 27.35L14.89 27.44L14.79 27.35Q16.25 25.99 19.22 25.99L19.36 26.12L20.88 26.09L20.86 26.07Q22.92 26.07 24.44 26.37L24.38 26.32L24.33 26.26Q26.37 26.70 27.36 27.92L27.50 28.06L27.53 28.09Q28.11 29.13 28.18 31.22L28.25 31.28L28.24 31.27Q28.15 32.33 28.19 34.50L28.24 34.55L28.15 34.46Q25.37 34.58 22.59 34.58L22.54 34.53L16.86 34.44L16.97 34.55Q17.02 38.86 21.09 38.63L21.07 38.61L21.26 38.80Q24.96 38.55 26.18 36.72L26.17 36.71L26.07 36.60Q26.94 37.14 28.54 38.32L28.59 38.36L28.54 38.31Q27.26 40.80 23.11 41.07L23.03 40.99L23.13 41.09Q22.45 41.17 21.08 41.24ZM23.42 43.62L23.38 43.58L23.42 43.62Q24.44 43.51 25.66 43.58L25.55 43.48L25.57 43.50Q30.61 43.74 31.53 40.96L31.61 41.04L31.45 40.88Q29.95 39.77 28.85 39.00L28.77 38.93L28.74 38.90Q28.97 38.55 29.16 38.32L29.24 38.40L29.26 38.42Q28.35 37.78 26.98 36.83L27.15 37.00L27.06 36.91Q28.14 36.96 30.20 37.27L30.17 37.24L30.09 37.16Q30.05 35.94 29.98 35.26L29.87 35.16L29.91 33.40L29.83 33.33Q29.63 30.92 28.98 29.43L29.09 29.53L29.10 29.55Q28.68 29.05 28.11 28.44L28.20 28.53L28.08 28.41Q28.00 28.18 27.77 27.61L27.71 27.55L27.72 27.56Q25.85 25.54 20.79 25.54L20.79 25.54L19.23 25.65L19.07 25.50Q15.93 25.59 14.48 27.07L14.39 26.99L14.42 27.01Q13.87 28.25 13.91 30.31L13.88 30.28L13.89 30.29Q13.80 31.11 13.91 33.35L14.02 33.46L13.96 33.40Q14.10 35.06 14.21 37.12L14.27 37.18L14.26 37.17Q14.39 39.28 15.27 40.34L15.40 40.48L15.29 40.37Q15.42 40.50 15.61 40.62L15.73 40.73L15.94 41.28L16.08 41.43Q16.76 43.17 23.35 43.56ZM21.20 38.32L21.18 38.30L21.27 38.39Q19.99 38.37 19.08 37.91L19.19 38.03L19.07 37.91Q19.12 37.61 18.93 36.92L18.90 36.89L18.95 36.95Q20.46 36.67 22.06 36.67L22.08 36.69L22.14 36.75Q23.88 36.81 25.55 36.93L25.57 36.95L25.50 36.87Q24.26 38.26 21.25 38.37ZM22.76 30.90L22.77 30.91L22.76 30.90Q23.40 30.93 24.73 31.31L24.83 31.41L25.02 31.79L24.96 31.92L25.00 31.96Q23.56 32.00 22.65 31.96L22.76 32.08L22.67 31.99Q20.52 32.08 20.48 32.08L20.49 32.10L20.35 31.95Q21.20 31.13 22.88 31.02Z"/><path fill="#333" d="M104.32 40.32L104.30 40.30L104.32 40.32Q101.47 36.56 98.85 27.92L98.78 27.86L98.85 27.93Q98.04 25.63 97.24 23.50L97.30 23.56L94.39 32.30L94.43 32.33Q92.53 37.18 90.14 40.41L90.18 40.46L90.16 40.44Q89.32 40.52 87.69 40.67L87.80 40.78L87.76 40.75Q87.87 39.56 87.87 38.30L87.91 38.34L87.83 38.26Q87.92 32.34 85.18 26.21L85.18 26.21L85.20 26.23Q81.89 19.15 76.03 14.17L76.05 14.18L76.21 14.35Q78.18 14.87 80.54 15.40L80.58 15.44L80.69 15.55Q89.34 23.98 90.64 34.94L90.61 34.91L90.68 34.98Q92.32 31.67 93.77 26.30L93.73 26.27L93.68 26.22Q95.58 18.63 96.07 17.23L96.09 17.24L98.39 17.30L98.45 17.36Q99.11 19.36 99.76 21.68L99.76 21.67L100.99 26.10L100.91 26.02Q102.64 31.64 104.05 34.88L103.93 34.75L103.88 34.70Q105.56 23.10 113.48 15.75L113.45 15.73L113.46 15.73Q115.11 15.52 118.08 14.87L118.05 14.85L118.00 14.79Q112.70 19.12 109.65 25.25L109.70 25.30L109.66 25.25Q106.56 31.49 106.56 38.27L106.50 38.20L106.51 38.21Q106.54 39.34 106.61 40.49L106.75 40.62L105.48 40.38L105.43 40.32Q104.92 40.35 104.35 40.35ZM110.72 43.37L110.69 43.34L110.68 43.34Q109.28 39.61 109.39 35.73L109.49 35.83L109.51 35.84Q109.81 24.27 119.18 16.01L119.27 16.10L119.18 16.01Q118.33 16.34 116.39 16.87L116.29 16.77L116.32 16.80Q117.22 15.92 119.13 14.13L119.06 14.06L119.19 14.19Q116.40 14.83 113.47 15.32L113.54 15.40L113.57 15.43Q106.08 22.56 104.18 32.04L104.09 31.95L104.18 32.04Q103.63 30.42 100.77 18.96L100.70 18.88L100.63 18.82Q100.21 18.89 99.26 18.89L99.45 19.08L99.03 17.90L99.04 17.91Q98.96 17.42 98.73 16.92L98.64 16.83L95.88 16.96L95.72 16.80Q94.90 19.26 93.63 24.38L93.62 24.37L93.73 24.48Q92.44 29.59 91.46 32.06L91.52 32.13L91.35 31.96Q89.79 24.08 84.23 17.76L84.29 17.82L84.24 17.77Q83.91 17.86 82.96 17.67L82.95 17.66L82.87 17.58Q82.12 16.71 80.56 15.08L80.64 15.16L80.67 15.19Q77.18 14.28 75.01 13.48L75.00 13.48L75.01 13.49Q80.71 18.19 83.98 24.40L84.01 24.43L83.89 24.31Q87.38 30.96 87.38 37.96L87.35 37.93L87.37 37.96Q87.50 39.65 87.31 41.24L87.21 41.14L87.18 41.11Q87.39 41.10 87.85 41.00L87.86 41.01L87.86 41.01Q88.32 40.92 88.55 40.92L88.63 41.00L88.52 41.92L88.53 41.93Q88.55 42.41 88.63 42.94L88.68 42.99L88.69 43.00Q89.80 42.90 92.09 42.75L92.06 42.72L92.04 42.70Q95.70 37.34 98.44 27.93L98.41 27.91L98.38 27.87Q101.19 36.70 104.16 40.66L104.15 40.65L104.27 40.76Q104.71 40.75 105.55 40.87L105.57 40.89L105.50 40.82Q106.45 41.96 107.51 43.02L107.49 43.00L107.55 43.06Q108.24 43.02 110.64 43.29Z"/><path fill="#111" d="M73.13 27.80L73.05 27.73L73.13 27.80Q69.44 27.54 68.33 30.89L68.44 31.00L68.50 31.06Q68.09 32.09 67.98 33.16L67.89 33.07L67.91 33.09Q67.72 35.15 68.71 36.48L68.79 36.56L68.66 36.43Q70.11 37.73 72.58 37.77L72.56 37.74L72.61 37.79Q74.39 37.78 75.80 36.64L75.83 36.67L75.80 36.64Q77.28 35.57 77.28 33.78L77.11 33.61L77.13 33.63Q77.26 33.41 77.18 33.03L77.04 32.89L77.02 32.87Q76.79 27.74 72.99 27.66ZM73.01 40.25L72.89 40.13L73.01 40.24Q69.16 40.43 67.37 38.41L67.38 38.43L67.36 38.40Q67.09 39.39 66.63 40.76L66.62 40.75L66.63 40.76Q64.74 41.57 63.48 42.14L63.53 42.18L63.53 42.19Q65.57 36.08 65.57 29.57L65.57 29.57L65.71 29.71Q65.69 21.40 62.27 13.55L62.29 13.57L62.13 13.42Q64.64 14.93 65.97 15.39L65.91 15.33L65.96 15.38Q67.96 21.91 68.11 27.73L68.16 27.78L68.12 27.74Q69.54 25.05 73.27 25.09L73.34 25.16L73.43 25.25Q76.59 25.21 78.08 27.08L78.01 27.01L77.97 26.97Q79.80 29.26 79.95 32.84L79.99 32.88L79.98 32.87Q80.14 34.13 80.06 35.73L79.95 35.61L79.90 35.56Q80.04 37.19 79.16 38.33L79.07 38.23L79.11 38.28Q77.36 39.99 73.02 40.26ZM78.35 42.61L78.51 42.78L78.37 42.64Q79.88 42.66 81.36 41.97L81.51 42.12L81.46 42.07Q82.56 40.77 82.59 38.83L82.51 38.75L82.63 38.86Q82.51 38.25 82.36 37.07L82.51 37.22L82.41 37.12Q82.42 36.52 82.31 35.61L82.30 35.60L82.26 35.57Q81.36 30.70 79.79 28.64L79.85 28.70L79.82 28.67Q79.85 28.66 79.05 27.78L79.03 27.76L79.12 27.86Q78.73 27.43 78.20 26.63L78.25 26.68L78.20 26.63Q76.60 24.69 73.25 24.73L73.34 24.81L73.32 24.80Q71.36 24.93 70.11 25.54L70.05 25.48L70.01 25.45Q69.65 20.90 69.04 17.70L68.99 17.65L69.05 17.71Q68.36 17.59 66.87 17.21L66.84 17.17L66.90 17.23Q66.68 16.41 66.23 14.96L66.34 15.07L66.22 14.95Q63.89 14.27 61.65 12.70L61.54 12.60L61.55 12.60Q65.28 20.75 65.28 29.54L65.33 29.59L65.40 29.67Q65.33 36.57 62.86 42.77L62.90 42.82L62.93 42.84Q63.48 42.37 64.81 41.80L64.87 41.85L64.87 41.85Q64.56 42.54 63.95 44.06L63.96 44.07L63.96 44.06Q66.09 43.30 68.87 42.77L68.90 42.80L69.26 40.95L69.23 40.92Q71.49 42.57 78.41 42.68ZM74.68 30.04L74.72 30.08L74.70 30.06Q75.73 30.06 76.27 30.45L76.16 30.34L76.20 30.37Q76.61 30.97 76.83 32.99L76.75 32.91L76.70 32.86Q77.03 34.86 75.77 36.17L75.83 36.23L75.63 36.04Q74.39 37.36 72.45 37.25L72.57 37.37L72.51 37.31Q71.66 37.52 70.17 37.03L70.21 37.06L70.15 37.01Q69.93 36.52 69.93 35.99L69.97 36.02L70.00 36.06Q69.94 32.91 71.50 31.31L71.41 31.22L71.43 31.28L71.50 31.36Q72.88 29.92 74.64 29.99Z"/><path fill="#111" d="M46.46 41.05L46.59 41.17L44.84 41.14L44.78 41.08Q41.50 41.19 40.55 39.06L40.49 39.00L40.53 39.04Q41.59 37.89 43.04 36.79L43.09 36.84L43.07 36.82Q43.77 39.11 46.62 38.96L46.53 38.88L46.53 38.87Q47.32 38.83 48.35 38.60L48.35 38.60L48.33 38.58Q49.28 38.08 49.20 37.12L49.30 37.23L49.17 37.09Q49.17 36.07 47.38 35.38L47.26 35.26L43.56 33.84L43.60 33.88Q41.19 32.47 40.85 28.93L40.88 28.96L40.96 29.03Q40.77 26.91 42.94 26.33L42.89 26.28L42.93 26.32Q43.76 25.97 46.73 25.97L46.76 26.01L46.82 26.07Q51.71 26.08 52.62 28.59L52.64 28.61L52.49 28.46Q51.88 29.04 51.16 29.49L51.15 29.48L49.81 30.51L49.83 30.52Q49.28 28.56 46.04 28.33L46.11 28.40L46.11 28.40Q45.43 28.33 44.41 28.75L44.39 28.74L44.40 28.75Q43.91 29.17 43.91 30.28L43.86 30.23L43.98 30.34Q44.26 31.35 46.09 32.04L46.02 31.96L46.07 32.02Q47.20 32.46 49.86 33.56L49.88 33.58L49.82 33.52Q51.71 34.42 51.90 36.97L51.74 36.81L51.74 36.81Q51.87 37.51 51.80 38.50L51.83 38.54L51.78 38.49Q51.73 39.35 51.16 40.00L51.27 40.11L51.16 40.00Q49.70 41.24 46.65 41.24ZM51.29 43.71L51.31 43.73L51.41 43.83Q52.22 43.76 53.59 43.46L53.61 43.48L53.57 43.43Q54.68 42.80 54.49 41.58L54.46 41.54L54.44 41.53Q54.41 41.00 54.11 39.40L54.04 39.33L54.11 39.41Q53.53 36.43 51.74 35.21L51.69 35.16L51.76 35.23Q51.27 33.87 50.02 33.14L49.93 33.06L49.93 33.05Q48.67 32.64 46.20 31.69L46.33 31.82L46.23 31.72Q46.34 31.22 46.61 31.11L46.68 31.18L46.67 31.17Q47.35 30.79 48.00 30.75L47.90 30.65L47.87 30.61Q48.66 30.57 49.42 30.84L49.46 30.87L49.50 30.99L49.65 31.03L49.82 31.00L49.91 31.13L49.78 31.00Q50.99 31.61 51.18 32.87L51.19 32.88L51.04 32.72Q52.44 32.03 54.34 30.35L54.33 30.34L54.28 30.29Q54.04 29.59 53.05 28.41L52.96 28.32L53.00 28.36Q51.88 25.68 46.78 25.57L46.85 25.64L46.74 25.53Q43.57 25.48 41.59 26.05L41.55 26.01L41.66 26.12Q40.29 26.73 40.52 28.82L40.49 28.79L40.50 28.80Q40.60 30.05 41.51 32.14L41.58 32.21L41.55 32.18Q41.95 33.15 42.97 33.87L43.14 34.03L43.09 33.99Q43.79 35.49 45.09 36.17L45.09 36.17L45.06 36.14Q45.93 36.33 46.88 36.71L46.84 36.66L48.91 37.60L48.88 37.57Q48.47 38.60 46.53 38.49L46.58 38.54L46.62 38.58Q46.07 38.53 44.85 38.22L44.83 38.20L44.78 38.00L44.76 38.20L44.77 38.21Q43.93 37.87 43.28 36.38L43.30 36.40L43.22 36.32Q41.18 37.98 40.08 39.12L39.98 39.02L40.03 39.07Q40.18 39.83 41.21 40.63L41.27 40.69L41.12 40.84L41.11 40.84Q42.65 43.06 46.87 43.44L46.85 43.41L46.85 43.41Q48.14 43.56 51.37 43.79Z"/></svg>