<svg xmlns="http://www.w3.org/2000/svg" width="150" height="50" viewBox="0,0,150,50"><path fill="#111" d="M92.60 33.29L92.60 33.29L92.55 33.23Q92.56 36.21 91.38 40.86L91.30 40.78L91.28 40.76Q89.48 41.28 87.88 42.08L87.81 42.01L87.94 42.14Q90.49 35.05 90.22 27.63L90.17 27.58L90.16 27.57Q89.87 20.17 86.79 13.43L86.91 13.54L86.85 13.48Q88.92 14.88 90.79 15.45L90.77 15.43L90.62 15.28Q92.81 22.31 92.81 28.97L92.86 29.01L92.83 28.98Q92.86 30.46 92.78 31.95L92.67 31.83L92.67 31.84Q94.01 30.81 99.22 25.86L99.17 25.81L99.19 25.82Q100.32 25.85 101.31 25.78L101.21 25.67L103.20 25.42L103.29 25.51Q100.09 28.48 95.79 32.25L95.90 32.36L95.89 32.35Q99.25 35.10 105.72 40.93L105.72 40.92L105.59 40.80Q102.88 39.91 99.91 39.72L99.91 39.72L100.00 39.81Q97.50 37.73 92.63 33.31ZM102.50 42.46L102.49 42.45L102.46 42.42Q107.15 43.23 110.27 45.17L110.32 45.21L110.41 45.31Q109.27 44.05 106.64 41.65L106.47 41.48L106.45 41.47Q106.82 41.68 107.09 41.80L107.12 41.83L107.03 41.73Q104.93 39.71 102.68 37.81L102.62 37.75L98.27 33.93L98.32 33.98Q103.18 29.66 105.61 26.77L105.73 26.89L105.77 26.92Q104.55 27.00 102.07 27.26L101.88 27.08L102.06 27.25Q103.57 25.71 104.25 24.88L104.32 24.94L104.33 24.95Q101.55 25.45 99.08 25.45L98.98 25.35L98.98 25.36Q97.50 26.58 94.76 29.24L94.93 29.41L94.92 29.40Q94.78 23.47 93.79 17.65L93.86 17.72L93.91 17.77Q93.13 17.53 91.65 17.26L91.60 17.21L91.63 17.24Q91.44 16.48 90.99 15.00L91.03 15.04L91.02 15.03Q88.33 14.17 86.09 12.61L86.23 12.75L86.09 12.61Q89.51 19.42 89.85 27.53L89.88 27.56L89.93 27.61Q90.26 35.51 87.25 42.75L87.36 42.85L87.23 42.72Q88.03 42.53 89.36 41.89L89.31 41.83L89.20 41.73Q89.09 42.68 88.44 44.13L88.49 44.17L88.50 44.18Q91.26 43.02 93.39 42.64L93.46 42.71L93.31 42.56Q93.96 40.13 94.46 35.87L94.48 35.89L94.40 35.81Q97.13 38.20 102.58 42.54Z"/><path fill="#333" d="M46.60 40.24L46.54 40.17L44.06 33.24L44.18 33.36Q39.78 20.73 33.84 14.34L33.86 14.36L33.80 14.30Q35.88 15.43 38.47 16.04L38.47 16.04L38.38 15.95Q43.57 22.28 47.91 35.03L48.00 35.12L47.83 34.95Q50.98 26.95 51.66 25.35L51.63 25.32L51.66 25.34Q54.07 19.76 56.89 16.45L56.85 16.41L56.81 16.38Q59.02 16.14 61.64 15.27L61.50 15.13L61.64 15.26Q57.05 19.85 54.01 27.08L53.92 27.00L53.89 26.97Q52.46 30.60 48.77 40.12L48.81 40.17L48.93 40.28Q48.19 40.11 47.62 40.07L47.69 40.14L47.64 40.09Q47.16 40.19 46.59 40.22ZM51.56 42.61L51.49 42.54L51.62 42.66Q54.39 32.64 55.95 28.61L55.93 28.59L55.96 28.62Q58.89 20.85 63.31 15.98L63.25 15.92L63.43 16.10Q62.33 16.41 60.24 17.14L60.14 17.03L61.42 15.85L61.34 15.76Q62.01 15.18 62.62 14.53L62.48 14.39L62.63 14.54Q59.67 15.39 56.66 15.96L56.75 16.05L56.79 16.09Q52.29 21.29 48.40 32.75L48.44 32.79L48.41 32.75Q44.71 22.58 41.51 18.20L41.63 18.32L41.58 18.28Q41.14 18.13 40.26 17.98L40.36 18.08L40.31 18.04Q40.14 17.71 38.54 15.66L38.48 15.60L38.43 15.54Q35.48 14.84 32.78 13.43L32.85 13.51L32.83 13.48Q39.48 20.59 43.86 33.38L43.86 33.38L43.90 33.43Q45.11 37.07 46.29 40.64L46.21 40.57L46.23 40.58Q46.54 40.59 47.38 40.48L47.49 40.59L47.53 40.63Q47.80 41.24 48.48 42.57L48.55 42.64L48.53 42.62Q49.42 42.59 50.14 42.67L49.99 42.52L50.12 42.65Q50.92 42.73 51.68 42.73Z"/><path fill="#222" d="M21.17 29.96L21.11 29.89L21.09 29.88Q20.89 29.90 20.58 29.90L20.54 29.86L20.56 29.88Q19.23 29.88 17.78 30.71L17.73 30.67L17.71 30.64Q16.50 31.87 16.50 33.77L16.47 33.74L16.34 33.61Q16.41 37.11 17.94 38.45L17.93 38.44L17.99 38.50Q18.95 39.68 21.23 39.68L21.10 39.55L21.20 39.66Q21.47 39.70 21.77 39.70L21.78 39.70L21.83 39.75Q23.46 39.67 24.61 38.03L24.64 38.07L24.57 38.00Q25.57 36.45 25.49 34.66L25.48 34.64L25.63 34.79Q25.65 34.28 25.65 33.86L25.61 33.83L25.60 33.82Q25.71 32.13 24.34 30.97L24.30 30.93L24.24 30.87Q22.88 29.73 21.09 29.88ZM25.59 40.05L25.66 40.12L25.53 39.99Q24.57 41.96 20.84 42.07L20.79 42.03L20.93 42.16Q17.47 42.20 15.87 40.60L15.79 40.52L15.75 40.48Q14.48 38.91 13.68 34.12L13.63 34.07L13.54 33.97Q13.25 32.24 13.25 30.98L13.19 30.92L13.20 30.93Q13.38 29.32 14.10 28.26L14.10 28.26L13.96 28.11Q15.48 26.89 18.45 26.89L18.42 26.86L18.37 26.81Q24.74 26.86 26.64 29.45L26.59 29.39L26.48 29.28Q26.73 28.55 27.15 26.95L27.24 27.04L27.09 26.89Q28.37 26.61 30.80 25.81L30.84 25.84L30.90 25.90Q28.47 31.55 28.25 37.87L28.13 37.75L28.17 37.79Q28.05 44.07 30.19 49.90L30.11 49.82L30.03 49.74Q28.48 49.30 26.69 49.03L26.65 48.98L26.62 48.95Q25.61 44.90 25.49 39.95ZM26.29 49.20L26.34 49.25L26.26 49.17Q27.01 49.34 28.42 49.65L28.48 49.72L28.42 49.65Q28.80 50.53 29.37 51.93L29.23 51.80L29.32 51.89Q31.87 52.57 34.15 53.86L34.18 53.89L34.14 53.85Q30.10 47.26 30.10 38.73L30.10 38.73L30.11 38.74Q30.03 32.30 32.50 26.52L32.60 26.62L32.49 26.50Q31.86 26.86 30.49 27.51L30.56 27.58L30.60 27.63Q30.83 26.75 31.48 25.18L31.53 25.24L31.41 25.12Q30.04 25.85 26.85 26.72L26.82 26.70L26.80 26.67Q26.58 27.15 26.28 28.33L26.35 28.40L26.40 28.44Q24.42 26.58 18.29 26.43L18.14 26.28L18.25 26.38Q15.02 26.28 13.65 27.77L13.53 27.64L13.54 27.65Q12.94 28.96 12.98 30.87L12.87 30.75L12.90 30.78Q13.03 33.80 14.01 37.57L13.99 37.54L13.94 37.50Q14.71 40.02 15.62 40.97L15.57 40.92L15.88 41.22L16.04 41.39Q17.11 44.05 22.55 44.28L22.62 44.35L22.49 44.22Q23.63 44.37 25.46 44.07L25.42 44.03L25.43 44.04Q25.78 47.01 26.39 49.29ZM22.93 32.14L22.86 32.07L22.86 32.06Q24.02 32.15 24.85 32.46L24.87 32.47L24.98 32.59Q25.08 33.02 25.19 33.63L25.27 33.71L25.29 33.74Q25.36 34.26 25.29 34.87L25.18 34.76L25.23 34.81Q25.25 36.74 24.23 38.04L24.08 37.89L24.27 38.08Q22.93 39.33 21.07 39.14L21.13 39.21L21.15 39.23Q19.78 39.15 18.83 38.73L18.82 38.72L18.96 38.86Q18.54 37.99 18.54 36.77L18.51 36.74L18.59 36.81Q18.50 36.42 18.50 36.11L18.55 36.16L18.56 36.18Q18.63 34.50 19.96 33.33L19.90 33.28L19.89 33.27Q21.18 32.06 22.93 32.13Z"/><path fill="#444" d="M62.97 39.02L62.89 38.94L62.85 38.90Q64.71 36.49 69.47 29.22L69.56 29.32L69.57 29.33Q73.49 23.00 76.34 19.73L76.53 19.92L76.41 19.80Q74.30 20.08 72.20 20.08L72.32 20.20L72.16 20.04Q67.07 20.20 63.07 18.41L63.09 18.43L63.07 18.41Q62.25 16.33 61.56 14.77L61.66 14.86L61.58 14.79Q66.12 16.93 71.79 17.04L71.86 17.11L71.95 17.20Q76.97 17.16 82.15 15.26L82.22 15.33L82.25 15.36Q81.79 16.11 81.48 16.91L81.47 16.90L80.89 18.49L80.86 18.45Q77.89 22.19 73.90 28.02L73.90 28.02L70.49 32.76L70.48 32.75Q68.86 35.24 67.03 37.52L67.07 37.56L67.11 37.60Q70.40 36.97 73.71 37.05L73.60 36.93L73.57 36.90Q77.06 37.16 80.22 38.07L80.25 38.11L80.62 39.58L80.60 39.55Q80.94 40.47 81.28 41.30L81.31 41.33L81.24 41.26Q76.50 39.60 71.36 39.79L71.41 39.84L71.42 39.85Q66.33 40.09 61.83 42.11L61.77 42.04L61.90 42.18Q62.25 41.07 62.97 39.02ZM61.27 42.84L61.18 42.75L61.30 42.87Q62.41 42.15 63.21 41.89L63.19 41.87L63.29 41.96Q62.88 42.59 62.20 44.11L62.24 44.15L62.29 44.20Q67.90 41.97 73.87 42.19L73.90 42.22L73.87 42.20Q80.33 42.56 85.35 45.33L85.36 45.34L85.25 45.23Q83.84 42.83 83.04 40.66L83.06 40.69L83.13 40.76Q82.55 40.44 81.03 39.87L81.06 39.91L81.18 40.02Q80.95 39.22 80.53 37.74L80.44 37.65L80.56 37.76Q76.39 36.57 71.29 36.76L71.24 36.71L71.22 36.69Q73.26 33.85 76.80 28.29L76.84 28.33L76.94 28.44Q80.54 22.67 82.44 20.12L82.55 20.22L82.49 20.16Q82.96 18.73 83.98 16.03L83.89 15.93L84.00 16.05Q83.21 16.28 81.76 16.89L81.84 16.96L81.89 17.01Q82.21 16.20 82.94 14.67L82.85 14.58L82.96 14.69Q77.63 16.83 71.92 16.75L71.80 16.63L71.85 16.68Q65.94 16.64 60.99 14.12L61.04 14.17L61.02 14.15Q62.11 16.46 62.84 18.71L62.71 18.59L62.90 18.77Q64.01 19.31 64.81 19.54L64.77 19.50L64.63 19.36Q64.89 20.04 65.16 21.49L65.30 21.63L65.33 21.65Q68.91 22.57 73.78 22.38L73.92 22.52L73.86 22.47Q71.41 25.60 68.09 30.59L68.17 30.66L62.57 38.92L62.53 38.89Q62.26 40.25 61.23 42.80Z"/><path fill="#333" d="M113.86 15.94L113.84 15.93L113.87 15.95Q115.69 20.75 116.26 25.93L116.33 25.99L116.30 25.97Q120.03 21.85 125.93 17.01L125.89 16.98L125.85 16.93Q128.98 16.56 131.61 15.76L131.64 15.79L125.22 21.56L125.09 21.42Q121.70 24.40 118.85 27.25L118.82 27.22L118.88 27.28Q126.86 36.44 131.92 41.16L131.78 41.03L131.83 41.08Q128.70 40.11 126.38 39.96L126.41 39.99L126.45 40.04Q120.71 34.67 116.41 28.85L116.43 28.87L116.30 28.74Q116.40 35.35 114.54 40.68L114.66 40.80L114.69 40.84Q114.43 40.84 113.93 41.03L113.92 41.02L113.88 41.16L113.95 41.24Q113.76 41.27 111.20 42.19L111.15 42.13L111.19 42.17Q113.95 35.41 113.60 27.95L113.65 27.99L113.62 27.96Q113.30 20.64 109.76 14.13L109.82 14.19L110.32 14.42L110.76 14.75L110.85 14.80L110.82 14.77Q111.66 15.27 113.87 15.96ZM113.96 15.47L114.05 15.56L114.10 15.61Q111.85 15.08 109.22 13.56L109.12 13.45L109.18 13.51Q113.44 20.78 113.44 29.73L113.46 29.75L113.34 29.63Q113.48 36.77 110.51 42.82L110.47 42.78L112.45 41.87L112.45 41.87Q112.02 42.85 111.34 44.15L111.34 44.15L111.37 44.18Q113.64 43.41 115.59 42.99L115.69 43.09L115.68 42.86L115.71 42.89Q115.92 42.79 116.50 42.64L116.61 42.75L116.50 42.65Q118.08 36.65 118.20 31.85L118.26 31.92L118.18 31.84Q120.42 34.50 122.25 36.37L122.10 36.22L122.11 36.22Q123.43 37.47 126.44 40.44L126.41 40.41L126.32 40.32L126.39 40.39Q127.49 41.30 129.36 42.90L129.20 42.75L129.35 42.90Q133.08 43.47 136.55 45.18L136.53 45.16L136.59 45.22Q127.26 36.62 121.02 29.20L121.18 29.35L121.04 29.21Q125.53 25.03 134.29 16.43L134.29 16.43L134.19 16.33Q131.79 17.62 129.77 18.00L129.76 17.99L129.74 17.97Q130.99 17.01 133.31 14.99L133.30 14.98L133.16 14.84Q129.02 16.23 125.67 16.42L125.77 16.51L125.78 16.52Q122.77 18.65 117.90 23.33L118.06 23.49L117.97 23.40Q117.64 20.86 117.07 18.31L116.95 18.20L116.96 18.21Q115.82 18.09 114.83 17.75L114.87 17.79L114.81 17.73Q114.70 17.09 114.13 15.64Z"/></svg>