<svg xmlns="http://www.w3.org/2000/svg" width="150" height="50" viewBox="0,0,150,50"><path fill="#222" d="M47.21 41.32L47.34 41.45L47.21 41.32Q44.42 41.57 43.16 41.04L43.13 41.01L43.08 40.96Q41.08 40.10 41.15 37.62L41.15 37.62L41.32 37.79Q41.39 34.32 41.39 34.89L41.34 34.84L41.41 34.91Q41.33 29.51 38.48 24.67L38.46 24.65L38.56 24.75Q40.60 25.77 42.58 26.15L42.42 25.99L42.59 26.16Q44.20 30.66 44.08 35.15L44.09 35.15L44.11 35.17Q44.01 36.71 44.85 37.93L44.83 37.92L44.71 37.79Q45.61 39.11 47.13 38.92L47.31 39.10L47.52 38.81L47.51 38.81Q48.94 38.82 49.76 38.06L49.81 38.11L49.65 37.96Q50.67 37.39 50.67 36.44L50.53 36.30L50.57 36.34Q50.60 36.15 50.56 35.96L50.60 35.99L50.63 36.02Q50.42 30.63 51.56 26.29L51.65 26.39L51.63 26.37Q52.59 26.22 53.58 25.99L53.66 26.07L55.65 25.55L55.64 25.53Q53.16 30.64 53.47 36.20L53.39 36.12L53.43 36.16Q53.54 39.17 51.83 40.31L51.77 40.25L51.95 40.43Q50.60 41.24 47.29 41.40ZM49.53 43.72L49.55 43.73L49.55 43.73Q53.14 44.02 54.97 43.25L54.92 43.21L54.92 43.21Q55.85 42.46 55.85 41.05L55.73 40.93L55.81 41.01Q55.85 40.14 55.59 38.58L55.59 38.59L55.55 38.55Q55.16 35.49 55.54 32.48L55.46 32.41L55.40 32.35Q55.75 29.15 57.16 26.41L57.18 26.43L57.20 26.45Q56.56 26.77 55.23 27.18L55.33 27.29L55.27 27.23Q55.49 26.61 55.80 26.04L55.88 26.12L56.43 24.96L56.33 24.86Q54.38 25.50 51.23 26.00L51.34 26.11L51.32 26.09Q50.10 30.89 50.26 35.99L50.16 35.90L50.12 35.86Q50.34 38.09 47.67 38.59L47.58 38.49L47.21 38.58L47.21 38.73L46.10 38.42L46.08 38.40Q45.95 37.47 45.99 36.98L46.14 37.13L46.12 37.11Q46.36 32.62 45.67 28.21L45.51 28.05L44.52 27.97L44.63 28.08Q43.95 27.89 43.41 27.78L43.44 27.80L43.42 27.78Q43.07 26.41 42.80 25.65L42.82 25.66L42.92 25.76Q40.04 25.24 37.79 23.95L37.75 23.91L37.72 23.87Q39.94 27.47 40.66 30.85L40.76 30.95L40.62 30.81Q41.18 33.08 41.03 36.58L40.94 36.50L41.05 36.60Q41.10 36.77 41.02 37.88L40.92 37.77L40.91 37.76Q40.81 40.17 42.18 41.12L42.10 41.04L42.26 41.20Q42.57 43.38 49.57 43.76Z"/><path fill="#444" d="M71.23 41.15L71.24 41.16L69.49 41.12L69.49 41.13Q66.22 41.24 65.26 39.11L65.10 38.94L65.24 39.08Q66.40 38.03 67.85 36.93L67.80 36.88L67.79 36.87Q68.28 38.97 71.14 38.81L71.19 38.87L71.20 38.88Q71.97 38.81 73.00 38.58L73.00 38.58L73.09 38.67Q73.99 38.13 73.92 37.18L73.86 37.12L73.83 37.09Q73.83 36.06 72.04 35.37L71.94 35.28L68.29 33.91L68.20 33.82Q65.98 32.59 65.64 29.05L65.63 29.04L65.64 29.05Q65.42 26.89 67.59 26.32L67.49 26.22L67.58 26.31Q68.45 25.99 71.41 25.99L71.43 26.01L71.47 26.05Q76.32 26.03 77.23 28.54L77.15 28.46L77.23 28.53Q76.61 29.09 75.88 29.55L75.81 29.47L74.55 30.58L74.36 30.39Q73.88 28.50 70.64 28.27L70.67 28.29L70.79 28.41Q70.13 28.37 69.10 28.78L69.17 28.85L69.06 28.74Q68.64 29.23 68.64 30.34L68.57 30.26L68.54 30.24Q68.83 31.25 70.66 31.94L70.64 31.92L70.77 32.05Q71.87 32.46 74.53 33.57L74.54 33.57L74.48 33.51Q76.30 34.35 76.49 36.90L76.39 36.79L76.46 36.87Q76.52 37.49 76.44 38.48L76.56 38.60L76.44 38.48Q76.50 39.45 75.93 40.10L75.94 40.12L75.87 40.04Q74.22 41.09 71.17 41.09ZM76.04 43.79L75.98 43.73L76.05 43.80Q76.99 43.86 78.36 43.56L78.34 43.54L78.33 43.53Q79.36 42.81 79.17 41.59L79.13 41.55L79.11 41.53Q79.12 41.05 78.82 39.45L78.74 39.37L78.69 39.32Q78.29 36.53 76.51 35.31L76.48 35.28L76.50 35.30Q75.98 33.90 74.72 33.18L74.62 33.08L74.60 33.06Q73.41 32.71 70.94 31.76L70.98 31.80L71.01 31.83Q71.14 31.36 71.41 31.24L71.34 31.18L71.40 31.23Q71.99 30.75 72.63 30.71L72.62 30.70L72.60 30.68Q73.37 30.61 74.13 30.88L74.20 30.94L74.14 30.97L74.30 31.01L74.54 31.06L74.59 31.14L74.41 30.97Q75.53 31.48 75.72 32.74L75.87 32.89L75.79 32.80Q77.02 31.95 78.93 30.27L78.98 30.33L78.85 30.20Q78.61 29.49 77.62 28.31L77.64 28.33L77.76 28.46Q76.62 25.76 71.52 25.64L71.38 25.50L71.43 25.55Q68.28 25.52 66.30 26.09L66.30 26.10L66.23 26.02Q64.90 26.67 65.13 28.77L65.22 28.86L65.06 28.70Q65.24 30.03 66.16 32.12L66.18 32.14L66.20 32.16Q66.68 33.22 67.71 33.94L67.64 33.87L67.77 34.00Q68.44 35.47 69.73 36.15L69.77 36.19L69.75 36.17Q70.64 36.38 71.60 36.76L71.60 36.76L73.58 37.60L73.55 37.57Q73.18 38.65 71.24 38.53L71.15 38.45L71.32 38.61Q70.73 38.52 69.52 38.22L69.68 38.38L69.58 38.13L69.43 38.21L69.44 38.22Q68.63 37.90 67.98 36.42L67.86 36.30L67.91 36.35Q65.81 37.94 64.71 39.08L64.69 39.07L64.72 39.10Q64.94 39.93 65.97 40.72L66.01 40.77L65.87 40.93L65.86 40.92Q67.25 43.00 71.48 43.38L71.47 43.37L71.49 43.39Q72.79 43.55 76.03 43.78Z"/><path fill="#222" d="M95.87 19.69L95.90 19.72L94.34 19.84L94.32 19.81Q91.99 19.85 91.76 21.87L91.78 21.89L91.84 21.94Q91.78 22.68 91.82 23.67L91.64 23.50L91.81 23.67Q91.86 25.62 93.12 26.95L93.09 26.92L92.94 26.77Q94.22 28.13 96.13 27.98L96.14 27.99L96.13 27.99Q98.31 27.95 99.07 27.04L99.09 27.06L98.96 26.93Q100.11 26.11 100.38 23.86L100.26 23.74L100.32 23.79Q100.53 21.49 99.27 20.66L99.34 20.72L99.37 20.75Q98.48 19.94 95.82 19.64ZM101.86 28.88L101.77 28.79L100.50 31.10L100.55 31.15Q97.86 35.96 94.09 40.03L94.00 39.94L94.16 40.10Q92.40 40.13 89.70 40.93L89.72 40.95L89.69 40.92Q95.10 34.72 98.26 29.92L98.29 29.96L98.29 29.96Q97.25 30.59 95.62 30.67L95.57 30.63L95.63 30.68Q92.65 30.86 91.13 28.88L90.99 28.75L91.03 28.78Q89.80 27.17 88.70 22.60L88.64 22.55L88.67 22.58Q88.66 22.12 88.51 21.18L88.61 21.28L88.52 21.19Q88.46 20.36 88.46 19.90L88.37 19.80L88.52 19.96Q88.39 18.03 89.46 17.43L89.59 17.56L89.42 17.39Q90.72 16.71 92.58 16.71L92.54 16.66L92.63 16.76Q95.74 16.67 95.74 16.67L95.74 16.67L95.85 16.77Q97.89 16.68 99.14 16.87L99.22 16.95L99.28 17.01Q101.35 17.22 102.27 17.71L102.26 17.70L102.24 17.69Q103.56 18.40 103.75 20.15L103.82 20.21L103.84 20.23Q103.79 20.42 103.60 23.08L103.52 23.00L103.61 23.09Q103.19 25.18 102.96 26.02L102.92 25.97L103.03 26.09Q102.53 27.38 101.77 28.79ZM103.67 31.19L103.83 31.35L103.72 31.24Q104.75 29.07 105.29 24.77L105.21 24.69L105.29 24.77Q105.52 22.53 105.48 21.65L105.61 21.77L105.44 21.61Q105.53 19.87 104.35 18.96L104.33 18.94L104.03 18.83L103.94 18.74Q103.69 17.99 102.77 17.34L102.91 17.48L102.81 17.38Q100.59 16.46 95.80 16.31L95.77 16.28L95.83 16.34Q94.78 16.24 92.34 16.24L92.31 16.20L92.33 16.23Q90.54 16.19 89.06 16.87L89.11 16.93L89.20 17.02Q88.00 17.76 88.08 19.59L88.14 19.65L88.07 19.58Q88.33 20.57 88.52 22.59L88.50 22.57L88.46 22.53Q88.99 25.07 89.26 25.91L89.22 25.87L89.28 25.93Q89.88 27.82 90.83 29.12L90.73 29.01L90.77 29.05Q91.16 29.52 91.54 29.90L91.46 29.82L91.38 29.74Q91.70 30.25 92.34 31.16L92.40 31.22L92.33 31.15Q93.88 32.59 95.83 32.78L95.74 32.69L95.89 32.85Q93.89 35.41 92.33 37.32L92.32 37.31L88.71 41.69L88.80 41.78Q90.98 40.96 92.62 40.61L92.58 40.58L92.67 40.66Q91.82 41.45 90.25 43.16L90.36 43.27L90.35 43.26Q93.44 42.35 96.57 42.31L96.53 42.28L96.44 42.18Q98.78 39.62 103.12 32.38L103.25 32.51L103.24 32.58L103.06 32.40Q103.42 31.77 103.76 31.27ZM97.83 22.11L97.81 22.08L97.83 22.11Q98.36 21.91 98.81 22.03L98.91 22.12L98.73 21.94Q99.54 22.21 99.92 22.33L99.81 22.23L99.80 22.22Q100.01 22.69 100.09 23.11L99.96 22.98L100.03 23.05Q100.17 23.53 100.05 23.91L100.07 23.93L99.91 23.76Q99.90 25.51 98.72 26.61L98.81 26.71L98.68 26.58Q97.81 27.68 96.17 27.64L96.16 27.63L96.23 27.70Q95.72 27.61 94.20 27.31L94.17 27.28L94.27 27.38Q94.02 26.48 94.02 25.76L94.00 25.74L93.98 25.72Q94.00 25.55 94.00 25.32L94.02 25.34L93.85 25.17Q93.86 22.98 96.15 22.18L96.25 22.28L96.31 22.34Q97.01 22.13 97.85 22.13Z"/><path fill="#444" d="M25.97 30.81L25.96 30.80L26.12 30.96Q26.13 29.45 25.31 28.54L25.39 28.62L25.25 28.48Q24.46 27.59 23.01 27.63L23.01 27.63L23.13 27.74Q20.67 27.68 19.83 29.82L19.97 29.95L19.87 29.85Q19.68 30.73 19.65 31.42L19.49 31.27L19.55 31.32Q19.38 36.22 18.47 40.56L18.48 40.57L18.40 40.49Q16.76 41.06 14.89 42.05L14.89 42.05L14.84 41.99Q17.13 35.03 16.86 27.72L16.88 27.74L17.00 27.86Q16.60 20.38 14.05 13.56L14.02 13.53L14.06 13.58Q15.80 14.86 17.82 15.54L17.86 15.59L17.80 15.53Q19.37 21.44 19.56 27.30L19.59 27.33L19.47 27.21Q20.98 25.25 23.68 25.33L23.68 25.32L23.63 25.28Q28.65 25.30 28.76 30.67L28.80 30.71L28.85 30.76Q29.03 36.50 30.40 41.15L30.32 41.07L30.41 41.15Q28.51 40.28 26.76 40.09L26.67 40.00L26.76 40.09Q26.14 36.74 26.03 30.87ZM26.28 40.26L26.41 40.40L26.27 40.25Q27.46 40.53 28.56 40.79L28.43 40.66L28.50 40.73Q28.57 40.92 29.11 42.90L29.14 42.93L29.04 42.83Q32.12 43.89 34.13 45.34L34.00 45.20L34.10 45.30Q31.30 39.41 30.76 33.09L30.84 33.17L30.81 33.14Q30.55 29.49 29.14 27.93L29.06 27.85L29.17 27.96Q29.09 27.81 28.44 27.35L28.38 27.28L28.40 27.31Q28.25 26.89 27.60 26.13L27.48 26.01L27.63 26.08L27.62 26.06Q26.81 25.26 23.69 25.00L23.64 24.94L23.56 24.86Q22.90 24.93 21.49 25.27L21.41 25.19L21.55 25.33Q21.27 20.40 20.93 17.89L20.99 17.96L21.01 17.97Q20.24 17.85 18.75 17.54L18.66 17.45L18.71 17.50Q18.46 16.68 18.20 15.20L18.31 15.31L18.32 15.33Q15.28 14.26 13.41 12.70L13.43 12.72L13.36 12.64Q16.42 19.89 16.69 27.70L16.59 27.61L16.57 27.58Q16.96 35.47 14.41 42.82L14.32 42.73L14.27 42.68Q15.33 42.22 16.48 41.73L16.44 41.69L15.66 43.91L15.66 43.91Q18.74 42.54 20.72 42.35L20.83 42.47L20.81 42.45Q21.40 37.06 21.60 33.10L21.53 33.04L21.52 33.03Q21.73 31.29 23.67 30.19L23.66 30.18L23.67 30.19Q24.04 29.80 24.57 29.83L24.59 29.85L24.70 29.96Q24.74 29.85 25.09 29.89L25.06 29.86L25.61 30.07L25.56 30.03Q25.67 30.52 25.79 30.97L25.66 30.84L25.69 30.88Q25.80 36.85 26.29 40.27Z"/><path fill="#333" d="M117.76 29.56L117.94 29.73L117.92 29.71Q117.92 33.98 117.20 38.13L117.20 38.13L117.09 38.02Q119.45 37.56 122.54 37.45L122.47 37.39L122.42 37.34Q123.73 37.51 124.80 36.50L124.92 36.62L124.90 36.60Q125.84 35.47 125.84 34.13L126.02 34.31L125.97 34.26Q125.98 33.96 125.94 33.70L125.93 33.69L125.83 33.58Q125.73 30.71 123.49 29.87L123.50 29.89L123.55 29.94Q122.69 29.53 122.00 29.61L122.02 29.62L121.94 29.55Q120.90 29.49 119.87 29.53L119.87 29.54L119.85 29.51Q118.82 29.58 117.79 29.58ZM116.58 19.16L116.66 19.24L116.64 19.22Q117.53 22.54 117.79 26.92L117.86 26.99L117.84 26.97Q119.29 27.09 121.96 27.13L121.86 27.03L121.95 27.12Q124.79 27.07 125.14 23.53L125.21 23.61L125.13 23.52Q125.41 21.67 124.00 20.83L123.89 20.73L123.89 20.73Q123.03 20.24 118.62 19.60L118.65 19.63L118.67 19.65Q117.45 19.35 116.54 19.12ZM112.88 42.00L112.88 42.00L112.89 42.00Q115.46 35.44 115.20 28.06L115.18 28.04L115.24 28.10Q114.98 20.83 112.05 14.36L111.86 14.17L112.00 14.31Q115.70 16.76 121.92 17.00L122.06 17.14L121.97 17.05Q128.25 17.36 128.60 20.25L128.54 20.20L128.60 20.25Q128.83 22.92 127.42 25.58L127.49 25.66L127.39 25.55Q126.64 27.05 125.04 27.74L125.04 27.73L125.14 27.84Q128.85 28.57 129.08 33.94L129.08 33.94L129.07 33.93Q129.07 34.96 128.99 36.37L129.04 36.42L129.03 36.41Q129.06 37.81 128.13 38.74L128.00 38.61L128.06 38.67Q127.10 39.58 125.77 39.73L125.69 39.65L125.85 39.82Q124.25 39.77 123.18 39.77L123.27 39.86L123.17 39.76Q117.50 39.80 112.97 42.08ZM125.80 42.43L125.80 42.43L125.77 42.40Q126.73 42.48 128.60 42.60L128.58 42.58L128.56 42.56Q129.95 42.58 131.06 41.71L131.13 41.79L131.05 41.70Q131.81 40.75 131.70 39.19L131.88 39.37L131.75 39.25Q131.66 38.27 130.93 34.81L130.94 34.81L131.06 34.93Q130.33 31.65 128.46 30.17L128.53 30.23L128.11 29.40L128.03 29.32Q129.66 27.86 130.23 24.09L130.24 24.10L130.34 24.20Q130.44 23.01 130.36 21.60L130.28 21.51L130.27 21.50Q130.26 20.24 129.16 19.40L129.29 19.54L129.27 19.52Q128.94 19.30 128.83 19.27L128.70 19.13L128.65 19.08Q128.47 18.64 127.63 17.84L127.61 17.82L127.64 17.85Q126.06 16.72 121.83 16.53L121.99 16.69L122.02 16.72Q115.28 16.34 111.29 13.45L111.33 13.49L111.25 13.42Q114.62 20.51 114.92 28.05L114.82 27.94L114.85 27.98Q115.18 35.81 112.36 42.73L112.34 42.71L114.38 41.74L114.50 41.87Q114.08 42.97 113.59 44.11L113.68 44.20L113.64 44.16Q117.92 42.27 122.94 42.27L122.90 42.23L122.84 42.17Q124.29 42.21 125.73 42.36ZM123.63 31.85L123.62 31.84L123.55 31.77Q124.38 31.80 125.29 32.25L125.22 32.18L125.24 32.20Q125.34 32.53 125.49 33.59L125.59 33.69L125.52 33.62Q125.74 35.02 124.80 36.06L124.88 36.14L124.90 36.16Q123.88 37.12 122.47 37.00L122.43 36.96L120.88 37.01L121.06 37.19Q120.30 37.23 119.58 37.35L119.41 37.18L119.56 37.33Q119.71 35.35 119.79 31.89L119.90 32.00L119.85 31.95Q120.58 31.95 121.83 31.91L121.86 31.94L121.74 31.82Q122.95 31.74 123.56 31.78ZM122.66 22.31L122.54 22.19L123.02 22.28L123.07 22.34Q123.30 22.34 123.49 22.38L123.32 22.21L123.81 22.32L124.07 22.39L124.67 22.45L124.71 22.49Q124.74 22.68 124.74 22.98L124.91 23.15L124.79 23.56L124.80 23.57Q124.87 24.90 123.99 25.83L123.88 25.71L124.04 25.87Q123.16 26.80 121.94 26.80L121.77 26.63L121.77 26.63Q120.90 26.79 120.90 26.79L120.75 26.64L120.76 26.66Q119.48 26.67 119.83 26.67L119.81 26.65L119.80 26.65Q119.81 25.17 119.50 22.12L119.41 22.03L119.50 22.12Q121.01 22.19 122.54 22.19Z"/></svg>