<svg xmlns="http://www.w3.org/2000/svg" width="150" height="50" viewBox="0,0,150,50"><path fill="#444" d="M112.23 38.94L112.17 38.89L112.17 38.89Q114.09 36.54 118.85 29.27L118.94 29.36L118.92 29.34Q122.83 23.02 125.69 19.74L125.69 19.75L125.71 19.76Q123.75 20.21 121.66 20.21L121.65 20.20L121.64 20.18Q116.41 20.21 112.41 18.42L112.24 18.25L112.34 18.35Q111.72 16.47 111.03 14.91L110.95 14.83L110.95 14.83Q115.62 17.09 121.29 17.21L121.26 17.18L121.26 17.18Q126.26 17.12 131.44 15.21L131.48 15.25L131.45 15.22Q131.20 16.20 130.90 16.99L130.91 17.00L130.30 18.56L130.21 18.48Q127.16 22.13 123.16 27.95L123.16 27.95L119.80 32.74L119.86 32.79Q118.12 35.17 116.30 37.46L116.38 37.53L116.37 37.53Q119.73 36.97 123.04 37.04L122.99 36.99L123.03 37.03Q126.27 37.04 129.43 37.95L129.44 37.96L130.06 39.69L130.09 39.71Q130.18 40.37 130.52 41.21L130.62 41.31L130.59 41.28Q125.85 39.63 120.72 39.82L120.77 39.88L120.69 39.79Q115.55 39.98 111.05 42.00L111.14 42.08L111.17 42.11Q111.62 41.12 112.35 39.06ZM110.51 42.74L110.46 42.70L110.56 42.80Q111.82 42.23 112.62 41.97L112.64 41.98L112.58 41.92Q112.30 42.67 111.61 44.19L111.67 44.25L111.56 44.14Q117.40 42.13 123.37 42.36L123.31 42.30L123.27 42.26Q129.67 42.57 134.69 45.35L134.71 45.36L134.65 45.30Q133.23 42.90 132.44 40.73L132.33 40.62L132.34 40.63Q132.03 40.58 130.50 40.01L130.35 39.86L130.42 39.93Q130.27 39.21 129.85 37.72L129.79 37.67L129.71 37.58Q125.67 36.51 120.57 36.70L120.45 36.59L120.52 36.66Q122.77 34.03 126.31 28.47L126.24 28.40L126.17 28.33Q129.84 22.64 131.74 20.09L131.87 20.21L131.82 20.16Q132.26 18.70 133.29 16.00L133.29 16.00L133.34 16.05Q132.58 16.31 131.13 16.92L131.23 17.02L131.22 17.01Q131.61 16.26 132.33 14.74L132.23 14.64L132.30 14.70Q126.88 16.74 121.17 16.67L121.21 16.70L121.12 16.62Q115.25 16.61 110.30 14.10L110.27 14.07L110.33 14.13Q111.46 16.48 112.18 18.72L112.10 18.64L112.21 18.75Q113.21 19.18 114.01 19.41L114.03 19.42L114.12 19.52Q114.25 20.07 114.52 21.52L114.54 21.54L114.48 21.48Q118.26 22.60 123.14 22.40L123.26 22.53L123.15 22.42Q120.72 25.58 117.41 30.57L117.44 30.60L111.88 38.90L112.02 39.04Q111.53 40.19 110.50 42.74Z"/><path fill="#333" d="M93.16 40.43L93.07 40.34L93.11 40.38Q88.95 40.52 87.96 38.20L88.07 38.31L88.05 38.29Q88.80 37.32 90.36 35.53L90.42 35.60L90.28 35.46Q90.96 37.66 93.97 37.78L93.89 37.70L93.80 37.60Q97.23 37.73 98.87 36.40L98.87 36.39L98.98 36.50Q100.39 34.91 100.31 32.20L100.24 32.13L100.29 32.18Q100.09 27.07 95.30 27.30L95.27 27.27L95.33 27.34Q92.48 27.46 90.73 28.72L90.68 28.66L90.37 28.50L90.25 28.46L90.11 28.32Q90.49 25.20 90.38 22.46L90.41 22.49L90.49 22.57Q90.37 19.94 90.03 16.63L89.98 16.58L90.01 16.61Q93.60 17.49 97.40 17.38L97.32 17.29L97.41 17.38Q101.12 17.21 104.70 15.96L104.74 16.00L104.32 17.67L104.15 17.50Q103.90 18.31 103.71 19.15L103.68 19.12L103.64 19.09Q100.55 20.15 96.67 20.15L96.65 20.13L96.66 20.14Q95.24 20.17 93.76 20.02L93.77 20.02L93.83 20.09Q93.67 20.68 93.32 25.14L93.34 25.15L93.44 25.25Q94.19 24.71 96.25 24.56L96.36 24.67L96.34 24.65Q100.06 24.87 101.50 26.54L101.39 26.43L101.42 26.45Q102.83 28.02 103.09 31.86L103.12 31.89L103.15 31.92Q103.41 36.10 102.20 38.12L102.22 38.15L102.09 38.02Q100.02 39.87 96.71 40.10L96.81 40.19L96.72 40.11Q95.72 40.18 93.06 40.33ZM99.08 42.58L99.16 42.66L99.19 42.69Q102.51 42.66 104.41 41.56L104.52 41.66L104.41 41.55Q105.45 40.08 105.45 37.99L105.52 38.05L105.57 38.11Q105.55 35.00 104.59 30.89L104.59 30.89L104.62 30.91Q104.15 29.07 102.93 27.66L103.01 27.75L102.99 27.76L102.75 27.45L102.35 27.20L102.45 27.30Q102.11 26.54 101.47 25.86L101.38 25.78L101.39 25.82L101.38 25.81Q99.90 24.18 96.21 24.18L96.23 24.20L95.99 24.22L95.99 24.23Q96.03 23.62 96.22 22.51L96.17 22.46L96.15 22.44Q101.16 22.58 105.20 20.95L105.29 21.04L105.19 20.94Q105.63 19.56 106.59 16.74L106.71 16.87L104.52 17.72L104.62 17.82Q104.91 16.59 105.41 15.45L105.41 15.45L105.42 15.46Q101.58 16.91 97.47 16.99L97.53 17.05L97.41 16.93Q93.28 17.03 89.32 15.92L89.44 16.04L89.35 15.95Q90.14 20.47 90.14 24.88L90.02 24.77L90.13 24.87Q90.14 26.79 90.03 28.70L89.96 28.63L89.90 28.56Q90.23 28.82 90.80 29.13L90.77 29.09L90.82 29.15Q91.05 28.80 91.70 28.46L91.84 28.60L91.69 28.45Q91.75 29.32 91.53 30.84L91.44 30.76L91.49 30.80Q91.97 31.06 92.39 31.28L92.32 31.22L92.41 31.31Q95.16 29.53 97.03 29.53L97.07 29.57L96.97 29.47Q98.31 29.48 99.49 30.12L99.57 30.20L99.52 30.16Q99.82 31.14 99.86 32.09L99.91 32.14L99.97 32.20Q99.89 34.64 98.86 35.74L99.00 35.88L98.90 35.77Q97.56 37.03 95.32 37.26L95.33 37.27L95.29 37.23Q94.41 37.38 93.73 37.31L93.74 37.32L93.65 37.22Q92.86 37.16 92.10 36.82L92.01 36.73L92.02 36.55L91.93 36.69L91.90 36.66Q91.17 36.24 90.64 34.90L90.62 34.88L90.53 34.80Q89.28 36.28 87.60 38.41L87.56 38.37L87.55 38.36Q87.89 39.04 88.73 40.00L88.71 39.98L88.74 40.01Q89.72 41.75 92.54 42.25L92.63 42.33L92.54 42.25Q93.72 42.47 99.08 42.59Z"/><path fill="#222" d="M68.28 30.62L68.22 30.56L68.37 30.72Q68.26 30.61 71.65 30.57L71.60 30.52L71.70 30.61Q73.93 30.56 75.00 30.60L75.07 30.68L75.03 30.64Q73.90 27.68 71.46 22.04L71.54 22.12L71.62 22.21Q70.93 23.49 69.89 26.35L69.91 26.37L69.97 26.43Q68.95 29.31 68.38 30.72ZM76.09 33.07L76.20 33.17L76.16 33.13Q73.78 33.00 71.57 33.04L71.60 33.07L71.57 33.04Q69.44 33.19 67.15 33.38L67.10 33.33L67.12 33.35Q65.55 36.72 62.31 40.91L62.43 41.03L62.40 41.00Q59.75 41.55 58.38 42.04L58.37 42.04L58.46 42.13Q63.54 36.43 68.22 23.07L68.14 22.98L68.28 23.12Q69.47 19.63 70.84 16.39L70.84 16.40L70.89 16.45Q71.23 16.48 71.57 16.48L71.54 16.45L72.17 16.36L72.12 16.30Q72.95 17.75 77.79 29.40L77.79 29.40L77.76 29.37Q81.13 37.31 85.13 41.46L85.10 41.43L85.04 41.37Q84.64 41.35 80.75 40.47L80.75 40.47L80.70 40.41Q78.20 37.35 76.22 33.20ZM80.65 40.79L80.54 40.67L81.08 40.72L81.18 40.82Q81.47 40.89 81.78 41.00L81.68 40.90L81.67 40.89Q82.07 41.34 83.90 43.35L83.93 43.38L83.80 43.25Q87.42 44.13 89.82 45.16L89.95 45.29L89.88 45.22Q84.40 40.69 80.40 32.70L80.45 32.75L80.38 32.67Q78.77 29.39 77.32 25.43L77.38 25.48L74.70 18.05L74.58 17.92Q74.39 18.08 74.17 18.08L74.18 18.10L73.66 18.11L73.49 17.94Q73.16 17.31 72.44 15.94L72.50 16.00L72.48 15.98Q71.89 15.92 71.43 15.89L71.48 15.93L71.60 16.06Q70.97 15.85 70.44 15.85L70.58 15.98L70.51 15.91Q69.16 19.90 65.28 30.06L65.25 30.03L65.19 29.97Q62.12 37.98 57.47 42.77L57.52 42.82L57.48 42.78Q58.42 42.27 60.44 41.66L60.61 41.84L60.58 41.80Q59.66 42.53 58.10 44.32L58.21 44.43L58.27 44.48Q59.84 43.69 63.76 42.93L63.89 43.06L63.82 42.99Q67.23 38.64 68.79 35.40L68.88 35.49L68.88 35.49Q70.53 35.27 72.85 35.31L72.93 35.39L72.94 35.39Q75.57 35.32 76.94 35.40L76.90 35.36L76.87 35.33Q78.21 37.77 80.57 40.71ZM72.78 25.95L72.93 26.10L72.87 26.04Q73.68 28.07 74.44 30.16L74.53 30.25L71.23 30.27L71.13 30.16Q71.75 28.76 72.81 25.98Z"/><path fill="#333" d="M48.87 32.17L39.65 22.18L39.69 22.22Q40.45 25.84 40.45 29.57L40.51 29.64L40.43 29.55Q40.51 35.61 38.46 41.17L38.37 41.09L38.36 41.08Q37.28 41.33 35.04 42.09L35.02 42.07L35.13 42.18Q37.80 36.25 37.80 29.55L37.94 29.69L37.88 29.63Q37.82 20.93 33.33 13.50L33.38 13.56L33.48 13.66Q33.87 13.78 34.56 14.20L34.45 14.09L34.46 14.10Q46.62 25.39 54.46 34.64L54.36 34.54L54.36 34.53Q54.06 32.10 54.06 29.67L54.07 29.67L54.18 29.79Q54.14 22.52 56.65 16.31L56.58 16.24L56.70 16.36Q58.93 15.73 60.53 15.04L60.67 15.19L60.50 15.02Q57.33 21.32 57.02 28.48L56.94 28.40L57.01 28.47Q56.69 35.80 59.66 41.97L59.67 41.98L59.69 42.00Q58.99 41.80 58.58 41.61L58.68 41.71L58.71 41.74Q54.11 37.75 48.89 32.19L48.91 32.21ZM62.23 45.11L62.22 45.10L62.25 45.13Q62.68 45.26 63.10 45.45L63.05 45.40L64.00 45.86L63.96 45.82Q58.83 38.90 58.83 29.53L58.89 29.59L58.86 29.56Q58.86 22.33 62.18 16.09L62.07 15.98L62.11 16.02Q61.46 16.25 60.05 16.86L60.06 16.87L60.14 16.95Q60.56 16.15 61.40 14.58L61.22 14.41L61.38 14.57Q58.85 15.39 56.41 15.96L56.47 16.02L56.47 16.01Q53.80 22.44 53.80 29.86L53.80 29.87L53.82 29.88Q53.69 31.62 53.88 33.60L53.88 33.60L54.01 33.73Q49.26 27.95 44.50 23.35L44.63 23.47L34.57 13.79L34.42 13.64Q33.86 13.36 32.65 12.79L32.72 12.86L32.64 12.78Q37.63 20.62 37.63 29.72L37.64 29.74L37.51 29.60Q37.46 36.68 34.38 42.69L34.46 42.77L34.47 42.78Q34.85 42.74 36.49 42.13L36.45 42.10L36.51 42.15Q36.18 42.93 35.35 44.42L35.25 44.32L35.34 44.41Q36.53 43.73 39.99 42.93L40.07 43.01L40.15 43.09Q42.43 36.92 42.43 29.72L42.32 29.62L42.44 29.74Q42.47 27.67 42.24 25.54L42.13 25.43L42.18 25.48Q53.64 38.27 62.25 45.13Z"/><path fill="#444" d="M15.12 41.17L15.02 41.07L14.96 41.01Q18.19 36.81 24.89 28.89L24.97 28.97L25.00 29.01Q19.01 29.15 15.24 27.78L15.17 27.70L15.20 27.74Q14.65 26.43 13.89 25.02L13.85 24.97L13.89 25.02Q17.90 26.44 22.36 26.48L22.35 26.47L22.38 26.50Q26.73 26.43 30.91 25.37L31.05 25.50L31.04 25.49Q30.66 26.18 30.39 26.71L30.40 26.72L30.29 26.60Q27.77 28.85 24.95 32.46L25.04 32.54L20.02 38.64L20.01 38.63Q22.30 38.49 24.55 38.57L24.55 38.57L24.48 38.50Q26.78 38.67 29.03 39.05L29.00 39.02L29.05 39.07Q29.16 39.64 29.88 41.65L29.92 41.69L29.77 41.54Q26.17 40.83 22.17 40.95L22.15 40.93L22.22 40.99Q18.21 41.06 14.56 42.24L14.48 42.17L14.52 42.20Q14.66 42.12 15.12 41.17ZM13.99 42.85L13.99 42.85L13.93 42.80Q14.84 42.61 16.44 42.19L16.27 42.02L16.28 42.02Q16.10 42.30 15.68 42.72L15.60 42.64L15.73 42.77Q15.43 43.27 14.82 44.41L14.82 44.41L14.74 44.33Q19.60 43.14 24.59 43.29L24.63 43.33L24.61 43.31Q29.40 43.31 33.97 45.18L34.02 45.22L34.12 45.32Q32.61 43.39 31.69 41.33L31.69 41.34L31.63 41.27Q31.02 41.11 29.95 40.89L29.94 40.88L29.76 40.70Q29.62 40.02 29.24 38.58L29.20 38.53L29.20 38.54Q27.72 38.27 24.14 38.16L24.27 38.28L24.15 38.17Q26.61 34.92 31.64 28.56L31.56 28.48L31.56 28.49Q31.90 27.84 32.59 26.50L32.47 26.39L30.33 27.29L30.27 27.24Q30.40 27.21 30.55 27.10L30.53 27.08L30.75 26.91L30.71 26.88Q31.09 25.74 31.66 24.78L31.63 24.75L31.76 24.88Q27.05 26.19 22.33 26.11L22.32 26.10L22.34 26.12Q17.51 26.01 13.01 24.18L13.11 24.28L13.07 24.23Q14.27 26.12 15.07 28.18L15.00 28.10L15.02 28.12Q15.87 28.44 16.94 28.71L16.95 28.72L16.87 28.64Q17.16 29.43 17.47 30.88L17.42 30.83L17.48 30.89Q18.92 31.00 22.23 31.15L22.27 31.19L22.38 31.30Q19.83 34.46 14.65 40.89L14.82 41.06L14.82 41.06Q14.51 41.59 13.94 42.80Z"/></svg>