<svg xmlns="http://www.w3.org/2000/svg" width="150" height="50" viewBox="0,0,150,50"><path fill="#222" d="M92.63 33.32L92.67 33.35L92.53 33.21Q92.44 36.09 91.26 40.74L91.29 40.77L91.33 40.81Q89.43 41.24 87.84 42.04L87.83 42.03L87.83 42.03Q90.50 35.07 90.23 27.64L90.24 27.65L90.20 27.62Q89.87 20.16 86.78 13.42L86.92 13.56L86.81 13.44Q88.80 14.76 90.67 15.33L90.78 15.44L90.62 15.28Q92.90 22.39 92.90 29.06L92.81 28.97L92.78 28.94Q92.91 30.51 92.83 32.00L92.75 31.91L92.67 31.83Q93.89 30.69 99.11 25.74L99.12 25.75L99.07 25.71Q100.29 25.83 101.28 25.75L101.23 25.70L103.37 25.59L103.22 25.45Q100.14 28.53 95.84 32.30L95.87 32.33L95.92 32.38Q99.13 34.98 105.60 40.81L105.67 40.87L105.70 40.90Q102.89 39.92 99.92 39.73L99.91 39.72L99.98 39.79Q97.39 37.62 92.52 33.20ZM102.43 42.39L102.42 42.39L102.47 42.43Q107.25 43.33 110.37 45.27L110.37 45.27L110.29 45.19Q109.20 43.98 106.57 41.58L106.56 41.58L106.47 41.49Q106.81 41.67 107.08 41.79L107.03 41.73L107.13 41.83Q104.95 39.73 102.70 37.83L102.65 37.78L98.20 33.86L98.27 33.93Q103.24 29.72 105.67 26.83L105.69 26.84L105.63 26.78Q104.40 26.85 101.93 27.12L101.93 27.12L101.99 27.18Q103.65 25.80 104.33 24.96L104.34 24.97L104.35 24.97Q101.52 25.41 99.04 25.41L99.09 25.46L98.94 25.31Q97.53 26.61 94.79 29.27L94.77 29.25L94.85 29.33Q94.94 23.63 93.95 17.81L93.86 17.72L93.88 17.74Q93.21 17.60 91.72 17.33L91.65 17.26L91.62 17.23Q91.43 16.47 90.97 14.98L90.98 14.99L90.99 15.00Q88.35 14.19 86.10 12.62L86.11 12.64L86.09 12.61Q89.69 19.60 90.03 27.71L89.86 27.54L89.93 27.60Q90.31 35.56 87.30 42.79L87.29 42.79L87.33 42.83Q88.00 42.50 89.33 41.86L89.25 41.78L89.37 41.90Q89.10 42.69 88.46 44.14L88.46 44.15L88.35 44.04Q91.34 43.11 93.47 42.72L93.43 42.68L93.33 42.58Q94.02 40.19 94.52 35.93L94.47 35.88L94.36 35.77Q96.99 38.06 102.44 42.40Z"/><path fill="#444" d="M19.69 26.84L19.67 26.82L19.77 26.92Q21.47 26.98 23.30 26.98L23.31 26.99L23.31 27.00Q25.15 27.04 26.98 26.89L26.95 26.86L26.86 26.78Q26.76 27.44 26.76 28.16L26.88 28.28L26.90 29.63L26.77 29.51Q24.45 29.54 19.69 29.66L19.70 29.67L19.62 29.58Q19.58 35.48 18.44 40.47L18.46 40.49L18.53 40.56Q16.33 41.26 14.84 42.05L14.90 42.11L14.92 42.13Q17.11 35.18 16.84 28.06L16.99 28.21L16.96 28.18Q16.66 20.99 13.99 14.33L13.90 14.24L13.99 14.33Q17.69 16.89 22.45 17.11L22.34 17.00L22.48 17.14Q27.01 17.18 31.16 15.43L31.31 15.58L31.23 15.50Q31.01 16.38 30.78 17.18L30.64 17.04L30.17 18.67L30.29 18.79Q27.50 19.80 24.53 19.95L24.55 19.97L24.59 20.01Q21.58 20.09 18.73 19.36L18.80 19.43L18.87 19.50Q19.43 22.77 19.62 26.77ZM31.95 14.88L31.79 14.73L31.78 14.72Q27.31 16.98 22.43 16.68L22.38 16.62L22.44 16.68Q16.99 16.26 13.26 13.40L13.38 13.52L13.35 13.50Q16.19 20.41 16.49 28.02L16.45 27.98L16.56 28.09Q16.77 35.91 14.26 42.69L14.44 42.87L14.39 42.82Q14.98 42.35 16.35 41.70L16.36 41.71L16.31 41.65Q16.17 42.46 15.60 43.99L15.58 43.97L15.53 43.92Q17.99 42.99 20.88 42.49L20.85 42.46L20.81 42.43Q21.51 37.64 21.70 31.93L21.58 31.81L21.57 31.80Q23.37 31.78 25.20 31.78L25.26 31.84L25.23 31.80Q26.96 31.75 28.79 31.94L28.95 32.10L28.87 32.02Q28.81 31.13 28.81 30.21L28.74 30.14L28.79 28.28L28.83 28.32Q28.07 28.44 27.23 28.44L27.20 28.41L27.10 28.31Q27.11 27.44 27.18 26.41L27.31 26.54L27.17 26.40Q25.93 26.72 24.52 26.72L24.42 26.62L24.49 26.69Q23.05 26.66 21.68 26.62L21.67 26.61L21.65 24.46L21.53 24.34Q21.52 23.26 21.40 22.19L21.53 22.32L21.36 22.15Q22.48 22.36 23.47 22.36L23.49 22.38L23.49 22.37Q28.26 22.39 31.88 20.49L31.83 20.44L31.87 20.48Q32.36 18.65 33.28 16.02L33.21 15.96L33.14 15.89Q31.87 16.75 31.07 17.09L31.19 17.21L31.18 17.20Q31.29 16.28 31.79 14.72Z"/><path fill="#111" d="M112.27 14.26L112.33 14.32L112.32 14.31Q116.04 16.77 120.80 17.00L120.79 16.99L120.86 17.06Q125.51 17.26 129.78 15.51L129.68 15.41L129.84 15.58Q129.51 16.05 128.75 18.83L128.69 18.76L128.71 18.78Q126.02 19.86 123.05 20.01L123.13 20.09L123.08 20.05Q120.06 20.14 117.16 19.42L117.16 19.42L117.23 19.48Q117.91 23.10 118.10 26.75L117.96 26.62L118.15 26.80Q120.17 27.04 121.77 27.00L121.76 26.98L121.71 26.94Q122.91 26.92 125.31 26.81L125.29 26.78L125.37 26.86Q125.26 27.44 125.26 28.13L125.22 28.09L125.16 29.36L125.16 29.36Q122.84 29.43 118.04 29.51L118.04 29.51L117.98 29.45Q118.03 33.61 117.46 37.61L117.52 37.67L117.53 37.68Q120.13 37.01 122.87 37.12L122.78 37.03L122.85 37.10Q125.47 37.09 128.05 37.93L128.17 38.04L128.18 38.05Q128.25 38.84 128.52 39.61L128.41 39.50L128.86 41.01L129.04 41.19Q125.77 39.82 122.34 39.82L122.35 39.84L122.24 39.73Q117.39 39.75 113.12 41.99L113.28 42.15L113.14 42.00Q115.56 35.29 115.29 28.17L115.20 28.08L115.26 28.14Q114.94 20.93 112.28 14.27ZM112.61 42.70L112.65 42.73L112.75 42.83Q113.97 42.07 114.73 41.73L114.71 41.71L114.79 41.79Q114.59 42.55 114.02 44.07L113.93 43.98L114.02 44.07Q118.53 42.07 123.59 42.33L123.63 42.37L123.60 42.34Q128.75 42.62 132.75 45.32L132.81 45.39L132.70 45.27Q131.63 42.84 130.95 40.89L130.95 40.90L130.85 40.80Q129.87 40.20 128.88 39.85L128.77 39.75L128.81 39.79Q128.43 38.41 128.28 37.61L128.41 37.75L128.34 37.67Q125.32 36.75 122.16 36.75L122.07 36.67L122.14 36.73Q120.91 36.64 119.77 36.76L119.87 36.86L119.90 36.89Q119.85 35.46 119.88 34.25L119.99 34.36L120.03 31.81L120.10 31.88Q121.89 31.76 123.68 31.80L123.69 31.81L123.65 31.77Q125.55 31.88 127.34 32.03L127.31 32.00L127.17 31.87Q127.28 31.09 127.28 30.14L127.26 30.12L127.24 28.21L126.38 28.22L126.33 28.17Q126.01 28.34 125.55 28.34L125.56 28.35L125.47 28.26Q125.52 27.62 125.67 26.33L125.58 26.24L125.61 26.26Q124.14 26.62 122.96 26.66L122.88 26.58L122.95 26.65Q121.89 26.55 120.07 26.47L120.17 26.58L120.02 26.43Q120.13 25.21 119.94 22.39L119.79 22.24L119.83 22.27Q120.86 22.40 121.85 22.40L121.94 22.48L121.82 22.37Q126.60 22.42 130.29 20.52L130.30 20.53L130.31 20.54Q130.93 18.23 131.81 16.02L131.63 15.85L131.80 16.02Q130.45 16.83 129.61 17.18L129.57 17.13L129.56 17.12Q129.95 16.44 130.41 14.88L130.28 14.76L130.42 14.90Q125.59 16.84 120.71 16.54L120.71 16.53L120.84 16.66Q115.43 16.24 111.59 13.39L111.62 13.42L111.62 13.42Q114.55 20.42 114.85 28.04L114.96 28.14L114.95 28.13Q115.17 35.97 112.66 42.74Z"/><path fill="#222" d="M38.29 14.28L38.23 14.22L38.37 14.36Q42.10 16.83 46.86 17.06L46.81 17.01L46.90 17.10Q51.40 17.15 55.66 15.40L55.77 15.51L55.80 15.54Q55.48 16.02 54.72 18.80L54.74 18.82L54.84 18.91Q51.99 19.84 49.02 19.99L49.14 20.11L48.98 19.94Q45.98 20.07 43.09 19.34L43.15 19.41L43.09 19.35Q43.87 23.06 44.06 26.71L44.07 26.72L44.04 26.69Q46.09 26.95 47.69 26.92L47.68 26.91L47.73 26.96Q48.98 26.98 51.37 26.87L51.28 26.78L51.35 26.85Q51.30 27.48 51.30 28.16L51.31 28.18L51.27 29.47L51.26 29.46Q48.87 29.46 44.07 29.54L44.13 29.60L44.02 29.49Q44.03 33.61 43.45 37.60L43.42 37.57L43.56 37.71Q46.17 37.04 48.91 37.15L48.81 37.06L48.95 37.20Q51.51 37.13 54.10 37.97L54.22 38.09L54.13 38.01Q54.17 38.77 54.44 39.53L54.42 39.51L54.89 41.05L54.99 41.14Q51.74 39.80 48.31 39.80L48.40 39.89L48.23 39.71Q43.40 39.75 39.13 42.00L39.24 42.11L39.18 42.04Q41.60 35.33 41.33 28.21L41.22 28.10L41.25 28.13Q40.93 20.92 38.27 14.26ZM38.72 42.81L38.79 42.88L38.74 42.83Q39.87 41.98 40.64 41.64L40.64 41.64L40.78 41.78Q40.45 42.41 39.88 43.93L39.91 43.96L39.87 43.92Q44.56 42.10 49.62 42.36L49.62 42.36L49.62 42.36Q54.64 42.51 58.64 45.21L58.73 45.30L58.73 45.30Q57.47 42.67 56.78 40.73L56.75 40.70L56.81 40.76Q55.95 40.28 54.96 39.94L54.81 39.79L54.97 39.95Q54.44 38.43 54.29 37.63L54.44 37.77L54.28 37.62Q51.22 36.65 48.06 36.65L48.11 36.70L48.15 36.74Q46.88 36.62 45.74 36.73L45.74 36.73L45.81 36.80Q45.95 35.57 45.99 34.35L45.91 34.27L46.03 31.81L45.95 31.72Q47.96 31.83 49.75 31.87L49.71 31.83L49.71 31.83Q51.48 31.81 53.27 31.96L53.33 32.02L53.37 32.07Q53.27 31.08 53.27 30.13L53.25 30.11L53.17 28.13L52.37 28.21L52.32 28.16Q51.89 28.22 51.43 28.22L51.59 28.38L51.58 28.37Q51.59 27.70 51.75 26.40L51.63 26.29L51.69 26.35Q50.04 26.52 48.86 26.56L48.95 26.65L48.90 26.60Q47.90 26.55 46.07 26.48L46.13 26.54L46.09 26.50Q46.02 25.09 45.82 22.27L45.92 22.37L45.75 22.20Q46.93 22.46 47.92 22.46L47.81 22.35L47.80 22.35Q52.56 22.39 56.26 20.48L56.32 20.55L56.32 20.54Q56.86 18.15 57.73 15.94L57.71 15.92L57.65 15.86Q56.39 16.77 55.55 17.11L55.57 17.13L55.47 17.03Q55.81 16.31 56.27 14.75L56.32 14.80L56.36 14.84Q51.62 16.88 46.75 16.57L46.81 16.64L46.89 16.71Q41.49 16.30 37.65 13.45L37.73 13.53L37.62 13.42Q40.47 20.34 40.77 27.96L40.91 28.09L40.88 28.07Q41.23 36.02 38.71 42.80Z"/><path fill="#444" d="M70.88 29.78L70.74 29.64L70.84 29.74Q66.58 29.48 66.01 32.52L66.04 32.55L65.99 32.50Q65.77 33.54 65.96 34.42L65.96 34.42L66.10 34.55Q65.99 35.21 66.45 36.62L66.51 36.67L66.46 36.63Q67.58 39.84 70.89 39.69L71.02 39.82L71.00 39.80Q73.01 39.87 74.35 38.31L74.30 38.26L74.33 38.29Q75.57 36.83 75.57 34.77L75.57 34.77L75.49 34.70Q75.57 34.05 75.42 32.99L75.50 33.06L75.59 33.16Q75.46 32.19 75.04 31.50L75.09 31.55L74.98 31.44Q73.47 29.89 70.88 29.78ZM75.65 48.18L75.61 48.14L75.64 48.16Q73.80 48.73 65.73 49.11L65.67 49.05L65.81 49.19Q64.15 49.28 62.52 48.44L62.44 48.37L62.36 48.29Q63.35 47.49 65.18 45.70L65.08 45.60L65.14 45.66Q67.61 46.76 69.70 46.57L69.58 46.45L69.58 46.44Q72.60 46.30 73.43 46.04L73.37 45.97L73.37 45.98Q75.65 45.32 75.65 43.54L75.56 43.45L75.67 43.55Q75.61 43.26 75.53 43.03L75.58 43.08L75.38 41.40L75.42 41.43Q75.36 40.62 75.36 39.82L75.33 39.79L75.30 39.76Q73.95 42.02 70.56 42.02L70.57 42.04L70.59 42.06Q66.68 42.02 65.04 39.82L65.05 39.82L65.06 39.83Q64.01 38.37 63.21 33.95L63.14 33.88L63.16 33.90Q62.95 32.47 62.95 31.06L62.91 31.02L62.90 31.01Q62.91 29.23 63.82 28.24L63.76 28.18L63.82 28.24Q65.44 26.78 70.08 26.78L70.08 26.77L71.93 27.06L71.96 27.09Q75.18 27.46 76.51 29.40L76.32 29.21L76.44 29.33Q76.67 28.53 77.09 26.89L77.01 26.81L77.06 26.86Q78.93 26.52 80.68 25.80L80.63 25.75L80.52 25.64Q77.89 31.77 77.89 39.00L77.93 39.04L77.92 39.03Q77.90 41.67 78.28 44.30L78.26 44.28L78.39 44.41Q78.59 45.10 78.52 45.79L78.36 45.63L78.34 45.62Q78.22 47.05 77.00 47.81L77.00 47.82L77.00 47.82Q76.47 48.04 75.63 48.16ZM78.72 51.21L78.70 51.19L78.57 51.06Q80.17 51.25 80.93 50.30L81.00 50.37L80.91 50.28Q81.34 49.41 81.22 48.69L81.13 48.60L81.05 48.52Q81.09 48.03 80.90 47.27L80.81 47.17L80.89 47.25Q79.54 41.91 79.89 36.65L79.93 36.70L79.87 36.64Q80.39 31.37 82.53 26.54L82.41 26.42L80.32 27.38L80.24 27.30Q80.57 26.79 80.80 26.22L80.88 26.30L81.28 25.06L81.20 24.99Q78.88 25.97 76.67 26.39L76.79 26.51L76.78 26.51Q76.35 27.26 76.20 28.29L76.27 28.35L76.19 28.27Q74.13 26.41 70.09 26.41L70.16 26.47L68.26 26.32L68.28 26.34Q65.19 26.49 63.52 27.90L63.39 27.77L63.40 27.78Q62.51 28.80 62.55 30.70L62.48 30.63L62.54 30.69Q62.56 33.15 63.59 37.41L63.65 37.48L63.58 37.41Q64.08 39.35 65.30 40.76L65.43 40.89L65.65 41.11L65.70 41.16L65.73 41.19Q66.83 43.47 69.42 44.00L69.51 44.09L69.36 43.94Q70.89 44.37 72.34 44.41L72.28 44.35L72.37 44.44Q73.97 44.32 75.03 43.94L75.00 43.91L75.06 43.97Q74.55 45.63 71.89 45.98L71.76 45.85L71.78 45.87Q70.72 46.03 70.04 46.03L70.14 46.14L69.77 46.15L69.58 45.96Q66.84 46.03 65.16 45.07L65.11 45.03L63.56 46.90L63.51 46.85Q62.72 47.74 61.89 48.69L61.70 48.51L61.88 48.68Q62.69 49.04 63.68 49.23L63.73 49.27L62.99 50.29L62.93 50.23Q65.56 51.22 71.19 51.22L71.30 51.33L71.41 51.21L71.54 51.33Q75.00 51.19 78.58 51.07ZM72.76 32.08L72.73 32.05L72.70 32.02Q73.97 31.92 74.89 32.34L74.88 32.33L74.87 32.32Q75.12 32.88 75.20 33.57L75.23 33.59L75.24 33.61Q75.30 33.94 75.27 34.85L75.22 34.81L75.17 34.75Q75.15 36.71 74.04 38.01L73.92 37.89L74.03 37.99Q72.85 39.40 70.95 39.37L70.84 39.26L70.85 39.26Q69.50 39.29 68.66 38.87L68.67 38.88L68.68 38.88Q68.28 37.72 68.24 36.69L68.28 36.74L68.26 36.71Q68.19 32.42 72.80 32.11Z"/></svg>