<svg xmlns="http://www.w3.org/2000/svg" width="150" height="50" viewBox="0,0,150,50"><path fill="#333" d="M119.52 28.53L119.64 28.65L119.64 28.66Q116.85 28.68 116.08 30.92L116.11 30.95L115.96 30.79Q115.88 31.67 115.76 32.32L115.72 32.27L115.58 32.13Q118.29 32.45 119.93 32.45L119.82 32.34L119.85 32.37Q121.53 32.41 124.12 32.30L124.19 32.36L124.22 32.40Q124.16 30.73 122.75 29.67L122.70 29.62L122.55 29.47Q121.49 28.71 119.70 28.71ZM119.63 41.13L119.70 41.20L119.63 41.13Q115.51 41.24 114.22 39.83L114.11 39.72L114.24 39.85Q113.14 38.26 112.99 34.98L113.07 35.06L113.06 35.06Q113.13 34.90 113.06 33.53L112.90 33.37L112.90 33.37Q112.74 31.04 112.74 30.32L112.92 30.50L112.83 30.40Q112.85 28.56 113.57 27.46L113.61 27.50L113.52 27.41Q114.95 26.02 117.92 26.02L117.93 26.03L119.44 25.98L119.49 26.03Q121.61 26.10 123.14 26.40L123.01 26.27L123.06 26.32Q125.06 26.72 126.05 27.94L126.01 27.91L126.03 27.92Q126.70 29.06 126.78 31.15L126.76 31.13L126.75 31.12Q126.89 32.40 126.93 34.57L126.77 34.41L126.76 34.40Q124.08 34.62 121.30 34.62L121.12 34.44L115.70 34.61L115.55 34.46Q115.67 38.85 119.75 38.62L119.91 38.79L119.88 38.75Q123.65 38.56 124.87 36.73L124.78 36.65L124.92 36.79Q125.77 37.30 127.37 38.48L127.29 38.40L127.33 38.44Q125.96 40.83 121.81 41.10L121.77 41.06L121.84 41.13Q121.08 41.13 119.70 41.21ZM122.10 43.64L122.08 43.62L122.07 43.60Q122.97 43.37 124.19 43.44L124.35 43.60L124.35 43.60Q129.19 43.65 130.10 40.87L130.28 41.04L130.12 40.89Q128.54 39.69 127.44 38.93L127.54 39.03L127.48 38.97Q127.71 38.63 127.91 38.40L127.81 38.30L127.84 38.34Q127.09 37.86 125.72 36.90L125.65 36.83L125.81 36.99Q126.75 36.91 128.81 37.21L128.90 37.30L128.84 37.24Q128.80 36.02 128.72 35.34L128.63 35.24L128.39 33.22L128.52 33.34Q128.36 30.98 127.71 29.49L127.70 29.48L127.73 29.51Q127.38 29.09 126.81 28.48L126.74 28.40L126.78 28.45Q126.70 28.22 126.47 27.64L126.40 27.57L126.51 27.68Q124.46 25.48 119.39 25.48L119.54 25.63L117.73 25.49L117.76 25.52Q114.64 25.63 113.19 27.11L113.12 27.05L113.20 27.12Q112.50 28.21 112.54 30.27L112.54 30.27L112.50 30.23Q112.54 31.18 112.65 33.43L112.61 33.39L112.70 33.48Q112.71 35.01 112.82 37.06L112.83 37.07L112.83 37.08Q113.08 39.30 113.95 40.36L114.10 40.52L114.06 40.47Q114.18 40.59 114.37 40.70L114.29 40.62L114.71 41.39L114.74 41.42Q115.51 43.26 122.10 43.64ZM119.91 38.36L119.80 38.25L119.91 38.37Q118.60 38.31 117.69 37.86L117.81 37.98L117.70 37.87Q117.72 37.55 117.53 36.86L117.61 36.95L117.55 36.88Q119.23 36.77 120.82 36.77L120.83 36.77L120.90 36.85Q122.47 36.73 124.14 36.85L124.16 36.87L124.22 36.93Q122.92 38.26 119.92 38.37ZM121.50 30.97L121.46 30.93L121.49 30.96Q122.23 31.09 123.56 31.47L123.47 31.38L123.67 31.77L123.72 32.01L123.73 32.02Q122.36 32.13 121.44 32.09L121.32 31.97L121.46 32.11Q119.19 32.09 119.15 32.09L119.08 32.01L118.97 31.91Q119.81 31.07 121.49 30.96Z"/><path fill="#333" d="M81.26 34.71L81.28 34.74L81.34 34.79Q81.22 38.26 78.06 39.55L78.13 39.62L78.19 39.68Q76.21 40.40 71.80 40.56L71.80 40.56L71.80 40.56Q66.94 40.61 64.70 39.43L64.70 39.44L64.81 39.55Q62.96 38.23 63.11 34.88L63.14 34.91L63.02 34.79Q63.18 34.30 63.37 32.32L63.27 32.22L63.28 32.23Q63.33 30.56 63.33 29.57L63.43 29.68L63.35 29.60Q63.36 21.61 59.17 14.19L59.16 14.18L59.30 14.32Q60.31 14.83 63.28 15.90L63.31 15.93L63.39 16.01Q66.18 22.64 66.18 30.03L66.24 30.09L66.24 30.09Q66.16 30.62 66.07 31.80L66.09 31.82L66.18 31.92Q65.99 33.00 65.99 33.61L65.94 33.56L66.00 33.62Q65.97 35.88 67.53 36.87L67.58 36.91L67.59 36.92Q69.29 37.78 72.26 37.78L72.22 37.74L72.23 37.75Q74.82 37.72 76.46 36.54L76.36 36.44L76.36 36.44Q78.29 35.17 78.14 32.66L78.16 32.68L78.08 32.60Q78.13 31.36 78.13 30.02L78.06 29.96L78.09 29.99Q78.13 22.98 80.53 16.47L80.36 16.30L82.60 15.81L82.62 15.82Q83.70 15.65 84.81 15.19L84.80 15.18L84.71 15.09Q81.05 22.29 81.05 29.87L81.00 29.82L80.92 29.73Q80.97 30.62 81.10 32.25L81.03 32.18L81.04 32.19Q81.24 33.89 81.24 34.69ZM83.37 35.57L83.37 35.57L83.39 35.59Q82.52 30.64 83.24 25.54L83.27 25.57L83.30 25.60Q84.03 20.39 86.43 16.01L86.40 15.98L86.33 15.92Q85.79 16.29 84.34 16.94L84.26 16.86L84.32 16.91Q84.75 16.13 85.55 14.57L85.56 14.58L85.52 14.54Q82.00 15.70 80.10 16.04L80.18 16.13L80.19 16.14Q77.72 22.53 77.72 29.80L77.84 29.92L77.78 29.86Q77.84 31.30 77.92 32.71L77.85 32.64L77.92 32.71Q77.94 34.97 76.15 36.19L76.20 36.24L76.14 36.18Q74.70 37.29 72.18 37.33L72.13 37.27L72.23 37.38Q69.51 37.47 68.06 36.71L67.93 36.57L67.92 36.57Q67.91 36.14 67.83 35.68L67.85 35.70L67.90 35.75Q67.68 35.07 67.80 34.58L67.94 34.72L67.84 34.62Q68.18 32.40 68.18 30.08L68.17 30.08L68.16 30.07Q68.15 24.23 66.62 18.33L66.50 18.20L66.63 18.33Q65.79 18.11 64.39 17.76L64.39 17.77L64.49 17.87Q63.99 16.46 63.53 15.54L63.58 15.59L63.52 15.53Q60.87 14.82 58.47 13.45L58.44 13.42L58.48 13.46Q63.04 20.99 63.04 29.71L63.01 29.68L63.19 29.85Q63.03 31.33 62.87 33.04L62.99 33.15L62.89 33.05Q62.72 35.51 62.79 36.69L62.83 36.73L62.85 36.75Q62.89 38.58 64.15 39.72L64.18 39.75L64.12 39.69Q65.22 42.27 69.86 42.65L69.84 42.63L69.78 42.57Q71.87 42.72 74.00 42.80L74.09 42.89L74.04 42.83Q79.38 43.00 82.16 42.05L82.22 42.10L82.30 42.19Q83.71 41.12 83.71 39.06L83.87 39.23L83.80 39.16Q83.82 38.03 83.36 35.56Z"/><path fill="#333" d="M56.56 34.69L56.65 34.78L56.68 34.81Q56.59 38.29 53.43 39.58L53.42 39.57L53.49 39.64Q51.60 40.46 47.18 40.61L47.20 40.63L47.15 40.57Q42.25 40.58 40.00 39.40L40.07 39.47L40.01 39.42Q38.23 38.17 38.38 34.82L38.40 34.83L38.43 34.86Q38.43 34.21 38.62 32.23L38.70 32.32L38.65 32.26Q38.76 30.66 38.76 29.67L38.69 29.60L38.66 29.57Q38.82 21.74 34.63 14.32L34.62 14.30L34.58 14.27Q35.62 14.81 38.59 15.87L38.64 15.93L38.57 15.85Q41.50 22.63 41.50 30.01L41.52 30.03L41.54 30.06Q41.61 30.74 41.52 31.92L41.51 31.91L41.40 31.80Q41.44 33.12 41.44 33.73L41.38 33.66L41.33 33.62Q41.44 36.01 43.00 37.00L42.92 36.92L42.98 36.98Q44.51 37.67 47.48 37.67L47.49 37.68L47.60 37.79Q50.22 37.78 51.85 36.60L51.75 36.50L51.79 36.54Q53.69 35.24 53.54 32.73L53.48 32.66L53.45 32.64Q53.45 31.34 53.45 30.01L53.29 29.86L53.35 29.92Q53.42 22.93 55.81 16.42L55.85 16.46L57.87 15.74L58.04 15.91Q58.95 15.57 60.06 15.11L60.03 15.08L60.03 15.08Q56.36 22.27 56.36 29.84L56.40 29.88L56.40 29.88Q56.40 30.72 56.53 32.35L56.40 32.22L56.38 32.20Q56.60 33.92 56.60 34.72ZM58.77 35.63L58.74 35.61L58.69 35.55Q57.87 30.67 58.60 25.56L58.59 25.56L58.53 25.49Q59.34 20.37 61.74 15.99L61.65 15.90L61.71 15.97Q61.17 16.34 59.73 16.99L59.73 16.99L59.66 16.92Q59.93 15.97 60.73 14.41L60.78 14.46L60.75 14.43Q57.25 15.61 55.34 15.95L55.38 15.99L55.38 15.99Q53.06 22.54 53.06 29.81L53.15 29.90L52.99 29.74Q53.13 31.25 53.21 32.66L53.18 32.63L53.14 32.59Q53.32 35.02 51.53 36.24L51.43 36.14L51.44 36.15Q49.97 37.22 47.45 37.26L47.48 37.28L47.51 37.32Q44.66 37.29 43.21 36.53L43.38 36.70L43.27 36.58Q43.26 36.15 43.18 35.69L43.17 35.69L43.20 35.71Q43.05 35.10 43.16 34.61L43.18 34.63L43.22 34.67Q43.39 32.28 43.39 29.96L43.41 29.98L43.54 30.11Q43.43 24.18 41.91 18.28L41.93 18.30L41.91 18.28Q41.11 18.09 39.70 17.75L39.82 17.87L39.81 17.85Q39.30 16.43 38.84 15.52L39.00 15.68L38.83 15.51Q36.23 14.85 33.83 13.48L33.82 13.46L33.90 13.55Q38.51 21.12 38.51 29.84L38.36 29.69L38.45 29.78Q38.47 31.44 38.32 33.15L38.23 33.07L38.32 33.15Q38.01 35.47 38.08 36.65L38.19 36.76L38.21 36.78Q38.29 38.65 39.55 39.79L39.57 39.81L39.55 39.79Q40.58 42.30 45.22 42.68L45.23 42.69L45.11 42.58Q47.25 42.77 49.38 42.84L49.41 42.88L49.35 42.81Q54.69 42.97 57.47 42.02L57.60 42.15L57.44 41.99Q59.06 41.14 59.06 39.09L59.16 39.18L59.11 39.14Q59.09 37.98 58.64 35.50Z"/><path fill="#222" d="M103.72 37.96L103.65 37.88L103.66 37.89Q103.92 38.84 104.45 40.86L104.58 40.98L104.56 40.97Q100.30 39.60 95.70 39.87L95.77 39.94L95.72 39.89Q91.09 40.09 87.09 42.07L87.07 42.05L87.12 42.10Q87.41 41.48 87.45 41.56L87.39 41.49L87.45 41.55Q91.16 37.57 95.08 33.16L95.11 33.19L95.09 33.17Q99.41 28.08 100.59 23.40L100.70 23.51L100.67 23.49Q101.12 21.73 99.85 20.55L99.85 20.55L99.77 20.47Q98.58 19.37 96.79 19.53L96.80 19.53L96.83 19.57Q96.39 19.43 96.05 19.43L96.12 19.50L96.05 19.43Q94.53 19.43 93.27 20.35L93.23 20.31L93.28 20.36Q91.92 21.66 92.15 24.33L92.20 24.38L92.29 24.47Q90.37 23.99 89.15 23.54L89.13 23.51L89.21 23.60Q88.95 22.11 88.87 20.67L89.03 20.82L88.99 20.78Q88.91 19.15 89.52 18.01L89.42 17.90L89.47 17.95Q91.23 16.56 94.58 16.56L94.69 16.67L96.32 16.54L96.29 16.51Q98.65 16.63 99.60 16.74L99.67 16.81L99.65 16.79Q104.00 17.22 104.27 19.66L104.24 19.63L104.21 19.60Q104.35 20.23 104.27 21.03L104.13 20.89L104.13 20.89Q104.18 21.63 104.03 22.31L104.00 22.28L104.05 22.33Q102.33 30.36 94.76 37.21L94.81 37.27L94.87 37.33Q96.20 37.09 97.57 37.09L97.64 37.17L97.52 37.05Q100.87 37.16 103.72 37.96ZM103.04 17.02L103.13 17.11L103.09 17.07Q101.49 16.42 99.78 16.35L99.73 16.30L96.33 16.14L96.35 16.15Q91.95 15.94 89.74 17.05L89.71 17.01L89.78 17.09Q88.68 18.42 88.68 20.48L88.56 20.35L88.59 20.39Q88.63 21.12 88.94 23.93L88.88 23.88L89.02 24.02Q89.48 24.17 90.66 24.47L90.72 24.53L90.63 25.47L90.71 25.55Q90.68 26.02 90.76 26.55L90.68 26.48L90.83 26.62Q92.06 26.71 94.53 26.94L94.48 26.89L94.39 26.79Q94.52 26.58 94.52 26.24L94.38 26.10L94.35 26.07Q94.42 24.31 95.64 22.96L95.66 22.99L95.57 22.90Q96.76 21.52 98.55 21.63L98.65 21.73L98.65 21.73Q99.48 21.84 100.24 21.99L100.25 22.00L100.18 21.93Q100.32 22.33 100.40 22.75L100.38 22.73L100.43 22.78Q100.47 23.21 100.40 23.55L100.37 23.52L100.38 23.53Q99.14 28.31 94.73 33.15L94.74 33.16L94.60 33.02Q92.60 35.40 87.15 41.45L87.07 41.37L87.03 41.32Q86.92 42.25 86.58 42.82L86.46 42.69L86.57 42.81Q88.20 41.96 89.72 41.43L89.63 41.34L89.73 41.44Q89.04 42.04 88.08 43.52L87.89 43.33L88.00 43.44Q87.97 43.86 87.85 44.20L87.82 44.17L87.72 44.07Q92.59 42.02 98.08 42.21L98.05 42.18L98.14 42.28Q103.70 42.31 108.27 44.67L108.42 44.83L107.45 42.71L107.44 42.70Q106.64 41.21 106.37 40.41L106.35 40.40L106.49 40.53Q105.66 40.01 104.44 39.59L104.42 39.56L104.55 39.70Q104.31 38.88 103.93 37.51L104.04 37.62L103.88 37.47Q101.70 36.92 99.41 36.73L99.57 36.89L99.43 36.75Q104.16 32.22 105.68 23.96L105.78 24.07L105.80 20.99L105.92 21.11Q105.80 19.29 104.58 18.60L104.67 18.69L104.57 18.63L104.54 18.60Q104.50 18.52 104.42 18.52L104.45 18.55L104.53 18.63Q104.13 17.62 103.03 17.01Z"/><path fill="#222" d="M21.62 29.05L21.75 29.19L21.77 29.20Q19.90 29.05 18.66 30.48L18.61 30.42L18.52 30.33Q17.40 31.87 17.21 33.78L17.26 33.83L17.09 33.66Q17.03 35.88 18.11 36.85L18.10 36.84L17.95 36.69Q19.18 37.81 21.28 37.70L21.13 37.55L21.19 37.61Q23.40 37.57 24.51 36.89L24.51 36.89L24.43 36.82Q25.48 35.61 25.48 34.05L25.55 34.12L25.61 34.19Q25.54 33.74 25.47 33.36L25.45 33.34L25.41 33.30Q25.47 31.61 24.37 30.26L24.48 30.37L24.41 30.30Q23.29 28.94 21.62 29.05ZM21.29 40.26L21.31 40.28L21.31 40.28Q16.79 40.13 15.38 39.37L15.48 39.47L15.48 39.48Q14.36 38.62 14.17 36.91L14.18 36.91L14.27 37.01Q14.27 36.36 14.31 35.64L14.18 35.51L14.31 35.64Q14.45 34.68 14.45 34.22L14.29 34.06L14.38 34.15Q14.90 31.36 15.05 30.67L14.91 30.53L15.05 30.67Q15.40 28.62 16.24 27.21L16.20 27.17L16.31 27.28Q18.93 22.86 24.87 16.50L24.95 16.59L24.92 16.55Q27.59 16.25 29.80 15.46L29.75 15.41L29.65 15.31Q22.90 22.88 19.71 27.10L19.71 27.10L19.77 27.16Q20.63 26.54 21.92 26.54L21.98 26.59L21.94 26.56Q25.30 26.60 26.82 28.54L26.90 28.62L26.86 28.58Q28.18 30.21 28.52 33.75L28.45 33.68L28.42 33.64Q28.64 34.52 28.64 35.13L28.64 35.12L28.51 34.99Q28.62 38.22 26.41 39.29L26.46 39.33L26.40 39.28Q25.19 39.89 21.30 40.27ZM23.50 42.58L23.45 42.53L23.50 42.59Q24.94 42.69 26.92 42.76L26.87 42.72L26.86 42.70Q28.39 42.67 29.95 41.95L29.92 41.92L30.01 42.01Q31.14 41.24 31.14 39.45L31.21 39.52L31.19 39.49Q31.12 38.94 30.95 37.95L30.97 37.97L30.96 37.96Q30.81 36.98 30.81 36.53L30.78 36.50L30.79 36.51Q29.95 31.82 28.35 29.92L28.34 29.91L28.20 29.78Q28.24 29.77 28.08 29.54L27.99 29.45L27.84 29.37L27.63 29.20L27.72 29.29Q27.35 28.77 26.74 27.81L26.80 27.87L26.81 27.88Q25.81 26.85 23.83 26.39L23.86 26.42L23.82 26.38Q25.01 24.76 27.98 21.06L27.97 21.05L32.33 15.89L32.28 15.85Q30.72 16.72 28.32 17.48L28.25 17.41L28.34 17.50Q29.12 16.38 30.91 14.40L31.06 14.55L30.99 14.48Q28.52 15.47 24.63 16.04L24.80 16.21L24.69 16.10Q18.98 21.99 16.01 26.94L16.09 27.02L15.97 26.90Q14.56 29.53 13.99 35.78L13.96 35.75L13.96 35.74Q13.86 36.29 13.93 37.24L13.89 37.20L13.86 37.17Q14.03 39.01 15.13 39.93L15.11 39.90L15.12 39.92Q15.56 40.13 15.53 40.17L15.48 40.12L15.46 40.11Q15.91 41.08 16.71 41.50L16.72 41.51L16.68 41.48Q18.07 42.10 20.01 42.29L19.98 42.26L20.05 42.33Q20.07 42.35 23.57 42.66ZM23.36 31.44L23.24 31.33L23.27 31.35Q23.98 31.37 24.93 31.87L24.86 31.80L24.80 31.74Q25.17 32.72 25.17 33.36L25.24 33.43L25.22 33.42Q25.33 35.20 24.38 36.19L24.44 36.25L24.37 36.18Q23.32 36.92 21.23 37.23L21.29 37.29L21.36 37.36Q19.75 37.20 19.22 36.93L19.29 37.00L19.28 37.00Q19.06 36.51 19.06 36.21L19.11 36.25L19.14 36.28Q18.80 32.89 21.73 31.60L21.70 31.57L21.83 31.70Q22.48 31.24 23.24 31.32Z"/></svg>