<svg xmlns="http://www.w3.org/2000/svg" width="150" height="50" viewBox="0,0,150,50"><path fill="#222" d="M95.82 41.03L95.79 41.00L95.68 40.90Q91.64 29.78 86.50 24.79L86.57 24.86L86.47 24.76Q87.89 25.34 90.86 25.99L90.91 26.03L90.94 26.06Q94.50 30.01 97.05 36.67L97.04 36.66L97.07 36.69Q99.65 29.26 102.28 26.21L102.34 26.28L102.25 26.19Q104.14 25.98 106.58 25.30L106.64 25.36L106.67 25.39Q103.53 28.15 101.36 32.72L101.32 32.68L101.29 32.65Q100.95 33.33 97.56 40.95L97.56 40.95L97.66 41.05Q96.98 41.06 95.77 40.98ZM100.46 43.47L100.48 43.48L100.50 43.51Q103.79 31.15 108.36 26.47L108.24 26.35L106.80 26.89L106.76 26.85Q106.03 27.15 105.19 27.26L105.21 27.28L105.15 27.22Q105.77 26.96 106.58 26.08L106.46 25.96L106.58 26.08Q107.26 25.07 107.72 24.65L107.76 24.69L107.79 24.72Q105.57 25.35 102.14 25.85L102.04 25.75L102.04 25.75Q99.40 29.01 97.35 34.61L97.39 34.65L97.43 34.69Q95.76 30.47 93.93 27.99L93.81 27.87L93.37 27.96L93.43 28.02Q93.13 27.99 92.90 27.99L92.76 27.85L92.87 27.96Q92.56 27.54 90.85 25.48L91.00 25.64L90.93 25.56Q87.64 25.13 85.40 23.99L85.25 23.84L85.44 24.03Q91.57 29.74 95.57 41.47L95.40 41.30L96.44 41.35L96.49 41.40Q96.74 41.96 97.58 43.25L97.64 43.31L99.00 43.30L99.11 43.41Q99.71 43.29 100.36 43.37Z"/><path fill="#444" d="M13.67 14.33L13.64 14.30L13.60 14.26Q17.36 16.76 22.12 16.99L22.29 17.16L22.16 17.03Q26.84 17.26 31.10 15.50L31.08 15.48L31.11 15.51Q30.85 16.05 30.09 18.83L30.04 18.78L30.06 18.80Q27.39 19.90 24.42 20.05L24.40 20.04L24.36 19.99Q21.42 20.17 18.52 19.45L18.46 19.38L18.48 19.40Q19.15 23.00 19.34 26.66L19.34 26.66L19.45 26.76Q21.47 27.00 23.07 26.96L23.00 26.89L23.06 26.96Q24.27 26.95 26.67 26.83L26.61 26.77L26.59 26.75Q26.52 27.37 26.52 28.05L26.59 28.12L26.61 29.47L26.50 29.37Q24.18 29.44 19.38 29.52L19.34 29.47L19.47 29.61Q19.37 33.61 18.79 37.61L18.84 37.66L18.90 37.71Q21.36 36.90 24.10 37.02L24.22 37.13L24.13 37.04Q26.91 37.19 29.49 38.03L29.42 37.96L29.48 38.02Q29.62 38.88 29.89 39.64L29.81 39.56L30.21 41.03L30.35 41.18Q27.04 39.77 23.62 39.77L23.76 39.91L23.62 39.77Q18.85 39.87 14.58 42.12L14.46 41.99L14.62 42.15Q16.86 35.26 16.59 28.14L16.55 28.10L16.61 28.15Q16.33 20.98 13.66 14.32ZM13.98 42.73L14.07 42.82L13.99 42.74Q15.22 42.00 15.98 41.65L15.96 41.63L15.96 41.62Q15.93 42.55 15.36 44.07L15.38 44.09L15.29 44.00Q19.90 42.11 24.96 42.37L24.86 42.27L24.81 42.22Q30.01 42.54 34.01 45.25L34.03 45.27L33.97 45.21Q32.93 42.80 32.24 40.86L32.22 40.83L32.12 40.73Q31.28 40.27 30.29 39.93L30.20 39.85L30.30 39.94Q29.73 38.38 29.58 37.58L29.65 37.65L29.73 37.74Q26.59 36.69 23.43 36.69L23.38 36.63L23.50 36.76Q22.25 36.65 21.11 36.76L21.05 36.71L21.14 36.80Q21.18 35.47 21.22 34.25L21.21 34.24L21.29 31.74L21.47 31.91Q23.19 31.73 24.98 31.77L24.97 31.75L24.99 31.78Q26.90 31.90 28.69 32.05L28.62 31.98L28.51 31.87Q28.60 31.08 28.60 30.13L28.59 30.12L28.53 28.16L27.69 28.20L27.67 28.17Q27.35 28.35 26.89 28.35L26.89 28.34L26.88 28.33Q26.83 27.60 26.98 26.31L27.03 26.35L27.05 26.37Q25.33 26.48 24.15 26.52L24.22 26.59L24.15 26.52Q23.20 26.52 21.37 26.45L21.45 26.52L21.51 26.59Q21.41 25.15 21.22 22.33L21.25 22.36L21.14 22.25Q22.19 22.39 23.18 22.39L23.29 22.51L23.21 22.42Q27.89 22.37 31.58 20.47L31.66 20.56L31.71 20.61Q32.14 18.10 33.02 15.90L33.13 16.01L33.08 15.96Q31.76 16.81 30.92 17.15L30.82 17.04L30.90 17.12Q31.15 16.32 31.61 14.75L31.62 14.77L31.69 14.83Q26.97 16.89 22.09 16.58L22.07 16.56L22.19 16.68Q16.94 16.41 13.09 13.56L12.96 13.43L13.02 13.49Q15.96 20.50 16.27 28.12L16.21 28.06L16.23 28.08Q16.45 35.91 13.94 42.69Z"/><path fill="#333" d="M120.64 41.23L120.56 41.15L118.83 41.13L118.77 41.07Q115.39 41.08 114.44 38.95L114.56 39.07L114.55 39.06Q115.74 38.04 117.18 36.93L117.21 36.96L117.16 36.91Q117.66 39.01 120.51 38.86L120.53 38.87L120.57 38.92Q121.26 38.77 122.29 38.54L122.29 38.54L122.33 38.58Q123.39 38.19 123.31 37.24L123.17 37.09L123.16 37.08Q123.15 36.05 121.36 35.36L121.29 35.30L117.59 33.88L117.57 33.86Q115.23 32.51 114.89 28.97L114.82 28.89L114.89 28.96Q114.69 26.82 116.86 26.25L116.90 26.30L116.78 26.17Q117.89 26.10 120.86 26.10L120.81 26.06L120.88 26.12Q125.71 26.09 126.63 28.60L126.54 28.51L126.60 28.57Q125.94 29.09 125.22 29.55L125.21 29.54L123.80 30.49L123.82 30.51Q123.38 28.66 120.14 28.43L120.07 28.36L120.13 28.42Q119.57 28.47 118.54 28.89L118.51 28.85L118.54 28.88Q117.79 29.05 117.79 30.16L117.98 30.34L117.86 30.22Q118.28 31.36 120.10 32.05L120.01 31.96L120.11 32.06Q121.09 32.35 123.76 33.46L123.76 33.46L123.72 33.42Q125.71 34.42 125.90 36.97L125.83 36.90L125.82 36.89Q125.88 37.52 125.80 38.51L125.74 38.45L125.79 38.49Q125.81 39.43 125.24 40.08L125.21 40.05L125.28 40.12Q123.58 41.13 120.54 41.13ZM125.41 43.83L125.31 43.73L125.38 43.79Q126.32 43.87 127.69 43.56L127.52 43.39L127.67 43.54Q128.58 42.70 128.39 41.48L128.53 41.62L128.54 41.63Q128.36 40.96 128.06 39.36L128.14 39.44L128.12 39.42Q127.62 36.52 125.83 35.31L125.79 35.26L125.79 35.26Q125.28 33.87 124.02 33.15L124.01 33.14L123.97 33.10Q122.78 32.75 120.31 31.80L120.17 31.66L120.16 31.65Q120.36 31.24 120.63 31.13L120.72 31.22L120.57 31.07Q121.27 30.70 121.91 30.66L121.88 30.63L121.99 30.74Q122.75 30.66 123.51 30.93L123.54 30.96L123.48 30.97L123.64 31.01L123.87 31.05L123.85 31.08L123.79 31.02Q124.84 31.45 125.03 32.71L125.03 32.72L125.06 32.74Q126.45 32.04 128.36 30.37L128.26 30.26L128.33 30.34Q128.01 29.57 127.02 28.39L127.12 28.48L127.02 28.38Q125.97 25.77 120.87 25.66L120.76 25.55L120.72 25.51Q117.57 25.48 115.59 26.05L115.72 26.18L115.64 26.11Q114.31 26.76 114.54 28.85L114.38 28.68L114.45 28.75Q114.54 29.99 115.45 32.08L115.42 32.05L115.42 32.05Q116.08 33.28 117.11 34.00L116.99 33.89L117.12 34.01Q117.78 35.47 119.07 36.16L119.11 36.19L119.13 36.21Q119.92 36.31 120.87 36.70L121.02 36.84L122.80 37.48L122.76 37.44Q122.42 38.55 120.48 38.44L120.56 38.52L120.65 38.61Q120.21 38.66 118.99 38.36L118.85 38.22L118.91 38.12L118.85 38.30L118.72 38.17Q117.96 37.90 117.32 36.42L117.14 36.25L117.22 36.32Q115.04 37.83 113.93 38.97L114.04 39.08L113.93 38.97Q114.25 39.90 115.28 40.70L115.31 40.73L115.16 40.89L115.10 40.83Q116.67 43.08 120.90 43.46L120.92 43.48L120.82 43.39Q122.09 43.51 125.32 43.74Z"/><path fill="#333" d="M72.71 40.24L72.60 40.12L72.60 40.12Q70.72 40.03 69.05 40.61L69.19 40.75L69.19 40.75Q69.73 37.14 69.85 34.02L69.71 33.88L69.73 33.90Q69.93 30.94 69.70 27.28L69.72 27.31L69.58 27.16Q68.20 26.81 67.44 26.43L67.40 26.39L67.13 23.50L67.08 23.45Q67.89 24.14 69.49 24.72L69.50 24.73L69.56 24.79Q69.14 22.47 68.73 19.73L68.87 19.87L68.85 19.85Q71.21 20.61 72.84 20.46L72.71 20.32L72.54 24.87L72.68 25.01Q74.03 24.88 75.36 24.38L75.37 24.39L75.29 24.32Q75.43 25.40 75.20 27.15L75.02 26.97L75.10 27.05Q73.58 27.40 72.56 27.40L72.51 27.35L72.61 27.46Q72.61 29.62 72.61 33.88L72.48 33.76L72.50 33.78Q72.54 37.97 72.61 40.14ZM75.74 23.77L75.84 23.87L75.78 23.81Q75.51 23.92 74.90 24.15L74.91 24.16L75.28 21.37L75.35 21.44Q74.46 21.65 73.05 21.88L73.18 22.01L73.05 21.88Q73.17 21.32 73.32 19.95L73.27 19.89L73.23 19.85Q72.63 19.94 72.06 19.94L71.97 19.85L72.02 19.90Q69.90 19.91 68.26 19.18L68.26 19.18L68.35 19.27Q68.87 21.77 69.13 24.24L68.96 24.07L69.01 24.12Q68.20 23.84 66.67 22.81L66.62 22.76L66.64 22.78Q66.94 24.03 67.17 26.73L67.14 26.70L67.20 26.77Q67.59 26.92 68.77 27.34L68.83 27.40L68.91 27.48Q68.81 27.99 68.85 29.40L68.97 29.53L69.32 29.53L69.47 29.61L69.35 29.49Q69.56 30.88 69.56 32.06L69.38 31.87L69.42 31.91Q69.45 36.90 68.65 41.24L68.72 41.31L68.58 41.17Q68.83 41.12 70.78 40.58L70.88 40.69L70.86 40.67Q70.74 41.20 70.63 42.57L70.72 42.66L70.71 42.65Q71.57 42.64 72.37 42.64L72.42 42.68L72.23 42.49Q74.11 42.66 75.74 43.23L75.75 43.23L75.73 43.21Q74.38 37.49 74.57 29.57L74.58 29.58L77.02 29.24L76.92 29.14Q76.99 28.22 77.07 27.19L77.13 27.26L77.37 25.29L77.34 25.25Q76.61 25.37 75.43 25.82L75.62 26.01L75.59 25.98Q75.84 24.59 75.76 24.25L75.72 24.21L75.66 24.15Q75.81 24.11 75.89 23.92Z"/><path fill="#444" d="M46.09 29.65L46.14 29.70L46.25 29.82Q42.05 29.61 41.48 32.66L41.44 32.62L41.31 32.49Q41.30 33.74 41.49 34.62L41.44 34.56L41.48 34.61Q41.38 35.26 41.83 36.67L41.88 36.71L41.95 36.79Q42.87 39.80 46.19 39.65L46.26 39.73L46.21 39.68Q48.34 39.86 49.67 38.30L49.57 38.20L49.56 38.18Q50.91 36.84 50.91 34.78L50.76 34.63L50.77 34.64Q51.03 34.18 50.88 33.11L50.92 33.15L50.76 32.99Q50.82 32.21 50.40 31.53L50.25 31.38L50.41 31.54Q48.80 29.89 46.21 29.78ZM51.12 48.32L51.03 48.23L51.09 48.29Q49.26 48.85 41.19 49.23L41.01 49.06L41.17 49.21Q39.49 49.29 37.86 48.45L37.73 48.32L37.72 48.32Q38.72 47.52 40.54 45.73L40.52 45.71L40.38 45.56Q42.77 46.59 44.86 46.40L44.95 46.48L44.90 46.44Q47.90 46.27 48.74 46.01L48.69 45.96L48.77 46.04Q50.87 45.21 50.87 43.42L50.82 43.37L50.83 43.38Q50.97 43.30 50.90 43.07L50.89 43.06L50.75 41.43L50.68 41.37Q50.69 40.61 50.69 39.81L50.66 39.79L50.79 39.92Q49.40 42.14 46.01 42.14L45.96 42.09L46.04 42.17Q42.13 42.14 40.50 39.94L40.42 39.86L40.41 39.85Q39.26 38.29 38.46 33.87L38.46 33.87L38.62 34.02Q38.16 32.35 38.16 30.94L38.28 31.06L38.16 30.94Q38.29 29.28 39.20 28.29L39.17 28.26L39.10 28.19Q40.76 26.76 45.41 26.76L45.56 26.92L47.21 27.00L47.26 27.05Q50.44 27.38 51.77 29.32L51.83 29.38L51.72 29.27Q51.93 28.45 52.35 26.82L52.36 26.83L52.32 26.79Q54.19 26.45 55.94 25.73L55.99 25.78L56.03 25.82Q53.20 31.74 53.20 38.97L53.34 39.11L53.23 39.00Q53.37 41.81 53.75 44.43L53.67 44.36L53.69 44.38Q53.76 44.94 53.68 45.63L53.74 45.68L53.83 45.77Q53.50 47.00 52.28 47.76L52.30 47.79L52.39 47.87Q51.88 48.13 51.05 48.24ZM54.08 51.24L54.04 51.20L53.94 51.10Q55.38 51.13 56.15 50.18L56.18 50.22L56.22 50.25Q56.58 49.33 56.47 48.60L56.55 48.69L56.40 48.53Q56.30 47.90 56.11 47.14L56.15 47.18L56.24 47.27Q54.95 41.98 55.29 36.73L55.30 36.73L55.21 36.64Q55.70 31.35 57.83 26.51L57.75 26.43L55.72 27.45L55.75 27.48Q55.88 26.77 56.11 26.20L56.19 26.28L56.62 25.07L56.66 25.11Q54.18 25.95 51.98 26.37L52.14 26.54L52.04 26.43Q51.74 27.31 51.59 28.34L51.68 28.43L51.58 28.33Q49.44 26.38 45.40 26.38L45.40 26.38L43.67 26.40L43.72 26.45Q40.38 26.35 38.71 27.76L38.69 27.74L38.72 27.76Q37.87 28.82 37.91 30.73L37.96 30.78L37.98 30.79Q38.01 33.26 39.04 37.53L39.07 37.56L38.93 37.42Q39.45 39.39 40.67 40.80L40.59 40.72L40.87 41.00L41.01 41.14L40.95 41.07Q42.18 43.49 44.77 44.02L44.82 44.07L44.81 44.06Q46.19 44.34 47.64 44.38L47.59 44.33L47.52 44.26Q49.32 44.35 50.39 43.97L50.37 43.95L50.39 43.97Q49.88 45.63 47.21 45.97L47.21 45.96L47.23 45.98Q46.13 46.10 45.44 46.10L45.47 46.13L45.03 46.07L45.04 46.08Q42.15 46.01 40.48 45.06L40.45 45.03L38.81 46.82L38.89 46.89Q37.88 47.56 37.04 48.51L37.17 48.64L37.22 48.69Q38.08 49.09 39.07 49.28L39.04 49.26L38.22 50.18L38.32 50.28Q40.95 51.28 46.58 51.28L46.55 51.25L46.80 51.26L46.76 51.23Q50.37 51.22 53.95 51.11ZM47.99 31.97L47.98 31.97L48.03 32.02Q49.29 31.91 50.21 32.33L50.24 32.36L50.19 32.31Q50.44 32.87 50.52 33.55L50.47 33.50L50.57 33.60Q50.66 33.96 50.63 34.88L50.54 34.79L50.63 34.88Q50.47 36.70 49.36 37.99L49.32 37.95L49.37 38.00Q48.23 39.45 46.33 39.41L46.29 39.37L46.19 39.27Q44.87 39.33 44.04 38.91L43.91 38.78L44.00 38.88Q43.65 37.76 43.61 36.74L43.51 36.63L43.49 36.61Q43.38 32.28 47.99 31.97Z"/></svg>