<svg xmlns="http://www.w3.org/2000/svg" width="150" height="50" viewBox="0,0,150,50"><path fill="#222" d="M21.96 19.67L21.96 19.67L21.99 19.69Q19.89 19.69 18.93 19.84L19.06 19.96L19.10 20.01Q17.39 20.16 16.17 20.69L16.14 20.66L16.27 20.79Q12.58 22.05 12.47 26.74L12.55 26.81L12.51 26.78Q12.43 29.44 13.08 32.37L13.18 32.47L13.13 32.42Q14.00 36.45 17.62 37.63L17.64 37.66L17.67 37.68Q19.58 38.27 21.03 38.12L20.92 38.00L21.46 38.09L21.37 38.00Q21.63 38.07 21.82 38.11L21.86 38.15L21.78 38.06Q21.86 37.99 22.01 37.95L22.15 38.09L22.02 37.96Q24.62 37.66 25.99 37.09L26.12 37.22L22.44 33.59L22.51 33.65Q22.86 33.35 23.46 32.74L23.51 32.79L24.42 31.88L24.39 31.85Q26.27 33.95 28.25 36.01L28.10 35.86L28.10 35.86Q30.42 34.03 30.68 28.66L30.76 28.74L30.81 28.78Q30.85 27.83 30.85 26.92L30.74 26.81L30.85 26.92Q30.81 21.20 25.74 20.10L25.76 20.12L25.81 20.17Q24.40 19.75 21.89 19.59ZM34.68 41.68L34.68 41.67L34.80 41.80Q34.17 42.20 32.99 43.07L33.03 43.11L28.61 39.42L28.61 39.42Q26.17 40.67 21.91 40.71L21.86 40.66L21.90 40.70Q15.36 40.82 12.54 38.57L12.39 38.42L12.46 38.49Q10.75 36.78 10.30 33.81L10.14 33.66L10.16 33.68Q10.02 31.94 9.64 28.36L9.67 28.39L9.70 28.42Q9.68 27.68 9.57 25.93L9.56 25.92L9.50 25.86Q9.32 24.27 9.36 23.40L9.37 23.40L9.47 23.51Q9.55 20.43 11.30 18.87L11.22 18.78L11.28 18.85Q12.82 17.53 16.02 17.04L15.93 16.94L15.96 16.98Q18.43 16.60 21.33 16.67L21.39 16.74L21.31 16.65Q28.89 16.85 32.01 19.21L31.90 19.10L32.05 19.25Q34.12 21.28 33.85 26.19L33.86 26.20L33.97 26.31Q33.79 29.97 33.59 31.30L33.55 31.26L33.47 31.17Q32.95 35.79 30.62 38.11L30.46 37.95L30.46 37.95Q32.05 39.32 34.80 41.79ZM29.90 17.48L29.87 17.45L29.91 17.49Q27.82 16.70 21.31 16.20L21.40 16.29L21.31 16.20Q20.05 16.35 17.27 16.46L17.20 16.39L17.11 16.30Q13.00 16.64 10.75 18.62L10.82 18.69L10.70 18.57Q9.06 20.05 9.06 23.21L9.04 23.19L9.11 23.26Q9.07 24.06 9.22 25.77L9.26 25.81L9.15 25.70Q9.39 27.50 9.39 28.38L9.34 28.33L9.45 28.44Q9.48 30.07 9.86 33.65L9.92 33.70L9.83 33.61Q10.27 36.57 11.87 38.62L11.76 38.51L11.85 38.60Q12.17 39.42 13.39 40.56L13.35 40.52L13.48 40.65Q16.10 42.55 21.28 42.81L21.37 42.91L21.32 42.86Q21.68 42.87 24.07 42.99L24.15 43.06L24.10 43.01Q28.91 43.18 31.19 42.11L31.20 42.12L31.11 42.02Q32.06 42.79 36.79 46.37L36.65 46.23L36.64 46.23Q37.32 45.77 38.62 44.78L38.70 44.86L38.67 44.83Q37.78 44.13 36.98 43.44L36.93 43.39L35.20 41.86L35.44 41.94L35.44 41.94Q34.90 41.52 33.68 40.49L33.70 40.51L33.57 40.37Q35.54 37.93 35.54 33.40L35.59 33.45L35.56 33.42Q35.52 32.96 35.56 32.12L35.53 32.10L35.56 32.13Q35.58 31.27 35.58 30.85L35.68 30.95L35.60 30.87Q35.54 25.29 34.82 22.93L34.88 22.99L34.80 22.92Q34.50 21.70 33.63 20.64L33.69 20.70L33.54 20.55Q32.86 18.54 29.93 17.51ZM23.77 21.94L23.92 22.08L23.83 22.00Q27.97 21.99 29.80 23.59L29.68 23.46L29.75 23.53Q30.35 24.79 30.47 26.12L30.48 26.13L30.36 26.01Q30.48 27.31 30.40 28.68L30.48 28.75L30.38 28.66Q30.18 33.75 28.24 35.46L28.23 35.46L28.08 35.30Q26.91 34.14 24.40 31.39L24.40 31.39L24.29 31.29Q23.53 32.05 21.97 33.61L22.07 33.71L22.09 33.73Q22.67 34.35 23.81 35.53L23.81 35.53L23.68 35.51L23.62 35.45Q24.30 36.09 25.32 37.16L25.26 37.09L25.20 37.03Q24.21 37.30 21.89 37.60L21.98 37.69L21.33 37.58L21.08 37.74L21.02 37.72L21.00 37.71Q17.57 37.74 15.59 36.10L15.54 36.05L15.62 36.13Q14.56 34.00 14.60 30.88L14.60 30.88L14.50 30.79Q14.75 22.16 23.92 22.09Z"/><path fill="#333" d="M94.99 27.58L95.13 27.72L95.06 27.66Q92.86 27.70 91.59 29.21L91.61 29.23L91.60 29.22Q90.17 30.57 90.06 32.86L90.13 32.93L90.17 32.97Q90.06 35.63 90.89 36.58L90.88 36.58L90.84 36.53Q91.92 37.77 94.25 37.62L94.36 37.73L94.26 37.63Q98.97 37.39 99.35 34.39L99.22 34.25L99.25 34.28Q99.40 33.52 99.40 32.72L99.37 32.69L99.40 32.72Q99.35 30.69 98.21 29.17L98.32 29.28L98.21 29.17Q97.05 27.66 95.11 27.70ZM99.81 37.66L99.86 37.71L99.85 37.70Q98.39 39.85 94.01 40.08L94.03 40.10L94.14 40.21Q89.76 40.17 88.12 39.07L88.28 39.23L88.28 39.22Q87.28 38.26 87.13 36.55L87.03 36.46L87.09 36.52Q87.04 35.40 87.23 33.53L87.24 33.54L87.23 33.53Q87.68 29.19 88.90 27.36L88.95 27.41L88.96 27.42Q90.54 24.88 94.38 24.92L94.51 25.05L94.37 24.91Q96.99 25.05 99.27 27.37L99.32 27.43L99.27 27.37Q99.29 21.46 100.89 14.95L100.95 15.00L100.92 14.97Q102.92 14.65 104.79 13.82L104.71 13.74L104.68 13.71Q102.08 20.33 101.82 27.33L101.83 27.35L101.82 27.33Q101.46 34.44 103.59 41.02L103.73 41.16L103.71 41.14Q101.99 40.45 100.28 40.07L100.41 40.20L100.36 40.15Q100.05 38.85 99.90 37.74ZM102.94 43.22L102.96 43.25L102.91 43.20Q104.99 43.75 107.54 45.28L107.64 45.38L107.65 45.38Q103.80 38.19 103.65 29.89L103.61 29.85L103.65 29.89Q103.61 21.78 106.70 14.40L106.67 14.37L106.61 14.31Q105.98 14.82 104.53 15.46L104.59 15.53L104.41 15.35Q104.84 14.29 105.45 13.08L105.49 13.12L105.42 13.04Q103.01 14.09 100.57 14.66L100.58 14.68L100.57 14.66Q99.15 20.47 98.88 26.56L98.91 26.59L98.88 26.56Q97.00 24.76 94.48 24.64L94.40 24.56L94.45 24.61Q91.07 24.54 89.16 26.63L89.03 26.50L89.22 26.68Q87.49 29.03 87.07 33.71L86.93 33.57L87.04 33.68Q86.74 36.39 86.74 36.81L86.80 36.87L86.64 36.71Q86.75 38.49 87.89 39.56L87.95 39.62L87.91 39.58Q88.26 39.93 88.46 40.01L88.31 39.87L88.87 40.62L88.83 40.58Q89.89 42.02 92.86 42.29L92.70 42.12L92.80 42.23Q94.96 42.33 96.33 42.40L96.27 42.34L96.43 42.50Q100.48 42.56 102.20 41.23L102.29 41.32L102.33 41.36Q102.40 42.00 102.86 43.14ZM96.53 29.81L96.56 29.84L96.55 29.83Q97.78 30.03 98.61 30.52L98.50 30.42L98.47 30.38Q99.05 31.76 99.12 32.79L98.99 32.65L99.02 32.68Q99.33 36.91 94.30 37.25L94.44 37.39L94.38 37.33Q93.48 37.35 92.38 37.08L92.41 37.11L92.44 37.14Q92.11 36.43 92.03 35.89L92.04 35.90L91.98 35.84Q92.03 35.29 92.07 34.68L92.14 34.74L92.15 34.75Q92.38 31.26 95.01 30.27L94.94 30.20L94.97 30.23Q96.02 29.94 96.70 29.98Z"/><path fill="#333" d="M49.61 39.88L49.61 39.88L47.56 39.77L47.59 39.80Q46.75 39.91 45.80 40.03L45.82 40.04L45.76 39.99Q46.24 33.69 46.24 29.69L46.34 29.79L46.29 29.74Q42.33 23.08 34.68 14.40L34.77 14.49L34.72 14.44Q36.42 15.34 39.77 16.14L39.84 16.21L39.83 16.20Q44.98 21.88 47.99 27.10L47.98 27.09L47.82 26.93Q50.99 21.54 55.37 16.51L55.25 16.39L55.35 16.50Q57.67 15.99 60.18 15.19L60.26 15.28L60.15 15.17Q54.10 21.26 49.22 29.67L49.35 29.79L49.20 29.64Q49.23 36.72 49.54 39.80ZM58.73 17.32L61.38 14.42L61.30 14.34Q58.22 15.52 55.10 15.98L55.16 16.04L55.24 16.12Q50.86 20.68 48.04 25.78L48.19 25.93L48.06 25.80Q46.10 22.32 42.90 18.43L42.85 18.39L42.82 18.35Q42.52 18.32 42.02 18.24L42.11 18.33L42.11 18.32Q41.34 17.44 39.82 15.77L39.91 15.86L39.83 15.79Q36.36 14.94 33.39 13.38L33.44 13.43L33.51 13.50Q41.18 21.93 45.94 29.85L45.95 29.86L46.03 29.94Q45.84 36.18 45.23 40.33L45.24 40.34L45.24 40.34Q45.96 40.30 47.40 40.18L47.41 40.19L47.35 41.16L47.49 41.29Q47.49 41.75 47.41 42.29L47.36 42.23L47.35 42.22Q50.96 42.29 52.71 42.49L52.69 42.46L52.71 42.48Q51.34 37.69 51.23 31.71L51.27 31.76L51.33 31.81Q55.76 23.41 62.31 16.06L62.16 15.92L58.76 17.35Z"/><path fill="#333" d="M67.92 33.27L67.97 33.32L67.87 33.22Q67.87 36.20 66.69 40.84L66.62 40.76L66.58 40.73Q64.80 41.26 63.20 42.06L63.23 42.10L63.14 42.00Q65.76 34.99 65.49 27.57L65.61 27.69L65.67 27.75Q65.36 20.32 62.27 13.58L62.10 13.41L62.28 13.58Q64.26 14.88 66.12 15.45L66.06 15.39L66.06 15.38Q68.16 22.32 68.16 28.98L68.23 29.05L68.17 28.99Q68.10 30.37 68.03 31.85L68.08 31.91L68.08 31.91Q69.17 30.64 74.39 25.69L74.49 25.79L74.36 25.67Q75.53 25.73 76.52 25.65L76.64 25.77L78.69 25.57L78.60 25.49Q75.42 28.47 71.11 32.24L71.13 32.25L71.24 32.36Q74.50 35.01 80.97 40.84L80.95 40.82L80.98 40.85Q78.23 39.93 75.26 39.74L75.37 39.85L75.32 39.80Q72.84 37.73 67.96 33.32ZM77.89 42.52L77.85 42.48L77.87 42.50Q82.61 43.35 85.73 45.29L85.63 45.19L85.65 45.22Q84.46 43.91 81.83 41.51L81.96 41.64L81.82 41.50Q82.09 41.62 82.36 41.74L82.47 41.84L82.37 41.75Q80.19 39.65 77.95 37.74L77.99 37.78L73.55 33.88L73.68 34.01Q78.57 29.72 81.00 26.83L80.94 26.76L80.94 26.76Q79.73 26.85 77.26 27.11L77.29 27.15L77.36 27.22Q78.93 25.75 79.62 24.91L79.53 24.82L79.52 24.81Q76.89 25.45 74.42 25.45L74.38 25.42L74.29 25.33Q73.00 26.74 70.26 29.41L70.21 29.36L70.11 29.26Q70.18 23.54 69.19 17.72L69.13 17.66L69.15 17.68Q68.56 17.62 67.07 17.35L66.91 17.18L66.90 17.17Q66.77 16.48 66.31 14.99L66.42 15.10L66.45 15.13Q63.74 14.25 61.50 12.69L61.48 12.67L61.57 12.76Q64.94 19.52 65.28 27.63L65.20 27.55L65.27 27.62Q65.62 35.54 62.62 42.78L62.63 42.79L62.59 42.75Q63.21 42.38 64.54 41.73L64.59 41.79L64.57 41.76Q64.49 42.75 63.84 44.20L63.80 44.16L63.79 44.14Q66.56 42.99 68.69 42.61L68.63 42.55L68.71 42.62Q69.27 40.10 69.76 35.84L69.68 35.76L69.77 35.84Q72.45 38.18 77.89 42.52Z"/><path fill="#222" d="M115.75 19.26L115.75 19.26L115.70 19.21Q116.81 23.67 116.96 26.87L116.96 26.87L116.89 26.80Q117.52 26.98 121.90 27.09L121.90 27.08L121.84 27.03Q124.34 27.01 124.72 23.55L124.70 23.53L124.84 23.67Q124.99 21.88 124.08 20.97L124.12 21.01L124.08 20.97Q122.77 20.04 120.79 19.89L120.71 19.81L120.85 19.95Q117.51 19.61 115.64 19.16ZM117.08 28.81L117.06 28.79L117.14 28.88Q117.21 34.78 115.43 40.71L115.46 40.75L115.55 40.84Q114.15 41.00 111.56 42.03L111.56 42.02L111.56 42.03Q114.54 35.68 114.20 28.22L114.13 28.15L114.13 28.15Q113.88 20.86 110.57 14.35L110.50 14.28L110.47 14.25Q115.42 17.14 122.38 17.14L122.35 17.11L122.35 17.11Q127.91 17.03 128.17 20.57L128.17 20.57L128.13 20.53Q128.34 21.27 128.26 21.87L128.17 21.78L128.09 22.93L128.12 22.95Q127.35 26.94 125.22 28.66L125.14 28.58L125.17 28.61Q124.42 29.34 123.39 29.34L123.40 29.35L120.85 29.39L120.77 29.31Q126.27 36.44 130.80 41.01L130.93 41.14L130.96 41.17Q128.77 40.43 125.84 40.09L125.72 39.97L125.76 40.01Q121.99 36.05 117.08 28.82ZM125.55 40.29L125.73 40.48L125.97 40.41L127.30 41.73L127.29 41.73Q127.81 42.21 128.46 42.82L128.37 42.73L128.50 42.86Q131.98 43.41 135.56 45.28L135.63 45.35L135.48 45.20Q128.64 38.55 123.24 31.62L123.12 31.51L124.93 31.56L124.90 31.54Q128.06 31.61 129.39 27.08L129.34 27.03L129.42 27.11Q130.12 24.91 130.12 22.21L130.02 22.12L130.00 22.10Q130.02 19.82 128.30 19.18L128.27 19.14L128.42 19.30Q128.17 18.78 127.60 18.09L127.59 18.08L127.75 18.24Q125.96 16.69 122.31 16.61L122.36 16.66L122.25 16.55Q114.46 16.49 109.78 13.48L109.76 13.46L109.73 13.44Q113.47 20.26 113.81 27.95L113.86 27.99L113.87 28.00Q114.22 35.97 111.10 42.82L111.05 42.78L111.08 42.80Q112.39 42.28 113.19 41.98L113.13 41.92L112.07 44.13L112.15 44.21Q114.84 43.14 117.51 42.64L117.43 42.57L117.52 42.66Q118.75 37.49 118.94 32.27L119.01 32.35L118.98 32.32Q122.56 37.34 125.72 40.46ZM124.28 22.35L124.34 22.41L124.41 22.48Q124.47 22.77 124.47 23.11L124.51 23.15L124.37 23.58L124.43 23.64Q124.44 24.76 123.76 25.71L123.66 25.61L123.65 25.60Q123.03 26.35 122.11 26.54L122.29 26.72L122.24 26.67Q122.07 26.76 120.47 26.80L120.38 26.71L120.41 26.74Q119.78 26.72 118.94 26.60L118.96 26.62L118.94 26.60Q118.83 25.09 118.49 22.04L118.45 22.00L118.53 22.08Q119.87 22.20 120.55 22.20L120.51 22.16L120.59 22.24Q122.42 22.24 124.37 22.43Z"/></svg>