<svg xmlns="http://www.w3.org/2000/svg" width="150" height="50" viewBox="0,0,150,50"><path fill="#222" d="M45.78 27.71L45.63 27.56L45.76 27.69Q43.51 27.69 42.24 29.19L42.28 29.23L42.30 29.25Q40.91 30.64 40.80 32.93L40.89 33.02L40.89 33.02Q40.70 35.61 41.54 36.56L41.47 36.49L41.54 36.57Q42.66 37.84 44.99 37.69L44.88 37.58L45.01 37.71Q49.60 37.35 49.98 34.35L50.04 34.41L50.05 34.42Q50.15 33.60 50.15 32.81L50.01 32.66L50.12 32.77Q50.12 30.79 48.98 29.27L48.84 29.13L48.92 29.21Q47.73 27.68 45.79 27.72ZM50.58 37.76L50.60 37.78L50.61 37.79Q49.18 39.98 44.81 40.21L44.72 40.13L44.75 40.15Q40.56 40.30 38.92 39.20L38.90 39.18L38.79 39.07Q37.87 38.19 37.72 36.47L37.79 36.54L37.83 36.58Q37.76 35.45 37.95 33.59L38.01 33.64L37.87 33.50Q38.53 29.36 39.74 27.54L39.72 27.51L39.68 27.47Q41.26 24.94 45.10 24.98L45.12 24.99L45.08 24.95Q47.69 25.09 49.97 27.41L49.99 27.43L50.01 27.44Q50.06 21.55 51.65 15.04L51.56 14.95L51.55 14.94Q53.49 14.56 55.36 13.72L55.46 13.82L55.31 13.67Q52.68 20.26 52.42 27.26L52.46 27.31L52.45 27.30Q52.16 34.47 54.29 41.05L54.25 41.01L54.42 41.19Q52.73 40.52 51.02 40.14L50.96 40.08L51.12 40.24Q50.66 38.79 50.51 37.69ZM53.63 43.25L53.61 43.23L53.53 43.15Q55.58 43.68 58.13 45.20L58.22 45.29L58.22 45.29Q54.49 38.20 54.33 29.90L54.24 29.82L54.34 29.91Q54.14 21.64 57.23 14.26L57.38 14.41L57.23 14.26Q56.55 14.73 55.11 15.37L55.24 15.51L55.15 15.42Q55.49 14.27 56.10 13.06L56.16 13.11L56.17 13.13Q53.78 14.20 51.34 14.77L51.31 14.74L51.23 14.66Q49.85 20.51 49.58 26.60L49.49 26.50L49.67 26.68Q47.62 24.71 45.11 24.60L45.22 24.71L45.18 24.67Q41.71 24.52 39.81 26.61L39.85 26.65L39.75 26.55Q38.17 29.05 37.75 33.73L37.73 33.71L37.75 33.73Q37.32 36.31 37.32 36.72L37.38 36.79L37.31 36.71Q37.50 38.58 38.64 39.64L38.60 39.60L38.59 39.60Q38.78 39.78 38.97 39.86L39.05 39.94L39.39 40.47L39.43 40.51Q40.58 42.04 43.55 42.30L43.45 42.21L43.48 42.24Q45.60 42.30 46.97 42.38L47.08 42.49L47.04 42.45Q51.12 42.53 52.83 41.20L52.96 41.32L52.95 41.32Q53.20 42.14 53.66 43.28ZM47.39 30.00L47.30 29.92L47.30 29.91Q48.39 29.98 49.23 30.47L49.15 30.40L49.20 30.44Q49.74 31.78 49.81 32.81L49.71 32.70L49.68 32.68Q49.98 36.90 44.96 37.24L45.11 37.40L45.03 37.31Q44.19 37.39 43.09 37.12L43.00 37.03L42.97 37.01Q42.85 36.50 42.77 35.97L42.66 35.86L42.78 35.98Q42.73 35.31 42.76 34.71L42.71 34.65L42.69 34.63Q42.98 31.19 45.60 30.20L45.73 30.32L45.66 30.26Q46.55 29.81 47.23 29.85Z"/><path fill="#444" d="M26.01 30.85L26.10 30.95L26.01 30.86Q26.10 29.42 25.28 28.51L25.37 28.59L25.32 28.54Q24.41 27.54 22.96 27.58L22.98 27.60L23.11 27.73Q20.68 27.70 19.85 29.83L19.80 29.79L19.99 29.97Q19.60 30.65 19.56 31.34L19.66 31.44L19.59 31.36Q19.29 36.12 18.37 40.46L18.39 40.48L18.44 40.53Q16.78 41.08 14.92 42.07L14.83 41.99L14.82 41.98Q17.24 35.14 16.98 27.84L16.99 27.85L16.95 27.81Q16.54 20.32 13.99 13.50L14.16 13.67L14.15 13.67Q15.83 14.88 17.84 15.57L17.87 15.59L17.79 15.51Q19.29 21.35 19.48 27.22L19.59 27.33L19.56 27.29Q20.87 25.14 23.57 25.22L23.53 25.18L23.67 25.32Q28.70 25.36 28.82 30.73L28.85 30.76L28.77 30.68Q28.95 36.42 30.32 41.07L30.29 41.03L30.29 41.04Q28.43 40.20 26.68 40.01L26.70 40.03L26.75 40.09Q26.27 36.86 26.15 31.00ZM26.42 40.40L26.29 40.27L26.28 40.26Q27.50 40.57 28.60 40.83L28.51 40.74L28.56 40.79Q28.50 40.84 29.03 42.82L29.08 42.87L29.09 42.88Q31.98 43.75 33.99 45.20L34.07 45.27L34.05 45.25Q31.44 39.56 30.91 33.24L30.83 33.16L30.84 33.17Q30.50 29.45 29.10 27.89L29.14 27.94L29.16 27.96Q29.03 27.74 28.38 27.29L28.47 27.38L28.45 27.36Q28.14 26.78 27.50 26.02L27.66 26.18L27.65 26.10L27.67 26.12Q26.83 25.27 23.70 25.01L23.68 24.99L23.71 25.01Q22.88 24.90 21.47 25.25L21.55 25.33L21.47 25.25Q21.26 20.40 20.92 17.89L20.91 17.87L20.88 17.85Q20.09 17.71 18.61 17.40L18.59 17.38L18.67 17.46Q18.57 16.79 18.30 15.30L18.25 15.25L18.20 15.20Q15.30 14.28 13.44 12.72L13.46 12.75L13.41 12.70Q16.41 19.89 16.68 27.69L16.58 27.59L16.62 27.63Q16.88 35.39 14.33 42.74L14.36 42.77L14.44 42.85Q15.20 42.08 16.34 41.59L16.37 41.61L15.72 43.98L15.78 44.04Q18.80 42.60 20.78 42.41L20.72 42.36L20.87 42.51Q21.39 37.05 21.58 33.09L21.64 33.15L21.59 33.10Q21.64 31.21 23.58 30.10L23.62 30.14L23.70 30.22Q24.03 29.79 24.56 29.82L24.61 29.88L24.75 30.01Q24.72 29.83 25.06 29.87L25.17 29.97L25.57 30.03L25.57 30.03Q25.61 30.46 25.73 30.91L25.65 30.83L25.71 30.90Q25.84 36.89 26.34 40.32Z"/><path fill="#111" d="M114.29 47.10L114.26 47.07L114.20 47.01Q113.26 47.21 111.36 47.51L111.38 47.54L111.35 47.50Q112.72 45.42 113.75 44.12L113.69 44.06L113.70 44.07Q115.53 44.46 115.69 44.46L115.64 44.41L115.73 44.50Q116.03 44.58 116.57 44.46L116.49 44.38L116.57 44.47Q117.10 44.24 117.29 44.24L117.29 44.24L117.40 44.34Q119.83 43.96 119.75 41.79L119.92 41.96L119.87 41.90Q119.78 40.37 119.67 34.13L119.64 34.10L119.77 34.23Q119.54 30.50 119.62 26.35L119.72 26.45L121.17 26.30L121.04 26.17Q121.80 26.17 122.49 25.94L122.47 25.93L122.50 25.96Q122.19 30.29 122.23 34.67L122.27 34.71L122.30 34.74Q122.37 39.15 122.91 43.53L122.92 43.54L122.92 43.55Q122.84 43.70 122.84 43.96L122.96 44.08L122.90 44.02Q123.01 45.76 121.33 46.15L121.19 46.01L121.25 46.06Q118.06 46.37 114.21 47.02ZM121.12 22.94L118.92 19.74L118.84 19.67Q119.85 18.24 121.68 15.46L121.82 15.60L121.74 15.53Q122.40 16.42 123.73 18.24L123.76 18.27L121.06 22.88ZM124.04 49.46L123.97 49.39L123.97 49.40Q124.69 49.62 125.45 49.27L125.29 49.11L125.45 49.27Q125.70 48.49 125.70 48.03L125.72 48.06L125.77 48.11Q125.70 47.69 125.58 47.08L125.48 46.98L125.47 46.97Q124.18 40.62 124.18 32.70L124.16 32.68L124.25 32.77Q124.14 29.81 124.29 26.91L124.44 27.06L124.35 26.97Q123.79 27.13 122.65 27.43L122.70 27.49L122.64 27.42Q122.64 26.94 122.68 26.40L122.80 26.52L122.90 25.44L122.82 25.36Q121.22 26.13 119.43 26.16L119.43 26.16L119.41 26.14Q119.24 30.34 119.27 33.92L119.21 33.86L119.52 41.89L119.38 41.76Q119.55 43.83 117.38 43.94L117.33 43.89L117.43 44.00Q117.12 43.91 116.61 43.97L116.53 43.89L116.70 44.06Q116.09 44.03 115.83 44.03L115.79 43.99L115.74 43.95Q115.42 44.08 113.86 43.66L113.78 43.58L113.82 43.62Q113.29 44.16 112.19 45.83L112.28 45.93L110.65 48.14L110.78 48.27Q111.63 48.05 113.26 47.67L113.17 47.58L112.81 48.40L112.20 48.96L112.15 48.92Q114.42 48.75 115.75 48.82L115.80 48.88L115.93 49.01Q118.06 49.00 123.99 49.42ZM121.05 23.63L120.98 23.56L121.31 23.02L121.39 23.09Q121.81 23.59 122.76 25.19L122.60 25.03L122.61 25.03Q124.15 21.94 125.71 18.85L125.79 18.93L125.84 18.98Q124.82 17.35 123.87 16.06L123.85 16.03L123.84 16.03Q123.54 16.15 123.20 16.68L123.37 16.85L123.36 16.84Q122.92 16.17 121.93 14.87L121.84 14.79L121.90 14.85Q120.62 16.35 118.30 19.70L118.41 19.81L118.47 19.87Q119.33 21.03 121.04 23.62Z"/><path fill="#222" d="M75.41 30.92L75.31 30.82L75.38 30.89Q75.50 29.48 74.68 28.57L74.68 28.57L74.74 28.63Q73.83 27.63 72.39 27.67L72.33 27.61L72.32 27.60Q70.16 27.84 69.32 29.97L69.30 29.95L69.16 29.81Q69.03 30.75 68.99 31.43L68.89 31.33L68.94 31.38Q68.79 36.29 67.87 40.63L67.74 40.49L67.81 40.57Q66.07 41.04 64.21 42.03L64.22 42.04L64.19 42.01Q66.47 35.04 66.20 27.73L66.31 27.84L66.17 27.69Q66.05 20.49 63.50 13.68L63.48 13.66L63.42 13.60Q65.14 14.87 67.16 15.55L67.12 15.51L67.11 15.50Q68.60 21.33 68.79 27.19L68.81 27.22L68.76 27.17Q70.18 25.12 72.88 25.19L72.90 25.21L72.90 25.21Q77.94 25.26 78.05 30.63L78.13 30.71L78.04 30.62Q78.32 36.45 79.69 41.10L79.58 40.99L79.71 41.12Q77.74 40.18 75.99 39.99L76.05 40.05L76.02 40.02Q75.41 36.67 75.30 30.81ZM75.79 40.44L75.64 40.29L75.77 40.42Q76.74 40.47 77.84 40.74L77.78 40.68L77.96 40.86Q77.87 40.88 78.40 42.86L78.40 42.86L78.41 42.87Q81.31 43.75 83.33 45.20L83.40 45.27L83.44 45.31Q80.65 39.44 80.12 33.12L80.23 33.22L80.14 33.14Q79.96 29.57 78.56 28.01L78.39 27.85L78.56 28.02Q78.44 27.82 77.79 27.36L77.86 27.43L77.79 27.36Q77.60 26.91 76.95 26.15L76.85 26.04L76.86 25.97L76.97 26.08Q76.10 25.22 72.98 24.95L72.90 24.88L72.86 24.84Q72.17 24.86 70.76 25.21L70.87 25.31L70.72 25.17Q70.66 20.47 70.32 17.95L70.30 17.93L70.32 17.95Q69.50 17.77 68.01 17.47L68.02 17.48L67.97 17.42Q67.76 16.65 67.50 15.16L67.57 15.24L67.57 15.24Q64.58 14.23 62.72 12.67L62.83 12.78L62.82 12.77Q65.77 19.91 66.04 27.72L65.99 27.66L65.92 27.60Q66.34 35.52 63.79 42.86L63.71 42.78L63.69 42.77Q64.70 42.25 65.84 41.76L65.82 41.74L65.07 43.99L65.04 43.96Q68.19 42.66 70.17 42.47L70.07 42.37L70.12 42.42Q70.68 37.01 70.87 33.05L70.93 33.10L70.82 32.99Q71.06 31.30 73.00 30.19L72.94 30.12L72.99 30.18Q73.37 29.79 73.90 29.83L74.04 29.97L73.90 29.83Q74.07 29.85 74.42 29.89L74.46 29.93L74.96 30.09L74.91 30.04Q74.97 30.49 75.09 30.94L75.01 30.86L74.95 30.80Q75.14 36.86 75.64 40.29Z"/><path fill="#222" d="M89.05 15.81L89.05 15.80L89.05 15.80Q91.00 20.72 91.57 25.89L91.49 25.82L91.62 25.94Q95.35 21.83 101.25 17.00L101.28 17.03L101.16 16.91Q104.30 16.54 106.92 15.74L107.00 15.82L100.39 21.39L100.40 21.41Q96.99 24.36 94.14 27.21L94.22 27.29L94.10 27.17Q102.06 36.31 107.12 41.03L107.24 41.15L107.29 41.20Q104.05 40.13 101.73 39.98L101.85 40.10L101.71 39.96Q96.06 34.69 91.75 28.86L91.62 28.73L91.63 28.73Q91.87 35.49 90.01 40.82L89.90 40.71L90.03 40.84Q89.72 40.79 89.22 40.98L89.21 40.97L89.16 41.11L89.21 41.16Q89.07 41.25 86.52 42.16L86.49 42.14L86.44 42.09Q89.35 35.48 89.01 28.02L88.98 27.99L89.08 28.09Q88.76 20.77 85.22 14.26L85.17 14.21L85.78 14.55L86.13 14.79L86.24 14.85L86.20 14.81Q86.81 15.08 89.01 15.77ZM89.40 15.58L89.45 15.63L89.36 15.54Q87.02 14.92 84.40 13.39L84.52 13.51L84.37 13.37Q88.81 20.82 88.81 29.77L88.75 29.70L88.85 29.80Q88.77 36.73 85.80 42.78L85.86 42.84L87.91 42.00L87.83 41.92Q87.37 42.87 86.69 44.16L86.83 44.30L86.69 44.16Q89.08 43.51 91.02 43.09L90.84 42.91L91.03 42.87L91.07 42.91Q91.27 42.80 91.84 42.65L91.77 42.58L91.84 42.66Q93.52 36.76 93.64 31.96L93.57 31.89L93.63 31.95Q95.70 34.45 97.53 36.31L97.50 36.28L97.60 36.38Q98.66 37.36 101.66 40.33L101.73 40.40L101.66 40.33L101.84 40.51Q102.73 41.21 104.59 42.81L104.53 42.74L104.53 42.74Q108.59 43.64 112.05 45.35L111.92 45.22L111.90 45.20Q102.75 36.77 96.51 29.35L96.43 29.27L96.48 29.32Q100.90 25.06 109.65 16.46L109.49 16.30L109.56 16.37Q107.13 17.63 105.11 18.01L104.95 17.84L105.03 17.92Q106.28 16.96 108.60 14.95L108.61 14.96L108.61 14.96Q104.38 16.25 101.03 16.44L101.05 16.46L101.16 16.57Q98.11 18.65 93.23 23.34L93.30 23.40L93.32 23.42Q92.85 20.74 92.27 18.19L92.44 18.35L92.25 18.17Q91.21 18.15 90.22 17.81L90.20 17.79L90.22 17.81Q90.04 17.09 89.47 15.65Z"/></svg>