<svg xmlns="http://www.w3.org/2000/svg" width="150" height="50" viewBox="0,0,150,50"><path fill="#222" d="M42.44 32.90L42.58 33.04L42.60 33.05Q45.63 32.62 48.82 32.73L48.85 32.76L48.88 32.79Q48.68 30.07 48.68 27.68L48.70 27.70L48.75 27.74Q48.80 25.32 48.99 22.77L48.96 22.74L48.86 22.64Q47.72 24.44 42.51 32.96ZM52.48 40.38L52.47 40.38L52.30 40.21Q50.68 39.95 48.89 39.88L49.01 40.00L48.90 39.89Q48.75 37.57 48.64 35.10L48.71 35.17L48.72 35.18Q43.36 34.95 38.64 36.36L38.61 36.34L38.59 36.31Q38.74 35.86 38.93 34.87L38.93 34.87L38.80 34.74Q40.75 31.73 44.32 25.45L44.35 25.48L44.29 25.42Q47.22 20.58 50.64 16.70L50.64 16.69L50.47 16.53Q51.40 16.39 53.08 16.13L53.06 16.10L53.05 16.10Q51.26 22.64 51.26 29.69L51.23 29.66L51.19 29.62Q51.23 31.14 51.31 32.63L51.23 32.55L52.65 32.78L52.55 32.69Q53.11 32.68 53.72 32.80L53.77 32.85L53.89 32.97Q53.90 33.85 54.17 35.79L54.21 35.84L54.24 35.86Q53.00 35.57 51.51 35.38L51.50 35.37L51.56 35.43Q51.64 37.30 52.33 40.24ZM54.13 32.56L54.01 32.44L54.03 32.45Q53.81 32.35 53.62 32.35L53.60 32.33L53.25 32.36L53.37 32.48Q53.17 30.91 53.17 29.50L53.17 29.50L53.18 29.51Q53.19 23.13 55.25 17.12L55.16 17.03L55.32 17.19Q54.42 17.32 52.98 17.70L53.04 17.76L53.09 17.81Q53.28 17.02 53.74 15.61L53.73 15.59L53.69 15.56Q52.36 15.90 50.30 16.13L50.36 16.18L50.44 16.27Q46.51 20.60 41.30 29.96L41.18 29.85L43.40 26.32L43.39 26.31Q42.85 27.22 42.59 27.79L42.62 27.82L38.11 36.79L38.26 36.94Q38.78 36.66 39.93 36.28L40.00 36.36L39.90 36.64L39.86 36.60Q39.74 37.28 39.44 38.54L39.50 38.60L39.50 38.60Q43.49 37.14 48.32 37.33L48.41 37.42L48.31 37.32Q48.38 38.30 48.57 40.28L48.63 40.34L48.65 40.36Q49.67 40.32 50.74 40.44L50.68 40.38L50.74 40.44Q50.84 41.07 51.11 42.44L51.21 42.54L51.13 42.46Q53.10 42.75 56.10 43.67L56.01 43.57L56.15 43.71Q55.03 41.45 54.11 38.17L54.24 38.30L55.60 38.67L55.63 38.70Q56.37 38.99 57.06 39.33L57.00 39.28L57.04 39.31Q56.15 36.71 56.00 35.03L56.05 35.09L56.03 35.06Q55.40 34.86 54.26 34.63L54.24 34.61L54.29 34.66Q54.12 33.42 54.12 32.54ZM46.10 32.37L46.16 32.43L45.99 32.26Q46.89 31.10 48.45 28.55L48.41 28.51L48.32 28.42Q48.33 29.39 48.29 30.34L48.33 30.37L48.40 30.44Q48.41 31.44 48.45 32.40L48.41 32.36L48.41 32.35Q47.81 32.29 47.24 32.29L47.20 32.25L47.21 32.26Q46.78 32.44 46.17 32.44Z"/><path fill="#333" d="M119.63 28.99L119.64 28.99L119.62 28.98Q116.93 28.84 115.90 30.02L116.05 30.16L116.02 30.14Q114.89 31.21 114.89 33.84L115.00 33.95L114.90 33.85Q114.96 39.01 119.56 38.82L119.49 38.74L119.59 38.84Q121.57 38.92 122.92 37.36L123.02 37.46L122.99 37.43Q124.43 35.95 124.20 33.90L124.06 33.76L124.17 33.86Q124.04 31.19 123.16 30.16L123.16 30.16L123.35 30.34Q121.81 28.96 119.61 28.96ZM124.52 38.63L124.63 38.75L124.57 38.69Q123.50 41.27 118.82 41.27L118.73 41.18L117.33 41.23L117.23 41.13Q114.91 41.17 113.80 40.02L113.87 40.09L113.72 39.95Q112.80 39.02 112.54 36.62L112.49 36.58L112.46 36.55Q112.35 35.11 112.28 33.32L112.29 33.33L112.22 33.26Q112.21 32.31 112.06 30.36L112.13 30.43L112.14 30.44Q111.99 26.10 117.17 26.10L117.12 26.06L118.78 26.16L118.68 26.05Q121.68 26.16 123.77 27.46L123.63 27.32L123.75 27.43Q124.55 27.93 125.05 28.62L125.08 28.65L124.95 28.52Q125.30 27.81 125.84 26.17L125.85 26.19L125.83 26.16Q127.04 25.97 129.36 25.36L129.30 25.30L129.43 25.43Q126.68 29.49 126.68 34.75L126.72 34.78L126.81 34.88Q126.84 38.63 128.21 41.72L128.13 41.63L128.09 41.59Q126.95 41.30 125.05 41.07L125.11 41.13L125.09 41.11Q124.94 40.32 124.64 38.75ZM127.93 43.95L127.87 43.89L130.16 44.54L130.16 44.55Q131.30 44.77 132.29 45.22L132.37 45.30L132.35 45.28Q128.74 40.99 128.74 34.90L128.64 34.80L128.66 34.81Q128.62 30.25 130.75 26.44L130.73 26.42L130.72 26.41Q130.11 26.67 128.78 27.05L128.87 27.15L128.86 27.14Q129.21 26.38 130.08 24.86L130.02 24.80L129.99 24.77Q129.39 24.92 125.39 25.76L125.44 25.82L124.88 27.65L124.84 27.61Q123.05 25.85 118.63 25.63L118.65 25.65L118.66 25.65Q117.62 25.76 115.37 25.91L115.42 25.96L115.33 25.87Q111.72 26.29 111.83 30.32L111.86 30.35L111.69 30.19Q111.94 33.63 112.51 38.08L112.37 37.95L112.46 38.46L112.53 38.53Q112.65 39.37 113.45 40.47L113.49 40.51L113.49 40.52Q113.63 40.65 113.82 40.77L113.82 40.77L113.69 40.64Q114.06 41.23 114.44 41.81L114.29 41.66L114.30 41.66Q115.71 43.19 119.10 43.38L119.21 43.49L119.08 43.36Q120.81 43.57 120.96 43.57L120.94 43.54L122.48 43.52L122.59 43.64Q125.81 43.65 127.02 42.09L126.90 41.97L127.00 42.06Q127.28 42.61 127.89 43.91ZM121.36 31.18L121.37 31.18L121.38 31.19Q122.69 31.18 123.53 31.63L123.53 31.63L123.49 31.59Q123.89 32.48 123.89 33.93L123.85 33.89L123.78 33.83Q123.95 35.70 122.67 37.13L122.65 37.11L122.65 37.11Q121.47 38.63 119.57 38.44L119.50 38.37L119.48 38.35Q118.10 38.43 117.08 38.01L117.00 37.93L117.13 38.06Q116.84 37.12 116.84 35.90L116.82 35.88L116.94 36.01Q117.05 32.46 119.68 31.51L119.63 31.47L119.62 31.45Q120.49 31.11 121.29 31.11Z"/><path fill="#222" d="M15.02 15.78L15.17 15.92L15.16 15.91Q16.96 20.68 17.53 25.86L17.59 25.91L17.64 25.96Q21.24 21.72 27.14 16.89L27.11 16.86L27.12 16.87Q30.37 16.62 33.00 15.82L33.02 15.84L26.36 21.36L26.37 21.37Q23.01 24.37 20.15 27.23L20.15 27.22L20.08 27.15Q28.11 36.36 33.17 41.08L33.28 41.19L33.24 41.15Q30.05 40.13 27.73 39.98L27.69 39.94L27.82 40.07Q22.00 34.63 17.70 28.81L17.73 28.83L17.78 28.89Q17.89 35.50 16.02 40.83L15.95 40.77L15.99 40.81Q15.65 40.73 15.16 40.92L15.25 41.01L15.15 41.11L15.28 41.23Q15.03 41.21 12.47 42.12L12.51 42.16L12.36 42.01Q15.47 35.60 15.13 28.14L15.10 28.11L15.08 28.09Q14.74 20.74 11.20 14.23L11.20 14.23L11.67 14.44L12.08 14.74L12.10 14.72L12.15 14.77Q12.86 15.13 15.07 15.82ZM15.47 15.65L15.33 15.51L15.30 15.48Q13.06 14.96 10.44 13.43L10.43 13.43L10.40 13.40Q14.71 20.72 14.71 29.66L14.84 29.79L14.71 29.67Q14.72 36.68 11.75 42.73L11.87 42.85L13.83 41.92L13.78 41.87Q13.48 42.97 12.79 44.27L12.66 44.14L12.82 44.30Q15.06 43.49 17.00 43.07L16.94 43.01L17.05 42.89L17.11 42.95Q17.33 42.86 17.90 42.71L17.81 42.62L17.86 42.67Q19.48 36.71 19.59 31.92L19.52 31.85L19.60 31.93Q21.68 34.43 23.51 36.29L23.49 36.27L23.57 36.35Q24.75 37.46 27.76 40.43L27.80 40.47L27.84 40.51L27.68 40.35Q28.77 41.25 30.63 42.84L30.65 42.86L30.64 42.85Q34.41 43.46 37.87 45.17L37.98 45.28L37.91 45.21Q28.56 36.59 22.32 29.16L22.38 29.22L22.39 29.24Q26.84 25.00 35.59 16.40L35.66 16.46L35.67 16.48Q32.96 17.45 30.94 17.84L30.96 17.85L31.08 17.97Q32.33 17.02 34.66 15.00L34.57 14.91L34.49 14.84Q30.51 16.37 27.16 16.57L27.05 16.46L27.11 16.52Q24.24 18.78 19.36 23.47L19.32 23.42L19.26 23.36Q18.91 20.80 18.34 18.25L18.30 18.22L18.44 18.36Q17.07 18.02 16.08 17.67L16.10 17.69L16.27 17.86Q15.92 16.98 15.35 15.53Z"/><path fill="#333" d="M71.83 41.28L71.96 41.40L71.88 41.32Q68.98 41.47 67.72 40.94L67.76 40.97L67.71 40.93Q65.90 40.26 65.98 37.79L65.84 37.65L65.88 37.68Q66.06 34.32 66.06 34.89L66.08 34.92L66.11 34.95Q66.02 29.52 63.16 24.69L63.23 24.76L63.21 24.74Q65.17 25.67 67.15 26.05L67.15 26.05L67.25 26.15Q68.82 30.62 68.71 35.11L68.67 35.07L68.84 35.24Q68.65 36.69 69.49 37.91L69.37 37.78L69.52 37.94Q70.39 39.22 71.91 39.03L71.85 38.97L72.18 38.80L72.32 38.94Q73.52 38.74 74.34 37.98L74.46 38.10L74.51 38.15Q75.20 37.26 75.20 36.31L75.19 36.30L75.29 36.40Q75.30 36.18 75.26 35.99L75.18 35.90L75.18 35.90Q75.14 30.69 76.28 26.35L76.28 26.35L76.17 26.24Q77.21 26.18 78.20 25.95L78.29 26.04L80.31 25.55L80.24 25.47Q77.82 30.63 78.13 36.19L78.10 36.17L77.99 36.06Q78.22 39.18 76.51 40.32L76.50 40.31L76.63 40.44Q75.29 41.27 71.98 41.42ZM74.17 43.69L74.28 43.80L74.16 43.68Q77.70 43.91 79.53 43.15L79.55 43.17L79.50 43.12Q80.42 42.37 80.42 40.96L80.40 40.93L80.54 41.07Q80.47 40.09 80.21 38.53L80.09 38.42L80.24 38.57Q79.81 35.47 80.19 32.46L80.04 32.31L80.16 32.43Q80.55 29.29 81.96 26.54L81.97 26.55L81.96 26.54Q81.19 26.73 79.86 27.15L79.95 27.23L79.89 27.17Q80.24 26.69 80.54 26.12L80.49 26.07L81.05 24.91L81.02 24.88Q79.04 25.49 75.88 25.98L75.86 25.96L75.86 25.97Q74.78 30.90 74.93 36.00L74.90 35.97L74.81 35.88Q74.93 38.02 72.27 38.51L72.17 38.42L71.85 38.55L71.70 38.56L70.78 38.43L70.88 38.53Q70.68 37.54 70.72 37.04L70.68 37.00L70.80 37.12Q71.01 32.61 70.32 28.19L70.17 28.05L69.29 28.07L69.28 28.06Q68.78 28.06 68.24 27.94L68.13 27.83L68.20 27.90Q67.86 26.53 67.60 25.77L67.52 25.70L67.42 25.60Q64.74 25.28 62.50 23.98L62.44 23.93L62.58 24.07Q64.67 27.52 65.39 30.91L65.26 30.79L65.28 30.81Q65.92 33.15 65.77 36.66L65.78 36.67L65.74 36.63Q65.81 36.82 65.74 37.92L65.66 37.85L65.54 37.73Q65.47 40.17 66.84 41.12L66.91 41.19L66.77 41.05Q67.20 43.35 74.21 43.73Z"/><path fill="#111" d="M105.21 41.65L105.17 41.61L105.11 41.55Q103.05 41.20 100.88 41.05L100.88 41.05L100.81 40.98Q99.40 39.57 96.73 35.73L96.78 35.78L96.77 35.76Q94.48 38.77 92.08 41.20L92.07 41.18L89.98 41.57L90.02 41.61Q88.96 41.80 87.97 42.07L88.03 42.14L87.90 42.01Q92.08 37.88 95.09 33.77L95.13 33.81L95.22 33.90Q91.82 29.60 86.42 24.80L86.56 24.94L86.59 24.97Q88.67 25.57 91.37 25.98L91.42 26.03L91.38 25.99Q94.94 29.21 96.85 31.92L96.76 31.83L96.82 31.89Q98.89 28.78 101.63 26.27L101.75 26.39L101.63 26.27Q104.80 26.05 106.62 25.55L106.44 25.36L106.56 25.49Q102.02 29.14 98.33 33.70L98.30 33.68L98.40 33.77Q101.62 38.29 105.08 41.53ZM107.91 24.63L107.93 24.65L107.98 24.70Q105.17 25.62 101.63 25.97L101.49 25.82L101.57 25.90Q98.59 28.49 96.88 30.96L97.03 31.11L96.90 30.98Q96.10 30.03 94.46 28.05L94.50 28.08L94.16 27.93L94.15 27.92Q94.01 27.90 93.89 27.90L93.99 28.00L93.98 27.98Q93.27 27.20 91.63 25.75L91.55 25.67L91.48 25.60Q87.91 25.08 85.06 23.86L85.15 23.95L85.05 23.85Q90.74 28.82 94.78 33.96L94.67 33.85L94.76 33.94Q91.25 38.42 86.83 42.73L86.98 42.88L87.00 42.89Q87.18 42.73 90.68 41.89L90.72 41.93L90.63 41.84Q89.15 43.22 87.52 44.55L87.41 44.44L87.59 44.62Q90.76 43.69 93.92 43.50L93.82 43.40L93.90 43.48Q96.23 41.16 98.14 38.42L98.16 38.45L98.17 38.46Q99.49 40.12 100.71 41.30L100.86 41.45L100.77 41.36Q100.97 41.44 101.04 41.52L101.07 41.54L101.08 41.37L101.25 41.53Q102.43 42.57 103.77 43.63L103.68 43.54L103.78 43.64Q107.30 44.12 110.19 45.15L110.26 45.21L110.23 45.19Q103.96 40.63 100.27 35.45L100.36 35.54L100.29 35.47Q103.98 30.48 108.55 26.41L108.63 26.49L108.62 26.48Q107.61 26.77 106.62 27.00L106.73 27.10L104.58 27.43L104.58 27.43Q105.89 26.65 108.06 24.78Z"/></svg>