<svg xmlns="http://www.w3.org/2000/svg" width="150" height="50" viewBox="0,0,150,50"><path fill="#222" d="M46.43 29.20L46.32 29.09L46.38 29.15Q44.46 28.94 43.23 30.37L43.24 30.39L43.27 30.42Q41.97 31.78 41.78 33.68L41.80 33.70L41.93 33.83Q41.68 35.87 42.77 36.84L42.80 36.87L42.69 36.77Q43.85 37.81 45.95 37.70L45.83 37.58L45.95 37.70Q47.95 37.45 49.05 36.77L49.04 36.76L49.09 36.80Q50.28 35.75 50.28 34.19L50.32 34.23L50.28 34.19Q50.28 33.81 50.20 33.43L50.21 33.44L50.25 33.47Q50.20 31.67 49.10 30.32L49.08 30.31L49.21 30.43Q48.02 29.00 46.35 29.11ZM45.96 40.26L45.87 40.18L46.02 40.32Q41.51 40.19 40.10 39.43L40.16 39.49L40.14 39.47Q39.12 38.71 38.93 37.00L38.83 36.90L38.82 36.89Q38.93 36.35 38.97 35.63L38.88 35.54L38.96 35.62Q38.96 34.52 38.96 34.06L39.02 34.12L38.98 34.08Q39.48 31.27 39.63 30.58L39.72 30.67L39.67 30.62Q40.09 28.64 40.92 27.23L41.01 27.32L40.91 27.21Q43.56 22.83 49.50 16.47L49.47 16.44L49.55 16.52Q52.22 16.21 54.42 15.42L54.37 15.37L54.37 15.36Q47.56 22.87 44.37 27.09L44.46 27.19L44.42 27.15Q45.43 26.67 46.73 26.67L46.72 26.67L46.69 26.64Q49.95 26.59 51.47 28.53L51.44 28.49L51.51 28.56Q52.83 30.19 53.17 33.73L53.18 33.74L53.09 33.64Q53.18 34.39 53.18 35.00L53.18 35.00L53.18 34.99Q53.25 38.19 51.05 39.26L51.10 39.31L51.10 39.31Q49.72 39.76 45.84 40.14ZM48.24 42.66L48.22 42.63L48.25 42.67Q49.47 42.55 51.45 42.63L51.47 42.65L51.42 42.60Q53.09 42.71 54.65 41.99L54.62 41.96L54.76 42.09Q55.85 41.29 55.85 39.50L55.71 39.35L55.77 39.42Q55.79 38.94 55.62 37.95L55.66 37.99L55.61 37.94Q55.46 36.97 55.46 36.51L55.46 36.51L55.48 36.53Q54.60 31.80 53.00 29.90L52.97 29.87L52.93 29.84Q52.98 29.85 52.83 29.62L52.67 29.46L52.47 29.34L52.32 29.22L52.31 29.22Q51.99 28.74 51.38 27.79L51.45 27.86L51.46 27.86Q50.43 26.80 48.45 26.35L48.57 26.47L48.43 26.32Q49.66 24.74 52.63 21.05L52.62 21.03L56.84 15.74L56.94 15.84Q55.27 16.61 52.88 17.37L52.88 17.37L52.88 17.38Q53.98 16.57 55.77 14.59L55.65 14.47L55.58 14.40Q53.27 15.56 49.39 16.13L49.30 16.04L49.30 16.04Q43.65 22.00 40.68 26.95L40.75 27.02L40.70 26.97Q39.15 29.45 38.57 35.69L38.71 35.82L38.64 35.76Q38.56 36.32 38.63 37.28L38.64 37.28L38.56 37.20Q38.64 38.95 39.74 39.87L39.79 39.92L39.81 39.94Q40.22 40.11 40.18 40.15L40.24 40.21L40.08 40.06Q40.53 41.04 41.33 41.46L41.39 41.51L41.36 41.49Q42.73 42.10 44.67 42.29L44.65 42.27L44.75 42.37Q44.76 42.37 48.26 42.67ZM47.96 31.38L47.96 31.37L47.99 31.40Q48.56 31.29 49.51 31.78L49.42 31.69L49.45 31.73Q49.79 32.67 49.79 33.32L49.92 33.45L49.91 33.44Q50.07 35.27 49.12 36.26L49.03 36.17L49.04 36.18Q47.95 36.89 45.86 37.19L45.88 37.21L45.99 37.32Q44.57 37.35 44.04 37.09L43.85 36.89L43.88 36.92Q43.79 36.56 43.79 36.26L43.77 36.24L43.81 36.29Q43.46 32.89 46.39 31.60L46.52 31.72L46.46 31.66Q47.25 31.35 48.01 31.43Z"/><path fill="#222" d="M24.94 39.88L24.98 39.91L22.96 39.84L22.91 39.78Q22.03 39.86 21.08 39.97L21.03 39.92L20.98 39.87Q21.59 33.71 21.59 29.71L21.65 29.77L21.68 29.80Q17.72 23.14 10.07 14.46L10.04 14.43L10.06 14.45Q11.87 15.46 15.22 16.26L15.25 16.29L15.14 16.18Q20.22 21.79 23.22 27.00L23.29 27.07L23.32 27.10Q26.17 21.39 30.55 16.36L30.60 16.41L30.60 16.41Q32.96 15.95 35.47 15.15L35.55 15.23L35.60 15.28Q29.53 21.35 24.65 29.77L24.65 29.76L24.61 29.72Q24.53 36.68 24.83 39.77ZM34.01 17.27L36.80 14.50L36.74 14.44Q33.67 15.64 30.55 16.09L30.53 16.07L30.41 15.95Q26.21 20.70 23.39 25.80L23.38 25.78L23.56 25.97Q21.40 22.29 18.21 18.41L18.15 18.35L18.08 18.28Q17.80 18.27 17.30 18.19L17.33 18.22L17.42 18.30Q16.64 17.41 15.12 15.74L15.15 15.77L15.18 15.80Q11.70 14.94 8.73 13.38L8.89 13.54L8.80 13.46Q16.55 21.96 21.31 29.88L21.22 29.80L21.36 29.94Q21.20 36.21 20.59 40.36L20.60 40.36L20.61 40.38Q21.29 40.29 22.73 40.18L22.69 40.14L22.70 41.18L22.69 41.16Q22.72 41.65 22.65 42.19L22.72 42.26L22.69 42.23Q26.28 42.28 28.04 42.47L28.03 42.46L27.97 42.41Q26.73 37.74 26.62 31.77L26.58 31.73L26.71 31.86Q31.06 23.38 37.61 16.03L37.47 15.89L33.99 17.25Z"/><path fill="#111" d="M120.36 29.12L120.34 29.11L120.36 29.12Q118.61 29.09 117.37 30.52L117.18 30.33L117.34 30.48Q115.95 31.76 115.76 33.66L115.80 33.70L115.89 33.80Q115.65 35.83 116.73 36.80L116.65 36.73L116.75 36.83Q117.85 37.81 119.94 37.69L119.82 37.57L119.93 37.68Q121.97 37.48 123.07 36.79L122.99 36.71L123.01 36.72Q124.30 35.77 124.30 34.21L124.33 34.24L124.24 34.15Q124.23 33.75 124.15 33.37L124.20 33.42L124.18 33.41Q124.25 31.72 123.14 30.37L123.07 30.29L123.04 30.27Q121.98 28.96 120.31 29.07ZM119.88 40.18L119.88 40.18L120.01 40.32Q115.63 40.31 114.22 39.55L114.09 39.42L114.04 39.37Q113.04 38.63 112.85 36.92L112.92 36.99L112.94 37.01Q112.86 36.28 112.90 35.56L112.82 35.48L113.01 35.67Q113.10 34.66 113.10 34.20L113.13 34.24L113.00 34.11Q113.50 31.29 113.65 30.60L113.58 30.53L113.60 30.56Q114.01 28.56 114.85 27.15L115.03 27.33L114.84 27.15Q117.61 22.88 123.55 16.52L123.52 16.49L123.45 16.42Q126.29 16.29 128.50 15.49L128.45 15.44L128.37 15.36Q121.61 22.92 118.42 27.14L118.27 27.00L118.35 27.08Q119.45 26.69 120.74 26.69L120.61 26.56L120.64 26.59Q123.95 26.59 125.47 28.53L125.53 28.58L125.58 28.64Q126.87 30.23 127.21 33.77L127.24 33.80L127.21 33.77Q127.17 34.37 127.17 34.98L127.18 34.99L127.18 34.99Q127.20 38.13 124.99 39.20L125.10 39.31L125.01 39.22Q123.90 39.94 120.02 40.32ZM122.31 42.72L122.16 42.58L122.20 42.62Q123.49 42.58 125.47 42.65L125.53 42.71L125.49 42.67Q127.19 42.81 128.75 42.08L128.71 42.04L128.71 42.05Q129.73 41.17 129.73 39.38L129.76 39.40L129.77 39.41Q129.88 39.02 129.70 38.03L129.71 38.04L129.53 37.86Q129.53 37.04 129.53 36.59L129.53 36.58L129.43 36.48Q128.48 31.69 126.88 29.79L127.02 29.92L126.93 29.84Q126.80 29.66 126.64 29.43L126.74 29.53L126.43 29.29L126.29 29.19L126.30 29.21Q126.09 28.84 125.48 27.89L125.48 27.89L125.50 27.91Q124.50 26.88 122.53 26.42L122.60 26.49L122.61 26.50Q123.70 24.78 126.67 21.09L126.67 21.08L131.01 15.90L130.88 15.78Q129.28 16.62 126.88 17.38L126.94 17.44L127.07 17.56Q127.86 16.45 129.65 14.47L129.73 14.55L129.76 14.58Q127.33 15.61 123.45 16.19L123.33 16.07L123.44 16.18Q117.64 21.99 114.67 26.94L114.72 26.99L114.61 26.88Q113.12 29.42 112.55 35.67L112.60 35.71L112.67 35.79Q112.48 36.25 112.56 37.20L112.71 37.35L112.53 37.17Q112.71 39.02 113.81 39.94L113.73 39.86L113.82 39.95Q114.14 40.04 114.10 40.07L114.06 40.03L114.05 40.02Q114.43 40.93 115.22 41.35L115.27 41.40L115.41 41.54Q116.69 42.06 118.63 42.25L118.65 42.26L118.67 42.28Q118.67 42.28 122.17 42.59ZM122.08 31.49L121.98 31.39L121.93 31.34Q122.53 31.26 123.49 31.76L123.45 31.72L123.58 31.85Q123.77 32.65 123.77 33.29L123.82 33.35L123.86 33.38Q124.09 35.29 123.13 36.28L123.04 36.18L123.16 36.30Q121.92 36.85 119.83 37.16L119.94 37.27L119.86 37.20Q118.58 37.35 118.04 37.09L117.93 36.97L118.04 37.08Q117.76 36.54 117.76 36.23L117.68 36.16L117.74 36.21Q117.63 33.05 120.56 31.76L120.53 31.74L120.53 31.73Q121.23 31.33 121.99 31.41Z"/><path fill="#444" d="M97.39 40.13L97.39 40.13L95.29 40.32L95.21 40.23Q94.92 40.40 93.94 40.45L93.87 40.38L93.90 40.41Q92.85 40.38 92.35 40.38L92.44 40.47L92.32 40.35Q90.65 40.32 89.63 39.49L89.78 39.64L89.64 39.50Q90.59 38.54 92.22 36.41L92.19 36.38L92.17 36.36Q93.41 37.91 95.62 37.68L95.68 37.74L95.61 37.67Q96.61 37.64 97.26 37.00L97.13 36.86L97.17 36.90Q97.78 36.22 97.67 35.35L97.64 35.32L97.73 35.40Q97.69 30.88 97.77 26.31L97.65 26.19L97.68 26.22Q97.70 21.59 98.23 16.99L98.17 16.93L98.23 16.99Q100.14 16.77 102.27 15.74L102.31 15.78L102.28 15.75Q100.39 22.46 100.39 29.70L100.45 29.75L100.45 29.75Q100.54 33.39 101.00 36.89L100.85 36.74L100.88 36.77Q101.06 37.22 101.06 37.56L100.99 37.49L101.01 37.51Q101.05 38.11 100.82 38.65L100.72 38.55L100.71 38.54Q100.12 39.78 97.30 40.04ZM102.26 42.91L102.38 43.03L102.66 42.97L103.00 42.89L103.16 42.67L103.20 42.71Q103.56 42.49 103.63 42.38L103.54 42.29L103.59 42.34Q103.74 41.11 103.47 40.12L103.49 40.14L103.41 40.06Q102.16 34.36 102.43 28.00L102.35 27.92L102.44 28.01Q102.60 21.81 104.39 15.91L104.53 16.05L104.52 16.04Q103.55 16.60 102.29 17.32L102.41 17.43L102.31 17.33Q102.42 16.50 102.84 14.98L102.91 15.05L102.87 15.01Q100.39 16.37 97.73 16.68L97.74 16.68L97.69 16.64Q97.39 21.09 97.31 26.04L97.24 25.97L97.39 26.12Q97.25 31.96 97.33 35.39L97.31 35.37L97.40 35.46Q97.42 37.19 95.67 37.35L95.58 37.26L95.63 37.31Q93.81 37.31 92.14 35.68L92.27 35.81L92.27 35.81Q90.13 38.24 89.18 39.80L89.16 39.78L89.32 39.94Q89.83 40.45 90.85 40.68L90.87 40.69L90.87 40.70Q90.77 40.82 90.50 41.04L90.53 41.07L90.54 41.09Q92.10 42.15 94.08 42.41L94.05 42.39L94.08 42.41Q94.28 42.27 97.57 42.58L97.64 42.65L97.56 42.56Q100.94 42.96 102.31 42.96Z"/><path fill="#444" d="M68.36 40.30L68.36 40.30L68.35 40.29Q64.33 40.57 63.34 38.25L63.34 38.25L63.46 38.37Q64.09 37.28 65.65 35.49L65.60 35.45L65.75 35.60Q66.15 37.51 69.15 37.63L69.18 37.65L69.30 37.77Q72.50 37.66 74.14 36.33L74.24 36.43L74.29 36.48Q75.65 34.83 75.57 32.13L75.60 32.16L75.50 32.06Q75.33 26.98 70.53 27.21L70.63 27.31L70.55 27.22Q67.74 27.38 65.99 28.64L65.98 28.63L65.64 28.44L65.61 28.49L65.58 28.46Q65.79 25.17 65.68 22.43L65.72 22.47L65.83 22.58Q65.72 19.96 65.38 16.65L65.21 16.48L65.32 16.58Q68.91 17.47 72.71 17.36L72.69 17.33L72.80 17.44Q76.62 17.38 80.20 16.12L80.22 16.15L79.58 17.60L79.58 17.60Q79.24 18.32 79.05 19.16L79.14 19.26L79.06 19.17Q75.98 20.24 72.09 20.24L72.07 20.21L71.97 20.12Q70.60 20.19 69.11 20.04L69.20 20.13L69.21 20.14Q69.11 20.79 68.76 25.24L68.68 25.17L68.77 25.25Q69.56 24.75 71.62 24.60L71.51 24.49L71.60 24.58Q75.43 24.90 76.87 26.58L76.75 26.45L76.82 26.52Q78.11 27.96 78.37 31.81L78.32 31.76L78.46 31.90Q78.74 36.09 77.52 38.11L77.39 37.98L77.47 38.06Q75.54 40.05 72.22 40.28L72.19 40.24L72.12 40.18Q71.01 40.13 68.35 40.29ZM74.45 42.62L74.57 42.74L74.55 42.72Q77.96 42.78 79.86 41.68L79.75 41.56L79.83 41.65Q80.76 40.06 80.76 37.97L80.78 37.98L80.83 38.03Q80.85 34.97 79.89 30.86L79.87 30.83L79.79 30.76Q79.53 29.12 78.31 27.71L78.27 27.67L78.39 27.83L78.08 27.44L77.64 27.15L77.79 27.30Q77.40 26.49 76.75 25.81L76.69 25.75L76.78 25.87L76.73 25.82Q75.28 24.22 71.59 24.22L71.57 24.20L71.24 24.15L71.25 24.15Q71.47 23.73 71.66 22.62L71.63 22.59L71.49 22.45Q76.63 22.72 80.66 21.08L80.51 20.93L80.57 20.99Q81.08 19.67 82.03 16.85L81.94 16.76L79.85 17.72L79.79 17.65Q80.22 16.56 80.71 15.42L80.84 15.54L80.68 15.38Q76.88 16.88 72.77 16.96L72.70 16.88L72.84 17.02Q68.58 16.99 64.62 15.89L64.81 16.07L64.66 15.93Q65.42 20.42 65.42 24.83L65.44 24.85L65.45 24.87Q65.36 26.68 65.25 28.58L65.28 28.61L65.31 28.64Q65.62 28.88 66.19 29.18L66.02 29.02L66.21 29.20Q66.50 28.93 67.15 28.58L67.20 28.63L67.20 28.63Q67.04 29.27 66.81 30.79L66.91 30.89L66.79 30.77Q67.28 31.04 67.70 31.26L67.71 31.27L67.75 31.32Q70.43 29.47 72.30 29.47L72.41 29.58L72.35 29.52Q73.68 29.51 74.86 30.16L74.79 30.09L74.78 30.08Q75.16 31.15 75.20 32.10L75.13 32.03L75.19 32.09Q75.27 34.68 74.24 35.78L74.32 35.87L74.26 35.81Q72.82 36.95 70.57 37.18L70.66 37.27L70.63 37.24Q69.68 37.31 68.99 37.24L68.94 37.19L68.99 37.24Q68.12 37.09 67.36 36.75L67.41 36.80L67.44 36.64L67.35 36.78L67.35 36.77Q66.37 36.10 65.84 34.77L66.02 34.95L65.95 34.88Q64.68 36.35 63.00 38.48L62.89 38.37L62.86 38.34Q63.18 39.00 64.02 39.95L64.16 40.10L64.08 40.01Q65.12 41.81 67.93 42.31L67.87 42.24L67.85 42.23Q69.10 42.52 74.47 42.64Z"/></svg>