<svg xmlns="http://www.w3.org/2000/svg" width="150" height="50" viewBox="0,0,150,50"><path fill="#333" d="M120.24 40.31L120.11 40.18L120.13 40.21Q116.67 40.33 115.04 39.79L115.01 39.77L114.99 39.74Q113.14 39.23 112.83 35.84L112.84 35.85L114.18 34.67L114.24 34.73Q114.92 34.15 115.68 33.66L115.65 33.63L115.74 33.71Q115.44 35.59 117.04 36.81L117.12 36.89L117.04 36.80Q118.41 37.91 120.54 37.72L120.44 37.62L120.55 37.73Q124.81 37.20 124.62 33.66L124.65 33.69L124.61 33.64Q124.41 31.35 121.78 30.13L121.80 30.15L121.83 30.18Q118.94 29.07 116.58 27.86L116.73 28.01L116.61 27.89Q114.04 26.53 113.05 21.85L113.19 21.99L113.20 22.00Q112.96 21.42 112.84 20.66L112.90 20.72L112.95 20.77Q112.74 19.86 112.81 19.29L112.85 19.33L112.97 19.45Q113.11 17.84 114.37 17.39L114.37 17.38L114.28 17.30Q116.62 16.36 120.62 16.55L120.60 16.53L120.66 16.59Q122.51 16.73 123.31 16.81L123.29 16.79L123.35 16.86Q124.74 16.95 125.81 17.40L125.95 17.55L125.96 17.55Q127.90 17.86 128.13 20.34L128.09 20.30L128.27 20.48Q127.09 21.04 124.88 22.38L124.97 22.47L124.97 22.47Q124.53 19.44 120.15 19.44L120.08 19.37L120.15 19.44Q118.16 19.35 117.17 20.03L117.25 20.12L117.23 20.10Q116.00 20.54 116.23 22.33L116.35 22.45L116.39 22.49Q116.55 24.60 119.52 26.12L119.50 26.10L119.65 26.24Q120.07 26.36 124.56 28.00L124.51 27.95L124.52 27.96Q127.19 29.49 127.61 33.86L127.67 33.93L127.62 33.87Q127.54 33.95 127.62 35.20L127.75 35.34L127.68 35.26Q127.86 38.15 126.30 39.26L126.27 39.23L126.20 39.15Q124.41 40.18 120.22 40.29ZM122.48 42.63L122.46 42.61L122.55 42.70Q123.94 42.72 125.92 42.72L125.97 42.77L125.86 42.66Q127.90 42.60 129.15 42.19L129.18 42.21L129.21 42.24Q130.38 41.36 130.31 39.57L130.44 39.70L130.32 39.58Q130.43 38.74 130.05 36.68L129.91 36.54L129.90 36.54Q128.97 31.84 126.88 29.97L127.01 30.11L126.87 29.97Q126.20 28.49 124.86 27.77L124.84 27.74L119.62 25.76L119.49 25.63Q119.25 25.55 118.80 25.32L118.72 25.24L118.59 24.85L118.63 24.54L118.58 24.49Q118.44 23.09 119.58 22.49L119.54 22.44L119.68 22.59Q120.35 21.92 122.06 21.73L122.19 21.86L122.00 21.67Q123.19 21.60 124.33 22.06L124.31 22.03L124.44 22.17Q124.40 22.17 124.59 23.00L124.60 23.01L124.72 23.14Q124.87 22.94 125.36 22.71L125.35 22.70L125.37 22.72Q126.06 23.60 126.18 24.74L126.08 24.64L126.10 24.67Q126.15 24.60 129.80 22.01L129.81 22.02L129.98 22.19Q129.56 19.41 128.12 18.72L128.25 18.85L128.24 18.85Q127.58 17.50 126.13 16.97L126.14 16.98L126.10 16.93Q123.92 16.25 120.73 16.25L120.60 16.12L120.62 16.14Q115.75 16.18 113.88 16.86L113.87 16.85L113.96 16.94Q112.64 17.41 112.52 19.08L112.50 19.05L112.41 18.97Q112.37 19.50 112.79 21.70L112.87 21.79L112.76 21.68Q113.57 25.57 115.74 27.82L115.76 27.84L115.72 27.79Q116.44 29.44 117.95 30.12L117.98 30.15L118.05 30.22Q119.49 30.84 123.41 32.40L123.37 32.37L123.41 32.44L124.01 32.74L124.18 32.94L124.18 32.95Q124.24 33.28 124.28 33.62L124.37 33.71L124.39 33.73Q124.45 37.18 120.53 37.33L120.43 37.23L120.44 37.24Q119.29 37.27 117.99 36.89L118.00 36.89L117.95 36.85Q117.73 36.13 117.73 35.41L117.71 35.38L117.64 35.32Q117.77 35.18 117.81 34.92L117.63 34.74L117.65 34.76Q117.21 34.96 116.41 35.45L116.42 35.47L116.41 35.45Q115.99 34.43 116.15 33.06L116.15 33.06L116.21 33.12Q114.15 34.34 112.55 35.75L112.56 35.75L112.43 35.63Q112.56 36.51 112.63 37.54L112.57 37.48L112.51 37.42Q112.99 39.31 114.29 40.07L114.28 40.07L114.20 39.99Q115.35 41.74 117.90 42.12L117.93 42.15L117.89 42.11Q119.48 42.37 122.41 42.56Z"/><path fill="#111" d="M70.48 29.93L70.48 29.93L70.51 29.96Q70.06 29.74 69.75 29.74L69.88 29.86L69.85 29.83Q68.43 29.75 66.98 30.58L66.98 30.58L66.99 30.59Q65.79 31.82 65.79 33.73L65.76 33.71L65.84 33.78Q65.77 37.14 67.29 38.47L67.24 38.42L67.27 38.44Q68.17 39.58 70.46 39.58L70.42 39.54L70.59 39.71Q70.78 39.67 71.09 39.67L71.06 39.64L71.10 39.69Q72.84 39.72 73.98 38.08L73.97 38.06L74.02 38.12Q75.00 36.54 74.92 34.75L74.88 34.71L74.96 34.79Q75.05 34.35 75.05 33.93L75.04 33.92L75.00 33.88Q74.96 32.05 73.59 30.89L73.50 30.80L73.54 30.84Q72.23 29.74 70.44 29.89ZM74.99 40.12L74.89 40.02L74.90 40.02Q73.93 41.98 70.20 42.10L70.16 42.06L70.18 42.08Q66.83 42.24 65.24 40.64L65.13 40.53L65.24 40.64Q63.79 38.89 62.99 34.09L62.97 34.07L62.87 33.97Q62.61 32.27 62.61 31.01L62.58 30.98L62.68 31.08Q62.68 29.28 63.40 28.22L63.25 28.06L63.32 28.14Q64.63 26.71 67.60 26.71L67.65 26.76L67.77 26.88Q74.09 26.88 76.00 29.47L75.89 29.36L75.88 29.36Q76.19 28.68 76.61 27.08L76.44 26.91L76.54 27.01Q77.68 26.58 80.12 25.79L80.17 25.84L80.30 25.97Q77.68 31.42 77.45 37.74L77.49 37.78L77.54 37.83Q77.37 44.06 79.50 49.88L79.49 49.87L79.49 49.86Q77.73 49.21 75.94 48.94L76.03 49.04L75.99 49.00Q75.05 45.01 74.94 40.06ZM75.68 49.26L75.73 49.31L75.74 49.31Q76.45 49.46 77.86 49.76L77.89 49.79L77.91 49.81Q78.03 50.43 78.61 51.84L78.55 51.78L78.64 51.87Q81.20 52.57 83.49 53.86L83.45 53.83L83.48 53.86Q79.35 47.18 79.35 38.65L79.50 38.80L79.38 38.68Q79.41 32.35 81.88 26.56L81.95 26.63L81.99 26.67Q81.27 26.94 79.90 27.59L79.79 27.48L79.92 27.61Q80.25 26.84 80.90 25.28L80.82 25.20L80.90 25.27Q79.23 25.70 76.03 26.58L76.14 26.69L76.14 26.69Q76.05 27.28 75.74 28.46L75.68 28.40L75.64 28.35Q73.65 26.47 67.52 26.32L67.57 26.38L67.50 26.31Q64.41 26.34 63.04 27.82L63.05 27.83L62.97 27.75Q62.21 28.89 62.24 30.79L62.22 30.77L62.27 30.82Q62.42 33.86 63.41 37.63L63.30 37.53L63.37 37.59Q63.96 39.94 64.88 40.89L64.98 41.00L65.36 41.37L65.25 41.26Q66.39 44.00 71.83 44.23L71.86 44.25L71.84 44.23Q73.00 44.41 74.83 44.10L74.84 44.11L74.68 43.95Q75.07 46.97 75.67 49.25ZM72.27 32.14L72.39 32.26L72.33 32.20Q73.31 32.12 74.15 32.42L74.30 32.57L74.22 32.49Q74.44 33.05 74.55 33.66L74.48 33.58L74.48 33.59Q74.59 34.16 74.52 34.77L74.43 34.68L74.53 34.78Q74.53 36.68 73.50 37.97L73.44 37.92L73.54 38.02Q72.39 39.46 70.53 39.27L70.48 39.22L70.57 39.31Q69.11 39.14 68.16 38.73L68.21 38.78L68.30 38.87Q67.85 37.96 67.85 36.74L67.93 36.82L67.86 36.76Q67.90 36.49 67.90 36.19L67.84 36.13L67.85 36.13Q67.85 34.39 69.19 33.22L69.23 33.27L69.16 33.20Q70.60 32.14 72.35 32.22Z"/><path fill="#222" d="M90.06 49.71L89.92 49.57L89.90 49.55Q92.82 45.69 95.71 39.48L95.77 39.54L95.79 39.56Q92.60 32.94 86.51 24.87L86.61 24.97L86.58 24.94Q88.48 26.08 91.26 26.73L91.21 26.68L91.16 26.63Q94.78 31.40 97.22 36.61L97.18 36.57L97.31 36.70Q99.41 31.34 102.50 26.93L102.52 26.95L102.49 26.92Q104.71 26.59 106.80 25.79L106.71 25.70L106.75 25.74Q103.31 29.53 99.85 36.95L99.91 37.02L97.02 42.96L97.07 43.01Q95.59 46.10 93.84 48.73L93.93 48.81L93.83 48.71Q91.47 49.13 90.02 49.66ZM96.23 51.04L96.12 50.93L96.18 50.99Q97.88 48.09 99.33 44.81L99.40 44.88L102.12 38.54L102.02 38.45Q105.59 30.48 108.91 26.48L108.83 26.41L108.83 26.40Q107.50 27.10 105.60 27.78L105.58 27.77L106.68 26.42L106.71 26.45Q107.27 25.76 107.88 25.07L107.80 25.00L107.90 25.10Q105.11 26.03 102.25 26.49L102.36 26.60L102.32 26.56Q99.59 30.49 97.65 34.94L97.63 34.93L97.66 34.96Q96.02 31.65 94.23 28.83L94.10 28.70L94.27 28.87Q93.90 28.68 93.54 28.65L93.64 28.75L93.53 28.64Q93.24 28.67 93.05 28.67L93.02 28.64L93.04 28.66Q92.27 27.39 91.32 26.25L91.29 26.22L91.29 26.22Q88.14 25.58 85.39 23.87L85.51 23.98L85.43 23.91Q91.69 31.92 95.38 39.53L95.40 39.55L95.41 39.56Q93.31 44.70 89.24 50.33L89.16 50.25L89.19 50.28Q90.00 49.98 90.80 49.83L90.87 49.90L92.37 49.43L92.43 49.49Q91.87 50.26 90.69 51.90L90.62 51.83L90.56 51.77Q92.93 51.24 96.21 51.02Z"/><path fill="#222" d="M24.03 20.18L23.88 20.03L23.91 20.06Q19.62 20.06 15.92 19.07L15.92 19.07L15.93 19.08Q17.47 23.66 17.66 28.50L17.71 28.55L17.71 28.55Q17.78 33.22 16.56 37.83L16.58 37.85L16.71 37.98Q19.42 37.26 22.92 37.11L23.05 37.24L22.97 37.16Q26.80 36.88 28.59 34.44L28.66 34.51L28.73 34.58Q30.14 32.41 30.33 28.30L30.39 28.36L30.42 28.39Q30.37 26.51 29.91 24.80L29.94 24.83L30.05 24.94Q28.66 20.09 23.94 20.09ZM12.00 42.07L12.15 42.21L12.02 42.08Q15.05 36.55 15.05 29.85L14.96 29.76L14.90 29.70Q15.05 21.32 10.75 14.32L10.74 14.31L10.73 14.30Q15.89 16.87 24.15 17.06L24.08 16.99L24.19 17.10Q33.04 17.27 33.38 24.43L33.39 24.43L33.33 24.37Q33.49 27.12 33.45 28.57L33.37 28.49L33.49 28.61Q33.32 33.19 32.48 35.36L32.49 35.37L32.53 35.42Q32.10 36.51 31.34 37.35L31.43 37.44L31.32 37.32Q29.94 38.84 27.31 39.33L27.37 39.39L27.32 39.34Q25.72 39.61 22.72 39.84L22.71 39.84L22.86 39.98Q16.69 40.40 12.09 42.15ZM30.02 42.04L30.09 42.12L29.99 42.01Q32.78 41.72 34.42 40.24L34.42 40.24L34.38 40.19Q35.57 38.42 35.53 35.67L35.46 35.60L35.55 35.69Q35.65 34.42 35.50 30.92L35.35 30.77L35.00 26.24L35.11 26.34Q34.80 23.94 33.84 21.84L33.89 21.89L33.97 21.97Q33.48 21.06 32.79 20.41L32.78 20.39L32.69 20.16L32.73 20.20Q30.90 17.11 26.48 16.73L26.61 16.86L26.55 16.79Q23.82 16.62 16.82 15.89L16.93 16.01L16.92 15.99Q13.68 15.57 9.99 13.56L9.91 13.48L9.84 13.41Q14.73 20.85 14.73 29.61L14.66 29.54L14.82 29.70Q14.65 36.53 11.30 42.70L11.32 42.72L11.28 42.68Q12.12 42.57 13.45 42.07L13.39 42.01L13.49 42.11Q13.07 42.87 12.20 44.36L12.20 44.35L12.24 44.40Q15.20 43.25 18.55 42.75L18.60 42.81L18.53 42.73Q20.68 42.49 24.34 42.37L24.30 42.33L24.29 42.32Q28.23 42.27 30.06 42.08ZM29.94 28.29L30.09 28.44L29.96 28.31Q29.62 36.35 22.92 36.73L23.02 36.83L23.05 36.86Q21.06 36.92 19.00 37.19L18.98 37.17L18.99 37.18Q19.74 33.36 19.74 29.70L19.60 29.57L19.70 29.66Q19.58 25.85 18.86 22.01L18.95 22.10L18.99 22.14Q21.11 22.36 25.80 22.36L25.96 22.53L25.97 22.54Q27.29 22.34 28.93 23.29L28.81 23.16L28.86 23.22Q30.24 25.59 30.09 28.44Z"/><path fill="#333" d="M47.22 41.33L47.25 41.36L47.21 41.32Q44.39 41.55 43.13 41.01L43.17 41.05L43.03 40.91Q41.19 40.21 41.26 37.74L41.24 37.71L41.31 37.78Q41.43 34.36 41.43 34.93L41.47 34.97L41.46 34.96Q41.47 29.64 38.62 24.81L38.59 24.79L38.53 24.72Q40.49 25.65 42.46 26.03L42.58 26.15L42.44 26.00Q44.16 30.61 44.04 35.11L44.18 35.24L44.15 35.21Q43.90 36.60 44.74 37.82L44.78 37.86L44.79 37.87Q45.65 39.15 47.18 38.96L47.27 39.05L47.50 38.80L47.60 38.89Q48.91 38.79 49.73 38.03L49.79 38.09L49.65 37.96Q50.49 37.22 50.49 36.27L50.53 36.30L50.65 36.42Q50.67 36.22 50.63 36.03L50.61 36.01L50.62 36.02Q50.41 30.63 51.55 26.29L51.67 26.40L51.54 26.28Q52.65 26.28 53.64 26.05L53.59 26.00L55.65 25.55L55.72 25.62Q53.16 30.64 53.47 36.20L53.31 36.04L53.40 36.13Q53.51 39.13 51.80 40.27L51.96 40.43L51.77 40.24Q50.61 41.25 47.29 41.41ZM49.58 43.77L49.64 43.83L49.61 43.79Q53.03 43.91 54.86 43.15L54.86 43.15L54.97 43.26Q55.86 42.47 55.86 41.06L55.77 40.98L55.76 40.96Q55.84 40.13 55.57 38.57L55.49 38.49L55.46 38.46Q55.10 35.43 55.48 32.42L55.47 32.42L55.43 32.37Q55.79 29.19 57.20 26.45L57.25 26.51L57.22 26.47Q56.49 26.69 55.16 27.11L55.24 27.19L55.30 27.26Q55.57 26.69 55.87 26.12L55.70 25.94L56.29 24.82L56.36 24.89Q54.42 25.54 51.26 26.03L51.21 25.98L51.30 26.07Q50.12 30.90 50.27 36.00L50.12 35.85L50.14 35.88Q50.25 38.00 47.58 38.50L47.64 38.55L47.29 38.66L47.17 38.69L46.19 38.51L46.18 38.50Q46.03 37.55 46.07 37.06L46.12 37.11L46.02 37.01Q46.28 32.55 45.59 28.13L45.68 28.22L44.47 27.92L44.52 27.97Q44.00 27.94 43.46 27.83L43.49 27.85L43.49 27.85Q43.11 26.45 42.84 25.69L42.85 25.69L42.76 25.60Q40.04 25.24 37.79 23.95L37.83 23.99L37.91 24.07Q39.95 27.47 40.67 30.86L40.69 30.88L40.67 30.86Q41.24 33.14 41.09 36.64L41.02 36.58L40.94 36.50Q41.06 36.73 40.98 37.83L40.92 37.77L41.02 37.87Q40.79 40.16 42.16 41.11L42.21 41.16L42.22 41.16Q42.61 43.42 49.61 43.80Z"/></svg>