<svg xmlns="http://www.w3.org/2000/svg" width="150" height="50" viewBox="0,0,150,50"><path fill="#444" d="M40.68 49.66L40.57 49.55L40.59 49.56Q43.58 45.79 46.48 39.58L46.45 39.55L46.38 39.48Q43.31 32.99 37.22 24.92L37.24 24.93L37.20 24.90Q39.14 26.08 41.92 26.72L41.98 26.78L41.96 26.76Q45.50 31.44 47.93 36.66L47.86 36.59L47.79 36.52Q50.07 31.33 53.15 26.92L53.11 26.87L53.22 26.98Q55.37 26.59 57.47 25.79L57.47 25.79L57.46 25.78Q53.94 29.49 50.48 36.92L50.57 37.01L47.74 43.01L47.76 43.03Q46.31 46.15 44.55 48.77L44.46 48.67L44.63 48.85Q42.08 49.08 40.63 49.61ZM46.85 50.99L46.76 50.90L46.82 50.97Q48.52 48.06 49.97 44.79L50.02 44.84L52.69 38.44L52.78 38.54Q56.30 30.52 59.62 26.53L59.54 26.45L59.56 26.47Q58.15 27.08 56.25 27.77L56.21 27.73L57.24 26.32L57.31 26.39Q57.78 25.61 58.39 24.92L58.47 25.00L58.48 25.01Q55.83 26.09 52.97 26.54L52.87 26.45L53.04 26.62Q50.20 30.43 48.26 34.89L48.17 34.80L48.25 34.88Q46.70 31.65 44.91 28.83L44.91 28.84L44.78 28.71Q44.72 28.84 44.36 28.80L44.32 28.77L44.38 28.82Q43.86 28.63 43.67 28.63L43.75 28.70L43.82 28.77Q43.07 27.53 42.12 26.39L42.09 26.36L42.07 26.34Q38.91 25.70 36.17 23.98L36.09 23.90L36.17 23.98Q42.33 31.89 46.03 39.51L45.99 39.47L45.98 39.46Q43.94 44.65 39.86 50.29L39.73 50.16L39.79 50.22Q40.59 49.91 41.39 49.76L41.43 49.80L42.99 49.38L43.05 49.44Q42.37 50.09 41.19 51.73L41.21 51.75L41.27 51.81Q43.59 51.23 46.86 51.00Z"/><path fill="#333" d="M95.98 19.69L96.00 19.71L95.90 19.60Q93.97 19.77 93.02 19.92L93.06 19.97L92.99 19.89Q91.31 20.08 90.09 20.62L90.21 20.73L90.12 20.64Q86.61 22.08 86.49 26.76L86.55 26.82L86.54 26.81Q86.58 29.59 87.22 32.52L87.08 32.37L87.15 32.44Q88.04 36.49 91.66 37.67L91.70 37.72L91.54 37.55Q93.62 38.30 95.07 38.15L94.93 38.01L95.48 38.10L95.48 38.11Q95.53 37.97 95.72 38.00L95.76 38.04L95.81 38.09Q95.96 38.10 96.12 38.06L96.05 37.99L96.06 38.01Q98.69 37.74 100.06 37.17L100.02 37.13L96.45 33.60L96.41 33.55Q96.78 33.27 97.39 32.66L97.44 32.72L98.32 31.77L98.39 31.84Q100.13 33.81 102.11 35.87L102.24 36.00L102.14 35.89Q104.40 34.01 104.67 28.64L104.68 28.65L104.71 28.68Q104.78 27.77 104.78 26.85L104.84 26.91L104.80 26.87Q104.92 21.32 99.86 20.21L99.79 20.15L99.79 20.15Q98.43 19.78 95.92 19.62ZM108.64 41.63L108.74 41.73L108.77 41.77Q108.17 42.19 106.99 43.07L106.97 43.05L102.53 39.33L102.48 39.28Q100.06 40.55 95.79 40.59L95.82 40.61L95.71 40.51Q89.33 40.79 86.51 38.54L86.35 38.38L86.49 38.52Q84.64 36.67 84.18 33.70L84.25 33.77L84.12 33.64Q83.91 31.83 83.53 28.25L83.57 28.29L83.56 28.28Q83.63 27.63 83.52 25.88L83.59 25.95L83.55 25.91Q83.44 24.39 83.48 23.52L83.37 23.41L83.50 23.54Q83.43 20.31 85.18 18.75L85.18 18.75L85.29 18.86Q86.75 17.47 89.95 16.97L90.00 17.02L89.89 16.91Q92.38 16.55 95.28 16.62L95.42 16.76L95.31 16.66Q102.84 16.80 105.97 19.16L105.98 19.18L105.90 19.10Q108.21 21.37 107.95 26.29L107.85 26.19L107.80 26.14Q107.78 29.96 107.59 31.29L107.41 31.11L107.57 31.28Q106.86 35.71 104.54 38.03L104.55 38.04L104.47 37.96Q105.98 39.24 108.72 41.72ZM103.91 17.49L103.83 17.41L103.82 17.40Q101.78 16.65 95.27 16.16L95.36 16.25L95.45 16.33Q94.08 16.38 91.30 16.49L91.15 16.34L91.18 16.37Q86.89 16.54 84.65 18.52L84.69 18.56L84.77 18.65Q83.11 20.10 83.11 23.26L83.11 23.26L83.09 23.24Q83.11 24.10 83.26 25.81L83.19 25.74L83.21 25.76Q83.43 27.54 83.43 28.42L83.43 28.42L83.28 28.27Q83.59 30.17 83.97 33.75L83.90 33.68L83.84 33.63Q84.22 36.52 85.82 38.57L85.81 38.57L85.85 38.60Q86.19 39.44 87.41 40.58L87.31 40.48L87.49 40.67Q90.12 42.57 95.29 42.83L95.41 42.94L95.26 42.79Q95.72 42.92 98.12 43.03L98.16 43.07L98.09 43.00Q102.81 43.08 105.09 42.01L105.23 42.14L105.12 42.04Q106.06 42.78 110.78 46.36L110.80 46.39L110.71 46.30Q111.34 45.78 112.63 44.79L112.61 44.77L112.71 44.87Q111.72 44.06 110.92 43.38L111.03 43.49L109.33 41.98L109.43 41.94L109.49 41.99Q108.81 41.43 107.59 40.40L107.70 40.50L107.67 40.47Q109.47 37.86 109.47 33.33L109.44 33.30L109.46 33.32Q109.51 32.95 109.55 32.11L109.62 32.19L109.61 32.17Q109.65 31.34 109.65 30.92L109.55 30.82L109.55 30.82Q109.65 25.40 108.93 23.04L108.96 23.07L108.89 23.00Q108.47 21.67 107.60 20.61L107.53 20.54L107.67 20.68Q106.85 18.53 103.92 17.50ZM97.91 22.08L97.84 22.01L97.91 22.07Q102.03 22.05 103.86 23.65L103.72 23.50L103.84 23.62Q104.42 24.85 104.53 26.18L104.52 26.17L104.43 26.08Q104.56 27.40 104.49 28.77L104.51 28.79L104.54 28.82Q104.15 33.72 102.21 35.43L102.11 35.33L102.19 35.42Q100.91 34.13 98.40 31.39L98.39 31.39L98.45 31.45Q97.59 32.11 96.03 33.67L96.05 33.69L95.94 33.58Q96.67 34.35 97.81 35.53L97.69 35.41L97.60 35.43L97.60 35.43Q98.27 36.07 99.30 37.13L99.29 37.12L99.26 37.09Q98.15 37.24 95.83 37.54L96.02 37.74L95.34 37.59L95.09 37.75L94.97 37.67L94.96 37.66Q91.57 37.74 89.59 36.10L89.56 36.07L89.56 36.07Q88.42 33.86 88.46 30.74L88.48 30.77L88.62 30.90Q88.62 22.04 97.80 21.96Z"/><path fill="#444" d="M24.90 39.83L24.89 39.83L22.91 39.78L22.94 39.81Q22.04 39.87 21.09 39.98L21.01 39.90L20.99 39.88Q21.73 33.85 21.73 29.85L21.71 29.83L21.65 29.77Q17.66 23.08 10.01 14.40L9.99 14.37L10.08 14.46Q11.75 15.34 15.10 16.14L15.22 16.26L15.17 16.21Q20.17 21.74 23.18 26.95L23.17 26.95L23.15 26.93Q26.18 21.39 30.56 16.37L30.71 16.52L30.65 16.46Q33.01 16.00 35.52 15.20L35.45 15.14L35.55 15.23Q29.45 21.27 24.57 29.69L24.51 29.62L24.65 29.76Q24.51 36.67 24.82 39.75ZM33.98 17.24L36.77 14.47L36.73 14.43Q33.66 15.63 30.54 16.09L30.56 16.10L30.44 15.98Q26.37 20.86 23.56 25.97L23.51 25.92L23.48 25.88Q21.35 22.24 18.16 18.36L18.20 18.40L18.10 18.30Q17.90 18.37 17.41 18.29L17.28 18.17L17.43 18.32Q16.76 17.53 15.24 15.86L15.12 15.74L15.18 15.80Q11.82 15.07 8.85 13.51L8.85 13.51L8.80 13.45Q16.48 21.89 21.24 29.81L21.38 29.95L21.36 29.93Q21.20 36.21 20.59 40.36L20.49 40.25L20.64 40.41Q21.27 40.28 22.72 40.16L22.70 40.14L22.79 41.26L22.88 41.35Q22.78 41.71 22.70 42.24L22.71 42.25L22.77 42.31Q26.24 42.24 27.99 42.43L27.97 42.40L28.06 42.50Q26.74 37.75 26.63 31.78L26.64 31.79L26.68 31.82Q31.05 23.37 37.59 16.02L37.50 15.92L33.99 17.25Z"/><path fill="#222" d="M120.08 40.15L120.11 40.19L120.17 40.24Q116.61 40.26 114.97 39.73L115.05 39.81L115.08 39.83Q113.05 39.14 112.75 35.75L112.73 35.74L114.28 34.77L114.31 34.80Q115.02 34.25 115.78 33.76L115.64 33.61L115.70 33.68Q115.44 35.59 117.04 36.81L117.09 36.86L117.05 36.82Q118.39 37.89 120.52 37.70L120.46 37.64L120.39 37.57Q124.77 37.15 124.58 33.61L124.57 33.61L124.59 33.62Q124.52 31.46 121.89 30.24L121.95 30.30L121.91 30.25Q118.97 29.10 116.61 27.89L116.61 27.89L116.63 27.91Q114.02 26.52 113.03 21.83L113.15 21.96L113.07 21.88Q113.09 21.55 112.97 20.79L112.79 20.60L112.97 20.78Q112.77 19.90 112.85 19.33L112.82 19.30L112.89 19.37Q113.07 17.80 114.33 17.35L114.28 17.30L114.39 17.41Q116.73 16.47 120.73 16.67L120.62 16.56L120.77 16.71Q122.45 16.68 123.25 16.75L123.32 16.82L123.35 16.85Q124.78 16.99 125.85 17.45L125.90 17.50L125.78 17.38Q128.02 17.98 128.25 20.45L128.15 20.36L128.09 20.30Q127.21 21.17 125.01 22.50L124.96 22.46L124.87 22.37Q124.48 19.39 120.10 19.39L120.15 19.44L120.24 19.53Q118.15 19.34 117.16 20.03L117.29 20.16L117.21 20.07Q116.00 20.54 116.23 22.33L116.38 22.48L116.37 22.47Q116.50 24.55 119.47 26.07L119.53 26.13L119.63 26.23Q120.17 26.46 124.66 28.10L124.65 28.09L124.59 28.02Q127.14 29.44 127.56 33.81L127.53 33.79L127.66 33.92Q127.66 34.07 127.74 35.32L127.73 35.31L127.66 35.25Q127.79 38.08 126.23 39.19L126.26 39.22L126.20 39.15Q124.32 40.09 120.13 40.20ZM122.45 42.60L122.53 42.68L122.48 42.63Q123.86 42.64 125.84 42.64L125.83 42.63L125.83 42.63Q128.05 42.76 129.31 42.34L129.34 42.37L129.26 42.29Q130.52 41.50 130.45 39.71L130.40 39.66L130.38 39.64Q130.45 38.76 130.07 36.71L130.02 36.66L130.03 36.67Q129.13 31.99 127.03 30.13L126.91 30.00L126.97 30.06Q126.19 28.49 124.86 27.77L124.80 27.70L119.48 25.62L119.48 25.62Q119.30 25.59 118.84 25.36L118.81 25.33L118.65 24.91L118.63 24.54L118.58 24.49Q118.43 23.09 119.58 22.48L119.57 22.47L119.54 22.44Q120.44 22.01 122.16 21.82L122.10 21.76L122.04 21.71Q123.21 21.62 124.35 22.08L124.40 22.12L124.41 22.14Q124.48 22.25 124.68 23.09L124.57 22.99L124.70 23.11Q124.77 22.84 125.27 22.62L125.37 22.72L125.34 22.69Q125.97 23.51 126.09 24.65L126.25 24.82L126.11 24.68Q126.29 24.74 129.95 22.16L129.90 22.10L129.99 22.20Q129.67 19.52 128.23 18.83L128.24 18.84L128.26 18.87Q127.53 17.45 126.08 16.92L126.16 16.99L126.09 16.92Q123.93 16.25 120.73 16.25L120.59 16.11L120.61 16.13Q115.68 16.11 113.82 16.80L113.88 16.86L113.83 16.81Q112.51 17.28 112.39 18.95L112.56 19.12L112.38 18.94Q112.44 19.57 112.86 21.78L112.80 21.72L112.86 21.78Q113.51 25.52 115.68 27.76L115.73 27.81L115.79 27.87Q116.45 29.44 117.95 30.12L118.05 30.23L118.00 30.18Q119.55 30.91 123.47 32.47L123.49 32.48L123.42 32.45L124.12 32.84L124.13 32.90L124.04 32.81Q124.35 33.39 124.39 33.73L124.35 33.69L124.39 33.73Q124.28 37.01 120.36 37.16L120.47 37.27L120.44 37.24Q119.26 37.24 117.97 36.86L117.91 36.81L117.93 36.82Q117.76 36.16 117.76 35.44L117.60 35.28L117.77 35.45Q117.62 35.03 117.66 34.76L117.76 34.86L117.77 34.87Q117.39 35.14 116.59 35.64L116.56 35.60L116.48 35.53Q115.95 34.39 116.10 33.02L116.07 32.98L116.25 33.17Q114.14 34.33 112.54 35.74L112.43 35.62L112.55 35.75Q112.51 36.47 112.59 37.50L112.58 37.49L112.62 37.53Q112.83 39.15 114.13 39.91L114.18 39.96L114.31 40.09Q115.37 41.77 117.92 42.15L118.07 42.30L117.95 42.18Q119.60 42.49 122.53 42.68Z"/><path fill="#111" d="M79.00 37.89L79.05 37.95L78.96 37.86Q79.31 38.89 79.84 40.91L79.88 40.95L79.90 40.97Q75.65 39.62 71.05 39.88L71.01 39.84L71.02 39.85Q66.51 40.18 62.51 42.16L62.52 42.17L62.39 42.04Q62.67 41.41 62.71 41.48L62.73 41.50L62.66 41.43Q66.53 37.61 70.45 33.20L70.28 33.02L70.38 33.12Q74.86 28.20 76.04 23.52L76.04 23.51L75.88 23.36Q76.39 21.66 75.12 20.48L75.20 20.57L75.24 20.60Q73.85 19.31 72.06 19.47L72.08 19.48L72.08 19.48Q71.70 19.40 71.35 19.40L71.43 19.48L71.41 19.46Q69.90 19.48 68.65 20.39L68.53 20.28L68.56 20.30Q67.38 21.78 67.61 24.45L67.63 24.47L67.57 24.41Q65.81 24.10 64.59 23.65L64.63 23.68L64.47 23.52Q64.25 22.09 64.18 20.64L64.21 20.67L64.30 20.77Q64.28 19.18 64.89 18.04L64.82 17.97L64.71 17.86Q66.59 16.58 69.94 16.58L69.93 16.57L71.77 16.66L71.71 16.60Q73.96 16.60 74.91 16.71L74.88 16.69L74.93 16.73Q79.26 17.15 79.53 19.59L79.60 19.66L79.50 19.55Q79.53 20.08 79.45 20.88L79.58 21.00L79.52 20.94Q79.45 21.56 79.29 22.24L79.27 22.22L79.32 22.27Q77.62 30.31 70.04 37.16L70.17 37.29L70.06 37.18Q71.60 37.16 72.97 37.16L72.91 37.10L72.86 37.05Q76.22 37.18 79.08 37.98ZM78.35 17.00L78.44 17.08L78.35 17.00Q76.84 16.44 75.13 16.36L75.09 16.33L71.64 16.11L71.68 16.15Q67.34 16.00 65.13 17.10L65.01 16.98L64.94 16.91Q63.93 18.34 63.93 20.39L63.89 20.35L63.88 20.34Q64.04 21.19 64.34 24.00L64.33 23.99L64.26 23.92Q64.92 24.28 66.10 24.58L65.99 24.47L66.06 25.57L66.12 25.63Q65.97 25.98 66.05 26.51L66.14 26.60L66.14 26.60Q67.42 26.74 69.89 26.96L69.83 26.91L69.88 26.95Q69.85 26.58 69.85 26.24L69.81 26.20L69.72 26.10Q69.78 24.34 71.00 22.99L71.01 23.00L70.98 22.97Q72.14 21.56 73.93 21.68L73.91 21.65L73.90 21.64Q74.69 21.71 75.45 21.86L75.54 21.95L75.51 21.92Q75.54 22.21 75.61 22.63L75.68 22.70L75.76 22.78Q75.83 23.23 75.75 23.57L75.75 23.57L75.75 23.57Q74.41 28.24 69.99 33.08L70.08 33.16L69.94 33.02Q67.78 35.25 62.34 41.30L62.42 41.39L62.36 41.33Q62.28 42.27 61.94 42.84L61.88 42.79L61.94 42.84Q63.49 41.92 65.02 41.39L64.95 41.33L65.00 41.37Q64.32 41.98 63.36 43.47L63.31 43.41L63.27 43.38Q63.26 43.82 63.15 44.16L63.06 44.08L63.05 44.06Q68.04 42.13 73.53 42.32L73.48 42.28L73.41 42.21Q79.16 42.44 83.73 44.80L83.71 44.78L82.62 42.54L82.66 42.59Q82.09 41.33 81.82 40.53L81.82 40.52L81.82 40.52Q81.08 40.10 79.87 39.68L79.84 39.66L79.93 39.75Q79.66 38.90 79.28 37.53L79.30 37.55L79.31 37.56Q77.19 37.08 74.91 36.89L74.87 36.85L74.75 36.73Q79.53 32.27 81.06 24.00L81.07 24.02L81.30 21.16L81.16 21.03Q81.09 19.24 79.87 18.56L79.95 18.63L79.95 18.67L79.88 18.60Q79.78 18.47 79.71 18.47L79.73 18.49L79.68 18.44Q79.56 17.71 78.45 17.10Z"/></svg>