<svg xmlns="http://www.w3.org/2000/svg" width="150" height="50" viewBox="0,0,150,50"><path fill="#333" d="M56.51 34.63L56.56 34.68L56.55 34.67Q56.64 38.35 53.48 39.64L53.47 39.62L53.42 39.58Q51.53 40.39 47.11 40.54L47.19 40.62L47.05 40.48Q42.38 40.71 40.13 39.53L40.16 39.56L40.13 39.53Q38.30 38.24 38.45 34.89L38.38 34.82L38.36 34.79Q38.41 34.20 38.60 32.22L38.54 32.16L38.69 32.31Q38.83 30.73 38.83 29.74L38.68 29.59L38.78 29.70Q38.82 21.74 34.63 14.31L34.61 14.30L34.62 14.30Q35.70 14.89 38.67 15.96L38.70 15.98L38.68 15.96Q41.51 22.64 41.51 30.03L41.58 30.09L41.52 30.03Q41.45 30.58 41.36 31.76L41.43 31.83L41.49 31.89Q41.34 33.01 41.34 33.62L41.36 33.64L41.45 33.73Q41.35 35.92 42.91 36.91L42.96 36.96L42.99 36.99Q44.56 37.72 47.53 37.72L47.50 37.69L47.58 37.77Q50.17 37.73 51.80 36.55L51.73 36.48L51.78 36.53Q53.59 35.14 53.44 32.63L53.48 32.67L53.46 32.65Q53.34 31.23 53.34 29.90L53.41 29.97L53.39 29.95Q53.44 22.95 55.83 16.44L55.88 16.49L57.93 15.80L57.91 15.78Q59.02 15.63 60.12 15.17L59.97 15.02L60.07 15.12Q56.29 22.19 56.29 29.76L56.40 29.88L56.31 29.79Q56.26 30.57 56.39 32.21L56.41 32.23L56.37 32.18Q56.49 33.82 56.49 34.62ZM58.70 35.57L58.74 35.61L58.75 35.61Q57.87 30.66 58.59 25.56L58.66 25.63L58.57 25.54Q59.24 20.27 61.64 15.89L61.75 16.00L61.64 15.90Q61.12 16.28 59.67 16.93L59.66 16.92L59.55 16.81Q60.03 16.07 60.83 14.51L60.83 14.51L60.71 14.40Q57.42 15.79 55.52 16.13L55.37 15.98L55.52 16.13Q53.09 22.57 53.09 29.84L53.14 29.89L52.99 29.74Q53.13 31.25 53.21 32.66L53.20 32.65L53.07 32.52Q53.22 34.92 51.43 36.14L51.46 36.17L51.59 36.30Q49.97 37.23 47.46 37.27L47.60 37.41L47.50 37.31Q44.72 37.34 43.27 36.58L43.34 36.65L43.30 36.61Q43.31 36.20 43.24 35.75L43.05 35.57L43.06 35.57Q43.06 35.11 43.17 34.62L43.14 34.58L43.15 34.60Q43.53 32.43 43.53 30.11L43.37 29.94L43.40 29.97Q43.54 24.29 42.02 18.39L41.95 18.32L42.00 18.37Q41.27 18.25 39.87 17.91L39.76 17.80L39.77 17.82Q39.40 16.53 38.94 15.62L38.96 15.64L38.99 15.67Q36.18 14.80 33.79 13.43L33.86 13.50L33.77 13.42Q38.37 20.98 38.37 29.70L38.45 29.78L38.33 29.66Q38.51 31.48 38.35 33.19L38.29 33.12L38.37 33.20Q38.06 35.52 38.14 36.70L38.11 36.68L38.03 36.60Q38.35 38.71 39.61 39.85L39.44 39.68L39.47 39.71Q40.57 42.30 45.22 42.68L45.21 42.67L45.13 42.59Q47.27 42.79 49.40 42.86L49.47 42.93L49.36 42.82Q54.83 43.12 57.61 42.17L57.61 42.17L57.59 42.14Q59.12 41.20 59.12 39.14L59.22 39.25L59.10 39.13Q59.18 38.07 58.73 35.59Z"/><path fill="#333" d="M21.96 19.66L21.99 19.70L21.96 19.67Q19.93 19.73 18.98 19.88L19.04 19.95L19.10 20.01Q17.32 20.09 16.10 20.62L16.23 20.75L16.24 20.77Q12.70 22.17 12.58 26.85L12.48 26.75L12.53 26.79Q12.45 29.46 13.10 32.39L13.04 32.34L13.16 32.45Q13.94 36.39 17.56 37.57L17.71 37.72L17.71 37.73Q19.53 38.21 20.98 38.06L21.05 38.13L21.46 38.09L21.47 38.09Q21.66 38.10 21.85 38.14L21.84 38.13L21.67 37.96Q22.01 38.14 22.16 38.11L22.13 38.07L22.05 37.99Q24.62 37.67 25.99 37.10L26.02 37.12L22.42 33.57L22.41 33.56Q22.74 33.24 23.35 32.63L23.51 32.79L24.28 31.74L24.45 31.90Q26.28 33.96 28.26 36.02L28.14 35.90L28.13 35.89Q30.46 34.07 30.73 28.70L30.74 28.71L30.85 28.82Q30.74 27.72 30.74 26.81L30.77 26.84L30.91 26.98Q30.80 21.19 25.73 20.09L25.84 20.19L25.81 20.17Q24.39 19.74 21.88 19.59ZM34.82 41.81L34.67 41.67L34.71 41.71Q34.06 42.08 32.88 42.95L33.00 43.08L28.48 39.28L28.47 39.27Q26.04 40.53 21.77 40.57L21.85 40.65L21.72 40.52Q15.21 40.67 12.39 38.42L12.40 38.43L12.37 38.40Q10.60 36.63 10.14 33.66L10.21 33.72L10.27 33.79Q9.96 31.88 9.58 28.30L9.59 28.31L9.59 28.31Q9.69 27.69 9.58 25.94L9.53 25.89L9.44 25.80Q9.38 24.34 9.42 23.46L9.36 23.40L9.40 23.44Q9.42 20.30 11.17 18.74L11.20 18.77L11.22 18.79Q12.86 17.57 16.06 17.08L16.04 17.06L15.89 16.91Q18.49 16.65 21.38 16.73L21.29 16.63L21.43 16.78Q28.83 16.79 31.95 19.15L31.97 19.17L31.92 19.12Q34.19 21.35 33.93 26.26L33.93 26.27L33.84 26.18Q33.73 29.91 33.54 31.25L33.50 31.20L33.59 31.30Q32.77 35.61 30.45 37.94L30.47 37.96L30.50 37.99Q32.00 39.26 34.74 41.73ZM29.89 17.47L29.84 17.42L29.96 17.54Q27.93 16.80 21.42 16.31L21.44 16.33L21.41 16.30Q20.02 16.32 17.24 16.43L17.12 16.31L17.20 16.39Q12.88 16.53 10.64 18.51L10.64 18.51L10.75 18.62Q8.98 19.97 8.98 23.13L9.05 23.21L9.03 23.19Q9.10 24.09 9.26 25.81L9.23 25.78L9.18 25.73Q9.39 27.51 9.39 28.38L9.38 28.37L9.31 28.30Q9.49 30.07 9.87 33.65L9.86 33.65L9.90 33.69Q10.28 36.57 11.88 38.63L11.84 38.59L11.92 38.67Q12.17 39.42 13.39 40.56L13.40 40.57L13.47 40.64Q16.13 42.58 21.31 42.85L21.27 42.81L21.30 42.84Q21.67 42.86 24.07 42.98L24.07 42.98L24.04 42.96Q28.92 43.19 31.20 42.12L31.06 41.97L31.22 42.14Q31.92 42.65 36.64 46.22L36.75 46.33L36.77 46.35Q37.25 45.69 38.55 44.70L38.62 44.78L38.61 44.77Q37.74 44.08 36.94 43.40L36.93 43.39L35.19 41.85L35.46 41.96L35.36 41.86Q34.92 41.53 33.70 40.51L33.62 40.43L33.58 40.39Q35.60 37.99 35.60 33.46L35.48 33.34L35.56 33.42Q35.44 32.88 35.47 32.04L35.49 32.05L35.53 32.10Q35.56 31.24 35.56 30.83L35.62 30.89L35.54 30.81Q35.51 25.26 34.78 22.90L34.87 22.99L34.89 23.00Q34.39 21.59 33.51 20.52L33.54 20.55L33.58 20.59Q32.78 18.46 29.85 17.43ZM23.91 22.08L23.87 22.04L23.85 22.02Q27.99 22.00 29.82 23.60L29.68 23.46L29.75 23.54Q30.33 24.77 30.45 26.10L30.43 26.08L30.51 26.16Q30.47 27.30 30.39 28.67L30.39 28.67L30.52 28.79Q30.16 33.73 28.22 35.44L28.16 35.39L28.18 35.41Q26.90 34.12 24.39 31.38L24.27 31.27L24.26 31.26Q23.56 32.08 22.00 33.64L22.09 33.73L21.94 33.58Q22.63 34.31 23.77 35.49L23.62 35.34L23.59 35.42L23.68 35.51Q24.29 36.08 25.32 37.15L25.21 37.04L25.33 37.16Q24.32 37.40 22.00 37.71L21.97 37.68L21.47 37.71L20.97 37.63L20.92 37.62L20.93 37.64Q17.51 37.68 15.53 36.04L15.58 36.09L15.45 35.96Q14.43 33.88 14.47 30.76L14.45 30.74L14.64 30.92Q14.63 22.05 23.81 21.97Z"/><path fill="#222" d="M122.57 20.05L122.63 20.11L122.71 20.19Q118.22 20.00 114.52 19.01L114.62 19.10L114.57 19.05Q116.18 23.71 116.37 28.55L116.35 28.52L116.28 28.45Q116.59 33.37 115.38 37.98L115.28 37.89L115.31 37.91Q118.07 37.25 121.57 37.10L121.68 37.20L121.58 37.10Q125.61 37.03 127.40 34.59L127.40 34.59L127.27 34.46Q128.90 32.51 129.09 28.40L129.13 28.44L129.14 28.44Q129.18 26.66 128.72 24.95L128.60 24.82L128.74 24.96Q127.42 20.17 122.69 20.17ZM110.72 42.12L110.63 42.03L110.76 42.16Q113.54 36.37 113.54 29.67L113.70 29.83L113.61 29.74Q113.69 21.30 109.39 14.29L109.41 14.32L109.28 14.18Q114.65 16.96 122.91 17.15L122.89 17.14L122.78 17.03Q131.79 17.35 132.13 24.51L132.07 24.44L132.06 24.44Q132.08 27.04 132.04 28.49L132.06 28.51L132.14 28.59Q132.01 33.22 131.17 35.39L131.27 35.49L131.28 35.50Q130.77 36.51 130.01 37.35L129.94 37.28L130.09 37.43Q128.62 38.85 125.99 39.35L126.08 39.44L126.12 39.47Q124.45 39.67 121.44 39.90L121.38 39.84L121.53 39.99Q115.39 40.43 110.78 42.18ZM128.61 41.97L128.60 41.95L128.69 42.04Q131.39 41.66 133.03 40.18L133.06 40.21L132.97 40.12Q134.17 38.35 134.13 35.61L134.25 35.72L134.12 35.59Q134.24 34.35 134.09 30.84L134.06 30.81L133.67 26.24L133.73 26.30Q133.43 23.90 132.48 21.81L132.47 21.80L132.46 21.80Q132.08 20.99 131.39 20.34L131.40 20.35L131.26 20.06L131.36 20.16Q129.55 17.10 125.14 16.72L125.29 16.86L125.21 16.79Q122.55 16.68 115.54 15.95L115.50 15.91L115.62 16.03Q112.21 15.43 108.51 13.42L108.48 13.38L108.50 13.41Q113.31 20.77 113.31 29.52L113.45 29.66L113.42 29.63Q113.45 36.67 110.10 42.83L110.12 42.85L110.10 42.83Q110.75 42.53 112.08 42.04L112.02 41.98L112.00 41.95Q111.68 42.81 110.80 44.30L110.91 44.40L110.83 44.32Q113.95 43.33 117.30 42.83L117.28 42.82L117.29 42.83Q119.34 42.47 122.99 42.36L123.00 42.37L123.00 42.37Q126.79 42.16 128.62 41.97ZM128.64 28.33L128.62 28.31L128.75 28.43Q128.28 36.34 121.58 36.72L121.72 36.86L121.56 36.71Q119.68 36.88 117.62 37.15L117.60 37.12L117.70 37.22Q118.32 33.28 118.32 29.62L118.27 29.57L118.28 29.58Q118.35 25.95 117.63 22.11L117.67 22.15L117.61 22.09Q119.78 22.36 124.46 22.36L124.48 22.38L124.47 22.37Q126.01 22.38 127.65 23.34L127.50 23.19L127.54 23.23Q128.78 25.46 128.63 28.32Z"/><path fill="#222" d="M89.20 15.95L89.19 15.94L89.12 15.87Q91.00 20.72 91.57 25.89L91.66 25.99L91.49 25.81Q95.35 21.84 101.25 17.00L101.13 16.88L101.19 16.94Q104.35 16.59 106.97 15.80L106.98 15.80L100.51 21.51L100.41 21.41Q97.11 24.47 94.25 27.33L94.27 27.34L94.09 27.16Q102.19 36.44 107.25 41.16L107.15 41.06L107.14 41.05Q104.10 40.18 101.78 40.03L101.78 40.03L101.74 39.99Q96.08 34.71 91.78 28.89L91.62 28.73L91.64 28.74Q91.75 35.37 89.89 40.70L89.87 40.68L90.01 40.82Q89.64 40.72 89.14 40.91L89.20 40.97L89.20 41.16L89.19 41.14Q88.90 41.08 86.35 42.00L86.48 42.13L86.54 42.19Q89.39 35.52 89.04 28.05L89.03 28.04L89.12 28.13Q88.76 20.77 85.22 14.26L85.24 14.28L85.71 14.48L86.24 14.89L86.10 14.71L86.24 14.86Q86.83 15.10 89.04 15.79ZM89.39 15.57L89.45 15.63L89.37 15.55Q87.09 14.99 84.46 13.46L84.37 13.37L84.39 13.39Q88.84 20.85 88.84 29.80L88.74 29.70L88.79 29.74Q88.85 36.81 85.88 42.86L85.88 42.86L87.90 41.99L87.90 41.99Q87.36 42.86 86.68 44.15L86.68 44.15L86.65 44.13Q88.98 43.41 90.92 42.99L90.89 42.95L91.02 42.86L91.06 42.90Q91.22 42.75 91.79 42.60L91.87 42.68L91.93 42.75Q93.48 36.72 93.60 31.92L93.58 31.91L93.62 31.95Q95.79 34.53 97.62 36.40L97.53 36.31L97.59 36.37Q98.72 37.43 101.73 40.40L101.69 40.36L101.79 40.45L101.69 40.35Q102.76 41.23 104.62 42.83L104.61 42.82L104.63 42.84Q108.50 43.56 111.97 45.27L111.88 45.18L111.92 45.22Q102.75 36.78 96.51 29.35L96.48 29.33L96.47 29.31Q100.90 25.07 109.66 16.46L109.53 16.33L109.59 16.40Q107.00 17.50 104.98 17.88L105.07 17.96L104.95 17.85Q106.33 17.02 108.65 15.00L108.58 14.93L108.59 14.94Q104.37 16.24 101.02 16.43L101.08 16.49L101.06 16.47Q98.16 18.71 93.29 23.39L93.34 23.44L93.26 23.36Q93.00 20.90 92.43 18.35L92.43 18.34L92.26 18.18Q91.19 18.14 90.20 17.79L90.10 17.69L90.10 17.68Q89.92 16.98 89.35 15.53Z"/><path fill="#444" d="M68.04 33.39L67.88 33.23L67.99 33.35Q67.77 36.09 66.59 40.74L66.64 40.78L66.64 40.79Q64.92 41.39 63.32 42.19L63.17 42.04L63.16 42.03Q65.89 35.13 65.63 27.71L65.61 27.69L65.52 27.60Q65.29 20.25 62.20 13.51L62.13 13.44L62.20 13.51Q64.09 14.71 65.96 15.29L65.99 15.31L66.09 15.41Q68.24 22.40 68.24 29.07L68.09 28.91L68.19 29.01Q68.21 30.48 68.14 31.97L68.05 31.88L68.02 31.85Q69.34 30.81 74.56 25.86L74.53 25.84L74.41 25.71Q75.51 25.71 76.50 25.64L76.61 25.74L78.59 25.48L78.69 25.58Q75.49 28.55 71.19 32.31L71.20 32.32L71.23 32.36Q74.49 35.01 80.97 40.84L81.06 40.93L81.01 40.88Q78.29 39.98 75.32 39.79L75.40 39.87L75.28 39.75Q72.72 37.62 67.85 33.20ZM77.82 42.45L77.88 42.51L77.87 42.50Q82.50 43.25 85.62 45.19L85.75 45.31L85.74 45.30Q84.53 43.98 81.90 41.58L81.94 41.62L81.81 41.49Q82.07 41.60 82.34 41.71L82.37 41.75L82.38 41.75Q80.35 39.80 78.11 37.90L78.04 37.84L73.56 33.88L73.55 33.88Q78.50 29.65 80.93 26.76L81.00 26.82L81.08 26.91Q79.75 26.87 77.28 27.14L77.38 27.24L77.29 27.15Q78.85 25.67 79.54 24.83L79.61 24.90L79.66 24.95Q76.79 25.36 74.32 25.36L74.29 25.33L74.33 25.37Q72.89 26.63 70.15 29.29L70.10 29.25L70.16 29.31Q70.19 23.55 69.20 17.73L69.20 17.73L69.19 17.72Q68.45 17.51 66.96 17.24L67.01 17.29L66.92 17.20Q66.81 16.51 66.35 15.03L66.44 15.12L66.44 15.12Q63.73 14.23 61.48 12.67L61.57 12.76L61.52 12.71Q65.02 19.60 65.37 27.71L65.23 27.57L65.24 27.59Q65.72 35.64 62.71 42.87L62.70 42.86L62.62 42.78Q63.31 42.48 64.64 41.84L64.57 41.76L64.54 41.73Q64.45 42.70 63.80 44.15L63.73 44.08L63.84 44.19Q66.52 42.95 68.65 42.57L68.78 42.70L68.70 42.62Q69.37 40.21 69.87 35.94L69.75 35.83L69.87 35.94Q72.41 38.15 77.86 42.49Z"/></svg>