<svg xmlns="http://www.w3.org/2000/svg" width="150" height="50" viewBox="0,0,150,50"><path fill="#222" d="M94.83 28.86L94.87 28.89L94.91 28.93Q92.36 28.94 91.33 30.12L91.26 30.04L91.31 30.09Q90.35 31.34 90.35 33.97L90.34 33.96L90.33 33.94Q90.34 39.06 94.94 38.87L94.89 38.81L94.81 38.73Q97.04 39.06 98.39 37.50L98.30 37.40L98.43 37.54Q99.74 35.93 99.51 33.87L99.40 33.77L99.42 33.79Q99.43 31.25 98.56 30.22L98.52 30.18L98.62 30.29Q97.09 28.91 94.89 28.91ZM99.91 38.69L99.90 38.68L99.91 38.69Q98.72 41.16 94.04 41.16L94.07 41.19L92.54 41.11L92.69 41.26Q90.19 41.11 89.08 39.97L89.16 40.05L89.21 40.10Q88.09 38.98 87.83 36.58L87.91 36.66L87.94 36.70Q87.72 35.15 87.65 33.36L87.73 33.44L87.71 33.42Q87.64 32.40 87.49 30.46L87.34 30.31L87.35 30.32Q87.26 26.05 92.44 26.05L92.57 26.17L93.98 26.02L94.05 26.09Q96.99 26.14 99.08 27.43L98.96 27.31L99.09 27.44Q99.84 27.88 100.33 28.57L100.31 28.55L100.38 28.61Q100.56 27.73 101.09 26.09L101.15 26.15L101.22 26.22Q102.36 25.95 104.68 25.34L104.59 25.25L104.74 25.40Q102.01 29.49 102.01 34.74L102.14 34.87L101.99 34.72Q102.15 38.61 103.53 41.70L103.38 41.56L103.52 41.69Q102.38 41.39 100.48 41.16L100.36 41.04L100.44 41.12Q100.16 40.20 99.86 38.64ZM103.18 43.86L103.25 43.93L105.39 44.44L105.47 44.52Q106.63 44.76 107.62 45.22L107.66 45.26L107.68 45.28Q103.93 40.85 103.93 34.76L103.93 34.75L104.01 34.83Q103.94 30.23 106.07 26.43L106.17 26.53L106.16 26.52Q105.46 26.69 104.13 27.07L104.10 27.05L104.17 27.11Q104.52 26.36 105.39 24.84L105.41 24.85L105.36 24.81Q104.78 24.98 100.78 25.82L100.77 25.81L100.15 27.59L100.14 27.58Q98.45 25.93 94.04 25.70L94.04 25.70L93.96 25.62Q92.88 25.68 90.63 25.84L90.72 25.93L90.76 25.96Q86.99 26.23 87.10 30.26L87.08 30.24L87.18 30.34Q87.12 33.48 87.69 37.93L87.84 38.08L87.88 38.54L87.84 38.50Q87.86 39.24 88.66 40.35L88.75 40.44L88.82 40.51Q88.84 40.53 89.03 40.64L89.15 40.76L89.12 40.73Q89.37 41.21 89.75 41.78L89.77 41.80L89.70 41.73Q91.07 43.21 94.46 43.40L94.49 43.44L94.59 43.53Q96.19 43.62 96.35 43.62L96.28 43.56L97.79 43.50L97.90 43.61Q101.12 43.63 102.34 42.07L102.34 42.08L102.34 42.07Q102.67 42.67 103.28 43.97ZM96.63 31.11L96.64 31.12L96.68 31.16Q97.93 31.08 98.77 31.54L98.89 31.65L98.82 31.59Q99.12 32.38 99.12 33.83L99.13 33.84L99.09 33.80Q99.29 35.71 98.01 37.13L98.12 37.24L98.12 37.24Q96.83 38.66 94.93 38.47L94.98 38.53L94.87 38.41Q93.40 38.39 92.37 37.97L92.44 38.03L92.32 37.92Q92.18 37.13 92.18 35.91L92.23 35.97L92.25 35.98Q92.32 32.40 94.95 31.45L94.95 31.45L94.88 31.38Q95.89 31.17 96.69 31.17Z"/><path fill="#444" d="M47.52 18.37L47.59 18.44L47.51 18.36Q46.97 18.93 46.82 19.73L46.65 19.56L46.81 24.86L46.70 24.75Q47.83 24.74 50.04 24.47L50.08 24.51L50.08 24.51Q50.04 24.93 50.00 25.77L50.04 25.80L49.91 25.67Q49.92 26.48 49.92 26.94L49.99 27.01L48.46 27.16L48.45 27.15Q47.62 27.19 46.75 27.19L46.72 27.16L46.81 27.25Q46.70 31.33 46.62 39.71L46.64 39.72L46.69 39.78Q44.38 39.75 42.90 40.43L42.87 40.40L43.00 40.54Q44.00 34.30 43.88 27.07L43.99 27.18L43.81 27.00Q43.31 27.10 42.01 26.84L41.97 26.79L42.00 26.83Q41.92 25.75 41.73 23.81L41.72 23.80L41.76 23.84Q42.83 24.30 43.78 24.49L43.88 24.59L43.83 24.54Q43.77 23.87 43.46 21.40L43.50 21.43L43.46 21.39Q43.32 19.43 43.32 18.48L43.28 18.43L43.19 18.35Q43.19 16.66 44.59 16.09L44.72 16.22L44.57 16.07Q45.44 15.76 50.27 14.92L50.39 15.04L50.40 15.04Q51.04 14.74 51.88 14.62L51.90 14.64L51.89 14.63Q51.71 15.44 51.56 16.32L51.52 16.28L51.27 17.89L51.34 17.97Q50.58 17.70 50.08 17.81L50.20 17.93L50.09 17.82Q49.56 17.90 47.66 18.51ZM53.02 19.57L53.10 19.65L53.09 19.64Q53.35 17.35 53.96 14.80L53.92 14.76L54.04 14.88Q53.36 15.15 52.07 15.76L52.10 15.80L52.51 14.11L52.45 14.05Q51.18 14.19 48.71 14.73L48.69 14.70L48.88 14.89Q47.58 14.86 44.39 15.77L44.49 15.87L44.39 15.77Q42.89 16.26 42.89 18.12L42.82 18.05L42.74 17.97Q42.91 18.44 42.98 18.78L42.95 18.75L42.94 18.74Q43.22 20.12 43.33 21.46L43.27 21.39L43.52 24.12L43.49 24.09Q42.04 23.63 41.40 23.17L41.50 23.28L41.41 23.18Q41.53 24.14 41.56 25.17L41.62 25.22L41.80 27.27L41.78 27.24Q42.41 27.35 43.21 27.43L43.26 27.47L43.20 29.51L43.53 29.45L43.54 29.47Q43.45 35.62 42.46 41.06L42.58 41.18L42.51 41.11Q43.44 40.56 44.62 40.30L44.57 40.24L44.39 42.31L44.52 42.44Q45.76 42.15 47.05 42.12L46.97 42.03L47.03 42.10Q48.26 42.06 49.51 42.33L49.58 42.39L49.43 42.25Q48.67 37.34 48.67 29.38L48.64 29.35L48.64 29.35Q49.81 29.41 51.90 29.49L51.89 29.48L51.93 27.66L51.87 27.60Q51.80 26.57 51.84 25.62L51.96 25.74L51.90 25.68Q51.32 25.67 50.25 25.94L50.44 26.12L50.40 26.09Q50.43 25.43 50.55 24.10L50.47 24.03L50.50 24.05Q49.64 24.26 48.84 24.34L48.84 24.34L48.84 24.34Q48.92 23.00 49.03 21.59L48.99 21.55L48.94 21.51Q49.11 20.87 49.64 20.53L49.63 20.52L49.67 20.56Q50.59 19.84 51.40 19.76L51.42 19.78L51.29 19.65Q52.11 19.57 52.95 19.50Z"/><path fill="#333" d="M128.27 37.83L128.25 37.81L128.29 37.85Q128.72 38.97 129.25 40.99L129.23 40.97L129.15 40.88Q124.87 39.50 120.26 39.76L120.34 39.85L120.27 39.77Q115.73 40.07 111.73 42.05L111.78 42.10L111.84 42.15Q112.04 41.44 112.08 41.52L112.00 41.43L112.11 41.55Q115.82 37.56 119.74 33.15L119.61 33.02L119.62 33.03Q124.13 28.13 125.31 23.45L125.23 23.38L125.37 23.52Q125.68 21.61 124.40 20.43L124.54 20.58L124.43 20.47Q123.18 19.30 121.39 19.46L121.43 19.50L121.33 19.39Q121.14 19.51 120.80 19.51L120.79 19.51L120.69 19.40Q119.25 19.49 117.99 20.40L117.94 20.35L117.97 20.38Q116.61 21.69 116.84 24.35L116.81 24.32L116.91 24.42Q115.15 24.11 113.93 23.65L113.88 23.59L113.89 23.61Q113.67 22.17 113.59 20.72L113.61 20.74L113.61 20.73Q113.63 19.20 114.24 18.06L114.22 18.04L114.22 18.03Q115.91 16.56 119.26 16.56L119.33 16.63L121.06 16.62L121.12 16.67Q123.31 16.62 124.26 16.73L124.23 16.70L124.33 16.81Q128.56 17.11 128.83 19.55L128.95 19.67L128.92 19.64Q128.97 20.19 128.89 20.99L128.79 20.89L128.96 21.05Q128.88 21.66 128.73 22.35L128.62 22.23L128.61 22.23Q126.95 30.31 119.37 37.16L119.55 37.34L119.52 37.31Q120.94 37.17 122.31 37.17L122.20 37.05L122.26 37.11Q125.51 37.13 128.36 37.93ZM127.80 17.11L127.76 17.07L127.80 17.11Q126.17 16.43 124.45 16.35L124.36 16.26L121.03 16.16L120.93 16.07Q116.53 15.85 114.32 16.96L114.39 17.03L114.33 16.97Q113.34 18.42 113.34 20.47L113.28 20.41L113.39 20.52Q113.42 21.24 113.73 24.06L113.62 23.95L113.65 23.98Q114.19 24.21 115.37 24.52L115.33 24.48L115.38 25.56L115.28 25.46Q115.39 26.06 115.47 26.59L115.40 26.53L115.43 26.56Q116.60 26.59 119.08 26.82L119.08 26.82L119.15 26.89Q119.05 26.44 119.05 26.10L119.17 26.22L119.01 26.06Q119.17 24.40 120.39 23.05L120.29 22.94L120.40 23.05Q121.54 21.62 123.32 21.74L123.39 21.80L123.31 21.72Q124.03 21.72 124.79 21.87L124.91 21.99L124.88 21.96Q124.89 22.24 124.97 22.65L124.96 22.65L125.04 22.73Q125.16 23.23 125.08 23.57L124.96 23.45L125.03 23.52Q123.73 28.23 119.32 33.07L119.39 33.14L119.38 33.14Q117.25 35.38 111.81 41.44L111.83 41.46L111.76 41.38Q111.48 42.14 111.14 42.71L111.12 42.69L111.17 42.74Q112.90 41.99 114.42 41.46L114.38 41.42L114.42 41.46Q113.54 41.87 112.59 43.36L112.62 43.39L112.74 43.51Q112.46 43.69 112.35 44.03L112.33 44.01L112.41 44.10Q117.31 42.06 122.79 42.25L122.84 42.30L122.87 42.34Q128.48 42.42 133.05 44.78L132.94 44.68L132.00 42.60L132.11 42.71Q131.47 41.38 131.21 40.58L131.21 40.59L131.08 40.46Q130.33 40.01 129.11 39.59L129.24 39.72L129.27 39.75Q128.99 38.90 128.61 37.53L128.70 37.62L128.73 37.65Q126.36 36.91 124.07 36.72L124.16 36.81L124.19 36.84Q128.79 32.19 130.32 23.93L130.37 23.98L130.51 21.05L130.57 21.10Q130.48 19.30 129.26 18.61L129.33 18.68L129.30 18.69L129.19 18.58Q129.14 18.49 129.06 18.49L129.05 18.48L129.08 18.51Q128.97 17.79 127.86 17.18Z"/><path fill="#333" d="M15.91 49.55L15.92 49.57L15.91 49.56Q18.83 45.69 21.72 39.49L21.68 39.45L21.82 39.59Q18.62 32.96 12.53 24.89L12.51 24.87L12.56 24.92Q14.51 26.11 17.29 26.76L17.26 26.73L17.28 26.75Q20.83 31.44 23.27 36.66L23.24 36.63L23.28 36.67Q25.47 31.40 28.56 26.99L28.38 26.81L28.44 26.87Q30.63 26.51 32.72 25.71L32.87 25.86L32.81 25.79Q29.42 29.64 25.96 37.07L25.87 36.98L22.99 42.93L22.98 42.91Q21.69 46.20 19.94 48.83L19.80 48.69L19.90 48.79Q17.36 49.03 15.92 49.56ZM22.14 50.95L22.19 51.00L22.09 50.90Q23.93 48.13 25.38 44.86L25.34 44.82L27.96 38.39L28.03 38.45Q31.54 30.43 34.85 26.43L34.82 26.39L34.82 26.40Q33.60 27.19 31.70 27.88L31.68 27.86L32.68 26.43L32.75 26.50Q33.15 25.64 33.76 24.96L33.88 25.08L33.85 25.04Q31.21 26.14 28.35 26.59L28.32 26.56L28.35 26.59Q25.57 30.47 23.63 34.92L23.61 34.90L23.56 34.86Q21.91 31.53 20.12 28.71L20.20 28.80L20.20 28.79Q19.95 28.74 19.59 28.70L19.70 28.81L19.68 28.79Q19.33 28.76 19.14 28.76L19.00 28.63L19.00 28.62Q18.40 27.53 17.45 26.39L17.36 26.30L17.44 26.38Q14.11 25.56 11.37 23.85L11.49 23.97L11.52 24.00Q17.67 31.89 21.36 39.51L21.40 39.55L21.41 39.56Q19.23 44.62 15.16 50.25L15.07 50.16L15.15 50.24Q16.06 50.05 16.86 49.90L16.85 49.88L18.37 49.42L18.33 49.39Q17.79 50.17 16.61 51.81L16.66 51.86L16.60 51.80Q18.81 51.12 22.08 50.89Z"/><path fill="#222" d="M64.38 15.80L64.44 15.86L64.48 15.90Q66.43 20.82 67.00 25.99L66.88 25.88L66.84 25.84Q70.70 21.85 76.60 17.02L76.57 16.99L76.56 16.98Q79.67 16.58 82.30 15.78L82.35 15.84L75.78 21.45L75.89 21.56Q72.31 24.34 69.45 27.19L69.60 27.34L69.47 27.21Q77.38 36.30 82.44 41.02L82.52 41.10L82.61 41.19Q79.51 40.26 77.19 40.10L77.12 40.03L77.10 40.02Q71.36 34.66 67.06 28.83L67.10 28.87L67.06 28.84Q67.16 35.44 65.29 40.77L65.21 40.69L65.21 40.69Q65.07 40.82 64.58 41.01L64.61 41.04L64.44 41.06L64.55 41.17Q64.41 41.26 61.86 42.17L61.76 42.07L61.87 42.18Q64.76 35.56 64.42 28.09L64.34 28.02L64.40 28.08Q64.10 20.77 60.56 14.26L60.57 14.27L61.00 14.44L61.51 14.83L61.56 14.84L61.59 14.88Q62.23 15.17 64.44 15.86ZM64.79 15.63L64.76 15.61L64.62 15.47Q62.46 15.02 59.83 13.49L59.71 13.37L59.76 13.43Q64.16 20.83 64.16 29.78L64.20 29.82L64.13 29.74Q64.12 36.74 61.15 42.79L61.10 42.74L63.18 41.93L63.10 41.85Q62.79 42.95 62.10 44.24L62.08 44.22L61.99 44.13Q64.24 43.33 66.18 42.91L66.32 43.05L66.34 42.85L66.25 42.75Q66.60 42.80 67.17 42.65L67.18 42.66L67.23 42.71Q68.76 36.66 68.87 31.86L68.95 31.94L68.84 31.83Q70.94 34.36 72.77 36.22L72.95 36.40L72.88 36.33Q74.04 37.41 77.05 40.38L77.05 40.39L77.18 40.51L77.03 40.37Q78.15 41.30 80.02 42.89L80.03 42.91L79.97 42.85Q83.75 43.47 87.22 45.18L87.31 45.28L87.36 45.33Q78.06 36.75 71.82 29.33L71.73 29.24L71.70 29.21Q76.18 25.01 84.94 16.41L84.95 16.42L84.97 16.44Q82.45 17.62 80.44 18.00L80.44 18.00L80.37 17.93Q81.54 16.89 83.86 14.88L83.97 14.99L83.85 14.86Q79.74 16.27 76.39 16.46L76.44 16.52L76.37 16.44Q73.43 18.64 68.55 23.32L68.56 23.33L68.58 23.35Q68.28 20.84 67.71 18.29L67.64 18.22L67.60 18.19Q66.48 18.08 65.49 17.74L65.49 17.74L65.50 17.76Q65.31 17.03 64.74 15.59Z"/></svg>