<svg xmlns="http://www.w3.org/2000/svg" width="150" height="50" viewBox="0,0,150,50"><path fill="#111" d="M45.61 28.63L45.55 28.56L45.63 28.64Q42.85 28.68 42.09 30.93L41.94 30.78L41.94 30.78Q41.83 31.62 41.71 32.26L41.60 32.15L41.68 32.23Q44.21 32.37 45.85 32.37L45.95 32.46L45.88 32.40Q47.66 32.54 50.25 32.42L50.10 32.28L50.14 32.31Q49.97 30.55 48.57 29.49L48.68 29.60L48.60 29.52Q47.41 28.63 45.62 28.63ZM45.69 41.20L45.66 41.16L45.69 41.19Q41.48 41.21 40.19 39.80L40.24 39.85L40.19 39.80Q39.14 38.26 38.99 34.99L39.11 35.10L39.02 35.01Q39.10 34.87 39.02 33.49L39.08 33.55L39.01 33.49Q38.80 31.11 38.80 30.38L38.90 30.47L38.84 30.42Q38.75 28.46 39.47 27.36L39.56 27.45L39.50 27.39Q41.02 26.09 43.99 26.09L43.96 26.06L45.40 25.94L45.49 26.03Q47.56 26.04 49.08 26.35L48.98 26.25L49.15 26.42Q51.16 26.82 52.15 28.04L52.09 27.99L52.15 28.05Q52.78 29.13 52.86 31.23L52.87 31.24L52.86 31.23Q52.89 32.40 52.93 34.57L52.75 34.40L52.74 34.38Q49.99 34.52 47.21 34.52L47.29 34.61L41.65 34.56L41.60 34.51Q41.72 38.90 45.80 38.67L45.78 38.65L45.79 38.66Q49.60 38.52 50.82 36.69L50.87 36.74L50.86 36.73Q51.66 37.18 53.26 38.36L53.26 38.37L53.28 38.38Q51.87 40.75 47.72 41.02L47.82 41.11L47.85 41.14Q47.00 41.05 45.62 41.13ZM47.90 43.44L48.01 43.55L47.98 43.52Q49.13 43.53 50.35 43.61L50.37 43.62L50.22 43.47Q55.33 43.79 56.25 41.01L56.11 40.88L56.16 40.92Q54.52 39.66 53.41 38.90L53.49 38.98L53.50 38.99Q53.58 38.50 53.77 38.27L53.78 38.28L53.92 38.42Q53.03 37.80 51.66 36.84L51.73 36.91L51.66 36.84Q52.76 36.91 54.81 37.22L54.87 37.27L54.95 37.36Q54.72 35.94 54.64 35.26L54.63 35.25L54.41 33.23L54.52 33.34Q54.32 30.94 53.67 29.45L53.59 29.37L53.74 29.52Q53.50 29.20 52.92 28.59L52.79 28.46L52.83 28.50Q52.74 28.26 52.51 27.69L52.50 27.67L52.50 27.68Q50.63 25.65 45.57 25.65L45.59 25.67L43.80 25.56L43.72 25.48Q40.57 25.57 39.13 27.05L39.10 27.02L39.23 27.15Q38.54 28.26 38.58 30.31L38.57 30.30L38.47 30.21Q38.50 31.14 38.61 33.39L38.75 33.53L38.62 33.40Q38.81 35.11 38.92 37.17L38.89 37.13L38.91 37.16Q39.12 39.34 39.99 40.41L40.07 40.48L39.96 40.37Q40.22 40.63 40.41 40.74L40.25 40.59L40.60 41.28L40.58 41.26Q41.36 43.10 47.94 43.48ZM45.94 38.40L45.82 38.28L45.91 38.36Q44.78 38.49 43.87 38.04L43.87 38.04L43.70 37.87Q43.76 37.59 43.57 36.90L43.51 36.84L43.46 36.80Q45.23 36.77 46.83 36.77L46.83 36.77L46.74 36.68Q48.42 36.69 50.10 36.81L50.17 36.87L50.21 36.92Q48.86 38.19 45.85 38.30ZM47.59 31.06L47.50 30.97L47.50 30.97Q48.21 31.07 49.54 31.45L49.55 31.46L49.61 31.72L49.69 31.98L49.74 32.03Q48.29 32.06 47.37 32.03L47.34 31.99L47.38 32.03Q45.02 31.91 44.98 31.91L45.00 31.93L45.16 32.09Q45.93 31.19 47.60 31.07Z"/><path fill="#333" d="M120.35 29.11L120.34 29.11L120.37 29.13Q118.61 29.09 117.38 30.52L117.29 30.43L117.32 30.46Q115.95 31.76 115.76 33.66L115.90 33.80L115.88 33.78Q115.64 35.83 116.73 36.80L116.74 36.82L116.80 36.87Q117.73 37.68 119.82 37.57L119.88 37.63L119.91 37.66Q121.88 37.39 122.99 36.70L123.02 36.74L123.02 36.74Q124.28 35.75 124.28 34.19L124.17 34.08L124.15 34.06Q124.16 33.68 124.08 33.30L124.15 33.37L124.19 33.41Q124.18 31.65 123.08 30.30L123.07 30.29L123.03 30.26Q122.08 29.06 120.40 29.17ZM119.95 40.25L119.96 40.26L119.96 40.26Q115.62 40.30 114.21 39.54L114.18 39.51L114.11 39.43Q113.03 38.62 112.84 36.91L112.98 37.05L112.96 37.03Q112.78 36.21 112.82 35.48L112.99 35.65L112.84 35.50Q113.12 34.68 113.12 34.22L113.04 34.14L113.04 34.14Q113.53 31.32 113.68 30.64L113.59 30.54L113.58 30.53Q114.03 28.58 114.86 27.17L114.87 27.18L114.95 27.25Q117.67 22.94 123.61 16.58L123.63 16.60L123.50 16.47Q126.22 16.22 128.43 15.42L128.40 15.39L128.44 15.43Q121.49 22.79 118.29 27.02L118.27 27.00L118.45 27.18Q119.27 26.51 120.56 26.51L120.71 26.66L120.70 26.65Q123.97 26.61 125.49 28.55L125.42 28.48L125.47 28.53Q126.88 30.24 127.23 33.78L127.07 33.63L127.23 33.78Q127.31 34.52 127.31 35.13L127.34 35.15L127.17 34.98Q127.30 38.24 125.10 39.31L125.08 39.29L125.04 39.25Q123.80 39.84 119.92 40.22ZM122.22 42.63L122.31 42.73L122.23 42.65Q123.55 42.63 125.53 42.71L125.56 42.74L125.57 42.75Q127.05 42.67 128.61 41.94L128.73 42.06L128.72 42.06Q129.70 41.13 129.70 39.34L129.72 39.36L129.80 39.44Q129.71 38.86 129.54 37.87L129.60 37.93L129.65 37.98Q129.41 36.92 129.41 36.47L129.36 36.42L129.53 36.58Q128.49 31.70 126.90 29.80L126.94 29.85L126.93 29.84Q126.80 29.67 126.65 29.44L126.72 29.51L126.44 29.31L126.31 29.22L126.34 29.24Q126.08 28.84 125.48 27.88L125.47 27.88L125.49 27.90Q124.52 26.89 122.54 26.43L122.57 26.47L122.54 26.43Q123.68 24.75 126.65 21.06L126.68 21.09L130.98 15.87L130.91 15.81Q129.30 16.64 126.91 17.40L127.00 17.50L126.88 17.38Q127.84 16.43 129.63 14.46L129.74 14.56L129.73 14.55Q127.35 15.64 123.47 16.21L123.38 16.12L123.41 16.15Q117.73 22.08 114.76 27.03L114.67 26.94L114.76 27.03Q113.11 29.41 112.54 35.66L112.69 35.81L112.58 35.70Q112.48 36.25 112.56 37.20L112.52 37.17L112.58 37.22Q112.75 39.07 113.85 39.98L113.89 40.02L113.79 39.91Q114.15 40.05 114.12 40.09L114.11 40.09L114.13 40.11Q114.50 41.01 115.30 41.43L115.33 41.45L115.24 41.36Q116.74 42.10 118.68 42.29L118.74 42.36L118.68 42.29Q118.78 42.39 122.28 42.70ZM121.95 31.36L122.08 31.49L122.03 31.44Q122.48 31.21 123.43 31.71L123.42 31.69L123.48 31.75Q123.82 32.70 123.82 33.35L123.77 33.30L123.88 33.41Q124.06 35.26 123.11 36.25L123.17 36.32L123.00 36.15Q121.95 36.89 119.86 37.19L119.96 37.29L119.89 37.22Q118.46 37.24 117.93 36.97L117.94 36.99L117.99 37.04Q117.74 36.52 117.74 36.22L117.66 36.13L117.82 36.29Q117.46 32.89 120.40 31.60L120.43 31.63L120.45 31.66Q121.23 31.33 121.99 31.40Z"/><path fill="#222" d="M26.30 41.33L26.13 41.16L23.28 41.16L23.23 41.11Q20.89 41.05 20.09 40.94L20.04 40.89L20.11 40.96Q18.11 40.45 16.93 39.57L16.97 39.61L17.06 39.71Q15.70 38.22 15.47 34.87L15.40 34.81L15.58 34.99Q15.41 34.36 15.34 33.15L15.37 33.18L15.43 33.24Q15.46 32.85 15.39 31.75L15.37 31.73L15.30 31.66Q15.22 30.78 15.26 30.06L15.25 30.05L15.22 30.02Q15.44 28.10 16.46 27.34L16.59 27.47L16.48 27.36Q18.50 26.30 23.34 26.07L23.25 25.98L23.23 25.97Q25.35 25.95 26.15 25.95L26.08 25.88L26.09 25.89Q27.59 25.91 28.96 26.21L29.03 26.28L28.98 26.23Q28.49 27.56 27.95 29.39L27.79 29.22L27.90 29.34Q27.44 29.45 26.95 29.41L26.90 29.36L26.87 29.34Q26.74 29.29 26.21 29.17L26.21 29.17L25.20 28.88L25.37 29.05Q24.14 28.62 23.53 28.66L23.67 28.80L23.57 28.70Q18.81 28.73 18.20 31.55L18.29 31.64L18.30 31.65Q18.01 32.77 18.09 33.73L18.01 33.64L18.16 33.79Q18.31 36.38 19.55 37.47L19.51 37.43L19.53 37.45Q20.80 38.57 23.39 38.61L23.32 38.54L23.36 38.57Q24.82 38.59 25.55 38.29L25.56 38.30L26.57 37.79L26.49 37.71Q27.00 37.46 27.57 37.38L27.54 37.35L27.71 37.52Q27.90 39.27 28.28 40.56L28.31 40.60L28.30 40.59Q28.04 40.94 26.25 41.28ZM29.38 44.11L29.52 44.24L29.41 44.14Q29.82 44.20 30.66 44.28L30.61 44.22L30.78 44.40Q31.25 44.26 31.59 43.68L31.71 43.81L31.73 43.82Q30.38 41.60 29.88 39.50L30.02 39.64L29.88 39.50Q29.65 39.57 29.19 39.57L29.25 39.63L29.09 39.47Q28.66 39.46 28.28 39.66L28.29 39.67L28.36 39.74Q27.98 38.44 27.83 37.03L27.92 37.12L27.77 36.98Q27.34 37.08 26.12 37.65L25.99 37.52L25.96 37.49Q24.84 38.15 24.34 38.15L24.27 38.08L24.28 38.09Q23.91 38.22 23.30 38.18L23.21 38.08L23.24 38.11Q22.25 38.00 20.27 37.43L20.40 37.56L20.34 37.50Q19.99 36.77 20.03 35.63L20.14 35.74L20.07 35.67Q20.19 31.37 25.14 30.84L25.15 30.85L25.15 30.85Q25.85 30.87 27.22 31.21L27.31 31.29L27.25 31.24Q28.69 31.65 29.41 31.61L29.40 31.60L29.35 31.55Q29.85 29.38 30.54 27.56L30.44 27.46L30.43 27.45Q30.04 27.33 29.66 27.25L29.60 27.19L28.86 27.14L28.99 27.27Q29.20 26.79 29.58 25.92L29.45 25.78L29.56 25.90Q27.93 25.44 26.37 25.44L26.39 25.47L26.33 25.40Q24.09 25.56 19.71 25.94L19.62 25.85L19.65 25.88Q17.72 26.05 16.16 27.04L16.05 26.93L16.10 26.97Q14.95 28.00 14.95 29.91L14.98 29.94L14.93 29.88Q14.88 30.25 15.00 31.47L15.13 31.61L14.94 31.41Q15.09 32.51 15.05 33.12L14.98 33.05L15.04 33.11Q15.19 35.13 15.91 38.86L15.81 38.76L15.79 38.74Q16.23 39.63 16.72 40.13L16.75 40.15L16.84 40.24L17.06 40.42L16.91 40.27Q17.97 42.44 21.89 43.05L21.86 43.01L21.88 43.03Q25.02 43.51 27.68 43.78L27.77 43.87L27.69 43.79Q28.54 43.91 29.45 44.17Z"/><path fill="#333" d="M72.18 18.37L72.22 18.41L72.23 18.42Q71.62 18.91 71.47 19.71L71.31 19.55L71.30 24.68L71.37 24.75Q72.45 24.69 74.66 24.43L74.71 24.48L74.77 24.54Q74.75 24.97 74.71 25.81L74.75 25.85L74.58 25.68Q74.73 26.63 74.73 27.09L74.57 26.92L73.01 27.04L72.97 27.00Q72.17 27.07 71.30 27.07L71.49 27.26L71.48 27.26Q71.32 31.29 71.25 39.67L71.40 39.82L71.28 39.70Q69.02 39.72 67.54 40.41L67.67 40.54L67.71 40.58Q68.74 34.38 68.62 27.14L68.50 27.02L68.62 27.14Q67.92 27.04 66.62 26.78L66.70 26.85L66.70 26.86Q66.68 25.85 66.49 23.91L66.51 23.92L66.42 23.83Q67.54 24.34 68.49 24.53L68.55 24.59L68.47 24.52Q68.54 23.98 68.24 21.50L68.07 21.33L68.15 21.41Q67.93 19.37 67.93 18.42L67.84 18.33L67.97 18.45Q67.93 16.74 69.34 16.17L69.30 16.13L69.24 16.07Q70.13 15.78 74.96 14.94L75.11 15.08L74.98 14.96Q75.89 14.92 76.73 14.80L76.71 14.78L76.61 14.69Q76.39 15.46 76.24 16.33L76.22 16.31L76.05 18.01L76.03 17.99Q75.30 17.75 74.80 17.86L74.85 17.91L74.89 17.96Q74.23 17.90 72.32 18.51ZM77.67 19.55L77.80 19.68L77.67 19.55Q78.11 17.44 78.72 14.89L78.71 14.88L78.67 14.84Q78.08 15.20 76.78 15.81L76.81 15.84L77.06 13.99L77.22 14.16Q75.90 14.24 73.43 14.77L73.38 14.73L73.49 14.84Q72.18 14.79 68.98 15.70L69.16 15.88L69.11 15.83Q67.60 16.30 67.60 18.16L67.47 18.04L67.49 18.05Q67.53 18.39 67.60 18.74L67.67 18.81L67.65 18.78Q67.80 20.04 67.91 21.37L68.02 21.47L68.04 23.97L68.03 23.96Q66.81 23.73 66.17 23.28L66.01 23.12L66.05 23.16Q66.16 24.11 66.20 25.13L66.19 25.13L66.44 27.25L66.41 27.22Q67.17 27.44 67.97 27.52L67.84 27.39L67.96 29.60L68.32 29.58L68.32 29.58Q68.07 35.57 67.08 41.02L67.08 41.01L67.13 41.06Q68.10 40.55 69.28 40.28L69.24 40.24L69.05 42.31L69.08 42.34Q70.40 42.13 71.69 42.09L71.67 42.06L71.72 42.12Q72.90 42.04 74.16 42.31L74.17 42.32L74.15 42.30Q73.39 37.40 73.39 29.44L73.33 29.37L73.33 29.37Q74.34 29.28 76.43 29.36L76.58 29.50L76.63 27.69L76.45 27.51Q76.56 26.67 76.60 25.72L76.66 25.77L76.58 25.69Q76.13 25.82 75.07 26.08L75.09 26.10L74.93 25.95Q75.05 25.38 75.16 24.05L75.16 24.05L75.10 23.99Q74.31 24.26 73.51 24.34L73.42 24.25L73.40 24.22Q73.40 22.82 73.52 21.42L73.65 21.55L73.62 21.52Q73.73 20.83 74.26 20.49L74.31 20.53L74.38 20.60Q75.18 19.77 76.00 19.69L76.03 19.72L76.00 19.69Q76.80 19.60 77.64 19.52Z"/><path fill="#222" d="M93.01 19.36L93.03 19.39L93.10 19.45Q93.95 23.69 94.10 27.27L94.06 27.22L94.04 27.20Q95.07 27.21 96.14 27.21L96.09 27.16L98.44 27.30L98.47 27.34Q99.33 27.13 100.21 25.72L100.29 25.81L100.23 25.74Q100.93 24.54 101.05 23.36L101.04 23.36L101.17 23.49Q101.57 20.50 97.34 20.00L97.30 19.96L97.33 19.99Q95.70 20.00 93.07 19.43ZM94.07 29.98L94.09 30.00L93.98 29.89Q94.06 36.25 92.92 40.67L92.85 40.60L92.76 40.51Q91.30 40.91 88.97 41.97L89.03 42.04L88.98 41.98Q91.49 35.47 91.23 28.20L91.16 28.13L91.14 28.11Q90.90 20.79 88.12 14.36L88.13 14.37L88.16 14.40Q92.28 17.15 98.52 17.15L98.43 17.05L98.48 17.10Q104.45 17.02 104.60 20.48L104.63 20.51L104.68 20.56Q104.76 23.00 103.77 25.67L103.69 25.58L103.68 25.58Q103.32 26.74 102.37 27.96L102.42 28.01L102.36 27.95Q101.05 29.57 98.50 29.84L98.57 29.91L98.56 29.90Q96.25 29.88 94.01 29.91ZM100.16 32.19L100.09 32.11L100.16 32.19Q104.32 32.42 105.57 27.62L105.51 27.56L105.61 27.66Q106.58 24.03 106.43 22.01L106.40 21.98L106.40 21.98Q106.35 20.52 105.59 19.53L105.43 19.37L105.44 19.38Q105.14 19.08 104.64 18.85L104.64 18.85L104.62 18.83Q104.60 18.65 103.99 17.89L104.01 17.92L104.06 17.97Q102.43 16.56 98.47 16.56L98.62 16.71L98.48 16.57Q91.66 16.64 87.43 13.48L87.46 13.51L87.40 13.45Q90.53 20.50 90.79 27.96L90.91 28.07L90.77 27.93Q91.24 35.79 88.58 42.87L88.51 42.81L88.44 42.74Q89.49 42.07 90.48 41.69L90.62 41.83L90.25 42.98L90.21 42.95Q89.96 43.46 89.70 44.03L89.65 43.98L89.63 43.96Q92.18 43.04 95.07 42.51L95.08 42.52L95.01 42.45Q95.80 36.89 95.88 32.17L95.87 32.16L95.90 32.18Q96.95 32.06 97.94 32.06L98.09 32.20L98.11 32.23Q99.29 32.08 100.09 32.12ZM99.22 22.26L99.16 22.20L99.16 22.20Q99.77 22.32 100.76 22.55L100.79 22.57L100.66 22.45Q100.87 22.77 100.91 23.07L100.85 23.01L100.83 22.99Q100.80 23.19 100.72 23.46L100.79 23.53L100.86 23.59Q100.62 24.69 99.90 25.57L99.90 25.57L100.00 25.67Q99.47 26.77 98.44 26.96L98.42 26.94L98.34 26.86Q97.56 26.81 95.92 26.81L95.94 26.82L96.07 26.95Q95.85 24.48 95.62 22.12L95.69 22.20L97.47 22.30L97.40 22.23Q98.26 22.25 99.13 22.17Z"/></svg>