<svg xmlns="http://www.w3.org/2000/svg" width="150" height="50" viewBox="0,0,150,50"><path fill="#222" d="M15.08 15.83L15.07 15.82L15.18 15.93Q17.10 20.82 17.67 26.00L17.60 25.93L17.60 25.93Q21.25 21.73 27.15 16.90L27.16 16.91L27.11 16.86Q30.42 16.67 33.05 15.87L33.10 15.92L26.42 21.42L26.43 21.43Q23.07 24.43 20.21 27.29L20.20 27.27L20.10 27.18Q28.17 36.43 33.24 41.15L33.26 41.17L33.12 41.03Q30.05 40.13 27.73 39.97L27.87 40.12L27.81 40.06Q21.98 34.61 17.68 28.79L17.60 28.71L17.69 28.80Q17.73 35.34 15.86 40.67L16.05 40.86L16.02 40.83Q15.69 40.77 15.19 40.96L15.28 41.04L15.12 41.07L15.12 41.07Q15.08 41.27 12.53 42.18L12.52 42.17L12.37 42.02Q15.40 35.53 15.06 28.07L14.97 27.98L15.10 28.11Q14.76 20.77 11.22 14.26L11.11 14.15L11.81 14.58L12.10 14.76L12.24 14.85L12.17 14.79Q12.82 15.09 15.03 15.78ZM15.28 15.46L15.34 15.52L15.44 15.63Q13.01 14.90 10.38 13.38L10.52 13.52L10.57 13.56Q14.72 20.72 14.72 29.67L14.84 29.79L14.78 29.73Q14.70 36.66 11.73 42.71L11.83 42.81L13.84 41.93L13.83 41.92Q13.42 42.91 12.73 44.21L12.74 44.21L12.73 44.20Q14.92 43.35 16.87 42.93L16.87 42.94L16.92 42.76L16.99 42.83Q17.21 42.75 17.79 42.60L17.92 42.73L17.78 42.59Q19.40 36.64 19.52 31.84L19.51 31.83L19.51 31.84Q21.78 34.53 23.61 36.39L23.46 36.24L23.57 36.36Q24.74 37.44 27.74 40.41L27.62 40.29L27.69 40.35L27.70 40.37Q28.79 41.27 30.66 42.87L30.62 42.83L30.65 42.86Q34.42 43.47 37.88 45.18L38.01 45.31L38.02 45.32Q28.64 36.66 22.40 29.24L22.49 29.33L22.50 29.34Q26.79 24.96 35.55 16.35L35.50 16.30L35.67 16.47Q33.00 17.50 30.98 17.88L31.07 17.97L30.93 17.83Q32.30 16.99 34.63 14.97L34.65 14.99L34.66 15.01Q30.54 16.41 27.19 16.60L27.01 16.42L27.01 16.42Q24.21 18.75 19.33 23.44L19.35 23.45L19.23 23.33Q19.00 20.89 18.43 18.34L18.26 18.18L18.37 18.28Q17.10 18.04 16.11 17.70L16.24 17.83L16.12 17.71Q15.89 16.94 15.32 15.50Z"/><path fill="#222" d="M55.04 30.25L55.21 30.42L55.07 30.28Q55.32 30.04 55.28 29.62L55.25 29.59L55.14 29.48Q55.19 29.22 54.89 29.03L54.83 28.98L54.75 28.89Q54.15 28.45 53.28 28.60L53.22 28.54L53.12 28.45Q52.11 28.50 50.47 29.60L50.57 29.70L50.54 29.68Q49.18 30.63 49.18 31.81L49.09 31.73L49.04 31.68Q49.02 32.91 49.02 36.22L49.16 36.36L49.04 36.24Q49.15 38.94 49.30 40.96L49.30 40.95L49.22 40.88Q47.45 40.82 47.45 40.82L47.41 40.78L47.45 40.82Q46.60 40.92 45.88 41.00L45.88 41.00L45.72 40.84Q46.20 38.38 46.27 36.14L46.23 36.09L46.22 36.08Q46.34 31.41 45.70 30.12L45.75 30.17L45.77 30.19Q45.50 29.61 44.92 29.31L44.99 29.37L44.97 29.36Q44.20 28.70 42.64 28.59L42.54 28.49L42.60 28.55Q40.62 28.36 40.09 29.96L39.94 29.81L40.00 29.86Q39.84 30.36 39.96 30.85L40.03 30.92L40.01 30.91Q40.62 33.61 40.28 36.39L40.18 36.29L40.29 36.40Q39.96 39.19 38.55 41.63L38.55 41.63L38.55 41.63Q37.63 41.89 35.54 42.31L35.56 42.33L35.45 42.22Q37.94 38.96 37.94 34.66L38.02 34.74L37.85 34.57Q38.04 28.90 34.01 24.67L33.96 24.63L33.94 24.61Q34.63 24.84 35.58 25.07L35.57 25.06L37.32 25.47L37.42 25.58Q37.90 26.21 38.78 27.88L38.70 27.81L38.79 27.90Q38.85 25.90 41.28 25.86L41.23 25.81L41.38 25.95Q41.39 25.77 42.38 25.85L42.53 26.00L42.47 25.94Q47.49 26.28 48.63 29.10L48.65 29.11L48.66 29.12Q50.28 26.36 55.30 25.83L55.25 25.78L55.39 25.92Q55.99 25.64 56.86 25.75L56.87 25.76L56.92 25.81Q59.07 25.94 58.92 27.50L59.05 27.64L58.96 27.55Q58.99 28.29 58.72 29.06L58.63 28.97L58.74 29.08Q57.24 31.99 57.47 35.53L57.55 35.61L57.40 35.47Q57.58 38.92 59.48 41.73L59.67 41.92L59.54 41.79Q57.87 41.45 56.04 41.22L56.09 41.28L56.06 41.25Q54.88 38.73 54.68 35.95L54.59 35.85L54.74 36.00Q54.52 33.12 55.17 30.38ZM55.80 41.59L55.77 41.56L55.80 41.59Q56.66 41.81 57.99 42.00L57.88 41.89L57.83 41.83Q58.45 42.64 59.59 44.05L59.50 43.96L59.64 44.10Q62.58 44.68 64.67 45.32L64.64 45.29L64.69 45.34Q59.52 41.27 59.25 34.76L59.39 34.90L59.38 34.90Q59.13 32.63 59.74 30.73L59.80 30.79L59.76 30.75Q60.02 29.90 60.02 29.17L59.94 29.10L60.00 29.16Q60.02 28.27 59.41 27.70L59.49 27.77L59.38 27.62L59.45 27.70Q59.42 27.09 59.34 26.60L59.33 26.59L59.49 26.74Q59.25 26.08 58.79 25.82L58.92 25.95L58.91 25.94Q58.17 25.39 57.30 25.35L57.32 25.38L57.36 25.42Q54.46 25.25 51.79 26.20L51.86 26.27L51.91 26.32Q49.91 26.98 48.73 28.39L48.70 28.36L48.63 28.29Q47.01 25.76 42.17 25.42L42.33 25.58L42.25 25.49Q41.47 25.36 41.05 25.36L41.08 25.39L41.06 25.37Q39.06 25.42 38.45 26.68L38.57 26.80L38.43 26.66Q38.14 26.18 37.45 25.11L37.54 25.20L37.51 25.17Q34.94 24.54 32.96 23.90L32.96 23.89L33.13 24.06Q37.60 28.27 37.60 34.55L37.75 34.70L37.64 34.58Q37.60 39.27 34.74 42.73L34.81 42.79L34.89 42.88Q35.29 42.67 35.79 42.60L35.86 42.67L36.70 42.36L36.79 42.45Q36.14 43.56 35.04 44.77L34.95 44.69L35.01 44.75Q36.62 44.42 39.74 43.81L39.72 43.79L39.65 43.72Q42.40 39.69 42.40 34.78L42.35 34.73L42.39 34.77Q42.41 33.99 42.34 33.15L42.32 33.14L42.31 33.13Q42.28 32.41 43.27 31.61L43.29 31.63L43.17 31.55L43.11 31.49Q43.74 31.05 44.92 30.94L44.99 31.02L45.01 31.03Q45.40 31.00 45.70 31.00L45.80 31.10L45.75 31.24L45.84 31.33Q46.10 34.02 45.98 36.38L46.01 36.41L45.90 36.30Q45.78 38.58 45.29 41.24L45.24 41.20L45.40 41.36Q46.43 41.36 46.43 41.36L46.29 41.22L46.40 41.33Q47.74 41.22 47.40 41.22L47.47 41.29L47.43 41.25Q47.54 41.86 47.50 42.32L47.34 42.15L47.52 42.33Q47.45 42.77 47.45 43.26L47.41 43.22L49.91 43.24L49.78 43.11Q51.06 43.14 52.32 43.21L52.30 43.20L52.45 43.35Q50.77 39.49 50.96 33.55L51.00 33.59L51.12 33.72Q51.17 32.63 52.35 31.86L52.21 31.72L52.29 31.80Q53.08 30.88 54.34 30.69L54.45 30.80L54.83 30.88L54.75 30.80Q54.29 32.70 54.29 34.68L54.40 34.79L54.33 34.71Q54.39 38.54 55.91 41.70ZM50.36 30.14L50.41 29.96L50.44 30.33L50.41 30.19Z"/><path fill="#111" d="M71.02 29.12L71.05 29.15L70.95 29.05Q69.19 29.00 67.95 30.43L68.04 30.51L67.92 30.40Q66.77 31.91 66.58 33.82L66.42 33.66L66.61 33.85Q66.26 35.78 67.34 36.75L67.47 36.88L67.47 36.87Q68.38 37.68 70.48 37.56L70.58 37.66L70.64 37.72Q72.74 37.58 73.85 36.90L73.73 36.77L73.73 36.78Q74.80 35.60 74.80 34.04L74.99 34.23L74.93 34.17Q74.96 33.82 74.89 33.44L74.76 33.32L74.84 33.40Q74.94 31.75 73.84 30.40L73.70 30.25L73.80 30.36Q72.61 28.92 70.94 29.04ZM70.63 40.26L70.65 40.28L70.64 40.27Q66.17 40.18 64.76 39.42L64.83 39.49L64.73 39.39Q63.79 38.72 63.60 37.01L63.62 37.02L63.55 36.96Q63.58 36.33 63.61 35.61L63.63 35.62L63.54 35.53Q63.77 34.66 63.77 34.20L63.79 34.23L63.72 34.16Q64.19 31.31 64.34 30.62L64.41 30.69L64.28 30.56Q64.81 28.70 65.65 27.29L65.59 27.23L65.63 27.27Q68.29 22.89 74.23 16.53L74.19 16.49L74.22 16.52Q76.90 16.23 79.10 15.43L79.00 15.32L79.15 15.47Q72.27 22.91 69.07 27.14L69.04 27.11L68.94 27.01Q70.08 26.66 71.38 26.66L71.29 26.57L71.27 26.55Q74.70 26.67 76.22 28.61L76.18 28.57L76.13 28.52Q77.52 30.22 77.87 33.76L77.91 33.80L77.85 33.74Q77.86 34.40 77.86 35.01L77.81 34.95L77.84 34.99Q77.82 38.09 75.62 39.16L75.62 39.17L75.66 39.20Q74.47 39.84 70.59 40.22ZM72.80 42.55L72.94 42.69L72.80 42.55Q74.15 42.57 76.13 42.64L76.19 42.71L76.13 42.64Q77.70 42.65 79.26 41.93L79.29 41.96L79.33 42.00Q80.50 41.26 80.50 39.47L80.40 39.37L80.36 39.33Q80.47 38.95 80.30 37.96L80.19 37.85L80.20 37.87Q80.08 36.92 80.08 36.46L80.14 36.52L80.20 36.59Q79.20 31.74 77.60 29.83L77.63 29.87L77.61 29.85Q77.57 29.77 77.42 29.54L77.37 29.50L77.13 29.33L76.99 29.23L77.06 29.30Q76.68 28.77 76.07 27.81L76.07 27.81L76.17 27.91Q75.13 26.83 73.15 26.37L73.21 26.44L73.12 26.35Q74.41 24.82 77.38 21.13L77.29 21.04L81.65 15.88L81.56 15.79Q80.07 16.74 77.68 17.50L77.70 17.52L77.59 17.41Q78.46 16.38 80.25 14.40L80.25 14.40L80.34 14.49Q77.97 15.58 74.08 16.15L73.98 16.06L73.97 16.04Q68.27 21.95 65.30 26.90L65.28 26.89L65.42 27.02Q63.79 29.43 63.22 35.67L63.22 35.67L63.28 35.73Q63.21 36.31 63.29 37.26L63.31 37.28L63.25 37.22Q63.30 38.95 64.41 39.87L64.37 39.83L64.42 39.88Q64.88 40.11 64.84 40.15L64.80 40.11L64.88 40.18Q65.22 41.06 66.02 41.48L65.92 41.38L65.95 41.41Q67.51 42.21 69.46 42.40L69.43 42.38L69.45 42.39Q69.42 42.37 72.93 42.68ZM72.58 31.33L72.66 31.41L72.69 31.43Q73.25 31.31 74.20 31.80L74.26 31.86L74.17 31.78Q74.43 32.64 74.43 33.29L74.50 33.37L74.44 33.30Q74.63 35.17 73.68 36.16L73.68 36.16L73.73 36.21Q72.66 36.93 70.57 37.23L70.54 37.21L70.63 37.29Q69.19 37.30 68.65 37.03L68.64 37.01L68.70 37.08Q68.48 36.59 68.48 36.28L68.33 36.14L68.49 36.30Q68.11 32.87 71.04 31.57L71.14 31.68L71.16 31.69Q71.90 31.33 72.66 31.41Z"/><path fill="#222" d="M99.57 27.16L99.64 27.23L99.53 27.12Q100.39 27.18 101.80 27.03L101.85 27.07L101.82 27.05Q101.68 27.59 101.68 28.24L101.78 28.34L101.71 29.53L101.68 29.49Q100.94 29.60 100.10 29.67L100.03 29.60L100.16 29.73Q99.16 29.60 98.32 29.56L98.45 29.69L98.42 29.66Q95.53 35.79 92.10 40.40L92.02 40.32L92.22 40.52Q89.57 41.03 88.28 41.64L88.41 41.77L88.25 41.61Q92.49 36.03 95.54 29.75L95.51 29.72L92.93 29.77L92.77 29.61Q92.88 28.39 92.77 27.06L92.75 27.04L92.69 26.98Q94.58 27.11 96.63 27.11L96.76 27.25L98.67 23.56L98.54 23.42Q99.60 21.59 100.81 19.99L100.82 19.99L100.81 19.99Q99.31 20.20 97.71 20.20L97.55 20.04L97.70 20.19Q91.57 20.15 87.81 17.95L87.85 17.99L87.08 16.16L87.06 16.13Q86.74 15.32 86.36 14.44L86.45 14.54L86.32 14.41Q90.84 17.21 96.55 17.44L96.38 17.27L96.49 17.38Q101.64 17.62 106.78 15.64L106.69 15.55L106.71 15.57Q106.47 15.94 105.97 16.81L106.10 16.94L105.97 16.81Q102.34 21.55 99.48 27.07ZM107.63 18.24L107.57 18.18L108.73 16.33L108.57 16.18Q107.76 16.81 106.08 17.53L105.99 17.44L106.16 17.11L106.13 17.08Q106.27 16.95 106.38 16.84L106.41 16.87L106.37 16.83Q106.75 16.14 107.47 14.81L107.57 14.91L107.46 14.80Q102.23 17.18 96.49 16.96L96.45 16.92L96.53 17.00Q90.35 16.57 85.59 13.60L85.65 13.66L85.64 13.65Q86.74 15.59 87.58 18.25L87.53 18.21L87.46 18.13Q88.66 18.87 89.46 19.18L89.53 19.26L89.37 19.09Q89.58 19.50 90.04 21.36L90.07 21.39L90.16 21.48Q93.20 22.62 98.72 22.47L98.66 22.40L98.82 22.56Q98.36 22.98 96.38 26.75L96.49 26.86L96.55 26.92Q94.41 26.84 92.43 26.65L92.45 26.67L92.42 26.63Q92.46 27.44 92.46 28.31L92.55 28.40L92.54 30.10L94.10 29.99L94.16 31.46L94.13 31.43Q90.29 38.90 87.51 42.48L87.53 42.50L87.45 42.41Q89.13 41.73 90.76 41.23L90.73 41.20L90.72 41.19Q89.97 42.04 88.60 43.76L88.70 43.85L88.59 43.74Q91.90 42.79 94.34 42.56L94.25 42.47L94.30 42.53Q97.23 38.76 100.36 31.98L100.34 31.97L103.70 32.08L103.77 32.16Q103.61 31.16 103.61 30.24L103.58 30.22L103.69 28.54L103.70 28.55Q103.48 28.59 102.93 28.63L102.92 28.62L102.89 28.59Q102.21 28.50 101.94 28.50L102.07 28.63L101.95 28.52Q102.04 28.49 102.08 28.34L102.15 28.41L102.13 28.12L102.11 28.10Q104.49 22.83 107.58 18.19Z"/><path fill="#111" d="M119.33 39.90L119.42 39.99L119.28 39.85Q115.11 39.29 113.28 37.85L113.25 37.82L113.41 37.97Q111.54 36.49 111.12 33.48L111.17 33.53L111.02 33.38Q111.00 33.02 110.66 28.26L110.79 28.39L110.73 28.32Q110.81 27.19 110.74 25.94L110.62 25.82L110.73 25.93Q110.59 20.91 112.79 19.16L112.74 19.11L112.72 19.09Q115.32 16.93 123.09 16.24L123.21 16.37L123.21 16.37Q124.40 16.08 126.04 16.11L126.09 16.17L126.14 16.22Q126.17 16.25 129.14 16.25L129.06 16.17L129.19 16.30Q130.00 16.27 131.72 16.42L131.60 16.31L131.61 16.32Q131.10 17.25 130.07 20.34L130.22 20.48L130.09 20.35Q128.05 19.19 125.04 19.19L124.93 19.08L124.94 19.09Q124.33 19.24 123.53 19.32L123.44 19.23L123.54 19.32Q118.45 19.79 115.94 21.77L115.84 21.68L115.79 21.62Q113.75 23.20 113.59 26.55L113.73 26.68L113.65 26.61Q113.59 27.19 113.63 28.45L113.63 28.45L113.75 28.56Q113.75 33.29 116.15 35.38L116.26 35.50L116.26 35.49Q118.33 37.34 123.32 37.64L123.34 37.66L123.28 37.60Q126.50 37.86 129.51 36.07L129.47 36.03L129.49 36.04Q130.15 38.84 130.75 40.21L130.64 40.09L130.65 40.10Q128.67 40.49 127.04 40.45L126.98 40.39L127.03 40.44Q122.57 40.40 119.45 40.02ZM134.49 43.68L134.43 43.62L134.47 43.65Q132.61 40.57 131.92 37.98L132.06 38.12L131.99 38.05Q131.51 38.26 130.52 38.64L130.60 38.71L130.64 38.76Q130.18 37.85 129.99 37.01L130.08 37.09L129.73 35.42L129.69 35.37Q126.35 37.36 123.23 37.25L123.18 37.20L123.30 37.32Q119.00 37.10 116.68 35.34L116.71 35.37L116.69 35.35Q115.56 33.54 115.64 30.61L115.59 30.56L115.55 30.52Q115.75 26.08 118.22 23.94L118.18 23.90L118.27 23.99Q120.29 21.97 124.97 21.36L125.15 21.55L125.04 21.43Q125.96 21.44 126.69 21.44L126.56 21.32L126.68 21.43Q129.34 21.32 131.44 22.84L131.51 22.92L131.39 22.79Q131.93 20.71 133.15 17.47L133.21 17.54L133.15 17.47Q132.92 17.52 132.37 17.46L132.27 17.35L132.43 17.51Q131.73 17.32 131.47 17.32L131.63 17.48L131.47 17.32Q131.67 16.80 132.13 15.81L132.14 15.82L132.21 15.89Q131.93 15.84 129.44 15.76L129.55 15.87L129.53 15.85Q127.00 15.74 126.35 15.78L126.27 15.70L126.35 15.78Q115.85 16.13 112.39 18.72L112.27 18.60L112.26 18.59Q110.36 20.53 110.36 24.45L110.33 24.42L110.39 24.49Q110.27 25.47 110.38 28.17L110.39 28.18L110.41 28.20Q110.60 31.82 110.83 33.53L110.84 33.54L110.85 33.55Q111.14 36.58 112.74 38.11L112.77 38.14L112.84 38.20Q113.21 38.77 114.47 39.91L114.61 40.05L114.43 39.87Q117.77 41.73 123.03 42.49L123.00 42.47L123.12 42.59Q129.53 43.51 134.52 43.70Z"/></svg>