<svg xmlns="http://www.w3.org/2000/svg" width="150" height="50" viewBox="0,0,150,50"><path fill="#111" d="M21.96 19.67L21.96 19.67L22.04 19.74Q19.98 19.78 19.03 19.93L19.11 20.02L18.97 19.87Q17.35 20.12 16.13 20.66L16.09 20.61L16.15 20.67Q12.61 22.08 12.50 26.77L12.49 26.76L12.47 26.74Q12.48 29.49 13.13 32.42L13.16 32.46L13.10 32.39Q13.95 36.40 17.56 37.58L17.70 37.72L17.68 37.70Q19.45 38.13 20.90 37.98L20.91 38.00L21.38 38.01L21.31 37.94Q21.57 38.01 21.76 38.05L21.75 38.03L21.80 38.09Q21.84 37.98 22.00 37.94L22.03 37.97L22.07 38.01Q24.70 37.75 26.07 37.18L26.13 37.23L22.50 33.64L22.41 33.56Q22.93 33.43 23.54 32.82L23.42 32.70L24.44 31.89L24.31 31.76Q26.23 33.91 28.21 35.97L28.22 35.98L28.12 35.88Q30.46 34.06 30.72 28.70L30.78 28.76L30.75 28.73Q30.75 27.73 30.75 26.82L30.79 26.86L30.76 26.83Q30.75 21.15 25.69 20.04L25.85 20.21L25.74 20.10Q24.54 19.89 22.03 19.73ZM34.75 41.75L34.76 41.75L34.76 41.76Q34.15 42.17 32.97 43.05L32.95 43.03L28.47 39.27L28.58 39.38Q25.98 40.48 21.72 40.52L21.85 40.65L21.86 40.65Q15.22 40.68 12.40 38.43L12.52 38.55L12.35 38.38Q10.58 36.61 10.13 33.64L10.18 33.70L10.13 33.65Q10.00 31.92 9.62 28.34L9.62 28.34L9.63 28.35Q9.59 27.58 9.47 25.83L9.56 25.92L9.46 25.82Q9.41 24.36 9.45 23.49L9.34 23.38L9.42 23.46Q9.45 20.33 11.20 18.76L11.25 18.82L11.35 18.92Q12.84 17.55 16.04 17.06L15.99 17.01L15.95 16.97Q18.52 16.68 21.41 16.76L21.35 16.70L21.27 16.62Q28.91 16.87 32.03 19.23L31.91 19.11L32.06 19.26Q34.13 21.29 33.87 26.21L33.79 26.12L33.87 26.21Q33.67 29.86 33.48 31.19L33.48 31.19L33.43 31.14Q32.88 35.72 30.55 38.04L30.51 38.00L30.47 37.96Q31.95 39.22 34.70 41.69ZM29.88 17.46L29.89 17.47L29.79 17.37Q27.95 16.83 21.44 16.33L21.28 16.17L21.31 16.20Q20.01 16.31 17.24 16.43L17.23 16.43L17.12 16.31Q13.00 16.64 10.75 18.62L10.76 18.63L10.66 18.53Q9.05 20.04 9.05 23.20L9.09 23.24L9.15 23.30Q8.97 23.96 9.12 25.67L9.12 25.67L9.12 25.67Q9.27 27.38 9.27 28.26L9.44 28.42L9.33 28.32Q9.46 30.05 9.84 33.63L9.85 33.63L9.88 33.66Q10.17 36.47 11.77 38.53L11.83 38.59L11.80 38.56Q12.13 39.38 13.35 40.52L13.39 40.56L13.47 40.64Q16.06 42.51 21.24 42.78L21.36 42.90L21.39 42.93Q21.74 42.94 24.14 43.05L24.15 43.06L24.01 42.93Q28.88 43.15 31.16 42.08L31.05 41.96L31.21 42.12Q32.05 42.78 36.78 46.36L36.65 46.23L36.81 46.39Q37.33 45.77 38.63 44.78L38.71 44.87L38.61 44.77Q37.83 44.18 37.03 43.49L37.05 43.52L35.27 41.92L35.45 41.95L35.37 41.87Q34.77 41.38 33.55 40.35L33.64 40.45L33.64 40.44Q35.58 37.97 35.58 33.44L35.56 33.42L35.48 33.34Q35.47 32.91 35.50 32.07L35.51 32.07L35.61 32.18Q35.69 31.37 35.69 30.96L35.60 30.87L35.56 30.83Q35.58 25.33 34.86 22.97L34.94 23.05L34.81 22.92Q34.47 21.67 33.59 20.60L33.55 20.56L33.70 20.71Q32.75 18.43 29.82 17.40ZM23.96 22.12L23.85 22.02L23.79 21.95Q27.93 21.94 29.75 23.54L29.68 23.46L29.87 23.65Q30.30 24.73 30.41 26.06L30.38 26.03L30.49 26.14Q30.57 27.40 30.49 28.77L30.47 28.75L30.41 28.69Q30.07 33.64 28.13 35.35L28.08 35.30L28.14 35.36Q26.94 34.17 24.43 31.42L24.28 31.28L24.37 31.36Q23.65 32.17 22.09 33.73L21.95 33.59L22.07 33.71Q22.52 34.20 23.66 35.38L23.68 35.39L23.55 35.38L23.74 35.57Q24.17 35.96 25.19 37.02L25.17 37.00L25.28 37.11Q24.25 37.34 21.93 37.64L21.87 37.59L21.48 37.73L21.03 37.69L20.93 37.63L20.99 37.70Q17.47 37.64 15.49 36.00L15.61 36.12L15.51 36.02Q14.58 34.02 14.62 30.90L14.49 30.78L14.49 30.78Q14.74 22.15 23.91 22.08Z"/><path fill="#111" d="M52.18 40.94L52.20 40.96L52.26 41.02Q50.81 39.19 49.51 36.11L49.53 36.12L47.53 31.12L47.54 31.12Q45.84 35.02 45.23 36.32L45.33 36.42L45.28 36.37Q43.87 39.34 42.27 41.24L42.14 41.10L42.26 41.23Q41.84 41.18 41.08 41.30L41.15 41.37L41.17 41.39Q41.02 33.82 35.20 27.88L35.29 27.97L35.16 27.84Q33.55 26.15 31.53 24.67L31.48 24.62L31.49 24.63Q33.40 25.25 35.27 25.55L35.27 25.55L35.18 25.47Q41.25 30.43 42.69 36.67L42.66 36.63L42.73 36.71Q43.63 34.87 44.81 31.67L44.75 31.61L44.89 31.75Q46.08 27.84 46.65 26.54L46.75 26.64L48.07 26.56L48.19 26.67Q49.04 28.36 50.22 31.64L50.17 31.58L50.19 31.60Q51.45 35.18 52.09 36.59L52.01 36.51L52.11 36.61Q53.91 30.30 59.39 25.73L59.49 25.83L59.50 25.84Q60.57 25.62 63.31 25.05L63.45 25.18L63.41 25.14Q54.64 31.03 53.46 41.00L53.44 40.98L52.81 40.89L52.78 40.86Q52.45 40.83 52.11 40.87ZM55.20 43.43L57.17 43.54L57.34 43.71Q56.98 42.12 56.98 40.60L56.88 40.50L56.98 40.61Q56.94 37.33 58.35 34.09L58.39 34.14L58.22 33.96Q60.35 29.58 64.46 26.50L64.43 26.47L64.35 26.39Q63.16 26.68 61.29 27.02L61.26 26.99L61.41 27.14Q63.26 25.37 64.55 24.46L64.67 24.57L62.00 24.88L62.10 24.97Q60.84 25.16 59.51 25.31L59.48 25.29L59.58 25.38Q54.40 29.61 52.45 34.63L52.44 34.62L52.48 34.66Q51.86 32.51 50.48 28.25L50.33 28.09L50.39 28.15Q50.00 28.10 49.73 28.10L49.81 28.18L49.21 28.11L49.33 28.23Q49.23 27.94 48.43 26.19L48.47 26.23L46.34 26.15L46.38 26.19Q45.44 29.03 43.35 34.66L43.31 34.63L43.24 34.55Q42.03 30.99 38.95 27.71L38.77 27.53L38.81 27.58Q38.57 27.60 38.27 27.56L38.27 27.56L37.68 27.43L37.78 27.53Q36.94 26.73 35.15 25.13L35.03 25.01L35.07 25.05Q31.88 24.38 30.21 23.88L30.33 24.00L30.33 24.00Q40.98 31.38 40.60 41.70L40.63 41.73L40.54 41.63Q40.78 41.69 41.14 41.65L41.07 41.58L41.20 41.71Q41.49 41.60 41.68 41.60L41.81 41.72L41.73 41.64Q41.69 41.46 41.88 43.55L41.95 43.62L43.83 43.41L43.88 43.45Q46.39 40.56 48.64 34.81L48.69 34.87L48.62 34.79Q50.25 38.79 52.12 41.45L52.04 41.37L52.12 41.45Q52.41 41.40 52.67 41.42L52.64 41.39L52.56 41.31Q52.80 41.29 53.06 41.29L53.22 41.45L55.23 43.46Z"/><path fill="#333" d="M68.96 26.78L69.01 26.82L69.03 26.85Q70.79 26.97 72.62 26.97L72.62 26.97L72.54 26.89Q74.37 26.93 76.19 26.77L76.30 26.88L76.30 26.88Q76.18 27.53 76.18 28.25L76.12 28.19L76.05 29.45L76.10 29.50Q73.72 29.48 68.96 29.59L68.94 29.57L68.94 29.57Q68.96 35.53 67.82 40.52L67.92 40.62L67.92 40.62Q65.62 41.21 64.13 42.01L64.22 42.10L64.16 42.04Q66.50 35.24 66.23 28.12L66.25 28.14L66.26 28.15Q65.97 20.97 63.31 14.31L63.23 14.23L63.38 14.38Q67.00 16.86 71.76 17.09L71.82 17.14L71.82 17.14Q76.36 17.20 80.51 15.45L80.54 15.47L80.62 15.55Q80.23 16.27 80.00 17.06L80.06 17.13L79.61 18.77L79.48 18.64Q76.87 19.84 73.91 19.99L73.95 20.04L73.95 20.04Q70.98 20.15 68.12 19.43L68.06 19.37L68.09 19.39Q68.88 22.89 69.07 26.89ZM81.11 14.71L81.11 14.71L81.20 14.80Q76.55 16.89 71.68 16.59L71.65 16.56L71.74 16.65Q66.33 16.27 62.60 13.41L62.74 13.55L62.66 13.47Q65.52 20.40 65.82 28.01L65.91 28.10L65.93 28.12Q66.25 36.06 63.74 42.83L63.77 42.86L63.67 42.76Q64.38 42.41 65.75 41.76L65.60 41.62L65.77 41.78Q65.61 42.57 65.04 44.09L64.95 44.01L64.92 43.97Q67.26 42.93 70.16 42.44L70.17 42.45L70.09 42.37Q70.81 37.61 71.00 31.90L70.89 31.79L70.95 31.85Q72.72 31.79 74.55 31.79L74.49 31.73L74.57 31.81Q76.34 31.80 78.17 31.99L78.20 32.02L78.09 31.91Q78.08 31.06 78.08 30.15L78.17 30.24L78.11 28.27L78.15 28.32Q77.41 28.45 76.57 28.45L76.42 28.30L76.51 28.38Q76.54 27.54 76.61 26.51L76.61 26.50L76.54 26.43Q75.14 26.60 73.74 26.60L73.82 26.68L73.85 26.72Q72.28 26.56 70.91 26.52L70.93 26.53L70.82 24.29L70.88 24.35Q70.79 23.20 70.67 22.13L70.75 22.21L70.77 22.22Q71.68 22.22 72.66 22.22L72.76 22.31L72.81 22.36Q77.41 22.20 81.02 20.30L81.19 20.47L81.08 20.36Q81.61 18.56 82.52 15.93L82.58 15.99L82.55 15.97Q81.22 16.77 80.42 17.11L80.40 17.09L80.38 17.06Q80.70 16.36 81.20 14.80Z"/><path fill="#333" d="M105.19 41.63L105.14 41.58L105.09 41.53Q102.99 41.14 100.82 40.99L100.77 40.94L100.81 40.98Q99.48 39.65 96.81 35.80L96.71 35.70L96.73 35.72Q94.58 38.87 92.19 41.30L92.23 41.35L90.14 41.73L90.00 41.59Q88.88 41.73 87.89 42.00L87.89 41.99L87.94 42.04Q92.13 37.93 95.14 33.82L95.09 33.78L95.25 33.94Q91.81 29.59 86.41 24.79L86.50 24.88L86.57 24.95Q88.83 25.72 91.53 26.14L91.54 26.15L91.52 26.13Q94.87 29.14 96.77 31.84L96.82 31.89L96.82 31.89Q98.83 28.73 101.57 26.21L101.59 26.23L101.70 26.34Q104.72 25.97 106.55 25.48L106.48 25.41L106.53 25.46Q102.10 29.21 98.40 33.78L98.26 33.64L98.34 33.71Q101.74 38.41 105.21 41.65ZM108.06 24.78L107.98 24.70L107.88 24.60Q105.04 25.49 101.50 25.83L101.53 25.86L101.58 25.92Q98.56 28.45 96.85 30.93L96.90 30.98L96.97 31.05Q96.06 29.98 94.42 28.00L94.33 27.92L94.26 28.04L94.17 27.94Q94.17 28.06 94.06 28.06L93.93 27.93L94.04 28.04Q93.23 27.16 91.60 25.72L91.66 25.78L91.60 25.72Q87.92 25.08 85.06 23.86L85.23 24.03L85.18 23.98Q90.56 28.64 94.60 33.78L94.63 33.82L94.61 33.79Q91.29 38.47 86.88 42.77L86.97 42.87L86.98 42.88Q87.08 42.63 90.58 41.79L90.72 41.93L90.61 41.82Q89.12 43.18 87.48 44.52L87.51 44.54L87.40 44.43Q90.63 43.56 93.79 43.37L93.89 43.47L93.81 43.38Q96.18 41.11 98.08 38.37L98.24 38.53L98.13 38.42Q99.64 40.27 100.86 41.45L100.83 41.43L100.78 41.37Q100.94 41.42 101.02 41.49L100.93 41.41L101.24 41.53L101.16 41.44Q102.41 42.54 103.74 43.61L103.68 43.55L103.82 43.69Q107.32 44.14 110.21 45.17L110.26 45.22L110.23 45.19Q104.00 40.67 100.31 35.49L100.41 35.59L100.39 35.58Q104.10 30.60 108.67 26.53L108.61 26.47L108.49 26.35Q107.71 26.87 106.72 27.10L106.73 27.11L104.53 27.38L104.57 27.42Q105.74 26.49 107.91 24.63Z"/><path fill="#333" d="M121.32 41.43L121.21 41.32L121.32 41.43Q118.33 41.48 117.07 40.95L117.20 41.08L117.04 40.92Q115.23 40.25 115.31 37.78L115.26 37.73L115.29 37.76Q115.32 34.25 115.32 34.82L115.49 34.99L115.32 34.82Q115.34 29.52 112.49 24.68L112.44 24.64L112.48 24.67Q114.59 25.75 116.57 26.13L116.48 26.05L116.52 26.08Q118.23 30.68 118.11 35.18L118.18 35.25L118.15 35.21Q117.85 36.55 118.69 37.77L118.70 37.78L118.85 37.93Q119.65 39.15 121.17 38.96L121.30 39.09L121.57 38.86L121.53 38.83Q123.03 38.92 123.85 38.16L123.84 38.15L123.80 38.11Q124.61 37.33 124.61 36.38L124.47 36.25L124.59 36.36Q124.52 36.07 124.48 35.88L124.54 35.94L124.63 36.02Q124.38 30.59 125.52 26.25L125.59 26.32L125.56 26.29Q126.69 26.32 127.67 26.09L127.54 25.95L129.67 25.57L129.68 25.58Q126.99 30.47 127.29 36.02L127.35 36.08L127.35 36.08Q127.55 39.17 125.84 40.31L125.83 40.30L125.88 40.35Q124.65 41.29 121.33 41.45ZM123.51 43.70L123.51 43.69L123.56 43.75Q127.03 43.91 128.86 43.15L128.80 43.08L128.92 43.20Q129.69 42.30 129.69 40.89L129.88 41.08L129.80 41.01Q129.71 40.00 129.45 38.44L129.55 38.55L129.46 38.46Q129.02 35.35 129.40 32.34L129.39 32.34L129.49 32.44Q129.85 29.25 131.26 26.51L131.30 26.55L131.20 26.46Q130.60 26.81 129.27 27.23L129.32 27.27L129.26 27.21Q129.47 26.58 129.77 26.01L129.85 26.09L130.29 24.82L130.29 24.81Q128.47 25.58 125.31 26.08L125.20 25.97L125.17 25.95Q124.06 30.85 124.21 35.95L124.15 35.89L124.26 35.99Q124.35 38.11 121.69 38.60L121.59 38.51L121.19 38.56L121.08 38.61L120.16 38.48L120.21 38.53Q119.95 37.48 119.99 36.98L120.09 37.08L120.14 37.13Q120.27 32.54 119.59 28.12L119.57 28.11L118.64 28.09L118.65 28.11Q118.06 28.01 117.53 27.89L117.51 27.88L117.49 27.86Q117.17 26.51 116.91 25.75L116.83 25.68L116.85 25.69Q114.10 25.30 111.85 24.01L111.91 24.07L111.77 23.92Q114.00 27.52 114.72 30.91L114.65 30.84L114.58 30.77Q115.11 33.01 114.96 36.52L114.93 36.49L115.09 36.65Q115.01 36.68 114.93 37.78L115.08 37.93L114.91 37.76Q114.85 40.21 116.22 41.16L116.13 41.08L116.11 41.06Q116.67 43.48 123.67 43.86Z"/></svg>