<svg xmlns="http://www.w3.org/2000/svg" width="150" height="50" viewBox="0,0,150,50"><path fill="#333" d="M68.48 29.61L68.57 29.69L68.61 29.74Q68.53 33.92 67.81 38.07L67.71 37.97L67.84 38.11Q70.12 37.57 73.20 37.45L73.04 37.29L73.08 37.32Q74.54 37.64 75.60 36.63L75.46 36.49L75.47 36.50Q76.63 35.59 76.63 34.26L76.55 34.18L76.61 34.23Q76.67 33.98 76.63 33.72L76.55 33.64L76.63 33.72Q76.35 30.67 74.11 29.83L74.20 29.92L74.10 29.82Q73.36 29.53 72.67 29.61L72.71 29.64L72.79 29.73Q71.64 29.57 70.62 29.61L70.58 29.57L70.61 29.61Q69.60 29.70 68.58 29.70ZM67.25 19.16L67.30 19.21L67.30 19.21Q68.14 22.49 68.41 26.87L68.39 26.85L68.40 26.86Q69.82 26.95 72.48 26.98L72.60 27.10L72.52 27.02Q75.39 27.00 75.73 23.46L75.89 23.62L75.84 23.56Q75.99 21.58 74.58 20.74L74.64 20.81L74.60 20.76Q73.64 20.18 69.22 19.54L69.33 19.64L69.33 19.65Q68.15 19.38 67.24 19.15ZM63.57 42.02L63.64 42.09L63.66 42.11Q66.10 35.42 65.84 28.03L65.80 27.99L65.77 27.96Q65.52 20.71 62.59 14.23L62.57 14.21L62.55 14.20Q66.51 16.90 72.73 17.15L72.66 17.08L72.61 17.02Q78.96 17.39 79.30 20.29L79.25 20.24L79.21 20.20Q79.48 22.90 78.07 25.57L78.18 25.68L78.09 25.58Q77.42 27.17 75.83 27.85L75.85 27.87L75.84 27.86Q79.43 28.49 79.66 33.86L79.66 33.86L79.76 33.96Q79.82 35.05 79.75 36.46L79.70 36.41L79.74 36.45Q79.63 37.71 78.70 38.64L78.61 38.55L78.75 38.70Q77.71 39.52 76.38 39.68L76.53 39.82L76.47 39.77Q75.08 39.93 74.01 39.93L73.84 39.76L73.84 39.76Q68.16 39.79 63.63 42.08ZM76.49 42.45L76.46 42.42L76.41 42.38Q77.47 42.55 79.33 42.67L79.23 42.57L79.21 42.55Q80.58 42.55 81.69 41.67L81.82 41.80L81.85 41.84Q82.51 40.78 82.39 39.22L82.48 39.30L82.39 39.22Q82.32 38.27 81.60 34.81L81.56 34.76L81.63 34.84Q81.00 31.65 79.13 30.17L79.03 30.07L78.68 29.30L78.66 29.28Q80.42 27.95 80.99 24.18L80.88 24.07L80.94 24.13Q81.04 22.94 80.96 21.53L80.91 21.48L80.94 21.50Q81.04 20.35 79.94 19.51L79.78 19.36L79.93 19.51Q79.49 19.19 79.38 19.15L79.49 19.26L79.32 19.09Q79.26 18.76 78.42 17.96L78.30 17.84L78.30 17.84Q76.90 16.90 72.67 16.71L72.58 16.61L72.65 16.68Q66.05 16.44 62.05 13.54L61.98 13.48L62.06 13.55Q65.23 20.46 65.54 28.00L65.56 28.02L65.60 28.06Q65.80 35.76 62.98 42.69L63.08 42.78L65.23 41.92L65.19 41.89Q64.78 43.00 64.28 44.14L64.26 44.12L64.22 44.08Q68.50 42.19 73.53 42.19L73.66 42.33L73.52 42.19Q75.03 42.28 76.47 42.44ZM74.24 31.79L74.37 31.91L74.33 31.87Q75.02 31.77 75.94 32.23L75.98 32.27L76.03 32.32Q76.05 32.57 76.21 33.64L76.21 33.65L76.29 33.72Q76.31 34.92 75.38 35.97L75.45 36.04L75.53 36.12Q74.61 37.18 73.20 37.07L73.04 36.90L71.70 37.16L71.66 37.13Q70.94 37.21 70.22 37.32L70.17 37.27L70.13 37.23Q70.54 35.51 70.62 32.05L70.59 32.02L70.49 31.92Q71.27 31.98 72.53 31.94L72.35 31.76L72.38 31.79Q73.67 31.79 74.28 31.83ZM73.35 22.34L73.25 22.23L73.71 22.31L73.65 22.26Q73.88 22.26 74.07 22.29L74.18 22.40L74.39 22.23L74.80 22.45L75.45 22.56L75.32 22.44Q75.51 22.78 75.51 23.08L75.58 23.16L75.46 23.56L75.44 23.54Q75.47 24.83 74.60 25.77L74.53 25.70L74.68 25.86Q73.66 26.64 72.45 26.64L72.55 26.75L72.49 26.69Q71.50 26.73 71.50 26.73L71.44 26.66L71.53 26.75Q70.15 26.67 70.50 26.67L70.42 26.59L70.44 26.62Q70.42 25.11 70.11 22.07L70.09 22.04L70.21 22.16Q71.85 22.35 73.37 22.35Z"/><path fill="#222" d="M41.65 19.16L41.75 19.27L41.63 19.14Q42.73 23.59 42.88 26.79L42.88 26.79L42.87 26.78Q43.38 26.83 47.76 26.94L47.86 27.05L47.74 26.93Q50.29 26.97 50.67 23.50L50.86 23.69L50.85 23.68Q51.00 21.89 50.09 20.98L50.10 20.99L49.96 20.85Q48.67 19.94 46.69 19.79L46.77 19.86L46.68 19.78Q43.54 19.64 41.67 19.19ZM43.09 28.82L43.12 28.86L43.04 28.77Q43.21 34.77 41.42 40.71L41.53 40.82L41.45 40.74Q40.17 41.02 37.58 42.04L37.66 42.12L37.71 42.17Q40.53 35.67 40.19 28.21L40.03 28.05L40.13 28.15Q39.70 20.68 36.39 14.17L36.50 14.28L36.50 14.28Q41.38 17.10 48.34 17.10L48.30 17.06L48.37 17.13Q53.88 17.00 54.14 20.54L54.26 20.65L54.20 20.60Q54.31 21.24 54.24 21.85L54.13 21.74L54.21 23.05L54.23 23.06Q53.22 26.81 51.09 28.53L51.20 28.64L51.19 28.62Q50.46 29.39 49.44 29.39L49.34 29.29L46.81 29.35L46.79 29.33Q52.35 36.53 56.88 41.10L56.82 41.03L56.93 41.14Q54.74 40.40 51.81 40.05L51.66 39.91L51.78 40.03Q48.03 36.09 43.12 28.86ZM51.68 40.42L51.61 40.35L51.88 40.32L53.26 41.69L53.11 41.55Q53.86 42.26 54.51 42.87L54.32 42.68L54.51 42.87Q57.90 43.33 61.48 45.20L61.57 45.29L61.50 45.22Q54.51 38.42 49.11 31.49L49.23 31.61L50.94 31.58L50.92 31.55Q54.13 31.68 55.46 27.15L55.45 27.14L55.46 27.15Q56.09 24.89 56.09 22.18L56.00 22.09L56.08 22.17Q56.10 19.91 54.39 19.26L54.28 19.16L54.33 19.21Q54.27 18.88 53.70 18.19L53.64 18.14L53.57 18.07Q52.01 16.73 48.35 16.65L48.36 16.66L48.24 16.54Q40.43 16.45 35.74 13.45L35.71 13.42L35.81 13.52Q39.41 20.19 39.75 27.88L39.85 27.99L39.89 28.02Q40.23 35.98 37.11 42.83L37.15 42.87L37.00 42.73Q38.30 42.20 39.10 41.89L39.03 41.82L38.04 44.11L38.04 44.11Q40.90 43.20 43.57 42.70L43.50 42.64L43.48 42.62Q44.75 37.49 44.94 32.27L44.94 32.27L45.01 32.35Q48.41 37.19 51.57 40.31ZM50.38 22.45L50.28 22.35L50.33 22.40Q50.39 22.68 50.39 23.03L50.50 23.14L50.38 23.59L50.50 23.71Q50.52 24.83 49.83 25.78L49.64 25.59L49.69 25.64Q49.05 26.37 48.13 26.56L48.28 26.70L48.17 26.59Q47.97 26.66 46.37 26.70L46.47 26.80L46.30 26.63Q45.82 26.76 44.98 26.64L45.04 26.70L45.03 26.69Q44.82 25.07 44.48 22.03L44.61 22.16L44.49 22.04Q45.95 22.29 46.64 22.29L46.54 22.19L46.60 22.25Q48.49 22.31 50.44 22.51Z"/><path fill="#222" d="M23.80 30.00L23.80 30.00L23.79 29.99Q21.20 29.79 19.87 31.01L19.80 30.94L19.91 31.05Q18.44 32.14 18.75 34.65L18.78 34.69L18.79 34.69Q19.13 37.25 20.35 38.50L20.23 38.38L20.23 38.38Q21.41 39.83 23.55 39.75L23.51 39.72L23.64 39.85Q24.04 39.68 24.23 39.68L24.23 39.68L24.29 39.74Q27.85 39.15 27.96 34.54L27.94 34.51L28.03 34.60Q27.92 32.06 27.24 31.26L27.30 31.33L27.40 31.42Q26.21 30.01 23.66 29.86ZM26.94 41.55L26.97 41.58L27.02 41.63Q25.69 42.21 24.13 42.13L24.13 42.13L24.15 42.14Q20.29 42.33 19.00 39.74L19.08 39.82L19.09 39.83Q18.88 45.14 17.55 49.40L17.44 49.29L17.57 49.43Q15.81 49.95 14.17 50.67L14.11 50.61L14.07 50.57Q16.65 44.62 16.38 37.65L16.33 37.60L16.44 37.71Q16.18 30.87 13.29 24.82L13.20 24.73L13.22 24.75Q15.22 25.99 16.94 26.44L17.00 26.51L17.38 27.84L17.38 27.84Q17.54 28.23 17.81 29.33L17.84 29.37L17.76 29.29Q18.88 27.33 22.46 27.13L22.30 26.97L22.37 27.04Q23.16 26.92 24.04 26.92L24.17 27.05L24.57 26.96L24.68 27.07Q24.73 27.00 24.92 27.04L24.94 27.06L25.32 27.14L25.25 27.07Q27.30 27.33 28.02 27.56L28.04 27.57L28.04 27.57Q29.49 27.99 30.36 28.95L30.32 28.90L30.48 29.07Q31.21 30.14 31.17 31.54L31.14 31.51L31.26 31.63Q31.14 34.37 30.34 37.03L30.42 37.11L30.46 37.15Q29.44 40.66 27.08 41.69ZM31.39 42.34L31.32 42.24L31.24 42.16Q32.34 40.17 32.65 36.06L32.78 36.20L32.73 36.14Q32.79 34.31 32.79 33.05L32.89 33.14L32.83 33.08Q32.84 31.57 32.08 30.16L32.12 30.21L32.22 30.31Q31.77 29.82 31.27 29.44L31.22 29.38L30.99 29.04L30.81 28.74L30.88 28.70L30.77 28.59Q28.99 26.50 24.65 26.50L24.81 26.67L24.14 26.60L24.15 26.62Q19.43 26.54 17.79 28.14L17.94 28.28L17.77 28.12Q17.59 27.60 17.44 27.10L17.47 27.13L17.22 26.08L17.29 26.15Q14.71 25.44 12.50 23.95L12.60 24.05L12.58 24.03Q15.85 30.34 16.15 37.57L16.17 37.59L16.11 37.53Q16.39 44.78 13.53 51.25L13.56 51.28L15.48 50.35L15.60 50.46Q15.36 51.21 14.67 52.77L14.59 52.69L14.50 52.60Q17.33 51.66 19.65 51.32L19.51 51.17L19.67 51.34Q20.72 46.44 20.87 42.71L20.87 42.71L20.90 42.74Q22.21 44.13 25.82 44.35L25.86 44.39L25.94 44.47Q29.76 44.60 31.21 42.16L31.36 42.32ZM25.70 32.23L25.53 32.07L25.69 32.23Q26.20 32.02 27.31 32.36L27.46 32.52L27.34 32.39Q27.55 33.33 27.51 34.51L27.67 34.66L27.53 34.53Q27.59 35.50 27.40 36.15L27.44 36.18L27.33 36.08Q26.60 38.96 24.08 39.26L24.09 39.27L24.27 39.34L24.29 39.36Q24.18 39.32 24.07 39.36L24.11 39.40L23.51 39.33L23.55 39.38Q22.28 39.29 21.29 38.80L21.46 38.97L21.08 36.87L20.99 36.78Q20.83 34.45 22.12 33.42L22.14 33.43L22.26 33.56Q23.24 32.44 25.64 32.18Z"/><path fill="#333" d="M119.61 28.97L119.53 28.88L119.54 28.89Q117.02 28.93 115.99 30.11L116.02 30.13L115.89 30.01Q114.97 31.29 114.97 33.92L114.96 33.91L114.92 33.87Q115.04 39.09 119.65 38.90L119.53 38.79L119.59 38.85Q121.75 39.10 123.10 37.54L122.99 37.43L122.93 37.37Q124.35 35.87 124.12 33.82L124.09 33.79L124.11 33.81Q124.07 31.22 123.19 30.19L123.23 30.23L123.18 30.18Q121.74 28.89 119.53 28.89ZM124.69 38.80L124.57 38.69L124.66 38.77Q123.44 41.21 118.76 41.21L118.70 41.16L117.23 41.13L117.28 41.17Q114.99 41.25 113.88 40.10L113.72 39.94L113.90 40.12Q112.75 38.98 112.49 36.58L112.48 36.57L112.60 36.69Q112.42 35.18 112.34 33.39L112.25 33.30L112.35 33.40Q112.22 32.31 112.07 30.37L112.17 30.47L112.07 30.37Q112.04 26.16 117.22 26.16L117.16 26.10L118.74 26.12L118.79 26.17Q121.53 26.01 123.62 27.31L123.72 27.41L123.78 27.47Q124.55 27.93 125.05 28.62L125.05 28.62L124.99 28.56Q125.26 27.76 125.79 26.12L125.90 26.24L125.84 26.17Q127.12 26.05 129.44 25.44L129.26 25.25L129.37 25.36Q126.70 29.51 126.70 34.76L126.83 34.89L126.77 34.84Q126.69 38.48 128.06 41.57L128.15 41.66L128.13 41.64Q126.90 41.24 125.00 41.02L125.02 41.04L125.11 41.13Q124.97 40.35 124.67 38.78ZM127.87 43.89L127.85 43.87L130.20 44.58L130.10 44.48Q131.23 44.70 132.22 45.16L132.40 45.34L132.24 45.17Q128.68 40.93 128.68 34.84L128.67 34.83L128.59 34.75Q128.59 30.22 130.72 26.41L130.87 26.56L130.88 26.57Q130.22 26.79 128.89 27.17L128.75 27.03L128.73 27.01Q129.16 26.34 130.04 24.82L130.12 24.90L129.95 24.73Q129.55 25.09 125.55 25.92L125.38 25.76L124.92 27.69L124.80 27.57Q123.14 25.95 118.72 25.72L118.78 25.78L118.69 25.69Q117.53 25.67 115.28 25.82L115.39 25.92L115.35 25.89Q111.67 26.24 111.78 30.27L111.73 30.23L111.73 30.22Q111.84 33.53 112.41 37.98L112.41 37.98L112.41 38.40L112.55 38.54Q112.50 39.22 113.30 40.32L113.39 40.41L113.30 40.32Q113.64 40.66 113.83 40.77L113.80 40.75L113.79 40.74Q114.10 41.27 114.48 41.84L114.40 41.77L114.40 41.76Q115.74 43.22 119.13 43.41L119.18 43.46L119.26 43.54Q120.83 43.58 120.98 43.58L121.02 43.63L122.56 43.60L122.46 43.50Q125.79 43.64 127.01 42.08L126.99 42.05L126.88 41.95Q127.34 42.67 127.95 43.97ZM121.44 31.25L121.42 31.24L121.29 31.11Q122.69 31.17 123.53 31.63L123.48 31.58L123.46 31.56Q123.80 32.39 123.80 33.84L123.87 33.91L123.85 33.89Q124.05 35.80 122.77 37.23L122.65 37.10L122.71 37.17Q121.50 38.66 119.59 38.47L119.52 38.39L119.49 38.36Q118.17 38.49 117.15 38.07L117.10 38.03L117.05 37.98Q116.86 37.14 116.86 35.92L116.89 35.96L116.81 35.87Q117.02 32.43 119.64 31.47L119.64 31.47L119.61 31.45Q120.56 31.17 121.36 31.17Z"/><path fill="#111" d="M87.71 14.37L87.69 14.35L87.67 14.33Q91.37 16.77 96.13 17.00L96.24 17.11L96.26 17.13Q100.84 17.25 105.10 15.50L105.07 15.47L105.04 15.44Q104.83 16.03 104.06 18.81L104.09 18.83L103.99 18.73Q101.41 19.92 98.44 20.07L98.37 20.00L98.33 19.97Q95.34 20.10 92.45 19.37L92.45 19.38L92.54 19.47Q93.29 23.15 93.48 26.80L93.44 26.76L93.31 26.63Q95.48 27.01 97.08 26.97L97.06 26.95L96.98 26.87Q98.31 26.99 100.71 26.87L100.60 26.77L100.58 26.74Q100.50 27.35 100.50 28.03L100.58 28.11L100.53 29.39L100.60 29.46Q98.24 29.51 93.45 29.58L93.42 29.56L93.42 29.56Q93.48 33.73 92.91 37.72L92.79 37.61L92.85 37.66Q95.42 36.96 98.16 37.08L98.25 37.16L98.12 37.03Q100.81 37.10 103.40 37.94L103.53 38.07L103.42 37.96Q103.53 38.79 103.79 39.55L103.91 39.66L104.31 41.13L104.28 41.10Q101.03 39.76 97.61 39.76L97.59 39.74L97.69 39.84Q92.87 39.89 88.61 42.14L88.51 42.04L88.48 42.01Q90.76 35.16 90.49 28.04L90.58 28.12L90.52 28.07Q90.36 21.02 87.70 14.35ZM87.96 42.71L87.97 42.72L87.98 42.73Q89.30 42.07 90.06 41.73L89.97 41.64L90.12 41.79Q89.89 42.51 89.32 44.03L89.33 44.05L89.36 44.07Q93.80 42.00 98.86 42.27L98.78 42.19L98.81 42.22Q104.03 42.57 108.03 45.27L108.05 45.29L108.06 45.30Q106.91 42.78 106.22 40.84L106.21 40.83L106.18 40.79Q105.25 40.25 104.26 39.90L104.28 39.92L104.22 39.86Q103.76 38.41 103.61 37.61L103.76 37.77L103.71 37.71Q100.50 36.60 97.34 36.60L97.40 36.65L97.36 36.62Q96.37 36.77 95.22 36.88L95.14 36.80L95.07 36.73Q95.23 35.51 95.27 34.30L95.34 34.37L95.44 31.88L95.45 31.89Q97.20 31.74 98.99 31.78L99.01 31.79L98.97 31.75Q100.81 31.80 102.60 31.96L102.62 31.98L102.51 31.87Q102.63 31.11 102.63 30.16L102.53 30.06L102.46 28.09L101.69 28.20L101.69 28.20Q101.29 28.29 100.83 28.29L100.83 28.29L100.81 28.26Q100.82 27.59 100.97 26.29L101.04 26.36L100.95 26.28Q99.40 26.55 98.22 26.59L98.14 26.51L98.15 26.52Q97.20 26.52 95.37 26.45L95.43 26.50L95.38 26.45Q95.33 25.07 95.14 22.25L95.25 22.36L95.12 22.23Q96.26 22.46 97.25 22.46L97.21 22.42L97.23 22.44Q101.97 22.46 105.66 20.56L105.55 20.44L105.67 20.56Q106.23 18.19 107.10 15.98L107.02 15.89L107.04 15.91Q105.66 16.71 104.82 17.05L104.92 17.15L104.91 17.14Q105.17 16.34 105.63 14.78L105.60 14.75L105.75 14.89Q101.11 17.03 96.23 16.72L96.08 16.57L96.19 16.68Q90.91 16.38 87.06 13.53L87.03 13.50L87.05 13.52Q89.80 20.34 90.11 27.96L90.17 28.02L90.18 28.03Q90.48 35.95 87.97 42.72Z"/></svg>