<svg xmlns="http://www.w3.org/2000/svg" width="150" height="50" viewBox="0,0,150,50"><path fill="#111" d="M119.70 28.71L119.55 28.56L119.60 28.61Q116.88 28.71 116.12 30.95L116.04 30.88L116.04 30.88Q115.82 31.61 115.71 32.26L115.68 32.23L115.68 32.23Q118.30 32.46 119.94 32.46L119.88 32.40L119.82 32.33Q121.67 32.54 124.25 32.43L124.16 32.34L124.23 32.41Q124.07 30.64 122.66 29.58L122.65 29.57L122.73 29.65Q121.40 28.62 119.61 28.62ZM119.66 41.16L119.78 41.28L119.61 41.11Q115.42 41.15 114.12 39.74L114.25 39.86L114.21 39.83Q113.27 38.39 113.12 35.12L113.13 35.13L113.10 35.09Q113.00 34.77 112.92 33.40L112.91 33.38L113.04 33.51Q112.75 31.05 112.75 30.33L112.83 30.41L112.86 30.44Q112.85 28.56 113.57 27.46L113.64 27.53L113.62 27.50Q115.02 26.09 117.99 26.09L117.91 26.01L119.55 26.09L119.46 26.00Q121.55 26.04 123.08 26.34L123.09 26.36L123.09 26.36Q125.18 26.84 126.17 28.06L126.08 27.98L126.15 28.04Q126.74 29.09 126.81 31.18L126.81 31.18L126.93 31.30Q126.75 32.27 126.79 34.44L126.87 34.52L126.86 34.50Q123.90 34.43 121.12 34.43L121.21 34.53L115.60 34.51L115.51 34.42Q115.75 38.93 119.83 38.70L119.81 38.68L119.77 38.64Q123.62 38.53 124.84 36.70L124.86 36.73L124.86 36.73Q125.79 37.32 127.39 38.50L127.26 38.37L127.36 38.47Q125.93 40.81 121.78 41.08L121.80 41.10L121.81 41.11Q121.11 41.17 119.74 41.24ZM122.08 43.62L121.91 43.45L121.95 43.49Q123.10 43.50 124.32 43.57L124.36 43.62L124.22 43.48Q129.22 43.68 130.14 40.90L130.15 40.92L130.19 40.96Q128.56 39.71 127.46 38.95L127.58 39.07L127.43 38.92Q127.62 38.54 127.81 38.31L127.81 38.31L127.80 38.30Q127.09 37.85 125.72 36.90L125.65 36.84L125.73 36.91Q126.72 36.87 128.77 37.18L128.84 37.25L128.79 37.19Q128.64 35.87 128.57 35.18L128.55 35.17L128.45 33.28L128.54 33.36Q128.33 30.95 127.69 29.47L127.74 29.52L127.57 29.36Q127.49 29.19 126.92 28.59L126.88 28.55L126.75 28.42Q126.70 28.21 126.47 27.64L126.49 27.66L126.43 27.60Q124.62 25.64 119.56 25.64L119.58 25.66L117.88 25.64L117.80 25.56Q114.50 25.49 113.05 26.98L113.11 27.04L113.22 27.15Q112.37 28.09 112.41 30.14L112.44 30.17L112.41 30.14Q112.46 31.11 112.58 33.35L112.64 33.42L112.68 33.46Q112.71 35.01 112.82 37.07L112.96 37.20L112.91 37.15Q113.18 39.40 114.05 40.46L114.08 40.50L113.96 40.37Q114.11 40.52 114.30 40.64L114.32 40.65L114.69 41.37L114.74 41.42Q115.49 43.23 122.08 43.61ZM119.77 38.23L119.85 38.31L119.85 38.30Q118.63 38.34 117.72 37.89L117.73 37.90L117.70 37.86Q117.66 37.49 117.47 36.80L117.58 36.91L117.45 36.79Q119.25 36.79 120.85 36.79L120.88 36.82L120.79 36.73Q122.43 36.70 124.11 36.82L124.22 36.93L124.10 36.81Q122.85 38.18 119.84 38.29ZM121.55 31.02L121.43 30.90L121.57 31.05Q122.15 31.01 123.48 31.39L123.48 31.39L123.67 31.77L123.69 31.98L123.74 32.03Q122.26 32.04 121.35 32.00L121.32 31.97L121.32 31.97Q119.11 32.01 119.07 32.01L119.12 32.05L119.08 32.01Q119.81 31.07 121.49 30.96Z"/><path fill="#333" d="M79.67 40.34L79.80 40.47L79.61 40.28Q76.72 36.48 74.10 27.84L74.08 27.82L74.05 27.79Q73.34 25.59 72.54 23.46L72.70 23.63L69.73 32.30L69.72 32.30Q67.99 37.31 65.60 40.54L65.48 40.42L65.64 40.59Q64.81 40.67 63.17 40.82L63.14 40.79L63.02 40.66Q63.19 39.55 63.19 38.29L63.26 38.35L63.13 38.23Q63.09 32.18 60.35 26.05L60.36 26.05L60.52 26.22Q57.39 19.32 51.53 14.33L51.40 14.20L51.54 14.34Q53.67 15.02 56.03 15.55L55.94 15.47L56.02 15.55Q64.65 23.95 65.94 34.91L65.87 34.84L65.97 34.94Q67.67 31.69 69.11 26.32L69.06 26.27L69.09 26.29Q70.90 18.62 71.39 17.21L71.55 17.37L73.64 17.22L73.80 17.38Q74.50 19.41 75.15 21.73L75.06 21.64L76.32 26.10L76.32 26.10Q77.88 31.54 79.29 34.78L79.38 34.88L79.24 34.73Q81.01 23.22 88.93 15.87L88.88 15.82L88.87 15.81Q90.38 15.46 93.35 14.81L93.28 14.74L93.37 14.83Q88.14 19.23 85.09 25.35L85.09 25.35L85.04 25.30Q81.91 31.50 81.91 38.27L82.01 38.38L81.95 38.32Q81.83 39.31 81.91 40.45L82.01 40.54L80.78 40.34L80.77 40.33Q80.26 40.35 79.68 40.35ZM85.98 43.30L85.98 43.30L85.93 43.25Q84.64 39.64 84.76 35.76L84.78 35.78L84.85 35.85Q85.06 24.18 94.42 15.92L94.58 16.08L94.48 15.97Q93.61 16.29 91.67 16.82L91.60 16.75L91.71 16.86Q92.53 15.89 94.43 14.10L94.39 14.06L94.44 14.11Q91.83 14.93 88.90 15.42L88.84 15.37L88.93 15.46Q81.33 22.47 79.42 31.95L79.41 31.93L79.47 31.99Q78.82 30.28 75.97 18.82L76.14 18.99L76.04 18.89Q75.63 18.97 74.67 18.97L74.67 18.97L74.48 18.02L74.30 17.84Q74.30 17.42 74.07 16.92L74.00 16.85L71.07 16.82L71.17 16.91Q70.25 19.27 68.97 24.39L68.98 24.40L69.11 24.53Q67.67 29.49 66.68 31.96L66.71 31.98L66.86 32.14Q65.14 24.09 59.58 17.77L59.64 17.83L59.67 17.86Q59.20 17.82 58.25 17.63L58.12 17.50L58.23 17.61Q57.43 16.69 55.87 15.05L55.82 15.01L55.91 15.10Q52.54 14.32 50.37 13.52L50.30 13.44L50.29 13.43Q56.10 18.25 59.37 24.46L59.25 24.34L59.28 24.36Q62.85 31.10 62.85 38.11L62.83 38.08L62.73 37.98Q62.73 39.55 62.54 41.14L62.60 41.20L62.63 41.23Q62.90 41.27 63.36 41.18L63.30 41.12L63.19 41.01Q63.66 40.93 63.89 40.93L64.03 41.07L63.89 41.95L63.85 41.92Q63.87 42.39 63.94 42.92L64.11 43.09L64.05 43.03Q65.25 43.01 67.54 42.86L67.47 42.79L67.47 42.80Q71.00 37.30 73.74 27.90L73.74 27.90L73.87 28.03Q76.49 36.66 79.46 40.62L79.50 40.66L79.50 40.66Q80.11 40.82 80.95 40.94L80.96 40.94L80.82 40.80Q81.68 41.86 82.75 42.92L82.70 42.87L82.78 42.96Q83.49 42.94 85.89 43.21Z"/><path fill="#222" d="M22.92 18.44L22.97 18.49L22.84 18.36Q22.23 18.85 22.08 19.65L22.14 19.72L22.06 24.77L22.08 24.79Q23.25 24.82 25.45 24.55L25.43 24.52L25.35 24.45Q25.39 24.95 25.35 25.78L25.27 25.69L25.42 25.85Q25.31 26.54 25.31 27.00L25.24 26.93L23.72 27.08L23.72 27.08Q22.95 27.19 22.07 27.19L21.99 27.11L21.99 27.10Q21.99 31.28 21.91 39.66L21.91 39.66L22.00 39.75Q19.72 39.75 18.24 40.44L18.24 40.45L18.26 40.47Q19.45 34.42 19.33 27.19L19.28 27.13L19.16 27.01Q18.54 27.00 17.24 26.73L17.28 26.77L17.35 26.84Q17.28 25.78 17.09 23.83L17.15 23.90L17.01 23.76Q18.24 24.38 19.20 24.57L19.21 24.59L19.21 24.59Q19.15 23.92 18.84 21.44L18.76 21.36L18.81 21.40Q18.66 19.43 18.66 18.48L18.58 18.40L18.58 18.40Q18.67 16.82 20.08 16.25L20.03 16.20L19.95 16.12Q20.79 15.78 25.63 14.94L25.73 15.04L25.66 14.97Q26.56 14.92 27.40 14.81L27.23 14.64L27.38 14.79Q27.01 15.41 26.86 16.29L26.94 16.36L26.66 17.95L26.66 17.96Q25.94 17.73 25.45 17.84L25.39 17.78L25.58 17.98Q24.93 17.94 23.03 18.55ZM28.28 19.50L28.42 19.64L28.35 19.57Q28.79 17.45 29.40 14.90L29.29 14.79L29.31 14.81Q28.81 15.27 27.52 15.88L27.52 15.88L27.78 14.05L27.88 14.15Q26.58 14.26 24.11 14.79L24.13 14.81L24.18 14.86Q22.87 14.80 19.67 15.72L19.66 15.71L19.75 15.80Q18.15 16.18 18.15 18.05L18.13 18.02L18.27 18.17Q18.17 18.37 18.24 18.71L18.16 18.63L18.21 18.67Q18.45 20.02 18.56 21.35L18.53 21.32L18.74 24.01L18.83 24.10Q17.47 23.72 16.82 23.26L16.85 23.29L16.73 23.18Q16.98 24.26 17.02 25.29L16.95 25.22L17.05 27.18L16.96 27.10Q17.82 27.42 18.62 27.50L18.47 27.35L18.53 29.50L18.84 29.43L18.96 29.55Q18.82 35.66 17.83 41.10L17.78 41.05L17.89 41.16Q18.82 40.60 20.00 40.34L20.10 40.44L19.89 42.48L19.82 42.41Q21.00 42.06 22.30 42.03L22.27 42.00L22.27 42.00Q23.66 42.13 24.91 42.40L24.85 42.33L24.93 42.41Q23.98 37.31 23.98 29.35L23.99 29.37L23.97 29.35Q25.14 29.41 27.23 29.49L27.22 29.47L27.14 27.53L27.19 27.58Q27.14 26.58 27.18 25.63L27.31 25.76L27.18 25.62Q26.69 25.71 25.63 25.98L25.69 26.05L25.65 26.00Q25.59 25.26 25.71 23.93L25.85 24.07L25.81 24.03Q24.96 24.25 24.16 24.32L24.24 24.41L24.10 24.26Q24.06 22.81 24.17 21.40L24.24 21.47L24.31 21.54Q24.37 20.80 24.90 20.46L24.89 20.44L24.96 20.52Q25.93 19.85 26.75 19.77L26.64 19.66L26.68 19.71Q27.50 19.63 28.34 19.55Z"/><path fill="#111" d="M45.76 29.88L45.80 29.92L45.72 29.83Q45.58 29.93 45.28 29.93L45.24 29.89L45.28 29.93Q43.80 29.79 42.36 30.62L42.43 30.69L42.34 30.61Q41.14 31.85 41.14 33.75L41.14 33.74L41.12 33.73Q41.08 37.12 42.61 38.45L42.60 38.44L42.63 38.47Q43.53 39.60 45.81 39.60L45.92 39.71L45.83 39.62Q46.11 39.67 46.42 39.67L46.32 39.57L46.37 39.62Q48.21 39.76 49.36 38.12L49.22 37.99L49.34 38.10Q50.36 36.57 50.28 34.78L50.18 34.67L50.18 34.68Q50.29 34.25 50.29 33.84L50.31 33.86L50.27 33.81Q50.30 32.06 48.93 30.89L48.92 30.89L48.87 30.83Q47.48 29.66 45.69 29.81ZM50.21 40.00L50.21 40.00L50.18 39.97Q49.34 42.06 45.61 42.18L45.57 42.13L45.58 42.15Q42.14 42.21 40.54 40.61L40.57 40.64L40.52 40.59Q39.12 38.89 38.33 34.09L38.32 34.09L38.22 33.99Q38.04 32.36 38.04 31.10L38.03 31.10L38.01 31.08Q37.98 29.26 38.70 28.19L38.67 28.16L38.68 28.16Q40.12 26.86 43.08 26.86L43.06 26.83L43.09 26.87Q49.24 26.69 51.14 29.28L51.21 29.35L51.27 29.41Q51.51 28.66 51.93 27.06L51.80 26.93L51.87 27.00Q53.17 26.74 55.61 25.95L55.63 25.97L55.44 25.78Q53.10 31.51 52.88 37.83L52.95 37.90L52.87 37.82Q52.71 44.06 54.84 49.89L54.73 49.77L54.83 49.88Q52.99 49.13 51.20 48.87L51.18 48.85L51.18 48.85Q50.34 44.96 50.23 40.02ZM51.10 49.34L51.05 49.29L50.94 49.18Q51.74 49.41 53.15 49.71L53.21 49.78L53.23 49.80Q53.42 50.48 53.99 51.89L53.89 51.79L54.01 51.91Q56.59 52.62 58.87 53.92L58.85 53.89L58.78 53.83Q54.84 47.34 54.84 38.81L54.72 38.68L54.74 38.71Q54.84 32.45 57.32 26.67L57.30 26.65L57.28 26.63Q56.66 26.99 55.28 27.64L55.14 27.49L55.18 27.53Q55.56 26.81 56.21 25.25L56.20 25.24L56.12 25.17Q54.61 25.75 51.42 26.63L51.37 26.58L51.47 26.68Q51.23 27.12 50.92 28.30L51.00 28.38L51.05 28.43Q49.06 26.56 42.93 26.40L42.78 26.25L42.93 26.40Q39.58 26.17 38.21 27.66L38.36 27.81L38.24 27.69Q37.58 28.93 37.62 30.83L37.54 30.76L37.59 30.81Q37.64 33.75 38.63 37.52L38.71 37.60L38.76 37.65Q39.28 39.92 40.19 40.87L40.31 40.99L40.71 41.39L40.57 41.24Q41.79 44.06 47.23 44.29L47.26 44.33L47.22 44.28Q48.22 44.29 50.04 43.98L50.19 44.13L50.12 44.06Q50.35 46.92 50.96 49.20ZM47.55 32.09L47.52 32.06L47.65 32.19Q48.75 32.22 49.59 32.53L49.64 32.58L49.54 32.48Q49.78 33.06 49.89 33.67L49.84 33.61L49.81 33.58Q50.00 34.23 49.92 34.84L49.93 34.85L49.92 34.83Q49.87 36.69 48.84 37.99L48.81 37.95L48.90 38.04Q47.68 39.42 45.82 39.23L45.92 39.32L45.74 39.15Q44.54 39.24 43.58 38.82L43.67 38.90L43.53 38.77Q43.28 38.06 43.28 36.84L43.29 36.85L43.22 36.78Q43.29 36.54 43.29 36.24L43.29 36.24L43.27 36.22Q43.17 34.37 44.50 33.21L44.58 33.28L44.62 33.33Q45.78 31.99 47.53 32.07Z"/><path fill="#222" d="M94.92 28.94L94.85 28.88L94.96 28.98Q92.33 28.90 91.30 30.08L91.38 30.16L91.32 30.11Q90.38 31.37 90.38 34.00L90.23 33.85L90.20 33.82Q90.29 39.01 94.90 38.82L94.99 38.91L94.96 38.89Q97.07 39.09 98.42 37.53L98.41 37.51L98.32 37.43Q99.61 35.80 99.38 33.75L99.55 33.92L99.43 33.80Q99.51 31.32 98.63 30.30L98.68 30.35L98.65 30.31Q97.11 28.92 94.90 28.92ZM99.97 38.75L99.98 38.77L99.88 38.67Q98.83 41.26 94.14 41.26L94.05 41.17L92.67 41.24L92.70 41.27Q90.25 41.18 89.15 40.03L89.08 39.96L89.20 40.09Q88.19 39.08 87.92 36.68L87.90 36.66L87.78 36.53Q87.62 35.05 87.55 33.26L87.69 33.40L87.55 33.26Q87.49 32.25 87.34 30.31L87.51 30.48L87.36 30.33Q87.41 26.19 92.59 26.19L92.45 26.06L94.06 26.10L94.10 26.14Q97.03 26.18 99.13 27.48L99.15 27.50L99.02 27.37Q99.88 27.93 100.38 28.62L100.27 28.51L100.41 28.65Q100.58 27.75 101.11 26.11L101.20 26.20L101.11 26.11Q102.41 26.00 104.73 25.40L104.64 25.30L104.60 25.26Q102.13 29.61 102.13 34.86L101.99 34.72L102.04 34.77Q102.05 38.51 103.42 41.59L103.49 41.66L103.47 41.64Q102.33 41.34 100.43 41.11L100.36 41.04L100.42 41.10Q100.18 40.22 99.88 38.66ZM103.17 43.86L103.31 43.99L105.48 44.53L105.54 44.59Q106.75 44.89 107.74 45.34L107.58 45.18L107.65 45.25Q104.06 40.98 104.06 34.89L104.01 34.83L104.05 34.88Q104.06 30.35 106.19 26.55L106.07 26.42L106.10 26.46Q105.40 26.63 104.07 27.02L104.23 27.18L104.16 27.11Q104.51 26.35 105.38 24.83L105.40 24.84L105.32 24.76Q104.84 25.04 100.84 25.88L100.84 25.88L100.27 27.71L100.30 27.74Q98.44 25.92 94.03 25.69L93.96 25.63L94.06 25.72Q92.94 25.74 90.69 25.89L90.73 25.94L90.57 25.78Q87.03 26.27 87.15 30.31L87.13 30.29L87.15 30.31Q87.23 33.59 87.80 38.04L87.87 38.11L87.83 38.49L87.81 38.47Q87.94 39.32 88.74 40.42L88.71 40.40L88.64 40.32Q88.85 40.54 89.04 40.66L89.16 40.77L89.01 40.62Q89.27 41.11 89.65 41.68L89.70 41.73L89.81 41.84Q91.14 43.29 94.53 43.48L94.58 43.53L94.47 43.42Q96.16 43.58 96.31 43.58L96.21 43.49L97.92 43.63L97.79 43.50Q101.05 43.56 102.27 42.00L102.26 42.00L102.21 41.95Q102.64 42.64 103.25 43.93ZM96.67 31.15L96.65 31.13L96.64 31.12Q97.92 31.07 98.76 31.53L98.86 31.62L98.77 31.54Q99.23 32.49 99.23 33.94L99.23 33.94L99.15 33.86Q99.35 35.77 98.07 37.20L98.04 37.16L98.17 37.30Q96.74 38.57 94.84 38.38L94.80 38.34L94.98 38.52Q93.50 38.48 92.47 38.07L92.46 38.06L92.36 37.95Q92.24 37.19 92.24 35.97L92.18 35.91L92.31 36.04Q92.34 32.41 94.96 31.46L95.00 31.50L94.97 31.47Q95.80 31.08 96.60 31.08Z"/></svg>