<svg xmlns="http://www.w3.org/2000/svg" width="150" height="50" viewBox="0,0,150,50"><path fill="#333" d="M46.22 29.79L46.12 29.69L46.07 29.63Q41.95 29.51 41.38 32.56L41.31 32.49L41.48 32.66Q41.29 33.72 41.48 34.60L41.31 34.43L41.36 34.49Q41.49 35.37 41.95 36.78L41.83 36.67L41.79 36.62Q42.99 39.92 46.30 39.77L46.31 39.77L46.23 39.70Q48.20 39.73 49.54 38.17L49.60 38.23L49.57 38.20Q50.86 36.79 50.86 34.73L50.89 34.76L50.82 34.69Q50.90 34.05 50.75 32.98L50.80 33.03L50.77 33.00Q50.74 32.14 50.32 31.45L50.29 31.42L50.42 31.55Q48.69 29.79 46.10 29.67ZM51.11 48.30L51.02 48.21L50.96 48.15Q49.07 48.66 41.00 49.05L41.02 49.07L41.10 49.15Q39.32 49.12 37.69 48.28L37.68 48.28L37.76 48.36Q38.57 47.37 40.40 45.58L40.48 45.67L40.42 45.61Q42.93 46.75 45.03 46.56L45.01 46.54L45.02 46.56Q47.76 46.13 48.60 45.87L48.70 45.97L48.60 45.87Q51.01 45.35 51.01 43.56L50.87 43.42L50.95 43.50Q50.98 43.30 50.91 43.08L50.78 42.95L50.67 41.36L50.81 41.50Q50.77 40.69 50.77 39.89L50.79 39.91L50.63 39.76Q49.28 42.03 45.90 42.03L45.99 42.12L46.03 42.16Q41.98 42.00 40.35 39.79L40.45 39.89L40.37 39.81Q39.40 38.42 38.60 34.00L38.53 33.94L38.55 33.95Q38.18 32.36 38.18 30.95L38.27 31.05L38.23 31.00Q38.27 29.26 39.18 28.27L39.18 28.26L39.22 28.31Q40.79 26.80 45.44 26.80L45.51 26.87L47.15 26.95L47.27 27.07Q50.34 27.28 51.67 29.23L51.68 29.23L51.70 29.26Q51.88 28.41 52.30 26.77L52.27 26.73L52.40 26.87Q54.13 26.39 55.88 25.67L55.97 25.75L55.97 25.76Q53.25 31.79 53.25 39.03L53.34 39.12L53.36 39.13Q53.37 41.80 53.75 44.43L53.73 44.41L53.72 44.40Q53.86 45.04 53.78 45.72L53.80 45.74L53.74 45.68Q53.68 47.18 52.46 47.94L52.38 47.87L52.43 47.91Q51.92 48.16 51.08 48.27ZM54.00 51.15L54.02 51.18L54.03 51.19Q55.41 51.16 56.18 50.21L56.15 50.19L56.29 50.32Q56.64 49.38 56.52 48.65L56.40 48.53L56.41 48.54Q56.27 47.87 56.08 47.11L56.19 47.22L56.07 47.10Q55.01 42.04 55.35 36.79L55.36 36.79L55.34 36.78Q55.63 31.27 57.76 26.44L57.78 26.46L55.72 27.44L55.73 27.46Q55.94 26.83 56.17 26.26L56.15 26.24L56.68 25.13L56.52 24.98Q54.21 25.98 52.00 26.40L52.12 26.51L52.05 26.44Q51.84 27.41 51.69 28.44L51.59 28.34L51.51 28.26Q49.45 26.39 45.42 26.39L45.39 26.36L43.71 26.44L43.75 26.48Q40.36 26.32 38.68 27.73L38.75 27.80L38.67 27.72Q37.90 28.85 37.93 30.75L37.95 30.77L37.91 30.73Q37.95 33.20 38.98 37.46L38.93 37.42L38.96 37.45Q39.43 39.36 40.64 40.77L40.65 40.78L40.93 41.06L40.97 41.09L41.05 41.17Q42.09 43.40 44.68 43.93L44.80 44.05L44.72 43.97Q46.08 44.22 47.52 44.26L47.60 44.34L47.67 44.40Q49.43 44.45 50.49 44.07L50.44 44.02L50.50 44.08Q49.87 45.62 47.20 45.96L47.10 45.85L47.06 45.81Q46.07 46.04 45.38 46.04L45.32 45.98L45.04 46.08L44.92 45.96Q42.10 45.96 40.43 45.01L40.62 45.20L38.72 46.72L38.84 46.85Q38.07 47.75 37.23 48.70L37.12 48.59L37.22 48.69Q38.09 49.11 39.08 49.30L39.13 49.35L38.21 50.17L38.31 50.28Q40.97 51.30 46.61 51.30L46.61 51.30L46.71 51.18L46.71 51.18Q50.51 51.36 54.08 51.24ZM48.11 32.09L47.98 31.97L48.09 32.07Q49.32 31.93 50.23 32.35L50.29 32.41L50.18 32.29Q50.51 32.94 50.59 33.62L50.55 33.58L50.49 33.52Q50.55 33.85 50.51 34.76L50.53 34.78L50.61 34.86Q50.50 36.74 49.40 38.03L49.37 37.99L49.37 38.00Q48.09 39.31 46.19 39.27L46.35 39.44L46.26 39.34Q44.78 39.23 43.94 38.81L44.06 38.94L44.01 38.89Q43.66 37.77 43.62 36.74L43.56 36.69L43.50 36.62Q43.40 32.30 48.01 32.00Z"/><path fill="#222" d="M95.55 40.29L95.57 40.30L95.44 40.18Q92.11 40.43 90.47 39.89L90.42 39.84L90.43 39.85Q88.34 39.09 88.03 35.71L88.12 35.79L89.46 34.62L89.45 34.61Q90.28 34.19 91.05 33.69L91.07 33.72L91.11 33.76Q90.85 35.67 92.45 36.88L92.37 36.80L92.28 36.71Q93.72 37.89 95.85 37.70L95.71 37.56L95.71 37.56Q100.20 37.25 100.01 33.71L99.94 33.64L99.88 33.58Q99.84 31.45 97.21 30.23L97.23 30.25L97.13 30.14Q94.41 29.21 92.05 27.99L92.03 27.97L91.94 27.88Q89.44 26.61 88.45 21.92L88.53 22.00L88.36 21.83Q88.31 21.44 88.20 20.68L88.14 20.62L88.20 20.68Q88.08 19.88 88.16 19.31L88.13 19.28L88.32 19.46Q88.40 17.80 89.66 17.34L89.64 17.32L89.58 17.27Q92.11 16.52 96.11 16.71L96.05 16.65L96.00 16.60Q97.92 16.81 98.72 16.89L98.72 16.88L98.64 16.81Q100.08 16.95 101.14 17.41L101.13 17.39L101.22 17.48Q103.27 17.90 103.50 20.37L103.56 20.43L103.62 20.49Q102.59 21.21 100.38 22.55L100.29 22.46L100.22 22.38Q99.77 19.35 95.40 19.35L95.51 19.46L95.56 19.51Q93.50 19.36 92.51 20.05L92.64 20.17L92.67 20.21Q91.51 20.71 91.73 22.50L91.69 22.46L91.67 22.44Q91.92 24.63 94.89 26.16L94.83 26.10L94.94 26.20Q95.48 26.44 99.97 28.08L99.90 28.01L99.89 27.99Q102.57 29.53 102.99 33.91L103.00 33.92L102.89 33.82Q102.99 34.06 103.06 35.32L103.09 35.34L103.07 35.32Q103.17 38.13 101.61 39.23L101.45 39.07L101.48 39.10Q99.67 40.11 95.49 40.23ZM97.91 42.72L97.84 42.66L97.88 42.69Q99.24 42.68 101.21 42.68L101.23 42.70L101.15 42.62Q103.33 42.70 104.58 42.28L104.59 42.29L104.65 42.34Q105.80 41.45 105.73 39.66L105.73 39.66L105.74 39.67Q105.78 38.76 105.40 36.70L105.21 36.51L105.22 36.52Q104.43 31.96 102.33 30.09L102.40 30.16L102.25 30.01Q101.60 28.56 100.27 27.84L100.14 27.71L94.82 25.62L94.83 25.63Q94.50 25.46 94.04 25.23L94.03 25.22L94.00 24.92L93.97 24.55L93.95 24.53Q93.72 23.04 94.86 22.43L94.89 22.46L94.87 22.44Q95.77 22.01 97.49 21.82L97.34 21.68L97.39 21.72Q98.63 21.71 99.77 22.17L99.62 22.01L99.63 22.02Q99.70 22.13 99.89 22.97L99.94 23.02L99.91 22.99Q100.14 22.88 100.64 22.65L100.75 22.76L100.60 22.61Q101.37 23.57 101.48 24.71L101.46 24.69L101.55 24.78Q101.52 24.64 105.18 22.05L105.28 22.15L105.24 22.11Q104.89 19.40 103.45 18.72L103.62 18.89L103.55 18.82Q102.87 17.45 101.42 16.92L101.51 17.01L101.41 16.91Q99.32 16.30 96.12 16.30L96.00 16.18L96.12 16.31Q91.11 16.21 89.24 16.89L89.29 16.93L89.29 16.94Q87.89 17.33 87.78 19.01L87.85 19.08L87.82 19.05Q87.71 19.50 88.13 21.71L88.09 21.67L88.23 21.81Q88.77 25.44 90.94 27.68L90.98 27.72L90.99 27.73Q91.86 29.52 93.36 30.20L93.42 30.26L93.31 30.15Q94.76 30.78 98.68 32.34L98.71 32.37L98.70 32.40L99.39 32.78L99.46 32.89L99.37 32.80Q99.50 33.20 99.54 33.54L99.72 33.72L99.63 33.63Q99.75 37.14 95.82 37.29L95.74 37.21L95.76 37.23Q94.65 37.30 93.35 36.91L93.40 36.96L93.38 36.94Q93.10 36.16 93.10 35.44L92.96 35.30L92.99 35.34Q92.98 35.05 93.01 34.78L93.14 34.91L93.00 34.77Q92.62 35.04 91.82 35.53L91.83 35.54L91.78 35.49Q91.32 34.43 91.48 33.06L91.43 33.01L91.53 33.11Q89.32 34.17 87.72 35.58L87.78 35.64L87.79 35.65Q87.93 36.56 88.01 37.58L87.85 37.42L87.95 37.52Q88.32 39.30 89.61 40.06L89.54 39.99L89.54 39.99Q90.85 41.91 93.40 42.29L93.38 42.27L93.35 42.24Q94.92 42.48 97.85 42.67Z"/><path fill="#444" d="M122.75 20.22L122.69 20.17L122.68 20.16Q118.26 20.04 114.57 19.05L114.54 19.03L114.55 19.03Q116.23 23.76 116.42 28.59L116.23 28.40L116.33 28.50Q116.55 33.33 115.33 37.93L115.26 37.87L115.35 37.96Q118.02 37.20 121.53 37.05L121.64 37.17L121.68 37.21Q125.44 36.86 127.23 34.42L127.35 34.53L127.33 34.52Q128.83 32.44 129.02 28.33L129.00 28.31L129.07 28.38Q129.17 26.65 128.72 24.94L128.60 24.82L128.62 24.85Q127.34 20.10 122.62 20.10ZM110.81 42.21L110.71 42.11L110.64 42.04Q113.59 36.42 113.59 29.72L113.71 29.85L113.63 29.76Q113.55 21.16 109.25 14.15L109.36 14.27L109.22 14.13Q114.52 16.83 122.78 17.02L122.85 17.10L122.84 17.08Q131.69 17.25 132.03 24.41L131.95 24.33L132.01 24.39Q132.14 27.10 132.10 28.55L132.09 28.54L132.04 28.49Q132.15 33.36 131.31 35.53L131.24 35.45L131.26 35.48Q130.73 36.47 129.97 37.31L130.04 37.38L130.12 37.46Q128.58 38.81 125.95 39.30L126.11 39.47L125.98 39.33Q124.50 39.71 121.49 39.94L121.39 39.84L121.52 39.98Q115.38 40.42 110.77 42.17ZM128.61 41.97L128.72 42.08L128.67 42.03Q131.44 41.71 133.08 40.23L133.11 40.26L133.06 40.21Q134.28 38.46 134.24 35.72L134.28 35.75L134.11 35.59Q134.16 34.27 134.01 30.77L134.17 30.92L133.65 26.22L133.70 26.27Q133.44 23.91 132.49 21.82L132.47 21.80L132.54 21.87Q132.04 20.95 131.35 20.30L131.40 20.35L131.28 20.08L131.23 20.03Q129.59 17.13 125.17 16.75L125.26 16.84L125.15 16.72Q122.54 16.66 115.53 15.94L115.53 15.94L115.45 15.86Q112.34 15.57 108.65 13.55L108.54 13.44L108.65 13.56Q113.46 20.91 113.46 29.67L113.39 29.60L113.39 29.60Q113.36 36.57 110.01 42.74L110.10 42.83L110.15 42.88Q110.67 42.45 112.01 41.96L112.07 42.02L112.12 42.08Q111.78 42.91 110.90 44.39L110.87 44.36L110.91 44.40Q113.87 43.25 117.22 42.75L117.15 42.69L117.27 42.81Q119.35 42.49 123.01 42.38L122.96 42.33L122.87 42.23Q126.92 42.29 128.75 42.10ZM128.74 28.42L128.73 28.42L128.78 28.47Q128.23 36.29 121.53 36.67L121.69 36.84L121.64 36.78Q119.75 36.95 117.70 37.22L117.56 37.08L117.56 37.08Q118.36 33.31 118.36 29.66L118.38 29.67L118.31 29.61Q118.41 26.01 117.68 22.17L117.52 22.00L117.66 22.14Q119.94 22.52 124.62 22.52L124.49 22.39L124.56 22.46Q125.84 22.22 127.48 23.17L127.48 23.17L127.65 23.34Q128.89 25.57 128.74 28.43Z"/><path fill="#111" d="M77.76 28.74L77.77 28.75L71.80 28.76L71.83 28.79Q68.81 28.73 65.87 28.66L66.04 28.82L65.98 28.76Q66.03 35.40 63.98 40.92L64.03 40.97L64.03 40.97Q62.23 41.49 60.48 42.18L60.40 42.11L60.53 42.23Q63.30 36.51 63.30 29.85L63.22 29.77L63.27 29.82Q63.17 21.23 59.06 14.19L59.17 14.30L59.00 14.13Q60.55 14.96 63.03 15.76L63.11 15.84L63.04 15.77Q65.21 20.87 65.74 25.74L65.82 25.83L65.68 25.68Q68.97 26.20 71.83 26.16L71.76 26.09L71.75 26.08Q74.48 26.14 77.79 25.88L77.82 25.91L77.72 25.81Q78.15 21.36 79.90 16.26L80.09 16.46L80.04 16.40Q82.00 16.00 84.25 15.17L84.13 15.05L84.17 15.09Q80.52 21.79 80.52 29.75L80.66 29.89L80.63 29.86Q80.51 35.94 82.87 41.27L82.92 41.32L82.93 41.33Q81.29 40.68 79.23 40.38L79.26 40.40L79.25 40.40Q77.52 35.31 77.63 28.61ZM79.01 40.77L79.06 40.81L79.07 40.82Q80.00 40.88 81.10 41.14L81.18 41.22L81.18 41.22Q81.46 41.88 82.11 43.37L82.10 43.36L82.17 43.43Q85.50 44.36 87.29 45.27L87.25 45.23L87.24 45.23Q82.75 39.02 82.45 30.76L82.50 30.81L82.45 30.76Q82.15 22.74 85.81 15.93L85.81 15.92L84.73 16.37L84.88 16.52Q84.26 16.62 83.65 16.77L83.63 16.75L83.75 16.87Q84.02 15.93 84.86 14.37L84.86 14.37L84.95 14.46Q82.32 15.52 79.69 16.02L79.72 16.04L79.56 15.88Q77.94 20.77 77.48 25.45L77.57 25.55L77.43 25.41Q75.02 25.70 72.59 25.70L72.59 25.71L72.70 25.81Q70.20 25.72 67.69 25.56L67.80 25.67L67.72 25.59Q67.54 22.37 66.44 18.30L66.38 18.23L66.45 18.30Q65.71 18.14 64.26 17.76L64.14 17.63L64.27 17.76Q63.87 16.52 63.41 15.50L63.47 15.56L63.46 15.55Q60.71 14.77 58.42 13.52L58.44 13.53L58.30 13.40Q62.87 20.81 62.87 29.61L62.97 29.71L62.95 29.69Q62.94 36.64 59.81 42.77L59.76 42.72L59.76 42.72Q60.60 42.57 61.93 42.00L61.83 41.90L61.80 41.87Q61.56 42.80 60.76 44.33L60.82 44.39L60.79 44.36Q63.55 43.31 65.80 42.90L65.77 42.86L65.89 42.99Q67.64 37.31 67.83 31.14L67.89 31.20L67.83 31.15Q69.46 31.10 72.65 31.06L72.66 31.07L72.65 31.06Q75.46 30.97 77.36 31.04L77.39 31.07L77.49 31.18Q77.77 36.94 79.10 40.86Z"/><path fill="#333" d="M32.32 22.98L32.32 22.99L32.37 23.04Q30.61 25.80 27.94 31.44L27.84 31.33L26.01 35.74L25.83 35.57Q25.00 37.52 23.67 39.77L23.74 39.84L23.75 39.84Q24.15 39.79 22.48 39.83L22.56 39.91L22.44 39.79Q22.41 39.76 21.16 39.76L21.18 39.78L21.31 39.91Q20.58 38.42 17.65 31.27L17.50 31.12L17.61 31.23Q15.35 25.77 13.26 22.77L13.30 22.81L13.35 22.85Q13.99 25.82 13.99 28.98L14.13 29.12L14.00 28.99Q14.01 35.51 11.04 41.07L11.02 41.05L11.07 41.10Q9.70 41.40 7.34 42.13L7.38 42.17L7.47 42.26Q11.18 36.60 11.18 29.37L11.21 29.39L11.20 29.39Q11.05 20.29 5.64 13.33L5.64 13.32L5.76 13.44Q7.33 14.09 9.69 14.78L9.70 14.79L9.75 14.85Q16.71 21.50 22.80 34.82L22.76 34.78L22.89 34.91Q26.44 27.95 28.65 24.45L28.46 24.27L28.64 24.44Q32.16 18.60 36.12 15.13L36.18 15.20L36.13 15.15Q37.39 14.92 39.75 14.16L39.80 14.21L39.66 14.07Q34.81 20.83 34.81 29.44L34.72 29.34L34.65 29.27Q34.70 35.98 38.12 41.50L38.06 41.43L38.16 41.54Q36.71 41.12 33.97 40.51L33.98 40.52L34.10 40.64Q31.80 35.90 31.80 29.92L31.77 29.90L31.66 29.78Q31.66 26.36 32.34 23.01ZM33.81 40.92L33.84 40.95L33.98 41.09Q34.63 41.17 36.07 41.43L36.06 41.42L35.94 41.30Q36.43 42.09 37.38 43.58L37.35 43.55L37.45 43.65Q39.56 44.05 43.03 45.26L43.11 45.35L43.05 45.28Q36.66 38.82 36.66 29.00L36.78 29.12L36.81 29.14Q36.65 21.27 41.03 15.14L41.20 15.30L38.88 15.88L39.04 16.04Q39.94 14.39 40.59 13.51L40.50 13.42L40.59 13.51Q38.63 14.07 36.01 14.60L36.07 14.66L36.03 14.62Q29.28 20.74 23.22 33.34L23.33 33.45L23.31 33.43Q18.00 22.34 13.06 17.08L13.03 17.06L13.08 17.11Q12.77 17.10 12.19 16.98L12.26 17.05L11.02 15.73L10.89 15.61Q10.32 14.95 9.63 14.34L9.63 14.34L9.69 14.40Q6.60 13.36 4.81 12.64L4.95 12.79L4.90 12.73Q10.82 19.87 10.82 29.27L10.77 29.22L10.90 29.35Q10.94 37.01 6.79 42.87L6.69 42.77L6.64 42.72Q7.46 42.63 8.76 42.21L8.70 42.15L8.73 42.18Q8.60 42.43 7.19 44.53L7.09 44.43L7.23 44.56Q8.95 44.00 12.45 43.24L12.46 43.24L12.52 43.31Q16.13 36.15 15.94 28.38L15.92 28.36L16.07 28.51Q17.53 32.44 20.99 40.32L20.98 40.31L20.93 40.26Q21.10 40.13 21.33 40.13L21.37 40.17L21.92 40.18L21.99 40.26Q22.39 40.88 23.19 42.17L23.22 42.20L23.29 42.28Q24.84 42.19 24.84 42.19L24.92 42.27L24.81 42.16Q25.77 42.09 26.41 42.16L26.56 42.31L26.55 42.30Q28.09 38.25 31.44 30.25L31.44 30.25L31.46 30.27Q31.23 35.59 33.81 40.92Z"/></svg>