<svg xmlns="http://www.w3.org/2000/svg" width="150" height="50" viewBox="0,0,150,50"><path fill="#111" d="M46.63 19.67L46.69 19.73L46.66 19.70Q44.64 19.77 43.69 19.93L43.69 19.93L43.72 19.96Q42.07 20.17 40.85 20.70L40.75 20.60L40.81 20.66Q37.43 22.24 37.32 26.92L37.29 26.89L37.21 26.81Q37.22 29.56 37.87 32.49L37.87 32.50L37.88 32.50Q38.75 36.53 42.36 37.71L42.37 37.72L42.23 37.58Q44.13 38.15 45.58 38.00L45.68 38.10L46.11 38.08L46.05 38.01Q46.22 37.99 46.41 38.03L46.46 38.08L46.38 38.00Q46.66 38.13 46.81 38.09L46.80 38.07L46.84 38.12Q49.36 37.74 50.73 37.17L50.72 37.16L47.15 33.63L47.14 33.62Q47.45 33.28 48.06 32.67L48.10 32.71L48.99 31.77L48.95 31.74Q50.94 33.95 52.91 36.01L52.90 35.99L52.90 35.99Q55.18 34.12 55.45 28.76L55.39 28.69L55.50 28.81Q55.44 27.76 55.44 26.84L55.41 26.81L55.56 26.96Q55.43 21.16 50.37 20.06L50.38 20.07L50.45 20.14Q49.17 19.85 46.66 19.70ZM59.40 41.72L59.47 41.80L59.34 41.67Q58.76 42.12 57.58 43.00L57.66 43.07L53.15 39.29L53.22 39.35Q50.70 40.53 46.44 40.57L46.55 40.68L46.50 40.63Q39.94 40.74 37.13 38.49L37.02 38.38L37.08 38.45Q35.34 36.71 34.89 33.74L34.89 33.75L34.77 33.62Q34.76 32.01 34.38 28.43L34.36 28.42L34.33 28.39Q34.25 27.59 34.14 25.83L34.18 25.88L34.17 25.86Q33.95 24.24 33.99 23.36L34.01 23.38L34.12 23.49Q34.25 20.46 36.00 18.90L35.96 18.86L36.02 18.92Q37.47 17.52 40.67 17.02L40.69 17.04L40.75 17.10Q43.03 16.53 45.92 16.60L46.11 16.79L45.93 16.61Q53.46 16.75 56.58 19.11L56.68 19.22L56.56 19.09Q58.79 21.28 58.52 26.20L58.50 26.17L58.50 26.17Q58.42 29.94 58.23 31.27L58.11 31.15L58.15 31.19Q57.52 35.70 55.20 38.02L55.14 37.96L55.22 38.04Q56.67 39.26 59.41 41.74ZM54.56 17.47L54.53 17.45L54.61 17.52Q52.49 16.70 45.98 16.20L46.09 16.31L45.96 16.18Q44.72 16.36 41.95 16.47L41.87 16.39L41.78 16.30Q37.65 16.63 35.41 18.61L35.30 18.50L35.46 18.67Q33.67 20.00 33.67 23.16L33.81 23.29L33.76 23.24Q33.76 24.08 33.91 25.80L33.94 25.83L33.92 25.81Q34.10 27.55 34.10 28.42L34.10 28.42L34.13 28.45Q34.14 30.06 34.52 33.64L34.65 33.76L34.50 33.61Q34.93 36.56 36.53 38.62L36.60 38.69L36.49 38.58Q36.82 39.40 38.03 40.54L38.02 40.52L38.12 40.63Q40.88 42.66 46.06 42.93L46.06 42.93L45.92 42.80Q46.29 42.82 48.69 42.93L48.80 43.05L48.77 43.01Q53.50 43.10 55.79 42.04L55.77 42.02L55.79 42.04Q56.71 42.77 61.43 46.35L61.40 46.32L61.38 46.30Q61.92 45.69 63.21 44.70L63.38 44.87L63.33 44.82Q62.40 44.08 61.60 43.39L61.70 43.49L60.03 42.02L59.98 41.82L60.02 41.86Q59.41 41.36 58.19 40.33L58.20 40.34L58.23 40.37Q60.13 37.86 60.13 33.33L60.11 33.30L60.15 33.35Q60.17 32.94 60.20 32.10L60.16 32.06L60.15 32.05Q60.29 31.31 60.29 30.89L60.28 30.89L60.25 30.86Q60.17 25.25 59.44 22.89L59.53 22.98L59.47 22.91Q59.09 21.62 58.21 20.55L58.26 20.61L58.26 20.61Q57.57 18.58 54.64 17.55ZM48.56 22.05L48.51 22.01L48.49 21.98Q52.66 22.00 54.48 23.60L54.44 23.56L54.51 23.63Q54.93 24.69 55.04 26.03L55.11 26.09L55.11 26.09Q55.14 27.30 55.06 28.67L55.08 28.69L55.14 28.75Q54.80 33.71 52.86 35.42L52.82 35.38L52.90 35.46Q51.46 34.02 48.95 31.28L48.98 31.31L49.01 31.34Q48.14 31.99 46.58 33.55L46.62 33.60L46.65 33.62Q47.31 34.32 48.46 35.51L48.42 35.47L48.36 35.52L48.36 35.52Q48.88 36.01 49.91 37.07L49.92 37.09L49.98 37.15Q48.83 37.25 46.50 37.55L46.53 37.58L46.01 37.58L45.77 37.77L45.60 37.64L45.66 37.69Q42.13 37.63 40.15 36.00L40.12 35.96L40.15 35.99Q39.16 33.94 39.20 30.82L39.24 30.86L39.17 30.79Q39.29 22.03 48.46 21.96Z"/><path fill="#333" d="M68.30 30.65L68.39 30.73L68.23 30.57Q68.27 30.61 71.65 30.57L71.68 30.60L71.70 30.62Q74.01 30.65 75.08 30.68L75.02 30.63L74.90 30.51Q73.91 27.68 71.47 22.05L71.48 22.07L71.48 22.06Q70.89 23.45 69.84 26.31L69.91 26.37L69.92 26.39Q68.81 29.17 68.23 30.58ZM76.21 33.19L76.13 33.11L76.11 33.09Q73.85 33.08 71.65 33.11L71.58 33.05L71.67 33.14Q69.34 33.09 67.05 33.28L67.12 33.35L67.20 33.43Q65.55 36.72 62.31 40.91L62.35 40.95L62.39 40.99Q59.81 41.61 58.44 42.10L58.39 42.05L58.43 42.09Q63.50 36.39 68.18 23.03L68.22 23.07L68.17 23.02Q69.53 19.69 70.90 16.45L70.84 16.40L70.76 16.32Q71.08 16.33 71.42 16.33L71.53 16.44L72.20 16.38L72.26 16.45Q73.01 17.80 77.84 29.45L77.76 29.37L77.70 29.31Q81.13 37.30 85.12 41.45L84.98 41.31L85.01 41.34Q84.51 41.22 80.62 40.34L80.62 40.33L80.57 40.28Q78.11 37.25 76.13 33.11ZM80.68 40.82L80.52 40.66L81.08 40.72L81.14 40.78Q81.45 40.86 81.75 40.98L81.78 41.00L81.64 40.86Q82.03 41.29 83.86 43.31L83.86 43.31L83.97 43.42Q87.55 44.26 89.95 45.29L89.91 45.25L89.92 45.26Q84.43 40.72 80.44 32.73L80.36 32.66L80.50 32.79Q78.78 29.40 77.33 25.44L77.44 25.55L74.67 18.02L74.54 17.89Q74.31 18.00 74.08 18.00L74.18 18.09L73.57 18.02L73.53 17.98Q73.10 17.25 72.38 15.88L72.45 15.95L72.49 16.00Q72.02 16.06 71.57 16.02L71.45 15.90L71.44 15.89Q70.97 15.84 70.44 15.84L70.50 15.90L70.58 15.99Q69.10 19.84 65.22 30.00L65.29 30.07L65.23 30.01Q62.21 38.07 57.57 42.87L57.44 42.74L57.51 42.81Q58.48 42.34 60.50 41.73L60.52 41.74L60.61 41.84Q59.67 42.53 58.11 44.32L58.24 44.45L58.27 44.49Q59.96 43.81 63.88 43.05L63.84 43.01L63.92 43.09Q67.17 38.57 68.73 35.34L68.88 35.49L68.89 35.50Q70.48 35.22 72.80 35.26L72.93 35.39L72.84 35.30Q75.67 35.42 77.04 35.50L76.95 35.41L77.02 35.48Q78.24 37.81 80.60 40.74ZM72.88 26.05L72.88 26.05L72.96 26.13Q73.75 28.14 74.52 30.24L74.47 30.19L71.17 30.20L71.16 30.19Q71.86 28.88 72.93 26.10Z"/><path fill="#333" d="M122.92 32.22L113.69 22.22L113.55 22.09Q114.48 25.87 114.48 29.60L114.54 29.67L114.41 29.53Q114.50 35.60 112.44 41.16L112.34 41.06L112.44 41.15Q111.39 41.43 109.14 42.19L109.14 42.20L109.11 42.16Q111.85 36.30 111.85 29.60L111.99 29.74L111.98 29.73Q111.83 20.94 107.34 13.51L107.41 13.58L107.31 13.49Q107.82 13.73 108.51 14.15L108.55 14.19L108.52 14.17Q120.62 25.39 128.46 34.64L128.52 34.70L128.49 34.67Q128.10 32.15 128.10 29.71L128.18 29.78L128.19 29.80Q128.09 22.47 130.61 16.26L130.56 16.22L130.69 16.35Q132.98 15.78 134.58 15.10L134.67 15.19L134.55 15.07Q131.26 21.26 130.96 28.42L130.89 28.35L130.90 28.36Q130.70 35.81 133.67 41.98L133.69 42.00L133.70 42.01Q133.03 41.84 132.61 41.65L132.58 41.61L132.63 41.67Q128.05 37.69 122.84 32.13L122.88 32.18ZM136.30 45.18L136.28 45.16L136.23 45.11Q136.69 45.27 137.11 45.46L137.17 45.52L138.09 45.94L138.05 45.90Q132.77 38.84 132.77 29.47L132.87 29.57L132.83 29.53Q132.82 22.29 136.13 16.04L136.15 16.06L136.15 16.06Q135.42 16.20 134.01 16.81L134.09 16.89L134.06 16.87Q134.43 16.02 135.27 14.46L135.30 14.49L135.26 14.45Q132.88 15.41 130.44 15.98L130.38 15.92L130.49 16.03Q127.70 22.35 127.70 29.77L127.86 29.92L127.86 29.93Q127.74 31.67 127.93 33.65L127.98 33.70L128.02 33.74Q123.22 27.92 118.46 23.31L118.63 23.47L108.50 13.73L108.44 13.67Q107.81 13.30 106.59 12.73L106.63 12.77L106.63 12.77Q111.52 20.52 111.52 29.62L111.57 29.66L111.54 29.64Q111.64 36.85 108.55 42.86L108.46 42.77L108.42 42.73Q108.68 42.57 110.31 41.96L110.39 42.04L110.39 42.04Q110.04 42.79 109.21 44.28L109.20 44.27L109.18 44.25Q110.65 43.85 114.11 43.05L114.08 43.02L114.11 43.05Q116.39 36.89 116.39 29.69L116.38 29.68L116.38 29.68Q116.35 27.56 116.12 25.42L116.08 25.38L116.16 25.46Q127.68 38.32 136.29 45.17Z"/><path fill="#333" d="M100.26 41.29L100.30 41.32L97.26 41.15L97.15 41.03Q94.74 40.91 93.94 40.80L94.08 40.93L94.03 40.88Q92.22 40.56 91.04 39.68L90.94 39.58L90.95 39.60Q89.71 38.24 89.49 34.89L89.52 34.92L89.45 34.85Q89.37 34.32 89.30 33.10L89.47 33.28L89.38 33.19Q89.44 32.82 89.36 31.72L89.36 31.72L89.29 31.65Q89.25 30.81 89.29 30.09L89.32 30.12L89.29 30.09Q89.54 28.21 90.57 27.45L90.43 27.31L90.54 27.42Q92.37 26.16 97.20 25.93L97.29 26.02L97.31 26.04Q99.32 25.92 100.12 25.92L100.14 25.94L100.17 25.97Q101.52 25.83 102.89 26.14L102.98 26.23L102.99 26.24Q102.30 27.38 101.77 29.20L101.95 29.39L101.85 29.28Q101.32 29.33 100.82 29.29L100.96 29.43L100.92 29.39Q100.71 29.25 100.17 29.14L100.18 29.14L99.24 28.92L99.23 28.91Q98.12 28.60 97.51 28.64L97.62 28.75L97.61 28.74Q92.93 28.85 92.32 31.67L92.22 31.57L92.36 31.71Q92.02 32.78 92.10 33.73L92.02 33.66L91.98 33.62Q92.29 36.36 93.52 37.44L93.39 37.31L93.52 37.44Q94.72 38.49 97.31 38.53L97.32 38.54L97.34 38.56Q98.79 38.57 99.52 38.26L99.58 38.32L100.57 37.79L100.47 37.70Q101.10 37.56 101.67 37.48L101.69 37.50L101.65 37.46Q101.95 39.32 102.33 40.62L102.25 40.54L102.31 40.59Q102.06 40.96 100.27 41.30ZM103.43 44.15L103.47 44.20L103.38 44.10Q103.80 44.18 104.64 44.26L104.69 44.31L104.70 44.32Q105.31 44.32 105.65 43.75L105.68 43.78L105.62 43.72Q104.38 41.60 103.88 39.50L104.04 39.66L104.00 39.63Q103.64 39.56 103.18 39.56L103.17 39.55L103.21 39.60Q102.74 39.54 102.35 39.73L102.30 39.67L102.37 39.75Q101.99 38.45 101.84 37.04L101.84 37.04L101.78 36.99Q101.34 37.07 100.12 37.65L100.05 37.58L99.95 37.48Q98.80 38.11 98.30 38.11L98.33 38.14L98.33 38.14Q97.96 38.27 97.35 38.23L97.20 38.08L97.19 38.06Q96.30 38.05 94.32 37.48L94.35 37.51L94.39 37.55Q94.01 36.79 94.05 35.65L94.06 35.66L94.11 35.71Q94.22 31.40 99.17 30.87L99.24 30.95L99.13 30.84Q99.80 30.82 101.17 31.16L101.25 31.24L101.32 31.31Q102.60 31.56 103.32 31.52L103.41 31.61L103.45 31.64Q103.74 29.27 104.42 27.45L104.38 27.40L104.51 27.53Q104.04 27.32 103.66 27.25L103.64 27.23L102.91 27.18L102.92 27.20Q103.08 26.67 103.46 25.79L103.41 25.75L103.58 25.92Q102.05 25.57 100.49 25.57L100.35 25.43L100.43 25.50Q98.11 25.58 93.73 25.96L93.63 25.87L93.72 25.96Q91.72 26.05 90.16 27.04L90.10 26.98L90.08 26.96Q88.91 27.96 88.91 29.86L88.92 29.87L89.02 29.97Q88.86 30.23 88.98 31.45L89.00 31.48L88.99 31.46Q89.11 32.54 89.07 33.15L88.98 33.06L89.07 33.14Q89.20 35.14 89.92 38.87L89.88 38.83L89.76 38.70Q90.20 39.60 90.69 40.10L90.72 40.13L91.03 40.44L90.99 40.36L90.90 40.27Q92.03 42.50 95.96 43.11L95.92 43.08L95.91 43.06Q99.01 43.51 101.68 43.77L101.75 43.84L101.81 43.91Q102.55 43.92 103.46 44.19Z"/><path fill="#333" d="M23.67 29.87L23.65 29.85L23.64 29.84Q21.08 29.67 19.75 30.89L19.84 30.98L19.85 31.00Q18.49 32.18 18.79 34.70L18.73 34.64L18.83 34.73Q19.04 37.15 20.26 38.41L20.27 38.42L20.30 38.45Q21.49 39.91 23.62 39.83L23.64 39.85L23.56 39.77Q24.11 39.74 24.30 39.74L24.32 39.77L24.34 39.78Q27.89 39.19 28.00 34.58L27.91 34.49L27.86 34.43Q28.04 32.18 27.36 31.38L27.41 31.43L27.39 31.42Q26.20 30.00 23.65 29.84ZM26.98 41.59L27.02 41.63L27.02 41.63Q25.69 42.20 24.13 42.12L24.08 42.08L24.19 42.19Q20.29 42.32 18.99 39.73L19.07 39.81L18.95 39.68Q18.75 45.01 17.42 49.27L17.60 49.45L17.47 49.33Q15.79 49.93 14.15 50.65L14.06 50.56L14.10 50.60Q16.61 44.59 16.35 37.62L16.28 37.55L16.44 37.71Q16.05 30.74 13.16 24.68L13.21 24.73L13.20 24.72Q15.10 25.87 16.81 26.32L16.92 26.43L17.42 27.88L17.46 27.92Q17.60 28.29 17.86 29.39L17.70 29.23L17.74 29.27Q18.84 27.28 22.42 27.09L22.38 27.06L22.32 27.00Q23.29 27.05 24.17 27.05L24.07 26.96L24.59 26.98L24.59 26.98Q24.73 27.00 24.92 27.04L24.86 26.99L25.20 27.01L25.29 27.11Q27.28 27.30 28.00 27.53L28.04 27.57L28.02 27.56Q29.51 28.02 30.39 28.97L30.35 28.93L30.49 29.08Q31.34 30.26 31.30 31.67L31.17 31.54L31.14 31.51Q31.12 34.35 30.32 37.01L30.39 37.08L30.35 37.04Q29.38 40.60 27.02 41.63ZM31.29 42.24L31.19 42.11L31.35 42.27Q32.43 40.26 32.74 36.15L32.73 36.15L32.65 36.06Q32.93 34.44 32.93 33.18L32.92 33.18L32.93 33.19Q32.94 31.67 32.18 30.27L32.06 30.15L32.08 30.17Q31.74 29.79 31.24 29.40L31.22 29.38L31.02 29.07L30.81 28.74L30.86 28.68L30.72 28.55Q29.15 26.67 24.81 26.67L24.81 26.67L24.13 26.60L24.03 26.50Q19.46 26.57 17.82 28.16L17.76 28.10L17.92 28.26Q17.65 27.65 17.50 27.16L17.60 27.26L17.15 26.01L17.19 26.05Q14.75 25.47 12.54 23.99L12.61 24.06L12.50 23.95Q15.81 30.30 16.11 37.53L16.00 37.43L16.14 37.57Q16.30 44.69 13.45 51.16L13.42 51.14L15.53 50.39L15.50 50.36Q15.19 51.05 14.51 52.61L14.60 52.70L14.67 52.77Q17.19 51.52 19.51 51.18L19.56 51.22L19.53 51.20Q20.62 46.34 20.77 42.61L20.77 42.61L20.93 42.78Q22.28 44.20 25.90 44.43L25.94 44.47L25.84 44.37Q29.76 44.59 31.20 42.16L31.28 42.24ZM25.62 32.16L25.72 32.26L25.67 32.21Q26.28 32.09 27.38 32.43L27.33 32.38L27.36 32.41Q27.65 33.42 27.61 34.60L27.63 34.63L27.54 34.54Q27.61 35.52 27.42 36.16L27.50 36.25L27.40 36.15Q26.62 38.98 24.11 39.29L24.17 39.35L24.32 39.39L24.34 39.40Q24.15 39.29 24.03 39.33L24.19 39.49L23.51 39.33L23.59 39.42Q22.41 39.42 21.42 38.92L21.37 38.87L21.01 36.80L20.97 36.76Q20.99 34.61 22.28 33.58L22.18 33.48L22.24 33.53Q23.27 32.48 25.67 32.21Z"/></svg>