<svg xmlns="http://www.w3.org/2000/svg" width="150" height="50" viewBox="0,0,150,50"><path fill="#444" d="M131.05 23.05L131.14 23.14L131.06 23.05Q129.23 25.76 126.56 31.39L126.64 31.46L124.65 35.72L124.69 35.75Q123.79 37.64 122.46 39.89L122.41 39.84L122.34 39.77Q122.83 39.80 121.16 39.84L121.10 39.78L121.20 39.88Q121.21 39.90 119.96 39.90L119.96 39.90L119.87 39.81Q119.15 38.33 116.22 31.17L116.18 31.14L116.22 31.17Q114.13 25.88 112.03 22.87L112.03 22.87L111.90 22.74Q112.83 26.00 112.83 29.16L112.77 29.09L112.78 29.10Q112.76 35.59 109.79 41.15L109.81 41.17L109.69 41.05Q108.41 41.45 106.05 42.17L106.06 42.18L106.17 42.29Q109.85 36.60 109.85 29.37L109.73 29.25L109.79 29.31Q109.86 20.43 104.45 13.46L104.41 13.43L104.35 13.36Q106.08 14.18 108.44 14.87L108.44 14.87L108.45 14.88Q115.47 21.59 121.56 34.92L121.54 34.90L121.58 34.93Q124.97 27.82 127.18 24.32L127.23 24.37L127.15 24.29Q130.70 18.47 134.66 15.01L134.82 15.17L134.66 15.01Q136.08 14.94 138.44 14.18L138.34 14.08L138.34 14.08Q133.35 20.71 133.35 29.31L133.41 29.37L133.38 29.34Q133.46 36.08 136.89 41.60L136.71 41.43L136.73 41.44Q135.56 41.30 132.81 40.69L132.65 40.52L132.69 40.56Q130.29 35.73 130.29 29.75L130.31 29.77L130.42 29.88Q130.39 26.43 131.08 23.08ZM132.57 41.01L132.46 40.90L132.56 41.01Q133.24 41.11 134.69 41.38L134.69 41.39L134.61 41.31Q135.08 42.08 136.03 43.56L136.14 43.67L136.11 43.64Q138.30 44.12 141.77 45.34L141.77 45.34L141.73 45.30Q135.32 38.82 135.32 28.99L135.46 29.13L135.31 28.98Q135.49 21.43 139.87 15.30L139.84 15.27L137.66 15.99L137.67 16.00Q138.68 14.46 139.32 13.58L139.31 13.56L139.20 13.45Q137.40 14.17 134.78 14.70L134.77 14.70L134.65 14.58Q127.92 20.71 121.87 33.32L121.94 33.39L121.89 33.34Q116.76 22.42 111.81 17.17L111.85 17.21L111.78 17.14Q111.34 17.01 110.77 16.89L110.91 17.03L109.71 15.76L109.70 15.74Q109.08 15.05 108.39 14.44L108.44 14.49L108.46 14.50Q105.33 13.43 103.54 12.70L103.46 12.63L103.47 12.63Q109.47 19.86 109.47 29.26L109.61 29.39L109.43 29.21Q109.58 36.98 105.43 42.85L105.30 42.71L105.35 42.76Q105.97 42.47 107.26 42.05L107.29 42.08L107.26 42.04Q107.17 42.34 105.76 44.43L105.80 44.47L105.74 44.41Q107.60 43.98 111.10 43.22L111.05 43.17L111.17 43.29Q114.87 36.22 114.68 28.45L114.59 28.37L114.56 28.33Q116.19 32.44 119.65 40.32L119.59 40.25L119.59 40.26Q119.94 40.30 120.17 40.30L120.10 40.23L120.53 40.13L120.57 40.17Q121.00 40.82 121.80 42.12L121.86 42.18L121.79 42.11Q123.57 42.25 123.57 42.25L123.51 42.19L123.50 42.18Q124.56 42.21 125.20 42.29L125.15 42.23L125.11 42.20Q126.79 38.28 130.14 30.28L130.15 30.29L130.03 30.18Q130.02 35.72 132.61 41.05Z"/><path fill="#222" d="M56.50 34.62L56.60 34.72L56.54 34.66Q56.68 38.38 53.52 39.67L53.48 39.64L53.50 39.65Q51.48 40.34 47.07 40.49L47.06 40.49L47.08 40.51Q42.23 40.56 39.98 39.38L40.10 39.50L40.01 39.42Q38.19 38.12 38.34 34.77L38.41 34.84L38.42 34.86Q38.36 34.15 38.56 32.17L38.60 32.22L38.57 32.19Q38.65 30.55 38.65 29.56L38.76 29.68L38.75 29.66Q38.82 21.74 34.63 14.32L34.52 14.20L34.54 14.23Q35.76 14.95 38.73 16.01L38.74 16.03L38.75 16.03Q41.62 22.75 41.62 30.14L41.60 30.12L41.46 29.97Q41.64 30.76 41.54 31.94L41.52 31.92L41.38 31.78Q41.45 33.13 41.45 33.74L41.32 33.60L41.30 33.59Q41.26 35.83 42.82 36.82L42.88 36.88L42.95 36.95Q44.59 37.75 47.56 37.75L47.55 37.74L47.56 37.75Q50.21 37.77 51.84 36.59L51.76 36.51L51.77 36.51Q53.70 35.24 53.54 32.73L53.50 32.69L53.41 32.60Q53.35 31.24 53.35 29.91L53.36 29.93L53.47 30.03Q53.41 22.93 55.81 16.42L55.70 16.31L57.96 15.83L57.88 15.75Q58.88 15.49 59.98 15.04L60.03 15.08L60.12 15.17Q56.29 22.20 56.29 29.77L56.33 29.81L56.33 29.81Q56.25 30.57 56.39 32.20L56.36 32.18L56.51 32.33Q56.63 33.95 56.63 34.75ZM58.65 35.51L58.71 35.58L58.68 35.55Q57.85 30.64 58.57 25.54L58.53 25.50L58.65 25.62Q59.41 20.44 61.81 16.07L61.82 16.07L61.77 16.02Q61.16 16.32 59.71 16.97L59.65 16.91L59.70 16.96Q59.93 15.97 60.73 14.41L60.85 14.54L60.83 14.52Q57.41 15.77 55.50 16.11L55.37 15.99L55.42 16.03Q53.07 22.55 53.07 29.82L53.06 29.81L53.11 29.86Q53.11 31.23 53.19 32.64L53.15 32.60L53.15 32.60Q53.39 35.09 51.60 36.31L51.47 36.18L51.49 36.20Q49.98 37.24 47.46 37.27L47.43 37.24L47.53 37.34Q44.77 37.40 43.33 36.64L43.31 36.62L43.38 36.69Q43.21 36.10 43.13 35.65L43.17 35.68L43.11 35.62Q43.18 35.24 43.30 34.74L43.21 34.66L43.29 34.73Q43.52 32.41 43.52 30.09L43.39 29.97L43.39 29.96Q43.39 24.14 41.86 18.24L41.92 18.29L41.85 18.22Q41.19 18.17 39.78 17.82L39.89 17.94L39.82 17.87Q39.33 16.47 38.88 15.55L38.88 15.55L38.94 15.62Q36.31 14.93 33.92 13.56L33.73 13.38L33.81 13.45Q38.33 20.94 38.33 29.66L38.38 29.71L38.33 29.66Q38.46 31.43 38.31 33.14L38.21 33.04L38.36 33.19Q37.98 35.44 38.05 36.62L38.06 36.63L38.16 36.73Q38.22 38.58 39.48 39.72L39.54 39.78L39.48 39.72Q40.47 42.20 45.12 42.58L45.10 42.57L45.08 42.54Q47.34 42.86 49.48 42.94L49.42 42.89L49.34 42.80Q54.71 43.00 57.49 42.05L57.62 42.18L57.50 42.05Q59.06 41.14 59.06 39.08L59.04 39.06L59.15 39.18Q59.24 38.13 58.79 35.65Z"/><path fill="#222" d="M67.91 33.26L68.04 33.39L68.03 33.38Q67.70 36.02 66.52 40.66L66.57 40.72L66.52 40.67Q64.92 41.39 63.32 42.19L63.29 42.16L63.23 42.10Q65.81 35.05 65.55 27.63L65.54 27.62L65.60 27.68Q65.19 20.15 62.11 13.41L62.27 13.57L62.11 13.41Q64.19 14.81 66.05 15.38L66.12 15.44L66.11 15.44Q68.17 22.33 68.17 28.99L68.24 29.07L68.11 28.93Q68.23 30.50 68.16 31.99L68.15 31.98L68.16 31.99Q69.15 30.62 74.37 25.67L74.46 25.77L74.36 25.67Q75.52 25.72 76.51 25.64L76.54 25.68L78.53 25.42L78.67 25.56Q75.47 28.52 71.17 32.29L71.28 32.41L71.18 32.30Q74.59 35.11 81.06 40.93L80.99 40.86L81.08 40.95Q78.23 39.92 75.26 39.73L75.32 39.79L75.41 39.88Q72.87 37.76 68.00 33.35ZM77.82 42.45L77.79 42.42L77.94 42.57Q82.65 43.39 85.77 45.34L85.73 45.30L85.69 45.26Q84.54 43.99 81.92 41.60L81.93 41.61L81.78 41.46Q82.12 41.64 82.38 41.76L82.36 41.73L82.46 41.83Q80.38 39.83 78.13 37.93L78.00 37.79L73.67 33.99L73.60 33.92Q78.54 29.69 80.97 26.80L81.02 26.84L81.03 26.85Q79.86 26.97 77.38 27.24L77.24 27.10L77.35 27.20Q78.97 25.78 79.66 24.95L79.55 24.84L79.51 24.80Q76.82 25.38 74.35 25.38L74.38 25.41L74.39 25.42Q72.98 26.72 70.24 29.39L70.12 29.27L70.26 29.41Q70.24 23.60 69.25 17.77L69.25 17.77L69.12 17.65Q68.52 17.57 67.03 17.31L66.94 17.22L66.92 17.20Q66.92 16.63 66.46 15.14L66.44 15.12L66.46 15.14Q63.83 14.34 61.59 12.78L61.48 12.67L61.46 12.66Q64.85 19.43 65.19 27.54L65.34 27.68L65.20 27.54Q65.68 35.60 62.68 42.84L62.68 42.84L62.61 42.77Q63.25 42.42 64.58 41.77L64.59 41.78L64.69 41.88Q64.36 42.62 63.72 44.07L63.73 44.08L63.69 44.04Q66.50 42.93 68.63 42.55L68.81 42.72L68.80 42.72Q69.27 40.10 69.76 35.84L69.78 35.86L69.70 35.78Q72.47 38.21 77.92 42.55Z"/><path fill="#111" d="M22.91 18.43L22.95 18.47L22.90 18.42Q22.22 18.84 22.07 19.64L22.12 19.69L22.01 24.72L22.04 24.75Q23.29 24.86 25.50 24.60L25.32 24.41L25.36 24.45Q25.29 24.84 25.25 25.68L25.28 25.71L25.42 25.85Q25.43 26.66 25.43 27.12L25.29 26.97L23.65 27.01L23.83 27.19Q22.96 27.20 22.09 27.20L22.02 27.13L22.07 27.18Q22.02 31.32 21.94 39.69L21.90 39.65L21.90 39.65Q19.75 39.79 18.27 40.47L18.22 40.43L18.29 40.49Q19.41 34.39 19.30 27.15L19.32 27.18L19.15 27.01Q18.67 27.13 17.38 26.86L17.23 26.72L17.20 26.69Q17.36 25.86 17.17 23.92L17.17 23.92L17.07 23.81Q18.26 24.39 19.21 24.58L19.11 24.48L19.24 24.62Q19.16 23.93 18.86 21.45L18.74 21.33L18.91 21.50Q18.50 19.27 18.50 18.32L18.57 18.39L18.54 18.36Q18.51 16.66 19.92 16.08L20.10 16.27L19.98 16.15Q20.83 15.81 25.66 14.98L25.64 14.95L25.60 14.91Q26.55 14.91 27.39 14.79L27.29 14.70L27.28 14.69Q27.03 15.43 26.88 16.31L26.96 16.39L26.66 17.95L26.70 17.99Q25.89 17.68 25.39 17.79L25.53 17.92L25.50 17.90Q24.87 17.88 22.97 18.49ZM28.33 19.55L28.40 19.62L28.45 19.67Q28.78 17.45 29.39 14.90L29.23 14.74L29.31 14.81Q28.65 15.11 27.35 15.71L27.43 15.79L27.86 14.13L27.84 14.11Q26.60 14.27 24.12 14.80L24.13 14.81L24.10 14.78Q22.89 14.83 19.69 15.74L19.80 15.86L19.68 15.73Q18.26 16.29 18.26 18.16L18.24 18.14L18.17 18.06Q18.20 18.40 18.27 18.74L18.24 18.70L18.25 18.71Q18.39 19.96 18.50 21.29L18.56 21.35L18.85 24.12L18.73 23.99Q17.46 23.71 16.81 23.25L16.67 23.12L16.76 23.20Q16.85 24.13 16.88 25.15L16.94 25.22L17.07 27.20L17.12 27.25Q17.82 27.43 18.62 27.50L18.60 27.48L18.60 29.58L18.86 29.45L18.95 29.54Q18.83 35.66 17.84 41.11L17.87 41.14L17.85 41.12Q18.89 40.68 20.07 40.41L20.07 40.41L19.77 42.35L19.81 42.39Q21.03 42.10 22.33 42.06L22.37 42.10L22.41 42.14Q23.52 42.00 24.78 42.26L24.75 42.24L24.80 42.28Q23.94 37.27 23.94 29.31L23.90 29.28L23.98 29.36Q25.03 29.30 27.12 29.38L27.27 29.52L27.22 27.61L27.25 27.64Q27.27 26.70 27.30 25.75L27.25 25.70L27.29 25.74Q26.78 25.80 25.71 26.07L25.62 25.97L25.63 25.99Q25.78 25.44 25.89 24.11L25.78 24.00L25.87 24.09Q25.01 24.29 24.21 24.37L24.23 24.39L24.08 24.24Q24.10 22.86 24.22 21.45L24.25 21.48L24.29 21.52Q24.50 20.93 25.03 20.59L24.87 20.43L24.88 20.44Q25.92 19.84 26.74 19.77L26.82 19.84L26.67 19.70Q27.60 19.73 28.44 19.65Z"/><path fill="#333" d="M95.16 29.94L95.18 29.97L95.14 29.92Q94.77 29.78 94.47 29.78L94.60 29.92L94.45 29.76Q93.21 29.86 91.76 30.69L91.83 30.77L91.75 30.69Q90.35 31.73 90.35 33.63L90.34 33.61L90.47 33.75Q90.50 37.20 92.02 38.53L91.96 38.47L91.85 38.36Q92.85 39.59 95.14 39.59L95.10 39.55L95.19 39.64Q95.46 39.68 95.76 39.68L95.69 39.61L95.74 39.66Q97.51 39.72 98.65 38.08L98.66 38.09L98.67 38.10Q99.53 36.41 99.46 34.62L99.64 34.80L99.48 34.65Q99.58 34.22 99.58 33.80L99.54 33.75L99.55 33.77Q99.59 32.02 98.22 30.86L98.20 30.84L98.21 30.84Q96.79 29.64 95.00 29.79ZM99.50 39.96L99.49 39.95L99.60 40.05Q98.62 42.01 94.89 42.12L94.90 42.13L94.82 42.05Q91.36 42.10 89.76 40.50L89.90 40.64L89.86 40.60Q88.41 38.84 87.61 34.05L87.56 33.99L87.60 34.04Q87.35 32.33 87.35 31.08L87.27 31.00L87.18 30.92Q87.24 29.18 87.96 28.12L87.99 28.14L88.02 28.17Q89.29 26.70 92.26 26.70L92.29 26.73L92.36 26.81Q98.65 26.78 100.56 29.37L100.65 29.45L100.65 29.46Q100.71 28.53 101.13 26.93L101.26 27.06L101.24 27.04Q102.38 26.62 104.81 25.82L104.90 25.91L104.87 25.88Q102.39 31.46 102.16 37.78L102.18 37.80L102.24 37.86Q101.97 43.99 104.10 49.81L104.17 49.88L104.14 49.85Q102.48 49.29 100.69 49.02L100.51 48.85L100.65 48.99Q99.75 45.04 99.63 40.09ZM100.33 49.24L100.27 49.18L100.28 49.18Q101.06 49.40 102.47 49.70L102.55 49.78L102.43 49.66Q102.72 50.45 103.29 51.86L103.19 51.75L103.33 51.89Q105.95 52.65 108.23 53.94L108.19 53.90L108.22 53.93Q104.16 47.32 104.16 38.79L104.07 38.70L104.20 38.83Q104.15 32.42 106.62 26.64L106.66 26.67L106.61 26.63Q105.81 26.82 104.44 27.46L104.58 27.60L104.50 27.52Q104.86 26.77 105.50 25.21L105.41 25.12L105.39 25.10Q103.91 25.72 100.72 26.59L100.76 26.63L100.86 26.74Q100.63 27.19 100.32 28.37L100.30 28.34L100.37 28.41Q98.27 26.43 92.14 26.28L92.11 26.25L92.25 26.39Q88.98 26.24 87.61 27.72L87.55 27.67L87.68 27.79Q86.77 28.79 86.81 30.69L86.96 30.85L86.94 30.82Q86.97 33.74 87.96 37.51L87.95 37.51L88.07 37.63Q88.66 39.96 89.57 40.91L89.65 40.99L89.96 41.31L89.96 41.30Q91.22 44.16 96.66 44.39L96.48 44.21L96.57 44.30Q97.52 44.26 99.35 43.96L99.44 44.04L99.36 43.96Q99.71 46.94 100.32 49.22ZM97.02 32.22L96.98 32.19L96.86 32.06Q98.01 32.15 98.85 32.45L98.88 32.48L98.82 32.43Q99.06 33.01 99.18 33.62L99.16 33.60L99.20 33.64Q99.26 34.16 99.19 34.77L99.21 34.80L99.25 34.84Q99.22 36.71 98.19 38.00L98.15 37.96L98.16 37.97Q97.12 39.52 95.25 39.32L95.15 39.22L95.13 39.20Q93.93 39.29 92.97 38.87L92.91 38.81L92.90 38.80Q92.52 37.97 92.52 36.75L92.59 36.82L92.62 36.85Q92.62 36.54 92.62 36.24L92.53 36.15L92.52 36.14Q92.52 34.38 93.85 33.22L93.92 33.29L93.79 33.16Q95.19 32.06 96.94 32.14Z"/></svg>