<svg xmlns="http://www.w3.org/2000/svg" width="150" height="50" viewBox="0,0,150,50"><path fill="#333" d="M23.72 29.92L23.71 29.91L23.79 29.99Q21.10 29.69 19.76 30.91L19.89 31.04L19.88 31.02Q18.55 32.25 18.86 34.76L18.88 34.79L18.79 34.69Q19.13 37.24 20.35 38.50L20.38 38.53L20.33 38.48Q21.51 39.93 23.64 39.85L23.52 39.72L23.57 39.78Q24.05 39.68 24.24 39.68L24.22 39.67L24.25 39.70Q27.92 39.22 28.03 34.61L27.92 34.49L27.92 34.50Q28.02 32.16 27.34 31.36L27.24 31.27L27.37 31.40Q26.20 30.00 23.65 29.85ZM27.00 41.61L27.11 41.72L26.95 41.56Q25.61 42.12 24.05 42.05L24.04 42.04L24.15 42.15Q20.30 42.33 19.00 39.74L19.08 39.82L19.00 39.74Q18.86 45.12 17.53 49.38L17.50 49.35L17.58 49.44Q15.77 49.90 14.13 50.63L13.99 50.49L14.11 50.61Q16.58 44.55 16.31 37.58L16.42 37.69L16.32 37.59Q16.17 30.86 13.28 24.80L13.27 24.79L13.25 24.78Q15.19 25.95 16.90 26.41L16.85 26.36L17.45 27.91L17.48 27.94Q17.42 28.11 17.69 29.21L17.82 29.35L17.83 29.35Q18.85 27.29 22.43 27.10L22.43 27.10L22.42 27.10Q23.22 26.98 24.09 26.98L24.09 26.97L24.69 27.07L24.70 27.09Q24.67 26.94 24.86 26.98L24.90 27.03L25.23 27.05L25.19 27.00Q27.33 27.36 28.05 27.59L28.04 27.58L28.13 27.67Q29.49 27.99 30.36 28.94L30.37 28.95L30.50 29.08Q31.21 30.14 31.17 31.54L31.30 31.67L31.23 31.60Q31.30 34.53 30.50 37.19L30.41 37.10L30.32 37.02Q29.35 40.57 26.99 41.59ZM31.38 42.34L31.20 42.12L31.33 42.24Q32.44 40.27 32.74 36.16L32.78 36.20L32.79 36.21Q32.78 34.29 32.78 33.04L32.84 33.10L32.92 33.18Q32.91 31.64 32.14 30.23L32.17 30.26L32.15 30.23Q31.68 29.73 31.19 29.35L31.12 29.28L31.00 29.05L30.92 28.85L30.85 28.67L30.76 28.58Q29.14 26.66 24.80 26.66L24.69 26.54L24.23 26.69L24.06 26.53Q19.40 26.51 17.76 28.11L17.87 28.21L17.93 28.28Q17.65 27.65 17.50 27.16L17.45 27.11L17.33 26.19L17.20 26.06Q14.68 25.40 12.47 23.92L12.50 23.95L12.55 24.00Q15.87 30.36 16.17 37.59L16.00 37.43L16.07 37.49Q16.42 44.81 13.56 51.28L13.56 51.28L15.61 50.47L15.50 50.36Q15.27 51.13 14.59 52.69L14.61 52.71L14.51 52.61Q17.34 51.67 19.66 51.32L19.67 51.33L19.60 51.27Q20.62 46.35 20.77 42.62L20.79 42.63L20.81 42.65Q22.23 44.15 25.85 44.38L25.80 44.33L25.84 44.37Q29.82 44.66 31.27 42.22L31.28 42.23ZM25.61 32.15L25.64 32.18L25.70 32.24Q26.28 32.10 27.39 32.44L27.29 32.34L27.29 32.35Q27.54 33.32 27.50 34.50L27.56 34.55L27.50 34.50Q27.54 35.45 27.35 36.09L27.34 36.08L27.43 36.17Q26.66 39.02 24.15 39.33L24.18 39.36L24.21 39.28L24.26 39.32Q24.28 39.43 24.17 39.46L24.16 39.45L23.61 39.44L23.52 39.35Q22.40 39.41 21.41 38.91L21.46 38.96L21.03 36.82L21.00 36.79Q20.92 34.54 22.22 33.52L22.28 33.58L22.11 33.41Q23.22 32.42 25.61 32.15Z"/><path fill="#222" d="M49.35 39.85L49.35 39.84L49.26 39.76Q47.48 39.88 45.47 40.07L45.34 39.95L45.43 40.04Q46.02 34.72 46.02 29.89L45.95 29.82L46.14 30.01Q46.04 25.00 45.39 19.78L45.41 19.80L45.37 19.77Q40.77 19.35 37.57 17.68L37.73 17.83L36.93 16.00L36.81 15.88Q36.65 15.42 36.04 14.20L36.10 14.26L36.10 14.26Q41.09 16.85 47.11 17.05L47.27 17.20L47.10 17.04Q53.06 17.28 58.50 15.23L58.47 15.20L58.42 15.15Q57.82 16.68 57.17 18.50L57.19 18.52L57.08 18.41Q53.53 19.77 49.27 19.96L49.25 19.95L49.29 19.99Q49.09 25.01 49.09 29.96L49.05 29.92L49.03 29.89Q48.96 34.77 49.27 39.76ZM59.15 14.51L59.12 14.47L59.21 14.57Q53.37 16.84 47.17 16.65L47.19 16.67L47.20 16.68Q40.41 16.36 35.31 13.39L35.43 13.52L35.31 13.39Q36.22 14.83 37.51 18.11L37.49 18.09L37.50 18.10Q38.06 18.31 39.32 18.88L39.32 18.89L39.27 18.84Q39.56 19.58 39.90 21.10L40.04 21.24L40.03 21.24Q42.27 22.03 45.32 22.26L45.19 22.13L45.36 22.30Q45.70 25.96 45.70 29.73L45.57 29.59L45.62 29.65Q45.62 35.01 44.82 40.38L44.93 40.48L44.78 40.34Q46.60 40.37 47.13 40.37L47.10 40.34L47.16 40.40Q47.08 40.62 47.02 41.28L47.02 41.29L47.10 41.37Q47.00 41.99 47.00 42.33L46.99 42.32L47.01 42.34Q48.17 42.24 49.69 42.31L49.57 42.20L49.66 42.28Q50.51 42.26 52.33 42.41L52.40 42.47L52.38 42.45Q51.10 37.49 50.99 32.31L51.13 32.45L51.16 32.48Q50.83 26.98 51.37 22.07L51.49 22.19L51.40 22.10Q55.47 21.68 58.63 20.46L58.60 20.43L58.66 20.49Q59.28 18.02 60.31 15.97L60.22 15.88L60.31 15.97Q58.92 16.60 58.12 16.91L58.23 17.02L58.19 16.97Q58.60 15.67 59.17 14.53Z"/><path fill="#333" d="M70.79 29.69L70.85 29.74L70.91 29.81Q66.71 29.60 66.14 32.65L65.97 32.49L66.07 32.58Q65.94 33.71 66.13 34.58L66.13 34.58L66.10 34.55Q66.12 35.33 66.57 36.74L66.49 36.66L66.54 36.71Q67.64 39.90 70.95 39.75L70.90 39.70L70.91 39.71Q73.03 39.88 74.36 38.32L74.20 38.16L74.27 38.23Q75.42 36.68 75.42 34.62L75.53 34.74L75.54 34.74Q75.75 34.23 75.59 33.16L75.56 33.13L75.46 33.03Q75.40 32.13 74.98 31.44L74.92 31.38L74.97 31.43Q73.45 29.88 70.86 29.76ZM75.79 48.32L75.60 48.13L75.64 48.17Q73.88 48.81 65.81 49.19L65.75 49.13L65.74 49.12Q64.03 49.16 62.39 48.32L62.50 48.43L62.49 48.42Q63.19 47.33 65.01 45.54L65.12 45.65L65.16 45.68Q67.60 46.75 69.69 46.56L69.51 46.38L69.54 46.41Q72.56 46.26 73.39 46.00L73.36 45.97L73.24 45.85Q75.53 45.20 75.53 43.42L75.64 43.52L75.56 43.45Q75.49 43.14 75.41 42.92L75.48 42.98L75.37 41.39L75.50 41.51Q75.29 40.55 75.29 39.75L75.31 39.77L75.48 39.94Q74.08 42.15 70.69 42.15L70.57 42.04L70.65 42.11Q66.73 42.07 65.09 39.87L65.10 39.88L65.02 39.79Q64.07 38.43 63.27 34.01L63.19 33.93L63.13 33.87Q62.92 32.44 62.92 31.03L62.89 31.00L62.92 31.03Q62.92 29.25 63.84 28.26L63.88 28.30L63.91 28.33Q65.57 26.91 70.21 26.91L70.18 26.87L71.97 27.10L71.91 27.04Q75.14 27.41 76.47 29.36L76.46 29.35L76.51 29.39Q76.55 28.40 76.97 26.77L77.12 26.92L77.10 26.90Q78.95 26.54 80.70 25.82L80.70 25.82L80.58 25.70Q77.86 31.73 77.86 38.97L77.96 39.07L77.92 39.03Q77.88 41.65 78.26 44.28L78.38 44.40L78.38 44.39Q78.58 45.09 78.50 45.78L78.42 45.69L78.44 45.71Q78.23 47.07 77.02 47.83L76.94 47.75L76.99 47.81Q76.47 48.04 75.63 48.16ZM78.76 51.25L78.62 51.11L78.62 51.11Q80.20 51.28 80.96 50.33L80.82 50.19L80.90 50.27Q81.17 49.25 81.06 48.53L81.17 48.63L81.17 48.63Q81.00 47.93 80.81 47.17L80.81 47.18L80.86 47.22Q79.63 41.99 79.97 36.74L80.02 36.79L80.01 36.78Q80.22 31.20 82.35 26.37L82.45 26.46L80.37 27.43L80.33 27.39Q80.66 26.88 80.89 26.31L80.79 26.21L81.32 25.11L81.20 24.98Q78.99 26.09 76.78 26.51L76.79 26.51L76.63 26.36Q76.49 27.40 76.34 28.42L76.32 28.41L76.23 28.32Q74.20 26.47 70.16 26.47L70.07 26.38L68.38 26.44L68.26 26.32Q65.10 26.40 63.43 27.81L63.44 27.82L63.49 27.88Q62.51 28.79 62.55 30.70L62.54 30.69L62.50 30.65Q62.63 33.22 63.66 37.48L63.72 37.54L63.59 37.41Q64.06 39.33 65.28 40.74L65.36 40.82L65.53 40.99L65.62 41.08L65.71 41.17Q66.89 43.53 69.48 44.06L69.40 43.98L69.38 43.97Q70.76 44.24 72.21 44.28L72.22 44.29L72.30 44.37Q74.07 44.43 75.14 44.05L75.06 43.97L75.07 43.99Q74.44 45.53 71.78 45.87L71.77 45.86L71.79 45.88Q70.72 46.03 70.04 46.03L69.99 45.98L69.58 45.95L69.70 46.07Q66.90 46.09 65.23 45.14L65.17 45.08L63.56 46.90L63.51 46.85Q62.56 47.57 61.72 48.52L61.79 48.60L61.82 48.63Q62.83 49.18 63.82 49.37L63.87 49.42L62.90 50.20L62.92 50.22Q65.68 51.34 71.31 51.34L71.15 51.18L71.48 51.28L71.49 51.28Q75.09 51.28 78.67 51.16ZM72.69 32.01L72.71 32.02L72.81 32.13Q73.95 31.90 74.86 32.32L74.90 32.35L74.89 32.35Q75.09 32.84 75.16 33.53L75.16 33.53L75.26 33.62Q75.22 33.86 75.19 34.77L75.15 34.73L75.17 34.75Q75.22 36.78 74.11 38.08L73.94 37.90L74.05 38.01Q72.77 39.32 70.86 39.28L70.93 39.35L71.00 39.42Q69.47 39.26 68.63 38.84L68.56 38.76L68.58 38.78Q68.21 37.66 68.18 36.63L68.13 36.59L68.18 36.64Q68.17 32.40 72.78 32.09Z"/><path fill="#333" d="M87.52 38.90L87.60 38.99L87.50 38.88Q89.37 36.49 94.13 29.21L94.21 29.30L94.24 29.33Q98.21 23.06 101.06 19.78L101.03 19.75L101.10 19.82Q98.95 20.07 96.85 20.07L96.92 20.13L96.86 20.07Q91.59 20.05 87.59 18.26L87.57 18.25L87.71 18.39Q86.96 16.38 86.28 14.82L86.28 14.82L86.38 14.92Q90.92 17.06 96.59 17.18L96.55 17.13L96.53 17.12Q101.66 17.18 106.84 15.28L106.77 15.21L106.89 15.33Q106.40 16.06 106.09 16.86L106.22 16.98L105.64 18.58L105.63 18.56Q102.48 22.12 98.49 27.94L98.55 28.00L95.26 32.86L95.25 32.85Q93.61 35.32 91.78 37.61L91.60 37.43L91.70 37.53Q95.07 36.97 98.38 37.05L98.27 36.94L98.40 37.07Q101.69 37.12 104.85 38.03L104.92 38.11L105.39 39.68L105.26 39.55Q105.59 40.45 105.93 41.29L105.82 41.18L105.84 41.20Q101.19 39.63 96.05 39.82L96.05 39.82L96.04 39.81Q90.89 39.99 86.39 42.00L86.52 42.13L86.49 42.10Q86.77 40.93 87.49 38.88ZM85.90 42.80L85.89 42.80L85.83 42.73Q87.08 42.15 87.88 41.89L87.84 41.85L87.84 41.85Q87.59 42.63 86.90 44.15L87.02 44.26L86.94 44.18Q92.60 42.00 98.57 42.23L98.66 42.32L98.69 42.34Q105.01 42.57 110.03 45.35L110.01 45.33L109.97 45.29Q108.58 42.91 107.78 40.74L107.82 40.78L107.78 40.73Q107.34 40.56 105.82 39.99L105.76 39.94L105.70 39.87Q105.57 39.17 105.15 37.69L105.05 37.59L105.08 37.62Q100.99 36.50 95.89 36.69L95.83 36.63L95.86 36.66Q98.07 34.00 101.61 28.44L101.48 28.30L101.52 28.35Q105.12 22.59 107.03 20.04L107.20 20.20L107.18 20.19Q107.55 18.65 108.57 15.95L108.66 16.04L108.64 16.01Q107.87 16.27 106.42 16.88L106.60 17.06L106.44 16.90Q106.78 16.10 107.51 14.58L107.55 14.63L107.58 14.65Q102.27 16.81 96.56 16.73L96.58 16.74L96.46 16.62Q90.63 16.66 85.68 14.15L85.52 13.98L85.58 14.05Q86.69 16.37 87.41 18.62L87.40 18.61L87.49 18.70Q88.67 19.30 89.46 19.53L89.38 19.44L89.46 19.52Q89.64 20.12 89.91 21.57L89.84 21.50L90.01 21.67Q93.68 22.68 98.55 22.48L98.45 22.39L98.51 22.45Q96.02 25.56 92.71 30.54L92.88 30.71L87.23 38.91L87.30 38.99Q86.97 40.29 85.94 42.84Z"/><path fill="#444" d="M126.95 28.60L126.99 28.64L121.05 28.68L121.14 28.76Q118.15 28.74 115.22 28.66L115.18 28.63L115.21 28.66Q115.40 35.43 113.34 40.95L113.44 41.05L113.44 41.05Q111.53 41.47 109.78 42.15L109.78 42.15L109.79 42.16Q112.61 36.49 112.61 29.83L112.50 29.72L112.54 29.76Q112.56 21.29 108.45 14.25L108.48 14.27L108.35 14.15Q109.96 15.03 112.44 15.83L112.34 15.74L112.41 15.81Q114.64 20.97 115.17 25.84L115.05 25.72L115.12 25.79Q118.23 26.12 121.09 26.09L121.14 26.14L121.20 26.20Q123.80 26.13 127.11 25.86L127.03 25.79L127.16 25.91Q127.55 21.43 129.30 16.33L129.41 16.44L129.35 16.38Q131.22 15.89 133.47 15.05L133.48 15.07L133.55 15.13Q129.93 21.87 129.93 29.83L129.84 29.74L129.99 29.88Q129.94 36.05 132.31 41.38L132.22 41.29L132.31 41.38Q130.67 40.74 128.62 40.43L128.67 40.48L128.56 40.37Q126.94 35.40 127.06 28.70ZM128.33 40.75L128.34 40.76L128.29 40.71Q129.30 40.85 130.41 41.12L130.53 41.24L130.49 41.20Q130.72 41.81 131.37 43.30L131.48 43.41L131.52 43.45Q134.83 44.35 136.62 45.27L136.65 45.31L136.56 45.21Q132.05 38.99 131.75 30.73L131.82 30.80L131.87 30.85Q131.55 22.80 135.20 15.99L135.24 16.03L134.20 16.51L134.14 16.45Q133.70 16.74 133.10 16.89L133.00 16.79L133.07 16.86Q133.54 16.11 134.38 14.55L134.38 14.55L134.30 14.48Q131.57 15.44 128.95 15.94L129.05 16.04L128.94 15.93Q127.33 20.83 126.87 25.51L126.87 25.51L126.85 25.49Q124.46 25.80 122.02 25.80L121.99 25.77L121.84 25.62Q119.50 25.68 116.99 25.53L117.11 25.65L116.96 25.50Q116.88 22.37 115.78 18.30L115.74 18.27L115.64 18.16Q114.95 18.05 113.51 17.67L113.54 17.70L113.50 17.66Q113.17 16.49 112.71 15.46L112.71 15.46L112.76 15.52Q110.07 14.80 107.78 13.54L107.71 13.47L107.65 13.41Q112.26 20.87 112.26 29.67L112.26 29.67L112.18 29.59Q112.21 36.58 109.09 42.71L109.22 42.85L109.10 42.73Q109.87 42.51 111.20 41.94L111.22 41.96L111.26 41.99Q110.94 42.85 110.14 44.37L110.13 44.37L110.05 44.28Q112.91 43.34 115.16 42.92L115.22 42.98L115.05 42.81Q117.03 37.37 117.22 31.20L117.13 31.12L117.21 31.20Q118.70 31.01 121.90 30.97L121.95 31.02L122.07 31.14Q124.83 31.01 126.73 31.09L126.73 31.08L126.75 31.10Q127.06 36.89 128.39 40.81Z"/></svg>