<svg xmlns="http://www.w3.org/2000/svg" width="150" height="50" viewBox="0,0,150,50"><path fill="#222" d="M128.97 40.31L129.01 40.35L128.99 40.33Q126.03 36.46 123.41 27.82L123.41 27.82L123.39 27.80Q122.68 25.60 121.88 23.47L122.03 23.62L119.17 32.41L119.17 32.41Q117.26 37.24 114.86 40.48L114.95 40.56L114.91 40.52Q114.02 40.55 112.39 40.70L112.34 40.66L112.32 40.63Q112.53 39.56 112.53 38.30L112.45 38.22L112.60 38.37Q112.44 32.19 109.70 26.06L109.88 26.24L109.83 26.20Q106.66 19.25 100.79 14.26L100.75 14.22L100.78 14.25Q102.95 14.97 105.31 15.51L105.29 15.49L105.27 15.46Q113.91 23.88 115.20 34.84L115.36 34.99L115.31 34.95Q116.86 31.55 118.31 26.18L118.39 26.26L118.36 26.23Q120.30 18.69 120.80 17.28L120.82 17.31L123.08 17.32L123.07 17.32Q123.80 19.37 124.45 21.70L124.39 21.64L125.75 26.20L125.63 26.07Q127.16 31.49 128.57 34.73L128.56 34.72L128.65 34.80Q130.25 23.12 138.17 15.78L138.31 15.91L138.20 15.81Q139.73 15.47 142.70 14.82L142.63 14.75L142.73 14.86Q137.33 19.09 134.29 25.22L134.34 25.27L134.36 25.29Q131.24 31.50 131.24 38.27L131.16 38.19L131.30 38.34Q131.24 39.38 131.32 40.52L131.40 40.61L130.28 40.51L130.17 40.40Q129.66 40.43 129.09 40.43ZM135.30 43.29L135.33 43.32L135.33 43.32Q134.08 39.74 134.19 35.86L134.18 35.84L134.16 35.82Q134.48 24.27 143.84 16.01L143.86 16.02L143.84 16.00Q142.97 16.32 141.03 16.85L141.02 16.83L141.04 16.86Q141.87 15.90 143.77 14.11L143.87 14.20L143.84 14.17Q141.06 14.82 138.13 15.32L138.18 15.37L138.13 15.32Q130.65 22.45 128.74 31.93L128.80 31.99L128.85 32.04Q128.15 30.28 125.30 18.82L125.38 18.90L125.33 18.85Q125.03 19.05 124.08 19.05L124.02 18.98L123.72 17.93L123.80 18.00Q123.51 17.29 123.28 16.80L123.32 16.84L120.57 16.98L120.43 16.84Q119.60 19.29 118.32 24.41L118.39 24.48L118.31 24.39Q117.01 29.49 116.02 31.97L116.14 32.09L116.03 31.98Q114.49 24.12 108.93 17.80L109.04 17.91L108.90 17.77Q108.49 17.77 107.54 17.58L107.56 17.60L107.63 17.68Q106.76 16.68 105.19 15.05L105.29 15.14L105.18 15.03Q101.96 14.40 99.79 13.60L99.69 13.50L99.79 13.60Q105.46 18.28 108.74 24.49L108.69 24.45L108.70 24.45Q112.20 31.11 112.20 38.12L112.16 38.08L112.01 37.93Q112.02 39.50 111.83 41.10L111.82 41.09L112.01 41.27Q112.14 41.18 112.60 41.09L112.52 41.01L112.62 41.11Q113.05 40.99 113.28 40.99L113.20 40.91L113.32 42.05L113.21 41.95Q113.27 42.46 113.34 42.99L113.33 42.97L113.44 43.08Q114.53 42.96 116.81 42.80L116.73 42.73L116.78 42.78Q120.39 37.36 123.13 27.96L123.07 27.89L123.23 28.06Q126.02 36.86 128.99 40.82L128.89 40.72L128.93 40.76Q129.42 40.79 130.25 40.90L130.18 40.83L130.20 40.85Q131.14 41.99 132.21 43.05L132.21 43.05L132.12 42.96Q132.83 42.95 135.23 43.22Z"/><path fill="#444" d="M30.38 40.39L30.32 40.32L30.41 40.41Q27.46 36.55 24.83 27.91L24.87 27.94L24.84 27.91Q24.19 25.78 23.39 23.64L23.23 23.49L20.45 32.36L20.35 32.26Q18.56 37.20 16.16 40.44L16.22 40.50L16.26 40.54Q15.42 40.61 13.78 40.76L13.71 40.70L13.75 40.73Q13.86 39.55 13.86 38.29L13.77 38.20L13.77 38.20Q13.77 32.19 11.03 26.06L11.04 26.07L11.10 26.13Q8.01 19.27 2.15 14.28L2.21 14.34L2.22 14.36Q4.30 14.99 6.66 15.52L6.66 15.52L6.55 15.41Q15.39 24.02 16.68 34.98L16.59 34.89L16.55 34.85Q18.27 31.62 19.71 26.25L19.66 26.20L19.58 26.12Q21.73 18.79 22.22 17.38L22.09 17.24L24.34 17.25L24.36 17.27Q25.11 19.35 25.76 21.68L25.77 21.69L26.99 26.11L26.96 26.07Q28.48 31.48 29.89 34.72L30.04 34.87L30.01 34.84Q31.57 23.11 39.49 15.76L39.50 15.77L39.51 15.78Q41.09 15.49 44.06 14.85L43.97 14.76L43.96 14.75Q38.78 19.20 35.74 25.33L35.67 25.26L35.71 25.31Q32.62 31.54 32.62 38.32L32.63 38.33L32.58 38.29Q32.53 39.34 32.61 40.48L32.67 40.54L31.43 40.33L31.42 40.32Q31.01 40.44 30.43 40.44ZM36.62 43.27L36.72 43.37L36.52 43.18Q35.42 39.75 35.53 35.87L35.50 35.83L35.47 35.81Q35.89 24.35 45.26 16.09L45.25 16.08L45.15 15.98Q44.33 16.34 42.39 16.87L42.27 16.76L42.23 16.71Q43.16 15.85 45.06 14.06L45.13 14.14L45.14 14.15Q42.51 14.94 39.58 15.44L39.59 15.45L39.56 15.42Q31.97 22.44 30.07 31.92L30.05 31.91L30.20 32.06Q29.61 30.40 26.75 18.94L26.72 18.91L26.73 18.92Q26.30 18.98 25.34 18.98L25.37 19.00L25.13 18.00L25.12 17.99Q24.84 17.29 24.61 16.79L24.73 16.92L21.82 16.90L21.74 16.82Q20.96 19.32 19.69 24.44L19.66 24.41L19.61 24.36Q18.34 29.48 17.35 31.96L17.48 32.09L17.51 32.12Q15.92 24.21 10.36 17.89L10.38 17.91L10.30 17.83Q9.88 17.82 8.93 17.63L8.96 17.67L8.83 17.54Q8.06 16.65 6.49 15.01L6.54 15.06L6.58 15.10Q3.15 14.26 0.98 13.46L0.94 13.41L1.03 13.51Q6.66 18.15 9.94 24.36L9.94 24.36L10.06 24.48Q13.37 30.95 13.37 37.95L13.41 37.99L13.35 37.93Q13.45 39.60 13.26 41.20L13.28 41.21L13.34 41.28Q13.46 41.16 13.92 41.07L13.90 41.06L13.94 41.09Q14.46 41.06 14.69 41.06L14.62 40.99L14.52 41.92L14.58 41.98Q14.60 42.46 14.68 42.99L14.72 43.03L14.65 42.96Q15.81 42.91 18.10 42.76L18.21 42.87L18.21 42.87Q21.64 37.28 24.38 27.87L24.48 27.97L24.50 27.99Q27.26 36.77 30.23 40.73L30.28 40.78L30.16 40.66Q30.72 40.76 31.56 40.87L31.65 40.97L31.53 40.85Q32.44 41.95 33.51 43.02L33.46 42.97L33.55 43.06Q34.13 42.91 36.53 43.18Z"/><path fill="#111" d="M94.99 27.58L95.04 27.64L95.08 27.67Q92.92 27.76 91.65 29.27L91.46 29.09L91.57 29.19Q90.21 30.61 90.10 32.90L90.16 32.96L90.21 33.00Q89.98 35.56 90.82 36.51L90.92 36.61L90.78 36.47Q92.06 37.90 94.38 37.75L94.29 37.66L94.22 37.59Q98.97 37.39 99.36 34.39L99.24 34.27L99.32 34.35Q99.38 33.50 99.38 32.70L99.43 32.75L99.35 32.67Q99.37 30.71 98.23 29.19L98.19 29.15L98.22 29.18Q96.90 27.52 94.96 27.56ZM99.79 37.64L99.90 37.75L99.85 37.70Q98.48 39.95 94.11 40.18L93.98 40.05L94.09 40.16Q89.82 40.23 88.18 39.13L88.28 39.23L88.15 39.10Q87.29 38.27 87.14 36.56L87.11 36.53L87.13 36.55Q87.13 35.49 87.32 33.62L87.22 33.52L87.24 33.54Q87.81 29.32 89.03 27.49L89.04 27.49L89.07 27.53Q90.64 24.98 94.48 25.02L94.55 25.09L94.40 24.94Q96.91 24.97 99.19 27.29L99.32 27.42L99.35 27.46Q99.45 21.62 101.05 15.11L101.06 15.11L100.91 14.97Q102.94 14.67 104.80 13.83L104.79 13.82L104.71 13.74Q102.02 20.26 101.75 27.27L101.82 27.34L101.84 27.36Q101.51 34.49 103.64 41.07L103.77 41.20L103.61 41.04Q102.00 40.46 100.29 40.08L100.45 40.24L100.42 40.21Q99.93 38.73 99.77 37.62ZM102.86 43.14L102.94 43.22L102.90 43.18Q104.97 43.73 107.52 45.25L107.64 45.37L107.64 45.38Q103.90 38.28 103.75 29.98L103.70 29.94L103.68 29.92Q103.50 21.66 106.58 14.28L106.65 14.35L106.59 14.29Q105.99 14.83 104.55 15.48L104.48 15.41L104.46 15.40Q104.81 14.26 105.42 13.04L105.39 13.01L105.43 13.05Q103.10 14.18 100.66 14.75L100.71 14.80L100.59 14.68Q99.12 20.44 98.85 26.53L98.90 26.59L98.97 26.66Q97.01 24.77 94.50 24.66L94.55 24.71L94.51 24.67Q90.97 24.44 89.06 26.53L89.06 26.53L89.19 26.66Q87.37 28.91 86.95 33.60L87.07 33.72L87.04 33.69Q86.81 36.46 86.81 36.88L86.76 36.83L86.79 36.86Q86.75 38.49 87.89 39.56L87.93 39.60L87.86 39.53Q88.10 39.76 88.29 39.84L88.47 40.02L88.85 40.60L88.90 40.64Q89.86 41.98 92.83 42.25L92.83 42.25L92.72 42.14Q94.96 42.33 96.33 42.40L96.33 42.41L96.27 42.34Q100.57 42.65 102.29 41.32L102.35 41.38L102.21 41.24Q102.50 42.10 102.95 43.24ZM96.64 29.92L96.56 29.84L96.59 29.88Q97.62 29.88 98.46 30.37L98.60 30.51L98.55 30.46Q98.99 31.70 99.07 32.73L99.05 32.71L99.03 32.69Q99.40 36.98 94.37 37.32L94.36 37.31L94.26 37.21Q93.51 37.38 92.41 37.11L92.31 37.01L92.33 37.03Q92.14 36.46 92.06 35.92L92.00 35.86L92.01 35.88Q92.12 35.38 92.16 34.77L92.05 34.66L92.11 34.72Q92.43 31.31 95.06 30.32L95.07 30.33L95.07 30.33Q95.99 29.92 96.67 29.95Z"/><path fill="#333" d="M67.13 32.92L67.13 32.92L67.14 32.93Q70.17 32.49 73.36 32.60L73.41 32.65L73.51 32.75Q73.51 30.24 73.51 27.84L73.49 27.83L73.43 27.77Q73.45 25.31 73.64 22.76L73.52 22.63L73.57 22.68Q72.44 24.49 67.22 33.01ZM77.00 40.24L77.06 40.30L77.06 40.30Q75.48 40.09 73.69 40.01L73.58 39.91L73.60 39.92Q73.33 37.49 73.22 35.01L73.27 35.06L73.31 35.10Q67.91 34.84 63.18 36.25L63.20 36.27L63.27 36.33Q63.46 35.91 63.65 34.92L63.50 34.77L63.46 34.73Q65.42 31.74 69.00 25.46L68.90 25.37L68.92 25.38Q71.78 20.47 75.20 16.59L75.26 16.65L75.19 16.58Q76.02 16.34 77.70 16.08L77.79 16.17L77.78 16.16Q75.83 22.54 75.83 29.59L75.84 29.60L75.85 29.61Q75.96 31.20 76.03 32.69L76.02 32.67L77.35 32.83L77.27 32.74Q77.96 32.86 78.57 32.97L78.47 32.88L78.48 32.88Q78.59 33.87 78.85 35.81L78.80 35.76L78.78 35.74Q77.71 35.62 76.22 35.43L76.19 35.40L76.05 35.26Q76.42 37.41 77.10 40.34ZM78.71 32.47L78.66 32.42L78.69 32.45Q78.58 32.45 78.38 32.45L78.42 32.48L78.02 32.47L77.94 32.38Q77.92 31.00 77.92 29.59L77.80 29.47L77.86 29.53Q77.85 23.12 79.90 17.10L79.82 17.02L79.91 17.11Q79.18 17.41 77.73 17.79L77.81 17.87L77.67 17.73Q77.89 16.95 78.35 15.55L78.49 15.69L78.36 15.56Q77.07 15.95 75.02 16.17L75.11 16.27L75.06 16.22Q71.21 20.63 65.99 29.99L65.90 29.90L68.04 26.29L68.10 26.35Q67.62 27.32 67.36 27.89L67.28 27.81L62.83 36.84L62.85 36.86Q63.60 36.82 64.75 36.44L64.59 36.28L64.46 36.54L64.54 36.61Q64.47 37.34 64.17 38.60L64.14 38.57L64.10 38.54Q68.12 37.11 72.96 37.30L72.97 37.32L72.98 37.32Q73.14 38.40 73.33 40.38L73.35 40.39L73.17 40.22Q74.33 40.31 75.40 40.43L75.43 40.46L75.39 40.42Q75.51 41.07 75.77 42.44L75.76 42.43L75.73 42.39Q77.66 42.65 80.67 43.56L80.66 43.56L80.77 43.66Q79.79 41.54 78.87 38.27L78.80 38.19L80.33 38.74L80.27 38.67Q81.00 38.95 81.69 39.29L81.65 39.25L81.60 39.20Q80.82 36.71 80.66 35.03L80.71 35.08L80.69 35.06Q80.11 34.90 78.97 34.67L78.89 34.59L78.96 34.66Q78.81 33.45 78.81 32.57ZM70.70 32.31L70.72 32.33L70.82 32.42Q71.44 30.99 73.00 28.44L73.13 28.56L73.04 28.47Q73.08 29.47 73.04 30.42L73.01 30.38L72.97 30.34Q73.12 31.49 73.16 32.44L73.05 32.33L73.08 32.36Q72.43 32.25 71.86 32.25L71.97 32.35L71.85 32.23Q71.41 32.40 70.80 32.40Z"/><path fill="#333" d="M43.08 40.29L43.13 40.34L43.05 40.27Q41.67 40.37 40.11 39.95L40.07 39.91L40.07 39.91Q38.98 39.12 38.83 37.49L38.85 37.51L38.69 37.35Q38.82 37.33 39.01 34.70L38.89 34.58L38.87 34.56Q40.04 34.52 42.06 34.13L41.96 34.03L41.74 34.76L41.87 34.90Q41.48 36.52 42.89 37.09L42.98 37.19L42.91 37.12Q43.72 37.47 45.81 37.47L45.90 37.56L45.81 37.47Q47.52 37.43 47.71 37.35L47.68 37.32L47.58 37.22Q48.50 37.08 49.23 36.58L49.26 36.61L49.30 36.66Q50.75 35.74 50.56 33.65L50.53 33.62L50.53 33.62Q50.35 31.19 48.61 29.63L48.51 29.52L48.46 29.48Q46.90 28.09 44.43 28.09L44.40 28.06L44.44 27.87L44.39 27.82Q44.76 27.77 45.63 27.70L45.57 27.63L45.60 27.66Q47.50 27.54 48.87 26.31L48.94 26.37L48.86 26.29Q50.28 25.11 50.44 23.25L50.42 23.23L50.36 23.17Q50.53 22.92 50.53 22.58L50.48 22.53L50.56 22.61Q50.50 21.03 49.13 20.12L49.17 20.15L49.02 20.00Q47.85 19.25 46.25 19.37L46.38 19.49L46.31 19.42Q45.05 19.31 43.84 19.73L43.77 19.67L43.69 19.59Q42.40 20.28 42.10 21.42L42.08 21.40L41.96 21.28Q41.88 22.15 41.95 22.91L41.84 22.80L41.96 22.92Q40.80 22.55 38.74 21.83L38.79 21.88L38.75 21.84Q38.50 20.15 38.54 19.31L38.61 19.38L38.72 19.49Q38.80 17.93 39.87 17.25L39.81 17.19L39.76 17.14Q41.18 16.54 42.78 16.54L42.90 16.67L42.73 16.49Q46.03 16.60 49.19 16.86L49.17 16.85L49.11 16.78Q54.21 17.24 53.90 21.00L53.89 20.99L54.00 21.10Q53.83 22.49 53.33 24.05L53.27 23.98L53.40 24.12Q52.33 27.05 49.97 27.96L49.98 27.97L50.02 28.01Q52.61 28.51 53.22 31.86L53.31 31.95L53.39 32.02Q53.43 32.98 53.51 35.00L53.62 35.11L53.58 35.08Q53.72 39.51 49.11 39.97L49.09 39.94L49.18 40.04Q48.35 40.01 43.06 40.27ZM48.44 42.68L48.28 42.53L48.34 42.59Q48.98 42.66 51.84 42.73L51.90 42.79L51.79 42.69Q53.47 42.69 55.11 42.04L55.28 42.21L55.21 42.15Q56.47 41.27 56.28 39.52L56.27 39.51L56.09 39.33Q55.98 38.01 55.68 36.25L55.83 36.41L55.74 36.32Q55.06 31.87 53.12 30.23L53.05 30.17L52.96 29.88L52.88 29.76L52.82 29.70Q54.71 28.39 55.47 24.01L55.37 23.92L55.43 23.98Q55.44 23.49 55.55 22.54L55.61 22.59L55.56 22.54Q55.68 21.83 55.60 21.14L55.58 21.13L55.62 21.16Q55.37 19.38 54.07 18.70L54.17 18.80L53.97 18.67L53.94 18.64Q53.81 17.83 52.67 17.29L52.52 17.14L52.58 17.20Q50.96 16.42 45.82 16.12L45.83 16.13L45.90 16.20Q44.16 16.06 42.56 16.06L42.70 16.20L42.69 16.19Q41.05 16.15 39.53 16.80L39.46 16.72L39.43 16.70Q38.34 17.58 38.34 19.33L38.39 19.38L38.31 19.30Q38.37 18.95 38.64 22.30L38.57 22.23L38.55 22.21Q38.84 22.28 40.48 22.89L40.56 22.96L40.50 22.90Q40.41 23.35 40.38 23.85L40.44 23.91L40.49 23.96Q40.49 24.46 40.53 24.99L40.54 25.00L40.40 24.86Q42.36 25.42 44.38 25.53L44.26 25.41L44.39 25.53Q44.22 23.43 45.33 22.59L45.37 22.63L45.30 22.57Q46.24 22.02 48.25 21.79L48.21 21.74L48.27 21.81Q49.43 21.82 50.00 22.01L49.99 22.00L49.99 22.01Q49.91 22.00 49.95 22.12L50.01 22.17L49.94 22.29L50.05 22.86L50.05 22.86Q50.04 23.04 50.00 23.20L50.12 23.31L50.09 23.28Q49.94 24.92 48.42 26.10L48.42 26.10L48.44 26.13Q47.47 26.98 45.45 27.17L45.54 27.26L45.62 27.34Q44.81 27.40 43.93 27.40L43.87 27.34L43.89 27.36Q43.90 27.67 44.05 28.36L44.22 28.52L44.11 28.42Q45.82 28.38 47.27 29.10L47.25 29.08L47.11 29.06L45.72 29.42L45.58 29.28Q45.75 29.75 45.87 30.36L45.70 30.20L45.76 30.25Q47.88 30.17 49.60 31.51L49.63 31.54L49.66 31.57Q49.79 31.86 50.10 33.49L50.18 33.58L50.14 33.53Q50.38 36.52 47.45 36.94L47.44 36.93L47.33 36.82Q45.41 37.25 44.83 37.21L44.83 37.21L44.79 37.17Q44.41 37.13 43.87 37.05L43.70 36.88L43.86 36.59L43.98 36.13L43.96 35.69L43.88 35.27L44.06 35.45Q43.10 35.52 42.30 35.71L42.15 35.56L42.29 35.70Q42.22 35.43 42.22 35.24L42.22 35.24L42.21 35.23Q42.29 35.09 42.29 34.86L42.23 34.80L42.31 34.88Q42.16 34.27 42.31 33.55L42.40 33.64L42.32 33.55Q40.53 33.86 38.67 34.21L38.74 34.28L38.62 34.16Q38.75 34.78 38.63 35.90L38.66 35.93L38.61 35.88Q38.51 37.02 38.51 37.63L38.50 37.62L38.39 37.50Q38.45 39.55 39.82 40.31L39.93 40.42L39.88 40.37Q41.38 42.66 46.10 42.47L46.10 42.48L46.04 42.42Q46.82 42.44 48.35 42.59Z"/></svg>