<svg xmlns="http://www.w3.org/2000/svg" width="150" height="50" viewBox="0,0,150,50"><path fill="#222" d="M54.95 40.29L55.06 40.39L54.97 40.30Q52.17 36.60 49.55 27.95L49.48 27.89L49.52 27.93Q48.82 25.75 48.02 23.62L48.04 23.63L45.13 32.37L45.06 32.30Q43.36 37.34 40.97 40.58L40.87 40.48L40.84 40.46Q40.12 40.64 38.48 40.79L38.39 40.71L38.44 40.75Q38.44 39.46 38.44 38.21L38.57 38.34L38.59 38.35Q38.51 32.26 35.77 26.13L35.85 26.21L35.72 26.09Q32.74 19.33 26.88 14.34L26.85 14.31L26.71 14.18Q28.90 14.92 31.26 15.46L31.35 15.54L31.19 15.39Q40.00 23.97 41.30 34.93L41.36 34.99L41.28 34.91Q42.89 31.58 44.34 26.21L44.27 26.15L44.27 26.14Q46.36 18.75 46.85 17.34L46.88 17.37L48.99 17.23L49.08 17.33Q49.80 19.38 50.45 21.70L50.39 21.64L51.63 26.07L51.56 26.01Q53.19 31.52 54.60 34.75L54.65 34.81L54.62 34.78Q56.25 23.13 64.17 15.78L64.19 15.80L64.14 15.75Q65.76 15.50 68.73 14.86L68.75 14.88L68.75 14.87Q63.31 19.06 60.26 25.19L60.42 25.35L60.44 25.37Q57.16 31.42 57.16 38.20L57.23 38.27L57.32 38.35Q57.28 39.42 57.36 40.56L57.38 40.59L56.12 40.35L56.20 40.44Q55.54 40.31 54.97 40.31ZM61.24 43.22L61.27 43.26L61.31 43.30Q59.94 39.60 60.05 35.72L60.22 35.88L60.07 35.74Q60.46 24.25 69.83 15.99L69.77 15.94L69.86 16.02Q68.84 16.18 66.90 16.72L66.88 16.70L66.86 16.68Q67.98 16.01 69.88 14.22L69.86 14.20L69.76 14.10Q67.17 14.93 64.24 15.43L64.26 15.45L64.28 15.47Q56.69 22.49 54.78 31.97L54.72 31.91L54.85 32.04Q54.15 30.28 51.30 18.82L51.34 18.86L51.47 18.99Q50.99 19.00 50.04 19.00L50.10 19.06L49.79 18.00L49.64 17.84Q49.54 17.32 49.31 16.83L49.43 16.95L46.39 16.80L46.44 16.85Q45.60 19.29 44.32 24.41L44.36 24.44L44.37 24.46Q43.13 29.61 42.14 32.08L42.04 31.98L42.09 32.03Q40.63 24.26 35.08 17.94L34.94 17.80L34.97 17.83Q34.50 17.78 33.54 17.59L33.52 17.56L33.52 17.56Q32.77 16.70 31.21 15.06L31.20 15.05L31.29 15.14Q27.87 14.31 25.70 13.51L25.73 13.54L25.77 13.58Q31.39 18.21 34.66 24.42L34.57 24.32L34.72 24.48Q38.13 31.04 38.13 38.04L38.11 38.03L38.01 37.93Q38.05 39.52 37.86 41.12L37.96 41.23L37.88 41.15Q38.08 41.12 38.54 41.03L38.62 41.11L38.56 41.05Q39.05 40.98 39.28 40.98L39.21 40.92L39.27 42.00L39.37 42.10Q39.33 42.52 39.41 43.06L39.37 43.01L39.45 43.10Q40.49 42.92 42.77 42.77L42.77 42.77L42.75 42.75Q46.39 37.36 49.13 27.96L49.24 28.06L49.09 27.92Q51.99 36.83 54.96 40.79L54.89 40.73L54.94 40.78Q55.31 40.69 56.15 40.80L56.20 40.85L56.29 40.94Q57.15 41.99 58.22 43.06L58.11 42.95L58.21 43.05Q58.82 42.93 61.21 43.20Z"/><path fill="#333" d="M87.65 39.03L87.57 38.96L87.59 38.98Q89.35 36.46 94.10 29.19L94.20 29.29L94.18 29.27Q98.19 23.04 101.04 19.76L101.01 19.73L101.13 19.85Q98.96 20.08 96.87 20.08L96.89 20.11L96.91 20.12Q91.64 20.11 87.65 18.32L87.63 18.31L87.72 18.40Q86.90 16.32 86.22 14.76L86.34 14.88L86.37 14.91Q90.81 16.95 96.48 17.06L96.56 17.15L96.46 17.05Q101.73 17.26 106.91 15.35L106.90 15.34L106.79 15.23Q106.40 16.06 106.09 16.86L106.25 17.01L105.53 18.46L105.65 18.59Q102.57 22.21 98.58 28.03L98.60 28.05L95.15 32.75L95.29 32.89Q93.54 35.25 91.71 37.54L91.62 37.45L91.64 37.46Q94.93 36.84 98.24 36.91L98.32 36.99L98.36 37.02Q101.73 37.16 104.89 38.08L104.77 37.95L105.26 39.55L105.35 39.64Q105.54 40.40 105.88 41.24L105.81 41.17L105.95 41.31Q101.29 39.73 96.15 39.92L96.04 39.81L96.16 39.93Q90.91 40.01 86.42 42.03L86.42 42.03L86.55 42.16Q86.94 41.10 87.66 39.04ZM85.78 42.69L85.82 42.73L85.93 42.83Q87.03 42.11 87.83 41.84L87.83 41.84L87.85 41.86Q87.67 42.71 86.98 44.23L86.90 44.15L86.92 44.17Q92.67 42.08 98.65 42.31L98.54 42.19L98.67 42.33Q104.85 42.41 109.87 45.19L109.98 45.30L109.91 45.23Q108.54 42.87 107.75 40.70L107.74 40.70L107.77 40.72Q107.29 40.51 105.77 39.94L105.73 39.91L105.85 40.02Q105.58 39.18 105.16 37.70L105.17 37.71L105.17 37.71Q100.97 36.48 95.87 36.67L95.97 36.77L95.87 36.67Q97.96 33.89 101.50 28.33L101.61 28.44L101.57 28.40Q105.28 22.75 107.19 20.20L107.19 20.20L107.20 20.21Q107.62 18.72 108.65 16.02L108.61 15.98L108.56 15.94Q107.90 16.30 106.45 16.91L106.60 17.06L106.60 17.06Q106.82 16.13 107.54 14.61L107.51 14.58L107.58 14.66Q102.32 16.85 96.61 16.77L96.48 16.65L96.52 16.69Q90.55 16.57 85.60 14.06L85.52 13.99L85.69 14.15Q86.83 16.51 87.55 18.75L87.54 18.75L87.39 18.60Q88.51 19.15 89.31 19.38L89.36 19.42L89.35 19.42Q89.67 20.15 89.93 21.60L89.87 21.54L89.90 21.56Q93.57 22.57 98.45 22.38L98.53 22.47L98.41 22.35Q96.05 25.58 92.74 30.57L92.78 30.61L87.31 39.00L87.26 38.94Q86.83 40.15 85.80 42.70Z"/><path fill="#111" d="M70.39 27.66L70.44 27.70L70.39 27.65Q68.22 27.73 66.95 29.23L66.78 29.07L66.97 29.25Q65.57 30.63 65.45 32.92L65.58 33.04L65.46 32.92Q65.36 35.60 66.20 36.56L66.29 36.65L66.29 36.65Q67.34 37.85 69.66 37.69L69.64 37.68L69.69 37.73Q74.16 37.24 74.54 34.24L74.72 34.42L74.69 34.38Q74.71 33.49 74.71 32.69L74.77 32.76L74.70 32.68Q74.65 30.65 73.50 29.13L73.55 29.17L73.52 29.14Q72.33 27.62 70.39 27.65ZM75.13 37.65L75.21 37.73L75.10 37.62Q73.80 39.93 69.42 40.16L69.34 40.08L69.32 40.06Q65.27 40.35 63.64 39.25L63.50 39.11L63.56 39.17Q62.66 38.31 62.50 36.59L62.42 36.51L62.35 36.44Q62.41 35.43 62.60 33.56L62.61 33.58L62.60 33.57Q63.01 29.18 64.23 27.35L64.24 27.36L64.35 27.48Q66.02 25.03 69.86 25.07L69.80 25.01L69.78 24.99Q72.30 25.03 74.58 27.35L74.68 27.45L74.60 27.37Q74.63 21.47 76.23 14.96L76.30 15.02L76.28 15.00Q78.29 14.69 80.16 13.86L79.98 13.68L80.04 13.74Q77.41 20.32 77.15 27.33L77.10 27.28L77.22 27.40Q76.91 34.55 79.04 41.14L78.97 41.07L79.02 41.11Q77.32 40.45 75.61 40.06L75.77 40.22L75.69 40.15Q75.34 38.81 75.19 37.70ZM78.16 43.11L78.16 43.11L78.22 43.17Q80.42 43.85 82.97 45.37L82.97 45.37L82.94 45.34Q79.24 38.30 79.09 30.00L79.00 29.91L78.97 29.87Q78.91 21.74 81.99 14.36L82.00 14.36L82.05 14.42Q81.30 14.81 79.86 15.46L79.80 15.40L79.75 15.35Q80.15 14.27 80.76 13.05L80.72 13.00L80.73 13.02Q78.44 14.19 76.01 14.77L76.01 14.77L75.89 14.65Q74.47 20.46 74.20 26.55L74.20 26.55L74.35 26.70Q72.24 24.66 69.72 24.55L69.79 24.62L69.79 24.62Q66.30 24.43 64.39 26.53L64.50 26.64L64.56 26.69Q62.70 28.91 62.28 33.59L62.30 33.61L62.25 33.56Q62.11 36.43 62.11 36.85L62.08 36.82L61.97 36.71Q62.06 38.47 63.20 39.53L63.29 39.63L63.28 39.62Q63.45 39.79 63.64 39.86L63.60 39.83L64.26 40.67L64.21 40.62Q65.12 41.91 68.09 42.18L68.05 42.14L68.21 42.30Q70.38 42.42 71.75 42.49L71.73 42.47L71.78 42.52Q75.79 42.53 77.50 41.19L77.61 41.31L77.56 41.25Q77.77 42.04 78.23 43.18ZM72.03 29.98L71.97 29.92L72.04 29.99Q73.08 30.00 73.92 30.50L73.88 30.45L73.94 30.52Q74.25 31.63 74.32 32.65L74.36 32.69L74.44 32.77Q74.74 36.99 69.71 37.33L69.66 37.28L69.74 37.36Q68.75 37.28 67.65 37.02L67.61 36.98L67.79 37.15Q67.49 36.48 67.41 35.95L67.39 35.92L67.31 35.84Q67.42 35.34 67.46 34.73L67.43 34.71L67.40 34.67Q67.75 31.30 70.38 30.31L70.30 30.23L70.25 30.18Q71.26 29.86 71.95 29.90Z"/><path fill="#333" d="M18.57 33.26L18.59 33.27L18.63 33.31Q18.51 36.17 17.33 40.81L17.29 40.77L17.28 40.75Q15.51 41.31 13.91 42.11L13.97 42.17L13.87 42.07Q16.49 35.06 16.23 27.64L16.32 27.73L16.34 27.75Q16.04 20.33 12.95 13.59L12.90 13.54L12.96 13.59Q14.92 14.87 16.78 15.44L16.77 15.42L16.66 15.32Q18.90 22.39 18.90 29.05L18.87 29.03L18.85 29.00Q18.92 30.52 18.84 32.00L18.67 31.84L18.74 31.90Q19.97 30.77 25.18 25.82L25.07 25.70L25.11 25.75Q26.23 25.76 27.22 25.68L27.22 25.69L29.36 25.59L29.29 25.51Q26.24 28.63 21.94 32.40L21.88 32.34L21.78 32.24Q25.23 35.08 31.70 40.90L31.64 40.85L31.73 40.93Q28.96 39.99 25.99 39.80L25.95 39.76L26.04 39.85Q23.54 37.77 18.67 33.35ZM28.58 42.55L28.59 42.55L28.60 42.56Q33.17 43.25 36.29 45.19L36.36 45.26L36.31 45.21Q35.15 43.93 32.52 41.53L32.51 41.52L32.55 41.56Q32.80 41.66 33.06 41.77L33.01 41.72L33.03 41.74Q31.03 39.81 28.78 37.91L28.62 37.75L24.24 33.90L24.28 33.94Q29.31 29.79 31.74 26.90L31.63 26.79L31.67 26.83Q30.51 26.96 28.03 27.22L28.05 27.24L27.99 27.18Q29.50 25.64 30.18 24.80L30.28 24.90L30.32 24.94Q27.41 25.31 24.93 25.31L24.98 25.35L24.95 25.32Q23.64 26.71 20.90 29.38L20.79 29.27L20.83 29.31Q20.77 23.46 19.78 17.63L19.86 17.72L19.81 17.67Q19.13 17.53 17.65 17.26L17.57 17.18L17.60 17.21Q17.48 16.51 17.02 15.03L17.12 15.13L17.06 15.07Q14.48 14.31 12.23 12.75L12.27 12.80L12.13 12.65Q15.61 19.53 15.96 27.63L16.02 27.70L15.88 27.56Q16.28 35.53 13.27 42.77L13.22 42.71L13.38 42.87Q13.92 42.42 15.25 41.77L15.33 41.85L15.29 41.81Q15.08 42.67 14.43 44.12L14.36 44.05L14.52 44.21Q17.16 42.92 19.29 42.54L19.40 42.65L19.33 42.58Q20.04 40.21 20.54 35.95L20.36 35.77L20.37 35.78Q23.16 38.22 28.60 42.56Z"/><path fill="#222" d="M117.05 40.27L117.21 40.42L117.18 40.40Q115.73 40.43 114.17 40.01L114.24 40.08L114.13 39.97Q112.85 38.99 112.69 37.35L112.74 37.40L112.73 37.39Q112.71 37.22 112.90 34.59L112.86 34.55L112.95 34.64Q113.88 34.36 115.90 33.97L116.06 34.13L115.72 34.75L115.83 34.86Q115.46 36.51 116.87 37.08L117.01 37.22L117.03 37.24Q117.73 37.48 119.82 37.48L119.78 37.44L119.74 37.40Q121.42 37.33 121.61 37.25L121.65 37.29L121.63 37.27Q122.49 37.06 123.21 36.57L123.19 36.54L123.20 36.55Q124.57 35.56 124.38 33.47L124.55 33.64L124.46 33.55Q124.29 31.14 122.56 29.58L122.64 29.65L122.61 29.63Q120.74 27.93 118.26 27.93L118.30 27.96L118.34 27.78L118.33 27.76Q118.63 27.64 119.51 27.57L119.64 27.70L119.68 27.74Q121.45 27.50 122.82 26.26L122.94 26.37L122.94 26.38Q124.16 24.99 124.31 23.12L124.40 23.21L124.35 23.16Q124.50 22.89 124.50 22.55L124.53 22.58L124.43 22.48Q124.41 20.94 123.04 20.03L123.19 20.18L123.13 20.12Q121.82 19.22 120.22 19.33L120.25 19.37L120.25 19.37Q118.92 19.18 117.70 19.60L117.84 19.74L117.82 19.72Q116.25 20.12 115.94 21.27L116.11 21.43L115.96 21.28Q115.75 22.02 115.83 22.78L115.88 22.84L115.92 22.87Q114.95 22.71 112.90 21.99L112.87 21.96L112.92 22.01Q112.55 20.19 112.58 19.35L112.68 19.45L112.73 19.50Q112.76 17.89 113.83 17.21L113.87 17.24L113.76 17.14Q115.17 16.53 116.76 16.53L116.88 16.65L116.73 16.49Q120.07 16.64 123.23 16.90L123.24 16.91L123.18 16.85Q128.21 17.23 127.90 21.00L127.82 20.92L127.97 21.07Q127.78 22.45 127.29 24.01L127.27 23.99L127.33 24.05Q126.50 27.22 124.14 28.13L124.03 28.02L123.98 27.97Q126.73 28.62 127.34 31.97L127.35 31.99L127.21 31.85Q127.45 33.00 127.53 35.02L127.55 35.04L127.66 35.15Q127.79 39.58 123.19 40.04L123.17 40.02L123.06 39.92Q122.36 40.02 117.07 40.29ZM122.38 42.62L122.40 42.65L122.27 42.52Q123.00 42.68 125.86 42.75L125.90 42.80L125.89 42.79Q127.55 42.77 129.18 42.12L129.13 42.07L129.16 42.10Q130.36 41.16 130.17 39.41L130.18 39.42L130.25 39.49Q130.08 38.11 129.78 36.36L129.81 36.38L129.84 36.42Q128.96 31.76 127.01 30.13L127.03 30.14L126.82 29.74L126.85 29.74L126.97 29.86Q128.53 28.21 129.29 23.83L129.43 23.98L129.42 23.96Q129.38 23.44 129.50 22.48L129.49 22.48L129.54 22.53Q129.71 21.86 129.63 21.17L129.49 21.03L129.58 21.12Q129.43 19.45 128.14 18.76L128.08 18.71L128.01 18.71L128.09 18.80Q127.71 17.73 126.57 17.20L126.63 17.25L126.57 17.20Q124.95 16.42 119.82 16.11L119.82 16.12L119.88 16.17Q118.26 16.16 116.66 16.16L116.70 16.19L116.67 16.17Q114.97 16.06 113.44 16.71L113.52 16.79L113.55 16.82Q112.22 17.47 112.22 19.22L112.37 19.36L112.29 19.29Q112.38 18.96 112.65 22.31L112.62 22.28L112.56 22.22Q112.87 22.31 114.51 22.91L114.48 22.89L114.59 22.99Q114.44 23.37 114.40 23.87L114.53 24.00L114.49 23.96Q114.53 24.49 114.56 25.03L114.49 24.95L114.47 24.93Q116.24 25.29 118.26 25.41L118.33 25.48L118.38 25.53Q118.15 23.35 119.25 22.52L119.24 22.50L119.26 22.52Q120.25 22.03 122.27 21.80L122.17 21.71L122.26 21.79Q123.38 21.77 123.95 21.96L123.94 21.95L123.97 21.98Q123.87 21.96 123.91 22.07L123.94 22.10L123.90 22.25L124.01 22.82L124.14 22.95Q124.02 23.02 123.98 23.17L123.96 23.15L124.15 23.34Q124.04 25.02 122.52 26.20L122.42 26.11L122.40 26.08Q121.52 27.03 119.50 27.22L119.44 27.16L119.56 27.28Q118.77 27.36 117.89 27.36L117.98 27.45L117.97 27.44Q117.87 27.65 118.02 28.33L118.15 28.46L118.12 28.43Q119.87 28.43 121.32 29.15L121.24 29.07L121.29 29.24L119.70 29.40L119.57 29.27Q119.59 29.60 119.71 30.21L119.80 30.30L119.79 30.29Q121.88 30.17 123.59 31.50L123.73 31.64L123.60 31.51Q123.96 32.02 124.26 33.66L124.11 33.51L124.09 33.48Q124.31 36.44 121.38 36.86L121.46 36.94L121.35 36.84Q119.38 37.23 118.81 37.19L118.73 37.11L118.72 37.10Q118.29 37.01 117.76 36.93L117.80 36.98L117.86 36.58L117.86 36.01L117.98 35.71L118.03 35.42L117.88 35.27Q116.98 35.40 116.18 35.59L116.14 35.55L116.31 35.71Q116.15 35.36 116.15 35.17L116.12 35.15L116.17 35.20Q116.23 35.03 116.23 34.80L116.14 34.71L116.19 34.76Q116.29 34.40 116.44 33.68L116.39 33.62L116.36 33.60Q114.46 33.79 112.59 34.13L112.64 34.18L112.72 34.26Q112.59 34.62 112.47 35.74L112.57 35.84L112.65 35.92Q112.51 37.02 112.51 37.63L112.38 37.50L112.54 37.65Q112.48 39.58 113.85 40.34L113.97 40.46L113.81 40.30Q115.43 42.72 120.16 42.53L120.10 42.47L120.03 42.40Q120.81 42.42 122.33 42.58Z"/></svg>