<svg xmlns="http://www.w3.org/2000/svg" width="150" height="50" viewBox="0,0,150,50"><path fill="#333" d="M75.64 41.33L75.60 41.29L72.59 41.14L72.57 41.12Q70.13 40.96 69.33 40.85L69.27 40.78L69.31 40.83Q67.61 40.62 66.43 39.74L66.26 39.57L66.26 39.57Q65.08 38.28 64.86 34.93L64.78 34.86L64.84 34.92Q64.88 34.50 64.81 33.28L64.74 33.22L64.64 33.11Q64.73 32.78 64.65 31.68L64.61 31.64L64.69 31.71Q64.66 30.89 64.70 30.16L64.72 30.19L64.58 30.05Q64.79 28.13 65.82 27.36L65.90 27.44L65.76 27.31Q67.73 26.19 72.56 25.96L72.63 26.03L72.63 26.03Q74.74 26.01 75.54 26.01L75.41 25.88L75.40 25.87Q77.03 26.01 78.40 26.32L78.30 26.22L78.37 26.29Q77.76 27.51 77.23 29.33L77.20 29.31L77.24 29.34Q76.78 29.45 76.28 29.41L76.13 29.26L76.13 29.26Q76.05 29.26 75.52 29.15L75.52 29.15L74.68 29.03L74.69 29.04Q73.46 28.61 72.85 28.65L73.02 28.82L72.96 28.75Q68.27 28.86 67.66 31.68L67.66 31.68L67.53 31.55Q67.29 32.72 67.36 33.67L67.32 33.62L67.44 33.75Q67.50 36.24 68.73 37.32L68.79 37.37L68.87 37.46Q70.09 38.53 72.68 38.57L72.54 38.43L72.59 38.48Q74.20 38.64 74.92 38.33L74.86 38.27L75.88 37.77L75.78 37.67Q76.32 37.44 76.89 37.37L76.92 37.40L77.02 37.50Q77.17 39.21 77.55 40.50L77.62 40.58L77.48 40.44Q77.27 40.83 75.48 41.17ZM78.84 44.23L78.82 44.21L78.80 44.19Q79.11 44.16 79.95 44.24L80.08 44.37L79.96 44.25Q80.62 44.29 80.96 43.72L81.07 43.83L81.02 43.78Q79.83 41.72 79.34 39.62L79.37 39.66L79.34 39.63Q78.97 39.57 78.52 39.57L78.58 39.63L78.44 39.49Q77.98 39.45 77.60 39.64L77.70 39.74L77.64 39.68Q77.26 38.39 77.11 36.98L77.19 37.06L77.26 37.13Q76.52 36.92 75.30 37.49L75.46 37.65L75.31 37.50Q74.25 38.23 73.76 38.23L73.67 38.15L73.61 38.09Q73.13 38.10 72.52 38.06L72.52 38.06L72.58 38.12Q71.64 38.06 69.66 37.49L69.66 37.49L69.60 37.43Q69.32 36.77 69.36 35.62L69.49 35.76L69.41 35.67Q69.49 31.34 74.44 30.80L74.61 30.98L74.51 30.88Q75.27 30.95 76.64 31.29L76.53 31.19L76.53 31.19Q78.04 31.67 78.76 31.63L78.61 31.47L78.64 31.51Q79.13 29.33 79.81 27.50L79.71 27.40L79.71 27.40Q79.37 27.32 78.99 27.25L79.09 27.35L78.35 27.29L78.30 27.24Q78.40 26.65 78.78 25.78L78.88 25.89L78.77 25.77Q77.39 25.57 75.82 25.57L75.70 25.45L75.68 25.42Q73.36 25.50 68.98 25.88L68.91 25.81L68.92 25.82Q66.99 25.98 65.43 26.97L65.51 27.06L65.48 27.02Q64.20 27.92 64.20 29.82L64.34 29.96L64.24 29.86Q64.19 30.23 64.30 31.44L64.32 31.46L64.41 31.55Q64.38 32.47 64.34 33.08L64.42 33.16L64.38 33.12Q64.46 35.06 65.18 38.80L65.10 38.71L65.19 38.80Q65.49 39.56 65.99 40.06L66.11 40.18L66.28 40.35L66.21 40.24L66.29 40.32Q67.34 42.47 71.26 43.08L71.20 43.02L71.26 43.08Q74.45 43.61 77.12 43.88L77.10 43.86L77.14 43.90Q77.96 44.00 78.87 44.26Z"/><path fill="#222" d="M22.66 41.44L22.54 41.32L22.53 41.31Q19.67 41.49 18.41 40.96L18.37 40.92L18.46 41.01Q16.44 40.13 16.52 37.65L16.57 37.71L16.50 37.64Q16.66 34.26 16.66 34.83L16.63 34.80L16.81 34.98Q16.82 29.66 13.96 24.82L13.80 24.66L13.89 24.75Q15.94 25.78 17.92 26.16L17.87 26.10L17.85 26.09Q19.60 30.73 19.49 35.22L19.45 35.19L19.48 35.22Q19.29 36.66 20.13 37.88L20.03 37.78L20.15 37.90Q21.05 39.22 22.58 39.03L22.56 39.01L22.93 38.89L22.91 38.87Q24.33 38.88 25.15 38.12L25.10 38.07L25.17 38.14Q25.82 37.21 25.82 36.26L25.90 36.34L25.84 36.28Q25.94 36.16 25.91 35.97L25.94 36.00L25.81 35.87Q25.85 30.73 26.99 26.39L26.90 26.30L26.92 26.32Q27.90 26.20 28.89 25.97L29.03 26.11L30.99 25.56L30.87 25.43Q28.37 30.51 28.67 36.07L28.78 36.18L28.72 36.12Q28.86 39.15 27.15 40.29L27.10 40.25L27.22 40.36Q25.98 41.30 22.67 41.45ZM24.87 43.72L24.97 43.83L24.98 43.83Q28.32 43.86 30.15 43.10L30.25 43.21L30.23 43.18Q31.06 42.34 31.06 40.93L31.20 41.07L31.03 40.90Q31.14 40.10 30.88 38.54L30.86 38.52L30.80 38.47Q30.41 35.40 30.79 32.40L30.86 32.47L30.70 32.31Q31.23 29.30 32.64 26.56L32.53 26.45L32.52 26.44Q32.01 26.88 30.67 27.30L30.50 27.12L30.62 27.24Q30.79 26.57 31.09 26.00L31.14 26.05L31.72 24.91L31.61 24.81Q29.83 25.62 26.67 26.11L26.57 26.01L26.60 26.04Q25.34 30.79 25.49 35.89L25.56 35.97L25.46 35.86Q25.66 38.08 23.00 38.58L22.86 38.44L22.53 38.57L22.49 38.68L21.49 38.48L21.42 38.41Q21.33 37.51 21.36 37.02L21.38 37.03L21.45 37.11Q21.58 32.51 20.89 28.10L20.84 28.04L19.82 27.94L19.96 28.08Q19.45 28.06 18.92 27.95L18.76 27.80L18.76 27.79Q18.35 26.35 18.08 25.59L18.13 25.64L18.14 25.65Q15.36 25.23 13.11 23.93L13.19 24.01L13.14 23.96Q15.32 27.51 16.04 30.90L15.92 30.78L15.99 30.85Q16.41 32.98 16.26 36.48L16.40 36.62L16.32 36.54Q16.43 36.77 16.36 37.87L16.24 37.76L16.28 37.80Q16.23 40.26 17.60 41.21L17.60 41.21L17.59 41.20Q17.92 43.40 24.92 43.78Z"/><path fill="#444" d="M43.55 30.56L43.64 30.65L43.64 30.65Q43.66 30.67 47.05 30.63L47.03 30.62L47.03 30.62Q49.21 30.51 50.28 30.55L50.36 30.64L50.36 30.63Q49.34 27.79 46.91 22.15L46.84 22.09L46.88 22.13Q46.20 23.43 45.16 26.29L45.22 26.35L45.25 26.38Q44.27 29.30 43.70 30.71ZM51.42 33.07L51.51 33.15L51.38 33.03Q49.24 33.13 47.03 33.16L46.99 33.13L46.95 33.09Q44.78 33.20 42.50 33.39L42.51 33.40L42.54 33.44Q40.82 36.67 37.59 40.85L37.70 40.96L37.65 40.92Q35.09 41.55 33.72 42.05L33.66 41.99L33.63 41.96Q38.81 36.36 43.49 23.00L43.61 23.13L43.45 22.96Q44.83 19.66 46.20 16.42L46.13 16.36L46.06 16.29Q46.39 16.31 46.73 16.31L46.83 16.40L47.55 16.40L47.56 16.42Q48.30 17.76 53.13 29.41L53.08 29.36L53.20 29.47Q56.39 37.23 60.38 41.38L60.32 41.32L60.46 41.46Q59.85 41.23 55.97 40.36L55.97 40.35L56.05 40.44Q53.44 37.26 51.46 33.11ZM55.87 40.67L55.83 40.63L56.46 40.77L56.40 40.71Q56.66 40.74 56.97 40.86L57.07 40.96L57.15 41.04Q57.39 41.32 59.22 43.33L59.21 43.33L59.16 43.28Q62.87 44.25 65.27 45.28L65.17 45.18L65.26 45.27Q59.70 40.65 55.70 32.66L55.80 32.76L55.77 32.73Q54.06 29.34 52.61 25.39L52.61 25.38L49.97 17.99L50.03 18.05Q49.65 18.00 49.42 18.00L49.51 18.09L49.00 18.12L48.93 18.04Q48.47 17.28 47.74 15.91L47.77 15.94L47.82 15.98Q47.33 16.03 46.88 16.00L46.93 16.05L46.85 15.97Q46.44 15.97 45.90 15.97L45.96 16.03L45.89 15.96Q44.47 19.87 40.59 30.04L40.51 29.95L40.60 30.05Q37.40 37.92 32.75 42.72L32.91 42.88L32.80 42.76Q33.93 42.45 35.95 41.84L35.95 41.84L35.91 41.81Q35.03 42.57 33.47 44.35L33.57 44.45L33.56 44.44Q35.31 43.83 39.23 43.07L39.26 43.10L39.08 42.92Q42.64 38.71 44.20 35.48L44.14 35.41L44.11 35.39Q45.88 35.29 48.21 35.33L48.19 35.32L48.25 35.38Q50.88 35.30 52.25 35.38L52.35 35.48L52.25 35.37Q53.54 37.78 55.90 40.71ZM48.20 26.04L48.13 25.97L48.10 25.93Q49.00 28.06 49.76 30.15L49.76 30.15L46.58 30.28L46.54 30.24Q47.13 28.81 48.19 26.03Z"/><path fill="#222" d="M95.96 40.27L95.83 40.13L93.48 33.33L93.52 33.37Q89.05 20.67 83.11 14.28L83.19 14.35L83.18 14.35Q85.26 15.48 87.85 16.09L87.85 16.09L87.75 15.98Q93.02 22.39 97.36 35.15L97.18 34.97L97.28 35.07Q100.23 26.87 100.92 25.27L100.96 25.31L101.06 25.41Q103.38 19.74 106.20 16.43L106.22 16.45L106.21 16.44Q108.34 16.13 110.97 15.26L110.92 15.21L110.96 15.26Q106.38 19.84 103.33 27.08L103.31 27.06L103.24 26.99Q101.88 30.68 98.18 40.20L98.18 40.19L98.24 40.26Q97.59 40.18 97.02 40.14L96.93 40.05L97.13 40.25Q96.52 40.21 95.95 40.25ZM100.84 42.55L100.86 42.57L100.86 42.57Q103.61 32.54 105.18 28.50L105.18 28.51L105.35 28.68Q108.26 20.89 112.68 16.02L112.75 16.09L112.74 16.08Q111.63 16.38 109.54 17.11L109.62 17.19L110.64 15.73L110.68 15.77Q111.32 15.15 111.93 14.51L111.83 14.41L111.92 14.50Q109.11 15.50 106.11 16.07L106.06 16.03L106.08 16.05Q101.64 21.32 97.76 32.78L97.85 32.86L97.70 32.71Q94.07 22.61 90.87 18.23L90.98 18.34L91.03 18.39Q90.64 18.30 89.76 18.15L89.71 18.10L89.69 18.08Q89.36 17.60 87.76 15.54L87.84 15.62L87.79 15.57Q84.92 14.94 82.21 13.53L82.19 13.52L82.11 13.43Q88.74 20.52 93.12 33.31L93.28 33.47L93.16 33.35Q94.39 37.02 95.57 40.60L95.65 40.67L95.55 40.57Q96.05 40.77 96.89 40.66L96.78 40.55L96.73 40.50Q97.24 41.35 97.92 42.68L97.87 42.62L97.92 42.68Q98.58 42.43 99.31 42.50L99.38 42.57L99.36 42.56Q100.08 42.56 100.85 42.56Z"/><path fill="#111" d="M116.40 32.86L116.51 32.97L116.57 33.03Q119.52 32.51 122.72 32.63L122.69 32.60L122.84 32.75Q122.77 30.17 122.77 27.77L122.69 27.69L122.83 27.83Q122.73 25.26 122.92 22.71L122.93 22.71L122.97 22.75Q121.67 24.38 116.45 32.91ZM126.32 40.22L126.31 40.22L126.42 40.32Q124.69 39.97 122.90 39.89L123.01 40.00L123.00 39.98Q122.73 37.55 122.61 35.07L122.60 35.06L122.68 35.14Q117.28 34.88 112.56 36.29L112.57 36.30L112.55 36.28Q112.79 35.91 112.98 34.92L112.95 34.89L112.90 34.84Q114.60 31.59 118.18 25.31L118.19 25.32L118.35 25.48Q121.13 20.50 124.56 16.61L124.49 16.54L124.48 16.54Q125.37 16.35 127.04 16.09L127.20 16.24L127.10 16.15Q125.13 22.51 125.13 29.55L125.30 29.73L125.28 29.70Q125.17 31.08 125.25 32.57L125.34 32.66L126.54 32.68L126.50 32.64Q127.22 32.79 127.83 32.91L127.91 32.98L127.85 32.92Q127.86 33.81 128.13 35.75L128.15 35.77L128.18 35.81Q127.04 35.62 125.56 35.43L125.43 35.30L125.45 35.32Q125.64 37.30 126.33 40.23ZM128.06 32.48L128.09 32.52L128.02 32.45Q127.93 32.47 127.74 32.47L127.59 32.32L127.31 32.42L127.28 32.39Q127.19 30.93 127.19 29.52L127.23 29.56L127.22 29.55Q127.26 23.19 129.31 17.18L129.19 17.06L129.17 17.03Q128.54 17.44 127.10 17.82L127.02 17.74L127.07 17.79Q127.37 17.10 127.82 15.69L127.75 15.62L127.64 15.50Q126.43 15.97 124.37 16.20L124.46 16.29L124.33 16.15Q120.42 20.51 115.20 29.87L115.29 29.96L117.27 26.19L117.43 26.35Q116.94 27.30 116.67 27.87L116.66 27.86L112.17 36.85L112.29 36.97Q112.78 36.66 113.92 36.28L114.02 36.38L113.87 36.61L113.93 36.67Q113.78 37.32 113.48 38.58L113.34 38.44L113.34 38.44Q117.50 37.15 122.34 37.35L122.44 37.45L122.31 37.32Q122.38 38.31 122.57 40.29L122.52 40.24L122.60 40.32Q123.68 40.33 124.74 40.44L124.78 40.48L124.79 40.48Q124.78 41.01 125.05 42.38L125.07 42.40L125.22 42.55Q127.11 42.76 130.11 43.68L130.01 43.57L129.96 43.53Q129.04 41.46 128.12 38.18L128.18 38.24L129.64 38.71L129.67 38.74Q130.25 38.87 130.94 39.21L130.87 39.14L130.93 39.20Q130.10 36.66 129.95 34.98L129.99 35.02L130.01 35.04Q129.54 35.00 128.40 34.77L128.34 34.71L128.27 34.64Q128.05 33.35 128.05 32.48ZM120.05 32.31L120.16 32.43L120.00 32.27Q120.76 30.97 122.32 28.42L122.41 28.51L122.38 28.48Q122.38 29.43 122.34 30.39L122.36 30.41L122.43 30.47Q122.37 31.40 122.41 32.35L122.33 32.28L122.40 32.35Q121.81 32.29 121.24 32.29L121.26 32.31L121.26 32.31Q120.72 32.38 120.12 32.38Z"/></svg>