<svg xmlns="http://www.w3.org/2000/svg" width="150" height="50" viewBox="0,0,150,50"><path fill="#333" d="M41.61 19.13L41.62 19.13L41.61 19.12Q42.78 23.64 42.93 26.84L42.87 26.78L42.91 26.82Q43.48 26.93 47.86 27.05L47.79 26.97L47.82 27.00Q50.29 26.97 50.67 23.50L50.75 23.58L50.75 23.58Q50.88 21.77 49.96 20.85L50.07 20.96L49.94 20.83Q48.69 19.96 46.71 19.81L46.86 19.95L46.70 19.79Q43.55 19.66 41.69 19.20ZM43.16 28.90L43.12 28.86L43.12 28.86Q43.35 34.91 41.56 40.85L41.47 40.76L41.52 40.81Q40.21 41.05 37.62 42.08L37.69 42.16L37.70 42.17Q40.35 35.49 40.01 28.03L40.03 28.05L40.12 28.14Q39.83 20.81 36.52 14.30L36.45 14.23L36.45 14.23Q41.30 17.02 48.26 17.02L48.27 17.02L48.32 17.08Q53.99 17.11 54.26 20.65L54.26 20.65L54.25 20.64Q54.35 21.28 54.28 21.89L54.32 21.93L54.06 22.90L54.15 22.98Q53.34 26.94 51.21 28.65L51.23 28.67L51.17 28.61Q50.42 29.34 49.39 29.34L49.32 29.27L46.76 29.30L46.70 29.24Q52.37 36.54 56.90 41.11L56.79 41.01L56.91 41.12Q54.76 40.42 51.82 40.07L51.77 40.02L51.83 40.08Q47.88 35.94 42.97 28.71ZM51.59 40.33L51.74 40.48L51.95 40.38L53.14 41.58L53.12 41.56Q53.82 42.22 54.46 42.83L54.41 42.78L54.37 42.73Q57.88 43.31 61.46 45.18L61.48 45.19L61.47 45.19Q54.51 38.42 49.11 31.49L49.18 31.56L51.00 31.64L50.90 31.54Q54.04 31.59 55.37 27.06L55.46 27.15L55.32 27.00Q56.10 24.90 56.10 22.20L56.00 22.09L56.00 22.10Q55.96 19.77 54.25 19.12L54.31 19.19L54.25 19.13Q54.29 18.90 53.72 18.22L53.75 18.24L53.60 18.10Q52.01 16.73 48.36 16.66L48.30 16.60L48.41 16.71Q40.41 16.44 35.73 13.43L35.84 13.54L35.67 13.37Q39.55 20.33 39.89 28.02L39.90 28.03L39.80 27.94Q40.13 35.88 37.01 42.73L37.10 42.82L37.02 42.75Q38.27 42.16 39.07 41.86L39.21 42.00L38.13 44.20L38.17 44.24Q40.79 43.09 43.46 42.59L43.62 42.75L43.47 42.61Q44.76 37.50 44.95 32.29L44.89 32.23L44.88 32.22Q48.48 37.26 51.64 40.38ZM50.47 22.54L50.34 22.41L50.41 22.48Q50.40 22.70 50.40 23.04L50.49 23.13L50.46 23.68L50.43 23.64Q50.35 24.67 49.67 25.62L49.70 25.65L49.72 25.68Q49.18 26.51 48.27 26.70L48.19 26.61L48.26 26.68Q48.08 26.77 46.48 26.81L46.42 26.75L46.36 26.69Q45.72 26.66 44.88 26.54L45.01 26.67L44.90 26.56Q44.80 25.06 44.46 22.01L44.44 21.99L44.43 21.99Q45.83 22.16 46.51 22.16L46.67 22.32L46.70 22.35Q48.36 22.18 50.30 22.37Z"/><path fill="#333" d="M70.31 29.00L70.24 28.93L70.16 28.85Q67.75 28.99 66.72 30.17L66.68 30.13L66.73 30.18Q65.56 31.21 65.56 33.84L65.61 33.90L65.60 33.88Q65.57 38.95 70.17 38.76L70.23 38.82L70.16 38.75Q72.32 39.01 73.67 37.45L73.70 37.47L73.70 37.47Q74.96 35.82 74.73 33.76L74.87 33.90L74.77 33.81Q74.89 31.38 74.02 30.35L73.87 30.20L73.99 30.32Q72.43 28.91 70.22 28.91ZM75.35 38.80L75.34 38.79L75.30 38.75Q74.17 41.27 69.49 41.27L69.37 41.16L67.97 41.20L67.99 41.22Q65.61 41.21 64.51 40.07L64.40 39.95L64.54 40.10Q63.41 38.96 63.14 36.57L63.27 36.69L63.21 36.63Q63.02 35.11 62.94 33.32L62.90 33.28L62.90 33.28Q62.83 32.26 62.68 30.32L62.70 30.34L62.87 30.50Q62.74 26.18 67.91 26.18L67.82 26.10L69.30 26.01L69.41 26.12Q72.32 26.14 74.42 27.43L74.48 27.50L74.32 27.34Q75.25 27.97 75.75 28.65L75.68 28.59L75.77 28.67Q75.88 27.72 76.41 26.08L76.47 26.13L76.48 26.15Q77.60 25.86 79.93 25.25L80.07 25.40L80.09 25.42Q77.33 29.47 77.33 34.73L77.39 34.79L77.53 34.92Q77.34 38.47 78.71 41.55L78.71 41.55L78.87 41.71Q77.71 41.39 75.81 41.16L75.79 41.14L75.81 41.17Q75.54 40.25 75.24 38.69ZM78.53 43.88L78.58 43.93L80.71 44.42L80.72 44.43Q81.90 44.70 82.89 45.16L82.96 45.23L82.94 45.21Q79.29 40.88 79.29 34.79L79.25 34.74L79.35 34.84Q79.33 30.30 81.47 26.49L81.49 26.51L81.51 26.53Q80.78 26.67 79.44 27.06L79.56 27.17L79.40 27.01Q79.91 26.42 80.78 24.89L80.61 24.72L80.65 24.76Q80.20 25.07 76.20 25.91L76.21 25.91L75.58 27.69L75.61 27.71Q73.81 25.95 69.40 25.72L69.29 25.62L69.35 25.68Q68.34 25.81 66.10 25.97L65.92 25.79L66.10 25.97Q62.29 26.20 62.41 30.23L62.37 30.20L62.50 30.33Q62.59 33.62 63.16 38.07L63.06 37.97L63.24 38.57L63.06 38.38Q63.20 39.25 64.00 40.35L64.16 40.51L64.15 40.51Q64.15 40.51 64.34 40.62L64.34 40.61L64.45 40.72Q64.76 41.27 65.14 41.84L65.07 41.77L64.97 41.67Q66.40 43.21 69.79 43.41L69.87 43.48L69.78 43.40Q71.57 43.66 71.72 43.66L71.59 43.53L73.14 43.52L73.13 43.51Q76.35 43.53 77.57 41.97L77.70 42.10L77.58 41.98Q77.87 42.54 78.48 43.83ZM72.07 31.22L72.11 31.26L72.09 31.24Q73.40 31.22 74.24 31.67L74.14 31.58L74.22 31.65Q74.49 32.42 74.49 33.86L74.45 33.83L74.52 33.90Q74.61 35.70 73.34 37.13L73.49 37.28L73.50 37.29Q72.05 38.55 70.15 38.36L70.16 38.37L70.24 38.44Q68.86 38.52 67.84 38.10L67.82 38.08L67.75 38.01Q67.53 37.14 67.53 35.92L67.66 36.05L67.59 35.99Q67.71 32.45 70.34 31.50L70.24 31.40L70.40 31.56Q71.18 31.13 71.98 31.13Z"/><path fill="#111" d="M20.97 28.99L20.96 28.98L20.90 28.92Q18.44 29.01 17.41 30.19L17.31 30.09L17.40 30.18Q16.29 31.28 16.29 33.90L16.34 33.96L16.39 34.01Q16.39 39.11 21.00 38.92L20.80 38.73L20.80 38.72Q23.01 39.03 24.36 37.47L24.37 37.47L24.25 37.35Q25.61 35.81 25.39 33.75L25.52 33.88L25.43 33.80Q25.56 31.38 24.68 30.35L24.68 30.34L24.56 30.22Q23.11 28.93 20.91 28.93ZM25.85 38.64L25.98 38.77L25.95 38.73Q24.74 41.17 20.05 41.17L20.13 41.25L18.70 41.27L18.64 41.20Q16.35 41.28 15.25 40.14L15.14 40.03L15.18 40.07Q14.04 38.93 13.78 36.53L13.80 36.55L13.84 36.59Q13.69 35.12 13.62 33.33L13.71 33.42L13.69 33.41Q13.60 32.36 13.45 30.42L13.49 30.46L13.35 30.32Q13.36 26.15 18.54 26.15L18.55 26.16L20.04 26.09L20.00 26.05Q23.01 26.16 25.10 27.45L25.00 27.36L25.06 27.41Q25.81 27.86 26.31 28.54L26.40 28.64L26.32 28.55Q26.57 27.74 27.10 26.10L27.16 26.16L27.20 26.21Q28.42 26.01 30.74 25.40L30.70 25.36L30.67 25.33Q28.13 29.60 28.13 34.86L28.08 34.81L28.18 34.90Q28.01 38.47 29.38 41.56L29.39 41.57L29.38 41.55Q28.36 41.37 26.46 41.15L26.47 41.15L26.44 41.12Q26.25 40.29 25.95 38.73ZM29.33 44.01L29.16 43.84L31.40 44.45L31.42 44.46Q32.73 44.86 33.72 45.32L33.67 45.27L33.62 45.23Q30.03 40.95 30.03 34.86L30.09 34.92L29.94 34.77Q30.02 30.32 32.15 26.51L32.11 26.46L32.11 26.47Q31.50 26.74 30.17 27.12L30.23 27.17L30.17 27.12Q30.41 26.25 31.29 24.73L31.28 24.72L31.44 24.88Q30.81 25.02 26.82 25.85L26.83 25.87L26.21 27.65L26.33 27.76Q24.42 25.89 20.00 25.66L20.00 25.66L20.05 25.71Q18.92 25.73 16.68 25.88L16.59 25.80L16.69 25.89Q13.07 26.31 13.18 30.34L13.11 30.27L13.14 30.30Q13.29 33.65 13.86 38.10L13.71 37.96L13.88 38.54L13.89 38.55Q13.85 39.23 14.65 40.34L14.64 40.32L14.83 40.52Q14.90 40.59 15.09 40.70L15.12 40.73L15.16 40.77Q15.40 41.24 15.79 41.82L15.68 41.71L15.78 41.81Q17.09 43.24 20.48 43.43L20.45 43.40L20.55 43.50Q22.12 43.54 22.27 43.54L22.29 43.56L23.91 43.62L23.81 43.52Q27.00 43.51 28.22 41.95L28.29 42.03L28.29 42.02Q28.62 42.62 29.23 43.92ZM22.59 31.07L22.65 31.13L22.69 31.18Q24.01 31.16 24.85 31.62L24.82 31.59L24.79 31.55Q25.17 32.43 25.17 33.88L25.25 33.96L25.07 33.77Q25.27 35.69 23.99 37.12L24.03 37.15L23.98 37.10Q22.82 38.65 20.92 38.46L20.95 38.49L20.90 38.44Q19.39 38.38 18.36 37.96L18.40 38.00L18.51 38.10Q18.16 37.11 18.16 35.89L18.31 36.04L18.26 35.99Q18.38 32.46 21.01 31.50L20.99 31.49L20.98 31.48Q21.85 31.13 22.65 31.13Z"/><path fill="#222" d="M114.60 49.57L114.65 49.62L114.71 49.69Q117.51 45.71 120.41 39.51L120.44 39.54L120.48 39.58Q117.30 32.98 111.21 24.91L111.22 24.92L111.30 25.00Q113.12 26.05 115.90 26.70L115.84 26.64L116.00 26.81Q119.48 31.42 121.91 36.64L121.90 36.62L121.90 36.62Q123.97 31.23 127.05 26.81L127.15 26.92L127.17 26.94Q129.35 26.57 131.45 25.77L131.36 25.68L131.41 25.72Q127.98 29.54 124.52 36.96L124.60 37.04L121.72 42.99L121.83 43.10Q120.35 46.19 118.60 48.81L118.45 48.67L118.45 48.67Q116.13 49.13 114.68 49.66ZM120.87 51.01L120.82 50.96L120.89 51.03Q122.50 48.04 123.95 44.76L124.03 44.85L126.62 38.38L126.67 38.43Q130.13 30.35 133.44 26.36L133.59 26.50L133.54 26.45Q132.28 27.20 130.37 27.89L130.22 27.74L131.29 26.37L131.33 26.41Q131.86 25.69 132.47 25.00L132.45 24.98L132.46 24.99Q129.85 26.11 126.99 26.56L126.89 26.47L127.02 26.60Q124.24 30.47 122.30 34.93L122.26 34.89L122.28 34.91Q120.59 31.55 118.80 28.73L118.78 28.70L118.79 28.72Q118.68 28.80 118.32 28.76L118.27 28.71L118.30 28.74Q117.95 28.72 117.76 28.72L117.73 28.68L117.72 28.68Q116.96 27.42 116.01 26.28L116.00 26.27L115.98 26.25Q112.96 25.74 110.22 24.03L110.15 23.96L110.15 23.96Q116.41 31.97 120.10 39.58L120.14 39.62L120.04 39.53Q117.90 44.62 113.83 50.25L113.85 50.27L113.73 50.15Q114.59 49.91 115.39 49.76L115.43 49.80L117.01 49.40L117.09 49.47Q116.48 50.20 115.30 51.84L115.20 51.74L115.17 51.71Q117.50 51.14 120.77 50.91Z"/><path fill="#111" d="M97.71 29.90L97.62 29.81L97.81 30.00Q95.25 29.84 93.92 31.06L93.82 30.96L93.84 30.98Q92.52 32.21 92.82 34.72L92.71 34.61L92.83 34.73Q93.13 37.24 94.34 38.49L94.23 38.38L94.33 38.48Q95.39 39.80 97.52 39.73L97.58 39.79L97.59 39.80Q98.03 39.67 98.22 39.67L98.28 39.73L98.35 39.80Q101.78 39.08 101.89 34.47L101.87 34.45L101.90 34.48Q101.93 32.07 101.25 31.27L101.30 31.33L101.25 31.28Q100.28 30.08 97.73 29.92ZM101.05 41.66L101.02 41.63L100.96 41.57Q99.65 42.17 98.09 42.09L98.18 42.18L98.18 42.18Q94.26 42.29 92.96 39.70L92.98 39.72L93.07 39.81Q92.92 45.18 91.58 49.44L91.59 49.44L91.46 49.32Q89.82 49.96 88.18 50.68L88.03 50.53L88.17 50.66Q90.67 44.64 90.40 37.68L90.36 37.63L90.34 37.61Q90.22 30.91 87.33 24.85L87.31 24.84L87.20 24.72Q89.11 25.88 90.83 26.33L90.94 26.45L91.39 27.85L91.33 27.79Q91.57 28.26 91.84 29.36L91.81 29.34L91.76 29.28Q92.89 27.34 96.47 27.15L96.32 26.99L96.32 26.99Q97.18 26.94 98.05 26.94L98.18 27.06L98.61 27.00L98.71 27.10Q98.67 26.95 98.86 26.98L98.99 27.12L99.25 27.07L99.22 27.04Q101.38 27.41 102.11 27.64L102.10 27.64L102.01 27.55Q103.54 28.05 104.42 29.00L104.42 29.00L104.40 28.98Q105.24 30.17 105.20 31.58L105.24 31.61L105.17 31.54Q105.25 34.48 104.45 37.14L104.37 37.06L104.43 37.12Q103.30 40.52 100.94 41.55ZM105.35 42.30L105.36 42.28L105.30 42.22Q106.48 40.31 106.78 36.20L106.69 36.11L106.62 36.04Q106.85 34.36 106.85 33.10L106.95 33.21L106.86 33.12Q106.80 31.53 106.03 30.12L106.08 30.17L106.19 30.28Q105.75 29.80 105.25 29.41L105.10 29.26L105.06 29.11L104.79 28.73L104.71 28.53L104.78 28.60Q103.08 26.59 98.74 26.59L98.69 26.54L98.03 26.50L98.10 26.56Q93.54 26.65 91.91 28.25L91.92 28.26L91.89 28.23Q91.63 27.64 91.48 27.14L91.42 27.08L91.20 26.06L91.23 26.09Q88.77 25.50 86.56 24.01L86.63 24.08L86.47 23.92Q89.71 30.20 90.01 37.43L90.04 37.46L90.02 37.45Q90.38 44.77 87.53 51.24L87.51 51.23L89.46 50.33L89.54 50.41Q89.33 51.18 88.65 52.75L88.60 52.70L88.66 52.76Q91.36 51.69 93.69 51.35L93.60 51.27L93.54 51.21Q94.64 46.37 94.79 42.63L94.78 42.63L94.79 42.64Q96.35 44.27 99.97 44.50L99.80 44.33L99.82 44.35Q103.93 44.77 105.38 42.34L105.37 42.32ZM99.52 32.06L99.61 32.15L99.63 32.17Q100.24 32.06 101.35 32.40L101.37 32.43L101.30 32.35Q101.72 33.50 101.69 34.68L101.68 34.68L101.60 34.60Q101.60 35.51 101.41 36.16L101.33 36.08L101.31 36.06Q100.59 38.95 98.07 39.25L98.18 39.36L98.32 39.38L98.27 39.34Q98.18 39.32 98.07 39.36L98.07 39.36L97.59 39.42L97.65 39.47Q96.43 39.43 95.44 38.94L95.34 38.84L94.96 36.75L95.05 36.84Q94.95 34.57 96.24 33.54L96.26 33.55L96.13 33.43Q97.24 32.44 99.64 32.18Z"/></svg>