<svg xmlns="http://www.w3.org/2000/svg" width="150" height="50" viewBox="0,0,150,50"><path fill="#333" d="M48.80 32.10L39.54 22.08L39.63 22.17Q40.42 25.82 40.42 29.55L40.53 29.65L40.45 29.58Q40.46 35.56 38.40 41.12L38.45 41.16L38.44 41.16Q37.39 41.44 35.15 42.20L35.02 42.08L35.16 42.21Q37.89 36.34 37.89 29.64L37.85 29.60L37.85 29.60Q37.82 20.93 33.33 13.51L33.49 13.67L33.43 13.60Q33.73 13.64 34.41 14.06L34.57 14.21L34.43 14.07Q46.66 25.43 54.50 34.68L54.44 34.62L54.48 34.66Q54.06 32.11 54.06 29.67L54.10 29.71L54.21 29.82Q54.16 22.54 56.67 16.33L56.70 16.35L56.67 16.33Q58.90 15.70 60.50 15.01L60.54 15.06L60.56 15.08Q57.21 21.21 56.91 28.37L57.02 28.48L57.01 28.47Q56.73 35.84 59.69 42.00L59.56 41.87L59.71 42.02Q59.12 41.92 58.70 41.73L58.67 41.71L58.64 41.67Q54.07 37.71 48.85 32.15L48.89 32.19ZM62.35 45.23L62.19 45.07L62.16 45.04Q62.65 45.23 63.07 45.42L63.10 45.45L63.95 45.80L64.02 45.88Q58.77 38.84 58.77 29.47L58.85 29.55L58.88 29.58Q58.84 22.30 62.15 16.06L62.22 16.13L62.20 16.11Q61.56 16.35 60.15 16.95L60.06 16.86L59.99 16.79Q60.38 15.97 61.22 14.41L61.39 14.58L61.28 14.47Q58.76 15.29 56.32 15.87L56.44 15.99L56.48 16.02Q53.73 22.37 53.73 29.80L53.79 29.86L53.86 29.93Q53.70 31.63 53.89 33.61L54.00 33.72L54.00 33.72Q49.30 27.99 44.54 23.38L44.59 23.44L34.52 13.75L34.47 13.69Q33.87 13.36 32.65 12.79L32.76 12.90L32.70 12.84Q37.63 20.62 37.63 29.72L37.52 29.62L37.64 29.73Q37.64 36.85 34.55 42.87L34.37 42.68L34.50 42.81Q34.81 42.71 36.45 42.10L36.31 41.96L36.34 41.99Q36.08 42.83 35.24 44.31L35.24 44.32L35.36 44.43Q36.55 43.76 40.02 42.96L40.01 42.95L40.05 43.00Q42.41 36.91 42.41 29.71L42.40 29.70L42.47 29.77Q42.37 27.58 42.14 25.44L42.14 25.44L42.25 25.55Q53.63 38.26 62.24 45.12Z"/><path fill="#222" d="M76.94 41.04L76.83 40.93L76.76 40.85Q75.47 39.19 74.18 36.10L74.29 36.22L72.07 30.99L72.05 30.97Q70.47 34.98 69.86 36.28L69.94 36.36L70.01 36.42Q68.52 39.32 66.92 41.22L66.96 41.26L66.86 41.16Q66.47 41.15 65.70 41.26L65.80 41.35L65.78 41.33Q65.78 33.91 59.96 27.97L59.97 27.99L59.89 27.91Q58.11 26.05 56.09 24.56L56.17 24.64L56.05 24.53Q58.10 25.28 59.97 25.59L59.97 25.59L59.90 25.52Q65.83 30.35 67.28 36.59L67.45 36.76L67.33 36.64Q68.22 34.79 69.40 31.59L69.46 31.66L69.40 31.59Q70.75 27.84 71.32 26.54L71.29 26.51L72.72 26.53L72.88 26.70Q73.61 28.26 74.79 31.54L74.86 31.61L74.74 31.49Q76.11 35.18 76.75 36.58L76.81 36.64L76.82 36.65Q78.69 30.41 84.17 25.85L84.07 25.74L84.17 25.84Q85.30 25.67 88.04 25.10L87.99 25.06L88.00 25.07Q79.40 31.13 78.22 41.10L78.16 41.04L77.53 40.94L77.56 40.97Q77.14 40.85 76.79 40.89ZM79.77 43.33L81.85 43.54L81.94 43.64Q81.67 42.15 81.67 40.63L81.49 40.45L81.51 40.47Q81.54 37.26 82.95 34.03L82.97 34.05L82.93 34.00Q84.87 29.43 88.98 26.35L89.17 26.54L89.01 26.38Q87.83 26.68 85.96 27.03L86.03 27.10L85.93 27.00Q87.95 25.39 89.24 24.48L89.26 24.50L86.75 24.95L86.79 25.00Q85.49 25.15 84.16 25.30L84.11 25.25L84.21 25.35Q79.01 29.55 77.07 34.58L77.15 34.66L77.14 34.65Q76.50 32.48 75.13 28.22L75.03 28.13L75.06 28.15Q74.75 28.18 74.48 28.18L74.52 28.23L73.87 28.11L74.02 28.26Q73.81 27.86 73.01 26.11L73.12 26.22L71.01 26.15L71.00 26.15Q70.04 28.95 67.94 34.59L67.99 34.64L67.91 34.56Q66.58 30.87 63.50 27.59L63.43 27.53L63.49 27.59Q63.30 27.67 63.00 27.63L62.97 27.60L62.36 27.45L62.38 27.46Q61.48 26.60 59.69 25.00L59.68 24.99L59.66 24.98Q56.63 24.45 54.95 23.96L54.88 23.89L54.95 23.95Q65.61 31.34 65.23 41.66L65.24 41.67L65.30 41.73Q65.54 41.78 65.90 41.74L65.83 41.67L65.76 41.60Q66.26 41.70 66.45 41.70L66.32 41.57L66.41 41.66Q66.47 41.57 66.66 43.66L66.58 43.58L68.49 43.40L68.57 43.48Q71.03 40.53 73.27 34.78L73.29 34.80L73.28 34.79Q74.82 38.69 76.69 41.35L76.63 41.30L76.61 41.28Q77.06 41.39 77.33 41.41L77.24 41.32L77.18 41.26Q77.61 41.44 77.88 41.44L77.88 41.45L79.82 43.39Z"/><path fill="#111" d="M89.91 49.56L89.93 49.57L90.08 49.73Q92.86 45.73 95.76 39.53L95.79 39.55L95.79 39.56Q92.72 33.06 86.63 24.99L86.57 24.93L86.59 24.95Q88.50 26.11 91.28 26.75L91.20 26.67L91.25 26.72Q94.78 31.39 97.22 36.61L97.28 36.67L97.18 36.57Q99.38 31.31 102.47 26.90L102.41 26.84L102.52 26.95Q104.75 26.63 106.84 25.83L106.83 25.81L106.84 25.82Q103.43 29.65 99.97 37.08L99.95 37.06L97.08 43.02L97.10 43.03Q95.68 46.19 93.93 48.82L93.96 48.84L93.85 48.74Q91.34 49.01 89.90 49.54ZM96.09 50.90L96.25 51.06L96.17 50.98Q97.89 48.09 99.34 44.82L99.35 44.83L102.12 38.55L102.13 38.55Q105.65 30.53 108.96 26.54L108.91 26.49L108.79 26.37Q107.59 27.19 105.69 27.87L105.54 27.72L106.68 26.43L106.65 26.40Q107.28 25.77 107.88 25.08L107.81 25.01L107.74 24.93Q105.18 26.11 102.32 26.56L102.31 26.55L102.23 26.47Q99.47 30.37 97.53 34.83L97.58 34.87L97.62 34.91Q95.91 31.53 94.12 28.71L94.16 28.75L94.11 28.71Q93.92 28.71 93.56 28.67L93.69 28.80L93.57 28.67Q93.28 28.71 93.09 28.71L92.99 28.62L93.12 28.75Q92.40 27.53 91.45 26.39L91.26 26.20L91.27 26.20Q88.20 25.65 85.46 23.94L85.42 23.89L85.42 23.89Q91.76 31.99 95.45 39.60L95.39 39.54L95.48 39.63Q93.19 44.57 89.11 50.20L89.14 50.23L89.19 50.28Q90.05 50.04 90.85 49.89L90.77 49.81L92.44 49.49L92.47 49.52Q91.68 50.06 90.50 51.70L90.55 51.76L90.66 51.86Q92.95 51.26 96.23 51.03Z"/><path fill="#333" d="M23.75 29.95L23.66 29.86L23.63 29.82Q21.21 29.80 19.87 31.02L19.81 30.95L19.92 31.06Q18.51 32.21 18.82 34.72L18.85 34.75L18.72 34.62Q19.09 37.20 20.30 38.45L20.42 38.57L20.39 38.54Q21.47 39.89 23.60 39.81L23.51 39.72L23.47 39.68Q24.11 39.74 24.30 39.74L24.30 39.75L24.22 39.67Q27.88 39.17 27.99 34.57L28.01 34.59L28.04 34.61Q27.95 32.09 27.27 31.29L27.42 31.44L27.30 31.33Q26.36 30.15 23.81 30.00ZM27.00 41.61L27.12 41.73L26.95 41.56Q25.69 42.20 24.13 42.12L24.15 42.15L24.12 42.12Q20.26 42.29 18.97 39.71L18.97 39.71L19.05 39.79Q18.89 45.14 17.55 49.41L17.49 49.34L17.57 49.42Q15.67 49.81 14.04 50.54L13.99 50.49L14.15 50.65Q16.56 44.54 16.30 37.57L16.36 37.64L16.38 37.65Q16.04 30.73 13.15 24.68L13.16 24.68L13.16 24.68Q15.10 25.86 16.81 26.32L16.93 26.44L17.37 27.83L17.44 27.90Q17.57 28.26 17.84 29.37L17.86 29.38L17.74 29.27Q18.83 27.27 22.41 27.08L22.47 27.14L22.34 27.01Q23.19 26.95 24.07 26.95L24.22 27.11L24.55 26.94L24.59 26.98Q24.77 27.05 24.97 27.09L24.89 27.01L25.21 27.03L25.22 27.04Q27.38 27.41 28.10 27.64L28.15 27.68L27.97 27.50Q29.53 28.03 30.40 28.99L30.38 28.96L30.33 28.91Q31.28 30.21 31.24 31.61L31.30 31.67L31.27 31.64Q31.28 34.50 30.48 37.17L30.33 37.02L30.43 37.12Q29.30 40.52 26.94 41.54ZM31.20 42.15L31.31 42.23L31.32 42.24Q32.34 40.18 32.65 36.06L32.75 36.16L32.78 36.19Q32.82 34.33 32.82 33.08L32.84 33.10L32.81 33.07Q32.93 31.67 32.17 30.26L32.07 30.15L32.04 30.13Q31.75 29.80 31.25 29.42L31.11 29.27L31.03 29.08L30.89 28.82L30.83 28.65L30.80 28.62Q29.16 26.67 24.82 26.67L24.84 26.69L24.17 26.64L24.10 26.57Q19.47 26.58 17.84 28.18L17.89 28.23L17.77 28.12Q17.67 27.67 17.52 27.18L17.51 27.17L17.30 26.16L17.26 26.13Q14.84 25.57 12.64 24.09L12.62 24.07L12.51 23.96Q15.78 30.28 16.09 37.51L16.06 37.48L16.16 37.59Q16.39 44.78 13.53 51.25L13.45 51.17L15.45 50.31L15.60 50.46Q15.32 51.17 14.63 52.73L14.60 52.70L14.51 52.61Q17.33 51.66 19.65 51.31L19.69 51.36L19.66 51.32Q20.72 46.45 20.87 42.72L20.83 42.68L20.95 42.79Q22.24 44.16 25.86 44.39L25.96 44.49L25.81 44.34Q29.87 44.71 31.32 42.27L31.29 42.24ZM25.64 32.18L25.69 32.22L25.61 32.15Q26.34 32.15 27.44 32.50L27.39 32.45L27.38 32.43Q27.70 33.48 27.67 34.66L27.70 34.69L27.57 34.57Q27.60 35.51 27.41 36.16L27.37 36.12L27.44 36.19Q26.73 39.09 24.21 39.39L24.23 39.41L24.37 39.44L24.25 39.32Q24.16 39.30 24.04 39.34L24.19 39.48L23.52 39.35L23.48 39.30Q22.31 39.32 21.32 38.83L21.41 38.91L20.93 36.72L21.02 36.81Q20.94 34.56 22.23 33.53L22.28 33.57L22.22 33.52Q23.16 32.37 25.56 32.10Z"/><path fill="#333" d="M117.57 30.58L117.68 30.69L117.71 30.72Q117.67 30.68 121.06 30.64L120.96 30.54L120.93 30.52Q123.29 30.59 124.36 30.63L124.30 30.57L124.39 30.67Q123.37 27.81 120.93 22.18L120.96 22.20L120.83 22.08Q120.25 23.48 119.20 26.33L119.23 26.36L119.30 26.43Q118.17 29.21 117.60 30.62ZM125.46 33.11L125.46 33.10L125.51 33.15Q123.12 33.01 120.91 33.04L121.07 33.21L120.91 33.05Q118.82 33.24 116.54 33.43L116.37 33.26L116.50 33.40Q114.96 36.80 111.72 40.99L111.60 40.87L111.62 40.89Q109.14 41.61 107.77 42.10L107.77 42.10L107.73 42.06Q112.82 36.38 117.51 23.02L117.55 23.06L117.54 23.05Q118.77 19.60 120.14 16.36L120.04 16.26L120.15 16.38Q120.52 16.44 120.87 16.44L120.92 16.49L121.62 16.47L121.53 16.38Q122.21 17.67 127.04 29.32L127.18 29.45L127.16 29.44Q130.32 37.16 134.32 41.31L134.28 41.27L134.43 41.42Q133.86 41.24 129.98 40.36L130.00 40.39L129.92 40.30Q127.49 37.30 125.51 33.15ZM129.84 40.64L129.84 40.64L130.46 40.77L130.45 40.76Q130.78 40.86 131.08 40.97L131.07 40.96L131.04 40.93Q131.40 41.33 133.23 43.35L133.21 43.33L133.30 43.42Q136.85 44.23 139.25 45.26L139.15 45.15L139.20 45.21Q133.71 40.66 129.71 32.67L129.67 32.63L129.80 32.77Q128.19 29.47 126.74 25.51L126.62 25.40L123.97 17.99L123.96 17.98Q123.58 17.94 123.35 17.94L123.48 18.07L122.98 18.10L122.87 17.99Q122.62 17.43 121.89 16.06L121.85 16.01L121.78 15.95Q121.39 16.09 120.93 16.05L120.83 15.95L120.92 16.04Q120.40 15.94 119.87 15.94L119.79 15.86L119.78 15.85Q118.53 19.93 114.65 30.10L114.50 29.94L114.57 30.02Q111.48 38.01 106.84 42.81L106.84 42.81L106.80 42.77Q107.74 42.26 109.76 41.65L109.85 41.74L109.86 41.75Q109.04 42.57 107.48 44.36L107.55 44.43L107.44 44.32Q109.25 43.77 113.17 43.01L113.14 42.97L113.20 43.04Q116.61 38.68 118.17 35.45L118.25 35.53L118.19 35.47Q119.88 35.29 122.20 35.33L122.22 35.35L122.16 35.29Q124.90 35.32 126.27 35.40L126.35 35.48L126.26 35.39Q127.58 37.81 129.94 40.75ZM122.15 25.99L122.10 25.93L122.12 25.96Q123.16 28.21 123.92 30.30L123.92 30.30L120.46 30.16L120.44 30.13Q121.18 28.87 122.25 26.09Z"/></svg>