<svg xmlns="http://www.w3.org/2000/svg" width="150" height="50" viewBox="0,0,150,50"><path fill="#111" d="M68.50 29.62L68.61 29.73L68.60 29.73Q68.43 33.82 67.71 37.97L67.84 38.10L67.87 38.13Q70.03 37.48 73.11 37.36L73.21 37.46L73.17 37.42Q74.52 37.62 75.58 36.61L75.49 36.52L75.51 36.54Q76.63 35.58 76.63 34.25L76.55 34.18L76.65 34.27Q76.58 33.90 76.55 33.64L76.63 33.72L76.59 33.68Q76.37 30.68 74.13 29.85L74.17 29.89L74.20 29.92Q73.31 29.48 72.62 29.56L72.68 29.62L72.76 29.70Q71.63 29.56 70.60 29.59L70.54 29.54L70.64 29.63Q69.47 29.57 68.45 29.57ZM67.29 19.20L67.29 19.21L67.33 19.25Q68.09 22.44 68.36 26.82L68.50 26.96L68.50 26.96Q69.88 27.01 72.54 27.05L72.49 26.99L72.54 27.04Q75.45 27.06 75.80 23.52L75.76 23.49L75.88 23.61Q76.01 21.60 74.60 20.76L74.69 20.86L74.69 20.85Q73.70 20.25 69.28 19.60L69.19 19.51L69.34 19.66Q68.20 19.43 67.29 19.20ZM63.55 41.99L63.56 42.01L63.70 42.14Q66.03 35.34 65.76 27.96L65.81 28.00L65.78 27.97Q65.53 20.71 62.59 14.24L62.59 14.24L62.63 14.27Q66.33 16.72 72.56 16.97L72.68 17.10L72.71 17.12Q78.78 17.21 79.12 20.11L79.14 20.12L79.19 20.18Q79.51 22.93 78.10 25.60L78.21 25.70L78.13 25.63Q77.49 27.23 75.89 27.92L75.73 27.76L75.75 27.78Q79.46 28.52 79.69 33.89L79.59 33.79L79.70 33.90Q79.71 34.93 79.63 36.34L79.66 36.37L79.75 36.46Q79.61 37.69 78.68 38.62L78.63 38.58L78.70 38.65Q77.67 39.48 76.34 39.63L76.36 39.66L76.35 39.65Q74.93 39.79 73.86 39.79L73.92 39.84L73.83 39.75Q68.26 39.89 63.73 42.18ZM76.34 42.30L76.36 42.32L76.35 42.31Q77.37 42.45 79.23 42.57L79.19 42.53L79.29 42.63Q80.65 42.61 81.75 41.74L81.72 41.70L81.82 41.80Q82.60 40.87 82.49 39.31L82.46 39.28L82.41 39.23Q82.42 38.37 81.70 34.90L81.63 34.84L81.64 34.85Q80.98 31.63 79.11 30.15L79.01 30.04L78.78 29.40L78.64 29.26Q80.40 27.93 80.97 24.16L81.02 24.22L80.98 24.17Q81.16 23.06 81.09 21.65L81.10 21.67L80.97 21.54Q80.91 20.22 79.81 19.39L79.79 19.37L79.96 19.54Q79.61 19.30 79.49 19.26L79.40 19.17L79.44 19.21Q79.16 18.66 78.32 17.86L78.33 17.87L78.32 17.86Q76.89 16.89 72.67 16.70L72.50 16.53L72.49 16.53Q66.02 16.41 62.02 13.52L61.95 13.44L62.04 13.54Q65.20 20.42 65.50 27.96L65.60 28.05L65.46 27.92Q65.84 35.80 63.02 42.72L63.06 42.77L65.17 41.87L65.13 41.83Q64.85 43.07 64.35 44.21L64.24 44.10L64.34 44.20Q68.50 42.19 73.53 42.19L73.66 42.33L73.50 42.16Q74.92 42.18 76.37 42.33ZM74.40 31.95L74.21 31.76L74.40 31.95Q75.09 31.83 76.00 32.29L76.01 32.30L76.01 32.31Q75.99 32.52 76.15 33.58L76.21 33.64L76.23 33.66Q76.45 35.06 75.52 36.11L75.50 36.10L75.37 35.96Q74.62 37.19 73.21 37.07L73.13 36.99L71.71 37.17L71.70 37.17Q70.81 37.07 70.09 37.19L70.12 37.22L70.06 37.16Q70.43 35.40 70.51 31.94L70.55 31.98L70.62 32.05Q71.15 31.86 72.41 31.82L72.38 31.79L72.50 31.92Q73.67 31.79 74.28 31.83ZM73.24 22.22L73.21 22.20L73.62 22.23L73.57 22.17Q73.94 22.31 74.13 22.35L73.99 22.21L74.42 22.26L74.73 22.38L75.39 22.50L75.47 22.58Q75.56 22.83 75.56 23.13L75.40 22.97L75.40 23.51L75.49 23.59Q75.54 24.91 74.67 25.84L74.61 25.78L74.70 25.87Q73.80 26.78 72.59 26.78L72.52 26.72L72.42 26.62Q71.46 26.68 71.46 26.68L71.55 26.77L71.39 26.62Q70.20 26.72 70.54 26.72L70.48 26.66L70.46 26.63Q70.48 25.17 70.18 22.13L70.09 22.04L70.09 22.04Q71.73 22.23 73.25 22.23Z"/><path fill="#444" d="M30.41 30.29L30.35 30.23L30.36 30.24Q30.66 30.05 30.63 29.63L30.58 29.58L30.53 29.53Q30.47 29.17 30.17 28.98L30.15 28.96L30.24 29.05Q29.44 28.41 28.57 28.56L28.61 28.60L28.60 28.59Q27.48 28.53 25.84 29.64L25.77 29.56L25.84 29.64Q24.38 30.50 24.38 31.68L24.43 31.73L24.49 31.79Q24.49 33.05 24.49 36.36L24.52 36.39L24.46 36.33Q24.32 38.78 24.48 40.80L24.57 40.89L24.60 40.92Q22.79 40.82 22.79 40.82L22.92 40.96L22.77 40.80Q21.77 40.76 21.05 40.84L21.12 40.91L21.20 40.99Q21.45 38.31 21.53 36.06L21.59 36.12L21.52 36.06Q21.69 31.43 21.04 30.13L21.13 30.22L21.10 30.19Q20.82 29.60 20.25 29.30L20.25 29.30L20.24 29.29Q19.47 28.63 17.91 28.52L17.85 28.46L17.91 28.52Q15.95 28.36 15.42 29.96L15.37 29.90L15.25 29.79Q15.27 30.45 15.38 30.94L15.33 30.89L15.25 30.81Q15.90 33.56 15.56 36.33L15.57 36.35L15.64 36.42Q15.29 39.19 13.88 41.62L13.99 41.73L13.99 41.73Q12.93 41.86 10.84 42.27L10.84 42.28L10.80 42.24Q13.32 39.00 13.32 34.70L13.22 34.61L13.31 34.70Q13.29 28.81 9.25 24.59L9.21 24.54L9.15 24.48Q10.05 24.93 11.00 25.16L11.05 25.20L12.69 25.51L12.63 25.45Q13.11 26.08 13.99 27.76L14.10 27.87L14.09 27.86Q14.14 25.86 16.58 25.82L16.58 25.82L16.71 25.95Q16.83 25.88 17.82 25.95L17.78 25.92L17.75 25.89Q22.77 26.22 23.91 29.04L23.85 28.98L23.96 29.09Q25.69 26.44 30.71 25.91L30.61 25.80L30.62 25.82Q31.31 25.63 32.19 25.75L32.23 25.79L32.20 25.76Q34.56 26.09 34.40 27.66L34.39 27.65L34.28 27.53Q34.26 28.24 33.99 29.00L34.06 29.06L33.92 28.93Q32.53 31.95 32.75 35.49L32.86 35.59L32.72 35.45Q33.00 39.00 34.90 41.82L34.92 41.84L34.88 41.80Q33.27 41.53 31.45 41.30L31.42 41.27L31.36 41.21Q30.22 38.73 30.03 35.96L30.09 36.02L30.09 36.02Q29.86 33.13 30.51 30.39ZM31.26 41.72L31.12 41.58L31.19 41.65Q31.90 41.72 33.24 41.91L33.17 41.84L33.23 41.90Q33.78 42.64 34.92 44.05L34.92 44.05L34.98 44.11Q37.79 44.55 39.88 45.20L39.84 45.16L39.88 45.20Q35.00 41.42 34.73 34.91L34.55 34.73L34.56 34.74Q34.59 32.75 35.20 30.85L35.11 30.76L35.21 30.86Q35.34 29.89 35.34 29.16L35.43 29.26L35.41 29.23Q35.34 28.25 34.73 27.67L34.72 27.67L34.68 27.59L34.69 27.60Q34.85 27.19 34.77 26.69L34.74 26.66L34.71 26.63Q34.60 26.10 34.15 25.84L34.14 25.83L34.18 25.87Q33.47 25.35 32.60 25.31L32.68 25.40L32.55 25.27Q29.88 25.34 27.21 26.29L27.18 26.26L27.06 26.14Q25.18 26.92 24.00 28.33L23.98 28.31L23.96 28.29Q22.50 25.92 17.67 25.58L17.57 25.48L17.57 25.48Q16.89 25.45 16.47 25.45L16.57 25.55L16.52 25.49Q14.40 25.43 13.79 26.69L13.75 26.65L13.90 26.79Q13.42 26.12 12.73 25.06L12.76 25.08L12.90 25.22Q10.31 24.57 8.33 23.93L8.43 24.03L8.43 24.03Q13.06 28.40 13.06 34.68L12.98 34.60L13.02 34.64Q13.08 39.41 10.22 42.88L10.11 42.76L10.18 42.83Q10.64 42.68 11.13 42.61L11.07 42.55L12.06 42.39L12.07 42.40Q11.42 43.50 10.32 44.72L10.37 44.78L10.35 44.75Q11.95 44.41 15.07 43.80L15.03 43.76L15.01 43.75Q17.64 39.60 17.64 34.69L17.67 34.71L17.65 34.70Q17.77 34.02 17.69 33.18L17.57 33.06L17.56 33.04Q17.46 32.26 18.45 31.46L18.48 31.49L18.58 31.63L18.60 31.65Q19.16 31.14 20.34 31.03L20.30 30.99L20.30 30.99Q20.73 31.00 21.04 31.00L21.04 31.00L21.22 31.37L21.04 31.19Q21.35 33.94 21.23 36.30L21.26 36.33L21.25 36.31Q21.09 38.55 20.59 41.22L20.57 41.20L20.60 41.22Q21.70 41.30 21.70 41.30L21.72 41.31L21.72 41.31Q23.19 41.34 22.85 41.34L22.71 41.20L22.83 41.32Q22.78 41.77 22.75 42.23L22.73 42.21L22.81 42.29Q22.79 42.77 22.79 43.26L22.82 43.29L25.18 43.18L25.19 43.19Q26.45 43.20 27.71 43.27L27.72 43.29L27.76 43.32Q26.19 39.58 26.38 33.64L26.35 33.61L26.40 33.66Q26.47 32.59 27.65 31.83L27.51 31.69L27.67 31.85Q28.57 31.04 29.83 30.85L29.70 30.72L30.14 30.85L30.16 30.87Q29.56 32.63 29.56 34.61L29.69 34.74L29.66 34.72Q29.58 38.41 31.11 41.57ZM25.79 30.24L25.82 30.04L25.63 30.19L25.76 30.21Z"/><path fill="#222" d="M47.31 30.40L47.38 30.47L47.36 30.45Q43.82 36.73 40.39 40.69L40.35 40.65L40.39 40.69Q38.64 41.23 36.21 42.10L36.10 41.99L36.07 41.97Q40.97 36.36 45.73 27.94L45.88 28.09L45.82 28.04Q41.11 20.96 35.13 14.57L35.27 14.71L35.19 14.63Q38.18 15.90 40.46 16.40L40.47 16.41L40.49 16.42Q45.01 21.51 47.45 25.47L47.41 25.44L47.53 25.56Q49.98 21.08 53.90 16.66L53.98 16.75L53.88 16.64Q55.55 16.41 58.75 15.65L58.79 15.69L58.81 15.71Q52.68 22.11 49.22 28.05L49.10 27.93L49.18 28.00Q54.42 36.75 58.80 41.32L58.69 41.21L58.81 41.32Q56.15 40.45 54.05 40.23L54.11 40.29L54.03 40.20Q51.26 37.24 47.34 30.43ZM54.04 40.64L53.89 40.48L53.97 40.56Q54.24 40.57 54.70 40.68L54.70 40.69L54.78 40.76Q55.47 41.41 56.99 43.01L57.16 43.18L56.99 43.01Q60.39 43.86 63.43 45.23L63.50 45.30L63.53 45.33Q56.32 38.65 51.22 29.89L51.27 29.94L51.22 29.90Q55.06 23.34 60.96 16.49L60.87 16.40L60.80 16.33Q59.35 16.98 57.18 17.51L57.16 17.48L57.21 17.54Q58.06 16.59 59.81 14.80L59.92 14.92L59.82 14.82Q57.53 15.80 53.84 16.37L53.80 16.33L53.86 16.39Q50.27 20.03 47.68 24.33L47.87 24.53L47.78 24.44Q46.87 22.84 45.68 21.35L45.75 21.42L43.49 18.51L42.95 18.35L43.03 18.43Q42.83 18.38 42.60 18.30L42.67 18.38L42.55 18.26Q42.00 17.55 40.52 15.99L40.56 16.03L40.51 15.99Q36.72 15.13 34.14 13.76L34.11 13.73L34.11 13.74Q40.89 21.05 45.45 28.09L45.47 28.10L45.28 27.92Q40.90 36.21 35.16 42.80L35.06 42.70L35.07 42.72Q36.44 42.11 38.58 41.54L38.64 41.60L37.34 43.04L37.31 43.01Q37.31 43.02 35.98 44.35L35.97 44.33L35.93 44.29Q39.02 43.31 42.18 42.82L42.21 42.85L42.10 42.74Q46.08 38.19 48.67 33.43L48.72 33.49L48.63 33.40Q51.29 37.73 53.99 40.58Z"/><path fill="#222" d="M112.27 14.26L112.37 14.36L112.39 14.38Q116.16 16.90 120.92 17.13L120.85 17.05L120.87 17.07Q125.44 17.19 129.71 15.44L129.77 15.50L129.77 15.50Q129.44 15.97 128.68 18.75L128.67 18.74L128.81 18.89Q125.97 19.81 123.00 19.97L123.13 20.09L123.07 20.03Q120.06 20.15 117.17 19.43L117.22 19.48L117.26 19.51Q117.90 23.08 118.09 26.74L117.98 26.63L118.11 26.76Q120.01 26.88 121.61 26.84L121.62 26.84L121.71 26.94Q122.86 26.86 125.26 26.75L125.21 26.71L125.35 26.85Q125.33 27.51 125.33 28.20L125.27 28.14L125.19 29.39L125.30 29.50Q122.92 29.52 118.12 29.59L118.05 29.52L118.10 29.57Q118.02 33.60 117.44 37.59L117.52 37.67L117.43 37.58Q120.16 37.04 122.90 37.15L122.80 37.05L122.86 37.11Q125.50 37.12 128.09 37.96L128.07 37.94L128.05 37.92Q128.18 38.77 128.44 39.53L128.54 39.63L128.86 41.01L129.03 41.18Q125.67 39.73 122.25 39.73L122.35 39.83L122.26 39.75Q117.53 39.89 113.27 42.14L113.13 42.00L113.27 42.14Q115.60 35.33 115.33 28.21L115.33 28.21L115.30 28.18Q115.03 21.02 112.37 14.36ZM112.79 42.87L112.75 42.83L112.70 42.78Q113.86 41.96 114.62 41.62L114.77 41.77L114.68 41.68Q114.60 42.55 114.02 44.07L113.85 43.90L114.00 44.05Q118.44 41.98 123.50 42.24L123.56 42.30L123.56 42.30Q128.72 42.59 132.72 45.29L132.63 45.20L132.81 45.38Q131.59 42.79 130.90 40.85L130.82 40.77L130.76 40.70Q129.88 40.21 128.89 39.87L128.92 39.90L128.94 39.91Q128.50 38.49 128.35 37.69L128.28 37.62L128.41 37.75Q125.17 36.60 122.01 36.60L122.08 36.67L122.03 36.62Q120.97 36.70 119.83 36.82L119.87 36.86L119.83 36.82Q119.91 35.53 119.95 34.31L119.97 34.34L119.94 31.72L120.04 31.82Q121.77 31.64 123.56 31.68L123.67 31.79L123.59 31.70Q125.52 31.85 127.31 32.00L127.34 32.03L127.34 32.03Q127.26 31.08 127.26 30.13L127.25 30.12L127.22 28.18L126.45 28.29L126.34 28.17Q125.93 28.26 125.47 28.26L125.62 28.41L125.62 28.41Q125.48 27.58 125.63 26.29L125.72 26.38L125.62 26.28Q124.03 26.51 122.85 26.55L122.80 26.50L122.97 26.68Q121.87 26.52 120.04 26.45L120.17 26.58L120.12 26.53Q119.98 25.05 119.79 22.23L119.93 22.38L119.82 22.27Q120.88 22.41 121.87 22.41L121.84 22.38L121.86 22.41Q126.67 22.49 130.36 20.59L130.32 20.55L130.24 20.47Q130.77 18.06 131.64 15.85L131.66 15.87L131.69 15.90Q130.43 16.81 129.59 17.16L129.66 17.22L129.63 17.19Q129.95 16.44 130.40 14.88L130.39 14.87L130.32 14.80Q125.64 16.89 120.77 16.59L120.73 16.56L120.77 16.59Q115.54 16.35 111.70 13.50L111.65 13.45L111.74 13.54Q114.63 20.50 114.93 28.11L114.80 27.98L114.95 28.13Q115.24 36.04 112.73 42.81Z"/><path fill="#333" d="M99.50 27.09L99.59 27.18L99.60 27.19Q100.38 27.17 101.79 27.02L101.85 27.08L101.71 26.94Q101.76 27.68 101.76 28.32L101.75 28.31L101.66 29.48L101.84 29.65Q100.99 29.64 100.15 29.72L100.13 29.70L100.17 29.74Q99.24 29.68 98.40 29.64L98.49 29.74L98.36 29.60Q95.63 35.90 92.20 40.50L92.17 40.47L92.18 40.48Q89.56 41.02 88.27 41.63L88.23 41.59L88.34 41.70Q92.34 35.88 95.38 29.59L95.49 29.70L92.80 29.64L92.92 29.76Q92.90 28.41 92.79 27.08L92.81 27.10L92.82 27.11Q94.54 27.07 96.59 27.07L96.71 27.19L98.54 23.42L98.66 23.54Q99.55 21.54 100.77 19.94L100.70 19.88L100.79 19.96Q99.18 20.07 97.58 20.07L97.66 20.14L97.58 20.06Q91.65 20.22 87.88 18.02L87.82 17.96L87.07 16.14L87.18 16.25Q86.86 15.44 86.48 14.56L86.32 14.40L86.37 14.45Q90.81 17.18 96.52 17.41L96.54 17.43L96.44 17.33Q101.62 17.59 106.76 15.62L106.66 15.52L106.67 15.53Q106.58 16.04 106.08 16.92L106.08 16.92L106.01 16.85Q102.34 21.55 99.48 27.07ZM107.73 18.34L107.73 18.34L108.63 16.23L108.73 16.33Q107.79 16.84 106.11 17.56L106.01 17.46L106.20 17.16L106.28 17.24Q106.28 16.97 106.39 16.85L106.48 16.94L106.49 16.95Q106.78 16.17 107.50 14.84L107.47 14.80L107.60 14.93Q102.19 17.14 96.44 16.91L96.51 16.98L96.50 16.97Q90.43 16.65 85.67 13.68L85.61 13.62L85.67 13.68Q86.63 15.48 87.47 18.14L87.58 18.26L87.65 18.32Q88.59 18.81 89.39 19.11L89.54 19.26L89.42 19.15Q89.64 19.55 90.10 21.42L90.03 21.35L89.97 21.29Q93.17 22.59 98.69 22.44L98.66 22.41L98.83 22.57Q98.52 23.14 96.54 26.91L96.54 26.91L96.40 26.76Q94.31 26.73 92.33 26.54L92.42 26.64L92.38 26.60Q92.55 27.52 92.55 28.40L92.51 28.36L92.53 30.10L94.21 30.10L94.14 31.43L94.26 31.55Q90.16 38.77 87.38 42.35L87.51 42.47L87.57 42.53Q89.10 41.70 90.74 41.21L90.72 41.18L90.77 41.24Q90.05 42.12 88.68 43.83L88.63 43.78L88.71 43.86Q91.85 42.74 94.29 42.51L94.29 42.51L94.16 42.38Q97.13 38.65 100.25 31.88L100.40 32.03L103.74 32.13L103.71 32.10Q103.66 31.21 103.66 30.30L103.70 30.34L103.71 28.55L103.64 28.49Q103.32 28.43 102.77 28.47L102.79 28.50L102.92 28.63Q102.27 28.57 102.01 28.57L102.05 28.61L101.97 28.53Q102.09 28.54 102.13 28.39L102.01 28.26L101.99 27.98L102.07 28.06Q104.61 22.95 107.70 18.31Z"/></svg>