<svg xmlns="http://www.w3.org/2000/svg" width="150" height="50" viewBox="0,0,150,50"><path fill="#444" d="M104.55 23.21L104.60 23.26L104.55 23.22Q102.87 19.18 96.67 19.37L96.66 19.36L96.73 19.43Q92.31 19.54 90.33 20.99L90.36 21.01L90.31 20.96Q87.86 22.66 87.86 26.77L87.82 26.73L87.97 28.75L87.96 28.74Q87.88 37.50 96.90 37.50L96.96 37.56L96.95 37.54Q99.06 37.60 100.55 36.80L100.48 36.73L100.54 36.79Q102.34 35.74 102.19 33.87L102.20 33.88L102.07 33.75Q101.99 31.77 98.30 30.85L98.28 30.84L96.34 30.84L96.39 30.89Q95.39 30.84 94.43 30.88L94.45 30.89L94.39 30.83Q94.33 29.82 94.29 27.92L94.32 27.95L94.39 28.02Q102.03 28.01 106.22 27.66L106.13 27.57L106.16 27.60Q106.28 28.60 106.28 29.40L106.15 29.27L106.19 29.31Q106.26 30.18 106.30 30.98L106.14 30.82L106.23 30.91Q105.10 30.88 105.10 30.88L105.05 30.83L105.17 30.95Q103.69 30.84 104.07 30.84L104.15 30.93L104.07 30.84Q105.10 32.40 105.48 34.38L105.55 34.45L105.52 34.42Q105.69 35.20 105.69 35.66L105.63 35.60L105.76 35.73Q105.72 40.34 96.93 40.34L96.84 40.25L96.97 40.38Q89.72 40.25 87.13 38.16L87.15 38.17L87.16 38.18Q85.20 35.84 85.20 30.77L85.27 30.85L85.27 30.85Q85.18 29.69 85.02 26.98L85.01 26.97L85.09 27.05Q84.90 24.65 84.94 23.28L84.99 23.33L84.92 23.27Q85.13 20.50 86.50 18.90L86.44 18.85L86.37 18.78Q88.93 16.73 93.81 16.54L93.78 16.52L96.51 16.51L96.45 16.45Q99.65 16.44 103.07 16.86L103.06 16.85L102.98 16.77Q106.74 17.25 107.69 20.49L107.77 20.57L107.68 20.48Q106.63 21.37 104.54 23.20ZM106.05 25.51L106.20 25.55L106.13 25.48Q107.31 24.37 109.17 22.39L109.26 22.48L109.13 22.34Q108.85 21.42 107.86 19.71L107.92 19.77L107.84 19.69Q106.62 16.98 102.81 16.34L103.01 16.53L102.86 16.38Q100.86 16.40 96.56 16.10L96.44 15.97L93.73 16.09L93.91 16.27Q88.63 16.36 86.05 18.34L86.11 18.40L86.13 18.42Q84.68 19.98 84.57 23.07L84.51 23.00L84.48 22.98Q84.61 22.65 84.84 28.13L84.91 28.20L84.91 28.20Q84.73 29.36 84.81 32.10L84.86 32.15L84.89 32.18Q85.00 36.56 86.75 38.50L86.87 38.61L86.75 38.50Q87.15 39.35 88.03 40.23L88.07 40.27L88.08 40.28Q90.97 42.15 96.49 42.49L96.55 42.55L99.38 42.68L99.36 42.66Q100.96 42.77 102.98 42.65L103.02 42.69L102.93 42.61Q104.41 42.57 106.51 42.03L106.53 42.06L106.52 42.04Q108.44 41.53 108.40 39.20L108.43 39.24L108.52 39.32Q108.55 38.10 107.48 35.32L107.35 35.19L107.45 35.29Q107.07 34.30 106.54 33.50L106.52 33.48L106.63 33.59Q107.16 33.55 108.34 33.74L108.42 33.82L108.39 33.79Q108.05 30.14 108.09 29.45L108.11 29.47L108.07 29.44Q107.78 29.53 107.36 29.49L107.27 29.40L107.19 29.32Q106.95 29.42 106.57 29.49L106.59 29.52L106.49 29.42Q106.49 28.32 106.57 27.25L106.56 27.24L106.54 27.22Q100.23 27.69 93.95 27.58L93.94 27.57L93.94 27.57Q94.00 28.50 94.00 29.41L94.15 29.57L94.12 31.29L93.98 31.15Q94.44 31.22 94.86 31.18L94.91 31.23L94.89 31.22Q95.28 31.19 95.74 31.19L95.66 31.11L95.82 31.27Q95.71 31.62 95.75 32.11L95.76 32.13L95.72 32.08Q95.87 32.69 95.84 33.19L95.69 33.04L95.75 33.10Q96.78 33.07 97.81 33.03L97.80 33.02L97.94 33.16Q98.79 32.98 99.82 33.02L99.92 33.13L99.96 33.17Q100.90 33.30 101.77 33.68L101.83 33.74L101.88 33.83L101.80 33.75Q102.06 35.38 100.39 36.29L100.37 36.27L100.27 36.18Q98.60 37.10 96.89 37.10L96.87 37.08L97.02 37.23Q93.00 37.06 90.57 35.30L90.66 35.40L90.69 35.43Q89.63 33.31 89.79 30.76L89.77 30.74L89.85 30.82Q90.15 26.02 92.00 24.03L92.10 24.12L92.05 24.08Q93.85 22.03 98.54 21.73L98.57 21.76L98.57 21.76Q102.12 21.43 104.06 23.21L104.07 23.22L104.16 23.32Q104.24 23.43 104.35 23.62L104.34 23.61L104.41 23.57L104.34 23.50Q105.06 24.33 105.63 25.43L105.56 25.37L106.07 25.53Z"/><path fill="#444" d="M48.88 32.18L39.59 22.13L39.53 22.07Q40.38 25.78 40.38 29.51L40.39 29.52L40.46 29.58Q40.37 35.47 38.31 41.03L38.42 41.14L38.43 41.15Q37.28 41.33 35.03 42.09L34.98 42.04L35.13 42.19Q37.99 36.44 37.99 29.74L37.86 29.61L37.89 29.64Q37.93 21.04 33.44 13.62L33.44 13.61L33.45 13.63Q33.87 13.79 34.56 14.20L34.54 14.18L34.52 14.17Q46.63 25.40 54.48 34.65L54.46 34.64L54.45 34.62Q54.10 32.15 54.10 29.71L54.19 29.80L54.21 29.82Q54.23 22.60 56.74 16.40L56.66 16.31L56.59 16.25Q58.89 15.69 60.49 15.01L60.60 15.12L60.56 15.08Q57.20 21.20 56.90 28.36L56.94 28.40L57.02 28.48Q56.57 35.68 59.54 41.85L59.71 42.02L59.66 41.97Q59.08 41.88 58.66 41.69L58.61 41.64L58.58 41.61Q53.98 37.62 48.77 32.07L48.86 32.15ZM62.35 45.23L62.17 45.05L62.28 45.16Q62.79 45.36 63.21 45.56L63.05 45.39L63.98 45.83L63.93 45.78Q58.88 38.95 58.88 29.58L58.74 29.44L58.79 29.49Q58.76 22.23 62.07 15.98L62.18 16.09L62.11 16.02Q61.57 16.36 60.17 16.97L60.01 16.81L60.19 16.99Q60.51 16.10 61.35 14.54L61.25 14.43L61.24 14.42Q58.79 15.33 56.36 15.90L56.31 15.86L56.35 15.89Q53.82 22.46 53.82 29.88L53.72 29.79L53.70 29.76Q53.81 31.74 54.00 33.72L54.03 33.75L53.93 33.66Q49.39 28.08 44.63 23.47L44.58 23.43L34.42 13.65L34.55 13.78Q33.80 13.29 32.58 12.72L32.69 12.83L32.60 12.74Q37.51 20.50 37.51 29.60L37.54 29.63L37.62 29.72Q37.63 36.84 34.55 42.86L34.41 42.72L34.49 42.80Q34.77 42.66 36.41 42.05L36.48 42.13L36.33 41.97Q36.03 42.78 35.20 44.27L35.34 44.41L35.20 44.27Q36.64 43.85 40.11 43.05L40.08 43.02L40.06 43.01Q42.33 36.82 42.33 29.63L42.39 29.69L42.45 29.74Q42.45 27.65 42.22 25.52L42.14 25.44L42.08 25.38Q53.65 38.28 62.25 45.13Z"/><path fill="#111" d="M30.40 30.27L30.39 30.27L30.55 30.43Q30.61 29.99 30.57 29.57L30.49 29.49L30.59 29.60Q30.40 29.10 30.10 28.91L30.19 29.00L30.10 28.91Q29.38 28.35 28.51 28.50L28.53 28.52L28.60 28.59Q27.49 28.55 25.86 29.65L25.92 29.72L25.92 29.72Q24.50 30.62 24.50 31.80L24.35 31.65L24.46 31.76Q24.46 33.01 24.46 36.33L24.53 36.40L24.39 36.25Q24.47 38.92 24.62 40.94L24.48 40.80L24.55 40.87Q22.83 40.86 22.83 40.86L22.78 40.82L22.75 40.79Q21.83 40.82 21.11 40.90L21.04 40.83L21.09 40.88Q21.61 38.46 21.68 36.22L21.62 36.15L21.67 36.20Q21.74 31.48 21.10 30.19L21.20 30.29L21.18 30.27Q20.88 29.67 20.31 29.36L20.25 29.31L20.21 29.26Q19.54 28.71 17.98 28.60L17.95 28.56L17.93 28.54Q15.97 28.37 15.44 29.97L15.38 29.91L15.27 29.80Q15.15 30.33 15.26 30.82L15.21 30.77L15.31 30.87Q16.03 33.68 15.69 36.46L15.64 36.42L15.51 36.29Q15.38 39.28 13.98 41.72L13.93 41.67L13.94 41.68Q12.81 41.73 10.72 42.15L10.80 42.24L10.72 42.16Q13.21 38.90 13.21 34.60L13.31 34.70L13.24 34.62Q13.23 28.76 9.20 24.53L9.29 24.62L9.32 24.65Q9.96 24.83 10.91 25.06L10.87 25.02L12.59 25.41L12.58 25.40Q13.19 26.16 14.06 27.83L14.07 27.85L14.07 27.84Q14.17 25.88 16.60 25.84L16.67 25.92L16.59 25.83Q16.73 25.78 17.72 25.86L17.70 25.84L17.83 25.97Q22.89 26.35 24.03 29.16L23.89 29.02L23.96 29.09Q25.63 26.38 30.65 25.85L30.62 25.81L30.57 25.76Q31.45 25.77 32.33 25.89L32.28 25.83L32.25 25.81Q34.48 26.02 34.32 27.58L34.42 27.67L34.40 27.65Q34.23 28.21 33.97 28.97L34.01 29.02L34.00 29.00Q32.57 31.99 32.80 35.53L32.83 35.56L32.82 35.55Q33.00 39.01 34.90 41.82L35.00 41.92L34.88 41.80Q33.21 41.46 31.38 41.23L31.50 41.35L31.50 41.35Q30.19 38.71 30.00 35.93L30.04 35.97L29.91 35.84Q29.83 33.09 30.48 30.35ZM31.21 41.67L31.15 41.61L31.16 41.62Q31.98 41.80 33.32 41.99L33.33 42.00L33.30 41.97Q33.76 42.62 34.90 44.02L34.85 43.98L34.83 43.96Q37.91 44.68 40.00 45.32L39.86 45.18L39.95 45.27Q34.94 41.36 34.67 34.85L34.56 34.74L34.67 34.85Q34.47 32.63 35.07 30.73L35.26 30.91L35.22 30.87Q35.30 29.84 35.30 29.12L35.39 29.22L35.44 29.26Q35.45 28.36 34.84 27.79L34.72 27.67L34.78 27.69L34.68 27.59Q34.80 27.14 34.72 26.64L34.72 26.64L34.78 26.70Q34.59 26.09 34.13 25.82L34.18 25.87L34.25 25.95Q33.41 25.30 32.54 25.26L32.64 25.36L32.54 25.26Q29.87 25.34 27.21 26.29L27.07 26.15L27.19 26.27Q25.10 26.84 23.92 28.25L23.89 28.22L23.91 28.24Q22.50 25.91 17.66 25.57L17.67 25.58L17.51 25.42Q16.89 25.44 16.47 25.44L16.49 25.47L16.57 25.54Q14.41 25.44 13.80 26.69L13.72 26.62L13.88 26.77Q13.43 26.13 12.74 25.07L12.86 25.18L12.86 25.19Q10.38 24.65 8.40 24.00L8.38 23.98L8.43 24.03Q12.98 28.31 12.98 34.59L13.07 34.69L13.00 34.61Q12.92 39.26 10.07 42.72L10.19 42.85L10.08 42.73Q10.67 42.71 11.16 42.64L11.14 42.61L11.98 42.31L12.06 42.39Q11.29 43.37 10.18 44.59L10.29 44.70L10.22 44.62Q11.97 44.44 15.09 43.83L15.12 43.85L15.00 43.73Q17.64 39.60 17.64 34.69L17.72 34.77L17.61 34.66Q17.68 33.93 17.60 33.09L17.64 33.12L17.67 33.15Q17.63 32.43 18.62 31.63L18.52 31.53L18.45 31.49L18.46 31.51Q19.20 31.18 20.38 31.07L20.28 30.97L20.38 31.07Q20.74 31.01 21.04 31.01L21.04 31.00L21.15 31.30L21.09 31.25Q21.39 33.98 21.27 36.34L21.23 36.29L21.25 36.31Q21.11 38.57 20.61 41.23L20.68 41.31L20.67 41.30Q21.68 41.27 21.68 41.27L21.78 41.37L21.72 41.32Q23.18 41.33 22.84 41.33L22.76 41.25L22.80 41.29Q22.75 41.73 22.71 42.19L22.67 42.15L22.67 42.15Q22.78 42.76 22.78 43.25L22.72 43.20L25.20 43.20L25.12 43.12Q26.47 43.21 27.72 43.29L27.67 43.24L27.68 43.24Q26.25 39.64 26.44 33.70L26.34 33.60L26.34 33.60Q26.52 32.64 27.70 31.87L27.68 31.86L27.58 31.76Q28.44 30.91 29.70 30.72L29.85 30.87L30.13 30.84L30.14 30.85Q29.70 32.77 29.70 34.75L29.67 34.72L29.59 34.64Q29.74 38.57 31.27 41.72ZM25.66 30.10L25.94 30.16L25.79 30.35L25.78 30.23Z"/><path fill="#333" d="M117.20 33.21L117.32 33.33L117.23 33.25Q117.20 36.19 116.02 40.83L115.88 40.70L116.01 40.83Q114.21 41.34 112.61 42.14L112.62 42.16L112.57 42.10Q115.20 35.10 114.93 27.67L114.94 27.69L115.02 27.76Q114.66 20.28 111.57 13.55L111.63 13.60L111.63 13.60Q113.45 14.73 115.31 15.31L115.38 15.37L115.41 15.40Q117.53 22.36 117.53 29.02L117.54 29.03L117.50 28.99Q117.49 30.43 117.41 31.91L117.41 31.90L117.46 31.95Q118.61 30.75 123.83 25.80L123.86 25.83L123.84 25.81Q124.83 25.70 125.82 25.62L125.86 25.66L127.87 25.42L127.92 25.48Q124.80 28.53 120.50 32.30L120.44 32.23L120.47 32.27Q123.96 35.14 130.43 40.97L130.37 40.90L130.32 40.85Q127.55 39.91 124.58 39.72L124.68 39.82L124.71 39.86Q122.11 37.67 117.24 33.26ZM127.19 42.49L127.14 42.44L127.12 42.42Q131.82 43.23 134.94 45.17L134.92 45.15L135.05 45.28Q133.81 43.93 131.19 41.53L131.29 41.64L131.17 41.52Q131.52 41.72 131.79 41.83L131.70 41.74L131.70 41.74Q129.52 39.64 127.27 37.73L127.31 37.77L122.87 33.86L123.01 34.00Q127.86 29.68 130.30 26.78L130.35 26.84L130.39 26.88Q129.11 26.90 126.64 27.16L126.61 27.13L126.60 27.12Q128.31 25.79 128.99 24.95L128.87 24.82L128.89 24.84Q126.23 25.46 123.75 25.46L123.73 25.43L123.62 25.33Q122.24 26.65 119.50 29.31L119.56 29.37L119.57 29.38Q119.62 23.65 118.63 17.83L118.49 17.68L118.63 17.82Q117.75 17.47 116.27 17.21L116.36 17.31L116.24 17.19Q116.24 16.61 115.78 15.13L115.78 15.13L115.67 15.01Q113.07 14.25 110.83 12.69L110.85 12.71L110.85 12.70Q114.36 19.61 114.71 27.72L114.61 27.62L114.62 27.63Q115.00 35.58 111.99 42.82L112.04 42.87L111.97 42.80Q112.66 42.50 113.99 41.85L113.92 41.78L113.94 41.79Q113.65 42.58 113.01 44.03L113.08 44.09L113.13 44.15Q115.83 42.93 117.97 42.55L118.07 42.66L118.07 42.65Q118.71 40.21 119.20 35.94L119.13 35.87L119.05 35.79Q121.65 38.05 127.10 42.39Z"/><path fill="#333" d="M71.02 29.12L71.06 29.16L71.05 29.15Q69.19 29.00 67.95 30.43L68.02 30.50L67.90 30.38Q66.64 31.78 66.45 33.68L66.60 33.84L66.48 33.71Q66.32 35.84 67.40 36.81L67.42 36.83L67.28 36.69Q68.51 37.80 70.60 37.69L70.52 37.60L70.47 37.55Q72.65 37.49 73.76 36.80L73.83 36.87L73.84 36.89Q74.99 35.79 74.99 34.23L74.87 34.11L74.96 34.20Q74.85 33.71 74.78 33.33L74.91 33.47L74.88 33.44Q74.89 31.70 73.79 30.35L73.82 30.38L73.87 30.43Q72.64 28.95 70.97 29.07ZM70.56 40.20L70.61 40.24L70.60 40.23Q66.30 40.32 64.90 39.56L64.78 39.44L64.78 39.44Q63.83 38.76 63.64 37.04L63.58 36.98L63.52 36.92Q63.60 36.35 63.63 35.63L63.65 35.64L63.66 35.66Q63.77 34.66 63.77 34.20L63.61 34.04L63.79 34.22Q64.07 31.20 64.23 30.51L64.41 30.70L64.33 30.62Q64.75 28.64 65.59 27.23L65.63 27.27L65.70 27.34Q68.29 22.89 74.23 16.53L74.20 16.50L74.12 16.42Q76.80 16.13 79.00 15.33L79.06 15.39L79.06 15.39Q72.17 22.81 68.97 27.03L69.10 27.17L68.99 27.06Q70.12 26.70 71.41 26.70L71.28 26.56L71.30 26.58Q74.71 26.68 76.23 28.62L76.08 28.46L76.23 28.62Q77.51 30.20 77.85 33.74L77.81 33.70L77.83 33.72Q77.91 34.45 77.91 35.06L77.92 35.07L77.93 35.08Q77.92 38.19 75.71 39.25L75.70 39.24L75.66 39.20Q74.57 39.94 70.69 40.33ZM72.84 42.59L72.79 42.54L72.97 42.72Q74.09 42.51 76.07 42.59L76.23 42.75L76.24 42.76Q77.80 42.76 79.36 42.03L79.35 42.02L79.41 42.08Q80.50 41.26 80.50 39.47L80.44 39.42L80.49 39.46Q80.44 38.92 80.26 37.93L80.24 37.90L80.24 37.90Q80.06 36.91 80.06 36.45L80.09 36.47L80.06 36.45Q79.31 31.85 77.71 29.95L77.60 29.84L77.57 29.81Q77.63 29.83 77.48 29.60L77.39 29.51L77.05 29.25L77.04 29.27L77.07 29.31Q76.67 28.75 76.06 27.80L76.06 27.80L76.06 27.81Q75.16 26.86 73.18 26.41L73.24 26.46L73.27 26.49Q74.48 24.89 77.45 21.20L77.38 21.13L81.60 15.83L81.66 15.90Q80.01 16.68 77.61 17.44L77.58 17.41L77.57 17.39Q78.56 16.48 80.34 14.50L80.34 14.50L80.32 14.48Q77.97 15.59 74.09 16.16L74.05 16.12L74.09 16.16Q68.34 22.03 65.37 26.98L65.40 27.00L65.47 27.07Q63.77 29.41 63.20 35.65L63.21 35.66L63.27 35.72Q63.13 36.23 63.21 37.18L63.28 37.25L63.32 37.29Q63.29 38.94 64.39 39.85L64.40 39.85L64.44 39.90Q64.82 40.05 64.78 40.09L64.83 40.13L64.78 40.09Q65.11 40.95 65.91 41.37L66.02 41.48L65.98 41.44Q67.34 42.04 69.28 42.23L69.37 42.32L69.43 42.38Q69.38 42.33 72.88 42.63ZM72.57 31.32L72.72 31.47L72.75 31.49Q73.23 31.29 74.18 31.79L74.19 31.79L74.15 31.75Q74.60 32.81 74.60 33.46L74.48 33.34L74.45 33.31Q74.69 35.23 73.74 36.22L73.80 36.28L73.85 36.33Q72.70 36.96 70.60 37.27L70.50 37.17L70.67 37.34Q69.05 37.16 68.51 36.89L68.69 37.07L68.64 37.02Q68.43 36.54 68.43 36.24L68.32 36.13L68.49 36.29Q68.10 32.86 71.03 31.57L71.21 31.75L71.16 31.69Q71.84 31.27 72.60 31.35Z"/></svg>