<svg xmlns="http://www.w3.org/2000/svg" width="150" height="50" viewBox="0,0,150,50"><path fill="#111" d="M20.77 40.01L20.74 39.98L20.69 39.93Q16.49 39.34 14.66 37.89L14.71 37.94L14.63 37.86Q12.81 36.42 12.39 33.42L12.36 33.39L12.41 33.44Q12.34 33.02 12.00 28.26L12.10 28.36L12.01 28.27Q12.22 27.27 12.15 26.01L11.99 25.85L12.13 26.00Q11.95 20.95 14.16 19.20L14.09 19.12L14.00 19.03Q16.71 16.99 24.48 16.30L24.41 16.23L24.52 16.34Q25.79 16.13 27.43 16.17L27.51 16.25L27.49 16.23Q27.46 16.20 30.43 16.20L30.45 16.22L30.52 16.30Q31.26 16.19 32.97 16.34L33.02 16.40L33.08 16.45Q32.51 17.33 31.49 20.42L31.41 20.34L31.55 20.48Q29.46 19.27 26.45 19.27L26.35 19.17L26.43 19.25Q25.51 19.08 24.71 19.16L24.82 19.27L24.81 19.27Q19.75 19.76 17.24 21.74L17.10 21.60L17.22 21.72Q15.13 23.25 14.98 26.60L15.00 26.63L14.94 26.56Q15.01 27.28 15.05 28.54L14.92 28.41L15.06 28.54Q15.15 33.36 17.55 35.45L17.50 35.40L17.48 35.38Q19.69 37.36 24.67 37.67L24.72 37.72L24.66 37.66Q27.86 37.89 30.87 36.10L30.90 36.13L30.75 35.98Q31.33 38.69 31.94 40.06L31.98 40.09L31.94 40.06Q29.94 40.41 28.30 40.38L28.31 40.39L28.26 40.34Q23.87 40.37 20.75 39.99ZM35.72 43.58L35.72 43.57L35.79 43.64Q33.94 40.58 33.26 37.99L33.28 38.01L33.32 38.05Q32.98 38.40 31.99 38.78L31.86 38.64L31.99 38.77Q31.66 37.99 31.47 37.15L31.36 37.05L31.00 35.35L30.92 35.27Q27.82 37.50 24.70 37.38L24.65 37.34L24.69 37.38Q20.33 37.09 18.01 35.34L18.01 35.34L17.94 35.27Q16.80 33.45 16.88 30.52L16.88 30.51L16.86 30.50Q17.05 26.04 19.52 23.91L19.60 23.99L19.53 23.92Q21.72 22.07 26.40 21.47L26.41 21.47L26.37 21.43Q27.16 21.31 27.88 21.31L27.84 21.26L27.96 21.38Q30.68 21.32 32.77 22.84L32.75 22.83L32.75 22.82Q33.37 20.82 34.59 17.58L34.51 17.50L34.56 17.56Q34.26 17.51 33.70 17.46L33.59 17.35L33.77 17.52Q33.16 17.41 32.90 17.41L32.80 17.32L32.92 17.43Q33.09 16.88 33.54 15.89L33.56 15.90L33.52 15.86Q33.27 15.84 30.77 15.76L30.77 15.76L30.82 15.81Q28.36 15.77 27.72 15.81L27.57 15.66L27.62 15.71Q17.06 16.01 13.60 18.59L13.59 18.59L13.73 18.73Q11.58 20.42 11.58 24.34L11.65 24.41L11.63 24.40Q11.72 25.59 11.83 28.29L11.82 28.28L11.69 28.15Q11.91 31.79 12.13 33.50L12.15 33.52L12.15 33.51Q12.57 36.68 14.17 38.21L14.16 38.19L14.01 38.05Q14.66 38.89 15.92 40.03L15.92 40.03L15.94 40.05Q19.22 41.84 24.47 42.60L24.28 42.41L24.45 42.58Q30.79 43.43 35.77 43.62Z"/><path fill="#333" d="M122.45 29.98L122.32 29.85L122.41 29.94Q119.83 29.76 118.50 30.97L118.54 31.02L118.51 30.99Q117.22 32.25 117.53 34.76L117.45 34.68L117.51 34.75Q117.77 37.22 118.99 38.47L119.00 38.48L118.95 38.43Q120.19 39.94 122.32 39.86L122.24 39.78L122.17 39.71Q122.82 39.79 123.01 39.79L123.02 39.80L123.00 39.78Q126.43 39.06 126.54 34.45L126.68 34.59L126.58 34.49Q126.77 32.24 126.09 31.44L125.94 31.30L126.06 31.42Q124.93 30.06 122.38 29.91ZM125.63 41.57L125.68 41.63L125.60 41.54Q124.32 42.16 122.76 42.09L122.85 42.18L122.77 42.10Q118.94 42.31 117.65 39.72L117.62 39.69L117.70 39.77Q117.54 45.13 116.20 49.39L116.26 49.44L116.16 49.35Q114.48 49.95 112.84 50.67L112.73 50.56L112.80 50.64Q115.30 44.60 115.03 37.63L115.09 37.69L115.10 37.70Q114.75 30.77 111.86 24.72L111.93 24.79L111.85 24.70Q113.81 25.91 115.52 26.36L115.47 26.31L116.02 27.82L116.15 27.94Q116.25 28.28 116.52 29.38L116.35 29.21L116.44 29.30Q117.44 27.22 121.02 27.03L121.15 27.15L121.11 27.12Q121.96 27.06 122.84 27.06L122.85 27.07L123.21 26.93L123.34 27.07Q123.31 26.92 123.50 26.96L123.70 27.15L123.98 27.14L123.82 26.97Q126.08 27.45 126.81 27.67L126.70 27.57L126.65 27.52Q128.29 28.13 129.17 29.09L129.14 29.06L129.12 29.03Q129.95 30.21 129.91 31.62L129.90 31.60L129.92 31.62Q129.89 34.45 129.09 37.11L129.03 37.05L129.12 37.15Q128.11 40.67 125.75 41.69ZM130.04 42.33L129.94 42.19L129.98 42.23Q131.02 40.19 131.33 36.08L131.46 36.21L131.39 36.14Q131.46 34.30 131.46 33.05L131.43 33.02L131.46 33.05Q131.65 31.72 130.89 30.31L130.78 30.20L130.84 30.26Q130.39 29.77 129.89 29.39L129.84 29.33L129.71 29.09L129.46 28.73L129.38 28.54L129.40 28.55Q127.73 26.58 123.39 26.58L123.50 26.69L122.86 26.66L122.80 26.60Q118.12 26.57 116.49 28.17L116.48 28.16L116.51 28.19Q116.41 27.74 116.26 27.25L116.13 27.13L115.83 26.02L115.98 26.18Q113.40 25.46 111.20 23.98L111.16 23.94L111.18 23.96Q114.55 30.37 114.85 37.61L114.68 37.44L114.80 37.55Q115.10 44.82 112.25 51.30L112.20 51.25L114.28 50.48L114.11 50.31Q113.85 51.04 113.17 52.60L113.23 52.66L113.34 52.77Q115.97 51.63 118.29 51.29L118.37 51.36L118.18 51.18Q119.42 46.48 119.57 42.75L119.59 42.76L119.59 42.77Q120.91 44.16 124.53 44.39L124.47 44.34L124.57 44.43Q128.42 44.59 129.86 42.15L129.98 42.27ZM124.35 32.22L124.29 32.16L124.23 32.10Q124.95 32.10 126.06 32.44L126.04 32.43L125.95 32.34Q126.38 33.49 126.34 34.67L126.19 34.52L126.20 34.53Q126.21 35.45 126.02 36.10L126.17 36.25L126.00 36.08Q125.39 39.09 122.88 39.39L122.83 39.34L123.05 39.45L123.01 39.41Q122.94 39.42 122.83 39.46L122.76 39.39L122.29 39.45L122.32 39.48Q121.06 39.40 120.07 38.90L120.11 38.94L119.72 36.85L119.65 36.77Q119.51 34.47 120.81 33.44L120.83 33.46L120.92 33.55Q121.85 32.39 124.25 32.12Z"/><path fill="#444" d="M50.68 30.86L50.78 30.95L50.72 30.90Q50.88 29.54 50.06 28.62L49.98 28.54L49.95 28.51Q49.20 27.67 47.76 27.71L47.65 27.60L47.77 27.72Q45.45 27.80 44.62 29.93L44.53 29.84L44.52 29.83Q44.36 30.75 44.33 31.43L44.26 31.37L44.21 31.32Q43.95 36.12 43.03 40.46L43.20 40.63L43.06 40.49Q41.45 41.08 39.58 42.07L39.52 42.01L39.64 42.13Q41.90 35.14 41.64 27.83L41.67 27.87L41.55 27.75Q41.22 20.33 38.67 13.52L38.75 13.60L38.66 13.51Q40.52 14.91 42.53 15.59L42.60 15.66L42.58 15.63Q44.05 21.45 44.24 27.31L44.21 27.28L44.26 27.33Q45.56 25.17 48.27 25.25L48.36 25.34L48.29 25.27Q53.31 25.30 53.42 30.67L53.42 30.66L53.44 30.69Q53.67 36.47 55.04 41.12L55.02 41.10L54.94 41.02Q53.07 40.17 51.32 39.98L51.44 40.11L51.36 40.03Q50.74 36.67 50.63 30.80ZM51.04 40.35L51.07 40.38L51.04 40.35Q52.08 40.48 53.18 40.75L53.20 40.77L53.21 40.77Q53.26 40.94 53.79 42.92L53.68 42.80L53.81 42.93Q56.80 43.91 58.82 45.36L58.71 45.24L58.84 45.37Q56.08 39.53 55.55 33.21L55.48 33.14L55.44 33.10Q55.25 29.52 53.84 27.96L53.76 27.89L53.76 27.88Q53.78 27.83 53.13 27.37L53.12 27.36L53.04 27.28Q52.98 26.95 52.33 26.19L52.23 26.09L52.23 26.01L52.28 26.06Q51.36 25.14 48.24 24.87L48.29 24.92L48.37 25.00Q47.66 25.02 46.25 25.36L46.06 25.17L46.23 25.34Q45.98 20.44 45.63 17.93L45.54 17.83L45.61 17.91Q44.74 17.68 43.25 17.38L43.34 17.47L43.33 17.45Q43.09 16.65 42.83 15.16L42.83 15.16L42.98 15.31Q39.96 14.28 38.09 12.71L38.03 12.65L38.10 12.72Q41.02 19.83 41.29 27.63L41.24 27.58L41.32 27.66Q41.59 35.43 39.04 42.78L38.95 42.69L38.94 42.68Q39.91 42.13 41.05 41.63L41.09 41.68L40.38 43.97L40.37 43.96Q43.57 42.70 45.55 42.51L45.50 42.46L45.52 42.48Q46.01 37.00 46.21 33.05L46.16 33.00L46.16 33.00Q46.33 31.22 48.27 30.12L48.37 30.22L48.31 30.16Q48.74 29.84 49.28 29.87L49.40 30.00L49.23 29.82Q49.49 29.94 49.83 29.97L49.90 30.04L50.27 30.07L50.31 30.11Q50.23 30.40 50.34 30.86L50.44 30.96L50.32 30.84Q50.51 36.90 51.01 40.32Z"/><path fill="#444" d="M71.28 19.66L71.36 19.73L71.22 19.60Q69.28 19.74 68.32 19.90L68.44 20.01L68.34 19.91Q66.67 20.11 65.45 20.64L65.46 20.64L65.59 20.77Q62.07 22.20 61.95 26.88L61.80 26.73L61.96 26.89Q61.84 29.52 62.49 32.45L62.47 32.43L62.46 32.42Q63.41 36.53 67.03 37.71L66.96 37.64L67.02 37.71Q68.85 38.20 70.30 38.05L70.21 37.97L70.66 37.95L70.69 37.98Q71.01 38.11 71.20 38.15L71.10 38.05L71.05 38.01Q71.17 37.96 71.32 37.93L71.41 38.02L71.36 37.97Q74.11 37.83 75.48 37.26L75.46 37.24L71.78 33.59L71.74 33.55Q72.13 33.29 72.74 32.68L72.79 32.74L73.70 31.82L73.63 31.75Q75.45 33.80 77.43 35.85L77.43 35.85L77.50 35.93Q79.77 34.04 80.03 28.67L80.18 28.82L80.14 28.78Q80.21 27.86 80.21 26.94L80.10 26.83L80.19 26.92Q80.19 21.25 75.12 20.15L75.04 20.06L75.17 20.19Q73.82 19.84 71.31 19.68ZM83.98 41.64L84.14 41.80L84.13 41.80Q83.53 42.22 82.35 43.10L82.39 43.14L77.86 39.33L77.92 39.39Q75.33 40.49 71.07 40.53L71.20 40.67L71.24 40.70Q64.53 40.65 61.71 38.41L61.82 38.52L61.71 38.40Q59.95 36.65 59.50 33.68L59.51 33.70L59.55 33.73Q59.35 31.94 58.97 28.36L58.90 28.29L58.97 28.36Q58.97 27.64 58.86 25.89L58.86 25.89L58.87 25.90Q58.67 24.29 58.71 23.42L58.80 23.51L58.78 23.49Q58.76 20.30 60.51 18.74L60.63 18.86L60.70 18.93Q62.14 17.52 65.34 17.02L65.40 17.09L65.33 17.02Q67.74 16.57 70.63 16.65L70.66 16.67L70.65 16.66Q78.22 16.84 81.34 19.20L81.25 19.12L81.30 19.16Q83.50 21.33 83.23 26.24L83.16 26.16L83.24 26.25Q83.04 29.89 82.85 31.22L82.92 31.29L82.83 31.21Q82.22 35.73 79.90 38.05L79.81 37.96L79.92 38.08Q81.39 39.32 84.13 41.80ZM79.22 17.46L79.23 17.47L79.20 17.44Q77.17 16.71 70.66 16.22L70.60 16.16L70.62 16.18Q69.26 16.22 66.48 16.34L66.46 16.32L66.52 16.38Q62.30 16.61 60.05 18.59L60.05 18.59L60.09 18.63Q58.48 20.14 58.48 23.30L58.49 23.31L58.46 23.28Q58.39 24.05 58.54 25.76L58.59 25.80L58.51 25.73Q58.67 27.45 58.67 28.33L58.69 28.34L58.69 28.34Q58.84 30.09 59.22 33.67L59.21 33.67L59.18 33.63Q59.63 36.60 61.23 38.65L61.24 38.66L61.17 38.59Q61.52 39.44 62.74 40.58L62.78 40.61L62.67 40.51Q65.53 42.64 70.71 42.91L70.63 42.83L70.62 42.83Q71.08 42.94 73.48 43.06L73.47 43.04L73.31 42.89Q78.21 43.14 80.49 42.07L80.51 42.10L80.57 42.15Q81.25 42.65 85.97 46.22L86.08 46.33L85.98 46.23Q86.69 45.80 87.99 44.81L88.02 44.85L87.89 44.71Q87.08 44.10 86.28 43.41L86.27 43.39L84.62 41.94L84.74 41.90L84.81 41.97Q84.18 41.46 82.96 40.43L82.95 40.43L83.03 40.50Q84.95 38.00 84.95 33.47L84.79 33.32L84.83 33.35Q84.89 32.99 84.92 32.15L84.83 32.06L84.89 32.12Q84.90 31.26 84.90 30.84L84.85 30.79L84.92 30.86Q84.89 25.31 84.17 22.95L84.24 23.02L84.26 23.04Q83.80 21.67 82.93 20.60L82.94 20.62L82.99 20.66Q82.17 18.52 79.24 17.49ZM73.14 21.97L73.23 22.06L73.14 21.97Q77.36 22.04 79.19 23.64L79.16 23.62L79.03 23.48Q79.67 24.77 79.78 26.10L79.87 26.19L79.84 26.15Q79.87 27.37 79.80 28.74L79.83 28.77L79.84 28.78Q79.53 33.77 77.59 35.48L77.44 35.33L77.44 35.33Q76.18 34.08 73.67 31.33L73.67 31.34L73.66 31.32Q72.87 32.06 71.31 33.62L71.41 33.72L71.39 33.69Q71.82 34.16 72.96 35.34L73.04 35.42L72.98 35.47L72.93 35.43Q73.64 36.10 74.67 37.16L74.61 37.10L74.65 37.14Q73.65 37.40 71.33 37.71L71.17 37.55L70.72 37.63L70.31 37.64L70.32 37.69L70.34 37.71Q66.87 37.71 64.90 36.07L64.80 35.98L64.81 35.99Q63.87 33.98 63.91 30.86L63.85 30.80L63.87 30.82Q63.96 22.04 73.14 21.97Z"/><path fill="#333" d="M96.58 41.35L96.67 41.44L96.55 41.33Q93.76 41.58 92.50 41.05L92.35 40.90L92.46 41.01Q90.54 40.23 90.61 37.75L90.51 37.65L90.62 37.76Q90.78 34.37 90.78 34.94L90.82 34.99L90.73 34.90Q90.77 29.61 87.92 24.78L87.81 24.67L87.88 24.74Q89.85 25.68 91.83 26.06L91.85 26.08L91.74 25.97Q93.48 30.60 93.36 35.09L93.39 35.13L93.41 35.15Q93.35 36.72 94.18 37.93L94.09 37.84L94.08 37.83Q95.03 39.20 96.55 39.01L96.56 39.02L97.01 38.97L96.98 38.94Q98.26 38.81 99.08 38.05L99.07 38.05L99.05 38.02Q99.91 37.30 99.91 36.35L99.87 36.31L100.00 36.44Q99.94 36.15 99.90 35.96L99.84 35.90L99.82 35.88Q99.88 30.76 101.02 26.42L100.97 26.37L100.94 26.34Q101.99 26.29 102.98 26.06L102.90 25.98L104.87 25.44L105.01 25.58Q102.49 30.63 102.79 36.19L102.70 36.09L102.77 36.17Q102.83 39.11 101.11 40.26L101.22 40.36L101.22 40.37Q100.00 41.32 96.69 41.47ZM98.98 43.84L98.83 43.68L98.91 43.77Q102.28 43.82 104.11 43.06L104.30 43.25L104.13 43.08Q105.08 42.36 105.08 40.95L105.18 41.05L105.11 40.98Q105.20 40.16 104.94 38.60L104.79 38.46L104.83 38.50Q104.40 35.39 104.78 32.39L104.75 32.36L104.78 32.39Q105.17 29.24 106.58 26.49L106.60 26.51L106.61 26.53Q105.92 26.79 104.58 27.20L104.56 27.18L104.58 27.20Q104.79 26.57 105.09 26.00L105.09 26.00L105.66 24.86L105.66 24.86Q103.77 25.55 100.61 26.05L100.64 26.08L100.62 26.06Q99.46 30.91 99.61 36.01L99.47 35.87L99.46 35.87Q99.50 37.92 96.84 38.42L96.96 38.54L96.64 38.67L96.44 38.63L95.42 38.41L95.40 38.38Q95.35 37.54 95.39 37.05L95.33 36.99L95.47 37.13Q95.69 32.63 95.01 28.21L94.87 28.08L93.91 28.03L93.80 27.92Q93.38 27.99 92.84 27.88L92.75 27.78L92.79 27.82Q92.48 26.49 92.21 25.72L92.18 25.69L92.23 25.74Q89.37 25.24 87.12 23.95L87.18 24.01L87.14 23.96Q89.24 27.43 89.96 30.82L90.03 30.88L89.92 30.78Q90.55 33.12 90.40 36.62L90.41 36.64L90.31 36.53Q90.33 36.67 90.26 37.77L90.36 37.87L90.28 37.80Q90.25 40.28 91.62 41.23L91.61 41.22L91.47 41.09Q91.91 43.39 98.92 43.77Z"/></svg>