<svg xmlns="http://www.w3.org/2000/svg" width="150" height="50" viewBox="0,0,150,50"><path fill="#444" d="M23.64 29.84L23.73 29.93L23.63 29.83Q21.25 29.84 19.91 31.06L19.77 30.92L19.77 30.92Q18.54 32.24 18.84 34.75L18.85 34.76L18.89 34.79Q19.05 37.16 20.27 38.42L20.41 38.56L20.24 38.39Q21.35 39.76 23.48 39.69L23.56 39.77L23.55 39.75Q24.15 39.79 24.34 39.79L24.19 39.64L24.23 39.68Q27.80 39.10 27.91 34.49L27.88 34.45L28.01 34.58Q27.99 32.13 27.31 31.33L27.31 31.34L27.37 31.39Q26.35 30.14 23.80 29.99ZM27.05 41.66L27.05 41.66L26.99 41.60Q25.62 42.13 24.05 42.05L24.11 42.10L24.21 42.21Q20.24 42.27 18.95 39.68L19.03 39.77L19.02 39.75Q18.94 45.20 17.61 49.46L17.45 49.30L17.45 49.31Q15.74 49.88 14.11 50.61L14.05 50.55L14.08 50.58Q16.64 44.61 16.37 37.65L16.45 37.72L16.45 37.72Q16.06 30.75 13.17 24.69L13.16 24.69L13.24 24.77Q15.11 25.88 16.82 26.33L16.92 26.43L17.44 27.90L17.34 27.80Q17.58 28.27 17.85 29.37L17.72 29.24L17.81 29.34Q18.88 27.32 22.46 27.13L22.48 27.15L22.33 27.01Q23.18 26.94 24.06 26.94L24.19 27.07L24.71 27.10L24.69 27.08Q24.78 27.06 24.97 27.10L24.85 26.97L25.23 27.04L25.20 27.02Q27.23 27.26 27.96 27.49L28.06 27.59L28.04 27.58Q29.49 27.99 30.36 28.94L30.44 29.03L30.37 28.95Q31.22 30.14 31.18 31.55L31.13 31.50L31.15 31.52Q31.21 34.44 30.41 37.11L30.44 37.14L30.40 37.09Q29.46 40.68 27.10 41.71ZM31.19 42.15L31.30 42.21L31.37 42.28Q32.38 40.21 32.68 36.10L32.64 36.06L32.73 36.15Q32.78 34.29 32.78 33.03L32.75 33.01L32.93 33.19Q32.81 31.54 32.05 30.14L32.05 30.13L32.11 30.20Q31.76 29.81 31.26 29.43L31.19 29.36L31.05 29.10L30.74 28.67L30.85 28.67L30.86 28.68Q29.00 26.51 24.66 26.51L24.83 26.69L24.04 26.51L24.22 26.68Q19.45 26.56 17.82 28.16L17.93 28.28L17.91 28.25Q17.68 27.68 17.53 27.19L17.59 27.25L17.32 26.18L17.19 26.05Q14.80 25.53 12.59 24.04L12.54 23.99L12.62 24.07Q15.72 30.22 16.03 37.45L16.09 37.51L16.16 37.58Q16.39 44.78 13.54 51.25L13.54 51.25L15.60 50.46L15.55 50.41Q15.25 51.11 14.57 52.67L14.62 52.72L14.58 52.68Q17.24 51.56 19.56 51.22L19.59 51.26L19.62 51.29Q20.78 46.50 20.93 42.77L20.85 42.69L20.92 42.77Q22.34 44.26 25.96 44.49L25.91 44.44L25.85 44.38Q29.76 44.60 31.21 42.17L31.26 42.22ZM25.61 32.15L25.70 32.24L25.62 32.16Q26.25 32.07 27.36 32.41L27.43 32.48L27.33 32.38Q27.63 33.40 27.59 34.58L27.50 34.50L27.70 34.69Q27.60 35.51 27.41 36.15L27.46 36.21L27.38 36.13Q26.75 39.12 24.24 39.42L24.27 39.45L24.37 39.44L24.30 39.37Q24.15 39.29 24.03 39.33L24.10 39.40L23.54 39.37L23.51 39.34Q22.39 39.40 21.40 38.91L21.42 38.93L21.03 36.82L21.00 36.79Q20.81 34.42 22.10 33.40L22.12 33.41L22.29 33.58Q23.23 32.44 25.63 32.17Z"/><path fill="#333" d="M79.86 23.19L79.93 23.26L79.89 23.21Q78.27 19.23 72.06 19.42L72.10 19.47L72.00 19.37Q67.60 19.49 65.62 20.94L65.62 20.94L65.58 20.90Q63.25 22.72 63.25 26.83L63.32 26.90L63.27 28.72L63.23 28.67Q63.29 37.57 72.31 37.57L72.36 37.62L72.30 37.56Q74.24 37.44 75.72 36.64L75.88 36.80L75.89 36.81Q77.58 35.64 77.43 33.77L77.47 33.82L77.57 33.92Q77.29 31.74 73.60 30.83L73.58 30.81L71.68 30.85L71.58 30.75Q70.73 30.85 69.78 30.88L69.75 30.86L69.68 30.79Q69.72 29.88 69.68 27.97L69.82 28.11L69.65 27.94Q77.39 28.03 81.58 27.69L81.47 27.58L81.56 27.67Q81.59 28.58 81.59 29.38L81.42 29.21L81.53 29.31Q81.57 30.16 81.61 30.96L81.63 30.97L81.54 30.89Q80.55 31.00 80.55 31.00L80.43 30.88L80.46 30.90Q79.01 30.82 79.39 30.82L79.45 30.89L79.51 30.95Q80.53 32.51 80.92 34.49L80.98 34.55L80.87 34.44Q81.01 35.19 81.01 35.65L81.10 35.74L81.02 35.66Q81.03 40.31 72.23 40.31L72.24 40.31L72.20 40.27Q65.07 40.26 62.48 38.17L62.62 38.31L62.54 38.23Q60.53 35.84 60.53 30.77L60.56 30.81L60.55 30.79Q60.56 29.74 60.41 27.04L60.49 27.11L60.32 26.95Q60.17 24.59 60.20 23.22L60.24 23.25L60.27 23.28Q60.45 20.49 61.82 18.90L61.67 18.74L61.84 18.91Q64.26 16.72 69.13 16.53L69.24 16.64L71.82 16.48L71.77 16.43Q75.01 16.48 78.44 16.90L78.45 16.90L78.39 16.85Q82.12 17.30 83.07 20.53L83.04 20.50L83.14 20.61Q82.05 21.45 79.95 23.28ZM81.25 25.38L81.42 25.43L81.53 25.54Q82.56 24.29 84.43 22.31L84.62 22.51L84.45 22.34Q84.22 21.45 83.23 19.74L83.32 19.83L83.17 19.69Q82.13 17.16 78.33 16.52L78.31 16.50L78.15 16.34Q76.24 16.45 71.94 16.14L71.77 15.97L69.15 16.17L69.17 16.19Q63.93 16.31 61.34 18.29L61.38 18.34L61.47 18.43Q60.01 19.97 59.89 23.06L59.85 23.01L59.89 23.06Q60.03 22.73 60.26 28.22L60.17 28.13L60.17 28.13Q60.24 29.53 60.31 32.27L60.16 32.12L60.19 32.14Q60.52 36.74 62.27 38.68L62.13 38.55L62.21 38.62Q62.61 39.48 63.49 40.36L63.35 40.22L63.47 40.34Q66.34 42.18 71.86 42.52L71.89 42.55L74.82 42.78L74.75 42.71Q76.38 42.86 78.40 42.74L78.26 42.61L78.37 42.72Q79.72 42.54 81.81 42.01L81.85 42.05L81.84 42.03Q83.91 41.67 83.87 39.35L83.73 39.21L83.72 39.20Q83.76 37.98 82.69 35.20L82.71 35.21L82.77 35.28Q82.41 34.31 81.88 33.51L81.91 33.54L81.87 33.50Q82.50 33.55 83.68 33.74L83.64 33.71L83.69 33.75Q83.37 30.12 83.40 29.44L83.43 29.46L83.42 29.46Q82.95 29.36 82.53 29.33L82.69 29.48L82.57 29.37Q82.19 29.32 81.81 29.40L81.87 29.47L81.95 29.55Q81.77 28.26 81.85 27.19L81.85 27.20L81.88 27.22Q75.61 27.73 69.33 27.62L69.41 27.70L69.45 27.75Q69.43 28.59 69.43 29.50L69.38 29.46L69.37 31.20L69.45 31.28Q69.83 31.28 70.25 31.25L70.19 31.19L70.26 31.26Q70.62 31.19 71.07 31.19L71.06 31.18L71.18 31.30Q71.09 31.67 71.13 32.16L71.12 32.15L71.12 32.15Q71.13 32.61 71.09 33.11L71.08 33.10L71.16 33.18Q72.19 33.14 73.21 33.10L73.21 33.10L73.17 33.05Q74.26 33.12 75.28 33.15L75.23 33.10L75.17 33.04Q76.28 33.35 77.15 33.73L77.24 33.81L77.16 33.77L77.18 33.80Q77.41 35.40 75.74 36.31L75.63 36.21L75.66 36.23Q74.01 37.17 72.30 37.17L72.34 37.21L72.24 37.11Q68.39 37.11 65.95 35.36L65.93 35.34L66.02 35.43Q65.09 33.43 65.25 30.88L65.17 30.81L65.10 30.74Q65.57 26.10 67.41 24.10L67.43 24.12L67.32 24.01Q69.28 22.13 73.97 21.83L73.89 21.75L73.93 21.79Q77.46 21.44 79.41 23.23L79.43 23.25L79.37 23.19Q79.48 23.34 79.59 23.53L79.73 23.67L79.76 23.58L79.73 23.55Q80.34 24.28 80.91 25.38L80.96 25.43L81.37 25.50Z"/><path fill="#333" d="M126.22 40.98L126.20 40.96L126.13 40.89Q124.78 39.16 123.49 36.08L123.50 36.10L121.45 31.04L121.48 31.06Q119.90 35.08 119.29 36.38L119.16 36.25L119.19 36.28Q117.71 39.18 116.12 41.08L116.19 41.15L116.27 41.24Q115.80 41.15 115.04 41.26L114.98 41.20L115.17 41.39Q115.02 33.82 109.20 27.88L109.19 27.88L109.27 27.95Q107.55 26.16 105.53 24.67L105.44 24.58L105.50 24.64Q107.44 25.29 109.31 25.59L109.16 25.45L109.15 25.43Q115.28 30.46 116.73 36.70L116.69 36.67L116.80 36.78Q117.61 34.85 118.79 31.65L118.85 31.71L118.71 31.57Q120.23 27.99 120.80 26.70L120.69 26.58L122.10 26.58L122.09 26.57Q122.99 28.31 124.17 31.59L124.21 31.63L124.19 31.61Q125.40 35.14 126.05 36.55L126.21 36.70L126.18 36.68Q128.00 30.39 133.49 25.83L133.36 25.70L133.38 25.72Q134.63 25.67 137.37 25.10L137.38 25.11L137.40 25.13Q128.70 31.09 127.52 41.06L127.51 41.05L126.94 41.02L126.80 40.88Q126.62 41.00 126.28 41.04ZM129.18 43.41L131.20 43.56L131.31 43.68Q131.00 42.15 131.00 40.63L130.86 40.48L130.99 40.62Q130.81 37.20 132.22 33.96L132.35 34.10L132.41 34.15Q134.27 29.50 138.38 26.42L138.33 26.37L138.47 26.51Q137.24 26.77 135.38 27.11L135.28 27.01L135.27 27.00Q137.32 25.44 138.62 24.52L138.56 24.46L135.99 24.87L136.11 24.98Q134.78 25.10 133.44 25.25L133.62 25.43L133.48 25.29Q128.33 29.54 126.39 34.56L126.33 34.51L126.44 34.61Q125.68 32.33 124.31 28.07L124.44 28.20L124.30 28.06Q124.18 28.29 123.92 28.29L123.83 28.20L123.26 28.16L123.33 28.23Q123.21 27.92 122.41 26.17L122.37 26.13L120.32 26.14L120.23 26.05Q119.40 28.98 117.30 34.61L117.32 34.64L117.25 34.56Q116.01 30.97 112.93 27.69L112.91 27.67L112.88 27.64Q112.55 27.58 112.25 27.54L112.24 27.54L111.78 27.53L111.76 27.51Q110.86 26.65 109.07 25.05L109.14 25.12L109.17 25.15Q106.02 24.51 104.35 24.02L104.18 23.85L104.20 23.87Q114.96 31.36 114.58 41.68L114.59 41.69L114.61 41.70Q114.81 41.71 115.17 41.67L115.23 41.74L115.18 41.69Q115.44 41.55 115.63 41.55L115.78 41.70L115.72 41.64Q115.74 41.50 115.93 43.60L115.88 43.55L117.80 43.38L117.91 43.49Q120.39 40.56 122.64 34.81L122.76 34.93L122.74 34.91Q124.15 38.68 126.01 41.35L126.02 41.36L125.97 41.30Q126.26 41.25 126.52 41.27L126.51 41.26L126.66 41.40Q126.79 41.29 127.06 41.29L127.19 41.42L129.24 43.47Z"/><path fill="#111" d="M43.80 29.59L43.91 29.71L43.85 29.65Q43.81 33.87 43.09 38.02L43.20 38.13L43.19 38.12Q45.32 37.44 48.41 37.32L48.44 37.36L48.46 37.37Q49.78 37.55 50.84 36.54L50.81 36.51L50.86 36.56Q51.86 35.49 51.86 34.15L51.93 34.22L52.01 34.30Q51.96 33.94 51.92 33.67L51.82 33.57L51.85 33.61Q51.64 30.62 49.40 29.78L49.49 29.88L49.53 29.92Q48.81 29.65 48.12 29.73L48.11 29.72L48.06 29.67Q46.92 29.52 45.89 29.55L46.01 29.67L46.02 29.68Q44.85 29.62 43.82 29.62ZM42.66 19.24L42.72 19.30L42.61 19.19Q43.41 22.43 43.68 26.81L43.79 26.92L43.83 26.95Q45.17 26.96 47.83 27.00L47.86 27.03L47.86 27.03Q50.82 27.09 51.16 23.55L51.11 23.51L51.14 23.53Q51.33 21.59 49.92 20.75L49.90 20.73L50.04 20.87Q49.07 20.28 44.65 19.64L44.52 19.50L44.58 19.56Q43.63 19.52 42.71 19.29ZM39.04 42.16L38.90 42.01L39.00 42.11Q41.53 35.51 41.27 28.13L41.10 27.96L41.26 28.12Q40.83 20.69 37.90 14.21L37.94 14.25L37.92 14.24Q41.73 16.79 47.95 17.03L47.96 17.04L47.88 16.96Q54.14 17.24 54.48 20.14L54.60 20.26L54.62 20.27Q54.79 22.88 53.38 25.55L53.47 25.63L53.41 25.58Q52.75 27.16 51.15 27.84L51.06 27.75L51.12 27.81Q54.78 28.50 55.00 33.87L54.94 33.80L54.97 33.83Q55.08 34.97 55.00 36.38L55.01 36.39L54.97 36.35Q54.96 37.70 54.02 38.64L54.09 38.70L54.07 38.69Q53.08 39.56 51.75 39.71L51.81 39.77L51.81 39.77Q50.24 39.76 49.17 39.76L49.18 39.77L49.27 39.86Q43.48 39.78 38.95 42.06ZM51.71 42.34L51.82 42.45L51.79 42.42Q52.75 42.50 54.61 42.61L54.65 42.65L54.67 42.67Q56.00 42.63 57.10 41.75L57.05 41.70L57.15 41.80Q57.86 40.80 57.74 39.24L57.81 39.31L57.83 39.32Q57.72 38.34 57.00 34.88L56.95 34.83L57.06 34.93Q56.29 31.61 54.42 30.13L54.35 30.05L53.96 29.24L53.98 29.27Q55.76 27.97 56.33 24.20L56.33 24.20L56.17 24.03Q56.32 22.89 56.24 21.48L56.35 21.59L56.38 21.62Q56.27 20.25 55.16 19.41L55.23 19.48L55.17 19.42Q54.87 19.23 54.76 19.19L54.73 19.17L54.64 19.08Q54.60 18.77 53.76 17.97L53.58 17.79L53.70 17.91Q52.11 16.78 47.89 16.59L47.83 16.53L47.95 16.65Q41.37 16.42 37.37 13.53L37.27 13.43L37.37 13.53Q40.55 20.44 40.85 27.98L40.93 28.05L40.93 28.05Q41.27 35.89 38.45 42.82L38.33 42.70L40.45 41.81L40.47 41.83Q39.99 42.88 39.49 44.02L39.67 44.19L39.57 44.10Q43.85 42.20 48.87 42.20L48.90 42.23L48.91 42.24Q50.24 42.16 51.69 42.32ZM49.54 31.75L49.72 31.93L49.68 31.89Q50.28 31.70 51.20 32.16L51.26 32.22L51.30 32.26Q51.46 32.65 51.62 33.72L51.46 33.56L51.45 33.55Q51.77 35.05 50.84 36.10L50.90 36.16L50.72 35.98Q49.85 37.09 48.44 36.98L48.39 36.92L47.00 37.14L46.92 37.05Q46.29 37.22 45.56 37.33L45.45 37.22L45.48 37.25Q45.74 35.38 45.82 31.91L45.85 31.94L45.96 32.06Q46.57 31.94 47.82 31.90L47.79 31.87L47.82 31.90Q48.98 31.77 49.59 31.81ZM48.60 22.25L48.65 22.30L49.03 22.30L48.91 22.18Q49.23 22.27 49.42 22.31L49.44 22.33L49.88 22.39L50.22 22.54L50.72 22.50L50.70 22.49Q50.89 22.82 50.89 23.13L50.72 22.96L50.73 23.50L50.85 23.63Q50.92 24.95 50.04 25.88L49.95 25.78L49.93 25.77Q48.98 26.63 47.77 26.63L47.93 26.80L47.82 26.68Q46.89 26.79 46.89 26.79L46.84 26.74L46.91 26.80Q45.50 26.69 45.85 26.69L45.92 26.76L45.74 26.59Q45.80 25.16 45.50 22.11L45.54 22.16L45.47 22.08Q47.07 22.24 48.59 22.24Z"/><path fill="#333" d="M87.66 14.32L87.67 14.33L87.63 14.29Q91.37 16.77 96.13 17.00L96.22 17.09L96.30 17.18Q100.90 17.32 105.17 15.57L105.10 15.50L105.01 15.41Q104.81 16.02 104.05 18.79L103.99 18.74L104.12 18.86Q101.35 19.86 98.38 20.01L98.33 19.96L98.36 19.99Q95.43 20.18 92.53 19.46L92.58 19.50L92.48 19.40Q93.21 23.06 93.40 26.72L93.44 26.76L93.41 26.73Q95.32 26.85 96.92 26.81L96.98 26.88L96.99 26.88Q98.25 26.93 100.65 26.81L100.64 26.80L100.68 26.84Q100.62 27.46 100.62 28.15L100.60 28.13L100.60 29.46L100.52 29.39Q98.19 29.45 93.39 29.52L93.33 29.47L93.37 29.51Q93.31 33.55 92.73 37.55L92.78 37.60L92.76 37.57Q95.44 36.99 98.18 37.10L98.22 37.14L98.29 37.20Q100.95 37.24 103.54 38.08L103.41 37.95L103.51 38.05Q103.46 38.72 103.73 39.48L103.92 39.67L104.37 41.20L104.19 41.01Q101.06 39.79 97.64 39.79L97.68 39.83L97.57 39.72Q92.88 39.90 88.62 42.15L88.55 42.08L88.46 41.99Q90.84 35.23 90.57 28.12L90.51 28.06L90.67 28.21Q90.29 20.94 87.62 14.28ZM88.05 42.80L88.01 42.77L88.01 42.76Q89.21 41.99 89.98 41.64L89.98 41.65L89.97 41.64Q89.90 42.52 89.33 44.04L89.23 43.94L89.34 44.05Q93.81 42.01 98.87 42.28L98.81 42.21L98.78 42.19Q104.12 42.65 108.11 45.36L108.07 45.31L108.09 45.33Q106.84 42.71 106.16 40.77L106.11 40.72L106.10 40.71Q105.11 40.10 104.12 39.76L104.25 39.89L104.14 39.78Q103.88 38.53 103.72 37.73L103.60 37.61L103.60 37.61Q100.50 36.60 97.34 36.60L97.52 36.78L97.51 36.77Q96.36 36.76 95.22 36.87L95.16 36.81L95.22 36.87Q95.24 35.53 95.28 34.31L95.23 34.26L95.33 31.78L95.42 31.87Q97.13 31.67 98.92 31.70L99.01 31.80L98.95 31.73Q100.77 31.76 102.56 31.92L102.51 31.87L102.60 31.96Q102.49 30.97 102.49 30.02L102.52 30.05L102.47 28.10L101.77 28.28L101.70 28.21Q101.22 28.22 100.76 28.22L100.94 28.39L100.94 28.40Q100.79 27.56 100.94 26.27L101.08 26.40L101.01 26.34Q99.43 26.58 98.25 26.62L98.22 26.59L98.24 26.61Q97.21 26.54 95.39 26.46L95.49 26.56L95.53 26.61Q95.41 25.15 95.22 22.33L95.13 22.24L95.18 22.29Q96.21 22.42 97.20 22.42L97.27 22.48L97.13 22.34Q102.00 22.49 105.69 20.58L105.59 20.48L105.52 20.42Q106.09 18.05 106.97 15.84L107.10 15.98L107.08 15.96Q105.83 16.87 104.99 17.22L104.81 17.03L104.99 17.22Q105.15 16.32 105.61 14.76L105.59 14.73L105.67 14.81Q100.91 16.84 96.04 16.53L96.23 16.72L96.09 16.58Q90.88 16.35 87.03 13.50L87.05 13.52L86.90 13.37Q89.84 20.38 90.15 28.00L90.21 28.06L90.20 28.05Q90.45 35.92 87.94 42.69Z"/></svg>