<svg xmlns="http://www.w3.org/2000/svg" width="150" height="50" viewBox="0,0,150,50"><path fill="#222" d="M22.89 18.40L22.91 18.42L22.89 18.41Q22.22 18.84 22.07 19.64L22.10 19.67L22.05 24.77L22.12 24.84Q23.25 24.82 25.46 24.55L25.40 24.49L25.36 24.45Q25.44 24.99 25.40 25.83L25.35 25.78L25.36 25.79Q25.35 26.58 25.35 27.04L25.38 27.07L23.77 27.13L23.68 27.03Q23.02 27.25 22.14 27.25L22.13 27.24L22.05 27.16Q22.07 31.37 22.00 39.75L22.00 39.75L21.94 39.69Q19.68 39.71 18.19 40.40L18.24 40.44L18.21 40.42Q19.31 34.28 19.20 27.05L19.33 27.19L19.25 27.10Q18.53 26.99 17.23 26.72L17.38 26.87L17.34 26.83Q17.32 25.82 17.13 23.88L17.18 23.93L17.07 23.81Q18.13 24.27 19.08 24.46L19.20 24.58L19.26 24.64Q19.05 23.82 18.75 21.35L18.75 21.35L18.83 21.42Q18.64 19.41 18.64 18.46L18.50 18.32L18.67 18.49Q18.66 16.80 20.07 16.23L20.03 16.19L19.98 16.14Q20.75 15.73 25.58 14.90L25.72 15.04L25.75 15.06Q26.42 14.78 27.25 14.66L27.38 14.79L27.23 14.64Q27.14 15.53 26.98 16.41L26.89 16.32L26.69 17.98L26.69 17.98Q25.98 17.77 25.48 17.88L25.43 17.83L25.40 17.80Q24.88 17.89 22.98 18.49ZM28.45 19.67L28.35 19.56L28.34 19.56Q28.67 17.33 29.27 14.78L29.39 14.90L29.30 14.80Q28.80 15.26 27.50 15.87L27.44 15.80L27.81 14.08L27.83 14.09Q26.56 14.24 24.09 14.77L24.16 14.85L24.07 14.76Q22.97 14.91 19.77 15.82L19.77 15.82L19.70 15.75Q18.19 16.22 18.19 18.09L18.08 17.98L18.26 18.16Q18.25 18.45 18.33 18.80L18.27 18.74L18.35 18.81Q18.43 20.00 18.55 21.34L18.59 21.38L18.70 23.96L18.81 24.07Q17.42 23.67 16.77 23.21L16.72 23.16L16.69 23.14Q16.90 24.18 16.93 25.21L16.97 25.24L16.98 27.12L17.13 27.26Q17.72 27.33 18.52 27.40L18.64 27.52L18.57 29.54L18.87 29.46L19.04 29.63Q18.79 35.62 17.80 41.07L17.92 41.19L17.76 41.03Q18.72 40.51 19.90 40.24L20.04 40.38L19.84 42.43L19.81 42.40Q21.04 42.10 22.33 42.06L22.32 42.05L22.34 42.07Q23.66 42.13 24.92 42.40L24.87 42.35L24.78 42.26Q24.10 37.43 24.10 29.48L23.95 29.33L24.01 29.38Q25.04 29.31 27.13 29.39L27.22 29.48L27.15 27.54L27.21 27.60Q27.29 26.73 27.33 25.78L27.27 25.72L27.34 25.79Q26.76 25.78 25.69 26.05L25.76 26.11L25.63 25.98Q25.63 25.30 25.75 23.97L25.83 24.05L25.79 24.02Q24.99 24.28 24.19 24.35L24.18 24.35L24.21 24.38Q24.18 22.93 24.29 21.53L24.34 21.57L24.17 21.40Q24.40 20.84 24.94 20.49L24.95 20.50L24.96 20.52Q25.97 19.89 26.79 19.81L26.77 19.80L26.70 19.72Q27.58 19.71 28.42 19.64Z"/><path fill="#444" d="M45.75 27.68L45.76 27.69L45.70 27.63Q43.41 27.59 42.13 29.09L42.13 29.08L42.17 29.12Q41.04 30.77 40.92 33.05L40.78 32.91L40.87 33.00Q40.79 35.71 41.63 36.66L41.55 36.58L41.45 36.48Q42.68 37.86 45.01 37.71L45.07 37.77L44.92 37.62Q49.65 37.40 50.03 34.40L49.98 34.34L49.98 34.35Q50.00 33.45 50.00 32.65L50.13 32.78L50.02 32.67Q49.95 30.62 48.80 29.10L48.96 29.25L48.82 29.11Q47.72 27.67 45.78 27.71ZM50.51 37.69L50.60 37.79L50.51 37.69Q49.05 39.85 44.67 40.07L44.72 40.13L44.81 40.21Q40.60 40.35 38.96 39.24L38.91 39.19L38.94 39.22Q38.00 38.32 37.85 36.61L37.69 36.45L37.74 36.49Q37.74 35.43 37.93 33.57L37.85 33.48L38.02 33.65Q38.42 29.26 39.64 27.43L39.72 27.51L39.70 27.49Q41.27 24.95 45.11 24.99L45.10 24.97L45.16 25.03Q47.63 25.03 49.91 27.35L50.00 27.44L49.99 27.43Q50.07 21.57 51.67 15.06L51.58 14.97L51.54 14.93Q53.57 14.64 55.44 13.80L55.31 13.67L55.42 13.79Q52.87 20.44 52.60 27.45L52.51 27.36L52.51 27.36Q52.29 34.60 54.42 41.18L54.29 41.05L54.29 41.05Q52.75 40.54 51.03 40.16L51.10 40.22L51.11 40.24Q50.64 38.77 50.49 37.67ZM53.55 43.17L53.49 43.10L53.51 43.12Q55.65 43.75 58.20 45.27L58.27 45.34L58.25 45.32Q54.43 38.15 54.28 29.85L54.31 29.88L54.42 29.99Q54.18 21.68 57.27 14.30L57.31 14.34L57.34 14.37Q56.54 14.71 55.09 15.36L55.13 15.40L55.23 15.50Q55.45 14.23 56.06 13.01L56.08 13.03L56.14 13.09Q53.81 14.23 51.37 14.80L51.35 14.78L51.28 14.71Q49.78 20.44 49.51 26.53L49.50 26.51L49.61 26.62Q47.58 24.68 45.07 24.56L45.08 24.57L45.03 24.52Q41.66 24.47 39.76 26.56L39.83 26.63L39.77 26.57Q37.99 28.87 37.57 33.55L37.72 33.70L37.67 33.64Q37.47 36.45 37.47 36.87L37.44 36.84L37.38 36.78Q37.47 38.55 38.61 39.61L38.56 39.56L38.65 39.65Q38.80 39.80 38.99 39.87L39.08 39.97L39.55 40.63L39.50 40.57Q40.47 41.93 43.44 42.20L43.51 42.27L43.36 42.12Q45.66 42.36 47.03 42.44L47.07 42.48L47.11 42.52Q51.25 42.65 52.96 41.32L52.96 41.32L52.91 41.27Q53.15 42.08 53.60 43.22ZM47.21 29.83L47.22 29.84L47.28 29.90Q48.41 29.99 49.25 30.49L49.24 30.48L49.23 30.47Q49.68 31.72 49.75 32.75L49.83 32.83L49.81 32.81Q50.13 37.04 45.10 37.39L45.08 37.37L45.01 37.30Q44.15 37.34 43.04 37.08L42.94 36.97L42.99 37.02Q42.86 36.52 42.79 35.98L42.71 35.91L42.80 36.00Q42.66 35.25 42.70 34.64L42.78 34.72L42.66 34.60Q43.09 31.30 45.71 30.31L45.59 30.19L45.61 30.20Q46.52 29.78 47.21 29.82Z"/><path fill="#333" d="M96.61 30.37L96.74 30.50L96.60 30.36Q93.09 36.67 89.66 40.63L89.78 40.74L89.79 40.76Q87.80 41.05 85.36 41.92L85.44 42.00L85.43 41.99Q90.42 36.47 95.18 28.06L95.14 28.02L95.18 28.06Q90.62 21.14 84.64 14.74L84.49 14.59L84.60 14.70Q87.57 15.96 89.85 16.45L89.84 16.44L89.80 16.40Q94.32 21.49 96.76 25.45L96.78 25.47L96.90 25.60Q99.27 21.04 103.19 16.62L103.29 16.72L103.33 16.75Q104.93 16.45 108.13 15.69L108.09 15.66L108.07 15.64Q102.03 22.12 98.56 28.06L98.50 27.99L98.50 27.99Q103.69 36.68 108.06 41.25L108.14 41.33L108.07 41.25Q105.53 40.51 103.44 40.28L103.38 40.22L103.41 40.25Q100.57 37.22 96.65 30.41ZM103.24 40.50L103.28 40.54L103.41 40.66Q103.55 40.54 104.01 40.66L104.11 40.76L104.02 40.67Q104.80 41.41 106.32 43.01L106.49 43.18L106.46 43.15Q109.72 43.86 112.77 45.23L112.78 45.24L112.86 45.32Q105.63 38.63 100.53 29.87L100.48 29.83L100.48 29.82Q104.31 23.25 110.21 16.40L110.21 16.40L110.19 16.38Q108.76 17.05 106.59 17.58L106.50 17.49L106.54 17.53Q107.54 16.74 109.29 14.95L109.29 14.95L109.16 14.82Q106.82 15.75 103.13 16.33L103.12 16.32L103.05 16.25Q99.72 20.16 97.14 24.46L97.11 24.43L97.12 24.44Q96.20 22.84 95.02 21.35L95.07 21.41L92.76 18.44L92.31 18.38L92.27 18.34Q92.14 18.36 91.91 18.28L91.97 18.34L91.94 18.31Q91.29 17.51 89.80 15.95L89.81 15.95L89.78 15.93Q85.97 15.04 83.38 13.67L83.37 13.66L83.35 13.64Q90.19 21.02 94.76 28.06L94.64 27.94L94.76 28.06Q90.25 36.23 84.50 42.81L84.43 42.75L84.54 42.85Q85.75 42.09 87.88 41.51L88.00 41.63L86.58 42.95L86.70 43.07Q86.69 43.06 85.36 44.40L85.22 44.26L85.36 44.40Q88.27 43.23 91.43 42.74L91.46 42.76L91.54 42.85Q95.47 38.25 98.06 33.49L97.98 33.41L98.07 33.50Q100.51 37.62 103.21 40.47Z"/><path fill="#222" d="M74.33 39.93L74.19 39.79L72.33 39.87L72.34 39.88Q71.35 39.84 70.40 39.96L70.41 39.97L70.43 39.99Q70.93 33.71 70.93 29.72L70.92 29.71L70.99 29.77Q67.02 23.10 59.37 14.42L59.37 14.43L59.28 14.33Q61.05 15.31 64.40 16.11L64.46 16.17L64.55 16.26Q69.59 21.83 72.60 27.04L72.60 27.04L72.66 27.11Q75.53 21.41 79.91 16.38L79.93 16.41L79.97 16.45Q82.39 16.05 84.91 15.25L84.77 15.12L84.93 15.28Q78.90 21.39 74.03 29.81L73.88 29.65L74.01 29.79Q73.86 36.68 74.16 39.76ZM83.33 17.26L85.95 14.32L86.12 14.49Q83.04 15.67 79.92 16.13L79.76 15.97L79.78 15.99Q75.60 20.76 72.78 25.86L72.79 25.87L72.83 25.90Q70.69 22.24 67.49 18.36L67.54 18.41L67.38 18.25Q67.22 18.35 66.72 18.28L66.76 18.31L66.78 18.33Q66.04 17.48 64.52 15.80L64.44 15.73L64.53 15.81Q61.17 15.08 58.20 13.52L58.23 13.55L58.07 13.40Q65.83 21.92 70.59 29.83L70.66 29.90L70.61 29.86Q70.51 36.18 69.90 40.33L69.82 40.25L69.99 40.42Q70.63 40.30 72.08 40.19L72.07 40.18L72.13 41.27L72.05 41.19Q72.11 41.71 72.04 42.24L72.05 42.26L71.95 42.16Q75.59 42.25 77.34 42.44L77.36 42.46L77.42 42.52Q76.12 37.80 76.01 31.82L75.86 31.68L75.96 31.77Q80.39 23.38 86.94 16.03L86.87 15.96L83.31 17.23Z"/><path fill="#222" d="M120.38 40.92L120.46 41.01L120.42 40.97Q116.37 29.83 111.23 24.85L111.11 24.73L111.16 24.78Q112.54 25.32 115.51 25.97L115.48 25.94L115.51 25.97Q119.06 29.90 121.61 36.57L121.68 36.63L121.61 36.56Q124.34 29.28 126.96 26.23L126.89 26.16L126.86 26.13Q128.88 26.05 131.32 25.37L131.39 25.45L131.26 25.31Q128.14 28.10 125.97 32.66L126.07 32.76L126.01 32.70Q125.62 33.34 122.23 40.95L122.21 40.93L122.21 40.93Q121.60 41.01 120.38 40.93ZM124.99 43.33L125.12 43.46L125.04 43.38Q128.46 31.16 133.03 26.47L132.95 26.40L131.57 26.99L131.52 26.94Q130.74 27.19 129.90 27.30L129.97 27.37L129.98 27.38Q130.33 26.86 131.15 25.98L131.07 25.90L131.20 26.03Q131.92 25.06 132.37 24.64L132.41 24.67L132.35 24.62Q130.14 25.26 126.72 25.76L126.81 25.85L126.78 25.82Q124.07 29.01 122.01 34.60L122.04 34.63L122.00 34.59Q120.48 30.52 118.65 28.04L118.56 27.96L118.01 27.94L118.05 27.98Q117.68 27.88 117.46 27.88L117.51 27.94L117.50 27.93Q117.41 27.72 115.69 25.66L115.69 25.66L115.54 25.51Q112.20 25.03 109.96 23.88L110.00 23.92L110.00 23.93Q116.23 29.74 120.23 41.47L120.10 41.34L121.18 41.43L121.15 41.40Q121.45 42.00 122.29 43.30L122.27 43.27L123.81 43.44L123.67 43.30Q124.35 43.27 125.00 43.34Z"/></svg>