<svg xmlns="http://www.w3.org/2000/svg" width="150" height="50" viewBox="0,0,150,50"><path fill="#444" d="M120.08 40.15L120.17 40.25L120.16 40.23Q116.75 40.40 115.11 39.86L115.12 39.88L115.05 39.81Q113.05 39.14 112.75 35.75L112.67 35.68L114.29 34.78L114.25 34.74Q115.02 34.25 115.78 33.76L115.65 33.63L115.63 33.61Q115.38 35.53 116.98 36.75L116.95 36.72L117.02 36.78Q118.32 37.82 120.45 37.63L120.38 37.56L120.49 37.67Q124.76 37.14 124.57 33.60L124.64 33.67L124.72 33.75Q124.46 31.40 121.83 30.18L121.90 30.25L121.78 30.13Q119.07 29.21 116.71 27.99L116.65 27.93L116.61 27.89Q114.13 26.62 113.14 21.94L113.10 21.90L113.21 22.01Q112.95 21.41 112.83 20.65L112.86 20.68L112.97 20.79Q112.79 19.92 112.86 19.34L112.94 19.42L112.86 19.34Q113.01 17.74 114.27 17.28L114.22 17.24L114.21 17.23Q116.75 16.49 120.74 16.68L120.78 16.72L120.60 16.54Q122.50 16.72 123.30 16.80L123.40 16.90L123.30 16.80Q124.70 16.91 125.77 17.36L125.81 17.40L125.77 17.37Q127.98 17.94 128.21 20.42L128.26 20.47L128.15 20.36Q127.08 21.03 124.87 22.37L124.98 22.48L124.96 22.46Q124.47 19.38 120.10 19.38L120.14 19.43L120.24 19.53Q118.34 19.54 117.35 20.22L117.33 20.20L117.35 20.21Q116.11 20.65 116.34 22.44L116.22 22.32L116.24 22.35Q116.64 24.68 119.61 26.20L119.45 26.05L119.46 26.05Q120.13 26.42 124.62 28.06L124.55 27.99L124.52 27.96Q127.13 29.43 127.55 33.80L127.61 33.86L127.55 33.80Q127.67 34.07 127.74 35.33L127.78 35.37L127.66 35.24Q127.70 37.99 126.14 39.09L126.25 39.20L126.22 39.17Q124.38 40.15 120.19 40.27ZM122.42 42.57L122.48 42.63L122.38 42.53Q123.86 42.64 125.84 42.64L125.86 42.66L125.97 42.77Q127.92 42.62 129.17 42.20L129.34 42.37L129.29 42.32Q130.39 41.36 130.31 39.57L130.32 39.58L130.42 39.69Q130.45 38.76 130.07 36.71L130.03 36.66L129.91 36.55Q129.06 31.92 126.96 30.06L126.91 30.01L126.93 30.03Q126.17 28.46 124.84 27.74L124.81 27.71L119.55 25.69L119.50 25.64Q119.17 25.46 118.71 25.23L118.81 25.33L118.76 25.02L118.63 24.54L118.56 24.48Q118.46 23.11 119.60 22.50L119.53 22.44L119.59 22.50Q120.47 22.04 122.18 21.85L122.04 21.71L122.15 21.82Q123.21 21.62 124.35 22.08L124.38 22.11L124.40 22.13Q124.53 22.29 124.72 23.13L124.70 23.11L124.74 23.15Q124.93 23.00 125.42 22.77L125.36 22.71L125.32 22.66Q126.07 23.60 126.18 24.74L126.21 24.77L126.12 24.69Q126.32 24.77 129.98 22.19L129.90 22.10L129.87 22.07Q129.73 19.58 128.28 18.89L128.21 18.82L128.14 18.75Q127.60 17.52 126.15 16.99L126.14 16.97L126.15 16.99Q123.95 16.27 120.75 16.27L120.73 16.25L120.71 16.23Q115.74 16.17 113.88 16.86L113.99 16.97L113.83 16.81Q112.56 17.33 112.45 19.01L112.51 19.07L112.43 18.99Q112.46 19.59 112.88 21.80L112.93 21.85L112.80 21.72Q113.57 25.57 115.74 27.82L115.71 27.79L115.74 27.81Q116.49 29.48 117.99 30.16L117.94 30.11L118.10 30.27Q119.53 30.89 123.45 32.45L123.39 32.38L123.41 32.44L124.14 32.87L124.10 32.87L124.09 32.85Q124.17 33.20 124.20 33.54L124.30 33.64L124.36 33.69Q124.33 37.05 120.41 37.21L120.49 37.29L120.46 37.26Q119.29 37.27 118.00 36.89L118.08 36.97L118.04 36.94Q117.59 35.99 117.59 35.26L117.58 35.26L117.65 35.33Q117.76 35.17 117.80 34.90L117.79 34.90L117.65 34.75Q117.29 35.04 116.49 35.54L116.59 35.63L116.50 35.55Q115.99 34.42 116.14 33.05L116.23 33.14L116.09 33.00Q114.01 34.19 112.41 35.60L112.39 35.59L112.48 35.67Q112.57 36.53 112.65 37.56L112.68 37.58L112.58 37.49Q112.83 39.14 114.12 39.91L114.14 39.93L114.16 39.94Q115.51 41.90 118.06 42.28L118.02 42.24L118.01 42.24Q119.47 42.36 122.40 42.55Z"/><path fill="#333" d="M71.05 40.93L71.03 40.91L71.05 40.93Q67.05 29.85 61.91 24.86L61.75 24.71L61.79 24.74Q63.26 25.38 66.23 26.03L66.27 26.06L66.16 25.95Q69.79 29.96 72.34 36.62L72.42 36.71L72.31 36.59Q75.01 29.28 77.63 26.23L77.57 26.17L77.58 26.19Q79.64 26.15 82.07 25.46L82.00 25.39L82.00 25.38Q78.74 28.02 76.57 32.59L76.73 32.76L76.68 32.70Q76.33 33.39 72.94 41.00L72.96 41.01L73.01 41.06Q72.25 40.99 71.03 40.91ZM75.74 43.41L75.71 43.38L75.85 43.52Q79.09 31.12 83.66 26.44L83.77 26.54L82.24 27.00L82.10 26.86Q81.32 27.11 80.49 27.22L80.51 27.25L80.48 27.21Q81.00 26.86 81.82 25.98L81.80 25.97L81.83 25.99Q82.67 25.14 83.12 24.72L83.13 24.73L83.16 24.76Q80.97 25.42 77.54 25.92L77.53 25.91L77.38 25.76Q74.86 29.13 72.80 34.73L72.65 34.57L72.73 34.65Q71.00 30.38 69.18 27.90L69.32 28.05L68.81 28.07L68.78 28.05Q68.48 28.01 68.25 28.01L68.20 27.96L68.12 27.88Q67.92 27.57 66.21 25.51L66.26 25.56L66.33 25.63Q62.88 25.04 60.64 23.89L60.61 23.87L60.66 23.92Q66.85 29.69 70.85 41.42L70.82 41.39L71.82 41.40L71.76 41.33Q72.11 41.99 72.94 43.28L73.00 43.34L74.45 43.42L74.39 43.36Q75.09 43.34 75.74 43.41Z"/><path fill="#333" d="M19.17 40.44L19.03 40.30L19.18 40.45Q14.94 40.52 13.95 38.19L13.99 38.23L13.96 38.20Q14.73 37.26 16.29 35.47L16.45 35.62L16.27 35.45Q16.90 37.60 19.90 37.71L19.78 37.59L19.86 37.67Q23.34 37.83 24.97 36.50L24.93 36.46L24.84 36.37Q26.33 34.85 26.25 32.14L26.29 32.18L26.17 32.07Q25.98 26.97 21.19 27.19L21.21 27.21L21.37 27.38Q18.48 27.45 16.73 28.71L16.75 28.73L16.30 28.43L16.19 28.40L16.09 28.30Q16.56 25.27 16.45 22.53L16.36 22.45L16.43 22.51Q16.37 19.94 16.03 16.63L16.01 16.61L16.03 16.63Q19.58 17.48 23.39 17.36L23.43 17.41L23.34 17.31Q27.14 17.24 30.72 15.98L30.81 16.07L30.19 17.54L30.15 17.51Q29.91 18.32 29.72 19.16L29.77 19.22L29.74 19.19Q26.70 20.30 22.82 20.30L22.77 20.25L22.69 20.17Q21.34 20.27 19.86 20.12L19.84 20.10L19.88 20.14Q19.71 20.73 19.37 25.19L19.40 25.22L19.45 25.26Q20.14 24.66 22.19 24.50L22.27 24.58L22.35 24.66Q26.02 24.83 27.47 26.51L27.50 26.54L27.41 26.45Q28.72 27.91 28.99 31.76L29.06 31.83L28.99 31.76Q29.29 35.98 28.07 37.99L28.10 38.02L28.23 38.16Q26.17 40.02 22.86 40.25L22.74 40.13L22.81 40.20Q21.86 40.31 19.19 40.47ZM25.10 42.60L25.22 42.72L25.25 42.76Q28.52 42.67 30.42 41.57L30.45 41.60L30.41 41.56Q31.39 40.03 31.39 37.93L31.56 38.10L31.51 38.05Q31.52 34.97 30.57 30.86L30.60 30.89L30.51 30.81Q30.24 29.17 29.02 27.76L28.95 27.69L28.92 27.69L28.65 27.35L28.40 27.25L28.39 27.24Q28.01 26.44 27.37 25.76L27.42 25.82L27.50 25.93L27.49 25.92Q25.87 24.14 22.17 24.14L22.32 24.29L21.92 24.15L22.05 24.29Q21.99 23.58 22.18 22.48L22.27 22.56L22.27 22.56Q27.25 22.67 31.28 21.03L31.18 20.93L31.27 21.02Q31.60 19.52 32.55 16.70L32.53 16.68L30.52 17.72L30.59 17.79Q30.98 16.66 31.48 15.52L31.31 15.35L31.38 15.42Q27.54 16.87 23.43 16.95L23.39 16.90L23.35 16.87Q19.35 17.09 15.39 15.99L15.34 15.94L15.44 16.04Q16.07 20.40 16.07 24.82L15.96 24.71L16.11 24.86Q16.03 26.68 15.91 28.58L16.02 28.69L15.93 28.60Q16.15 28.74 16.72 29.05L16.69 29.01L16.81 29.14Q17.14 28.89 17.78 28.55L17.85 28.62L17.76 28.52Q17.74 29.30 17.51 30.82L17.41 30.73L17.55 30.86Q18.01 31.09 18.42 31.32L18.33 31.23L18.44 31.33Q21.08 29.45 22.95 29.45L23.06 29.56L23.06 29.56Q24.26 29.43 25.44 30.08L25.55 30.18L25.55 30.18Q25.90 31.23 25.94 32.18L25.80 32.03L25.93 32.17Q25.91 34.65 24.88 35.76L24.99 35.87L24.89 35.77Q23.64 37.11 21.39 37.34L21.35 37.29L21.28 37.23Q20.34 37.31 19.65 37.23L19.63 37.21L19.66 37.24Q18.81 37.12 18.05 36.77L18.15 36.88L18.08 36.61L17.98 36.73L17.87 36.63Q17.15 36.22 16.62 34.89L16.59 34.85L16.59 34.85Q15.20 36.21 13.53 38.34L13.67 38.48L13.63 38.44Q13.83 38.99 14.67 39.94L14.65 39.92L14.69 39.96Q15.86 41.89 18.67 42.38L18.57 42.28L18.64 42.35Q19.71 42.46 25.07 42.58Z"/><path fill="#333" d="M98.86 39.80L98.86 39.79L96.89 39.77L97.01 39.88Q95.93 39.75 94.98 39.87L95.05 39.94L95.12 40.01Q95.58 33.70 95.58 29.70L95.71 29.83L95.62 29.74Q91.73 23.15 84.08 14.47L84.01 14.40L84.07 14.45Q85.84 15.43 89.19 16.23L89.12 16.16L89.22 16.26Q94.13 21.70 97.14 26.92L97.34 27.12L97.25 27.03Q100.18 21.39 104.56 16.37L104.72 16.53L104.61 16.42Q106.97 15.97 109.49 15.17L109.50 15.18L109.59 15.27Q103.56 21.38 98.68 29.79L98.55 29.67L98.61 29.72Q98.57 36.73 98.88 39.81ZM108.02 17.28L110.78 14.48L110.74 14.44Q107.69 15.66 104.57 16.11L104.41 15.95L104.53 16.07Q100.29 20.78 97.47 25.88L97.48 25.88L97.49 25.90Q95.42 22.31 92.22 18.42L92.22 18.42L92.21 18.41Q91.93 18.39 91.43 18.32L91.38 18.27L91.41 18.30Q90.63 17.41 89.11 15.73L89.21 15.83L89.20 15.81Q85.81 15.06 82.84 13.50L82.89 13.55L82.80 13.46Q90.61 22.03 95.37 29.95L95.30 29.88L95.34 29.92Q95.15 36.16 94.54 40.31L94.55 40.31L94.50 40.27Q95.24 40.25 96.69 40.13L96.82 40.26L96.69 41.16L96.72 41.19Q96.88 41.81 96.80 42.34L96.72 42.26L96.66 42.20Q100.21 42.21 101.96 42.40L101.92 42.36L101.98 42.42Q100.82 37.83 100.70 31.85L100.67 31.82L100.55 31.70Q105.07 23.39 111.62 16.04L111.65 16.07L108.01 17.27Z"/><path fill="#222" d="M45.67 28.68L45.64 28.65L45.51 28.52Q42.76 28.59 42.00 30.83L42.07 30.91L42.08 30.91Q41.77 31.56 41.65 32.20L41.65 32.20L41.69 32.24Q44.21 32.37 45.85 32.37L45.81 32.32L46.00 32.52Q47.60 32.48 50.19 32.37L50.09 32.27L50.09 32.27Q50.10 30.67 48.69 29.61L48.58 29.50L48.74 29.66Q47.29 28.52 45.50 28.52ZM45.70 41.20L45.60 41.10L45.70 41.20Q41.49 41.22 40.20 39.81L40.20 39.81L40.25 39.86Q39.16 38.28 39.01 35.00L38.96 34.96L39.00 35.00Q38.96 34.73 38.88 33.36L38.91 33.38L39.03 33.50Q38.89 31.19 38.89 30.47L38.83 30.41L38.92 30.50Q38.74 28.46 39.47 27.35L39.51 27.40L39.47 27.36Q41.04 26.11 44.01 26.11L43.92 26.02L45.46 26.00L45.52 26.06Q47.47 25.95 48.99 26.26L49.07 26.34L49.10 26.36Q51.07 26.74 52.06 27.96L52.15 28.05L52.15 28.04Q52.76 29.11 52.84 31.21L52.74 31.11L52.75 31.12Q52.70 32.21 52.74 34.38L52.86 34.51L52.74 34.38Q49.97 34.51 47.19 34.51L47.28 34.59L41.68 34.59L41.57 34.48Q41.79 38.97 45.87 38.74L45.83 38.71L45.82 38.70Q49.65 38.57 50.87 36.74L50.77 36.64L50.87 36.74Q51.65 37.18 53.25 38.36L53.29 38.40L53.21 38.32Q51.86 40.74 47.71 41.01L47.74 41.04L47.85 41.14Q47.08 41.14 45.71 41.21ZM47.99 43.53L47.97 43.51L48.05 43.59Q49.00 43.40 50.22 43.48L50.34 43.59L50.30 43.56Q55.24 43.70 56.15 40.92L56.14 40.90L56.17 40.94Q54.57 39.71 53.46 38.95L53.44 38.93L53.58 39.06Q53.58 38.50 53.77 38.27L53.92 38.42L53.80 38.30Q53.04 37.80 51.67 36.85L51.77 36.95L51.75 36.93Q52.81 36.97 54.87 37.27L54.95 37.36L54.85 37.26Q54.67 35.89 54.59 35.21L54.62 35.23L54.43 33.25L54.45 33.28Q54.28 30.90 53.63 29.41L53.69 29.47L53.62 29.40Q53.42 29.12 52.84 28.51L52.92 28.58L52.92 28.58Q52.65 28.16 52.42 27.59L52.38 27.55L52.42 27.59Q50.55 25.57 45.49 25.57L45.54 25.62L43.75 25.51L43.87 25.63Q40.51 25.50 39.06 26.99L39.15 27.08L39.23 27.15Q38.40 28.12 38.44 30.17L38.57 30.30L38.50 30.24Q38.65 31.29 38.76 33.54L38.68 33.45L38.61 33.38Q38.70 35.00 38.82 37.06L38.85 37.09L38.95 37.19Q39.18 39.40 40.06 40.47L40.06 40.48L40.08 40.49Q40.19 40.60 40.38 40.71L40.31 40.64L40.72 41.39L40.58 41.26Q41.38 43.13 47.97 43.51ZM45.89 38.35L45.94 38.40L45.86 38.31Q44.73 38.44 43.82 37.99L43.83 38.00L43.81 37.98Q43.74 37.57 43.55 36.88L43.55 36.88L43.51 36.84Q45.25 36.79 46.85 36.79L46.78 36.73L46.77 36.71Q48.49 36.75 50.16 36.87L50.27 36.97L50.23 36.94Q48.94 38.28 45.94 38.39ZM47.54 31.02L47.60 31.07L47.55 31.02Q48.08 30.95 49.42 31.33L49.49 31.40L49.63 31.73L49.75 32.04L49.61 31.90Q48.22 32.00 47.31 31.96L47.42 32.08L47.47 32.12Q45.08 31.97 45.04 31.97L45.10 32.03L44.97 31.91Q45.86 31.12 47.54 31.01Z"/></svg>