<svg xmlns="http://www.w3.org/2000/svg" width="150" height="50" viewBox="0,0,150,50"><path fill="#222" d="M80.39 41.50L80.40 41.51L80.51 41.62Q78.24 41.07 76.07 40.91L76.13 40.97L76.23 41.07Q74.76 39.60 72.10 35.76L72.03 35.69L72.17 35.83Q69.96 38.91 67.56 41.34L67.39 41.17L65.44 41.70L65.41 41.67Q64.38 41.89 63.39 42.16L63.25 42.02L63.39 42.17Q67.47 37.95 70.48 33.83L70.57 33.93L70.58 33.94Q67.23 29.67 61.82 24.87L61.74 24.79L61.82 24.86Q64.10 25.66 66.80 26.08L66.76 26.04L66.88 26.16Q70.26 29.20 72.16 31.90L72.15 31.89L72.04 31.78Q74.23 28.79 76.97 26.28L77.01 26.31L77.04 26.35Q80.05 25.97 81.88 25.47L81.79 25.39L81.80 25.40Q77.33 29.11 73.64 33.68L73.64 33.68L73.66 33.70Q76.99 38.32 80.45 41.56ZM83.39 24.77L83.32 24.71L83.34 24.72Q80.40 25.51 76.86 25.86L76.85 25.85L76.89 25.89Q74.00 28.56 72.29 31.04L72.23 30.98L72.17 30.92Q71.43 30.02 69.79 28.04L69.84 28.09L69.57 28.01L69.48 27.92Q69.34 27.89 69.22 27.89L69.21 27.88L69.39 28.06Q68.56 27.15 66.92 25.70L66.98 25.77L66.93 25.72Q63.38 25.22 60.53 24.00L60.50 23.97L60.40 23.86Q65.97 28.71 70.00 33.85L70.03 33.88L70.04 33.89Q66.70 38.54 62.28 42.85L62.33 42.89L62.21 42.77Q62.54 42.76 66.04 41.92L65.98 41.86L66.06 41.94Q64.47 43.21 62.84 44.54L62.90 44.60L62.89 44.59Q65.93 43.52 69.09 43.33L69.18 43.43L69.25 43.49Q71.62 41.22 73.52 38.48L73.46 38.42L73.44 38.40Q74.99 40.28 76.20 41.46L76.09 41.35L76.03 41.29Q76.21 41.36 76.29 41.43L76.39 41.53L76.56 41.51L76.53 41.48Q77.80 42.60 79.14 43.67L79.05 43.58L79.12 43.66Q82.57 44.05 85.46 45.08L85.55 45.17L85.53 45.15Q79.31 40.64 75.61 35.46L75.74 35.59L75.78 35.63Q79.41 30.58 83.98 26.51L84.00 26.53L83.96 26.49Q83.03 26.86 82.04 27.09L81.92 26.96L80.01 27.52L79.91 27.43Q81.14 26.56 83.31 24.70Z"/><path fill="#222" d="M95.79 29.22L95.80 29.23L95.67 29.11Q93.82 29.12 92.60 30.45L92.70 30.55L92.69 30.54Q91.43 31.83 91.28 33.73L91.23 33.68L91.26 33.72Q91.06 35.84 92.28 36.85L92.30 36.87L92.38 36.95Q93.60 37.95 95.73 37.88L95.71 37.86L95.61 37.76Q98.01 37.68 98.96 36.73L98.86 36.64L98.93 36.70Q99.99 35.29 99.88 33.46L99.86 33.45L99.88 33.47Q99.85 31.68 98.76 30.48L98.73 30.45L98.59 30.31Q97.67 29.28 95.84 29.28ZM95.82 19.85L95.63 19.66L95.76 19.79Q94.31 19.64 92.98 20.13L93.06 20.21L92.96 20.11Q91.61 20.85 91.84 22.72L91.84 22.73L91.98 22.86Q92.38 26.50 95.73 26.50L95.74 26.51L95.69 26.45Q97.40 26.80 98.39 25.66L98.37 25.64L98.40 25.66Q99.26 24.39 99.30 22.83L99.25 22.79L99.25 22.79Q99.40 21.11 98.68 20.50L98.74 20.56L98.73 20.56Q97.07 19.73 95.77 19.80ZM95.53 40.38L95.53 40.39L92.37 40.27L92.48 40.38Q90.79 40.22 89.46 39.34L89.52 39.40L89.64 39.52Q88.10 38.21 88.25 35.35L88.36 35.46L88.25 35.35Q88.81 28.60 92.42 27.61L92.45 27.63L92.31 27.49Q90.14 26.70 88.81 21.33L88.86 21.38L88.71 21.23Q88.36 19.82 88.44 19.02L88.59 19.17L88.59 19.17Q88.76 16.90 92.45 16.86L92.61 17.02L92.53 16.94Q96.79 16.89 98.23 17.08L98.20 17.06L98.14 16.99Q101.94 17.48 102.40 19.50L102.41 19.51L102.43 19.53Q102.62 20.22 102.62 20.60L102.67 20.64L102.55 20.53Q102.66 21.32 102.47 21.93L102.42 21.88L102.43 21.89Q101.77 26.06 98.83 27.59L98.95 27.70L98.83 27.58Q102.40 28.44 102.89 33.74L102.82 33.66L102.90 33.74Q102.79 33.79 102.83 35.09L103.00 35.25L102.98 35.24Q102.93 37.85 101.34 38.92L101.48 39.06L101.38 38.96Q99.95 39.78 95.38 40.24ZM97.66 42.55L97.65 42.54L101.13 42.74L101.08 42.70Q102.82 42.80 104.34 42.07L104.40 42.13L104.39 42.13Q105.46 41.33 105.53 39.46L105.59 39.52L105.59 39.52Q105.60 38.39 105.22 36.45L105.26 36.49L105.13 36.36Q104.31 31.80 102.21 29.94L102.10 29.83L102.07 29.60L101.73 29.19L101.69 29.03L101.66 29.00Q103.23 27.57 104.15 23.42L104.21 23.48L104.16 23.43Q104.25 23.14 104.33 22.30L104.26 22.24L104.36 22.33Q104.42 21.64 104.34 21.03L104.31 20.99L104.32 21.00Q104.16 19.55 102.98 19.06L102.95 19.02L102.96 18.99L102.85 18.96L102.78 18.90Q102.57 18.23 101.39 17.43L101.43 17.47L101.39 17.38L101.46 17.45Q99.32 16.61 95.24 16.42L95.36 16.54L95.41 16.59Q93.68 16.31 92.31 16.42L92.43 16.54L92.40 16.50Q91.58 16.52 90.28 16.68L90.29 16.68L90.40 16.79Q88.27 16.98 88.04 18.62L88.09 18.67L88.24 18.82Q88.06 19.17 88.09 19.97L88.13 20.01L88.17 20.04Q88.33 20.62 88.90 22.98L88.82 22.90L88.75 22.83Q89.54 26.06 91.29 27.39L91.28 27.38L91.41 27.50L91.36 27.46Q88.59 28.76 88.06 33.94L88.11 33.99L88.11 33.99Q87.89 36.17 87.89 37.09L88.05 37.24L87.98 37.17Q88.01 38.92 89.19 39.83L89.19 39.83L89.13 39.77Q89.41 40.02 89.68 40.21L89.68 40.21L89.61 40.14Q90.66 42.44 97.78 42.67ZM97.33 31.49L97.46 31.62L97.48 31.63Q98.31 31.48 99.19 31.94L99.14 31.89L99.09 31.83Q99.63 32.99 99.59 33.52L99.58 33.51L99.60 33.53Q99.57 33.76 99.57 34.06L99.52 34.02L99.58 34.08Q99.57 36.43 97.29 37.27L97.24 37.23L97.27 37.25Q96.42 37.50 95.62 37.39L95.70 37.47L95.66 37.43Q94.62 37.61 93.48 37.15L93.46 37.13L93.49 37.16Q93.24 36.53 93.31 35.54L93.23 35.46L93.34 35.57Q93.43 33.90 94.63 32.68L94.60 32.65L94.69 32.74Q95.71 31.36 97.31 31.47ZM97.70 22.15L97.62 22.07L97.64 22.09Q98.42 21.95 98.95 22.11L98.88 22.03L98.89 22.84L98.96 22.91Q99.00 24.36 98.09 25.37L98.12 25.40L97.98 25.27Q97.12 26.33 95.75 26.14L95.67 26.05L95.66 26.05Q94.69 26.07 94.27 25.84L94.43 26.00L94.39 25.96Q94.36 25.70 94.24 25.01L94.27 25.04L94.22 24.99Q93.86 23.48 95.07 22.65L95.09 22.66L95.17 22.74Q96.12 21.94 97.53 21.98Z"/><path fill="#333" d="M26.17 41.20L26.30 41.33L23.23 41.11L23.24 41.13Q20.82 40.99 20.02 40.88L19.94 40.79L19.92 40.78Q18.14 40.47 16.96 39.60L17.02 39.66L17.10 39.74Q15.75 38.28 15.52 34.93L15.45 34.86L15.49 34.89Q15.35 34.30 15.28 33.09L15.39 33.20L15.39 33.20Q15.48 32.87 15.40 31.76L15.23 31.60L15.36 31.72Q15.32 30.88 15.36 30.16L15.37 30.17L15.26 30.06Q15.56 28.23 16.59 27.47L16.61 27.48L16.52 27.40Q18.51 26.31 23.35 26.08L23.32 26.05L23.37 26.10Q25.41 26.01 26.21 26.01L26.11 25.91L26.17 25.97Q27.62 25.93 28.99 26.24L28.93 26.18L29.03 26.28Q28.39 27.47 27.86 29.29L27.77 29.21L27.94 29.37Q27.41 29.42 26.92 29.38L26.95 29.42L26.91 29.38Q26.66 29.20 26.13 29.09L26.25 29.21L25.21 28.89L25.33 29.01Q24.17 28.65 23.56 28.69L23.57 28.70L23.68 28.81Q18.84 28.76 18.23 31.58L18.34 31.70L18.23 31.58Q17.96 32.72 18.03 33.67L18.18 33.82L18.13 33.76Q18.17 36.24 19.41 37.33L19.50 37.43L19.40 37.32Q20.81 38.58 23.40 38.61L23.25 38.47L23.33 38.55Q24.83 38.60 25.55 38.29L25.55 38.29L26.63 37.85L26.55 37.77Q27.11 37.57 27.68 37.49L27.59 37.40L27.72 37.53Q27.82 39.19 28.20 40.48L28.27 40.56L28.34 40.63Q28.07 40.97 26.28 41.31ZM29.45 44.17L29.56 44.28L29.53 44.25Q29.82 44.20 30.66 44.28L30.59 44.21L30.76 44.38Q31.35 44.36 31.69 43.79L31.71 43.81L31.64 43.73Q30.55 41.77 30.05 39.67L30.05 39.67L29.88 39.51Q29.61 39.54 29.16 39.54L29.17 39.55L29.21 39.59Q28.81 39.61 28.43 39.80L28.39 39.77L28.37 39.74Q27.99 38.45 27.84 37.04L27.90 37.10L27.77 36.98Q27.22 36.95 26.00 37.53L26.08 37.61L26.00 37.52Q24.91 38.22 24.41 38.22L24.41 38.22L24.26 38.07Q23.91 38.21 23.30 38.17L23.24 38.12L23.27 38.14Q22.35 38.10 20.37 37.53L20.28 37.44L20.37 37.53Q19.97 36.75 20.01 35.61L20.11 35.71L20.05 35.65Q20.26 31.45 25.21 30.91L25.28 30.98L25.15 30.86Q25.82 30.84 27.19 31.18L27.26 31.25L27.27 31.26Q28.59 31.55 29.32 31.52L29.38 31.58L29.45 31.64Q29.78 29.31 30.46 27.48L30.49 27.51L30.36 27.39Q30.14 27.43 29.76 27.35L29.67 27.27L28.94 27.22L29.01 27.29Q29.09 26.68 29.47 25.80L29.47 25.81L29.58 25.91Q28.00 25.52 26.44 25.52L26.35 25.42L26.48 25.55Q23.99 25.46 19.61 25.84L19.65 25.88L19.73 25.97Q17.74 26.07 16.18 27.06L16.16 27.04L16.09 26.97Q14.90 27.95 14.90 29.85L15.01 29.96L14.98 29.93Q14.99 30.36 15.10 31.58L15.13 31.60L15.07 31.54Q15.16 32.59 15.12 33.19L15.06 33.14L14.98 33.05Q15.06 35.00 15.79 38.73L15.86 38.80L15.76 38.71Q16.24 39.64 16.74 40.14L16.74 40.15L16.95 40.35L16.99 40.36L17.00 40.36Q17.97 42.43 21.89 43.04L21.84 42.99L22.02 43.18Q25.02 43.52 27.69 43.78L27.84 43.94L27.84 43.93Q28.45 43.82 29.36 44.09Z"/><path fill="#222" d="M113.79 15.88L113.73 15.82L113.75 15.83Q115.73 20.78 116.30 25.96L116.29 25.95L116.24 25.90Q119.94 21.76 125.84 16.92L125.84 16.92L125.91 16.99Q129.12 16.70 131.75 15.90L131.73 15.89L125.08 21.42L125.02 21.36Q121.69 24.39 118.84 27.24L118.75 27.15L118.87 27.27Q126.86 36.44 131.92 41.16L131.76 41.01L131.95 41.19Q128.82 40.23 126.50 40.08L126.52 40.10L126.44 40.03Q120.57 34.53 116.27 28.71L116.34 28.78L116.40 28.84Q116.42 35.37 114.55 40.70L114.66 40.81L114.66 40.80Q114.40 40.81 113.90 41.00L113.89 40.98L113.78 41.07L113.80 41.08Q113.58 41.09 111.03 42.01L111.06 42.04L111.19 42.17Q114.13 35.60 113.79 28.14L113.71 28.05L113.72 28.06Q113.40 20.74 109.86 14.23L109.86 14.23L110.43 14.53L110.78 14.77L110.79 14.75L110.80 14.75Q111.53 15.14 113.74 15.82ZM113.97 15.49L113.96 15.47L114.03 15.54Q111.68 14.91 109.05 13.38L109.06 13.39L109.11 13.44Q113.36 20.70 113.36 29.65L113.51 29.80L113.51 29.80Q113.53 36.82 110.56 42.87L110.37 42.68L112.57 41.99L112.56 41.98Q112.17 43.00 111.49 44.30L111.46 44.27L111.35 44.15Q113.57 43.34 115.52 42.92L115.61 43.01L115.67 42.84L115.73 42.91Q116.04 42.91 116.61 42.75L116.52 42.67L116.47 42.62Q118.22 36.79 118.34 32.00L118.23 31.89L118.18 31.84Q120.34 34.42 122.17 36.29L122.19 36.30L122.23 36.34Q123.41 37.45 126.42 40.42L126.34 40.34L126.37 40.37L126.39 40.39Q127.50 41.31 129.36 42.91L129.24 42.78L129.18 42.72Q133.23 43.61 136.69 45.33L136.52 45.16L136.56 45.19Q127.24 36.59 120.99 29.17L121.13 29.31L121.13 29.31Q125.57 25.06 134.32 16.46L134.17 16.31L134.21 16.34Q131.75 17.58 129.74 17.97L129.68 17.90L129.75 17.98Q130.97 16.99 133.29 14.97L133.27 14.95L133.23 14.91Q129.14 16.34 125.79 16.53L125.78 16.52L125.85 16.59Q122.84 18.72 117.97 23.41L117.93 23.37L117.97 23.41Q117.57 20.80 117.00 18.25L117.02 18.27L116.92 18.17Q115.74 18.02 114.75 17.67L114.87 17.79L114.84 17.76Q114.67 17.06 114.10 15.62Z"/><path fill="#333" d="M45.58 28.59L45.68 28.70L45.57 28.58Q42.82 28.65 42.06 30.90L42.07 30.91L42.04 30.88Q41.84 31.63 41.72 32.27L41.69 32.24L41.65 32.20Q44.30 32.46 45.94 32.46L45.83 32.35L45.94 32.46Q47.63 32.51 50.22 32.40L50.26 32.43L50.18 32.36Q50.11 30.69 48.70 29.62L48.62 29.54L48.75 29.67Q47.38 28.61 45.60 28.61ZM45.72 41.22L45.69 41.19L45.66 41.16Q41.49 41.22 40.20 39.81L40.16 39.78L40.12 39.73Q39.25 38.37 39.10 35.09L39.10 35.10L39.06 35.06Q39.01 34.77 38.93 33.40L38.99 33.46L38.90 33.38Q38.92 31.22 38.92 30.50L38.74 30.32L38.86 30.44Q38.93 28.64 39.65 27.54L39.57 27.46L39.62 27.51Q40.95 26.02 43.92 26.02L43.90 26.00L45.40 25.94L45.50 26.04Q47.46 25.94 48.98 26.25L49.16 26.43L49.11 26.38Q51.12 26.79 52.11 28.00L52.08 27.97L52.16 28.05Q52.78 29.13 52.85 31.22L52.78 31.15L52.76 31.13Q52.71 32.22 52.75 34.39L52.90 34.54L52.83 34.47Q50.07 34.61 47.29 34.61L47.12 34.43L41.51 34.42L41.54 34.45Q41.77 38.94 45.84 38.71L45.86 38.73L45.84 38.72Q49.53 38.45 50.75 36.62L50.82 36.68L50.89 36.76Q51.74 37.26 53.34 38.44L53.35 38.46L53.30 38.41Q51.89 40.77 47.74 41.03L47.86 41.15L47.72 41.01Q47.08 41.13 45.71 41.21ZM48.02 43.56L47.94 43.48L48.06 43.60Q49.10 43.50 50.32 43.57L50.26 43.51L50.22 43.48Q55.25 43.71 56.17 40.93L56.28 41.04L56.19 40.95Q54.52 39.66 53.42 38.90L53.48 38.97L53.50 38.99Q53.69 38.61 53.88 38.38L53.92 38.42L53.76 38.26Q53.08 37.85 51.71 36.89L51.77 36.95L51.76 36.94Q52.71 36.87 54.77 37.17L54.82 37.23L54.92 37.32Q54.78 36.00 54.70 35.31L54.53 35.14L54.50 33.32L54.43 33.26Q54.40 31.02 53.75 29.54L53.60 29.39L53.73 29.51Q53.32 29.02 52.74 28.41L52.76 28.43L52.86 28.53Q52.73 28.25 52.51 27.68L52.45 27.62L52.50 27.67Q50.51 25.53 45.45 25.53L45.42 25.51L43.75 25.51L43.84 25.59Q40.57 25.56 39.12 27.04L39.21 27.14L39.22 27.14Q38.48 28.20 38.52 30.25L38.46 30.19L38.55 30.28Q38.56 31.21 38.68 33.45L38.64 33.41L38.60 33.38Q38.69 34.99 38.80 37.04L38.93 37.17L38.95 37.19Q39.22 39.44 40.10 40.51L40.05 40.46L39.99 40.40Q40.07 40.49 40.26 40.60L40.43 40.76L40.61 41.29L40.72 41.40Q41.49 43.23 48.07 43.61ZM45.94 38.40L45.83 38.28L45.93 38.39Q44.61 38.32 43.70 37.86L43.83 37.99L43.77 37.94Q43.78 37.61 43.59 36.92L43.60 36.93L43.52 36.85Q45.27 36.82 46.87 36.82L46.80 36.75L46.85 36.79Q48.53 36.80 50.21 36.91L50.22 36.92L50.23 36.94Q48.94 38.28 45.94 38.39ZM47.52 30.99L47.58 31.05L47.60 31.07Q48.09 30.95 49.42 31.33L49.40 31.31L49.63 31.73L49.73 32.02L49.76 32.05Q48.37 32.15 47.46 32.11L47.42 32.07L47.33 31.98Q45.20 32.09 45.16 32.09L45.03 31.97L45.13 32.07Q45.84 31.10 47.52 30.99Z"/></svg>