<svg xmlns="http://www.w3.org/2000/svg" width="150" height="50" viewBox="0,0,150,50"><path fill="#444" d="M50.70 30.88L50.63 30.80L50.66 30.84Q50.77 29.42 49.95 28.51L50.00 28.56L49.88 28.44Q49.14 27.60 47.69 27.64L47.65 27.60L47.63 27.58Q45.41 27.76 44.58 29.89L44.65 29.96L44.64 29.96Q44.20 30.58 44.16 31.27L44.34 31.45L44.17 31.28Q43.97 36.14 43.06 40.48L43.11 40.53L43.05 40.48Q41.49 41.12 39.62 42.11L39.55 42.04L39.61 42.09Q41.88 35.11 41.61 27.80L41.53 27.72L41.62 27.82Q41.37 20.49 38.82 13.67L38.63 13.48L38.76 13.61Q40.46 14.85 42.48 15.53L42.54 15.59L42.54 15.60Q43.95 21.35 44.14 27.21L44.27 27.34L44.21 27.28Q45.65 25.25 48.35 25.33L48.30 25.28L48.26 25.24Q53.35 25.35 53.47 30.71L53.40 30.65L53.50 30.75Q53.63 36.43 55.00 41.08L54.92 41.00L55.07 41.15Q53.08 40.19 51.33 40.00L51.37 40.04L51.45 40.12Q50.79 36.72 50.68 30.85ZM50.94 40.25L51.04 40.35L51.08 40.40Q52.04 40.44 53.15 40.71L53.13 40.69L53.10 40.66Q53.24 40.92 53.77 42.90L53.76 42.88L53.75 42.87Q56.67 43.78 58.69 45.23L58.75 45.28L58.70 45.23Q56.01 39.46 55.48 33.14L55.56 33.23L55.48 33.15Q55.29 29.57 53.89 28.01L53.73 27.85L53.74 27.86Q53.69 27.74 53.04 27.28L53.10 27.34L53.11 27.35Q52.91 26.89 52.27 26.13L52.30 26.16L52.38 26.16L52.22 26.00Q51.47 25.25 48.34 24.98L48.38 25.02L48.36 25.00Q47.60 24.96 46.20 25.31L46.22 25.33L46.21 25.32Q46.00 20.47 45.66 17.95L45.59 17.89L45.61 17.91Q44.85 17.80 43.37 17.49L43.24 17.37L43.39 17.51Q43.27 16.83 43.01 15.34L42.88 15.22L42.92 15.26Q40.00 14.32 38.14 12.76L38.15 12.77L38.06 12.68Q41.02 19.82 41.28 27.63L41.34 27.69L41.30 27.64Q41.62 35.46 39.06 42.81L38.99 42.74L39.01 42.75Q39.87 42.09 41.02 41.60L41.01 41.60L40.39 43.99L40.31 43.90Q43.57 42.71 45.55 42.51L45.56 42.53L45.50 42.47Q46.13 37.12 46.32 33.16L46.31 33.15L46.16 33.00Q46.33 31.22 48.27 30.12L48.24 30.09L48.28 30.13Q48.86 29.95 49.39 29.99L49.26 29.86L49.25 29.85Q49.45 29.89 49.79 29.93L49.89 30.03L50.36 30.16L50.30 30.10Q50.29 30.47 50.41 30.93L50.45 30.97L50.31 30.83Q50.57 36.96 51.07 40.38Z"/><path fill="#222" d="M102.36 28.67L102.31 28.63L96.47 28.77L96.39 28.68Q93.55 28.81 90.62 28.74L90.68 28.80L90.54 28.66Q90.75 35.46 88.70 40.98L88.61 40.88L88.72 41.00Q86.81 41.41 85.06 42.10L85.01 42.05L85.03 42.06Q87.95 36.50 87.95 29.83L87.92 29.80L87.90 29.78Q87.96 21.36 83.85 14.31L83.68 14.15L83.69 14.16Q85.21 14.95 87.69 15.75L87.80 15.86L87.66 15.73Q89.83 20.83 90.36 25.70L90.39 25.72L90.37 25.71Q93.66 26.22 96.52 26.18L96.53 26.19L96.46 26.13Q99.04 26.04 102.36 25.78L102.44 25.86L102.47 25.89Q102.92 21.47 104.67 16.37L104.59 16.29L104.65 16.34Q106.52 15.85 108.76 15.01L108.83 15.08L108.89 15.14Q105.26 21.86 105.26 29.82L105.18 29.75L105.20 29.76Q105.18 35.95 107.54 41.28L107.68 41.42L107.59 41.33Q105.95 40.68 103.90 40.37L103.92 40.40L103.99 40.47Q102.23 35.36 102.34 28.66ZM103.63 40.72L103.63 40.71L103.67 40.76Q104.76 40.98 105.87 41.24L105.81 41.18L105.88 41.25Q106.08 41.84 106.73 43.32L106.89 43.48L106.70 43.29Q110.17 44.36 111.96 45.28L111.98 45.30L112.01 45.33Q107.49 39.09 107.18 30.83L107.18 30.83L107.11 30.76Q106.90 22.82 110.56 16.01L110.54 15.99L109.51 16.48L109.46 16.44Q108.98 16.68 108.37 16.83L108.42 16.88L108.38 16.84Q108.81 16.05 109.65 14.49L109.55 14.39L109.51 14.36Q106.99 15.52 104.36 16.02L104.30 15.96L104.25 15.91Q102.61 20.78 102.15 25.46L102.23 25.53L102.26 25.57Q99.65 25.66 97.22 25.66L97.18 25.62L97.18 25.62Q94.88 25.72 92.36 25.57L92.38 25.59L92.33 25.53Q92.13 22.29 91.03 18.22L91.13 18.32L90.99 18.18Q90.44 18.20 89.00 17.82L88.92 17.74L88.82 17.65Q88.58 16.57 88.12 15.54L87.99 15.41L88.11 15.53Q85.26 14.65 82.97 13.40L82.99 13.41L83.13 13.56Q87.70 20.99 87.70 29.78L87.69 29.77L87.57 29.65Q87.63 36.67 84.51 42.80L84.57 42.86L84.56 42.86Q85.23 42.54 86.57 41.97L86.61 42.01L86.53 41.93Q86.23 42.81 85.43 44.33L85.45 44.35L85.48 44.39Q88.29 43.38 90.53 42.96L90.40 42.83L90.38 42.81Q92.39 37.40 92.58 31.23L92.50 31.15L92.43 31.07Q94.04 31.01 97.23 30.97L97.23 30.97L97.29 31.03Q100.13 30.98 102.04 31.05L102.05 31.06L102.14 31.16Q102.44 36.94 103.77 40.86Z"/><path fill="#222" d="M70.86 40.26L70.78 40.18L70.89 40.29Q67.28 40.27 65.65 39.74L65.63 39.72L65.79 39.88Q63.84 39.26 63.54 35.87L63.51 35.85L64.83 34.65L64.98 34.80Q65.54 34.11 66.30 33.62L66.35 33.66L66.42 33.73Q66.18 35.66 67.78 36.88L67.77 36.87L67.73 36.83Q68.97 37.80 71.10 37.61L71.13 37.64L71.17 37.68Q75.50 37.22 75.31 33.68L75.28 33.65L75.28 33.65Q75.17 31.44 72.54 30.22L72.58 30.26L72.62 30.30Q69.63 29.10 67.27 27.88L67.26 27.87L67.33 27.94Q64.73 26.57 63.74 21.88L63.69 21.83L63.78 21.92Q63.76 21.55 63.64 20.79L63.61 20.76L63.60 20.75Q63.46 19.92 63.53 19.35L63.51 19.32L63.49 19.31Q63.77 17.84 65.03 17.38L65.04 17.40L64.87 17.23Q67.33 16.40 71.32 16.59L71.41 16.68L71.41 16.68Q73.15 16.71 73.95 16.79L73.92 16.76L73.91 16.74Q75.53 17.07 76.60 17.53L76.61 17.54L76.48 17.41Q78.60 17.90 78.83 20.37L78.92 20.46L78.84 20.37Q77.84 21.13 75.63 22.46L75.60 22.43L75.70 22.53Q75.16 19.40 70.78 19.40L70.89 19.52L70.85 19.47Q68.93 19.46 67.94 20.14L68.00 20.20L68.01 20.21Q66.71 20.59 66.94 22.38L67.05 22.49L66.91 22.34Q67.31 24.69 70.28 26.21L70.18 26.11L70.14 26.07Q70.68 26.31 75.18 27.95L75.18 27.95L75.19 27.96Q77.85 29.48 78.27 33.86L78.36 33.95L78.20 33.78Q78.27 34.00 78.34 35.26L78.39 35.31L78.31 35.23Q78.47 38.10 76.91 39.20L76.89 39.18L76.79 39.08Q74.96 40.07 70.77 40.18ZM73.21 42.70L73.07 42.55L73.23 42.71Q74.52 42.63 76.50 42.63L76.47 42.60L76.66 42.79Q78.68 42.72 79.94 42.30L79.97 42.33L79.98 42.35Q81.07 41.38 80.99 39.59L81.11 39.70L81.03 39.62Q80.98 38.62 80.60 36.56L80.72 36.68L80.72 36.69Q79.68 31.88 77.59 30.01L77.58 30.01L77.67 30.10Q76.86 28.49 75.53 27.76L75.57 27.80L70.23 25.71L70.16 25.63Q69.97 25.60 69.51 25.37L69.42 25.28L69.35 24.94L69.34 24.59L69.33 24.57Q69.19 23.18 70.34 22.57L70.39 22.63L70.30 22.54Q71.06 21.96 72.77 21.77L72.82 21.82L72.84 21.84Q73.98 21.72 75.12 22.18L75.10 22.16L74.98 22.04Q75.19 22.29 75.38 23.12L75.34 23.08L75.25 23.00Q75.49 22.89 75.98 22.66L75.98 22.66L76.03 22.71Q76.74 23.61 76.85 24.75L76.76 24.65L76.79 24.69Q76.83 24.62 80.49 22.03L80.51 22.05L80.50 22.04Q80.29 19.47 78.85 18.79L78.90 18.84L78.80 18.74Q78.20 17.45 76.75 16.92L76.76 16.93L76.79 16.96Q74.59 16.24 71.39 16.24L71.43 16.28L71.43 16.28Q66.48 16.24 64.61 16.93L64.52 16.84L64.61 16.92Q63.24 17.34 63.12 19.01L63.15 19.05L63.10 19.00Q63.11 19.57 63.52 21.78L63.52 21.77L63.55 21.80Q64.28 25.62 66.45 27.87L66.44 27.85L66.30 27.71Q67.08 29.41 68.59 30.09L68.76 30.26L68.69 30.20Q70.12 30.81 74.05 32.37L74.05 32.38L74.11 32.47L74.80 32.86L74.87 32.97L74.84 32.94Q74.88 33.24 74.92 33.59L74.99 33.66L74.96 33.63Q75.14 37.20 71.22 37.35L71.20 37.33L71.20 37.34Q69.91 37.22 68.62 36.84L68.75 36.98L68.71 36.94Q68.36 36.09 68.36 35.37L68.41 35.42L68.41 35.42Q68.28 35.02 68.32 34.76L68.34 34.78L68.46 34.90Q67.89 34.98 67.09 35.47L67.10 35.48L67.08 35.45Q66.65 34.42 66.80 33.05L66.88 33.12L66.87 33.12Q64.79 34.31 63.19 35.72L63.22 35.75L63.18 35.71Q63.19 36.48 63.27 37.51L63.24 37.48L63.23 37.47Q63.57 39.22 64.87 39.98L64.94 40.06L64.84 39.96Q66.16 41.89 68.71 42.27L68.59 42.15L68.59 42.15Q70.27 42.49 73.20 42.68Z"/><path fill="#111" d="M124.94 41.30L124.81 41.17L121.99 41.20L121.90 41.11Q119.58 41.08 118.78 40.97L118.79 40.97L118.66 40.85Q116.91 40.58 115.73 39.70L115.63 39.60L115.71 39.69Q114.33 38.20 114.11 34.85L114.15 34.89L114.20 34.94Q114.21 34.49 114.13 33.27L113.98 33.12L114.13 33.27Q114.14 32.86 114.06 31.76L113.92 31.62L113.91 31.61Q113.98 30.87 114.02 30.15L113.94 30.07L113.89 30.02Q114.15 28.16 115.18 27.39L115.09 27.30L115.25 27.46Q117.13 26.26 121.97 26.03L122.05 26.11L122.03 26.10Q123.96 25.90 124.76 25.90L124.81 25.95L124.86 25.99Q126.33 25.98 127.70 26.29L127.69 26.28L127.58 26.16Q127.07 27.48 126.53 29.30L126.47 29.24L126.49 29.26Q125.94 29.28 125.45 29.24L125.56 29.36L125.57 29.37Q125.35 29.22 124.82 29.11L124.90 29.19L124.03 29.05L124.02 29.04Q122.82 28.64 122.22 28.68L122.19 28.65L122.20 28.67Q117.56 28.82 116.95 31.64L116.97 31.66L116.94 31.63Q116.66 32.76 116.74 33.71L116.68 33.65L116.75 33.72Q116.86 36.26 118.09 37.35L118.07 37.33L118.15 37.40Q119.45 38.55 122.04 38.59L121.93 38.48L122.00 38.55Q123.47 38.58 124.20 38.27L124.23 38.30L125.11 37.67L125.29 37.84Q125.66 37.45 126.23 37.38L126.39 37.54L126.38 37.52Q126.47 39.18 126.85 40.47L126.90 40.52L126.99 40.61Q126.78 41.01 124.99 41.36ZM128.14 44.19L128.10 44.15L128.18 44.23Q128.51 44.22 129.34 44.30L129.29 44.24L129.39 44.34Q129.97 44.31 130.31 43.74L130.27 43.70L130.27 43.70Q129.13 41.68 128.64 39.59L128.65 39.61L128.68 39.64Q128.25 39.51 127.79 39.51L127.92 39.64L127.76 39.48Q127.50 39.63 127.11 39.82L127.04 39.74L127.00 39.71Q126.70 38.50 126.55 37.09L126.48 37.02L126.55 37.08Q125.85 36.92 124.63 37.49L124.71 37.57L124.72 37.58Q123.39 38.04 122.89 38.04L122.91 38.05L122.97 38.12Q122.53 38.17 121.92 38.13L122.00 38.20L122.01 38.22Q121.05 38.13 119.07 37.56L119.05 37.55L119.13 37.62Q118.75 36.87 118.79 35.72L118.71 35.64L118.77 35.70Q118.88 31.40 123.83 30.87L123.87 30.91L123.85 30.88Q124.60 30.95 125.97 31.29L125.90 31.22L125.91 31.23Q127.36 31.65 128.08 31.61L127.99 31.52L127.95 31.48Q128.38 29.24 129.06 27.42L129.18 27.53L129.21 27.56Q128.78 27.40 128.40 27.33L128.36 27.28L127.62 27.23L127.57 27.18Q127.71 26.63 128.09 25.76L128.14 25.81L128.22 25.89Q126.58 25.43 125.02 25.43L125.11 25.52L125.00 25.41Q122.76 25.57 118.38 25.95L118.34 25.91L118.26 25.82Q116.36 26.03 114.80 27.02L114.88 27.10L114.78 26.99Q113.65 28.03 113.65 29.94L113.59 29.88L113.56 29.85Q113.52 30.23 113.64 31.44L113.74 31.55L113.69 31.50Q113.74 32.50 113.70 33.11L113.71 33.12L113.68 33.09Q113.83 35.10 114.55 38.83L114.53 38.81L114.44 38.72Q114.95 39.69 115.44 40.18L115.30 40.04L115.70 40.44L115.63 40.33L115.58 40.28Q116.67 42.47 120.59 43.08L120.64 43.13L120.67 43.16Q123.72 43.55 126.39 43.82L126.38 43.81L126.47 43.90Q127.16 43.86 128.07 44.13Z"/><path fill="#222" d="M18.56 33.24L18.71 33.40L18.61 33.30Q18.39 36.04 17.21 40.69L17.37 40.85L17.34 40.82Q15.41 41.21 13.81 42.01L13.87 42.07L13.97 42.17Q16.52 35.08 16.25 27.66L16.34 27.75L16.22 27.63Q15.95 20.24 12.87 13.51L12.87 13.50L12.92 13.56Q14.75 14.70 16.62 15.28L16.74 15.40L16.71 15.37Q18.81 22.31 18.81 28.97L18.85 29.00L18.78 28.94Q18.81 30.41 18.74 31.90L18.76 31.92L18.69 31.85Q19.92 30.73 25.14 25.78L25.18 25.81L25.07 25.71Q26.19 25.73 27.18 25.65L27.18 25.65L29.25 25.47L29.28 25.50Q26.24 28.63 21.94 32.40L21.83 32.29L21.91 32.37Q25.20 35.05 31.67 40.88L31.65 40.85L31.73 40.93Q28.98 40.01 26.01 39.82L25.95 39.76L25.98 39.79Q23.47 37.69 18.59 33.28ZM28.52 42.49L28.45 42.41L28.55 42.51Q33.29 43.37 36.41 45.31L36.27 45.17L36.39 45.29Q35.16 43.95 32.53 41.55L32.46 41.48L32.60 41.61Q32.76 41.62 33.02 41.73L33.11 41.82L33.00 41.71Q31.02 39.80 28.77 37.90L28.62 37.74L24.24 33.90L24.32 33.98Q29.15 29.63 31.58 26.74L31.59 26.75L31.71 26.86Q30.39 26.84 27.92 27.11L27.95 27.14L28.05 27.24Q29.48 25.63 30.17 24.79L30.20 24.82L30.21 24.83Q27.43 25.33 24.96 25.33L24.97 25.34L24.98 25.35Q23.65 26.73 20.91 29.39L20.92 29.40L20.91 29.39Q20.88 23.58 19.89 17.75L19.94 17.80L19.80 17.66Q19.20 17.59 17.71 17.32L17.65 17.26L17.61 17.22Q17.47 16.51 17.01 15.02L16.97 14.98L17.15 15.16Q14.45 14.29 12.21 12.73L12.11 12.63L12.27 12.80Q15.54 19.46 15.89 27.56L16.02 27.70L15.88 27.56Q16.32 35.57 13.31 42.81L13.27 42.76L13.25 42.75Q14.00 42.50 15.33 41.85L15.25 41.78L15.37 41.89Q15.00 42.59 14.36 44.04L14.35 44.04L14.52 44.21Q17.29 43.05 19.42 42.67L19.39 42.64L19.45 42.71Q19.92 40.09 20.42 35.83L20.39 35.80L20.39 35.80Q23.06 38.13 28.51 42.47Z"/></svg>