<svg xmlns="http://www.w3.org/2000/svg" width="150" height="50" viewBox="0,0,150,50"><path fill="#111" d="M98.87 39.80L98.84 39.77L96.88 39.75L96.99 39.87Q96.08 39.91 95.13 40.02L95.06 39.95L95.03 39.93Q95.61 33.73 95.61 29.73L95.67 29.79L95.71 29.83Q91.72 23.14 84.07 14.46L84.04 14.43L84.04 14.42Q85.83 15.42 89.18 16.22L89.24 16.28L89.17 16.21Q94.23 21.80 97.24 27.02L97.27 27.05L97.16 26.94Q100.16 21.37 104.53 16.34L104.53 16.34L104.65 16.46Q107.08 16.07 109.59 15.27L109.44 15.12L109.50 15.18Q103.51 21.33 98.63 29.75L98.61 29.72L98.67 29.79Q98.58 36.73 98.88 39.82ZM108.11 17.37L110.64 14.34L110.74 14.44Q107.69 15.66 104.57 16.12L104.50 16.04L104.44 15.98Q100.19 20.68 97.38 25.78L97.45 25.85L97.51 25.92Q95.36 22.24 92.16 18.36L92.11 18.31L92.20 18.40Q91.80 18.27 91.31 18.19L91.33 18.22L91.29 18.18Q90.67 17.44 89.15 15.77L89.15 15.77L89.26 15.88Q85.69 14.94 82.72 13.38L82.80 13.45L82.73 13.39Q90.54 21.96 95.30 29.88L95.35 29.92L95.26 29.84Q95.17 36.18 94.56 40.33L94.49 40.26L94.51 40.28Q95.40 40.40 96.84 40.29L96.85 40.30L96.71 41.19L96.73 41.20Q96.77 41.70 96.70 42.23L96.68 42.22L96.66 42.20Q100.24 42.24 101.99 42.43L101.97 42.41L102.05 42.49Q100.75 37.76 100.64 31.78L100.72 31.86L100.72 31.87Q105.07 23.39 111.62 16.05L111.59 16.01L108.08 17.34Z"/><path fill="#333" d="M122.85 32.14L113.53 22.07L113.58 22.12Q114.46 25.85 114.46 29.58L114.42 29.55L114.37 29.49Q114.44 35.54 112.38 41.10L112.36 41.08L112.39 41.11Q111.40 41.45 109.15 42.21L109.04 42.09L109.10 42.15Q111.88 36.33 111.88 29.63L111.95 29.70L111.93 29.68Q111.87 20.98 107.38 13.56L107.34 13.52L107.45 13.63Q107.77 13.68 108.45 14.10L108.57 14.21L108.46 14.10Q120.70 25.47 128.55 34.72L128.41 34.59L128.51 34.69Q128.21 32.26 128.21 29.82L128.18 29.79L128.06 29.67Q128.17 22.55 130.68 16.34L130.68 16.34L130.76 16.42Q133.01 15.82 134.61 15.13L134.63 15.15L134.51 15.03Q131.36 21.36 131.06 28.52L130.98 28.44L130.91 28.37Q130.68 35.79 133.65 41.96L133.59 41.90L133.71 42.02Q133.01 41.81 132.59 41.62L132.60 41.63L132.55 41.58Q128.07 37.71 122.85 32.15L122.82 32.12ZM136.26 45.14L136.24 45.12L136.23 45.12Q136.77 45.35 137.19 45.54L137.10 45.45L137.94 45.79L138.00 45.85Q132.85 38.91 132.85 29.55L132.81 29.50L132.81 29.50Q132.85 22.32 136.16 16.08L136.13 16.04L136.10 16.01Q135.41 16.20 134.00 16.81L134.10 16.90L134.13 16.94Q134.50 16.08 135.33 14.52L135.25 14.44L135.29 14.48Q132.78 15.32 130.35 15.89L130.33 15.87L130.44 15.98Q127.77 22.41 127.77 29.84L127.74 29.80L127.67 29.74Q127.82 31.75 128.01 33.73L127.95 33.67L127.89 33.61Q123.22 27.92 118.47 23.31L118.65 23.50L108.45 13.68L108.53 13.76Q107.92 13.42 106.71 12.84L106.61 12.75L106.60 12.74Q111.55 20.55 111.55 29.64L111.48 29.58L111.48 29.58Q111.51 36.72 108.42 42.73L108.42 42.73L108.51 42.82Q108.76 42.65 110.40 42.04L110.44 42.08L110.49 42.14Q110.17 42.92 109.33 44.40L109.27 44.34L109.27 44.34Q110.60 43.81 114.07 43.01L114.04 42.98L114.14 43.09Q116.40 36.90 116.40 29.70L116.46 29.75L116.44 29.74Q116.46 27.66 116.23 25.53L116.23 25.53L116.17 25.47Q127.75 38.38 136.36 45.24Z"/><path fill="#333" d="M64.53 15.95L64.48 15.90L64.43 15.85Q66.31 20.69 66.88 25.87L66.83 25.82L66.96 25.95Q70.53 21.68 76.43 16.85L76.54 16.96L76.58 17.00Q79.65 16.56 82.28 15.76L82.34 15.83L75.87 21.54L75.88 21.55Q72.45 24.48 69.60 27.33L69.48 27.22L69.53 27.27Q77.46 36.38 82.53 41.10L82.57 41.14L82.55 41.13Q79.41 40.15 77.08 40.00L77.11 40.03L77.19 40.11Q71.27 34.57 66.97 28.75L66.95 28.73L67.05 28.82Q67.08 35.37 65.22 40.70L65.28 40.76L65.35 40.83Q65.03 40.78 64.54 40.97L64.50 40.93L64.47 41.09L64.48 41.10Q64.26 41.11 61.71 42.03L61.73 42.04L61.82 42.13Q64.64 35.44 64.30 27.97L64.37 28.04L64.38 28.06Q64.10 20.78 60.56 14.27L60.44 14.14L61.08 14.52L61.39 14.72L61.60 14.89L61.47 14.75Q62.33 15.27 64.54 15.95ZM64.75 15.60L64.70 15.55L64.64 15.49Q62.49 15.06 59.87 13.53L59.85 13.51L59.84 13.50Q64.15 20.82 64.15 29.77L64.03 29.65L64.12 29.74Q64.02 36.65 61.05 42.70L61.21 42.85L63.21 41.96L63.14 41.89Q62.80 42.96 62.12 44.26L62.18 44.32L62.08 44.22Q64.37 43.47 66.31 43.05L66.36 43.09L66.27 42.78L66.43 42.93Q66.56 42.77 67.14 42.61L67.19 42.67L67.14 42.61Q68.79 36.69 68.90 31.89L68.98 31.97L68.92 31.91Q71.06 34.47 72.89 36.34L72.89 36.34L72.86 36.31Q74.11 37.49 77.12 40.45L77.14 40.47L77.11 40.44L77.03 40.36Q78.12 41.27 79.99 42.87L79.97 42.85L79.91 42.79Q83.73 43.44 87.19 45.16L87.22 45.19L87.38 45.35Q78.03 36.72 71.78 29.29L71.69 29.20L71.79 29.30Q76.24 25.07 85.00 16.47L84.89 16.36L84.84 16.31Q82.46 17.62 80.44 18.00L80.38 17.94L80.37 17.93Q81.53 16.88 83.85 14.86L83.99 15.01L83.89 14.91Q79.85 16.39 76.50 16.58L76.51 16.58L76.53 16.60Q73.43 18.64 68.55 23.32L68.73 23.50L68.72 23.49Q68.22 20.79 67.65 18.23L67.64 18.22L67.67 18.25Q66.44 18.05 65.45 17.71L65.42 17.68L65.45 17.70Q65.29 17.01 64.71 15.56Z"/><path fill="#444" d="M49.60 39.87L49.64 39.91L47.73 39.93L47.63 39.84Q46.60 39.76 45.65 39.87L45.75 39.98L45.72 39.95Q46.21 33.66 46.21 29.66L46.28 29.73L46.21 29.67Q42.44 23.18 34.78 14.50L34.68 14.40L34.61 14.33Q36.55 15.47 39.90 16.27L39.77 16.14L39.84 16.21Q44.82 21.72 47.83 26.94L47.96 27.07L47.95 27.06Q50.95 21.50 55.33 16.48L55.36 16.50L55.34 16.49Q57.72 16.05 60.24 15.25L60.29 15.31L60.24 15.26Q54.12 21.28 49.24 29.69L49.23 29.67L49.30 29.74Q49.30 36.78 49.60 39.87ZM58.74 17.34L61.35 14.38L61.35 14.38Q58.20 15.50 55.08 15.96L55.27 16.15L55.11 15.99Q50.96 20.79 48.15 25.89L48.18 25.92L48.23 25.97Q46.07 22.29 42.87 18.40L42.85 18.39L42.88 18.41Q42.61 18.41 42.12 18.34L42.06 18.28L41.98 18.20Q41.33 17.43 39.81 15.76L39.84 15.79L39.90 15.86Q36.52 15.10 33.55 13.54L33.44 13.43L33.55 13.54Q41.20 21.95 45.96 29.87L45.99 29.90L46.06 29.96Q45.82 36.16 45.21 40.31L45.32 40.42L45.34 40.44Q45.99 40.33 47.44 40.21L47.50 40.27L47.37 41.17L47.41 41.22Q47.54 41.81 47.47 42.34L47.37 42.24L47.34 42.21Q50.89 42.22 52.64 42.41L52.67 42.44L52.69 42.46Q51.37 37.72 51.26 31.74L51.35 31.83L51.34 31.82Q55.64 23.30 62.19 15.95L62.27 16.03L58.76 17.35Z"/><path fill="#222" d="M21.84 40.14L21.87 40.17L19.53 33.38L19.51 33.36Q15.08 20.71 9.15 14.31L9.27 14.44L9.12 14.29Q11.26 15.48 13.85 16.09L13.80 16.04L13.77 16.01Q18.93 22.31 23.27 35.06L23.25 35.04L23.32 35.12Q26.23 26.87 26.91 25.27L26.89 25.25L27.09 25.44Q29.33 19.69 32.14 16.37L32.25 16.48L32.26 16.49Q34.33 16.12 36.95 15.25L36.91 15.20L36.87 15.16Q32.24 19.71 29.20 26.94L29.32 27.06L29.36 27.10Q27.90 30.71 24.21 40.22L24.07 40.09L24.13 40.15Q23.59 40.18 23.02 40.14L23.03 40.15L22.95 40.07Q22.41 40.10 21.84 40.14ZM26.86 42.58L26.93 42.65L26.90 42.61Q29.77 32.69 31.33 28.66L31.19 28.52L31.21 28.54Q34.16 20.79 38.58 15.92L38.73 16.07L38.66 16.00Q37.59 16.34 35.50 17.06L35.51 17.08L36.67 15.76L36.70 15.79Q37.18 15.01 37.79 14.36L37.88 14.46L37.82 14.40Q35.12 15.50 32.11 16.07L32.13 16.10L32.03 15.99Q27.58 21.25 23.69 32.71L23.81 32.82L23.71 32.72Q20.17 22.72 16.98 18.34L16.93 18.29L16.98 18.34Q16.66 18.32 15.78 18.17L15.68 18.07L15.66 18.05Q15.46 17.70 13.86 15.64L13.78 15.56L13.91 15.69Q10.90 14.93 8.20 13.52L8.22 13.54L8.15 13.47Q14.79 20.57 19.17 33.36L19.20 33.39L19.18 33.37Q20.38 37.01 21.56 40.59L21.64 40.66L21.68 40.70Q22.04 40.76 22.88 40.65L22.79 40.56L22.81 40.58Q23.24 41.35 23.93 42.69L23.90 42.65L23.92 42.68Q24.65 42.49 25.37 42.57L25.30 42.50L25.36 42.56Q26.16 42.63 26.92 42.63Z"/></svg>