<svg xmlns="http://www.w3.org/2000/svg" width="150" height="50" viewBox="0,0,150,50"><path fill="#333" d="M31.12 41.56L31.05 41.49L31.15 41.59Q29.02 41.18 26.85 41.02L26.78 40.95L26.74 40.92Q25.37 39.54 22.70 35.70L22.75 35.74L22.67 35.66Q20.58 38.86 18.18 41.30L18.14 41.25L16.03 41.62L15.97 41.56Q15.08 41.93 14.09 42.19L14.07 42.18L13.93 42.03Q18.27 38.07 21.28 33.96L21.16 33.85L21.27 33.96Q17.87 29.65 12.47 24.85L12.49 24.87L12.46 24.84Q14.71 25.61 17.41 26.02L17.42 26.03L17.51 26.13Q20.87 29.14 22.77 31.85L22.88 31.95L22.76 31.83Q25.01 28.90 27.75 26.39L27.72 26.36L27.72 26.35Q30.78 26.03 32.61 25.54L32.55 25.48L32.61 25.54Q28.06 29.17 24.37 33.74L24.21 33.59L24.21 33.59Q27.60 38.27 31.06 41.50ZM34.07 24.79L33.88 24.60L33.90 24.62Q31.09 25.54 27.55 25.88L27.55 25.89L27.52 25.85Q24.59 28.48 22.88 30.96L22.91 30.99L22.89 30.97Q21.97 29.90 20.34 27.92L20.33 27.92L20.25 28.03L20.30 28.07Q20.03 27.92 19.91 27.92L20.03 28.03L20.01 28.02Q19.18 27.11 17.55 25.67L17.60 25.71L17.51 25.63Q14.08 25.25 11.23 24.03L11.23 24.03L11.09 23.89Q16.70 28.78 20.73 33.91L20.77 33.96L20.78 33.96Q17.30 38.48 12.89 42.78L12.92 42.81L12.83 42.72Q13.16 42.71 16.66 41.87L16.74 41.95L16.57 41.78Q15.12 43.19 13.48 44.52L13.51 44.55L13.55 44.59Q16.62 43.54 19.78 43.35L19.87 43.44L19.88 43.45Q22.22 41.15 24.12 38.41L24.06 38.35L24.19 38.47Q25.59 40.22 26.81 41.40L26.86 41.45L26.81 41.40Q26.80 41.28 26.88 41.35L26.94 41.42L27.07 41.36L27.15 41.43Q28.49 42.63 29.83 43.69L29.79 43.66L29.67 43.54Q33.42 44.24 36.31 45.27L36.14 45.10L36.18 45.14Q30.08 40.75 26.38 35.57L26.38 35.56L26.29 35.48Q30.09 30.60 34.66 26.52L34.60 26.46L34.62 26.48Q33.62 26.78 32.63 27.01L32.60 26.97L30.61 27.46L30.59 27.44Q31.82 26.58 33.99 24.71Z"/><path fill="#111" d="M68.37 19.39L68.32 19.34L68.26 19.28Q69.16 23.57 69.31 27.14L69.29 27.13L69.28 27.11Q70.39 27.19 71.45 27.19L71.42 27.16L73.71 27.24L73.77 27.30Q74.68 27.15 75.56 25.74L75.68 25.86L75.69 25.87Q76.27 24.55 76.38 23.37L76.55 23.53L76.49 23.48Q76.75 20.35 72.53 19.86L72.62 19.95L72.56 19.89Q71.04 20.00 68.41 19.43ZM69.42 30.00L69.30 29.88L69.42 29.99Q69.34 36.19 68.19 40.61L68.17 40.58L68.22 40.63Q66.76 41.04 64.44 42.10L64.40 42.07L64.44 42.11Q66.80 35.44 66.53 28.17L66.43 28.07L66.47 28.11Q66.24 20.80 63.46 14.36L63.48 14.39L63.38 14.29Q67.54 17.08 73.79 17.08L73.71 17.00L73.69 16.99Q79.89 17.13 80.04 20.59L79.93 20.48L80.06 20.61Q80.08 22.99 79.09 25.66L79.12 25.69L79.10 25.67Q78.73 26.82 77.78 28.03L77.70 27.96L77.67 27.93Q76.38 29.57 73.83 29.83L73.79 29.80L73.85 29.86Q71.63 29.92 69.39 29.96ZM75.44 32.13L75.46 32.15L75.52 32.21Q79.68 32.45 80.93 27.65L80.94 27.66L80.93 27.65Q81.92 24.03 81.77 22.01L81.75 22.00L81.76 22.00Q81.68 20.52 80.92 19.53L80.86 19.46L80.92 19.53Q80.58 19.18 80.08 18.96L79.92 18.79L79.98 18.85Q79.94 18.66 79.33 17.90L79.44 18.01L79.34 17.91Q77.85 16.65 73.89 16.65L73.92 16.68L73.93 16.68Q66.92 16.57 62.70 13.41L62.82 13.54L62.68 13.40Q65.95 20.58 66.21 28.04L66.20 28.03L66.14 27.97Q66.55 35.77 63.89 42.85L63.74 42.70L63.74 42.70Q64.88 42.13 65.87 41.75L65.95 41.82L65.44 42.84L65.52 42.93Q65.30 43.46 65.03 44.03L64.97 43.97L65.07 44.07Q67.44 42.98 70.33 42.44L70.43 42.53L70.30 42.41Q71.25 37.01 71.33 32.29L71.22 32.18L71.29 32.24Q72.39 32.16 73.38 32.16L73.42 32.21L73.29 32.07Q74.66 32.12 75.46 32.15ZM74.56 22.27L74.49 22.19L74.53 22.24Q75.06 22.27 76.05 22.50L76.11 22.56L75.99 22.44Q76.10 22.67 76.14 22.97L76.17 23.00L76.23 23.06Q76.25 23.31 76.17 23.57L76.17 23.58L76.17 23.57Q76.13 24.87 75.41 25.75L75.37 25.71L75.31 25.64Q74.71 26.68 73.68 26.87L73.74 26.93L73.74 26.93Q72.92 26.83 71.28 26.83L71.30 26.85L71.23 26.78Q71.21 24.52 70.98 22.16L71.03 22.20L72.72 22.22L72.86 22.36Q73.62 22.28 74.50 22.20Z"/><path fill="#333" d="M96.60 41.38L96.65 41.43L96.68 41.46Q93.78 41.60 92.52 41.07L92.36 40.90L92.51 41.06Q90.60 40.29 90.67 37.81L90.57 37.71L90.61 37.75Q90.78 34.38 90.78 34.95L90.68 34.85L90.70 34.86Q90.76 29.60 87.90 24.76L87.82 24.68L87.96 24.82Q89.88 25.71 91.86 26.09L91.78 26.01L91.86 26.10Q93.47 30.59 93.35 35.09L93.35 35.08L93.48 35.22Q93.29 36.66 94.13 37.88L94.03 37.78L94.09 37.84Q94.97 39.14 96.50 38.95L96.48 38.93L96.87 38.83L96.91 38.87Q98.19 38.74 99.01 37.98L99.15 38.12L99.17 38.15Q100.00 37.39 100.00 36.44L99.95 36.39L99.96 36.40Q99.84 36.05 99.80 35.86L99.81 35.87L99.90 35.96Q99.84 30.72 100.98 26.38L100.94 26.34L100.94 26.34Q102.03 26.32 103.02 26.10L102.99 26.07L105.02 25.59L104.95 25.52Q102.49 30.63 102.79 36.19L102.62 36.02L102.71 36.10Q102.81 39.10 101.10 40.24L101.29 40.43L101.20 40.34Q99.88 41.19 96.57 41.34ZM98.88 43.74L99.01 43.86L98.82 43.67Q102.36 43.91 104.19 43.14L104.28 43.23L104.19 43.15Q105.11 42.39 105.11 40.98L105.14 41.01L105.12 40.99Q105.06 40.02 104.79 38.45L104.84 38.50L104.90 38.56Q104.38 35.37 104.76 32.37L104.85 32.46L104.74 32.35Q105.23 29.29 106.63 26.55L106.65 26.57L106.54 26.46Q105.92 26.79 104.59 27.21L104.53 27.15L104.52 27.15Q104.77 26.55 105.07 25.98L105.06 25.97L105.75 24.94L105.72 24.91Q103.65 25.44 100.49 25.93L100.57 26.01L100.62 26.06Q99.42 30.87 99.57 35.97L99.55 35.96L99.58 35.98Q99.60 38.02 96.93 38.51L96.87 38.45L96.59 38.63L96.52 38.71L95.45 38.44L95.49 38.48Q95.30 37.49 95.34 36.99L95.47 37.13L95.36 37.02Q95.60 32.54 94.92 28.12L94.99 28.19L93.79 27.91L93.83 27.95Q93.34 27.95 92.80 27.84L92.87 27.90L92.90 27.93Q92.44 26.45 92.18 25.68L92.19 25.70L92.19 25.70Q89.36 25.23 87.12 23.94L87.15 23.97L87.19 24.01Q89.36 27.55 90.09 30.94L89.91 30.77L90.00 30.86Q90.52 33.09 90.36 36.59L90.38 36.60L90.28 36.51Q90.42 36.76 90.35 37.86L90.41 37.93L90.30 37.82Q90.23 40.26 91.60 41.22L91.51 41.12L91.46 41.07Q91.99 43.47 99.00 43.85Z"/><path fill="#444" d="M45.73 27.66L45.70 27.63L45.61 27.54Q43.48 27.65 42.20 29.16L42.21 29.17L42.16 29.11Q40.88 30.61 40.77 32.90L40.80 32.93L40.86 32.99Q40.78 35.69 41.62 36.64L41.47 36.49L41.63 36.66Q42.57 37.75 44.89 37.60L44.98 37.68L44.94 37.64Q49.53 37.28 49.91 34.27L50.04 34.40L50.03 34.40Q50.02 33.48 50.02 32.68L50.17 32.82L50.01 32.66Q49.97 30.64 48.83 29.12L48.96 29.25L48.93 29.22Q47.65 27.60 45.71 27.64ZM50.59 37.77L50.59 37.77L50.51 37.69Q49.03 39.83 44.66 40.06L44.72 40.13L44.79 40.20Q40.57 40.32 38.93 39.21L38.98 39.26L38.79 39.07Q38.00 38.32 37.85 36.61L37.81 36.57L37.85 36.61Q37.76 35.45 37.95 33.58L37.83 33.47L38.03 33.66Q38.42 29.26 39.64 27.43L39.58 27.38L39.70 27.49Q41.23 24.91 45.07 24.94L45.23 25.10L45.17 25.04Q47.69 25.09 49.97 27.41L49.96 27.39L49.94 27.37Q49.95 21.45 51.55 14.94L51.72 15.11L51.63 15.02Q53.47 14.54 55.34 13.70L55.33 13.69L55.31 13.67Q52.82 20.40 52.56 27.41L52.50 27.34L52.54 27.38Q52.11 34.42 54.24 41.00L54.38 41.15L54.35 41.11Q52.77 40.56 51.06 40.18L51.03 40.16L50.93 40.06Q50.70 38.84 50.55 37.73ZM53.60 43.22L53.51 43.12L53.59 43.21Q55.65 43.75 58.20 45.27L58.30 45.36L58.17 45.24Q54.54 38.26 54.39 29.96L54.30 29.88L54.32 29.89Q54.13 21.63 57.21 14.24L57.29 14.32L57.31 14.34Q56.53 14.70 55.08 15.35L55.27 15.54L55.22 15.48Q55.58 14.36 56.18 13.14L56.06 13.02L56.16 13.11Q53.77 14.19 51.33 14.76L51.30 14.73L51.23 14.65Q49.80 20.46 49.53 26.55L49.57 26.59L49.48 26.50Q47.65 24.75 45.14 24.63L45.05 24.54L45.20 24.69Q41.78 24.59 39.88 26.68L39.73 26.53L39.71 26.52Q38.16 29.04 37.74 33.72L37.67 33.64L37.65 33.63Q37.47 36.45 37.47 36.87L37.45 36.86L37.40 36.80Q37.51 38.59 38.65 39.66L38.67 39.67L38.53 39.53Q38.89 39.89 39.08 39.96L39.03 39.92L39.48 40.56L39.50 40.58Q40.46 41.92 43.43 42.19L43.40 42.16L43.49 42.25Q45.72 42.42 47.09 42.50L47.12 42.52L47.06 42.46Q51.15 42.56 52.86 41.23L52.99 41.35L52.89 41.26Q53.11 42.04 53.56 43.18ZM47.26 29.88L47.38 29.99L47.20 29.82Q48.45 30.03 49.29 30.53L49.12 30.36L49.25 30.49Q49.70 31.74 49.77 32.77L49.79 32.79L49.71 32.70Q50.02 36.93 44.99 37.27L45.03 37.31L44.97 37.25Q44.04 37.24 42.93 36.97L42.96 36.99L43.03 37.06Q42.84 36.49 42.76 35.96L42.78 35.98L42.67 35.87Q42.74 35.33 42.78 34.72L42.76 34.70L42.66 34.60Q43.10 31.31 45.73 30.32L45.64 30.23L45.70 30.30Q46.52 29.78 47.20 29.82Z"/><path fill="#444" d="M113.75 41.13L113.69 41.07L113.81 41.19Q116.94 36.90 123.64 28.98L123.60 28.94L123.65 28.99Q117.74 29.21 113.97 27.84L113.89 27.76L113.89 27.76Q113.30 26.41 112.54 25.00L112.50 24.96L112.42 24.88Q116.58 26.45 121.04 26.49L120.95 26.41L121.01 26.46Q125.54 26.58 129.73 25.51L129.67 25.45L129.58 25.36Q129.29 26.14 129.03 26.68L129.06 26.71L129.05 26.70Q126.38 28.79 123.56 32.40L123.66 32.50L118.71 38.67L118.80 38.76Q121.02 38.55 123.27 38.62L123.15 38.51L123.20 38.55Q125.50 38.72 127.74 39.10L127.75 39.10L127.73 39.08Q127.76 39.58 128.49 41.59L128.60 41.70L128.52 41.62Q124.70 40.70 120.71 40.82L120.89 41.00L120.75 40.86Q116.86 41.05 113.21 42.23L113.16 42.18L113.17 42.19Q113.26 42.05 113.72 41.10ZM112.62 42.82L112.57 42.77L112.69 42.89Q113.47 42.56 115.06 42.14L115.11 42.19L115.10 42.18Q114.74 42.28 114.33 42.70L114.27 42.64L114.40 42.77Q114.06 43.23 113.45 44.37L113.46 44.38L113.47 44.39Q118.13 43.00 123.12 43.15L123.29 43.32L123.15 43.18Q128.10 43.33 132.66 45.20L132.80 45.34L132.65 45.19Q131.35 43.47 130.44 41.41L130.29 41.27L130.28 41.26Q129.52 40.95 128.45 40.72L128.61 40.88L128.56 40.83Q128.34 40.08 127.96 38.63L127.94 38.61L127.89 38.56Q126.41 38.30 122.83 38.19L122.85 38.20L122.87 38.22Q125.16 34.81 130.19 28.45L130.33 28.59L130.26 28.52Q130.50 27.77 131.18 26.43L131.13 26.38L128.92 27.22L128.90 27.20Q128.91 27.05 129.06 26.94L129.11 26.99L129.25 26.75L129.40 26.90Q129.74 25.72 130.31 24.77L130.41 24.86L130.39 24.84Q125.63 26.10 120.91 26.02L120.91 26.02L120.93 26.04Q116.13 25.96 111.64 24.13L111.74 24.24L111.78 24.28Q112.92 26.10 113.72 28.16L113.76 28.20L113.61 28.05Q114.46 28.37 115.53 28.63L115.67 28.77L115.68 28.79Q115.73 29.33 116.03 30.78L116.12 30.86L116.17 30.92Q117.74 31.15 121.05 31.30L121.05 31.30L120.97 31.22Q118.59 34.55 113.41 40.98L113.44 41.02L113.42 41.00Q113.18 41.59 112.61 42.80Z"/></svg>