<svg xmlns="http://www.w3.org/2000/svg" width="150" height="50" viewBox="0,0,150,50"><path fill="#333" d="M38.27 38.99L38.26 38.98L38.21 38.93Q40.13 36.58 44.89 29.31L44.75 29.17L44.76 29.18Q48.83 23.02 51.69 19.74L51.83 19.88L51.68 19.73Q49.68 20.13 47.59 20.13L47.49 20.04L47.53 20.08Q42.41 20.21 38.41 18.42L38.33 18.34L38.29 18.30Q37.72 16.47 37.04 14.91L37.04 14.91L36.90 14.78Q41.60 17.08 47.27 17.19L47.28 17.19L47.19 17.11Q52.33 17.18 57.51 15.28L57.58 15.36L57.59 15.37Q57.10 16.09 56.80 16.89L56.90 17.00L56.28 18.55L56.23 18.50Q53.21 22.17 49.21 28.00L49.23 28.02L45.89 32.83L45.90 32.84Q44.16 35.20 42.33 37.49L42.44 37.59L42.27 37.43Q45.77 37.01 49.08 37.08L49.04 37.05L48.98 36.98Q52.44 37.20 55.60 38.12L55.57 38.09L55.91 39.53L56.01 39.64Q56.29 40.49 56.63 41.32L56.61 41.30L56.58 41.27Q51.90 39.67 46.76 39.86L46.78 39.88L46.83 39.94Q41.60 40.03 37.11 42.05L37.11 42.05L37.15 42.09Q37.53 41.03 38.26 38.97ZM36.48 42.72L36.64 42.87L36.47 42.70Q37.72 42.13 38.52 41.87L38.62 41.96L38.62 41.96Q38.34 42.71 37.66 44.24L37.61 44.19L37.57 44.15Q43.25 41.99 49.23 42.21L49.32 42.31L49.33 42.32Q55.68 42.57 60.70 45.35L60.57 45.23L60.65 45.30Q59.26 42.92 58.46 40.75L58.48 40.78L58.48 40.77Q57.94 40.49 56.41 39.92L56.42 39.93L56.51 40.02Q56.23 39.17 55.82 37.69L55.78 37.65L55.84 37.71Q51.65 36.49 46.54 36.68L46.60 36.74L46.54 36.68Q48.64 33.90 52.18 28.34L52.30 28.46L52.24 28.40Q55.80 22.59 57.70 20.04L57.86 20.20L57.81 20.15Q58.28 18.72 59.31 16.01L59.33 16.04L59.34 16.05Q58.64 16.38 57.20 16.99L57.21 17.00L57.16 16.95Q57.60 16.25 58.32 14.73L58.24 14.65L58.17 14.57Q52.92 16.79 47.21 16.71L47.28 16.78L47.11 16.61Q41.24 16.60 36.29 14.09L36.35 14.15L36.25 14.05Q37.43 16.45 38.15 18.69L38.10 18.64L38.21 18.75Q39.21 19.18 40.01 19.41L40.11 19.51L40.11 19.51Q40.41 20.22 40.67 21.67L40.60 21.59L40.51 21.51Q44.25 22.58 49.12 22.39L49.24 22.51L49.25 22.52Q46.86 25.73 43.55 30.71L43.56 30.73L37.88 38.90L38.01 39.03Q37.56 40.22 36.53 42.77Z"/><path fill="#444" d="M118.28 26.76L118.35 26.83L118.36 26.84Q120.11 26.96 121.94 26.96L121.94 26.96L121.97 26.98Q123.77 26.99 125.59 26.84L125.50 26.75L125.59 26.83Q125.53 27.54 125.53 28.26L125.55 28.29L125.49 29.56L125.43 29.50Q123.12 29.54 118.36 29.66L118.29 29.58L118.32 29.61Q118.31 35.54 117.16 40.53L117.16 40.52L117.12 40.49Q114.91 41.17 113.42 41.97L113.47 42.02L113.57 42.12Q115.82 35.22 115.55 28.10L115.65 28.20L115.54 28.10Q115.35 21.01 112.68 14.35L112.67 14.34L112.67 14.34Q116.36 16.88 121.12 17.11L121.08 17.08L121.18 17.17Q125.64 17.15 129.79 15.40L129.94 15.54L129.91 15.51Q129.65 16.36 129.42 17.16L129.37 17.11L128.95 18.78L128.88 18.70Q126.20 19.84 123.23 19.99L123.24 19.99L123.24 19.99Q120.29 20.13 117.44 19.41L117.44 19.41L117.36 19.33Q118.17 22.85 118.36 26.85ZM130.46 14.73L130.48 14.75L130.49 14.76Q126.02 17.02 121.14 16.72L121.15 16.72L121.03 16.60Q115.77 16.37 112.04 13.52L111.93 13.41L112.07 13.55Q114.82 20.37 115.13 27.99L115.16 28.01L115.17 28.03Q115.60 36.07 113.08 42.85L113.09 42.86L112.97 42.73Q113.74 42.43 115.11 41.79L115.04 41.72L115.13 41.81Q114.79 42.42 114.22 43.94L114.28 44.00L114.29 44.02Q116.59 42.92 119.48 42.43L119.48 42.43L119.49 42.44Q120.03 37.49 120.22 31.78L120.25 31.82L120.31 31.87Q122.10 31.83 123.92 31.83L123.95 31.86L123.88 31.79Q125.73 31.85 127.56 32.04L127.53 32.02L127.51 32.00Q127.44 31.08 127.44 30.17L127.45 30.18L127.44 28.27L127.37 28.20Q126.60 28.30 125.76 28.30L125.86 28.40L125.81 28.35Q125.82 27.48 125.89 26.46L125.83 26.39L125.96 26.52Q124.53 26.65 123.12 26.65L123.05 26.58L123.17 26.70Q121.71 26.65 120.34 26.61L120.30 26.57L120.29 24.43L120.32 24.46Q120.18 23.25 120.06 22.18L120.14 22.27L120.01 22.13Q121.11 22.32 122.10 22.32L122.15 22.37L122.08 22.30Q126.90 22.36 130.52 20.46L130.41 20.35L130.50 20.44Q130.89 18.51 131.81 15.88L131.77 15.85L131.81 15.89Q130.49 16.70 129.69 17.04L129.78 17.13L129.83 17.18Q130.13 16.45 130.62 14.89Z"/><path fill="#111" d="M92.90 30.58L92.97 30.65L92.98 30.66Q93.02 30.70 96.41 30.66L96.33 30.58L96.44 30.70Q98.61 30.57 99.67 30.61L99.73 30.67L99.56 30.50Q98.62 27.73 96.18 22.10L96.14 22.06L96.09 22.01Q95.62 23.52 94.58 26.37L94.58 26.38L94.58 26.37Q93.62 29.32 93.05 30.73ZM100.84 33.15L100.71 33.02L100.71 33.02Q98.58 33.14 96.37 33.18L96.37 33.18L96.40 33.21Q94.11 33.20 91.83 33.39L91.76 33.32L91.74 33.31Q90.20 36.71 86.96 40.90L87.10 41.03L87.09 41.03Q84.40 41.53 83.03 42.03L83.10 42.10L83.05 42.05Q88.12 36.34 92.80 22.98L92.84 23.02L92.84 23.01Q94.03 19.53 95.40 16.29L95.47 16.36L95.40 16.29Q95.79 16.38 96.13 16.38L96.12 16.36L96.97 16.49L96.94 16.45Q97.58 17.71 102.42 29.36L102.49 29.43L102.50 29.44Q105.66 37.17 109.66 41.32L109.75 41.41L109.65 41.31Q109.19 41.23 105.31 40.36L105.30 40.35L105.27 40.32Q102.68 37.16 100.70 33.01ZM105.21 40.68L105.32 40.79L105.77 40.75L105.74 40.72Q106.19 40.93 106.49 41.05L106.48 41.04L106.36 40.92Q106.70 41.29 108.52 43.31L108.62 43.41L108.51 43.29Q112.22 44.26 114.61 45.29L114.63 45.30L114.63 45.31Q109.14 40.76 105.14 32.77L105.05 32.68L105.05 32.68Q103.49 29.44 102.05 25.49L101.95 25.39L99.37 18.05L99.23 17.91Q98.94 17.96 98.71 17.96L98.81 18.07L98.25 18.04L98.26 18.05Q97.93 17.41 97.20 16.04L97.24 16.07L97.14 15.97Q96.66 16.03 96.21 15.99L96.25 16.04L96.24 16.03Q95.73 15.93 95.19 15.93L95.20 15.93L95.29 16.03Q93.72 19.79 89.84 29.96L90.00 30.11L89.86 29.97Q86.82 38.01 82.18 42.81L82.17 42.81L82.08 42.72Q83.19 42.37 85.20 41.76L85.20 41.76L85.26 41.82Q84.50 42.70 82.94 44.49L82.96 44.51L82.80 44.34Q84.62 43.81 88.54 43.04L88.48 42.99L88.54 43.04Q91.89 38.63 93.45 35.39L93.56 35.50L93.42 35.37Q95.31 35.38 97.63 35.42L97.51 35.30L97.52 35.31Q100.36 35.45 101.73 35.53L101.66 35.46L101.63 35.42Q102.96 37.86 105.32 40.79ZM97.57 26.07L97.53 26.03L97.55 26.05Q98.37 28.09 99.13 30.19L99.16 30.21L95.80 30.17L95.81 30.18Q96.49 28.84 97.56 26.06Z"/><path fill="#444" d="M22.63 30.39L22.66 30.42L22.77 30.53Q19.21 36.79 15.78 40.75L15.82 40.79L15.77 40.74Q13.84 41.09 11.40 41.96L11.44 42.00L11.54 42.10Q16.40 36.45 21.16 28.04L21.09 27.97L21.05 27.93Q16.52 21.04 10.54 14.64L10.57 14.67L10.53 14.64Q13.40 15.79 15.68 16.28L15.69 16.29L15.82 16.42Q20.48 21.65 22.91 25.61L22.88 25.58L22.84 25.53Q25.44 21.20 29.36 16.79L29.31 16.73L29.37 16.80Q30.83 16.36 34.03 15.60L34.04 15.61L34.09 15.66Q27.95 22.04 24.49 27.98L24.47 27.97L24.42 27.92Q29.71 36.70 34.08 41.27L34.12 41.30L33.99 41.17Q31.39 40.37 29.30 40.14L29.44 40.28L29.48 40.32Q26.57 37.22 22.65 30.40ZM29.25 40.51L29.29 40.55L29.40 40.66Q29.69 40.68 30.14 40.79L30.17 40.82L30.03 40.68Q30.96 41.58 32.49 43.18L32.38 43.06L32.43 43.12Q35.76 43.90 38.81 45.27L38.88 45.34L38.71 45.17Q31.68 38.68 26.58 29.92L26.60 29.94L26.56 29.90Q30.24 23.19 36.15 16.34L36.17 16.36L36.22 16.42Q34.77 17.06 32.60 17.59L32.51 17.50L32.56 17.55Q33.49 16.69 35.24 14.90L35.16 14.82L35.17 14.83Q32.82 15.76 29.13 16.33L29.08 16.28L29.13 16.33Q25.79 20.22 23.20 24.52L23.05 24.37L23.07 24.40Q22.19 22.82 21.01 21.34L21.07 21.40L18.71 18.39L18.34 18.40L18.35 18.41Q18.26 18.48 18.03 18.40L18.01 18.38L17.91 18.28Q17.33 17.55 15.84 15.99L15.89 16.03L15.87 16.01Q12.01 15.08 9.42 13.71L9.32 13.61L9.46 13.76Q16.19 21.01 20.75 28.05L20.77 28.07L20.61 27.91Q16.20 36.18 10.45 42.77L10.43 42.74L10.55 42.86Q11.73 42.06 13.86 41.49L14.02 41.65L12.69 43.06L12.69 43.06Q12.56 42.93 11.23 44.26L11.24 44.28L11.36 44.40Q14.23 43.19 17.39 42.70L17.39 42.69L17.40 42.71Q21.42 38.19 24.00 33.44L23.99 33.43L24.00 33.43Q26.60 37.71 29.30 40.56Z"/><path fill="#333" d="M64.94 47.08L64.97 47.11L65.01 47.15Q63.94 47.23 62.04 47.53L62.17 47.66L62.06 47.55Q63.32 45.35 64.35 44.06L64.45 44.15L64.32 44.03Q66.10 44.36 66.25 44.36L66.30 44.40L66.30 44.40Q66.52 44.40 67.06 44.29L67.12 44.35L67.16 44.39Q67.85 44.32 68.04 44.32L68.12 44.39L68.04 44.32Q70.67 44.13 70.59 41.96L70.50 41.87L70.51 41.88Q70.42 40.34 70.30 34.09L70.36 34.15L70.43 34.23Q70.37 30.66 70.45 26.51L70.31 26.37L71.78 26.25L71.74 26.20Q72.52 26.23 73.21 26.00L73.03 25.82L73.11 25.90Q72.80 30.24 72.84 34.62L72.86 34.64L72.98 34.75Q73.07 39.18 73.60 43.56L73.49 43.45L73.47 43.42Q73.63 43.81 73.63 44.08L73.65 44.10L73.67 44.13Q73.48 45.57 71.81 45.95L71.98 46.13L71.92 46.06Q68.75 46.40 64.91 47.05ZM71.65 22.80L69.56 19.73L69.67 19.83Q70.71 18.44 72.54 15.66L72.51 15.63L72.37 15.49Q73.03 16.38 74.36 18.20L74.40 18.24L71.62 22.77ZM74.63 49.39L74.76 49.52L74.75 49.51Q75.26 49.52 76.02 49.18L76.06 49.21L76.07 49.22Q76.29 48.42 76.29 47.97L76.36 48.03L76.39 48.06Q76.28 47.60 76.16 47.00L76.11 46.95L76.13 46.96Q74.93 40.70 74.93 32.78L74.93 32.78L74.98 32.83Q74.93 29.93 75.09 27.04L75.06 27.01L75.02 26.97Q74.48 27.15 73.33 27.45L73.44 27.56L73.37 27.50Q73.36 26.98 73.40 26.45L73.31 26.37L73.60 25.47L73.52 25.39Q71.77 26.01 69.98 26.05L69.97 26.04L70.05 26.12Q69.95 30.39 69.99 33.97L70.04 34.02L70.19 41.90L70.15 41.86Q70.21 43.83 68.04 43.94L67.99 43.89L68.12 44.02Q67.79 43.91 67.28 43.97L67.24 43.94L67.21 43.91Q66.68 43.95 66.42 43.95L66.59 44.13L66.51 44.04Q66.00 43.99 64.44 43.57L64.37 43.50L64.52 43.65Q64.08 44.28 62.98 45.96L62.97 45.94L61.27 48.09L61.34 48.16Q62.28 48.03 63.91 47.65L63.96 47.70L63.42 48.34L62.95 49.05L62.88 48.98Q65.26 48.92 66.59 49.00L66.58 48.99L66.47 48.87Q68.77 49.05 74.71 49.47ZM71.66 23.57L71.69 23.60L71.92 22.96L71.95 22.99Q72.48 23.60 73.43 25.20L73.34 25.10L73.33 25.09Q74.80 21.91 76.36 18.83L76.47 18.94L76.51 18.99Q75.53 17.39 74.58 16.10L74.43 15.95L74.42 15.94Q74.32 16.26 73.98 16.80L73.92 16.74L73.96 16.77Q73.51 16.09 72.52 14.80L72.51 14.79L72.46 14.74Q71.31 16.37 68.98 19.72L69.10 19.83L69.06 19.79Q69.95 20.99 71.66 23.58Z"/></svg>