<svg xmlns="http://www.w3.org/2000/svg" width="150" height="50" viewBox="0,0,150,50"><path fill="#111" d="M46.46 29.23L46.40 29.17L46.37 29.14Q44.46 29.10 43.25 30.43L43.40 30.58L43.26 30.44Q42.11 31.84 41.95 33.74L42.01 33.80L41.91 33.70Q41.72 35.84 42.94 36.84L43.04 36.94L43.01 36.92Q44.14 37.83 46.27 37.76L46.40 37.88L46.38 37.87Q48.69 37.70 49.65 36.75L49.56 36.67L49.55 36.66Q50.67 35.30 50.56 33.48L50.55 33.47L50.52 33.44Q50.50 31.67 49.41 30.47L49.28 30.33L49.41 30.47Q48.25 29.19 46.42 29.19ZM46.41 19.78L46.43 19.79L46.39 19.76Q45.04 19.70 43.71 20.20L43.71 20.19L43.70 20.19Q42.35 20.93 42.58 22.80L42.67 22.88L42.67 22.88Q43.14 26.59 46.49 26.59L46.38 26.48L46.50 26.60Q47.96 26.69 48.95 25.55L49.04 25.64L49.05 25.65Q49.97 24.43 50.00 22.87L50.09 22.95L50.05 22.92Q50.12 21.16 49.40 20.55L49.43 20.59L49.26 20.42Q47.71 19.70 46.42 19.78ZM46.15 40.34L46.20 40.39L43.07 40.31L42.98 40.22Q41.51 40.27 40.18 39.39L40.24 39.45L40.28 39.50Q38.80 38.24 38.96 35.39L39.10 35.53L38.91 35.34Q39.53 28.65 43.14 27.66L42.99 27.51L43.05 27.57Q40.72 26.61 39.39 21.24L39.49 21.35L39.45 21.30Q39.17 19.96 39.25 19.16L39.28 19.19L39.23 19.14Q39.50 16.97 43.19 16.93L43.17 16.91L43.24 16.99Q47.50 16.94 48.95 17.13L48.89 17.07L48.84 17.03Q52.63 17.51 53.09 19.52L53.23 19.67L53.20 19.64Q53.19 20.12 53.19 20.50L53.19 20.50L53.26 20.57Q53.22 21.21 53.03 21.82L53.15 21.95L53.11 21.91Q52.44 26.07 49.51 27.59L49.52 27.61L49.55 27.64Q53.13 28.51 53.63 33.80L53.62 33.80L53.59 33.76Q53.55 33.88 53.59 35.17L53.52 35.11L53.68 35.26Q53.65 37.90 52.05 38.97L52.10 39.02L52.07 38.99Q50.77 39.94 46.20 40.39ZM48.47 42.69L48.46 42.69L51.79 42.74L51.76 42.71Q53.43 42.75 54.95 42.02L55.05 42.12L54.97 42.04Q56.11 41.31 56.18 39.44L56.20 39.46L56.16 39.42Q56.33 38.45 55.95 36.51L55.96 36.52L55.82 36.38Q54.98 31.81 52.89 29.94L52.82 29.88L52.63 29.50L52.51 29.30L52.29 28.96L52.34 29.02Q53.90 27.56 54.81 23.42L54.86 23.46L54.83 23.43Q54.92 23.14 54.99 22.30L54.91 22.22L54.91 22.22Q54.94 21.49 54.87 20.88L54.97 20.99L54.95 20.97Q54.76 19.48 53.58 18.98L53.67 19.07L53.59 18.96L53.53 18.98L53.53 18.98Q53.17 18.16 51.99 17.36L52.12 17.48L52.07 17.40L51.96 17.29Q50.11 16.73 46.04 16.54L46.06 16.56L46.05 16.56Q44.52 16.47 43.15 16.59L43.00 16.44L43.06 16.50Q42.36 16.64 41.07 16.79L40.94 16.67L40.99 16.71Q39.13 17.18 38.91 18.82L38.85 18.76L38.75 18.67Q38.82 19.26 38.86 20.06L38.83 20.04L38.91 20.11Q39.00 20.63 39.57 22.99L39.44 22.86L39.41 22.82Q40.27 26.12 42.02 27.45L42.03 27.46L42.11 27.54L42.10 27.53Q39.37 28.88 38.84 34.05L38.74 33.95L38.78 33.99Q38.56 36.18 38.56 37.09L38.68 37.21L38.69 37.22Q38.63 38.87 39.81 39.78L39.90 39.88L39.97 39.94Q39.89 39.83 40.16 40.02L40.30 40.16L40.25 40.11Q41.24 42.35 48.36 42.58ZM48.13 31.62L47.99 31.48L47.98 31.47Q49.01 31.51 49.89 31.97L49.76 31.84L49.87 31.95Q50.26 32.95 50.22 33.48L50.09 33.35L50.16 33.42Q50.27 33.80 50.27 34.10L50.13 33.96L50.28 34.11Q50.18 36.37 47.89 37.21L47.90 37.22L47.97 37.29Q47.07 37.49 46.28 37.38L46.40 37.50L46.34 37.44Q45.24 37.57 44.10 37.11L44.08 37.09L44.14 37.14Q43.73 36.36 43.81 35.37L43.92 35.48L43.95 35.51Q43.98 33.79 45.18 32.57L45.25 32.64L45.22 32.61Q46.40 31.37 48.00 31.49ZM48.33 22.11L48.33 22.11L48.37 22.16Q49.08 21.95 49.62 22.10L49.62 22.10L49.63 22.92L49.59 22.88Q49.57 24.27 48.66 25.28L48.78 25.40L48.75 25.37Q47.71 26.25 46.34 26.06L46.45 26.17L46.45 26.17Q45.40 26.11 44.98 25.88L44.94 25.85L44.96 25.86Q44.98 25.65 44.87 24.97L44.87 24.97L44.81 24.91Q44.57 23.53 45.79 22.70L45.88 22.78L45.72 22.62Q46.96 22.11 48.37 22.15Z"/><path fill="#222" d="M73.49 32.13L64.31 22.18L64.35 22.23Q65.09 25.82 65.09 29.55L65.10 29.56L65.17 29.62Q65.15 35.59 63.10 41.15L63.08 41.13L63.07 41.12Q62.08 41.46 59.83 42.22L59.76 42.15L59.75 42.14Q62.57 36.36 62.57 29.66L62.50 29.58L62.50 29.58Q62.54 20.98 58.05 13.56L58.04 13.55L58.05 13.56Q58.42 13.66 59.10 14.08L59.25 14.23L59.23 14.21Q71.19 25.30 79.04 34.55L79.08 34.59L79.10 34.61Q78.81 32.19 78.81 29.75L78.73 29.67L78.90 29.85Q78.79 22.50 81.30 16.29L81.28 16.27L81.28 16.27Q83.66 15.80 85.26 15.11L85.29 15.14L85.34 15.19Q81.95 21.29 81.65 28.44L81.65 28.44L81.63 28.42Q81.42 35.87 84.39 42.04L84.37 42.01L84.37 42.01Q83.78 41.92 83.36 41.73L83.31 41.68L83.32 41.68Q78.67 37.65 73.46 32.09L73.57 32.20ZM87.02 45.23L86.91 45.13L86.89 45.10Q87.41 45.32 87.83 45.51L87.71 45.40L88.73 45.91L88.68 45.87Q83.54 38.94 83.54 29.57L83.56 29.60L83.48 29.51Q83.51 22.30 86.82 16.06L86.76 16.00L86.76 16.00Q86.14 16.26 84.73 16.87L84.68 16.81L84.69 16.82Q85.12 16.03 85.95 14.47L86.04 14.56L85.97 14.49Q83.41 15.28 80.97 15.85L81.07 15.94L81.12 16.00Q78.41 22.39 78.41 29.81L78.47 29.87L78.37 29.77Q78.44 31.71 78.63 33.69L78.66 33.71L78.54 33.59Q73.91 27.93 69.15 23.33L69.23 23.40L59.15 13.71L59.12 13.68Q58.56 13.39 57.34 12.82L57.36 12.83L57.36 12.83Q62.23 20.56 62.23 29.66L62.22 29.64L62.20 29.62Q62.15 36.69 59.06 42.71L59.10 42.74L59.15 42.80Q59.50 42.73 61.14 42.12L61.08 42.06L61.09 42.07Q60.87 42.95 60.03 44.44L59.99 44.39L60.02 44.42Q61.19 43.73 64.65 42.93L64.83 43.10L64.80 43.07Q67.05 36.88 67.05 29.68L66.96 29.59L66.97 29.60Q67.08 27.62 66.85 25.48L66.86 25.49L66.89 25.53Q78.35 38.32 86.96 45.17Z"/><path fill="#222" d="M119.43 39.99L119.26 39.83L119.42 39.99Q115.13 39.31 113.30 37.87L113.42 37.98L113.26 37.83Q111.44 36.38 111.02 33.38L111.17 33.52L111.07 33.43Q111.02 33.04 110.68 28.28L110.78 28.38L110.70 28.30Q110.85 27.23 110.77 25.97L110.71 25.91L110.70 25.90Q110.45 20.77 112.65 19.02L112.66 19.03L112.71 19.08Q115.39 17.00 123.16 16.31L123.24 16.40L123.24 16.39Q124.55 16.23 126.19 16.26L126.15 16.22L126.06 16.13Q126.18 16.25 129.15 16.25L129.11 16.22L129.12 16.23Q129.96 16.22 131.67 16.38L131.70 16.40L131.73 16.43Q131.17 17.32 130.14 20.40L130.16 20.42L130.13 20.40Q127.95 19.09 124.94 19.09L125.00 19.15L124.96 19.11Q124.18 19.09 123.38 19.16L123.42 19.21L123.53 19.32Q118.29 19.63 115.78 21.61L115.87 21.70L115.90 21.73Q113.76 23.21 113.60 26.56L113.70 26.66L113.75 26.71Q113.62 27.22 113.66 28.48L113.68 28.50L113.64 28.46Q113.79 33.33 116.19 35.43L116.27 35.50L116.28 35.51Q118.27 37.28 123.26 37.58L123.38 37.70L123.30 37.62Q126.51 37.86 129.52 36.07L129.41 35.97L129.47 36.03Q130.07 38.76 130.68 40.13L130.76 40.22L130.66 40.12Q128.54 40.35 126.90 40.31L127.03 40.44L126.96 40.37Q122.57 40.39 119.45 40.01ZM134.46 43.64L134.48 43.66L134.50 43.69Q132.66 40.63 131.98 38.04L131.96 38.03L132.00 38.06Q131.67 38.42 130.68 38.80L130.61 38.73L130.51 38.63Q130.21 37.87 130.02 37.03L130.00 37.01L129.60 35.29L129.69 35.37Q126.34 37.35 123.22 37.24L123.33 37.35L123.19 37.21Q119.05 37.15 116.73 35.40L116.60 35.27L116.69 35.35Q115.47 33.45 115.55 30.52L115.71 30.68L115.69 30.66Q115.77 26.10 118.24 23.97L118.19 23.91L118.35 24.07Q120.31 22.00 124.99 21.39L125.01 21.41L125.03 21.42Q125.82 21.30 126.55 21.30L126.59 21.34L126.55 21.31Q129.38 21.35 131.47 22.88L131.49 22.89L131.48 22.89Q131.87 20.65 133.08 17.41L133.26 17.59L133.14 17.47Q132.96 17.55 132.40 17.49L132.37 17.46L132.30 17.39Q131.87 17.45 131.60 17.45L131.47 17.32L131.55 17.40Q131.64 16.76 132.09 15.77L132.20 15.88L132.28 15.96Q132.05 15.96 129.56 15.89L129.47 15.79L129.37 15.70Q127.05 15.79 126.40 15.83L126.34 15.76L126.24 15.67Q115.81 16.09 112.34 18.67L112.41 18.74L112.39 18.72Q110.27 20.44 110.27 24.37L110.28 24.38L110.28 24.38Q110.38 25.58 110.50 28.28L110.55 28.33L110.43 28.22Q110.53 31.75 110.76 33.46L110.77 33.47L110.80 33.50Q111.17 36.61 112.77 38.13L112.77 38.14L112.69 38.06Q113.34 38.90 114.60 40.04L114.51 39.96L114.57 40.01Q117.78 41.74 123.04 42.50L123.14 42.61L123.12 42.59Q129.51 43.49 134.49 43.68Z"/><path fill="#444" d="M89.17 15.92L89.13 15.88L89.15 15.90Q90.97 20.69 91.54 25.87L91.55 25.88L91.65 25.98Q95.31 21.79 101.21 16.96L101.25 17.00L101.16 16.91Q104.36 16.60 106.98 15.80L107.02 15.84L100.44 21.44L100.45 21.46Q97.10 24.46 94.24 27.31L94.13 27.21L94.12 27.19Q102.05 36.31 107.12 41.03L107.25 41.16L107.18 41.08Q104.02 40.10 101.70 39.95L101.73 39.98L101.69 39.94Q96.02 34.65 91.72 28.82L91.76 28.87L91.61 28.71Q91.89 35.50 90.02 40.83L89.88 40.70L89.88 40.69Q89.73 40.81 89.23 41.00L89.28 41.04L89.09 41.05L89.11 41.06Q89.04 41.22 86.49 42.14L86.49 42.14L86.47 42.11Q89.48 35.61 89.13 28.14L89.13 28.15L88.98 27.99Q88.67 20.68 85.13 14.17L85.18 14.22L85.71 14.48L86.06 14.72L86.21 14.83L86.16 14.77Q87.00 15.27 89.20 15.96ZM89.31 15.49L89.40 15.58L89.38 15.56Q87.02 14.92 84.39 13.39L84.40 13.39L84.48 13.48Q88.78 20.79 88.78 29.73L88.80 29.76L88.81 29.77Q88.86 36.81 85.89 42.87L85.85 42.83L87.91 42.00L87.80 41.89Q87.52 43.01 86.83 44.31L86.72 44.19L86.67 44.14Q89.00 43.43 90.94 43.01L91.00 43.07L91.06 42.90L90.93 42.77Q91.36 42.89 91.93 42.74L91.85 42.66L91.83 42.64Q93.52 36.76 93.64 31.96L93.56 31.88L93.57 31.90Q95.72 34.46 97.54 36.33L97.46 36.24L97.51 36.30Q98.63 37.33 101.64 40.30L101.64 40.31L101.77 40.44L101.79 40.46Q102.72 41.20 104.59 42.80L104.58 42.80L104.58 42.79Q108.47 43.52 111.93 45.23L112.01 45.31L111.87 45.17Q102.74 36.76 96.49 29.34L96.49 29.34L96.49 29.33Q100.83 25.00 109.59 16.39L109.52 16.33L109.52 16.33Q106.99 17.49 104.97 17.87L104.96 17.86L105.02 17.91Q106.22 16.91 108.54 14.89L108.66 15.01L108.48 14.83Q104.45 16.32 101.10 16.51L101.10 16.51L101.10 16.51Q98.24 18.79 93.37 23.47L93.36 23.46L93.39 23.49Q92.82 20.71 92.25 18.16L92.29 18.21L92.25 18.16Q91.23 18.17 90.24 17.83L90.17 17.76L90.17 17.76Q89.93 16.99 89.36 15.54Z"/><path fill="#444" d="M24.75 39.91L24.60 39.76L24.63 39.80Q22.81 39.88 20.80 40.07L20.77 40.05L20.64 39.91Q21.42 34.79 21.42 29.95L21.40 29.94L21.46 30.00Q21.39 25.02 20.74 19.80L20.79 19.85L20.73 19.79Q16.12 19.37 12.93 17.69L12.95 17.72L12.33 16.07L12.31 16.05Q12.14 15.57 11.53 14.35L11.51 14.34L11.46 14.28Q16.59 17.01 22.60 17.20L22.49 17.09L22.44 17.04Q28.47 17.36 33.91 15.30L33.91 15.31L33.79 15.18Q33.19 16.72 32.55 18.55L32.48 18.48L32.48 18.48Q28.92 19.83 24.66 20.02L24.66 20.02L24.63 20.00Q24.42 25.00 24.42 29.95L24.36 29.89L24.46 29.99Q24.46 34.94 24.76 39.93ZM34.49 14.51L34.43 14.45L34.55 14.57Q28.70 16.83 22.49 16.64L22.44 16.59L22.52 16.67Q15.81 16.43 10.71 13.46L10.67 13.43L10.74 13.49Q11.44 14.72 12.73 17.99L12.85 18.11L12.82 18.08Q13.35 18.27 14.60 18.84L14.68 18.91L14.64 18.88Q14.87 19.56 15.22 21.09L15.38 21.25L15.38 21.25Q17.65 22.07 20.69 22.30L20.54 22.15L20.68 22.29Q20.92 25.84 20.92 29.61L20.97 29.66L21.05 29.74Q20.96 35.02 20.16 40.39L20.26 40.49L20.20 40.42Q21.86 40.30 22.40 40.30L22.34 40.24L22.44 40.34Q22.43 40.63 22.37 41.30L22.41 41.34L22.26 41.19Q22.32 41.97 22.32 42.31L22.32 42.32L22.39 42.38Q23.48 42.22 25.00 42.29L24.98 42.28L24.90 42.20Q25.95 42.37 27.78 42.52L27.77 42.52L27.65 42.39Q26.53 37.58 26.41 32.40L26.31 32.29L26.36 32.35Q26.17 26.98 26.71 22.07L26.86 22.22L26.86 22.22Q30.73 21.61 33.89 20.39L33.95 20.45L33.87 20.36Q34.54 17.95 35.57 15.90L35.70 16.03L35.69 16.02Q34.27 16.61 33.47 16.92L33.42 16.87L33.39 16.84Q33.93 15.67 34.50 14.53Z"/></svg>