<svg xmlns="http://www.w3.org/2000/svg" width="150" height="50" viewBox="0,0,150,50"><path fill="#222" d="M115.63 19.15L115.74 19.26L115.66 19.17Q116.89 23.75 117.04 26.95L116.96 26.87L116.94 26.85Q117.54 26.99 121.92 27.11L121.89 27.08L121.93 27.12Q124.28 26.96 124.66 23.49L124.86 23.69L124.67 23.51Q124.89 21.78 123.98 20.87L123.97 20.86L124.08 20.97Q122.65 19.92 120.67 19.77L120.73 19.82L120.78 19.87Q117.53 19.63 115.66 19.17ZM117.07 28.80L117.13 28.87L117.02 28.76Q117.30 34.86 115.51 40.80L115.40 40.69L115.54 40.83Q114.22 41.07 111.63 42.10L111.58 42.05L111.53 41.99Q114.38 35.52 114.04 28.06L114.17 28.19L114.01 28.03Q113.88 20.85 110.56 14.34L110.46 14.24L110.41 14.19Q115.40 17.12 122.36 17.12L122.26 17.02L122.41 17.17Q128.00 17.13 128.27 20.67L128.28 20.67L128.27 20.67Q128.24 21.17 128.16 21.78L128.16 21.77L128.06 22.89L128.21 23.04Q127.37 26.96 125.24 28.68L125.11 28.54L125.27 28.71Q124.44 29.36 123.41 29.36L123.37 29.32L120.80 29.33L120.72 29.26Q126.34 36.51 130.87 41.08L130.97 41.18L130.87 41.08Q128.66 40.32 125.73 39.98L125.79 40.03L125.71 39.95Q121.92 35.97 117.00 28.74ZM125.63 40.37L125.67 40.42L125.92 40.36L127.27 41.71L127.18 41.62Q127.74 42.14 128.39 42.75L128.38 42.74L128.43 42.79Q132.05 43.48 135.63 45.35L135.52 45.24L135.63 45.35Q128.64 38.55 123.23 31.62L123.15 31.54L124.92 31.56L124.91 31.55Q128.06 31.61 129.39 27.08L129.44 27.13L129.27 26.96Q130.03 24.83 130.03 22.12L130.07 22.17L130.04 22.13Q130.13 19.93 128.41 19.29L128.32 19.20L128.37 19.24Q128.16 18.77 127.59 18.08L127.57 18.06L127.58 18.08Q125.92 16.64 122.26 16.56L122.31 16.61L122.29 16.59Q114.40 16.43 109.72 13.42L109.80 13.50L109.73 13.43Q113.58 20.37 113.92 28.06L113.80 27.94L113.74 27.87Q114.24 35.98 111.11 42.84L110.99 42.71L111.13 42.85Q112.32 42.21 113.12 41.91L113.07 41.86L112.04 44.10L112.15 44.22Q114.95 43.25 117.62 42.75L117.59 42.73L117.54 42.68Q118.87 37.61 119.06 32.39L118.98 32.32L118.91 32.25Q122.44 37.22 125.60 40.35ZM124.42 22.49L124.47 22.54L124.34 22.41Q124.48 22.78 124.48 23.12L124.45 23.09L124.40 23.61L124.46 23.67Q124.41 24.73 123.73 25.68L123.67 25.62L123.68 25.63Q123.12 26.44 122.20 26.63L122.13 26.55L122.22 26.65Q122.07 26.77 120.47 26.80L120.40 26.73L120.42 26.75Q119.90 26.84 119.06 26.73L118.94 26.61L118.95 26.61Q118.83 25.08 118.49 22.04L118.43 21.98L118.56 22.11Q120.01 22.34 120.69 22.34L120.53 22.18L120.55 22.20Q122.41 22.23 124.35 22.42Z"/><path fill="#111" d="M102.46 28.77L102.45 28.77L96.55 28.85L96.39 28.68Q93.51 28.77 90.57 28.69L90.56 28.67L90.69 28.81Q90.78 35.48 88.73 41.00L88.77 41.04L88.63 40.90Q86.75 41.35 85.00 42.03L85.06 42.10L85.09 42.13Q87.82 36.37 87.82 29.71L87.79 29.67L87.89 29.78Q87.96 21.35 83.85 14.31L83.76 14.22L83.80 14.26Q85.23 14.97 87.71 15.77L87.84 15.91L87.81 15.87Q89.86 20.86 90.39 25.73L90.38 25.72L90.52 25.86Q93.71 26.27 96.56 26.23L96.47 26.14L96.50 26.16Q99.14 26.13 102.45 25.87L102.52 25.94L102.40 25.82Q102.82 21.36 104.57 16.26L104.69 16.38L104.59 16.29Q106.65 15.99 108.90 15.15L108.93 15.18L108.81 15.06Q105.32 21.93 105.32 29.89L105.30 29.86L105.28 29.85Q105.19 35.96 107.55 41.29L107.66 41.39L107.66 41.39Q105.99 40.72 103.93 40.41L103.89 40.37L103.87 40.35Q102.24 35.37 102.36 28.67ZM103.67 40.76L103.76 40.85L103.58 40.67Q104.76 40.97 105.86 41.24L105.87 41.24L105.72 41.10Q106.20 41.96 106.85 43.44L106.75 43.34L106.88 43.48Q110.07 44.26 111.86 45.18L111.85 45.17L111.96 45.28Q107.46 39.07 107.16 30.81L107.24 30.89L107.13 30.78Q106.83 22.75 110.48 15.93L110.49 15.95L109.41 16.38L109.47 16.44Q108.96 16.66 108.36 16.82L108.28 16.74L108.45 16.91Q108.73 15.97 109.57 14.41L109.69 14.54L109.69 14.53Q106.97 15.51 104.34 16.00L104.25 15.91L104.33 15.98Q102.56 20.73 102.10 25.41L102.25 25.56L102.27 25.58Q99.79 25.80 97.35 25.80L97.18 25.63L97.23 25.68Q94.80 25.65 92.29 25.50L92.35 25.56L92.35 25.56Q92.06 22.22 90.95 18.14L91.00 18.19L91.09 18.28Q90.36 18.12 88.91 17.74L88.94 17.76L88.87 17.70Q88.59 16.58 88.13 15.55L88.01 15.43L88.11 15.53Q85.40 14.80 83.12 13.54L83.04 13.46L83.02 13.44Q87.58 20.86 87.58 29.66L87.52 29.59L87.70 29.77Q87.54 36.58 84.42 42.71L84.55 42.84L84.57 42.86Q85.27 42.57 86.60 42.00L86.62 42.01L86.50 41.90Q86.25 42.83 85.45 44.35L85.41 44.31L85.46 44.36Q88.25 43.34 90.50 42.93L90.53 42.96L90.41 42.84Q92.38 37.39 92.57 31.22L92.49 31.14L92.51 31.16Q94.09 31.06 97.28 31.02L97.34 31.08L97.38 31.12Q100.19 31.04 102.10 31.11L102.02 31.04L102.06 31.07Q102.38 36.88 103.72 40.80Z"/><path fill="#222" d="M71.92 41.36L71.83 41.28L71.85 41.30Q68.96 41.45 67.70 40.91L67.72 40.93L67.68 40.89Q65.91 40.26 65.98 37.79L65.96 37.77L65.94 37.74Q65.98 34.24 65.98 34.82L66.05 34.89L66.12 34.96Q66.07 29.58 63.21 24.74L63.25 24.77L63.14 24.67Q65.12 25.62 67.10 26.00L67.09 25.99L67.22 26.12Q68.80 30.60 68.69 35.09L68.68 35.08L68.76 35.16Q68.68 36.72 69.52 37.94L69.45 37.87L69.49 37.91Q70.33 39.16 71.85 38.97L71.83 38.96L72.30 38.93L72.19 38.82Q73.52 38.74 74.33 37.97L74.52 38.16L74.40 38.04Q75.31 37.37 75.31 36.42L75.20 36.31L75.28 36.39Q75.33 36.21 75.29 36.02L75.29 36.01L75.18 35.90Q75.21 30.76 76.36 26.42L76.25 26.31L76.25 26.32Q77.27 26.24 78.26 26.01L78.36 26.11L80.27 25.50L80.31 25.54Q77.77 30.57 78.07 36.13L78.15 36.21L78.15 36.21Q78.25 39.21 76.54 40.35L76.62 40.43L76.51 40.32Q75.14 41.12 71.83 41.27ZM74.22 43.74L74.18 43.70L74.22 43.74Q77.68 43.89 79.51 43.13L79.55 43.17L79.49 43.11Q80.41 42.36 80.41 40.95L80.55 41.09L80.51 41.05Q80.46 40.09 80.20 38.53L80.17 38.50L80.18 38.50Q79.64 35.31 80.02 32.30L80.04 32.32L80.08 32.35Q80.45 29.18 81.86 26.44L81.83 26.41L81.98 26.56Q81.17 26.71 79.84 27.13L79.85 27.14L79.91 27.19Q80.11 26.56 80.41 25.99L80.50 26.07L80.94 24.80L80.98 24.84Q79.18 25.63 76.02 26.13L75.93 26.03L75.94 26.04Q74.72 30.84 74.87 35.94L74.94 36.01L74.88 35.95Q74.95 38.03 72.28 38.53L72.36 38.61L71.96 38.67L71.79 38.65L70.82 38.48L70.76 38.42Q70.66 37.52 70.70 37.02L70.70 37.02L70.80 37.12Q70.99 32.59 70.30 28.18L70.27 28.14L69.29 28.08L69.20 27.98Q68.64 27.92 68.11 27.81L68.25 27.94L68.21 27.91Q67.87 26.54 67.60 25.78L67.41 25.59L67.60 25.78Q64.83 25.36 62.58 24.07L62.55 24.04L62.58 24.07Q64.69 27.54 65.41 30.93L65.26 30.78L65.30 30.82Q65.82 33.05 65.66 36.56L65.72 36.61L65.72 36.61Q65.78 36.78 65.70 37.89L65.63 37.82L65.64 37.83Q65.58 40.28 66.95 41.23L66.82 41.10L66.84 41.12Q67.32 43.47 74.33 43.85Z"/><path fill="#111" d="M49.58 39.85L49.62 39.88L47.57 39.78L47.66 39.87Q46.68 39.84 45.73 39.96L45.68 39.91L45.81 40.04Q46.38 33.83 46.38 29.84L46.24 29.69L46.24 29.69Q42.37 23.12 34.72 14.44L34.76 14.48L34.62 14.35Q36.53 15.45 39.88 16.25L39.81 16.18L39.79 16.16Q44.91 21.82 47.92 27.03L47.90 27.01L47.92 27.03Q50.91 21.45 55.29 16.43L55.31 16.45L55.33 16.47Q57.70 16.03 60.21 15.23L60.18 15.20L60.13 15.15Q54.06 21.22 49.19 29.63L49.24 29.68L49.27 29.72Q49.27 36.76 49.58 39.84ZM58.63 17.22L61.35 14.39L61.43 14.46Q58.25 15.54 55.12 16.00L55.14 16.02L55.10 15.98Q50.88 20.70 48.06 25.80L48.08 25.82L48.06 25.80Q46.01 22.22 42.81 18.34L42.75 18.29L42.87 18.40Q42.59 18.39 42.09 18.31L42.10 18.32L42.08 18.30Q41.36 17.46 39.83 15.79L39.77 15.72L39.80 15.75Q36.38 14.96 33.41 13.40L33.50 13.49L33.46 13.44Q41.12 21.87 45.88 29.79L46.03 29.94L46.05 29.95Q45.93 36.27 45.32 40.42L45.33 40.43L45.24 40.34Q46.06 40.40 47.51 40.29L47.39 40.17L47.44 41.25L47.48 41.28Q47.53 41.79 47.45 42.32L47.34 42.21L47.28 42.15Q50.98 42.31 52.73 42.50L52.67 42.44L52.76 42.54Q51.44 37.78 51.32 31.80L51.34 31.82L51.37 31.85Q55.72 23.37 62.27 16.03L62.17 15.92L58.69 17.28Z"/><path fill="#333" d="M23.65 29.85L23.66 29.86L23.79 29.98Q21.15 29.74 19.82 30.96L19.81 30.96L19.92 31.07Q18.45 32.15 18.76 34.66L18.73 34.64L18.86 34.77Q19.17 37.28 20.39 38.54L20.23 38.38L20.27 38.42Q21.49 39.91 23.62 39.83L23.53 39.74L23.57 39.78Q24.04 39.67 24.23 39.67L24.34 39.79L24.31 39.76Q27.89 39.19 28.01 34.58L28.03 34.61L27.92 34.50Q28.00 32.14 27.31 31.34L27.35 31.38L27.23 31.26Q26.19 29.98 23.63 29.83ZM27.06 41.67L27.10 41.71L27.04 41.65Q25.61 42.12 24.05 42.05L24.20 42.19L24.23 42.23Q20.26 42.29 18.97 39.71L18.98 39.72L19.11 39.85Q18.83 45.09 17.50 49.35L17.58 49.44L17.51 49.37Q15.82 49.96 14.18 50.68L14.06 50.55L14.14 50.64Q16.54 44.51 16.27 37.54L16.46 37.73L16.43 37.70Q16.05 30.73 13.15 24.68L13.25 24.78L13.16 24.69Q15.15 25.91 16.86 26.37L16.86 26.37L17.32 27.78L17.44 27.90Q17.41 28.10 17.68 29.20L17.81 29.34L17.75 29.27Q18.83 27.27 22.41 27.08L22.40 27.08L22.29 26.96Q23.29 27.05 24.16 27.05L24.13 27.01L24.53 26.92L24.58 26.97Q24.68 26.95 24.87 26.99L24.88 27.00L25.23 27.04L25.17 26.99Q27.29 27.32 28.02 27.55L28.11 27.64L28.01 27.54Q29.60 28.11 30.48 29.06L30.36 28.94L30.50 29.08Q31.26 30.19 31.23 31.60L31.22 31.59L31.27 31.65Q31.19 34.41 30.39 37.08L30.50 37.19L30.33 37.02Q29.43 40.65 27.07 41.68ZM31.27 42.23L31.20 42.12L31.20 42.11Q32.37 40.20 32.67 36.09L32.76 36.17L32.69 36.11Q32.82 34.33 32.82 33.07L32.84 33.09L32.76 33.02Q32.96 31.69 32.20 30.28L32.11 30.20L32.16 30.25Q31.59 29.64 31.09 29.26L31.13 29.30L31.00 29.05L30.89 28.83L30.89 28.71L30.85 28.67Q29.14 26.65 24.80 26.65L24.82 26.68L24.19 26.66L24.19 26.65Q19.52 26.63 17.88 28.23L17.89 28.23L17.81 28.16Q17.70 27.70 17.55 27.21L17.48 27.14L17.24 26.11L17.25 26.11Q14.75 25.47 12.54 23.99L12.60 24.05L12.49 23.94Q15.70 30.20 16.01 37.43L16.19 37.61L16.15 37.57Q16.32 44.71 13.46 51.18L13.47 51.19L15.58 50.44L15.48 50.34Q15.34 51.19 14.66 52.75L14.61 52.71L14.62 52.71Q17.25 51.58 19.57 51.24L19.69 51.35L19.56 51.22Q20.66 46.38 20.81 42.65L20.89 42.73L20.90 42.75Q22.19 44.11 25.81 44.34L25.96 44.49L25.96 44.49Q29.78 44.61 31.22 42.18L31.26 42.21ZM25.56 32.10L25.59 32.13L25.61 32.15Q26.31 32.13 27.42 32.47L27.46 32.51L27.33 32.38Q27.65 33.43 27.61 34.61L27.57 34.57L27.56 34.55Q27.50 35.41 27.31 36.05L27.42 36.17L27.38 36.13Q26.67 39.03 24.16 39.34L24.20 39.38L24.30 39.37L24.35 39.42Q24.15 39.30 24.04 39.33L24.11 39.40L23.56 39.38L23.49 39.31Q22.44 39.44 21.45 38.95L21.31 38.81L21.08 36.87L21.02 36.81Q20.98 34.60 22.27 33.57L22.25 33.54L22.27 33.57Q23.20 32.40 25.60 32.14Z"/></svg>