<svg xmlns="http://www.w3.org/2000/svg" width="150" height="50" viewBox="0,0,150,50"><path fill="#333" d="M120.61 19.65L120.58 19.62L120.53 19.57Q118.56 19.70 117.61 19.85L117.66 19.90L117.79 20.03Q115.99 20.09 114.77 20.62L114.86 20.71L114.75 20.60Q111.34 22.14 111.22 26.82L111.21 26.81L111.29 26.89Q111.22 29.56 111.87 32.49L111.73 32.36L111.79 32.41Q112.61 36.40 116.23 37.58L116.33 37.68L116.30 37.65Q118.15 38.16 119.59 38.01L119.63 38.05L119.96 37.92L120.07 38.03Q120.19 37.96 120.38 37.99L120.45 38.07L120.36 37.98Q120.62 38.08 120.77 38.05L120.81 38.08L120.72 38.00Q123.47 37.85 124.84 37.28L124.75 37.19L121.22 33.70L121.15 33.63Q121.43 33.26 122.04 32.65L122.06 32.67L123.13 31.91L122.98 31.77Q124.78 33.79 126.76 35.85L126.77 35.86L126.83 35.92Q129.08 34.02 129.34 28.65L129.48 28.79L129.49 28.79Q129.58 27.89 129.58 26.98L129.57 26.97L129.48 26.88Q129.43 21.16 124.37 20.06L124.40 20.09L124.50 20.19Q123.20 19.88 120.69 19.73ZM133.32 41.65L133.40 41.73L133.31 41.64Q132.79 42.14 131.61 43.02L131.64 43.05L127.25 39.39L127.15 39.29Q124.81 40.64 120.55 40.68L120.51 40.64L120.51 40.64Q113.86 40.66 111.05 38.41L111.04 38.40L111.20 38.56Q109.33 36.69 108.87 33.72L108.91 33.76L108.77 33.62Q108.68 31.93 108.30 28.35L108.39 28.45L108.23 28.29Q108.23 27.56 108.12 25.81L108.13 25.83L108.21 25.90Q107.96 24.24 107.99 23.36L108.07 23.44L108.04 23.41Q108.27 20.48 110.02 18.92L109.86 18.76L109.86 18.76Q111.49 17.54 114.69 17.04L114.66 17.01L114.65 17.01Q117.03 16.53 119.92 16.60L120.01 16.69L120.04 16.72Q127.50 16.80 130.62 19.16L130.55 19.08L130.56 19.10Q132.91 21.40 132.64 26.31L132.47 26.15L132.62 26.29Q132.43 29.95 132.24 31.28L132.17 31.21L132.08 31.12Q131.42 35.60 129.10 37.92L129.29 38.11L129.21 38.04Q130.73 39.33 133.47 41.80ZM128.55 17.47L128.53 17.44L128.57 17.48Q126.52 16.73 120.01 16.23L120.03 16.25L120.03 16.25Q118.73 16.37 115.96 16.48L115.81 16.33L115.79 16.31Q111.68 16.66 109.44 18.64L109.39 18.59L109.47 18.68Q107.70 20.03 107.70 23.19L107.79 23.28L107.72 23.21Q107.71 24.03 107.86 25.74L107.78 25.67L107.92 25.81Q107.93 27.38 107.93 28.25L108.04 28.36L108.07 28.39Q108.16 30.08 108.54 33.66L108.64 33.76L108.50 33.62Q108.83 36.46 110.42 38.51L110.59 38.68L110.52 38.61Q110.93 39.51 112.15 40.65L112.09 40.60L112.02 40.53Q114.73 42.52 119.91 42.78L119.95 42.82L119.91 42.78Q120.32 42.85 122.72 42.96L122.68 42.93L122.72 42.96Q127.45 43.05 129.73 41.98L129.76 42.01L129.75 42.00Q130.75 42.81 135.47 46.39L135.41 46.32L135.41 46.32Q135.92 45.69 137.21 44.70L137.40 44.89L137.34 44.83Q136.49 44.17 135.69 43.49L135.69 43.49L133.99 41.98L134.09 41.92L134.04 41.87Q133.48 41.43 132.27 40.40L132.26 40.40L132.35 40.49Q134.26 37.98 134.26 33.45L134.09 33.28L134.10 33.29Q134.14 32.92 134.18 32.08L134.30 32.20L134.15 32.05Q134.23 31.26 134.23 30.84L134.26 30.87L134.22 30.82Q134.26 25.35 133.54 22.99L133.52 22.97L133.49 22.93Q133.25 21.79 132.38 20.72L132.22 20.56L132.30 20.64Q131.46 18.47 128.53 17.45ZM122.52 22.02L122.50 22.00L122.44 21.94Q126.58 21.93 128.41 23.53L128.51 23.63L128.50 23.62Q129.10 24.86 129.21 26.19L129.14 26.13L129.17 26.16Q129.10 27.27 129.03 28.64L129.12 28.73L129.06 28.67Q128.82 33.72 126.88 35.44L126.79 35.34L126.87 35.43Q125.49 34.04 122.97 31.30L123.12 31.45L123.03 31.36Q122.21 32.06 120.65 33.62L120.65 33.63L120.58 33.55Q121.34 34.35 122.48 35.53L122.45 35.50L122.33 35.49L122.30 35.46Q122.80 35.93 123.83 37.00L123.98 37.14L123.85 37.01Q122.99 37.41 120.67 37.72L120.52 37.57L120.07 37.65L119.72 37.72L119.58 37.61L119.61 37.65Q116.11 37.61 114.13 35.98L114.12 35.97L114.13 35.97Q113.27 34.05 113.31 30.92L113.16 30.78L113.26 30.88Q113.33 22.08 122.50 22.00Z"/><path fill="#444" d="M23.39 40.24L23.28 40.13L23.43 40.28Q21.53 40.17 19.85 40.74L19.86 40.75L19.85 40.74Q20.23 36.97 20.34 33.85L20.36 33.87L20.48 33.99Q20.63 30.98 20.40 27.32L20.35 27.27L20.29 27.21Q18.98 26.92 18.21 26.54L18.17 26.50L17.76 23.46L17.68 23.38Q18.59 24.18 20.19 24.75L20.18 24.74L20.14 24.70Q19.94 22.60 19.52 19.86L19.42 19.76L19.42 19.75Q21.82 20.55 23.46 20.40L23.48 20.42L23.27 24.94L23.31 24.98Q24.67 24.85 26.00 24.35L26.05 24.40L26.08 24.44Q25.99 25.30 25.76 27.05L25.74 27.02L25.75 27.03Q24.16 27.31 23.13 27.31L23.21 27.38L23.18 27.36Q23.22 29.57 23.22 33.83L23.21 33.82L23.24 33.85Q23.35 38.12 23.43 40.29ZM26.54 23.90L26.43 23.80L26.42 23.79Q26.25 23.99 25.64 24.22L25.54 24.13L25.97 21.39L26.03 21.45Q25.16 21.68 23.75 21.91L23.71 21.87L23.70 21.87Q23.71 21.18 23.86 19.81L24.00 19.96L23.82 19.78Q23.24 19.88 22.67 19.88L22.82 20.03L22.72 19.93Q20.53 19.87 18.89 19.15L18.96 19.21L18.90 19.16Q19.53 21.77 19.80 24.24L19.72 24.17L19.75 24.20Q18.89 23.86 17.36 22.84L17.33 22.80L17.36 22.84Q17.70 24.12 17.93 26.83L17.90 26.79L17.86 26.76Q18.42 27.10 19.61 27.51L19.44 27.34L19.45 27.36Q19.57 28.09 19.61 29.50L19.66 29.55L19.90 29.44L20.09 29.56L20.07 29.54Q20.22 30.87 20.22 32.05L20.11 31.94L20.10 31.93Q20.11 36.89 19.31 41.23L19.41 41.33L19.30 41.22Q19.59 41.21 21.54 40.67L21.49 40.63L21.40 40.54Q21.49 41.28 21.38 42.65L21.31 42.58L21.35 42.63Q22.23 42.63 23.03 42.63L22.94 42.53L23.04 42.64Q24.70 42.58 26.33 43.15L26.32 43.14L26.32 43.13Q25.03 37.47 25.22 29.55L25.14 29.47L27.52 29.07L27.60 29.15Q27.70 28.27 27.78 27.24L27.79 27.25L28.04 25.29L27.96 25.21Q27.39 25.48 26.21 25.94L26.19 25.91L26.16 25.88Q26.55 24.64 26.47 24.29L26.36 24.18L26.36 24.18Q26.32 23.95 26.40 23.76Z"/><path fill="#444" d="M55.03 40.37L55.05 40.39L55.14 40.47Q52.14 36.56 49.51 27.92L49.51 27.91L49.45 27.86Q48.74 25.66 47.94 23.53L48.06 23.65L45.18 32.42L45.11 32.35Q43.37 37.35 40.97 40.58L40.87 40.48L40.92 40.53Q40.05 40.58 38.41 40.73L38.39 40.71L38.33 40.64Q38.49 39.51 38.49 38.26L38.44 38.20L38.58 38.34Q38.53 32.28 35.79 26.15L35.70 26.06L35.80 26.16Q32.69 19.28 26.83 14.30L26.72 14.19L26.81 14.28Q28.99 15.02 31.35 15.55L31.20 15.39L31.31 15.50Q40.01 23.97 41.30 34.94L41.25 34.89L41.34 34.98Q42.97 31.65 44.41 26.28L44.44 26.32L44.34 26.21Q46.32 18.72 46.82 17.31L46.81 17.30L49.16 17.40L49.07 17.32Q49.78 19.36 50.43 21.68L50.49 21.74L51.61 26.06L51.58 26.03Q53.31 31.64 54.71 34.87L54.72 34.88L54.64 34.79Q56.24 23.11 64.16 15.76L64.27 15.87L64.14 15.74Q65.72 15.46 68.69 14.82L68.61 14.74L68.69 14.82Q63.30 19.06 60.25 25.19L60.42 25.35L60.40 25.33Q57.22 31.48 57.22 38.26L57.25 38.28L57.29 38.33Q57.29 39.43 57.36 40.57L57.24 40.44L56.11 40.34L56.14 40.37Q55.66 40.43 55.09 40.43ZM61.34 43.32L61.24 43.23L61.20 43.18Q60.05 39.71 60.16 35.83L60.05 35.72L60.20 35.87Q60.42 24.21 69.78 15.95L69.79 15.96L69.92 16.09Q68.90 16.25 66.96 16.78L66.97 16.78L67.04 16.86Q67.88 15.91 69.78 14.12L69.79 14.13L69.91 14.25Q67.21 14.97 64.28 15.46L64.30 15.49L64.23 15.42Q56.73 22.54 54.83 32.02L54.73 31.92L54.86 32.05Q54.24 30.36 51.38 18.90L51.42 18.94L51.35 18.87Q51.00 19.01 50.05 19.01L50.01 18.98L49.77 17.97L49.62 17.82Q49.57 17.35 49.34 16.86L49.28 16.80L46.56 16.98L46.52 16.93Q45.74 19.43 44.46 24.55L44.41 24.50L44.37 24.45Q43.18 29.66 42.19 32.14L42.02 31.96L42.18 32.12Q40.52 24.14 34.96 17.82L34.95 17.82L34.94 17.81Q34.47 17.75 33.52 17.56L33.59 17.64L33.62 17.67Q32.89 16.82 31.33 15.18L31.27 15.12L31.29 15.14Q27.92 14.36 25.75 13.56L25.75 13.56L25.62 13.43Q31.43 18.25 34.70 24.45L34.57 24.32L34.73 24.49Q38.10 31.01 38.10 38.02L38.16 38.08L38.04 37.95Q38.06 39.54 37.87 41.14L37.91 41.18L37.85 41.12Q38.07 41.11 38.53 41.02L38.54 41.03L38.56 41.04Q39.04 40.97 39.27 40.97L39.23 40.94L39.22 41.96L39.27 42.01Q39.26 42.45 39.33 42.98L39.28 42.93L39.38 43.02Q40.53 42.96 42.82 42.81L42.74 42.74L42.70 42.69Q46.44 37.41 49.19 28.01L49.21 28.03L49.24 28.06Q51.99 36.84 54.96 40.79L54.92 40.75L54.94 40.77Q55.36 40.73 56.19 40.84L56.23 40.88L56.28 40.93Q57.06 41.90 58.13 42.97L58.14 42.98L58.21 43.05Q58.80 42.92 61.20 43.18Z"/><path fill="#111" d="M98.90 39.83L98.85 39.78L96.91 39.78L97.06 39.94Q96.02 39.84 95.07 39.96L95.12 40.01L95.03 39.92Q95.71 33.82 95.71 29.82L95.66 29.78L95.60 29.71Q91.77 23.19 84.12 14.51L83.96 14.35L83.99 14.38Q85.78 15.37 89.13 16.17L89.25 16.29L89.21 16.25Q94.19 21.76 97.19 26.97L97.15 26.93L97.27 27.04Q100.33 21.54 104.71 16.52L104.62 16.42L104.69 16.49Q107.04 16.04 109.56 15.24L109.57 15.25L109.61 15.29Q103.45 21.27 98.57 29.68L98.57 29.68L98.61 29.72Q98.69 36.84 98.99 39.92ZM107.97 17.23L110.78 14.48L110.65 14.35Q107.71 15.68 104.59 16.13L104.46 16.00L104.53 16.08Q100.33 20.82 97.51 25.92L97.57 25.97L97.48 25.88Q95.25 22.13 92.05 18.25L92.11 18.31L92.14 18.34Q91.86 18.33 91.37 18.25L91.46 18.35L91.40 18.29Q90.63 17.40 89.10 15.72L89.26 15.88L89.21 15.83Q85.75 14.99 82.78 13.43L82.78 13.44L82.80 13.45Q90.54 21.96 95.30 29.88L95.32 29.89L95.30 29.87Q95.10 36.11 94.50 40.26L94.58 40.35L94.66 40.43Q95.32 40.33 96.77 40.22L96.86 40.31L96.71 41.18L96.76 41.23Q96.86 41.79 96.78 42.32L96.75 42.29L96.61 42.15Q100.29 42.29 102.04 42.48L101.96 42.40L102.03 42.47Q100.66 37.67 100.54 31.69L100.66 31.81L100.59 31.73Q105.04 23.36 111.59 16.02L111.61 16.03L107.93 17.19Z"/><path fill="#222" d="M64.38 41.10L64.34 41.06L64.32 41.04Q67.62 36.91 74.32 29.00L74.19 28.86L74.21 28.88Q68.27 29.07 64.50 27.70L64.54 27.74L64.49 27.69Q63.91 26.35 63.14 24.94L63.12 24.91L63.12 24.91Q67.29 26.49 71.75 26.53L71.77 26.56L71.63 26.42Q76.23 26.60 80.41 25.53L80.30 25.42L80.26 25.38Q79.91 26.10 79.65 26.63L79.56 26.55L79.64 26.62Q77.16 28.90 74.34 32.52L74.27 32.45L69.39 38.69L69.50 38.79Q71.59 38.45 73.84 38.52L73.82 38.51L73.90 38.59Q76.17 38.72 78.41 39.10L78.25 38.94L78.25 38.94Q78.41 39.56 79.13 41.57L79.27 41.71L79.25 41.69Q75.53 40.87 71.54 40.98L71.38 40.83L71.37 40.81Q67.47 40.99 63.81 42.17L63.84 42.19L63.77 42.12Q63.84 41.96 64.30 41.01ZM63.24 42.77L63.25 42.78L63.35 42.88Q64.09 42.52 65.69 42.10L65.78 42.19L65.74 42.15Q65.45 42.32 65.03 42.74L65.05 42.75L65.09 42.80Q64.81 43.31 64.20 44.45L64.15 44.41L64.21 44.47Q68.95 43.15 73.94 43.31L73.86 43.23L73.92 43.28Q78.73 43.30 83.30 45.16L83.30 45.17L83.47 45.34Q81.86 43.31 80.95 41.26L81.05 41.36L81.09 41.40Q80.17 40.94 79.11 40.71L79.24 40.84L79.28 40.88Q79.05 40.12 78.67 38.68L78.62 38.62L78.55 38.56Q77.11 38.34 73.54 38.22L73.48 38.16L73.52 38.20Q75.79 34.77 80.82 28.41L80.91 28.51L80.81 28.40Q81.23 27.83 81.91 26.50L81.80 26.39L79.58 27.21L79.62 27.25Q79.74 27.22 79.89 27.11L79.81 27.03L80.06 26.90L79.90 26.73Q80.39 25.70 80.96 24.75L80.99 24.77L80.97 24.75Q76.31 26.11 71.59 26.04L71.56 26.00L71.62 26.07Q66.89 26.05 62.39 24.22L62.41 24.24L62.28 24.11Q63.57 26.09 64.37 28.14L64.42 28.19L64.39 28.16Q65.22 28.46 66.29 28.73L66.27 28.71L66.20 28.64Q66.44 29.38 66.75 30.82L66.68 30.76L66.71 30.79Q68.42 31.16 71.73 31.31L71.71 31.29L71.59 31.18Q69.23 34.52 64.05 40.96L64.01 40.91L64.17 41.08Q63.93 41.68 63.36 42.90Z"/></svg>