<svg xmlns="http://www.w3.org/2000/svg" width="150" height="50" viewBox="0,0,150,50"><path fill="#222" d="M122.13 40.21L122.13 40.20L119.90 40.26L119.90 40.26Q119.50 40.32 118.53 40.37L118.45 40.29L118.59 40.43Q117.64 40.51 117.15 40.51L116.95 40.32L117.11 40.47Q115.48 40.48 114.45 39.64L114.33 39.52L114.41 39.60Q115.24 38.53 116.88 36.40L116.80 36.33L116.80 36.32Q118.12 37.94 120.32 37.71L120.25 37.64L120.31 37.70Q121.30 37.66 121.94 37.01L121.81 36.88L121.86 36.93Q122.48 36.26 122.37 35.38L122.41 35.43L122.38 35.39Q122.18 30.69 122.25 26.13L122.41 26.28L122.40 26.28Q122.41 21.64 122.94 17.03L122.84 16.93L122.98 17.07Q124.77 16.73 126.91 15.71L126.92 15.72L126.94 15.74Q125.18 22.59 125.18 29.82L125.05 29.69L125.05 29.68Q125.22 33.40 125.68 36.90L125.49 36.72L125.56 36.79Q125.71 37.20 125.71 37.54L125.60 37.43L125.61 37.44Q125.56 37.96 125.33 38.49L125.50 38.66L125.33 38.49Q124.77 39.76 121.96 40.03ZM126.94 42.92L127.08 43.06L127.27 42.91L127.60 42.82L127.93 42.77L127.93 42.77Q128.23 42.50 128.31 42.39L128.30 42.38L128.18 42.26Q128.35 41.05 128.08 40.06L128.27 40.25L128.13 40.12Q126.88 34.41 127.14 28.05L127.05 27.95L127.16 28.07Q127.42 21.97 129.21 16.06L129.20 16.05L129.17 16.02Q128.24 16.63 126.99 17.35L126.97 17.33L127.08 17.44Q127.16 16.56 127.57 15.04L127.64 15.10L127.65 15.11Q125.08 16.39 122.41 16.69L122.37 16.65L122.47 16.75Q122.12 21.16 122.05 26.11L122.08 26.15L121.91 25.98Q121.92 31.96 121.99 35.39L121.91 35.30L122.09 35.48Q122.02 37.12 120.27 37.28L120.20 37.21L120.37 37.38Q118.52 37.36 116.85 35.72L117.00 35.87L116.92 35.79Q114.84 38.28 113.89 39.84L113.86 39.81L113.91 39.87Q114.53 40.49 115.56 40.71L115.52 40.68L115.61 40.77Q115.41 40.80 115.14 41.02L115.24 41.12L115.31 41.19Q116.68 42.06 118.66 42.33L118.55 42.23L118.59 42.26Q119.08 42.41 122.37 42.71L122.25 42.59L122.31 42.65Q125.67 43.02 127.04 43.02Z"/><path fill="#444" d="M101.44 40.87L101.46 40.89L101.53 40.96Q100.25 39.30 98.96 36.22L98.80 36.06L96.89 31.14L96.85 31.10Q95.26 35.11 94.65 36.41L94.58 36.33L94.52 36.27Q93.11 39.24 91.51 41.14L91.49 41.13L91.48 41.11Q91.26 41.27 90.50 41.39L90.38 41.26L90.42 41.31Q90.41 33.88 84.59 27.94L84.56 27.92L84.55 27.90Q82.76 26.04 80.74 24.55L80.79 24.60L80.77 24.57Q82.62 25.13 84.48 25.43L84.47 25.42L84.45 25.40Q90.55 30.40 92.00 36.64L92.00 36.65L92.08 36.73Q92.87 34.78 94.05 31.58L94.11 31.64L94.08 31.61Q95.48 27.91 96.05 26.61L96.07 26.63L97.35 26.51L97.36 26.51Q98.23 28.22 99.41 31.49L99.44 31.52L99.52 31.60Q100.71 35.11 101.36 36.52L101.43 36.60L101.40 36.56Q103.20 30.25 108.68 25.69L108.83 25.84L108.72 25.73Q110.05 25.76 112.79 25.19L112.79 25.19L112.62 25.02Q104.11 31.16 102.93 41.14L102.81 41.02L102.11 40.86L102.26 41.01Q101.91 40.95 101.56 40.99ZM104.58 43.48L106.53 43.56L106.49 43.52Q106.22 42.03 106.22 40.51L106.20 40.49L106.27 40.56Q106.32 37.38 107.73 34.14L107.71 34.12L107.74 34.15Q109.73 29.63 113.84 26.54L113.79 26.50L113.80 26.50Q112.51 26.70 110.65 27.04L110.58 26.98L110.61 27.01Q112.58 25.36 113.88 24.45L113.88 24.46L111.49 25.03L111.50 25.04Q110.25 25.24 108.92 25.39L108.85 25.32L108.96 25.43Q103.66 29.53 101.71 34.56L101.72 34.56L101.67 34.52Q101.09 32.41 99.72 28.14L99.75 28.17L99.69 28.12Q99.48 28.25 99.21 28.25L99.14 28.18L98.64 28.21L98.61 28.17Q98.60 27.98 97.80 26.23L97.68 26.11L95.58 26.06L95.64 26.12Q94.63 28.88 92.54 34.52L92.59 34.57L92.69 34.67Q91.24 30.86 88.16 27.59L88.14 27.57L88.23 27.66Q87.96 27.66 87.66 27.62L87.63 27.59L87.14 27.56L87.06 27.48Q86.30 26.75 84.51 25.15L84.47 25.12L84.40 25.04Q81.33 24.49 79.66 24.00L79.57 23.91L79.62 23.96Q90.31 31.38 89.93 41.70L89.98 41.74L89.95 41.72Q90.21 41.78 90.57 41.74L90.47 41.65L90.55 41.72Q90.88 41.65 91.07 41.65L90.98 41.56L91.06 41.65Q91.12 41.56 91.31 43.65L91.26 43.60L93.16 43.41L93.26 43.50Q95.84 40.68 98.09 34.93L98.04 34.88L98.03 34.87Q99.60 38.80 101.47 41.47L101.28 41.28L101.35 41.35Q101.74 41.40 102.01 41.42L101.98 41.39L101.89 41.30Q102.18 41.35 102.45 41.35L102.54 41.44L104.50 43.40Z"/><path fill="#222" d="M55.23 23.23L55.27 23.27L55.28 23.28Q53.61 19.24 47.40 19.43L47.30 19.33L47.39 19.42Q43.05 19.61 41.07 21.06L41.03 21.02L41.07 21.06Q38.54 22.68 38.54 26.79L38.60 26.85L38.64 28.75L38.48 28.60Q38.61 37.56 47.63 37.56L47.52 37.45L47.62 37.54Q49.61 37.48 51.10 36.68L51.20 36.79L51.09 36.68Q52.99 35.71 52.83 33.85L52.86 33.88L52.87 33.88Q52.60 31.72 48.91 30.80L48.92 30.81L47.07 30.90L47.09 30.92Q46.03 30.81 45.08 30.85L45.12 30.89L45.16 30.94Q45.12 29.94 45.08 28.04L45.06 28.02L44.96 27.92Q52.76 28.07 56.95 27.73L56.87 27.65L56.83 27.60Q56.81 28.46 56.81 29.26L56.85 29.30L56.77 29.22Q56.76 30.01 56.80 30.81L56.88 30.89L56.83 30.84Q55.79 30.90 55.79 30.90L55.74 30.86L55.83 30.95Q54.38 30.86 54.76 30.86L54.81 30.92L54.68 30.78Q55.93 32.57 56.31 34.55L56.27 34.50L56.23 34.47Q56.27 35.12 56.27 35.58L56.34 35.64L56.43 35.73Q56.35 40.30 47.56 40.30L47.50 40.24L47.59 40.34Q40.47 40.33 37.88 38.24L37.84 38.19L37.85 38.21Q35.89 35.87 35.89 30.80L35.97 30.88L35.93 30.84Q35.81 29.65 35.66 26.95L35.66 26.96L35.62 26.92Q35.48 24.57 35.52 23.20L35.67 23.35L35.62 23.30Q35.64 20.35 37.01 18.75L37.14 18.88L37.17 18.91Q39.59 16.73 44.47 16.53L44.42 16.49L47.12 16.45L47.18 16.51Q50.25 16.38 53.68 16.80L53.67 16.79L53.67 16.79Q57.47 17.32 58.42 20.56L58.32 20.45L58.36 20.49Q57.42 21.50 55.33 23.33ZM56.65 25.44L56.72 25.40L56.73 25.41Q58.05 24.45 59.92 22.47L59.84 22.39L59.79 22.35Q59.50 21.40 58.51 19.69L58.49 19.67L58.53 19.71Q57.34 17.04 53.54 16.39L53.57 16.42L53.64 16.50Q51.39 16.26 47.09 15.96L47.12 16.00L44.53 16.22L44.48 16.17Q39.38 16.44 36.79 18.42L36.76 18.39L36.71 18.34Q35.34 19.98 35.23 23.06L35.28 23.11L35.22 23.05Q35.36 22.74 35.59 28.22L35.57 28.20L35.43 28.06Q35.52 29.48 35.60 32.22L35.61 32.23L35.52 32.15Q35.81 36.70 37.56 38.64L37.45 38.53L37.55 38.63Q37.82 39.35 38.69 40.23L38.82 40.36L38.74 40.27Q41.65 42.16 47.17 42.50L47.21 42.54L49.99 42.61L50.16 42.79Q51.71 42.86 53.73 42.74L53.66 42.67L53.74 42.75Q55.04 42.53 57.14 42.00L57.21 42.07L57.16 42.02Q59.23 41.65 59.19 39.33L59.17 39.31L59.09 39.23Q59.06 37.94 57.99 35.16L58.11 35.28L58.17 35.34Q57.71 34.27 57.17 33.47L57.17 33.47L57.20 33.50Q57.91 33.63 59.09 33.82L58.94 33.68L59.11 33.84Q58.69 30.11 58.72 29.42L58.71 29.41L58.73 29.43Q58.35 29.43 57.93 29.39L58.00 29.46L57.96 29.42Q57.50 29.30 57.11 29.37L57.18 29.44L57.22 29.48Q57.13 28.29 57.21 27.22L57.32 27.33L57.28 27.30Q51.05 27.84 44.77 27.73L44.64 27.59L44.69 27.65Q44.72 28.56 44.72 29.47L44.69 29.43L44.76 31.26L44.72 31.22Q45.16 31.27 45.58 31.24L45.57 31.23L45.64 31.30Q45.93 31.17 46.38 31.17L46.50 31.28L46.32 31.11Q46.33 31.57 46.37 32.07L46.37 32.07L46.49 32.18Q46.42 32.57 46.38 33.07L46.39 33.07L46.42 33.11Q47.51 33.13 48.54 33.09L48.51 33.06L48.54 33.09Q49.59 33.12 50.62 33.15L50.50 33.04L50.58 33.12Q51.58 33.32 52.46 33.70L52.53 33.77L52.46 33.74L52.46 33.74Q52.71 35.36 51.04 36.28L51.03 36.28L50.93 36.17Q49.33 37.16 47.62 37.16L47.69 37.23L47.59 37.13Q43.66 37.04 41.22 35.29L41.38 35.46L41.37 35.44Q40.33 33.34 40.49 30.79L40.54 30.85L40.52 30.82Q40.90 26.10 42.75 24.10L42.76 24.11L42.67 24.03Q44.46 21.97 49.14 21.66L49.26 21.79L49.22 21.75Q52.89 21.53 54.83 23.32L54.75 23.24L54.76 23.25Q54.81 23.33 54.92 23.52L54.98 23.59L55.10 23.59L55.01 23.50Q55.69 24.29 56.26 25.40L56.29 25.43L56.69 25.49Z"/><path fill="#111" d="M71.08 29.18L70.97 29.07L71.11 29.21Q69.17 28.98 67.93 30.41L68.02 30.50L67.96 30.43Q66.77 31.91 66.58 33.82L66.45 33.69L66.48 33.72Q66.34 35.86 67.42 36.83L67.40 36.81L67.28 36.69Q68.43 37.72 70.52 37.60L70.51 37.59L70.53 37.61Q72.63 37.47 73.73 36.78L73.74 36.79L73.71 36.76Q74.89 35.69 74.89 34.13L74.84 34.09L74.93 34.17Q74.81 33.67 74.74 33.29L74.86 33.41L74.86 33.42Q74.86 31.67 73.76 30.32L73.73 30.29L73.80 30.36Q72.72 29.03 71.05 29.15ZM70.50 40.13L70.50 40.13L70.68 40.31Q66.23 40.24 64.82 39.48L64.83 39.49L64.78 39.44Q63.81 38.73 63.62 37.02L63.61 37.01L63.51 36.91Q63.55 36.31 63.59 35.58L63.58 35.57L63.56 35.56Q63.73 34.62 63.73 34.16L63.72 34.16L63.65 34.09Q64.13 31.25 64.28 30.57L64.23 30.51L64.33 30.61Q64.86 28.75 65.70 27.34L65.57 27.21L65.51 27.15Q68.25 22.85 74.19 16.49L74.12 16.42L74.11 16.41Q76.79 16.12 79.00 15.32L79.14 15.46L79.05 15.38Q72.29 22.93 69.09 27.16L69.10 27.17L68.95 27.02Q69.99 26.57 71.28 26.57L71.30 26.58L71.33 26.62Q74.72 26.69 76.24 28.63L76.18 28.56L76.20 28.59Q77.54 30.23 77.88 33.77L77.74 33.63L77.92 33.81Q77.90 34.44 77.90 35.05L78.00 35.15L77.96 35.11Q77.83 38.10 75.62 39.17L75.69 39.23L75.72 39.26Q74.53 39.90 70.65 40.29ZM72.98 42.73L72.80 42.55L72.92 42.67Q74.14 42.55 76.12 42.63L76.22 42.73L76.22 42.73Q77.73 42.68 79.29 41.96L79.38 42.05L79.28 41.95Q80.48 41.25 80.48 39.46L80.35 39.33L80.54 39.51Q80.36 38.84 80.19 37.85L80.21 37.87L80.33 37.99Q80.07 36.91 80.07 36.46L80.05 36.44L80.02 36.41Q79.19 31.74 77.59 29.83L77.58 29.82L77.55 29.79Q77.56 29.76 77.41 29.53L77.35 29.47L77.05 29.25L76.93 29.17L77.04 29.28Q76.76 28.84 76.15 27.89L76.00 27.75L75.99 27.73Q75.23 26.93 73.25 26.48L73.13 26.35L73.09 26.32Q74.32 24.73 77.29 21.04L77.42 21.17L81.67 15.90L81.52 15.75Q80.04 16.71 77.64 17.47L77.61 17.44L77.59 17.42Q78.64 16.56 80.43 14.58L80.29 14.44L80.43 14.58Q77.88 15.50 74.00 16.07L74.09 16.16L74.11 16.19Q68.36 22.05 65.39 27.00L65.41 27.01L65.39 26.99Q63.87 29.51 63.30 35.75L63.37 35.82L63.25 35.70Q63.13 36.23 63.21 37.18L63.38 37.35L63.24 37.21Q63.32 38.97 64.42 39.88L64.46 39.92L64.42 39.88Q64.78 40.01 64.74 40.05L64.71 40.02L64.83 40.14Q65.25 41.09 66.05 41.51L65.94 41.40L65.94 41.40Q67.44 42.14 69.39 42.33L69.34 42.29L69.46 42.41Q69.30 42.24 72.80 42.55ZM72.70 31.44L72.64 31.38L72.64 31.39Q73.16 31.22 74.11 31.72L74.14 31.75L74.10 31.71Q74.47 32.69 74.47 33.33L74.54 33.40L74.46 33.32Q74.73 35.27 73.78 36.26L73.67 36.15L73.80 36.27Q72.72 36.99 70.62 37.29L70.66 37.33L70.68 37.35Q69.14 37.26 68.61 36.99L68.58 36.96L68.57 36.94Q68.38 36.49 68.38 36.19L68.50 36.31L68.51 36.32Q68.14 32.90 71.07 31.61L71.06 31.59L71.08 31.61Q71.86 31.29 72.62 31.36Z"/><path fill="#222" d="M22.59 41.36L22.56 41.34L22.52 41.30Q19.75 41.57 18.49 41.04L18.41 40.96L18.37 40.92Q16.40 40.09 16.48 37.62L16.55 37.69L16.52 37.66Q16.78 34.38 16.78 34.95L16.82 34.99L16.66 34.83Q16.64 29.48 13.78 24.64L13.81 24.67L13.88 24.74Q15.90 25.73 17.88 26.12L17.77 26.00L17.84 26.08Q19.46 30.58 19.34 35.07L19.42 35.15L19.38 35.11Q19.30 36.67 20.13 37.88L20.05 37.80L20.14 37.89Q21.01 39.18 22.53 38.99L22.59 39.05L22.97 38.93L22.92 38.88Q24.34 38.89 25.16 38.13L25.17 38.14L25.04 38.02Q25.97 37.36 25.97 36.41L25.89 36.33L25.90 36.34Q25.94 36.15 25.90 35.96L25.89 35.95L25.87 35.93Q25.76 30.65 26.90 26.31L26.99 26.39L26.97 26.37Q27.96 26.26 28.95 26.03L28.91 25.99L31.02 25.59L30.95 25.51Q28.36 30.51 28.67 36.06L28.71 36.10L28.71 36.10Q28.90 39.19 27.19 40.33L27.16 40.31L27.24 40.38Q25.89 41.20 22.58 41.35ZM24.82 43.68L24.98 43.84L24.99 43.84Q28.45 44.00 30.28 43.23L30.25 43.21L30.12 43.07Q31.08 42.36 31.08 40.95L31.03 40.90L31.09 40.96Q31.21 40.16 30.94 38.60L30.91 38.57L30.81 38.47Q30.42 35.41 30.80 32.41L30.68 32.29L30.74 32.34Q31.20 29.27 32.61 26.53L32.47 26.39L32.47 26.39Q31.87 26.74 30.54 27.16L30.66 27.29L30.67 27.29Q30.72 26.50 31.02 25.93L31.13 26.04L31.71 24.91L31.78 24.97Q29.68 25.46 26.52 25.96L26.56 26.00L26.68 26.12Q25.34 30.80 25.49 35.90L25.55 35.95L25.43 35.83Q25.51 37.93 22.85 38.43L22.84 38.42L22.53 38.57L22.40 38.59L21.41 38.40L21.57 38.55Q21.29 37.48 21.33 36.98L21.51 37.17L21.50 37.15Q21.50 32.44 20.82 28.02L20.83 28.03L19.84 27.95L19.90 28.02Q19.31 27.92 18.77 27.81L18.89 27.92L18.82 27.86Q18.39 26.39 18.12 25.63L18.19 25.70L18.13 25.64Q15.38 25.25 13.13 23.95L13.10 23.92L13.10 23.92Q15.37 27.56 16.09 30.95L15.93 30.79L16.01 30.86Q16.43 33.00 16.28 36.51L16.38 36.61L16.45 36.67Q16.40 36.73 16.32 37.84L16.23 37.75L16.34 37.86Q16.20 40.24 17.58 41.19L17.45 41.06L17.58 41.19Q17.97 43.45 24.98 43.83Z"/></svg>