<svg xmlns="http://www.w3.org/2000/svg" width="150" height="50" viewBox="0,0,150,50"><path fill="#222" d="M71.20 19.58L71.39 19.76L71.21 19.58Q69.24 19.70 68.29 19.86L68.42 19.99L68.35 19.92Q66.79 20.22 65.57 20.76L65.44 20.62L65.54 20.73Q61.98 22.11 61.86 26.80L61.86 26.79L61.90 26.83Q61.84 29.51 62.48 32.44L62.38 32.34L62.56 32.52Q63.28 36.40 66.90 37.58L66.97 37.65L67.05 37.73Q68.92 38.27 70.37 38.12L70.30 38.05L70.81 38.10L70.79 38.09Q70.89 37.99 71.08 38.03L71.17 38.13L71.13 38.08Q71.34 38.14 71.49 38.10L71.35 37.96L71.33 37.94Q73.97 37.68 75.34 37.11L75.35 37.12L71.82 33.63L71.82 33.63Q72.16 33.32 72.77 32.71L72.73 32.67L73.69 31.80L73.78 31.90Q75.59 33.94 77.57 35.99L77.57 35.99L77.58 36.01Q79.86 34.14 80.13 28.77L80.12 28.76L80.03 28.67Q80.09 27.74 80.09 26.83L80.14 26.87L80.15 26.88Q80.08 21.15 75.02 20.04L75.07 20.09L75.20 20.23Q73.72 19.73 71.21 19.58ZM84.12 41.78L84.02 41.68L83.99 41.65Q83.40 42.09 82.22 42.96L82.33 43.08L77.91 39.38L77.82 39.29Q75.35 40.51 71.09 40.55L71.23 40.70L71.18 40.65Q64.61 40.73 61.79 38.49L61.77 38.47L61.84 38.54Q60.03 36.72 59.57 33.76L59.60 33.79L59.51 33.69Q59.42 32.00 59.04 28.42L58.91 28.30L59.04 28.43Q58.99 27.65 58.87 25.90L58.88 25.90L58.85 25.87Q58.76 24.38 58.80 23.50L58.76 23.47L58.80 23.51Q58.93 20.47 60.68 18.91L60.60 18.83L60.56 18.79Q62.16 17.53 65.35 17.04L65.22 16.91L65.35 17.04Q67.88 16.71 70.77 16.79L70.62 16.63L70.77 16.79Q78.16 16.78 81.28 19.14L81.35 19.21L81.32 19.18Q83.46 21.28 83.19 26.20L83.13 26.14L83.23 26.24Q82.93 29.78 82.74 31.11L82.86 31.24L82.80 31.17Q82.09 35.60 79.77 37.93L79.81 37.97L79.86 38.02Q81.27 39.20 84.01 41.67ZM79.15 17.40L79.26 17.50L79.18 17.43Q77.11 16.65 70.60 16.15L70.61 16.17L70.66 16.22Q69.33 16.29 66.55 16.40L66.55 16.41L66.57 16.43Q62.28 16.59 60.04 18.57L60.02 18.56L60.00 18.54Q58.41 20.07 58.41 23.23L58.37 23.19L58.44 23.26Q58.38 24.03 58.53 25.75L58.46 25.68L58.60 25.82Q58.74 27.52 58.74 28.40L58.63 28.28L58.64 28.29Q58.93 30.18 59.31 33.76L59.15 33.61L59.28 33.73Q59.58 36.55 61.18 38.60L61.25 38.67L61.09 38.51Q61.61 39.52 62.82 40.66L62.70 40.54L62.77 40.61Q65.45 42.57 70.63 42.83L70.62 42.82L70.73 42.94Q70.96 42.82 73.36 42.93L73.43 43.01L73.31 42.89Q78.15 43.08 80.43 42.02L80.57 42.15L80.38 41.96Q81.38 42.77 86.10 46.35L86.04 46.29L86.10 46.35Q86.64 45.74 87.93 44.75L87.87 44.70L88.05 44.87Q87.00 44.02 86.20 43.33L86.20 43.33L84.61 41.93L84.74 41.91L84.81 41.98Q84.25 41.53 83.03 40.50L83.04 40.51L82.96 40.44Q84.76 37.82 84.76 33.29L84.94 33.47L84.86 33.39Q84.90 33.00 84.93 32.17L84.90 32.13L84.94 32.17Q84.85 31.20 84.85 30.79L84.88 30.81L84.83 30.77Q84.97 25.38 84.24 23.02L84.16 22.94L84.30 23.08Q83.84 21.71 82.97 20.64L83.03 20.71L82.85 20.52Q82.08 18.42 79.15 17.40ZM73.13 21.96L73.27 22.10L73.27 22.10Q77.28 21.96 79.11 23.56L79.09 23.54L79.11 23.56Q79.73 24.83 79.85 26.16L79.79 26.10L79.72 26.03Q79.89 27.38 79.81 28.75L79.82 28.76L79.71 28.65Q79.46 33.69 77.51 35.41L77.42 35.31L77.40 35.30Q76.29 34.18 73.78 31.44L73.74 31.40L73.79 31.45Q72.99 32.18 71.43 33.74L71.35 33.66L71.30 33.60Q71.81 34.16 72.96 35.34L73.02 35.40L73.04 35.54L72.88 35.38Q73.64 36.10 74.67 37.17L74.65 37.15L74.58 37.08Q73.50 37.26 71.18 37.56L71.23 37.61L70.73 37.64L70.39 37.72L70.35 37.72L70.31 37.68Q66.86 37.70 64.88 36.06L64.83 36.01L64.82 36.00Q63.83 33.94 63.87 30.82L63.97 30.92L63.91 30.86Q64.09 22.17 73.26 22.09Z"/><path fill="#444" d="M46.39 29.15L46.25 29.01L46.25 29.02Q44.51 28.99 43.28 30.42L43.30 30.44L43.29 30.43Q42.04 31.85 41.85 33.75L41.83 33.73L41.86 33.77Q41.71 35.90 42.80 36.87L42.77 36.85L42.77 36.85Q43.75 37.71 45.84 37.59L45.82 37.57L45.85 37.60Q48.01 37.51 49.11 36.83L49.04 36.76L49.18 36.90Q50.22 35.69 50.22 34.13L50.20 34.11L50.15 34.06Q50.14 33.67 50.06 33.29L50.16 33.38L50.06 33.29Q50.16 31.63 49.05 30.28L49.15 30.37L49.10 30.32Q48.08 29.05 46.40 29.17ZM45.95 40.25L46.02 40.32L45.97 40.27Q41.62 40.30 40.21 39.54L40.09 39.42L40.15 39.47Q39.02 38.61 38.83 36.90L38.90 36.97L38.92 36.99Q38.90 36.33 38.94 35.60L38.89 35.56L39.01 35.67Q39.01 34.57 39.01 34.11L39.11 34.21L38.99 34.09Q39.56 31.35 39.72 30.67L39.58 30.53L39.74 30.69Q40.04 28.60 40.88 27.19L40.87 27.17L40.92 27.23Q43.70 22.97 49.64 16.61L49.45 16.42L49.55 16.51Q52.29 16.29 54.50 15.49L54.42 15.41L54.34 15.33Q47.51 22.81 44.31 27.04L44.30 27.02L44.39 27.11Q45.32 26.56 46.61 26.56L46.73 26.68L46.67 26.62Q49.90 26.54 51.43 28.48L51.43 28.48L51.54 28.60Q52.73 30.09 53.07 33.63L53.22 33.78L53.09 33.65Q53.33 34.53 53.33 35.14L53.17 34.98L53.27 35.09Q53.28 38.21 51.07 39.28L50.97 39.18L51.13 39.34Q49.86 39.90 45.98 40.28ZM48.25 42.67L48.28 42.69L48.24 42.65Q49.60 42.68 51.58 42.76L51.53 42.71L51.43 42.61Q53.08 42.70 54.64 41.97L54.68 42.02L54.68 42.01Q55.86 41.29 55.86 39.50L55.88 39.53L55.74 39.38Q55.85 38.99 55.68 38.01L55.70 38.03L55.66 37.99Q55.54 37.05 55.54 36.60L55.43 36.48L55.36 36.42Q54.61 31.82 53.01 29.92L52.98 29.89L53.05 29.95Q52.80 29.66 52.64 29.43L52.69 29.48L52.42 29.29L52.27 29.18L52.37 29.27Q52.05 28.80 51.44 27.85L51.38 27.78L51.39 27.80Q50.42 26.79 48.44 26.33L48.55 26.45L48.53 26.43Q49.81 24.89 52.78 21.19L52.66 21.07L56.91 15.81L56.99 15.89Q55.46 16.80 53.06 17.56L52.89 17.38L52.96 17.45Q53.89 16.48 55.68 14.50L55.71 14.53L55.76 14.58Q53.17 15.46 49.29 16.03L49.30 16.04L49.43 16.17Q43.65 22.00 40.68 26.95L40.69 26.96L40.68 26.95Q39.18 29.48 38.61 35.73L38.57 35.69L38.71 35.83Q38.52 36.28 38.59 37.23L38.58 37.22L38.58 37.23Q38.72 39.03 39.82 39.95L39.87 40.00L39.72 39.85Q40.17 40.07 40.13 40.11L40.04 40.01L40.21 40.19Q40.50 41.00 41.30 41.42L41.31 41.43L41.23 41.36Q42.72 42.08 44.66 42.27L44.72 42.33L44.81 42.42Q44.69 42.31 48.20 42.61ZM47.98 31.40L48.06 31.47L48.06 31.47Q48.52 31.25 49.47 31.74L49.54 31.81L49.41 31.68Q49.83 32.71 49.83 33.36L49.80 33.33L49.93 33.46Q49.96 35.16 49.01 36.15L49.16 36.30L49.08 36.22Q47.96 36.89 45.86 37.19L45.96 37.30L45.94 37.27Q44.51 37.29 43.98 37.03L43.93 36.98L44.04 37.09Q43.78 36.56 43.78 36.25L43.69 36.16L43.82 36.29Q43.49 32.92 46.43 31.63L46.40 31.60L46.46 31.67Q47.28 31.38 48.04 31.46Z"/><path fill="#333" d="M20.85 28.87L20.89 28.91L20.91 28.93Q18.27 28.85 17.24 30.03L17.28 30.07L17.40 30.18Q16.24 31.23 16.24 33.85L16.36 33.97L16.35 33.97Q16.26 38.98 20.86 38.79L20.87 38.79L20.97 38.89Q23.01 39.02 24.36 37.46L24.38 37.49L24.36 37.46Q25.67 35.86 25.44 33.80L25.57 33.93L25.51 33.88Q25.39 31.21 24.52 30.18L24.64 30.30L24.61 30.28Q23.15 28.97 20.94 28.97ZM25.85 38.63L25.88 38.66L25.99 38.77Q24.75 41.19 20.07 41.19L20.06 41.18L18.64 41.21L18.61 41.18Q16.26 41.19 15.15 40.04L15.25 40.14L15.08 39.97Q14.15 39.04 13.89 36.64L13.92 36.68L13.79 36.55Q13.76 35.18 13.68 33.39L13.72 33.43L13.64 33.35Q13.57 32.33 13.42 30.39L13.51 30.48L13.51 30.48Q13.31 26.09 18.48 26.09L18.57 26.17L20.01 26.06L20.00 26.04Q22.95 26.10 25.04 27.39L25.12 27.47L25.04 27.40Q25.93 27.98 26.43 28.66L26.32 28.56L26.33 28.57Q26.66 27.83 27.19 26.19L27.14 26.14L27.17 26.18Q28.34 25.93 30.66 25.33L30.58 25.24L30.76 25.42Q28.07 29.54 28.07 34.80L28.07 34.80L28.03 34.76Q28.05 38.51 29.42 41.59L29.45 41.63L29.38 41.55Q28.23 41.24 26.33 41.01L26.44 41.13L26.35 41.04Q26.14 40.18 25.84 38.62ZM29.28 43.96L29.32 44.00L31.51 44.56L31.50 44.55Q32.66 44.80 33.65 45.26L33.64 45.25L33.60 45.20Q30.02 40.94 30.02 34.84L30.05 34.87L30.02 34.85Q29.90 30.19 32.03 26.39L32.08 26.43L32.10 26.45Q31.40 26.63 30.07 27.02L30.17 27.12L30.20 27.14Q30.50 26.35 31.38 24.82L31.38 24.82L31.35 24.79Q30.79 24.99 26.79 25.83L26.82 25.86L26.17 27.61L26.20 27.64Q24.48 25.95 20.06 25.72L20.09 25.75L19.96 25.63Q18.96 25.77 16.72 25.92L16.75 25.95L16.77 25.97Q13.04 26.28 13.16 30.32L13.03 30.19L13.14 30.30Q13.29 33.65 13.86 38.10L13.85 38.09L13.81 38.47L13.72 38.38Q13.89 39.28 14.69 40.38L14.74 40.43L14.70 40.38Q14.81 40.49 15.00 40.61L15.00 40.61L15.04 40.65Q15.36 41.20 15.74 41.77L15.77 41.80L15.70 41.73Q17.15 43.30 20.54 43.49L20.48 43.43L20.59 43.54Q22.16 43.58 22.31 43.58L22.21 43.48L23.89 43.60L23.93 43.64Q27.00 43.52 28.22 41.96L28.37 42.10L28.30 42.03Q28.60 42.60 29.21 43.90ZM22.70 31.18L22.61 31.09L22.76 31.24Q24.00 31.14 24.83 31.60L24.77 31.54L24.89 31.65Q25.22 32.48 25.22 33.93L25.12 33.83L25.08 33.79Q25.29 35.71 24.01 37.14L24.11 37.24L24.06 37.18Q22.71 38.53 20.80 38.34L21.00 38.54L20.98 38.52Q19.50 38.48 18.47 38.06L18.35 37.94L18.48 38.08Q18.23 37.18 18.23 35.96L18.15 35.88L18.26 35.99Q18.38 32.46 21.01 31.51L21.01 31.51L20.93 31.42Q21.80 31.08 22.60 31.08Z"/><path fill="#333" d="M117.29 33.31L117.35 33.36L117.21 33.23Q117.14 36.13 115.96 40.78L115.91 40.73L115.96 40.77Q114.09 41.22 112.49 42.02L112.56 42.09L112.54 42.07Q115.23 35.13 114.97 27.71L114.85 27.59L114.84 27.59Q114.64 20.27 111.56 13.53L111.52 13.49L111.52 13.49Q113.50 14.79 115.37 15.36L115.42 15.41L115.32 15.32Q117.42 22.24 117.42 28.91L117.53 29.02L117.47 28.96Q117.50 30.43 117.42 31.92L117.52 32.02L117.52 32.02Q118.62 30.76 123.84 25.81L123.78 25.75L123.80 25.77Q124.85 25.72 125.84 25.64L125.95 25.75L127.95 25.50L127.97 25.53Q124.80 28.52 120.49 32.29L120.43 32.22L120.51 32.31Q123.85 35.04 130.32 40.86L130.32 40.86L130.25 40.79Q127.64 40.00 124.67 39.81L124.57 39.71L124.74 39.89Q122.25 37.81 117.37 33.39ZM127.09 42.39L127.12 42.41L127.23 42.52Q131.89 43.31 135.02 45.25L135.05 45.28L135.01 45.24Q133.94 44.06 131.31 41.66L131.28 41.63L131.17 41.52Q131.42 41.61 131.68 41.72L131.62 41.66L131.72 41.76Q129.67 39.79 127.42 37.88L127.38 37.84L122.90 33.90L123.01 34.00Q127.90 29.72 130.34 26.83L130.27 26.76L130.36 26.85Q129.08 26.86 126.60 27.13L126.71 27.23L126.57 27.10Q128.21 25.69 128.89 24.85L128.89 24.85L128.85 24.81Q126.18 25.41 123.71 25.41L123.65 25.35L123.66 25.36Q122.25 26.66 119.51 29.33L119.54 29.36L119.45 29.27Q119.49 23.51 118.50 17.69L118.60 17.79L118.46 17.65Q117.78 17.51 116.30 17.24L116.38 17.33L116.26 17.21Q116.25 16.63 115.80 15.14L115.66 15.00L115.70 15.05Q113.12 14.29 110.87 12.73L110.91 12.77L110.86 12.72Q114.19 19.44 114.54 27.55L114.56 27.57L114.71 27.72Q114.97 35.55 111.96 42.79L111.95 42.78L111.90 42.72Q112.68 42.52 114.01 41.87L114.00 41.85L114.05 41.91Q113.64 42.57 112.99 44.01L113.18 44.19L113.17 44.18Q115.93 43.02 118.06 42.64L118.11 42.69L117.98 42.56Q118.61 40.11 119.11 35.85L119.05 35.80L119.02 35.76Q121.66 38.06 127.10 42.40Z"/><path fill="#111" d="M100.04 29.53L100.03 29.52L100.07 29.56Q98.84 28.75 98.19 28.79L98.10 28.70L98.12 28.71Q96.82 28.86 95.77 29.87L95.67 29.77L95.79 29.89Q94.71 30.87 94.83 32.24L94.74 32.16L94.90 32.31Q95.22 36.67 94.34 41.20L94.27 41.12L94.17 41.03Q92.09 41.61 90.98 42.14L90.87 42.03L91.01 42.17Q92.51 37.99 92.28 33.54L92.18 33.43L92.24 33.50Q92.02 29.01 90.31 24.94L90.27 24.90L90.18 24.82Q91.35 25.53 93.64 26.17L93.70 26.24L94.29 28.96L94.27 28.94Q94.87 25.96 99.14 25.96L99.19 26.02L99.29 26.11Q99.62 25.99 99.92 25.99L99.83 25.89L99.86 25.93Q101.13 25.90 102.38 26.58L102.50 26.71L102.53 26.73Q101.16 28.03 100.02 29.51ZM101.61 31.48L101.71 31.43L101.81 31.53Q102.64 30.31 104.32 27.87L104.32 27.88L104.24 27.79Q103.76 27.43 102.24 27.16L102.38 27.30L102.33 27.25Q102.57 26.85 103.03 26.24L103.17 26.38L103.15 26.36Q101.16 25.36 99.22 25.55L99.24 25.57L99.32 25.66Q97.31 25.78 96.59 26.05L96.53 25.98L96.58 26.03Q95.07 26.35 94.27 27.45L94.39 27.58L94.19 26.73L93.98 25.87L93.99 25.88Q91.57 25.44 89.59 24.11L89.54 24.06L89.67 24.19Q91.76 28.52 91.99 33.39L91.96 33.37L91.99 33.40Q92.27 38.36 90.52 42.89L90.44 42.81L90.37 42.74Q91.57 42.38 92.44 42.07L92.46 42.09L92.41 42.04Q92.17 43.18 91.68 44.24L91.59 44.15L91.71 44.28Q94.41 43.28 96.54 43.16L96.56 43.18L96.75 38.66L96.79 38.70Q96.87 36.42 96.87 34.17L96.82 34.12L96.91 34.20Q96.84 32.95 97.75 31.98L97.73 31.96L97.75 31.98Q98.82 31.16 99.96 31.09L99.83 30.96L99.79 30.92Q100.57 30.94 101.29 31.62L101.28 31.61L101.55 31.42ZM96.65 29.72L96.66 29.66L96.65 29.76L96.62 29.69Z"/></svg>