<svg xmlns="http://www.w3.org/2000/svg" width="150" height="50" viewBox="0,0,150,50"><path fill="#222" d="M71.04 40.92L71.20 41.09L71.18 41.06Q66.96 29.76 61.82 24.77L61.84 24.79L61.72 24.68Q63.25 25.36 66.22 26.01L66.18 25.98L66.26 26.05Q69.76 29.94 72.32 36.60L72.31 36.60L72.36 36.65Q75.02 29.29 77.64 26.25L77.61 26.22L77.57 26.18Q79.62 26.12 82.05 25.44L81.91 25.29L82.05 25.44Q78.82 28.10 76.65 32.67L76.64 32.67L76.64 32.67Q76.35 33.40 72.96 41.01L72.91 40.96L73.03 41.09Q72.27 41.01 71.06 40.94ZM75.68 43.35L75.83 43.51L75.67 43.34Q79.09 31.12 83.66 26.44L83.69 26.47L82.05 26.81L82.10 26.86Q81.39 27.18 80.56 27.29L80.54 27.27L80.58 27.31Q80.92 26.78 81.74 25.91L81.77 25.94L81.72 25.89Q82.59 25.06 83.05 24.64L83.02 24.61L83.15 24.74Q80.94 25.39 77.51 25.89L77.55 25.92L77.41 25.79Q74.72 29.00 72.67 34.59L72.65 34.57L72.65 34.58Q71.16 30.54 69.33 28.06L69.14 27.87L68.62 27.88L68.75 28.02Q68.43 27.95 68.20 27.95L68.27 28.03L68.15 27.91Q68.02 27.66 66.30 25.60L66.31 25.61L66.24 25.54Q62.96 25.11 60.71 23.97L60.71 23.97L60.77 24.03Q66.83 29.67 70.83 41.39L70.84 41.41L71.88 41.46L71.81 41.39Q72.12 42.00 72.95 43.29L72.92 43.26L74.43 43.40L74.32 43.29Q75.08 43.32 75.72 43.40Z"/><path fill="#222" d="M32.34 23.01L32.33 22.99L32.39 23.05Q30.52 25.72 27.86 31.35L27.93 31.43L25.92 35.65L25.88 35.62Q25.00 37.51 23.66 39.76L23.76 39.85L23.63 39.72Q24.17 39.81 22.50 39.85L22.52 39.87L22.51 39.86Q22.59 39.94 21.33 39.94L21.27 39.87L21.34 39.94Q20.46 38.30 17.52 31.14L17.54 31.16L17.57 31.19Q15.34 25.76 13.24 22.75L13.36 22.86L13.33 22.84Q14.14 25.97 14.14 29.13L14.14 29.13L14.07 29.06Q14.02 35.52 11.05 41.07L11.11 41.14L11.17 41.19Q9.85 41.55 7.49 42.27L7.51 42.30L7.40 42.19Q11.16 36.58 11.16 29.35L11.02 29.21L11.02 29.21Q11.19 20.43 5.78 13.46L5.70 13.38L5.67 13.35Q7.35 14.11 9.71 14.80L9.67 14.76L9.62 14.71Q16.84 21.63 22.93 34.95L22.91 34.93L22.85 34.87Q26.32 27.83 28.53 24.33L28.59 24.40L28.61 24.41Q32.05 18.49 36.01 15.02L36.08 15.09L36.16 15.18Q37.39 14.92 39.75 14.16L39.65 14.06L39.78 14.19Q34.81 20.83 34.81 29.43L34.70 29.32L34.63 29.25Q34.70 35.98 38.12 41.50L38.12 41.50L38.10 41.48Q36.86 41.26 34.12 40.66L33.99 40.53L34.17 40.71Q31.70 35.80 31.70 29.83L31.66 29.79L31.66 29.78Q31.69 26.39 32.37 23.04ZM33.89 41.00L33.80 40.91L33.78 40.89Q34.60 41.14 36.05 41.41L35.92 41.28L35.99 41.35Q36.40 42.06 37.35 43.55L37.49 43.68L37.51 43.71Q39.59 44.07 43.05 45.29L42.98 45.22L43.04 45.27Q36.81 38.97 36.81 29.15L36.80 29.14L36.73 29.07Q36.75 21.36 41.12 15.23L41.20 15.31L38.99 15.99L38.91 15.91Q39.87 14.32 40.52 13.44L40.61 13.53L40.57 13.49Q38.62 14.05 35.99 14.59L36.15 14.74L36.10 14.70Q29.26 20.72 23.20 33.32L23.31 33.43L23.20 33.32Q18.10 22.44 13.16 17.18L13.10 17.13L13.19 17.22Q12.67 17.00 12.10 16.88L12.19 16.97L11.05 15.76L10.96 15.67Q10.38 15.01 9.69 14.41L9.65 14.36L9.80 14.51Q6.72 13.48 4.93 12.76L4.82 12.65L4.85 12.68Q10.94 19.99 10.94 29.39L10.92 29.38L10.92 29.37Q10.77 36.84 6.63 42.71L6.61 42.69L6.74 42.82Q7.37 42.54 8.67 42.12L8.61 42.07L8.73 42.19Q8.47 42.31 7.06 44.40L7.07 44.41L7.17 44.51Q8.98 44.03 12.48 43.27L12.55 43.33L12.53 43.32Q16.27 36.29 16.08 28.52L16.01 28.45L16.01 28.45Q17.59 32.51 21.06 40.39L21.06 40.39L20.92 40.25Q21.26 40.29 21.49 40.29L21.44 40.23L21.99 40.25L21.87 40.14Q22.43 40.92 23.23 42.22L23.19 42.18L23.22 42.21Q24.83 42.18 24.83 42.18L24.82 42.17L24.81 42.16Q25.88 42.20 26.52 42.28L26.45 42.21L26.42 42.18Q27.99 38.15 31.34 30.15L31.37 30.18L31.37 30.18Q31.21 35.57 33.79 40.90Z"/><path fill="#444" d="M48.36 29.89L48.43 29.95L48.46 29.99Q45.85 29.77 44.51 30.99L44.59 31.07L44.42 30.90Q43.07 32.10 43.38 34.61L43.51 34.75L43.38 34.61Q43.71 37.15 44.93 38.41L45.08 38.57L44.91 38.39Q46.08 39.83 48.21 39.75L48.16 39.70L48.20 39.74Q48.70 39.67 48.89 39.67L49.05 39.83L49.01 39.79Q52.51 39.14 52.62 34.53L52.55 34.46L52.57 34.48Q52.66 32.14 51.98 31.34L52.09 31.45L51.91 31.27Q50.84 29.97 48.29 29.82ZM51.74 41.68L51.76 41.71L51.63 41.57Q50.37 42.21 48.81 42.14L48.89 42.22L48.80 42.13Q45.07 42.44 43.78 39.85L43.60 39.68L43.61 39.68Q43.51 45.10 42.17 49.36L42.24 49.43L42.10 49.29Q40.48 49.96 38.85 50.68L38.72 50.56L38.75 50.58Q41.27 44.57 41.00 37.60L41.13 37.74L41.06 37.66Q40.87 30.89 37.97 24.83L37.82 24.68L38.01 24.87Q39.81 25.90 41.52 26.36L41.55 26.39L41.99 27.79L41.98 27.77Q42.26 28.28 42.52 29.38L42.50 29.36L42.46 29.32Q43.50 27.27 47.08 27.08L47.00 27.00L46.98 26.98Q47.96 27.05 48.83 27.05L48.82 27.04L49.24 26.96L49.27 26.99Q49.31 26.92 49.51 26.96L49.65 27.11L49.88 27.03L49.94 27.09Q52.01 27.37 52.73 27.60L52.76 27.62L52.80 27.66Q54.21 28.05 55.08 29.00L55.14 29.06L55.15 29.07Q55.85 30.11 55.82 31.52L55.98 31.68L55.80 31.50Q55.80 34.36 55.00 37.02L55.08 37.11L55.07 37.09Q54.08 40.63 51.72 41.66ZM55.88 42.16L55.88 42.13L55.86 42.11Q57.16 40.33 57.46 36.21L57.35 36.10L57.33 36.08Q57.43 34.28 57.43 33.02L57.54 33.13L57.42 33.01Q57.61 31.68 56.85 30.27L56.84 30.26L56.82 30.24Q56.41 29.79 55.91 29.41L55.83 29.32L55.70 29.08L55.58 28.85L55.52 28.67L55.54 28.69Q53.77 26.62 49.43 26.62L49.44 26.63L48.86 26.66L48.88 26.67Q44.06 26.50 42.42 28.10L42.51 28.19L42.60 28.28Q42.43 27.76 42.27 27.27L42.25 27.25L41.88 26.07L41.99 26.18Q39.40 25.46 37.19 23.97L37.31 24.09L37.13 23.92Q40.46 30.29 40.77 37.52L40.82 37.58L40.67 37.43Q41.07 44.79 38.21 51.26L38.17 51.22L40.19 50.39L40.11 50.30Q39.97 51.15 39.28 52.71L39.19 52.62L39.25 52.69Q41.86 51.52 44.18 51.18L44.25 51.25L44.30 51.29Q45.34 46.40 45.49 42.67L45.50 42.68L45.51 42.68Q47.03 44.28 50.64 44.51L50.60 44.46L50.55 44.41Q54.45 44.62 55.89 42.18L56.00 42.29ZM50.32 32.19L50.33 32.21L50.26 32.13Q50.87 32.02 51.97 32.36L51.94 32.33L52.07 32.46Q52.39 33.50 52.35 34.68L52.25 34.57L52.27 34.60Q52.19 35.44 52.00 36.08L52.02 36.10L52.01 36.09Q51.39 39.09 48.88 39.39L48.74 39.25L49.00 39.40L49.04 39.44Q48.81 39.28 48.69 39.32L48.85 39.48L48.15 39.31L48.29 39.45Q47.01 39.35 46.02 38.85L45.99 38.83L45.63 36.75L45.71 36.83Q45.50 34.45 46.79 33.42L46.82 33.45L46.85 33.48Q47.96 32.50 50.36 32.23Z"/><path fill="#111" d="M97.34 40.20L97.24 40.10L97.38 40.23Q95.41 40.06 93.74 40.63L93.80 40.69L93.73 40.62Q94.33 37.07 94.45 33.95L94.42 33.92L94.36 33.87Q94.50 30.85 94.27 27.19L94.26 27.18L94.27 27.18Q92.85 26.80 92.09 26.42L92.18 26.51L91.81 23.51L91.68 23.38Q92.63 24.22 94.23 24.79L94.11 24.67L94.12 24.68Q93.96 22.61 93.54 19.87L93.51 19.84L93.47 19.80Q95.82 20.55 97.45 20.40L97.36 20.31L97.38 25.05L97.33 24.99Q98.63 24.81 99.97 24.32L100.01 24.37L99.94 24.29Q99.92 25.22 99.69 26.98L99.67 26.96L99.73 27.02Q98.25 27.40 97.22 27.40L97.24 27.42L97.13 27.31Q97.16 29.51 97.16 33.77L97.29 33.90L97.31 33.92Q97.25 38.01 97.32 40.18ZM100.51 23.87L100.50 23.86L100.40 23.76Q100.27 24.02 99.66 24.25L99.63 24.21L100.02 21.45L99.97 21.39Q99.09 21.62 97.68 21.84L97.83 22.00L97.82 21.98Q97.81 21.29 97.96 19.92L97.84 19.79L97.99 19.94Q97.21 19.85 96.64 19.85L96.78 19.99L96.81 20.02Q94.65 19.99 93.01 19.27L92.93 19.19L93.03 19.29Q93.48 21.72 93.75 24.20L93.64 24.08L93.68 24.13Q92.89 23.87 91.37 22.84L91.32 22.80L91.35 22.82Q91.73 24.16 91.96 26.86L91.92 26.82L91.92 26.82Q92.30 26.97 93.48 27.39L93.56 27.47L93.44 27.35Q93.52 28.04 93.56 29.45L93.55 29.44L93.99 29.54L94.16 29.63L94.02 29.49Q94.16 30.81 94.16 31.99L94.12 31.95L94.13 31.96Q94.07 36.85 93.27 41.19L93.38 41.30L93.37 41.29Q93.43 41.04 95.37 40.51L95.47 40.61L95.49 40.63Q95.44 41.22 95.32 42.60L95.33 42.60L95.49 42.76Q96.19 42.59 96.99 42.59L97.01 42.61L97.01 42.61Q98.76 42.64 100.39 43.21L100.43 43.25L100.41 43.22Q98.98 37.42 99.17 29.50L99.28 29.61L101.64 29.19L101.58 29.13Q101.67 28.23 101.75 27.20L101.69 27.15L102.02 25.27L101.98 25.23Q101.42 25.51 100.24 25.96L100.14 25.86L100.23 25.95Q100.53 24.61 100.45 24.27L100.34 24.16L100.43 24.25Q100.36 23.99 100.43 23.80Z"/><path fill="#333" d="M123.50 39.77L123.61 39.88L121.59 39.80L121.61 39.82Q120.64 39.80 119.69 39.92L119.65 39.87L119.64 39.87Q120.32 33.77 120.32 29.77L120.22 29.67L120.24 29.69Q116.38 23.13 108.73 14.45L108.69 14.41L108.79 14.51Q110.44 15.36 113.79 16.16L113.84 16.22L113.74 16.11Q118.84 21.74 121.85 26.96L121.87 26.98L121.88 27.00Q124.98 21.52 129.36 16.50L129.30 16.44L129.20 16.34Q131.78 16.11 134.29 15.31L134.24 15.26L134.29 15.30Q128.17 21.33 123.30 29.75L123.35 29.79L123.35 29.79Q123.18 36.67 123.49 39.75ZM132.77 17.36L135.32 14.35L135.32 14.35Q132.32 15.62 129.20 16.07L129.20 16.07L129.16 16.03Q124.88 20.70 122.06 25.80L122.07 25.81L122.15 25.89Q120.08 22.30 116.88 18.41L116.87 18.40L116.85 18.39Q116.63 18.43 116.13 18.35L116.06 18.27L116.01 18.23Q115.29 17.40 113.77 15.72L113.76 15.71L113.85 15.80Q110.45 15.03 107.48 13.47L107.57 13.56L107.46 13.45Q115.28 22.03 120.04 29.95L119.90 29.80L119.87 29.78Q119.92 36.26 119.31 40.41L119.15 40.26L119.25 40.35Q120.02 40.36 121.47 40.25L121.41 40.19L121.51 41.32L121.36 41.16Q121.53 41.80 121.46 42.33L121.39 42.27L121.30 42.18Q124.87 42.20 126.62 42.39L126.70 42.48L126.60 42.37Q125.41 37.76 125.30 31.78L125.38 31.87L125.39 31.87Q129.72 23.38 136.27 16.03L136.17 15.93L132.63 17.22Z"/></svg>