<svg xmlns="http://www.w3.org/2000/svg" width="150" height="50" viewBox="0,0,150,50"><path fill="#111" d="M104.40 40.40L104.48 40.48L104.42 40.42Q101.31 36.40 98.68 27.76L98.69 27.76L98.80 27.87Q98.15 25.74 97.35 23.61L97.29 23.55L94.48 32.39L94.41 32.31Q92.62 37.26 90.22 40.50L90.13 40.41L90.30 40.58Q89.28 40.47 87.64 40.63L87.70 40.69L87.70 40.68Q87.76 39.45 87.76 38.19L87.78 38.22L87.83 38.27Q87.80 32.22 85.06 26.09L85.03 26.06L85.02 26.05Q81.98 19.23 76.11 14.25L76.12 14.25L76.22 14.36Q78.29 14.98 80.65 15.51L80.70 15.56L80.55 15.41Q89.25 23.89 90.55 34.85L90.55 34.85L90.50 34.81Q92.33 31.69 93.78 26.32L93.60 26.14L93.74 26.28Q95.59 18.64 96.08 17.24L96.22 17.37L98.43 17.34L98.41 17.32Q99.06 19.30 99.71 21.62L99.80 21.71L100.99 26.11L100.89 26.01Q102.54 31.53 103.94 34.77L104.00 34.82L103.87 34.69Q105.71 23.25 113.63 15.90L113.59 15.86L113.52 15.80Q115.08 15.49 118.05 14.84L118.00 14.79L118.02 14.81Q112.68 19.10 109.63 25.23L109.58 25.18L109.71 25.31Q106.67 31.60 106.67 38.38L106.56 38.27L106.53 38.23Q106.50 39.30 106.57 40.44L106.75 40.62L105.47 40.37L105.46 40.36Q104.90 40.33 104.33 40.33ZM110.59 43.25L110.58 43.24L110.54 43.19Q109.41 39.74 109.53 35.86L109.45 35.78L109.49 35.82Q109.84 24.29 119.20 16.03L119.26 16.09L119.11 15.94Q118.22 16.23 116.28 16.76L116.36 16.85L116.30 16.78Q117.16 15.85 119.06 14.06L119.25 14.25L119.20 14.20Q116.45 14.88 113.52 15.37L113.48 15.34L113.60 15.45Q106.02 22.49 104.11 31.97L104.08 31.94L104.17 32.02Q103.67 30.46 100.81 19.00L100.82 19.00L100.75 18.94Q100.36 19.04 99.40 19.04L99.35 18.98L99.03 17.90L98.98 17.86Q99.02 17.48 98.80 16.98L98.79 16.97L95.81 16.88L95.77 16.85Q95.03 19.38 93.75 24.50L93.65 24.40L93.73 24.48Q92.51 29.65 91.52 32.13L91.47 32.08L91.51 32.12Q89.81 24.10 84.25 17.78L84.26 17.79L84.37 17.90Q83.76 17.71 82.81 17.51L82.81 17.51L82.88 17.59Q82.16 16.75 80.60 15.11L80.59 15.11L80.53 15.05Q77.26 14.37 75.09 13.57L74.97 13.45L74.95 13.43Q80.79 18.28 84.07 24.48L84.00 24.42L84.00 24.41Q87.51 31.09 87.51 38.09L87.40 37.98L87.41 38.00Q87.52 39.66 87.33 41.26L87.33 41.27L87.27 41.21Q87.54 41.24 88.00 41.15L87.84 40.99L87.86 41.01Q88.47 41.07 88.70 41.07L88.65 41.03L88.66 42.06L88.65 42.05Q88.58 42.44 88.66 42.97L88.73 43.05L88.69 43.00Q89.79 42.89 92.08 42.74L92.12 42.78L92.22 42.88Q95.68 37.32 98.43 27.92L98.50 27.99L98.42 27.91Q101.17 36.68 104.14 40.64L104.15 40.65L104.17 40.67Q104.67 40.72 105.51 40.83L105.63 40.95L105.49 40.81Q106.32 41.83 107.39 42.90L107.55 43.06L107.47 42.98Q108.21 42.99 110.61 43.26Z"/><path fill="#222" d="M15.58 47.06L15.53 47.01L15.62 47.10Q14.62 47.24 12.72 47.54L12.67 47.50L12.75 47.58Q14.03 45.39 15.06 44.10L15.09 44.12L15.12 44.16Q16.85 44.44 17.00 44.44L17.06 44.49L16.91 44.35Q17.22 44.43 17.75 44.32L17.84 44.41L17.82 44.39Q18.54 44.34 18.73 44.34L18.69 44.30L18.61 44.23Q21.23 44.02 21.15 41.85L21.07 41.77L21.15 41.85Q21.12 40.37 21.00 34.13L21.08 34.20L21.10 34.22Q20.96 30.59 21.04 26.44L21.12 26.52L22.52 26.32L22.40 26.20Q23.09 26.13 23.78 25.90L23.82 25.94L23.74 25.86Q23.50 30.27 23.54 34.64L23.51 34.62L23.68 34.79Q23.72 39.17 24.25 43.54L24.25 43.54L24.19 43.48Q24.17 43.69 24.17 43.95L24.28 44.07L24.25 44.04Q24.20 45.63 22.53 46.01L22.50 45.98L22.53 46.01Q19.53 46.51 15.69 47.16ZM22.37 22.85L20.19 19.69L20.32 19.82Q21.36 18.42 23.19 15.64L23.06 15.51L23.04 15.49Q23.86 16.54 25.19 18.37L25.17 18.34L22.33 22.82ZM25.35 49.44L25.29 49.38L25.42 49.50Q25.93 49.52 26.69 49.18L26.72 49.21L26.67 49.16Q27.05 48.51 27.05 48.05L27.04 48.04L27.02 48.03Q27.07 47.73 26.95 47.12L26.90 47.07L26.86 47.02Q25.52 40.63 25.52 32.71L25.56 32.74L25.61 32.80Q25.52 29.85 25.67 26.95L25.71 27.00L25.66 26.95Q25.23 27.24 24.08 27.54L24.03 27.49L24.07 27.53Q23.97 26.93 24.01 26.40L23.96 26.35L24.22 25.43L24.27 25.48Q22.40 25.97 20.61 26.00L20.68 26.08L20.70 26.10Q20.62 30.39 20.66 33.97L20.69 34.00L20.84 41.89L20.73 41.78Q20.93 43.88 18.76 43.99L18.68 43.91L18.68 43.91Q18.38 43.84 17.86 43.89L18.05 44.08L17.96 43.99Q17.39 44.00 17.13 44.00L17.12 43.99L17.23 44.10Q16.73 44.05 15.17 43.63L15.02 43.49L15.20 43.67Q14.63 44.16 13.53 45.84L13.60 45.91L11.97 48.13L12.06 48.22Q12.82 47.91 14.46 47.53L14.61 47.68L14.16 48.41L13.59 49.02L13.59 49.02Q15.80 48.80 17.14 48.88L17.25 48.99L17.13 48.87Q19.47 49.08 25.41 49.49ZM22.42 23.67L22.35 23.60L22.66 23.03L22.69 23.06Q23.02 23.47 23.97 25.07L24.11 25.21L24.05 25.15Q25.47 21.92 27.03 18.83L27.07 18.87L27.20 19.01Q26.17 17.37 25.22 16.07L25.11 15.96L25.16 16.02Q24.90 16.18 24.56 16.71L24.62 16.77L24.68 16.83Q24.27 16.19 23.28 14.89L23.27 14.89L23.29 14.91Q21.95 16.34 19.63 19.69L19.72 19.79L19.69 19.76Q20.62 21.00 22.34 23.58Z"/><path fill="#444" d="M113.74 15.83L113.71 15.79L113.80 15.89Q115.69 20.75 116.26 25.93L116.32 25.98L116.18 25.84Q119.85 21.67 125.75 16.84L125.93 17.01L125.89 16.97Q129.02 16.60 131.64 15.80L131.63 15.79L125.19 21.53L125.06 21.40Q121.73 24.43 118.88 27.28L118.92 27.33L118.87 27.27Q126.90 36.48 131.96 41.20L131.82 41.07L131.90 41.14Q128.87 40.29 126.55 40.13L126.55 40.13L126.39 39.98Q120.72 34.68 116.42 28.86L116.44 28.88L116.29 28.73Q116.43 35.38 114.57 40.71L114.63 40.77L114.70 40.84Q114.29 40.70 113.79 40.89L113.95 41.05L113.85 41.14L113.88 41.16Q113.62 41.14 111.07 42.05L111.16 42.14L111.09 42.07Q113.97 35.43 113.63 27.97L113.61 27.95L113.63 27.97Q113.34 20.67 109.80 14.17L109.80 14.17L110.47 14.57L110.80 14.79L110.79 14.74L110.78 14.73Q111.47 15.08 113.68 15.77ZM114.13 15.64L114.00 15.52L114.02 15.53Q111.67 14.90 109.04 13.37L109.18 13.51L109.05 13.38Q113.49 20.83 113.49 29.78L113.45 29.73L113.40 29.69Q113.46 36.75 110.49 42.81L110.42 42.74L112.53 41.95L112.44 41.85Q112.09 42.92 111.41 44.22L111.34 44.15L111.46 44.27Q113.74 43.50 115.68 43.08L115.56 42.96L115.65 42.83L115.70 42.88Q115.99 42.86 116.57 42.71L116.54 42.68L116.60 42.74Q118.22 36.79 118.33 31.99L118.24 31.90L118.18 31.84Q120.44 34.52 122.27 36.39L122.18 36.30L122.17 36.29Q123.30 37.34 126.31 40.31L126.40 40.40L126.44 40.44L126.49 40.50Q127.40 41.21 129.27 42.81L129.22 42.77L129.21 42.75Q133.12 43.51 136.59 45.22L136.69 45.32L136.55 45.18Q127.42 36.78 121.18 29.36L121.02 29.19L121.17 29.35Q125.41 24.91 134.17 16.31L134.33 16.46L134.18 16.32Q131.66 17.49 129.65 17.87L129.78 18.01L129.70 17.93Q130.95 16.97 133.27 14.95L133.14 14.82L133.25 14.93Q129.09 16.29 125.74 16.48L125.75 16.49L125.77 16.51Q122.75 18.63 117.88 23.32L117.91 23.34L117.87 23.30Q117.68 20.91 117.11 18.36L117.01 18.26L117.01 18.26Q115.74 18.02 114.75 17.68L114.91 17.83L114.83 17.75Q114.53 16.92 113.96 15.47Z"/><path fill="#222" d="M54.94 40.28L55.04 40.37L55.06 40.40Q52.13 36.55 49.50 27.91L49.44 27.85L49.35 27.76Q48.73 25.65 47.93 23.52L47.93 23.52L45.03 32.27L45.14 32.38Q43.34 37.31 40.94 40.55L40.92 40.53L40.81 40.42Q40.02 40.54 38.38 40.69L38.42 40.74L38.34 40.66Q38.47 39.49 38.47 38.23L38.53 38.30L38.45 38.21Q38.59 32.34 35.85 26.21L35.72 26.08L35.80 26.16Q32.72 19.32 26.86 14.33L26.85 14.32L26.71 14.18Q28.98 15.00 31.34 15.53L31.28 15.48L31.31 15.51Q39.97 23.93 41.26 34.90L41.22 34.86L41.25 34.88Q42.83 31.52 44.28 26.15L44.36 26.23L44.33 26.20Q46.29 18.68 46.78 17.27L46.73 17.22L49.02 17.26L49.01 17.26Q49.78 19.36 50.43 21.68L50.35 21.60L51.63 26.08L51.58 26.03Q53.24 31.58 54.65 34.81L54.63 34.79L54.59 34.75Q56.34 23.22 64.26 15.87L64.28 15.88L64.31 15.92Q65.74 15.48 68.70 14.83L68.63 14.76L68.73 14.86Q63.35 19.11 60.31 25.24L60.26 25.19L60.36 25.29Q57.24 31.50 57.24 38.28L57.19 38.23L57.33 38.37Q57.32 39.46 57.40 40.60L57.27 40.48L56.21 40.44L56.19 40.43Q55.60 40.37 55.03 40.37ZM61.35 43.33L61.35 43.33L61.31 43.30Q60.06 39.72 60.17 35.84L60.24 35.91L60.22 35.89Q60.57 24.35 69.93 16.09L69.92 16.08L69.85 16.01Q68.83 16.17 66.89 16.70L66.92 16.73L66.89 16.71Q67.99 16.02 69.89 14.23L69.87 14.20L69.75 14.09Q67.15 14.92 64.22 15.41L64.18 15.37L64.21 15.40Q56.78 22.59 54.88 32.07L54.72 31.91L54.84 32.03Q54.30 30.43 51.45 18.97L51.38 18.90L51.37 18.89Q50.89 18.91 49.94 18.91L49.94 18.91L49.65 17.85L49.78 17.99Q49.55 17.34 49.32 16.84L49.38 16.90L46.46 16.87L46.44 16.86Q45.73 19.42 44.45 24.54L44.39 24.48L44.30 24.38Q43.00 29.47 42.01 31.95L42.04 31.99L42.19 32.13Q40.48 24.10 34.92 17.78L34.97 17.83L35.04 17.90Q34.55 17.84 33.60 17.64L33.54 17.58L33.48 17.53Q32.85 16.78 31.29 15.14L31.30 15.15L31.21 15.06Q27.82 14.26 25.65 13.46L25.66 13.47L25.65 13.46Q31.39 18.22 34.67 24.42L34.73 24.49L34.72 24.47Q38.05 30.96 38.05 37.96L38.03 37.95L38.10 38.01Q38.06 39.54 37.87 41.14L37.97 41.24L37.97 41.24Q38.06 41.10 38.52 41.00L38.63 41.12L38.54 41.02Q39.09 41.02 39.31 41.02L39.30 41.01L39.19 41.93L39.21 41.94Q39.24 42.43 39.32 42.96L39.42 43.07L39.27 42.92Q40.54 42.97 42.83 42.82L42.84 42.83L42.86 42.85Q46.39 37.36 49.13 27.96L49.13 27.95L49.18 28.01Q51.94 36.78 54.91 40.74L54.88 40.71L54.85 40.68Q55.41 40.78 56.25 40.90L56.23 40.89L56.16 40.81Q57.08 41.92 58.15 42.99L58.19 43.03L58.07 42.91Q58.85 42.97 61.25 43.23Z"/><path fill="#333" d="M74.32 39.92L74.18 39.78L72.33 39.87L72.31 39.85Q71.36 39.86 70.41 39.97L70.47 40.03L70.48 40.04Q70.88 33.66 70.88 29.66L70.98 29.76L70.89 29.68Q67.10 23.19 59.45 14.51L59.30 14.35L59.44 14.49Q61.10 15.35 64.45 16.15L64.59 16.30L64.55 16.26Q69.47 21.70 72.47 26.92L72.63 27.08L72.63 27.07Q75.61 21.49 79.99 16.47L79.93 16.41L79.96 16.43Q82.30 15.96 84.81 15.16L84.91 15.26L84.92 15.27Q78.76 21.25 73.88 29.66L73.96 29.74L74.01 29.78Q74.04 36.86 74.34 39.94ZM83.31 17.24L85.95 14.32L86.06 14.43Q82.94 15.57 79.82 16.03L79.82 16.03L79.84 16.05Q75.69 20.84 72.87 25.94L72.86 25.94L72.75 25.83Q70.64 22.19 67.44 18.31L67.42 18.29L67.49 18.36Q67.18 18.32 66.69 18.24L66.80 18.35L66.76 18.31Q66.12 17.56 64.60 15.88L64.60 15.89L64.57 15.85Q61.02 14.93 58.05 13.37L58.22 13.55L58.05 13.37Q65.90 21.98 70.65 29.90L70.69 29.93L70.68 29.92Q70.60 36.28 70.00 40.43L69.86 40.29L69.83 40.27Q70.64 40.31 72.08 40.20L72.08 40.19L72.02 41.16L72.19 41.33Q72.07 41.67 71.99 42.20L72.08 42.29L72.04 42.24Q75.52 42.18 77.27 42.38L77.36 42.47L77.25 42.35Q76.04 37.71 75.92 31.74L76.01 31.83L75.95 31.76Q80.32 23.30 86.87 15.96L86.87 15.96L83.38 17.31Z"/></svg>