<svg xmlns="http://www.w3.org/2000/svg" width="150" height="50" viewBox="0,0,150,50"><path fill="#111" d="M21.51 40.25L21.41 40.15L21.41 40.15Q18.09 40.40 16.45 39.87L16.45 39.87L16.36 39.78Q14.47 39.22 14.16 35.83L14.19 35.86L15.54 34.70L15.61 34.77Q16.25 34.15 17.01 33.65L17.10 33.75L17.12 33.77Q16.80 35.61 18.40 36.83L18.32 36.76L18.41 36.84Q19.67 37.84 21.80 37.65L21.88 37.72L21.87 37.72Q26.14 37.19 25.95 33.65L25.97 33.67L25.97 33.67Q25.93 31.53 23.30 30.31L23.30 30.31L23.11 30.12Q20.28 29.09 17.92 27.87L18.03 27.97L18.00 27.95Q15.42 26.58 14.43 21.90L14.35 21.82L14.47 21.94Q14.31 21.44 14.19 20.67L14.24 20.72L14.28 20.76Q14.10 19.90 14.18 19.33L14.21 19.36L14.14 19.28Q14.46 17.86 15.72 17.40L15.68 17.36L15.68 17.36Q18.05 16.46 22.04 16.65L21.99 16.60L22.05 16.65Q23.78 16.67 24.58 16.75L24.62 16.78L24.61 16.77Q26.20 17.08 27.27 17.53L27.13 17.40L27.23 17.50Q29.20 17.83 29.43 20.31L29.52 20.39L29.47 20.34Q28.52 21.15 26.31 22.48L26.20 22.36L26.30 22.46Q25.82 19.39 21.44 19.39L21.58 19.53L21.49 19.44Q19.56 19.42 18.57 20.10L18.57 20.11L18.53 20.06Q17.42 20.63 17.65 22.42L17.66 22.43L17.69 22.46Q17.85 24.56 20.82 26.08L20.89 26.16L20.98 26.24Q21.39 26.35 25.89 27.99L25.97 28.07L25.90 28.00Q28.54 29.50 28.95 33.88L28.99 33.91L29.05 33.97Q28.88 33.95 28.96 35.21L28.97 35.22L28.96 35.21Q29.19 38.15 27.63 39.25L27.60 39.22L27.60 39.22Q25.65 40.09 21.47 40.21ZM23.71 42.53L23.79 42.60L23.76 42.58Q25.18 42.62 27.16 42.62L27.28 42.75L27.21 42.67Q29.37 42.74 30.62 42.32L30.52 42.22L30.65 42.35Q31.78 41.42 31.71 39.63L31.77 39.70L31.70 39.63Q31.71 38.69 31.33 36.64L31.33 36.63L31.36 36.66Q30.37 31.90 28.27 30.03L28.40 30.16L28.25 30.01Q27.60 28.56 26.27 27.84L26.15 27.72L20.89 25.70L20.83 25.64Q20.49 25.44 20.03 25.22L20.12 25.30L19.94 24.86L20.06 24.64L19.93 24.50Q19.90 23.22 21.05 22.62L21.00 22.57L21.02 22.59Q21.66 21.89 23.37 21.70L23.34 21.67L23.36 21.69Q24.47 21.55 25.62 22.01L25.77 22.17L25.66 22.05Q25.82 22.25 26.01 23.08L26.00 23.07L25.88 22.96Q26.12 22.85 26.61 22.62L26.71 22.72L26.67 22.68Q27.40 23.61 27.52 24.75L27.60 24.83L27.46 24.69Q27.57 24.68 31.22 22.10L31.29 22.16L31.28 22.16Q31.00 19.51 29.55 18.83L29.49 18.77L29.45 18.72Q29.01 17.60 27.56 17.06L27.41 16.91L27.43 16.94Q25.31 16.30 22.11 16.30L21.96 16.15L21.93 16.11Q17.04 16.14 15.18 16.82L15.16 16.81L15.29 16.94Q13.85 17.28 13.73 18.96L13.88 19.11L13.78 19.01Q13.75 19.54 14.17 21.75L14.12 21.70L14.08 21.67Q14.91 25.58 17.08 27.82L17.01 27.76L17.01 27.75Q17.74 29.40 19.24 30.08L19.26 30.10L19.31 30.15Q20.75 30.77 24.67 32.33L24.68 32.34L24.65 32.35L25.36 32.75L25.40 32.84L25.50 32.93Q25.60 33.30 25.64 33.64L25.62 33.62L25.67 33.67Q25.66 37.05 21.74 37.20L21.75 37.22L21.79 37.25Q20.57 37.22 19.28 36.84L19.38 36.94L19.26 36.82Q18.94 36.00 18.94 35.28L18.98 35.32L18.94 35.29Q19.11 35.19 19.15 34.92L19.15 34.92L18.98 34.75Q18.71 35.12 17.91 35.62L17.89 35.61L17.79 35.50Q17.43 34.54 17.59 33.17L17.40 32.98L17.44 33.02Q15.45 34.30 13.85 35.71L13.90 35.76L13.74 35.60Q13.82 36.44 13.89 37.47L13.90 37.48L13.97 37.54Q14.26 39.25 15.56 40.01L15.50 39.95L15.48 39.93Q16.78 41.84 19.33 42.22L19.26 42.15L19.27 42.16Q20.95 42.51 23.88 42.70Z"/><path fill="#333" d="M87.67 39.05L87.65 39.04L87.51 38.89Q89.36 36.48 94.11 29.20L94.08 29.17L94.11 29.20Q98.15 23.00 101.01 19.73L101.17 19.89L101.09 19.81Q98.94 20.06 96.84 20.06L96.83 20.05L96.82 20.04Q91.69 20.15 87.69 18.36L87.72 18.39L87.63 18.30Q87.03 16.45 86.34 14.89L86.33 14.87L86.34 14.88Q90.93 17.08 96.61 17.19L96.50 17.08L96.57 17.16Q101.73 17.25 106.91 15.35L106.95 15.39L106.79 15.23Q106.47 16.13 106.17 16.93L106.24 17.00L105.53 18.46L105.67 18.60Q102.50 22.13 98.50 27.96L98.50 27.96L95.28 32.88L95.11 32.72Q93.57 35.28 91.74 37.57L91.77 37.60L91.71 37.53Q94.95 36.85 98.26 36.93L98.36 37.02L98.26 36.92Q101.68 37.11 104.84 38.03L104.90 38.09L105.37 39.66L105.27 39.56Q105.47 40.33 105.82 41.17L105.96 41.32L105.93 41.28Q101.29 39.73 96.15 39.92L96.07 39.84L95.98 39.75Q91.04 40.14 86.55 42.16L86.44 42.05L86.49 42.10Q86.91 41.07 87.63 39.01ZM85.90 42.80L85.92 42.82L85.79 42.69Q87.18 42.25 87.98 41.99L87.84 41.85L87.89 41.90Q87.64 42.68 86.96 44.20L86.98 44.23L86.88 44.12Q92.72 42.13 98.70 42.35L98.72 42.38L98.59 42.24Q105.04 42.60 110.06 45.38L109.96 45.27L109.99 45.30Q108.61 42.93 107.81 40.76L107.83 40.79L107.86 40.82Q107.30 40.52 105.78 39.95L105.84 40.02L105.76 39.93Q105.60 39.20 105.18 37.72L105.21 37.75L105.17 37.71Q100.92 36.43 95.82 36.62L95.89 36.69L95.91 36.71Q97.95 33.88 101.49 28.32L101.64 28.47L101.52 28.35Q105.15 22.61 107.05 20.06L107.19 20.20L107.07 20.08Q107.65 18.76 108.68 16.05L108.59 15.96L108.57 15.95Q107.97 16.37 106.52 16.98L106.55 17.01L106.59 17.05Q106.94 16.25 107.66 14.73L107.61 14.68L107.52 14.59Q102.16 16.69 96.45 16.62L96.47 16.64L96.60 16.77Q90.61 16.64 85.66 14.12L85.53 13.99L85.65 14.12Q86.77 16.45 87.49 18.70L87.55 18.75L87.53 18.74Q88.62 19.25 89.42 19.48L89.46 19.52L89.48 19.54Q89.55 20.04 89.82 21.48L89.97 21.63L89.89 21.55Q93.62 22.62 98.49 22.43L98.48 22.41L98.42 22.36Q96.13 25.67 92.82 30.65L92.72 30.55L87.21 38.89L87.25 38.94Q86.98 40.30 85.95 42.85Z"/><path fill="#222" d="M73.29 20.10L73.33 20.14L73.28 20.09Q69.02 20.14 65.33 19.15L65.38 19.20L65.25 19.07Q66.82 23.68 67.01 28.51L67.03 28.54L67.02 28.52Q67.23 33.35 66.02 37.95L66.01 37.95L66.01 37.95Q68.84 37.35 72.34 37.20L72.38 37.24L72.23 37.09Q76.28 37.02 78.07 34.59L78.06 34.58L77.91 34.43Q79.58 32.53 79.77 28.41L79.79 28.43L79.65 28.29Q79.79 26.60 79.33 24.89L79.30 24.86L79.30 24.86Q78.01 20.10 73.29 20.10ZM61.38 42.11L61.50 42.23L61.38 42.11Q64.30 36.47 64.30 29.77L64.22 29.68L64.33 29.80Q64.36 21.30 60.06 14.29L60.02 14.25L59.92 14.16Q65.31 16.96 73.57 17.15L73.44 17.02L73.45 17.02Q82.29 17.19 82.63 24.34L82.82 24.53L82.73 24.44Q82.74 27.04 82.70 28.48L82.87 28.66L82.87 28.66Q82.74 33.29 81.91 35.46L81.82 35.38L81.92 35.47Q81.49 36.57 80.73 37.41L80.62 37.29L80.72 37.40Q79.35 38.92 76.73 39.42L76.72 39.41L76.64 39.33Q75.22 39.78 72.22 40.00L72.17 39.95L72.15 39.94Q65.96 40.34 61.36 42.09ZM79.36 42.05L79.31 42.00L79.29 41.97Q81.99 41.59 83.62 40.11L83.63 40.11L83.79 40.27Q84.84 38.35 84.80 35.61L84.84 35.65L84.84 35.65Q84.89 34.33 84.74 30.83L84.79 30.88L84.33 26.23L84.45 26.35Q84.17 23.98 83.22 21.88L83.14 21.81L83.23 21.90Q82.72 20.96 82.03 20.32L82.09 20.37L82.00 20.13L81.95 20.08Q80.23 17.10 75.81 16.72L75.96 16.87L75.97 16.88Q73.12 16.59 66.12 15.86L66.19 15.93L66.28 16.02Q62.93 15.49 59.24 13.48L59.24 13.47L59.29 13.53Q64.03 20.82 64.03 29.57L64.01 29.55L64.03 29.57Q64.03 36.58 60.68 42.75L60.76 42.83L60.74 42.81Q61.42 42.53 62.75 42.03L62.81 42.09L62.82 42.11Q62.36 42.83 61.48 44.31L61.43 44.26L61.55 44.38Q64.63 43.34 67.98 42.85L67.90 42.77L67.83 42.70Q70.05 42.52 73.70 42.40L73.68 42.38L73.61 42.31Q77.49 42.19 79.31 42.00ZM79.34 28.36L79.27 28.30L79.27 28.29Q78.89 36.29 72.19 36.67L72.24 36.72L72.24 36.71Q70.32 36.86 68.27 37.12L68.32 37.17L68.24 37.09Q69.10 33.39 69.10 29.74L68.98 29.61L68.92 29.55Q68.95 25.89 68.23 22.05L68.16 21.98L68.16 21.98Q70.44 22.35 75.12 22.35L75.25 22.48L75.16 22.39Q76.51 22.22 78.15 23.17L78.23 23.25L78.18 23.20Q79.43 25.44 79.28 28.30Z"/><path fill="#111" d="M115.76 19.27L115.68 19.19L115.60 19.12Q116.89 23.76 117.04 26.95L116.96 26.87L117.01 26.91Q117.38 26.84 121.76 26.95L121.87 27.06L121.78 26.96Q124.47 27.15 124.85 23.68L124.71 23.54L124.86 23.69Q125.03 21.92 124.12 21.01L123.96 20.84L124.02 20.91Q122.75 20.02 120.77 19.87L120.80 19.90L120.69 19.78Q117.61 19.72 115.75 19.26ZM117.16 28.89L117.03 28.76L117.03 28.77Q117.34 34.90 115.55 40.83L115.37 40.66L115.43 40.72Q114.20 41.05 111.61 42.08L111.63 42.10L111.63 42.10Q114.39 35.53 114.04 28.06L114.01 28.03L114.09 28.11Q113.89 20.86 110.57 14.35L110.47 14.24L110.55 14.33Q115.37 17.10 122.34 17.10L122.27 17.02L122.23 16.98Q127.90 17.02 128.17 20.57L128.29 20.69L128.32 20.72Q128.37 21.30 128.29 21.91L128.18 21.79L128.20 23.03L128.05 22.89Q127.36 26.95 125.23 28.66L125.27 28.71L125.25 28.69Q124.40 29.32 123.37 29.32L123.33 29.28L120.71 29.24L120.73 29.27Q126.36 36.54 130.89 41.11L130.87 41.08L130.87 41.08Q128.70 40.36 125.77 40.01L125.83 40.08L125.70 39.95Q121.93 35.99 117.02 28.75ZM125.73 40.47L125.68 40.43L125.98 40.42L127.20 41.64L127.29 41.73Q127.69 42.10 128.34 42.70L128.40 42.76L128.33 42.69Q131.95 43.38 135.53 45.25L135.53 45.25L135.58 45.29Q128.68 38.59 123.28 31.66L123.29 31.67L124.97 31.61L125.04 31.68Q128.06 31.62 129.40 27.09L129.34 27.03L129.38 27.07Q129.98 24.77 129.98 22.07L130.13 22.22L130.05 22.14Q130.12 19.93 128.41 19.28L128.42 19.29L128.35 19.22Q128.30 18.91 127.73 18.22L127.71 18.21L127.73 18.22Q125.90 16.62 122.24 16.54L122.29 16.59L122.28 16.58Q114.50 16.53 109.82 13.53L109.77 13.47L109.73 13.44Q113.44 20.23 113.79 27.92L113.83 27.96L113.74 27.87Q114.13 35.88 111.01 42.73L111.03 42.75L111.01 42.73Q112.39 42.28 113.19 41.98L113.11 41.91L112.03 44.09L112.08 44.15Q114.91 43.21 117.58 42.72L117.52 42.66L117.53 42.67Q118.69 37.43 118.88 32.22L118.97 32.30L118.92 32.25Q122.47 37.25 125.63 40.37ZM124.40 22.47L124.33 22.40L124.36 22.43Q124.37 22.67 124.37 23.01L124.50 23.14L124.38 23.59L124.42 23.63Q124.49 24.80 123.80 25.76L123.79 25.74L123.79 25.74Q123.22 26.54 122.30 26.73L122.20 26.63L122.22 26.65Q121.94 26.64 120.34 26.67L120.30 26.63L120.31 26.64Q119.81 26.75 118.97 26.63L118.99 26.65L118.98 26.64Q118.91 25.16 118.57 22.12L118.62 22.17L118.45 22.00Q119.90 22.23 120.58 22.23L120.60 22.25L120.64 22.29Q122.54 22.36 124.48 22.55Z"/><path fill="#222" d="M46.40 40.95L46.50 41.05L46.48 41.03Q42.38 29.85 37.24 24.86L37.16 24.78L37.19 24.81Q38.50 25.28 41.47 25.93L41.61 26.07L41.62 26.08Q45.15 30.00 47.70 36.66L47.63 36.58L47.67 36.62Q50.41 29.35 53.04 26.31L52.97 26.24L52.99 26.26Q54.82 26.00 57.26 25.31L57.25 25.30L57.24 25.30Q54.24 28.20 52.07 32.76L51.94 32.63L52.06 32.76Q51.60 33.32 48.21 40.94L48.32 41.04L48.22 40.94Q47.74 41.14 46.52 41.07ZM51.14 43.48L51.09 43.43L51.00 43.34Q54.52 31.22 59.09 26.54L59.00 26.44L57.57 27.00L57.48 26.90Q56.65 27.10 55.81 27.22L55.79 27.19L55.97 27.37Q56.25 26.77 57.06 25.90L57.11 25.94L57.10 25.94Q57.93 25.07 58.39 24.65L58.40 24.66L58.42 24.68Q56.31 25.42 52.88 25.92L52.75 25.79L52.84 25.88Q50.09 29.03 48.04 34.63L48.09 34.69L47.95 34.54Q46.44 30.49 44.62 28.01L44.65 28.05L44.02 27.95L44.03 27.96Q43.74 27.94 43.51 27.94L43.41 27.84L43.59 28.01Q43.24 27.55 41.53 25.49L41.57 25.54L41.58 25.55Q38.27 25.09 36.03 23.95L36.03 23.95L36.05 23.98Q42.09 29.60 46.09 41.33L46.22 41.46L47.05 41.30L47.16 41.41Q47.47 42.02 48.31 43.32L48.38 43.38L49.79 43.43L49.75 43.39Q50.35 43.27 51.00 43.34Z"/></svg>