<svg xmlns="http://www.w3.org/2000/svg" width="150" height="50" viewBox="0,0,150,50"><path fill="#222" d="M76.92 41.02L76.83 40.93L76.93 41.02Q75.52 39.23 74.22 36.15L74.31 36.24L72.07 30.99L72.16 31.08Q70.45 34.96 69.84 36.26L69.89 36.31L69.98 36.40Q68.53 39.32 66.93 41.23L66.89 41.19L66.81 41.11Q66.51 41.19 65.75 41.30L65.78 41.34L65.81 41.37Q65.81 33.94 59.99 28.01L59.86 27.88L59.85 27.87Q58.11 26.05 56.09 24.56L56.23 24.70L56.23 24.70Q58.01 25.19 59.88 25.50L59.78 25.40L59.82 25.44Q65.99 30.50 67.43 36.74L67.43 36.75L67.46 36.78Q68.36 34.93 69.54 31.73L69.54 31.73L69.45 31.64Q70.82 27.91 71.39 26.62L71.35 26.58L72.84 26.66L72.75 26.57Q73.64 28.30 74.82 31.57L74.79 31.53L74.92 31.67Q76.18 35.25 76.83 36.66L76.73 36.56L76.74 36.57Q78.68 30.41 84.17 25.84L84.05 25.72L84.02 25.69Q85.21 25.59 87.95 25.02L88.04 25.11L88.03 25.09Q79.36 31.08 78.18 41.06L78.14 41.02L77.46 40.88L77.48 40.89Q77.28 41.00 76.94 41.03ZM79.78 43.34L81.85 43.54L81.97 43.66Q81.56 42.04 81.56 40.51L81.59 40.55L81.58 40.54Q81.51 37.23 82.92 34.00L82.98 34.06L82.93 34.00Q85.04 29.61 89.15 26.52L89.00 26.37L89.02 26.39Q87.82 26.68 85.96 27.02L85.92 26.99L85.92 26.98Q87.94 25.39 89.24 24.48L89.31 24.55L86.82 25.03L86.69 24.90Q85.60 25.26 84.27 25.41L84.27 25.41L84.14 25.28Q78.96 29.50 77.02 34.53L76.99 34.50L77.04 34.55Q76.48 32.47 75.11 28.21L75.04 28.13L75.16 28.26Q74.76 28.20 74.49 28.20L74.42 28.12L73.94 28.18L73.99 28.22Q73.75 27.79 72.95 26.04L73.03 26.13L70.97 26.12L71.07 26.22Q70.08 28.99 67.98 34.63L67.92 34.57L67.86 34.50Q66.63 30.92 63.55 27.65L63.58 27.67L63.48 27.57Q63.31 27.67 63.00 27.63L62.89 27.52L62.41 27.49L62.42 27.50Q61.59 26.72 59.80 25.12L59.77 25.08L59.72 25.04Q56.69 24.52 55.02 24.03L54.84 23.85L54.92 23.92Q65.63 31.36 65.25 41.68L65.32 41.75L65.34 41.77Q65.50 41.74 65.86 41.70L65.82 41.67L65.85 41.69Q66.10 41.54 66.29 41.54L66.48 41.73L66.38 41.63Q66.37 41.47 66.56 43.56L66.60 43.60L68.42 43.33L68.58 43.49Q71.04 40.54 73.28 34.79L73.26 34.76L73.35 34.86Q74.84 38.71 76.71 41.37L76.72 41.39L76.62 41.29Q77.05 41.37 77.32 41.39L77.29 41.37L77.21 41.29Q77.44 41.27 77.71 41.27L77.89 41.45L79.86 43.42Z"/><path fill="#444" d="M43.78 29.57L43.88 29.67L43.78 29.57Q43.82 33.87 43.09 38.02L43.05 37.98L43.18 38.11Q45.41 37.52 48.49 37.41L48.51 37.42L48.37 37.29Q49.74 37.51 50.80 36.50L50.80 36.50L50.91 36.60Q51.92 35.54 51.92 34.21L51.97 34.27L51.87 34.16Q51.84 33.82 51.80 33.56L51.82 33.58L51.97 33.73Q51.66 30.64 49.42 29.80L49.40 29.78L49.39 29.78Q48.79 29.63 48.11 29.71L48.07 29.68L47.95 29.56Q47.01 29.61 45.99 29.65L45.85 29.51L45.89 29.55Q44.87 29.64 43.84 29.64ZM42.56 19.14L42.62 19.20L42.68 19.26Q43.49 22.51 43.76 26.89L43.87 27.00L43.79 26.92Q45.18 26.98 47.85 27.01L47.79 26.96L47.94 27.11Q50.87 27.15 51.22 23.61L51.10 23.50L51.10 23.49Q51.40 21.66 49.99 20.82L49.96 20.79L49.99 20.82Q49.03 20.24 44.61 19.59L44.63 19.61L44.53 19.51Q43.52 19.42 42.61 19.19ZM38.93 42.04L38.93 42.05L38.96 42.08Q41.36 35.33 41.09 27.95L41.19 28.05L41.17 28.03Q40.82 20.67 37.88 14.20L37.98 14.29L37.99 14.31Q41.71 16.77 47.94 17.02L48.04 17.12L47.89 16.98Q54.28 17.39 54.62 20.28L54.50 20.16L54.57 20.23Q54.87 22.96 53.46 25.62L53.57 25.74L53.53 25.69Q52.65 27.06 51.05 27.75L51.15 27.84L51.10 27.80Q54.73 28.45 54.96 33.82L55.05 33.92L55.00 33.86Q55.09 34.98 55.01 36.39L54.97 36.35L55.02 36.39Q54.90 37.64 53.96 38.58L54.04 38.65L53.96 38.57Q53.13 39.61 51.79 39.76L51.72 39.69L51.83 39.79Q50.40 39.92 49.33 39.92L49.32 39.91L49.21 39.80Q43.42 39.72 38.89 42.01ZM51.80 42.43L51.78 42.41L51.67 42.30Q52.79 42.54 54.65 42.65L54.60 42.60L54.68 42.68Q56.09 42.72 57.20 41.85L57.19 41.84L57.12 41.77Q57.83 40.77 57.72 39.21L57.74 39.23L57.82 39.31Q57.80 38.42 57.08 34.95L57.08 34.96L57.04 34.91Q56.38 31.70 54.51 30.21L54.37 30.07L53.92 29.20L53.99 29.28Q55.78 27.98 56.35 24.21L56.29 24.16L56.19 24.06Q56.34 22.91 56.26 21.50L56.41 21.64L56.31 21.55Q56.26 20.24 55.15 19.40L55.24 19.49L55.27 19.52Q54.86 19.22 54.74 19.18L54.66 19.09L54.73 19.17Q54.51 18.68 53.68 17.88L53.60 17.81L53.73 17.94Q52.15 16.81 47.92 16.62L48.02 16.72L47.95 16.65Q41.39 16.45 37.40 13.56L37.34 13.50L37.23 13.39Q40.54 20.43 40.84 27.97L40.82 27.95L40.91 28.04Q41.28 35.91 38.46 42.84L38.48 42.85L40.47 41.84L40.51 41.88Q39.99 42.88 39.50 44.02L39.53 44.05L39.56 44.08Q43.93 42.29 48.96 42.29L48.81 42.15L48.83 42.16Q50.26 42.18 51.71 42.34ZM49.57 31.78L49.61 31.83L49.55 31.77Q50.45 31.86 51.36 32.32L51.33 32.29L51.34 32.30Q51.43 32.61 51.58 33.68L51.46 33.56L51.58 33.68Q51.72 35.00 50.79 36.05L50.83 36.09L50.85 36.11Q49.81 37.05 48.40 36.94L48.41 36.94L46.88 37.01L46.92 37.05Q46.29 37.22 45.57 37.34L45.45 37.22L45.55 37.32Q45.89 35.52 45.96 32.06L45.94 32.03L45.83 31.93Q46.48 31.86 47.74 31.82L47.68 31.76L47.69 31.77Q48.99 31.78 49.60 31.82ZM48.67 22.32L48.56 22.21L48.93 22.19L48.97 22.23Q49.14 22.18 49.33 22.22L49.33 22.22L49.88 22.38L50.10 22.42L50.69 22.47L50.78 22.57Q50.75 22.68 50.75 22.99L50.75 22.99L50.81 23.58L50.73 23.51Q50.74 24.77 49.86 25.70L49.99 25.83L50.03 25.87Q49.06 26.71 47.84 26.71L47.79 26.66L47.92 26.79Q46.82 26.71 46.82 26.71L46.72 26.62L46.92 26.81Q45.58 26.77 45.92 26.77L45.77 26.61L45.89 26.73Q45.71 25.07 45.40 22.02L45.42 22.04L45.43 22.05Q47.16 22.33 48.68 22.33Z"/><path fill="#222" d="M123.49 39.76L123.50 39.77L121.70 39.91L121.60 39.81Q120.72 39.87 119.76 39.99L119.67 39.89L119.69 39.91Q120.29 33.74 120.29 29.74L120.39 29.84L120.32 29.77Q116.28 23.03 108.62 14.35L108.64 14.36L108.78 14.50Q110.47 15.39 113.82 16.19L113.87 16.24L113.79 16.16Q118.97 21.87 121.98 27.09L121.93 27.04L121.90 27.01Q125.01 21.55 129.38 16.53L129.21 16.35L129.35 16.49Q131.67 16.00 134.19 15.20L134.15 15.16L134.29 15.31Q128.20 21.35 123.32 29.77L123.18 29.62L123.33 29.77Q123.36 36.85 123.66 39.93ZM132.62 17.21L135.36 14.39L135.48 14.51Q132.36 15.66 129.24 16.11L129.10 15.98L129.25 16.13Q124.90 20.72 122.08 25.82L122.10 25.84L122.19 25.93Q120.06 22.28 116.87 18.40L116.77 18.30L116.82 18.35Q116.57 18.37 116.07 18.29L116.07 18.29L116.08 18.29Q115.38 17.49 113.86 15.81L113.81 15.76L113.93 15.88Q110.47 15.05 107.50 13.49L107.49 13.48L107.58 13.56Q115.11 21.86 119.87 29.78L119.93 29.84L119.95 29.86Q119.87 36.21 119.26 40.36L119.29 40.39L119.28 40.38Q120.09 40.43 121.53 40.31L121.52 40.30L121.39 41.20L121.42 41.23Q121.44 41.70 121.36 42.24L121.36 42.24L121.28 42.15Q124.88 42.21 126.63 42.40L126.57 42.34L126.60 42.37Q125.40 37.75 125.29 31.77L125.23 31.71L125.30 31.79Q129.67 23.32 136.21 15.97L136.16 15.91L132.78 17.37Z"/><path fill="#222" d="M23.39 40.24L23.28 40.13L23.25 40.10Q21.42 40.07 19.75 40.64L19.72 40.62L19.86 40.75Q20.29 37.04 20.41 33.91L20.38 33.89L20.45 33.96Q20.62 30.96 20.39 27.31L20.30 27.22L20.24 27.16Q18.85 26.79 18.08 26.41L18.10 26.42L17.84 23.54L17.84 23.54Q18.54 24.13 20.14 24.70L20.05 24.61L20.08 24.64Q19.86 22.52 19.45 19.78L19.53 19.87L19.48 19.82Q21.86 20.60 23.50 20.45L23.36 20.30L23.34 25.01L23.21 24.88Q24.74 24.92 26.08 24.43L26.08 24.43L25.96 24.31Q25.98 25.28 25.75 27.03L25.73 27.02L25.73 27.02Q24.27 27.42 23.24 27.42L23.27 27.44L23.32 27.49Q23.19 29.54 23.19 33.80L23.13 33.74L23.32 33.93Q23.23 37.99 23.30 40.16ZM26.46 23.82L26.41 23.78L26.46 23.83Q26.25 24.00 25.64 24.23L25.49 24.08L25.93 21.36L26.00 21.42Q25.24 21.77 23.83 22.00L23.80 21.96L23.84 22.00Q23.81 21.29 23.96 19.92L23.97 19.93L23.95 19.90Q23.30 19.94 22.73 19.94L22.80 20.01L22.78 19.99Q20.62 19.97 18.99 19.25L18.86 19.11L18.99 19.25Q19.45 21.68 19.71 24.16L19.76 24.21L19.82 24.26Q18.85 23.83 17.33 22.80L17.28 22.75L17.30 22.78Q17.70 24.12 17.93 26.83L17.97 26.87L17.85 26.75Q18.32 26.99 19.50 27.41L19.55 27.46L19.61 27.52Q19.62 28.14 19.66 29.55L19.54 29.43L19.94 29.49L20.09 29.56L20.13 29.60Q20.22 30.87 20.22 32.05L20.04 31.87L20.20 32.03Q20.11 36.89 19.31 41.23L19.34 41.26L19.30 41.22Q19.58 41.19 21.52 40.66L21.48 40.62L21.38 40.52Q21.58 41.37 21.47 42.74L21.41 42.68L21.31 42.59Q22.18 42.58 22.98 42.58L23.08 42.68L23.05 42.64Q24.78 42.66 26.42 43.24L26.30 43.12L26.36 43.18Q25.06 37.50 25.25 29.58L25.22 29.55L27.62 29.17L27.64 29.19Q27.70 28.26 27.77 27.23L27.75 27.21L27.93 25.18L28.03 25.28Q27.30 25.39 26.12 25.84L26.10 25.82L26.25 25.98Q26.58 24.66 26.50 24.32L26.49 24.31L26.32 24.15Q26.47 24.10 26.55 23.91Z"/><path fill="#333" d="M103.72 37.96L103.57 37.81L103.77 38.00Q103.89 38.80 104.42 40.82L104.55 40.95L104.54 40.95Q100.36 39.65 95.75 39.92L95.65 39.82L95.59 39.76Q91.10 40.10 87.10 42.08L87.11 42.09L87.18 42.16Q87.25 41.32 87.29 41.40L87.35 41.46L87.40 41.50Q91.09 37.51 95.01 33.09L95.13 33.21L94.94 33.02Q99.47 28.15 100.65 23.46L100.59 23.40L100.63 23.44Q101.01 21.61 99.73 20.43L99.87 20.57L99.85 20.55Q98.53 19.33 96.74 19.48L96.72 19.46L96.70 19.44Q96.30 19.34 95.96 19.34L96.11 19.50L95.96 19.35Q94.60 19.50 93.34 20.42L93.22 20.29L93.26 20.34Q92.08 21.82 92.31 24.49L92.18 24.36L92.21 24.38Q90.50 24.12 89.28 23.67L89.19 23.58L89.18 23.57Q89.00 22.17 88.92 20.72L88.95 20.75L88.92 20.72Q88.90 19.13 89.51 17.99L89.57 18.05L89.50 17.98Q91.32 16.64 94.67 16.64L94.70 16.68L96.27 16.49L96.27 16.50Q98.55 16.53 99.50 16.64L99.62 16.75L99.69 16.83Q104.02 17.24 104.29 19.68L104.14 19.53L104.26 19.65Q104.24 20.12 104.17 20.92L104.14 20.90L104.20 20.95Q104.12 21.57 103.97 22.25L103.93 22.21L103.98 22.26Q102.41 30.44 94.84 37.29L94.86 37.31L94.83 37.29Q96.26 37.16 97.63 37.16L97.58 37.10L97.66 37.18Q100.75 37.04 103.61 37.84ZM103.05 17.03L103.07 17.05L103.20 17.18Q101.57 16.50 99.86 16.43L99.73 16.30L96.28 16.09L96.41 16.22Q92.00 15.99 89.79 17.10L89.77 17.07L89.66 16.96Q88.61 18.35 88.61 20.41L88.61 20.41L88.57 20.37Q88.60 21.08 88.91 23.90L88.90 23.90L88.98 23.97Q89.60 24.29 90.78 24.60L90.79 24.60L90.63 25.47L90.79 25.63Q90.64 25.98 90.72 26.51L90.70 26.50L90.82 26.61Q92.05 26.71 94.53 26.93L94.42 26.83L94.38 26.79Q94.44 26.50 94.44 26.16L94.42 26.14L94.40 26.12Q94.51 24.40 95.73 23.05L95.69 23.01L95.55 22.87Q96.82 21.58 98.61 21.69L98.67 21.75L98.68 21.76Q99.42 21.78 100.18 21.93L100.12 21.87L100.24 21.98Q100.27 22.28 100.35 22.70L100.31 22.66L100.40 22.75Q100.44 23.18 100.37 23.52L100.38 23.53L100.30 23.46Q98.98 28.15 94.57 32.99L94.62 33.04L94.70 33.12Q92.54 35.34 87.10 41.40L87.12 41.42L87.10 41.40Q86.96 42.29 86.62 42.86L86.48 42.72L86.52 42.76Q88.04 41.80 89.56 41.27L89.75 41.45L89.74 41.45Q88.86 41.86 87.91 43.34L88.06 43.50L87.89 43.33Q87.84 43.74 87.73 44.08L87.68 44.03L87.69 44.04Q92.57 41.99 98.05 42.18L98.05 42.18L98.08 42.21Q103.79 42.40 108.36 44.76L108.26 44.66L107.42 42.68L107.29 42.55Q106.75 41.32 106.48 40.52L106.36 40.41L106.44 40.48Q105.80 40.15 104.58 39.73L104.44 39.59L104.57 39.72Q104.39 38.96 104.01 37.59L103.91 37.49L104.03 37.62Q101.71 36.94 99.43 36.75L99.42 36.74L99.40 36.72Q104.08 32.14 105.60 23.88L105.60 23.88L105.82 21.02L105.93 21.13Q105.85 19.34 104.63 18.65L104.65 18.67L104.62 18.68L104.51 18.57Q104.50 18.52 104.42 18.52L104.34 18.43L104.35 18.45Q104.18 17.66 103.07 17.05Z"/></svg>