<svg xmlns="http://www.w3.org/2000/svg" width="150" height="50" viewBox="0,0,150,50"><path fill="#333" d="M24.92 39.85L24.91 39.84L22.92 39.79L22.88 39.75Q22.09 39.92 21.14 40.03L21.02 39.91L20.99 39.88Q21.58 33.70 21.58 29.70L21.56 29.68L21.73 29.85Q17.68 23.09 10.03 14.41L10.03 14.42L10.12 14.51Q11.88 15.47 15.23 16.27L15.20 16.23L15.20 16.24Q20.14 21.71 23.15 26.92L23.22 27.00L23.20 26.97Q26.23 21.44 30.61 16.42L30.57 16.38L30.70 16.51Q33.11 16.10 35.62 15.30L35.62 15.30L35.45 15.13Q29.56 21.39 24.69 29.80L24.65 29.76L24.64 29.75Q24.66 36.81 24.96 39.89ZM34.08 17.34L36.78 14.48L36.81 14.51Q33.58 15.54 30.46 16.00L30.54 16.08L30.48 16.03Q26.23 20.72 23.41 25.82L23.40 25.81L23.48 25.89Q21.29 22.17 18.09 18.29L18.22 18.42L18.19 18.39Q17.95 18.42 17.46 18.34L17.33 18.22L17.34 18.22Q16.66 17.43 15.14 15.76L15.07 15.69L15.13 15.75Q11.85 15.10 8.88 13.54L8.91 13.56L8.82 13.47Q16.48 21.90 21.24 29.82L21.35 29.93L21.22 29.80Q21.28 36.28 20.67 40.43L20.54 40.31L20.57 40.33Q21.35 40.36 22.80 40.24L22.81 40.25L22.81 41.29L22.84 41.31Q22.75 41.68 22.67 42.21L22.77 42.31L22.72 42.26Q26.20 42.20 27.95 42.39L27.97 42.41L28.03 42.46Q26.80 37.81 26.69 31.84L26.55 31.70L26.53 31.68Q30.95 23.27 37.50 15.92L37.49 15.92L33.94 17.20Z"/><path fill="#444" d="M71.97 30.39L72.09 30.51L71.95 30.37Q68.53 36.78 65.11 40.74L65.16 40.79L65.00 40.63Q63.15 41.06 60.71 41.94L60.71 41.93L60.70 41.93Q65.71 36.43 70.47 28.01L70.54 28.09L70.43 27.97Q65.85 21.04 59.88 14.64L59.92 14.68L59.79 14.56Q62.74 15.80 65.03 16.29L65.11 16.38L65.13 16.39Q69.72 21.56 72.15 25.51L72.20 25.56L72.11 25.47Q74.60 21.03 78.52 16.61L78.68 16.77L78.65 16.75Q80.29 16.48 83.48 15.71L83.41 15.64L83.46 15.69Q77.27 22.03 73.81 27.97L73.91 28.07L73.88 28.04Q78.98 36.64 83.36 41.21L83.31 41.16L83.47 41.33Q80.79 40.43 78.70 40.20L78.65 40.16L78.80 40.30Q75.92 37.24 72.00 30.43ZM78.59 40.51L78.68 40.61L78.60 40.52Q79.04 40.70 79.49 40.81L79.45 40.76L79.42 40.73Q80.25 41.53 81.78 43.13L81.76 43.11L81.81 43.16Q85.09 43.89 88.13 45.26L88.03 45.16L88.07 45.20Q80.95 38.61 75.85 29.86L75.84 29.85L75.90 29.91Q79.65 23.27 85.55 16.42L85.53 16.39L85.50 16.37Q84.10 17.05 81.93 17.59L81.88 17.54L81.83 17.48Q82.73 16.60 84.48 14.81L84.64 14.97L84.47 14.80Q82.19 15.79 78.49 16.36L78.41 16.27L78.38 16.25Q74.98 20.08 72.39 24.38L72.35 24.33L72.36 24.35Q71.54 22.85 70.36 21.36L70.26 21.26L68.05 18.40L67.61 18.34L67.60 18.34Q67.59 18.48 67.37 18.40L67.23 18.27L67.30 18.34Q66.56 17.45 65.08 15.89L65.10 15.91L65.23 16.04Q61.24 14.98 58.65 13.61L58.74 13.70L58.66 13.62Q65.46 20.95 70.03 27.99L70.07 28.04L70.01 27.98Q65.62 36.27 59.87 42.85L59.80 42.77L59.83 42.81Q61.11 42.11 63.25 41.54L63.20 41.50L61.97 43.01L61.88 42.92Q61.97 43.01 60.64 44.34L60.72 44.42L60.65 44.35Q63.58 43.20 66.74 42.71L66.80 42.77L66.72 42.69Q70.84 38.28 73.43 33.53L73.38 33.48L73.37 33.46Q76.02 37.80 78.73 40.65Z"/><path fill="#222" d="M124.66 29.49L124.61 29.43L124.66 29.48Q123.41 28.65 122.76 28.69L122.91 28.84L122.83 28.76Q121.52 28.90 120.47 29.90L120.41 29.84L120.40 29.83Q119.29 30.78 119.41 32.15L119.46 32.21L119.53 32.27Q119.75 36.53 118.87 41.06L118.98 41.16L118.86 41.04Q116.79 41.65 115.69 42.18L115.51 42.00L115.70 42.19Q117.05 37.87 116.83 33.42L116.91 33.50L116.78 33.37Q116.61 28.94 114.90 24.87L114.89 24.86L114.84 24.80Q116.08 25.59 118.36 26.23L118.34 26.21L118.89 28.89L118.92 28.93Q119.52 25.95 123.79 25.95L123.88 26.04L123.89 26.05Q124.34 26.04 124.64 26.04L124.54 25.94L124.55 25.95Q125.83 25.93 127.09 26.62L127.14 26.68L127.07 26.60Q125.73 27.93 124.59 29.42ZM126.33 31.54L126.41 31.47L126.33 31.39Q127.34 30.34 129.01 27.90L128.90 27.78L128.89 27.78Q128.38 27.38 126.85 27.11L126.85 27.11L127.04 27.29Q127.22 26.83 127.68 26.22L127.70 26.24L127.66 26.20Q125.82 25.35 123.88 25.54L123.89 25.55L123.81 25.47Q122.06 25.86 121.34 26.13L121.20 25.99L121.32 26.11Q119.87 26.49 119.07 27.59L119.02 27.54L118.87 26.74L118.72 25.94L118.62 25.84Q116.33 25.53 114.35 24.20L114.25 24.11L114.20 24.05Q116.33 28.43 116.56 33.30L116.54 33.28L116.57 33.31Q116.90 38.32 115.15 42.85L115.08 42.78L115.17 42.88Q116.27 42.41 117.14 42.11L116.99 41.96L116.96 41.93Q116.82 43.16 116.33 44.22L116.20 44.09L116.19 44.09Q119.05 43.25 121.18 43.14L121.18 43.14L121.43 38.66L121.56 38.80Q121.68 36.56 121.68 34.31L121.56 34.20L121.63 34.26Q121.56 33.01 122.47 32.04L122.46 32.02L122.52 32.09Q123.45 31.14 124.60 31.06L124.61 31.07L124.60 31.06Q125.18 30.88 125.90 31.57L125.93 31.59L126.21 31.42ZM121.26 29.66L121.41 29.73L121.18 29.63L121.22 29.62Z"/><path fill="#333" d="M43.85 29.65L43.90 29.70L43.82 29.62Q43.89 33.94 43.16 38.09L43.07 37.99L43.07 38.00Q45.39 37.50 48.48 37.39L48.56 37.47L48.38 37.30Q49.86 37.63 50.93 36.62L50.84 36.54L50.93 36.62Q52.01 35.63 52.01 34.30L51.97 34.26L51.97 34.26Q51.99 33.97 51.95 33.71L51.98 33.74L51.80 33.56Q51.73 30.71 49.49 29.87L49.49 29.88L49.48 29.87Q48.65 29.49 47.96 29.57L48.00 29.61L47.97 29.57Q47.02 29.61 45.99 29.65L45.96 29.62L46.01 29.67Q44.92 29.68 43.89 29.68ZM42.55 19.13L42.69 19.27L42.57 19.15Q43.55 22.57 43.82 26.94L43.85 26.98L43.74 26.87Q45.28 27.07 47.94 27.11L47.87 27.04L47.88 27.05Q50.79 27.06 51.13 23.52L51.25 23.64L51.19 23.59Q51.41 21.67 50.00 20.84L49.94 20.77L50.00 20.83Q49.06 20.27 44.64 19.63L44.63 19.62L44.52 19.50Q43.60 19.49 42.69 19.27ZM39.00 42.12L38.98 42.09L38.97 42.08Q41.54 35.52 41.27 28.13L41.14 28.00L41.24 28.10Q40.90 20.75 37.97 14.28L37.85 14.17L38.00 14.32Q41.73 16.78 47.95 17.03L48.05 17.13L48.00 17.08Q54.14 17.24 54.48 20.13L54.57 20.23L54.49 20.15Q54.85 22.94 53.44 25.60L53.57 25.74L53.40 25.56Q52.72 27.13 51.12 27.81L51.05 27.75L51.17 27.86Q54.77 28.49 55.00 33.86L55.01 33.87L54.97 33.84Q55.02 34.91 54.94 36.32L54.97 36.34L54.99 36.37Q54.89 37.64 53.96 38.57L53.94 38.55L54.00 38.62Q53.17 39.65 51.84 39.81L51.75 39.72L51.78 39.74Q50.41 39.94 49.35 39.94L49.30 39.89L49.26 39.85Q43.43 39.73 38.90 42.01ZM51.79 42.41L51.76 42.39L51.72 42.35Q52.75 42.50 54.61 42.61L54.68 42.68L54.54 42.54Q55.90 42.53 57.00 41.65L57.09 41.74L57.16 41.81Q57.92 40.85 57.80 39.29L57.78 39.27L57.83 39.32Q57.78 38.40 57.06 34.93L56.89 34.77L56.97 34.84Q56.24 31.57 54.38 30.08L54.53 30.23L54.07 29.36L54.11 29.40Q55.75 27.95 56.32 24.18L56.21 24.08L56.20 24.06Q56.36 22.93 56.28 21.52L56.31 21.54L56.41 21.65Q56.37 20.35 55.26 19.51L55.29 19.54L55.11 19.35Q54.93 19.29 54.81 19.25L54.70 19.14L54.75 19.18Q54.43 18.60 53.59 17.80L53.61 17.82L53.75 17.96Q52.19 16.86 47.97 16.67L47.98 16.68L47.89 16.59Q41.27 16.32 37.27 13.43L37.35 13.51L37.22 13.38Q40.48 20.38 40.79 27.91L40.86 27.98L40.80 27.92Q41.13 35.76 38.32 42.69L38.42 42.79L40.40 41.76L40.40 41.77Q40.17 43.06 39.68 44.20L39.64 44.16L39.63 44.16Q43.95 42.30 48.97 42.30L48.86 42.19L48.94 42.27Q50.24 42.17 51.69 42.32ZM49.71 31.92L49.67 31.89L49.71 31.93Q50.40 31.82 51.31 32.27L51.22 32.17L51.31 32.27Q51.47 32.66 51.63 33.73L51.48 33.58L51.64 33.74Q51.68 34.96 50.75 36.01L50.79 36.05L50.76 36.02Q49.82 37.06 48.42 36.95L48.39 36.92L47.02 37.15L46.96 37.09Q46.16 37.09 45.43 37.20L45.42 37.19L45.50 37.27Q45.76 35.40 45.84 31.93L45.95 32.04L45.81 31.90Q46.43 31.80 47.69 31.77L47.86 31.94L47.76 31.84Q48.96 31.74 49.57 31.78ZM48.57 22.22L48.53 22.18L48.91 22.18L49.00 22.27Q49.24 22.28 49.43 22.32L49.42 22.30L49.76 22.26L50.07 22.39L50.73 22.51L50.79 22.57Q50.82 22.75 50.82 23.06L50.79 23.03L50.85 23.62L50.75 23.52Q50.76 24.79 49.89 25.73L49.97 25.81L49.99 25.83Q49.15 26.79 47.93 26.79L47.77 26.63L47.92 26.78Q46.80 26.70 46.80 26.70L46.79 26.68L46.77 26.67Q45.57 26.76 45.91 26.76L45.76 26.60L45.85 26.69Q45.77 25.13 45.47 22.09L45.57 22.19L45.59 22.20Q47.09 22.27 48.62 22.27Z"/><path fill="#111" d="M95.87 19.57L96.06 19.77L95.92 19.62Q93.94 19.74 92.99 19.89L93.03 19.94L92.93 19.84Q91.49 20.26 90.28 20.80L90.15 20.67L90.21 20.74Q86.67 22.14 86.56 26.82L86.60 26.87L86.50 26.77Q86.50 29.51 87.15 32.44L87.17 32.47L87.09 32.38Q87.91 36.36 91.53 37.54L91.64 37.66L91.62 37.63Q93.58 38.26 95.03 38.11L94.96 38.04L95.48 38.11L95.49 38.12Q95.57 38.00 95.76 38.04L95.80 38.09L95.81 38.09Q95.83 37.97 95.99 37.93L96.06 38.00L96.17 38.12Q98.66 37.71 100.03 37.14L100.13 37.24L96.58 33.72L96.45 33.60Q96.90 33.39 97.50 32.78L97.38 32.66L98.38 31.83L98.37 31.83Q100.28 33.96 102.26 36.02L102.12 35.88L102.15 35.91Q104.56 34.17 104.83 28.80L104.78 28.75L104.74 28.71Q104.88 27.86 104.88 26.95L104.74 26.81L104.79 26.86Q104.80 21.20 99.74 20.09L99.78 20.13L99.80 20.16Q98.40 19.74 95.89 19.59ZM108.65 41.65L108.71 41.70L108.78 41.77Q108.21 42.23 107.03 43.11L107.02 43.10L102.59 39.39L102.50 39.30Q100.16 40.66 95.90 40.70L95.82 40.61L95.78 40.58Q89.24 40.70 86.43 38.46L86.46 38.49L86.53 38.56Q84.70 36.73 84.24 33.76L84.16 33.68L84.18 33.70Q84.01 31.93 83.63 28.35L83.67 28.39L83.62 28.34Q83.67 27.67 83.55 25.91L83.57 25.93L83.44 25.80Q83.45 24.40 83.49 23.53L83.50 23.54L83.43 23.47Q83.45 20.33 85.20 18.77L85.20 18.77L85.31 18.88Q86.77 17.48 89.97 16.98L89.90 16.92L89.91 16.92Q92.51 16.67 95.40 16.75L95.39 16.74L95.27 16.62Q102.76 16.72 105.88 19.08L105.91 19.11L106.00 19.20Q108.05 21.22 107.79 26.13L107.84 26.18L107.96 26.30Q107.72 29.91 107.53 31.24L107.49 31.19L107.49 31.20Q106.79 35.64 104.47 37.96L104.48 37.97L104.60 38.09Q105.89 39.15 108.63 41.62ZM103.95 17.53L103.91 17.49L103.94 17.52Q101.92 16.80 95.41 16.30L95.33 16.22L95.42 16.31Q93.89 16.19 91.12 16.31L91.15 16.34L91.15 16.34Q87.05 16.69 84.80 18.67L84.82 18.69L84.70 18.57Q82.98 19.97 82.98 23.13L83.08 23.23L83.09 23.24Q83.01 24.00 83.16 25.71L83.13 25.68L83.19 25.74Q83.46 27.57 83.46 28.45L83.38 28.37L83.38 28.37Q83.56 30.14 83.94 33.72L83.91 33.69L83.86 33.64Q84.29 36.59 85.89 38.64L85.89 38.64L85.92 38.67Q86.15 39.40 87.37 40.54L87.33 40.50L87.34 40.51Q90.11 42.56 95.28 42.82L95.39 42.93L95.41 42.95Q95.61 42.80 98.01 42.92L98.03 42.94L98.08 42.99Q102.80 43.06 105.08 42.00L105.20 42.12L105.20 42.12Q106.04 42.76 110.76 46.34L110.74 46.32L110.76 46.35Q111.30 45.75 112.60 44.76L112.71 44.87L112.65 44.81Q111.66 44.01 110.87 43.33L110.99 43.45L109.23 41.89L109.39 41.89L109.33 41.83Q108.78 41.40 107.56 40.37L107.52 40.32L107.56 40.37Q109.53 37.91 109.53 33.38L109.61 33.47L109.51 33.37Q109.62 33.06 109.65 32.22L109.57 32.14L109.47 32.03Q109.56 31.25 109.56 30.83L109.60 30.87L109.58 30.85Q109.55 25.30 108.83 22.94L108.79 22.90L108.95 23.06Q108.43 21.63 107.55 20.56L107.62 20.63L107.71 20.72Q106.75 18.43 103.82 17.40ZM97.87 22.03L97.90 22.06L97.82 21.98Q101.94 21.95 103.77 23.55L103.68 23.46L103.70 23.49Q104.34 24.78 104.46 26.11L104.50 26.15L104.36 26.02Q104.54 27.37 104.46 28.74L104.48 28.75L104.47 28.75Q104.09 33.66 102.15 35.37L102.12 35.34L102.27 35.49Q100.83 34.05 98.32 31.31L98.32 31.32L98.41 31.41Q97.63 32.15 96.07 33.71L95.99 33.63L96.06 33.70Q96.58 34.26 97.72 35.44L97.78 35.50L97.72 35.55L97.63 35.46Q98.27 36.06 99.29 37.12L99.14 36.97L99.33 37.16Q98.29 37.37 95.97 37.68L96.01 37.72L95.49 37.73L94.94 37.60L94.89 37.59L94.95 37.65Q91.41 37.58 89.43 35.94L89.52 36.03L89.56 36.07Q88.49 33.93 88.52 30.81L88.54 30.82L88.59 30.87Q88.61 22.03 97.79 21.95Z"/></svg>