<svg xmlns="http://www.w3.org/2000/svg" width="150" height="50" viewBox="0,0,150,50"><path fill="#333" d="M68.93 26.74L68.97 26.79L69.11 26.92Q70.71 26.89 72.54 26.89L72.63 26.98L72.58 26.93Q74.34 26.90 76.17 26.75L76.29 26.87L76.30 26.89Q76.23 27.57 76.23 28.29L76.06 28.13L76.15 29.55L76.19 29.59Q73.86 29.62 69.10 29.73L69.03 29.66L68.92 29.56Q69.02 35.59 67.88 40.58L67.85 40.55L67.92 40.62Q65.57 41.17 64.09 41.97L64.24 42.12L64.18 42.06Q66.58 35.32 66.31 28.20L66.32 28.21L66.26 28.15Q65.91 20.90 63.24 14.24L63.37 14.37L63.34 14.34Q67.05 16.91 71.81 17.14L71.68 17.01L71.72 17.05Q76.50 17.33 80.65 15.58L80.54 15.48L80.46 15.40Q80.34 16.38 80.11 17.18L80.15 17.21L79.50 18.66L79.59 18.75Q76.80 19.76 73.83 19.92L73.92 20.01L73.79 19.88Q71.02 20.20 68.17 19.47L68.02 19.32L68.00 19.30Q68.79 22.79 68.98 26.79ZM81.12 14.72L81.11 14.71L81.29 14.90Q76.61 16.95 71.73 16.64L71.63 16.54L71.81 16.72Q66.31 16.25 62.58 13.39L62.66 13.47L62.72 13.53Q65.57 20.46 65.88 28.07L65.92 28.12L65.91 28.10Q66.14 35.94 63.62 42.72L63.66 42.76L63.62 42.72Q64.40 42.43 65.77 41.78L65.70 41.72L65.70 41.71Q65.55 42.51 64.98 44.04L64.86 43.92L64.98 44.03Q67.19 42.86 70.08 42.37L70.11 42.39L70.17 42.46Q70.81 37.61 71.00 31.90L70.99 31.89L70.97 31.87Q72.74 31.81 74.56 31.81L74.58 31.83L74.51 31.75Q76.28 31.74 78.11 31.93L78.20 32.02L78.15 31.97Q78.04 31.02 78.04 30.11L78.06 30.13L78.07 28.23L78.16 28.32Q77.27 28.30 76.43 28.30L76.57 28.45L76.38 28.25Q76.56 27.56 76.63 26.53L76.61 26.51L76.62 26.52Q75.17 26.63 73.76 26.63L73.86 26.73L73.73 26.60Q72.41 26.68 71.04 26.64L70.99 26.59L71.01 24.48L70.93 24.40Q70.82 23.23 70.71 22.17L70.69 22.15L70.84 22.30Q71.69 22.24 72.68 22.24L72.67 22.23L72.83 22.38Q77.49 22.29 81.11 20.38L81.17 20.44L81.18 20.45Q81.63 18.58 82.54 15.96L82.57 15.98L82.47 15.89Q81.17 16.72 80.37 17.06L80.47 17.16L80.38 17.07Q80.71 16.37 81.20 14.80Z"/><path fill="#222" d="M21.83 41.05L21.84 41.05L21.73 40.95Q17.72 29.86 12.58 24.87L12.45 24.73L12.56 24.84Q13.85 25.30 16.82 25.95L16.83 25.96L16.99 26.12Q20.49 30.00 23.04 36.66L23.05 36.67L23.06 36.68Q25.70 29.31 28.33 26.26L28.32 26.26L28.36 26.30Q30.31 26.15 32.74 25.46L32.63 25.34L32.73 25.45Q29.50 28.12 27.33 32.68L27.33 32.68L27.25 32.61Q27.04 33.43 23.66 41.04L23.61 41.00L23.56 40.95Q23.06 41.14 21.85 41.06ZM26.37 43.38L26.48 43.49L26.37 43.38Q29.86 31.22 34.42 26.53L34.39 26.50L32.88 26.97L32.85 26.94Q32.01 27.13 31.17 27.24L31.30 27.37L31.24 27.31Q31.70 26.89 32.52 26.02L32.39 25.89L32.51 26.01Q33.29 25.10 33.75 24.68L33.75 24.68L33.78 24.71Q31.54 25.33 28.11 25.82L28.08 25.79L28.20 25.90Q25.37 28.97 23.31 34.57L23.32 34.57L23.42 34.68Q21.80 30.51 19.97 28.03L19.94 28.00L19.45 28.04L19.29 27.89Q19.06 27.92 18.83 27.92L18.79 27.88L18.77 27.86Q18.73 27.71 17.02 25.65L16.88 25.51L16.88 25.51Q13.59 25.08 11.34 23.94L11.40 23.99L11.36 23.95Q17.48 29.65 21.47 41.38L21.37 41.27L22.47 41.38L22.38 41.29Q22.85 42.07 23.69 43.36L23.69 43.37L25.09 43.40L25.02 43.33Q25.80 43.38 26.45 43.45Z"/><path fill="#111" d="M48.80 32.10L39.56 22.10L39.68 22.22Q40.41 25.80 40.41 29.53L40.43 29.56L40.41 29.53Q40.35 35.45 38.30 41.01L38.48 41.20L38.47 41.18Q37.31 41.35 35.06 42.11L34.99 42.05L35.02 42.07Q37.90 36.35 37.90 29.65L37.83 29.58L37.86 29.61Q37.82 20.93 33.33 13.51L33.50 13.67L33.41 13.58Q33.81 13.72 34.50 14.14L34.49 14.13L34.60 14.25Q46.52 25.29 54.37 34.54L54.37 34.55L54.48 34.65Q54.22 32.27 54.22 29.83L54.06 29.67L54.24 29.85Q54.23 22.61 56.74 16.40L56.63 16.29L56.66 16.32Q58.89 15.70 60.49 15.01L60.52 15.04L60.61 15.13Q57.26 21.26 56.95 28.41L57.02 28.48L56.99 28.45Q56.68 35.79 59.65 41.96L59.57 41.88L59.58 41.89Q59.06 41.87 58.64 41.68L58.70 41.73L58.59 41.63Q54.17 37.81 48.95 32.25L48.80 32.10ZM62.25 45.13L62.27 45.15L62.22 45.10Q62.72 45.30 63.14 45.49L63.08 45.43L64.09 45.94L63.95 45.80Q58.91 38.97 58.91 29.61L58.89 29.59L58.83 29.53Q58.90 22.37 62.22 16.13L62.04 15.95L62.20 16.12Q61.47 16.25 60.06 16.86L59.99 16.80L60.01 16.81Q60.56 16.14 61.40 14.58L61.25 14.44L61.30 14.48Q58.78 15.31 56.34 15.89L56.40 15.95L56.43 15.98Q53.77 22.41 53.77 29.84L53.83 29.90L53.76 29.82Q53.82 31.76 54.01 33.74L53.95 33.67L53.87 33.60Q49.31 28.01 44.55 23.40L44.64 23.49L34.46 13.69L34.48 13.70Q33.90 13.39 32.68 12.82L32.61 12.75L32.73 12.87Q37.54 20.54 37.54 29.63L37.57 29.66L37.52 29.62Q37.58 36.80 34.50 42.81L34.50 42.81L34.39 42.70Q34.83 42.73 36.47 42.12L36.34 41.98L36.36 42.01Q36.04 42.79 35.20 44.27L35.28 44.35L35.17 44.25Q36.65 43.86 40.11 43.06L40.09 43.03L40.11 43.05Q42.48 36.97 42.48 29.77L42.43 29.73L42.45 29.75Q42.36 27.57 42.14 25.43L42.21 25.51L42.10 25.40Q53.66 38.30 62.27 45.15Z"/><path fill="#222" d="M97.39 40.13L97.40 40.14L95.32 40.34L95.31 40.33Q94.90 40.38 93.93 40.44L93.80 40.31L93.77 40.28Q92.84 40.38 92.34 40.38L92.38 40.41L92.31 40.35Q90.75 40.42 89.72 39.58L89.68 39.54L89.81 39.67Q90.44 38.40 92.08 36.27L92.08 36.27L92.19 36.38Q93.47 37.96 95.68 37.73L95.69 37.75L95.71 37.77Q96.55 37.57 97.19 36.93L97.08 36.82L97.22 36.95Q97.82 36.26 97.71 35.39L97.63 35.31L97.81 35.48Q97.67 30.86 97.75 26.29L97.68 26.22L97.62 26.16Q97.77 21.67 98.30 17.06L98.21 16.96L98.22 16.97Q100.28 16.91 102.42 15.88L102.34 15.80L102.40 15.86Q100.43 22.50 100.43 29.73L100.49 29.80L100.46 29.77Q100.50 33.34 100.96 36.85L100.94 36.83L100.85 36.74Q101.06 37.22 101.06 37.56L100.96 37.46L101.04 37.54Q101.05 38.12 100.83 38.66L100.84 38.67L100.81 38.64Q100.13 39.79 97.31 40.05ZM102.34 42.99L102.26 42.90L102.61 42.92L102.90 42.79L103.29 42.80L103.17 42.67Q103.57 42.50 103.64 42.39L103.51 42.25L103.56 42.30Q103.76 41.13 103.49 40.14L103.47 40.12L103.52 40.17Q102.18 34.38 102.45 28.02L102.47 28.04L102.49 28.06Q102.76 21.98 104.55 16.08L104.54 16.06L104.51 16.03Q103.54 16.58 102.28 17.31L102.29 17.32L102.34 17.37Q102.51 16.58 102.93 15.06L102.88 15.01L102.97 15.11Q100.46 16.44 97.80 16.75L97.85 16.80L97.85 16.80Q97.46 21.17 97.39 26.12L97.30 26.03L97.41 26.15Q97.34 32.05 97.42 35.48L97.25 35.31L97.43 35.49Q97.30 37.08 95.55 37.23L95.67 37.34L95.60 37.28Q93.84 37.34 92.16 35.70L92.24 35.79L92.25 35.79Q90.26 38.36 89.30 39.93L89.22 39.84L89.29 39.91Q89.86 40.48 90.89 40.71L90.92 40.74L90.83 40.65Q90.83 40.88 90.56 41.11L90.60 41.14L90.59 41.14Q91.95 42.00 93.93 42.26L93.89 42.23L93.97 42.30Q94.46 42.46 97.75 42.76L97.74 42.75L97.56 42.57Q101.03 43.05 102.40 43.05Z"/><path fill="#333" d="M113.86 15.95L113.69 15.78L113.83 15.91Q115.77 20.83 116.35 26.01L116.35 26.01L116.16 25.82Q119.96 21.78 125.86 16.94L125.78 16.86L125.85 16.94Q129.05 16.63 131.68 15.83L131.62 15.78L125.04 21.38L125.14 21.47Q121.69 24.39 118.84 27.24L118.81 27.22L118.89 27.30Q126.86 36.45 131.93 41.17L131.78 41.02L131.83 41.07Q128.86 40.27 126.53 40.12L126.46 40.05L126.51 40.09Q120.76 34.72 116.46 28.90L116.45 28.89L116.34 28.78Q116.47 35.42 114.60 40.75L114.67 40.82L114.71 40.85Q114.42 40.83 113.93 41.02L113.88 40.98L113.88 41.17L113.81 41.10Q113.61 41.12 111.05 42.03L111.17 42.15L111.06 42.04Q113.99 35.45 113.65 27.99L113.75 28.10L113.72 28.06Q113.32 20.66 109.78 14.15L109.92 14.29L110.37 14.47L110.87 14.85L110.77 14.72L110.85 14.80Q111.63 15.24 113.84 15.93ZM114.06 15.58L113.99 15.51L114.06 15.58Q111.71 14.93 109.08 13.41L109.13 13.47L109.09 13.42Q113.35 20.69 113.35 29.64L113.34 29.63L113.52 29.80Q113.48 36.77 110.51 42.82L110.46 42.77L112.55 41.97L112.43 41.85Q112.12 42.95 111.43 44.24L111.46 44.26L111.36 44.16Q113.70 43.46 115.64 43.05L115.65 43.05L115.72 42.89L115.73 42.90Q115.87 42.74 116.44 42.58L116.44 42.59L116.48 42.63Q118.06 36.63 118.18 31.84L118.31 31.97L118.17 31.83Q120.44 34.52 122.27 36.39L122.28 36.40L122.16 36.27Q123.27 37.31 126.28 40.28L126.32 40.32L126.38 40.38L126.38 40.38Q127.34 41.15 129.20 42.75L129.32 42.87L129.35 42.89Q133.10 43.49 136.57 45.20L136.55 45.18L136.53 45.16Q127.41 36.77 121.17 29.34L120.99 29.17L121.10 29.28Q125.51 25.00 134.26 16.40L134.21 16.35L134.24 16.38Q131.79 17.62 129.77 18.00L129.78 18.01L129.78 18.01Q130.99 17.01 133.31 14.99L133.22 14.90L133.31 14.99Q129.11 16.31 125.76 16.50L125.75 16.49L125.80 16.54Q122.77 18.65 117.89 23.33L117.88 23.32L118.06 23.49Q117.59 20.82 117.02 18.26L117.05 18.29L116.98 18.23Q115.91 18.18 114.92 17.84L114.91 17.83L114.87 17.79Q114.56 16.95 113.99 15.51Z"/></svg>