<svg xmlns="http://www.w3.org/2000/svg" width="150" height="50" viewBox="0,0,150,50"><path fill="#222" d="M21.88 41.14L21.95 41.21L20.08 41.05L20.24 41.20Q16.85 41.21 15.90 39.08L15.74 38.92L15.92 39.10Q17.10 38.07 18.55 36.96L18.55 36.97L18.39 36.81Q18.97 38.99 21.83 38.83L21.84 38.84L21.94 38.94Q22.59 38.76 23.62 38.53L23.78 38.69L23.78 38.69Q24.68 38.15 24.61 37.20L24.61 37.20L24.52 37.11Q24.57 36.14 22.79 35.45L22.60 35.26L18.91 33.86L18.79 33.74Q16.63 32.57 16.29 29.03L16.31 29.05L16.25 28.99Q15.99 26.80 18.16 26.22L18.29 26.35L18.29 26.35Q19.09 25.97 22.06 25.97L22.18 26.09L22.08 25.99Q26.90 25.94 27.82 28.45L27.93 28.57L27.81 28.45Q27.33 29.14 26.60 29.60L26.59 29.59L25.17 30.53L25.14 30.50Q24.54 28.49 21.30 28.26L21.43 28.39L21.43 28.38Q20.80 28.37 19.77 28.79L19.86 28.88L19.87 28.88Q19.16 29.08 19.16 30.19L19.16 30.19L19.30 30.33Q19.59 31.35 21.42 32.03L21.34 31.95L21.46 32.07Q22.48 32.41 25.15 33.51L25.22 33.58L25.13 33.50Q26.95 34.33 27.14 36.88L27.07 36.81L27.16 36.90Q27.28 37.59 27.20 38.58L27.15 38.52L27.06 38.44Q27.07 39.36 26.50 40.01L26.46 39.96L26.47 39.97Q24.91 41.12 21.86 41.12ZM26.56 43.64L26.73 43.81L26.65 43.73Q27.52 43.73 28.89 43.43L29.02 43.55L28.99 43.52Q29.96 42.74 29.77 41.52L29.84 41.59L29.78 41.54Q29.77 41.03 29.47 39.43L29.42 39.39L29.52 39.48Q28.85 36.42 27.06 35.20L27.12 35.26L27.05 35.19Q26.50 33.77 25.25 33.04L25.25 33.05L25.25 33.05Q24.09 32.73 21.62 31.77L21.61 31.76L21.52 31.67Q21.72 31.27 21.99 31.15L22.02 31.19L21.98 31.15Q22.55 30.65 23.19 30.61L23.19 30.61L23.32 30.73Q24.00 30.58 24.76 30.85L24.76 30.85L24.87 31.03L24.86 30.90L25.26 31.11L25.25 31.14L25.10 31.00Q26.19 31.47 26.38 32.73L26.40 32.75L26.38 32.73Q27.73 31.98 29.63 30.31L29.52 30.20L29.59 30.26Q29.40 29.62 28.41 28.44L28.29 28.32L28.27 28.30Q27.24 25.71 22.14 25.60L22.09 25.55L22.09 25.54Q18.97 25.55 16.99 26.12L16.90 26.03L17.00 26.12Q15.64 26.75 15.87 28.84L15.82 28.79L15.78 28.76Q15.89 30.01 16.81 32.10L16.87 32.17L16.88 32.17Q17.29 33.15 18.31 33.88L18.44 34.01L18.40 33.96Q18.97 35.33 20.27 36.02L20.34 36.09L20.33 36.08Q21.34 36.41 22.29 36.79L22.32 36.82L24.24 37.59L24.23 37.58Q23.84 38.64 21.90 38.53L21.96 38.59L21.92 38.54Q21.39 38.51 20.17 38.20L20.27 38.30L20.12 38.00L20.01 38.12L20.10 38.21Q19.16 37.77 18.52 36.29L18.52 36.29L18.54 36.31Q16.37 37.83 15.27 38.97L15.32 39.03L15.30 39.00Q15.65 39.97 16.68 40.77L16.62 40.71L16.42 40.81L16.49 40.89Q17.89 42.97 22.12 43.35L22.22 43.46L22.06 43.29Q23.39 43.48 26.63 43.71Z"/><path fill="#333" d="M48.39 27.73L48.44 27.78L48.31 27.65Q44.83 27.60 43.73 30.95L43.75 30.97L43.75 30.97Q43.41 32.08 43.30 33.15L43.28 33.13L43.34 33.19Q43.13 35.22 44.11 36.55L44.06 36.50L43.99 36.43Q45.42 37.70 47.89 37.74L47.93 37.78L47.85 37.70Q49.65 37.71 51.06 36.57L51.04 36.55L51.06 36.57Q52.51 35.47 52.51 33.68L52.41 33.58L52.54 33.70Q52.56 33.39 52.49 33.01L52.36 32.88L52.38 32.90Q52.25 27.86 48.45 27.79ZM48.39 40.29L48.32 40.22L48.35 40.26Q44.45 40.38 42.66 38.37L42.63 38.34L42.61 38.32Q42.53 39.50 42.08 40.87L42.03 40.82L42.09 40.89Q40.02 41.52 38.77 42.09L38.75 42.07L38.72 42.05Q40.96 36.14 40.96 29.63L41.02 29.68L41.03 29.69Q41.06 21.43 37.64 13.59L37.45 13.40L37.46 13.42Q39.79 14.75 41.12 15.21L41.28 15.37L41.24 15.33Q43.22 21.84 43.38 27.67L43.47 27.76L43.48 27.77Q44.91 25.09 48.64 25.13L48.67 25.15L48.65 25.13Q51.89 25.18 53.38 27.05L53.32 26.99L53.31 26.97Q55.26 29.39 55.41 32.96L55.39 32.94L55.33 32.88Q55.39 34.04 55.31 35.64L55.41 35.74L55.38 35.71Q55.21 37.02 54.33 38.16L54.49 38.33L54.47 38.30Q52.60 39.90 48.26 40.16ZM53.83 42.77L53.72 42.66L53.81 42.75Q55.39 42.84 56.88 42.15L56.73 42.01L56.76 42.04Q57.86 40.74 57.90 38.80L57.84 38.74L57.92 38.82Q58.00 38.41 57.85 37.23L57.77 37.15L57.71 37.08Q57.68 36.45 57.56 35.53L57.67 35.64L57.49 35.46Q56.64 30.65 55.08 28.59L55.19 28.70L55.16 28.67Q55.20 28.68 54.40 27.80L54.46 27.86L54.29 27.69Q54.09 27.45 53.55 26.65L53.54 26.64L53.66 26.75Q52.07 24.83 48.72 24.87L48.76 24.91L48.62 24.77Q46.64 24.88 45.38 25.49L45.32 25.42L45.36 25.46Q44.92 20.83 44.31 17.64L44.43 17.76L44.31 17.63Q43.77 17.66 42.28 17.28L42.16 17.16L42.26 17.26Q42.00 16.39 41.54 14.94L41.62 15.03L41.51 14.91Q39.14 14.18 36.89 12.62L36.98 12.70L36.89 12.61Q40.61 20.75 40.61 29.54L40.58 29.51L40.76 29.70Q40.59 36.49 38.12 42.70L38.27 42.85L38.28 42.86Q38.82 42.37 40.15 41.80L40.20 41.85L40.22 41.87Q39.98 42.62 39.37 44.14L39.38 44.15L39.39 44.16Q41.42 43.30 44.20 42.77L44.13 42.69L44.56 40.92L44.61 40.96Q46.91 42.66 53.84 42.77ZM49.97 29.99L50.03 30.06L50.03 30.06Q51.06 30.06 51.60 30.44L51.58 30.43L51.54 30.38Q51.95 30.98 52.17 33.00L52.04 32.86L52.03 32.85Q52.36 34.86 51.10 36.17L51.16 36.23L51.04 36.11Q49.90 37.53 47.95 37.42L47.87 37.34L47.81 37.28Q46.97 37.50 45.48 37.01L45.56 37.08L45.38 36.91Q45.24 36.50 45.24 35.97L45.34 36.06L45.17 35.89Q45.26 32.90 46.82 31.30L46.72 31.20L46.72 31.24L46.84 31.35Q48.15 29.85 49.90 29.93Z"/><path fill="#444" d="M119.75 29.86L119.75 29.87L119.74 29.86Q119.55 29.90 119.25 29.90L119.19 29.84L119.11 29.76Q117.79 29.78 116.34 30.61L116.49 30.75L116.50 30.76Q115.12 31.83 115.12 33.73L115.09 33.70L115.03 33.64Q115.07 37.10 116.59 38.43L116.67 38.51L116.51 38.35Q117.57 39.64 119.86 39.64L119.81 39.59L119.82 39.61Q120.12 39.68 120.42 39.68L120.47 39.72L120.44 39.69Q122.09 39.63 123.23 37.99L123.17 37.93L123.31 38.08Q124.27 36.48 124.19 34.69L124.12 34.62L124.21 34.71Q124.38 34.34 124.38 33.92L124.25 33.79L124.27 33.81Q124.38 32.13 123.00 30.97L122.94 30.91L122.90 30.86Q121.46 29.64 119.67 29.79ZM124.34 40.13L124.15 39.94L124.22 40.01Q123.18 41.90 119.45 42.02L119.60 42.16L119.44 42.00Q116.05 42.12 114.45 40.52L114.46 40.53L114.44 40.51Q113.00 38.76 112.20 33.96L112.22 33.98L112.24 34.01Q111.99 32.31 111.99 31.05L112.04 31.10L111.91 30.98Q111.94 29.21 112.66 28.15L112.73 28.22L112.71 28.20Q114.14 26.88 117.11 26.88L116.97 26.74L116.97 26.74Q123.40 26.86 125.31 29.45L125.16 29.30L125.21 29.35Q125.40 28.55 125.81 26.95L125.76 26.90L125.90 27.03Q127.19 26.77 129.63 25.97L129.61 25.95L129.50 25.84Q127.18 31.59 126.95 37.91L126.90 37.86L126.85 37.80Q126.56 43.91 128.69 49.73L128.80 49.85L128.72 49.76Q127.09 49.24 125.30 48.97L125.33 49.00L125.31 48.98Q124.42 45.04 124.30 40.09ZM125.11 49.35L125.08 49.33L125.07 49.31Q125.75 49.42 127.16 49.73L127.18 49.75L127.09 49.66Q127.37 50.44 127.95 51.84L128.01 51.91L128.02 51.92Q130.53 52.57 132.82 53.86L132.82 53.86L132.83 53.87Q128.72 47.21 128.72 38.69L128.78 38.75L128.77 38.74Q128.70 32.30 131.17 26.52L131.28 26.63L131.29 26.63Q130.57 26.91 129.20 27.56L129.17 27.53L129.13 27.49Q129.44 26.69 130.08 25.13L130.21 25.26L130.24 25.28Q128.67 25.80 125.47 26.68L125.34 26.55L125.39 26.60Q125.38 27.28 125.08 28.46L125.05 28.43L125.00 28.38Q122.91 26.40 116.78 26.25L116.91 26.38L116.92 26.39Q113.62 26.21 112.25 27.70L112.24 27.69L112.39 27.84Q111.52 28.87 111.56 30.77L111.52 30.73L111.50 30.72Q111.67 33.78 112.66 37.55L112.69 37.58L112.75 37.64Q113.31 39.95 114.23 40.91L114.16 40.84L114.66 41.34L114.64 41.31Q115.84 44.12 121.28 44.34L121.24 44.30L121.18 44.24Q122.31 44.38 124.14 44.08L124.11 44.05L124.10 44.04Q124.34 46.90 124.95 49.19ZM121.65 32.19L121.70 32.23L121.66 32.20Q122.82 32.29 123.66 32.59L123.64 32.58L123.66 32.59Q123.69 32.97 123.80 33.58L123.84 33.62L123.90 33.67Q123.87 34.11 123.80 34.72L123.89 34.80L123.90 34.82Q123.90 36.72 122.87 38.01L122.78 37.92L122.92 38.07Q121.64 39.37 119.77 39.18L119.92 39.33L119.92 39.33Q118.50 39.20 117.54 38.78L117.63 38.87L117.49 38.73Q117.23 38.01 117.23 36.79L117.22 36.78L117.15 36.71Q117.19 36.44 117.19 36.14L117.19 36.14L117.26 36.21Q117.28 34.47 118.61 33.31L118.50 33.20L118.50 33.21Q119.84 32.05 121.59 32.13Z"/><path fill="#333" d="M66.38 19.23L66.29 19.14L66.37 19.21Q67.52 23.72 67.68 26.92L67.57 26.81L67.64 26.88Q68.06 26.85 72.44 26.96L72.44 26.96L72.43 26.96Q75.09 27.09 75.47 23.63L75.42 23.58L75.44 23.61Q75.63 21.85 74.72 20.94L74.64 20.86L74.71 20.93Q73.44 20.05 71.46 19.89L71.33 19.76L71.40 19.83Q68.24 19.67 66.37 19.22ZM67.81 28.88L67.70 28.77L67.69 28.76Q68.02 34.91 66.23 40.85L66.08 40.70L66.10 40.73Q64.86 41.04 62.27 42.07L62.34 42.14L62.28 42.08Q65.03 35.50 64.68 28.04L64.85 28.21L64.77 28.13Q64.43 20.74 61.12 14.23L61.14 14.25L61.19 14.30Q66.00 17.05 72.96 17.05L72.98 17.07L73.08 17.17Q78.63 17.08 78.89 20.62L78.81 20.54L78.85 20.58Q78.97 21.23 78.89 21.84L78.95 21.90L78.80 22.96L78.91 23.08Q77.94 26.86 75.81 28.58L75.90 28.67L75.90 28.67Q75.14 29.39 74.11 29.39L73.96 29.24L71.41 29.28L71.37 29.25Q77.11 36.62 81.64 41.18L81.49 41.04L81.62 41.17Q79.36 40.35 76.43 40.01L76.51 40.09L76.40 39.99Q72.66 36.05 67.75 28.82ZM76.26 40.34L76.37 40.45L76.60 40.37L77.85 41.62L77.95 41.73Q78.36 42.09 79.01 42.70L79.03 42.73L79.07 42.76Q82.57 43.33 86.15 45.20L86.14 45.19L86.16 45.21Q79.26 38.50 73.85 31.57L73.92 31.64L75.56 31.53L75.71 31.67Q78.62 31.50 79.95 26.97L80.10 27.12L79.96 26.98Q80.81 24.93 80.81 22.23L80.77 22.20L80.74 22.16Q80.69 19.83 78.97 19.18L79.00 19.20L78.94 19.14Q78.98 18.92 78.41 18.24L78.23 18.05L78.22 18.05Q76.60 16.66 72.95 16.58L72.92 16.55L73.04 16.67Q65.03 16.39 60.35 13.38L60.40 13.44L60.51 13.54Q64.11 20.23 64.45 27.92L64.50 27.96L64.56 28.03Q64.89 35.97 61.77 42.82L61.70 42.76L61.79 42.84Q62.89 42.12 63.69 41.81L63.82 41.94L62.69 44.09L62.83 44.23Q65.61 43.24 68.27 42.74L68.18 42.65L68.13 42.60Q69.55 37.62 69.74 32.41L69.64 32.31L69.60 32.27Q73.20 37.31 76.35 40.43ZM75.08 22.48L75.02 22.43L75.02 22.42Q75.02 22.65 75.02 22.99L75.14 23.11L75.18 23.73L75.00 23.54Q75.02 24.67 74.34 25.62L74.31 25.60L74.47 25.76Q73.80 26.46 72.89 26.65L72.86 26.62L72.88 26.64Q72.62 26.65 71.02 26.69L70.96 26.62L70.97 26.63Q70.57 26.85 69.74 26.73L69.68 26.67L69.58 26.58Q69.59 25.18 69.25 22.13L69.20 22.09L69.18 22.07Q70.65 22.31 71.33 22.31L71.20 22.18L71.26 22.24Q73.04 22.19 74.98 22.38Z"/><path fill="#333" d="M97.71 27.72L97.72 27.73L97.66 27.67Q94.16 27.59 93.05 30.94L93.00 30.89L93.18 31.07Q92.81 32.14 92.69 33.21L92.73 33.24L92.56 33.07Q92.44 35.20 93.43 36.53L93.33 36.43L93.31 36.41Q94.63 37.58 97.10 37.62L97.18 37.69L97.30 37.81Q99.10 37.82 100.51 36.68L100.36 36.54L100.46 36.63Q101.85 35.48 101.85 33.69L101.80 33.63L101.92 33.76Q101.93 33.42 101.85 33.04L101.80 32.98L101.87 33.05Q101.58 27.85 97.77 27.78ZM97.62 40.19L97.69 40.26L97.70 40.27Q93.91 40.51 92.12 38.49L92.01 38.38L92.02 38.39Q91.86 39.50 91.41 40.87L91.33 40.79L91.25 40.71Q89.28 41.45 88.03 42.02L88.07 42.06L88.02 42.01Q90.34 36.18 90.34 29.67L90.26 29.59L90.37 29.70Q90.34 21.37 86.91 13.53L86.85 13.47L86.88 13.49Q89.29 14.92 90.62 15.38L90.61 15.37L90.46 15.22Q92.66 21.94 92.81 27.77L92.84 27.80L92.80 27.76Q94.34 25.18 98.07 25.22L98.07 25.22L98.08 25.24Q101.21 25.16 102.69 27.03L102.75 27.09L102.78 27.11Q104.58 29.37 104.73 32.95L104.57 32.79L104.73 32.95Q104.74 34.06 104.66 35.66L104.72 35.71L104.66 35.65Q104.57 37.05 103.69 38.19L103.65 38.15L103.69 38.19Q102.02 39.99 97.68 40.25ZM103.15 42.75L103.12 42.72L103.16 42.76Q104.59 42.71 106.08 42.02L106.20 42.15L106.14 42.08Q107.17 40.72 107.21 38.78L107.29 38.86L107.35 38.91Q107.26 38.33 107.11 37.15L107.08 37.13L107.16 37.20Q107.04 36.48 106.93 35.57L106.97 35.61L106.84 35.48Q106.01 30.69 104.45 28.63L104.60 28.79L104.51 28.69Q104.45 28.59 103.65 27.72L103.74 27.80L103.79 27.86Q103.57 27.60 103.04 26.80L103.01 26.78L102.92 26.69Q101.36 24.78 98.01 24.82L98.10 24.91L97.96 24.77Q95.90 24.80 94.64 25.41L94.76 25.52L94.71 25.48Q94.25 20.83 93.64 17.63L93.78 17.77L93.72 17.71Q93.11 17.67 91.62 17.29L91.57 17.24L91.59 17.26Q91.35 16.41 90.89 14.96L91.01 15.08L91.00 15.07Q88.47 14.17 86.22 12.61L86.30 12.69L86.33 12.72Q89.95 20.75 89.95 29.55L90.06 29.66L89.93 29.53Q89.97 36.54 87.49 42.74L87.51 42.76L87.47 42.71Q88.22 42.44 89.55 41.87L89.55 41.86L89.51 41.82Q89.25 42.55 88.64 44.08L88.77 44.21L88.63 44.07Q90.73 43.28 93.51 42.74L93.37 42.61L93.82 40.84L93.87 40.90Q96.08 42.49 103.01 42.61ZM99.25 29.94L99.28 29.97L99.35 30.04Q100.30 29.96 100.83 30.34L100.92 30.43L100.83 30.34Q101.15 30.85 101.38 32.87L101.48 32.97L101.46 32.95Q101.59 34.75 100.33 36.07L100.33 36.07L100.36 36.10Q99.14 37.44 97.20 37.33L97.14 37.27L97.29 37.43Q96.38 37.58 94.90 37.09L94.76 36.95L94.75 36.94Q94.48 36.40 94.48 35.86L94.66 36.05L94.59 35.98Q94.66 32.97 96.22 31.37L96.20 31.35L96.13 31.31L96.09 31.27Q97.64 30.01 99.39 30.08Z"/></svg>