<svg xmlns="http://www.w3.org/2000/svg" width="150" height="50" viewBox="0,0,150,50"><path fill="#111" d="M117.59 30.60L117.72 30.73L117.66 30.67Q117.59 30.60 120.98 30.56L121.05 30.64L121.01 30.60Q123.35 30.65 124.42 30.69L124.27 30.55L124.34 30.61Q123.22 27.66 120.78 22.03L120.92 22.17L120.91 22.16Q120.19 23.42 119.15 26.28L119.18 26.31L119.17 26.30Q118.24 29.27 117.67 30.68ZM125.53 33.18L125.40 33.04L125.40 33.05Q123.23 33.12 121.02 33.16L120.91 33.05L121.05 33.18Q118.69 33.11 116.40 33.30L116.50 33.40L116.48 33.38Q115.01 36.86 111.78 41.05L111.73 41.00L111.69 40.95Q109.08 41.54 107.71 42.04L107.80 42.13L107.74 42.07Q112.86 36.42 117.55 23.06L117.45 22.96L117.45 22.96Q118.72 19.55 120.09 16.31L120.05 16.27L120.19 16.41Q120.53 16.44 120.87 16.44L120.76 16.34L121.46 16.32L121.61 16.46Q122.22 17.68 127.05 29.33L127.06 29.34L127.11 29.38Q130.41 37.25 134.41 41.40L134.37 41.37L134.31 41.31Q133.90 41.28 130.02 40.40L129.94 40.32L130.00 40.38Q127.52 37.33 125.54 33.18ZM129.86 40.66L129.98 40.78L130.56 40.87L130.55 40.86Q130.85 40.93 131.16 41.05L130.99 40.88L131.04 40.93Q131.47 41.40 133.30 43.42L133.29 43.41L133.30 43.42Q136.81 44.18 139.20 45.21L139.18 45.19L139.34 45.35Q133.79 40.75 129.79 32.75L129.74 32.70L129.70 32.66Q128.15 29.44 126.70 25.48L126.72 25.50L123.90 17.91L123.94 17.96Q123.74 18.10 123.52 18.10L123.47 18.06L122.96 18.08L122.88 18.00Q122.58 17.40 121.86 16.03L121.85 16.02L121.72 15.89Q121.26 15.96 120.81 15.93L120.89 16.01L120.90 16.02Q120.45 15.99 119.92 15.99L119.81 15.88L119.77 15.84Q118.55 19.95 114.67 30.12L114.60 30.05L114.66 30.11Q111.48 38.00 106.83 42.80L106.79 42.76L106.87 42.83Q107.79 42.31 109.81 41.71L109.80 41.70L109.87 41.76Q109.06 42.59 107.50 44.38L107.48 44.36L107.47 44.35Q109.18 43.70 113.10 42.94L113.12 42.96L113.09 42.93Q116.55 38.62 118.11 35.39L118.10 35.37L118.08 35.35Q119.82 35.23 122.14 35.27L122.18 35.30L122.30 35.42Q124.86 35.28 126.23 35.36L126.24 35.36L126.22 35.35Q127.47 37.70 129.83 40.64ZM122.15 25.99L122.29 26.12L122.25 26.09Q123.02 28.08 123.78 30.17L123.85 30.24L120.60 30.30L120.60 30.29Q121.05 28.73 122.11 25.95Z"/><path fill="#222" d="M21.55 29.78L21.50 29.73L21.43 29.66Q17.22 29.45 16.65 32.50L16.64 32.48L16.77 32.62Q16.63 33.74 16.82 34.61L16.67 34.46L16.73 34.52Q16.81 35.36 17.27 36.77L17.22 36.72L17.24 36.74Q18.20 39.79 21.51 39.64L21.56 39.69L21.51 39.64Q23.67 39.86 25.00 38.30L24.94 38.24L24.89 38.18Q26.09 36.68 26.09 34.63L26.18 34.71L26.24 34.78Q26.39 34.20 26.23 33.13L26.16 33.06L26.17 33.07Q26.19 32.26 25.77 31.57L25.76 31.56L25.73 31.53Q24.00 29.76 21.41 29.65ZM26.41 48.27L26.42 48.28L26.43 48.29Q24.46 48.72 16.38 49.10L16.35 49.06L16.52 49.23Q14.84 49.31 13.21 48.47L13.18 48.44L13.18 48.45Q13.89 47.36 15.72 45.57L15.87 45.73L15.72 45.58Q18.23 46.72 20.33 46.53L20.28 46.48L20.20 46.40Q23.26 46.30 24.10 46.04L24.03 45.97L23.92 45.86Q26.19 45.20 26.19 43.41L26.32 43.53L26.24 43.46Q26.22 43.21 26.14 42.98L26.07 42.91L26.05 41.40L26.15 41.50Q26.14 40.73 26.14 39.93L25.96 39.75L26.06 39.85Q24.65 42.06 21.26 42.06L21.31 42.10L21.39 42.18Q17.50 42.18 15.87 39.98L15.81 39.91L15.85 39.96Q14.60 38.29 13.80 33.88L13.90 33.97L13.96 34.04Q13.53 32.38 13.53 30.97L13.48 30.92L13.50 30.95Q13.47 29.13 14.39 28.14L14.55 28.30L14.48 28.24Q16.13 26.80 20.78 26.80L20.82 26.84L22.56 27.02L22.49 26.96Q25.70 27.31 27.04 29.25L27.09 29.31L27.00 29.22Q27.27 28.46 27.69 26.82L27.74 26.87L27.70 26.83Q29.60 26.53 31.36 25.81L31.19 25.64L31.26 25.72Q28.60 31.81 28.60 39.04L28.57 39.01L28.67 39.11Q28.71 41.81 29.09 44.44L28.90 44.26L28.92 44.27Q29.21 45.06 29.13 45.74L29.07 45.68L29.09 45.69Q28.98 47.15 27.76 47.91L27.69 47.84L27.76 47.91Q27.25 48.16 26.41 48.27ZM29.24 51.06L29.25 51.07L29.42 51.24Q30.75 51.17 31.51 50.21L31.67 50.37L31.64 50.34Q31.84 49.25 31.73 48.52L31.75 48.55L31.72 48.51Q31.78 48.04 31.58 47.28L31.50 47.19L31.47 47.17Q30.20 41.90 30.55 36.65L30.68 36.78L30.59 36.69Q31.04 31.36 33.18 26.52L33.14 26.49L31.06 27.45L30.94 27.33Q31.28 26.83 31.51 26.26L31.50 26.25L31.96 25.08L31.94 25.06Q29.62 26.05 27.41 26.47L27.36 26.42L27.45 26.50Q27.01 27.24 26.85 28.27L27.03 28.44L26.92 28.34Q24.86 26.47 20.82 26.47L20.85 26.49L18.98 26.38L19.05 26.45Q15.83 26.46 14.15 27.87L14.16 27.88L14.15 27.86Q13.19 28.81 13.23 30.71L13.28 30.77L13.14 30.63Q13.31 33.23 14.34 37.50L14.41 37.57L14.25 37.41Q14.72 39.32 15.94 40.73L16.05 40.85L16.26 41.05L16.32 41.11L16.43 41.22Q17.52 43.49 20.11 44.03L20.16 44.08L20.07 43.99Q21.54 44.35 22.99 44.39L22.96 44.37L23.00 44.41Q24.69 44.38 25.76 44.00L25.69 43.94L25.70 43.95Q25.10 45.51 22.43 45.86L22.54 45.97L22.50 45.92Q21.37 46.01 20.69 46.01L20.71 46.04L20.29 45.99L20.40 46.11Q17.51 46.03 15.83 45.08L15.90 45.15L14.13 46.80L14.13 46.81Q13.21 47.56 12.37 48.51L12.38 48.52L12.45 48.58Q13.36 49.04 14.35 49.23L14.40 49.28L13.53 50.17L13.52 50.15Q16.18 51.17 21.81 51.17L21.88 51.24L22.10 51.23L22.13 51.26Q25.71 51.23 29.29 51.12ZM23.39 32.04L23.31 31.96L23.45 32.10Q24.63 31.91 25.55 32.33L25.63 32.41L25.64 32.43Q25.74 32.83 25.82 33.52L25.88 33.58L25.77 33.47Q25.85 33.82 25.81 34.73L25.85 34.77L25.93 34.85Q25.77 36.66 24.66 37.96L24.73 38.02L24.60 37.89Q23.47 39.35 21.56 39.31L21.56 39.31L21.51 39.26Q20.06 39.18 19.23 38.76L19.31 38.85L19.35 38.89Q18.97 37.75 18.93 36.72L18.81 36.60L18.99 36.78Q18.75 32.31 23.35 32.00Z"/><path fill="#222" d="M93.06 19.41L93.07 19.42L92.95 19.30Q93.85 23.59 94.00 27.17L93.99 27.16L93.94 27.11Q95.03 27.17 96.09 27.17L96.09 27.16L98.43 27.30L98.42 27.28Q99.50 27.30 100.38 25.89L100.24 25.76L100.21 25.72Q100.98 24.59 101.09 23.41L101.11 23.43L101.20 23.52Q101.59 20.52 97.36 20.02L97.34 20.00L97.22 19.88Q95.57 19.87 92.95 19.30ZM94.02 29.92L94.11 30.02L93.99 29.90Q93.94 36.13 92.79 40.54L92.84 40.59L92.88 40.63Q91.34 40.95 89.02 42.02L89.12 42.12L89.00 42.00Q91.41 35.38 91.14 28.11L91.11 28.08L91.08 28.05Q90.92 20.81 88.14 14.38L88.15 14.39L88.05 14.28Q92.24 17.11 98.49 17.11L98.47 17.09L98.46 17.08Q104.42 16.99 104.57 20.45L104.60 20.49L104.75 20.63Q104.64 22.89 103.65 25.55L103.69 25.59L103.68 25.58Q103.27 26.69 102.32 27.91L102.44 28.03L102.33 27.92Q101.15 29.67 98.60 29.94L98.45 29.79L98.58 29.92Q96.20 29.83 93.96 29.86ZM100.21 32.23L100.20 32.22L100.20 32.23Q104.39 32.50 105.65 27.70L105.52 27.57L105.66 27.71Q106.56 24.00 106.41 21.99L106.30 21.88L106.40 21.98Q106.31 20.48 105.55 19.49L105.55 19.49L105.54 19.48Q105.08 19.02 104.59 18.80L104.60 18.81L104.69 18.90Q104.58 18.63 103.97 17.87L104.05 17.95L104.06 17.96Q102.42 16.55 98.46 16.55L98.56 16.65L98.49 16.58Q91.64 16.62 87.41 13.46L87.34 13.38L87.49 13.54Q90.53 20.50 90.80 27.96L90.86 28.03L90.82 27.98Q91.08 35.62 88.41 42.71L88.51 42.80L88.46 42.75Q89.57 42.15 90.56 41.77L90.60 41.81L90.18 42.92L90.18 42.91Q89.90 43.40 89.63 43.97L89.74 44.07L89.71 44.04Q92.16 43.03 95.06 42.50L95.08 42.52L95.04 42.48Q95.91 37.00 95.99 32.28L95.90 32.19L95.97 32.26Q96.97 32.08 97.96 32.08L98.02 32.14L97.97 32.09Q99.44 32.22 100.23 32.26ZM99.20 22.24L99.15 22.19L99.28 22.32Q99.70 22.25 100.69 22.48L100.76 22.55L100.67 22.45Q100.85 22.75 100.89 23.05L100.78 22.94L100.94 23.10Q100.98 23.38 100.91 23.64L100.78 23.51L100.84 23.57Q100.74 24.81 100.02 25.68L100.03 25.70L99.92 25.59Q99.34 26.65 98.31 26.84L98.34 26.87L98.45 26.98Q97.65 26.90 96.02 26.90L96.00 26.89L96.03 26.91Q95.86 24.50 95.63 22.14L95.75 22.25L97.53 22.36L97.49 22.32Q98.30 22.29 99.18 22.22Z"/><path fill="#222" d="M79.78 40.45L79.70 40.37L79.62 40.29Q76.79 36.54 74.16 27.90L74.11 27.85L74.03 27.77Q73.35 25.61 72.55 23.48L72.60 23.52L69.68 32.25L69.76 32.33Q68.03 37.34 65.63 40.58L65.49 40.44L65.47 40.41Q64.73 40.59 63.09 40.74L63.11 40.76L63.08 40.72Q63.17 39.52 63.17 38.27L63.24 38.34L63.17 38.27Q63.18 32.26 60.43 26.13L60.40 26.09L60.50 26.20Q57.23 19.16 51.37 14.17L51.53 14.34L51.50 14.30Q53.54 14.89 55.90 15.42L55.93 15.46L55.94 15.47Q64.73 24.03 66.03 34.99L65.93 34.90L66.01 34.98Q67.66 31.68 69.11 26.32L69.03 26.24L68.99 26.20Q71.01 18.74 71.51 17.33L71.42 17.24L73.81 17.39L73.77 17.35Q74.44 19.35 75.09 21.67L75.05 21.63L76.35 26.13L76.23 26.01Q77.83 31.50 79.24 34.73L79.26 34.75L79.36 34.85Q80.91 23.12 88.83 15.77L88.96 15.90L88.95 15.89Q90.39 15.47 93.36 14.82L93.34 14.79L93.46 14.91Q87.99 19.08 84.95 25.21L84.92 25.19L85.02 25.29Q81.97 31.56 81.97 38.33L81.85 38.21L81.84 38.21Q82.01 39.48 82.09 40.62L82.07 40.60L80.95 40.51L80.79 40.35Q80.31 40.41 79.74 40.41ZM85.93 43.25L85.89 43.21L85.95 43.27Q84.64 39.64 84.75 35.75L84.86 35.86L84.86 35.86Q85.14 24.26 94.50 16.00L94.59 16.09L94.50 16.00Q93.63 16.31 91.69 16.84L91.72 16.87L91.53 16.68Q92.66 16.03 94.57 14.24L94.49 14.16L94.51 14.18Q91.88 14.98 88.95 15.47L88.93 15.46L88.92 15.44Q81.44 22.58 79.54 32.06L79.54 32.06L79.54 32.06Q78.83 30.29 75.98 18.83L76.12 18.97L76.04 18.89Q75.55 18.90 74.60 18.90L74.69 18.99L74.34 17.88L74.42 17.95Q74.36 17.48 74.13 16.99L73.97 16.82L71.12 16.86L71.10 16.84Q70.31 19.33 69.04 24.45L69.03 24.44L69.09 24.51Q67.80 29.61 66.81 32.09L66.77 32.05L66.80 32.08Q65.16 24.12 59.60 17.80L59.63 17.82L59.68 17.88Q59.22 17.84 58.27 17.65L58.14 17.52L58.18 17.55Q57.38 16.64 55.82 15.00L55.97 15.16L55.96 15.15Q52.63 14.40 50.46 13.60L50.31 13.45L50.44 13.58Q56.05 18.20 59.32 24.41L59.27 24.36L59.25 24.33Q62.68 30.93 62.68 37.93L62.75 38.00L62.67 37.92Q62.73 39.54 62.54 41.14L62.62 41.22L62.50 41.10Q62.78 41.15 63.24 41.06L63.24 41.06L63.30 41.12Q63.71 40.98 63.94 40.98L63.98 41.02L63.88 41.95L64.00 42.07Q63.93 42.45 64.01 42.99L64.03 43.01L64.05 43.03Q65.23 43.00 67.52 42.84L67.50 42.82L67.49 42.82Q70.97 37.27 73.71 27.87L73.86 28.02L73.73 27.89Q76.63 36.81 79.60 40.76L79.61 40.77L79.62 40.79Q80.03 40.74 80.87 40.85L80.80 40.78L80.94 40.93Q81.67 41.84 82.73 42.91L82.88 43.05L82.82 43.00Q83.46 42.92 85.86 43.18Z"/><path fill="#333" d="M49.39 39.89L49.37 39.87L49.37 39.86Q47.36 39.76 45.34 39.95L45.48 40.08L45.44 40.05Q46.12 34.82 46.12 29.99L46.00 29.87L46.00 29.87Q46.06 25.02 45.41 19.80L45.50 19.89L45.39 19.78Q40.78 19.36 37.59 17.69L37.71 17.81L36.81 15.89L36.96 16.04Q36.70 15.47 36.09 14.25L36.04 14.20L36.11 14.27Q41.10 16.86 47.12 17.05L47.17 17.10L47.22 17.16Q53.09 17.32 58.53 15.26L58.49 15.22L58.49 15.21Q57.87 16.73 57.22 18.56L57.06 18.39L57.12 18.45Q53.54 19.78 49.27 19.97L49.31 20.01L49.33 20.03Q49.09 25.01 49.09 29.96L49.07 29.93L49.04 29.90Q49.01 34.82 49.31 39.81ZM59.10 14.46L59.21 14.56L59.23 14.58Q53.25 16.72 47.05 16.53L47.11 16.59L47.09 16.57Q40.40 16.35 35.30 13.38L35.45 13.53L35.37 13.45Q36.23 14.85 37.53 18.13L37.40 18.00L37.46 18.06Q38.18 18.43 39.43 19.00L39.24 18.81L39.42 18.99Q39.62 19.64 39.96 21.16L39.99 21.19L39.95 21.16Q42.29 22.04 45.33 22.27L45.26 22.20L45.31 22.25Q45.57 25.83 45.57 29.60L45.65 29.67L45.61 29.64Q45.75 35.14 44.95 40.51L44.87 40.43L44.78 40.34Q46.44 40.21 46.98 40.21L47.03 40.27L47.14 40.38Q47.10 40.64 47.05 41.31L46.98 41.24L47.08 41.35Q46.97 41.96 46.97 42.30L46.92 42.25L46.99 42.32Q48.19 42.26 49.71 42.34L49.64 42.27L49.75 42.37Q50.66 42.41 52.49 42.56L52.43 42.50L52.41 42.49Q51.14 37.53 51.03 32.35L51.05 32.37L51.06 32.38Q50.96 27.11 51.50 22.20L51.35 22.05L51.41 22.11Q55.39 21.60 58.55 20.38L58.59 20.42L58.66 20.49Q59.29 18.04 60.32 15.98L60.25 15.91L60.27 15.93Q59.00 16.68 58.20 16.98L58.24 17.02L58.14 16.93Q58.65 15.72 59.22 14.58Z"/></svg>