<svg xmlns="http://www.w3.org/2000/svg" width="150" height="50" viewBox="0,0,150,50"><path fill="#222" d="M15.59 47.06L15.64 47.12L15.61 47.09Q14.71 47.33 12.81 47.63L12.72 47.55L12.80 47.63Q14.06 45.42 15.09 44.13L15.13 44.16L15.03 44.06Q16.85 44.44 17.00 44.44L16.95 44.39L16.94 44.38Q17.34 44.55 17.88 44.44L17.81 44.37L17.76 44.32Q18.56 44.37 18.75 44.37L18.67 44.28L18.65 44.26Q21.17 43.96 21.09 41.79L21.16 41.86L21.08 41.78Q21.16 40.41 21.04 34.17L21.09 34.21L20.96 34.09Q21.05 30.68 21.13 26.53L21.08 26.48L22.38 26.18L22.53 26.33Q23.02 26.06 23.70 25.83L23.84 25.96L23.78 25.90Q23.56 30.33 23.60 34.70L23.55 34.65L23.65 34.75Q23.54 38.99 24.08 43.37L24.22 43.52L24.23 43.52Q24.23 43.75 24.23 44.02L24.32 44.11L24.25 44.04Q24.17 45.59 22.50 45.98L22.59 46.07L22.64 46.12Q19.49 46.47 15.65 47.12ZM22.43 22.91L20.29 19.79L20.33 19.82Q21.33 18.39 23.16 15.61L23.11 15.56L23.02 15.47Q23.75 16.43 25.08 18.25L25.22 18.40L22.38 22.87ZM25.41 49.50L25.33 49.42L25.32 49.41Q25.91 49.50 26.67 49.16L26.62 49.11L26.76 49.25Q27.12 48.59 27.12 48.13L27.01 48.02L27.10 48.11Q26.90 47.57 26.79 46.96L26.84 47.01L26.96 47.13Q25.61 40.71 25.61 32.80L25.45 32.64L25.56 32.74Q25.63 29.96 25.78 27.07L25.62 26.91L25.66 26.95Q25.09 27.10 23.95 27.40L23.95 27.41L23.92 27.38Q24.05 27.01 24.08 26.47L24.11 26.50L24.17 25.38L24.21 25.42Q22.37 25.93 20.58 25.97L20.75 26.14L20.74 26.13Q20.52 30.30 20.56 33.88L20.68 33.99L20.80 41.85L20.79 41.84Q20.81 43.76 18.64 43.87L18.78 44.01L18.69 43.92Q18.51 43.97 18.00 44.03L17.87 43.90L17.91 43.94Q17.50 44.10 17.24 44.10L17.14 44.01L17.10 43.97Q16.58 43.90 15.01 43.48L15.12 43.59L15.11 43.58Q14.68 44.21 13.57 45.89L13.64 45.96L12.00 48.16L11.99 48.14Q12.88 47.97 14.52 47.59L14.51 47.58L14.01 48.26L13.63 49.06L13.57 49.01Q15.89 48.89 17.23 48.97L17.08 48.82L17.19 48.93Q19.42 49.02 25.35 49.44ZM22.35 23.60L22.32 23.56L22.59 22.96L22.68 23.05Q22.99 23.43 23.94 25.03L24.06 25.15L23.96 25.06Q25.61 22.06 27.17 18.97L27.06 18.86L27.11 18.91Q26.10 17.30 25.15 16.01L25.10 15.96L25.14 15.99Q24.90 16.17 24.56 16.71L24.63 16.77L24.71 16.86Q24.20 16.12 23.21 14.82L23.28 14.90L23.25 14.87Q22.07 16.46 19.74 19.81L19.81 19.88L19.77 19.84Q20.55 20.92 22.26 23.51Z"/><path fill="#444" d="M45.59 28.95L45.47 28.82L45.64 28.99Q43.00 28.91 41.98 30.09L42.07 30.19L42.08 30.19Q40.87 31.20 40.87 33.82L41.05 34.00L40.98 33.93Q40.87 38.92 45.48 38.73L45.61 38.86L45.48 38.73Q47.69 39.04 49.04 37.48L49.08 37.52L49.06 37.50Q50.37 35.90 50.14 33.84L50.19 33.89L50.21 33.90Q50.11 31.26 49.23 30.23L49.22 30.21L49.34 30.34Q47.71 28.86 45.50 28.86ZM50.62 38.73L50.53 38.64L50.67 38.78Q49.43 41.20 44.75 41.20L44.64 41.09L43.28 41.18L43.33 41.23Q40.85 41.11 39.74 39.96L39.75 39.98L39.90 40.12Q38.76 38.98 38.49 36.58L38.58 36.67L38.53 36.62Q38.41 35.16 38.33 33.37L38.32 33.37L38.25 33.29Q38.20 32.29 38.05 30.35L38.19 30.49L38.09 30.39Q37.89 26.01 43.07 26.01L43.13 26.07L44.73 26.11L44.67 26.05Q47.55 26.03 49.64 27.33L49.78 27.47L49.78 27.47Q50.51 27.89 51.00 28.57L50.94 28.51L51.03 28.60Q51.30 27.80 51.83 26.16L51.76 26.10L51.87 26.21Q53.04 25.97 55.36 25.36L55.36 25.35L55.36 25.36Q52.72 29.53 52.72 34.78L52.74 34.81L52.67 34.73Q52.82 38.61 54.19 41.69L54.03 41.54L54.13 41.64Q53.08 41.43 51.18 41.20L51.17 41.19L51.18 41.20Q50.92 40.29 50.62 38.73ZM53.82 43.84L53.89 43.90L56.07 44.45L56.02 44.41Q57.41 44.88 58.40 45.34L58.26 45.20L58.35 45.29Q54.57 40.82 54.57 34.73L54.76 34.92L54.58 34.74Q54.63 30.26 56.77 26.46L56.89 26.58L56.70 26.39Q56.17 26.73 54.83 27.11L54.86 27.14L54.82 27.09Q55.21 26.38 56.08 24.86L56.09 24.87L56.12 24.89Q55.49 25.02 51.49 25.86L51.42 25.79L50.97 27.74L50.80 27.57Q49.16 25.97 44.74 25.74L44.66 25.66L44.76 25.75Q43.49 25.62 41.24 25.78L41.27 25.81L41.32 25.86Q37.69 26.27 37.81 30.30L37.66 30.15L37.77 30.27Q37.89 33.58 38.46 38.03L38.38 37.96L38.40 38.40L38.43 38.42Q38.68 39.40 39.48 40.50L39.42 40.44L39.39 40.41Q39.53 40.55 39.72 40.66L39.70 40.64L39.80 40.75Q39.91 41.08 40.29 41.65L40.33 41.69L40.46 41.83Q41.88 43.35 45.26 43.54L45.20 43.48L45.10 43.38Q46.74 43.50 46.90 43.50L47.06 43.67L48.49 43.54L48.62 43.66Q51.64 43.48 52.86 41.92L52.99 42.06L52.95 42.01Q53.36 42.70 53.97 43.99ZM47.34 31.16L47.29 31.11L47.42 31.24Q48.66 31.14 49.50 31.60L49.51 31.61L49.61 31.71Q49.84 32.43 49.84 33.88L49.88 33.92L49.81 33.85Q50.00 35.75 48.72 37.18L48.73 37.19L48.68 37.13Q47.39 38.55 45.48 38.36L45.56 38.43L45.59 38.46Q44.09 38.41 43.06 37.99L43.18 38.11L43.13 38.06Q42.96 37.24 42.96 36.02L42.87 35.94L42.86 35.92Q42.97 32.38 45.59 31.42L45.74 31.57L45.55 31.38Q46.61 31.22 47.41 31.22Z"/><path fill="#333" d="M119.65 27.58L119.66 27.59L119.77 27.70Q117.53 27.70 116.25 29.21L116.12 29.08L116.29 29.24Q115.03 30.76 114.92 33.05L114.90 33.03L114.80 32.93Q114.70 35.61 115.54 36.56L115.61 36.64L115.51 36.53Q116.63 37.81 118.96 37.66L119.03 37.73L118.94 37.65Q123.61 37.37 123.99 34.36L123.90 34.27L123.98 34.35Q124.05 33.50 124.05 32.70L124.12 32.78L124.10 32.76Q123.96 30.64 122.82 29.11L122.90 29.19L122.80 29.09Q121.61 27.56 119.67 27.60ZM124.50 37.69L124.61 37.79L124.54 37.72Q123.05 39.85 118.67 40.08L118.77 40.18L118.79 40.20Q114.45 40.19 112.81 39.09L112.90 39.18L112.95 39.23Q111.88 38.20 111.73 36.48L111.71 36.47L111.76 36.52Q111.79 35.48 111.98 33.61L111.91 33.54L111.84 33.47Q112.35 29.19 113.57 27.36L113.69 27.48L113.63 27.43Q115.33 25.01 119.17 25.04L119.07 24.95L119.16 25.04Q121.55 24.95 123.84 27.27L123.96 27.39L123.83 27.27Q124.12 21.62 125.72 15.11L125.71 15.10L125.63 15.02Q127.55 14.62 129.42 13.78L129.47 13.83L129.40 13.76Q126.77 20.34 126.50 27.35L126.60 27.45L126.54 27.39Q126.25 34.56 128.38 41.15L128.38 41.14L128.26 41.03Q126.78 40.57 125.06 40.19L124.94 40.07L124.93 40.06Q124.75 38.89 124.60 37.78ZM127.54 43.16L127.57 43.19L127.66 43.28Q129.63 43.72 132.18 45.25L132.20 45.27L132.31 45.38Q128.42 38.14 128.27 29.84L128.33 29.90L128.42 30.00Q128.15 21.65 131.24 14.27L131.29 14.33L131.22 14.25Q130.68 14.85 129.23 15.50L129.24 15.51L129.20 15.47Q129.46 14.24 130.07 13.02L130.23 13.18L130.21 13.17Q127.71 14.13 125.28 14.70L125.29 14.72L125.24 14.67Q123.83 20.49 123.56 26.58L123.55 26.57L123.66 26.68Q121.54 24.64 119.03 24.52L119.20 24.69L119.03 24.52Q115.71 24.52 113.81 26.61L113.81 26.62L113.83 26.63Q112.07 28.95 111.65 33.63L111.76 33.73L111.59 33.57Q111.50 36.48 111.50 36.90L111.48 36.89L111.50 36.90Q111.49 38.57 112.64 39.64L112.57 39.58L112.64 39.64Q112.84 39.84 113.03 39.92L112.95 39.84L113.42 40.50L113.50 40.58Q114.49 41.95 117.46 42.21L117.42 42.18L117.43 42.19Q119.60 42.30 120.97 42.38L120.97 42.38L121.03 42.43Q125.14 42.55 126.86 41.22L126.98 41.34L126.96 41.32Q127.09 42.02 127.55 43.17ZM121.39 30.00L121.36 29.97L121.32 29.93Q122.40 29.98 123.24 30.48L123.13 30.38L123.16 30.40Q123.72 31.76 123.79 32.79L123.70 32.70L123.70 32.69Q123.99 36.90 118.96 37.25L118.96 37.24L119.10 37.39Q118.05 37.25 116.95 36.98L117.07 37.11L116.97 37.01Q116.88 36.54 116.80 36.00L116.80 35.99L116.66 35.85Q116.62 35.21 116.66 34.60L116.83 34.77L116.71 34.65Q117.09 31.31 119.72 30.32L119.71 30.31L119.66 30.26Q120.58 29.84 121.27 29.88Z"/><path fill="#222" d="M62.93 14.25L62.97 14.30L62.97 14.29Q66.86 16.93 71.62 17.16L71.45 16.99L71.53 17.06Q76.20 17.29 80.47 15.54L80.36 15.43L80.44 15.50Q80.19 16.06 79.43 18.84L79.33 18.74L79.43 18.84Q76.69 19.87 73.72 20.02L73.77 20.07L73.63 19.93Q70.70 20.12 67.81 19.40L67.84 19.43L67.79 19.38Q68.60 23.12 68.79 26.77L68.82 26.80L68.71 26.70Q70.77 26.97 72.37 26.93L72.33 26.89L72.26 26.82Q73.55 26.89 75.95 26.78L75.88 26.71L75.98 26.81Q75.94 27.46 75.94 28.14L75.93 28.13L75.86 29.39L75.96 29.49Q73.55 29.48 68.75 29.56L68.79 29.59L68.76 29.56Q68.71 33.63 68.14 37.63L68.08 37.56L68.16 37.65Q70.72 36.93 73.46 37.04L73.62 37.20L73.56 37.14Q76.14 37.10 78.73 37.94L78.91 38.11L78.80 38.00Q78.93 38.86 79.20 39.62L79.07 39.50L79.67 41.15L79.59 41.08Q76.49 39.88 73.06 39.88L73.04 39.86L72.95 39.76Q68.10 39.79 63.83 42.03L63.88 42.08L63.91 42.11Q66.21 35.28 65.95 28.16L65.82 28.03L65.90 28.12Q65.65 20.97 62.99 14.31ZM63.46 42.88L63.34 42.76L63.34 42.76Q64.59 42.03 65.36 41.69L65.41 41.74L65.37 41.70Q65.21 42.50 64.64 44.02L64.71 44.09L64.59 43.97Q69.24 42.11 74.30 42.38L74.25 42.32L74.27 42.34Q79.34 42.54 83.34 45.25L83.42 45.32L83.40 45.31Q82.27 42.80 81.58 40.86L81.53 40.81L81.48 40.76Q80.56 40.22 79.57 39.88L79.58 39.89L79.51 39.82Q79.24 38.56 79.09 37.76L79.05 37.72L79.07 37.74Q75.84 36.60 72.68 36.60L72.83 36.76L72.69 36.61Q71.70 36.77 70.56 36.88L70.54 36.87L70.52 36.84Q70.50 35.45 70.53 34.23L70.57 34.26L70.62 31.72L70.63 31.74Q72.63 31.83 74.41 31.87L74.30 31.76L74.32 31.77Q76.08 31.75 77.87 31.90L77.90 31.93L77.99 32.02Q77.80 30.95 77.80 30.00L77.93 30.13L77.92 28.22L77.15 28.32L77.01 28.18Q76.62 28.28 76.16 28.28L76.26 28.38L76.21 28.33Q76.25 27.69 76.40 26.39L76.42 26.41L76.42 26.41Q74.79 26.61 73.61 26.65L73.66 26.69L73.46 26.50Q72.67 26.66 70.85 26.58L70.85 26.59L70.85 26.59Q70.75 25.15 70.56 22.34L70.43 22.21L70.56 22.34Q71.58 22.45 72.57 22.45L72.54 22.41L72.50 22.38Q77.25 22.41 80.95 20.51L81.01 20.57L80.93 20.49Q81.50 18.13 82.37 15.92L82.47 16.02L82.47 16.02Q81.02 16.74 80.19 17.08L80.27 17.17L80.16 17.06Q80.55 16.38 81.00 14.81L81.00 14.81L80.98 14.79Q76.29 16.88 71.42 16.58L71.44 16.60L71.54 16.70Q66.14 16.28 62.29 13.42L62.28 13.42L62.33 13.46Q65.29 20.50 65.60 28.11L65.44 27.95L65.47 27.98Q65.92 36.05 63.40 42.82Z"/><path fill="#222" d="M95.16 29.95L95.00 29.78L94.99 29.78Q94.73 29.75 94.43 29.75L94.61 29.92L94.48 29.79Q93.09 29.75 91.65 30.58L91.81 30.74L91.79 30.73Q90.39 31.76 90.39 33.66L90.32 33.60L90.45 33.72Q90.45 37.15 91.97 38.48L91.95 38.46L91.86 38.37Q92.95 39.68 95.23 39.68L95.25 39.71L95.11 39.57Q95.41 39.64 95.71 39.64L95.75 39.67L95.80 39.72Q97.47 39.68 98.61 38.04L98.60 38.03L98.52 37.95Q99.63 36.51 99.55 34.72L99.60 34.77L99.62 34.78Q99.53 34.16 99.53 33.75L99.70 33.92L99.60 33.81Q99.54 31.97 98.17 30.81L98.19 30.83L98.28 30.92Q96.84 29.68 95.05 29.83ZM99.60 40.06L99.59 40.05L99.67 40.13Q98.56 41.95 94.83 42.06L94.89 42.13L94.90 42.13Q91.44 42.17 89.84 40.57L89.85 40.58L89.89 40.62Q88.40 38.83 87.60 34.03L87.65 34.08L87.65 34.08Q87.19 32.18 87.19 30.92L87.25 30.98L87.24 30.97Q87.22 29.16 87.94 28.09L87.95 28.10L87.95 28.10Q89.45 26.87 92.42 26.87L92.35 26.79L92.39 26.83Q98.76 26.88 100.67 29.47L100.55 29.35L100.53 29.34Q100.68 28.50 101.10 26.90L101.16 26.96L101.24 27.04Q102.46 26.70 104.89 25.90L104.92 25.92L104.92 25.93Q102.46 31.53 102.23 37.85L102.27 37.89L102.17 37.80Q102.02 44.04 104.15 49.86L104.04 49.75L104.21 49.92Q102.34 49.15 100.55 48.89L100.70 49.04L100.59 48.92Q99.79 45.08 99.67 40.13ZM100.31 49.22L100.28 49.19L100.44 49.35Q101.02 49.36 102.43 49.66L102.55 49.78L102.55 49.78Q102.78 50.51 103.36 51.92L103.31 51.87L103.32 51.89Q105.93 52.63 108.21 53.92L108.12 53.83L108.12 53.83Q104.20 47.36 104.20 38.83L104.18 38.81L104.14 38.77Q104.05 32.32 106.52 26.53L106.57 26.59L106.50 26.51Q105.98 26.98 104.61 27.63L104.59 27.61L104.56 27.58Q104.76 26.68 105.41 25.12L105.54 25.25L105.56 25.27Q103.99 25.79 100.79 26.67L100.77 26.65L100.85 26.72Q100.61 27.17 100.30 28.35L100.37 28.41L100.34 28.38Q98.41 26.57 92.28 26.42L92.14 26.28L92.21 26.35Q88.94 26.19 87.57 27.68L87.72 27.83L87.58 27.70Q86.85 28.87 86.89 30.77L86.89 30.78L86.99 30.87Q87.07 33.84 88.06 37.61L88.10 37.66L88.10 37.65Q88.60 39.91 89.51 40.86L89.67 41.01L89.86 41.20L89.99 41.33Q91.15 44.09 96.59 44.32L96.62 44.35L96.62 44.35Q97.57 44.31 99.40 44.00L99.46 44.06L99.37 43.98Q99.66 46.89 100.27 49.18ZM97.04 32.24L96.91 32.11L96.91 32.11Q98.04 32.18 98.88 32.48L98.85 32.46L98.90 32.51Q99.05 32.99 99.16 33.60L99.14 33.58L99.23 33.67Q99.18 34.07 99.10 34.68L99.25 34.84L99.29 34.88Q99.20 36.69 98.17 37.98L98.24 38.05L98.24 38.05Q97.05 39.44 95.18 39.25L95.24 39.31L95.24 39.31Q93.91 39.28 92.96 38.86L93.02 38.92L92.94 38.85Q92.50 37.94 92.50 36.72L92.51 36.73L92.65 36.88Q92.59 36.51 92.59 36.21L92.47 36.08L92.51 36.13Q92.51 34.37 93.84 33.21L93.89 33.27L93.80 33.17Q95.15 32.03 96.90 32.10Z"/></svg>