<svg xmlns="http://www.w3.org/2000/svg" width="150" height="50" viewBox="0,0,150,50"><path fill="#222" d="M43.75 19.44L43.60 19.28L43.65 19.33Q44.58 23.65 44.73 27.23L44.73 27.23L44.62 27.12Q45.83 27.30 46.89 27.30L46.88 27.28L49.01 27.21L48.99 27.19Q49.98 27.11 50.85 25.70L51.04 25.89L50.88 25.73Q51.69 24.63 51.80 23.45L51.83 23.48L51.88 23.53Q52.25 20.51 48.02 20.01L48.04 20.03L48.00 19.99Q46.37 20.00 43.75 19.43ZM44.78 30.02L44.73 29.97L44.78 30.02Q44.70 36.23 43.56 40.64L43.51 40.59L43.42 40.51Q42.01 40.95 39.68 42.02L39.64 41.97L39.68 42.02Q42.07 35.38 41.80 28.11L41.73 28.04L41.75 28.06Q41.42 20.65 38.64 14.21L38.79 14.37L38.67 14.24Q42.93 17.13 49.18 17.13L49.13 17.08L49.09 17.04Q55.16 17.07 55.32 20.53L55.41 20.62L55.26 20.48Q55.44 23.01 54.45 25.68L54.48 25.72L54.47 25.70Q54.07 26.83 53.12 28.04L53.01 27.93L53.06 27.98Q51.71 29.56 49.16 29.83L49.16 29.83L49.18 29.85Q47.01 29.97 44.76 30.00ZM50.82 32.17L50.83 32.19L50.89 32.25Q54.96 32.40 56.22 27.60L56.26 27.64L56.16 27.55Q57.16 23.94 57.01 21.92L57.11 22.02L57.01 21.92Q56.95 20.45 56.19 19.46L56.23 19.51L56.12 19.40Q55.72 19.00 55.23 18.77L55.32 18.86L55.39 18.93Q55.31 18.70 54.70 17.94L54.67 17.91L54.70 17.93Q53.25 16.72 49.29 16.72L49.22 16.64L49.10 16.53Q42.27 16.58 38.04 13.42L38.04 13.42L38.12 13.50Q41.32 20.63 41.59 28.09L41.57 28.07L41.49 27.99Q41.80 35.68 39.14 42.76L39.18 42.81L39.07 42.70Q40.22 42.13 41.20 41.75L41.17 41.71L40.86 42.92L40.84 42.91Q40.72 43.55 40.46 44.12L40.34 44.01L40.30 43.97Q42.87 43.08 45.77 42.54L45.63 42.40L45.79 42.56Q46.57 36.99 46.65 32.27L46.59 32.21L46.55 32.17Q47.68 32.12 48.67 32.12L48.71 32.16L48.65 32.11Q50.10 32.22 50.90 32.26ZM49.90 22.27L49.89 22.26L49.97 22.35Q50.28 22.16 51.27 22.39L51.37 22.48L51.46 22.57Q51.39 22.62 51.43 22.93L51.43 22.92L51.45 22.95Q51.62 23.35 51.54 23.61L51.54 23.61L51.53 23.60Q51.33 24.74 50.61 25.61L50.68 25.68L50.60 25.60Q50.06 26.69 49.03 26.89L49.08 26.93L49.00 26.86Q48.37 26.95 46.73 26.95L46.62 26.83L46.65 26.86Q46.61 24.58 46.38 22.22L46.30 22.14L48.06 22.23L48.11 22.27Q48.97 22.30 49.85 22.22Z"/><path fill="#222" d="M13.65 14.31L13.56 14.21L13.73 14.38Q17.53 16.93 22.29 17.16L22.23 17.10L22.17 17.04Q26.89 17.31 31.15 15.55L31.17 15.57L31.08 15.48Q30.79 15.99 30.03 18.77L30.01 18.75L30.11 18.86Q27.43 19.94 24.46 20.09L24.40 20.04L24.29 19.92Q21.45 20.20 18.56 19.48L18.51 19.43L18.57 19.49Q19.24 23.09 19.43 26.74L19.47 26.78L19.42 26.74Q21.37 26.90 22.96 26.86L23.07 26.96L23.06 26.96Q24.33 27.00 26.73 26.89L26.72 26.88L26.59 26.75Q26.60 27.45 26.60 28.13L26.58 28.12L26.50 29.36L26.56 29.43Q24.15 29.41 19.35 29.49L19.34 29.48L19.43 29.57Q19.35 33.60 18.78 37.60L18.88 37.69L18.76 37.57Q21.44 36.98 24.18 37.10L24.26 37.18L24.26 37.17Q26.91 37.20 29.50 38.03L29.52 38.06L29.42 37.95Q29.65 38.91 29.92 39.67L29.83 39.58L30.34 41.16L30.25 41.08Q27.07 39.79 23.64 39.79L23.59 39.74L23.71 39.86Q18.71 39.74 14.45 41.98L14.50 42.04L14.49 42.03Q16.90 35.29 16.63 28.17L16.61 28.16L16.62 28.16Q16.30 20.95 13.63 14.29ZM14.03 42.78L14.09 42.84L14.06 42.81Q15.22 41.99 15.98 41.65L16.10 41.77L16.00 41.67Q15.75 42.37 15.18 43.90L15.32 44.03L15.27 43.98Q19.80 42.01 24.87 42.27L24.88 42.29L24.94 42.35Q29.96 42.50 33.96 45.20L34.10 45.35L34.03 45.27Q32.89 42.76 32.21 40.82L32.23 40.84L32.10 40.71Q31.19 40.19 30.20 39.85L30.20 39.84L30.21 39.85Q29.89 38.54 29.74 37.74L29.77 37.78L29.71 37.71Q26.66 36.75 23.50 36.75L23.41 36.67L23.37 36.62Q22.36 36.76 21.22 36.87L21.20 36.85L21.16 36.82Q21.29 35.57 21.32 34.35L21.24 34.26L21.35 31.79L21.32 31.76Q23.12 31.66 24.91 31.70L24.97 31.76L24.89 31.68Q26.89 31.89 28.68 32.04L28.68 32.04L28.70 32.06Q28.53 31.01 28.53 30.06L28.60 30.14L28.54 28.17L27.67 28.17L27.67 28.17Q27.24 28.24 26.78 28.24L26.76 28.22L26.79 28.25Q26.87 27.64 27.02 26.34L27.07 26.39L26.95 26.27Q25.33 26.48 24.15 26.52L24.28 26.66L24.22 26.59Q23.28 26.60 21.45 26.53L21.53 26.60L21.53 26.60Q21.33 25.07 21.14 22.25L21.17 22.28L21.28 22.39Q22.24 22.44 23.23 22.44L23.27 22.48L23.25 22.46Q28.01 22.50 31.71 20.60L31.54 20.44L31.60 20.49Q32.25 18.21 33.13 16.00L33.15 16.03L33.04 15.92Q31.76 16.81 30.92 17.15L30.85 17.08L30.97 17.20Q31.14 16.30 31.60 14.74L31.58 14.72L31.64 14.78Q27.09 17.01 22.22 16.71L22.20 16.69L22.18 16.67Q16.82 16.30 12.98 13.44L12.95 13.42L13.00 13.47Q15.89 20.43 16.20 28.05L16.23 28.08L16.14 27.99Q16.53 36.00 14.02 42.77Z"/><path fill="#333" d="M124.28 27.21L124.32 27.24L124.18 27.10Q125.13 27.26 126.54 27.10L126.55 27.12L126.52 27.08Q126.44 27.69 126.44 28.34L126.44 28.34L126.32 29.47L126.49 29.64Q125.50 29.49 124.66 29.56L124.79 29.69L124.81 29.72Q123.86 29.64 123.02 29.60L123.05 29.63L122.97 29.55Q120.16 35.77 116.74 40.37L116.74 40.37L116.75 40.38Q114.22 41.02 112.93 41.62L113.08 41.77L112.89 41.58Q117.18 36.06 120.23 29.78L120.20 29.74L117.43 29.60L117.51 29.68Q117.41 28.26 117.30 26.92L117.35 26.97L117.32 26.95Q119.36 27.23 121.41 27.23L121.36 27.18L123.26 23.48L123.16 23.38Q124.18 21.51 125.40 19.91L125.40 19.91L125.37 19.88Q123.91 20.13 122.31 20.13L122.33 20.15L122.37 20.19Q116.14 20.06 112.37 17.85L112.42 17.89L111.89 16.30L111.83 16.24Q111.49 15.40 111.11 14.52L111.01 14.43L111.14 14.56Q115.50 17.20 121.21 17.43L121.19 17.41L121.11 17.33Q126.18 17.50 131.32 15.52L131.45 15.64L131.40 15.60Q131.15 15.95 130.66 16.83L130.69 16.86L130.68 16.86Q127.11 21.66 124.26 27.18ZM132.22 18.16L132.27 18.21L133.38 16.32L133.36 16.29Q132.33 16.72 130.66 17.44L130.69 17.47L130.83 17.12L130.80 17.09Q131.01 17.03 131.12 16.91L131.04 16.83L131.04 16.83Q131.51 16.23 132.23 14.90L132.28 14.95L132.25 14.92Q126.93 17.21 121.18 16.99L121.23 17.03L121.03 16.83Q115.06 16.61 110.30 13.64L110.35 13.69L110.31 13.65Q111.39 15.57 112.22 18.23L112.16 18.17L112.31 18.32Q113.24 18.79 114.04 19.09L114.20 19.26L114.20 19.25Q114.30 19.55 114.76 21.41L114.68 21.34L114.65 21.30Q117.85 22.60 123.37 22.44L123.40 22.47L123.35 22.43Q123.17 23.12 121.19 26.89L121.03 26.73L121.06 26.76Q119.02 26.78 117.04 26.59L117.12 26.67L117.19 26.74Q117.10 27.40 117.10 28.28L117.23 28.41L117.15 30.05L118.74 29.96L118.87 31.50L118.86 31.49Q114.83 38.77 112.05 42.35L112.12 42.41L112.05 42.35Q113.69 41.62 115.32 41.12L115.34 41.14L115.35 41.16Q114.79 42.19 113.42 43.91L113.33 43.81L113.34 43.83Q116.41 42.64 118.85 42.41L118.99 42.55L118.93 42.48Q121.90 38.75 125.02 31.98L125.05 32.00L128.32 32.04L128.36 32.08Q128.28 31.16 128.28 30.25L128.39 30.36L128.27 28.45L128.23 28.41Q128.00 28.45 127.45 28.49L127.43 28.47L127.41 28.45Q126.93 28.56 126.67 28.56L126.72 28.62L126.76 28.66Q126.65 28.43 126.69 28.28L126.64 28.23L126.75 28.08L126.63 27.96Q129.17 22.84 132.25 18.20Z"/><path fill="#222" d="M80.01 23.34L79.90 23.23L79.96 23.29Q78.26 19.23 72.06 19.42L72.08 19.45L72.12 19.49Q67.70 19.59 65.72 21.04L65.73 21.06L65.68 21.00Q63.30 22.77 63.30 26.88L63.19 26.77L63.21 28.66L63.30 28.75Q63.20 37.48 72.22 37.48L72.36 37.62L72.28 37.54Q74.30 37.50 75.78 36.70L75.86 36.77L75.90 36.82Q77.67 35.73 77.52 33.86L77.43 33.78L77.54 33.89Q77.30 31.74 73.61 30.83L73.55 30.77L71.64 30.80L71.65 30.82Q70.81 30.92 69.85 30.96L69.79 30.89L69.69 30.79Q69.79 29.94 69.75 28.04L69.71 28.00L69.62 27.91Q77.30 27.94 81.49 27.59L81.60 27.71L81.65 27.76Q81.48 28.47 81.48 29.27L81.50 29.29L81.56 29.34Q81.50 30.08 81.54 30.88L81.52 30.87L81.59 30.93Q80.41 30.86 80.41 30.86L80.53 30.97L80.38 30.82Q78.96 30.78 79.34 30.78L79.51 30.95L79.33 30.76Q80.51 32.48 80.89 34.46L80.93 34.50L80.84 34.41Q80.95 35.13 80.95 35.59L81.06 35.69L81.07 35.70Q81.09 40.37 72.29 40.37L72.29 40.36L72.23 40.30Q65.15 40.34 62.56 38.24L62.49 38.17L62.53 38.22Q60.56 35.87 60.56 30.81L60.59 30.83L60.64 30.88Q60.51 29.69 60.36 26.99L60.40 27.03L60.44 27.07Q60.29 24.71 60.33 23.34L60.32 23.33L60.24 23.25Q60.40 20.44 61.77 18.84L61.71 18.78L61.85 18.92Q64.29 16.76 69.17 16.57L69.18 16.58L71.92 16.59L71.92 16.58Q74.99 16.46 78.42 16.88L78.27 16.72L78.35 16.81Q82.23 17.41 83.18 20.65L83.16 20.63L82.98 20.45Q82.08 21.49 79.99 23.32ZM81.30 25.43L81.41 25.42L81.56 25.57Q82.73 24.46 84.60 22.48L84.62 22.51L84.57 22.46Q84.24 21.48 83.25 19.76L83.22 19.73L83.23 19.75Q82.03 17.06 78.22 16.41L78.15 16.34L78.31 16.50Q76.20 16.40 71.90 16.10L71.89 16.10L69.10 16.12L69.15 16.17Q63.95 16.34 61.36 18.32L61.37 18.33L61.34 18.30Q59.95 19.92 59.84 23.00L59.83 23.00L59.91 23.08Q60.02 22.73 60.25 28.21L60.21 28.17L60.23 28.19Q60.15 29.44 60.22 32.18L60.27 32.23L60.23 32.19Q60.39 36.61 62.14 38.55L62.16 38.57L62.08 38.49Q62.58 39.45 63.45 40.32L63.44 40.31L63.52 40.38Q66.36 42.20 71.88 42.54L71.86 42.52L74.65 42.61L74.84 42.80Q76.29 42.77 78.31 42.65L78.34 42.68L78.41 42.75Q79.76 42.58 81.85 42.04L81.91 42.11L81.80 42.00Q83.80 41.56 83.77 39.24L83.74 39.21L83.83 39.30Q83.81 38.02 82.74 35.24L82.74 35.24L82.69 35.19Q82.40 34.29 81.86 33.49L81.98 33.60L81.91 33.54Q82.55 33.60 83.73 33.80L83.69 33.76L83.78 33.84Q83.32 30.07 83.35 29.39L83.32 29.36L83.50 29.54Q82.98 29.39 82.56 29.35L82.58 29.37L82.65 29.44Q82.23 29.36 81.84 29.44L81.83 29.42L81.77 29.36Q81.80 28.29 81.88 27.23L81.96 27.30L81.84 27.19Q75.62 27.74 69.34 27.63L69.32 27.61L69.40 27.70Q69.50 28.66 69.50 29.58L69.41 29.49L69.32 31.15L69.39 31.22Q69.81 31.26 70.23 31.22L70.33 31.32L70.34 31.33Q70.62 31.20 71.08 31.20L71.10 31.22L71.18 31.30Q71.17 31.74 71.21 32.24L71.17 32.20L71.18 32.21Q71.05 32.54 71.01 33.03L70.99 33.01L71.00 33.02Q72.12 33.08 73.15 33.04L73.18 33.07L73.12 33.01Q74.24 33.10 75.27 33.14L75.18 33.05L75.23 33.10Q76.35 33.43 77.23 33.81L77.15 33.73L77.22 33.83L77.05 33.66Q77.38 35.36 75.70 36.28L75.64 36.22L75.73 36.30Q73.99 37.15 72.27 37.15L72.26 37.13L72.31 37.19Q68.48 37.20 66.05 35.45L66.06 35.47L66.08 35.49Q65.06 33.40 65.22 30.85L65.26 30.89L65.26 30.90Q65.47 26.00 67.31 24.00L67.32 24.01L67.43 24.12Q69.25 22.10 73.94 21.79L73.95 21.81L73.88 21.74Q77.43 21.41 79.37 23.20L79.56 23.38L79.46 23.28Q79.60 23.46 79.71 23.65L79.72 23.66L79.79 23.61L79.79 23.61Q80.33 24.27 80.90 25.37L80.98 25.45L81.34 25.47Z"/><path fill="#333" d="M87.67 39.05L87.58 38.97L87.56 38.94Q89.42 36.54 94.18 29.27L94.11 29.20L94.08 29.17Q98.33 23.18 101.18 19.90L101.06 19.78L101.15 19.87Q99.06 20.18 96.97 20.18L96.85 20.06L96.97 20.18Q91.57 20.03 87.57 18.24L87.61 18.28L87.75 18.42Q86.92 16.33 86.23 14.77L86.38 14.92L86.34 14.88Q90.84 16.98 96.51 17.09L96.62 17.21L96.57 17.15Q101.60 17.12 106.78 15.22L106.87 15.31L106.76 15.20Q106.46 16.12 106.16 16.92L106.22 16.98L105.69 18.63L105.51 18.44Q102.61 22.24 98.61 28.07L98.60 28.06L95.28 32.88L95.26 32.86Q93.48 35.20 91.66 37.48L91.70 37.52L91.61 37.43Q94.94 36.84 98.25 36.92L98.29 36.96L98.38 37.05Q101.77 37.20 104.93 38.12L104.84 38.03L105.35 39.64L105.30 39.59Q105.51 40.37 105.85 41.20L105.82 41.18L105.94 41.30Q101.27 39.71 96.13 39.90L96.09 39.86L95.98 39.75Q90.98 40.08 86.48 42.09L86.43 42.04L86.46 42.07Q86.77 40.93 87.49 38.88ZM85.79 42.70L85.87 42.77L85.90 42.80Q87.09 42.17 87.89 41.90L87.90 41.91L87.93 41.94Q87.58 42.62 86.90 44.15L86.96 44.21L87.02 44.26Q92.69 42.09 98.67 42.32L98.55 42.21L98.64 42.30Q105.04 42.60 110.07 45.38L109.92 45.24L110.03 45.35Q108.58 42.91 107.78 40.74L107.67 40.63L107.80 40.76Q107.36 40.58 105.83 40.01L105.81 39.99L105.77 39.95Q105.63 39.23 105.21 37.75L105.11 37.65L105.23 37.77Q100.99 36.49 95.89 36.69L95.92 36.72L95.84 36.64Q98.00 33.92 101.54 28.37L101.59 28.42L101.56 28.39Q105.29 22.75 107.19 20.20L107.14 20.15L107.12 20.13Q107.56 18.66 108.59 15.96L108.56 15.93L108.69 16.07Q107.88 16.28 106.43 16.89L106.52 16.98L106.61 17.07Q106.79 16.11 107.51 14.58L107.59 14.66L107.64 14.71Q102.20 16.73 96.49 16.66L96.56 16.72L96.50 16.67Q90.48 16.51 85.53 13.99L85.53 14.00L85.53 14.00Q86.82 16.50 87.54 18.75L87.38 18.59L87.57 18.78Q88.66 19.29 89.46 19.52L89.41 19.47L89.32 19.38Q89.61 20.09 89.88 21.54L89.91 21.57L89.82 21.49Q93.55 22.55 98.42 22.36L98.51 22.44L98.52 22.46Q96.11 25.64 92.80 30.63L92.75 30.58L87.19 38.88L87.33 39.02Q86.81 40.13 85.78 42.68Z"/></svg>