<svg xmlns="http://www.w3.org/2000/svg" width="150" height="50" viewBox="0,0,150,50"><path fill="#444" d="M114.33 47.14L114.25 47.06L114.26 47.07Q113.25 47.20 111.35 47.51L111.32 47.48L111.48 47.63Q112.77 45.47 113.80 44.17L113.77 44.14L113.80 44.18Q115.56 44.49 115.71 44.49L115.60 44.37L115.60 44.37Q115.87 44.42 116.41 44.30L116.57 44.47L116.56 44.46Q117.08 44.22 117.27 44.22L117.41 44.35L117.36 44.31Q119.97 44.10 119.90 41.93L119.79 41.82L119.77 41.81Q119.84 40.43 119.73 34.18L119.58 34.04L119.64 34.09Q119.60 30.55 119.67 26.40L119.75 26.48L121.20 26.33L121.03 26.16Q121.86 26.23 122.55 26.00L122.43 25.88L122.53 25.99Q122.25 30.35 122.29 34.73L122.28 34.72L122.29 34.73Q122.29 39.07 122.82 43.44L122.85 43.48L122.78 43.41Q122.93 43.78 122.93 44.05L122.94 44.06L122.83 43.95Q122.88 45.64 121.21 46.02L121.30 46.11L121.24 46.05Q118.09 46.40 114.24 47.05ZM121.13 22.95L118.96 19.79L118.85 19.68Q120.00 18.40 121.83 15.62L121.78 15.57L121.82 15.61Q122.40 16.41 123.73 18.24L123.73 18.24L121.07 22.88ZM124.04 49.46L124.01 49.44L123.96 49.38Q124.64 49.57 125.40 49.22L125.41 49.24L125.40 49.22Q125.79 48.59 125.79 48.13L125.70 48.04L125.68 48.02Q125.69 47.68 125.57 47.07L125.49 46.99L125.53 47.03Q124.23 40.66 124.23 32.74L124.13 32.65L124.19 32.71Q124.25 29.91 124.40 27.02L124.41 27.03L124.32 26.94Q123.91 27.25 122.77 27.56L122.62 27.41L122.64 27.43Q122.70 26.99 122.74 26.46L122.74 26.46L122.87 25.41L122.91 25.46Q121.20 26.10 119.41 26.14L119.40 26.13L119.38 26.11Q119.29 30.40 119.33 33.98L119.36 34.01L119.47 41.85L119.50 41.88Q119.45 43.73 117.28 43.85L117.44 44.01L117.32 43.88Q117.21 44.00 116.70 44.06L116.63 44.00L116.59 43.95Q116.18 44.11 115.91 44.11L115.86 44.06L115.85 44.05Q115.34 44.00 113.78 43.58L113.77 43.57L113.82 43.62Q113.30 44.17 112.20 45.84L112.25 45.90L110.78 48.27L110.64 48.13Q111.57 48.00 113.21 47.62L113.14 47.55L112.67 48.26L112.19 48.96L112.21 48.98Q114.42 48.75 115.76 48.83L115.79 48.86L115.86 48.94Q118.05 48.99 123.99 49.41ZM120.97 23.55L120.91 23.49L121.32 23.02L121.40 23.10Q121.75 23.53 122.70 25.13L122.69 25.12L122.62 25.04Q124.20 21.99 125.76 18.90L125.78 18.92L125.75 18.89Q124.68 17.21 123.73 15.92L123.90 16.09L123.84 16.03Q123.72 16.33 123.38 16.86L123.33 16.81L123.21 16.69Q122.90 16.15 121.91 14.86L121.97 14.92L121.91 14.86Q120.75 16.47 118.42 19.82L118.45 19.85L118.38 19.78Q119.27 20.97 120.98 23.56Z"/><path fill="#222" d="M23.38 40.12L23.40 40.15L21.24 40.27L21.31 40.34Q20.86 40.34 19.89 40.40L19.78 40.29L19.81 40.32Q18.89 40.43 18.39 40.43L18.39 40.42L18.39 40.42Q16.83 40.50 15.80 39.66L15.82 39.68L15.67 39.53Q16.51 38.46 18.14 36.33L18.10 36.28L18.10 36.29Q19.46 37.95 21.67 37.72L21.55 37.60L21.63 37.69Q22.62 37.65 23.27 37.00L23.22 36.95L23.11 36.85Q23.82 36.26 23.71 35.39L23.63 35.30L23.79 35.46Q23.57 30.76 23.65 26.19L23.74 26.28L23.75 26.29Q23.72 21.62 24.26 17.01L24.30 17.05L24.23 16.99Q26.11 16.74 28.25 15.71L28.26 15.73L28.29 15.75Q26.44 22.51 26.44 29.74L26.49 29.79L26.39 29.69Q26.42 33.27 26.88 36.77L26.83 36.72L26.99 36.88Q26.97 37.13 26.97 37.47L27.08 37.58L26.95 37.45Q26.96 38.03 26.73 38.56L26.68 38.51L26.85 38.68Q26.21 39.86 23.39 40.13ZM28.40 43.05L28.42 43.06L28.66 42.97L29.03 42.91L29.20 42.70L29.26 42.77Q29.44 42.38 29.52 42.26L29.64 42.38L29.59 42.34Q29.83 41.21 29.57 40.22L29.56 40.21L29.41 40.06Q28.12 34.32 28.39 27.96L28.38 27.95L28.35 27.92Q28.71 21.92 30.49 16.02L30.55 16.07L30.37 15.89Q29.64 16.69 28.39 17.41L28.29 17.31L28.37 17.40Q28.45 16.52 28.87 15.00L28.84 14.97L28.91 15.05Q26.43 16.41 23.76 16.71L23.72 16.66L23.82 16.77Q23.41 21.12 23.34 26.07L23.30 26.03L23.27 26.00Q23.17 31.88 23.25 35.31L23.25 35.31L23.43 35.49Q23.30 37.08 21.55 37.23L21.58 37.26L21.61 37.28Q19.89 37.39 18.21 35.75L18.30 35.84L18.32 35.86Q16.13 38.24 15.18 39.80L15.22 39.84L15.27 39.90Q15.89 40.51 16.92 40.74L16.81 40.64L16.99 40.81Q16.74 40.79 16.47 41.02L16.56 41.11L16.47 41.02Q17.97 42.02 19.95 42.29L19.99 42.33L19.90 42.24Q20.34 42.33 23.63 42.64L23.73 42.74L23.61 42.62Q26.99 43.01 28.36 43.01Z"/><path fill="#111" d="M46.41 29.18L46.52 29.28L46.48 29.25Q44.53 29.16 43.31 30.50L43.41 30.60L43.41 30.59Q42.12 31.85 41.96 33.75L42.02 33.81L41.94 33.73Q41.72 35.83 42.94 36.84L42.96 36.86L43.00 36.90Q44.30 37.99 46.43 37.92L46.38 37.86L46.33 37.82Q48.61 37.62 49.57 36.67L49.67 36.78L49.68 36.79Q50.74 35.37 50.62 33.54L50.57 33.49L50.50 33.42Q50.32 31.49 49.24 30.29L49.27 30.32L49.41 30.46Q48.26 29.20 46.44 29.20ZM46.46 19.82L46.43 19.80L46.40 19.77Q45.06 19.72 43.73 20.21L43.63 20.12L43.58 20.06Q42.25 20.83 42.48 22.69L42.57 22.79L42.56 22.77Q43.07 26.52 46.42 26.52L46.40 26.50L46.48 26.59Q47.99 26.73 48.98 25.58L49.06 25.66L48.91 25.51Q49.90 24.37 49.94 22.81L49.93 22.80L50.06 22.93Q50.13 21.17 49.41 20.56L49.30 20.45L49.30 20.46Q47.72 19.71 46.43 19.79ZM46.09 40.28L46.07 40.26L43.02 40.25L43.11 40.35Q41.56 40.32 40.23 39.44L40.14 39.36L40.28 39.49Q38.78 38.23 38.94 35.37L38.98 35.41L39.02 35.45Q39.55 28.67 43.17 27.68L43.11 27.63L43.02 27.54Q40.80 26.69 39.47 21.32L39.44 21.29L39.55 21.41Q39.18 19.97 39.25 19.17L39.26 19.17L39.10 19.01Q39.50 16.97 43.19 16.93L43.09 16.83L43.09 16.83Q47.42 16.86 48.86 17.05L48.85 17.04L48.91 17.10Q52.72 17.59 53.17 19.61L53.06 19.50L53.13 19.57Q53.29 20.22 53.29 20.60L53.28 20.59L53.31 20.62Q53.26 21.25 53.07 21.86L53.13 21.92L53.17 21.97Q52.47 26.10 49.54 27.63L49.58 27.66L49.48 27.57Q53.04 28.42 53.54 33.71L53.60 33.78L53.56 33.73Q53.48 33.81 53.52 35.11L53.54 35.13L53.50 35.09Q53.70 37.95 52.10 39.02L52.01 38.92L52.06 38.98Q50.71 39.87 46.14 40.33ZM48.43 42.66L48.40 42.63L51.77 42.72L51.68 42.63Q53.54 42.86 55.06 42.13L54.93 42.00L54.97 42.04Q56.12 41.32 56.19 39.45L56.12 39.38L56.18 39.44Q56.16 38.28 55.78 36.34L55.79 36.35L55.80 36.36Q54.93 31.76 52.84 29.90L52.88 29.94L52.67 29.53L52.43 29.22L52.38 29.06L52.27 28.94Q53.93 27.59 54.84 23.44L54.85 23.45L54.97 23.58Q54.89 23.12 54.97 22.28L54.89 22.20L54.87 22.19Q55.12 21.67 55.05 21.06L54.95 20.97L55.03 21.04Q54.72 19.44 53.54 18.95L53.58 18.98L53.61 18.98L53.51 18.95L53.38 18.82Q53.10 18.09 51.92 17.29L51.99 17.36L52.12 17.45L52.06 17.39Q49.99 16.62 45.92 16.43L45.96 16.47L46.03 16.54Q44.39 16.35 43.02 16.46L43.03 16.47L43.15 16.59Q42.30 16.58 41.01 16.73L40.93 16.66L41.05 16.77Q39.12 17.17 38.89 18.81L38.91 18.82L38.80 18.71Q38.71 19.15 38.74 19.95L38.73 19.93L38.77 19.97Q38.95 20.57 39.52 22.93L39.57 22.99L39.56 22.97Q40.34 26.19 42.09 27.52L41.99 27.42L42.03 27.46L42.11 27.54Q39.34 28.84 38.81 34.02L38.88 34.09L38.77 33.98Q38.65 36.27 38.65 37.18L38.63 37.16L38.59 37.12Q38.73 38.97 39.91 39.89L39.97 39.94L39.96 39.93Q39.89 39.83 40.16 40.02L40.21 40.07L40.21 40.07Q41.38 42.49 48.49 42.72ZM47.96 31.45L47.96 31.45L48.00 31.49Q48.94 31.44 49.81 31.89L49.85 31.93L49.80 31.88Q50.19 32.88 50.15 33.41L50.11 33.37L50.24 33.50Q50.23 33.76 50.23 34.06L50.33 34.16L50.24 34.08Q50.19 36.38 47.91 37.22L47.93 37.25L47.94 37.25Q47.07 37.49 46.27 37.37L46.39 37.50L46.38 37.48Q45.29 37.61 44.14 37.15L44.15 37.16L44.00 37.01Q43.80 36.43 43.88 35.44L43.99 35.55L43.87 35.43Q44.11 33.92 45.31 32.70L45.32 32.71L45.35 32.74Q46.53 31.51 48.13 31.62ZM48.26 22.05L48.36 22.15L48.35 22.13Q49.09 21.95 49.62 22.11L49.62 22.11L49.60 22.89L49.70 22.98Q49.70 24.40 48.79 25.40L48.73 25.35L48.62 25.24Q47.77 26.31 46.40 26.12L46.38 26.10L46.47 26.19Q45.49 26.20 45.07 25.97L44.94 25.84L45.07 25.97Q44.94 25.62 44.83 24.93L44.91 25.02L44.96 25.06Q44.57 23.53 45.79 22.69L45.83 22.73L45.90 22.80Q46.84 21.99 48.24 22.03Z"/><path fill="#222" d="M64.47 41.18L64.35 41.06L64.30 41.02Q67.62 36.92 74.32 29.00L74.26 28.93L74.32 28.99Q68.26 29.07 64.50 27.70L64.53 27.73L64.64 27.84Q63.92 26.36 63.16 24.95L63.11 24.90L63.15 24.94Q67.15 26.35 71.60 26.39L71.64 26.43L71.73 26.52Q76.23 26.60 80.42 25.54L80.26 25.38L80.29 25.41Q79.96 26.15 79.70 26.68L79.62 26.61L79.58 26.56Q77.19 28.93 74.37 32.55L74.40 32.58L69.49 38.79L69.41 38.70Q71.59 38.45 73.84 38.53L73.81 38.50L73.91 38.59Q76.03 38.59 78.28 38.97L78.28 38.96L78.33 39.02Q78.43 39.58 79.15 41.59L79.19 41.63L79.13 41.57Q75.41 40.74 71.41 40.86L71.39 40.84L71.39 40.83Q67.47 40.99 63.81 42.17L63.84 42.19L63.89 42.25Q63.95 42.07 64.40 41.12ZM63.23 42.77L63.28 42.81L63.35 42.88Q64.03 42.46 65.63 42.04L65.70 42.11L65.65 42.06Q65.33 42.20 64.91 42.61L64.93 42.64L65.03 42.73Q64.85 43.35 64.24 44.50L64.12 44.38L64.20 44.46Q68.83 43.03 73.81 43.18L73.92 43.29L73.88 43.25Q78.86 43.43 83.42 45.29L83.32 45.19L83.34 45.21Q81.88 43.33 80.97 41.28L80.99 41.30L80.99 41.29Q80.32 41.08 79.25 40.85L79.28 40.89L79.14 40.74Q78.96 40.03 78.58 38.59L78.65 38.65L78.63 38.64Q77.06 38.28 73.48 38.17L73.56 38.25L73.47 38.16Q75.79 34.77 80.82 28.41L80.83 28.42L80.97 28.56Q81.21 27.81 81.90 26.48L81.80 26.38L79.64 27.27L79.60 27.23Q79.70 27.18 79.86 27.07L79.90 27.11L79.98 26.81L80.04 26.87Q80.45 25.75 81.02 24.80L81.03 24.81L80.94 24.73Q76.34 26.14 71.62 26.07L71.73 26.18L71.62 26.06Q66.93 26.09 62.44 24.27L62.30 24.13L62.38 24.21Q63.56 26.07 64.36 28.13L64.30 28.07L64.44 28.21Q65.24 28.48 66.31 28.75L66.28 28.72L66.29 28.73Q66.39 29.32 66.69 30.77L66.72 30.80L66.83 30.91Q68.39 31.14 71.71 31.29L71.60 31.19L71.58 31.17Q69.35 34.64 64.17 41.08L64.00 40.91L64.00 40.91Q63.81 41.55 63.24 42.77Z"/><path fill="#222" d="M106.32 22.99L106.41 23.07L106.46 23.13Q104.51 25.70 101.85 31.34L101.98 31.47L99.95 35.69L99.91 35.65Q98.98 37.50 97.65 39.74L97.63 39.73L97.79 39.89Q98.21 39.84 96.53 39.88L96.55 39.90L96.56 39.91Q96.40 39.75 95.15 39.75L95.33 39.94L95.21 39.82Q94.45 38.29 91.52 31.14L91.56 31.18L91.60 31.22Q89.40 25.82 87.31 22.81L87.42 22.93L87.31 22.81Q88.18 26.01 88.18 29.17L88.12 29.11L88.15 29.14Q88.15 35.65 85.18 41.21L85.05 41.08L85.20 41.23Q83.80 41.50 81.44 42.23L81.52 42.31L81.35 42.14Q85.14 36.56 85.14 29.33L85.07 29.26L85.02 29.20Q85.03 20.27 79.62 13.30L79.64 13.32L79.81 13.49Q81.28 14.05 83.64 14.73L83.62 14.71L83.78 14.88Q90.74 21.52 96.83 34.85L96.85 34.87L96.88 34.90Q100.29 27.80 102.49 24.30L102.61 24.41L102.62 24.42Q106.13 18.57 110.09 15.10L110.03 15.05L110.04 15.05Q111.41 14.94 113.77 14.18L113.61 14.02L113.68 14.09Q108.64 20.66 108.64 29.26L108.73 29.35L108.77 29.40Q108.65 35.93 112.07 41.45L112.20 41.58L112.19 41.57Q110.81 41.22 108.07 40.61L108.06 40.60L108.10 40.63Q105.75 35.86 105.75 29.88L105.61 29.74L105.76 29.88Q105.65 26.35 106.33 23.00ZM107.93 41.04L107.98 41.09L107.87 40.98Q108.49 41.03 109.94 41.30L110.10 41.46L110.09 41.45Q110.46 42.12 111.41 43.61L111.50 43.70L111.39 43.59Q113.48 43.96 116.94 45.18L116.97 45.21L116.92 45.15Q110.78 38.94 110.78 29.12L110.64 28.98L110.70 29.04Q110.64 21.25 115.01 15.12L115.15 15.26L112.87 15.86L112.87 15.86Q113.93 14.38 114.58 13.50L114.64 13.56L114.51 13.43Q112.64 14.07 110.01 14.60L110.04 14.63L110.13 14.72Q103.39 20.85 97.34 33.46L97.17 33.29L97.36 33.47Q92.11 22.44 87.16 17.19L87.03 17.06L87.08 17.11Q86.79 17.12 86.22 17.01L86.19 16.98L85.02 15.73L85.02 15.73Q84.49 15.12 83.80 14.51L83.63 14.34L83.63 14.34Q80.56 13.33 78.77 12.60L78.80 12.63L78.78 12.61Q84.84 19.89 84.84 29.29L84.90 29.35L84.78 29.23Q84.80 36.87 80.65 42.73L80.71 42.79L80.70 42.78Q81.43 42.60 82.73 42.18L82.73 42.18L82.64 42.09Q82.58 42.42 81.18 44.51L81.25 44.59L81.14 44.48Q82.91 43.97 86.42 43.21L86.43 43.21L86.37 43.16Q90.24 36.26 90.05 28.49L89.89 28.33L90.02 28.46Q91.59 32.50 95.05 40.38L94.90 40.23L95.02 40.35Q95.17 40.20 95.40 40.20L95.41 40.21L95.88 40.14L95.90 40.17Q96.46 40.95 97.26 42.24L97.27 42.26L97.27 42.26Q98.83 42.18 98.83 42.18L98.87 42.22L98.79 42.14Q99.79 42.12 100.44 42.19L100.49 42.24L100.52 42.27Q102.09 38.25 105.44 30.26L105.31 30.12L105.46 30.27Q105.37 35.74 107.96 41.07Z"/></svg>