<svg xmlns="http://www.w3.org/2000/svg" width="150" height="50" viewBox="0,0,150,50"><path fill="#333" d="M45.59 28.94L45.48 28.84L45.51 28.87Q43.05 28.96 42.02 30.14L41.90 30.01L41.98 30.09Q41.00 31.32 41.00 33.95L40.93 33.88L40.94 33.89Q40.99 39.04 45.60 38.85L45.65 38.90L45.56 38.82Q47.62 38.97 48.97 37.41L49.08 37.52L48.93 37.37Q50.39 35.92 50.16 33.86L50.20 33.90L50.08 33.78Q50.13 31.28 49.26 30.25L49.18 30.18L49.19 30.19Q47.80 28.94 45.59 28.94ZM50.62 38.74L50.68 38.80L50.54 38.66Q49.49 41.26 44.81 41.26L44.67 41.12L43.22 41.12L43.34 41.24Q40.91 41.17 39.80 40.02L39.81 40.03L39.73 39.95Q38.73 38.95 38.46 36.55L38.60 36.69L38.45 36.54Q38.35 35.10 38.27 33.31L38.25 33.29L38.37 33.41Q38.25 32.34 38.09 30.40L38.19 30.50L38.02 30.32Q37.92 26.03 43.09 26.03L43.21 26.15L44.71 26.08L44.65 26.03Q47.55 26.03 49.64 27.32L49.78 27.46L49.61 27.30Q50.52 27.89 51.01 28.58L50.97 28.54L51.03 28.60Q51.19 27.70 51.72 26.06L51.90 26.23L51.90 26.24Q52.95 25.87 55.27 25.26L55.43 25.42L55.44 25.43Q52.75 29.56 52.75 34.81L52.66 34.72L52.67 34.73Q52.81 38.60 54.18 41.69L54.07 41.57L54.12 41.63Q53.06 41.40 51.16 41.18L51.03 41.05L51.07 41.08Q50.87 40.24 50.57 38.68ZM53.99 44.01L53.89 43.91L56.14 44.52L56.04 44.42Q57.40 44.86 58.39 45.32L58.39 45.33L58.27 45.20Q54.61 40.86 54.61 34.77L54.68 34.84L54.64 34.80Q54.59 30.22 56.72 26.41L56.83 26.52L56.89 26.58Q56.20 26.77 54.87 27.15L54.91 27.19L54.75 27.03Q55.13 26.30 56.01 24.78L55.96 24.73L56.00 24.78Q55.41 24.95 51.41 25.78L51.52 25.89L50.93 27.70L50.85 27.62Q49.15 25.96 44.74 25.73L44.77 25.77L44.61 25.61Q43.54 25.68 41.30 25.83L41.25 25.79L41.40 25.93Q37.71 26.29 37.83 30.32L37.73 30.23L37.84 30.34Q37.84 33.53 38.41 37.99L38.35 37.93L38.49 38.48L38.39 38.39Q38.53 39.25 39.33 40.35L39.43 40.45L39.46 40.48Q39.57 40.59 39.76 40.70L39.83 40.77L39.76 40.70Q40.10 41.28 40.48 41.85L40.34 41.70L40.29 41.65Q41.83 43.31 45.22 43.50L45.28 43.56L45.27 43.55Q46.79 43.55 46.94 43.55L47.03 43.63L48.63 43.67L48.55 43.60Q51.81 43.65 53.02 42.09L52.93 42.00L52.98 42.04Q53.30 42.63 53.91 43.93ZM47.37 31.18L47.42 31.23L47.40 31.21Q48.59 31.07 49.43 31.53L49.62 31.72L49.47 31.57Q49.85 32.45 49.85 33.89L49.78 33.82L49.86 33.91Q50.07 35.82 48.79 37.25L48.81 37.27L48.80 37.26Q47.46 38.62 45.55 38.43L45.54 38.42L45.58 38.45Q44.15 38.48 43.13 38.06L43.14 38.06L43.16 38.09Q42.91 37.19 42.91 35.97L43.00 36.06L42.83 35.89Q42.94 32.35 45.57 31.40L45.69 31.52L45.57 31.40Q46.64 31.25 47.44 31.25Z"/><path fill="#111" d="M129.10 40.43L128.97 40.31L129.03 40.37Q126.08 36.50 123.45 27.86L123.37 27.78L123.52 27.93Q122.81 25.73 122.01 23.60L121.94 23.53L119.11 32.35L119.13 32.37Q117.28 37.25 114.88 40.49L114.94 40.55L114.95 40.56Q114.09 40.62 112.46 40.77L112.40 40.71L112.43 40.74Q112.55 39.57 112.55 38.31L112.49 38.26L112.49 38.25Q112.45 32.20 109.71 26.07L109.73 26.09L109.71 26.07Q106.75 19.34 100.89 14.36L100.71 14.18L100.75 14.22Q102.88 14.91 105.24 15.44L105.37 15.57L105.19 15.39Q113.97 23.94 115.27 34.90L115.19 34.82L115.19 34.83Q116.88 31.57 118.33 26.20L118.38 26.25L118.30 26.17Q120.24 18.63 120.74 17.23L120.85 17.34L122.98 17.22L123.01 17.25Q123.83 19.40 124.48 21.73L124.40 21.65L125.73 26.18L125.58 26.03Q127.31 31.64 128.72 34.88L128.53 34.69L128.62 34.78Q130.37 23.24 138.29 15.90L138.20 15.80L138.23 15.83Q139.81 15.55 142.78 14.91L142.79 14.92L142.74 14.86Q137.41 19.17 134.37 25.30L134.31 25.24L134.29 25.22Q131.21 31.47 131.21 38.25L131.33 38.36L131.19 38.23Q131.24 39.37 131.31 40.52L131.42 40.63L130.14 40.38L130.09 40.32Q129.67 40.44 129.10 40.44ZM135.28 43.26L135.32 43.31L135.36 43.35Q133.96 39.62 134.07 35.74L134.17 35.84L134.21 35.88Q134.47 24.26 143.84 16.00L143.95 16.11L143.76 15.92Q142.92 16.27 140.98 16.80L140.94 16.75L140.88 16.70Q141.95 15.98 143.85 14.19L143.80 14.14L143.83 14.17Q141.21 14.97 138.27 15.46L138.19 15.38L138.26 15.45Q130.78 22.58 128.87 32.06L128.73 31.92L128.74 31.92Q128.28 30.41 125.43 18.95L125.34 18.86L125.30 18.82Q124.94 18.96 123.99 18.96L124.04 19.01L123.74 17.95L123.74 17.95Q123.60 17.38 123.37 16.89L123.38 16.89L120.57 16.99L120.45 16.87Q119.64 19.33 118.37 24.45L118.30 24.38L118.32 24.40Q117.10 29.58 116.11 32.06L116.17 32.11L116.09 32.03Q114.52 24.14 108.96 17.82L108.97 17.83L108.98 17.84Q108.57 17.85 107.61 17.66L107.62 17.66L107.44 17.49Q106.83 16.76 105.27 15.12L105.34 15.19L105.30 15.15Q101.86 14.30 99.69 13.50L99.62 13.43L99.61 13.43Q105.36 18.18 108.64 24.39L108.58 24.33L108.64 24.39Q112.05 30.96 112.05 37.97L112.17 38.09L112.10 38.02Q112.18 39.65 111.99 41.25L111.94 41.21L111.83 41.10Q112.07 41.10 112.52 41.01L112.57 41.05L112.64 41.13Q113.01 40.94 113.24 40.94L113.22 40.93L113.25 41.98L113.37 42.10Q113.33 42.52 113.40 43.05L113.40 43.05L113.40 43.04Q114.58 43.01 116.86 42.85L116.75 42.74L116.81 42.81Q120.36 37.33 123.11 27.93L123.18 28.00L123.19 28.01Q125.89 36.73 128.86 40.69L128.92 40.75L128.98 40.81Q129.35 40.72 130.19 40.84L130.31 40.96L130.21 40.86Q131.14 41.98 132.21 43.05L132.09 42.93L132.15 43.00Q132.92 43.04 135.32 43.30Z"/><path fill="#222" d="M31.17 41.61L31.13 41.58L31.04 41.48Q29.06 41.22 26.89 41.06L26.75 40.92L26.90 41.07Q25.35 39.52 22.69 35.68L22.65 35.64L22.82 35.81Q20.48 38.76 18.08 41.19L18.12 41.23L16.10 41.69L16.09 41.68Q14.97 41.82 13.98 42.08L13.94 42.04L14.07 42.17Q18.24 38.05 21.25 33.93L21.23 33.91L21.09 33.77Q17.84 29.62 12.44 24.82L12.52 24.90L12.47 24.86Q14.81 25.71 17.52 26.13L17.41 26.03L17.48 26.09Q20.83 29.10 22.74 31.81L22.84 31.91L22.74 31.81Q24.89 28.78 27.63 26.27L27.64 26.28L27.57 26.21Q30.69 25.94 32.52 25.44L32.50 25.43L32.53 25.46Q28.08 29.19 24.39 33.76L24.22 33.60L24.27 33.64Q27.59 38.26 31.06 41.50ZM34.07 24.79L33.94 24.66L34.07 24.80Q31.06 25.51 27.52 25.86L27.52 25.86L27.46 25.80Q24.59 28.49 22.88 30.96L22.93 31.01L22.91 30.99Q22.04 29.97 20.40 27.99L20.49 28.07L20.18 27.96L20.30 28.08Q20.01 27.90 19.89 27.90L19.90 27.90L20.05 28.05Q19.19 27.12 17.55 25.67L17.54 25.66L17.52 25.64Q13.89 25.05 11.03 23.83L11.13 23.93L11.05 23.85Q16.57 28.65 20.61 33.79L20.68 33.87L20.65 33.84Q17.31 38.49 12.89 42.79L12.97 42.86L12.98 42.88Q13.14 42.69 16.64 41.85L16.61 41.83L16.72 41.93Q15.18 43.24 13.54 44.58L13.42 44.45L13.53 44.57Q16.68 43.61 19.84 43.42L19.89 43.46L19.81 43.39Q22.29 41.22 24.20 38.48L24.11 38.40L24.24 38.53Q25.66 40.29 26.88 41.47L26.72 41.31L26.76 41.35Q26.80 41.28 26.88 41.35L27.03 41.50L27.08 41.37L27.14 41.43Q28.51 42.65 29.85 43.71L29.70 43.56L29.82 43.69Q33.32 44.15 36.22 45.17L36.12 45.08L36.31 45.26Q29.96 40.63 26.26 35.45L26.36 35.55L26.45 35.63Q29.98 30.48 34.54 26.41L34.67 26.53L34.64 26.50Q33.54 26.70 32.55 26.93L32.65 27.02L30.71 27.56L30.65 27.50Q31.80 26.56 33.97 24.69Z"/><path fill="#333" d="M98.86 39.79L98.91 39.84L97.01 39.89L97.05 39.93Q95.93 39.75 94.98 39.87L95.12 40.01L94.97 39.86Q95.64 33.76 95.64 29.76L95.58 29.69L95.60 29.72Q91.73 23.14 84.07 14.46L83.93 14.32L84.03 14.42Q85.75 15.34 89.10 16.14L89.07 16.11L89.13 16.17Q94.17 21.74 97.17 26.95L97.21 26.99L97.15 26.93Q100.27 21.48 104.65 16.46L104.57 16.38L104.57 16.38Q107.06 16.05 109.57 15.25L109.55 15.24L109.61 15.29Q103.47 21.30 98.60 29.71L98.70 29.82L98.59 29.70Q98.68 36.83 98.98 39.92ZM107.93 17.19L110.74 14.44L110.68 14.39Q107.57 15.53 104.45 15.99L104.52 16.07L104.59 16.14Q100.23 20.72 97.41 25.82L97.41 25.82L97.39 25.80Q95.39 22.27 92.19 18.39L92.11 18.31L92.17 18.37Q91.79 18.26 91.30 18.18L91.31 18.19L91.32 18.20Q90.62 17.39 89.09 15.71L89.24 15.86L89.17 15.79Q85.79 15.04 82.82 13.48L82.84 13.49L82.84 13.50Q90.53 21.94 95.29 29.86L95.36 29.93L95.22 29.79Q95.20 36.21 94.59 40.36L94.49 40.26L94.58 40.35Q95.38 40.39 96.83 40.27L96.83 40.27L96.74 41.22L96.75 41.22Q96.71 41.64 96.64 42.18L96.66 42.20L96.61 42.15Q100.18 42.18 101.93 42.37L101.92 42.35L102.02 42.46Q100.78 37.79 100.66 31.81L100.65 31.80L100.69 31.84Q104.91 23.23 111.46 15.88L111.54 15.96L107.92 17.18Z"/><path fill="#333" d="M79.72 40.39L79.68 40.35L79.68 40.35Q76.67 36.43 74.05 27.79L74.08 27.82L74.02 27.76Q73.35 25.60 72.55 23.47L72.53 23.46L69.68 32.26L69.79 32.36Q67.92 37.23 65.52 40.47L65.56 40.50L65.46 40.40Q64.80 40.66 63.16 40.81L63.14 40.79L63.04 40.69Q63.13 39.49 63.13 38.23L63.16 38.26L63.20 38.30Q63.18 32.26 60.44 26.14L60.44 26.14L60.51 26.20Q57.31 19.24 51.45 14.25L51.43 14.23L51.52 14.32Q53.66 15.01 56.02 15.54L56.01 15.53L55.92 15.45Q64.63 23.93 65.92 34.89L66.00 34.97L65.95 34.92Q67.52 31.54 68.96 26.17L69.04 26.24L69.05 26.26Q71.00 18.73 71.50 17.32L71.46 17.28L73.65 17.23L73.81 17.39Q74.40 19.31 75.05 21.63L75.12 21.70L76.37 26.15L76.24 26.02Q77.92 31.58 79.33 34.82L79.29 34.78L79.30 34.79Q80.94 23.14 88.85 15.79L88.84 15.78L88.79 15.73Q90.31 15.38 93.28 14.74L93.48 14.93L93.45 14.91Q88.03 19.12 84.99 25.25L85.05 25.32L85.06 25.32Q81.87 31.46 81.87 38.24L81.85 38.22L81.87 38.23Q82.01 39.49 82.09 40.63L81.98 40.52L80.82 40.38L80.81 40.37Q80.24 40.34 79.67 40.34ZM86.04 43.36L86.00 43.32L85.88 43.20Q84.66 39.66 84.78 35.78L84.87 35.87L84.78 35.78Q85.11 24.24 94.48 15.97L94.52 16.02L94.44 15.93Q93.61 16.28 91.66 16.82L91.71 16.86L91.54 16.69Q92.56 15.92 94.46 14.13L94.53 14.20L94.56 14.23Q91.84 14.94 88.91 15.43L88.88 15.40L88.84 15.36Q81.31 22.45 79.41 31.93L79.58 32.10L79.57 32.10Q78.98 30.43 76.12 18.98L76.12 18.97L76.05 18.90Q75.63 18.98 74.68 18.98L74.70 19.00L74.30 17.84L74.44 17.98Q74.17 17.29 73.95 16.80L74.08 16.93L71.12 16.86L71.09 16.83Q70.39 19.41 69.12 24.53L69.08 24.50L69.07 24.48Q67.78 29.59 66.79 32.06L66.75 32.02L66.72 32.00Q65.11 24.07 59.56 17.75L59.59 17.78L59.60 17.80Q59.17 17.78 58.22 17.59L58.21 17.59L58.11 17.49Q57.42 16.68 55.86 15.05L56.01 15.19L55.95 15.14Q52.44 14.21 50.27 13.41L50.42 13.56L50.35 13.49Q56.09 18.25 59.37 24.45L59.33 24.42L59.27 24.36Q62.85 31.09 62.85 38.10L62.76 38.01L62.80 38.05Q62.80 39.62 62.61 41.21L62.57 41.17L62.63 41.23Q62.88 41.25 63.34 41.16L63.26 41.08L63.32 41.14Q63.69 40.96 63.92 40.96L63.95 40.98L63.96 42.02L63.91 41.98Q63.92 42.44 63.99 42.97L64.06 43.04L64.01 42.99Q65.25 43.01 67.53 42.86L67.36 42.69L67.35 42.68Q71.08 37.39 73.82 27.98L73.86 28.02L73.78 27.94Q76.54 36.72 79.51 40.68L79.52 40.68L79.56 40.72Q80.10 40.81 80.94 40.92L80.99 40.97L80.86 40.84Q81.65 41.83 82.72 42.90L82.83 43.00L82.81 42.98Q83.58 43.04 85.98 43.30Z"/></svg>