<svg xmlns="http://www.w3.org/2000/svg" width="150" height="50" viewBox="0,0,150,50"><path fill="#333" d="M21.68 40.89L21.86 41.07L21.71 40.93Q17.55 29.69 12.41 24.70L12.42 24.71L12.48 24.77Q13.92 25.37 16.89 26.02L16.91 26.03L16.87 26.00Q20.47 29.98 23.03 36.64L23.05 36.67L23.02 36.63Q25.73 29.33 28.35 26.29L28.28 26.21L28.20 26.14Q30.24 26.08 32.67 25.39L32.65 25.37L32.74 25.46Q29.48 28.10 27.31 32.67L27.25 32.61L27.40 32.75Q27.02 33.41 23.64 41.02L23.65 41.03L23.64 41.02Q23.04 41.12 21.83 41.04ZM26.37 43.38L26.45 43.46L26.35 43.35Q29.79 31.15 34.36 26.47L34.24 26.35L32.84 26.93L32.85 26.94Q31.98 27.09 31.14 27.21L31.19 27.26L31.17 27.24Q31.70 26.89 32.52 26.02L32.54 26.04L32.55 26.05Q33.31 25.11 33.76 24.69L33.81 24.74L33.80 24.73Q31.57 25.35 28.14 25.85L28.23 25.94L28.05 25.76Q25.52 29.12 23.46 34.72L23.41 34.67L23.46 34.72Q21.69 30.40 19.86 27.92L19.91 27.97L19.36 27.95L19.38 27.98Q19.13 27.99 18.91 27.99L18.85 27.94L18.91 28.00Q18.69 27.66 16.97 25.60L16.90 25.53L16.86 25.49Q13.53 25.02 11.28 23.87L11.38 23.98L11.26 23.85Q17.39 29.57 21.39 41.29L21.45 41.36L22.50 41.41L22.51 41.42Q22.89 42.11 23.73 43.40L23.65 43.33L25.09 43.39L25.12 43.43Q25.83 43.41 26.48 43.49Z"/><path fill="#444" d="M46.18 29.74L46.21 29.78L46.08 29.65Q42.01 29.57 41.44 32.62L41.38 32.56L41.49 32.67Q41.28 33.72 41.47 34.60L41.35 34.47L41.44 34.56Q41.38 35.26 41.84 36.67L41.95 36.78L41.80 36.63Q42.90 39.82 46.21 39.67L46.34 39.81L46.36 39.83Q48.28 39.80 49.61 38.24L49.55 38.18L49.58 38.21Q50.78 36.71 50.78 34.66L50.86 34.73L50.82 34.69Q50.99 34.13 50.83 33.07L50.84 33.08L50.79 33.02Q50.73 32.12 50.31 31.44L50.43 31.56L50.27 31.40Q48.83 29.92 46.24 29.80ZM51.03 48.23L51.04 48.23L50.99 48.19Q49.11 48.70 41.04 49.08L41.06 49.11L41.08 49.12Q39.48 49.27 37.84 48.44L37.84 48.44L37.77 48.36Q38.60 47.41 40.43 45.62L40.36 45.55L40.48 45.67Q42.83 46.65 44.93 46.46L44.96 46.49L45.03 46.57Q47.90 46.27 48.73 46.00L48.65 45.92L48.63 45.90Q50.98 45.32 50.98 43.54L50.94 43.49L50.85 43.40Q50.89 43.22 50.82 42.99L50.82 42.99L50.83 41.52L50.68 41.37Q50.76 40.68 50.76 39.88L50.81 39.93L50.82 39.95Q49.27 42.01 45.89 42.01L46.05 42.17L46.06 42.19Q42.05 42.06 40.41 39.86L40.40 39.84L40.50 39.94Q39.27 38.29 38.47 33.87L38.55 33.95L38.58 33.99Q38.16 32.35 38.16 30.94L38.16 30.94L38.27 31.05Q38.20 29.19 39.12 28.20L39.11 28.19L39.17 28.26Q40.83 26.84 45.48 26.84L45.55 26.91L47.21 27.01L47.25 27.05Q50.37 27.31 51.70 29.25L51.83 29.38L51.66 29.21Q51.86 28.38 52.28 26.75L52.45 26.91L52.30 26.77Q54.23 26.49 55.98 25.77L56.00 25.79L55.91 25.70Q53.25 31.79 53.25 39.02L53.30 39.07L53.25 39.03Q53.24 41.68 53.62 44.30L53.56 44.24L53.69 44.38Q53.81 44.99 53.73 45.67L53.84 45.78L53.73 45.67Q53.59 47.09 52.37 47.86L52.34 47.82L52.38 47.86Q51.79 48.03 50.95 48.15ZM53.93 51.09L53.93 51.09L53.98 51.14Q55.49 51.24 56.25 50.29L56.15 50.18L56.18 50.21Q56.57 49.31 56.46 48.59L56.45 48.58L56.44 48.57Q56.33 47.93 56.14 47.17L56.13 47.16L56.15 47.17Q55.02 42.05 55.36 36.79L55.19 36.63L55.33 36.76Q55.69 31.34 57.82 26.50L57.86 26.54L55.70 27.43L55.77 27.50Q55.93 26.81 56.15 26.24L56.06 26.14L56.54 24.99L56.60 25.05Q54.33 26.09 52.12 26.51L52.15 26.54L51.97 26.36Q51.78 27.36 51.63 28.38L51.50 28.25L51.50 28.25Q49.40 26.34 45.36 26.34L45.50 26.47L43.58 26.31L43.64 26.36Q40.35 26.32 38.68 27.72L38.70 27.75L38.72 27.77Q37.95 28.90 37.98 30.80L37.84 30.65L37.97 30.79Q38.03 33.29 39.06 37.55L38.97 37.46L38.98 37.47Q39.44 39.37 40.66 40.78L40.58 40.71L40.98 41.11L41.08 41.21L41.08 41.21Q42.09 43.39 44.67 43.93L44.82 44.07L44.83 44.08Q46.14 44.29 47.59 44.32L47.63 44.36L47.50 44.24Q49.43 44.45 50.49 44.07L50.47 44.05L50.41 43.99Q49.75 45.50 47.08 45.84L47.11 45.87L47.05 45.81Q46.14 46.11 45.45 46.11L45.49 46.15L45.00 46.04L45.04 46.08Q42.27 46.13 40.59 45.17L40.56 45.14L38.81 46.82L38.76 46.77Q37.90 47.58 37.06 48.53L37.18 48.65L37.21 48.68Q38.12 49.14 39.11 49.33L39.09 49.31L38.15 50.12L38.16 50.12Q40.85 51.18 46.48 51.18L46.52 51.22L46.75 51.21L46.79 51.25Q50.48 51.33 54.06 51.21ZM47.99 31.98L48.06 32.04L48.11 32.10Q49.30 31.91 50.21 32.33L50.29 32.41L50.33 32.45Q50.42 32.85 50.50 33.53L50.53 33.56L50.58 33.61Q50.67 33.97 50.63 34.88L50.58 34.83L50.52 34.77Q50.50 36.74 49.40 38.03L49.35 37.98L49.30 37.93Q48.08 39.30 46.18 39.26L46.24 39.32L46.19 39.27Q44.75 39.21 43.92 38.79L43.89 38.76L44.02 38.90Q43.59 37.70 43.55 36.67L43.65 36.77L43.56 36.68Q43.40 32.30 48.01 32.00Z"/><path fill="#222" d="M100.03 30.97L99.88 30.82L100.03 30.97Q99.88 29.71 97.93 28.99L97.86 28.91L98.01 29.06Q97.44 28.80 96.91 28.80L96.88 28.78L96.94 28.83Q95.57 28.83 94.50 29.40L94.47 29.37L94.41 29.31Q93.07 30.07 93.19 31.28L93.17 31.26L93.12 31.22Q93.48 34.05 93.33 36.30L93.35 36.32L93.34 36.31Q93.13 38.69 92.41 41.20L92.48 41.27L92.45 41.24Q90.44 41.86 89.26 42.28L89.15 42.17L89.11 42.13Q90.81 38.62 90.81 34.62L90.77 34.58L90.84 34.65Q90.70 29.06 88.11 24.61L88.18 24.68L88.11 24.61Q89.39 25.16 91.79 25.89L91.84 25.94L91.84 25.94Q92.19 26.71 92.57 28.23L92.48 28.14L92.55 28.21Q93.76 26.00 97.65 26.07L97.65 26.07L97.64 26.07Q99.15 26.13 99.95 26.25L99.94 26.23L99.92 26.21Q103.06 26.77 103.14 28.78L103.10 28.75L102.99 28.64Q103.07 29.59 102.88 30.62L102.97 30.71L102.98 30.73Q102.40 33.11 102.59 36.12L102.72 36.25L102.72 36.25Q102.68 38.91 103.67 41.46L103.82 41.61L103.83 41.62Q101.97 41.06 100.26 40.90L100.25 40.89L100.26 40.91Q99.82 38.57 99.75 35.90L99.77 35.93L99.74 35.90Q99.81 33.30 100.04 30.98ZM100.01 41.38L99.96 41.34L100.03 41.40Q100.73 41.30 102.02 41.53L102.13 41.63L102.53 42.72L102.50 42.69Q102.54 43.04 102.77 43.57L102.83 43.63L102.81 43.61Q105.20 44.13 107.90 45.31L107.81 45.22L107.84 45.25Q105.57 42.22 104.89 38.42L104.80 38.33L104.85 38.38Q104.51 36.25 104.63 32.56L104.64 32.57L104.66 32.60Q104.66 32.29 104.70 31.49L104.60 31.39L104.64 31.43Q104.73 30.84 104.66 30.34L104.69 30.38L104.69 30.37Q104.53 28.65 103.42 28.16L103.35 28.09L103.47 28.20Q103.16 27.21 102.40 26.60L102.55 26.75L102.45 26.65Q100.75 25.63 97.70 25.71L97.64 25.65L97.77 25.78Q95.78 25.69 94.94 25.88L94.92 25.86L95.06 26.00Q93.53 26.26 92.58 27.17L92.57 27.16L92.52 27.12Q92.55 26.73 92.17 25.70L92.16 25.69L92.16 25.69Q89.28 24.94 87.45 23.95L87.39 23.89L87.46 23.95Q90.46 28.78 90.46 34.53L90.61 34.68L90.46 34.53Q90.53 38.98 88.63 42.83L88.66 42.86L88.70 42.90Q89.21 42.42 90.50 42.04L90.51 42.05L90.63 42.17Q90.01 43.30 89.48 44.29L89.50 44.30L89.58 44.39Q90.96 43.90 94.50 43.33L94.43 43.26L94.44 43.27Q95.49 38.19 95.37 33.36L95.30 33.28L95.30 33.28Q95.32 32.50 96.50 31.78L96.52 31.80L96.63 31.91Q97.62 31.23 98.73 31.12L98.60 30.99L98.71 31.10Q99.21 31.10 99.63 31.29L99.47 31.13L99.48 31.15Q99.45 33.82 99.49 36.37L99.47 36.35L99.42 36.30Q99.40 38.75 99.89 41.26Z"/><path fill="#444" d="M74.93 27.19L74.91 27.17L74.84 27.09Q75.65 27.11 77.06 26.96L77.03 26.93L77.12 27.02Q77.00 27.58 77.00 28.23L77.06 28.29L77.18 29.66L77.09 29.57Q76.25 29.57 75.41 29.64L75.43 29.67L75.43 29.67Q74.50 29.61 73.66 29.58L73.73 29.64L73.81 29.73Q70.92 35.85 67.49 40.46L67.36 40.33L67.53 40.50Q65.04 41.16 63.74 41.77L63.69 41.72L63.59 41.62Q67.85 36.06 70.90 29.78L70.78 29.66L68.20 29.71L68.08 29.59Q68.20 28.37 68.08 27.04L68.12 27.07L67.98 26.93Q70.00 27.20 72.05 27.20L72.06 27.21L73.98 23.53L74.01 23.56Q74.92 21.58 76.14 19.98L76.15 19.99L76.04 19.88Q74.62 20.18 73.02 20.18L72.89 20.04L73.01 20.17Q66.85 20.10 63.08 17.89L63.18 17.99L62.56 16.30L62.46 16.20Q62.11 15.35 61.73 14.48L61.76 14.52L61.66 14.41Q66.11 17.15 71.82 17.38L71.70 17.25L71.71 17.27Q77.01 17.66 82.15 15.68L82.03 15.56L82.06 15.58Q81.96 16.10 81.47 16.97L81.36 16.87L81.39 16.90Q77.74 21.62 74.88 27.14ZM82.99 18.27L83.08 18.36L83.90 16.17L84.06 16.33Q83.12 16.84 81.45 17.56L81.38 17.50L81.48 17.10L81.55 17.17Q81.57 16.93 81.69 16.81L81.85 16.98L81.79 16.92Q82.21 16.27 82.93 14.94L82.87 14.87L82.84 14.84Q77.51 17.13 71.77 16.90L71.82 16.96L71.73 16.87Q65.84 16.73 61.09 13.76L61.01 13.68L61.01 13.68Q61.96 15.47 62.80 18.14L62.98 18.32L62.80 18.14Q64.03 18.91 64.83 19.22L64.80 19.19L64.79 19.17Q64.87 19.45 65.33 21.32L65.36 21.35L65.31 21.30Q68.54 22.62 74.06 22.47L74.02 22.43L74.02 22.43Q73.85 23.13 71.87 26.90L71.70 26.73L71.83 26.87Q69.79 26.88 67.81 26.69L67.67 26.55L67.81 26.69Q67.78 27.42 67.78 28.30L67.80 28.31L67.93 30.16L69.49 30.04L69.43 31.39L69.41 31.37Q65.51 38.78 62.73 42.36L62.84 42.47L62.87 42.49Q64.37 41.64 66.01 41.15L65.95 41.08L66.05 41.19Q65.43 42.17 64.06 43.88L63.99 43.81L63.96 43.78Q67.22 42.77 69.65 42.54L69.57 42.46L69.59 42.48Q72.48 38.67 75.60 31.89L75.59 31.88L79.14 32.20L78.99 32.04Q78.97 31.19 78.97 30.28L79.06 30.37L78.99 28.51L78.96 28.47Q78.68 28.46 78.13 28.50L78.23 28.60L78.21 28.58Q77.66 28.63 77.40 28.63L77.42 28.65L77.38 28.61Q77.43 28.55 77.47 28.40L77.38 28.30L77.37 28.03L77.44 28.10Q79.83 22.84 82.92 18.19Z"/><path fill="#333" d="M127.00 28.65L127.13 28.78L121.16 28.78L121.17 28.79Q118.30 28.89 115.37 28.82L115.28 28.73L115.32 28.77Q115.30 35.34 113.25 40.86L113.34 40.95L113.31 40.92Q111.44 41.37 109.68 42.05L109.74 42.11L109.86 42.23Q112.62 36.50 112.62 29.83L112.48 29.70L112.48 29.70Q112.52 21.25 108.41 14.21L108.41 14.21L108.48 14.27Q109.97 15.04 112.44 15.84L112.36 15.76L112.40 15.80Q114.55 20.88 115.09 25.76L115.10 25.77L115.15 25.82Q118.33 26.22 121.18 26.18L121.20 26.20L121.09 26.09Q123.73 26.06 127.04 25.80L127.11 25.86L127.04 25.80Q127.50 21.39 129.26 16.28L129.31 16.34L129.37 16.40Q131.33 16.00 133.58 15.16L133.53 15.12L133.50 15.09Q129.84 21.78 129.84 29.74L129.88 29.77L129.99 29.89Q129.90 36.00 132.26 41.33L132.17 41.24L132.33 41.40Q130.61 40.67 128.55 40.36L128.68 40.49L128.53 40.34Q127.02 35.48 127.14 28.78ZM128.35 40.77L128.39 40.81L128.25 40.67Q129.44 40.99 130.54 41.25L130.47 41.18L130.52 41.23Q130.73 41.82 131.38 43.30L131.51 43.44L131.40 43.33Q134.74 44.27 136.53 45.18L136.58 45.23L136.63 45.28Q132.25 39.19 131.94 30.92L131.87 30.86L131.76 30.74Q131.50 22.75 135.15 15.94L135.19 15.98L134.04 16.35L134.04 16.34Q133.57 16.61 132.97 16.76L133.06 16.85L133.02 16.81Q133.51 16.09 134.35 14.53L134.18 14.36L134.29 14.47Q131.61 15.48 128.98 15.97L128.90 15.89L129.02 16.01Q127.28 20.78 126.82 25.46L126.84 25.48L126.85 25.49Q124.45 25.79 122.01 25.79L121.93 25.71L121.93 25.71Q119.64 25.81 117.12 25.66L117.08 25.62L116.94 25.47Q116.82 22.31 115.71 18.24L115.65 18.17L115.78 18.30Q114.95 18.04 113.50 17.66L113.64 17.80L113.56 17.72Q113.16 16.48 112.70 15.46L112.81 15.57L112.71 15.46Q109.96 14.69 107.67 13.43L107.80 13.56L107.64 13.40Q112.36 20.97 112.36 29.77L112.32 29.73L112.23 29.63Q112.36 36.73 109.24 42.86L109.14 42.77L109.15 42.78Q109.79 42.43 111.12 41.86L111.17 41.90L111.23 41.96Q110.92 42.84 110.12 44.36L110.15 44.39L110.12 44.36Q112.85 43.28 115.10 42.86L115.22 42.98L115.21 42.97Q117.05 37.39 117.24 31.23L117.22 31.21L117.13 31.11Q118.70 31.00 121.90 30.97L122.04 31.11L121.94 31.01Q124.75 30.93 126.66 31.01L126.70 31.05L126.71 31.06Q126.97 36.80 128.30 40.72Z"/></svg>