<svg xmlns="http://www.w3.org/2000/svg" width="150" height="50" viewBox="0,0,150,50"><path fill="#222" d="M45.60 28.62L45.52 28.54L45.54 28.56Q42.73 28.56 41.97 30.81L42.03 30.87L42.06 30.90Q41.89 31.68 41.78 32.33L41.77 32.32L41.63 32.18Q44.36 32.51 46.00 32.51L45.90 32.41L45.98 32.49Q47.64 32.51 50.22 32.40L50.14 32.31L50.27 32.45Q50.11 30.69 48.71 29.63L48.58 29.50L48.60 29.52Q47.46 28.68 45.67 28.68ZM45.60 41.10L45.68 41.18L45.65 41.15Q41.36 41.09 40.06 39.68L40.15 39.76L40.17 39.79Q39.21 38.32 39.05 35.05L39.13 35.12L39.14 35.14Q38.99 34.76 38.91 33.39L39.02 33.49L38.96 33.43Q38.76 31.06 38.76 30.34L38.78 30.35L38.74 30.32Q38.92 28.63 39.64 27.53L39.62 27.50L39.46 27.35Q41.06 26.13 44.02 26.13L44.01 26.11L45.50 26.03L45.48 26.02Q47.47 25.95 48.99 26.26L49.09 26.35L49.05 26.32Q51.16 26.83 52.15 28.04L52.15 28.05L52.02 27.92Q52.76 29.11 52.84 31.21L52.90 31.27L52.89 31.26Q52.87 32.39 52.91 34.56L52.74 34.38L52.89 34.53Q49.98 34.52 47.20 34.52L47.11 34.43L41.55 34.47L41.60 34.51Q41.71 38.88 45.78 38.65L45.85 38.72L45.74 38.62Q49.63 38.54 50.85 36.72L50.80 36.67L50.76 36.63Q51.79 37.32 53.39 38.50L53.32 38.42L53.31 38.42Q51.94 40.81 47.79 41.08L47.68 40.97L47.77 41.07Q47.00 41.06 45.63 41.13ZM47.90 43.44L48.02 43.56L48.09 43.63Q49.09 43.49 50.31 43.56L50.31 43.56L50.19 43.44Q55.37 43.83 56.28 41.05L56.18 40.95L56.16 40.92Q54.56 39.70 53.45 38.94L53.57 39.06L53.40 38.89Q53.66 38.57 53.85 38.34L53.84 38.34L53.80 38.30Q53.08 37.85 51.71 36.90L51.64 36.83L51.78 36.97Q52.85 37.00 54.90 37.31L54.86 37.26L54.83 37.23Q54.71 35.93 54.63 35.25L54.61 35.22L54.54 33.36L54.44 33.26Q54.24 30.86 53.60 29.38L53.65 29.43L53.64 29.42Q53.33 29.04 52.76 28.43L52.78 28.45L52.81 28.48Q52.63 28.15 52.40 27.58L52.39 27.56L52.39 27.56Q50.52 25.54 45.46 25.54L45.49 25.57L43.78 25.53L43.89 25.65Q40.51 25.50 39.06 26.99L39.14 27.06L39.04 26.97Q38.36 28.07 38.39 30.13L38.55 30.28L38.43 30.17Q38.60 31.25 38.71 33.49L38.71 33.49L38.68 33.46Q38.80 35.10 38.92 37.16L38.89 37.13L38.77 37.01Q39.05 39.28 39.93 40.34L40.03 40.44L39.94 40.35Q40.17 40.58 40.36 40.69L40.41 40.75L40.63 41.31L40.59 41.27Q41.47 43.22 48.06 43.60ZM45.82 38.27L45.81 38.26L45.83 38.28Q44.67 38.38 43.76 37.92L43.76 37.92L43.70 37.87Q43.81 37.64 43.62 36.95L43.51 36.84L43.49 36.82Q45.17 36.71 46.77 36.71L46.73 36.68L46.77 36.72Q48.53 36.80 50.21 36.91L50.13 36.84L50.14 36.85Q48.94 38.28 45.93 38.39ZM47.48 30.95L47.44 30.91L47.50 30.97Q48.17 31.03 49.50 31.41L49.44 31.35L49.56 31.66L49.60 31.89L49.58 31.87Q48.30 32.08 47.39 32.04L47.45 32.10L47.30 31.95Q45.12 32.01 45.08 32.01L44.99 31.93L45.15 32.09Q45.79 31.05 47.47 30.94Z"/><path fill="#444" d="M68.37 40.31L68.45 40.39L68.52 40.45Q64.28 40.52 63.29 38.19L63.42 38.33L63.46 38.36Q64.14 37.34 65.70 35.55L65.72 35.56L65.71 35.55Q66.26 37.62 69.26 37.74L69.30 37.77L69.27 37.74Q72.69 37.85 74.32 36.51L74.28 36.48L74.28 36.47Q75.57 34.75 75.49 32.05L75.51 32.06L75.53 32.09Q75.40 27.04 70.60 27.27L70.69 27.36L70.69 27.36Q67.87 27.52 66.12 28.77L66.09 28.74L65.70 28.50L65.55 28.43L65.49 28.37Q65.82 25.20 65.71 22.46L65.76 22.51L65.76 22.51Q65.55 19.79 65.21 16.48L65.32 16.59L65.29 16.56Q69.00 17.57 72.81 17.45L72.73 17.38L72.71 17.36Q76.50 17.26 80.08 16.00L80.11 16.04L79.59 17.60L79.65 17.66Q79.21 18.30 79.02 19.13L79.13 19.24L79.10 19.22Q75.93 20.19 72.04 20.19L72.10 20.24L72.00 20.14Q70.65 20.24 69.17 20.09L69.23 20.15L69.21 20.13Q69.06 20.75 68.72 25.20L68.62 25.10L68.77 25.25Q69.45 24.64 71.51 24.49L71.56 24.54L71.65 24.63Q75.32 24.80 76.77 26.47L76.84 26.55L76.74 26.45Q78.10 27.95 78.36 31.80L78.51 31.95L78.36 31.80Q78.59 35.95 77.38 37.97L77.41 38.00L77.38 37.97Q75.48 40.00 72.17 40.23L72.16 40.21L72.05 40.10Q71.07 40.19 68.40 40.34ZM74.53 42.70L74.53 42.70L74.59 42.76Q77.99 42.80 79.89 41.70L79.84 41.65L79.86 41.67Q80.82 40.12 80.82 38.02L80.82 38.02L80.77 37.97Q80.76 34.88 79.81 30.77L79.85 30.81L79.87 30.83Q79.41 29.00 78.19 27.59L78.17 27.57L78.35 27.78L78.09 27.46L77.67 27.19L77.75 27.27Q77.34 26.43 76.69 25.75L76.78 25.83L76.73 25.82L76.79 25.88Q75.29 24.23 71.60 24.23L71.50 24.14L71.20 24.11L71.34 24.24Q71.43 23.69 71.62 22.58L71.51 22.47L71.49 22.46Q76.51 22.60 80.55 20.96L80.49 20.91L80.54 20.95Q81.05 19.64 82.00 16.83L81.92 16.74L79.77 17.64L79.89 17.75Q80.32 16.66 80.82 15.52L80.79 15.49L80.80 15.50Q76.89 16.88 72.77 16.96L72.73 16.92L72.70 16.89Q68.65 17.06 64.69 15.95L64.70 15.96L64.64 15.91Q65.48 20.48 65.48 24.90L65.37 24.78L65.47 24.89Q65.47 26.78 65.35 28.69L65.31 28.65L65.20 28.53Q65.50 28.76 66.07 29.06L66.07 29.06L66.14 29.13Q66.56 28.98 67.21 28.64L67.06 28.49L67.19 28.62Q67.08 29.31 66.85 30.83L66.75 30.73L66.88 30.86Q67.22 30.98 67.64 31.20L67.67 31.24L67.63 31.19Q70.41 29.45 72.28 29.45L72.28 29.44L72.35 29.52Q73.69 29.53 74.87 30.17L74.91 30.21L74.86 30.17Q75.16 31.15 75.20 32.10L75.30 32.20L75.13 32.03Q75.23 34.65 74.21 35.75L74.35 35.89L74.33 35.87Q72.90 37.04 70.66 37.26L70.57 37.18L70.74 37.35Q69.64 37.28 68.96 37.20L68.95 37.19L69.06 37.31Q68.10 37.07 67.34 36.73L67.46 36.85L67.41 36.61L67.28 36.70L67.18 36.60Q66.39 36.12 65.86 34.79L66.01 34.94L65.93 34.86Q64.50 36.18 62.83 38.31L62.91 38.39L62.97 38.45Q63.13 38.96 63.97 39.91L64.00 39.93L64.15 40.09Q65.19 41.88 68.00 42.38L67.88 42.26L67.93 42.30Q69.09 42.51 74.46 42.63Z"/><path fill="#111" d="M114.21 47.01L114.21 47.02L114.25 47.06Q113.26 47.21 111.36 47.51L111.48 47.64L111.36 47.52Q112.67 45.36 113.70 44.07L113.74 44.11L113.82 44.19Q115.56 44.48 115.71 44.48L115.64 44.41L115.73 44.50Q115.95 44.49 116.48 44.38L116.42 44.32L116.47 44.36Q117.23 44.36 117.42 44.36L117.38 44.33L117.27 44.21Q119.87 43.99 119.79 41.82L119.79 41.82L119.80 41.83Q119.85 40.44 119.74 34.20L119.61 34.07L119.58 34.04Q119.60 30.56 119.68 26.41L119.70 26.43L121.15 26.28L121.07 26.20Q121.77 26.14 122.45 25.91L122.40 25.85L122.41 25.87Q122.24 30.34 122.28 34.72L122.25 34.69L122.27 34.71Q122.22 39.00 122.75 43.37L122.86 43.49L122.83 43.45Q123.01 43.86 123.01 44.13L122.89 44.01L122.85 43.97Q123.00 45.76 121.33 46.14L121.27 46.09L121.32 46.13Q118.08 46.40 114.24 47.05ZM121.11 22.93L118.97 19.80L118.98 19.81Q120.01 18.40 121.83 15.62L121.75 15.53L121.78 15.57Q122.43 16.45 123.77 18.28L123.73 18.24L121.08 22.90ZM124.10 49.52L124.06 49.48L124.07 49.49Q124.57 49.50 125.33 49.15L125.32 49.15L125.36 49.18Q125.67 48.46 125.67 48.01L125.77 48.10L125.63 47.97Q125.61 47.61 125.50 47.00L125.55 47.05L125.58 47.08Q124.19 40.63 124.19 32.71L124.21 32.73L124.17 32.69Q124.18 29.84 124.33 26.95L124.28 26.90L124.43 27.05Q123.93 27.27 122.78 27.57L122.74 27.53L122.59 27.38Q122.71 27.00 122.75 26.47L122.65 26.38L122.77 25.31L122.88 25.42Q121.09 26.00 119.30 26.03L119.31 26.04L119.32 26.05Q119.19 30.30 119.23 33.88L119.36 34.01L119.38 41.76L119.45 41.83Q119.48 43.76 117.31 43.87L117.32 43.88L117.36 43.92Q117.07 43.86 116.56 43.92L116.66 44.02L116.62 43.98Q116.13 44.07 115.86 44.07L115.89 44.09L115.93 44.13Q115.26 43.92 113.70 43.50L113.70 43.50L113.84 43.64Q113.26 44.12 112.15 45.80L112.18 45.82L110.70 48.19L110.70 48.19Q111.62 48.05 113.26 47.66L113.13 47.53L112.75 48.34L112.22 48.98L112.22 48.99Q114.54 48.87 115.87 48.95L115.87 48.94L115.75 48.83Q118.16 49.10 124.09 49.52ZM120.95 23.53L120.92 23.50L121.31 23.01L121.41 23.11Q121.80 23.58 122.75 25.18L122.75 25.18L122.74 25.17Q124.31 22.09 125.87 19.01L125.75 18.89L125.72 18.86Q124.82 17.35 123.87 16.06L123.89 16.07L123.73 15.92Q123.54 16.15 123.20 16.68L123.20 16.68L123.28 16.76Q122.85 16.11 121.86 14.81L121.91 14.86L121.80 14.75Q120.70 16.43 118.38 19.78L118.29 19.69L118.33 19.73Q119.31 21.02 121.03 23.61Z"/><path fill="#222" d="M29.72 37.95L29.59 37.82L29.66 37.90Q29.94 38.86 30.47 40.88L30.59 41.00L30.48 40.88Q26.35 39.65 21.75 39.92L21.70 39.87L21.59 39.75Q17.03 40.04 13.03 42.02L13.08 42.06L13.04 42.02Q13.27 41.34 13.31 41.41L13.30 41.41L13.41 41.52Q17.05 37.46 20.97 33.05L21.00 33.08L21.04 33.12Q25.49 28.16 26.67 23.48L26.70 23.52L26.56 23.38Q27.17 21.77 25.89 20.59L25.75 20.45L25.90 20.60Q24.57 19.36 22.78 19.51L22.69 19.42L22.74 19.47Q22.40 19.44 22.05 19.44L21.97 19.35L22.02 19.40Q20.48 19.39 19.22 20.30L19.29 20.37L19.33 20.40Q17.90 21.64 18.13 24.31L18.21 24.38L18.28 24.46Q16.37 23.99 15.15 23.54L15.17 23.56L15.19 23.58Q15.03 22.20 14.96 20.75L14.96 20.76L14.85 20.64Q14.90 19.14 15.51 17.99L15.40 17.88L15.43 17.91Q17.27 16.59 20.62 16.59L20.63 16.61L22.42 16.65L22.27 16.49Q24.66 16.63 25.61 16.75L25.66 16.80L25.56 16.70Q29.98 17.20 30.25 19.64L30.26 19.65L30.28 19.67Q30.23 20.11 30.15 20.91L30.24 20.99L30.30 21.06Q30.21 21.65 30.05 22.34L29.93 22.21L30.02 22.30Q28.45 30.47 20.87 37.33L20.89 37.34L20.71 37.17Q22.27 37.16 23.64 37.16L23.51 37.03L23.49 37.02Q26.86 37.14 29.71 37.94ZM29.12 17.10L29.17 17.15L29.14 17.12Q27.60 16.53 25.89 16.46L25.88 16.45L22.46 16.26L22.31 16.11Q17.92 15.91 15.71 17.02L15.74 17.05L15.63 16.93Q14.69 18.44 14.69 20.49L14.63 20.42L14.72 20.51Q14.73 21.21 15.03 24.03L15.01 24.00L15.04 24.04Q15.47 24.16 16.65 24.46L16.75 24.57L16.62 25.47L16.68 25.52Q16.68 26.02 16.76 26.55L16.80 26.59L16.74 26.53Q18.04 26.69 20.51 26.92L20.42 26.82L20.49 26.90Q20.44 26.51 20.44 26.16L20.43 26.15L20.46 26.18Q20.35 24.24 21.57 22.89L21.65 22.97L21.65 22.97Q22.95 21.71 24.74 21.82L24.69 21.76L24.60 21.68Q25.50 21.86 26.26 22.01L26.17 21.91L26.15 21.90Q26.28 22.30 26.36 22.71L26.28 22.63L26.28 22.64Q26.32 23.05 26.24 23.39L26.27 23.42L26.36 23.51Q25.03 28.20 20.61 33.03L20.58 33.00L20.62 33.04Q18.60 35.40 13.16 41.46L13.07 41.37L13.14 41.43Q12.83 42.15 12.49 42.72L12.56 42.80L12.48 42.71Q14.17 41.94 15.70 41.40L15.63 41.34L15.68 41.38Q14.87 41.87 13.92 43.35L13.92 43.35L14.02 43.45Q13.92 43.81 13.80 44.15L13.75 44.10L13.71 44.06Q18.67 42.09 24.15 42.28L24.06 42.19L24.21 42.34Q29.85 42.46 34.42 44.82L34.42 44.83L33.31 42.57L33.39 42.65Q32.79 41.37 32.52 40.57L32.52 40.56L32.54 40.58Q31.67 40.01 30.45 39.59L30.60 39.74L30.54 39.68Q30.31 38.89 29.93 37.52L29.99 37.58L29.97 37.55Q27.68 36.90 25.40 36.71L25.42 36.73L25.39 36.71Q30.26 32.32 31.78 24.06L31.62 23.90L31.88 21.07L31.96 21.16Q31.84 19.33 30.62 18.64L30.54 18.56L30.45 18.51L30.62 18.67Q30.46 18.47 30.38 18.47L30.48 18.57L30.51 18.61Q30.22 17.70 29.12 17.10Z"/><path fill="#444" d="M95.47 40.21L95.48 40.22L95.48 40.22Q91.96 40.28 90.33 39.75L90.33 39.75L90.45 39.87Q88.39 39.14 88.08 35.75L88.01 35.68L89.48 34.64L89.62 34.78Q90.20 34.11 90.97 33.61L91.00 33.65L91.13 33.78Q90.69 35.51 92.29 36.72L92.39 36.83L92.31 36.75Q93.70 37.87 95.83 37.68L95.78 37.62L95.87 37.71Q100.18 37.23 99.99 33.69L100.07 33.77L100.06 33.76Q99.83 31.43 97.20 30.21L97.16 30.18L97.21 30.22Q94.31 29.12 91.95 27.90L92.04 27.99L91.90 27.85Q89.36 26.52 88.37 21.84L88.38 21.85L88.50 21.97Q88.32 21.45 88.20 20.68L88.23 20.71L88.29 20.78Q88.08 19.87 88.15 19.30L88.24 19.39L88.15 19.30Q88.40 17.80 89.66 17.34L89.62 17.31L89.58 17.26Q92.10 16.51 96.09 16.70L95.93 16.53L96.09 16.69Q97.84 16.73 98.64 16.80L98.70 16.87L98.74 16.91Q100.17 17.05 101.24 17.50L101.23 17.50L101.23 17.49Q103.31 17.94 103.54 20.41L103.59 20.46L103.57 20.44Q102.48 21.10 100.27 22.43L100.37 22.53L100.25 22.41Q99.81 19.39 95.44 19.39L95.40 19.36L95.52 19.47Q93.65 19.50 92.66 20.19L92.62 20.15L92.61 20.15Q91.47 20.67 91.69 22.46L91.69 22.46L91.70 22.47Q91.93 24.64 94.90 26.16L94.82 26.08L94.91 26.17Q95.44 26.40 99.93 28.04L99.95 28.06L99.98 28.08Q102.63 29.59 103.05 33.97L102.95 33.87L102.89 33.81Q102.95 34.02 103.02 35.27L102.99 35.25L103.02 35.27Q103.10 38.06 101.54 39.16L101.60 39.22L101.60 39.22Q99.71 40.15 95.52 40.26ZM97.88 42.70L97.80 42.61L97.79 42.60Q99.32 42.76 101.30 42.76L101.20 42.66L101.30 42.77Q103.36 42.73 104.62 42.32L104.54 42.24L104.62 42.32Q105.78 41.42 105.70 39.63L105.79 39.72L105.74 39.67Q105.74 38.71 105.35 36.66L105.30 36.60L105.40 36.70Q104.42 31.95 102.32 30.08L102.36 30.12L102.23 29.99Q101.64 28.60 100.31 27.88L100.13 27.70L94.89 25.69L94.92 25.73Q94.58 25.54 94.13 25.31L94.17 25.36L94.02 24.94L93.95 24.53L93.89 24.47Q93.83 23.15 94.97 22.54L94.92 22.49L94.98 22.55Q95.78 22.02 97.50 21.83L97.39 21.73L97.50 21.83Q98.58 21.66 99.72 22.11L99.72 22.12L99.64 22.03Q99.81 22.24 100.00 23.08L100.01 23.08L100.05 23.13Q100.08 22.82 100.58 22.59L100.73 22.74L100.72 22.74Q101.41 23.62 101.53 24.76L101.47 24.70L101.47 24.70Q101.63 24.74 105.28 22.15L105.29 22.16L105.22 22.09Q105.03 19.54 103.58 18.86L103.61 18.89L103.60 18.87Q102.98 17.57 101.53 17.03L101.43 16.93L101.45 16.95Q99.16 16.15 95.96 16.15L96.02 16.20L96.10 16.28Q91.09 16.18 89.22 16.87L89.33 16.98L89.32 16.97Q87.99 17.43 87.88 19.11L87.70 18.92L87.75 18.98Q87.67 19.47 88.09 21.68L88.13 21.71L88.16 21.74Q88.95 25.62 91.12 27.86L91.01 27.75L90.95 27.70Q91.80 29.45 93.30 30.14L93.30 30.14L93.31 30.15Q94.85 30.87 98.77 32.43L98.69 32.35L98.82 32.52L99.33 32.72L99.46 32.89L99.36 32.79Q99.54 33.24 99.57 33.58L99.55 33.56L99.69 33.70Q99.66 37.05 95.73 37.20L95.72 37.19L95.74 37.20Q94.68 37.32 93.38 36.94L93.35 36.91L93.35 36.91Q93.09 36.15 93.09 35.43L93.02 35.36L92.94 35.28Q92.96 35.04 93.00 34.77L93.12 34.89L92.98 34.75Q92.57 34.99 91.77 35.49L91.76 35.47L91.90 35.61Q91.37 34.47 91.52 33.10L91.56 33.14L91.57 33.15Q89.45 34.31 87.85 35.72L87.72 35.58L87.82 35.69Q87.84 36.46 87.91 37.49L87.92 37.50L87.94 37.51Q88.21 39.20 89.51 39.96L89.60 40.05L89.53 39.98Q90.79 41.85 93.34 42.23L93.22 42.11L93.32 42.21Q94.97 42.52 97.90 42.71Z"/></svg>