<svg xmlns="http://www.w3.org/2000/svg" width="150" height="50" viewBox="0,0,150,50"><path fill="#333" d="M28.34 28.66L28.42 28.74L22.43 28.72L22.45 28.74Q19.49 28.75 16.56 28.67L16.62 28.74L16.68 28.80Q16.79 35.49 14.73 41.01L14.61 40.89L14.59 40.87Q12.94 41.54 11.19 42.23L11.18 42.21L11.19 42.22Q13.95 36.50 13.95 29.84L13.87 29.76L13.86 29.74Q13.79 21.18 9.68 14.14L9.77 14.23L9.73 14.20Q11.30 15.04 13.77 15.84L13.67 15.74L13.73 15.80Q15.98 20.98 16.52 25.85L16.33 25.67L16.39 25.72Q19.59 26.15 22.45 26.11L22.47 26.14L22.43 26.09Q25.11 26.11 28.43 25.85L28.42 25.84L28.46 25.89Q28.96 21.51 30.71 16.41L30.57 16.26L30.71 16.40Q32.67 16.01 34.92 15.17L34.86 15.11L34.83 15.09Q31.18 21.79 31.18 29.75L31.20 29.77L31.28 29.85Q31.33 36.10 33.69 41.43L33.55 41.29L33.62 41.36Q32.02 40.75 29.97 40.45L29.95 40.43L30.00 40.48Q28.26 35.39 28.37 28.69ZM29.69 40.78L29.72 40.81L29.63 40.72Q30.75 40.96 31.85 41.22L31.85 41.23L31.90 41.28Q32.17 41.92 32.81 43.41L32.88 43.47L32.70 43.30Q36.15 44.35 37.94 45.26L37.95 45.27L37.84 45.16Q33.55 39.16 33.25 30.90L33.16 30.81L33.13 30.78Q32.89 22.81 36.54 15.99L36.58 16.04L35.55 16.52L35.39 16.37Q35.06 16.75 34.45 16.91L34.27 16.73L34.31 16.77Q34.70 15.94 35.54 14.38L35.64 14.49L35.58 14.43Q32.97 15.51 30.35 16.00L30.24 15.90L30.22 15.88Q28.57 20.74 28.12 25.42L28.25 25.56L28.11 25.42Q25.78 25.79 23.34 25.79L23.20 25.65L23.22 25.67Q20.82 25.66 18.31 25.51L18.42 25.62L18.42 25.63Q18.19 22.35 17.09 18.28L16.95 18.14L16.99 18.18Q16.42 18.18 14.97 17.80L14.96 17.79L14.86 17.69Q14.46 16.45 14.00 15.42L14.16 15.58L14.08 15.50Q11.30 14.70 9.02 13.44L8.96 13.39L9.08 13.50Q13.70 20.98 13.70 29.78L13.52 29.60L13.53 29.61Q13.54 36.59 10.42 42.72L10.42 42.71L10.57 42.86Q11.26 42.56 12.59 41.99L12.59 41.99L12.64 42.04Q12.13 42.71 11.33 44.23L11.32 44.22L11.40 44.30Q14.28 43.37 16.52 42.95L16.52 42.95L16.46 42.89Q18.38 37.39 18.57 31.22L18.50 31.15L18.53 31.18Q20.03 31.01 23.23 30.97L23.22 30.96L23.26 30.99Q26.21 31.06 28.12 31.13L27.99 31.01L28.12 31.14Q28.35 36.85 29.68 40.77Z"/><path fill="#222" d="M117.23 33.25L117.36 33.38L117.23 33.25Q117.13 36.12 115.95 40.77L115.99 40.81L115.97 40.78Q114.06 41.20 112.46 42.00L112.64 42.17L112.48 42.01Q115.09 34.99 114.82 27.57L115.00 27.75L114.98 27.73Q114.56 20.19 111.48 13.45L111.61 13.59L111.59 13.56Q113.41 14.70 115.28 15.27L115.47 15.47L115.43 15.43Q117.46 22.29 117.46 28.95L117.54 29.03L117.47 28.96Q117.59 30.53 117.52 32.01L117.47 31.97L117.47 31.97Q118.65 30.79 123.87 25.84L123.73 25.70L123.88 25.85Q124.99 25.86 125.98 25.78L125.85 25.65L128.00 25.55L128.02 25.58Q124.76 28.48 120.46 32.25L120.45 32.24L120.59 32.39Q123.82 35.01 130.29 40.83L130.35 40.89L130.29 40.83Q127.54 39.90 124.57 39.71L124.69 39.83L124.60 39.75Q122.17 37.74 117.30 33.32ZM127.16 42.45L127.10 42.40L127.12 42.42Q131.81 43.22 134.93 45.16L134.98 45.22L135.02 45.25Q133.85 43.97 131.22 41.57L131.30 41.65L131.23 41.58Q131.51 41.70 131.77 41.82L131.64 41.68L131.68 41.72Q129.65 39.77 127.40 37.86L127.42 37.88L123.03 34.03L122.93 33.92Q127.96 29.78 130.40 26.89L130.42 26.91L130.27 26.76Q129.02 26.81 126.55 27.08L126.68 27.21L126.68 27.20Q128.25 25.73 128.94 24.89L129.03 24.98L128.88 24.84Q126.07 25.30 123.60 25.30L123.72 25.43L123.75 25.46Q122.33 26.74 119.59 29.40L119.52 29.33L119.59 29.40Q119.57 23.59 118.58 17.77L118.56 17.75L118.46 17.65Q117.78 17.50 116.29 17.23L116.42 17.36L116.38 17.32Q116.19 16.56 115.73 15.08L115.71 15.06L115.75 15.10Q113.00 14.17 110.75 12.61L110.77 12.63L110.93 12.78Q114.25 19.50 114.59 27.61L114.63 27.64L114.55 27.56Q115.05 35.63 112.04 42.87L111.91 42.74L111.89 42.71Q112.58 42.41 113.91 41.77L114.05 41.91L114.03 41.89Q113.67 42.60 113.02 44.04L113.15 44.17L113.11 44.13Q115.87 42.97 118.00 42.59L118.08 42.67L118.03 42.62Q118.69 40.19 119.18 35.92L119.10 35.84L119.18 35.92Q121.75 38.15 127.20 42.49Z"/><path fill="#222" d="M48.60 20.08L48.65 20.13L48.59 20.07Q44.35 20.13 40.65 19.14L40.56 19.04L40.58 19.06Q42.09 23.62 42.28 28.45L42.42 28.59L42.33 28.50Q42.56 33.34 41.34 37.94L41.34 37.95L41.30 37.90Q44.16 37.34 47.66 37.18L47.63 37.16L47.56 37.08Q51.52 36.93 53.31 34.49L53.38 34.56L53.28 34.47Q54.77 32.38 54.96 28.27L55.06 28.36L55.01 28.32Q55.18 26.66 54.72 24.94L54.64 24.86L54.72 24.95Q53.31 20.07 48.59 20.07ZM36.81 42.21L36.66 42.06L36.65 42.05Q39.70 36.53 39.70 29.83L39.66 29.79L39.65 29.78Q39.63 21.24 35.33 14.24L35.35 14.25L35.27 14.17Q40.52 16.83 48.78 17.02L48.78 17.02L48.88 17.13Q57.80 17.36 58.14 24.52L58.14 24.52L58.09 24.47Q58.23 27.19 58.19 28.64L58.10 28.55L58.06 28.51Q57.98 33.19 57.14 35.36L57.22 35.44L57.14 35.35Q56.77 36.51 56.00 37.34L56.11 37.45L55.94 37.28Q54.72 38.95 52.10 39.45L51.94 39.30L51.98 39.34Q50.50 39.72 47.49 39.94L47.40 39.86L47.47 39.93Q41.43 40.47 36.83 42.23ZM54.66 42.01L54.69 42.05L54.63 41.98Q57.36 41.63 58.99 40.14L59.00 40.15L59.11 40.25Q60.19 38.37 60.15 35.63L60.22 35.69L60.25 35.73Q60.20 34.31 60.05 30.80L60.07 30.83L59.68 26.25L59.63 26.20Q59.52 23.99 58.57 21.90L58.65 21.98L58.50 21.83Q57.98 20.90 57.30 20.25L57.44 20.39L57.36 20.16L57.39 20.19Q55.59 17.13 51.17 16.75L51.15 16.73L51.26 16.83Q48.61 16.74 41.61 16.02L41.53 15.94L41.59 16.00Q38.35 15.58 34.66 13.56L34.61 13.51L34.61 13.51Q39.33 20.79 39.33 29.54L39.31 29.52L39.43 29.64Q39.30 36.51 35.95 42.68L35.96 42.69L36.14 42.87Q36.68 42.46 38.02 41.97L38.12 42.07L38.05 42.00Q37.71 42.84 36.84 44.33L36.82 44.31L36.79 44.28Q39.81 43.19 43.16 42.69L43.29 42.82L43.22 42.76Q45.24 42.38 48.89 42.26L49.03 42.40L48.94 42.31Q52.92 42.30 54.75 42.11ZM54.78 28.47L54.68 28.37L54.72 28.40Q54.36 36.42 47.66 36.80L47.54 36.69L47.70 36.85Q45.74 36.94 43.69 37.21L43.55 37.07L43.56 37.08Q44.36 33.32 44.36 29.66L44.36 29.66L44.38 29.68Q44.23 25.84 43.51 21.99L43.49 21.97L43.65 22.13Q45.87 22.45 50.55 22.45L50.52 22.42L50.64 22.54Q51.88 22.26 53.52 23.21L53.57 23.26L53.56 23.25Q54.85 25.53 54.70 28.39Z"/><path fill="#444" d="M71.12 41.04L71.17 41.09L69.57 41.21L69.42 41.06Q66.11 41.13 65.16 39.00L65.12 38.96L65.18 39.02Q66.37 38.01 67.82 36.90L67.81 36.89L67.70 36.78Q68.39 39.07 71.24 38.92L71.22 38.89L71.25 38.92Q72.04 38.88 73.07 38.65L72.97 38.55L73.12 38.70Q73.93 38.07 73.86 37.11L73.85 37.11L73.88 37.14Q73.74 35.97 71.95 35.29L71.99 35.32L68.16 33.78L68.20 33.82Q65.80 32.41 65.45 28.86L65.57 28.98L65.58 28.99Q65.38 26.85 67.55 26.28L67.55 26.28L67.44 26.17Q68.55 26.10 71.52 26.10L71.51 26.08L71.36 25.94Q76.35 26.05 77.26 28.57L77.32 28.62L77.33 28.63Q76.55 29.04 75.83 29.49L75.96 29.63L74.54 30.57L74.51 30.53Q73.99 28.60 70.75 28.37L70.80 28.42L70.78 28.40Q70.11 28.34 69.08 28.76L69.21 28.89L69.16 28.84Q68.49 29.08 68.49 30.19L68.51 30.21L68.47 30.16Q68.84 31.26 70.67 31.95L70.71 31.99L70.80 32.08Q71.86 32.45 74.52 33.56L74.44 33.48L74.45 33.49Q76.21 34.25 76.40 36.80L76.56 36.96L76.54 36.94Q76.49 37.47 76.42 38.46L76.45 38.49L76.42 38.46Q76.51 39.46 75.94 40.11L75.89 40.06L75.89 40.06Q74.22 41.10 71.18 41.10ZM75.89 43.64L75.92 43.67L75.95 43.70Q76.95 43.82 78.32 43.52L78.25 43.45L78.20 43.40Q79.28 42.73 79.09 41.51L79.09 41.51L79.13 41.55Q78.98 40.91 78.68 39.31L78.66 39.29L78.83 39.47Q78.17 36.41 76.38 35.19L76.43 35.23L76.48 35.28Q75.83 33.75 74.57 33.03L74.57 33.03L74.68 33.14Q73.34 32.64 70.87 31.69L70.88 31.70L70.98 31.81Q71.08 31.30 71.35 31.18L71.24 31.08L71.42 31.26Q71.88 30.65 72.53 30.61L72.52 30.60L72.64 30.73Q73.46 30.70 74.22 30.97L74.10 30.85L74.11 30.93L74.22 30.93L74.55 31.07L74.49 31.05L74.58 31.13Q75.51 31.46 75.70 32.72L75.78 32.79L75.79 32.80Q77.03 31.95 78.93 30.27L78.86 30.20L78.89 30.23Q78.65 29.53 77.66 28.35L77.72 28.42L77.79 28.48Q76.54 25.68 71.44 25.57L71.48 25.60L71.42 25.55Q68.27 25.52 66.29 26.09L66.37 26.16L66.30 26.09Q64.81 26.59 65.04 28.68L65.11 28.75L65.18 28.82Q65.24 30.02 66.16 32.12L66.07 32.03L66.19 32.15Q66.64 33.17 67.67 33.90L67.62 33.85L67.63 33.86Q68.32 35.35 69.62 36.04L69.61 36.02L69.70 36.11Q70.66 36.39 71.61 36.77L71.70 36.86L73.42 37.43L73.60 37.62Q73.15 38.61 71.21 38.50L71.25 38.54L71.27 38.56Q70.74 38.52 69.52 38.22L69.62 38.33L69.47 38.02L69.50 38.28L69.46 38.24Q68.58 37.86 67.94 36.37L68.00 36.44L67.89 36.33Q65.80 37.93 64.70 39.07L64.76 39.13L64.60 38.98Q64.87 39.85 65.89 40.65L65.89 40.65L65.89 40.95L65.85 40.91Q67.34 43.09 71.57 43.47L71.50 43.40L71.40 43.30Q72.66 43.42 75.89 43.65Z"/><path fill="#333" d="M104.29 40.29L104.47 40.47L104.44 40.45Q101.38 36.47 98.75 27.83L98.86 27.94L98.75 27.82Q98.04 25.63 97.24 23.50L97.33 23.59L94.50 32.41L94.42 32.32Q92.69 37.34 90.30 40.58L90.21 40.49L90.12 40.40Q89.30 40.50 87.67 40.65L87.76 40.74L87.83 40.81Q87.79 39.47 87.79 38.22L87.88 38.31L87.92 38.35Q87.85 32.27 85.11 26.14L85.10 26.13L85.18 26.20Q82.09 19.35 76.22 14.36L76.05 14.18L76.09 14.23Q78.23 14.92 80.59 15.46L80.65 15.51L80.60 15.47Q89.27 23.91 90.57 34.87L90.58 34.88L90.52 34.82Q92.14 31.50 93.59 26.13L93.76 26.30L93.78 26.32Q95.75 18.81 96.24 17.40L96.16 17.32L98.41 17.32L98.50 17.41Q99.03 19.27 99.68 21.59L99.79 21.70L101.05 26.16L100.94 26.06Q102.59 31.59 104.00 34.83L103.88 34.71L103.92 34.74Q105.62 23.16 113.54 15.81L113.52 15.80L113.62 15.89Q115.07 15.48 118.04 14.83L118.12 14.91L118.05 14.84Q112.76 19.18 109.71 25.31L109.65 25.25L109.73 25.33Q106.54 31.47 106.54 38.25L106.57 38.27L106.50 38.20Q106.55 39.36 106.63 40.50L106.70 40.57L105.61 40.51L105.52 40.41Q105.01 40.44 104.43 40.44ZM110.57 43.22L110.67 43.33L110.63 43.28Q109.39 39.72 109.50 35.83L109.58 35.91L109.42 35.75Q109.74 24.19 119.10 15.93L119.23 16.06L119.28 16.11Q118.16 16.17 116.21 16.70L116.31 16.79L116.24 16.73Q117.21 15.90 119.11 14.11L119.18 14.19L119.10 14.11Q116.57 14.99 113.63 15.49L113.59 15.45L113.48 15.33Q105.96 22.43 104.05 31.91L104.25 32.10L104.12 31.98Q103.48 30.27 100.63 18.81L100.72 18.91L100.76 18.95Q100.21 18.89 99.26 18.89L99.43 19.06L99.06 17.93L99.11 17.98Q98.95 17.41 98.72 16.91L98.64 16.83L95.84 16.92L95.75 16.83Q94.99 19.35 93.72 24.47L93.74 24.49L93.71 24.46Q92.37 29.52 91.38 31.99L91.44 32.05L91.39 32.00Q89.88 24.17 84.33 17.85L84.28 17.80L84.39 17.92Q83.77 17.72 82.82 17.53L82.96 17.67L82.79 17.50Q82.13 16.73 80.57 15.09L80.51 15.03L80.63 15.15Q77.24 14.35 75.07 13.55L75.01 13.49L75.04 13.52Q80.75 18.24 84.03 24.44L83.99 24.41L83.91 24.33Q87.51 31.09 87.51 38.09L87.46 38.05L87.46 38.04Q87.48 39.62 87.29 41.22L87.22 41.15L87.27 41.21Q87.41 41.12 87.87 41.02L87.97 41.13L87.86 41.01Q88.33 40.93 88.56 40.93L88.58 40.95L88.72 42.12L88.53 41.93Q88.61 42.47 88.68 43.00L88.78 43.09L88.79 43.11Q89.93 43.03 92.22 42.88L92.21 42.87L92.16 42.82Q95.64 37.27 98.38 27.87L98.49 27.98L98.47 27.96Q101.26 36.77 104.23 40.72L104.13 40.63L104.30 40.79Q104.65 40.69 105.49 40.81L105.59 40.91L105.62 40.93Q106.41 41.92 107.47 42.98L107.48 42.99L107.36 42.87Q108.21 42.99 110.60 43.26Z"/></svg>