<svg xmlns="http://www.w3.org/2000/svg" width="150" height="50" viewBox="0,0,150,50"><path fill="#444" d="M69.07 26.88L69.10 26.91L68.98 26.79Q70.73 26.90 72.55 26.90L72.67 27.02L72.54 26.89Q74.33 26.89 76.16 26.74L76.17 26.75L76.24 26.82Q76.19 27.53 76.19 28.25L76.12 28.19L76.10 29.50L76.06 29.46Q73.77 29.53 69.01 29.64L68.98 29.62L69.06 29.69Q69.00 35.57 67.86 40.56L67.90 40.60L67.79 40.49Q65.67 41.27 64.19 42.07L64.23 42.10L64.18 42.05Q66.54 35.28 66.27 28.16L66.15 28.04L66.28 28.17Q66.04 21.03 63.37 14.37L63.21 14.21L63.36 14.36Q67.08 16.94 71.84 17.17L71.72 17.04L71.74 17.07Q76.36 17.20 80.51 15.45L80.46 15.40L80.55 15.48Q80.30 16.34 80.07 17.14L80.06 17.12L79.64 18.80L79.62 18.78Q76.77 19.74 73.80 19.89L73.89 19.98L73.84 19.93Q71.03 20.20 68.17 19.48L68.01 19.31L68.09 19.39Q68.77 22.78 68.96 26.77ZM81.19 14.79L81.24 14.85L81.28 14.89Q76.49 16.83 71.62 16.53L71.77 16.68L71.62 16.53Q66.43 16.37 62.70 13.51L62.66 13.47L62.72 13.53Q65.45 20.34 65.76 27.95L65.83 28.03L65.81 28.00Q66.27 36.07 63.75 42.85L63.72 42.82L63.58 42.68Q64.31 42.34 65.69 41.70L65.63 41.64L65.67 41.68Q65.52 42.48 64.95 44.00L64.90 43.96L64.91 43.97Q67.28 42.95 70.18 42.46L70.20 42.48L70.21 42.49Q70.78 37.58 70.97 31.86L70.96 31.86L70.93 31.82Q72.77 31.84 74.60 31.84L74.66 31.90L74.56 31.81Q76.31 31.76 78.14 31.95L78.12 31.93L78.13 31.94Q78.08 31.06 78.08 30.15L78.11 30.18L78.13 28.29L78.11 28.27Q77.23 28.27 76.39 28.27L76.44 28.32L76.43 28.30Q76.45 27.45 76.53 26.43L76.62 26.52L76.60 26.50Q75.21 26.66 73.80 26.66L73.80 26.66L73.86 26.72Q72.42 26.69 71.05 26.66L71.03 26.64L70.95 24.42L70.89 24.36Q70.95 23.36 70.84 22.30L70.77 22.23L70.84 22.29Q71.71 22.25 72.69 22.25L72.76 22.32L72.80 22.36Q77.49 22.28 81.10 20.38L81.04 20.31L81.13 20.40Q81.60 18.55 82.51 15.93L82.47 15.88L82.60 16.01Q81.19 16.73 80.39 17.08L80.53 17.21L80.39 17.08Q80.68 16.34 81.18 14.78Z"/><path fill="#333" d="M21.04 29.83L21.03 29.82L20.99 29.78Q20.87 29.88 20.56 29.88L20.52 29.83L20.43 29.75Q19.23 29.88 17.78 30.72L17.68 30.61L17.75 30.69Q16.34 31.71 16.34 33.62L16.37 33.64L16.45 33.73Q16.36 37.06 17.88 38.39L17.95 38.46L17.85 38.36Q18.92 39.66 21.21 39.66L21.08 39.53L21.18 39.63Q21.45 39.68 21.75 39.68L21.79 39.71L21.77 39.69Q23.36 39.57 24.51 37.94L24.53 37.96L24.66 38.09Q25.53 36.41 25.46 34.62L25.56 34.73L25.52 34.69Q25.68 34.31 25.68 33.89L25.56 33.77L25.53 33.75Q25.71 32.14 24.34 30.97L24.30 30.93L24.24 30.88Q22.92 29.76 21.13 29.92ZM25.61 40.06L25.66 40.12L25.52 39.98Q24.59 41.98 20.86 42.09L20.92 42.15L20.81 42.05Q17.37 42.10 15.77 40.50L15.84 40.57L15.79 40.53Q14.46 38.90 13.67 34.10L13.62 34.05L13.54 33.97Q13.30 32.28 13.30 31.03L13.29 31.02L13.29 31.02Q13.34 29.28 14.06 28.22L13.99 28.15L13.93 28.09Q15.47 26.88 18.44 26.88L18.41 26.85L18.35 26.79Q24.74 26.86 26.64 29.45L26.60 29.41L26.56 29.37Q26.78 28.60 27.20 27.00L27.26 27.06L27.11 26.91Q28.50 26.74 30.94 25.94L30.87 25.88L30.86 25.86Q28.53 31.60 28.30 37.92L28.12 37.74L28.28 37.90Q27.94 43.95 30.07 49.78L30.08 49.79L30.14 49.85Q28.49 49.30 26.70 49.03L26.60 48.94L26.63 48.97Q25.65 44.94 25.53 39.99ZM26.43 49.33L26.41 49.32L26.30 49.21Q26.99 49.33 28.40 49.63L28.55 49.79L28.42 49.66Q28.68 50.41 29.25 51.82L29.28 51.84L29.29 51.85Q31.81 52.51 34.09 53.80L34.06 53.77L34.07 53.78Q30.02 47.18 30.02 38.65L30.07 38.71L30.14 38.77Q30.08 32.36 32.56 26.57L32.59 26.60L32.65 26.67Q31.91 26.91 30.54 27.56L30.54 27.56L30.51 27.53Q30.83 26.75 31.48 25.19L31.57 25.28L31.45 25.16Q29.95 25.75 26.75 26.63L26.71 26.58L26.72 26.59Q26.70 27.26 26.40 28.44L26.26 28.31L26.26 28.30Q24.34 26.50 18.21 26.35L18.21 26.35L18.17 26.30Q15.08 26.33 13.70 27.82L13.54 27.66L13.72 27.84Q12.91 28.93 12.95 30.83L12.88 30.76L12.88 30.76Q13.06 33.83 14.05 37.60L13.94 37.50L14.06 37.61Q14.62 39.92 15.53 40.88L15.55 40.90L15.98 41.32L15.86 41.20Q17.22 44.17 22.67 44.39L22.54 44.27L22.53 44.26Q23.60 44.34 25.43 44.03L25.36 43.97L25.52 44.12Q25.81 47.05 26.42 49.33ZM23.04 32.24L22.97 32.17L22.92 32.12Q24.08 32.21 24.91 32.52L24.99 32.59L24.96 32.57Q25.07 33.02 25.18 33.63L25.23 33.68L25.29 33.73Q25.29 34.19 25.22 34.80L25.22 34.81L25.10 34.69Q25.25 36.74 24.22 38.03L24.08 37.89L24.21 38.02Q23.04 39.44 21.18 39.25L21.24 39.32L21.19 39.26Q19.86 39.23 18.91 38.81L18.92 38.82L18.86 38.76Q18.55 37.99 18.55 36.77L18.56 36.78L18.54 36.76Q18.57 36.49 18.57 36.18L18.62 36.24L18.44 36.06Q18.45 34.32 19.78 33.15L19.96 33.34L19.96 33.33Q21.19 32.07 22.94 32.15Z"/><path fill="#444" d="M41.72 19.24L41.64 19.16L41.67 19.18Q42.86 23.73 43.02 26.92L42.94 26.85L42.96 26.87Q43.47 26.92 47.85 27.04L47.74 26.92L47.76 26.95Q50.34 27.02 50.72 23.55L50.83 23.66L50.74 23.57Q50.92 21.81 50.01 20.90L50.03 20.92L50.04 20.93Q48.80 20.07 46.82 19.92L46.85 19.95L46.83 19.93Q43.53 19.63 41.66 19.17ZM43.12 28.86L43.08 28.82L43.08 28.81Q43.26 34.82 41.47 40.76L41.50 40.79L41.37 40.66Q40.25 41.10 37.67 42.13L37.67 42.13L37.53 41.99Q40.51 35.65 40.16 28.18L40.01 28.03L40.16 28.18Q39.72 20.70 36.41 14.19L36.56 14.33L36.39 14.17Q41.32 17.05 48.29 17.05L48.34 17.10L48.28 17.04Q53.90 17.03 54.17 20.57L54.26 20.66L54.14 20.53Q54.25 21.18 54.17 21.79L54.27 21.88L54.12 22.95L54.16 22.99Q53.29 26.88 51.16 28.60L51.26 28.70L51.22 28.65Q50.39 29.31 49.36 29.31L49.32 29.26L46.72 29.26L46.78 29.32Q52.43 36.60 56.96 41.17L56.95 41.17L56.97 41.19Q54.68 40.34 51.75 39.99L51.75 40.00L51.76 40.01Q48.05 36.10 43.13 28.87ZM51.63 40.37L51.63 40.38L51.97 40.41L53.28 41.72L53.12 41.56Q53.77 42.17 54.42 42.78L54.50 42.86L54.34 42.71Q57.87 43.30 61.45 45.17L61.59 45.31L61.60 45.32Q54.57 38.48 49.17 31.55L49.20 31.58L51.01 31.65L50.90 31.54Q54.13 31.68 55.46 27.15L55.36 27.05L55.45 27.13Q56.07 24.86 56.07 22.16L55.97 22.06L56.11 22.20Q56.09 19.90 54.38 19.25L54.24 19.12L54.41 19.28Q54.30 18.91 53.73 18.23L53.74 18.23L53.59 18.08Q51.94 16.66 48.29 16.59L48.23 16.53L48.23 16.53Q40.49 16.52 35.81 13.51L35.81 13.51L35.76 13.47Q39.41 20.19 39.75 27.88L39.80 27.94L39.85 27.99Q40.27 36.01 37.14 42.87L37.08 42.80L37.04 42.76Q38.40 42.30 39.20 41.99L39.20 41.99L38.04 44.10L38.11 44.17Q40.82 43.11 43.48 42.62L43.58 42.72L43.49 42.63Q44.73 37.47 44.92 32.26L45.06 32.40L45.05 32.38Q48.43 37.21 51.59 40.33ZM50.42 22.49L50.34 22.41L50.43 22.50Q50.40 22.69 50.40 23.04L50.51 23.15L50.51 23.72L50.33 23.54Q50.41 24.73 49.73 25.68L49.71 25.66L49.73 25.69Q49.17 26.49 48.26 26.68L48.12 26.54L48.16 26.59Q48.03 26.73 46.43 26.76L46.37 26.70L46.34 26.67Q45.85 26.79 45.01 26.67L45.00 26.66L44.90 26.56Q44.80 25.05 44.46 22.01L44.55 22.10L44.60 22.15Q45.85 22.19 46.54 22.19L46.70 22.35L46.70 22.34Q48.44 22.26 50.38 22.45Z"/><path fill="#333" d="M130.56 34.68L130.49 34.62L130.52 34.64Q130.68 38.38 127.52 39.67L127.47 39.63L127.41 39.56Q125.60 40.46 121.19 40.61L121.05 40.47L121.08 40.51Q116.35 40.69 114.10 39.51L113.98 39.38L114.10 39.51Q112.33 38.26 112.48 34.91L112.41 34.84L112.31 34.74Q112.41 34.20 112.60 32.22L112.60 32.21L112.70 32.32Q112.64 30.55 112.64 29.56L112.70 29.61L112.65 29.56Q112.74 21.66 108.56 14.24L108.61 14.30L108.50 14.18Q109.72 14.91 112.69 15.98L112.72 16.00L112.75 16.04Q115.52 22.65 115.52 30.04L115.53 30.04L115.49 30.00Q115.53 30.66 115.44 31.84L115.50 31.90L115.40 31.80Q115.32 32.99 115.32 33.60L115.34 33.62L115.27 33.56Q115.38 35.95 116.94 36.94L116.83 36.82L116.86 36.86Q118.47 37.63 121.44 37.63L121.53 37.72L121.58 37.77Q124.12 37.69 125.76 36.51L125.83 36.57L125.86 36.61Q127.73 35.28 127.57 32.76L127.57 32.76L127.58 32.77Q127.38 31.27 127.38 29.94L127.40 29.96L127.40 29.96Q127.35 22.87 129.75 16.36L129.81 16.42L131.92 15.79L132.02 15.89Q133.04 15.66 134.15 15.20L134.13 15.18L134.01 15.06Q130.39 22.30 130.39 29.87L130.36 29.84L130.24 29.71Q130.35 30.67 130.49 32.31L130.38 32.20L130.44 32.25Q130.63 33.95 130.63 34.75ZM132.76 35.63L132.77 35.64L132.65 35.52Q131.92 30.71 132.64 25.61L132.55 25.52L132.48 25.45Q133.33 20.36 135.73 15.98L135.66 15.91L135.73 15.98Q135.02 16.19 133.57 16.83L133.55 16.81L133.71 16.97Q133.92 15.96 134.72 14.40L134.85 14.54L134.89 14.57Q131.36 15.72 129.45 16.06L129.44 16.05L129.52 16.13Q127.03 22.51 127.03 29.78L127.17 29.93L127.15 29.91Q127.09 31.22 127.17 32.62L127.23 32.68L127.18 32.64Q127.26 34.97 125.48 36.18L125.59 36.29L125.57 36.27Q124.07 37.33 121.56 37.37L121.48 37.29L121.55 37.36Q118.72 37.35 117.27 36.58L117.23 36.55L117.33 36.65Q117.14 36.04 117.07 35.58L117.20 35.71L117.09 35.60Q117.15 35.21 117.27 34.71L117.29 34.74L117.32 34.77Q117.46 32.35 117.46 30.03L117.37 29.94L117.55 30.12Q117.47 24.22 115.95 18.32L116.01 18.38L116.02 18.39Q115.29 18.27 113.88 17.93L113.86 17.90L113.76 17.81Q113.43 16.57 112.98 15.65L112.86 15.54L112.89 15.56Q110.13 14.75 107.74 13.38L107.85 13.49L107.90 13.55Q112.52 21.14 112.52 29.85L112.52 29.86L112.39 29.72Q112.50 31.47 112.35 33.18L112.36 33.19L112.37 33.20Q111.96 35.42 112.04 36.60L112.03 36.60L112.21 36.78Q112.24 38.60 113.50 39.74L113.56 39.80L113.43 39.67Q114.60 42.33 119.25 42.71L119.08 42.54L119.11 42.57Q121.36 42.88 123.49 42.95L123.31 42.77L123.40 42.86Q128.69 42.98 131.47 42.02L131.47 42.03L131.62 42.18Q133.16 41.24 133.16 39.18L133.20 39.22L133.05 39.08Q133.23 38.11 132.77 35.64Z"/><path fill="#222" d="M93.06 40.33L93.03 40.30L93.09 40.36Q89.06 40.63 88.07 38.31L88.06 38.30L87.99 38.23Q88.82 37.35 90.38 35.56L90.44 35.62L90.40 35.58Q90.91 37.61 93.92 37.73L93.90 37.71L93.78 37.58Q97.18 37.67 98.82 36.34L98.91 36.43L98.83 36.36Q100.29 34.81 100.22 32.11L100.29 32.18L100.29 32.19Q100.10 27.09 95.31 27.31L95.19 27.20L95.20 27.21Q92.45 27.43 90.70 28.68L90.70 28.68L90.30 28.43L90.09 28.30L90.27 28.48Q90.61 25.32 90.50 22.58L90.43 22.51L90.37 22.45Q90.29 19.86 89.94 16.54L89.95 16.55L89.87 16.47Q93.59 17.49 97.40 17.37L97.46 17.43L97.33 17.31Q101.13 17.22 104.71 15.97L104.75 16.00L104.30 17.65L104.29 17.64Q103.84 18.26 103.65 19.10L103.83 19.27L103.74 19.19Q100.52 20.11 96.63 20.11L96.69 20.17L96.64 20.12Q95.33 20.25 93.84 20.10L93.78 20.04L93.80 20.06Q93.67 20.68 93.32 25.14L93.28 25.10L93.33 25.14Q94.20 24.72 96.25 24.57L96.36 24.67L96.25 24.56Q100.04 24.85 101.49 26.53L101.48 26.52L101.52 26.56Q102.86 28.05 103.13 31.90L103.04 31.80L103.10 31.87Q103.39 36.08 102.17 38.10L102.10 38.02L102.16 38.09Q100.21 40.05 96.89 40.28L96.89 40.28L96.76 40.15Q95.83 40.28 93.16 40.43ZM99.17 42.67L99.10 42.60L99.10 42.60Q102.67 42.82 104.58 41.72L104.58 41.72L104.43 41.57Q105.46 40.10 105.46 38.00L105.56 38.10L105.46 38.00Q105.40 34.85 104.45 30.74L104.49 30.79L104.63 30.92Q104.11 29.03 102.89 27.62L102.86 27.60L103.04 27.82L102.65 27.35L102.45 27.30L102.32 27.17Q102.19 26.62 101.54 25.93L101.38 25.77L101.43 25.86L101.48 25.91Q99.98 24.26 96.29 24.26L96.29 24.26L95.97 24.21L95.91 24.14Q95.97 23.56 96.16 22.45L96.26 22.55L96.25 22.54Q101.23 22.65 105.26 21.01L105.27 21.02L105.32 21.07Q105.61 19.53 106.56 16.71L106.66 16.82L104.59 17.79L104.51 17.71Q104.81 16.49 105.31 15.35L105.44 15.48L105.50 15.54Q101.62 16.95 97.50 17.02L97.49 17.01L97.35 16.87Q93.25 16.99 89.29 15.89L89.39 15.99L89.45 16.05Q90.03 20.37 90.03 24.78L90.01 24.76L90.05 24.80Q89.98 26.63 89.87 28.54L90.03 28.70L89.98 28.64Q90.17 28.77 90.75 29.07L90.70 29.02L90.75 29.07Q91.13 28.89 91.78 28.54L91.87 28.63L91.74 28.50Q91.72 29.28 91.49 30.81L91.49 30.81L91.44 30.75Q91.93 31.02 92.35 31.25L92.26 31.15L92.28 31.17Q95.12 29.49 96.99 29.49L97.06 29.56L96.95 29.45Q98.26 29.43 99.44 30.07L99.58 30.22L99.51 30.14Q99.83 31.15 99.87 32.10L99.82 32.05L99.95 32.18Q99.89 34.63 98.86 35.74L99.00 35.88L98.97 35.84Q97.53 36.99 95.28 37.22L95.30 37.25L95.34 37.28Q94.37 37.34 93.69 37.27L93.66 37.24L93.65 37.23Q92.77 37.07 92.00 36.72L92.11 36.83L92.04 36.57L91.89 36.65L91.95 36.71Q91.17 36.23 90.63 34.90L90.62 34.89L90.68 34.94Q89.27 36.28 87.60 38.41L87.58 38.39L87.58 38.40Q87.83 38.98 88.67 39.93L88.82 40.09L88.64 39.91Q89.71 41.74 92.53 42.24L92.61 42.32L92.53 42.24Q93.83 42.59 99.20 42.70Z"/></svg>