<svg xmlns="http://www.w3.org/2000/svg" width="150" height="50" viewBox="0,0,150,50"><path fill="#222" d="M121.61 18.46L121.54 18.39L121.58 18.43Q120.92 18.88 120.77 19.68L120.82 19.73L120.76 24.80L120.72 24.77Q121.85 24.75 124.06 24.48L124.12 24.55L124.06 24.49Q124.06 24.94 124.02 25.78L124.10 25.86L123.97 25.73Q123.95 26.51 123.95 26.97L123.95 26.97L122.46 27.15L122.32 27.01Q121.55 27.12 120.68 27.12L120.68 27.12L120.79 27.24Q120.76 31.39 120.68 39.77L120.63 39.72L120.74 39.83Q118.48 39.85 116.99 40.53L116.89 40.43L116.90 40.44Q118.01 34.32 117.90 27.09L117.98 27.17L117.92 27.11Q117.28 27.08 115.99 26.81L115.90 26.72L115.92 26.74Q115.88 25.72 115.69 23.77L115.84 23.92L115.81 23.89Q116.92 24.39 117.87 24.58L117.88 24.59L117.93 24.64Q117.89 24.00 117.59 21.52L117.59 21.52L117.44 21.37Q117.30 19.40 117.30 18.45L117.21 18.36L117.34 18.49Q117.20 16.67 118.61 16.10L118.77 16.27L118.71 16.21Q119.54 15.86 124.37 15.02L124.30 14.94L124.39 15.04Q125.15 14.85 125.99 14.73L125.99 14.73L126.00 14.74Q125.77 15.51 125.62 16.38L125.56 16.32L125.30 17.93L125.33 17.95Q124.65 17.77 124.15 17.88L124.21 17.93L124.23 17.96Q123.59 17.92 121.68 18.53ZM127.08 19.63L127.13 19.68L127.09 19.64Q127.31 17.31 127.92 14.76L127.97 14.81L128.03 14.87Q127.39 15.18 126.10 15.79L126.03 15.73L126.49 14.09L126.46 14.06Q125.25 14.26 122.78 14.79L122.87 14.89L122.85 14.87Q121.61 14.88 118.41 15.80L118.50 15.88L118.38 15.76Q116.85 16.22 116.85 18.08L116.79 18.02L116.75 17.98Q116.91 18.44 116.99 18.79L116.91 18.71L116.96 18.76Q117.11 20.01 117.22 21.34L117.27 21.40L117.46 24.06L117.40 24.00Q116.17 23.76 115.53 23.30L115.52 23.30L115.47 23.25Q115.47 24.08 115.51 25.11L115.60 25.20L115.71 27.18L115.74 27.21Q116.35 27.29 117.15 27.36L117.31 27.52L117.13 29.44L117.52 29.45L117.58 29.51Q117.54 35.71 116.55 41.16L116.53 41.14L116.52 41.12Q117.39 40.51 118.57 40.24L118.62 40.29L118.52 42.44L118.47 42.39Q119.65 42.04 120.94 42.00L121.09 42.16L121.03 42.09Q122.16 41.97 123.42 42.23L123.54 42.35L123.59 42.41Q122.71 37.37 122.71 29.42L122.72 29.43L122.72 29.43Q123.82 29.43 125.91 29.50L125.80 29.39L125.83 27.55L125.94 27.66Q125.82 26.59 125.86 25.64L125.84 25.62L125.87 25.65Q125.48 25.83 124.41 26.10L124.44 26.12L124.37 26.06Q124.39 25.39 124.50 24.05L124.45 24.01L124.43 23.99Q123.67 24.29 122.87 24.36L122.85 24.34L122.76 24.26Q122.85 22.94 122.96 21.53L122.90 21.47L122.92 21.49Q123.06 20.83 123.60 20.49L123.65 20.54L123.57 20.46Q124.48 19.73 125.30 19.66L125.29 19.65L125.39 19.75Q126.13 19.60 126.97 19.52Z"/><path fill="#111" d="M54.35 37.92L54.26 37.83L54.36 37.92Q54.65 38.90 55.18 40.92L55.21 40.95L55.14 40.87Q50.87 39.50 46.27 39.77L46.33 39.83L46.34 39.84Q41.78 40.11 37.78 42.09L37.87 42.18L37.85 42.16Q37.99 41.39 38.03 41.46L38.03 41.47L37.97 41.41Q41.72 37.47 45.64 33.05L45.73 33.14L45.69 33.10Q50.19 28.20 51.37 23.52L51.35 23.50L51.20 23.34Q51.66 21.60 50.38 20.42L50.42 20.45L50.50 20.53Q49.28 19.41 47.49 19.56L47.31 19.38L47.51 19.57Q47.17 19.54 46.82 19.54L46.75 19.47L46.75 19.47Q45.14 19.38 43.88 20.29L43.85 20.26L43.98 20.39Q42.68 21.76 42.91 24.42L42.96 24.47L42.95 24.46Q41.18 24.14 39.96 23.68L39.96 23.67L39.80 23.52Q39.59 22.09 39.51 20.64L39.70 20.83L39.67 20.80Q39.52 19.09 40.13 17.94L40.11 17.93L40.11 17.92Q41.97 16.63 45.32 16.63L45.26 16.56L47.06 16.62L46.98 16.54Q49.28 16.59 50.23 16.71L50.27 16.74L50.31 16.78Q54.59 17.14 54.85 19.58L54.80 19.52L54.90 19.63Q54.99 20.21 54.91 21.00L54.92 21.01L54.83 20.92Q54.77 21.55 54.62 22.23L54.68 22.29L54.71 22.32Q53.14 30.50 45.56 37.35L45.45 37.24L45.53 37.32Q46.84 37.07 48.21 37.07L48.34 37.20L48.19 37.05Q51.56 37.19 54.42 37.98ZM53.75 17.07L53.67 16.98L53.76 17.07Q52.13 16.40 50.42 16.32L50.45 16.35L46.96 16.10L47.10 16.24Q42.59 15.92 40.38 17.02L40.45 17.09L40.33 16.96Q39.33 18.40 39.33 20.46L39.38 20.51L39.24 20.37Q39.28 21.09 39.58 23.91L39.65 23.98L39.64 23.96Q40.09 24.11 41.27 24.41L41.37 24.51L41.45 25.63L41.26 25.44Q41.29 25.96 41.37 26.49L41.40 26.53L41.41 26.54Q42.70 26.68 45.17 26.91L45.22 26.96L45.05 26.79Q45.02 26.42 45.02 26.07L45.06 26.11L45.05 26.10Q45.03 24.26 46.25 22.91L46.33 22.98L46.22 22.88Q47.54 21.63 49.33 21.74L49.30 21.71L49.39 21.80Q50.07 21.76 50.83 21.91L50.91 21.99L50.92 22.00Q50.88 22.23 50.96 22.65L51.06 22.75L51.07 22.76Q51.15 23.22 51.07 23.56L50.92 23.41L50.97 23.46Q49.74 28.25 45.33 33.08L45.39 33.14L45.36 33.11Q43.15 35.28 37.70 41.33L37.81 41.44L37.67 41.30Q37.61 42.27 37.27 42.84L37.12 42.69L37.25 42.82Q38.83 41.93 40.36 41.40L40.39 41.43L40.28 41.32Q39.60 41.93 38.65 43.42L38.57 43.34L38.65 43.42Q38.62 43.85 38.50 44.19L38.52 44.20L38.45 44.13Q43.27 42.02 48.75 42.21L48.79 42.26L48.84 42.31Q54.52 42.46 59.09 44.82L58.95 44.69L58.07 42.67L58.08 42.67Q57.34 41.25 57.07 40.45L57.12 40.50L57.11 40.49Q56.48 40.16 55.27 39.75L55.18 39.66L55.16 39.64Q55.07 38.98 54.69 37.61L54.63 37.55L54.63 37.55Q52.43 36.99 50.15 36.80L50.11 36.76L50.13 36.78Q54.75 32.15 56.27 23.89L56.42 24.04L56.64 21.17L56.51 21.04Q56.54 19.36 55.32 18.67L55.22 18.58L55.19 18.58L55.29 18.68Q55.24 18.59 55.16 18.59L55.18 18.60L55.03 18.46Q54.90 17.72 53.80 17.11Z"/><path fill="#444" d="M30.65 23.31L30.61 23.27L30.53 23.19Q28.97 19.27 22.76 19.46L22.61 19.31L22.71 19.41Q18.21 19.44 16.23 20.88L16.35 21.01L16.32 20.98Q13.97 22.77 13.97 26.88L14.00 26.91L13.99 28.77L13.90 28.68Q14.00 37.61 23.02 37.61L23.01 37.60L22.92 37.51Q24.93 37.47 26.42 36.67L26.45 36.70L26.43 36.68Q28.23 35.62 28.07 33.76L28.17 33.85L28.11 33.79Q27.88 31.66 24.19 30.75L24.22 30.77L22.27 30.77L22.25 30.75Q21.40 30.85 20.45 30.89L20.42 30.86L20.41 30.85Q20.48 29.96 20.44 28.06L20.39 28.02L20.41 28.03Q28.03 28.00 32.22 27.66L32.21 27.65L32.16 27.60Q32.12 28.44 32.12 29.24L32.28 29.40L32.18 29.30Q32.21 30.13 32.25 30.93L32.16 30.83L32.28 30.96Q31.17 30.95 31.17 30.95L31.07 30.85L31.15 30.93Q29.80 30.95 30.18 30.95L30.06 30.83L30.14 30.92Q31.14 32.44 31.52 34.42L31.49 34.39L31.56 34.46Q31.75 35.27 31.75 35.72L31.77 35.74L31.64 35.61Q31.62 40.24 22.83 40.24L22.87 40.28L22.82 40.23Q15.72 40.25 13.14 38.16L13.19 38.22L13.15 38.17Q11.20 35.85 11.20 30.78L11.23 30.81L11.19 30.76Q11.22 29.74 11.07 27.03L11.08 27.05L11.05 27.01Q10.89 24.64 10.93 23.27L10.94 23.28L10.86 23.20Q11.02 20.39 12.39 18.80L12.33 18.74L12.38 18.79Q15.00 16.80 19.87 16.61L19.88 16.61L22.51 16.50L22.42 16.41Q25.50 16.30 28.93 16.72L29.01 16.80L29.00 16.79Q32.77 17.29 33.73 20.53L33.84 20.64L33.72 20.52Q32.74 21.48 30.65 23.31ZM32.09 25.55L32.17 25.51L32.07 25.42Q33.31 24.38 35.18 22.40L35.15 22.37L35.09 22.31Q34.83 21.40 33.84 19.69L33.94 19.79L33.84 19.68Q32.63 17.00 28.83 16.35L28.92 16.44L28.83 16.36Q26.72 16.26 22.42 15.96L22.60 16.14L19.84 16.19L19.84 16.19Q14.64 16.37 12.05 18.35L12.04 18.33L12.13 18.42Q10.76 20.06 10.65 23.15L10.54 23.04L10.65 23.14Q10.50 22.54 10.73 28.02L10.88 28.18L10.75 28.05Q10.86 29.49 10.94 32.23L10.83 32.12L10.89 32.18Q11.18 36.73 12.93 38.67L12.83 38.57L12.80 38.54Q13.23 39.44 14.11 40.31L14.12 40.33L14.15 40.35Q16.91 42.09 22.43 42.43L22.45 42.45L25.37 42.66L25.47 42.76Q27.01 42.82 29.03 42.71L28.95 42.62L29.01 42.69Q30.52 42.67 32.61 42.14L32.50 42.03L32.60 42.13Q34.46 41.55 34.42 39.22L34.38 39.19L34.51 39.31Q34.48 38.03 33.42 35.25L33.38 35.22L33.48 35.32Q33.06 34.28 32.52 33.49L32.55 33.51L32.65 33.61Q33.27 33.66 34.45 33.85L34.41 33.81L34.39 33.79Q34.13 30.22 34.17 29.53L34.13 29.50L34.04 29.41Q33.70 29.45 33.28 29.41L33.25 29.37L33.27 29.39Q32.89 29.36 32.51 29.44L32.48 29.41L32.43 29.36Q32.60 28.42 32.68 27.36L32.54 27.22L32.64 27.32Q26.35 27.81 20.07 27.70L20.03 27.66L20.12 27.74Q20.14 28.64 20.14 29.55L20.07 29.48L20.11 31.28L19.99 31.15Q20.52 31.30 20.93 31.26L20.83 31.15L20.90 31.23Q21.37 31.28 21.83 31.28L21.78 31.23L21.85 31.30Q21.70 31.61 21.74 32.10L21.77 32.13L21.84 32.21Q21.76 32.58 21.73 33.08L21.77 33.12L21.78 33.13Q22.86 33.15 23.89 33.11L23.88 33.10L23.85 33.07Q24.95 33.14 25.97 33.18L25.96 33.17L25.98 33.19Q26.96 33.36 27.83 33.74L27.83 33.74L27.86 33.81L27.86 33.81Q28.06 35.38 26.39 36.29L26.26 36.17L26.36 36.27Q24.63 37.13 22.92 37.13L22.86 37.07L22.85 37.06Q19.08 37.13 16.64 35.38L16.71 35.45L16.71 35.45Q15.73 33.40 15.88 30.85L15.88 30.85L15.78 30.76Q16.25 26.12 18.10 24.12L18.09 24.11L18.10 24.13Q19.79 21.97 24.48 21.67L24.48 21.67L24.50 21.69Q28.13 21.44 30.07 23.23L30.08 23.24L30.22 23.38Q30.26 23.46 30.38 23.65L30.23 23.50L30.34 23.50L30.36 23.52Q31.10 24.37 31.67 25.48L31.58 25.38L31.91 25.37Z"/><path fill="#222" d="M77.73 28.72L77.69 28.67L71.82 28.77L71.89 28.85Q68.96 28.89 66.03 28.82L65.95 28.73L65.87 28.65Q66.15 35.52 64.09 41.04L64.02 40.96L64.08 41.02Q62.16 41.43 60.41 42.11L60.38 42.09L60.42 42.12Q63.16 36.38 63.16 29.71L63.27 29.82L63.28 29.83Q63.11 21.17 59.00 14.13L59.03 14.16L59.16 14.29Q60.70 15.10 63.17 15.90L63.12 15.85L63.00 15.73Q65.18 20.84 65.71 25.72L65.76 25.77L65.82 25.82Q69.01 26.23 71.86 26.19L71.80 26.13L71.77 26.10Q74.42 26.09 77.73 25.82L77.85 25.94L77.83 25.92Q78.22 21.43 79.97 16.33L80.02 16.38L80.08 16.44Q81.84 15.84 84.08 15.00L84.21 15.12L84.17 15.09Q80.61 21.88 80.61 29.84L80.53 29.76L80.50 29.73Q80.58 36.02 82.94 41.35L82.92 41.33L82.98 41.39Q81.36 40.75 79.30 40.45L79.26 40.41L79.20 40.35Q77.67 35.47 77.78 28.77ZM79.10 40.86L78.95 40.70L79.08 40.84Q79.95 40.83 81.05 41.09L81.07 41.11L81.09 41.13Q81.57 42.00 82.22 43.48L82.12 43.38L82.04 43.30Q85.42 44.28 87.21 45.19L87.31 45.29L87.35 45.34Q82.90 39.17 82.60 30.91L82.59 30.90L82.42 30.74Q82.18 22.77 85.84 15.96L85.88 16.00L84.85 16.49L84.73 16.37Q84.25 16.62 83.65 16.77L83.74 16.86L83.61 16.74Q84.08 15.99 84.92 14.43L84.99 14.50L84.93 14.44Q82.33 15.54 79.71 16.03L79.73 16.05L79.58 15.90Q78.05 20.89 77.60 25.57L77.48 25.45L77.57 25.54Q75.08 25.76 72.65 25.76L72.67 25.78L72.68 25.79Q70.14 25.65 67.63 25.50L67.68 25.55L67.75 25.62Q67.47 22.29 66.36 18.22L66.32 18.18L66.34 18.20Q65.73 18.16 64.29 17.78L64.32 17.81L64.28 17.77Q63.85 16.51 63.39 15.48L63.43 15.51L63.33 15.42Q60.63 14.70 58.35 13.44L58.39 13.48L58.35 13.45Q62.91 20.85 62.91 29.65L62.95 29.69L62.86 29.60Q62.96 36.67 59.84 42.80L59.83 42.79L59.76 42.72Q60.53 42.50 61.87 41.93L61.81 41.87L61.87 41.93Q61.47 42.72 60.67 44.24L60.75 44.32L60.65 44.22Q63.55 43.31 65.80 42.90L65.85 42.95L65.78 42.87Q67.63 37.30 67.82 31.13L67.85 31.16L67.79 31.11Q69.49 31.13 72.69 31.09L72.65 31.06L72.66 31.07Q75.53 31.04 77.44 31.12L77.47 31.15L77.37 31.05Q77.68 36.85 79.01 40.77Z"/><path fill="#444" d="M94.98 29.00L94.81 28.84L94.81 28.83Q92.28 28.85 91.25 30.03L91.41 30.19L91.40 30.19Q90.29 31.28 90.29 33.90L90.35 33.97L90.23 33.84Q90.20 38.92 94.81 38.73L94.99 38.91L94.80 38.72Q96.90 38.92 98.25 37.36L98.35 37.46L98.27 37.37Q99.74 35.93 99.51 33.88L99.56 33.92L99.55 33.92Q99.52 31.33 98.64 30.30L98.66 30.33L98.68 30.34Q97.16 28.97 94.95 28.97ZM99.93 38.71L99.94 38.72L99.85 38.63Q98.66 41.10 93.98 41.10L94.14 41.26L92.64 41.21L92.53 41.10Q90.18 41.11 89.08 39.97L89.23 40.11L89.23 40.11Q88.08 38.97 87.82 36.57L87.91 36.67L87.83 36.58Q87.73 35.15 87.65 33.36L87.56 33.27L87.67 33.38Q87.67 32.43 87.51 30.48L87.37 30.34L87.38 30.35Q87.33 26.12 92.51 26.12L92.46 26.06L94.09 26.13L94.02 26.06Q97.01 26.16 99.11 27.46L98.95 27.30L99.05 27.40Q99.77 27.82 100.26 28.50L100.30 28.54L100.43 28.67Q100.55 27.72 101.08 26.08L101.15 26.15L101.23 26.23Q102.26 25.85 104.58 25.24L104.61 25.27L104.62 25.29Q102.07 29.54 102.07 34.80L102.02 34.75L102.09 34.82Q102.02 38.48 103.39 41.56L103.44 41.62L103.37 41.54Q102.38 41.39 100.48 41.16L100.44 41.12L100.32 41.01Q100.21 40.25 99.91 38.69ZM103.32 44.01L103.22 43.91L105.44 44.49L105.38 44.43Q106.56 44.70 107.55 45.16L107.66 45.26L107.70 45.30Q103.95 40.87 103.95 34.77L104.03 34.86L103.98 34.80Q103.99 30.28 106.12 26.48L106.06 26.41L106.16 26.52Q105.49 26.72 104.15 27.10L104.21 27.16L104.19 27.14Q104.54 26.38 105.41 24.86L105.46 24.90L105.34 24.78Q104.73 24.93 100.73 25.77L100.81 25.85L100.20 27.63L100.14 27.57Q98.51 25.98 94.09 25.76L93.97 25.63L94.07 25.74Q92.91 25.72 90.66 25.87L90.68 25.89L90.64 25.84Q86.95 26.19 87.07 30.23L87.06 30.22L87.07 30.23Q87.20 33.55 87.77 38.01L87.81 38.05L87.74 38.40L87.81 38.47Q87.96 39.34 88.76 40.45L88.77 40.45L88.73 40.42Q88.97 40.66 89.16 40.78L89.09 40.70L89.02 40.63Q89.37 41.21 89.75 41.78L89.81 41.84L89.74 41.77Q91.09 43.24 94.48 43.43L94.59 43.54L94.50 43.45Q96.23 43.65 96.38 43.65L96.38 43.65L97.93 43.64L97.77 43.48Q101.15 43.66 102.36 42.10L102.36 42.09L102.30 42.04Q102.64 42.64 103.25 43.93ZM96.76 31.24L96.69 31.17L96.60 31.08Q97.95 31.10 98.79 31.55L98.81 31.58L98.95 31.72Q99.24 32.50 99.24 33.95L99.16 33.87L99.24 33.95Q99.44 35.86 98.17 37.29L98.08 37.20L98.02 37.14Q96.78 38.61 94.88 38.42L94.95 38.49L94.84 38.38Q93.54 38.52 92.51 38.11L92.42 38.02L92.39 37.98Q92.20 37.15 92.20 35.93L92.28 36.01L92.26 35.99Q92.45 32.52 95.07 31.57L94.95 31.44L94.94 31.43Q95.84 31.12 96.64 31.12Z"/></svg>