<svg xmlns="http://www.w3.org/2000/svg" width="150" height="50" viewBox="0,0,150,50"><path fill="#444" d="M23.78 27.79L23.82 27.83L23.65 27.66Q20.21 27.64 19.10 30.99L19.19 31.07L19.04 30.93Q18.67 32.00 18.56 33.07L18.67 33.19L18.73 33.24Q18.35 35.11 19.34 36.44L19.41 36.52L19.37 36.47Q20.76 37.71 23.23 37.75L23.28 37.79L23.10 37.62Q25.12 37.85 26.53 36.71L26.45 36.63L26.39 36.56Q27.89 35.52 27.89 33.73L27.92 33.76L27.85 33.68Q27.93 33.42 27.85 33.04L27.80 32.99L27.78 32.97Q27.61 27.89 23.80 27.81ZM23.72 40.29L23.63 40.20L23.59 40.16Q19.76 40.36 17.97 38.34L18.06 38.44L18.04 38.42Q17.72 39.35 17.26 40.72L17.32 40.78L17.30 40.76Q15.44 41.60 14.18 42.17L14.04 42.04L14.05 42.04Q16.37 36.21 16.37 29.70L16.35 29.68L16.41 29.74Q16.40 21.43 12.97 13.59L12.90 13.52L12.85 13.47Q15.28 14.91 16.61 15.36L16.51 15.26L16.63 15.38Q18.68 21.97 18.84 27.79L18.82 27.77L18.84 27.80Q20.18 25.02 23.91 25.06L24.03 25.18L23.99 25.15Q27.23 25.18 28.71 27.05L28.69 27.02L28.62 26.96Q30.42 29.21 30.57 32.79L30.66 32.88L30.61 32.82Q30.64 33.97 30.57 35.56L30.59 35.58L30.71 35.71Q30.64 37.12 29.76 38.26L29.65 38.15L29.78 38.28Q27.95 39.91 23.61 40.18ZM29.15 42.76L29.14 42.74L29.12 42.72Q30.69 42.81 32.18 42.12L32.11 42.06L32.08 42.02Q33.28 40.82 33.31 38.88L33.33 38.90L33.18 38.75Q33.24 38.31 33.09 37.13L33.06 37.10L33.15 37.19Q33.03 36.47 32.92 35.56L32.99 35.63L32.96 35.60Q32.03 30.71 30.47 28.65L30.61 28.79L30.51 28.69Q30.55 28.69 29.75 27.82L29.71 27.78L29.72 27.79Q29.53 27.56 28.99 26.76L28.99 26.75L29.02 26.79Q27.28 24.70 23.93 24.73L24.10 24.91L23.93 24.74Q21.92 24.82 20.66 25.43L20.72 25.48L20.65 25.42Q20.39 20.98 19.79 17.78L19.66 17.65L19.78 17.78Q18.95 17.51 17.46 17.13L17.61 17.27L17.55 17.22Q17.46 16.52 17.00 15.07L16.82 14.89L16.92 14.98Q14.39 14.09 12.14 12.53L12.25 12.64L12.20 12.59Q16.10 20.91 16.10 29.71L15.98 29.58L16.08 29.68Q16.03 36.60 13.56 42.80L13.49 42.73L13.49 42.74Q14.25 42.47 15.59 41.90L15.64 41.96L15.49 41.80Q15.33 42.64 14.72 44.16L14.77 44.20L14.77 44.20Q16.71 43.25 19.49 42.72L19.37 42.60L19.94 40.96L19.80 40.82Q22.27 42.68 29.20 42.80ZM25.41 30.10L25.31 30.00L25.27 29.96Q26.31 29.97 26.84 30.35L26.95 30.46L26.98 30.49Q27.12 30.82 27.35 32.84L27.51 33.00L27.52 33.01Q27.63 34.79 26.37 36.11L26.45 36.19L26.37 36.11Q25.21 37.51 23.26 37.40L23.19 37.32L23.19 37.33Q22.21 37.41 20.73 36.92L20.89 37.08L20.76 36.94Q20.49 36.41 20.49 35.88L20.67 36.06L20.53 35.92Q20.49 32.80 22.05 31.20L22.23 31.38L22.08 31.26L22.12 31.31Q23.60 29.96 25.35 30.04Z"/><path fill="#222" d="M93.14 29.60L93.19 29.65L93.27 29.73Q93.12 33.84 92.39 37.99L92.37 37.97L92.53 38.13Q94.73 37.51 97.82 37.40L97.88 37.46L97.71 37.30Q99.17 37.61 100.24 36.60L100.25 36.62L100.29 36.65Q101.29 35.58 101.29 34.24L101.27 34.23L101.16 34.12Q101.35 34.00 101.31 33.74L101.27 33.70L101.16 33.58Q101.10 30.75 98.86 29.91L98.79 29.84L98.74 29.80Q98.15 29.66 97.47 29.74L97.38 29.65L97.32 29.59Q96.29 29.56 95.27 29.59L95.24 29.57L95.28 29.61Q94.27 29.70 93.24 29.70ZM91.94 19.19L91.96 19.21L91.90 19.15Q92.84 22.53 93.11 26.90L93.20 26.99L93.18 26.98Q94.47 26.93 97.13 26.97L97.19 27.03L97.20 27.04Q100.11 27.05 100.45 23.51L100.51 23.57L100.53 23.59Q100.67 21.60 99.27 20.76L99.32 20.82L99.27 20.77Q98.29 20.17 93.88 19.52L93.96 19.61L93.91 19.56Q92.88 19.44 91.96 19.21ZM88.35 42.13L88.38 42.16L88.41 42.19Q90.75 35.40 90.49 28.01L90.45 27.98L90.55 28.08Q90.22 20.75 87.29 14.27L87.27 14.25L87.35 14.33Q91.02 16.74 97.24 16.99L97.37 17.12L97.23 16.98Q103.64 17.41 103.98 20.30L103.87 20.19L103.81 20.13Q104.17 22.93 102.76 25.59L102.75 25.58L102.83 25.66Q102.08 27.15 100.48 27.84L100.46 27.82L100.51 27.87Q104.07 28.46 104.30 33.83L104.36 33.89L104.43 33.96Q104.41 34.97 104.33 36.38L104.35 36.39L104.33 36.37Q104.32 37.73 103.38 38.66L103.34 38.62L103.41 38.69Q102.43 39.57 101.09 39.72L101.10 39.73L101.01 39.64Q99.71 39.90 98.64 39.90L98.57 39.83L98.64 39.90Q92.87 39.84 88.34 42.12ZM101.16 42.45L101.14 42.44L101.10 42.40Q102.10 42.52 103.97 42.64L103.96 42.63L103.89 42.56Q105.28 42.58 106.38 41.70L106.40 41.71L106.35 41.67Q107.24 40.84 107.12 39.28L107.08 39.23L107.16 39.32Q106.99 38.27 106.27 34.81L106.34 34.88L106.28 34.82Q105.56 31.55 103.69 30.06L103.68 30.05L103.42 29.38L103.28 29.23Q105.01 27.88 105.58 24.11L105.54 24.07L105.69 24.22Q105.82 23.05 105.74 21.64L105.65 21.55L105.77 21.67Q105.55 20.19 104.44 19.35L104.53 19.44L104.55 19.46Q104.17 19.19 104.05 19.16L104.04 19.15L104.10 19.20Q103.78 18.61 102.94 17.81L102.98 17.85L103.11 17.98Q101.55 16.88 97.32 16.69L97.34 16.71L97.35 16.71Q90.68 16.40 86.68 13.51L86.66 13.49L86.66 13.49Q89.92 20.48 90.22 28.02L90.22 28.01L90.30 28.09Q90.64 35.93 87.82 42.86L87.77 42.81L89.75 41.78L89.70 41.73Q89.33 42.88 88.83 44.02L88.86 44.05L88.86 44.05Q93.16 42.19 98.19 42.19L98.19 42.18L98.24 42.24Q99.60 42.19 101.04 42.34ZM99.00 31.89L98.93 31.82L99.07 31.95Q99.78 31.86 100.69 32.32L100.63 32.25L100.70 32.32Q100.72 32.57 100.87 33.64L100.96 33.72L100.93 33.70Q101.01 34.96 100.08 36.00L100.22 36.15L100.16 36.09Q99.13 37.04 97.72 36.92L97.79 36.99L96.34 37.14L96.39 37.19Q95.56 37.16 94.84 37.28L94.88 37.32L94.89 37.33Q95.17 35.47 95.25 32.01L95.21 31.98L95.25 32.01Q95.81 31.85 97.06 31.81L97.12 31.87L97.16 31.90Q98.34 31.79 98.94 31.83ZM98.03 22.35L97.86 22.17L98.40 22.34L98.26 22.20Q98.52 22.22 98.71 22.26L98.72 22.27L99.15 22.33L99.44 22.43L100.10 22.55L100.04 22.49Q100.18 22.78 100.18 23.08L100.19 23.09L100.08 23.52L100.18 23.62Q100.06 24.75 99.18 25.69L99.31 25.82L99.22 25.72Q98.31 26.62 97.09 26.62L97.14 26.67L97.26 26.79Q96.24 26.80 96.24 26.80L96.06 26.62L96.13 26.69Q94.83 26.68 95.17 26.68L95.16 26.67L95.16 26.67Q95.03 25.06 94.73 22.01L94.77 22.06L94.86 22.15Q96.39 22.23 97.91 22.23Z"/><path fill="#222" d="M72.80 40.21L72.80 40.21L70.60 40.29L70.52 40.22Q70.12 40.27 69.15 40.32L69.19 40.37L69.21 40.39Q68.20 40.40 67.70 40.40L67.70 40.40L67.64 40.34Q66.07 40.41 65.05 39.57L65.11 39.64L65.12 39.64Q65.87 38.49 67.50 36.36L67.52 36.38L67.56 36.41Q68.74 37.90 70.95 37.67L70.91 37.64L70.93 37.66Q71.92 37.61 72.57 36.97L72.58 36.98L72.58 36.98Q73.12 36.23 73.01 35.35L73.01 35.36L73.05 35.40Q73.01 30.86 73.09 26.29L73.03 26.24L72.94 26.15Q73.01 21.57 73.54 16.97L73.63 17.05L73.51 16.94Q75.45 16.74 77.58 15.71L77.56 15.69L77.72 15.85Q75.72 22.46 75.72 29.69L75.89 29.86L75.71 29.68Q75.69 33.20 76.15 36.71L76.24 36.80L76.19 36.75Q76.33 37.16 76.33 37.50L76.23 37.40L76.37 37.54Q76.26 37.99 76.03 38.53L76.15 38.64L76.10 38.60Q75.61 39.94 72.79 40.20ZM77.71 43.03L77.61 42.92L77.90 42.87L78.35 42.91L78.56 42.74L78.55 42.72Q78.84 42.44 78.91 42.32L78.87 42.28L78.92 42.33Q79.10 41.14 78.83 40.15L78.88 40.19L78.87 40.18Q77.58 34.44 77.84 28.08L77.83 28.07L77.75 27.99Q78.00 21.88 79.79 15.98L79.76 15.95L79.73 15.92Q78.96 16.67 77.70 17.39L77.67 17.37L77.59 17.29Q77.82 16.56 78.23 15.03L78.16 14.96L78.18 14.98Q75.65 16.30 72.99 16.60L73.02 16.64L73.02 16.63Q72.79 21.16 72.71 26.11L72.64 26.04L72.59 25.99Q72.62 32.00 72.70 35.42L72.68 35.41L72.74 35.47Q72.65 37.09 70.90 37.24L70.94 37.28L71.03 37.38Q69.26 37.43 67.59 35.80L67.58 35.79L67.47 35.68Q65.43 38.20 64.47 39.76L64.56 39.85L64.57 39.86Q65.13 40.42 66.16 40.65L66.22 40.71L66.25 40.73Q66.08 40.80 65.81 41.03L65.92 41.13L65.96 41.17Q67.24 41.96 69.22 42.23L69.27 42.27L69.28 42.28Q69.61 42.27 72.90 42.57L73.07 42.74L73.00 42.67Q76.34 43.02 77.71 43.02Z"/><path fill="#444" d="M115.57 19.09L115.68 19.19L115.60 19.11Q116.72 23.59 116.88 26.78L116.92 26.83L116.89 26.79Q117.51 26.96 121.88 27.07L121.73 26.92L121.91 27.10Q124.46 27.13 124.84 23.67L124.70 23.53L124.71 23.54Q124.96 21.85 124.04 20.93L124.06 20.95L124.08 20.97Q122.84 20.11 120.86 19.96L120.78 19.88L120.68 19.78Q117.51 19.61 115.64 19.16ZM117.12 28.86L117.05 28.78L117.01 28.74Q117.23 34.79 115.44 40.73L115.55 40.83L115.43 40.71Q114.31 41.16 111.73 42.19L111.71 42.18L111.65 42.11Q114.50 35.64 114.16 28.18L114.18 28.20L114.06 28.08Q113.84 20.82 110.53 14.31L110.45 14.23L110.49 14.27Q115.34 17.07 122.31 17.07L122.27 17.02L122.30 17.06Q127.87 17.00 128.14 20.54L128.13 20.52L128.23 20.63Q128.33 21.26 128.26 21.87L128.15 21.76L128.05 22.88L128.11 22.95Q127.27 26.86 125.14 28.57L125.25 28.69L125.18 28.61Q124.39 29.31 123.36 29.31L123.38 29.33L120.81 29.35L120.86 29.40Q126.30 36.47 130.83 41.04L130.98 41.19L130.98 41.19Q128.68 40.34 125.75 40.00L125.67 39.92L125.66 39.91Q121.93 35.99 117.02 28.76ZM125.55 40.29L125.68 40.42L125.90 40.34L127.23 41.67L127.11 41.55Q127.82 42.22 128.47 42.83L128.51 42.87L128.34 42.70Q131.94 43.37 135.51 45.23L135.58 45.30L135.52 45.24Q128.52 38.43 123.11 31.50L123.20 31.59L124.89 31.52L124.91 31.55Q127.95 31.50 129.28 26.97L129.30 26.99L129.38 27.07Q130.07 24.87 130.07 22.17L130.04 22.13L130.09 22.18Q130.14 19.94 128.42 19.30L128.30 19.17L128.38 19.25Q128.19 18.80 127.62 18.12L127.66 18.15L127.60 18.09Q126.02 16.74 122.37 16.67L122.30 16.60L122.40 16.70Q114.39 16.42 109.71 13.41L109.72 13.42L109.70 13.40Q113.43 20.21 113.77 27.90L113.87 28.01L113.76 27.89Q114.15 35.90 111.03 42.75L110.98 42.70L111.11 42.83Q112.23 42.13 113.03 41.82L113.08 41.87L112.20 44.26L112.04 44.11Q114.80 43.10 117.47 42.60L117.57 42.71L117.46 42.59Q118.81 37.55 119.00 32.34L118.92 32.25L118.97 32.30Q122.50 37.28 125.66 40.40ZM124.38 22.45L124.42 22.49L124.33 22.40Q124.50 22.80 124.50 23.14L124.51 23.15L124.48 23.69L124.33 23.54Q124.41 24.73 123.73 25.68L123.73 25.68L123.77 25.72Q123.06 26.39 122.15 26.58L122.14 26.56L122.28 26.71Q122.06 26.75 120.46 26.79L120.46 26.79L120.33 26.66Q119.72 26.66 118.89 26.55L119.04 26.70L118.95 26.61Q118.84 25.10 118.50 22.05L118.56 22.11L118.42 21.97Q119.88 22.22 120.57 22.22L120.66 22.31L120.58 22.23Q122.34 22.16 124.28 22.35Z"/><path fill="#444" d="M53.12 28.77L52.97 28.62L47.15 28.77L47.09 28.72Q44.26 28.86 41.33 28.78L41.25 28.70L41.34 28.79Q41.44 35.48 39.39 41.00L39.34 40.95L39.35 40.96Q37.52 41.46 35.77 42.14L35.80 42.17L35.76 42.13Q38.61 36.49 38.61 29.82L38.59 29.81L38.48 29.70Q38.54 21.27 34.43 14.22L34.39 14.18L34.52 14.32Q36.01 15.09 38.49 15.88L38.41 15.81L38.34 15.74Q40.56 20.89 41.09 25.76L41.11 25.78L41.13 25.80Q44.37 26.26 47.22 26.22L47.22 26.22L47.08 26.08Q49.89 26.22 53.20 25.95L53.10 25.85L53.12 25.88Q53.63 21.51 55.38 16.41L55.39 16.42L55.36 16.39Q57.20 15.87 59.45 15.03L59.43 15.01L59.51 15.09Q55.96 21.90 55.96 29.85L55.88 29.77L55.99 29.89Q55.97 36.07 58.33 41.40L58.17 41.24L58.35 41.42Q56.60 40.66 54.54 40.36L54.57 40.38L54.70 40.51Q52.88 35.34 52.99 28.64ZM54.39 40.81L54.29 40.71L54.39 40.81Q55.35 40.90 56.45 41.16L56.39 41.09L56.50 41.21Q56.87 41.96 57.52 43.45L57.50 43.43L57.44 43.36Q60.89 44.42 62.68 45.33L62.69 45.34L62.53 45.18Q58.13 39.06 57.82 30.80L57.78 30.76L57.92 30.90Q57.58 22.83 61.23 16.02L61.14 15.93L60.20 16.51L60.14 16.45Q59.71 16.74 59.10 16.89L59.03 16.82L59.05 16.84Q59.48 16.05 60.32 14.49L60.20 14.37L60.20 14.38Q57.62 15.49 54.99 15.98L55.02 16.01L54.92 15.91Q53.21 20.72 52.76 25.40L52.91 25.55L52.83 25.47Q50.43 25.77 47.99 25.77L47.88 25.66L47.86 25.64Q45.63 25.81 43.12 25.66L43.11 25.65L43.04 25.58Q42.75 22.24 41.65 18.17L41.71 18.24L41.65 18.17Q41.01 18.11 39.57 17.73L39.64 17.80L39.57 17.73Q39.21 16.53 38.75 15.50L38.80 15.55L38.71 15.46Q35.89 14.62 33.61 13.37L33.73 13.49L33.68 13.44Q38.31 20.92 38.31 29.72L38.23 29.63L38.33 29.73Q38.37 36.75 35.25 42.88L35.24 42.87L35.14 42.77Q35.95 42.59 37.28 42.01L37.16 41.90L37.21 41.94Q36.82 42.73 36.02 44.25L36.08 44.32L36.04 44.28Q38.86 43.29 41.11 42.87L41.17 42.94L41.08 42.84Q42.98 37.32 43.17 31.15L43.27 31.25L43.14 31.12Q44.75 31.06 47.95 31.02L48.04 31.12L48.00 31.07Q50.90 31.08 52.80 31.15L52.76 31.11L52.66 31.01Q52.97 36.81 54.31 40.73Z"/></svg>