<svg xmlns="http://www.w3.org/2000/svg" width="150" height="50" viewBox="0,0,150,50"><path fill="#222" d="M95.04 29.82L95.04 29.82L95.16 29.95Q94.85 29.86 94.55 29.86L94.58 29.90L94.42 29.74Q93.23 29.88 91.79 30.72L91.80 30.73L91.75 30.69Q90.38 31.75 90.38 33.66L90.33 33.61L90.33 33.61Q90.32 37.02 91.84 38.35L91.95 38.46L92.02 38.53Q92.86 39.60 95.15 39.60L95.11 39.56L95.21 39.66Q95.39 39.61 95.69 39.61L95.80 39.72L95.75 39.67Q97.53 39.74 98.67 38.10L98.53 37.96L98.69 38.12Q99.57 36.44 99.49 34.66L99.63 34.79L99.56 34.72Q99.59 34.22 99.59 33.80L99.55 33.76L99.69 33.91Q99.61 32.03 98.24 30.87L98.22 30.85L98.23 30.86Q96.88 29.72 95.09 29.88ZM99.52 39.98L99.49 39.95L99.59 40.04Q98.58 41.97 94.85 42.09L94.87 42.10L94.89 42.12Q91.43 42.17 89.84 40.57L89.88 40.61L89.90 40.64Q88.47 38.90 87.67 34.11L87.65 34.08L87.57 34.00Q87.31 32.30 87.31 31.04L87.26 30.99L87.38 31.11Q87.26 29.20 87.98 28.14L87.96 28.11L87.97 28.13Q89.40 26.81 92.37 26.81L92.42 26.87L92.31 26.75Q98.70 26.82 100.60 29.41L100.64 29.45L100.52 29.33Q100.71 28.53 101.13 26.93L101.10 26.90L101.08 26.88Q102.51 26.75 104.95 25.95L104.87 25.87L104.90 25.91Q102.39 31.47 102.16 37.78L102.28 37.90L102.22 37.85Q101.93 43.95 104.06 49.78L104.16 49.87L104.18 49.89Q102.36 49.17 100.57 48.91L100.60 48.93L100.59 48.93Q99.62 44.91 99.50 39.96ZM100.29 49.20L100.43 49.33L100.37 49.28Q101.00 49.34 102.41 49.64L102.47 49.71L102.39 49.63Q102.62 50.35 103.19 51.76L103.20 51.76L103.28 51.84Q105.94 52.64 108.22 53.93L108.17 53.88L108.14 53.85Q104.19 47.35 104.19 38.82L104.10 38.73L104.14 38.77Q104.02 32.29 106.49 26.51L106.54 26.55L106.49 26.50Q105.91 26.91 104.53 27.56L104.48 27.50L104.52 27.54Q104.75 26.67 105.40 25.11L105.40 25.10L105.51 25.22Q104.05 25.86 100.86 26.73L100.68 26.55L100.73 26.60Q100.55 27.11 100.24 28.29L100.33 28.37L100.34 28.38Q98.37 26.53 92.24 26.38L92.14 26.28L92.22 26.36Q89.09 26.35 87.72 27.83L87.69 27.80L87.60 27.72Q86.89 28.91 86.93 30.81L86.85 30.73L86.98 30.87Q87.01 33.79 88.00 37.55L87.92 37.48L88.06 37.62Q88.64 39.94 89.55 40.89L89.55 40.89L90.04 41.39L89.98 41.33Q91.22 44.17 96.67 44.40L96.55 44.28L96.63 44.35Q97.69 44.43 99.51 44.12L99.51 44.12L99.37 43.98Q99.70 46.94 100.31 49.22ZM96.91 32.11L96.91 32.12L97.02 32.22Q98.04 32.18 98.88 32.48L98.93 32.54L98.84 32.44Q99.02 32.97 99.14 33.58L99.19 33.63L99.19 33.63Q99.19 34.09 99.11 34.70L99.21 34.80L99.15 34.73Q99.17 36.66 98.15 37.96L98.24 38.05L98.16 37.97Q97.01 39.40 95.14 39.21L95.16 39.23L95.26 39.33Q93.95 39.32 93.00 38.90L92.85 38.75L92.87 38.77Q92.59 38.03 92.59 36.82L92.63 36.86L92.54 36.76Q92.47 36.39 92.47 36.09L92.52 36.14L92.59 36.20Q92.61 34.47 93.94 33.31L93.81 33.19L93.95 33.32Q95.19 32.07 96.94 32.15Z"/><path fill="#111" d="M117.78 29.57L117.80 29.59L117.84 29.63Q117.93 33.99 117.21 38.14L117.21 38.14L117.22 38.15Q119.34 37.45 122.42 37.34L122.47 37.39L122.44 37.36Q123.73 37.51 124.80 36.50L124.89 36.59L124.94 36.64Q125.86 35.48 125.86 34.15L126.02 34.31L125.83 34.12Q125.88 33.86 125.84 33.60L125.81 33.56L125.97 33.73Q125.64 30.62 123.39 29.78L123.48 29.86L123.42 29.80Q122.74 29.59 122.06 29.66L122.08 29.68L122.12 29.72Q121.00 29.60 119.97 29.63L119.90 29.56L119.92 29.58Q118.87 29.64 117.84 29.64ZM116.71 19.29L116.58 19.16L116.59 19.17Q117.42 22.44 117.69 26.82L117.81 26.94L117.70 26.83Q119.24 27.04 121.90 27.07L121.90 27.07L121.80 26.97Q124.75 27.02 125.09 23.48L125.19 23.58L125.14 23.53Q125.34 21.60 123.93 20.76L123.94 20.77L124.02 20.85Q123.01 20.22 118.60 19.58L118.71 19.69L118.60 19.58Q117.59 19.48 116.67 19.25ZM112.99 42.10L112.99 42.11L112.92 42.04Q115.42 35.39 115.15 28.01L115.21 28.07L115.23 28.09Q114.86 20.71 111.93 14.24L111.92 14.23L111.96 14.27Q115.75 16.81 121.98 17.06L121.95 17.03L122.08 17.16Q128.28 17.38 128.62 20.28L128.61 20.27L128.53 20.18Q128.81 22.90 127.40 25.56L127.57 25.73L127.45 25.61Q126.73 27.14 125.13 27.82L125.05 27.74L125.03 27.72Q128.74 28.46 128.97 33.83L129.10 33.97L128.94 33.80Q129.06 34.95 128.98 36.36L128.95 36.33L128.98 36.36Q128.89 37.64 127.96 38.57L127.98 38.59L127.98 38.59Q127.06 39.53 125.72 39.69L125.84 39.81L125.73 39.69Q124.35 39.87 123.28 39.87L123.21 39.80L123.23 39.82Q117.48 39.78 112.95 42.06ZM125.82 42.45L125.77 42.40L125.77 42.40Q126.67 42.43 128.54 42.54L128.54 42.54L128.56 42.56Q129.97 42.60 131.07 41.72L131.11 41.76L131.02 41.67Q131.85 40.79 131.74 39.23L131.71 39.20L131.70 39.19Q131.63 38.24 130.90 34.78L130.99 34.86L131.08 34.95Q130.28 31.61 128.42 30.12L128.41 30.12L128.10 29.39L128.02 29.31Q129.69 27.89 130.26 24.12L130.35 24.21L130.20 24.06Q130.38 22.95 130.30 21.54L130.28 21.51L130.36 21.59Q130.28 20.26 129.17 19.42L129.17 19.41L129.11 19.36Q128.90 19.26 128.79 19.22L128.79 19.23L128.66 19.10Q128.54 18.71 127.71 17.91L127.75 17.95L127.73 17.94Q126.21 16.87 121.98 16.68L122.00 16.70L121.84 16.54Q115.22 16.28 111.22 13.38L111.26 13.43L111.24 13.40Q114.61 20.51 114.92 28.04L114.89 28.01L114.89 28.02Q115.20 35.82 112.38 42.75L112.31 42.68L114.45 41.82L114.40 41.77Q114.10 42.98 113.60 44.13L113.51 44.03L113.53 44.06Q117.81 42.17 122.84 42.17L122.94 42.27L123.00 42.33Q124.25 42.17 125.69 42.32ZM123.71 31.92L123.63 31.84L123.62 31.83Q124.39 31.81 125.30 32.26L125.33 32.29L125.22 32.18Q125.46 32.65 125.61 33.71L125.44 33.54L125.48 33.58Q125.66 34.94 124.72 35.98L124.71 35.97L124.74 36.00Q123.86 37.10 122.45 36.99L122.41 36.95L120.98 37.11L121.05 37.18Q120.13 37.07 119.41 37.18L119.44 37.21L119.44 37.21Q119.83 35.47 119.91 32.00L119.79 31.88L119.86 31.96Q120.59 31.96 121.84 31.92L121.76 31.84L121.87 31.95Q122.96 31.75 123.57 31.78ZM122.70 22.35L122.51 22.16L123.09 22.35L123.05 22.31Q123.28 22.32 123.47 22.36L123.31 22.20L123.81 22.32L124.07 22.39L124.70 22.48L124.81 22.59Q124.79 22.72 124.79 23.03L124.91 23.15L124.89 23.66L124.80 23.57Q124.90 24.93 124.03 25.87L124.01 25.85L123.93 25.77Q123.01 26.65 121.79 26.65L121.92 26.79L121.80 26.67Q120.76 26.65 120.76 26.65L120.74 26.63L120.92 26.81Q119.49 26.68 119.83 26.68L119.81 26.65L119.86 26.71Q119.73 25.09 119.43 22.04L119.57 22.19L119.49 22.11Q121.17 22.34 122.69 22.34Z"/><path fill="#222" d="M21.82 29.25L21.80 29.23L21.70 29.13Q19.86 29.16 18.64 30.49L18.77 30.62L18.77 30.62Q17.37 31.77 17.22 33.67L17.34 33.79L17.24 33.69Q17.13 35.90 18.34 36.91L18.36 36.93L18.35 36.92Q19.58 37.94 21.71 37.86L21.72 37.87L21.60 37.75Q23.92 37.60 24.87 36.65L25.01 36.78L25.04 36.82Q25.91 35.21 25.80 33.38L25.95 33.54L25.88 33.47Q25.74 31.58 24.66 30.38L24.65 30.37L24.72 30.44Q23.49 29.09 21.66 29.09ZM21.74 19.77L21.62 19.65L21.73 19.76Q20.31 19.64 18.98 20.13L18.98 20.13L18.99 20.14Q17.58 20.83 17.81 22.69L17.98 22.87L17.88 22.76Q18.41 26.53 21.76 26.53L21.84 26.61L21.83 26.60Q23.31 26.71 24.30 25.56L24.28 25.54L24.31 25.57Q25.27 24.40 25.30 22.84L25.40 22.94L25.36 22.90Q25.42 21.13 24.70 20.52L24.64 20.46L24.67 20.49Q23.10 19.76 21.80 19.83ZM21.44 40.30L21.38 40.24L18.31 40.21L18.44 40.34Q16.98 40.40 15.65 39.53L15.51 39.39L15.46 39.34Q14.08 38.19 14.23 35.33L14.27 35.37L14.37 35.47Q14.71 28.50 18.33 27.51L18.49 27.67L18.45 27.63Q16.18 26.73 14.84 21.36L14.84 21.36L14.74 21.26Q14.39 19.84 14.47 19.04L14.53 19.11L14.44 19.02Q14.82 16.97 18.52 16.93L18.52 16.93L18.56 16.97Q22.75 16.86 24.20 17.05L24.24 17.09L24.17 17.02Q27.97 17.51 28.43 19.53L28.45 19.55L28.43 19.53Q28.65 20.24 28.65 20.62L28.65 20.63L28.68 20.65Q28.62 21.28 28.43 21.89L28.33 21.79L28.41 21.87Q27.78 26.08 24.85 27.60L24.79 27.54L24.93 27.68Q28.42 28.47 28.91 33.76L28.84 33.69L28.88 33.72Q28.80 33.80 28.84 35.10L28.90 35.15L28.96 35.22Q28.96 37.88 27.36 38.95L27.48 39.06L27.41 39.00Q25.92 39.75 21.36 40.21ZM23.65 42.54L23.69 42.58L27.06 42.68L27.06 42.67Q28.88 42.87 30.41 42.14L30.28 42.01L30.28 42.02Q31.45 41.32 31.53 39.46L31.48 39.40L31.44 39.37Q31.54 38.33 31.16 36.39L31.15 36.38L31.22 36.45Q30.33 31.82 28.23 29.96L28.15 29.87L28.09 29.63L27.89 29.34L27.64 28.99L27.59 28.94Q29.38 27.72 30.30 23.57L30.16 23.43L30.26 23.54Q30.20 23.09 30.28 22.25L30.32 22.30L30.24 22.22Q30.41 21.63 30.34 21.02L30.32 21.00L30.35 21.03Q30.23 19.62 29.05 19.12L29.03 19.10L28.94 18.97L28.77 18.88L28.73 18.84Q28.55 18.20 27.37 17.40L27.35 17.39L27.49 17.48L27.43 17.43Q25.51 16.80 21.44 16.61L21.27 16.44L21.34 16.52Q19.79 16.41 18.42 16.52L18.48 16.59L18.33 16.44Q17.57 16.52 16.28 16.67L16.21 16.60L16.26 16.65Q14.27 16.99 14.05 18.62L14.14 18.72L14.05 18.62Q14.15 19.26 14.19 20.06L14.16 20.03L14.22 20.09Q14.25 20.54 14.82 22.90L14.89 22.97L14.75 22.83Q15.72 26.24 17.47 27.57L17.42 27.52L17.39 27.48L17.44 27.54Q14.61 28.78 14.07 33.96L14.18 34.06L14.23 34.11Q13.96 36.24 13.96 37.16L13.91 37.10L13.95 37.14Q14.06 38.97 15.24 39.88L15.14 39.78L15.16 39.80Q15.26 39.86 15.53 40.05L15.60 40.13L15.59 40.12Q16.62 42.40 23.74 42.63ZM23.36 31.52L23.38 31.53L23.34 31.50Q24.36 31.52 25.23 31.98L25.19 31.94L25.27 32.02Q25.49 32.85 25.45 33.38L25.50 33.43L25.43 33.36Q25.65 33.84 25.65 34.15L25.51 34.01L25.58 34.08Q25.65 36.51 23.37 37.35L23.18 37.16L23.32 37.30Q22.52 37.61 21.72 37.50L21.64 37.41L21.60 37.37Q20.57 37.56 19.43 37.10L19.47 37.14L19.53 37.20Q19.18 36.48 19.26 35.49L19.30 35.53L19.21 35.44Q19.37 33.84 20.57 32.62L20.60 32.66L20.57 32.63Q21.70 31.34 23.30 31.45ZM23.54 21.99L23.69 22.14L23.71 22.16Q24.38 21.91 24.91 22.06L24.87 22.03L24.93 22.88L24.91 22.87Q24.92 24.28 24.00 25.29L23.95 25.23L24.03 25.32Q23.21 26.42 21.84 26.23L21.76 26.15L21.82 26.21Q20.70 26.08 20.29 25.85L20.29 25.86L20.38 25.95Q20.24 25.58 20.13 24.90L20.22 24.99L20.12 24.89Q19.87 23.50 21.09 22.66L21.05 22.62L21.21 22.78Q22.20 22.02 23.61 22.06Z"/><path fill="#444" d="M46.17 40.24L46.11 40.19L46.22 40.29Q42.69 40.34 41.05 39.81L41.03 39.79L40.96 39.72Q39.17 39.26 38.87 35.87L38.76 35.76L40.17 34.66L40.13 34.62Q40.87 34.10 41.63 33.61L41.70 33.68L41.73 33.71Q41.43 35.58 43.03 36.80L43.02 36.79L43.05 36.82Q44.31 37.81 46.44 37.62L46.45 37.63L46.49 37.67Q50.93 37.31 50.74 33.77L50.62 33.65L50.63 33.67Q50.45 31.39 47.83 30.17L47.93 30.27L47.85 30.20Q45.03 29.17 42.67 27.95L42.64 27.92L42.74 28.02Q40.13 26.62 39.14 21.94L39.19 21.99L39.18 21.99Q39.09 21.55 38.97 20.79L38.96 20.78L38.95 20.77Q38.79 19.92 38.86 19.34L38.93 19.41L38.83 19.31Q38.98 17.71 40.24 17.26L40.33 17.35L40.20 17.22Q42.78 16.52 46.77 16.71L46.64 16.58L46.77 16.71Q48.61 16.83 49.41 16.91L49.28 16.78L49.23 16.73Q50.72 16.93 51.79 17.39L51.93 17.53L51.88 17.48Q54.00 17.96 54.23 20.44L54.14 20.35L54.16 20.36Q53.25 21.21 51.04 22.54L50.94 22.43L50.87 22.37Q50.48 19.39 46.11 19.39L46.07 19.36L46.17 19.46Q44.35 19.54 43.36 20.23L43.22 20.09L43.29 20.15Q42.02 20.56 42.25 22.35L42.38 22.48L42.31 22.41Q42.61 24.65 45.58 26.17L45.54 26.13L45.48 26.07Q46.06 26.35 50.55 27.99L50.59 28.02L50.64 28.07Q53.16 29.46 53.58 33.84L53.62 33.88L53.63 33.88Q53.63 34.03 53.70 35.29L53.73 35.31L53.66 35.24Q53.83 38.12 52.27 39.22L52.19 39.14L52.17 39.13Q50.44 40.21 46.25 40.32ZM48.40 42.55L48.39 42.54L48.41 42.56Q49.88 42.66 51.86 42.66L51.90 42.70L51.82 42.62Q54.03 42.74 55.29 42.32L55.18 42.21L55.23 42.26Q56.37 41.35 56.30 39.56L56.32 39.58L56.34 39.60Q56.37 38.68 55.99 36.62L55.95 36.58L56.01 36.64Q55.16 32.03 53.07 30.16L52.95 30.05L53.04 30.13Q52.16 28.46 50.83 27.73L50.91 27.81L45.63 25.77L45.46 25.60Q45.21 25.50 44.75 25.28L44.72 25.24L44.74 24.99L44.67 24.59L44.61 24.52Q44.54 23.20 45.69 22.59L45.66 22.56L45.58 22.48Q46.30 21.87 48.01 21.68L48.14 21.81L48.16 21.82Q49.32 21.73 50.46 22.19L50.37 22.10L50.29 22.01Q50.53 22.29 50.72 23.13L50.57 22.98L50.68 23.09Q50.76 22.83 51.25 22.60L51.31 22.66L51.32 22.66Q52.03 23.56 52.14 24.71L52.08 24.65L52.26 24.83Q52.22 24.66 55.87 22.08L55.90 22.11L55.97 22.17Q55.67 19.52 54.22 18.83L54.18 18.79L54.13 18.74Q53.71 17.63 52.26 17.10L52.25 17.08L52.12 16.96Q49.85 16.17 46.65 16.17L46.75 16.27L46.78 16.30Q41.71 16.14 39.84 16.82L39.81 16.79L39.95 16.93Q38.59 17.36 38.47 19.03L38.47 19.03L38.38 18.94Q38.47 19.60 38.89 21.81L38.84 21.76L38.77 21.69Q39.55 25.55 41.72 27.80L41.68 27.76L41.75 27.83Q42.49 29.49 44.00 30.17L43.94 30.12L44.00 30.18Q45.47 30.82 49.39 32.38L49.47 32.46L49.40 32.44L50.09 32.82L50.18 32.95L50.17 32.94Q50.20 33.23 50.24 33.57L50.37 33.71L50.25 33.59Q50.35 37.08 46.43 37.23L46.43 37.23L46.44 37.24Q45.37 37.35 44.07 36.97L44.01 36.90L44.01 36.90Q43.73 36.13 43.73 35.41L43.61 35.28L43.61 35.28Q43.65 35.05 43.68 34.79L43.65 34.75L43.69 34.79Q43.29 35.04 42.49 35.53L42.55 35.59L42.47 35.52Q42.07 34.51 42.23 33.14L42.13 33.04L42.11 33.03Q40.01 34.20 38.41 35.60L38.49 35.69L38.54 35.73Q38.49 36.45 38.57 37.48L38.48 37.39L38.64 37.54Q38.84 39.15 40.13 39.91L40.13 39.91L40.18 39.96Q41.53 41.92 44.08 42.30L44.08 42.30L44.03 42.25Q45.59 42.48 48.52 42.67Z"/><path fill="#222" d="M72.64 40.16L72.70 40.23L72.61 40.13Q70.76 40.07 69.09 40.64L69.20 40.75L69.13 40.69Q69.70 37.11 69.81 33.99L69.83 34.00L69.74 33.91Q69.85 30.86 69.62 27.21L69.65 27.24L69.63 27.22Q68.33 26.94 67.57 26.56L67.49 26.48L67.14 23.51L67.06 23.43Q67.91 24.16 69.51 24.73L69.51 24.73L69.56 24.79Q69.33 22.65 68.91 19.91L68.78 19.78L68.83 19.83Q71.17 20.57 72.80 20.41L72.75 20.36L72.73 25.06L72.53 24.86Q74.03 24.87 75.36 24.38L75.35 24.37L75.38 24.40Q75.36 25.33 75.13 27.08L75.06 27.01L75.01 26.96Q73.59 27.41 72.56 27.41L72.49 27.33L72.60 27.45Q72.57 29.59 72.57 33.85L72.64 33.92L72.65 33.93Q72.61 38.04 72.69 40.21ZM75.77 23.80L75.79 23.82L75.72 23.75Q75.58 23.99 74.97 24.22L74.91 24.16L75.23 21.32L75.39 21.48Q74.57 21.76 73.16 21.99L73.00 21.83L73.07 21.90Q73.15 21.29 73.30 19.92L73.28 19.90L73.26 19.88Q72.60 19.91 72.03 19.91L71.97 19.85L71.98 19.86Q69.92 19.94 68.29 19.21L68.26 19.18L68.35 19.27Q68.87 21.78 69.14 24.25L69.14 24.25L68.97 24.08Q68.08 23.72 66.55 22.69L66.75 22.89L66.65 22.79Q66.93 24.02 67.16 26.72L67.14 26.71L67.23 26.80Q67.62 26.96 68.80 27.38L68.83 27.40L68.81 27.39Q68.82 28.01 68.86 29.42L68.97 29.53L69.38 29.60L69.46 29.59L69.45 29.59Q69.39 30.70 69.39 31.88L69.42 31.92L69.51 32.01Q69.55 36.99 68.75 41.33L68.66 41.25L68.59 41.18Q68.96 41.24 70.90 40.71L70.75 40.56L70.73 40.54Q70.80 41.25 70.69 42.63L70.73 42.67L70.79 42.73Q71.44 42.51 72.24 42.51L72.31 42.57L72.25 42.51Q74.00 42.55 75.63 43.12L75.64 43.13L75.64 43.13Q74.38 37.49 74.57 29.57L74.56 29.56L76.95 29.17L77.01 29.22Q77.10 28.33 77.18 27.30L77.07 27.19L77.30 25.21L77.30 25.22Q76.65 25.41 75.47 25.87L75.55 25.94L75.53 25.93Q75.89 24.65 75.82 24.30L75.83 24.32L75.66 24.14Q75.62 23.92 75.70 23.73Z"/></svg>