<svg xmlns="http://www.w3.org/2000/svg" width="150" height="50" viewBox="0,0,150,50"><path fill="#222" d="M106.42 23.08L106.42 23.08L106.46 23.13Q104.63 25.83 101.97 31.46L101.96 31.45L99.95 35.69L100.00 35.73Q99.12 37.63 97.78 39.88L97.77 39.87L97.79 39.89Q98.25 39.89 96.57 39.92L96.42 39.77L96.42 39.77Q96.52 39.87 95.26 39.87L95.31 39.92L95.31 39.92Q94.59 38.44 91.66 31.28L91.59 31.21L91.57 31.19Q89.42 25.84 87.33 22.84L87.39 22.90L87.26 22.77Q87.99 25.82 87.99 28.98L88.15 29.14L88.13 29.12Q88.12 35.62 85.15 41.18L85.02 41.05L85.14 41.17Q83.77 41.47 81.41 42.20L81.52 42.30L81.50 42.28Q85.03 36.45 85.03 29.22L85.09 29.28L85.18 29.37Q85.08 20.33 79.68 13.36L79.68 13.36L79.69 13.37Q81.34 14.10 83.70 14.79L83.64 14.74L83.77 14.86Q90.82 21.61 96.91 34.93L96.75 34.77L96.94 34.96Q100.39 27.91 102.60 24.41L102.56 24.36L102.45 24.25Q106.19 18.63 110.15 15.16L110.03 15.05L110.16 15.18Q111.28 14.81 113.64 14.05L113.72 14.13L113.63 14.04Q108.74 20.76 108.74 29.37L108.66 29.28L108.69 29.32Q108.65 35.93 112.07 41.45L112.09 41.47L112.23 41.60Q110.72 41.13 107.98 40.52L108.01 40.55L108.04 40.58Q105.70 35.80 105.70 29.82L105.71 29.83L105.62 29.75Q105.62 26.32 106.31 22.97ZM107.95 41.06L107.92 41.03L107.94 41.05Q108.61 41.15 110.06 41.41L110.00 41.36L110.06 41.42Q110.41 42.08 111.37 43.56L111.43 43.63L111.39 43.59Q113.58 44.06 117.04 45.28L116.98 45.21L117.11 45.34Q110.67 38.83 110.67 29.01L110.68 29.02L110.68 29.02Q110.83 21.44 115.20 15.31L115.05 15.16L112.90 15.90L112.85 15.85Q113.96 14.40 114.60 13.53L114.54 13.46L114.49 13.41Q112.75 14.18 110.12 14.72L110.10 14.70L110.09 14.69Q103.26 20.72 97.21 33.32L97.25 33.37L97.19 33.30Q92.14 22.47 87.19 17.22L87.21 17.24L87.08 17.11Q86.70 17.03 86.13 16.91L86.26 17.05L85.06 15.77L84.90 15.61Q84.35 14.98 83.66 14.37L83.75 14.46L83.67 14.38Q80.68 13.45 78.90 12.73L78.81 12.64L78.85 12.68Q84.91 19.96 84.91 29.37L84.87 29.32L84.89 29.35Q84.85 36.92 80.70 42.78L80.71 42.80L80.68 42.76Q81.45 42.62 82.75 42.20L82.75 42.20L82.69 42.15Q82.64 42.47 81.23 44.56L81.12 44.46L81.20 44.54Q82.95 44.01 86.46 43.24L86.39 43.18L86.40 43.19Q90.20 36.21 90.01 28.45L89.94 28.38L90.03 28.47Q91.45 32.37 94.92 40.25L94.94 40.27L95.05 40.38Q95.30 40.32 95.53 40.32L95.38 40.18L95.94 40.21L95.93 40.19Q96.52 41.01 97.32 42.30L97.18 42.17L97.19 42.18Q98.81 42.16 98.81 42.16L98.78 42.13L98.85 42.20Q99.94 42.27 100.59 42.34L100.46 42.21L100.53 42.28Q102.11 38.27 105.46 30.27L105.32 30.13L105.48 30.29Q105.36 35.73 107.95 41.06Z"/><path fill="#222" d="M19.63 26.78L19.75 26.90L19.78 26.92Q21.57 27.08 23.39 27.08L23.25 26.93L23.26 26.95Q25.01 26.91 26.84 26.75L26.97 26.89L26.92 26.84Q26.82 27.50 26.82 28.22L26.80 28.20L26.72 29.45L26.79 29.52Q24.39 29.48 19.63 29.60L19.63 29.59L19.67 29.64Q19.67 35.58 18.53 40.56L18.49 40.52L18.46 40.49Q16.42 41.35 14.94 42.15L14.80 42.01L14.82 42.03Q17.13 35.20 16.86 28.08L16.82 28.04L16.83 28.05Q16.67 21.00 14.01 14.34L14.00 14.33L14.05 14.38Q17.61 16.80 22.37 17.03L22.43 17.09L22.39 17.05Q26.99 17.16 31.14 15.41L31.12 15.38L31.25 15.51Q30.94 16.31 30.71 17.11L30.67 17.07L30.21 18.70L30.21 18.70Q27.46 19.76 24.49 19.91L24.52 19.95L24.64 20.06Q21.70 20.20 18.84 19.48L18.86 19.50L18.74 19.38Q19.43 22.77 19.62 26.76ZM31.78 14.72L31.93 14.86L31.82 14.76Q27.28 16.96 22.41 16.65L22.46 16.70L22.41 16.66Q17.04 16.31 13.31 13.45L13.26 13.41L13.25 13.39Q16.27 20.48 16.57 28.10L16.60 28.12L16.61 28.14Q16.91 36.04 14.39 42.82L14.27 42.70L14.43 42.86Q15.02 42.38 16.39 41.74L16.32 41.67L16.41 41.76Q16.17 42.47 15.60 43.99L15.63 44.02L15.58 43.97Q17.95 42.95 20.84 42.46L20.90 42.52L20.91 42.53Q21.36 37.49 21.55 31.78L21.70 31.93L21.71 31.94Q23.35 31.76 25.18 31.76L25.20 31.78L25.26 31.83Q27.04 31.83 28.87 32.02L28.88 32.03L28.76 31.91Q28.73 31.04 28.73 30.13L28.77 30.17L28.78 28.28L28.79 28.29Q27.92 28.30 27.09 28.30L27.21 28.41L27.06 28.27Q27.09 27.42 27.16 26.39L27.26 26.49L27.17 26.40Q25.86 26.65 24.45 26.65L24.43 26.63L24.52 26.72Q22.93 26.54 21.56 26.50L21.65 26.59L21.54 24.35L21.52 24.33Q21.48 23.22 21.36 22.15L21.34 22.13L21.40 22.19Q22.50 22.37 23.49 22.37L23.42 22.31L23.45 22.33Q28.11 22.24 31.73 20.33L31.86 20.47L31.78 20.39Q32.28 18.56 33.19 15.93L33.10 15.85L33.16 15.90Q31.93 16.81 31.13 17.15L31.17 17.19L31.06 17.08Q31.34 16.33 31.83 14.77Z"/><path fill="#333" d="M70.34 28.69L70.31 28.65L70.32 28.67Q67.53 28.69 66.77 30.94L66.70 30.87L66.69 30.86Q66.42 31.54 66.30 32.19L66.41 32.29L66.37 32.25Q69.01 32.50 70.65 32.50L70.59 32.44L70.55 32.40Q72.25 32.46 74.84 32.35L74.81 32.32L74.80 32.31Q74.79 30.70 73.38 29.64L73.24 29.50L73.39 29.64Q72.06 28.61 70.27 28.61ZM70.35 41.18L70.44 41.27L70.38 41.21Q66.20 41.26 64.90 39.85L64.80 39.75L64.80 39.75Q63.90 38.35 63.75 35.08L63.71 35.04L63.66 34.99Q63.74 34.84 63.66 33.47L63.58 33.38L63.72 33.52Q63.41 31.05 63.41 30.33L63.57 30.48L63.46 30.38Q63.50 28.54 64.22 27.44L64.30 27.52L64.14 27.36Q65.59 25.99 68.56 25.99L68.51 25.95L70.15 26.02L70.20 26.07Q72.17 25.98 73.69 26.29L73.64 26.24L73.74 26.34Q75.88 26.88 76.87 28.10L76.80 28.03L76.75 27.98Q77.41 29.09 77.48 31.19L77.44 31.14L77.52 31.23Q77.49 32.33 77.53 34.50L77.53 34.51L77.45 34.43Q74.73 34.60 71.95 34.60L71.79 34.44L66.23 34.48L66.28 34.52Q66.37 38.88 70.44 38.65L70.44 38.64L70.52 38.73Q74.20 38.45 75.42 36.62L75.52 36.73L75.52 36.72Q76.29 37.15 77.89 38.33L77.91 38.35L78.03 38.47Q76.62 40.83 72.47 41.10L72.49 41.12L72.37 41.00Q71.76 41.15 70.39 41.22ZM72.68 43.55L72.59 43.47L72.67 43.54Q73.83 43.56 75.05 43.64L75.03 43.62L75.00 43.58Q80.02 43.81 80.93 41.03L80.79 40.89L80.77 40.87Q79.20 39.68 78.10 38.92L78.20 39.02L78.20 39.02Q78.34 38.59 78.53 38.36L78.45 38.28L78.39 38.23Q77.77 37.86 76.40 36.91L76.41 36.92L76.39 36.91Q77.53 37.02 79.59 37.32L79.52 37.26L79.42 37.16Q79.35 35.91 79.27 35.22L79.37 35.32L79.05 33.21L79.15 33.31Q78.97 30.92 78.33 29.44L78.26 29.38L78.29 29.41Q78.04 29.08 77.47 28.47L77.59 28.59L77.60 28.60Q77.41 28.26 77.19 27.69L77.09 27.59L77.14 27.65Q75.15 25.50 70.08 25.50L70.25 25.67L68.56 25.66L68.46 25.55Q65.24 25.57 63.80 27.05L63.90 27.15L63.86 27.12Q63.02 28.07 63.06 30.13L63.25 30.31L63.14 30.20Q63.17 31.15 63.29 33.40L63.36 33.48L63.24 33.35Q63.38 35.01 63.50 37.07L63.47 37.05L63.61 37.19Q63.78 39.33 64.65 40.40L64.74 40.48L64.75 40.49Q64.78 40.53 64.97 40.64L65.03 40.70L65.25 41.26L65.25 41.26Q66.15 43.22 72.73 43.60ZM70.61 38.40L70.58 38.37L70.62 38.41Q69.38 38.43 68.47 37.97L68.44 37.95L68.48 37.98Q68.36 37.52 68.17 36.83L68.28 36.95L68.15 36.82Q69.79 36.66 71.39 36.66L71.56 36.83L71.41 36.69Q73.12 36.72 74.79 36.83L74.86 36.90L74.77 36.81Q73.55 38.22 70.54 38.33ZM72.23 31.03L72.09 30.89L72.08 30.88Q72.75 30.95 74.08 31.33L74.20 31.45L74.27 31.71L74.33 31.95L74.34 31.96Q73.00 32.11 72.09 32.07L72.05 32.04L72.03 32.02Q69.85 32.08 69.81 32.08L69.75 32.02L69.82 32.09Q70.56 31.15 72.23 31.04Z"/><path fill="#333" d="M120.20 29.76L120.13 29.70L120.14 29.71Q115.90 29.47 115.33 32.51L115.49 32.67L115.47 32.65Q115.14 33.58 115.33 34.46L115.46 34.58L115.49 34.61Q115.39 35.27 115.84 36.68L115.78 36.62L115.79 36.62Q116.98 39.91 120.29 39.75L120.22 39.68L120.26 39.73Q122.33 39.86 123.67 38.30L123.52 38.15L123.55 38.18Q124.76 36.68 124.76 34.63L124.86 34.73L124.82 34.69Q125.08 34.23 124.93 33.16L124.82 33.05L124.83 33.06Q124.81 32.21 124.40 31.53L124.25 31.38L124.39 31.52Q122.67 29.76 120.08 29.65ZM125.11 48.30L125.10 48.29L124.97 48.17Q123.08 48.67 115.01 49.05L115.00 49.05L115.11 49.15Q113.44 49.24 111.81 48.40L111.80 48.40L111.70 48.30Q112.71 47.52 114.54 45.73L114.37 45.56L114.36 45.55Q116.92 46.74 119.02 46.55L118.90 46.44L118.86 46.40Q121.83 46.21 122.67 45.94L122.58 45.85L122.60 45.87Q124.81 45.15 124.81 43.36L124.85 43.40L124.82 43.37Q124.96 43.28 124.88 43.05L124.84 43.01L124.79 41.47L124.79 41.47Q124.82 40.75 124.82 39.95L124.68 39.80L124.69 39.81Q123.44 42.18 120.05 42.18L120.03 42.16L119.92 42.05Q116.13 42.15 114.50 39.94L114.41 39.85L114.39 39.83Q113.28 38.30 112.48 33.89L112.60 34.01L112.50 33.90Q112.31 32.50 112.31 31.09L112.23 31.01L112.21 30.99Q112.27 29.26 113.19 28.27L113.20 28.28L113.25 28.34Q114.88 26.88 119.53 26.88L119.46 26.82L121.30 27.10L121.18 26.98Q124.41 27.35 125.74 29.29L125.76 29.31L125.70 29.26Q126.03 28.55 126.45 26.92L126.31 26.77L126.34 26.80Q128.28 26.53 130.03 25.81L129.86 25.64L130.01 25.80Q127.28 31.82 127.28 39.06L127.24 39.01L127.25 39.02Q127.25 41.69 127.63 44.31L127.63 44.32L127.59 44.27Q127.94 45.12 127.86 45.80L127.71 45.65L127.86 45.80Q127.50 47.00 126.28 47.77L126.44 47.92L126.43 47.91Q125.85 48.09 125.01 48.21ZM128.04 51.20L127.95 51.11L128.00 51.15Q129.47 51.21 130.23 50.26L130.16 50.19L130.28 50.32Q130.61 49.35 130.49 48.62L130.42 48.55L130.43 48.56Q130.40 48.00 130.21 47.23L130.16 47.18L130.17 47.20Q128.98 42.01 129.32 36.75L129.36 36.79L129.31 36.75Q129.64 31.28 131.77 26.45L131.70 26.38L129.70 27.43L129.58 27.31Q129.94 26.83 130.17 26.26L130.18 26.27L130.59 25.04L130.58 25.04Q128.28 26.05 126.07 26.47L126.15 26.54L125.99 26.38Q125.78 27.35 125.63 28.38L125.54 28.29L125.60 28.35Q123.38 26.32 119.34 26.32L119.40 26.38L117.61 26.34L117.63 26.36Q114.38 26.34 112.70 27.75L112.83 27.88L112.74 27.79Q111.90 28.85 111.94 30.76L111.82 30.63L111.84 30.65Q111.93 33.19 112.96 37.45L112.99 37.48L113.03 37.52Q113.51 39.45 114.73 40.85L114.58 40.71L115.00 41.12L115.04 41.16L115.10 41.22Q116.10 43.40 118.69 43.94L118.76 44.01L118.80 44.05Q120.20 44.35 121.65 44.38L121.61 44.34L121.70 44.43Q123.44 44.46 124.50 44.08L124.43 44.01L124.44 44.02Q123.79 45.54 121.13 45.88L121.13 45.88L121.20 45.96Q120.00 45.97 119.31 45.97L119.41 46.07L118.99 46.03L118.91 45.95Q116.15 46.01 114.48 45.06L114.43 45.01L112.84 46.84L112.76 46.76Q111.92 47.60 111.08 48.55L111.15 48.62L111.10 48.57Q112.19 49.20 113.18 49.39L113.20 49.42L112.16 50.13L112.17 50.14Q114.90 51.23 120.54 51.23L120.61 51.31L120.87 51.33L120.74 51.21Q124.47 51.32 128.05 51.21ZM121.99 31.97L122.04 32.03L122.00 31.98Q123.39 32.01 124.31 32.43L124.30 32.42L124.35 32.47Q124.40 32.82 124.47 33.51L124.53 33.56L124.47 33.50Q124.65 33.95 124.61 34.86L124.55 34.80L124.47 34.72Q124.39 36.62 123.29 37.92L123.40 38.03L123.38 38.01Q122.11 39.33 120.21 39.29L120.28 39.37L120.26 39.35Q118.78 39.23 117.94 38.82L117.96 38.84L118.05 38.93Q117.70 37.81 117.66 36.78L117.66 36.78L117.56 36.68Q117.53 32.42 122.13 32.12Z"/><path fill="#222" d="M43.06 40.27L43.12 40.33L43.15 40.36Q41.77 40.47 40.21 40.05L40.17 40.01L40.06 39.90Q38.89 39.04 38.74 37.40L38.87 37.53L38.69 37.36Q38.73 37.24 38.92 34.61L38.97 34.66L38.90 34.59Q39.93 34.41 41.95 34.03L41.98 34.06L41.89 34.92L41.72 34.75Q41.61 36.65 43.01 37.22L42.90 37.11L42.97 37.18Q43.79 37.54 45.88 37.54L45.91 37.56L45.81 37.47Q47.35 37.25 47.54 37.17L47.57 37.21L47.62 37.26Q48.59 37.17 49.32 36.67L49.20 36.56L49.22 36.58Q50.67 35.67 50.48 33.57L50.42 33.51L50.45 33.54Q50.32 31.17 48.59 29.60L48.46 29.47L48.51 29.53Q46.78 27.96 44.30 27.96L44.43 28.09L44.37 27.80L44.25 27.68Q44.76 27.77 45.63 27.69L45.52 27.58L45.65 27.71Q47.53 27.57 48.90 26.34L48.83 26.27L48.90 26.34Q50.17 25.00 50.32 23.14L50.30 23.11L50.46 23.27Q50.46 22.86 50.46 22.51L50.51 22.56L50.44 22.49Q50.52 21.05 49.15 20.14L49.10 20.09L49.15 20.14Q47.98 19.38 46.38 19.50L46.36 19.48L46.27 19.39Q44.89 19.15 43.68 19.57L43.86 19.76L43.87 19.77Q42.28 20.15 41.97 21.30L42.11 21.43L42.03 21.35Q41.79 22.07 41.87 22.83L41.98 22.94L41.87 22.83Q40.84 22.60 38.79 21.88L38.74 21.83L38.90 21.99Q38.61 20.26 38.65 19.42L38.58 19.35L38.64 19.41Q38.66 17.79 39.73 17.11L39.75 17.13L39.78 17.16Q41.30 16.66 42.90 16.66L42.75 16.52L42.90 16.67Q45.97 16.53 49.13 16.80L49.23 16.90L49.05 16.72Q54.19 17.22 53.89 20.99L53.93 21.04L53.97 21.08Q53.85 22.51 53.36 24.07L53.41 24.12L53.30 24.01Q52.46 27.17 50.10 28.09L49.96 27.95L50.05 28.04Q52.63 28.52 53.24 31.87L53.32 31.96L53.33 31.96Q53.46 33.01 53.54 35.03L53.57 35.06L53.69 35.19Q53.70 39.49 49.09 39.95L49.19 40.05L49.16 40.02Q48.32 39.98 43.03 40.24ZM48.25 42.50L48.27 42.51L48.39 42.64Q48.87 42.55 51.73 42.62L51.74 42.63L51.80 42.69Q53.60 42.82 55.23 42.17L55.23 42.17L55.15 42.09Q56.32 41.12 56.13 39.37L56.19 39.43L56.19 39.43Q56.01 38.04 55.71 36.29L55.79 36.37L55.74 36.32Q55.04 31.85 53.10 30.22L53.20 30.31L52.91 29.83L52.78 29.66L52.88 29.77Q54.55 28.24 55.31 23.86L55.36 23.91L55.40 23.95Q55.34 23.39 55.46 22.44L55.63 22.61L55.64 22.62Q55.66 21.81 55.58 21.12L55.50 21.04L55.46 21.00Q55.47 19.49 54.18 18.81L54.03 18.66L54.07 18.77L53.96 18.67Q53.73 17.75 52.59 17.22L52.53 17.16L52.51 17.14Q51.12 16.59 45.98 16.28L45.95 16.25L45.97 16.26Q44.30 16.20 42.70 16.20L42.57 16.07L42.65 16.15Q40.99 16.09 39.47 16.74L39.50 16.76L39.56 16.83Q38.31 17.55 38.31 19.31L38.35 19.34L38.38 19.38Q38.37 18.95 38.64 22.30L38.51 22.17L38.60 22.26Q38.85 22.29 40.49 22.90L40.52 22.92L40.51 22.91Q40.59 23.53 40.55 24.02L40.51 23.98L40.44 23.91Q40.46 24.43 40.50 24.96L40.55 25.01L40.51 24.97Q42.29 25.34 44.31 25.46L44.41 25.56L44.22 25.37Q44.20 23.41 45.30 22.57L45.32 22.59L45.37 22.63Q46.11 21.89 48.13 21.66L48.25 21.78L48.14 21.68Q49.25 21.64 49.82 21.83L49.86 21.87L49.89 21.90Q49.98 22.07 50.02 22.19L49.89 22.05L49.92 22.28L50.18 22.99L50.09 22.90Q50.03 23.03 49.99 23.18L49.96 23.15L50.12 23.31Q49.90 24.88 48.38 26.06L48.47 26.15L48.55 26.24Q47.53 27.04 45.51 27.23L45.45 27.17L45.50 27.22Q44.74 27.33 43.86 27.33L43.95 27.42L43.84 27.31Q43.93 27.71 44.09 28.39L44.10 28.40L44.21 28.52Q45.93 28.48 47.37 29.21L47.26 29.10L47.17 29.11L45.58 29.28L45.62 29.32Q45.78 29.78 45.89 30.39L45.84 30.34L45.84 30.34Q47.84 30.13 49.55 31.46L49.71 31.62L49.58 31.49Q49.96 32.02 50.27 33.66L50.21 33.61L50.22 33.61Q50.30 36.44 47.37 36.86L47.47 36.95L47.42 36.91Q45.35 37.20 44.78 37.16L44.70 37.08L44.83 37.21Q44.22 36.95 43.69 36.87L43.75 36.93L43.69 36.41L43.96 36.11L43.96 35.69L43.94 35.33L43.96 35.35Q42.94 35.36 42.14 35.55L42.14 35.54L42.22 35.62Q42.16 35.38 42.16 35.19L42.24 35.27L42.10 35.13Q42.19 34.99 42.19 34.76L42.25 34.82L42.29 34.86Q42.20 34.32 42.35 33.59L42.50 33.74L42.47 33.71Q40.55 33.88 38.68 34.22L38.66 34.20L38.66 34.20Q38.58 34.61 38.46 35.73L38.46 35.73L38.60 35.87Q38.49 37.00 38.49 37.61L38.35 37.47L38.49 37.60Q38.59 39.69 39.96 40.45L39.86 40.35L39.91 40.40Q41.43 42.72 46.15 42.53L46.16 42.54L46.15 42.53Q46.73 42.34 48.25 42.50Z"/></svg>