<svg xmlns="http://www.w3.org/2000/svg" width="150" height="50" viewBox="0,0,150,50"><path fill="#222" d="M52.17 40.93L52.21 40.97L52.13 40.89Q50.81 39.19 49.52 36.11L49.57 36.16L47.38 30.97L47.43 31.01Q45.78 34.97 45.17 36.26L45.28 36.36L45.23 36.31Q43.75 39.21 42.15 41.11L42.14 41.10L42.28 41.25Q41.81 41.15 41.05 41.27L41.01 41.23L41.13 41.35Q40.98 33.78 35.15 27.84L35.27 27.96L35.28 27.96Q33.44 26.04 31.42 24.56L31.44 24.58L31.49 24.63Q33.34 25.18 35.20 25.49L35.18 25.46L35.25 25.54Q41.16 30.34 42.61 36.59L42.68 36.66L42.67 36.65Q43.71 34.94 44.89 31.75L44.88 31.74L44.83 31.69Q46.10 27.85 46.67 26.56L46.78 26.67L48.05 26.53L48.15 26.63Q49.05 28.37 50.23 31.65L50.20 31.62L50.10 31.51Q51.42 35.15 52.06 36.56L52.15 36.65L52.13 36.62Q53.85 30.24 59.33 25.67L59.32 25.66L59.49 25.83Q60.57 25.62 63.31 25.05L63.36 25.09L63.33 25.07Q54.80 31.19 53.62 41.16L53.47 41.02L52.89 40.96L52.86 40.94Q52.60 40.98 52.26 41.02ZM55.15 43.38L57.31 43.67L57.27 43.63Q56.92 42.06 56.92 40.54L56.82 40.44L56.96 40.58Q56.93 37.32 58.34 34.08L58.23 33.97L58.23 33.97Q60.31 29.54 64.42 26.46L64.38 26.42L64.41 26.45Q63.13 26.65 61.27 27.00L61.28 27.01L61.26 26.99Q63.29 25.40 64.58 24.49L64.69 24.59L61.99 24.86L62.07 24.95Q60.94 25.27 59.61 25.42L59.59 25.39L59.58 25.39Q54.36 29.57 52.42 34.59L52.47 34.65L52.44 34.62Q51.85 32.50 50.48 28.24L50.31 28.07L50.39 28.15Q50.02 28.12 49.75 28.12L49.92 28.29L49.30 28.20L49.26 28.17Q49.23 27.94 48.43 26.19L48.34 26.10L46.28 26.09L46.42 26.24Q45.33 28.92 43.24 34.55L43.33 34.64L43.28 34.60Q41.88 30.83 38.80 27.56L38.79 27.56L38.80 27.56Q38.69 27.72 38.38 27.68L38.27 27.56L37.71 27.46L37.64 27.39Q36.95 26.74 35.16 25.14L35.12 25.11L35.18 25.16Q31.95 24.44 30.27 23.95L30.30 23.97L30.23 23.90Q41.07 31.47 40.69 41.79L40.65 41.75L40.65 41.75Q40.90 41.80 41.26 41.76L41.18 41.69L41.20 41.70Q41.44 41.55 41.63 41.55L41.63 41.54L41.63 41.55Q41.76 41.52 41.95 43.62L41.98 43.65L43.91 43.48L43.85 43.42Q46.46 40.63 48.71 34.88L48.65 34.82L48.68 34.86Q50.22 38.75 52.08 41.42L52.06 41.39L52.07 41.40Q52.32 41.31 52.59 41.33L52.61 41.36L52.53 41.27Q52.96 41.46 53.23 41.46L53.06 41.29L55.21 43.44Z"/><path fill="#111" d="M129.00 40.34L129.08 40.41L128.99 40.33Q126.05 36.47 123.42 27.83L123.55 27.95L123.38 27.79Q122.82 25.75 122.02 23.61L121.87 23.46L119.09 32.33L119.14 32.38Q117.25 37.23 114.85 40.46L114.81 40.42L114.87 40.48Q114.07 40.59 112.43 40.74L112.43 40.75L112.46 40.77Q112.55 39.57 112.55 38.31L112.52 38.29L112.58 38.34Q112.49 32.24 109.75 26.11L109.76 26.12L109.72 26.08Q106.57 19.17 100.71 14.18L100.74 14.21L100.79 14.26Q102.96 14.99 105.33 15.52L105.32 15.52L105.37 15.57Q113.92 23.89 115.21 34.85L115.17 34.81L115.22 34.85Q116.93 31.61 118.37 26.25L118.32 26.19L118.26 26.13Q120.25 18.64 120.74 17.23L120.74 17.23L123.14 17.38L122.97 17.21Q123.77 19.35 124.42 21.67L124.49 21.74L125.60 26.04L125.70 26.15Q127.23 31.56 128.64 34.79L128.64 34.80L128.56 34.72Q130.37 23.24 138.29 15.90L138.28 15.89L138.28 15.89Q139.68 15.42 142.65 14.77L142.78 14.90L142.65 14.78Q137.30 19.06 134.26 25.19L134.31 25.24L134.26 25.19Q131.26 31.52 131.26 38.30L131.25 38.28L131.34 38.38Q131.23 39.37 131.31 40.51L131.36 40.57L130.17 40.40L130.22 40.45Q129.70 40.47 129.13 40.47ZM135.35 43.34L135.36 43.35L135.19 43.18Q134.09 39.76 134.21 35.87L134.17 35.83L134.15 35.82Q134.45 24.24 143.82 15.98L143.87 16.03L143.76 15.92Q142.91 16.26 140.97 16.79L140.87 16.69L141.05 16.87Q141.97 16.00 143.87 14.21L143.75 14.09L143.83 14.17Q141.17 14.94 138.24 15.43L138.29 15.48L138.31 15.50Q130.63 22.44 128.73 31.92L128.73 31.92L128.85 32.04Q128.31 30.43 125.45 18.97L125.40 18.92L125.42 18.94Q125.05 19.06 124.10 19.06L123.94 18.91L123.71 17.92L123.67 17.87Q123.54 17.32 123.31 16.83L123.37 16.89L120.44 16.85L120.48 16.90Q119.70 19.38 118.42 24.50L118.37 24.45L118.34 24.43Q117.08 29.56 116.09 32.04L116.12 32.06L116.04 31.99Q114.56 24.19 109.01 17.87L108.96 17.82L108.92 17.78Q108.40 17.69 107.45 17.50L107.59 17.63L107.58 17.62Q106.86 16.79 105.30 15.16L105.32 15.17L105.27 15.12Q101.83 14.27 99.66 13.47L99.78 13.59L99.67 13.48Q105.43 18.25 108.71 24.46L108.55 24.30L108.55 24.31Q112.16 31.07 112.16 38.08L112.00 37.92L112.01 37.93Q112.16 39.64 111.97 41.24L111.89 41.15L111.85 41.12Q112.06 41.10 112.52 41.01L112.58 41.06L112.55 41.04Q113.12 41.05 113.35 41.05L113.30 41.00L113.19 41.92L113.24 41.97Q113.28 42.47 113.36 43.00L113.30 42.94L113.29 42.94Q114.52 42.94 116.80 42.79L116.86 42.86L116.82 42.82Q120.49 37.46 123.23 28.06L123.10 27.93L123.15 27.97Q126.00 36.84 128.97 40.80L128.92 40.75L128.86 40.69Q129.35 40.72 130.18 40.83L130.26 40.91L130.21 40.86Q131.03 41.87 132.10 42.94L132.22 43.06L132.10 42.94Q132.84 42.96 135.24 43.22Z"/><path fill="#333" d="M101.46 40.89L101.54 40.97L101.46 40.89Q100.18 39.23 98.89 36.15L98.90 36.16L96.81 31.06L96.87 31.12Q95.16 35.01 94.56 36.31L94.56 36.31L94.53 36.28Q93.06 39.19 91.46 41.09L91.57 41.21L91.48 41.11Q91.12 41.14 90.36 41.25L90.37 41.26L90.40 41.28Q90.46 33.92 84.63 27.98L84.57 27.92L84.49 27.84Q82.81 26.08 80.79 24.60L80.81 24.62L80.77 24.58Q82.63 25.15 84.50 25.45L84.60 25.55L84.50 25.45Q90.64 30.49 92.09 36.73L92.14 36.78L92.04 36.69Q93.03 34.93 94.21 31.73L94.06 31.59L94.08 31.60Q95.53 27.95 96.10 26.66L96.02 26.58L97.45 26.60L97.43 26.58Q98.39 28.38 99.57 31.66L99.42 31.50L99.47 31.55Q100.74 35.15 101.39 36.56L101.45 36.61L101.54 36.71Q103.35 30.41 108.84 25.84L108.83 25.83L108.78 25.78Q109.96 25.67 112.70 25.10L112.81 25.21L112.66 25.06Q104.13 31.19 102.95 41.16L102.86 41.07L102.20 40.95L102.18 40.92Q101.78 40.83 101.44 40.87ZM104.52 43.42L106.50 43.53L106.58 43.61Q106.15 41.96 106.15 40.44L106.18 40.47L106.23 40.52Q106.29 37.35 107.70 34.11L107.63 34.04L107.68 34.09Q109.54 29.44 113.66 26.36L113.70 26.40L113.75 26.45Q112.49 26.68 110.63 27.02L110.58 26.98L110.70 27.09Q112.62 25.40 113.92 24.49L113.90 24.47L111.41 24.95L111.32 24.87Q110.16 25.15 108.83 25.30L108.81 25.28L108.84 25.32Q103.70 29.58 101.76 34.60L101.73 34.57L101.74 34.59Q101.16 32.48 99.79 28.22L99.75 28.17L99.72 28.15Q99.43 28.20 99.17 28.20L99.08 28.12L98.67 28.24L98.68 28.25Q98.54 27.92 97.74 26.17L97.65 26.07L95.60 26.08L95.61 26.09Q94.69 28.94 92.59 34.57L92.52 34.50L92.62 34.60Q91.36 30.98 88.28 27.71L88.27 27.70L88.18 27.61Q87.83 27.53 87.53 27.49L87.56 27.53L87.02 27.43L86.98 27.39Q86.28 26.74 84.49 25.14L84.43 25.08L84.48 25.13Q81.29 24.45 79.62 23.96L79.52 23.86L79.63 23.97Q90.42 31.48 90.04 41.80L89.92 41.68L89.94 41.70Q90.16 41.74 90.53 41.70L90.50 41.67L90.58 41.75Q90.85 41.62 91.04 41.62L91.05 41.64L91.00 41.58Q91.07 41.50 91.26 43.60L91.19 43.52L93.28 43.52L93.28 43.52Q95.83 40.67 98.08 34.92L98.02 34.86L98.06 34.90Q99.45 38.65 101.32 41.32L101.42 41.42L101.32 41.32Q101.63 41.28 101.89 41.30L101.89 41.30L101.91 41.32Q102.12 41.28 102.39 41.28L102.53 41.43L104.46 43.35Z"/><path fill="#333" d="M74.00 39.83L74.06 39.89L73.92 39.75Q72.11 39.84 70.10 40.04L70.11 40.05L70.14 40.08Q70.78 34.82 70.78 29.98L70.78 29.98L70.67 29.87Q70.66 24.95 70.01 19.74L70.01 19.73L70.00 19.73Q65.52 19.43 62.32 17.76L62.37 17.80L61.50 15.91L61.64 16.05Q61.33 15.43 60.72 14.21L60.86 14.35L60.78 14.27Q65.91 17.01 71.93 17.20L71.80 17.07L71.87 17.14Q77.68 17.24 83.13 15.19L83.14 15.20L83.19 15.25Q82.38 16.57 81.73 18.40L81.76 18.43L81.82 18.48Q78.13 19.71 73.87 19.90L73.95 19.98L73.99 20.02Q73.65 24.90 73.65 29.85L73.76 29.96L73.81 30.01Q73.63 34.78 73.94 39.76ZM83.84 14.53L83.88 14.57L83.92 14.61Q78.10 16.89 71.89 16.70L71.84 16.65L71.80 16.61Q65.06 16.35 59.96 13.38L59.97 13.39L59.99 13.41Q60.90 14.85 62.20 18.13L62.10 18.03L62.11 18.04Q62.77 18.36 64.03 18.93L64.04 18.94L63.96 18.86Q64.20 19.55 64.54 21.08L64.64 21.18L64.52 21.06Q66.83 21.93 69.88 22.16L69.93 22.21L69.89 22.17Q70.24 25.83 70.24 29.60L70.30 29.65L70.29 29.64Q70.23 34.96 69.43 40.33L69.60 40.49L69.53 40.42Q71.15 40.25 71.68 40.25L71.66 40.23L71.82 40.39Q71.76 40.63 71.70 41.30L71.59 41.19L71.63 41.23Q71.58 41.90 71.58 42.24L71.61 42.28L71.53 42.20Q72.70 42.11 74.22 42.18L74.38 42.34L74.23 42.19Q75.24 42.32 77.06 42.47L77.13 42.54L77.09 42.50Q75.91 37.63 75.80 32.45L75.68 32.33L75.83 32.48Q75.58 27.06 76.12 22.15L76.21 22.24L76.02 22.05Q80.06 21.60 83.22 20.38L83.16 20.32L83.20 20.36Q83.89 17.96 84.91 15.91L84.91 15.91L85.00 16.00Q83.63 16.64 82.83 16.95L82.89 17.01L82.85 16.97Q83.30 15.70 83.87 14.56Z"/><path fill="#222" d="M29.69 37.92L29.68 37.91L29.75 37.99Q29.95 38.87 30.48 40.88L30.41 40.81L30.48 40.88Q26.35 39.65 21.75 39.92L21.59 39.76L21.71 39.88Q17.20 40.20 13.20 42.18L13.14 42.12L13.08 42.06Q13.42 41.48 13.45 41.56L13.33 41.44L13.28 41.39Q17.05 37.47 20.97 33.05L21.04 33.12L20.94 33.02Q25.38 28.06 26.56 23.37L26.69 23.50L26.71 23.52Q27.03 21.63 25.75 20.45L25.77 20.47L25.81 20.51Q24.62 19.42 22.83 19.57L22.83 19.57L22.69 19.43Q22.37 19.41 22.03 19.41L22.10 19.48L22.03 19.41Q20.60 19.50 19.34 20.42L19.33 20.40L19.24 20.32Q17.94 21.68 18.17 24.34L18.20 24.38L18.28 24.46Q16.43 24.05 15.21 23.60L15.31 23.69L15.11 23.49Q15.02 22.19 14.95 20.74L14.84 20.64L14.93 20.72Q14.79 19.03 15.40 17.89L15.56 18.05L15.42 17.90Q17.21 16.54 20.56 16.54L20.65 16.62L22.28 16.50L22.40 16.62Q24.68 16.66 25.63 16.77L25.57 16.71L25.55 16.69Q29.90 17.12 30.17 19.55L30.20 19.58L30.11 19.50Q30.23 20.11 30.15 20.91L30.17 20.93L30.30 21.06Q30.07 21.52 29.92 22.20L30.03 22.31L30.11 22.39Q28.32 30.35 20.75 37.20L20.86 37.32L20.82 37.28Q22.18 37.07 23.55 37.07L23.63 37.16L23.56 37.08Q26.73 37.02 29.58 37.82ZM29.15 17.13L29.04 17.02L29.05 17.03Q27.48 16.42 25.77 16.34L25.87 16.43L22.44 16.25L22.38 16.18Q17.88 15.87 15.67 16.98L15.76 17.06L15.78 17.08Q14.65 18.39 14.65 20.45L14.55 20.34L14.69 20.49Q14.63 21.11 14.93 23.93L14.95 23.95L14.93 23.92Q15.41 24.10 16.59 24.41L16.72 24.53L16.76 25.60L16.77 25.61Q16.74 26.07 16.81 26.61L16.82 26.61L16.63 26.43Q17.92 26.57 20.40 26.80L20.55 26.96L20.46 26.86Q20.46 26.53 20.46 26.18L20.35 26.07L20.39 26.11Q20.34 24.24 21.56 22.88L21.73 23.06L21.58 22.90Q22.88 21.63 24.67 21.74L24.63 21.71L24.60 21.68Q25.31 21.67 26.07 21.82L26.21 21.95L26.27 22.01Q26.23 22.25 26.31 22.67L26.46 22.81L26.29 22.65Q26.50 23.23 26.42 23.58L26.25 23.41L26.23 23.39Q25.14 28.30 20.72 33.14L20.58 33.00L20.66 33.08Q18.57 35.37 13.13 41.42L13.11 41.41L12.98 41.27Q12.87 42.20 12.53 42.77L12.50 42.74L12.60 42.84Q14.06 41.82 15.58 41.29L15.66 41.37L15.76 41.46Q15.00 42.00 14.05 43.49L14.06 43.50L13.92 43.35Q13.89 43.79 13.78 44.13L13.83 44.18L13.71 44.06Q18.66 42.08 24.14 42.27L24.11 42.24L24.18 42.31Q29.79 42.40 34.35 44.76L34.27 44.67L33.37 42.63L33.35 42.61Q32.75 41.33 32.48 40.53L32.37 40.41L32.48 40.53Q31.72 40.07 30.50 39.65L30.56 39.71L30.46 39.61Q30.39 38.96 30.01 37.59L30.05 37.63L29.94 37.53Q27.68 36.90 25.39 36.71L25.48 36.80L25.57 36.88Q30.14 32.20 31.66 23.94L31.74 24.02L31.87 21.06L31.88 21.07Q31.77 19.26 30.55 18.57L30.67 18.68L30.53 18.59L30.49 18.55Q30.59 18.60 30.51 18.60L30.40 18.50L30.48 18.58Q30.16 17.64 29.06 17.04Z"/></svg>