<svg xmlns="http://www.w3.org/2000/svg" width="150" height="50" viewBox="0,0,150,50"><path fill="#222" d="M89.01 41.06L88.98 41.03L89.07 41.12Q92.17 36.80 98.87 28.88L98.96 28.97L99.00 29.01Q92.94 29.08 89.17 27.71L89.34 27.88L89.31 27.84Q88.60 26.38 87.84 24.97L87.71 24.83L87.83 24.96Q91.90 26.44 96.35 26.47L96.41 26.53L96.27 26.39Q100.82 26.53 105.01 25.46L105.05 25.50L105.00 25.46Q104.50 26.02 104.23 26.55L104.42 26.73L104.29 26.60Q101.79 28.87 98.98 32.49L98.97 32.48L94.00 38.63L94.00 38.62Q96.33 38.52 98.58 38.60L98.56 38.58L98.51 38.53Q100.66 38.55 102.91 38.93L102.93 38.95L102.93 38.96Q103.12 39.60 103.84 41.62L103.88 41.66L103.90 41.68Q100.17 40.84 96.18 40.95L96.08 40.86L96.11 40.88Q92.14 40.99 88.49 42.17L88.61 42.30L88.50 42.18Q88.52 41.98 88.98 41.03ZM88.01 42.87L87.95 42.82L87.92 42.79Q88.73 42.49 90.33 42.08L90.45 42.19L90.28 42.03Q90.10 42.30 89.68 42.72L89.65 42.69L89.69 42.73Q89.49 43.32 88.88 44.47L88.81 44.39L88.73 44.32Q93.48 43.02 98.47 43.17L98.51 43.21L98.54 43.24Q103.54 43.44 108.10 45.31L107.95 45.16L108.02 45.23Q106.54 43.32 105.63 41.27L105.64 41.28L105.64 41.28Q104.97 41.07 103.91 40.84L103.88 40.81L103.94 40.87Q103.66 40.06 103.28 38.61L103.23 38.57L103.35 38.69Q101.81 38.37 98.24 38.26L98.19 38.21L98.28 38.30Q100.62 34.93 105.64 28.57L105.54 28.46L105.51 28.43Q105.79 27.73 106.48 26.40L106.53 26.45L104.34 27.30L104.27 27.23Q104.30 27.12 104.46 27.00L104.37 26.92L104.63 26.79L104.76 26.92Q105.10 25.74 105.67 24.79L105.73 24.85L105.64 24.75Q101.04 26.17 96.32 26.10L96.30 26.08L96.38 26.16Q91.58 26.08 87.09 24.25L87.01 24.18L87.13 24.30Q88.16 26.01 88.96 28.06L88.95 28.06L88.96 28.07Q89.85 28.42 90.91 28.69L91.00 28.77L91.00 28.77Q91.12 29.39 91.43 30.84L91.36 30.77L91.38 30.79Q92.96 31.04 96.27 31.19L96.37 31.29L96.25 31.17Q93.86 34.49 88.68 40.92L88.69 40.93L88.71 40.95Q88.56 41.64 87.99 42.86Z"/><path fill="#222" d="M79.68 40.34L79.67 40.34L79.64 40.31Q76.66 36.42 74.04 27.78L74.05 27.79L74.09 27.84Q73.40 25.65 72.60 23.52L72.58 23.50L69.79 32.36L69.87 32.45Q67.91 37.22 65.51 40.45L65.63 40.57L65.60 40.54Q64.65 40.51 63.01 40.66L63.06 40.71L63.02 40.67Q63.25 39.61 63.25 38.35L63.17 38.27L63.13 38.23Q63.13 32.21 60.39 26.08L60.39 26.08L60.45 26.15Q57.26 19.19 51.40 14.20L51.53 14.33L51.56 14.36Q53.57 14.93 55.93 15.46L56.05 15.58L55.87 15.39Q64.72 24.02 66.01 34.98L65.95 34.92L66.00 34.97Q67.64 31.66 69.09 26.29L69.01 26.21L69.03 26.24Q71.04 18.76 71.53 17.35L71.45 17.27L73.79 17.36L73.78 17.36Q74.38 19.29 75.02 21.61L75.17 21.76L76.33 26.11L76.41 26.19Q77.79 31.45 79.20 34.69L79.34 34.83L79.38 34.87Q80.94 23.14 88.86 15.80L88.79 15.73L88.95 15.89Q90.48 15.55 93.45 14.91L93.36 14.82L93.47 14.93Q88.03 19.12 84.99 25.25L84.92 25.18L84.91 25.17Q82.02 31.61 82.02 38.39L82.01 38.37L82.00 38.37Q82.02 39.49 82.09 40.63L82.08 40.61L80.76 40.33L80.84 40.40Q80.19 40.29 79.62 40.29ZM85.86 43.18L85.91 43.22L85.96 43.28Q84.69 39.69 84.80 35.80L84.79 35.79L84.87 35.87Q85.10 24.22 94.47 15.96L94.45 15.95L94.47 15.97Q93.54 16.21 91.60 16.75L91.56 16.71L91.64 16.79Q92.62 15.99 94.53 14.20L94.42 14.09L94.46 14.12Q91.86 14.96 88.93 15.45L88.90 15.43L88.87 15.39Q81.41 22.55 79.50 32.03L79.41 31.93L79.55 32.07Q78.81 30.27 75.96 18.81L75.97 18.82L76.03 18.88Q75.59 18.94 74.64 18.94L74.60 18.90L74.44 17.98L74.41 17.95Q74.22 17.34 73.99 16.85L74.05 16.90L71.06 16.81L71.19 16.93Q70.38 19.40 69.10 24.52L69.06 24.47L68.99 24.40Q67.70 29.52 66.71 31.99L66.79 32.06L66.84 32.12Q65.21 24.17 59.66 17.85L59.73 17.92L59.73 17.93Q59.11 17.73 58.16 17.54L58.13 17.51L58.21 17.58Q57.48 16.74 55.91 15.10L55.88 15.06L55.87 15.05Q52.61 14.38 50.44 13.58L50.42 13.56L50.40 13.54Q55.97 18.12 59.24 24.33L59.34 24.42L59.33 24.42Q62.86 31.11 62.86 38.11L62.77 38.02L62.84 38.09Q62.80 39.61 62.61 41.21L62.60 41.20L62.56 41.16Q62.74 41.11 63.20 41.02L63.19 41.01L63.30 41.12Q63.66 40.93 63.89 40.93L63.96 41.00L63.90 41.97L64.02 42.08Q64.01 42.53 64.08 43.07L64.10 43.08L64.02 43.00Q65.13 42.89 67.41 42.74L67.42 42.75L67.38 42.71Q71.15 37.45 73.89 28.05L73.73 27.89L73.83 27.99Q76.60 36.78 79.57 40.74L79.54 40.71L79.62 40.78Q80.07 40.78 80.91 40.89L80.90 40.88L80.86 40.85Q81.78 41.95 82.84 43.02L82.78 42.95L82.71 42.89Q83.47 42.93 85.87 43.19Z"/><path fill="#111" d="M21.51 40.25L21.54 40.28L21.40 40.14Q18.01 40.33 16.37 39.79L16.47 39.90L16.33 39.75Q14.40 39.16 14.10 35.77L14.07 35.74L15.45 34.61L15.56 34.72Q16.33 34.24 17.10 33.74L17.00 33.65L16.95 33.60Q16.79 35.61 18.39 36.82L18.36 36.80L18.38 36.82Q19.67 37.84 21.80 37.65L21.87 37.72L21.85 37.70Q26.22 37.27 26.03 33.73L25.89 33.59L26.05 33.75Q25.91 31.52 23.29 30.30L23.30 30.31L23.10 30.12Q20.38 29.18 18.02 27.96L17.96 27.91L17.98 27.93Q15.51 26.67 14.52 21.99L14.51 21.99L14.44 21.91Q14.42 21.55 14.31 20.79L14.29 20.77L14.14 20.62Q14.08 19.88 14.16 19.31L14.25 19.40L14.25 19.40Q14.41 17.80 15.66 17.35L15.55 17.23L15.65 17.33Q18.08 16.49 22.07 16.68L21.93 16.53L21.94 16.54Q23.77 16.66 24.57 16.74L24.74 16.91L24.66 16.83Q26.23 17.10 27.30 17.56L27.25 17.52L27.19 17.45Q29.29 17.92 29.52 20.39L29.56 20.43L29.62 20.49Q28.40 21.02 26.19 22.36L26.34 22.51L26.34 22.51Q25.78 19.36 21.40 19.36L21.58 19.53L21.48 19.43Q19.49 19.35 18.51 20.04L18.67 20.21L18.68 20.21Q17.41 20.61 17.63 22.40L17.67 22.44L17.61 22.38Q17.91 24.62 20.88 26.14L20.82 26.08L20.81 26.07Q21.42 26.38 25.91 28.02L25.86 27.96L25.82 27.92Q28.55 29.51 28.97 33.89L28.97 33.89L29.04 33.96Q28.94 34.01 29.02 35.27L29.05 35.30L28.99 35.24Q29.04 38.00 27.48 39.10L27.45 39.07L27.47 39.09Q25.70 40.14 21.52 40.26ZM23.85 42.67L23.91 42.72L23.85 42.67Q25.29 42.74 27.27 42.74L27.24 42.71L27.30 42.77Q29.42 42.79 30.67 42.37L30.62 42.31L30.58 42.28Q31.81 41.46 31.74 39.67L31.66 39.59L31.81 39.74Q31.68 38.66 31.30 36.60L31.37 36.68L31.33 36.63Q30.33 31.86 28.23 29.99L28.27 30.03L28.36 30.13Q27.54 28.50 26.21 27.78L26.26 27.83L20.88 25.68L20.93 25.74Q20.49 25.45 20.03 25.22L20.12 25.31L20.00 24.92L20.01 24.59L20.01 24.59Q19.89 23.21 21.03 22.60L20.94 22.51L20.98 22.55Q21.76 22.00 23.47 21.81L23.52 21.86L23.50 21.84Q24.58 21.66 25.72 22.11L25.67 22.07L25.74 22.13Q25.78 22.21 25.97 23.04L25.94 23.02L26.05 23.13Q26.15 22.89 26.65 22.66L26.65 22.66L26.60 22.61Q27.45 23.65 27.56 24.79L27.55 24.78L27.55 24.78Q27.66 24.78 31.32 22.19L31.31 22.19L31.14 22.01Q31.03 19.55 29.59 18.86L29.60 18.88L29.58 18.86Q28.96 17.55 27.52 17.02L27.52 17.02L27.51 17.01Q25.27 16.26 22.07 16.26L22.06 16.25L22.01 16.20Q17.16 16.25 15.29 16.94L15.16 16.81L15.24 16.89Q13.96 17.40 13.85 19.07L13.73 18.96L13.80 19.02Q13.83 19.63 14.25 21.84L14.16 21.74L14.17 21.76Q14.91 25.57 17.08 27.82L16.99 27.74L17.02 27.77Q17.93 29.59 19.44 30.28L19.39 30.23L19.25 30.10Q20.90 30.93 24.83 32.49L24.68 32.34L24.69 32.39L25.40 32.80L25.50 32.93L25.50 32.94Q25.56 33.26 25.60 33.60L25.64 33.64L25.56 33.56Q25.81 37.20 21.89 37.35L21.82 37.29L21.89 37.35Q20.64 37.29 19.35 36.91L19.34 36.90L19.31 36.87Q19.09 36.16 19.09 35.43L19.07 35.41L19.00 35.34Q19.09 35.16 19.12 34.90L19.10 34.87L19.03 34.80Q18.66 35.08 17.86 35.58L17.84 35.55L17.84 35.55Q17.35 34.45 17.50 33.08L17.49 33.07L17.49 33.07Q15.45 34.30 13.85 35.71L13.79 35.65L13.82 35.69Q13.89 36.51 13.97 37.54L13.94 37.52L13.92 37.49Q14.29 39.27 15.58 40.03L15.49 39.94L15.46 39.91Q16.72 41.77 19.27 42.16L19.24 42.13L19.31 42.20Q20.84 42.40 23.77 42.59Z"/><path fill="#333" d="M55.08 30.29L55.17 30.38L55.22 30.43Q55.25 29.96 55.21 29.54L55.18 29.51L55.33 29.67Q55.03 29.06 54.73 28.87L54.75 28.89L54.87 29.02Q54.06 28.36 53.18 28.51L53.17 28.49L53.29 28.62Q52.15 28.54 50.52 29.65L50.45 29.58L50.53 29.66Q49.20 30.65 49.20 31.83L49.19 31.82L49.18 31.82Q49.13 33.02 49.13 36.33L49.12 36.32L49.03 36.24Q49.11 38.90 49.27 40.92L49.27 40.93L49.12 40.78Q47.42 40.79 47.42 40.79L47.49 40.86L47.51 40.88Q46.54 40.86 45.81 40.93L45.85 40.97L45.87 40.99Q46.25 38.44 46.32 36.19L46.20 36.06L46.32 36.19Q46.52 31.59 45.88 30.30L45.71 30.13L45.86 30.29Q45.60 29.72 45.03 29.42L44.98 29.36L44.87 29.26Q44.03 28.53 42.47 28.41L42.57 28.51L42.48 28.42Q40.46 28.20 39.93 29.79L40.00 29.87L39.91 29.78Q39.84 30.36 39.96 30.85L40.02 30.92L39.89 30.79Q40.57 33.56 40.23 36.33L40.22 36.33L40.35 36.46Q39.97 39.20 38.56 41.64L38.58 41.65L38.62 41.70Q37.50 41.75 35.40 42.17L35.49 42.26L35.41 42.18Q38.04 39.06 38.04 34.76L37.97 34.68L37.88 34.59Q37.92 28.77 33.88 24.55L34.01 24.68L34.00 24.66Q34.77 24.98 35.72 25.21L35.64 25.13L37.34 25.50L37.39 25.55Q37.87 26.17 38.74 27.85L38.72 27.83L38.67 27.78Q38.78 25.83 41.22 25.79L41.34 25.92L41.40 25.97Q41.52 25.91 42.51 25.99L42.35 25.82L42.43 25.90Q47.44 26.22 48.58 29.04L48.64 29.11L48.56 29.02Q50.29 26.38 55.32 25.85L55.31 25.83L55.39 25.91Q56.06 25.71 56.93 25.82L56.93 25.82L56.91 25.80Q59.15 26.02 59.00 27.58L58.99 27.57L59.07 27.65Q58.88 28.19 58.61 28.95L58.63 28.97L58.75 29.09Q57.31 32.06 57.54 35.60L57.44 35.50L57.56 35.63Q57.74 39.08 59.65 41.90L59.53 41.78L59.67 41.92Q57.80 41.39 55.97 41.16L56.01 41.19L56.09 41.27Q54.80 38.65 54.61 35.87L54.60 35.86L54.62 35.88Q54.56 33.16 55.21 30.42ZM55.87 41.66L55.88 41.68L55.81 41.60Q56.58 41.73 57.91 41.92L57.98 41.98L57.96 41.96Q58.39 42.59 59.54 44.00L59.60 44.06L59.55 44.01Q62.43 44.53 64.52 45.18L64.69 45.34L64.55 45.20Q59.51 41.26 59.24 34.75L59.40 34.91L59.23 34.75Q59.27 32.77 59.88 30.86L59.84 30.83L59.88 30.87Q60.11 29.99 60.11 29.27L60.05 29.21L60.02 29.18Q60.00 28.24 59.39 27.67L59.52 27.81L59.39 27.63L59.33 27.57Q59.57 27.24 59.49 26.74L59.48 26.74L59.39 26.65Q59.31 26.15 58.86 25.88L58.87 25.90L58.82 25.85Q58.13 25.35 57.26 25.31L57.19 25.24L57.22 25.27Q54.54 25.33 51.87 26.28L51.90 26.31L51.86 26.27Q49.89 26.97 48.71 28.38L48.61 28.27L48.56 28.22Q47.06 25.81 42.22 25.46L42.16 25.40L42.19 25.44Q41.58 25.47 41.17 25.47L41.11 25.42L41.23 25.54Q39.07 25.43 38.46 26.69L38.57 26.80L38.54 26.77Q38.09 26.13 37.40 25.06L37.57 25.23L37.46 25.11Q35.10 24.70 33.12 24.05L33.13 24.06L32.94 23.87Q37.61 28.28 37.61 34.56L37.63 34.58L37.75 34.70Q37.78 39.45 34.92 42.91L34.89 42.87L34.85 42.84Q35.38 42.76 35.88 42.69L35.81 42.62L36.72 42.38L36.80 42.46Q36.07 43.49 34.97 44.71L35.03 44.77L34.88 44.62Q36.67 44.47 39.79 43.86L39.72 43.79L39.76 43.82Q42.37 39.66 42.37 34.75L42.31 34.69L42.45 34.83Q42.32 33.90 42.24 33.06L42.21 33.03L42.31 33.13Q42.18 32.31 43.17 31.51L43.25 31.60L43.30 31.68L43.28 31.67Q43.84 31.15 45.02 31.04L44.88 30.90L44.87 30.89Q45.46 31.06 45.76 31.06L45.72 31.02L45.74 31.23L45.85 31.33Q46.13 34.05 46.02 36.42L45.90 36.30L46.04 36.44Q45.90 38.70 45.41 41.37L45.36 41.32L45.28 41.24Q46.44 41.37 46.44 41.37L46.33 41.26L46.34 41.27Q47.81 41.29 47.47 41.29L47.50 41.33L47.43 41.26Q47.44 41.76 47.40 42.22L47.49 42.31L47.48 42.30Q47.32 42.63 47.32 43.12L47.35 43.16L49.94 43.27L49.80 43.13Q51.17 43.25 52.43 43.33L52.28 43.18L52.29 43.18Q50.79 39.52 50.98 33.58L51.10 33.70L51.00 33.60Q51.16 32.62 52.34 31.86L52.19 31.71L52.24 31.75Q53.20 30.99 54.45 30.80L54.46 30.81L54.71 30.76L54.67 30.71Q54.35 32.75 54.35 34.73L54.40 34.79L54.38 34.77Q54.34 38.49 55.86 41.65ZM50.39 30.17L50.47 30.02L50.36 30.26L50.33 30.11Z"/><path fill="#444" d="M122.77 32.07L113.56 22.10L113.59 22.13Q114.50 25.89 114.50 29.62L114.47 29.59L114.43 29.55Q114.46 35.56 112.41 41.12L112.42 41.13L112.36 41.08Q111.41 41.46 109.16 42.22L109.17 42.22L109.03 42.08Q111.81 36.27 111.81 29.56L111.87 29.63L111.99 29.74Q111.83 20.94 107.34 13.51L107.33 13.51L107.42 13.60Q107.90 13.81 108.59 14.23L108.49 14.14L108.50 14.15Q120.68 25.45 128.52 34.70L128.52 34.69L128.53 34.71Q128.15 32.19 128.15 29.76L128.23 29.84L128.08 29.69Q128.14 22.52 130.65 16.31L130.60 16.26L130.74 16.39Q132.99 15.79 134.59 15.11L134.57 15.09L134.64 15.16Q131.25 21.25 130.94 28.40L130.97 28.43L130.95 28.41Q130.57 35.68 133.54 41.85L133.55 41.86L133.60 41.91Q133.01 41.81 132.59 41.62L132.71 41.75L132.65 41.69Q128.13 37.77 122.92 32.22L122.79 32.09ZM136.25 45.13L136.29 45.17L136.16 45.04Q136.74 45.32 137.16 45.51L137.06 45.41L138.06 45.91L138.09 45.94Q132.77 38.83 132.77 29.47L132.90 29.60L132.87 29.57Q132.84 22.31 136.15 16.06L136.19 16.10L136.12 16.03Q135.59 16.37 134.18 16.98L134.05 16.86L134.00 16.80Q134.53 16.12 135.37 14.56L135.28 14.46L135.33 14.52Q132.83 15.37 130.40 15.94L130.40 15.94L130.47 16.01Q127.76 22.40 127.76 29.83L127.81 29.87L127.76 29.82Q127.75 31.68 127.94 33.66L127.94 33.66L127.92 33.64Q123.29 27.98 118.53 23.37L118.49 23.34L108.50 13.73L108.40 13.63Q107.84 13.33 106.62 12.76L106.67 12.81L106.67 12.81Q111.59 20.59 111.59 29.68L111.55 29.64L111.55 29.64Q111.65 36.86 108.56 42.87L108.55 42.86L108.46 42.77Q108.75 42.64 110.38 42.03L110.38 42.03L110.44 42.09Q110.03 42.78 109.20 44.27L109.36 44.44L109.21 44.29Q110.54 43.74 114.00 42.94L114.16 43.10L114.09 43.03Q116.44 36.94 116.44 29.74L116.32 29.62L116.35 29.65Q116.32 27.53 116.10 25.40L116.09 25.39L116.09 25.39Q127.65 38.29 136.26 45.14Z"/></svg>