<svg xmlns="http://www.w3.org/2000/svg" width="150" height="50" viewBox="0,0,150,50"><path fill="#222" d="M113.87 15.96L113.86 15.94L113.71 15.80Q115.65 20.71 116.23 25.89L116.26 25.92L116.15 25.82Q120.02 21.83 125.92 17.00L125.77 16.85L125.86 16.94Q129.07 16.65 131.70 15.85L131.73 15.88L125.21 21.55L125.11 21.44Q121.66 24.36 118.81 27.21L118.83 27.23L118.86 27.26Q126.89 36.48 131.96 41.20L131.81 41.06L131.89 41.13Q128.83 40.24 126.51 40.09L126.49 40.07L126.47 40.05Q120.69 34.65 116.39 28.83L116.41 28.85L116.41 28.85Q116.51 35.46 114.65 40.79L114.65 40.79L114.54 40.68Q114.37 40.78 113.87 40.97L113.87 40.96L113.93 41.22L113.81 41.10Q113.66 41.17 111.11 42.09L111.03 42.01L111.17 42.15Q114.12 35.58 113.78 28.12L113.73 28.07L113.68 28.02Q113.32 20.66 109.78 14.15L109.81 14.18L110.35 14.45L110.75 14.74L110.83 14.78L110.76 14.71Q111.59 15.19 113.79 15.88ZM114.04 15.55L114.02 15.53L114.08 15.59Q111.81 15.04 109.18 13.51L109.23 13.56L109.22 13.55Q113.38 20.72 113.38 29.67L113.41 29.69L113.43 29.71Q113.43 36.72 110.46 42.77L110.38 42.69L112.53 41.95L112.42 41.84Q112.19 43.02 111.51 44.32L111.51 44.32L111.35 44.16Q113.62 43.38 115.56 42.96L115.68 43.08L115.69 42.86L115.70 42.87Q115.91 42.78 116.48 42.63L116.47 42.62L116.60 42.75Q118.18 36.75 118.29 31.95L118.37 32.02L118.21 31.87Q120.30 34.38 122.13 36.25L122.18 36.30L122.20 36.31Q123.40 37.44 126.41 40.41L126.38 40.38L126.40 40.40L126.37 40.37Q127.42 41.23 129.28 42.83L129.28 42.82L129.21 42.76Q133.20 43.59 136.67 45.30L136.62 45.25L136.69 45.32Q127.29 36.65 121.05 29.23L121.12 29.30L121.13 29.31Q125.56 25.06 134.32 16.46L134.29 16.43L134.26 16.40Q131.78 17.61 129.76 17.99L129.63 17.86L129.70 17.93Q130.88 16.90 133.21 14.89L133.20 14.88L133.20 14.88Q129.21 16.41 125.86 16.60L125.69 16.43L125.84 16.58Q122.90 18.78 118.03 23.46L117.90 23.33L117.94 23.38Q117.65 20.87 117.08 18.32L117.09 18.33L116.99 18.24Q115.80 18.08 114.81 17.73L114.83 17.76L114.84 17.76Q114.59 16.98 114.02 15.53Z"/><path fill="#111" d="M93.11 40.38L93.19 40.46L93.09 40.36Q88.97 40.55 87.98 38.22L88.00 38.24L88.09 38.33Q88.78 37.31 90.35 35.52L90.34 35.52L90.45 35.63Q90.88 37.59 93.89 37.70L93.79 37.60L93.96 37.77Q97.24 37.74 98.88 36.41L98.97 36.49L98.95 36.47Q100.23 34.74 100.15 32.04L100.16 32.05L100.20 32.10Q100.16 27.14 95.36 27.37L95.24 27.25L95.34 27.35Q92.43 27.41 90.68 28.66L90.74 28.72L90.28 28.41L90.24 28.45L90.16 28.37Q90.52 25.23 90.41 22.49L90.35 22.43L90.45 22.53Q90.34 19.91 90.00 16.60L89.87 16.47L89.88 16.48Q93.67 17.57 97.48 17.45L97.46 17.44L97.34 17.31Q101.27 17.36 104.85 16.11L104.70 15.96L104.14 17.49L104.27 17.63Q103.98 18.40 103.79 19.24L103.70 19.15L103.75 19.20Q100.51 20.11 96.63 20.11L96.70 20.18L96.75 20.22Q95.36 20.28 93.88 20.13L93.73 19.99L93.89 20.15Q93.62 20.64 93.28 25.10L93.29 25.11L93.45 25.27Q94.17 24.70 96.23 24.54L96.19 24.50L96.34 24.66Q100.02 24.83 101.46 26.50L101.47 26.51L101.43 26.47Q102.89 28.08 103.15 31.92L103.06 31.83L103.10 31.87Q103.44 36.13 102.22 38.14L102.20 38.13L102.15 38.08Q100.14 39.99 96.83 40.22L96.72 40.10L96.78 40.17Q95.72 40.17 93.05 40.32ZM99.17 42.67L99.11 42.61L99.25 42.75Q102.59 42.74 104.49 41.64L104.41 41.55L104.41 41.56Q105.48 40.11 105.48 38.02L105.39 37.93L105.45 37.99Q105.51 34.97 104.56 30.86L104.59 30.89L104.51 30.80Q104.17 29.10 102.95 27.69L102.90 27.64L102.97 27.74L102.77 27.47L102.38 27.23L102.36 27.21Q102.11 26.54 101.46 25.86L101.38 25.77L101.38 25.81L101.49 25.92Q99.90 24.17 96.20 24.17L96.23 24.20L96.02 24.25L96.05 24.29Q95.97 23.56 96.16 22.45L96.18 22.48L96.26 22.56Q101.26 22.68 105.29 21.04L105.22 20.97L105.28 21.03Q105.75 19.68 106.70 16.86L106.58 16.73L104.60 17.80L104.48 17.68Q104.86 16.54 105.36 15.40L105.43 15.46L105.43 15.47Q101.54 16.87 97.43 16.95L97.45 16.97L97.51 17.03Q93.32 17.07 89.37 15.97L89.37 15.97L89.41 16.01Q90.06 20.39 90.06 24.81L90.02 24.76L90.06 24.81Q89.98 26.63 89.87 28.54L89.87 28.54L89.98 28.65Q90.13 28.72 90.70 29.02L90.78 29.11L90.77 29.10Q91.03 28.79 91.68 28.44L91.78 28.55L91.69 28.45Q91.75 29.31 91.52 30.84L91.56 30.88L91.46 30.78Q92.00 31.09 92.42 31.32L92.32 31.21L92.38 31.28Q95.08 29.44 96.94 29.44L96.94 29.44L97.00 29.50Q98.32 29.49 99.50 30.13L99.49 30.13L99.52 30.15Q99.93 31.25 99.97 32.21L99.87 32.10L99.85 32.08Q99.86 34.61 98.84 35.71L98.87 35.75L99.02 35.90Q97.66 37.12 95.41 37.35L95.39 37.33L95.33 37.27Q94.38 37.35 93.70 37.28L93.72 37.30L93.64 37.22Q92.83 37.14 92.07 36.79L92.09 36.81L92.12 36.65L91.97 36.73L91.84 36.60Q91.15 36.21 90.62 34.88L90.52 34.78L90.52 34.79Q89.30 36.30 87.62 38.44L87.58 38.40L87.54 38.35Q87.94 39.09 88.77 40.04L88.68 39.95L88.82 40.09Q89.90 41.93 92.71 42.42L92.62 42.33L92.57 42.28Q93.71 42.47 99.08 42.58Z"/><path fill="#333" d="M67.73 40.27L67.82 40.37L67.79 40.34Q66.32 40.35 64.76 39.93L64.74 39.91L64.80 39.98Q63.58 39.06 63.43 37.42L63.52 37.51L63.49 37.48Q63.37 37.22 63.57 34.59L63.61 34.63L63.60 34.63Q64.61 34.41 66.62 34.03L66.64 34.05L66.37 34.73L66.56 34.92Q66.18 36.56 67.59 37.13L67.54 37.08L67.57 37.11Q68.35 37.43 70.44 37.43L70.54 37.52L70.53 37.51Q72.08 37.32 72.27 37.24L72.33 37.30L72.36 37.33Q73.20 37.11 73.92 36.61L73.89 36.58L74.00 36.69Q75.43 35.76 75.24 33.66L75.05 33.48L75.13 33.56Q74.91 31.09 73.18 29.52L73.12 29.47L73.16 29.50Q71.57 28.09 69.09 28.09L68.94 27.93L68.94 27.71L68.95 27.72Q69.48 27.83 70.36 27.75L70.35 27.74L70.21 27.61Q72.24 27.61 73.61 26.38L73.51 26.28L73.57 26.35Q74.82 24.98 74.97 23.11L75.05 23.20L75.06 23.21Q75.05 22.78 75.05 22.44L75.21 22.59L75.20 22.58Q75.14 21.00 73.77 20.09L73.73 20.04L73.77 20.09Q72.58 19.31 70.98 19.43L71.03 19.48L71.03 19.48Q69.71 19.30 68.49 19.72L68.40 19.62L68.42 19.65Q67.04 20.25 66.74 21.39L66.62 21.28L66.67 21.33Q66.41 22.01 66.48 22.78L66.65 22.94L66.50 22.79Q65.49 22.59 63.44 21.86L63.50 21.92L63.50 21.92Q63.35 20.33 63.39 19.49L63.33 19.43L63.39 19.49Q63.51 17.97 64.57 17.28L64.57 17.28L64.50 17.21Q65.98 16.68 67.58 16.68L67.50 16.60L67.44 16.53Q70.68 16.58 73.84 16.85L73.82 16.82L73.89 16.90Q78.82 17.18 78.52 20.95L78.49 20.92L78.53 20.96Q78.58 22.58 78.09 24.14L77.92 23.97L77.98 24.03Q77.10 27.14 74.73 28.06L74.79 28.12L74.82 28.14Q77.32 28.55 77.93 31.90L78.02 31.99L78.05 32.02Q78.26 33.14 78.34 35.16L78.31 35.14L78.26 35.09Q78.43 39.56 73.82 40.01L73.80 39.99L73.88 40.07Q73.03 40.02 67.73 40.28ZM72.91 42.49L72.93 42.51L73.08 42.66Q73.63 42.63 76.48 42.71L76.46 42.69L76.48 42.71Q78.24 42.79 79.88 42.14L79.90 42.17L79.87 42.14Q81.07 41.21 80.88 39.46L80.80 39.38L80.84 39.41Q80.69 38.04 80.38 36.29L80.53 36.44L80.48 36.39Q79.75 31.89 77.81 30.25L77.87 30.32L77.64 29.89L77.58 29.79L77.49 29.71Q79.30 28.32 80.06 23.94L79.96 23.84L80.14 24.02Q80.01 23.40 80.13 22.45L80.15 22.47L80.20 22.52Q80.37 21.85 80.30 21.17L80.18 21.06L80.28 21.15Q79.96 19.31 78.67 18.63L78.86 18.82L78.70 18.73L78.70 18.74Q78.39 17.74 77.25 17.21L77.19 17.15L77.19 17.15Q75.81 16.61 70.67 16.31L70.66 16.29L70.59 16.22Q68.94 16.17 67.34 16.17L67.24 16.07L67.24 16.07Q65.79 16.22 64.27 16.87L64.26 16.86L64.20 16.80Q63.04 17.62 63.04 19.37L63.02 19.35L62.97 19.30Q62.95 18.86 63.21 22.21L63.29 22.28L63.27 22.26Q63.53 22.30 65.17 22.91L65.09 22.83L65.22 22.95Q65.15 23.43 65.12 23.92L65.16 23.96L65.18 23.99Q65.18 24.47 65.21 25.01L65.25 25.04L65.19 24.98Q67.05 25.43 69.06 25.55L69.03 25.51L68.92 25.40Q68.93 23.47 70.03 22.63L70.09 22.69L70.00 22.60Q70.80 21.91 72.81 21.68L72.92 21.79L72.93 21.80Q74.05 21.77 74.62 21.96L74.65 21.99L74.64 21.98Q74.54 21.97 74.58 22.08L74.62 22.12L74.68 22.37L74.80 22.95L74.75 22.89Q74.70 23.04 74.67 23.19L74.76 23.28L74.68 23.21Q74.56 24.88 73.04 26.06L73.16 26.18L73.07 26.09Q72.19 27.04 70.18 27.23L70.18 27.24L70.28 27.33Q69.47 27.39 68.59 27.39L68.68 27.48L68.58 27.39Q68.68 27.79 68.83 28.47L68.86 28.50L68.83 28.48Q70.50 28.39 71.94 29.11L72.06 29.22L71.82 29.11L70.25 29.29L70.24 29.27Q70.41 29.75 70.53 30.36L70.50 30.33L70.50 30.33Q72.52 30.14 74.23 31.47L74.25 31.49L74.27 31.52Q74.62 32.02 74.93 33.66L74.87 33.60L74.84 33.57Q74.97 36.44 72.04 36.86L72.17 36.99L72.05 36.87Q69.94 37.12 69.36 37.08L69.46 37.18L69.37 37.08Q69.06 37.11 68.53 37.04L68.40 36.91L68.43 36.49L68.55 36.03L68.62 35.69L68.62 35.34L68.57 35.29Q67.70 35.45 66.90 35.64L66.93 35.67L66.93 35.67Q66.81 35.36 66.81 35.17L66.88 35.24L66.94 35.30Q66.96 35.09 66.96 34.86L66.97 34.88L66.97 34.87Q66.83 34.27 66.98 33.55L67.03 33.60L66.99 33.56Q65.24 33.90 63.37 34.24L63.35 34.22L63.42 34.29Q63.34 34.71 63.22 35.83L63.21 35.81L63.22 35.82Q63.16 37.01 63.16 37.61L63.04 37.49L63.15 37.60Q63.15 39.58 64.52 40.34L64.49 40.31L64.49 40.31Q66.04 42.66 70.76 42.47L70.84 42.55L70.85 42.56Q71.51 42.46 73.03 42.61Z"/><path fill="#222" d="M22.67 30.43L22.68 30.44L22.69 30.45Q19.09 36.67 15.66 40.63L15.83 40.79L15.72 40.69Q13.92 41.17 11.49 42.05L11.45 42.01L11.41 41.98Q16.28 36.33 21.04 27.92L21.10 27.98L21.04 27.92Q16.45 20.98 10.48 14.58L10.63 14.73L10.46 14.57Q13.44 15.82 15.72 16.32L15.68 16.28L15.85 16.45Q20.36 21.53 22.80 25.49L22.87 25.56L22.84 25.54Q25.44 21.20 29.36 16.78L29.28 16.71L29.27 16.70Q30.94 16.47 34.14 15.71L34.12 15.69L34.14 15.70Q27.93 22.02 24.47 27.96L24.52 28.02L24.48 27.97Q29.67 36.67 34.05 41.24L33.98 41.16L34.10 41.29Q31.55 40.53 29.46 40.30L29.49 40.33L29.48 40.32Q26.66 37.31 22.73 30.49ZM29.39 40.65L29.28 40.54L29.41 40.67Q29.52 40.51 29.97 40.62L30.03 40.68L30.11 40.76Q30.90 41.52 32.43 43.12L32.30 42.99L32.49 43.18Q35.67 43.80 38.71 45.17L38.70 45.16L38.73 45.19Q31.59 38.59 26.49 29.83L26.47 29.81L26.57 29.91Q30.21 23.16 36.11 16.31L36.26 16.45L36.23 16.43Q34.83 17.12 32.66 17.66L32.59 17.58L32.60 17.59Q33.47 16.67 35.22 14.88L35.16 14.82L35.11 14.77Q32.72 15.66 29.03 16.23L29.10 16.30L29.08 16.28Q25.67 20.11 23.09 24.41L23.05 24.37L23.10 24.42Q22.11 22.75 20.93 21.26L20.96 21.30L18.75 18.43L18.35 18.42L18.26 18.32Q18.21 18.43 17.98 18.36L17.87 18.24L18.02 18.40Q17.28 17.50 15.79 15.94L15.74 15.88L15.89 16.03Q11.99 15.06 9.40 13.69L9.40 13.69L9.30 13.60Q16.19 21.01 20.76 28.06L20.72 28.02L20.73 28.03Q16.28 36.26 10.53 42.84L10.44 42.75L10.41 42.72Q11.90 42.23 14.03 41.66L14.00 41.63L12.69 43.06L12.56 42.93Q12.58 42.95 11.25 44.28L11.30 44.33L11.23 44.26Q14.35 43.31 17.51 42.82L17.43 42.74L17.40 42.71Q21.39 38.17 23.98 33.41L24.16 33.59L24.01 33.44Q26.64 37.74 29.34 40.60Z"/><path fill="#222" d="M43.23 33.24L43.27 33.29L43.38 33.40Q43.18 36.17 42.00 40.81L41.91 40.73L42.00 40.82Q40.07 41.20 38.47 42.00L38.49 42.03L38.65 42.19Q41.24 35.14 40.97 27.72L40.96 27.71L40.90 27.65Q40.58 20.21 37.50 13.47L37.48 13.45L37.59 13.56Q39.52 14.81 41.39 15.38L41.35 15.34L41.38 15.37Q43.50 22.32 43.50 28.99L43.58 29.07L43.55 29.03Q43.60 30.54 43.53 32.02L43.40 31.89L43.37 31.86Q44.64 30.78 49.86 25.83L49.75 25.72L49.72 25.70Q50.97 25.83 51.95 25.76L51.97 25.77L53.85 25.41L53.86 25.41Q50.75 28.47 46.45 32.24L46.55 32.34L46.60 32.39Q49.86 35.04 56.33 40.86L56.43 40.97L56.36 40.90Q53.69 40.05 50.72 39.86L50.57 39.72L50.76 39.91Q48.10 37.66 43.22 33.24ZM53.10 42.39L53.27 42.56L53.09 42.39Q57.83 43.24 60.95 45.18L61.06 45.29L61.09 45.32Q59.90 44.02 57.27 41.62L57.23 41.58L57.28 41.63Q57.47 41.66 57.74 41.78L57.62 41.66L57.77 41.81Q55.56 39.68 53.32 37.78L53.36 37.83L48.99 33.98L48.87 33.86Q53.94 29.76 56.37 26.86L56.27 26.76L56.41 26.90Q55.07 26.86 52.60 27.12L52.60 27.12L52.67 27.19Q54.33 25.80 55.01 24.97L54.88 24.84L54.90 24.86Q52.21 25.44 49.73 25.44L49.71 25.42L49.73 25.43Q48.31 26.72 45.57 29.39L45.50 29.32L45.51 29.32Q45.48 23.51 44.49 17.69L44.57 17.76L44.57 17.77Q43.90 17.63 42.42 17.36L42.27 17.21L42.39 17.34Q42.19 16.56 41.73 15.08L41.72 15.06L41.64 14.98Q39.16 14.33 36.91 12.77L36.91 12.76L36.84 12.70Q40.18 19.43 40.53 27.54L40.55 27.57L40.53 27.54Q41.01 35.60 38.00 42.83L37.97 42.80L38.03 42.86Q38.63 42.46 39.96 41.82L39.99 41.84L39.87 41.73Q39.66 42.58 39.01 44.03L39.00 44.02L39.13 44.15Q41.96 43.06 44.10 42.68L44.09 42.68L44.10 42.68Q44.53 40.03 45.02 35.77L45.17 35.91L45.02 35.76Q47.64 38.04 53.09 42.38Z"/></svg>