<svg xmlns="http://www.w3.org/2000/svg" width="150" height="50" viewBox="0,0,150,50"><path fill="#111" d="M47.95 40.14L48.01 40.20L48.00 40.19Q46.05 40.03 44.38 40.60L44.56 40.78L44.40 40.62Q45.00 37.07 45.11 33.95L45.13 33.97L45.14 33.98Q45.26 30.94 45.03 27.29L45.04 27.29L44.97 27.22Q43.62 26.90 42.85 26.52L42.81 26.47L42.40 23.44L42.37 23.41Q43.16 24.08 44.76 24.65L44.86 24.75L44.87 24.76Q44.51 22.49 44.09 19.75L44.10 19.77L44.19 19.86Q46.46 20.53 48.10 20.38L48.16 20.44L47.87 24.87L47.97 24.97Q49.42 24.94 50.75 24.44L50.64 24.33L50.77 24.45Q50.59 25.23 50.36 26.98L50.49 27.11L50.41 27.03Q48.90 27.38 47.87 27.38L47.96 27.47L47.87 27.38Q47.98 29.66 47.98 33.92L47.92 33.87L47.87 33.82Q47.97 38.07 48.05 40.24ZM51.06 23.75L51.14 23.83L51.10 23.79Q50.86 23.94 50.25 24.17L50.25 24.17L50.64 21.39L50.66 21.41Q49.92 21.78 48.51 22.00L48.50 21.99L48.51 22.00Q48.39 21.20 48.54 19.83L48.48 19.77L48.58 19.87Q48.03 20.00 47.45 20.00L47.36 19.91L47.34 19.88Q45.31 19.99 43.68 19.27L43.58 19.17L43.55 19.14Q44.20 21.77 44.46 24.24L44.43 24.20L44.42 24.20Q43.60 23.91 42.08 22.89L41.92 22.73L42.03 22.84Q42.30 24.06 42.53 26.77L42.58 26.81L42.51 26.75Q43.10 27.11 44.28 27.53L44.21 27.46L44.22 27.47Q44.24 28.10 44.28 29.50L44.32 29.54L44.57 29.45L44.73 29.53L44.72 29.53Q44.89 30.87 44.89 32.05L44.78 31.94L44.87 32.04Q44.87 36.99 44.07 41.33L43.98 41.24L44.01 41.26Q44.22 41.17 46.16 40.64L46.23 40.70L46.19 40.67Q46.22 41.34 46.11 42.71L45.96 42.56L45.96 42.57Q46.90 42.63 47.70 42.63L47.68 42.61L47.61 42.54Q49.30 42.52 50.94 43.09L51.10 43.25L50.96 43.12Q49.66 37.43 49.85 29.51L49.81 29.47L52.33 29.21L52.20 29.08Q52.35 28.25 52.43 27.22L52.44 27.23L52.70 25.28L52.62 25.20Q52.09 25.51 50.91 25.97L50.84 25.90L50.83 25.89Q51.22 24.64 51.14 24.30L51.10 24.25L51.01 24.16Q51.11 24.08 51.19 23.89Z"/><path fill="#333" d="M19.11 19.46L19.01 19.36L19.07 19.42Q19.79 23.53 19.94 27.11L20.04 27.21L19.98 27.15Q21.21 27.35 22.27 27.35L22.14 27.22L24.47 27.33L24.32 27.19Q25.46 27.26 26.34 25.85L26.23 25.75L26.22 25.74Q27.11 24.72 27.22 23.54L27.15 23.46L27.20 23.52Q27.43 20.36 23.21 19.86L23.25 19.91L23.34 20.00Q21.55 19.85 18.93 19.28ZM20.12 30.02L19.98 29.88L20.12 30.03Q19.92 36.11 18.77 40.52L18.73 40.48L18.73 40.48Q17.43 41.04 15.10 42.10L15.01 42.01L15.07 42.07Q17.40 35.38 17.13 28.11L17.10 28.08L17.16 28.13Q16.88 20.78 14.10 14.34L13.99 14.23L13.99 14.23Q18.20 17.07 24.44 17.07L24.48 17.11L24.51 17.14Q30.60 17.18 30.76 20.64L30.67 20.55L30.69 20.58Q30.73 22.97 29.74 25.63L29.78 25.68L29.80 25.70Q29.36 26.78 28.41 28.00L28.44 28.03L28.47 28.07Q27.08 29.60 24.53 29.87L24.47 29.81L24.45 29.79Q22.25 29.87 20.00 29.91ZM26.11 32.14L26.26 32.29L26.07 32.10Q30.23 32.34 31.49 27.54L31.61 27.67L31.49 27.54Q32.51 23.95 32.36 21.94L32.47 22.04L32.30 21.88Q32.29 20.46 31.53 19.47L31.42 19.36L31.57 19.51Q31.25 19.19 30.75 18.96L30.59 18.80L30.62 18.83Q30.58 18.64 29.97 17.88L30.15 18.05L30.11 18.01Q28.41 16.54 24.45 16.54L24.61 16.70L24.63 16.72Q17.63 16.61 13.40 13.45L13.40 13.45L13.48 13.53Q16.56 20.53 16.83 28.00L16.86 28.02L16.75 27.91Q17.23 35.78 14.56 42.86L14.53 42.83L14.48 42.77Q15.58 42.16 16.57 41.78L16.60 41.81L16.16 42.89L16.15 42.88Q15.88 43.38 15.62 43.95L15.77 44.10L15.68 44.01Q18.22 43.09 21.11 42.55L21.12 42.56L21.06 42.50Q21.97 37.05 22.04 32.33L21.93 32.22L21.92 32.21Q22.99 32.10 23.98 32.10L23.96 32.08L24.00 32.12Q25.27 32.06 26.07 32.10ZM25.17 22.21L25.13 22.17L25.23 22.27Q25.73 22.27 26.72 22.50L26.61 22.39L26.75 22.54Q26.76 22.65 26.79 22.96L26.80 22.96L26.78 22.95Q26.81 23.20 26.73 23.46L26.91 23.64L26.91 23.65Q26.69 24.76 25.97 25.63L26.07 25.73L26.06 25.73Q25.34 26.64 24.31 26.83L24.39 26.91L24.33 26.85Q23.60 26.84 21.96 26.84L22.00 26.88L21.99 26.87Q21.89 24.53 21.66 22.17L21.72 22.22L23.56 22.39L23.39 22.22Q24.42 22.42 25.30 22.34Z"/><path fill="#222" d="M113.79 15.88L113.81 15.90L113.75 15.84Q115.64 20.70 116.22 25.88L116.24 25.90L116.22 25.88Q119.98 21.80 125.88 16.97L125.89 16.97L125.88 16.96Q129.08 16.66 131.71 15.87L131.60 15.75L125.06 21.39L125.07 21.41Q121.65 24.35 118.80 27.20L118.76 27.17L118.75 27.16Q126.84 36.42 131.90 41.14L131.77 41.01L131.94 41.19Q128.77 40.18 126.45 40.03L126.43 40.01L126.38 39.96Q120.71 34.68 116.41 28.85L116.30 28.74L116.41 28.85Q116.42 35.38 114.56 40.70L114.63 40.78L114.59 40.74Q114.36 40.77 113.86 40.96L113.96 41.05L113.88 41.17L113.78 41.06Q113.69 41.21 111.14 42.12L111.06 42.04L111.04 42.02Q114.13 35.59 113.79 28.13L113.67 28.02L113.78 28.13Q113.33 20.67 109.79 14.16L109.86 14.23L110.37 14.47L110.83 14.81L110.89 14.84L110.85 14.80Q111.64 15.25 113.85 15.93ZM114.10 15.61L113.95 15.47L114.04 15.56Q111.70 14.93 109.08 13.41L109.11 13.44L109.20 13.54Q113.38 20.72 113.38 29.66L113.47 29.76L113.47 29.76Q113.43 36.72 110.46 42.77L110.41 42.72L112.50 41.91L112.49 41.91Q112.12 42.94 111.43 44.24L111.34 44.15L111.38 44.18Q113.66 43.42 115.60 43.00L115.65 43.06L115.66 42.83L115.76 42.93Q115.96 42.83 116.53 42.67L116.54 42.69L116.59 42.74Q118.22 36.79 118.33 31.99L118.33 31.99L118.31 31.97Q120.41 34.49 122.24 36.36L122.18 36.30L122.22 36.33Q123.33 37.37 126.34 40.34L126.37 40.37L126.42 40.42L126.36 40.36Q127.40 41.21 129.26 42.81L129.20 42.75L129.21 42.76Q133.15 43.53 136.61 45.25L136.68 45.32L136.68 45.31Q127.29 36.65 121.05 29.23L121.00 29.18L121.12 29.30Q125.42 24.92 134.18 16.31L134.20 16.33L134.35 16.48Q131.70 17.53 129.68 17.91L129.61 17.83L129.75 17.98Q130.92 16.94 133.24 14.92L133.33 15.01L133.32 15.00Q129.05 16.25 125.70 16.44L125.69 16.43L125.79 16.53Q122.81 18.69 117.93 23.37L117.87 23.30L117.99 23.42Q117.54 20.77 116.97 18.22L117.04 18.29L116.99 18.24Q115.89 18.17 114.90 17.82L114.88 17.80L114.87 17.80Q114.56 16.95 113.99 15.50Z"/><path fill="#333" d="M75.38 30.99L75.29 30.90L75.21 30.82Q75.08 29.59 73.14 28.86L73.21 28.93L73.31 29.03Q72.72 28.74 72.19 28.74L72.27 28.82L72.28 28.84Q70.74 28.67 69.68 29.24L69.86 29.43L69.84 29.41Q68.42 30.08 68.53 31.30L68.47 31.24L68.50 31.26Q68.76 34.00 68.61 36.25L68.69 36.33L68.67 36.30Q68.64 38.87 67.92 41.38L67.91 41.37L67.79 41.25Q65.66 41.75 64.48 42.17L64.51 42.20L64.52 42.21Q66.17 38.64 66.17 34.64L66.05 34.53L66.12 34.60Q66.09 29.12 63.50 24.66L63.48 24.65L63.50 24.67Q64.83 25.27 67.23 26.00L67.18 25.95L67.15 25.91Q67.49 26.68 67.87 28.20L67.86 28.19L67.78 28.10Q69.12 26.03 73.01 26.10L73.10 26.20L73.01 26.10Q74.62 26.26 75.41 26.38L75.39 26.35L75.32 26.28Q78.33 26.71 78.41 28.72L78.45 28.77L78.35 28.67Q78.46 29.65 78.27 30.68L78.20 30.61L78.22 30.63Q77.83 33.21 78.02 36.22L77.96 36.16L77.95 36.15Q78.14 39.04 79.13 41.59L79.15 41.61L79.01 41.47Q77.44 41.20 75.73 41.04L75.64 40.95L75.73 41.04Q75.30 38.71 75.22 36.04L75.24 36.06L75.18 36.01Q75.13 33.28 75.36 30.96ZM75.31 41.35L75.35 41.39L75.35 41.39Q76.16 41.40 77.46 41.63L77.39 41.56L77.86 42.72L77.77 42.63Q77.98 43.14 78.21 43.68L78.28 43.74L78.13 43.60Q80.47 44.07 83.17 45.25L83.15 45.23L83.26 45.34Q80.76 42.08 80.08 38.27L80.11 38.31L80.10 38.30Q79.86 36.27 79.97 32.57L79.86 32.46L79.81 32.41Q79.86 32.16 79.90 31.36L79.96 31.41L80.03 31.49Q80.08 30.85 80.00 30.36L79.87 30.23L79.91 30.26Q79.79 28.58 78.69 28.09L78.63 28.03L78.70 28.10Q78.64 27.36 77.88 26.75L77.78 26.65L77.87 26.74Q76.10 25.66 73.06 25.73L73.10 25.77L73.11 25.78Q71.19 25.77 70.35 25.96L70.41 26.02L70.27 25.87Q68.84 26.23 67.88 27.15L67.87 27.13L68.04 27.30Q67.83 26.67 67.45 25.64L67.52 25.71L67.37 25.57Q64.54 24.87 62.71 23.88L62.75 23.91L62.82 23.99Q65.80 28.79 65.80 34.54L65.93 34.67L65.93 34.67Q65.92 39.04 64.02 42.89L63.91 42.78L63.92 42.79Q64.54 42.42 65.84 42.04L65.99 42.19L65.95 42.15Q65.38 43.33 64.84 44.32L64.95 44.43L64.84 44.32Q66.22 43.83 69.76 43.26L69.80 43.30L69.95 43.45Q70.75 38.12 70.63 33.28L70.74 33.39L70.65 33.30Q70.63 32.48 71.81 31.75L71.93 31.88L71.85 31.80Q72.91 31.18 74.01 31.07L74.00 31.06L74.01 31.06Q74.42 30.98 74.84 31.17L74.92 31.25L74.97 31.30Q74.73 33.76 74.77 36.31L74.83 36.38L74.71 36.26Q74.76 38.78 75.25 41.29Z"/><path fill="#444" d="M89.12 15.88L89.20 15.95L89.08 15.83Q90.93 20.65 91.50 25.83L91.49 25.82L91.63 25.95Q95.32 21.81 101.23 16.98L101.12 16.87L101.23 16.98Q104.37 16.62 107.00 15.82L107.05 15.88L100.55 21.56L100.41 21.41Q96.93 24.29 94.08 27.15L94.23 27.30L94.08 27.15Q102.10 36.35 107.16 41.07L107.17 41.08L107.18 41.09Q104.15 40.23 101.83 40.08L101.83 40.08L101.79 40.04Q96.06 34.69 91.75 28.86L91.70 28.80L91.64 28.74Q91.85 35.47 89.99 40.80L89.92 40.73L89.86 40.68Q89.78 40.86 89.28 41.05L89.30 41.07L89.21 41.17L89.15 41.10Q88.98 41.16 86.43 42.08L86.48 42.12L86.43 42.08Q89.46 35.59 89.12 28.13L88.97 27.98L89.01 28.02Q88.69 20.70 85.15 14.19L85.22 14.25L85.80 14.57L86.07 14.73L86.10 14.72L86.14 14.76Q86.94 15.21 89.15 15.90ZM89.34 15.52L89.45 15.63L89.45 15.63Q87.05 14.95 84.43 13.42L84.54 13.54L84.47 13.46Q88.84 20.85 88.84 29.79L88.70 29.65L88.71 29.66Q88.75 36.71 85.78 42.76L85.70 42.68L87.91 42.00L87.75 41.84Q87.39 42.88 86.70 44.18L86.66 44.14L86.85 44.32Q89.00 43.43 90.94 43.01L90.89 42.96L91.11 42.95L91.11 42.95Q91.30 42.84 91.87 42.69L91.92 42.73L91.84 42.65Q93.56 36.80 93.68 32.00L93.51 31.83L93.63 31.95Q95.62 34.37 97.45 36.23L97.43 36.21L97.50 36.28Q98.67 37.38 101.68 40.35L101.63 40.30L101.84 40.51L101.69 40.35Q102.80 41.27 104.66 42.87L104.58 42.79L104.56 42.77Q108.57 43.62 112.03 45.33L112.00 45.30L111.98 45.28Q102.65 36.67 96.40 29.25L96.43 29.27L96.34 29.19Q100.74 24.90 109.49 16.30L109.64 16.45L109.66 16.47Q107.00 17.50 104.98 17.88L105.00 17.89L105.06 17.96Q106.33 17.01 108.65 15.00L108.63 14.98L108.64 14.99Q104.41 16.28 101.06 16.47L101.16 16.57L101.19 16.59Q98.22 18.77 93.35 23.45L93.25 23.35L93.32 23.42Q92.97 20.86 92.40 18.31L92.29 18.20L92.42 18.33Q91.26 18.20 90.27 17.86L90.20 17.79L90.09 17.68Q89.99 17.04 89.41 15.60Z"/></svg>