<svg xmlns="http://www.w3.org/2000/svg" width="150" height="50" viewBox="0,0,150,50"><path fill="#444" d="M32.47 23.14L32.37 23.03L32.34 23.00Q30.62 25.81 27.95 31.45L27.90 31.40L26.02 35.76L25.97 35.70Q25.05 37.57 23.72 39.81L23.62 39.71L23.69 39.78Q24.15 39.79 22.48 39.83L22.40 39.75L22.58 39.93Q22.50 39.85 21.24 39.85L21.28 39.88L21.29 39.90Q20.56 38.41 17.63 31.25L17.67 31.29L17.55 31.17Q15.43 25.85 13.33 22.84L13.27 22.77L13.23 22.74Q13.99 25.82 13.99 28.98L14.01 29.00L14.13 29.12Q14.17 35.67 11.21 41.23L11.15 41.18L11.13 41.16Q9.80 41.50 7.44 42.22L7.40 42.18L7.45 42.24Q11.11 36.53 11.11 29.29L11.18 29.37L11.09 29.28Q11.21 20.45 5.80 13.48L5.73 13.41L5.77 13.45Q7.36 14.13 9.73 14.82L9.79 14.88L9.64 14.73Q16.85 21.64 22.94 34.96L22.75 34.77L22.89 34.91Q26.25 27.77 28.46 24.27L28.61 24.42L28.61 24.42Q32.18 18.62 36.14 15.16L36.10 15.11L36.03 15.04Q37.28 14.81 39.64 14.05L39.75 14.16L39.74 14.15Q34.68 20.70 34.68 29.30L34.77 29.39L34.77 29.39Q34.72 36.01 38.15 41.53L38.11 41.49L38.05 41.43Q36.78 41.19 34.04 40.58L34.16 40.70L34.06 40.60Q31.75 35.86 31.75 29.88L31.79 29.92L31.80 29.92Q31.65 26.35 32.34 23.00ZM33.83 40.94L33.78 40.89L33.92 41.03Q34.64 41.18 36.08 41.44L35.96 41.32L36.10 41.46Q36.42 42.09 37.37 43.57L37.50 43.70L37.40 43.60Q39.51 43.99 42.98 45.21L42.92 45.16L43.00 45.24Q36.81 38.97 36.81 29.14L36.67 29.01L36.80 29.14Q36.78 21.39 41.15 15.26L41.17 15.27L38.91 15.90L39.02 16.01Q39.98 14.42 40.62 13.55L40.57 13.50L40.68 13.60Q38.67 14.11 36.05 14.64L36.14 14.74L36.00 14.60Q29.29 20.75 23.23 33.35L23.22 33.34L23.28 33.40Q18.07 22.40 13.12 17.15L13.05 17.08L13.05 17.08Q12.82 17.15 12.25 17.04L12.24 17.02L10.97 15.68L10.89 15.60Q10.48 15.12 9.79 14.51L9.69 14.40L9.71 14.42Q6.70 13.47 4.91 12.74L4.82 12.65L4.87 12.70Q10.78 19.83 10.78 29.23L10.76 29.21L10.83 29.28Q10.91 36.98 6.76 42.84L6.72 42.80L6.62 42.70Q7.42 42.58 8.71 42.17L8.75 42.20L8.63 42.08Q8.53 42.36 7.12 44.45L7.07 44.40L7.09 44.43Q8.87 43.92 12.37 43.16L12.47 43.26L12.54 43.33Q16.24 36.26 16.05 28.49L15.93 28.37L15.90 28.34Q17.55 32.46 21.01 40.34L21.06 40.39L20.93 40.26Q21.14 40.17 21.37 40.17L21.39 40.19L21.88 40.15L21.91 40.18Q22.34 40.83 23.14 42.13L23.24 42.22L23.18 42.16Q24.93 42.28 24.93 42.28L24.87 42.22L24.94 42.29Q25.92 42.24 26.57 42.32L26.48 42.23L26.42 42.17Q27.97 38.12 31.32 30.13L31.45 30.26L31.42 30.23Q31.30 35.66 33.88 40.99Z"/><path fill="#222" d="M70.21 28.56L70.37 28.71L70.32 28.67Q67.51 28.67 66.75 30.92L66.72 30.89L66.67 30.84Q66.47 31.59 66.36 32.24L66.32 32.20L66.36 32.25Q68.88 32.37 70.52 32.37L70.58 32.43L70.60 32.45Q72.33 32.54 74.91 32.42L74.85 32.36L74.83 32.34Q74.81 30.72 73.40 29.65L73.27 29.53L73.41 29.67Q72.11 28.67 70.32 28.67ZM70.34 41.17L70.43 41.27L70.40 41.23Q66.13 41.19 64.83 39.78L64.85 39.80L64.85 39.80Q63.95 38.40 63.80 35.13L63.68 35.01L63.64 34.96Q63.73 34.83 63.65 33.46L63.62 33.43L63.74 33.54Q63.39 31.03 63.39 30.31L63.48 30.40L63.49 30.40Q63.46 28.50 64.18 27.40L64.25 27.47L64.26 27.48Q65.64 26.04 68.61 26.04L68.57 26.00L70.08 25.95L70.12 25.99Q72.16 25.98 73.68 26.28L73.73 26.33L73.80 26.40Q75.85 26.85 76.83 28.06L76.71 27.94L76.81 28.04Q77.41 29.10 77.49 31.19L77.54 31.24L77.52 31.22Q77.54 32.38 77.58 34.55L77.55 34.53L77.52 34.50Q74.64 34.51 71.86 34.51L71.84 34.49L66.18 34.43L66.17 34.42Q66.50 39.01 70.57 38.78L70.48 38.68L70.50 38.70Q74.26 38.50 75.47 36.68L75.53 36.74L75.50 36.70Q76.35 37.21 77.94 38.39L77.92 38.37L77.90 38.34Q76.61 40.82 72.46 41.08L72.43 41.06L72.48 41.11Q71.77 41.16 70.40 41.23ZM72.57 43.45L72.72 43.59L72.73 43.60Q73.79 43.52 75.01 43.60L74.93 43.52L75.00 43.59Q79.85 43.64 80.77 40.86L80.88 40.98L80.79 40.89Q79.32 39.80 78.22 39.04L78.21 39.04L78.21 39.03Q78.33 38.58 78.52 38.36L78.39 38.23L78.48 38.31Q77.71 37.81 76.34 36.86L76.49 37.01L76.32 36.84Q77.46 36.95 79.52 37.26L79.62 37.36L79.52 37.25Q79.36 35.92 79.29 35.24L79.22 35.17L79.19 33.35L79.19 33.35Q79.03 30.98 78.38 29.50L78.27 29.39L78.41 29.53Q78.00 29.03 77.42 28.42L77.51 28.51L77.56 28.56Q77.26 28.11 77.03 27.54L77.21 27.72L77.15 27.66Q75.16 25.51 70.10 25.51L70.20 25.62L68.45 25.54L68.48 25.58Q65.15 25.48 63.71 26.96L63.82 27.08L63.73 26.99Q63.10 28.15 63.14 30.21L63.20 30.26L63.24 30.31Q63.30 31.28 63.42 33.53L63.37 33.49L63.28 33.39Q63.44 35.08 63.56 37.13L63.46 37.03L63.47 37.05Q63.85 39.40 64.72 40.47L64.63 40.38L64.74 40.49Q64.80 40.55 64.99 40.66L64.99 40.66L65.35 41.36L65.23 41.24Q66.16 43.24 72.75 43.62ZM70.63 38.41L70.60 38.39L70.54 38.33Q69.45 38.49 68.53 38.04L68.44 37.95L68.52 38.02Q68.33 37.49 68.14 36.81L68.28 36.95L68.19 36.86Q69.86 36.74 71.46 36.74L71.46 36.74L71.42 36.69Q73.12 36.72 74.80 36.84L74.93 36.97L74.90 36.94Q73.63 38.30 70.63 38.41ZM72.12 30.92L72.27 31.07L72.22 31.02Q72.74 30.93 74.07 31.31L74.16 31.40L74.24 31.67L74.39 32.02L74.27 31.90Q72.94 32.05 72.03 32.02L72.10 32.09L71.99 31.97Q69.77 32.00 69.73 32.00L69.81 32.08L69.73 32.00Q70.45 31.04 72.12 30.93Z"/><path fill="#111" d="M48.44 27.78L48.34 27.69L48.47 27.81Q44.85 27.62 43.75 30.97L43.81 31.03L43.68 30.90Q43.37 32.04 43.26 33.10L43.34 33.19L43.25 33.10Q42.98 35.07 43.97 36.40L43.99 36.42L43.99 36.43Q45.32 37.61 47.80 37.65L47.88 37.73L47.87 37.72Q49.61 37.67 51.02 36.52L51.20 36.71L51.20 36.71Q52.57 35.53 52.57 33.74L52.58 33.75L52.44 33.61Q52.59 33.42 52.52 33.04L52.36 32.88L52.49 33.01Q52.16 27.77 48.35 27.69ZM48.33 40.23L48.36 40.27L48.19 40.10Q44.41 40.35 42.62 38.33L42.70 38.41L42.74 38.45Q42.48 39.45 42.03 40.82L41.95 40.74L42.01 40.81Q40.05 41.55 38.80 42.12L38.85 42.17L38.68 42.00Q40.89 36.07 40.89 29.56L41.01 29.68L40.96 29.63Q40.90 21.27 37.47 13.42L37.47 13.42L37.47 13.42Q39.80 14.76 41.13 15.22L41.23 15.32L41.30 15.39Q43.39 22.01 43.54 27.83L43.45 27.74L43.46 27.75Q44.98 25.16 48.71 25.19L48.74 25.22L48.62 25.11Q51.86 25.15 53.35 27.01L53.43 27.09L53.37 27.04Q55.21 29.34 55.36 32.92L55.39 32.95L55.26 32.81Q55.50 34.15 55.42 35.75L55.35 35.68L55.27 35.60Q55.33 37.14 54.45 38.29L54.37 38.20L54.42 38.25Q52.61 39.91 48.27 40.18ZM53.72 42.66L53.78 42.71L53.85 42.78Q55.30 42.75 56.78 42.06L56.75 42.03L56.82 42.10Q57.95 40.83 57.99 38.89L57.86 38.76L57.92 38.82Q57.90 38.30 57.74 37.12L57.73 37.11L57.71 37.09Q57.69 36.46 57.57 35.54L57.63 35.60L57.58 35.55Q56.75 30.76 55.19 28.71L55.15 28.67L55.21 28.73Q55.25 28.73 54.45 27.85L54.43 27.83L54.40 27.80Q54.06 27.42 53.53 26.62L53.56 26.65L53.71 26.81Q51.99 24.74 48.64 24.78L48.57 24.72L48.66 24.80Q46.67 24.90 45.41 25.51L45.32 25.42L45.33 25.44Q45.07 20.99 44.46 17.79L44.37 17.70L44.31 17.64Q43.74 17.63 42.25 17.25L42.11 17.11L42.12 17.12Q42.11 16.50 41.65 15.05L41.62 15.02L41.57 14.97Q39.21 14.24 36.96 12.68L36.93 12.66L36.88 12.60Q40.68 20.81 40.68 29.61L40.66 29.60L40.62 29.56Q40.60 36.50 38.12 42.70L38.29 42.87L38.14 42.72Q38.89 42.45 40.23 41.87L40.26 41.91L40.17 41.82Q40.04 42.68 39.43 44.20L39.37 44.14L39.31 44.08Q41.41 43.29 44.19 42.76L44.18 42.74L44.43 40.79L44.42 40.78Q46.85 42.60 53.78 42.72ZM49.93 29.96L50.08 30.10L49.99 30.01Q50.97 29.97 51.50 30.35L51.60 30.45L51.54 30.38Q51.94 30.97 52.17 32.99L52.06 32.89L52.08 32.90Q52.41 34.91 51.16 36.23L51.00 36.06L50.99 36.06Q49.72 37.36 47.78 37.25L47.95 37.42L47.92 37.38Q47.01 37.54 45.53 37.05L45.40 36.92L45.45 36.97Q45.18 36.44 45.18 35.90L45.29 36.01L45.31 36.03Q45.22 32.86 46.78 31.26L46.87 31.35L46.86 31.38L46.70 31.22Q48.34 30.04 50.09 30.11Z"/><path fill="#222" d="M101.61 41.04L101.42 40.85L101.48 40.91Q100.14 39.19 98.85 36.11L98.94 36.20L96.81 31.06L96.73 30.98Q95.19 35.03 94.58 36.33L94.62 36.37L94.66 36.41Q93.19 39.32 91.59 41.22L91.48 41.12L91.64 41.27Q91.15 41.17 90.39 41.28L90.42 41.31L90.50 41.39Q90.39 33.86 84.57 27.92L84.60 27.95L84.52 27.87Q82.91 26.19 80.89 24.70L80.88 24.68L80.87 24.68Q82.60 25.12 84.47 25.42L84.59 25.54L84.54 25.49Q90.67 30.52 92.12 36.76L92.04 36.68L92.06 36.70Q93.04 34.95 94.22 31.75L94.10 31.62L94.20 31.73Q95.45 27.87 96.02 26.58L96.13 26.68L97.39 26.54L97.52 26.67Q98.41 28.40 99.59 31.68L99.59 31.67L99.41 31.49Q100.76 35.16 101.41 36.57L101.54 36.70L101.37 36.54Q103.36 30.41 108.84 25.85L108.70 25.71L108.75 25.76Q109.98 25.69 112.72 25.12L112.78 25.18L112.71 25.11Q103.95 31.01 102.77 40.98L102.85 41.06L102.17 40.92L102.13 40.88Q101.86 40.91 101.51 40.94ZM104.48 43.37L106.64 43.67L106.50 43.53Q106.18 41.99 106.18 40.47L106.28 40.57L106.26 40.55Q106.16 37.22 107.57 33.98L107.56 33.97L107.61 34.02Q109.73 29.63 113.84 26.54L113.65 26.36L113.70 26.41Q112.56 26.75 110.70 27.10L110.72 27.12L110.74 27.13Q112.62 25.40 113.91 24.49L113.91 24.48L111.42 24.96L111.50 25.04Q110.25 25.24 108.91 25.39L108.79 25.26L108.96 25.43Q103.70 29.58 101.76 34.60L101.80 34.64L101.69 34.53Q101.02 32.34 99.65 28.08L99.79 28.22L99.74 28.16Q99.45 28.22 99.18 28.22L99.11 28.14L98.69 28.25L98.57 28.14Q98.54 27.92 97.74 26.17L97.69 26.12L95.63 26.11L95.73 26.22Q94.77 29.02 92.67 34.65L92.53 34.51L92.67 34.65Q91.27 30.89 88.18 27.61L88.28 27.71L88.14 27.57Q87.95 27.64 87.64 27.60L87.64 27.60L87.03 27.45L86.96 27.38Q86.19 26.65 84.40 25.05L84.44 25.09L84.42 25.07Q81.32 24.48 79.65 23.99L79.64 23.98L79.54 23.88Q90.33 31.40 89.95 41.71L90.01 41.77L89.98 41.75Q90.05 41.62 90.41 41.59L90.54 41.71L90.45 41.62Q90.91 41.69 91.10 41.69L90.98 41.56L91.09 41.68Q91.15 41.58 91.34 43.68L91.24 43.58L93.14 43.38L93.24 43.48Q95.77 40.61 98.02 34.86L98.07 34.91L97.97 34.81Q99.50 38.70 101.36 41.36L101.40 41.40L101.41 41.41Q101.59 41.25 101.86 41.27L102.00 41.41L101.85 41.26Q102.21 41.38 102.48 41.38L102.39 41.29L104.60 43.50Z"/><path fill="#111" d="M121.29 30.38L121.29 30.38L121.33 30.42Q117.88 36.79 114.45 40.75L114.40 40.70L114.33 40.63Q112.52 41.10 110.08 41.98L110.11 42.01L110.19 42.08Q115.06 36.44 119.82 28.03L119.77 27.98L119.86 28.08Q115.14 20.99 109.16 14.60L109.19 14.62L109.30 14.74Q112.14 15.86 114.42 16.36L114.33 16.27L114.37 16.30Q118.97 21.48 121.41 25.44L121.54 25.57L121.56 25.59Q124.11 21.21 128.03 16.79L127.86 16.62L128.01 16.77Q129.56 16.42 132.76 15.66L132.72 15.62L132.72 15.62Q126.68 22.10 123.21 28.04L123.23 28.06L123.22 28.04Q128.33 36.66 132.71 41.23L132.81 41.33L132.65 41.17Q130.05 40.36 127.96 40.13L128.07 40.24L128.06 40.24Q125.31 37.29 121.39 30.48ZM128.03 40.62L127.92 40.51L127.92 40.51Q128.24 40.57 128.70 40.68L128.65 40.63L128.79 40.77Q129.63 41.58 131.16 43.18L131.13 43.15L131.15 43.17Q134.46 43.93 137.50 45.30L137.50 45.30L137.39 45.19Q130.28 38.61 125.18 29.85L125.17 29.84L125.22 29.90Q129.07 23.35 134.97 16.49L134.95 16.48L134.86 16.39Q133.49 17.11 131.32 17.64L131.24 17.56L131.32 17.64Q132.22 16.75 133.97 14.96L133.89 14.89L133.81 14.81Q131.46 15.72 127.76 16.30L127.75 16.28L127.86 16.39Q124.44 20.20 121.85 24.51L121.74 24.40L121.73 24.38Q120.94 22.91 119.76 21.43L119.58 21.25L117.42 18.44L116.94 18.34L117.01 18.41Q116.88 18.43 116.65 18.35L116.68 18.38L116.61 18.31Q115.88 17.43 114.39 15.87L114.43 15.91L114.54 16.02Q110.69 15.10 108.10 13.73L108.07 13.70L108.16 13.79Q114.86 21.02 119.43 28.06L119.36 27.99L119.33 27.97Q114.89 36.20 109.14 42.79L109.15 42.79L109.04 42.69Q110.55 42.21 112.68 41.64L112.70 41.66L111.40 43.10L111.37 43.08Q111.34 43.04 110.00 44.37L109.89 44.26L109.98 44.34Q112.92 43.22 116.08 42.72L116.21 42.85L116.11 42.75Q120.22 38.34 122.81 33.58L122.65 33.42L122.73 33.49Q125.24 37.68 127.94 40.53Z"/></svg>