<svg xmlns="http://www.w3.org/2000/svg" width="150" height="50" viewBox="0,0,150,50"><path fill="#333" d="M46.58 41.17L46.62 41.20L44.88 41.18L44.81 41.11Q41.54 41.23 40.59 39.09L40.44 38.95L40.47 38.97Q41.61 37.91 43.05 36.80L43.17 36.92L43.05 36.80Q43.77 39.12 46.63 38.97L46.61 38.95L46.48 38.82Q47.41 38.91 48.43 38.68L48.40 38.64L48.34 38.59Q49.29 38.09 49.22 37.14L49.31 37.23L49.26 37.18Q49.12 36.01 47.33 35.33L47.29 35.29L43.55 33.83L43.52 33.80Q41.32 32.60 40.98 29.06L40.88 28.95L40.83 28.90Q40.66 26.80 42.83 26.23L42.89 26.29L42.88 26.28Q43.72 25.94 46.69 25.94L46.86 26.11L46.78 26.02Q51.65 26.02 52.56 28.53L52.61 28.58L52.54 28.51Q51.95 29.10 51.23 29.56L51.30 29.63L49.86 30.56L49.69 30.38Q49.28 28.56 46.04 28.33L46.02 28.32L46.04 28.33Q45.49 28.39 44.46 28.81L44.50 28.85L44.52 28.86Q43.81 29.07 43.81 30.17L43.95 30.31L43.80 30.17Q44.21 31.29 46.03 31.98L46.10 32.04L46.07 32.01Q47.19 32.45 49.85 33.55L49.81 33.51L49.86 33.56Q51.55 34.26 51.74 36.81L51.84 36.91L51.72 36.79Q51.88 37.52 51.80 38.51L51.78 38.49L51.83 38.54Q51.77 39.39 51.20 40.04L51.19 40.02L51.18 40.02Q49.59 41.13 46.55 41.13ZM51.26 43.68L51.27 43.68L51.23 43.64Q52.16 43.71 53.54 43.40L53.67 43.54L53.53 43.39Q54.61 42.73 54.42 41.51L54.44 41.53L54.56 41.65Q54.37 40.97 54.07 39.37L54.06 39.36L54.18 39.48Q53.61 36.51 51.82 35.29L51.81 35.29L51.87 35.34Q51.20 33.80 49.94 33.07L50.01 33.14L49.96 33.09Q48.77 32.74 46.30 31.78L46.28 31.77L46.28 31.77Q46.43 31.30 46.69 31.19L46.73 31.22L46.67 31.17Q47.29 30.72 47.94 30.69L48.01 30.76L47.89 30.63Q48.65 30.56 49.41 30.82L49.57 30.98L49.55 31.04L49.63 31.00L49.92 31.10L49.86 31.08L49.74 30.97Q51.02 31.63 51.21 32.89L51.15 32.83L51.08 32.77Q52.33 31.92 54.24 30.25L54.21 30.22L54.29 30.30Q53.97 29.52 52.98 28.34L53.06 28.42L53.04 28.40Q51.98 25.78 46.88 25.67L46.75 25.54L46.85 25.64Q43.64 25.55 41.66 26.13L41.60 26.06L41.59 26.05Q40.21 26.65 40.44 28.74L40.56 28.86L40.40 28.70Q40.60 30.05 41.51 32.14L41.52 32.14L41.41 32.04Q42.00 33.20 43.03 33.92L42.99 33.88L43.09 33.99Q43.69 35.39 44.99 36.07L45.08 36.17L45.08 36.16Q45.99 36.39 46.94 36.77L46.84 36.67L48.75 37.44L48.94 37.62Q48.47 38.60 46.53 38.49L46.50 38.46L46.64 38.60Q46.15 38.61 44.93 38.30L44.86 38.23L44.88 38.10L44.74 38.18L44.84 38.29Q43.87 37.81 43.22 36.32L43.21 36.31L43.22 36.32Q41.18 37.98 40.08 39.12L40.01 39.05L39.94 38.98Q40.22 39.87 41.25 40.67L41.29 40.71L41.23 40.96L41.16 40.89Q42.62 43.03 46.85 43.41L46.77 43.34L46.85 43.42Q47.98 43.41 51.22 43.64Z"/><path fill="#444" d="M21.69 40.90L21.82 41.04L21.74 40.96Q17.64 29.78 12.50 24.79L12.38 24.67L12.46 24.74Q13.92 25.37 16.89 26.02L16.83 25.96L16.98 26.11Q20.48 29.98 23.03 36.65L22.93 36.54L23.01 36.63Q25.70 29.31 28.33 26.26L28.22 26.15L28.21 26.14Q30.22 26.07 32.66 25.38L32.65 25.37L32.61 25.33Q29.48 28.10 27.31 32.67L27.41 32.77L27.27 32.63Q27.05 33.44 23.66 41.05L23.69 41.08L23.54 40.93Q23.04 41.11 21.82 41.03ZM26.49 43.49L26.46 43.47L26.38 43.39Q29.77 31.13 34.34 26.45L34.39 26.50L32.89 26.98L32.91 27.00Q32.11 27.23 31.27 27.34L31.15 27.22L31.21 27.28Q31.67 26.86 32.49 25.99L32.55 26.05L32.52 26.02Q33.34 25.14 33.79 24.72L33.86 24.79L33.78 24.71Q31.62 25.41 28.20 25.90L28.09 25.80L28.16 25.87Q25.51 29.12 23.45 34.71L23.30 34.56L23.31 34.57Q21.71 30.42 19.88 27.94L20.00 28.06L19.29 27.89L19.29 27.89Q19.02 27.88 18.79 27.88L18.85 27.94L18.78 27.87Q18.58 27.56 16.87 25.50L16.90 25.54L16.99 25.63Q13.60 25.08 11.35 23.94L11.33 23.92L11.35 23.94Q17.48 29.66 21.48 41.38L21.49 41.39L22.41 41.33L22.47 41.38Q22.78 41.99 23.62 43.29L23.72 43.39L25.13 43.43L25.13 43.43Q25.70 43.28 26.35 43.36Z"/><path fill="#333" d="M71.13 40.10L71.18 40.15L68.88 33.40L68.76 33.27Q64.42 20.72 58.49 14.32L58.45 14.28L58.55 14.39Q60.46 15.34 63.05 15.95L63.11 16.02L63.08 15.98Q68.23 22.27 72.57 35.02L72.58 35.03L72.50 34.96Q75.60 26.90 76.29 25.31L76.23 25.25L76.37 25.39Q78.71 19.73 81.53 16.42L81.47 16.37L81.50 16.40Q83.68 16.15 86.31 15.27L86.29 15.25L86.29 15.25Q81.74 19.87 78.69 27.10L78.71 27.12L78.52 26.93Q77.15 30.63 73.46 40.14L73.51 40.20L73.50 40.18Q73.03 40.28 72.46 40.25L72.41 40.20L72.46 40.25Q71.70 40.06 71.13 40.09ZM76.28 42.66L76.23 42.61L76.30 42.68Q78.98 32.57 80.54 28.54L80.65 28.64L80.68 28.68Q83.52 20.81 87.93 15.94L87.99 16.00L88.02 16.03Q87.01 16.42 84.91 17.14L84.87 17.10L86.03 15.79L86.01 15.77Q86.68 15.18 87.29 14.53L87.12 14.36L87.18 14.43Q84.40 15.45 81.39 16.02L81.31 15.94L81.34 15.97Q77.01 21.35 73.13 32.81L73.05 32.73L73.13 32.80Q69.41 22.62 66.21 18.24L66.19 18.22L66.29 18.32Q65.89 18.23 65.02 18.07L65.11 18.17L65.02 18.08Q64.77 17.67 63.17 15.62L63.27 15.72L63.26 15.71Q60.15 14.84 57.45 13.43L57.53 13.52L57.47 13.46Q64.24 20.68 68.62 33.47L68.56 33.41L68.58 33.43Q69.70 36.99 70.88 40.57L71.00 40.70L70.92 40.61Q71.28 40.67 72.12 40.55L72.16 40.60L72.19 40.63Q72.42 41.20 73.10 42.53L73.18 42.61L73.19 42.61Q73.94 42.45 74.66 42.53L74.69 42.55L74.66 42.53Q75.54 42.68 76.30 42.68Z"/><path fill="#222" d="M100.26 41.29L100.31 41.33L97.26 41.15L97.27 41.16Q94.90 41.06 94.10 40.95L94.05 40.90L94.10 40.95Q92.18 40.52 91.00 39.64L91.08 39.72L90.93 39.58Q89.66 38.19 89.43 34.84L89.49 34.90L89.44 34.85Q89.36 34.31 89.29 33.09L89.28 33.09L89.39 33.20Q89.44 32.83 89.37 31.73L89.33 31.69L89.38 31.74Q89.28 30.85 89.32 30.12L89.25 30.05L89.23 30.03Q89.53 28.20 90.56 27.44L90.54 27.42L90.55 27.43Q92.51 26.30 97.34 26.07L97.23 25.96L97.21 25.94Q99.40 26.00 100.20 26.00L100.11 25.91L100.10 25.90Q101.65 25.96 103.02 26.27L102.87 26.12L102.92 26.17Q102.39 27.47 101.86 29.30L101.87 29.31L101.83 29.27Q101.28 29.29 100.79 29.25L100.87 29.34L100.96 29.42Q100.66 29.21 100.13 29.09L100.23 29.19L99.24 28.92L99.20 28.89Q98.29 28.77 97.68 28.81L97.66 28.79L97.59 28.72Q92.82 28.74 92.21 31.56L92.21 31.56L92.24 31.59Q91.96 32.72 92.04 33.67L92.04 33.67L92.16 33.80Q92.31 36.38 93.55 37.47L93.44 37.36L93.51 37.43Q94.71 38.48 97.29 38.51L97.24 38.46L97.31 38.52Q98.71 38.48 99.44 38.18L99.54 38.29L100.50 37.72L100.49 37.71Q101.01 37.47 101.58 37.39L101.69 37.50L101.67 37.48Q101.85 39.23 102.23 40.52L102.17 40.46L102.34 40.62Q102.11 41.00 100.32 41.34ZM103.56 44.28L103.46 44.18L103.37 44.09Q103.82 44.20 104.65 44.27L104.77 44.39L104.72 44.34Q105.25 44.26 105.59 43.69L105.69 43.78L105.75 43.85Q104.50 41.72 104.00 39.63L103.94 39.56L103.93 39.56Q103.64 39.57 103.19 39.57L103.21 39.59L103.08 39.47Q102.66 39.46 102.28 39.65L102.29 39.66L102.29 39.67Q101.99 38.45 101.84 37.04L101.94 37.14L101.93 37.13Q101.26 37.00 100.04 37.57L100.04 37.56L100.10 37.63Q98.72 38.03 98.22 38.03L98.29 38.10L98.38 38.19Q97.95 38.25 97.34 38.21L97.23 38.11L97.26 38.14Q96.33 38.08 94.35 37.51L94.36 37.52L94.28 37.44Q94.07 36.85 94.11 35.71L94.07 35.67L94.00 35.59Q94.30 31.48 99.25 30.95L99.12 30.82L99.28 30.98Q99.84 30.86 101.21 31.20L101.36 31.34L101.28 31.27Q102.62 31.58 103.34 31.54L103.33 31.53L103.40 31.60Q103.74 29.27 104.43 27.45L104.50 27.53L104.52 27.54Q104.07 27.36 103.69 27.29L103.62 27.21L102.92 27.20L102.85 27.13Q103.06 26.65 103.44 25.77L103.42 25.75L103.42 25.76Q101.91 25.43 100.35 25.43L100.37 25.44L100.40 25.47Q98.05 25.53 93.68 25.91L93.56 25.80L93.57 25.80Q91.72 26.04 90.15 27.03L90.10 26.98L90.17 27.04Q88.95 28.00 88.95 29.90L88.88 29.83L89.01 29.96Q89.01 30.38 89.12 31.60L88.95 31.42L88.99 31.47Q89.13 32.56 89.09 33.16L89.09 33.16L89.01 33.08Q89.21 35.15 89.93 38.88L89.87 38.82L89.80 38.75Q90.31 39.71 90.80 40.20L90.66 40.07L91.00 40.40L91.00 40.37L91.06 40.43Q92.04 42.51 95.96 43.12L95.99 43.15L95.95 43.11Q99.16 43.65 101.82 43.91L101.78 43.88L101.84 43.93Q102.55 43.92 103.46 44.18Z"/><path fill="#333" d="M117.05 40.26L117.16 40.38L117.15 40.36Q115.77 40.47 114.21 40.05L114.24 40.08L114.19 40.03Q112.87 39.02 112.72 37.38L112.72 37.38L112.86 37.52Q112.78 37.28 112.97 34.66L112.90 34.59L112.98 34.67Q113.94 34.41 115.96 34.03L115.98 34.05L115.85 34.88L115.81 34.84Q115.43 36.47 116.84 37.04L116.85 37.06L116.94 37.14Q117.77 37.52 119.86 37.52L119.74 37.40L119.82 37.47Q121.48 37.39 121.67 37.31L121.70 37.33L121.54 37.18Q122.58 37.15 123.30 36.66L123.31 36.66L123.26 36.61Q124.73 35.72 124.54 33.63L124.55 33.64L124.39 33.48Q124.37 31.21 122.63 29.65L122.56 29.58L122.53 29.55Q120.77 27.96 118.30 27.96L118.37 28.03L118.27 27.70L118.26 27.69Q118.80 27.82 119.68 27.74L119.51 27.57L119.68 27.74Q121.51 27.56 122.88 26.32L122.83 26.27L122.86 26.30Q124.25 25.08 124.40 23.21L124.30 23.11L124.43 23.24Q124.44 22.83 124.44 22.49L124.42 22.47L124.38 22.43Q124.40 20.92 123.02 20.01L123.07 20.06L123.15 20.13Q121.92 19.33 120.32 19.44L120.33 19.44L120.35 19.47Q118.90 19.16 117.69 19.58L117.76 19.65L117.71 19.61Q116.35 20.22 116.04 21.36L116.11 21.43L116.03 21.35Q115.90 22.17 115.97 22.93L115.98 22.94L115.93 22.88Q114.81 22.57 112.75 21.84L112.82 21.91L112.86 21.95Q112.65 20.29 112.69 19.45L112.55 19.32L112.62 19.39Q112.70 17.83 113.76 17.14L113.85 17.23L113.87 17.25Q115.14 16.50 116.74 16.50L116.87 16.63L116.86 16.63Q120.05 16.61 123.21 16.88L123.22 16.89L123.23 16.90Q128.19 17.22 127.89 20.99L127.92 21.03L127.90 21.00Q127.89 22.55 127.39 24.11L127.24 23.96L127.41 24.13Q126.48 27.20 124.12 28.11L124.01 28.00L124.15 28.14Q126.75 28.65 127.36 32.00L127.24 31.88L127.29 31.93Q127.45 33.00 127.53 35.02L127.62 35.11L127.52 35.01Q127.81 39.60 123.20 40.06L123.08 39.94L123.18 40.03Q122.50 40.15 117.21 40.42ZM122.29 42.53L122.26 42.51L122.35 42.59Q122.87 42.54 125.73 42.62L125.77 42.66L125.90 42.79Q127.51 42.72 129.14 42.08L129.15 42.08L129.21 42.14Q130.45 41.26 130.26 39.50L130.26 39.50L130.20 39.45Q130.10 38.12 129.80 36.37L129.68 36.26L129.86 36.44Q129.12 31.93 127.18 30.29L127.06 30.17L126.93 29.85L126.85 29.73L126.92 29.81Q128.63 28.32 129.39 23.94L129.38 23.93L129.45 24.00Q129.38 23.43 129.49 22.48L129.50 22.48L129.62 22.60Q129.63 21.78 129.56 21.10L129.51 21.05L129.61 21.15Q129.39 19.40 128.09 18.72L128.16 18.79L128.05 18.75L128.08 18.78Q127.74 17.76 126.60 17.23L126.59 17.22L126.67 17.29Q124.97 16.44 119.84 16.13L119.90 16.20L119.92 16.22Q118.31 16.21 116.71 16.21L116.58 16.08L116.57 16.07Q115.01 16.11 113.49 16.76L113.50 16.76L113.49 16.75Q112.38 17.62 112.38 19.37L112.31 19.31L112.34 19.33Q112.33 18.91 112.60 22.26L112.54 22.20L112.63 22.29Q112.94 22.38 114.58 22.99L114.47 22.88L114.41 22.81Q114.41 23.35 114.37 23.85L114.44 23.91L114.52 23.99Q114.44 24.40 114.48 24.94L114.50 24.96L114.59 25.05Q116.35 25.40 118.36 25.51L118.30 25.45L118.35 25.50Q118.23 23.44 119.34 22.60L119.42 22.69L119.27 22.54Q120.13 21.91 122.15 21.69L122.11 21.64L122.11 21.65Q123.24 21.64 123.81 21.83L123.82 21.83L123.81 21.82Q123.94 22.03 123.98 22.15L124.04 22.20L124.01 22.37L124.12 22.94L124.03 22.84Q124.16 23.16 124.12 23.31L123.98 23.17L124.05 23.24Q123.96 24.95 122.44 26.13L122.53 26.21L122.43 26.11Q121.50 27.02 119.49 27.21L119.62 27.34L119.45 27.17Q118.82 27.42 117.94 27.42L118.00 27.47L117.97 27.44Q117.91 27.68 118.06 28.37L118.17 28.48L118.07 28.38Q119.93 28.48 121.37 29.21L121.40 29.23L121.21 29.16L119.69 29.39L119.68 29.38Q119.60 29.60 119.71 30.21L119.73 30.23L119.83 30.33Q121.87 30.16 123.58 31.49L123.67 31.58L123.58 31.49Q123.81 31.87 124.12 33.51L124.13 33.52L124.21 33.61Q124.42 36.56 121.49 36.98L121.52 37.01L121.42 36.90Q119.34 37.19 118.77 37.15L118.73 37.11L118.86 37.24Q118.38 37.10 117.85 37.02L117.80 36.98L117.83 36.56L117.95 36.10L117.89 35.62L118.01 35.40L118.06 35.45Q116.92 35.34 116.13 35.53L116.16 35.57L116.20 35.61Q116.08 35.30 116.08 35.11L116.20 35.22L116.18 35.21Q116.13 34.93 116.13 34.70L116.25 34.82L116.21 34.78Q116.35 34.46 116.50 33.74L116.33 33.56L116.50 33.73Q114.50 33.83 112.64 34.17L112.64 34.17L112.60 34.14Q112.67 34.70 112.55 35.83L112.53 35.80L112.62 35.89Q112.52 37.03 112.52 37.64L112.40 37.52L112.37 37.48Q112.51 39.60 113.88 40.37L113.80 40.29L113.94 40.43Q115.36 42.64 120.08 42.45L120.05 42.42L120.02 42.40Q120.82 42.44 122.34 42.59Z"/></svg>