<svg xmlns="http://www.w3.org/2000/svg" width="150" height="50" viewBox="0,0,150,50"><path fill="#333" d="M21.86 40.16L21.92 40.22L19.41 33.26L19.49 33.34Q15.16 20.79 9.22 14.39L9.22 14.39L9.09 14.26Q11.12 15.34 13.71 15.95L13.69 15.92L13.72 15.96Q18.99 22.37 23.33 35.12L23.32 35.11L23.34 35.14Q26.33 26.97 27.02 25.37L26.95 25.31L27.05 25.41Q29.48 19.84 32.29 16.52L32.20 16.43L32.24 16.47Q34.32 16.11 36.94 15.24L36.85 15.14L36.82 15.11Q32.27 19.73 29.22 26.97L29.33 27.07L29.33 27.08Q27.84 30.65 24.15 40.17L24.24 40.26L24.16 40.18Q23.66 40.25 23.09 40.21L22.96 40.08L22.94 40.06Q22.44 40.13 21.87 40.17ZM26.82 42.53L26.97 42.69L27.00 42.71Q29.75 32.68 31.31 28.64L31.31 28.64L31.25 28.58Q34.22 20.85 38.64 15.97L38.77 16.11L38.62 15.96Q37.59 16.34 35.49 17.06L35.63 17.20L36.74 15.83L36.64 15.73Q37.20 15.04 37.81 14.39L37.92 14.50L37.91 14.49Q35.04 15.43 32.03 16.00L32.06 16.02L32.02 15.98Q27.75 21.42 23.86 32.88L23.69 32.71L23.69 32.71Q20.19 22.73 16.99 18.35L16.91 18.27L16.91 18.27Q16.49 18.15 15.61 18.00L15.72 18.11L15.64 18.03Q15.44 17.68 13.84 15.62L13.95 15.73L13.86 15.64Q10.80 14.82 8.09 13.41L8.15 13.47L8.26 13.58Q14.90 20.67 19.27 33.46L19.13 33.32L19.17 33.36Q20.31 36.94 21.49 40.52L21.67 40.70L21.51 40.53Q21.87 40.59 22.71 40.48L22.82 40.59L22.84 40.61Q23.21 41.33 23.90 42.66L23.92 42.68L23.90 42.65Q24.69 42.54 25.42 42.62L25.42 42.62L25.44 42.64Q26.16 42.63 26.92 42.63Z"/><path fill="#222" d="M94.80 28.83L94.83 28.85L94.90 28.93Q92.44 29.02 91.42 30.20L91.33 30.11L91.33 30.11Q90.39 31.38 90.39 34.01L90.22 33.84L90.35 33.97Q90.23 38.94 94.83 38.75L94.89 38.81L94.94 38.86Q97.02 39.04 98.37 37.48L98.38 37.48L98.35 37.46Q99.74 35.94 99.51 33.88L99.38 33.74L99.44 33.81Q99.53 31.34 98.65 30.32L98.51 30.17L98.67 30.34Q97.04 28.86 94.83 28.86ZM99.93 38.71L100.00 38.78L99.87 38.65Q98.64 41.08 93.96 41.08L94.15 41.27L92.55 41.12L92.62 41.19Q90.28 41.21 89.18 40.06L89.17 40.06L89.23 40.12Q88.13 39.01 87.86 36.62L87.78 36.53L87.88 36.64Q87.75 35.17 87.67 33.38L87.69 33.40L87.53 33.24Q87.50 32.26 87.35 30.32L87.46 30.43L87.52 30.49Q87.40 26.18 92.58 26.18L92.40 26.01L94.02 26.07L94.04 26.08Q96.89 26.04 98.98 27.34L99.06 27.41L98.98 27.33Q99.83 27.88 100.32 28.56L100.38 28.62L100.32 28.56Q100.60 27.77 101.13 26.13L101.23 26.23L101.13 26.13Q102.32 25.92 104.65 25.31L104.63 25.29L104.73 25.39Q102.05 29.52 102.05 34.78L102.07 34.80L102.13 34.86Q102.13 38.59 103.50 41.67L103.48 41.65L103.40 41.57Q102.28 41.29 100.37 41.06L100.34 41.02L100.48 41.17Q100.23 40.27 99.92 38.71ZM103.17 43.86L103.27 43.96L105.41 44.46L105.35 44.40Q106.68 44.81 107.67 45.27L107.66 45.26L107.58 45.18Q103.94 40.86 103.94 34.77L104.02 34.85L104.06 34.88Q103.99 30.28 106.12 26.48L106.10 26.46L106.15 26.51Q105.43 26.66 104.10 27.04L104.17 27.11L104.17 27.12Q104.59 26.43 105.47 24.91L105.32 24.77L105.27 24.71Q104.82 25.03 100.83 25.87L100.72 25.76L100.24 27.68L100.20 27.64Q98.36 25.83 93.94 25.60L93.94 25.61L94.04 25.71Q92.86 25.67 90.62 25.82L90.74 25.95L90.64 25.84Q86.97 26.21 87.08 30.24L87.13 30.29L87.18 30.34Q87.11 33.47 87.68 37.92L87.76 38.00L87.82 38.48L87.83 38.49Q88.01 39.40 88.81 40.50L88.79 40.47L88.66 40.35Q88.87 40.56 89.06 40.67L89.11 40.73L89.08 40.69Q89.35 41.19 89.73 41.76L89.78 41.81L89.82 41.85Q91.22 43.36 94.61 43.55L94.59 43.53L94.58 43.53Q96.19 43.61 96.34 43.61L96.31 43.58L97.84 43.55L97.84 43.55Q100.98 43.49 102.19 41.93L102.24 41.98L102.36 42.09Q102.61 42.61 103.22 43.91ZM96.64 31.12L96.60 31.08L96.61 31.09Q98.08 31.22 98.91 31.68L98.95 31.72L98.91 31.67Q99.17 32.43 99.17 33.88L99.11 33.82L99.11 33.82Q99.38 35.80 98.10 37.23L98.13 37.26L98.10 37.22Q96.89 38.72 94.99 38.53L94.98 38.52L94.81 38.35Q93.42 38.41 92.39 37.99L92.46 38.05L92.33 37.93Q92.14 37.09 92.14 35.87L92.16 35.90L92.23 35.96Q92.37 32.45 95.00 31.50L95.06 31.56L94.97 31.47Q95.98 31.26 96.78 31.26Z"/><path fill="#222" d="M50.73 30.91L50.71 30.89L50.66 30.84Q50.86 29.51 50.04 28.60L49.99 28.55L50.01 28.57Q49.16 27.63 47.71 27.66L47.76 27.71L47.72 27.67Q45.33 27.67 44.49 29.80L44.48 29.80L44.61 29.93Q44.29 30.67 44.25 31.36L44.15 31.26L44.26 31.37Q44.03 36.20 43.12 40.54L43.02 40.45L43.15 40.57Q41.43 41.06 39.57 42.05L39.59 42.08L39.48 41.97Q41.89 35.12 41.62 27.81L41.63 27.82L41.53 27.72Q41.29 20.40 38.74 13.59L38.77 13.62L38.73 13.57Q40.52 14.91 42.53 15.59L42.47 15.53L42.50 15.56Q44.02 21.42 44.21 27.28L44.15 27.22L44.15 27.22Q45.58 25.18 48.28 25.26L48.20 25.18L48.29 25.27Q53.43 25.42 53.54 30.79L53.50 30.74L53.41 30.65Q53.52 36.32 54.89 40.97L54.97 41.05L54.94 41.02Q53.10 40.21 51.35 40.02L51.40 40.07L51.40 40.07Q50.84 36.77 50.73 30.90ZM50.94 40.26L50.99 40.31L51.13 40.44Q52.12 40.53 53.23 40.79L53.13 40.70L53.12 40.68Q53.33 41.01 53.87 42.99L53.72 42.85L53.79 42.92Q56.75 43.85 58.76 45.30L58.69 45.23L58.83 45.36Q56.11 39.57 55.58 33.25L55.50 33.16L55.50 33.16Q55.20 29.47 53.79 27.91L53.86 27.98L53.88 28.00Q53.82 27.87 53.17 27.41L53.18 27.42L53.09 27.33Q52.92 26.90 52.28 26.13L52.30 26.16L52.28 26.06L52.33 26.12Q51.45 25.23 48.33 24.96L48.22 24.86L48.22 24.85Q47.48 24.84 46.07 25.18L46.08 25.19L46.25 25.36Q45.92 20.39 45.58 17.88L45.51 17.81L45.55 17.85Q44.86 17.80 43.38 17.50L43.30 17.43L43.25 17.38Q43.17 16.72 42.90 15.24L42.89 15.22L42.95 15.29Q39.90 14.21 38.03 12.65L38.00 12.62L38.01 12.63Q41.00 19.80 41.26 27.61L41.25 27.60L41.36 27.71Q41.58 35.42 39.03 42.77L39.06 42.81L39.07 42.81Q39.96 42.18 41.10 41.68L41.12 41.70L40.29 43.88L40.45 44.04Q43.53 42.66 45.51 42.47L45.49 42.45L45.40 42.37Q45.99 36.98 46.18 33.02L46.28 33.12L46.28 33.12Q46.42 31.32 48.36 30.21L48.27 30.12L48.34 30.20Q48.71 29.80 49.24 29.84L49.40 30.00L49.40 29.99Q49.37 29.81 49.71 29.85L49.89 30.02L50.30 30.09L50.31 30.11Q50.28 30.45 50.39 30.91L50.45 30.98L50.33 30.85Q50.50 36.88 50.99 40.31Z"/><path fill="#333" d="M72.60 40.12L72.65 40.17L72.73 40.25Q70.73 40.04 69.05 40.61L69.10 40.65L69.18 40.74Q69.66 37.07 69.77 33.95L69.77 33.94L69.71 33.89Q69.98 30.99 69.75 27.34L69.76 27.34L69.69 27.27Q68.34 26.96 67.58 26.57L67.48 26.47L67.04 23.41L67.01 23.38Q67.82 24.07 69.42 24.64L69.56 24.79L69.47 24.70Q69.31 22.63 68.89 19.89L68.81 19.81L68.74 19.74Q71.01 20.41 72.65 20.26L72.70 20.31L72.62 24.95L72.65 24.98Q74.11 24.96 75.45 24.47L75.46 24.48L75.47 24.49Q75.32 25.29 75.09 27.05L75.20 27.15L75.18 27.13Q73.54 27.36 72.51 27.36L72.49 27.34L72.49 27.33Q72.50 29.51 72.50 33.78L72.55 33.83L72.53 33.81Q72.54 37.97 72.61 40.14ZM75.69 23.72L75.69 23.72L75.88 23.91Q75.58 23.99 74.97 24.22L74.98 24.23L75.25 21.33L75.20 21.29Q74.58 21.77 73.17 22.00L73.14 21.97L73.00 21.83Q73.01 21.15 73.16 19.78L73.31 19.93L73.23 19.85Q72.61 19.92 72.04 19.92L72.14 20.01L72.06 19.94Q69.91 19.92 68.28 19.20L68.20 19.12L68.31 19.23Q68.75 21.65 69.01 24.12L68.97 24.08L69.04 24.15Q68.18 23.83 66.66 22.80L66.74 22.88L66.58 22.72Q67.07 24.16 67.30 26.86L67.17 26.73L67.27 26.84Q67.72 27.05 68.90 27.47L68.96 27.53L68.94 27.52Q68.90 28.08 68.93 29.49L68.95 29.51L69.23 29.44L69.52 29.66L69.50 29.63Q69.52 30.83 69.52 32.01L69.52 32.02L69.55 32.05Q69.38 36.83 68.58 41.17L68.68 41.27L68.73 41.31Q68.91 41.19 70.85 40.66L70.71 40.52L70.77 40.58Q70.79 41.25 70.68 42.62L70.70 42.64L70.81 42.75Q71.43 42.49 72.23 42.49L72.41 42.67L72.32 42.59Q74.02 42.57 75.66 43.15L75.69 43.17L75.59 43.07Q74.43 37.54 74.62 29.62L74.47 29.47L76.90 29.11L76.99 29.21Q76.98 28.21 77.06 27.18L77.04 27.16L77.36 25.27L77.22 25.14Q76.78 25.53 75.60 25.99L75.55 25.94L75.51 25.90Q75.91 24.66 75.83 24.32L75.85 24.33L75.69 24.18Q75.79 24.09 75.86 23.89Z"/><path fill="#222" d="M119.78 29.90L119.80 29.92L119.78 29.90Q119.58 29.92 119.27 29.92L119.28 29.93L119.11 29.77Q117.88 29.87 116.44 30.70L116.48 30.75L116.48 30.75Q115.16 31.87 115.16 33.77L114.98 33.59L115.01 33.62Q115.11 37.15 116.64 38.48L116.63 38.48L116.60 38.45Q117.62 39.70 119.91 39.70L119.89 39.68L119.78 39.57Q120.17 39.73 120.48 39.73L120.45 39.71L120.42 39.68Q122.03 39.57 123.17 37.94L123.26 38.03L123.31 38.08Q124.34 36.56 124.27 34.77L124.18 34.67L124.18 34.67Q124.20 34.17 124.20 33.75L124.30 33.85L124.26 33.80Q124.37 32.13 123.00 30.97L122.83 30.80L122.88 30.84Q121.56 29.73 119.77 29.88ZM124.22 40.01L124.32 40.11L124.20 39.99Q123.24 41.96 119.51 42.08L119.50 42.06L119.49 42.06Q116.01 42.08 114.41 40.48L114.50 40.57L114.54 40.61Q112.99 38.76 112.19 33.96L112.29 34.06L112.20 33.97Q111.86 32.18 111.86 30.92L111.89 30.95L111.88 30.94Q111.97 29.25 112.69 28.18L112.58 28.07L112.62 28.11Q114.11 26.85 117.08 26.85L117.02 26.80L116.94 26.71Q123.40 26.86 125.30 29.45L125.32 29.46L125.31 29.45Q125.50 28.65 125.92 27.05L125.85 26.99L125.84 26.97Q127.18 26.76 129.62 25.96L129.46 25.79L129.53 25.87Q127.09 31.50 126.86 37.82L126.86 37.81L126.79 37.74Q126.62 43.98 128.76 49.80L128.80 49.84L128.79 49.83Q127.07 49.22 125.29 48.96L125.18 48.85L125.31 48.98Q124.45 45.07 124.33 40.12ZM124.96 49.20L125.05 49.30L124.99 49.23Q125.64 49.31 127.05 49.62L127.18 49.75L127.20 49.77Q127.37 50.43 127.94 51.84L127.92 51.82L127.92 51.82Q130.57 52.60 132.85 53.90L132.91 53.95L132.77 53.82Q128.70 47.19 128.70 38.66L128.76 38.73L128.83 38.80Q128.73 32.34 131.21 26.55L131.35 26.69L131.26 26.61Q130.56 26.90 129.19 27.55L129.15 27.50L129.11 27.47Q129.44 26.69 130.09 25.13L130.21 25.26L130.18 25.22Q128.61 25.75 125.42 26.63L125.49 26.70L125.46 26.67Q125.34 27.23 125.03 28.41L124.95 28.33L125.03 28.41Q123.02 26.51 116.89 26.36L116.95 26.43L116.82 26.29Q113.62 26.22 112.25 27.70L112.30 27.75L112.28 27.73Q111.51 28.86 111.55 30.76L111.61 30.82L111.64 30.86Q111.64 33.75 112.63 37.52L112.62 37.51L112.62 37.51Q113.38 40.02 114.29 40.97L114.19 40.87L114.70 41.38L114.52 41.20Q115.80 44.08 121.25 44.31L121.30 44.36L121.30 44.36Q122.18 44.26 124.01 43.95L124.04 43.98L124.11 44.05Q124.36 46.92 124.97 49.21ZM121.59 32.13L121.53 32.07L121.64 32.17Q122.75 32.22 123.59 32.53L123.60 32.54L123.60 32.54Q123.71 32.99 123.82 33.60L123.84 33.62L123.95 33.73Q123.87 34.10 123.80 34.71L123.82 34.74L123.88 34.80Q123.91 36.73 122.88 38.02L122.84 37.99L122.91 38.05Q121.77 39.50 119.91 39.31L119.82 39.22L119.81 39.22Q118.56 39.26 117.60 38.84L117.58 38.81L117.68 38.91Q117.34 38.12 117.34 36.90L117.30 36.86L117.31 36.87Q117.25 36.50 117.25 36.20L117.16 36.11L117.27 36.22Q117.21 34.40 118.54 33.24L118.56 33.27L118.56 33.26Q119.86 32.07 121.61 32.15Z"/></svg>