<svg xmlns="http://www.w3.org/2000/svg" width="150" height="50" viewBox="0,0,150,50"><path fill="#444" d="M49.50 39.77L49.56 39.83L47.68 39.89L47.63 39.84Q46.71 39.87 45.76 39.98L45.72 39.95L45.83 40.05Q46.25 33.70 46.25 29.70L46.22 29.68L46.40 29.85Q42.42 23.17 34.77 14.49L34.72 14.44L34.61 14.33Q36.57 15.49 39.92 16.29L39.84 16.21L39.75 16.12Q44.86 21.76 47.87 26.98L47.95 27.07L47.89 27.01Q50.87 21.41 55.25 16.39L55.22 16.36L55.32 16.46Q57.70 16.02 60.21 15.22L60.20 15.21L60.12 15.14Q54.23 21.38 49.35 29.80L49.19 29.63L49.34 29.78Q49.28 36.76 49.58 39.85ZM58.75 17.34L61.39 14.42L61.38 14.42Q58.33 15.63 55.21 16.09L55.18 16.05L55.19 16.07Q50.98 20.80 48.16 25.90L48.22 25.96L48.07 25.81Q46.01 22.23 42.82 18.35L42.87 18.40L42.76 18.29Q42.61 18.41 42.11 18.33L42.08 18.30L42.06 18.28Q41.42 17.53 39.90 15.85L39.89 15.85L39.74 15.69Q36.44 15.02 33.47 13.46L33.49 13.48L33.45 13.44Q41.18 21.93 45.94 29.85L46.00 29.91L46.03 29.94Q45.92 36.26 45.31 40.41L45.16 40.26L45.26 40.36Q45.91 40.25 47.36 40.14L47.55 40.32L47.36 41.17L47.41 41.22Q47.37 41.64 47.30 42.17L47.35 42.22L47.41 42.29Q50.82 42.15 52.57 42.34L52.57 42.34L52.64 42.41Q51.41 37.76 51.30 31.78L51.27 31.75L51.31 31.79Q55.68 23.33 62.23 15.98L62.19 15.95L58.67 17.26Z"/><path fill="#444" d="M130.61 34.73L130.65 34.77L130.67 34.80Q130.68 38.38 127.52 39.67L127.47 39.62L127.40 39.55Q125.60 40.46 121.18 40.61L121.04 40.46L121.14 40.57Q116.30 40.63 114.05 39.45L113.97 39.37L114.12 39.53Q112.14 38.08 112.29 34.73L112.32 34.75L112.31 34.75Q112.35 34.13 112.54 32.15L112.61 32.22L112.53 32.14Q112.78 30.68 112.78 29.69L112.78 29.69L112.65 29.56Q112.71 21.63 108.52 14.21L108.51 14.19L108.49 14.17Q109.75 14.94 112.72 16.01L112.61 15.89L112.71 15.99Q115.46 22.59 115.46 29.97L115.61 30.13L115.55 30.06Q115.50 30.63 115.41 31.81L115.42 31.82L115.54 31.94Q115.45 33.12 115.45 33.73L115.33 33.61L115.30 33.58Q115.26 35.83 116.82 36.82L116.83 36.83L116.89 36.88Q118.57 37.73 121.54 37.73L121.43 37.62L121.49 37.68Q124.18 37.75 125.82 36.57L125.88 36.63L125.85 36.60Q127.58 35.13 127.43 32.62L127.52 32.71L127.52 32.71Q127.41 31.31 127.41 29.97L127.38 29.95L127.35 29.92Q127.33 22.84 129.72 16.33L129.87 16.48L131.90 15.77L131.92 15.79Q132.95 15.56 134.06 15.11L134.01 15.06L133.97 15.03Q130.31 22.21 130.31 29.79L130.40 29.88L130.32 29.80Q130.35 30.66 130.48 32.30L130.46 32.28L130.45 32.27Q130.54 33.86 130.54 34.66ZM132.77 35.64L132.67 35.53L132.71 35.57Q131.85 30.64 132.57 25.54L132.64 25.60L132.54 25.51Q133.34 20.37 135.74 15.99L135.70 15.95L135.81 16.06Q135.15 16.32 133.71 16.97L133.63 16.89L133.68 16.94Q133.99 16.03 134.79 14.47L134.88 14.57L134.80 14.48Q131.27 15.64 129.37 15.98L129.36 15.97L129.35 15.96Q127.18 22.66 127.18 29.93L127.12 29.88L127.15 29.90Q127.04 31.16 127.12 32.57L127.12 32.58L127.21 32.67Q127.35 35.05 125.56 36.27L125.49 36.20L125.53 36.23Q123.97 37.23 121.46 37.27L121.47 37.28L121.54 37.35Q118.80 37.43 117.36 36.67L117.30 36.61L117.23 36.54Q117.20 36.09 117.12 35.64L117.24 35.76L117.06 35.57Q117.06 35.12 117.18 34.62L117.25 34.69L117.14 34.59Q117.50 32.40 117.50 30.07L117.44 30.01L117.52 30.10Q117.42 24.17 115.90 18.27L116.00 18.37L116.03 18.40Q115.25 18.23 113.84 17.89L113.70 17.74L113.82 17.87Q113.37 16.50 112.91 15.59L112.91 15.59L112.87 15.54Q110.26 14.88 107.86 13.50L107.72 13.37L107.77 13.42Q112.50 21.12 112.50 29.83L112.46 29.79L112.35 29.68Q112.37 31.34 112.22 33.05L112.24 33.07L112.23 33.07Q112.00 35.46 112.08 36.64L112.10 36.66L112.12 36.68Q112.34 38.70 113.60 39.84L113.61 39.86L113.57 39.81Q114.45 42.17 119.09 42.55L119.17 42.63L119.17 42.63Q121.33 42.85 123.46 42.93L123.36 42.82L123.35 42.81Q128.66 42.95 131.44 42.00L131.45 42.01L131.55 42.11Q133.14 41.23 133.14 39.17L133.04 39.07L133.22 39.24Q133.22 38.10 132.76 35.63Z"/><path fill="#222" d="M102.43 28.74L102.40 28.71L96.48 28.77L96.54 28.83Q93.60 28.86 90.66 28.78L90.67 28.79L90.66 28.77Q90.67 35.37 88.62 40.89L88.69 40.97L88.75 41.03Q86.75 41.35 85.00 42.03L85.18 42.22L85.18 42.22Q87.90 36.45 87.90 29.79L87.80 29.68L87.91 29.79Q87.83 21.22 83.72 14.18L83.76 14.22L83.84 14.30Q85.38 15.12 87.85 15.92L87.68 15.74L87.81 15.88Q89.98 20.98 90.51 25.85L90.51 25.85L90.52 25.86Q93.66 26.21 96.51 26.18L96.50 26.16L96.43 26.09Q99.24 26.24 102.55 25.97L102.55 25.97L102.36 25.78Q102.89 21.44 104.65 16.34L104.66 16.36L104.63 16.33Q106.55 15.88 108.79 15.04L108.93 15.18L108.77 15.02Q105.27 21.87 105.27 29.83L105.32 29.88L105.24 29.81Q105.14 35.91 107.50 41.24L107.64 41.38L107.65 41.39Q106.08 40.81 104.02 40.50L103.91 40.39L104.04 40.52Q102.24 35.37 102.36 28.67ZM103.60 40.69L103.68 40.77L103.76 40.85Q104.79 41.01 105.90 41.27L105.80 41.18L105.86 41.23Q106.22 41.98 106.87 43.46L106.73 43.33L106.83 43.42Q110.14 44.34 111.93 45.25L111.87 45.19L111.98 45.30Q107.46 39.07 107.16 30.81L107.24 30.89L107.22 30.87Q106.91 22.83 110.56 16.02L110.50 15.95L109.54 16.51L109.42 16.40Q109.02 16.71 108.41 16.87L108.27 16.73L108.33 16.79Q108.71 15.96 109.55 14.40L109.51 14.36L109.56 14.40Q106.88 15.42 104.26 15.92L104.40 16.05L104.42 16.07Q102.74 20.91 102.28 25.59L102.24 25.55L102.15 25.45Q99.73 25.74 97.30 25.74L97.34 25.79L97.20 25.65Q94.83 25.68 92.32 25.52L92.39 25.60L92.46 25.66Q92.19 22.35 91.08 18.27L91.07 18.26L90.95 18.14Q90.43 18.19 88.98 17.81L88.87 17.70L88.90 17.73Q88.50 16.49 88.04 15.46L87.97 15.39L88.06 15.47Q85.25 14.65 82.97 13.39L83.09 13.52L83.06 13.49Q87.60 20.88 87.60 29.67L87.52 29.59L87.71 29.78Q87.54 36.58 84.42 42.71L84.46 42.75L84.51 42.80Q85.13 42.43 86.46 41.86L86.60 42.00L86.50 41.90Q86.23 42.81 85.43 44.33L85.40 44.30L85.37 44.27Q88.23 43.32 90.47 42.90L90.55 42.98L90.49 42.92Q92.33 37.34 92.52 31.17L92.51 31.16L92.55 31.20Q94.13 31.10 97.33 31.06L97.41 31.15L97.27 31.01Q100.21 31.05 102.11 31.13L102.09 31.10L102.17 31.19Q102.29 36.78 103.62 40.71Z"/><path fill="#222" d="M13.55 14.21L13.63 14.29L13.71 14.37Q17.52 16.92 22.28 17.15L22.27 17.14L22.30 17.17Q26.84 17.25 31.10 15.50L31.04 15.44L31.01 15.41Q30.84 16.04 30.08 18.82L30.04 18.78L30.11 18.85Q27.43 19.94 24.46 20.09L24.48 20.11L24.40 20.04Q21.37 20.12 18.47 19.40L18.45 19.38L18.45 19.37Q19.19 23.05 19.38 26.70L19.33 26.65L19.31 26.63Q21.34 26.87 22.94 26.83L23.06 26.95L22.99 26.88Q24.16 26.83 26.56 26.72L26.58 26.74L26.54 26.70Q26.56 27.40 26.56 28.09L26.53 28.06L26.62 29.48L26.64 29.51Q24.28 29.54 19.48 29.62L19.47 29.61L19.37 29.50Q19.47 33.71 18.89 37.71L18.77 37.58L18.80 37.62Q21.41 36.96 24.16 37.07L24.13 37.05L24.17 37.09Q26.96 37.25 29.55 38.08L29.50 38.04L29.39 37.93Q29.52 38.78 29.79 39.54L29.74 39.49L30.20 41.02L30.20 41.02Q27.07 39.80 23.64 39.80L23.66 39.81L23.58 39.74Q18.81 39.84 14.55 42.08L14.48 42.01L14.54 42.07Q16.79 35.19 16.52 28.07L16.61 28.16L16.67 28.21Q16.40 21.06 13.74 14.39ZM13.94 42.69L14.01 42.76L14.12 42.87Q15.28 42.05 16.04 41.71L16.10 41.77L16.02 41.69Q15.81 42.43 15.24 43.95L15.37 44.09L15.37 44.08Q19.87 42.07 24.93 42.34L24.95 42.36L24.85 42.26Q30.07 42.60 34.06 45.30L34.03 45.27L34.10 45.34Q32.95 42.82 32.27 40.88L32.16 40.77L32.28 40.89Q31.19 40.19 30.20 39.85L30.18 39.82L30.23 39.87Q29.89 38.54 29.74 37.74L29.65 37.66L29.77 37.77Q26.64 36.73 23.48 36.73L23.41 36.66L23.48 36.74Q22.39 36.79 21.24 36.90L21.22 36.87L21.24 36.90Q21.30 35.59 21.34 34.37L21.33 34.36L21.31 31.75L21.35 31.79Q23.23 31.76 25.02 31.80L25.03 31.82L24.96 31.75Q26.78 31.78 28.57 31.93L28.61 31.97L28.65 32.01Q28.62 31.10 28.62 30.15L28.52 30.05L28.45 28.08L27.80 28.31L27.77 28.27Q27.37 28.37 26.91 28.37L26.80 28.26L26.94 28.39Q26.77 27.54 26.92 26.24L27.09 26.41L26.99 26.32Q25.33 26.49 24.15 26.52L24.19 26.56L24.15 26.52Q23.26 26.58 21.43 26.50L21.54 26.62L21.38 26.46Q21.47 25.21 21.28 22.39L21.28 22.39L21.09 22.20Q22.12 22.32 23.11 22.32L23.29 22.50L23.29 22.50Q27.85 22.34 31.55 20.44L31.67 20.57L31.63 20.53Q32.22 18.18 33.10 15.97L33.04 15.92L32.99 15.87Q31.75 16.80 30.92 17.14L30.83 17.06L30.93 17.16Q31.12 16.28 31.58 14.72L31.68 14.83L31.60 14.74Q27.03 16.96 22.16 16.65L22.08 16.57L22.05 16.54Q16.76 16.24 12.92 13.39L13.05 13.52L13.00 13.47Q15.85 20.39 16.16 28.01L16.24 28.08L16.17 28.02Q16.59 36.05 14.07 42.83Z"/><path fill="#111" d="M73.06 27.73L73.16 27.84L73.17 27.84Q69.46 27.56 68.36 30.91L68.33 30.88L68.49 31.04Q68.12 32.12 68.00 33.19L67.96 33.14L68.06 33.24Q67.77 35.20 68.76 36.53L68.70 36.47L68.76 36.53Q70.03 37.64 72.50 37.68L72.51 37.69L72.62 37.80Q74.38 37.77 75.79 36.63L75.78 36.62L75.78 36.63Q77.10 35.39 77.10 33.60L77.15 33.65L77.14 33.65Q77.08 33.24 77.01 32.86L77.12 32.97L77.02 32.87Q76.93 27.88 73.13 27.80ZM72.93 40.17L72.87 40.11L72.89 40.12Q69.24 40.52 67.45 38.50L67.40 38.45L67.28 38.32Q67.11 39.41 66.66 40.78L66.72 40.85L66.74 40.87Q64.68 41.51 63.42 42.08L63.49 42.14L63.38 42.04Q65.57 36.08 65.57 29.57L65.62 29.62L65.55 29.56Q65.71 21.42 62.29 13.57L62.22 13.51L62.17 13.46Q64.60 14.90 65.93 15.35L65.92 15.34L65.94 15.36Q67.91 21.86 68.06 27.68L68.21 27.84L68.10 27.73Q69.52 25.03 73.25 25.07L73.25 25.07L73.24 25.06Q76.59 25.21 78.08 27.08L78.15 27.15L78.12 27.12Q79.88 29.34 80.03 32.92L79.94 32.82L80.09 32.98Q80.01 33.99 79.93 35.59L80.03 35.70L80.09 35.76Q80.03 37.18 79.15 38.32L79.12 38.28L79.09 38.26Q77.39 40.02 73.05 40.29ZM78.46 42.73L78.35 42.62L78.47 42.73Q79.90 42.69 81.39 42.00L81.53 42.15L81.37 41.99Q82.64 40.85 82.68 38.91L82.57 38.81L82.49 38.72Q82.63 38.37 82.48 37.19L82.49 37.20L82.35 37.06Q82.39 36.49 82.27 35.58L82.27 35.58L82.17 35.48Q81.34 30.69 79.78 28.63L79.91 28.76L79.78 28.63Q79.91 28.72 79.11 27.85L79.13 27.87L79.04 27.77Q78.85 27.55 78.32 26.75L78.27 26.70L78.29 26.72Q76.63 24.71 73.28 24.75L73.41 24.89L73.40 24.88Q71.32 24.89 70.06 25.50L70.12 25.56L70.03 25.46Q69.64 20.89 69.03 17.69L68.99 17.65L69.16 17.82Q68.28 17.51 66.79 17.13L66.89 17.23L66.89 17.23Q66.74 16.47 66.28 15.02L66.33 15.06L66.27 15.00Q63.82 14.19 61.57 12.63L61.61 12.67L61.61 12.66Q65.35 20.82 65.35 29.62L65.25 29.52L65.42 29.69Q65.40 36.64 62.93 42.84L62.84 42.75L62.94 42.86Q63.54 42.43 64.87 41.86L64.92 41.90L64.89 41.87Q64.66 42.64 64.06 44.16L63.95 44.05L64.13 44.23Q66.12 43.33 68.90 42.80L68.73 42.63L69.16 40.85L69.22 40.91Q71.45 42.53 78.37 42.64ZM74.68 30.04L74.69 30.05L74.74 30.10Q75.73 30.07 76.27 30.45L76.25 30.43L76.27 30.45Q76.54 30.91 76.77 32.93L76.68 32.84L76.72 32.88Q77.07 34.90 75.81 36.22L75.64 36.05L75.73 36.14Q74.56 37.53 72.61 37.41L72.51 37.31L72.59 37.39Q71.58 37.44 70.09 36.95L70.10 36.96L70.22 37.08Q69.86 36.45 69.86 35.92L69.95 36.01L69.96 36.01Q69.89 32.86 71.45 31.26L71.39 31.20L71.34 31.20L71.34 31.19Q72.96 30.00 74.71 30.07Z"/></svg>