<svg xmlns="http://www.w3.org/2000/svg" width="150" height="50" viewBox="0,0,150,50"><path fill="#111" d="M97.36 40.21L97.33 40.18L97.39 40.25Q95.46 40.10 93.78 40.67L93.73 40.62L93.73 40.62Q94.40 37.14 94.51 34.02L94.52 34.02L94.51 34.01Q94.62 30.97 94.39 27.31L94.24 27.16L94.37 27.29Q92.86 26.81 92.10 26.43L92.24 26.57L91.71 23.41L91.68 23.38Q92.57 24.15 94.17 24.72L94.21 24.77L94.07 24.63Q93.86 22.51 93.44 19.77L93.49 19.83L93.48 19.81Q95.78 20.52 97.42 20.37L97.48 20.43L97.21 24.88L97.35 25.02Q98.63 24.81 99.96 24.31L100.05 24.40L100.01 24.36Q99.91 25.21 99.68 26.97L99.84 27.12L99.76 27.05Q98.30 27.45 97.27 27.45L97.16 27.34L97.24 27.41Q97.27 29.62 97.27 33.88L97.31 33.92L97.23 33.84Q97.34 38.10 97.41 40.27ZM100.52 23.88L100.38 23.75L100.47 23.84Q100.12 23.86 99.51 24.09L99.62 24.20L99.92 21.35L99.97 21.40Q99.20 21.73 97.79 21.96L97.78 21.94L97.83 21.99Q97.68 21.15 97.83 19.78L97.86 19.82L97.81 19.77Q97.22 19.86 96.65 19.86L96.65 19.86L96.81 20.02Q94.52 19.87 92.89 19.14L92.96 19.22L92.93 19.18Q93.37 21.60 93.63 24.08L93.72 24.17L93.80 24.25Q92.85 23.82 91.32 22.80L91.28 22.75L91.42 22.89Q91.72 24.15 91.95 26.85L91.96 26.86L91.93 26.83Q92.29 26.96 93.47 27.38L93.46 27.37L93.60 27.51Q93.48 28.00 93.52 29.41L93.52 29.41L93.90 29.45L94.05 29.52L94.12 29.59Q94.07 30.72 94.07 31.90L94.16 31.99L94.21 32.04Q94.08 36.86 93.28 41.20L93.31 41.23L93.36 41.28Q93.62 41.24 95.56 40.70L95.41 40.55L95.50 40.64Q95.54 41.32 95.42 42.69L95.44 42.71L95.48 42.75Q96.14 42.54 96.94 42.54L96.92 42.52L97.06 42.66Q98.75 42.64 100.39 43.21L100.27 43.08L100.41 43.23Q98.92 37.36 99.11 29.44L99.30 29.63L101.64 29.19L101.62 29.17Q101.64 28.20 101.71 27.17L101.70 27.16L101.88 25.13L101.94 25.19Q101.32 25.41 100.14 25.87L100.28 26.01L100.11 25.84Q100.45 24.54 100.37 24.19L100.38 24.20L100.33 24.15Q100.30 23.93 100.38 23.74Z"/><path fill="#333" d="M129.11 40.44L129.04 40.38L128.99 40.33Q125.99 36.41 123.36 27.77L123.48 27.89L123.36 27.77Q122.75 25.68 121.95 23.54L121.95 23.54L119.07 32.31L119.12 32.36Q117.19 37.16 114.79 40.40L114.90 40.51L114.97 40.58Q113.96 40.49 112.33 40.64L112.38 40.70L112.39 40.71Q112.46 39.49 112.46 38.23L112.48 38.25L112.49 38.26Q112.56 32.31 109.82 26.18L109.77 26.13L109.76 26.12Q106.57 19.17 100.71 14.18L100.72 14.19L100.85 14.32Q103.00 15.02 105.36 15.55L105.36 15.56L105.20 15.39Q113.88 23.85 115.18 34.81L115.22 34.85L115.28 34.91Q116.95 31.63 118.39 26.27L118.40 26.27L118.25 26.12Q120.33 18.72 120.82 17.31L120.79 17.28L123.01 17.25L123.04 17.29Q123.74 19.32 124.39 21.64L124.42 21.67L125.65 26.09L125.59 26.04Q127.22 31.56 128.63 34.79L128.70 34.86L128.57 34.73Q130.24 23.11 138.16 15.76L138.19 15.80L138.32 15.92Q139.66 15.40 142.63 14.76L142.70 14.83L142.63 14.75Q137.32 19.08 134.28 25.21L134.43 25.36L134.43 25.36Q131.24 31.50 131.24 38.28L131.23 38.27L131.28 38.31Q131.17 39.31 131.24 40.45L131.33 40.53L130.22 40.45L130.16 40.39Q129.60 40.37 129.03 40.37ZM135.38 43.37L135.28 43.27L135.24 43.22Q133.96 39.63 134.08 35.74L134.07 35.74L134.11 35.77Q134.40 24.18 143.76 15.92L143.77 15.94L143.91 16.07Q142.93 16.27 140.99 16.81L141.05 16.86L140.95 16.77Q141.91 15.94 143.82 14.15L143.72 14.06L143.72 14.06Q141.20 14.96 138.27 15.46L138.27 15.46L138.28 15.47Q130.77 22.57 128.86 32.05L128.83 32.02L128.87 32.06Q128.17 30.29 125.31 18.83L125.46 18.98L125.36 18.88Q125.05 19.07 124.10 19.07L124.00 18.96L123.78 17.98L123.79 18.00Q123.69 17.47 123.46 16.98L123.31 16.83L120.50 16.91L120.54 16.95Q119.57 19.25 118.29 24.37L118.28 24.36L118.37 24.45Q116.99 29.47 116.00 31.95L116.02 31.96L116.13 32.08Q114.59 24.22 109.03 17.90L108.90 17.76L109.03 17.89Q108.58 17.86 107.63 17.67L107.48 17.52L107.47 17.51Q106.89 16.82 105.33 15.18L105.18 15.03L105.22 15.08Q101.83 14.27 99.66 13.47L99.68 13.49L99.77 13.59Q105.27 18.09 108.54 24.29L108.66 24.41L108.65 24.40Q112.20 31.11 112.20 38.12L112.14 38.06L112.12 38.03Q112.07 39.55 111.88 41.15L111.85 41.12L111.82 41.09Q112.21 41.25 112.67 41.15L112.54 41.02L112.59 41.08Q113.07 41.00 113.30 41.00L113.23 40.93L113.25 41.98L113.25 41.99Q113.26 42.46 113.34 42.99L113.40 43.05L113.27 42.92Q114.43 42.86 116.71 42.71L116.81 42.80L116.88 42.87Q120.45 37.42 123.19 28.01L123.11 27.94L123.06 27.89Q125.92 36.77 128.89 40.73L128.97 40.80L128.89 40.72Q129.29 40.66 130.13 40.78L130.19 40.84L130.30 40.96Q131.11 41.95 132.17 43.01L132.21 43.05L132.12 42.96Q132.82 42.94 135.22 43.20Z"/><path fill="#333" d="M70.26 28.61L70.19 28.54L70.35 28.70Q67.37 28.54 66.61 30.78L66.72 30.89L66.68 30.85Q66.54 31.66 66.42 32.31L66.40 32.28L66.44 32.33Q69.00 32.49 70.64 32.49L70.48 32.33L70.52 32.37Q72.33 32.54 74.91 32.42L74.78 32.29L74.94 32.45Q74.66 30.57 73.25 29.50L73.40 29.66L73.38 29.63Q72.02 28.57 70.23 28.57ZM70.37 41.20L70.41 41.25L70.32 41.16Q66.11 41.17 64.81 39.76L64.82 39.77L64.78 39.72Q63.81 38.26 63.66 34.99L63.79 35.12L63.79 35.12Q63.77 34.87 63.69 33.50L63.67 33.48L63.73 33.54Q63.47 31.11 63.47 30.38L63.49 30.40L63.57 30.48Q63.40 28.45 64.12 27.34L64.16 27.38L64.19 27.41Q65.55 25.95 68.52 25.95L68.66 26.09L70.12 26.00L70.10 25.97Q72.15 25.97 73.68 26.28L73.80 26.40L73.69 26.29Q75.76 26.76 76.75 27.98L76.77 27.99L76.88 28.10Q77.42 29.11 77.50 31.20L77.44 31.14L77.57 31.27Q77.55 32.39 77.58 34.56L77.60 34.57L77.55 34.52Q74.63 34.50 71.85 34.50L71.93 34.58L66.29 34.53L66.26 34.51Q66.39 38.90 70.46 38.67L70.53 38.74L70.57 38.77Q74.33 38.58 75.55 36.75L75.55 36.75L75.47 36.67Q76.31 37.17 77.91 38.36L77.88 38.32L77.94 38.38Q76.56 40.77 72.41 41.04L72.51 41.14L72.43 41.05Q71.78 41.17 70.41 41.24ZM72.69 43.56L72.75 43.63L72.65 43.52Q73.72 43.45 74.94 43.53L74.92 43.51L74.94 43.53Q79.93 43.72 80.84 40.94L80.83 40.93L80.91 41.01Q79.22 39.69 78.11 38.93L78.10 38.92L78.23 39.05Q78.22 38.47 78.41 38.24L78.56 38.39L78.53 38.37Q77.86 37.96 76.49 37.01L76.31 36.82L76.43 36.95Q77.42 36.91 79.48 37.21L79.59 37.33L79.44 37.18Q79.43 35.99 79.35 35.30L79.33 35.28L79.21 33.37L79.09 33.25Q78.93 30.88 78.28 29.39L78.33 29.44L78.31 29.42Q78.06 29.09 77.49 28.49L77.57 28.57L77.53 28.53Q77.30 28.15 77.08 27.58L77.04 27.54L77.08 27.59Q75.15 25.50 70.09 25.50L70.22 25.63L68.44 25.53L68.52 25.61Q65.34 25.67 63.89 27.15L63.89 27.15L63.79 27.04Q63.05 28.10 63.09 30.15L63.18 30.25L63.12 30.19Q63.23 31.21 63.34 33.45L63.28 33.39L63.41 33.52Q63.49 35.12 63.60 37.18L63.48 37.06L63.58 37.16Q63.86 39.42 64.74 40.49L64.70 40.45L64.61 40.35Q64.73 40.47 64.92 40.59L65.01 40.68L65.26 41.27L65.37 41.38Q66.16 43.24 72.75 43.62ZM70.58 38.36L70.55 38.34L70.45 38.24Q69.36 38.41 68.45 37.95L68.37 37.87L68.35 37.85Q68.36 37.51 68.16 36.83L68.18 36.84L68.12 36.78Q69.89 36.77 71.49 36.77L71.53 36.81L71.48 36.75Q73.14 36.74 74.81 36.85L74.78 36.82L74.76 36.80Q73.52 38.18 70.51 38.30ZM72.18 30.99L72.20 31.00L72.26 31.06Q72.84 31.03 74.17 31.41L74.07 31.31L74.33 31.77L74.25 31.87L74.40 32.03Q72.88 31.99 71.97 31.95L72.02 32.01L72.05 32.03Q69.87 32.10 69.83 32.10L69.65 31.91L69.72 31.99Q70.59 31.18 72.27 31.07Z"/><path fill="#444" d="M20.99 29.77L21.05 29.83L21.14 29.92Q20.86 29.87 20.56 29.87L20.51 29.83L20.47 29.79Q19.17 29.82 17.72 30.65L17.70 30.64L17.80 30.73Q16.38 31.75 16.38 33.65L16.47 33.74L16.34 33.61Q16.45 37.15 17.97 38.48L17.89 38.40L17.92 38.43Q18.86 39.60 21.15 39.60L21.21 39.67L21.22 39.67Q21.35 39.57 21.65 39.57L21.66 39.58L21.71 39.63Q23.51 39.71 24.65 38.08L24.65 38.08L24.60 38.03Q25.53 36.41 25.46 34.62L25.46 34.63L25.58 34.75Q25.56 34.19 25.56 33.77L25.67 33.89L25.58 33.79Q25.68 32.11 24.31 30.95L24.30 30.94L24.20 30.84Q22.88 29.72 21.09 29.88ZM25.49 39.95L25.52 39.97L25.55 40.01Q24.64 42.03 20.91 42.14L20.91 42.15L20.82 42.06Q17.50 42.23 15.90 40.63L15.84 40.58L15.89 40.63Q14.33 38.76 13.53 33.96L13.55 33.98L13.58 34.01Q13.30 32.29 13.30 31.03L13.25 30.98L13.38 31.11Q13.29 29.23 14.01 28.17L13.93 28.09L13.92 28.07Q15.35 26.76 18.31 26.76L18.32 26.76L18.27 26.72Q24.69 26.81 26.59 29.40L26.56 29.37L26.57 29.38Q26.77 28.59 27.19 26.99L27.10 26.90L27.10 26.90Q28.52 26.76 30.96 25.96L30.78 25.78L30.91 25.92Q28.38 31.46 28.15 37.78L28.23 37.85L28.29 37.91Q28.05 44.07 30.18 49.90L30.07 49.78L30.21 49.92Q28.39 49.20 26.60 48.94L26.70 49.03L26.52 48.85Q25.63 44.92 25.51 39.97ZM26.28 49.19L26.40 49.30L26.28 49.19Q27.07 49.41 28.48 49.71L28.50 49.74L28.50 49.73Q28.63 50.36 29.20 51.77L29.35 51.91L29.19 51.76Q31.86 52.56 34.15 53.86L34.11 53.82L34.08 53.79Q30.06 47.22 30.06 38.70L30.14 38.77L30.18 38.81Q30.19 32.46 32.66 26.68L32.62 26.64L32.58 26.59Q31.96 26.96 30.59 27.61L30.51 27.53L30.49 27.51Q30.89 26.81 31.54 25.25L31.50 25.21L31.54 25.25Q29.89 25.69 26.69 26.57L26.77 26.64L26.73 26.61Q26.64 27.20 26.33 28.38L26.32 28.37L26.31 28.36Q24.27 26.43 18.14 26.28L18.27 26.40L18.26 26.39Q15.04 26.30 13.67 27.78L13.58 27.70L13.58 27.69Q12.96 28.97 12.99 30.88L12.95 30.84L12.87 30.75Q13.04 33.82 14.03 37.58L13.99 37.55L14.09 37.65Q14.67 39.98 15.58 40.93L15.53 40.87L16.03 41.37L16.05 41.39Q17.21 44.15 22.65 44.38L22.65 44.38L22.60 44.33Q23.65 44.38 25.47 44.08L25.51 44.12L25.49 44.09Q25.79 47.02 26.40 49.31ZM23.02 32.22L23.05 32.25L22.91 32.11Q24.03 32.17 24.87 32.47L24.98 32.59L24.94 32.54Q24.99 32.94 25.11 33.55L25.14 33.58L25.15 33.59Q25.30 34.20 25.23 34.81L25.29 34.88L25.23 34.81Q25.12 36.61 24.09 37.90L24.08 37.89L24.09 37.90Q22.96 39.36 21.10 39.17L21.22 39.30L21.22 39.30Q19.81 39.18 18.86 38.76L18.87 38.78L18.99 38.89Q18.53 37.97 18.53 36.75L18.60 36.83L18.67 36.89Q18.49 36.42 18.49 36.11L18.54 36.16L18.49 36.11Q18.51 34.38 19.84 33.21L19.80 33.17L19.88 33.25Q21.26 32.13 23.01 32.21Z"/><path fill="#333" d="M39.67 41.06L39.76 41.14L39.71 41.09Q42.88 36.84 49.58 28.92L49.49 28.83L49.64 28.98Q43.72 29.19 39.95 27.82L39.96 27.83L40.00 27.87Q39.30 26.41 38.54 25.00L38.48 24.93L38.42 24.88Q42.53 26.40 46.99 26.44L46.94 26.39L47.04 26.49Q51.44 26.48 55.63 25.41L55.67 25.46L55.66 25.44Q55.22 26.07 54.95 26.60L55.08 26.73L55.00 26.65Q52.44 28.85 49.62 32.46L49.75 32.60L44.73 38.68L44.83 38.79Q46.94 38.46 49.18 38.54L49.32 38.67L49.18 38.53Q51.38 38.60 53.63 38.98L53.60 38.95L53.65 39.01Q53.82 39.64 54.55 41.65L54.58 41.69L54.54 41.65Q50.84 40.84 46.84 40.95L46.87 40.99L46.74 40.86Q42.75 40.93 39.09 42.11L39.21 42.23L39.17 42.19Q39.24 42.03 39.70 41.08ZM38.69 42.89L38.65 42.85L38.60 42.80Q39.38 42.48 40.98 42.06L40.95 42.03L40.96 42.03Q40.83 42.37 40.42 42.79L40.34 42.71L40.39 42.76Q40.08 43.25 39.47 44.40L39.59 44.51L39.54 44.46Q44.12 42.99 49.11 43.14L49.23 43.27L49.25 43.28Q54.11 43.35 58.68 45.22L58.62 45.16L58.66 45.20Q57.31 43.43 56.40 41.37L56.45 41.42L56.33 41.30Q55.62 41.05 54.55 40.82L54.44 40.71L54.59 40.86Q54.32 40.05 53.94 38.61L54.04 38.71L53.95 38.62Q52.52 38.41 48.94 38.29L48.81 38.16L48.78 38.13Q51.13 34.77 56.15 28.41L56.24 28.50L56.24 28.50Q56.51 27.78 57.19 26.44L57.10 26.35L54.82 27.12L54.96 27.26Q54.92 27.06 55.07 26.95L55.14 27.02L55.34 26.84L55.28 26.78Q55.72 25.70 56.29 24.74L56.33 24.78L56.44 24.89Q51.79 26.26 47.07 26.18L47.05 26.17L46.91 26.02Q42.23 26.07 37.74 24.24L37.68 24.18L37.75 24.25Q38.79 25.97 39.59 28.02L39.69 28.13L39.64 28.08Q40.43 28.34 41.50 28.60L41.50 28.60L41.57 28.68Q41.86 29.46 42.17 30.91L42.14 30.88L42.02 30.76Q43.69 31.10 47.00 31.26L46.95 31.21L47.09 31.34Q44.50 34.46 39.32 40.89L39.40 40.97L39.37 40.95Q39.23 41.64 38.65 42.85Z"/></svg>