<svg xmlns="http://www.w3.org/2000/svg" width="150" height="50" viewBox="0,0,150,50"><path fill="#111" d="M30.38 30.26L30.42 30.29L30.42 30.30Q30.61 29.99 30.57 29.57L30.60 29.60L30.56 29.56Q30.44 29.14 30.14 28.95L30.22 29.03L30.12 28.93Q29.47 28.43 28.59 28.58L28.54 28.53L28.65 28.64Q27.50 28.56 25.87 29.66L25.81 29.61L25.81 29.61Q24.49 30.61 24.49 31.79L24.37 31.67L24.39 31.69Q24.34 32.90 24.34 36.21L24.34 36.21L24.48 36.35Q24.37 38.83 24.52 40.85L24.50 40.82L24.55 40.88Q22.78 40.81 22.78 40.81L22.87 40.90L22.87 40.91Q21.84 40.83 21.12 40.91L21.17 40.95L21.23 41.01Q21.53 38.39 21.61 36.14L21.61 36.14L21.64 36.17Q21.83 31.57 21.18 30.27L21.04 30.13L21.09 30.18Q20.91 29.70 20.34 29.39L20.38 29.44L20.27 29.32Q19.38 28.54 17.82 28.43L17.82 28.43L17.84 28.45Q15.77 28.17 15.24 29.77L15.36 29.90L15.40 29.93Q15.15 30.33 15.27 30.83L15.21 30.77L15.40 30.96Q15.88 33.54 15.54 36.32L15.53 36.31L15.68 36.46Q15.23 39.13 13.82 41.56L13.86 41.60L13.97 41.72Q12.81 41.74 10.72 42.15L10.82 42.26L10.84 42.27Q13.27 38.95 13.27 34.65L13.36 34.74L13.34 34.72Q13.29 28.81 9.25 24.59L9.17 24.50L9.25 24.59Q9.96 24.84 10.92 25.07L10.94 25.09L12.69 25.51L12.71 25.53Q13.14 26.11 14.02 27.79L14.06 27.84L14.00 27.77Q14.27 25.99 16.71 25.95L16.72 25.96L16.64 25.89Q16.70 25.75 17.69 25.82L17.72 25.86L17.81 25.95Q22.84 26.29 23.98 29.11L24.03 29.16L23.92 29.05Q25.63 26.38 30.65 25.85L30.61 25.81L30.56 25.75Q31.44 25.76 32.32 25.87L32.34 25.89L32.31 25.87Q34.50 26.04 34.35 27.61L34.32 27.57L34.31 27.56Q34.32 28.30 34.05 29.06L34.09 29.09L34.03 29.04Q32.66 32.08 32.89 35.62L32.75 35.48L32.85 35.58Q33.08 39.09 34.98 41.90L34.82 41.74L34.86 41.78Q33.18 41.44 31.36 41.21L31.34 41.19L31.43 41.28Q30.28 38.80 30.09 36.02L30.00 35.92L29.92 35.85Q29.72 32.99 30.37 30.25ZM31.23 41.69L31.16 41.62L31.10 41.56Q31.96 41.77 33.29 41.96L33.29 41.96L33.14 41.81Q33.83 42.69 34.97 44.10L35.00 44.13L34.90 44.03Q37.85 44.62 39.95 45.27L39.98 45.30L39.84 45.16Q34.85 41.27 34.58 34.76L34.63 34.81L34.73 34.91Q34.65 32.81 35.25 30.91L35.23 30.88L35.27 30.92Q35.37 29.91 35.37 29.19L35.41 29.23L35.43 29.26Q35.36 28.27 34.75 27.70L34.80 27.75L34.82 27.73L34.84 27.75Q34.90 27.23 34.82 26.74L34.66 26.58L34.66 26.58Q34.55 26.06 34.10 25.79L34.18 25.87L34.26 25.96Q33.56 25.44 32.68 25.40L32.64 25.36L32.71 25.43Q29.88 25.34 27.22 26.30L27.08 26.16L27.24 26.32Q25.07 26.82 23.89 28.22L23.98 28.31L24.00 28.33Q22.46 25.87 17.62 25.53L17.60 25.51L17.49 25.40Q16.80 25.36 16.39 25.36L16.49 25.47L16.44 25.41Q14.47 25.50 13.86 26.76L13.91 26.81L13.82 26.72Q13.54 26.25 12.86 25.18L12.88 25.20L12.92 25.24Q10.32 24.58 8.34 23.94L8.37 23.97L8.40 24.00Q13.03 28.36 13.03 34.64L13.02 34.63L13.08 34.70Q13.00 39.33 10.14 42.80L10.17 42.82L10.10 42.75Q10.55 42.59 11.04 42.52L11.20 42.68L12.03 42.36L12.06 42.39Q11.33 43.42 10.23 44.63L10.20 44.61L10.30 44.71Q11.92 44.38 15.04 43.77L14.99 43.73L15.07 43.81Q17.68 39.64 17.68 34.73L17.71 34.75L17.66 34.71Q17.75 33.99 17.67 33.16L17.67 33.16L17.59 33.08Q17.49 32.29 18.48 31.49L18.51 31.52L18.48 31.53L18.50 31.55Q19.06 31.04 20.24 30.93L20.35 31.04L20.27 30.96Q20.85 31.12 21.15 31.12L21.02 30.99L21.09 31.25L21.17 31.33Q21.46 34.06 21.35 36.42L21.24 36.31L21.26 36.33Q21.26 38.72 20.76 41.38L20.64 41.27L20.65 41.27Q21.62 41.22 21.62 41.22L21.74 41.33L21.63 41.22Q23.08 41.23 22.73 41.23L22.67 41.16L22.72 41.21Q22.73 41.72 22.69 42.18L22.66 42.15L22.69 42.18Q22.66 42.64 22.66 43.14L22.71 43.19L25.27 43.26L25.23 43.23Q26.50 43.24 27.76 43.32L27.66 43.22L27.66 43.22Q26.26 39.65 26.45 33.71L26.34 33.61L26.39 33.65Q26.33 32.45 27.51 31.68L27.68 31.86L27.56 31.74Q28.61 31.07 29.87 30.88L29.83 30.85L30.13 30.84L30.03 30.75Q29.75 32.83 29.75 34.81L29.60 34.65L29.74 34.79Q29.74 38.56 31.26 41.72ZM25.60 30.04L25.81 30.03L25.68 30.24L25.67 30.11Z"/><path fill="#333" d="M52.10 40.87L52.13 40.89L52.14 40.90Q50.85 39.23 49.55 36.15L49.63 36.22L47.53 31.11L47.37 30.96Q45.94 35.13 45.34 36.42L45.27 36.35L45.28 36.37Q43.89 39.35 42.29 41.25L42.28 41.24L42.12 41.08Q41.86 41.20 41.10 41.32L41.00 41.22L41.12 41.34Q41.02 33.81 35.19 27.88L35.15 27.84L35.17 27.85Q33.56 26.17 31.54 24.68L31.39 24.53L31.40 24.54Q33.34 25.19 35.21 25.49L35.11 25.40L35.17 25.46Q41.33 30.51 42.77 36.75L42.73 36.70L42.66 36.64Q43.56 34.80 44.74 31.60L44.77 31.63L44.73 31.59Q46.12 27.87 46.69 26.58L46.70 26.59L48.14 26.62L48.14 26.62Q49.08 28.40 50.26 31.68L50.09 31.50L50.16 31.57Q51.52 35.26 52.17 36.67L52.16 36.66L52.05 36.55Q53.98 30.37 59.46 25.80L59.41 25.75L59.33 25.67Q60.58 25.62 63.32 25.05L63.33 25.06L63.38 25.11Q54.72 31.11 53.54 41.08L53.62 41.16L52.91 40.99L52.86 40.94Q52.58 40.96 52.24 41.00ZM55.24 43.47L57.20 43.56L57.31 43.67Q56.95 42.09 56.95 40.57L56.99 40.61L56.85 40.48Q56.88 37.26 58.29 34.03L58.26 34.01L58.27 34.02Q60.37 29.61 64.48 26.52L64.45 26.49L64.33 26.37Q63.09 26.62 61.23 26.96L61.28 27.01L61.27 27.00Q63.30 25.42 64.60 24.50L64.67 24.58L62.08 24.96L62.00 24.87Q60.90 25.22 59.57 25.37L59.51 25.32L59.58 25.39Q54.39 29.60 52.45 34.63L52.42 34.60L52.39 34.56Q51.73 32.39 50.36 28.12L50.38 28.14L50.31 28.07Q50.16 28.26 49.89 28.26L49.80 28.17L49.26 28.16L49.24 28.15Q49.15 27.87 48.35 26.11L48.38 26.14L46.26 26.08L46.30 26.11Q45.47 29.06 43.38 34.69L43.37 34.68L43.34 34.66Q41.91 30.86 38.82 27.59L38.88 27.64L38.82 27.58Q38.64 27.67 38.33 27.63L38.26 27.55L37.65 27.41L37.73 27.48Q36.88 26.67 35.09 25.07L35.14 25.12L35.07 25.05Q32.03 24.52 30.35 24.03L30.22 23.89L30.30 23.97Q40.90 31.30 40.52 41.62L40.67 41.77L40.67 41.76Q40.82 41.73 41.18 41.69L41.15 41.66L41.13 41.64Q41.53 41.63 41.72 41.63L41.74 41.66L41.80 41.71Q41.77 41.53 41.96 43.63L41.92 43.59L43.91 43.48L43.86 43.44Q46.42 40.58 48.66 34.84L48.77 34.94L48.63 34.81Q50.22 38.75 52.09 41.42L52.03 41.37L52.13 41.47Q52.31 41.30 52.58 41.32L52.61 41.36L52.57 41.32Q52.96 41.46 53.23 41.46L53.10 41.33L55.12 43.35Z"/><path fill="#444" d="M79.78 40.45L79.61 40.28L79.74 40.41Q76.72 36.48 74.09 27.84L74.04 27.78L74.03 27.77Q73.38 25.64 72.58 23.51L72.61 23.53L69.69 32.26L69.78 32.35Q68.00 37.32 65.61 40.55L65.62 40.57L65.47 40.42Q64.64 40.50 63.01 40.65L62.98 40.62L63.08 40.73Q63.22 39.58 63.22 38.32L63.20 38.29L63.19 38.29Q63.28 32.36 60.54 26.23L60.44 26.14L60.36 26.05Q57.35 19.28 51.49 14.29L51.50 14.30L51.53 14.33Q53.62 14.97 55.98 15.51L55.90 15.43L55.96 15.49Q64.57 23.87 65.86 34.83L66.02 34.99L65.96 34.93Q67.66 31.68 69.10 26.31L69.02 26.22L68.97 26.17Q71.04 18.76 71.53 17.35L71.53 17.35L73.76 17.34L73.64 17.22Q74.36 19.27 75.00 21.59L75.16 21.74L76.41 26.19L76.27 26.05Q77.80 31.47 79.21 34.70L79.35 34.84L79.23 34.72Q81.02 23.23 88.94 15.88L88.81 15.75L88.83 15.77Q90.42 15.49 93.39 14.85L93.38 14.83L93.38 14.84Q87.98 19.07 84.93 25.20L84.98 25.25L84.97 25.24Q81.89 31.48 81.89 38.25L81.90 38.27L82.00 38.37Q81.89 39.37 81.97 40.51L81.96 40.50L80.84 40.40L80.87 40.43Q80.34 40.43 79.77 40.43ZM86.01 43.33L85.99 43.31L86.05 43.37Q84.77 39.77 84.89 35.89L84.87 35.87L84.82 35.82Q85.16 24.29 94.53 16.03L94.53 16.03L94.60 16.10Q93.51 16.19 91.57 16.72L91.66 16.81L91.53 16.68Q92.59 15.95 94.49 14.16L94.52 14.19L94.40 14.07Q91.88 14.98 88.95 15.47L88.79 15.31L88.80 15.32Q81.40 22.54 79.50 32.02L79.38 31.91L79.56 32.09Q78.89 30.35 76.04 18.89L76.01 18.86L75.96 18.82Q75.69 19.03 74.73 19.03L74.77 19.07L74.33 17.87L74.36 17.90Q74.30 17.42 74.07 16.93L74.12 16.98L71.14 16.88L71.19 16.94Q70.26 19.28 68.98 24.40L69.07 24.49L69.08 24.49Q67.78 29.59 66.79 32.06L66.83 32.11L66.67 31.95Q65.17 24.13 59.62 17.81L59.56 17.76L59.70 17.89Q59.13 17.74 58.18 17.55L58.24 17.62L58.25 17.62Q57.39 16.65 55.82 15.01L55.94 15.13L55.85 15.03Q52.59 14.36 50.42 13.56L50.34 13.49L50.28 13.42Q56.02 18.17 59.29 24.38L59.34 24.43L59.29 24.38Q62.71 30.95 62.71 37.96L62.75 38.00L62.77 38.02Q62.81 39.62 62.62 41.22L62.66 41.26L62.63 41.23Q62.77 41.14 63.23 41.05L63.19 41.01L63.25 41.07Q63.77 41.04 64.00 41.04L63.86 40.90L63.85 41.92L64.01 42.07Q63.87 42.39 63.94 42.93L64.01 42.99L64.00 42.98Q65.24 43.00 67.52 42.85L67.36 42.69L67.54 42.86Q71.13 37.44 73.87 28.03L73.72 27.88L73.74 27.90Q76.51 36.68 79.48 40.64L79.64 40.80L79.55 40.72Q80.14 40.85 80.97 40.96L80.91 40.89L80.91 40.90Q81.75 41.92 82.81 42.99L82.71 42.89L82.84 43.02Q83.54 42.99 85.94 43.26Z"/><path fill="#222" d="M119.76 29.88L119.76 29.88L119.75 29.87Q119.49 29.84 119.19 29.84L119.23 29.88L119.15 29.80Q117.90 29.88 116.45 30.72L116.40 30.67L116.46 30.73Q115.15 31.86 115.15 33.76L115.14 33.75L115.00 33.61Q115.09 37.12 116.61 38.45L116.55 38.39L116.59 38.43Q117.46 39.53 119.74 39.53L119.73 39.52L119.82 39.61Q120.14 39.70 120.44 39.70L120.33 39.58L120.40 39.65Q122.13 39.67 123.27 38.04L123.29 38.05L123.28 38.04Q124.24 36.45 124.17 34.67L124.27 34.77L124.28 34.78Q124.34 34.30 124.34 33.88L124.37 33.92L124.29 33.84Q124.32 32.08 122.95 30.92L122.88 30.85L122.83 30.80Q121.46 29.64 119.67 29.79ZM124.17 39.96L124.16 39.95L124.26 40.05Q123.33 42.06 119.60 42.17L119.59 42.16L119.61 42.17Q116.17 42.24 114.57 40.64L114.52 40.59L114.60 40.67Q113.07 38.84 112.27 34.04L112.18 33.95L112.30 34.07Q112.03 32.35 112.03 31.09L111.93 30.99L111.99 31.05Q111.91 29.18 112.63 28.11L112.58 28.06L112.73 28.21Q113.95 26.70 116.92 26.70L116.96 26.73L117.04 26.81Q123.38 26.84 125.28 29.43L125.23 29.38L125.20 29.34Q125.43 28.58 125.85 26.98L125.85 26.98L125.75 26.88Q127.08 26.66 129.52 25.86L129.47 25.80L129.55 25.89Q127.07 31.47 126.84 37.79L126.84 37.80L126.79 37.74Q126.69 44.04 128.82 49.86L128.75 49.79L128.85 49.89Q127.16 49.30 125.37 49.04L125.22 48.89L125.27 48.94Q124.28 44.90 124.16 39.95ZM124.99 49.24L124.93 49.18L125.06 49.31Q125.65 49.32 127.06 49.63L127.07 49.64L127.11 49.68Q127.38 50.44 127.95 51.85L127.86 51.76L127.97 51.87Q130.45 52.48 132.74 53.78L132.91 53.95L132.84 53.88Q128.83 47.32 128.83 38.79L128.79 38.76L128.69 38.65Q128.84 32.45 131.31 26.66L131.35 26.69L131.26 26.61Q130.54 26.88 129.17 27.52L129.24 27.60L129.27 27.62Q129.53 26.78 130.18 25.22L130.18 25.23L130.15 25.19Q128.69 25.83 125.50 26.71L125.43 26.64L125.43 26.64Q125.28 27.18 124.98 28.36L124.99 28.37L125.10 28.48Q122.99 26.49 116.86 26.33L116.78 26.25L116.77 26.24Q113.76 26.35 112.39 27.83L112.27 27.72L112.38 27.83Q111.43 28.78 111.47 30.69L111.52 30.74L111.56 30.78Q111.64 33.75 112.63 37.51L112.67 37.56L112.68 37.57Q113.37 40.01 114.29 40.97L114.24 40.92L114.57 41.25L114.64 41.32Q115.72 44.00 121.17 44.23L121.26 44.32L121.27 44.33Q122.33 44.40 124.16 44.10L124.17 44.11L124.14 44.08Q124.33 46.89 124.94 49.18ZM121.62 32.15L121.61 32.15L121.60 32.14Q122.68 32.15 123.52 32.46L123.62 32.56L123.59 32.52Q123.82 33.10 123.93 33.71L123.85 33.63L123.94 33.72Q123.88 34.11 123.80 34.72L123.89 34.81L123.84 34.75Q123.84 36.67 122.82 37.96L122.81 37.95L122.82 37.96Q121.69 39.42 119.83 39.23L119.90 39.31L119.86 39.26Q118.62 39.32 117.67 38.90L117.63 38.86L117.66 38.90Q117.31 38.09 117.31 36.87L117.28 36.84L117.29 36.85Q117.18 36.43 117.18 36.13L117.30 36.25L117.21 36.16Q117.30 34.50 118.63 33.34L118.53 33.23L118.45 33.15Q119.92 32.13 121.67 32.21Z"/><path fill="#333" d="M89.04 15.80L89.04 15.80L89.05 15.80Q91.06 20.78 91.63 25.96L91.50 25.83L91.56 25.88Q95.37 21.86 101.27 17.02L101.16 16.91L101.26 17.01Q104.36 16.61 106.99 15.81L106.91 15.74L100.43 21.44L100.51 21.51Q97.06 24.42 94.21 27.28L94.27 27.34L94.18 27.26Q102.12 36.37 107.19 41.10L107.22 41.13L107.20 41.11Q104.13 40.21 101.80 40.05L101.70 39.95L101.78 40.03Q95.96 34.59 91.65 28.76L91.79 28.90L91.79 28.89Q91.80 35.42 89.93 40.75L89.98 40.80L89.86 40.67Q89.65 40.73 89.16 40.92L89.32 41.09L89.13 41.08L89.22 41.18Q89.04 41.22 86.49 42.13L86.50 42.15L86.48 42.12Q89.37 35.50 89.02 28.03L89.03 28.04L89.02 28.04Q88.73 20.73 85.19 14.22L85.26 14.30L85.80 14.57L86.05 14.71L86.28 14.89L86.08 14.70Q86.88 15.15 89.09 15.84ZM89.35 15.53L89.31 15.49L89.48 15.66Q87.19 15.09 84.57 13.56L84.43 13.43L84.55 13.54Q88.77 20.77 88.77 29.72L88.86 29.81L88.76 29.71Q88.78 36.74 85.82 42.79L85.70 42.68L87.88 41.96L87.74 41.83Q87.39 42.88 86.70 44.17L86.84 44.31L86.76 44.24Q89.04 43.47 90.99 43.05L90.87 42.94L91.05 42.89L91.07 42.91Q91.19 42.72 91.76 42.57L91.94 42.76L91.89 42.71Q93.43 36.67 93.55 31.87L93.57 31.90L93.60 31.92Q95.75 34.49 97.58 36.36L97.49 36.28L97.49 36.27Q98.70 37.41 101.71 40.38L101.81 40.48L101.71 40.37L101.76 40.43Q102.79 41.26 104.65 42.86L104.51 42.72L104.62 42.83Q108.47 43.52 111.93 45.23L111.95 45.25L112.03 45.33Q102.66 36.68 96.41 29.26L96.48 29.32L96.49 29.33Q100.83 25.00 109.59 16.39L109.68 16.49L109.65 16.46Q106.94 17.44 104.93 17.82L105.04 17.93L104.95 17.84Q106.31 16.99 108.63 14.98L108.55 14.89L108.61 14.96Q104.45 16.32 101.10 16.51L101.02 16.43L101.13 16.54Q98.15 18.69 93.27 23.38L93.36 23.46L93.36 23.46Q92.86 20.76 92.29 18.21L92.40 18.31L92.38 18.29Q91.14 18.08 90.15 17.74L90.18 17.77L90.25 17.84Q90.02 17.07 89.45 15.63Z"/></svg>