<svg xmlns="http://www.w3.org/2000/svg" width="150" height="50" viewBox="0,0,150,50"><path fill="#333" d="M23.93 20.08L24.00 20.14L24.02 20.17Q19.59 20.04 15.90 19.05L15.91 19.06L15.92 19.07Q17.41 23.61 17.60 28.44L17.62 28.46L17.59 28.43Q17.80 33.24 16.58 37.85L16.59 37.86L16.58 37.85Q19.54 37.39 23.04 37.24L22.91 37.10L23.03 37.22Q26.78 36.85 28.56 34.42L28.67 34.52L28.61 34.47Q30.10 32.37 30.29 28.26L30.32 28.29L30.45 28.42Q30.36 26.51 29.90 24.79L29.98 24.87L30.00 24.89Q28.61 20.03 23.89 20.03ZM12.12 42.19L12.13 42.19L12.04 42.10Q15.03 36.53 15.03 29.83L14.98 29.78L15.02 29.82Q15.04 21.31 10.74 14.31L10.60 14.17L10.72 14.29Q16.01 16.99 24.27 17.18L24.23 17.14L24.11 17.02Q33.13 17.36 33.47 24.52L33.40 24.44L33.42 24.46Q33.50 27.13 33.46 28.58L33.51 28.62L33.48 28.60Q33.42 33.29 32.58 35.46L32.48 35.37L32.49 35.38Q32.13 36.54 31.37 37.38L31.45 37.46L31.28 37.29Q30.00 38.90 27.38 39.40L27.32 39.34L27.30 39.33Q25.86 39.75 22.86 39.98L22.77 39.89L22.88 40.01Q16.59 40.30 11.99 42.05ZM29.99 42.01L30.07 42.09L29.95 41.97Q32.67 41.60 34.30 40.12L34.45 40.27L34.46 40.28Q35.58 38.43 35.54 35.69L35.57 35.71L35.46 35.60Q35.62 34.40 35.47 30.89L35.45 30.87L35.08 26.32L34.98 26.22Q34.77 23.91 33.82 21.82L33.92 21.92L33.88 21.88Q33.29 20.87 32.60 20.22L32.70 20.32L32.71 20.17L32.62 20.09Q31.03 17.24 26.61 16.86L26.61 16.86L26.60 16.85Q23.91 16.70 16.90 15.98L16.83 15.91L16.90 15.98Q13.66 15.55 9.97 13.53L9.94 13.51L9.94 13.51Q14.83 20.95 14.83 29.70L14.79 29.67L14.65 29.53Q14.77 36.65 11.42 42.81L11.39 42.79L11.35 42.75Q12.12 42.57 13.45 42.07L13.32 41.94L13.48 42.10Q13.04 42.84 12.16 44.32L12.19 44.35L12.10 44.26Q15.13 43.18 18.48 42.69L18.63 42.84L18.60 42.80Q20.58 42.39 24.24 42.27L24.30 42.33L24.35 42.38Q28.14 42.17 29.96 41.98ZM29.98 28.33L29.96 28.31L30.08 28.44Q29.63 36.36 22.93 36.74L23.03 36.84L23.04 36.85Q20.92 36.79 18.86 37.05L18.88 37.07L18.95 37.14Q19.60 33.22 19.60 29.57L19.63 29.60L19.74 29.70Q19.58 25.85 18.86 22.01L18.94 22.09L18.87 22.02Q21.12 22.37 25.81 22.37L25.83 22.40L25.95 22.52Q27.34 22.38 28.98 23.33L28.84 23.20L28.81 23.17Q30.20 25.55 30.05 28.40Z"/><path fill="#222" d="M46.35 29.12L46.32 29.09L46.50 29.27Q44.46 29.09 43.24 30.42L43.24 30.43L43.32 30.51Q42.08 31.81 41.92 33.71L41.88 33.67L41.94 33.73Q41.69 35.80 42.91 36.81L42.93 36.84L43.09 37.00Q44.22 37.91 46.35 37.83L46.43 37.91L46.31 37.79Q48.63 37.64 49.58 36.69L49.69 36.80L49.58 36.68Q50.74 35.37 50.62 33.54L50.55 33.47L50.43 33.35Q50.33 31.50 49.25 30.30L49.34 30.39L49.42 30.47Q48.23 29.17 46.40 29.17ZM46.34 19.70L46.41 19.77L46.46 19.82Q45.07 19.73 43.74 20.23L43.65 20.14L43.73 20.22Q42.32 20.90 42.55 22.77L42.53 22.75L42.63 22.84Q42.99 26.45 46.34 26.45L46.50 26.60L46.51 26.61Q47.91 26.64 48.89 25.49L48.95 25.55L49.05 25.65Q50.02 24.49 50.06 22.93L50.04 22.91L49.99 22.86Q50.06 21.10 49.34 20.50L49.31 20.47L49.27 20.42Q47.71 19.70 46.42 19.78ZM46.19 40.37L46.18 40.37L43.13 40.37L43.09 40.32Q41.61 40.37 40.28 39.49L40.14 39.36L40.20 39.42Q38.81 38.25 38.96 35.39L38.96 35.39L39.02 35.45Q39.51 28.64 43.13 27.65L43.08 27.60L43.11 27.63Q40.77 26.66 39.44 21.29L39.46 21.32L39.54 21.39Q39.14 19.93 39.22 19.13L39.21 19.13L39.18 19.09Q39.58 17.05 43.27 17.01L43.09 16.83L43.27 17.02Q47.35 16.79 48.80 16.98L48.84 17.03L48.76 16.95Q52.68 17.55 53.13 19.57L53.09 19.52L53.17 19.60Q53.34 20.27 53.34 20.65L53.23 20.54L53.31 20.62Q53.28 21.27 53.08 21.88L53.10 21.89L53.14 21.94Q52.56 26.19 49.63 27.71L49.61 27.70L49.62 27.70Q53.09 28.47 53.59 33.77L53.49 33.67L53.63 33.81Q53.61 33.95 53.65 35.24L53.66 35.24L53.50 35.09Q53.70 37.95 52.10 39.02L52.14 39.05L52.00 38.92Q50.77 39.93 46.20 40.38ZM48.43 42.66L48.46 42.69L51.83 42.78L51.78 42.73Q53.37 42.69 54.90 41.97L54.96 42.03L55.05 42.12Q56.19 41.39 56.26 39.52L56.20 39.46L56.22 39.49Q56.19 38.31 55.81 36.37L55.78 36.34L55.90 36.46Q54.88 31.71 52.79 29.84L52.94 29.99L52.61 29.47L52.56 29.35L52.27 28.95L52.29 28.97Q53.89 27.56 54.81 23.41L54.90 23.50L54.78 23.39Q54.88 23.10 54.95 22.26L54.91 22.22L54.87 22.18Q55.07 21.62 55.00 21.01L54.87 20.89L54.91 20.93Q54.81 19.53 53.63 19.03L53.62 19.03L53.75 19.12L53.38 18.83L53.44 18.89Q53.21 18.20 52.03 17.40L52.05 17.42L52.06 17.39L52.04 17.37Q50.03 16.65 45.95 16.46L46.00 16.51L45.97 16.48Q44.48 16.43 43.11 16.55L43.11 16.55L43.06 16.50Q42.23 16.51 40.94 16.66L41.04 16.77L40.91 16.63Q38.97 17.02 38.75 18.66L38.73 18.64L38.72 18.63Q38.75 19.20 38.79 20.00L38.89 20.09L38.77 19.97Q39.00 20.62 39.57 22.98L39.47 22.88L39.42 22.83Q40.38 26.23 42.13 27.56L41.99 27.42L42.10 27.53L42.17 27.60Q39.37 28.88 38.84 34.06L38.74 33.96L38.76 33.97Q38.53 36.14 38.53 37.05L38.70 37.23L38.69 37.22Q38.74 38.98 39.92 39.89L39.86 39.83L39.91 39.89Q39.90 39.84 40.17 40.03L40.30 40.16L40.21 40.07Q41.33 42.44 48.45 42.67ZM48.06 31.55L48.14 31.63L48.06 31.55Q49.01 31.51 49.89 31.97L49.87 31.95L49.89 31.98Q50.17 32.86 50.13 33.39L50.28 33.54L50.12 33.38Q50.26 33.78 50.26 34.09L50.13 33.96L50.15 33.99Q50.18 36.38 47.90 37.22L48.02 37.33L47.91 37.23Q47.13 37.55 46.33 37.43L46.28 37.38L46.43 37.54Q45.30 37.62 44.16 37.17L44.16 37.17L44.09 37.10Q43.81 36.43 43.88 35.44L43.88 35.44L43.90 35.46Q44.00 33.81 45.20 32.59L45.21 32.60L45.19 32.59Q46.45 31.43 48.05 31.54ZM48.29 22.07L48.19 21.97L48.29 22.07Q49.00 21.87 49.54 22.02L49.61 22.10L49.57 22.85L49.70 22.99Q49.53 24.23 48.62 25.24L48.61 25.22L48.64 25.26Q47.73 26.27 46.36 26.08L46.40 26.12L46.49 26.21Q45.47 26.18 45.05 25.95L45.11 26.01L45.08 25.99Q45.04 25.71 44.93 25.03L44.81 24.91L44.89 25.00Q44.60 23.56 45.82 22.72L45.75 22.65L45.88 22.78Q46.80 21.95 48.21 21.99Z"/><path fill="#444" d="M70.51 29.96L70.43 29.88L70.42 29.87Q70.20 29.88 69.90 29.88L69.84 29.83L69.94 29.92Q68.45 29.76 67.00 30.60L67.01 30.61L67.07 30.67Q65.75 31.78 65.75 33.69L65.65 33.59L65.78 33.72Q65.75 37.12 67.28 38.45L67.33 38.50L67.34 38.52Q68.22 39.62 70.50 39.62L70.42 39.54L70.57 39.69Q70.76 39.66 71.07 39.66L70.99 39.57L71.02 39.60Q72.75 39.62 73.89 37.98L73.83 37.93L73.95 38.05Q74.90 36.45 74.82 34.66L74.79 34.62L74.88 34.71Q75.05 34.35 75.05 33.93L75.05 33.93L74.85 33.73Q75.04 32.13 73.67 30.97L73.55 30.85L73.65 30.95Q72.24 29.75 70.45 29.90ZM74.83 39.96L74.93 40.05L74.82 39.95Q73.98 42.03 70.24 42.14L70.11 42.01L70.10 42.00Q66.73 42.13 65.13 40.53L65.09 40.49L65.22 40.62Q63.80 38.90 63.00 34.10L62.88 33.98L63.02 34.12Q62.66 32.31 62.66 31.06L62.58 30.98L62.70 31.10Q62.52 29.13 63.24 28.06L63.37 28.19L63.39 28.21Q64.78 26.85 67.75 26.85L67.74 26.85L67.71 26.81Q74.02 26.80 75.92 29.39L75.95 29.43L75.89 29.36Q76.14 28.62 76.56 27.02L76.57 27.04L76.44 26.91Q77.80 26.70 80.23 25.90L80.30 25.97L80.13 25.80Q77.73 31.47 77.50 37.79L77.45 37.74L77.56 37.85Q77.31 43.99 79.44 49.82L79.51 49.89L79.42 49.80Q77.69 49.17 75.90 48.90L75.94 48.94L75.97 48.97Q75.10 45.06 74.98 40.11ZM75.60 49.18L75.60 49.17L75.61 49.19Q76.32 49.33 77.73 49.63L77.90 49.80L77.83 49.73Q78.11 50.50 78.68 51.91L78.57 51.80L78.69 51.92Q81.18 52.55 83.46 53.84L83.48 53.86L83.42 53.80Q79.53 47.35 79.53 38.83L79.46 38.75L79.44 38.74Q79.39 32.33 81.87 26.55L81.89 26.57L81.97 26.65Q81.21 26.88 79.83 27.52L79.90 27.59L79.86 27.54Q80.24 26.82 80.89 25.26L80.84 25.21L80.86 25.23Q79.30 25.77 76.10 26.64L76.05 26.59L76.06 26.61Q75.98 27.21 75.68 28.39L75.63 28.34L75.66 28.37Q73.58 26.41 67.45 26.26L67.48 26.29L67.55 26.36Q64.39 26.32 63.02 27.80L62.89 27.67L62.92 27.70Q62.24 28.92 62.28 30.83L62.20 30.75L62.34 30.89Q62.33 33.78 63.32 37.55L63.26 37.48L63.37 37.59Q64.07 40.04 64.98 40.99L64.85 40.86L65.36 41.37L65.22 41.23Q66.53 44.14 71.97 44.37L71.97 44.37L71.87 44.27Q72.96 44.36 74.78 44.06L74.69 43.97L74.81 44.08Q75.13 47.03 75.74 49.31ZM72.26 32.13L72.24 32.11L72.24 32.11Q73.42 32.22 74.26 32.53L74.18 32.45L74.27 32.54Q74.42 33.04 74.54 33.64L74.52 33.63L74.49 33.60Q74.55 34.11 74.47 34.72L74.45 34.70L74.57 34.82Q74.63 36.79 73.60 38.08L73.46 37.94L73.47 37.94Q72.40 39.46 70.53 39.27L70.57 39.31L70.54 39.28Q69.22 39.25 68.27 38.83L68.18 38.75L68.26 38.83Q67.83 37.94 67.83 36.72L67.99 36.89L67.88 36.78Q67.89 36.47 67.89 36.17L67.85 36.13L67.79 36.07Q67.90 34.43 69.23 33.27L69.21 33.24L69.20 33.24Q70.58 32.12 72.33 32.20Z"/><path fill="#222" d="M100.04 30.88L99.97 30.81L99.99 30.84Q100.10 29.42 99.28 28.51L99.24 28.47L99.31 28.53Q98.41 27.54 96.96 27.58L97.11 27.73L97.06 27.68Q94.78 27.79 93.94 29.93L93.80 29.78L93.85 29.84Q93.67 30.72 93.63 31.40L93.61 31.38L93.57 31.34Q93.29 36.13 92.38 40.47L92.40 40.49L92.39 40.48Q90.69 40.99 88.83 41.98L88.99 42.15L88.91 42.06Q91.13 35.03 90.86 27.72L90.86 27.72L90.91 27.77Q90.70 20.48 88.15 13.67L88.10 13.61L88.01 13.52Q89.91 14.97 91.93 15.65L91.94 15.67L91.87 15.59Q93.35 21.41 93.54 27.28L93.49 27.23L93.56 27.29Q94.98 25.25 97.68 25.33L97.64 25.29L97.65 25.30Q102.64 25.30 102.75 30.66L102.87 30.78L102.73 30.64Q103.00 36.47 104.37 41.12L104.37 41.11L104.38 41.13Q102.42 40.19 100.67 40.00L100.63 39.96L100.61 39.95Q100.14 36.74 100.03 30.87ZM100.41 40.40L100.34 40.32L100.38 40.36Q101.33 40.39 102.43 40.66L102.59 40.82L102.58 40.81Q102.52 40.86 103.05 42.84L103.05 42.85L103.03 42.82Q106.14 43.91 108.16 45.36L108.07 45.27L108.04 45.25Q105.43 39.55 104.90 33.23L104.80 33.13L104.77 33.10Q104.62 29.57 103.22 28.01L103.06 27.86L103.11 27.90Q103.11 27.83 102.47 27.37L102.39 27.30L102.46 27.37Q102.27 26.90 101.62 26.14L101.62 26.14L101.64 26.09L101.67 26.12Q100.72 25.17 97.60 24.90L97.56 24.87L97.64 24.94Q96.85 24.88 95.44 25.22L95.42 25.20L95.43 25.21Q95.30 20.43 94.95 17.92L94.91 17.88L94.95 17.92Q94.09 17.70 92.60 17.39L92.66 17.45L92.68 17.47Q92.52 16.74 92.25 15.26L92.24 15.24L92.19 15.19Q89.33 14.32 87.47 12.76L87.49 12.78L87.52 12.80Q90.30 19.77 90.57 27.58L90.58 27.59L90.64 27.65Q90.97 35.49 88.42 42.83L88.43 42.84L88.42 42.83Q89.33 42.22 90.47 41.72L90.46 41.71L89.72 43.97L89.71 43.96Q92.80 42.61 94.78 42.42L94.73 42.36L94.89 42.52Q95.32 36.98 95.51 33.02L95.56 33.07L95.52 33.03Q95.68 31.25 97.62 30.14L97.56 30.08L97.60 30.12Q98.02 29.78 98.56 29.82L98.61 29.88L98.60 29.87Q98.74 29.85 99.08 29.89L99.22 30.03L99.56 30.02L99.67 30.13Q99.65 30.49 99.76 30.95L99.64 30.83L99.73 30.92Q99.78 36.83 100.27 40.25Z"/><path fill="#111" d="M113.72 15.80L113.79 15.88L113.74 15.83Q115.67 20.73 116.24 25.91L116.25 25.92L116.30 25.96Q120.04 21.86 125.94 17.03L125.90 16.98L125.90 16.98Q129.10 16.68 131.73 15.88L131.60 15.76L125.20 21.54L125.16 21.50Q121.61 24.31 118.76 27.16L118.82 27.22L118.87 27.27Q126.78 36.37 131.85 41.09L131.84 41.09L131.78 41.02Q128.69 40.10 126.37 39.95L126.48 40.06L126.48 40.07Q120.76 34.72 116.46 28.90L116.46 28.90L116.44 28.88Q116.56 35.51 114.69 40.84L114.66 40.81L114.62 40.77Q114.31 40.72 113.81 40.91L113.89 40.99L113.83 41.12L113.89 41.17Q113.62 41.13 111.07 42.05L111.15 42.13L111.11 42.09Q114.04 35.50 113.69 28.04L113.70 28.05L113.66 28.01Q113.41 20.75 109.87 14.24L109.89 14.26L110.37 14.48L110.88 14.87L110.75 14.70L110.80 14.76Q111.54 15.15 113.75 15.83ZM113.99 15.50L114.06 15.57L114.01 15.53Q111.67 14.90 109.04 13.38L109.20 13.53L109.15 13.48Q113.41 20.75 113.41 29.70L113.36 29.64L113.44 29.73Q113.53 36.82 110.56 42.88L110.48 42.80L112.55 41.97L112.42 41.84Q112.03 42.86 111.35 44.15L111.50 44.30L111.41 44.22Q113.66 43.42 115.60 43.00L115.65 43.06L115.68 42.85L115.75 42.92Q115.94 42.81 116.51 42.66L116.60 42.74L116.52 42.67Q118.12 36.69 118.23 31.89L118.30 31.96L118.34 32.00Q120.38 34.46 122.21 36.32L122.20 36.32L122.28 36.40Q123.35 37.39 126.36 40.36L126.30 40.30L126.49 40.49L126.44 40.44Q127.42 41.23 129.28 42.83L129.35 42.90L129.28 42.83Q133.11 43.49 136.57 45.20L136.64 45.27L136.63 45.26Q127.35 36.71 121.11 29.28L121.02 29.20L121.02 29.20Q125.56 25.06 134.31 16.45L134.27 16.41L134.24 16.37Q131.78 17.61 129.77 17.99L129.65 17.88L129.73 17.96Q130.91 16.93 133.23 14.91L133.21 14.89L133.16 14.84Q129.16 16.36 125.81 16.55L125.79 16.53L125.84 16.58Q122.91 18.79 118.03 23.47L117.96 23.40L117.87 23.31Q117.65 20.87 117.07 18.32L117.09 18.34L116.93 18.18Q115.81 18.08 114.82 17.74L114.89 17.82L114.81 17.73Q114.68 17.07 114.11 15.62Z"/></svg>