<svg xmlns="http://www.w3.org/2000/svg" width="150" height="50" viewBox="0,0,150,50"><path fill="#222" d="M48.32 29.85L48.46 29.99L48.28 29.81Q45.90 29.83 44.57 31.05L44.46 30.94L44.51 30.99Q43.22 32.25 43.52 34.76L43.46 34.69L43.39 34.63Q43.73 37.18 44.95 38.43L44.90 38.39L44.99 38.47Q46.17 39.92 48.30 39.84L48.14 39.68L48.24 39.79Q48.80 39.77 48.99 39.77L49.01 39.79L48.95 39.73Q52.44 39.07 52.56 34.47L52.56 34.47L52.52 34.43Q52.67 32.14 51.98 31.34L51.90 31.26L52.01 31.37Q50.97 30.10 48.42 29.95ZM51.70 41.65L51.60 41.54L51.73 41.68Q50.41 42.25 48.85 42.18L48.83 42.17L48.88 42.21Q45.00 42.37 43.71 39.78L43.71 39.78L43.62 39.69Q43.46 45.05 42.12 49.31L42.15 49.33L42.18 49.37Q40.32 49.79 38.68 50.51L38.75 50.58L38.75 50.58Q41.22 44.53 40.96 37.56L41.04 37.65L40.99 37.60Q40.85 30.86 37.95 24.81L37.82 24.68L37.88 24.74Q39.93 26.03 41.64 26.49L41.57 26.41L42.16 27.95L42.08 27.88Q42.19 28.21 42.46 29.32L42.37 29.23L42.43 29.29Q43.56 27.33 47.13 27.14L47.06 27.07L47.14 27.14Q47.93 27.02 48.80 27.02L48.74 26.96L49.35 27.08L49.22 26.94Q49.45 27.06 49.64 27.10L49.69 27.14L49.89 27.04L49.92 27.07Q51.95 27.32 52.68 27.54L52.64 27.51L52.65 27.51Q54.12 27.96 55.00 28.91L55.18 29.09L54.99 28.90Q55.90 30.16 55.87 31.57L55.85 31.55L55.81 31.52Q55.85 34.41 55.05 37.07L54.98 37.01L54.99 37.02Q54.01 40.57 51.65 41.60ZM56.02 42.31L55.93 42.18L55.87 42.12Q57.08 40.24 57.38 36.13L57.38 36.13L57.31 36.06Q57.48 34.33 57.48 33.07L57.43 33.02L57.51 33.10Q57.65 31.72 56.89 30.31L56.82 30.24L56.71 30.13Q56.37 29.75 55.87 29.37L55.77 29.27L55.66 29.04L55.50 28.77L55.41 28.56L55.56 28.71Q53.81 26.66 49.47 26.66L49.39 26.58L48.75 26.55L48.81 26.61Q44.16 26.60 42.52 28.20L42.47 28.15L42.46 28.14Q42.43 27.76 42.28 27.27L42.26 27.25L41.88 26.07L41.91 26.10Q39.46 25.52 37.25 24.03L37.20 23.98L37.16 23.95Q40.47 30.30 40.77 37.53L40.84 37.60L40.86 37.62Q40.94 44.67 38.09 51.14L38.19 51.24L40.22 50.41L40.14 50.34Q39.91 51.10 39.23 52.66L39.18 52.61L39.34 52.77Q41.90 51.56 44.22 51.22L44.21 51.21L44.23 51.23Q45.45 46.51 45.61 42.78L45.63 42.80L45.49 42.67Q46.87 44.12 50.49 44.35L50.49 44.35L50.63 44.49Q54.46 44.64 55.91 42.20L56.05 42.34ZM50.33 32.20L50.26 32.13L50.24 32.11Q50.92 32.07 52.03 32.42L52.00 32.39L52.06 32.44Q52.33 33.44 52.29 34.62L52.19 34.52L52.28 34.61Q52.33 35.57 52.14 36.22L51.98 36.06L52.01 36.09Q51.28 38.98 48.77 39.28L48.92 39.43L48.94 39.33L48.86 39.26Q48.90 39.38 48.79 39.42L48.78 39.40L48.30 39.47L48.17 39.34Q46.98 39.32 45.99 38.82L45.96 38.80L45.71 36.84L45.73 36.85Q45.47 34.43 46.77 33.40L46.84 33.47L46.86 33.49Q47.79 32.33 50.19 32.06Z"/><path fill="#222" d="M76.84 40.93L76.93 41.03L76.81 40.90Q75.47 39.19 74.18 36.10L74.14 36.06L72.08 30.99L72.09 31.01Q70.63 35.15 70.03 36.44L70.01 36.43L69.86 36.28Q68.48 39.28 66.88 41.18L66.90 41.20L66.87 41.17Q66.51 41.19 65.75 41.30L65.81 41.36L65.69 41.25Q65.73 33.86 59.90 27.92L59.95 27.96L60.00 28.01Q58.21 26.15 56.19 24.67L56.13 24.60L56.12 24.59Q58.01 25.19 59.88 25.49L59.86 25.48L59.96 25.58Q66.00 30.51 67.45 36.76L67.33 36.64L67.30 36.61Q68.20 34.77 69.38 31.57L69.38 31.57L69.49 31.69Q70.80 27.89 71.37 26.59L71.43 26.66L72.77 26.58L72.81 26.63Q73.68 28.34 74.86 31.61L74.82 31.57L74.90 31.64Q76.04 35.11 76.69 36.52L76.75 36.58L76.73 36.56Q78.52 30.25 84.00 25.68L84.03 25.70L84.18 25.86Q85.26 25.64 88.01 25.07L88.13 25.20L88.14 25.20Q79.45 31.17 78.27 41.14L78.20 41.07L77.54 40.95L77.48 40.89Q77.15 40.86 76.81 40.90ZM79.89 43.45L81.98 43.68L81.95 43.65Q81.58 42.06 81.58 40.53L81.56 40.52L81.62 40.58Q81.55 37.27 82.96 34.04L82.94 34.02L82.96 34.04Q84.87 29.44 88.98 26.35L89.01 26.39L89.09 26.46Q87.94 26.80 86.08 27.14L85.93 26.99L86.08 27.14Q88.00 25.45 89.30 24.54L89.31 24.55L86.76 24.97L86.68 24.89Q85.51 25.16 84.18 25.32L84.26 25.40L84.20 25.34Q79.01 29.55 77.07 34.58L77.05 34.56L77.01 34.52Q76.36 32.35 74.99 28.09L75.13 28.23L75.07 28.17Q74.80 28.24 74.53 28.24L74.44 28.14L73.89 28.13L73.87 28.10Q73.88 27.92 73.08 26.17L73.05 26.14L71.03 26.17L70.94 26.08Q70.14 29.06 68.04 34.69L67.88 34.53L67.95 34.59Q66.55 30.84 63.47 27.56L63.46 27.56L63.52 27.61Q63.32 27.69 63.02 27.65L63.02 27.64L62.47 27.56L62.46 27.55Q61.49 26.61 59.70 25.02L59.66 24.98L59.73 25.05Q56.55 24.38 54.88 23.88L54.88 23.88L54.86 23.87Q65.76 31.50 65.38 41.81L65.37 41.80L65.31 41.74Q65.40 41.64 65.77 41.61L65.90 41.74L65.83 41.67Q66.16 41.60 66.35 41.60L66.48 41.73L66.30 41.55Q66.40 41.50 66.59 43.59L66.59 43.59L68.44 43.35L68.56 43.47Q71.09 40.60 73.34 34.85L73.40 34.91L73.41 34.91Q74.78 38.65 76.65 41.31L76.77 41.43L76.79 41.46Q76.98 41.31 77.25 41.32L77.36 41.44L77.33 41.41Q77.64 41.47 77.90 41.47L77.81 41.37L79.78 43.34Z"/><path fill="#222" d="M22.99 18.50L22.91 18.43L22.94 18.46Q22.28 18.90 22.13 19.70L22.04 19.61L22.07 24.79L22.14 24.86Q23.14 24.71 25.34 24.44L25.43 24.53L25.44 24.54Q25.32 24.87 25.28 25.71L25.31 25.74L25.42 25.85Q25.43 26.66 25.43 27.11L25.38 27.06L23.73 27.09L23.74 27.10Q22.87 27.11 22.00 27.11L22.02 27.13L22.11 27.22Q22.13 31.43 22.05 39.80L22.02 39.77L22.06 39.81Q19.69 39.72 18.20 40.41L18.19 40.40L18.36 40.56Q19.44 34.41 19.32 27.17L19.26 27.11L19.20 27.05Q18.55 27.01 17.26 26.75L17.26 26.75L17.33 26.82Q17.32 25.81 17.13 23.87L17.13 23.88L17.14 23.89Q18.22 24.36 19.18 24.55L19.12 24.50L19.20 24.58Q19.11 23.88 18.81 21.41L18.85 21.45L18.87 21.47Q18.60 19.37 18.60 18.42L18.59 18.40L18.55 18.37Q18.67 16.81 20.08 16.24L20.02 16.18L20.04 16.20Q20.94 15.92 25.77 15.09L25.73 15.04L25.66 14.97Q26.51 14.87 27.35 14.76L27.22 14.63L27.32 14.72Q27.03 15.43 26.87 16.30L26.89 16.32L26.69 17.98L26.60 17.89Q25.96 17.75 25.47 17.86L25.54 17.93L25.54 17.93Q24.86 17.86 22.96 18.47ZM28.45 19.66L28.30 19.52L28.46 19.67Q28.78 17.44 29.39 14.89L29.25 14.75L29.32 14.83Q28.75 15.21 27.46 15.82L27.45 15.81L27.79 14.06L27.81 14.08Q26.59 14.26 24.11 14.80L24.12 14.81L24.19 14.87Q22.88 14.82 19.69 15.74L19.69 15.74L19.76 15.81Q18.19 16.22 18.19 18.09L18.19 18.09L18.23 18.13Q18.26 18.46 18.34 18.80L18.28 18.75L18.29 18.75Q18.47 20.04 18.59 21.37L18.69 21.48L18.85 24.11L18.69 23.95Q17.34 23.60 16.70 23.14L16.77 23.22L16.73 23.17Q16.79 24.07 16.82 25.09L16.92 25.19L17.01 27.15L17.03 27.17Q17.85 27.46 18.65 27.53L18.56 27.44L18.60 29.57L18.86 29.45L18.94 29.54Q18.92 35.76 17.93 41.20L17.83 41.10L17.74 41.01Q18.89 40.67 20.07 40.41L19.99 40.32L19.82 42.41L19.87 42.46Q21.06 42.12 22.35 42.08L22.31 42.04L22.40 42.13Q23.67 42.15 24.93 42.41L24.77 42.25L24.74 42.23Q23.95 37.28 23.95 29.33L24.09 29.47L23.97 29.35Q25.02 29.29 27.11 29.37L27.14 29.40L27.27 27.66L27.10 27.49Q27.25 26.69 27.29 25.74L27.24 25.69L27.29 25.74Q26.83 25.85 25.76 26.12L25.71 26.06L25.68 26.03Q25.68 25.35 25.80 24.02L25.81 24.03L25.69 23.91Q24.96 24.25 24.16 24.33L24.16 24.32L24.14 24.30Q24.09 22.85 24.21 21.44L24.20 21.43L24.29 21.52Q24.51 20.94 25.04 20.60L25.01 20.56L24.99 20.54Q25.98 19.90 26.80 19.83L26.74 19.77L26.65 19.68Q27.47 19.60 28.31 19.52Z"/><path fill="#333" d="M98.12 32.08L88.96 22.17L88.94 22.14Q89.82 25.88 89.82 29.61L89.68 29.47L89.69 29.48Q89.80 35.56 87.74 41.12L87.82 41.20L87.67 41.05Q86.64 41.35 84.39 42.11L84.46 42.18L84.47 42.19Q87.14 36.26 87.14 29.56L87.27 29.69L87.21 29.62Q87.15 20.93 82.66 13.51L82.76 13.60L82.78 13.62Q83.07 13.65 83.75 14.06L83.89 14.20L83.85 14.16Q95.91 25.34 103.75 34.59L103.88 34.73L103.70 34.55Q103.55 32.26 103.55 29.82L103.54 29.82L103.49 29.76Q103.56 22.60 106.07 16.40L106.06 16.39L105.97 16.29Q108.28 15.75 109.88 15.06L109.91 15.09L109.91 15.10Q106.61 21.28 106.31 28.43L106.38 28.51L106.28 28.41Q105.93 35.70 108.89 41.87L109.03 42.01L108.92 41.89Q108.31 41.78 107.89 41.59L107.88 41.58L107.98 41.68Q103.31 37.62 98.10 32.06L98.12 32.09ZM111.60 45.15L111.56 45.11L111.52 45.07Q112.08 45.33 112.50 45.52L112.49 45.50L113.35 45.87L113.25 45.77Q108.23 38.96 108.23 29.60L108.10 29.47L108.24 29.60Q108.14 22.27 111.45 16.02L111.49 16.07L111.53 16.11Q110.85 16.30 109.44 16.91L109.43 16.90L109.39 16.86Q109.81 16.06 110.65 14.50L110.71 14.57L110.57 14.43Q108.25 15.45 105.81 16.03L105.72 15.93L105.68 15.89Q103.13 22.44 103.13 29.86L103.05 29.78L103.01 29.74Q103.03 31.63 103.22 33.61L103.35 33.74L103.38 33.77Q98.55 27.91 93.79 23.31L93.96 23.48L83.85 13.74L83.80 13.69Q83.21 13.37 81.99 12.80L82.01 12.81L82.06 12.87Q86.95 20.61 86.95 29.71L86.89 29.65L86.85 29.61Q86.85 36.73 83.77 42.74L83.87 42.85L83.85 42.83Q84.13 42.69 85.76 42.08L85.69 42.00L85.80 42.11Q85.36 42.78 84.53 44.27L84.56 44.30L84.63 44.37Q85.85 43.72 89.32 42.93L89.47 43.08L89.41 43.02Q91.78 36.94 91.78 29.75L91.78 29.75L91.81 29.77Q91.67 27.54 91.44 25.41L91.43 25.39L91.47 25.44Q102.98 38.28 111.59 45.14Z"/><path fill="#222" d="M114.34 47.15L114.35 47.16L114.21 47.02Q113.33 47.28 111.43 47.59L111.36 47.52L111.45 47.61Q112.78 45.47 113.81 44.18L113.75 44.12L113.78 44.15Q115.44 44.37 115.60 44.37L115.68 44.45L115.71 44.49Q116.00 44.54 116.53 44.43L116.42 44.32L116.44 44.34Q117.08 44.22 117.27 44.22L117.44 44.38L117.31 44.25Q119.90 44.03 119.83 41.86L119.74 41.77L119.79 41.83Q119.75 40.33 119.63 34.09L119.64 34.09L119.62 34.07Q119.57 30.53 119.65 26.38L119.78 26.51L121.11 26.24L121.20 26.33Q121.75 26.12 122.43 25.89L122.51 25.97L122.49 25.95Q122.16 30.26 122.20 34.64L122.27 34.71L122.29 34.73Q122.40 39.18 122.93 43.55L122.86 43.49L122.89 43.51Q122.90 43.75 122.90 44.02L122.96 44.08L122.95 44.08Q122.93 45.69 121.26 46.07L121.33 46.15L121.29 46.10Q118.21 46.52 114.36 47.17ZM120.97 22.79L118.82 19.65L118.96 19.79Q120.01 18.40 121.84 15.62L121.75 15.53L121.78 15.57Q122.44 16.45 123.77 18.28L123.85 18.36L121.06 22.88ZM124.15 49.58L124.04 49.46L124.07 49.50Q124.69 49.61 125.45 49.27L125.26 49.09L125.40 49.23Q125.63 48.42 125.63 47.96L125.63 47.97L125.70 48.04Q125.69 47.68 125.57 47.08L125.49 46.99L125.54 47.04Q124.17 40.61 124.17 32.69L124.19 32.71L124.13 32.65Q124.13 29.80 124.28 26.90L124.30 26.92L124.36 26.98Q123.82 27.16 122.68 27.47L122.68 27.47L122.61 27.40Q122.73 27.03 122.77 26.49L122.66 26.38L122.77 25.31L122.81 25.36Q121.08 25.98 119.29 26.02L119.37 26.10L119.42 26.15Q119.22 30.33 119.26 33.91L119.24 33.89L119.48 41.85L119.45 41.83Q119.61 43.89 117.44 44.00L117.43 44.00L117.32 43.89Q117.20 43.99 116.69 44.05L116.69 44.05L116.71 44.07Q116.18 44.12 115.92 44.12L115.82 44.02L115.75 43.95Q115.26 43.92 113.70 43.50L113.77 43.57L113.76 43.56Q113.39 44.25 112.28 45.93L112.15 45.80L110.74 48.23L110.62 48.11Q111.61 48.04 113.25 47.66L113.28 47.68L112.78 48.37L112.20 48.97L112.32 49.08Q114.54 48.87 115.87 48.95L115.86 48.93L115.78 48.86Q118.08 49.02 124.02 49.44ZM121.10 23.68L121.01 23.59L121.34 23.04L121.38 23.09Q121.72 23.50 122.67 25.10L122.60 25.02L122.63 25.06Q124.22 22.00 125.78 18.92L125.74 18.88L125.70 18.84Q124.82 17.35 123.87 16.06L123.74 15.93L123.85 16.04Q123.60 16.21 123.26 16.74L123.28 16.77L123.37 16.85Q122.83 16.09 121.84 14.79L121.98 14.93L121.95 14.90Q120.78 16.51 118.46 19.86L118.41 19.81L118.29 19.69Q119.31 21.01 121.02 23.60Z"/></svg>