<svg xmlns="http://www.w3.org/2000/svg" width="150" height="50" viewBox="0,0,150,50"><path fill="#333" d="M29.61 37.84L29.69 37.93L29.58 37.81Q29.94 38.86 30.48 40.88L30.52 40.92L30.50 40.90Q26.19 39.49 21.59 39.75L21.77 39.94L21.59 39.76Q17.13 40.13 13.13 42.11L13.20 42.18L13.15 42.13Q13.40 41.46 13.44 41.54L13.29 41.40L13.36 41.46Q17.11 37.53 21.04 33.11L21.04 33.11L20.93 33.01Q25.48 28.15 26.66 23.47L26.57 23.38L26.73 23.54Q27.10 21.70 25.82 20.52L25.85 20.55L25.87 20.56Q24.44 19.23 22.65 19.39L22.67 19.41L22.69 19.42Q22.38 19.42 22.03 19.42L22.00 19.38L22.07 19.46Q20.52 19.43 19.26 20.34L19.19 20.27L19.19 20.26Q18.05 21.79 18.28 24.45L18.28 24.46L18.22 24.40Q16.42 24.04 15.20 23.58L15.28 23.66L15.23 23.61Q15.08 22.24 15.00 20.80L14.95 20.74L15.04 20.83Q14.87 19.10 15.47 17.96L15.48 17.97L15.42 17.91Q17.26 16.58 20.61 16.58L20.71 16.69L22.42 16.64L22.46 16.68Q24.68 16.65 25.63 16.77L25.59 16.73L25.54 16.68Q29.92 17.14 30.18 19.57L30.20 19.59L30.20 19.59Q30.25 20.13 30.17 20.93L30.17 20.93L30.25 21.01Q30.16 21.60 30.00 22.29L30.05 22.33L30.10 22.38Q28.44 30.47 20.87 37.32L20.83 37.29L20.79 37.24Q22.28 37.17 23.65 37.17L23.48 37.01L23.63 37.16Q26.74 37.03 29.60 37.83ZM29.03 17.01L29.04 17.02L29.20 17.18Q27.59 16.52 25.87 16.44L25.82 16.39L22.31 16.12L22.44 16.25Q17.93 15.92 15.72 17.03L15.68 16.99L15.67 16.98Q14.66 18.40 14.66 20.46L14.65 20.45L14.67 20.47Q14.74 21.22 15.04 24.04L15.01 24.00L14.92 23.92Q15.57 24.26 16.75 24.57L16.73 24.55L16.62 25.46L16.68 25.52Q16.57 25.90 16.64 26.44L16.64 26.43L16.82 26.61Q18.06 26.71 20.53 26.94L20.38 26.78L20.38 26.78Q20.35 26.41 20.35 26.07L20.51 26.23L20.38 26.10Q20.50 24.40 21.72 23.05L21.71 23.04L21.60 22.92Q22.83 21.58 24.62 21.70L24.73 21.81L24.72 21.80Q25.43 21.78 26.19 21.94L26.17 21.91L26.10 21.85Q26.21 22.22 26.29 22.64L26.32 22.68L26.44 22.80Q26.33 23.07 26.26 23.41L26.28 23.44L26.39 23.54Q25.08 28.25 20.66 33.08L20.64 33.06L20.67 33.09Q18.48 35.28 13.04 41.33L13.11 41.41L13.16 41.45Q12.86 42.18 12.51 42.75L12.49 42.73L12.52 42.76Q14.09 41.85 15.61 41.32L15.76 41.46L15.75 41.46Q14.97 41.97 14.01 43.45L14.03 43.46L13.91 43.34Q13.94 43.83 13.82 44.18L13.79 44.14L13.72 44.07Q18.67 42.09 24.15 42.28L24.21 42.34L24.16 42.29Q29.81 42.42 34.38 44.78L34.32 44.72L33.39 42.65L33.34 42.60Q32.79 41.37 32.53 40.57L32.53 40.57L32.35 40.40Q31.74 40.08 30.52 39.66L30.45 39.60L30.47 39.62Q30.42 38.99 30.03 37.62L29.96 37.54L30.06 37.65Q27.82 37.04 25.54 36.85L25.40 36.72L25.54 36.86Q30.21 32.27 31.73 24.01L31.63 23.91L31.84 21.04L31.82 21.02Q31.80 19.28 30.58 18.59L30.63 18.65L30.52 18.58L30.57 18.63Q30.60 18.62 30.52 18.62L30.43 18.53L30.43 18.52Q30.29 17.77 29.18 17.16Z"/><path fill="#333" d="M122.14 40.21L122.03 40.11L120.03 40.39L119.97 40.33Q119.47 40.28 118.50 40.34L118.44 40.28L118.62 40.46Q117.64 40.51 117.14 40.51L117.06 40.42L117.08 40.45Q115.35 40.36 114.33 39.52L114.48 39.68L114.40 39.59Q115.23 38.52 116.86 36.39L116.89 36.41L116.73 36.25Q118.16 37.98 120.36 37.75L120.33 37.72L120.35 37.74Q121.17 37.53 121.82 36.88L121.81 36.87L121.90 36.96Q122.58 36.36 122.47 35.48L122.40 35.41L122.37 35.39Q122.19 30.71 122.26 26.14L122.34 26.21L122.27 26.14Q122.30 21.53 122.83 16.92L122.88 16.98L122.89 16.98Q124.81 16.77 126.94 15.74L126.99 15.79L127.08 15.88Q125.08 22.48 125.08 29.71L125.09 29.72L125.20 29.84Q125.08 33.26 125.54 36.76L125.67 36.89L125.59 36.81Q125.56 37.05 125.56 37.39L125.59 37.42L125.60 37.43Q125.72 38.12 125.49 38.65L125.48 38.65L125.39 38.55Q124.93 39.92 122.11 40.19ZM127.02 43.01L126.93 42.91L127.38 43.02L127.64 42.86L127.77 42.61L127.77 42.61Q128.27 42.53 128.34 42.42L128.25 42.33L128.24 42.32Q128.43 41.14 128.16 40.15L128.22 40.20L128.19 40.17Q126.88 34.41 127.14 28.05L127.03 27.94L127.20 28.10Q127.41 21.95 129.20 16.05L129.16 16.01L129.07 15.93Q128.25 16.63 126.99 17.35L127.05 17.41L126.99 17.35Q127.20 16.61 127.62 15.09L127.66 15.13L127.66 15.13Q125.18 16.49 122.51 16.79L122.48 16.76L122.42 16.70Q122.15 21.19 122.08 26.14L122.01 26.08L121.98 26.05Q121.93 31.97 122.01 35.40L122.05 35.44L122.10 35.49Q122.09 37.19 120.34 37.35L120.31 37.32L120.19 37.20Q118.50 37.34 116.82 35.70L116.97 35.85L116.99 35.86Q114.91 38.35 113.95 39.91L113.87 39.82L113.92 39.87Q114.55 40.50 115.58 40.73L115.47 40.62L115.53 40.68Q115.59 40.97 115.32 41.20L115.31 41.18L115.18 41.06Q116.71 42.10 118.69 42.36L118.64 42.31L118.56 42.24Q119.07 42.40 122.36 42.70L122.30 42.64L122.40 42.74Q125.54 42.89 126.91 42.89Z"/><path fill="#222" d="M89.13 15.88L89.09 15.84L89.02 15.77Q91.05 20.77 91.62 25.95L91.53 25.86L91.58 25.91Q95.19 21.68 101.09 16.84L101.27 17.02L101.18 16.93Q104.46 16.70 107.08 15.91L106.92 15.74L100.39 21.39L100.37 21.37Q96.96 24.32 94.11 27.18L94.09 27.16L94.12 27.19Q102.04 36.29 107.10 41.01L107.24 41.15L107.26 41.17Q104.18 40.26 101.86 40.11L101.77 40.02L101.69 39.94Q95.93 34.56 91.63 28.73L91.74 28.85L91.74 28.85Q91.73 35.35 89.86 40.68L89.90 40.71L89.90 40.71Q89.77 40.84 89.27 41.03L89.23 41.00L89.11 41.06L89.23 41.18Q89.07 41.26 86.52 42.17L86.52 42.17L86.48 42.13Q89.43 35.56 89.09 28.10L89.02 28.03L88.95 27.96Q88.82 20.83 85.28 14.32L85.23 14.27L85.76 14.53L86.16 14.82L86.25 14.87L86.14 14.76Q86.93 15.21 89.14 15.89ZM89.35 15.53L89.41 15.59L89.30 15.48Q87.00 14.90 84.38 13.38L84.43 13.43L84.44 13.43Q88.80 20.80 88.80 29.75L88.75 29.70L88.78 29.73Q88.81 36.77 85.84 42.82L85.83 42.81L87.82 41.91L87.73 41.82Q87.40 42.90 86.72 44.19L86.72 44.19L86.83 44.30Q89.02 43.45 90.96 43.03L90.93 43.00L91.04 42.88L91.04 42.88Q91.19 42.73 91.76 42.58L91.84 42.65L91.83 42.65Q93.48 36.72 93.60 31.92L93.52 31.84L93.53 31.85Q95.61 34.35 97.43 36.22L97.49 36.27L97.57 36.35Q98.79 37.50 101.80 40.47L101.69 40.36L101.67 40.34L101.68 40.35Q102.82 41.30 104.69 42.90L104.55 42.76L104.58 42.79Q108.47 43.52 111.93 45.23L111.93 45.23L112.03 45.33Q102.75 36.77 96.50 29.35L96.47 29.31L96.35 29.20Q100.74 24.90 109.49 16.30L109.59 16.39L109.50 16.30Q106.96 17.46 104.94 17.84L105.10 18.00L105.02 17.92Q106.25 16.93 108.57 14.91L108.63 14.98L108.59 14.93Q104.48 16.35 101.13 16.54L101.16 16.57L101.20 16.61Q98.13 18.67 93.25 23.36L93.36 23.46L93.20 23.30Q92.90 20.79 92.33 18.24L92.29 18.21L92.30 18.22Q91.21 18.15 90.22 17.81L90.20 17.79L90.18 17.77Q89.86 16.92 89.29 15.47Z"/><path fill="#333" d="M71.13 29.23L71.06 29.15L71.03 29.13Q69.32 29.29 68.10 30.62L68.03 30.55L67.91 30.43Q66.87 31.94 66.72 33.85L66.72 33.84L66.55 33.67Q66.44 35.89 67.66 36.89L67.75 36.99L67.73 36.97Q68.80 37.83 70.94 37.75L70.92 37.74L70.92 37.74Q73.25 37.60 74.20 36.64L74.22 36.66L74.36 36.80Q75.23 35.19 75.11 33.37L75.23 33.49L75.12 33.38Q75.02 31.52 73.93 30.32L73.93 30.32L74.10 30.48Q72.96 29.23 71.13 29.23ZM71.09 19.79L71.09 19.79L71.00 19.70Q69.60 19.59 68.27 20.09L68.25 20.07L68.25 20.07Q66.97 20.88 67.20 22.75L67.32 22.87L67.14 22.69Q67.83 26.61 71.18 26.61L71.15 26.58L71.12 26.55Q72.72 26.78 73.71 25.64L73.61 25.55L73.67 25.60Q74.57 24.37 74.60 22.81L74.69 22.89L74.60 22.80Q74.65 21.03 73.93 20.42L73.96 20.45L74.02 20.50Q72.27 19.60 70.98 19.68ZM70.80 40.32L70.74 40.26L67.82 40.39L67.75 40.32Q66.20 40.29 64.86 39.41L64.87 39.41L64.89 39.43Q63.48 38.26 63.63 35.40L63.71 35.48L63.67 35.44Q64.12 28.58 67.74 27.59L67.64 27.49L67.82 27.67Q65.36 26.58 64.03 21.22L64.15 21.33L64.06 21.25Q63.88 20.00 63.95 19.20L63.94 19.18L63.88 19.12Q64.17 16.98 67.86 16.94L67.91 16.99L67.85 16.93Q72.14 16.91 73.58 17.10L73.47 16.99L73.47 16.99Q77.34 17.55 77.80 19.56L77.85 19.62L77.87 19.63Q77.99 20.26 77.99 20.64L77.98 20.62L77.99 20.64Q78.03 21.36 77.84 21.97L77.77 21.90L77.71 21.84Q77.24 26.20 74.31 27.73L74.18 27.59L74.25 27.66Q77.73 28.44 78.23 33.74L78.17 33.68L78.19 33.70Q78.20 33.87 78.24 35.16L78.22 35.14L78.24 35.16Q78.39 37.98 76.79 39.04L76.77 39.02L76.80 39.05Q75.43 39.92 70.86 40.38ZM73.04 42.60L73.14 42.70L76.32 42.61L76.43 42.72Q78.20 42.84 79.72 42.12L79.65 42.05L79.56 41.96Q80.83 41.37 80.91 39.50L80.96 39.55L80.97 39.56Q80.95 38.40 80.57 36.46L80.52 36.42L80.57 36.47Q79.68 31.84 77.59 29.98L77.58 29.97L77.28 29.47L77.15 29.27L76.94 28.95L76.97 28.98Q78.66 27.66 79.57 23.51L79.44 23.38L79.62 23.56Q79.59 23.15 79.67 22.31L79.67 22.31L79.71 22.35Q79.79 21.67 79.71 21.06L79.57 20.92L79.71 21.06Q79.49 19.55 78.31 19.05L78.38 19.12L78.42 19.12L78.13 18.91L78.07 18.85Q77.82 18.14 76.64 17.34L76.70 17.40L76.68 17.34L76.74 17.41Q74.80 16.76 70.72 16.57L70.65 16.49L70.74 16.58Q69.04 16.32 67.67 16.44L67.65 16.43L67.81 16.58Q66.84 16.45 65.55 16.61L65.63 16.69L65.58 16.63Q63.69 17.07 63.47 18.71L63.40 18.64L63.50 18.75Q63.51 19.29 63.55 20.08L63.57 20.11L63.41 19.95Q63.50 20.45 64.07 22.81L64.15 22.90L64.20 22.95Q64.92 26.11 66.67 27.44L66.80 27.56L66.83 27.59L66.87 27.64Q64.00 28.83 63.46 34.01L63.52 34.06L63.51 34.06Q63.26 36.21 63.26 37.12L63.37 37.23L63.36 37.22Q63.35 38.92 64.53 39.83L64.50 39.81L64.49 39.79Q64.58 39.85 64.85 40.04L64.99 40.18L64.91 40.10Q65.98 42.43 73.10 42.66ZM72.73 31.55L72.77 31.59L72.79 31.62Q73.74 31.57 74.61 32.03L74.56 31.97L74.50 31.92Q74.97 32.99 74.93 33.53L74.95 33.55L74.81 33.41Q74.98 33.85 74.98 34.15L74.92 34.08L74.94 34.11Q74.87 36.40 72.59 37.24L72.65 37.30L72.58 37.23Q71.77 37.53 70.98 37.41L71.10 37.53L70.93 37.36Q69.91 37.57 68.77 37.11L68.73 37.07L68.68 37.03Q68.40 36.36 68.48 35.37L68.58 35.47L68.66 35.55Q68.77 33.92 69.97 32.70L69.98 32.71L69.97 32.70Q71.18 31.49 72.78 31.60ZM72.88 22.00L72.92 22.04L72.98 22.09Q73.66 21.87 74.20 22.02L74.30 22.12L74.24 22.86L74.28 22.90Q74.24 24.27 73.33 25.28L73.38 25.33L73.40 25.35Q72.40 26.27 71.03 26.08L71.08 26.14L71.05 26.11Q70.03 26.08 69.61 25.85L69.69 25.93L69.76 26.00Q69.66 25.67 69.55 24.98L69.43 24.87L69.51 24.95Q69.18 23.47 70.40 22.64L70.51 22.74L70.44 22.68Q71.50 21.99 72.91 22.03Z"/><path fill="#333" d="M46.17 29.73L46.19 29.76L46.11 29.68Q41.89 29.45 41.32 32.50L41.38 32.56L41.44 32.62Q41.17 33.61 41.36 34.48L41.41 34.53L41.36 34.48Q41.49 35.37 41.94 36.78L41.92 36.76L41.94 36.78Q42.88 39.81 46.20 39.66L46.25 39.71L46.19 39.66Q48.38 39.90 49.71 38.34L49.64 38.27L49.69 38.32Q50.86 36.78 50.86 34.73L50.77 34.64L50.74 34.61Q51.02 34.17 50.87 33.10L50.83 33.07L50.87 33.10Q50.81 32.20 50.39 31.52L50.37 31.50L50.29 31.42Q48.83 29.92 46.24 29.81ZM50.94 48.13L50.94 48.14L50.99 48.19Q49.19 48.79 41.12 49.17L41.16 49.20L41.03 49.08Q39.40 49.19 37.76 48.36L37.86 48.46L37.86 48.45Q38.54 47.35 40.37 45.56L40.42 45.61L40.39 45.58Q42.84 46.66 44.93 46.47L44.85 46.38L44.88 46.41Q47.75 46.12 48.58 45.85L48.65 45.93L48.71 45.99Q51.00 45.34 51.00 43.55L50.96 43.51L50.92 43.47Q50.86 43.18 50.79 42.96L50.91 43.08L50.70 41.38L50.67 41.35Q50.64 40.57 50.64 39.77L50.75 39.87L50.70 39.82Q49.35 42.09 45.96 42.09L46.02 42.14L45.87 42.00Q41.99 42.00 40.35 39.79L40.51 39.95L40.44 39.88Q39.43 38.45 38.63 34.03L38.57 33.98L38.49 33.89Q38.24 32.43 38.24 31.02L38.16 30.94L38.18 30.96Q38.25 29.24 39.16 28.25L39.09 28.17L39.11 28.20Q40.83 26.84 45.48 26.84L45.46 26.82L47.19 26.99L47.14 26.94Q50.39 27.34 51.73 29.28L51.82 29.38L51.79 29.34Q51.95 28.47 52.37 26.84L52.37 26.83L52.29 26.76Q54.21 26.47 55.96 25.75L55.92 25.70L55.86 25.65Q53.19 31.73 53.19 38.96L53.32 39.09L53.37 39.14Q53.18 41.62 53.56 44.25L53.66 44.34L53.67 44.36Q53.75 44.93 53.67 45.61L53.86 45.80L53.74 45.68Q53.67 47.17 52.45 47.93L52.36 47.84L52.40 47.88Q51.95 48.20 51.11 48.31ZM54.06 51.22L54.03 51.19L54.02 51.18Q55.53 51.28 56.29 50.33L56.18 50.22L56.19 50.22Q56.56 49.30 56.44 48.58L56.53 48.66L56.51 48.65Q56.39 47.99 56.20 47.23L56.17 47.19L56.09 47.11Q54.95 41.98 55.29 36.73L55.33 36.77L55.36 36.79Q55.68 31.32 57.81 26.49L57.85 26.53L55.76 27.49L55.60 27.32Q55.81 26.70 56.04 26.13L56.10 26.19L56.69 25.14L56.54 24.99Q54.27 26.04 52.07 26.46L52.08 26.47L52.02 26.41Q51.77 27.34 51.62 28.37L51.51 28.27L51.60 28.35Q49.47 26.41 45.43 26.41L45.50 26.48L43.76 26.49L43.78 26.50Q40.44 26.41 38.77 27.81L38.84 27.89L38.78 27.83Q37.76 28.71 37.80 30.61L37.94 30.76L37.80 30.62Q37.89 33.14 38.91 37.40L38.94 37.42L38.91 37.40Q39.38 39.32 40.60 40.72L40.73 40.85L40.92 41.05L41.00 41.13L41.08 41.21Q42.23 43.53 44.81 44.07L44.80 44.05L44.82 44.07Q46.07 44.21 47.51 44.25L47.66 44.40L47.60 44.33Q49.37 44.40 50.44 44.02L50.37 43.95L50.40 43.98Q49.77 45.52 47.11 45.86L47.09 45.85L47.18 45.94Q46.16 46.13 45.47 46.13L45.32 45.98L45.10 46.14L45.01 46.05Q42.27 46.13 40.60 45.18L40.62 45.20L38.81 46.81L38.85 46.86Q37.97 47.65 37.13 48.61L37.13 48.60L37.10 48.58Q38.12 49.13 39.11 49.32L39.10 49.31L38.14 50.11L38.17 50.14Q40.93 51.26 46.57 51.26L46.61 51.30L46.88 51.35L46.71 51.18Q50.47 51.32 54.05 51.21ZM48.03 32.02L48.12 32.10L48.12 32.10Q49.41 32.02 50.32 32.44L50.33 32.45L50.33 32.45Q50.52 32.95 50.60 33.63L50.59 33.62L50.55 33.58Q50.57 33.87 50.53 34.78L50.51 34.76L50.44 34.69Q50.55 36.78 49.44 38.07L49.42 38.05L49.43 38.06Q48.11 39.33 46.21 39.29L46.36 39.45L46.23 39.31Q44.80 39.25 43.96 38.84L44.06 38.93L43.91 38.79Q43.62 37.73 43.58 36.70L43.47 36.59L43.65 36.77Q43.39 32.28 47.99 31.98Z"/></svg>