<svg xmlns="http://www.w3.org/2000/svg" width="150" height="50" viewBox="0,0,150,50"><path fill="#222" d="M21.60 29.03L21.67 29.10L21.76 29.20Q19.80 28.94 18.56 30.37L18.65 30.46L18.71 30.52Q17.46 31.94 17.27 33.84L17.20 33.77L17.11 33.68Q17.04 35.90 18.13 36.87L18.06 36.80L18.01 36.75Q19.20 37.83 21.30 37.72L21.25 37.67L21.16 37.58Q23.39 37.56 24.49 36.87L24.44 36.82L24.44 36.82Q25.59 35.73 25.59 34.17L25.53 34.10L25.59 34.17Q25.56 33.76 25.48 33.37L25.40 33.29L25.44 33.33Q25.63 31.77 24.53 30.42L24.43 30.32L24.45 30.34Q23.33 28.97 21.65 29.09ZM21.19 40.16L21.20 40.16L21.20 40.17Q16.82 40.17 15.41 39.41L15.49 39.49L15.47 39.47Q14.51 38.77 14.32 37.06L14.19 36.92L14.24 36.97Q14.21 36.30 14.25 35.58L14.31 35.64L14.30 35.63Q14.42 34.64 14.42 34.18L14.44 34.21L14.39 34.16Q14.91 31.37 15.07 30.68L14.96 30.58L14.92 30.53Q15.42 28.64 16.25 27.23L16.32 27.30L16.36 27.33Q18.84 22.78 24.78 16.42L24.81 16.44L24.79 16.43Q27.56 16.23 29.77 15.43L29.68 15.34L29.76 15.42Q22.80 22.77 19.60 27.00L19.60 26.99L19.76 27.15Q20.60 26.51 21.89 26.51L22.04 26.65L21.93 26.54Q25.24 26.54 26.76 28.49L26.77 28.50L26.92 28.64Q28.16 30.19 28.50 33.73L28.47 33.70L28.40 33.63Q28.51 34.39 28.51 34.99L28.47 34.95L28.61 35.09Q28.64 38.24 26.43 39.31L26.36 39.23L26.45 39.33Q25.23 39.93 21.35 40.31ZM23.59 42.67L23.57 42.65L23.47 42.55Q24.74 42.49 26.72 42.56L26.79 42.63L26.78 42.63Q28.45 42.74 30.01 42.01L29.95 41.95L30.08 42.08Q31.06 41.16 31.06 39.37L31.17 39.47L31.09 39.40Q31.17 38.98 31.00 37.99L30.99 37.98L30.99 37.99Q30.77 36.95 30.77 36.49L30.74 36.46L30.68 36.40Q29.84 31.72 28.24 29.81L28.24 29.81L28.33 29.90Q28.18 29.71 28.03 29.48L28.04 29.49L27.84 29.37L27.74 29.31L27.79 29.36Q27.40 28.82 26.79 27.87L26.65 27.72L26.80 27.87Q25.89 26.93 23.91 26.47L23.86 26.42L23.85 26.41Q25.03 24.77 28.00 21.08L28.10 21.18L32.17 15.73L32.26 15.82Q30.76 16.76 28.36 17.52L28.38 17.54L28.27 17.43Q29.24 16.49 31.03 14.51L30.92 14.41L30.97 14.45Q28.53 15.48 24.64 16.05L24.65 16.05L24.70 16.10Q19.01 22.03 16.04 26.98L16.05 26.99L16.08 27.02Q14.59 29.56 14.02 35.81L13.95 35.74L14.04 35.82Q13.83 36.26 13.91 37.21L13.85 37.16L13.94 37.25Q14.01 39.00 15.12 39.91L15.06 39.86L15.22 40.02Q15.43 39.99 15.39 40.03L15.44 40.08L15.40 40.04Q15.93 41.10 16.73 41.52L16.61 41.40L16.66 41.45Q18.00 42.03 19.94 42.22L20.05 42.33L20.12 42.40Q20.12 42.40 23.62 42.70ZM23.39 31.47L23.38 31.46L23.24 31.32Q23.84 31.23 24.79 31.73L24.89 31.83L24.94 31.88Q25.21 32.76 25.21 33.41L25.21 33.41L25.25 33.44Q25.41 35.28 24.46 36.27L24.38 36.19L24.46 36.27Q23.41 37.01 21.31 37.31L21.30 37.29L21.32 37.32Q19.81 37.26 19.28 36.99L19.28 36.99L19.19 36.90Q19.18 36.63 19.18 36.32L18.99 36.13L18.99 36.13Q18.96 33.05 21.89 31.76L21.78 31.65L21.88 31.75Q22.49 31.25 23.25 31.33Z"/><path fill="#444" d="M119.47 28.82L119.61 28.97L119.61 28.96Q116.94 28.85 115.91 30.03L115.94 30.05L115.90 30.02Q115.06 31.38 115.06 34.01L115.01 33.96L114.93 33.88Q114.88 38.93 119.48 38.74L119.48 38.73L119.63 38.89Q121.59 38.94 122.94 37.38L123.08 37.52L123.07 37.51Q124.29 35.81 124.06 33.76L124.23 33.93L124.19 33.89Q124.23 31.37 123.35 30.35L123.17 30.16L123.33 30.33Q121.76 28.90 119.55 28.90ZM124.60 38.71L124.58 38.69L124.51 38.62Q123.41 41.18 118.72 41.18L118.79 41.24L117.27 41.17L117.26 41.16Q114.88 41.14 113.77 39.99L113.80 40.02L113.83 40.06Q112.83 39.06 112.57 36.66L112.56 36.65L112.43 36.52Q112.28 35.04 112.20 33.25L112.32 33.37L112.32 33.37Q112.20 32.29 112.05 30.35L112.13 30.44L112.01 30.31Q112.03 26.15 117.21 26.15L117.14 26.08L118.70 26.07L118.68 26.06Q121.61 26.10 123.71 27.39L123.74 27.43L123.64 27.32Q124.52 27.90 125.01 28.58L125.02 28.59L125.11 28.68Q125.35 27.85 125.88 26.22L125.78 26.11L125.72 26.05Q126.97 25.90 129.29 25.29L129.27 25.27L129.37 25.37Q126.69 29.50 126.69 34.76L126.81 34.87L126.72 34.78Q126.77 38.57 128.14 41.65L128.21 41.72L128.13 41.64Q126.94 41.28 125.03 41.05L125.06 41.08L124.99 41.00Q124.89 40.26 124.58 38.70ZM127.80 43.82L127.99 44.01L130.20 44.58L130.03 44.41Q131.37 44.84 132.36 45.29L132.36 45.29L132.24 45.18Q128.67 40.92 128.67 34.83L128.57 34.73L128.70 34.86Q128.69 30.32 130.83 26.52L130.76 26.45L130.74 26.43Q130.19 26.76 128.86 27.14L128.84 27.12L128.72 27.00Q129.19 26.37 130.07 24.84L130.13 24.91L130.11 24.88Q129.49 25.03 125.49 25.86L125.47 25.84L124.89 27.66L124.85 27.62Q123.13 25.94 118.71 25.71L118.67 25.67L118.71 25.70Q117.60 25.74 115.35 25.89L115.39 25.92L115.44 25.97Q111.59 26.16 111.70 30.19L111.80 30.29L111.67 30.16Q111.90 33.59 112.47 38.04L112.36 37.93L112.53 38.53L112.56 38.56Q112.53 39.24 113.33 40.35L113.44 40.46L113.42 40.44Q113.57 40.59 113.76 40.70L113.80 40.74L113.69 40.63Q114.10 41.27 114.48 41.84L114.35 41.71L114.31 41.68Q115.74 43.22 119.13 43.41L119.12 43.40L119.15 43.43Q120.82 43.58 120.98 43.58L121.02 43.63L122.52 43.57L122.44 43.49Q125.79 43.63 127.00 42.07L127.05 42.11L126.90 41.96Q127.33 42.66 127.94 43.96ZM121.27 31.08L121.35 31.16L121.33 31.14Q122.69 31.17 123.53 31.63L123.56 31.66L123.62 31.72Q123.91 32.50 123.91 33.95L123.90 33.94L123.88 33.92Q123.99 35.74 122.71 37.17L122.72 37.18L122.81 37.26Q121.54 38.70 119.63 38.51L119.64 38.51L119.62 38.49Q118.11 38.43 117.08 38.01L117.11 38.04L117.14 38.07Q116.92 37.21 116.92 35.99L116.94 36.00L116.93 36.00Q117.07 32.48 119.70 31.53L119.68 31.51L119.63 31.46Q120.65 31.26 121.45 31.26Z"/><path fill="#111" d="M95.55 40.29L95.47 40.21L95.58 40.32Q92.01 40.33 90.38 39.80L90.31 39.73L90.33 39.75Q88.43 39.18 88.12 35.79L88.18 35.85L89.58 34.74L89.49 34.64Q90.36 34.26 91.12 33.77L90.98 33.62L91.10 33.75Q90.75 35.57 92.35 36.79L92.39 36.83L92.39 36.83Q93.61 37.78 95.74 37.59L95.77 37.62L95.78 37.63Q100.21 37.26 100.02 33.72L99.92 33.62L99.88 33.58Q99.76 31.37 97.13 30.15L97.10 30.12L97.12 30.13Q94.44 29.24 92.08 28.02L92.02 27.96L91.95 27.90Q89.35 26.52 88.37 21.84L88.45 21.92L88.53 22.01Q88.42 21.55 88.31 20.79L88.12 20.60L88.30 20.78Q88.10 19.90 88.18 19.33L88.27 19.42L88.27 19.42Q88.41 17.80 89.66 17.35L89.57 17.25L89.57 17.26Q92.11 16.52 96.11 16.71L95.99 16.59L95.95 16.55Q97.80 16.69 98.60 16.77L98.59 16.76L98.59 16.76Q100.05 16.92 101.11 17.38L101.13 17.39L101.27 17.53Q103.24 17.87 103.47 20.34L103.62 20.49L103.51 20.39Q102.55 21.18 100.34 22.51L100.31 22.47L100.32 22.48Q99.90 19.47 95.52 19.47L95.59 19.54L95.51 19.46Q93.51 19.37 92.52 20.06L92.58 20.11L92.54 20.07Q91.45 20.66 91.68 22.45L91.58 22.35L91.60 22.37Q91.85 24.56 94.82 26.08L94.83 26.09L94.94 26.20Q95.33 26.29 99.82 27.92L99.85 27.95L99.88 27.99Q102.60 29.57 103.02 33.94L102.99 33.91L102.86 33.78Q102.88 33.95 102.95 35.21L102.94 35.19L102.99 35.25Q103.01 37.96 101.44 39.07L101.54 39.16L101.60 39.22Q99.77 40.20 95.58 40.32ZM97.75 42.56L97.79 42.60L97.72 42.54Q99.18 42.62 101.16 42.62L101.23 42.70L101.19 42.66Q103.24 42.61 104.50 42.19L104.58 42.28L104.68 42.37Q105.82 41.46 105.75 39.67L105.80 39.73L105.77 39.70Q105.76 38.73 105.38 36.68L105.30 36.60L105.32 36.62Q104.36 31.89 102.27 30.03L102.32 30.08L102.23 29.99Q101.56 28.52 100.23 27.80L100.27 27.84L94.78 25.59L94.78 25.59Q94.66 25.62 94.21 25.39L94.05 25.24L93.99 24.91L93.90 24.48L93.89 24.47Q93.77 23.09 94.91 22.48L94.95 22.52L94.92 22.49Q95.62 21.85 97.33 21.66L97.51 21.85L97.43 21.77Q98.67 21.75 99.81 22.20L99.66 22.05L99.75 22.15Q99.69 22.13 99.89 22.96L99.96 23.04L100.01 23.09Q100.15 22.89 100.65 22.66L100.75 22.77L100.57 22.58Q101.41 23.62 101.53 24.76L101.49 24.72L101.57 24.80Q101.49 24.60 105.14 22.01L105.25 22.13L105.14 22.01Q104.90 19.41 103.45 18.73L103.55 18.82L103.48 18.75Q102.99 17.58 101.54 17.05L101.59 17.09L101.45 16.95Q99.25 16.23 96.05 16.23L95.97 16.16L95.99 16.18Q91.17 16.27 89.31 16.95L89.28 16.93L89.19 16.84Q87.90 17.34 87.79 19.01L87.88 19.11L87.78 19.00Q87.73 19.53 88.15 21.74L88.17 21.75L88.17 21.76Q88.81 25.48 90.98 27.73L91.09 27.84L91.03 27.77Q91.82 29.48 93.33 30.17L93.29 30.13L93.33 30.17Q94.87 30.89 98.79 32.45L98.71 32.37L98.73 32.43L99.37 32.77L99.50 32.93L99.47 32.91Q99.53 33.23 99.57 33.57L99.67 33.67L99.56 33.56Q99.69 37.08 95.76 37.23L95.88 37.35L95.76 37.23Q94.61 37.25 93.31 36.87L93.40 36.96L93.36 36.92Q93.03 36.09 93.03 35.37L92.93 35.27L93.11 35.45Q93.11 35.19 93.15 34.92L93.02 34.79L93.02 34.79Q92.68 35.10 91.88 35.60L91.84 35.55L91.93 35.64Q91.30 34.40 91.45 33.03L91.40 32.98L91.56 33.14Q89.49 34.34 87.89 35.75L87.84 35.70L87.73 35.59Q87.80 36.42 87.87 37.45L87.96 37.54L87.97 37.55Q88.22 39.20 89.51 39.97L89.59 40.04L89.56 40.01Q90.68 41.74 93.23 42.12L93.28 42.17L93.27 42.16Q94.81 42.36 97.74 42.55Z"/><path fill="#333" d="M71.93 30.36L71.99 30.41L71.98 30.40Q68.60 36.84 65.17 40.80L65.17 40.80L65.11 40.74Q63.27 41.18 60.83 42.06L60.88 42.11L60.75 41.98Q65.63 36.35 70.39 27.94L70.50 28.04L70.43 27.98Q65.91 21.10 59.93 14.70L59.95 14.71L59.84 14.61Q62.71 15.77 64.99 16.26L65.03 16.30L65.05 16.32Q69.72 21.56 72.16 25.52L72.26 25.62L72.12 25.48Q74.61 21.04 78.53 16.63L78.62 16.72L78.61 16.71Q80.25 16.44 83.45 15.68L83.39 15.62L83.34 15.57Q77.25 22.00 73.78 27.94L73.87 28.03L73.82 27.98Q79.07 36.73 83.45 41.30L83.41 41.26L83.50 41.35Q80.87 40.51 78.78 40.28L78.78 40.28L78.66 40.16Q75.84 37.16 71.92 30.35ZM78.74 40.66L78.74 40.67L78.67 40.60Q78.99 40.65 79.45 40.76L79.34 40.66L79.43 40.75Q80.24 41.52 81.77 43.12L81.80 43.15L81.77 43.12Q85.08 43.88 88.12 45.25L88.08 45.21L88.03 45.16Q80.89 38.55 75.79 29.79L75.81 29.81L75.83 29.83Q79.66 23.27 85.56 16.42L85.60 16.46L85.54 16.40Q84.08 17.04 81.91 17.57L82.02 17.68L81.89 17.55Q82.82 16.69 84.57 14.90L84.61 14.94L84.56 14.89Q82.10 15.70 78.41 16.27L78.47 16.34L78.39 16.25Q75.11 20.21 72.53 24.52L72.38 24.37L72.40 24.39Q71.43 22.74 70.25 21.25L70.28 21.28L67.96 18.32L67.59 18.32L67.60 18.34Q67.55 18.44 67.32 18.36L67.39 18.43L67.20 18.24Q66.61 17.50 65.13 15.94L65.16 15.97L65.17 15.98Q61.31 15.05 58.72 13.68L58.65 13.61L58.79 13.75Q65.54 21.03 70.11 28.07L69.99 27.96L69.99 27.95Q65.53 36.17 59.78 42.76L59.73 42.70L59.84 42.82Q61.10 42.10 63.24 41.53L63.20 41.49L61.90 42.93L61.93 42.96Q61.97 43.00 60.63 44.33L60.58 44.28L60.64 44.34Q63.62 43.25 66.78 42.75L66.78 42.75L66.90 42.88Q70.80 38.25 73.39 33.49L73.37 33.47L73.42 33.52Q75.95 37.72 78.65 40.58Z"/><path fill="#222" d="M45.67 29.79L45.72 29.84L45.73 29.85Q45.47 29.82 45.16 29.82L45.18 29.83L45.10 29.75Q43.75 29.74 42.31 30.58L42.39 30.66L42.44 30.70Q41.16 31.86 41.16 33.76L41.01 33.62L41.10 33.70Q41.11 37.15 42.64 38.48L42.61 38.45L42.53 38.38Q43.64 39.71 45.92 39.71L45.88 39.67L45.78 39.56Q46.00 39.56 46.30 39.56L46.50 39.75L46.37 39.62Q48.13 39.67 49.27 38.03L49.17 37.93L49.29 38.05Q50.31 36.52 50.24 34.73L50.20 34.70L50.22 34.72Q50.34 34.30 50.34 33.88L50.30 33.85L50.22 33.77Q50.37 32.13 49.00 30.97L48.92 30.89L48.90 30.87Q47.62 29.80 45.83 29.95ZM50.24 40.03L50.34 40.13L50.34 40.13Q49.32 42.04 45.59 42.16L45.50 42.07L45.60 42.17Q42.12 42.19 40.53 40.59L40.52 40.59L40.59 40.66Q38.98 38.74 38.18 33.94L38.27 34.03L38.28 34.05Q38.03 32.35 38.03 31.09L37.86 30.92L38.04 31.10Q37.88 29.15 38.60 28.08L38.64 28.12L38.62 28.11Q40.04 26.79 43.01 26.79L42.93 26.70L43.11 26.89Q49.27 26.72 51.17 29.31L51.18 29.32L51.15 29.29Q51.38 28.53 51.80 26.93L51.89 27.02L51.84 26.97Q53.07 26.64 55.50 25.84L55.62 25.96L55.55 25.88Q53.03 31.43 52.80 37.75L52.92 37.88L52.90 37.86Q52.70 44.05 54.83 49.88L54.72 49.77L54.82 49.86Q53.03 49.18 51.24 48.91L51.22 48.89L51.25 48.92Q50.42 45.05 50.31 40.10ZM51.02 49.26L51.06 49.30L51.01 49.25Q51.83 49.50 53.24 49.80L53.10 49.67L53.06 49.62Q53.41 50.47 53.98 51.88L53.91 51.81L53.87 51.77Q56.43 52.46 58.71 53.76L58.80 53.85L58.79 53.84Q54.87 47.36 54.87 38.84L54.78 38.75L54.72 38.69Q54.81 32.42 57.28 26.63L57.32 26.67L57.35 26.70Q56.52 26.86 55.15 27.51L55.18 27.54L55.25 27.61Q55.45 26.70 56.09 25.14L56.10 25.14L56.09 25.14Q54.60 25.74 51.40 26.61L51.36 26.57L51.40 26.61Q51.24 27.13 50.93 28.31L50.94 28.32L50.95 28.33Q48.93 26.43 42.80 26.28L42.82 26.29L42.79 26.26Q39.76 26.35 38.39 27.84L38.30 27.75L38.27 27.71Q37.58 28.93 37.62 30.83L37.50 30.72L37.50 30.72Q37.60 33.71 38.59 37.48L38.76 37.65L38.76 37.65Q39.34 39.99 40.26 40.94L40.25 40.92L40.70 41.38L40.57 41.25Q41.88 44.16 47.33 44.39L47.28 44.34L47.24 44.30Q48.31 44.38 50.13 44.07L50.03 43.97L50.07 44.01Q50.46 47.03 51.07 49.31ZM47.67 32.20L47.57 32.10L47.59 32.13Q48.66 32.13 49.49 32.43L49.53 32.47L49.58 32.51Q49.77 33.05 49.88 33.66L49.85 33.63L49.93 33.71Q49.90 34.13 49.82 34.74L49.87 34.79L49.92 34.84Q49.88 36.70 48.85 37.99L48.89 38.03L48.93 38.07Q47.71 39.45 45.85 39.26L45.92 39.33L45.88 39.28Q44.45 39.15 43.50 38.73L43.50 38.73L43.49 38.73Q43.34 38.12 43.34 36.90L43.17 36.73L43.16 36.72Q43.17 36.42 43.17 36.12L43.18 36.13L43.16 36.11Q43.28 34.47 44.61 33.31L44.56 33.27L44.48 33.19Q45.96 32.18 47.71 32.25Z"/></svg>