<svg xmlns="http://www.w3.org/2000/svg" width="150" height="50" viewBox="0,0,150,50"><path fill="#333" d="M24.86 39.79L24.94 39.88L23.03 39.90L22.98 39.85Q22.12 39.94 21.17 40.06L21.00 39.89L21.04 39.94Q21.61 33.73 21.61 29.73L21.69 29.81L21.72 29.84Q17.61 23.03 9.96 14.35L10.04 14.42L10.13 14.52Q11.86 15.45 15.21 16.25L15.11 16.15L15.23 16.27Q20.26 21.84 23.27 27.05L23.25 27.03L23.23 27.01Q26.22 21.43 30.60 16.41L30.57 16.38L30.72 16.53Q33.12 16.11 35.63 15.31L35.48 15.16L35.63 15.31Q29.56 21.38 24.68 29.80L24.63 29.74L24.52 29.63Q24.67 36.82 24.97 39.91ZM33.94 17.20L36.71 14.41L36.63 14.33Q33.70 15.66 30.58 16.12L30.60 16.14L30.45 15.99Q26.21 20.70 23.40 25.80L23.44 25.85L23.46 25.87Q21.25 22.14 18.06 18.26L18.20 18.40L18.11 18.31Q17.87 18.34 17.38 18.26L17.40 18.29L17.44 18.32Q16.68 17.45 15.16 15.78L15.23 15.85L15.19 15.81Q11.85 15.10 8.88 13.54L8.75 13.41L8.83 13.48Q16.51 21.93 21.27 29.84L21.33 29.90L21.30 29.88Q21.16 36.17 20.55 40.32L20.61 40.38L20.52 40.29Q21.41 40.42 22.86 40.30L22.82 40.27L22.83 41.30L22.77 41.25Q22.88 41.81 22.80 42.34L22.75 42.29L22.73 42.27Q26.19 42.19 27.94 42.38L28.01 42.44L28.02 42.46Q26.76 37.77 26.65 31.80L26.63 31.78L26.66 31.81Q31.07 23.39 37.61 16.04L37.58 16.00L34.05 17.31Z"/><path fill="#333" d="M119.71 27.64L119.75 27.68L119.73 27.66Q117.47 27.64 116.19 29.15L116.22 29.17L116.25 29.21Q114.95 30.69 114.84 32.97L114.85 32.98L114.78 32.92Q114.64 35.55 115.47 36.50L115.60 36.62L115.57 36.60Q116.74 37.91 119.06 37.76L118.96 37.66L118.91 37.61Q123.53 37.29 123.91 34.28L123.98 34.35L123.99 34.36Q124.16 33.61 124.16 32.82L124.07 32.72L124.05 32.70Q123.99 30.66 122.85 29.14L122.90 29.19L122.92 29.21Q121.66 27.61 119.72 27.65ZM124.52 37.71L124.55 37.73L124.54 37.72Q123.17 39.97 118.79 40.20L118.72 40.12L118.69 40.10Q114.43 40.17 112.79 39.07L112.81 39.09L112.92 39.20Q112.00 38.31 111.84 36.60L111.83 36.58L111.74 36.50Q111.74 35.43 111.93 33.56L111.88 33.51L111.96 33.60Q112.46 29.30 113.68 27.47L113.63 27.43L113.65 27.44Q115.28 24.96 119.13 25.00L119.17 25.04L119.12 24.99Q121.59 24.99 123.87 27.31L124.02 27.46L123.85 27.29Q124.02 21.52 125.62 15.01L125.59 14.98L125.56 14.95Q127.56 14.62 129.42 13.78L129.43 13.79L129.43 13.79Q126.71 20.29 126.44 27.29L126.46 27.31L126.50 27.35Q126.20 34.51 128.34 41.10L128.32 41.08L128.25 41.01Q126.78 40.58 125.07 40.19L125.00 40.13L124.94 40.07Q124.66 38.79 124.51 37.69ZM127.50 43.12L127.50 43.12L127.59 43.21Q129.64 43.74 132.19 45.26L132.26 45.32L132.18 45.25Q128.51 38.23 128.36 29.93L128.35 29.93L128.26 29.83Q128.18 21.69 131.27 14.30L131.40 14.43L131.36 14.39Q130.56 14.73 129.11 15.38L129.18 15.45L129.18 15.45Q129.45 14.23 130.05 13.01L130.17 13.13L130.15 13.11Q127.73 14.15 125.30 14.72L125.21 14.63L125.30 14.73Q123.87 20.53 123.60 26.62L123.61 26.63L123.54 26.56Q121.60 24.70 119.09 24.58L119.18 24.67L119.10 24.60Q115.62 24.42 113.71 26.52L113.70 26.50L113.76 26.56Q112.10 28.97 111.68 33.65L111.60 33.57L111.64 33.62Q111.35 36.33 111.35 36.75L111.42 36.83L111.49 36.90Q111.50 38.58 112.65 39.65L112.68 39.68L112.68 39.68Q112.75 39.75 112.94 39.82L113.04 39.93L113.58 40.66L113.44 40.52Q114.54 42.00 117.51 42.27L117.53 42.28L117.50 42.26Q119.64 42.34 121.01 42.42L121.05 42.46L120.99 42.40Q125.29 42.70 127.01 41.37L126.89 41.26L127.03 41.39Q127.12 42.05 127.58 43.20ZM121.34 29.96L121.22 29.84L121.26 29.88Q122.46 30.04 123.30 30.54L123.22 30.46L123.14 30.38Q123.66 31.70 123.74 32.73L123.67 32.66L123.72 32.72Q124.09 37.01 119.07 37.35L119.07 37.36L118.96 37.25Q118.11 37.31 117.01 37.04L117.11 37.15L117.01 37.05Q116.85 36.51 116.78 35.98L116.72 35.92L116.64 35.84Q116.66 35.25 116.70 34.64L116.77 34.72L116.82 34.77Q116.99 31.20 119.62 30.21L119.66 30.25L119.69 30.29Q120.68 29.94 121.37 29.98Z"/><path fill="#222" d="M71.05 29.15L71.05 29.15L71.06 29.16Q69.13 29.10 67.92 30.43L67.97 30.48L67.97 30.49Q66.82 31.89 66.67 33.79L66.67 33.79L66.58 33.70Q66.44 35.89 67.66 36.90L67.59 36.83L67.70 36.93Q68.84 37.87 70.97 37.79L71.08 37.89L71.03 37.84Q73.42 37.76 74.37 36.81L74.36 36.80L74.19 36.63Q75.34 35.31 75.23 33.48L75.29 33.55L75.18 33.43Q75.13 31.63 74.05 30.44L73.95 30.34L74.01 30.40Q72.87 29.15 71.05 29.15ZM70.96 19.66L71.05 19.75L71.01 19.71Q69.70 19.69 68.37 20.19L68.26 20.08L68.29 20.11Q66.94 20.85 67.17 22.72L67.29 22.84L67.14 22.69Q67.79 26.57 71.14 26.57L71.04 26.48L71.11 26.55Q72.68 26.74 73.67 25.60L73.65 25.58L73.59 25.52Q74.60 24.40 74.64 22.84L74.75 22.95L74.65 22.86Q74.81 21.19 74.09 20.58L74.03 20.52L74.08 20.57Q72.37 19.69 71.07 19.77ZM70.85 40.37L70.88 40.40L67.78 40.35L67.74 40.30Q66.31 40.40 64.98 39.53L64.97 39.52L64.92 39.46Q63.43 38.21 63.59 35.35L63.76 35.53L63.69 35.45Q64.09 28.54 67.70 27.55L67.69 27.54L67.76 27.61Q65.54 26.76 64.20 21.39L64.05 21.24L64.11 21.30Q63.88 20.00 63.95 19.20L63.92 19.16L63.79 19.04Q64.20 17.00 67.89 16.97L67.82 16.90L67.82 16.90Q72.12 16.90 73.57 17.09L73.62 17.14L73.54 17.06Q77.36 17.56 77.81 19.58L77.73 19.50L77.87 19.64Q77.96 20.23 77.96 20.61L78.00 20.64L77.95 20.59Q78.00 21.33 77.81 21.94L77.77 21.90L77.81 21.94Q77.09 26.05 74.16 27.58L74.12 27.54L74.13 27.54Q77.61 28.33 78.11 33.62L78.14 33.65L78.21 33.72Q78.12 33.79 78.16 35.08L78.17 35.09L78.17 35.09Q78.38 37.97 76.78 39.03L76.66 38.91L76.77 39.02Q75.39 39.88 70.82 40.34ZM73.04 42.59L73.11 42.67L76.35 42.64L76.34 42.62Q78.16 42.81 79.69 42.09L79.66 42.07L79.63 42.04Q80.76 41.30 80.84 39.44L80.84 39.44L80.89 39.48Q80.82 38.28 80.44 36.33L80.53 36.42L80.50 36.39Q79.63 31.79 77.54 29.93L77.56 29.95L77.36 29.56L77.07 29.20L76.94 28.95L76.91 28.92Q78.64 27.64 79.56 23.49L79.51 23.44L79.48 23.42Q79.61 23.16 79.68 22.33L79.58 22.22L79.55 22.19Q79.59 21.47 79.52 20.87L79.56 20.91L79.69 21.04Q79.47 19.52 78.29 19.03L78.37 19.11L78.27 18.98L78.09 18.87L78.18 18.96Q77.81 18.13 76.63 17.33L76.65 17.35L76.64 17.30L76.70 17.36Q74.81 16.77 70.74 16.58L70.68 16.52L70.64 16.48Q69.02 16.31 67.65 16.42L67.65 16.42L67.80 16.58Q67.03 16.64 65.74 16.79L65.61 16.67L65.62 16.68Q63.61 16.99 63.39 18.63L63.41 18.65L63.45 18.70Q63.52 19.30 63.56 20.10L63.40 19.94L63.39 19.93Q63.61 20.56 64.18 22.92L64.08 22.83L64.07 22.82Q64.86 26.04 66.61 27.38L66.75 27.51L66.76 27.52L66.80 27.57Q64.01 28.85 63.47 34.02L63.50 34.05L63.44 33.99Q63.23 36.18 63.23 37.09L63.34 37.20L63.30 37.16Q63.27 38.85 64.45 39.76L64.51 39.82L64.51 39.82Q64.57 39.84 64.84 40.03L64.95 40.14L64.97 40.16Q65.88 42.33 73.00 42.55ZM72.69 31.51L72.71 31.53L72.63 31.45Q73.65 31.48 74.52 31.94L74.55 31.96L74.60 32.02Q74.87 32.89 74.83 33.42L74.79 33.39L74.82 33.42Q74.86 33.72 74.86 34.03L74.90 34.06L74.86 34.02Q74.84 36.37 72.56 37.20L72.64 37.29L72.71 37.35Q71.83 37.58 71.03 37.47L70.93 37.36L71.02 37.46Q69.88 37.54 68.74 37.08L68.73 37.07L68.80 37.14Q68.58 36.54 68.66 35.55L68.55 35.44L68.67 35.57Q68.63 33.77 69.83 32.55L70.00 32.73L69.95 32.68Q71.06 31.37 72.66 31.49ZM72.99 22.11L72.90 22.01L72.99 22.11Q73.79 21.99 74.32 22.14L74.31 22.13L74.34 22.96L74.22 22.84Q74.26 24.29 73.34 25.29L73.31 25.26L73.39 25.35Q72.49 26.37 71.12 26.18L71.12 26.17L71.00 26.06Q70.17 26.22 69.75 25.99L69.64 25.87L69.77 26.01Q69.61 25.62 69.50 24.93L69.48 24.92L69.50 24.93Q69.24 23.54 70.46 22.70L70.51 22.75L70.46 22.70Q71.55 22.03 72.96 22.07Z"/><path fill="#333" d="M46.54 40.17L46.65 40.29L44.18 33.36L44.08 33.26Q39.82 20.78 33.88 14.39L33.84 14.34L33.78 14.28Q35.90 15.45 38.49 16.06L38.36 15.93L38.45 16.02Q43.62 22.33 47.96 35.08L47.98 35.11L47.98 35.11Q50.88 26.85 51.56 25.25L51.59 25.27L51.70 25.39Q54.06 19.75 56.87 16.44L56.92 16.48L56.93 16.49Q58.92 16.05 61.55 15.18L61.50 15.13L61.53 15.15Q57.06 19.85 54.01 27.09L53.95 27.03L53.84 26.92Q52.57 30.71 48.88 40.23L48.74 40.09L48.75 40.11Q48.32 40.25 47.75 40.21L47.63 40.09L47.64 40.10Q47.07 40.09 46.50 40.13ZM51.64 42.68L51.62 42.67L51.64 42.68Q54.32 32.58 55.88 28.54L55.87 28.53L55.91 28.57Q58.92 20.88 63.34 16.01L63.32 15.99L63.42 16.10Q62.38 16.46 60.28 17.18L60.18 17.08L61.42 15.84L61.39 15.81Q61.95 15.12 62.56 14.47L62.50 14.41L62.56 14.47Q59.73 15.45 56.72 16.02L56.72 16.01L56.73 16.02Q52.26 21.26 48.38 32.72L48.38 32.73L48.55 32.90Q44.80 22.68 41.61 18.30L41.68 18.38L41.70 18.40Q41.20 18.20 40.32 18.05L40.29 18.01L40.35 18.07Q40.06 17.63 38.46 15.57L38.44 15.56L38.58 15.70Q35.57 14.93 32.87 13.52L32.94 13.59L32.94 13.59Q39.57 20.68 43.95 33.47L43.94 33.47L43.84 33.36Q45.07 37.03 46.25 40.61L46.32 40.68L46.34 40.70Q46.58 40.64 47.42 40.52L47.40 40.50L47.39 40.50Q47.80 41.25 48.49 42.58L48.49 42.58L48.59 42.68Q49.35 42.53 50.07 42.61L49.97 42.50L49.98 42.51Q50.92 42.72 51.68 42.72Z"/><path fill="#444" d="M99.94 29.43L100.03 29.52L99.96 29.45Q98.77 28.68 98.12 28.72L98.12 28.71L98.12 28.71Q96.78 28.83 95.73 29.83L95.78 29.88L95.77 29.87Q94.61 30.76 94.72 32.13L94.81 32.22L94.85 32.27Q95.09 36.54 94.21 41.07L94.32 41.17L94.17 41.02Q91.97 41.49 90.87 42.02L90.97 42.12L90.88 42.03Q92.48 37.96 92.25 33.50L92.21 33.46L92.16 33.42Q91.96 28.95 90.24 24.88L90.20 24.83L90.28 24.91Q91.35 25.52 93.63 26.17L93.78 26.31L94.22 28.89L94.29 28.96Q94.98 26.07 99.25 26.07L99.21 26.03L99.28 26.11Q99.64 26.01 99.95 26.01L99.89 25.96L99.84 25.91Q101.27 26.04 102.52 26.72L102.49 26.69L102.46 26.66Q101.22 28.08 100.07 29.57ZM101.60 31.48L101.79 31.51L101.64 31.36Q102.63 30.30 104.31 27.86L104.29 27.84L104.30 27.85Q103.81 27.48 102.29 27.22L102.38 27.30L102.26 27.18Q102.72 27.00 103.17 26.39L103.09 26.30L103.11 26.32Q101.22 25.43 99.28 25.62L99.26 25.59L99.21 25.55Q97.24 25.71 96.52 25.98L96.61 26.07L96.60 26.06Q95.18 26.46 94.38 27.56L94.29 27.48L94.09 26.63L93.91 25.80L93.89 25.79Q91.49 25.36 89.51 24.03L89.62 24.14L89.57 24.09Q91.77 28.53 92.00 33.41L91.96 33.37L91.89 33.30Q92.11 38.20 90.36 42.73L90.43 42.81L90.46 42.83Q91.47 42.29 92.35 41.98L92.33 41.96L92.44 42.07Q92.19 43.19 91.69 44.26L91.54 44.10L91.65 44.22Q94.48 43.35 96.61 43.24L96.61 43.23L96.86 38.76L96.90 38.80Q96.84 36.39 96.84 34.14L96.84 34.14L96.83 34.13Q96.99 33.10 97.90 32.13L97.73 31.96L97.73 31.96Q98.67 31.02 99.81 30.94L99.85 30.98L99.95 31.08Q100.56 30.92 101.28 31.61L101.25 31.58L101.56 31.43ZM96.64 29.71L96.56 29.56L96.69 29.80L96.65 29.72Z"/></svg>