<svg xmlns="http://www.w3.org/2000/svg" width="150" height="50" viewBox="0,0,150,50"><path fill="#222" d="M130.99 22.98L131.05 23.05L131.02 23.02Q129.24 25.76 126.57 31.40L126.58 31.41L124.66 35.73L124.55 35.62Q123.73 37.57 122.39 39.82L122.29 39.72L122.28 39.71Q122.90 39.87 121.23 39.91L121.24 39.93L121.20 39.88Q121.15 39.84 119.90 39.84L119.97 39.91L119.85 39.79Q119.24 38.42 116.31 31.26L116.33 31.28L116.22 31.17Q113.99 25.75 111.90 22.74L112.08 22.92L112.02 22.86Q112.73 25.90 112.73 29.06L112.73 29.06L112.69 29.02Q112.73 35.57 109.76 41.13L109.73 41.09L109.77 41.13Q108.48 41.51 106.11 42.23L106.09 42.21L106.10 42.22Q109.76 36.51 109.76 29.28L109.85 29.37L109.86 29.39Q109.78 20.36 104.37 13.39L104.43 13.45L104.46 13.47Q105.96 14.06 108.32 14.74L108.29 14.72L108.32 14.75Q115.44 21.56 121.53 34.88L121.59 34.94L121.59 34.95Q124.95 27.79 127.15 24.29L127.14 24.28L127.31 24.45Q130.80 18.57 134.76 15.11L134.75 15.10L134.77 15.12Q135.97 14.83 138.33 14.07L138.33 14.07L138.29 14.03Q133.42 20.77 133.42 29.37L133.44 29.40L133.41 29.37Q133.32 35.94 136.75 41.46L136.73 41.44L136.80 41.51Q135.53 41.27 132.79 40.66L132.74 40.61L132.78 40.65Q130.45 35.89 130.45 29.91L130.28 29.74L130.38 29.84Q130.37 26.40 131.05 23.05ZM132.46 40.91L132.56 41.01L132.64 41.08Q133.20 41.07 134.64 41.34L134.63 41.33L134.68 41.37Q135.07 42.06 136.02 43.55L136.16 43.69L136.15 43.68Q138.25 44.07 141.72 45.29L141.67 45.24L141.74 45.31Q135.46 38.96 135.46 29.13L135.43 29.10L135.37 29.04Q135.43 21.38 139.81 15.25L139.71 15.15L137.68 16.01L137.56 15.89Q138.61 14.39 139.25 13.51L139.34 13.60L139.32 13.58Q137.42 14.19 134.79 14.72L134.73 14.66L134.74 14.67Q127.97 20.77 121.92 33.37L121.85 33.30L121.87 33.32Q116.84 22.50 111.89 17.25L111.84 17.20L111.73 17.09Q111.32 16.98 110.75 16.87L110.82 16.94L109.72 15.77L109.58 15.62Q109.03 15.00 108.35 14.39L108.30 14.35L108.46 14.50Q105.27 13.37 103.48 12.65L103.59 12.76L103.57 12.73Q109.55 19.93 109.55 29.34L109.44 29.23L109.57 29.36Q109.48 36.88 105.33 42.74L105.37 42.78L105.28 42.69Q106.08 42.58 107.37 42.16L107.41 42.20L107.42 42.21Q107.31 42.47 105.90 44.57L105.92 44.59L105.92 44.59Q107.58 43.96 111.08 43.20L111.09 43.21L111.06 43.18Q114.90 36.25 114.71 28.48L114.71 28.48L114.59 28.36Q116.21 32.46 119.68 40.34L119.65 40.31L119.66 40.32Q119.95 40.30 120.17 40.30L120.19 40.32L120.60 40.19L120.70 40.30Q121.18 41.01 121.98 42.30L121.88 42.21L121.94 42.26Q123.55 42.23 123.55 42.23L123.42 42.11L123.60 42.28Q124.57 42.23 125.22 42.31L125.08 42.16L125.20 42.28Q126.70 38.19 130.05 30.20L130.11 30.25L129.98 30.12Q129.95 35.66 132.54 40.99Z"/><path fill="#333" d="M44.39 26.87L44.38 26.86L44.26 26.74Q46.06 26.91 47.89 26.91L47.91 26.93L47.93 26.95Q49.71 26.93 51.53 26.78L51.63 26.88L51.58 26.83Q51.49 27.50 51.49 28.23L51.42 28.15L51.52 29.59L51.43 29.50Q49.01 29.43 44.25 29.55L44.42 29.72L44.29 29.59Q44.39 35.63 43.25 40.62L43.26 40.63L43.25 40.62Q41.01 41.27 39.52 42.07L39.42 41.96L39.60 42.15Q41.83 35.24 41.56 28.12L41.58 28.13L41.62 28.17Q41.26 20.92 38.59 14.26L38.70 14.36L38.56 14.23Q42.39 16.91 47.15 17.14L47.18 17.17L47.13 17.12Q51.69 17.19 55.84 15.44L55.79 15.39L55.78 15.38Q55.55 16.26 55.33 17.06L55.46 17.19L54.97 18.79L54.99 18.82Q52.27 19.90 49.30 20.05L49.19 19.95L49.22 19.97Q46.37 20.21 43.52 19.49L43.43 19.40L43.33 19.30Q44.23 22.91 44.42 26.90ZM56.44 14.71L56.53 14.80L56.45 14.72Q52.01 17.01 47.13 16.71L46.96 16.53L47.03 16.61Q41.71 16.31 37.98 13.46L38.08 13.56L37.90 13.37Q40.81 20.36 41.11 27.97L41.16 28.02L41.13 27.99Q41.53 36.00 39.01 42.77L39.07 42.83L38.96 42.72Q39.58 42.27 40.95 41.63L40.94 41.62L40.96 41.64Q40.88 42.51 40.31 44.03L40.35 44.08L40.27 44.00Q42.52 42.86 45.42 42.37L45.47 42.41L45.56 42.50Q46.07 37.53 46.26 31.82L46.34 31.90L46.24 31.80Q48.05 31.79 49.88 31.79L49.96 31.87L49.93 31.84Q51.69 31.81 53.52 32.00L53.60 32.08L53.62 32.10Q53.39 31.03 53.39 30.12L53.36 30.09L53.35 28.18L53.31 28.14Q52.70 28.40 51.86 28.40L51.89 28.43L51.78 28.32Q51.75 27.42 51.83 26.39L51.90 26.47L51.88 26.45Q50.55 26.68 49.14 26.68L49.04 26.58L49.02 26.56Q47.60 26.54 46.23 26.50L46.39 26.67L46.17 24.32L46.22 24.37Q46.16 23.23 46.04 22.17L46.18 22.30L46.06 22.19Q47.10 22.31 48.09 22.31L48.02 22.24L48.00 22.22Q52.78 22.24 56.40 20.34L56.46 20.40L56.39 20.33Q57.03 18.65 57.94 16.02L57.91 15.98L57.83 15.91Q56.67 16.88 55.87 17.22L55.77 17.12L55.73 17.08Q56.12 16.45 56.62 14.88Z"/><path fill="#111" d="M104.68 23.34L104.67 23.33L104.60 23.26Q102.95 19.25 96.74 19.44L96.80 19.50L96.80 19.50Q92.35 19.58 90.37 21.03L90.26 20.91L90.40 21.05Q87.87 22.67 87.87 26.79L87.82 26.73L87.95 28.73L87.83 28.61Q87.91 37.52 96.93 37.52L96.90 37.49L96.94 37.53Q98.97 37.51 100.46 36.71L100.44 36.69L100.50 36.75Q102.27 35.66 102.11 33.80L102.19 33.88L102.23 33.91Q101.88 31.65 98.18 30.74L98.33 30.88L96.24 30.74L96.41 30.91Q95.41 30.86 94.46 30.90L94.47 30.91L94.49 30.93Q94.48 29.97 94.44 28.07L94.43 28.05L94.40 28.02Q101.97 27.95 106.16 27.60L106.23 27.67L106.30 27.74Q106.09 28.41 106.09 29.20L106.10 29.21L106.20 29.32Q106.21 30.12 106.24 30.92L106.16 30.84L106.22 30.90Q105.10 30.88 105.10 30.88L105.12 30.90L105.09 30.87Q103.77 30.92 104.15 30.92L104.12 30.89L104.06 30.83Q105.23 32.54 105.61 34.52L105.48 34.39L105.52 34.42Q105.72 35.23 105.72 35.69L105.69 35.65L105.72 35.69Q105.77 40.38 96.97 40.38L96.80 40.21L96.94 40.35Q89.74 40.27 87.15 38.17L87.12 38.14L87.16 38.18Q85.19 35.83 85.19 30.76L85.29 30.87L85.14 30.72Q85.23 29.74 85.08 27.04L85.08 27.04L85.06 27.02Q84.81 24.57 84.85 23.20L84.87 23.22L84.97 23.31Q85.07 20.44 86.44 18.84L86.45 18.85L86.43 18.84Q89.00 16.79 93.87 16.60L93.89 16.63L96.43 16.42L96.49 16.48Q99.56 16.36 102.99 16.78L103.05 16.84L102.94 16.73Q106.73 17.25 107.69 20.49L107.65 20.45L107.80 20.60Q106.65 21.39 104.56 23.22ZM106.03 25.49L106.20 25.55L106.05 25.40Q107.42 24.48 109.28 22.50L109.25 22.47L109.28 22.50Q108.88 21.45 107.89 19.73L107.86 19.71L107.94 19.79Q106.75 17.11 102.94 16.47L102.99 16.51L102.98 16.50Q100.73 16.27 96.43 15.96L96.48 16.02L93.89 16.24L93.74 16.10Q88.64 16.36 86.05 18.34L85.98 18.28L86.04 18.33Q84.63 19.93 84.52 23.02L84.47 22.97L84.55 23.04Q84.57 22.61 84.80 28.09L84.76 28.06L84.86 28.15Q84.79 29.41 84.87 32.16L84.98 32.27L84.81 32.10Q85.15 36.70 86.90 38.64L86.75 38.49L86.82 38.56Q87.28 39.48 88.16 40.36L88.11 40.31L88.02 40.22Q91.03 42.21 96.55 42.55L96.45 42.44L99.51 42.80L99.32 42.61Q101.10 42.91 103.12 42.80L103.06 42.73L103.02 42.70Q104.39 42.55 106.49 42.01L106.64 42.17L106.49 42.02Q108.55 41.64 108.51 39.32L108.42 39.23L108.40 39.20Q108.46 38.01 107.39 35.23L107.44 35.28L107.43 35.27Q107.04 34.27 106.51 33.47L106.61 33.57L106.54 33.51Q107.08 33.47 108.26 33.66L108.32 33.72L108.44 33.84Q108.15 30.24 108.19 29.55L108.13 29.49L108.11 29.48Q107.73 29.47 107.31 29.44L107.37 29.50L107.22 29.35Q107.00 29.47 106.62 29.54L106.59 29.52L106.46 29.39Q106.55 28.37 106.62 27.30L106.53 27.21L106.51 27.19Q100.33 27.79 94.05 27.68L94.08 27.71L94.10 27.72Q94.04 28.54 94.04 29.45L94.02 29.44L93.99 31.15L94.11 31.27Q94.58 31.36 95.00 31.32L94.90 31.23L94.94 31.26Q95.34 31.24 95.79 31.24L95.83 31.28L95.67 31.12Q95.85 31.76 95.89 32.25L95.80 32.16L95.83 32.20Q95.82 32.64 95.78 33.14L95.82 33.18L95.77 33.12Q96.84 33.13 97.87 33.09L97.86 33.09L97.94 33.16Q98.88 33.08 99.91 33.12L99.97 33.17L99.84 33.05Q100.92 33.32 101.79 33.71L101.79 33.70L101.81 33.76L101.78 33.72Q101.90 35.22 100.22 36.13L100.34 36.25L100.23 36.14Q98.71 37.21 97.00 37.21L96.96 37.17L96.90 37.11Q93.09 37.14 90.65 35.39L90.74 35.48L90.69 35.43Q89.73 33.41 89.88 30.86L89.81 30.78L89.90 30.87Q90.07 25.94 91.92 23.94L91.97 24.00L91.94 23.97Q93.88 22.06 98.56 21.76L98.47 21.66L98.47 21.66Q102.26 21.57 104.20 23.36L104.21 23.36L104.17 23.33Q104.29 23.49 104.41 23.68L104.38 23.65L104.51 23.67L104.36 23.52Q105.10 24.37 105.67 25.47L105.64 25.44L105.91 25.37Z"/><path fill="#222" d="M74.97 27.22L74.98 27.23L74.99 27.25Q75.72 27.18 77.13 27.02L77.15 27.05L77.07 26.97Q77.11 27.69 77.11 28.34L77.11 28.33L77.14 29.62L77.12 29.61Q76.32 29.64 75.48 29.72L75.45 29.69L75.40 29.64Q74.51 29.62 73.67 29.58L73.76 29.67L73.70 29.61Q70.91 35.85 67.49 40.45L67.49 40.46L67.47 40.44Q65.02 41.15 63.73 41.76L63.74 41.77L63.60 41.63Q67.76 35.97 70.81 29.69L70.87 29.75L68.26 29.77L68.23 29.74Q68.15 28.33 68.04 26.99L68.02 26.98L68.09 27.05Q69.90 27.10 71.95 27.10L71.93 27.08L73.92 23.47L73.92 23.47Q75.00 21.66 76.22 20.06L76.22 20.07L76.09 19.94Q74.50 20.06 72.90 20.06L73.05 20.20L73.07 20.23Q66.91 20.16 63.14 17.95L63.18 17.98L62.41 16.15L62.54 16.28Q62.17 15.42 61.79 14.54L61.68 14.43L61.65 14.40Q65.99 17.03 71.70 17.26L71.74 17.29L71.86 17.41Q76.94 17.59 82.08 15.61L82.10 15.63L82.01 15.53Q81.86 15.99 81.36 16.87L81.40 16.91L81.47 16.98Q77.67 21.55 74.82 27.07ZM82.99 18.26L82.90 18.18L84.00 16.27L84.07 16.34Q83.03 16.75 81.35 17.47L81.31 17.43L81.50 17.12L81.47 17.09Q81.63 16.99 81.75 16.87L81.74 16.86L81.74 16.86Q82.08 16.14 82.80 14.80L82.89 14.89L82.90 14.90Q77.62 17.23 71.87 17.00L71.81 16.94L71.77 16.91Q65.80 16.69 61.04 13.72L61.00 13.67L61.09 13.77Q62.10 15.61 62.94 18.28L62.89 18.23L62.87 18.21Q63.91 18.79 64.71 19.09L64.87 19.25L64.89 19.27Q64.89 19.47 65.35 21.34L65.46 21.45L65.46 21.45Q68.54 22.63 74.06 22.48L74.09 22.50L74.04 22.45Q73.83 23.12 71.85 26.88L71.78 26.81L71.85 26.89Q69.78 26.87 67.80 26.68L67.72 26.60L67.69 26.57Q67.80 27.45 67.80 28.32L67.81 28.33L67.81 30.04L69.43 29.98L69.43 31.39L69.49 31.45Q65.59 38.86 62.81 42.44L62.77 42.39L62.84 42.47Q64.37 41.64 66.01 41.14L65.94 41.08L66.14 41.28Q65.30 42.04 63.93 43.75L63.98 43.80L64.03 43.85Q67.19 42.75 69.63 42.52L69.51 42.40L69.60 42.49Q72.54 38.73 75.66 31.96L75.54 31.83L79.14 32.20L79.15 32.21Q78.97 31.18 78.97 30.27L78.94 30.24L79.01 28.52L79.01 28.53Q78.67 28.45 78.12 28.49L78.11 28.49L78.09 28.46Q77.61 28.57 77.34 28.57L77.27 28.50L77.34 28.57Q77.33 28.45 77.37 28.30L77.44 28.36L77.35 28.01L77.30 27.95Q79.97 22.98 83.06 18.33Z"/><path fill="#333" d="M24.87 39.81L24.89 39.82L22.89 39.77L23.00 39.87Q22.08 39.91 21.13 40.02L21.11 40.01L21.10 40.00Q21.68 33.80 21.68 29.80L21.71 29.83L21.62 29.74Q17.69 23.11 10.04 14.43L10.04 14.43L9.98 14.37Q11.79 15.38 15.14 16.18L15.20 16.24L15.16 16.20Q20.29 21.86 23.30 27.08L23.29 27.06L23.28 27.06Q26.24 21.45 30.62 16.43L30.56 16.37L30.67 16.48Q33.09 16.09 35.60 15.29L35.62 15.31L35.51 15.19Q29.42 21.25 24.55 29.66L24.65 29.76L24.59 29.70Q24.54 36.69 24.84 39.77ZM33.96 17.22L36.78 14.48L36.72 14.42Q33.70 15.67 30.58 16.12L30.59 16.13L30.57 16.11Q26.32 20.81 23.51 25.92L23.38 25.79L23.45 25.85Q21.33 22.21 18.13 18.33L18.18 18.38L18.06 18.26Q17.87 18.34 17.38 18.26L17.45 18.33L17.30 18.18Q16.74 17.51 15.21 15.83L15.26 15.88L15.23 15.85Q11.79 15.03 8.82 13.47L8.76 13.42L8.81 13.46Q16.60 22.01 21.36 29.93L21.32 29.90L21.31 29.88Q21.22 36.23 20.61 40.38L20.63 40.40L20.49 40.26Q21.35 40.35 22.79 40.24L22.69 40.14L22.85 41.32L22.74 41.21Q22.76 41.69 22.68 42.22L22.72 42.26L22.69 42.23Q26.22 42.22 27.97 42.41L27.96 42.40L28.03 42.47Q26.80 37.81 26.69 31.84L26.54 31.69L26.54 31.69Q31.04 23.36 37.59 16.01L37.63 16.06L33.94 17.20Z"/></svg>