<svg xmlns="http://www.w3.org/2000/svg" width="150" height="50" viewBox="0,0,150,50"><path fill="#444" d="M75.25 30.86L75.31 30.92L75.35 30.95Q75.26 29.76 73.31 29.04L73.23 28.95L73.30 29.02Q72.78 28.80 72.24 28.80L72.26 28.82L72.14 28.70Q70.85 28.78 69.78 29.35L69.76 29.33L69.78 29.35Q68.40 30.06 68.52 31.28L68.43 31.20L68.43 31.20Q68.82 34.06 68.67 36.30L68.70 36.34L68.73 36.37Q68.58 38.81 67.86 41.32L67.79 41.26L67.83 41.29Q65.68 41.77 64.50 42.18L64.60 42.28L64.57 42.25Q66.10 38.57 66.10 34.57L66.18 34.66L66.10 34.58Q66.21 29.24 63.62 24.79L63.50 24.66L63.61 24.78Q64.82 25.26 67.22 25.99L67.07 25.83L67.19 25.96Q67.48 26.67 67.86 28.19L67.78 28.11L67.93 28.25Q69.09 25.99 72.97 26.07L72.97 26.07L72.97 26.06Q74.63 26.28 75.43 26.39L75.35 26.31L75.38 26.34Q78.39 26.76 78.47 28.78L78.46 28.78L78.44 28.75Q78.49 29.68 78.30 30.70L78.25 30.65L78.31 30.72Q77.74 33.11 77.93 36.12L77.87 36.07L77.90 36.09Q78.18 39.08 79.17 41.63L79.00 41.46L79.01 41.47Q77.45 41.20 75.73 41.05L75.69 41.00L75.75 41.07Q75.28 38.69 75.20 36.02L75.21 36.03L75.05 35.87Q75.12 33.28 75.35 30.96ZM75.22 41.26L75.33 41.37L75.32 41.35Q76.09 41.33 77.39 41.56L77.33 41.51L77.77 42.63L77.81 42.67Q77.89 43.05 78.12 43.59L78.10 43.56L78.14 43.60Q80.50 44.10 83.20 45.28L83.09 45.17L83.16 45.24Q80.79 42.10 80.10 38.30L80.17 38.37L80.07 38.27Q79.71 36.11 79.82 32.42L79.81 32.41L79.96 32.56Q79.89 32.19 79.93 31.39L79.99 31.45L79.98 31.44Q80.05 30.82 79.97 30.33L79.95 30.30L79.86 30.22Q79.90 28.69 78.79 28.19L78.75 28.15L78.68 28.08Q78.59 27.30 77.83 26.69L77.78 26.65L77.73 26.60Q76.05 25.61 73.01 25.68L73.02 25.70L73.00 25.68Q71.22 25.79 70.38 25.98L70.35 25.96L70.44 26.05Q68.81 26.21 67.86 27.12L67.87 27.13L68.04 27.30Q67.86 26.70 67.48 25.67L67.45 25.65L67.38 25.57Q64.67 25.00 62.85 24.01L62.86 24.02L62.81 23.97Q65.78 28.77 65.78 34.52L65.91 34.65L65.90 34.64Q65.78 38.90 63.88 42.74L64.03 42.90L64.04 42.91Q64.60 42.48 65.90 42.10L65.84 42.04L65.96 42.17Q65.50 43.45 64.96 44.44L64.93 44.41L64.84 44.32Q66.38 43.99 69.92 43.42L69.80 43.29L69.88 43.38Q70.79 38.16 70.68 33.33L70.70 33.35L70.70 33.35Q70.72 32.57 71.90 31.84L71.86 31.81L71.88 31.83Q72.88 31.16 73.99 31.04L74.07 31.13L74.07 31.12Q74.40 30.96 74.82 31.15L74.95 31.28L74.86 31.19Q74.66 33.69 74.69 36.24L74.84 36.39L74.78 36.33Q74.84 38.86 75.33 41.37Z"/><path fill="#111" d="M117.75 19.43L117.67 19.35L117.72 19.41Q118.59 23.66 118.74 27.24L118.59 27.09L118.58 27.08Q119.77 27.24 120.83 27.24L120.81 27.22L123.00 27.20L122.98 27.17Q124.02 27.15 124.89 25.74L125.02 25.86L124.92 25.77Q125.58 24.53 125.70 23.35L125.77 23.43L125.78 23.43Q126.26 20.52 122.03 20.02L121.85 19.85L121.87 19.87Q120.22 19.85 117.59 19.28ZM118.67 29.91L118.72 29.96L118.62 29.86Q118.68 36.20 117.54 40.62L117.47 40.55L117.41 40.49Q115.98 40.93 113.66 41.99L113.82 42.15L113.72 42.05Q116.01 35.33 115.75 28.05L115.81 28.12L115.90 28.21Q115.51 20.74 112.73 14.30L112.80 14.37L112.71 14.28Q116.95 17.15 123.20 17.15L123.03 16.99L123.08 17.03Q129.15 17.05 129.30 20.52L129.32 20.54L129.32 20.54Q129.49 23.06 128.50 25.73L128.39 25.62L128.41 25.64Q128.01 26.76 127.05 27.98L127.02 27.94L126.96 27.89Q125.72 29.58 123.17 29.84L123.13 29.81L123.25 29.92Q120.97 29.93 118.72 29.96ZM124.92 32.28L124.92 32.27L124.76 32.12Q128.96 32.40 130.22 27.60L130.27 27.65L130.20 27.59Q131.10 23.88 130.95 21.86L131.10 22.01L130.96 21.87Q130.99 20.50 130.23 19.51L130.17 19.45L130.23 19.50Q129.81 19.08 129.31 18.85L129.35 18.89L129.32 18.86Q129.27 18.66 128.66 17.90L128.80 18.03L128.70 17.94Q127.08 16.55 123.12 16.55L123.16 16.58L123.10 16.53Q116.25 16.57 112.03 13.41L112.18 13.56L112.11 13.50Q115.32 20.62 115.59 28.08L115.53 28.03L115.42 27.92Q115.75 35.63 113.08 42.71L113.19 42.82L113.12 42.75Q114.25 42.17 115.24 41.79L115.22 41.76L114.90 42.97L114.89 42.95Q114.65 43.48 114.39 44.05L114.28 43.95L114.41 44.08Q116.88 43.08 119.77 42.55L119.62 42.39L119.77 42.54Q120.63 37.04 120.70 32.32L120.55 32.18L120.60 32.22Q121.75 32.19 122.74 32.19L122.72 32.17L122.68 32.14Q124.05 32.17 124.85 32.21ZM123.84 22.22L123.92 22.29L123.82 22.20Q124.29 22.17 125.28 22.40L125.45 22.57L125.28 22.40Q125.47 22.71 125.51 23.01L125.43 22.93L125.59 23.09Q125.59 23.32 125.51 23.58L125.52 23.58L125.52 23.59Q125.32 24.73 124.60 25.60L124.75 25.75L124.67 25.67Q124.13 26.76 123.10 26.95L123.05 26.91L123.09 26.95Q122.20 26.78 120.56 26.78L120.59 26.80L120.74 26.96Q120.58 24.55 120.35 22.19L120.38 22.22L122.05 22.21L122.13 22.29Q123.03 22.36 123.91 22.28Z"/><path fill="#222" d="M50.55 30.83L50.71 30.99L50.65 30.92Q50.49 29.66 48.54 28.93L48.59 28.97L48.53 28.92Q48.00 28.69 47.46 28.69L47.46 28.69L47.62 28.84Q46.09 28.68 45.02 29.25L45.07 29.30L45.07 29.30Q43.66 29.98 43.77 31.20L43.89 31.32L43.80 31.23Q44.13 34.03 43.98 36.28L44.12 36.43L44.07 36.38Q43.94 38.83 43.22 41.35L43.09 41.22L43.25 41.38Q40.95 41.71 39.77 42.12L39.90 42.25L39.86 42.21Q41.39 38.53 41.39 34.54L41.43 34.57L41.50 34.64Q41.50 29.20 38.92 24.75L38.80 24.63L38.90 24.73Q39.99 25.10 42.39 25.82L42.57 26.00L42.58 26.01Q42.72 26.58 43.11 28.10L43.21 28.20L43.25 28.24Q44.50 26.07 48.39 26.15L48.28 26.04L48.30 26.06Q49.91 26.23 50.71 26.34L50.62 26.25L50.61 26.24Q53.69 26.73 53.77 28.75L53.74 28.72L53.75 28.73Q53.67 29.52 53.48 30.55L53.47 30.55L53.57 30.64Q53.20 33.24 53.39 36.25L53.26 36.12L53.28 36.14Q53.40 38.97 54.39 41.52L54.50 41.63L54.40 41.53Q52.67 41.09 50.96 40.94L51.07 41.05L51.05 41.03Q50.65 38.73 50.57 36.06L50.46 35.95L50.47 35.96Q50.40 33.23 50.63 30.90ZM50.64 41.35L50.72 41.42L50.62 41.32Q51.34 41.24 52.63 41.47L52.68 41.52L53.01 42.53L53.09 42.61Q53.36 43.19 53.59 43.72L53.47 43.60L53.55 43.68Q55.72 43.99 58.43 45.17L58.59 45.33L58.49 45.23Q56.24 42.23 55.56 38.42L55.50 38.36L55.45 38.31Q55.21 36.28 55.33 32.59L55.17 32.44L55.30 32.57Q55.24 32.20 55.27 31.40L55.23 31.35L55.25 31.37Q55.40 30.84 55.32 30.34L55.34 30.36L55.22 30.24Q55.10 28.56 54.00 28.07L54.15 28.22L54.10 28.17Q53.84 27.23 53.08 26.62L53.09 26.62L53.11 26.64Q51.39 25.61 48.34 25.69L48.46 25.81L48.43 25.77Q46.55 25.80 45.72 25.99L45.71 25.98L45.77 26.04Q44.28 26.34 43.33 27.26L43.31 27.24L43.25 27.17Q43.09 26.60 42.71 25.57L42.86 25.72L42.83 25.69Q39.98 24.98 38.15 23.99L38.14 23.98L38.07 23.90Q41.19 28.84 41.19 34.59L41.28 34.69L41.15 34.56Q41.26 39.05 39.36 42.89L39.29 42.83L39.30 42.83Q39.98 42.52 41.27 42.14L41.33 42.20L41.31 42.17Q40.68 43.30 40.15 44.29L40.27 44.42L40.32 44.46Q41.57 43.84 45.11 43.27L45.13 43.29L45.24 43.40Q46.27 38.30 46.15 33.47L46.01 33.33L46.01 33.33Q45.94 32.46 47.12 31.73L47.13 31.75L47.24 31.86Q48.24 31.18 49.34 31.06L49.27 30.99L49.40 31.12Q49.88 31.10 50.30 31.29L50.21 31.20L50.27 31.27Q50.14 33.84 50.18 36.39L50.19 36.40L50.16 36.37Q50.15 38.84 50.65 41.35Z"/><path fill="#222" d="M19.11 40.38L19.13 40.40L19.07 40.34Q14.99 40.56 14.00 38.24L13.98 38.22L14.10 38.34Q14.81 37.34 16.37 35.55L16.34 35.52L16.42 35.60Q16.80 37.50 19.81 37.62L19.91 37.72L19.87 37.68Q23.25 37.74 24.89 36.41L24.92 36.45L24.95 36.48Q26.21 34.73 26.14 32.03L26.17 32.06L26.31 32.21Q26.02 27.00 21.22 27.23L21.19 27.19L21.35 27.36Q18.47 27.44 16.71 28.70L16.65 28.63L16.34 28.47L16.25 28.46L16.24 28.45Q16.60 25.31 16.49 22.57L16.32 22.40L16.47 22.55Q16.33 19.90 15.99 16.59L15.89 16.49L15.94 16.54Q19.60 17.50 23.41 17.38L23.36 17.33L23.31 17.29Q27.21 17.31 30.79 16.05L30.84 16.10L30.31 17.66L30.27 17.62Q29.90 18.32 29.71 19.16L29.79 19.24L29.73 19.18Q26.68 20.27 22.79 20.27L22.68 20.16L22.68 20.16Q21.23 20.16 19.75 20.00L19.72 19.98L19.89 20.15Q19.66 20.68 19.32 25.13L19.34 25.15L19.41 25.23Q20.25 24.77 22.30 24.62L22.28 24.60L22.33 24.64Q26.06 24.87 27.50 26.54L27.36 26.40L27.42 26.46Q28.76 27.95 29.02 31.79L29.12 31.89L29.15 31.92Q29.38 36.08 28.17 38.09L28.17 38.10L28.09 38.01Q26.18 40.03 22.87 40.26L22.86 40.25L22.83 40.22Q21.82 40.27 19.16 40.43ZM25.17 42.67L25.25 42.75L25.24 42.74Q28.49 42.65 30.40 41.54L30.46 41.61L30.45 41.60Q31.43 40.07 31.43 37.97L31.53 38.06L31.50 38.04Q31.38 34.84 30.43 30.73L30.55 30.84L30.52 30.81Q30.05 28.97 28.83 27.57L28.92 27.66L29.01 27.79L28.84 27.53L28.37 27.21L28.47 27.32Q28.03 26.46 27.39 25.78L27.38 25.78L27.39 25.82L27.48 25.91Q25.87 24.15 22.18 24.15L22.28 24.25L22.03 24.27L21.93 24.17Q22.10 23.69 22.29 22.59L22.30 22.59L22.15 22.44Q27.12 22.55 31.16 20.91L31.15 20.90L31.27 21.02Q31.77 19.69 32.72 16.87L32.63 16.79L30.53 17.73L30.45 17.65Q31.01 16.69 31.50 15.54L31.41 15.45L31.32 15.36Q27.47 16.80 23.36 16.87L23.48 17.00L23.46 16.98Q19.33 17.07 15.37 15.97L15.33 15.93L15.38 15.98Q16.04 20.37 16.04 24.79L16.01 24.76L16.11 24.86Q16.10 26.75 15.99 28.65L15.90 28.57L15.88 28.55Q16.15 28.74 16.72 29.05L16.83 29.16L16.85 29.18Q17.21 28.96 17.86 28.62L17.80 28.56L17.70 28.46Q17.77 29.33 17.54 30.85L17.58 30.89L17.59 30.90Q18.00 31.09 18.42 31.32L18.42 31.32L18.34 31.24Q21.03 29.40 22.90 29.40L22.98 29.48L22.92 29.42Q24.24 29.41 25.42 30.06L25.44 30.08L25.58 30.22Q25.91 31.23 25.95 32.19L25.87 32.11L25.97 32.20Q25.92 34.67 24.89 35.77L24.85 35.73L24.87 35.74Q23.48 36.94 21.23 37.17L21.25 37.19L21.31 37.25Q20.31 37.28 19.63 37.21L19.61 37.19L19.73 37.31Q18.81 37.11 18.05 36.77L18.04 36.76L18.01 36.54L17.89 36.65L17.99 36.75Q17.13 36.19 16.60 34.86L16.52 34.78L16.68 34.95Q15.36 36.36 13.68 38.49L13.52 38.33L13.59 38.40Q13.99 39.15 14.83 40.10L14.64 39.91L14.76 40.03Q15.84 41.87 18.66 42.36L18.68 42.39L18.68 42.39Q19.75 42.50 25.12 42.62Z"/><path fill="#333" d="M100.27 41.30L100.33 41.35L97.16 41.04L97.12 41.01Q94.87 41.04 94.07 40.92L94.09 40.94L94.11 40.96Q92.24 40.58 91.06 39.70L91.03 39.67L91.04 39.68Q89.64 38.17 89.41 34.82L89.41 34.82L89.41 34.81Q89.37 34.32 89.29 33.10L89.29 33.10L89.36 33.16Q89.33 32.72 89.26 31.62L89.26 31.62L89.29 31.65Q89.32 30.88 89.36 30.16L89.26 30.06L89.33 30.13Q89.42 28.09 90.45 27.33L90.50 27.38L90.55 27.43Q92.49 26.29 97.33 26.06L97.28 26.02L97.35 26.08Q99.39 25.99 100.19 25.99L100.16 25.96L100.16 25.96Q101.56 25.87 102.93 26.18L102.97 26.22L103.01 26.26Q102.35 27.43 101.82 29.25L101.77 29.21L101.90 29.33Q101.36 29.37 100.87 29.33L100.89 29.35L100.94 29.41Q100.73 29.28 100.20 29.16L100.18 29.14L99.25 28.93L99.24 28.92Q98.18 28.66 97.57 28.70L97.56 28.69L97.64 28.77Q92.95 28.87 92.34 31.69L92.33 31.68L92.17 31.53Q92.04 32.80 92.12 33.75L92.16 33.80L92.07 33.71Q92.14 36.21 93.37 37.30L93.44 37.37L93.44 37.36Q94.71 38.48 97.30 38.51L97.38 38.60L97.28 38.50Q98.74 38.52 99.47 38.21L99.49 38.24L100.45 37.68L100.46 37.69Q101.07 37.53 101.65 37.46L101.73 37.55L101.69 37.50Q101.81 39.18 102.19 40.48L102.19 40.47L102.24 40.53Q101.93 40.82 100.14 41.17ZM103.44 44.16L103.52 44.25L103.37 44.09Q103.92 44.30 104.76 44.38L104.71 44.33L104.63 44.25Q105.28 44.29 105.62 43.72L105.63 43.73L105.75 43.84Q104.47 41.69 103.97 39.59L104.06 39.68L103.93 39.55Q103.56 39.49 103.11 39.49L103.16 39.55L103.09 39.48Q102.67 39.47 102.29 39.66L102.37 39.75L102.40 39.77Q101.96 38.42 101.81 37.01L101.86 37.06L101.95 37.16Q101.35 37.08 100.13 37.65L100.13 37.66L100.07 37.59Q98.75 38.06 98.25 38.06L98.26 38.07L98.42 38.23Q97.83 38.14 97.23 38.10L97.36 38.23L97.19 38.06Q96.33 38.08 94.35 37.51L94.41 37.57L94.37 37.53Q94.06 36.84 94.10 35.70L94.01 35.61L94.06 35.66Q94.26 31.44 99.21 30.91L99.25 30.95L99.19 30.89Q99.97 30.99 101.34 31.33L101.30 31.29L101.28 31.27Q102.72 31.68 103.44 31.64L103.36 31.56L103.33 31.53Q103.79 29.32 104.47 27.49L104.51 27.53L104.50 27.52Q103.99 27.27 103.61 27.20L103.63 27.22L102.86 27.13L103.03 27.31Q103.19 26.78 103.57 25.91L103.53 25.86L103.48 25.82Q102.02 25.53 100.46 25.53L100.41 25.49L100.38 25.46Q98.00 25.48 93.62 25.86L93.59 25.82L93.56 25.79Q91.77 26.09 90.21 27.08L90.21 27.09L90.07 26.94Q88.89 27.94 88.89 29.84L88.94 29.89L89.00 29.95Q88.85 30.22 88.97 31.44L89.09 31.57L88.94 31.42Q89.03 32.45 88.99 33.06L89.06 33.13L89.16 33.24Q89.13 35.07 89.86 38.80L89.75 38.70L89.76 38.71Q90.17 39.57 90.67 40.07L90.75 40.16L90.93 40.33L90.90 40.26L90.98 40.35Q92.09 42.55 96.01 43.16L95.92 43.08L96.00 43.16Q98.99 43.48 101.65 43.75L101.69 43.79L101.84 43.93Q102.46 43.83 103.37 44.09Z"/></svg>