<svg xmlns="http://www.w3.org/2000/svg" width="150" height="50" viewBox="0,0,150,50"><path fill="#333" d="M76.94 41.04L76.78 40.87L76.86 40.95Q75.54 39.26 74.25 36.17L74.32 36.25L72.23 31.15L72.08 31.00Q70.55 35.06 69.94 36.35L69.96 36.38L69.85 36.27Q68.41 39.20 66.81 41.11L66.97 41.27L66.94 41.24Q66.52 41.20 65.76 41.32L65.65 41.20L65.66 41.21Q65.72 33.85 59.90 27.91L59.83 27.85L59.90 27.92Q58.18 26.12 56.16 24.63L56.09 24.56L56.11 24.59Q57.92 25.09 59.78 25.40L59.81 25.43L59.80 25.42Q66.02 30.54 67.47 36.78L67.30 36.62L67.45 36.76Q68.26 34.84 69.44 31.64L69.47 31.67L69.50 31.69Q70.83 27.92 71.40 26.63L71.33 26.55L72.84 26.66L72.69 26.51Q73.72 28.37 74.90 31.65L74.81 31.56L74.88 31.63Q76.23 35.30 76.87 36.71L76.87 36.70L76.73 36.56Q78.67 30.40 84.15 25.83L84.17 25.85L84.02 25.69Q85.38 25.75 88.12 25.18L87.98 25.05L88.14 25.21Q79.40 31.12 78.22 41.09L78.25 41.12L77.58 40.99L77.52 40.93Q77.11 40.82 76.77 40.86ZM79.78 43.34L81.96 43.66L81.83 43.53Q81.53 42.01 81.53 40.49L81.61 40.57L81.50 40.45Q81.56 37.28 82.97 34.04L82.98 34.05L83.06 34.14Q84.98 29.54 89.09 26.46L89.10 26.47L89.08 26.46Q87.76 26.62 85.90 26.96L86.01 27.07L86.04 27.10Q88.01 25.46 89.31 24.55L89.28 24.51L86.77 24.98L86.82 25.03Q85.55 25.21 84.22 25.36L84.12 25.26L84.13 25.27Q79.09 29.64 77.15 34.66L77.15 34.66L77.03 34.54Q76.51 32.50 75.14 28.24L75.01 28.11L75.16 28.26Q74.68 28.11 74.41 28.11L74.54 28.25L73.87 28.11L73.88 28.11Q73.78 27.82 72.98 26.07L73.06 26.15L71.07 26.22L71.05 26.20Q69.99 28.91 67.90 34.55L67.94 34.58L68.04 34.69Q66.65 30.93 63.56 27.66L63.54 27.64L63.47 27.56Q63.21 27.57 62.91 27.53L62.96 27.59L62.30 27.38L62.30 27.39Q61.54 26.66 59.75 25.07L59.85 25.17L59.70 25.02Q56.63 24.46 54.95 23.96L54.90 23.90L55.00 24.00Q65.57 31.30 65.19 41.62L65.27 41.70L65.29 41.72Q65.54 41.78 65.90 41.74L65.77 41.61L65.81 41.65Q66.23 41.67 66.42 41.67L66.47 41.72L66.31 41.56Q66.39 41.49 66.58 43.59L66.62 43.62L68.60 43.51L68.51 43.42Q71.20 40.70 73.45 34.96L73.38 34.89L73.38 34.89Q74.85 38.71 76.71 41.38L76.70 41.36L76.74 41.41Q76.96 41.28 77.23 41.30L77.31 41.38L77.36 41.43Q77.59 41.42 77.85 41.42L77.72 41.29L79.80 43.36Z"/><path fill="#333" d="M117.29 33.31L117.33 33.35L117.20 33.22Q117.15 36.14 115.97 40.79L115.88 40.69L116.00 40.81Q114.25 41.39 112.66 42.19L112.47 42.00L112.58 42.11Q115.17 35.08 114.91 27.65L114.84 27.58L114.89 27.64Q114.57 20.20 111.49 13.46L111.60 13.57L111.58 13.55Q113.50 14.79 115.37 15.36L115.44 15.44L115.33 15.32Q117.56 22.38 117.56 29.05L117.52 29.01L117.48 28.97Q117.60 30.53 117.52 32.02L117.52 32.01L117.40 31.90Q118.52 30.66 123.74 25.71L123.85 25.82L123.80 25.77Q124.81 25.68 125.80 25.60L125.88 25.69L127.85 25.40L128.00 25.56Q124.82 28.54 120.52 32.31L120.59 32.39L120.51 32.30Q123.85 35.04 130.32 40.86L130.28 40.82L130.37 40.90Q127.60 39.97 124.63 39.78L124.68 39.82L124.57 39.71Q122.24 37.80 117.36 33.38ZM127.26 42.55L127.19 42.49L127.26 42.56Q131.88 43.29 135.00 45.24L135.04 45.27L135.08 45.31Q133.92 44.04 131.29 41.64L131.24 41.58L131.28 41.62Q131.34 41.54 131.61 41.65L131.78 41.83L131.77 41.81Q129.61 39.73 127.36 37.83L127.30 37.76L122.92 33.92L123.02 34.01Q127.87 29.69 130.31 26.80L130.37 26.86L130.31 26.80Q129.18 26.96 126.70 27.23L126.65 27.17L126.63 27.15Q128.24 25.72 128.92 24.88L128.99 24.94L128.85 24.81Q126.09 25.32 123.62 25.32L123.68 25.39L123.72 25.43Q122.35 26.75 119.60 29.42L119.44 29.25L119.58 29.40Q119.47 23.50 118.48 17.67L118.53 17.73L118.46 17.65Q117.90 17.63 116.42 17.36L116.36 17.31L116.41 17.35Q116.21 16.58 115.75 15.10L115.77 15.11L115.82 15.16Q113.03 14.20 110.79 12.64L110.88 12.74L110.90 12.75Q114.18 19.43 114.53 27.54L114.57 27.58L114.61 27.62Q114.91 35.50 111.90 42.73L111.96 42.78L111.90 42.72Q112.59 42.43 113.92 41.78L114.01 41.87L113.87 41.73Q113.70 42.62 113.05 44.07L113.16 44.17L113.03 44.05Q115.88 42.98 118.01 42.60L118.03 42.62L118.00 42.58Q118.53 40.03 119.02 35.76L119.13 35.87L119.02 35.76Q121.75 38.15 127.19 42.49Z"/><path fill="#333" d="M20.93 28.61L21.02 28.70L20.85 28.53Q18.10 28.60 17.34 30.85L17.29 30.80L17.36 30.86Q17.16 31.61 17.04 32.26L17.07 32.29L17.07 32.28Q19.58 32.40 21.22 32.40L21.20 32.39L21.17 32.35Q22.97 32.52 25.56 32.40L25.48 32.33L25.54 32.38Q25.39 30.64 23.98 29.57L23.97 29.55L23.92 29.51Q22.63 28.52 20.84 28.52ZM21.08 41.24L20.98 41.15L21.06 41.23Q16.87 41.26 15.57 39.85L15.47 39.75L15.42 39.70Q14.46 38.24 14.31 34.97L14.42 35.09L14.36 35.02Q14.45 34.89 14.38 33.52L14.30 33.44L14.35 33.49Q14.15 31.12 14.15 30.40L14.18 30.43L14.18 30.43Q14.24 28.62 14.97 27.52L14.82 27.37L14.98 27.53Q16.25 25.99 19.22 25.99L19.33 26.10L20.87 26.07L20.87 26.08Q22.93 26.08 24.45 26.38L24.45 26.39L24.43 26.36Q26.48 26.81 27.47 28.03L27.41 27.97L27.49 28.05Q28.01 29.03 28.09 31.12L28.18 31.22L28.24 31.28Q28.22 32.39 28.25 34.56L28.13 34.44L28.11 34.42Q25.25 34.45 22.47 34.45L22.47 34.46L16.99 34.57L16.96 34.54Q17.10 38.94 21.17 38.71L21.10 38.64L21.24 38.78Q24.96 38.55 26.18 36.72L26.22 36.75L26.19 36.72Q26.99 37.18 28.59 38.36L28.60 38.38L28.55 38.32Q27.31 40.85 23.16 41.12L23.16 41.12L23.18 41.13Q22.37 41.09 21.00 41.17ZM23.36 43.57L23.31 43.52L23.38 43.59Q24.31 43.37 25.53 43.45L25.61 43.53L25.71 43.63Q30.51 43.64 31.43 40.86L31.52 40.95L31.60 41.04Q29.84 39.66 28.74 38.89L28.92 39.07L28.90 39.05Q28.99 38.57 29.18 38.34L29.15 38.31L29.21 38.38Q28.52 37.95 27.15 37.00L27.09 36.95L27.10 36.95Q28.07 36.90 30.13 37.20L30.21 37.28L30.22 37.29Q30.10 35.99 30.03 35.31L29.93 35.22L29.77 33.26L29.75 33.24Q29.63 30.91 28.98 29.43L29.02 29.47L29.04 29.49Q28.65 29.02 28.08 28.41L28.25 28.58L28.08 28.41Q28.05 28.23 27.82 27.66L27.88 27.72L27.86 27.70Q25.82 25.51 20.76 25.51L20.74 25.49L19.06 25.49L19.20 25.62Q15.91 25.57 14.46 27.05L14.54 27.13L14.50 27.10Q13.79 28.17 13.83 30.23L13.83 30.22L13.82 30.22Q13.93 31.24 14.05 33.49L13.92 33.36L13.96 33.41Q14.10 35.06 14.21 37.12L14.11 37.02L14.30 37.20Q14.43 39.32 15.30 40.38L15.41 40.49L15.36 40.44Q15.43 40.50 15.62 40.62L15.61 40.62L16.02 41.37L15.91 41.25Q16.69 43.10 23.28 43.48ZM21.22 38.34L21.26 38.38L21.16 38.29Q19.98 38.36 19.07 37.90L19.06 37.90L19.07 37.91Q19.04 37.53 18.85 36.84L18.91 36.91L18.95 36.95Q20.51 36.72 22.11 36.72L22.18 36.79L22.18 36.79Q23.73 36.66 25.40 36.78L25.46 36.84L25.54 36.92Q24.20 38.20 21.19 38.31ZM22.76 30.90L22.80 30.94L22.89 31.02Q23.50 31.03 24.83 31.41L24.81 31.39L25.01 31.77L25.02 31.97L25.09 32.05Q23.74 32.18 22.82 32.14L22.69 32.01L22.70 32.01Q20.49 32.05 20.45 32.05L20.47 32.07L20.41 32.01Q21.21 31.14 22.88 31.02Z"/><path fill="#111" d="M55.78 41.56L55.87 41.64L55.75 41.53Q53.62 41.11 51.45 40.96L51.50 41.01L51.49 40.99Q50.13 39.63 47.46 35.79L47.49 35.81L47.44 35.77Q45.28 38.90 42.88 41.34L42.75 41.20L40.61 41.54L40.68 41.61Q39.57 41.75 38.58 42.02L38.67 42.11L38.72 42.16Q42.75 37.89 45.75 33.77L45.87 33.89L45.86 33.88Q42.49 29.59 37.08 24.79L37.23 24.94L37.20 24.92Q39.32 25.55 42.03 25.97L42.10 26.05L42.17 26.12Q45.59 29.19 47.49 31.90L47.47 31.87L47.42 31.82Q49.60 28.83 52.34 26.32L52.24 26.22L52.38 26.35Q55.28 25.86 57.10 25.37L57.25 25.51L57.20 25.46Q52.65 29.09 48.95 33.66L48.91 33.62L48.99 33.69Q52.31 38.31 55.77 41.55ZM58.67 24.73L58.72 24.77L58.67 24.72Q55.69 25.47 52.15 25.82L52.27 25.94L52.17 25.84Q49.38 28.61 47.67 31.08L47.69 31.11L47.51 30.92Q46.78 30.04 45.14 28.06L44.99 27.91L44.90 28.01L44.98 28.09Q44.70 27.92 44.59 27.92L44.66 28.00L44.57 27.90Q43.95 27.21 42.31 25.76L42.15 25.60L42.25 25.70Q38.73 25.23 35.87 24.01L35.90 24.03L35.85 23.98Q41.31 28.72 45.34 33.86L45.39 33.90L45.34 33.85Q41.91 38.41 37.49 42.72L37.68 42.91L37.65 42.87Q37.78 42.67 41.29 41.83L41.27 41.82L41.35 41.90Q39.85 43.25 38.22 44.59L38.13 44.50L38.22 44.59Q41.27 43.53 44.43 43.34L44.45 43.36L44.45 43.36Q46.84 41.11 48.75 38.37L48.75 38.37L48.84 38.46Q50.14 40.10 51.36 41.28L51.50 41.42L51.43 41.35Q51.54 41.35 51.62 41.43L51.56 41.37L51.74 41.36L51.77 41.39Q53.09 42.55 54.42 43.62L54.32 43.52L54.48 43.68Q57.92 44.07 60.81 45.10L60.85 45.13L60.81 45.10Q54.67 40.68 50.98 35.50L51.11 35.63L50.99 35.51Q54.66 30.50 59.23 26.43L59.16 26.36L59.19 26.39Q58.35 26.85 57.36 27.07L57.37 27.08L55.33 27.52L55.26 27.45Q56.48 26.57 58.65 24.70Z"/><path fill="#333" d="M97.70 29.90L97.64 29.83L97.68 29.88Q95.16 29.75 93.82 30.97L93.74 30.88L93.93 31.07Q92.48 32.18 92.79 34.69L92.89 34.80L92.71 34.61Q93.19 37.30 94.41 38.55L94.24 38.39L94.29 38.44Q95.41 39.83 97.54 39.75L97.65 39.86L97.48 39.69Q98.12 39.76 98.31 39.76L98.28 39.72L98.25 39.70Q101.77 39.07 101.89 34.46L101.94 34.52L101.86 34.44Q102.04 32.18 101.36 31.38L101.34 31.37L101.41 31.44Q100.31 30.11 97.76 29.95ZM101.07 41.68L101.10 41.71L100.94 41.55Q99.74 42.25 98.18 42.18L98.09 42.09L98.11 42.10Q94.39 42.43 93.10 39.84L92.99 39.73L93.10 39.84Q92.76 45.02 91.42 49.28L91.41 49.27L91.51 49.36Q89.77 49.90 88.13 50.63L88.02 50.52L87.99 50.49Q90.64 44.61 90.37 37.64L90.40 37.68L90.47 37.74Q90.14 30.82 87.24 24.77L87.21 24.74L87.18 24.71Q89.22 25.98 90.93 26.44L90.99 26.50L91.34 27.80L91.41 27.87Q91.43 28.12 91.70 29.23L91.82 29.35L91.85 29.38Q92.88 27.32 96.46 27.13L96.35 27.03L96.32 26.99Q97.35 27.11 98.23 27.11L98.18 27.07L98.55 26.94L98.62 27.01Q98.78 27.05 98.97 27.09L98.89 27.01L99.22 27.03L99.21 27.03Q101.24 27.27 101.96 27.50L102.11 27.64L102.13 27.66Q103.51 28.01 104.38 28.97L104.32 28.90L104.44 29.02Q105.29 30.22 105.25 31.63L105.18 31.56L105.25 31.63Q105.17 34.40 104.37 37.06L104.49 37.18L104.32 37.01Q103.42 40.64 101.06 41.67ZM105.37 42.32L105.32 42.24L105.20 42.12Q106.36 40.19 106.66 36.08L106.67 36.08L106.71 36.13Q106.94 34.46 106.94 33.20L106.87 33.13L106.91 33.17Q106.85 31.58 106.08 30.17L106.18 30.27L106.08 30.16Q105.77 29.82 105.28 29.44L105.26 29.42L105.01 29.06L104.75 28.69L104.70 28.52L104.72 28.54Q102.98 26.50 98.64 26.50L98.67 26.52L98.09 26.56L98.12 26.59Q93.43 26.54 91.80 28.14L91.88 28.23L91.95 28.29Q91.67 27.67 91.52 27.18L91.53 27.19L91.19 26.05L91.26 26.13Q88.83 25.56 86.63 24.07L86.50 23.95L86.58 24.03Q89.87 30.37 90.18 37.60L90.18 37.61L90.08 37.50Q90.41 44.80 87.55 51.27L87.47 51.18L89.54 50.40L89.47 50.33Q89.30 51.15 88.61 52.71L88.60 52.70L88.54 52.64Q91.36 51.69 93.68 51.35L93.59 51.26L93.62 51.28Q94.78 46.51 94.93 42.78L94.79 42.64L94.84 42.68Q96.20 44.12 99.82 44.35L99.91 44.44L99.94 44.47Q103.80 44.64 105.24 42.20L105.32 42.28ZM99.66 32.20L99.58 32.12L99.59 32.13Q100.25 32.06 101.35 32.41L101.29 32.35L101.28 32.34Q101.65 33.43 101.62 34.61L101.63 34.62L101.56 34.55Q101.59 35.50 101.40 36.15L101.41 36.16L101.32 36.07Q100.72 39.08 98.20 39.38L98.23 39.41L98.35 39.41L98.24 39.30Q98.19 39.33 98.08 39.37L98.17 39.47L97.51 39.34L97.63 39.46Q96.41 39.42 95.42 38.92L95.33 38.84L94.92 36.71L94.96 36.75Q94.85 34.47 96.14 33.44L96.20 33.50L96.26 33.56Q97.15 32.35 99.55 32.09Z"/></svg>