<svg xmlns="http://www.w3.org/2000/svg" width="150" height="50" viewBox="0,0,150,50"><path fill="#333" d="M69.96 39.86L70.08 39.98L70.00 39.90Q65.74 39.26 63.92 37.82L63.92 37.82L63.98 37.87Q62.27 36.55 61.86 33.55L61.75 33.44L61.84 33.53Q61.62 32.97 61.28 28.21L61.44 28.37L61.34 28.27Q61.43 27.14 61.35 25.88L61.35 25.88L61.45 25.98Q61.15 20.81 63.36 19.06L63.41 19.12L63.41 19.11Q66.14 17.09 73.91 16.40L73.91 16.41L73.73 16.23Q75.06 16.07 76.70 16.11L76.77 16.18L76.77 16.18Q76.74 16.15 79.71 16.15L79.75 16.19L79.71 16.15Q80.52 16.12 82.23 16.27L82.38 16.42L82.40 16.44Q81.77 17.26 80.74 20.34L80.84 20.44L80.81 20.41Q78.73 19.20 75.72 19.20L75.66 19.14L75.71 19.19Q74.94 19.18 74.14 19.26L74.09 19.20L74.17 19.29Q69.00 19.68 66.49 21.66L66.51 21.67L66.43 21.60Q64.42 23.20 64.27 26.55L64.30 26.59L64.27 26.56Q64.33 27.26 64.37 28.52L64.27 28.42L64.43 28.58Q64.53 33.40 66.93 35.50L66.79 35.36L66.85 35.42Q69.02 37.36 74.01 37.66L73.94 37.60L73.92 37.58Q77.11 37.80 80.12 36.01L80.07 35.97L80.24 36.13Q80.73 38.75 81.33 40.12L81.45 40.24L81.41 40.19Q79.31 40.46 77.67 40.42L77.61 40.35L77.62 40.36Q73.10 40.26 69.97 39.88ZM85.12 43.64L85.16 43.68L85.22 43.74Q83.32 40.62 82.64 38.03L82.58 37.98L82.74 38.14Q82.32 38.40 81.33 38.78L81.30 38.75L81.30 38.75Q80.99 37.98 80.80 37.15L80.64 36.98L80.28 35.30L80.33 35.35Q77.08 37.43 73.96 37.31L73.88 37.24L73.92 37.28Q69.73 37.15 67.40 35.40L67.30 35.30L67.30 35.30Q66.24 33.56 66.32 30.63L66.37 30.67L66.32 30.62Q66.41 26.07 68.89 23.94L68.87 23.92L68.93 23.99Q71.06 22.08 75.74 21.47L75.76 21.49L75.67 21.40Q76.59 21.40 77.31 21.40L77.28 21.37L77.19 21.28Q79.99 21.31 82.09 22.83L82.16 22.90L82.07 22.81Q82.61 20.72 83.83 17.49L83.91 17.57L83.83 17.49Q83.58 17.51 83.03 17.45L82.95 17.37L83.03 17.45Q82.38 17.30 82.12 17.30L82.23 17.41L82.30 17.48Q82.30 16.76 82.76 15.77L82.87 15.88L82.82 15.83Q82.68 15.92 80.18 15.84L80.22 15.88L80.04 15.69Q77.73 15.81 77.09 15.85L76.98 15.74L76.93 15.69Q66.48 16.09 63.02 18.68L62.92 18.58L63.01 18.67Q60.95 20.46 60.95 24.38L60.99 24.42L61.03 24.46Q61.01 25.55 61.13 28.25L61.20 28.32L61.03 28.15Q61.14 31.69 61.37 33.40L61.45 33.48L61.49 33.52Q61.74 36.51 63.34 38.04L63.37 38.07L63.48 38.18Q63.95 38.84 65.21 39.98L65.20 39.97L65.26 40.03Q68.52 41.81 73.78 42.57L73.65 42.45L73.81 42.61Q80.06 43.37 85.05 43.56Z"/><path fill="#222" d="M18.70 33.38L18.62 33.31L18.52 33.21Q18.49 36.15 17.31 40.79L17.36 40.84L17.20 40.67Q15.58 41.38 13.98 42.18L13.92 42.12L13.82 42.02Q16.51 35.07 16.24 27.65L16.32 27.73L16.29 27.70Q15.99 20.28 12.90 13.54L12.79 13.43L12.86 13.50Q14.92 14.87 16.79 15.45L16.66 15.31L16.71 15.37Q18.80 22.29 18.80 28.96L18.74 28.90L18.87 29.03Q18.78 30.38 18.70 31.87L18.82 31.99L18.83 32.00Q19.94 30.74 25.15 25.79L25.10 25.74L25.07 25.71Q26.14 25.67 27.13 25.60L27.14 25.60L29.25 25.48L29.27 25.49Q26.17 28.56 21.87 32.33L21.79 32.25L21.84 32.30Q25.14 34.99 31.61 40.82L31.59 40.80L31.61 40.82Q28.92 39.95 25.95 39.76L25.91 39.72L26.00 39.81Q23.45 37.68 18.58 33.26ZM28.56 42.52L28.52 42.48L28.49 42.45Q33.16 43.24 36.28 45.18L36.33 45.23L36.40 45.30Q35.13 43.91 32.50 41.51L32.53 41.54L32.47 41.48Q32.76 41.62 33.03 41.73L33.00 41.71L33.09 41.80Q31.00 39.78 28.75 37.88L28.67 37.80L24.24 33.90L24.23 33.89Q29.33 29.81 31.76 26.92L31.71 26.86L31.72 26.88Q30.41 26.86 27.94 27.13L28.05 27.24L27.95 27.14Q29.61 25.75 30.29 24.92L30.16 24.79L30.31 24.94Q27.58 25.48 25.11 25.48L24.92 25.30L25.07 25.44Q23.69 26.76 20.95 29.43L20.80 29.28L20.86 29.34Q20.87 23.57 19.88 17.74L19.81 17.67L19.86 17.72Q19.13 17.52 17.64 17.25L17.76 17.37L17.71 17.32Q17.49 16.53 17.04 15.05L16.98 14.99L17.11 15.12Q14.44 14.28 12.20 12.72L12.16 12.69L12.19 12.72Q15.58 19.49 15.92 27.60L15.85 27.53L15.94 27.62Q16.29 35.54 13.28 42.78L13.24 42.74L13.35 42.85Q14.02 42.52 15.35 41.87L15.39 41.91L15.35 41.87Q15.15 42.74 14.50 44.19L14.43 44.12L14.47 44.16Q17.32 43.08 19.45 42.70L19.39 42.64L19.38 42.63Q19.87 40.03 20.36 35.77L20.37 35.78L20.47 35.88Q23.03 38.10 28.48 42.44Z"/><path fill="#444" d="M45.56 28.57L45.53 28.55L45.69 28.71Q42.73 28.56 41.97 30.81L42.03 30.87L42.06 30.90Q41.75 31.54 41.64 32.19L41.72 32.27L41.76 32.31Q44.35 32.51 45.99 32.51L45.92 32.44L45.96 32.47Q47.51 32.39 50.10 32.27L50.20 32.37L50.08 32.25Q49.96 30.54 48.55 29.48L48.63 29.55L48.60 29.52Q47.30 28.53 45.51 28.53ZM45.77 41.27L45.72 41.23L45.60 41.11Q41.35 41.08 40.06 39.67L40.18 39.79L40.18 39.79Q39.17 38.29 39.02 35.02L39.01 35.01L39.00 35.00Q39.10 34.87 39.02 33.50L38.95 33.42L38.94 33.41Q38.90 31.20 38.90 30.48L38.83 30.41L38.82 30.40Q38.87 28.58 39.59 27.48L39.54 27.43L39.49 27.37Q40.90 25.97 43.87 25.97L43.98 26.08L45.46 26.00L45.50 26.04Q47.55 26.03 49.07 26.34L49.15 26.41L49.05 26.32Q51.18 26.85 52.17 28.07L52.03 27.93L52.09 27.98Q52.84 29.19 52.91 31.28L52.90 31.27L52.77 31.14Q52.88 32.39 52.92 34.56L52.92 34.57L52.78 34.42Q49.91 34.45 47.13 34.45L47.28 34.59L41.57 34.48L41.64 34.55Q41.68 38.86 45.76 38.63L45.90 38.77L45.75 38.63Q49.51 38.43 50.73 36.60L50.91 36.78L50.80 36.67Q51.65 37.18 53.25 38.36L53.20 38.31L53.39 38.49Q51.90 40.77 47.75 41.04L47.72 41.01L47.78 41.07Q47.05 41.11 45.68 41.18ZM47.97 43.51L48.00 43.53L48.06 43.60Q49.03 43.43 50.25 43.50L50.33 43.59L50.32 43.57Q55.22 43.68 56.14 40.90L56.10 40.87L56.15 40.91Q54.61 39.75 53.50 38.99L53.44 38.92L53.50 38.99Q53.57 38.49 53.76 38.26L53.83 38.33L53.80 38.30Q53.09 37.86 51.72 36.91L51.66 36.85L51.66 36.85Q52.73 36.88 54.78 37.19L54.85 37.25L54.76 37.16Q54.62 35.85 54.54 35.16L54.70 35.31L54.47 33.30L54.56 33.39Q54.34 30.96 53.69 29.47L53.62 29.40L53.71 29.49Q53.36 29.06 52.79 28.45L52.88 28.54L52.84 28.51Q52.77 28.29 52.55 27.72L52.44 27.61L52.36 27.53Q50.62 25.64 45.56 25.64L45.43 25.51L43.84 25.60L43.73 25.49Q40.53 25.52 39.08 27.01L39.04 26.97L39.16 27.08Q38.45 28.17 38.49 30.22L38.40 30.13L38.40 30.13Q38.62 31.26 38.73 33.51L38.65 33.43L38.59 33.37Q38.78 35.08 38.90 37.14L38.84 37.08L38.87 37.11Q39.20 39.43 40.08 40.49L39.97 40.38L39.97 40.39Q40.21 40.62 40.40 40.73L40.38 40.72L40.69 41.37L40.57 41.25Q41.44 43.18 48.02 43.56ZM45.77 38.23L45.78 38.23L45.95 38.41Q44.70 38.41 43.79 37.95L43.83 38.00L43.74 37.91Q43.64 37.47 43.45 36.78L43.58 36.91L43.56 36.89Q45.21 36.76 46.81 36.76L46.90 36.84L46.81 36.76Q48.59 36.86 50.27 36.98L50.26 36.97L50.08 36.79Q48.78 38.11 45.77 38.23ZM47.57 31.04L47.49 30.96L47.48 30.95Q48.15 31.01 49.48 31.39L49.55 31.46L49.70 31.80L49.75 32.04L49.75 32.04Q48.29 32.07 47.38 32.03L47.45 32.11L47.37 32.02Q45.06 31.96 45.02 31.96L45.14 32.08L45.04 31.97Q45.91 31.17 47.59 31.06Z"/><path fill="#444" d="M121.94 40.13L122.03 40.22L121.93 40.11Q120.20 40.17 118.52 40.74L118.56 40.78L118.50 40.73Q118.93 37.01 119.05 33.89L119.16 34.00L119.15 33.99Q119.32 31.00 119.09 27.34L118.95 27.21L118.95 27.21Q117.60 26.88 116.84 26.50L116.86 26.52L116.53 23.57L116.49 23.52Q117.25 24.17 118.85 24.74L118.86 24.75L118.89 24.78Q118.57 22.56 118.15 19.82L118.23 19.89L118.10 19.77Q120.38 20.45 122.02 20.30L122.04 20.32L121.91 24.91L121.92 24.92Q123.33 24.84 124.66 24.35L124.73 24.42L124.77 24.46Q124.71 25.35 124.48 27.10L124.49 27.11L124.40 27.02Q122.88 27.36 121.85 27.36L121.97 27.49L121.86 27.37Q121.93 29.61 121.93 33.87L121.90 33.85L121.97 33.91Q121.99 38.08 122.06 40.25ZM125.03 23.73L125.14 23.84L125.21 23.91Q124.89 23.97 124.28 24.20L124.21 24.13L124.72 21.48L124.59 21.35Q123.81 21.67 122.40 21.90L122.33 21.82L122.40 21.90Q122.49 21.30 122.65 19.93L122.56 19.85L122.57 19.86Q121.98 19.95 121.41 19.95L121.47 20.01L121.38 19.92Q119.23 19.90 117.59 19.18L117.63 19.22L117.54 19.13Q118.14 21.71 118.41 24.18L118.39 24.17L118.29 24.07Q117.52 23.83 115.99 22.80L115.99 22.80L116.06 22.87Q116.40 24.16 116.63 26.86L116.51 26.75L116.60 26.83Q116.91 26.92 118.09 27.34L118.14 27.38L118.27 27.51Q118.28 28.13 118.32 29.54L118.32 29.55L118.75 29.62L118.77 29.57L118.79 29.60Q118.72 30.71 118.72 31.89L118.88 32.05L118.80 31.97Q118.85 36.96 118.05 41.30L118.03 41.28L118.06 41.32Q118.15 41.10 120.09 40.57L120.12 40.59L120.05 40.53Q120.20 41.32 120.08 42.69L120.11 42.72L119.99 42.60Q120.86 42.59 121.66 42.59L121.65 42.58L121.57 42.50Q123.38 42.60 125.02 43.17L125.01 43.16L125.00 43.15Q123.76 37.54 123.96 29.62L123.93 29.59L126.18 29.06L126.31 29.19Q126.36 28.26 126.44 27.23L126.52 27.31L126.64 25.22L126.69 25.28Q126.06 25.48 124.88 25.93L124.86 25.92L124.90 25.96Q125.12 24.54 125.05 24.20L125.01 24.17L125.07 24.23Q124.96 23.92 125.03 23.73Z"/><path fill="#333" d="M95.91 19.62L95.91 19.62L95.88 19.58Q94.01 19.81 93.06 19.97L92.94 19.84L92.98 19.88Q91.39 20.16 90.18 20.70L90.18 20.70L90.10 20.62Q86.73 22.20 86.62 26.89L86.47 26.74L86.58 26.85Q86.39 29.40 87.03 32.33L87.16 32.45L87.20 32.50Q87.98 36.44 91.60 37.62L91.56 37.57L91.56 37.58Q93.57 38.25 95.01 38.10L94.92 38.01L95.34 37.97L95.34 37.97Q95.55 37.99 95.74 38.02L95.71 38.00L95.76 38.05Q95.87 38.00 96.02 37.96L96.14 38.09L95.99 37.93Q98.68 37.73 100.05 37.16L100.05 37.15L96.48 33.62L96.55 33.70Q96.77 33.27 97.38 32.66L97.38 32.66L98.40 31.85L98.34 31.80Q100.12 33.80 102.10 35.86L102.27 36.02L102.26 36.02Q104.54 34.15 104.81 28.78L104.78 28.75L104.75 28.72Q104.79 27.77 104.79 26.86L104.76 26.83L104.88 26.95Q104.82 21.22 99.76 20.12L99.84 20.20L99.73 20.09Q98.40 19.75 95.89 19.59ZM108.64 41.64L108.66 41.65L108.79 41.78Q108.19 42.21 107.01 43.08L107.06 43.14L102.51 39.31L102.61 39.41Q100.11 40.61 95.85 40.64L95.75 40.54L95.83 40.62Q89.25 40.71 86.43 38.46L86.36 38.39L86.35 38.38Q84.65 36.68 84.20 33.71L84.19 33.70L84.16 33.68Q83.99 31.91 83.61 28.33L83.55 28.27L83.53 28.25Q83.54 27.53 83.42 25.78L83.46 25.82L83.46 25.82Q83.36 24.31 83.40 23.44L83.45 23.49L83.49 23.53Q83.55 20.43 85.30 18.87L85.21 18.78L85.29 18.86Q86.77 17.48 89.97 16.99L89.97 16.99L89.98 17.00Q92.52 16.68 95.41 16.76L95.44 16.78L95.40 16.75Q102.92 16.88 106.04 19.24L106.01 19.21L105.97 19.17Q108.07 21.23 107.80 26.14L107.93 26.26L107.81 26.15Q107.71 29.90 107.52 31.23L107.55 31.25L107.56 31.26Q106.89 35.74 104.57 38.06L104.61 38.10L104.53 38.02Q105.94 39.20 108.68 41.67ZM103.78 17.37L103.82 17.40L103.86 17.44Q101.79 16.67 95.28 16.17L95.27 16.15L95.44 16.33Q93.94 16.24 91.16 16.35L91.17 16.36L91.26 16.45Q86.90 16.54 84.65 18.52L84.82 18.69L84.80 18.67Q83.09 20.08 83.09 23.24L83.08 23.24L82.98 23.13Q83.08 24.07 83.23 25.78L83.13 25.68L83.18 25.73Q83.33 27.44 83.33 28.32L83.33 28.32L83.35 28.34Q83.56 30.15 83.94 33.72L83.95 33.73L83.81 33.59Q84.28 36.57 85.88 38.63L85.92 38.67L85.93 38.68Q86.13 39.37 87.34 40.52L87.49 40.67L87.44 40.61Q90.16 42.61 95.34 42.87L95.22 42.76L95.33 42.87Q95.60 42.79 97.99 42.91L98.15 43.07L97.98 42.89Q102.87 43.13 105.15 42.07L105.24 42.15L105.13 42.05Q106.09 42.82 110.81 46.40L110.72 46.31L110.69 46.27Q111.44 45.88 112.73 44.89L112.57 44.72L112.68 44.83Q111.75 44.10 110.95 43.42L110.94 43.40L109.19 41.84L109.45 41.95L109.38 41.88Q108.85 41.47 107.64 40.44L107.55 40.35L107.60 40.40Q109.43 37.82 109.43 33.29L109.42 33.28L109.44 33.30Q109.55 32.99 109.59 32.15L109.59 32.16L109.51 32.07Q109.62 31.31 109.62 30.89L109.64 30.91L109.63 30.90Q109.66 25.41 108.94 23.05L108.96 23.08L108.85 22.96Q108.59 21.79 107.71 20.72L107.71 20.72L107.70 20.71Q106.89 18.56 103.96 17.54ZM97.88 22.04L97.89 22.05L97.88 22.04Q101.90 21.92 103.73 23.51L103.68 23.47L103.70 23.49Q104.41 24.84 104.52 26.17L104.40 26.05L104.38 26.03Q104.56 27.40 104.49 28.77L104.47 28.74L104.38 28.65Q104.06 33.63 102.12 35.34L102.25 35.47L102.26 35.49Q100.85 34.07 98.34 31.33L98.31 31.30L98.39 31.38Q97.53 32.05 95.97 33.61L96.07 33.71L96.09 33.73Q96.56 34.24 97.71 35.42L97.79 35.50L97.54 35.37L97.60 35.43Q98.21 36.00 99.24 37.07L99.32 37.15L99.18 37.01Q98.18 37.26 95.85 37.57L96.00 37.71L95.36 37.61L94.98 37.64L94.96 37.66L94.93 37.63Q91.59 37.76 89.61 36.12L89.43 35.94L89.53 36.04Q88.56 34.01 88.60 30.89L88.50 30.79L88.47 30.75Q88.64 22.05 97.81 21.98Z"/></svg>