<svg xmlns="http://www.w3.org/2000/svg" width="150" height="50" viewBox="0,0,150,50"><path fill="#333" d="M50.70 29.53L50.58 29.41L50.69 29.52Q49.53 28.78 48.88 28.81L48.78 28.71L48.75 28.68Q47.38 28.76 46.34 29.77L46.51 29.94L46.39 29.82Q45.30 30.78 45.41 32.15L45.41 32.15L45.39 32.13Q45.71 36.49 44.83 41.02L44.83 41.02L44.86 41.05Q42.76 41.61 41.66 42.15L41.59 42.07L41.65 42.14Q43.19 38.00 42.96 33.55L42.95 33.53L42.93 33.52Q42.56 28.88 40.84 24.81L40.85 24.82L40.92 24.89Q42.00 25.51 44.28 26.15L44.39 26.27L44.92 28.92L44.84 28.85Q45.65 26.07 49.91 26.07L49.82 25.98L49.86 26.02Q50.32 26.02 50.62 26.02L50.47 25.87L50.63 26.03Q51.82 25.93 53.08 26.61L53.11 26.65L53.08 26.62Q51.73 27.93 50.59 29.41ZM52.17 31.37L52.46 31.52L52.38 31.44Q53.26 30.26 54.94 27.83L54.97 27.86L54.98 27.86Q54.49 27.49 52.96 27.22L52.95 27.21L53.04 27.30Q53.36 26.97 53.82 26.36L53.85 26.39L53.76 26.31Q51.93 25.46 49.98 25.65L49.98 25.65L49.91 25.58Q47.95 25.75 47.23 26.01L47.22 26.01L47.14 25.93Q45.75 26.36 44.95 27.47L44.96 27.48L44.87 26.74L44.57 25.80L44.62 25.85Q42.20 25.40 40.22 24.07L40.35 24.21L40.25 24.10Q42.43 28.52 42.66 33.40L42.57 33.32L42.73 33.47Q42.87 38.30 41.12 42.83L41.08 42.79L41.14 42.85Q42.19 42.34 43.07 42.03L43.02 41.98L43.03 41.99Q42.75 43.09 42.26 44.15L42.36 44.25L42.27 44.17Q45.12 43.32 47.25 43.21L47.38 43.33L47.39 38.63L47.51 38.75Q47.49 36.36 47.49 34.12L47.60 34.23L47.49 34.12Q47.65 33.10 48.56 32.13L48.49 32.06L48.48 32.04Q49.36 31.04 50.50 30.97L50.60 31.06L50.46 30.92Q51.08 30.78 51.80 31.47L51.90 31.56L52.34 31.55ZM47.28 29.69L47.28 29.60L47.30 29.75L47.19 29.60Z"/><path fill="#444" d="M122.64 20.12L122.65 20.12L122.74 20.22Q118.40 20.18 114.71 19.19L114.60 19.08L114.69 19.17Q116.11 23.64 116.30 28.47L116.24 28.41L116.24 28.41Q116.59 33.37 115.37 37.97L115.31 37.92L115.23 37.84Q118.19 37.37 121.70 37.22L121.68 37.21L121.64 37.17Q125.58 36.99 127.37 34.56L127.27 34.45L127.33 34.52Q128.77 32.38 128.96 28.27L128.99 28.29L129.01 28.32Q129.04 26.51 128.58 24.80L128.60 24.83L128.56 24.79Q127.35 20.11 122.63 20.11ZM110.81 42.21L110.77 42.17L110.68 42.08Q113.57 36.41 113.57 29.71L113.55 29.68L113.59 29.73Q113.63 21.24 109.33 14.23L109.28 14.18L109.36 14.27Q114.53 16.84 122.79 17.03L122.82 17.07L122.84 17.09Q131.64 17.21 131.99 24.36L132.13 24.51L132.14 24.52Q132.09 27.05 132.05 28.50L132.15 28.61L132.22 28.67Q132.07 33.28 131.23 35.45L131.25 35.47L131.15 35.37Q130.75 36.49 129.98 37.32L130.02 37.36L130.12 37.46Q128.60 38.84 125.98 39.33L126.13 39.49L126.03 39.38Q124.49 39.71 121.48 39.94L121.55 40.01L121.49 39.94Q115.29 40.33 110.68 42.08ZM128.59 41.94L128.73 42.08L128.61 41.97Q131.47 41.74 133.10 40.25L133.07 40.22L133.10 40.24Q134.23 38.41 134.19 35.66L134.11 35.59L134.14 35.61Q134.24 34.35 134.09 30.84L134.01 30.77L133.69 26.26L133.67 26.24Q133.56 24.03 132.61 21.94L132.48 21.81L132.56 21.89Q132.13 21.04 131.44 20.40L131.37 20.32L131.33 20.13L131.37 20.17Q129.66 17.21 125.25 16.83L125.20 16.78L125.31 16.89Q122.62 16.75 115.62 16.03L115.47 15.88L115.56 15.97Q112.22 15.45 108.53 13.43L108.47 13.38L108.56 13.46Q113.38 20.84 113.38 29.59L113.48 29.69L113.42 29.63Q113.41 36.62 110.06 42.79L110.01 42.74L109.99 42.73Q110.76 42.54 112.10 42.05L112.00 41.95L112.06 42.01Q111.69 42.83 110.82 44.31L110.76 44.25L110.93 44.42Q113.80 43.18 117.15 42.68L117.20 42.73L117.30 42.84Q119.32 42.46 122.97 42.34L123.02 42.38L122.87 42.24Q126.90 42.27 128.73 42.08ZM128.69 28.38L128.78 28.46L128.69 28.37Q128.24 36.30 121.54 36.68L121.53 36.67L121.61 36.76Q119.63 36.83 117.57 37.09L117.66 37.19L117.62 37.14Q118.44 33.39 118.44 29.74L118.27 29.57L118.39 29.69Q118.25 25.86 117.53 22.01L117.61 22.10L117.59 22.08Q119.97 22.55 124.65 22.55L124.48 22.38L124.62 22.52Q125.93 22.31 127.57 23.26L127.66 23.35L127.55 23.24Q128.88 25.56 128.73 28.41Z"/><path fill="#222" d="M23.79 29.99L23.63 29.83L23.76 29.96Q21.15 29.75 19.82 30.97L19.86 31.01L19.82 30.96Q18.43 32.12 18.73 34.64L18.71 34.61L18.81 34.72Q19.04 37.15 20.26 38.41L20.24 38.39L20.32 38.47Q21.46 39.88 23.59 39.80L23.58 39.79L23.54 39.75Q24.11 39.74 24.30 39.74L24.37 39.82L24.35 39.79Q27.91 39.21 28.02 34.60L27.98 34.56L27.95 34.53Q28.08 32.22 27.39 31.42L27.43 31.45L27.42 31.44Q26.17 29.97 23.62 29.82ZM27.02 41.63L27.09 41.70L27.04 41.65Q25.67 42.18 24.11 42.10L24.05 42.05L24.10 42.10Q20.25 42.28 18.95 39.69L19.08 39.81L18.94 39.68Q18.75 45.01 17.42 49.27L17.56 49.41L17.51 49.37Q15.73 49.87 14.09 50.59L14.14 50.64L14.05 50.55Q16.68 44.65 16.41 37.68L16.36 37.63L16.43 37.70Q16.11 30.79 13.21 24.74L13.16 24.68L13.33 24.86Q15.23 25.99 16.94 26.45L16.86 26.37L17.33 27.79L17.36 27.82Q17.43 28.12 17.70 29.22L17.75 29.28L17.72 29.24Q18.77 27.21 22.35 27.02L22.30 26.97L22.43 27.10Q23.29 27.05 24.17 27.05L24.04 26.92L24.63 27.02L24.57 26.96Q24.72 27.00 24.91 27.04L25.02 27.14L25.22 27.04L25.16 26.98Q27.36 27.39 28.08 27.62L28.02 27.55L28.09 27.63Q29.44 27.95 30.32 28.90L30.44 29.02L30.37 28.95Q31.29 30.21 31.25 31.62L31.15 31.52L31.15 31.52Q31.17 34.39 30.37 37.06L30.39 37.08L30.38 37.07Q29.43 40.65 27.07 41.67ZM31.26 42.22L31.20 42.11L31.37 42.29Q32.30 40.14 32.61 36.03L32.78 36.19L32.77 36.19Q32.94 34.46 32.94 33.20L32.83 33.09L32.89 33.15Q32.97 31.70 32.21 30.30L32.13 30.21L32.20 30.29Q31.74 29.79 31.24 29.41L31.16 29.33L31.07 29.12L30.74 28.67L30.84 28.66L30.88 28.71Q29.09 26.60 24.75 26.60L24.78 26.63L24.09 26.56L24.04 26.51Q19.57 26.68 17.93 28.28L17.90 28.24L17.91 28.26Q17.59 27.59 17.43 27.09L17.58 27.24L17.25 26.11L17.24 26.10Q14.74 25.46 12.53 23.98L12.55 24.00L12.62 24.07Q15.77 30.26 16.07 37.49L16.14 37.57L16.04 37.46Q16.29 44.68 13.44 51.15L13.56 51.28L15.54 50.41L15.46 50.32Q15.23 51.08 14.54 52.64L14.57 52.67L14.50 52.60Q17.36 51.69 19.69 51.35L19.56 51.23L19.70 51.36Q20.70 46.43 20.85 42.70L20.96 42.80L20.84 42.68Q22.24 44.16 25.86 44.39L25.80 44.33L25.83 44.37Q29.94 44.77 31.38 42.34L31.35 42.30ZM25.62 32.16L25.64 32.18L25.66 32.19Q26.18 31.99 27.28 32.33L27.36 32.41L27.40 32.45Q27.73 33.51 27.69 34.69L27.67 34.67L27.56 34.56Q27.57 35.48 27.38 36.13L27.34 36.09L27.39 36.14Q26.68 39.04 24.17 39.35L24.21 39.39L24.27 39.34L24.31 39.38Q24.15 39.29 24.03 39.33L24.10 39.39L23.56 39.39L23.55 39.38Q22.32 39.33 21.33 38.83L21.33 38.83L21.04 36.83L20.92 36.71Q20.86 34.48 22.16 33.45L22.10 33.40L22.13 33.43Q23.23 32.44 25.63 32.17Z"/><path fill="#222" d="M95.80 41.06L95.82 41.07L94.23 41.20L94.26 41.22Q90.73 41.09 89.78 38.96L89.88 39.06L89.78 38.96Q90.93 37.90 92.38 36.80L92.50 36.92L92.36 36.78Q93.08 39.10 95.94 38.95L95.83 38.84L95.91 38.92Q96.72 38.89 97.75 38.66L97.77 38.68L97.68 38.59Q98.65 38.11 98.57 37.16L98.52 37.11L98.53 37.12Q98.52 36.08 96.73 35.40L96.73 35.40L92.92 33.87L92.97 33.92Q90.57 32.51 90.23 28.97L90.19 28.94L90.28 29.03Q90.04 26.84 92.21 26.27L92.29 26.35L92.17 26.23Q93.16 26.04 96.13 26.04L96.12 26.03L96.08 25.99Q101.05 26.09 101.96 28.60L101.92 28.56L101.81 28.45Q101.35 29.17 100.63 29.62L100.47 29.46L99.22 30.58L99.14 30.49Q98.61 28.56 95.38 28.33L95.40 28.36L95.36 28.31Q94.82 28.39 93.79 28.80L93.84 28.85L93.86 28.88Q93.29 29.22 93.29 30.32L93.25 30.29L93.32 30.35Q93.63 31.38 95.46 32.07L95.44 32.06L95.45 32.06Q96.49 32.42 99.15 33.52L99.22 33.58L99.22 33.59Q101.02 34.40 101.21 36.95L101.22 36.95L101.09 36.83Q101.16 37.46 101.08 38.45L101.16 38.53L101.05 38.42Q101.07 39.36 100.50 40.00L100.47 39.97L100.55 40.06Q99.03 41.24 95.98 41.24ZM100.60 43.68L100.75 43.83L100.65 43.74Q101.56 43.77 102.93 43.46L102.86 43.39L102.86 43.39Q104.00 42.78 103.81 41.56L103.76 41.51L103.82 41.57Q103.83 41.09 103.52 39.49L103.52 39.48L103.44 39.41Q102.91 36.48 101.13 35.26L101.01 35.15L101.02 35.15Q100.64 33.91 99.39 33.18L99.36 33.16L99.32 33.11Q98.13 32.76 95.65 31.81L95.51 31.67L95.55 31.71Q95.66 31.20 95.92 31.09L96.10 31.26L96.00 31.16Q96.68 30.78 97.33 30.74L97.34 30.75L97.32 30.74Q98.11 30.69 98.87 30.95L98.91 30.99L98.90 31.06L98.86 30.91L99.18 31.03L99.14 31.03L99.15 31.04Q100.29 31.57 100.48 32.82L100.46 32.80L100.53 32.88Q101.69 31.94 103.59 30.27L103.71 30.39L103.53 30.21Q103.40 29.62 102.41 28.44L102.34 28.36L102.42 28.45Q101.21 25.68 96.11 25.56L96.17 25.63L96.13 25.58Q92.86 25.44 90.88 26.01L90.99 26.12L91.07 26.20Q89.58 26.69 89.81 28.78L89.84 28.81L89.78 28.75Q89.93 30.04 90.84 32.14L90.80 32.09L90.73 32.03Q91.28 33.14 92.31 33.87L92.31 33.87L92.44 34.00Q93.10 35.46 94.39 36.14L94.46 36.22L94.34 36.09Q95.39 36.45 96.34 36.84L96.30 36.79L98.19 37.55L98.17 37.52Q97.90 38.70 95.96 38.59L95.86 38.49L95.88 38.51Q95.37 38.50 94.16 38.19L94.23 38.26L94.13 38.02L94.10 38.22L94.07 38.18Q93.25 37.86 92.60 36.37L92.53 36.30L92.60 36.37Q90.49 37.95 89.39 39.09L89.32 39.03L89.25 38.95Q89.69 40.00 90.71 40.80L90.67 40.76L90.57 40.96L90.57 40.97Q92.02 43.09 96.24 43.47L96.16 43.39L96.10 43.33Q97.43 43.52 100.66 43.75Z"/><path fill="#222" d="M68.36 40.29L68.42 40.36L68.39 40.32Q64.40 40.64 63.41 38.32L63.37 38.28L63.34 38.24Q64.14 37.34 65.70 35.55L65.70 35.54L65.71 35.55Q66.22 37.59 69.23 37.70L69.22 37.70L69.15 37.62Q72.52 37.68 74.16 36.35L74.32 36.52L74.19 36.39Q75.60 34.78 75.52 32.08L75.63 32.19L75.57 32.13Q75.31 26.96 70.52 27.19L70.52 27.19L70.57 27.24Q67.72 27.36 65.96 28.61L66.07 28.72L65.62 28.42L65.58 28.46L65.50 28.38Q65.92 25.30 65.81 22.56L65.67 22.42L65.73 22.48Q65.64 19.88 65.30 16.57L65.21 16.48L65.25 16.51Q68.91 17.47 72.72 17.36L72.67 17.31L72.71 17.35Q76.61 17.37 80.19 16.11L80.08 16.00L79.54 17.56L79.52 17.54Q79.27 18.35 79.08 19.19L79.01 19.13L79.07 19.19Q75.85 20.11 71.96 20.11L72.13 20.28L72.03 20.17Q70.65 20.25 69.17 20.09L69.19 20.11L69.09 20.01Q69.01 20.69 68.66 25.15L68.72 25.20L68.63 25.12Q69.64 24.83 71.70 24.68L71.52 24.50L71.67 24.65Q75.27 24.74 76.71 26.42L76.75 26.46L76.84 26.55Q78.22 28.08 78.49 31.92L78.41 31.84L78.34 31.77Q78.58 35.94 77.37 37.96L77.51 38.10L77.48 38.08Q75.46 39.98 72.15 40.21L72.13 40.18L72.17 40.23Q71.20 40.32 68.54 40.48ZM74.58 42.75L74.40 42.57L74.53 42.70Q77.97 42.79 79.88 41.69L79.89 41.70L79.77 41.58Q80.79 40.09 80.79 38.00L80.84 38.04L80.75 37.96Q80.89 35.02 79.94 30.90L79.95 30.91L79.77 30.73Q79.41 29.01 78.20 27.60L78.34 27.74L78.30 27.73L77.98 27.34L77.64 27.16L77.63 27.15Q77.34 26.44 76.69 25.75L76.71 25.77L76.74 25.84L76.84 25.94Q75.19 24.14 71.50 24.14L71.48 24.12L71.23 24.13L71.37 24.27Q71.33 23.59 71.52 22.49L71.60 22.56L71.49 22.45Q76.46 22.55 80.50 20.92L80.57 20.99L80.61 21.03Q81.03 19.62 81.98 16.81L81.86 16.68L79.77 17.64L79.86 17.73Q80.31 16.65 80.80 15.51L80.68 15.39L80.84 15.54Q76.86 16.86 72.75 16.93L72.76 16.94L72.82 17.01Q68.69 17.10 64.73 15.99L64.79 16.06L64.77 16.04Q65.37 20.36 65.37 24.78L65.42 24.84L65.34 24.75Q65.32 26.64 65.21 28.54L65.19 28.52L65.34 28.67Q65.56 28.82 66.13 29.13L66.09 29.09L66.06 29.05Q66.46 28.88 67.10 28.53L67.10 28.53L67.10 28.53Q66.99 29.22 66.76 30.74L66.78 30.76L66.94 30.92Q67.29 31.05 67.71 31.27L67.69 31.25L67.73 31.29Q70.55 29.58 72.42 29.58L72.24 29.41L72.26 29.43Q73.65 29.48 74.83 30.13L74.90 30.20L74.93 30.23Q75.18 31.16 75.21 32.11L75.29 32.19L75.14 32.04Q75.36 34.78 74.33 35.88L74.30 35.84L74.22 35.77Q72.89 37.03 70.65 37.26L70.70 37.30L70.73 37.34Q69.60 37.24 68.92 37.16L69.08 37.33L68.95 37.20Q68.17 37.14 67.41 36.80L67.44 36.83L67.45 36.64L67.22 36.65L67.25 36.68Q66.48 36.21 65.95 34.88L65.98 34.91L65.92 34.85Q64.53 36.20 62.85 38.33L62.92 38.40L62.95 38.42Q63.14 38.96 63.98 39.91L64.14 40.07L63.98 39.91Q65.14 41.83 67.95 42.33L68.03 42.40L68.01 42.38Q69.06 42.49 74.43 42.60Z"/></svg>