<svg xmlns="http://www.w3.org/2000/svg" width="150" height="50" viewBox="0,0,150,50"><path fill="#444" d="M13.68 14.34L13.74 14.40L13.71 14.36Q17.39 16.79 22.15 17.02L22.15 17.02L22.28 17.15Q26.90 17.32 31.16 15.57L30.98 15.38L31.11 15.51Q30.82 16.02 30.05 18.80L30.11 18.85L30.19 18.93Q27.33 19.84 24.36 19.99L24.37 20.00L24.44 20.07Q21.40 20.15 18.50 19.43L18.46 19.38L18.51 19.43Q19.17 23.03 19.36 26.68L19.39 26.71L19.49 26.81Q21.51 27.04 23.11 27.00L23.09 26.98L22.93 26.83Q24.15 26.83 26.55 26.71L26.63 26.79L26.73 26.89Q26.49 27.34 26.49 28.03L26.65 28.19L26.53 29.40L26.54 29.41Q24.25 29.52 19.46 29.59L19.42 29.55L19.47 29.61Q19.37 33.62 18.80 37.62L18.87 37.69L18.87 37.68Q21.54 37.08 24.28 37.20L24.26 37.18L24.28 37.20Q26.90 37.19 29.49 38.03L29.40 37.94L29.54 38.08Q29.64 38.90 29.90 39.66L29.77 39.53L30.31 41.13L30.23 41.05Q27.09 39.81 23.66 39.81L23.68 39.83L23.66 39.81Q18.72 39.74 14.46 41.99L14.49 42.02L14.56 42.09Q16.85 35.25 16.59 28.13L16.48 28.02L16.58 28.12Q16.29 20.94 13.63 14.28ZM14.09 42.84L14.00 42.75L14.07 42.82Q15.34 42.12 16.10 41.77L16.03 41.70L16.02 41.69Q15.80 42.42 15.23 43.94L15.26 43.98L15.33 44.04Q19.86 42.07 24.93 42.33L24.86 42.27L24.97 42.38Q30.01 42.54 34.01 45.25L34.13 45.37L34.06 45.30Q32.88 42.75 32.19 40.81L32.12 40.74L32.13 40.74Q31.13 40.13 30.14 39.78L30.22 39.86L30.16 39.80Q29.91 38.57 29.76 37.77L29.69 37.70L29.62 37.62Q26.50 36.59 23.34 36.59L23.43 36.68L23.42 36.68Q22.20 36.60 21.06 36.72L21.08 36.73L21.09 36.75Q21.33 35.62 21.37 34.40L21.23 34.26L21.42 31.86L21.31 31.75Q23.22 31.75 25.01 31.79L25.01 31.79L24.92 31.71Q26.86 31.86 28.65 32.01L28.55 31.91L28.52 31.88Q28.55 31.04 28.55 30.09L28.52 30.05L28.61 28.24L27.76 28.27L27.72 28.22Q27.37 28.37 26.92 28.37L26.91 28.36L26.93 28.38Q26.86 27.63 27.01 26.33L27.08 26.40L27.08 26.40Q25.49 26.64 24.31 26.68L24.25 26.62L24.28 26.65Q23.31 26.63 21.48 26.55L21.38 26.45L21.37 26.44Q21.46 25.20 21.27 22.39L21.22 22.33L21.11 22.23Q22.31 22.51 23.30 22.51L23.25 22.46L23.28 22.49Q27.89 22.38 31.58 20.47L31.61 20.51L31.59 20.48Q32.20 18.16 33.08 15.95L33.12 15.99L33.11 15.99Q31.79 16.84 30.95 17.18L30.87 17.10L30.94 17.17Q31.21 16.38 31.67 14.81L31.75 14.89L31.73 14.87Q27.02 16.94 22.15 16.63L22.11 16.60L22.20 16.69Q16.88 16.36 13.04 13.51L13.02 13.49L13.03 13.50Q15.96 20.50 16.26 28.11L16.26 28.11L16.28 28.13Q16.50 35.96 13.99 42.74Z"/><path fill="#444" d="M81.20 34.65L81.30 34.76L81.16 34.62Q81.31 38.34 78.15 39.64L78.15 39.64L78.02 39.51Q76.18 40.37 71.76 40.52L71.83 40.59L71.71 40.47Q67.06 40.73 64.82 39.55L64.73 39.46L64.81 39.54Q62.95 38.22 63.10 34.87L63.08 34.85L63.04 34.81Q63.04 34.16 63.23 32.18L63.21 32.16L63.27 32.22Q63.46 30.69 63.46 29.70L63.44 29.68L63.36 29.61Q63.39 21.65 59.21 14.22L59.11 14.13L59.25 14.27Q60.44 14.96 63.41 16.03L63.36 15.98L63.24 15.86Q66.29 22.75 66.29 30.14L66.27 30.12L66.29 30.14Q66.20 30.66 66.11 31.84L66.20 31.93L66.13 31.86Q66.12 33.13 66.12 33.74L66.12 33.74L66.12 33.74Q66.07 35.97 67.63 36.96L67.57 36.90L67.60 36.93Q69.21 37.71 72.18 37.71L72.27 37.80L72.25 37.78Q74.72 37.62 76.36 36.44L76.37 36.45L76.38 36.46Q78.42 35.30 78.27 32.79L78.25 32.78L78.21 32.73Q77.99 31.22 77.99 29.89L78.09 29.99L78.07 29.97Q78.04 22.89 80.44 16.38L80.43 16.37L82.54 15.74L82.65 15.85Q83.65 15.60 84.76 15.14L84.70 15.08L84.68 15.07Q81.02 22.25 81.02 29.83L81.06 29.88L80.97 29.78Q80.94 30.58 81.07 32.22L81.15 32.30L81.06 32.21Q81.19 33.85 81.19 34.65ZM83.31 35.51L83.44 35.64L83.40 35.60Q82.46 30.59 83.18 25.48L83.15 25.45L83.16 25.46Q84.07 20.43 86.47 16.05L86.36 15.94L86.38 15.97Q85.80 16.30 84.36 16.95L84.27 16.86L84.31 16.91Q84.59 15.97 85.39 14.41L85.49 14.50L85.54 14.55Q82.08 15.78 80.17 16.12L80.16 16.11L80.03 15.98Q77.67 22.48 77.67 29.75L77.83 29.92L77.74 29.82Q77.72 31.18 77.80 32.59L77.88 32.67L77.79 32.58Q77.90 34.93 76.11 36.15L76.20 36.24L76.28 36.33Q74.75 37.34 72.23 37.38L72.24 37.38L72.10 37.24Q69.46 37.42 68.02 36.66L68.04 36.69L68.04 36.69Q67.98 36.20 67.90 35.75L67.71 35.56L67.85 35.70Q67.72 35.11 67.84 34.62L67.94 34.72L67.91 34.69Q68.03 32.26 68.03 29.94L68.19 30.10L68.21 30.12Q68.10 24.18 66.58 18.28L66.67 18.37L66.51 18.21Q65.94 18.25 64.53 17.91L64.37 17.74L64.43 17.81Q63.98 16.45 63.53 15.54L63.61 15.62L63.64 15.65Q60.93 14.88 58.53 13.51L58.51 13.49L58.57 13.54Q63.04 20.98 63.04 29.70L63.08 29.74L63.04 29.70Q63.16 31.46 63.01 33.17L62.91 33.07L62.84 33.01Q62.65 35.44 62.72 36.62L62.73 36.63L62.84 36.74Q62.88 38.57 64.14 39.71L64.29 39.87L64.16 39.73Q65.17 42.23 69.81 42.61L69.91 42.70L69.79 42.59Q71.88 42.73 74.01 42.81L73.97 42.77L74.06 42.85Q79.41 43.03 82.19 42.08L82.16 42.05L82.26 42.15Q83.87 41.28 83.87 39.23L83.86 39.22L83.80 39.16Q83.81 38.03 83.36 35.56Z"/><path fill="#333" d="M101.60 41.03L101.59 41.02L101.48 40.91Q100.12 39.17 98.83 36.09L98.85 36.11L96.86 31.11L96.72 30.98Q95.27 35.12 94.66 36.41L94.50 36.25L94.50 36.25Q93.23 39.36 91.63 41.26L91.46 41.09L91.59 41.23Q91.19 41.21 90.43 41.32L90.47 41.36L90.39 41.28Q90.33 33.80 84.51 27.86L84.63 27.98L84.59 27.94Q82.75 26.02 80.73 24.54L80.75 24.56L80.89 24.70Q82.65 25.16 84.52 25.47L84.59 25.54L84.59 25.55Q90.69 30.54 92.14 36.78L92.01 36.65L91.97 36.61Q92.88 34.79 94.06 31.59L94.04 31.57L94.18 31.70Q95.45 27.87 96.02 26.58L95.99 26.55L97.43 26.58L97.42 26.57Q98.32 28.31 99.50 31.59L99.49 31.57L99.59 31.68Q100.74 35.14 101.38 36.55L101.38 36.54L101.35 36.52Q103.24 30.29 108.72 25.72L108.85 25.86L108.82 25.82Q109.95 25.66 112.69 25.09L112.64 25.04L112.71 25.11Q104.12 31.18 102.94 41.15L102.80 41.01L102.11 40.85L102.13 40.87Q101.90 40.95 101.55 40.98ZM104.51 43.40L106.66 43.69L106.65 43.69Q106.22 42.03 106.22 40.51L106.24 40.53L106.15 40.44Q106.27 37.32 107.68 34.09L107.71 34.12L107.73 34.14Q109.66 29.56 113.77 26.48L113.67 26.38L113.75 26.45Q112.52 26.71 110.66 27.05L110.63 27.02L110.60 27.00Q112.56 25.35 113.86 24.43L113.85 24.42L111.48 25.02L111.51 25.05Q110.24 25.23 108.91 25.39L108.78 25.25L108.83 25.30Q103.63 29.51 101.69 34.54L101.67 34.52L101.78 34.63Q101.08 32.40 99.71 28.14L99.78 28.21L99.77 28.20Q99.44 28.21 99.17 28.21L99.11 28.15L98.53 28.10L98.65 28.21Q98.47 27.85 97.67 26.10L97.72 26.15L95.67 26.15L95.71 26.19Q94.65 28.90 92.55 34.53L92.53 34.51L92.65 34.63Q91.24 30.86 88.16 27.58L88.25 27.68L88.14 27.57Q87.83 27.53 87.53 27.49L87.53 27.49L87.14 27.56L87.09 27.51Q86.17 26.63 84.38 25.03L84.34 24.99L84.48 25.12Q81.23 24.39 79.55 23.89L79.61 23.95L79.56 23.90Q90.26 31.33 89.88 41.65L90.02 41.78L89.92 41.69Q90.13 41.70 90.49 41.66L90.56 41.73L90.49 41.66Q90.78 41.56 90.97 41.56L91.07 41.65L91.13 41.71Q91.03 41.46 91.22 43.56L91.21 43.55L93.14 43.38L93.13 43.37Q95.72 40.56 97.97 34.81L98.09 34.93L97.96 34.80Q99.50 38.70 101.37 41.37L101.33 41.33L101.41 41.41Q101.61 41.26 101.87 41.28L101.84 41.25L101.98 41.39Q102.23 41.39 102.50 41.39L102.53 41.43L104.52 43.41Z"/><path fill="#222" d="M52.17 40.93L52.20 40.96L52.09 40.85Q50.95 39.33 49.66 36.25L49.64 36.24L47.52 31.10L47.55 31.14Q45.86 35.04 45.25 36.33L45.33 36.41L45.25 36.33Q43.79 39.26 42.19 41.16L42.17 41.14L42.16 41.13Q41.84 41.18 41.07 41.30L41.10 41.32L41.09 41.31Q40.99 33.79 35.17 27.85L35.23 27.91L35.18 27.86Q33.41 26.02 31.40 24.54L31.55 24.69L31.49 24.64Q33.26 25.11 35.13 25.41L35.22 25.51L35.27 25.55Q41.19 30.37 42.64 36.62L42.65 36.62L42.78 36.76Q43.58 34.82 44.76 31.62L44.86 31.72L44.78 31.64Q46.12 27.88 46.69 26.58L46.78 26.67L48.06 26.54L48.11 26.60Q48.98 28.30 50.16 31.57L50.25 31.66L50.21 31.62Q51.46 35.20 52.11 36.61L52.02 36.52L52.09 36.59Q53.94 30.33 59.43 25.77L59.34 25.68L59.51 25.85Q60.66 25.71 63.40 25.14L63.41 25.14L63.33 25.06Q54.78 31.17 53.60 41.15L53.54 41.09L52.88 40.96L52.88 40.96Q52.62 41.00 52.27 41.04ZM55.23 43.46L57.24 43.60L57.32 43.68Q56.86 42.00 56.86 40.48L56.93 40.55L56.98 40.60Q56.99 37.38 58.40 34.14L58.25 34.00L58.38 34.12Q60.39 29.63 64.50 26.54L64.44 26.48L64.49 26.53Q63.11 26.64 61.25 26.98L61.36 27.09L61.35 27.08Q63.28 25.40 64.58 24.48L64.58 24.49L62.03 24.90L62.06 24.94Q60.85 25.18 59.52 25.33L59.52 25.32L59.58 25.39Q54.37 29.58 52.43 34.61L52.38 34.56L52.32 34.50Q51.77 32.43 50.40 28.16L50.41 28.18L50.41 28.17Q50.10 28.20 49.83 28.20L49.79 28.16L49.25 28.15L49.23 28.13Q49.28 27.99 48.48 26.24L48.33 26.09L46.36 26.18L46.41 26.23Q45.33 28.92 43.24 34.55L43.32 34.63L43.37 34.68Q41.92 30.88 38.84 27.60L38.90 27.66L38.89 27.65Q38.52 27.55 38.21 27.51L38.34 27.64L37.65 27.40L37.79 27.55Q36.85 26.64 35.06 25.04L35.03 25.01L35.03 25.01Q31.92 24.41 30.24 23.92L30.23 23.91L30.23 23.90Q40.94 31.34 40.56 41.66L40.54 41.64L40.59 41.69Q40.89 41.80 41.26 41.76L41.08 41.59L41.21 41.71Q41.50 41.61 41.69 41.61L41.74 41.66L41.68 41.60Q41.70 41.46 41.89 43.56L41.91 43.58L43.90 43.48L43.89 43.46Q46.36 40.52 48.60 34.78L48.72 34.89L48.64 34.81Q50.16 38.69 52.03 41.36L52.00 41.33L52.13 41.46Q52.37 41.36 52.63 41.38L52.66 41.41L52.69 41.43Q52.77 41.27 53.04 41.27L53.05 41.28L55.24 43.47Z"/><path fill="#333" d="M120.58 40.22L120.52 40.16L118.24 33.42L118.17 33.35Q113.74 20.70 107.80 14.30L107.77 14.27L107.79 14.29Q109.93 15.48 112.52 16.09L112.53 16.10L112.43 16.00Q117.63 22.35 121.97 35.10L121.89 35.02L121.87 34.99Q124.93 26.90 125.62 25.30L125.75 25.44L125.59 25.28Q128.00 19.69 130.81 16.38L130.92 16.48L130.87 16.43Q133.02 16.14 135.64 15.27L135.61 15.24L135.48 15.11Q131.06 19.86 128.01 27.09L127.88 26.96L127.93 27.01Q126.58 30.72 122.89 40.24L122.75 40.10L122.93 40.28Q122.35 40.28 121.78 40.24L121.67 40.12L121.76 40.22Q121.11 40.14 120.54 40.18ZM125.48 42.53L125.61 42.65L125.58 42.63Q128.42 32.67 129.98 28.64L129.98 28.64L129.84 28.50Q132.89 20.85 137.30 15.98L137.31 15.98L137.41 16.08Q136.30 16.39 134.21 17.11L134.24 17.13L135.37 15.79L135.44 15.86Q135.85 15.02 136.46 14.37L136.62 14.53L136.52 14.43Q133.67 15.39 130.66 15.96L130.71 16.01L130.72 16.01Q126.43 21.44 122.55 32.89L122.37 32.72L122.41 32.76Q118.82 22.70 115.63 18.32L115.65 18.35L115.59 18.29Q115.23 18.23 114.36 18.08L114.33 18.06L114.27 18.00Q114.04 17.61 112.44 15.55L112.43 15.55L112.49 15.60Q109.64 15.00 106.93 13.59L106.87 13.53L106.91 13.56Q113.52 20.63 117.90 33.42L117.81 33.33L117.80 33.32Q119.12 37.08 120.30 40.66L120.22 40.58L120.21 40.57Q120.60 40.65 121.44 40.54L121.49 40.59L121.42 40.53Q121.76 41.21 122.45 42.54L122.51 42.60L122.41 42.50Q123.37 42.55 124.09 42.62L124.08 42.61L124.13 42.66Q124.76 42.57 125.52 42.57Z"/></svg>