<svg xmlns="http://www.w3.org/2000/svg" width="150" height="50" viewBox="0,0,150,50"><path fill="#333" d="M122.59 20.07L122.56 20.04L122.66 20.14Q118.29 20.07 114.60 19.08L114.68 19.16L114.64 19.12Q116.06 23.59 116.25 28.42L116.43 28.60L116.34 28.52Q116.54 33.32 115.33 37.93L115.23 37.84L115.38 37.98Q118.16 37.34 121.66 37.19L121.71 37.23L121.56 37.08Q125.55 36.96 127.34 34.52L127.34 34.53L127.42 34.61Q128.89 32.50 129.08 28.39L129.02 28.32L128.94 28.25Q129.17 26.65 128.71 24.94L128.57 24.79L128.62 24.84Q127.42 20.18 122.70 20.18ZM110.83 42.23L110.70 42.10L110.83 42.23Q113.70 36.53 113.70 29.83L113.61 29.75L113.58 29.71Q113.72 21.33 109.42 14.32L109.30 14.20L109.39 14.30Q114.61 16.92 122.87 17.11L122.89 17.13L122.89 17.14Q131.70 17.27 132.05 24.42L132.07 24.45L132.13 24.51Q132.16 27.13 132.13 28.58L132.07 28.52L132.04 28.49Q132.08 33.29 131.24 35.46L131.31 35.52L131.31 35.52Q130.76 36.50 130.00 37.34L129.96 37.30L129.97 37.31Q128.67 38.90 126.04 39.39L126.11 39.47L126.01 39.36Q124.53 39.75 121.53 39.98L121.50 39.95L121.48 39.94Q115.34 40.38 110.73 42.13ZM128.59 41.94L128.63 41.99L128.59 41.94Q131.37 41.64 133.01 40.16L133.12 40.26L133.10 40.25Q134.21 38.39 134.18 35.65L134.17 35.65L134.12 35.60Q134.22 34.33 134.07 30.82L134.03 30.79L133.62 26.19L133.76 26.33Q133.58 24.05 132.62 21.96L132.46 21.79L132.51 21.84Q131.97 20.89 131.29 20.24L131.37 20.32L131.34 20.14L131.31 20.11Q129.68 17.22 125.26 16.84L125.33 16.91L125.14 16.72Q122.59 16.72 115.59 16.00L115.47 15.88L115.61 16.02Q112.30 15.53 108.61 13.51L108.54 13.44L108.50 13.40Q113.50 20.95 113.50 29.71L113.47 29.68L113.36 29.57Q113.42 36.63 110.07 42.80L110.01 42.74L110.01 42.74Q110.79 42.57 112.13 42.08L112.12 42.07L111.98 41.93Q111.68 42.81 110.80 44.30L110.75 44.24L110.78 44.28Q113.82 43.20 117.17 42.70L117.19 42.72L117.25 42.78Q119.32 42.46 122.97 42.34L122.97 42.34L123.04 42.41Q126.91 42.28 128.74 42.09ZM128.68 28.37L128.80 28.48L128.76 28.44Q128.33 36.40 121.63 36.78L121.59 36.74L121.70 36.84Q119.73 36.93 117.67 37.19L117.65 37.17L117.67 37.19Q118.30 33.25 118.30 29.59L118.44 29.74L118.38 29.67Q118.35 25.96 117.63 22.11L117.67 22.15L117.55 22.04Q119.90 22.48 124.58 22.48L124.58 22.47L124.53 22.43Q125.86 22.24 127.50 23.19L127.62 23.31L127.61 23.30Q128.88 25.56 128.72 28.41Z"/><path fill="#222" d="M96.03 19.74L95.97 19.68L95.87 19.58Q93.95 19.75 92.99 19.90L92.99 19.89L93.06 19.96Q91.43 20.20 90.21 20.73L90.21 20.73L90.24 20.76Q86.58 22.05 86.46 26.73L86.62 26.89L86.50 26.76Q86.53 29.54 87.18 32.47L87.07 32.36L87.16 32.45Q88.10 36.55 91.71 37.73L91.61 37.62L91.69 37.71Q93.61 38.29 95.06 38.14L95.00 38.08L95.34 37.97L95.29 37.92Q95.58 38.02 95.77 38.06L95.87 38.15L95.80 38.09Q95.88 38.01 96.03 37.97L95.98 37.93L96.04 37.98Q98.62 37.66 99.99 37.09L100.16 37.27L96.55 33.70L96.54 33.68Q96.79 33.29 97.40 32.68L97.46 32.74L98.46 31.91L98.31 31.76Q100.14 33.82 102.12 35.87L102.20 35.96L102.19 35.95Q104.52 34.12 104.78 28.76L104.70 28.67L104.85 28.82Q104.74 27.73 104.74 26.81L104.85 26.92L104.88 26.95Q104.91 21.31 99.85 20.20L99.81 20.17L99.76 20.12Q98.47 19.81 95.96 19.66ZM108.65 41.65L108.79 41.78L108.72 41.72Q108.08 42.11 106.90 42.98L107.04 43.12L102.50 39.30L102.47 39.27Q100.08 40.58 95.82 40.61L95.83 40.62L95.72 40.52Q89.32 40.78 86.50 38.53L86.52 38.55L86.39 38.42Q84.73 36.76 84.28 33.79L84.19 33.70L84.25 33.77Q84.05 31.97 83.67 28.39L83.63 28.35L83.65 28.37Q83.58 27.58 83.47 25.83L83.53 25.89L83.59 25.95Q83.28 24.23 83.32 23.36L83.45 23.48L83.40 23.44Q83.47 20.35 85.22 18.79L85.34 18.90L85.28 18.85Q86.86 17.57 90.06 17.08L89.94 16.96L89.94 16.96Q92.43 16.60 95.33 16.67L95.34 16.69L95.33 16.67Q102.79 16.75 105.91 19.11L106.03 19.23L105.89 19.09Q108.21 21.37 107.94 26.28L107.82 26.16L107.84 26.18Q107.75 29.93 107.56 31.26L107.50 31.21L107.45 31.15Q106.79 35.63 104.47 37.96L104.47 37.96L104.55 38.04Q106.01 39.27 108.75 41.75ZM103.88 17.46L103.88 17.46L103.84 17.42Q101.87 16.75 95.36 16.25L95.32 16.21L95.27 16.16Q94.03 16.33 91.25 16.44L91.26 16.45L91.14 16.33Q86.95 16.60 84.71 18.58L84.76 18.63L84.73 18.60Q83.13 20.12 83.13 23.28L82.99 23.14L83.04 23.19Q83.02 24.01 83.17 25.72L83.23 25.79L83.29 25.84Q83.35 27.46 83.35 28.33L83.32 28.30L83.37 28.36Q83.50 30.09 83.88 33.67L83.95 33.74L83.95 33.73Q84.32 36.62 85.92 38.68L85.83 38.59L85.80 38.55Q86.15 39.39 87.36 40.54L87.48 40.65L87.38 40.55Q90.22 42.67 95.40 42.94L95.41 42.95L95.27 42.81Q95.66 42.85 98.06 42.97L97.98 42.90L98.03 42.94Q102.92 43.19 105.21 42.12L105.16 42.08L105.23 42.15Q105.99 42.71 110.71 46.29L110.81 46.39L110.80 46.38Q111.34 45.78 112.63 44.79L112.70 44.86L112.67 44.83Q111.83 44.18 111.03 43.49L111.03 43.50L109.27 41.92L109.48 41.98L109.50 42.00Q108.90 41.51 107.68 40.49L107.69 40.49L107.61 40.42Q109.52 37.91 109.52 33.38L109.61 33.47L109.58 33.44Q109.56 33.00 109.60 32.17L109.53 32.09L109.48 32.04Q109.52 31.21 109.52 30.79L109.68 30.95L109.60 30.87Q109.67 25.42 108.95 23.06L108.88 22.99L108.96 23.07Q108.58 21.78 107.71 20.72L107.52 20.53L107.56 20.57Q106.73 18.41 103.80 17.38ZM97.95 22.11L97.78 21.95L97.95 22.12Q101.94 21.95 103.77 23.55L103.84 23.62L103.70 23.48Q104.35 24.79 104.47 26.12L104.40 26.05L104.46 26.11Q104.46 27.29 104.38 28.66L104.43 28.71L104.54 28.82Q104.07 33.64 102.13 35.35L102.21 35.43L102.23 35.45Q100.89 34.12 98.38 31.38L98.27 31.26L98.29 31.29Q97.49 32.00 95.92 33.56L96.03 33.67L96.05 33.69Q96.58 34.26 97.72 35.44L97.67 35.38L97.56 35.39L97.69 35.52Q98.25 36.05 99.28 37.11L99.29 37.12L99.31 37.14Q98.18 37.26 95.85 37.57L95.94 37.65L95.47 37.71L95.00 37.67L95.07 37.77L95.05 37.76Q91.55 37.71 89.57 36.08L89.51 36.02L89.45 35.96Q88.41 33.85 88.45 30.73L88.48 30.76L88.52 30.81Q88.75 22.16 97.92 22.08Z"/><path fill="#333" d="M13.59 38.98L13.50 38.88L13.62 39.01Q15.39 36.51 20.15 29.24L20.10 29.19L20.23 29.32Q24.31 23.16 27.16 19.88L27.18 19.90L27.12 19.83Q24.96 20.08 22.86 20.08L22.87 20.09L22.84 20.05Q17.67 20.13 13.67 18.34L13.62 18.30L13.72 18.39Q12.95 16.36 12.26 14.80L12.31 14.85L12.35 14.89Q16.95 17.09 22.62 17.20L22.62 17.20L22.45 17.04Q27.70 17.22 32.88 15.32L32.95 15.39L32.81 15.25Q32.47 16.12 32.16 16.92L32.10 16.86L31.56 18.49L31.59 18.52Q28.45 22.08 24.45 27.91L24.58 28.03L21.14 32.74L21.20 32.81Q19.56 35.27 17.73 37.56L17.77 37.59L17.70 37.52Q20.93 36.83 24.24 36.91L24.40 37.06L24.39 37.06Q27.68 37.11 30.84 38.02L30.85 38.04L31.35 39.64L31.34 39.63Q31.54 40.40 31.88 41.24L31.82 41.18L31.91 41.27Q27.19 39.63 22.06 39.82L22.04 39.81L21.99 39.76Q16.96 40.06 12.47 42.08L12.55 42.16L12.52 42.12Q12.79 40.95 13.52 38.90ZM11.92 42.82L11.90 42.80L11.92 42.82Q13.17 42.25 13.97 41.98L13.99 42.00L13.90 41.91Q13.65 42.69 12.96 44.21L13.02 44.27L12.94 44.18Q18.56 41.96 24.53 42.19L24.65 42.30L24.65 42.31Q30.94 42.51 35.97 45.29L36.00 45.32L36.07 45.39Q34.60 42.93 33.80 40.76L33.72 40.68L33.78 40.74Q33.34 40.57 31.82 40.00L31.68 39.85L31.78 39.96Q31.48 39.08 31.06 37.60L31.14 37.68L31.10 37.64Q26.94 36.45 21.84 36.64L21.89 36.69L21.93 36.73Q24.10 34.03 27.64 28.47L27.53 28.36L27.48 28.31Q31.22 22.68 33.12 20.13L33.13 20.14L33.04 20.05Q33.66 18.77 34.69 16.06L34.55 15.92L34.74 16.11Q33.87 16.28 32.43 16.88L32.45 16.91L32.50 16.95Q32.75 16.07 33.48 14.55L33.51 14.58L33.51 14.58Q28.16 16.70 22.45 16.62L22.55 16.71L22.55 16.72Q16.62 16.65 11.67 14.14L11.61 14.07L11.65 14.12Q12.80 16.48 13.52 18.73L13.57 18.77L13.38 18.58Q14.59 19.22 15.38 19.45L15.36 19.42L15.36 19.42Q15.58 20.06 15.85 21.51L15.93 21.59L15.86 21.53Q19.64 22.64 24.51 22.44L24.54 22.47L24.51 22.44Q22.16 25.69 18.85 30.68L18.74 30.57L13.19 38.87L13.26 38.95Q12.99 40.32 11.97 42.87Z"/><path fill="#333" d="M47.26 30.35L47.31 30.40L47.43 30.52Q43.79 36.70 40.36 40.66L40.48 40.78L40.51 40.81Q38.49 41.08 36.06 41.95L36.11 42.01L36.20 42.10Q41.09 36.48 45.85 28.06L45.81 28.02L45.70 27.92Q41.13 20.98 35.15 14.59L35.13 14.56L35.31 14.74Q38.10 15.83 40.39 16.32L40.51 16.44L40.38 16.31Q45.00 21.50 47.43 25.46L47.60 25.62L47.56 25.59Q49.97 21.07 53.89 16.65L53.84 16.60L54.02 16.78Q55.62 16.48 58.82 15.72L58.68 15.58L58.82 15.72Q52.59 22.01 49.13 27.95L49.22 28.05L49.20 28.03Q54.30 36.62 58.67 41.19L58.78 41.30L58.77 41.29Q56.23 40.54 54.14 40.31L54.09 40.26L54.14 40.31Q51.31 37.30 47.39 30.48ZM54.04 40.63L54.06 40.65L53.91 40.50Q54.38 40.71 54.84 40.82L54.78 40.77L54.68 40.67Q55.47 41.42 57.00 43.02L57.02 43.05L57.00 43.02Q60.46 43.94 63.51 45.31L63.39 45.19L63.48 45.28Q56.32 38.65 51.22 29.90L51.21 29.88L51.18 29.86Q54.89 23.17 60.79 16.32L60.79 16.32L60.85 16.38Q59.35 16.97 57.18 17.51L57.27 17.60L57.18 17.51Q58.10 16.64 59.85 14.85L59.81 14.81L59.94 14.94Q57.38 15.65 53.69 16.22L53.81 16.35L53.70 16.23Q50.32 20.09 47.73 24.39L47.86 24.51L47.76 24.41Q46.79 22.77 45.61 21.28L45.72 21.39L43.34 18.36L43.06 18.46L43.06 18.46Q42.92 18.47 42.69 18.40L42.67 18.38L42.57 18.28Q42.00 17.55 40.52 15.99L40.40 15.88L40.50 15.97Q36.71 15.12 34.12 13.75L34.00 13.63L34.06 13.69Q40.86 21.02 45.43 28.07L45.31 27.94L45.29 27.92Q40.90 36.21 35.15 42.79L35.15 42.80L35.07 42.72Q36.54 42.21 38.67 41.63L38.54 41.50L37.21 42.92L37.24 42.95Q37.39 43.09 36.06 44.42L35.94 44.31L35.96 44.32Q38.91 43.20 42.07 42.71L42.23 42.87L42.08 42.72Q46.08 38.20 48.67 33.44L48.64 33.41L48.72 33.49Q51.27 37.71 53.98 40.57Z"/><path fill="#222" d="M70.21 28.55L70.20 28.55L70.27 28.61Q67.39 28.55 66.62 30.80L66.67 30.84L66.69 30.86Q66.43 31.55 66.32 32.20L66.44 32.33L66.37 32.25Q68.89 32.38 70.53 32.38L70.64 32.49L70.55 32.40Q72.30 32.52 74.89 32.40L74.80 32.31L74.93 32.44Q74.69 30.60 73.28 29.53L73.30 29.56L73.35 29.60Q72.01 28.57 70.22 28.57ZM70.26 41.10L70.31 41.14L70.34 41.17Q66.19 41.25 64.90 39.85L64.79 39.73L64.92 39.87Q63.80 38.25 63.65 34.97L63.73 35.06L63.79 35.12Q63.65 34.75 63.57 33.38L63.61 33.42L63.57 33.38Q63.53 31.17 63.53 30.45L63.41 30.32L63.49 30.40Q63.48 28.53 64.21 27.43L64.23 27.45L64.24 27.46Q65.62 26.02 68.59 26.02L68.62 26.06L70.16 26.03L70.18 26.05Q72.12 25.93 73.64 26.24L73.68 26.28L73.81 26.41Q75.89 26.89 76.88 28.11L76.80 28.02L76.70 27.93Q77.50 29.19 77.58 31.28L77.57 31.27L77.57 31.27Q77.45 32.30 77.49 34.47L77.52 34.50L77.46 34.44Q74.66 34.53 71.88 34.53L71.97 34.61L66.20 34.44L66.28 34.52Q66.38 38.89 70.46 38.66L70.44 38.65L70.51 38.71Q74.30 38.55 75.52 36.72L75.57 36.77L75.44 36.64Q76.28 37.14 77.88 38.32L77.93 38.37L77.92 38.36Q76.59 40.80 72.44 41.07L72.44 41.07L72.50 41.13Q71.79 41.18 70.42 41.25ZM72.71 43.58L72.65 43.52L72.67 43.54Q73.74 43.47 74.96 43.55L75.03 43.62L75.04 43.63Q79.86 43.65 80.77 40.87L80.76 40.86L80.88 40.98Q79.21 39.69 78.11 38.93L78.23 39.05L78.15 38.97Q78.33 38.58 78.52 38.35L78.52 38.35L78.45 38.28Q77.78 37.88 76.41 36.93L76.42 36.94L76.31 36.83Q77.49 36.98 79.55 37.28L79.47 37.21L79.46 37.20Q79.35 35.91 79.27 35.22L79.23 35.18L79.05 33.21L79.09 33.25Q78.90 30.85 78.26 29.37L78.33 29.44L78.38 29.49Q78.08 29.12 77.51 28.51L77.60 28.60L77.59 28.59Q77.37 28.22 77.15 27.65L77.16 27.66L77.09 27.59Q75.27 25.62 70.21 25.62L70.17 25.59L68.46 25.55L68.58 25.67Q65.18 25.51 63.74 26.99L63.86 27.12L63.85 27.11Q63.10 28.15 63.14 30.21L63.13 30.20L63.16 30.23Q63.29 31.27 63.40 33.51L63.41 33.52L63.40 33.51Q63.43 35.07 63.55 37.12L63.62 37.20L63.60 37.17Q63.74 39.29 64.61 40.36L64.67 40.42L64.60 40.34Q64.83 40.58 65.02 40.69L64.92 40.59L65.34 41.36L65.30 41.31Q66.15 43.23 72.74 43.61ZM70.56 38.35L70.53 38.32L70.59 38.38Q69.43 38.47 68.52 38.02L68.48 37.98L68.53 38.03Q68.31 37.47 68.12 36.78L68.29 36.96L68.14 36.80Q69.80 36.67 71.40 36.67L71.49 36.77L71.56 36.84Q73.23 36.83 74.90 36.94L74.85 36.89L74.92 36.96Q73.45 38.12 70.45 38.24ZM72.24 31.04L72.10 30.90L72.18 30.98Q72.74 30.94 74.07 31.32L74.19 31.43L74.27 31.70L74.43 32.05L74.29 31.91Q73.02 32.13 72.10 32.09L72.11 32.10L72.10 32.08Q69.83 32.06 69.79 32.06L69.78 32.05L69.69 31.95Q70.56 31.15 72.23 31.04Z"/></svg>