<svg xmlns="http://www.w3.org/2000/svg" width="150" height="50" viewBox="0,0,150,50"><path fill="#333" d="M52.20 40.97L52.15 40.92L52.23 40.99Q50.77 39.15 49.48 36.07L49.57 36.17L47.49 31.07L47.42 31.01Q45.78 34.96 45.17 36.26L45.35 36.43L45.22 36.31Q43.86 39.32 42.26 41.22L42.14 41.11L42.23 41.19Q41.91 41.26 41.15 41.37L41.03 41.25L41.16 41.38Q41.12 33.92 35.29 27.98L35.33 28.01L35.23 27.92Q33.40 26.01 31.38 24.52L31.57 24.71L31.50 24.64Q33.38 25.22 35.24 25.53L35.28 25.57L35.14 25.43Q41.23 30.41 42.68 36.66L42.80 36.78L42.67 36.64Q43.54 34.77 44.72 31.57L44.85 31.71L44.85 31.71Q46.15 27.91 46.73 26.62L46.78 26.67L48.03 26.52L48.09 26.57Q48.98 28.31 50.16 31.58L50.08 31.49L50.20 31.62Q51.50 35.24 52.15 36.65L52.21 36.71L52.17 36.67Q54.03 30.42 59.51 25.85L59.43 25.77L59.46 25.80Q60.58 25.62 63.32 25.05L63.41 25.14L63.30 25.03Q54.67 31.06 53.49 41.03L53.48 41.02L52.92 41.00L52.80 40.88Q52.47 40.85 52.12 40.89ZM55.18 43.41L57.33 43.69L57.25 43.62Q56.86 42.01 56.86 40.48L56.88 40.50L56.87 40.49Q56.90 37.28 58.30 34.05L58.27 34.01L58.40 34.14Q60.29 29.52 64.40 26.44L64.44 26.48L64.40 26.44Q63.10 26.62 61.24 26.97L61.34 27.07L61.39 27.12Q63.27 25.38 64.56 24.47L64.56 24.46L62.17 25.04L62.02 24.89Q60.90 25.22 59.57 25.37L59.60 25.41L59.45 25.25Q54.44 29.65 52.50 34.68L52.33 34.51L52.38 34.55Q51.68 32.34 50.31 28.07L50.42 28.18L50.40 28.17Q50.10 28.21 49.84 28.21L49.89 28.26L49.31 28.22L49.29 28.19Q49.18 27.89 48.38 26.14L48.33 26.09L46.37 26.19L46.34 26.15Q45.43 29.02 43.34 34.65L43.18 34.50L43.21 34.52Q42.03 30.98 38.94 27.71L38.83 27.59L38.90 27.66Q38.53 27.56 38.23 27.52L38.31 27.61L37.81 27.56L37.76 27.51Q36.97 26.76 35.18 25.17L35.13 25.11L35.11 25.10Q31.85 24.34 30.17 23.85L30.19 23.87L30.35 24.02Q41.09 31.49 40.71 41.80L40.64 41.74L40.69 41.79Q40.83 41.73 41.19 41.69L41.19 41.70L41.24 41.74Q41.61 41.72 41.80 41.72L41.71 41.63L41.78 41.70Q41.79 41.55 41.98 43.65L41.82 43.49L43.84 43.41L43.75 43.33Q46.43 40.60 48.68 34.85L48.65 34.82L48.66 34.83Q50.07 38.61 51.94 41.27L52.11 41.44L52.03 41.36Q52.25 41.24 52.51 41.26L52.62 41.37L52.62 41.37Q52.85 41.35 53.12 41.35L53.12 41.35L55.13 43.36Z"/><path fill="#444" d="M21.86 19.69L21.84 19.66L20.21 19.71L20.16 19.66Q18.03 19.89 17.81 21.91L17.78 21.89L17.75 21.85Q17.65 22.56 17.69 23.55L17.73 23.58L17.83 23.69Q17.76 25.51 19.01 26.85L18.93 26.77L19.00 26.83Q20.32 28.23 22.22 28.08L22.15 28.00L22.10 27.95Q24.31 27.96 25.07 27.04L25.06 27.03L24.95 26.92Q26.05 26.04 26.32 23.80L26.36 23.84L26.25 23.73Q26.61 21.57 25.35 20.73L25.27 20.66L25.31 20.69Q24.40 19.86 21.74 19.56ZM27.91 28.93L27.79 28.81L26.58 31.18L26.67 31.26Q23.81 35.91 20.04 39.98L20.06 40.00L20.02 39.96Q18.56 40.29 15.86 41.09L15.71 40.94L15.81 41.04Q21.07 34.69 24.23 29.89L24.17 29.83L24.34 30.01Q23.25 30.59 21.61 30.66L21.60 30.65L21.54 30.59Q18.54 30.75 17.01 28.77L16.96 28.71L17.11 28.86Q15.87 27.24 14.77 22.68L14.82 22.72L14.79 22.70Q14.64 22.09 14.49 21.16L14.57 21.24L14.68 21.35Q14.33 20.23 14.33 19.77L14.39 19.82L14.38 19.81Q14.34 17.98 15.40 17.38L15.42 17.39L15.58 17.55Q16.79 16.79 18.66 16.79L18.56 16.68L18.65 16.78Q21.83 16.76 21.83 16.76L21.83 16.76L21.78 16.71Q23.94 16.73 25.19 16.92L25.11 16.84L25.18 16.91Q27.40 17.27 28.32 17.76L28.19 17.64L28.23 17.68Q29.68 18.52 29.87 20.27L29.81 20.20L29.83 20.23Q29.86 20.49 29.67 23.15L29.53 23.01L29.62 23.10Q29.14 25.13 28.91 25.97L29.06 26.12L29.08 26.14Q28.57 27.42 27.81 28.83ZM29.76 31.28L29.85 31.37L29.74 31.25Q30.75 29.07 31.28 24.76L31.29 24.77L31.22 24.70Q31.63 22.63 31.59 21.76L31.61 21.78L31.58 21.75Q31.43 19.78 30.25 18.86L30.31 18.91L29.90 18.70L30.03 18.83Q29.82 18.12 28.91 17.48L28.87 17.44L28.81 17.38Q26.63 16.49 21.83 16.34L21.82 16.33L21.80 16.31Q20.71 16.17 18.27 16.17L18.42 16.32L18.32 16.22Q16.63 16.28 15.15 16.97L15.17 16.99L15.11 16.93Q13.88 17.64 13.95 19.46L13.99 19.50L13.99 19.50Q14.29 20.53 14.48 22.55L14.51 22.58L14.44 22.50Q15.08 25.16 15.35 26.00L15.29 25.94L15.21 25.86Q15.90 27.85 16.85 29.14L16.87 29.16L16.77 29.06Q17.16 29.53 17.54 29.91L17.52 29.88L17.43 29.79Q17.66 30.21 18.30 31.12L18.29 31.11L18.40 31.22Q19.86 32.56 21.80 32.75L21.78 32.73L21.89 32.85Q19.94 35.46 18.38 37.36L18.25 37.24L14.77 41.75L14.72 41.70Q17.03 41.00 18.66 40.66L18.64 40.63L18.63 40.63Q17.77 41.40 16.21 43.12L16.39 43.30L16.30 43.21Q19.38 42.29 22.50 42.25L22.57 42.32L22.50 42.25Q24.83 39.66 29.17 32.43L29.13 32.40L29.25 32.59L29.25 32.59Q29.38 31.73 29.72 31.24ZM23.83 22.10L23.77 22.04L23.77 22.05Q24.27 21.83 24.73 21.94L24.89 22.10L24.76 21.98Q25.38 22.06 25.76 22.17L25.94 22.36L25.83 22.24Q25.88 22.56 25.95 22.98L26.04 23.07L25.99 23.01Q26.06 23.43 25.95 23.81L25.97 23.83L26.05 23.91Q25.97 25.58 24.79 26.69L24.73 26.62L24.83 26.72Q23.90 27.77 22.26 27.73L22.25 27.72L22.25 27.72Q21.74 27.63 20.22 27.33L20.15 27.26L20.21 27.32Q20.05 26.52 20.05 25.79L20.02 25.76L20.10 25.84Q20.04 25.59 20.04 25.36L19.99 25.31L20.01 25.33Q19.94 23.05 22.22 22.25L22.33 22.36L22.33 22.36Q22.99 22.10 23.83 22.10Z"/><path fill="#444" d="M126.21 40.98L126.23 40.99L126.16 40.92Q124.81 39.19 123.51 36.11L123.65 36.24L121.51 31.10L121.41 31.00Q119.92 35.11 119.32 36.40L119.31 36.39L119.29 36.38Q117.77 39.23 116.17 41.14L116.15 41.12L116.16 41.12Q115.82 41.16 115.05 41.28L115.09 41.31L115.12 41.34Q115.05 33.84 109.22 27.91L109.26 27.94L109.33 28.02Q107.44 26.05 105.42 24.57L105.42 24.56L105.49 24.63Q107.43 25.28 109.30 25.58L109.24 25.53L109.17 25.46Q115.28 30.47 116.73 36.71L116.70 36.67L116.64 36.62Q117.66 34.90 118.84 31.70L118.75 31.61L118.90 31.76Q120.16 27.92 120.73 26.63L120.70 26.59L122.03 26.52L122.19 26.67Q123.00 28.32 124.18 31.60L124.13 31.54L124.12 31.54Q125.42 35.16 126.07 36.56L126.03 36.52L126.06 36.56Q128.03 30.42 133.52 25.86L133.45 25.79L133.41 25.75Q134.54 25.59 137.28 25.02L137.31 25.05L137.31 25.04Q128.61 31.00 127.43 40.98L127.48 41.02L126.85 40.93L126.86 40.94Q126.61 40.99 126.26 41.03ZM129.10 43.33L131.25 43.61L131.17 43.53Q130.90 42.05 130.90 40.53L130.85 40.47L130.93 40.55Q130.94 37.33 132.35 34.09L132.36 34.10L132.39 34.13Q134.40 29.63 138.51 26.55L138.40 26.44L138.49 26.53Q137.21 26.74 135.35 27.08L135.25 26.98L135.36 27.09Q137.25 25.37 138.55 24.45L138.61 24.51L136.08 24.95L136.14 25.01Q134.88 25.20 133.54 25.35L133.50 25.31L133.50 25.30Q128.45 29.66 126.51 34.69L126.47 34.65L126.49 34.66Q125.76 32.41 124.39 28.15L124.35 28.11L124.46 28.22Q124.01 28.12 123.75 28.12L123.76 28.13L123.24 28.14L123.25 28.15Q123.25 27.96 122.45 26.21L122.41 26.17L120.36 26.17L120.27 26.09Q119.40 28.98 117.30 34.61L117.37 34.68L117.32 34.63Q115.89 30.84 112.80 27.57L112.88 27.64L112.88 27.64Q112.50 27.53 112.20 27.49L112.28 27.58L111.63 27.39L111.80 27.56Q110.84 26.63 109.05 25.03L109.02 25.00L109.11 25.09Q105.87 24.36 104.19 23.87L104.20 23.88L104.30 23.97Q115.03 31.43 114.65 41.75L114.69 41.78L114.62 41.72Q114.76 41.67 115.12 41.63L115.20 41.71L115.16 41.67Q115.49 41.60 115.68 41.60L115.66 41.58L115.75 41.67Q115.67 41.43 115.86 43.53L115.93 43.59L117.86 43.44L117.93 43.50Q120.42 40.58 122.66 34.83L122.61 34.79L122.65 34.83Q124.10 38.63 125.96 41.30L126.12 41.46L126.11 41.45Q126.26 41.25 126.53 41.27L126.68 41.42L126.70 41.44Q126.94 41.44 127.21 41.44L127.14 41.37L129.13 43.36Z"/><path fill="#222" d="M72.97 29.84L73.14 30.00L72.96 29.82Q70.47 29.74 69.14 30.95L69.23 31.05L69.08 30.89Q67.80 32.17 68.11 34.68L68.19 34.76L68.12 34.69Q68.53 37.31 69.75 38.57L69.69 38.51L69.58 38.40Q70.74 39.82 72.87 39.75L72.94 39.81L72.81 39.69Q73.41 39.72 73.60 39.72L73.55 39.66L73.57 39.68Q77.12 39.09 77.24 34.48L77.30 34.54L77.31 34.56Q77.45 32.25 76.76 31.45L76.68 31.37L76.60 31.29Q75.69 30.15 73.13 30.00ZM76.37 41.64L76.45 41.72L76.44 41.72Q75.03 42.21 73.47 42.13L73.48 42.14L73.55 42.22Q69.68 42.38 68.39 39.79L68.28 39.68L68.42 39.82Q68.21 45.13 66.88 49.40L66.75 49.27L66.90 49.42Q65.11 49.92 63.47 50.64L63.48 50.64L63.40 50.56Q65.90 44.53 65.63 37.57L65.76 37.70L65.79 37.73Q65.56 30.91 62.67 24.86L62.60 24.80L62.64 24.83Q64.47 25.90 66.19 26.36L66.23 26.41L66.77 27.90L66.70 27.83Q66.90 28.26 67.17 29.36L67.15 29.34L67.08 29.28Q68.07 27.18 71.65 26.99L71.63 26.97L71.68 27.02Q72.63 27.06 73.50 27.06L73.53 27.08L74.06 27.12L73.87 26.92Q74.01 26.95 74.20 26.99L74.36 27.15L74.51 27.00L74.65 27.13Q76.60 27.29 77.32 27.52L77.41 27.61L77.35 27.55Q78.86 28.03 79.74 28.99L79.74 28.99L79.78 29.03Q80.62 30.21 80.58 31.62L80.63 31.67L80.51 31.55Q80.53 34.43 79.73 37.09L79.74 37.09L79.83 37.18Q78.76 40.65 76.40 41.68ZM80.62 42.24L80.62 42.20L80.72 42.30Q81.66 40.16 81.97 36.05L82.05 36.13L81.95 36.03Q82.18 34.36 82.18 33.11L82.27 33.20L82.19 33.12Q82.23 31.63 81.47 30.23L81.50 30.25L81.41 30.17Q80.98 29.69 80.48 29.31L80.57 29.40L80.45 29.17L80.08 28.69L80.08 28.56L80.15 28.63Q78.41 26.59 74.07 26.59L74.09 26.61L73.54 26.67L73.42 26.55Q68.73 26.51 67.10 28.11L67.27 28.28L67.18 28.19Q67.02 27.69 66.87 27.19L66.83 27.15L66.61 26.13L66.53 26.06Q64.03 25.43 61.82 23.94L61.85 23.96L61.87 23.99Q65.03 30.20 65.34 37.43L65.51 37.60L65.43 37.52Q65.76 44.82 62.90 51.29L62.81 51.19L64.78 50.31L64.90 50.43Q64.59 51.11 63.91 52.67L63.87 52.64L64.00 52.77Q66.65 51.64 68.97 51.30L69.03 51.36L69.01 51.34Q70.11 46.50 70.26 42.77L70.23 42.74L70.19 42.70Q71.52 44.11 75.14 44.34L75.13 44.33L75.22 44.41Q79.12 44.62 80.57 42.19L80.64 42.26ZM74.97 32.17L75.05 32.25L74.97 32.17Q75.54 32.03 76.65 32.37L76.64 32.36L76.77 32.49Q77.04 33.48 77.00 34.66L77.00 34.67L76.84 34.50Q77.01 35.59 76.82 36.24L76.66 36.07L76.67 36.09Q76.08 39.11 73.57 39.42L73.57 39.42L73.55 39.28L73.58 39.32Q73.63 39.44 73.51 39.47L73.47 39.44L72.88 39.38L72.87 39.37Q71.63 39.30 70.64 38.81L70.64 38.81L70.32 36.77L70.43 36.88Q70.30 34.59 71.60 33.56L71.60 33.56L71.59 33.56Q72.59 32.46 74.99 32.20Z"/><path fill="#111" d="M92.46 40.34L92.38 40.26L92.55 40.43Q91.01 40.38 89.45 39.96L89.57 40.08L89.45 39.96Q88.33 39.14 88.18 37.51L88.03 37.35L88.17 37.50Q88.15 37.32 88.34 34.70L88.21 34.57L88.34 34.69Q89.21 34.35 91.22 33.97L91.26 34.00L91.06 34.76L91.16 34.85Q90.95 36.66 92.36 37.23L92.31 37.18L92.35 37.22Q92.97 37.39 95.07 37.39L95.09 37.42L95.12 37.44Q96.81 37.38 97.00 37.31L97.01 37.32L96.96 37.26Q97.82 37.06 98.55 36.57L98.53 36.55L98.59 36.61Q100.06 35.72 99.87 33.63L99.90 33.66L99.75 33.50Q99.68 31.19 97.94 29.63L97.97 29.65L97.79 29.47Q96.10 27.95 93.62 27.95L93.69 28.01L93.61 27.71L93.68 27.78Q93.98 27.66 94.86 27.59L94.90 27.63L94.87 27.60Q96.91 27.62 98.28 26.38L98.26 26.36L98.24 26.35Q99.62 25.11 99.77 23.25L99.74 23.21L99.78 23.25Q99.87 22.93 99.87 22.59L99.81 22.52L99.75 22.46Q99.83 21.03 98.46 20.11L98.43 20.08L98.46 20.11Q97.22 19.29 95.62 19.40L95.56 19.35L95.69 19.47Q94.39 19.31 93.17 19.73L93.14 19.70L93.11 19.67Q91.70 20.24 91.39 21.38L91.29 21.28L91.30 21.29Q91.20 22.14 91.28 22.91L91.30 22.92L91.23 22.85Q90.16 22.58 88.10 21.86L88.26 22.01L88.07 21.83Q87.95 20.26 87.99 19.42L87.99 19.42L87.94 19.37Q88.04 17.84 89.11 17.15L89.22 17.27L89.09 17.14Q90.50 16.53 92.10 16.53L92.19 16.62L92.11 16.54Q95.28 16.51 98.44 16.78L98.42 16.76L98.56 16.90Q103.49 17.18 103.18 20.95L103.16 20.92L103.31 21.08Q103.13 22.46 102.64 24.02L102.59 23.98L102.68 24.07Q101.71 27.09 99.35 28.01L99.33 27.98L99.37 28.03Q102.06 28.62 102.67 31.97L102.72 32.02L102.54 31.84Q102.81 33.03 102.89 35.05L102.84 35.00L102.90 35.05Q103.09 39.55 98.48 40.00L98.56 40.08L98.55 40.07Q97.70 40.02 92.41 40.29ZM97.72 42.63L97.62 42.53L97.76 42.68Q98.35 42.69 101.21 42.77L101.14 42.70L101.09 42.65Q102.95 42.84 104.59 42.19L104.46 42.06L104.58 42.18Q105.72 41.19 105.53 39.44L105.46 39.37L105.59 39.50Q105.35 38.04 105.05 36.29L105.06 36.30L105.09 36.34Q104.39 31.87 102.45 30.23L102.53 30.31L102.16 29.75L102.26 29.81L102.13 29.68Q103.92 28.27 104.68 23.90L104.81 24.03L104.76 23.97Q104.75 23.47 104.87 22.52L104.80 22.45L104.86 22.51Q105.03 21.85 104.95 21.16L104.91 21.12L104.89 21.10Q104.67 19.36 103.38 18.67L103.37 18.66L103.34 18.71L103.39 18.76Q103.06 17.75 101.92 17.21L101.93 17.23L101.85 17.15Q100.32 16.45 95.18 16.14L95.17 16.14L95.27 16.23Q93.64 16.20 92.04 16.20L91.91 16.07L91.97 16.13Q90.46 16.22 88.94 16.87L88.82 16.75L88.84 16.78Q87.67 17.59 87.67 19.34L87.62 19.28L87.71 19.37Q87.67 18.92 87.94 22.27L87.98 22.31L87.97 22.30Q88.21 22.31 89.85 22.92L89.87 22.95L89.81 22.88Q89.75 23.35 89.71 23.85L89.87 24.01L89.71 23.85Q89.84 24.47 89.88 25.00L89.86 24.99L89.93 25.06Q91.56 25.28 93.58 25.40L93.67 25.49L93.74 25.56Q93.55 23.43 94.66 22.59L94.67 22.60L94.69 22.62Q95.54 21.98 97.55 21.76L97.47 21.67L97.58 21.78Q98.75 21.81 99.32 22.00L99.27 21.94L99.27 21.95Q99.18 21.94 99.22 22.05L99.24 22.07L99.39 22.41L99.43 22.91L99.35 22.83Q99.48 23.15 99.44 23.30L99.36 23.22L99.46 23.32Q99.23 24.88 97.71 26.06L97.77 26.12L97.87 26.22Q96.86 27.04 94.85 27.23L94.89 27.27L94.79 27.18Q94.12 27.38 93.24 27.38L93.18 27.31L93.27 27.41Q93.37 27.81 93.52 28.49L93.49 28.47L93.44 28.41Q95.25 28.47 96.69 29.19L96.59 29.09L96.44 29.06L94.99 29.36L94.94 29.31Q95.11 29.78 95.22 30.39L95.05 30.22L95.10 30.26Q97.22 30.18 98.93 31.51L99.00 31.58L99.01 31.59Q99.14 31.87 99.45 33.51L99.42 33.48L99.52 33.59Q99.64 36.44 96.71 36.86L96.67 36.82L96.75 36.90Q94.59 37.10 94.02 37.06L94.10 37.14L94.06 37.11Q93.67 37.06 93.13 36.98L93.02 36.87L93.07 36.45L93.28 36.10L93.34 35.74L93.32 35.38L93.26 35.32Q92.27 35.35 91.47 35.54L91.45 35.52L91.47 35.54Q91.48 35.36 91.48 35.17L91.41 35.10L91.48 35.17Q91.53 35.00 91.53 34.77L91.64 34.88L91.46 34.70Q91.65 34.43 91.80 33.71L91.68 33.59L91.80 33.70Q89.84 33.84 87.98 34.18L87.99 34.20L88.00 34.21Q88.01 34.71 87.89 35.83L87.87 35.81L87.97 35.91Q87.76 36.93 87.76 37.54L87.70 37.49L87.77 37.56Q87.87 39.63 89.24 40.39L89.15 40.30L89.13 40.28Q90.64 42.60 95.36 42.40L95.48 42.52L95.40 42.44Q96.19 42.47 97.71 42.62Z"/></svg>