<svg xmlns="http://www.w3.org/2000/svg" width="150" height="50" viewBox="0,0,150,50"><path fill="#444" d="M48.35 27.69L48.41 27.75L48.37 27.71Q44.81 27.58 43.71 30.93L43.76 30.98L43.76 30.98Q43.36 32.03 43.24 33.09L43.39 33.24L43.22 33.07Q43.13 35.22 44.12 36.55L44.00 36.44L44.11 36.54Q45.45 37.74 47.93 37.78L47.78 37.63L47.78 37.63Q49.74 37.80 51.15 36.66L51.05 36.56L51.07 36.58Q52.44 35.39 52.44 33.61L52.50 33.67L52.51 33.67Q52.56 33.39 52.49 33.01L52.39 32.91L52.50 33.02Q52.29 27.90 48.49 27.83ZM48.25 40.15L48.30 40.21L48.33 40.23Q44.48 40.42 42.69 38.40L42.60 38.31L42.77 38.48Q42.44 39.41 41.99 40.78L41.92 40.71L42.07 40.86Q40.07 41.57 38.81 42.14L38.84 42.16L38.85 42.17Q40.99 36.16 40.99 29.65L41.07 29.74L40.88 29.55Q41.01 21.38 37.59 13.54L37.62 13.57L37.63 13.58Q39.82 14.78 41.15 15.24L41.21 15.30L41.24 15.32Q43.29 21.91 43.44 27.73L43.36 27.65L43.43 27.72Q44.84 25.02 48.57 25.05L48.60 25.09L48.58 25.07Q51.91 25.20 53.39 27.06L53.29 26.96L53.46 27.13Q55.12 29.24 55.27 32.82L55.30 32.85L55.38 32.93Q55.50 34.16 55.43 35.76L55.35 35.68L55.36 35.69Q55.29 37.11 54.42 38.25L54.42 38.25L54.48 38.32Q52.57 39.87 48.23 40.13ZM53.77 42.70L53.82 42.75L53.79 42.72Q55.35 42.80 56.84 42.12L56.85 42.13L56.86 42.14Q57.85 40.73 57.89 38.79L57.91 38.81L57.82 38.72Q58.01 38.42 57.86 37.24L57.83 37.21L57.85 37.23Q57.78 36.55 57.67 35.64L57.66 35.63L57.51 35.48Q56.79 30.80 55.23 28.74L55.20 28.71L55.24 28.75Q55.22 28.70 54.43 27.83L54.29 27.69L54.35 27.75Q54.25 27.61 53.71 26.81L53.62 26.71L53.62 26.72Q52.09 24.85 48.74 24.89L48.72 24.86L48.71 24.85Q46.60 24.84 45.35 25.45L45.35 25.45L45.41 25.52Q45.09 21.00 44.48 17.81L44.42 17.74L44.42 17.74Q43.67 17.56 42.18 17.18L42.12 17.12L42.19 17.19Q42.07 16.46 41.61 15.02L41.63 15.03L41.55 14.96Q39.11 14.14 36.86 12.58L36.90 12.62L36.98 12.71Q40.74 20.88 40.74 29.68L40.70 29.64L40.76 29.70Q40.72 36.62 38.25 42.83L38.12 42.70L38.26 42.84Q38.95 42.51 40.29 41.94L40.22 41.87L40.25 41.90Q40.07 42.71 39.46 44.23L39.41 44.18L39.40 44.17Q41.31 43.19 44.09 42.65L44.07 42.64L44.57 40.93L44.55 40.91Q46.87 42.62 53.80 42.74ZM50.06 30.08L49.96 29.98L49.99 30.02Q51.09 30.08 51.62 30.47L51.59 30.44L51.55 30.39Q51.87 30.91 52.10 32.92L52.09 32.91L52.05 32.87Q52.35 34.85 51.10 36.17L51.10 36.17L51.11 36.18Q49.86 37.50 47.92 37.39L47.96 37.43L47.86 37.33Q47.03 37.57 45.55 37.07L45.45 36.97L45.45 36.97Q45.24 36.49 45.24 35.96L45.29 36.01L45.20 35.93Q45.23 32.87 46.80 31.27L46.82 31.30L46.76 31.28L46.67 31.19Q48.31 30.01 50.06 30.09Z"/><path fill="#222" d="M19.63 26.78L19.59 26.73L19.72 26.87Q21.47 26.98 23.30 26.98L23.32 27.00L23.23 26.91Q25.00 26.89 26.82 26.74L26.90 26.82L26.97 26.88Q26.78 27.46 26.78 28.18L26.73 28.13L26.77 29.50L26.84 29.57Q24.46 29.56 19.70 29.67L19.68 29.64L19.67 29.63Q19.63 35.53 18.49 40.52L18.61 40.65L18.61 40.64Q16.41 41.34 14.93 42.14L14.77 41.98L14.87 42.08Q17.11 35.19 16.85 28.07L16.85 28.08L16.90 28.13Q16.67 21.00 14.01 14.34L13.97 14.30L14.02 14.35Q17.65 16.84 22.41 17.07L22.38 17.04L22.52 17.18Q27.03 17.19 31.18 15.44L31.26 15.53L31.24 15.51Q31.02 16.39 30.79 17.19L30.82 17.22L30.24 18.73L30.14 18.63Q27.50 19.80 24.53 19.96L24.49 19.91L24.53 19.96Q21.63 20.13 18.77 19.41L18.86 19.50L18.68 19.32Q19.55 22.89 19.74 26.89ZM31.87 14.80L31.89 14.82L31.80 14.74Q27.22 16.89 22.34 16.59L22.31 16.55L22.35 16.59Q16.97 16.23 13.24 13.38L13.38 13.53L13.29 13.44Q16.20 20.42 16.51 28.03L16.62 28.14L16.61 28.14Q16.85 35.99 14.34 42.76L14.38 42.81L14.27 42.70Q14.97 42.33 16.34 41.68L16.31 41.66L16.39 41.74Q16.18 42.47 15.61 44.00L15.51 43.90L15.70 44.09Q17.83 42.83 20.72 42.34L20.87 42.48L20.80 42.41Q21.51 37.64 21.70 31.93L21.61 31.84L21.57 31.81Q23.34 31.75 25.17 31.75L25.28 31.86L25.32 31.89Q26.97 31.76 28.80 31.95L28.81 31.96L28.94 32.09Q28.79 31.11 28.79 30.19L28.73 30.13L28.78 28.27L28.65 28.15Q27.96 28.34 27.13 28.34L27.09 28.30L27.04 28.25Q27.17 27.50 27.25 26.47L27.19 26.42L27.21 26.43Q25.79 26.59 24.39 26.59L24.41 26.61L24.39 26.59Q23.05 26.66 21.68 26.62L21.71 26.65L21.63 24.44L21.66 24.47Q21.54 23.29 21.43 22.22L21.47 22.26L21.46 22.25Q22.37 22.24 23.36 22.24L23.32 22.21L23.48 22.37Q28.26 22.39 31.87 20.48L31.80 20.41L31.78 20.39Q32.36 18.64 33.27 16.02L33.19 15.93L33.28 16.03Q31.91 16.79 31.11 17.13L31.00 17.02L31.08 17.10Q31.34 16.33 31.84 14.77Z"/><path fill="#222" d="M73.55 32.19L64.20 22.07L64.23 22.10Q65.07 25.80 65.07 29.53L65.06 29.52L65.10 29.55Q65.15 35.58 63.09 41.14L63.04 41.09L63.05 41.10Q61.96 41.34 59.72 42.10L59.74 42.13L59.80 42.19Q62.64 36.42 62.64 29.72L62.66 29.74L62.60 29.68Q62.58 21.03 58.09 13.60L58.17 13.68L58.01 13.52Q58.53 13.78 59.22 14.20L59.22 14.20L59.12 14.09Q71.19 25.29 79.03 34.54L79.07 34.58L79.18 34.69Q78.88 32.26 78.88 29.82L78.75 29.69L78.87 29.81Q78.90 22.61 81.42 16.41L81.30 16.29L81.26 16.25Q83.59 15.73 85.19 15.04L85.27 15.12L85.18 15.03Q81.97 21.30 81.67 28.46L81.57 28.36L81.56 28.35Q81.30 35.75 84.27 41.91L84.39 42.03L84.22 41.86Q83.68 41.82 83.27 41.63L83.25 41.61L83.37 41.74Q78.75 37.73 73.54 32.17L73.48 32.11ZM86.96 45.17L87.01 45.23L86.90 45.12Q87.40 45.31 87.82 45.50L87.77 45.45L88.72 45.91L88.61 45.80Q83.53 38.93 83.53 29.56L83.47 29.50L83.45 29.48Q83.47 22.27 86.78 16.03L86.88 16.12L86.75 16.00Q86.17 16.29 84.76 16.90L84.79 16.93L84.69 16.82Q85.05 15.97 85.89 14.41L85.90 14.42L85.99 14.51Q83.44 15.31 81.01 15.88L81.02 15.90L81.09 15.97Q78.51 22.49 78.51 29.91L78.36 29.76L78.52 29.92Q78.40 31.67 78.59 33.65L78.61 33.66L78.66 33.72Q74.06 28.09 69.30 23.48L69.20 23.38L59.20 13.76L59.17 13.73Q58.59 13.41 57.37 12.84L57.38 12.85L57.41 12.89Q62.19 20.52 62.19 29.61L62.14 29.57L62.13 29.55Q62.17 36.72 59.09 42.73L59.09 42.74L59.16 42.81Q59.49 42.72 61.13 42.11L61.01 41.99L61.15 42.13Q60.83 42.92 60.00 44.40L59.95 44.35L59.97 44.38Q61.22 43.76 64.68 42.96L64.77 43.05L64.63 42.91Q67.02 36.84 67.02 29.65L67.03 29.66L66.97 29.60Q67.00 27.53 66.77 25.40L66.85 25.48L66.87 25.50Q78.41 38.37 87.01 45.22Z"/><path fill="#222" d="M92.39 40.27L92.51 40.39L92.51 40.39Q91.05 40.42 89.49 40.00L89.55 40.06L89.56 40.07Q88.31 39.13 88.16 37.49L88.15 37.48L88.20 37.53Q87.98 37.16 88.17 34.53L88.33 34.69L88.19 34.55Q89.21 34.35 91.23 33.97L91.22 33.96L91.18 34.88L91.07 34.77Q90.77 36.48 92.18 37.05L92.25 37.12L92.25 37.12Q92.98 37.40 95.08 37.40L95.11 37.43L95.16 37.49Q96.68 37.25 96.87 37.17L96.90 37.20L96.93 37.23Q97.86 37.10 98.58 36.60L98.68 36.70L98.51 36.53Q99.99 35.65 99.80 33.56L99.71 33.47L99.86 33.62Q99.65 31.16 97.91 29.60L97.93 29.61L97.92 29.60Q96.13 27.99 93.66 27.99L93.75 28.07L93.59 27.69L93.70 27.80Q94.10 27.78 94.98 27.71L94.92 27.65L94.99 27.72Q96.91 27.62 98.28 26.38L98.30 26.40L98.14 26.24Q99.48 24.98 99.64 23.11L99.70 23.18L99.74 23.22Q99.89 22.95 99.89 22.61L99.81 22.53L99.82 22.54Q99.84 21.04 98.47 20.12L98.53 20.19L98.38 20.03Q97.30 19.37 95.70 19.48L95.66 19.44L95.68 19.46Q94.34 19.27 93.13 19.69L93.06 19.62L93.05 19.61Q91.75 20.29 91.44 21.43L91.30 21.29L91.42 21.41Q91.26 22.20 91.34 22.96L91.31 22.94L91.24 22.86Q90.21 22.63 88.15 21.91L88.22 21.98L88.23 21.99Q88.00 20.31 88.03 19.47L88.05 19.48L87.98 19.41Q88.12 17.92 89.18 17.23L89.12 17.16L89.16 17.21Q90.53 16.56 92.13 16.56L92.06 16.49L92.18 16.61Q95.23 16.46 98.39 16.72L98.55 16.89L98.46 16.80Q103.59 17.28 103.28 21.05L103.33 21.10L103.15 20.92Q103.18 22.51 102.69 24.07L102.65 24.03L102.74 24.13Q101.72 27.11 99.36 28.02L99.30 27.95L99.45 28.11Q102.01 28.57 102.62 31.92L102.72 32.03L102.64 31.94Q102.84 33.06 102.92 35.08L102.87 35.02L102.86 35.02Q103.15 39.61 98.55 40.07L98.57 40.09L98.47 39.99Q97.83 40.15 92.54 40.42ZM97.76 42.67L97.67 42.58L97.60 42.51Q98.23 42.57 101.09 42.65L101.13 42.69L101.20 42.76Q102.94 42.83 104.58 42.18L104.58 42.18L104.45 42.05Q105.62 41.09 105.43 39.34L105.43 39.34L105.53 39.44Q105.44 38.13 105.14 36.38L105.07 36.31L105.17 36.42Q104.42 31.90 102.48 30.26L102.39 30.17L102.25 29.84L102.17 29.73L102.13 29.68Q104.03 28.38 104.79 24.01L104.73 23.94L104.71 23.93Q104.75 23.46 104.86 22.51L104.95 22.60L104.90 22.56Q105.04 21.85 104.96 21.17L104.94 21.15L104.82 21.02Q104.66 19.34 103.36 18.66L103.42 18.72L103.40 18.77L103.37 18.74Q103.08 17.77 101.94 17.23L101.96 17.25L101.81 17.10Q100.30 16.43 95.16 16.13L95.18 16.14L95.23 16.20Q93.61 16.18 92.02 16.18L92.05 16.22L92.03 16.19Q90.29 16.06 88.77 16.70L88.91 16.84L88.79 16.72Q87.68 17.59 87.68 19.34L87.55 19.21L87.55 19.21Q87.70 18.95 87.97 22.30L87.92 22.25L87.98 22.31Q88.15 22.25 89.78 22.86L89.86 22.94L89.80 22.87Q89.87 23.47 89.83 23.97L89.85 23.99L89.75 23.89Q89.82 24.45 89.86 24.98L89.90 25.03L89.83 24.96Q91.56 25.28 93.58 25.40L93.61 25.43L93.56 25.37Q93.58 23.46 94.69 22.62L94.70 22.64L94.74 22.67Q95.61 22.05 97.62 21.82L97.45 21.65L97.56 21.76Q98.72 21.78 99.29 21.97L99.27 21.95L99.16 21.84Q99.21 21.96 99.25 22.08L99.31 22.14L99.38 22.40L99.44 22.91L99.46 22.94Q99.46 23.13 99.42 23.28L99.47 23.33L99.33 23.19Q99.22 24.87 97.70 26.05L97.87 26.23L97.88 26.23Q96.87 27.05 94.86 27.24L94.85 27.23L94.95 27.34Q94.23 27.49 93.35 27.49L93.34 27.47L93.29 27.43Q93.27 27.71 93.42 28.40L93.53 28.51L93.36 28.34Q95.15 28.37 96.60 29.10L96.57 29.08L96.55 29.16L94.94 29.31L94.93 29.29Q95.03 29.70 95.14 30.31L95.20 30.37L95.06 30.22Q97.21 30.16 98.92 31.50L98.93 31.51L98.98 31.55Q99.21 31.94 99.52 33.58L99.44 33.50L99.57 33.63Q99.79 36.59 96.86 37.01L96.69 36.84L96.75 36.91Q94.75 37.27 94.18 37.23L94.15 37.19L94.04 37.09Q93.68 37.07 93.15 36.99L93.16 37.01L93.17 36.56L93.28 36.10L93.16 35.56L93.28 35.34L93.34 35.40Q92.37 35.45 91.57 35.64L91.58 35.65L91.47 35.54Q91.47 35.35 91.47 35.16L91.43 35.12L91.57 35.26Q91.57 35.03 91.57 34.81L91.51 34.75L91.50 34.73Q91.67 34.45 91.82 33.72L91.72 33.62L91.82 33.72Q89.83 33.83 87.97 34.17L88.02 34.23L87.98 34.18Q88.08 34.78 87.96 35.90L87.80 35.74L87.86 35.79Q87.68 36.86 87.68 37.47L87.69 37.48L87.75 37.53Q87.95 39.71 89.32 40.47L89.14 40.29L89.28 40.43Q90.69 42.64 95.41 42.45L95.45 42.49L95.48 42.52Q96.11 42.40 97.64 42.55Z"/><path fill="#222" d="M114.68 49.66L114.66 49.64L114.63 49.61Q117.45 45.65 120.34 39.45L120.53 39.63L120.38 39.48Q117.38 33.06 111.29 24.99L111.28 24.97L111.30 25.00Q113.14 26.07 115.92 26.72L115.90 26.71L115.93 26.73Q119.37 31.32 121.81 36.53L121.92 36.64L121.83 36.55Q123.99 31.26 127.08 26.84L127.18 26.94L127.16 26.93Q129.40 26.62 131.50 25.82L131.40 25.72L131.39 25.71Q127.93 29.49 124.47 36.91L124.59 37.03L121.72 42.99L121.73 43.00Q120.26 46.10 118.51 48.73L118.53 48.75L118.54 48.75Q116.15 49.15 114.70 49.68ZM120.89 51.03L120.89 51.03L120.80 50.94Q122.60 48.14 124.05 44.86L123.95 44.77L126.71 38.46L126.70 38.46Q130.13 30.35 133.44 26.35L133.59 26.50L133.47 26.38Q132.25 27.18 130.34 27.86L130.38 27.89L131.37 26.45L131.33 26.41Q131.96 25.78 132.57 25.10L132.53 25.06L132.40 24.93Q129.75 26.01 126.90 26.47L126.99 26.57L127.00 26.57Q124.22 30.46 122.28 34.91L122.23 34.87L122.19 34.82Q120.64 31.60 118.86 28.78L118.79 28.71L118.85 28.78Q118.59 28.71 118.23 28.67L118.29 28.73L118.23 28.67Q117.92 28.69 117.73 28.69L117.79 28.75L117.66 28.62Q116.95 27.41 116.00 26.27L116.12 26.39L115.99 26.26Q112.84 25.62 110.10 23.91L110.13 23.94L110.19 24.00Q116.45 32.01 120.14 39.63L120.06 39.54L119.97 39.45Q117.96 44.67 113.88 50.31L113.87 50.29L113.90 50.33Q114.56 49.88 115.36 49.73L115.55 49.92L117.08 49.47L117.01 49.40Q116.44 50.16 115.26 51.80L115.35 51.89L115.29 51.83Q117.58 51.23 120.86 51.00Z"/></svg>