<svg xmlns="http://www.w3.org/2000/svg" width="150" height="50" viewBox="0,0,150,50"><path fill="#222" d="M121.45 30.54L121.26 30.35L121.30 30.39Q117.93 36.84 114.51 40.80L114.47 40.77L114.45 40.74Q112.65 41.23 110.22 42.11L110.19 42.09L110.19 42.08Q115.04 36.42 119.80 28.01L119.70 27.92L119.85 28.07Q115.28 21.13 109.30 14.73L109.20 14.64L109.22 14.66Q112.15 15.87 114.44 16.37L114.46 16.39L114.36 16.29Q119.08 21.59 121.52 25.55L121.52 25.55L121.55 25.57Q123.95 21.05 127.87 16.63L127.98 16.75L127.96 16.72Q129.55 16.40 132.74 15.64L132.73 15.62L132.66 15.56Q126.63 22.05 123.16 27.99L123.09 27.91L123.20 28.03Q128.30 36.63 132.68 41.20L132.65 41.17L132.66 41.18Q130.19 40.50 128.10 40.27L128.04 40.22L128.07 40.25Q125.34 37.32 121.42 30.51ZM127.94 40.53L127.95 40.54L128.03 40.62Q128.38 40.71 128.84 40.82L128.81 40.80L128.76 40.74Q129.62 41.57 131.15 43.17L131.03 43.05L131.16 43.18Q134.40 43.87 137.45 45.24L137.45 45.25L137.43 45.23Q130.30 38.63 125.20 29.87L125.11 29.79L125.21 29.88Q128.87 23.15 134.77 16.30L134.85 16.38L134.93 16.46Q133.37 16.99 131.20 17.53L131.32 17.64L131.33 17.65Q132.08 16.61 133.83 14.82L133.84 14.84L133.96 14.95Q131.45 15.72 127.76 16.29L127.75 16.28L127.87 16.40Q124.29 20.05 121.70 24.35L121.70 24.35L121.82 24.47Q120.79 22.76 119.61 21.27L119.62 21.28L117.32 18.34L117.03 18.44L117.05 18.46Q116.94 18.49 116.71 18.42L116.60 18.30L116.61 18.31Q115.87 17.42 114.39 15.86L114.47 15.95L114.46 15.94Q110.57 14.98 107.98 13.61L108.11 13.74L108.08 13.71Q114.82 20.98 119.39 28.02L119.41 28.04L119.37 28.00Q114.95 36.26 109.20 42.85L109.20 42.84L109.18 42.83Q110.56 42.23 112.69 41.66L112.62 41.58L111.23 42.93L111.23 42.94Q111.21 42.91 109.88 44.25L110.02 44.38L110.03 44.40Q112.96 43.25 116.12 42.76L116.20 42.84L116.06 42.70Q120.17 38.28 122.76 33.52L122.69 33.45L122.76 33.53Q125.28 37.72 127.99 40.58Z"/><path fill="#111" d="M21.81 41.07L21.94 41.20L20.16 41.12L20.23 41.20Q16.86 41.22 15.91 39.08L15.84 39.02L15.87 39.05Q17.04 38.01 18.49 36.91L18.52 36.94L18.46 36.87Q19.06 39.08 21.92 38.92L21.88 38.89L21.97 38.97Q22.69 38.86 23.72 38.63L23.74 38.66L23.74 38.66Q24.62 38.09 24.54 37.14L24.56 37.15L24.46 37.05Q24.40 35.96 22.61 35.28L22.76 35.43L18.88 33.83L18.86 33.81Q16.56 32.50 16.21 28.96L16.28 29.02L16.28 29.02Q15.99 26.79 18.16 26.22L18.17 26.23L18.23 26.29Q19.06 25.94 22.03 25.94L22.02 25.93L22.05 25.97Q27.07 26.11 27.98 28.62L27.82 28.46L27.89 28.53Q27.34 29.16 26.61 29.61L26.55 29.55L25.03 30.39L25.22 30.57Q24.61 28.56 21.37 28.33L21.34 28.30L21.46 28.42Q20.89 28.45 19.86 28.87L19.85 28.87L19.84 28.85Q19.30 29.23 19.30 30.33L19.32 30.35L19.13 30.16Q19.51 31.27 21.34 31.95L21.41 32.02L21.39 32.00Q22.51 32.44 25.17 33.54L25.06 33.43L25.17 33.54Q26.88 34.26 27.07 36.81L27.07 36.81L27.04 36.78Q27.24 37.55 27.16 38.54L27.20 38.57L27.08 38.45Q27.17 39.45 26.60 40.10L26.62 40.13L26.58 40.08Q24.98 41.19 21.93 41.19ZM26.69 43.77L26.73 43.82L26.69 43.77Q27.51 43.71 28.88 43.41L29.00 43.53L29.02 43.55Q29.99 42.77 29.80 41.55L29.87 41.63L29.81 41.57Q29.67 40.93 29.36 39.33L29.33 39.29L29.37 39.34Q28.96 36.53 27.17 35.31L27.07 35.21L27.02 35.16Q26.63 33.89 25.37 33.17L25.32 33.11L25.35 33.14Q23.99 32.62 21.51 31.67L21.61 31.76L21.54 31.70Q21.78 31.32 22.04 31.21L21.94 31.10L22.00 31.16Q22.59 30.69 23.24 30.65L23.25 30.67L23.29 30.71Q23.96 30.54 24.72 30.80L24.76 30.84L24.79 30.94L25.02 31.07L25.18 31.04L25.10 30.99L25.14 31.03Q26.26 31.54 26.45 32.80L26.51 32.86L26.51 32.86Q27.63 31.88 29.53 30.21L29.58 30.26L29.58 30.25Q29.26 29.48 28.27 28.30L28.27 28.30L28.42 28.45Q27.20 25.66 22.10 25.55L22.06 25.52L22.10 25.56Q19.00 25.58 17.02 26.15L16.93 26.06L16.93 26.06Q15.49 26.60 15.72 28.69L15.87 28.85L15.75 28.72Q15.88 29.99 16.79 32.09L16.76 32.06L16.92 32.21Q17.28 33.15 18.31 33.87L18.45 34.01L18.32 33.88Q19.07 35.43 20.37 36.12L20.45 36.20L20.40 36.15Q21.30 36.37 22.25 36.75L22.20 36.69L24.25 37.61L24.23 37.58Q23.79 38.59 21.85 38.48L21.93 38.56L21.82 38.45Q21.50 38.62 20.28 38.31L20.19 38.22L20.22 38.11L20.11 38.22L20.14 38.25Q19.30 37.91 18.65 36.42L18.57 36.34L18.65 36.42Q16.44 37.90 15.33 39.04L15.43 39.14L15.37 39.08Q15.67 39.99 16.70 40.79L16.67 40.76L16.42 40.81L16.48 40.88Q18.00 43.08 22.22 43.46L22.23 43.46L22.13 43.36Q23.44 43.53 26.67 43.76Z"/><path fill="#444" d="M90.05 49.69L89.95 49.59L90.04 49.69Q92.91 45.78 95.80 39.57L95.76 39.53L95.68 39.45Q92.62 32.96 86.53 24.89L86.54 24.90L86.46 24.83Q88.37 25.97 91.15 26.62L91.17 26.64L91.32 26.79Q94.71 31.32 97.15 36.54L97.14 36.53L97.29 36.68Q99.35 31.28 102.43 26.86L102.38 26.81L102.43 26.86Q104.65 26.53 106.74 25.73L106.87 25.85L106.69 25.68Q103.26 29.48 99.80 36.91L99.95 37.06L97.04 42.98L97.06 42.99Q95.64 46.15 93.89 48.77L93.81 48.70L93.94 48.83Q91.45 49.11 90.00 49.65ZM96.11 50.92L96.19 51.00L96.25 51.06Q97.96 48.16 99.40 44.88L99.26 44.74L101.97 38.39L102.06 38.49Q105.60 30.49 108.91 26.49L108.89 26.47L108.89 26.47Q107.50 27.10 105.60 27.78L105.70 27.89L106.71 26.46L106.73 26.47Q107.19 25.68 107.80 25.00L107.80 25.00L107.78 24.98Q105.14 26.07 102.28 26.52L102.23 26.47L102.23 26.47Q99.55 30.45 97.61 34.91L97.68 34.98L97.54 34.83Q96.04 31.66 94.25 28.85L94.15 28.74L94.23 28.82Q94.00 28.79 93.64 28.75L93.56 28.67L93.63 28.74Q93.30 28.73 93.11 28.73L93.09 28.71L93.15 28.78Q92.24 27.36 91.28 26.22L91.29 26.23L91.33 26.26Q88.24 25.69 85.50 23.97L85.56 24.03L85.37 23.85Q91.77 32.00 95.46 39.61L95.37 39.52L95.36 39.51Q93.29 44.67 89.22 50.31L89.16 50.25L89.23 50.32Q89.99 49.98 90.79 49.83L90.70 49.74L92.38 49.43L92.47 49.52Q91.72 50.11 90.54 51.75L90.53 51.74L90.55 51.75Q92.92 51.23 96.19 51.00Z"/><path fill="#444" d="M50.81 30.99L50.67 30.85L50.66 30.84Q50.72 29.38 49.90 28.46L50.01 28.57L49.92 28.48Q49.14 27.60 47.69 27.64L47.65 27.60L47.70 27.65Q45.46 27.81 44.63 29.94L44.62 29.94L44.64 29.96Q44.33 30.72 44.29 31.40L44.18 31.28L44.32 31.43Q44.12 36.29 43.21 40.63L43.15 40.57L43.06 40.49Q41.35 40.98 39.49 41.97L39.52 42.00L39.60 42.09Q41.92 35.16 41.66 27.85L41.52 27.72L41.53 27.73Q41.25 20.36 38.70 13.55L38.79 13.64L38.73 13.57Q40.43 14.82 42.45 15.51L42.54 15.60L42.48 15.54Q43.88 21.28 44.08 27.15L44.26 27.33L44.27 27.34Q45.56 25.17 48.27 25.25L48.37 25.35L48.25 25.23Q53.36 25.36 53.48 30.72L53.47 30.71L53.52 30.76Q53.66 36.47 55.03 41.11L55.01 41.09L54.97 41.05Q53.06 40.16 51.31 39.97L51.37 40.04L51.44 40.11Q50.87 36.80 50.76 30.93ZM50.93 40.24L50.98 40.30L50.98 40.29Q52.14 40.54 53.24 40.81L53.25 40.81L53.17 40.73Q53.16 40.84 53.70 42.82L53.85 42.97L53.80 42.92Q56.80 43.91 58.82 45.35L58.71 45.25L58.84 45.37Q56.06 39.51 55.53 33.19L55.53 33.20L55.52 33.18Q55.20 29.48 53.79 27.92L53.80 27.92L53.71 27.84Q53.83 27.88 53.18 27.42L53.05 27.29L53.11 27.35Q52.89 26.86 52.24 26.10L52.23 26.09L52.21 25.99L52.20 25.99Q51.48 25.26 48.35 24.99L48.29 24.93L48.19 24.83Q47.57 24.93 46.16 25.27L46.19 25.30L46.14 25.25Q45.89 20.35 45.54 17.84L45.64 17.94L45.64 17.94Q44.77 17.71 43.28 17.41L43.42 17.55L43.41 17.54Q43.14 16.70 42.88 15.21L42.93 15.27L42.91 15.25Q39.94 14.25 38.07 12.69L38.01 12.63L38.15 12.77Q41.01 19.82 41.28 27.62L41.38 27.72L41.38 27.72Q41.57 35.41 39.01 42.76L38.94 42.68L39.09 42.84Q39.89 42.11 41.03 41.61L41.09 41.67L40.28 43.87L40.27 43.86Q43.40 42.54 45.38 42.35L45.41 42.37L45.51 42.48Q45.97 36.96 46.17 33.01L46.28 33.12L46.30 33.14Q46.44 31.34 48.38 30.23L48.34 30.19L48.34 30.19Q48.69 29.78 49.22 29.82L49.37 29.97L49.40 29.99Q49.45 29.89 49.79 29.93L49.78 29.92L50.34 30.13L50.26 30.06Q50.30 30.47 50.41 30.93L50.45 30.97L50.44 30.96Q50.62 37.01 51.12 40.43Z"/><path fill="#222" d="M74.03 39.86L73.97 39.79L74.10 39.93Q72.14 39.88 70.13 40.07L70.06 40.00L70.13 40.07Q70.64 34.68 70.64 29.84L70.69 29.89L70.79 30.00Q70.77 25.06 70.12 19.85L70.09 19.82L70.16 19.88Q65.57 19.48 62.37 17.81L62.27 17.70L61.61 16.02L61.54 15.95Q61.32 15.42 60.71 14.20L60.80 14.30L60.75 14.24Q65.76 16.85 71.77 17.04L71.75 17.02L71.91 17.18Q77.71 17.27 83.15 15.21L83.20 15.26L83.10 15.16Q82.52 16.71 81.87 18.53L81.78 18.45L81.84 18.51Q78.20 19.78 73.94 19.97L74.02 20.06L73.98 20.01Q73.73 24.98 73.73 29.93L73.69 29.88L73.62 29.82Q73.68 34.82 73.98 39.81ZM83.85 14.54L83.93 14.62L83.78 14.47Q77.95 16.75 71.74 16.56L71.79 16.60L71.80 16.62Q65.05 16.34 59.95 13.37L60.11 13.52L60.13 13.55Q60.87 14.82 62.16 18.09L62.09 18.02L62.04 17.97Q62.73 18.32 63.99 18.89L64.10 19.00L63.92 18.83Q64.37 19.73 64.71 21.25L64.58 21.12L64.68 21.22Q66.86 21.96 69.91 22.19L69.99 22.27L69.89 22.16Q70.25 25.84 70.25 29.60L70.39 29.75L70.34 29.70Q70.25 34.97 69.45 40.34L69.53 40.42L69.45 40.34Q71.22 40.32 71.75 40.32L71.83 40.40L71.73 40.30Q71.72 40.60 71.67 41.26L71.75 41.35L71.74 41.34Q71.60 41.92 71.60 42.26L71.68 42.34L71.62 42.29Q72.83 42.23 74.35 42.31L74.29 42.25L74.41 42.37Q75.27 42.35 77.09 42.50L77.14 42.54L77.05 42.46Q75.83 37.55 75.72 32.37L75.83 32.48L75.65 32.31Q75.50 26.97 76.03 22.06L76.08 22.11L76.21 22.24Q79.98 21.52 83.14 20.30L83.24 20.41L83.29 20.45Q84.01 18.09 85.04 16.03L85.00 16.00L84.88 15.88Q83.63 16.64 82.83 16.94L82.85 16.97L82.80 16.91Q83.32 15.73 83.89 14.58Z"/></svg>