<svg xmlns="http://www.w3.org/2000/svg" width="150" height="50" viewBox="0,0,150,50"><path fill="#222" d="M20.78 40.01L20.60 39.84L20.67 39.90Q16.44 39.29 14.61 37.84L14.72 37.96L14.60 37.83Q12.88 36.49 12.46 33.49L12.51 33.53L12.39 33.41Q12.42 33.10 12.08 28.34L12.12 28.38L12.11 28.37Q12.08 27.13 12.01 25.87L12.03 25.90L12.02 25.89Q11.94 20.94 14.15 19.19L13.99 19.03L14.04 19.07Q16.64 16.92 24.41 16.23L24.58 16.40L24.48 16.31Q25.91 16.25 27.54 16.28L27.56 16.30L27.54 16.28Q27.41 16.15 30.38 16.15L30.47 16.24L30.49 16.26Q31.29 16.22 33.00 16.37L32.93 16.30L33.04 16.42Q32.43 17.25 31.40 20.33L31.37 20.30L31.51 20.44Q29.38 19.18 26.37 19.18L26.39 19.21L26.33 19.14Q25.65 19.23 24.85 19.30L24.89 19.34L24.70 19.15Q19.70 19.71 17.18 21.69L17.14 21.64L17.21 21.72Q15.12 23.24 14.97 26.59L14.96 26.58L14.95 26.57Q15.05 27.32 15.09 28.58L14.96 28.44L15.10 28.59Q15.15 33.35 17.54 35.45L17.60 35.50L17.48 35.38Q19.65 37.33 24.64 37.63L24.69 37.68L24.68 37.67Q27.71 37.73 30.72 35.94L30.86 36.08L30.79 36.01Q31.44 38.80 32.05 40.17L32.11 40.23L32.09 40.20Q29.87 40.35 28.24 40.32L28.30 40.37L28.38 40.46Q23.72 40.21 20.60 39.83ZM35.80 43.65L35.84 43.69L35.88 43.73Q34.11 40.75 33.43 38.16L33.31 38.04L33.31 38.04Q32.91 38.33 31.92 38.71L31.92 38.70L31.89 38.68Q31.64 37.97 31.45 37.14L31.46 37.14L30.93 35.27L31.00 35.35Q27.79 37.47 24.67 37.36L24.54 37.23L24.59 37.28Q20.26 37.02 17.94 35.27L17.98 35.31L18.09 35.42Q16.91 33.56 16.99 30.63L16.88 30.51L16.87 30.51Q17.19 26.19 19.67 24.06L19.54 23.93L19.54 23.92Q21.63 21.98 26.31 21.37L26.44 21.50L26.44 21.50Q27.12 21.27 27.85 21.27L27.98 21.40L28.01 21.43Q30.67 21.32 32.77 22.84L32.77 22.85L32.73 22.80Q33.25 20.70 34.47 17.46L34.54 17.54L34.49 17.49Q34.20 17.46 33.65 17.41L33.72 17.47L33.68 17.44Q33.10 17.35 32.84 17.35L32.77 17.29L32.92 17.43Q33.00 16.79 33.45 15.80L33.48 15.82L33.52 15.87Q33.24 15.81 30.74 15.73L30.78 15.77L30.77 15.76Q28.31 15.72 27.67 15.76L27.60 15.69L27.56 15.65Q17.09 16.03 13.63 18.62L13.61 18.61L13.72 18.72Q11.71 20.56 11.71 24.48L11.74 24.50L11.71 24.47Q11.62 25.48 11.73 28.19L11.80 28.25L11.75 28.21Q11.97 31.85 12.20 33.56L12.10 33.47L12.22 33.59Q12.47 36.58 14.07 38.10L14.15 38.18L14.06 38.10Q14.52 38.74 15.77 39.88L15.87 39.98L15.84 39.95Q19.20 41.83 24.46 42.59L24.36 42.49L24.34 42.47Q30.78 43.43 35.77 43.62Z"/><path fill="#333" d="M92.97 19.32L93.02 19.37L93.04 19.39Q93.91 23.65 94.06 27.23L94.07 27.24L93.93 27.10Q95.16 27.30 96.22 27.30L96.10 27.17L98.32 27.19L98.29 27.15Q99.32 27.12 100.19 25.71L100.30 25.81L100.32 25.83Q101.06 24.67 101.17 23.49L101.11 23.43L101.10 23.42Q101.54 20.47 97.31 19.97L97.33 19.99L97.34 20.00Q95.73 20.02 93.10 19.45ZM94.12 30.03L94.03 29.94L94.02 29.93Q93.92 36.11 92.78 40.53L92.76 40.51L92.92 40.67Q91.40 41.01 89.07 42.08L89.00 42.00L89.04 42.04Q91.44 35.41 91.17 28.14L91.05 28.03L91.22 28.20Q90.80 20.69 88.02 14.26L88.13 14.37L87.97 14.20Q92.29 17.16 98.53 17.16L98.50 17.12L98.46 17.09Q104.59 17.16 104.74 20.62L104.75 20.63L104.68 20.57Q104.70 22.94 103.71 25.61L103.78 25.68L103.80 25.70Q103.30 26.72 102.35 27.94L102.30 27.89L102.31 27.90Q101.12 29.64 98.57 29.91L98.58 29.92L98.62 29.96Q96.30 29.92 94.05 29.96ZM100.25 32.28L100.26 32.29L100.19 32.21Q104.39 32.49 105.64 27.70L105.56 27.62L105.60 27.65Q106.45 23.89 106.29 21.87L106.34 21.92L106.34 21.92Q106.24 20.41 105.48 19.42L105.46 19.40L105.58 19.53Q105.23 19.17 104.74 18.94L104.69 18.90L104.62 18.83Q104.62 18.68 104.01 17.92L104.09 17.99L104.04 17.94Q102.45 16.59 98.49 16.59L98.61 16.70L98.50 16.59Q91.62 16.60 87.40 13.44L87.41 13.46L87.51 13.56Q90.61 20.58 90.88 28.04L90.80 27.97L90.76 27.92Q91.23 35.78 88.56 42.86L88.49 42.79L88.56 42.86Q89.52 42.11 90.51 41.72L90.52 41.74L90.09 42.82L90.18 42.91Q89.88 43.38 89.61 43.95L89.74 44.07L89.79 44.12Q92.22 43.09 95.11 42.56L95.11 42.55L95.01 42.45Q95.87 36.95 95.94 32.23L95.85 32.14L95.90 32.19Q97.10 32.21 98.09 32.21L98.06 32.18L98.02 32.14Q99.44 32.23 100.24 32.27ZM99.17 22.21L99.27 22.31L99.23 22.27Q99.61 22.16 100.60 22.39L100.74 22.53L100.69 22.48Q100.72 22.62 100.76 22.92L100.80 22.97L100.80 22.96Q100.86 23.26 100.79 23.52L100.78 23.52L100.87 23.60Q100.72 24.78 99.99 25.66L99.98 25.65L100.02 25.68Q99.33 26.63 98.30 26.82L98.42 26.94L98.36 26.88Q97.68 26.92 96.04 26.92L95.96 26.84L96.00 26.89Q95.91 24.54 95.68 22.18L95.80 22.30L97.41 22.24L97.40 22.23Q98.27 22.26 99.15 22.19Z"/><path fill="#222" d="M117.67 30.68L117.65 30.66L117.68 30.69Q117.62 30.63 121.01 30.59L120.97 30.56L120.96 30.54Q123.27 30.57 124.33 30.61L124.32 30.59L124.27 30.55Q123.38 27.82 120.94 22.19L120.83 22.08L120.81 22.06Q120.36 23.58 119.31 26.44L119.25 26.38L119.33 26.46Q118.19 29.22 117.62 30.63ZM125.56 33.20L125.43 33.07L125.43 33.07Q123.16 33.05 120.95 33.09L120.99 33.13L120.88 33.01Q118.72 33.14 116.44 33.34L116.52 33.41L116.43 33.33Q115.01 36.85 111.78 41.04L111.67 40.93L111.64 40.91Q109.01 41.47 107.64 41.97L107.78 42.12L107.65 41.98Q112.84 36.40 117.52 23.04L117.47 22.98L117.52 23.04Q118.77 19.60 120.14 16.36L120.22 16.45L120.12 16.34Q120.41 16.33 120.76 16.33L120.82 16.40L121.47 16.32L121.47 16.32Q122.22 17.68 127.05 29.33L127.07 29.35L127.12 29.39Q130.46 37.31 134.46 41.46L134.39 41.39L134.28 41.27Q133.78 41.16 129.90 40.28L130.01 40.40L129.99 40.38Q127.38 37.20 125.40 33.05ZM129.88 40.69L129.85 40.65L130.56 40.86L130.47 40.77Q130.78 40.86 131.08 40.97L131.14 41.03L131.15 41.04Q131.32 41.25 133.15 43.27L133.19 43.31L133.33 43.45Q136.76 44.13 139.15 45.16L139.16 45.16L139.28 45.29Q133.81 40.76 129.81 32.77L129.71 32.67L129.74 32.70Q128.07 29.36 126.62 25.40L126.75 25.53L123.88 17.89L124.00 18.01Q123.71 18.06 123.48 18.06L123.43 18.02L122.95 18.07L122.98 18.10Q122.61 17.42 121.89 16.05L121.82 15.99L121.75 15.91Q121.22 15.92 120.76 15.88L120.85 15.97L120.78 15.89Q120.35 15.89 119.82 15.89L119.78 15.85L119.94 16.01Q118.44 19.84 114.56 30.01L114.56 30.01L114.60 30.05Q111.39 37.91 106.74 42.71L106.80 42.76L106.82 42.78Q107.87 42.39 109.89 41.78L109.81 41.71L109.76 41.65Q109.14 42.67 107.58 44.46L107.45 44.33L107.46 44.34Q109.28 43.80 113.20 43.04L113.17 43.00L113.11 42.95Q116.51 38.58 118.07 35.35L118.09 35.36L118.06 35.33Q119.96 35.37 122.28 35.40L122.26 35.39L122.24 35.37Q125.03 35.45 126.40 35.53L126.33 35.46L126.34 35.47Q127.63 37.86 129.99 40.79ZM122.14 25.98L122.12 25.95L122.28 26.12Q123.08 28.13 123.84 30.22L123.78 30.17L120.45 30.15L120.46 30.16Q121.16 28.84 122.23 26.06Z"/><path fill="#333" d="M45.38 39.95L45.29 39.86L45.29 39.85Q41.16 39.34 39.33 37.90L39.32 37.88L39.42 37.98Q37.52 36.47 37.11 33.46L37.06 33.41L37.18 33.54Q37.00 33.01 36.65 28.25L36.72 28.32L36.77 28.37Q36.83 27.21 36.76 25.96L36.77 25.97L36.76 25.96Q36.44 20.77 38.65 19.02L38.79 19.16L38.68 19.05Q41.31 16.92 49.07 16.23L49.15 16.30L49.19 16.35Q50.53 16.20 52.17 16.24L52.22 16.30L52.13 16.20Q52.13 16.21 55.10 16.21L55.07 16.18L55.07 16.17Q55.92 16.19 57.63 16.34L57.64 16.34L57.74 16.45Q57.19 17.35 56.16 20.43L56.12 20.38L56.09 20.36Q54.10 19.24 51.09 19.24L51.02 19.17L51.02 19.17Q50.27 19.18 49.47 19.26L49.45 19.24L49.51 19.30Q44.28 19.62 41.77 21.60L41.82 21.65L41.84 21.68Q39.76 23.21 39.61 26.56L39.65 26.61L39.71 26.66Q39.73 27.34 39.77 28.59L39.60 28.42L39.76 28.58Q39.81 33.35 42.20 35.44L42.11 35.35L42.24 35.48Q44.43 37.44 49.42 37.74L49.32 37.65L49.38 37.71Q52.56 37.92 55.57 36.13L55.42 35.98L55.45 36.01Q56.14 38.83 56.75 40.20L56.77 40.22L56.65 40.10Q54.62 40.43 52.98 40.39L52.97 40.39L52.96 40.37Q48.48 40.30 45.35 39.92ZM60.47 43.65L60.38 43.57L60.49 43.67Q58.73 40.70 58.05 38.11L58.01 38.07L57.90 37.97Q57.48 38.23 56.49 38.61L56.65 38.77L56.57 38.69Q56.33 37.99 56.14 37.16L56.12 37.14L55.73 35.41L55.62 35.30Q52.48 37.49 49.36 37.38L49.25 37.27L49.27 37.29Q44.99 37.08 42.67 35.33L42.63 35.30L42.69 35.36Q41.57 33.55 41.65 30.62L41.63 30.60L41.57 30.54Q41.84 26.17 44.32 24.04L44.33 24.05L44.17 23.89Q46.41 22.09 51.09 21.48L51.10 21.50L51.01 21.41Q51.96 21.44 52.69 21.44L52.51 21.27L52.63 21.39Q55.31 21.29 57.40 22.81L57.56 22.96L57.40 22.80Q58.03 20.81 59.25 17.58L59.15 17.47L59.09 17.42Q58.96 17.55 58.41 17.50L58.33 17.42L58.35 17.44Q57.81 17.39 57.54 17.39L57.48 17.33L57.52 17.37Q57.74 16.87 58.20 15.88L58.15 15.83L58.11 15.79Q58.01 15.92 55.51 15.84L55.46 15.79L55.46 15.78Q52.99 15.74 52.35 15.77L52.38 15.81L52.23 15.66Q41.77 16.04 38.30 18.63L38.42 18.75L38.28 18.61Q36.34 20.51 36.34 24.43L36.37 24.46L36.34 24.44Q36.36 25.56 36.48 28.27L36.42 28.21L36.48 28.27Q36.66 31.87 36.89 33.59L36.72 33.42L36.79 33.49Q37.13 36.57 38.73 38.09L38.67 38.04L38.69 38.06Q39.30 38.86 40.56 40.00L40.54 39.98L40.57 40.01Q43.70 41.66 48.95 42.42L49.05 42.52L49.07 42.53Q55.49 43.47 60.47 43.66Z"/><path fill="#444" d="M70.35 28.69L70.28 28.62L70.36 28.71Q67.43 28.59 66.67 30.84L66.64 30.81L66.75 30.92Q66.45 31.58 66.34 32.23L66.38 32.26L66.31 32.19Q68.96 32.45 70.60 32.45L70.57 32.42L70.61 32.46Q72.25 32.46 74.83 32.34L74.79 32.30L74.81 32.32Q74.70 30.61 73.30 29.55L73.26 29.51L73.29 29.54Q71.97 28.53 70.18 28.53ZM70.35 41.19L70.39 41.22L70.31 41.15Q66.19 41.25 64.90 39.85L64.88 39.82L64.79 39.73Q63.85 38.30 63.70 35.03L63.74 35.07L63.65 34.98Q63.66 34.76 63.59 33.39L63.59 33.40L63.56 33.36Q63.50 31.13 63.50 30.41L63.50 30.41L63.58 30.49Q63.51 28.56 64.23 27.45L64.25 27.47L64.26 27.48Q65.57 25.98 68.54 25.98L68.49 25.93L70.23 26.10L70.10 25.97Q72.20 26.02 73.72 26.32L73.65 26.25L73.74 26.34Q75.79 26.79 76.78 28.01L76.76 27.99L76.75 27.98Q77.40 29.09 77.48 31.18L77.59 31.29L77.43 31.14Q77.46 32.30 77.50 34.47L77.44 34.42L77.57 34.55Q74.66 34.53 71.88 34.53L71.88 34.53L66.35 34.60L66.33 34.58Q66.41 38.92 70.49 38.69L70.58 38.79L70.46 38.67Q74.17 38.42 75.39 36.59L75.52 36.72L75.49 36.69Q76.43 37.29 78.03 38.47L77.96 38.40L77.94 38.38Q76.55 40.76 72.40 41.03L72.49 41.12L72.48 41.10Q71.77 41.16 70.40 41.24ZM72.71 43.59L72.75 43.62L72.64 43.51Q73.64 43.37 74.86 43.45L75.04 43.63L74.89 43.48Q79.87 43.66 80.78 40.88L80.91 41.00L80.85 40.95Q79.32 39.80 78.21 39.03L78.07 38.89L78.22 39.04Q78.26 38.51 78.45 38.28L78.39 38.23L78.47 38.30Q77.81 37.91 76.44 36.95L76.33 36.85L76.36 36.88Q77.43 36.92 79.49 37.23L79.54 37.28L79.54 37.28Q79.27 35.83 79.19 35.14L79.35 35.30L79.09 33.25L79.15 33.31Q79.04 30.99 78.39 29.50L78.36 29.48L78.37 29.48Q78.16 29.19 77.58 28.58L77.54 28.54L77.54 28.54Q77.40 28.25 77.17 27.67L77.08 27.59L77.09 27.59Q75.27 25.62 70.20 25.62L70.21 25.62L68.56 25.65L68.56 25.65Q65.22 25.54 63.77 27.03L63.86 27.12L63.70 26.96Q63.10 28.15 63.14 30.20L63.20 30.26L63.22 30.29Q63.20 31.18 63.31 33.42L63.36 33.47L63.35 33.46Q63.37 35.00 63.48 37.06L63.60 37.17L63.60 37.17Q63.84 39.40 64.72 40.46L64.64 40.38L64.58 40.32Q64.83 40.58 65.02 40.69L64.94 40.61L65.36 41.37L65.22 41.23Q66.08 43.16 72.67 43.54ZM70.58 38.37L70.49 38.28L70.44 38.23Q69.41 38.45 68.50 38.00L68.54 38.04L68.48 37.99Q68.32 37.48 68.13 36.79L68.18 36.84L68.25 36.91Q69.86 36.73 71.46 36.73L71.55 36.83L71.56 36.83Q73.09 36.69 74.76 36.80L74.80 36.84L74.84 36.88Q73.51 38.18 70.50 38.29ZM72.16 30.96L72.21 31.01L72.10 30.90Q72.90 31.09 74.23 31.47L74.09 31.34L74.33 31.77L74.36 31.99L74.31 31.93Q73.05 32.16 72.14 32.12L71.98 31.96L72.02 32.00Q69.86 32.09 69.82 32.09L69.82 32.09L69.67 31.94Q70.41 31.01 72.09 30.89Z"/></svg>