<svg xmlns="http://www.w3.org/2000/svg" width="150" height="50" viewBox="0,0,150,50"><path fill="#444" d="M26.32 41.35L26.21 41.24L23.17 41.06L23.23 41.11Q20.73 40.90 19.93 40.78L19.99 40.85L20.10 40.95Q18.29 40.63 17.11 39.75L17.06 39.70L17.05 39.69Q15.67 38.20 15.44 34.85L15.49 34.90L15.42 34.83Q15.54 34.49 15.46 33.27L15.29 33.09L15.34 33.15Q15.45 32.84 15.37 31.73L15.30 31.66L15.39 31.75Q15.23 30.79 15.27 30.07L15.40 30.20L15.24 30.04Q15.40 28.06 16.42 27.30L16.59 27.47L16.50 27.38Q18.43 26.22 23.26 25.99L23.21 25.94L23.25 25.98Q25.40 26.00 26.20 26.00L26.04 25.84L26.10 25.90Q27.61 25.92 28.98 26.23L29.06 26.31L28.98 26.23Q28.34 27.41 27.80 29.24L27.82 29.26L27.94 29.38Q27.33 29.34 26.84 29.30L26.84 29.30L26.93 29.40Q26.77 29.31 26.23 29.19L26.19 29.15L25.28 28.97L25.34 29.02Q24.29 28.78 23.68 28.81L23.68 28.81L23.54 28.67Q18.88 28.80 18.27 31.62L18.22 31.57L18.27 31.62Q18.10 32.87 18.18 33.82L18.04 33.67L18.00 33.64Q18.27 36.34 19.50 37.42L19.56 37.48L19.47 37.39Q20.66 38.43 23.25 38.47L23.25 38.47L23.27 38.49Q24.78 38.55 25.50 38.25L25.55 38.30L26.55 37.77L26.59 37.81Q27.07 37.53 27.64 37.45L27.64 37.46L27.66 37.47Q27.86 39.23 28.24 40.52L28.21 40.50L28.29 40.58Q28.01 40.91 26.22 41.25ZM29.42 44.15L29.45 44.18L29.37 44.10Q29.79 44.17 30.63 44.25L30.72 44.34L30.74 44.36Q31.29 44.30 31.63 43.73L31.63 43.73L31.65 43.75Q30.53 41.75 30.04 39.66L30.02 39.64L29.90 39.52Q29.61 39.53 29.15 39.53L29.12 39.51L29.11 39.49Q28.66 39.47 28.28 39.66L28.27 39.64L28.33 39.71Q28.07 38.53 27.92 37.13L27.95 37.16L27.96 37.16Q27.21 36.94 25.99 37.51L26.13 37.65L25.95 37.47Q24.80 38.12 24.31 38.12L24.38 38.19L24.42 38.23Q23.96 38.26 23.35 38.22L23.32 38.19L23.29 38.16Q22.27 38.02 20.29 37.45L20.29 37.45L20.28 37.44Q20.08 36.86 20.12 35.72L19.98 35.58L20.04 35.64Q20.33 31.51 25.28 30.98L25.11 30.81L25.12 30.82Q25.93 30.94 27.30 31.28L27.26 31.25L27.16 31.15Q28.65 31.61 29.37 31.57L29.27 31.47L29.31 31.51Q29.72 29.25 30.40 27.42L30.54 27.56L30.43 27.45Q30.07 27.36 29.69 27.28L29.60 27.19L28.91 27.18L28.87 27.15Q29.03 26.63 29.41 25.75L29.42 25.76L29.54 25.87Q27.91 25.43 26.35 25.43L26.46 25.53L26.51 25.59Q24.08 25.55 19.70 25.93L19.66 25.90L19.74 25.97Q17.74 26.06 16.17 27.05L16.17 27.05L16.13 27.01Q15.01 28.06 15.01 29.96L14.91 29.86L14.85 29.81Q14.83 30.20 14.94 31.42L15.04 31.52L15.10 31.58Q15.17 32.60 15.13 33.21L15.05 33.12L15.10 33.18Q15.08 35.02 15.80 38.75L15.78 38.73L15.90 38.85Q16.15 39.56 16.65 40.05L16.80 40.20L16.94 40.34L16.93 40.29L16.91 40.28Q17.94 42.41 21.86 43.02L21.99 43.15L22.00 43.16Q25.18 43.67 27.85 43.94L27.65 43.74L27.66 43.75Q28.57 43.94 29.48 44.20Z"/><path fill="#333" d="M72.68 40.20L72.59 40.12L72.62 40.15Q70.82 40.13 69.15 40.70L69.05 40.61L69.22 40.78Q69.65 37.05 69.76 33.93L69.79 33.96L69.70 33.87Q69.95 30.96 69.72 27.31L69.61 27.20L69.61 27.20Q68.18 26.80 67.42 26.41L67.58 26.58L67.03 23.40L67.15 23.52Q67.81 24.06 69.41 24.63L69.46 24.68L69.56 24.78Q69.34 22.66 68.92 19.92L68.91 19.91L68.77 19.77Q71.08 20.48 72.72 20.33L72.79 20.40L72.62 24.95L72.73 25.06Q74.12 24.97 75.46 24.48L75.46 24.48L75.34 24.36Q75.36 25.34 75.13 27.09L75.18 27.13L75.03 26.98Q73.59 27.41 72.57 27.41L72.64 27.48L72.46 27.31Q72.51 29.52 72.51 33.78L72.54 33.82L72.47 33.75Q72.53 37.96 72.61 40.13ZM75.73 23.76L75.75 23.78L75.77 23.80Q75.56 23.97 74.95 24.20L74.84 24.09L75.36 21.44L75.34 21.43Q74.42 21.61 73.01 21.84L73.15 21.98L73.17 22.00Q73.04 21.18 73.19 19.81L73.28 19.90L73.33 19.95Q72.57 19.87 72.00 19.87L71.96 19.84L72.06 19.94Q69.89 19.90 68.25 19.18L68.36 19.28L68.38 19.31Q68.74 21.64 69.00 24.11L68.96 24.07L68.99 24.10Q68.24 23.88 66.72 22.86L66.56 22.70L66.75 22.89Q67.02 24.11 67.24 26.81L67.12 26.69L67.31 26.87Q67.63 26.97 68.81 27.39L68.85 27.43L68.92 27.50Q68.84 28.03 68.88 29.44L68.87 29.43L69.40 29.61L69.50 29.63L69.50 29.64Q69.40 30.72 69.40 31.90L69.53 32.02L69.48 31.98Q69.53 36.98 68.73 41.32L68.76 41.35L68.74 41.33Q68.96 41.24 70.90 40.71L70.87 40.67L70.85 40.65Q70.84 41.29 70.72 42.66L70.73 42.67L70.75 42.69Q71.47 42.53 72.27 42.53L72.41 42.67L72.36 42.63Q74.12 42.67 75.76 43.24L75.58 43.06L75.64 43.13Q74.39 37.50 74.58 29.58L74.61 29.61L76.90 29.12L76.86 29.08Q76.99 28.22 77.06 27.19L77.15 27.28L77.26 25.17L77.34 25.26Q76.69 25.45 75.51 25.91L75.48 25.87L75.57 25.96Q75.81 24.57 75.74 24.22L75.72 24.21L75.83 24.32Q75.70 23.99 75.77 23.80Z"/><path fill="#333" d="M121.97 40.04L122.03 40.11L119.97 40.33L120.00 40.36Q119.47 40.28 118.50 40.34L118.59 40.44L118.42 40.26Q117.51 40.38 117.02 40.38L116.95 40.32L117.02 40.38Q115.33 40.33 114.30 39.49L114.33 39.53L114.32 39.52Q115.23 38.52 116.86 36.39L116.91 36.43L116.91 36.43Q118.14 37.97 120.35 37.74L120.38 37.77L120.21 37.60Q121.19 37.55 121.84 36.90L121.86 36.93L121.83 36.90Q122.53 36.31 122.42 35.43L122.28 35.29L122.44 35.45Q122.18 30.70 122.26 26.13L122.26 26.13L122.28 26.16Q122.43 21.66 122.97 17.06L122.93 17.02L122.85 16.94Q124.81 16.77 126.94 15.74L127.01 15.81L127.04 15.84Q125.19 22.59 125.19 29.83L125.07 29.71L125.22 29.85Q125.05 33.22 125.50 36.73L125.49 36.71L125.62 36.84Q125.56 37.05 125.56 37.39L125.63 37.46L125.58 37.41Q125.62 38.02 125.39 38.56L125.42 38.58L125.44 38.60Q124.77 39.76 121.95 40.02ZM126.93 42.91L127.07 43.05L127.33 42.97L127.67 42.89L127.81 42.65L127.89 42.73Q128.26 42.53 128.34 42.42L128.32 42.39L128.25 42.33Q128.47 41.18 128.21 40.19L128.24 40.23L128.07 40.05Q126.84 34.37 127.11 28.01L127.08 27.99L127.13 28.04Q127.24 21.79 129.03 15.89L129.07 15.93L129.22 16.08Q128.22 16.60 126.97 17.33L126.92 17.28L127.03 17.39Q127.12 16.53 127.54 15.01L127.50 14.97L127.64 15.10Q125.11 16.42 122.45 16.73L122.50 16.78L122.50 16.79Q121.99 21.03 121.92 25.98L121.97 26.04L122.09 26.16Q121.89 31.93 121.96 35.36L122.09 35.48L122.00 35.39Q122.11 37.21 120.35 37.36L120.34 37.35L120.25 37.25Q118.51 37.34 116.83 35.70L116.92 35.79L116.92 35.80Q114.79 38.23 113.84 39.79L113.98 39.94L113.91 39.86Q114.54 40.50 115.57 40.73L115.67 40.82L115.62 40.78Q115.48 40.86 115.21 41.09L115.20 41.08L115.29 41.17Q116.63 42.02 118.61 42.28L118.73 42.40L118.60 42.27Q119.05 42.38 122.35 42.69L122.39 42.73L122.26 42.60Q125.64 42.99 127.01 42.99Z"/><path fill="#333" d="M93.27 29.73L93.16 29.62L93.14 29.60Q93.20 33.92 92.48 38.07L92.48 38.07L92.42 38.01Q94.77 37.55 97.86 37.44L97.77 37.35L97.69 37.27Q99.03 37.47 100.10 36.46L100.13 36.49L100.24 36.61Q101.27 35.56 101.27 34.23L101.32 34.28L101.21 34.16Q101.34 33.99 101.30 33.72L101.19 33.62L101.16 33.58Q101.12 30.77 98.88 29.93L98.75 29.80L98.83 29.88Q98.11 29.62 97.43 29.70L97.38 29.66L97.37 29.64Q96.29 29.55 95.26 29.59L95.24 29.57L95.33 29.66Q94.31 29.74 93.28 29.74ZM91.96 19.20L91.88 19.13L92.06 19.31Q92.93 22.62 93.20 26.99L93.11 26.90L93.09 26.88Q94.54 27.01 97.21 27.04L97.30 27.13L97.18 27.02Q100.08 27.03 100.43 23.49L100.42 23.48L100.40 23.46Q100.70 21.63 99.29 20.79L99.34 20.84L99.23 20.72Q98.35 20.23 93.93 19.58L94.02 19.67L93.86 19.50Q92.86 19.42 91.94 19.19ZM88.24 42.02L88.25 42.03L88.38 42.16Q90.88 35.52 90.61 28.13L90.62 28.14L90.49 28.02Q90.22 20.75 87.29 14.27L87.29 14.27L87.37 14.35Q91.17 16.90 97.40 17.15L97.31 17.06L97.25 17.00Q103.55 17.32 103.89 20.22L103.86 20.18L103.80 20.12Q104.31 23.07 102.90 25.74L102.73 25.56L102.79 25.62Q102.13 27.21 100.53 27.90L100.50 27.86L100.52 27.88Q104.02 28.41 104.25 33.78L104.37 33.90L104.34 33.87Q104.47 35.03 104.40 36.44L104.30 36.35L104.40 36.44Q104.28 37.69 103.35 38.63L103.38 38.66L103.42 38.70Q102.36 39.50 101.03 39.66L101.13 39.76L101.12 39.75Q99.75 39.94 98.68 39.94L98.67 39.92L98.54 39.80Q92.86 39.83 88.33 42.11ZM101.15 42.45L101.11 42.40L101.02 42.31Q102.14 42.56 104.01 42.68L103.87 42.54L104.01 42.68Q105.41 42.71 106.52 41.84L106.50 41.82L106.40 41.71Q107.30 40.90 107.19 39.34L107.16 39.32L107.06 39.22Q107.05 38.33 106.32 34.86L106.32 34.87L106.34 34.88Q105.56 31.55 103.69 30.07L103.76 30.13L103.38 29.34L103.31 29.26Q105.09 27.95 105.66 24.19L105.64 24.17L105.52 24.05Q105.67 22.90 105.59 21.49L105.76 21.67L105.69 21.60Q105.71 20.35 104.60 19.52L104.51 19.42L104.56 19.47Q104.25 19.27 104.13 19.24L104.14 19.24L104.03 19.14Q103.90 18.74 103.06 17.94L102.99 17.87L102.98 17.86Q101.41 16.74 97.18 16.55L97.32 16.69L97.25 16.62Q90.64 16.36 86.64 13.47L86.71 13.54L86.69 13.52Q89.84 20.40 90.15 27.94L90.14 27.93L90.13 27.92Q90.66 35.95 87.84 42.88L87.78 42.82L89.72 41.75L89.83 41.86Q89.44 42.99 88.94 44.13L89.02 44.21L88.94 44.13Q93.30 42.32 98.32 42.32L98.15 42.15L98.17 42.17Q99.57 42.15 101.01 42.31ZM98.93 31.81L98.98 31.86L98.98 31.86Q99.65 31.73 100.56 32.19L100.54 32.16L100.55 32.18Q100.71 32.56 100.86 33.63L100.85 33.62L100.89 33.66Q101.11 35.06 100.18 36.11L100.19 36.12L100.10 36.03Q99.24 37.15 97.84 37.04L97.77 36.97L96.40 37.20L96.35 37.15Q95.49 37.09 94.77 37.21L94.82 37.26L94.86 37.29Q95.18 35.48 95.26 32.02L95.18 31.95L95.18 31.94Q95.78 31.82 97.04 31.78L97.11 31.86L97.18 31.93Q98.36 31.81 98.97 31.85ZM97.95 22.27L97.91 22.22L98.33 22.27L98.25 22.18Q98.53 22.24 98.72 22.28L98.75 22.30L99.15 22.32L99.37 22.35L100.11 22.56L100.02 22.47Q100.16 22.76 100.16 23.07L100.07 22.98L100.18 23.62L100.14 23.58Q100.15 24.85 99.27 25.78L99.27 25.78L99.22 25.73Q98.41 26.72 97.19 26.72L97.18 26.71L97.28 26.81Q96.06 26.62 96.06 26.62L96.22 26.78L96.11 26.67Q94.75 26.60 95.09 26.60L95.21 26.72L95.20 26.71Q95.22 25.24 94.91 22.20L94.88 22.16L94.87 22.16Q96.47 22.31 97.99 22.31Z"/><path fill="#222" d="M48.77 32.07L39.63 22.17L39.66 22.20Q40.40 25.79 40.40 29.52L40.39 29.51L40.49 29.62Q40.48 35.58 38.42 41.14L38.38 41.09L38.35 41.06Q37.31 41.36 35.06 42.12L35.04 42.10L35.05 42.10Q37.96 36.41 37.96 29.71L37.81 29.56L37.86 29.61Q37.89 21.00 33.40 13.58L33.47 13.65L33.47 13.65Q33.80 13.71 34.48 14.13L34.49 14.14L34.47 14.12Q46.66 25.43 54.50 34.68L54.37 34.55L54.52 34.70Q54.15 32.20 54.15 29.76L54.19 29.80L54.10 29.71Q54.12 22.50 56.64 16.29L56.56 16.22L56.56 16.22Q59.02 15.82 60.62 15.14L60.57 15.09L60.50 15.02Q57.22 21.21 56.91 28.37L57.01 28.47L57.03 28.49Q56.63 35.74 59.60 41.91L59.60 41.91L59.57 41.88Q59.03 41.84 58.62 41.65L58.70 41.73L58.70 41.73Q54.13 37.77 48.92 32.22L48.90 32.20ZM62.18 45.06L62.29 45.17L62.26 45.14Q62.64 45.21 63.05 45.40L63.16 45.51L63.99 45.85L64.07 45.92Q58.89 38.96 58.89 29.59L58.82 29.51L58.76 29.45Q58.76 22.23 62.07 15.98L62.21 16.12L62.19 16.10Q61.43 16.21 60.02 16.82L60.13 16.94L60.04 16.84Q60.42 16.01 61.26 14.45L61.27 14.46L61.24 14.43Q58.75 15.29 56.31 15.86L56.36 15.90L56.33 15.88Q53.69 22.33 53.69 29.75L53.71 29.78L53.84 29.90Q53.78 31.72 53.98 33.70L53.91 33.63L53.90 33.62Q49.35 28.04 44.59 23.44L44.52 23.37L34.41 13.64L34.47 13.69Q33.98 13.48 32.77 12.90L32.68 12.82L32.74 12.88Q37.56 20.55 37.56 29.65L37.56 29.65L37.61 29.70Q37.50 36.71 34.42 42.73L34.43 42.75L34.50 42.81Q34.75 42.65 36.39 42.04L36.37 42.01L36.31 41.96Q36.17 42.92 35.34 44.41L35.26 44.34L35.19 44.26Q36.68 43.89 40.15 43.09L39.97 42.92L39.98 42.92Q42.46 36.95 42.46 29.76L42.31 29.60L42.32 29.62Q42.34 27.54 42.11 25.41L42.11 25.41L42.09 25.39Q53.55 38.19 62.16 45.04Z"/></svg>