<svg xmlns="http://www.w3.org/2000/svg" width="150" height="50" viewBox="0,0,150,50"><path fill="#333" d="M119.66 29.78L119.80 29.92L119.76 29.88Q119.52 29.86 119.21 29.86L119.10 29.75L119.26 29.91Q117.80 29.79 116.36 30.63L116.35 30.62L116.44 30.71Q115.08 31.78 115.08 33.69L115.16 33.77L115.01 33.62Q115.08 37.11 116.60 38.44L116.64 38.48L116.56 38.41Q117.53 39.60 119.81 39.60L119.85 39.64L119.81 39.60Q120.16 39.72 120.47 39.72L120.48 39.74L120.39 39.64Q122.02 39.57 123.17 37.93L123.26 38.02L123.20 37.96Q124.25 36.46 124.17 34.67L124.15 34.65L124.16 34.66Q124.21 34.17 124.21 33.75L124.37 33.92L124.27 33.81Q124.34 32.10 122.97 30.94L122.83 30.80L122.84 30.81Q121.59 29.76 119.80 29.91ZM124.16 39.95L124.25 40.04L124.20 39.99Q123.18 41.90 119.44 42.01L119.47 42.04L119.43 42.00Q116.18 42.24 114.58 40.65L114.44 40.51L114.60 40.67Q112.97 38.73 112.17 33.94L112.31 34.08L112.18 33.95Q111.90 32.23 111.90 30.97L112.02 31.09L112.01 31.08Q112.00 29.28 112.73 28.21L112.61 28.09L112.62 28.11Q113.99 26.74 116.96 26.74L117.02 26.79L116.95 26.73Q123.37 26.83 125.27 29.41L125.29 29.43L125.26 29.40Q125.38 28.53 125.80 26.93L125.75 26.89L125.82 26.95Q127.18 26.75 129.62 25.96L129.51 25.85L129.59 25.93Q127.01 31.42 126.78 37.74L126.78 37.74L126.86 37.82Q126.62 43.97 128.76 49.80L128.82 49.87L128.75 49.79Q127.16 49.30 125.37 49.04L125.35 49.03L125.23 48.90Q124.45 45.08 124.34 40.13ZM124.96 49.20L125.01 49.25L124.93 49.17Q125.79 49.46 127.20 49.76L127.21 49.77L127.11 49.68Q127.37 50.43 127.94 51.84L127.85 51.75L127.98 51.88Q130.51 52.55 132.80 53.84L132.88 53.93L132.87 53.92Q128.86 47.36 128.86 38.83L128.78 38.75L128.85 38.82Q128.81 32.42 131.28 26.63L131.17 26.52L131.20 26.54Q130.57 26.91 129.20 27.56L129.11 27.47L129.22 27.58Q129.50 26.75 130.15 25.19L130.20 25.24L130.24 25.28Q128.67 25.80 125.47 26.68L125.33 26.54L125.47 26.68Q125.26 27.15 124.95 28.33L124.96 28.34L125.03 28.41Q122.97 26.46 116.84 26.31L116.79 26.26L116.82 26.29Q113.76 26.36 112.39 27.84L112.26 27.71L112.20 27.64Q111.62 28.97 111.66 30.87L111.49 30.71L111.49 30.71Q111.64 33.75 112.63 37.52L112.63 37.52L112.70 37.59Q113.36 40.00 114.28 40.96L114.19 40.87L114.66 41.34L114.65 41.33Q115.71 43.99 121.16 44.22L121.34 44.40L121.23 44.29Q122.24 44.31 124.06 44.00L124.14 44.08L124.12 44.06Q124.45 47.02 125.06 49.31ZM121.59 32.12L121.60 32.13L121.53 32.06Q122.66 32.14 123.50 32.44L123.49 32.43L123.66 32.60Q123.67 32.95 123.78 33.55L123.85 33.62L123.90 33.68Q123.94 34.17 123.87 34.78L123.85 34.77L123.83 34.74Q123.93 36.75 122.90 38.04L122.85 37.99L122.86 38.00Q121.77 39.50 119.90 39.31L119.89 39.30L119.87 39.28Q118.52 39.22 117.57 38.80L117.57 38.81L117.51 38.75Q117.20 37.98 117.20 36.76L117.22 36.78L117.18 36.74Q117.20 36.46 117.20 36.15L117.15 36.10L117.12 36.07Q117.24 34.44 118.57 33.28L118.56 33.26L118.46 33.17Q119.94 32.16 121.70 32.23Z"/><path fill="#222" d="M72.71 40.23L72.70 40.22L72.67 40.19Q70.88 40.19 69.20 40.76L69.14 40.70L69.05 40.61Q69.57 36.98 69.68 33.85L69.78 33.95L69.70 33.88Q69.91 30.92 69.68 27.26L69.68 27.27L69.70 27.29Q68.32 26.93 67.55 26.55L67.47 26.46L67.14 23.51L67.06 23.43Q67.91 24.17 69.51 24.74L69.44 24.67L69.42 24.65Q69.33 22.65 68.91 19.91L68.80 19.80L68.73 19.73Q71.10 20.50 72.73 20.35L72.70 20.32L72.71 25.05L72.59 24.93Q74.06 24.91 75.39 24.41L75.46 24.48L75.31 24.33Q75.30 25.27 75.07 27.02L75.07 27.02L75.02 26.98Q73.66 27.47 72.63 27.47L72.63 27.48L72.60 27.44Q72.46 29.48 72.46 33.74L72.53 33.80L72.51 33.79Q72.61 38.03 72.68 40.20ZM75.88 23.91L75.74 23.77L75.83 23.86Q75.53 23.94 74.92 24.17L74.85 24.10L75.39 21.48L75.23 21.32Q74.56 21.75 73.15 21.98L73.02 21.85L73.11 21.94Q73.08 21.23 73.23 19.86L73.15 19.77L73.18 19.80Q72.71 20.02 72.14 20.02L72.05 19.93L72.07 19.95Q70.00 20.01 68.37 19.29L68.25 19.18L68.20 19.12Q68.80 21.70 69.06 24.17L69.09 24.20L69.11 24.22Q68.22 23.86 66.70 22.84L66.57 22.71L66.65 22.79Q67.00 24.09 67.23 26.80L67.13 26.70L67.26 26.83Q67.72 27.06 68.90 27.48L68.93 27.50L68.91 27.48Q68.96 28.15 69.00 29.55L68.87 29.42L69.40 29.61L69.41 29.55L69.51 29.65Q69.56 30.88 69.56 32.06L69.40 31.90L69.53 32.02Q69.51 36.95 68.71 41.29L68.77 41.35L68.72 41.30Q68.88 41.16 70.82 40.63L70.87 40.68L70.75 40.56Q70.92 41.38 70.81 42.75L70.81 42.75L70.81 42.75Q71.44 42.50 72.24 42.50L72.42 42.69L72.26 42.52Q73.98 42.53 75.62 43.10L75.59 43.08L75.70 43.18Q74.36 37.47 74.55 29.55L74.54 29.53L76.89 29.11L77.00 29.21Q76.96 28.19 77.04 27.16L77.04 27.16L77.24 25.16L77.31 25.23Q76.70 25.46 75.52 25.91L75.56 25.96L75.49 25.89Q75.82 24.58 75.75 24.24L75.71 24.19L75.76 24.25Q75.76 24.06 75.84 23.87Z"/><path fill="#333" d="M15.63 47.11L15.65 47.12L15.66 47.13Q14.65 47.26 12.74 47.57L12.71 47.54L12.65 47.48Q14.00 45.36 15.03 44.07L15.01 44.05L15.17 44.21Q16.91 44.50 17.06 44.50L17.02 44.46L17.02 44.46Q17.27 44.48 17.80 44.37L17.86 44.42L17.87 44.44Q18.59 44.39 18.78 44.39L18.63 44.25L18.67 44.28Q21.28 44.08 21.21 41.91L21.18 41.88L21.18 41.88Q21.23 40.48 21.11 34.24L20.95 34.07L21.03 34.15Q21.04 30.66 21.12 26.51L21.00 26.39L22.48 26.28L22.41 26.21Q23.05 26.08 23.73 25.85L23.79 25.91L23.73 25.85Q23.56 30.33 23.60 34.70L23.65 34.76L23.52 34.62Q23.59 39.03 24.12 43.41L24.25 43.54L24.25 43.54Q24.16 43.69 24.16 43.95L24.32 44.10L24.27 44.06Q24.16 45.58 22.48 45.96L22.53 46.01L22.59 46.07Q19.40 46.38 15.56 47.03ZM22.44 22.93L20.28 19.78L20.30 19.79Q21.36 18.42 23.18 15.64L23.02 15.47L23.10 15.55Q23.85 16.53 25.18 18.36L25.13 18.31L22.36 22.84ZM25.30 49.38L25.32 49.41L25.35 49.44Q25.99 49.59 26.76 49.25L26.77 49.26L26.75 49.24Q27.02 48.48 27.02 48.02L26.98 47.99L26.98 47.98Q26.93 47.59 26.82 46.98L26.97 47.14L26.86 47.03Q25.48 40.58 25.48 32.67L25.45 32.64L25.46 32.65Q25.57 29.90 25.73 27.01L25.65 26.94L25.72 27.01Q25.09 27.10 23.94 27.40L23.95 27.41L24.02 27.47Q24.02 26.98 24.05 26.44L23.97 26.36L24.19 25.40L24.18 25.39Q22.43 26.00 20.64 26.04L20.76 26.16L20.68 26.07Q20.62 30.40 20.66 33.98L20.57 33.88L20.70 41.74L20.83 41.87Q20.91 43.86 18.74 43.97L18.63 43.86L18.66 43.89Q18.45 43.91 17.94 43.97L17.98 44.01L17.86 43.89Q17.35 43.95 17.09 43.95L17.16 44.03L17.18 44.04Q16.75 44.07 15.19 43.66L15.06 43.53L15.11 43.57Q14.74 44.27 13.64 45.95L13.51 45.82L11.95 48.11L12.11 48.27Q12.85 47.94 14.49 47.56L14.52 47.60L14.09 48.35L13.62 49.05L13.54 48.97Q15.84 48.84 17.17 48.91L17.13 48.87L17.20 48.94Q19.47 49.08 25.41 49.50ZM22.35 23.60L22.29 23.54L22.74 23.11L22.59 22.96Q23.11 23.56 24.06 25.16L23.95 25.04L24.00 25.10Q25.48 21.93 27.04 18.85L27.04 18.85L27.06 18.87Q26.03 17.23 25.08 15.93L25.13 15.99L25.07 15.93Q24.98 16.26 24.64 16.79L24.68 16.83L24.72 16.87Q24.21 16.13 23.22 14.84L23.24 14.85L23.30 14.92Q21.96 16.35 19.64 19.70L19.72 19.79L19.69 19.75Q20.62 20.99 22.33 23.58Z"/><path fill="#333" d="M95.97 40.28L95.94 40.24L93.50 33.35L93.53 33.38Q89.09 20.71 83.15 14.32L83.12 14.29L83.25 14.42Q85.26 15.48 87.85 16.09L87.87 16.11L87.75 15.98Q92.93 22.31 97.27 35.06L97.33 35.12L97.30 35.09Q100.38 27.02 101.06 25.42L101.03 25.39L101.00 25.35Q103.38 19.74 106.20 16.43L106.16 16.39L106.28 16.51Q108.23 16.02 110.86 15.15L110.97 15.27L110.90 15.19Q106.25 19.72 103.20 26.95L103.28 27.03L103.33 27.08Q101.92 30.73 98.23 40.24L98.21 40.23L98.13 40.14Q97.51 40.10 96.94 40.06L97.07 40.20L97.07 40.19Q96.42 40.11 95.85 40.15ZM101.01 42.72L100.83 42.54L100.97 42.68Q103.74 32.66 105.30 28.63L105.21 28.53L105.21 28.54Q108.30 20.93 112.72 16.06L112.60 15.94L112.77 16.11Q111.64 16.38 109.54 17.11L109.63 17.19L110.64 15.74L110.71 15.80Q111.30 15.13 111.90 14.48L111.87 14.45L111.86 14.44Q109.14 15.52 106.13 16.09L106.11 16.07L106.04 16.01Q101.76 21.43 97.87 32.89L97.75 32.77L97.84 32.85Q94.04 22.58 90.84 18.21L91.04 18.40L91.00 18.36Q90.46 18.13 89.59 17.98L89.76 18.15L89.67 18.06Q89.36 17.60 87.76 15.54L87.81 15.59L87.95 15.73Q84.93 14.96 82.23 13.55L82.28 13.60L82.23 13.55Q88.87 20.64 93.24 33.43L93.10 33.29L93.27 33.46Q94.41 37.03 95.59 40.61L95.50 40.52L95.56 40.59Q96.04 40.77 96.88 40.65L96.71 40.48L96.87 40.64Q97.07 41.18 97.75 42.51L97.76 42.52L97.89 42.65Q98.74 42.59 99.47 42.67L99.38 42.58L99.32 42.52Q100.16 42.64 100.92 42.64Z"/><path fill="#222" d="M56.63 34.75L56.56 34.68L56.60 34.73Q56.63 38.33 53.47 39.63L53.36 39.51L53.41 39.56Q51.47 40.33 47.05 40.48L47.05 40.47L47.06 40.49Q42.30 40.64 40.05 39.46L40.07 39.48L40.11 39.51Q38.18 38.12 38.34 34.77L38.33 34.76L38.43 34.86Q38.37 34.15 38.56 32.17L38.68 32.30L38.59 32.21Q38.76 30.66 38.76 29.67L38.65 29.56L38.66 29.57Q38.69 21.61 34.50 14.19L34.48 14.17L34.47 14.16Q35.63 14.81 38.59 15.88L38.63 15.92L38.70 15.98Q41.62 22.75 41.62 30.14L41.62 30.13L41.48 30.00Q41.60 30.72 41.50 31.90L41.51 31.91L41.40 31.80Q41.38 33.06 41.38 33.67L41.44 33.72L41.43 33.71Q41.32 35.88 42.88 36.87L42.96 36.95L42.93 36.92Q44.59 37.75 47.56 37.75L47.53 37.72L47.47 37.66Q50.07 37.64 51.71 36.46L51.76 36.51L51.85 36.59Q53.63 35.18 53.48 32.67L53.54 32.73L53.59 32.77Q53.32 31.21 53.32 29.88L53.47 30.03L53.29 29.85Q53.32 22.84 55.72 16.33L55.78 16.39L57.97 15.84L57.97 15.84Q58.87 15.48 59.97 15.02L60.06 15.11L60.11 15.16Q56.41 22.31 56.41 29.88L56.35 29.83L56.37 29.85Q56.22 30.54 56.35 32.17L56.40 32.22L56.39 32.21Q56.55 33.88 56.55 34.68ZM58.68 35.55L58.79 35.66L58.79 35.66Q57.85 30.64 58.58 25.54L58.50 25.46L58.54 25.51Q59.30 20.33 61.70 15.95L61.73 15.98L61.77 16.02Q61.07 16.23 59.62 16.88L59.55 16.81L59.54 16.80Q60.01 16.05 60.80 14.49L60.85 14.53L60.79 14.47Q57.37 15.74 55.47 16.08L55.37 15.98L55.35 15.96Q53.01 22.49 53.01 29.76L52.99 29.74L53.04 29.79Q53.01 31.13 53.09 32.54L53.08 32.54L53.08 32.54Q53.35 35.05 51.56 36.27L51.48 36.19L51.51 36.21Q50.10 37.36 47.58 37.39L47.62 37.43L47.55 37.36Q44.84 37.47 43.39 36.71L43.38 36.69L43.34 36.65Q43.19 36.08 43.11 35.62L43.12 35.63L43.22 35.73Q43.19 35.25 43.30 34.75L43.20 34.65L43.20 34.65Q43.35 32.25 43.35 29.93L43.49 30.06L43.45 30.02Q43.40 24.15 41.88 18.25L41.84 18.21L41.84 18.21Q41.25 18.23 39.84 17.89L39.86 17.91L39.76 17.81Q39.31 16.45 38.86 15.53L38.93 15.61L38.98 15.65Q36.18 14.80 33.78 13.43L33.86 13.50L33.75 13.39Q38.51 21.12 38.51 29.84L38.46 29.79L38.38 29.71Q38.35 31.32 38.20 33.03L38.32 33.15L38.27 33.11Q38.06 35.52 38.14 36.70L38.14 36.71L38.09 36.65Q38.37 38.73 39.63 39.87L39.51 39.75L39.58 39.82Q40.51 42.24 45.16 42.62L45.18 42.65L45.07 42.53Q47.20 42.72 49.33 42.80L49.31 42.77L49.37 42.84Q54.76 43.04 57.53 42.09L57.56 42.11L57.48 42.03Q59.23 41.31 59.23 39.25L59.05 39.08L59.14 39.16Q59.18 38.06 58.72 35.59Z"/></svg>