<svg xmlns="http://www.w3.org/2000/svg" width="150" height="50" viewBox="0,0,150,50"><path fill="#333" d="M31.06 41.50L31.07 41.51L31.07 41.51Q29.05 41.21 26.88 41.05L26.83 41.00L26.79 40.96Q25.42 39.59 22.75 35.74L22.72 35.71L22.67 35.66Q20.50 38.78 18.10 41.22L18.18 41.30L15.96 41.55L16.06 41.65Q15.04 41.88 14.05 42.15L14.06 42.16L14.03 42.13Q18.26 38.07 21.27 33.96L21.20 33.89L21.18 33.86Q17.95 29.73 12.55 24.93L12.52 24.91L12.58 24.96Q14.82 25.72 17.53 26.14L17.48 26.09L17.54 26.15Q20.95 29.23 22.86 31.93L22.81 31.88L22.72 31.79Q24.88 28.78 27.62 26.26L27.66 26.30L27.60 26.24Q30.77 26.02 32.60 25.52L32.52 25.45L32.63 25.56Q27.94 29.05 24.24 33.62L24.35 33.72L24.39 33.77Q27.63 38.30 31.10 41.54ZM34.06 24.78L33.96 24.68L33.91 24.63Q31.00 25.45 27.46 25.80L27.63 25.97L27.63 25.97Q24.59 28.48 22.87 30.95L23.01 31.09L23.03 31.11Q22.13 30.06 20.49 28.08L20.52 28.10L20.17 27.94L20.23 28.01Q20.12 28.01 20.00 28.01L20.00 28.00L19.90 27.90Q19.23 27.16 17.60 25.71L17.51 25.63L17.59 25.71Q14.03 25.19 11.17 23.97L11.22 24.02L11.07 23.87Q16.72 28.80 20.76 33.94L20.79 33.97L20.78 33.96Q17.37 38.54 12.95 42.84L12.91 42.80L12.94 42.84Q13.23 42.78 16.73 41.94L16.71 41.92L16.75 41.96Q15.19 43.26 13.56 44.59L13.40 44.43L13.47 44.51Q16.73 43.66 19.89 43.46L19.84 43.41L19.93 43.50Q22.16 41.09 24.06 38.35L24.23 38.52L24.11 38.40Q25.57 40.20 26.79 41.38L26.79 41.38L26.68 41.28Q26.88 41.36 26.96 41.44L27.00 41.48L27.25 41.54L27.19 41.48Q28.33 42.47 29.67 43.53L29.77 43.63L29.66 43.53Q33.31 44.13 36.20 45.16L36.18 45.14L36.15 45.11Q30.00 40.67 26.31 35.50L26.41 35.60L26.27 35.46Q30.00 30.50 34.57 26.43L34.63 26.49L34.62 26.49Q33.59 26.75 32.60 26.97L32.60 26.98L30.62 27.47L30.72 27.57Q31.81 26.57 33.98 24.71Z"/><path fill="#444" d="M95.12 29.91L95.10 29.88L95.09 29.88Q94.84 29.85 94.53 29.85L94.56 29.88L94.52 29.84Q93.11 29.76 91.66 30.60L91.65 30.58L91.73 30.66Q90.45 31.82 90.45 33.72L90.36 33.63L90.44 33.72Q90.50 37.20 92.02 38.53L92.00 38.51L91.85 38.36Q92.88 39.62 95.17 39.62L95.20 39.66L95.11 39.56Q95.39 39.62 95.70 39.62L95.66 39.58L95.79 39.71Q97.42 39.63 98.56 37.99L98.69 38.12L98.66 38.09Q99.57 36.45 99.49 34.66L99.53 34.69L99.56 34.72Q99.66 34.29 99.66 33.87L99.59 33.80L99.55 33.76Q99.70 32.12 98.33 30.96L98.24 30.88L98.31 30.95Q96.83 29.68 95.04 29.83ZM99.52 39.97L99.57 40.03L99.49 39.95Q98.67 42.06 94.94 42.18L94.92 42.15L94.86 42.09Q91.53 42.27 89.93 40.67L89.75 40.49L89.91 40.65Q88.32 38.75 87.52 33.96L87.51 33.95L87.64 34.08Q87.35 32.34 87.35 31.08L87.28 31.01L87.25 30.98Q87.33 29.27 88.06 28.21L87.94 28.09L87.94 28.09Q89.46 26.87 92.43 26.87L92.39 26.83L92.32 26.76Q98.72 26.84 100.62 29.43L100.54 29.35L100.51 29.32Q100.67 28.49 101.09 26.89L101.26 27.06L101.14 26.94Q102.44 26.68 104.87 25.88L104.96 25.97L104.93 25.94Q102.40 31.47 102.17 37.79L102.28 37.91L102.14 37.76Q101.89 43.90 104.02 49.73L104.09 49.80L104.05 49.77Q102.34 49.15 100.55 48.89L100.68 49.02L100.52 48.86Q99.69 44.98 99.57 40.03ZM100.42 49.33L100.27 49.18L100.42 49.32Q100.99 49.33 102.40 49.63L102.52 49.75L102.48 49.72Q102.71 50.44 103.28 51.84L103.34 51.90L103.26 51.82Q105.92 52.62 108.21 53.92L108.20 53.92L108.11 53.82Q104.21 47.37 104.21 38.84L104.11 38.74L104.02 38.65Q104.05 32.33 106.53 26.54L106.67 26.69L106.63 26.64Q105.94 26.94 104.57 27.59L104.43 27.45L104.46 27.48Q104.84 26.75 105.48 25.19L105.56 25.27L105.40 25.11Q104.01 25.81 100.81 26.69L100.71 26.58L100.82 26.69Q100.69 27.26 100.39 28.44L100.41 28.45L100.38 28.43Q98.28 26.44 92.15 26.28L92.12 26.26L92.28 26.42Q88.97 26.23 87.60 27.71L87.68 27.80L87.57 27.69Q86.86 28.88 86.90 30.78L86.83 30.72L86.82 30.71Q87.05 33.83 88.04 37.60L88.01 37.56L88.05 37.60Q88.57 39.88 89.49 40.83L89.65 40.99L89.86 41.21L90.02 41.36Q91.22 44.16 96.67 44.39L96.65 44.38L96.47 44.20Q97.58 44.32 99.41 44.02L99.50 44.10L99.42 44.03Q99.67 46.91 100.28 49.19ZM96.87 32.08L97.00 32.21L96.90 32.11Q98.04 32.18 98.88 32.49L98.84 32.44L98.83 32.44Q99.05 32.99 99.16 33.60L99.30 33.74L99.17 33.61Q99.26 34.16 99.18 34.77L99.14 34.73L99.10 34.68Q99.24 36.73 98.21 38.02L98.25 38.06L98.21 38.02Q97.07 39.47 95.20 39.28L95.26 39.33L95.10 39.17Q93.89 39.25 92.93 38.83L92.86 38.76L92.83 38.73Q92.55 38.00 92.55 36.78L92.56 36.79L92.66 36.88Q92.52 36.44 92.52 36.13L92.48 36.10L92.56 36.17Q92.46 34.32 93.79 33.16L93.82 33.19L93.86 33.23Q95.27 32.15 97.02 32.22Z"/><path fill="#444" d="M42.48 32.94L42.53 32.99L42.55 33.01Q45.52 32.51 48.71 32.62L48.85 32.76L48.72 32.63Q48.67 30.07 48.67 27.67L48.72 27.72L48.68 27.68Q48.68 25.20 48.87 22.65L48.84 22.62L48.95 22.73Q47.70 24.41 42.48 32.94ZM52.49 40.39L52.34 40.24L52.49 40.39Q50.75 40.03 48.96 39.95L48.88 39.87L48.90 39.89Q48.75 37.57 48.63 35.09L48.62 35.08L48.64 35.10Q43.33 34.93 38.61 36.34L38.65 36.37L38.61 36.34Q38.60 35.72 38.79 34.73L38.94 34.88L38.81 34.75Q40.60 31.59 44.18 25.31L44.18 25.31L44.21 25.34Q47.08 20.44 50.50 16.56L50.50 16.55L50.54 16.59Q51.50 16.49 53.18 16.22L53.05 16.10L53.17 16.22Q51.22 22.60 51.22 29.64L51.21 29.64L51.31 29.73Q51.26 31.17 51.34 32.66L51.22 32.54L52.69 32.83L52.51 32.65Q53.22 32.79 53.83 32.90L53.85 32.93L53.73 32.80Q53.87 33.82 54.13 35.76L54.22 35.84L54.13 35.75Q52.91 35.49 51.43 35.30L51.49 35.36L51.54 35.41Q51.68 37.34 52.37 40.27ZM54.07 32.50L53.98 32.41L54.09 32.52Q53.94 32.48 53.75 32.48L53.74 32.47L53.26 32.38L53.38 32.49Q53.12 30.86 53.12 29.45L53.14 29.47L53.14 29.47Q53.29 23.23 55.35 17.22L55.19 17.06L55.34 17.20Q54.56 17.46 53.12 17.84L52.99 17.71L53.14 17.86Q53.24 16.97 53.70 15.56L53.71 15.58L53.72 15.59Q52.44 15.98 50.38 16.21L50.31 16.14L50.43 16.26Q46.41 20.50 41.20 29.86L41.29 29.96L43.26 26.18L43.36 26.28Q42.90 27.26 42.63 27.84L42.57 27.78L38.18 36.86L38.16 36.84Q38.93 36.81 40.07 36.43L39.96 36.32L39.84 36.58L39.91 36.65Q39.64 37.17 39.33 38.43L39.41 38.51L39.39 38.48Q43.54 37.20 48.38 37.39L48.41 37.42L48.36 37.37Q48.31 38.24 48.50 40.22L48.50 40.22L48.61 40.33Q49.61 40.25 50.67 40.37L50.71 40.41L50.74 40.44Q50.83 41.06 51.10 42.43L51.10 42.43L51.11 42.44Q53.08 42.74 56.09 43.65L56.03 43.59L56.10 43.66Q55.09 41.51 54.18 38.24L54.08 38.14L55.61 38.68L55.52 38.60Q56.30 38.92 56.99 39.26L56.91 39.19L56.91 39.19Q56.14 36.70 55.99 35.02L56.08 35.12L56.03 35.06Q55.39 34.84 54.24 34.61L54.36 34.73L54.23 34.60Q54.03 33.33 54.03 32.46ZM46.03 32.30L46.11 32.38L46.12 32.38Q46.91 31.13 48.48 28.58L48.32 28.43L48.43 28.53Q48.37 29.42 48.33 30.37L48.37 30.42L48.33 30.37Q48.28 31.32 48.32 32.27L48.31 32.26L48.50 32.45Q47.77 32.25 47.20 32.25L47.28 32.34L47.21 32.26Q46.64 32.30 46.03 32.30Z"/><path fill="#333" d="M114.28 47.09L114.34 47.15L114.26 47.07Q113.24 47.19 111.34 47.50L111.52 47.67L111.36 47.51Q112.78 45.47 113.81 44.18L113.69 44.06L113.70 44.07Q115.46 44.38 115.61 44.38L115.73 44.51L115.67 44.45Q116.04 44.58 116.57 44.47L116.47 44.37L116.53 44.43Q117.08 44.22 117.27 44.22L117.42 44.37L117.33 44.28Q119.94 44.07 119.86 41.90L119.86 41.89L119.75 41.78Q119.87 40.46 119.76 34.22L119.67 34.12L119.74 34.20Q119.61 30.56 119.68 26.41L119.79 26.52L121.04 26.17L121.05 26.18Q121.67 26.04 122.36 25.81L122.52 25.98L122.39 25.84Q122.31 30.41 122.35 34.79L122.34 34.78L122.37 34.81Q122.27 39.05 122.81 43.43L122.80 43.42L122.77 43.39Q122.83 43.68 122.83 43.95L122.87 43.99L122.96 44.08Q122.88 45.64 121.21 46.02L121.21 46.03L121.16 45.97Q118.09 46.40 114.24 47.05ZM121.06 22.88L118.96 19.78L118.86 19.68Q120.00 18.40 121.83 15.62L121.69 15.47L121.73 15.52Q122.36 16.38 123.70 18.21L123.87 18.38L120.98 22.80ZM124.04 49.46L124.11 49.54L123.99 49.41Q124.69 49.61 125.45 49.27L125.28 49.10L125.41 49.24Q125.79 48.59 125.79 48.13L125.60 47.93L125.65 47.99Q125.67 47.66 125.55 47.06L125.46 46.96L125.58 47.08Q124.26 40.70 124.26 32.78L124.19 32.71L124.14 32.66Q124.19 29.86 124.34 26.96L124.32 26.94L124.27 26.89Q123.85 27.19 122.71 27.50L122.78 27.56L122.74 27.53Q122.60 26.89 122.64 26.36L122.72 26.44L122.79 25.33L122.89 25.43Q121.12 26.03 119.33 26.06L119.33 26.05L119.32 26.05Q119.26 30.37 119.30 33.95L119.38 34.03L119.41 41.78L119.41 41.79Q119.59 43.86 117.42 43.98L117.29 43.85L117.38 43.94Q117.16 43.95 116.64 44.01L116.66 44.02L116.66 44.02Q116.13 44.06 115.86 44.06L115.77 43.97L115.91 44.11Q115.31 43.96 113.75 43.54L113.76 43.56L113.77 43.57Q113.39 44.26 112.29 45.93L112.19 45.83L110.61 48.10L110.76 48.25Q111.55 47.97 113.18 47.59L113.15 47.56L112.75 48.34L112.22 48.98L112.16 48.92Q114.50 48.83 115.83 48.91L115.86 48.93L115.88 48.95Q118.12 49.06 124.06 49.48ZM121.05 23.63L120.99 23.57L121.26 22.97L121.34 23.04Q121.77 23.55 122.72 25.15L122.62 25.05L122.75 25.18Q124.17 21.96 125.73 18.87L125.80 18.94L125.80 18.94Q124.74 17.27 123.79 15.97L123.78 15.97L123.81 15.99Q123.67 16.28 123.33 16.81L123.21 16.69L123.32 16.80Q122.93 16.18 121.94 14.89L121.93 14.87L121.88 14.83Q120.73 16.46 118.41 19.81L118.35 19.75L118.45 19.85Q119.25 20.95 120.96 23.54Z"/><path fill="#222" d="M70.17 28.86L70.25 28.94L70.30 28.99Q67.63 28.87 66.60 30.05L66.64 30.09L66.74 30.19Q65.58 31.24 65.58 33.86L65.69 33.97L65.54 33.83Q65.57 38.95 70.18 38.76L70.24 38.83L70.17 38.76Q72.36 39.04 73.71 37.48L73.62 37.39L73.71 37.48Q75.10 35.96 74.87 33.91L74.75 33.78L74.70 33.74Q74.74 31.22 73.87 30.20L73.82 30.15L73.83 30.16Q72.40 28.88 70.19 28.88ZM75.24 38.68L75.31 38.76L75.32 38.77Q74.08 41.19 69.40 41.19L69.38 41.16L67.91 41.14L67.97 41.20Q65.55 41.14 64.44 40.00L64.57 40.13L64.49 40.04Q63.41 38.97 63.14 36.57L63.26 36.69L63.12 36.55Q63.12 35.21 63.04 33.42L62.98 33.36L62.94 33.31Q62.88 32.31 62.73 30.37L62.71 30.35L62.76 30.39Q62.58 26.03 67.76 26.03L67.90 26.17L69.45 26.16L69.34 26.05Q72.23 26.04 74.32 27.34L74.40 27.41L74.44 27.45Q75.23 27.95 75.73 28.63L75.59 28.49L75.77 28.67Q75.86 27.70 76.39 26.06L76.40 26.07L76.52 26.18Q77.61 25.87 79.94 25.26L80.02 25.35L80.10 25.42Q77.49 29.63 77.49 34.89L77.45 34.85L77.35 34.75Q77.48 38.60 78.85 41.69L78.89 41.73L78.74 41.58Q77.74 41.42 75.84 41.19L75.70 41.05L75.73 41.08Q75.51 40.22 75.21 38.66ZM78.47 43.82L78.61 43.96L80.76 44.47L80.87 44.59Q82.03 44.83 83.02 45.29L83.05 45.32L82.93 45.20Q79.34 40.92 79.34 34.83L79.34 34.83L79.26 34.75Q79.28 30.25 81.42 26.44L81.50 26.53L81.44 26.47Q80.85 26.75 79.51 27.13L79.55 27.16L79.58 27.19Q79.91 26.42 80.79 24.90L80.70 24.81L80.77 24.88Q80.18 25.06 76.19 25.89L76.07 25.78L75.50 27.60L75.49 27.60Q73.73 25.87 69.31 25.64L69.30 25.63L69.35 25.68Q68.32 25.79 66.07 25.94L65.92 25.79L66.08 25.95Q62.27 26.18 62.39 30.21L62.40 30.23L62.44 30.27Q62.58 33.61 63.15 38.06L63.18 38.09L63.19 38.52L63.11 38.44Q63.23 39.28 64.03 40.38L63.98 40.33L64.01 40.37Q64.18 40.54 64.37 40.65L64.38 40.66L64.34 40.62Q64.68 41.19 65.07 41.76L65.03 41.72L64.98 41.68Q66.52 43.33 69.91 43.52L69.88 43.49L69.84 43.45Q71.55 43.64 71.70 43.64L71.64 43.58L73.30 43.67L73.14 43.51Q76.38 43.56 77.60 42.00L77.57 41.97L77.60 42.00Q78.00 42.67 78.61 43.97ZM72.08 31.22L72.03 31.18L71.93 31.08Q73.45 31.27 74.29 31.72L74.23 31.66L74.23 31.66Q74.46 32.39 74.46 33.84L74.56 33.93L74.49 33.87Q74.62 35.71 73.35 37.14L73.36 37.15L73.50 37.29Q72.18 38.68 70.28 38.49L70.32 38.52L70.24 38.45Q68.85 38.51 67.83 38.09L67.72 37.99L67.82 38.08Q67.55 37.17 67.55 35.95L67.48 35.87L67.56 35.96Q67.68 32.42 70.31 31.47L70.25 31.41L70.21 31.37Q71.17 31.11 71.96 31.11Z"/></svg>