<svg xmlns="http://www.w3.org/2000/svg" width="150" height="50" viewBox="0,0,150,50"><path fill="#444" d="M95.63 29.07L95.71 29.15L95.60 29.03Q93.86 29.00 92.62 30.43L92.60 30.41L92.65 30.46Q91.44 31.91 91.25 33.82L91.24 33.81L91.10 33.67Q90.99 35.85 92.08 36.82L91.99 36.73L92.11 36.85Q93.15 37.78 95.25 37.66L95.25 37.67L95.16 37.58Q97.24 37.41 98.34 36.73L98.47 36.85L98.50 36.88Q99.50 35.64 99.50 34.08L99.46 34.04L99.61 34.18Q99.62 33.82 99.55 33.44L99.39 33.28L99.57 33.46Q99.50 31.64 98.40 30.29L98.36 30.25L98.48 30.38Q97.41 29.05 95.73 29.17ZM95.21 40.18L95.24 40.20L95.28 40.25Q90.81 40.16 89.41 39.40L89.44 39.43L89.55 39.55Q88.44 38.70 88.25 36.98L88.33 37.06L88.35 37.09Q88.16 36.25 88.20 35.53L88.27 35.60L88.18 35.51Q88.38 34.60 88.38 34.14L88.41 34.18L88.32 34.09Q88.85 31.31 89.00 30.62L88.94 30.56L89.07 30.69Q89.45 28.67 90.29 27.26L90.22 27.20L90.20 27.18Q92.96 22.89 98.90 16.54L98.90 16.53L98.80 16.43Q101.59 16.25 103.79 15.45L103.75 15.40L103.66 15.32Q96.81 22.78 93.61 27.01L93.69 27.08L93.79 27.19Q94.68 26.59 95.98 26.59L95.99 26.60L95.92 26.54Q99.29 26.59 100.81 28.53L100.80 28.53L100.88 28.61Q102.09 30.12 102.43 33.66L102.44 33.67L102.54 33.76Q102.61 34.48 102.61 35.09L102.67 35.15L102.62 35.10Q102.64 38.25 100.44 39.31L100.41 39.29L100.27 39.15Q99.14 39.85 95.26 40.23ZM97.46 42.54L97.52 42.60L97.50 42.58Q98.87 42.62 100.85 42.70L100.86 42.71L100.77 42.62Q102.38 42.66 103.94 41.94L103.92 41.93L103.95 41.95Q105.05 41.15 105.05 39.36L105.14 39.45L105.15 39.46Q105.09 38.91 104.92 37.92L104.99 37.99L105.02 38.01Q104.76 36.94 104.76 36.48L104.71 36.43L104.87 36.59Q103.91 31.79 102.31 29.88L102.33 29.90L102.37 29.94Q102.17 29.70 102.02 29.47L102.09 29.55L101.84 29.37L101.76 29.33L101.63 29.20Q101.29 28.71 100.68 27.76L100.80 27.87L100.78 27.86Q99.84 26.88 97.86 26.42L97.81 26.37L97.87 26.43Q99.15 24.89 102.12 21.20L102.03 21.11L106.19 15.76L106.28 15.84Q104.75 16.75 102.35 17.51L102.36 17.52L102.25 17.41Q103.20 16.46 104.99 14.48L105.01 14.50L105.10 14.59Q102.52 15.47 98.64 16.05L98.81 16.21L98.82 16.22Q93.02 22.03 90.05 26.98L90.05 26.99L89.95 26.89Q88.52 29.50 87.95 35.74L87.93 35.72L87.91 35.69Q87.96 36.40 88.04 37.35L87.94 37.25L87.93 37.24Q88.02 39.00 89.12 39.91L89.22 40.01L89.04 39.84Q89.60 40.16 89.56 40.20L89.46 40.11L89.45 40.09Q89.81 40.98 90.61 41.40L90.69 41.49L90.60 41.39Q92.01 42.04 93.95 42.23L94.02 42.30L94.03 42.31Q93.98 42.26 97.48 42.56ZM97.27 31.35L97.31 31.39L97.25 31.33Q97.87 31.27 98.83 31.76L98.82 31.76L98.90 31.84Q99.10 32.65 99.10 33.30L99.15 33.35L99.21 33.41Q99.47 35.34 98.52 36.33L98.40 36.22L98.37 36.18Q97.42 37.02 95.32 37.32L95.32 37.32L95.25 37.25Q93.73 37.18 93.20 36.91L93.22 36.93L93.36 37.07Q93.08 36.53 93.08 36.22L93.11 36.25L93.10 36.24Q92.78 32.87 95.71 31.58L95.80 31.67L95.86 31.73Q96.65 31.42 97.41 31.49Z"/><path fill="#333" d="M56.64 34.76L56.55 34.67L56.58 34.70Q56.65 38.35 53.49 39.65L53.50 39.65L53.46 39.62Q51.47 40.32 47.05 40.48L47.02 40.44L47.15 40.58Q42.32 40.66 40.08 39.48L40.02 39.43L40.12 39.53Q38.23 38.17 38.38 34.82L38.41 34.84L38.49 34.92Q38.36 34.14 38.55 32.16L38.52 32.14L38.71 32.32Q38.81 30.71 38.81 29.72L38.70 29.61L38.82 29.74Q38.78 21.70 34.59 14.27L34.55 14.23L34.57 14.25Q35.70 14.89 38.67 15.96L38.72 16.00L38.61 15.90Q41.48 22.61 41.48 29.99L41.48 30.00L41.62 30.14Q41.63 30.75 41.53 31.93L41.54 31.94L41.44 31.84Q41.34 33.01 41.34 33.62L41.32 33.60L41.31 33.60Q41.29 35.86 42.85 36.85L42.93 36.93L42.95 36.95Q44.49 37.65 47.46 37.65L47.58 37.77L47.60 37.79Q50.12 37.69 51.76 36.51L51.86 36.61L51.77 36.52Q53.73 35.28 53.58 32.76L53.41 32.60L53.53 32.72Q53.42 31.32 53.42 29.98L53.31 29.87L53.41 29.97Q53.36 22.88 55.76 16.37L55.69 16.30L57.89 15.76L57.88 15.75Q58.92 15.54 60.03 15.08L59.99 15.04L60.03 15.09Q56.22 22.12 56.22 29.70L56.30 29.77L56.40 29.88Q56.37 30.69 56.51 32.32L56.44 32.26L56.45 32.27Q56.51 33.83 56.51 34.63ZM58.68 35.54L58.65 35.51L58.76 35.63Q57.76 30.55 58.48 25.45L58.52 25.49L58.62 25.59Q59.33 20.36 61.73 15.98L61.70 15.95L61.66 15.91Q61.17 16.34 59.72 16.99L59.69 16.95L59.68 16.94Q59.99 16.03 60.79 14.47L60.82 14.50L60.78 14.46Q57.26 15.63 55.36 15.97L55.43 16.04L55.47 16.08Q53.07 22.55 53.07 29.82L53.18 29.93L53.07 29.82Q53.18 31.30 53.26 32.71L53.22 32.67L53.09 32.54Q53.30 35.00 51.51 36.22L51.55 36.26L51.46 36.17Q49.99 37.24 47.47 37.28L47.60 37.41L47.59 37.40Q44.80 37.42 43.35 36.66L43.24 36.55L43.24 36.55Q43.23 36.12 43.16 35.67L43.07 35.58L43.24 35.75Q43.14 35.20 43.26 34.70L43.13 34.57L43.13 34.58Q43.35 32.25 43.35 29.93L43.46 30.03L43.46 30.04Q43.52 24.27 42.00 18.37L41.91 18.28L41.98 18.35Q41.13 18.11 39.72 17.76L39.83 17.88L39.77 17.82Q39.29 16.42 38.83 15.50L38.85 15.53L38.99 15.67Q36.23 14.84 33.83 13.47L33.90 13.55L33.77 13.42Q38.42 21.04 38.42 29.75L38.52 29.85L38.34 29.68Q38.44 31.41 38.29 33.13L38.19 33.02L38.28 33.11Q38.12 35.58 38.20 36.76L38.03 36.60L38.18 36.74Q38.31 38.66 39.56 39.80L39.44 39.68L39.44 39.68Q40.44 42.16 45.08 42.55L45.13 42.59L45.16 42.62Q47.21 42.73 49.34 42.81L49.42 42.89L49.39 42.86Q54.66 42.95 57.44 41.99L57.51 42.07L57.47 42.03Q59.22 41.30 59.22 39.25L59.04 39.06L59.22 39.25Q59.25 38.14 58.80 35.66Z"/><path fill="#222" d="M15.03 41.08L15.09 41.14L15.05 41.10Q18.19 36.82 24.89 28.90L25.00 29.00L24.93 28.93Q19.02 29.16 15.25 27.79L15.24 27.77L15.20 27.74Q14.60 26.37 13.84 24.96L13.70 24.82L13.73 24.86Q17.91 26.45 22.37 26.49L22.31 26.44L22.44 26.56Q26.83 26.54 31.02 25.47L31.01 25.46L30.97 25.43Q30.62 26.14 30.35 26.67L30.26 26.58L30.38 26.70Q27.82 28.89 25.00 32.51L24.99 32.50L20.11 38.74L20.12 38.74Q22.29 38.48 24.54 38.56L24.54 38.56L24.51 38.53Q26.77 38.66 29.01 39.04L28.93 38.95L28.97 38.99Q29.09 39.56 29.81 41.58L29.85 41.62L29.81 41.59Q26.23 40.89 22.23 41.01L22.13 40.91L22.11 40.89Q18.20 41.05 14.54 42.23L14.46 42.14L14.56 42.24Q14.56 42.02 15.02 41.07ZM13.92 42.79L14.02 42.89L14.00 42.87Q14.74 42.51 16.34 42.09L16.29 42.04L16.33 42.07Q15.99 42.19 15.57 42.61L15.76 42.80L15.62 42.65Q15.49 43.33 14.88 44.47L14.86 44.45L14.73 44.32Q19.56 43.10 24.55 43.25L24.52 43.22L24.46 43.16Q29.39 43.30 33.96 45.17L34.13 45.33L34.00 45.20Q32.50 43.29 31.59 41.23L31.76 41.40L31.70 41.34Q30.89 40.99 29.82 40.76L29.89 40.82L29.78 40.72Q29.76 40.16 29.38 38.71L29.32 38.66L29.21 38.55Q27.86 38.42 24.28 38.30L24.26 38.28L24.10 38.11Q26.64 34.94 31.66 28.59L31.57 28.49L31.60 28.53Q31.79 27.72 32.47 26.39L32.59 26.51L30.19 27.16L30.27 27.23Q30.23 27.04 30.38 26.92L30.53 27.07L30.73 26.89L30.70 26.87Q31.16 25.80 31.73 24.85L31.77 24.89L31.72 24.84Q27.11 26.24 22.39 26.17L22.31 26.09L22.32 26.10Q17.56 26.06 13.07 24.23L13.12 24.28L13.08 24.24Q14.24 26.09 15.04 28.14L14.98 28.09L15.10 28.20Q15.90 28.47 16.97 28.74L16.92 28.70L16.90 28.67Q17.14 29.41 17.45 30.86L17.39 30.80L17.40 30.81Q19.10 31.18 22.42 31.33L22.25 31.16L22.25 31.17Q19.94 34.57 14.76 41.00L14.72 40.96L14.83 41.07Q14.50 41.58 13.93 42.80Z"/><path fill="#222" d="M79.70 30.25L79.71 30.25L79.80 30.34Q79.84 29.89 79.80 29.47L79.89 29.56L79.92 29.59Q79.72 29.09 79.42 28.90L79.45 28.92L79.40 28.88Q78.82 28.45 77.95 28.60L77.80 28.46L77.82 28.48Q76.81 28.54 75.17 29.64L75.20 29.67L75.13 29.60Q73.82 30.61 73.82 31.79L73.84 31.81L73.76 31.73Q73.68 32.90 73.68 36.21L73.83 36.37L73.81 36.34Q73.80 38.93 73.96 40.95L73.80 40.79L73.81 40.79Q72.09 40.79 72.09 40.79L72.14 40.85L72.17 40.87Q71.20 40.86 70.48 40.93L70.54 40.99L70.41 40.86Q70.83 38.36 70.91 36.11L71.04 36.24L70.99 36.19Q71.14 31.55 70.50 30.25L70.49 30.24L70.40 30.16Q70.28 29.73 69.71 29.42L69.68 29.40L69.70 29.42Q68.87 28.70 67.31 28.58L67.18 28.45L67.13 28.41Q65.27 28.34 64.74 29.94L64.76 29.96L64.62 29.82Q64.43 30.28 64.54 30.77L64.58 30.81L64.63 30.86Q65.37 33.69 65.03 36.47L64.90 36.34L64.92 36.36Q64.72 39.29 63.31 41.72L63.15 41.56L63.27 41.68Q62.24 41.83 60.15 42.25L60.15 42.25L60.11 42.21Q62.69 39.04 62.69 34.74L62.59 34.64L62.57 34.62Q62.64 28.83 58.60 24.60L58.55 24.55L58.63 24.63Q59.26 24.80 60.21 25.03L60.33 25.15L62.09 25.57L61.96 25.45Q62.57 26.21 63.45 27.89L63.32 27.76L63.45 27.89Q63.49 25.87 65.92 25.83L65.98 25.89L65.90 25.81Q66.20 25.92 67.19 26.00L67.19 25.99L67.18 25.98Q72.20 26.32 73.34 29.14L73.34 29.14L73.38 29.17Q74.99 26.41 80.02 25.88L79.91 25.77L79.91 25.77Q80.78 25.77 81.66 25.88L81.58 25.81L81.64 25.86Q83.73 25.93 83.58 27.49L83.60 27.52L83.66 27.58Q83.69 28.33 83.42 29.09L83.33 29.00L83.31 28.98Q81.89 31.98 82.12 35.52L82.15 35.54L82.11 35.51Q82.31 38.98 84.21 41.80L84.14 41.73L84.30 41.88Q82.57 41.49 80.74 41.26L80.67 41.18L80.77 41.29Q79.53 38.71 79.34 35.93L79.27 35.86L79.35 35.95Q79.11 33.04 79.75 30.30ZM80.47 41.60L80.43 41.56L80.59 41.72Q81.19 41.67 82.52 41.86L82.48 41.82L82.55 41.89Q83.16 42.69 84.30 44.10L84.19 43.98L84.32 44.11Q87.14 44.57 89.23 45.22L89.36 45.35L89.32 45.30Q84.33 41.42 84.06 34.91L84.05 34.90L84.02 34.87Q83.83 32.66 84.44 30.75L84.59 30.91L84.60 30.92Q84.72 29.93 84.72 29.21L84.78 29.27L84.71 29.20Q84.83 28.41 84.22 27.84L84.18 27.79L84.08 27.65L84.02 27.59Q84.07 27.07 83.99 26.58L83.99 26.58L84.09 26.68Q83.96 26.12 83.50 25.86L83.49 25.85L83.53 25.88Q82.86 25.41 81.99 25.37L82.00 25.38L81.88 25.27Q79.13 25.26 76.47 26.21L76.40 26.15L76.52 26.26Q74.49 26.90 73.31 28.31L73.32 28.32L73.31 28.31Q71.84 25.93 67.01 25.58L66.92 25.50L66.82 25.40Q66.24 25.46 65.82 25.46L65.89 25.53L65.84 25.49Q63.86 25.56 63.25 26.81L63.22 26.78L63.09 26.65Q62.78 26.16 62.10 25.09L62.11 25.10L62.26 25.25Q59.62 24.55 57.64 23.91L57.73 24.00L57.65 23.92Q62.26 28.26 62.26 34.54L62.27 34.55L62.43 34.71Q62.44 39.44 59.58 42.90L59.52 42.84L59.57 42.89Q60.01 42.72 60.50 42.64L60.49 42.63L61.39 42.39L61.40 42.40Q60.81 43.56 59.70 44.77L59.56 44.63L59.59 44.66Q61.29 44.42 64.41 43.81L64.30 43.70L64.36 43.76Q66.95 39.57 66.95 34.66L67.03 34.74L67.08 34.79Q67.03 33.94 66.95 33.10L66.93 33.08L67.00 33.15Q66.93 32.40 67.92 31.60L67.82 31.49L67.89 31.61L67.87 31.58Q68.50 31.15 69.68 31.04L69.65 31.01L69.61 30.97Q70.12 31.06 70.43 31.06L70.37 31.00L70.42 31.24L70.51 31.34Q70.72 33.98 70.61 36.34L70.58 36.31L70.60 36.33Q70.46 38.59 69.97 41.26L69.92 41.21L70.04 41.33Q70.98 41.24 70.98 41.24L71.00 41.26L70.99 41.25Q72.53 41.35 72.19 41.35L72.06 41.22L72.17 41.33Q72.13 41.79 72.09 42.24L72.02 42.17L72.02 42.17Q71.97 42.61 71.97 43.11L72.09 43.23L74.55 43.22L74.62 43.28Q75.72 43.13 76.98 43.21L77.10 43.32L77.11 43.34Q75.47 39.53 75.66 33.59L75.73 33.65L75.70 33.63Q75.79 32.57 76.97 31.81L76.88 31.73L77.01 31.86Q77.82 30.95 79.07 30.76L79.05 30.73L79.46 30.84L79.42 30.80Q78.95 32.69 78.95 34.67L78.95 34.67L79.04 34.76Q78.98 38.47 80.50 41.63ZM75.08 30.19L75.21 30.09L75.10 30.33L75.13 30.24Z"/><path fill="#333" d="M119.71 29.82L119.67 29.79L119.82 29.94Q119.48 29.82 119.17 29.82L119.18 29.83L119.20 29.85Q117.89 29.88 116.45 30.71L116.43 30.70L116.31 30.58Q115.12 31.82 115.12 33.72L114.98 33.59L115.04 33.64Q115.17 37.20 116.69 38.54L116.68 38.52L116.63 38.48Q117.57 39.65 119.86 39.65L119.75 39.54L119.86 39.65Q120.06 39.62 120.37 39.62L120.40 39.66L120.43 39.68Q122.19 39.73 123.33 38.09L123.31 38.07L123.29 38.06Q124.30 36.52 124.23 34.73L124.26 34.76L124.22 34.71Q124.29 34.26 124.29 33.84L124.33 33.88L124.19 33.74Q124.26 32.01 122.88 30.85L122.87 30.84L122.96 30.93Q121.50 29.68 119.71 29.83ZM124.30 40.09L124.33 40.13L124.16 39.95Q123.25 41.97 119.52 42.08L119.48 42.04L119.47 42.04Q116.03 42.10 114.43 40.50L114.50 40.57L114.55 40.62Q113.05 38.81 112.25 34.02L112.22 33.99L112.22 33.99Q111.90 32.22 111.90 30.96L111.93 30.99L111.98 31.04Q111.97 29.25 112.70 28.18L112.64 28.13L112.67 28.15Q114.07 26.82 117.04 26.82L116.92 26.70L117.05 26.83Q123.43 26.89 125.33 29.47L125.33 29.47L125.18 29.32Q125.51 28.66 125.93 27.06L125.79 26.93L125.83 26.97Q127.07 26.65 129.51 25.85L129.50 25.84L129.46 25.80Q127.05 31.46 126.83 37.78L126.92 37.87L126.92 37.88Q126.72 44.07 128.85 49.90L128.73 49.78L128.76 49.80Q127.13 49.28 125.34 49.01L125.21 48.88L125.31 48.98Q124.26 44.89 124.15 39.94ZM125.00 49.25L124.94 49.18L124.95 49.19Q125.81 49.48 127.21 49.78L127.19 49.75L127.20 49.76Q127.33 50.39 127.90 51.80L127.87 51.77L128.03 51.93Q130.55 52.58 132.83 53.88L132.85 53.89L132.87 53.91Q128.69 47.18 128.69 38.66L128.78 38.74L128.77 38.74Q128.84 32.45 131.31 26.66L131.22 26.57L131.17 26.52Q130.59 26.93 129.22 27.58L129.13 27.48L129.10 27.46Q129.41 26.66 130.06 25.10L130.06 25.10L130.18 25.22Q128.68 25.82 125.48 26.69L125.35 26.56L125.45 26.66Q125.22 27.11 124.91 28.29L125.00 28.38L125.02 28.40Q122.98 26.48 116.85 26.33L116.84 26.31L116.93 26.40Q113.63 26.22 112.26 27.71L112.30 27.75L112.24 27.69Q111.56 28.92 111.60 30.82L111.64 30.86L111.48 30.70Q111.72 33.83 112.71 37.60L112.70 37.59L112.68 37.56Q113.31 39.95 114.23 40.90L114.19 40.87L114.59 41.27L114.72 41.39Q115.72 44.00 121.16 44.22L121.29 44.35L121.34 44.40Q122.18 44.25 124.01 43.95L124.13 44.07L124.12 44.06Q124.45 47.01 125.05 49.30ZM121.70 32.24L121.58 32.12L121.55 32.08Q122.74 32.21 123.58 32.52L123.58 32.52L123.66 32.60Q123.79 33.07 123.90 33.68L123.82 33.59L123.83 33.61Q123.91 34.14 123.83 34.75L123.93 34.84L123.89 34.81Q123.93 36.75 122.90 38.04L122.91 38.06L122.91 38.05Q121.79 39.53 119.93 39.34L119.92 39.33L119.75 39.15Q118.60 39.31 117.65 38.89L117.52 38.75L117.50 38.74Q117.23 38.01 117.23 36.79L117.29 36.85L117.34 36.89Q117.24 36.49 117.24 36.19L117.16 36.11L117.18 36.13Q117.17 34.37 118.51 33.21L118.45 33.15L118.48 33.19Q119.94 32.15 121.69 32.23Z"/></svg>