<svg xmlns="http://www.w3.org/2000/svg" width="150" height="50" viewBox="0,0,150,50"><path fill="#222" d="M23.89 20.03L24.04 20.18L23.93 20.08Q19.73 20.18 16.04 19.19L15.92 19.08L16.03 19.18Q17.47 23.66 17.66 28.50L17.69 28.53L17.56 28.40Q17.82 33.27 16.60 37.87L16.62 37.89L16.72 37.99Q19.35 37.20 22.85 37.04L23.00 37.19L23.02 37.21Q26.95 37.03 28.74 34.59L28.61 34.46L28.67 34.53Q30.17 32.45 30.36 28.34L30.38 28.36L30.30 28.28Q30.52 26.67 30.06 24.95L29.96 24.85L29.97 24.86Q28.71 20.14 23.99 20.14ZM12.13 42.19L12.16 42.23L12.14 42.20Q14.92 36.42 14.92 29.72L14.89 29.69L14.99 29.78Q14.86 21.13 10.56 14.13L10.69 14.26L10.61 14.18Q15.88 16.86 24.15 17.06L24.20 17.11L24.12 17.03Q33.05 17.28 33.39 24.44L33.41 24.46L33.46 24.51Q33.42 27.05 33.38 28.50L33.37 28.49L33.55 28.66Q33.44 33.31 32.60 35.48L32.62 35.50L32.55 35.43Q32.18 36.59 31.42 37.42L31.34 37.34L31.28 37.29Q29.96 38.86 27.33 39.36L27.38 39.40L27.42 39.44Q25.73 39.62 22.72 39.84L22.88 40.01L22.85 39.97Q16.64 40.35 12.04 42.10ZM30.09 42.11L29.94 41.96L30.08 42.10Q32.78 41.72 34.42 40.23L34.30 40.12L34.45 40.27Q35.58 38.42 35.54 35.68L35.45 35.60L35.44 35.58Q35.64 34.41 35.49 30.91L35.32 30.74L34.99 26.23L35.06 26.30Q34.87 24.01 33.92 21.92L33.92 21.91L33.87 21.87Q33.33 20.91 32.64 20.26L32.66 20.28L32.65 20.11L32.64 20.11Q30.89 17.10 26.47 16.72L26.56 16.80L26.51 16.75Q23.88 16.68 16.88 15.95L16.95 16.02L16.89 15.96Q13.67 15.56 9.97 13.54L9.93 13.50L9.95 13.52Q14.82 20.94 14.82 29.69L14.63 29.51L14.64 29.51Q14.70 36.58 11.35 42.75L11.39 42.79L11.38 42.77Q12.05 42.50 13.38 42.00L13.45 42.07L13.43 42.05Q13.01 42.81 12.14 44.30L12.25 44.41L12.16 44.32Q15.27 43.32 18.62 42.82L18.51 42.72L18.55 42.75Q20.67 42.47 24.32 42.36L24.33 42.36L24.20 42.23Q28.20 42.24 30.03 42.05ZM30.01 28.37L30.08 28.43L30.13 28.48Q29.70 36.43 23.00 36.81L22.89 36.70L22.91 36.72Q21.07 36.94 19.02 37.21L18.93 37.12L19.05 37.23Q19.59 33.21 19.59 29.56L19.66 29.62L19.68 29.65Q19.54 25.82 18.82 21.97L19.00 22.15L18.96 22.11Q21.13 22.38 25.81 22.38L25.80 22.36L25.87 22.43Q27.20 22.24 28.83 23.19L28.80 23.15L28.91 23.27Q30.15 25.49 30.00 28.35Z"/><path fill="#111" d="M67.24 33.03L67.11 32.90L67.13 32.92Q70.31 32.64 73.51 32.75L73.47 32.71L73.46 32.70Q73.51 30.24 73.51 27.84L73.47 27.80L73.42 27.75Q73.50 25.36 73.69 22.81L73.51 22.63L73.55 22.66Q72.33 24.38 67.12 32.91ZM77.14 40.38L77.03 40.27L77.14 40.38Q75.33 39.94 73.54 39.87L73.54 39.87L73.50 39.82Q73.50 37.66 73.39 35.18L73.30 35.10L73.37 35.16Q67.94 34.88 63.22 36.29L63.23 36.29L63.25 36.31Q63.26 35.71 63.45 34.72L63.58 34.85L63.45 34.73Q65.31 31.64 68.89 25.35L69.00 25.46L69.00 25.46Q71.80 20.49 75.22 16.61L75.16 16.55L75.33 16.71Q76.20 16.52 77.87 16.25L77.73 16.11L77.73 16.11Q75.83 22.55 75.83 29.59L75.96 29.72L75.80 29.56Q75.97 31.22 76.05 32.70L75.89 32.54L77.31 32.79L77.34 32.81Q77.82 32.72 78.43 32.84L78.38 32.78L78.52 32.92Q78.61 33.89 78.87 35.83L78.80 35.76L78.84 35.80Q77.60 35.51 76.11 35.31L76.13 35.34L76.08 35.28Q76.45 37.45 77.14 40.38ZM78.67 32.43L78.66 32.42L78.82 32.58Q78.63 32.51 78.44 32.51L78.34 32.40L77.94 32.38L78.03 32.48Q77.88 30.96 77.88 29.55L77.80 29.47L77.88 29.55Q77.78 23.05 79.84 17.04L79.84 17.04L79.94 17.14Q79.19 17.41 77.74 17.79L77.62 17.68L77.74 17.79Q77.94 17.01 78.40 15.60L78.47 15.67L78.45 15.65Q77.04 15.92 74.98 16.14L75.06 16.22L75.10 16.26Q71.22 20.64 66.01 30.01L65.99 29.99L68.10 26.36L68.01 26.26Q67.57 27.27 67.31 27.84L67.30 27.84L62.84 36.86L62.80 36.81Q63.60 36.81 64.74 36.43L64.63 36.32L64.56 36.63L64.57 36.64Q64.38 37.25 64.07 38.51L64.07 38.50L64.16 38.59Q68.12 37.11 72.95 37.30L72.97 37.31L73.07 37.41Q73.11 38.37 73.30 40.35L73.27 40.32L73.17 40.21Q74.30 40.28 75.36 40.39L75.47 40.50L75.45 40.48Q75.50 41.06 75.77 42.43L75.87 42.54L75.87 42.54Q77.68 42.67 80.69 43.59L80.68 43.58L80.62 43.52Q79.75 41.50 78.83 38.23L78.74 38.13L80.18 38.59L80.21 38.62Q80.92 38.87 81.61 39.21L81.68 39.28L81.55 39.16Q80.74 36.63 80.59 34.96L80.61 34.98L80.69 35.06Q80.16 34.95 79.02 34.72L79.04 34.74L78.99 34.69Q78.67 33.30 78.67 32.43ZM70.70 32.30L70.68 32.28L70.82 32.42Q71.51 31.05 73.07 28.50L73.05 28.49L73.02 28.45Q72.98 29.37 72.95 30.32L73.08 30.45L72.94 30.31Q73.04 31.41 73.08 32.36L72.99 32.27L73.07 32.35Q72.46 32.28 71.89 32.28L71.93 32.31L72.00 32.38Q71.43 32.43 70.82 32.43Z"/><path fill="#222" d="M95.82 29.25L95.68 29.11L95.67 29.10Q93.84 29.14 92.62 30.47L92.76 30.60L92.64 30.49Q91.37 31.77 91.22 33.67L91.25 33.71L91.39 33.84Q91.10 35.88 92.32 36.89L92.25 36.82L92.33 36.90Q93.51 37.87 95.64 37.79L95.74 37.89L95.65 37.80Q97.94 37.62 98.89 36.66L98.86 36.64L98.87 36.64Q100.05 35.35 99.94 33.52L99.77 33.36L99.80 33.39Q99.70 31.53 98.61 30.33L98.76 30.48L98.62 30.34Q97.66 29.27 95.83 29.27ZM95.78 19.81L95.70 19.73L95.81 19.84Q94.30 19.62 92.97 20.12L92.97 20.12L92.95 20.10Q91.70 20.94 91.93 22.81L91.99 22.88L91.87 22.75Q92.37 26.49 95.72 26.49L95.84 26.61L95.69 26.46Q97.34 26.74 98.33 25.60L98.21 25.48L98.26 25.53Q99.32 24.45 99.35 22.89L99.39 22.93L99.34 22.87Q99.43 21.13 98.70 20.52L98.75 20.57L98.60 20.42Q97.06 19.72 95.77 19.80ZM95.36 40.22L95.50 40.35L92.48 40.38L92.45 40.35Q90.84 40.26 89.51 39.39L89.55 39.43L89.58 39.46Q88.20 38.31 88.35 35.45L88.31 35.41L88.31 35.41Q88.86 28.65 92.48 27.66L92.49 27.67L92.47 27.65Q90.11 26.66 88.78 21.30L88.79 21.31L88.80 21.32Q88.51 19.96 88.58 19.16L88.61 19.19L88.45 19.03Q88.89 17.03 92.58 16.99L92.54 16.95L92.57 16.98Q96.75 16.86 98.20 17.05L98.22 17.07L98.20 17.05Q102.08 17.62 102.54 19.64L102.57 19.67L102.43 19.53Q102.63 20.23 102.63 20.61L102.68 20.66L102.54 20.51Q102.58 21.25 102.39 21.86L102.49 21.95L102.41 21.87Q101.72 26.02 98.79 27.54L98.80 27.55L98.88 27.63Q102.35 28.40 102.85 33.69L102.90 33.74L102.88 33.73Q102.83 33.83 102.87 35.12L102.95 35.20L102.90 35.15Q102.91 37.83 101.31 38.89L101.32 38.90L101.41 38.99Q99.95 39.78 95.38 40.24ZM97.77 42.67L97.72 42.62L101.10 42.72L101.02 42.64Q102.75 42.73 104.27 42.00L104.33 42.06L104.38 42.11Q105.49 41.36 105.56 39.49L105.57 39.50L105.59 39.52Q105.50 38.29 105.12 36.34L105.16 36.38L105.25 36.48Q104.33 31.83 102.24 29.96L102.28 30.00L101.94 29.47L101.75 29.21L101.75 29.09L101.65 28.99Q103.20 27.53 104.11 23.38L104.13 23.40L104.21 23.49Q104.11 23.00 104.19 22.16L104.27 22.25L104.19 22.17Q104.34 21.55 104.26 20.94L104.37 21.06L104.21 20.89Q104.21 19.60 103.03 19.10L102.98 19.06L102.98 19.02L102.80 18.91L102.70 18.81Q102.63 18.28 101.45 17.48L101.35 17.39L101.31 17.31L101.47 17.46Q99.46 16.75 95.39 16.56L95.27 16.45L95.30 16.48Q93.83 16.45 92.46 16.56L92.34 16.45L92.44 16.54Q91.59 16.53 90.29 16.68L90.35 16.74L90.27 16.66Q88.34 17.05 88.11 18.69L88.10 18.68L88.07 18.64Q88.03 19.14 88.07 19.94L88.21 20.08L88.19 20.07Q88.29 20.58 88.86 22.94L88.73 22.82L88.76 22.84Q89.53 26.05 91.29 27.38L91.40 27.50L91.54 27.64L91.47 27.57Q88.69 28.86 88.16 34.04L88.22 34.10L88.18 34.06Q87.90 36.18 87.90 37.10L87.95 37.14L87.88 37.08Q87.97 38.88 89.15 39.79L89.23 39.87L89.15 39.79Q89.33 39.93 89.59 40.12L89.54 40.06L89.67 40.20Q90.60 42.39 97.72 42.61ZM97.32 31.47L97.43 31.58L97.44 31.60Q98.33 31.50 99.21 31.96L99.16 31.91L99.25 32.00Q99.55 32.90 99.51 33.44L99.48 33.40L99.62 33.55Q99.53 33.72 99.53 34.03L99.64 34.14L99.61 34.11Q99.53 36.39 97.25 37.23L97.18 37.16L97.37 37.35Q96.42 37.50 95.62 37.39L95.59 37.37L95.60 37.37Q94.51 37.50 93.37 37.04L93.48 37.15L93.52 37.19Q93.23 36.52 93.30 35.53L93.16 35.39L93.15 35.38Q93.31 33.79 94.51 32.57L94.55 32.61L94.66 32.72Q95.78 31.42 97.38 31.54ZM97.59 22.04L97.68 22.13L97.66 22.11Q98.36 21.90 98.89 22.05L98.92 22.08L99.01 22.96L98.86 22.81Q98.96 24.32 98.05 25.33L98.05 25.34L98.14 25.42Q97.12 26.32 95.75 26.13L95.73 26.11L95.72 26.11Q94.69 26.07 94.27 25.84L94.37 25.94L94.25 25.82Q94.38 25.72 94.26 25.03L94.27 25.04L94.19 24.96Q93.94 23.56 95.15 22.72L95.18 22.75L95.18 22.75Q96.17 21.99 97.58 22.03Z"/><path fill="#444" d="M46.55 19.59L46.59 19.62L46.73 19.77Q44.73 19.87 43.78 20.02L43.61 19.85L43.77 20.01Q42.04 20.14 40.82 20.68L40.91 20.76L40.83 20.68Q37.25 22.05 37.14 26.74L37.20 26.80L37.22 26.82Q37.24 29.58 37.89 32.51L37.87 32.50L37.86 32.48Q38.68 36.47 42.30 37.65L42.33 37.67L42.19 37.54Q44.28 38.30 45.73 38.15L45.60 38.01L46.06 38.02L45.97 37.93Q46.22 37.99 46.41 38.03L46.50 38.12L46.44 38.06Q46.58 38.05 46.74 38.01L46.74 38.01L46.79 38.07Q49.31 37.69 50.68 37.12L50.83 37.27L47.12 33.60L47.08 33.56Q47.57 33.40 48.18 32.79L48.17 32.79L49.03 31.82L49.13 31.91Q50.78 33.80 52.76 35.85L52.82 35.91L52.85 35.94Q55.14 34.08 55.41 28.71L55.40 28.71L55.50 28.81Q55.47 27.79 55.47 26.88L55.43 26.84L55.52 26.92Q55.46 21.19 50.40 20.08L50.45 20.14L50.38 20.07Q49.14 19.82 46.63 19.67ZM59.47 41.80L59.47 41.80L59.31 41.64Q58.79 42.14 57.61 43.02L57.59 43.00L53.28 39.42L53.29 39.42Q50.72 40.55 46.45 40.58L46.51 40.64L46.46 40.59Q39.95 40.74 37.13 38.49L37.04 38.40L37.19 38.56Q35.41 36.77 34.95 33.80L34.90 33.75L34.94 33.79Q34.65 31.90 34.27 28.32L34.20 28.25L34.32 28.37Q34.38 27.71 34.27 25.96L34.18 25.87L34.23 25.92Q34.06 24.35 34.10 23.47L34.06 23.44L34.09 23.46Q34.12 20.33 35.87 18.77L36.03 18.93L35.84 18.74Q37.51 17.55 40.71 17.06L40.60 16.95L40.58 16.94Q43.08 16.58 45.98 16.66L46.01 16.69L46.03 16.71Q53.44 16.73 56.56 19.09L56.65 19.18L56.55 19.09Q58.75 21.25 58.49 26.16L58.62 26.29L58.51 26.18Q58.29 29.81 58.10 31.14L58.25 31.29L58.16 31.20Q57.53 35.71 55.21 38.03L55.20 38.03L55.11 37.94Q56.60 39.20 59.34 41.67ZM54.63 17.55L54.46 17.37L54.56 17.48Q52.47 16.68 45.96 16.19L45.93 16.15L46.05 16.27Q44.56 16.19 41.78 16.31L41.89 16.41L41.87 16.39Q37.64 16.62 35.39 18.60L35.49 18.69L35.47 18.67Q33.78 20.10 33.78 23.26L33.70 23.18L33.75 23.24Q33.69 24.01 33.84 25.72L33.92 25.80L33.95 25.83Q34.11 27.55 34.11 28.43L34.08 28.40L34.12 28.44Q34.08 30.00 34.46 33.58L34.55 33.67L34.65 33.77Q34.98 36.61 36.57 38.66L36.58 38.67L36.51 38.60Q36.88 39.46 38.10 40.60L38.02 40.52L38.05 40.55Q40.82 42.60 46.00 42.87L45.98 42.85L46.01 42.88Q46.28 42.81 48.68 42.92L48.69 42.94L48.80 43.05Q53.61 43.21 55.90 42.15L55.78 42.03L55.86 42.11Q56.72 42.78 61.44 46.36L61.34 46.26L61.31 46.23Q61.98 45.76 63.27 44.77L63.29 44.78L63.29 44.78Q62.47 44.15 61.67 43.46L61.55 43.34L59.86 41.85L60.01 41.84L60.07 41.90Q59.55 41.50 58.34 40.47L58.34 40.48L58.32 40.46Q60.11 37.83 60.11 33.30L60.09 33.28L60.18 33.37Q60.28 33.05 60.32 32.22L60.30 32.20L60.16 32.06Q60.36 31.38 60.36 30.96L60.34 30.94L60.16 30.77Q60.17 25.25 59.45 22.89L59.48 22.92L59.57 23.02Q59.13 21.67 58.26 20.60L58.26 20.60L58.27 20.61Q57.47 18.48 54.54 17.45ZM48.54 22.03L48.48 21.98L48.57 22.07Q52.55 21.90 54.38 23.50L54.44 23.56L54.51 23.63Q54.97 24.73 55.08 26.06L55.14 26.12L55.16 26.15Q55.13 27.30 55.06 28.67L55.16 28.77L55.08 28.69Q54.84 33.75 52.90 35.46L52.76 35.32L52.92 35.48Q51.60 34.16 49.09 31.41L48.96 31.29L49.09 31.42Q48.16 32.01 46.60 33.57L46.61 33.58L46.66 33.63Q47.27 34.29 48.42 35.47L48.38 35.43L48.40 35.56L48.33 35.49Q48.93 36.06 49.96 37.12L49.88 37.04L49.85 37.01Q48.83 37.25 46.51 37.55L46.59 37.64L46.14 37.71L45.75 37.75L45.58 37.61L45.54 37.58Q42.10 37.60 40.12 35.96L40.22 36.06L40.29 36.14Q39.12 33.89 39.15 30.77L39.25 30.86L39.25 30.86Q39.31 22.06 48.49 21.98Z"/><path fill="#333" d="M124.79 30.97L124.72 30.89L124.64 30.82Q124.73 29.38 123.91 28.47L123.97 28.53L123.93 28.49Q123.07 27.53 121.62 27.57L121.75 27.70L121.63 27.58Q119.35 27.70 118.52 29.83L118.47 29.79L118.54 29.86Q118.25 30.63 118.21 31.32L118.32 31.42L118.29 31.40Q117.94 36.11 117.03 40.45L117.03 40.45L117.04 40.46Q115.36 40.99 113.50 41.98L113.61 42.10L113.62 42.10Q115.76 35.00 115.50 27.69L115.58 27.77L115.52 27.72Q115.21 20.32 112.66 13.51L112.82 13.67L112.75 13.60Q114.49 14.88 116.51 15.57L116.49 15.55L116.62 15.68Q118.08 21.48 118.27 27.34L118.14 27.21L118.12 27.19Q119.53 25.13 122.23 25.21L122.31 25.29L122.27 25.25Q127.29 25.28 127.40 30.65L127.49 30.74L127.47 30.71Q127.61 36.41 128.98 41.06L129.08 41.16L129.06 41.14Q127.04 40.15 125.29 39.96L125.31 39.97L125.29 39.95Q124.92 36.85 124.81 30.99ZM124.93 40.25L124.94 40.25L124.97 40.29Q126.12 40.52 127.22 40.79L127.16 40.73L127.20 40.77Q127.29 40.96 127.82 42.94L127.83 42.95L127.75 42.87Q130.82 43.92 132.83 45.37L132.69 45.22L132.70 45.24Q129.97 39.42 129.43 33.10L129.50 33.17L129.50 33.17Q129.24 29.52 127.84 27.96L127.74 27.87L127.87 28.00Q127.84 27.89 127.20 27.44L127.14 27.38L127.08 27.32Q126.98 26.96 126.34 26.19L126.16 26.02L126.36 26.15L126.26 26.05Q125.45 25.23 122.32 24.96L122.21 24.85L122.38 25.02Q121.55 24.92 120.15 25.26L120.22 25.33L120.14 25.25Q119.88 20.35 119.54 17.83L119.62 17.92L119.62 17.92Q118.79 17.73 117.30 17.43L117.33 17.45L117.39 17.52Q117.11 16.66 116.84 15.18L116.99 15.33L116.84 15.17Q114.01 14.32 112.14 12.76L112.09 12.70L112.14 12.76Q115.10 19.91 115.37 27.71L115.35 27.69L115.34 27.69Q115.58 35.42 113.03 42.77L112.96 42.70L112.96 42.71Q114.01 42.23 115.15 41.73L115.11 41.69L114.46 44.05L114.46 44.05Q117.54 42.68 119.52 42.49L119.48 42.44L119.46 42.43Q120.06 37.05 120.26 33.10L120.32 33.16L120.22 33.06Q120.29 31.19 122.23 30.09L122.24 30.09L122.30 30.16Q122.69 29.79 123.23 29.82L123.30 29.89L123.22 29.82Q123.43 29.88 123.78 29.92L123.81 29.95L124.18 29.98L124.23 30.03Q124.27 30.45 124.39 30.91L124.41 30.93L124.48 31.00Q124.59 36.97 125.08 40.40Z"/></svg>