<svg xmlns="http://www.w3.org/2000/svg" width="150" height="50" viewBox="0,0,150,50"><path fill="#111" d="M31.05 41.49L31.12 41.56L31.04 41.48Q29.08 41.23 26.91 41.08L26.83 41.01L26.91 41.08Q25.36 39.53 22.69 35.69L22.64 35.64L22.70 35.69Q20.46 38.75 18.06 41.18L18.13 41.25L16.05 41.64L15.99 41.58Q15.02 41.87 14.03 42.14L13.95 42.05L14.04 42.15Q18.27 38.08 21.28 33.96L21.26 33.95L21.25 33.93Q17.90 29.67 12.49 24.87L12.49 24.87L12.42 24.81Q14.75 25.64 17.45 26.06L17.50 26.11L17.51 26.12Q20.97 29.24 22.87 31.94L22.86 31.93L22.80 31.87Q24.85 28.74 27.59 26.23L27.66 26.30L27.59 26.23Q30.70 25.95 32.53 25.46L32.61 25.54L32.46 25.39Q27.98 29.09 24.29 33.66L24.22 33.60L24.27 33.65Q27.69 38.36 31.16 41.60ZM34.06 24.78L33.95 24.67L33.89 24.61Q31.04 25.49 27.50 25.84L27.53 25.86L27.57 25.91Q24.59 28.48 22.87 30.95L22.92 31.00L22.90 30.98Q22.10 30.03 20.47 28.05L20.51 28.10L20.22 28.00L20.30 28.07Q20.07 27.96 19.96 27.96L19.91 27.91L19.89 27.90Q19.29 27.22 17.65 25.77L17.51 25.63L17.65 25.77Q14.01 25.18 11.16 23.96L11.23 24.03L11.16 23.97Q16.65 28.73 20.69 33.87L20.60 33.78L20.71 33.89Q17.38 38.55 12.96 42.85L12.83 42.72L12.97 42.87Q13.09 42.64 16.59 41.80L16.65 41.86L16.61 41.82Q15.16 43.23 13.52 44.56L13.42 44.46L13.44 44.48Q16.76 43.69 19.92 43.50L19.77 43.35L19.91 43.49Q22.27 41.20 24.18 38.46L24.19 38.48L24.18 38.47Q25.49 40.12 26.71 41.30L26.82 41.42L26.73 41.32Q26.81 41.29 26.89 41.36L26.93 41.40L27.19 41.47L27.17 41.46Q28.44 42.58 29.78 43.64L29.65 43.52L29.80 43.67Q33.38 44.20 36.27 45.23L36.26 45.21L36.28 45.24Q30.15 40.82 26.46 35.64L26.38 35.57L26.42 35.61Q29.98 30.48 34.55 26.41L34.55 26.41L34.57 26.44Q33.61 26.77 32.62 26.99L32.68 27.05L30.71 27.56L30.67 27.52Q31.77 26.53 33.94 24.66Z"/><path fill="#333" d="M50.62 29.44L50.75 29.58L50.71 29.53Q49.52 28.77 48.87 28.81L48.87 28.80L48.88 28.81Q47.51 28.88 46.46 29.89L46.48 29.91L46.45 29.89Q45.33 30.82 45.44 32.19L45.47 32.21L45.55 32.30Q45.79 36.57 44.91 41.10L44.92 41.11L44.96 41.15Q42.61 41.46 41.51 42.00L41.51 42.00L41.69 42.18Q43.05 37.87 42.82 33.41L42.89 33.48L42.87 33.46Q42.54 28.87 40.83 24.80L41.00 24.97L40.88 24.84Q42.00 25.50 44.28 26.15L44.36 26.23L44.93 28.94L44.96 28.97Q45.52 25.94 49.78 25.94L49.92 26.09L49.94 26.11Q50.28 25.98 50.58 25.98L50.61 26.01L50.57 25.97Q51.83 25.93 53.08 26.62L53.01 26.55L53.14 26.67Q51.73 27.93 50.58 29.41ZM52.33 31.54L52.30 31.35L52.35 31.41Q53.33 30.33 55.01 27.90L54.96 27.85L54.89 27.77Q54.50 27.50 52.98 27.24L52.93 27.18L53.02 27.27Q53.39 27.00 53.84 26.39L53.72 26.27L53.67 26.21Q51.78 25.31 49.84 25.51L49.89 25.56L50.00 25.67Q47.92 25.72 47.20 25.99L47.18 25.97L47.30 26.09Q45.79 26.40 44.99 27.51L45.12 27.64L44.90 26.78L44.62 25.85L44.68 25.91Q42.21 25.41 40.23 24.08L40.23 24.08L40.31 24.16Q42.48 28.58 42.71 33.45L42.59 33.33L42.70 33.44Q42.78 38.20 41.02 42.73L41.02 42.72L41.08 42.79Q42.18 42.33 43.06 42.02L42.96 41.92L43.04 42.00Q42.76 43.09 42.26 44.16L42.20 44.10L42.21 44.10Q45.14 43.35 47.28 43.23L47.19 43.15L47.46 38.69L47.48 38.71Q47.57 36.45 47.57 34.20L47.58 34.21L47.66 34.29Q47.56 33.02 48.48 32.04L48.48 32.05L48.57 32.14Q49.38 31.07 50.53 30.99L50.49 30.95L50.59 31.05Q51.20 30.91 51.93 31.59L51.98 31.65L52.21 31.41ZM47.33 29.73L47.24 29.57L47.29 29.73L47.25 29.66Z"/><path fill="#222" d="M68.49 40.43L68.49 40.43L68.51 40.45Q64.37 40.61 63.38 38.29L63.40 38.30L63.36 38.26Q64.04 37.24 65.60 35.45L65.65 35.50L65.76 35.60Q66.25 37.61 69.25 37.73L69.29 37.76L69.12 37.60Q72.51 37.67 74.15 36.34L74.32 36.51L74.24 36.43Q75.72 34.90 75.64 32.20L75.56 32.11L75.57 32.12Q75.34 26.99 70.54 27.21L70.54 27.21L70.55 27.23Q67.81 27.45 66.05 28.70L66.08 28.73L65.61 28.41L65.44 28.32L65.60 28.47Q65.83 25.20 65.72 22.46L65.67 22.42L65.65 22.40Q65.72 19.95 65.37 16.64L65.35 16.62L65.23 16.49Q68.99 17.55 72.80 17.44L72.82 17.46L72.72 17.36Q76.58 17.34 80.16 16.08L80.22 16.14L79.59 17.61L79.51 17.53Q79.19 18.27 79.00 19.11L79.02 19.13L79.14 19.26Q75.99 20.25 72.11 20.25L71.97 20.12L72.04 20.18Q70.60 20.19 69.12 20.04L69.18 20.10L69.22 20.14Q68.96 20.64 68.61 25.10L68.75 25.23L68.66 25.14Q69.56 24.75 71.62 24.59L71.55 24.53L71.62 24.60Q75.32 24.79 76.76 26.47L76.76 26.47L76.82 26.53Q78.24 28.10 78.51 31.95L78.46 31.90L78.39 31.83Q78.72 36.07 77.50 38.09L77.48 38.07L77.39 37.99Q75.42 39.93 72.10 40.16L72.22 40.28L72.13 40.18Q71.11 40.23 68.45 40.39ZM74.59 42.76L74.45 42.62L74.53 42.70Q77.93 42.75 79.84 41.65L79.80 41.62L79.84 41.65Q80.84 40.14 80.84 38.05L80.85 38.05L80.87 38.08Q80.74 34.86 79.79 30.75L79.77 30.74L79.82 30.79Q79.58 29.17 78.36 27.76L78.28 27.68L78.21 27.65L78.12 27.48L77.68 27.20L77.68 27.20Q77.35 26.45 76.70 25.76L76.71 25.77L76.86 25.96L76.79 25.89Q75.24 24.18 71.55 24.18L71.62 24.26L71.20 24.10L71.21 24.12Q71.46 23.72 71.65 22.62L71.55 22.51L71.51 22.47Q76.60 22.69 80.64 21.05L80.64 21.06L80.61 21.03Q81.03 19.61 81.98 16.80L82.03 16.85L79.76 17.63L79.86 17.73Q80.32 16.67 80.82 15.52L80.74 15.44L80.77 15.47Q76.82 16.82 72.71 16.89L72.84 17.02L72.86 17.05Q68.75 17.16 64.79 16.06L64.79 16.06L64.62 15.88Q65.30 20.30 65.30 24.71L65.42 24.84L65.31 24.73Q65.30 26.62 65.19 28.52L65.27 28.60L65.34 28.68Q65.52 28.78 66.09 29.08L66.19 29.18L66.21 29.20Q66.54 28.97 67.19 28.62L67.04 28.47L67.10 28.53Q67.14 29.38 66.92 30.90L66.74 30.72L66.78 30.76Q67.29 31.04 67.71 31.27L67.64 31.20L67.66 31.22Q70.40 29.44 72.27 29.44L72.31 29.48L72.25 29.41Q73.63 29.46 74.81 30.11L74.78 30.08L74.79 30.09Q75.18 31.16 75.22 32.12L75.20 32.10L75.30 32.20Q75.32 34.74 74.30 35.84L74.36 35.90L74.23 35.78Q72.91 37.04 70.66 37.27L70.59 37.20L70.58 37.18Q69.60 37.24 68.92 37.16L69.03 37.28L69.07 37.32Q68.17 37.14 67.41 36.79L67.45 36.83L67.39 36.58L67.18 36.61L67.21 36.64Q66.42 36.15 65.89 34.82L65.89 34.82L65.91 34.84Q64.59 36.27 62.92 38.40L62.95 38.43L62.88 38.36Q63.30 39.12 64.13 40.07L64.16 40.10L64.02 39.95Q65.17 41.87 67.99 42.36L68.00 42.37L68.02 42.39Q69.09 42.51 74.46 42.63Z"/><path fill="#333" d="M95.93 41.18L95.89 41.15L94.19 41.16L94.21 41.18Q90.72 41.07 89.77 38.94L89.80 38.98L89.80 38.97Q91.02 37.99 92.47 36.89L92.41 36.82L92.37 36.79Q93.03 39.04 95.88 38.89L95.90 38.91L95.98 38.99Q96.63 38.80 97.66 38.58L97.81 38.73L97.79 38.70Q98.72 38.19 98.65 37.24L98.53 37.13L98.56 37.16Q98.40 35.97 96.61 35.28L96.78 35.44L92.97 33.92L92.96 33.91Q90.47 32.41 90.13 28.87L90.24 28.98L90.26 29.01Q89.94 26.74 92.11 26.17L92.22 26.28L92.19 26.25Q93.18 26.06 96.15 26.06L96.07 25.98L96.02 25.93Q101.01 26.05 101.92 28.56L101.91 28.55L102.00 28.64Q101.31 29.13 100.59 29.58L100.50 29.50L99.15 30.51L99.10 30.46Q98.56 28.51 95.33 28.29L95.39 28.34L95.45 28.41Q94.74 28.30 93.71 28.72L93.89 28.91L93.86 28.87Q93.27 29.20 93.27 30.30L93.19 30.22L93.21 30.24Q93.56 31.32 95.39 32.00L95.35 31.96L95.42 32.03Q96.51 32.44 99.18 33.54L99.20 33.57L99.12 33.48Q101.00 34.37 101.19 36.92L101.09 36.83L101.19 36.93Q101.27 37.58 101.20 38.57L101.12 38.50L101.20 38.57Q101.16 39.44 100.58 40.09L100.57 40.08L100.54 40.05Q98.83 41.04 95.79 41.04ZM100.73 43.81L100.56 43.65L100.69 43.78Q101.53 43.73 102.90 43.43L103.02 43.56L102.99 43.52Q104.01 42.79 103.82 41.57L103.90 41.66L103.91 41.66Q103.71 40.97 103.40 39.37L103.33 39.29L103.50 39.47Q102.83 36.39 101.04 35.17L101.01 35.15L101.10 35.24Q100.54 33.80 99.28 33.07L99.40 33.19L99.36 33.16Q98.05 32.69 95.58 31.73L95.61 31.76L95.51 31.66Q95.81 31.35 96.07 31.24L96.03 31.19L95.91 31.08Q96.62 30.72 97.27 30.68L97.31 30.72L97.36 30.77Q98.11 30.69 98.87 30.96L98.87 30.95L98.88 31.04L98.90 30.94L99.15 31.01L99.14 31.03L99.17 31.06Q100.21 31.50 100.40 32.75L100.54 32.89L100.43 32.78Q101.70 31.96 103.61 30.28L103.70 30.37L103.68 30.35Q103.36 29.58 102.37 28.40L102.34 28.37L102.46 28.49Q101.12 25.59 96.02 25.48L96.07 25.53L96.10 25.55Q92.89 25.47 90.91 26.04L90.89 26.02L90.90 26.03Q89.56 26.66 89.79 28.76L89.86 28.83L89.83 28.80Q89.84 29.96 90.76 32.05L90.85 32.14L90.80 32.10Q91.35 33.21 92.38 33.94L92.42 33.98L92.42 33.98Q93.05 35.41 94.34 36.10L94.41 36.16L94.28 36.03Q95.36 36.42 96.31 36.80L96.20 36.70L98.10 37.45L98.15 37.50Q97.75 38.55 95.81 38.43L95.96 38.59L95.87 38.50Q95.49 38.62 94.28 38.31L94.15 38.19L94.24 38.13L94.12 38.23L94.06 38.17Q93.15 37.76 92.51 36.28L92.65 36.41L92.61 36.38Q90.54 38.00 89.44 39.15L89.25 38.96L89.43 39.13Q89.70 40.01 90.72 40.81L90.64 40.72L90.52 40.92L90.39 40.79Q92.00 43.08 96.22 43.46L96.07 43.31L96.10 43.33Q97.34 43.43 100.58 43.66Z"/><path fill="#444" d="M117.32 33.34L117.28 33.30L117.36 33.38Q117.16 36.14 115.98 40.79L115.91 40.72L116.02 40.83Q114.07 41.20 112.47 42.00L112.49 42.02L112.58 42.11Q115.24 35.14 114.97 27.72L114.87 27.62L114.99 27.73Q114.52 20.14 111.43 13.41L111.63 13.60L111.47 13.44Q113.61 14.90 115.48 15.47L115.33 15.32L115.47 15.46Q117.51 22.34 117.51 29.00L117.57 29.06L117.53 29.02Q117.56 30.50 117.49 31.98L117.41 31.91L117.47 31.97Q118.67 30.80 123.88 25.85L123.80 25.77L123.86 25.83Q124.98 25.85 125.97 25.77L125.95 25.76L127.97 25.52L127.94 25.50Q124.90 28.62 120.60 32.39L120.57 32.37L120.44 32.23Q123.87 35.05 130.34 40.87L130.43 40.96L130.43 40.97Q127.70 40.06 124.73 39.87L124.70 39.85L124.69 39.83Q122.09 37.66 117.22 33.24ZM127.08 42.38L127.15 42.45L127.13 42.43Q131.87 43.29 134.99 45.23L135.01 45.25L135.11 45.34Q133.75 43.86 131.12 41.46L131.18 41.52L131.16 41.50Q131.51 41.70 131.78 41.82L131.70 41.74L131.69 41.73Q129.59 39.70 127.34 37.80L127.47 37.93L122.91 33.90L123.02 34.01Q127.90 29.71 130.33 26.82L130.36 26.85L130.35 26.84Q129.21 27.00 126.74 27.26L126.63 27.16L126.66 27.19Q128.31 25.78 128.99 24.95L128.84 24.79L128.98 24.94Q126.11 25.34 123.63 25.34L123.72 25.42L123.65 25.36Q122.30 26.71 119.56 29.37L119.51 29.32L119.54 29.35Q119.60 23.63 118.61 17.80L118.54 17.73L118.49 17.69Q117.90 17.62 116.41 17.35L116.34 17.28L116.25 17.19Q116.08 16.45 115.62 14.97L115.68 15.02L115.69 15.03Q113.12 14.29 110.87 12.73L110.76 12.62L110.75 12.61Q114.31 19.56 114.66 27.67L114.52 27.53L114.71 27.72Q115.03 35.62 112.02 42.85L112.05 42.88L111.86 42.69Q112.71 42.55 114.04 41.90L114.00 41.86L114.02 41.88Q113.70 42.63 113.05 44.07L113.05 44.07L113.01 44.03Q115.98 43.08 118.11 42.70L117.98 42.56L118.01 42.60Q118.64 40.14 119.13 35.87L119.21 35.95L119.20 35.95Q121.67 38.07 127.11 42.41Z"/></svg>