<svg xmlns="http://www.w3.org/2000/svg" width="150" height="50" viewBox="0,0,150,50"><path fill="#222" d="M95.95 41.21L95.85 41.10L94.22 41.19L94.19 41.16Q90.79 41.15 89.84 39.01L89.89 39.06L89.79 38.96Q91.06 38.03 92.51 36.93L92.42 36.83L92.50 36.92Q92.93 38.95 95.79 38.80L95.80 38.81L95.79 38.80Q96.62 38.79 97.65 38.56L97.65 38.57L97.69 38.61Q98.61 38.08 98.54 37.13L98.63 37.22L98.54 37.13Q98.38 35.94 96.59 35.26L96.65 35.31L92.94 33.89L92.80 33.75Q90.46 32.40 90.12 28.86L90.24 28.99L90.30 29.05Q89.95 26.75 92.12 26.18L92.29 26.36L92.13 26.19Q93.12 26.00 96.09 26.00L96.08 25.99L96.21 26.13Q101.08 26.12 101.99 28.63L101.98 28.62L102.00 28.63Q101.16 28.97 100.43 29.43L100.61 29.61L99.10 30.46L99.21 30.56Q98.71 28.66 95.47 28.43L95.46 28.41L95.38 28.34Q94.82 28.39 93.79 28.80L93.85 28.87L93.87 28.89Q93.21 29.14 93.21 30.24L93.22 30.25L93.13 30.16Q93.59 31.35 95.42 32.03L95.43 32.04L95.40 32.01Q96.52 32.45 99.19 33.55L99.11 33.48L99.04 33.41Q100.87 34.24 101.06 36.79L101.14 36.87L101.23 36.97Q101.12 37.43 101.05 38.42L101.14 38.51L101.10 38.47Q101.09 39.38 100.52 40.02L100.50 40.01L100.57 40.07Q98.99 41.20 95.94 41.20ZM100.65 43.73L100.66 43.75L100.59 43.68Q101.52 43.73 102.89 43.42L102.85 43.39L102.95 43.48Q104.01 42.80 103.82 41.58L103.81 41.56L103.83 41.59Q103.68 40.94 103.38 39.34L103.48 39.45L103.50 39.46Q102.86 36.42 101.07 35.20L101.14 35.27L101.01 35.14Q100.60 33.86 99.34 33.14L99.28 33.08L99.27 33.06Q98.13 32.76 95.65 31.81L95.64 31.79L95.59 31.74Q95.83 31.38 96.10 31.26L96.06 31.22L96.09 31.26Q96.68 30.77 97.32 30.74L97.22 30.64L97.35 30.76Q97.98 30.56 98.75 30.83L98.82 30.90L98.90 31.06L98.99 31.04L99.17 31.03L99.08 30.97L99.19 31.08Q100.28 31.56 100.47 32.82L100.42 32.77L100.49 32.84Q101.68 31.93 103.58 30.26L103.67 30.35L103.61 30.28Q103.40 29.62 102.41 28.44L102.39 28.42L102.30 28.33Q101.12 25.59 96.02 25.48L96.21 25.66L96.06 25.51Q92.99 25.57 91.01 26.14L90.99 26.12L91.07 26.20Q89.60 26.71 89.83 28.80L89.76 28.73L89.75 28.72Q89.92 30.04 90.84 32.13L90.80 32.09L90.86 32.16Q91.30 33.17 92.33 33.89L92.45 34.01L92.33 33.89Q93.16 35.52 94.45 36.20L94.41 36.16L94.41 36.17Q95.36 36.43 96.31 36.81L96.18 36.68L98.15 37.50L98.25 37.60Q97.81 38.61 95.87 38.49L95.94 38.57L95.95 38.58Q95.50 38.62 94.28 38.31L94.34 38.38L94.25 38.13L94.08 38.19L94.08 38.19Q93.27 37.88 92.62 36.39L92.50 36.26L92.49 36.26Q90.50 37.97 89.40 39.11L89.34 39.05L89.42 39.12Q89.55 39.86 90.57 40.66L90.66 40.74L90.49 40.88L90.54 40.94Q91.84 42.92 96.07 43.30L96.10 43.33L96.21 43.45Q97.33 43.42 100.57 43.65Z"/><path fill="#333" d="M130.56 34.69L130.57 34.69L130.49 34.61Q130.62 38.32 127.46 39.61L127.40 39.56L127.37 39.52Q125.46 40.32 121.04 40.47L121.19 40.62L121.18 40.60Q116.26 40.60 114.02 39.42L114.10 39.50L114.13 39.53Q112.27 38.20 112.42 34.85L112.46 34.89L112.47 34.91Q112.45 34.24 112.64 32.26L112.56 32.17L112.68 32.29Q112.73 30.63 112.73 29.64L112.80 29.71L112.72 29.63Q112.72 21.64 108.53 14.22L108.51 14.19L108.59 14.28Q109.62 14.81 112.59 15.88L112.67 15.95L112.61 15.89Q115.64 22.77 115.64 30.15L115.50 30.01L115.48 29.99Q115.46 30.58 115.36 31.76L115.43 31.83L115.44 31.84Q115.35 33.03 115.35 33.64L115.35 33.64L115.28 33.56Q115.45 36.02 117.01 37.01L117.02 37.01L116.85 36.85Q118.53 37.68 121.49 37.68L121.44 37.63L121.43 37.62Q124.19 37.75 125.83 36.57L125.78 36.53L125.69 36.44Q127.59 35.14 127.44 32.63L127.41 32.60L127.51 32.69Q127.30 31.20 127.30 29.87L127.47 30.03L127.48 30.04Q127.46 22.98 129.86 16.47L129.72 16.33L131.93 15.80L131.86 15.73Q133.04 15.66 134.15 15.20L134.12 15.17L133.99 15.04Q130.25 22.15 130.25 29.73L130.32 29.80L130.32 29.80Q130.29 30.60 130.42 32.24L130.46 32.28L130.53 32.35Q130.57 33.90 130.57 34.70ZM132.70 35.57L132.80 35.66L132.73 35.59Q131.78 30.58 132.51 25.48L132.62 25.59L132.48 25.45Q133.30 20.33 135.70 15.96L135.67 15.92L135.63 15.89Q135.13 16.29 133.68 16.94L133.59 16.85L133.56 16.82Q133.92 15.96 134.72 14.40L134.87 14.55L134.81 14.49Q131.44 15.80 129.53 16.14L129.48 16.09L129.47 16.08Q127.14 22.62 127.14 29.89L127.03 29.78L126.99 29.74Q127.15 31.28 127.23 32.68L127.17 32.62L127.09 32.55Q127.32 35.02 125.53 36.23L125.44 36.15L125.45 36.16Q124.07 37.32 121.55 37.36L121.61 37.42L121.49 37.30Q118.66 37.29 117.21 36.52L117.28 36.59L117.35 36.66Q117.21 36.11 117.14 35.65L117.22 35.73L117.16 35.68Q117.06 35.11 117.17 34.62L117.16 34.61L117.14 34.59Q117.44 32.33 117.44 30.01L117.54 30.11L117.39 29.96Q117.53 24.28 116.01 18.38L116.01 18.38L115.90 18.27Q115.15 18.13 113.74 17.79L113.77 17.82L113.83 17.88Q113.32 16.45 112.86 15.54L112.89 15.57L112.88 15.55Q110.18 14.80 107.78 13.43L107.78 13.43L107.79 13.44Q112.46 21.07 112.46 29.79L112.33 29.66L112.43 29.76Q112.48 31.45 112.33 33.16L112.34 33.17L112.35 33.19Q111.97 35.43 112.05 36.61L112.18 36.75L112.20 36.76Q112.27 38.63 113.53 39.77L113.61 39.85L113.50 39.74Q114.53 42.26 119.18 42.64L119.12 42.58L119.12 42.58Q121.23 42.75 123.37 42.83L123.31 42.77L123.43 42.89Q128.66 42.95 131.44 42.00L131.61 42.16L131.53 42.09Q133.20 41.28 133.20 39.22L133.19 39.21L133.10 39.13Q133.08 37.96 132.62 35.49Z"/><path fill="#333" d="M75.33 30.94L75.34 30.95L75.30 30.91Q75.18 29.69 73.24 28.96L73.30 29.02L73.23 28.95Q72.72 28.74 72.19 28.74L72.28 28.84L72.12 28.68Q70.93 28.86 69.87 29.43L69.82 29.39L69.86 29.43Q68.45 30.11 68.56 31.33L68.56 31.32L68.61 31.38Q68.86 34.09 68.70 36.34L68.66 36.29L68.80 36.44Q68.63 38.86 67.91 41.37L67.78 41.24L67.86 41.32Q65.63 41.72 64.45 42.14L64.56 42.25L64.47 42.15Q66.16 38.63 66.16 34.63L66.17 34.64L66.21 34.68Q66.12 29.15 63.53 24.70L63.49 24.66L63.58 24.75Q64.84 25.28 67.24 26.01L67.21 25.98L67.10 25.87Q67.44 26.63 67.82 28.15L67.77 28.09L67.86 28.19Q69.21 26.11 73.09 26.18L73.00 26.09L72.96 26.05Q74.48 26.13 75.28 26.24L75.38 26.34L75.27 26.24Q78.32 26.70 78.40 28.72L78.33 28.65L78.46 28.77Q78.39 29.58 78.20 30.61L78.16 30.57L78.27 30.68Q77.82 33.20 78.01 36.21L77.98 36.18L77.97 36.17Q78.10 38.99 79.09 41.54L79.17 41.63L79.15 41.61Q77.36 41.11 75.65 40.96L75.63 40.94L75.61 40.93Q75.15 38.56 75.07 35.89L75.16 35.98L75.20 36.02Q75.06 33.21 75.29 30.89ZM75.24 41.27L75.36 41.40L75.30 41.34Q76.05 41.29 77.34 41.51L77.47 41.64L77.77 42.63L77.68 42.54Q78.02 43.18 78.25 43.72L78.09 43.56L78.26 43.73Q80.43 44.03 83.13 45.21L83.10 45.18L83.13 45.21Q80.78 42.10 80.09 38.29L80.17 38.36L80.14 38.33Q79.83 36.24 79.94 32.54L79.89 32.49L79.82 32.42Q79.91 32.20 79.94 31.40L79.88 31.33L79.95 31.41Q79.97 30.74 79.89 30.25L80.04 30.39L79.87 30.23Q79.81 28.60 78.71 28.11L78.69 28.09L78.70 28.11Q78.60 27.32 77.84 26.71L77.78 26.65L77.74 26.61Q76.05 25.60 73.00 25.68L73.06 25.73L73.00 25.67Q71.11 25.69 70.27 25.88L70.37 25.98L70.39 26.00Q68.83 26.22 67.87 27.13L67.96 27.22L67.93 27.19Q67.93 26.77 67.54 25.74L67.44 25.63L67.46 25.66Q64.60 24.93 62.77 23.94L62.73 23.89L62.86 24.02Q65.77 28.76 65.77 34.51L65.75 34.49L65.75 34.49Q65.85 38.96 63.94 42.81L64.02 42.88L63.87 42.74Q64.61 42.48 65.90 42.10L65.83 42.03L66.02 42.22Q65.38 43.34 64.85 44.33L64.87 44.34L64.87 44.34Q66.38 43.99 69.92 43.42L69.87 43.37L69.79 43.29Q70.90 38.27 70.78 33.43L70.66 33.30L70.79 33.44Q70.67 32.52 71.85 31.80L71.87 31.82L71.97 31.91Q72.86 31.13 73.96 31.02L74.08 31.13L74.07 31.12Q74.40 30.96 74.82 31.15L74.88 31.21L74.91 31.24Q74.68 33.71 74.72 36.26L74.84 36.39L74.81 36.36Q74.74 38.76 75.24 41.28Z"/><path fill="#222" d="M55.02 30.23L55.14 30.35L55.03 30.24Q55.24 29.96 55.20 29.54L55.33 29.67L55.16 29.50Q55.08 29.11 54.78 28.92L54.75 28.89L54.78 28.93Q54.18 28.47 53.30 28.63L53.23 28.55L53.26 28.58Q52.12 28.51 50.48 29.61L50.41 29.55L50.48 29.61Q49.04 30.50 49.04 31.68L49.18 31.81L49.03 31.66Q49.18 33.07 49.18 36.38L49.12 36.32L49.08 36.28Q49.13 38.92 49.28 40.94L49.22 40.88L49.23 40.88Q47.52 40.89 47.52 40.89L47.56 40.92L47.56 40.93Q46.56 40.89 45.84 40.96L45.86 40.98L45.77 40.89Q46.31 38.49 46.38 36.25L46.31 36.18L46.26 36.13Q46.49 31.56 45.84 30.27L45.84 30.27L45.84 30.26Q45.59 29.71 45.02 29.40L44.94 29.33L44.95 29.33Q44.03 28.53 42.47 28.42L42.61 28.55L42.58 28.53Q40.50 28.24 39.97 29.84L39.96 29.83L39.98 29.85Q39.76 30.27 39.87 30.77L40.03 30.93L40.02 30.92Q40.65 33.64 40.31 36.42L40.35 36.46L40.31 36.42Q39.87 39.10 38.46 41.54L38.65 41.72L38.55 41.62Q37.56 41.82 35.47 42.23L35.54 42.31L35.46 42.23Q37.86 38.88 37.86 34.58L38.01 34.73L37.87 34.59Q37.99 28.84 33.95 24.62L33.95 24.62L33.84 24.51Q34.63 24.84 35.58 25.07L35.58 25.07L37.34 25.49L37.34 25.49Q37.88 26.19 38.76 27.87L38.78 27.88L38.65 27.75Q38.77 25.82 41.21 25.79L41.27 25.84L41.40 25.97Q41.54 25.92 42.53 26.00L42.36 25.83L42.40 25.88Q47.50 26.29 48.64 29.11L48.54 29.00L48.59 29.06Q50.31 26.40 55.34 25.87L55.30 25.83L55.24 25.76Q55.99 25.64 56.86 25.75L56.98 25.87L56.91 25.80Q59.21 26.08 59.05 27.64L59.03 27.61L59.07 27.66Q58.96 28.27 58.69 29.03L58.60 28.94L58.65 28.99Q57.15 31.91 57.38 35.45L57.57 35.63L57.47 35.53Q57.73 39.07 59.64 41.89L59.49 41.75L59.57 41.82Q57.87 41.45 56.04 41.22L56.07 41.26L56.08 41.26Q54.76 38.61 54.57 35.83L54.73 35.99L54.56 35.83Q54.48 33.07 55.12 30.33ZM55.76 41.55L55.87 41.66L55.87 41.66Q56.56 41.71 57.89 41.90L57.91 41.91L57.95 41.95Q58.40 42.59 59.54 44.00L59.52 43.98L59.57 44.03Q62.56 44.67 64.66 45.31L64.60 45.25L64.66 45.32Q59.62 41.38 59.36 34.87L59.29 34.80L59.31 34.83Q59.27 32.76 59.88 30.86L59.79 30.77L59.90 30.89Q59.95 29.83 59.95 29.11L60.08 29.24L60.04 29.19Q60.06 28.30 59.45 27.73L59.54 27.82L59.39 27.64L59.41 27.65Q59.52 27.19 59.44 26.70L59.50 26.76L59.49 26.74Q59.39 26.23 58.94 25.96L58.76 25.78L58.78 25.81Q58.08 25.30 57.21 25.26L57.19 25.24L57.31 25.36Q54.49 25.28 51.83 26.24L51.79 26.20L51.82 26.23Q49.89 26.97 48.71 28.38L48.62 28.29L48.58 28.24Q47.03 25.78 42.20 25.44L42.26 25.50L42.31 25.56Q41.56 25.45 41.14 25.45L41.23 25.54L41.08 25.39Q39.02 25.38 38.41 26.64L38.50 26.73L38.48 26.71Q38.12 26.16 37.43 25.09L37.58 25.24L37.51 25.17Q35.06 24.66 33.08 24.01L33.14 24.07L33.06 23.99Q37.61 28.27 37.61 34.55L37.76 34.71L37.75 34.70Q37.60 39.27 34.75 42.74L34.78 42.77L34.84 42.83Q35.36 42.74 35.86 42.66L35.71 42.52L36.82 42.49L36.81 42.47Q36.08 43.50 34.98 44.72L34.85 44.59L34.86 44.59Q36.68 44.48 39.80 43.87L39.70 43.76L39.79 43.86Q42.42 39.71 42.42 34.80L42.31 34.69L42.27 34.65Q42.38 33.96 42.30 33.12L42.34 33.15L42.34 33.16Q42.21 32.34 43.20 31.54L43.11 31.45L43.17 31.55L43.16 31.54Q43.71 31.03 44.89 30.91L45.04 31.06L44.90 30.93Q45.35 30.95 45.66 30.95L45.71 31.01L45.78 31.27L45.75 31.24Q46.12 34.05 46.01 36.41L46.01 36.41L45.88 36.28Q45.74 38.54 45.25 41.20L45.33 41.28L45.32 41.28Q46.42 41.35 46.42 41.35L46.29 41.22L46.43 41.36Q47.69 41.17 47.34 41.17L47.34 41.17L47.35 41.18Q47.53 41.85 47.49 42.31L47.34 42.16L47.34 42.15Q47.43 42.74 47.43 43.23L47.43 43.23L49.77 43.10L49.85 43.18Q51.06 43.14 52.32 43.21L52.48 43.37L52.45 43.35Q50.83 39.56 51.02 33.62L50.97 33.57L51.12 33.72Q51.17 32.62 52.35 31.86L52.28 31.79L52.24 31.76Q53.26 31.06 54.52 30.87L54.44 30.79L54.67 30.72L54.65 30.70Q54.32 32.73 54.32 34.70L54.41 34.80L54.38 34.77Q54.39 38.55 55.91 41.71ZM50.29 30.07L50.61 30.16L50.35 30.24L50.44 30.22Z"/><path fill="#333" d="M22.63 30.38L22.70 30.46L22.76 30.52Q19.26 36.84 15.84 40.80L15.66 40.63L15.81 40.78Q13.97 41.22 11.54 42.10L11.45 42.01L11.37 41.93Q16.42 36.47 21.18 28.06L21.09 27.97L21.20 28.08Q16.48 21.00 10.50 14.61L10.46 14.56L10.62 14.72Q13.39 15.78 15.67 16.27L15.78 16.38L15.74 16.34Q20.33 21.50 22.77 25.46L22.74 25.44L22.85 25.54Q25.36 21.13 29.28 16.71L29.30 16.73L29.24 16.67Q30.96 16.48 34.15 15.72L34.10 15.66L34.16 15.73Q27.99 22.08 24.52 28.02L24.46 27.95L24.51 28.01Q29.68 36.68 34.06 41.24L34.16 41.35L34.11 41.30Q31.48 40.46 29.39 40.23L29.32 40.16L29.48 40.32Q26.55 37.20 22.63 30.39ZM29.28 40.54L29.38 40.64L29.35 40.61Q29.58 40.58 30.04 40.69L29.97 40.62L30.08 40.73Q30.87 41.48 32.39 43.08L32.30 42.99L32.45 43.13Q35.69 43.83 38.74 45.20L38.81 45.27L38.70 45.16Q31.59 38.59 26.49 29.83L26.59 29.93L26.44 29.78Q30.38 23.33 36.28 16.48L36.17 16.36L36.15 16.35Q34.77 17.06 32.60 17.59L32.54 17.53L32.64 17.64Q33.45 16.65 35.20 14.86L35.19 14.85L35.21 14.87Q32.91 15.85 29.22 16.42L29.13 16.33L29.15 16.34Q25.74 20.18 23.16 24.48L23.19 24.52L23.11 24.43Q22.12 22.76 20.94 21.27L20.95 21.29L18.63 18.32L18.33 18.39L18.43 18.50Q18.29 18.51 18.06 18.43L17.89 18.26L17.99 18.36Q17.30 17.52 15.81 15.96L15.80 15.94L15.84 15.98Q11.91 14.99 9.33 13.62L9.33 13.62L9.33 13.62Q16.12 20.94 20.68 27.98L20.72 28.02L20.75 28.05Q16.15 36.13 10.40 42.71L10.56 42.87L10.40 42.71Q11.89 42.22 14.02 41.65L13.88 41.51L12.73 43.10L12.64 43.01Q12.72 43.09 11.39 44.42L11.37 44.40L11.33 44.36Q14.40 43.36 17.56 42.87L17.55 42.85L17.46 42.76Q21.50 38.28 24.09 33.52L24.06 33.49L24.04 33.47Q26.61 37.72 29.31 40.57Z"/></svg>