<svg xmlns="http://www.w3.org/2000/svg" width="150" height="50" viewBox="0,0,150,50"><path fill="#444" d="M119.48 28.84L119.49 28.85L119.65 29.01Q116.98 28.89 115.95 30.07L116.03 30.14L116.07 30.18Q114.88 31.20 114.88 33.83L114.99 33.94L115.00 33.95Q115.01 39.06 119.61 38.87L119.59 38.85L119.65 38.90Q121.69 39.04 123.04 37.48L123.07 37.51L122.95 37.39Q124.30 35.83 124.07 33.77L124.23 33.93L124.11 33.81Q124.20 31.35 123.33 30.32L123.31 30.30L123.34 30.33Q121.82 28.97 119.61 28.97ZM124.51 38.63L124.67 38.79L124.50 38.62Q123.40 41.17 118.72 41.17L118.75 41.20L117.30 41.20L117.30 41.20Q115.00 41.26 113.90 40.12L113.81 40.03L113.90 40.13Q112.85 39.07 112.59 36.68L112.53 36.62L112.54 36.63Q112.32 35.08 112.24 33.29L112.36 33.40L112.34 33.38Q112.34 32.43 112.19 30.49L112.04 30.35L112.14 30.44Q111.93 26.04 117.10 26.04L117.21 26.15L118.76 26.14L118.75 26.13Q121.61 26.09 123.70 27.38L123.65 27.34L123.67 27.36Q124.51 27.88 125.00 28.57L124.93 28.50L124.93 28.50Q125.26 27.76 125.79 26.12L125.71 26.05L125.80 26.13Q126.98 25.90 129.30 25.29L129.37 25.37L129.39 25.39Q126.76 29.57 126.76 34.82L126.83 34.89L126.77 34.83Q126.73 38.52 128.10 41.61L128.20 41.71L128.14 41.65Q126.97 41.31 125.07 41.09L125.00 41.02L125.08 41.10Q124.85 40.22 124.55 38.66ZM127.80 43.82L127.97 43.98L130.07 44.45L130.19 44.57Q131.36 44.83 132.35 45.28L132.29 45.22L132.30 45.23Q128.67 40.92 128.67 34.83L128.72 34.87L128.60 34.76Q128.64 30.27 130.77 26.46L130.72 26.41L130.71 26.40Q130.22 26.79 128.89 27.17L128.81 27.09L128.80 27.08Q129.06 26.24 129.94 24.71L130.12 24.90L130.04 24.81Q129.47 25.01 125.48 25.85L125.51 25.89L124.98 27.75L124.98 27.75Q123.11 25.91 118.69 25.69L118.72 25.71L118.59 25.59Q117.52 25.66 115.27 25.81L115.35 25.89L115.30 25.84Q111.57 26.14 111.68 30.18L111.66 30.16L111.67 30.16Q111.88 33.57 112.45 38.03L112.48 38.05L112.48 38.47L112.45 38.44Q112.53 39.25 113.33 40.35L113.31 40.33L113.47 40.49Q113.54 40.56 113.73 40.68L113.74 40.69L113.82 40.77Q114.10 41.28 114.48 41.85L114.43 41.80L114.39 41.76Q115.80 43.28 119.19 43.47L119.24 43.52L119.21 43.49Q120.90 43.65 121.05 43.65L120.89 43.49L122.53 43.57L122.50 43.55Q125.67 43.52 126.89 41.96L126.92 41.99L126.91 41.98Q127.29 42.63 127.90 43.92ZM121.41 31.23L121.30 31.11L121.41 31.22Q122.68 31.17 123.52 31.62L123.50 31.60L123.46 31.56Q123.75 32.35 123.75 33.80L123.86 33.90L123.89 33.93Q124.04 35.79 122.76 37.22L122.74 37.20L122.78 37.24Q121.40 38.56 119.50 38.37L119.50 38.37L119.47 38.34Q118.11 38.43 117.08 38.01L117.05 37.98L117.06 37.99Q116.97 37.25 116.97 36.03L116.89 35.96L116.82 35.89Q117.11 32.52 119.74 31.57L119.71 31.54L119.69 31.52Q120.53 31.14 121.33 31.14Z"/><path fill="#333" d="M64.89 47.03L64.90 47.04L64.98 47.12Q64.06 47.34 62.15 47.64L62.05 47.54L62.08 47.57Q63.47 45.50 64.50 44.20L64.41 44.11L64.44 44.15Q66.25 44.51 66.40 44.51L66.35 44.45L66.32 44.42Q66.71 44.59 67.25 44.48L67.17 44.40L67.18 44.41Q67.87 44.34 68.06 44.34L68.06 44.34L68.04 44.32Q70.55 44.01 70.48 41.84L70.54 41.90L70.48 41.85Q70.53 40.45 70.41 34.20L70.44 34.23L70.36 34.15Q70.23 30.52 70.31 26.37L70.40 26.46L71.76 26.23L71.73 26.20Q72.51 26.21 73.20 25.98L73.13 25.92L73.10 25.89Q72.89 30.32 72.93 34.70L73.01 34.78L73.00 34.77Q73.00 39.11 73.53 43.49L73.50 43.46L73.46 43.42Q73.60 43.78 73.60 44.05L73.54 43.99L73.51 43.96Q73.50 45.59 71.83 45.97L71.81 45.96L71.88 46.03Q68.88 46.53 65.03 47.17ZM71.75 22.90L69.54 19.70L69.51 19.67Q70.56 18.29 72.39 15.51L72.46 15.58L72.52 15.64Q73.05 16.40 74.39 18.23L74.53 18.38L71.71 22.86ZM74.74 49.50L74.81 49.56L74.71 49.47Q75.18 49.44 75.94 49.10L76.07 49.23L75.94 49.09Q76.28 48.41 76.28 47.95L76.34 48.01L76.36 48.03Q76.34 47.67 76.22 47.06L76.20 47.03L76.31 47.14Q74.89 40.66 74.89 32.74L74.94 32.79L74.80 32.65Q74.89 29.89 75.05 27.00L74.97 26.92L75.06 27.01Q74.45 27.12 73.30 27.43L73.41 27.53L73.42 27.55Q73.25 26.88 73.29 26.35L73.41 26.47L73.54 25.41L73.54 25.42Q71.88 26.11 70.09 26.15L69.97 26.03L70.00 26.06Q69.99 30.43 70.03 34.01L69.89 33.87L70.18 41.89L70.18 41.89Q70.20 43.82 68.03 43.93L68.03 43.93L67.99 43.89Q67.72 43.85 67.21 43.91L67.35 44.04L67.23 43.93Q66.87 44.13 66.60 44.13L66.54 44.07L66.60 44.13Q66.04 44.03 64.48 43.61L64.53 43.66L64.44 43.58Q64.00 44.20 62.89 45.87L62.90 45.88L61.35 48.17L61.30 48.13Q62.23 47.99 63.87 47.60L63.78 47.52L63.37 48.29L62.88 48.98L62.92 49.02Q65.19 48.86 66.53 48.93L66.45 48.86L66.44 48.85Q68.79 49.06 74.73 49.48ZM71.72 23.63L71.61 23.52L72.01 23.05L72.11 23.15Q72.33 23.44 73.28 25.04L73.27 25.03L73.27 25.03Q74.85 21.97 76.41 18.88L76.37 18.84L76.35 18.82Q75.54 17.41 74.59 16.11L74.54 16.06L74.48 16.00Q74.28 16.22 73.94 16.75L73.93 16.75L73.88 16.70Q73.61 16.20 72.62 14.90L72.52 14.80L72.52 14.80Q71.30 16.37 68.98 19.72L69.02 19.76L69.00 19.73Q69.91 20.95 71.62 23.54Z"/><path fill="#222" d="M95.50 29.73L95.50 29.74L95.56 29.79Q91.38 29.61 90.81 32.66L90.78 32.62L90.80 32.64Q90.47 33.57 90.66 34.45L90.66 34.45L90.75 34.54Q90.68 35.23 91.14 36.64L91.17 36.67L91.15 36.65Q92.34 39.93 95.65 39.78L95.66 39.79L95.59 39.72Q97.60 39.79 98.94 38.23L98.88 38.18L98.85 38.15Q100.12 36.72 100.12 34.66L100.23 34.76L100.26 34.80Q100.29 34.11 100.14 33.04L100.09 32.99L100.23 33.13Q100.14 32.21 99.72 31.52L99.77 31.56L99.70 31.49Q98.09 29.85 95.50 29.73ZM100.37 48.23L100.45 48.32L100.34 48.20Q98.59 48.85 90.52 49.23L90.51 49.22L90.34 49.06Q88.66 49.12 87.02 48.28L87.05 48.31L87.20 48.46Q88.04 47.51 89.86 45.72L89.78 45.64L89.81 45.66Q92.17 46.65 94.26 46.46L94.24 46.44L94.29 46.49Q97.26 46.30 98.10 46.03L98.09 46.03L97.98 45.92Q100.19 45.20 100.19 43.41L100.26 43.47L100.27 43.49Q100.25 43.24 100.17 43.01L100.23 43.06L100.12 41.47L100.10 41.45Q100.15 40.74 100.15 39.94L100.02 39.81L100.03 39.82Q98.60 42.01 95.22 42.01L95.35 42.15L95.33 42.12Q91.44 42.12 89.80 39.91L89.81 39.92L89.74 39.85Q88.74 38.43 87.94 34.01L87.82 33.89L87.86 33.94Q87.59 32.44 87.59 31.03L87.55 30.99L87.56 31.01Q87.63 29.29 88.54 28.30L88.43 28.18L88.45 28.20Q90.20 26.87 94.84 26.87L94.80 26.82L96.55 27.02L96.61 27.07Q99.77 27.38 101.11 29.32L101.14 29.36L101.15 29.36Q101.18 28.37 101.60 26.74L101.68 26.82L101.76 26.90Q103.50 26.42 105.25 25.70L105.26 25.71L105.19 25.64Q102.64 31.85 102.64 39.08L102.57 39.01L102.61 39.05Q102.63 41.73 103.01 44.36L102.98 44.33L103.07 44.42Q103.26 45.11 103.18 45.79L103.16 45.77L103.19 45.80Q102.98 47.15 101.76 47.91L101.62 47.76L101.60 47.75Q101.17 48.08 100.34 48.20ZM103.36 51.18L103.28 51.10L103.31 51.13Q104.75 51.16 105.51 50.21L105.57 50.27L105.50 50.20Q105.86 49.27 105.75 48.55L105.84 48.64L105.83 48.63Q105.71 47.98 105.52 47.22L105.45 47.14L105.42 47.11Q104.37 42.06 104.71 36.81L104.70 36.80L104.57 36.67Q104.96 31.28 107.09 26.44L107.19 26.53L104.97 27.36L105.06 27.45Q105.30 26.86 105.53 26.28L105.53 26.28L105.90 25.02L105.94 25.06Q103.65 26.08 101.44 26.50L101.34 26.40L101.39 26.45Q101.03 27.27 100.88 28.30L100.98 28.40L100.88 28.29Q98.79 26.40 94.76 26.40L94.86 26.51L92.98 26.37L92.99 26.38Q89.84 26.48 88.17 27.88L88.16 27.88L88.15 27.87Q87.16 28.78 87.20 30.69L87.26 30.74L87.32 30.81Q87.37 33.29 88.40 37.55L88.38 37.53L88.29 37.45Q88.83 39.43 90.05 40.84L90.06 40.85L90.36 41.15L90.33 41.12L90.28 41.08Q91.49 43.46 94.07 43.99L94.03 43.94L94.05 43.96Q95.48 44.29 96.92 44.33L96.94 44.35L96.99 44.39Q98.60 44.29 99.67 43.91L99.73 43.97L99.81 44.05Q99.19 45.60 96.52 45.95L96.55 45.97L96.38 45.81Q95.40 46.04 94.71 46.04L94.78 46.10L94.42 46.13L94.38 46.09Q91.47 45.99 89.79 45.04L89.77 45.01L88.18 46.85L88.16 46.84Q87.22 47.57 86.38 48.52L86.38 48.52L86.43 48.57Q87.50 49.18 88.49 49.37L88.36 49.24L87.65 50.29L87.65 50.28Q90.23 51.23 95.86 51.23L95.95 51.32L96.05 51.19L96.08 51.22Q99.85 51.36 103.42 51.25ZM97.39 32.04L97.45 32.10L97.35 32.00Q98.78 32.06 99.70 32.48L99.58 32.37L99.50 32.29Q99.85 32.94 99.93 33.63L99.86 33.56L99.77 33.47Q99.87 33.83 99.83 34.75L99.91 34.83L99.94 34.85Q99.79 36.68 98.68 37.98L98.77 38.07L98.73 38.02Q97.46 39.34 95.55 39.30L95.53 39.28L95.66 39.41Q94.09 39.21 93.25 38.79L93.23 38.77L93.38 38.92Q92.92 37.70 92.88 36.67L92.91 36.70L92.94 36.73Q92.85 32.41 97.45 32.11Z"/><path fill="#222" d="M50.57 29.40L50.60 29.43L50.75 29.57Q49.42 28.67 48.78 28.71L48.93 28.86L48.82 28.75Q47.45 28.83 46.41 29.84L46.51 29.95L46.33 29.76Q45.34 30.83 45.45 32.20L45.52 32.27L45.43 32.17Q45.76 36.54 44.89 41.07L44.93 41.11L44.94 41.12Q42.74 41.59 41.63 42.12L41.61 42.10L41.60 42.09Q43.12 37.94 42.89 33.48L42.77 33.36L42.82 33.41Q42.63 28.95 40.91 24.88L40.86 24.82L40.93 24.89Q42.02 25.52 44.30 26.17L44.25 26.12L44.96 28.96L44.97 28.97Q45.53 25.96 49.79 25.96L49.87 26.03L49.91 26.07Q50.33 26.03 50.63 26.03L50.55 25.95L50.57 25.97Q51.80 25.91 53.06 26.59L53.04 26.58L53.16 26.69Q51.74 27.94 50.60 29.42ZM52.30 31.51L52.42 31.48L52.31 31.36Q53.33 30.33 55.00 27.89L54.87 27.76L54.84 27.73Q54.54 27.54 53.02 27.28L52.92 27.17L52.89 27.15Q53.27 26.88 53.73 26.28L53.73 26.27L53.72 26.27Q51.88 25.41 49.94 25.60L49.85 25.52L49.87 25.54Q48.03 25.83 47.30 26.09L47.20 25.98L47.33 26.12Q45.91 26.52 45.11 27.63L45.02 27.54L44.84 26.71L44.61 25.83L44.58 25.80Q42.32 25.52 40.34 24.19L40.18 24.04L40.21 24.06Q42.40 28.50 42.63 33.37L42.64 33.38L42.56 33.30Q42.95 38.38 41.20 42.91L41.21 42.91L41.13 42.84Q42.16 42.31 43.04 42.01L43.04 42.00L43.13 42.09Q42.78 43.11 42.28 44.18L42.37 44.26L42.26 44.15Q45.22 43.43 47.35 43.31L47.21 43.16L47.54 38.77L47.57 38.80Q47.68 36.55 47.68 34.31L47.51 34.14L47.66 34.29Q47.58 33.03 48.49 32.06L48.50 32.07L48.44 32.00Q49.32 31.00 50.46 30.92L50.48 30.95L50.61 31.07Q51.15 30.85 51.87 31.54L51.97 31.63L52.25 31.46ZM47.20 29.61L47.24 29.57L47.22 29.67L47.19 29.60Z"/><path fill="#222" d="M20.98 29.00L20.91 28.93L20.89 28.92Q18.34 28.92 17.32 30.10L17.33 30.12L17.27 30.06Q16.21 31.20 16.21 33.83L16.33 33.94L16.32 33.94Q16.35 39.07 20.96 38.88L20.93 38.85L20.99 38.91Q23.04 39.06 24.39 37.50L24.42 37.53L24.36 37.47Q25.76 35.96 25.54 33.90L25.46 33.83L25.56 33.92Q25.42 31.24 24.55 30.21L24.66 30.33L24.60 30.27Q23.05 28.87 20.84 28.87ZM25.87 38.65L25.84 38.62L25.89 38.67Q24.70 41.14 20.02 41.14L20.12 41.24L18.70 41.27L18.67 41.23Q16.32 41.25 15.22 40.11L15.13 40.01L15.16 40.04Q14.15 39.03 13.88 36.64L13.92 36.68L13.84 36.60Q13.76 35.19 13.69 33.40L13.56 33.27L13.68 33.39Q13.66 32.42 13.51 30.48L13.36 30.33L13.49 30.46Q13.40 26.18 18.58 26.18L18.44 26.04L20.08 26.12L20.14 26.19Q22.86 26.01 24.95 27.30L25.08 27.43L24.98 27.33Q25.80 27.85 26.30 28.53L26.37 28.61L26.34 28.57Q26.60 27.77 27.13 26.13L27.18 26.18L27.10 26.10Q28.43 26.02 30.75 25.41L30.68 25.34L30.74 25.40Q28.03 29.51 28.03 34.76L28.12 34.85L28.09 34.82Q28.04 38.50 29.41 41.59L29.54 41.71L29.48 41.65Q28.22 41.23 26.32 41.01L26.46 41.14L26.42 41.11Q26.22 40.26 25.92 38.70ZM29.27 43.95L29.24 43.92L31.52 44.57L31.42 44.47Q32.75 44.88 33.74 45.34L33.56 45.17L33.67 45.27Q30.00 40.92 30.00 34.83L29.94 34.76L30.01 34.84Q29.98 30.27 32.11 26.47L32.04 26.40L32.09 26.45Q31.47 26.71 30.14 27.09L30.09 27.04L30.10 27.04Q30.51 26.35 31.38 24.83L31.39 24.83L31.31 24.75Q30.89 25.10 26.90 25.94L26.84 25.88L26.30 27.73L26.14 27.58Q24.40 25.88 19.99 25.65L20.10 25.76L19.94 25.61Q18.93 25.74 16.68 25.89L16.67 25.87L16.76 25.96Q12.93 26.17 13.04 30.20L13.09 30.25L13.19 30.35Q13.15 33.50 13.72 37.96L13.73 37.97L13.82 38.48L13.90 38.56Q13.85 39.23 14.65 40.34L14.79 40.48L14.82 40.51Q14.80 40.49 14.99 40.60L15.16 40.77L14.99 40.60Q15.38 41.22 15.76 41.79L15.76 41.79L15.82 41.85Q17.16 43.30 20.54 43.49L20.47 43.42L20.52 43.47Q22.11 43.53 22.26 43.53L22.40 43.67L23.86 43.57L23.95 43.67Q26.99 43.51 28.21 41.95L28.36 42.10L28.29 42.02Q28.66 42.66 29.27 43.95ZM22.65 31.13L22.72 31.20L22.75 31.23Q23.95 31.10 24.79 31.56L24.80 31.56L24.88 31.65Q25.07 32.33 25.07 33.78L25.10 33.81L25.18 33.89Q25.42 35.84 24.15 37.27L24.05 37.17L24.08 37.20Q22.90 38.72 20.99 38.53L20.88 38.42L20.90 38.44Q19.42 38.40 18.39 37.99L18.34 37.94L18.45 38.04Q18.29 37.24 18.29 36.02L18.32 36.05L18.19 35.92Q18.44 32.52 21.07 31.57L21.05 31.54L21.03 31.53Q21.82 31.10 22.62 31.10Z"/></svg>