<svg xmlns="http://www.w3.org/2000/svg" width="150" height="50" viewBox="0,0,150,50"><path fill="#111" d="M126.96 28.61L126.95 28.60L121.06 28.69L121.22 28.85Q118.21 28.80 115.28 28.73L115.22 28.67L115.30 28.75Q115.33 35.37 113.28 40.89L113.33 40.94L113.37 40.98Q111.60 41.53 109.85 42.22L109.79 42.16L109.72 42.09Q112.48 36.36 112.48 29.70L112.55 29.77L112.54 29.76Q112.48 21.20 108.36 14.16L108.40 14.19L108.35 14.15Q109.86 14.93 112.33 15.73L112.45 15.85L112.48 15.88Q114.58 20.91 115.11 25.78L115.11 25.78L115.00 25.67Q118.24 26.13 121.09 26.09L121.15 26.14L121.20 26.20Q123.77 26.11 127.09 25.84L127.07 25.83L127.09 25.84Q127.55 21.43 129.30 16.33L129.34 16.37L129.39 16.42Q131.19 15.86 133.43 15.02L133.48 15.06L133.61 15.20Q129.83 21.77 129.83 29.73L129.90 29.79L129.83 29.73Q129.93 36.03 132.29 41.36L132.19 41.26L132.33 41.40Q130.61 40.67 128.56 40.37L128.70 40.52L128.63 40.45Q126.91 35.37 127.02 28.67ZM128.32 40.75L128.37 40.79L128.28 40.70Q129.33 40.88 130.44 41.14L130.47 41.18L130.38 41.09Q130.77 41.86 131.42 43.34L131.39 43.32L131.52 43.45Q134.77 44.30 136.56 45.22L136.61 45.26L136.51 45.16Q132.07 39.01 131.76 30.75L131.85 30.84L131.85 30.84Q131.48 22.74 135.14 15.92L135.16 15.94L134.15 16.46L134.06 16.37Q133.71 16.75 133.10 16.90L133.03 16.82L133.07 16.86Q133.38 15.96 134.22 14.40L134.34 14.52L134.35 14.53Q131.55 15.42 128.93 15.92L128.91 15.90L129.05 16.04Q127.31 20.81 126.85 25.49L126.87 25.51L126.85 25.49Q124.39 25.74 121.96 25.74L121.86 25.64L122.00 25.78Q119.46 25.64 116.95 25.49L117.05 25.59L116.96 25.50Q116.86 22.35 115.76 18.28L115.60 18.12L115.80 18.32Q114.92 18.01 113.47 17.63L113.67 17.83L113.55 17.71Q113.27 16.59 112.81 15.56L112.76 15.52L112.68 15.44Q109.98 14.71 107.69 13.45L107.75 13.51L107.77 13.53Q112.37 20.98 112.37 29.77L112.23 29.64L112.35 29.76Q112.29 36.66 109.16 42.79L109.10 42.72L109.22 42.85Q109.87 42.51 111.20 41.93L111.13 41.87L111.31 42.04Q110.89 42.81 110.09 44.33L110.16 44.40L110.04 44.27Q112.90 43.33 115.15 42.91L115.07 42.83L115.12 42.88Q116.99 37.33 117.18 31.16L117.18 31.16L117.27 31.26Q118.77 31.08 121.97 31.04L122.06 31.13L121.97 31.04Q124.86 31.04 126.76 31.11L126.82 31.17L126.66 31.01Q126.94 36.78 128.28 40.70Z"/><path fill="#333" d="M89.54 47.01L89.53 47.00L89.60 47.07Q88.72 47.34 86.82 47.65L86.74 47.57L86.82 47.65Q87.95 45.31 88.98 44.02L88.98 44.02L89.03 44.07Q90.80 44.39 90.95 44.39L91.01 44.45L91.02 44.46Q91.21 44.42 91.75 44.31L91.78 44.35L91.81 44.37Q92.50 44.30 92.69 44.30L92.70 44.31L92.71 44.33Q95.33 44.12 95.25 41.95L95.10 41.80L95.13 41.83Q95.17 40.42 95.05 34.18L94.99 34.12L94.91 34.04Q94.97 30.59 95.05 26.44L95.01 26.40L96.38 26.18L96.43 26.23Q97.18 26.21 97.86 25.99L97.81 25.93L97.85 25.97Q97.48 30.25 97.52 34.63L97.62 34.72L97.60 34.71Q97.68 39.12 98.21 43.50L98.12 43.42L98.20 43.49Q98.21 43.73 98.21 44.00L98.32 44.11L98.27 44.05Q98.25 45.67 96.58 46.05L96.47 45.95L96.59 46.07Q93.47 46.45 89.63 47.10ZM96.45 22.93L94.27 19.77L94.27 19.77Q95.20 18.25 97.02 15.48L97.17 15.62L97.10 15.55Q97.87 16.55 99.20 18.38L99.22 18.40L96.28 22.77ZM99.33 49.42L99.45 49.54L99.35 49.44Q100.01 49.60 100.77 49.26L100.69 49.18L100.61 49.10Q100.98 48.45 100.98 47.99L101.09 48.09L101.03 48.03Q101.01 47.67 100.90 47.07L100.80 46.97L100.94 47.11Q99.48 40.58 99.48 32.67L99.49 32.68L99.61 32.79Q99.57 29.90 99.72 27.01L99.63 26.92L99.68 26.97Q99.16 27.16 98.01 27.47L98.03 27.49L98.02 27.47Q98.03 26.99 98.07 26.46L98.05 26.44L98.21 25.42L98.20 25.41Q96.54 26.10 94.75 26.14L94.73 26.13L94.73 26.13Q94.68 30.46 94.72 34.04L94.70 34.02L94.85 41.89L94.74 41.78Q94.89 43.84 92.72 43.95L92.77 44.00L92.70 43.93Q92.54 43.99 92.02 44.05L91.97 44.00L91.98 44.01Q91.44 44.04 91.18 44.04L91.26 44.13L91.24 44.11Q90.60 43.93 89.04 43.51L89.05 43.51L89.12 43.58Q88.64 44.17 87.53 45.84L87.60 45.92L85.93 48.09L85.99 48.15Q86.96 48.06 88.60 47.67L88.64 47.71L88.14 48.39L87.52 48.95L87.49 48.92Q89.89 48.89 91.23 48.97L91.17 48.91L91.23 48.97Q93.50 49.11 99.44 49.53ZM96.27 23.51L96.36 23.61L96.59 22.96L96.69 23.06Q96.97 23.42 97.92 25.02L98.04 25.14L98.06 25.15Q99.58 22.04 101.15 18.95L101.19 19.00L101.13 18.94Q100.10 17.29 99.14 16.00L99.22 16.08L99.23 16.09Q98.89 16.17 98.55 16.70L98.61 16.76L98.62 16.77Q98.23 16.15 97.24 14.86L97.13 14.74L97.32 14.93Q96.06 16.46 93.74 19.81L93.74 19.81L93.80 19.86Q94.59 20.96 96.31 23.55Z"/><path fill="#222" d="M79.02 37.92L79.11 38.00L79.00 37.90Q79.24 38.82 79.77 40.84L79.77 40.84L79.78 40.85Q75.64 39.60 71.03 39.87L70.93 39.77L70.98 39.82Q66.40 40.07 62.40 42.05L62.53 42.18L62.41 42.06Q62.62 41.35 62.66 41.43L62.76 41.53L62.64 41.41Q66.35 37.43 70.27 33.01L70.36 33.10L70.28 33.03Q74.76 28.10 75.94 23.42L76.02 23.50L75.93 23.41Q76.37 21.64 75.10 20.46L75.22 20.59L75.06 20.42Q73.82 19.28 72.03 19.43L71.99 19.39L71.99 19.39Q71.83 19.54 71.49 19.54L71.48 19.53L71.49 19.54Q69.77 19.35 68.52 20.26L68.51 20.26L68.53 20.27Q67.35 21.76 67.58 24.42L67.64 24.49L67.47 24.31Q65.76 24.05 64.55 23.60L64.47 23.52L64.57 23.62Q64.42 22.26 64.35 20.81L64.20 20.66L64.30 20.76Q64.26 19.16 64.87 18.02L64.74 17.89L64.90 18.05Q66.67 16.66 70.02 16.66L69.92 16.56L71.63 16.52L71.78 16.67Q73.98 16.62 74.93 16.73L74.89 16.69L74.91 16.72Q79.20 17.09 79.47 19.52L79.48 19.54L79.63 19.69Q79.66 20.21 79.58 21.01L79.62 21.05L79.51 20.94Q79.50 21.61 79.34 22.29L79.28 22.23L79.27 22.21Q77.76 30.45 70.18 37.30L70.07 37.19L70.17 37.29Q71.48 37.04 72.85 37.04L73.00 37.19L72.98 37.17Q76.05 37.01 78.91 37.81ZM78.42 17.06L78.45 17.10L78.38 17.03Q76.79 16.39 75.07 16.31L75.17 16.40L71.78 16.25L71.76 16.23Q67.26 15.92 65.05 17.02L64.99 16.96L65.07 17.04Q63.98 18.39 63.98 20.45L63.89 20.36L63.98 20.44Q64.09 21.24 64.40 24.06L64.40 24.06L64.21 23.87Q64.85 24.21 66.03 24.51L66.05 24.53L66.04 25.55L65.96 25.47Q65.92 25.93 66.00 26.46L66.08 26.54L66.11 26.57Q67.42 26.73 69.89 26.96L69.82 26.89L69.74 26.81Q69.77 26.50 69.77 26.16L69.78 26.16L69.72 26.11Q69.76 24.32 70.98 22.97L70.91 22.90L70.92 22.91Q72.19 21.61 73.98 21.73L73.91 21.66L74.08 21.82Q74.66 21.68 75.42 21.83L75.47 21.89L75.56 21.97Q75.68 22.36 75.75 22.78L75.68 22.70L75.68 22.70Q75.83 23.23 75.75 23.57L75.59 23.41L75.66 23.49Q74.44 28.27 70.02 33.11L69.98 33.07L69.97 33.05Q67.83 35.29 62.39 41.35L62.44 41.41L62.33 41.30Q62.12 42.11 61.78 42.68L61.94 42.84L61.82 42.73Q63.45 41.88 64.97 41.35L65.08 41.46L64.98 41.35Q64.35 42.02 63.40 43.50L63.39 43.49L63.26 43.36Q63.14 43.71 63.03 44.05L63.12 44.13L63.03 44.05Q68.04 42.13 73.53 42.32L73.36 42.16L73.46 42.26Q79.17 42.44 83.73 44.80L83.66 44.73L82.75 42.67L82.74 42.67Q81.99 41.23 81.72 40.43L81.88 40.59L81.72 40.43Q81.01 40.02 79.79 39.60L79.78 39.60L79.90 39.72Q79.65 38.89 79.27 37.52L79.24 37.49L79.23 37.49Q77.05 36.93 74.76 36.74L74.88 36.86L74.75 36.74Q79.46 32.19 80.98 23.93L80.99 23.94L81.19 21.06L81.18 21.04Q81.21 19.36 79.99 18.67L80.00 18.68L79.89 18.61L79.97 18.70Q79.80 18.48 79.72 18.48L79.86 18.62L79.83 18.59Q79.47 17.62 78.37 17.01Z"/><path fill="#111" d="M48.42 27.76L48.33 27.67L48.33 27.67Q44.92 27.69 43.82 31.04L43.68 30.90L43.66 30.88Q43.38 32.05 43.27 33.12L43.21 33.06L43.32 33.17Q43.01 35.10 44.00 36.44L44.08 36.52L44.09 36.52Q45.32 37.60 47.79 37.64L47.85 37.70L47.92 37.77Q49.73 37.79 51.14 36.65L51.14 36.65L51.04 36.55Q52.53 35.49 52.53 33.70L52.43 33.60L52.51 33.67Q52.42 33.24 52.34 32.86L52.38 32.90L52.42 32.94Q52.16 27.77 48.35 27.69ZM48.19 40.10L48.24 40.14L48.27 40.17Q44.54 40.48 42.75 38.46L42.60 38.31L42.60 38.31Q42.43 39.40 41.97 40.77L42.00 40.79L42.00 40.79Q40.01 41.51 38.76 42.08L38.85 42.18L38.83 42.15Q40.97 36.15 40.97 29.64L40.92 29.58L41.00 29.66Q40.89 21.26 37.46 13.41L37.60 13.56L37.63 13.58Q39.91 14.87 41.24 15.32L41.26 15.35L41.13 15.22Q43.23 21.85 43.38 27.67L43.54 27.83L43.39 27.68Q45.00 25.18 48.73 25.22L48.75 25.23L48.63 25.12Q51.99 25.28 53.48 27.15L53.42 27.08L53.44 27.11Q55.19 29.32 55.34 32.90L55.34 32.89L55.29 32.84Q55.31 33.97 55.24 35.57L55.34 35.67L55.27 35.60Q55.27 37.09 54.40 38.23L54.47 38.30L54.43 38.26Q52.70 39.99 48.36 40.26ZM53.83 42.76L53.79 42.72L53.68 42.61Q55.27 42.72 56.76 42.04L56.70 41.98L56.73 42.01Q57.94 40.82 57.98 38.88L57.90 38.80L57.86 38.76Q57.87 38.27 57.71 37.09L57.68 37.06L57.70 37.08Q57.77 36.54 57.66 35.63L57.53 35.50L57.50 35.47Q56.67 30.68 55.11 28.63L55.20 28.72L55.22 28.73Q55.14 28.62 54.34 27.74L54.38 27.79L54.47 27.87Q54.18 27.55 53.65 26.75L53.60 26.70L53.59 26.69Q52.08 24.83 48.73 24.87L48.73 24.88L48.76 24.90Q46.53 24.76 45.27 25.37L45.27 25.38L45.31 25.41Q44.98 20.89 44.37 17.69L44.34 17.67L44.35 17.67Q43.70 17.60 42.21 17.21L42.27 17.27L42.29 17.29Q42.08 16.47 41.62 15.02L41.68 15.08L41.57 14.97Q39.23 14.27 36.99 12.71L36.94 12.67L36.91 12.63Q40.70 20.84 40.70 29.63L40.61 29.55L40.63 29.56Q40.60 36.50 38.13 42.71L38.30 42.88L38.12 42.70Q38.81 42.36 40.14 41.79L40.22 41.87L40.26 41.91Q39.90 42.53 39.29 44.06L39.40 44.17L39.44 44.21Q41.34 43.22 44.12 42.69L44.14 42.70L44.49 40.84L44.58 40.93Q46.78 42.53 53.71 42.64ZM49.99 30.01L50.07 30.10L50.01 30.04Q51.01 30.00 51.54 30.38L51.60 30.44L51.59 30.44Q51.87 30.90 52.10 32.92L52.17 33.00L52.05 32.88Q52.24 34.74 50.98 36.05L51.12 36.19L50.98 36.04Q49.80 37.44 47.86 37.32L47.89 37.35L47.83 37.30Q46.86 37.39 45.37 36.89L45.43 36.96L45.49 37.01Q45.15 36.41 45.15 35.87L45.26 35.99L45.30 36.02Q45.16 32.80 46.72 31.20L46.84 31.32L46.81 31.33L46.71 31.22Q48.32 30.02 50.07 30.09Z"/><path fill="#222" d="M32.37 23.03L32.48 23.15L32.39 23.05Q30.59 25.78 27.92 31.42L27.90 31.39L25.83 35.57L25.97 35.71Q25.08 37.60 23.75 39.84L23.66 39.75L23.78 39.88Q24.24 39.88 22.57 39.92L22.57 39.92L22.42 39.77Q22.54 39.89 21.29 39.89L21.24 39.84L21.28 39.89Q20.61 38.46 17.68 31.30L17.59 31.21L17.52 31.13Q15.47 25.89 13.37 22.88L13.36 22.87L13.42 22.93Q13.99 25.82 13.99 28.98L14.16 29.15L13.98 28.97Q14.07 35.57 11.10 41.13L11.19 41.22L11.12 41.15Q9.72 41.42 7.36 42.14L7.36 42.15L7.39 42.18Q11.12 36.54 11.12 29.31L11.07 29.26L11.16 29.35Q11.19 20.43 5.78 13.46L5.77 13.45L5.74 13.42Q7.38 14.15 9.74 14.83L9.66 14.75L9.70 14.79Q16.78 21.56 22.87 34.89L22.79 34.81L22.92 34.94Q26.36 27.88 28.57 24.38L28.48 24.29L28.58 24.38Q32.09 18.53 36.05 15.07L36.17 15.18L36.09 15.10Q37.39 14.92 39.75 14.16L39.71 14.12L39.66 14.07Q34.63 20.65 34.63 29.25L34.81 29.43L34.63 29.26Q34.81 36.09 38.23 41.61L38.18 41.55L38.08 41.46Q36.85 41.26 34.11 40.65L34.00 40.54L34.00 40.54Q31.65 35.75 31.65 29.78L31.67 29.80L31.75 29.87Q31.69 26.39 32.37 23.04ZM33.96 41.07L33.83 40.94L33.91 41.02Q34.52 41.06 35.96 41.32L35.99 41.34L36.03 41.39Q36.44 42.10 37.39 43.59L37.38 43.58L37.44 43.64Q39.51 43.99 42.98 45.21L43.01 45.24L43.02 45.25Q36.70 38.86 36.70 29.04L36.64 28.98L36.67 29.01Q36.77 21.38 41.15 15.25L41.09 15.19L39.03 16.02L38.94 15.93Q39.88 14.33 40.53 13.45L40.56 13.48L40.50 13.42Q38.64 14.07 36.01 14.61L36.03 14.63L36.18 14.78Q29.28 20.74 23.22 33.34L23.30 33.42L23.34 33.45Q18.05 22.38 13.10 17.12L13.09 17.12L13.12 17.15Q12.79 17.12 12.22 17.01L12.16 16.95L10.96 15.68L10.97 15.68Q10.40 15.04 9.72 14.43L9.70 14.41L9.78 14.49Q6.57 13.34 4.78 12.62L4.93 12.77L4.90 12.73Q10.86 19.91 10.86 29.31L10.77 29.23L10.80 29.25Q10.86 36.93 6.71 42.79L6.68 42.76L6.66 42.74Q7.42 42.59 8.71 42.17L8.72 42.18L8.58 42.04Q8.56 42.40 7.16 44.49L7.23 44.57L7.17 44.51Q8.94 43.99 12.44 43.23L12.50 43.29L12.42 43.21Q16.26 36.27 16.07 28.51L16.03 28.47L15.97 28.41Q17.47 32.38 20.93 40.26L20.90 40.23L20.93 40.26Q21.15 40.18 21.38 40.18L21.37 40.17L22.06 40.32L22.06 40.33Q22.45 40.94 23.24 42.23L23.19 42.17L23.28 42.27Q24.91 42.26 24.91 42.26L24.77 42.12L24.94 42.29Q25.90 42.22 26.55 42.30L26.55 42.30L26.42 42.18Q28.08 38.24 31.43 30.24L31.46 30.27L31.36 30.17Q31.25 35.62 33.84 40.95Z"/></svg>