<svg xmlns="http://www.w3.org/2000/svg" width="150" height="50" viewBox="0,0,150,50"><path fill="#333" d="M128.32 37.89L128.27 37.84L128.31 37.87Q128.61 38.86 129.14 40.88L129.20 40.93L129.13 40.87Q125.00 39.63 120.39 39.89L120.37 39.87L120.33 39.83Q115.79 40.12 111.79 42.10L111.86 42.18L111.71 42.02Q112.01 41.41 112.05 41.48L112.00 41.44L112.09 41.53Q115.70 37.45 119.62 33.03L119.68 33.09L119.69 33.11Q124.15 28.16 125.33 23.48L125.37 23.52L125.39 23.54Q125.74 21.68 124.46 20.50L124.50 20.53L124.57 20.60Q123.22 19.34 121.43 19.50L121.51 19.57L121.44 19.51Q121.04 19.42 120.70 19.42L120.65 19.37L120.64 19.36Q119.26 19.50 118.01 20.41L118.02 20.43L117.88 20.29Q116.63 21.70 116.86 24.37L116.95 24.46L116.90 24.42Q115.16 24.12 113.94 23.66L113.79 23.51L113.85 23.57Q113.71 22.21 113.63 20.76L113.63 20.76L113.68 20.81Q113.52 19.09 114.13 17.94L114.10 17.91L114.09 17.91Q116.02 16.67 119.37 16.67L119.29 16.60L121.10 16.65L121.06 16.61Q123.32 16.63 124.27 16.74L124.17 16.64L124.18 16.65Q128.57 17.12 128.83 19.56L128.88 19.60L128.95 19.67Q128.94 20.15 128.86 20.95L128.86 20.95L128.83 20.93Q128.91 21.69 128.76 22.37L128.60 22.21L128.61 22.22Q127.06 30.42 119.48 37.27L119.53 37.32L119.40 37.19Q120.89 37.12 122.26 37.12L122.25 37.10L122.25 37.10Q125.47 37.09 128.32 37.89ZM127.75 17.07L127.80 17.12L127.71 17.02Q126.22 16.48 124.50 16.41L124.44 16.34L121.00 16.14L121.13 16.27Q116.67 16.00 114.47 17.10L114.32 16.96L114.31 16.95Q113.33 18.41 113.33 20.46L113.30 20.43L113.20 20.33Q113.39 21.21 113.70 24.03L113.62 23.95L113.66 23.99Q114.14 24.16 115.32 24.47L115.42 24.57L115.30 25.47L115.36 25.53Q115.27 25.94 115.35 26.47L115.38 26.50L115.48 26.61Q116.68 26.66 119.15 26.89L119.04 26.78L119.03 26.77Q119.11 26.51 119.11 26.17L119.07 26.12L119.09 26.14Q119.12 24.34 120.34 22.99L120.34 22.99L120.30 22.96Q121.52 21.61 123.31 21.72L123.35 21.76L123.30 21.71Q123.98 21.67 124.74 21.82L124.87 21.95L124.81 21.89Q125.04 22.39 125.12 22.80L124.94 22.63L125.05 22.74Q124.99 23.06 124.91 23.40L125.01 23.50L125.02 23.51Q123.68 28.19 119.27 33.02L119.32 33.08L119.40 33.16Q117.26 35.40 111.82 41.45L111.65 41.28L111.75 41.38Q111.50 42.16 111.16 42.73L111.14 42.71L111.30 42.87Q112.80 41.89 114.32 41.36L114.41 41.45L114.31 41.35Q113.53 41.86 112.58 43.35L112.62 43.39L112.64 43.41Q112.60 43.83 112.49 44.17L112.50 44.18L112.48 44.16Q117.33 42.08 122.81 42.27L122.85 42.32L122.81 42.27Q128.45 42.39 133.01 44.75L133.06 44.80L131.95 42.54L131.95 42.54Q131.41 41.32 131.14 40.52L131.09 40.47L131.15 40.53Q130.36 40.04 129.14 39.62L129.10 39.58L129.08 39.56Q129.08 38.99 128.70 37.61L128.57 37.49L128.73 37.65Q126.49 37.05 124.21 36.86L124.10 36.75L124.25 36.90Q128.78 32.18 130.30 23.92L130.45 24.06L130.59 21.12L130.55 21.09Q130.52 19.33 129.30 18.65L129.33 18.68L129.12 18.51L129.30 18.69Q129.24 18.60 129.17 18.60L129.05 18.48L129.19 18.62Q128.90 17.72 127.80 17.11Z"/><path fill="#222" d="M97.37 40.23L97.24 40.09L97.33 40.18Q95.41 40.06 93.74 40.63L93.82 40.71L93.79 40.68Q94.42 37.16 94.53 34.04L94.49 34.00L94.44 33.94Q94.65 31.00 94.43 27.35L94.27 27.19L94.40 27.32Q92.84 26.79 92.08 26.41L92.09 26.42L91.86 23.56L91.81 23.51Q92.55 24.13 94.15 24.70L94.07 24.63L94.15 24.71Q93.90 22.55 93.48 19.81L93.40 19.74L93.44 19.78Q95.85 20.59 97.49 20.43L97.39 20.33L97.29 24.96L97.21 24.87Q98.70 24.88 100.04 24.39L99.98 24.34L100.10 24.45Q99.97 25.28 99.74 27.03L99.74 27.03L99.71 27.00Q98.22 27.37 97.19 27.37L97.26 27.44L97.25 27.43Q97.30 29.65 97.30 33.92L97.25 33.86L97.12 33.73Q97.26 38.02 97.34 40.19ZM100.46 23.82L100.38 23.75L100.38 23.75Q100.17 23.91 99.56 24.14L99.59 24.18L99.92 21.35L99.93 21.35Q99.24 21.77 97.83 22.00L97.84 22.00L97.79 21.95Q97.78 21.26 97.94 19.89L97.86 19.82L97.94 19.89Q97.22 19.86 96.65 19.86L96.80 20.01L96.81 20.02Q94.58 19.92 92.94 19.20L92.99 19.25L92.91 19.17Q93.43 21.66 93.69 24.14L93.74 24.19L93.68 24.12Q92.75 23.72 91.22 22.70L91.37 22.84L91.31 22.78Q91.61 24.03 91.84 26.74L91.97 26.87L91.83 26.73Q92.38 27.06 93.56 27.47L93.54 27.45L93.54 27.45Q93.63 28.15 93.67 29.56L93.58 29.47L94.00 29.55L94.06 29.53L94.06 29.53Q94.08 30.73 94.08 31.91L94.21 32.04L94.15 31.98Q94.11 36.89 93.31 41.23L93.38 41.30L93.41 41.33Q93.52 41.13 95.46 40.60L95.53 40.67L95.47 40.61Q95.49 41.27 95.37 42.64L95.31 42.58L95.44 42.72Q96.29 42.68 97.09 42.68L97.04 42.64L97.07 42.66Q98.71 42.59 100.34 43.16L100.44 43.26L100.40 43.22Q98.97 37.41 99.16 29.49L99.25 29.58L101.60 29.15L101.69 29.25Q101.59 28.15 101.66 27.12L101.85 27.30L101.93 25.18L101.99 25.24Q101.43 25.52 100.25 25.98L100.16 25.88L100.15 25.88Q100.49 24.58 100.42 24.24L100.34 24.16L100.48 24.30Q100.44 24.07 100.51 23.88Z"/><path fill="#222" d="M71.11 19.59L71.23 19.72L69.55 19.71L69.50 19.67Q67.27 19.79 67.04 21.81L67.12 21.89L67.20 21.97Q66.94 22.51 66.98 23.50L67.09 23.61L67.00 23.52Q67.05 25.47 68.30 26.80L68.42 26.92L68.31 26.81Q69.69 28.27 71.60 28.12L71.62 28.14L71.55 28.07Q73.48 27.80 74.25 26.88L74.26 26.90L74.26 26.90Q75.44 26.10 75.70 23.85L75.72 23.86L75.68 23.83Q76.03 21.66 74.77 20.82L74.68 20.74L74.70 20.75Q73.72 19.85 71.06 19.54ZM77.26 28.94L77.16 28.85L75.86 31.12L75.96 31.22Q73.28 36.04 69.51 40.11L69.48 40.08L69.38 39.99Q67.70 40.09 65.00 40.89L65.08 40.98L65.17 41.07Q70.41 34.69 73.57 29.90L73.63 29.96L73.51 29.84Q72.58 30.58 70.94 30.66L70.95 30.67L71.00 30.72Q67.95 30.83 66.43 28.85L66.29 28.71L66.40 28.82Q65.25 27.29 64.15 22.72L64.06 22.64L64.01 22.58Q63.97 22.09 63.82 21.16L63.84 21.17L63.83 21.17Q63.70 20.26 63.70 19.80L63.67 19.77L63.76 19.87Q63.84 18.15 64.91 17.54L64.83 17.46L64.82 17.45Q66.05 16.71 67.91 16.71L67.94 16.73L67.86 16.65Q71.12 16.71 71.12 16.71L71.19 16.78L71.06 16.66Q73.34 16.81 74.60 17.00L74.53 16.93L74.63 17.03Q76.72 17.25 77.63 17.75L77.52 17.63L77.64 17.76Q78.86 18.36 79.05 20.11L79.04 20.11L79.23 20.30Q79.22 20.52 79.03 23.18L78.99 23.14L78.97 23.12Q78.59 25.25 78.36 26.09L78.28 26.00L78.36 26.09Q78.06 27.57 77.30 28.98ZM79.18 31.36L79.10 31.28L79.20 31.38Q80.18 29.16 80.71 24.86L80.62 24.77L80.60 24.75Q80.94 22.61 80.90 21.74L80.89 21.73L80.89 21.72Q80.74 19.75 79.56 18.84L79.72 19.00L79.27 18.74L79.33 18.79Q78.99 17.96 78.07 17.31L78.08 17.32L78.21 17.44Q75.96 16.49 71.16 16.33L71.17 16.34L71.08 16.25Q70.15 16.28 67.71 16.28L67.69 16.25L67.62 16.19Q65.84 16.16 64.36 16.84L64.45 16.93L64.53 17.02Q63.31 17.73 63.38 19.56L63.35 19.53L63.28 19.46Q63.63 20.53 63.82 22.55L63.74 22.47L63.84 22.57Q64.43 25.17 64.69 26.01L64.59 25.91L64.60 25.92Q65.27 27.88 66.22 29.17L66.10 29.05L66.23 29.19Q66.49 29.52 66.87 29.90L66.89 29.92L66.77 29.80Q67.10 30.32 67.74 31.23L67.78 31.26L67.75 31.23Q69.19 32.56 71.13 32.75L71.16 32.78L71.15 32.77Q69.17 35.36 67.60 37.26L67.74 37.39L64.16 41.81L63.98 41.62Q66.33 40.97 67.96 40.63L67.91 40.57L67.97 40.64Q67.15 41.45 65.59 43.16L65.66 43.23L65.70 43.27Q68.69 42.27 71.82 42.23L71.89 42.30L71.92 42.33Q74.22 39.73 78.56 32.50L78.39 32.32L78.47 32.48L78.47 32.47Q78.73 31.74 79.07 31.25ZM73.09 22.04L73.02 21.97L73.04 21.99Q73.61 21.83 74.06 21.94L74.16 22.04L74.13 22.00Q74.83 22.17 75.21 22.29L75.08 22.16L75.16 22.24Q75.33 22.67 75.40 23.09L75.43 23.12L75.43 23.12Q75.40 23.43 75.28 23.81L75.31 23.84L75.23 23.76Q75.36 25.64 74.18 26.74L74.07 26.63L74.05 26.61Q73.21 27.75 71.57 27.71L71.62 27.76L71.51 27.65Q71.04 27.59 69.51 27.29L69.68 27.46L69.55 27.32Q69.26 26.39 69.26 25.66L69.44 25.85L69.40 25.80Q69.24 25.46 69.24 25.23L69.21 25.19L69.30 25.29Q69.21 22.98 71.49 22.18L71.59 22.29L71.52 22.22Q72.27 22.05 73.11 22.05Z"/><path fill="#111" d="M46.52 40.16L46.55 40.19L44.20 33.38L44.13 33.31Q39.69 20.65 33.75 14.25L33.76 14.27L33.80 14.30Q35.96 15.51 38.55 16.12L38.44 16.01L38.38 15.95Q43.63 22.34 47.97 35.09L48.00 35.12L47.90 35.02Q51.06 27.04 51.75 25.44L51.63 25.32L51.72 25.41Q54.12 19.82 56.94 16.51L56.84 16.41L56.82 16.39Q58.92 16.04 61.54 15.17L61.46 15.08L61.64 15.27Q57.06 19.86 54.01 27.09L53.97 27.05L53.98 27.06Q52.61 30.75 48.92 40.27L48.92 40.27L48.78 40.13Q48.27 40.19 47.70 40.16L47.66 40.12L47.61 40.07Q47.15 40.18 46.58 40.22ZM51.60 42.65L51.64 42.69L51.66 42.70Q54.27 32.53 55.83 28.49L55.99 28.65L55.90 28.56Q58.88 20.84 63.29 15.97L63.37 16.05L63.27 15.95Q62.35 16.43 60.26 17.16L60.13 17.02L61.40 15.82L61.28 15.70Q61.94 15.11 62.55 14.46L62.47 14.38L62.64 14.55Q59.73 15.44 56.72 16.02L56.75 16.04L56.78 16.07Q52.34 21.34 48.45 32.80L48.55 32.90L48.40 32.75Q44.71 22.58 41.51 18.20L41.67 18.37L41.63 18.33Q41.22 18.22 40.35 18.07L40.36 18.09L40.29 18.01Q40.08 17.65 38.49 15.60L38.51 15.63L38.48 15.59Q35.51 14.87 32.81 13.46L32.94 13.59L32.89 13.55Q39.54 20.65 43.91 33.44L43.93 33.45L43.91 33.43Q45.05 37.01 46.23 40.59L46.16 40.52L46.27 40.63Q46.64 40.69 47.48 40.58L47.42 40.52L47.46 40.57Q47.85 41.29 48.53 42.63L48.53 42.63L48.48 42.57Q49.32 42.50 50.04 42.58L49.96 42.49L49.96 42.49Q50.79 42.60 51.55 42.60Z"/><path fill="#333" d="M21.51 40.25L21.48 40.22L21.44 40.18Q18.07 40.39 16.43 39.85L16.42 39.84L16.32 39.74Q14.39 39.14 14.08 35.76L14.03 35.70L15.61 34.77L15.62 34.78Q16.35 34.25 17.11 33.75L17.11 33.76L17.10 33.75Q16.84 35.66 18.44 36.88L18.43 36.86L18.36 36.79Q19.68 37.85 21.81 37.66L21.83 37.68L21.88 37.72Q26.08 37.13 25.89 33.59L25.93 33.63L26.05 33.75Q25.86 31.47 23.24 30.25L23.17 30.18L23.25 30.27Q20.28 29.08 17.92 27.86L17.95 27.89L18.04 27.98Q15.36 26.53 14.37 21.84L14.43 21.90L14.42 21.89Q14.25 21.38 14.14 20.62L14.25 20.73L14.25 20.73Q14.11 19.90 14.18 19.33L14.17 19.32L14.13 19.28Q14.29 17.69 15.55 17.23L15.61 17.30L15.59 17.28Q18.09 16.50 22.09 16.69L22.00 16.60L21.95 16.55Q23.86 16.75 24.66 16.83L24.64 16.81L24.62 16.79Q26.14 17.01 27.20 17.47L27.19 17.45L27.13 17.40Q29.27 17.90 29.50 20.38L29.56 20.43L29.59 20.47Q28.56 21.19 26.35 22.52L26.31 22.48L26.20 22.36Q25.86 19.44 21.48 19.44L21.49 19.44L21.43 19.38Q19.59 19.45 18.60 20.13L18.55 20.08L18.56 20.09Q17.33 20.54 17.56 22.33L17.64 22.41L17.68 22.44Q17.94 24.65 20.91 26.17L20.82 26.08L20.79 26.05Q21.37 26.33 25.86 27.96L25.90 28.00L25.89 27.99Q28.52 29.48 28.94 33.86L29.03 33.95L29.02 33.95Q28.91 33.98 28.98 35.24L29.12 35.37L29.12 35.37Q29.13 38.08 27.57 39.19L27.61 39.23L27.50 39.12Q25.70 40.14 21.51 40.25ZM23.87 42.69L23.73 42.54L23.75 42.56Q25.34 42.79 27.32 42.79L27.15 42.61L27.24 42.71Q29.36 42.73 30.62 42.31L30.57 42.27L30.63 42.32Q31.81 41.45 31.73 39.66L31.72 39.65L31.80 39.73Q31.76 38.73 31.38 36.68L31.40 36.70L31.23 36.53Q30.36 31.90 28.27 30.03L28.34 30.10L28.40 30.16Q27.56 28.53 26.23 27.80L26.30 27.87L20.89 25.69L20.80 25.60Q20.61 25.57 20.16 25.34L20.04 25.23L20.03 24.95L20.04 24.62L19.94 24.52Q19.91 23.23 21.05 22.62L20.96 22.53L21.02 22.59Q21.72 21.95 23.43 21.76L23.42 21.76L23.39 21.73Q24.52 21.60 25.66 22.05L25.69 22.08L25.77 22.16Q25.77 22.21 25.96 23.04L26.01 23.09L25.99 23.07Q26.25 22.98 26.74 22.75L26.69 22.70L26.57 22.59Q27.30 23.51 27.42 24.65L27.42 24.65L27.50 24.73Q27.66 24.78 31.32 22.19L31.32 22.19L31.25 22.12Q30.90 19.42 29.46 18.73L29.57 18.84L29.43 18.70Q28.88 17.47 27.43 16.93L27.47 16.97L27.46 16.96Q25.15 16.13 21.95 16.13L22.07 16.26L22.12 16.30Q17.16 16.25 15.29 16.94L15.19 16.84L15.25 16.90Q13.98 17.42 13.87 19.10L13.72 18.95L13.78 19.00Q13.83 19.63 14.25 21.84L14.17 21.75L14.19 21.78Q14.95 25.62 17.12 27.87L17.08 27.82L17.03 27.78Q17.80 29.46 19.31 30.15L19.39 30.23L19.30 30.14Q20.81 30.83 24.73 32.40L24.79 32.45L24.73 32.42L25.44 32.84L25.36 32.79L25.46 32.89Q25.57 33.27 25.61 33.61L25.58 33.58L25.65 33.65Q25.67 37.07 21.75 37.22L21.77 37.23L21.72 37.19Q20.70 37.34 19.40 36.96L19.24 36.80L19.27 36.83Q18.92 35.99 18.92 35.26L18.96 35.30L19.09 35.44Q19.09 35.17 19.13 34.90L19.05 34.82L19.08 34.85Q18.58 35.00 17.78 35.49L17.75 35.47L17.89 35.60Q17.32 34.42 17.47 33.05L17.54 33.12L17.43 33.01Q15.39 34.24 13.79 35.65L13.79 35.65L13.87 35.73Q13.75 36.38 13.83 37.40L13.97 37.54L13.94 37.51Q14.26 39.24 15.55 40.00L15.63 40.08L15.48 39.93Q16.69 41.75 19.24 42.13L19.41 42.30L19.28 42.17Q20.81 42.36 23.74 42.55Z"/></svg>