<svg xmlns="http://www.w3.org/2000/svg" width="150" height="50" viewBox="0,0,150,50"><path fill="#222" d="M24.71 39.87L24.59 39.75L24.77 39.93Q22.70 39.77 20.68 39.96L20.65 39.92L20.75 40.02Q21.38 34.76 21.38 29.92L21.30 29.84L21.45 29.99Q21.39 25.01 20.74 19.80L20.69 19.75L20.75 19.81Q16.20 19.45 13.01 17.77L12.99 17.76L12.31 16.05L12.19 15.93Q12.02 15.45 11.41 14.24L11.36 14.19L11.40 14.23Q16.57 17.00 22.59 17.19L22.53 17.14L22.50 17.10Q28.40 17.29 33.84 15.24L33.77 15.16L33.87 15.26Q33.16 16.69 32.51 18.51L32.58 18.58L32.44 18.44Q28.86 19.77 24.60 19.96L24.52 19.88L24.60 19.96Q24.31 24.89 24.31 29.84L24.40 29.93L24.36 29.89Q24.36 34.84 24.67 39.83ZM34.58 14.60L34.49 14.51L34.49 14.52Q28.71 16.85 22.51 16.66L22.39 16.54L22.53 16.67Q15.88 16.50 10.78 13.53L10.66 13.41L10.75 13.50Q11.49 14.77 12.78 18.05L12.72 17.98L12.82 18.09Q13.39 18.31 14.65 18.88L14.75 18.98L14.62 18.85Q14.91 19.61 15.26 21.13L15.23 21.10L15.34 21.21Q17.58 22.01 20.63 22.24L20.53 22.14L20.68 22.29Q20.97 25.89 20.97 29.66L20.93 29.62L20.94 29.63Q20.95 35.01 20.15 40.37L20.13 40.35L20.18 40.40Q21.84 40.27 22.37 40.27L22.31 40.21L22.46 40.36Q22.41 40.61 22.35 41.28L22.28 41.21L22.31 41.24Q22.32 41.98 22.32 42.32L22.31 42.31L22.27 42.27Q23.50 42.24 25.02 42.32L24.96 42.26L24.90 42.19Q25.85 42.26 27.67 42.42L27.74 42.49L27.75 42.49Q26.54 37.59 26.42 32.41L26.49 32.48L26.45 32.44Q26.20 27.01 26.73 22.09L26.79 22.16L26.71 22.07Q30.73 21.60 33.89 20.38L33.97 20.47L33.95 20.45Q34.53 17.94 35.56 15.88L35.65 15.97L35.69 16.02Q34.25 16.59 33.45 16.90L33.44 16.89L33.49 16.94Q33.87 15.60 34.44 14.46Z"/><path fill="#333" d="M73.05 27.72L73.01 27.69L73.08 27.75Q69.63 27.73 68.52 31.08L68.49 31.04L68.41 30.96Q68.16 32.16 68.04 33.23L68.05 33.23L67.88 33.06Q67.77 35.19 68.76 36.53L68.69 36.46L68.64 36.41Q69.99 37.60 72.46 37.64L72.54 37.72L72.46 37.64Q74.33 37.72 75.74 36.58L75.81 36.65L75.72 36.56Q77.25 35.54 77.25 33.75L77.08 33.58L77.26 33.77Q77.24 33.40 77.17 33.02L77.10 32.95L77.04 32.90Q76.79 27.73 72.98 27.66ZM72.89 40.13L73.04 40.27L72.94 40.18Q69.07 40.35 67.29 38.33L67.36 38.40L67.38 38.43Q67.05 39.35 66.59 40.72L66.62 40.75L66.73 40.86Q64.72 41.55 63.46 42.12L63.46 42.12L63.34 41.99Q65.69 36.20 65.69 29.69L65.60 29.60L65.71 29.71Q65.70 21.40 62.28 13.56L62.24 13.52L62.21 13.50Q64.48 14.78 65.81 15.23L65.86 15.28L65.84 15.26Q67.92 21.87 68.07 27.69L68.12 27.74L68.10 27.72Q69.66 25.18 73.40 25.21L73.31 25.13L73.32 25.14Q76.65 25.27 78.13 27.13L78.00 27.00L78.05 27.05Q79.81 29.27 79.96 32.84L79.96 32.84L80.05 32.93Q80.06 34.05 79.99 35.65L80.05 35.71L80.09 35.75Q79.94 37.09 79.06 38.23L78.99 38.15L79.06 38.23Q77.34 39.97 73.00 40.23ZM78.39 42.66L78.43 42.70L78.35 42.62Q79.97 42.75 81.45 42.07L81.48 42.09L81.38 41.99Q82.45 40.67 82.49 38.72L82.56 38.80L82.67 38.90Q82.67 38.41 82.52 37.23L82.38 37.09L82.52 37.23Q82.35 36.45 82.23 35.54L82.28 35.59L82.25 35.55Q81.44 30.79 79.88 28.73L79.78 28.62L79.82 28.67Q79.89 28.70 79.09 27.83L78.97 27.71L78.97 27.71Q78.83 27.53 78.30 26.73L78.31 26.74L78.33 26.76Q76.65 24.74 73.30 24.78L73.31 24.79L73.32 24.80Q71.19 24.76 69.94 25.37L70.06 25.50L70.04 25.48Q69.74 20.98 69.13 17.79L69.16 17.82L68.98 17.64Q68.36 17.59 66.88 17.21L66.80 17.13L66.78 17.12Q66.61 16.34 66.16 14.89L66.22 14.95L66.34 15.07Q63.82 14.19 61.57 12.63L61.49 12.55L61.66 12.72Q65.31 20.78 65.31 29.57L65.31 29.57L65.38 29.64Q65.43 36.67 62.96 42.87L62.91 42.82L62.96 42.88Q63.56 42.44 64.89 41.87L64.91 41.89L64.89 41.87Q64.64 42.61 64.03 44.14L63.98 44.08L64.09 44.19Q66.04 43.25 68.82 42.72L68.87 42.76L69.15 40.84L69.15 40.84Q71.52 42.61 78.45 42.72ZM74.57 29.93L74.58 29.94L74.76 30.12Q75.64 29.97 76.17 30.35L76.15 30.33L76.16 30.34Q76.61 30.98 76.83 32.99L76.72 32.88L76.78 32.94Q77.04 34.87 75.79 36.19L75.83 36.23L75.66 36.06Q74.42 37.39 72.48 37.28L72.44 37.24L72.63 37.43Q71.52 37.39 70.04 36.89L70.21 37.06L70.07 36.92Q69.87 36.46 69.87 35.93L69.89 35.95L69.93 35.98Q69.90 32.87 71.46 31.27L71.46 31.28L71.40 31.25L71.46 31.31Q72.91 29.94 74.66 30.02Z"/><path fill="#111" d="M54.97 40.31L55.11 40.44L55.11 40.44Q51.99 36.41 49.36 27.77L49.42 27.83L49.39 27.80Q48.75 25.68 47.95 23.54L48.03 23.62L45.04 32.28L45.14 32.38Q43.22 37.19 40.82 40.43L40.92 40.54L40.83 40.44Q40.00 40.52 38.36 40.67L38.49 40.80L38.47 40.79Q38.44 39.46 38.44 38.20L38.51 38.28L38.58 38.35Q38.60 32.35 35.86 26.23L35.87 26.23L35.83 26.19Q32.60 19.19 26.73 14.20L26.80 14.27L26.79 14.26Q28.85 14.87 31.21 15.40L31.21 15.40L31.26 15.46Q40.04 24.00 41.33 34.97L41.26 34.90L41.17 34.81Q42.91 31.60 44.36 26.23L44.31 26.19L44.34 26.21Q46.38 18.78 46.88 17.37L46.90 17.39L49.15 17.39L49.12 17.36Q49.89 19.47 50.54 21.79L50.36 21.61L51.60 26.05L51.61 26.06Q53.18 31.51 54.59 34.74L54.62 34.78L54.63 34.79Q56.23 23.10 64.15 15.76L64.17 15.78L64.15 15.76Q65.77 15.52 68.74 14.87L68.80 14.93L68.81 14.93Q63.35 19.11 60.31 25.24L60.32 25.26L60.37 25.30Q57.33 31.58 57.33 38.36L57.22 38.26L57.25 38.28Q57.28 39.42 57.35 40.56L57.35 40.56L56.18 40.41L56.20 40.44Q55.63 40.39 55.06 40.39ZM61.23 43.22L61.20 43.18L61.23 43.22Q60.06 39.72 60.17 35.84L60.08 35.75L60.08 35.75Q60.48 24.27 69.84 16.01L69.84 16.00L69.84 16.00Q68.97 16.31 67.03 16.84L67.05 16.87L66.94 16.76Q67.98 16.01 69.89 14.22L69.87 14.21L69.89 14.22Q67.12 14.88 64.18 15.37L64.21 15.40L64.22 15.41Q56.73 22.54 54.83 32.02L54.91 32.10L54.75 31.94Q54.19 30.32 51.34 18.86L51.34 18.85L51.48 19.00Q51.05 19.06 50.10 19.06L50.02 18.99L49.76 17.97L49.76 17.97Q49.63 17.42 49.40 16.92L49.30 16.82L46.57 16.98L46.43 16.84Q45.69 19.37 44.41 24.49L44.39 24.47L44.37 24.45Q43.06 29.54 42.07 32.02L42.03 31.98L42.05 32.00Q40.49 24.11 34.93 17.79L35.03 17.89L34.99 17.85Q34.54 17.82 33.59 17.63L33.48 17.52L33.50 17.54Q32.73 16.66 31.17 15.02L31.15 15.00L31.23 15.09Q27.79 14.23 25.62 13.43L25.62 13.43L25.77 13.58Q31.32 18.14 34.60 24.35L34.65 24.41L34.73 24.49Q38.01 30.92 38.01 37.92L38.20 38.12L38.09 38.01Q38.11 39.59 37.92 41.19L37.87 41.13L37.89 41.15Q38.21 41.24 38.66 41.15L38.58 41.07L38.56 41.04Q39.05 40.98 39.28 40.98L39.34 41.05L39.27 42.00L39.36 42.09Q39.33 42.52 39.41 43.06L39.29 42.94L39.27 42.92Q40.54 42.97 42.82 42.81L42.76 42.75L42.71 42.70Q46.48 37.45 49.22 28.05L49.19 28.02L49.20 28.03Q51.98 36.82 54.95 40.78L54.81 40.64L54.89 40.73Q55.39 40.76 56.23 40.88L56.14 40.79L56.17 40.82Q57.13 41.97 58.19 43.03L58.03 42.87L58.14 42.98Q58.98 43.10 61.38 43.37Z"/><path fill="#222" d="M119.62 28.63L119.65 28.66L119.66 28.68Q116.84 28.67 116.08 30.91L115.97 30.81L115.93 30.77Q115.72 31.51 115.60 32.16L115.58 32.13L115.63 32.18Q118.27 32.42 119.91 32.42L119.82 32.33L119.98 32.50Q121.61 32.49 124.20 32.38L124.21 32.38L124.26 32.44Q123.98 30.56 122.57 29.49L122.60 29.52L122.55 29.47Q121.31 28.54 119.52 28.54ZM119.71 41.21L119.75 41.25L119.64 41.14Q115.37 41.10 114.08 39.69L114.21 39.83L114.08 39.70Q113.27 38.39 113.12 35.11L113.04 35.04L113.01 35.00Q113.02 34.79 112.95 33.42L113.05 33.52L112.97 33.44Q112.78 31.08 112.78 30.36L112.91 30.49L112.78 30.36Q112.80 28.51 113.52 27.41L113.52 27.40L113.55 27.44Q114.89 25.96 117.86 25.96L117.83 25.93L119.39 25.93L119.51 26.05Q121.49 25.98 123.01 26.28L123.09 26.35L123.07 26.34Q125.15 26.81 126.14 28.03L126.02 27.92L126.08 27.98Q126.66 29.01 126.74 31.11L126.93 31.30L126.91 31.28Q126.81 32.32 126.85 34.49L126.82 34.47L126.79 34.43Q123.95 34.49 121.17 34.49L121.25 34.56L115.62 34.53L115.66 34.58Q115.70 38.87 119.77 38.65L119.81 38.68L119.74 38.61Q123.69 38.60 124.91 36.78L124.76 36.63L124.83 36.70Q125.70 37.22 127.30 38.40L127.32 38.43L127.20 38.31Q125.89 40.76 121.74 41.03L121.86 41.15L121.70 40.99Q121.07 41.13 119.70 41.20ZM121.98 43.52L121.92 43.46L121.98 43.52Q122.99 43.39 124.21 43.47L124.32 43.57L124.29 43.54Q129.19 43.65 130.11 40.87L130.14 40.91L130.25 41.02Q128.56 39.71 127.46 38.95L127.51 39.00L127.43 38.92Q127.54 38.46 127.73 38.23L127.83 38.33L127.79 38.29Q127.11 37.87 125.74 36.92L125.69 36.88L125.73 36.91Q126.78 36.93 128.83 37.24L128.77 37.18L128.83 37.24Q128.68 35.91 128.61 35.22L128.66 35.28L128.53 33.36L128.49 33.32Q128.28 30.90 127.63 29.41L127.67 29.45L127.59 29.37Q127.35 29.05 126.78 28.44L126.77 28.44L126.86 28.52Q126.60 28.12 126.38 27.55L126.38 27.55L126.53 27.71Q124.49 25.51 119.42 25.51L119.47 25.55L117.85 25.61L117.77 25.53Q114.67 25.67 113.23 27.15L113.08 27.01L113.07 26.99Q112.45 28.16 112.49 30.22L112.38 30.12L112.57 30.30Q112.57 31.21 112.68 33.46L112.65 33.42L112.71 33.49Q112.71 35.01 112.82 37.07L112.83 37.07L112.93 37.17Q113.15 39.38 114.03 40.44L113.98 40.39L113.95 40.36Q114.25 40.67 114.44 40.78L114.30 40.64L114.75 41.43L114.57 41.25Q115.40 43.14 121.98 43.52ZM119.87 38.32L119.93 38.38L119.87 38.33Q118.60 38.31 117.69 37.85L117.86 38.03L117.78 37.95Q117.73 37.55 117.54 36.87L117.53 36.86L117.58 36.91Q119.16 36.70 120.76 36.70L120.86 36.80L120.90 36.85Q122.42 36.68 124.09 36.80L124.18 36.89L124.26 36.97Q122.83 38.16 119.82 38.28ZM121.57 31.04L121.52 30.99L121.61 31.08Q122.15 31.01 123.48 31.39L123.47 31.38L123.63 31.73L123.77 32.06L123.58 31.87Q122.24 32.01 121.32 31.97L121.32 31.97L121.31 31.96Q119.02 31.91 118.98 31.91L119.17 32.10L119.15 32.09Q119.73 30.99 121.41 30.88Z"/><path fill="#333" d="M96.87 18.39L96.90 18.42L96.95 18.47Q96.25 18.87 96.09 19.67L96.06 19.63L95.99 24.70L96.11 24.82Q97.24 24.81 99.45 24.54L99.44 24.53L99.41 24.51Q99.35 24.90 99.31 25.74L99.34 25.76L99.38 25.80Q99.37 26.60 99.37 27.05L99.34 27.02L97.70 27.06L97.65 27.01Q96.90 27.13 96.02 27.13L96.12 27.23L95.98 27.09Q95.96 31.26 95.89 39.64L96.03 39.78L96.01 39.76Q93.72 39.75 92.23 40.44L92.19 40.40L92.30 40.50Q93.44 34.41 93.32 27.18L93.22 27.07L93.23 27.09Q92.65 27.11 91.36 26.85L91.35 26.84L91.35 26.83Q91.34 25.84 91.15 23.90L91.19 23.94L91.17 23.92Q92.24 24.38 93.20 24.57L93.19 24.57L93.12 24.50Q93.07 23.84 92.77 21.37L92.81 21.41L92.88 21.48Q92.67 19.44 92.67 18.49L92.56 18.38L92.50 18.32Q92.54 16.69 93.95 16.12L94.01 16.17L93.99 16.15Q94.87 15.86 99.71 15.02L99.59 14.90L99.67 14.98Q100.47 14.83 101.31 14.71L101.30 14.71L101.36 14.76Q101.01 15.41 100.86 16.29L100.95 16.37L100.55 17.84L100.69 17.98Q100.02 17.81 99.53 17.92L99.49 17.89L99.51 17.91Q98.85 17.86 96.95 18.47ZM102.29 19.50L102.35 19.56L102.42 19.64Q102.72 17.38 103.32 14.83L103.38 14.89L103.29 14.79Q102.76 15.21 101.46 15.82L101.42 15.78L101.90 14.17L101.77 14.03Q100.60 14.28 98.13 14.81L98.06 14.74L98.06 14.74Q96.85 14.79 93.65 15.70L93.72 15.77L93.72 15.77Q92.20 16.23 92.20 18.10L92.21 18.11L92.13 18.02Q92.25 18.45 92.33 18.79L92.28 18.75L92.27 18.74Q92.49 20.07 92.61 21.40L92.61 21.40L92.72 23.98L92.71 23.97Q91.41 23.66 90.76 23.21L90.77 23.22L90.76 23.20Q90.80 24.08 90.84 25.11L90.93 25.20L91.07 27.21L90.94 27.07Q91.66 27.27 92.46 27.34L92.62 27.50L92.52 29.49L93.03 29.62L92.89 29.48Q92.80 35.64 91.81 41.08L91.73 41.00L91.85 41.12Q92.85 40.63 94.03 40.37L94.10 40.44L93.81 42.40L93.81 42.40Q95.12 42.18 96.41 42.14L96.28 42.01L96.32 42.05Q97.56 42.03 98.82 42.30L98.81 42.30L98.93 42.42Q97.92 37.26 97.92 29.30L97.90 29.28L98.01 29.38Q99.15 29.42 101.24 29.50L101.14 29.39L101.26 27.65L101.27 27.66Q101.28 26.72 101.32 25.77L101.28 25.73L101.26 25.71Q100.80 25.82 99.74 26.09L99.74 26.09L99.64 25.99Q99.62 25.29 99.73 23.95L99.75 23.97L99.82 24.04Q99.00 24.29 98.20 24.36L98.14 24.30L98.06 24.22Q98.20 22.96 98.32 21.55L98.26 21.49L98.31 21.54Q98.52 20.95 99.05 20.60L98.87 20.42L98.95 20.50Q100.00 19.92 100.82 19.85L100.77 19.79L100.75 19.78Q101.60 19.73 102.44 19.65Z"/></svg>