<svg xmlns="http://www.w3.org/2000/svg" width="150" height="50" viewBox="0,0,150,50"><path fill="#333" d="M90.08 49.72L90.07 49.72L90.01 49.66Q92.79 45.66 95.68 39.45L95.74 39.51L95.78 39.55Q92.74 33.08 86.65 25.01L86.61 24.97L86.61 24.98Q88.37 25.97 91.15 26.62L91.30 26.77L91.22 26.69Q94.76 31.37 97.20 36.59L97.22 36.61L97.13 36.52Q99.35 31.28 102.43 26.86L102.51 26.94L102.45 26.88Q104.68 26.56 106.77 25.76L106.83 25.82L106.78 25.77Q103.35 29.57 99.89 36.99L99.91 37.01L97.08 43.02L97.08 43.02Q95.67 46.18 93.92 48.81L93.93 48.82L93.78 48.67Q91.34 49.01 89.90 49.54ZM96.06 50.87L96.12 50.93L96.12 50.93Q97.96 48.16 99.41 44.89L99.38 44.86L102.04 38.46L102.05 38.47Q105.59 30.47 108.90 26.47L108.87 26.45L108.93 26.50Q107.57 27.17 105.67 27.85L105.70 27.88L106.63 26.38L106.66 26.41Q107.11 25.60 107.71 24.91L107.84 25.03L107.74 24.94Q105.23 26.16 102.38 26.62L102.27 26.51L102.38 26.62Q99.59 30.49 97.64 34.94L97.62 34.92L97.54 34.83Q96.03 31.65 94.24 28.83L94.11 28.70L94.18 28.77Q93.89 28.68 93.53 28.64L93.64 28.74L93.54 28.65Q93.25 28.68 93.06 28.68L93.12 28.74L93.03 28.65Q92.39 27.52 91.44 26.37L91.43 26.37L91.40 26.34Q88.20 25.65 85.46 23.94L85.37 23.85L85.39 23.87Q91.78 32.01 95.47 39.62L95.41 39.56L95.37 39.52Q93.31 44.69 89.23 50.32L89.23 50.32L89.13 50.23Q90.03 50.02 90.83 49.87L90.75 49.79L92.41 49.47L92.41 49.47Q91.79 50.18 90.61 51.82L90.59 51.79L90.69 51.89Q92.88 51.19 96.16 50.97Z"/><path fill="#333" d="M31.16 41.60L31.06 41.50L31.10 41.55Q28.96 41.11 26.79 40.96L26.85 41.02L26.73 40.90Q25.44 39.61 22.78 35.77L22.71 35.71L22.65 35.64Q20.56 38.84 18.16 41.28L18.17 41.29L16.09 41.68L16.08 41.67Q14.98 41.83 13.99 42.09L14.05 42.16L13.98 42.09Q18.11 37.91 21.12 33.80L21.16 33.84L21.09 33.78Q17.98 29.76 12.58 24.96L12.56 24.94L12.42 24.80Q14.71 25.61 17.41 26.03L17.44 26.05L17.50 26.11Q20.84 29.11 22.75 31.82L22.78 31.85L22.73 31.80Q24.92 28.81 27.66 26.30L27.60 26.24L27.66 26.30Q30.66 25.91 32.48 25.41L32.59 25.52L32.60 25.53Q28.04 29.15 24.35 33.72L24.27 33.65L24.32 33.69Q27.60 38.27 31.07 41.51ZM33.97 24.69L34.07 24.79L33.99 24.71Q31.06 25.51 27.52 25.86L27.47 25.81L27.53 25.87Q24.58 28.47 22.87 30.95L22.85 30.93L22.95 31.04Q21.97 29.89 20.33 27.92L20.47 28.06L20.31 28.08L20.32 28.10Q20.08 27.97 19.97 27.97L19.97 27.97L20.06 28.06Q19.28 27.20 17.64 25.76L17.58 25.70L17.59 25.70Q13.94 25.11 11.09 23.89L11.17 23.97L11.20 24.00Q16.58 28.66 20.62 33.80L20.72 33.90L20.65 33.83Q17.34 38.51 12.92 42.81L12.93 42.82L12.87 42.76Q13.18 42.73 16.68 41.89L16.66 41.88L16.69 41.90Q15.20 43.27 13.56 44.60L13.42 44.46L13.54 44.57Q16.78 43.71 19.94 43.52L19.86 43.44L19.89 43.47Q22.24 41.17 24.14 38.43L24.19 38.48L24.19 38.47Q25.59 40.21 26.80 41.39L26.85 41.44L26.78 41.37Q26.82 41.30 26.90 41.38L26.96 41.44L27.24 41.53L27.09 41.38Q28.40 42.53 29.73 43.60L29.67 43.54L29.79 43.66Q33.30 44.12 36.19 45.15L36.18 45.14L36.18 45.14Q29.96 40.63 26.27 35.45L26.28 35.47L26.44 35.62Q30.08 30.58 34.65 26.51L34.58 26.45L34.58 26.45Q33.59 26.75 32.60 26.98L32.62 27.00L30.68 27.53L30.56 27.41Q31.89 26.65 34.06 24.78Z"/><path fill="#444" d="M45.52 28.88L45.63 28.98L45.64 29.00Q43.05 28.95 42.02 30.13L41.91 30.02L41.92 30.04Q40.93 31.26 40.93 33.88L41.05 34.00L41.00 33.95Q40.98 39.03 45.58 38.84L45.66 38.92L45.65 38.91Q47.61 38.96 48.96 37.40L48.91 37.35L49.09 37.53Q50.38 35.91 50.15 33.85L50.18 33.88L50.16 33.86Q50.17 31.32 49.30 30.29L49.26 30.26L49.27 30.27Q47.85 28.99 45.64 28.99ZM50.52 38.64L50.59 38.70L50.63 38.74Q49.46 41.23 44.77 41.23L44.71 41.17L43.29 41.19L43.37 41.26Q40.91 41.17 39.80 40.02L39.72 39.94L39.86 40.08Q38.84 39.06 38.58 36.67L38.54 36.63L38.52 36.61Q38.38 35.14 38.31 33.35L38.37 33.41L38.25 33.30Q38.31 32.40 38.15 30.46L38.02 30.32L38.06 30.36Q38.07 26.19 43.25 26.19L43.24 26.18L44.72 26.09L44.78 26.16Q47.56 26.04 49.65 27.34L49.73 27.41L49.63 27.31Q50.60 27.98 51.09 28.66L50.98 28.55L51.07 28.64Q51.32 27.82 51.85 26.18L51.87 26.21L51.75 26.08Q52.94 25.86 55.26 25.25L55.38 25.38L55.30 25.30Q52.72 29.53 52.72 34.78L52.68 34.74L52.86 34.92Q52.74 38.54 54.11 41.62L54.20 41.71L54.04 41.54Q52.97 41.31 51.07 41.09L51.11 41.13L51.18 41.19Q50.80 40.17 50.50 38.61ZM53.84 43.86L53.93 43.95L56.08 44.46L56.20 44.58Q57.33 44.80 58.32 45.26L58.32 45.25L58.31 45.24Q54.73 40.98 54.73 34.89L54.62 34.78L54.69 34.85Q54.74 30.37 56.87 26.56L56.71 26.40L56.84 26.53Q56.09 26.65 54.75 27.03L54.72 27.00L54.90 27.18Q55.10 26.27 55.97 24.75L55.99 24.77L56.04 24.82Q55.48 25.02 51.49 25.86L51.51 25.89L50.86 27.63L50.93 27.70Q49.02 25.83 44.60 25.60L44.68 25.68L44.60 25.59Q43.65 25.78 41.40 25.94L41.42 25.96L41.30 25.84Q37.66 26.23 37.77 30.26L37.75 30.25L37.81 30.30Q37.87 33.56 38.44 38.02L38.48 38.06L38.44 38.43L38.43 38.42Q38.61 39.33 39.41 40.43L39.38 40.40L39.35 40.37Q39.54 40.57 39.73 40.68L39.83 40.77L39.79 40.74Q39.93 41.10 40.31 41.68L40.33 41.69L40.35 41.71Q41.71 43.19 45.10 43.38L45.21 43.49L45.27 43.55Q46.89 43.64 47.04 43.64L46.98 43.58L48.53 43.57L48.55 43.59Q51.71 43.56 52.93 42.00L52.95 42.02L52.89 41.95Q53.35 42.69 53.96 43.98ZM47.35 31.16L47.33 31.14L47.35 31.16Q48.73 31.22 49.57 31.67L49.59 31.69L49.57 31.67Q49.86 32.46 49.86 33.90L49.75 33.79L49.81 33.85Q49.93 35.69 48.66 37.11L48.65 37.11L48.67 37.13Q47.44 38.60 45.53 38.41L45.47 38.34L45.60 38.47Q44.03 38.35 43.00 37.93L43.02 37.95L43.18 38.11Q42.85 37.14 42.85 35.92L42.93 35.99L42.85 35.92Q42.98 32.39 45.61 31.44L45.56 31.39L45.58 31.42Q46.58 31.19 47.38 31.19Z"/><path fill="#111" d="M122.56 20.04L122.70 20.18L122.59 20.07Q118.38 20.16 114.68 19.17L114.57 19.05L114.67 19.16Q116.11 23.64 116.30 28.47L116.23 28.41L116.31 28.49Q116.60 33.38 115.38 37.99L115.24 37.85L115.38 37.98Q118.17 37.35 121.67 37.20L121.55 37.07L121.57 37.09Q125.60 37.02 127.39 34.58L127.39 34.58L127.33 34.52Q128.87 32.47 129.06 28.36L128.96 28.27L129.03 28.33Q129.03 26.51 128.57 24.80L128.58 24.81L128.71 24.94Q127.35 20.11 122.63 20.11ZM110.75 42.15L110.70 42.10L110.82 42.21Q113.60 36.43 113.60 29.73L113.59 29.72L113.70 29.83Q113.66 21.26 109.36 14.26L109.24 14.14L109.37 14.28Q114.61 16.92 122.87 17.11L122.89 17.13L122.75 16.99Q131.81 17.37 132.15 24.53L132.03 24.41L132.07 24.45Q132.23 27.20 132.20 28.65L132.07 28.52L132.20 28.65Q132.08 33.29 131.25 35.46L131.21 35.43L131.24 35.46Q130.75 36.49 129.99 37.33L130.05 37.39L129.97 37.31Q128.63 38.86 126.00 39.36L125.95 39.30L126.05 39.41Q124.55 39.77 121.54 40.00L121.40 39.86L121.54 39.99Q115.31 40.35 110.70 42.10ZM128.62 41.97L128.61 41.97L128.62 41.98Q131.40 41.67 133.04 40.19L133.09 40.24L133.04 40.19Q134.24 38.42 134.20 35.68L134.21 35.68L134.15 35.63Q134.15 34.26 134.00 30.75L133.98 30.74L133.69 26.26L133.61 26.18Q133.58 24.05 132.62 21.96L132.47 21.80L132.49 21.83Q132.08 21.00 131.40 20.35L131.28 20.23L131.30 20.10L131.35 20.15Q129.74 17.29 125.33 16.91L125.28 16.86L125.31 16.89Q122.46 16.59 115.46 15.87L115.55 15.96L115.48 15.89Q112.16 15.39 108.47 13.37L108.55 13.45L108.60 13.50Q113.49 20.94 113.49 29.70L113.36 29.57L113.32 29.53Q113.32 36.54 109.97 42.70L109.99 42.72L110.14 42.88Q110.77 42.55 112.10 42.05L112.10 42.05L112.06 42.01Q111.71 42.84 110.83 44.32L110.83 44.33L110.89 44.38Q113.80 43.18 117.15 42.68L117.17 42.71L117.21 42.74Q119.36 42.50 123.01 42.38L122.95 42.32L122.98 42.35Q126.89 42.26 128.71 42.07ZM128.69 28.37L128.68 28.37L128.69 28.38Q128.37 36.43 121.67 36.81L121.69 36.83L121.72 36.86Q119.72 36.92 117.66 37.19L117.70 37.22L117.70 37.22Q118.28 33.23 118.28 29.57L118.42 29.72L118.31 29.61Q118.36 25.97 117.64 22.12L117.52 22.00L117.64 22.12Q119.95 22.53 124.64 22.53L124.54 22.44L124.53 22.43Q125.86 22.24 127.50 23.19L127.58 23.27L127.62 23.31Q128.88 25.56 128.73 28.42Z"/><path fill="#333" d="M71.08 29.18L71.13 29.23L71.08 29.18Q69.30 29.27 68.09 30.60L67.96 30.48L68.04 30.55Q66.72 31.79 66.57 33.69L66.62 33.74L66.62 33.74Q66.54 35.98 67.76 36.99L67.59 36.82L67.59 36.82Q68.92 37.95 71.05 37.87L71.02 37.84L71.07 37.89Q73.32 37.66 74.27 36.71L74.22 36.66L74.24 36.68Q75.23 35.19 75.11 33.37L75.16 33.42L75.16 33.41Q75.04 31.54 73.96 30.34L74.02 30.41L74.10 30.49Q72.95 29.22 71.12 29.22ZM70.99 19.68L71.08 19.78L71.03 19.73Q69.67 19.66 68.33 20.15L68.26 20.08L68.26 20.08Q66.96 20.87 67.18 22.73L67.25 22.79L67.19 22.74Q67.68 26.47 71.03 26.47L71.06 26.50L71.16 26.60Q72.70 26.77 73.69 25.63L73.72 25.65L73.63 25.56Q74.64 24.44 74.68 22.88L74.70 22.90L74.63 22.83Q74.75 21.12 74.02 20.51L74.01 20.50L73.98 20.47Q72.35 19.68 71.06 19.75ZM70.79 40.31L70.84 40.36L67.72 40.29L67.71 40.28Q66.31 40.40 64.98 39.53L64.89 39.44L64.80 39.35Q63.55 38.32 63.70 35.47L63.67 35.44L63.70 35.46Q64.09 28.55 67.70 27.56L67.75 27.60L67.78 27.63Q65.46 26.68 64.12 21.31L64.21 21.39L64.07 21.26Q63.84 19.96 63.92 19.16L63.93 19.17L63.88 19.12Q64.07 16.88 67.76 16.84L67.86 16.94L67.86 16.93Q72.08 16.85 73.52 17.04L73.60 17.12L73.43 16.95Q77.41 17.62 77.87 19.64L77.91 19.68L77.88 19.65Q77.95 20.21 77.95 20.59L77.98 20.62L77.99 20.63Q77.93 21.26 77.74 21.86L77.71 21.83L77.76 21.89Q77.12 26.08 74.19 27.61L74.28 27.69L74.18 27.60Q77.71 28.43 78.21 33.72L78.22 33.73L78.28 33.79Q78.17 33.84 78.21 35.13L78.33 35.25L78.31 35.23Q78.28 37.87 76.68 38.93L76.63 38.88L76.63 38.88Q75.37 39.86 70.80 40.32ZM73.15 42.71L73.02 42.58L76.34 42.63L76.46 42.74Q78.07 42.71 79.59 41.99L79.65 42.05L79.71 42.11Q80.73 41.27 80.81 39.40L80.96 39.55L80.87 39.46Q80.97 38.42 80.59 36.48L80.51 36.40L80.55 36.44Q79.56 31.72 77.47 29.86L77.59 29.98L77.42 29.62L77.13 29.25L76.94 28.95L76.92 28.93Q78.72 27.72 79.63 23.57L79.49 23.43L79.58 23.52Q79.53 23.09 79.61 22.25L79.62 22.27L79.54 22.18Q79.79 21.67 79.71 21.06L79.71 21.06L79.53 20.88Q79.49 19.55 78.31 19.05L78.29 19.03L78.36 19.06L78.07 18.85L78.13 18.91Q77.77 18.09 76.59 17.29L76.59 17.29L76.67 17.33L76.67 17.33Q74.75 16.71 70.68 16.52L70.75 16.59L70.71 16.55Q69.19 16.48 67.82 16.60L67.72 16.49L67.77 16.54Q66.98 16.59 65.68 16.74L65.68 16.74L65.59 16.65Q63.74 17.12 63.51 18.75L63.46 18.70L63.45 18.70Q63.52 19.30 63.56 20.10L63.47 20.00L63.54 20.08Q63.53 20.48 64.10 22.84L64.25 22.99L64.16 22.90Q65.05 26.23 66.80 27.57L66.72 27.48L66.69 27.46L66.75 27.51Q63.91 28.75 63.38 33.93L63.52 34.07L63.50 34.05Q63.31 36.26 63.31 37.17L63.31 37.17L63.36 37.22Q63.43 39.00 64.61 39.92L64.62 39.93L64.63 39.94Q64.61 39.88 64.88 40.07L64.95 40.14L64.96 40.15Q65.89 42.34 73.01 42.57ZM72.70 31.52L72.71 31.53L72.81 31.63Q73.55 31.39 74.43 31.85L74.44 31.85L74.50 31.91Q74.82 32.85 74.78 33.38L74.83 33.42L74.82 33.42Q74.88 33.74 74.88 34.04L74.94 34.11L74.88 34.05Q74.82 36.35 72.54 37.18L72.54 37.19L72.58 37.23Q71.74 37.49 70.94 37.37L71.09 37.53L71.00 37.43Q69.81 37.47 68.67 37.01L68.74 37.08L68.71 37.05Q68.52 36.48 68.60 35.49L68.54 35.44L68.65 35.55Q68.83 33.97 70.03 32.75L69.89 32.61L69.87 32.59Q71.13 31.44 72.73 31.55ZM72.85 21.97L72.91 22.03L72.97 22.09Q73.76 21.96 74.30 22.12L74.32 22.14L74.36 22.98L74.22 22.84Q74.37 24.40 73.46 25.41L73.33 25.28L73.37 25.32Q72.47 26.35 71.10 26.15L71.15 26.21L71.15 26.20Q70.06 26.10 69.64 25.87L69.63 25.86L69.76 26.00Q69.63 25.64 69.52 24.95L69.51 24.94L69.62 25.06Q69.24 23.53 70.45 22.69L70.44 22.68L70.51 22.75Q71.62 22.11 73.03 22.14Z"/></svg>