<svg xmlns="http://www.w3.org/2000/svg" width="150" height="50" viewBox="0,0,150,50"><path fill="#222" d="M21.76 29.19L21.67 29.10L21.61 29.04Q19.94 29.09 18.70 30.51L18.60 30.42L18.70 30.51Q17.37 31.85 17.18 33.75L17.17 33.74L17.14 33.71Q16.97 35.82 18.05 36.79L17.98 36.72L17.99 36.73Q19.16 37.78 21.25 37.67L21.30 37.72L21.15 37.57Q23.25 37.42 24.35 36.73L24.47 36.85L24.44 36.82Q25.61 35.75 25.61 34.19L25.66 34.23L25.47 34.05Q25.55 33.75 25.48 33.37L25.58 33.47L25.39 33.28Q25.65 31.79 24.54 30.44L24.43 30.32L24.41 30.30Q23.31 28.95 21.63 29.06ZM21.20 40.16L21.36 40.33L21.30 40.27Q16.93 40.28 15.53 39.52L15.53 39.52L15.50 39.49Q14.36 38.62 14.17 36.90L14.29 37.03L14.35 37.09Q14.27 36.36 14.31 35.64L14.21 35.54L14.31 35.63Q14.44 34.67 14.44 34.21L14.30 34.07L14.46 34.23Q14.87 31.32 15.02 30.64L15.05 30.66L14.91 30.53Q15.45 28.67 16.28 27.26L16.27 27.24L16.25 27.22Q19.01 22.94 24.95 16.58L24.83 16.46L24.89 16.52Q27.51 16.17 29.72 15.37L29.71 15.36L29.80 15.46Q22.90 22.87 19.70 27.09L19.78 27.18L19.78 27.18Q20.68 26.59 21.97 26.59L21.90 26.51L21.92 26.54Q25.37 26.68 26.90 28.62L26.75 28.47L26.87 28.59Q28.18 30.21 28.52 33.75L28.43 33.66L28.56 33.79Q28.57 34.44 28.57 35.05L28.50 34.98L28.49 34.98Q28.57 38.17 26.36 39.24L26.33 39.20L26.37 39.24Q25.11 39.82 21.23 40.20ZM23.59 42.67L23.51 42.59L23.44 42.53Q24.79 42.54 26.77 42.62L26.89 42.73L26.81 42.65Q28.48 42.76 30.04 42.04L30.04 42.04L29.97 41.97Q31.16 41.26 31.16 39.47L31.19 39.50L31.13 39.44Q31.06 38.88 30.89 37.89L31.03 38.03L30.91 37.91Q30.80 36.97 30.80 36.52L30.75 36.47L30.82 36.54Q29.88 31.76 28.28 29.85L28.34 29.91L28.37 29.94Q28.32 29.86 28.17 29.63L27.99 29.45L27.73 29.26L27.63 29.20L27.68 29.25Q27.45 28.87 26.84 27.91L26.75 27.82L26.77 27.84Q25.80 26.84 23.82 26.38L23.83 26.39L23.83 26.39Q25.03 24.77 28.00 21.08L28.07 21.16L32.27 15.83L32.21 15.77Q30.60 16.60 28.20 17.36L28.39 17.55L28.39 17.55Q29.15 16.41 30.94 14.43L31.04 14.53L31.04 14.53Q28.65 15.61 24.77 16.18L24.75 16.16L24.80 16.20Q19.04 22.05 16.07 27.00L16.00 26.94L16.01 26.95Q14.56 29.53 13.99 35.78L14.04 35.82L14.01 35.79Q13.91 36.34 13.99 37.30L14.04 37.35L13.93 37.24Q14.09 39.07 15.19 39.99L15.10 39.89L15.23 40.02Q15.49 40.05 15.45 40.09L15.43 40.07L15.50 40.14Q15.85 41.02 16.65 41.44L16.67 41.46L16.69 41.48Q18.04 42.07 19.98 42.26L19.95 42.23L20.14 42.42Q19.96 42.24 23.46 42.54ZM23.27 31.35L23.31 31.39L23.23 31.31Q23.79 31.19 24.75 31.68L24.82 31.76L24.90 31.84Q25.18 32.73 25.18 33.37L25.13 33.33L25.27 33.46Q25.36 35.23 24.40 36.22L24.40 36.21L24.45 36.26Q23.39 36.99 21.30 37.29L21.27 37.27L21.35 37.35Q19.75 37.19 19.21 36.93L19.19 36.90L19.33 37.04Q19.08 36.53 19.08 36.22L19.08 36.22L19.13 36.27Q18.84 32.94 21.77 31.64L21.80 31.67L21.86 31.73Q22.57 31.34 23.34 31.42Z"/><path fill="#222" d="M126.13 40.89L126.19 40.95L126.17 40.93Q124.94 39.32 123.64 36.23L123.54 36.14L121.51 31.10L121.48 31.07Q119.86 35.04 119.25 36.33L119.20 36.29L119.31 36.39Q117.80 39.26 116.20 41.16L116.31 41.28L116.14 41.10Q115.88 41.23 115.12 41.34L115.11 41.33L115.14 41.36Q115.13 33.93 109.31 27.99L109.17 27.85L109.19 27.87Q107.45 26.06 105.43 24.57L105.58 24.72L105.55 24.69Q107.29 25.13 109.15 25.44L109.24 25.53L109.19 25.48Q115.25 30.43 116.69 36.67L116.64 36.62L116.79 36.77Q117.65 34.88 118.83 31.69L118.81 31.67L118.86 31.72Q120.16 27.92 120.73 26.62L120.67 26.56L122.07 26.56L122.13 26.61Q123.01 28.33 124.19 31.61L124.15 31.56L124.24 31.66Q125.56 35.30 126.21 36.70L126.02 36.51L126.14 36.64Q128.02 30.41 133.50 25.84L133.50 25.84L133.50 25.84Q134.72 25.76 137.46 25.19L137.35 25.08L137.42 25.15Q128.71 31.10 127.53 41.07L127.58 41.12L126.80 40.88L126.93 41.00Q126.54 40.92 126.19 40.96ZM129.24 43.47L131.16 43.52L131.28 43.64Q130.83 41.97 130.83 40.45L130.95 40.58L130.94 40.56Q130.92 37.31 132.33 34.08L132.23 33.97L132.40 34.14Q134.21 29.44 138.32 26.36L138.40 26.44L138.40 26.44Q137.26 26.79 135.40 27.13L135.36 27.09L135.27 27.00Q137.21 25.32 138.50 24.41L138.60 24.51L136.12 24.99L136.02 24.89Q134.82 25.14 133.48 25.29L133.60 25.40L133.47 25.27Q128.34 29.55 126.40 34.57L126.33 34.51L126.51 34.68Q125.83 32.49 124.46 28.22L124.33 28.09L124.45 28.21Q124.06 28.16 123.79 28.16L123.85 28.22L123.37 28.27L123.34 28.24Q123.23 27.95 122.44 26.20L122.44 26.20L120.31 26.13L120.29 26.11Q119.29 28.88 117.20 34.51L117.22 34.53L117.26 34.58Q116.02 30.97 112.94 27.70L112.94 27.70L112.95 27.71Q112.53 27.56 112.23 27.52L112.30 27.60L111.65 27.40L111.71 27.46Q110.85 26.64 109.06 25.04L109.05 25.03L109.11 25.09Q105.98 24.48 104.31 23.98L104.28 23.95L104.22 23.89Q114.90 31.30 114.52 41.61L114.60 41.69L114.63 41.73Q114.78 41.69 115.14 41.65L115.21 41.72L115.26 41.76Q115.57 41.68 115.76 41.68L115.66 41.57L115.82 41.73Q115.81 41.57 116.00 43.67L115.91 43.58L117.85 43.42L117.76 43.33Q120.53 40.70 122.77 34.95L122.66 34.83L122.68 34.86Q124.20 38.73 126.06 41.39L125.96 41.29L126.05 41.38Q126.38 41.37 126.64 41.39L126.54 41.28L126.61 41.35Q126.80 41.30 127.07 41.30L127.16 41.39L129.17 43.40Z"/><path fill="#111" d="M66.32 19.17L66.42 19.27L66.40 19.24Q67.51 23.70 67.66 26.90L67.64 26.88L67.57 26.81Q68.14 26.93 72.52 27.04L72.52 27.04L72.44 26.96Q75.03 27.04 75.42 23.58L75.44 23.60L75.33 23.50Q75.62 21.84 74.70 20.93L74.70 20.92L74.70 20.92Q73.33 19.93 71.35 19.78L71.53 19.96L71.49 19.92Q68.21 19.65 66.35 19.20ZM67.64 28.71L67.73 28.80L67.70 28.77Q67.86 34.76 66.07 40.70L66.22 40.84L66.18 40.80Q64.82 41.01 62.24 42.04L62.32 42.12L62.24 42.04Q65.02 35.50 64.68 28.03L64.78 28.13L64.83 28.18Q64.45 20.76 61.14 14.25L61.05 14.17L61.08 14.19Q66.00 17.05 72.96 17.05L72.98 17.07L72.98 17.07Q78.61 17.07 78.88 20.61L78.93 20.66L78.90 20.63Q78.92 21.18 78.84 21.79L78.91 21.86L78.79 22.95L78.78 22.95Q78.07 27.00 75.94 28.71L75.89 28.66L75.75 28.52Q74.97 29.22 73.94 29.22L73.95 29.23L71.38 29.25L71.47 29.35Q77.06 36.57 81.59 41.14L81.56 41.11L81.66 41.20Q79.33 40.33 76.40 39.98L76.46 40.04L76.52 40.10Q72.55 35.94 67.64 28.71ZM76.33 40.40L76.36 40.44L76.66 40.43L77.79 41.57L77.77 41.55Q78.42 42.16 79.07 42.76L79.11 42.81L79.01 42.71Q82.69 43.45 86.26 45.32L86.17 45.22L86.12 45.17Q79.22 38.46 73.82 31.54L73.88 31.60L75.65 31.61L75.69 31.66Q78.73 31.61 80.06 27.08L80.06 27.08L79.99 27.01Q80.69 24.82 80.69 22.12L80.67 22.09L80.74 22.17Q80.81 19.95 79.09 19.30L79.01 19.22L78.98 19.19Q78.90 18.84 78.32 18.15L78.41 18.24L78.24 18.06Q76.72 16.77 73.06 16.70L73.05 16.68L72.94 16.58Q65.15 16.51 60.47 13.50L60.52 13.56L60.37 13.40Q64.10 20.22 64.44 27.91L64.57 28.04L64.52 27.99Q64.90 35.98 61.78 42.84L61.67 42.73L61.75 42.80Q62.96 42.19 63.76 41.88L63.87 42.00L62.79 44.19L62.75 44.15Q65.58 43.21 68.24 42.71L68.21 42.68L68.19 42.66Q69.40 37.47 69.59 32.26L69.74 32.41L69.58 32.25Q73.15 37.27 76.31 40.39ZM75.11 22.52L75.05 22.45L75.03 22.43Q74.99 22.62 74.99 22.96L75.14 23.12L75.14 23.68L75.06 23.61Q75.04 24.69 74.36 25.64L74.34 25.63L74.36 25.65Q73.80 26.45 72.89 26.65L72.80 26.56L72.84 26.60Q72.66 26.69 71.06 26.72L70.96 26.62L71.07 26.74Q70.47 26.74 69.63 26.62L69.62 26.61L69.67 26.67Q69.57 25.16 69.23 22.12L69.22 22.11L69.27 22.16Q70.64 22.30 71.32 22.30L71.28 22.26L71.22 22.21Q73.11 22.27 75.05 22.46Z"/><path fill="#111" d="M96.03 19.73L96.03 19.74L96.02 19.73Q94.08 19.88 93.13 20.04L93.13 20.03L92.94 19.84Q91.37 20.14 90.15 20.67L90.27 20.79L90.24 20.76Q86.68 22.15 86.56 26.83L86.51 26.78L86.48 26.74Q86.45 29.46 87.10 32.39L87.15 32.44L87.11 32.40Q88.07 36.52 91.69 37.70L91.72 37.73L91.61 37.62Q93.52 38.20 94.97 38.05L95.00 38.08L95.49 38.11L95.45 38.08Q95.53 37.97 95.72 38.01L95.70 37.99L95.83 38.12Q95.92 38.06 96.08 38.02L96.13 38.07L96.10 38.04Q98.79 37.84 100.16 37.27L100.02 37.12L96.54 33.68L96.59 33.74Q96.90 33.40 97.51 32.79L97.38 32.66L98.31 31.76L98.31 31.76Q100.10 33.78 102.08 35.84L102.22 35.97L102.17 35.93Q104.50 34.11 104.77 28.74L104.76 28.74L104.77 28.75Q104.82 27.80 104.82 26.89L104.89 26.96L104.92 26.99Q104.76 21.15 99.69 20.05L99.80 20.15L99.81 20.16Q98.42 19.77 95.91 19.61ZM108.72 41.72L108.73 41.72L108.74 41.74Q108.10 42.13 106.92 43.00L107.02 43.10L102.54 39.34L102.56 39.36Q100.17 40.67 95.91 40.70L95.90 40.70L95.88 40.67Q89.24 40.70 86.42 38.45L86.40 38.43L86.42 38.45Q84.63 36.66 84.17 33.69L84.26 33.78L84.12 33.64Q83.92 31.84 83.54 28.26L83.66 28.38L83.61 28.33Q83.65 27.64 83.53 25.89L83.50 25.86L83.60 25.96Q83.27 24.22 83.31 23.35L83.34 23.37L83.31 23.35Q83.46 20.33 85.21 18.77L85.26 18.83L85.21 18.77Q86.75 17.46 89.95 16.97L89.92 16.94L90.08 17.10Q92.50 16.66 95.39 16.74L95.36 16.70L95.34 16.69Q102.92 16.88 106.04 19.24L106.04 19.24L106.04 19.24Q108.12 21.29 107.86 26.20L107.92 26.26L107.97 26.31Q107.63 29.81 107.44 31.15L107.54 31.25L107.60 31.30Q106.88 35.73 104.56 38.05L104.59 38.08L104.52 38.01Q105.94 39.20 108.68 41.68ZM103.80 17.38L103.91 17.49L103.93 17.51Q101.78 16.66 95.27 16.16L95.41 16.30L95.34 16.22Q94.08 16.38 91.30 16.49L91.26 16.45L91.11 16.30Q86.93 16.57 84.68 18.55L84.63 18.51L84.80 18.67Q83.10 20.09 83.10 23.25L83.16 23.31L83.14 23.29Q83.03 24.02 83.18 25.73L83.31 25.86L83.26 25.81Q83.35 27.46 83.35 28.33L83.36 28.35L83.33 28.32Q83.57 30.16 83.95 33.74L83.83 33.61L83.99 33.77Q84.32 36.62 85.92 38.68L85.81 38.57L85.78 38.53Q86.17 39.41 87.38 40.56L87.32 40.49L87.46 40.64Q90.20 42.65 95.38 42.91L95.41 42.95L95.22 42.76Q95.71 42.91 98.11 43.02L98.07 42.98L98.03 42.94Q102.77 43.03 105.05 41.97L105.18 42.10L105.07 41.98Q106.06 42.79 110.78 46.37L110.83 46.42L110.75 46.34Q111.41 45.86 112.71 44.87L112.73 44.89L112.69 44.84Q111.80 44.15 111.00 43.47L110.89 43.35L109.27 41.93L109.47 41.97L109.45 41.96Q108.93 41.54 107.71 40.51L107.52 40.33L107.67 40.48Q109.55 37.94 109.55 33.41L109.61 33.47L109.43 33.29Q109.46 32.90 109.50 32.06L109.58 32.15L109.62 32.18Q109.66 31.34 109.66 30.93L109.54 30.81L109.65 30.92Q109.54 25.30 108.82 22.93L108.78 22.90L108.96 23.07Q108.39 21.59 107.52 20.53L107.64 20.65L107.66 20.67Q106.76 18.43 103.83 17.41ZM97.81 21.97L97.81 21.98L97.82 21.98Q101.95 21.96 103.78 23.56L103.67 23.46L103.84 23.62Q104.43 24.86 104.54 26.19L104.49 26.14L104.45 26.10Q104.53 27.37 104.46 28.74L104.50 28.78L104.44 28.72Q104.14 33.71 102.20 35.42L102.16 35.39L102.14 35.37Q100.87 34.10 98.36 31.36L98.32 31.31L98.30 31.30Q97.64 32.16 96.08 33.72L96.00 33.64L95.91 33.55Q96.59 34.27 97.73 35.45L97.75 35.46L97.54 35.37L97.66 35.49Q98.14 35.93 99.16 36.99L99.16 36.99L99.30 37.13Q98.15 37.24 95.83 37.54L95.87 37.59L95.37 37.62L95.08 37.75L95.04 37.74L95.00 37.70Q91.45 37.62 89.47 35.98L89.57 36.08L89.54 36.05Q88.49 33.93 88.52 30.81L88.49 30.77L88.63 30.91Q88.66 22.07 97.83 21.99Z"/><path fill="#222" d="M48.29 29.82L48.42 29.95L48.34 29.87Q45.75 29.68 44.42 30.90L44.60 31.08L44.58 31.06Q43.13 32.16 43.43 34.67L43.50 34.74L43.53 34.77Q43.84 37.28 45.06 38.54L45.04 38.52L44.97 38.46Q46.14 39.89 48.27 39.81L48.24 39.78L48.27 39.82Q48.69 39.66 48.88 39.66L48.88 39.66L49.02 39.80Q52.54 39.17 52.65 34.56L52.52 34.43L52.55 34.46Q52.69 32.16 52.00 31.36L51.92 31.28L52.02 31.38Q50.92 30.05 48.37 29.90ZM51.68 41.63L51.60 41.54L51.61 41.55Q50.42 42.27 48.86 42.19L48.86 42.19L48.75 42.08Q44.93 42.29 43.63 39.71L43.68 39.76L43.78 39.85Q43.56 45.15 42.23 49.42L42.22 49.41L42.22 49.41Q40.46 49.93 38.82 50.65L38.84 50.67L38.70 50.53Q41.36 44.66 41.09 37.69L41.09 37.69L40.99 37.59Q40.87 30.89 37.98 24.84L37.93 24.79L37.97 24.83Q39.82 25.91 41.53 26.37L41.57 26.41L42.03 27.82L41.99 27.78Q42.11 28.13 42.37 29.23L42.47 29.33L42.50 29.35Q43.43 27.21 47.01 27.02L46.97 26.98L47.03 27.04Q47.96 27.05 48.83 27.05L48.86 27.08L49.38 27.10L49.23 26.95Q49.38 26.99 49.57 27.02L49.52 26.97L49.95 27.10L49.94 27.09Q51.90 27.26 52.62 27.49L52.72 27.59L52.66 27.53Q54.25 28.09 55.13 29.04L55.01 28.92L55.05 28.96Q55.95 30.21 55.92 31.62L55.87 31.57L55.87 31.58Q55.91 34.47 55.11 37.14L55.14 37.16L55.03 37.05Q54.03 40.59 51.67 41.62ZM55.91 42.20L55.93 42.18L56.04 42.29Q57.15 40.32 57.46 36.21L57.33 36.08L57.29 36.04Q57.42 34.27 57.42 33.01L57.53 33.12L57.51 33.10Q57.59 31.66 56.83 30.25L56.78 30.20L56.80 30.22Q56.38 29.77 55.89 29.38L55.93 29.42L55.68 29.06L55.58 28.85L55.53 28.68L55.48 28.64Q53.69 26.54 49.35 26.54L49.50 26.69L48.81 26.61L48.73 26.53Q44.14 26.58 42.50 28.18L42.48 28.16L42.57 28.25Q42.30 27.63 42.15 27.14L42.18 27.17L41.81 26.01L41.97 26.16Q39.45 25.51 37.24 24.02L37.18 23.96L37.21 24.00Q40.43 30.26 40.73 37.49L40.86 37.61L40.73 37.48Q41.11 44.83 38.25 51.30L38.20 51.25L40.13 50.33L40.20 50.40Q39.85 51.04 39.17 52.60L39.27 52.70L39.30 52.73Q41.95 51.61 44.27 51.27L44.37 51.36L44.35 51.35Q45.33 46.39 45.48 42.66L45.54 42.72L45.44 42.62Q46.92 44.17 50.54 44.40L50.47 44.33L50.45 44.32Q54.42 44.59 55.87 42.16L56.00 42.29ZM50.32 32.19L50.26 32.13L50.33 32.20Q50.91 32.06 52.01 32.40L52.09 32.48L52.13 32.52Q52.33 33.44 52.29 34.62L52.24 34.57L52.28 34.61Q52.30 35.54 52.11 36.19L52.12 36.20L52.13 36.21Q51.26 38.96 48.75 39.26L48.80 39.32L48.89 39.29L49.00 39.40Q48.95 39.42 48.83 39.46L48.82 39.45L48.29 39.45L48.17 39.33Q47.10 39.44 46.11 38.95L46.04 38.88L45.76 36.88L45.59 36.71Q45.62 34.58 46.92 33.55L46.91 33.54L46.93 33.56Q47.93 32.47 50.33 32.20Z"/></svg>