<svg xmlns="http://www.w3.org/2000/svg" width="150" height="50" viewBox="0,0,150,50"><path fill="#111" d="M24.78 39.95L24.76 39.92L24.72 39.88Q22.64 39.71 20.63 39.90L20.73 40.00L20.68 39.95Q21.28 34.65 21.28 29.82L21.36 29.90L21.44 29.97Q21.35 24.97 20.70 19.76L20.81 19.87L20.81 19.87Q16.07 19.32 12.87 17.64L13.02 17.79L12.27 16.02L12.28 16.02Q12.11 15.55 11.50 14.33L11.47 14.30L11.54 14.36Q16.49 16.92 22.51 17.11L22.52 17.12L22.57 17.17Q28.33 17.23 33.78 15.17L33.86 15.25L33.92 15.31Q33.05 16.58 32.41 18.41L32.47 18.47L32.43 18.43Q28.88 19.79 24.61 19.98L24.57 19.94L24.53 19.90Q24.38 24.96 24.38 29.91L24.37 29.90L24.30 29.82Q24.35 34.83 24.65 39.82ZM34.50 14.53L34.43 14.45L34.43 14.45Q28.73 16.86 22.53 16.67L22.41 16.55L22.52 16.66Q15.87 16.49 10.77 13.52L10.81 13.56L10.66 13.41Q11.52 14.80 12.82 18.08L12.83 18.09L12.73 17.99Q13.49 18.41 14.75 18.98L14.60 18.83L14.72 18.96Q14.86 19.55 15.20 21.08L15.19 21.06L15.29 21.17Q17.49 21.91 20.53 22.14L20.55 22.16L20.62 22.23Q21.00 25.92 21.00 29.69L20.94 29.63L21.04 29.73Q20.91 34.97 20.11 40.33L20.21 40.43L20.11 40.34Q21.96 40.40 22.49 40.40L22.41 40.31L22.33 40.23Q22.34 40.54 22.28 41.21L22.29 41.22L22.28 41.21Q22.33 41.98 22.33 42.33L22.20 42.19L22.37 42.37Q23.47 42.21 24.99 42.29L24.94 42.23L24.90 42.20Q25.88 42.30 27.71 42.45L27.68 42.42L27.64 42.39Q26.49 37.54 26.38 32.37L26.35 32.33L26.47 32.45Q26.32 27.13 26.85 22.22L26.80 22.17L26.86 22.23Q30.79 21.67 33.95 20.45L33.87 20.36L33.97 20.47Q34.67 18.08 35.70 16.03L35.65 15.98L35.67 16.00Q34.31 16.66 33.51 16.96L33.43 16.88L33.41 16.86Q33.97 15.70 34.54 14.56Z"/><path fill="#111" d="M120.41 29.17L120.27 29.03L120.41 29.18Q118.45 28.93 117.22 30.36L117.34 30.48L117.36 30.51Q116.09 31.90 115.90 33.81L115.94 33.84L115.76 33.67Q115.56 35.74 116.64 36.71L116.65 36.73L116.78 36.85Q117.75 37.70 119.84 37.59L119.84 37.59L119.83 37.58Q122.01 37.52 123.12 36.83L123.03 36.75L123.03 36.74Q124.22 35.69 124.22 34.13L124.27 34.18L124.25 34.16Q124.19 33.72 124.12 33.34L124.12 33.34L124.06 33.28Q124.18 31.65 123.08 30.30L123.05 30.27L123.11 30.34Q121.95 28.92 120.27 29.04ZM120.01 40.31L119.96 40.26L119.99 40.29Q115.47 40.15 114.06 39.39L114.10 39.43L114.16 39.49Q113.08 38.68 112.89 36.96L112.83 36.90L112.98 37.05Q112.89 36.31 112.93 35.59L112.89 35.55L112.98 35.64Q112.98 34.54 112.98 34.08L113.09 34.19L112.98 34.08Q113.44 31.23 113.59 30.55L113.66 30.61L113.65 30.60Q114.04 28.59 114.88 27.18L114.93 27.24L114.99 27.30Q117.61 22.87 123.55 16.52L123.58 16.54L123.52 16.49Q126.23 16.23 128.44 15.43L128.51 15.50L128.41 15.41Q121.60 22.90 118.40 27.13L118.44 27.17L118.28 27.01Q119.31 26.55 120.60 26.55L120.56 26.51L120.57 26.52Q123.96 26.60 125.48 28.54L125.56 28.61L125.53 28.59Q126.87 30.24 127.22 33.78L127.08 33.63L127.12 33.68Q127.26 34.46 127.26 35.07L127.23 35.04L127.14 34.95Q127.16 38.10 124.95 39.16L125.00 39.21L125.08 39.29Q123.72 39.75 119.83 40.13ZM122.18 42.60L122.26 42.68L122.31 42.72Q123.59 42.68 125.57 42.75L125.43 42.61L125.46 42.64Q127.13 42.75 128.69 42.03L128.75 42.08L128.60 41.94Q129.75 41.19 129.75 39.40L129.84 39.48L129.89 39.53Q129.78 38.92 129.60 37.93L129.63 37.96L129.66 37.98Q129.53 37.04 129.53 36.58L129.48 36.53L129.42 36.47Q128.62 31.82 127.02 29.92L126.94 29.84L126.97 29.88Q126.87 29.74 126.72 29.51L126.73 29.52L126.52 29.39L126.41 29.31L126.40 29.30Q126.10 28.85 125.49 27.89L125.43 27.84L125.48 27.89Q124.56 26.93 122.58 26.48L122.51 26.40L122.60 26.50Q123.67 24.75 126.64 21.05L126.72 21.13L130.97 15.87L130.92 15.82Q129.41 16.74 127.01 17.50L126.95 17.44L127.02 17.51Q127.96 16.55 129.75 14.57L129.74 14.56L129.73 14.56Q127.21 15.49 123.32 16.06L123.31 16.05L123.29 16.03Q117.76 22.11 114.79 27.06L114.76 27.03L114.74 27.01Q113.21 29.52 112.64 35.76L112.69 35.81L112.58 35.69Q112.44 36.21 112.52 37.16L112.65 37.29L112.67 37.31Q112.72 39.04 113.82 39.95L113.79 39.92L113.83 39.96Q114.27 40.17 114.23 40.20L114.23 40.21L114.07 40.04Q114.46 40.97 115.26 41.39L115.38 41.51L115.33 41.46Q116.87 42.23 118.81 42.42L118.63 42.24L118.73 42.35Q118.77 42.38 122.27 42.69ZM121.94 31.35L121.92 31.33L121.96 31.38Q122.54 31.27 123.49 31.76L123.49 31.76L123.48 31.75Q123.79 32.67 123.79 33.31L123.86 33.39L123.82 33.35Q123.98 35.18 123.03 36.17L123.06 36.20L123.14 36.28Q121.94 36.87 119.84 37.18L120.01 37.35L119.96 37.29Q118.53 37.31 117.99 37.04L117.98 37.03L117.97 37.01Q117.71 36.49 117.71 36.18L117.81 36.28L117.70 36.17Q117.48 32.91 120.42 31.62L120.42 31.62L120.47 31.68Q121.32 31.42 122.08 31.49Z"/><path fill="#333" d="M79.71 30.26L79.71 30.25L79.79 30.33Q80.00 30.05 79.96 29.63L79.87 29.54L79.88 29.55Q79.76 29.12 79.45 28.93L79.53 29.01L79.52 29.00Q78.73 28.35 77.85 28.51L77.93 28.58L77.89 28.55Q76.86 28.59 75.23 29.69L75.11 29.58L75.11 29.58Q73.73 30.52 73.73 31.70L73.85 31.81L73.69 31.66Q73.83 33.05 73.83 36.36L73.78 36.31L73.78 36.31Q73.82 38.94 73.97 40.96L73.96 40.95L73.92 40.91Q72.22 40.92 72.22 40.92L72.11 40.81L72.25 40.95Q71.27 40.92 70.54 41.00L70.38 40.83L70.46 40.92Q70.92 38.44 70.99 36.19L70.86 36.06L71.04 36.23Q71.18 31.58 70.53 30.29L70.54 30.30L70.42 30.18Q70.12 29.57 69.55 29.26L69.65 29.36L69.62 29.34Q68.81 28.64 67.25 28.52L67.18 28.46L67.22 28.50Q65.22 28.29 64.69 29.89L64.76 29.96L64.66 29.86Q64.46 30.31 64.57 30.80L64.70 30.93L64.64 30.87Q65.28 33.60 64.94 36.38L64.90 36.34L64.97 36.41Q64.56 39.13 63.15 41.56L63.29 41.70L63.29 41.70Q62.27 41.86 60.17 42.28L60.21 42.32L60.16 42.26Q62.58 38.93 62.58 34.63L62.66 34.71L62.63 34.68Q62.57 28.76 58.54 24.53L58.67 24.67L58.63 24.63Q59.44 24.98 60.39 25.21L60.39 25.21L62.10 25.59L62.09 25.58Q62.46 26.10 63.33 27.77L63.43 27.87L63.32 27.76Q63.63 26.01 66.07 25.97L65.98 25.89L65.97 25.87Q66.19 25.90 67.18 25.98L67.16 25.97L67.06 25.86Q72.05 26.17 73.19 28.99L73.24 29.04L73.33 29.13Q74.88 26.30 79.91 25.77L80.01 25.87L79.98 25.84Q80.65 25.64 81.53 25.75L81.53 25.76L81.64 25.86Q83.82 26.02 83.66 27.58L83.69 27.61L83.62 27.54Q83.63 28.27 83.36 29.03L83.24 28.91L83.30 28.97Q81.85 31.93 82.08 35.47L82.06 35.46L82.09 35.49Q82.25 38.92 84.15 41.74L84.17 41.76L84.27 41.85Q82.48 41.40 80.65 41.17L80.82 41.33L80.77 41.29Q79.44 38.63 79.25 35.85L79.41 36.01L79.35 35.94Q79.06 32.99 79.70 30.25ZM80.42 41.55L80.51 41.64L80.42 41.55Q81.21 41.69 82.54 41.88L82.65 41.99L82.56 41.89Q83.13 42.65 84.27 44.06L84.16 43.96L84.33 44.12Q87.14 44.57 89.23 45.22L89.22 45.21L89.28 45.27Q84.27 41.36 84.00 34.85L84.00 34.85L83.95 34.80Q83.81 32.64 84.42 30.74L84.47 30.79L84.41 30.73Q84.69 29.90 84.69 29.18L84.75 29.24L84.79 29.28Q84.78 28.36 84.17 27.79L84.16 27.77L84.15 27.73L84.05 27.62Q84.23 27.23 84.15 26.74L84.14 26.73L84.18 26.76Q83.94 26.11 83.48 25.84L83.47 25.83L83.56 25.91Q82.82 25.36 81.94 25.33L81.92 25.31L81.91 25.30Q79.21 25.33 76.54 26.29L76.40 26.15L76.44 26.18Q74.54 26.95 73.36 28.36L73.27 28.26L73.39 28.39Q71.69 25.77 66.85 25.43L66.96 25.54L66.92 25.49Q66.26 25.48 65.84 25.48L65.87 25.51L65.75 25.40Q63.70 25.39 63.09 26.65L63.06 26.63L63.16 26.72Q62.86 26.23 62.18 25.17L62.19 25.19L62.09 25.08Q59.72 24.65 57.74 24.01L57.79 24.06L57.68 23.95Q62.37 28.37 62.37 34.65L62.34 34.62L62.34 34.62Q62.35 39.35 59.49 42.81L59.52 42.84L59.57 42.89Q59.99 42.70 60.48 42.62L60.36 42.50L61.48 42.48L61.40 42.40Q60.69 43.44 59.59 44.66L59.60 44.67L59.67 44.75Q61.17 44.30 64.29 43.69L64.35 43.75L64.27 43.67Q66.97 39.59 66.97 34.68L66.96 34.67L67.10 34.81Q67.10 34.01 67.02 33.18L67.01 33.16L66.91 33.06Q66.93 32.39 67.92 31.59L67.96 31.64L67.89 31.60L67.93 31.65Q68.45 31.09 69.63 30.98L69.67 31.03L69.64 30.99Q70.13 31.06 70.43 31.06L70.34 30.97L70.42 31.24L70.51 31.34Q70.74 34.00 70.63 36.36L70.62 36.36L70.61 36.34Q70.47 38.60 69.97 41.26L70.07 41.37L69.99 41.28Q71.03 41.29 71.03 41.29L71.08 41.35L71.07 41.34Q72.40 41.22 72.06 41.22L72.15 41.31L72.00 41.16Q72.21 41.87 72.17 42.32L72.19 42.34L72.16 42.31Q72.06 42.70 72.06 43.20L71.98 43.12L74.44 43.10L74.62 43.28Q75.86 43.27 77.12 43.35L77.14 43.37L77.05 43.28Q75.53 39.59 75.72 33.65L75.75 33.68L75.66 33.59Q75.78 32.57 76.96 31.81L76.86 31.70L76.91 31.75Q77.92 31.05 79.18 30.86L79.06 30.75L79.45 30.83L79.35 30.73Q78.94 32.68 78.94 34.66L78.89 34.61L79.04 34.76Q79.04 38.53 80.56 41.69ZM75.01 30.13L75.15 30.03L75.07 30.30L75.12 30.23Z"/><path fill="#111" d="M99.93 29.42L100.07 29.56L100.09 29.58Q98.72 28.63 98.08 28.67L98.08 28.68L98.09 28.68Q96.88 28.93 95.84 29.93L95.84 29.94L95.71 29.81Q94.78 30.93 94.89 32.31L94.86 32.27L94.78 32.19Q95.14 36.59 94.27 41.12L94.24 41.09L94.26 41.12Q92.11 41.63 91.00 42.16L90.91 42.07L90.93 42.09Q92.51 37.99 92.28 33.54L92.28 33.54L92.22 33.48Q92.06 29.05 90.35 24.98L90.34 24.97L90.32 24.96Q91.37 25.55 93.66 26.19L93.60 26.14L94.34 29.01L94.17 28.84Q94.96 26.05 99.22 26.05L99.21 26.04L99.27 26.09Q99.66 26.03 99.96 26.03L99.87 25.94L99.92 25.99Q101.22 26.00 102.48 26.68L102.51 26.71L102.43 26.63Q101.15 28.02 100.01 29.50ZM101.54 31.41L101.66 31.38L101.69 31.41Q102.55 30.21 104.22 27.77L104.31 27.86L104.32 27.87Q103.88 27.54 102.35 27.28L102.30 27.22L102.36 27.28Q102.57 26.85 103.03 26.24L103.13 26.34L103.08 26.29Q101.14 25.34 99.20 25.53L99.26 25.59L99.24 25.57Q97.30 25.77 96.58 26.04L96.49 25.94L96.55 26.00Q95.11 26.39 94.31 27.50L94.43 27.62L94.26 26.80L93.98 25.88L93.97 25.86Q91.60 25.47 89.62 24.13L89.59 24.11L89.65 24.17Q91.67 28.44 91.90 33.31L91.89 33.30L91.92 33.33Q92.23 38.32 90.48 42.85L90.36 42.74L90.51 42.88Q91.51 42.32 92.38 42.02L92.39 42.02L92.31 41.94Q92.02 43.03 91.53 44.09L91.66 44.23L91.63 44.19Q94.40 43.27 96.53 43.15L96.67 43.29L96.79 38.69L96.71 38.62Q96.90 36.44 96.90 34.20L96.92 34.21L96.86 34.16Q96.99 33.11 97.90 32.14L97.76 31.99L97.90 32.14Q98.75 31.09 99.89 31.02L99.87 31.00L99.82 30.95Q100.48 30.85 101.21 31.54L101.27 31.60L101.50 31.38ZM96.60 29.67L96.66 29.66L96.55 29.66L96.62 29.69Z"/><path fill="#111" d="M47.28 30.37L47.42 30.51L47.27 30.36Q43.82 36.73 40.39 40.69L40.48 40.78L40.50 40.80Q38.60 41.18 36.16 42.06L36.10 41.99L36.12 42.02Q41.13 36.52 45.89 28.10L45.85 28.07L45.76 27.98Q41.13 20.98 35.15 14.58L35.22 14.65L35.24 14.67Q38.20 15.92 40.48 16.42L40.48 16.41L40.49 16.42Q45.03 21.53 47.46 25.49L47.49 25.52L47.59 25.62Q50.06 21.16 53.98 16.75L53.93 16.69L53.98 16.74Q55.48 16.34 58.68 15.58L58.72 15.62L58.72 15.62Q52.62 22.04 49.16 27.98L49.15 27.98L49.12 27.94Q54.32 36.65 58.70 41.22L58.70 41.22L58.69 41.20Q56.21 40.52 54.12 40.29L54.10 40.27L54.04 40.21Q51.24 37.22 47.32 30.41ZM53.98 40.57L53.95 40.54L54.05 40.64Q54.24 40.57 54.70 40.68L54.82 40.80L54.78 40.77Q55.44 41.39 56.96 42.99L57.15 43.17L57.11 43.14Q60.33 43.80 63.38 45.17L63.46 45.25L63.55 45.35Q56.39 38.71 51.28 29.96L51.21 29.88L51.12 29.79Q54.99 23.27 60.89 16.42L60.97 16.49L60.80 16.33Q59.33 16.95 57.16 17.48L57.34 17.66L57.34 17.67Q58.20 16.74 59.95 14.95L59.90 14.89L59.94 14.94Q57.46 15.73 53.76 16.30L53.69 16.22L53.79 16.33Q50.32 20.08 47.73 24.39L47.79 24.44L47.78 24.44Q46.83 22.80 45.65 21.32L45.68 21.34L43.42 18.44L42.93 18.33L43.01 18.41Q42.88 18.43 42.65 18.36L42.69 18.40L42.65 18.35Q41.94 17.49 40.45 15.93L40.40 15.88L40.54 16.02Q36.75 15.16 34.16 13.79L34.11 13.74L34.06 13.68Q40.74 20.90 45.31 27.94L45.34 27.97L45.47 28.11Q40.91 36.22 35.16 42.81L35.06 42.71L35.14 42.78Q36.55 42.22 38.69 41.65L38.60 41.56L37.27 42.97L37.28 42.99Q37.23 42.93 35.89 44.26L35.88 44.25L36.06 44.43Q38.90 43.19 42.06 42.70L42.04 42.68L42.19 42.84Q46.21 38.32 48.80 33.56L48.70 33.47L48.82 33.58Q51.32 37.76 54.02 40.61Z"/></svg>