<svg xmlns="http://www.w3.org/2000/svg" width="150" height="50" viewBox="0,0,150,50"><path fill="#333" d="M119.61 27.54L119.69 27.62L119.79 27.72Q117.44 27.61 116.16 29.11L116.20 29.16L116.25 29.20Q115.03 30.76 114.91 33.05L114.89 33.02L114.80 32.93Q114.70 35.61 115.53 36.56L115.56 36.58L115.56 36.59Q116.63 37.81 118.96 37.66L118.91 37.61L119.00 37.70Q123.48 37.24 123.86 34.23L124.04 34.41L124.01 34.37Q124.04 33.49 124.04 32.69L124.01 32.66L124.12 32.77Q124.13 30.81 122.99 29.28L122.80 29.09L122.99 29.28Q121.66 27.61 119.72 27.65ZM124.56 37.74L124.49 37.68L124.44 37.62Q123.14 39.94 118.76 40.17L118.71 40.12L118.64 40.05Q114.53 40.28 112.90 39.18L112.82 39.10L112.97 39.25Q111.95 38.26 111.79 36.55L111.88 36.63L111.84 36.60Q111.71 35.39 111.90 33.53L111.93 33.56L111.93 33.56Q112.51 29.35 113.73 27.52L113.72 27.51L113.69 27.48Q115.27 24.95 119.12 24.99L119.05 24.92L119.08 24.95Q121.64 25.04 123.92 27.36L124.00 27.44L124.01 27.45Q123.95 21.45 125.55 14.94L125.69 15.08L125.64 15.03Q127.48 14.55 129.35 13.71L129.50 13.86L129.48 13.85Q126.79 20.37 126.52 27.37L126.56 27.41L126.44 27.29Q126.28 34.59 128.42 41.18L128.43 41.19L128.41 41.17Q126.75 40.54 125.04 40.16L125.12 40.24L125.00 40.12Q124.63 38.76 124.48 37.66ZM127.58 43.20L127.58 43.20L127.58 43.20Q129.60 43.69 132.15 45.22L132.12 45.19L132.25 45.32Q128.57 38.29 128.42 29.99L128.36 29.93L128.37 29.94Q128.20 21.70 131.29 14.32L131.39 14.42L131.32 14.35Q130.63 14.81 129.19 15.45L129.15 15.42L129.26 15.53Q129.44 14.23 130.05 13.01L130.05 13.01L130.16 13.12Q127.63 14.05 125.19 14.62L125.29 14.72L125.29 14.71Q123.86 20.52 123.60 26.62L123.52 26.54L123.66 26.68Q121.56 24.66 119.05 24.54L119.13 24.63L119.09 24.59Q115.67 24.48 113.77 26.57L113.70 26.50L113.79 26.59Q112.18 29.05 111.76 33.74L111.73 33.71L111.59 33.57Q111.35 36.33 111.35 36.75L111.38 36.79L111.50 36.90Q111.55 38.63 112.70 39.70L112.66 39.66L112.58 39.58Q112.78 39.78 112.97 39.86L112.97 39.86L113.55 40.62L113.52 40.60Q114.47 41.93 117.44 42.19L117.41 42.17L117.51 42.27Q119.74 42.44 121.11 42.52L121.00 42.41L121.00 42.40Q125.30 42.71 127.02 41.38L126.85 41.21L126.95 41.31Q127.06 41.99 127.52 43.13ZM121.36 29.97L121.26 29.87L121.25 29.87Q122.35 29.94 123.19 30.43L123.20 30.44L123.23 30.47Q123.57 31.62 123.65 32.64L123.63 32.63L123.71 32.70Q124.06 36.97 119.03 37.32L118.96 37.24L119.10 37.38Q118.05 37.25 116.95 36.98L117.05 37.08L116.96 37.00Q116.81 36.46 116.73 35.93L116.75 35.95L116.70 35.90Q116.69 35.28 116.73 34.67L116.81 34.75L116.67 34.61Q117.04 31.25 119.67 30.26L119.67 30.27L119.74 30.34Q120.70 29.96 121.38 30.00Z"/><path fill="#222" d="M81.81 23.14L81.72 23.05L81.64 22.97Q79.95 25.81 77.28 31.44L77.18 31.34L75.22 35.63L75.30 35.71Q74.29 37.48 72.96 39.72L73.09 39.85L73.09 39.85Q73.50 39.81 71.83 39.85L71.92 39.94L71.82 39.84Q71.79 39.81 70.53 39.81L70.62 39.90L70.55 39.82Q69.85 38.36 66.92 31.20L66.87 31.15L66.87 31.15Q64.84 25.93 62.75 22.92L62.73 22.91L62.75 22.92Q63.48 25.98 63.48 29.14L63.40 29.06L63.48 29.13Q63.41 35.58 60.44 41.14L60.42 41.11L60.54 41.23Q59.21 41.58 56.85 42.30L56.66 42.11L56.82 42.27Q60.35 36.44 60.35 29.21L60.50 29.35L60.41 29.27Q60.47 20.38 55.07 13.41L55.03 13.37L54.98 13.33Q56.61 14.04 58.97 14.73L59.05 14.80L58.98 14.74Q66.01 21.46 72.10 34.79L72.17 34.86L72.23 34.91Q75.69 27.87 77.89 24.36L77.87 24.34L77.89 24.36Q81.51 18.61 85.47 15.15L85.39 15.07L85.52 15.20Q86.73 14.92 89.09 14.16L89.12 14.19L88.99 14.06Q84.06 20.75 84.06 29.35L84.11 29.40L84.00 29.29Q84.07 36.02 87.49 41.54L87.49 41.53L87.44 41.48Q86.23 41.31 83.49 40.70L83.36 40.57L83.46 40.67Q80.96 35.73 80.96 29.75L81.00 29.79L81.13 29.92Q81.04 26.40 81.72 23.05ZM83.17 40.95L83.18 40.96L83.24 41.01Q83.84 41.05 85.29 41.31L85.27 41.30L85.43 41.46Q85.76 42.09 86.71 43.57L86.84 43.70L86.74 43.60Q88.98 44.13 92.44 45.35L92.43 45.33L92.28 45.18Q86.01 38.84 86.01 29.01L85.99 29.00L86.14 29.15Q86.06 21.34 90.44 15.21L90.52 15.29L88.35 16.01L88.25 15.91Q89.28 14.40 89.93 13.52L89.82 13.41L89.85 13.44Q88.09 14.19 85.46 14.73L85.39 14.65L85.44 14.70Q78.59 20.72 72.53 33.32L72.58 33.36L72.61 33.39Q67.32 22.31 62.37 17.06L62.55 17.25L62.50 17.19Q62.00 17.00 61.43 16.88L61.59 17.04L60.36 15.74L60.27 15.65Q59.64 14.94 58.95 14.33L59.11 14.49L59.08 14.46Q55.99 13.43 54.21 12.70L54.23 12.73L54.19 12.69Q60.10 19.82 60.10 29.22L60.16 29.28L60.12 29.24Q60.13 36.87 55.98 42.73L55.93 42.68L56.02 42.77Q56.64 42.48 57.94 42.06L58.05 42.18L58.05 42.17Q57.83 42.33 56.42 44.42L56.41 44.42L56.52 44.53Q58.26 43.98 61.77 43.22L61.74 43.19L61.74 43.20Q65.58 36.26 65.39 28.49L65.35 28.46L65.26 28.36Q66.81 32.39 70.28 40.27L70.27 40.26L70.36 40.36Q70.61 40.30 70.83 40.30L70.85 40.31L71.27 40.20L71.38 40.31Q71.69 40.85 72.49 42.14L72.64 42.29L72.54 42.19Q74.18 42.19 74.18 42.19L74.23 42.25L74.09 42.11Q75.22 42.21 75.86 42.28L75.81 42.23L75.91 42.33Q77.38 38.21 80.73 30.21L80.83 30.31L80.76 30.24Q80.53 35.57 83.12 40.90Z"/><path fill="#111" d="M48.81 32.11L39.67 22.21L39.68 22.22Q40.46 25.85 40.46 29.58L40.52 29.65L40.41 29.54Q40.50 35.60 38.44 41.16L38.36 41.08L38.45 41.16Q37.40 41.45 35.15 42.21L35.14 42.20L35.13 42.19Q37.88 36.34 37.88 29.64L37.96 29.71L37.81 29.56Q37.92 21.03 33.43 13.61L33.46 13.64L33.40 13.58Q33.87 13.79 34.56 14.20L34.55 14.20L34.48 14.13Q46.60 25.37 54.44 34.62L54.47 34.64L54.38 34.56Q54.13 32.18 54.13 29.74L54.10 29.71L54.08 29.69Q54.20 22.57 56.71 16.37L56.62 16.28L56.68 16.34Q58.96 15.76 60.56 15.08L60.65 15.17L60.65 15.17Q57.35 21.35 57.05 28.51L56.95 28.41L57.06 28.52Q56.62 35.73 59.59 41.90L59.62 41.93L59.64 41.95Q59.02 41.82 58.60 41.63L58.69 41.73L58.66 41.70Q54.14 37.78 48.93 32.23L48.86 32.16ZM62.17 45.05L62.25 45.13L62.20 45.08Q62.78 45.36 63.20 45.55L63.09 45.44L63.91 45.77L64.05 45.91Q58.89 38.95 58.89 29.59L58.89 29.59L58.76 29.46Q58.82 22.29 62.14 16.05L62.16 16.07L62.24 16.15Q61.56 16.35 60.15 16.96L60.03 16.84L60.07 16.87Q60.45 16.03 61.29 14.47L61.22 14.41L61.33 14.51Q58.74 15.28 56.31 15.85L56.45 15.99L56.32 15.86Q53.86 22.51 53.86 29.93L53.75 29.82L53.76 29.83Q53.73 31.66 53.92 33.64L54.01 33.73L54.04 33.76Q49.41 28.10 44.65 23.49L44.50 23.35L34.43 13.65L34.50 13.72Q33.92 13.41 32.70 12.84L32.62 12.76L32.73 12.87Q37.49 20.48 37.49 29.58L37.46 29.56L37.52 29.62Q37.61 36.82 34.53 42.84L34.41 42.72L34.50 42.81Q34.87 42.76 36.51 42.15L36.35 41.99L36.45 42.10Q36.17 42.92 35.33 44.41L35.26 44.33L35.23 44.30Q36.61 43.82 40.08 43.02L40.09 43.04L40.01 42.95Q42.38 36.87 42.38 29.67L42.41 29.71L42.32 29.62Q42.39 27.60 42.16 25.46L42.07 25.37L42.09 25.39Q53.71 38.34 62.31 45.19Z"/><path fill="#111" d="M31.14 41.59L31.09 41.53L31.20 41.64Q29.00 41.16 26.84 41.01L26.91 41.08L26.89 41.06Q25.45 39.62 22.78 35.77L22.71 35.70L22.65 35.64Q20.50 38.79 18.11 41.22L18.12 41.23L16.09 41.69L16.05 41.64Q15.02 41.87 14.03 42.13L13.98 42.09L13.96 42.07Q18.19 38.00 21.20 33.88L21.25 33.94L21.25 33.94Q18.00 29.77 12.59 24.97L12.45 24.83L12.59 24.98Q14.82 25.72 17.52 26.13L17.39 26.00L17.52 26.13Q20.79 29.06 22.69 31.76L22.87 31.94L22.84 31.91Q24.85 28.74 27.59 26.23L27.73 26.37L27.66 26.30Q30.76 26.01 32.59 25.52L32.55 25.48L32.49 25.42Q28.09 29.21 24.40 33.77L24.39 33.76L24.31 33.69Q27.66 38.33 31.12 41.56ZM33.98 24.71L34.00 24.73L34.07 24.79Q31.14 25.59 27.60 25.94L27.60 25.93L27.49 25.82Q24.57 28.46 22.86 30.94L22.89 30.97L22.99 31.07Q22.12 30.05 20.48 28.07L20.34 27.93L20.23 28.01L20.17 27.95Q20.08 27.97 19.96 27.97L20.00 28.00L19.87 27.87Q19.21 27.14 17.58 25.69L17.60 25.72L17.62 25.73Q13.89 25.06 11.04 23.84L11.06 23.86L11.13 23.93Q16.70 28.78 20.73 33.92L20.71 33.90L20.77 33.95Q17.27 38.44 12.85 42.75L12.95 42.85L12.98 42.88Q13.16 42.71 16.66 41.87L16.58 41.79L16.56 41.77Q15.13 43.19 13.49 44.53L13.45 44.49L13.44 44.48Q16.69 43.61 19.85 43.42L19.80 43.38L19.76 43.34Q22.19 41.12 24.10 38.38L24.09 38.37L24.14 38.43Q25.49 40.12 26.71 41.30L26.69 41.28L26.86 41.45Q26.97 41.44 27.04 41.52L26.95 41.43L27.08 41.36L27.17 41.45Q28.42 42.55 29.75 43.62L29.68 43.54L29.69 43.55Q33.34 44.16 36.24 45.19L36.13 45.09L36.29 45.24Q30.06 40.73 26.37 35.55L26.37 35.56L26.41 35.60Q29.99 30.49 34.56 26.42L34.55 26.41L34.62 26.48Q33.54 26.69 32.55 26.92L32.59 26.97L30.54 27.39L30.56 27.41Q31.85 26.61 34.02 24.74Z"/><path fill="#444" d="M99.92 29.41L99.96 29.45L100.00 29.50Q98.77 28.68 98.13 28.72L98.12 28.71L98.16 28.75Q96.84 28.88 95.79 29.89L95.76 29.86L95.75 29.85Q94.76 30.92 94.88 32.29L94.74 32.15L94.78 32.19Q95.14 36.58 94.26 41.11L94.24 41.10L94.25 41.11Q92.05 41.57 90.95 42.10L90.90 42.06L90.95 42.10Q92.40 37.88 92.17 33.42L92.24 33.49L92.23 33.49Q92.03 29.02 90.32 24.95L90.18 24.81L90.21 24.84Q91.42 25.59 93.70 26.24L93.67 26.21L94.23 28.90L94.29 28.96Q95.00 26.09 99.27 26.09L99.16 25.99L99.22 26.05Q99.64 26.01 99.94 26.01L99.79 25.85L99.96 26.03Q101.11 25.88 102.36 26.56L102.52 26.72L102.47 26.67Q101.19 28.06 100.05 29.54ZM101.64 31.52L101.76 31.48L101.68 31.40Q102.53 30.20 104.21 27.76L104.26 27.81L104.32 27.87Q103.88 27.54 102.35 27.28L102.32 27.25L102.28 27.20Q102.53 26.81 102.99 26.20L103.04 26.25L103.10 26.31Q101.10 25.30 99.16 25.49L99.31 25.65L99.15 25.49Q97.29 25.75 96.56 26.02L96.55 26.00L96.61 26.06Q95.18 26.46 94.38 27.57L94.39 27.58L94.27 26.80L93.97 25.87L94.00 25.89Q91.63 25.50 89.65 24.17L89.58 24.10L89.67 24.18Q91.67 28.43 91.90 33.31L92.02 33.42L91.94 33.35Q92.23 38.32 90.47 42.85L90.43 42.81L90.37 42.74Q91.60 42.41 92.47 42.11L92.39 42.03L92.37 42.01Q92.18 43.18 91.68 44.25L91.58 44.14L91.60 44.16Q94.39 43.26 96.52 43.15L96.65 43.27L96.83 38.74L96.82 38.72Q96.98 36.52 96.98 34.28L96.88 34.18L96.82 34.12Q96.84 32.95 97.75 31.98L97.92 32.15L97.89 32.12Q98.82 31.17 99.96 31.09L99.91 31.04L99.86 30.99Q100.55 30.92 101.28 31.61L101.22 31.55L101.60 31.48ZM96.67 29.74L96.70 29.70L96.53 29.64L96.62 29.69Z"/></svg>