<svg xmlns="http://www.w3.org/2000/svg" width="150" height="50" viewBox="0,0,150,50"><path fill="#333" d="M23.35 40.09L23.30 40.04L21.27 40.30L21.28 40.31Q20.85 40.34 19.88 40.39L19.81 40.32L19.92 40.43Q18.89 40.43 18.40 40.43L18.46 40.49L18.34 40.37Q16.68 40.35 15.65 39.51L15.71 39.57L15.66 39.52Q16.57 38.53 18.21 36.39L18.24 36.43L18.19 36.38Q19.44 37.94 21.65 37.71L21.56 37.62L21.57 37.63Q22.45 37.48 23.10 36.83L23.20 36.94L23.15 36.88Q23.91 36.35 23.80 35.48L23.67 35.35L23.67 35.35Q23.57 30.76 23.65 26.19L23.75 26.29L23.62 26.17Q23.68 21.58 24.21 16.97L24.31 17.06L24.34 17.09Q26.20 16.82 28.33 15.79L28.23 15.70L28.37 15.83Q26.38 22.45 26.38 29.69L26.46 29.77L26.54 29.84Q26.55 33.40 27.01 36.90L26.87 36.76L26.90 36.79Q27.07 37.23 27.07 37.57L27.04 37.54L26.95 37.45Q26.90 37.96 26.67 38.50L26.69 38.52L26.86 38.69Q26.23 39.89 23.42 40.16ZM28.39 43.03L28.40 43.04L28.69 42.99L28.88 42.76L29.22 42.73L29.27 42.78Q29.60 42.53 29.67 42.42L29.67 42.42L29.60 42.35Q29.69 41.07 29.43 40.08L29.43 40.08L29.47 40.12Q28.22 34.42 28.49 28.06L28.43 28.00L28.34 27.91Q28.76 21.98 30.55 16.08L30.41 15.93L30.41 15.93Q29.67 16.72 28.41 17.44L28.39 17.42L28.40 17.43Q28.42 16.50 28.84 14.98L28.92 15.05L28.84 14.97Q26.33 16.30 23.66 16.61L23.79 16.74L23.66 16.60Q23.35 21.06 23.28 26.01L23.33 26.07L23.32 26.06Q23.26 31.96 23.33 35.39L23.37 35.43L23.43 35.49Q23.41 37.19 21.66 37.34L21.72 37.40L21.62 37.29Q19.88 37.38 18.20 35.74L18.33 35.87L18.28 35.82Q16.09 38.20 15.14 39.76L15.14 39.76L15.18 39.81Q15.95 40.58 16.98 40.80L16.97 40.79L16.96 40.79Q16.86 40.91 16.59 41.13L16.57 41.12L16.60 41.15Q17.91 41.96 19.89 42.23L20.05 42.38L20.02 42.36Q20.42 42.41 23.71 42.72L23.58 42.58L23.56 42.57Q26.98 43.00 28.35 43.00Z"/><path fill="#222" d="M50.75 29.57L50.62 29.45L50.61 29.44Q49.50 28.75 48.86 28.79L48.78 28.71L48.91 28.84Q47.56 28.93 46.51 29.94L46.32 29.76L46.51 29.94Q45.32 30.81 45.43 32.18L45.58 32.33L45.45 32.19Q45.89 36.67 45.01 41.20L44.89 41.07L44.85 41.03Q42.65 41.50 41.55 42.04L41.62 42.11L41.59 42.08Q43.01 37.83 42.78 33.37L42.88 33.47L42.84 33.43Q42.64 28.97 40.93 24.89L40.85 24.81L40.83 24.80Q42.07 25.58 44.36 26.23L44.40 26.27L44.83 28.84L44.94 28.94Q45.54 25.97 49.81 25.97L49.77 25.93L49.83 25.99Q50.22 25.93 50.53 25.93L50.62 26.02L50.59 25.99Q51.75 25.85 53.00 26.54L53.05 26.58L53.00 26.54Q51.77 27.97 50.63 29.46ZM52.23 31.44L52.47 31.53L52.34 31.40Q53.17 30.17 54.84 27.73L55.03 27.92L54.97 27.86Q54.57 27.57 53.04 27.30L52.85 27.11L52.95 27.21Q53.39 27.00 53.85 26.39L53.84 26.38L53.66 26.21Q51.79 25.33 49.85 25.52L49.88 25.54L49.98 25.65Q47.98 25.78 47.26 26.05L47.15 25.94L47.25 26.04Q45.93 26.55 45.13 27.65L45.04 27.56L44.91 26.79L44.60 25.83L44.63 25.86Q42.25 25.46 40.27 24.13L40.28 24.13L40.18 24.03Q42.45 28.55 42.68 33.42L42.57 33.31L42.65 33.39Q42.96 38.39 41.21 42.92L41.04 42.75L41.19 42.90Q42.15 42.30 43.03 41.99L42.98 41.95L43.13 42.10Q42.76 43.10 42.27 44.16L42.28 44.17L42.29 44.19Q45.22 43.42 47.35 43.31L47.21 43.16L47.55 38.79L47.50 38.74Q47.51 36.39 47.51 34.14L47.50 34.13L47.57 34.21Q47.64 33.09 48.55 32.12L48.50 32.07L48.44 32.01Q49.42 31.10 50.56 31.02L50.53 30.99L50.63 31.09Q51.08 30.79 51.81 31.47L51.79 31.45L52.31 31.52ZM47.26 29.66L47.33 29.66L47.23 29.67L47.24 29.65Z"/><path fill="#333" d="M67.73 40.27L67.75 40.30L67.82 40.37Q66.38 40.41 64.82 39.99L64.78 39.96L64.83 40.00Q63.55 39.03 63.40 37.40L63.48 37.47L63.54 37.53Q63.40 37.24 63.59 34.62L63.61 34.63L63.66 34.68Q64.70 34.51 66.72 34.13L66.60 34.01L66.52 34.88L66.53 34.89Q66.17 36.55 67.58 37.12L67.64 37.18L67.57 37.11Q68.40 37.48 70.49 37.48L70.50 37.49L70.58 37.57Q72.09 37.33 72.28 37.25L72.29 37.27L72.30 37.27Q73.13 37.04 73.86 36.54L74.00 36.69L73.91 36.60Q75.30 35.63 75.11 33.53L75.18 33.60L75.23 33.66Q74.92 31.10 73.19 29.54L73.14 29.49L73.28 29.63Q71.45 27.97 68.97 27.97L69.00 28.00L69.10 27.86L69.05 27.82Q69.42 27.77 70.30 27.69L70.31 27.71L70.18 27.58Q72.18 27.56 73.55 26.32L73.56 26.33L73.45 26.22Q75.00 25.16 75.15 23.30L75.15 23.29L75.09 23.23Q75.06 22.79 75.06 22.45L75.14 22.53L75.21 22.60Q75.07 20.93 73.69 20.01L73.78 20.10L73.81 20.13Q72.46 19.20 70.86 19.31L70.91 19.36L70.89 19.34Q69.76 19.35 68.54 19.77L68.49 19.71L68.49 19.72Q66.99 20.20 66.68 21.34L66.60 21.26L66.61 21.27Q66.59 22.20 66.67 22.96L66.55 22.84L66.59 22.89Q65.53 22.62 63.47 21.90L63.42 21.84L63.40 21.83Q63.30 20.27 63.33 19.44L63.34 19.44L63.22 19.32Q63.33 17.80 64.40 17.11L64.48 17.19L64.54 17.26Q65.85 16.55 67.45 16.55L67.46 16.56L67.55 16.64Q70.72 16.62 73.88 16.89L73.77 16.78L73.82 16.82Q78.83 17.19 78.53 20.96L78.60 21.03L78.52 20.96Q78.41 22.40 77.91 23.96L77.95 24.00L78.08 24.13Q77.13 27.18 74.77 28.09L74.67 27.99L74.69 28.01Q77.38 28.61 77.99 31.96L77.91 31.88L78.05 32.02Q78.12 33.00 78.20 35.02L78.30 35.13L78.20 35.02Q78.32 39.44 73.71 39.90L73.84 40.03L73.88 40.07Q73.02 40.01 67.73 40.28ZM73.08 42.66L72.96 42.54L73.01 42.58Q73.56 42.56 76.41 42.64L76.42 42.65L76.40 42.63Q78.24 42.79 79.88 42.15L79.92 42.19L79.84 42.11Q80.98 41.11 80.79 39.36L80.81 39.39L80.90 39.47Q80.78 38.14 80.48 36.39L80.48 36.39L80.44 36.35Q79.62 31.77 77.68 30.13L77.84 30.29L77.49 29.74L77.57 29.79L77.45 29.67Q79.20 28.22 79.96 23.84L80.06 23.94L80.00 23.88Q79.99 23.38 80.11 22.43L80.12 22.44L80.11 22.43Q80.37 21.86 80.30 21.17L80.22 21.10L80.25 21.12Q79.99 19.34 78.70 18.66L78.73 18.69L78.66 18.69L78.59 18.63Q78.44 17.79 77.29 17.25L77.14 17.10L77.17 17.13Q75.64 16.44 70.50 16.14L70.54 16.17L70.58 16.21Q68.98 16.21 67.38 16.21L67.38 16.21L67.34 16.17Q65.66 16.09 64.14 16.74L64.17 16.76L64.22 16.82Q62.92 17.50 62.92 19.25L63.05 19.38L63.03 19.36Q63.00 18.91 63.27 22.26L63.18 22.17L63.28 22.28Q63.56 22.33 65.20 22.94L65.14 22.88L65.24 22.98Q65.10 23.37 65.06 23.87L65.19 23.99L65.12 23.92Q65.16 24.46 65.19 24.99L65.14 24.93L65.08 24.88Q66.89 25.27 68.90 25.39L68.99 25.47L69.07 25.55Q68.82 23.36 69.93 22.52L69.94 22.54L70.08 22.68Q70.93 22.04 72.95 21.81L72.80 21.67L72.95 21.82Q73.94 21.67 74.52 21.86L74.63 21.97L74.63 21.98Q74.63 22.05 74.67 22.17L74.70 22.20L74.59 22.28L74.76 22.90L74.81 22.95Q74.77 23.10 74.73 23.25L74.76 23.29L74.65 23.18Q74.67 24.98 73.15 26.16L73.07 26.09L73.04 26.06Q72.18 27.03 70.16 27.22L70.20 27.25L70.14 27.19Q69.41 27.33 68.53 27.33L68.67 27.48L68.59 27.39Q68.56 27.67 68.71 28.35L68.81 28.46L68.87 28.51Q70.58 28.47 72.03 29.19L71.92 29.08L71.91 29.19L70.29 29.32L70.30 29.34Q70.26 29.60 70.38 30.21L70.41 30.24L70.37 30.20Q72.61 30.24 74.32 31.57L74.32 31.56L74.26 31.50Q74.57 31.97 74.88 33.60L74.83 33.56L74.81 33.54Q75.08 36.55 72.15 36.97L72.04 36.86L72.03 36.85Q70.09 37.27 69.52 37.24L69.45 37.17L69.41 37.13Q69.05 37.10 68.51 37.02L68.39 36.90L68.46 36.52L68.50 35.98L68.68 35.74L68.58 35.30L68.71 35.43Q67.75 35.50 66.95 35.69L66.94 35.68L66.94 35.68Q66.78 35.33 66.78 35.14L66.78 35.14L66.92 35.28Q66.97 35.10 66.97 34.87L66.83 34.74L66.81 34.71Q66.87 34.32 67.02 33.59L67.07 33.64L66.97 33.54Q65.11 33.77 63.24 34.11L63.33 34.21L63.36 34.23Q63.36 34.72 63.24 35.85L63.26 35.86L63.15 35.76Q63.06 36.90 63.06 37.51L63.03 37.48L63.05 37.50Q63.28 39.71 64.65 40.47L64.61 40.43L64.59 40.41Q66.01 42.63 70.73 42.44L70.82 42.53L70.67 42.38Q71.43 42.38 72.95 42.53Z"/><path fill="#222" d="M89.09 15.84L89.20 15.95L89.03 15.79Q91.09 20.81 91.66 25.99L91.68 26.01L91.55 25.88Q95.18 21.67 101.08 16.83L101.21 16.96L101.20 16.95Q104.42 16.67 107.05 15.87L107.00 15.82L100.50 21.50L100.37 21.38Q97.08 24.44 94.23 27.30L94.25 27.32L94.18 27.26Q102.10 36.36 107.17 41.08L107.17 41.08L107.29 41.20Q104.03 40.11 101.71 39.96L101.81 40.06L101.78 40.03Q95.95 34.58 91.65 28.76L91.63 28.74L91.73 28.84Q91.90 35.52 90.04 40.85L89.89 40.70L89.85 40.66Q89.70 40.78 89.21 40.97L89.30 41.07L89.17 41.12L89.19 41.14Q89.03 41.22 86.48 42.13L86.54 42.18L86.47 42.12Q89.33 35.46 88.99 28.00L89.11 28.12L88.97 27.98Q88.64 20.64 85.10 14.13L85.28 14.31L85.64 14.41L86.20 14.85L86.13 14.74L86.23 14.84Q86.83 15.11 89.04 15.79ZM89.32 15.50L89.31 15.49L89.36 15.55Q87.04 14.93 84.41 13.41L84.52 13.52L84.53 13.52Q88.79 20.79 88.79 29.74L88.68 29.63L88.77 29.73Q88.74 36.69 85.77 42.75L85.78 42.76L87.84 41.92L87.88 41.97Q87.53 43.03 86.85 44.32L86.67 44.14L86.69 44.16Q89.02 43.45 90.96 43.03L91.00 43.07L91.00 42.84L91.08 42.92Q91.33 42.86 91.90 42.71L91.87 42.68L91.92 42.73Q93.48 36.72 93.60 31.92L93.53 31.86L93.56 31.89Q95.65 34.39 97.48 36.26L97.51 36.29L97.49 36.27Q98.78 37.49 101.79 40.46L101.66 40.33L101.78 40.44L101.73 40.40Q102.77 41.25 104.64 42.85L104.63 42.84L104.51 42.73Q108.56 43.62 112.03 45.33L111.85 45.15L112.02 45.32Q102.73 36.75 96.48 29.33L96.49 29.33L96.38 29.22Q100.77 24.93 109.52 16.33L109.67 16.47L109.57 16.37Q106.99 17.48 104.97 17.87L105.07 17.96L105.05 17.95Q106.28 16.97 108.60 14.95L108.50 14.85L108.61 14.96Q104.47 16.34 101.12 16.53L101.10 16.51L101.05 16.45Q98.20 18.75 93.33 23.43L93.22 23.32L93.36 23.46Q92.96 20.85 92.39 18.30L92.41 18.33L92.25 18.16Q91.24 18.19 90.25 17.84L90.18 17.77L90.21 17.80Q90.04 17.09 89.47 15.65Z"/><path fill="#444" d="M124.54 30.82L124.55 30.82L124.71 30.99Q124.57 29.74 122.63 29.02L122.59 28.98L122.48 28.87Q122.05 28.74 121.51 28.74L121.55 28.77L121.59 28.82Q120.23 28.83 119.17 29.40L119.09 29.32L119.06 29.29Q117.69 30.01 117.80 31.23L117.81 31.24L117.90 31.33Q118.18 34.08 118.03 36.33L118.03 36.34L118.11 36.41Q117.88 38.77 117.16 41.29L117.18 41.31L117.24 41.37Q115.10 41.85 113.91 42.27L113.85 42.20L113.81 42.17Q115.51 38.65 115.51 34.65L115.49 34.63L115.41 34.55Q115.48 29.18 112.89 24.72L112.89 24.73L112.83 24.66Q114.06 25.17 116.46 25.89L116.39 25.83L116.55 25.98Q116.82 26.67 117.20 28.20L117.18 28.18L117.19 28.18Q118.42 25.98 122.30 26.06L122.43 26.19L122.36 26.12Q123.91 26.22 124.71 26.34L124.73 26.35L124.73 26.36Q127.55 26.59 127.63 28.61L127.65 28.63L127.65 28.63Q127.80 29.66 127.61 30.69L127.58 30.66L127.51 30.58Q127.08 33.13 127.27 36.13L127.33 36.19L127.24 36.10Q127.49 39.05 128.48 41.60L128.38 41.50L128.39 41.52Q126.80 41.22 125.09 41.07L124.91 40.89L124.97 40.95Q124.56 38.64 124.49 35.97L124.44 35.93L124.51 35.99Q124.35 33.17 124.58 30.85ZM124.68 41.38L124.68 41.38L124.54 41.24Q125.51 41.42 126.81 41.64L126.68 41.52L127.10 42.62L127.20 42.72Q127.36 43.19 127.59 43.72L127.62 43.75L127.51 43.65Q129.83 44.10 132.53 45.28L132.60 45.35L132.44 45.18Q130.24 42.22 129.55 38.41L129.36 38.23L129.49 38.35Q129.09 36.16 129.20 32.47L129.30 32.57L129.14 32.40Q129.30 32.26 129.34 31.46L129.33 31.46L129.30 31.42Q129.26 30.70 129.18 30.20L129.34 30.36L129.18 30.20Q129.18 28.64 128.08 28.15L128.07 28.14L128.00 28.07Q127.95 27.33 127.19 26.72L127.08 26.62L127.20 26.73Q125.44 25.66 122.40 25.74L122.35 25.69L122.30 25.64Q120.44 25.69 119.60 25.88L119.69 25.97L119.75 26.03Q118.31 26.37 117.36 27.29L117.25 27.18L117.36 27.28Q117.11 26.62 116.73 25.59L116.79 25.65L116.86 25.72Q114.03 25.02 112.20 24.03L112.24 24.07L112.10 23.93Q115.20 28.85 115.20 34.60L115.09 34.50L115.21 34.61Q115.13 38.91 113.23 42.76L113.29 42.82L113.32 42.85Q113.93 42.47 115.22 42.09L115.21 42.08L115.22 42.09Q114.80 43.42 114.27 44.41L114.17 44.31L114.20 44.35Q115.66 43.94 119.20 43.37L119.23 43.40L119.27 43.44Q120.24 38.28 120.13 33.45L120.14 33.45L120.08 33.40Q120.05 32.57 121.23 31.84L121.16 31.77L121.15 31.76Q122.16 31.10 123.27 30.99L123.28 31.00L123.30 31.02Q123.77 30.99 124.19 31.18L124.19 31.19L124.14 31.14Q124.03 33.73 124.07 36.28L124.16 36.38L124.02 36.23Q124.18 38.86 124.67 41.38Z"/></svg>