<svg xmlns="http://www.w3.org/2000/svg" width="150" height="50" viewBox="0,0,150,50"><path fill="#333" d="M75.30 29.46L75.41 29.57L75.30 29.46Q74.12 28.70 73.47 28.74L73.48 28.74L73.49 28.75Q72.06 28.77 71.01 29.78L71.13 29.89L71.14 29.90Q70.02 30.84 70.14 32.21L70.12 32.20L70.18 32.26Q70.53 36.64 69.66 41.17L69.50 41.02L69.61 41.13Q67.30 41.48 66.19 42.01L66.20 42.02L66.32 42.14Q67.76 37.91 67.53 33.45L67.45 33.37L67.58 33.51Q67.30 28.96 65.59 24.89L65.50 24.79L65.63 24.93Q66.66 25.51 68.95 26.15L69.01 26.21L69.52 28.85L69.56 28.90Q70.35 26.11 74.61 26.11L74.63 26.12L74.55 26.05Q74.86 25.90 75.17 25.90L75.26 25.99L75.26 25.99Q76.49 25.93 77.75 26.62L77.76 26.62L77.67 26.54Q76.49 28.02 75.35 29.51ZM77.03 31.57L77.13 31.52L77.14 31.53Q77.85 30.18 79.52 27.74L79.53 27.75L79.67 27.89Q79.15 27.49 77.63 27.22L77.57 27.16L77.65 27.24Q77.96 26.90 78.42 26.29L78.41 26.29L78.46 26.34Q76.46 25.33 74.52 25.52L74.60 25.60L74.57 25.57Q72.54 25.67 71.81 25.94L71.98 26.10L71.94 26.06Q70.42 26.36 69.62 27.47L69.67 27.52L69.51 26.71L69.28 25.84L69.28 25.84Q66.99 25.53 65.01 24.20L64.99 24.18L64.99 24.17Q67.05 28.48 67.27 33.35L67.21 33.29L67.30 33.38Q67.43 38.19 65.68 42.72L65.70 42.74L65.78 42.82Q66.94 42.42 67.82 42.11L67.72 42.01L67.78 42.08Q67.55 43.22 67.05 44.28L66.95 44.18L66.98 44.21Q69.88 43.42 72.01 43.30L71.88 43.17L72.09 38.66L72.08 38.65Q72.35 36.56 72.35 34.31L72.31 34.28L72.27 34.24Q72.18 32.96 73.09 31.99L73.25 32.15L73.08 31.98Q74.11 31.13 75.25 31.05L75.22 31.02L75.24 31.04Q75.77 30.81 76.50 31.49L76.60 31.60L76.88 31.42ZM71.88 29.62L72.02 29.68L72.02 29.80L71.90 29.64Z"/><path fill="#333" d="M99.66 27.25L99.58 27.17L99.52 27.11Q100.28 27.07 101.69 26.92L101.88 27.11L101.72 26.95Q101.67 27.59 101.67 28.24L101.65 28.22L101.82 29.64L101.76 29.58Q100.85 29.51 100.02 29.59L100.04 29.61L100.00 29.57Q99.25 29.69 98.41 29.66L98.45 29.70L98.41 29.66Q95.50 35.77 92.08 40.38L92.08 40.38L92.18 40.48Q89.69 41.14 88.39 41.75L88.29 41.66L88.25 41.61Q92.52 36.06 95.57 29.78L95.50 29.71L92.83 29.67L92.81 29.65Q92.92 28.43 92.81 27.10L92.70 26.99L92.67 26.96Q94.68 27.22 96.74 27.22L96.74 27.23L98.60 23.49L98.65 23.54Q99.54 21.53 100.75 19.93L100.77 19.95L100.81 19.99Q99.24 20.13 97.64 20.13L97.62 20.11L97.65 20.13Q91.57 20.15 87.80 17.94L87.70 17.84L87.13 16.21L87.10 16.18Q86.82 15.40 86.44 14.52L86.40 14.48L86.40 14.49Q90.84 17.22 96.55 17.44L96.56 17.45L96.50 17.39Q101.56 17.54 106.70 15.56L106.69 15.55L106.75 15.61Q106.46 15.93 105.97 16.81L106.15 16.99L106.05 16.89Q102.52 21.73 99.66 27.25ZM107.66 18.27L107.57 18.18L108.66 16.26L108.66 16.26Q107.69 16.74 106.02 17.47L106.06 17.51L106.19 17.14L106.16 17.11Q106.26 16.94 106.37 16.83L106.45 16.91L106.45 16.91Q106.90 16.29 107.62 14.96L107.55 14.88L107.49 14.83Q102.20 17.15 96.45 16.92L96.39 16.86L96.43 16.90Q90.53 16.75 85.77 13.78L85.60 13.61L85.68 13.69Q86.66 15.50 87.50 18.17L87.60 18.27L87.48 18.16Q88.59 18.80 89.39 19.11L89.48 19.20L89.51 19.23Q89.62 19.53 90.08 21.40L90.16 21.48L90.13 21.45Q93.23 22.65 98.75 22.49L98.81 22.55L98.73 22.47Q98.50 23.12 96.52 26.89L96.45 26.82L96.52 26.89Q94.37 26.79 92.39 26.60L92.42 26.63L92.40 26.61Q92.45 27.42 92.45 28.30L92.45 28.30L92.44 30.00L94.13 30.02L94.18 31.48L94.14 31.44Q90.19 38.79 87.41 42.37L87.53 42.49L87.42 42.39Q89.13 41.73 90.77 41.24L90.65 41.12L90.78 41.25Q89.94 42.01 88.57 43.73L88.70 43.85L88.65 43.80Q91.91 42.79 94.34 42.56L94.20 42.42L94.26 42.49Q97.20 38.72 100.32 31.95L100.35 31.98L103.76 32.15L103.74 32.13Q103.72 31.27 103.72 30.36L103.60 30.24L103.62 28.46L103.60 28.45Q103.31 28.42 102.76 28.46L102.78 28.48L102.74 28.45Q102.27 28.56 102.00 28.56L101.92 28.49L102.03 28.60Q101.98 28.43 102.02 28.28L102.08 28.34L102.05 28.04L102.03 28.02Q104.59 22.93 107.67 18.28Z"/><path fill="#222" d="M19.18 40.46L19.19 40.47L19.13 40.40Q15.10 40.68 14.11 38.35L14.10 38.34L14.10 38.34Q14.89 37.41 16.45 35.62L16.37 35.54L16.27 35.45Q16.82 37.52 19.82 37.63L19.79 37.60L19.90 37.70Q23.18 37.67 24.82 36.34L24.95 36.48L24.94 36.46Q26.24 34.76 26.17 32.06L26.19 32.08L26.22 32.11Q26.10 27.08 21.30 27.30L21.28 27.28L21.32 27.33Q18.51 27.49 16.76 28.74L16.81 28.79L16.35 28.49L16.09 28.30L16.27 28.48Q16.59 25.30 16.48 22.56L16.49 22.57L16.31 22.39Q16.26 19.83 15.92 16.52L15.95 16.55L15.88 16.48Q19.61 17.50 23.41 17.39L23.31 17.29L23.50 17.47Q27.25 17.34 30.83 16.09L30.71 15.97L30.31 17.66L30.21 17.56Q30.00 18.42 29.81 19.25L29.70 19.15L29.76 19.21Q26.66 20.26 22.78 20.26L22.71 20.19L22.78 20.25Q21.25 20.17 19.76 20.02L19.75 20.01L19.75 20.01Q19.68 20.70 19.34 25.16L19.36 25.18L19.29 25.10Q20.26 24.78 22.32 24.63L22.23 24.54L22.20 24.51Q26.08 24.89 27.52 26.56L27.45 26.49L27.42 26.46Q28.89 28.08 29.15 31.92L29.16 31.93L29.02 31.79Q29.37 36.06 28.15 38.08L28.15 38.08L28.10 38.03Q26.11 39.96 22.80 40.18L22.81 40.19L22.72 40.11Q21.75 40.20 19.08 40.35ZM25.12 42.63L25.15 42.65L25.23 42.73Q28.69 42.84 30.59 41.73L30.56 41.70L30.49 41.64Q31.50 40.14 31.50 38.04L31.50 38.04L31.46 38.00Q31.50 34.95 30.55 30.84L30.55 30.85L30.58 30.87Q30.09 29.02 28.88 27.61L28.95 27.68L28.94 27.71L28.73 27.42L28.30 27.15L28.43 27.28Q28.04 26.47 27.40 25.79L27.51 25.91L27.51 25.94L27.37 25.80Q25.97 24.25 22.28 24.25L22.25 24.22L22.03 24.26L22.00 24.23Q22.04 23.63 22.23 22.53L22.25 22.55L22.29 22.59Q27.29 22.71 31.32 21.07L31.18 20.93L31.29 21.04Q31.77 19.69 32.72 16.87L32.67 16.83L30.54 17.74L30.48 17.68Q30.81 16.49 31.31 15.35L31.43 15.47L31.34 15.38Q27.54 16.87 23.43 16.94L23.40 16.91L23.54 17.05Q19.27 17.01 15.31 15.91L15.42 16.02L15.28 15.88Q15.98 20.31 15.98 24.72L15.98 24.73L16.15 24.89Q16.01 26.66 15.90 28.57L15.98 28.64L15.96 28.63Q16.27 28.86 16.84 29.17L16.69 29.01L16.79 29.11Q17.23 28.98 17.87 28.64L17.83 28.59L17.83 28.60Q17.78 29.35 17.55 30.87L17.57 30.89L17.52 30.84Q17.95 31.04 18.37 31.27L18.32 31.22L18.40 31.30Q21.08 29.45 22.95 29.45L22.99 29.49L22.95 29.45Q24.34 29.50 25.52 30.15L25.57 30.21L25.41 30.04Q25.81 31.13 25.85 32.08L25.85 32.09L25.82 32.05Q26.03 34.78 25.00 35.88L24.87 35.75L25.00 35.88Q23.64 37.11 21.40 37.34L21.25 37.19L21.39 37.33Q20.39 37.36 19.70 37.28L19.62 37.20L19.65 37.23Q18.93 37.23 18.17 36.89L18.04 36.76L18.12 36.65L17.86 36.61L17.85 36.61Q17.21 36.28 16.68 34.94L16.50 34.76L16.62 34.89Q15.24 36.24 13.56 38.37L13.66 38.48L13.55 38.36Q13.94 39.09 14.77 40.04L14.78 40.05L14.64 39.91Q15.80 41.83 18.61 42.32L18.71 42.42L18.61 42.32Q19.80 42.56 25.17 42.67Z"/><path fill="#333" d="M50.55 30.82L50.54 30.82L50.61 30.88Q50.60 29.76 48.65 29.04L48.55 28.93L48.61 29.00Q48.14 28.84 47.61 28.84L47.52 28.75L47.52 28.74Q46.12 28.71 45.05 29.28L45.20 29.44L45.13 29.37Q43.81 30.14 43.93 31.36L43.80 31.23L43.78 31.21Q44.19 34.10 44.04 36.35L43.96 36.26L44.01 36.32Q43.96 38.85 43.23 41.36L43.18 41.31L43.23 41.36Q40.97 41.73 39.79 42.14L39.95 42.30L39.78 42.13Q41.54 38.68 41.54 34.68L41.54 34.68L41.48 34.62Q41.49 29.18 38.90 24.73L38.92 24.75L38.84 24.67Q40.08 25.19 42.48 25.91L42.45 25.89L42.42 25.85Q42.78 26.63 43.16 28.16L43.07 28.07L43.15 28.15Q44.46 26.03 48.34 26.10L48.40 26.16L48.40 26.16Q49.94 26.25 50.74 26.37L50.60 26.23L50.58 26.21Q53.71 26.75 53.78 28.76L53.74 28.73L53.68 28.66Q53.80 29.65 53.61 30.68L53.47 30.54L53.48 30.55Q53.05 33.10 53.24 36.10L53.30 36.16L53.33 36.19Q53.44 39.01 54.43 41.56L54.39 41.52L54.53 41.66Q52.78 41.20 51.07 41.05L50.93 40.91L50.98 40.96Q50.49 38.56 50.41 35.90L50.55 36.04L50.40 35.89Q50.40 33.22 50.63 30.90ZM50.69 41.39L50.71 41.42L50.62 41.33Q51.48 41.39 52.78 41.62L52.64 41.48L53.20 42.73L53.12 42.64Q53.30 43.13 53.53 43.66L53.57 43.70L53.57 43.71Q55.76 44.03 58.46 45.21L58.54 45.28L58.43 45.17Q56.10 42.09 55.42 38.28L55.51 38.37L55.52 38.38Q55.18 36.26 55.30 32.56L55.17 32.44L55.24 32.50Q55.24 32.20 55.28 31.40L55.32 31.45L55.25 31.37Q55.42 30.86 55.34 30.36L55.25 30.27L55.21 30.23Q55.17 28.62 54.06 28.13L54.00 28.07L54.02 28.08Q53.88 27.27 53.12 26.66L53.14 26.67L53.19 26.72Q51.33 25.55 48.29 25.63L48.37 25.71L48.48 25.82Q46.54 25.78 45.70 25.97L45.62 25.89L45.68 25.95Q44.28 26.34 43.32 27.25L43.21 27.14L43.20 27.12Q43.14 26.65 42.76 25.63L42.72 25.58L42.70 25.57Q39.97 24.97 38.15 23.98L38.22 24.05L38.17 24.01Q41.11 28.77 41.11 34.52L41.24 34.64L41.28 34.69Q41.13 38.91 39.22 42.76L39.18 42.72L39.30 42.83Q40.06 42.61 41.36 42.23L41.34 42.21L41.34 42.21Q40.85 43.47 40.31 44.46L40.19 44.33L40.27 44.42Q41.65 43.93 45.19 43.36L45.19 43.35L45.12 43.29Q46.24 38.27 46.12 33.44L46.06 33.38L46.04 33.35Q45.96 32.48 47.14 31.76L47.24 31.86L47.27 31.88Q48.17 31.11 49.28 31.00L49.32 31.04L49.37 31.09Q49.71 30.94 50.13 31.13L50.23 31.23L50.24 31.23Q50.06 33.75 50.09 36.31L50.17 36.38L50.00 36.21Q50.17 38.86 50.67 41.37Z"/><path fill="#444" d="M128.36 37.93L128.24 37.81L128.26 37.83Q128.56 38.81 129.09 40.83L129.26 41.00L129.12 40.85Q124.86 39.49 120.25 39.75L120.36 39.87L120.40 39.90Q115.76 40.10 111.76 42.08L111.75 42.06L111.70 42.01Q112.03 41.43 112.06 41.50L112.01 41.45L112.06 41.49Q115.69 37.44 119.61 33.02L119.63 33.04L119.79 33.20Q124.13 28.14 125.31 23.46L125.31 23.46L125.26 23.40Q125.80 21.74 124.53 20.56L124.51 20.54L124.38 20.41Q123.24 19.37 121.46 19.52L121.37 19.44L121.37 19.44Q121.15 19.52 120.81 19.52L120.67 19.38L120.64 19.35Q119.26 19.50 118.01 20.42L117.92 20.33L117.95 20.36Q116.72 21.80 116.95 24.46L116.89 24.40L116.82 24.33Q115.15 24.10 113.93 23.65L113.84 23.56L113.81 23.52Q113.63 22.13 113.55 20.68L113.52 20.65L113.55 20.68Q113.55 19.12 114.16 17.97L114.19 18.00L114.14 17.96Q116.00 16.65 119.35 16.65L119.24 16.55L120.96 16.51L120.93 16.49Q123.31 16.62 124.26 16.73L124.23 16.70L124.31 16.78Q128.64 17.19 128.90 19.63L128.91 19.63L128.96 19.69Q128.97 20.19 128.89 20.99L128.88 20.98L128.83 20.92Q128.93 21.71 128.78 22.39L128.58 22.20L128.70 22.32Q126.95 30.31 119.37 37.16L119.38 37.17L119.46 37.25Q120.82 37.04 122.19 37.04L122.29 37.15L122.15 37.01Q125.51 37.13 128.36 37.93ZM127.72 17.04L127.73 17.05L127.84 17.16Q126.21 16.47 124.50 16.40L124.52 16.42L121.01 16.15L121.05 16.19Q116.50 15.83 114.30 16.93L114.32 16.96L114.36 17.00Q113.38 18.45 113.38 20.50L113.33 20.46L113.24 20.37Q113.41 21.23 113.72 24.04L113.56 23.88L113.69 24.01Q114.24 24.26 115.42 24.57L115.45 24.60L115.36 25.53L115.34 25.52Q115.35 26.02 115.43 26.56L115.32 26.45L115.43 26.56Q116.67 26.66 119.15 26.89L119.17 26.91L119.15 26.89Q119.04 26.44 119.04 26.09L119.07 26.12L119.15 26.21Q119.17 24.40 120.39 23.04L120.30 22.96L120.31 22.97Q121.57 21.66 123.36 21.77L123.31 21.72L123.29 21.70Q124.08 21.77 124.84 21.92L124.78 21.86L124.90 21.98Q124.88 22.23 124.96 22.65L125.02 22.71L125.03 22.72Q125.10 23.17 125.02 23.51L125.00 23.49L124.98 23.47Q123.64 28.14 119.23 32.98L119.25 33.01L119.33 33.09Q117.21 35.34 111.77 41.39L111.83 41.46L111.80 41.43Q111.62 42.27 111.27 42.84L111.26 42.83L111.15 42.72Q112.77 41.87 114.30 41.34L114.24 41.28L114.43 41.47Q113.59 41.92 112.64 43.41L112.69 43.46L112.61 43.38Q112.64 43.87 112.53 44.21L112.45 44.13L112.49 44.17Q117.30 42.05 122.78 42.24L122.83 42.29L122.71 42.18Q128.39 42.34 132.96 44.70L132.98 44.72L131.96 42.55L132.10 42.69Q131.36 41.26 131.09 40.47L131.02 40.40L131.14 40.52Q130.39 40.07 129.17 39.65L129.11 39.58L129.23 39.70Q128.92 38.83 128.54 37.46L128.72 37.64L128.74 37.66Q126.37 36.93 124.09 36.74L124.19 36.84L124.21 36.86Q128.86 32.26 130.38 24.00L130.33 23.95L130.63 21.17L130.52 21.05Q130.45 19.27 129.24 18.59L129.35 18.70L129.27 18.66L129.12 18.51Q129.22 18.57 129.14 18.57L129.12 18.54L129.17 18.59Q128.83 17.65 127.73 17.04Z"/></svg>