<svg xmlns="http://www.w3.org/2000/svg" width="150" height="50" viewBox="0,0,150,50"><path fill="#444" d="M117.73 40.33L117.79 40.39L117.78 40.39Q113.70 40.61 112.71 38.28L112.64 38.22L112.62 38.20Q113.39 37.25 114.95 35.46L114.98 35.49L114.96 35.47Q115.48 37.52 118.49 37.63L118.52 37.66L118.47 37.61Q121.94 37.77 123.57 36.43L123.50 36.35L123.55 36.41Q125.07 34.92 124.99 32.22L124.92 32.15L124.99 32.22Q124.65 26.96 119.85 27.19L119.87 27.21L120.00 27.33Q117.04 27.35 115.29 28.60L115.35 28.66L114.97 28.44L114.83 28.37L114.92 28.46Q115.18 25.22 115.07 22.48L115.02 22.44L114.98 22.39Q115.05 19.95 114.71 16.64L114.71 16.65L114.64 16.58Q118.28 17.51 122.09 17.40L122.13 17.44L121.98 17.29Q125.98 17.40 129.56 16.15L129.50 16.09L128.90 17.59L128.86 17.55Q128.59 18.35 128.40 19.18L128.30 19.08L128.48 19.26Q125.30 20.23 121.42 20.23L121.32 20.13L121.38 20.19Q119.86 20.12 118.37 19.96L118.36 19.96L118.43 20.02Q118.29 20.64 117.94 25.09L118.06 25.21L118.14 25.29Q118.84 24.70 120.90 24.55L120.90 24.54L120.99 24.64Q124.74 24.88 126.18 26.55L126.08 26.45L126.19 26.56Q127.48 28.01 127.75 31.85L127.78 31.89L127.68 31.78Q127.98 36.01 126.76 38.02L126.77 38.03L126.74 38.00Q124.83 40.01 121.52 40.24L121.51 40.23L121.47 40.20Q120.36 40.14 117.69 40.30ZM123.81 42.65L123.90 42.73L123.87 42.71Q127.21 42.70 129.12 41.59L129.10 41.58L129.21 41.69Q130.05 40.02 130.05 37.93L130.09 37.96L130.18 38.05Q130.10 34.88 129.14 30.77L129.27 30.89L129.13 30.76Q128.74 29.00 127.52 27.59L127.55 27.62L127.59 27.70L127.34 27.37L127.11 27.29L127.04 27.22Q126.72 26.49 126.08 25.80L126.01 25.74L126.06 25.82L126.02 25.79Q124.52 24.14 120.83 24.14L120.85 24.16L120.65 24.22L120.68 24.25Q120.65 23.57 120.84 22.47L120.87 22.50L120.95 22.58Q125.97 22.73 130.01 21.09L129.92 21.00L129.96 21.05Q130.42 19.67 131.37 16.86L131.26 16.75L129.22 17.76L129.24 17.77Q129.58 16.59 130.07 15.44L130.07 15.44L130.03 15.40Q126.26 16.93 122.15 17.00L122.12 16.97L122.08 16.94Q117.94 17.02 113.98 15.92L114.05 15.99L114.07 16.00Q114.81 20.47 114.81 24.89L114.82 24.90L114.73 24.81Q114.70 26.68 114.58 28.58L114.57 28.57L114.53 28.53Q114.97 28.90 115.55 29.20L115.55 29.21L115.49 29.14Q115.71 28.80 116.35 28.45L116.41 28.51L116.37 28.47Q116.46 29.36 116.23 30.88L116.10 30.75L116.08 30.73Q116.66 31.08 117.08 31.31L116.96 31.19L117.06 31.29Q119.70 29.40 121.57 29.40L121.73 29.57L121.60 29.43Q123.04 29.55 124.22 30.19L124.17 30.14L124.08 30.05Q124.58 31.23 124.61 32.18L124.54 32.11L124.59 32.16Q124.54 34.62 123.51 35.73L123.60 35.82L123.58 35.79Q122.26 37.06 120.02 37.29L120.01 37.28L119.90 37.18Q119.09 37.39 118.40 37.31L118.36 37.27L118.31 37.22Q117.41 37.05 116.65 36.71L116.75 36.81L116.72 36.58L116.61 36.70L116.59 36.68Q115.75 36.15 115.22 34.82L115.34 34.94L115.36 34.95Q113.95 36.29 112.28 38.42L112.34 38.48L112.29 38.44Q112.46 38.95 113.30 39.90L113.42 40.02L113.33 39.93Q114.51 41.87 117.33 42.37L117.23 42.27L117.31 42.35Q118.39 42.48 123.75 42.59Z"/><path fill="#111" d="M13.54 38.93L13.61 38.99L13.57 38.95Q15.42 36.54 20.18 29.27L20.25 29.34L20.15 29.24Q24.15 23.00 27.01 19.73L27.18 19.90L27.16 19.88Q24.92 20.04 22.83 20.04L22.84 20.05L22.86 20.07Q17.65 20.11 13.65 18.32L13.57 18.24L13.67 18.34Q13.04 16.46 12.36 14.90L12.26 14.80L12.20 14.74Q16.95 17.09 22.62 17.20L22.55 17.13L22.61 17.19Q27.76 17.28 32.93 15.37L32.89 15.33L32.77 15.21Q32.48 16.14 32.17 16.93L32.22 16.99L31.69 18.62L31.58 18.51Q28.54 22.17 24.54 27.99L24.51 27.96L21.18 32.78L21.19 32.79Q19.56 35.27 17.73 37.56L17.75 37.57L17.75 37.57Q20.94 36.84 24.25 36.92L24.26 36.92L24.30 36.97Q27.68 37.11 30.84 38.02L30.89 38.08L31.29 39.58L31.32 39.61Q31.49 40.35 31.83 41.19L31.91 41.27L31.99 41.35Q27.22 39.66 22.08 39.85L22.03 39.80L22.02 39.79Q16.89 39.99 12.40 42.01L12.41 42.02L12.48 42.09Q12.94 41.11 13.67 39.05ZM11.90 42.80L11.87 42.77L11.94 42.84Q13.19 42.27 13.99 42.00L13.81 41.82L13.87 41.88Q13.64 42.68 12.95 44.20L12.98 44.23L12.94 44.19Q18.75 42.15 24.72 42.38L24.64 42.29L24.71 42.37Q30.96 42.52 35.98 45.30L36.00 45.32L35.90 45.22Q34.47 42.79 33.67 40.62L33.78 40.73L33.82 40.78Q33.30 40.53 31.78 39.96L31.77 39.95L31.69 39.86Q31.49 39.10 31.07 37.61L31.05 37.58L31.12 37.66Q26.97 36.48 21.87 36.67L21.82 36.62L21.85 36.65Q24.01 33.93 27.55 28.37L27.53 28.35L27.64 28.47Q31.13 22.60 33.04 20.05L33.21 20.22L33.09 20.10Q33.63 18.73 34.66 16.03L34.64 16.02L34.54 15.92Q33.95 16.35 32.50 16.96L32.45 16.90L32.59 17.05Q32.87 16.19 33.59 14.66L33.52 14.59L33.65 14.72Q28.15 16.68 22.44 16.60L22.48 16.64L22.60 16.77Q16.57 16.60 11.62 14.09L11.58 14.04L11.61 14.08Q12.81 16.49 13.53 18.74L13.56 18.77L13.44 18.65Q14.62 19.26 15.42 19.49L15.40 19.46L15.41 19.47Q15.60 20.08 15.87 21.53L15.91 21.57L16.00 21.66Q19.64 22.63 24.51 22.44L24.52 22.46L24.53 22.47Q22.13 25.66 18.82 30.65L18.72 30.55L13.36 39.04L13.32 39.01Q12.95 40.27 11.92 42.83Z"/><path fill="#333" d="M68.41 19.43L68.42 19.44L68.32 19.34Q69.16 23.57 69.31 27.15L69.25 27.08L69.36 27.19Q70.44 27.24 71.50 27.24L71.44 27.18L73.64 27.17L73.78 27.31Q74.79 27.25 75.66 25.84L75.58 25.76L75.54 25.73Q76.32 24.59 76.43 23.41L76.39 23.38L76.37 23.36Q76.83 20.42 72.60 19.93L72.63 19.95L72.53 19.86Q70.99 19.95 68.36 19.38ZM69.40 29.98L69.35 29.92L69.30 29.88Q69.32 36.18 68.18 40.59L68.24 40.66L68.22 40.64Q66.78 41.06 64.46 42.12L64.39 42.06L64.38 42.05Q66.79 35.43 66.52 28.16L66.43 28.07L66.48 28.12Q66.23 20.79 63.45 14.35L63.33 14.24L63.40 14.30Q67.50 17.03 73.74 17.03L73.76 17.05L73.78 17.07Q79.92 17.16 80.08 20.63L79.93 20.48L80.09 20.64Q80.17 23.08 79.18 25.74L79.07 25.63L79.04 25.61Q78.69 26.78 77.74 28.00L77.74 28.00L77.68 27.94Q76.46 29.65 73.91 29.92L73.88 29.89L73.84 29.85Q71.70 29.99 69.45 30.03ZM75.46 32.15L75.46 32.15L75.48 32.17Q79.69 32.46 80.95 27.67L80.98 27.70L80.88 27.60Q81.79 23.90 81.64 21.89L81.77 22.02L81.77 22.01Q81.57 20.40 80.80 19.41L80.88 19.49L80.87 19.48Q80.42 19.03 79.92 18.80L79.95 18.83L79.90 18.77Q79.99 18.71 79.38 17.95L79.41 17.98L79.47 18.04Q77.84 16.64 73.88 16.64L73.93 16.69L73.83 16.58Q66.91 16.56 62.68 13.40L62.85 13.56L62.85 13.56Q65.83 20.46 66.09 27.93L66.24 28.07L66.21 28.04Q66.41 35.63 63.74 42.71L63.74 42.70L63.79 42.76Q64.85 42.10 65.84 41.72L65.91 41.79L65.54 42.94L65.43 42.83Q65.40 43.56 65.13 44.13L65.09 44.09L64.98 43.98Q67.48 43.02 70.38 42.49L70.36 42.47L70.34 42.45Q71.15 36.91 71.23 32.18L71.33 32.29L71.25 32.21Q72.33 32.11 73.32 32.11L73.30 32.08L73.39 32.18Q74.68 32.13 75.48 32.17ZM74.63 22.34L74.51 22.22L74.47 22.17Q74.96 22.17 75.95 22.40L76.11 22.56L75.99 22.44Q76.14 22.71 76.18 23.01L76.22 23.05L76.26 23.09Q76.24 23.30 76.17 23.57L76.11 23.51L76.13 23.53Q75.97 24.71 75.25 25.58L75.34 25.67L75.39 25.72Q74.67 26.64 73.64 26.83L73.65 26.84L73.70 26.89Q72.86 26.77 71.22 26.77L71.33 26.88L71.32 26.87Q71.21 24.52 70.98 22.15L71.00 22.17L72.71 22.20L72.72 22.21Q73.64 22.30 74.51 22.22Z"/><path fill="#444" d="M87.61 38.99L87.64 39.02L87.67 39.05Q89.43 36.55 94.19 29.27L94.23 29.32L94.21 29.30Q98.33 23.18 101.19 19.91L101.06 19.78L101.16 19.88Q99.09 20.21 97.00 20.21L97.01 20.22L96.91 20.12Q91.60 20.07 87.61 18.28L87.67 18.34L87.66 18.33Q86.98 16.40 86.29 14.84L86.36 14.90L86.29 14.83Q90.82 16.96 96.49 17.07L96.55 17.14L96.47 17.05Q101.60 17.12 106.77 15.21L106.95 15.39L106.82 15.26Q106.55 16.21 106.24 17.01L106.23 16.99L105.52 18.46L105.69 18.63Q102.45 22.08 98.45 27.91L98.49 27.95L95.13 32.73L95.16 32.76Q93.45 35.17 91.63 37.45L91.80 37.62L91.65 37.48Q95.05 36.95 98.36 37.03L98.34 37.01L98.30 36.97Q101.74 37.17 104.90 38.09L104.84 38.03L105.38 39.67L105.40 39.69Q105.53 40.39 105.88 41.23L105.90 41.26L105.88 41.24Q101.24 39.68 96.10 39.87L95.98 39.75L96.14 39.91Q91.02 40.12 86.53 42.14L86.57 42.18L86.55 42.16Q86.96 41.13 87.69 39.07ZM85.81 42.71L85.84 42.75L85.90 42.80Q87.04 42.11 87.84 41.85L87.98 41.99L87.94 41.95Q87.70 42.74 87.02 44.26L86.98 44.22L87.01 44.25Q92.57 41.97 98.54 42.20L98.62 42.28L98.63 42.28Q104.85 42.42 109.88 45.20L110.07 45.38L109.89 45.21Q108.48 42.80 107.68 40.63L107.69 40.65L107.82 40.78Q107.35 40.58 105.83 40.01L105.70 39.87L105.73 39.91Q105.52 39.12 105.10 37.64L105.18 37.72L105.23 37.76Q100.97 36.48 95.87 36.67L95.80 36.60L95.92 36.72Q97.93 33.85 101.47 28.29L101.66 28.49L101.64 28.47Q105.19 22.66 107.10 20.11L107.15 20.16L107.12 20.13Q107.65 18.75 108.67 16.05L108.62 15.99L108.55 15.93Q108.04 16.44 106.59 17.05L106.48 16.94L106.54 17.00Q106.77 16.08 107.49 14.56L107.60 14.67L107.66 14.73Q102.16 16.70 96.45 16.62L96.56 16.73L96.62 16.79Q90.54 16.57 85.59 14.05L85.52 13.98L85.53 13.99Q86.68 16.36 87.40 18.61L87.52 18.73L87.49 18.70Q88.53 19.17 89.33 19.39L89.37 19.44L89.39 19.46Q89.60 20.08 89.87 21.53L89.88 21.55L89.87 21.54Q93.56 22.56 98.43 22.37L98.48 22.42L98.49 22.43Q96.16 25.69 92.85 30.68L92.88 30.71L87.34 39.03L87.26 38.95Q86.90 40.23 85.87 42.78Z"/><path fill="#111" d="M50.61 30.89L50.65 30.93L50.67 30.94Q50.43 29.60 48.49 28.88L48.61 29.00L48.49 28.88Q48.00 28.69 47.46 28.69L47.57 28.79L47.63 28.85Q46.15 28.75 45.09 29.32L45.12 29.36L45.02 29.25Q43.78 30.11 43.90 31.33L43.89 31.32L43.91 31.34Q44.11 34.02 43.96 36.26L43.96 36.26L44.09 36.39Q43.96 38.85 43.24 41.36L43.15 41.28L43.22 41.35Q40.96 41.71 39.78 42.13L39.77 42.12L39.91 42.27Q41.55 38.69 41.55 34.69L41.44 34.58L41.42 34.56Q41.48 29.18 38.89 24.73L38.82 24.65L38.91 24.74Q40.04 25.15 42.44 25.87L42.51 25.94L42.43 25.86Q42.82 26.67 43.20 28.19L43.07 28.06L43.19 28.18Q44.40 25.97 48.28 26.04L48.38 26.14L48.32 26.08Q49.91 26.23 50.71 26.34L50.64 26.26L50.75 26.38Q53.63 26.67 53.71 28.69L53.66 28.64L53.78 28.76Q53.81 29.67 53.62 30.70L53.57 30.64L53.52 30.60Q53.14 33.18 53.33 36.19L53.20 36.06L53.27 36.13Q53.52 39.08 54.51 41.63L54.53 41.66L54.35 41.47Q52.81 41.23 51.10 41.08L51.07 41.05L50.91 40.89Q50.62 38.70 50.55 36.04L50.43 35.92L50.49 35.98Q50.35 33.17 50.58 30.85ZM50.71 41.42L50.61 41.32L50.56 41.26Q51.33 41.24 52.63 41.47L52.69 41.52L53.15 42.67L53.10 42.63Q53.28 43.11 53.51 43.64L53.56 43.70L53.62 43.75Q55.84 44.11 58.54 45.29L58.59 45.34L58.55 45.29Q56.24 42.23 55.56 38.42L55.54 38.41L55.45 38.31Q55.20 36.27 55.31 32.58L55.22 32.48L55.30 32.56Q55.27 32.23 55.31 31.43L55.22 31.34L55.19 31.31Q55.45 30.88 55.37 30.39L55.31 30.33L55.19 30.21Q55.16 28.62 54.06 28.12L54.03 28.10L54.04 28.11Q53.80 27.19 53.04 26.58L53.10 26.64L53.10 26.64Q51.50 25.72 48.45 25.80L48.45 25.79L48.36 25.70Q46.48 25.73 45.64 25.92L45.62 25.89L45.69 25.97Q44.28 26.34 43.33 27.25L43.24 27.17L43.30 27.23Q43.12 26.63 42.74 25.60L42.77 25.63L42.88 25.74Q39.89 24.89 38.06 23.90L38.15 23.98L38.16 23.99Q41.23 28.88 41.23 34.63L41.28 34.69L41.12 34.53Q41.10 38.88 39.19 42.73L39.27 42.80L39.34 42.88Q40.00 42.55 41.30 42.17L41.29 42.16L41.29 42.16Q40.75 43.37 40.22 44.36L40.31 44.45L40.25 44.39Q41.63 43.90 45.17 43.33L45.28 43.45L45.18 43.34Q46.23 38.27 46.11 33.43L46.07 33.38L46.00 33.32Q46.10 32.62 47.28 31.89L47.20 31.81L47.27 31.88Q48.19 31.13 49.30 31.02L49.24 30.96L49.41 31.13Q49.78 31.00 50.20 31.19L50.14 31.14L50.15 31.14Q50.03 33.73 50.07 36.28L50.18 36.40L50.00 36.21Q50.05 38.73 50.54 41.25Z"/></svg>