<svg xmlns="http://www.w3.org/2000/svg" width="150" height="50" viewBox="0,0,150,50"><path fill="#222" d="M129.22 23.22L129.34 23.33L129.36 23.36Q127.63 19.27 121.43 19.46L121.29 19.32L121.44 19.47Q116.90 19.46 114.92 20.91L114.91 20.89L114.94 20.93Q112.65 22.79 112.65 26.90L112.53 26.78L112.57 28.68L112.64 28.76Q112.67 37.61 121.69 37.61L121.61 37.54L121.58 37.50Q123.76 37.62 125.24 36.82L125.14 36.73L125.08 36.66Q126.95 35.68 126.80 33.81L126.89 33.90L126.87 33.88Q126.69 31.80 122.99 30.88L122.96 30.85L121.03 30.87L121.04 30.88Q120.04 30.83 119.09 30.87L119.10 30.87L119.10 30.87Q119.01 29.84 118.97 27.93L119.08 28.03L119.11 28.07Q126.65 27.96 130.84 27.61L130.96 27.74L130.99 27.76Q130.79 28.44 130.79 29.24L130.94 29.39L130.80 29.25Q130.87 30.11 130.90 30.91L130.85 30.86L130.87 30.88Q129.86 30.97 129.86 30.97L129.82 30.94L129.78 30.90Q128.30 30.79 128.68 30.79L128.74 30.84L128.81 30.92Q129.94 32.57 130.32 34.55L130.21 34.45L130.29 34.52Q130.35 35.19 130.35 35.65L130.37 35.68L130.38 35.68Q130.40 40.35 121.60 40.35L121.55 40.30L121.62 40.36Q114.43 40.29 111.84 38.20L111.78 38.13L111.94 38.29Q109.83 35.81 109.83 30.74L109.78 30.69L109.85 30.76Q109.82 29.67 109.67 26.96L109.74 27.03L109.66 26.96Q109.50 24.59 109.54 23.22L109.57 23.24L109.52 23.20Q109.66 20.37 111.03 18.77L111.07 18.81L111.13 18.87Q113.67 16.80 118.55 16.61L118.50 16.57L121.26 16.59L121.26 16.59Q124.22 16.35 127.65 16.77L127.60 16.72L127.78 16.90Q131.53 17.37 132.48 20.61L132.45 20.59L132.36 20.49Q131.34 21.42 129.25 23.24ZM130.65 25.45L130.88 25.56L130.74 25.42Q132.02 24.41 133.88 22.43L133.84 22.39L133.92 22.47Q133.52 21.42 132.53 19.71L132.47 19.65L132.57 19.75Q131.29 16.99 127.48 16.34L127.58 16.43L127.51 16.37Q125.57 16.44 121.26 16.14L121.23 16.10L118.47 16.16L118.39 16.08Q113.33 16.39 110.74 18.37L110.64 18.26L110.74 18.36Q109.30 19.93 109.19 23.02L109.23 23.06L109.29 23.12Q109.34 22.71 109.57 28.20L109.43 28.06L109.58 28.20Q109.50 29.46 109.57 32.20L109.64 32.27L109.58 32.20Q109.82 36.71 111.57 38.65L111.57 38.65L111.51 38.59Q111.84 39.37 112.71 40.25L112.80 40.34L112.76 40.29Q115.76 42.26 121.28 42.61L121.26 42.59L124.07 42.69L124.16 42.79Q125.62 42.76 127.64 42.65L127.63 42.64L127.66 42.67Q129.18 42.67 131.28 42.14L131.29 42.16L131.32 42.18Q133.12 41.54 133.08 39.22L133.23 39.37L133.06 39.20Q133.14 38.02 132.07 35.24L132.10 35.27L132.05 35.22Q131.69 34.25 131.15 33.45L131.24 33.54L131.32 33.62Q131.89 33.62 133.07 33.81L133.11 33.84L132.93 33.67Q132.72 30.15 132.76 29.46L132.84 29.54L132.81 29.51Q132.38 29.46 131.96 29.42L131.99 29.45L131.89 29.35Q131.58 29.39 131.20 29.46L131.21 29.47L131.18 29.44Q131.25 28.40 131.32 27.34L131.36 27.37L131.21 27.23Q124.97 27.76 118.69 27.65L118.68 27.63L118.64 27.60Q118.66 28.50 118.66 29.41L118.84 29.58L118.76 31.26L118.82 31.32Q119.18 31.30 119.60 31.26L119.64 31.30L119.49 31.15Q119.98 31.22 120.44 31.22L120.48 31.27L120.47 31.26Q120.52 31.76 120.55 32.25L120.41 32.10L120.42 32.12Q120.41 32.56 120.37 33.06L120.44 33.12L120.51 33.20Q121.43 33.05 122.46 33.01L122.46 33.02L122.52 33.07Q123.51 33.03 124.53 33.07L124.55 33.08L124.52 33.06Q125.52 33.25 126.39 33.64L126.55 33.79L126.47 33.75L126.44 33.73Q126.62 35.27 124.95 36.19L124.91 36.15L125.07 36.31Q123.35 37.18 121.63 37.18L121.61 37.15L121.65 37.20Q117.84 37.22 115.40 35.47L115.25 35.32L115.26 35.33Q114.35 33.36 114.51 30.81L114.55 30.85L114.53 30.84Q114.82 26.03 116.67 24.03L116.63 23.99L116.69 24.05Q118.48 21.99 123.16 21.69L123.29 21.81L123.30 21.82Q126.89 21.53 128.83 23.32L128.78 23.27L128.74 23.23Q128.94 23.47 129.06 23.66L129.09 23.69L129.09 23.58L129.19 23.68Q129.72 24.33 130.30 25.43L130.42 25.56L130.66 25.45Z"/><path fill="#222" d="M18.98 19.33L19.02 19.38L19.01 19.36Q19.82 23.56 19.97 27.14L19.92 27.09L20.04 27.21Q21.02 27.16 22.09 27.16L22.16 27.23L24.31 27.18L24.38 27.24Q25.37 27.17 26.24 25.76L26.36 25.87L26.23 25.75Q27.08 24.69 27.20 23.51L27.03 23.35L27.07 23.39Q27.55 20.48 23.32 19.98L23.19 19.85L23.32 19.98Q21.62 19.92 18.99 19.35ZM20.12 30.03L20.08 29.99L20.02 29.93Q20.00 36.19 18.86 40.60L18.83 40.58L18.72 40.47Q17.45 41.06 15.13 42.13L15.07 42.07L15.03 42.04Q17.45 35.43 17.18 28.15L17.22 28.20L17.11 28.08Q16.87 20.76 14.09 14.33L14.07 14.31L14.07 14.31Q18.15 17.02 24.40 17.02L24.52 17.15L24.50 17.12Q30.58 17.15 30.73 20.61L30.59 20.48L30.66 20.55Q30.70 22.95 29.71 25.61L29.73 25.62L29.75 25.65Q29.23 26.65 28.28 27.87L28.35 27.95L28.28 27.87Q27.16 29.68 24.60 29.94L24.48 29.82L24.51 29.85Q22.34 29.97 20.10 30.01ZM26.18 32.20L26.22 32.25L26.17 32.19Q30.25 32.36 31.51 27.56L31.67 27.72L31.48 27.53Q32.52 23.97 32.37 21.95L32.30 21.87L32.29 21.87Q32.20 20.37 31.44 19.38L31.58 19.52L31.49 19.43Q31.08 19.02 30.58 18.79L30.56 18.77L30.65 18.86Q30.60 18.66 30.00 17.90L30.09 17.99L30.10 18.00Q28.55 16.69 24.59 16.69L24.53 16.62L24.60 16.69Q17.63 16.62 13.41 13.46L13.37 13.42L13.44 13.49Q16.48 20.45 16.74 27.91L16.75 27.91L16.92 28.08Q17.12 35.67 14.45 42.75L14.57 42.87L14.51 42.81Q15.52 42.10 16.51 41.72L16.46 41.67L16.19 42.93L16.21 42.95Q16.05 43.54 15.78 44.11L15.74 44.08L15.66 43.99Q18.19 43.06 21.08 42.53L21.08 42.53L21.12 42.56Q21.95 37.03 22.03 32.31L21.98 32.27L21.95 32.24Q23.04 32.15 24.03 32.15L24.00 32.11L23.99 32.11Q25.38 32.17 26.18 32.21ZM25.13 22.17L25.12 22.16L25.20 22.24Q25.64 22.18 26.63 22.41L26.63 22.41L26.67 22.45Q26.87 22.77 26.91 23.08L26.85 23.01L26.84 23.01Q26.99 23.38 26.91 23.65L26.83 23.57L26.83 23.57Q26.76 24.82 26.03 25.70L26.05 25.72L25.90 25.57Q25.40 26.71 24.37 26.90L24.35 26.87L24.29 26.81Q23.57 26.81 21.93 26.81L22.00 26.89L21.99 26.87Q22.01 24.65 21.79 22.29L21.67 22.17L23.55 22.38L23.43 22.26Q24.36 22.35 25.24 22.28Z"/><path fill="#333" d="M46.64 19.68L46.67 19.71L46.62 19.66Q44.66 19.80 43.71 19.95L43.72 19.96L43.77 20.00Q42.12 20.23 40.91 20.76L40.92 20.78L40.86 20.71Q37.29 22.10 37.18 26.78L37.18 26.78L37.21 26.81Q37.15 29.49 37.79 32.42L37.78 32.40L37.86 32.49Q38.67 36.46 42.29 37.64L42.27 37.62L42.19 37.54Q44.28 38.29 45.72 38.14L45.67 38.09L45.99 37.95L46.14 38.10Q46.27 38.04 46.46 38.08L46.36 37.98L46.36 37.98Q46.68 38.14 46.83 38.10L46.72 38.00L46.66 37.94Q49.29 37.67 50.66 37.10L50.77 37.21L47.11 33.59L47.18 33.66Q47.50 33.33 48.11 32.72L48.02 32.64L49.03 31.81L49.00 31.78Q50.79 33.81 52.77 35.86L52.84 35.93L52.80 35.89Q55.08 34.03 55.35 28.66L55.37 28.67L55.37 28.68Q55.54 27.85 55.54 26.94L55.43 26.84L55.54 26.94Q55.50 21.24 50.44 20.13L50.46 20.15L50.51 20.20Q49.06 19.74 46.54 19.58ZM59.34 41.67L59.33 41.66L59.48 41.81Q58.88 42.23 57.70 43.11L57.62 43.03L53.14 39.28L53.23 39.36Q50.69 40.52 46.43 40.56L46.40 40.53L46.43 40.56Q39.96 40.75 37.14 38.50L37.09 38.46L37.10 38.46Q35.40 36.76 34.94 33.79L34.96 33.81L34.82 33.67Q34.67 31.92 34.29 28.34L34.36 28.41L34.32 28.37Q34.21 27.54 34.10 25.79L34.24 25.93L34.27 25.96Q34.02 24.31 34.06 23.43L34.14 23.51L34.10 23.47Q34.08 20.30 35.84 18.74L35.83 18.73L35.96 18.86Q37.45 17.50 40.65 17.00L40.74 17.09L40.68 17.03Q43.13 16.63 46.02 16.70L45.99 16.66L46.02 16.70Q53.54 16.84 56.66 19.20L56.57 19.10L56.66 19.19Q58.89 21.39 58.63 26.30L58.46 26.13L58.59 26.26Q58.44 29.96 58.25 31.29L58.24 31.28L58.22 31.26Q57.61 35.79 55.29 38.11L55.19 38.02L55.14 37.96Q56.72 39.32 59.46 41.79ZM54.57 17.48L54.63 17.54L54.61 17.52Q52.46 16.66 45.95 16.17L45.94 16.16L46.01 16.23Q44.64 16.28 41.87 16.39L41.96 16.49L41.93 16.45Q37.67 16.65 35.43 18.63L35.48 18.69L35.45 18.66Q33.68 20.01 33.68 23.17L33.73 23.22L33.72 23.21Q33.65 23.97 33.80 25.68L33.93 25.81L33.84 25.72Q34.03 27.48 34.03 28.35L34.02 28.34L34.09 28.41Q34.27 30.19 34.65 33.76L34.58 33.70L34.54 33.66Q34.90 36.53 36.50 38.59L36.49 38.57L36.48 38.57Q36.91 39.49 38.13 40.64L37.99 40.50L38.05 40.56Q40.78 42.56 45.95 42.82L46.00 42.87L46.08 42.95Q46.30 42.83 48.70 42.94L48.78 43.02L48.63 42.87Q53.52 43.12 55.80 42.05L55.88 42.13L55.72 41.97Q56.63 42.69 61.35 46.27L61.32 46.24L61.43 46.35Q61.95 45.73 63.25 44.74L63.38 44.87L63.33 44.82Q62.43 44.11 61.63 43.43L61.73 43.52L60.05 42.04L60.10 41.94L60.00 41.83Q59.52 41.47 58.30 40.44L58.37 40.51L58.35 40.49Q60.16 37.88 60.16 33.35L60.18 33.38L60.10 33.29Q60.27 33.04 60.31 32.20L60.27 32.17L60.23 32.13Q60.17 31.19 60.17 30.77L60.26 30.86L60.19 30.79Q60.35 25.43 59.62 23.07L59.48 22.93L59.46 22.90Q59.18 21.71 58.30 20.64L58.25 20.59L58.28 20.63Q57.57 18.58 54.64 17.56ZM48.46 21.96L48.47 21.97L48.59 22.09Q52.58 21.93 54.41 23.52L54.53 23.65L54.44 23.56Q54.96 24.73 55.07 26.06L55.11 26.09L55.10 26.09Q55.10 27.26 55.02 28.63L55.02 28.63L55.17 28.78Q54.78 33.68 52.84 35.39L52.74 35.29L52.78 35.34Q51.55 34.11 49.04 31.37L49.06 31.38L49.05 31.38Q48.24 32.10 46.68 33.66L46.70 33.67L46.60 33.57Q47.18 34.19 48.32 35.37L48.48 35.53L48.23 35.39L48.38 35.54Q48.90 36.03 49.93 37.10L49.82 36.98L49.91 37.07Q48.87 37.29 46.55 37.59L46.52 37.57L46.08 37.66L45.68 37.68L45.59 37.62L45.71 37.74Q42.14 37.64 40.16 36.00L40.28 36.12L40.20 36.04Q39.17 33.95 39.21 30.82L39.24 30.85L39.19 30.81Q39.37 22.12 48.55 22.04Z"/><path fill="#333" d="M70.36 28.71L70.19 28.53L70.19 28.54Q67.46 28.63 66.70 30.87L66.67 30.85L66.77 30.94Q66.44 31.56 66.32 32.21L66.25 32.13L66.28 32.17Q68.92 32.40 70.55 32.40L70.51 32.36L70.63 32.48Q72.25 32.46 74.84 32.34L74.81 32.32L74.81 32.32Q74.62 30.54 73.22 29.47L73.22 29.47L73.32 29.58Q72.04 28.60 70.26 28.60ZM70.33 41.16L70.34 41.17L70.41 41.24Q66.19 41.25 64.89 39.84L64.82 39.77L64.77 39.71Q63.92 38.37 63.76 35.09L63.78 35.10L63.75 35.08Q63.66 34.76 63.58 33.39L63.71 33.52L63.74 33.55Q63.40 31.04 63.40 30.31L63.55 30.46L63.47 30.39Q63.39 28.44 64.12 27.34L64.26 27.48L64.30 27.52Q65.56 25.96 68.53 25.96L68.68 26.11L70.23 26.10L70.24 26.11Q72.24 26.06 73.77 26.37L73.65 26.25L73.66 26.26Q75.81 26.81 76.80 28.03L76.78 28.00L76.75 27.98Q77.40 29.08 77.47 31.18L77.58 31.28L77.44 31.15Q77.53 32.37 77.57 34.54L77.55 34.53L77.45 34.43Q74.62 34.49 71.84 34.49L71.85 34.50L66.36 34.60L66.29 34.54Q66.51 39.02 70.58 38.79L70.44 38.64L70.47 38.67Q74.31 38.56 75.53 36.73L75.42 36.62L75.40 36.61Q76.42 37.28 78.02 38.46L77.91 38.35L78.00 38.44Q76.52 40.73 72.37 40.99L72.44 41.06L72.50 41.13Q71.71 41.10 70.34 41.17ZM72.66 43.54L72.59 43.46L72.65 43.52Q73.69 43.42 74.91 43.50L74.99 43.57L75.00 43.59Q80.03 43.82 80.94 41.04L80.80 40.90L80.85 40.95Q79.29 39.77 78.19 39.01L78.12 38.95L78.16 38.98Q78.37 38.62 78.56 38.39L78.49 38.33L78.53 38.36Q77.73 37.83 76.36 36.87L76.42 36.94L76.46 36.97Q77.47 36.96 79.53 37.27L79.52 37.26L79.43 37.17Q79.27 35.83 79.19 35.14L79.38 35.33L79.18 33.34L79.13 33.29Q78.97 30.92 78.32 29.44L78.36 29.47L78.28 29.39Q78.08 29.12 77.51 28.51L77.57 28.57L77.59 28.59Q77.29 28.14 77.06 27.57L77.19 27.69L77.09 27.60Q75.26 25.61 70.20 25.61L70.15 25.56L68.43 25.52L68.46 25.55Q65.25 25.57 63.80 27.06L63.83 27.09L63.89 27.15Q63.20 28.25 63.24 30.31L63.21 30.27L63.25 30.31Q63.29 31.27 63.40 33.51L63.28 33.39L63.39 33.50Q63.41 35.04 63.52 37.10L63.62 37.19L63.59 37.17Q63.81 39.36 64.68 40.43L64.66 40.40L64.67 40.41Q64.86 40.60 65.05 40.72L64.95 40.62L65.24 41.25L65.22 41.23Q66.04 43.12 72.62 43.50ZM70.44 38.23L70.44 38.23L70.59 38.38Q69.40 38.45 68.49 37.99L68.37 37.87L68.40 37.91Q68.36 37.52 68.17 36.83L68.27 36.93L68.31 36.97Q69.88 36.75 71.48 36.75L71.46 36.73L71.49 36.77Q73.15 36.75 74.83 36.87L74.91 36.95L74.83 36.87Q73.54 38.20 70.53 38.32ZM72.11 30.91L72.22 31.02L72.11 30.91Q72.76 30.95 74.09 31.33L74.17 31.42L74.21 31.64L74.28 31.91L74.32 31.94Q72.89 32.00 71.98 31.97L72.04 32.03L72.02 32.00Q69.72 31.95 69.68 31.95L69.83 32.10L69.78 32.05Q70.42 31.01 72.09 30.89Z"/><path fill="#222" d="M102.29 28.60L102.28 28.60L96.54 28.83L96.40 28.70Q93.62 28.88 90.69 28.81L90.67 28.78L90.57 28.69Q90.73 35.43 88.67 40.95L88.65 40.92L88.73 41.00Q86.77 41.37 85.02 42.06L85.17 42.21L85.05 42.08Q87.78 36.33 87.78 29.67L87.91 29.79L87.90 29.78Q87.83 21.22 83.72 14.18L83.68 14.14L83.78 14.24Q85.19 14.93 87.67 15.73L87.86 15.92L87.81 15.87Q89.86 20.86 90.40 25.73L90.34 25.67L90.48 25.81Q93.60 26.16 96.46 26.12L96.43 26.09L96.54 26.21Q99.12 26.12 102.43 25.85L102.52 25.95L102.54 25.96Q102.86 21.41 104.61 16.31L104.63 16.32L104.62 16.32Q106.54 15.87 108.78 15.03L108.95 15.20L108.80 15.06Q105.23 21.84 105.23 29.79L105.28 29.84L105.33 29.89Q105.32 36.09 107.68 41.42L107.53 41.27L107.68 41.41Q106.01 40.74 103.96 40.44L103.95 40.42L103.86 40.34Q102.20 35.33 102.31 28.63ZM103.58 40.67L103.67 40.76L103.58 40.66Q104.77 40.98 105.88 41.25L105.86 41.23L105.75 41.12Q106.17 41.93 106.82 43.41L106.75 43.35L106.82 43.42Q110.20 44.39 111.99 45.30L111.95 45.27L111.86 45.18Q107.45 39.05 107.14 30.79L107.18 30.83L107.14 30.79Q106.83 22.75 110.49 15.94L110.48 15.93L109.39 16.36L109.43 16.41Q108.95 16.65 108.34 16.80L108.42 16.88L108.33 16.79Q108.81 16.05 109.65 14.49L109.60 14.44L109.55 14.39Q107.02 15.55 104.39 16.05L104.28 15.94L104.29 15.94Q102.70 20.87 102.25 25.55L102.28 25.59L102.21 25.52Q99.77 25.78 97.34 25.78L97.20 25.64L97.19 25.63Q94.94 25.78 92.42 25.63L92.35 25.56L92.34 25.55Q92.14 22.30 91.04 18.23L91.12 18.31L91.01 18.20Q90.30 18.06 88.85 17.68L88.86 17.68L88.92 17.74Q88.49 16.48 88.03 15.45L88.02 15.44L87.98 15.40Q85.25 14.65 82.97 13.39L83.04 13.47L82.97 13.40Q87.70 20.98 87.70 29.77L87.66 29.73L87.58 29.66Q87.66 36.70 84.54 42.83L84.57 42.86L84.39 42.68Q85.23 42.53 86.56 41.96L86.58 41.97L86.45 41.85Q86.20 42.78 85.40 44.30L85.42 44.32L85.50 44.40Q88.16 43.26 90.41 42.84L90.40 42.83L90.44 42.87Q92.37 37.37 92.56 31.21L92.58 31.23L92.44 31.09Q94.13 31.11 97.33 31.07L97.38 31.11L97.33 31.07Q100.26 31.10 102.16 31.18L102.05 31.07L102.13 31.15Q102.43 36.93 103.76 40.85Z"/></svg>