<svg xmlns="http://www.w3.org/2000/svg" width="150" height="50" viewBox="0,0,150,50"><path fill="#444" d="M118.27 26.75L118.25 26.73L118.44 26.92Q120.07 26.91 121.89 26.91L121.96 26.98L121.92 26.93Q123.75 26.98 125.58 26.83L125.65 26.90L125.66 26.91Q125.55 27.56 125.55 28.29L125.47 28.20L125.44 29.51L125.39 29.45Q123.20 29.63 118.44 29.74L118.27 29.57L118.27 29.56Q118.25 35.49 117.11 40.47L117.20 40.57L117.16 40.53Q115.06 41.32 113.57 42.12L113.60 42.14L113.55 42.10Q115.80 35.20 115.53 28.09L115.63 28.19L115.52 28.08Q115.34 21.01 112.68 14.35L112.67 14.33L112.65 14.32Q116.35 16.88 121.11 17.10L121.17 17.17L121.11 17.11Q125.64 17.14 129.79 15.39L129.81 15.41L129.82 15.43Q129.56 16.26 129.33 17.06L129.34 17.07L128.84 18.66L128.95 18.78Q126.28 19.91 123.31 20.06L123.26 20.02L123.27 20.03Q120.23 20.07 117.38 19.35L117.41 19.38L117.50 19.47Q118.08 22.75 118.27 26.75ZM130.55 14.82L130.61 14.88L130.43 14.70Q125.82 16.83 120.95 16.53L120.96 16.53L121.00 16.58Q115.73 16.33 112.00 13.47L112.05 13.53L112.02 13.49Q114.95 20.50 115.25 28.11L115.09 27.95L115.13 27.99Q115.47 35.94 112.96 42.72L112.93 42.69L113.04 42.80Q113.75 42.44 115.12 41.80L115.10 41.78L115.03 41.70Q114.88 42.51 114.31 44.04L114.21 43.93L114.33 44.05Q116.52 42.86 119.41 42.36L119.53 42.47L119.48 42.43Q120.07 37.53 120.26 31.82L120.32 31.88L120.25 31.82Q122.04 31.78 123.87 31.78L123.97 31.88L123.83 31.74Q125.77 31.89 127.60 32.09L127.51 32.00L127.53 32.01Q127.33 30.98 127.33 30.06L127.34 30.07L127.47 28.30L127.46 28.29Q126.63 28.33 125.79 28.33L125.80 28.34L125.89 28.43Q125.91 27.57 125.98 26.55L125.82 26.38L125.92 26.48Q124.47 26.59 123.06 26.59L123.01 26.54L123.20 26.73Q121.78 26.72 120.41 26.68L120.26 26.53L120.23 24.37L120.21 24.35Q120.28 23.36 120.17 22.29L120.05 22.17L120.17 22.29Q121.06 22.27 122.05 22.27L122.17 22.39L122.14 22.36Q126.84 22.30 130.46 20.40L130.51 20.45L130.44 20.39Q130.98 18.60 131.89 15.97L131.90 15.98L131.86 15.94Q130.50 16.72 129.71 17.06L129.76 17.11L129.84 17.19Q129.95 16.28 130.45 14.72Z"/><path fill="#222" d="M25.95 29.45L25.90 29.39L26.09 29.59Q24.90 28.81 24.25 28.85L24.22 28.82L24.14 28.74Q22.71 28.76 21.67 29.76L21.80 29.90L21.71 29.81Q20.64 30.79 20.75 32.16L20.85 32.27L20.83 32.25Q21.05 36.49 20.17 41.02L20.22 41.07L20.28 41.13Q17.97 41.48 16.86 42.02L16.96 42.11L16.98 42.14Q18.52 38.00 18.29 33.54L18.24 33.49L18.22 33.48Q17.89 28.89 16.18 24.81L16.31 24.94L16.23 24.86Q17.39 25.57 19.68 26.22L19.63 26.17L20.30 28.97L20.15 28.82Q20.89 25.98 25.15 25.98L25.28 26.11L25.22 26.05Q25.55 25.92 25.85 25.92L25.92 25.99L25.90 25.97Q27.21 25.98 28.46 26.66L28.37 26.57L28.36 26.56Q27.16 28.02 26.02 29.51ZM27.69 31.56L27.74 31.46L27.78 31.50Q28.65 30.32 30.33 27.88L30.27 27.82L30.24 27.79Q29.71 27.38 28.19 27.12L28.35 27.28L28.22 27.15Q28.62 26.90 29.08 26.29L29.16 26.38L29.03 26.24Q27.10 25.30 25.16 25.49L25.26 25.60L25.19 25.53Q23.21 25.67 22.48 25.94L22.52 25.98L22.59 26.04Q21.09 26.37 20.29 27.47L20.39 27.57L20.23 26.77L20.03 25.92L19.96 25.85Q17.61 25.48 15.63 24.15L15.64 24.15L15.67 24.18Q17.80 28.57 18.03 33.44L17.87 33.28L17.88 33.29Q18.20 38.29 16.45 42.82L16.48 42.86L16.54 42.91Q17.58 42.40 18.46 42.09L18.40 42.03L18.36 41.99Q18.08 43.08 17.58 44.14L17.61 44.18L17.57 44.14Q20.53 43.40 22.66 43.28L22.71 43.33L22.80 38.71L22.78 38.68Q22.98 36.52 22.98 34.28L22.97 34.27L22.85 34.15Q22.85 32.97 23.76 32.00L23.88 32.12L23.82 32.05Q24.80 31.15 25.95 31.08L25.79 30.92L25.80 30.93Q26.45 30.82 27.18 31.51L27.16 31.49L27.53 31.41ZM22.51 29.58L22.55 29.55L22.65 29.76L22.62 29.69Z"/><path fill="#444" d="M71.13 41.05L71.16 41.08L69.53 41.16L69.47 41.11Q66.14 41.16 65.19 39.03L65.21 39.05L65.14 38.98Q66.29 37.93 67.74 36.82L67.75 36.83L67.71 36.79Q68.29 38.97 71.14 38.82L71.21 38.89L71.31 38.98Q72.08 38.91 73.11 38.69L72.98 38.56L72.95 38.53Q74.00 38.14 73.93 37.18L73.87 37.12L73.86 37.12Q73.77 36.00 71.98 35.32L72.04 35.38L68.31 33.93L68.23 33.85Q65.81 32.42 65.47 28.88L65.57 28.98L65.51 28.92Q65.36 26.83 67.53 26.26L67.60 26.33L67.48 26.21Q68.45 26.00 71.42 26.00L71.54 26.12L71.43 26.01Q76.34 26.05 77.26 28.56L77.20 28.50L77.30 28.60Q76.58 29.06 75.85 29.52L75.81 29.47L74.50 30.52L74.46 30.49Q74.02 28.63 70.78 28.40L70.64 28.26L70.66 28.29Q70.19 28.42 69.16 28.84L69.15 28.83L69.03 28.71Q68.51 29.10 68.51 30.21L68.56 30.26L68.46 30.16Q68.88 31.30 70.70 31.98L70.68 31.96L70.75 32.03Q71.81 32.40 74.47 33.50L74.49 33.53L74.53 33.56Q76.30 34.34 76.49 36.89L76.47 36.87L76.38 36.78Q76.51 37.48 76.43 38.47L76.47 38.51L76.38 38.42Q76.39 39.34 75.82 39.99L75.79 39.96L75.83 40.00Q74.19 41.06 71.14 41.06ZM76.02 43.77L75.89 43.64L75.96 43.71Q76.96 43.84 78.34 43.54L78.34 43.54L78.29 43.49Q79.33 42.77 79.14 41.56L79.23 41.65L79.17 41.59Q79.09 41.02 78.79 39.42L78.80 39.43L78.72 39.35Q78.29 36.52 76.50 35.31L76.44 35.25L76.45 35.26Q76.00 33.93 74.75 33.21L74.69 33.15L74.73 33.20Q73.42 32.72 70.95 31.77L70.93 31.75L70.93 31.75Q70.97 31.18 71.24 31.07L71.38 31.21L71.36 31.19Q72.01 30.77 72.65 30.74L72.63 30.71L72.59 30.68Q73.45 30.69 74.21 30.96L74.21 30.96L74.23 31.05L74.34 31.05L74.48 31.00L74.43 30.99L74.42 30.98Q75.59 31.54 75.78 32.80L75.84 32.85L75.82 32.83Q77.05 31.97 78.95 30.30L79.03 30.38L78.98 30.32Q78.67 29.56 77.68 28.38L77.73 28.43L77.79 28.48Q76.55 25.68 71.44 25.57L71.54 25.66L71.52 25.64Q68.21 25.46 66.24 26.03L66.21 26.01L66.21 26.01Q64.93 26.70 65.16 28.79L65.17 28.81L65.19 28.83Q65.25 30.03 66.16 32.12L66.22 32.18L66.25 32.21Q66.62 33.15 67.64 33.87L67.73 33.95L67.69 33.92Q68.46 35.49 69.75 36.17L69.76 36.18L69.60 36.02Q70.71 36.45 71.66 36.83L71.70 36.86L73.59 37.61L73.52 37.54Q73.16 38.63 71.22 38.51L71.22 38.51L71.22 38.51Q70.87 38.66 69.65 38.35L69.57 38.27L69.50 38.05L69.40 38.18L69.47 38.25Q68.60 37.87 67.95 36.38L67.94 36.37L67.85 36.29Q65.68 37.81 64.58 38.95L64.72 39.10L64.74 39.12Q64.92 39.90 65.94 40.70L66.01 40.76L65.73 40.79L65.73 40.79Q67.32 43.07 71.55 43.45L71.51 43.41L71.40 43.30Q72.83 43.58 76.06 43.81Z"/><path fill="#444" d="M46.36 29.13L46.29 29.06L46.30 29.07Q44.61 29.09 43.37 30.51L43.19 30.34L43.34 30.48Q42.03 31.84 41.84 33.75L41.79 33.69L41.78 33.68Q41.67 35.86 42.76 36.83L42.75 36.82L42.68 36.76Q43.70 37.66 45.80 37.55L45.84 37.59L45.84 37.59Q48.04 37.54 49.14 36.86L49.16 36.87L49.04 36.75Q50.32 35.79 50.32 34.23L50.28 34.19L50.26 34.17Q50.25 33.78 50.17 33.40L50.10 33.33L50.24 33.46Q50.18 31.65 49.08 30.30L49.13 30.35L49.06 30.29Q47.98 28.96 46.30 29.07ZM45.94 40.24L45.88 40.19L45.98 40.28Q41.60 40.27 40.19 39.51L40.22 39.55L40.06 39.38Q39.12 38.71 38.93 37.00L38.99 37.06L38.85 36.92Q38.97 36.40 39.01 35.67L38.83 35.49L38.98 35.64Q39.00 34.56 39.00 34.10L39.00 34.10L39.11 34.21Q39.47 31.26 39.63 30.58L39.66 30.61L39.66 30.61Q40.14 28.69 40.98 27.28L40.87 27.17L40.87 27.18Q43.59 22.86 49.53 16.50L49.51 16.47L49.52 16.49Q52.20 16.20 54.41 15.40L54.49 15.49L54.34 15.33Q47.51 22.82 44.31 27.04L44.27 27.00L44.38 27.11Q45.39 26.63 46.68 26.63L46.73 26.68L46.57 26.52Q49.87 26.50 51.39 28.44L51.51 28.56L51.43 28.49Q52.86 30.22 53.20 33.76L53.15 33.71L53.07 33.63Q53.27 34.48 53.27 35.09L53.22 35.04L53.16 34.98Q53.32 38.26 51.11 39.32L50.93 39.14L50.99 39.20Q49.73 39.76 45.84 40.14ZM48.20 42.62L48.24 42.66L48.20 42.61Q49.59 42.68 51.57 42.75L51.40 42.58L51.50 42.68Q53.06 42.68 54.62 41.96L54.63 41.96L54.77 42.10Q55.83 41.26 55.83 39.48L55.73 39.37L55.82 39.47Q55.80 38.95 55.63 37.96L55.55 37.88L55.57 37.90Q55.48 36.99 55.48 36.53L55.36 36.41L55.50 36.55Q54.59 31.80 52.99 29.89L52.92 29.83L53.04 29.95Q52.99 29.86 52.84 29.63L52.68 29.47L52.45 29.31L52.44 29.34L52.35 29.25Q52.08 28.83 51.47 27.88L51.48 27.88L51.42 27.83Q50.41 26.78 48.43 26.33L48.60 26.49L48.61 26.50Q49.81 24.89 52.78 21.19L52.72 21.14L56.86 15.76L56.94 15.84Q55.34 16.67 52.94 17.43L53.02 17.52L52.97 17.47Q53.91 16.50 55.70 14.52L55.62 14.45L55.66 14.48Q53.29 15.58 49.41 16.15L49.30 16.04L49.42 16.16Q43.72 22.07 40.75 27.02L40.64 26.91L40.81 27.07Q39.12 29.42 38.55 35.67L38.67 35.78L38.59 35.71Q38.59 36.35 38.66 37.31L38.71 37.36L38.64 37.28Q38.76 39.08 39.87 39.99L39.88 40.00L39.80 39.93Q40.22 40.12 40.19 40.16L40.08 40.05L40.16 40.13Q40.47 40.98 41.27 41.40L41.27 41.40L41.41 41.54Q42.70 42.07 44.65 42.26L44.70 42.31L44.73 42.34Q44.67 42.29 48.18 42.59ZM47.97 31.38L47.89 31.30L47.95 31.36Q48.60 31.33 49.56 31.83L49.50 31.77L49.55 31.82Q49.88 32.76 49.88 33.41L49.80 33.33L49.88 33.41Q50.01 35.21 49.06 36.20L49.07 36.22L49.15 36.30Q48.03 36.96 45.93 37.27L46.02 37.35L45.93 37.26Q44.41 37.19 43.88 36.92L43.99 37.04L43.99 37.04Q43.67 36.45 43.67 36.15L43.69 36.16L43.85 36.32Q43.53 32.96 46.46 31.67L46.55 31.75L46.37 31.58Q47.22 31.32 47.98 31.40Z"/><path fill="#444" d="M91.79 32.91L91.89 33.01L91.82 32.94Q94.86 32.52 98.06 32.64L98.03 32.61L98.14 32.71Q98.04 30.10 98.04 27.70L98.01 27.68L97.98 27.64Q98.17 25.36 98.36 22.81L98.26 22.71L98.32 22.77Q97.11 24.49 91.90 33.02ZM101.68 40.25L101.72 40.29L101.73 40.31Q100.00 39.95 98.21 39.87L98.29 39.94L98.25 39.91Q98.11 37.60 98.00 35.13L98.01 35.13L97.87 34.99Q92.64 34.91 87.92 36.32L87.92 36.31L87.92 36.32Q88.08 35.86 88.27 34.87L88.18 34.79L88.21 34.81Q90.01 31.67 93.59 25.39L93.59 25.39L93.67 25.47Q96.47 20.50 99.90 16.62L99.82 16.54L99.83 16.55Q100.85 16.50 102.52 16.24L102.38 16.10L102.38 16.10Q100.59 22.64 100.59 29.69L100.64 29.73L100.58 29.67Q100.53 31.11 100.61 32.59L100.68 32.67L101.91 32.72L101.92 32.72Q102.58 32.82 103.19 32.93L103.11 32.85L103.04 32.78Q103.23 33.84 103.50 35.79L103.50 35.79L103.48 35.77Q102.27 35.52 100.79 35.33L100.83 35.36L100.82 35.35Q101.10 37.43 101.79 40.36ZM103.43 32.52L103.50 32.60L103.37 32.46Q103.16 32.36 102.97 32.36L102.98 32.38L102.69 32.47L102.59 32.37Q102.46 30.87 102.46 29.46L102.48 29.48L102.59 29.59Q102.55 23.16 104.61 17.14L104.52 17.05L104.59 17.12Q103.87 17.43 102.42 17.81L102.34 17.73L102.39 17.78Q102.68 17.08 103.14 15.67L103.15 15.69L103.01 15.54Q101.69 15.90 99.63 16.13L99.72 16.21L99.73 16.22Q95.72 20.47 90.50 29.83L90.65 29.99L92.74 26.33L92.65 26.23Q92.20 27.23 91.94 27.81L92.03 27.90L87.50 36.85L87.60 36.94Q88.14 36.69 89.28 36.31L89.28 36.31L89.15 36.56L89.15 36.56Q89.02 37.23 88.72 38.49L88.68 38.45L88.75 38.52Q92.87 37.19 97.70 37.38L97.63 37.30L97.64 37.31Q97.65 38.24 97.84 40.22L97.94 40.32L97.89 40.27Q99.03 40.34 100.09 40.45L100.00 40.36L100.00 40.36Q100.11 41.01 100.38 42.38L100.54 42.54L100.54 42.54Q102.32 42.65 105.33 43.56L105.40 43.63L105.36 43.59Q104.48 41.57 103.57 38.29L103.51 38.24L105.00 38.74L104.97 38.71Q105.58 38.86 106.26 39.20L106.36 39.30L106.23 39.17Q105.44 36.67 105.29 34.99L105.26 34.96L105.34 35.04Q104.78 34.91 103.64 34.68L103.59 34.63L103.66 34.70Q103.43 33.40 103.43 32.53ZM95.41 32.34L95.42 32.36L95.35 32.29Q96.22 31.10 97.78 28.55L97.67 28.44L97.74 28.51Q97.82 29.54 97.78 30.49L97.71 30.42L97.76 30.47Q97.64 31.34 97.68 32.30L97.78 32.39L97.74 32.36Q97.16 32.31 96.59 32.31L96.60 32.32L96.63 32.35Q96.10 32.43 95.49 32.43Z"/></svg>