<svg xmlns="http://www.w3.org/2000/svg" width="150" height="50" viewBox="0,0,150,50"><path fill="#111" d="M122.01 40.20L121.95 40.14L122.03 40.22Q120.10 40.08 118.43 40.65L118.55 40.77L118.56 40.78Q119.04 37.11 119.15 33.99L119.12 33.95L119.19 34.03Q119.19 30.87 118.96 27.21L119.05 27.31L119.03 27.28Q117.54 26.82 116.78 26.44L116.80 26.47L116.51 23.55L116.44 23.47Q117.21 24.13 118.81 24.70L118.81 24.71L118.84 24.73Q118.59 22.58 118.17 19.84L118.18 19.85L118.22 19.89Q120.50 20.57 122.14 20.42L122.16 20.44L122.06 25.06L122.01 25.01Q123.36 24.87 124.69 24.38L124.65 24.34L124.71 24.40Q124.59 25.23 124.37 26.98L124.39 27.01L124.39 27.01Q122.83 27.32 121.80 27.32L121.90 27.42L121.79 27.30Q121.81 29.49 121.81 33.76L121.88 33.82L121.83 33.78Q121.84 37.93 121.91 40.10ZM125.16 23.86L125.18 23.88L125.10 23.79Q124.89 23.97 124.28 24.20L124.31 24.23L124.61 21.37L124.53 21.29Q123.87 21.73 122.46 21.96L122.36 21.86L122.38 21.87Q122.48 21.30 122.64 19.93L122.63 19.92L122.55 19.84Q122.05 20.02 121.48 20.02L121.33 19.87L121.49 20.03Q119.27 19.95 117.64 19.23L117.65 19.24L117.62 19.21Q118.02 21.59 118.29 24.06L118.39 24.17L118.35 24.13Q117.57 23.88 116.05 22.85L116.08 22.89L115.91 22.71Q116.34 24.10 116.57 26.80L116.47 26.71L116.62 26.85Q117.09 27.09 118.27 27.51L118.12 27.36L118.20 27.45Q118.14 27.99 118.18 29.40L118.22 29.45L118.58 29.46L118.79 29.59L118.72 29.52Q118.78 30.76 118.78 31.94L118.81 31.97L118.85 32.01Q118.75 36.86 117.95 41.20L117.99 41.24L117.93 41.18Q118.24 41.19 120.18 40.65L120.07 40.54L120.16 40.63Q120.19 41.31 120.07 42.68L120.12 42.72L120.11 42.71Q120.80 42.53 121.60 42.53L121.69 42.62L121.63 42.56Q123.38 42.60 125.02 43.17L125.06 43.21L125.07 43.22Q123.65 37.42 123.84 29.50L123.87 29.53L126.27 29.16L126.30 29.19Q126.33 28.23 126.41 27.20L126.32 27.11L126.70 25.28L126.59 25.17Q126.03 25.45 124.85 25.91L124.91 25.96L124.78 25.84Q125.08 24.50 125.01 24.16L125.17 24.33L125.04 24.19Q125.11 24.08 125.19 23.89Z"/><path fill="#444" d="M18.94 30.62L19.05 30.73L19.04 30.72Q18.87 30.55 22.26 30.51L22.32 30.58L22.37 30.62Q24.62 30.59 25.68 30.62L25.60 30.54L25.67 30.61Q24.59 27.70 22.15 22.07L22.21 22.13L22.17 22.09Q21.56 23.46 20.52 26.31L20.64 26.44L20.58 26.38Q19.53 29.23 18.96 30.64ZM26.76 33.07L26.85 33.16L26.87 33.18Q24.43 32.99 22.23 33.03L22.24 33.05L22.35 33.15Q19.97 33.06 17.69 33.25L17.70 33.27L17.73 33.29Q16.27 36.78 13.04 40.97L13.08 41.02L13.03 40.96Q10.48 41.61 9.11 42.11L9.06 42.06L9.11 42.11Q14.14 36.37 18.82 23.00L18.97 23.15L18.81 22.98Q20.03 19.53 21.40 16.29L21.46 16.35L21.54 16.43Q21.89 16.47 22.23 16.47L22.19 16.43L22.84 16.36L22.95 16.47Q23.56 17.69 28.39 29.33L28.45 29.39L28.47 29.41Q31.66 37.17 35.66 41.32L35.72 41.38L35.71 41.37Q35.17 41.21 31.28 40.33L31.32 40.37L31.36 40.41Q28.82 37.30 26.84 33.15ZM31.35 40.82L31.32 40.79L31.73 40.71L31.78 40.75Q32.15 40.90 32.46 41.02L32.45 41.01L32.49 41.04Q32.79 41.38 34.61 43.40L34.56 43.34L34.51 43.29Q38.18 44.22 40.57 45.25L40.55 45.22L40.56 45.23Q35.19 40.81 31.19 32.82L31.17 32.80L31.04 32.67Q29.42 29.38 27.98 25.42L27.98 25.42L25.29 17.97L25.19 17.88Q25.10 18.12 24.87 18.12L24.83 18.08L24.29 18.08L24.30 18.08Q23.78 17.27 23.06 15.90L23.18 16.02L23.21 16.04Q22.74 16.11 22.29 16.07L22.22 16.00L22.16 15.94Q21.64 15.84 21.10 15.84L21.22 15.96L21.14 15.88Q19.80 19.86 15.91 30.03L15.87 29.98L15.90 30.01Q12.75 37.95 8.11 42.74L8.22 42.85L8.06 42.69Q9.25 42.43 11.26 41.83L11.26 41.82L11.11 41.67Q10.49 42.69 8.93 44.48L8.86 44.41L8.83 44.38Q10.49 43.68 14.41 42.91L14.53 43.03L14.46 42.97Q17.87 38.60 19.43 35.37L19.40 35.34L19.51 35.46Q21.25 35.33 23.57 35.37L23.63 35.42L23.47 35.26Q26.22 35.31 27.59 35.39L27.63 35.42L27.64 35.44Q28.84 37.74 31.21 40.68ZM23.45 25.96L23.61 26.11L23.56 26.07Q24.43 28.16 25.20 30.25L25.12 30.17L21.93 30.30L21.79 30.16Q22.37 28.71 23.43 25.94Z"/><path fill="#222" d="M42.50 32.96L42.56 33.02L42.54 33.00Q45.50 32.49 48.70 32.61L48.86 32.77L48.87 32.77Q48.79 30.18 48.79 27.79L48.78 27.78L48.84 27.84Q48.80 25.32 48.99 22.77L48.95 22.73L48.99 22.77Q47.80 24.51 42.58 33.04ZM52.37 40.28L52.37 40.28L52.49 40.39Q50.78 40.06 48.99 39.98L48.87 39.86L49.03 40.02Q48.75 37.57 48.64 35.10L48.64 35.10L48.59 35.04Q43.34 34.94 38.62 36.35L38.63 36.36L38.63 36.36Q38.60 35.71 38.79 34.72L38.88 34.82L38.87 34.80Q40.69 31.68 44.27 25.40L44.22 25.35L44.16 25.29Q47.14 20.51 50.57 16.62L50.63 16.68L50.48 16.53Q51.42 16.41 53.09 16.14L53.07 16.11L53.05 16.10Q51.29 22.67 51.29 29.72L51.13 29.55L51.12 29.55Q51.25 31.16 51.32 32.64L51.27 32.59L52.60 32.74L52.64 32.78Q53.19 32.76 53.80 32.87L53.73 32.81L53.82 32.90Q53.93 33.88 54.20 35.82L54.26 35.89L54.09 35.72Q52.99 35.57 51.51 35.38L51.48 35.35L51.44 35.31Q51.72 37.38 52.40 40.31ZM54.00 32.43L54.14 32.57L54.14 32.56Q53.94 32.48 53.75 32.48L53.77 32.50L53.24 32.35L53.34 32.46Q53.27 31.01 53.27 29.60L53.19 29.52L53.23 29.56Q53.28 23.22 55.34 17.20L55.34 17.20L55.16 17.03Q54.56 17.46 53.12 17.84L53.10 17.82L53.00 17.72Q53.22 16.95 53.67 15.54L53.78 15.64L53.79 15.66Q52.45 15.99 50.39 16.22L50.45 16.28L50.35 16.18Q46.52 20.60 41.30 29.97L41.32 29.99L43.43 26.35L43.39 26.30Q42.87 27.23 42.60 27.81L42.55 27.76L38.23 36.91L38.27 36.95Q38.78 36.66 39.92 36.28L40.03 36.38L39.88 36.62L39.91 36.64Q39.82 37.35 39.51 38.61L39.51 38.61L39.33 38.43Q43.49 37.14 48.32 37.33L48.42 37.43L48.27 37.28Q48.45 38.37 48.64 40.35L48.59 40.30L48.66 40.37Q49.68 40.33 50.75 40.44L50.64 40.34L50.77 40.46Q50.80 41.03 51.07 42.40L51.04 42.38L51.20 42.53Q53.02 42.68 56.03 43.59L56.11 43.68L55.97 43.53Q54.98 41.40 54.07 38.13L54.24 38.30L55.69 38.77L55.58 38.66Q56.25 38.87 56.94 39.21L56.93 39.20L56.97 39.24Q56.26 36.82 56.11 35.15L56.09 35.13L56.00 35.04Q55.44 34.89 54.30 34.67L54.37 34.73L54.35 34.72Q54.11 33.42 54.11 32.54ZM46.10 32.36L46.14 32.41L45.99 32.26Q46.87 31.08 48.43 28.53L48.47 28.57L48.47 28.57Q48.40 29.45 48.36 30.41L48.40 30.44L48.43 30.48Q48.41 31.45 48.45 32.40L48.47 32.42L48.38 32.33Q47.90 32.38 47.33 32.38L47.28 32.33L47.32 32.37Q46.75 32.41 46.15 32.41Z"/><path fill="#444" d="M64.30 41.02L64.39 41.10L64.44 41.16Q67.62 36.91 74.32 28.99L74.17 28.85L74.28 28.96Q68.44 29.25 64.67 27.88L64.49 27.69L64.56 27.76Q63.93 26.37 63.17 24.97L63.22 25.01L63.04 24.83Q67.28 26.48 71.73 26.52L71.64 26.43L71.69 26.48Q76.08 26.45 80.27 25.39L80.33 25.45L80.36 25.48Q79.97 26.16 79.71 26.69L79.66 26.65L79.56 26.55Q77.13 28.87 74.31 32.49L74.39 32.57L69.37 38.66L69.47 38.76Q71.74 38.60 73.99 38.68L73.99 38.67L73.81 38.49Q76.09 38.64 78.34 39.02L78.41 39.10L78.30 38.99Q78.39 39.54 79.11 41.55L79.14 41.58L79.17 41.61Q75.54 40.88 71.55 40.99L71.40 40.84L71.42 40.86Q67.54 41.06 63.89 42.24L63.80 42.15L63.87 42.22Q63.86 41.98 64.32 41.03ZM63.25 42.78L63.31 42.84L63.37 42.91Q64.02 42.45 65.62 42.03L65.71 42.13L65.74 42.15Q65.38 42.25 64.96 42.67L64.96 42.67L65.03 42.73Q64.84 43.34 64.23 44.48L64.08 44.34L64.21 44.47Q68.89 43.09 73.87 43.24L73.88 43.25L73.86 43.23Q78.82 43.39 83.38 45.25L83.36 45.23L83.36 45.23Q81.89 43.34 80.98 41.28L81.01 41.32L81.12 41.43Q80.22 40.99 79.16 40.76L79.29 40.89L79.27 40.87Q79.08 40.15 78.70 38.70L78.54 38.54L78.71 38.71Q77.13 38.35 73.55 38.23L73.45 38.14L73.57 38.26Q75.83 34.80 80.85 28.45L80.89 28.48L80.90 28.50Q81.10 27.70 81.78 26.37L81.77 26.35L79.48 27.11L79.63 27.26Q79.69 27.17 79.84 27.05L79.82 27.04L79.95 26.78L79.90 26.73Q80.36 25.67 80.93 24.71L80.93 24.72L81.01 24.80Q76.46 26.26 71.74 26.19L71.56 26.01L71.65 26.10Q66.89 26.06 62.40 24.23L62.28 24.11L62.36 24.19Q63.50 26.02 64.30 28.08L64.32 28.10L64.35 28.12Q65.21 28.45 66.28 28.72L66.34 28.78L66.25 28.69Q66.53 29.46 66.83 30.91L66.72 30.79L66.69 30.77Q68.42 31.16 71.73 31.31L71.59 31.17L71.74 31.32Q69.22 34.52 64.04 40.95L64.15 41.06L64.01 40.92Q63.81 41.56 63.24 42.78Z"/><path fill="#333" d="M100.00 30.94L99.97 30.91L99.95 30.89Q99.89 29.72 97.94 29.00L97.93 28.98L97.98 29.03Q97.45 28.81 96.92 28.81L96.81 28.71L96.96 28.85Q95.48 28.74 94.41 29.31L94.46 29.36L94.44 29.34Q93.13 30.12 93.24 31.34L93.28 31.38L93.28 31.37Q93.61 34.18 93.46 36.43L93.36 36.33L93.33 36.30Q93.16 38.72 92.44 41.24L92.48 41.28L92.58 41.38Q90.42 41.84 89.24 42.26L89.13 42.15L89.13 42.15Q90.71 38.51 90.71 34.52L90.86 34.67L90.72 34.53Q90.76 29.12 88.17 24.67L88.21 24.71L88.21 24.71Q89.33 25.10 91.72 25.82L91.73 25.83L91.85 25.95Q92.10 26.62 92.48 28.14L92.60 28.26L92.51 28.17Q93.88 26.11 97.76 26.19L97.69 26.12L97.66 26.08Q99.13 26.12 99.93 26.23L100.07 26.37L100.07 26.37Q103.00 26.71 103.08 28.73L103.09 28.74L103.00 28.65Q103.09 29.62 102.90 30.65L102.88 30.62L102.87 30.61Q102.41 33.12 102.60 36.13L102.54 36.06L102.53 36.06Q102.79 39.02 103.78 41.57L103.70 41.49L103.79 41.59Q101.97 41.06 100.26 40.91L100.27 40.92L100.37 41.01Q99.81 38.55 99.73 35.89L99.73 35.89L99.79 35.95Q99.75 33.24 99.98 30.92ZM99.93 41.30L99.87 41.24L99.90 41.27Q100.68 41.25 101.97 41.48L102.02 41.52L102.44 42.64L102.52 42.71Q102.71 43.21 102.94 43.74L102.77 43.57L102.89 43.69Q105.13 44.07 107.84 45.25L107.77 45.18L107.83 45.25Q105.55 42.20 104.87 38.39L104.83 38.36L104.75 38.27Q104.47 36.21 104.59 32.52L104.48 32.42L104.63 32.56Q104.62 32.24 104.66 31.45L104.57 31.36L104.68 31.47Q104.65 30.76 104.57 30.26L104.57 30.26L104.55 30.23Q104.40 28.52 103.30 28.03L103.48 28.22L103.29 28.03Q103.17 27.22 102.41 26.61L102.53 26.74L102.47 26.67Q100.78 25.66 97.73 25.74L97.65 25.65L97.78 25.79Q95.80 25.71 94.96 25.90L94.94 25.88L94.96 25.90Q93.53 26.26 92.58 27.17L92.64 27.24L92.59 27.19Q92.44 26.61 92.06 25.59L92.21 25.74L92.09 25.61Q89.22 24.88 87.39 23.89L87.49 23.98L87.45 23.95Q90.49 28.81 90.49 34.56L90.44 34.51L90.57 34.65Q90.45 38.90 88.54 42.74L88.65 42.85L88.68 42.88Q89.23 42.44 90.53 42.06L90.61 42.14L90.55 42.09Q90.19 43.48 89.66 44.47L89.57 44.38L89.62 44.43Q90.92 43.86 94.46 43.29L94.56 43.39L94.49 43.32Q95.47 38.18 95.36 33.34L95.36 33.34L95.32 33.30Q95.31 32.49 96.49 31.77L96.63 31.91L96.46 31.74Q97.64 31.25 98.75 31.13L98.61 31.00L98.57 30.95Q99.22 31.11 99.63 31.30L99.49 31.15L99.48 31.14Q99.30 33.66 99.34 36.21L99.39 36.27L99.49 36.37Q99.51 38.86 100.01 41.38Z"/></svg>