<svg xmlns="http://www.w3.org/2000/svg" width="150" height="50" viewBox="0,0,150,50"><path fill="#222" d="M31.21 41.65L31.13 41.57L31.04 41.48Q28.96 41.12 26.79 40.96L26.79 40.96L26.87 41.05Q25.48 39.65 22.81 35.81L22.69 35.69L22.76 35.75Q20.56 38.84 18.16 41.28L18.19 41.31L16.10 41.69L16.09 41.68Q14.98 41.83 13.99 42.09L13.99 42.10L13.92 42.03Q18.17 37.98 21.18 33.87L21.16 33.85L21.27 33.95Q17.86 29.64 12.46 24.84L12.45 24.83L12.54 24.92Q14.82 25.72 17.53 26.14L17.46 26.07L17.37 25.98Q20.83 29.10 22.73 31.80L22.85 31.92L22.82 31.89Q24.98 28.88 27.73 26.37L27.72 26.36L27.69 26.33Q30.64 25.89 32.47 25.40L32.60 25.53L32.61 25.54Q27.91 29.03 24.22 33.59L24.22 33.60L24.38 33.76Q27.64 38.31 31.10 41.55ZM34.03 24.76L33.91 24.63L33.96 24.68Q31.08 25.53 27.54 25.87L27.54 25.87L27.62 25.96Q24.58 28.48 22.87 30.95L22.85 30.93L22.84 30.92Q22.11 30.04 20.47 28.06L20.47 28.06L20.15 27.92L20.25 28.03Q20.04 27.93 19.92 27.93L19.93 27.94L20.06 28.06Q19.12 27.05 17.48 25.60L17.60 25.71L17.56 25.67Q13.92 25.09 11.07 23.87L11.13 23.93L11.16 23.96Q16.69 28.77 20.73 33.91L20.74 33.92L20.61 33.79Q17.35 38.53 12.93 42.83L12.98 42.87L13.00 42.90Q13.20 42.76 16.71 41.92L16.57 41.78L16.67 41.88Q15.11 43.18 13.47 44.51L13.56 44.60L13.41 44.45Q16.78 43.71 19.94 43.52L19.86 43.44L19.79 43.36Q22.31 41.24 24.21 38.50L24.23 38.52L24.24 38.53Q25.61 40.24 26.83 41.42L26.72 41.31L26.80 41.39Q26.91 41.39 26.99 41.47L26.92 41.40L27.18 41.47L27.10 41.39Q28.40 42.53 29.73 43.60L29.75 43.62L29.81 43.68Q33.37 44.19 36.26 45.22L36.17 45.13L36.26 45.21Q30.13 40.80 26.44 35.62L26.36 35.54L26.41 35.59Q29.95 30.45 34.52 26.38L34.57 26.43L34.52 26.38Q33.69 26.84 32.70 27.07L32.55 26.93L30.55 27.40L30.54 27.39Q31.84 26.60 34.01 24.73Z"/><path fill="#111" d="M64.48 15.90L64.35 15.77L64.52 15.93Q66.30 20.69 66.87 25.87L66.88 25.87L66.97 25.97Q70.63 21.78 76.53 16.94L76.61 17.03L76.53 16.95Q79.77 16.69 82.40 15.89L82.41 15.90L75.79 21.46L75.80 21.47Q72.38 24.41 69.53 27.26L69.48 27.21L69.41 27.15Q77.37 36.29 82.44 41.01L82.46 41.04L82.54 41.11Q79.45 40.19 77.12 40.04L77.18 40.09L77.18 40.10Q71.31 34.61 67.01 28.78L67.02 28.79L66.98 28.76Q67.15 35.44 65.29 40.77L65.34 40.82L65.33 40.81Q65.04 40.79 64.55 40.98L64.56 40.99L64.45 41.07L64.57 41.19Q64.31 41.16 61.76 42.07L61.85 42.16L61.73 42.04Q64.69 35.49 64.35 28.02L64.36 28.04L64.33 28.01Q63.97 20.64 60.43 14.13L60.59 14.29L61.11 14.54L61.45 14.78L61.61 14.89L61.59 14.87Q62.17 15.12 64.38 15.80ZM64.68 15.53L64.81 15.65L64.76 15.61Q62.43 14.99 59.80 13.46L59.76 13.43L59.84 13.51Q64.10 20.77 64.10 29.72L64.18 29.80L64.12 29.74Q64.08 36.71 61.11 42.76L61.20 42.84L63.09 41.85L63.15 41.91Q62.84 43.00 62.15 44.30L62.16 44.30L62.16 44.31Q64.27 43.37 66.21 42.95L66.17 42.91L66.39 42.90L66.38 42.88Q66.59 42.79 67.16 42.64L67.11 42.58L67.20 42.68Q68.72 36.63 68.84 31.83L68.88 31.88L68.98 31.98Q71.13 34.54 72.95 36.40L72.95 36.40L72.77 36.22Q74.10 37.47 77.10 40.44L77.03 40.37L77.12 40.46L76.99 40.33Q78.05 41.19 79.91 42.79L79.92 42.79L80.02 42.89Q83.76 43.48 87.22 45.19L87.36 45.33L87.31 45.27Q77.95 36.64 71.71 29.22L71.69 29.20L71.73 29.24Q76.25 25.08 85.00 16.47L84.83 16.30L84.96 16.43Q82.29 17.45 80.27 17.83L80.42 17.98L80.38 17.94Q81.58 16.94 83.90 14.92L84.00 15.01L83.97 14.99Q79.82 16.35 76.47 16.54L76.42 16.49L76.38 16.46Q73.48 18.70 68.61 23.38L68.71 23.47L68.62 23.39Q68.32 20.88 67.74 18.33L67.61 18.19L67.77 18.35Q66.49 18.10 65.50 17.76L65.49 17.74L65.51 17.76Q65.31 17.04 64.74 15.59Z"/><path fill="#222" d="M47.18 41.30L47.30 41.41L47.25 41.36Q44.42 41.57 43.16 41.04L43.14 41.02L43.09 40.97Q41.16 40.18 41.24 37.71L41.30 37.78L41.21 37.68Q41.49 34.42 41.49 34.99L41.43 34.94L41.43 34.93Q41.47 29.64 38.61 24.81L38.60 24.79L38.54 24.73Q40.61 25.78 42.59 26.16L42.56 26.13L42.43 25.99Q44.21 30.67 44.10 35.16L44.16 35.22L44.07 35.14Q43.95 36.65 44.78 37.87L44.76 37.84L44.73 37.81Q45.64 39.14 47.16 38.95L47.18 38.97L47.56 38.85L47.67 38.96Q49.00 38.88 49.81 38.12L49.72 38.03L49.84 38.14Q50.50 37.23 50.50 36.28L50.47 36.25L50.65 36.42Q50.56 36.10 50.52 35.91L50.54 35.93L50.46 35.86Q50.45 30.67 51.60 26.33L51.62 26.36L51.55 26.28Q52.53 26.16 53.52 25.93L53.65 26.06L55.64 25.54L55.57 25.47Q53.18 30.66 53.49 36.22L53.37 36.09L53.47 36.20Q53.50 39.13 51.79 40.27L51.90 40.38L51.92 40.40Q50.49 41.14 47.18 41.29ZM49.51 43.69L49.61 43.80L49.58 43.76Q53.11 43.98 54.94 43.22L54.92 43.20L54.87 43.15Q55.84 42.45 55.84 41.04L55.87 41.08L55.81 41.01Q55.75 40.04 55.49 38.48L55.50 38.50L55.48 38.48Q55.05 35.38 55.43 32.37L55.42 32.36L55.44 32.39Q55.74 29.14 57.14 26.40L57.17 26.42L57.21 26.46Q56.58 26.79 55.25 27.21L55.31 27.26L55.34 27.30Q55.56 26.68 55.87 26.11L55.71 25.95L56.31 24.84L56.45 24.98Q54.51 25.63 51.35 26.12L51.34 26.11L51.20 25.97Q50.12 30.91 50.28 36.01L50.13 35.87L50.17 35.90Q50.17 37.92 47.50 38.42L47.64 38.55L47.22 38.59L47.02 38.54L46.07 38.40L46.23 38.55Q46.04 37.56 46.08 37.06L46.07 37.06L46.01 37.00Q46.32 32.59 45.64 28.18L45.50 28.04L44.47 27.92L44.57 28.02Q43.97 27.91 43.43 27.80L43.43 27.80L43.44 27.80Q43.11 26.45 42.85 25.69L42.86 25.70L42.85 25.69Q40.10 25.30 37.85 24.00L37.77 23.92L37.77 23.93Q39.98 27.51 40.70 30.89L40.62 30.81L40.68 30.87Q41.26 33.16 41.11 36.66L40.98 36.53L40.95 36.51Q41.14 36.82 41.07 37.92L40.91 37.77L41.04 37.89Q40.91 40.27 42.28 41.22L42.23 41.17L42.16 41.11Q42.62 43.44 49.63 43.82Z"/><path fill="#333" d="M94.96 28.64L95.02 28.70L94.99 28.67Q92.08 28.58 91.32 30.82L91.44 30.94L91.42 30.93Q91.15 31.60 91.03 32.25L90.99 32.21L90.94 32.16Q93.52 32.34 95.16 32.34L95.20 32.38L95.23 32.42Q96.96 32.51 99.55 32.39L99.53 32.38L99.47 32.31Q99.44 30.68 98.03 29.61L98.06 29.64L97.98 29.56Q96.75 28.65 94.97 28.65ZM94.96 41.13L94.99 41.16L95.11 41.27Q90.77 41.16 89.47 39.75L89.43 39.71L89.52 39.80Q88.50 38.28 88.34 35.01L88.34 35.00L88.29 34.95Q88.47 34.90 88.39 33.53L88.26 33.40L88.32 33.46Q88.24 31.21 88.24 30.48L88.26 30.50L88.11 30.35Q88.18 28.56 88.91 27.46L88.90 27.45L88.94 27.50Q90.39 26.12 93.36 26.12L93.34 26.11L94.77 25.98L94.88 26.08Q96.92 26.07 98.44 26.37L98.40 26.33L98.33 26.26Q100.45 26.78 101.44 28.00L101.40 27.96L101.38 27.94Q102.13 29.15 102.21 31.25L102.09 31.13L102.11 31.14Q102.16 32.34 102.20 34.51L102.09 34.40L102.15 34.46Q99.41 34.62 96.63 34.62L96.52 34.50L90.93 34.51L90.96 34.54Q91.11 38.95 95.19 38.73L95.09 38.63L95.14 38.68Q99.03 38.61 100.25 36.78L100.15 36.68L100.08 36.62Q101.02 37.21 102.61 38.39L102.55 38.32L102.66 38.43Q101.29 40.83 97.14 41.10L97.15 41.11L97.09 41.05Q96.36 41.08 94.99 41.16ZM97.25 43.45L97.28 43.48L97.28 43.48Q98.44 43.51 99.66 43.58L99.70 43.63L99.64 43.56Q104.56 43.69 105.48 40.91L105.44 40.87L105.44 40.87Q103.82 39.63 102.72 38.87L102.88 39.04L102.74 38.90Q102.90 38.48 103.09 38.26L103.09 38.26L103.12 38.29Q102.51 37.94 101.14 36.99L100.97 36.82L101.01 36.86Q102.18 37.00 104.23 37.30L104.15 37.22L104.10 37.17Q103.99 35.88 103.91 35.20L104.05 35.33L103.86 33.36L103.72 33.21Q103.75 31.03 103.10 29.55L102.92 29.37L102.97 29.42Q102.64 29.01 102.07 28.40L102.12 28.45L102.19 28.52Q102.02 28.20 101.79 27.63L101.80 27.64L101.76 27.60Q99.85 25.54 94.79 25.54L94.90 25.65L93.24 25.66L93.05 25.47Q89.92 25.58 88.47 27.06L88.45 27.04L88.48 27.07Q87.79 28.18 87.83 30.23L87.83 30.22L87.84 30.24Q87.84 31.15 87.95 33.40L87.93 33.38L87.95 33.40Q88.18 35.15 88.29 37.20L88.24 37.15L88.25 37.16Q88.46 39.34 89.33 40.41L89.31 40.39L89.38 40.46Q89.44 40.52 89.63 40.63L89.60 40.60L90.07 41.41L89.92 41.26Q90.72 43.13 97.31 43.51ZM95.15 38.27L95.23 38.35L95.23 38.35Q94.10 38.48 93.18 38.02L93.05 37.89L93.19 38.02Q92.98 37.47 92.79 36.79L92.81 36.81L92.97 36.97Q94.48 36.69 96.08 36.69L96.15 36.76L96.21 36.81Q97.77 36.70 99.45 36.82L99.59 36.96L99.57 36.95Q98.17 38.17 95.16 38.28ZM96.92 31.05L96.86 31.00L96.85 30.99Q97.49 31.02 98.82 31.40L98.83 31.41L99.00 31.77L98.97 31.92L99.07 32.03Q97.73 32.18 96.82 32.14L96.64 31.96L96.75 32.07Q94.48 32.05 94.45 32.05L94.34 31.94L94.34 31.94Q95.17 31.10 96.85 30.99Z"/><path fill="#333" d="M129.13 40.47L129.10 40.43L129.06 40.40Q126.00 36.42 123.37 27.78L123.52 27.93L123.35 27.76Q122.69 25.61 121.89 23.48L122.04 23.63L119.19 32.43L119.04 32.28Q117.26 37.24 114.86 40.48L114.81 40.42L114.94 40.55Q114.05 40.58 112.41 40.73L112.38 40.70L112.42 40.74Q112.56 39.58 112.56 38.32L112.46 38.22L112.51 38.27Q112.51 32.26 109.77 26.13L109.76 26.13L109.84 26.20Q106.61 19.20 100.75 14.21L100.83 14.30L100.81 14.28Q102.86 14.89 105.22 15.42L105.34 15.54L105.19 15.39Q113.89 23.86 115.19 34.82L115.25 34.89L115.25 34.89Q116.81 31.50 118.26 26.13L118.42 26.29L118.41 26.28Q120.32 18.72 120.82 17.31L120.74 17.23L123.02 17.26L123.16 17.41Q123.70 19.28 124.35 21.60L124.39 21.64L125.56 26.01L125.68 26.13Q127.16 31.49 128.57 34.72L128.66 34.82L128.71 34.87Q130.26 23.13 138.18 15.78L138.27 15.87L138.20 15.81Q139.76 15.50 142.73 14.85L142.71 14.83L142.72 14.84Q137.37 19.13 134.33 25.26L134.31 25.25L134.40 25.33Q131.15 31.41 131.15 38.19L131.32 38.35L131.35 38.38Q131.19 39.33 131.27 40.47L131.30 40.51L130.13 40.36L130.20 40.44Q129.71 40.47 129.14 40.47ZM135.25 43.24L135.30 43.28L135.25 43.23Q133.98 39.65 134.10 35.76L134.23 35.90L134.24 35.91Q134.42 24.21 143.79 15.95L143.77 15.93L143.82 15.98Q142.96 16.30 141.01 16.83L141.01 16.83L140.99 16.81Q141.82 15.84 143.72 14.06L143.90 14.23L143.75 14.08Q141.06 14.82 138.13 15.32L138.23 15.42L138.31 15.50Q130.77 22.58 128.87 32.06L128.91 32.10L128.88 32.07Q128.19 30.32 125.34 18.86L125.41 18.93L125.42 18.94Q125.05 19.06 124.09 19.06L124.06 19.02L123.70 17.90L123.68 17.89Q123.65 17.44 123.42 16.94L123.36 16.88L120.51 16.93L120.52 16.94Q119.62 19.31 118.34 24.43L118.31 24.39L118.44 24.52Q117.17 29.65 116.18 32.12L116.15 32.09L116.11 32.06Q114.50 24.13 108.95 17.81L108.94 17.80L109.07 17.93Q108.39 17.67 107.44 17.48L107.62 17.66L107.47 17.51Q106.76 16.68 105.20 15.05L105.23 15.08L105.22 15.07Q101.82 14.26 99.65 13.46L99.77 13.58L99.61 13.42Q105.33 18.15 108.60 24.35L108.55 24.30L108.69 24.44Q112.12 31.03 112.12 38.04L112.12 38.04L112.04 37.95Q112.01 39.48 111.82 41.08L111.82 41.08L112.00 41.26Q112.13 41.17 112.59 41.08L112.61 41.10L112.66 41.15Q113.08 41.02 113.31 41.02L113.37 41.08L113.21 41.94L113.19 41.93Q113.38 42.57 113.45 43.10L113.35 42.99L113.35 43.00Q114.59 43.02 116.88 42.87L116.75 42.74L116.85 42.84Q120.38 37.36 123.13 27.95L123.21 28.04L123.07 27.89Q126.02 36.86 128.99 40.82L128.99 40.82L128.88 40.71Q129.36 40.73 130.19 40.84L130.28 40.93L130.28 40.93Q131.09 41.93 132.15 43.00L132.03 42.87L132.22 43.06Q132.85 42.97 135.25 43.24Z"/></svg>