<svg xmlns="http://www.w3.org/2000/svg" width="150" height="50" viewBox="0,0,150,50"><path fill="#111" d="M120.35 29.12L120.29 29.05L120.31 29.08Q118.57 29.05 117.34 30.48L117.29 30.44L117.22 30.36Q116.12 31.93 115.93 33.83L115.90 33.80L115.86 33.76Q115.57 35.75 116.65 36.72L116.70 36.77L116.80 36.87Q117.82 37.78 119.92 37.67L119.91 37.66L119.85 37.60Q121.99 37.49 123.09 36.81L123.16 36.88L123.05 36.77Q124.28 35.75 124.28 34.19L124.24 34.15L124.31 34.22Q124.26 33.79 124.19 33.41L124.20 33.42L124.09 33.31Q124.26 31.73 123.15 30.38L123.11 30.33L123.07 30.29Q121.96 28.94 120.29 29.05ZM119.92 40.23L119.90 40.21L119.91 40.22Q115.57 40.25 114.16 39.49L114.09 39.42L114.10 39.43Q113.14 38.73 112.95 37.02L112.89 36.96L112.92 36.99Q112.93 36.35 112.97 35.63L112.97 35.63L112.85 35.51Q112.99 34.55 112.99 34.09L112.99 34.09L112.96 34.06Q113.50 31.29 113.65 30.60L113.67 30.62L113.72 30.67Q114.07 28.62 114.90 27.21L114.94 27.24L114.93 27.23Q117.58 22.84 123.51 16.48L123.51 16.48L123.44 16.41Q126.12 16.12 128.33 15.32L128.43 15.42L128.44 15.44Q121.64 22.95 118.45 27.17L118.35 27.07L118.46 27.19Q119.33 26.57 120.62 26.57L120.67 26.61L120.55 26.50Q124.01 26.64 125.53 28.59L125.42 28.48L125.56 28.62Q126.83 30.19 127.18 33.73L127.07 33.63L127.22 33.78Q127.23 34.44 127.23 35.05L127.25 35.07L127.25 35.06Q127.30 38.23 125.09 39.30L125.05 39.26L125.12 39.33Q123.72 39.76 119.84 40.14ZM122.16 42.58L122.22 42.64L122.13 42.55Q123.42 42.50 125.40 42.58L125.46 42.64L125.42 42.60Q127.14 42.76 128.70 42.04L128.75 42.09L128.65 41.98Q129.71 41.14 129.71 39.35L129.77 39.42L129.72 39.36Q129.73 38.87 129.56 37.88L129.65 37.98L129.68 38.01Q129.40 36.91 129.40 36.45L129.43 36.48L129.40 36.45Q128.55 31.76 126.95 29.86L127.02 29.93L126.89 29.79Q126.97 29.83 126.81 29.60L126.68 29.47L126.45 29.32L126.34 29.24L126.43 29.33Q126.02 28.77 125.41 27.82L125.48 27.89L125.31 27.72Q124.50 26.87 122.52 26.41L122.61 26.51L122.51 26.41Q123.71 24.79 126.68 21.09L126.75 21.17L130.89 15.78L130.97 15.86Q129.33 16.67 126.93 17.43L126.92 17.41L126.97 17.46Q127.87 16.46 129.66 14.48L129.64 14.46L129.65 14.47Q127.27 15.56 123.39 16.13L123.37 16.11L123.39 16.12Q117.61 21.96 114.64 26.91L114.68 26.95L114.66 26.93Q113.26 29.56 112.69 35.81L112.68 35.80L112.55 35.67Q112.48 36.24 112.55 37.19L112.63 37.27L112.58 37.22Q112.78 39.10 113.88 40.01L113.80 39.92L113.77 39.89Q114.27 40.17 114.23 40.20L114.15 40.13L114.13 40.10Q114.55 41.06 115.35 41.48L115.24 41.36L115.33 41.46Q116.77 42.13 118.71 42.32L118.67 42.29L118.65 42.26Q118.77 42.38 122.27 42.68ZM121.96 31.38L122.03 31.44L121.93 31.35Q122.56 31.29 123.51 31.78L123.55 31.82L123.43 31.70Q123.94 32.82 123.94 33.46L123.90 33.43L123.89 33.42Q123.95 35.15 123.00 36.14L122.99 36.13L123.11 36.25Q122.00 36.93 119.91 37.24L120.02 37.35L119.87 37.20Q118.49 37.27 117.96 37.00L117.96 37.01L118.01 37.06Q117.78 36.56 117.78 36.26L117.78 36.26L117.85 36.32Q117.49 32.92 120.42 31.63L120.51 31.71L120.45 31.65Q121.22 31.32 121.98 31.40Z"/><path fill="#444" d="M25.50 27.09L25.59 27.18L25.63 27.22Q26.37 27.16 27.78 27.01L27.83 27.06L27.88 27.11Q27.67 27.58 27.67 28.23L27.73 28.29L27.67 29.48L27.82 29.64Q26.97 29.63 26.13 29.70L26.13 29.70L26.03 29.60Q25.23 29.68 24.39 29.64L24.32 29.56L24.44 29.68Q21.64 35.90 18.21 40.51L18.17 40.47L18.06 40.36Q15.60 41.06 14.30 41.67L14.29 41.65L14.29 41.66Q18.37 35.91 21.42 29.63L21.45 29.66L18.83 29.67L18.88 29.72Q18.83 28.34 18.72 27.01L18.77 27.06L18.78 27.07Q20.71 27.25 22.77 27.25L22.73 27.21L24.66 23.55L24.60 23.48Q25.63 21.62 26.85 20.02L26.74 19.92L26.76 19.93Q25.28 20.17 23.68 20.17L23.58 20.07L23.64 20.13Q17.48 20.06 13.72 17.86L13.74 17.88L13.23 16.30L13.13 16.20Q12.79 15.37 12.41 14.50L12.48 14.57L12.44 14.53Q16.68 17.05 22.39 17.28L22.44 17.33L22.53 17.42Q27.64 17.61 32.78 15.64L32.71 15.57L32.79 15.65Q32.54 16.01 32.05 16.89L32.10 16.94L32.02 16.85Q28.41 21.63 25.56 27.15ZM33.60 18.21L33.61 18.22L34.74 16.34L34.67 16.27Q33.76 16.81 32.09 17.54L31.95 17.40L32.17 17.12L32.21 17.16Q32.38 17.06 32.49 16.95L32.40 16.86L32.46 16.92Q32.74 16.13 33.46 14.80L33.63 14.96L33.52 14.86Q28.30 17.25 22.55 17.02L22.37 16.84L22.40 16.87Q16.39 16.61 11.63 13.64L11.71 13.72L11.61 13.62Q12.65 15.50 13.49 18.16L13.46 18.14L13.59 18.26Q14.58 18.80 15.38 19.10L15.49 19.21L15.38 19.11Q15.53 19.44 15.98 21.30L16.12 21.44L16.02 21.34Q19.23 22.65 24.75 22.50L24.78 22.53L24.76 22.50Q24.47 23.09 22.49 26.86L22.39 26.76L22.42 26.79Q20.38 26.81 18.40 26.62L18.42 26.64L18.41 26.62Q18.56 27.54 18.56 28.41L18.50 28.35L18.52 30.08L20.14 30.03L20.27 31.56L20.21 31.51Q16.19 38.79 13.41 42.37L13.49 42.45L13.51 42.47Q14.99 41.59 16.63 41.09L16.62 41.09L16.74 41.21Q16.10 42.17 14.73 43.88L14.73 43.88L14.68 43.83Q17.73 42.62 20.17 42.39L20.27 42.49L20.32 42.54Q23.18 38.70 26.30 31.93L26.23 31.85L29.76 32.15L29.74 32.13Q29.71 31.26 29.71 30.35L29.62 30.26L29.74 28.59L29.57 28.42Q29.31 28.43 28.76 28.47L28.85 28.55L28.84 28.55Q28.37 28.66 28.10 28.66L28.10 28.66L27.98 28.54Q28.07 28.51 28.10 28.36L27.98 28.24L27.96 27.95L28.15 28.14Q30.53 22.87 33.62 18.23Z"/><path fill="#222" d="M41.63 19.14L41.71 19.22L41.71 19.22Q42.72 23.59 42.88 26.78L42.88 26.79L43.05 26.96Q43.42 26.87 47.80 26.99L47.93 27.12L47.87 27.06Q50.41 27.09 50.79 23.62L50.79 23.62L50.79 23.62Q50.97 21.86 50.06 20.94L50.07 20.96L50.00 20.89Q48.78 20.05 46.80 19.90L46.84 19.94L46.83 19.93Q43.52 19.62 41.65 19.17ZM43.16 28.89L43.07 28.81L43.05 28.78Q43.17 34.73 41.38 40.67L41.48 40.77L41.45 40.74Q40.25 41.10 37.66 42.13L37.69 42.16L37.69 42.16Q40.52 35.66 40.18 28.20L40.05 28.07L40.12 28.14Q39.72 20.70 36.41 14.19L36.45 14.22L36.45 14.23Q41.43 17.15 48.39 17.15L48.27 17.03L48.40 17.16Q53.99 17.12 54.26 20.66L54.29 20.68L54.27 20.66Q54.27 21.20 54.19 21.80L54.23 21.84L54.09 22.92L54.07 22.90Q53.33 26.92 51.20 28.64L51.14 28.58L51.20 28.63Q50.35 29.28 49.33 29.28L49.42 29.37L46.80 29.34L46.77 29.31Q52.32 36.50 56.85 41.07L56.89 41.10L56.98 41.20Q54.66 40.32 51.73 39.97L51.74 39.99L51.70 39.95Q48.00 36.06 43.09 28.83ZM51.60 40.34L51.63 40.37L51.99 40.43L53.22 41.65L53.19 41.62Q53.79 42.19 54.44 42.80L54.39 42.76L54.49 42.85Q58.02 43.45 61.60 45.32L61.55 45.26L61.62 45.34Q54.62 38.53 49.22 31.60L49.28 31.66L51.03 31.67L50.91 31.54Q54.01 31.56 55.34 27.03L55.34 27.02L55.44 27.13Q56.12 24.92 56.12 22.22L55.96 22.05L56.06 22.15Q56.05 19.86 54.34 19.21L54.38 19.25L54.40 19.27Q54.32 18.93 53.75 18.24L53.69 18.18L53.66 18.16Q51.96 16.69 48.31 16.61L48.27 16.57L48.32 16.62Q40.52 16.55 35.84 13.54L35.80 13.50L35.70 13.40Q39.49 20.27 39.83 27.96L39.77 27.90L39.84 27.98Q40.27 36.02 37.15 42.87L37.12 42.85L37.05 42.78Q38.29 42.19 39.09 41.88L39.18 41.97L38.21 44.27L38.14 44.21Q40.93 43.23 43.60 42.73L43.53 42.66L43.55 42.69Q44.73 37.47 44.92 32.25L44.97 32.30L45.03 32.36Q48.52 37.30 51.68 40.42ZM50.39 22.46L50.40 22.47L50.31 22.37Q50.42 22.72 50.42 23.06L50.36 23.00L50.39 23.60L50.43 23.64Q50.49 24.80 49.80 25.75L49.74 25.69L49.74 25.69Q49.09 26.41 48.18 26.60L48.24 26.66L48.25 26.67Q47.91 26.61 46.32 26.65L46.38 26.71L46.47 26.80Q45.76 26.70 44.92 26.58L45.00 26.66L45.05 26.71Q44.94 25.19 44.59 22.14L44.53 22.08L44.57 22.13Q45.99 22.32 46.68 22.32L46.65 22.29L46.67 22.32Q48.53 22.35 50.47 22.54Z"/><path fill="#444" d="M68.51 40.45L68.49 40.43L68.42 40.36Q64.35 40.59 63.37 38.27L63.41 38.32L63.30 38.21Q64.22 37.41 65.78 35.62L65.61 35.45L65.79 35.64Q66.12 37.48 69.13 37.60L69.11 37.58L69.20 37.68Q72.51 37.67 74.14 36.33L74.18 36.37L74.17 36.36Q75.56 34.74 75.48 32.04L75.47 32.03L75.63 32.19Q75.35 27.00 70.55 27.23L70.56 27.23L70.57 27.25Q67.77 27.41 66.02 28.67L66.02 28.67L65.70 28.51L65.42 28.30L65.47 28.35Q65.95 25.32 65.83 22.58L65.71 22.46L65.74 22.49Q65.63 19.87 65.29 16.56L65.20 16.46L65.38 16.64Q68.92 17.48 72.73 17.37L72.67 17.32L72.67 17.32Q76.45 17.21 80.03 15.96L80.21 16.13L79.63 17.64L79.47 17.49Q79.22 18.31 79.03 19.14L79.08 19.19L79.05 19.16Q75.96 20.23 72.08 20.23L72.14 20.29L72.02 20.16Q70.68 20.27 69.20 20.12L69.18 20.10L69.15 20.08Q69.01 20.70 68.67 25.15L68.66 25.14L68.77 25.25Q69.64 24.83 71.70 24.68L71.59 24.57L71.53 24.51Q75.39 24.86 76.83 26.54L76.76 26.46L76.72 26.42Q78.24 28.09 78.50 31.94L78.46 31.90L78.38 31.82Q78.62 35.97 77.40 37.99L77.41 38.00L77.38 37.97Q75.47 39.98 72.16 40.21L72.14 40.20L72.12 40.17Q71.17 40.29 68.50 40.44ZM74.58 42.75L74.51 42.68L74.46 42.63Q77.88 42.70 79.79 41.60L79.90 41.72L79.84 41.65Q80.91 40.20 80.91 38.11L80.72 37.93L80.89 38.09Q80.91 35.03 79.96 30.92L79.91 30.88L79.87 30.83Q79.42 29.01 78.20 27.60L78.32 27.72L78.35 27.79L78.02 27.38L77.82 27.33L77.81 27.33Q77.35 26.44 76.70 25.76L76.87 25.92L76.82 25.92L76.75 25.85Q75.31 24.25 71.61 24.25L71.48 24.12L71.37 24.28L71.25 24.16Q71.34 23.60 71.53 22.49L71.49 22.45L71.64 22.60Q76.56 22.65 80.59 21.01L80.67 21.09L80.57 20.99Q80.94 19.52 81.89 16.71L82.03 16.86L79.79 17.65L79.91 17.78Q80.31 16.65 80.80 15.51L80.71 15.41L80.71 15.42Q76.86 16.85 72.74 16.93L72.80 16.99L72.79 16.97Q68.67 17.08 64.71 15.97L64.66 15.93L64.77 16.04Q65.39 20.38 65.39 24.80L65.32 24.73L65.46 24.87Q65.49 26.81 65.38 28.71L65.29 28.63L65.33 28.66Q65.56 28.81 66.13 29.12L66.02 29.02L66.06 29.06Q66.39 28.81 67.04 28.47L67.12 28.55L67.06 28.49Q67.08 29.31 66.85 30.83L66.80 30.78L66.89 30.87Q67.21 30.97 67.63 31.19L67.74 31.30L67.60 31.16Q70.43 29.46 72.29 29.46L72.35 29.52L72.23 29.40Q73.66 29.50 74.84 30.15L74.93 30.24L74.88 30.19Q75.21 31.20 75.25 32.15L75.28 32.18L75.18 32.08Q75.24 34.66 74.22 35.76L74.28 35.83L74.29 35.84Q72.82 36.96 70.58 37.18L70.70 37.30L70.68 37.29Q69.72 37.36 69.04 37.28L69.02 37.27L68.97 37.22Q68.10 37.07 67.34 36.73L67.48 36.87L67.48 36.67L67.18 36.61L67.18 36.61Q66.53 36.26 66.00 34.93L65.89 34.82L65.98 34.91Q64.51 36.18 62.83 38.31L62.99 38.47L62.88 38.36Q63.14 38.96 63.97 39.91L63.98 39.92L64.01 39.95Q65.18 41.87 67.99 42.37L68.04 42.42L67.90 42.28Q69.03 42.45 74.40 42.56Z"/><path fill="#333" d="M94.92 28.95L94.80 28.82L94.80 28.83Q92.31 28.89 91.28 30.07L91.24 30.02L91.30 30.08Q90.36 31.35 90.36 33.98L90.31 33.93L90.31 33.93Q90.27 38.99 94.88 38.80L94.86 38.78L94.83 38.75Q96.97 38.98 98.32 37.42L98.28 37.39L98.37 37.48Q99.74 35.93 99.51 33.88L99.45 33.82L99.40 33.77Q99.45 31.26 98.57 30.24L98.63 30.29L98.65 30.32Q97.19 29.01 94.98 29.01ZM99.86 38.64L99.87 38.65L99.99 38.77Q98.66 41.09 93.97 41.09L94.10 41.22L92.58 41.15L92.64 41.21Q90.16 41.09 89.06 39.95L89.21 40.10L89.18 40.07Q88.22 39.11 87.95 36.71L87.77 36.53L87.84 36.60Q87.62 35.04 87.54 33.25L87.58 33.29L87.69 33.40Q87.55 32.31 87.40 30.37L87.36 30.33L87.41 30.38Q87.30 26.08 92.48 26.08L92.43 26.04L94.13 26.18L94.12 26.16Q97.03 26.18 99.12 27.47L99.08 27.44L99.13 27.48Q99.87 27.92 100.36 28.60L100.38 28.62L100.36 28.60Q100.70 27.87 101.23 26.24L101.23 26.23L101.18 26.19Q102.35 25.95 104.68 25.34L104.60 25.26L104.76 25.42Q101.99 29.47 101.99 34.72L102.08 34.81L102.14 34.87Q102.16 38.62 103.53 41.70L103.51 41.68L103.48 41.65Q102.32 41.33 100.41 41.10L100.41 41.09L100.46 41.15Q100.24 40.27 99.93 38.71ZM103.20 43.89L103.18 43.86L105.43 44.47L105.46 44.50Q106.57 44.70 107.56 45.16L107.58 45.18L107.64 45.24Q103.92 40.83 103.92 34.74L104.00 34.83L103.94 34.77Q104.02 30.32 106.15 26.51L106.22 26.57L106.07 26.43Q105.38 26.62 104.05 27.00L104.10 27.04L104.15 27.09Q104.51 26.35 105.38 24.83L105.36 24.80L105.39 24.84Q104.86 25.06 100.86 25.90L100.80 25.84L100.19 27.63L100.15 27.59Q98.50 25.98 94.08 25.75L94.03 25.69L94.01 25.67Q92.87 25.68 90.63 25.83L90.76 25.96L90.70 25.90Q87.02 26.26 87.13 30.29L87.18 30.34L87.15 30.31Q87.26 33.62 87.83 38.07L87.78 38.02L87.89 38.55L87.76 38.42Q87.93 39.31 88.73 40.41L88.75 40.44L88.76 40.44Q88.91 40.60 89.10 40.71L89.17 40.78L89.11 40.72Q89.39 41.23 89.77 41.80L89.81 41.84L89.70 41.73Q91.19 43.33 94.57 43.52L94.53 43.48L94.57 43.52Q96.15 43.58 96.31 43.58L96.36 43.63L97.93 43.64L97.96 43.67Q101.07 43.58 102.29 42.02L102.30 42.03L102.28 42.02Q102.63 42.63 103.23 43.92ZM96.63 31.11L96.69 31.17L96.70 31.18Q98.05 31.19 98.88 31.65L98.81 31.57L98.87 31.63Q99.18 32.45 99.18 33.89L99.23 33.94L99.12 33.83Q99.29 35.71 98.02 37.14L98.00 37.12L98.16 37.29Q96.85 38.68 94.95 38.49L94.85 38.40L94.85 38.39Q93.51 38.50 92.48 38.08L92.48 38.08L92.51 38.11Q92.22 37.17 92.22 35.96L92.21 35.94L92.23 35.96Q92.31 32.39 94.94 31.43L94.96 31.45L95.03 31.53Q95.93 31.21 96.73 31.21Z"/></svg>