<svg xmlns="http://www.w3.org/2000/svg" width="150" height="50" viewBox="0,0,150,50"><path fill="#333" d="M75.32 29.48L75.26 29.42L75.25 29.41Q74.09 28.67 73.44 28.70L73.56 28.83L73.59 28.86Q72.16 28.87 71.12 29.88L71.14 29.91L71.12 29.88Q69.95 30.77 70.06 32.14L70.07 32.15L70.06 32.14Q70.45 36.56 69.57 41.09L69.60 41.12L69.53 41.05Q67.41 41.59 66.30 42.12L66.30 42.12L66.31 42.13Q67.83 37.98 67.60 33.52L67.55 33.48L67.54 33.47Q67.31 28.97 65.59 24.89L65.52 24.82L65.64 24.94Q66.66 25.50 68.94 26.15L68.96 26.17L69.57 28.91L69.52 28.86Q70.26 26.02 74.52 26.02L74.62 26.11L74.53 26.02Q74.92 25.96 75.23 25.96L75.29 26.02L75.13 25.86Q76.58 26.02 77.84 26.71L77.67 26.54L77.87 26.74Q76.39 27.92 75.25 29.41ZM76.84 31.38L77.04 31.43L77.07 31.46Q77.84 30.17 79.52 27.74L79.60 27.82L79.64 27.86Q79.08 27.42 77.56 27.15L77.62 27.21L77.59 27.19Q78.05 27.00 78.51 26.39L78.50 26.38L78.43 26.31Q76.61 25.48 74.67 25.67L74.49 25.49L74.66 25.66Q72.56 25.69 71.84 25.96L71.87 26.00L71.85 25.97Q70.43 26.38 69.63 27.49L69.68 27.53L69.59 26.80L69.26 25.82L69.30 25.86Q66.91 25.45 64.93 24.12L64.94 24.13L65.02 24.21Q67.11 28.55 67.34 33.42L67.38 33.46L67.37 33.44Q67.54 38.30 65.79 42.83L65.73 42.77L65.74 42.78Q66.93 42.41 67.80 42.10L67.67 41.97L67.78 42.08Q67.54 43.21 67.04 44.27L66.88 44.11L66.93 44.16Q69.87 43.41 72.00 43.29L71.99 43.28L72.22 38.79L72.06 38.63Q72.29 36.50 72.29 34.25L72.25 34.21L72.18 34.14Q72.26 33.04 73.17 32.07L73.21 32.10L73.22 32.11Q74.11 31.13 75.26 31.05L75.29 31.09L75.30 31.09Q75.91 30.95 76.64 31.64L76.59 31.58L76.94 31.48ZM71.93 29.67L72.07 29.73L71.95 29.73L71.95 29.69Z"/><path fill="#222" d="M89.04 41.09L89.12 41.17L89.01 41.06Q92.22 36.85 98.92 28.93L98.86 28.87L98.97 28.98Q93.08 29.21 89.31 27.84L89.29 27.82L89.21 27.75Q88.52 26.30 87.76 24.89L87.79 24.92L87.73 24.86Q91.92 26.45 96.37 26.49L96.39 26.52L96.30 26.42Q100.72 26.42 104.91 25.36L104.92 25.37L105.05 25.50Q104.54 26.05 104.27 26.59L104.36 26.67L104.35 26.67Q101.74 28.82 98.92 32.43L99.04 32.55L94.12 38.74L94.14 38.77Q96.35 38.54 98.59 38.61L98.48 38.49L98.62 38.64Q100.71 38.59 102.95 38.97L103.01 39.03L102.93 38.95Q103.05 39.53 103.77 41.55L103.94 41.72L103.80 41.57Q100.21 40.87 96.21 40.99L96.09 40.87L96.11 40.89Q92.13 40.98 88.47 42.16L88.61 42.29L88.47 42.16Q88.64 42.09 89.09 41.14ZM87.93 42.79L87.92 42.79L88.05 42.91Q88.84 42.61 90.44 42.19L90.34 42.09L90.25 42.00Q90.15 42.35 89.73 42.77L89.57 42.61L89.76 42.80Q89.36 43.20 88.75 44.34L88.90 44.49L88.86 44.44Q93.55 43.08 98.53 43.23L98.55 43.25L98.58 43.28Q103.41 43.32 107.98 45.18L108.01 45.21L107.98 45.18Q106.70 43.48 105.79 41.43L105.62 41.26L105.60 41.25Q104.83 40.93 103.77 40.70L103.93 40.87L103.77 40.70Q103.74 40.15 103.36 38.70L103.22 38.56L103.21 38.54Q101.71 38.27 98.13 38.15L98.26 38.28L98.19 38.21Q100.49 34.80 105.51 28.44L105.60 28.53L105.63 28.56Q105.75 27.69 106.43 26.35L106.46 26.38L104.32 27.28L104.32 27.29Q104.38 27.19 104.53 27.08L104.54 27.09L104.68 26.84L104.59 26.75Q105.10 25.74 105.67 24.79L105.65 24.77L105.79 24.91Q100.96 26.10 96.24 26.02L96.36 26.14L96.40 26.18Q91.44 25.94 86.95 24.11L87.08 24.24L86.99 24.15Q88.30 26.15 89.10 28.20L88.92 28.02L89.05 28.16Q89.76 28.34 90.83 28.60L90.94 28.72L90.83 28.61Q91.13 29.40 91.43 30.84L91.49 30.90L91.38 30.79Q92.97 31.05 96.28 31.20L96.38 31.29L96.29 31.21Q94.01 34.64 88.83 41.07L88.65 40.89L88.76 41.00Q88.52 41.60 87.95 42.82Z"/><path fill="#222" d="M124.97 41.33L124.79 41.16L121.83 41.05L121.82 41.04Q119.44 40.94 118.64 40.82L118.60 40.79L118.61 40.79Q116.82 40.49 115.64 39.61L115.72 39.70L115.59 39.56Q114.44 38.30 114.21 34.95L114.11 34.85L114.12 34.85Q114.19 34.47 114.11 33.25L114.02 33.16L114.03 33.17Q114.01 32.73 113.93 31.62L113.98 31.68L113.99 31.68Q113.96 30.85 114.00 30.13L114.07 30.20L113.95 30.09Q114.18 28.18 115.21 27.42L115.20 27.41L115.20 27.41Q117.08 26.21 121.92 25.98L122.06 26.13L121.94 26.01Q124.00 25.93 124.80 25.93L124.70 25.84L124.68 25.82Q126.31 25.96 127.69 26.27L127.70 26.28L127.67 26.26Q127.02 27.43 126.49 29.26L126.51 29.29L126.50 29.27Q126.06 29.40 125.57 29.37L125.48 29.28L125.58 29.38Q125.37 29.24 124.83 29.13L124.99 29.28L123.90 28.92L123.85 28.86Q122.84 28.66 122.24 28.70L122.21 28.67L122.33 28.80Q117.60 28.86 116.99 31.67L116.91 31.59L116.95 31.63Q116.62 32.71 116.70 33.67L116.83 33.80L116.72 33.69Q116.90 36.30 118.13 37.39L118.11 37.37L118.14 37.39Q119.33 38.44 121.92 38.47L121.92 38.47L122.02 38.57Q123.51 38.62 124.24 38.31L124.16 38.24L125.26 37.81L125.24 37.79Q125.77 37.57 126.34 37.49L126.31 37.46L126.25 37.40Q126.55 39.25 126.93 40.55L126.91 40.53L126.94 40.56Q126.70 40.93 124.91 41.27ZM128.20 44.25L128.20 44.25L128.13 44.19Q128.46 44.17 129.29 44.25L129.32 44.28L129.26 44.21Q130.04 44.39 130.39 43.82L130.24 43.67L130.41 43.84Q129.04 41.60 128.55 39.50L128.67 39.62L128.67 39.63Q128.21 39.47 127.76 39.47L127.87 39.58L127.89 39.61Q127.45 39.59 127.07 39.78L127.08 39.79L127.12 39.83Q126.59 38.39 126.44 36.98L126.51 37.05L126.60 37.14Q125.89 36.96 124.67 37.53L124.71 37.57L124.64 37.50Q123.41 38.06 122.91 38.06L122.91 38.06L122.98 38.12Q122.61 38.25 122.00 38.21L122.01 38.22L121.91 38.12Q120.94 38.03 118.96 37.46L119.05 37.55L119.07 37.56Q118.76 36.87 118.79 35.73L118.76 35.69L118.78 35.71Q118.85 31.37 123.80 30.84L123.96 30.99L123.78 30.81Q124.61 30.96 125.99 31.31L125.93 31.26L125.88 31.20Q127.21 31.50 127.93 31.46L128.03 31.56L127.94 31.48Q128.52 29.39 129.20 27.56L129.12 27.47L129.12 27.48Q128.68 27.30 128.30 27.23L128.32 27.25L127.66 27.27L127.60 27.21Q127.69 26.62 128.07 25.74L128.09 25.76L128.27 25.94Q126.59 25.44 125.03 25.44L125.15 25.56L125.05 25.46Q122.77 25.58 118.39 25.96L118.23 25.80L118.22 25.79Q116.41 26.08 114.85 27.07L114.78 26.99L114.74 26.95Q113.67 28.05 113.67 29.95L113.62 29.91L113.52 29.80Q113.59 30.29 113.70 31.51L113.74 31.54L113.72 31.52Q113.68 32.44 113.64 33.05L113.75 33.15L113.70 33.11Q113.73 35.01 114.46 38.74L114.47 38.75L114.51 38.79Q114.86 39.60 115.35 40.09L115.39 40.13L115.65 40.38L115.72 40.41L115.73 40.43Q116.77 42.57 120.69 43.18L120.65 43.15L120.54 43.03Q123.80 43.63 126.47 43.89L126.47 43.90L126.49 43.91Q127.26 43.96 128.17 44.23Z"/><path fill="#333" d="M48.63 20.11L48.66 20.14L48.63 20.11Q44.34 20.12 40.65 19.13L40.68 19.16L40.52 19.00Q42.16 23.69 42.35 28.52L42.36 28.53L42.41 28.58Q42.53 33.31 41.31 37.91L41.34 37.94L41.35 37.95Q44.04 37.22 47.55 37.07L47.70 37.22L47.53 37.05Q51.44 36.86 53.23 34.42L53.38 34.56L53.37 34.56Q54.87 32.48 55.06 28.37L55.12 28.43L55.01 28.32Q55.14 26.62 54.68 24.90L54.61 24.83L54.73 24.96Q53.38 20.14 48.66 20.14ZM36.66 42.06L36.65 42.04L36.76 42.16Q39.56 36.40 39.56 29.70L39.70 29.84L39.62 29.75Q39.64 21.24 35.33 14.24L35.25 14.15L35.32 14.23Q40.61 16.92 48.87 17.11L48.89 17.13L48.88 17.12Q57.78 17.34 58.12 24.50L57.99 24.37L58.10 24.48Q58.17 27.13 58.13 28.58L58.19 28.64L58.20 28.65Q57.96 33.17 57.12 35.34L57.21 35.43L57.18 35.39Q56.88 36.62 56.12 37.46L56.06 37.40L56.06 37.40Q54.67 38.90 52.04 39.40L51.99 39.34L51.94 39.30Q50.43 39.65 47.43 39.88L47.51 39.97L47.38 39.83Q41.42 40.46 36.82 42.22ZM54.58 41.93L54.73 42.09L54.61 41.96Q57.49 41.76 59.12 40.27L59.02 40.17L59.05 40.20Q60.27 38.45 60.24 35.71L60.20 35.67L60.23 35.70Q60.22 34.32 60.06 30.82L60.03 30.79L59.67 26.24L59.72 26.29Q59.48 23.95 58.53 21.86L58.63 21.96L58.62 21.96Q57.98 20.90 57.30 20.25L57.33 20.28L57.31 20.11L57.24 20.04Q55.55 17.10 51.14 16.72L51.16 16.74L51.19 16.76Q48.44 16.57 41.43 15.84L41.62 16.03L41.62 16.03Q38.16 15.38 34.46 13.37L34.66 13.56L34.56 13.47Q39.44 20.90 39.44 29.65L39.47 29.68L39.38 29.59Q39.31 36.52 35.96 42.69L35.97 42.70L35.96 42.69Q36.80 42.58 38.14 42.09L38.16 42.11L38.15 42.10Q37.71 42.84 36.84 44.33L36.92 44.41L36.83 44.32Q39.82 43.20 43.17 42.70L43.28 42.82L43.28 42.82Q45.34 42.48 48.99 42.36L49.03 42.40L48.95 42.32Q52.92 42.29 54.74 42.10ZM54.67 28.35L54.61 28.29L54.77 28.46Q54.38 36.44 47.68 36.82L47.60 36.75L47.60 36.74Q45.73 36.93 43.68 37.20L43.65 37.18L43.55 37.07Q44.40 33.35 44.40 29.70L44.31 29.61L44.42 29.72Q44.31 25.91 43.58 22.07L43.64 22.12L43.57 22.05Q45.95 22.53 50.63 22.53L50.47 22.37L50.48 22.38Q51.86 22.24 53.50 23.19L53.51 23.20L53.49 23.18Q54.81 25.49 54.66 28.34Z"/><path fill="#444" d="M20.95 27.55L21.03 27.62L21.03 27.63Q18.85 27.69 17.57 29.19L17.48 29.10L17.47 29.09Q16.23 30.63 16.12 32.92L16.10 32.89L16.16 32.95Q16.09 35.67 16.93 36.62L16.93 36.62L16.85 36.54Q17.89 37.73 20.21 37.58L20.27 37.64L20.30 37.67Q24.93 37.35 25.31 34.34L25.20 34.23L25.23 34.27Q25.49 33.61 25.49 32.81L25.45 32.77L25.42 32.74Q25.39 30.73 24.24 29.20L24.18 29.14L24.18 29.14Q22.95 27.57 21.01 27.61ZM25.87 37.72L25.82 37.67L25.83 37.68Q24.42 39.89 20.04 40.12L19.97 40.04L20.11 40.19Q15.82 40.23 14.18 39.13L14.30 39.25L14.27 39.21Q13.24 38.22 13.08 36.51L13.12 36.54L13.04 36.46Q13.11 35.47 13.30 33.60L13.21 33.51L13.23 33.53Q13.81 29.32 15.03 27.49L15.07 27.52L14.89 27.35Q16.53 24.87 20.37 24.91L20.37 24.91L20.36 24.90Q22.97 25.04 25.25 27.36L25.34 27.44L25.28 27.38Q25.34 21.50 26.94 14.99L26.95 15.00L26.93 14.99Q28.95 14.68 30.82 13.85L30.69 13.72L30.81 13.84Q28.17 20.41 27.90 27.41L27.90 27.41L27.76 27.28Q27.54 34.51 29.67 41.10L29.60 41.03L29.67 41.11Q28.06 40.52 26.35 40.14L26.32 40.12L26.39 40.18Q26.05 38.85 25.90 37.75ZM28.92 43.20L28.98 43.26L28.98 43.27Q31.06 43.82 33.61 45.34L33.50 45.24L33.64 45.38Q29.73 38.12 29.58 29.82L29.63 29.87L29.63 29.86Q29.47 21.63 32.55 14.25L32.55 14.25L32.56 14.26Q31.95 14.79 30.50 15.44L30.52 15.45L30.49 15.42Q30.89 14.34 31.49 13.12L31.43 13.06L31.46 13.08Q29.14 14.23 26.70 14.80L26.72 14.81L26.64 14.73Q25.20 20.52 24.93 26.62L24.92 26.60L24.82 26.51Q23.00 24.76 20.49 24.65L20.45 24.61L20.53 24.69Q17.11 24.58 15.21 26.68L15.21 26.68L15.22 26.69Q13.36 28.90 12.94 33.58L13.07 33.72L13.02 33.67Q12.64 36.29 12.64 36.71L12.81 36.88L12.71 36.77Q12.78 38.53 13.92 39.59L13.97 39.63L14.04 39.70Q14.21 39.88 14.40 39.95L14.40 39.95L14.81 40.56L14.92 40.66Q15.83 41.95 18.80 42.22L18.76 42.18L18.86 42.28Q20.94 42.31 22.31 42.39L22.40 42.47L22.45 42.52Q26.46 42.53 28.17 41.20L28.23 41.26L28.22 41.25Q28.45 42.06 28.91 43.20ZM22.69 29.97L22.60 29.88L22.61 29.89Q23.63 29.88 24.46 30.37L24.62 30.53L24.51 30.42Q25.00 31.71 25.08 32.74L24.97 32.63L25.07 32.74Q25.45 37.03 20.42 37.37L20.44 37.39L20.43 37.38Q19.40 37.26 18.29 36.99L18.38 37.08L18.46 37.16Q18.13 36.45 18.05 35.92L18.09 35.95L17.97 35.83Q17.99 35.24 18.02 34.63L18.05 34.66L18.14 34.74Q18.28 31.16 20.91 30.17L21.09 30.35L21.06 30.32Q21.89 29.81 22.57 29.85Z"/></svg>