<svg xmlns="http://www.w3.org/2000/svg" width="150" height="50" viewBox="0,0,150,50"><path fill="#444" d="M117.82 40.42L117.76 40.36L117.71 40.32Q113.66 40.56 112.67 38.24L112.67 38.24L112.71 38.28Q113.52 37.38 115.08 35.60L114.96 35.47L114.99 35.50Q115.51 37.55 118.52 37.66L118.49 37.63L118.45 37.59Q121.94 37.77 123.58 36.44L123.49 36.34L123.47 36.32Q124.99 34.84 124.92 32.14L124.95 32.18L124.98 32.21Q124.82 27.13 120.02 27.36L119.97 27.31L119.91 27.25Q117.08 27.39 115.33 28.64L115.38 28.70L114.97 28.44L114.79 28.33L114.75 28.30Q115.19 25.23 115.07 22.49L115.14 22.56L115.07 22.49Q114.97 19.87 114.63 16.56L114.58 16.51L114.54 16.48Q118.36 17.59 122.17 17.48L122.16 17.47L122.12 17.43Q125.79 17.21 129.36 15.96L129.37 15.96L128.88 17.57L128.96 17.65Q128.62 18.37 128.43 19.21L128.32 19.09L128.38 19.15Q125.32 20.25 121.44 20.25L121.41 20.22L121.42 20.23Q120.00 20.26 118.52 20.11L118.52 20.11L118.40 19.99Q118.38 20.74 118.04 25.19L118.05 25.20L118.13 25.28Q118.82 24.67 120.87 24.52L120.98 24.62L120.90 24.54Q124.60 24.75 126.05 26.42L126.12 26.49L126.18 26.55Q127.50 28.03 127.77 31.87L127.73 31.83L127.77 31.88Q127.95 35.98 126.73 37.99L126.75 38.01L126.71 37.97Q124.68 39.86 121.37 40.09L121.51 40.24L121.39 40.11Q120.43 40.22 117.77 40.37ZM123.92 42.76L123.86 42.70L123.80 42.64Q127.32 42.81 129.23 41.71L129.24 41.72L129.10 41.58Q130.20 40.16 130.20 38.07L130.23 38.10L130.17 38.04Q130.08 34.86 129.12 30.75L129.23 30.86L129.13 30.76Q128.88 29.14 127.66 27.73L127.67 27.74L127.56 27.67L127.41 27.44L127.13 27.31L127.07 27.25Q126.66 26.42 126.01 25.74L126.13 25.86L126.20 25.97L126.03 25.79Q124.63 24.24 120.94 24.24L120.98 24.29L120.58 24.15L120.58 24.15Q120.74 23.66 120.93 22.56L120.91 22.53L120.97 22.60Q125.82 22.58 129.86 20.94L129.95 21.04L129.92 21.00Q130.27 19.53 131.23 16.71L131.21 16.70L129.26 17.79L129.12 17.65Q129.55 16.56 130.05 15.42L130.08 15.45L130.06 15.43Q126.19 16.86 122.08 16.93L122.07 16.92L122.11 16.96Q118.02 17.10 114.06 16.00L114.09 16.03L114.04 15.97Q114.75 20.41 114.75 24.83L114.81 24.89L114.75 24.83Q114.76 26.74 114.65 28.65L114.62 28.62L114.71 28.71Q114.90 28.83 115.47 29.13L115.43 29.09L115.44 29.09Q115.75 28.84 116.40 28.49L116.34 28.44L116.47 28.57Q116.33 29.22 116.10 30.75L116.19 30.84L116.16 30.81Q116.59 31.01 117.01 31.23L116.93 31.16L117.02 31.25Q119.84 29.54 121.70 29.54L121.64 29.48L121.62 29.45Q122.92 29.42 124.10 30.06L124.21 30.18L124.27 30.24Q124.58 31.24 124.62 32.19L124.46 32.03L124.64 32.20Q124.62 34.70 123.59 35.81L123.54 35.76L123.59 35.80Q122.16 36.96 119.91 37.19L119.97 37.25L120.08 37.36Q119.02 37.32 118.34 37.25L118.43 37.34L118.44 37.35Q117.52 37.16 116.76 36.81L116.81 36.86L116.69 36.55L116.66 36.75L116.63 36.73Q115.84 36.24 115.31 34.91L115.28 34.88L115.32 34.92Q113.98 36.32 112.31 38.45L112.33 38.48L112.25 38.40Q112.63 39.12 113.47 40.07L113.36 39.96L113.47 40.08Q114.44 41.80 117.26 42.30L117.29 42.33L117.20 42.24Q118.55 42.64 123.91 42.75Z"/><path fill="#222" d="M64.42 15.84L64.40 15.82L64.53 15.95Q66.29 20.68 66.86 25.86L66.97 25.96L66.96 25.96Q70.69 21.85 76.60 17.01L76.43 16.85L76.53 16.95Q79.64 16.55 82.27 15.75L82.40 15.89L75.84 21.51L75.74 21.41Q72.46 24.49 69.61 27.34L69.58 27.32L69.41 27.15Q77.49 36.40 82.55 41.13L82.52 41.09L82.52 41.09Q79.43 40.17 77.10 40.02L77.06 39.98L77.02 39.94Q71.38 34.68 67.08 28.85L67.10 28.87L66.94 28.72Q67.07 35.36 65.21 40.69L65.33 40.81L65.29 40.77Q65.02 40.77 64.53 40.96L64.48 40.91L64.52 41.14L64.56 41.18Q64.35 41.19 61.80 42.11L61.72 42.03L61.85 42.16Q64.80 35.60 64.46 28.14L64.46 28.13L64.35 28.03Q64.09 20.76 60.54 14.25L60.61 14.31L60.96 14.40L61.39 14.71L61.44 14.73L61.51 14.79Q62.33 15.27 64.53 15.95ZM64.70 15.55L64.78 15.63L64.75 15.60Q62.39 14.95 59.77 13.43L59.73 13.39L59.87 13.54Q64.18 20.85 64.18 29.80L64.14 29.76L64.14 29.75Q64.03 36.65 61.06 42.70L61.07 42.72L63.11 41.86L63.07 41.82Q62.86 43.02 62.17 44.31L62.12 44.26L62.15 44.29Q64.40 43.49 66.34 43.08L66.29 43.03L66.38 42.88L66.26 42.76Q66.71 42.92 67.29 42.76L67.26 42.74L67.15 42.63Q68.81 36.71 68.92 31.92L68.93 31.93L68.98 31.98Q71.01 34.42 72.83 36.28L72.85 36.30L72.89 36.34Q74.09 37.46 77.09 40.43L76.96 40.29L76.99 40.33L76.99 40.32Q78.16 41.30 80.02 42.90L79.84 42.72L79.87 42.75Q83.82 43.54 87.28 45.25L87.26 45.23L87.32 45.29Q77.95 36.64 71.70 29.21L71.85 29.36L71.76 29.27Q76.07 24.90 84.83 16.30L84.98 16.45L84.86 16.33Q82.33 17.49 80.31 17.87L80.31 17.87L80.31 17.87Q81.52 16.87 83.84 14.86L83.80 14.81L83.88 14.89Q79.78 16.32 76.43 16.51L76.47 16.54L76.49 16.57Q73.59 18.80 68.72 23.49L68.70 23.47L68.70 23.47Q68.16 20.72 67.59 18.17L67.75 18.33L67.59 18.17Q66.43 18.04 65.44 17.69L65.44 17.69L65.58 17.84Q65.28 17.01 64.71 15.56Z"/><path fill="#333" d="M26.21 41.24L26.26 41.29L23.16 41.04L23.23 41.11Q20.80 40.97 20.00 40.85L20.04 40.89L19.99 40.85Q18.09 40.43 16.91 39.56L16.98 39.62L16.96 39.60Q15.73 38.26 15.50 34.91L15.48 34.89L15.53 34.94Q15.50 34.45 15.43 33.23L15.41 33.22L15.33 33.14Q15.45 32.84 15.38 31.74L15.32 31.68L15.37 31.74Q15.16 30.73 15.20 30.00L15.36 30.16L15.26 30.06Q15.44 28.11 16.47 27.35L16.43 27.31L16.44 27.31Q18.44 26.23 23.27 26.00L23.21 25.94L23.28 26.01Q25.36 25.96 26.16 25.96L26.03 25.83L26.04 25.84Q27.67 25.99 29.04 26.29L29.02 26.27L28.90 26.15Q28.36 27.44 27.83 29.27L27.95 29.39L27.86 29.30Q27.44 29.45 26.94 29.41L26.96 29.42L26.96 29.42Q26.85 29.39 26.31 29.27L26.15 29.11L25.18 28.86L25.29 28.98Q24.27 28.75 23.66 28.79L23.66 28.79L23.61 28.74Q18.82 28.75 18.21 31.56L18.32 31.67L18.33 31.68Q18.09 32.85 18.17 33.80L18.15 33.79L17.99 33.63Q18.22 36.30 19.46 37.38L19.39 37.31L19.50 37.42Q20.70 38.47 23.28 38.50L23.29 38.51L23.30 38.51Q24.87 38.64 25.59 38.34L25.60 38.34L26.52 37.74L26.55 37.77Q27.08 37.54 27.65 37.46L27.70 37.51L27.68 37.49Q27.88 39.25 28.26 40.54L28.30 40.59L28.24 40.53Q28.03 40.92 26.24 41.27ZM29.40 44.13L29.37 44.10L29.40 44.12Q29.90 44.28 30.74 44.36L30.71 44.33L30.72 44.34Q31.42 44.43 31.77 43.86L31.69 43.79L31.63 43.72Q30.48 41.70 29.99 39.61L29.95 39.57L29.90 39.52Q29.61 39.53 29.15 39.53L29.20 39.59L29.07 39.45Q28.72 39.52 28.34 39.71L28.33 39.70L28.33 39.70Q27.94 38.40 27.79 36.99L27.77 36.97L27.92 37.12Q27.16 36.89 25.94 37.46L25.96 37.49L26.01 37.53Q24.76 38.07 24.26 38.07L24.34 38.15L24.27 38.08Q23.88 38.19 23.27 38.15L23.27 38.14L23.31 38.18Q22.42 38.17 20.44 37.60L20.32 37.48L20.27 37.43Q19.94 36.72 19.98 35.58L20.09 35.69L20.08 35.68Q20.28 31.46 25.23 30.93L25.16 30.86L25.22 30.92Q25.93 30.95 27.30 31.29L27.21 31.20L27.29 31.28Q28.53 31.49 29.26 31.46L29.41 31.61L29.30 31.49Q29.75 29.29 30.44 27.46L30.52 27.54L30.45 27.47Q30.02 27.31 29.64 27.24L29.79 27.38L29.02 27.30L28.96 27.24Q29.07 26.66 29.45 25.78L29.49 25.82L29.45 25.79Q28.07 25.59 26.51 25.59L26.50 25.57L26.40 25.48Q23.99 25.46 19.61 25.84L19.68 25.92L19.70 25.94Q17.66 25.99 16.10 26.98L16.23 27.11L16.08 26.96Q14.98 28.02 14.98 29.93L14.83 29.78L14.92 29.88Q14.92 30.29 15.04 31.51L14.95 31.42L14.95 31.42Q15.06 32.49 15.02 33.10L15.06 33.13L15.00 33.07Q15.18 35.12 15.91 38.85L15.87 38.82L15.82 38.77Q16.22 39.62 16.71 40.12L16.81 40.21L16.91 40.32L17.01 40.37L16.88 40.25Q18.07 42.53 21.99 43.14L21.89 43.05L21.85 43.00Q25.15 43.64 27.81 43.91L27.71 43.80L27.79 43.88Q28.46 43.83 29.38 44.10Z"/><path fill="#222" d="M105.16 41.60L105.11 41.55L105.17 41.61Q102.91 41.07 100.74 40.92L100.80 40.97L100.89 41.06Q99.35 39.52 96.69 35.68L96.75 35.74L96.78 35.77Q94.61 38.89 92.21 41.33L92.15 41.27L90.01 41.60L89.96 41.56Q88.89 41.73 87.90 42.00L88.05 42.15L88.03 42.14Q92.19 38.00 95.20 33.89L95.18 33.87L95.18 33.86Q91.89 29.67 86.49 24.87L86.42 24.80L86.52 24.90Q88.84 25.74 91.54 26.15L91.44 26.05L91.50 26.11Q94.80 29.07 96.70 31.77L96.69 31.76L96.79 31.86Q98.94 28.83 101.68 26.32L101.69 26.33L101.71 26.35Q104.63 25.89 106.46 25.39L106.47 25.40L106.57 25.50Q102.01 29.12 98.31 33.69L98.29 33.66L98.33 33.71Q101.58 38.25 105.05 41.49ZM107.91 24.63L107.95 24.67L107.92 24.64Q105.18 25.63 101.64 25.97L101.60 25.93L101.62 25.95Q98.72 28.61 97.01 31.09L97.03 31.11L96.96 31.04Q96.07 30.00 94.43 28.02L94.51 28.10L94.28 28.05L94.25 28.03Q94.06 27.95 93.95 27.95L93.87 27.87L94.06 28.07Q93.15 27.08 91.51 25.63L91.59 25.71L91.60 25.72Q88.06 25.23 85.21 24.01L85.09 23.89L85.21 24.01Q90.67 28.75 94.70 33.89L94.59 33.77L94.61 33.79Q91.41 38.59 87.00 42.89L86.95 42.84L86.96 42.85Q87.14 42.69 90.64 41.85L90.57 41.78L90.58 41.79Q89.18 43.24 87.54 44.58L87.55 44.58L87.40 44.44Q90.59 43.52 93.75 43.33L93.84 43.42L93.85 43.42Q96.22 41.15 98.12 38.41L98.12 38.41L98.21 38.49Q99.49 40.12 100.71 41.30L100.83 41.42L100.82 41.41Q100.95 41.43 101.03 41.50L100.94 41.41L101.22 41.51L101.15 41.43Q102.33 42.47 103.67 43.53L103.83 43.69L103.83 43.70Q107.41 44.23 110.30 45.26L110.19 45.14L110.27 45.23Q104.07 40.74 100.38 35.57L100.45 35.63L100.41 35.59Q104.06 30.56 108.62 26.49L108.65 26.51L108.67 26.53Q107.65 26.80 106.66 27.03L106.57 26.94L104.57 27.42L104.55 27.40Q105.90 26.66 108.07 24.79Z"/><path fill="#333" d="M38.32 14.31L38.34 14.34L38.30 14.29Q42.16 16.89 46.92 17.12L46.80 17.01L46.97 17.17Q51.45 17.20 55.72 15.45L55.66 15.39L55.77 15.51Q55.58 16.11 54.81 18.89L54.72 18.80L54.83 18.90Q51.96 19.81 48.99 19.96L49.14 20.11L48.95 19.91Q46.09 20.18 43.20 19.46L43.23 19.49L43.12 19.38Q43.78 22.97 43.97 26.63L44.04 26.69L44.07 26.72Q46.17 27.03 47.77 26.99L47.72 26.95L47.77 27.00Q48.90 26.91 51.30 26.80L51.38 26.87L51.38 26.87Q51.16 27.34 51.16 28.03L51.29 28.15L51.28 29.48L51.26 29.46Q48.83 29.43 44.04 29.51L44.03 29.50L44.00 29.47Q43.98 33.56 43.40 37.55L43.52 37.67L43.57 37.71Q46.09 36.97 48.83 37.08L48.81 37.06L48.87 37.12Q51.47 37.09 54.06 37.93L54.15 38.02L54.08 37.95Q54.31 38.90 54.57 39.66L54.54 39.63L54.91 41.06L54.93 41.09Q51.83 39.88 48.40 39.88L48.27 39.75L48.34 39.82Q43.43 39.79 39.17 42.03L39.24 42.11L39.19 42.05Q41.41 35.14 41.15 28.03L41.34 28.22L41.33 28.21Q40.92 20.91 38.25 14.24ZM38.76 42.85L38.75 42.84L38.73 42.81Q40.03 42.13 40.79 41.79L40.81 41.81L40.63 41.63Q40.55 42.50 39.98 44.03L40.00 44.05L39.97 44.01Q44.54 42.08 49.61 42.35L49.56 42.30L49.63 42.37Q54.76 42.62 58.75 45.33L58.71 45.29L58.77 45.35Q57.51 42.71 56.82 40.77L56.84 40.79L56.76 40.71Q55.95 40.28 54.96 39.93L54.90 39.88L54.93 39.91Q54.52 38.51 54.37 37.71L54.33 37.67L54.34 37.68Q51.24 36.67 48.08 36.67L48.02 36.61L48.17 36.77Q47.00 36.73 45.86 36.85L45.77 36.76L45.76 36.75Q45.84 35.46 45.88 34.24L45.93 34.29L46.03 31.80L46.04 31.82Q47.88 31.75 49.67 31.79L49.64 31.76L49.69 31.81Q51.51 31.84 53.30 31.99L53.35 32.04L53.32 32.01Q53.26 31.08 53.26 30.12L53.13 29.99L53.13 28.09L52.33 28.17L52.36 28.20Q52.04 28.37 51.58 28.37L51.55 28.34L51.53 28.32Q51.45 27.56 51.61 26.26L51.61 26.27L51.74 26.39Q50.17 26.65 48.99 26.69L48.80 26.51L48.92 26.62Q47.97 26.62 46.14 26.55L46.20 26.61L46.12 26.53Q45.94 25.02 45.75 22.20L45.75 22.20L45.84 22.28Q46.78 22.32 47.77 22.32L47.96 22.51L47.96 22.50Q52.50 22.32 56.19 20.42L56.29 20.52L56.30 20.53Q56.76 18.05 57.63 15.85L57.66 15.87L57.80 16.01Q56.31 16.69 55.47 17.04L55.54 17.10L55.46 17.02Q55.94 16.44 56.40 14.88L56.39 14.87L56.39 14.87Q51.61 16.87 46.74 16.56L46.87 16.69L46.79 16.62Q41.48 16.29 37.63 13.43L37.72 13.52L37.59 13.39Q40.61 20.48 40.92 28.10L40.95 28.13L40.87 28.06Q41.12 35.92 38.61 42.70Z"/></svg>