<svg xmlns="http://www.w3.org/2000/svg" width="150" height="50" viewBox="0,0,150,50"><path fill="#444" d="M95.01 27.61L95.08 27.67L94.95 27.55Q92.78 27.62 91.50 29.12L91.58 29.21L91.62 29.24Q90.32 30.72 90.20 33.00L90.14 32.94L90.06 32.86Q89.95 35.53 90.79 36.48L90.97 36.66L90.83 36.52Q91.94 37.78 94.26 37.63L94.30 37.67L94.28 37.65Q98.86 37.28 99.24 34.27L99.22 34.26L99.29 34.32Q99.48 33.59 99.48 32.79L99.33 32.65L99.35 32.67Q99.35 30.69 98.21 29.16L98.17 29.13L98.14 29.10Q96.94 27.55 94.99 27.59ZM99.83 37.68L99.82 37.67L99.78 37.63Q98.46 39.93 94.08 40.16L94.08 40.15L94.10 40.17Q89.85 40.27 88.22 39.16L88.13 39.07L88.28 39.22Q87.22 38.20 87.07 36.49L87.12 36.54L87.20 36.62Q87.14 35.50 87.33 33.63L87.26 33.56L87.25 33.55Q87.84 29.34 89.06 27.52L88.99 27.45L89.06 27.52Q90.65 24.99 94.49 25.03L94.40 24.94L94.53 25.07Q96.99 25.06 99.28 27.38L99.32 27.42L99.30 27.41Q99.34 21.50 100.94 14.99L100.91 14.97L101.06 15.12Q102.91 14.64 104.78 13.81L104.72 13.75L104.64 13.67Q102.08 20.32 101.81 27.33L101.76 27.28L101.86 27.37Q101.49 34.46 103.62 41.05L103.67 41.10L103.68 41.11Q102.16 40.62 100.45 40.24L100.33 40.12L100.39 40.18Q100.10 38.90 99.95 37.79ZM102.82 43.10L102.89 43.17L102.97 43.26Q104.91 43.68 107.46 45.20L107.49 45.22L107.53 45.27Q103.76 38.14 103.60 29.84L103.67 29.91L103.76 30.00Q103.52 21.69 106.61 14.31L106.57 14.27L106.55 14.24Q105.90 14.74 104.45 15.39L104.47 15.40L104.58 15.51Q104.85 14.30 105.46 13.09L105.44 13.07L105.47 13.09Q103.14 14.23 100.71 14.80L100.58 14.67L100.60 14.69Q99.21 20.53 98.94 26.62L99.01 26.69L98.84 26.52Q96.92 24.68 94.40 24.56L94.43 24.59L94.48 24.64Q91.06 24.53 89.16 26.63L89.07 26.54L89.19 26.65Q87.49 29.03 87.07 33.72L86.99 33.63L87.01 33.65Q86.74 36.39 86.74 36.81L86.78 36.85L86.66 36.73Q86.78 38.53 87.92 39.59L87.91 39.58L88.00 39.67Q88.15 39.82 88.34 39.90L88.37 39.92L88.80 40.54L88.74 40.48Q89.87 42.00 92.84 42.27L92.76 42.18L92.70 42.12Q94.90 42.26 96.27 42.34L96.38 42.45L96.37 42.44Q100.55 42.63 102.27 41.30L102.18 41.21L102.32 41.35Q102.37 41.97 102.83 43.12ZM96.61 29.89L96.66 29.94L96.63 29.91Q97.77 30.02 98.61 30.52L98.51 30.42L98.46 30.37Q99.05 31.76 99.13 32.79L99.01 32.67L99.03 32.70Q99.29 36.87 94.26 37.21L94.26 37.22L94.32 37.27Q93.53 37.39 92.43 37.13L92.41 37.12L92.34 37.04Q92.15 36.47 92.08 35.94L92.09 35.96L92.13 35.99Q92.02 35.28 92.06 34.67L92.03 34.63L92.12 34.73Q92.35 31.23 94.98 30.24L94.96 30.22L95.09 30.35Q95.92 29.85 96.61 29.89Z"/><path fill="#444" d="M120.50 29.27L120.42 29.19L120.47 29.24Q118.63 29.26 117.41 30.60L117.40 30.58L117.33 30.51Q116.14 31.88 115.99 33.78L115.87 33.66L115.97 33.75Q115.75 35.86 116.97 36.87L116.97 36.87L116.97 36.87Q118.28 37.97 120.41 37.89L120.40 37.88L120.30 37.79Q122.71 37.72 123.67 36.77L123.62 36.73L123.66 36.77Q124.66 35.30 124.55 33.47L124.62 33.54L124.51 33.43Q124.49 31.65 123.40 30.46L123.36 30.42L123.33 30.38Q122.34 29.27 120.51 29.27ZM120.30 19.66L120.28 19.65L120.40 19.76Q119.05 19.70 117.71 20.20L117.56 20.05L117.62 20.10Q116.37 20.95 116.60 22.81L116.59 22.81L116.65 22.86Q117.07 26.52 120.42 26.52L120.40 26.50L120.52 26.62Q122.06 26.79 123.05 25.65L123.05 25.65L122.88 25.48Q123.92 24.39 123.96 22.83L123.97 22.84L123.92 22.78Q123.98 21.02 123.26 20.41L123.37 20.52L123.38 20.54Q121.63 19.62 120.33 19.70ZM120.11 40.30L120.11 40.30L116.98 40.21L117.17 40.40Q115.58 40.34 114.25 39.46L114.12 39.34L114.29 39.50Q112.91 38.35 113.07 35.50L112.98 35.42L112.99 35.43Q113.54 28.66 117.16 27.67L117.09 27.61L116.99 27.51Q114.73 26.62 113.40 21.25L113.41 21.26L113.39 21.24Q113.02 19.81 113.10 19.01L113.21 19.12L113.10 19.01Q113.46 16.93 117.15 16.89L117.21 16.95L117.10 16.84Q121.49 16.94 122.94 17.13L122.80 16.99L122.88 17.07Q126.64 17.51 127.09 19.53L127.20 19.64L127.12 19.56Q127.29 20.22 127.29 20.61L127.34 20.65L127.24 20.55Q127.24 21.24 127.05 21.85L127.13 21.93L127.05 21.85Q126.47 26.10 123.54 27.62L123.48 27.56L123.53 27.61Q127.08 28.46 127.58 33.75L127.53 33.70L127.54 33.72Q127.51 33.84 127.55 35.14L127.64 35.22L127.65 35.23Q127.67 37.92 126.07 38.99L126.03 38.95L126.03 38.94Q124.73 39.89 120.16 40.34ZM122.39 42.61L122.44 42.67L125.78 42.73L125.84 42.79Q127.42 42.73 128.94 42.01L128.99 42.06L128.92 41.98Q130.10 41.30 130.17 39.43L130.24 39.50L130.20 39.46Q130.18 38.30 129.80 36.36L129.95 36.50L129.92 36.47Q129.01 31.84 126.92 29.97L126.82 29.87L126.65 29.51L126.47 29.26L126.37 29.05L126.35 29.03Q127.90 27.57 128.82 23.42L128.84 23.44L128.94 23.55Q128.85 23.08 128.93 22.24L128.98 22.29L128.89 22.20Q128.94 21.49 128.86 20.88L129.01 21.03L128.96 20.97Q128.81 19.53 127.63 19.04L127.66 19.07L127.65 19.02L127.55 19.00L127.39 18.83Q127.26 18.25 126.08 17.45L126.07 17.44L126.07 17.40L126.00 17.33Q124.03 16.66 119.96 16.47L120.06 16.57L120.05 16.56Q118.37 16.32 117.00 16.44L117.14 16.58L117.12 16.56Q116.18 16.46 114.88 16.61L114.93 16.66L114.95 16.68Q113.08 17.13 112.85 18.76L112.86 18.78L112.74 18.65Q112.78 19.22 112.82 20.02L112.85 20.05L112.77 19.98Q112.93 20.56 113.50 22.92L113.48 22.90L113.50 22.92Q114.26 26.11 116.01 27.44L115.98 27.41L116.11 27.55L116.18 27.61Q113.30 28.81 112.77 33.98L112.71 33.93L112.81 34.02Q112.69 36.30 112.69 37.22L112.57 37.10L112.66 37.19Q112.64 38.88 113.82 39.79L113.96 39.94L113.83 39.81Q113.90 39.84 114.17 40.03L114.24 40.10L114.25 40.11Q115.27 42.38 122.39 42.61ZM122.14 31.63L122.10 31.59L122.10 31.59Q123.03 31.53 123.90 31.98L123.80 31.88L123.81 31.89Q124.26 32.95 124.22 33.49L124.18 33.44L124.16 33.42Q124.25 33.78 124.25 34.08L124.22 34.06L124.28 34.11Q124.28 36.48 122.00 37.31L121.91 37.23L122.00 37.32Q121.11 37.53 120.31 37.41L120.39 37.50L120.41 37.51Q119.30 37.63 118.16 37.17L118.07 37.08L118.10 37.11Q117.89 36.52 117.97 35.53L117.89 35.45L117.94 35.50Q117.98 33.79 119.18 32.57L119.16 32.55L119.35 32.75Q120.40 31.38 122.00 31.49ZM122.26 22.04L122.28 22.06L122.23 22.02Q123.05 21.92 123.59 22.07L123.69 22.18L123.55 22.84L123.71 23.00Q123.66 24.36 122.75 25.37L122.76 25.38L122.72 25.34Q121.71 26.25 120.34 26.06L120.48 26.20L120.43 26.16Q119.38 26.09 118.96 25.86L119.04 25.94L119.08 25.98Q119.01 25.68 118.89 25.00L118.84 24.94L118.88 24.98Q118.60 23.56 119.82 22.72L119.80 22.70L119.73 22.63Q120.93 22.08 122.33 22.12Z"/><path fill="#444" d="M24.05 20.20L24.01 20.15L23.98 20.12Q19.60 20.05 15.91 19.06L15.91 19.07L15.86 19.01Q17.40 23.60 17.59 28.43L17.63 28.47L17.58 28.42Q17.82 33.27 16.60 37.87L16.70 37.97L16.70 37.97Q19.39 37.24 22.89 37.08L23.03 37.22L23.00 37.19Q26.84 36.92 28.63 34.48L28.65 34.51L28.70 34.55Q30.22 32.49 30.41 28.38L30.47 28.44L30.45 28.42Q30.45 26.60 29.99 24.88L30.06 24.95L29.94 24.83Q28.73 20.15 24.01 20.15ZM11.97 42.03L12.12 42.19L11.97 42.04Q14.97 36.47 14.97 29.77L15.05 29.85L14.90 29.70Q14.86 21.13 10.56 14.13L10.67 14.24L10.75 14.32Q15.88 16.86 24.14 17.05L24.27 17.18L24.13 17.04Q33.05 17.28 33.40 24.44L33.29 24.33L33.46 24.51Q33.50 27.13 33.46 28.58L33.43 28.54L33.41 28.53Q33.43 33.31 32.59 35.48L32.46 35.35L32.53 35.42Q32.16 36.57 31.40 37.41L31.39 37.39L31.33 37.33Q29.95 38.85 27.32 39.34L27.29 39.31L27.46 39.48Q25.88 39.76 22.87 39.99L22.81 39.93L22.72 39.84Q16.61 40.32 12.00 42.07ZM30.04 42.06L30.00 42.02L29.92 41.94Q32.76 41.70 34.40 40.21L34.28 40.09L34.32 40.14Q35.47 38.31 35.43 35.57L35.60 35.75L35.46 35.60Q35.63 34.40 35.48 30.90L35.48 30.90L35.04 26.27L35.09 26.32Q34.81 23.95 33.86 21.86L33.87 21.87L33.93 21.93Q33.44 21.02 32.75 20.37L32.69 20.31L32.58 20.05L32.67 20.14Q31.02 17.23 26.60 16.85L26.61 16.85L26.65 16.89Q23.91 16.70 16.90 15.98L16.94 16.02L16.91 15.99Q13.52 15.41 9.83 13.39L9.88 13.45L9.83 13.40Q14.76 20.88 14.76 29.63L14.66 29.54L14.80 29.68Q14.82 36.70 11.47 42.87L11.45 42.84L11.40 42.80Q12.11 42.55 13.44 42.06L13.37 41.99L13.36 41.98Q12.97 42.77 12.10 44.25L12.23 44.39L12.23 44.39Q15.29 43.33 18.64 42.84L18.52 42.73L18.54 42.74Q20.64 42.45 24.30 42.33L24.37 42.41L24.37 42.40Q28.19 42.22 30.01 42.03ZM30.05 28.41L30.02 28.37L30.02 28.38Q29.70 36.43 23.00 36.81L22.93 36.74L23.02 36.83Q21.03 36.89 18.97 37.16L18.94 37.13L18.90 37.09Q19.59 33.21 19.59 29.56L19.70 29.66L19.71 29.67Q19.66 25.94 18.94 22.09L18.90 22.05L18.87 22.02Q21.25 22.50 25.93 22.50L25.83 22.40L25.85 22.42Q27.28 22.32 28.92 23.28L28.88 23.24L28.94 23.30Q30.11 25.46 29.96 28.31Z"/><path fill="#333" d="M43.22 40.44L43.17 40.38L43.10 40.31Q41.73 40.43 40.17 40.01L40.09 39.93L40.21 40.06Q38.88 39.02 38.73 37.39L38.73 37.39L38.87 37.53Q38.75 37.26 38.94 34.63L38.93 34.62L38.98 34.67Q40.00 34.47 42.01 34.09L42.05 34.12L41.73 34.76L41.81 34.83Q41.62 36.66 43.03 37.24L42.97 37.18L42.93 37.14Q43.78 37.53 45.88 37.53L45.77 37.42L45.87 37.53Q47.50 37.41 47.69 37.33L47.54 37.18L47.56 37.20Q48.54 37.12 49.27 36.62L49.24 36.59L49.27 36.63Q50.58 35.58 50.39 33.48L50.38 33.47L50.50 33.59Q50.36 31.20 48.62 29.64L48.57 29.58L48.53 29.54Q46.73 27.91 44.25 27.91L44.28 27.94L44.29 27.73L44.31 27.74Q44.78 27.80 45.66 27.72L45.64 27.71L45.55 27.61Q47.46 27.50 48.83 26.27L48.90 26.34L48.89 26.33Q50.30 25.13 50.46 23.27L50.43 23.24L50.49 23.31Q50.48 22.87 50.48 22.53L50.39 22.44L50.38 22.43Q50.50 21.03 49.13 20.12L49.12 20.10L49.20 20.18Q47.91 19.32 46.32 19.43L46.32 19.44L46.27 19.39Q44.91 19.17 43.69 19.59L43.70 19.60L43.75 19.64Q42.34 20.21 42.03 21.35L41.97 21.29L42.08 21.40Q41.73 22.01 41.81 22.77L41.91 22.87L41.97 22.93Q40.81 22.57 38.76 21.85L38.90 21.99L38.85 21.94Q38.51 20.15 38.55 19.31L38.66 19.42L38.65 19.41Q38.75 17.88 39.81 17.19L39.86 17.24L39.72 17.10Q41.22 16.58 42.82 16.58L42.75 16.51L42.81 16.57Q45.98 16.55 49.14 16.82L49.13 16.80L49.23 16.90Q54.14 17.17 53.84 20.94L53.87 20.97L53.94 21.04Q53.75 22.41 53.26 23.97L53.26 23.98L53.43 24.15Q52.42 27.13 50.06 28.04L50.12 28.11L50.04 28.03Q52.75 28.65 53.36 32.00L53.30 31.94L53.28 31.91Q53.58 33.13 53.65 35.15L53.60 35.09L53.57 35.06Q53.81 39.61 49.21 40.06L49.18 40.04L49.22 40.07Q48.36 40.01 43.07 40.28ZM48.44 42.68L48.33 42.57L48.41 42.66Q48.91 42.59 51.77 42.66L51.84 42.73L51.86 42.75Q53.46 42.68 55.10 42.04L55.25 42.19L55.16 42.10Q56.42 41.22 56.23 39.47L56.14 39.38L56.10 39.34Q56.04 38.06 55.74 36.31L55.83 36.41L55.77 36.35Q55.04 31.85 53.10 30.21L53.02 30.14L52.84 29.76L52.88 29.77L52.97 29.86Q54.67 28.36 55.43 23.98L55.42 23.97L55.39 23.93Q55.48 23.53 55.59 22.58L55.64 22.63L55.48 22.46Q55.61 21.76 55.53 21.07L55.63 21.17L55.55 21.09Q55.29 19.31 54.00 18.62L54.05 18.68L54.02 18.73L54.03 18.73Q53.64 17.66 52.50 17.12L52.64 17.26L52.61 17.23Q50.99 16.46 45.85 16.15L45.91 16.21L45.98 16.28Q44.32 16.22 42.72 16.22L42.67 16.17L42.62 16.12Q41.12 16.21 39.59 16.86L39.52 16.78L39.49 16.76Q38.36 17.60 38.36 19.36L38.21 19.20L38.37 19.37Q38.26 18.83 38.52 22.18L38.49 22.15L38.51 22.17Q38.94 22.37 40.58 22.98L40.46 22.86L40.43 22.83Q40.48 23.42 40.44 23.91L40.45 23.92L40.43 23.90Q40.47 24.43 40.50 24.96L40.45 24.91L40.54 25.00Q42.29 25.34 44.31 25.46L44.24 25.39L44.40 25.54Q44.16 23.37 45.27 22.53L45.31 22.57L45.38 22.64Q46.17 21.95 48.19 21.72L48.21 21.74L48.20 21.73Q49.29 21.68 49.86 21.87L49.89 21.91L49.97 21.98Q49.90 21.99 49.94 22.10L49.99 22.16L49.93 22.28L50.08 22.89L50.13 22.94Q50.15 23.16 50.12 23.31L49.99 23.18L50.09 23.28Q49.93 24.92 48.41 26.10L48.40 26.08L48.39 26.08Q47.53 27.04 45.51 27.23L45.46 27.18L45.48 27.20Q44.81 27.41 43.94 27.41L43.83 27.30L43.95 27.42Q43.90 27.67 44.05 28.36L44.09 28.40L44.14 28.45Q45.87 28.43 47.32 29.15L47.30 29.14L47.17 29.12L45.63 29.33L45.62 29.32Q45.75 29.75 45.86 30.36L45.78 30.28L45.83 30.33Q47.93 30.22 49.64 31.55L49.59 31.50L49.72 31.63Q49.77 31.83 50.08 33.47L50.09 33.49L50.11 33.50Q50.34 36.48 47.41 36.90L47.42 36.90L47.37 36.86Q45.30 37.15 44.73 37.11L44.82 37.20L44.70 37.08Q44.32 37.05 43.79 36.97L43.85 37.03L43.70 36.42L43.96 36.11L43.96 35.69L43.99 35.38L43.91 35.30Q43.06 35.48 42.26 35.67L42.20 35.61L42.25 35.66Q42.24 35.46 42.24 35.27L42.16 35.18L42.11 35.14Q42.17 34.97 42.17 34.74L42.13 34.70L42.21 34.78Q42.28 34.39 42.43 33.67L42.41 33.65L42.37 33.60Q40.48 33.81 38.62 34.16L38.63 34.17L38.60 34.14Q38.60 34.64 38.49 35.76L38.54 35.81L38.60 35.87Q38.42 36.93 38.42 37.54L38.35 37.47L38.44 37.56Q38.45 39.55 39.82 40.31L39.85 40.33L39.98 40.47Q41.47 42.76 46.19 42.57L46.13 42.50L46.01 42.38Q46.90 42.52 48.42 42.67Z"/><path fill="#222" d="M64.39 41.11L64.38 41.10L64.29 41.01Q67.57 36.86 74.27 28.94L74.24 28.91L74.27 28.95Q68.35 29.15 64.58 27.78L64.65 27.85L64.54 27.75Q63.81 26.25 63.05 24.84L63.14 24.93L63.15 24.94Q67.18 26.38 71.63 26.42L71.72 26.50L71.62 26.41Q76.15 26.52 80.33 25.45L80.41 25.52L80.31 25.43Q79.96 26.15 79.70 26.68L79.59 26.58L79.71 26.70Q77.22 28.97 74.41 32.58L74.41 32.58L69.37 38.66L69.36 38.65Q71.61 38.47 73.86 38.55L73.88 38.57L73.86 38.55Q76.14 38.70 78.39 39.08L78.35 39.04L78.41 39.09Q78.44 39.59 79.17 41.61L79.28 41.72L79.16 41.60Q75.39 40.73 71.40 40.84L71.41 40.86L71.44 40.88Q67.58 41.10 63.93 42.28L63.91 42.26L63.92 42.28Q63.96 42.09 64.42 41.14ZM63.21 42.75L63.23 42.76L63.28 42.82Q64.10 42.53 65.70 42.11L65.59 42.00L65.71 42.12Q65.34 42.21 64.93 42.63L64.98 42.69L65.05 42.76Q64.85 43.36 64.24 44.50L64.17 44.42L64.18 44.44Q68.96 43.16 73.95 43.32L73.94 43.31L73.77 43.14Q78.82 43.39 83.39 45.26L83.47 45.33L83.42 45.29Q81.93 43.38 81.01 41.32L81.10 41.41L81.01 41.32Q80.32 41.09 79.26 40.86L79.15 40.75L79.19 40.79Q79.07 40.14 78.69 38.69L78.54 38.55L78.54 38.54Q77.11 38.33 73.53 38.22L73.62 38.30L73.59 38.27Q75.82 34.80 80.85 28.44L80.89 28.49L80.98 28.58Q81.16 27.76 81.84 26.43L81.76 26.35L79.54 27.17L79.61 27.24Q79.60 27.08 79.75 26.96L79.88 27.09L79.92 26.75L80.07 26.90Q80.36 25.67 80.93 24.72L80.93 24.71L81.00 24.79Q76.38 26.18 71.66 26.11L71.61 26.05L71.73 26.17Q66.88 26.04 62.38 24.21L62.34 24.17L62.47 24.30Q63.49 26.01 64.29 28.06L64.37 28.14L64.35 28.12Q65.11 28.35 66.18 28.62L66.16 28.60L66.16 28.60Q66.49 29.42 66.79 30.87L66.80 30.88L66.84 30.92Q68.41 31.15 71.72 31.31L71.62 31.21L71.59 31.17Q69.32 34.62 64.14 41.05L64.11 41.02L64.10 41.01Q63.81 41.55 63.24 42.77Z"/></svg>