<svg xmlns="http://www.w3.org/2000/svg" width="150" height="50" viewBox="0,0,150,50"><path fill="#333" d="M30.29 40.30L30.40 40.41L30.29 40.30Q27.34 36.43 24.72 27.79L24.74 27.81L24.69 27.77Q24.13 25.72 23.33 23.59L23.26 23.51L20.45 32.35L20.36 32.27Q18.71 37.35 16.31 40.59L16.29 40.57L16.25 40.52Q15.30 40.49 13.66 40.65L13.77 40.75L13.71 40.70Q13.94 39.63 13.94 38.37L13.88 38.31L13.77 38.20Q13.95 32.36 11.20 26.23L11.06 26.08L11.14 26.16Q7.97 19.23 2.11 14.25L2.04 14.18L2.11 14.25Q4.24 14.93 6.60 15.46L6.57 15.43L6.57 15.43Q15.33 23.96 16.62 34.93L16.55 34.86L16.56 34.86Q18.16 31.51 19.60 26.14L19.72 26.26L19.75 26.29Q21.64 18.70 22.13 17.29L22.18 17.34L24.47 17.38L24.34 17.25Q25.22 19.46 25.86 21.78L25.82 21.74L26.90 26.01L27.05 26.17Q28.54 31.54 29.95 34.78L29.97 34.80L29.99 34.82Q31.72 23.26 39.64 15.91L39.49 15.77L39.51 15.79Q41.07 15.48 44.04 14.83L44.03 14.82L44.03 14.82Q38.67 19.10 35.63 25.23L35.71 25.31L35.68 25.28Q32.53 31.45 32.53 38.23L32.56 38.26L32.50 38.21Q32.49 39.29 32.56 40.43L32.74 40.61L31.44 40.34L31.44 40.34Q31.00 40.43 30.43 40.43ZM36.57 43.23L36.72 43.37L36.70 43.35Q35.28 39.61 35.39 35.73L35.53 35.87L35.48 35.81Q35.79 24.25 45.16 15.99L45.10 15.93L45.22 16.05Q44.17 16.18 42.23 16.72L42.29 16.78L42.24 16.73Q43.15 15.85 45.05 14.06L45.11 14.11L45.19 14.19Q42.47 14.90 39.54 15.40L39.47 15.32L39.49 15.34Q32.12 22.60 30.22 32.08L30.24 32.10L30.19 32.05Q29.67 30.46 26.82 19.00L26.75 18.94L26.82 19.00Q26.35 19.03 25.40 19.03L25.43 19.06L25.00 17.87L24.96 17.84Q24.91 17.36 24.68 16.87L24.66 16.85L21.74 16.82L21.77 16.85Q20.98 19.33 19.70 24.45L19.61 24.36L19.63 24.38Q18.46 29.60 17.47 32.08L17.51 32.12L17.44 32.04Q15.78 24.07 10.22 17.75L10.29 17.82L10.34 17.87Q9.84 17.78 8.88 17.59L8.95 17.66L8.84 17.55Q8.24 16.83 6.67 15.19L6.58 15.10L6.58 15.10Q3.15 14.25 0.98 13.45L0.97 13.45L1.10 13.58Q6.67 18.16 9.95 24.37L9.90 24.32L9.98 24.40Q13.44 31.02 13.44 38.02L13.49 38.08L13.35 37.93Q13.43 39.57 13.24 41.17L13.19 41.12L13.30 41.23Q13.43 41.13 13.88 41.04L13.93 41.08L13.83 40.99Q14.38 40.98 14.61 40.98L14.62 40.99L14.58 41.98L14.57 41.97Q14.63 42.49 14.70 43.02L14.64 42.96L14.71 43.02Q15.83 42.93 18.12 42.78L18.13 42.79L18.19 42.85Q21.75 37.39 24.49 27.98L24.49 27.98L24.43 27.92Q27.25 36.75 30.22 40.71L30.19 40.69L30.20 40.70Q30.74 40.78 31.58 40.89L31.53 40.85L31.47 40.78Q32.35 41.86 33.42 42.93L33.50 43.01L33.53 43.04Q34.17 42.96 36.57 43.23Z"/><path fill="#444" d="M67.85 33.21L67.93 33.29L68.00 33.35Q67.72 36.04 66.54 40.69L66.63 40.78L66.70 40.84Q64.90 41.37 63.30 42.17L63.19 42.06L63.18 42.05Q65.76 35.00 65.50 27.57L65.68 27.76L65.54 27.62Q65.32 20.28 62.24 13.54L62.16 13.46L62.28 13.59Q64.21 14.83 66.07 15.40L66.00 15.33L66.06 15.38Q68.21 22.37 68.21 29.03L68.08 28.90L68.24 29.06Q68.08 30.35 68.01 31.84L68.00 31.83L68.02 31.85Q69.26 30.73 74.48 25.78L74.43 25.74L74.54 25.84Q75.64 25.84 76.63 25.77L76.56 25.70L78.66 25.55L78.55 25.44Q75.56 28.62 71.26 32.39L71.27 32.40L71.18 32.30Q74.56 35.07 81.03 40.90L80.95 40.82L81.08 40.95Q78.36 40.06 75.39 39.86L75.31 39.79L75.25 39.72Q72.73 37.63 67.86 33.21ZM77.79 42.42L77.85 42.48L77.87 42.50Q82.56 43.30 85.68 45.24L85.75 45.32L85.72 45.29Q84.60 44.05 81.97 41.65L81.98 41.66L81.93 41.61Q82.18 41.70 82.44 41.82L82.35 41.73L82.41 41.78Q80.33 39.79 78.09 37.88L78.04 37.84L73.68 34.01L73.53 33.86Q78.47 29.62 80.91 26.73L80.95 26.78L80.94 26.76Q79.84 26.96 77.37 27.23L77.32 27.18L77.28 27.14Q78.94 25.75 79.63 24.92L79.62 24.91L79.60 24.89Q76.86 25.42 74.39 25.42L74.38 25.42L74.25 25.29Q73.01 26.76 70.27 29.42L70.16 29.31L70.24 29.38Q70.25 23.61 69.26 17.79L69.18 17.71L69.29 17.81Q68.43 17.49 66.95 17.23L67.06 17.34L67.08 17.35Q66.84 16.55 66.39 15.06L66.31 14.99L66.36 15.04Q63.69 14.20 61.45 12.64L61.58 12.77L61.44 12.64Q64.85 19.43 65.20 27.54L65.21 27.56L65.24 27.58Q65.58 35.50 62.57 42.73L62.52 42.69L62.56 42.72Q63.28 42.45 64.61 41.81L64.64 41.83L64.57 41.77Q64.42 42.68 63.77 44.12L63.68 44.03L63.84 44.19Q66.56 42.99 68.69 42.61L68.77 42.68L68.71 42.63Q69.32 40.15 69.81 35.89L69.81 35.88L69.73 35.81Q72.44 38.17 77.88 42.51Z"/><path fill="#333" d="M120.09 40.16L120.16 40.24L120.22 40.29Q116.62 40.27 114.98 39.73L115.01 39.76L115.10 39.86Q113.16 39.25 112.85 35.86L112.72 35.73L114.29 34.78L114.18 34.68Q114.88 34.11 115.64 33.62L115.60 33.58L115.75 33.73Q115.51 35.66 117.11 36.88L117.03 36.80L116.95 36.72Q118.24 37.75 120.38 37.56L120.37 37.55L120.36 37.54Q124.74 37.12 124.55 33.58L124.57 33.60L124.71 33.74Q124.50 31.44 121.88 30.23L121.94 30.29L121.82 30.16Q119.10 29.24 116.74 28.02L116.67 27.95L116.59 27.87Q114.12 26.62 113.13 21.94L113.15 21.95L113.06 21.86Q113.05 21.51 112.93 20.75L112.90 20.71L112.86 20.68Q112.72 19.85 112.79 19.28L112.79 19.27L112.96 19.45Q112.98 17.71 114.23 17.25L114.28 17.30L114.22 17.23Q116.60 16.35 120.60 16.54L120.66 16.60L120.64 16.58Q122.51 16.73 123.31 16.81L123.33 16.84L123.36 16.86Q124.78 16.99 125.85 17.44L125.79 17.39L125.96 17.56Q128.00 17.96 128.22 20.43L128.16 20.36L128.27 20.48Q127.20 21.15 124.99 22.49L125.01 22.51L124.93 22.43Q124.50 19.41 120.12 19.41L120.09 19.38L120.19 19.48Q118.30 19.50 117.32 20.18L117.25 20.11L117.24 20.11Q116.00 20.54 116.23 22.33L116.26 22.36L116.28 22.38Q116.59 24.63 119.56 26.15L119.57 26.17L119.55 26.15Q120.04 26.34 124.54 27.97L124.55 27.98L124.55 27.98Q127.17 29.47 127.59 33.84L127.68 33.93L127.61 33.86Q127.66 34.07 127.74 35.33L127.79 35.37L127.72 35.31Q127.79 38.08 126.23 39.18L126.17 39.13L126.24 39.19Q124.27 40.04 120.08 40.15ZM122.44 42.59L122.49 42.64L122.47 42.62Q123.93 42.71 125.91 42.71L125.88 42.68L125.90 42.70Q128.07 42.78 129.33 42.36L129.29 42.32L129.31 42.34Q130.50 41.47 130.42 39.68L130.37 39.63L130.34 39.60Q130.36 38.67 129.98 36.62L129.95 36.58L129.97 36.61Q129.07 31.94 126.98 30.07L126.95 30.05L126.98 30.08Q126.11 28.41 124.78 27.68L124.97 27.88L119.46 25.60L119.59 25.73Q119.17 25.46 118.71 25.23L118.87 25.39L118.77 25.02L118.59 24.50L118.58 24.49Q118.47 23.13 119.62 22.52L119.57 22.48L119.59 22.49Q120.44 22.01 122.15 21.82L122.11 21.78L122.19 21.86Q123.29 21.70 124.43 22.16L124.46 22.18L124.31 22.04Q124.51 22.28 124.70 23.11L124.61 23.02L124.55 22.96Q124.74 22.81 125.24 22.58L125.38 22.73L125.33 22.68Q126.12 23.66 126.23 24.80L126.18 24.75L126.09 24.65Q126.28 24.73 129.93 22.14L129.86 22.07L129.95 22.16Q129.67 19.51 128.22 18.83L128.13 18.74L128.15 18.76Q127.64 17.56 126.20 17.03L126.13 16.97L126.10 16.94Q123.96 16.28 120.76 16.28L120.64 16.16L120.76 16.28Q115.75 16.18 113.89 16.87L113.98 16.96L113.98 16.96Q112.64 17.41 112.52 19.08L112.50 19.06L112.51 19.07Q112.38 19.51 112.79 21.71L112.94 21.86L112.88 21.80Q113.45 25.45 115.62 27.70L115.60 27.68L115.68 27.76Q116.42 29.41 117.92 30.10L118.07 30.24L118.00 30.17Q119.49 30.84 123.41 32.40L123.41 32.40L123.33 32.37L124.03 32.75L124.09 32.86L124.04 32.80Q124.22 33.25 124.25 33.59L124.24 33.58L124.40 33.74Q124.35 37.07 120.42 37.22L120.38 37.18L120.55 37.35Q119.22 37.20 117.93 36.82L118.04 36.93L118.07 36.97Q117.70 36.10 117.70 35.37L117.74 35.42L117.70 35.37Q117.70 35.11 117.74 34.84L117.63 34.73L117.68 34.78Q117.32 35.07 116.52 35.56L116.58 35.62L116.59 35.63Q116.09 34.52 116.24 33.15L116.22 33.14L116.19 33.10Q114.04 34.23 112.44 35.64L112.56 35.75L112.43 35.62Q112.50 36.46 112.58 37.49L112.52 37.42L112.52 37.43Q112.83 39.14 114.12 39.90L114.23 40.01L114.19 39.97Q115.47 41.86 118.02 42.24L117.97 42.19L118.07 42.29Q119.55 42.44 122.48 42.63Z"/><path fill="#222" d="M46.42 29.19L46.47 29.24L46.40 29.16Q44.59 29.23 43.38 30.56L43.30 30.48L43.39 30.57Q42.07 31.80 41.92 33.71L42.07 33.86L41.96 33.75Q41.82 35.93 43.04 36.94L42.95 36.86L43.05 36.95Q44.14 37.84 46.28 37.76L46.39 37.87L46.30 37.78Q48.65 37.66 49.60 36.71L49.55 36.66L49.69 36.80Q50.61 35.24 50.50 33.42L50.52 33.44L50.52 33.44Q50.38 31.55 49.30 30.35L49.24 30.29L49.25 30.30Q48.15 29.09 46.33 29.09ZM46.32 19.69L46.30 19.67L46.45 19.81Q44.95 19.61 43.62 20.11L43.57 20.05L43.59 20.07Q42.40 20.98 42.63 22.85L42.48 22.70L42.56 22.78Q43.16 26.61 46.51 26.61L46.36 26.46L46.38 26.48Q48.04 26.77 49.03 25.63L49.05 25.65L49.06 25.66Q49.91 24.38 49.95 22.82L49.94 22.81L50.03 22.90Q49.98 21.02 49.26 20.41L49.32 20.48L49.26 20.42Q47.68 19.67 46.38 19.74ZM46.09 40.27L46.10 40.29L43.06 40.29L43.05 40.28Q41.62 40.37 40.28 39.50L40.20 39.42L40.23 39.44Q38.94 38.38 39.10 35.53L39.01 35.45L38.92 35.36Q39.50 28.63 43.12 27.64L43.13 27.65L42.98 27.49Q40.79 26.68 39.46 21.31L39.51 21.37L39.40 21.25Q39.12 19.91 39.20 19.11L39.14 19.05L39.11 19.02Q39.43 16.91 43.12 16.87L43.09 16.83L43.22 16.96Q47.35 16.79 48.80 16.98L48.81 16.99L48.83 17.01Q52.62 17.49 53.08 19.51L53.08 19.52L53.06 19.50Q53.29 20.22 53.29 20.60L53.20 20.51L53.28 20.60Q53.23 21.23 53.04 21.84L53.08 21.87L53.12 21.92Q52.55 26.18 49.62 27.70L49.45 27.53L49.48 27.56Q52.96 28.35 53.46 33.64L53.50 33.68L53.62 33.80Q53.61 33.94 53.65 35.24L53.65 35.23L53.57 35.15Q53.62 37.88 52.02 38.94L52.12 39.04L51.97 38.89Q50.67 39.83 46.10 40.29ZM48.42 42.64L48.42 42.65L51.81 42.76L51.81 42.76Q53.56 42.87 55.08 42.15L55.01 42.08L55.06 42.13Q56.20 41.40 56.27 39.53L56.18 39.44L56.28 39.54Q56.30 38.42 55.92 36.48L55.88 36.44L55.83 36.39Q54.85 31.68 52.76 29.81L52.83 29.88L52.70 29.56L52.48 29.27L52.24 28.91L52.26 28.94Q53.99 27.66 54.91 23.51L54.86 23.46L54.91 23.52Q54.88 23.10 54.95 22.26L54.99 22.30L55.04 22.35Q55.09 21.64 55.01 21.03L54.94 20.96L54.85 20.87Q54.80 19.52 53.62 19.02L53.70 19.11L53.70 19.07L53.37 18.82L53.38 18.83Q53.27 18.26 52.09 17.46L52.08 17.45L52.02 17.35L52.10 17.43Q50.02 16.65 45.95 16.46L45.97 16.48L46.00 16.51Q44.43 16.39 43.06 16.50L43.15 16.59L43.10 16.54Q42.20 16.48 40.90 16.63L40.95 16.68L40.92 16.65Q39.07 17.12 38.85 18.76L38.72 18.64L38.78 18.69Q38.78 19.23 38.82 20.03L38.87 20.07L38.88 20.09Q38.94 20.56 39.51 22.92L39.43 22.84L39.53 22.94Q40.19 26.04 41.94 27.38L42.12 27.55L42.11 27.55L42.20 27.63Q39.29 28.80 38.76 33.97L38.76 33.97L38.85 34.07Q38.71 36.33 38.71 37.24L38.58 37.11L38.61 37.13Q38.67 38.91 39.85 39.82L39.91 39.88L39.88 39.85Q39.95 39.89 40.22 40.08L40.19 40.05L40.18 40.04Q41.27 42.38 48.38 42.61ZM48.14 31.63L48.08 31.57L48.04 31.53Q49.06 31.56 49.93 32.01L49.81 31.89L49.90 31.98Q50.23 32.92 50.19 33.45L50.13 33.39L50.18 33.44Q50.15 33.67 50.15 33.98L50.30 34.14L50.29 34.12Q50.28 36.47 48.00 37.31L47.85 37.17L48.01 37.33Q47.23 37.65 46.43 37.53L46.43 37.54L46.44 37.55Q45.27 37.59 44.13 37.14L44.08 37.09L44.15 37.16Q43.92 36.54 43.99 35.55L43.94 35.50L43.94 35.50Q44.08 33.89 45.28 32.67L45.31 32.70L45.32 32.71Q46.37 31.35 47.97 31.46ZM48.26 22.04L48.37 22.16L48.33 22.11Q49.16 22.03 49.69 22.18L49.70 22.18L49.70 22.99L49.63 22.92Q49.68 24.38 48.77 25.39L48.68 25.29L48.69 25.31Q47.80 26.34 46.43 26.15L46.32 26.04L46.47 26.19Q45.52 26.23 45.10 26.00L45.01 25.91L45.03 25.94Q44.96 25.63 44.84 24.94L44.93 25.03L44.91 25.01Q44.59 23.55 45.81 22.72L45.73 22.64L45.77 22.67Q46.89 22.04 48.30 22.08Z"/><path fill="#222" d="M98.26 32.23L88.87 22.08L88.96 22.17Q89.70 25.76 89.70 29.49L89.78 29.57L89.72 29.51Q89.87 35.64 87.81 41.20L87.77 41.16L87.69 41.07Q86.63 41.35 84.39 42.11L84.46 42.18L84.46 42.18Q87.28 36.40 87.28 29.70L87.30 29.72L87.26 29.68Q87.29 21.06 82.80 13.64L82.80 13.64L82.82 13.66Q83.16 13.74 83.85 14.16L83.76 14.07L83.84 14.15Q95.98 25.42 103.82 34.67L103.88 34.73L103.88 34.73Q103.57 32.29 103.57 29.85L103.46 29.74L103.44 29.72Q103.47 22.51 105.98 16.31L106.04 16.37L106.08 16.41Q108.30 15.77 109.90 15.09L109.83 15.01L110.00 15.18Q106.69 21.35 106.38 28.51L106.38 28.50L106.29 28.41Q105.93 35.71 108.90 41.88L108.89 41.87L108.88 41.85Q108.34 41.81 107.92 41.62L107.89 41.59L107.91 41.61Q103.42 37.73 98.21 32.17L98.25 32.22ZM111.52 45.07L111.50 45.05L111.66 45.21Q111.98 45.22 112.40 45.41L112.54 45.55L113.25 45.77L113.30 45.82Q108.16 38.89 108.16 29.52L108.26 29.62L108.19 29.56Q108.19 22.32 111.50 16.08L111.43 16.01L111.55 16.13Q110.79 16.24 109.38 16.85L109.45 16.92L109.45 16.92Q109.77 16.02 110.60 14.46L110.62 14.48L110.70 14.55Q108.14 15.34 105.70 15.91L105.67 15.88L105.78 15.99Q103.19 22.50 103.19 29.92L103.13 29.86L103.04 29.78Q103.17 31.76 103.36 33.74L103.25 33.64L103.38 33.77Q98.61 27.97 93.86 23.37L93.92 23.44L83.90 13.79L83.71 13.61Q83.18 13.34 81.96 12.77L82.11 12.91L81.99 12.80Q86.82 20.48 86.82 29.58L86.96 29.72L86.81 29.57Q86.96 36.84 83.87 42.85L83.86 42.84L83.83 42.81Q84.17 42.73 85.81 42.12L85.75 42.07L85.72 42.03Q85.39 42.81 84.56 44.30L84.65 44.39L84.56 44.30Q85.96 43.83 89.42 43.03L89.35 42.96L89.37 42.98Q91.79 36.95 91.79 29.76L91.77 29.74L91.75 29.72Q91.67 27.54 91.44 25.41L91.54 25.51L91.50 25.47Q103.07 38.37 111.67 45.22Z"/></svg>