<svg xmlns="http://www.w3.org/2000/svg" width="150" height="50" viewBox="0,0,150,50"><path fill="#444" d="M75.43 29.59L75.40 29.56L75.34 29.50Q74.16 28.74 73.51 28.78L73.44 28.71L73.53 28.80Q72.09 28.80 71.04 29.81L71.04 29.80L71.17 29.93Q70.11 30.93 70.22 32.30L70.25 32.33L70.15 32.22Q70.47 36.59 69.60 41.12L69.68 41.20L69.67 41.19Q67.29 41.47 66.18 42.01L66.18 42.00L66.27 42.09Q67.81 37.95 67.58 33.50L67.45 33.37L67.45 33.38Q67.22 28.88 65.51 24.81L65.69 24.98L65.63 24.93Q66.66 25.50 68.94 26.15L68.93 26.13L69.55 28.89L69.63 28.97Q70.32 26.08 74.59 26.08L74.44 25.94L74.59 26.08Q74.82 25.86 75.13 25.86L75.19 25.92L75.30 26.03Q76.43 25.87 77.69 26.56L77.77 26.63L77.78 26.65Q76.49 28.02 75.35 29.51ZM76.93 31.47L77.00 31.38L77.06 31.45Q77.98 30.32 79.66 27.88L79.69 27.91L79.62 27.84Q79.19 27.53 77.67 27.26L77.56 27.15L77.65 27.24Q77.99 26.93 78.44 26.32L78.42 26.30L78.42 26.30Q76.58 25.45 74.64 25.64L74.61 25.61L74.57 25.57Q72.53 25.67 71.81 25.93L71.92 26.04L72.00 26.12Q70.49 26.44 69.69 27.54L69.61 27.47L69.53 26.74L69.38 25.94L69.31 25.87Q66.92 25.46 64.94 24.13L64.88 24.07L65.01 24.20Q67.12 28.55 67.35 33.42L67.39 33.46L67.36 33.43Q67.53 38.29 65.78 42.82L65.76 42.79L65.79 42.83Q66.77 42.25 67.64 41.94L67.70 42.00L67.75 42.05Q67.45 43.12 66.96 44.19L66.99 44.22L66.86 44.09Q69.89 43.43 72.03 43.32L71.95 43.24L72.05 38.62L72.09 38.66Q72.22 36.43 72.22 34.19L72.17 34.13L72.26 34.22Q72.26 33.04 73.17 32.07L73.10 32.00L73.16 32.06Q74.04 31.05 75.18 30.98L75.23 31.03L75.28 31.07Q75.86 30.89 76.58 31.58L76.46 31.46L76.97 31.51ZM71.96 29.69L71.98 29.64L71.90 29.68L71.85 29.58Z"/><path fill="#333" d="M93.16 29.62L93.12 29.58L93.12 29.58Q93.27 33.99 92.54 38.14L92.54 38.14L92.52 38.11Q94.68 37.46 97.77 37.35L97.72 37.30L97.85 37.43Q99.21 37.65 100.27 36.64L100.22 36.58L100.14 36.50Q101.22 35.51 101.22 34.17L101.25 34.20L101.23 34.19Q101.17 33.83 101.14 33.56L101.21 33.63L101.28 33.71Q100.98 30.62 98.73 29.79L98.78 29.83L98.78 29.83Q98.09 29.60 97.40 29.67L97.33 29.60L97.42 29.69Q96.22 29.48 95.19 29.52L95.29 29.62L95.37 29.70Q94.20 29.63 93.18 29.63ZM92.04 19.28L91.92 19.17L91.97 19.22Q92.87 22.56 93.14 26.94L93.09 26.88L93.20 27.00Q94.62 27.08 97.28 27.12L97.23 27.06L97.20 27.03Q100.22 27.16 100.56 23.62L100.59 23.65L100.59 23.65Q100.60 21.53 99.20 20.69L99.27 20.77L99.30 20.80Q98.45 20.33 94.04 19.68L93.98 19.62L93.95 19.59Q92.79 19.36 91.88 19.13ZM88.25 42.03L88.25 42.03L88.36 42.14Q90.88 35.53 90.61 28.14L90.57 28.10L90.43 27.96Q90.28 20.80 87.35 14.33L87.37 14.35L87.26 14.25Q91.05 16.78 97.28 17.02L97.38 17.13L97.26 17.00Q103.55 17.32 103.90 20.22L103.93 20.25L103.91 20.23Q104.19 22.95 102.79 25.62L102.80 25.63L102.81 25.64Q102.08 27.15 100.48 27.84L100.48 27.84L100.47 27.84Q104.12 28.51 104.35 33.88L104.34 33.87L104.34 33.87Q104.33 34.89 104.25 36.30L104.29 36.34L104.30 36.34Q104.30 37.72 103.37 38.65L103.35 38.63L103.42 38.70Q102.38 39.53 101.05 39.68L101.16 39.79L101.15 39.78Q99.61 39.80 98.55 39.80L98.52 39.78L98.55 39.81Q92.89 39.86 88.36 42.14ZM101.05 42.35L101.00 42.30L101.09 42.39Q101.96 42.38 103.82 42.49L103.91 42.58L104.00 42.67Q105.27 42.57 106.38 41.69L106.40 41.72L106.39 41.71Q107.14 40.75 107.03 39.19L107.11 39.27L107.16 39.32Q107.00 38.28 106.27 34.82L106.39 34.94L106.33 34.88Q105.60 31.59 103.73 30.10L103.68 30.05L103.35 29.30L103.27 29.22Q104.97 27.84 105.54 24.07L105.53 24.06L105.67 24.20Q105.78 23.01 105.70 21.61L105.59 21.49L105.74 21.64Q105.71 20.35 104.60 19.52L104.62 19.53L104.60 19.51Q104.12 19.15 104.01 19.11L104.06 19.17L104.15 19.25Q103.75 18.59 102.91 17.79L103.02 17.89L103.04 17.91Q101.58 16.91 97.35 16.72L97.25 16.62L97.16 16.52Q90.69 16.42 86.70 13.53L86.54 13.37L86.72 13.55Q90.00 20.56 90.30 28.10L90.19 27.98L90.25 28.04Q90.62 35.92 87.81 42.84L87.71 42.75L89.73 41.76L89.88 41.91Q89.50 43.05 89.00 44.19L88.86 44.05L88.83 44.02Q93.17 42.20 98.20 42.20L98.16 42.16L98.19 42.19Q99.72 42.31 101.17 42.46ZM98.97 31.85L98.98 31.86L98.99 31.87Q99.60 31.69 100.52 32.14L100.58 32.21L100.59 32.21Q100.77 32.62 100.92 33.68L100.86 33.63L100.92 33.68Q101.09 35.04 100.16 36.08L100.21 36.13L100.13 36.06Q99.21 37.11 97.80 37.00L97.79 36.99L96.22 37.02L96.25 37.05Q95.63 37.22 94.90 37.34L94.85 37.28L94.76 37.20Q95.17 35.48 95.25 32.01L95.21 31.98L95.26 32.03Q95.78 31.82 97.04 31.78L97.11 31.86L97.21 31.95Q98.43 31.88 99.04 31.92ZM97.91 22.23L97.97 22.29L98.37 22.30L98.24 22.18Q98.61 22.32 98.80 22.35L98.72 22.27L99.14 22.31L99.45 22.43L100.07 22.52L100.09 22.54Q100.11 22.71 100.11 23.02L100.10 23.01L100.11 23.55L100.15 23.59Q100.07 24.76 99.19 25.69L99.27 25.78L99.21 25.71Q98.34 26.65 97.12 26.65L97.21 26.74L97.20 26.73Q96.09 26.64 96.09 26.64L96.15 26.71L96.14 26.70Q94.92 26.77 95.26 26.77L95.18 26.69L95.14 26.65Q95.17 25.20 94.87 22.15L94.81 22.10L94.91 22.19Q96.36 22.20 97.88 22.20Z"/><path fill="#222" d="M21.73 29.16L21.84 29.28L21.76 29.19Q19.93 29.23 18.71 30.56L18.66 30.51L18.62 30.47Q17.54 31.94 17.39 33.84L17.25 33.71L17.33 33.79Q17.08 35.86 18.30 36.87L18.36 36.93L18.38 36.95Q19.64 38.00 21.77 37.92L21.62 37.77L21.65 37.80Q23.99 37.66 24.94 36.71L25.00 36.77L24.89 36.66Q26.01 35.31 25.90 33.48L25.88 33.46L25.84 33.43Q25.82 31.66 24.74 30.46L24.69 30.41L24.68 30.40Q23.56 29.17 21.73 29.17ZM21.81 19.84L21.66 19.69L21.68 19.71Q20.32 19.65 18.99 20.14L19.05 20.20L18.92 20.08Q17.62 20.87 17.85 22.73L17.94 22.82L17.83 22.71Q18.40 26.52 21.75 26.52L21.70 26.47L21.76 26.52Q23.40 26.80 24.39 25.65L24.39 25.65L24.39 25.66Q25.27 24.41 25.31 22.85L25.34 22.88L25.30 22.84Q25.41 21.12 24.68 20.51L24.74 20.56L24.78 20.61Q23.01 19.67 21.71 19.74ZM21.49 40.34L21.44 40.30L18.48 40.38L18.48 40.38Q16.95 40.37 15.61 39.49L15.47 39.35L15.48 39.36Q14.15 38.26 14.30 35.40L14.25 35.35L14.26 35.36Q14.84 28.63 18.45 27.64L18.42 27.60L18.40 27.59Q16.15 26.71 14.82 21.34L14.86 21.38L14.84 21.36Q14.35 19.80 14.42 19.00L14.57 19.15L14.60 19.18Q14.87 17.01 18.56 16.97L18.56 16.97L18.43 16.84Q22.69 16.80 24.14 16.99L24.19 17.04L24.16 17.01Q28.02 17.56 28.47 19.57L28.58 19.69L28.53 19.64Q28.52 20.11 28.52 20.49L28.68 20.65L28.60 20.58Q28.59 21.25 28.40 21.86L28.43 21.89L28.51 21.97Q27.77 26.06 24.83 27.58L24.93 27.68L24.85 27.60Q28.47 28.52 28.97 33.81L28.91 33.76L28.80 33.64Q28.92 33.92 28.96 35.21L28.84 35.09L28.99 35.24Q28.97 37.89 27.38 38.96L27.38 38.96L27.47 39.05Q25.93 39.76 21.36 40.22ZM23.76 42.65L23.70 42.59L27.01 42.63L27.07 42.68Q28.78 42.76 30.30 42.04L30.40 42.14L30.32 42.05Q31.37 41.24 31.44 39.37L31.45 39.37L31.50 39.43Q31.65 38.43 31.27 36.49L31.12 36.35L31.28 36.51Q30.35 31.85 28.26 29.98L28.17 29.89L27.92 29.45L27.80 29.25L27.62 28.97L27.66 29.00Q29.29 27.63 30.21 23.48L30.28 23.55L30.20 23.47Q30.22 23.11 30.29 22.27L30.19 22.17L30.32 22.29Q30.41 21.63 30.33 21.02L30.18 20.87L30.38 21.06Q30.21 19.60 29.03 19.10L28.93 19.01L28.99 19.03L28.78 18.89L28.85 18.96Q28.49 18.15 27.31 17.35L27.37 17.41L27.47 17.47L27.37 17.37Q25.48 16.77 21.40 16.58L21.31 16.49L21.27 16.45Q19.86 16.48 18.49 16.60L18.34 16.45L18.47 16.58Q17.70 16.65 16.41 16.80L16.25 16.64L16.36 16.76Q14.45 17.17 14.23 18.80L14.07 18.65L14.17 18.74Q14.12 19.23 14.16 20.03L14.07 19.94L14.20 20.07Q14.15 20.45 14.73 22.81L14.82 22.90L14.87 22.95Q15.55 26.07 17.30 27.40L17.32 27.42L17.38 27.47L17.36 27.46Q14.66 28.83 14.13 34.01L14.23 34.11L14.06 33.94Q13.96 36.24 13.96 37.16L14.03 37.23L13.99 37.19Q14.04 38.94 15.22 39.86L15.22 39.86L15.17 39.81Q15.30 39.90 15.57 40.09L15.56 40.08L15.63 40.16Q16.63 42.41 23.75 42.64ZM23.47 31.63L23.40 31.55L23.46 31.62Q24.26 31.42 25.13 31.88L25.18 31.92L25.21 31.96Q25.60 32.96 25.56 33.49L25.47 33.40L25.47 33.40Q25.55 33.74 25.55 34.05L25.63 34.13L25.53 34.02Q25.64 36.50 23.35 37.33L23.30 37.28L23.30 37.29Q22.39 37.47 21.59 37.36L21.76 37.53L21.76 37.53Q20.65 37.64 19.51 37.18L19.51 37.18L19.50 37.17Q19.22 36.52 19.30 35.53L19.31 35.54L19.26 35.48Q19.43 33.91 20.63 32.69L20.65 32.71L20.67 32.73Q21.71 31.36 23.31 31.47ZM23.69 22.14L23.62 22.07L23.68 22.13Q24.39 21.93 24.93 22.08L25.05 22.20L24.96 22.91L25.01 22.97Q24.87 24.23 23.95 25.24L24.05 25.34L24.12 25.40Q23.15 26.36 21.78 26.17L21.77 26.16L21.80 26.18Q20.70 26.08 20.28 25.85L20.27 25.83L20.33 25.90Q20.41 25.74 20.29 25.06L20.20 24.97L20.14 24.90Q19.96 23.59 21.18 22.75L21.07 22.64L21.09 22.66Q22.20 22.02 23.60 22.05Z"/><path fill="#333" d="M121.31 30.40L121.28 30.37L121.36 30.45Q117.81 36.72 114.38 40.68L114.34 40.64L114.45 40.75Q112.58 41.16 110.14 42.04L110.16 42.06L110.13 42.02Q115.07 36.45 119.83 28.04L119.82 28.03L119.77 27.98Q115.14 20.99 109.16 14.60L109.16 14.60L109.19 14.62Q112.08 15.80 114.36 16.29L114.52 16.46L114.37 16.31Q119.16 21.66 121.59 25.62L121.42 25.44L121.56 25.59Q124.00 21.09 127.92 16.68L127.93 16.69L127.92 16.68Q129.45 16.31 132.65 15.55L132.79 15.68L132.68 15.58Q126.68 22.10 123.21 28.04L123.24 28.07L123.27 28.09Q128.38 36.71 132.76 41.28L132.79 41.31L132.81 41.33Q130.17 40.48 128.08 40.25L128.12 40.30L128.07 40.24Q125.37 37.36 121.45 30.54ZM128.01 40.60L127.95 40.54L128.07 40.66Q128.28 40.61 128.74 40.72L128.73 40.72L128.79 40.77Q129.56 41.50 131.08 43.10L131.00 43.03L131.01 43.04Q134.46 43.93 137.51 45.30L137.49 45.29L137.44 45.23Q130.28 38.61 125.18 29.85L125.29 29.97L125.25 29.93Q129.01 23.29 134.91 16.43L134.97 16.49L134.88 16.41Q133.47 17.09 131.30 17.62L131.23 17.55L131.21 17.54Q132.07 16.61 133.83 14.82L133.93 14.92L133.81 14.80Q131.51 15.77 127.81 16.35L127.86 16.40L127.71 16.24Q124.46 20.23 121.87 24.53L121.71 24.37L121.82 24.48Q120.80 22.77 119.62 21.29L119.63 21.30L117.34 18.36L117.01 18.41L116.99 18.39Q116.81 18.36 116.58 18.29L116.58 18.29L116.65 18.36Q115.88 17.43 114.40 15.87L114.47 15.95L114.54 16.02Q110.65 15.05 108.06 13.68L108.06 13.68L108.13 13.76Q114.73 20.89 119.30 27.93L119.29 27.93L119.40 28.04Q114.98 36.29 109.23 42.87L109.19 42.84L109.21 42.85Q110.51 42.17 112.64 41.60L112.51 41.47L111.30 43.00L111.37 43.07Q111.24 42.94 109.91 44.27L110.05 44.42L110.01 44.38Q113.07 43.37 116.23 42.87L116.16 42.80L116.11 42.75Q120.23 38.34 122.81 33.58L122.75 33.52L122.72 33.48Q125.29 37.73 127.99 40.58Z"/><path fill="#333" d="M45.75 29.87L45.71 29.83L45.74 29.85Q45.56 29.90 45.25 29.90L45.12 29.77L45.27 29.92Q43.89 29.88 42.45 30.71L42.47 30.74L42.41 30.68Q41.07 31.77 41.07 33.67L41.04 33.64L40.98 33.59Q41.16 37.19 42.68 38.52L42.63 38.47L42.60 38.45Q43.46 39.54 45.75 39.54L45.90 39.69L45.85 39.64Q46.11 39.67 46.41 39.67L46.45 39.71L46.48 39.74Q48.10 39.65 49.25 38.01L49.20 37.96L49.19 37.95Q50.25 36.46 50.17 34.67L50.21 34.71L50.20 34.70Q50.31 34.28 50.31 33.86L50.28 33.83L50.22 33.77Q50.34 32.10 48.97 30.94L48.95 30.92L48.99 30.96Q47.50 29.68 45.71 29.83ZM50.15 39.94L50.28 40.07L50.21 40.00Q49.36 42.08 45.63 42.19L45.46 42.03L45.54 42.11Q42.05 42.11 40.45 40.52L40.42 40.49L40.57 40.64Q39.08 38.84 38.28 34.05L38.19 33.96L38.22 33.98Q37.92 32.24 37.92 30.98L37.89 30.95L37.89 30.95Q37.87 29.15 38.60 28.08L38.75 28.24L38.70 28.18Q40.06 26.80 43.03 26.80L42.99 26.76L43.10 26.87Q49.38 26.84 51.29 29.43L51.20 29.34L51.24 29.38Q51.45 28.61 51.87 27.01L51.91 27.04L51.77 26.90Q53.01 26.58 55.44 25.78L55.53 25.87L55.56 25.90Q53.05 31.46 52.82 37.78L52.80 37.75L52.77 37.73Q52.57 43.93 54.71 49.75L54.87 49.92L54.83 49.88Q53.00 49.15 51.21 48.89L51.25 48.92L51.32 48.99Q50.28 44.91 50.17 39.96ZM51.03 49.27L51.01 49.25L50.98 49.22Q51.67 49.34 53.08 49.64L53.20 49.77L53.07 49.64Q53.44 50.50 54.01 51.91L53.95 51.85L53.93 51.83Q56.58 52.61 58.86 53.91L58.80 53.84L58.91 53.95Q54.81 47.30 54.81 38.78L54.72 38.69L54.79 38.76Q54.69 32.30 57.16 26.51L57.26 26.60L57.19 26.53Q56.61 26.95 55.24 27.60L55.17 27.52L55.16 27.52Q55.52 26.77 56.17 25.21L56.24 25.28L56.16 25.21Q54.69 25.83 51.50 26.71L51.49 26.70L51.46 26.67Q51.37 27.27 51.07 28.45L50.96 28.34L51.01 28.39Q49.03 26.52 42.90 26.37L42.87 26.34L42.82 26.29Q39.66 26.26 38.29 27.74L38.25 27.70L38.37 27.82Q37.58 28.93 37.61 30.83L37.47 30.69L37.51 30.73Q37.71 33.82 38.70 37.59L38.65 37.54L38.65 37.54Q39.33 39.97 40.24 40.92L40.25 40.93L40.65 41.33L40.55 41.23Q41.71 43.99 47.16 44.22L47.29 44.35L47.28 44.34Q48.26 44.34 50.09 44.03L50.16 44.10L50.06 44.00Q50.35 46.92 50.96 49.20ZM47.67 32.21L47.54 32.07L47.63 32.16Q48.76 32.23 49.60 32.54L49.56 32.50L49.62 32.56Q49.73 33.01 49.84 33.62L49.77 33.54L49.84 33.61Q49.90 34.14 49.83 34.74L49.79 34.71L49.85 34.76Q49.80 36.62 48.77 37.91L48.88 38.02L48.93 38.07Q47.67 39.40 45.80 39.21L45.87 39.28L45.79 39.20Q44.49 39.19 43.54 38.78L43.66 38.90L43.56 38.79Q43.32 38.10 43.32 36.88L43.33 36.89L43.28 36.84Q43.20 36.45 43.20 36.15L43.25 36.20L43.24 36.19Q43.27 34.47 44.61 33.31L44.64 33.34L44.58 33.28Q45.90 32.11 47.65 32.18Z"/></svg>