<svg xmlns="http://www.w3.org/2000/svg" width="150" height="50" viewBox="0,0,150,50"><path fill="#111" d="M24.04 20.19L23.91 20.06L23.98 20.13Q19.65 20.09 15.95 19.10L15.88 19.03L15.93 19.08Q17.55 23.74 17.74 28.58L17.66 28.50L17.63 28.47Q17.91 33.36 16.69 37.96L16.67 37.94L16.73 38.00Q19.36 37.21 22.87 37.06L22.87 37.06L22.90 37.09Q26.95 37.03 28.74 34.59L28.67 34.52L28.76 34.61Q30.16 32.44 30.35 28.33L30.40 28.38L30.30 28.27Q30.43 26.58 29.98 24.87L30.06 24.94L29.96 24.85Q28.63 20.06 23.91 20.06ZM12.09 42.15L12.03 42.10L12.02 42.09Q14.96 36.46 14.96 29.76L14.86 29.66L14.97 29.77Q14.86 21.13 10.56 14.13L10.57 14.14L10.75 14.32Q15.99 16.97 24.25 17.16L24.22 17.13L24.24 17.15Q33.09 17.32 33.43 24.47L33.48 24.52L33.45 24.50Q33.50 27.14 33.47 28.58L33.55 28.66L33.49 28.61Q33.44 33.32 32.61 35.49L32.48 35.37L32.62 35.50Q32.21 36.62 31.45 37.46L31.30 37.31L31.40 37.41Q29.95 38.85 27.32 39.34L27.33 39.35L27.32 39.34Q25.76 39.64 22.75 39.87L22.89 40.01L22.88 40.00Q16.62 40.32 12.01 42.07ZM30.00 42.02L30.01 42.03L29.92 41.94Q32.76 41.69 34.39 40.21L34.47 40.28L34.33 40.15Q35.46 38.30 35.42 35.56L35.59 35.74L35.47 35.61Q35.60 34.37 35.44 30.87L35.32 30.75L35.03 26.27L35.05 26.29Q34.86 24.00 33.91 21.91L33.92 21.91L33.88 21.88Q33.39 20.97 32.71 20.33L32.71 20.33L32.63 20.10L32.61 20.08Q30.91 17.12 26.49 16.74L26.49 16.74L26.50 16.75Q23.89 16.69 16.89 15.97L16.82 15.90L16.91 15.99Q13.51 15.40 9.82 13.39L9.97 13.54L9.88 13.45Q14.76 20.88 14.76 29.63L14.66 29.54L14.77 29.64Q14.65 36.53 11.30 42.70L11.34 42.73L11.46 42.86Q12.00 42.45 13.34 41.96L13.48 42.09L13.35 41.97Q13.04 42.84 12.17 44.33L12.10 44.25L12.12 44.28Q15.31 43.36 18.66 42.86L18.58 42.79L18.64 42.84Q20.72 42.53 24.38 42.41L24.27 42.31L24.27 42.30Q28.21 42.25 30.04 42.06ZM30.07 28.42L30.09 28.44L29.97 28.33Q29.60 36.33 22.90 36.71L22.94 36.75L22.88 36.69Q21.01 36.88 18.95 37.14L18.95 37.14L18.88 37.07Q19.58 33.20 19.58 29.55L19.76 29.72L19.71 29.68Q19.57 25.84 18.84 21.99L18.83 21.98L18.92 22.07Q21.20 22.44 25.88 22.44L25.95 22.51L25.79 22.35Q27.23 22.27 28.87 23.23L28.97 23.33L28.81 23.17Q30.25 25.60 30.10 28.45Z"/><path fill="#444" d="M123.60 39.87L123.66 39.92L121.68 39.89L121.74 39.94Q120.62 39.78 119.67 39.90L119.65 39.88L119.77 40.00Q120.27 33.71 120.27 29.72L120.27 29.72L120.35 29.80Q116.35 23.10 108.70 14.42L108.69 14.41L108.72 14.45Q110.39 15.31 113.74 16.11L113.76 16.13L113.85 16.22Q118.95 21.85 121.95 27.07L122.00 27.12L121.97 27.09Q124.86 21.41 129.24 16.39L129.24 16.38L129.28 16.43Q131.73 16.06 134.24 15.26L134.18 15.19L134.13 15.15Q128.13 21.29 123.26 29.70L123.32 29.77L123.35 29.79Q123.20 36.69 123.50 39.77ZM132.61 17.20L135.33 14.36L135.32 14.35Q132.21 15.50 129.08 15.96L129.27 16.15L129.10 15.97Q124.98 20.81 122.17 25.91L122.06 25.81L122.05 25.79Q119.96 22.18 116.76 18.30L116.85 18.38L116.89 18.43Q116.56 18.36 116.06 18.28L116.00 18.22L116.09 18.31Q115.27 17.37 113.74 15.70L113.74 15.69L113.92 15.87Q110.52 15.10 107.55 13.54L107.46 13.44L107.44 13.43Q115.25 22.00 120.01 29.91L120.03 29.94L119.93 29.84Q119.75 36.10 119.14 40.24L119.17 40.27L119.21 40.31Q120.08 40.42 121.53 40.31L121.36 40.14L121.38 41.18L121.54 41.35Q121.40 41.67 121.33 42.20L121.33 42.20L121.44 42.31Q124.83 42.16 126.58 42.35L126.73 42.50L126.57 42.34Q125.41 37.75 125.29 31.78L125.37 31.85L125.26 31.75Q129.58 23.23 136.13 15.89L136.29 16.04L132.58 17.17Z"/><path fill="#222" d="M68.35 40.28L68.41 40.35L68.51 40.44Q64.39 40.63 63.40 38.31L63.32 38.22L63.43 38.34Q64.09 37.29 65.65 35.50L65.76 35.60L65.69 35.53Q66.21 37.58 69.22 37.69L69.11 37.58L69.21 37.68Q72.55 37.71 74.19 36.38L74.32 36.52L74.28 36.47Q75.64 34.83 75.57 32.13L75.48 32.03L75.54 32.10Q75.34 26.98 70.54 27.21L70.55 27.23L70.68 27.35Q67.84 27.48 66.09 28.74L66.02 28.67L65.65 28.45L65.59 28.47L65.60 28.48Q65.82 25.19 65.70 22.45L65.82 22.57L65.83 22.58Q65.62 19.85 65.27 16.54L65.35 16.62L65.20 16.47Q68.94 17.51 72.75 17.39L72.65 17.29L72.77 17.41Q76.53 17.29 80.11 16.03L80.07 15.99L79.55 17.56L79.49 17.51Q79.29 18.38 79.10 19.21L78.97 19.08L79.06 19.17Q75.88 20.14 72.00 20.14L72.04 20.19L71.97 20.11Q70.57 20.16 69.09 20.01L69.03 19.95L69.09 20.02Q69.09 20.77 68.74 25.23L68.75 25.23L68.61 25.09Q69.52 24.71 71.58 24.56L71.54 24.52L71.55 24.53Q75.25 24.73 76.69 26.40L76.72 26.43L76.85 26.55Q78.23 28.09 78.50 31.93L78.34 31.77L78.41 31.85Q78.66 36.02 77.44 38.04L77.50 38.09L77.43 38.02Q75.43 39.94 72.12 40.17L72.16 40.22L72.08 40.14Q71.13 40.25 68.46 40.40ZM74.58 42.75L74.52 42.69L74.45 42.62Q77.91 42.73 79.82 41.63L79.81 41.62L79.90 41.72Q80.79 40.09 80.79 38.00L80.78 37.98L80.78 37.99Q80.91 35.03 79.96 30.92L79.96 30.92L79.86 30.82Q79.51 29.10 78.29 27.69L78.32 27.72L78.24 27.68L78.17 27.53L77.75 27.26L77.76 27.27Q77.35 26.44 76.70 25.76L76.72 25.78L76.72 25.81L76.81 25.91Q75.21 24.15 71.51 24.15L71.65 24.28L71.22 24.12L71.31 24.21Q71.38 23.64 71.57 22.54L71.64 22.60L71.55 22.51Q76.55 22.64 80.59 21.00L80.51 20.92L80.51 20.93Q80.99 19.58 81.94 16.77L81.96 16.78L79.83 17.69L79.77 17.63Q80.32 16.67 80.82 15.53L80.65 15.35L80.73 15.44Q76.96 16.96 72.85 17.03L72.81 17.00L72.78 16.96Q68.62 17.03 64.66 15.93L64.76 16.03L64.62 15.88Q65.47 20.47 65.47 24.89L65.30 24.72L65.32 24.73Q65.39 26.71 65.28 28.61L65.23 28.56L65.24 28.57Q65.64 28.90 66.21 29.21L66.13 29.12L66.07 29.06Q66.39 28.81 67.04 28.47L67.16 28.59L67.13 28.56Q67.16 29.39 66.93 30.92L66.81 30.79L66.75 30.73Q67.31 31.06 67.73 31.29L67.74 31.31L67.64 31.20Q70.43 29.46 72.29 29.46L72.35 29.52L72.38 29.54Q73.58 29.41 74.76 30.06L74.87 30.17L74.87 30.17Q75.20 31.19 75.24 32.14L75.18 32.08L75.13 32.03Q75.22 34.63 74.19 35.74L74.32 35.87L74.30 35.84Q72.90 37.03 70.65 37.26L70.62 37.23L70.57 37.18Q69.65 37.29 68.97 37.21L69.08 37.33L69.02 37.26Q68.27 37.24 67.51 36.90L67.47 36.86L67.40 36.60L67.28 36.71L67.23 36.66Q66.52 36.25 65.98 34.92L65.92 34.86L65.97 34.90Q64.66 36.33 62.99 38.47L62.88 38.36L62.90 38.38Q63.19 39.02 64.03 39.97L64.08 40.02L64.03 39.97Q65.23 41.93 68.05 42.42L67.89 42.27L67.91 42.29Q69.20 42.62 74.57 42.74Z"/><path fill="#222" d="M47.30 41.41L47.20 41.32L47.35 41.46Q44.40 41.55 43.14 41.02L43.08 40.96L43.18 41.06Q41.15 40.18 41.23 37.70L41.26 37.74L41.25 37.73Q41.46 34.39 41.46 34.96L41.45 34.96L41.46 34.96Q41.39 29.56 38.53 24.73L38.44 24.64L38.61 24.80Q40.47 25.63 42.45 26.01L42.55 26.11L42.53 26.10Q44.28 30.74 44.16 35.23L44.13 35.20L44.05 35.11Q43.98 36.68 44.82 37.90L44.81 37.89L44.86 37.94Q45.70 39.21 47.23 39.02L47.15 38.94L47.69 38.98L47.65 38.95Q48.97 38.85 49.79 38.09L49.82 38.13L49.67 37.98Q50.55 37.27 50.55 36.32L50.65 36.42L50.49 36.26Q50.66 36.21 50.63 36.02L50.48 35.88L50.54 35.93Q50.37 30.59 51.51 26.25L51.52 26.25L51.54 26.28Q52.67 26.30 53.66 26.07L53.67 26.09L55.73 25.63L55.71 25.61Q53.00 30.48 53.31 36.03L53.45 36.18L53.38 36.11Q53.58 39.20 51.86 40.34L51.90 40.38L51.77 40.25Q50.55 41.19 47.24 41.35ZM49.54 43.72L49.60 43.79L49.66 43.85Q53.09 43.96 54.92 43.20L54.87 43.15L54.88 43.17Q55.78 42.39 55.78 40.98L55.85 41.05L55.76 40.96Q55.69 39.98 55.42 38.41L55.60 38.59L55.49 38.48Q55.05 35.38 55.43 32.38L55.45 32.39L55.36 32.31Q55.90 29.31 57.31 26.56L57.18 26.43L57.28 26.53Q56.49 26.69 55.16 27.11L55.16 27.11L55.20 27.16Q55.48 26.60 55.79 26.03L55.81 26.05L56.43 24.96L56.32 24.85Q54.45 25.57 51.29 26.07L51.27 26.05L51.25 26.02Q50.03 30.82 50.19 35.92L50.18 35.91L50.28 36.01Q50.20 37.95 47.53 38.45L47.52 38.43L47.23 38.60L47.09 38.61L46.07 38.39L46.19 38.51Q45.99 37.51 46.03 37.02L45.98 36.97L46.01 37.00Q46.36 32.63 45.67 28.21L45.64 28.17L44.64 28.09L44.58 28.03Q44.08 28.03 43.55 27.91L43.56 27.93L43.51 27.88Q43.11 26.45 42.84 25.69L42.79 25.64L42.83 25.67Q40.09 25.29 37.84 24.00L37.87 24.03L37.80 23.96Q40.00 27.53 40.72 30.91L40.77 30.96L40.59 30.78Q41.08 32.98 40.93 36.49L40.93 36.48L40.98 36.54Q41.04 36.71 40.96 37.81L40.92 37.78L41.00 37.86Q40.78 40.14 42.15 41.09L42.16 41.11L42.27 41.22Q42.54 43.35 49.54 43.73Z"/><path fill="#111" d="M98.19 32.16L88.86 22.06L89.01 22.22Q89.68 25.74 89.68 29.47L89.72 29.51L89.84 29.63Q89.77 35.53 87.71 41.09L87.69 41.07L87.72 41.10Q86.70 41.42 84.46 42.18L84.35 42.07L84.46 42.18Q87.16 36.28 87.16 29.58L87.21 29.62L87.30 29.71Q87.17 20.95 82.68 13.53L82.81 13.65L82.74 13.58Q83.07 13.64 83.75 14.06L83.82 14.13L83.77 14.08Q95.99 25.43 103.83 34.68L103.81 34.65L103.81 34.65Q103.48 32.19 103.48 29.76L103.39 29.66L103.40 29.67Q103.48 22.53 105.99 16.32L106.06 16.38L105.92 16.25Q108.30 15.77 109.90 15.09L109.96 15.15L109.92 15.11Q106.61 21.27 106.30 28.43L106.40 28.53L106.21 28.34Q105.90 35.68 108.87 41.85L109.01 41.99L109.01 41.99Q108.42 41.89 108.00 41.70L107.89 41.59L108.01 41.71Q103.31 37.62 98.09 32.06L98.15 32.12ZM111.58 45.13L111.55 45.10L111.56 45.11Q112.13 45.37 112.55 45.56L112.37 45.39L113.31 45.83L113.44 45.96Q108.22 38.95 108.22 29.59L108.18 29.55L108.20 29.57Q108.11 22.24 111.42 16.00L111.44 16.01L111.42 15.99Q110.87 16.33 109.47 16.94L109.38 16.85L109.41 16.88Q109.78 16.03 110.62 14.47L110.63 14.49L110.63 14.48Q108.26 15.46 105.82 16.03L105.80 16.01L105.70 15.92Q103.09 22.40 103.09 29.82L103.10 29.84L103.01 29.74Q103.13 31.72 103.32 33.70L103.27 33.66L103.19 33.58Q98.67 28.03 93.91 23.42L93.84 23.35L83.88 13.78L83.82 13.72Q83.17 13.33 81.96 12.76L81.92 12.73L82.03 12.84Q86.86 20.53 86.86 29.63L86.93 29.69L86.91 29.67Q86.83 36.71 83.75 42.73L83.76 42.74L83.88 42.86Q84.17 42.73 85.81 42.12L85.78 42.09L85.79 42.10Q85.41 42.83 84.57 44.31L84.52 44.26L84.61 44.35Q85.93 43.80 89.39 43.00L89.48 43.09L89.31 42.92Q91.77 36.93 91.77 29.74L91.62 29.58L91.66 29.63Q91.78 27.65 91.55 25.52L91.52 25.49L91.40 25.37Q102.94 38.24 111.55 45.10Z"/></svg>