<svg xmlns="http://www.w3.org/2000/svg" width="150" height="50" viewBox="0,0,150,50"><path fill="#333" d="M120.31 29.07L120.35 29.12L120.40 29.17Q118.57 29.05 117.34 30.48L117.33 30.48L117.28 30.43Q116.00 31.81 115.81 33.72L115.81 33.71L115.82 33.73Q115.69 35.87 116.77 36.84L116.63 36.70L116.72 36.80Q117.87 37.83 119.96 37.71L119.84 37.60L119.85 37.60Q122.02 37.52 123.12 36.84L123.18 36.89L123.18 36.89Q124.20 35.67 124.20 34.11L124.20 34.11L124.16 34.07Q124.16 33.68 124.08 33.30L124.17 33.39L124.25 33.47Q124.14 31.61 123.04 30.26L123.07 30.29L123.08 30.30Q122.11 29.09 120.44 29.20ZM119.84 40.14L119.88 40.19L119.98 40.28Q115.64 40.32 114.23 39.56L114.20 39.53L114.23 39.56Q113.14 38.74 112.95 37.02L112.85 36.92L112.95 37.02Q112.88 36.31 112.92 35.58L112.98 35.65L112.96 35.62Q113.04 34.60 113.04 34.14L113.12 34.22L113.02 34.12Q113.40 31.19 113.55 30.50L113.56 30.51L113.62 30.57Q114.06 28.62 114.90 27.21L115.01 27.32L114.91 27.22Q117.61 22.87 123.55 16.51L123.49 16.46L123.61 16.58Q126.29 16.29 128.50 15.49L128.38 15.37L128.38 15.37Q121.50 22.81 118.30 27.03L118.38 27.11L118.36 27.09Q119.26 26.50 120.55 26.50L120.63 26.58L120.72 26.67Q124.06 26.70 125.58 28.64L125.58 28.63L125.47 28.52Q126.88 30.24 127.22 33.78L127.16 33.71L127.09 33.65Q127.32 34.53 127.32 35.14L127.15 34.97L127.33 35.15Q127.23 38.16 125.02 39.23L125.10 39.31L125.05 39.26Q123.89 39.93 120.01 40.31ZM122.19 42.61L122.28 42.70L122.16 42.57Q123.45 42.54 125.43 42.61L125.50 42.68L125.50 42.68Q127.15 42.77 128.71 42.05L128.77 42.11L128.64 41.97Q129.81 41.24 129.81 39.45L129.88 39.52L129.76 39.41Q129.74 38.89 129.57 37.90L129.60 37.93L129.61 37.94Q129.50 37.01 129.50 36.56L129.38 36.43L129.54 36.60Q128.57 31.78 126.98 29.88L126.90 29.80L126.94 29.85Q126.81 29.68 126.66 29.45L126.78 29.57L126.35 29.22L126.26 29.16L126.29 29.20Q126.10 28.85 125.49 27.90L125.44 27.85L125.42 27.83Q124.47 26.84 122.49 26.38L122.57 26.46L122.46 26.35Q123.79 24.87 126.76 21.18L126.68 21.09L131.00 15.90L130.83 15.73Q129.39 16.73 126.99 17.49L126.99 17.49L127.00 17.50Q127.96 16.55 129.75 14.57L129.63 14.45L129.70 14.53Q127.20 15.48 123.31 16.05L123.44 16.18L123.48 16.22Q117.66 22.01 114.69 26.96L114.68 26.95L114.66 26.93Q113.25 29.55 112.67 35.79L112.53 35.65L112.52 35.64Q112.49 36.26 112.57 37.21L112.71 37.35L112.55 37.19Q112.77 39.09 113.88 40.00L113.80 39.92L113.75 39.87Q114.14 40.04 114.10 40.08L114.08 40.06L114.11 40.08Q114.58 41.09 115.38 41.51L115.35 41.48L115.28 41.40Q116.73 42.10 118.67 42.29L118.64 42.25L118.62 42.24Q118.79 42.40 122.29 42.70ZM122.00 31.41L122.03 31.44L122.00 31.41Q122.61 31.34 123.56 31.83L123.46 31.73L123.58 31.85Q123.78 32.66 123.78 33.30L123.90 33.43L123.93 33.46Q124.05 35.26 123.10 36.25L123.02 36.17L123.17 36.31Q122.02 36.95 119.92 37.26L119.89 37.22L119.88 37.21Q118.48 37.26 117.95 36.99L117.97 37.02L118.00 37.04Q117.81 36.59 117.81 36.29L117.69 36.16L117.68 36.15Q117.52 32.95 120.45 31.65L120.41 31.61L120.51 31.72Q121.28 31.38 122.04 31.45Z"/><path fill="#222" d="M15.05 41.10L15.00 41.05L15.04 41.09Q18.19 36.81 24.89 28.90L24.89 28.90L24.98 28.99Q18.99 29.13 15.22 27.76L15.16 27.69L15.21 27.74Q14.52 26.30 13.76 24.89L13.83 24.95L13.83 24.95Q17.91 26.44 22.36 26.48L22.37 26.49L22.45 26.58Q26.82 26.53 31.01 25.46L31.00 25.45L31.00 25.45Q30.59 26.10 30.32 26.64L30.40 26.71L30.36 26.68Q27.90 28.97 25.08 32.59L25.06 32.57L20.00 38.63L20.14 38.76Q22.33 38.52 24.57 38.59L24.51 38.53L24.57 38.59Q26.78 38.67 29.03 39.05L28.91 38.93L28.90 38.92Q29.11 39.58 29.83 41.60L29.89 41.66L29.84 41.61Q26.14 40.81 22.14 40.92L22.04 40.82L22.07 40.85Q18.15 41.00 14.50 42.18L14.47 42.15L14.51 42.20Q14.50 41.96 14.96 41.01ZM13.98 42.85L13.92 42.78L14.01 42.88Q14.78 42.54 16.37 42.12L16.45 42.19L16.37 42.11Q16.16 42.36 15.74 42.78L15.71 42.75L15.57 42.61Q15.38 43.22 14.77 44.36L14.86 44.45L14.85 44.44Q19.54 43.08 24.53 43.23L24.57 43.27L24.49 43.19Q29.52 43.42 34.08 45.29L34.06 45.26L34.00 45.20Q32.68 43.46 31.76 41.41L31.60 41.24L31.68 41.32Q31.00 41.10 29.94 40.87L29.89 40.83L29.89 40.82Q29.63 40.03 29.25 38.59L29.39 38.72L29.29 38.63Q27.82 38.38 24.24 38.26L24.10 38.12L24.16 38.18Q26.54 34.85 31.56 28.49L31.54 28.47L31.66 28.59Q31.93 27.87 32.62 26.54L32.60 26.52L30.19 27.16L30.15 27.12Q30.36 27.17 30.52 27.06L30.44 26.99L30.76 26.92L30.63 26.79Q31.09 25.73 31.66 24.78L31.73 24.85L31.71 24.83Q27.08 26.21 22.36 26.14L22.39 26.17L22.29 26.07Q17.60 26.10 13.11 24.27L13.02 24.18L13.03 24.20Q14.25 26.10 15.05 28.16L14.95 28.06L14.94 28.05Q15.83 28.40 16.89 28.67L16.93 28.71L16.92 28.69Q17.03 29.30 17.34 30.75L17.45 30.86L17.45 30.86Q19.11 31.19 22.42 31.34L22.39 31.31L22.40 31.32Q19.84 34.46 14.66 40.90L14.80 41.04L14.66 40.90Q14.62 41.69 14.05 42.91Z"/><path fill="#444" d="M44.26 26.74L44.31 26.79L44.35 26.83Q46.09 26.94 47.92 26.94L47.90 26.92L47.99 27.00Q49.70 26.93 51.53 26.78L51.54 26.79L51.51 26.75Q51.45 27.46 51.45 28.18L51.37 28.10L51.50 29.57L51.53 29.60Q49.09 29.51 44.33 29.63L44.26 29.56L44.42 29.72Q44.28 35.51 43.14 40.50L43.18 40.54L43.28 40.64Q41.05 41.31 39.57 42.11L39.48 42.02L39.55 42.10Q41.77 35.18 41.51 28.06L41.47 28.03L41.58 28.13Q41.22 20.88 38.55 14.22L38.57 14.23L38.64 14.30Q42.26 16.79 47.02 17.02L47.19 17.18L47.02 17.02Q51.70 17.20 55.85 15.45L55.79 15.39L55.96 15.56Q55.68 16.38 55.45 17.18L55.32 17.06L54.84 18.67L54.88 18.71Q52.18 19.81 49.21 19.97L49.27 20.02L49.17 19.93Q46.22 20.06 43.36 19.33L43.40 19.37L43.50 19.48Q44.17 22.84 44.36 26.84ZM56.55 14.82L56.53 14.80L56.49 14.76Q51.95 16.96 47.08 16.65L46.99 16.56L47.01 16.58Q41.68 16.28 37.95 13.42L37.90 13.38L37.92 13.39Q40.82 20.37 41.13 27.98L41.25 28.11L41.18 28.04Q41.52 35.99 39.00 42.77L38.96 42.72L39.01 42.77Q39.67 42.37 41.04 41.72L40.98 41.66L41.08 41.76Q40.88 42.51 40.31 44.03L40.35 44.08L40.26 43.98Q42.69 43.02 45.58 42.53L45.55 42.49L45.46 42.41Q46.02 37.48 46.21 31.77L46.37 31.93L46.25 31.82Q48.02 31.76 49.85 31.76L49.84 31.75L49.84 31.75Q51.74 31.86 53.57 32.05L53.61 32.09L53.61 32.10Q53.40 31.04 53.40 30.13L53.46 30.19L53.46 28.29L53.40 28.23Q52.57 28.27 51.73 28.27L51.78 28.32L51.84 28.38Q51.81 27.48 51.89 26.45L51.97 26.53L51.84 26.40Q50.61 26.73 49.20 26.73L49.18 26.71L49.06 26.59Q47.62 26.56 46.25 26.52L46.41 26.68L46.25 24.39L46.22 24.36Q46.27 23.35 46.16 22.28L46.14 22.26L46.17 22.29Q47.09 22.30 48.08 22.30L48.05 22.27L48.14 22.36Q52.79 22.25 56.41 20.35L56.40 20.34L56.52 20.47Q57.00 18.62 57.92 16.00L57.86 15.94L57.92 16.00Q56.49 16.70 55.69 17.04L55.78 17.13L55.72 17.07Q55.96 16.28 56.45 14.72Z"/><path fill="#222" d="M65.03 47.17L64.98 47.12L64.96 47.10Q63.93 47.21 62.03 47.52L62.03 47.52L62.06 47.56Q63.34 45.37 64.37 44.07L64.31 44.02L64.32 44.02Q66.21 44.47 66.36 44.47L66.39 44.50L66.26 44.37Q66.63 44.50 67.16 44.39L67.19 44.42L67.09 44.32Q67.86 44.33 68.05 44.33L68.10 44.38L68.01 44.29Q70.66 44.12 70.59 41.95L70.57 41.94L70.53 41.90Q70.54 40.47 70.43 34.22L70.36 34.15L70.37 34.16Q70.36 30.65 70.44 26.50L70.42 26.48L71.71 26.18L71.80 26.26Q72.38 26.09 73.07 25.86L73.05 25.84L73.11 25.90Q72.94 30.37 72.98 34.75L72.88 34.65L72.88 34.66Q72.99 39.10 73.52 43.48L73.58 43.53L73.47 43.43Q73.68 43.86 73.68 44.13L73.63 44.08L73.55 44.00Q73.50 45.59 71.82 45.97L71.82 45.96L71.97 46.11Q68.70 46.35 64.86 47.00ZM71.79 22.95L69.51 19.68L69.51 19.67Q70.60 18.32 72.42 15.54L72.47 15.59L72.34 15.46Q73.14 16.48 74.47 18.31L74.44 18.28L71.75 22.90ZM74.77 49.53L74.76 49.51L74.72 49.47Q75.30 49.56 76.06 49.22L75.98 49.14L75.97 49.12Q76.36 48.49 76.36 48.03L76.37 48.04L76.42 48.09Q76.33 47.66 76.21 47.05L76.24 47.08L76.15 46.98Q74.91 40.68 74.91 32.77L74.78 32.63L74.78 32.63Q74.78 29.78 74.94 26.89L75.11 27.06L75.07 27.02Q74.44 27.12 73.30 27.42L73.31 27.43L73.31 27.44Q73.39 27.02 73.43 26.49L73.31 26.37L73.50 25.38L73.57 25.45Q71.78 26.02 69.99 26.06L70.09 26.15L69.92 25.99Q69.89 30.33 69.93 33.91L69.89 33.87L70.15 41.86L70.20 41.91Q70.15 43.76 67.98 43.88L68.03 43.93L68.11 44.01Q67.71 43.83 67.19 43.89L67.30 43.99L67.26 43.96Q66.80 44.07 66.54 44.07L66.50 44.03L66.54 44.07Q65.94 43.93 64.38 43.51L64.50 43.64L64.35 43.49Q63.89 44.09 62.79 45.77L62.83 45.81L61.31 48.13L61.39 48.22Q62.18 47.94 63.82 47.56L63.93 47.67L63.51 48.43L62.80 48.90L62.83 48.93Q65.07 48.74 66.41 48.81L66.42 48.82L66.45 48.85Q68.88 49.15 74.82 49.57ZM71.59 23.51L71.73 23.65L71.97 23.01L72.02 23.06Q72.31 23.43 73.26 25.03L73.45 25.21L73.27 25.04Q74.80 21.92 76.36 18.83L76.46 18.93L76.51 18.98Q75.41 17.27 74.46 15.98L74.41 15.93L74.53 16.05Q74.39 16.33 74.04 16.86L74.05 16.86L73.88 16.69Q73.48 16.07 72.49 14.78L72.63 14.91L72.64 14.92Q71.36 16.42 69.04 19.77L69.10 19.83L68.96 19.69Q69.97 21.01 71.69 23.60Z"/><path fill="#333" d="M97.80 27.80L97.82 27.83L97.67 27.68Q94.15 27.58 93.05 30.93L93.01 30.90L93.02 30.91Q92.69 32.03 92.58 33.09L92.60 33.11L92.57 33.08Q92.38 35.14 93.37 36.48L93.39 36.49L93.30 36.40Q94.80 37.75 97.27 37.79L97.11 37.63L97.16 37.68Q99.04 37.77 100.45 36.63L100.53 36.70L100.51 36.69Q101.75 35.37 101.75 33.58L101.83 33.66L101.87 33.70Q101.94 33.43 101.86 33.05L101.71 32.90L101.70 32.88Q101.59 27.87 97.78 27.79ZM97.57 40.14L97.64 40.21L97.65 40.22Q93.77 40.37 91.98 38.35L92.00 38.38L92.03 38.41Q91.70 39.34 91.25 40.71L91.41 40.87L91.35 40.81Q89.41 41.57 88.15 42.14L88.20 42.19L88.05 42.04Q90.31 36.16 90.31 29.65L90.23 29.56L90.30 29.63Q90.33 21.37 86.91 13.53L86.90 13.51L86.93 13.54Q89.17 14.80 90.50 15.25L90.59 15.35L90.56 15.31Q92.65 21.94 92.81 27.76L92.70 27.65L92.75 27.70Q94.25 25.09 97.98 25.13L97.92 25.07L98.07 25.22Q101.21 25.17 102.70 27.03L102.69 27.03L102.71 27.04Q104.51 29.30 104.66 32.88L104.68 32.90L104.57 32.79Q104.82 34.14 104.74 35.74L104.75 35.75L104.65 35.65Q104.71 37.19 103.83 38.33L103.82 38.32L103.66 38.16Q102.04 40.00 97.70 40.27ZM103.02 42.62L103.14 42.74L103.18 42.78Q104.71 42.82 106.19 42.14L106.09 42.03L106.02 41.97Q107.12 40.66 107.15 38.72L107.16 38.73L107.21 38.78Q107.19 38.27 107.04 37.08L107.04 37.09L107.12 37.16Q107.02 36.45 106.90 35.54L106.98 35.62L106.85 35.49Q106.16 30.84 104.60 28.78L104.50 28.68L104.45 28.63Q104.47 28.62 103.67 27.74L103.80 27.87L103.70 27.77Q103.53 27.56 102.99 26.76L102.87 26.64L102.91 26.68Q101.38 24.80 98.03 24.84L97.92 24.73L98.00 24.81Q96.02 24.92 94.76 25.53L94.63 25.40L94.69 25.46Q94.31 20.89 93.70 17.70L93.82 17.81L93.84 17.83Q93.05 17.61 91.57 17.23L91.52 17.18L91.48 17.15Q91.40 16.46 90.95 15.02L90.95 15.02L90.83 14.90Q88.46 14.16 86.21 12.60L86.16 12.55L86.15 12.54Q89.98 20.79 89.98 29.58L89.99 29.59L89.94 29.54Q90.08 36.65 87.60 42.85L87.60 42.85L87.47 42.72Q88.17 42.39 89.50 41.82L89.55 41.87L89.46 41.77Q89.23 42.53 88.62 44.06L88.78 44.22L88.74 44.17Q90.63 43.18 93.41 42.65L93.39 42.62L93.88 40.90L93.88 40.90Q96.12 42.54 103.05 42.65ZM99.37 30.06L99.25 29.94L99.28 29.97Q100.35 30.02 100.88 30.40L100.99 30.50L100.87 30.38Q101.30 31.00 101.53 33.02L101.37 32.87L101.43 32.92Q101.66 34.83 100.41 36.14L100.43 36.17L100.39 36.13Q99.14 37.45 97.20 37.33L97.17 37.31L97.16 37.30Q96.27 37.47 94.79 36.98L94.72 36.91L94.72 36.91Q94.55 36.47 94.55 35.94L94.49 35.88L94.49 35.88Q94.63 32.94 96.19 31.34L96.16 31.31L96.04 31.22L96.07 31.25Q97.50 29.87 99.25 29.94Z"/></svg>