<svg xmlns="http://www.w3.org/2000/svg" width="150" height="50" viewBox="0,0,150,50"><path fill="#111" d="M124.98 41.34L124.87 41.23L121.81 41.03L121.90 41.12Q119.52 41.02 118.72 40.90L118.66 40.85L118.71 40.90Q116.78 40.45 115.60 39.57L115.59 39.56L115.63 39.60Q114.34 38.20 114.11 34.85L114.14 34.88L114.06 34.80Q114.17 34.45 114.09 33.24L114.09 33.23L114.03 33.17Q114.13 32.85 114.05 31.75L114.03 31.72L114.07 31.76Q113.88 30.77 113.92 30.05L113.88 30.01L113.88 30.01Q114.23 28.23 115.26 27.47L115.23 27.44L115.24 27.45Q117.17 26.30 122.00 26.07L121.92 25.98L121.92 25.99Q123.91 25.84 124.71 25.84L124.81 25.94L124.83 25.96Q126.31 25.96 127.68 26.27L127.66 26.24L127.58 26.17Q127.12 27.53 126.59 29.36L126.58 29.35L126.59 29.36Q126.00 29.34 125.50 29.30L125.52 29.32L125.53 29.33Q125.39 29.27 124.86 29.15L124.99 29.29L123.89 28.91L123.91 28.92Q122.98 28.79 122.37 28.83L122.32 28.78L122.29 28.75Q117.48 28.74 116.87 31.56L117.02 31.70L117.02 31.71Q116.58 32.67 116.65 33.62L116.69 33.66L116.69 33.66Q116.94 36.35 118.18 37.43L118.19 37.45L118.07 37.33Q119.39 38.49 121.98 38.53L121.93 38.48L122.00 38.55Q123.52 38.62 124.24 38.32L124.12 38.20L125.19 37.74L125.13 37.68Q125.82 37.61 126.39 37.54L126.21 37.36L126.22 37.37Q126.62 39.33 127.00 40.62L126.86 40.48L127.00 40.62Q126.65 40.88 124.86 41.22ZM128.21 44.26L128.21 44.27L128.14 44.20Q128.58 44.29 129.41 44.37L129.36 44.31L129.43 44.38Q129.99 44.33 130.33 43.76L130.25 43.68L130.25 43.68Q129.20 41.75 128.71 39.66L128.70 39.65L128.53 39.48Q128.32 39.58 127.86 39.58L127.88 39.60L127.78 39.50Q127.47 39.60 127.09 39.79L126.99 39.69L127.07 39.78Q126.66 38.45 126.51 37.04L126.57 37.10L126.59 37.12Q125.99 37.06 124.77 37.63L124.70 37.56L124.61 37.47Q123.41 38.06 122.92 38.06L122.98 38.12L122.96 38.10Q122.53 38.17 121.92 38.13L121.99 38.19L121.92 38.13Q121.02 38.10 119.04 37.53L119.01 37.51L118.95 37.44Q118.74 36.86 118.78 35.71L118.73 35.67L118.74 35.68Q118.88 31.40 123.83 30.86L123.81 30.84L123.85 30.89Q124.48 30.83 125.86 31.18L126.02 31.34L125.99 31.32Q127.34 31.64 128.07 31.60L127.92 31.45L128.07 31.60Q128.44 29.31 129.12 27.48L129.09 27.45L129.19 27.54Q128.74 27.37 128.36 27.29L128.32 27.25L127.52 27.13L127.53 27.15Q127.85 26.78 128.24 25.90L128.21 25.87L128.22 25.89Q126.71 25.56 125.15 25.56L125.15 25.56L125.11 25.52Q122.78 25.59 118.40 25.97L118.29 25.86L118.21 25.78Q116.44 26.10 114.88 27.09L114.82 27.03L114.76 26.97Q113.49 27.87 113.49 29.78L113.63 29.91L113.54 29.83Q113.67 30.38 113.79 31.60L113.67 31.47L113.76 31.57Q113.84 32.59 113.80 33.20L113.69 33.10L113.68 33.09Q113.79 35.06 114.51 38.79L114.59 38.87L114.58 38.86Q114.93 39.67 115.43 40.16L115.40 40.14L115.57 40.30L115.61 40.31L115.66 40.35Q116.68 42.48 120.60 43.09L120.54 43.03L120.58 43.07Q123.84 43.66 126.50 43.93L126.51 43.93L126.37 43.79Q127.23 43.93 128.14 44.20Z"/><path fill="#222" d="M98.75 39.91L98.67 39.83L98.77 39.93Q96.74 39.80 94.72 39.99L94.68 39.96L94.80 40.07Q95.32 34.69 95.32 29.86L95.30 29.84L95.47 30.00Q95.43 25.06 94.79 19.84L94.74 19.79L94.68 19.74Q90.06 19.31 86.86 17.63L86.95 17.71L86.32 16.06L86.28 16.02Q86.05 15.48 85.44 14.26L85.38 14.21L85.44 14.27Q90.43 16.86 96.45 17.05L96.56 17.17L96.53 17.13Q102.30 17.19 107.74 15.14L107.81 15.20L107.90 15.30Q107.11 16.63 106.46 18.46L106.40 18.40L106.53 18.53Q102.86 19.77 98.59 19.96L98.63 19.99L98.57 19.93Q98.40 24.98 98.40 29.93L98.36 29.89L98.33 29.86Q98.48 34.96 98.78 39.94ZM108.45 14.48L108.52 14.54L108.45 14.48Q102.70 16.84 96.50 16.65L96.41 16.55L96.48 16.63Q89.91 16.53 84.81 13.56L84.77 13.52L84.66 13.41Q85.44 14.72 86.73 18.00L86.80 18.06L86.86 18.13Q87.45 18.38 88.71 18.95L88.70 18.94L88.66 18.90Q88.87 19.57 89.22 21.09L89.35 21.22L89.32 21.19Q91.55 21.97 94.59 22.20L94.64 22.25L94.56 22.17Q95.08 26.00 95.08 29.77L95.09 29.78L94.99 29.68Q95.09 35.15 94.29 40.51L94.19 40.41L94.20 40.43Q95.95 40.39 96.49 40.39L96.31 40.22L96.44 40.34Q96.34 40.54 96.28 41.21L96.36 41.29L96.42 41.35Q96.32 41.97 96.32 42.31L96.19 42.19L96.21 42.21Q97.57 42.31 99.09 42.38L98.97 42.26L98.95 42.24Q99.82 42.24 101.65 42.39L101.71 42.45L101.67 42.41Q100.60 37.65 100.49 32.48L100.35 32.33L100.38 32.37Q100.33 27.14 100.86 22.23L100.78 22.15L100.84 22.21Q104.71 21.59 107.87 20.37L107.93 20.43L107.95 20.45Q108.50 17.91 109.53 15.86L109.52 15.84L109.66 15.98Q108.33 16.68 107.53 16.98L107.48 16.93L107.46 16.91Q107.95 15.68 108.52 14.54Z"/><path fill="#222" d="M74.31 39.91L74.22 39.82L72.29 39.83L72.39 39.93Q71.40 39.90 70.45 40.01L70.47 40.03L70.43 39.99Q71.00 33.78 71.00 29.78L70.90 29.69L71.03 29.81Q67.11 23.20 59.46 14.52L59.29 14.34L59.37 14.42Q61.18 15.43 64.53 16.23L64.54 16.24L64.45 16.15Q69.52 21.76 72.53 26.98L72.56 27.00L72.55 27.00Q75.57 21.45 79.94 16.42L79.91 16.38L79.89 16.37Q82.38 16.04 84.89 15.24L84.79 15.14L84.82 15.17Q78.73 21.22 73.85 29.63L74.04 29.82L73.96 29.74Q73.90 36.72 74.20 39.80ZM83.30 17.23L85.95 14.32L86.03 14.40Q83.01 15.64 79.88 16.09L79.89 16.10L79.78 15.99Q75.56 20.72 72.75 25.82L72.78 25.85L72.87 25.94Q70.67 22.23 67.48 18.34L67.44 18.30L67.50 18.36Q67.25 18.38 66.75 18.31L66.77 18.32L66.68 18.24Q65.97 17.41 64.45 15.73L64.57 15.86L64.43 15.72Q61.17 15.08 58.20 13.52L58.09 13.41L58.12 13.44Q65.94 22.02 70.70 29.94L70.58 29.82L70.58 29.82Q70.47 36.15 69.86 40.30L69.91 40.34L69.92 40.35Q70.72 40.39 72.16 40.27L72.04 40.15L72.08 41.22L72.09 41.23Q72.11 41.71 72.03 42.24L72.06 42.26L72.07 42.27Q75.62 42.29 77.37 42.48L77.33 42.44L77.42 42.53Q76.04 37.71 75.92 31.74L75.95 31.77L76.00 31.82Q80.37 23.36 86.92 16.01L86.83 15.92L83.40 17.32Z"/><path fill="#444" d="M47.62 18.47L47.68 18.53L47.63 18.48Q46.83 18.78 46.67 19.58L46.64 19.55L46.73 24.78L46.79 24.84Q47.95 24.85 50.16 24.59L50.16 24.59L50.05 24.48Q50.01 24.89 49.97 25.73L50.03 25.79L50.10 25.86Q50.05 26.61 50.05 27.07L50.04 27.06L48.34 27.03L48.31 27.00Q47.67 27.23 46.79 27.23L46.71 27.15L46.74 27.19Q46.68 31.31 46.60 39.68L46.66 39.74L46.64 39.72Q44.37 39.74 42.89 40.42L42.88 40.42L42.87 40.41Q43.97 34.28 43.86 27.04L43.83 27.02L43.84 27.02Q43.28 27.08 41.99 26.81L41.99 26.81L41.95 26.77Q41.99 25.82 41.80 23.88L41.69 23.77L41.87 23.96Q42.98 24.45 43.93 24.64L43.78 24.49L43.84 24.55Q43.74 23.85 43.44 21.37L43.58 21.51L43.41 21.35Q43.29 19.40 43.29 18.45L43.34 18.49L43.25 18.41Q43.29 16.77 44.70 16.19L44.70 16.20L44.76 16.26Q45.54 15.86 50.38 15.02L50.36 15.01L50.39 15.03Q51.24 14.93 52.07 14.82L51.90 14.64L51.96 14.71Q51.85 15.58 51.69 16.45L51.59 16.35L51.27 17.89L51.36 17.98Q50.61 17.73 50.11 17.84L50.23 17.96L50.06 17.79Q49.49 17.83 47.59 18.44ZM53.03 19.58L53.04 19.59L53.13 19.68Q53.47 17.47 54.08 14.92L53.91 14.75L53.91 14.75Q53.31 15.10 52.01 15.71L52.13 15.82L52.57 14.17L52.46 14.06Q51.25 14.26 48.78 14.80L48.74 14.76L48.70 14.72Q47.67 14.94 44.47 15.85L44.47 15.86L44.48 15.86Q42.86 16.22 42.86 18.09L42.91 18.14L42.85 18.08Q42.77 18.30 42.84 18.64L42.85 18.65L42.83 18.63Q43.22 20.13 43.34 21.46L43.16 21.28L43.43 24.03L43.54 24.14Q42.10 23.69 41.45 23.23L41.41 23.19L41.43 23.21Q41.55 24.17 41.59 25.19L41.63 25.23L41.63 27.10L41.68 27.15Q42.46 27.40 43.26 27.47L43.20 27.41L43.25 29.56L43.61 29.54L43.69 29.61Q43.39 35.56 42.41 41.01L42.41 41.02L42.47 41.08Q43.50 40.62 44.68 40.35L44.62 40.29L44.50 42.42L44.43 42.34Q45.81 42.21 47.11 42.17L46.98 42.04L47.00 42.06Q48.21 42.01 49.46 42.28L49.41 42.23L49.47 42.29Q48.62 37.28 48.62 29.33L48.76 29.47L48.66 29.37Q49.73 29.34 51.83 29.42L51.94 29.53L51.94 27.67L51.83 27.55Q51.94 26.71 51.98 25.76L51.86 25.65L51.98 25.76Q51.43 25.78 50.36 26.05L50.30 25.98L50.31 25.99Q50.40 25.41 50.52 24.07L50.41 23.96L50.45 24.00Q49.71 24.33 48.91 24.41L48.85 24.34L48.82 24.31Q48.76 22.85 48.88 21.44L48.95 21.51L48.98 21.54Q49.00 20.77 49.53 20.42L49.52 20.41L49.63 20.52Q50.61 19.86 51.43 19.78L51.32 19.68L51.49 19.85Q52.23 19.69 53.07 19.62Z"/><path fill="#333" d="M27.47 40.90L27.49 40.92L27.62 41.05Q26.17 39.21 24.87 36.13L24.99 36.25L22.80 31.05L22.89 31.14Q21.13 34.98 20.52 36.27L20.59 36.34L20.60 36.35Q19.11 39.24 17.51 41.14L17.53 41.17L17.48 41.11Q17.16 41.17 16.40 41.29L16.44 41.33L16.43 41.32Q16.48 33.95 10.66 28.01L10.60 27.95L10.68 28.03Q8.89 26.16 6.87 24.68L6.76 24.57L6.87 24.67Q8.66 25.18 10.53 25.48L10.55 25.51L10.55 25.50Q16.60 30.45 18.05 36.69L18.08 36.73L18.01 36.66Q19.00 34.91 20.18 31.71L20.22 31.74L20.15 31.67Q21.43 27.85 22.00 26.56L22.07 26.63L23.44 26.59L23.43 26.58Q24.28 28.27 25.46 31.54L25.54 31.62L25.45 31.53Q26.83 35.24 27.48 36.65L27.45 36.62L27.35 36.52Q29.21 30.26 34.69 25.69L34.67 25.68L34.70 25.71Q35.88 25.59 38.62 25.02L38.76 25.16L38.65 25.05Q30.10 31.16 28.92 41.13L28.79 41.01L28.11 40.86L28.20 40.94Q27.96 41.01 27.62 41.05ZM30.57 43.46L32.62 43.65L32.57 43.60Q32.25 42.06 32.25 40.54L32.21 40.50L32.21 40.50Q32.26 37.31 33.67 34.08L33.68 34.09L33.71 34.12Q35.71 29.61 39.83 26.53L39.77 26.48L39.77 26.47Q38.60 26.79 36.73 27.13L36.68 27.08L36.61 27.00Q38.59 25.37 39.88 24.45L40.02 24.60L37.45 24.99L37.40 24.94Q36.21 25.20 34.88 25.35L34.84 25.32L34.81 25.29Q29.60 29.48 27.66 34.51L27.79 34.63L27.74 34.58Q27.17 32.49 25.80 28.23L25.70 28.13L25.65 28.08Q25.40 28.17 25.13 28.17L25.17 28.20L24.69 28.26L24.58 28.15Q24.51 27.89 23.71 26.13L23.74 26.17L21.76 26.24L21.69 26.17Q20.68 28.93 18.59 34.57L18.67 34.65L18.66 34.64Q17.20 30.82 14.12 27.55L14.15 27.58L14.15 27.58Q13.86 27.55 13.55 27.52L13.55 27.51L13.13 27.55L13.11 27.52Q12.27 26.72 10.48 25.12L10.51 25.16L10.38 25.03Q7.32 24.48 5.64 23.98L5.65 23.99L5.63 23.97Q16.26 31.33 15.88 41.64L15.93 41.70L15.92 41.69Q16.17 41.75 16.54 41.71L16.50 41.67L16.45 41.63Q16.81 41.59 17.00 41.59L17.04 41.63L16.98 41.57Q17.05 41.48 17.24 43.58L17.31 43.65L19.11 43.35L19.23 43.47Q21.79 40.63 24.04 34.88L24.06 34.90L24.04 34.88Q25.54 38.74 27.40 41.40L27.45 41.45L27.38 41.38Q27.62 41.28 27.89 41.30L27.90 41.31L27.91 41.32Q28.21 41.37 28.47 41.37L28.42 41.32L30.59 43.49Z"/></svg>