<svg xmlns="http://www.w3.org/2000/svg" width="150" height="50" viewBox="0,0,150,50"><path fill="#333" d="M72.65 40.17L72.71 40.23L72.61 40.13Q70.87 40.18 69.19 40.75L69.11 40.67L69.05 40.60Q69.70 37.11 69.82 33.99L69.72 33.89L69.81 33.98Q69.80 30.81 69.57 27.15L69.63 27.22L69.68 27.27Q68.16 26.78 67.40 26.40L67.53 26.52L67.20 23.57L67.06 23.43Q67.78 24.04 69.38 24.61L69.55 24.77L69.47 24.70Q69.22 22.55 68.80 19.80L68.79 19.79L68.84 19.84Q71.19 20.59 72.82 20.44L72.79 20.41L72.62 24.96L72.54 24.88Q74.06 24.91 75.40 24.42L75.30 24.32L75.30 24.32Q75.35 25.32 75.12 27.07L75.02 26.97L75.12 27.08Q73.64 27.46 72.62 27.46L72.51 27.36L72.63 27.47Q72.54 29.55 72.54 33.82L72.49 33.77L72.55 33.83Q72.53 37.96 72.60 40.13ZM75.76 23.79L75.75 23.78L75.76 23.79Q75.60 24.01 74.99 24.24L74.96 24.21L75.20 21.29L75.30 21.39Q74.42 21.61 73.01 21.84L73.14 21.97L72.99 21.82Q73.14 21.29 73.29 19.92L73.30 19.92L73.15 19.77Q72.62 19.93 72.05 19.93L72.14 20.02L72.10 19.98Q69.92 19.93 68.28 19.20L68.30 19.23L68.20 19.12Q68.79 21.70 69.06 24.17L69.12 24.23L69.05 24.16Q68.12 23.76 66.60 22.74L66.59 22.73L66.74 22.88Q67.07 24.16 67.29 26.86L67.26 26.83L67.27 26.83Q67.77 27.11 68.95 27.53L68.93 27.51L68.94 27.52Q68.97 28.15 69.00 29.56L68.92 29.48L69.28 29.50L69.40 29.54L69.33 29.47Q69.50 30.82 69.50 32.00L69.46 31.96L69.49 31.99Q69.50 36.95 68.70 41.29L68.57 41.16L68.73 41.32Q68.87 41.15 70.81 40.62L70.87 40.68L70.86 40.67Q70.92 41.37 70.80 42.74L70.74 42.68L70.67 42.61Q71.55 42.61 72.35 42.61L72.27 42.54L72.39 42.66Q74.13 42.68 75.77 43.26L75.63 43.12L75.74 43.22Q74.30 37.40 74.49 29.48L74.62 29.62L76.90 29.12L76.96 29.18Q76.94 28.17 77.02 27.14L77.13 27.25L77.32 25.23L77.33 25.25Q76.77 25.52 75.59 25.98L75.59 25.98L75.58 25.97Q75.88 24.64 75.81 24.29L75.79 24.28L75.79 24.28Q75.77 24.06 75.84 23.87Z"/><path fill="#111" d="M40.35 47.16L40.31 47.11L40.24 47.05Q39.24 47.19 37.34 47.49L37.51 47.67L37.43 47.58Q38.74 45.43 39.77 44.14L39.67 44.04L39.69 44.06Q41.43 44.36 41.58 44.36L41.73 44.50L41.70 44.48Q42.01 44.56 42.55 44.44L42.50 44.40L42.48 44.38Q43.07 44.21 43.26 44.21L43.35 44.30L43.30 44.25Q45.86 43.99 45.78 41.82L45.83 41.86L45.73 41.77Q45.81 40.40 45.70 34.16L45.74 34.20L45.58 34.04Q45.61 30.57 45.69 26.42L45.77 26.50L47.10 26.23L47.17 26.30Q47.74 26.11 48.43 25.88L48.45 25.91L48.56 26.01Q48.23 30.33 48.27 34.71L48.36 34.80L48.36 34.80Q48.22 39.00 48.76 43.38L48.84 43.46L48.83 43.45Q48.92 43.77 48.92 44.04L48.84 43.96L48.87 43.99Q48.86 45.62 47.18 46.00L47.23 46.04L47.33 46.15Q44.16 46.47 40.31 47.12ZM47.03 22.85L44.94 19.77L44.89 19.72Q46.01 18.41 47.84 15.63L47.72 15.51L47.83 15.62Q48.36 16.38 49.70 18.21L49.73 18.24L47.12 22.94ZM50.10 49.52L50.04 49.46L50.09 49.51Q50.56 49.48 51.32 49.14L51.32 49.14L51.45 49.27Q51.67 48.47 51.67 48.01L51.74 48.08L51.67 48.01Q51.56 47.56 51.45 46.95L51.51 47.01L51.64 47.14Q50.25 40.69 50.25 32.77L50.11 32.63L50.30 32.82Q50.21 29.87 50.36 26.98L50.37 26.99L50.26 26.88Q49.74 27.08 48.59 27.38L48.68 27.47L48.72 27.51Q48.65 26.94 48.69 26.41L48.75 26.48L48.88 25.42L48.79 25.33Q47.12 26.02 45.33 26.06L45.25 25.98L45.41 26.14Q45.29 30.39 45.32 33.97L45.34 33.99L45.53 41.91L45.48 41.85Q45.49 43.77 43.32 43.88L43.43 43.99L43.34 43.91Q43.09 43.88 42.57 43.94L42.55 43.92L42.65 44.01Q42.06 44.00 41.80 44.00L41.83 44.03L41.87 44.07Q41.33 43.98 39.77 43.57L39.70 43.50L39.84 43.64Q39.25 44.12 38.15 45.79L38.29 45.94L36.67 48.16L36.65 48.14Q37.62 48.04 39.26 47.66L39.17 47.58L38.74 48.33L38.29 49.06L38.24 49.01Q40.52 48.85 41.85 48.93L41.84 48.91L41.82 48.90Q44.10 49.04 50.04 49.46ZM47.07 23.65L47.07 23.65L47.27 22.97L47.29 22.99Q47.76 23.54 48.71 25.14L48.65 25.07L48.72 25.15Q50.16 21.94 51.72 18.86L51.77 18.91L51.71 18.85Q50.70 17.23 49.75 15.93L49.82 16.00L49.80 15.98Q49.65 16.25 49.30 16.78L49.28 16.76L49.39 16.88Q48.91 16.16 47.92 14.87L47.87 14.82L47.87 14.82Q46.67 16.40 44.35 19.75L44.43 19.83L44.40 19.80Q45.21 20.91 46.92 23.50Z"/><path fill="#444" d="M120.11 29.68L120.20 29.77L120.20 29.76Q115.88 29.45 115.31 32.49L115.49 32.67L115.41 32.59Q115.26 33.70 115.45 34.57L115.36 34.48L115.32 34.44Q115.47 35.36 115.93 36.77L115.77 36.60L115.80 36.63Q116.88 39.81 120.19 39.66L120.23 39.70L120.20 39.66Q122.21 39.74 123.55 38.18L123.58 38.21L123.60 38.23Q124.76 36.69 124.76 34.64L124.75 34.62L124.88 34.75Q124.95 34.10 124.80 33.03L124.93 33.16L124.81 33.04Q124.84 32.24 124.42 31.55L124.36 31.48L124.42 31.55Q122.68 29.77 120.09 29.65ZM125.06 48.25L125.01 48.21L125.00 48.19Q123.25 48.84 115.18 49.23L115.12 49.16L115.10 49.14Q113.40 49.20 111.76 48.36L111.75 48.34L111.85 48.44Q112.57 47.37 114.39 45.58L114.47 45.66L114.44 45.63Q116.81 46.63 118.91 46.44L118.91 46.44L118.88 46.42Q121.87 46.24 122.71 45.98L122.74 46.01L122.60 45.87Q124.85 45.19 124.85 43.40L124.94 43.49L124.86 43.41Q124.98 43.30 124.90 43.07L124.93 43.09L124.86 41.54L124.66 41.35Q124.74 40.66 124.74 39.86L124.73 39.86L124.64 39.76Q123.34 42.08 119.95 42.08L119.93 42.06L119.88 42.01Q116.10 42.11 114.46 39.90L114.50 39.94L114.45 39.89Q113.28 38.30 112.48 33.89L112.46 33.86L112.54 33.94Q112.20 32.39 112.20 30.98L112.20 30.98L112.25 31.03Q112.31 29.30 113.22 28.31L113.24 28.32L113.24 28.32Q114.85 26.85 119.49 26.85L119.38 26.74L121.22 27.02L121.27 27.07Q124.43 27.37 125.77 29.32L125.73 29.28L125.70 29.25Q125.99 28.51 126.41 26.87L126.33 26.80L126.40 26.87Q128.16 26.42 129.91 25.70L130.01 25.80L129.85 25.63Q127.31 31.86 127.31 39.09L127.23 39.01L127.25 39.02Q127.32 41.76 127.70 44.38L127.63 44.32L127.61 44.29Q127.77 44.95 127.69 45.63L127.85 45.79L127.80 45.74Q127.51 47.01 126.29 47.77L126.39 47.88L126.31 47.79Q125.85 48.09 125.01 48.21ZM128.07 51.23L128.03 51.19L128.05 51.21Q129.51 51.26 130.27 50.31L130.30 50.34L130.24 50.28Q130.49 49.23 130.38 48.51L130.50 48.63L130.43 48.56Q130.33 47.93 130.14 47.17L130.17 47.19L130.09 47.12Q128.88 41.91 129.22 36.65L129.20 36.63L129.26 36.70Q129.67 31.32 131.80 26.49L131.76 26.44L129.61 27.34L129.64 27.37Q129.94 26.83 130.17 26.25L130.22 26.31L130.53 24.98L130.57 25.02Q128.23 25.99 126.02 26.41L126.07 26.46L126.03 26.42Q125.66 27.23 125.51 28.26L125.58 28.33L125.65 28.40Q123.46 26.40 119.42 26.40L119.45 26.43L117.73 26.46L117.70 26.43Q114.37 26.33 112.69 27.74L112.84 27.89L112.76 27.81Q111.92 28.87 111.95 30.77L111.88 30.70L111.92 30.74Q111.94 33.19 112.96 37.45L113.02 37.51L112.93 37.42Q113.45 39.39 114.67 40.79L114.74 40.87L114.97 41.10L114.92 41.05L115.02 41.14Q116.24 43.55 118.83 44.08L118.74 43.99L118.76 44.01Q120.21 44.36 121.66 44.39L121.60 44.34L121.56 44.30Q123.40 44.43 124.47 44.05L124.35 43.93L124.51 44.09Q123.86 45.61 121.19 45.95L121.24 46.00L121.12 45.87Q120.15 46.13 119.47 46.13L119.47 46.13L118.93 45.97L119.05 46.09Q116.28 46.14 114.61 45.19L114.52 45.10L112.71 46.71L112.80 46.80Q111.89 47.57 111.06 48.53L111.10 48.57L111.11 48.58Q112.17 49.18 113.15 49.37L113.14 49.35L112.20 50.17L112.25 50.22Q114.94 51.27 120.57 51.27L120.61 51.31L120.90 51.37L120.84 51.31Q124.47 51.32 128.04 51.20ZM122.10 32.09L122.07 32.06L122.03 32.02Q123.38 31.99 124.29 32.41L124.28 32.40L124.19 32.31Q124.45 32.87 124.53 33.56L124.56 33.59L124.59 33.63Q124.57 33.87 124.53 34.78L124.47 34.72L124.49 34.74Q124.50 36.73 123.40 38.03L123.39 38.02L123.32 37.95Q122.24 39.45 120.33 39.42L120.24 39.33L120.33 39.41Q118.91 39.37 118.08 38.95L118.06 38.93L118.06 38.94Q117.57 37.68 117.53 36.66L117.53 36.65L117.60 36.73Q117.50 32.40 122.11 32.09Z"/><path fill="#333" d="M20.73 39.97L20.74 39.97L20.77 40.01Q16.45 39.30 14.62 37.85L14.75 37.98L14.65 37.88Q12.87 36.48 12.45 33.47L12.43 33.45L12.40 33.42Q12.44 33.12 12.09 28.36L11.96 28.22L11.99 28.26Q12.21 27.26 12.14 26.00L12.09 25.95L12.04 25.91Q11.94 20.93 14.15 19.18L14.05 19.09L13.99 19.02Q16.65 16.93 24.42 16.24L24.40 16.23L24.48 16.31Q25.74 16.08 27.38 16.12L27.48 16.22L27.50 16.24Q27.48 16.22 30.45 16.22L30.39 16.16L30.49 16.26Q31.27 16.20 32.98 16.35L32.95 16.33L33.04 16.41Q32.39 17.21 31.36 20.29L31.43 20.36L31.41 20.34Q29.39 19.20 26.38 19.20L26.33 19.15L26.42 19.23Q25.55 19.12 24.75 19.20L24.81 19.26L24.89 19.34Q19.69 19.70 17.18 21.68L17.11 21.61L17.22 21.72Q15.19 23.31 15.04 26.66L14.98 26.60L14.95 26.57Q14.94 27.21 14.98 28.46L15.06 28.54L14.96 28.45Q15.05 33.26 17.45 35.35L17.44 35.35L17.47 35.37Q19.70 37.37 24.68 37.68L24.75 37.75L24.68 37.68Q27.86 37.88 30.87 36.09L30.74 35.96L30.83 36.06Q31.45 38.80 32.06 40.18L32.07 40.19L32.13 40.25Q29.97 40.45 28.34 40.41L28.27 40.35L28.38 40.46Q23.78 40.27 20.65 39.89ZM35.87 43.72L35.79 43.64L35.71 43.56Q34.05 40.68 33.36 38.09L33.36 38.09L33.28 38.01Q32.93 38.35 31.94 38.73L31.97 38.75L31.98 38.77Q31.64 37.97 31.45 37.13L31.42 37.10L30.98 35.33L31.00 35.35Q27.73 37.41 24.61 37.29L24.65 37.34L24.57 37.25Q20.34 37.10 18.02 35.35L17.94 35.27L18.09 35.42Q16.98 33.63 17.06 30.70L17.03 30.67L16.98 30.62Q17.20 26.19 19.67 24.06L19.64 24.03L19.63 24.01Q21.75 22.10 26.43 21.49L26.31 21.37L26.44 21.50Q27.29 21.44 28.01 21.44L27.86 21.29L28.01 21.44Q30.67 21.32 32.77 22.84L32.76 22.83L32.83 22.90Q33.36 20.80 34.58 17.57L34.54 17.53L34.59 17.58Q34.28 17.53 33.72 17.48L33.64 17.39L33.66 17.42Q33.22 17.47 32.95 17.47L32.77 17.29L32.88 17.40Q33.09 16.88 33.55 15.89L33.48 15.82L33.48 15.83Q33.21 15.78 30.71 15.70L30.84 15.84L30.88 15.87Q28.40 15.80 27.75 15.84L27.63 15.72L27.63 15.73Q17.22 16.16 13.75 18.75L13.73 18.73L13.74 18.74Q11.61 20.45 11.61 24.38L11.59 24.36L11.58 24.34Q11.71 25.58 11.83 28.28L11.70 28.16L11.87 28.33Q11.97 31.85 12.20 33.57L12.16 33.53L12.22 33.58Q12.48 36.59 14.08 38.11L14.09 38.12L14.11 38.14Q14.64 38.86 15.89 40.00L15.90 40.01L15.93 40.04Q19.07 41.69 24.32 42.45L24.39 42.52L24.30 42.43Q30.83 43.48 35.82 43.67Z"/><path fill="#222" d="M89.06 41.11L88.97 41.01L89.02 41.07Q92.28 36.91 98.98 28.99L99.01 29.02L98.99 28.99Q93.10 29.24 89.33 27.87L89.17 27.71L89.15 27.68Q88.53 26.30 87.76 24.89L87.76 24.88L87.71 24.84Q91.91 26.44 96.36 26.48L96.45 26.57L96.43 26.56Q100.81 26.51 104.99 25.45L104.97 25.42L105.08 25.53Q104.65 26.17 104.39 26.71L104.37 26.68L104.35 26.66Q101.90 28.97 99.08 32.59L99.03 32.54L94.00 38.63L94.11 38.73Q96.25 38.44 98.50 38.52L98.61 38.63L98.64 38.66Q100.79 38.68 103.04 39.06L102.92 38.94L102.90 38.92Q103.21 39.69 103.93 41.70L103.95 41.73L103.79 41.57Q100.20 40.87 96.21 40.99L96.08 40.86L96.16 40.94Q92.20 41.05 88.55 42.23L88.60 42.29L88.57 42.25Q88.56 42.02 89.02 41.07ZM87.94 42.81L87.89 42.75L88.02 42.89Q88.69 42.46 90.29 42.04L90.26 42.00L90.35 42.10Q90.05 42.25 89.63 42.67L89.60 42.64L89.59 42.63Q89.46 43.30 88.85 44.44L88.86 44.44L88.79 44.38Q93.46 42.99 98.44 43.14L98.59 43.29L98.56 43.27Q103.41 43.32 107.98 45.18L108.06 45.27L108.05 45.26Q106.63 43.41 105.71 41.35L105.73 41.37L105.69 41.33Q104.92 41.02 103.86 40.79L103.88 40.82L103.94 40.88Q103.72 40.12 103.34 38.68L103.31 38.65L103.38 38.72Q101.79 38.35 98.21 38.23L98.13 38.15L98.21 38.23Q100.62 34.93 105.65 28.57L105.54 28.47L105.64 28.56Q105.87 27.81 106.56 26.48L106.60 26.52L104.22 27.18L104.26 27.23Q104.32 27.13 104.47 27.02L104.54 27.09L104.65 26.81L104.64 26.81Q105.13 25.77 105.70 24.82L105.75 24.87L105.70 24.82Q101.06 26.19 96.34 26.12L96.42 26.20L96.33 26.11Q91.49 25.99 87.00 24.16L87.05 24.22L86.95 24.11Q88.19 26.04 88.99 28.10L89.00 28.11L89.00 28.11Q89.81 28.39 90.88 28.65L90.95 28.72L90.85 28.62Q91.21 29.48 91.51 30.92L91.45 30.86L91.44 30.85Q92.97 31.05 96.29 31.20L96.40 31.31L96.23 31.15Q93.93 34.56 88.75 40.99L88.78 41.02L88.74 40.98Q88.56 41.64 87.99 42.86Z"/></svg>