<svg xmlns="http://www.w3.org/2000/svg" width="150" height="50" viewBox="0,0,150,50"><path fill="#444" d="M23.76 29.96L23.78 29.98L23.80 30.00Q21.10 29.69 19.77 30.91L19.93 31.08L19.90 31.04Q18.41 32.10 18.71 34.61L18.77 34.67L18.86 34.77Q19.20 37.31 20.42 38.57L20.40 38.55L20.31 38.46Q21.47 39.88 23.60 39.81L23.54 39.75L23.58 39.79Q24.19 39.83 24.39 39.83L24.31 39.76L24.36 39.81Q27.74 39.04 27.86 34.43L27.93 34.51L27.97 34.55Q28.07 32.21 27.38 31.41L27.24 31.27L27.25 31.28Q26.22 30.01 23.67 29.86ZM27.10 41.71L27.05 41.66L26.94 41.55Q25.65 42.16 24.09 42.08L24.14 42.14L24.14 42.14Q20.27 42.30 18.98 39.71L18.95 39.68L19.12 39.86Q18.76 45.02 17.43 49.28L17.54 49.40L17.42 49.28Q15.76 49.90 14.12 50.62L14.02 50.52L13.99 50.49Q16.70 44.67 16.43 37.70L16.40 37.67L16.29 37.57Q16.20 30.88 13.30 24.83L13.16 24.68L13.16 24.69Q15.10 25.86 16.81 26.32L16.81 26.32L17.31 27.77L17.48 27.94Q17.58 28.26 17.84 29.37L17.79 29.31L17.85 29.38Q18.81 27.25 22.39 27.06L22.46 27.14L22.30 26.97Q23.20 26.96 24.08 26.96L24.13 27.01L24.55 26.94L24.61 27.00Q24.70 26.97 24.89 27.01L24.88 27.00L25.23 27.05L25.18 27.00Q27.32 27.35 28.04 27.58L27.98 27.51L28.07 27.61Q29.57 28.07 30.44 29.02L30.51 29.09L30.34 28.92Q31.21 30.14 31.17 31.55L31.21 31.58L31.18 31.55Q31.26 34.48 30.46 37.15L30.45 37.14L30.41 37.10Q29.30 40.53 26.94 41.55ZM31.36 42.32L31.34 42.26L31.34 42.26Q32.36 40.20 32.67 36.09L32.76 36.18L32.77 36.19Q32.79 34.31 32.79 33.05L32.94 33.20L32.86 33.12Q32.96 31.69 32.20 30.28L32.18 30.27L32.06 30.15Q31.66 29.71 31.16 29.33L31.18 29.34L31.12 29.17L30.76 28.70L30.75 28.57L30.83 28.65Q29.03 26.54 24.69 26.54L24.68 26.54L24.22 26.68L24.15 26.61Q19.49 26.60 17.86 28.20L17.81 28.16L17.82 28.17Q17.63 27.63 17.48 27.14L17.44 27.10L17.33 26.19L17.15 26.01Q14.84 25.57 12.63 24.08L12.51 23.96L12.51 23.96Q15.76 30.26 16.07 37.49L16.07 37.49L16.03 37.45Q16.34 44.73 13.49 51.21L13.46 51.18L15.62 50.48L15.53 50.39Q15.18 51.04 14.50 52.60L14.50 52.59L14.54 52.64Q17.25 51.58 19.57 51.24L19.58 51.24L19.55 51.21Q20.70 46.42 20.85 42.69L20.83 42.67L20.77 42.61Q22.25 44.16 25.86 44.39L25.94 44.47L25.84 44.37Q29.90 44.74 31.35 42.30L31.26 42.21ZM25.66 32.20L25.60 32.14L25.68 32.22Q26.20 32.02 27.31 32.36L27.31 32.37L27.34 32.40Q27.72 33.50 27.68 34.68L27.53 34.52L27.63 34.63Q27.65 35.56 27.46 36.20L27.42 36.17L27.33 36.08Q26.73 39.10 24.22 39.40L24.13 39.31L24.27 39.34L24.21 39.28Q24.18 39.32 24.06 39.36L24.10 39.40L23.55 39.38L23.50 39.33Q22.45 39.46 21.46 38.96L21.39 38.90L21.03 36.81L21.09 36.88Q20.93 34.55 22.23 33.53L22.29 33.59L22.28 33.57Q23.29 32.50 25.69 32.23Z"/><path fill="#222" d="M64.32 41.03L64.35 41.06L64.45 41.17Q67.53 36.83 74.23 28.91L74.22 28.90L74.22 28.90Q68.27 29.07 64.50 27.70L64.56 27.76L64.53 27.73Q63.96 26.40 63.20 24.99L63.09 24.88L63.09 24.88Q67.20 26.41 71.66 26.45L71.76 26.54L71.68 26.47Q76.10 26.47 80.28 25.40L80.36 25.48L80.34 25.45Q79.93 26.11 79.66 26.64L79.60 26.59L79.56 26.55Q77.17 28.91 74.36 32.53L74.30 32.48L69.45 38.74L69.50 38.80Q71.60 38.46 73.85 38.53L73.99 38.68L73.84 38.53Q76.02 38.57 78.26 38.95L78.34 39.03L78.25 38.94Q78.46 39.60 79.18 41.62L79.16 41.60L79.15 41.59Q75.44 40.77 71.44 40.88L71.46 40.91L71.51 40.95Q67.45 40.97 63.79 42.15L63.93 42.28L63.84 42.20Q63.98 42.10 64.43 41.15ZM63.23 42.76L63.21 42.75L63.29 42.83Q64.03 42.46 65.63 42.04L65.59 42.00L65.68 42.09Q65.50 42.37 65.08 42.78L65.01 42.72L65.08 42.78Q64.83 43.34 64.22 44.48L64.13 44.39L64.19 44.45Q68.81 43.02 73.80 43.17L73.96 43.33L73.78 43.15Q78.73 43.31 83.30 45.17L83.37 45.24L83.48 45.35Q82.04 43.49 81.12 41.43L80.96 41.27L81.03 41.34Q80.23 41.00 79.17 40.77L79.18 40.78L79.10 40.70Q78.95 40.02 78.57 38.57L78.56 38.57L78.66 38.66Q77.20 38.42 73.62 38.31L73.50 38.19L73.53 38.21Q75.89 34.86 80.91 28.51L80.91 28.50L80.86 28.46Q81.18 27.79 81.87 26.45L81.86 26.45L79.66 27.29L79.66 27.29Q79.59 27.07 79.74 26.95L79.74 26.95L79.91 26.74L79.93 26.76Q80.40 25.70 80.97 24.75L81.01 24.80L81.06 24.85Q76.44 26.24 71.72 26.16L71.65 26.10L71.75 26.19Q66.87 26.04 62.38 24.21L62.32 24.15L62.39 24.22Q63.49 26.01 64.29 28.06L64.26 28.03L64.26 28.04Q65.16 28.40 66.22 28.66L66.22 28.66L66.25 28.69Q66.39 29.32 66.69 30.77L66.85 30.92L66.74 30.82Q68.33 31.07 71.64 31.22L71.71 31.29L71.59 31.18Q69.34 34.63 64.16 41.07L64.18 41.08L64.08 40.99Q63.93 41.67 63.36 42.89Z"/><path fill="#222" d="M113.75 41.13L113.73 41.11L113.68 41.06Q116.87 36.83 123.57 28.91L123.51 28.85L123.61 28.95Q117.75 29.22 113.99 27.85L114.00 27.87L113.90 27.77Q113.17 26.27 112.41 24.87L112.47 24.93L112.38 24.84Q116.65 26.52 121.11 26.56L121.04 26.49L121.04 26.50Q125.41 26.45 129.60 25.39L129.72 25.51L129.60 25.39Q129.16 26.01 128.89 26.54L128.94 26.59L128.92 26.57Q126.56 28.97 123.74 32.58L123.64 32.48L118.77 38.73L118.74 38.70Q121.09 38.61 123.33 38.69L123.22 38.57L123.22 38.57Q125.36 38.58 127.61 38.96L127.70 39.06L127.74 39.10Q127.85 39.66 128.57 41.68L128.51 41.62L128.57 41.68Q124.78 40.78 120.78 40.89L120.75 40.86L120.76 40.87Q116.88 41.06 113.22 42.24L113.16 42.18L113.24 42.26Q113.26 42.05 113.71 41.09ZM112.63 42.83L112.58 42.78L112.71 42.91Q113.36 42.45 114.96 42.04L115.04 42.12L114.92 42.00Q114.80 42.34 114.38 42.76L114.25 42.62L114.24 42.61Q114.04 43.21 113.43 44.35L113.54 44.46L113.43 44.35Q118.18 43.05 123.17 43.21L123.18 43.21L123.12 43.15Q128.06 43.30 132.63 45.16L132.64 45.17L132.75 45.29Q131.24 43.36 130.33 41.30L130.35 41.32L130.39 41.37Q129.57 41.00 128.50 40.77L128.52 40.79L128.58 40.85Q128.36 40.10 127.98 38.65L127.91 38.58L127.97 38.64Q126.45 38.34 122.87 38.22L122.95 38.30L122.82 38.18Q125.17 34.81 130.19 28.45L130.34 28.60L130.20 28.46Q130.57 27.84 131.25 26.50L131.15 26.40L128.89 27.18L128.86 27.15Q129.02 27.16 129.17 27.05L129.07 26.94L129.40 26.90L129.29 26.79Q129.79 25.77 130.37 24.82L130.27 24.73L130.45 24.91Q125.63 26.10 120.91 26.02L121.06 26.17L120.91 26.02Q116.26 26.10 111.77 24.27L111.63 24.13L111.73 24.23Q112.84 26.02 113.64 28.08L113.67 28.11L113.60 28.04Q114.44 28.35 115.51 28.61L115.49 28.60L115.66 28.76Q115.79 29.40 116.10 30.84L116.16 30.91L115.99 30.73Q117.63 31.04 120.95 31.20L120.90 31.15L120.97 31.22Q118.52 34.49 113.35 40.92L113.44 41.01L113.51 41.08Q113.17 41.58 112.59 42.79Z"/><path fill="#111" d="M95.02 28.70L94.91 28.59L94.91 28.59Q92.21 28.71 91.45 30.96L91.37 30.88L91.27 30.77Q91.22 31.68 91.11 32.32L91.01 32.22L90.92 32.14Q93.69 32.51 95.33 32.51L95.15 32.34L95.17 32.36Q96.85 32.40 99.44 32.28L99.53 32.37L99.48 32.32Q99.42 30.67 98.01 29.60L98.00 29.59L98.02 29.60Q96.65 28.54 94.86 28.54ZM95.10 41.27L95.05 41.21L95.09 41.26Q90.80 41.19 89.50 39.78L89.55 39.83L89.50 39.77Q88.52 38.30 88.36 35.03L88.32 34.98L88.46 35.12Q88.33 34.76 88.25 33.39L88.24 33.38L88.27 33.41Q88.25 31.22 88.25 30.50L88.21 30.46L88.13 30.38Q88.18 28.56 88.90 27.45L88.86 27.41L88.84 27.39Q90.19 25.93 93.16 25.93L93.26 26.03L94.82 26.03L94.77 25.98Q96.90 26.05 98.43 26.36L98.45 26.38L98.32 26.25Q100.42 26.76 101.41 27.98L101.45 28.01L101.48 28.05Q102.14 29.16 102.22 31.25L102.26 31.30L102.19 31.23Q102.21 32.39 102.25 34.56L102.18 34.49L102.24 34.55Q99.34 34.54 96.56 34.54L96.44 34.42L90.99 34.57L91.00 34.57Q91.07 38.92 95.15 38.69L95.13 38.67L95.21 38.75Q98.90 38.48 100.12 36.65L100.23 36.77L100.24 36.78Q101.00 37.20 102.60 38.38L102.70 38.47L102.58 38.36Q101.34 40.88 97.19 41.15L97.12 41.08L97.18 41.13Q96.34 41.06 94.97 41.14ZM97.41 43.62L97.41 43.61L97.24 43.45Q98.36 43.42 99.57 43.49L99.67 43.59L99.69 43.61Q104.65 43.77 105.56 40.99L105.52 40.95L105.43 40.86Q104.01 39.82 102.91 39.06L102.79 38.95L102.80 38.96Q102.91 38.49 103.10 38.26L103.24 38.41L103.23 38.39Q102.51 37.94 101.14 36.99L101.02 36.87L101.08 36.93Q102.07 36.89 104.12 37.20L104.22 37.29L104.25 37.32Q103.97 35.86 103.89 35.18L104.02 35.30L103.90 33.39L103.78 33.27Q103.60 30.88 102.95 29.40L102.97 29.42L103.03 29.47Q102.71 29.08 102.14 28.47L102.13 28.47L102.13 28.47Q101.93 28.11 101.70 27.54L101.77 27.61L101.73 27.57Q99.86 25.54 94.79 25.54L94.81 25.56L93.18 25.60L93.06 25.49Q89.99 25.65 88.54 27.13L88.42 27.01L88.47 27.06Q87.75 28.13 87.79 30.19L87.77 30.17L87.81 30.21Q87.82 31.13 87.94 33.38L87.93 33.37L88.09 33.54Q88.14 35.10 88.25 37.16L88.27 37.18L88.22 37.13Q88.38 39.26 89.25 40.33L89.25 40.33L89.35 40.42Q89.53 40.61 89.72 40.72L89.63 40.63L90.04 41.38L90.00 41.35Q90.68 43.09 97.26 43.47ZM95.12 38.24L95.19 38.31L95.16 38.28Q94.11 38.49 93.20 38.03L93.01 37.84L93.16 37.99Q93.06 37.56 92.87 36.87L92.84 36.83L92.88 36.88Q94.47 36.68 96.07 36.68L96.24 36.85L96.14 36.75Q97.87 36.80 99.55 36.92L99.59 36.97L99.45 36.83Q98.15 38.15 95.15 38.27ZM96.89 31.03L96.87 31.01L96.79 30.93Q97.46 30.99 98.79 31.37L98.80 31.38L98.96 31.73L99.09 32.04L99.10 32.06Q97.57 32.01 96.66 31.97L96.68 32.00L96.77 32.09Q94.54 32.10 94.50 32.10L94.30 31.91L94.31 31.91Q95.26 31.19 96.94 31.07Z"/><path fill="#333" d="M40.65 49.63L40.68 49.66L40.58 49.55Q43.61 45.81 46.50 39.60L46.50 39.60L46.46 39.56Q43.25 32.93 37.16 24.86L37.20 24.90L37.28 24.98Q39.05 25.99 41.83 26.63L41.98 26.78L41.90 26.71Q45.45 31.40 47.89 36.61L47.98 36.70L47.79 36.51Q50.10 31.36 53.18 26.95L53.11 26.87L53.13 26.90Q55.42 26.64 57.52 25.84L57.39 25.71L57.46 25.78Q54.00 29.55 50.54 36.98L50.58 37.03L47.78 43.05L47.72 42.99Q46.28 46.12 44.53 48.75L44.49 48.71L44.54 48.75Q42.16 49.16 40.71 49.69ZM46.84 50.99L46.88 51.02L46.74 50.88Q48.56 48.09 50.00 44.82L50.04 44.86L52.67 38.42L52.63 38.38Q56.24 30.46 59.55 26.46L59.47 26.38L59.62 26.53Q58.29 27.22 56.38 27.90L56.23 27.75L57.33 26.41L57.27 26.35Q57.95 25.77 58.56 25.09L58.44 24.97L58.52 25.05Q55.85 26.11 53.00 26.57L52.89 26.47L53.02 26.59Q50.30 30.53 48.36 34.99L48.24 34.87L48.19 34.82Q46.69 31.65 44.90 28.83L44.94 28.87L44.91 28.84Q44.69 28.81 44.33 28.77L44.30 28.74L44.34 28.78Q43.91 28.67 43.72 28.67L43.79 28.74L43.65 28.61Q43.07 27.54 42.12 26.39L41.96 26.23L42.01 26.28Q38.93 25.71 36.19 24.00L36.13 23.94L36.20 24.01Q42.28 31.85 45.98 39.46L46.14 39.62L46.07 39.55Q43.83 44.55 39.76 50.18L39.87 50.29L39.91 50.34Q40.72 50.04 41.52 49.89L41.46 49.83L43.02 49.41L43.10 49.49Q42.42 50.14 41.24 51.78L41.24 51.78L41.22 51.76Q43.60 51.25 46.88 51.02Z"/></svg>