<svg xmlns="http://www.w3.org/2000/svg" width="150" height="50" viewBox="0,0,150,50"><path fill="#333" d="M68.38 19.39L68.38 19.40L68.29 19.31Q69.12 23.53 69.27 27.11L69.43 27.26L69.32 27.15Q70.41 27.22 71.48 27.22L71.41 27.15L73.76 27.29L73.66 27.19Q74.73 27.20 75.61 25.79L75.55 25.74L75.62 25.80Q76.42 24.69 76.53 23.51L76.43 23.41L76.37 23.36Q76.89 20.49 72.67 20.00L72.71 20.04L72.61 19.94Q71.00 19.96 68.37 19.39ZM69.28 29.85L69.36 29.93L69.42 30.00Q69.30 36.15 68.15 40.57L68.14 40.55L68.26 40.67Q66.62 40.90 64.30 41.97L64.35 42.02L64.31 41.98Q66.78 35.43 66.52 28.16L66.40 28.04L66.45 28.09Q66.15 20.71 63.37 14.28L63.43 14.33L63.46 14.36Q67.48 17.01 73.72 17.01L73.86 17.15L73.74 17.03Q79.86 17.10 80.02 20.57L80.01 20.56L80.00 20.55Q79.98 22.89 78.99 25.56L79.01 25.58L79.13 25.70Q78.60 26.69 77.65 27.91L77.77 28.02L77.67 27.92Q76.42 29.61 73.87 29.87L73.96 29.97L73.79 29.79Q71.54 29.83 69.29 29.86ZM75.57 32.26L75.45 32.14L75.50 32.19Q79.71 32.49 80.97 27.69L80.92 27.64L80.98 27.70Q81.84 23.95 81.68 21.93L81.75 22.00L81.75 21.99Q81.56 20.40 80.80 19.41L80.78 19.39L80.85 19.46Q80.55 19.16 80.05 18.93L79.99 18.87L80.07 18.95Q79.95 18.67 79.34 17.91L79.43 18.00L79.40 17.97Q77.92 16.72 73.96 16.72L73.90 16.65L73.89 16.64Q66.96 16.61 62.74 13.45L62.66 13.38L62.66 13.37Q65.98 20.61 66.24 28.08L66.23 28.07L66.20 28.03Q66.52 35.73 63.85 42.82L63.80 42.76L63.72 42.68Q64.89 42.14 65.88 41.76L65.91 41.79L65.48 42.88L65.53 42.93Q65.27 43.43 65.01 44.01L65.01 44.01L64.98 43.98Q67.50 43.03 70.39 42.50L70.29 42.40L70.37 42.48Q71.25 37.01 71.33 32.28L71.24 32.20L71.30 32.26Q72.39 32.17 73.38 32.17L73.45 32.23L73.27 32.06Q74.79 32.24 75.59 32.28ZM74.49 22.20L74.47 22.17L74.59 22.30Q74.95 22.16 75.94 22.39L76.04 22.50L76.07 22.52Q76.08 22.65 76.12 22.95L76.16 22.99L76.10 22.93Q76.19 23.25 76.11 23.52L76.19 23.59L76.07 23.47Q76.00 24.73 75.27 25.61L75.27 25.61L75.29 25.63Q74.69 26.66 73.66 26.85L73.72 26.91L73.78 26.97Q72.97 26.88 71.33 26.88L71.39 26.94L71.25 26.80Q71.21 24.51 70.98 22.15L71.06 22.23L72.74 22.23L72.77 22.26Q73.73 22.39 74.61 22.32Z"/><path fill="#333" d="M114.27 47.08L114.29 47.10L114.31 47.12Q113.27 47.22 111.37 47.53L111.36 47.52L111.48 47.64Q112.67 45.36 113.70 44.07L113.82 44.19L113.66 44.03Q115.42 44.34 115.57 44.34L115.67 44.44L115.65 44.42Q116.02 44.56 116.55 44.45L116.48 44.37L116.40 44.30Q117.13 44.26 117.32 44.26L117.34 44.28L117.36 44.31Q119.95 44.08 119.88 41.91L119.87 41.90L119.73 41.77Q119.77 40.36 119.66 34.12L119.63 34.09L119.78 34.23Q119.73 30.69 119.81 26.54L119.66 26.39L121.03 26.16L121.04 26.17Q121.80 26.17 122.48 25.94L122.45 25.90L122.39 25.85Q122.31 30.41 122.35 34.79L122.20 34.64L122.32 34.76Q122.24 39.02 122.77 43.40L122.86 43.49L122.81 43.44Q122.99 43.85 122.99 44.11L123.01 44.13L122.87 43.99Q122.88 45.64 121.20 46.02L121.27 46.08L121.16 45.98Q118.07 46.39 114.23 47.03ZM120.98 22.80L118.83 19.66L118.87 19.70Q119.93 18.32 121.76 15.54L121.79 15.57L121.80 15.58Q122.43 16.45 123.77 18.28L123.73 18.24L120.97 22.79ZM124.02 49.44L123.98 49.40L124.03 49.45Q124.62 49.55 125.38 49.20L125.28 49.10L125.32 49.15Q125.64 48.44 125.64 47.98L125.71 48.05L125.75 48.09Q125.62 47.62 125.51 47.01L125.51 47.01L125.62 47.12Q124.19 40.63 124.19 32.71L124.17 32.69L124.15 32.67Q124.19 29.85 124.34 26.96L124.34 26.96L124.34 26.96Q123.89 27.23 122.74 27.53L122.65 27.44L122.76 27.55Q122.69 26.98 122.73 26.45L122.67 26.39L122.84 25.38L122.93 25.48Q121.18 26.08 119.39 26.12L119.33 26.06L119.44 26.17Q119.23 30.34 119.27 33.92L119.25 33.90L119.52 41.90L119.48 41.86Q119.52 43.80 117.35 43.91L117.35 43.91L117.38 43.94Q117.06 43.85 116.55 43.91L116.71 44.07L116.66 44.02Q116.17 44.11 115.91 44.11L115.78 43.98L115.79 43.99Q115.28 43.94 113.72 43.52L113.81 43.61L113.71 43.51Q113.35 44.22 112.25 45.89L112.23 45.88L110.64 48.13L110.73 48.22Q111.58 48.00 113.22 47.62L113.21 47.62L112.69 48.28L112.12 48.89L112.27 49.03Q114.56 48.89 115.90 48.97L115.84 48.91L115.75 48.83Q118.15 49.09 124.09 49.51ZM121.03 23.61L121.05 23.63L121.40 23.11L121.30 23.00Q121.64 23.42 122.59 25.02L122.60 25.03L122.76 25.19Q124.24 22.02 125.80 18.94L125.85 18.99L125.78 18.92Q124.87 17.40 123.92 16.11L123.75 15.94L123.80 15.98Q123.71 16.31 123.36 16.84L123.26 16.74L123.30 16.78Q122.79 16.05 121.80 14.75L121.88 14.83L121.89 14.84Q120.72 16.45 118.40 19.80L118.35 19.75L118.38 19.78Q119.35 21.06 121.07 23.65Z"/><path fill="#111" d="M47.65 18.50L47.62 18.47L47.52 18.37Q46.91 18.87 46.76 19.66L46.69 19.60L46.68 24.72L46.81 24.85Q47.96 24.86 50.16 24.59L50.07 24.50L50.06 24.49Q49.98 24.87 49.95 25.71L49.99 25.75L50.03 25.79Q50.04 26.60 50.04 27.06L49.96 26.98L48.43 27.12L48.30 27.00Q47.63 27.20 46.75 27.20L46.82 27.27L46.63 27.07Q46.79 31.43 46.72 39.80L46.71 39.79L46.60 39.68Q44.54 39.90 43.05 40.59L42.96 40.50L42.86 40.40Q44.11 34.41 43.99 27.18L43.88 27.06L43.95 27.14Q43.18 26.98 41.89 26.71L41.93 26.76L41.90 26.72Q41.95 25.78 41.76 23.84L41.69 23.78L41.82 23.90Q42.94 24.41 43.89 24.60L43.90 24.61L43.91 24.62Q43.71 23.81 43.41 21.34L43.45 21.38L43.41 21.34Q43.34 19.44 43.34 18.49L43.22 18.37L43.19 18.34Q43.22 16.70 44.63 16.13L44.77 16.27L44.70 16.19Q45.42 15.74 50.26 14.91L50.35 14.99L50.35 14.99Q51.21 14.90 52.05 14.79L52.08 14.82L52.08 14.82Q51.69 15.42 51.53 16.29L51.63 16.39L51.39 18.02L51.36 17.98Q50.73 17.85 50.24 17.97L50.22 17.95L50.18 17.91Q49.43 17.77 47.53 18.38ZM53.04 19.59L52.98 19.53L53.13 19.68Q53.30 17.30 53.91 14.75L54.09 14.93L53.94 14.78Q53.32 15.11 52.03 15.72L52.08 15.78L52.38 13.98L52.40 14.00Q51.17 14.18 48.70 14.72L48.70 14.72L48.79 14.80Q47.69 14.96 44.49 15.87L44.32 15.70L44.32 15.70Q42.77 16.13 42.77 18.00L42.83 18.06L42.76 17.98Q42.76 18.30 42.84 18.64L42.95 18.75L42.99 18.79Q43.24 20.14 43.35 21.47L43.23 21.35L43.45 24.05L43.49 24.08Q42.11 23.70 41.47 23.24L41.35 23.12L41.48 23.25Q41.57 24.18 41.61 25.21L41.51 25.12L41.78 27.25L41.76 27.23Q42.34 27.28 43.14 27.36L43.32 27.53L43.16 29.47L43.64 29.56L43.55 29.48Q43.57 35.74 42.58 41.18L42.51 41.11L42.53 41.14Q43.47 40.59 44.65 40.32L44.58 40.25L44.43 42.34L44.51 42.43Q45.67 42.07 46.97 42.03L46.96 42.02L46.96 42.03Q48.16 41.97 49.42 42.23L49.49 42.30L49.47 42.29Q48.67 37.33 48.67 29.38L48.75 29.46L48.58 29.29Q49.74 29.35 51.84 29.43L51.92 29.51L51.95 27.67L51.85 27.58Q51.80 26.57 51.84 25.62L51.91 25.69L51.82 25.60Q51.39 25.74 50.32 26.01L50.35 26.04L50.26 25.95Q50.33 25.33 50.44 24.00L50.42 23.97L50.55 24.10Q49.71 24.33 48.91 24.40L48.80 24.30L48.74 24.23Q48.91 23.00 49.02 21.59L48.88 21.45L48.88 21.45Q49.04 20.81 49.58 20.47L49.60 20.49L49.62 20.51Q50.53 19.79 51.35 19.71L51.48 19.83L51.31 19.67Q52.29 19.75 53.12 19.67Z"/><path fill="#333" d="M19.06 19.42L19.00 19.35L19.01 19.36Q19.78 23.52 19.94 27.10L20.07 27.24L20.07 27.24Q21.19 27.33 22.25 27.33L22.14 27.22L24.43 27.29L24.42 27.29Q25.45 27.25 26.33 25.84L26.21 25.72L26.36 25.87Q27.01 24.62 27.12 23.44L27.03 23.34L27.22 23.54Q27.47 20.39 23.24 19.90L23.29 19.95L23.24 19.90Q21.63 19.93 19.00 19.36ZM20.09 29.99L20.02 29.93L20.08 29.98Q20.02 36.20 18.87 40.62L18.89 40.64L18.80 40.54Q17.43 41.04 15.10 42.10L15.09 42.09L14.97 41.97Q17.50 35.48 17.23 28.21L17.08 28.06L17.11 28.09Q16.86 20.75 14.08 14.31L14.12 14.36L14.06 14.30Q18.28 17.14 24.52 17.14L24.39 17.02L24.37 17.00Q30.44 17.01 30.59 20.48L30.68 20.56L30.70 20.59Q30.68 22.93 29.69 25.59L29.76 25.66L29.78 25.68Q29.33 26.75 28.38 27.97L28.42 28.01L28.33 27.92Q27.04 29.56 24.49 29.83L24.53 29.87L24.60 29.94Q22.31 29.94 20.07 29.98ZM26.10 32.13L26.13 32.15L26.23 32.26Q30.41 32.51 31.67 27.72L31.64 27.69L31.67 27.72Q32.61 24.05 32.45 22.03L32.44 22.02L32.44 22.02Q32.29 20.46 31.53 19.47L31.51 19.45L31.47 19.41Q31.09 19.03 30.59 18.80L30.74 18.95L30.68 18.89Q30.70 18.75 30.09 17.99L30.12 18.02L29.99 17.89Q28.56 16.70 24.60 16.70L24.50 16.59L24.61 16.70Q17.69 16.68 13.47 13.52L13.35 13.40L13.38 13.43Q16.63 20.60 16.90 28.06L16.89 28.05L16.78 27.94Q17.11 35.66 14.44 42.74L14.45 42.74L14.47 42.77Q15.45 42.03 16.44 41.65L16.58 41.79L16.18 42.92L16.17 42.90Q15.98 43.47 15.71 44.04L15.77 44.10L15.74 44.07Q18.05 42.92 20.94 42.39L21.02 42.46L21.13 42.57Q21.89 36.97 21.96 32.25L21.86 32.14L21.88 32.17Q23.11 32.22 24.10 32.22L24.08 32.20L23.99 32.10Q25.39 32.18 26.19 32.22ZM25.21 22.25L25.26 22.30L25.26 22.30Q25.63 22.17 26.62 22.40L26.77 22.55L26.78 22.56Q26.90 22.80 26.94 23.11L26.79 22.96L26.92 23.08Q26.83 23.22 26.75 23.49L26.86 23.60L26.91 23.65Q26.67 24.74 25.95 25.61L26.00 25.67L26.06 25.73Q25.42 26.72 24.39 26.91L24.40 26.92L24.34 26.86Q23.54 26.79 21.91 26.79L21.96 26.84L21.99 26.88Q21.97 24.61 21.74 22.25L21.74 22.25L23.46 22.29L23.42 22.25Q24.30 22.29 25.17 22.21Z"/><path fill="#444" d="M103.77 38.00L103.77 38.00L103.62 37.85Q104.05 38.97 104.59 40.99L104.49 40.89L104.44 40.84Q100.37 39.66 95.76 39.93L95.69 39.85L95.75 39.92Q91.10 40.10 87.10 42.08L87.20 42.18L87.17 42.15Q87.43 41.49 87.46 41.57L87.35 41.45L87.31 41.42Q91.11 37.52 95.03 33.11L95.01 33.09L95.13 33.21Q99.48 28.16 100.67 23.48L100.70 23.51L100.53 23.34Q101.04 21.65 99.77 20.47L99.89 20.59L99.72 20.42Q98.47 19.27 96.68 19.42L96.67 19.41L96.72 19.45Q96.33 19.37 95.98 19.37L95.99 19.37L96.09 19.47Q94.53 19.43 93.27 20.35L93.34 20.41L93.27 20.34Q92.07 21.81 92.29 24.47L92.30 24.48L92.14 24.32Q90.50 24.13 89.29 23.67L89.20 23.58L89.28 23.66Q89.08 22.25 89.01 20.80L89.02 20.82L89.02 20.82Q88.96 19.19 89.57 18.05L89.37 17.86L89.49 17.98Q91.32 16.65 94.67 16.65L94.57 16.55L96.46 16.68L96.37 16.59Q98.70 16.68 99.65 16.79L99.63 16.77L99.60 16.73Q104.02 17.24 104.29 19.68L104.25 19.64L104.30 19.69Q104.35 20.23 104.27 21.03L104.15 20.91L104.13 20.89Q104.25 21.69 104.10 22.38L103.98 22.26L104.03 22.31Q102.46 30.49 94.89 37.34L94.80 37.26L94.89 37.35Q96.28 37.18 97.65 37.18L97.51 37.03L97.58 37.10Q100.74 37.03 103.60 37.83ZM103.17 17.15L103.19 17.17L103.01 16.99Q101.53 16.46 99.82 16.39L99.77 16.34L96.36 16.17L96.30 16.10Q91.83 15.82 89.62 16.93L89.74 17.04L89.66 16.97Q88.70 18.44 88.70 20.49L88.66 20.45L88.61 20.41Q88.76 21.24 89.06 24.06L89.05 24.04L88.89 23.89Q89.42 24.11 90.60 24.41L90.77 24.58L90.77 25.61L90.78 25.63Q90.57 25.91 90.65 26.44L90.79 26.58L90.65 26.44Q91.95 26.60 94.43 26.83L94.52 26.92L94.48 26.88Q94.36 26.42 94.36 26.08L94.36 26.08L94.39 26.11Q94.36 24.25 95.58 22.90L95.56 22.89L95.56 22.89Q96.86 21.61 98.65 21.73L98.59 21.67L98.56 21.63Q99.33 21.69 100.10 21.84L100.13 21.88L100.14 21.89Q100.19 22.20 100.26 22.62L100.44 22.79L100.26 22.62Q100.37 23.11 100.30 23.45L100.40 23.56L100.32 23.47Q99.08 28.25 94.66 33.09L94.55 32.97L94.63 33.05Q92.53 35.33 87.09 41.38L87.15 41.45L87.01 41.30Q86.92 42.24 86.57 42.81L86.55 42.79L86.46 42.70Q88.10 41.86 89.63 41.33L89.58 41.28L89.67 41.38Q88.96 41.96 88.01 43.45L87.94 43.38L87.90 43.33Q87.88 43.77 87.76 44.11L87.71 44.06L87.71 44.06Q92.67 42.09 98.15 42.28L98.19 42.32L98.04 42.17Q103.83 42.45 108.40 44.81L108.26 44.67L107.30 42.56L107.27 42.54Q106.81 41.38 106.54 40.58L106.42 40.47L106.41 40.46Q105.66 40.00 104.44 39.58L104.53 39.67L104.56 39.71Q104.42 38.99 104.04 37.62L104.02 37.60L103.93 37.51Q101.68 36.90 99.39 36.71L99.40 36.71L99.55 36.87Q104.26 32.32 105.78 24.06L105.73 24.01L105.89 21.09L105.84 21.04Q105.78 19.26 104.56 18.58L104.54 18.56L104.55 18.61L104.58 18.64Q104.54 18.56 104.46 18.56L104.50 18.59L104.34 18.43Q104.17 17.65 103.06 17.04Z"/></svg>