<svg xmlns="http://www.w3.org/2000/svg" width="150" height="50" viewBox="0,0,150,50"><path fill="#111" d="M21.00 28.68L20.94 28.62L21.02 28.70Q18.20 28.69 17.43 30.94L17.42 30.92L17.33 30.83Q17.13 31.59 17.02 32.23L17.06 32.28L16.93 32.15Q19.64 32.46 21.28 32.46L21.34 32.52L21.17 32.35Q22.90 32.44 25.48 32.33L25.58 32.42L25.49 32.34Q25.42 30.66 24.01 29.60L23.98 29.57L24.05 29.63Q22.72 28.61 20.93 28.61ZM21.09 41.26L21.01 41.17L21.11 41.27Q16.87 41.26 15.57 39.85L15.52 39.80L15.46 39.74Q14.51 38.30 14.36 35.02L14.29 34.96L14.38 35.05Q14.48 34.92 14.40 33.54L14.24 33.38L14.28 33.42Q14.09 31.06 14.09 30.34L14.13 30.38L14.13 30.37Q14.22 28.60 14.94 27.50L14.83 27.38L14.85 27.40Q16.34 26.07 19.31 26.07L19.30 26.07L20.83 26.03L20.84 26.04Q22.97 26.12 24.49 26.42L24.41 26.35L24.39 26.32Q26.53 26.86 27.52 28.08L27.40 27.97L27.52 28.08Q28.06 29.08 28.14 31.17L28.16 31.20L28.20 31.23Q28.17 32.35 28.21 34.52L28.15 34.46L28.22 34.53Q25.27 34.48 22.49 34.48L22.53 34.51L16.99 34.57L17.04 34.62Q17.18 39.02 21.25 38.80L21.18 38.72L21.23 38.77Q24.92 38.50 26.14 36.67L26.19 36.73L26.18 36.72Q26.94 37.13 28.54 38.31L28.69 38.46L28.63 38.40Q27.32 40.86 23.17 41.13L23.12 41.08L23.17 41.13Q22.33 41.05 20.96 41.13ZM23.43 43.64L23.28 43.48L23.30 43.50Q24.33 43.39 25.54 43.46L25.65 43.57L25.62 43.54Q30.60 43.72 31.51 40.94L31.50 40.93L31.61 41.04Q29.88 39.69 28.78 38.93L28.86 39.01L28.87 39.03Q29.01 38.60 29.20 38.37L29.17 38.34L29.15 38.31Q28.42 37.85 27.05 36.90L27.02 36.87L26.98 36.83Q28.23 37.05 30.28 37.35L30.19 37.26L30.22 37.30Q30.12 36.01 30.04 35.33L29.99 35.28L29.72 33.21L29.82 33.32Q29.56 30.84 28.91 29.36L28.91 29.36L28.93 29.38Q28.74 29.11 28.17 28.50L28.14 28.47L28.22 28.56Q27.97 28.15 27.74 27.58L27.74 27.58L27.73 27.57Q25.85 25.54 20.79 25.54L20.82 25.57L19.09 25.52L19.21 25.63Q15.87 25.53 14.42 27.01L14.44 27.04L14.46 27.05Q13.69 28.07 13.72 30.12L13.90 30.30L13.73 30.13Q13.91 31.22 14.02 33.47L14.08 33.53L13.97 33.42Q14.00 34.97 14.11 37.02L14.17 37.08L14.14 37.05Q14.42 39.31 15.29 40.37L15.43 40.50L15.30 40.37Q15.50 40.58 15.69 40.69L15.69 40.69L16.00 41.35L15.93 41.27Q16.79 43.20 23.38 43.59ZM21.19 38.31L21.21 38.33L21.14 38.27Q20.12 38.49 19.20 38.04L19.07 37.90L19.13 37.96Q19.13 37.62 18.94 36.94L18.92 36.91L18.87 36.86Q20.54 36.75 22.14 36.75L22.11 36.72L22.09 36.70Q23.84 36.77 25.52 36.89L25.43 36.80L25.56 36.93Q24.20 38.21 21.20 38.32ZM22.80 30.94L22.86 31.00L22.89 31.02Q23.47 31.00 24.81 31.38L24.84 31.42L25.01 31.78L25.10 32.06L24.94 31.90Q23.63 32.07 22.72 32.04L22.80 32.12L22.68 32.00Q20.36 31.93 20.33 31.93L20.32 31.92L20.37 31.97Q21.17 31.10 22.85 30.98Z"/><path fill="#222" d="M47.17 41.28L47.29 41.40L47.35 41.46Q44.45 41.61 43.19 41.07L43.08 40.96L43.13 41.01Q41.19 40.21 41.27 37.74L41.32 37.80L41.33 37.80Q41.36 34.29 41.36 34.86L41.43 34.93L41.47 34.97Q41.46 29.63 38.61 24.80L38.54 24.73L38.48 24.67Q40.44 25.60 42.42 25.98L42.45 26.02L42.56 26.13Q44.27 30.73 44.16 35.23L44.16 35.23L44.18 35.25Q44.01 36.71 44.85 37.93L44.88 37.97L44.87 37.95Q45.66 39.16 47.18 38.97L47.12 38.91L47.59 38.88L47.51 38.80Q48.92 38.80 49.74 38.04L49.77 38.08L49.82 38.12Q50.50 37.22 50.50 36.27L50.59 36.36L50.59 36.37Q50.64 36.19 50.61 36.00L50.45 35.85L50.62 36.01Q50.44 30.65 51.58 26.31L51.63 26.36L51.64 26.37Q52.62 26.25 53.61 26.02L53.70 26.11L55.67 25.57L55.56 25.46Q53.11 30.58 53.41 36.14L53.44 36.17L53.36 36.08Q53.49 39.11 51.78 40.25L51.88 40.36L51.89 40.37Q50.61 41.25 47.30 41.41ZM49.50 43.69L49.54 43.73L49.50 43.69Q53.07 43.95 54.90 43.19L54.81 43.10L54.87 43.15Q55.70 42.31 55.70 40.90L55.73 40.93L55.71 40.91Q55.70 39.99 55.43 38.43L55.59 38.58L55.54 38.53Q55.04 35.37 55.42 32.36L55.45 32.40L55.35 32.30Q55.79 29.19 57.19 26.45L57.23 26.48L57.24 26.49Q56.50 26.70 55.16 27.12L55.16 27.11L55.27 27.22Q55.43 26.55 55.74 25.98L55.71 25.95L56.32 24.85L56.35 24.88Q54.51 25.63 51.35 26.12L51.35 26.12L51.19 25.96Q49.97 30.76 50.13 35.86L50.22 35.96L50.24 35.98Q50.19 37.95 47.53 38.44L47.68 38.59L47.29 38.66L47.08 38.60L46.16 38.48L46.07 38.39Q45.96 37.48 46.00 36.99L46.12 37.11L46.17 37.16Q46.23 32.50 45.55 28.09L45.54 28.08L44.53 27.98L44.51 27.96Q44.02 27.97 43.49 27.86L43.52 27.88L43.44 27.80Q43.07 26.41 42.80 25.65L42.87 25.71L42.79 25.64Q40.11 25.31 37.86 24.01L37.82 23.97L37.88 24.04Q39.97 27.50 40.69 30.88L40.58 30.77L40.63 30.82Q41.07 32.97 40.92 36.47L41.10 36.66L40.98 36.54Q41.00 36.67 40.92 37.77L40.99 37.84L40.94 37.79Q40.89 40.25 42.26 41.21L42.22 41.16L42.10 41.05Q42.67 43.48 49.68 43.87Z"/><path fill="#444" d="M117.77 29.56L117.82 29.61L117.94 29.73Q117.94 34.00 117.22 38.15L117.11 38.04L117.13 38.06Q119.47 37.58 122.55 37.46L122.39 37.31L122.41 37.33Q123.89 37.66 124.95 36.65L124.80 36.50L124.79 36.49Q125.94 35.57 125.94 34.24L125.83 34.12L125.99 34.28Q126.00 33.99 125.96 33.72L125.90 33.66L125.90 33.66Q125.79 30.77 123.54 29.93L123.49 29.87L123.48 29.87Q122.63 29.47 121.95 29.55L122.01 29.61L122.12 29.73Q121.04 29.64 120.01 29.68L120.02 29.68L120.02 29.68Q118.97 29.74 117.95 29.74ZM116.57 19.15L116.69 19.27L116.71 19.29Q117.43 22.44 117.69 26.82L117.71 26.84L117.69 26.82Q119.29 27.08 121.95 27.12L121.98 27.14L121.98 27.15Q124.77 27.05 125.12 23.51L125.21 23.60L125.17 23.57Q125.36 21.62 123.95 20.79L123.87 20.70L124.02 20.85Q122.96 20.18 118.55 19.53L118.66 19.64L118.66 19.64Q117.65 19.54 116.73 19.31ZM112.95 42.07L112.97 42.09L113.06 42.17Q115.51 35.49 115.25 28.11L115.21 28.07L115.22 28.08Q114.96 20.81 112.03 14.34L111.87 14.18L111.86 14.18Q115.85 16.91 122.07 17.16L121.91 16.99L121.94 17.02Q128.13 17.24 128.47 20.13L128.47 20.13L128.50 20.15Q128.87 22.96 127.46 25.62L127.39 25.56L127.38 25.55Q126.78 27.19 125.19 27.88L125.19 27.89L125.10 27.79Q128.87 28.60 129.10 33.96L129.07 33.94L129.00 33.87Q129.05 34.94 128.97 36.35L129.00 36.38L129.10 36.47Q128.99 37.74 128.06 38.67L127.94 38.56L127.95 38.57Q127.02 39.50 125.69 39.65L125.67 39.64L125.81 39.77Q124.37 39.90 123.31 39.90L123.18 39.77L123.17 39.76Q117.46 39.76 112.93 42.04ZM125.80 42.43L125.86 42.48L125.70 42.33Q126.82 42.57 128.68 42.68L128.51 42.51L128.57 42.57Q129.94 42.57 131.04 41.70L131.08 41.73L131.13 41.78Q131.96 40.89 131.84 39.33L131.72 39.21L131.77 39.26Q131.73 38.35 131.01 34.89L130.90 34.78L130.91 34.79Q130.20 31.52 128.34 30.04L128.51 30.21L127.97 29.26L128.11 29.39Q129.78 27.98 130.35 24.21L130.23 24.10L130.22 24.08Q130.34 22.91 130.26 21.50L130.25 21.48L130.26 21.50Q130.29 20.27 129.19 19.44L129.23 19.48L129.29 19.53Q128.85 19.21 128.73 19.17L128.74 19.17L128.79 19.22Q128.55 18.72 127.71 17.92L127.64 17.84L127.77 17.98Q126.16 16.82 121.93 16.63L121.94 16.64L121.86 16.56Q115.38 16.43 111.38 13.54L111.23 13.39L111.37 13.53Q114.64 20.53 114.94 28.07L114.96 28.08L114.82 27.94Q115.14 35.77 112.32 42.69L112.41 42.78L114.39 41.75L114.51 41.87Q114.00 42.88 113.50 44.03L113.66 44.18L113.68 44.20Q117.99 42.34 123.01 42.34L122.84 42.17L123.00 42.33Q124.26 42.18 125.70 42.33ZM123.67 31.88L123.57 31.78L123.59 31.80Q124.29 31.71 125.21 32.16L125.22 32.17L125.30 32.26Q125.46 32.65 125.61 33.71L125.63 33.73L125.45 33.55Q125.77 35.05 124.84 36.10L124.71 35.97L124.74 36.00Q123.80 37.04 122.39 36.92L122.47 37.01L121.07 37.20L121.00 37.13Q120.12 37.05 119.39 37.16L119.41 37.18L119.55 37.32Q119.89 35.53 119.96 32.06L119.92 32.01L119.92 32.02Q120.56 31.93 121.81 31.89L121.80 31.88L121.73 31.81Q123.12 31.91 123.73 31.94ZM122.67 22.32L122.70 22.35L122.99 22.26L123.02 22.29Q123.16 22.20 123.35 22.24L123.48 22.37L123.85 22.36L124.04 22.36L124.84 22.62L124.66 22.45Q124.80 22.74 124.80 23.04L124.84 23.08L124.84 23.61L124.74 23.51Q124.75 24.78 123.87 25.71L123.88 25.72L123.96 25.79Q122.99 26.63 121.77 26.63L121.90 26.77L121.79 26.65Q120.74 26.63 120.74 26.63L120.73 26.62L120.72 26.61Q119.44 26.63 119.78 26.63L119.74 26.59L119.79 26.63Q119.73 25.09 119.43 22.05L119.48 22.10L119.47 22.08Q121.07 22.25 122.60 22.25Z"/><path fill="#333" d="M98.25 32.22L88.91 22.11L88.84 22.05Q89.87 25.93 89.87 29.66L89.79 29.58L89.77 29.56Q89.68 35.45 87.63 41.01L87.72 41.10L87.79 41.17Q86.75 41.47 84.51 42.23L84.37 42.09L84.44 42.17Q87.24 36.36 87.24 29.66L87.13 29.55L87.19 29.61Q87.28 21.05 82.79 13.63L82.71 13.56L82.68 13.52Q83.18 13.76 83.87 14.18L83.78 14.09L83.79 14.10Q96.02 25.45 103.86 34.70L103.85 34.69L103.74 34.58Q103.51 32.22 103.51 29.78L103.55 29.83L103.54 29.82Q103.46 22.51 105.98 16.30L105.94 16.27L106.02 16.35Q108.41 15.88 110.01 15.20L109.91 15.10L109.87 15.06Q106.65 21.31 106.34 28.47L106.26 28.39L106.24 28.37Q105.93 35.71 108.90 41.88L109.04 42.01L108.95 41.92Q108.43 41.90 108.01 41.71L107.95 41.65L107.92 41.62Q103.41 37.72 98.19 32.16L98.19 32.16ZM111.66 45.21L111.53 45.07L111.69 45.23Q112.07 45.31 112.49 45.50L112.44 45.45L113.44 45.96L113.41 45.93Q108.16 38.89 108.16 29.53L108.20 29.57L108.24 29.61Q108.10 22.23 111.41 15.99L111.46 16.04L111.48 16.06Q110.78 16.23 109.37 16.84L109.46 16.93L109.39 16.86Q109.73 15.98 110.57 14.42L110.62 14.48L110.70 14.55Q108.09 15.30 105.66 15.87L105.63 15.84L105.79 16.00Q103.17 22.48 103.17 29.91L103.02 29.75L103.05 29.79Q103.07 31.67 103.26 33.65L103.30 33.69L103.24 33.63Q98.60 27.96 93.84 23.35L93.94 23.45L83.82 13.71L83.76 13.65Q83.31 13.47 82.09 12.90L82.04 12.85L82.01 12.82Q86.84 20.50 86.84 29.60L86.83 29.59L86.97 29.73Q86.96 36.84 83.87 42.85L83.74 42.72L83.86 42.84Q84.15 42.71 85.79 42.10L85.78 42.09L85.82 42.13Q85.37 42.79 84.54 44.28L84.66 44.39L84.66 44.40Q85.95 43.82 89.41 43.02L89.37 42.98L89.46 43.07Q91.70 36.86 91.70 29.66L91.80 29.77L91.73 29.69Q91.76 27.63 91.53 25.50L91.58 25.55L91.53 25.49Q103.04 38.34 111.64 45.19Z"/><path fill="#222" d="M72.63 40.04L72.69 40.09L70.64 40.34L70.71 40.40Q70.20 40.35 69.23 40.41L69.24 40.42L69.26 40.44Q68.18 40.38 67.68 40.38L67.70 40.40L67.72 40.42Q66.08 40.42 65.06 39.58L65.15 39.68L65.15 39.68Q65.84 38.46 67.48 36.33L67.41 36.26L67.53 36.38Q68.72 37.88 70.92 37.65L71.05 37.77L70.99 37.72Q71.79 37.49 72.44 36.84L72.57 36.97L72.43 36.83Q73.11 36.22 73.00 35.34L73.06 35.41L73.00 35.34Q72.87 30.73 72.95 26.16L73.05 26.26L72.99 26.20Q73.09 21.65 73.62 17.04L73.64 17.06L73.52 16.95Q75.46 16.75 77.59 15.72L77.70 15.83L77.73 15.86Q75.87 22.61 75.87 29.84L75.84 29.80L75.73 29.70Q75.85 33.36 76.30 36.86L76.24 36.80L76.33 36.89Q76.32 37.14 76.32 37.48L76.27 37.43L76.35 37.52Q76.36 38.09 76.13 38.63L76.04 38.54L76.04 38.54Q75.54 39.86 72.72 40.13ZM77.70 43.01L77.69 43.01L77.95 42.92L78.34 42.89L78.44 42.61L78.49 42.67Q78.91 42.51 78.99 42.40L78.91 42.32L78.90 42.31Q79.13 41.17 78.86 40.18L78.76 40.07L78.91 40.23Q77.50 34.36 77.77 28.00L77.75 27.99L77.86 28.10Q77.98 21.86 79.77 15.96L79.72 15.91L79.74 15.93Q78.94 16.65 77.68 17.37L77.75 17.44L77.64 17.34Q77.75 16.49 78.17 14.97L78.30 15.10L78.17 14.97Q75.79 16.43 73.12 16.74L72.99 16.60L73.06 16.67Q72.70 21.08 72.63 26.03L72.68 26.08L72.59 25.99Q72.63 32.01 72.71 35.44L72.75 35.47L72.62 35.34Q72.80 37.24 71.05 37.39L71.04 37.38L70.90 37.25Q69.24 37.41 67.57 35.77L67.60 35.81L67.51 35.72Q65.58 38.36 64.63 39.92L64.56 39.84L64.52 39.81Q65.18 40.47 66.21 40.70L66.29 40.78L66.33 40.82Q66.14 40.86 65.88 41.09L65.90 41.12L65.91 41.12Q67.33 42.04 69.31 42.31L69.23 42.23L69.35 42.35Q69.70 42.36 72.99 42.66L73.03 42.70L73.08 42.76Q76.33 43.02 77.70 43.02Z"/></svg>