<svg xmlns="http://www.w3.org/2000/svg" width="150" height="50" viewBox="0,0,150,50"><path fill="#222" d="M19.09 29.55L19.20 29.66L19.23 29.69Q19.21 33.93 18.49 38.08L18.42 38.02L18.42 38.02Q20.73 37.51 23.81 37.39L23.81 37.39L23.80 37.39Q25.16 37.60 26.23 36.59L26.26 36.62L26.24 36.60Q27.25 35.54 27.25 34.21L27.22 34.18L27.20 34.15Q27.35 34.00 27.31 33.74L27.30 33.73L27.29 33.72Q27.00 30.65 24.76 29.81L24.73 29.78L24.87 29.93Q24.13 29.64 23.45 29.72L23.37 29.64L23.31 29.58Q22.31 29.57 21.28 29.61L21.28 29.60L21.35 29.68Q20.12 29.55 19.09 29.55ZM18.00 19.25L18.05 19.30L18.06 19.31Q18.84 22.53 19.11 26.91L19.16 26.95L19.05 26.85Q20.62 27.08 23.28 27.12L23.22 27.06L23.31 27.15Q26.15 27.10 26.50 23.56L26.43 23.49L26.44 23.50Q26.64 21.57 25.23 20.73L25.38 20.87L25.28 20.78Q24.33 20.21 19.91 19.56L20.02 19.67L20.00 19.65Q18.98 19.54 18.06 19.31ZM14.22 42.00L14.38 42.16L14.32 42.10Q16.80 35.45 16.54 28.06L16.61 28.13L16.61 28.13Q16.13 20.65 13.19 14.17L13.38 14.36L13.31 14.29Q17.11 16.83 23.33 17.08L23.28 17.02L23.40 17.15Q29.57 17.34 29.92 20.24L29.89 20.21L29.94 20.26Q30.20 22.95 28.79 25.62L28.91 25.74L28.76 25.59Q28.13 27.21 26.53 27.89L26.42 27.78L26.44 27.81Q30.10 28.49 30.32 33.86L30.27 33.80L30.43 33.96Q30.35 34.91 30.27 36.32L30.29 36.33L30.41 36.46Q30.25 37.66 29.31 38.59L29.28 38.56L29.29 38.57Q28.38 39.53 27.05 39.68L27.08 39.71L27.12 39.75Q25.71 39.90 24.64 39.90L24.57 39.83L24.67 39.93Q18.93 39.90 14.40 42.19ZM27.05 42.35L27.18 42.47L27.13 42.43Q28.11 42.53 29.98 42.64L29.82 42.49L29.89 42.55Q31.31 42.61 32.41 41.73L32.35 41.67L32.36 41.68Q33.14 40.74 33.02 39.18L33.16 39.32L33.13 39.29Q33.12 38.40 32.39 34.94L32.39 34.93L32.30 34.85Q31.71 31.70 29.84 30.22L29.80 30.17L29.40 29.36L29.36 29.31Q31.08 27.95 31.65 24.18L31.63 24.16L31.69 24.22Q31.76 22.99 31.68 21.58L31.58 21.49L31.71 21.62Q31.69 20.33 30.58 19.49L30.43 19.34L30.52 19.44Q30.27 19.30 30.16 19.26L30.11 19.21L30.14 19.25Q29.84 18.67 29.00 17.87L28.95 17.83L28.94 17.82Q27.55 16.88 23.33 16.69L23.32 16.69L23.30 16.66Q16.68 16.41 12.69 13.51L12.72 13.55L12.64 13.47Q15.84 20.40 16.14 27.93L16.21 28.01L16.27 28.06Q16.59 35.88 13.77 42.81L13.83 42.87L15.78 41.81L15.87 41.90Q15.32 42.87 14.82 44.01L14.92 44.11L14.86 44.05Q19.27 42.29 24.29 42.29L24.28 42.28L24.26 42.25Q25.58 42.17 27.02 42.32ZM25.04 31.92L24.90 31.78L25.04 31.93Q25.63 31.71 26.54 32.17L26.51 32.13L26.63 32.26Q26.65 32.50 26.80 33.57L26.91 33.68L26.86 33.63Q27.03 34.97 26.09 36.02L26.17 36.10L26.14 36.07Q25.27 37.18 23.86 37.06L23.86 37.06L22.39 37.19L22.25 37.05Q21.50 37.10 20.78 37.21L20.75 37.19L20.89 37.33Q21.07 35.37 21.14 31.91L21.28 32.04L21.23 31.99Q21.91 31.95 23.16 31.91L23.01 31.76L23.09 31.84Q24.34 31.79 24.95 31.83ZM24.01 22.32L23.97 22.29L24.42 22.35L24.41 22.34Q24.53 22.23 24.72 22.27L24.75 22.30L25.09 22.26L25.49 22.48L26.10 22.55L26.01 22.46Q26.09 22.69 26.09 23.00L26.08 22.98L26.12 23.56L26.22 23.66Q26.24 24.94 25.37 25.87L25.36 25.87L25.21 25.71Q24.30 26.62 23.08 26.62L23.14 26.67L23.13 26.66Q22.07 26.62 22.07 26.62L22.13 26.69L22.23 26.79Q20.75 26.60 21.09 26.60L21.25 26.76L21.13 26.65Q21.19 25.22 20.89 22.17L20.79 22.08L20.77 22.06Q22.48 22.32 24.00 22.32Z"/><path fill="#333" d="M124.75 30.92L124.64 30.82L124.70 30.88Q124.85 29.51 124.03 28.59L124.03 28.59L124.00 28.56Q123.09 27.56 121.65 27.60L121.65 27.60L121.71 27.66Q119.47 27.82 118.63 29.95L118.63 29.95L118.60 29.92Q118.20 30.58 118.16 31.27L118.28 31.39L118.34 31.45Q118.01 36.18 117.10 40.52L117.06 40.48L117.04 40.46Q115.38 41.01 113.51 42.00L113.54 42.03L113.53 42.01Q115.82 35.06 115.55 27.75L115.55 27.74L115.56 27.76Q115.35 20.46 112.80 13.65L112.68 13.53L112.73 13.58Q114.58 14.97 116.60 15.66L116.59 15.65L116.46 15.52Q117.97 21.37 118.16 27.23L118.09 27.16L118.25 27.33Q119.56 25.16 122.26 25.24L122.23 25.21L122.25 25.23Q127.27 25.26 127.38 30.63L127.55 30.79L127.47 30.72Q127.53 36.34 128.90 40.98L129.09 41.16L129.06 41.14Q127.16 40.26 125.40 40.07L125.42 40.09L125.39 40.05Q124.93 36.85 124.81 30.99ZM125.10 40.41L124.95 40.27L125.01 40.32Q126.00 40.40 127.10 40.67L127.25 40.81L127.10 40.67Q127.22 40.90 127.75 42.88L127.78 42.90L127.73 42.86Q130.67 43.77 132.69 45.22L132.67 45.21L132.70 45.23Q130.13 39.58 129.59 33.26L129.55 33.21L129.46 33.12Q129.23 29.51 127.82 27.95L127.74 27.86L127.71 27.84Q127.67 27.72 127.02 27.26L127.20 27.44L127.16 27.40Q126.97 26.95 126.33 26.18L126.24 26.10L126.32 26.10L126.19 25.97Q125.49 25.28 122.37 25.01L122.37 25.00L122.20 24.83Q121.54 24.90 120.13 25.24L120.17 25.28L120.15 25.26Q119.90 20.37 119.56 17.86L119.51 17.81L119.62 17.92Q118.79 17.73 117.30 17.43L117.40 17.53L117.42 17.55Q117.14 16.69 116.87 15.21L116.95 15.28L117.00 15.34Q113.89 14.21 112.03 12.65L112.06 12.68L112.18 12.80Q115.08 19.89 115.35 27.69L115.35 27.69L115.29 27.64Q115.62 35.46 113.07 42.81L112.99 42.74L112.97 42.71Q113.94 42.16 115.09 41.67L115.09 41.67L114.37 43.96L114.40 43.99Q117.57 42.71 119.55 42.52L119.37 42.34L119.42 42.39Q119.99 36.98 120.18 33.02L120.18 33.02L120.20 33.04Q120.26 31.15 122.20 30.05L122.35 30.20L122.22 30.08Q122.80 29.89 123.33 29.93L123.32 29.92L123.27 29.87Q123.41 29.86 123.75 29.89L123.74 29.88L124.21 30.01L124.34 30.14Q124.34 30.52 124.45 30.97L124.35 30.87L124.35 30.87Q124.49 36.88 124.99 40.30Z"/><path fill="#333" d="M103.66 37.90L103.60 37.84L103.63 37.87Q104.04 38.96 104.57 40.98L104.48 40.89L104.50 40.91Q100.36 39.66 95.76 39.93L95.66 39.83L95.69 39.86Q91.04 40.04 87.04 42.02L87.20 42.18L87.04 42.02Q87.28 41.34 87.31 41.42L87.38 41.49L87.35 41.46Q91.15 37.56 95.07 33.14L95.06 33.13L94.94 33.02Q99.36 28.04 100.54 23.35L100.67 23.48L100.64 23.46Q101.11 21.71 99.84 20.53L99.72 20.42L99.76 20.46Q98.46 19.25 96.67 19.40L96.69 19.43L96.75 19.49Q96.43 19.47 96.09 19.47L96.03 19.41L96.07 19.46Q94.49 19.39 93.23 20.31L93.21 20.28L93.24 20.32Q91.99 21.73 92.22 24.39L92.16 24.33L92.27 24.45Q90.34 23.96 89.12 23.51L89.13 23.51L89.29 23.68Q89.05 22.22 88.97 20.77L88.95 20.74L88.99 20.78Q88.84 19.08 89.45 17.94L89.43 17.92L89.52 18.01Q91.21 16.54 94.56 16.54L94.60 16.58L96.34 16.57L96.32 16.55Q98.71 16.69 99.66 16.80L99.61 16.75L99.50 16.64Q103.97 17.19 104.24 19.62L104.15 19.54L104.14 19.53Q104.25 20.13 104.17 20.93L104.22 20.98L104.29 21.05Q104.11 21.56 103.96 22.24L104.01 22.29L104.03 22.32Q102.37 30.39 94.79 37.25L94.74 37.19L94.79 37.24Q96.14 37.03 97.51 37.03L97.52 37.04L97.49 37.02Q100.79 37.08 103.64 37.88ZM103.10 17.08L103.12 17.10L103.09 17.07Q101.48 16.41 99.76 16.33L99.71 16.28L96.45 16.25L96.46 16.26Q91.95 15.94 89.74 17.05L89.66 16.96L89.62 16.93Q88.65 18.39 88.65 20.45L88.66 20.46L88.57 20.37Q88.63 21.12 88.94 23.93L89.06 24.05L88.92 23.92Q89.44 24.13 90.62 24.44L90.77 24.58L90.70 25.55L90.77 25.61Q90.66 26.00 90.74 26.53L90.76 26.55L90.83 26.62Q92.07 26.72 94.55 26.95L94.47 26.88L94.44 26.85Q94.45 26.51 94.45 26.17L94.50 26.22L94.37 26.09Q94.47 24.37 95.69 23.02L95.68 23.00L95.60 22.93Q96.87 21.62 98.66 21.73L98.57 21.65L98.61 21.69Q99.38 21.73 100.14 21.89L100.12 21.87L100.25 22.00Q100.27 22.28 100.35 22.70L100.32 22.68L100.37 22.72Q100.39 23.13 100.32 23.47L100.37 23.52L100.42 23.57Q99.10 28.27 94.69 33.11L94.57 32.99L94.60 33.02Q92.61 35.41 87.17 41.46L87.06 41.36L87.14 41.43Q86.89 42.22 86.55 42.79L86.52 42.76L86.48 42.72Q88.14 41.90 89.66 41.37L89.63 41.33L89.68 41.39Q88.92 41.92 87.96 43.40L87.97 43.41L87.94 43.38Q87.85 43.74 87.74 44.09L87.66 44.01L87.73 44.08Q92.59 42.01 98.07 42.20L98.01 42.15L98.11 42.24Q103.87 42.48 108.43 44.84L108.27 44.67L107.33 42.59L107.28 42.54Q106.63 41.21 106.37 40.41L106.54 40.58L106.51 40.55Q105.73 40.07 104.51 39.65L104.43 39.58L104.61 39.75Q104.28 38.85 103.90 37.48L103.91 37.50L103.99 37.58Q101.75 36.97 99.47 36.78L99.39 36.71L99.55 36.86Q104.24 32.30 105.76 24.04L105.69 23.97L105.87 21.07L105.87 21.07Q105.85 19.34 104.63 18.65L104.49 18.51L104.62 18.68L104.47 18.53Q104.45 18.47 104.38 18.47L104.43 18.53L104.48 18.58Q104.14 17.63 103.04 17.02Z"/><path fill="#444" d="M45.68 27.61L45.68 27.61L45.68 27.61Q43.49 27.66 42.21 29.17L42.27 29.22L42.20 29.16Q40.84 30.58 40.73 32.86L40.90 33.03L40.76 32.90Q40.70 35.61 41.54 36.56L41.54 36.57L41.61 36.63Q42.57 37.75 44.90 37.60L45.00 37.70L45.03 37.73Q49.67 37.42 50.05 34.42L49.98 34.34L49.92 34.29Q50.16 33.61 50.16 32.81L49.98 32.63L50.05 32.70Q49.97 30.64 48.82 29.12L48.87 29.16L48.90 29.19Q47.65 27.59 45.70 27.63ZM50.61 37.80L50.45 37.63L50.63 37.81Q49.12 39.92 44.74 40.15L44.67 40.08L44.62 40.03Q40.51 40.25 38.87 39.15L38.80 39.08L38.97 39.25Q38.03 38.34 37.87 36.63L37.73 36.49L37.81 36.56Q37.76 35.45 37.95 33.58L37.87 33.50L37.85 33.48Q38.45 29.29 39.67 27.46L39.59 27.38L39.65 27.44Q41.26 24.94 45.10 24.97L45.07 24.95L45.15 25.02Q47.63 25.03 49.91 27.35L49.96 27.39L49.86 27.30Q49.99 21.49 51.59 14.98L51.71 15.10L51.55 14.94Q53.46 14.53 55.33 13.69L55.42 13.78L55.46 13.82Q52.85 20.43 52.59 27.44L52.48 27.33L52.52 27.37Q52.29 34.60 54.42 41.19L54.28 41.04L54.32 41.08Q52.71 40.50 50.99 40.12L51.00 40.12L51.02 40.15Q50.66 38.79 50.51 37.69ZM53.54 43.16L53.62 43.24L53.60 43.22Q55.75 43.85 58.30 45.37L58.16 45.23L58.28 45.35Q54.50 38.22 54.35 29.92L54.31 29.88L54.30 29.87Q54.28 21.78 57.37 14.40L57.39 14.42L57.21 14.25Q56.59 14.77 55.15 15.42L55.21 15.48L55.25 15.52Q55.49 14.27 56.10 13.05L56.20 13.15L56.09 13.05Q53.70 14.12 51.27 14.69L51.22 14.65L51.35 14.77Q49.87 20.53 49.60 26.62L49.66 26.68L49.66 26.67Q47.72 24.82 45.21 24.70L45.07 24.56L45.04 24.53Q41.68 24.49 39.78 26.58L39.85 26.65L39.75 26.56Q37.99 28.87 37.57 33.55L37.69 33.66L37.74 33.71Q37.39 36.38 37.39 36.79L37.48 36.88L37.39 36.79Q37.43 38.51 38.57 39.58L38.60 39.60L38.54 39.55Q38.80 39.80 38.99 39.87L39.12 40.01L39.53 40.61L39.55 40.63Q40.42 41.88 43.39 42.15L43.52 42.27L43.55 42.30Q45.68 42.38 47.05 42.46L47.02 42.42L47.11 42.51Q51.17 42.58 52.88 41.24L53.02 41.38L52.99 41.35Q53.12 42.05 53.58 43.20ZM47.38 30.00L47.31 29.92L47.34 29.96Q48.46 30.04 49.30 30.54L49.23 30.47L49.12 30.36Q49.74 31.78 49.82 32.81L49.67 32.66L49.67 32.66Q50.04 36.95 45.01 37.30L44.94 37.23L45.04 37.33Q44.10 37.29 42.99 37.03L43.13 37.16L43.05 37.09Q42.76 36.42 42.69 35.89L42.69 35.89L42.74 35.94Q42.62 35.21 42.65 34.60L42.74 34.68L42.71 34.66Q43.07 31.28 45.70 30.29L45.75 30.35L45.61 30.20Q46.60 29.87 47.29 29.90Z"/><path fill="#333" d="M71.21 40.18L71.14 40.11L68.92 33.44L68.91 33.42Q64.47 20.76 58.53 14.37L58.52 14.36L58.58 14.41Q60.46 15.34 63.05 15.95L63.18 16.08L63.10 16.01Q68.25 22.30 72.59 35.05L72.59 35.05L72.64 35.09Q75.60 26.90 76.28 25.30L76.33 25.35L76.23 25.25Q78.80 19.83 81.62 16.52L81.63 16.53L81.51 16.41Q83.58 16.04 86.20 15.16L86.26 15.22L86.18 15.14Q81.57 19.70 78.52 26.93L78.56 26.97L78.60 27.02Q77.22 30.69 73.52 40.21L73.42 40.11L73.45 40.14Q72.86 40.11 72.29 40.08L72.32 40.11L72.41 40.20Q71.88 40.24 71.30 40.27ZM76.31 42.69L76.26 42.64L76.32 42.70Q78.97 32.56 80.54 28.53L80.52 28.51L80.61 28.60Q83.68 20.98 88.10 16.10L88.01 16.02L88.04 16.05Q86.99 16.40 84.89 17.12L84.82 17.05L86.05 15.81L85.95 15.71Q86.55 15.05 87.15 14.40L87.29 14.53L87.17 14.41Q84.48 15.54 81.48 16.11L81.42 16.05L81.34 15.97Q76.91 21.25 73.03 32.71L73.19 32.87L73.08 32.76Q69.50 22.71 66.30 18.33L66.32 18.34L66.29 18.32Q65.98 18.31 65.10 18.16L65.10 18.16L64.98 18.03Q64.79 17.69 63.19 15.64L63.15 15.59L63.10 15.54Q60.12 14.82 57.42 13.41L57.56 13.54L57.56 13.55Q64.20 20.64 68.58 33.43L68.51 33.37L68.58 33.44Q69.69 36.98 70.87 40.56L70.94 40.63L70.93 40.62Q71.27 40.65 72.10 40.54L72.20 40.64L72.21 40.65Q72.57 41.35 73.25 42.68L73.11 42.53L73.25 42.68Q73.95 42.46 74.67 42.53L74.70 42.57L74.75 42.61Q75.47 42.61 76.23 42.61Z"/></svg>