<svg xmlns="http://www.w3.org/2000/svg" width="150" height="50" viewBox="0,0,150,50"><path fill="#444" d="M18.53 33.21L18.61 33.29L18.55 33.24Q18.37 36.02 17.19 40.67L17.20 40.68L17.20 40.68Q15.56 41.37 13.97 42.17L13.84 42.04L13.81 42.01Q16.57 35.14 16.30 27.72L16.35 27.76L16.35 27.76Q16.02 20.31 12.93 13.57L12.80 13.43L12.79 13.43Q14.94 14.89 16.80 15.46L16.63 15.28L16.70 15.36Q18.77 22.27 18.77 28.93L18.83 28.98L18.92 29.08Q18.83 30.43 18.76 31.92L18.77 31.93L18.77 31.93Q19.82 30.62 25.04 25.67L25.07 25.71L25.14 25.77Q26.24 25.78 27.23 25.70L27.19 25.65L29.32 25.54L29.23 25.45Q26.18 28.57 21.88 32.34L21.88 32.34L21.81 32.27Q25.15 35.00 31.63 40.83L31.67 40.87L31.69 40.89Q28.97 40.00 26.00 39.81L26.07 39.88L26.09 39.90Q23.39 37.62 18.52 33.20ZM28.42 42.38L28.52 42.48L28.51 42.47Q33.30 43.38 36.43 45.32L36.44 45.34L36.25 45.15Q35.14 43.92 32.51 41.52L32.56 41.57L32.61 41.62Q32.82 41.68 33.08 41.79L33.05 41.76L32.94 41.65Q30.90 39.69 28.66 37.78L28.79 37.92L24.32 33.98L24.30 33.96Q29.31 29.80 31.75 26.90L31.66 26.82L31.75 26.90Q30.50 26.95 28.03 27.22L27.93 27.12L28.07 27.26Q29.62 25.76 30.30 24.92L30.30 24.92L30.19 24.81Q27.52 25.42 25.05 25.42L25.09 25.47L25.09 25.46Q23.66 26.73 20.92 29.40L20.78 29.26L20.85 29.33Q20.94 23.64 19.95 17.81L19.92 17.78L19.79 17.65Q19.09 17.48 17.60 17.21L17.73 17.34L17.58 17.19Q17.51 16.55 17.05 15.06L17.11 15.13L17.09 15.10Q14.48 14.32 12.24 12.76L12.14 12.66L12.17 12.69Q15.63 19.55 15.98 27.65L15.94 27.62L15.96 27.64Q16.27 35.52 13.26 42.76L13.32 42.81L13.23 42.73Q13.94 42.44 15.27 41.80L15.35 41.87L15.33 41.85Q15.02 42.61 14.37 44.05L14.47 44.16L14.42 44.10Q17.28 43.04 19.41 42.66L19.35 42.60L19.28 42.53Q19.96 40.13 20.46 35.87L20.35 35.76L20.40 35.81Q23.14 38.21 28.59 42.55Z"/><path fill="#333" d="M90.90 19.08L91.00 19.18L90.95 19.13Q92.16 23.69 92.31 26.89L92.33 26.90L92.34 26.91Q92.81 26.93 97.19 27.04L97.10 26.96L97.16 27.02Q99.69 27.04 100.07 23.57L100.00 23.50L100.17 23.67Q100.20 21.75 99.28 20.84L99.30 20.86L99.37 20.92Q98.08 20.02 96.10 19.86L96.08 19.85L96.08 19.84Q92.87 19.64 91.01 19.19ZM92.43 28.83L92.31 28.72L92.46 28.86Q92.52 34.74 90.73 40.68L90.86 40.81L90.73 40.69Q89.61 41.12 87.02 42.15L86.89 42.03L87.01 42.15Q89.77 35.57 89.42 28.11L89.44 28.12L89.47 28.16Q89.12 20.77 85.81 14.26L85.81 14.26L85.73 14.18Q90.68 17.07 97.65 17.07L97.70 17.12L97.74 17.16Q103.22 17.01 103.49 20.55L103.60 20.66L103.46 20.53Q103.55 21.15 103.47 21.75L103.64 21.92L103.42 22.92L103.47 22.97Q102.72 26.97 100.58 28.69L100.55 28.66L100.60 28.70Q99.62 29.20 98.59 29.20L98.68 29.30L96.08 29.28L96.03 29.24Q101.71 36.55 106.24 41.12L106.15 41.03L106.16 41.04Q104.06 40.39 101.13 40.05L101.03 39.94L101.12 40.04Q97.40 36.12 92.49 28.89ZM101.00 40.41L100.97 40.38L101.32 40.42L102.54 41.64L102.52 41.63Q103.05 42.11 103.69 42.72L103.84 42.87L103.67 42.70Q107.25 43.35 110.83 45.21L110.92 45.30L110.97 45.35Q103.91 38.49 98.51 31.56L98.56 31.62L100.35 31.65L100.20 31.50Q103.27 31.49 104.60 26.96L104.73 27.09L104.66 27.01Q105.48 24.94 105.48 22.24L105.47 22.23L105.45 22.20Q105.40 19.87 103.68 19.22L103.69 19.23L103.63 19.17Q103.50 18.77 102.93 18.09L103.06 18.22L103.07 18.23Q101.29 16.68 97.64 16.60L97.74 16.71L97.67 16.64Q89.71 16.41 85.03 13.40L85.09 13.46L85.17 13.54Q88.73 20.18 89.07 27.87L89.09 27.89L89.25 28.05Q89.54 35.95 86.41 42.80L86.40 42.78L86.32 42.71Q87.74 42.30 88.54 41.99L88.53 41.99L87.36 44.09L87.46 44.19Q90.26 43.23 92.93 42.73L92.78 42.58L92.83 42.64Q94.02 37.43 94.21 32.21L94.26 32.27L94.21 32.21Q97.80 37.25 100.96 40.37ZM99.75 22.49L99.72 22.45L99.68 22.41Q99.77 22.73 99.77 23.07L99.78 23.08L99.81 23.68L99.76 23.64Q99.69 24.67 99.00 25.62L98.97 25.59L98.97 25.59Q98.52 26.51 97.60 26.70L97.47 26.56L97.49 26.59Q97.27 26.63 95.67 26.66L95.66 26.65L95.78 26.78Q95.14 26.75 94.31 26.64L94.23 26.56L94.23 26.56Q94.29 25.21 93.95 22.17L93.81 22.03L93.81 22.02Q95.24 22.24 95.93 22.24L96.04 22.36L95.87 22.18Q97.83 22.31 99.77 22.50Z"/><path fill="#444" d="M131.01 23.01L131.15 23.15L131.14 23.14Q129.21 25.74 126.55 31.38L126.62 31.44L124.67 35.74L124.65 35.72Q123.66 37.51 122.33 39.75L122.48 39.91L122.37 39.79Q122.82 39.79 121.14 39.83L121.19 39.87L121.12 39.80Q121.06 39.75 119.81 39.75L119.99 39.93L119.97 39.91Q119.18 38.36 116.25 31.20L116.35 31.30L116.23 31.18Q114.05 25.80 111.95 22.79L112.04 22.89L112.03 22.87Q112.78 25.94 112.78 29.10L112.73 29.06L112.85 29.17Q112.85 35.68 109.88 41.24L109.76 41.12L109.80 41.16Q108.44 41.47 106.07 42.19L106.04 42.16L106.04 42.16Q109.69 36.44 109.69 29.21L109.82 29.35L109.75 29.27Q109.78 20.35 104.37 13.39L104.40 13.41L104.47 13.49Q105.92 14.02 108.28 14.71L108.37 14.79L108.42 14.85Q115.34 21.46 121.43 34.78L121.61 34.96L121.44 34.79Q125.03 27.88 127.24 24.38L127.17 24.31L127.30 24.43Q130.84 18.61 134.80 15.15L134.68 15.03L134.75 15.09Q136.08 14.95 138.44 14.19L138.41 14.15L138.36 14.11Q133.33 20.68 133.33 29.29L133.39 29.35L133.34 29.29Q133.44 36.06 136.87 41.58L136.89 41.61L136.81 41.52Q135.53 41.27 132.79 40.66L132.83 40.71L132.72 40.59Q130.29 35.73 130.29 29.75L130.42 29.88L130.41 29.87Q130.46 26.50 131.15 23.15ZM132.45 40.90L132.64 41.08L132.64 41.08Q133.19 41.07 134.64 41.33L134.62 41.31L134.64 41.33Q135.19 42.19 136.14 43.67L136.16 43.69L136.15 43.68Q138.22 44.04 141.68 45.25L141.60 45.17L141.64 45.21Q135.46 38.95 135.46 29.13L135.49 29.16L135.36 29.03Q135.38 21.33 139.76 15.20L139.71 15.14L137.52 15.85L137.54 15.87Q138.62 14.40 139.27 13.52L139.19 13.44L139.23 13.49Q137.41 14.18 134.78 14.71L134.69 14.62L134.70 14.63Q127.92 20.72 121.87 33.32L121.89 33.34L121.85 33.30Q116.69 22.35 111.74 17.10L111.71 17.07L111.81 17.17Q111.36 17.03 110.79 16.91L110.89 17.01L109.62 15.66L109.66 15.71Q109.15 15.12 108.47 14.51L108.41 14.45L108.36 14.40Q105.23 13.33 103.44 12.60L103.63 12.80L103.52 12.68Q109.42 19.81 109.42 29.21L109.54 29.33L109.49 29.28Q109.46 36.87 105.31 42.73L105.29 42.70L105.27 42.68Q105.97 42.47 107.27 42.05L107.25 42.04L107.34 42.12Q107.23 42.40 105.82 44.49L105.91 44.58L105.79 44.46Q107.64 44.03 111.15 43.27L111.16 43.29L111.05 43.17Q114.89 36.24 114.70 28.47L114.58 28.35L114.69 28.47Q116.23 32.48 119.69 40.36L119.72 40.38L119.69 40.35Q119.81 40.17 120.04 40.17L120.10 40.23L120.73 40.33L120.64 40.24Q121.18 41.01 121.98 42.30L121.85 42.17L121.96 42.28Q123.47 42.16 123.47 42.16L123.55 42.23L123.43 42.12Q124.46 42.12 125.11 42.19L125.09 42.18L125.12 42.21Q126.80 38.28 130.15 30.29L129.98 30.12L130.03 30.17Q129.94 35.64 132.53 40.97Z"/><path fill="#333" d="M45.54 28.56L45.61 28.62L45.64 28.65Q42.87 28.70 42.11 30.95L42.01 30.84L41.96 30.80Q41.89 31.68 41.78 32.33L41.66 32.22L41.76 32.31Q44.27 32.42 45.91 32.42L45.88 32.40L46.00 32.52Q47.54 32.42 50.13 32.31L50.17 32.34L50.13 32.31Q50.09 30.67 48.68 29.60L48.66 29.58L48.69 29.61Q47.30 28.53 45.51 28.53ZM45.74 41.24L45.64 41.14L45.68 41.18Q41.48 41.20 40.18 39.79L40.19 39.80L40.16 39.77Q39.13 38.24 38.97 34.97L39.05 35.04L38.96 34.96Q39.11 34.88 39.03 33.50L38.93 33.40L38.90 33.38Q38.90 31.20 38.90 30.48L38.85 30.43L38.76 30.34Q38.77 28.48 39.49 27.38L39.51 27.40L39.46 27.34Q40.88 25.95 43.85 25.95L43.89 25.99L45.41 25.95L45.54 26.08Q47.64 26.12 49.16 26.43L49.14 26.40L49.05 26.32Q51.22 26.88 52.21 28.10L52.08 27.97L52.12 28.01Q52.71 29.06 52.78 31.15L52.83 31.20L52.92 31.29Q52.79 32.30 52.82 34.47L52.75 34.39L52.76 34.40Q50.08 34.61 47.30 34.61L47.22 34.53L41.63 34.54L41.57 34.48Q41.81 38.98 45.88 38.75L45.74 38.61L45.77 38.65Q49.66 38.58 50.88 36.75L50.90 36.77L50.75 36.61Q51.60 37.13 53.20 38.31L53.31 38.42L53.30 38.41Q51.93 40.81 47.78 41.07L47.85 41.14L47.80 41.09Q46.96 41.01 45.59 41.09ZM47.96 43.50L48.05 43.59L48.08 43.62Q49.08 43.47 50.30 43.55L50.35 43.60L50.19 43.44Q55.18 43.64 56.09 40.86L56.21 40.98L56.11 40.88Q54.67 39.82 53.57 39.05L53.52 39.01L53.47 38.96Q53.61 38.53 53.81 38.30L53.90 38.40L53.78 38.28Q53.12 37.88 51.74 36.93L51.73 36.91L51.74 36.92Q52.80 36.95 54.85 37.26L54.77 37.18L54.86 37.27Q54.68 35.90 54.60 35.22L54.60 35.21L54.56 33.38L54.43 33.26Q54.42 31.03 53.77 29.55L53.76 29.54L53.60 29.38Q53.42 29.13 52.85 28.52L52.83 28.49L52.91 28.58Q52.63 28.14 52.40 27.57L52.53 27.70L52.49 27.66Q50.52 25.54 45.45 25.54L45.50 25.59L43.83 25.59L43.82 25.58Q40.66 25.66 39.22 27.14L39.07 27.00L39.19 27.12Q38.44 28.16 38.48 30.21L38.42 30.16L38.47 30.20Q38.61 31.26 38.73 33.50L38.61 33.39L38.62 33.40Q38.67 34.97 38.79 37.03L38.85 37.09L38.87 37.11Q39.18 39.40 40.05 40.46L40.03 40.44L39.92 40.33Q40.09 40.50 40.28 40.61L40.30 40.63L40.71 41.39L40.68 41.36Q41.32 43.07 47.91 43.45ZM45.96 38.41L45.77 38.23L45.94 38.40Q44.74 38.45 43.83 37.99L43.87 38.04L43.77 37.93Q43.75 37.58 43.56 36.89L43.52 36.85L43.63 36.96Q45.24 36.78 46.84 36.78L46.84 36.78L46.88 36.83Q48.43 36.69 50.10 36.81L50.15 36.85L50.26 36.97Q48.88 38.21 45.87 38.33ZM47.42 30.89L47.51 30.98L47.41 30.89Q48.09 30.96 49.43 31.34L49.44 31.35L49.67 31.77L49.64 31.93L49.62 31.92Q48.37 32.14 47.45 32.11L47.43 32.08L47.41 32.06Q45.12 32.01 45.08 32.01L45.16 32.09L45.09 32.03Q45.87 31.13 47.54 31.02Z"/><path fill="#222" d="M68.49 40.43L68.45 40.39L68.49 40.43Q64.40 40.64 63.41 38.32L63.37 38.27L63.34 38.25Q64.08 37.27 65.64 35.48L65.65 35.49L65.77 35.61Q66.28 37.64 69.29 37.76L69.28 37.76L69.20 37.68Q72.62 37.78 74.26 36.45L74.20 36.40L74.28 36.47Q75.62 34.81 75.55 32.11L75.51 32.07L75.59 32.15Q75.50 27.15 70.71 27.38L70.66 27.33L70.65 27.33Q67.77 27.42 66.02 28.67L65.97 28.62L65.67 28.47L65.42 28.30L65.61 28.48Q65.77 25.15 65.66 22.41L65.82 22.57L65.71 22.46Q65.54 19.78 65.20 16.47L65.25 16.51L65.36 16.63Q68.88 17.45 72.69 17.33L72.74 17.38L72.70 17.34Q76.57 17.33 80.15 16.08L80.17 16.09L79.47 17.49L79.54 17.56Q79.23 18.32 79.04 19.16L79.15 19.26L79.08 19.19Q75.92 20.18 72.04 20.18L72.11 20.25L72.06 20.21Q70.68 20.27 69.20 20.12L69.19 20.12L69.07 19.99Q68.97 20.65 68.63 25.11L68.77 25.25L68.68 25.16Q69.57 24.76 71.63 24.61L71.60 24.58L71.53 24.51Q75.34 24.82 76.79 26.49L76.78 26.49L76.86 26.57Q78.24 28.10 78.50 31.94L78.36 31.80L78.45 31.89Q78.69 36.05 77.47 38.07L77.37 37.96L77.40 37.99Q75.50 40.01 72.19 40.24L72.13 40.18L72.12 40.18Q71.18 40.30 68.51 40.45ZM74.53 42.70L74.58 42.75L74.40 42.57Q77.98 42.79 79.88 41.69L79.83 41.64L79.83 41.64Q80.76 40.06 80.76 37.97L80.75 37.96L80.91 38.12Q80.83 34.95 79.88 30.84L79.95 30.91L79.83 30.79Q79.50 29.09 78.28 27.68L78.17 27.57L78.36 27.80L78.00 27.36L77.79 27.30L77.68 27.19Q77.35 26.44 76.70 25.76L76.85 25.91L76.75 25.84L76.69 25.79Q75.27 24.21 71.58 24.21L71.54 24.18L71.28 24.18L71.37 24.27Q71.43 23.68 71.62 22.58L71.58 22.54L71.63 22.59Q76.46 22.55 80.50 20.91L80.54 20.96L80.59 21.01Q81.03 19.62 81.98 16.80L82.04 16.86L79.78 17.64L79.89 17.75Q80.28 16.62 80.78 15.48L80.74 15.45L80.78 15.48Q76.83 16.83 72.72 16.90L72.70 16.89L72.84 17.03Q68.59 17.00 64.63 15.90L64.73 16.00L64.80 16.07Q65.41 20.41 65.41 24.82L65.38 24.79L65.36 24.78Q65.43 26.75 65.32 28.65L65.29 28.63L65.24 28.57Q65.46 28.72 66.03 29.02L66.05 29.04L66.16 29.15Q66.44 28.86 67.08 28.51L67.02 28.45L67.06 28.49Q67.02 29.25 66.79 30.77L66.75 30.73L66.74 30.73Q67.30 31.06 67.72 31.28L67.76 31.32L67.59 31.16Q70.54 29.58 72.41 29.58L72.39 29.56L72.25 29.41Q73.68 29.52 74.86 30.16L74.76 30.06L74.79 30.09Q75.22 31.20 75.26 32.16L75.23 32.13L75.26 32.16Q75.26 34.67 74.23 35.78L74.30 35.84L74.34 35.88Q72.88 37.01 70.63 37.24L70.70 37.30L70.74 37.34Q69.80 37.43 69.11 37.36L68.99 37.24L68.98 37.23Q68.16 37.13 67.40 36.78L67.34 36.72L67.42 36.62L67.36 36.79L67.34 36.77Q66.39 36.12 65.86 34.79L65.88 34.81L66.02 34.95Q64.51 36.19 62.84 38.32L63.01 38.49L62.86 38.34Q63.19 39.01 64.03 39.97L64.10 40.04L64.02 39.96Q65.06 41.76 67.88 42.25L68.00 42.37L67.90 42.27Q69.04 42.47 74.41 42.58Z"/></svg>