<svg xmlns="http://www.w3.org/2000/svg" width="150" height="50" viewBox="0,0,150,50"><path fill="#222" d="M73.11 27.78L73.00 27.67L73.11 27.79Q69.55 27.65 68.45 31.00L68.49 31.04L68.51 31.06Q68.02 32.02 67.91 33.09L67.97 33.15L67.88 33.07Q67.67 35.10 68.66 36.43L68.82 36.59L68.71 36.48Q70.00 37.61 72.47 37.65L72.63 37.81L72.55 37.73Q74.39 37.78 75.80 36.64L75.80 36.64L75.72 36.56Q77.22 35.51 77.22 33.72L77.16 33.66L77.14 33.64Q77.10 33.26 77.02 32.88L77.07 32.92L77.09 32.95Q76.84 27.78 73.03 27.71ZM73.05 40.28L72.88 40.11L73.01 40.25Q69.15 40.42 67.36 38.40L67.38 38.43L67.29 38.33Q67.09 39.39 66.63 40.76L66.68 40.81L66.69 40.82Q64.73 41.56 63.47 42.13L63.39 42.05L63.45 42.11Q65.70 36.21 65.70 29.70L65.68 29.68L65.64 29.64Q65.56 21.26 62.14 13.42L62.21 13.49L62.21 13.50Q64.60 14.89 65.93 15.35L65.89 15.31L65.85 15.27Q67.95 21.91 68.11 27.73L68.15 27.78L68.15 27.77Q69.57 25.08 73.30 25.12L73.27 25.09L73.42 25.24Q76.50 25.12 77.98 26.98L78.15 27.15L77.97 26.97Q79.88 29.34 80.04 32.92L80.06 32.95L79.90 32.79Q79.99 33.98 79.91 35.58L79.99 35.65L79.96 35.62Q80.01 37.16 79.14 38.30L79.07 38.24L79.04 38.20Q77.28 39.91 72.94 40.18ZM78.46 42.72L78.51 42.78L78.52 42.78Q80.02 42.80 81.50 42.12L81.41 42.02L81.53 42.14Q82.47 40.68 82.51 38.74L82.49 38.72L82.56 38.79Q82.49 38.23 82.34 37.05L82.46 37.17L82.34 37.05Q82.26 36.37 82.15 35.45L82.26 35.57L82.26 35.56Q81.46 30.81 79.90 28.75L79.94 28.79L79.89 28.74Q79.92 28.73 79.12 27.85L79.05 27.79L79.03 27.76Q78.73 27.43 78.20 26.63L78.26 26.69L78.37 26.80Q76.67 24.76 73.32 24.80L73.36 24.84L73.28 24.76Q71.31 24.88 70.05 25.49L69.97 25.40L70.02 25.45Q69.71 20.95 69.10 17.76L69.04 17.70L69.13 17.78Q68.28 17.51 66.79 17.13L66.79 17.12L66.84 17.18Q66.77 16.50 66.32 15.05L66.25 14.99L66.27 15.01Q63.78 14.15 61.53 12.59L61.60 12.65L61.55 12.60Q65.41 20.88 65.41 29.68L65.32 29.58L65.29 29.56Q65.30 36.53 62.82 42.74L62.95 42.86L62.78 42.69Q63.63 42.52 64.97 41.95L64.97 41.96L64.89 41.87Q64.56 42.53 63.95 44.06L64.11 44.22L64.06 44.16Q66.09 43.30 68.87 42.77L68.74 42.64L69.22 40.91L69.19 40.88Q71.54 42.62 78.47 42.73ZM74.71 30.07L74.60 29.96L74.58 29.94Q75.77 30.10 76.30 30.48L76.28 30.46L76.25 30.43Q76.48 30.84 76.70 32.86L76.68 32.84L76.75 32.91Q77.06 34.89 75.80 36.20L75.68 36.08L75.73 36.13Q74.42 37.39 72.48 37.28L72.45 37.25L72.63 37.43Q71.59 37.46 70.11 36.97L70.09 36.95L70.15 37.01Q69.91 36.50 69.91 35.97L69.99 36.05L70.00 36.05Q69.95 32.92 71.51 31.33L71.53 31.35L71.39 31.24L71.46 31.31Q72.82 29.86 74.57 29.93Z"/><path fill="#222" d="M22.56 41.33L22.68 41.46L22.67 41.44Q19.71 41.53 18.45 41.00L18.47 41.02L18.38 40.93Q16.58 40.27 16.66 37.80L16.50 37.64L16.64 37.77Q16.79 34.38 16.79 34.96L16.64 34.81L16.80 34.96Q16.75 29.59 13.89 24.75L13.86 24.72L13.97 24.83Q15.79 25.62 17.77 26.01L17.82 26.05L17.89 26.13Q19.51 30.64 19.40 35.13L19.46 35.20L19.44 35.17Q19.20 36.57 20.04 37.79L20.21 37.97L20.06 37.81Q20.94 39.11 22.46 38.92L22.58 39.03L22.94 38.90L22.88 38.84Q24.20 38.75 25.02 37.99L25.16 38.13L25.03 38.00Q25.83 37.23 25.83 36.28L25.97 36.42L25.99 36.43Q25.96 36.17 25.92 35.98L25.93 35.99L25.85 35.91Q25.84 30.72 26.98 26.38L27.01 26.41L26.88 26.28Q27.95 26.25 28.94 26.02L28.85 25.93L31.02 25.59L30.92 25.49Q28.32 30.46 28.62 36.02L28.75 36.14L28.77 36.17Q28.83 39.12 27.12 40.26L27.24 40.38L27.30 40.44Q25.88 41.19 22.56 41.34ZM24.98 43.83L24.90 43.75L24.99 43.85Q28.33 43.87 30.16 43.11L30.14 43.09L30.23 43.18Q31.12 42.40 31.12 40.99L31.19 41.06L31.11 40.98Q31.15 40.10 30.88 38.54L30.93 38.59L30.88 38.54Q30.36 35.36 30.75 32.35L30.81 32.42L30.83 32.44Q31.06 29.13 32.47 26.39L32.55 26.47L32.67 26.58Q31.84 26.71 30.50 27.13L30.61 27.23L30.53 27.15Q30.79 26.58 31.10 26.00L31.07 25.98L31.66 24.86L31.75 24.94Q29.66 25.45 26.50 25.94L26.64 26.08L26.49 25.93Q25.37 30.82 25.52 35.92L25.53 35.93L25.50 35.91Q25.67 38.09 23.01 38.59L22.85 38.43L22.52 38.56L22.35 38.54L21.46 38.45L21.43 38.42Q21.28 37.46 21.31 36.97L21.35 37.01L21.51 37.17Q21.65 32.59 20.97 28.17L20.98 28.19L19.94 28.06L19.86 27.98Q19.33 27.95 18.80 27.83L18.73 27.76L18.82 27.85Q18.48 26.48 18.21 25.72L18.14 25.65L18.26 25.76Q15.42 25.29 13.18 24.00L13.09 23.91L13.21 24.03Q15.27 27.46 15.99 30.85L16.06 30.92L16.08 30.94Q16.45 33.02 16.30 36.52L16.29 36.51L16.28 36.51Q16.46 36.80 16.38 37.90L16.38 37.90L16.40 37.92Q16.07 40.10 17.44 41.06L17.51 41.13L17.60 41.21Q17.89 43.37 24.90 43.75Z"/><path fill="#222" d="M45.62 28.64L45.57 28.58L45.51 28.53Q42.85 28.68 42.08 30.92L42.08 30.92L41.99 30.83Q41.80 31.60 41.69 32.24L41.58 32.14L41.68 32.23Q44.29 32.44 45.92 32.44L45.89 32.41L45.92 32.44Q47.65 32.53 50.24 32.41L50.08 32.25L50.08 32.26Q50.08 30.66 48.67 29.59L48.72 29.64L48.65 29.57Q47.40 28.63 45.62 28.63ZM45.61 41.11L45.72 41.22L45.58 41.08Q41.46 41.19 40.17 39.78L40.23 39.85L40.15 39.76Q39.29 38.41 39.14 35.13L39.12 35.11L39.03 35.03Q39.09 34.86 39.01 33.49L38.91 33.38L38.93 33.40Q38.81 31.11 38.81 30.39L38.83 30.41L38.90 30.48Q38.87 28.59 39.59 27.48L39.47 27.36L39.46 27.35Q40.92 25.99 43.89 25.99L44.02 26.12L45.56 26.10L45.54 26.08Q47.62 26.11 49.14 26.41L49.12 26.39L49.08 26.34Q51.09 26.76 52.08 27.97L52.14 28.04L52.07 27.97Q52.66 29.01 52.74 31.11L52.90 31.27L52.74 31.11Q52.83 32.34 52.87 34.51L52.86 34.50L52.75 34.39Q49.96 34.49 47.18 34.49L47.13 34.45L41.57 34.48L41.64 34.56Q41.68 38.85 45.75 38.63L45.83 38.70L45.74 38.61Q49.64 38.55 50.85 36.72L50.79 36.66L50.90 36.77Q51.79 37.32 53.39 38.50L53.28 38.39L53.29 38.40Q51.94 40.81 47.79 41.08L47.79 41.08L47.75 41.04Q47.06 41.12 45.69 41.19ZM47.97 43.51L47.90 43.44L48.07 43.60Q49.02 43.42 50.24 43.49L50.21 43.47L50.36 43.62Q55.28 43.74 56.20 40.96L56.28 41.04L56.18 40.94Q54.61 39.76 53.51 39.00L53.43 38.92L53.39 38.88Q53.56 38.48 53.75 38.25L53.91 38.41L53.89 38.39Q53.19 37.96 51.82 37.00L51.71 36.89L51.66 36.85Q52.73 36.89 54.79 37.19L54.85 37.25L54.92 37.32Q54.74 35.97 54.67 35.28L54.58 35.20L54.48 33.31L54.52 33.34Q54.34 30.95 53.69 29.47L53.74 29.52L53.70 29.49Q53.47 29.17 52.90 28.56L52.83 28.49L52.80 28.46Q52.65 28.16 52.42 27.59L52.43 27.60L52.49 27.66Q50.60 25.62 45.54 25.62L45.43 25.52L43.86 25.61L43.87 25.63Q40.53 25.52 39.08 27.01L39.05 26.98L39.12 27.04Q38.39 28.10 38.43 30.16L38.54 30.27L38.56 30.29Q38.60 31.24 38.71 33.49L38.58 33.36L38.69 33.47Q38.66 34.96 38.78 37.02L38.80 37.04L38.86 37.10Q39.18 39.40 40.06 40.47L39.92 40.33L40.00 40.41Q40.24 40.65 40.43 40.76L40.38 40.72L40.75 41.43L40.63 41.30Q41.33 43.07 47.92 43.45ZM45.96 38.41L45.95 38.41L45.95 38.40Q44.73 38.45 43.82 37.99L43.74 37.91L43.85 38.01Q43.74 37.56 43.55 36.88L43.50 36.83L43.46 36.79Q45.28 36.82 46.88 36.82L46.85 36.79L46.75 36.69Q48.41 36.68 50.09 36.79L50.16 36.87L50.25 36.96Q48.84 38.17 45.83 38.29ZM47.47 30.94L47.53 31.00L47.42 30.90Q48.10 30.96 49.43 31.34L49.49 31.40L49.63 31.73L49.70 31.99L49.68 31.98Q48.36 32.14 47.45 32.10L47.37 32.02L47.38 32.03Q45.01 31.91 44.97 31.91L45.00 31.93L45.15 32.08Q45.82 31.08 47.49 30.96Z"/><path fill="#333" d="M117.56 30.57L117.61 30.62L117.54 30.55Q117.64 30.65 121.03 30.61L121.11 30.69L120.95 30.54Q123.25 30.55 124.32 30.59L124.35 30.62L124.39 30.67Q123.34 27.79 120.90 22.15L120.93 22.18L120.80 22.05Q120.29 23.52 119.25 26.38L119.31 26.44L119.17 26.30Q118.20 29.24 117.63 30.64ZM125.51 33.15L125.48 33.12L125.52 33.17Q123.09 32.98 120.89 33.02L121.03 33.17L121.03 33.17Q118.69 33.11 116.41 33.30L116.40 33.29L116.40 33.30Q114.96 36.81 111.73 40.99L111.67 40.93L111.76 41.03Q109.12 41.59 107.75 42.08L107.82 42.15L107.74 42.07Q112.79 36.34 117.47 22.98L117.63 23.15L117.59 23.10Q118.78 19.61 120.15 16.38L120.05 16.27L120.14 16.36Q120.40 16.32 120.75 16.32L120.73 16.30L121.50 16.35L121.60 16.45Q122.34 17.80 127.18 29.45L127.12 29.39L127.16 29.43Q130.46 37.30 134.46 41.45L134.44 41.44L134.30 41.29Q133.81 41.19 129.93 40.32L130.02 40.41L130.03 40.41Q127.35 37.16 125.37 33.01ZM129.96 40.77L129.86 40.67L130.49 40.80L130.58 40.89Q130.74 40.82 131.05 40.94L131.10 40.99L131.10 40.98Q131.36 41.29 133.19 43.30L133.25 43.37L133.18 43.30Q136.79 44.16 139.18 45.19L139.34 45.34L139.23 45.24Q133.77 40.73 129.78 32.74L129.76 32.72L129.78 32.74Q128.07 29.35 126.62 25.39L126.68 25.45L123.89 17.91L123.99 18.01Q123.65 18.01 123.42 18.01L123.48 18.06L122.85 17.97L123.00 18.12Q122.47 17.29 121.75 15.92L121.73 15.89L121.79 15.96Q121.32 16.02 120.86 15.98L120.85 15.97L120.81 15.93Q120.47 16.01 119.94 16.01L119.92 15.99L119.91 15.98Q118.36 19.76 114.48 29.93L114.56 30.01L114.48 29.93Q111.39 37.92 106.74 42.71L106.77 42.73L106.82 42.78Q107.79 42.31 109.81 41.70L109.95 41.84L109.89 41.78Q109.04 42.57 107.48 44.36L107.54 44.43L107.60 44.48Q109.19 43.71 113.11 42.95L113.26 43.10L113.11 42.95Q116.60 38.67 118.16 35.43L118.25 35.53L118.10 35.37Q119.93 35.34 122.25 35.37L122.24 35.37L122.27 35.40Q125.00 35.43 126.37 35.50L126.38 35.51L126.38 35.51Q127.56 37.79 129.92 40.73ZM122.14 25.98L122.20 26.03L122.18 26.02Q123.14 28.20 123.90 30.29L123.87 30.25L120.51 30.21L120.53 30.23Q121.07 28.75 122.14 25.97Z"/><path fill="#222" d="M89.15 15.90L89.07 15.82L89.10 15.86Q91.00 20.72 91.57 25.90L91.63 25.96L91.64 25.96Q95.28 21.76 101.18 16.93L101.20 16.95L101.20 16.95Q104.32 16.57 106.95 15.77L106.92 15.75L100.43 21.44L100.51 21.51Q97.05 24.42 94.20 27.27L94.20 27.27L94.25 27.32Q102.13 36.38 107.19 41.10L107.20 41.11L107.13 41.03Q104.02 40.10 101.69 39.94L101.74 39.99L101.76 40.01Q96.07 34.70 91.77 28.88L91.73 28.83L91.60 28.71Q91.80 35.42 89.93 40.75L89.86 40.67L89.96 40.77Q89.66 40.74 89.17 40.93L89.28 41.04L89.17 41.13L89.11 41.06Q89.09 41.28 86.54 42.19L86.47 42.12L86.40 42.05Q89.47 35.60 89.13 28.14L89.08 28.09L89.13 28.14Q88.71 20.72 85.17 14.21L85.14 14.18L85.76 14.53L86.14 14.80L86.11 14.73L86.15 14.77Q86.81 15.08 89.01 15.77ZM89.48 15.66L89.45 15.63L89.44 15.62Q87.08 14.98 84.45 13.45L84.50 13.50L84.45 13.44Q88.76 20.76 88.76 29.71L88.71 29.67L88.78 29.73Q88.83 36.79 85.86 42.84L85.70 42.68L87.76 41.84L87.72 41.80Q87.44 42.94 86.76 44.23L86.73 44.20L86.80 44.28Q88.97 43.40 90.92 42.98L90.85 42.92L91.01 42.85L91.01 42.85Q91.30 42.84 91.87 42.69L91.91 42.73L91.88 42.70Q93.57 36.80 93.68 32.01L93.61 31.93L93.59 31.91Q95.72 34.47 97.55 36.33L97.43 36.21L97.60 36.38Q98.76 37.46 101.77 40.43L101.75 40.41L101.80 40.47L101.70 40.37Q102.77 41.25 104.64 42.85L104.66 42.87L104.70 42.91Q108.48 43.53 111.95 45.25L112.01 45.31L112.01 45.31Q102.57 36.59 96.33 29.17L96.41 29.25L96.33 29.17Q100.86 25.03 109.62 16.42L109.59 16.40L109.59 16.39Q107.04 17.54 105.03 17.92L104.95 17.84L105.11 18.01Q106.23 16.91 108.55 14.89L108.62 14.97L108.64 14.99Q104.47 16.33 101.12 16.52L101.19 16.60L101.04 16.44Q98.14 18.69 93.27 23.37L93.32 23.42L93.38 23.48Q93.01 20.90 92.44 18.35L92.33 18.25L92.37 18.28Q91.21 18.15 90.22 17.81L90.25 17.84L90.19 17.78Q89.94 17.00 89.37 15.55Z"/></svg>