<svg xmlns="http://www.w3.org/2000/svg" width="150" height="50" viewBox="0,0,150,50"><path fill="#222" d="M20.68 39.92L20.65 39.89L20.60 39.84Q16.45 39.30 14.62 37.86L14.64 37.88L14.62 37.85Q12.77 36.38 12.35 33.38L12.46 33.48L12.42 33.44Q12.33 33.01 11.99 28.25L12.05 28.32L12.14 28.40Q12.14 27.18 12.06 25.93L12.11 25.98L12.10 25.96Q11.82 20.82 14.03 19.07L14.08 19.12L14.09 19.12Q16.80 17.07 24.56 16.39L24.43 16.26L24.50 16.32Q25.88 16.22 27.51 16.25L27.37 16.11L27.50 16.25Q27.53 16.27 30.50 16.27L30.43 16.20L30.35 16.12Q31.33 16.26 33.04 16.41L33.06 16.43L33.07 16.44Q32.51 17.33 31.49 20.42L31.52 20.45L31.56 20.49Q29.46 19.26 26.45 19.26L26.30 19.11L26.38 19.19Q25.55 19.12 24.75 19.20L24.83 19.29L24.71 19.16Q19.78 19.79 17.27 21.77L17.14 21.64L17.10 21.60Q15.13 23.25 14.98 26.60L15.02 26.64L14.94 26.56Q14.96 27.22 14.99 28.48L15.09 28.57L15.08 28.56Q15.09 33.29 17.49 35.39L17.50 35.40L17.45 35.35Q19.74 37.42 24.73 37.72L24.72 37.71L24.77 37.76Q27.84 37.86 30.85 36.07L30.77 35.99L30.90 36.13Q31.34 38.70 31.95 40.07L31.95 40.07L32.03 40.15Q29.90 40.38 28.26 40.34L28.30 40.38L28.35 40.43Q23.74 40.23 20.62 39.85ZM35.75 43.60L35.76 43.61L35.77 43.63Q33.93 40.57 33.25 37.98L33.41 38.14L33.29 38.03Q32.83 38.24 31.84 38.62L32.02 38.80L32.01 38.79Q31.51 37.84 31.32 37.00L31.35 37.03L31.00 35.35L30.96 35.31Q27.69 37.37 24.57 37.26L24.58 37.26L24.66 37.34Q20.36 37.12 18.03 35.37L18.12 35.45L18.10 35.43Q16.98 33.63 17.06 30.69L17.05 30.69L17.01 30.65Q17.17 26.16 19.64 24.03L19.61 24.00L19.56 23.94Q21.70 22.05 26.38 21.44L26.36 21.42L26.41 21.47Q27.12 21.27 27.84 21.27L27.95 21.38L27.87 21.29Q30.73 21.38 32.83 22.90L32.78 22.86L32.89 22.97Q33.38 20.83 34.60 17.59L34.54 17.54L34.51 17.50Q34.20 17.46 33.65 17.40L33.66 17.41L33.67 17.43Q33.11 17.35 32.84 17.35L32.92 17.43L32.82 17.34Q33.13 16.92 33.58 15.93L33.55 15.89L33.54 15.89Q33.36 15.94 30.87 15.86L30.71 15.70L30.81 15.80Q28.27 15.68 27.62 15.71L27.62 15.71L27.56 15.66Q17.24 16.19 13.78 18.77L13.60 18.59L13.68 18.68Q11.69 20.53 11.69 24.45L11.75 24.52L11.59 24.35Q11.58 25.45 11.69 28.15L11.76 28.22L11.86 28.32Q11.86 31.74 12.08 33.45L12.06 33.43L12.11 33.48Q12.41 36.52 14.01 38.04L14.03 38.06L14.05 38.08Q14.54 38.77 15.80 39.91L15.94 40.04L15.78 39.89Q19.08 41.70 24.34 42.47L24.30 42.43L24.41 42.54Q30.81 43.46 35.79 43.65Z"/><path fill="#333" d="M73.14 27.81L73.08 27.75L73.01 27.68Q69.60 27.70 68.50 31.05L68.43 30.99L68.38 30.93Q68.07 32.08 67.96 33.14L68.03 33.21L68.00 33.18Q67.71 35.14 68.70 36.47L68.82 36.59L68.68 36.45Q70.04 37.65 72.51 37.69L72.48 37.66L72.58 37.76Q74.26 37.66 75.67 36.51L75.73 36.57L75.78 36.62Q77.25 35.54 77.25 33.75L77.19 33.69L77.19 33.69Q77.23 33.39 77.15 33.01L77.13 32.98L77.11 32.96Q76.92 27.86 73.11 27.78ZM73.02 40.26L72.98 40.21L72.87 40.11Q69.09 40.37 67.31 38.35L67.39 38.43L67.41 38.45Q67.06 39.36 66.61 40.73L66.74 40.87L66.74 40.86Q64.67 41.50 63.42 42.07L63.44 42.10L63.44 42.10Q65.55 36.06 65.55 29.55L65.71 29.71L65.64 29.64Q65.61 21.31 62.18 13.47L62.13 13.42L62.13 13.41Q64.54 14.84 65.87 15.29L65.89 15.31L65.92 15.34Q67.87 21.82 68.02 27.64L68.04 27.66L68.20 27.82Q69.55 25.06 73.28 25.10L73.25 25.07L73.41 25.23Q76.56 25.18 78.05 27.05L78.02 27.02L78.01 27.01Q79.78 29.23 79.93 32.81L80.07 32.96L79.97 32.85Q80.02 34.00 79.94 35.60L79.91 35.57L80.07 35.73Q80.01 37.16 79.14 38.30L79.13 38.30L79.11 38.27Q77.36 39.99 73.02 40.26ZM78.47 42.73L78.35 42.62L78.51 42.78Q79.95 42.74 81.44 42.05L81.42 42.03L81.53 42.15Q82.59 40.80 82.63 38.86L82.50 38.73L82.60 38.83Q82.68 38.42 82.52 37.24L82.39 37.10L82.45 37.16Q82.40 36.50 82.29 35.59L82.21 35.51L82.34 35.64Q81.43 30.77 79.87 28.72L79.76 28.61L79.77 28.62Q79.84 28.65 79.04 27.77L79.11 27.85L78.94 27.68Q78.87 27.57 78.34 26.77L78.24 26.67L78.35 26.78Q76.69 24.78 73.34 24.82L73.36 24.83L73.33 24.81Q71.20 24.77 69.94 25.38L70.11 25.54L69.95 25.39Q69.73 20.97 69.12 17.77L69.00 17.66L69.04 17.70Q68.29 17.52 66.80 17.14L66.90 17.23L66.86 17.19Q66.73 16.46 66.28 15.01L66.21 14.94L66.24 14.97Q63.90 14.28 61.66 12.71L61.59 12.65L61.53 12.59Q65.36 20.83 65.36 29.62L65.33 29.60L65.40 29.66Q65.39 36.62 62.91 42.83L62.87 42.78L62.91 42.82Q63.45 42.34 64.79 41.77L64.80 41.78L64.96 41.94Q64.64 42.61 64.03 44.14L64.04 44.14L64.04 44.14Q65.93 43.14 68.71 42.61L68.81 42.71L69.13 40.82L69.26 40.95Q71.45 42.53 78.38 42.64ZM74.59 29.95L74.74 30.10L74.69 30.05Q75.72 30.05 76.25 30.43L76.26 30.44L76.19 30.36Q76.54 30.91 76.77 32.93L76.83 32.99L76.79 32.95Q77.08 34.92 75.83 36.23L75.76 36.16L75.80 36.20Q74.56 37.53 72.62 37.42L72.56 37.36L72.63 37.43Q71.62 37.49 70.14 36.99L70.06 36.91L70.19 37.04Q69.87 36.46 69.87 35.92L69.86 35.92L69.82 35.87Q69.96 32.93 71.52 31.33L71.51 31.32L71.43 31.29L71.34 31.20Q73.00 30.03 74.75 30.11Z"/><path fill="#444" d="M112.32 39.04L112.17 38.89L112.21 38.93Q114.12 36.58 118.88 29.31L118.79 29.21L118.88 29.30Q123.01 23.19 125.87 19.92L125.67 19.72L125.71 19.77Q123.62 20.07 121.52 20.07L121.56 20.10L121.58 20.13Q116.23 20.03 112.24 18.24L112.43 18.44L112.30 18.30Q111.61 16.36 110.93 14.80L111.03 14.90L110.94 14.82Q115.59 17.06 121.26 17.18L121.12 17.04L121.25 17.16Q126.29 17.14 131.47 15.24L131.48 15.25L131.61 15.39Q131.08 16.08 130.78 16.88L130.80 16.89L130.28 18.55L130.17 18.44Q127.22 22.19 123.22 28.01L123.11 27.90L119.92 32.85L119.90 32.83Q118.15 35.20 116.33 37.49L116.44 37.59L116.31 37.47Q119.61 36.85 122.92 36.92L122.91 36.91L122.90 36.90Q126.28 37.04 129.44 37.96L129.59 38.11L130.02 39.64L130.07 39.69Q130.31 40.50 130.65 41.34L130.56 41.25L130.64 41.33Q125.81 39.58 120.67 39.77L120.72 39.82L120.82 39.93Q115.61 40.04 111.12 42.06L111.09 42.03L111.11 42.05Q111.50 40.99 112.22 38.94ZM110.47 42.71L110.59 42.82L110.47 42.71Q111.83 42.24 112.63 41.98L112.57 41.91L112.60 41.94Q112.26 42.63 111.57 44.15L111.58 44.16L111.68 44.26Q117.35 42.08 123.32 42.31L123.23 42.22L123.30 42.29Q129.67 42.56 134.69 45.34L134.71 45.36L134.68 45.33Q133.16 42.82 132.36 40.65L132.43 40.72L132.52 40.81Q131.91 40.47 130.39 39.90L130.41 39.92L130.50 40.01Q130.12 39.06 129.71 37.58L129.82 37.70L129.83 37.70Q125.67 36.51 120.57 36.70L120.60 36.73L120.50 36.63Q122.67 33.93 126.21 28.37L126.22 28.38L126.29 28.45Q129.90 22.70 131.80 20.15L131.81 20.15L131.85 20.19Q132.28 18.72 133.31 16.02L133.24 15.95L133.21 15.92Q132.62 16.36 131.18 16.97L131.15 16.94L131.20 16.99Q131.47 16.12 132.20 14.60L132.29 14.69L132.27 14.67Q126.90 16.77 121.19 16.69L121.28 16.78L121.13 16.63Q115.14 16.50 110.19 13.99L110.22 14.02L110.32 14.12Q111.38 16.39 112.10 18.64L112.06 18.60L112.12 18.66Q113.22 19.19 114.02 19.42L114.13 19.52L114.05 19.45Q114.34 20.16 114.61 21.61L114.49 21.49L114.67 21.66Q118.34 22.67 123.21 22.48L123.15 22.42L123.15 22.42Q120.75 25.61 117.44 30.60L117.53 30.69L112.01 39.03L112.02 39.04Q111.62 40.28 110.59 42.83Z"/><path fill="#333" d="M54.30 37.86L54.43 37.99L54.28 37.84Q54.61 38.86 55.14 40.88L55.23 40.97L55.24 40.98Q50.91 39.54 46.31 39.81L46.30 39.80L46.36 39.86Q41.85 40.18 37.85 42.16L37.85 42.17L37.86 42.18Q37.99 41.39 38.03 41.46L38.05 41.49L38.11 41.55Q41.77 37.51 45.69 33.10L45.68 33.09L45.63 33.04Q50.11 28.12 51.29 23.43L51.28 23.42L51.28 23.43Q51.74 21.68 50.47 20.50L50.51 20.54L50.41 20.45Q49.21 19.34 47.42 19.49L47.45 19.52L47.33 19.40Q47.07 19.44 46.73 19.44L46.74 19.45L46.74 19.45Q45.18 19.42 43.92 20.33L44.01 20.42L43.89 20.30Q42.58 21.65 42.81 24.32L42.89 24.40L42.78 24.29Q41.18 24.13 39.96 23.68L39.81 23.52L39.87 23.59Q39.65 22.15 39.58 20.71L39.57 20.70L39.62 20.75Q39.54 19.11 40.15 17.96L40.17 17.99L40.21 18.03Q41.88 16.54 45.23 16.54L45.21 16.52L47.02 16.58L47.10 16.65Q49.40 16.71 50.35 16.82L50.25 16.72L50.32 16.80Q54.65 17.21 54.92 19.64L54.92 19.64L54.80 19.53Q54.92 20.13 54.84 20.93L54.82 20.91L54.81 20.90Q54.75 21.53 54.60 22.21L54.68 22.29L54.67 22.28Q52.99 30.35 45.41 37.20L45.53 37.32L45.51 37.29Q46.80 37.03 48.17 37.03L48.34 37.20L48.16 37.02Q51.53 37.15 54.39 37.95ZM53.70 17.01L53.81 17.12L53.79 17.10Q52.23 16.49 50.52 16.42L50.54 16.44L47.10 16.24L46.98 16.12Q42.50 15.83 40.29 16.93L40.32 16.95L40.41 17.05Q39.22 18.29 39.22 20.35L39.28 20.41L39.40 20.53Q39.28 21.09 39.58 23.91L39.61 23.94L39.69 24.02Q40.13 24.15 41.31 24.46L41.27 24.42L41.26 25.44L41.39 25.57Q41.36 26.03 41.44 26.57L41.42 26.55L41.43 26.56Q42.68 26.67 45.16 26.90L45.21 26.95L45.05 26.79Q45.03 26.42 45.03 26.08L45.04 26.09L45.06 26.11Q45.05 24.27 46.27 22.92L46.21 22.86L46.36 23.02Q47.57 21.66 49.36 21.77L49.35 21.76L49.36 21.77Q50.14 21.83 50.90 21.98L50.85 21.93L50.81 21.88Q51.00 22.35 51.08 22.77L50.99 22.68L50.97 22.66Q51.08 23.15 51.01 23.49L50.96 23.44L50.97 23.46Q49.64 28.14 45.23 32.98L45.26 33.01L45.38 33.13Q43.26 35.39 37.81 41.44L37.73 41.36L37.71 41.34Q37.57 42.23 37.23 42.80L37.24 42.81L37.15 42.72Q38.89 41.98 40.41 41.45L40.30 41.33L40.31 41.35Q39.69 42.02 38.74 43.51L38.71 43.49L38.75 43.53Q38.58 43.81 38.47 44.15L38.34 44.03L38.52 44.21Q43.40 42.15 48.88 42.34L48.71 42.18L48.87 42.34Q54.50 42.45 59.07 44.81L59.03 44.76L57.96 42.55L58.09 42.69Q57.46 41.36 57.19 40.56L57.09 40.47L57.09 40.47Q56.47 40.15 55.26 39.74L55.27 39.75L55.09 39.57Q54.98 38.89 54.60 37.52L54.71 37.63L54.66 37.58Q52.39 36.94 50.10 36.75L50.19 36.84L50.19 36.83Q54.74 32.14 56.26 23.88L56.43 24.05L56.50 21.03L56.45 20.98Q56.53 19.35 55.31 18.67L55.27 18.62L55.12 18.51L55.14 18.53Q55.27 18.63 55.20 18.63L55.06 18.49L55.03 18.46Q54.95 17.77 53.85 17.16Z"/><path fill="#333" d="M98.27 32.24L88.98 22.19L88.92 22.13Q89.78 25.84 89.78 29.57L89.69 29.48L89.82 29.61Q89.82 35.59 87.77 41.15L87.81 41.19L87.70 41.08Q86.58 41.29 84.33 42.05L84.43 42.15L84.41 42.13Q87.29 36.41 87.29 29.71L87.14 29.55L87.24 29.65Q87.28 21.05 82.79 13.63L82.74 13.58L82.78 13.62Q83.22 13.79 83.90 14.21L83.76 14.08L83.83 14.14Q96.01 25.45 103.85 34.70L103.82 34.67L103.73 34.57Q103.56 32.28 103.56 29.84L103.48 29.75L103.53 29.81Q103.41 22.45 105.92 16.25L105.98 16.31L106.04 16.37Q108.34 15.81 109.94 15.13L109.90 15.08L109.99 15.18Q106.67 21.34 106.37 28.49L106.39 28.52L106.24 28.37Q106.05 35.83 109.02 41.99L109.04 42.01L109.02 42.00Q108.39 41.86 107.97 41.67L107.99 41.69L108.01 41.71Q103.40 37.71 98.19 32.15L98.15 32.11ZM111.62 45.17L111.50 45.05L111.59 45.14Q112.01 45.25 112.43 45.44L112.49 45.50L113.38 45.90L113.42 45.94Q108.14 38.87 108.14 29.50L108.19 29.55L108.18 29.55Q108.25 22.39 111.57 16.14L111.47 16.05L111.47 16.05Q110.83 16.28 109.42 16.89L109.40 16.87L109.36 16.83Q109.87 16.12 110.70 14.56L110.60 14.45L110.73 14.58Q108.08 15.28 105.64 15.85L105.69 15.90L105.77 15.98Q103.14 22.45 103.14 29.87L103.08 29.81L103.11 29.85Q103.16 31.76 103.35 33.74L103.28 33.67L103.22 33.61Q98.67 28.03 93.91 23.42L93.95 23.46L83.74 13.63L83.80 13.69Q83.18 13.34 81.97 12.77L82.10 12.91L82.05 12.86Q86.84 20.50 86.84 29.60L86.97 29.73L86.96 29.72Q86.96 36.84 83.87 42.85L83.84 42.82L83.83 42.81Q84.08 42.64 85.71 42.03L85.78 42.09L85.65 41.97Q85.50 42.92 84.66 44.40L84.58 44.32L84.62 44.36Q86.00 43.87 89.46 43.07L89.30 42.91L89.32 42.93Q91.77 36.93 91.77 29.74L91.70 29.67L91.69 29.65Q91.73 27.60 91.50 25.47L91.42 25.38L91.54 25.51Q102.91 38.21 111.51 45.06Z"/></svg>