<svg xmlns="http://www.w3.org/2000/svg" width="150" height="50" viewBox="0,0,150,50"><path fill="#222" d="M30.54 30.41L30.43 30.30L30.44 30.31Q30.61 29.99 30.57 29.57L30.50 29.50L30.56 29.56Q30.54 29.24 30.23 29.04L30.06 28.87L30.14 28.95Q29.44 28.40 28.57 28.56L28.51 28.50L28.53 28.53Q27.48 28.54 25.85 29.64L25.79 29.59L25.82 29.62Q24.41 30.53 24.41 31.71L24.48 31.78L24.48 31.78Q24.42 32.98 24.42 36.29L24.35 36.22L24.37 36.24Q24.49 38.95 24.64 40.96L24.51 40.83L24.51 40.83Q22.86 40.90 22.86 40.90L22.81 40.84L22.90 40.93Q21.92 40.90 21.19 40.98L21.12 40.91L21.17 40.95Q21.60 38.46 21.68 36.21L21.67 36.20L21.62 36.15Q21.84 31.58 21.19 30.28L21.19 30.28L21.08 30.17Q20.81 29.59 20.24 29.29L20.23 29.28L20.37 29.42Q19.41 28.58 17.85 28.46L17.92 28.53L17.85 28.46Q15.81 28.21 15.28 29.81L15.29 29.83L15.41 29.94Q15.19 30.37 15.31 30.87L15.35 30.91L15.32 30.88Q15.86 33.52 15.52 36.29L15.70 36.47L15.62 36.40Q15.37 39.27 13.96 41.70L13.88 41.63L13.79 41.54Q12.95 41.87 10.85 42.29L10.72 42.15L10.89 42.33Q13.38 39.07 13.38 34.77L13.19 34.58L13.24 34.63Q13.23 28.75 9.19 24.53L9.34 24.68L9.19 24.52Q10.04 24.91 10.99 25.14L11.04 25.19L12.74 25.56L12.59 25.41Q13.23 26.21 14.11 27.88L14.10 27.87L14.03 27.80Q14.29 26.00 16.72 25.96L16.62 25.86L16.53 25.78Q16.69 25.74 17.68 25.82L17.73 25.87L17.82 25.96Q22.72 26.18 23.86 28.99L23.92 29.05L23.99 29.12Q25.68 26.43 30.70 25.89L30.71 25.90L30.69 25.89Q31.34 25.66 32.22 25.78L32.25 25.80L32.29 25.84Q34.54 26.08 34.39 27.64L34.41 27.67L34.27 27.52Q34.25 28.23 33.99 28.99L33.99 29.00L33.89 28.90Q32.54 31.96 32.77 35.50L32.91 35.64L32.85 35.58Q33.09 39.10 34.99 41.91L34.82 41.74L34.88 41.80Q33.23 41.49 31.41 41.26L31.49 41.34L31.41 41.26Q30.15 38.67 29.96 35.89L29.96 35.89L29.94 35.87Q29.86 33.12 30.51 30.38ZM31.24 41.70L31.20 41.66L31.27 41.73Q31.94 41.75 33.27 41.94L33.20 41.87L33.21 41.88Q33.78 42.64 34.92 44.05L34.92 44.05L34.95 44.08Q37.83 44.60 39.93 45.25L39.94 45.26L40.00 45.32Q34.94 41.37 34.67 34.86L34.65 34.83L34.67 34.85Q34.55 32.72 35.16 30.81L35.23 30.88L35.14 30.79Q35.41 29.95 35.41 29.23L35.34 29.16L35.44 29.26Q35.49 28.40 34.88 27.83L34.81 27.75L34.67 27.58L34.73 27.64Q34.74 27.08 34.67 26.59L34.85 26.77L34.84 26.76Q34.56 26.06 34.10 25.79L34.15 25.84L34.11 25.80Q33.53 25.41 32.65 25.37L32.61 25.33L32.67 25.39Q29.85 25.31 27.19 26.26L27.06 26.14L27.20 26.28Q25.19 26.93 24.01 28.34L23.98 28.31L23.97 28.30Q22.33 25.75 17.50 25.41L17.54 25.45L17.58 25.48Q16.94 25.49 16.52 25.49L16.54 25.51L16.55 25.53Q14.44 25.47 13.83 26.72L13.81 26.70L13.89 26.79Q13.58 26.29 12.90 25.22L12.89 25.21L12.77 25.10Q10.35 24.61 8.37 23.97L8.29 23.89L8.39 23.99Q13.02 28.36 13.02 34.64L13.05 34.66L13.04 34.65Q12.99 39.33 10.14 42.79L10.17 42.83L10.14 42.79Q10.60 42.65 11.10 42.57L11.18 42.65L12.08 42.41L12.04 42.37Q11.32 43.40 10.21 44.62L10.23 44.63L10.32 44.72Q12.01 44.47 15.13 43.86L15.07 43.80L15.12 43.86Q17.67 39.62 17.67 34.71L17.80 34.84L17.67 34.71Q17.66 33.91 17.59 33.07L17.58 33.07L17.53 33.02Q17.61 32.41 18.60 31.61L18.46 31.47L18.47 31.52L18.54 31.59Q19.13 31.11 20.31 31.00L20.34 31.03L20.19 30.88Q20.70 30.97 21.01 30.97L20.99 30.96L21.19 31.35L21.23 31.38Q21.32 33.91 21.20 36.27L21.24 36.31L21.23 36.30Q21.12 38.59 20.63 41.25L20.59 41.21L20.63 41.26Q21.73 41.32 21.73 41.32L21.70 41.30L21.71 41.31Q23.12 41.27 22.77 41.27L22.77 41.26L22.81 41.31Q22.87 41.85 22.83 42.31L22.78 42.26L22.72 42.20Q22.74 42.72 22.74 43.21L22.75 43.23L25.11 43.11L25.29 43.28Q26.40 43.14 27.66 43.22L27.76 43.32L27.79 43.35Q26.14 39.53 26.33 33.60L26.45 33.71L26.44 33.71Q26.43 32.55 27.61 31.78L27.60 31.78L27.67 31.85Q28.48 30.95 29.74 30.76L29.75 30.77L29.99 30.70L30.15 30.86Q29.73 32.80 29.73 34.78L29.67 34.73L29.64 34.70Q29.60 38.42 31.12 41.58ZM25.65 30.09L25.82 30.04L25.72 30.28L25.68 30.13Z"/><path fill="#222" d="M40.23 47.04L40.33 47.14L40.36 47.16Q39.28 47.22 37.37 47.53L37.36 47.51L37.43 47.58Q38.76 45.45 39.79 44.16L39.73 44.10L39.76 44.13Q41.56 44.48 41.71 44.48L41.72 44.49L41.55 44.32Q41.89 44.44 42.43 44.32L42.39 44.29L42.50 44.40Q43.15 44.28 43.34 44.28L43.26 44.20L43.42 44.36Q45.91 44.04 45.84 41.87L45.78 41.81L45.93 41.96Q45.70 40.29 45.59 34.05L45.70 34.15L45.76 34.22Q45.68 30.64 45.76 26.49L45.80 26.53L47.20 26.33L47.12 26.25Q47.68 26.05 48.37 25.83L48.51 25.97L48.37 25.83Q48.19 30.29 48.23 34.67L48.36 34.80L48.32 34.76Q48.24 39.03 48.78 43.40L48.86 43.48L48.91 43.53Q48.98 43.84 48.98 44.10L49.00 44.12L49.00 44.12Q48.90 45.65 47.22 46.03L47.17 45.98L47.28 46.09Q44.21 46.52 40.36 47.17ZM46.99 22.81L45.00 19.83L44.96 19.79Q45.93 18.32 47.75 15.54L47.76 15.54L47.79 15.58Q48.38 16.40 49.72 18.23L49.82 18.33L47.00 22.82ZM50.14 49.56L49.96 49.38L50.04 49.46Q50.62 49.54 51.38 49.20L51.44 49.27L51.30 49.12Q51.72 48.52 51.72 48.06L51.79 48.12L51.79 48.12Q51.71 47.71 51.60 47.10L51.63 47.13L51.46 46.96Q50.17 40.60 50.17 32.69L50.12 32.64L50.19 32.71Q50.27 29.94 50.43 27.04L50.31 26.92L50.40 27.02Q49.75 27.09 48.60 27.39L48.64 27.43L48.66 27.45Q48.78 27.07 48.82 26.54L48.80 26.52L48.87 25.41L48.89 25.43Q47.03 25.93 45.24 25.97L45.32 26.05L45.27 26.00Q45.32 30.43 45.36 34.01L45.21 33.86L45.43 41.80L45.54 41.92Q45.54 43.82 43.37 43.93L43.28 43.84L43.34 43.90Q43.12 43.91 42.60 43.97L42.59 43.96L42.53 43.89Q42.02 43.95 41.75 43.95L41.77 43.97L41.78 43.98Q41.35 44.01 39.79 43.59L39.71 43.51L39.77 43.57Q39.28 44.14 38.17 45.82L38.17 45.81L36.68 48.17L36.62 48.11Q37.62 48.04 39.26 47.66L39.29 47.70L38.67 48.26L38.14 48.91L38.30 49.07Q40.56 48.89 41.90 48.97L41.86 48.94L41.93 49.00Q44.09 49.03 50.03 49.45ZM47.05 23.63L47.03 23.61L47.30 23.00L47.35 23.05Q47.70 23.48 48.65 25.08L48.72 25.15L48.60 25.03Q50.26 22.04 51.82 18.96L51.74 18.88L51.79 18.93Q50.81 17.34 49.86 16.05L49.80 15.98L49.77 15.96Q49.73 16.33 49.38 16.86L49.39 16.87L49.20 16.68Q48.93 16.18 47.94 14.89L47.81 14.76L47.88 14.83Q46.69 16.42 44.37 19.77L44.36 19.76L44.33 19.73Q45.26 20.97 46.98 23.56Z"/><path fill="#222" d="M69.02 26.84L68.98 26.80L69.10 26.91Q70.74 26.92 72.57 26.92L72.60 26.95L72.58 26.93Q74.51 27.08 76.34 26.92L76.23 26.81L76.34 26.92Q76.09 27.43 76.09 28.16L76.23 28.29L76.04 29.44L76.15 29.55Q73.70 29.46 68.95 29.58L68.96 29.59L69.02 29.65Q69.04 35.61 67.90 40.60L67.78 40.48L67.81 40.51Q65.59 41.18 64.10 41.98L64.27 42.15L64.10 41.98Q66.54 35.29 66.28 28.17L66.19 28.08L66.18 28.07Q65.91 20.91 63.25 14.25L63.34 14.34L63.38 14.38Q67.01 16.86 71.76 17.09L71.81 17.14L71.77 17.09Q76.46 17.29 80.61 15.54L80.57 15.51L80.48 15.41Q80.30 16.34 80.07 17.13L80.00 17.07L79.66 18.82L79.49 18.65Q76.93 19.90 73.96 20.05L73.85 19.94L73.83 19.92Q71.04 20.21 68.18 19.49L68.03 19.33L68.05 19.36Q68.85 22.85 69.04 26.85ZM81.27 14.87L81.20 14.80L81.26 14.87Q76.65 16.99 71.77 16.68L71.67 16.58L71.74 16.65Q66.29 16.22 62.56 13.37L62.58 13.39L62.68 13.49Q65.60 20.48 65.90 28.09L65.87 28.06L65.79 27.98Q66.19 35.99 63.68 42.77L63.61 42.70L63.72 42.81Q64.29 42.32 65.66 41.67L65.72 41.73L65.62 41.63Q65.53 42.49 64.95 44.01L64.88 43.93L64.91 43.97Q67.17 42.84 70.06 42.34L70.09 42.37L70.06 42.34Q70.71 37.51 70.90 31.80L71.04 31.94L70.92 31.82Q72.76 31.83 74.59 31.83L74.49 31.73L74.52 31.76Q76.44 31.90 78.27 32.09L78.26 32.07L78.28 32.09Q78.17 31.15 78.17 30.23L78.12 30.19L78.12 28.29L78.16 28.33Q77.24 28.28 76.40 28.28L76.38 28.26L76.42 28.29Q76.56 27.56 76.64 26.53L76.53 26.42L76.50 26.39Q75.11 26.57 73.70 26.57L73.87 26.73L73.68 26.54Q72.43 26.70 71.06 26.66L70.97 26.57L70.95 24.43L70.89 24.36Q70.93 23.33 70.81 22.27L70.68 22.14L70.70 22.16Q71.66 22.20 72.65 22.20L72.78 22.34L72.81 22.36Q77.44 22.24 81.06 20.33L81.09 20.37L81.08 20.36Q81.58 18.53 82.50 15.91L82.61 16.02L82.49 15.90Q81.26 16.81 80.46 17.15L80.40 17.08L80.42 17.11Q80.62 16.28 81.12 14.72Z"/><path fill="#444" d="M129.22 23.22L129.35 23.34L129.24 23.23Q127.63 19.26 121.42 19.45L121.41 19.44L121.38 19.41Q117.01 19.57 115.03 21.02L114.89 20.88L114.93 20.92Q112.60 22.74 112.60 26.85L112.54 26.78L112.56 28.67L112.54 28.66Q112.67 37.61 121.69 37.61L121.66 37.59L121.65 37.57Q123.68 37.55 125.16 36.75L125.15 36.73L125.04 36.63Q127.05 35.78 126.90 33.92L126.74 33.76L126.76 33.77Q126.63 31.74 122.93 30.83L122.95 30.84L121.08 30.91L121.06 30.89Q119.95 30.73 119.00 30.77L119.00 30.77L119.18 30.95Q119.15 29.98 119.12 28.07L119.08 28.04L119.10 28.06Q126.64 27.95 130.83 27.61L130.94 27.72L130.95 27.72Q130.79 28.45 130.79 29.24L130.95 29.40L130.90 29.35Q130.77 30.02 130.81 30.82L130.96 30.97L130.88 30.89Q129.84 30.95 129.84 30.95L129.75 30.87L129.81 30.92Q128.44 30.92 128.82 30.92L128.80 30.90L128.79 30.89Q129.87 32.50 130.25 34.48L130.29 34.53L130.28 34.52Q130.33 35.17 130.33 35.63L130.44 35.74L130.36 35.66Q130.34 40.29 121.55 40.29L121.51 40.25L121.56 40.30Q114.47 40.33 111.88 38.24L111.95 38.30L111.76 38.11Q109.81 35.78 109.81 30.72L109.81 30.72L109.92 30.83Q109.80 29.65 109.65 26.95L109.75 27.05L109.81 27.10Q109.61 24.70 109.65 23.33L109.56 23.24L109.65 23.33Q109.75 20.45 111.12 18.85L111.02 18.76L111.18 18.91Q113.60 16.73 118.47 16.54L118.47 16.54L121.26 16.59L121.15 16.48Q124.23 16.36 127.65 16.78L127.78 16.90L127.67 16.79Q131.40 17.25 132.35 20.49L132.40 20.54L132.34 20.48Q131.46 21.54 129.37 23.36ZM130.71 25.50L130.84 25.52L130.87 25.55Q132.08 24.48 133.95 22.50L133.91 22.46L133.84 22.39Q133.57 21.47 132.58 19.76L132.61 19.79L132.57 19.75Q131.40 17.10 127.60 16.45L127.67 16.53L127.59 16.45Q125.52 16.39 121.22 16.09L121.16 16.03L118.52 16.21L118.48 16.17Q113.24 16.30 110.66 18.28L110.72 18.35L110.79 18.41Q109.32 19.96 109.21 23.04L109.23 23.06L109.15 22.98Q109.36 22.73 109.59 28.22L109.41 28.04L109.57 28.20Q109.40 29.35 109.47 32.10L109.64 32.27L109.58 32.21Q109.81 36.70 111.56 38.64L111.41 38.49L111.54 38.62Q111.87 39.41 112.75 40.28L112.76 40.30L112.84 40.37Q115.71 42.21 121.23 42.56L121.13 42.46L124.15 42.77L124.07 42.70Q125.70 42.84 127.72 42.73L127.77 42.78L127.76 42.77Q129.09 42.58 131.18 42.05L131.23 42.09L131.30 42.16Q133.21 41.63 133.17 39.31L133.23 39.37L133.05 39.19Q133.20 38.08 132.13 35.30L132.13 35.30L132.13 35.30Q131.76 34.32 131.23 33.52L131.16 33.45L131.22 33.52Q131.92 33.64 133.10 33.83L133.02 33.75L132.97 33.70Q132.65 30.07 132.69 29.39L132.66 29.36L132.72 29.42Q132.30 29.38 131.89 29.35L131.91 29.37L131.94 29.40Q131.54 29.34 131.16 29.42L131.27 29.53L131.15 29.41Q131.16 28.32 131.24 27.25L131.35 27.36L131.36 27.38Q124.96 27.75 118.68 27.63L118.68 27.63L118.77 27.73Q118.75 28.58 118.75 29.50L118.69 29.43L118.81 31.31L118.75 31.24Q119.23 31.35 119.65 31.31L119.68 31.34L119.57 31.23Q120.01 31.26 120.47 31.26L120.44 31.22L120.46 31.24Q120.44 31.68 120.48 32.17L120.39 32.08L120.39 32.09Q120.47 32.62 120.43 33.12L120.46 33.15L120.39 33.08Q121.51 33.13 122.54 33.09L122.55 33.10L122.42 32.97Q123.50 33.03 124.53 33.06L124.52 33.06L124.52 33.06Q125.62 33.36 126.50 33.74L126.41 33.65L126.43 33.71L126.40 33.68Q126.58 35.23 124.91 36.15L124.91 36.15L125.00 36.24Q123.41 37.24 121.70 37.24L121.58 37.12L121.59 37.13Q117.83 37.22 115.40 35.47L115.25 35.32L115.36 35.44Q114.35 33.35 114.50 30.80L114.43 30.74L114.51 30.82Q114.81 26.01 116.65 24.01L116.68 24.04L116.71 24.07Q118.62 22.13 123.30 21.83L123.17 21.70L123.30 21.83Q126.89 21.53 128.83 23.32L128.89 23.38L128.78 23.27Q128.94 23.47 129.05 23.66L129.08 23.69L129.18 23.67L129.13 23.62Q129.77 24.37 130.34 25.48L130.23 25.37L130.64 25.43Z"/><path fill="#222" d="M105.15 41.59L105.06 41.50L105.13 41.57Q103.07 41.22 100.90 41.07L100.78 40.96L100.89 41.06Q99.32 39.49 96.66 35.65L96.73 35.73L96.66 35.65Q94.51 38.80 92.11 41.23L92.12 41.24L90.01 41.60L89.99 41.59Q88.96 41.81 87.97 42.07L87.93 42.03L87.99 42.10Q92.21 38.01 95.22 33.90L95.20 33.89L95.23 33.92Q91.94 29.71 86.53 24.92L86.54 24.92L86.44 24.82Q88.71 25.60 91.41 26.02L91.42 26.03L91.45 26.06Q94.88 29.15 96.78 31.85L96.82 31.89L96.87 31.94Q98.87 28.76 101.61 26.25L101.56 26.20L101.66 26.30Q104.62 25.87 106.45 25.38L106.52 25.45L106.56 25.49Q102.05 29.16 98.36 33.73L98.22 33.59L98.25 33.62Q101.72 38.39 105.19 41.63ZM107.93 24.65L108.03 24.75L107.96 24.68Q105.08 25.53 101.54 25.88L101.53 25.87L101.48 25.81Q98.67 28.56 96.96 31.04L96.84 30.92L96.85 30.93Q96.02 29.95 94.39 27.97L94.49 28.07L94.17 27.94L94.24 28.01Q94.11 28.00 94.00 28.00L93.95 27.96L93.90 27.91Q93.27 27.20 91.64 25.75L91.52 25.63L91.58 25.69Q88.06 25.22 85.20 24.00L85.21 24.01L85.09 23.89Q90.75 28.83 94.79 33.97L94.72 33.90L94.70 33.89Q91.29 38.46 86.87 42.76L86.91 42.81L86.99 42.88Q87.14 42.69 90.65 41.86L90.64 41.85L90.75 41.96Q89.05 43.12 87.41 44.45L87.51 44.54L87.41 44.45Q90.77 43.70 93.93 43.51L93.92 43.49L93.82 43.40Q96.32 41.25 98.22 38.51L98.08 38.36L98.09 38.37Q99.52 40.15 100.74 41.33L100.85 41.44L100.82 41.41Q100.89 41.37 100.97 41.45L100.94 41.42L101.13 41.41L101.19 41.48Q102.50 42.63 103.83 43.70L103.76 43.63L103.69 43.56Q107.25 44.07 110.14 45.10L110.24 45.20L110.24 45.20Q103.96 40.63 100.27 35.45L100.37 35.56L100.28 35.47Q104.08 30.58 108.64 26.51L108.61 26.47L108.67 26.53Q107.67 26.83 106.68 27.06L106.64 27.02L104.72 27.57L104.53 27.38Q105.79 26.54 107.96 24.68Z"/></svg>