<svg xmlns="http://www.w3.org/2000/svg" width="150" height="50" viewBox="0,0,150,50"><path fill="#111" d="M92.54 33.23L92.55 33.24L92.69 33.37Q92.55 36.20 91.37 40.85L91.26 40.74L91.23 40.71Q89.41 41.22 87.82 42.02L87.92 42.12L87.95 42.15Q90.55 35.12 90.28 27.69L90.35 27.76L90.23 27.64Q90.00 20.30 86.92 13.56L86.94 13.58L86.83 13.47Q88.89 14.85 90.76 15.42L90.80 15.46L90.76 15.42Q92.83 22.32 92.83 28.98L92.92 29.08L92.91 29.06Q92.91 30.51 92.83 32.00L92.70 31.86L92.79 31.95Q93.81 30.62 99.03 25.67L99.04 25.68L99.21 25.84Q100.19 25.72 101.18 25.65L101.29 25.76L103.20 25.43L103.35 25.57Q100.21 28.60 95.91 32.37L95.77 32.23L95.82 32.28Q99.22 35.07 105.70 40.90L105.63 40.84L105.70 40.91Q103.01 40.04 100.04 39.85L99.90 39.71L100.04 39.85Q97.44 37.67 92.57 33.25ZM102.59 42.55L102.52 42.48L102.46 42.42Q107.29 43.36 110.41 45.31L110.27 45.17L110.28 45.17Q109.18 43.97 106.56 41.57L106.49 41.50L106.49 41.50Q106.78 41.64 107.04 41.75L106.99 41.70L107.13 41.83Q104.88 39.67 102.64 37.77L102.73 37.86L98.27 33.93L98.25 33.91Q103.19 29.68 105.63 26.79L105.75 26.90L105.58 26.73Q104.44 26.89 101.97 27.16L101.90 27.10L101.92 27.11Q103.67 25.82 104.36 24.98L104.24 24.86L104.32 24.94Q101.48 25.38 99.01 25.38L99.01 25.38L99.02 25.40Q97.56 26.63 94.82 29.30L94.89 29.37L94.93 29.41Q94.85 23.54 93.86 17.72L93.94 17.80L93.83 17.68Q93.22 17.62 91.74 17.35L91.57 17.18L91.73 17.34Q91.43 16.47 90.97 14.99L91.03 15.04L91.09 15.10Q88.46 14.30 86.21 12.74L86.11 12.63L86.23 12.76Q89.67 19.59 90.02 27.69L89.99 27.67L89.90 27.57Q90.28 35.53 87.27 42.76L87.31 42.80L87.34 42.84Q87.98 42.48 89.31 41.83L89.29 41.81L89.32 41.85Q89.15 42.74 88.51 44.19L88.36 44.04L88.49 44.17Q91.31 43.07 93.44 42.69L93.42 42.67L93.47 42.72Q93.87 40.04 94.36 35.77L94.41 35.81L94.47 35.88Q97.14 38.21 102.59 42.55Z"/><path fill="#333" d="M123.51 39.78L123.59 39.86L121.59 39.80L121.67 39.88Q120.71 39.87 119.76 39.99L119.65 39.88L119.64 39.87Q120.30 33.74 120.30 29.75L120.38 29.83L120.25 29.70Q116.34 23.09 108.69 14.41L108.72 14.44L108.75 14.47Q110.47 15.39 113.82 16.19L113.92 16.30L113.74 16.11Q118.89 21.80 121.90 27.01L121.92 27.03L121.91 27.02Q124.93 21.47 129.30 16.45L129.20 16.35L129.21 16.35Q131.74 16.06 134.25 15.26L134.12 15.13L134.20 15.21Q128.18 21.34 123.31 29.75L123.32 29.77L123.34 29.79Q123.31 36.80 123.62 39.88ZM132.68 17.27L135.33 14.37L135.34 14.37Q132.33 15.63 129.21 16.08L129.26 16.13L129.15 16.03Q124.92 20.74 122.10 25.84L122.21 25.95L122.17 25.91Q119.90 22.12 116.71 18.24L116.74 18.27L116.71 18.24Q116.48 18.28 115.99 18.21L116.07 18.29L116.07 18.29Q115.46 17.56 113.93 15.89L113.84 15.79L113.93 15.88Q110.50 15.08 107.53 13.52L107.54 13.52L107.41 13.40Q115.11 21.86 119.87 29.78L119.91 29.81L120.03 29.93Q119.82 36.16 119.21 40.31L119.24 40.34L119.27 40.37Q120.02 40.36 121.46 40.24L121.50 40.28L121.53 41.34L121.53 41.34Q121.47 41.73 121.40 42.27L121.41 42.28L121.41 42.28Q125.00 42.33 126.75 42.52L126.75 42.52L126.76 42.53Q125.35 37.69 125.23 31.72L125.27 31.75L125.28 31.76Q129.75 23.40 136.30 16.05L136.25 16.01L132.62 17.21Z"/><path fill="#222" d="M80.00 23.33L79.93 23.26L80.01 23.34Q78.15 19.12 71.95 19.31L71.97 19.33L72.08 19.44Q67.69 19.58 65.71 21.03L65.68 21.00L65.70 21.03Q63.21 22.68 63.21 26.79L63.21 26.80L63.29 28.73L63.29 28.74Q63.34 37.62 72.37 37.62L72.30 37.56L72.19 37.45Q74.23 37.43 75.71 36.63L75.90 36.82L75.79 36.71Q77.63 35.69 77.48 33.83L77.58 33.92L77.48 33.83Q77.33 31.77 73.64 30.86L73.51 30.73L71.72 30.89L71.57 30.73Q70.77 30.89 69.82 30.92L69.85 30.96L69.79 30.89Q69.71 29.86 69.67 27.96L69.72 28.01L69.74 28.03Q77.29 27.93 81.48 27.59L81.57 27.68L81.60 27.71Q81.60 28.59 81.60 29.39L81.52 29.30L81.45 29.23Q81.59 30.18 81.63 30.98L81.50 30.85L81.52 30.86Q80.36 30.80 80.36 30.80L80.38 30.83L80.45 30.90Q79.05 30.87 79.43 30.87L79.40 30.84L79.41 30.84Q80.44 32.41 80.82 34.39L80.85 34.42L81.00 34.57Q81.00 35.18 81.00 35.64L80.93 35.56L81.03 35.66Q81.05 40.33 72.26 40.33L72.23 40.31L72.17 40.25Q65.15 40.34 62.56 38.25L62.61 38.30L62.55 38.24Q60.62 35.92 60.62 30.86L60.45 30.69L60.49 30.74Q60.51 29.69 60.35 26.98L60.33 26.96L60.43 27.06Q60.31 24.73 60.35 23.36L60.23 23.24L60.32 23.33Q60.41 20.45 61.78 18.85L61.77 18.84L61.73 18.80Q64.32 16.79 69.19 16.60L69.16 16.56L71.91 16.57L71.83 16.50Q74.89 16.35 78.31 16.77L78.40 16.86L78.46 16.91Q82.04 17.22 82.99 20.46L83.08 20.55L83.04 20.50Q82.10 21.51 80.00 23.33ZM81.38 25.51L81.51 25.53L81.53 25.54Q82.74 24.47 84.61 22.49L84.46 22.35L84.48 22.36Q84.32 21.55 83.33 19.84L83.20 19.72L83.33 19.84Q82.13 17.16 78.32 16.51L78.26 16.45L78.27 16.46Q76.11 16.32 71.81 16.01L71.94 16.14L69.23 16.25L69.18 16.20Q63.90 16.29 61.31 18.27L61.44 18.40L61.43 18.38Q59.91 19.88 59.80 22.96L59.95 23.11L59.92 23.08Q59.90 22.60 60.12 28.08L60.12 28.08L60.23 28.19Q60.17 29.46 60.24 32.20L60.16 32.12L60.33 32.29Q60.52 36.74 62.27 38.68L62.13 38.54L62.22 38.64Q62.58 39.44 63.45 40.32L63.49 40.36L63.49 40.36Q66.25 42.09 71.77 42.43L71.80 42.46L74.65 42.61L74.70 42.66Q76.41 42.89 78.43 42.77L78.37 42.71L78.42 42.76Q79.81 42.63 81.90 42.10L81.88 42.08L81.92 42.12Q83.75 41.50 83.71 39.18L83.89 39.36L83.78 39.25Q83.77 37.99 82.71 35.21L82.64 35.15L82.82 35.32Q82.36 34.26 81.83 33.46L81.86 33.49L81.83 33.46Q82.52 33.57 83.70 33.76L83.59 33.66L83.67 33.74Q83.32 30.08 83.36 29.39L83.36 29.40L83.49 29.53Q82.97 29.39 82.55 29.35L82.54 29.33L82.66 29.45Q82.15 29.29 81.77 29.37L81.80 29.40L81.91 29.50Q81.78 28.27 81.86 27.21L81.92 27.27L82.00 27.34Q75.69 27.82 69.41 27.70L69.33 27.62L69.29 27.58Q69.41 28.58 69.41 29.49L69.49 29.57L69.38 31.21L69.43 31.26Q69.75 31.20 70.17 31.17L70.27 31.27L70.30 31.29Q70.73 31.30 71.18 31.30L71.13 31.25L71.13 31.25Q71.05 31.63 71.09 32.12L71.07 32.10L71.07 32.10Q71.21 32.70 71.17 33.19L71.18 33.20L71.17 33.19Q72.22 33.17 73.25 33.13L73.25 33.14L73.13 33.02Q74.25 33.12 75.28 33.15L75.29 33.17L75.16 33.03Q76.26 33.34 77.14 33.72L77.19 33.76L77.12 33.74L77.07 33.68Q77.41 35.40 75.74 36.31L75.65 36.23L75.65 36.22Q74.01 37.17 72.30 37.17L72.31 37.19L72.36 37.24Q68.38 37.10 65.94 35.35L66.01 35.41L65.91 35.32Q65.08 33.42 65.23 30.87L65.11 30.75L65.20 30.84Q65.58 26.12 67.43 24.12L67.37 24.06L67.26 23.95Q69.18 22.03 73.87 21.73L73.83 21.69L73.89 21.75Q77.51 21.49 79.45 23.28L79.41 23.23L79.51 23.34Q79.45 23.31 79.56 23.50L79.70 23.64L79.77 23.60L79.78 23.61Q80.40 24.34 80.97 25.45L80.94 25.41L81.25 25.38Z"/><path fill="#333" d="M29.64 37.87L29.65 37.88L29.65 37.88Q29.96 38.88 30.50 40.90L30.58 40.99L30.53 40.93Q26.25 39.55 21.65 39.81L21.71 39.88L21.71 39.88Q17.02 40.02 13.02 42.00L13.01 41.99L13.16 42.14Q13.29 41.36 13.33 41.43L13.47 41.57L13.39 41.50Q17.21 37.62 21.13 33.21L20.99 33.06L21.04 33.12Q25.49 28.16 26.67 23.48L26.64 23.45L26.69 23.51Q27.16 21.76 25.88 20.58L25.76 20.46L25.77 20.47Q24.52 19.32 22.73 19.47L22.75 19.49L22.83 19.56Q22.32 19.37 21.98 19.37L22.14 19.52L22.01 19.40Q20.59 19.49 19.33 20.41L19.34 20.41L19.34 20.42Q17.90 21.64 18.13 24.31L18.13 24.31L18.22 24.40Q16.45 24.07 15.23 23.62L15.25 23.64L15.22 23.61Q14.94 22.10 14.86 20.66L14.95 20.75L14.92 20.71Q14.77 19.00 15.38 17.86L15.53 18.01L15.50 17.98Q17.34 16.66 20.69 16.66L20.61 16.58L22.30 16.53L22.37 16.59Q24.62 16.60 25.58 16.71L25.55 16.69L25.60 16.74Q30.00 17.22 30.27 19.66L30.24 19.63L30.14 19.53Q30.37 20.26 30.30 21.06L30.19 20.95L30.19 20.95Q30.13 21.58 29.98 22.26L29.96 22.24L30.11 22.39Q28.35 30.38 20.78 37.23L20.77 37.22L20.75 37.21Q22.17 37.06 23.54 37.06L23.55 37.08L23.64 37.17Q26.79 37.08 29.64 37.88ZM29.02 17.00L29.05 17.03L29.01 16.99Q27.60 16.53 25.88 16.45L25.78 16.35L22.43 16.23L22.41 16.21Q17.82 15.82 15.62 16.92L15.80 17.10L15.71 17.01Q14.73 18.48 14.73 20.53L14.64 20.43L14.65 20.45Q14.64 21.12 14.94 23.94L15.07 24.07L15.06 24.06Q15.57 24.26 16.75 24.56L16.77 24.59L16.72 25.56L16.73 25.58Q16.62 25.96 16.69 26.49L16.82 26.62L16.63 26.42Q17.99 26.64 20.46 26.87L20.46 26.87L20.47 26.87Q20.51 26.57 20.51 26.23L20.40 26.12L20.41 26.13Q20.33 24.22 21.54 22.87L21.62 22.94L21.67 22.99Q22.84 21.59 24.63 21.71L24.69 21.77L24.71 21.79Q25.31 21.67 26.08 21.82L26.18 21.93L26.11 21.86Q26.36 22.37 26.44 22.79L26.29 22.65L26.31 22.67Q26.34 23.07 26.26 23.41L26.30 23.45L26.31 23.46Q25.13 28.30 20.71 33.13L20.62 33.04L20.61 33.03Q18.61 35.41 13.17 41.46L13.08 41.38L13.09 41.39Q12.92 42.25 12.58 42.82L12.64 42.88L12.52 42.76Q14.16 41.93 15.69 41.39L15.73 41.44L15.61 41.32Q14.85 41.85 13.90 43.34L13.93 43.37L13.96 43.40Q13.89 43.78 13.78 44.13L13.82 44.17L13.76 44.11Q18.73 42.15 24.21 42.34L24.13 42.26L24.05 42.18Q29.75 42.36 34.32 44.72L34.29 44.70L33.39 42.65L33.30 42.56Q32.67 41.25 32.40 40.45L32.43 40.47L32.52 40.56Q31.82 40.17 30.60 39.75L30.43 39.58L30.47 39.61Q30.42 38.99 30.04 37.62L29.91 37.50L29.97 37.56Q27.84 37.06 25.56 36.87L25.41 36.72L25.54 36.85Q30.12 32.19 31.65 23.93L31.62 23.90L31.93 21.13L31.78 20.98Q31.82 19.31 30.60 18.62L30.56 18.57L30.48 18.54L30.63 18.69Q30.46 18.48 30.38 18.48L30.48 18.57L30.34 18.43Q30.13 17.62 29.03 17.01Z"/><path fill="#444" d="M48.92 32.22L39.67 22.21L39.70 22.24Q40.49 25.88 40.49 29.61L40.47 29.60L40.38 29.50Q40.35 35.45 38.29 41.01L38.45 41.16L38.30 41.01Q37.26 41.31 35.01 42.07L35.11 42.17L35.03 42.09Q37.86 36.31 37.86 29.61L37.88 29.63L37.93 29.68Q37.91 21.02 33.42 13.60L33.44 13.62L33.39 13.57Q33.79 13.70 34.48 14.12L34.52 14.17L34.45 14.10Q46.70 25.47 54.55 34.72L54.52 34.70L54.43 34.61Q54.23 32.27 54.23 29.84L54.13 29.74L54.20 29.81Q54.25 22.62 56.76 16.42L56.57 16.23L56.66 16.32Q58.97 15.77 60.57 15.08L60.63 15.15L60.53 15.05Q57.23 21.23 56.93 28.39L56.92 28.38L57.01 28.47Q56.75 35.86 59.72 42.03L59.63 41.94L59.68 41.99Q58.98 41.79 58.57 41.60L58.62 41.65L58.61 41.65Q54.10 37.74 48.88 32.18L48.90 32.20ZM62.28 45.16L62.27 45.15L62.17 45.05Q62.75 45.32 63.16 45.51L63.13 45.48L64.03 45.88L64.03 45.88Q58.79 38.86 58.79 29.49L58.88 29.58L58.78 29.48Q58.86 22.33 62.18 16.09L62.12 16.03L62.17 16.08Q61.56 16.34 60.15 16.95L60.12 16.92L60.05 16.86Q60.56 16.14 61.39 14.58L61.27 14.45L61.36 14.54Q58.79 15.33 56.36 15.90L56.30 15.85L56.39 15.94Q53.85 22.49 53.85 29.91L53.68 29.74L53.78 29.85Q53.77 31.70 53.96 33.68L53.97 33.69L54.05 33.77Q49.31 28.01 44.55 23.40L44.51 23.36L34.39 13.62L34.37 13.60Q33.80 13.29 32.58 12.72L32.60 12.74L32.72 12.86Q37.65 20.64 37.65 29.74L37.59 29.69L37.57 29.66Q37.63 36.84 34.55 42.86L34.49 42.80L34.43 42.74Q34.76 42.65 36.40 42.04L36.33 41.97L36.51 42.15Q36.13 42.89 35.30 44.37L35.24 44.32L35.23 44.31Q36.64 43.85 40.11 43.05L40.05 43.00L40.02 42.97Q42.46 36.95 42.46 29.76L42.43 29.73L42.47 29.76Q42.38 27.58 42.15 25.45L42.18 25.48L42.15 25.45Q53.73 38.36 62.34 45.22Z"/></svg>