<svg xmlns="http://www.w3.org/2000/svg" width="150" height="50" viewBox="0,0,150,50"><path fill="#222" d="M19.00 19.35L18.98 19.33L18.98 19.34Q19.92 23.66 20.07 27.24L19.95 27.11L19.97 27.14Q21.18 27.32 22.25 27.32L22.13 27.20L24.37 27.24L24.34 27.21Q25.51 27.30 26.38 25.90L26.36 25.87L26.28 25.79Q27.06 24.68 27.18 23.50L27.05 23.36L27.06 23.38Q27.56 20.49 23.33 19.99L23.25 19.91L23.29 19.95Q21.71 20.00 19.08 19.43ZM20.03 29.94L20.05 29.96L20.13 30.04Q19.91 36.10 18.77 40.51L18.86 40.60L18.89 40.64Q17.33 40.95 15.01 42.01L15.14 42.14L14.96 41.96Q17.35 35.33 17.09 28.06L17.20 28.17L17.22 28.19Q16.93 20.82 14.15 14.39L14.13 14.37L14.00 14.24Q18.22 17.09 24.46 17.09L24.43 17.05L24.44 17.07Q30.58 17.15 30.73 20.61L30.67 20.55L30.75 20.63Q30.82 23.07 29.83 25.73L29.85 25.74L29.82 25.72Q29.26 26.68 28.30 27.89L28.39 27.98L28.28 27.87Q27.00 29.52 24.45 29.79L24.45 29.79L24.58 29.92Q22.33 29.96 20.09 30.00ZM26.13 32.16L26.23 32.26L26.27 32.29Q30.30 32.40 31.55 27.60L31.62 27.67L31.56 27.61Q32.52 23.96 32.37 21.95L32.33 21.91L32.34 21.92Q32.31 20.48 31.55 19.49L31.51 19.45L31.52 19.46Q31.23 19.17 30.74 18.94L30.60 18.81L30.75 18.96Q30.61 18.67 30.00 17.91L30.03 17.93L30.09 17.99Q28.43 16.56 24.47 16.56L24.45 16.54L24.50 16.59Q17.68 16.66 13.45 13.50L13.40 13.45L13.32 13.37Q16.49 20.46 16.76 27.92L16.76 27.92L16.77 27.93Q17.23 35.78 14.57 42.86L14.57 42.87L14.42 42.72Q15.46 42.04 16.45 41.66L16.51 41.72L16.21 42.95L16.14 42.87Q16.01 43.51 15.75 44.08L15.64 43.97L15.75 44.09Q18.16 43.03 21.05 42.49L20.95 42.40L21.03 42.47Q21.89 36.97 21.96 32.25L21.99 32.28L21.99 32.28Q23.07 32.18 24.06 32.18L24.03 32.15L24.00 32.11Q25.35 32.13 26.15 32.17ZM25.23 22.27L25.24 22.28L25.13 22.17Q25.62 22.17 26.61 22.40L26.63 22.41L26.66 22.45Q26.77 22.67 26.81 22.98L26.95 23.12L26.83 22.99Q26.86 23.25 26.78 23.52L26.84 23.58L26.81 23.55Q26.61 24.68 25.89 25.55L26.05 25.72L26.05 25.71Q25.40 26.70 24.37 26.89L24.29 26.81L24.36 26.88Q23.69 26.93 22.05 26.93L21.98 26.86L21.90 26.79Q21.88 24.52 21.65 22.16L21.74 22.24L23.38 22.21L23.46 22.29Q24.28 22.27 25.15 22.20Z"/><path fill="#222" d="M74.35 39.94L74.26 39.86L72.26 39.80L72.38 39.92Q71.29 39.79 70.34 39.90L70.46 40.02L70.43 39.99Q71.05 33.83 71.05 29.84L71.00 29.78L70.99 29.78Q67.07 23.15 59.42 14.47L59.32 14.38L59.38 14.44Q61.17 15.42 64.52 16.22L64.57 16.28L64.57 16.28Q69.56 21.80 72.57 27.02L72.49 26.94L72.57 27.02Q75.51 21.39 79.89 16.37L79.87 16.35L79.95 16.42Q82.45 16.11 84.96 15.31L84.81 15.16L84.81 15.15Q78.79 21.28 73.91 29.69L73.89 29.67L73.96 29.74Q73.99 36.82 74.30 39.90ZM83.26 17.18L86.09 14.46L85.96 14.33Q82.97 15.60 79.85 16.06L79.77 15.98L79.85 16.06Q75.70 20.85 72.88 25.96L72.83 25.90L72.86 25.93Q70.66 22.21 67.46 18.33L67.49 18.36L67.42 18.29Q67.30 18.44 66.81 18.36L66.76 18.31L66.66 18.21Q66.02 17.46 64.49 15.78L64.55 15.83L64.42 15.71Q61.02 14.93 58.05 13.37L58.08 13.40L58.12 13.44Q65.91 22.00 70.67 29.91L70.72 29.96L70.57 29.81Q70.62 36.29 70.01 40.44L69.85 40.28L69.95 40.39Q70.59 40.27 72.04 40.15L72.10 40.21L72.02 41.16L72.02 41.16Q72.19 41.78 72.11 42.32L72.05 42.26L72.08 42.29Q75.66 42.33 77.41 42.52L77.37 42.47L77.39 42.50Q76.06 37.74 75.95 31.76L75.92 31.73L75.90 31.72Q80.43 23.42 86.98 16.07L86.82 15.91L83.27 17.20Z"/><path fill="#222" d="M115.65 19.16L115.61 19.12L115.75 19.26Q116.87 23.74 117.03 26.93L117.02 26.93L116.87 26.77Q117.38 26.84 121.76 26.95L121.82 27.01L121.73 26.92Q124.45 27.13 124.83 23.67L124.85 23.68L124.73 23.56Q124.92 21.81 124.01 20.90L124.03 20.92L123.98 20.87Q122.74 20.00 120.76 19.85L120.71 19.81L120.76 19.86Q117.58 19.69 115.72 19.23ZM117.00 28.74L117.02 28.76L116.98 28.72Q117.33 34.89 115.54 40.83L115.43 40.71L115.55 40.84Q114.12 40.97 111.53 42.00L111.68 42.14L111.68 42.15Q114.37 35.51 114.03 28.05L114.06 28.08L114.11 28.13Q113.83 20.81 110.52 14.30L110.48 14.26L110.44 14.22Q115.30 17.02 122.26 17.02L122.38 17.13L122.39 17.14Q128.02 17.14 128.29 20.68L128.20 20.60L128.27 20.67Q128.25 21.18 128.18 21.79L128.29 21.91L128.24 23.08L128.09 22.92Q127.31 26.90 125.17 28.61L125.18 28.61L125.16 28.59Q124.37 29.29 123.34 29.29L123.39 29.34L120.70 29.24L120.79 29.33Q126.29 36.47 130.82 41.04L130.93 41.14L130.97 41.18Q128.61 40.27 125.68 39.92L125.81 40.06L125.84 40.09Q122.01 36.07 117.10 28.83ZM125.63 40.38L125.70 40.44L125.86 40.30L127.22 41.66L127.12 41.56Q127.83 42.24 128.48 42.84L128.51 42.88L128.41 42.77Q131.88 43.31 135.46 45.17L135.59 45.31L135.54 45.25Q128.63 38.54 123.22 31.61L123.11 31.49L125.05 31.68L124.95 31.58Q128.10 31.65 129.43 27.12L129.41 27.10L129.41 27.10Q130.13 24.92 130.13 22.22L129.97 22.07L130.12 22.21Q129.99 19.79 128.27 19.15L128.37 19.25L128.42 19.29Q128.20 18.81 127.63 18.12L127.60 18.09L127.68 18.18Q126.02 16.74 122.36 16.66L122.36 16.66L122.32 16.62Q114.50 16.53 109.82 13.52L109.76 13.47L109.66 13.37Q113.55 20.34 113.89 28.03L113.85 27.99L113.87 28.00Q114.27 36.01 111.14 42.87L111.02 42.75L111.13 42.85Q112.41 42.30 113.21 42.00L113.11 41.90L112.08 44.15L112.13 44.20Q114.95 43.25 117.62 42.75L117.46 42.60L117.50 42.64Q118.80 37.54 118.99 32.33L118.95 32.28L119.02 32.35Q122.38 37.16 125.54 40.28ZM124.38 22.45L124.46 22.53L124.48 22.55Q124.51 22.81 124.51 23.15L124.47 23.11L124.47 23.68L124.37 23.58Q124.44 24.76 123.76 25.71L123.74 25.69L123.74 25.70Q123.10 26.42 122.19 26.61L122.22 26.65L122.16 26.59Q121.96 26.65 120.36 26.69L120.31 26.64L120.43 26.76Q119.86 26.80 119.03 26.69L118.98 26.64L118.98 26.64Q118.87 25.12 118.53 22.08L118.56 22.11L118.50 22.05Q119.84 22.17 120.53 22.17L120.53 22.17L120.68 22.33Q122.40 22.22 124.35 22.42Z"/><path fill="#333" d="M38.22 14.21L38.23 14.22L38.29 14.28Q42.07 16.80 46.82 17.03L46.80 17.01L46.84 17.04Q51.49 17.24 55.75 15.49L55.83 15.57L55.74 15.47Q55.43 15.97 54.67 18.75L54.82 18.90L54.71 18.78Q52.10 19.94 49.13 20.09L49.09 20.05L49.15 20.11Q46.16 20.25 43.27 19.52L43.19 19.44L43.20 19.46Q43.77 22.96 43.96 26.61L44.07 26.72L44.05 26.71Q46.01 26.87 47.61 26.83L47.58 26.81L47.74 26.96Q48.80 26.81 51.20 26.69L51.24 26.74L51.35 26.85Q51.21 27.39 51.21 28.08L51.26 28.13L51.18 29.38L51.24 29.44Q48.81 29.41 44.01 29.48L44.12 29.59L44.00 29.47Q43.99 33.57 43.42 37.57L43.44 37.59L43.52 37.67Q46.10 36.98 48.84 37.09L48.91 37.16L48.78 37.03Q51.49 37.11 54.08 37.95L54.10 37.97L54.20 38.07Q54.17 38.76 54.43 39.52L54.51 39.60L54.96 41.12L54.98 41.13Q51.74 39.80 48.31 39.80L48.28 39.76L48.33 39.81Q43.46 39.82 39.20 42.07L39.11 41.97L39.21 42.07Q41.42 35.15 41.15 28.03L41.18 28.06L41.28 28.16Q41.04 21.03 38.38 14.37ZM38.76 42.84L38.69 42.77L38.76 42.85Q40.04 42.14 40.80 41.80L40.80 41.80L40.73 41.73Q40.45 42.41 39.88 43.93L39.97 44.02L39.98 44.02Q44.54 42.08 49.60 42.35L49.58 42.33L49.60 42.34Q54.75 42.62 58.75 45.32L58.68 45.25L58.79 45.36Q57.47 42.67 56.78 40.73L56.91 40.85L56.94 40.89Q55.85 40.18 54.86 39.84L54.85 39.83L54.78 39.76Q54.48 38.47 54.33 37.67L54.26 37.60L54.37 37.71Q51.18 36.61 48.02 36.61L48.18 36.77L48.11 36.70Q47.03 36.77 45.89 36.88L45.91 36.90L45.86 36.85Q45.92 35.54 45.96 34.32L46.05 34.42L46.12 31.89L46.04 31.81Q47.84 31.71 49.63 31.75L49.71 31.83L49.68 31.80Q51.54 31.87 53.33 32.03L53.36 32.05L53.37 32.06Q53.10 30.92 53.10 29.97L53.15 30.01L53.11 28.08L52.31 28.15L52.46 28.30Q52.05 28.38 51.60 28.38L51.44 28.23L51.53 28.32Q51.59 27.69 51.74 26.40L51.71 26.37L51.65 26.30Q50.10 26.58 48.92 26.62L48.87 26.57L48.95 26.65Q47.90 26.56 46.08 26.48L46.12 26.53L46.19 26.59Q46.07 25.14 45.88 22.33L45.85 22.29L45.76 22.21Q46.97 22.51 47.96 22.51L47.97 22.51L47.86 22.40Q52.69 22.51 56.38 20.61L56.38 20.61L56.26 20.48Q56.79 18.08 57.66 15.88L57.80 16.01L57.79 16.00Q56.38 16.76 55.54 17.11L55.59 17.15L55.62 17.19Q55.78 16.27 56.23 14.71L56.32 14.80L56.35 14.83Q51.75 17.00 46.87 16.70L46.81 16.63L46.71 16.53Q41.48 16.29 37.63 13.43L37.67 13.47L37.58 13.38Q40.65 20.52 40.95 28.13L40.79 27.98L40.82 28.01Q41.30 36.09 38.78 42.87Z"/><path fill="#333" d="M98.87 39.80L98.89 39.83L97.03 39.91L97.05 39.93Q96.06 39.89 95.11 40.00L95.15 40.04L95.01 39.90Q95.66 33.77 95.66 29.77L95.73 29.85L95.55 29.67Q91.64 23.06 83.99 14.38L83.96 14.35L84.08 14.47Q85.76 15.35 89.11 16.15L89.12 16.16L89.22 16.26Q94.16 21.74 97.17 26.95L97.32 27.10L97.16 26.94Q100.33 21.55 104.71 16.52L104.70 16.51L104.59 16.40Q106.98 15.97 109.49 15.17L109.48 15.16L109.52 15.20Q103.41 21.24 98.54 29.65L98.67 29.79L98.62 29.73Q98.56 36.72 98.87 39.80ZM107.92 17.18L110.79 14.49L110.78 14.48Q107.60 15.56 104.48 16.02L104.58 16.13L104.45 15.99Q100.20 20.69 97.39 25.80L97.46 25.87L97.50 25.91Q95.42 22.31 92.23 18.43L92.21 18.41L92.11 18.31Q91.81 18.28 91.32 18.20L91.32 18.20L91.33 18.22Q90.69 17.46 89.16 15.78L89.16 15.78L89.26 15.87Q85.86 15.10 82.89 13.54L82.72 13.37L82.90 13.55Q90.55 21.97 95.31 29.89L95.22 29.80L95.35 29.93Q95.18 36.19 94.57 40.34L94.58 40.35L94.54 40.31Q95.43 40.44 96.88 40.32L96.83 40.28L96.88 41.35L96.77 41.24Q96.76 41.69 96.69 42.23L96.69 42.23L96.71 42.25Q100.16 42.16 101.91 42.35L102.05 42.48L102.06 42.50Q100.81 37.82 100.70 31.85L100.63 31.78L100.56 31.71Q105.02 23.34 111.57 15.99L111.59 16.02L107.92 17.17Z"/></svg>