<svg xmlns="http://www.w3.org/2000/svg" width="150" height="50" viewBox="0,0,150,50"><path fill="#222" d="M50.97 41.34L50.94 41.30L47.96 41.17L47.87 41.09Q45.58 41.08 44.78 40.97L44.62 40.80L44.71 40.90Q42.96 40.63 41.78 39.75L41.77 39.74L41.74 39.72Q40.47 38.33 40.24 34.98L40.13 34.87L40.17 34.91Q40.05 34.33 39.97 33.11L40.03 33.17L39.96 33.10Q40.04 32.76 39.96 31.65L39.90 31.60L39.93 31.62Q40.03 30.92 40.06 30.20L40.01 30.14L40.06 30.19Q40.17 28.18 41.20 27.41L41.14 27.35L41.11 27.32Q43.16 26.29 48.00 26.06L47.94 26.01L47.91 25.97Q50.01 25.94 50.80 25.94L50.78 25.92L50.71 25.85Q52.20 25.85 53.57 26.15L53.59 26.18L53.54 26.12Q53.13 27.54 52.60 29.37L52.62 29.39L52.53 29.30Q51.95 29.30 51.46 29.26L51.60 29.40L51.59 29.39Q51.46 29.34 50.93 29.22L50.84 29.13L49.94 28.95L49.91 28.92Q48.82 28.64 48.21 28.68L48.30 28.76L48.35 28.81Q43.49 28.75 42.89 31.57L42.87 31.56L42.85 31.54Q42.62 32.71 42.69 33.66L42.81 33.78L42.67 33.64Q42.86 36.27 44.10 37.35L44.17 37.42L44.20 37.45Q45.34 38.44 47.93 38.48L48.06 38.61L47.92 38.47Q49.40 38.51 50.13 38.20L50.21 38.28L51.23 37.78L51.15 37.71Q51.69 37.49 52.26 37.41L52.33 37.48L52.23 37.37Q52.60 39.31 52.99 40.61L52.85 40.47L52.86 40.48Q52.78 41.01 50.99 41.35ZM54.11 44.17L54.15 44.21L54.06 44.12Q54.50 44.21 55.33 44.29L55.42 44.37L55.42 44.37Q55.95 44.29 56.29 43.72L56.25 43.68L56.43 43.86Q55.05 41.61 54.56 39.51L54.63 39.59L54.71 39.67Q54.25 39.51 53.79 39.51L53.75 39.46L53.87 39.58Q53.39 39.52 53.01 39.71L53.00 39.70L53.02 39.73Q52.72 38.51 52.57 37.10L52.56 37.10L52.62 37.15Q51.85 36.92 50.63 37.49L50.71 37.57L50.76 37.62Q49.44 38.09 48.95 38.09L49.01 38.15L49.01 38.16Q48.53 38.17 47.92 38.13L47.87 38.08L47.95 38.16Q46.99 38.07 45.01 37.50L45.03 37.52L45.01 37.50Q44.66 36.78 44.70 35.63L44.69 35.62L44.80 35.74Q45.01 31.52 49.96 30.99L49.83 30.87L49.79 30.82Q50.49 30.84 51.86 31.18L51.88 31.20L51.88 31.21Q53.21 31.50 53.93 31.46L53.96 31.49L54.00 31.53Q54.43 29.30 55.12 27.47L55.07 27.42L55.21 27.56Q54.74 27.37 54.36 27.29L54.35 27.28L53.52 27.13L53.50 27.12Q53.74 26.66 54.12 25.79L54.19 25.86L54.11 25.78Q52.57 25.42 51.01 25.42L51.07 25.48L51.08 25.49Q48.64 25.44 44.26 25.83L44.22 25.79L44.31 25.88Q42.41 26.07 40.84 27.06L40.85 27.06L40.87 27.08Q39.65 28.04 39.65 29.94L39.61 29.90L39.67 29.95Q39.50 30.21 39.62 31.43L39.73 31.54L39.75 31.56Q39.78 32.54 39.74 33.15L39.73 33.13L39.82 33.22Q39.80 35.07 40.52 38.80L40.54 38.82L40.56 38.84Q40.82 39.56 41.32 40.05L41.38 40.11L41.54 40.27L41.63 40.33L41.73 40.43Q42.75 42.55 46.67 43.16L46.61 43.10L46.65 43.15Q49.83 43.65 52.49 43.92L52.32 43.75L52.50 43.93Q53.19 43.89 54.10 44.16Z"/><path fill="#333" d="M72.63 40.04L72.72 40.13L70.63 40.32L70.53 40.22Q70.14 40.29 69.17 40.35L69.17 40.35L69.24 40.42Q68.17 40.38 67.68 40.38L67.67 40.37L67.66 40.36Q65.99 40.33 64.96 39.49L65.04 39.56L65.10 39.62Q65.92 38.55 67.56 36.42L67.51 36.37L67.43 36.29Q68.73 37.89 70.94 37.66L70.89 37.61L70.87 37.59Q71.93 37.63 72.58 36.98L72.51 36.91L72.60 37.00Q73.20 36.31 73.09 35.43L72.99 35.34L73.06 35.40Q72.99 30.84 73.07 26.28L73.11 26.31L73.02 26.23Q72.97 21.53 73.50 16.92L73.50 16.92L73.51 16.93Q75.51 16.80 77.64 15.77L77.58 15.71L77.73 15.87Q75.87 22.60 75.87 29.83L75.75 29.72L75.78 29.75Q75.72 33.23 76.17 36.73L76.28 36.83L76.24 36.79Q76.32 37.14 76.32 37.48L76.34 37.50L76.27 37.43Q76.39 38.13 76.16 38.66L76.04 38.53L76.03 38.53Q75.52 39.84 72.70 40.11ZM77.59 42.90L77.65 42.97L77.94 42.91L78.33 42.89L78.57 42.74L78.53 42.70Q78.77 42.37 78.85 42.26L78.99 42.40L78.91 42.32Q79.11 41.15 78.84 40.16L78.77 40.09L78.88 40.20Q77.58 34.45 77.85 28.09L77.77 28.01L77.73 27.96Q78.01 21.89 79.80 15.99L79.74 15.93L79.85 16.04Q78.97 16.68 77.71 17.41L77.68 17.38L77.68 17.37Q77.92 16.66 78.34 15.14L78.18 14.98L78.27 15.07Q75.68 16.33 73.02 16.63L73.00 16.62L73.01 16.62Q72.73 21.11 72.66 26.05L72.69 26.08L72.57 25.97Q72.65 32.02 72.72 35.45L72.70 35.42L72.57 35.30Q72.63 37.07 70.88 37.22L71.05 37.40L70.87 37.22Q69.27 37.44 67.60 35.80L67.54 35.75L67.55 35.76Q65.54 38.32 64.59 39.88L64.65 39.94L64.61 39.90Q65.22 40.51 66.25 40.74L66.15 40.64L66.24 40.73Q66.21 40.93 65.95 41.16L65.86 41.07L65.90 41.11Q67.32 42.03 69.29 42.30L69.22 42.23L69.22 42.23Q69.66 42.32 72.95 42.62L73.06 42.73L73.04 42.71Q76.23 42.91 77.60 42.91Z"/><path fill="#444" d="M112.31 39.03L112.30 39.02L112.17 38.89Q114.17 36.62 118.93 29.35L118.92 29.34L118.83 29.25Q122.87 23.05 125.73 19.78L125.76 19.81L125.69 19.74Q123.72 20.17 121.62 20.17L121.67 20.21L121.49 20.03Q116.31 20.11 112.31 18.32L112.26 18.27L112.34 18.35Q111.60 16.35 110.91 14.79L111.00 14.87L111.04 14.91Q115.57 17.05 121.25 17.16L121.15 17.06L121.13 17.05Q126.37 17.22 131.54 15.32L131.56 15.34L131.51 15.28Q131.13 16.12 130.82 16.92L130.78 16.88L130.29 18.56L130.19 18.45Q127.22 22.19 123.23 28.01L123.19 27.98L119.83 32.76L119.86 32.80Q118.17 35.22 116.34 37.50L116.39 37.55L116.28 37.44Q119.59 36.83 122.90 36.90L123.05 37.05L123.01 37.01Q126.42 37.19 129.58 38.10L129.58 38.10L129.97 39.60L129.97 39.60Q130.32 40.51 130.66 41.35L130.58 41.27L130.47 41.16Q125.89 39.67 120.75 39.86L120.83 39.93L120.69 39.79Q115.70 40.13 111.21 42.15L111.09 42.03L111.25 42.19Q111.48 40.97 112.20 38.92ZM110.45 42.69L110.54 42.78L110.52 42.76Q111.74 42.15 112.54 41.89L112.47 41.81L112.62 41.97Q112.21 42.58 111.52 44.10L111.57 44.15L111.54 44.12Q117.36 42.10 123.34 42.33L123.26 42.25L123.38 42.37Q129.66 42.56 134.68 45.33L134.65 45.30L134.65 45.30Q133.20 42.86 132.40 40.69L132.45 40.74L132.40 40.69Q131.95 40.51 130.43 39.94L130.39 39.90L130.40 39.91Q130.14 39.07 129.72 37.59L129.73 37.60L129.89 37.76Q125.59 36.43 120.48 36.62L120.56 36.69L120.58 36.71Q122.73 33.99 126.27 28.43L126.13 28.29L126.25 28.41Q129.83 22.62 131.73 20.07L131.83 20.17L131.84 20.18Q132.32 18.76 133.35 16.05L133.35 16.06L133.31 16.02Q132.57 16.30 131.12 16.91L131.08 16.88L131.19 16.98Q131.58 16.23 132.31 14.71L132.33 14.74L132.25 14.66Q126.84 16.71 121.13 16.63L121.21 16.70L121.16 16.66Q115.16 16.53 110.22 14.01L110.37 14.17L110.36 14.16Q111.50 16.51 112.22 18.76L112.17 18.71L112.14 18.68Q113.15 19.12 113.95 19.35L114.02 19.42L114.13 19.53Q114.26 20.07 114.52 21.52L114.61 21.60L114.64 21.63Q118.39 22.72 123.26 22.53L123.19 22.46L123.28 22.54Q120.70 25.57 117.39 30.55L117.55 30.71L112.00 39.03L111.96 38.98Q111.52 40.18 110.50 42.73Z"/><path fill="#333" d="M100.03 30.87L99.99 30.84L99.97 30.82Q100.13 29.45 99.31 28.54L99.40 28.62L99.33 28.55Q98.45 27.58 97.00 27.62L97.03 27.64L97.13 27.74Q94.76 27.78 93.93 29.91L93.97 29.95L93.96 29.95Q93.61 30.66 93.58 31.35L93.51 31.28L93.66 31.43Q93.36 36.20 92.45 40.54L92.36 40.45L92.48 40.57Q90.77 41.07 88.90 42.06L88.99 42.14L88.98 42.13Q91.22 35.13 90.96 27.82L90.87 27.73L90.84 27.70Q90.58 20.36 88.03 13.55L87.99 13.50L88.15 13.66Q89.92 14.98 91.94 15.66L91.94 15.66L91.92 15.65Q93.36 21.43 93.55 27.29L93.45 27.19L93.54 27.28Q94.88 25.15 97.58 25.23L97.60 25.25L97.61 25.26Q102.58 25.24 102.70 30.61L102.87 30.79L102.72 30.63Q102.86 36.33 104.23 40.98L104.39 41.14L104.27 41.01Q102.39 40.16 100.64 39.97L100.64 39.97L100.72 40.06Q100.15 36.75 100.04 30.88ZM100.34 40.32L100.44 40.43L100.35 40.33Q101.36 40.43 102.46 40.69L102.56 40.79L102.48 40.71Q102.60 40.94 103.13 42.92L103.08 42.87L103.12 42.91Q106.05 43.83 108.07 45.27L108.19 45.39L108.03 45.23Q105.29 39.41 104.76 33.09L104.91 33.24L104.89 33.22Q104.46 29.40 103.05 27.84L103.18 27.98L103.20 28.00Q103.12 27.83 102.47 27.38L102.43 27.34L102.46 27.37Q102.19 26.82 101.54 26.06L101.59 26.11L101.58 26.02L101.61 26.06Q100.66 25.11 97.54 24.84L97.63 24.93L97.69 24.99Q96.87 24.90 95.46 25.24L95.42 25.20L95.52 25.30Q95.23 20.36 94.89 17.85L94.84 17.81L94.96 17.93Q94.15 17.76 92.66 17.45L92.61 17.40L92.62 17.41Q92.45 16.67 92.18 15.19L92.18 15.19L92.21 15.21Q89.24 14.22 87.37 12.66L87.43 12.71L87.45 12.73Q90.42 19.89 90.69 27.70L90.52 27.53L90.56 27.57Q90.86 35.37 88.31 42.72L88.41 42.82L88.32 42.73Q89.21 42.10 90.36 41.61L90.42 41.67L89.62 43.88L89.73 43.98Q92.92 42.72 94.90 42.53L94.76 42.40L94.80 42.43Q95.38 37.04 95.57 33.08L95.65 33.15L95.62 33.13Q95.61 31.17 97.55 30.07L97.58 30.10L97.65 30.17Q98.05 29.81 98.58 29.85L98.72 29.99L98.74 30.00Q98.77 29.88 99.11 29.92L99.15 29.95L99.58 30.04L99.65 30.11Q99.52 30.37 99.64 30.82L99.73 30.92L99.72 30.91Q99.96 37.01 100.45 40.43Z"/><path fill="#222" d="M20.76 40.00L20.79 40.02L20.72 39.95Q16.59 39.44 14.76 38.00L14.64 37.87L14.61 37.84Q12.78 36.39 12.36 33.38L12.52 33.54L12.41 33.43Q12.43 33.11 12.09 28.35L12.14 28.40L12.09 28.35Q12.18 27.23 12.10 25.97L12.00 25.87L11.98 25.84Q11.93 20.93 14.14 19.18L14.11 19.15L14.15 19.19Q16.73 17.00 24.49 16.32L24.44 16.27L24.44 16.27Q25.87 16.22 27.51 16.25L27.54 16.28L27.40 16.14Q27.46 16.21 30.43 16.21L30.45 16.22L30.45 16.23Q31.26 16.20 32.98 16.35L32.96 16.34L33.07 16.44Q32.58 17.40 31.55 20.48L31.56 20.49L31.55 20.48Q29.37 19.17 26.36 19.17L26.43 19.24L26.31 19.13Q25.64 19.21 24.84 19.29L24.89 19.35L24.73 19.18Q19.70 19.71 17.19 21.69L17.12 21.62L17.14 21.65Q15.23 23.35 15.08 26.70L15.08 26.70L15.11 26.73Q14.93 27.19 14.96 28.45L15.00 28.49L15.04 28.53Q15.03 33.24 17.43 35.33L17.58 35.48L17.47 35.37Q19.72 37.40 24.71 37.70L24.64 37.63L24.70 37.69Q27.86 37.88 30.87 36.09L30.72 35.95L30.80 36.03Q31.44 38.80 32.05 40.17L31.95 40.07L32.10 40.22Q30.02 40.50 28.38 40.46L28.35 40.43L28.36 40.44Q23.79 40.29 20.67 39.91ZM35.88 43.73L35.75 43.60L35.84 43.69Q33.96 40.60 33.28 38.01L33.25 37.98L33.28 38.01Q32.97 38.39 31.98 38.77L31.93 38.72L31.86 38.64Q31.56 37.89 31.37 37.06L31.39 37.07L30.92 35.27L30.97 35.32Q27.77 37.45 24.65 37.33L24.54 37.23L24.58 37.27Q20.25 37.01 17.93 35.26L17.95 35.28L18.11 35.44Q16.93 33.57 17.00 30.64L17.05 30.69L17.00 30.64Q17.14 26.14 19.62 24.01L19.57 23.96L19.55 23.94Q21.66 22.01 26.34 21.40L26.31 21.37L26.47 21.54Q27.22 21.36 27.94 21.36L28.00 21.42L27.83 21.25Q30.77 21.41 32.86 22.94L32.82 22.90L32.76 22.84Q33.30 20.74 34.52 17.51L34.60 17.59L34.58 17.57Q34.32 17.58 33.77 17.52L33.60 17.35L33.60 17.35Q33.14 17.39 32.88 17.39L32.82 17.34L32.83 17.34Q33.07 16.87 33.53 15.88L33.61 15.96L33.60 15.95Q33.37 15.94 30.87 15.87L30.81 15.80L30.83 15.83Q28.25 15.66 27.60 15.70L27.59 15.68L27.74 15.83Q17.10 16.04 13.63 18.63L13.76 18.75L13.70 18.69Q11.57 20.41 11.57 24.33L11.75 24.51L11.70 24.47Q11.64 25.51 11.75 28.21L11.70 28.15L11.80 28.26Q11.94 31.82 12.17 33.53L12.20 33.56L12.15 33.52Q12.56 36.67 14.16 38.19L14.19 38.23L14.02 38.05Q14.56 38.78 15.81 39.92L15.94 40.04L15.86 39.97Q19.15 41.78 24.41 42.54L24.35 42.48L24.33 42.46Q30.84 43.49 35.82 43.68Z"/></svg>