<svg xmlns="http://www.w3.org/2000/svg" width="150" height="50" viewBox="0,0,150,50"><path fill="#333" d="M119.47 28.83L119.48 28.83L119.57 28.93Q117.07 28.98 116.05 30.16L115.91 30.03L115.93 30.05Q114.90 31.23 114.90 33.85L114.86 33.81L114.86 33.81Q114.92 38.97 119.53 38.78L119.51 38.76L119.56 38.82Q121.60 38.95 122.95 37.39L123.00 37.44L123.06 37.50Q124.40 35.93 124.18 33.87L124.13 33.83L124.12 33.82Q124.11 31.26 123.23 30.23L123.21 30.20L123.20 30.20Q121.74 28.89 119.53 28.89ZM124.61 38.73L124.53 38.65L124.55 38.67Q123.36 41.13 118.67 41.13L118.67 41.12L117.33 41.23L117.20 41.10Q115.01 41.27 113.91 40.13L113.85 40.07L113.85 40.07Q112.80 39.02 112.53 36.62L112.48 36.57L112.48 36.57Q112.31 35.07 112.23 33.28L112.29 33.34L112.24 33.29Q112.22 32.31 112.07 30.37L112.05 30.35L112.11 30.42Q112.05 26.16 117.23 26.16L117.15 26.08L118.81 26.18L118.71 26.08Q121.63 26.11 123.72 27.40L123.70 27.38L123.76 27.44Q124.46 27.84 124.96 28.53L124.95 28.52L125.06 28.63Q125.25 27.76 125.78 26.12L125.88 26.21L125.79 26.12Q127.00 25.92 129.32 25.32L129.27 25.27L129.36 25.36Q126.78 29.59 126.78 34.85L126.69 34.75L126.73 34.79Q126.67 38.46 128.04 41.55L128.14 41.65L128.10 41.60Q127.06 41.40 125.15 41.17L125.05 41.07L125.06 41.08Q124.97 40.34 124.67 38.78ZM127.95 43.97L127.93 43.95L130.11 44.49L130.19 44.57Q131.24 44.71 132.23 45.17L132.39 45.33L132.25 45.19Q128.71 40.96 128.71 34.87L128.72 34.88L128.70 34.86Q128.76 30.39 130.89 26.58L130.84 26.53L130.88 26.57Q130.18 26.75 128.85 27.13L128.88 27.16L128.85 27.13Q129.09 26.26 129.96 24.74L129.97 24.74L129.96 24.73Q129.37 24.91 125.37 25.74L125.47 25.84L124.93 27.70L124.81 27.58Q123.19 26.00 118.78 25.77L118.68 25.68L118.59 25.59Q117.49 25.63 115.25 25.78L115.38 25.92L115.26 25.79Q111.62 26.19 111.73 30.22L111.69 30.19L111.78 30.27Q111.95 33.64 112.52 38.09L112.45 38.03L112.46 38.45L112.55 38.55Q112.50 39.22 113.30 40.32L113.47 40.49L113.46 40.48Q113.58 40.60 113.77 40.72L113.74 40.68L113.75 40.70Q113.91 41.09 114.29 41.66L114.33 41.69L114.29 41.65Q115.83 43.30 119.22 43.49L119.25 43.53L119.17 43.45Q120.91 43.66 121.06 43.66L121.02 43.63L122.55 43.60L122.50 43.54Q125.72 43.57 126.94 42.01L127.00 42.07L126.95 42.02Q127.29 42.63 127.90 43.92ZM121.27 31.08L121.37 31.19L121.44 31.26Q122.71 31.19 123.54 31.64L123.47 31.57L123.62 31.72Q123.92 32.51 123.92 33.96L123.76 33.80L123.74 33.78Q124.06 35.81 122.78 37.24L122.80 37.26L122.80 37.26Q121.38 38.54 119.48 38.35L119.61 38.48L119.62 38.50Q118.13 38.45 117.10 38.03L117.03 37.96L117.14 38.07Q116.85 37.13 116.85 35.91L116.87 35.94L116.82 35.89Q117.11 32.52 119.73 31.57L119.69 31.52L119.63 31.46Q120.65 31.26 121.45 31.26Z"/><path fill="#222" d="M20.63 39.87L20.66 39.89L20.60 39.84Q16.54 39.39 14.72 37.95L14.67 37.91L14.66 37.89Q12.75 36.36 12.33 33.35L12.51 33.54L12.36 33.39Q12.36 33.04 12.02 28.28L12.09 28.35L11.97 28.24Q12.09 27.14 12.01 25.88L11.99 25.86L11.97 25.83Q11.90 20.89 14.11 19.14L14.13 19.16L14.15 19.18Q16.79 17.06 24.55 16.38L24.48 16.30L24.42 16.24Q25.83 16.17 27.47 16.21L27.40 16.14L27.49 16.23Q27.52 16.26 30.49 16.26L30.35 16.12L30.34 16.11Q31.37 16.30 33.08 16.45L32.98 16.36L33.04 16.42Q32.40 17.22 31.37 20.30L31.54 20.47L31.50 20.43Q29.38 19.18 26.37 19.18L26.43 19.24L26.34 19.16Q25.69 19.27 24.90 19.35L24.83 19.28L24.74 19.19Q19.71 19.72 17.20 21.70L17.21 21.71L17.19 21.69Q15.22 23.33 15.06 26.68L14.98 26.60L15.09 26.71Q14.88 27.15 14.92 28.40L14.98 28.46L15.01 28.50Q15.13 33.34 17.53 35.43L17.55 35.46L17.43 35.33Q19.69 37.36 24.67 37.66L24.71 37.70L24.75 37.74Q27.86 37.89 30.87 36.10L30.76 35.99L30.86 36.08Q31.51 38.86 32.12 40.24L31.98 40.09L32.02 40.14Q29.92 40.40 28.28 40.36L28.28 40.36L28.37 40.45Q23.84 40.33 20.72 39.95ZM35.83 43.69L35.80 43.65L35.88 43.74Q33.95 40.59 33.27 38.00L33.41 38.14L33.31 38.04Q32.95 38.37 31.96 38.75L31.99 38.78L31.82 38.61Q31.63 37.96 31.44 37.13L31.36 37.04L31.03 35.38L31.05 35.40Q27.71 37.39 24.58 37.27L24.57 37.26L24.67 37.35Q20.43 37.19 18.11 35.44L18.10 35.44L18.00 35.33Q16.97 33.61 17.04 30.68L16.97 30.61L16.86 30.50Q17.16 26.15 19.63 24.02L19.55 23.94L19.64 24.03Q21.81 22.16 26.49 21.56L26.42 21.48L26.40 21.46Q27.15 21.30 27.87 21.30L27.89 21.32L27.96 21.38Q30.76 21.41 32.85 22.93L32.78 22.86L32.78 22.85Q33.29 20.74 34.51 17.50L34.58 17.58L34.52 17.51Q34.24 17.50 33.69 17.44L33.70 17.45L33.61 17.36Q33.13 17.38 32.86 17.38L32.78 17.29L32.94 17.45Q33.06 16.85 33.52 15.86L33.49 15.84L33.52 15.86Q33.24 15.81 30.74 15.73L30.78 15.77L30.78 15.77Q28.34 15.74 27.69 15.78L27.69 15.79L27.65 15.74Q17.24 16.18 13.77 18.77L13.61 18.61L13.65 18.64Q11.67 20.51 11.67 24.43L11.69 24.46L11.66 24.43Q11.74 25.60 11.85 28.31L11.74 28.20L11.86 28.32Q11.92 31.80 12.14 33.51L12.12 33.49L12.10 33.47Q12.56 36.66 14.15 38.19L14.01 38.04L14.16 38.19Q14.54 38.76 15.79 39.90L15.77 39.87L15.76 39.86Q19.06 41.68 24.31 42.44L24.39 42.52L24.39 42.52Q30.72 43.37 35.71 43.56Z"/><path fill="#444" d="M40.68 49.66L40.62 49.60L40.56 49.54Q43.55 45.75 46.45 39.55L46.38 39.48L46.52 39.62Q43.35 33.03 37.26 24.96L37.16 24.86L37.25 24.95Q39.03 25.97 41.81 26.62L42.00 26.80L41.91 26.71Q45.48 31.43 47.92 36.64L47.82 36.54L47.82 36.55Q49.99 31.26 53.08 26.84L53.18 26.95L53.04 26.81Q55.26 26.47 57.35 25.67L57.40 25.72L57.47 25.79Q53.98 29.53 50.51 36.95L50.62 37.06L47.68 42.95L47.74 43.02Q46.28 46.13 44.53 48.75L44.48 48.70L44.48 48.70Q42.04 49.04 40.60 49.58ZM46.75 50.90L46.74 50.88L46.89 51.04Q48.50 48.03 49.94 44.76L49.97 44.79L52.81 38.57L52.63 38.38Q56.31 30.53 59.62 26.53L59.61 26.53L59.62 26.53Q58.20 27.13 56.30 27.82L56.37 27.89L57.24 26.32L57.29 26.37Q57.93 25.75 58.54 25.07L58.48 25.01L58.38 24.91Q55.86 26.12 53.01 26.58L52.90 26.47L52.87 26.44Q50.15 30.38 48.21 34.84L48.28 34.91L48.29 34.92Q46.57 31.53 44.78 28.71L44.80 28.72L44.82 28.75Q44.62 28.74 44.26 28.70L44.28 28.72L44.33 28.78Q43.94 28.70 43.75 28.70L43.74 28.70L43.83 28.78Q42.93 27.39 41.98 26.25L41.93 26.20L41.96 26.23Q38.86 25.65 36.12 23.93L36.08 23.89L36.09 23.90Q42.37 31.94 46.07 39.55L46.06 39.55L45.97 39.45Q43.96 44.68 39.89 50.31L39.76 50.19L39.86 50.28Q40.56 49.88 41.35 49.72L41.36 49.72L43.07 49.46L43.04 49.42Q42.44 50.16 41.26 51.80L41.30 51.84L41.22 51.76Q43.45 51.10 46.73 50.87Z"/><path fill="#444" d="M75.23 30.83L75.32 30.93L75.33 30.93Q75.23 29.73 73.29 29.01L73.24 28.96L73.33 29.05Q72.81 28.84 72.28 28.84L72.30 28.86L72.30 28.86Q70.90 28.83 69.83 29.40L69.86 29.42L69.74 29.30Q68.44 30.10 68.55 31.31L68.45 31.21L68.60 31.36Q68.87 34.10 68.71 36.35L68.70 36.34L68.67 36.30Q68.50 38.72 67.77 41.23L67.78 41.24L67.80 41.26Q65.65 41.73 64.47 42.15L64.45 42.13L64.62 42.31Q66.11 38.58 66.11 34.58L66.18 34.66L66.12 34.60Q66.21 29.24 63.62 24.78L63.53 24.69L63.56 24.72Q64.79 25.23 67.19 25.96L67.06 25.83L67.10 25.86Q67.42 26.61 67.80 28.13L67.93 28.25L67.89 28.22Q69.07 25.97 72.95 26.05L73.12 26.22L72.96 26.05Q74.55 26.20 75.35 26.31L75.39 26.35L75.40 26.36Q78.30 26.68 78.38 28.70L78.36 28.67L78.30 28.61Q78.46 29.65 78.27 30.68L78.23 30.63L78.22 30.63Q77.73 33.11 77.92 36.12L77.90 36.09L77.94 36.13Q78.17 39.07 79.16 41.62L79.02 41.48L79.14 41.60Q77.31 41.06 75.59 40.91L75.71 41.02L75.63 40.94Q75.30 38.71 75.23 36.05L75.08 35.90L75.21 36.03Q75.07 33.23 75.30 30.90ZM75.39 41.43L75.21 41.25L75.39 41.43Q76.14 41.38 77.43 41.61L77.39 41.56L77.80 42.66L77.79 42.64Q77.92 43.08 78.15 43.61L78.27 43.74L78.24 43.70Q80.50 44.10 83.20 45.28L83.14 45.22L83.26 45.34Q80.76 42.08 80.07 38.27L80.21 38.40L80.22 38.42Q79.82 36.23 79.94 32.54L79.96 32.56L79.96 32.56Q79.83 32.12 79.87 31.32L80.00 31.46L79.98 31.44Q79.95 30.72 79.87 30.22L80.01 30.36L79.86 30.22Q79.80 28.59 78.70 28.10L78.71 28.11L78.77 28.17Q78.62 27.34 77.86 26.73L77.83 26.70L77.89 26.76Q76.17 25.72 73.13 25.80L73.10 25.77L73.05 25.72Q71.15 25.73 70.31 25.92L70.33 25.93L70.41 26.01Q68.97 26.37 68.02 27.28L67.89 27.16L67.93 27.20Q67.74 26.58 67.36 25.55L67.51 25.70L67.46 25.65Q64.67 25.00 62.84 24.01L62.86 24.03L62.80 23.97Q65.84 28.83 65.84 34.58L65.94 34.68L65.92 34.66Q65.87 38.99 63.97 42.84L63.88 42.75L63.97 42.84Q64.71 42.58 66.00 42.20L65.89 42.09L65.85 42.06Q65.38 43.33 64.85 44.32L64.86 44.34L64.94 44.42Q66.36 43.97 69.90 43.40L69.94 43.44L69.76 43.26Q70.83 38.20 70.71 33.36L70.65 33.30L70.73 33.38Q70.67 32.52 71.85 31.80L71.84 31.78L71.96 31.90Q72.97 31.24 74.07 31.13L74.03 31.09L74.00 31.05Q74.45 31.01 74.87 31.20L74.81 31.14L74.83 31.16Q74.64 33.67 74.67 36.22L74.76 36.31L74.73 36.28Q74.75 38.77 75.25 41.29Z"/><path fill="#222" d="M96.61 41.39L96.53 41.31L96.65 41.43Q93.65 41.47 92.39 40.94L92.36 40.90L92.53 41.08Q90.55 40.24 90.63 37.77L90.66 37.79L90.61 37.75Q90.75 34.35 90.75 34.92L90.66 34.83L90.73 34.90Q90.77 29.61 87.92 24.78L87.81 24.67L87.79 24.65Q89.86 25.69 91.84 26.07L91.80 26.03L91.88 26.11Q93.49 30.62 93.38 35.11L93.48 35.21L93.51 35.24Q93.25 36.62 94.09 37.84L94.15 37.90L94.19 37.94Q95.01 39.18 96.53 38.99L96.55 39.00L96.96 38.92L97.01 38.97Q98.22 38.77 99.04 38.01L99.15 38.12L99.00 37.97Q99.84 37.23 99.84 36.28L99.92 36.36L99.92 36.36Q99.94 36.15 99.90 35.96L99.82 35.88L99.79 35.85Q99.76 30.64 100.90 26.30L100.95 26.35L100.97 26.37Q102.05 26.35 103.04 26.12L102.95 26.03L105.02 25.58L104.95 25.52Q102.40 30.54 102.70 36.10L102.77 36.16L102.76 36.15Q102.94 39.23 101.23 40.37L101.20 40.35L101.22 40.36Q99.91 41.22 96.60 41.38ZM98.91 43.77L98.83 43.69L98.94 43.79Q102.35 43.89 104.18 43.13L104.29 43.25L104.24 43.19Q105.17 42.45 105.17 41.04L105.19 41.06L105.21 41.08Q105.06 40.02 104.80 38.46L104.84 38.50L104.82 38.48Q104.32 35.31 104.70 32.31L104.69 32.30L104.78 32.39Q105.22 29.29 106.63 26.54L106.59 26.50L106.66 26.58Q105.84 26.71 104.51 27.13L104.61 27.24L104.63 27.25Q104.87 26.65 105.17 26.08L105.09 26.00L105.76 24.96L105.65 24.84Q103.80 25.59 100.64 26.08L100.60 26.04L100.60 26.03Q99.44 30.89 99.59 36.00L99.48 35.88L99.59 36.00Q99.60 38.02 96.94 38.52L96.87 38.45L96.57 38.60L96.48 38.67L95.53 38.52L95.43 38.42Q95.31 37.50 95.34 37.00L95.47 37.13L95.39 37.05Q95.58 32.51 94.89 28.09L94.92 28.12L93.96 28.08L93.99 28.11Q93.34 27.95 92.80 27.84L92.91 27.94L92.81 27.84Q92.50 26.51 92.24 25.75L92.23 25.74L92.11 25.62Q89.30 25.17 87.06 23.88L87.08 23.90L87.17 23.99Q89.19 27.38 89.91 30.77L90.08 30.94L90.00 30.85Q90.59 33.15 90.43 36.66L90.40 36.63L90.37 36.60Q90.33 36.67 90.25 37.77L90.27 37.79L90.23 37.75Q90.24 40.27 91.61 41.22L91.46 41.07L91.60 41.22Q92.00 43.48 99.00 43.86Z"/></svg>