<svg xmlns="http://www.w3.org/2000/svg" width="150" height="50" viewBox="0,0,150,50"><path fill="#444" d="M112.35 39.06L112.33 39.05L112.26 38.98Q114.14 36.60 118.90 29.33L118.87 29.29L118.87 29.30Q122.96 23.14 125.81 19.87L125.75 19.80L125.69 19.74Q123.58 20.03 121.49 20.03L121.63 20.18L121.65 20.20Q116.37 20.17 112.37 18.38L112.39 18.40L112.31 18.31Q111.58 16.33 110.89 14.77L111.04 14.91L110.99 14.86Q115.48 16.95 121.15 17.07L121.12 17.04L121.21 17.12Q126.27 17.13 131.45 15.23L131.55 15.32L131.59 15.37Q131.18 16.17 130.88 16.97L130.92 17.01L130.23 18.50L130.32 18.59Q127.20 22.16 123.20 27.99L123.12 27.91L119.87 32.81L119.85 32.78Q118.22 35.26 116.39 37.55L116.42 37.58L116.31 37.46Q119.74 36.97 123.05 37.05L122.97 36.98L123.08 37.09Q126.41 37.18 129.57 38.09L129.57 38.09L130.04 39.67L129.98 39.60Q130.31 40.50 130.65 41.34L130.50 41.19L130.48 41.16Q125.81 39.58 120.67 39.77L120.66 39.77L120.65 39.75Q115.59 40.03 111.10 42.04L111.20 42.14L111.19 42.14Q111.52 41.01 112.24 38.96ZM110.53 42.77L110.51 42.75L110.49 42.73Q111.66 42.07 112.46 41.81L112.53 41.88L112.61 41.95Q112.24 42.61 111.55 44.13L111.63 44.20L111.65 44.22Q117.27 42.01 123.25 42.24L123.21 42.20L123.37 42.36Q129.63 42.53 134.66 45.31L134.55 45.20L134.72 45.37Q133.18 42.84 132.38 40.67L132.48 40.77L132.36 40.65Q131.97 40.53 130.45 39.96L130.32 39.83L130.50 40.01Q130.31 39.24 129.89 37.76L129.80 37.67L129.71 37.58Q125.70 36.54 120.60 36.73L120.60 36.74L120.57 36.70Q122.71 33.97 126.25 28.41L126.22 28.38L126.18 28.34Q129.88 22.68 131.78 20.12L131.87 20.22L131.88 20.22Q132.34 18.78 133.37 16.07L133.23 15.94L133.32 16.03Q132.66 16.40 131.21 17.01L131.19 16.98L131.12 16.91Q131.46 16.11 132.18 14.59L132.25 14.65L132.27 14.67Q126.92 16.78 121.21 16.71L121.14 16.64L121.24 16.74Q115.28 16.65 110.33 14.13L110.28 14.08L110.30 14.10Q111.35 16.37 112.08 18.62L112.04 18.58L112.05 18.59Q113.20 19.17 114.00 19.40L113.98 19.38L114.05 19.44Q114.36 20.18 114.63 21.62L114.62 21.62L114.49 21.48Q118.40 22.74 123.28 22.55L123.27 22.54L123.23 22.49Q120.83 25.69 117.52 30.68L117.51 30.67L111.98 39.01L111.95 38.97Q111.59 40.25 110.56 42.80Z"/><path fill="#444" d="M87.73 14.38L87.70 14.36L87.70 14.35Q91.47 16.87 96.23 17.10L96.17 17.04L96.30 17.17Q100.72 17.14 104.99 15.39L105.03 15.43L105.10 15.50Q104.83 16.03 104.07 18.81L104.12 18.86L104.04 18.78Q101.39 19.90 98.42 20.05L98.47 20.10L98.33 19.96Q95.33 20.09 92.44 19.36L92.52 19.45L92.44 19.37Q93.13 22.99 93.32 26.64L93.47 26.79L93.45 26.77Q95.40 26.93 97.00 26.89L97.08 26.97L96.98 26.87Q98.31 26.98 100.71 26.87L100.64 26.80L100.65 26.81Q100.68 27.52 100.68 28.21L100.59 28.13L100.51 29.37L100.65 29.52Q98.25 29.52 93.46 29.59L93.48 29.62L93.31 29.44Q93.36 33.61 92.79 37.61L92.76 37.58L92.77 37.59Q95.48 37.02 98.22 37.14L98.26 37.18L98.16 37.08Q100.82 37.10 103.40 37.94L103.44 37.98L103.46 37.99Q103.65 38.91 103.91 39.67L103.74 39.50L104.28 41.10L104.29 41.11Q101.17 39.89 97.74 39.89L97.59 39.74L97.59 39.74Q92.82 39.85 88.56 42.09L88.59 42.12L88.47 42.00Q90.90 35.29 90.63 28.18L90.56 28.10L90.61 28.16Q90.23 20.89 87.57 14.23ZM88.11 42.87L88.12 42.87L88.05 42.80Q89.33 42.11 90.10 41.76L89.99 41.65L90.06 41.73Q89.84 42.46 89.27 43.98L89.37 44.08L89.20 43.92Q93.76 41.96 98.82 42.23L98.91 42.32L98.89 42.30Q104.05 42.58 108.05 45.29L108.14 45.38L108.06 45.30Q106.90 42.77 106.21 40.83L106.15 40.76L106.12 40.74Q105.15 40.15 104.16 39.80L104.12 39.77L104.25 39.89Q103.91 38.56 103.75 37.76L103.75 37.76L103.73 37.74Q100.51 36.61 97.35 36.61L97.36 36.62L97.42 36.68Q96.26 36.66 95.12 36.77L95.22 36.88L95.06 36.72Q95.36 35.64 95.40 34.43L95.26 34.28L95.44 31.88L95.30 31.74Q97.18 31.72 98.97 31.75L98.92 31.71L98.99 31.78Q100.76 31.76 102.55 31.91L102.52 31.88L102.54 31.90Q102.51 30.99 102.51 30.04L102.45 29.98L102.48 28.11L101.63 28.14L101.73 28.23Q101.24 28.24 100.78 28.24L100.87 28.33L100.78 28.23Q100.96 27.73 101.11 26.43L101.07 26.39L101.07 26.39Q99.43 26.59 98.25 26.62L98.20 26.57L98.32 26.69Q97.26 26.58 95.43 26.50L95.47 26.54L95.51 26.58Q95.35 25.09 95.16 22.27L95.13 22.24L95.27 22.38Q96.11 22.31 97.10 22.31L97.18 22.39L97.12 22.33Q101.99 22.48 105.69 20.58L105.64 20.53L105.61 20.51Q106.27 18.23 107.14 16.02L107.14 16.02L106.99 15.87Q105.70 16.75 104.86 17.09L104.95 17.18L104.84 17.07Q105.16 16.32 105.62 14.76L105.66 14.80L105.66 14.80Q101.03 16.95 96.15 16.64L96.19 16.68L96.09 16.58Q90.86 16.33 87.01 13.48L86.99 13.45L86.97 13.44Q89.96 20.50 90.26 28.11L90.21 28.06L90.14 27.99Q90.51 35.97 88.00 42.75Z"/><path fill="#111" d="M71.33 19.71L71.20 19.57L71.28 19.65Q69.22 19.69 68.27 19.84L68.32 19.89L68.38 19.96Q66.75 20.19 65.53 20.72L65.57 20.76L65.43 20.62Q62.07 22.21 61.95 26.89L61.81 26.75L61.91 26.85Q61.77 29.44 62.41 32.37L62.53 32.48L62.45 32.41Q63.27 36.39 66.88 37.57L66.98 37.66L67.01 37.70Q68.79 38.14 70.24 37.99L70.32 38.07L70.68 37.97L70.82 38.11Q70.98 38.09 71.17 38.13L71.04 37.99L71.10 38.05Q71.20 38.00 71.35 37.96L71.51 38.12L71.40 38.01Q74.09 37.81 75.46 37.24L75.45 37.22L71.90 33.72L71.83 33.64Q72.16 33.33 72.77 32.72L72.83 32.78L73.61 31.73L73.63 31.75Q75.50 33.85 77.48 35.90L77.54 35.97L77.54 35.97Q79.92 34.19 80.18 28.82L80.08 28.72L80.06 28.70Q80.24 27.89 80.24 26.97L80.23 26.96L80.21 26.95Q80.22 21.28 75.16 20.18L75.08 20.10L75.02 20.05Q73.76 19.77 71.24 19.62ZM83.98 41.64L84.12 41.78L84.00 41.67Q83.47 42.16 82.29 43.04L82.38 43.12L77.81 39.28L77.82 39.28Q75.38 40.54 71.11 40.58L71.22 40.68L71.20 40.67Q64.57 40.70 61.75 38.45L61.83 38.53L61.69 38.39Q59.92 36.62 59.46 33.65L59.59 33.77L59.52 33.71Q59.31 31.89 58.92 28.31L58.93 28.32L58.88 28.27Q58.94 27.60 58.82 25.85L58.81 25.84L58.85 25.88Q58.65 24.27 58.69 23.40L58.77 23.47L58.66 23.36Q58.81 20.36 60.57 18.80L60.53 18.76L60.55 18.78Q62.04 17.42 65.24 16.92L65.30 16.99L65.27 16.96Q67.87 16.70 70.76 16.78L70.75 16.76L70.59 16.61Q78.13 16.75 81.25 19.11L81.29 19.15L81.37 19.24Q83.58 21.40 83.31 26.31L83.27 26.28L83.29 26.30Q82.97 29.82 82.78 31.15L82.90 31.27L82.87 31.24Q82.10 35.62 79.78 37.94L79.95 38.11L79.96 38.12Q81.30 39.23 84.04 41.71ZM79.31 17.56L79.21 17.46L79.13 17.38Q77.10 16.64 70.59 16.15L70.72 16.27L70.71 16.26Q69.39 16.36 66.61 16.47L66.58 16.44L66.61 16.47Q62.35 16.67 60.11 18.65L59.98 18.52L60.14 18.68Q58.30 19.96 58.30 23.12L58.48 23.30L58.48 23.30Q58.47 24.13 58.62 25.84L58.55 25.77L58.62 25.84Q58.76 27.53 58.76 28.41L58.66 28.32L58.60 28.26Q58.76 30.02 59.14 33.60L59.17 33.62L59.27 33.72Q59.48 36.45 61.08 38.50L61.19 38.61L61.12 38.54Q61.49 39.41 62.71 40.55L62.69 40.53L62.66 40.50Q65.41 42.53 70.59 42.80L70.65 42.85L70.57 42.77Q71.05 42.91 73.45 43.03L73.38 42.96L73.29 42.87Q78.17 43.10 80.45 42.03L80.46 42.05L80.53 42.11Q81.25 42.64 85.97 46.22L86.12 46.37L86.07 46.32Q86.74 45.85 88.03 44.86L87.95 44.77L87.93 44.76Q87.10 44.12 86.31 43.43L86.26 43.39L84.55 41.87L84.81 41.97L84.76 41.93Q84.21 41.50 83.00 40.47L82.92 40.39L82.86 40.33Q84.88 37.94 84.88 33.41L84.83 33.35L84.80 33.32Q84.91 33.02 84.95 32.18L84.98 32.21L84.95 32.18Q84.83 31.18 84.83 30.76L84.89 30.83L84.90 30.84Q84.98 25.39 84.25 23.03L84.21 22.99L84.14 22.92Q83.89 21.76 83.02 20.69L82.89 20.56L82.97 20.65Q82.13 18.48 79.20 17.45ZM73.17 22.00L73.28 22.11L73.16 21.99Q77.22 21.90 79.05 23.50L79.04 23.50L79.06 23.51Q79.70 24.80 79.82 26.13L79.77 26.09L79.83 26.15Q79.91 27.40 79.83 28.77L79.78 28.72L79.86 28.80Q79.42 33.65 77.47 35.36L77.42 35.31L77.51 35.40Q76.29 34.18 73.77 31.44L73.73 31.39L73.60 31.27Q72.85 32.04 71.29 33.60L71.40 33.71L71.43 33.73Q71.95 34.30 73.09 35.48L73.02 35.40L72.87 35.37L73.03 35.53Q73.49 35.95 74.52 37.01L74.63 37.13L74.64 37.14Q73.58 37.33 71.26 37.64L71.31 37.69L70.65 37.56L70.31 37.64L70.35 37.72L70.23 37.60Q66.93 37.76 64.95 36.13L64.85 36.03L64.84 36.01Q63.78 33.89 63.82 30.77L63.93 30.89L63.94 30.89Q64.11 22.19 73.29 22.12Z"/><path fill="#111" d="M13.55 38.93L13.59 38.97L13.63 39.01Q15.49 36.61 20.25 29.34L20.21 29.30L20.26 29.35Q24.30 23.15 27.16 19.88L27.10 19.82L27.08 19.80Q25.06 20.18 22.97 20.18L22.96 20.18L22.98 20.19Q17.57 20.03 13.57 18.24L13.74 18.41L13.62 18.29Q13.01 16.43 12.33 14.87L12.30 14.84L12.22 14.76Q16.80 16.94 22.47 17.06L22.52 17.10L22.63 17.21Q27.66 17.18 32.84 15.28L32.92 15.36L32.85 15.29Q32.53 16.19 32.22 16.98L32.10 16.86L31.60 18.53L31.60 18.53Q28.60 22.23 24.60 28.05L24.44 27.90L21.24 32.84L21.24 32.84Q19.62 35.34 17.80 37.62L17.64 37.46L17.78 37.61Q20.92 36.82 24.23 36.90L24.24 36.91L24.27 36.94Q27.62 37.05 30.77 37.96L30.89 38.08L31.29 39.58L31.35 39.64Q31.62 40.48 31.96 41.32L31.95 41.30L31.98 41.34Q27.16 39.60 22.02 39.79L22.07 39.84L22.05 39.81Q16.93 40.03 12.44 42.04L12.57 42.18L12.42 42.03Q12.83 40.99 13.56 38.94ZM11.78 42.68L11.93 42.83L11.87 42.77Q13.05 42.13 13.85 41.86L13.88 41.88L13.91 41.92Q13.62 42.66 12.94 44.18L12.90 44.15L12.98 44.23Q18.58 41.99 24.56 42.22L24.61 42.26L24.61 42.26Q30.94 42.50 35.96 45.28L36.05 45.37L36.02 45.34Q34.63 42.96 33.83 40.79L33.86 40.81L33.80 40.76Q33.18 40.41 31.66 39.84L31.68 39.85L31.68 39.85Q31.65 39.25 31.23 37.77L31.23 37.77L31.17 37.71Q26.96 36.47 21.86 36.66L21.88 36.68L21.82 36.62Q23.92 33.85 27.46 28.29L27.58 28.41L27.53 28.36Q31.16 22.62 33.06 20.07L33.11 20.12L33.19 20.20Q33.66 18.76 34.68 16.06L34.66 16.03L34.60 15.98Q33.94 16.34 32.49 16.95L32.61 17.07L32.52 16.98Q32.78 16.09 33.50 14.57L33.55 14.62L33.51 14.58Q28.15 16.68 22.44 16.61L22.60 16.77L22.46 16.63Q16.47 16.50 11.52 13.99L11.68 14.14L11.52 13.98Q12.68 16.36 13.40 18.61L13.38 18.58L13.50 18.71Q14.48 19.12 15.28 19.35L15.38 19.44L15.45 19.51Q15.65 20.13 15.91 21.58L15.98 21.64L15.93 21.59Q19.68 22.67 24.55 22.48L24.55 22.49L24.48 22.41Q22.12 25.66 18.81 30.64L18.77 30.60L13.30 38.99L13.22 38.91Q12.96 40.28 11.93 42.83Z"/><path fill="#222" d="M45.27 39.83L45.40 39.97L45.38 39.95Q41.14 39.33 39.31 37.88L39.29 37.86L39.30 37.86Q37.51 36.45 37.09 33.45L37.18 33.54L37.06 33.41Q36.98 33.00 36.64 28.24L36.80 28.40L36.75 28.35Q36.79 27.17 36.71 25.91L36.77 25.97L36.76 25.96Q36.53 20.86 38.74 19.11L38.80 19.17L38.82 19.18Q41.37 16.98 49.13 16.29L49.12 16.27L49.24 16.40Q50.58 16.25 52.21 16.29L52.06 16.13L52.08 16.15Q52.17 16.24 55.14 16.24L55.14 16.25L55.07 16.17Q55.90 16.16 57.61 16.32L57.58 16.28L57.58 16.29Q57.18 17.33 56.15 20.41L56.09 20.36L56.21 20.48Q54.13 19.27 51.12 19.27L51.13 19.28L51.00 19.15Q50.33 19.24 49.53 19.32L49.52 19.30L49.47 19.25Q44.34 19.68 41.83 21.66L41.93 21.76L41.79 21.62Q39.76 23.21 39.61 26.56L39.60 26.56L39.72 26.67Q39.57 27.17 39.61 28.43L39.59 28.41L39.72 28.54Q39.82 33.36 42.21 35.45L42.16 35.40L42.13 35.36Q44.27 37.28 49.26 37.58L49.36 37.68L49.37 37.69Q52.49 37.84 55.49 36.05L55.40 35.96L55.39 35.95Q56.08 38.77 56.69 40.14L56.80 40.25L56.64 40.10Q54.59 40.40 52.95 40.36L52.95 40.36L53.03 40.44Q48.38 40.21 45.26 39.83ZM60.45 43.64L60.46 43.65L60.56 43.74Q58.61 40.58 57.93 37.99L57.98 38.05L57.90 37.97Q57.51 38.26 56.52 38.64L56.65 38.76L56.52 38.64Q56.17 37.83 55.98 37.00L55.96 36.97L55.61 35.30L55.61 35.29Q52.41 37.42 49.29 37.31L49.26 37.28L49.20 37.22Q45.02 37.11 42.70 35.36L42.74 35.41L42.76 35.43Q41.50 33.48 41.58 30.55L41.60 30.58L41.63 30.60Q41.82 26.15 44.30 24.02L44.32 24.04L44.22 23.95Q46.39 22.08 51.08 21.47L51.04 21.43L50.98 21.37Q51.77 21.25 52.49 21.25L52.56 21.32L52.61 21.37Q55.41 21.39 57.50 22.91L57.41 22.81L57.53 22.94Q57.99 20.77 59.21 17.54L59.21 17.53L59.08 17.40Q58.83 17.42 58.28 17.36L58.31 17.40L58.29 17.38Q57.86 17.44 57.59 17.44L57.50 17.35L57.63 17.47Q57.73 16.86 58.19 15.87L58.09 15.77L58.11 15.79Q58.03 15.94 55.54 15.86L55.51 15.84L55.46 15.78Q52.87 15.62 52.23 15.65L52.30 15.73L52.38 15.81Q41.90 16.18 38.44 18.77L38.45 18.78L38.44 18.77Q36.31 20.48 36.31 24.40L36.39 24.48L36.27 24.37Q36.25 25.45 36.36 28.15L36.54 28.33L36.43 28.21Q36.59 31.81 36.82 33.52L36.76 33.46L36.89 33.59Q37.19 36.63 38.79 38.16L38.84 38.20L38.75 38.12Q39.19 38.75 40.45 39.89L40.45 39.89L40.49 39.93Q43.78 41.74 49.04 42.50L49.09 42.55L48.98 42.44Q55.43 43.41 60.42 43.60Z"/></svg>