<svg xmlns="http://www.w3.org/2000/svg" width="150" height="50" viewBox="0,0,150,50"><path fill="#333" d="M117.81 29.60L117.84 29.63L117.81 29.60Q117.82 33.87 117.09 38.02L117.04 37.97L117.18 38.11Q119.37 37.48 122.45 37.37L122.52 37.44L122.45 37.36Q123.86 37.63 124.93 36.62L124.76 36.46L124.83 36.53Q125.97 35.59 125.97 34.26L125.96 34.25L125.90 34.19Q125.96 33.94 125.92 33.68L125.93 33.68L125.84 33.60Q125.65 30.63 123.40 29.79L123.43 29.82L123.43 29.81Q122.74 29.58 122.05 29.66L122.08 29.69L122.00 29.61Q121.00 29.60 119.98 29.64L120.02 29.68L119.99 29.65Q118.82 29.59 117.80 29.59ZM116.71 19.29L116.66 19.24L116.57 19.15Q117.51 22.52 117.77 26.90L117.83 26.96L117.71 26.84Q119.16 26.96 121.83 27.00L121.85 27.02L121.87 27.04Q124.82 27.10 125.16 23.56L125.17 23.56L125.24 23.63Q125.32 21.59 123.92 20.75L123.95 20.78L123.97 20.81Q123.13 20.34 118.71 19.69L118.61 19.59L118.54 19.52Q117.62 19.51 116.71 19.29ZM112.91 42.03L112.88 42.00L112.99 42.11Q115.38 35.36 115.11 27.97L115.12 27.98L115.22 28.08Q114.79 20.64 111.86 14.17L112.00 14.32L111.90 14.21Q115.85 16.91 122.07 17.15L121.90 16.98L121.93 17.02Q128.20 17.30 128.54 20.19L128.46 20.11L128.63 20.28Q128.95 23.04 127.54 25.70L127.41 25.57L127.47 25.63Q126.79 27.20 125.19 27.88L125.11 27.81L125.14 27.83Q128.68 28.40 128.91 33.77L129.00 33.87L128.93 33.79Q129.17 35.07 129.10 36.48L129.03 36.41L128.96 36.34Q128.87 37.62 127.93 38.55L128.09 38.71L128.05 38.67Q127.12 39.60 125.79 39.75L125.81 39.77L125.86 39.82Q124.23 39.75 123.16 39.75L123.18 39.77L123.18 39.77Q117.47 39.77 112.94 42.06ZM125.82 42.45L125.72 42.34L125.71 42.34Q126.79 42.55 128.66 42.66L128.52 42.52L128.53 42.53Q130.06 42.69 131.16 41.81L131.05 41.70L131.20 41.85Q131.81 40.74 131.69 39.18L131.75 39.24L131.77 39.26Q131.81 38.42 131.08 34.96L130.95 34.82L131.00 34.87Q130.28 31.60 128.41 30.12L128.39 30.09L127.94 29.22L127.92 29.20Q129.67 27.87 130.24 24.10L130.36 24.22L130.32 24.18Q130.42 22.99 130.34 21.58L130.34 21.57L130.30 21.54Q130.24 20.22 129.14 19.38L129.22 19.47L129.26 19.51Q128.93 19.29 128.82 19.25L128.75 19.19L128.75 19.18Q128.58 18.75 127.74 17.95L127.60 17.81L127.71 17.91Q126.16 16.83 121.93 16.63L121.85 16.55L121.89 16.59Q115.35 16.40 111.35 13.51L111.30 13.47L111.29 13.45Q114.51 20.40 114.81 27.94L114.80 27.92L114.84 27.97Q115.18 35.81 112.36 42.73L112.45 42.83L114.53 41.89L114.41 41.78Q114.05 42.94 113.56 44.08L113.60 44.12L113.56 44.09Q117.98 42.34 123.01 42.34L123.01 42.34L122.95 42.28Q124.32 42.24 125.76 42.39ZM123.65 31.86L123.66 31.87L123.59 31.80Q124.39 31.80 125.30 32.26L125.37 32.33L125.23 32.18Q125.42 32.61 125.58 33.68L125.64 33.74L125.63 33.73Q125.64 34.92 124.71 35.97L124.84 36.11L124.76 36.02Q123.95 37.19 122.54 37.07L122.36 36.89L121.04 37.18L120.92 37.05Q120.19 37.13 119.47 37.24L119.51 37.28L119.49 37.26Q119.80 35.44 119.88 31.98L119.78 31.88L119.89 31.98Q120.61 31.98 121.86 31.94L121.71 31.79L121.79 31.87Q122.97 31.75 123.58 31.79ZM122.55 22.19L122.70 22.34L123.02 22.29L122.96 22.23Q123.28 22.32 123.47 22.36L123.39 22.28L123.88 22.39L124.22 22.53L124.68 22.46L124.82 22.60Q124.85 22.78 124.85 23.09L124.88 23.12L124.83 23.60L124.75 23.53Q124.88 24.91 124.01 25.85L123.99 25.83L124.00 25.84Q123.01 26.66 121.79 26.66L121.92 26.79L121.88 26.74Q120.92 26.81 120.92 26.81L120.80 26.70L120.88 26.78Q119.44 26.62 119.78 26.62L119.84 26.69L119.77 26.62Q119.87 25.23 119.57 22.19L119.57 22.19L119.44 22.06Q121.18 22.35 122.70 22.35Z"/><path fill="#333" d="M20.61 39.84L20.62 39.85L20.73 39.97Q16.44 39.29 14.62 37.85L14.63 37.86L14.58 37.82Q12.75 36.36 12.33 33.36L12.41 33.43L12.45 33.47Q12.35 33.03 12.01 28.28L12.10 28.37L12.12 28.39Q12.08 27.13 12.01 25.87L12.03 25.90L12.12 25.98Q11.84 20.83 14.05 19.08L14.10 19.13L13.98 19.02Q16.79 17.07 24.56 16.38L24.43 16.26L24.59 16.42Q25.83 16.17 27.47 16.21L27.56 16.30L27.44 16.18Q27.50 16.24 30.47 16.24L30.50 16.28L30.52 16.29Q31.25 16.18 32.96 16.33L32.93 16.31L33.02 16.39Q32.39 17.21 31.36 20.30L31.39 20.33L31.55 20.49Q29.38 19.19 26.38 19.19L26.32 19.14L26.46 19.27Q25.53 19.11 24.73 19.18L24.86 19.31L24.87 19.32Q19.61 19.62 17.09 21.60L17.22 21.73L17.15 21.65Q15.14 23.26 14.99 26.61L15.10 26.72L15.01 26.63Q14.93 27.20 14.97 28.45L15.05 28.53L14.94 28.43Q15.13 33.34 17.53 35.43L17.45 35.35L17.57 35.48Q19.66 37.34 24.65 37.64L24.63 37.62L24.60 37.59Q27.79 37.81 30.79 36.02L30.89 36.11L30.88 36.11Q31.51 38.87 32.12 40.24L31.96 40.08L31.98 40.10Q30.03 40.51 28.39 40.47L28.29 40.37L28.39 40.47Q23.86 40.35 20.73 39.97ZM35.70 43.56L35.79 43.64L35.88 43.74Q33.96 40.60 33.28 38.01L33.34 38.07L33.37 38.10Q32.96 38.37 31.97 38.75L31.88 38.66L31.96 38.75Q31.53 37.86 31.34 37.02L31.32 37.00L31.06 35.41L30.97 35.32Q27.77 37.45 24.64 37.33L24.55 37.24L24.66 37.35Q20.27 37.03 17.95 35.28L17.93 35.26L18.12 35.45Q16.93 33.58 17.01 30.64L16.92 30.56L16.94 30.58Q17.14 26.13 19.61 24.00L19.63 24.02L19.59 23.97Q21.68 22.04 26.37 21.43L26.46 21.52L26.41 21.47Q27.11 21.26 27.84 21.26L27.89 21.32L27.91 21.34Q30.61 21.26 32.71 22.78L32.77 22.85L32.89 22.97Q33.23 20.68 34.45 17.45L34.54 17.53L34.58 17.57Q34.31 17.57 33.76 17.51L33.75 17.50L33.69 17.44Q33.14 17.39 32.88 17.39L32.77 17.29L32.95 17.47Q33.15 16.94 33.61 15.95L33.55 15.90L33.50 15.85Q33.21 15.79 30.72 15.71L30.85 15.84L30.81 15.80Q28.22 15.63 27.57 15.67L27.67 15.77L27.66 15.75Q17.21 16.15 13.74 18.74L13.69 18.69L13.76 18.75Q11.63 20.47 11.63 24.40L11.60 24.36L11.67 24.43Q11.69 25.56 11.81 28.26L11.72 28.18L11.86 28.32Q11.84 31.73 12.07 33.44L12.15 33.52L12.06 33.43Q12.44 36.55 14.04 38.08L14.01 38.04L14.18 38.22Q14.52 38.75 15.78 39.89L15.95 40.05L15.79 39.90Q19.12 41.74 24.37 42.50L24.31 42.44L24.47 42.60Q30.77 43.42 35.76 43.61Z"/><path fill="#111" d="M103.74 37.98L103.73 37.97L103.72 37.96Q104.02 38.93 104.55 40.95L104.50 40.90L104.61 41.01Q100.30 39.59 95.69 39.86L95.76 39.93L95.63 39.80Q91.20 40.20 87.20 42.18L87.07 42.06L87.14 42.12Q87.25 41.32 87.29 41.39L87.41 41.51L87.35 41.45Q91.11 37.53 95.03 33.11L95.06 33.14L95.03 33.10Q99.35 28.03 100.53 23.34L100.54 23.36L100.68 23.49Q101.12 21.72 99.84 20.54L99.75 20.45L99.81 20.51Q98.57 19.37 96.78 19.52L96.69 19.42L96.79 19.53Q96.50 19.54 96.15 19.54L96.00 19.39L96.11 19.49Q94.56 19.46 93.30 20.38L93.35 20.43L93.23 20.31Q92.01 21.75 92.24 24.41L92.19 24.37L92.16 24.33Q90.42 24.04 89.20 23.58L89.18 23.57L89.20 23.58Q89.10 22.26 89.02 20.82L89.02 20.81L88.99 20.79Q88.96 19.19 89.57 18.05L89.40 17.88L89.53 18.01Q91.35 16.68 94.71 16.68L94.65 16.62L96.41 16.63L96.31 16.53Q98.57 16.55 99.52 16.66L99.56 16.70L99.54 16.68Q104.03 17.24 104.29 19.68L104.20 19.59L104.25 19.64Q104.34 20.22 104.26 21.02L104.11 20.87L104.18 20.94Q104.11 21.55 103.95 22.24L103.96 22.24L103.95 22.23Q102.38 30.41 94.80 37.26L94.74 37.20L94.85 37.31Q96.16 37.06 97.53 37.06L97.54 37.07L97.49 37.02Q100.81 37.10 103.67 37.90ZM103.00 16.98L103.01 16.99L103.10 17.08Q101.51 16.45 99.80 16.37L99.74 16.31L96.29 16.10L96.30 16.11Q91.86 15.85 89.65 16.96L89.65 16.95L89.80 17.10Q88.72 18.46 88.72 20.51L88.69 20.49L88.64 20.44Q88.68 21.17 88.99 23.98L88.93 23.92L89.08 24.07Q89.59 24.28 90.77 24.58L90.69 24.50L90.75 25.59L90.64 25.48Q90.62 25.95 90.69 26.49L90.78 26.58L90.81 26.61Q92.00 26.65 94.48 26.88L94.54 26.94L94.39 26.80Q94.38 26.44 94.38 26.10L94.47 26.19L94.32 26.04Q94.44 24.33 95.66 22.98L95.60 22.92L95.67 22.99Q96.86 21.61 98.65 21.73L98.72 21.80L98.58 21.66Q99.44 21.80 100.20 21.95L100.12 21.87L100.15 21.89Q100.26 22.27 100.34 22.69L100.33 22.69L100.44 22.79Q100.44 23.17 100.36 23.52L100.40 23.55L100.29 23.44Q99.16 28.33 94.74 33.17L94.56 32.98L94.73 33.15Q92.42 35.22 86.98 41.27L87.01 41.30L87.04 41.34Q86.80 42.12 86.45 42.69L86.56 42.80L86.57 42.80Q88.23 41.99 89.76 41.46L89.60 41.31L89.70 41.41Q88.98 41.98 88.03 43.46L88.00 43.43L87.99 43.43Q87.82 43.71 87.71 44.06L87.76 44.11L87.84 44.19Q92.65 42.07 98.13 42.26L98.03 42.16L98.21 42.34Q103.81 42.42 108.38 44.78L108.35 44.75L107.45 42.71L107.40 42.66Q106.72 41.29 106.45 40.49L106.38 40.42L106.37 40.41Q105.68 40.03 104.46 39.61L104.50 39.65L104.47 39.62Q104.43 39.01 104.05 37.64L104.00 37.59L103.92 37.50Q101.71 36.94 99.43 36.75L99.39 36.71L99.49 36.81Q104.17 32.24 105.70 23.98L105.61 23.89L105.85 21.05L105.94 21.14Q105.74 19.22 104.52 18.54L104.61 18.63L104.60 18.66L104.52 18.57Q104.52 18.54 104.45 18.54L104.37 18.46L104.48 18.58Q104.14 17.63 103.04 17.02Z"/><path fill="#333" d="M43.82 29.61L43.81 29.60L43.84 29.64Q43.84 33.89 43.11 38.04L43.15 38.08L43.21 38.14Q45.31 37.42 48.39 37.31L48.40 37.31L48.47 37.39Q49.86 37.64 50.93 36.63L50.79 36.49L50.87 36.57Q51.91 35.53 51.91 34.20L51.89 34.18L51.96 34.25Q52.00 33.98 51.96 33.72L51.86 33.62L51.86 33.62Q51.81 30.78 49.56 29.95L49.44 29.82L49.50 29.88Q48.68 29.53 48.00 29.60L48.05 29.66L48.01 29.61Q47.01 29.60 45.98 29.64L45.91 29.57L46.03 29.69Q44.81 29.58 43.78 29.58ZM42.60 19.18L42.67 19.25L42.71 19.29Q43.44 22.46 43.71 26.84L43.86 26.99L43.70 26.83Q45.27 27.07 47.94 27.10L47.96 27.13L47.90 27.07Q50.81 27.08 51.15 23.54L51.13 23.52L51.19 23.58Q51.38 21.64 49.97 20.80L49.87 20.70L49.99 20.82Q49.12 20.34 44.71 19.69L44.67 19.65L44.58 19.56Q43.45 19.35 42.54 19.12ZM38.94 42.05L39.06 42.17L39.00 42.11Q41.40 35.38 41.14 28.00L41.28 28.14L41.27 28.13Q40.86 20.72 37.93 14.24L37.92 14.23L37.89 14.21Q41.73 16.79 47.95 17.03L48.04 17.13L48.01 17.09Q54.30 17.40 54.64 20.30L54.46 20.12L54.47 20.12Q54.98 23.07 53.57 25.73L53.46 25.63L53.46 25.62Q52.77 27.18 51.17 27.86L51.12 27.81L51.19 27.89Q54.80 28.53 55.03 33.90L54.91 33.78L55.06 33.92Q55.09 34.98 55.01 36.39L54.98 36.35L55.03 36.40Q54.92 37.67 53.99 38.60L54.09 38.70L54.09 38.70Q53.18 39.66 51.85 39.81L51.87 39.83L51.71 39.68Q50.27 39.79 49.20 39.79L49.35 39.94L49.20 39.79Q43.56 39.87 39.03 42.15ZM51.74 42.37L51.75 42.38L51.74 42.37Q52.64 42.39 54.50 42.50L54.61 42.61L54.68 42.68Q56.10 42.73 57.20 41.85L57.01 41.66L57.01 41.66Q57.97 40.91 57.85 39.35L57.74 39.23L57.75 39.24Q57.76 38.38 57.04 34.91L56.95 34.83L56.89 34.76Q56.39 31.72 54.53 30.23L54.39 30.09L54.00 29.28L54.10 29.39Q55.69 27.89 56.26 24.13L56.24 24.10L56.20 24.06Q56.45 23.02 56.37 21.61L56.41 21.65L56.30 21.54Q56.39 20.36 55.28 19.53L55.24 19.49L55.29 19.54Q54.92 19.28 54.81 19.24L54.82 19.26L54.81 19.25Q54.55 18.72 53.71 17.92L53.77 17.97L53.60 17.80Q52.11 16.78 47.89 16.59L47.94 16.64L47.85 16.55Q41.32 16.38 37.32 13.48L37.38 13.54L37.33 13.49Q40.62 20.51 40.93 28.05L40.90 28.03L40.90 28.03Q41.23 35.86 38.42 42.79L38.48 42.85L40.52 41.88L40.55 41.91Q40.17 43.05 39.67 44.20L39.57 44.10L39.59 44.11Q43.80 42.16 48.82 42.16L49.00 42.33L48.91 42.24Q50.30 42.23 51.75 42.38ZM49.60 31.81L49.59 31.81L49.58 31.80Q50.40 31.81 51.31 32.27L51.35 32.30L51.35 32.31Q51.47 32.65 51.62 33.72L51.60 33.70L51.48 33.58Q51.76 35.04 50.82 36.08L50.77 36.03L50.88 36.14Q49.85 37.09 48.44 36.98L48.43 36.97L47.05 37.18L47.06 37.19Q46.20 37.14 45.48 37.25L45.43 37.20L45.40 37.17Q45.76 35.40 45.84 31.94L45.97 32.07L45.86 31.95Q46.51 31.88 47.76 31.84L47.71 31.79L47.68 31.76Q49.00 31.79 49.61 31.83ZM48.65 22.29L48.55 22.20L48.90 22.17L48.90 22.17Q49.13 22.17 49.32 22.20L49.34 22.23L49.84 22.35L50.10 22.42L50.77 22.56L50.82 22.60Q50.75 22.68 50.75 22.99L50.81 23.05L50.81 23.58L50.78 23.56Q50.92 24.95 50.04 25.88L50.03 25.87L50.02 25.86Q49.01 26.66 47.79 26.66L47.76 26.62L47.79 26.65Q46.82 26.71 46.82 26.71L46.88 26.77L46.78 26.68Q45.42 26.60 45.76 26.60L45.91 26.76L45.88 26.73Q45.88 25.24 45.58 22.20L45.51 22.12L45.45 22.07Q47.13 22.30 48.65 22.30Z"/><path fill="#111" d="M70.18 28.52L70.28 28.63L70.18 28.52Q67.37 28.54 66.61 30.78L66.61 30.78L66.75 30.92Q66.49 31.62 66.38 32.26L66.36 32.24L66.39 32.27Q68.98 32.46 70.62 32.46L70.66 32.51L70.65 32.50Q72.26 32.47 74.84 32.35L74.83 32.34L74.77 32.28Q74.63 30.55 73.23 29.48L73.29 29.55L73.34 29.59Q72.11 28.66 70.32 28.66ZM70.38 41.21L70.39 41.23L70.39 41.23Q66.09 41.15 64.80 39.74L64.76 39.70L64.84 39.79Q63.90 38.35 63.75 35.08L63.66 34.99L63.64 34.97Q63.81 34.91 63.74 33.54L63.64 33.45L63.69 33.50Q63.57 31.20 63.57 30.48L63.49 30.40L63.45 30.37Q63.51 28.56 64.23 27.45L64.30 27.52L64.27 27.49Q65.58 25.98 68.55 25.98L68.52 25.95L70.23 26.11L70.22 26.09Q72.16 25.98 73.68 26.28L73.81 26.41L73.81 26.41Q75.81 26.81 76.80 28.03L76.86 28.09L76.82 28.05Q77.43 29.11 77.50 31.21L77.51 31.21L77.41 31.11Q77.41 32.26 77.45 34.43L77.42 34.39L77.53 34.51Q74.63 34.50 71.85 34.50L71.95 34.60L66.23 34.47L66.31 34.56Q66.52 39.03 70.59 38.80L70.58 38.79L70.58 38.79Q74.24 38.49 75.46 36.66L75.48 36.68L75.58 36.78Q76.38 37.24 77.98 38.42L77.91 38.35L77.97 38.41Q76.58 40.79 72.43 41.06L72.35 40.97L72.45 41.07Q71.75 41.14 70.38 41.21ZM72.70 43.57L72.62 43.49L72.59 43.46Q73.81 43.54 75.02 43.61L74.87 43.46L74.86 43.45Q79.91 43.71 80.83 40.93L80.79 40.89L80.82 40.92Q79.31 39.79 78.21 39.03L78.18 39.00L78.17 38.99Q78.23 38.49 78.42 38.26L78.42 38.25L78.51 38.35Q77.71 37.81 76.34 36.86L76.41 36.93L76.49 37.01Q77.38 36.86 79.43 37.17L79.42 37.16L79.52 37.26Q79.36 35.92 79.28 35.23L79.29 35.24L79.24 33.40L79.13 33.29Q79.01 30.96 78.36 29.47L78.39 29.50L78.33 29.45Q77.99 29.03 77.42 28.42L77.47 28.47L77.55 28.55Q77.43 28.27 77.20 27.70L77.07 27.58L77.13 27.64Q75.28 25.63 70.22 25.63L70.21 25.63L68.53 25.62L68.44 25.53Q65.34 25.67 63.89 27.15L63.78 27.04L63.87 27.12Q63.05 28.10 63.09 30.16L63.19 30.26L63.24 30.31Q63.32 31.30 63.43 33.54L63.31 33.42L63.40 33.52Q63.41 35.04 63.52 37.10L63.62 37.20L63.56 37.14Q63.74 39.29 64.61 40.36L64.68 40.43L64.74 40.48Q64.76 40.51 64.95 40.62L64.96 40.63L65.30 41.31L65.25 41.26Q66.03 43.11 72.61 43.49ZM70.45 38.24L70.53 38.32L70.54 38.33Q69.44 38.48 68.52 38.03L68.41 37.91L68.44 37.94Q68.42 37.58 68.23 36.90L68.16 36.82L68.29 36.96Q69.79 36.67 71.39 36.67L71.47 36.75L71.45 36.73Q73.13 36.73 74.81 36.85L74.74 36.78L74.90 36.94Q73.53 38.19 70.52 38.31ZM72.23 31.04L72.09 30.89L72.14 30.95Q72.87 31.06 74.20 31.44L74.13 31.37L74.39 31.82L74.37 32.00L74.29 31.91Q72.91 32.01 71.99 31.98L71.97 31.95L72.08 32.06Q69.69 31.92 69.65 31.92L69.82 32.09L69.66 31.93Q70.42 31.01 72.09 30.90Z"/></svg>