<svg xmlns="http://www.w3.org/2000/svg" width="150" height="50" viewBox="0,0,150,50"><path fill="#222" d="M25.94 30.88L25.90 30.84L25.94 30.88Q25.91 29.74 23.97 29.02L23.89 28.95L23.89 28.94Q23.32 28.68 22.79 28.68L22.84 28.73L22.91 28.80Q21.61 28.87 20.54 29.44L20.49 29.39L20.39 29.29Q19.12 30.11 19.23 31.33L19.15 31.24L19.20 31.30Q19.45 34.02 19.30 36.27L19.47 36.44L19.33 36.30Q19.29 38.85 18.57 41.36L18.50 41.30L18.57 41.37Q16.37 41.79 15.19 42.21L15.22 42.24L15.20 42.22Q16.86 38.67 16.86 34.67L16.74 34.54L16.77 34.57Q16.81 29.18 14.23 24.72L14.14 24.64L14.13 24.63Q15.50 25.28 17.90 26.00L17.81 25.91L17.77 25.87Q18.14 26.65 18.52 28.18L18.54 28.20L18.45 28.11Q19.75 25.99 23.64 26.06L23.71 26.14L23.62 26.05Q25.15 26.13 25.95 26.24L26.07 26.36L25.99 26.28Q28.98 26.68 29.05 28.70L29.11 28.76L29.01 28.65Q29.12 29.64 28.93 30.67L28.92 30.66L28.83 30.57Q28.38 33.09 28.57 36.10L28.63 36.16L28.69 36.21Q28.68 38.92 29.67 41.47L29.87 41.66L29.86 41.65Q28.14 41.23 26.43 41.07L26.44 41.09L26.29 40.93Q25.89 38.63 25.81 35.97L25.74 35.89L25.82 35.97Q25.74 33.23 25.97 30.91ZM26.02 41.39L25.88 41.25L25.93 41.31Q26.85 41.42 28.14 41.65L28.08 41.59L28.38 42.57L28.49 42.68Q28.68 43.17 28.91 43.71L28.83 43.63L28.91 43.71Q31.22 44.15 33.92 45.33L33.85 45.26L33.93 45.34Q31.43 42.08 30.75 38.28L30.73 38.26L30.76 38.29Q30.41 36.14 30.52 32.45L30.51 32.45L30.53 32.47Q30.57 32.20 30.61 31.40L30.54 31.33L30.66 31.45Q30.76 30.86 30.68 30.37L30.57 30.25L30.58 30.26Q30.51 28.64 29.41 28.14L29.30 28.04L29.32 28.05Q29.22 27.27 28.45 26.66L28.55 26.76L28.48 26.68Q26.74 25.63 23.69 25.70L23.78 25.78L23.69 25.70Q21.88 25.80 21.05 25.99L21.07 26.01L20.92 25.86Q19.62 26.35 18.67 27.26L18.67 27.27L18.66 27.26Q18.43 26.60 18.05 25.58L18.07 25.60L18.21 25.73Q15.32 24.98 13.50 23.99L13.57 24.07L13.45 23.95Q16.56 28.89 16.56 34.64L16.45 34.53L16.49 34.57Q16.45 38.90 14.55 42.75L14.53 42.73L14.55 42.75Q15.23 42.44 16.53 42.06L16.66 42.20L16.63 42.17Q16.14 43.43 15.61 44.42L15.58 44.39L15.48 44.28Q17.00 43.94 20.54 43.37L20.53 43.36L20.55 43.38Q21.56 38.27 21.45 33.43L21.37 33.36L21.48 33.46Q21.38 32.56 22.56 31.84L22.58 31.86L22.55 31.83Q23.59 31.20 24.70 31.08L24.76 31.15L24.74 31.13Q25.07 30.96 25.49 31.15L25.49 31.15L25.54 31.20Q25.40 33.77 25.44 36.32L25.46 36.34L25.44 36.32Q25.50 38.86 26.00 41.37Z"/><path fill="#222" d="M97.94 20.09L97.97 20.12L97.99 20.14Q93.64 20.09 89.94 19.10L89.89 19.04L90.04 19.19Q91.45 23.65 91.64 28.48L91.64 28.49L91.74 28.58Q91.92 33.37 90.70 37.97L90.67 37.94L90.72 38.00Q93.43 37.28 96.94 37.13L96.86 37.05L97.03 37.22Q100.97 37.05 102.76 34.61L102.72 34.57L102.71 34.56Q104.10 32.38 104.29 28.27L104.32 28.29L104.29 28.26Q104.52 26.67 104.07 24.96L103.91 24.80L103.91 24.80Q102.67 20.10 97.95 20.10ZM86.06 42.13L86.14 42.21L86.03 42.09Q88.99 36.49 88.99 29.79L88.97 29.77L88.97 29.77Q88.95 21.22 84.65 14.22L84.61 14.18L84.75 14.32Q89.90 16.88 98.16 17.07L98.21 17.12L98.18 17.09Q107.14 17.37 107.48 24.52L107.36 24.41L107.41 24.45Q107.46 27.09 107.42 28.54L107.42 28.54L107.37 28.49Q107.37 33.25 106.53 35.42L106.60 35.48L106.62 35.50Q106.22 36.62 105.46 37.46L105.40 37.41L105.29 37.30Q104.01 38.91 101.39 39.41L101.29 39.31L101.33 39.35Q99.72 39.60 96.71 39.83L96.88 40.00L96.87 39.99Q90.74 40.44 86.13 42.20ZM103.96 41.98L104.03 42.05L103.90 41.93Q106.82 41.75 108.45 40.27L108.33 40.15L108.45 40.26Q109.51 38.36 109.48 35.62L109.46 35.60L109.45 35.59Q109.52 34.29 109.37 30.79L109.38 30.80L108.92 26.16L108.93 26.17Q108.85 23.99 107.90 21.90L107.95 21.95L107.95 21.95Q107.38 20.96 106.69 20.31L106.64 20.26L106.69 20.16L106.57 20.03Q104.90 17.11 100.49 16.73L100.62 16.87L100.59 16.83Q97.92 16.72 90.92 16.00L90.94 16.01L90.91 15.99Q87.64 15.53 83.94 13.51L83.80 13.37L83.86 13.43Q88.76 20.88 88.76 29.64L88.75 29.63L88.73 29.60Q88.70 36.58 85.35 42.75L85.32 42.72L85.37 42.76Q86.08 42.52 87.41 42.03L87.43 42.04L87.44 42.06Q87.10 42.90 86.22 44.38L86.10 44.26L86.26 44.41Q89.30 43.35 92.65 42.85L92.63 42.84L92.62 42.82Q94.61 42.41 98.26 42.30L98.33 42.36L98.36 42.40Q102.26 42.30 104.09 42.11ZM104.01 28.36L104.06 28.42L104.07 28.42Q103.61 36.34 96.91 36.72L96.93 36.74L96.97 36.78Q95.01 36.88 92.96 37.14L92.89 37.07L92.91 37.10Q93.71 33.33 93.71 29.68L93.66 29.62L93.62 29.59Q93.68 25.95 92.95 22.10L92.99 22.14L92.82 21.97Q95.11 22.35 99.79 22.35L99.85 22.41L99.93 22.49Q101.34 22.38 102.98 23.33L102.87 23.22L102.90 23.25Q104.28 25.63 104.13 28.48Z"/><path fill="#222" d="M115.62 19.13L115.62 19.13L115.69 19.21Q116.90 23.76 117.05 26.96L117.00 26.91L117.03 26.94Q117.40 26.85 121.78 26.97L121.87 27.06L121.77 26.95Q124.39 27.07 124.77 23.60L124.70 23.53L124.76 23.59Q124.86 21.75 123.95 20.83L124.04 20.93L124.04 20.93Q122.71 19.98 120.73 19.82L120.81 19.90L120.83 19.93Q117.55 19.65 115.68 19.20ZM117.09 28.82L117.02 28.76L116.99 28.73Q117.33 34.89 115.54 40.83L115.49 40.78L115.57 40.86Q114.25 41.10 111.66 42.13L111.54 42.00L111.67 42.14Q114.46 35.59 114.11 28.13L114.02 28.04L114.05 28.07Q113.74 20.72 110.43 14.21L110.52 14.30L110.54 14.32Q115.45 17.17 122.42 17.17L122.33 17.09L122.23 16.98Q127.96 17.08 128.23 20.63L128.18 20.58L128.13 20.52Q128.32 21.25 128.25 21.86L128.26 21.88L128.17 23.01L128.11 22.95Q127.36 26.95 125.23 28.66L125.16 28.59L125.22 28.66Q124.45 29.37 123.42 29.37L123.45 29.40L120.68 29.22L120.68 29.22Q126.37 36.54 130.90 41.11L130.87 41.08L130.89 41.10Q128.64 40.30 125.71 39.96L125.82 40.07L125.70 39.95Q121.98 36.04 117.07 28.80ZM125.72 40.46L125.68 40.42L125.88 40.32L127.26 41.70L127.17 41.61Q127.85 42.25 128.50 42.86L128.51 42.87L128.32 42.68Q132.02 43.45 135.60 45.32L135.57 45.29L135.46 45.18Q128.68 38.59 123.28 31.66L123.13 31.51L125.05 31.68L124.90 31.53Q127.99 31.54 129.32 27.01L129.35 27.04L129.36 27.05Q129.99 24.79 129.99 22.09L130.09 22.18L129.98 22.07Q130.02 19.83 128.31 19.18L128.41 19.28L128.38 19.25Q128.17 18.78 127.60 18.09L127.75 18.24L127.60 18.09Q125.93 16.65 122.28 16.58L122.34 16.64L122.38 16.68Q114.39 16.42 109.71 13.41L109.72 13.42L109.67 13.38Q113.59 20.38 113.93 28.07L113.87 28.00L113.74 27.87Q114.23 35.98 111.11 42.83L111.00 42.73L111.08 42.81Q112.28 42.18 113.08 41.87L113.06 41.85L112.17 44.24L112.21 44.27Q114.81 43.11 117.48 42.61L117.48 42.62L117.46 42.60Q118.78 37.53 118.98 32.31L118.89 32.22L118.91 32.25Q122.48 37.26 125.64 40.38ZM124.38 22.45L124.33 22.40L124.35 22.42Q124.41 22.71 124.41 23.05L124.35 22.99L124.49 23.70L124.43 23.64Q124.46 24.78 123.78 25.73L123.66 25.61L123.73 25.69Q123.14 26.46 122.23 26.65L122.22 26.65L122.15 26.58Q121.99 26.68 120.39 26.72L120.29 26.62L120.38 26.71Q119.81 26.75 118.97 26.63L119.00 26.66L118.98 26.64Q118.89 25.15 118.55 22.10L118.47 22.03L118.47 22.02Q119.93 22.26 120.61 22.26L120.53 22.18L120.65 22.30Q122.40 22.22 124.34 22.41Z"/><path fill="#222" d="M50.55 30.82L50.68 30.95L50.70 30.97Q50.54 29.71 48.60 28.99L48.55 28.94L48.53 28.92Q48.01 28.70 47.48 28.70L47.63 28.86L47.62 28.85Q46.24 28.84 45.18 29.41L45.01 29.24L45.06 29.29Q43.75 30.07 43.86 31.29L43.92 31.35L43.80 31.23Q44.21 34.12 44.06 36.36L44.03 36.33L44.05 36.35Q43.83 38.72 43.11 41.24L43.22 41.35L43.25 41.37Q40.95 41.70 39.77 42.12L39.92 42.27L39.87 42.22Q41.36 38.50 41.36 34.50L41.41 34.55L41.40 34.54Q41.45 29.15 38.86 24.69L38.85 24.68L38.93 24.76Q40.13 25.24 42.53 25.96L42.56 25.99L42.41 25.84Q42.70 26.55 43.08 28.08L43.21 28.20L43.07 28.06Q44.42 25.98 48.30 26.06L48.39 26.15L48.47 26.23Q49.79 26.10 50.59 26.22L50.65 26.27L50.70 26.33Q53.65 26.69 53.73 28.71L53.64 28.62L53.65 28.63Q53.82 29.67 53.63 30.70L53.54 30.61L53.59 30.67Q53.08 33.13 53.27 36.13L53.36 36.22L53.34 36.20Q53.36 38.93 54.35 41.48L54.51 41.64L54.44 41.57Q52.64 41.06 50.93 40.91L51.01 40.99L51.08 41.06Q50.54 38.62 50.47 35.95L50.43 35.92L50.49 35.98Q50.36 33.18 50.59 30.86ZM50.66 41.36L50.68 41.39L50.59 41.30Q51.41 41.32 52.70 41.54L52.69 41.53L53.15 42.67L53.02 42.54Q53.20 43.03 53.43 43.56L53.46 43.59L53.52 43.65Q55.84 44.10 58.54 45.28L58.54 45.29L58.61 45.35Q56.25 42.23 55.56 38.42L55.39 38.25L55.37 38.23Q55.05 36.12 55.17 32.43L55.31 32.58L55.16 32.43Q55.21 32.17 55.25 31.37L55.30 31.42L55.23 31.36Q55.30 30.74 55.23 30.25L55.31 30.33L55.24 30.26Q55.17 28.63 54.06 28.13L53.99 28.06L54.02 28.09Q53.92 27.30 53.16 26.70L53.07 26.60L53.19 26.73Q51.53 25.75 48.48 25.82L48.38 25.72L48.32 25.66Q46.58 25.83 45.75 26.02L45.67 25.94L45.78 26.05Q44.26 26.33 43.31 27.24L43.33 27.26L43.27 27.19Q43.17 26.68 42.79 25.65L42.86 25.72L42.77 25.63Q39.97 24.97 38.15 23.98L38.05 23.88L38.14 23.97Q41.15 28.81 41.15 34.56L41.25 34.65L41.23 34.64Q41.18 38.97 39.28 42.81L39.26 42.79L39.25 42.78Q40.05 42.59 41.34 42.21L41.34 42.21L41.31 42.18Q40.68 43.30 40.15 44.29L40.25 44.39L40.32 44.47Q41.71 43.99 45.26 43.42L45.10 43.26L45.21 43.38Q46.20 38.24 46.09 33.40L46.03 33.34L46.08 33.39Q46.10 32.62 47.28 31.89L47.17 31.78L47.14 31.75Q48.26 31.20 49.37 31.09L49.40 31.12L49.34 31.06Q49.84 31.07 50.26 31.26L50.27 31.27L50.14 31.14Q50.09 33.79 50.13 36.34L50.12 36.34L50.01 36.22Q50.09 38.77 50.58 41.29Z"/><path fill="#111" d="M67.80 40.35L67.81 40.36L67.89 40.44Q66.47 40.50 64.91 40.08L64.83 40.00L64.85 40.02Q63.55 39.03 63.40 37.39L63.51 37.50L63.37 37.36Q63.40 37.24 63.59 34.61L63.58 34.61L63.64 34.66Q64.58 34.39 66.60 34.01L66.70 34.11L66.51 34.87L66.52 34.88Q66.11 36.49 67.52 37.06L67.55 37.09L67.51 37.05Q68.48 37.56 70.57 37.56L70.56 37.55L70.44 37.43Q72.08 37.31 72.27 37.24L72.30 37.27L72.25 37.22Q73.28 37.19 74.00 36.69L73.88 36.57L73.98 36.67Q75.39 35.72 75.20 33.63L75.20 33.63L75.05 33.47Q74.91 31.09 73.18 29.53L73.32 29.67L73.30 29.65Q71.47 27.99 68.99 27.99L69.08 28.08L68.95 27.72L69.08 27.85Q69.41 27.75 70.28 27.68L70.18 27.58L70.33 27.73Q72.15 27.53 73.52 26.29L73.57 26.34L73.51 26.28Q74.90 25.06 75.05 23.20L75.05 23.19L75.01 23.16Q75.24 22.96 75.24 22.62L75.22 22.61L75.21 22.60Q75.19 21.05 73.82 20.14L73.85 20.17L73.84 20.15Q72.47 19.20 70.87 19.32L70.96 19.41L70.98 19.43Q69.71 19.30 68.49 19.72L68.37 19.60L68.35 19.58Q66.96 20.17 66.65 21.31L66.63 21.29L66.78 21.44Q66.44 22.05 66.52 22.81L66.63 22.92L66.55 22.84Q65.48 22.57 63.42 21.85L63.47 21.89L63.45 21.88Q63.35 20.33 63.39 19.49L63.22 19.32L63.35 19.45Q63.46 17.92 64.52 17.24L64.57 17.28L64.52 17.23Q65.95 16.64 67.54 16.64L67.41 16.50L67.59 16.68Q70.71 16.61 73.87 16.88L73.72 16.73L73.90 16.90Q78.89 17.25 78.59 21.02L78.52 20.95L78.67 21.10Q78.49 22.49 78.00 24.05L78.03 24.08L77.94 23.99Q76.99 27.04 74.63 27.95L74.64 27.96L74.73 28.05Q77.42 28.64 78.02 31.99L77.97 31.94L78.06 32.03Q78.21 33.09 78.29 35.11L78.28 35.11L78.17 35.00Q78.51 39.64 73.91 40.10L73.71 39.90L73.83 40.02Q73.18 40.17 67.89 40.44ZM73.08 42.66L72.94 42.51L72.95 42.53Q73.66 42.66 76.51 42.74L76.38 42.60L76.43 42.66Q78.20 42.76 79.84 42.11L79.76 42.03L79.82 42.09Q81.13 41.26 80.94 39.51L80.81 39.38L80.85 39.43Q80.67 38.03 80.37 36.28L80.34 36.25L80.49 36.40Q79.64 31.78 77.70 30.15L77.82 30.26L77.52 29.77L77.49 29.71L77.64 29.86Q79.26 28.28 80.02 23.90L80.14 24.02L80.00 23.88Q80.02 23.41 80.14 22.46L80.12 22.44L80.18 22.50Q80.32 21.80 80.24 21.12L80.14 21.02L80.21 21.08Q80.14 19.50 78.85 18.81L78.72 18.68L78.65 18.68L78.75 18.79Q78.31 17.66 77.17 17.13L77.31 17.27L77.15 17.11Q75.72 16.52 70.58 16.21L70.56 16.19L70.57 16.20Q68.89 16.12 67.29 16.12L67.32 16.15L67.38 16.21Q65.75 16.17 64.22 16.82L64.08 16.68L64.19 16.79Q62.94 17.51 62.94 19.27L63.04 19.37L62.98 19.31Q62.99 18.90 63.26 22.25L63.31 22.30L63.14 22.13Q63.52 22.28 65.15 22.89L65.18 22.92L65.21 22.95Q65.17 23.44 65.13 23.94L65.17 23.97L65.17 23.97Q65.15 24.45 65.19 24.98L65.10 24.90L65.11 24.90Q67.02 25.41 69.04 25.52L68.93 25.41L68.90 25.38Q68.96 23.50 70.06 22.66L70.03 22.63L69.93 22.53Q70.93 22.04 72.94 21.81L72.80 21.67L72.82 21.68Q73.91 21.64 74.48 21.83L74.58 21.93L74.53 21.88Q74.53 21.95 74.57 22.06L74.67 22.16L74.66 22.35L74.70 22.84L74.71 22.85Q74.77 23.11 74.73 23.26L74.74 23.27L74.74 23.27Q74.68 24.99 73.16 26.17L73.11 26.13L73.18 26.19Q72.16 27.01 70.15 27.20L70.11 27.17L70.26 27.32Q69.47 27.40 68.60 27.40L68.69 27.49L68.69 27.49Q68.62 27.73 68.78 28.42L68.85 28.49L68.81 28.46Q70.50 28.39 71.95 29.12L72.07 29.24L71.94 29.22L70.24 29.27L70.37 29.40Q70.39 29.72 70.50 30.33L70.43 30.26L70.36 30.19Q72.53 30.15 74.24 31.48L74.29 31.53L74.36 31.60Q74.62 32.01 74.92 33.65L74.83 33.56L74.88 33.61Q75.06 36.53 72.13 36.95L72.19 37.01L72.06 36.88Q69.97 37.15 69.40 37.11L69.49 37.20L69.51 37.23Q69.01 37.07 68.48 36.99L68.37 36.88L68.44 36.50L68.52 36.00L68.50 35.56L68.58 35.31L68.62 35.34Q67.67 35.42 66.87 35.61L66.83 35.57L66.83 35.57Q66.79 35.34 66.79 35.15L66.92 35.28L66.92 35.28Q66.86 34.99 66.86 34.76L66.95 34.86L66.96 34.86Q67.01 34.45 67.16 33.73L67.13 33.70L67.11 33.68Q65.27 33.93 63.40 34.28L63.40 34.27L63.33 34.20Q63.33 34.70 63.22 35.82L63.13 35.73L63.27 35.88Q63.18 37.03 63.18 37.64L63.07 37.52L63.20 37.65Q63.22 39.65 64.59 40.41L64.65 40.47L64.64 40.46Q66.00 42.62 70.72 42.43L70.86 42.57L70.71 42.42Q71.56 42.51 73.08 42.66Z"/></svg>