<svg xmlns="http://www.w3.org/2000/svg" width="150" height="50" viewBox="0,0,150,50"><path fill="#333" d="M119.28 39.85L119.44 40.01L119.34 39.91Q115.12 39.31 113.29 37.86L113.32 37.89L113.24 37.81Q111.51 36.45 111.09 33.45L111.13 33.49L111.06 33.42Q111.08 33.10 110.74 28.34L110.67 28.27L110.71 28.31Q110.84 27.22 110.76 25.96L110.71 25.91L110.62 25.82Q110.59 20.91 112.79 19.16L112.63 19.00L112.77 19.14Q115.34 16.95 123.11 16.27L123.21 16.37L123.22 16.38Q124.57 16.24 126.20 16.28L126.09 16.17L126.10 16.17Q126.04 16.12 129.01 16.12L129.12 16.22L129.18 16.29Q130.04 16.30 131.75 16.46L131.57 16.28L131.65 16.36Q131.07 17.22 130.04 20.31L130.14 20.40L130.22 20.48Q128.11 19.25 125.10 19.25L124.99 19.13L125.06 19.21Q124.19 19.10 123.39 19.17L123.56 19.35L123.49 19.27Q118.36 19.70 115.84 21.68L115.92 21.75L115.86 21.70Q113.82 23.27 113.67 26.62L113.62 26.57L113.74 26.70Q113.63 27.23 113.67 28.49L113.65 28.47L113.67 28.49Q113.82 33.36 116.22 35.46L116.26 35.50L116.25 35.49Q118.38 37.38 123.36 37.69L123.32 37.65L123.28 37.61Q126.50 37.85 129.50 36.06L129.55 36.11L129.44 36.00Q130.17 38.86 130.78 40.23L130.71 40.16L130.74 40.19Q128.63 40.44 126.99 40.40L127.07 40.48L126.94 40.35Q122.40 40.22 119.27 39.84ZM134.40 43.59L134.54 43.73L134.49 43.67Q132.63 40.60 131.94 38.01L132.07 38.13L131.92 37.99Q131.49 38.24 130.50 38.62L130.62 38.74L130.61 38.73Q130.21 37.87 130.02 37.03L130.03 37.05L129.65 35.33L129.70 35.39Q126.40 37.42 123.28 37.30L123.32 37.34L123.29 37.31Q119.07 37.16 116.75 35.41L116.68 35.35L116.75 35.41Q115.48 33.45 115.55 30.52L115.57 30.54L115.66 30.64Q115.68 26.01 118.16 23.88L118.17 23.89L118.22 23.95Q120.38 22.07 125.07 21.46L125.12 21.52L124.99 21.39Q125.85 21.33 126.58 21.33L126.59 21.35L126.62 21.37Q129.43 21.41 131.53 22.93L131.39 22.79L131.40 22.80Q131.88 20.66 133.10 17.42L133.15 17.47L133.14 17.46Q132.91 17.50 132.35 17.44L132.43 17.52L132.37 17.46Q131.71 17.29 131.44 17.29L131.49 17.34L131.48 17.33Q131.71 16.84 132.17 15.85L132.21 15.89L132.16 15.84Q132.01 15.92 129.52 15.84L129.44 15.76L129.53 15.85Q126.95 15.69 126.30 15.73L126.42 15.84L126.38 15.80Q115.86 16.14 112.40 18.73L112.27 18.60L112.30 18.63Q110.43 20.60 110.43 24.52L110.31 24.40L110.36 24.46Q110.31 25.51 110.42 28.21L110.36 28.15L110.55 28.33Q110.57 31.79 110.80 33.50L110.80 33.50L110.74 33.44Q111.27 36.71 112.86 38.23L112.75 38.12L112.84 38.21Q113.24 38.80 114.50 39.94L114.50 39.94L114.59 40.03Q117.73 41.69 122.98 42.45L122.98 42.44L123.10 42.56Q129.51 43.49 134.49 43.68Z"/><path fill="#222" d="M20.93 28.96L20.83 28.85L20.99 29.01Q18.32 28.89 17.29 30.07L17.36 30.14L17.34 30.12Q16.29 31.28 16.29 33.91L16.37 33.99L16.29 33.91Q16.31 39.03 20.91 38.84L20.82 38.74L20.98 38.90Q22.97 38.99 24.32 37.43L24.26 37.37L24.25 37.35Q25.66 35.85 25.43 33.79L25.51 33.87L25.53 33.90Q25.53 31.34 24.65 30.31L24.69 30.35L24.64 30.30Q23.20 29.02 21.00 29.02ZM25.94 38.72L25.97 38.75L25.99 38.78Q24.73 41.16 20.04 41.16L20.08 41.20L18.70 41.26L18.56 41.13Q16.34 41.26 15.23 40.12L15.11 40.00L15.13 40.02Q14.16 39.05 13.90 36.65L13.78 36.54L13.85 36.60Q13.78 35.20 13.70 33.41L13.56 33.27L13.66 33.37Q13.62 32.38 13.47 30.44L13.40 30.37L13.43 30.40Q13.24 26.02 18.42 26.02L18.44 26.05L20.00 26.04L20.04 26.09Q23.00 26.15 25.09 27.44L25.03 27.38L25.10 27.45Q25.89 27.94 26.39 28.62L26.43 28.66L26.25 28.49Q26.67 27.84 27.20 26.21L27.08 26.08L27.21 26.21Q28.42 26.02 30.75 25.41L30.61 25.27L30.72 25.38Q28.17 29.64 28.17 34.90L28.03 34.76L28.11 34.84Q28.16 38.62 29.53 41.71L29.50 41.67L29.41 41.58Q28.37 41.38 26.47 41.15L26.44 41.12L26.50 41.18Q26.18 40.22 25.87 38.66ZM29.25 43.94L29.23 43.91L31.37 44.41L31.47 44.52Q32.75 44.88 33.74 45.34L33.73 45.33L33.67 45.27Q30.00 40.91 30.00 34.82L29.95 34.78L29.98 34.81Q30.02 30.31 32.15 26.50L32.07 26.43L32.15 26.51Q31.58 26.81 30.25 27.19L30.08 27.03L30.23 27.17Q30.49 26.33 31.36 24.80L31.27 24.71L31.37 24.81Q30.70 24.91 26.70 25.74L26.82 25.86L26.20 27.63L26.16 27.60Q24.43 25.91 20.02 25.68L20.09 25.75L20.11 25.77Q18.97 25.78 16.73 25.93L16.60 25.80L16.64 25.85Q12.93 26.17 13.04 30.20L13.07 30.23L13.10 30.26Q13.23 33.59 13.80 38.04L13.74 37.98L13.84 38.50L13.90 38.56Q13.91 39.29 14.71 40.40L14.78 40.46L14.70 40.39Q14.97 40.66 15.16 40.77L15.13 40.74L15.13 40.74Q15.31 41.15 15.69 41.72L15.66 41.69L15.63 41.66Q17.17 43.31 20.55 43.50L20.50 43.45L20.58 43.53Q22.19 43.61 22.34 43.61L22.21 43.48L23.90 43.61L23.82 43.53Q26.97 43.48 28.19 41.92L28.24 41.97L28.18 41.92Q28.66 42.66 29.27 43.95ZM22.69 31.17L22.73 31.21L22.68 31.16Q24.10 31.25 24.94 31.71L24.79 31.56L24.80 31.57Q25.22 32.48 25.22 33.92L25.24 33.94L25.17 33.88Q25.43 35.85 24.15 37.28L24.09 37.21L24.13 37.26Q22.78 38.61 20.87 38.41L20.92 38.46L20.90 38.44Q19.41 38.40 18.38 37.98L18.41 38.00L18.50 38.10Q18.15 37.10 18.15 35.88L18.22 35.95L18.18 35.91Q18.25 32.33 20.88 31.37L21.03 31.53L21.03 31.52Q21.87 31.15 22.67 31.15Z"/><path fill="#444" d="M104.68 23.34L104.70 23.36L104.71 23.38Q102.83 19.13 96.63 19.32L96.77 19.46L96.63 19.33Q92.29 19.51 90.31 20.96L90.34 21.00L90.32 20.97Q87.86 22.66 87.86 26.77L87.91 26.82L87.85 28.63L87.85 28.63Q87.89 37.51 96.92 37.51L96.84 37.43L96.96 37.55Q98.98 37.52 100.47 36.72L100.53 36.78L100.52 36.77Q102.26 35.66 102.11 33.79L102.06 33.75L102.06 33.74Q102.00 31.78 98.31 30.87L98.34 30.89L96.23 30.73L96.23 30.73Q95.28 30.73 94.33 30.77L94.33 30.77L94.36 30.80Q94.40 29.89 94.36 27.98L94.48 28.10L94.36 27.98Q102.07 28.04 106.26 27.70L106.21 27.65L106.15 27.59Q106.25 28.57 106.25 29.36L106.09 29.21L106.18 29.30Q106.10 30.02 106.14 30.82L106.28 30.96L106.21 30.88Q105.07 30.85 105.07 30.85L105.04 30.82L105.11 30.90Q103.66 30.81 104.04 30.81L104.05 30.82L104.12 30.89Q105.16 32.46 105.54 34.44L105.55 34.46L105.53 34.43Q105.76 35.27 105.76 35.73L105.72 35.69L105.79 35.75Q105.71 40.33 96.92 40.33L96.83 40.23L96.99 40.40Q89.81 40.34 87.22 38.24L87.20 38.22L87.21 38.23Q85.28 35.92 85.28 30.86L85.28 30.86L85.14 30.72Q85.12 29.63 84.97 26.93L85.10 27.06L85.08 27.04Q84.89 24.65 84.93 23.27L84.99 23.34L85.01 23.36Q85.06 20.44 86.43 18.84L86.50 18.91L86.38 18.79Q88.96 16.76 93.83 16.57L93.93 16.67L96.59 16.58L96.44 16.44Q99.60 16.39 103.02 16.81L103.03 16.82L102.96 16.75Q106.73 17.25 107.69 20.49L107.80 20.59L107.73 20.53Q106.77 21.51 104.68 23.34ZM106.02 25.48L106.11 25.45L106.06 25.41Q107.42 24.49 109.29 22.51L109.14 22.36L109.12 22.34Q108.85 21.42 107.86 19.71L107.86 19.70L107.82 19.67Q106.80 17.16 102.99 16.51L102.97 16.50L102.96 16.49Q100.77 16.31 96.47 16.01L96.57 16.11L93.77 16.12L93.73 16.09Q88.66 16.39 86.07 18.37L86.05 18.35L86.05 18.34Q84.73 20.03 84.62 23.11L84.48 22.98L84.60 23.10Q84.52 22.56 84.75 28.05L84.76 28.06L84.78 28.07Q84.86 29.49 84.94 32.23L84.83 32.12L84.93 32.22Q85.09 36.65 86.84 38.59L86.94 38.68L86.89 38.63Q87.20 39.40 88.08 40.28L88.07 40.28L88.06 40.26Q90.91 42.09 96.43 42.43L96.58 42.58L99.34 42.63L99.45 42.74Q101.02 42.83 103.04 42.72L103.11 42.78L103.07 42.74Q104.56 42.71 106.65 42.18L106.51 42.03L106.59 42.12Q108.46 41.55 108.43 39.23L108.50 39.30L108.44 39.25Q108.42 37.97 107.35 35.19L107.43 35.27L107.33 35.16Q107.03 34.25 106.49 33.45L106.49 33.45L106.65 33.62Q107.26 33.65 108.44 33.84L108.31 33.71L108.34 33.74Q108.10 30.19 108.14 29.50L107.99 29.35L108.01 29.38Q107.76 29.51 107.35 29.47L107.33 29.46L107.33 29.45Q106.94 29.40 106.55 29.48L106.46 29.38L106.59 29.52Q106.60 28.43 106.68 27.36L106.62 27.30L106.67 27.35Q100.39 27.85 94.11 27.73L94.09 27.72L94.00 27.63Q94.15 28.65 94.15 29.57L94.14 29.56L94.18 31.34L94.17 31.33Q94.42 31.20 94.84 31.17L94.97 31.30L94.94 31.27Q95.36 31.27 95.82 31.27L95.79 31.24L95.67 31.12Q95.78 31.69 95.82 32.18L95.69 32.06L95.79 32.16Q95.87 32.69 95.83 33.19L95.81 33.16L95.66 33.01Q96.91 33.20 97.94 33.16L97.76 32.98L97.76 32.98Q98.83 33.03 99.86 33.07L99.83 33.04L99.88 33.09Q100.93 33.33 101.80 33.71L101.86 33.77L101.80 33.75L101.76 33.71Q101.95 35.27 100.27 36.18L100.25 36.16L100.28 36.19Q98.65 37.15 96.94 37.15L96.91 37.12L96.87 37.08Q93.17 37.23 90.74 35.48L90.73 35.47L90.68 35.42Q89.67 33.35 89.83 30.80L89.89 30.86L89.83 30.81Q90.13 26.00 91.97 24.00L92.02 24.04L92.03 24.05Q93.79 21.97 98.48 21.67L98.59 21.78L98.55 21.74Q102.21 21.52 104.15 23.31L104.10 23.26L104.09 23.24Q104.25 23.44 104.36 23.63L104.23 23.50L104.35 23.50L104.47 23.63Q105.18 24.45 105.75 25.56L105.72 25.52L106.08 25.54Z"/><path fill="#222" d="M49.33 39.83L49.36 39.86L49.32 39.82Q47.40 39.79 45.38 39.99L45.31 39.91L45.30 39.91Q46.11 34.82 46.11 29.98L46.07 29.94L45.94 29.81Q46.05 25.01 45.40 19.79L45.47 19.86L45.51 19.90Q40.88 19.46 37.68 17.78L37.71 17.81L36.90 15.97L36.94 16.01Q36.74 15.51 36.13 14.29L36.12 14.28L36.05 14.21Q41.25 17.01 47.26 17.20L47.28 17.22L47.19 17.13Q52.99 17.22 58.44 15.16L58.46 15.19L58.40 15.13Q57.87 16.73 57.22 18.55L57.06 18.39L57.16 18.50Q53.58 19.83 49.32 20.02L49.21 19.90L49.34 20.04Q49.06 24.97 49.06 29.92L49.03 29.89L49.08 29.94Q48.96 34.78 49.27 39.76ZM59.24 14.60L59.22 14.57L59.16 14.52Q53.31 16.77 47.10 16.58L47.12 16.61L47.06 16.54Q40.52 16.47 35.42 13.50L35.39 13.47L35.33 13.42Q36.07 14.68 37.36 17.96L37.43 18.03L37.51 18.11Q38.10 18.36 39.36 18.93L39.36 18.92L39.24 18.81Q39.62 19.65 39.97 21.17L39.92 21.13L39.94 21.15Q42.33 22.09 45.38 22.32L45.31 22.26L45.30 22.25Q45.70 25.95 45.70 29.72L45.64 29.66L45.62 29.64Q45.69 35.08 44.89 40.45L44.91 40.46L44.77 40.33Q46.49 40.26 47.02 40.26L47.03 40.27L47.07 40.31Q47.11 40.65 47.05 41.32L47.09 41.35L46.98 41.24Q47.05 42.04 47.05 42.38L47.02 42.35L46.89 42.21Q48.19 42.26 49.71 42.34L49.57 42.20L49.60 42.23Q50.65 42.40 52.47 42.55L52.44 42.52L52.48 42.56Q51.17 37.55 51.05 32.37L51.03 32.35L51.11 32.43Q50.84 26.98 51.37 22.07L51.39 22.08L51.53 22.23Q55.32 21.52 58.48 20.30L58.59 20.42L58.66 20.49Q59.17 17.92 60.20 15.86L60.37 16.03L60.25 15.91Q59.00 16.68 58.20 16.98L58.20 16.98L58.21 17.00Q58.58 15.65 59.15 14.50Z"/><path fill="#444" d="M81.18 34.63L81.18 34.64L81.21 34.67Q81.28 38.32 78.13 39.61L78.12 39.61L78.12 39.61Q76.11 40.30 71.69 40.45L71.79 40.55L71.79 40.55Q66.93 40.60 64.69 39.42L64.75 39.49L64.78 39.51Q62.95 38.22 63.10 34.87L63.07 34.84L62.99 34.76Q63.08 34.20 63.27 32.22L63.20 32.15L63.23 32.18Q63.38 30.62 63.38 29.63L63.31 29.56L63.43 29.67Q63.30 21.55 59.11 14.13L59.26 14.27L59.22 14.24Q60.41 14.93 63.38 16.00L63.33 15.94L63.34 15.96Q66.24 22.70 66.24 30.09L66.16 30.01L66.21 30.06Q66.23 30.69 66.14 31.87L66.17 31.90L66.06 31.80Q66.07 33.08 66.07 33.69L66.10 33.71L65.96 33.58Q65.97 35.87 67.53 36.86L67.59 36.92L67.51 36.84Q69.30 37.79 72.27 37.79L72.12 37.64L72.25 37.78Q74.81 37.70 76.44 36.52L76.51 36.59L76.39 36.47Q78.33 35.21 78.18 32.70L78.20 32.72L78.15 32.67Q78.15 31.38 78.15 30.04L78.00 29.89L77.99 29.89Q78.15 23.00 80.55 16.49L80.53 16.47L82.61 15.81L82.71 15.91Q83.58 15.53 84.69 15.07L84.72 15.10L84.79 15.17Q80.91 22.15 80.91 29.73L81.04 29.85L81.01 29.82Q81.07 30.72 81.20 32.35L81.20 32.36L81.17 32.32Q81.22 33.88 81.22 34.68ZM83.38 35.57L83.46 35.66L83.35 35.55Q82.41 30.54 83.14 25.44L83.14 25.44L83.26 25.57Q83.98 20.35 86.38 15.97L86.45 16.03L86.41 16.00Q85.73 16.23 84.28 16.87L84.34 16.93L84.30 16.89Q84.76 16.13 85.56 14.57L85.48 14.49L85.55 14.57Q81.93 15.63 80.03 15.97L80.02 15.97L80.14 16.09Q77.67 22.49 77.67 29.76L77.85 29.93L77.77 29.86Q77.71 31.17 77.79 32.58L77.73 32.52L77.73 32.52Q78.06 35.09 76.27 36.31L76.13 36.17L76.17 36.21Q74.69 37.28 72.17 37.32L72.19 37.33L72.13 37.27Q69.50 37.46 68.05 36.70L68.00 36.64L67.97 36.61Q67.82 36.05 67.75 35.59L67.72 35.56L67.74 35.58Q67.84 35.23 67.95 34.73L67.96 34.74L67.97 34.75Q68.06 32.29 68.06 29.97L68.02 29.93L68.17 30.08Q68.18 24.26 66.66 18.36L66.53 18.23L66.59 18.30Q65.79 18.10 64.38 17.76L64.50 17.88L64.43 17.81Q64.04 16.51 63.59 15.60L63.58 15.58L63.66 15.67Q60.90 14.85 58.50 13.48L58.47 13.44L58.43 13.41Q63.15 21.10 63.15 29.81L63.07 29.74L63.17 29.83Q63.18 31.49 63.03 33.20L63.00 33.16L63.01 33.18Q62.63 35.43 62.71 36.61L62.80 36.70L62.72 36.62Q62.85 38.54 64.11 39.68L64.19 39.76L64.22 39.79Q65.09 42.15 69.74 42.53L69.92 42.71L69.85 42.64Q71.87 42.73 74.00 42.80L74.09 42.89L73.99 42.78Q79.37 42.99 82.15 42.04L82.22 42.11L82.19 42.08Q83.90 41.31 83.90 39.26L83.87 39.23L83.77 39.13Q83.79 38.01 83.33 35.53Z"/></svg>