<svg xmlns="http://www.w3.org/2000/svg" width="150" height="50" viewBox="0,0,150,50"><path fill="#333" d="M81.74 23.07L81.73 23.06L81.79 23.12Q79.91 25.77 77.25 31.41L77.32 31.48L75.26 35.66L75.30 35.71Q74.36 37.54 73.03 39.79L73.08 39.84L73.11 39.87Q73.42 39.72 71.75 39.76L71.77 39.79L71.76 39.78Q71.79 39.80 70.53 39.80L70.50 39.77L70.54 39.82Q69.80 38.32 66.87 31.16L66.94 31.23L66.82 31.11Q64.66 25.75 62.57 22.74L62.60 22.78L62.73 22.91Q63.33 25.82 63.33 28.98L63.51 29.17L63.43 29.09Q63.34 35.50 60.37 41.06L60.41 41.11L60.45 41.14Q59.04 41.41 56.68 42.13L56.70 42.15L56.74 42.19Q60.36 36.45 60.36 29.22L60.45 29.31L60.53 29.39Q60.42 20.32 55.01 13.36L55.01 13.36L55.01 13.36Q56.73 14.16 59.09 14.85L59.08 14.84L58.97 14.73Q66.10 21.55 72.19 34.88L72.25 34.94L72.17 34.85Q75.61 27.79 77.82 24.29L77.87 24.34L77.86 24.33Q81.43 18.53 85.39 15.07L85.49 15.17L85.50 15.18Q86.74 14.93 89.10 14.17L88.98 14.05L89.11 14.19Q83.96 20.65 83.96 29.25L83.99 29.28L84.09 29.38Q83.99 35.94 87.41 41.46L87.56 41.61L87.44 41.49Q86.17 41.25 83.43 40.64L83.38 40.58L83.33 40.54Q80.95 35.72 80.95 29.74L80.97 29.76L81.00 29.80Q81.13 26.49 81.81 23.14ZM83.12 40.90L83.15 40.92L83.27 41.05Q83.86 41.07 85.31 41.34L85.44 41.47L85.28 41.31Q85.75 42.08 86.70 43.57L86.68 43.54L86.72 43.58Q88.97 44.12 92.43 45.33L92.42 45.33L92.33 45.24Q86.08 38.90 86.08 29.08L86.03 29.03L85.98 28.99Q86.07 21.34 90.44 15.21L90.51 15.28L88.31 15.97L88.23 15.89Q89.33 14.44 89.97 13.56L90.00 13.59L89.94 13.53Q88.03 14.13 85.40 14.66L85.34 14.60L85.45 14.72Q78.55 20.68 72.49 33.28L72.65 33.43L72.66 33.44Q67.42 22.41 62.47 17.16L62.47 17.16L62.43 17.12Q62.13 17.13 61.56 17.01L61.45 16.90L60.35 15.72L60.38 15.76Q59.73 15.03 59.04 14.42L59.08 14.46L59.05 14.43Q55.99 13.42 54.20 12.70L54.19 12.69L54.25 12.75Q60.26 19.97 60.26 29.38L60.09 29.21L60.09 29.21Q60.11 36.85 55.96 42.71L55.94 42.69L56.10 42.84Q56.75 42.58 58.04 42.16L57.99 42.11L58.09 42.21Q57.91 42.41 56.50 44.51L56.53 44.53L56.47 44.48Q58.31 44.03 61.81 43.27L61.84 43.29L61.70 43.16Q65.52 36.20 65.33 28.43L65.33 28.43L65.40 28.51Q66.82 32.41 70.29 40.29L70.38 40.37L70.41 40.40Q70.60 40.29 70.82 40.29L70.83 40.30L71.23 40.16L71.28 40.21Q71.71 40.87 72.51 42.17L72.61 42.26L72.59 42.24Q74.12 42.14 74.12 42.14L74.15 42.16L74.29 42.30Q75.11 42.09 75.75 42.17L75.78 42.20L75.77 42.19Q77.42 38.24 80.77 30.24L80.73 30.21L80.74 30.22Q80.61 35.64 83.20 40.97Z"/><path fill="#333" d="M120.47 40.11L120.64 40.27L118.18 33.36L118.15 33.33Q113.76 20.72 107.82 14.32L107.87 14.37L107.90 14.41Q109.87 15.42 112.46 16.03L112.46 16.03L112.52 16.09Q117.68 22.39 122.02 35.15L121.90 35.02L121.98 35.11Q124.90 26.87 125.59 25.28L125.72 25.41L125.56 25.24Q128.06 19.76 130.88 16.45L130.92 16.48L130.92 16.48Q133.02 16.15 135.65 15.28L135.46 15.09L135.51 15.14Q130.90 19.70 127.86 26.94L127.97 27.05L127.96 27.04Q126.62 30.76 122.93 40.28L122.79 40.14L122.80 40.15Q122.30 40.22 121.73 40.18L121.64 40.10L121.72 40.17Q121.10 40.13 120.53 40.17ZM125.65 42.69L125.65 42.70L125.55 42.59Q128.39 32.64 129.95 28.61L129.84 28.50L129.83 28.48Q132.86 20.82 137.28 15.95L137.43 16.10L137.39 16.06Q136.38 16.46 134.29 17.19L134.12 17.02L135.33 15.75L135.38 15.81Q135.88 15.04 136.48 14.40L136.48 14.40L136.49 14.40Q133.67 15.39 130.66 15.96L130.75 16.05L130.63 15.93Q126.42 21.43 122.54 32.89L122.47 32.82L122.51 32.85Q118.78 22.65 115.58 18.27L115.66 18.36L115.70 18.40Q115.20 18.20 114.33 18.05L114.38 18.10L114.43 18.15Q114.04 17.61 112.44 15.56L112.55 15.66L112.50 15.61Q109.50 14.86 106.79 13.45L106.95 13.60L106.89 13.55Q113.39 20.50 117.76 33.29L117.87 33.40L117.85 33.38Q119.01 36.97 120.19 40.54L120.33 40.69L120.25 40.61Q120.68 40.74 121.52 40.62L121.41 40.51L121.41 40.51Q121.79 41.24 122.48 42.57L122.50 42.59L122.57 42.67Q123.43 42.61 124.15 42.68L124.02 42.55L124.09 42.62Q124.90 42.70 125.66 42.70Z"/><path fill="#333" d="M96.97 18.49L96.89 18.40L96.84 18.36Q96.24 18.86 96.09 19.66L96.15 19.72L96.00 24.71L96.02 24.73Q97.21 24.78 99.41 24.51L99.49 24.59L99.37 24.47Q99.29 24.84 99.25 25.68L99.24 25.67L99.31 25.74Q99.37 26.60 99.37 27.05L99.24 26.93L97.69 27.05L97.69 27.05Q97.01 27.25 96.14 27.25L96.06 27.17L96.06 27.17Q96.11 31.40 96.03 39.78L96.06 39.81L96.04 39.79Q93.75 39.78 92.26 40.46L92.31 40.52L92.33 40.53Q93.31 34.28 93.19 27.05L93.33 27.18L93.32 27.18Q92.66 27.12 91.37 26.86L91.39 26.88L91.25 26.74Q91.29 25.79 91.10 23.85L91.09 23.84L91.17 23.92Q92.18 24.31 93.13 24.50L93.15 24.53L93.20 24.58Q93.17 23.94 92.87 21.46L92.76 21.36L92.74 21.34Q92.58 19.35 92.58 18.40L92.67 18.49L92.67 18.49Q92.57 16.72 93.98 16.15L93.93 16.09L94.04 16.20Q94.79 15.77 99.62 14.93L99.67 14.99L99.77 15.09Q100.46 14.82 101.30 14.71L101.39 14.80L101.23 14.64Q101.02 15.41 100.86 16.29L100.90 16.33L100.72 18.02L100.71 18.00Q99.93 17.71 99.43 17.83L99.45 17.85L99.56 17.96Q98.88 17.89 96.98 18.50ZM102.32 19.54L102.37 19.58L102.34 19.56Q102.80 17.46 103.41 14.91L103.24 14.75L103.27 14.77Q102.74 15.20 101.45 15.81L101.40 15.76L101.73 13.99L101.86 14.13Q100.55 14.23 98.08 14.76L98.20 14.88L98.10 14.78Q96.96 14.90 93.76 15.81L93.73 15.79L93.67 15.72Q92.28 16.31 92.28 18.17L92.19 18.09L92.21 18.11Q92.12 18.32 92.20 18.67L92.32 18.79L92.19 18.66Q92.40 19.97 92.51 21.30L92.62 21.41L92.73 24.00L92.83 24.10Q91.50 23.76 90.85 23.30L90.68 23.12L90.78 23.22Q90.86 24.14 90.90 25.17L90.83 25.10L91.10 27.23L91.05 27.19Q91.72 27.32 92.52 27.40L92.61 27.49L92.65 29.62L92.97 29.56L93.02 29.62Q92.80 35.64 91.81 41.08L91.75 41.02L91.74 41.01Q92.80 40.59 93.98 40.32L93.95 40.29L93.86 42.44L93.90 42.48Q95.17 42.23 96.46 42.19L96.39 42.12L96.46 42.19Q97.65 42.12 98.90 42.39L98.82 42.30L98.87 42.36Q98.02 37.36 98.02 29.40L97.96 29.34L97.95 29.33Q99.04 29.31 101.13 29.39L101.22 29.48L101.17 27.56L101.18 27.57Q101.27 26.71 101.31 25.76L101.33 25.78L101.16 25.61Q100.81 25.83 99.75 26.10L99.59 25.95L99.76 26.12Q99.73 25.39 99.84 24.06L99.78 24.00L99.76 23.98Q98.89 24.18 98.09 24.26L98.25 24.41L98.15 24.31Q98.18 22.93 98.30 21.53L98.29 21.52L98.18 21.41Q98.36 20.79 98.89 20.45L99.00 20.56L99.04 20.60Q99.98 19.89 100.79 19.82L100.72 19.75L100.75 19.77Q101.59 19.72 102.42 19.64Z"/><path fill="#444" d="M46.60 19.64L46.53 19.57L46.66 19.70Q44.65 19.79 43.70 19.94L43.70 19.94L43.61 19.84Q42.10 20.20 40.88 20.73L40.87 20.73L40.91 20.76Q37.43 22.24 37.32 26.92L37.31 26.91L37.19 26.79Q37.16 29.50 37.81 32.44L37.75 32.38L37.73 32.36Q38.67 36.45 42.29 37.64L42.37 37.72L42.20 37.55Q44.18 38.20 45.63 38.04L45.71 38.12L46.02 37.98L46.06 38.02Q46.15 37.92 46.35 37.96L46.48 38.10L46.46 38.08Q46.63 38.10 46.78 38.06L46.82 38.09L46.76 38.03Q49.40 37.78 50.77 37.21L50.76 37.20L47.19 33.67L47.22 33.69Q47.44 33.28 48.05 32.67L48.13 32.74L49.09 31.88L49.00 31.78Q50.88 33.89 52.86 35.95L52.94 36.03L52.88 35.97Q55.24 34.18 55.51 28.81L55.42 28.73L55.40 28.71Q55.47 27.79 55.47 26.87L55.55 26.96L55.47 26.88Q55.53 21.26 50.47 20.16L50.35 20.04L50.51 20.20Q49.05 19.73 46.53 19.57ZM59.44 41.77L59.44 41.77L59.41 41.74Q58.77 42.13 57.59 43.00L57.72 43.13L53.22 39.35L53.30 39.43Q50.83 40.66 46.56 40.69L46.38 40.51L46.47 40.60Q39.98 40.77 37.16 38.52L37.16 38.52L37.17 38.53Q35.25 36.61 34.79 33.64L34.90 33.75L34.90 33.75Q34.67 31.92 34.29 28.34L34.35 28.40L34.39 28.45Q34.33 27.66 34.22 25.91L34.17 25.86L34.23 25.93Q34.05 24.34 34.09 23.46L34.11 23.48L34.09 23.47Q34.18 20.39 35.93 18.83L35.88 18.78L35.97 18.87Q37.46 17.50 40.66 17.01L40.63 16.99L40.57 16.92Q43.14 16.64 46.03 16.71L46.05 16.73L46.02 16.70Q53.50 16.80 56.62 19.16L56.65 19.19L56.72 19.26Q58.87 21.37 58.61 26.28L58.54 26.21L58.61 26.29Q58.31 29.83 58.12 31.16L58.16 31.20L58.14 31.18Q57.53 35.71 55.21 38.03L55.28 38.10L55.14 37.97Q56.72 39.31 59.46 41.79ZM54.59 17.50L54.57 17.49L54.62 17.53Q52.50 16.71 45.99 16.21L45.99 16.21L46.11 16.33Q44.64 16.27 41.86 16.39L41.83 16.35L41.80 16.33Q37.65 16.63 35.41 18.61L35.45 18.66L35.50 18.70Q33.64 19.96 33.64 23.12L33.72 23.20L33.78 23.26Q33.65 23.97 33.80 25.68L33.80 25.69L33.80 25.69Q34.01 27.46 34.01 28.33L33.98 28.30L34.09 28.41Q34.13 30.05 34.51 33.63L34.58 33.70L34.48 33.60Q34.81 36.44 36.41 38.50L36.58 38.67L36.60 38.69Q36.91 39.49 38.13 40.63L38.09 40.60L38.07 40.57Q40.75 42.53 45.93 42.80L45.95 42.82L46.07 42.94Q46.41 42.94 48.81 43.05L48.64 42.88L48.81 43.05Q53.44 43.04 55.72 41.97L55.88 42.13L55.73 41.98Q56.77 42.83 61.49 46.41L61.44 46.36L61.47 46.39Q61.93 45.70 63.22 44.72L63.27 44.76L63.35 44.84Q62.47 44.16 61.67 43.47L61.55 43.35L60.03 42.02L60.10 41.94L60.15 41.98Q59.54 41.49 58.32 40.46L58.33 40.47L58.21 40.35Q60.13 37.85 60.13 33.32L60.11 33.30L60.21 33.40Q60.11 32.89 60.15 32.05L60.13 32.03L60.14 32.04Q60.27 31.30 60.27 30.88L60.25 30.86L60.18 30.78Q60.20 25.28 59.47 22.92L59.50 22.94L59.57 23.01Q59.23 21.76 58.35 20.69L58.34 20.68L58.37 20.72Q57.49 18.50 54.56 17.47ZM48.51 22.00L48.46 21.96L48.48 21.97Q52.52 21.87 54.35 23.47L54.42 23.54L54.36 23.48Q54.95 24.72 55.07 26.05L55.17 26.16L55.04 26.03Q55.15 27.31 55.07 28.68L55.11 28.72L55.03 28.64Q54.87 33.77 52.93 35.48L52.84 35.39L52.84 35.39Q51.55 34.10 49.03 31.36L49.01 31.34L48.99 31.32Q48.14 31.99 46.58 33.55L46.66 33.63L46.62 33.60Q47.29 34.30 48.43 35.48L48.46 35.51L48.39 35.56L48.38 35.55Q48.84 35.97 49.87 37.03L50.00 37.16L49.91 37.08Q48.90 37.32 46.58 37.63L46.58 37.63L46.06 37.64L45.65 37.64L45.61 37.65L45.66 37.70Q42.27 37.77 40.29 36.13L40.25 36.10L40.26 36.10Q39.08 33.86 39.12 30.74L39.15 30.77L39.18 30.80Q39.26 22.01 48.44 21.94Z"/><path fill="#333" d="M21.52 40.26L21.51 40.25L21.44 40.18Q18.09 40.41 16.45 39.87L16.31 39.73L16.30 39.73Q14.33 39.08 14.02 35.70L14.19 35.86L15.46 34.62L15.62 34.78Q16.35 34.26 17.12 33.76L16.95 33.59L17.04 33.69Q16.69 35.51 18.29 36.72L18.43 36.87L18.43 36.87Q19.65 37.82 21.78 37.63L21.79 37.64L21.79 37.64Q26.25 37.30 26.06 33.76L25.91 33.61L25.95 33.65Q25.86 31.46 23.23 30.25L23.24 30.25L23.25 30.26Q20.44 29.24 18.08 28.02L17.93 27.88L18.01 27.96Q15.52 26.68 14.53 22.00L14.51 21.98L14.36 21.83Q14.27 21.40 14.15 20.63L14.19 20.67L14.21 20.69Q14.15 19.95 14.23 19.38L14.25 19.39L14.15 19.30Q14.33 17.73 15.59 17.27L15.69 17.37L15.66 17.34Q17.94 16.36 21.94 16.55L22.03 16.63L22.06 16.66Q23.82 16.71 24.62 16.79L24.55 16.72L24.59 16.75Q26.15 17.03 27.22 17.48L27.26 17.52L27.27 17.53Q29.34 17.97 29.57 20.44L29.59 20.46L29.55 20.43Q28.43 21.06 26.23 22.39L26.35 22.52L26.37 22.53Q25.79 19.37 21.42 19.37L21.43 19.38L21.42 19.37Q19.63 19.48 18.64 20.17L18.67 20.20L18.63 20.16Q17.42 20.63 17.65 22.42L17.56 22.33L17.57 22.33Q18.00 24.71 20.97 26.23L20.87 26.14L20.94 26.20Q21.42 26.38 25.91 28.02L25.89 27.99L25.81 27.91Q28.59 29.55 29.01 33.93L28.94 33.86L29.04 33.96Q28.98 34.05 29.05 35.30L28.93 35.19L28.99 35.25Q29.08 38.03 27.52 39.14L27.45 39.07L27.60 39.22Q25.72 40.16 21.53 40.27ZM23.73 42.55L23.75 42.56L23.74 42.56Q25.34 42.79 27.32 42.79L27.33 42.80L27.28 42.75Q29.27 42.64 30.53 42.23L30.58 42.28L30.65 42.35Q31.73 41.37 31.66 39.59L31.73 39.65L31.74 39.67Q31.64 38.62 31.26 36.56L31.35 36.65L31.37 36.67Q30.40 31.93 28.31 30.07L28.27 30.03L28.26 30.02Q27.54 28.50 26.21 27.78L26.14 27.71L20.91 25.71L20.92 25.73Q20.60 25.55 20.14 25.33L20.10 25.29L19.95 24.88L19.99 24.57L19.97 24.55Q19.77 23.09 20.91 22.48L20.97 22.54L20.93 22.50Q21.62 21.86 23.33 21.67L23.50 21.84L23.36 21.69Q24.58 21.65 25.72 22.11L25.67 22.06L25.65 22.04Q25.80 22.23 25.99 23.07L25.93 23.01L26.06 23.14Q26.15 22.88 26.64 22.66L26.61 22.62L26.62 22.63Q27.46 23.66 27.57 24.80L27.59 24.82L27.50 24.73Q27.56 24.68 31.22 22.09L31.24 22.11L31.29 22.16Q31.06 19.57 29.61 18.89L29.44 18.71L29.43 18.70Q28.93 17.52 27.48 16.99L27.40 16.91L27.52 17.02Q25.26 16.25 22.06 16.25L22.08 16.27L21.94 16.12Q17.07 16.17 15.20 16.85L15.16 16.81L15.19 16.84Q13.88 17.31 13.76 18.99L13.84 19.07L13.78 19.00Q13.67 19.47 14.09 21.68L14.11 21.69L14.23 21.81Q14.77 25.44 16.94 27.69L16.95 27.69L16.95 27.70Q17.82 29.48 19.32 30.16L19.41 30.26L19.27 30.11Q20.78 30.80 24.70 32.36L24.70 32.37L24.77 32.47L25.49 32.89L25.36 32.79L25.42 32.85Q25.66 33.36 25.70 33.70L25.66 33.66L25.72 33.72Q25.68 37.07 21.76 37.22L21.85 37.31L21.81 37.28Q20.63 37.27 19.33 36.89L19.22 36.78L19.33 36.89Q18.95 36.01 18.95 35.29L19.00 35.34L19.00 35.34Q18.93 35.00 18.97 34.74L18.98 34.75L19.03 34.80Q18.64 35.05 17.84 35.55L17.87 35.58L17.88 35.59Q17.32 34.42 17.47 33.05L17.57 33.15L17.51 33.09Q15.49 34.35 13.89 35.75L13.88 35.74L13.82 35.68Q13.82 36.45 13.90 37.47L13.96 37.54L13.89 37.46Q14.18 39.17 15.48 39.93L15.51 39.96L15.53 39.98Q16.79 41.85 19.34 42.23L19.25 42.14L19.34 42.23Q20.96 42.51 23.89 42.70Z"/></svg>