<svg xmlns="http://www.w3.org/2000/svg" width="150" height="50" viewBox="0,0,150,50"><path fill="#111" d="M70.20 28.89L70.19 28.88L70.21 28.90Q67.77 29.01 66.74 30.19L66.73 30.18L66.72 30.17Q65.66 31.32 65.66 33.94L65.65 33.93L65.68 33.96Q65.53 38.92 70.14 38.73L70.31 38.90L70.23 38.82Q72.35 39.03 73.70 37.47L73.68 37.45L73.68 37.45Q75.03 35.89 74.80 33.83L74.86 33.89L74.87 33.90Q74.79 31.27 73.91 30.24L73.88 30.21L73.94 30.27Q72.45 28.94 70.25 28.94ZM75.17 38.62L75.31 38.76L75.31 38.76Q74.15 41.25 69.47 41.25L69.30 41.08L67.93 41.17L67.86 41.09Q65.51 41.10 64.40 39.96L64.50 40.05L64.41 39.96Q63.48 39.04 63.22 36.64L63.26 36.68L63.23 36.66Q63.03 35.12 62.95 33.33L62.98 33.36L62.91 33.28Q63.00 32.43 62.85 30.49L62.80 30.44L62.75 30.39Q62.74 26.19 67.91 26.19L67.77 26.04L69.48 26.19L69.36 26.07Q72.34 26.16 74.44 27.46L74.43 27.44L74.35 27.37Q75.15 27.86 75.64 28.55L75.73 28.63L75.71 28.61Q75.92 27.76 76.45 26.12L76.41 26.07L76.44 26.11Q77.64 25.90 79.96 25.29L80.06 25.39L79.97 25.30Q77.38 29.52 77.38 34.77L77.36 34.75L77.45 34.85Q77.50 38.63 78.87 41.71L78.81 41.65L78.70 41.54Q77.65 41.33 75.75 41.10L75.68 41.03L75.69 41.05Q75.62 40.33 75.32 38.77ZM78.56 43.91L78.52 43.87L80.80 44.52L80.86 44.58Q81.96 44.76 82.95 45.22L83.06 45.33L83.00 45.27Q79.43 41.01 79.43 34.92L79.36 34.85L79.30 34.79Q79.43 30.39 81.56 26.58L81.50 26.52L81.46 26.48Q80.79 26.69 79.46 27.07L79.38 27.00L79.50 27.11Q79.88 26.39 80.76 24.87L80.72 24.83L80.73 24.84Q80.21 25.08 76.22 25.92L76.11 25.82L75.47 27.58L75.63 27.73Q73.85 25.99 69.43 25.76L69.29 25.62L69.39 25.72Q68.21 25.68 65.96 25.83L65.92 25.79L66.08 25.95Q62.23 26.14 62.35 30.17L62.52 30.34L62.47 30.30Q62.59 33.61 63.16 38.07L63.05 37.96L63.24 38.57L63.22 38.54Q63.35 39.40 64.15 40.51L64.14 40.50L64.10 40.45Q64.22 40.57 64.41 40.68L64.44 40.72L64.40 40.68Q64.59 41.10 64.97 41.67L65.00 41.70L65.07 41.76Q66.39 43.20 69.78 43.39L69.94 43.55L69.83 43.44Q71.42 43.51 71.57 43.51L71.64 43.58L73.11 43.49L73.18 43.56Q76.48 43.66 77.69 42.09L77.68 42.08L77.65 42.05Q77.97 42.63 78.57 43.93ZM71.96 31.11L71.98 31.13L71.93 31.08Q73.33 31.15 74.17 31.60L74.20 31.63L74.18 31.61Q74.42 32.35 74.42 33.80L74.51 33.88L74.45 33.82Q74.72 35.81 73.44 37.23L73.47 37.26L73.36 37.15Q72.10 38.59 70.20 38.40L70.24 38.45L70.15 38.36Q68.76 38.41 67.73 37.99L67.68 37.94L67.84 38.10Q67.58 37.20 67.58 35.98L67.50 35.90L67.63 36.03Q67.75 32.49 70.38 31.54L70.36 31.52L70.26 31.42Q71.27 31.21 72.06 31.21Z"/><path fill="#333" d="M94.92 28.94L94.85 28.87L94.85 28.87Q92.35 28.93 91.33 30.11L91.34 30.13L91.29 30.08Q90.39 31.38 90.39 34.00L90.24 33.85L90.33 33.95Q90.35 39.06 94.95 38.87L94.91 38.83L94.86 38.78Q96.94 38.96 98.30 37.40L98.32 37.42L98.41 37.51Q99.76 35.95 99.53 33.90L99.53 33.89L99.50 33.86Q99.54 31.35 98.66 30.33L98.69 30.35L98.54 30.20Q97.18 28.99 94.97 28.99ZM99.98 38.77L100.00 38.78L99.82 38.61Q98.81 41.25 94.13 41.25L94.16 41.28L92.63 41.20L92.54 41.10Q90.26 41.18 89.15 40.04L89.22 40.11L89.06 39.94Q88.05 38.93 87.78 36.54L87.78 36.53L87.90 36.66Q87.71 35.13 87.63 33.34L87.62 33.33L87.63 33.34Q87.60 32.35 87.44 30.41L87.34 30.31L87.48 30.45Q87.27 26.05 92.45 26.05L92.51 26.11L94.14 26.19L94.01 26.05Q97.01 26.16 99.11 27.46L99.11 27.46L98.96 27.31Q99.81 27.86 100.31 28.54L100.41 28.65L100.34 28.57Q100.55 27.72 101.09 26.09L101.16 26.16L101.19 26.19Q102.45 26.04 104.77 25.43L104.69 25.36L104.60 25.26Q102.09 29.56 102.09 34.81L102.14 34.86L102.16 34.89Q102.05 38.51 103.42 41.59L103.54 41.72L103.53 41.70Q102.34 41.35 100.44 41.12L100.33 41.02L100.47 41.16Q100.14 40.17 99.83 38.61ZM103.25 43.93L103.30 43.98L105.47 44.52L105.50 44.55Q106.58 44.72 107.57 45.17L107.59 45.19L107.66 45.26Q104.07 40.99 104.07 34.90L104.08 34.91L104.08 34.90Q103.96 30.26 106.09 26.45L106.06 26.41L106.06 26.41Q105.57 26.81 104.24 27.19L104.20 27.14L104.13 27.08Q104.44 26.28 105.31 24.76L105.42 24.86L105.44 24.88Q104.80 25.01 100.81 25.85L100.79 25.83L100.16 27.59L100.24 27.68Q98.54 26.01 94.12 25.78L94.05 25.71L93.94 25.60Q92.94 25.74 90.69 25.89L90.76 25.96L90.70 25.90Q86.93 26.17 87.04 30.20L87.09 30.25L87.03 30.19Q87.17 33.53 87.74 37.98L87.73 37.97L87.85 38.51L87.78 38.44Q87.90 39.28 88.70 40.38L88.78 40.46L88.72 40.41Q88.82 40.51 89.01 40.62L89.12 40.73L89.15 40.76Q89.41 41.25 89.79 41.82L89.76 41.79L89.71 41.74Q91.03 43.18 94.42 43.37L94.61 43.56L94.56 43.51Q96.25 43.67 96.40 43.67L96.38 43.65L97.91 43.62L97.85 43.56Q101.13 43.65 102.35 42.09L102.22 41.95L102.27 42.00Q102.72 42.72 103.33 44.01ZM96.75 31.23L96.59 31.07L96.62 31.10Q98.06 31.20 98.89 31.66L98.87 31.64L98.88 31.65Q99.15 32.41 99.15 33.86L99.11 33.82L99.18 33.89Q99.39 35.81 98.12 37.24L98.13 37.26L98.11 37.24Q96.81 38.63 94.90 38.44L94.87 38.41L94.97 38.51Q93.52 38.51 92.49 38.09L92.40 38.00L92.43 38.03Q92.16 37.11 92.16 35.89L92.28 36.01L92.30 36.03Q92.36 32.43 94.99 31.48L95.01 31.51L94.97 31.47Q95.79 31.07 96.59 31.07Z"/><path fill="#333" d="M45.69 29.81L45.81 29.93L45.85 29.97Q45.47 29.82 45.17 29.82L45.24 29.89L45.17 29.82Q43.94 29.92 42.49 30.76L42.36 30.63L42.38 30.65Q41.02 31.72 41.02 33.63L41.17 33.77L41.10 33.71Q41.13 37.17 42.66 38.50L42.63 38.47L42.60 38.45Q43.54 39.61 45.83 39.61L45.92 39.70L45.88 39.67Q46.04 39.60 46.34 39.60L46.46 39.71L46.46 39.72Q48.18 39.72 49.32 38.09L49.32 38.08L49.22 37.99Q50.31 36.52 50.23 34.73L50.19 34.69L50.30 34.80Q50.29 34.25 50.29 33.83L50.33 33.87L50.19 33.74Q50.38 32.14 49.01 30.98L49.01 30.97L48.98 30.95Q47.50 29.68 45.71 29.83ZM50.26 40.05L50.29 40.08L50.20 39.99Q49.28 42.01 45.55 42.12L45.52 42.09L45.45 42.02Q42.11 42.18 40.51 40.58L40.56 40.63L40.55 40.62Q39.13 38.89 38.33 34.10L38.27 34.04L38.31 34.08Q38.02 32.34 38.02 31.08L37.89 30.95L37.92 30.98Q37.91 29.18 38.63 28.12L38.76 28.25L38.77 28.26Q40.08 26.83 43.05 26.83L42.92 26.69L43.01 26.78Q49.37 26.83 51.27 29.42L51.20 29.34L51.15 29.29Q51.44 28.59 51.85 26.99L51.79 26.93L51.82 26.95Q53.07 26.64 55.51 25.84L55.63 25.96L55.47 25.81Q53.18 31.59 52.95 37.91L52.80 37.75L52.85 37.81Q52.71 44.06 54.85 49.89L54.73 49.77L54.84 49.89Q53.12 49.27 51.34 49.01L51.23 48.90L51.32 49.00Q50.41 45.03 50.29 40.08ZM50.99 49.23L51.05 49.30L50.95 49.20Q51.78 49.45 53.19 49.75L53.08 49.65L53.09 49.65Q53.31 50.37 53.88 51.78L53.90 51.80L53.86 51.76Q56.46 52.49 58.74 53.78L58.71 53.76L58.79 53.83Q54.83 47.33 54.83 38.80L54.78 38.74L54.76 38.72Q54.87 32.48 57.35 26.70L57.25 26.60L57.32 26.66Q56.63 26.96 55.26 27.61L55.14 27.49L55.17 27.52Q55.52 26.77 56.17 25.21L56.09 25.14L56.08 25.12Q54.60 25.74 51.41 26.62L51.44 26.65L51.45 26.66Q51.36 27.25 51.05 28.43L51.05 28.43L51.01 28.39Q49.08 26.57 42.95 26.42L42.94 26.42L42.79 26.26Q39.68 26.27 38.31 27.76L38.36 27.81L38.21 27.65Q37.63 28.98 37.67 30.88L37.60 30.82L37.66 30.87Q37.70 33.81 38.69 37.58L38.65 37.54L38.70 37.59Q39.32 39.96 40.23 40.91L40.21 40.89L40.56 41.24L40.66 41.34Q41.80 44.08 47.25 44.31L47.23 44.29L47.19 44.26Q48.26 44.33 50.09 44.03L50.06 44.00L50.10 44.04Q50.38 46.95 50.99 49.23ZM47.63 32.17L47.62 32.16L47.63 32.16Q48.72 32.19 49.55 32.49L49.57 32.51L49.55 32.49Q49.77 33.05 49.89 33.66L49.95 33.72L49.81 33.58Q50.00 34.24 49.93 34.84L49.82 34.74L49.83 34.75Q49.92 36.74 48.89 38.04L48.79 37.93L48.77 37.91Q47.69 39.42 45.83 39.23L45.87 39.28L45.85 39.25Q44.63 39.34 43.68 38.92L43.60 38.84L43.67 38.90Q43.21 37.99 43.21 36.77L43.20 36.76L43.17 36.73Q43.15 36.41 43.15 36.10L43.30 36.25L43.15 36.10Q43.21 34.41 44.54 33.25L44.57 33.27L44.49 33.19Q45.82 32.03 47.57 32.11Z"/><path fill="#444" d="M116.52 32.98L116.48 32.94L116.53 32.98Q119.54 32.54 122.74 32.65L122.84 32.74L122.73 32.64Q122.76 30.16 122.76 27.76L122.78 27.78L122.76 27.75Q122.68 25.20 122.87 22.65L123.02 22.80L123.01 22.79Q121.62 24.34 116.41 32.86ZM126.32 40.23L126.45 40.36L126.44 40.34Q124.78 40.06 122.99 39.98L122.95 39.94L123.00 39.99Q122.67 37.49 122.56 35.02L122.70 35.16L122.55 35.01Q117.30 34.90 112.58 36.30L112.48 36.21L112.50 36.23Q112.62 35.74 112.81 34.75L112.97 34.90L112.79 34.73Q114.65 31.64 118.23 25.36L118.17 25.30L118.33 25.46Q121.12 20.48 124.54 16.60L124.50 16.55L124.62 16.68Q125.43 16.42 127.11 16.15L127.19 16.24L127.10 16.15Q125.21 22.60 125.21 29.64L125.21 29.64L125.18 29.61Q125.25 31.16 125.33 32.65L125.21 32.53L126.64 32.78L126.56 32.70Q127.25 32.82 127.86 32.93L127.88 32.96L127.81 32.89Q127.86 33.81 128.13 35.75L128.27 35.89L128.17 35.79Q126.99 35.57 125.50 35.38L125.45 35.32L125.50 35.37Q125.65 37.31 126.34 40.24ZM127.98 32.41L128.04 32.47L128.08 32.51Q127.98 32.52 127.79 32.52L127.74 32.47L127.30 32.41L127.27 32.38Q127.12 30.86 127.12 29.45L127.10 29.43L127.20 29.53Q127.29 23.23 129.35 17.21L129.27 17.14L129.23 17.10Q128.54 17.43 127.09 17.81L126.97 17.69L126.99 17.72Q127.23 16.96 127.68 15.55L127.65 15.52L127.67 15.54Q126.53 16.07 124.48 16.30L124.38 16.20L124.41 16.24Q120.45 20.53 115.23 29.90L115.15 29.82L117.39 26.31L117.32 26.24Q116.96 27.33 116.70 27.90L116.60 27.80L112.25 36.93L112.19 36.87Q112.75 36.63 113.89 36.25L114.05 36.40L113.77 36.51L113.84 36.58Q113.78 37.32 113.47 38.57L113.36 38.46L113.33 38.43Q117.59 37.24 122.42 37.43L122.42 37.43L122.40 37.41Q122.33 38.26 122.52 40.24L122.64 40.36L122.65 40.36Q123.60 40.24 124.66 40.36L124.73 40.42L124.71 40.40Q124.97 41.20 125.24 42.57L125.15 42.48L125.14 42.48Q127.13 42.79 130.14 43.71L130.00 43.56L130.04 43.60Q129.11 41.53 128.20 38.26L128.17 38.23L129.53 38.60L129.68 38.75Q130.38 38.99 131.06 39.34L130.97 39.24L130.87 39.14Q130.14 36.70 129.99 35.02L130.04 35.08L130.02 35.06Q129.54 35.00 128.40 34.77L128.31 34.68L128.36 34.72Q128.05 33.35 128.05 32.47ZM120.02 32.29L120.05 32.32L120.01 32.28Q120.80 31.02 122.36 28.47L122.33 28.43L122.48 28.58Q122.36 29.41 122.32 30.36L122.28 30.32L122.40 30.44Q122.38 31.41 122.42 32.37L122.31 32.26L122.41 32.36Q121.87 32.35 121.30 32.35L121.29 32.34L121.20 32.25Q120.76 32.42 120.15 32.42Z"/><path fill="#333" d="M21.96 41.21L21.95 41.20L20.24 41.21L20.17 41.14Q16.76 41.11 15.81 38.98L15.90 39.08L15.81 38.98Q16.93 37.89 18.37 36.79L18.43 36.85L18.47 36.88Q19.03 39.05 21.89 38.90L21.96 38.97L21.96 38.97Q22.67 38.84 23.70 38.61L23.70 38.61L23.65 38.56Q24.67 38.13 24.59 37.18L24.63 37.22L24.50 37.09Q24.45 36.02 22.66 35.33L22.68 35.34L18.88 33.83L18.92 33.88Q16.50 32.44 16.15 28.90L16.18 28.92L16.31 29.05Q16.11 26.92 18.28 26.35L18.25 26.32L18.12 26.18Q19.05 25.93 22.02 25.93L22.15 26.07L22.07 25.98Q27.03 26.06 27.94 28.58L27.89 28.52L27.83 28.47Q27.19 29.01 26.47 29.46L26.56 29.56L25.08 30.44L25.13 30.49Q24.70 28.65 21.47 28.42L21.40 28.36L21.46 28.42Q20.84 28.41 19.81 28.83L19.81 28.82L19.71 28.73Q19.28 29.20 19.28 30.31L19.24 30.27L19.16 30.19Q19.59 31.35 21.42 32.03L21.38 31.99L21.42 32.03Q22.53 32.46 25.20 33.56L25.06 33.42L25.06 33.43Q26.94 34.32 27.13 36.87L27.18 36.92L27.22 36.95Q27.17 37.48 27.10 38.47L27.13 38.50L27.18 38.55Q27.17 39.46 26.60 40.11L26.50 40.01L26.49 40.00Q24.93 41.13 21.88 41.13ZM26.71 43.80L26.56 43.64L26.59 43.67Q27.51 43.72 28.89 43.42L28.84 43.37L28.95 43.48Q30.05 42.83 29.86 41.61L29.73 41.49L29.83 41.58Q29.76 41.02 29.45 39.42L29.39 39.36L29.33 39.30Q28.84 36.41 27.05 35.19L27.19 35.33L27.10 35.24Q26.63 33.89 25.38 33.17L25.34 33.13L25.22 33.02Q24.13 32.76 21.65 31.81L21.66 31.81L21.57 31.72Q21.77 31.32 22.04 31.20L22.04 31.20L22.04 31.20Q22.54 30.64 23.19 30.60L23.34 30.75L23.21 30.62Q24.05 30.63 24.81 30.89L24.74 30.82L24.82 30.98L25.03 31.07L25.23 31.09L25.20 31.09L25.17 31.06Q26.33 31.61 26.52 32.86L26.36 32.71L26.41 32.76Q27.71 31.97 29.62 30.29L29.55 30.22L29.60 30.27Q29.29 29.51 28.30 28.33L28.43 28.46L28.42 28.45Q27.29 25.76 22.19 25.64L22.13 25.59L22.20 25.65Q18.88 25.46 16.90 26.03L17.05 26.17L16.93 26.06Q15.64 26.75 15.87 28.85L15.74 28.71L15.71 28.68Q15.95 30.07 16.87 32.16L16.77 32.06L16.77 32.07Q17.35 33.21 18.38 33.94L18.48 34.04L18.34 33.90Q19.12 35.48 20.41 36.17L20.46 36.21L20.42 36.17Q21.23 36.29 22.18 36.67L22.18 36.68L24.16 37.52L24.18 37.53Q23.91 38.71 21.97 38.59L21.98 38.61L21.92 38.55Q21.49 38.61 20.27 38.30L20.34 38.37L20.30 38.18L20.17 38.28L20.06 38.17Q19.27 37.88 18.63 36.40L18.53 36.30L18.67 36.44Q16.38 37.84 15.28 38.98L15.36 39.07L15.26 38.97Q15.60 39.92 16.63 40.72L16.67 40.76L16.46 40.85L16.44 40.83Q17.91 42.99 22.13 43.37L22.19 43.42L22.16 43.40Q23.32 43.41 26.56 43.64Z"/></svg>