<svg xmlns="http://www.w3.org/2000/svg" width="150" height="50" viewBox="0,0,150,50"><path fill="#111" d="M129.10 40.44L129.06 40.39L128.95 40.29Q126.17 36.59 123.54 27.95L123.47 27.87L123.53 27.94Q122.68 25.60 121.88 23.47L121.90 23.49L119.13 32.37L119.08 32.32Q117.34 37.32 114.95 40.56L114.80 40.41L114.92 40.53Q113.95 40.48 112.31 40.63L112.32 40.63L112.38 40.69Q112.49 39.51 112.49 38.26L112.48 38.25L112.45 38.22Q112.50 32.24 109.75 26.12L109.70 26.06L109.84 26.20Q106.64 19.23 100.78 14.25L100.84 14.31L100.78 14.24Q102.92 14.94 105.28 15.47L105.20 15.39L105.35 15.54Q113.88 23.85 115.18 34.81L115.29 34.92L115.35 34.99Q116.93 31.61 118.37 26.25L118.44 26.31L118.39 26.26Q120.42 18.81 120.91 17.40L120.87 17.35L123.16 17.40L122.97 17.22Q123.76 19.33 124.40 21.65L124.45 21.70L125.68 26.13L125.74 26.19Q127.18 31.51 128.58 34.74L128.63 34.79L128.56 34.72Q130.29 23.16 138.21 15.81L138.26 15.86L138.21 15.81Q139.72 15.47 142.69 14.82L142.67 14.80L142.62 14.74Q137.42 19.18 134.38 25.31L134.40 25.33L134.43 25.36Q131.22 31.48 131.22 38.25L131.27 38.31L131.30 38.34Q131.18 39.32 131.26 40.46L131.31 40.52L130.10 40.33L130.22 40.45Q129.67 40.44 129.10 40.44ZM135.21 43.19L135.36 43.34L135.19 43.18Q134.07 39.73 134.18 35.85L134.09 35.76L134.23 35.90Q134.43 24.22 143.79 15.96L143.84 16.00L143.89 16.06Q142.97 16.32 141.03 16.85L140.87 16.69L140.91 16.72Q141.96 15.99 143.86 14.20L143.90 14.24L143.88 14.22Q141.19 14.95 138.26 15.44L138.20 15.39L138.15 15.33Q130.69 22.50 128.79 31.98L128.87 32.06L128.87 32.06Q128.34 30.46 125.48 19.00L125.45 18.97L125.31 18.83Q125.04 19.05 124.08 19.05L124.11 19.08L123.78 17.98L123.75 17.96Q123.56 17.35 123.33 16.85L123.29 16.81L120.46 16.87L120.39 16.81Q119.60 19.29 118.32 24.41L118.31 24.39L118.31 24.39Q117.08 29.56 116.09 32.04L116.11 32.05L116.19 32.13Q114.46 24.08 108.90 17.76L108.95 17.81L109.03 17.89Q108.48 17.76 107.52 17.57L107.57 17.61L107.45 17.50Q106.88 16.81 105.32 15.17L105.19 15.04L105.31 15.16Q101.88 14.32 99.71 13.52L99.63 13.45L99.64 13.45Q105.43 18.25 108.70 24.46L108.66 24.41L108.57 24.32Q112.16 31.08 112.16 38.08L112.05 37.97L112.11 38.03Q112.13 39.61 111.94 41.21L111.83 41.10L111.86 41.13Q112.05 41.09 112.51 40.99L112.53 41.02L112.56 41.05Q113.03 40.97 113.26 40.97L113.23 40.93L113.34 42.07L113.29 42.03Q113.24 42.43 113.32 42.97L113.30 42.95L113.37 43.02Q114.43 42.86 116.72 42.71L116.80 42.79L116.82 42.81Q120.44 37.41 123.18 28.00L123.12 27.95L123.24 28.07Q125.84 36.68 128.81 40.64L128.98 40.81L128.83 40.66Q129.41 40.78 130.25 40.90L130.16 40.81L130.22 40.87Q131.14 41.98 132.20 43.05L132.04 42.88L132.16 43.01Q132.92 43.04 135.32 43.31Z"/><path fill="#111" d="M20.95 28.63L21.02 28.70L20.89 28.57Q18.05 28.54 17.28 30.79L17.27 30.78L17.39 30.89Q17.15 31.60 17.03 32.25L17.05 32.27L17.08 32.30Q19.64 32.46 21.28 32.46L21.32 32.50L21.26 32.44Q22.91 32.46 25.50 32.34L25.44 32.29L25.57 32.41Q25.43 30.68 24.02 29.61L24.04 29.63L24.07 29.66Q22.75 28.64 20.96 28.64ZM21.10 41.27L21.11 41.27L20.93 41.10Q16.74 41.13 15.45 39.72L15.48 39.76L15.53 39.81Q14.52 38.30 14.37 35.03L14.33 35.00L14.32 34.98Q14.32 34.76 14.25 33.39L14.38 33.52L14.41 33.55Q14.25 31.22 14.25 30.49L14.24 30.49L14.20 30.44Q14.07 28.45 14.79 27.35L14.87 27.42L14.91 27.47Q16.37 26.10 19.34 26.10L19.28 26.05L20.79 25.99L20.75 25.95Q22.92 26.07 24.44 26.37L24.46 26.39L24.40 26.34Q26.49 26.82 27.48 28.04L27.47 28.03L27.44 28.00Q28.02 29.04 28.10 31.14L28.14 31.18L28.24 31.27Q28.19 32.37 28.23 34.54L28.22 34.53L28.13 34.44Q25.36 34.56 22.58 34.56L22.44 34.42L17.01 34.59L16.96 34.54Q17.03 38.88 21.11 38.65L21.17 38.71L21.23 38.77Q24.95 38.53 26.17 36.70L26.17 36.71L26.16 36.69Q27.11 37.31 28.71 38.49L28.58 38.36L28.55 38.33Q27.31 40.85 23.16 41.12L23.01 40.97L23.11 41.07Q22.38 41.10 21.01 41.18ZM23.33 43.54L23.29 43.49L23.34 43.55Q24.43 43.49 25.65 43.57L25.67 43.60L25.58 43.50Q30.69 43.82 31.60 41.04L31.55 40.98L31.52 40.95Q29.97 39.78 28.87 39.02L28.81 38.97L28.78 38.93Q28.88 38.46 29.07 38.23L29.25 38.41L29.22 38.39Q28.47 37.90 27.10 36.95L27.02 36.87L27.16 37.01Q28.03 36.86 30.09 37.16L30.10 37.17L30.17 37.24Q30.02 35.91 29.95 35.23L29.90 35.18L29.82 33.31L29.76 33.25Q29.65 30.94 29.01 29.45L28.95 29.40L29.05 29.50Q28.73 29.10 28.15 28.49L28.25 28.58L28.10 28.43Q28.09 28.28 27.87 27.70L27.80 27.64L27.75 27.59Q25.90 25.58 20.83 25.58L20.77 25.52L19.23 25.65L19.24 25.66Q15.91 25.57 14.46 27.05L14.36 26.96L14.53 27.13Q13.75 28.13 13.79 30.19L13.82 30.22L13.72 30.12Q13.89 31.20 14.01 33.45L13.94 33.38L14.11 33.55Q14.01 34.97 14.12 37.03L14.28 37.19L14.15 37.06Q14.52 39.41 15.40 40.48L15.38 40.45L15.41 40.49Q15.54 40.62 15.73 40.74L15.74 40.74L16.07 41.42L15.97 41.32Q16.83 43.24 23.41 43.62ZM21.28 38.41L21.18 38.30L21.14 38.27Q19.97 38.35 19.06 37.89L19.18 38.01L19.17 38.01Q19.09 37.58 18.90 36.90L18.86 36.86L18.88 36.88Q20.65 36.86 22.25 36.86L22.13 36.74L22.25 36.86Q23.91 36.84 25.58 36.96L25.53 36.91L25.42 36.79Q24.30 38.30 21.29 38.41ZM22.76 30.90L22.81 30.95L22.76 30.90Q23.47 31.00 24.80 31.38L24.84 31.42L25.01 31.78L25.11 32.07L24.96 31.91Q23.72 32.16 22.81 32.13L22.68 32.00L22.71 32.02Q20.39 31.95 20.35 31.95L20.46 32.06L20.43 32.03Q21.07 31.00 22.75 30.88Z"/><path fill="#222" d="M48.33 29.86L48.36 29.89L48.36 29.89Q45.83 29.76 44.50 30.98L44.47 30.95L44.56 31.04Q43.15 32.18 43.45 34.69L43.53 34.77L43.44 34.68Q43.73 37.18 44.95 38.43L44.91 38.39L44.97 38.45Q46.17 39.91 48.30 39.84L48.29 39.83L48.24 39.78Q48.83 39.80 49.02 39.80L49.03 39.81L48.93 39.71Q52.52 39.15 52.63 34.54L52.69 34.60L52.52 34.43Q52.67 32.14 51.98 31.34L51.91 31.27L52.08 31.44Q50.97 30.10 48.42 29.95ZM51.79 41.73L51.61 41.55L51.62 41.56Q50.44 42.29 48.88 42.21L48.72 42.05L48.71 42.04Q44.90 42.26 43.60 39.67L43.74 39.82L43.78 39.85Q43.43 45.02 42.10 49.29L42.11 49.30L42.13 49.32Q40.45 49.92 38.81 50.65L38.81 50.65L38.70 50.53Q41.40 44.71 41.13 37.74L41.08 37.69L40.97 37.58Q40.87 30.89 37.98 24.84L37.84 24.70L38.00 24.86Q39.83 25.92 41.54 26.38L41.50 26.34L42.05 27.84L42.12 27.91Q42.23 28.25 42.49 29.35L42.45 29.31L42.50 29.35Q43.51 27.28 47.09 27.09L46.99 26.99L47.07 27.08Q48.01 27.10 48.88 27.10L48.85 27.07L49.20 26.93L49.28 27.00Q49.38 26.99 49.57 27.03L49.65 27.11L49.83 26.98L49.88 27.03Q51.92 27.28 52.64 27.51L52.75 27.61L52.64 27.51Q54.31 28.15 55.18 29.10L55.04 28.95L55.15 29.07Q55.88 30.14 55.84 31.55L55.96 31.66L55.94 31.65Q55.82 34.38 55.02 37.04L55.05 37.08L55.11 37.14Q54.01 40.56 51.65 41.59ZM56.05 42.34L55.98 42.23L56.04 42.29Q57.01 40.18 57.32 36.07L57.28 36.03L57.41 36.16Q57.45 34.30 57.45 33.04L57.49 33.08L57.44 33.03Q57.64 31.71 56.88 30.30L56.84 30.26L56.84 30.26Q56.40 29.78 55.90 29.40L55.80 29.30L55.63 29.01L55.58 28.85L55.51 28.67L55.42 28.57Q53.72 26.57 49.38 26.57L49.39 26.58L48.79 26.59L48.79 26.59Q44.23 26.67 42.59 28.27L42.61 28.29L42.45 28.12Q42.28 27.62 42.13 27.12L42.24 27.23L41.95 26.14L41.93 26.12Q39.52 25.58 37.31 24.10L37.17 23.96L37.24 24.02Q40.40 30.22 40.70 37.46L40.78 37.53L40.77 37.52Q40.94 44.67 38.09 51.14L38.21 51.26L40.18 50.37L40.11 50.30Q39.98 51.16 39.29 52.72L39.19 52.63L39.29 52.72Q42.03 51.69 44.35 51.35L44.22 51.22L44.31 51.31Q45.39 46.45 45.54 42.71L45.46 42.64L45.46 42.63Q47.01 44.27 50.63 44.49L50.59 44.46L50.48 44.34Q54.60 44.77 56.05 42.34L55.96 42.25ZM50.27 32.14L50.23 32.10L50.20 32.07Q50.94 32.09 52.04 32.43L51.96 32.34L52.13 32.51Q52.34 33.45 52.30 34.63L52.25 34.58L52.20 34.52Q52.32 35.57 52.13 36.21L52.06 36.14L52.15 36.23Q51.37 39.07 48.86 39.38L48.85 39.36L48.99 39.38L48.98 39.38Q48.92 39.40 48.81 39.43L48.80 39.43L48.15 39.31L48.30 39.46Q47.08 39.42 46.09 38.93L46.11 38.95L45.76 36.88L45.69 36.82Q45.47 34.43 46.77 33.40L46.83 33.47L46.76 33.39Q47.83 32.37 50.23 32.10Z"/><path fill="#333" d="M92.49 40.37L92.51 40.39L92.45 40.33Q91.09 40.45 89.52 40.03L89.59 40.10L89.53 40.04Q88.19 39.00 88.04 37.36L88.04 37.37L88.07 37.40Q88.12 37.30 88.31 34.67L88.18 34.54L88.26 34.61Q89.21 34.35 91.23 33.97L91.28 34.02L91.14 34.83L91.12 34.82Q90.95 36.66 92.35 37.23L92.33 37.20L92.27 37.14Q92.99 37.41 95.08 37.41L95.11 37.43L95.13 37.46Q96.69 37.26 96.88 37.18L96.98 37.28L96.95 37.26Q97.82 37.06 98.54 36.56L98.52 36.54L98.65 36.67Q99.93 35.59 99.74 33.49L99.81 33.57L99.80 33.55Q99.66 31.17 97.93 29.61L97.83 29.51L97.96 29.64Q96.09 27.95 93.62 27.95L93.70 28.03L93.68 27.78L93.71 27.81Q93.99 27.67 94.86 27.59L94.84 27.57L95.01 27.74Q96.93 27.64 98.30 26.40L98.20 26.31L98.17 26.28Q99.52 25.02 99.67 23.15L99.69 23.17L99.79 23.27Q99.85 22.91 99.85 22.56L99.90 22.62L99.89 22.60Q99.82 21.01 98.45 20.10L98.51 20.17L98.38 20.03Q97.18 19.25 95.58 19.36L95.62 19.40L95.61 19.40Q94.24 19.16 93.02 19.58L93.14 19.70L93.18 19.74Q91.60 20.14 91.30 21.28L91.43 21.41L91.34 21.32Q91.11 22.05 91.19 22.81L91.26 22.88L91.20 22.82Q90.25 22.68 88.20 21.96L88.12 21.87L88.20 21.95Q87.86 20.17 87.90 19.34L88.06 19.49L87.95 19.39Q88.18 17.98 89.24 17.29L89.08 17.13L89.09 17.13Q90.47 16.50 92.07 16.50L92.07 16.50L92.26 16.68Q95.37 16.60 98.53 16.87L98.43 16.77L98.50 16.84Q103.60 17.29 103.30 21.06L103.15 20.92L103.33 21.10Q103.22 22.55 102.72 24.11L102.62 24.00L102.70 24.09Q101.80 27.18 99.44 28.09L99.47 28.12L99.39 28.04Q102.09 28.65 102.70 32.00L102.72 32.02L102.62 31.92Q102.90 33.12 102.98 35.13L102.88 35.04L102.97 35.13Q103.08 39.54 98.47 39.99L98.46 39.99L98.57 40.09Q97.80 40.12 92.50 40.39ZM97.69 42.60L97.62 42.53L97.77 42.68Q98.30 42.64 101.15 42.71L101.17 42.73L101.12 42.68Q102.94 42.83 104.58 42.18L104.52 42.12L104.50 42.10Q105.62 41.09 105.43 39.34L105.59 39.50L105.46 39.37Q105.41 38.10 105.11 36.35L105.15 36.40L105.10 36.34Q104.36 31.84 102.42 30.20L102.41 30.19L102.30 29.89L102.15 29.70L102.13 29.68Q104.00 28.35 104.76 23.97L104.82 24.03L104.65 23.86Q104.85 23.57 104.96 22.62L104.81 22.47L104.93 22.58Q104.90 21.72 104.82 21.03L104.93 21.14L104.93 21.14Q104.78 19.46 103.49 18.78L103.49 18.78L103.35 18.72L103.27 18.64Q103.03 17.71 101.88 17.18L101.95 17.24L101.81 17.11Q100.37 16.50 95.23 16.19L95.30 16.27L95.31 16.28Q93.51 16.07 91.91 16.07L92.01 16.18L91.91 16.08Q90.42 16.18 88.90 16.83L88.88 16.82L88.77 16.70Q87.60 17.51 87.60 19.26L87.57 19.23L87.66 19.33Q87.67 18.91 87.94 22.27L87.86 22.18L87.80 22.13Q88.20 22.30 89.84 22.91L89.85 22.92L89.79 22.87Q89.90 23.50 89.86 24.00L89.80 23.93L89.88 24.02Q89.84 24.47 89.88 25.01L89.89 25.02L89.93 25.05Q91.56 25.28 93.58 25.39L93.60 25.41L93.64 25.45Q93.65 23.52 94.75 22.68L94.73 22.66L94.72 22.65Q95.59 22.03 97.60 21.81L97.61 21.81L97.55 21.75Q98.75 21.81 99.32 22.00L99.21 21.89L99.16 21.84Q99.27 22.02 99.30 22.13L99.29 22.12L99.21 22.24L99.39 22.87L99.45 22.93Q99.39 23.06 99.36 23.21L99.46 23.32L99.43 23.29Q99.41 25.06 97.89 26.24L97.86 26.21L97.88 26.23Q96.88 27.06 94.87 27.25L94.96 27.34L94.77 27.16Q94.18 27.44 93.30 27.44L93.27 27.40L93.22 27.36Q93.21 27.65 93.36 28.33L93.49 28.46L93.37 28.35Q95.21 28.43 96.65 29.15L96.64 29.14L96.53 29.15L94.98 29.34L94.96 29.33Q94.97 29.64 95.08 30.25L95.04 30.20L95.22 30.39Q97.32 30.28 99.04 31.61L98.95 31.53L98.96 31.53Q99.26 31.99 99.57 33.63L99.60 33.66L99.45 33.51Q99.69 36.50 96.76 36.91L96.75 36.90L96.82 36.97Q94.74 37.25 94.16 37.21L94.01 37.05L94.03 37.08Q93.72 37.10 93.18 37.03L93.12 36.97L93.07 36.46L93.19 36.00L93.28 35.68L93.39 35.44L93.35 35.40Q92.42 35.50 91.62 35.69L91.46 35.53L91.60 35.68Q91.57 35.46 91.57 35.27L91.51 35.20L91.50 35.19Q91.47 34.94 91.47 34.71L91.58 34.81L91.54 34.77Q91.67 34.45 91.82 33.72L91.79 33.70L91.70 33.60Q89.79 33.79 87.93 34.13L88.01 34.22L88.10 34.31Q88.08 34.78 87.96 35.90L87.92 35.85L87.92 35.86Q87.86 37.04 87.86 37.65L87.70 37.49L87.69 37.48Q87.90 39.66 89.27 40.42L89.18 40.34L89.27 40.43Q90.80 42.76 95.52 42.57L95.50 42.54L95.34 42.38Q96.15 42.43 97.67 42.58Z"/><path fill="#333" d="M71.99 41.44L71.89 41.33L71.85 41.29Q68.99 41.48 67.74 40.95L67.79 41.00L67.81 41.03Q65.75 40.11 65.83 37.63L65.99 37.79L65.88 37.68Q66.14 34.41 66.14 34.98L65.98 34.81L66.13 34.97Q66.11 29.61 63.25 24.78L63.19 24.71L63.28 24.80Q65.26 25.76 67.24 26.14L67.09 25.99L67.25 26.15Q68.97 30.76 68.86 35.26L68.84 35.23L68.79 35.18Q68.70 36.74 69.54 37.95L69.38 37.80L69.41 37.83Q70.29 39.12 71.81 38.93L71.97 39.09L72.34 38.97L72.33 38.96Q73.52 38.74 74.34 37.98L74.42 38.06L74.38 38.02Q75.31 37.37 75.31 36.42L75.31 36.41L75.19 36.30Q75.20 36.08 75.17 35.89L75.19 35.92L75.17 35.90Q75.11 30.66 76.26 26.32L76.19 26.26L76.33 26.39Q77.38 26.34 78.36 26.11L78.27 26.02L80.40 25.63L80.30 25.54Q77.84 30.65 78.15 36.21L78.00 36.07L77.98 36.04Q78.25 39.20 76.54 40.35L76.46 40.27L76.62 40.43Q75.32 41.30 72.01 41.45ZM74.24 43.76L74.34 43.86L74.15 43.67Q77.63 43.84 79.46 43.08L79.60 43.22L79.62 43.24Q80.42 42.37 80.42 40.96L80.36 40.89L80.37 40.91Q80.50 40.12 80.23 38.56L80.28 38.61L80.25 38.58Q79.73 35.39 80.11 32.38L80.07 32.34L80.06 32.34Q80.49 29.23 81.90 26.49L81.98 26.56L81.90 26.48Q81.16 26.69 79.82 27.11L79.97 27.25L79.88 27.16Q80.07 26.53 80.38 25.95L80.39 25.97L80.93 24.80L80.93 24.80Q79.12 25.57 75.96 26.07L75.97 26.07L75.90 26.00Q74.69 30.81 74.84 35.91L74.86 35.93L74.90 35.97Q74.98 38.07 72.32 38.56L72.34 38.59L71.97 38.67L71.80 38.65L70.82 38.48L70.78 38.44Q70.75 37.61 70.79 37.11L70.65 36.97L70.65 36.98Q70.91 32.51 70.22 28.09L70.25 28.12L69.27 28.06L69.17 27.96Q68.72 28.00 68.19 27.89L68.22 27.92L68.18 27.87Q67.75 26.42 67.48 25.66L67.53 25.71L67.54 25.72Q64.76 25.30 62.51 24.00L62.50 23.98L62.54 24.03Q64.62 27.48 65.34 30.87L65.32 30.85L65.39 30.92Q65.83 33.06 65.67 36.57L65.70 36.59L65.69 36.58Q65.80 36.80 65.72 37.91L65.67 37.86L65.63 37.81Q65.48 40.18 66.85 41.13L66.90 41.18L66.87 41.15Q67.28 43.43 74.29 43.81Z"/></svg>