<svg xmlns="http://www.w3.org/2000/svg" width="150" height="50" viewBox="0,0,150,50"><path fill="#444" d="M26.07 30.91L26.06 30.91L25.96 30.80Q26.08 29.40 25.26 28.49L25.22 28.45L25.35 28.58Q24.54 27.67 23.09 27.71L22.98 27.59L23.09 27.71Q20.64 27.66 19.80 29.79L19.95 29.93L19.95 29.94Q19.56 30.61 19.52 31.30L19.51 31.29L19.49 31.27Q19.41 36.24 18.49 40.58L18.50 40.59L18.36 40.45Q16.81 41.10 14.94 42.09L14.96 42.11L14.91 42.07Q17.11 35.01 16.84 27.70L16.97 27.83L16.98 27.84Q16.57 20.35 14.02 13.53L14.15 13.67L14.07 13.59Q15.78 14.84 17.80 15.53L17.83 15.56L17.83 15.55Q19.35 21.41 19.54 27.28L19.41 27.15L19.58 27.32Q20.93 25.21 23.64 25.28L23.70 25.34L23.60 25.24Q28.75 25.41 28.87 30.78L28.80 30.72L28.75 30.67Q28.86 36.34 30.24 40.98L30.24 40.99L30.41 41.16Q28.48 40.26 26.73 40.07L26.74 40.07L26.74 40.07Q26.09 36.69 25.98 30.82ZM26.30 40.28L26.28 40.27L26.37 40.35Q27.46 40.52 28.56 40.79L28.49 40.72L28.47 40.70Q28.49 40.83 29.02 42.81L29.09 42.88L29.00 42.79Q32.16 43.94 34.18 45.38L34.11 45.31L34.12 45.32Q31.42 39.53 30.88 33.22L30.91 33.25L30.79 33.12Q30.48 29.43 29.08 27.87L29.23 28.02L29.23 28.02Q29.20 27.92 28.55 27.46L28.40 27.30L28.52 27.42Q28.22 26.85 27.57 26.09L27.52 26.05L27.58 26.03L27.59 26.04Q26.81 25.25 23.68 24.99L23.69 25.00L23.57 24.87Q22.80 24.83 21.39 25.17L21.55 25.33L21.48 25.26Q21.33 20.47 20.99 17.96L20.94 17.90L20.98 17.94Q20.18 17.79 18.69 17.49L18.61 17.40L18.57 17.36Q18.44 16.66 18.17 15.17L18.34 15.34L18.35 15.35Q15.30 14.28 13.43 12.72L13.52 12.80L13.41 12.69Q16.36 19.84 16.63 27.64L16.68 27.69L16.55 27.56Q16.86 35.37 14.31 42.72L14.38 42.79L14.30 42.71Q15.28 42.17 16.42 41.67L16.52 41.77L15.61 43.87L15.77 44.03Q18.85 42.66 20.83 42.47L20.79 42.42L20.81 42.44Q21.38 37.04 21.58 33.08L21.52 33.02L21.53 33.04Q21.62 31.18 23.56 30.08L23.55 30.07L23.64 30.16Q24.09 29.84 24.62 29.88L24.75 30.01L24.65 29.92Q24.82 29.93 25.16 29.97L25.19 30.00L25.50 29.96L25.51 29.97Q25.67 30.52 25.79 30.97L25.69 30.87L25.80 30.99Q25.94 36.99 26.44 40.42Z"/><path fill="#222" d="M126.96 28.61L126.98 28.63L121.23 28.85L121.11 28.74Q118.22 28.81 115.28 28.73L115.26 28.71L115.32 28.76Q115.39 35.42 113.33 40.94L113.39 41.00L113.30 40.91Q111.58 41.51 109.83 42.20L109.82 42.19L109.76 42.13Q112.49 36.37 112.49 29.71L112.50 29.72L112.63 29.85Q112.60 21.33 108.49 14.29L108.41 14.21L108.50 14.29Q109.94 15.02 112.42 15.82L112.52 15.92L112.41 15.81Q114.47 20.80 115.00 25.67L115.17 25.84L115.05 25.72Q118.33 26.22 121.19 26.18L121.20 26.19L121.14 26.14Q123.86 26.19 127.17 25.93L127.21 25.96L127.15 25.90Q127.64 21.53 129.40 16.42L129.23 16.26L129.42 16.45Q131.35 16.02 133.60 15.18L133.55 15.13L133.45 15.04Q129.95 21.89 129.95 29.85L129.98 29.88L129.85 29.75Q129.82 35.92 132.18 41.25L132.29 41.36L132.30 41.37Q130.59 40.65 128.53 40.34L128.55 40.36L128.70 40.51Q126.89 35.35 127.00 28.65ZM128.29 40.71L128.31 40.73L128.40 40.82Q129.47 41.01 130.57 41.28L130.48 41.19L130.38 41.09Q130.83 41.92 131.48 43.40L131.39 43.32L131.46 43.39Q134.90 44.43 136.69 45.34L136.69 45.34L136.65 45.30Q132.14 39.07 131.83 30.81L131.91 30.89L131.82 30.80Q131.53 22.78 135.18 15.97L135.28 16.06L134.07 16.38L134.17 16.47Q133.63 16.66 133.02 16.81L133.03 16.83L133.10 16.89Q133.39 15.97 134.23 14.41L134.37 14.54L134.27 14.45Q131.60 15.47 128.97 15.96L128.98 15.97L129.05 16.05Q127.35 20.85 126.90 25.54L126.88 25.52L126.84 25.48Q124.40 25.74 121.96 25.74L122.02 25.79L122.02 25.80Q119.60 25.78 117.09 25.63L116.97 25.51L117.13 25.67Q116.83 22.32 115.73 18.25L115.76 18.28L115.63 18.15Q114.98 18.08 113.54 17.70L113.56 17.72L113.54 17.70Q113.10 16.43 112.65 15.40L112.73 15.48L112.80 15.55Q110.06 14.79 107.78 13.54L107.65 13.41L107.80 13.56Q112.22 20.83 112.22 29.63L112.23 29.64L112.36 29.76Q112.32 36.69 109.19 42.82L109.05 42.68L109.21 42.84Q109.85 42.49 111.19 41.92L111.27 42.01L111.12 41.86Q110.87 42.78 110.07 44.31L110.05 44.29L110.11 44.35Q112.97 43.40 115.22 42.98L115.09 42.86L115.06 42.82Q116.93 37.27 117.12 31.10L117.23 31.22L117.28 31.27Q118.70 31.00 121.89 30.97L122.01 31.08L121.94 31.01Q124.83 31.01 126.74 31.09L126.67 31.02L126.80 31.15Q126.91 36.74 128.24 40.66Z"/><path fill="#444" d="M39.65 41.03L39.72 41.10L39.63 41.01Q42.79 36.75 49.49 28.83L49.59 28.93L49.54 28.88Q43.63 29.09 39.86 27.72L39.88 27.75L39.96 27.83Q39.19 26.29 38.43 24.89L38.55 25.01L38.45 24.91Q42.52 26.39 46.97 26.43L47.03 26.49L47.09 26.55Q51.39 26.43 55.58 25.36L55.69 25.47L55.73 25.52Q55.31 26.16 55.05 26.70L55.03 26.68L54.92 26.57Q52.54 28.95 49.72 32.56L49.70 32.55L44.73 38.69L44.76 38.72Q46.97 38.49 49.22 38.57L49.18 38.53L49.29 38.64Q51.38 38.60 53.62 38.98L53.71 39.07L53.57 38.92Q53.78 39.59 54.50 41.61L54.53 41.64L54.52 41.62Q50.84 40.84 46.84 40.95L46.89 41.00L46.70 40.81Q42.77 40.95 39.11 42.13L39.15 42.17L39.28 42.30Q39.28 42.07 39.73 41.12ZM38.65 42.85L38.69 42.89L38.64 42.84Q39.36 42.46 40.96 42.04L40.99 42.07L41.04 42.12Q40.83 42.37 40.41 42.79L40.24 42.61L40.31 42.68Q40.17 43.34 39.56 44.48L39.48 44.41L39.53 44.45Q44.14 43.01 49.13 43.16L49.15 43.18L49.19 43.22Q54.08 43.32 58.65 45.18L58.70 45.24L58.69 45.22Q57.26 43.38 56.35 41.32L56.37 41.34L56.42 41.39Q55.59 41.03 54.53 40.80L54.45 40.72L54.49 40.76Q54.41 40.15 54.03 38.70L53.99 38.66L54.02 38.69Q52.36 38.25 48.78 38.13L48.94 38.30L48.89 38.24Q51.13 34.77 56.15 28.41L56.23 28.49L56.33 28.59Q56.47 27.74 57.15 26.40L57.22 26.47L54.90 27.20L54.89 27.19Q54.90 27.04 55.05 26.93L55.11 26.99L55.43 26.93L55.40 26.90Q55.69 25.67 56.26 24.72L56.41 24.86L56.44 24.89Q51.67 26.14 46.95 26.06L47.01 26.12L47.08 26.19Q42.10 25.94 37.61 24.11L37.73 24.22L37.79 24.28Q38.89 26.08 39.69 28.13L39.62 28.06L39.76 28.19Q40.50 28.40 41.56 28.67L41.57 28.68L41.59 28.70Q41.74 29.34 42.04 30.78L42.14 30.88L42.16 30.90Q43.65 31.06 46.96 31.21L47.00 31.25L46.97 31.22Q44.55 34.51 39.37 40.95L39.46 41.03L39.51 41.08Q39.26 41.67 38.69 42.89Z"/><path fill="#444" d="M79.88 30.42L79.78 30.32L79.77 30.32Q80.04 30.09 80.00 29.67L79.99 29.66L79.97 29.63Q79.69 29.05 79.38 28.86L79.39 28.87L79.40 28.88Q78.82 28.45 77.94 28.60L77.83 28.48L77.88 28.54Q76.82 28.55 75.19 29.65L75.17 29.64L75.17 29.63Q73.68 30.47 73.68 31.65L73.75 31.72L73.67 31.64Q73.83 33.05 73.83 36.36L73.80 36.33L73.79 36.33Q73.68 38.80 73.83 40.82L73.80 40.79L73.98 40.97Q72.09 40.79 72.09 40.79L72.21 40.91L72.12 40.83Q71.22 40.88 70.50 40.95L70.37 40.82L70.41 40.87Q70.81 38.34 70.89 36.09L71.05 36.25L71.03 36.23Q71.07 31.47 70.42 30.18L70.38 30.13L70.41 30.16Q70.27 29.72 69.70 29.42L69.57 29.28L69.66 29.37Q68.77 28.60 67.21 28.49L67.18 28.46L67.24 28.52Q65.18 28.25 64.65 29.85L64.59 29.79L64.77 29.97Q64.58 30.43 64.70 30.93L64.59 30.82L64.55 30.77Q65.34 33.66 64.99 36.44L64.98 36.42L64.99 36.44Q64.55 39.11 63.14 41.55L63.19 41.60L63.24 41.65Q62.17 41.76 60.08 42.18L60.14 42.24L60.05 42.15Q62.66 39.02 62.66 34.72L62.67 34.72L62.58 34.64Q62.62 28.81 58.58 24.58L58.67 24.67L58.50 24.50Q59.31 24.86 60.26 25.08L60.25 25.07L62.03 25.52L61.94 25.43Q62.52 26.16 63.39 27.83L63.38 27.82L63.35 27.79Q63.45 25.83 65.88 25.79L65.92 25.83L65.93 25.84Q66.05 25.77 67.04 25.84L67.09 25.89L67.01 25.82Q72.12 26.25 73.27 29.06L73.18 28.98L73.31 29.10Q74.93 26.35 79.96 25.82L79.97 25.84L80.06 25.92Q80.83 25.81 81.71 25.93L81.64 25.86L81.65 25.87Q83.82 26.02 83.66 27.58L83.77 27.69L83.60 27.52Q83.64 28.29 83.38 29.05L83.33 29.00L83.36 29.03Q81.98 32.07 82.21 35.61L82.21 35.61L82.11 35.51Q82.37 39.04 84.27 41.86L84.24 41.83L84.30 41.89Q82.47 41.39 80.65 41.16L80.75 41.27L80.80 41.32Q79.44 38.63 79.25 35.85L79.36 35.95L79.36 35.96Q79.15 33.08 79.80 30.34ZM80.57 41.70L80.55 41.68L80.42 41.55Q81.28 41.76 82.62 41.95L82.58 41.92L82.54 41.88Q83.08 42.60 84.22 44.01L84.16 43.96L84.20 43.99Q87.22 44.65 89.31 45.30L89.24 45.23L89.25 45.23Q84.32 41.42 84.06 34.91L83.90 34.75L83.89 34.74Q83.94 32.77 84.54 30.86L84.53 30.85L84.45 30.77Q84.69 29.90 84.69 29.18L84.65 29.14L84.74 29.23Q84.69 28.27 84.08 27.69L84.18 27.79L84.13 27.70L84.04 27.62Q84.17 27.17 84.09 26.68L83.99 26.58L84.17 26.75Q84.04 26.21 83.58 25.94L83.49 25.85L83.57 25.92Q82.89 25.44 82.02 25.40L82.01 25.40L81.96 25.35Q79.07 25.19 76.40 26.15L76.40 26.15L76.47 26.21Q74.41 26.82 73.23 28.23L73.28 28.27L73.36 28.36Q71.74 25.83 66.91 25.48L66.83 25.41L67.00 25.57Q66.17 25.39 65.75 25.39L65.89 25.53L65.78 25.42Q63.82 25.52 63.22 26.78L63.23 26.80L63.18 26.74Q62.83 26.20 62.14 25.14L62.16 25.15L62.21 25.21Q59.66 24.59 57.68 23.95L57.66 23.93L57.66 23.93Q62.42 28.42 62.42 34.70L62.37 34.65L62.26 34.54Q62.43 39.43 59.57 42.89L59.59 42.91L59.50 42.82Q60.04 42.75 60.53 42.67L60.44 42.59L61.32 42.32L61.46 42.46Q60.76 43.51 59.66 44.73L59.62 44.69L59.55 44.62Q61.25 44.38 64.37 43.77L64.44 43.84L64.36 43.76Q66.95 39.57 66.95 34.66L67.12 34.83L66.94 34.66Q67.13 34.04 67.05 33.20L67.05 33.20L66.90 33.05Q66.97 32.44 67.96 31.64L67.91 31.59L67.88 31.60L67.88 31.59Q68.44 31.09 69.62 30.97L69.52 30.88L69.52 30.88Q70.20 31.13 70.50 31.13L70.39 31.02L70.47 31.30L70.38 31.20Q70.71 33.97 70.59 36.33L70.71 36.44L70.65 36.38Q70.46 38.59 69.97 41.26L70.04 41.33L69.99 41.28Q70.94 41.20 70.94 41.20L71.01 41.28L70.95 41.21Q72.53 41.34 72.18 41.34L72.03 41.19L72.11 41.27Q72.20 41.86 72.16 42.31L72.03 42.18L72.00 42.15Q72.14 42.79 72.14 43.28L71.97 43.11L74.48 43.15L74.59 43.25Q75.84 43.24 77.09 43.32L77.09 43.32L77.12 43.34Q75.56 39.61 75.75 33.68L75.65 33.57L75.80 33.73Q75.66 32.45 76.84 31.68L76.91 31.75L76.93 31.78Q77.87 31.00 79.12 30.81L79.20 30.88L79.44 30.82L79.50 30.88Q78.94 32.68 78.94 34.66L78.98 34.70L79.07 34.79Q79.02 38.51 80.54 41.67ZM75.03 30.14L75.16 30.04L75.04 30.27L74.96 30.07Z"/><path fill="#444" d="M96.02 19.72L96.04 19.74L96.01 19.72Q93.90 19.70 92.95 19.85L92.99 19.89L92.99 19.90Q91.43 20.20 90.21 20.73L90.17 20.69L90.17 20.69Q86.77 22.24 86.66 26.93L86.57 26.83L86.65 26.92Q86.48 29.49 87.12 32.42L87.06 32.35L87.03 32.32Q88.10 36.56 91.72 37.74L91.56 37.57L91.71 37.73Q93.58 38.27 95.03 38.11L94.97 38.06L95.34 37.97L95.39 38.02Q95.54 37.98 95.73 38.02L95.72 38.00L95.68 37.97Q95.89 38.02 96.04 37.99L96.14 38.09L96.12 38.06Q98.70 37.74 100.07 37.17L100.13 37.24L96.56 33.71L96.59 33.74Q96.90 33.39 97.50 32.78L97.50 32.78L98.30 31.75L98.29 31.74Q100.27 33.95 102.25 36.01L102.10 35.86L102.16 35.92Q104.50 34.10 104.76 28.74L104.78 28.75L104.76 28.74Q104.85 27.84 104.85 26.92L104.89 26.96L104.87 26.94Q104.76 21.16 99.70 20.05L99.84 20.20L99.74 20.10Q98.46 19.81 95.95 19.66ZM108.68 41.68L108.62 41.62L108.72 41.71Q108.21 42.23 107.03 43.11L106.98 43.06L102.49 39.29L102.59 39.39Q100.05 40.55 95.79 40.58L95.82 40.62L95.75 40.55Q89.19 40.65 86.38 38.41L86.53 38.56L86.54 38.57Q84.73 36.76 84.28 33.79L84.26 33.78L84.10 33.62Q84.07 31.99 83.69 28.41L83.58 28.30L83.60 28.32Q83.53 27.53 83.42 25.78L83.43 25.79L83.45 25.81Q83.46 24.41 83.50 23.54L83.31 23.35L83.47 23.51Q83.47 20.35 85.22 18.79L85.34 18.91L85.19 18.76Q86.76 17.47 89.95 16.97L90.01 17.03L90.08 17.10Q92.43 16.59 95.32 16.67L95.41 16.76L95.42 16.77Q102.95 16.91 106.07 19.27L106.04 19.24L105.89 19.09Q108.05 21.21 107.78 26.12L107.95 26.29L107.82 26.16Q107.74 29.92 107.55 31.25L107.49 31.19L107.41 31.12Q106.92 35.77 104.60 38.09L104.44 37.93L104.62 38.11Q106.05 39.32 108.80 41.79ZM103.79 17.37L103.91 17.49L103.82 17.40Q101.82 16.70 95.31 16.20L95.37 16.26L95.33 16.22Q94.02 16.32 91.25 16.44L91.24 16.43L91.27 16.46Q86.98 16.63 84.74 18.61L84.69 18.56L84.78 18.65Q83.00 20.00 83.00 23.16L83.12 23.27L83.14 23.29Q83.01 24.00 83.16 25.71L83.24 25.79L83.18 25.73Q83.30 27.41 83.30 28.29L83.36 28.35L83.43 28.42Q83.42 30.01 83.80 33.58L83.87 33.65L83.91 33.70Q84.18 36.48 85.78 38.53L85.76 38.52L85.85 38.60Q86.17 39.41 87.38 40.56L87.44 40.61L87.47 40.64Q90.07 42.52 95.25 42.79L95.27 42.81L95.36 42.90Q95.58 42.77 97.98 42.89L98.08 42.99L98.01 42.93Q102.76 43.03 105.04 41.96L105.14 42.06L105.23 42.15Q105.99 42.72 110.71 46.30L110.73 46.31L110.66 46.24Q111.30 45.74 112.60 44.75L112.58 44.74L112.59 44.75Q111.84 44.19 111.05 43.51L110.88 43.35L109.22 41.88L109.40 41.90L109.43 41.93Q108.74 41.36 107.52 40.33L107.59 40.39L107.57 40.38Q109.43 37.82 109.43 33.29L109.58 33.44L109.60 33.46Q109.56 33.00 109.60 32.16L109.56 32.13L109.49 32.05Q109.68 31.36 109.68 30.95L109.68 30.95L109.60 30.87Q109.60 25.35 108.88 22.99L108.95 23.06L108.78 22.89Q108.56 21.75 107.68 20.69L107.59 20.60L107.57 20.58Q106.84 18.52 103.91 17.49ZM97.84 22.01L97.81 21.97L97.89 22.06Q101.95 21.96 103.78 23.56L103.76 23.54L103.77 23.56Q104.43 24.86 104.54 26.19L104.54 26.19L104.49 26.14Q104.44 27.28 104.37 28.65L104.40 28.68L104.37 28.65Q104.16 33.73 102.21 35.44L102.19 35.41L102.12 35.34Q100.85 34.08 98.34 31.34L98.27 31.27L98.33 31.32Q97.47 31.99 95.91 33.55L95.97 33.61L96.08 33.72Q96.61 34.29 97.75 35.47L97.68 35.39L97.54 35.37L97.55 35.38Q98.12 35.91 99.15 36.98L99.18 37.01L99.16 36.99Q98.16 37.24 95.83 37.55L95.88 37.59L95.45 37.70L94.94 37.60L95.07 37.77L94.97 37.68Q91.50 37.67 89.52 36.03L89.44 35.95L89.53 36.04Q88.54 33.98 88.58 30.86L88.47 30.75L88.44 30.73Q88.79 22.21 97.97 22.13Z"/></svg>