<svg xmlns="http://www.w3.org/2000/svg" width="150" height="50" viewBox="0,0,150,50"><path fill="#111" d="M46.62 19.65L46.58 19.62L46.71 19.75Q44.65 19.79 43.70 19.94L43.79 20.02L43.71 19.95Q42.01 20.11 40.79 20.64L40.79 20.64L40.88 20.73Q37.25 22.05 37.13 26.73L37.30 26.90L37.14 26.74Q37.21 29.55 37.86 32.48L37.79 32.41L37.71 32.33Q38.74 36.52 42.35 37.70L42.33 37.67L42.26 37.60Q44.16 38.17 45.60 38.02L45.72 38.14L46.00 37.96L45.98 37.94Q46.27 38.04 46.46 38.08L46.53 38.15L46.46 38.08Q46.61 38.08 46.76 38.04L46.65 37.93L46.81 38.09Q49.44 37.82 50.81 37.25L50.81 37.25L47.15 33.63L47.13 33.61Q47.54 33.37 48.15 32.76L48.19 32.81L49.05 31.83L48.98 31.76Q50.77 33.78 52.75 35.84L52.80 35.89L52.86 35.95Q55.16 34.10 55.43 28.74L55.38 28.69L55.51 28.81Q55.59 27.90 55.59 26.99L55.49 26.89L55.41 26.81Q55.43 21.16 50.37 20.06L50.43 20.12L50.36 20.05Q49.14 19.82 46.63 19.67ZM59.40 41.73L59.40 41.73L59.40 41.73Q58.77 42.13 57.59 43.01L57.57 42.98L53.26 39.39L53.31 39.45Q50.69 40.52 46.43 40.56L46.45 40.58L46.53 40.66Q39.97 40.77 37.16 38.52L37.07 38.43L37.11 38.48Q35.36 36.73 34.91 33.76L34.92 33.78L34.90 33.75Q34.59 31.85 34.21 28.27L34.28 28.34L34.30 28.35Q34.30 27.63 34.18 25.88L34.24 25.94L34.23 25.92Q34.04 24.33 34.08 23.45L34.12 23.49L34.12 23.49Q34.27 20.48 36.02 18.92L35.99 18.89L35.87 18.77Q37.51 17.56 40.71 17.06L40.61 16.97L40.69 17.04Q43.15 16.64 46.04 16.72L45.93 16.61L46.04 16.72Q53.49 16.79 56.62 19.15L56.55 19.08L56.64 19.18Q58.86 21.36 58.60 26.27L58.48 26.16L58.56 26.23Q58.45 29.97 58.26 31.30L58.17 31.21L58.23 31.27Q57.48 35.66 55.16 37.98L55.17 37.99L55.20 38.02Q56.70 39.30 59.44 41.77ZM54.49 17.40L54.51 17.42L54.61 17.52Q52.52 16.73 46.01 16.23L46.00 16.23L46.06 16.28Q44.61 16.24 41.83 16.35L41.93 16.46L41.93 16.45Q37.63 16.61 35.39 18.59L35.44 18.65L35.41 18.61Q33.76 20.09 33.76 23.25L33.67 23.16L33.70 23.19Q33.64 23.96 33.79 25.67L33.79 25.68L33.89 25.78Q33.95 27.39 33.95 28.27L34.11 28.43L34.11 28.44Q34.23 30.15 34.61 33.73L34.47 33.59L34.47 33.58Q34.96 36.59 36.55 38.64L36.45 38.53L36.54 38.62Q36.93 39.51 38.15 40.65L38.14 40.64L38.00 40.51Q40.84 42.62 46.02 42.89L45.89 42.76L46.04 42.91Q46.37 42.90 48.77 43.01L48.69 42.94L48.74 42.98Q53.53 43.13 55.82 42.07L55.89 42.14L55.89 42.14Q56.63 42.69 61.35 46.27L61.42 46.34L61.44 46.36Q61.95 45.73 63.24 44.74L63.21 44.71L63.38 44.87Q62.37 44.05 61.57 43.37L61.58 43.38L59.86 41.85L60.01 41.85L60.09 41.93Q59.40 41.35 58.19 40.32L58.34 40.47L58.21 40.35Q60.22 37.95 60.22 33.41L60.09 33.28L60.17 33.36Q60.21 32.99 60.25 32.15L60.20 32.10L60.15 32.04Q60.31 31.33 60.31 30.91L60.26 30.87L60.30 30.90Q60.19 25.27 59.46 22.91L59.57 23.02L59.45 22.90Q59.22 21.76 58.35 20.69L58.21 20.55L58.19 20.53Q57.53 18.54 54.59 17.51ZM48.51 22.01L48.50 21.99L48.47 21.96Q52.56 21.90 54.38 23.50L54.44 23.56L54.36 23.48Q54.96 24.73 55.08 26.06L55.21 26.20L55.06 26.05Q55.24 27.40 55.16 28.77L55.06 28.67L55.20 28.81Q54.88 33.78 52.94 35.49L52.89 35.44L52.82 35.38Q51.63 34.19 49.12 31.45L48.93 31.26L49.02 31.35Q48.17 32.02 46.61 33.58L46.65 33.63L46.69 33.67Q47.29 34.30 48.43 35.48L48.44 35.49L48.40 35.56L48.34 35.51Q48.87 35.99 49.90 37.06L49.97 37.14L49.83 36.99Q48.98 37.40 46.66 37.71L46.51 37.56L46.01 37.59L45.77 37.76L45.58 37.62L45.57 37.60Q42.21 37.72 40.24 36.08L40.24 36.08L40.14 35.98Q39.17 33.95 39.21 30.83L39.16 30.78L39.28 30.90Q39.32 22.07 48.49 21.99Z"/><path fill="#333" d="M100.05 30.99L99.92 30.86L99.94 30.88Q99.75 29.58 97.81 28.86L97.85 28.91L97.89 28.95Q97.49 28.84 96.95 28.84L96.78 28.67L96.80 28.69Q95.50 28.76 94.44 29.33L94.38 29.28L94.51 29.41Q93.11 30.10 93.22 31.32L93.24 31.34L93.16 31.26Q93.50 34.07 93.35 36.32L93.42 36.39L93.43 36.40Q93.30 38.86 92.57 41.37L92.55 41.34L92.55 41.35Q90.39 41.81 89.21 42.23L89.21 42.23L89.20 42.21Q90.80 38.60 90.80 34.61L90.70 34.50L90.88 34.69Q90.87 29.23 88.28 24.78L88.21 24.71L88.13 24.63Q89.45 25.23 91.85 25.95L91.87 25.97L91.75 25.85Q92.04 26.55 92.42 28.08L92.46 28.12L92.59 28.25Q93.78 26.02 97.67 26.09L97.62 26.05L97.76 26.19Q99.22 26.20 100.02 26.31L100.07 26.37L99.95 26.25Q102.87 26.58 102.95 28.60L102.99 28.64L103.07 28.71Q103.05 29.58 102.86 30.60L102.84 30.59L102.91 30.66Q102.34 33.05 102.53 36.06L102.68 36.21L102.70 36.23Q102.83 39.06 103.82 41.61L103.80 41.60L103.78 41.57Q102.11 41.20 100.40 41.04L100.26 40.91L100.41 41.06Q99.80 38.55 99.73 35.88L99.89 36.05L99.89 36.04Q99.76 33.25 99.99 30.93ZM99.90 41.27L99.97 41.34L100.02 41.40Q100.78 41.35 102.07 41.58L102.12 41.63L102.52 42.71L102.46 42.65Q102.71 43.20 102.94 43.74L102.86 43.66L102.88 43.68Q105.20 44.14 107.90 45.32L107.82 45.23L107.80 45.21Q105.49 42.14 104.81 38.33L104.82 38.35L104.90 38.42Q104.46 36.20 104.57 32.50L104.57 32.50L104.65 32.59Q104.53 32.16 104.57 31.36L104.69 31.48L104.58 31.37Q104.69 30.80 104.62 30.30L104.65 30.34L104.63 30.32Q104.49 28.62 103.39 28.12L103.45 28.18L103.33 28.07Q103.19 27.24 102.43 26.63L102.55 26.75L102.40 26.61Q100.77 25.65 97.72 25.73L97.71 25.72L97.79 25.80Q95.83 25.75 95.00 25.94L95.11 26.05L94.99 25.93Q93.60 26.33 92.65 27.24L92.60 27.19L92.58 27.17Q92.59 26.76 92.21 25.74L92.18 25.71L92.08 25.61Q89.27 24.94 87.45 23.95L87.47 23.97L87.51 24.01Q90.61 28.93 90.61 34.68L90.52 34.59L90.50 34.57Q90.48 38.93 88.57 42.77L88.54 42.74L88.58 42.78Q89.35 42.56 90.64 42.18L90.54 42.08L90.68 42.21Q90.04 43.33 89.51 44.32L89.65 44.46L89.59 44.40Q90.94 43.88 94.48 43.31L94.43 43.26L94.58 43.41Q95.54 38.25 95.43 33.41L95.32 33.31L95.43 33.42Q95.41 32.59 96.59 31.87L96.44 31.72L96.49 31.77Q97.58 31.19 98.69 31.07L98.60 30.98L98.59 30.98Q99.12 31.01 99.54 31.20L99.52 31.18L99.51 31.17Q99.30 33.66 99.33 36.21L99.35 36.23L99.48 36.36Q99.43 38.78 99.92 41.30Z"/><path fill="#222" d="M21.99 19.70L21.93 19.63L21.87 19.58Q19.92 19.72 18.97 19.88L19.07 19.97L19.11 20.01Q17.41 20.18 16.19 20.71L16.15 20.67L16.25 20.77Q12.61 22.08 12.50 26.76L12.61 26.88L12.47 26.74Q12.54 29.55 13.19 32.48L13.22 32.51L13.07 32.36Q13.92 36.37 17.53 37.55L17.70 37.71L17.62 37.64Q19.44 38.12 20.89 37.97L20.96 38.05L21.48 38.11L21.42 38.05Q21.62 38.05 21.81 38.09L21.73 38.01L21.69 37.98Q22.01 38.14 22.16 38.10L22.16 38.10L22.13 38.07Q24.63 37.68 26.01 37.11L26.17 37.28L22.59 33.74L22.45 33.59Q22.86 33.36 23.47 32.75L23.47 32.75L24.40 31.86L24.42 31.88Q26.22 33.91 28.20 35.96L28.16 35.92L28.18 35.93Q30.43 34.04 30.70 28.67L30.81 28.79L30.73 28.70Q30.74 27.73 30.74 26.81L30.84 26.91L30.87 26.94Q30.82 21.22 25.76 20.11L25.75 20.11L25.75 20.10Q24.46 19.81 21.95 19.65ZM34.74 41.73L34.67 41.67L34.66 41.66Q34.08 42.10 32.90 42.98L33.06 43.14L28.53 39.33L28.46 39.26Q26.13 40.62 21.86 40.66L21.90 40.69L21.81 40.61Q15.34 40.80 12.52 38.55L12.50 38.53L12.40 38.43Q10.73 36.76 10.27 33.79L10.19 33.71L10.28 33.79Q9.92 31.84 9.54 28.26L9.69 28.41L9.73 28.45Q9.54 27.54 9.43 25.79L9.54 25.90L9.55 25.91Q9.45 24.40 9.49 23.53L9.46 23.49L9.35 23.39Q9.57 20.45 11.32 18.89L11.34 18.91L11.31 18.88Q12.74 17.45 15.94 16.96L16.04 17.05L16.04 17.06Q18.37 16.53 21.26 16.61L21.39 16.73L21.43 16.77Q28.79 16.75 31.91 19.11L32.06 19.26L31.90 19.10Q34.16 21.32 33.89 26.23L33.78 26.12L33.95 26.29Q33.70 29.88 33.51 31.22L33.58 31.28L33.56 31.27Q32.86 35.71 30.54 38.03L30.49 37.98L30.51 38.00Q31.97 39.23 34.71 41.71ZM29.97 17.55L29.89 17.47L29.80 17.38Q27.81 16.69 21.30 16.19L21.28 16.17L21.35 16.24Q20.02 16.32 17.24 16.43L17.16 16.35L17.30 16.49Q12.89 16.54 10.65 18.52L10.67 18.54L10.74 18.61Q9.05 20.04 9.05 23.20L9.15 23.30L9.02 23.18Q9.02 24.01 9.17 25.72L9.30 25.85L9.11 25.67Q9.37 27.48 9.37 28.35L9.44 28.42L9.37 28.36Q9.54 30.13 9.92 33.70L9.96 33.74L9.90 33.68Q10.29 36.59 11.89 38.64L11.75 38.51L11.83 38.58Q12.19 39.44 13.41 40.58L13.33 40.50L13.41 40.58Q16.10 42.55 21.27 42.81L21.35 42.89L21.23 42.76Q21.57 42.77 23.97 42.88L24.06 42.97L24.13 43.04Q28.84 43.10 31.12 42.04L31.20 42.12L31.07 41.98Q31.96 42.68 36.68 46.26L36.77 46.36L36.75 46.33Q37.32 45.76 38.61 44.77L38.60 44.76L38.71 44.87Q37.78 44.13 36.98 43.45L36.96 43.43L35.26 41.92L35.45 41.95L35.38 41.88Q34.76 41.38 33.54 40.35L33.58 40.39L33.54 40.35Q35.45 37.84 35.45 33.31L35.50 33.36L35.50 33.35Q35.49 32.93 35.52 32.09L35.52 32.09L35.51 32.07Q35.52 31.21 35.52 30.79L35.55 30.82L35.57 30.84Q35.62 25.37 34.90 23.01L34.78 22.89L34.82 22.94Q34.42 21.62 33.55 20.56L33.62 20.63L33.60 20.61Q32.76 18.44 29.83 17.41ZM23.95 22.11L23.81 21.98L23.90 22.07Q27.93 21.95 29.76 23.55L29.67 23.45L29.71 23.49Q30.26 24.70 30.38 26.03L30.38 26.03L30.48 26.13Q30.51 27.34 30.43 28.71L30.46 28.74L30.53 28.81Q30.13 33.70 28.19 35.41L28.22 35.45L28.08 35.31Q26.87 34.10 24.36 31.35L24.44 31.43L24.31 31.30Q23.55 32.06 21.98 33.62L21.97 33.61L21.93 33.57Q22.58 34.26 23.73 35.44L23.69 35.41L23.66 35.49L23.62 35.46Q24.21 36.00 25.24 37.07L25.32 37.15L25.15 36.98Q24.32 37.41 22.00 37.71L21.93 37.64L21.32 37.57L20.98 37.64L21.03 37.73L20.95 37.66Q17.57 37.74 15.59 36.10L15.49 36.00L15.55 36.06Q14.44 33.89 14.48 30.76L14.58 30.86L14.46 30.75Q14.67 22.09 23.85 22.01Z"/><path fill="#333" d="M117.80 40.40L117.79 40.39L117.71 40.31Q113.66 40.56 112.67 38.24L112.79 38.36L112.80 38.38Q113.55 37.41 115.11 35.62L115.12 35.63L115.04 35.56Q115.62 37.66 118.63 37.77L118.50 37.64L118.49 37.63Q122.02 37.85 123.66 36.52L123.52 36.38L123.49 36.35Q125.02 34.88 124.95 32.17L124.89 32.12L124.89 32.12Q124.75 27.07 119.96 27.29L119.96 27.30L119.93 27.27Q117.18 27.49 115.43 28.75L115.30 28.62L114.97 28.44L114.84 28.38L114.88 28.42Q115.13 25.17 115.01 22.43L115.10 22.52L115.11 22.53Q115.05 19.95 114.70 16.64L114.64 16.58L114.64 16.58Q118.35 17.58 122.16 17.47L122.02 17.33L122.00 17.30Q125.81 17.23 129.39 15.98L129.47 16.06L128.86 17.55L128.80 17.48Q128.59 18.34 128.40 19.18L128.38 19.16L128.31 19.09Q125.21 20.13 121.32 20.13L121.46 20.27L121.42 20.23Q119.92 20.18 118.44 20.03L118.52 20.11L118.43 20.02Q118.43 20.78 118.09 25.24L118.13 25.28L118.07 25.22Q118.85 24.70 120.90 24.55L120.91 24.56L121.03 24.67Q124.58 24.73 126.03 26.40L126.05 26.42L126.18 26.56Q127.44 27.96 127.71 31.81L127.83 31.93L127.77 31.88Q128.11 36.14 126.90 38.16L126.86 38.12L126.85 38.11Q124.85 40.03 121.54 40.26L121.42 40.15L121.56 40.29Q120.54 40.32 117.87 40.48ZM123.74 42.58L123.84 42.67L123.89 42.73Q127.29 42.78 129.20 41.68L129.08 41.56L129.13 41.61Q130.09 40.06 130.09 37.96L130.17 38.04L130.21 38.08Q130.22 35.01 129.27 30.90L129.16 30.79L129.28 30.91Q128.75 29.00 127.53 27.60L127.64 27.71L127.55 27.66L127.48 27.51L127.00 27.18L127.01 27.20Q126.82 26.59 126.18 25.90L126.06 25.79L126.04 25.81L126.05 25.81Q124.68 24.29 120.98 24.29L120.81 24.11L120.64 24.21L120.57 24.14Q120.69 23.61 120.88 22.51L120.92 22.55L120.99 22.62Q125.98 22.74 130.02 21.10L130.01 21.09L129.85 20.93Q130.33 19.58 131.28 16.77L131.35 16.84L129.13 17.66L129.18 17.71Q129.57 16.58 130.07 15.44L130.00 15.37L129.99 15.36Q126.28 16.94 122.17 17.02L122.06 16.91L122.02 16.87Q118.05 17.13 114.09 16.02L114.00 15.93L114.00 15.94Q114.64 20.30 114.64 24.72L114.63 24.71L114.81 24.89Q114.67 26.65 114.55 28.55L114.57 28.57L114.56 28.56Q114.81 28.74 115.38 29.04L115.48 29.14L115.47 29.13Q115.70 28.79 116.35 28.44L116.37 28.46L116.49 28.59Q116.49 29.38 116.26 30.91L116.12 30.77L116.25 30.90Q116.53 30.95 116.95 31.18L116.92 31.15L117.00 31.23Q119.86 29.56 121.73 29.56L121.59 29.42L121.57 29.40Q122.91 29.41 124.09 30.06L124.10 30.07L124.09 30.06Q124.58 31.24 124.62 32.19L124.53 32.09L124.58 32.14Q124.55 34.63 123.52 35.73L123.69 35.90L123.54 35.75Q122.32 37.12 120.08 37.35L120.06 37.34L119.99 37.26Q119.06 37.36 118.37 37.29L118.39 37.31L118.32 37.23Q117.55 37.18 116.79 36.84L116.73 36.78L116.72 36.58L116.57 36.66L116.62 36.71Q115.80 36.20 115.27 34.87L115.19 34.78L115.23 34.83Q113.98 36.32 112.30 38.45L112.32 38.47L112.17 38.32Q112.61 39.10 113.45 40.05L113.48 40.09L113.43 40.03Q114.45 41.82 117.27 42.31L117.29 42.33L117.19 42.24Q118.51 42.60 123.87 42.71Z"/><path fill="#222" d="M72.66 40.07L72.76 40.16L70.60 40.29L70.54 40.23Q70.15 40.30 69.18 40.36L69.14 40.32L69.18 40.35Q68.24 40.44 67.74 40.44L67.73 40.43L67.76 40.46Q66.09 40.43 65.06 39.59L65.15 39.67L64.97 39.49Q65.89 38.51 67.53 36.38L67.59 36.44L67.43 36.28Q68.79 37.95 71.00 37.72L70.97 37.69L71.05 37.78Q71.87 37.56 72.51 36.91L72.54 36.94L72.48 36.88Q73.24 36.35 73.13 35.47L73.08 35.42L73.08 35.43Q72.91 30.76 72.99 26.19L73.10 26.31L72.99 26.20Q73.01 21.58 73.55 16.97L73.55 16.97L73.50 16.93Q75.54 16.84 77.68 15.81L77.62 15.76L77.64 15.77Q75.89 22.62 75.89 29.86L75.70 29.67L75.77 29.74Q75.82 33.33 76.27 36.83L76.26 36.82L76.35 36.90Q76.30 37.12 76.30 37.47L76.29 37.46L76.23 37.39Q76.32 38.06 76.10 38.59L76.12 38.62L76.13 38.63Q75.44 39.76 72.62 40.03ZM77.63 42.94L77.67 42.98L78.01 42.98L78.32 42.87L78.49 42.67L78.47 42.65Q78.92 42.52 79.00 42.41L79.01 42.42L78.90 42.31Q79.07 41.11 78.80 40.12L78.76 40.08L78.90 40.21Q77.52 34.38 77.78 28.02L77.68 27.92L77.72 27.96Q77.96 21.84 79.75 15.94L79.87 16.06L79.70 15.89Q78.96 16.67 77.70 17.40L77.67 17.36L77.71 17.41Q77.91 16.65 78.33 15.13L78.35 15.15L78.26 15.06Q75.67 16.31 73.00 16.62L73.16 16.78L73.10 16.71Q72.80 21.17 72.72 26.12L72.62 26.02L72.59 25.98Q72.49 31.87 72.57 35.30L72.73 35.46L72.66 35.38Q72.61 37.05 70.86 37.21L70.92 37.26L70.88 37.22Q69.20 37.37 67.52 35.73L67.57 35.78L67.56 35.77Q65.58 38.36 64.63 39.92L64.49 39.77L64.55 39.84Q65.25 40.54 66.28 40.77L66.24 40.73L66.27 40.76Q66.19 40.90 65.92 41.13L65.95 41.17L65.91 41.12Q67.30 42.01 69.28 42.28L69.41 42.42L69.28 42.28Q69.73 42.39 73.02 42.70L72.99 42.66L72.90 42.58Q76.36 43.05 77.73 43.05Z"/></svg>