<svg xmlns="http://www.w3.org/2000/svg" width="150" height="50" viewBox="0,0,150,50"><path fill="#222" d="M19.11 19.46L19.05 19.41L18.99 19.35Q19.92 23.66 20.07 27.24L19.97 27.14L19.94 27.11Q21.06 27.20 22.13 27.20L22.08 27.15L24.36 27.23L24.42 27.28Q25.51 27.30 26.38 25.90L26.20 25.71L26.20 25.72Q27.00 24.61 27.12 23.43L27.17 23.49L27.08 23.40Q27.56 20.49 23.34 20.00L23.30 19.96L23.23 19.89Q21.59 19.88 18.96 19.31ZM19.97 29.88L19.99 29.89L20.13 30.04Q19.88 36.07 18.73 40.48L18.82 40.57L18.85 40.59Q17.42 41.03 15.10 42.10L15.11 42.11L15.03 42.03Q17.38 35.36 17.11 28.09L17.10 28.07L17.11 28.09Q16.94 20.83 14.16 14.40L14.04 14.28L14.12 14.36Q18.31 17.18 24.55 17.18L24.46 17.09L24.38 17.01Q30.54 17.11 30.69 20.57L30.68 20.56L30.64 20.52Q30.66 22.91 29.67 25.57L29.74 25.64L29.66 25.56Q29.38 26.80 28.43 28.02L28.34 27.93L28.39 27.98Q27.00 29.52 24.45 29.79L24.56 29.90L24.52 29.86Q22.38 30.01 20.14 30.04ZM26.10 32.12L26.14 32.17L26.16 32.19Q30.24 32.35 31.50 27.55L31.64 27.69L31.57 27.62Q32.55 24.00 32.40 21.98L32.47 22.05L32.36 21.94Q32.31 20.48 31.55 19.49L31.41 19.35L31.42 19.37Q31.23 19.17 30.73 18.94L30.58 18.79L30.76 18.97Q30.58 18.63 29.97 17.87L30.09 17.99L30.08 17.98Q28.47 16.60 24.51 16.60L24.46 16.55L24.48 16.57Q17.62 16.60 13.39 13.44L13.34 13.39L13.37 13.42Q16.50 20.47 16.76 27.93L16.80 27.96L16.86 28.02Q17.18 35.73 14.52 42.81L14.57 42.87L14.53 42.83Q15.64 42.22 16.63 41.84L16.62 41.83L16.23 42.97L16.08 42.81Q16.01 43.51 15.74 44.08L15.69 44.02L15.78 44.11Q18.23 43.09 21.12 42.56L20.94 42.38L20.97 42.42Q21.91 37.00 21.99 32.28L21.98 32.27L22.04 32.33Q23.05 32.16 24.04 32.16L24.13 32.25L24.01 32.12Q25.47 32.25 26.27 32.29ZM25.15 22.19L25.13 22.17L25.15 22.19Q25.70 22.24 26.69 22.47L26.62 22.40L26.69 22.47Q26.81 22.71 26.85 23.01L26.95 23.12L26.78 22.94Q26.81 23.20 26.74 23.47L26.85 23.59L26.91 23.64Q26.60 24.67 25.88 25.55L26.01 25.68L25.97 25.63Q25.39 26.69 24.36 26.88L24.30 26.82L24.37 26.90Q23.57 26.82 21.94 26.82L21.97 26.85L22.08 26.96Q22.01 24.65 21.78 22.29L21.66 22.16L23.56 22.39L23.53 22.36Q24.36 22.35 25.23 22.27Z"/><path fill="#222" d="M98.63 39.79L98.60 39.76L98.59 39.75Q96.65 39.71 94.63 39.90L94.65 39.93L94.78 40.05Q95.45 34.82 95.45 29.99L95.35 29.89L95.31 29.85Q95.43 25.06 94.78 19.84L94.80 19.86L94.85 19.90Q90.22 19.46 87.02 17.79L86.93 17.70L86.30 16.04L86.23 15.97Q86.10 15.54 85.49 14.32L85.40 14.23L85.42 14.24Q90.51 16.94 96.52 17.13L96.43 17.04L96.54 17.15Q102.37 17.27 107.82 15.21L107.82 15.21L107.84 15.24Q107.18 16.71 106.53 18.53L106.57 18.57L106.49 18.49Q102.91 19.83 98.65 20.02L98.69 20.05L98.58 19.94Q98.47 25.05 98.47 30.00L98.40 29.93L98.29 29.82Q98.42 34.90 98.73 39.89ZM108.53 14.55L108.56 14.58L108.51 14.54Q102.71 16.84 96.50 16.65L96.56 16.71L96.39 16.54Q89.78 16.40 84.68 13.43L84.74 13.49L84.78 13.53Q85.50 14.78 86.79 18.06L86.79 18.05L86.78 18.04Q87.43 18.35 88.68 18.92L88.72 18.96L88.64 18.88Q88.91 19.60 89.25 21.12L89.37 21.25L89.18 21.06Q91.66 22.09 94.71 22.32L94.57 22.17L94.53 22.14Q95.01 25.93 95.01 29.70L94.94 29.63L95.08 29.77Q95.01 35.07 94.21 40.44L94.12 40.34L94.12 40.35Q95.77 40.21 96.31 40.21L96.34 40.24L96.47 40.37Q96.49 40.70 96.43 41.36L96.33 41.26L96.43 41.36Q96.22 41.88 96.22 42.22L96.22 42.22L96.19 42.19Q97.47 42.21 98.99 42.28L98.92 42.21L98.90 42.20Q99.96 42.38 101.79 42.53L101.69 42.43L101.82 42.56Q100.47 37.52 100.35 32.34L100.48 32.47L100.39 32.37Q100.23 27.04 100.77 22.13L100.87 22.24L100.72 22.09Q104.78 21.66 107.94 20.44L107.99 20.49L107.88 20.38Q108.67 18.08 109.70 16.03L109.63 15.96L109.53 15.86Q108.24 16.58 107.44 16.89L107.57 17.02L107.51 16.96Q107.97 15.70 108.54 14.56Z"/><path fill="#444" d="M43.93 29.72L43.91 29.70L43.75 29.55Q43.81 33.86 43.08 38.01L43.04 37.97L43.16 38.09Q45.41 37.52 48.49 37.41L48.38 37.30L48.38 37.30Q49.72 37.50 50.79 36.49L50.86 36.55L50.83 36.53Q51.86 35.49 51.86 34.15L52.02 34.31L51.91 34.20Q51.89 33.87 51.85 33.61L51.95 33.71L51.87 33.63Q51.78 30.76 49.53 29.92L49.57 29.96L49.43 29.82Q48.69 29.54 48.01 29.61L48.07 29.68L47.99 29.60Q46.90 29.49 45.87 29.53L46.02 29.68L45.90 29.56Q44.81 29.58 43.79 29.58ZM42.64 19.22L42.59 19.17L42.64 19.22Q43.59 22.61 43.86 26.99L43.80 26.93L43.70 26.82Q45.26 27.06 47.93 27.10L47.96 27.13L47.93 27.10Q50.73 27.00 51.07 23.46L51.10 23.50L51.19 23.58Q51.26 21.52 49.85 20.68L49.88 20.72L50.04 20.87Q48.98 20.20 44.57 19.55L44.65 19.63L44.52 19.50Q43.61 19.50 42.70 19.28ZM39.06 42.17L38.97 42.09L38.89 42.01Q41.50 35.48 41.23 28.09L41.12 27.98L41.19 28.05Q40.96 20.82 38.03 14.35L37.94 14.25L38.00 14.31Q41.78 16.84 48.00 17.08L47.94 17.02L48.01 17.10Q54.20 17.30 54.54 20.20L54.56 20.21L54.53 20.18Q54.87 22.96 53.46 25.63L53.49 25.65L53.58 25.74Q52.65 27.06 51.05 27.74L51.04 27.73L51.18 27.87Q54.77 28.49 54.99 33.86L55.06 33.93L54.95 33.82Q55.07 34.97 55.00 36.38L55.07 36.44L55.04 36.42Q55.01 37.76 54.08 38.70L53.95 38.56L54.13 38.74Q53.10 39.58 51.77 39.73L51.79 39.75L51.83 39.79Q50.30 39.83 49.24 39.83L49.24 39.83L49.33 39.92Q43.46 39.76 38.93 42.05ZM51.70 42.32L51.74 42.37L51.78 42.41Q52.74 42.49 54.60 42.60L54.62 42.62L54.49 42.49Q55.95 42.58 57.05 41.70L57.03 41.68L57.11 41.76Q57.97 40.90 57.85 39.34L57.77 39.26L57.74 39.23Q57.61 38.23 56.89 34.77L56.90 34.77L56.90 34.78Q56.37 31.69 54.51 30.21L54.45 30.15L54.05 29.34L54.08 29.37Q55.71 27.91 56.28 24.14L56.22 24.08L56.16 24.03Q56.39 22.96 56.31 21.55L56.40 21.64L56.40 21.64Q56.32 20.30 55.21 19.46L55.25 19.50L55.25 19.50Q54.93 19.29 54.82 19.25L54.76 19.19L54.73 19.16Q54.46 18.63 53.63 17.83L53.58 17.79L53.65 17.85Q52.22 16.88 47.99 16.69L47.91 16.61L47.88 16.58Q41.26 16.32 37.27 13.43L37.31 13.47L37.28 13.44Q40.59 20.48 40.89 28.02L40.81 27.94L40.95 28.08Q41.25 35.87 38.43 42.80L38.32 42.69L40.43 41.79L40.44 41.80Q40.15 43.04 39.66 44.18L39.56 44.08L39.62 44.15Q43.80 42.16 48.83 42.16L48.83 42.16L48.99 42.33Q50.23 42.15 51.67 42.30ZM49.67 31.89L49.62 31.83L49.56 31.78Q50.39 31.80 51.30 32.26L51.21 32.17L51.24 32.19Q51.36 32.55 51.51 33.61L51.45 33.55L51.48 33.58Q51.75 35.03 50.82 36.08L50.75 36.01L50.84 36.10Q49.90 37.14 48.49 37.03L48.41 36.94L47.02 37.15L47.01 37.14Q46.22 37.15 45.50 37.27L45.56 37.33L45.45 37.22Q45.76 35.40 45.84 31.93L45.95 32.04L45.89 31.98Q46.53 31.90 47.78 31.86L47.69 31.77L47.69 31.77Q49.09 31.88 49.70 31.92ZM48.70 22.35L48.60 22.25L49.04 22.31L49.07 22.33Q49.17 22.21 49.36 22.25L49.39 22.28L49.89 22.39L50.14 22.45L50.70 22.48L50.74 22.53Q50.74 22.68 50.74 22.98L50.79 23.03L50.72 23.49L50.88 23.65Q50.84 24.86 49.96 25.80L50.01 25.85L49.91 25.75Q49.05 26.70 47.83 26.70L47.78 26.64L47.76 26.62Q46.77 26.66 46.77 26.66L46.81 26.70L46.91 26.80Q45.57 26.76 45.92 26.76L45.90 26.75L45.84 26.69Q45.81 25.17 45.51 22.13L45.40 22.02L45.52 22.14Q47.18 22.35 48.70 22.35Z"/><path fill="#444" d="M75.40 29.56L75.39 29.55L75.35 29.50Q74.11 28.69 73.47 28.73L73.59 28.85L73.50 28.77Q72.04 28.75 71.00 29.76L71.00 29.76L71.07 29.83Q70.00 30.82 70.12 32.19L70.15 32.22L70.08 32.15Q70.39 36.50 69.51 41.03L69.57 41.09L69.67 41.19Q67.29 41.48 66.19 42.01L66.33 42.15L66.28 42.10Q67.81 37.96 67.58 33.50L67.55 33.48L67.52 33.44Q67.29 28.95 65.58 24.88L65.68 24.98L65.55 24.85Q66.81 25.65 69.10 26.30L69.07 26.27L69.57 28.91L69.62 28.96Q70.22 25.98 74.49 25.98L74.47 25.97L74.60 26.09Q74.84 25.88 75.14 25.88L75.19 25.92L75.14 25.88Q76.52 25.96 77.78 26.65L77.77 26.63L77.74 26.60Q76.45 27.98 75.31 29.47ZM76.84 31.38L76.98 31.36L77.13 31.52Q78.00 30.33 79.67 27.89L79.66 27.88L79.58 27.80Q79.14 27.48 77.62 27.21L77.63 27.23L77.57 27.16Q77.97 26.92 78.43 26.31L78.33 26.21L78.51 26.39Q76.54 25.41 74.60 25.60L74.50 25.50L74.63 25.63Q72.73 25.86 72.01 26.13L71.98 26.10L71.92 26.04Q70.40 26.35 69.60 27.46L69.68 27.53L69.50 26.70L69.31 25.87L69.35 25.90Q66.83 25.36 64.85 24.03L64.94 24.12L65.03 24.21Q67.03 28.46 67.25 33.33L67.33 33.40L67.30 33.38Q67.62 38.38 65.87 42.91L65.75 42.79L65.85 42.89Q66.80 42.28 67.68 41.98L67.62 41.92L67.63 41.93Q67.35 43.02 66.86 44.09L66.93 44.16L66.88 44.11Q69.75 43.29 71.89 43.18L71.87 43.16L72.22 38.79L72.13 38.70Q72.33 36.54 72.33 34.30L72.24 34.21L72.22 34.18Q72.26 33.04 73.17 32.07L73.20 32.10L73.15 32.05Q74.08 31.09 75.22 31.02L75.26 31.06L75.13 30.93Q75.91 30.95 76.64 31.63L76.45 31.45L76.99 31.53ZM71.90 29.64L71.90 29.56L71.92 29.70L71.93 29.67Z"/><path fill="#333" d="M120.19 40.26L120.18 40.25L120.22 40.29Q116.76 40.42 115.13 39.88L115.14 39.89L115.00 39.76Q113.00 39.09 112.70 35.70L112.83 35.84L114.24 34.73L114.20 34.69Q114.91 34.15 115.67 33.65L115.62 33.60L115.79 33.77Q115.36 35.51 116.96 36.73L117.09 36.86L116.95 36.72Q118.39 37.89 120.52 37.70L120.54 37.72L120.55 37.73Q124.85 37.23 124.66 33.69L124.59 33.62L124.67 33.71Q124.55 31.49 121.92 30.27L121.88 30.23L121.91 30.25Q119.04 29.18 116.68 27.96L116.68 27.96L116.70 27.98Q114.13 26.62 113.14 21.94L113.13 21.94L113.06 21.86Q113.06 21.52 112.95 20.76L112.80 20.61L112.86 20.67Q112.82 19.95 112.89 19.37L112.85 19.33L112.83 19.31Q113.03 17.77 114.29 17.31L114.24 17.26L114.34 17.36Q116.71 16.46 120.71 16.65L120.64 16.58L120.70 16.64Q122.57 16.80 123.37 16.87L123.23 16.73L123.29 16.79Q124.87 17.08 125.94 17.54L125.80 17.40L125.83 17.43Q128.04 18.00 128.27 20.47L128.24 20.44L128.23 20.44Q127.11 21.07 124.91 22.40L125.02 22.52L124.87 22.37Q124.48 19.39 120.10 19.39L120.20 19.49L120.14 19.43Q118.18 19.37 117.19 20.05L117.22 20.08L117.36 20.22Q116.02 20.56 116.25 22.35L116.31 22.42L116.22 22.32Q116.67 24.72 119.64 26.24L119.62 26.22L119.51 26.10Q120.05 26.34 124.54 27.98L124.55 27.99L124.62 28.06Q127.25 29.54 127.67 33.92L127.55 33.80L127.60 33.85Q127.59 34.00 127.67 35.25L127.73 35.31L127.76 35.35Q127.80 38.09 126.24 39.19L126.17 39.12L126.21 39.17Q124.44 40.21 120.25 40.32ZM122.52 42.67L122.53 42.68L122.56 42.70Q124.02 42.80 126.00 42.80L125.89 42.69L125.92 42.72Q127.91 42.61 129.16 42.19L129.30 42.33L129.27 42.30Q130.49 41.46 130.41 39.67L130.37 39.63L130.31 39.57Q130.44 38.75 130.06 36.69L129.94 36.57L129.93 36.57Q129.08 31.95 126.99 30.08L126.90 30.00L126.97 30.07Q126.19 28.48 124.86 27.76L124.91 27.82L119.50 25.64L119.60 25.74Q119.21 25.51 118.76 25.28L118.86 25.38L118.72 24.97L118.65 24.56L118.67 24.58Q118.42 23.07 119.56 22.46L119.58 22.48L119.55 22.45Q120.38 21.95 122.09 21.76L122.05 21.72L122.01 21.68Q123.32 21.73 124.46 22.19L124.35 22.08L124.46 22.18Q124.46 22.22 124.65 23.06L124.73 23.14L124.68 23.09Q124.79 22.86 125.29 22.63L125.24 22.59L125.34 22.69Q126.14 23.67 126.25 24.82L126.18 24.74L126.19 24.75Q126.26 24.71 129.92 22.12L129.93 22.14L129.86 22.07Q129.71 19.56 128.27 18.87L128.12 18.73L128.22 18.83Q127.64 17.56 126.19 17.03L126.12 16.95L126.08 16.92Q123.89 16.22 120.70 16.22L120.78 16.30L120.72 16.24Q115.68 16.11 113.82 16.80L113.82 16.80L113.92 16.90Q112.54 17.31 112.42 18.98L112.50 19.06L112.56 19.12Q112.36 19.49 112.78 21.70L112.84 21.76L112.93 21.85Q113.45 25.45 115.62 27.70L115.76 27.84L115.62 27.70Q116.45 29.44 117.95 30.13L117.99 30.16L118.03 30.20Q119.53 30.89 123.45 32.45L123.45 32.45L123.42 32.46L124.09 32.82L124.03 32.80L124.21 32.98Q124.32 33.35 124.36 33.69L124.32 33.66L124.35 33.69Q124.41 37.13 120.49 37.28L120.55 37.35L120.55 37.35Q119.35 37.33 118.06 36.95L118.05 36.94L118.03 36.92Q117.72 36.12 117.72 35.40L117.64 35.32L117.59 35.27Q117.72 35.13 117.76 34.86L117.68 34.78L117.73 34.84Q117.23 34.98 116.43 35.47L116.57 35.61L116.54 35.58Q116.07 34.50 116.22 33.13L116.12 33.04L116.19 33.10Q114.15 34.34 112.55 35.74L112.45 35.65L112.54 35.74Q112.53 36.49 112.61 37.52L112.64 37.55L112.60 37.50Q113.01 39.32 114.30 40.09L114.19 39.98L114.25 40.03Q115.53 41.92 118.08 42.30L118.06 42.29L117.98 42.20Q119.56 42.45 122.49 42.64Z"/></svg>