<svg xmlns="http://www.w3.org/2000/svg" width="150" height="50" viewBox="0,0,150,50"><path fill="#333" d="M131.15 23.15L130.97 22.97L131.14 23.14Q129.27 25.79 126.60 31.43L126.56 31.39L124.51 35.58L124.59 35.66Q123.77 37.62 122.43 39.86L122.32 39.75L122.44 39.86Q122.93 39.90 121.26 39.94L121.17 39.86L121.09 39.77Q121.07 39.76 119.82 39.76L119.89 39.83L120.00 39.94Q119.28 38.46 116.35 31.30L116.18 31.13L116.33 31.28Q114.03 25.78 111.93 22.77L111.90 22.74L112.06 22.90Q112.75 25.92 112.75 29.08L112.67 29.00L112.70 29.03Q112.83 35.66 109.86 41.22L109.79 41.15L109.77 41.14Q108.40 41.43 106.04 42.15L106.05 42.17L106.14 42.26Q109.70 36.45 109.70 29.22L109.81 29.33L109.73 29.25Q109.83 20.40 104.42 13.43L104.42 13.44L104.41 13.42Q106.06 14.16 108.42 14.84L108.43 14.85L108.40 14.83Q115.43 21.55 121.52 34.87L121.56 34.92L121.47 34.82Q125.07 27.92 127.28 24.42L127.21 24.35L127.21 24.34Q130.70 18.47 134.66 15.01L134.70 15.05L134.67 15.02Q136.11 14.97 138.47 14.21L138.45 14.19L138.43 14.17Q133.31 20.66 133.31 29.27L133.39 29.34L133.44 29.40Q133.41 36.03 136.84 41.55L136.88 41.59L136.82 41.53Q135.49 41.23 132.75 40.62L132.64 40.51L132.64 40.51Q130.39 35.83 130.39 29.85L130.46 29.92L130.48 29.93Q130.39 26.43 131.08 23.08ZM132.63 41.08L132.49 40.94L132.63 41.07Q133.17 41.04 134.62 41.31L134.59 41.28L134.66 41.35Q135.21 42.20 136.16 43.69L136.03 43.56L136.08 43.61Q138.31 44.12 141.77 45.34L141.78 45.35L141.60 45.17Q135.42 38.92 135.42 29.09L135.44 29.11L135.43 29.11Q135.36 21.31 139.74 15.18L139.77 15.20L137.70 16.03L137.68 16.01Q138.68 14.46 139.33 13.58L139.21 13.47L139.28 13.54Q137.45 14.22 134.83 14.76L134.71 14.64L134.69 14.61Q128.02 20.81 121.96 33.41L121.83 33.28L121.84 33.29Q116.77 22.44 111.83 17.19L111.89 17.25L111.81 17.17Q111.38 17.05 110.81 16.93L110.78 16.90L109.53 15.57L109.60 15.64Q109.14 15.11 108.45 14.50L108.32 14.37L108.37 14.42Q105.24 13.34 103.45 12.62L103.58 12.74L103.47 12.63Q109.43 19.81 109.43 29.21L109.46 29.24L109.49 29.28Q109.49 36.89 105.34 42.75L105.40 42.81L105.45 42.87Q105.96 42.46 107.26 42.04L107.26 42.05L107.44 42.23Q107.30 42.47 105.89 44.56L105.78 44.45L105.76 44.43Q107.56 43.94 111.06 43.18L111.17 43.29L111.15 43.27Q114.89 36.23 114.70 28.47L114.65 28.42L114.65 28.42Q116.19 32.43 119.65 40.31L119.73 40.39L119.60 40.26Q119.79 40.15 120.02 40.15L120.08 40.21L120.73 40.33L120.65 40.25Q121.10 40.92 121.90 42.22L121.80 42.12L121.88 42.20Q123.49 42.17 123.49 42.17L123.46 42.14L123.47 42.15Q124.44 42.09 125.09 42.17L125.23 42.32L125.25 42.33Q126.74 38.23 130.09 30.23L130.09 30.24L130.15 30.29Q129.96 35.66 132.55 40.99Z"/><path fill="#333" d="M70.99 29.09L71.03 29.13L71.08 29.18Q69.28 29.10 68.05 30.52L67.96 30.44L68.02 30.50Q66.63 31.77 66.44 33.67L66.49 33.73L66.59 33.82Q66.31 35.83 67.40 36.80L67.36 36.77L67.42 36.83Q68.55 37.85 70.65 37.73L70.49 37.58L70.60 37.68Q72.75 37.58 73.85 36.90L73.70 36.75L73.75 36.80Q74.88 35.68 74.88 34.12L74.86 34.11L74.85 34.10Q74.92 33.78 74.84 33.40L74.85 33.41L74.76 33.32Q74.87 31.68 73.77 30.32L73.72 30.27L73.80 30.36Q72.71 29.02 71.03 29.13ZM70.52 40.15L70.49 40.13L70.56 40.20Q66.16 40.17 64.75 39.41L64.81 39.47L64.88 39.54Q63.85 38.77 63.66 37.06L63.49 36.89L63.58 36.98Q63.46 36.22 63.50 35.50L63.67 35.66L63.67 35.67Q63.60 34.50 63.60 34.04L63.69 34.12L63.75 34.19Q64.24 31.36 64.39 30.67L64.29 30.58L64.33 30.61Q64.68 28.57 65.52 27.16L65.52 27.16L65.62 27.27Q68.21 22.81 74.15 16.45L74.19 16.49L74.26 16.56Q76.94 16.28 79.15 15.48L79.01 15.33L79.10 15.42Q72.15 22.79 68.96 27.02L69.11 27.17L68.98 27.04Q69.93 26.51 71.22 26.51L71.27 26.55L71.39 26.68Q74.62 26.59 76.15 28.53L76.05 28.44L76.07 28.46Q77.45 30.15 77.80 33.69L77.89 33.78L77.86 33.75Q77.87 34.41 77.87 35.02L77.88 35.03L77.98 35.13Q77.98 38.25 75.78 39.32L75.77 39.32L75.73 39.28Q74.42 39.79 70.53 40.17ZM72.88 42.63L72.84 42.59L72.85 42.60Q74.23 42.65 76.21 42.72L76.17 42.69L76.15 42.66Q77.76 42.71 79.32 41.99L79.31 41.98L79.34 42.00Q80.40 41.16 80.40 39.37L80.36 39.34L80.44 39.42Q80.54 39.02 80.37 38.03L80.36 38.03L80.20 37.86Q80.15 37.00 80.15 36.54L80.04 36.43L80.17 36.55Q79.25 31.79 77.65 29.89L77.73 29.97L77.65 29.89Q77.55 29.75 77.40 29.52L77.32 29.44L77.08 29.27L77.06 29.30L77.11 29.35Q76.70 28.79 76.09 27.83L76.13 27.87L76.04 27.78Q75.15 26.86 73.17 26.40L73.10 26.33L73.25 26.48Q74.40 24.81 77.37 21.12L77.28 21.03L81.53 15.77L81.69 15.92Q79.98 16.64 77.58 17.40L77.61 17.44L77.60 17.43Q78.64 16.56 80.42 14.58L80.43 14.59L80.34 14.49Q77.94 15.56 74.06 16.13L74.01 16.08L74.02 16.09Q68.33 22.02 65.37 26.97L65.33 26.93L65.31 26.91Q63.79 29.43 63.22 35.67L63.33 35.78L63.26 35.71Q63.15 36.24 63.22 37.20L63.25 37.22L63.32 37.29Q63.43 39.08 64.54 39.99L64.52 39.98L64.39 39.85Q64.92 40.16 64.89 40.19L64.71 40.02L64.79 40.10Q65.13 40.97 65.93 41.39L65.91 41.37L65.97 41.43Q67.34 42.03 69.28 42.22L69.36 42.31L69.44 42.39Q69.37 42.32 72.87 42.62ZM72.70 31.45L72.56 31.31L72.64 31.39Q73.27 31.33 74.22 31.82L74.08 31.69L74.27 31.88Q74.43 32.64 74.43 33.29L74.54 33.40L74.55 33.42Q74.74 35.28 73.79 36.27L73.80 36.28L73.77 36.25Q72.67 36.94 70.58 37.24L70.63 37.29L70.50 37.16Q69.15 37.26 68.61 36.99L68.52 36.90L68.64 37.02Q68.44 36.56 68.44 36.25L68.43 36.24L68.42 36.23Q68.23 32.99 71.16 31.69L71.04 31.58L71.17 31.71Q71.97 31.41 72.74 31.48Z"/><path fill="#333" d="M50.82 41.18L50.86 41.22L47.89 41.11L47.97 41.19Q45.55 41.05 44.75 40.93L44.73 40.92L44.71 40.90Q42.87 40.54 41.69 39.66L41.59 39.56L41.73 39.71Q40.48 38.34 40.25 34.99L40.13 34.87L40.19 34.93Q40.06 34.34 39.98 33.12L40.13 33.27L39.99 33.13Q40.13 32.85 40.06 31.75L39.88 31.57L40.06 31.76Q39.95 30.85 39.99 30.13L40.05 30.19L40.00 30.13Q40.21 28.22 41.24 27.45L41.22 27.43L41.29 27.50Q43.06 26.19 47.89 25.96L47.89 25.95L47.93 25.99Q50.04 25.97 50.84 25.97L50.74 25.88L50.73 25.86Q52.20 25.85 53.57 26.16L53.59 26.18L53.62 26.20Q53.16 27.57 52.63 29.40L52.56 29.33L52.50 29.27Q52.12 29.46 51.62 29.42L51.52 29.31L51.56 29.36Q51.52 29.39 50.99 29.28L50.88 29.18L49.94 28.95L50.01 29.03Q48.89 28.70 48.28 28.74L48.36 28.83L48.35 28.81Q43.63 28.89 43.02 31.71L42.92 31.60L42.93 31.61Q42.69 32.78 42.76 33.73L42.74 33.71L42.65 33.62Q42.96 36.36 44.20 37.45L44.11 37.36L44.11 37.37Q45.35 38.45 47.94 38.49L48.02 38.57L47.95 38.50Q49.53 38.63 50.25 38.33L50.10 38.17L51.21 37.77L51.17 37.73Q51.75 37.55 52.32 37.47L52.30 37.44L52.21 37.36Q52.47 39.17 52.85 40.47L53.00 40.62L52.88 40.50Q52.66 40.89 50.87 41.23ZM54.10 44.15L54.07 44.12L54.22 44.28Q54.45 44.17 55.29 44.24L55.33 44.28L55.37 44.33Q55.92 44.26 56.26 43.69L56.29 43.72L56.37 43.80Q55.19 41.75 54.70 39.65L54.69 39.65L54.71 39.67Q54.36 39.62 53.90 39.62L53.82 39.54L53.77 39.48Q53.40 39.54 53.02 39.73L53.10 39.80L53.10 39.80Q52.61 38.41 52.46 37.00L52.47 37.01L52.45 36.98Q51.89 36.96 50.67 37.53L50.63 37.49L50.79 37.65Q49.54 38.19 49.05 38.19L48.97 38.11L48.95 38.09Q48.51 38.15 47.90 38.11L47.96 38.17L47.88 38.09Q47.06 38.15 45.08 37.58L44.97 37.47L45.12 37.61Q44.77 36.88 44.81 35.74L44.73 35.66L44.69 35.62Q44.95 31.46 49.90 30.93L49.86 30.90L49.81 30.84Q50.50 30.85 51.87 31.19L51.99 31.31L51.96 31.28Q53.34 31.63 54.06 31.59L53.94 31.47L53.93 31.46Q54.34 29.20 55.02 27.38L55.16 27.51L55.12 27.48Q54.70 27.32 54.32 27.25L54.46 27.38L53.62 27.23L53.64 27.26Q53.87 26.79 54.25 25.92L54.25 25.92L54.24 25.91Q52.61 25.46 51.05 25.46L51.09 25.50L51.15 25.57Q48.64 25.45 44.26 25.83L44.29 25.86L44.31 25.88Q42.36 26.02 40.80 27.01L40.85 27.06L40.90 27.12Q39.64 28.02 39.64 29.92L39.68 29.96L39.65 29.94Q39.61 30.31 39.72 31.53L39.79 31.60L39.61 31.42Q39.81 32.57 39.78 33.18L39.83 33.24L39.64 33.05Q39.75 35.03 40.48 38.76L40.40 38.68L40.55 38.83Q40.89 39.63 41.39 40.12L41.37 40.11L41.56 40.29L41.59 40.29L41.66 40.36Q42.72 42.52 46.64 43.13L46.68 43.17L46.55 43.04Q49.73 43.56 52.39 43.82L52.52 43.94L52.48 43.90Q53.13 43.83 54.04 44.10Z"/><path fill="#222" d="M92.53 33.22L92.66 33.35L92.71 33.39Q92.55 36.21 91.37 40.85L91.28 40.76L91.37 40.85Q89.54 41.34 87.94 42.14L87.91 42.11L87.93 42.13Q90.56 35.13 90.29 27.70L90.20 27.61L90.19 27.60Q89.88 20.17 86.80 13.44L86.88 13.52L86.85 13.49Q88.81 14.76 90.67 15.33L90.72 15.37L90.63 15.28Q92.88 22.37 92.88 29.03L92.91 29.07L92.82 28.97Q92.91 30.51 92.83 32.00L92.72 31.88L92.70 31.86Q93.92 30.72 99.13 25.77L99.12 25.76L99.21 25.84Q100.27 25.80 101.26 25.73L101.25 25.72L103.26 25.49L103.35 25.57Q100.08 28.47 95.78 32.24L95.90 32.36L95.90 32.36Q99.22 35.07 105.69 40.90L105.65 40.85L105.61 40.82Q103.01 40.04 100.04 39.85L99.92 39.73L100.00 39.81Q97.55 37.78 92.68 33.36ZM102.56 42.52L102.58 42.54L102.55 42.52Q107.19 43.27 110.31 45.21L110.30 45.20L110.26 45.16Q109.10 43.89 106.48 41.49L106.58 41.60L106.59 41.60Q106.86 41.72 107.13 41.84L107.11 41.82L107.09 41.80Q105.01 39.79 102.76 37.89L102.66 37.78L98.34 34.00L98.21 33.87Q103.23 29.71 105.66 26.82L105.58 26.73L105.74 26.89Q104.54 26.99 102.07 27.26L101.96 27.15L101.88 27.08Q103.52 25.67 104.21 24.83L104.24 24.87L104.19 24.81Q101.43 25.32 98.95 25.32L98.99 25.36L98.94 25.31Q97.59 26.66 94.85 29.33L94.93 29.41L94.96 29.44Q94.83 23.52 93.84 17.70L93.85 17.71L93.81 17.66Q93.09 17.48 91.60 17.21L91.67 17.28L91.72 17.33Q91.42 16.46 90.96 14.97L90.98 14.99L91.00 15.01Q88.45 14.29 86.21 12.73L86.23 12.76L86.21 12.73Q89.67 19.58 90.01 27.69L89.96 27.64L89.97 27.65Q90.21 35.46 87.20 42.69L87.32 42.82L87.23 42.72Q88.01 42.51 89.34 41.87L89.38 41.90L89.34 41.86Q89.10 42.69 88.45 44.13L88.38 44.06L88.38 44.07Q91.30 43.06 93.43 42.68L93.46 42.71L93.37 42.62Q93.96 40.13 94.46 35.87L94.54 35.95L94.53 35.94Q97.00 38.06 102.44 42.40Z"/><path fill="#333" d="M25.98 29.47L26.00 29.49L25.90 29.40Q24.86 28.77 24.21 28.81L24.10 28.70L24.09 28.69Q22.72 28.76 21.67 29.77L21.78 29.88L21.77 29.87Q20.71 30.87 20.83 32.24L20.81 32.22L20.88 32.29Q21.15 36.60 20.27 41.13L20.23 41.08L20.19 41.05Q17.99 41.51 16.89 42.04L16.93 42.08L16.94 42.09Q18.44 37.92 18.21 33.47L18.13 33.39L18.15 33.41Q17.89 28.89 16.18 24.81L16.15 24.79L16.22 24.85Q17.37 25.55 19.66 26.19L19.73 26.27L20.33 29.00L20.18 28.85Q21.00 26.09 25.26 26.09L25.24 26.07L25.25 26.08Q25.52 25.89 25.83 25.89L25.95 26.01L25.87 25.94Q27.11 25.89 28.37 26.57L28.49 26.69L28.49 26.69Q27.19 28.06 26.05 29.54ZM27.64 31.51L27.81 31.53L27.70 31.42Q28.68 30.34 30.35 27.91L30.24 27.79L30.25 27.80Q29.84 27.50 28.31 27.24L28.26 27.18L28.27 27.19Q28.68 26.96 29.14 26.35L29.00 26.21L29.09 26.30Q27.13 25.33 25.18 25.52L25.22 25.55L25.25 25.59Q23.37 25.84 22.65 26.11L22.60 26.06L22.55 26.01Q21.13 26.42 20.33 27.52L20.33 27.52L20.15 26.69L20.08 25.97L19.95 25.84Q17.55 25.42 15.57 24.08L15.61 24.13L15.67 24.19Q17.80 28.56 18.02 33.43L17.95 33.35L18.05 33.46Q18.23 38.32 16.47 42.85L16.52 42.90L16.54 42.91Q17.61 42.42 18.48 42.11L18.31 41.94L18.42 42.05Q18.07 43.07 17.57 44.14L17.61 44.17L17.65 44.21Q20.56 43.43 22.69 43.31L22.56 43.19L22.78 38.69L22.78 38.69Q23.00 36.54 23.00 34.30L22.98 34.27L22.95 34.24Q22.97 33.09 23.89 32.12L23.80 32.03L23.90 32.14Q24.73 31.08 25.87 31.00L25.87 31.00L25.84 30.97Q26.48 30.85 27.20 31.53L27.27 31.60L27.67 31.54ZM22.55 29.62L22.62 29.62L22.68 29.79L22.56 29.63Z"/></svg>