<svg xmlns="http://www.w3.org/2000/svg" width="150" height="50" viewBox="0,0,150,50"><path fill="#333" d="M122.47 27.81L122.34 27.68L122.40 27.74Q118.85 27.62 117.74 30.97L117.72 30.94L117.75 30.97Q117.46 32.13 117.35 33.19L117.35 33.20L117.31 33.15Q117.11 35.20 118.10 36.53L118.09 36.53L118.02 36.46Q119.38 37.66 121.85 37.70L121.82 37.67L121.85 37.70Q123.68 37.73 125.08 36.59L125.02 36.53L125.13 36.63Q126.42 35.38 126.42 33.59L126.56 33.73L126.48 33.64Q126.54 33.37 126.46 32.99L126.50 33.02L126.40 32.92Q126.25 27.86 122.44 27.78ZM122.35 40.26L122.35 40.25L122.30 40.20Q118.51 40.45 116.72 38.43L116.77 38.48L116.73 38.44Q116.55 39.52 116.09 40.89L116.09 40.88L116.07 40.87Q113.97 41.47 112.72 42.04L112.71 42.03L112.80 42.12Q115.00 36.18 115.00 29.67L115.00 29.67L115.01 29.68Q114.99 21.35 111.56 13.51L111.63 13.58L111.63 13.58Q113.88 14.84 115.21 15.30L115.15 15.24L115.17 15.26Q117.25 21.86 117.40 27.69L117.38 27.67L117.44 27.73Q118.94 25.11 122.67 25.15L122.70 25.18L122.69 25.17Q125.97 25.26 127.45 27.12L127.46 27.13L127.32 26.99Q129.17 29.30 129.33 32.88L129.40 32.95L129.35 32.90Q129.35 34.01 129.28 35.61L129.30 35.63L129.25 35.58Q129.24 37.06 128.37 38.20L128.41 38.24L128.43 38.27Q126.67 39.97 122.33 40.23ZM127.74 42.67L127.87 42.80L127.83 42.76Q129.39 42.84 130.87 42.15L130.86 42.14L130.79 42.07Q131.95 40.83 131.99 38.89L131.98 38.88L131.90 38.80Q132.01 38.41 131.86 37.23L131.84 37.22L131.71 37.09Q131.60 36.37 131.49 35.46L131.63 35.60L131.67 35.64Q130.67 30.68 129.11 28.63L129.10 28.61L129.20 28.71Q129.08 28.56 128.28 27.68L128.41 27.81L128.45 27.85Q128.05 27.41 127.52 26.61L127.56 26.66L127.52 26.62Q126.03 24.79 122.68 24.83L122.63 24.77L122.67 24.81Q120.61 24.84 119.35 25.45L119.39 25.49L119.42 25.52Q118.92 20.84 118.31 17.64L118.34 17.66L118.47 17.79Q117.77 17.67 116.29 17.29L116.22 17.22L116.23 17.23Q116.10 16.49 115.65 15.05L115.61 15.01L115.58 14.99Q113.09 14.13 110.84 12.56L110.94 12.66L110.92 12.64Q114.70 20.84 114.70 29.63L114.62 29.56L114.76 29.69Q114.64 36.54 112.17 42.75L112.25 42.83L112.30 42.88Q112.92 42.47 114.25 41.90L114.28 41.93L114.15 41.80Q114.01 42.64 113.40 44.17L113.35 44.12L113.36 44.13Q115.40 43.27 118.17 42.74L118.10 42.67L118.54 40.90L118.45 40.81Q120.91 42.66 127.84 42.77ZM123.97 29.99L124.07 30.09L124.05 30.08Q124.95 29.94 125.48 30.32L125.49 30.33L125.47 30.31Q125.92 30.96 126.15 32.97L126.12 32.94L126.09 32.91Q126.25 34.75 124.99 36.06L125.08 36.15L125.12 36.19Q123.86 37.50 121.92 37.39L121.92 37.39L121.85 37.31Q120.88 37.42 119.40 36.92L119.53 37.05L119.41 36.93Q119.29 36.55 119.29 36.02L119.24 35.96L119.24 35.96Q119.30 32.94 120.86 31.34L120.74 31.22L120.80 31.32L120.73 31.25Q122.30 30.00 124.05 30.08Z"/><path fill="#333" d="M96.77 30.53L96.74 30.49L96.64 30.40Q93.13 36.71 89.70 40.67L89.72 40.69L89.80 40.77Q87.85 41.09 85.41 41.97L85.52 42.08L85.37 41.93Q90.42 36.47 95.18 28.06L95.19 28.07L95.14 28.02Q90.44 20.96 84.46 14.57L84.53 14.63L84.60 14.71Q87.40 15.79 89.69 16.29L89.83 16.43L89.76 16.36Q94.42 21.60 96.86 25.55L96.93 25.62L96.84 25.53Q99.43 21.19 103.35 16.78L103.28 16.70L103.19 16.62Q104.87 16.39 108.07 15.63L108.02 15.58L108.07 15.64Q101.95 22.04 98.48 27.98L98.45 27.94L98.48 27.97Q103.63 36.62 108.01 41.19L108.17 41.35L108.14 41.33Q105.48 40.45 103.39 40.23L103.32 40.16L103.46 40.30Q100.67 37.32 96.75 30.51ZM103.23 40.49L103.23 40.49L103.32 40.58Q103.60 40.59 104.06 40.71L104.08 40.73L104.06 40.71Q104.88 41.49 106.40 43.09L106.45 43.14L106.32 43.01Q109.83 43.97 112.88 45.34L112.75 45.21L112.88 45.34Q105.56 38.56 100.46 29.80L100.56 29.90L100.60 29.94Q104.33 23.27 110.23 16.42L110.17 16.37L110.19 16.39Q108.77 17.06 106.60 17.59L106.61 17.60L106.49 17.48Q107.37 16.57 109.12 14.78L109.14 14.80L109.30 14.97Q106.75 15.69 103.06 16.26L103.07 16.26L103.16 16.36Q99.69 20.12 97.10 24.42L97.01 24.33L97.16 24.49Q96.25 22.89 95.07 21.41L95.03 21.36L92.75 18.43L92.42 18.48L92.29 18.36Q92.20 18.42 91.97 18.34L92.01 18.38L91.98 18.35Q91.34 17.56 89.86 16.00L89.81 15.95L89.88 16.02Q85.90 14.98 83.31 13.61L83.49 13.79L83.33 13.62Q90.20 21.03 94.77 28.07L94.73 28.03L94.75 28.05Q90.17 36.14 84.42 42.73L84.44 42.75L84.47 42.78Q85.71 42.04 87.84 41.47L87.87 41.50L86.61 42.98L86.64 43.01Q86.58 42.95 85.25 44.29L85.30 44.33L85.31 44.35Q88.21 43.17 91.37 42.68L91.47 42.78L91.50 42.81Q95.51 38.29 98.10 33.53L98.04 33.47L98.11 33.55Q100.62 37.73 103.32 40.58Z"/><path fill="#444" d="M46.17 29.74L46.24 29.81L46.12 29.69Q41.98 29.54 41.41 32.59L41.31 32.49L41.42 32.60Q41.28 33.71 41.47 34.59L41.48 34.61L41.42 34.55Q41.35 35.24 41.81 36.64L41.77 36.60L41.78 36.62Q43.04 39.97 46.35 39.82L46.32 39.78L46.31 39.78Q48.22 39.74 49.55 38.18L49.66 38.29L49.70 38.33Q50.86 36.79 50.86 34.73L50.80 34.67L50.90 34.77Q51.04 34.19 50.89 33.12L50.86 33.09L50.78 33.02Q50.71 32.10 50.29 31.42L50.31 31.44L50.25 31.38Q48.84 29.93 46.25 29.82ZM50.97 48.17L50.98 48.17L51.08 48.28Q49.13 48.72 41.06 49.10L41.07 49.11L41.17 49.21Q39.42 49.21 37.78 48.37L37.75 48.34L37.82 48.41Q38.62 47.43 40.45 45.64L40.52 45.70L40.54 45.73Q42.94 46.75 45.03 46.56L44.85 46.38L44.90 46.44Q47.87 46.25 48.71 45.98L48.67 45.94L48.58 45.85Q51.00 45.34 51.00 43.55L50.87 43.42L50.82 43.37Q50.89 43.21 50.82 42.98L50.94 43.11L50.72 41.40L50.71 41.39Q50.68 40.60 50.68 39.80L50.80 39.92L50.65 39.77Q49.28 42.02 45.89 42.02L45.88 42.01L46.02 42.15Q42.10 42.11 40.46 39.90L40.42 39.86L40.50 39.94Q39.34 38.36 38.54 33.94L38.48 33.89L38.56 33.96Q38.19 32.38 38.19 30.97L38.28 31.06L38.21 30.99Q38.25 29.24 39.17 28.25L39.13 28.21L39.06 28.15Q40.86 26.86 45.50 26.86L45.48 26.84L47.14 26.94L47.14 26.94Q50.44 27.38 51.77 29.32L51.84 29.39L51.67 29.23Q51.99 28.51 52.41 26.88L52.41 26.87L52.28 26.75Q54.28 26.54 56.03 25.81L55.90 25.69L55.95 25.74Q53.19 31.73 53.19 38.96L53.27 39.05L53.20 38.98Q53.19 41.62 53.57 44.25L53.70 44.38L53.66 44.35Q53.78 44.96 53.70 45.64L53.75 45.69L53.68 45.62Q53.50 47.00 52.28 47.76L52.32 47.80L52.38 47.86Q51.89 48.14 51.05 48.25ZM54.02 51.18L53.94 51.10L53.97 51.12Q55.42 51.17 56.18 50.22L56.27 50.31L56.24 50.27Q56.66 49.40 56.54 48.68L56.57 48.70L56.49 48.62Q56.32 47.92 56.13 47.16L56.17 47.20L56.09 47.12Q54.88 41.91 55.22 36.66L55.31 36.74L55.30 36.73Q55.56 31.21 57.69 26.37L57.70 26.38L55.65 27.37L55.74 27.47Q55.92 26.81 56.15 26.24L56.19 26.28L56.62 25.07L56.54 25.00Q54.29 26.05 52.08 26.47L52.13 26.52L52.11 26.51Q51.67 27.24 51.52 28.27L51.58 28.34L51.53 28.29Q49.38 26.32 45.35 26.32L45.33 26.31L43.64 26.37L43.59 26.32Q40.35 26.31 38.67 27.72L38.71 27.76L38.79 27.84Q37.81 28.76 37.85 30.67L37.83 30.64L37.96 30.77Q38.06 33.31 39.09 37.58L39.03 37.52L38.99 37.48Q39.53 39.46 40.74 40.87L40.69 40.82L40.92 41.05L40.99 41.12L41.03 41.16Q42.22 43.53 44.81 44.06L44.79 44.04L44.65 43.90Q46.12 44.27 47.57 44.31L47.58 44.32L47.53 44.27Q49.26 44.29 50.33 43.91L50.36 43.94L50.42 43.99Q49.86 45.61 47.20 45.95L47.17 45.92L47.22 45.98Q46.15 46.13 45.47 46.13L45.39 46.05L44.93 45.97L44.98 46.02Q42.18 46.04 40.51 45.09L40.54 45.12L38.72 46.73L38.76 46.77Q37.99 47.67 37.16 48.63L37.05 48.52L37.04 48.51Q38.15 49.17 39.14 49.36L39.09 49.30L38.15 50.11L38.31 50.28Q41.04 51.36 46.67 51.36L46.64 51.33L46.90 51.36L46.70 51.17Q50.38 51.23 53.95 51.11ZM48.10 32.09L48.07 32.06L48.02 32.00Q49.40 32.01 50.31 32.43L50.28 32.40L50.29 32.41Q50.41 32.83 50.48 33.52L50.44 33.47L50.51 33.55Q50.52 33.82 50.48 34.73L50.55 34.80L50.51 34.76Q50.54 36.77 49.44 38.07L49.42 38.05L49.28 37.91Q48.12 39.33 46.21 39.30L46.35 39.43L46.31 39.39Q44.72 39.18 43.88 38.76L44.08 38.95L43.97 38.85Q43.52 37.63 43.48 36.60L43.63 36.75L43.60 36.72Q43.48 32.37 48.08 32.07Z"/><path fill="#444" d="M75.50 41.19L75.64 41.33L72.61 41.16L72.57 41.12Q70.13 40.96 69.33 40.85L69.31 40.83L69.33 40.85Q67.63 40.63 66.45 39.76L66.27 39.58L66.26 39.57Q65.09 38.29 64.86 34.94L64.89 34.97L64.74 34.81Q64.85 34.47 64.77 33.25L64.69 33.16L64.70 33.18Q64.74 32.80 64.67 31.69L64.72 31.75L64.67 31.70Q64.59 30.81 64.63 30.09L64.61 30.07L64.57 30.04Q64.89 28.23 65.92 27.47L65.89 27.44L65.88 27.43Q67.87 26.33 72.70 26.10L72.61 26.01L72.54 25.94Q74.73 25.99 75.53 25.99L75.38 25.84L75.47 25.94Q76.90 25.89 78.28 26.19L78.31 26.23L78.38 26.30Q77.65 27.40 77.12 29.23L77.25 29.35L77.14 29.24Q76.62 29.30 76.13 29.26L76.30 29.43L76.15 29.28Q76.03 29.24 75.50 29.13L75.48 29.11L74.66 29.01L74.58 28.93Q73.64 28.79 73.03 28.83L73.00 28.80L72.98 28.78Q68.31 28.90 67.70 31.72L67.69 31.71L67.62 31.64Q67.27 32.70 67.35 33.65L67.36 33.66L67.49 33.80Q67.52 36.26 68.75 37.34L68.81 37.39L68.90 37.48Q70.09 38.53 72.68 38.57L72.55 38.44L72.54 38.43Q74.02 38.46 74.74 38.15L74.92 38.33L75.82 37.71L75.96 37.85Q76.41 37.54 76.98 37.46L77.00 37.48L77.02 37.50Q77.14 39.18 77.52 40.48L77.59 40.54L77.56 40.51Q77.40 40.96 75.61 41.30ZM78.78 44.18L78.73 44.12L78.81 44.20Q79.20 44.25 80.04 44.32L79.94 44.22L80.05 44.34Q80.67 44.34 81.01 43.77L80.97 43.74L81.09 43.85Q79.79 41.67 79.29 39.58L79.30 39.59L79.30 39.59Q78.95 39.54 78.49 39.54L78.45 39.50L78.58 39.63Q78.17 39.64 77.79 39.83L77.72 39.76L77.62 39.66Q77.36 38.49 77.21 37.08L77.24 37.11L77.14 37.01Q76.62 37.03 75.41 37.60L75.44 37.63L75.46 37.65Q74.07 38.05 73.57 38.05L73.65 38.13L73.60 38.08Q73.28 38.25 72.67 38.21L72.58 38.12L72.56 38.10Q71.77 38.19 69.79 37.62L69.73 37.55L69.71 37.54Q69.36 36.80 69.39 35.66L69.40 35.66L69.30 35.56Q69.59 31.44 74.54 30.91L74.61 30.98L74.54 30.90Q75.27 30.96 76.64 31.30L76.58 31.23L76.54 31.19Q77.90 31.53 78.62 31.49L78.68 31.55L78.70 31.57Q79.13 29.33 79.82 27.51L79.85 27.54L79.82 27.51Q79.43 27.39 79.05 27.31L78.94 27.20L78.33 27.27L78.33 27.27Q78.48 26.74 78.86 25.86L78.93 25.93L78.85 25.85Q77.35 25.53 75.79 25.53L75.84 25.58L75.77 25.51Q73.38 25.52 69.00 25.90L68.99 25.89L68.88 25.78Q66.94 25.94 65.38 26.93L65.48 27.03L65.39 26.93Q64.28 28.00 64.28 29.90L64.29 29.91L64.17 29.79Q64.30 30.34 64.42 31.56L64.35 31.49L64.43 31.57Q64.53 32.62 64.49 33.23L64.48 33.22L64.33 33.07Q64.36 34.97 65.08 38.70L65.23 38.84L65.19 38.80Q65.57 39.64 66.07 40.14L66.12 40.19L66.36 40.43L66.37 40.40L66.30 40.33Q67.36 42.50 71.28 43.11L71.20 43.03L71.27 43.09Q74.41 43.57 77.07 43.83L77.10 43.86L77.04 43.80Q77.90 43.94 78.82 44.21Z"/><path fill="#333" d="M20.96 27.56L21.11 27.70L21.02 27.61Q18.82 27.67 17.55 29.17L17.49 29.11L17.54 29.16Q16.25 30.65 16.14 32.93L16.24 33.04L16.16 32.96Q15.96 35.53 16.79 36.48L16.96 36.65L16.95 36.64Q18.06 37.90 20.38 37.75L20.36 37.73L20.27 37.64Q24.99 37.41 25.37 34.41L25.26 34.29L25.27 34.30Q25.47 33.59 25.47 32.79L25.49 32.81L25.35 32.67Q25.32 30.66 24.18 29.13L24.27 29.23L24.25 29.21Q23.03 27.65 21.09 27.69ZM25.84 37.69L25.89 37.73L25.80 37.65Q24.35 39.81 19.97 40.04L20.02 40.09L19.98 40.05Q15.76 40.18 14.13 39.07L14.18 39.12L14.21 39.15Q13.31 38.29 13.16 36.58L13.09 36.52L13.19 36.62Q12.99 35.35 13.19 33.49L13.33 33.63L13.28 33.58Q13.73 29.23 14.95 27.41L14.91 27.37L14.95 27.40Q16.60 24.95 20.44 24.98L20.56 25.10L20.53 25.07Q23.05 25.12 25.34 27.44L25.24 27.34L25.25 27.36Q25.29 21.45 26.89 14.94L26.88 14.93L26.95 15.01Q28.88 14.61 30.74 13.78L30.79 13.82L30.79 13.82Q28.18 20.42 27.91 27.43L27.79 27.30L27.94 27.45Q27.51 34.49 29.65 41.08L29.70 41.13L29.62 41.05Q28.01 40.47 26.30 40.09L26.26 40.05L26.43 40.22Q26.10 38.90 25.95 37.80ZM28.85 43.14L29.00 43.29L28.99 43.28Q30.95 43.71 33.50 45.24L33.65 45.39L33.64 45.37Q29.88 38.27 29.73 29.97L29.73 29.97L29.69 29.93Q29.51 21.68 32.59 14.29L32.59 14.29L32.67 14.37Q32.00 14.84 30.56 15.49L30.56 15.50L30.50 15.43Q30.87 14.32 31.48 13.10L31.55 13.17L31.49 13.11Q29.06 14.15 26.62 14.72L26.66 14.76L26.57 14.66Q25.23 20.55 24.96 26.65L25.01 26.69L25.00 26.69Q22.87 24.64 20.36 24.52L20.38 24.53L20.37 24.53Q16.97 24.45 15.07 26.54L15.17 26.64L15.18 26.65Q13.51 29.05 13.09 33.73L13.08 33.73L12.92 33.57Q12.68 36.33 12.68 36.75L12.78 36.85L12.65 36.72Q12.81 38.56 13.95 39.62L14.02 39.69L14.00 39.67Q14.09 39.76 14.28 39.83L14.45 40.01L14.89 40.64L14.80 40.55Q15.79 41.92 18.76 42.18L18.70 42.12L18.85 42.27Q21.03 42.39 22.40 42.47L22.39 42.46L22.27 42.35Q26.53 42.60 28.24 41.27L28.35 41.38L28.27 41.30Q28.51 42.11 28.96 43.25ZM22.67 29.96L22.63 29.91L22.69 29.97Q23.65 29.90 24.48 30.39L24.59 30.50L24.45 30.37Q24.91 31.62 24.98 32.64L25.00 32.66L25.02 32.68Q25.33 36.91 20.31 37.26L20.26 37.21L20.44 37.39Q19.46 37.32 18.36 37.06L18.45 37.15L18.45 37.15Q18.11 36.43 18.03 35.90L18.01 35.87L18.12 35.98Q18.10 35.36 18.14 34.75L18.16 34.77L18.02 34.63Q18.42 31.29 21.04 30.30L21.02 30.28L21.06 30.32Q21.88 29.81 22.56 29.85Z"/></svg>