<svg xmlns="http://www.w3.org/2000/svg" width="150" height="50" viewBox="0,0,150,50"><path fill="#222" d="M98.88 39.82L98.90 39.83L96.88 39.75L96.97 39.84Q95.98 39.81 95.03 39.92L95.01 39.90L95.15 40.04Q95.63 33.74 95.63 29.75L95.55 29.67L95.69 29.81Q91.68 23.09 84.03 14.41L83.96 14.35L84.10 14.49Q85.79 15.38 89.14 16.18L89.15 16.19L89.14 16.18Q94.22 21.79 97.23 27.00L97.20 26.98L97.33 27.11Q100.19 21.41 104.57 16.38L104.56 16.37L104.59 16.40Q106.94 15.93 109.45 15.13L109.56 15.25L109.52 15.20Q103.54 21.37 98.67 29.78L98.69 29.80L98.56 29.67Q98.68 36.83 98.98 39.91ZM108.07 17.33L110.62 14.32L110.65 14.36Q107.64 15.61 104.52 16.06L104.51 16.06L104.53 16.07Q100.37 20.86 97.56 25.96L97.56 25.96L97.43 25.83Q95.28 22.16 92.08 18.28L92.04 18.24L92.23 18.43Q91.88 18.35 91.39 18.27L91.29 18.17L91.31 18.19Q90.63 17.40 89.10 15.72L89.09 15.71L89.08 15.70Q85.70 14.94 82.73 13.38L82.80 13.45L82.87 13.53Q90.49 21.90 95.25 29.82L95.25 29.82L95.32 29.90Q95.27 36.28 94.66 40.43L94.61 40.38L94.49 40.26Q95.29 40.29 96.74 40.18L96.82 40.27L96.82 41.30L96.88 41.35Q96.85 41.78 96.77 42.31L96.75 42.29L96.68 42.22Q100.27 42.27 102.02 42.46L101.94 42.38L101.99 42.43Q100.71 37.72 100.59 31.74L100.62 31.77L100.67 31.82Q104.93 23.25 111.47 15.90L111.64 16.06L108.08 17.34Z"/><path fill="#333" d="M24.10 32.06L14.84 22.05L14.86 22.06Q15.70 25.76 15.70 29.49L15.75 29.54L15.85 29.64Q15.80 35.57 13.75 41.13L13.80 41.18L13.80 41.18Q12.57 41.29 10.33 42.05L10.47 42.19L10.49 42.21Q13.26 36.38 13.26 29.68L13.23 29.65L13.22 29.64Q13.26 21.04 8.77 13.61L8.81 13.65L8.83 13.67Q9.14 13.72 9.82 14.13L9.90 14.21L9.93 14.24Q21.88 25.31 29.72 34.56L29.73 34.57L29.70 34.55Q29.46 32.17 29.46 29.74L29.39 29.66L29.57 29.84Q29.53 22.57 32.04 16.37L31.97 16.29L31.96 16.28Q34.33 15.80 35.93 15.11L35.95 15.14L35.87 15.06Q32.52 21.19 32.22 28.34L32.34 28.46L32.30 28.43Q32.02 35.80 34.99 41.96L35.05 42.03L34.90 41.88Q34.44 41.91 34.02 41.72L33.90 41.60L33.91 41.61Q29.34 37.65 24.12 32.09L24.26 32.23ZM37.65 45.20L37.63 45.17L37.67 45.22Q37.97 45.21 38.38 45.40L38.39 45.41L39.26 45.78L39.37 45.89Q34.24 38.98 34.24 29.61L34.17 29.53L34.19 29.55Q34.24 22.37 37.55 16.13L37.52 16.10L37.49 16.07Q36.77 16.22 35.36 16.83L35.49 16.96L35.40 16.87Q35.83 16.09 36.67 14.52L36.56 14.41L36.61 14.46Q34.15 15.35 31.71 15.92L31.66 15.87L31.70 15.91Q29.20 22.51 29.20 29.93L29.02 29.76L29.07 29.80Q29.05 31.65 29.24 33.63L29.35 33.74L29.31 33.70Q24.65 28.01 19.90 23.41L19.99 23.50L9.77 13.66L9.77 13.66Q9.29 13.45 8.07 12.88L7.96 12.77L8.04 12.84Q12.94 20.60 12.94 29.70L12.89 29.65L12.87 29.63Q12.97 36.85 9.88 42.86L9.90 42.88L9.79 42.77Q10.08 42.64 11.72 42.03L11.76 42.08L11.81 42.13Q11.43 42.84 10.59 44.33L10.65 44.39L10.62 44.36Q11.92 43.79 15.38 42.99L15.43 43.04L15.49 43.10Q17.67 36.83 17.67 29.64L17.62 29.58L17.71 29.67Q17.78 27.65 17.55 25.52L17.55 25.52L17.44 25.41Q29.02 38.32 37.62 45.17Z"/><path fill="#444" d="M129.36 23.36L129.26 23.26L129.39 23.38Q127.54 19.17 121.33 19.36L121.46 19.49L121.28 19.31Q116.87 19.43 114.89 20.87L115.05 21.04L114.92 20.90Q112.54 22.68 112.54 26.79L112.61 26.86L112.66 28.77L112.53 28.65Q112.50 37.45 121.52 37.45L121.66 37.59L121.52 37.44Q123.71 37.58 125.19 36.78L125.20 36.79L125.05 36.64Q127.06 35.79 126.90 33.92L126.91 33.93L126.88 33.90Q126.61 31.72 122.92 30.81L123.02 30.91L121.06 30.89L121.05 30.88Q120.00 30.79 119.05 30.82L119.07 30.84L119.10 30.88Q119.05 29.87 119.01 27.97L119.07 28.02L119.03 27.98Q126.68 27.98 130.87 27.64L130.80 27.58L130.96 27.74Q130.88 28.53 130.88 29.33L130.91 29.36L130.79 29.24Q130.89 30.14 130.93 30.94L130.80 30.81L130.93 30.94Q129.73 30.85 129.73 30.85L129.84 30.96L129.86 30.97Q128.42 30.91 128.81 30.91L128.82 30.92L128.71 30.81Q129.89 32.53 130.27 34.51L130.32 34.56L130.33 34.57Q130.35 35.19 130.35 35.65L130.31 35.61L130.39 35.70Q130.31 40.26 121.52 40.26L121.48 40.22L121.56 40.30Q114.45 40.31 111.86 38.21L111.81 38.16L111.76 38.11Q109.85 35.82 109.85 30.76L109.80 30.71L109.90 30.81Q109.79 29.64 109.64 26.93L109.73 27.02L109.67 26.97Q109.66 24.75 109.70 23.38L109.64 23.32L109.53 23.21Q109.81 20.52 111.18 18.92L111.14 18.88L111.05 18.79Q113.62 16.75 118.49 16.56L118.57 16.64L121.17 16.50L121.20 16.52Q124.21 16.34 127.64 16.76L127.59 16.72L127.72 16.84Q131.42 17.26 132.37 20.50L132.31 20.45L132.49 20.63Q131.48 21.56 129.39 23.38ZM130.68 25.48L130.88 25.57L130.84 25.52Q132.06 24.45 133.92 22.47L133.85 22.40L133.86 22.41Q133.59 21.50 132.61 19.79L132.55 19.73L132.47 19.65Q131.32 17.02 127.51 16.37L127.48 16.34L127.63 16.49Q125.41 16.28 121.10 15.98L121.09 15.96L118.58 16.26L118.53 16.22Q113.35 16.41 110.76 18.39L110.78 18.41L110.77 18.39Q109.34 19.98 109.23 23.06L109.16 22.99L109.25 23.08Q109.18 22.55 109.41 28.03L109.46 28.09L109.52 28.15Q109.43 29.39 109.50 32.13L109.66 32.28L109.53 32.16Q109.69 36.57 111.44 38.51L111.51 38.59L111.57 38.65Q111.80 39.33 112.68 40.21L112.69 40.22L112.76 40.29Q115.57 42.08 121.09 42.42L121.25 42.58L124.02 42.64L124.07 42.69Q125.63 42.77 127.65 42.66L127.73 42.74L127.70 42.71Q129.21 42.70 131.31 42.17L131.23 42.09L131.25 42.11Q133.13 41.55 133.09 39.23L133.17 39.31L133.14 39.28Q133.22 38.10 132.15 35.32L132.00 35.17L132.14 35.31Q131.85 34.41 131.32 33.61L131.33 33.62L131.14 33.44Q131.78 33.50 132.96 33.69L132.93 33.67L133.08 33.82Q132.65 30.07 132.69 29.39L132.80 29.50L132.78 29.48Q132.43 29.51 132.01 29.47L131.92 29.38L131.91 29.37Q131.54 29.34 131.16 29.42L131.13 29.39L131.11 29.37Q131.14 28.30 131.22 27.23L131.26 27.27L131.36 27.37Q125.04 27.83 118.76 27.72L118.66 27.62L118.62 27.58Q118.76 28.60 118.76 29.51L118.83 29.57L118.75 31.24L118.72 31.22Q119.18 31.30 119.60 31.26L119.62 31.28L119.52 31.18Q119.90 31.15 120.36 31.15L120.41 31.20L120.34 31.12Q120.42 31.66 120.45 32.15L120.47 32.17L120.39 32.09Q120.48 32.64 120.44 33.13L120.34 33.03L120.47 33.16Q121.42 33.05 122.45 33.01L122.49 33.05L122.46 33.02Q123.61 33.14 124.64 33.18L124.62 33.15L124.50 33.04Q125.69 33.43 126.56 33.81L126.50 33.74L126.52 33.80L126.49 33.78Q126.62 35.27 124.94 36.19L125.01 36.25L125.09 36.33Q123.37 37.20 121.66 37.20L121.52 37.07L121.56 37.10Q117.70 37.09 115.26 35.34L115.40 35.48L115.29 35.36Q114.38 33.39 114.54 30.84L114.58 30.89L114.62 30.92Q114.76 25.97 116.61 23.97L116.57 23.93L116.59 23.95Q118.51 22.03 123.20 21.72L123.28 21.81L123.25 21.78Q126.78 21.43 128.73 23.22L128.80 23.29L128.74 23.23Q128.94 23.47 129.05 23.66L129.07 23.67L129.03 23.52L129.15 23.64Q129.70 24.31 130.27 25.41L130.31 25.45L130.73 25.53Z"/><path fill="#111" d="M39.70 15.78L39.68 15.77L39.80 15.88Q41.73 20.79 42.30 25.96L42.33 26.00L42.19 25.85Q45.87 21.69 51.77 16.86L51.84 16.92L51.91 17.00Q54.98 16.57 57.61 15.77L57.68 15.83L51.12 21.46L51.07 21.40Q47.67 24.37 44.82 27.22L44.91 27.31L44.85 27.25Q52.83 36.41 57.89 41.13L57.96 41.20L57.87 41.11Q54.75 40.16 52.42 40.01L52.54 40.12L52.45 40.03Q46.59 34.55 42.28 28.73L42.36 28.81L42.31 28.75Q42.51 35.46 40.64 40.79L40.67 40.81L40.67 40.81Q40.34 40.75 39.84 40.94L39.91 41.00L39.79 41.08L39.82 41.11Q39.59 41.10 37.04 42.02L37.09 42.07L37.20 42.18Q40.02 35.49 39.68 28.02L39.72 28.07L39.71 28.05Q39.46 20.80 35.92 14.29L35.77 14.14L36.37 14.47L36.76 14.75L36.94 14.89L36.92 14.87Q37.61 15.22 39.82 15.91ZM40.13 15.65L40.02 15.54L40.00 15.51Q37.77 15.00 35.15 13.48L35.12 13.45L35.10 13.43Q39.37 20.71 39.37 29.66L39.42 29.71L39.46 29.75Q39.49 36.78 36.52 42.83L36.51 42.82L38.40 41.82L38.46 41.88Q38.03 42.86 37.35 44.15L37.35 44.16L37.51 44.32Q39.70 43.46 41.64 43.04L41.59 42.99L41.73 42.90L41.64 42.81Q41.99 42.86 42.56 42.71L42.46 42.61L42.51 42.65Q44.17 36.74 44.28 31.94L44.28 31.94L44.27 31.93Q46.41 34.49 48.24 36.35L48.17 36.29L48.24 36.36Q49.30 37.34 52.31 40.31L52.41 40.41L52.48 40.48L52.44 40.44Q53.32 41.13 55.19 42.73L55.33 42.87L55.28 42.82Q59.08 43.47 62.55 45.18L62.62 45.25L62.57 45.21Q53.41 36.77 47.17 29.34L47.16 29.34L47.10 29.27Q51.41 24.91 60.17 16.31L60.33 16.47L60.16 16.30Q57.71 17.54 55.69 17.92L55.74 17.96L55.74 17.97Q56.98 17.00 59.30 14.98L59.31 14.99L59.20 14.88Q55.12 16.32 51.77 16.51L51.71 16.45L51.69 16.44Q48.93 18.81 44.05 23.49L44.00 23.44L44.04 23.48Q43.68 20.90 43.11 18.35L43.02 18.27L42.93 18.18Q41.92 18.20 40.93 17.85L40.85 17.77L40.92 17.85Q40.56 16.95 39.99 15.50Z"/><path fill="#222" d="M67.21 33.00L67.17 32.96L67.26 33.05Q70.28 32.61 73.48 32.72L73.49 32.73L73.44 32.68Q73.46 30.18 73.46 27.79L73.32 27.65L73.38 27.71Q73.47 25.33 73.66 22.78L73.68 22.80L73.58 22.69Q72.41 24.45 67.19 32.98ZM77.13 40.36L77.16 40.40L77.04 40.28Q75.39 40.00 73.60 39.92L73.56 39.88L73.67 39.99Q73.37 37.53 73.26 35.05L73.29 35.08L73.22 35.02Q68.04 34.97 63.32 36.38L63.25 36.31L63.17 36.23Q63.35 35.80 63.54 34.81L63.53 34.80L63.56 34.83Q65.32 31.65 68.90 25.36L68.93 25.40L68.98 25.44Q71.84 20.53 75.26 16.65L75.21 16.60L75.20 16.59Q76.17 16.49 77.84 16.22L77.70 16.08L77.79 16.17Q75.90 22.62 75.90 29.66L75.97 29.73L75.87 29.63Q75.80 31.04 75.87 32.52L75.97 32.62L77.23 32.71L77.26 32.73Q77.84 32.74 78.45 32.85L78.37 32.78L78.49 32.90Q78.59 33.87 78.85 35.81L78.84 35.80L78.76 35.71Q77.71 35.62 76.23 35.43L76.20 35.40L76.22 35.43Q76.40 37.39 77.09 40.33ZM78.76 32.52L78.75 32.51L78.70 32.46Q78.54 32.41 78.35 32.41L78.41 32.47L78.05 32.50L78.00 32.45Q77.84 30.92 77.84 29.51L77.77 29.44L77.77 29.43Q77.83 23.10 79.89 17.09L79.83 17.03L79.91 17.11Q79.25 17.48 77.80 17.86L77.75 17.80L77.76 17.82Q77.86 16.93 78.32 15.52L78.38 15.58L78.49 15.69Q77.04 15.91 74.98 16.14L75.14 16.30L74.99 16.14Q71.14 20.56 65.92 29.92L65.88 29.88L68.05 26.30L68.08 26.33Q67.59 27.29 67.32 27.86L67.37 27.90L62.89 36.90L62.84 36.85Q63.54 36.76 64.68 36.37L64.55 36.25L64.45 36.52L64.46 36.53Q64.32 37.19 64.01 38.44L64.04 38.47L63.98 38.42Q68.21 37.20 73.05 37.39L73.08 37.42L72.94 37.28Q73.02 38.27 73.21 40.25L73.35 40.39L73.26 40.31Q74.30 40.28 75.36 40.39L75.37 40.40L75.45 40.47Q75.44 41.00 75.71 42.38L75.80 42.47L75.86 42.53Q77.76 42.75 80.76 43.66L80.70 43.60L80.74 43.64Q79.69 41.45 78.78 38.18L78.84 38.24L80.35 38.75L80.22 38.63Q80.95 38.89 81.63 39.24L81.70 39.31L81.68 39.28Q80.83 36.72 80.68 35.04L80.69 35.06L80.65 35.02Q80.04 34.83 78.90 34.60L79.02 34.72L78.88 34.58Q78.68 33.32 78.68 32.44ZM70.71 32.31L70.76 32.36L70.78 32.38Q71.43 30.97 72.99 28.42L73.03 28.47L72.99 28.42Q72.97 29.36 72.93 30.31L73.13 30.50L73.05 30.43Q73.11 31.48 73.15 32.43L73.09 32.37L73.04 32.32Q72.42 32.23 71.85 32.23L71.84 32.22L71.93 32.31Q71.32 32.31 70.71 32.31Z"/></svg>