<svg xmlns="http://www.w3.org/2000/svg" width="150" height="50" viewBox="0,0,150,50"><path fill="#444" d="M124.63 30.90L124.55 30.82L124.61 30.89Q124.53 29.70 122.59 28.98L122.49 28.87L122.53 28.92Q122.14 28.83 121.61 28.83L121.51 28.74L121.59 28.82Q120.14 28.73 119.07 29.30L119.01 29.24L119.16 29.39Q117.68 30.01 117.80 31.23L117.83 31.26L117.85 31.28Q118.20 34.11 118.05 36.35L117.99 36.29L118.11 36.41Q117.93 38.82 117.21 41.34L117.25 41.38L117.09 41.22Q114.98 41.73 113.80 42.15L113.94 42.29L113.80 42.16Q115.44 38.58 115.44 34.58L115.39 34.53L115.55 34.69Q115.41 29.10 112.82 24.65L112.82 24.65L112.77 24.60Q114.01 25.11 116.41 25.84L116.45 25.88L116.38 25.82Q116.75 26.61 117.14 28.13L117.20 28.20L117.21 28.21Q118.55 26.11 122.43 26.19L122.38 26.14L122.43 26.19Q123.96 26.28 124.76 26.39L124.59 26.22L124.68 26.31Q127.64 26.68 127.72 28.70L127.73 28.71L127.66 28.64Q127.69 29.55 127.50 30.58L127.63 30.71L127.55 30.62Q127.03 33.08 127.22 36.08L127.23 36.09L127.34 36.20Q127.53 39.09 128.52 41.64L128.38 41.51L128.38 41.51Q126.72 41.14 125.01 40.99L125.00 40.98L124.97 40.95Q124.64 38.72 124.56 36.05L124.44 35.93L124.41 35.90Q124.43 33.26 124.66 30.94ZM124.65 41.36L124.63 41.34L124.55 41.26Q125.45 41.35 126.74 41.58L126.80 41.64L127.01 42.53L127.20 42.72Q127.34 43.17 127.57 43.70L127.47 43.60L127.45 43.58Q129.89 44.16 132.59 45.34L132.60 45.35L132.58 45.32Q130.12 42.10 129.43 38.30L129.46 38.32L129.54 38.40Q129.13 36.20 129.24 32.51L129.24 32.50L129.23 32.49Q129.13 32.10 129.17 31.30L129.33 31.45L129.18 31.30Q129.34 30.78 129.26 30.28L129.26 30.28L129.27 30.29Q129.10 28.56 127.99 28.06L128.06 28.13L127.99 28.06Q127.80 27.19 127.04 26.58L127.09 26.63L127.24 26.77Q125.38 25.60 122.33 25.67L122.43 25.77L122.43 25.77Q120.44 25.68 119.60 25.87L119.64 25.91L119.74 26.01Q118.22 26.28 117.26 27.19L117.24 27.17L117.29 27.22Q117.18 26.69 116.80 25.66L116.83 25.69L116.72 25.58Q113.95 24.94 112.12 23.95L112.21 24.05L112.20 24.03Q115.10 28.76 115.10 34.51L115.11 34.52L115.10 34.51Q115.17 38.95 113.27 42.80L113.22 42.75L113.27 42.81Q114.02 42.56 115.31 42.18L115.31 42.18L115.28 42.14Q114.79 43.41 114.26 44.40L114.20 44.35L114.33 44.47Q115.64 43.91 119.18 43.34L119.13 43.30L119.17 43.33Q120.22 38.25 120.10 33.42L120.13 33.45L120.08 33.39Q120.05 32.57 121.23 31.85L121.20 31.81L121.30 31.91Q122.26 31.20 123.37 31.09L123.43 31.15L123.33 31.05Q123.87 31.09 124.29 31.28L124.30 31.29L124.19 31.18Q124.05 33.75 124.09 36.30L124.17 36.38L124.16 36.37Q124.08 38.77 124.58 41.28Z"/><path fill="#111" d="M97.78 29.98L97.75 29.95L97.68 29.88Q95.16 29.75 93.82 30.97L93.87 31.02L93.86 31.00Q92.49 32.19 92.80 34.70L92.84 34.74L92.85 34.75Q93.17 37.28 94.39 38.54L94.38 38.53L94.30 38.44Q95.39 39.80 97.52 39.73L97.47 39.68L97.63 39.84Q98.02 39.65 98.21 39.65L98.38 39.82L98.36 39.80Q101.82 39.12 101.94 34.51L101.93 34.51L101.93 34.51Q102.08 32.22 101.39 31.42L101.33 31.36L101.42 31.45Q100.36 30.15 97.81 30.00ZM101.07 41.68L100.98 41.59L101.01 41.62Q99.72 42.23 98.16 42.16L98.04 42.04L98.16 42.15Q94.35 42.39 93.06 39.80L92.95 39.69L92.94 39.68Q92.74 45.00 91.41 49.26L91.43 49.28L91.42 49.27Q89.82 49.95 88.18 50.68L88.15 50.65L88.11 50.61Q90.72 44.70 90.46 37.73L90.28 37.55L90.32 37.59Q90.07 30.75 87.17 24.70L87.21 24.74L87.17 24.70Q89.10 25.87 90.81 26.32L90.95 26.46L91.34 27.80L91.45 27.91Q91.54 28.23 91.80 29.33L91.87 29.40L91.73 29.26Q92.72 27.16 96.30 26.97L96.48 27.15L96.36 27.03Q97.25 27.01 98.13 27.01L98.07 26.96L98.67 27.05L98.60 26.99Q98.72 26.99 98.91 27.03L98.91 27.04L99.23 27.05L99.19 27.01Q101.33 27.36 102.06 27.59L101.97 27.50L102.02 27.55Q103.59 28.10 104.47 29.05L104.42 29.00L104.47 29.05Q105.27 30.20 105.24 31.61L105.17 31.54L105.15 31.52Q105.25 34.48 104.45 37.14L104.43 37.12L104.50 37.20Q103.41 40.63 101.05 41.66ZM105.23 42.19L105.26 42.18L105.27 42.19Q106.48 40.32 106.79 36.21L106.73 36.15L106.66 36.08Q106.90 34.41 106.90 33.16L106.77 33.03L106.80 33.06Q106.94 31.67 106.18 30.27L106.09 30.18L106.15 30.24Q105.69 29.74 105.19 29.36L105.14 29.31L105.03 29.08L104.74 28.67L104.73 28.55L104.78 28.60Q102.99 26.51 98.65 26.51L98.66 26.52L98.16 26.62L98.08 26.54Q93.49 26.60 91.86 28.20L91.77 28.11L91.79 28.13Q91.71 27.71 91.55 27.21L91.52 27.18L91.26 26.12L91.33 26.19Q88.86 25.59 86.66 24.10L86.62 24.07L86.52 23.97Q89.74 30.23 90.04 37.47L90.14 37.56L90.18 37.60Q90.30 44.69 87.44 51.16L87.45 51.17L89.62 50.48L89.48 50.34Q89.32 51.17 88.63 52.73L88.54 52.64L88.48 52.58Q91.29 51.62 93.61 51.28L93.52 51.19L93.61 51.27Q94.65 46.38 94.81 42.65L94.78 42.62L94.79 42.64Q96.33 44.25 99.95 44.48L99.80 44.33L99.92 44.45Q103.86 44.70 105.31 42.26L105.32 42.27ZM99.59 32.12L99.57 32.11L99.57 32.11Q100.20 32.02 101.31 32.36L101.43 32.48L101.45 32.51Q101.67 33.45 101.63 34.63L101.69 34.68L101.52 34.51Q101.67 35.58 101.48 36.23L101.33 36.07L101.47 36.22Q100.77 39.13 98.26 39.44L98.15 39.33L98.28 39.35L98.22 39.28Q98.12 39.26 98.00 39.30L98.14 39.43L97.53 39.36L97.63 39.46Q96.39 39.40 95.40 38.91L95.30 38.81L95.04 36.83L95.10 36.89Q94.80 34.42 96.09 33.39L96.14 33.44L96.20 33.49Q97.15 32.35 99.54 32.08Z"/><path fill="#333" d="M21.14 29.93L21.13 29.91L21.17 29.95Q20.86 29.88 20.56 29.88L20.62 29.93L20.58 29.90Q19.17 29.82 17.73 30.66L17.78 30.71L17.72 30.65Q16.34 31.71 16.34 33.62L16.38 33.65L16.33 33.61Q16.36 37.06 17.88 38.39L17.85 38.36L17.91 38.42Q18.85 39.58 21.13 39.58L21.11 39.57L21.09 39.55Q21.47 39.70 21.78 39.70L21.71 39.63L21.76 39.68Q23.36 39.57 24.50 37.93L24.61 38.04L24.56 37.99Q25.61 36.49 25.54 34.70L25.53 34.70L25.47 34.63Q25.68 34.31 25.68 33.89L25.71 33.93L25.61 33.83Q25.66 32.09 24.29 30.93L24.24 30.87L24.33 30.96Q22.79 29.64 21.00 29.79ZM25.66 40.12L25.66 40.12L25.48 39.94Q24.54 41.93 20.81 42.04L20.90 42.13L20.78 42.01Q17.37 42.11 15.77 40.51L15.86 40.60L15.78 40.51Q14.49 38.92 13.69 34.12L13.64 34.07L13.60 34.03Q13.27 32.26 13.27 31.00L13.24 30.97L13.21 30.94Q13.37 29.31 14.09 28.24L14.10 28.25L14.08 28.24Q15.43 26.84 18.40 26.84L18.31 26.75L18.35 26.79Q24.72 26.85 26.63 29.43L26.55 29.36L26.62 29.43Q26.75 28.56 27.17 26.97L27.18 26.98L27.08 26.88Q28.40 26.64 30.83 25.84L30.85 25.85L30.93 25.93Q28.36 31.43 28.13 37.75L28.14 37.76L28.12 37.74Q27.94 43.96 30.07 49.78L30.18 49.89L30.13 49.85Q28.42 49.24 26.63 48.97L26.56 48.90L26.55 48.89Q25.73 45.02 25.61 40.07ZM26.33 49.23L26.39 49.30L26.41 49.32Q27.09 49.42 28.50 49.73L28.56 49.80L28.51 49.74Q28.61 50.34 29.19 51.75L29.21 51.77L29.34 51.90Q31.77 52.47 34.05 53.76L34.21 53.92L34.22 53.93Q30.05 47.21 30.05 38.68L30.11 38.74L30.09 38.72Q30.09 32.36 32.56 26.57L32.56 26.57L32.68 26.69Q31.95 26.96 30.58 27.60L30.54 27.56L30.63 27.65Q30.79 26.71 31.44 25.15L31.47 25.18L31.38 25.09Q29.93 25.74 26.74 26.61L26.85 26.72L26.72 26.60Q26.55 27.11 26.25 28.29L26.34 28.39L26.33 28.38Q24.37 26.53 18.24 26.37L18.18 26.32L18.28 26.41Q14.94 26.20 13.57 27.68L13.72 27.83L13.56 27.67Q12.81 28.83 12.85 30.73L12.83 30.71L12.82 30.70Q13.07 33.85 14.06 37.61L14.07 37.63L13.99 37.55Q14.72 40.02 15.63 40.97L15.61 40.95L15.92 41.27L16.01 41.35Q17.05 43.99 22.49 44.22L22.57 44.30L22.51 44.24Q23.50 44.24 25.33 43.94L25.39 44.00L25.48 44.09Q25.74 46.97 26.35 49.25ZM22.90 32.10L23.05 32.25L22.95 32.15Q24.03 32.17 24.87 32.48L24.84 32.45L24.94 32.54Q25.10 33.05 25.21 33.65L25.12 33.56L25.18 33.62Q25.21 34.11 25.14 34.72L25.14 34.72L25.28 34.86Q25.12 36.61 24.10 37.91L24.19 38.00L24.12 37.93Q23.05 39.45 21.18 39.26L21.15 39.22L21.08 39.15Q19.91 39.28 18.96 38.86L18.96 38.87L19.00 38.90Q18.67 38.11 18.67 36.89L18.64 36.86L18.63 36.86Q18.50 36.42 18.50 36.12L18.57 36.19L18.47 36.08Q18.49 34.35 19.82 33.19L19.92 33.29L19.94 33.31Q21.27 32.15 23.02 32.23Z"/><path fill="#222" d="M43.78 29.57L43.95 29.74L43.76 29.55Q43.87 33.93 43.15 38.08L43.13 38.06L43.03 37.96Q45.29 37.40 48.37 37.29L48.43 37.34L48.48 37.40Q49.87 37.64 50.93 36.63L50.93 36.62L50.77 36.47Q52.01 35.64 52.01 34.31L51.94 34.23L51.99 34.29Q51.94 33.93 51.90 33.66L51.93 33.69L51.80 33.55Q51.69 30.67 49.44 29.83L49.53 29.91L49.44 29.82Q48.73 29.57 48.04 29.65L48.06 29.66L48.06 29.66Q47.05 29.64 46.02 29.68L46.00 29.66L45.93 29.60Q44.92 29.69 43.90 29.69ZM42.68 19.26L42.57 19.15L42.70 19.28Q43.58 22.59 43.84 26.97L43.74 26.87L43.68 26.81Q45.19 26.99 47.86 27.03L47.94 27.11L47.97 27.14Q50.89 27.16 51.23 23.62L51.13 23.52L51.16 23.56Q51.44 21.70 50.03 20.86L50.01 20.84L49.95 20.78Q49.00 20.21 44.58 19.56L44.52 19.50L44.58 19.56Q43.55 19.45 42.64 19.22ZM38.95 42.06L39.04 42.16L39.06 42.18Q41.49 35.47 41.23 28.08L41.19 28.05L41.24 28.10Q40.83 20.68 37.89 14.21L37.96 14.27L37.89 14.20Q41.73 16.79 47.95 17.03L48.07 17.15L47.98 17.06Q54.18 17.28 54.52 20.18L54.50 20.15L54.59 20.25Q54.88 22.98 53.48 25.64L53.44 25.60L53.49 25.66Q52.71 27.12 51.11 27.80L51.09 27.79L51.08 27.78Q54.77 28.49 54.99 33.86L55.07 33.94L55.04 33.91Q55.11 35.01 55.04 36.42L54.94 36.31L55.10 36.47Q54.97 37.72 54.04 38.65L54.11 38.72L54.12 38.73Q53.04 39.52 51.71 39.67L51.83 39.80L51.82 39.78Q50.23 39.76 49.17 39.76L49.36 39.95L49.33 39.92Q43.43 39.73 38.90 42.02ZM51.72 42.35L51.75 42.38L51.85 42.48Q52.77 42.53 54.64 42.64L54.64 42.64L54.50 42.51Q56.08 42.71 57.18 41.83L57.15 41.80L57.17 41.82Q57.84 40.78 57.73 39.22L57.83 39.32L57.86 39.35Q57.62 38.23 56.89 34.77L56.89 34.77L56.96 34.83Q56.37 31.69 54.50 30.21L54.48 30.19L53.97 29.26L54.10 29.38Q55.64 27.84 56.21 24.08L56.24 24.10L56.22 24.08Q56.47 23.04 56.39 21.63L56.34 21.57L56.41 21.64Q56.33 20.31 55.23 19.48L55.29 19.54L55.10 19.35Q54.85 19.21 54.73 19.17L54.77 19.21L54.74 19.18Q54.57 18.74 53.73 17.94L53.67 17.87L53.66 17.87Q52.10 16.76 47.87 16.57L47.88 16.58L47.90 16.60Q41.37 16.43 37.38 13.54L37.40 13.56L37.29 13.45Q40.53 20.42 40.84 27.96L40.79 27.92L40.81 27.94Q41.21 35.84 38.39 42.76L38.32 42.69L40.53 41.89L40.54 41.91Q40.07 42.96 39.57 44.10L39.51 44.03L39.49 44.02Q43.93 42.29 48.96 42.29L48.84 42.18L48.83 42.16Q50.31 42.23 51.76 42.39ZM49.67 31.88L49.63 31.84L49.65 31.87Q50.41 31.83 51.33 32.28L51.28 32.24L51.31 32.27Q51.43 32.61 51.58 33.68L51.63 33.73L51.63 33.73Q51.80 35.08 50.87 36.13L50.80 36.06L50.72 35.98Q49.96 37.20 48.55 37.09L48.49 37.02L47.04 37.18L46.88 37.02Q46.29 37.22 45.56 37.33L45.59 37.36L45.42 37.19Q45.78 35.41 45.85 31.95L45.81 31.91L45.90 32.00Q46.42 31.79 47.67 31.75L47.74 31.82L47.74 31.82Q49.07 31.85 49.68 31.89ZM48.54 22.19L48.66 22.31L49.01 22.28L49.03 22.29Q49.14 22.18 49.33 22.22L49.45 22.34L49.85 22.36L50.22 22.53L50.76 22.54L50.69 22.48Q50.72 22.65 50.72 22.96L50.87 23.11L50.89 23.66L50.88 23.65Q50.82 24.85 49.94 25.78L50.02 25.86L49.97 25.80Q49.04 26.69 47.82 26.69L47.81 26.67L47.89 26.75Q46.81 26.70 46.81 26.70L46.88 26.78L46.75 26.65Q45.55 26.74 45.89 26.74L45.77 26.61L45.76 26.61Q45.77 25.13 45.47 22.09L45.53 22.15L45.49 22.11Q47.04 22.21 48.56 22.21Z"/><path fill="#333" d="M71.23 19.72L71.24 19.73L69.54 19.70L69.61 19.77Q67.27 19.79 67.04 21.81L67.16 21.93L67.16 21.93Q67.05 22.62 67.09 23.61L67.04 23.56L67.03 23.55Q67.06 25.48 68.32 26.82L68.36 26.86L68.28 26.78Q69.62 28.19 71.52 28.04L71.56 28.08L71.56 28.08Q73.64 27.96 74.41 27.04L74.28 26.92L74.28 26.91Q75.34 26.00 75.61 23.75L75.60 23.75L75.71 23.86Q76.01 21.64 74.75 20.80L74.71 20.76L74.77 20.82Q73.90 20.02 71.23 19.72ZM77.29 28.98L77.20 28.89L75.91 31.17L75.81 31.07Q73.30 36.06 69.53 40.13L69.49 40.10L69.36 39.97Q67.83 40.23 65.13 41.03L65.02 40.91L65.14 41.03Q70.39 34.68 73.55 29.88L73.68 30.01L73.63 29.96Q72.48 30.49 70.85 30.56L70.89 30.61L70.92 30.64Q67.97 30.85 66.45 28.87L66.36 28.78L66.30 28.72Q65.24 27.28 64.14 22.71L64.10 22.68L64.00 22.58Q63.98 22.10 63.83 21.16L63.84 21.18L64.01 21.35Q63.82 20.38 63.82 19.92L63.67 19.77L63.76 19.86Q63.82 18.13 64.88 17.52L64.80 17.44L64.92 17.56Q66.13 16.78 67.99 16.78L67.89 16.68L67.82 16.61Q71.09 16.69 71.09 16.69L71.15 16.74L71.13 16.72Q73.25 16.71 74.51 16.90L74.48 16.88L74.45 16.84Q76.66 17.19 77.58 17.69L77.65 17.76L77.53 17.64Q78.94 18.44 79.13 20.20L79.08 20.14L79.07 20.14Q79.23 20.52 79.04 23.18L78.90 23.05L78.95 23.10Q78.61 25.27 78.38 26.11L78.37 26.09L78.38 26.11Q77.95 27.47 77.19 28.88ZM79.06 31.24L79.04 31.22L79.05 31.23Q80.13 29.11 80.66 24.81L80.71 24.86L80.55 24.69Q80.80 22.48 80.77 21.60L80.84 21.67L80.86 21.69Q80.83 19.84 79.65 18.93L79.62 18.89L79.29 18.76L79.35 18.81Q79.12 18.09 78.20 17.44L78.24 17.48L78.14 17.38Q75.89 16.42 71.10 16.27L71.10 16.28L71.17 16.34Q70.07 16.19 67.63 16.19L67.66 16.22L67.77 16.33Q65.94 16.26 64.46 16.94L64.38 16.86L64.47 16.95Q63.27 17.70 63.35 19.52L63.37 19.55L63.31 19.48Q63.49 20.39 63.68 22.41L63.74 22.46L63.78 22.51Q64.28 25.03 64.55 25.86L64.62 25.94L64.69 26.01Q65.24 27.85 66.19 29.15L66.18 29.14L66.17 29.12Q66.44 29.47 66.83 29.86L66.83 29.86L66.71 29.74Q67.16 30.38 67.81 31.29L67.78 31.27L67.76 31.24Q69.26 32.64 71.21 32.83L71.21 32.84L71.06 32.68Q69.25 35.44 67.69 37.34L67.63 37.28L64.13 41.78L64.16 41.81Q66.23 40.87 67.87 40.53L68.05 40.71L68.03 40.70Q67.24 41.54 65.68 43.25L65.60 43.18L65.62 43.19Q68.80 42.38 71.92 42.34L71.92 42.33L71.82 42.23Q74.12 39.62 78.46 32.39L78.59 32.52L78.51 32.52L78.56 32.57Q78.84 31.85 79.18 31.36ZM73.18 22.12L73.00 21.95L73.12 22.07Q73.74 21.96 74.20 22.08L74.15 22.03L74.22 22.10Q74.74 22.09 75.12 22.20L75.27 22.35L75.11 22.19Q75.39 22.73 75.46 23.15L75.35 23.03L75.34 23.03Q75.53 23.56 75.42 23.94L75.43 23.95L75.43 23.95Q75.29 25.56 74.11 26.67L74.15 26.71L74.05 26.61Q73.18 27.72 71.54 27.68L71.57 27.71L71.54 27.68Q71.05 27.60 69.52 27.30L69.65 27.43L69.61 27.39Q69.35 26.48 69.35 25.76L69.32 25.72L69.27 25.67Q69.32 25.54 69.32 25.31L69.25 25.24L69.38 25.36Q69.19 22.97 71.48 22.17L71.54 22.23L71.63 22.33Q72.15 21.94 72.99 21.94Z"/></svg>