<svg xmlns="http://www.w3.org/2000/svg" width="150" height="50" viewBox="0,0,150,50"><path fill="#444" d="M120.19 29.76L120.16 29.73L120.23 29.80Q116.04 29.60 115.47 32.65L115.34 32.52L115.30 32.48Q115.20 33.63 115.39 34.51L115.35 34.48L115.32 34.44Q115.46 35.35 115.92 36.75L115.81 36.64L115.78 36.61Q116.89 39.82 120.20 39.66L120.34 39.80L120.28 39.75Q122.22 39.74 123.55 38.18L123.59 38.22L123.54 38.17Q124.75 36.68 124.75 34.62L124.78 34.65L124.78 34.65Q124.92 34.06 124.76 33.00L124.76 32.99L124.81 33.04Q124.76 32.16 124.34 31.47L124.38 31.51L124.32 31.45Q122.65 29.74 120.06 29.62ZM125.01 48.21L124.94 48.13L125.07 48.27Q123.16 48.75 115.09 49.13L115.12 49.16L115.13 49.18Q113.46 49.25 111.82 48.41L111.69 48.29L111.73 48.32Q112.70 47.50 114.52 45.71L114.49 45.68L114.45 45.64Q116.83 46.65 118.92 46.46L118.99 46.52L118.89 46.42Q121.75 46.13 122.59 45.86L122.68 45.95L122.74 46.01Q124.83 45.17 124.83 43.39L124.88 43.43L124.91 43.46Q124.95 43.28 124.88 43.05L124.83 43.00L124.84 41.53L124.76 41.44Q124.65 40.58 124.65 39.78L124.71 39.83L124.79 39.92Q123.27 42.01 119.88 42.01L120.00 42.13L119.93 42.06Q116.12 42.13 114.48 39.92L114.48 39.92L114.45 39.89Q113.28 38.31 112.49 33.89L112.62 34.03L112.63 34.04Q112.29 32.48 112.29 31.07L112.33 31.11L112.33 31.11Q112.16 29.15 113.07 28.16L113.06 28.15L113.23 28.32Q114.78 26.79 119.43 26.79L119.40 26.76L121.26 27.06L121.13 26.92Q124.50 27.45 125.84 29.39L125.75 29.30L125.70 29.25Q125.88 28.40 126.30 26.77L126.45 26.92L126.37 26.84Q128.25 26.51 130.00 25.79L129.95 25.73L130.02 25.80Q127.33 31.87 127.33 39.10L127.30 39.08L127.23 39.00Q127.30 41.74 127.68 44.37L127.70 44.38L127.68 44.37Q127.83 45.01 127.75 45.69L127.76 45.70L127.72 45.66Q127.57 47.07 126.35 47.83L126.32 47.80L126.37 47.86Q125.84 48.08 125.00 48.20ZM128.00 51.15L127.98 51.13L127.98 51.14Q129.55 51.30 130.31 50.35L130.29 50.33L130.27 50.30Q130.51 49.26 130.40 48.53L130.54 48.67L130.56 48.69Q130.38 47.98 130.19 47.21L130.08 47.11L130.10 47.13Q129.00 42.03 129.34 36.78L129.35 36.78L129.29 36.72Q129.56 31.21 131.69 26.37L131.72 26.40L129.62 27.35L129.58 27.30Q129.81 26.70 130.04 26.13L130.05 26.14L130.65 25.10L130.61 25.07Q128.26 26.02 126.05 26.44L125.99 26.39L126.01 26.40Q125.73 27.30 125.58 28.33L125.66 28.42L125.64 28.39Q123.38 26.33 119.35 26.33L119.48 26.46L117.71 26.44L117.76 26.49Q114.54 26.51 112.87 27.92L112.75 27.80L112.73 27.78Q111.86 28.81 111.90 30.71L111.92 30.73L111.87 30.68Q111.88 33.13 112.91 37.40L112.99 37.48L113.04 37.53Q113.44 39.37 114.66 40.78L114.61 40.73L115.03 41.15L115.00 41.12L114.99 41.12Q116.26 43.56 118.84 44.10L118.75 44.00L118.78 44.03Q120.18 44.32 121.62 44.36L121.58 44.32L121.57 44.31Q123.34 44.36 124.40 43.98L124.46 44.04L124.43 44.01Q123.85 45.59 121.18 45.94L121.07 45.83L121.12 45.88Q120.02 45.99 119.33 45.99L119.49 46.15L118.99 46.03L119.02 46.06Q116.25 46.11 114.58 45.16L114.47 45.05L112.78 46.79L112.79 46.80Q111.90 47.58 111.06 48.53L111.13 48.61L111.21 48.68Q112.06 49.07 113.05 49.26L113.12 49.33L112.29 50.25L112.22 50.18Q114.98 51.31 120.61 51.31L120.59 51.28L120.85 51.32L120.90 51.37Q124.47 51.32 128.05 51.20ZM122.08 32.06L121.97 31.95L121.98 31.96Q123.30 31.92 124.22 32.34L124.29 32.41L124.34 32.46Q124.43 32.86 124.51 33.54L124.47 33.51L124.47 33.51Q124.57 33.87 124.53 34.78L124.53 34.78L124.61 34.86Q124.50 36.73 123.39 38.02L123.32 37.95L123.42 38.05Q122.23 39.45 120.33 39.41L120.29 39.37L120.31 39.39Q118.80 39.26 117.97 38.84L118.06 38.94L118.02 38.89Q117.58 37.69 117.54 36.67L117.47 36.59L117.48 36.61Q117.54 32.44 122.15 32.13Z"/><path fill="#333" d="M93.07 19.42L92.92 19.27L93.09 19.44Q93.78 23.52 93.94 27.10L93.99 27.16L93.92 27.08Q95.17 27.31 96.23 27.31L96.22 27.30L98.42 27.29L98.47 27.33Q99.37 27.16 100.24 25.76L100.28 25.79L100.20 25.72Q100.94 24.55 101.05 23.37L101.15 23.47L101.06 23.38Q101.55 20.48 97.32 19.98L97.25 19.91L97.22 19.88Q95.73 20.03 93.10 19.46ZM94.05 29.96L94.06 29.97L94.14 30.04Q94.06 36.25 92.92 40.67L92.81 40.55L92.76 40.51Q91.37 40.98 89.04 42.04L89.02 42.02L89.00 42.00Q91.36 35.34 91.09 28.06L91.10 28.07L91.06 28.04Q90.78 20.67 88.00 14.23L88.01 14.25L88.16 14.39Q92.31 17.18 98.56 17.18L98.36 16.99L98.40 17.03Q104.59 17.16 104.74 20.63L104.71 20.60L104.69 20.58Q104.83 23.08 103.84 25.74L103.69 25.59L103.80 25.69Q103.27 26.69 102.32 27.91L102.31 27.90L102.45 28.04Q101.03 29.56 98.48 29.82L98.53 29.87L98.62 29.96Q96.33 29.95 94.08 29.99ZM100.18 32.20L100.13 32.16L100.19 32.21Q104.40 32.51 105.66 27.71L105.55 27.60L105.61 27.66Q106.55 23.99 106.39 21.97L106.29 21.87L106.30 21.88Q106.24 20.41 105.48 19.42L105.40 19.35L105.53 19.47Q105.17 19.11 104.68 18.88L104.58 18.79L104.61 18.82Q104.67 18.73 104.06 17.97L103.96 17.87L104.09 17.99Q102.55 16.68 98.59 16.68L98.48 16.57L98.48 16.58Q91.67 16.65 87.44 13.49L87.46 13.51L87.44 13.49Q90.65 20.62 90.92 28.08L90.84 28.00L90.80 27.96Q91.14 35.69 88.48 42.77L88.49 42.78L88.45 42.75Q89.50 42.08 90.49 41.70L90.50 41.71L90.09 42.82L90.25 42.98Q90.04 43.53 89.77 44.10L89.64 43.97L89.72 44.05Q92.17 43.04 95.06 42.51L94.99 42.43L95.09 42.53Q95.93 37.01 96.00 32.29L95.95 32.24L95.87 32.16Q97.12 32.23 98.11 32.23L98.03 32.15L98.04 32.16Q99.30 32.09 100.10 32.13ZM99.32 22.36L99.28 22.32L99.12 22.16Q99.75 22.30 100.74 22.53L100.76 22.54L100.70 22.48Q100.79 22.69 100.83 23.00L100.76 22.93L100.78 22.95Q100.90 23.29 100.82 23.56L100.86 23.59L100.89 23.63Q100.72 24.79 100.00 25.66L100.07 25.74L99.90 25.57Q99.35 26.65 98.32 26.84L98.47 26.99L98.32 26.84Q97.70 26.95 96.06 26.95L95.89 26.77L95.98 26.87Q95.97 24.60 95.74 22.24L95.73 22.23L97.55 22.38L97.56 22.39Q98.25 22.24 99.12 22.16Z"/><path fill="#111" d="M26.14 41.17L26.26 41.29L23.19 41.07L23.19 41.07Q20.87 41.03 20.07 40.92L20.09 40.94L19.92 40.78Q18.14 40.48 16.96 39.60L17.01 39.66L17.07 39.71Q15.63 38.16 15.40 34.81L15.58 34.99L15.56 34.97Q15.40 34.35 15.32 33.13L15.45 33.25L15.30 33.10Q15.38 32.77 15.30 31.66L15.21 31.57L15.22 31.58Q15.31 30.87 15.35 30.15L15.26 30.06L15.23 30.03Q15.43 28.09 16.45 27.33L16.42 27.30L16.53 27.41Q18.38 26.17 23.21 25.94L23.34 26.07L23.34 26.07Q25.22 25.82 26.02 25.82L26.03 25.83L26.02 25.82Q27.62 25.94 28.99 26.24L29.00 26.25L29.00 26.25Q28.37 27.45 27.84 29.28L27.87 29.31L27.93 29.37Q27.29 29.30 26.80 29.26L26.88 29.34L26.90 29.36Q26.72 29.26 26.18 29.14L26.16 29.12L25.22 28.91L25.37 29.06Q24.11 28.60 23.50 28.63L23.52 28.65L23.53 28.66Q18.81 28.74 18.20 31.56L18.21 31.56L18.32 31.68Q18.07 32.83 18.14 33.78L18.08 33.72L17.99 33.63Q18.28 36.36 19.52 37.44L19.55 37.47L19.55 37.47Q20.78 38.55 23.37 38.59L23.22 38.44L23.23 38.45Q24.86 38.64 25.59 38.33L25.51 38.25L26.60 37.82L26.46 37.68Q27.08 37.54 27.65 37.46L27.70 37.52L27.66 37.47Q27.89 39.26 28.27 40.56L28.18 40.47L28.24 40.53Q27.99 40.89 26.20 41.23ZM29.36 44.09L29.50 44.23L29.52 44.25Q29.93 44.31 30.77 44.39L30.77 44.39L30.69 44.31Q31.32 44.33 31.66 43.76L31.66 43.76L31.58 43.68Q30.52 41.74 30.03 39.65L30.00 39.62L29.98 39.60Q29.64 39.56 29.18 39.56L29.23 39.61L29.21 39.59Q28.80 39.60 28.42 39.79L28.37 39.74L28.28 39.65Q28.07 38.53 27.92 37.12L27.88 37.08L27.93 37.13Q27.19 36.93 25.97 37.50L26.05 37.57L26.05 37.58Q24.90 38.21 24.40 38.21L24.29 38.10L24.26 38.07Q23.84 38.15 23.23 38.11L23.29 38.17L23.36 38.23Q22.28 38.03 20.30 37.46L20.35 37.51L20.34 37.50Q19.98 36.76 20.02 35.62L20.09 35.69L19.98 35.58Q20.19 31.37 25.14 30.84L25.24 30.94L25.28 30.98Q25.80 30.81 27.17 31.16L27.20 31.19L27.22 31.21Q28.59 31.55 29.31 31.51L29.36 31.56L29.27 31.47Q29.76 29.29 30.44 27.46L30.38 27.40L30.36 27.38Q30.13 27.42 29.75 27.34L29.77 27.36L28.91 27.18L28.88 27.16Q29.13 26.72 29.51 25.85L29.44 25.78L29.54 25.88Q28.00 25.52 26.44 25.52L26.48 25.56L26.33 25.41Q24.08 25.56 19.71 25.94L19.61 25.84L19.70 25.93Q17.61 25.93 16.04 26.92L16.21 27.08L16.21 27.09Q14.99 28.04 14.99 29.94L15.02 29.97L14.87 29.83Q15.00 30.37 15.12 31.59L15.09 31.56L15.11 31.59Q15.07 32.50 15.04 33.11L14.99 33.06L14.99 33.07Q15.09 35.03 15.82 38.76L15.84 38.79L15.91 38.86Q16.23 39.63 16.72 40.12L16.80 40.20L16.91 40.32L16.92 40.29L17.07 40.43Q18.08 42.55 22.01 43.16L21.89 43.05L22.01 43.16Q25.13 43.63 27.80 43.89L27.72 43.81L27.84 43.94Q28.48 43.85 29.39 44.12Z"/><path fill="#111" d="M54.97 40.31L55.10 40.44L55.14 40.48Q52.08 36.50 49.45 27.86L49.41 27.82L49.41 27.82Q48.86 25.78 48.06 23.65L48.04 23.63L45.03 32.27L45.11 32.35Q43.35 37.33 40.95 40.56L40.81 40.42L40.96 40.57Q39.98 40.51 38.35 40.66L38.37 40.69L38.37 40.69Q38.49 39.51 38.49 38.26L38.53 38.29L38.50 38.27Q38.53 32.28 35.78 26.15L35.77 26.13L35.70 26.07Q32.57 19.17 26.71 14.18L26.83 14.30L26.79 14.26Q28.93 14.95 31.29 15.48L31.33 15.53L31.35 15.54Q40.04 24.00 41.33 34.97L41.22 34.85L41.22 34.86Q42.92 31.60 44.36 26.23L44.33 26.20L44.34 26.21Q46.41 18.81 46.91 17.40L46.83 17.32L49.12 17.36L49.07 17.31Q49.83 19.41 50.48 21.73L50.45 21.70L51.75 26.20L51.67 26.11Q53.12 31.45 54.53 34.68L54.57 34.73L54.72 34.88Q56.22 23.09 64.14 15.74L64.29 15.89L64.23 15.83Q65.64 15.38 68.61 14.74L68.62 14.74L68.73 14.85Q63.31 19.06 60.26 25.19L60.38 25.31L60.30 25.23Q57.34 31.60 57.34 38.37L57.27 38.30L57.23 38.27Q57.23 39.37 57.30 40.51L57.39 40.60L56.22 40.46L56.24 40.47Q55.70 40.47 55.13 40.47ZM61.34 43.33L61.28 43.27L61.38 43.36Q60.00 39.66 60.11 35.78L60.24 35.90L60.11 35.77Q60.41 24.20 69.78 15.94L69.78 15.94L69.91 16.07Q68.88 16.22 66.94 16.75L66.96 16.78L67.01 16.82Q67.86 15.89 69.76 14.10L69.83 14.16L69.78 14.11Q67.12 14.88 64.18 15.37L64.28 15.47L64.22 15.41Q56.68 22.49 54.78 31.97L54.88 32.07L54.83 32.02Q54.29 30.42 51.44 18.96L51.35 18.87L51.43 18.95Q50.92 18.93 49.97 18.93L49.95 18.91L49.80 18.01L49.77 17.98Q49.68 17.46 49.45 16.97L49.32 16.84L46.49 16.90L46.47 16.89Q45.74 19.42 44.46 24.54L44.30 24.38L44.36 24.44Q43.01 29.49 42.02 31.96L42.16 32.10L42.08 32.03Q40.54 24.17 34.99 17.85L34.94 17.80L34.93 17.79Q34.43 17.71 33.48 17.52L33.58 17.63L33.58 17.62Q32.76 16.69 31.20 15.05L31.26 15.12L31.31 15.17Q27.78 14.22 25.61 13.42L25.69 13.50L25.60 13.41Q31.35 18.17 34.63 24.38L34.58 24.33L34.63 24.39Q38.04 30.95 38.04 37.96L38.03 37.95L38.17 38.09Q38.13 39.60 37.94 41.20L37.84 41.10L37.97 41.24Q38.19 41.23 38.65 41.13L38.66 41.15L38.65 41.14Q39.08 41.01 39.30 41.01L39.23 40.93L39.38 42.12L39.30 42.03Q39.25 42.44 39.33 42.97L39.33 42.98L39.46 43.11Q40.60 43.03 42.88 42.87L42.88 42.88L42.81 42.80Q46.39 37.36 49.13 27.96L49.12 27.95L49.08 27.91Q51.87 36.71 54.84 40.67L54.97 40.80L54.82 40.65Q55.32 40.70 56.16 40.81L56.29 40.95L56.22 40.87Q57.00 41.84 58.07 42.91L58.12 42.96L58.16 43.00Q58.79 42.91 61.19 43.18Z"/><path fill="#111" d="M63.08 14.40L63.06 14.38L63.06 14.39Q66.86 16.92 71.62 17.15L71.48 17.02L71.48 17.01Q76.09 17.17 80.35 15.42L80.49 15.55L80.50 15.57Q80.13 16.00 79.37 18.78L79.50 18.91L79.51 18.92Q76.70 19.87 73.73 20.03L73.73 20.03L73.74 20.03Q70.78 20.20 67.88 19.47L67.81 19.40L67.94 19.53Q68.51 23.03 68.70 26.68L68.68 26.66L68.68 26.67Q70.77 26.97 72.37 26.93L72.30 26.85L72.43 26.99Q73.47 26.81 75.87 26.70L75.92 26.74L75.95 26.78Q75.89 27.41 75.89 28.09L75.86 28.06L75.95 29.48L75.97 29.50Q73.49 29.42 68.70 29.50L68.68 29.48L68.73 29.53Q68.65 33.56 68.08 37.56L68.17 37.65L68.15 37.64Q70.87 37.08 73.61 37.19L73.53 37.11L73.47 37.05Q76.23 37.19 78.82 38.02L78.82 38.03L78.72 37.93Q78.85 38.78 79.12 39.54L79.06 39.48L79.56 41.05L79.66 41.15Q76.42 39.81 72.99 39.81L72.94 39.76L72.92 39.74Q68.16 39.85 63.90 42.10L63.95 42.15L63.86 42.06Q66.14 35.20 65.87 28.08L65.90 28.11L65.96 28.17Q65.56 20.88 62.89 14.22ZM63.33 42.75L63.27 42.69L63.28 42.70Q64.62 42.05 65.38 41.71L65.38 41.72L65.31 41.64Q65.16 42.45 64.59 43.97L64.70 44.08L64.56 43.94Q69.13 42.00 74.20 42.27L74.30 42.37L74.22 42.30Q79.30 42.50 83.29 45.20L83.44 45.35L83.38 45.29Q82.15 42.69 81.47 40.75L81.52 40.80L81.48 40.76Q80.57 40.23 79.58 39.89L79.54 39.85L79.49 39.80Q79.23 38.55 79.08 37.75L78.94 37.62L78.94 37.61Q76.01 36.77 72.85 36.77L72.80 36.72L72.74 36.67Q71.62 36.69 70.48 36.80L70.52 36.84L70.54 36.87Q70.52 35.47 70.56 34.25L70.69 34.38L70.68 31.78L70.62 31.73Q72.57 31.78 74.36 31.82L74.32 31.78L74.42 31.87Q76.08 31.75 77.87 31.90L77.91 31.94L77.85 31.88Q77.89 31.04 77.89 30.09L77.76 29.96L77.88 28.18L77.09 28.26L77.03 28.20Q76.74 28.40 76.28 28.40L76.16 28.28L76.14 28.26Q76.09 27.53 76.24 26.23L76.32 26.31L76.44 26.43Q74.83 26.64 73.64 26.68L73.64 26.68L73.63 26.67Q72.59 26.58 70.76 26.50L70.76 26.50L70.83 26.57Q70.70 25.11 70.51 22.29L70.51 22.29L70.45 22.23Q71.47 22.33 72.46 22.33L72.45 22.33L72.44 22.32Q77.31 22.47 81.00 20.56L80.90 20.46L81.04 20.60Q81.57 18.20 82.45 15.99L82.34 15.88L82.43 15.98Q81.01 16.72 80.17 17.06L80.19 17.09L80.20 17.09Q80.60 16.43 81.06 14.87L80.95 14.77L80.94 14.75Q76.34 16.93 71.47 16.63L71.40 16.56L71.49 16.64Q66.11 16.25 62.26 13.40L62.41 13.54L62.38 13.51Q65.18 20.39 65.49 28.00L65.62 28.13L65.60 28.12Q65.79 35.92 63.28 42.70Z"/></svg>