<svg xmlns="http://www.w3.org/2000/svg" width="150" height="50" viewBox="0,0,150,50"><path fill="#222" d="M20.84 28.86L20.88 28.90L20.81 28.83Q18.40 28.97 17.37 30.15L17.28 30.06L17.39 30.17Q16.38 31.37 16.38 34.00L16.30 33.92L16.38 33.99Q16.38 39.10 20.99 38.91L20.91 38.83L20.96 38.88Q22.93 38.95 24.28 37.39L24.36 37.47L24.29 37.39Q25.69 35.89 25.47 33.83L25.49 33.85L25.52 33.89Q25.39 31.21 24.52 30.18L24.54 30.21L24.62 30.28Q23.15 28.96 20.94 28.96ZM25.87 38.65L25.83 38.61L25.83 38.61Q24.71 41.15 20.03 41.15L20.00 41.12L18.54 41.10L18.57 41.13Q16.17 41.09 15.06 39.95L15.25 40.14L15.09 39.97Q14.08 38.97 13.81 36.57L13.88 36.64L13.89 36.64Q13.64 35.07 13.57 33.28L13.56 33.27L13.69 33.40Q13.54 32.30 13.39 30.36L13.42 30.39L13.40 30.37Q13.24 26.02 18.42 26.02L18.52 26.12L20.14 26.18L19.98 26.02Q22.90 26.05 25.00 27.35L25.14 27.49L25.03 27.38Q25.85 27.90 26.35 28.59L26.28 28.52L26.42 28.66Q26.57 27.74 27.10 26.10L27.23 26.23L27.16 26.16Q28.34 25.94 30.67 25.33L30.67 25.33L30.60 25.26Q28.10 29.58 28.10 34.83L28.12 34.85L28.19 34.92Q28.12 38.58 29.49 41.66L29.38 41.55L29.47 41.65Q28.27 41.28 26.36 41.05L26.35 41.03L26.36 41.05Q26.17 40.21 25.87 38.65ZM29.30 43.99L29.30 43.98L31.35 44.40L31.40 44.45Q32.68 44.81 33.67 45.27L33.64 45.24L33.64 45.25Q29.99 40.90 29.99 34.81L29.94 34.77L29.95 34.77Q30.05 30.34 32.18 26.53L32.15 26.51L32.13 26.48Q31.56 26.79 30.23 27.17L30.21 27.15L30.09 27.03Q30.42 26.26 31.29 24.73L31.36 24.80L31.27 24.72Q30.87 25.08 26.87 25.91L26.84 25.88L26.14 27.57L26.25 27.68Q24.45 25.93 20.04 25.70L20.07 25.73L20.07 25.73Q18.82 25.63 16.57 25.78L16.63 25.83L16.62 25.82Q13.05 26.29 13.16 30.32L13.11 30.27L13.05 30.21Q13.11 33.47 13.68 37.92L13.85 38.09L13.85 38.51L13.73 38.39Q13.96 39.34 14.76 40.45L14.76 40.44L14.76 40.45Q14.97 40.66 15.16 40.77L15.09 40.70L15.10 40.71Q15.31 41.15 15.70 41.73L15.64 41.67L15.71 41.74Q17.21 43.36 20.60 43.55L20.50 43.44L20.58 43.52Q22.25 43.67 22.40 43.67L22.35 43.62L23.81 43.52L23.94 43.65Q27.11 43.62 28.33 42.06L28.21 41.94L28.28 42.01Q28.72 42.72 29.33 44.02ZM22.61 31.09L22.74 31.22L22.66 31.14Q23.95 31.10 24.79 31.55L24.79 31.56L24.80 31.57Q25.09 32.35 25.09 33.80L25.13 33.84L25.07 33.77Q25.37 35.80 24.10 37.22L24.06 37.19L24.01 37.13Q22.76 38.58 20.85 38.39L20.96 38.51L20.83 38.37Q19.40 38.39 18.37 37.97L18.42 38.02L18.51 38.11Q18.23 37.18 18.23 35.96L18.27 36.00L18.26 35.99Q18.29 32.37 20.92 31.41L20.96 31.45L21.06 31.56Q21.86 31.14 22.66 31.14Z"/><path fill="#333" d="M94.85 28.53L94.86 28.54L94.86 28.54Q92.06 28.56 91.30 30.80L91.44 30.95L91.44 30.94Q91.15 31.60 91.03 32.25L91.01 32.23L91.00 32.22Q93.54 32.36 95.18 32.36L95.33 32.52L95.23 32.41Q96.90 32.44 99.49 32.33L99.44 32.28L99.48 32.33Q99.36 30.60 97.95 29.53L97.90 29.48L97.91 29.50Q96.75 28.64 94.96 28.64ZM94.97 41.14L95.03 41.19L95.09 41.26Q90.83 41.22 89.53 39.81L89.40 39.68L89.42 39.70Q88.55 38.34 88.40 35.06L88.40 35.06L88.32 34.99Q88.31 34.75 88.24 33.38L88.31 33.45L88.34 33.48Q88.26 31.23 88.26 30.50L88.25 30.50L88.23 30.48Q88.23 28.61 88.95 27.51L88.83 27.38L88.97 27.52Q90.29 26.02 93.26 26.02L93.33 26.09L94.87 26.08L94.90 26.11Q96.79 25.94 98.31 26.24L98.42 26.35L98.41 26.35Q100.50 26.83 101.49 28.05L101.42 27.98L101.53 28.10Q102.02 29.04 102.09 31.13L102.18 31.22L102.17 31.20Q102.04 32.21 102.07 34.38L102.26 34.57L102.22 34.53Q99.33 34.53 96.55 34.53L96.44 34.42L90.96 34.54L90.95 34.53Q91.06 38.90 95.13 38.67L95.19 38.73L95.09 38.63Q98.91 38.49 100.13 36.66L100.25 36.79L100.20 36.74Q100.96 37.15 102.56 38.33L102.61 38.39L102.64 38.42Q101.26 40.80 97.11 41.07L97.20 41.16L97.10 41.06Q96.34 41.07 94.97 41.14ZM97.36 43.56L97.35 43.56L97.38 43.58Q98.43 43.49 99.65 43.57L99.63 43.55L99.59 43.51Q104.52 43.64 105.43 40.86L105.52 40.95L105.58 41.01Q104.00 39.81 102.90 39.05L102.80 38.95L102.84 38.99Q102.94 38.53 103.13 38.30L103.24 38.40L103.16 38.33Q102.53 37.96 101.16 37.01L101.16 37.01L101.13 36.98Q102.06 36.88 104.11 37.19L104.14 37.21L104.28 37.35Q104.13 36.02 104.05 35.33L103.95 35.23L103.81 33.31L103.71 33.20Q103.59 30.87 102.94 29.39L103.10 29.54L102.96 29.41Q102.70 29.07 102.13 28.46L102.17 28.50L102.19 28.52Q102.06 28.24 101.83 27.67L101.69 27.53L101.87 27.71Q99.92 25.61 94.86 25.61L94.82 25.57L93.22 25.64L93.07 25.49Q89.92 25.58 88.48 27.07L88.52 27.11L88.51 27.10Q87.79 28.17 87.83 30.23L87.78 30.18L87.77 30.17Q87.86 31.17 87.98 33.42L87.98 33.42L87.94 33.39Q88.18 35.15 88.29 37.20L88.17 37.07L88.16 37.07Q88.46 39.35 89.34 40.42L89.39 40.47L89.41 40.49Q89.44 40.52 89.63 40.63L89.65 40.65L90.07 41.41L89.99 41.33Q90.71 43.12 97.30 43.50ZM95.14 38.26L95.29 38.41L95.18 38.30Q94.10 38.48 93.19 38.03L93.12 37.95L93.12 37.96Q93.15 37.65 92.96 36.96L92.90 36.90L92.88 36.87Q94.56 36.77 96.16 36.77L96.08 36.69L96.21 36.82Q97.91 36.85 99.59 36.96L99.44 36.81L99.50 36.87Q98.18 38.18 95.17 38.29ZM96.88 31.02L96.80 30.93L96.94 31.08Q97.41 30.94 98.74 31.32L98.82 31.40L99.01 31.78L98.99 31.94L98.94 31.90Q97.71 32.15 96.79 32.11L96.73 32.05L96.76 32.08Q94.39 31.96 94.36 31.96L94.31 31.91L94.37 31.97Q95.19 31.12 96.87 31.00Z"/><path fill="#444" d="M75.38 29.54L75.23 29.39L75.39 29.55Q74.18 28.75 73.53 28.79L73.60 28.86L73.45 28.71Q72.16 28.87 71.12 29.88L71.03 29.79L71.17 29.93Q70.10 30.92 70.21 32.29L70.17 32.25L70.20 32.28Q70.41 36.52 69.54 41.05L69.67 41.19L69.62 41.14Q67.34 41.52 66.24 42.06L66.24 42.06L66.19 42.01Q67.78 37.93 67.55 33.47L67.45 33.37L67.47 33.39Q67.21 28.87 65.50 24.80L65.64 24.94L65.67 24.97Q66.79 25.63 69.07 26.27L69.03 26.24L69.68 29.02L69.65 28.98Q70.24 26.00 74.51 26.00L74.62 26.11L74.62 26.12Q74.89 25.93 75.20 25.93L75.19 25.92L75.31 26.04Q76.61 26.05 77.86 26.73L77.71 26.58L77.73 26.60Q76.46 27.99 75.31 29.47ZM76.91 31.45L77.04 31.43L76.96 31.34Q77.90 30.23 79.57 27.79L79.65 27.87L79.61 27.84Q79.14 27.48 77.62 27.21L77.60 27.19L77.71 27.31Q77.86 26.81 78.32 26.20L78.43 26.30L78.32 26.20Q76.59 25.46 74.65 25.65L74.54 25.54L74.53 25.53Q72.69 25.82 71.96 26.09L71.85 25.97L71.85 25.97Q70.42 26.37 69.62 27.48L69.76 27.61L69.43 26.64L69.22 25.78L69.38 25.93Q66.91 25.45 64.93 24.11L65.00 24.18L64.87 24.06Q67.16 28.59 67.38 33.46L67.23 33.30L67.24 33.32Q67.60 38.36 65.85 42.89L65.87 42.91L65.72 42.76Q66.92 42.40 67.80 42.10L67.76 42.06L67.68 41.98Q67.52 43.19 67.03 44.26L66.90 44.13L66.89 44.12Q69.87 43.40 72.00 43.29L71.89 43.18L72.09 38.67L72.14 38.71Q72.31 36.52 72.31 34.27L72.27 34.24L72.23 34.20Q72.16 32.95 73.08 31.97L73.21 32.10L73.25 32.15Q74.06 31.07 75.20 30.99L75.31 31.10L75.21 31.01Q75.77 30.81 76.50 31.50L76.55 31.54L76.88 31.42ZM72.00 29.74L72.00 29.67L71.86 29.64L72.01 29.75Z"/><path fill="#222" d="M117.10 40.32L117.07 40.28L117.05 40.27Q115.71 40.41 114.15 39.99L114.10 39.94L114.20 40.04Q112.91 39.05 112.76 37.42L112.86 37.52L112.76 37.42Q112.66 37.17 112.85 34.54L112.86 34.55L112.96 34.65Q113.97 34.45 115.99 34.07L115.90 33.97L115.79 34.82L115.79 34.81Q115.49 36.53 116.89 37.10L116.95 37.16L116.97 37.18Q117.69 37.44 119.79 37.44L119.86 37.52L119.92 37.58Q121.42 37.33 121.61 37.25L121.70 37.34L121.59 37.22Q122.52 37.10 123.25 36.60L123.32 36.68L123.18 36.53Q124.67 35.66 124.48 33.57L124.52 33.61L124.50 33.59Q124.21 31.06 122.48 29.50L122.64 29.66L122.46 29.48Q120.86 28.04 118.38 28.04L118.31 27.97L118.39 27.82L118.39 27.82Q118.78 27.79 119.65 27.72L119.60 27.66L119.70 27.76Q121.42 27.47 122.79 26.23L122.83 26.27L122.86 26.30Q124.25 25.08 124.40 23.21L124.48 23.29L124.38 23.19Q124.48 22.87 124.48 22.53L124.38 22.43L124.56 22.61Q124.45 20.98 123.08 20.07L123.02 20.01L123.18 20.16Q121.97 19.38 120.37 19.49L120.23 19.35L120.25 19.37Q119.05 19.30 117.83 19.72L117.69 19.59L117.87 19.76Q116.40 20.27 116.09 21.41L116.06 21.38L116.11 21.43Q115.92 22.19 115.99 22.95L115.81 22.77L115.88 22.84Q114.93 22.69 112.88 21.97L112.87 21.96L112.87 21.96Q112.51 20.16 112.55 19.32L112.55 19.32L112.64 19.40Q112.84 17.97 113.90 17.28L113.81 17.19L113.75 17.13Q115.19 16.55 116.79 16.55L116.78 16.54L116.84 16.61Q119.93 16.49 123.09 16.76L123.24 16.91L123.06 16.73Q128.11 17.14 127.81 20.91L127.91 21.02L127.95 21.05Q127.92 22.58 127.42 24.14L127.26 23.97L127.42 24.13Q126.44 27.16 124.08 28.07L124.09 28.08L124.11 28.10Q126.66 28.55 127.26 31.90L127.31 31.95L127.36 32.00Q127.61 33.16 127.68 35.17L127.69 35.18L127.53 35.02Q127.81 39.60 123.20 40.06L123.13 39.98L123.22 40.08Q122.50 40.16 117.21 40.43ZM122.28 42.52L122.34 42.58L122.44 42.68Q122.88 42.55 125.73 42.63L125.74 42.63L125.78 42.68Q127.56 42.78 129.20 42.14L129.22 42.15L129.25 42.18Q130.45 41.26 130.26 39.50L130.16 39.40L130.20 39.44Q130.01 38.03 129.71 36.28L129.70 36.28L129.86 36.43Q129.06 31.87 127.12 30.23L127.03 30.15L127.01 29.93L126.90 29.78L126.87 29.75Q128.66 28.35 129.42 23.97L129.43 23.97L129.37 23.92Q129.52 23.57 129.63 22.62L129.52 22.50L129.58 22.57Q129.59 21.73 129.51 21.05L129.46 21.00L129.46 21.00Q129.43 19.45 128.14 18.76L128.11 18.73L128.07 18.77L128.01 18.71Q127.81 17.83 126.67 17.29L126.65 17.28L126.55 17.18Q125.01 16.47 119.87 16.17L119.89 16.19L119.99 16.29Q118.31 16.21 116.71 16.21L116.62 16.12L116.58 16.08Q114.96 16.06 113.44 16.71L113.52 16.78L113.44 16.71Q112.30 17.55 112.30 19.30L112.34 19.34L112.29 19.28Q112.24 18.81 112.50 22.16L112.55 22.21L112.48 22.14Q112.96 22.39 114.60 23.00L114.54 22.95L114.43 22.83Q114.59 23.53 114.55 24.02L114.42 23.89L114.54 24.01Q114.38 24.35 114.42 24.88L114.50 24.96L114.46 24.92Q116.29 25.34 118.31 25.46L118.27 25.42L118.29 25.44Q118.29 23.50 119.39 22.66L119.26 22.53L119.26 22.52Q120.25 22.03 122.27 21.80L122.28 21.81L122.20 21.74Q123.26 21.66 123.83 21.85L123.99 22.01L123.99 22.00Q123.95 22.03 123.98 22.15L123.97 22.14L123.96 22.31L124.11 22.92L124.11 22.93Q124.18 23.18 124.14 23.34L124.15 23.35L124.04 23.24Q124.06 25.04 122.54 26.22L122.54 26.22L122.52 26.21Q121.45 26.96 119.43 27.15L119.60 27.32L119.56 27.28Q118.79 27.39 117.92 27.39L117.88 27.35L117.83 27.30Q117.95 27.72 118.10 28.41L118.17 28.48L118.06 28.36Q119.81 28.37 121.26 29.09L121.40 29.23L121.23 29.18L119.71 29.41L119.69 29.39Q119.66 29.66 119.77 30.27L119.87 30.37L119.76 30.25Q121.98 30.28 123.70 31.61L123.73 31.64L123.60 31.51Q123.78 31.84 124.09 33.48L124.18 33.57L124.08 33.48Q124.42 36.56 121.49 36.98L121.43 36.91L121.53 37.01Q119.28 37.13 118.71 37.09L118.68 37.06L118.82 37.20Q118.38 37.10 117.85 37.03L117.77 36.95L117.84 36.56L117.88 36.03L117.91 35.64L117.93 35.32L117.87 35.26Q116.97 35.38 116.17 35.57L116.25 35.65L116.29 35.70Q116.15 35.37 116.15 35.18L116.19 35.21L116.22 35.25Q116.12 34.91 116.12 34.69L116.17 34.74L116.16 34.73Q116.34 34.45 116.49 33.72L116.35 33.59L116.41 33.64Q114.60 33.93 112.73 34.27L112.76 34.29L112.61 34.15Q112.69 34.72 112.57 35.84L112.47 35.74L112.53 35.80Q112.48 36.99 112.48 37.60L112.41 37.52L112.35 37.46Q112.50 39.60 113.87 40.36L113.82 40.31L113.99 40.47Q115.33 42.62 120.05 42.43L120.02 42.40L120.04 42.42Q120.72 42.34 122.25 42.49Z"/><path fill="#111" d="M48.55 20.03L48.70 20.18L48.60 20.08Q44.39 20.17 40.70 19.19L40.64 19.13L40.71 19.19Q42.09 23.62 42.28 28.46L42.41 28.58L42.31 28.49Q42.52 33.31 41.31 37.91L41.23 37.84L41.21 37.82Q44.17 37.34 47.67 37.19L47.63 37.15L47.58 37.11Q51.56 36.98 53.35 34.54L53.26 34.44L53.40 34.58Q54.88 32.49 55.07 28.37L55.01 28.31L55.07 28.37Q55.06 26.54 54.61 24.83L54.59 24.81L54.70 24.92Q53.38 20.14 48.66 20.14ZM36.80 42.20L36.76 42.16L36.66 42.06Q39.71 36.55 39.71 29.85L39.63 29.77L39.63 29.76Q39.54 21.14 35.24 14.14L35.38 14.29L35.35 14.25Q40.52 16.84 48.78 17.03L48.91 17.15L48.86 17.10Q57.68 17.24 58.02 24.40L58.13 24.51L57.96 24.33Q58.26 27.23 58.22 28.67L58.22 28.67L58.03 28.49Q58.13 33.34 57.29 35.51L57.26 35.48L57.13 35.34Q56.80 36.54 56.03 37.37L55.98 37.32L55.96 37.30Q54.68 38.91 52.06 39.41L51.99 39.34L52.00 39.36Q50.45 39.67 47.44 39.89L47.56 40.02L47.41 39.86Q41.31 40.35 36.71 42.11ZM54.76 42.12L54.61 41.96L54.64 42.00Q57.34 41.61 58.97 40.12L59.00 40.15L59.10 40.25Q60.15 38.33 60.12 35.59L60.27 35.74L60.16 35.64Q60.19 34.29 60.04 30.79L59.97 30.72L59.77 26.34L59.71 26.28Q59.43 23.90 58.48 21.81L58.64 21.97L58.52 21.85Q58.12 21.03 57.44 20.39L57.37 20.32L57.33 20.13L57.25 20.05Q55.57 17.11 51.15 16.73L51.14 16.72L51.32 16.90Q48.56 16.69 41.56 15.97L41.59 16.00L41.50 15.91Q38.18 15.41 34.49 13.39L34.54 13.44L34.57 13.47Q39.46 20.91 39.46 29.67L39.32 29.53L39.48 29.69Q39.36 36.57 36.01 42.74L36.07 42.80L36.05 42.79Q36.78 42.56 38.11 42.07L38.16 42.11L38.16 42.11Q37.76 42.89 36.88 44.37L36.95 44.44L36.88 44.37Q39.92 43.31 43.27 42.81L43.19 42.72L43.19 42.73Q45.32 42.46 48.97 42.34L48.89 42.26L48.86 42.23Q52.89 42.26 54.72 42.07ZM54.73 28.42L54.80 28.49L54.61 28.30Q54.27 36.33 47.56 36.71L47.70 36.84L47.70 36.84Q45.59 36.79 43.53 37.05L43.70 37.22L43.67 37.19Q44.26 33.21 44.26 29.56L44.42 29.72L44.44 29.73Q44.28 25.89 43.56 22.04L43.63 22.12L43.67 22.16Q45.91 22.50 50.60 22.50L50.49 22.39L50.50 22.40Q51.91 22.28 53.54 23.23L53.51 23.20L53.56 23.25Q54.79 25.47 54.63 28.32Z"/></svg>