<svg xmlns="http://www.w3.org/2000/svg" width="150" height="50" viewBox="0,0,150,50"><path fill="#333" d="M75.48 41.18L75.58 41.27L72.62 41.17L72.60 41.15Q70.24 41.07 69.44 40.96L69.41 40.93L69.29 40.81Q67.55 40.55 66.37 39.68L66.35 39.66L66.40 39.71Q65.09 38.28 64.86 34.93L64.92 34.99L64.85 34.92Q64.71 34.32 64.63 33.11L64.71 33.18L64.63 33.11Q64.65 32.70 64.57 31.60L64.68 31.71L64.67 31.70Q64.67 30.90 64.71 30.17L64.63 30.09L64.59 30.06Q64.83 28.16 65.86 27.40L65.86 27.40L65.84 27.38Q67.82 26.28 72.66 26.05L72.67 26.07L72.67 26.06Q74.62 25.89 75.42 25.89L75.41 25.88L75.36 25.83Q76.95 25.93 78.32 26.24L78.34 26.25L78.22 26.14Q77.64 27.38 77.11 29.21L77.26 29.36L77.15 29.26Q76.76 29.44 76.27 29.40L76.26 29.39L76.28 29.41Q76.12 29.33 75.59 29.22L75.49 29.12L74.62 28.97L74.65 29.00Q73.55 28.70 72.94 28.74L72.98 28.78L72.91 28.71Q68.15 28.75 67.55 31.56L67.67 31.69L67.54 31.56Q67.26 32.68 67.33 33.64L67.32 33.63L67.40 33.71Q67.55 36.29 68.79 37.37L68.75 37.34L68.78 37.37Q70.14 38.57 72.73 38.61L72.59 38.48L72.58 38.47Q74.19 38.63 74.91 38.33L74.92 38.33L75.87 37.76L75.88 37.77Q76.33 37.45 76.90 37.38L77.03 37.50L76.99 37.47Q77.13 39.17 77.51 40.46L77.61 40.56L77.52 40.47Q77.42 40.98 75.63 41.32ZM78.87 44.26L78.74 44.13L78.70 44.09Q79.25 44.30 80.09 44.37L80.00 44.29L80.09 44.38Q80.69 44.37 81.03 43.79L80.99 43.76L81.06 43.82Q79.69 41.58 79.20 39.49L79.36 39.65L79.27 39.56Q78.99 39.59 78.54 39.59L78.55 39.60L78.53 39.59Q78.07 39.54 77.69 39.73L77.78 39.82L77.75 39.79Q77.36 38.49 77.21 37.08L77.28 37.15L77.19 37.06Q76.61 37.01 75.39 37.58L75.36 37.55L75.40 37.59Q74.06 38.04 73.56 38.04L73.70 38.18L73.71 38.18Q73.10 38.07 72.49 38.03L72.53 38.07L72.57 38.11Q71.71 38.13 69.73 37.56L69.63 37.46L69.66 37.49Q69.32 36.77 69.36 35.63L69.35 35.62L69.36 35.62Q69.61 31.46 74.56 30.93L74.45 30.81L74.58 30.95Q75.21 30.89 76.58 31.24L76.64 31.29L76.50 31.16Q77.90 31.53 78.62 31.49L78.73 31.59L78.73 31.60Q79.12 29.32 79.80 27.49L79.75 27.44L79.69 27.37Q79.31 27.26 78.93 27.18L79.05 27.31L78.19 27.14L78.35 27.29Q78.44 26.70 78.82 25.82L78.87 25.88L78.86 25.86Q77.34 25.53 75.78 25.53L75.76 25.50L75.73 25.47Q73.41 25.55 69.03 25.93L68.95 25.86L68.95 25.85Q67.11 26.11 65.55 27.10L65.41 26.95L65.46 27.00Q64.24 27.95 64.24 29.86L64.16 29.78L64.32 29.94Q64.18 30.22 64.29 31.43L64.31 31.45L64.43 31.58Q64.39 32.49 64.35 33.09L64.37 33.11L64.39 33.13Q64.48 35.09 65.21 38.82L65.23 38.85L65.12 38.73Q65.50 39.57 65.99 40.06L66.06 40.13L66.35 40.42L66.36 40.39L66.31 40.34Q67.32 42.46 71.24 43.07L71.19 43.01L71.21 43.04Q74.37 43.53 77.04 43.80L77.03 43.79L77.05 43.81Q77.92 43.95 78.83 44.22Z"/><path fill="#222" d="M43.86 29.65L43.89 29.68L43.76 29.55Q43.89 33.95 43.17 38.10L43.05 37.97L43.06 37.99Q45.47 37.58 48.56 37.47L48.41 37.32L48.49 37.41Q49.79 37.56 50.85 36.55L50.88 36.57L50.76 36.45Q51.83 35.45 51.83 34.12L51.90 34.19L51.97 34.26Q51.90 33.89 51.86 33.62L51.96 33.72L51.92 33.68Q51.82 30.79 49.57 29.96L49.44 29.83L49.41 29.79Q48.73 29.58 48.05 29.66L48.10 29.70L47.95 29.56Q46.96 29.55 45.93 29.59L45.93 29.59L45.97 29.63Q44.90 29.67 43.87 29.67ZM42.65 19.23L42.68 19.26L42.60 19.18Q43.56 22.58 43.83 26.96L43.83 26.96L43.76 26.89Q45.26 27.06 47.93 27.10L47.96 27.13L47.79 26.96Q50.81 27.09 51.16 23.55L51.09 23.48L51.26 23.65Q51.35 21.61 49.94 20.77L49.96 20.79L49.94 20.77Q48.93 20.14 44.51 19.49L44.62 19.60L44.54 19.52Q43.53 19.43 42.62 19.20ZM39.02 42.14L38.99 42.11L39.00 42.11Q41.45 35.43 41.19 28.05L41.28 28.14L41.22 28.08Q40.81 20.66 37.88 14.19L37.96 14.28L38.03 14.34Q41.75 16.81 47.97 17.05L47.92 17.01L47.97 17.05Q54.11 17.22 54.46 20.11L54.60 20.25L54.50 20.15Q54.99 23.08 53.58 25.74L53.40 25.56L53.57 25.74Q52.80 27.21 51.20 27.90L51.13 27.83L51.22 27.92Q54.81 28.54 55.04 33.90L54.95 33.81L54.98 33.85Q55.07 34.97 55.00 36.37L55.08 36.45L55.07 36.44Q54.96 37.70 54.02 38.64L54.07 38.69L54.08 38.69Q53.18 39.65 51.84 39.81L51.70 39.66L51.75 39.71Q50.25 39.78 49.19 39.78L49.30 39.89L49.18 39.77Q43.45 39.75 38.92 42.04ZM51.73 42.36L51.72 42.34L51.68 42.30Q52.78 42.53 54.64 42.65L54.55 42.55L54.68 42.68Q55.91 42.54 57.01 41.66L57.08 41.73L57.12 41.77Q57.93 40.87 57.81 39.31L57.72 39.21L57.73 39.22Q57.80 38.41 57.07 34.95L56.97 34.84L56.94 34.81Q56.27 31.60 54.41 30.11L54.38 30.08L54.07 29.36L53.92 29.20Q55.64 27.84 56.21 24.07L56.31 24.17L56.29 24.15Q56.40 22.97 56.32 21.56L56.25 21.48L56.39 21.63Q56.39 20.37 55.29 19.53L55.14 19.39L55.21 19.45Q54.94 19.30 54.83 19.26L54.65 19.09L54.68 19.12Q54.53 18.70 53.69 17.90L53.76 17.97L53.65 17.86Q52.06 16.73 47.84 16.54L47.99 16.69L47.91 16.61Q41.20 16.26 37.21 13.37L37.25 13.41L37.28 13.44Q40.48 20.37 40.79 27.91L40.87 28.00L40.95 28.08Q41.17 35.79 38.35 42.72L38.34 42.71L40.41 41.77L40.39 41.76Q40.08 42.96 39.58 44.11L39.51 44.04L39.67 44.19Q43.85 42.20 48.87 42.20L48.99 42.32L48.89 42.22Q50.30 42.22 51.75 42.37ZM49.64 31.85L49.66 31.87L49.74 31.95Q50.30 31.72 51.22 32.18L51.25 32.20L51.22 32.18Q51.34 32.53 51.50 33.60L51.58 33.68L51.45 33.55Q51.78 35.06 50.85 36.11L50.88 36.14L50.85 36.11Q49.78 37.02 48.38 36.91L48.48 37.02L46.92 37.05L46.96 37.09Q46.18 37.11 45.45 37.22L45.47 37.24L45.41 37.18Q45.89 35.52 45.96 32.06L45.84 31.93L45.92 32.02Q46.47 31.85 47.73 31.81L47.69 31.77L47.84 31.92Q48.95 31.74 49.56 31.77ZM48.59 22.24L48.64 22.29L48.97 22.24L49.04 22.31Q49.29 22.33 49.48 22.37L49.42 22.31L49.76 22.27L50.10 22.42L50.65 22.44L50.67 22.45Q50.84 22.78 50.84 23.08L50.85 23.09L50.91 23.69L50.91 23.68Q50.76 24.79 49.88 25.72L50.03 25.86L49.91 25.74Q49.01 26.65 47.79 26.65L47.81 26.67L47.89 26.76Q46.76 26.66 46.76 26.66L46.90 26.79L46.77 26.66Q45.45 26.63 45.79 26.63L45.78 26.62L45.75 26.59Q45.75 25.11 45.45 22.07L45.42 22.04L45.59 22.21Q47.13 22.30 48.66 22.30Z"/><path fill="#333" d="M119.61 28.62L119.55 28.56L119.51 28.53Q116.83 28.66 116.06 30.90L115.96 30.80L116.04 30.88Q115.82 31.61 115.70 32.25L115.61 32.16L115.78 32.33Q118.27 32.42 119.90 32.42L119.85 32.37L119.82 32.34Q121.51 32.39 124.10 32.27L124.15 32.32L124.17 32.34Q124.15 30.73 122.74 29.66L122.72 29.64L122.67 29.59Q121.33 28.56 119.54 28.56ZM119.66 41.16L119.75 41.25L119.74 41.24Q115.45 41.17 114.15 39.76L114.18 39.79L114.24 39.86Q113.24 38.36 113.09 35.08L113.02 35.02L113.12 35.11Q113.00 34.77 112.92 33.40L113.05 33.52L113.07 33.54Q112.77 31.07 112.77 30.35L112.86 30.44L112.80 30.38Q112.85 28.57 113.58 27.46L113.56 27.44L113.63 27.52Q114.99 26.06 117.96 26.06L117.95 26.05L119.39 25.93L119.45 25.99Q121.60 26.08 123.12 26.38L123.02 26.28L123.03 26.29Q125.04 26.71 126.03 27.93L126.11 28.01L126.12 28.02Q126.69 29.04 126.77 31.14L126.86 31.23L126.76 31.13Q126.78 32.29 126.82 34.46L126.92 34.56L126.84 34.48Q123.96 34.50 121.18 34.50L121.23 34.55L115.54 34.45L115.57 34.48Q115.85 39.02 119.92 38.79L119.85 38.72L119.87 38.75Q123.66 38.57 124.87 36.74L124.92 36.79L124.85 36.72Q125.70 37.23 127.30 38.41L127.32 38.43L127.24 38.35Q125.91 40.79 121.76 41.05L121.83 41.12L121.80 41.09Q121.13 41.18 119.75 41.26ZM122.05 43.59L121.94 43.48L122.00 43.54Q123.13 43.52 124.35 43.60L124.28 43.54L124.27 43.53Q129.29 43.75 130.20 40.97L130.23 41.00L130.11 40.88Q128.56 39.71 127.46 38.94L127.56 39.05L127.44 38.92Q127.67 38.59 127.86 38.36L127.90 38.40L127.80 38.30Q127.11 37.87 125.74 36.92L125.70 36.88L125.70 36.88Q126.74 36.90 128.80 37.20L128.82 37.22L128.77 37.18Q128.61 35.84 128.54 35.15L128.65 35.27L128.41 33.24L128.55 33.37Q128.35 30.97 127.70 29.48L127.64 29.42L127.66 29.44Q127.46 29.17 126.89 28.56L126.90 28.56L126.76 28.42Q126.77 28.28 126.54 27.71L126.53 27.70L126.41 27.58Q124.52 25.54 119.46 25.54L119.53 25.62L117.77 25.52L117.87 25.63Q114.67 25.66 113.22 27.15L113.22 27.15L113.22 27.14Q112.40 28.12 112.44 30.17L112.47 30.20L112.55 30.28Q112.53 31.18 112.64 33.42L112.60 33.38L112.64 33.42Q112.71 35.01 112.82 37.06L112.93 37.18L112.82 37.06Q113.06 39.28 113.93 40.34L114.03 40.44L113.93 40.34Q114.22 40.63 114.41 40.74L114.28 40.61L114.71 41.39L114.75 41.43Q115.32 43.06 121.90 43.44ZM119.90 38.36L119.89 38.35L119.83 38.29Q118.67 38.38 117.76 37.93L117.78 37.95L117.84 38.01Q117.64 37.46 117.45 36.78L117.46 36.79L117.60 36.93Q119.25 36.79 120.85 36.79L120.82 36.76L120.89 36.83Q122.40 36.67 124.07 36.78L124.11 36.81L124.10 36.81Q122.95 38.28 119.94 38.40ZM121.44 30.91L121.59 31.06L121.57 31.04Q122.10 30.97 123.44 31.35L123.47 31.38L123.56 31.66L123.62 31.91L123.72 32.01Q122.22 32.00 121.31 31.96L121.47 32.12L121.36 32.01Q119.18 32.08 119.15 32.08L119.16 32.10L119.12 32.06Q119.81 31.07 121.48 30.95Z"/><path fill="#222" d="M100.01 30.95L100.02 30.96L99.90 30.84Q99.93 29.76 97.99 29.04L97.89 28.94L97.88 28.94Q97.38 28.74 96.84 28.74L96.93 28.82L96.83 28.72Q95.51 28.77 94.44 29.34L94.35 29.25L94.34 29.24Q93.14 30.14 93.26 31.35L93.18 31.28L93.11 31.21Q93.50 34.08 93.35 36.32L93.36 36.33L93.31 36.28Q93.29 38.85 92.57 41.36L92.59 41.38L92.55 41.35Q90.37 41.79 89.19 42.21L89.20 42.22L89.19 42.21Q90.88 38.68 90.88 34.68L90.71 34.51L90.72 34.53Q90.69 29.05 88.10 24.60L88.19 24.69L88.13 24.63Q89.39 25.17 91.79 25.89L91.79 25.89L91.87 25.97Q92.19 26.71 92.57 28.23L92.50 28.16L92.57 28.23Q93.75 25.98 97.63 26.06L97.68 26.11L97.64 26.07Q99.15 26.13 99.95 26.24L99.97 26.26L99.91 26.20Q102.87 26.58 102.95 28.59L103.02 28.67L103.10 28.75Q103.10 29.62 102.91 30.65L102.88 30.63L102.81 30.56Q102.53 33.24 102.72 36.25L102.61 36.14L102.62 36.15Q102.77 39.01 103.76 41.56L103.86 41.66L103.75 41.54Q102.10 41.19 100.39 41.03L100.38 41.03L100.26 40.91Q99.85 38.60 99.78 35.93L99.77 35.92L99.83 35.99Q99.72 33.21 99.94 30.88ZM99.96 41.33L100.06 41.43L99.92 41.29Q100.69 41.26 101.99 41.49L102.02 41.53L102.39 42.58L102.41 42.60Q102.54 43.03 102.76 43.56L102.79 43.59L102.85 43.64Q105.09 44.02 107.79 45.20L107.90 45.31L107.78 45.19Q105.53 42.19 104.85 38.38L104.77 38.30L104.72 38.24Q104.55 36.29 104.67 32.60L104.47 32.40L104.59 32.52Q104.52 32.15 104.56 31.35L104.61 31.40L104.58 31.37Q104.73 30.84 104.66 30.34L104.65 30.33L104.67 30.36Q104.51 28.63 103.40 28.14L103.39 28.12L103.44 28.17Q103.19 27.24 102.43 26.63L102.49 26.69L102.48 26.69Q100.74 25.63 97.70 25.70L97.70 25.71L97.80 25.81Q95.93 25.84 95.09 26.03L94.94 25.88L95.09 26.03Q93.50 26.23 92.55 27.14L92.64 27.24L92.61 27.21Q92.50 26.67 92.12 25.65L92.20 25.72L92.18 25.71Q89.26 24.92 87.44 23.93L87.53 24.03L87.43 23.93Q90.58 28.91 90.58 34.66L90.48 34.56L90.50 34.57Q90.56 39.01 88.66 42.86L88.71 42.91L88.65 42.85Q89.28 42.49 90.57 42.11L90.59 42.12L90.63 42.16Q90.10 43.39 89.57 44.38L89.57 44.37L89.67 44.48Q91.02 43.96 94.56 43.39L94.59 43.42L94.53 43.36Q95.53 38.23 95.41 33.40L95.44 33.42L95.48 33.46Q95.40 32.58 96.58 31.86L96.57 31.85L96.49 31.77Q97.50 31.10 98.60 30.99L98.69 31.08L98.68 31.06Q99.04 30.93 99.46 31.12L99.57 31.23L99.52 31.18Q99.40 33.77 99.44 36.32L99.42 36.30L99.34 36.22Q99.53 38.89 100.03 41.40Z"/><path fill="#333" d="M20.97 29.00L20.96 28.98L20.89 28.92Q18.41 28.98 17.38 30.16L17.23 30.01L17.26 30.04Q16.26 31.25 16.26 33.87L16.30 33.92L16.22 33.84Q16.21 38.93 20.82 38.74L20.83 38.75L20.87 38.79Q22.92 38.93 24.27 37.37L24.37 37.47L24.37 37.48Q25.66 35.85 25.43 33.80L25.50 33.87L25.44 33.80Q25.41 31.23 24.54 30.20L24.57 30.23L24.57 30.24Q23.13 28.95 20.92 28.95ZM25.85 38.63L25.86 38.64L25.91 38.69Q24.84 41.27 20.16 41.27L19.97 41.09L18.52 41.08L18.59 41.15Q16.25 41.17 15.14 40.03L15.07 39.96L15.25 40.13Q14.09 38.97 13.82 36.57L13.80 36.56L13.94 36.69Q13.62 35.05 13.55 33.26L13.57 33.29L13.66 33.37Q13.59 32.35 13.44 30.41L13.42 30.39L13.39 30.36Q13.34 26.12 18.52 26.12L18.46 26.06L20.05 26.09L20.06 26.10Q22.87 26.02 24.96 27.31L24.96 27.31L24.98 27.33Q25.80 27.84 26.29 28.53L26.26 28.50L26.30 28.53Q26.57 27.74 27.10 26.10L27.13 26.14L27.19 26.19Q28.29 25.88 30.61 25.27L30.59 25.25L30.72 25.38Q28.19 29.67 28.19 34.92L28.08 34.81L28.12 34.85Q28.07 38.53 29.44 41.61L29.41 41.59L29.37 41.55Q28.24 41.25 26.33 41.02L26.50 41.18L26.48 41.16Q26.19 40.23 25.89 38.67ZM29.23 43.92L29.19 43.87L31.34 44.39L31.49 44.54Q32.73 44.87 33.72 45.32L33.61 45.21L33.61 45.21Q29.93 40.85 29.93 34.76L29.97 34.79L29.95 34.78Q29.90 30.20 32.04 26.39L32.22 26.58L32.19 26.54Q31.44 26.67 30.11 27.05L30.13 27.08L30.23 27.18Q30.40 26.24 31.28 24.72L31.36 24.80L31.34 24.78Q30.78 24.99 26.78 25.82L26.84 25.88L26.32 27.76L26.27 27.71Q24.40 25.87 19.98 25.65L20.09 25.75L20.12 25.78Q18.95 25.75 16.70 25.91L16.60 25.80L16.66 25.86Q13.04 26.28 13.15 30.31L13.06 30.22L13.18 30.34Q13.20 33.56 13.77 38.01L13.79 38.03L13.79 38.45L13.81 38.47Q13.98 39.36 14.78 40.47L14.74 40.42L14.74 40.42Q14.95 40.63 15.14 40.75L15.15 40.76L15.05 40.66Q15.33 41.17 15.72 41.75L15.81 41.84L15.80 41.83Q17.20 43.35 20.59 43.54L20.50 43.45L20.53 43.48Q22.16 43.59 22.31 43.59L22.39 43.66L23.80 43.51L23.91 43.62Q27.02 43.53 28.24 41.97L28.22 41.96L28.34 42.07Q28.62 42.62 29.23 43.91ZM22.64 31.12L22.65 31.13L22.60 31.08Q24.08 31.23 24.92 31.68L24.89 31.66L24.82 31.59Q25.07 32.33 25.07 33.78L25.12 33.83L25.20 33.91Q25.35 35.77 24.07 37.20L24.06 37.19L24.06 37.18Q22.77 38.60 20.87 38.41L20.99 38.53L20.95 38.49Q19.45 38.44 18.42 38.02L18.35 37.95L18.50 38.09Q18.27 37.22 18.27 36.01L18.18 35.91L18.33 36.06Q18.43 32.50 21.05 31.55L20.97 31.47L20.94 31.44Q21.85 31.13 22.65 31.13Z"/></svg>