<svg xmlns="http://www.w3.org/2000/svg" width="150" height="50" viewBox="0,0,150,50"><path fill="#444" d="M71.18 29.28L71.04 29.14L71.15 29.25Q69.15 29.12 67.94 30.45L68.06 30.58L67.91 30.43Q66.70 31.77 66.55 33.67L66.62 33.75L66.72 33.84Q66.53 35.98 67.75 36.99L67.73 36.96L67.61 36.84Q68.93 37.95 71.06 37.88L71.06 37.88L70.92 37.73Q73.41 37.76 74.37 36.81L74.20 36.64L74.28 36.72Q75.32 35.28 75.20 33.46L75.23 33.49L75.20 33.45Q75.02 31.52 73.93 30.32L74.08 30.47L74.03 30.42Q72.88 29.15 71.05 29.15ZM70.96 19.66L71.05 19.75L71.07 19.77Q69.62 19.61 68.29 20.11L68.37 20.18L68.29 20.11Q67.10 21.01 67.33 22.87L67.22 22.77L67.23 22.78Q67.66 26.45 71.01 26.45L71.07 26.51L71.06 26.49Q72.61 26.68 73.60 25.53L73.73 25.66L73.72 25.65Q74.71 24.51 74.74 22.95L74.57 22.78L74.76 22.97Q74.75 21.13 74.03 20.52L74.12 20.61L74.11 20.60Q72.28 19.60 70.98 19.68ZM70.69 40.21L70.87 40.39L67.64 40.21L67.72 40.28Q66.17 40.26 64.84 39.38L64.93 39.47L64.80 39.35Q63.42 38.20 63.57 35.34L63.72 35.49L63.75 35.51Q64.10 28.56 67.72 27.57L67.81 27.66L67.81 27.67Q65.45 26.67 64.12 21.31L64.03 21.22L64.21 21.39Q63.79 19.91 63.87 19.11L63.87 19.11L63.89 19.13Q64.17 16.98 67.86 16.94L67.93 17.01L67.87 16.95Q72.01 16.78 73.46 16.97L73.62 17.14L73.58 17.10Q77.41 17.62 77.86 19.63L77.83 19.59L77.90 19.67Q77.88 20.15 77.88 20.53L78.03 20.67L77.91 20.56Q77.88 21.21 77.69 21.82L77.73 21.86L77.83 21.96Q77.20 26.16 74.27 27.68L74.28 27.70L74.11 27.53Q77.79 28.50 78.28 33.79L78.25 33.76L78.19 33.70Q78.29 33.95 78.33 35.25L78.17 35.09L78.22 35.13Q78.36 37.95 76.77 39.02L76.77 39.02L76.74 38.99Q75.31 39.81 70.74 40.27ZM73.11 42.67L72.97 42.53L76.41 42.69L76.34 42.62Q78.16 42.80 79.68 42.08L79.63 42.04L79.60 42.00Q80.81 41.34 80.88 39.48L80.79 39.39L80.88 39.47Q80.87 38.33 80.49 36.39L80.48 36.37L80.44 36.33Q79.61 31.78 77.52 29.91L77.44 29.83L77.39 29.59L77.12 29.24L77.03 29.04L76.93 28.93Q78.70 27.70 79.61 23.55L79.55 23.49L79.62 23.56Q79.55 23.11 79.63 22.27L79.59 22.23L79.67 22.31Q79.76 21.64 79.68 21.03L79.65 21.00L79.63 20.98Q79.38 19.44 78.20 18.94L78.33 19.08L78.29 19.00L78.07 18.85L78.20 18.98Q77.90 18.22 76.72 17.42L76.59 17.29L76.64 17.30L76.81 17.47Q74.73 16.69 70.65 16.50L70.75 16.59L70.74 16.58Q69.02 16.30 67.64 16.42L67.77 16.54L67.65 16.42Q66.97 16.58 65.67 16.73L65.73 16.78L65.61 16.67Q63.65 17.03 63.42 18.67L63.41 18.66L63.52 18.77Q63.43 19.21 63.47 20.01L63.48 20.02L63.42 19.96Q63.64 20.60 64.22 22.96L64.17 22.92L64.17 22.92Q64.92 26.11 66.68 27.44L66.66 27.43L66.88 27.65L66.85 27.61Q63.94 28.78 63.41 33.96L63.52 34.07L63.50 34.05Q63.28 36.22 63.28 37.14L63.22 37.08L63.30 37.16Q63.32 38.89 64.50 39.80L64.59 39.89L64.56 39.87Q64.57 39.83 64.83 40.03L64.92 40.11L64.97 40.17Q65.94 42.39 73.06 42.62ZM72.69 31.51L72.80 31.63L72.75 31.58Q73.60 31.44 74.48 31.89L74.46 31.88L74.53 31.94Q74.82 32.85 74.79 33.38L74.92 33.52L74.91 33.50Q74.91 33.77 74.91 34.07L74.93 34.09L74.96 34.13Q74.82 36.35 72.54 37.19L72.52 37.17L72.56 37.20Q71.85 37.60 71.05 37.48L71.09 37.53L71.08 37.52Q69.86 37.51 68.72 37.06L68.80 37.14L68.71 37.05Q68.52 36.48 68.60 35.49L68.50 35.39L68.60 35.49Q68.83 33.97 70.03 32.75L70.01 32.74L69.96 32.69Q71.12 31.43 72.72 31.54ZM72.88 21.99L72.93 22.05L73.01 22.13Q73.66 21.86 74.19 22.01L74.23 22.05L74.36 22.98L74.25 22.87Q74.37 24.39 73.45 25.40L73.42 25.37L73.43 25.38Q72.43 26.31 71.06 26.12L71.09 26.15L71.15 26.21Q70.19 26.24 69.77 26.01L69.63 25.87L69.65 25.88Q69.70 25.70 69.58 25.02L69.60 25.03L69.52 24.95Q69.36 23.65 70.58 22.81L70.40 22.64L70.53 22.77Q71.57 22.06 72.98 22.09Z"/><path fill="#222" d="M97.80 29.99L97.69 29.89L97.76 29.96Q95.14 29.74 93.81 30.96L93.83 30.97L93.92 31.06Q92.49 32.19 92.80 34.70L92.76 34.66L92.87 34.78Q93.21 37.32 94.42 38.57L94.26 38.41L94.24 38.39Q95.42 39.84 97.55 39.76L97.48 39.69L97.62 39.83Q98.06 39.70 98.25 39.70L98.30 39.75L98.35 39.79Q101.81 39.10 101.92 34.50L101.91 34.49L101.95 34.52Q101.98 32.12 101.30 31.32L101.43 31.45L101.24 31.27Q100.32 30.12 97.77 29.97ZM101.00 41.61L100.98 41.59L101.00 41.61Q99.71 42.22 98.15 42.15L98.07 42.06L98.19 42.19Q94.35 42.38 93.06 39.79L93.11 39.85L93.08 39.81Q92.77 45.02 91.43 49.29L91.54 49.39L91.49 49.35Q89.63 49.77 87.99 50.49L88.11 50.61L88.18 50.68Q90.67 44.64 90.40 37.67L90.28 37.55L90.29 37.56Q90.23 30.91 87.34 24.86L87.23 24.76L87.28 24.81Q89.17 25.94 90.89 26.40L90.83 26.34L91.39 27.85L91.42 27.88Q91.49 28.18 91.76 29.29L91.71 29.24L91.79 29.32Q92.79 27.23 96.37 27.04L96.41 27.09L96.28 26.96Q97.22 26.98 98.10 26.98L98.16 27.05L98.54 26.93L98.71 27.10Q98.80 27.08 98.99 27.12L98.89 27.01L99.16 26.98L99.15 26.97Q101.23 27.26 101.96 27.49L102.02 27.55L102.05 27.58Q103.57 28.07 104.44 29.03L104.35 28.94L104.37 28.95Q105.22 30.14 105.18 31.55L105.24 31.61L105.24 31.61Q105.27 34.50 104.47 37.16L104.37 37.06L104.32 37.01Q103.46 40.68 101.10 41.71ZM105.31 42.27L105.29 42.20L105.27 42.18Q106.49 40.33 106.80 36.21L106.60 36.02L106.69 36.10Q106.77 34.28 106.77 33.03L106.77 33.02L106.93 33.18Q106.85 31.59 106.09 30.18L106.18 30.27L106.10 30.19Q105.64 29.69 105.15 29.31L105.17 29.34L105.05 29.10L104.81 28.74L104.72 28.54L104.85 28.67Q103.17 26.68 98.83 26.68L98.69 26.54L98.18 26.65L98.22 26.68Q93.42 26.53 91.79 28.13L91.92 28.27L91.85 28.20Q91.72 27.72 91.57 27.23L91.49 27.15L91.20 26.06L91.20 26.06Q88.81 25.53 86.60 24.05L86.55 24.00L86.46 23.91Q89.74 30.23 90.04 37.47L90.15 37.57L90.20 37.62Q90.40 44.79 87.54 51.26L87.58 51.30L89.55 50.42L89.58 50.45Q89.26 51.11 88.57 52.67L88.49 52.59L88.59 52.69Q91.28 51.60 93.60 51.26L93.68 51.35L93.59 51.26Q94.67 46.39 94.82 42.66L94.77 42.61L94.79 42.63Q96.34 44.26 99.96 44.49L99.83 44.36L99.98 44.51Q103.83 44.67 105.28 42.23L105.31 42.26ZM99.53 32.07L99.72 32.25L99.56 32.10Q100.29 32.10 101.39 32.45L101.39 32.44L101.38 32.43Q101.66 33.44 101.62 34.62L101.57 34.56L101.57 34.56Q101.61 35.52 101.42 36.16L101.44 36.19L101.49 36.24Q100.78 39.15 98.27 39.45L98.12 39.30L98.32 39.38L98.37 39.44Q98.29 39.43 98.18 39.47L98.14 39.43L97.63 39.46L97.66 39.49Q96.41 39.42 95.42 38.93L95.31 38.81L95.05 36.84L95.04 36.83Q94.90 34.52 96.20 33.50L96.16 33.46L96.15 33.45Q97.17 32.37 99.56 32.10Z"/><path fill="#222" d="M56.59 34.71L56.51 34.63L56.49 34.61Q56.50 38.20 53.34 39.49L53.36 39.52L53.33 39.49Q51.43 40.29 47.01 40.44L47.09 40.52L47.06 40.49Q42.24 40.58 39.99 39.40L39.97 39.38L40.06 39.46Q38.14 38.07 38.29 34.72L38.47 34.90L38.29 34.73Q38.44 34.22 38.63 32.24L38.54 32.15L38.55 32.17Q38.74 30.65 38.74 29.66L38.67 29.58L38.77 29.69Q38.76 21.68 34.57 14.26L34.52 14.21L34.49 14.18Q35.69 14.88 38.66 15.95L38.74 16.02L38.56 15.84Q41.46 22.59 41.46 29.98L41.63 30.15L41.62 30.14Q41.63 30.75 41.53 31.93L41.49 31.89L41.37 31.77Q41.39 33.07 41.39 33.68L41.31 33.59L41.33 33.61Q41.40 35.96 42.96 36.95L42.94 36.93L42.89 36.89Q44.65 37.81 47.62 37.81L47.50 37.69L47.44 37.63Q50.07 37.63 51.71 36.45L51.87 36.61L51.80 36.54Q53.63 35.18 53.48 32.67L53.60 32.79L53.58 32.77Q53.30 31.19 53.30 29.86L53.35 29.92L53.48 30.04Q53.40 22.92 55.80 16.41L55.83 16.44L57.99 15.86L58.04 15.91Q59.04 15.65 60.14 15.19L60.11 15.16L60.08 15.13Q56.33 22.23 56.33 29.80L56.28 29.76L56.37 29.85Q56.29 30.60 56.42 32.24L56.35 32.17L56.49 32.31Q56.68 34.00 56.68 34.80ZM58.64 35.51L58.81 35.68L58.72 35.59Q57.88 30.67 58.60 25.57L58.50 25.47L58.64 25.61Q59.27 20.30 61.67 15.92L61.78 16.03L61.77 16.02Q61.14 16.30 59.69 16.95L59.72 16.98L59.60 16.86Q59.93 15.97 60.73 14.41L60.85 14.53L60.90 14.58Q57.27 15.63 55.36 15.98L55.49 16.10L55.47 16.08Q53.02 22.50 53.02 29.78L53.09 29.84L53.17 29.92Q53.00 31.12 53.07 32.53L53.20 32.66L53.24 32.70Q53.26 34.96 51.47 36.18L51.48 36.19L51.50 36.21Q50.07 37.33 47.56 37.36L47.44 37.25L47.49 37.30Q44.70 37.32 43.25 36.56L43.35 36.66L43.30 36.61Q43.17 36.06 43.09 35.60L43.16 35.68L43.24 35.75Q43.05 35.10 43.16 34.61L43.30 34.75L43.15 34.60Q43.41 32.30 43.41 29.98L43.46 30.03L43.52 30.09Q43.42 24.17 41.89 18.27L41.88 18.25L41.94 18.31Q41.25 18.23 39.84 17.89L39.78 17.83L39.70 17.75Q39.30 16.43 38.84 15.51L38.99 15.66L38.82 15.50Q36.28 14.89 33.88 13.52L33.91 13.56L33.81 13.46Q38.45 21.07 38.45 29.79L38.34 29.67L38.34 29.68Q38.42 31.39 38.27 33.10L38.23 33.06L38.21 33.04Q38.12 35.58 38.19 36.76L38.22 36.79L38.05 36.61Q38.33 38.69 39.59 39.83L39.61 39.85L39.57 39.82Q40.59 42.31 45.23 42.69L45.19 42.65L45.18 42.64Q47.24 42.76 49.37 42.83L49.41 42.88L49.31 42.78Q54.83 43.12 57.61 42.17L57.60 42.15L57.46 42.02Q59.07 41.16 59.07 39.10L59.14 39.17L59.10 39.13Q59.18 38.06 58.72 35.59Z"/><path fill="#222" d="M25.49 27.08L25.49 27.08L25.49 27.08Q26.40 27.19 27.81 27.04L27.71 26.94L27.75 26.98Q27.70 27.61 27.70 28.26L27.84 28.40L27.82 29.64L27.71 29.52Q26.96 29.62 26.13 29.70L26.10 29.67L26.07 29.64Q25.21 29.66 24.37 29.62L24.50 29.74L24.41 29.65Q21.64 35.91 18.21 40.51L18.09 40.39L18.17 40.47Q15.63 41.09 14.33 41.69L14.36 41.72L14.23 41.59Q18.35 35.89 21.39 29.61L21.40 29.61L18.86 29.70L18.77 29.61Q18.93 28.44 18.82 27.11L18.70 26.99L18.78 27.07Q20.58 27.11 22.63 27.11L22.77 27.26L24.67 23.56L24.64 23.53Q25.51 21.50 26.73 19.90L26.83 20.00L26.81 19.99Q25.29 20.18 23.69 20.18L23.54 20.03L23.60 20.09Q17.56 20.13 13.79 17.93L13.83 17.97L13.07 16.14L13.09 16.16Q12.71 15.29 12.33 14.41L12.32 14.41L12.32 14.41Q16.77 17.15 22.48 17.37L22.54 17.43L22.41 17.30Q27.60 17.58 32.74 15.60L32.73 15.59L32.77 15.63Q32.62 16.09 32.13 16.96L32.09 16.93L31.99 16.83Q28.39 21.60 25.54 27.12ZM33.60 18.21L33.67 18.28L34.67 16.28L34.69 16.30Q33.59 16.64 31.92 17.37L31.97 17.41L32.14 17.09L32.18 17.13Q32.23 16.91 32.34 16.80L32.49 16.95L32.41 16.86Q32.73 16.12 33.45 14.79L33.45 14.78L33.63 14.96Q28.26 17.21 22.51 16.98L22.54 17.01L22.37 16.84Q16.52 16.74 11.76 13.77L11.78 13.79L11.65 13.66Q12.68 15.52 13.51 18.19L13.55 18.22L13.49 18.16Q14.58 18.80 15.38 19.10L15.41 19.13L15.39 19.11Q15.52 19.43 15.98 21.30L16.12 21.44L16.13 21.45Q19.16 22.58 24.68 22.42L24.72 22.47L24.75 22.50Q24.37 22.99 22.39 26.75L22.51 26.88L22.41 26.78Q20.33 26.75 18.35 26.56L18.51 26.72L18.41 26.62Q18.48 27.45 18.48 28.33L18.41 28.26L18.55 30.11L20.11 30.00L20.25 31.55L20.26 31.56Q16.25 38.85 13.47 42.43L13.47 42.43L13.48 42.44Q15.03 41.63 16.66 41.13L16.63 41.10L16.72 41.19Q16.06 42.13 14.69 43.84L14.60 43.75L14.69 43.85Q17.85 42.74 20.29 42.51L20.19 42.41L20.35 42.57Q23.12 38.65 26.24 31.87L26.40 32.02L29.79 32.18L29.68 32.07Q29.64 31.19 29.64 30.27L29.70 30.33L29.74 28.59L29.58 28.43Q29.33 28.45 28.78 28.49L28.79 28.50L28.85 28.56Q28.23 28.53 27.97 28.53L27.96 28.52L28.10 28.66Q28.02 28.47 28.06 28.31L28.04 28.30L27.98 27.97L27.96 27.95Q30.51 22.85 33.59 18.21Z"/><path fill="#111" d="M126.10 40.86L126.17 40.93L126.20 40.96Q124.94 39.32 123.65 36.24L123.63 36.22L121.56 31.15L121.50 31.09Q119.79 34.98 119.18 36.27L119.21 36.30L119.22 36.30Q117.78 39.24 116.18 41.15L116.17 41.14L116.30 41.27Q115.75 41.09 114.99 41.21L115.10 41.32L115.11 41.33Q115.05 33.85 109.23 27.91L109.30 27.98L109.28 27.96Q107.46 26.07 105.44 24.58L105.52 24.66L105.55 24.69Q107.41 25.26 109.28 25.56L109.13 25.41L109.24 25.53Q115.22 30.40 116.66 36.64L116.64 36.62L116.71 36.69Q117.68 34.92 118.86 31.72L118.72 31.58L118.80 31.66Q120.06 27.82 120.64 26.53L120.74 26.64L122.13 26.61L122.21 26.69Q123.08 28.40 124.26 31.67L124.16 31.57L124.16 31.58Q125.53 35.26 126.17 36.67L126.18 36.68L126.09 36.59Q128.01 30.40 133.49 25.83L133.34 25.68L133.36 25.70Q134.66 25.71 137.40 25.14L137.30 25.04L137.45 25.18Q128.66 31.05 127.48 41.02L127.50 41.05L126.84 40.92L126.93 41.01Q126.59 40.97 126.24 41.01ZM129.25 43.48L131.30 43.66L131.21 43.58Q130.81 41.96 130.81 40.43L130.93 40.56L130.90 40.52Q130.98 37.37 132.39 34.14L132.38 34.13L132.41 34.15Q134.20 29.43 138.31 26.35L138.31 26.35L138.48 26.52Q137.18 26.70 135.31 27.04L135.36 27.09L135.41 27.14Q137.29 25.40 138.58 24.49L138.66 24.57L136.06 24.94L136.10 24.98Q134.93 25.25 133.60 25.40L133.48 25.29L133.57 25.37Q128.34 29.55 126.40 34.57L126.51 34.69L126.47 34.65Q125.72 32.37 124.35 28.11L124.48 28.24L124.39 28.15Q124.16 28.27 123.90 28.27L123.88 28.25L123.24 28.14L123.31 28.21Q123.19 27.90 122.39 26.15L122.45 26.21L120.31 26.13L120.27 26.09Q119.32 28.91 117.23 34.54L117.37 34.68L117.30 34.61Q116.00 30.95 112.92 27.68L112.88 27.64L112.80 27.56Q112.51 27.54 112.21 27.51L112.36 27.65L111.63 27.39L111.64 27.39Q110.89 26.68 109.10 25.08L109.04 25.02L109.05 25.03Q105.98 24.47 104.30 23.98L104.19 23.86L104.32 24.00Q115.01 31.41 114.63 41.73L114.70 41.80L114.54 41.63Q114.83 41.74 115.19 41.70L115.24 41.75L115.09 41.60Q115.47 41.58 115.66 41.58L115.79 41.70L115.78 41.70Q115.68 41.45 115.87 43.54L115.99 43.66L117.77 43.35L117.93 43.50Q120.36 40.53 122.61 34.78L122.65 34.82L122.62 34.79Q124.16 38.69 126.03 41.36L126.10 41.43L126.10 41.44Q126.31 41.30 126.58 41.32L126.52 41.27L126.55 41.30Q126.95 41.45 127.22 41.45L127.16 41.39L129.16 43.39Z"/></svg>