<svg xmlns="http://www.w3.org/2000/svg" width="150" height="50" viewBox="0,0,150,50"><path fill="#333" d="M39.77 41.16L39.81 41.19L39.70 41.09Q42.85 36.81 49.55 28.89L49.55 28.89L49.63 28.97Q43.65 29.12 39.88 27.75L39.88 27.75L39.94 27.80Q39.29 26.40 38.53 24.99L38.40 24.86L38.44 24.90Q42.66 26.53 47.12 26.57L46.96 26.41L47.12 26.58Q51.40 26.44 55.59 25.37L55.65 25.43L55.76 25.54Q55.24 26.09 54.98 26.63L55.01 26.66L55.08 26.73Q52.56 28.97 49.74 32.58L49.58 32.42L44.68 38.64L44.72 38.68Q46.99 38.51 49.24 38.59L49.16 38.51L49.32 38.67Q51.47 38.69 53.72 39.07L53.61 38.97L53.59 38.94Q53.86 39.67 54.59 41.69L54.55 41.66L54.49 41.59Q50.77 40.77 46.77 40.88L46.89 41.01L46.89 41.00Q42.77 40.96 39.12 42.14L39.18 42.20L39.26 42.28Q39.34 42.13 39.80 41.18ZM38.58 42.78L38.59 42.79L38.61 42.81Q39.43 42.52 41.03 42.10L40.96 42.04L40.92 42.00Q40.68 42.21 40.26 42.63L40.33 42.70L40.28 42.65Q40.02 43.19 39.41 44.33L39.55 44.47L39.58 44.50Q44.29 43.16 49.28 43.31L49.27 43.31L49.14 43.17Q54.16 43.40 58.73 45.27L58.78 45.31L58.65 45.19Q57.25 43.37 56.34 41.32L56.45 41.42L56.40 41.38Q55.65 41.08 54.59 40.85L54.45 40.72L54.63 40.90Q54.36 40.09 53.98 38.65L54.00 38.67L54.00 38.67Q52.42 38.31 48.84 38.19L48.78 38.14L48.90 38.25Q51.17 34.81 56.20 28.46L56.18 28.44L56.28 28.54Q56.42 27.69 57.11 26.36L57.23 26.48L54.99 27.28L54.83 27.13Q55.03 27.18 55.18 27.06L55.14 27.02L55.24 26.74L55.31 26.81Q55.86 25.83 56.43 24.88L56.39 24.84L56.33 24.78Q51.72 26.19 47.00 26.11L47.06 26.18L47.03 26.14Q42.17 26.00 37.68 24.18L37.67 24.17L37.78 24.28Q38.96 26.14 39.76 28.19L39.68 28.12L39.75 28.19Q40.44 28.34 41.50 28.61L41.53 28.64L41.67 28.78Q41.72 29.32 42.02 30.76L42.18 30.92L42.02 30.77Q43.69 31.10 47.00 31.25L47.05 31.30L46.94 31.19Q44.53 34.49 39.35 40.92L39.32 40.90L39.37 40.94Q39.25 41.66 38.68 42.88Z"/><path fill="#222" d="M127.10 28.75L127.04 28.69L121.19 28.81L121.08 28.71Q118.16 28.75 115.22 28.67L115.20 28.65L115.37 28.82Q115.35 35.39 113.30 40.91L113.35 40.96L113.33 40.94Q111.57 41.50 109.82 42.19L109.68 42.05L109.81 42.18Q112.61 36.49 112.61 29.83L112.55 29.76L112.53 29.75Q112.51 21.24 108.40 14.20L108.34 14.14L108.36 14.16Q109.96 15.04 112.44 15.84L112.46 15.86L112.37 15.77Q114.57 20.90 115.11 25.78L115.12 25.79L115.12 25.79Q118.23 26.12 121.09 26.08L121.07 26.07L121.23 26.23Q123.74 26.07 127.05 25.81L127.12 25.87L127.15 25.90Q127.60 21.49 129.36 16.39L129.35 16.38L129.42 16.45Q131.20 15.87 133.45 15.04L133.59 15.18L133.50 15.09Q129.86 21.80 129.86 29.76L129.98 29.87L129.88 29.77Q129.83 35.93 132.19 41.26L132.22 41.29L132.32 41.39Q130.73 40.80 128.68 40.49L128.63 40.45L128.61 40.42Q126.86 35.32 126.97 28.62ZM128.32 40.74L128.42 40.85L128.38 40.81Q129.40 40.94 130.50 41.21L130.56 41.27L130.46 41.17Q130.85 41.94 131.50 43.43L131.41 43.34L131.51 43.43Q134.89 44.42 136.68 45.33L136.64 45.29L136.56 45.21Q132.07 39.01 131.77 30.75L131.81 30.79L131.85 30.83Q131.53 22.79 135.19 15.97L135.17 15.96L134.08 16.39L134.14 16.45Q133.59 16.63 132.99 16.78L132.94 16.73L133.03 16.82Q133.49 16.07 134.33 14.51L134.33 14.50L134.26 14.44Q131.56 15.43 128.93 15.92L128.99 15.98L128.91 15.90Q127.33 20.83 126.87 25.51L126.85 25.49L126.93 25.57Q124.42 25.77 121.99 25.77L122.04 25.82L121.89 25.67Q119.49 25.67 116.98 25.51L116.95 25.49L116.98 25.52Q116.84 22.33 115.73 18.26L115.75 18.27L115.66 18.18Q115.00 18.09 113.55 17.71L113.65 17.81L113.51 17.67Q113.19 16.51 112.73 15.48L112.74 15.49L112.67 15.42Q110.00 14.73 107.72 13.48L107.77 13.53L107.71 13.47Q112.25 20.87 112.25 29.66L112.36 29.77L112.34 29.74Q112.26 36.63 109.14 42.76L109.11 42.74L109.06 42.68Q109.88 42.51 111.21 41.94L111.23 41.97L111.19 41.93Q110.90 42.81 110.10 44.34L110.13 44.36L110.14 44.37Q112.84 43.27 115.09 42.85L115.13 42.89L115.09 42.85Q116.97 37.31 117.16 31.14L117.24 31.22L117.17 31.15Q118.71 31.02 121.91 30.98L122.08 31.15L121.98 31.05Q124.84 31.02 126.75 31.10L126.77 31.13L126.69 31.04Q127.07 36.91 128.41 40.83Z"/><path fill="#333" d="M20.89 28.57L20.92 28.60L20.98 28.66Q18.12 28.62 17.36 30.87L17.45 30.96L17.35 30.86Q17.14 31.60 17.03 32.25L16.92 32.14L17.05 32.27Q19.57 32.39 21.20 32.39L21.24 32.42L21.24 32.42Q22.91 32.46 25.50 32.34L25.52 32.37L25.47 32.32Q25.33 30.57 23.92 29.50L24.03 29.61L23.90 29.49Q22.63 28.52 20.84 28.52ZM21.00 41.17L21.04 41.20L21.05 41.21Q16.78 41.17 15.48 39.76L15.47 39.75L15.47 39.75Q14.60 38.39 14.45 35.11L14.45 35.11L14.45 35.11Q14.35 34.78 14.27 33.41L14.39 33.53L14.26 33.40Q14.12 31.09 14.12 30.37L14.25 30.50L14.09 30.33Q14.10 28.48 14.82 27.38L14.83 27.38L14.83 27.39Q16.22 25.96 19.19 25.96L19.26 26.03L20.82 26.02L20.89 26.10Q22.91 26.06 24.43 26.37L24.44 26.37L24.42 26.35Q26.53 26.87 27.52 28.09L27.35 27.91L27.37 27.94Q28.03 29.04 28.10 31.14L28.09 31.13L28.10 31.13Q28.08 32.26 28.12 34.43L28.13 34.44L28.14 34.45Q25.38 34.58 22.60 34.58L22.53 34.51L16.93 34.51L16.84 34.42Q17.18 39.02 21.25 38.79L21.10 38.64L21.09 38.63Q24.89 38.47 26.10 36.64L26.19 36.72L26.24 36.78Q27.12 37.31 28.72 38.49L28.62 38.39L28.61 38.39Q27.33 40.88 23.19 41.14L23.08 41.04L23.20 41.16Q22.38 41.10 21.01 41.17ZM23.24 43.44L23.42 43.62L23.32 43.53Q24.31 43.37 25.52 43.44L25.64 43.57L25.57 43.49Q30.66 43.78 31.57 41.00L31.48 40.91L31.61 41.04Q29.85 39.66 28.74 38.90L28.81 38.96L28.76 38.91Q28.97 38.55 29.16 38.33L29.08 38.24L29.10 38.27Q28.39 37.82 27.02 36.87L27.00 36.85L27.05 36.90Q28.17 36.99 30.22 37.29L30.18 37.25L30.26 37.33Q29.98 35.87 29.90 35.18L29.98 35.27L29.85 33.35L29.76 33.26Q29.57 30.85 28.92 29.37L29.04 29.49L29.02 29.47Q28.64 29.02 28.07 28.41L28.19 28.52L28.15 28.49Q28.04 28.22 27.81 27.65L27.85 27.69L27.82 27.65Q25.82 25.50 20.75 25.50L20.87 25.62L19.22 25.64L19.20 25.63Q15.93 25.59 14.48 27.08L14.39 26.99L14.54 27.13Q13.80 28.18 13.84 30.23L13.74 30.14L13.77 30.17Q13.87 31.18 13.98 33.43L14.01 33.46L14.07 33.52Q14.09 35.06 14.20 37.11L14.15 37.06L14.13 37.04Q14.38 39.27 15.26 40.34L15.29 40.37L15.40 40.48Q15.58 40.66 15.77 40.78L15.72 40.72L16.05 41.40L15.95 41.30Q16.81 43.22 23.39 43.60ZM21.21 38.33L21.23 38.35L21.20 38.32Q19.93 38.31 19.02 37.86L19.08 37.92L19.11 37.94Q19.07 37.57 18.88 36.88L18.79 36.79L18.80 36.80Q20.51 36.72 22.11 36.72L22.11 36.72L22.24 36.85Q23.78 36.72 25.46 36.83L25.43 36.81L25.54 36.91Q24.13 38.13 21.13 38.25ZM22.87 31.01L22.92 31.06L22.77 30.91Q23.44 30.97 24.77 31.35L24.87 31.45L24.95 31.71L24.95 31.91L25.05 32.01Q23.71 32.16 22.80 32.12L22.81 32.12L22.69 32.01Q20.47 32.03 20.43 32.03L20.39 32.00L20.34 31.94Q21.07 31.00 22.74 30.88Z"/><path fill="#444" d="M81.30 34.76L81.33 34.78L81.25 34.70Q81.26 38.29 78.10 39.59L78.13 39.62L78.04 39.53Q76.24 40.43 71.82 40.58L71.75 40.51L71.80 40.55Q66.94 40.61 64.69 39.43L64.78 39.52L64.73 39.46Q62.97 38.24 63.12 34.89L63.01 34.78L62.97 34.73Q63.06 34.18 63.25 32.20L63.19 32.14L63.34 32.29Q63.37 30.61 63.37 29.62L63.37 29.62L63.48 29.72Q63.41 21.66 59.22 14.24L59.19 14.21L59.14 14.15Q60.39 14.91 63.36 15.97L63.27 15.89L63.38 15.99Q66.29 22.75 66.29 30.14L66.27 30.12L66.17 30.02Q66.13 30.59 66.04 31.77L66.11 31.84L66.20 31.93Q66.04 33.05 66.04 33.66L66.12 33.74L66.05 33.66Q66.07 35.97 67.63 36.96L67.57 36.90L67.56 36.89Q69.15 37.64 72.12 37.64L72.26 37.79L72.23 37.75Q74.76 37.66 76.40 36.48L76.42 36.50L76.44 36.52Q78.40 35.28 78.25 32.77L78.08 32.60L78.20 32.72Q78.03 31.25 78.03 29.92L78.09 29.98L78.08 29.98Q78.13 22.99 80.53 16.48L80.40 16.34L82.55 15.75L82.66 15.86Q83.55 15.50 84.66 15.04L84.64 15.02L84.67 15.05Q80.94 22.18 80.94 29.76L80.92 29.73L81.02 29.83Q81.00 30.65 81.14 32.29L81.21 32.36L81.16 32.31Q81.21 33.86 81.21 34.66ZM83.30 35.49L83.30 35.50L83.44 35.64Q82.48 30.60 83.20 25.50L83.29 25.59L83.30 25.60Q84.00 20.36 86.40 15.98L86.46 16.05L86.39 15.98Q85.73 16.23 84.28 16.88L84.35 16.94L84.30 16.89Q84.59 15.97 85.39 14.41L85.54 14.56L85.50 14.51Q81.96 15.65 80.05 16.00L80.15 16.10L80.16 16.10Q77.67 22.48 77.67 29.75L77.74 29.82L77.68 29.76Q77.69 31.15 77.77 32.56L77.89 32.67L77.87 32.66Q78.02 35.05 76.23 36.27L76.09 36.13L76.20 36.24Q74.74 37.33 72.22 37.37L72.14 37.28L72.15 37.29Q69.32 37.28 67.87 36.52L68.02 36.66L67.92 36.57Q67.96 36.19 67.88 35.73L67.89 35.74L67.82 35.67Q67.85 35.24 67.96 34.74L67.88 34.66L67.99 34.77Q68.20 32.43 68.20 30.10L68.12 30.03L68.04 29.95Q68.20 24.28 66.68 18.38L66.63 18.33L66.52 18.22Q65.93 18.25 64.53 17.91L64.52 17.90L64.45 17.83Q63.98 16.45 63.53 15.53L63.67 15.68L63.68 15.69Q60.96 14.91 58.56 13.54L58.58 13.56L58.40 13.38Q63.11 21.05 63.11 29.77L63.02 29.68L63.13 29.80Q63.19 31.49 63.04 33.20L63.00 33.17L62.92 33.09Q62.67 35.47 62.75 36.65L62.88 36.78L62.77 36.67Q62.92 38.60 64.17 39.75L64.10 39.68L64.28 39.86Q65.26 42.32 69.91 42.70L69.84 42.64L69.74 42.53Q72.01 42.87 74.14 42.94L73.96 42.76L74.05 42.85Q79.51 43.13 82.29 42.18L82.24 42.13L82.14 42.03Q83.89 41.31 83.89 39.25L83.75 39.11L83.77 39.13Q83.88 38.10 83.43 35.63Z"/><path fill="#333" d="M94.93 28.95L94.89 28.91L94.91 28.93Q92.33 28.90 91.30 30.08L91.38 30.17L91.35 30.13Q90.35 31.34 90.35 33.96L90.26 33.88L90.22 33.84Q90.36 39.07 94.96 38.88L94.82 38.75L94.91 38.84Q96.91 38.92 98.26 37.36L98.28 37.39L98.41 37.51Q99.70 35.89 99.47 33.84L99.56 33.93L99.54 33.91Q99.55 31.37 98.68 30.34L98.66 30.33L98.64 30.31Q97.06 28.88 94.86 28.88ZM99.88 38.66L99.88 38.66L99.91 38.69Q98.70 41.14 94.02 41.14L93.99 41.11L92.61 41.17L92.63 41.19Q90.16 41.09 89.06 39.94L89.21 40.10L89.18 40.07Q88.07 38.96 87.81 36.56L87.77 36.53L87.77 36.52Q87.68 35.11 87.61 33.32L87.59 33.30L87.70 33.41Q87.55 32.31 87.39 30.36L87.45 30.42L87.40 30.37Q87.28 26.06 92.45 26.06L92.43 26.03L94.07 26.12L93.99 26.03Q96.91 26.07 99.01 27.36L99.06 27.41L99.01 27.36Q99.86 27.91 100.35 28.59L100.25 28.49L100.38 28.62Q100.61 27.78 101.15 26.15L101.14 26.14L101.14 26.14Q102.38 25.97 104.70 25.36L104.73 25.39L104.64 25.30Q102.16 29.64 102.16 34.89L102.01 34.74L102.11 34.84Q102.07 38.53 103.44 41.61L103.42 41.59L103.56 41.73Q102.34 41.35 100.43 41.12L100.39 41.08L100.47 41.15Q100.23 40.26 99.92 38.70ZM103.16 43.84L103.33 44.01L105.54 44.59L105.39 44.44Q106.76 44.89 107.75 45.35L107.61 45.21L107.68 45.28Q103.98 40.89 103.98 34.80L103.90 34.72L104.04 34.87Q103.96 30.26 106.09 26.45L106.15 26.51L106.20 26.56Q105.51 26.75 104.18 27.13L104.13 27.08L104.10 27.04Q104.49 26.33 105.36 24.81L105.41 24.85L105.36 24.80Q104.75 24.95 100.75 25.79L100.84 25.88L100.24 27.68L100.13 27.56Q98.47 25.94 94.05 25.71L94.10 25.76L94.03 25.70Q92.98 25.79 90.74 25.94L90.60 25.80L90.76 25.97Q86.99 26.23 87.10 30.26L87.01 30.17L87.05 30.21Q87.15 33.51 87.72 37.96L87.79 38.03L87.74 38.40L87.85 38.51Q87.97 39.35 88.77 40.46L88.72 40.41L88.71 40.39Q88.79 40.48 88.98 40.59L89.11 40.72L89.11 40.72Q89.31 41.15 89.69 41.72L89.80 41.83L89.80 41.83Q91.15 43.30 94.54 43.49L94.55 43.50L94.54 43.48Q96.17 43.60 96.32 43.60L96.30 43.57L97.87 43.58L97.90 43.61Q101.00 43.51 102.22 41.95L102.29 42.02L102.33 42.07Q102.65 42.65 103.26 43.95ZM96.77 31.25L96.74 31.22L96.59 31.07Q98.12 31.26 98.95 31.72L98.88 31.65L98.84 31.60Q99.09 32.36 99.09 33.80L99.15 33.85L99.08 33.79Q99.44 35.86 98.17 37.29L97.98 37.11L98.14 37.27Q96.87 38.70 94.97 38.51L94.98 38.52L94.98 38.52Q93.48 38.47 92.45 38.05L92.37 37.96L92.39 37.99Q92.20 37.15 92.20 35.93L92.18 35.91L92.31 36.04Q92.28 32.36 94.91 31.40L95.07 31.56L95.07 31.57Q95.87 31.15 96.67 31.15Z"/></svg>