<svg xmlns="http://www.w3.org/2000/svg" width="150" height="50" viewBox="0,0,150,50"><path fill="#111" d="M120.64 40.28L120.63 40.27L118.08 33.26L118.25 33.43Q113.85 20.81 107.91 14.41L107.79 14.30L107.80 14.30Q109.80 15.35 112.39 15.96L112.54 16.11L112.46 16.03Q117.59 22.30 121.93 35.05L121.91 35.04L121.83 34.95Q124.93 26.90 125.62 25.30L125.64 25.33L125.70 25.38Q128.05 19.75 130.87 16.43L130.87 16.43L130.94 16.50Q132.87 16.00 135.50 15.12L135.55 15.18L135.65 15.27Q131.07 19.87 128.03 27.10L128.02 27.10L128.01 27.08Q126.48 30.62 122.79 40.14L122.75 40.10L122.79 40.14Q122.31 40.24 121.74 40.20L121.74 40.19L121.70 40.15Q121.07 40.09 120.50 40.13ZM125.61 42.65L125.68 42.72L125.53 42.57Q128.44 32.69 130.00 28.66L129.86 28.52L129.88 28.54Q132.91 20.87 137.32 16.00L137.33 16.00L137.35 16.03Q136.35 16.43 134.25 17.15L134.28 17.18L135.41 15.83L135.44 15.86Q135.97 15.14 136.58 14.49L136.62 14.53L136.51 14.42Q133.64 15.36 130.64 15.93L130.74 16.03L130.63 15.93Q126.41 21.41 122.53 32.87L122.40 32.75L122.55 32.89Q118.73 22.60 115.53 18.23L115.70 18.39L115.65 18.35Q115.21 18.21 114.34 18.06L114.42 18.14L114.39 18.11Q114.12 17.69 112.52 15.63L112.51 15.63L112.57 15.68Q109.62 14.98 106.92 13.57L106.81 13.46L106.84 13.49Q113.38 20.49 117.76 33.28L117.88 33.40L117.85 33.38Q119.13 37.09 120.31 40.67L120.20 40.56L120.27 40.63Q120.55 40.61 121.39 40.49L121.40 40.50L121.43 40.54Q121.76 41.21 122.45 42.54L122.52 42.62L122.43 42.52Q123.40 42.58 124.12 42.65L123.97 42.50L124.08 42.61Q124.77 42.57 125.53 42.57Z"/><path fill="#111" d="M30.53 30.41L30.37 30.25L30.44 30.32Q30.63 30.02 30.60 29.60L30.53 29.53L30.58 29.58Q30.38 29.07 30.07 28.88L30.06 28.87L30.10 28.91Q29.33 28.29 28.45 28.45L28.52 28.52L28.54 28.53Q27.46 28.52 25.82 29.62L25.87 29.66L25.76 29.56Q24.38 30.50 24.38 31.68L24.38 31.68L24.43 31.73Q24.48 33.04 24.48 36.35L24.45 36.32L24.38 36.25Q24.31 38.77 24.46 40.79L24.52 40.84L24.63 40.95Q22.76 40.79 22.76 40.79L22.89 40.93L22.80 40.83Q21.80 40.79 21.08 40.86L21.08 40.86L21.14 40.93Q21.56 38.42 21.64 36.17L21.56 36.09L21.56 36.10Q21.85 31.59 21.21 30.30L21.18 30.27L21.21 30.30Q20.84 29.62 20.26 29.32L20.38 29.43L20.28 29.33Q19.50 28.66 17.94 28.55L17.82 28.43L17.79 28.41Q15.80 28.20 15.27 29.80L15.41 29.94L15.38 29.92Q15.16 30.34 15.28 30.84L15.23 30.79L15.31 30.87Q15.98 33.64 15.64 36.42L15.60 36.38L15.60 36.38Q15.33 39.23 13.92 41.67L13.83 41.57L13.97 41.71Q12.96 41.88 10.86 42.30L10.88 42.32L10.78 42.22Q13.19 38.88 13.19 34.58L13.27 34.65L13.34 34.73Q13.22 28.74 9.18 24.52L9.25 24.58L9.26 24.60Q9.94 24.81 10.89 25.04L10.88 25.03L12.62 25.44L12.61 25.43Q13.22 26.19 14.10 27.87L14.11 27.88L14.14 27.91Q14.10 25.82 16.54 25.78L16.65 25.89L16.60 25.84Q16.82 25.88 17.81 25.95L17.79 25.93L17.76 25.89Q22.73 26.18 23.87 29.00L23.86 28.99L24.04 29.17Q25.59 26.35 30.62 25.81L30.74 25.93L30.62 25.81Q31.41 25.73 32.28 25.84L32.37 25.93L32.29 25.85Q34.43 25.97 34.28 27.53L34.34 27.59L34.24 27.50Q34.28 28.26 34.01 29.02L33.98 28.98L34.08 29.08Q32.50 31.92 32.73 35.46L32.91 35.64L32.74 35.47Q32.95 38.96 34.86 41.78L34.88 41.80L34.96 41.88Q33.19 41.45 31.37 41.22L31.35 41.20L31.32 41.17Q30.22 38.74 30.03 35.96L30.01 35.94L29.97 35.90Q29.83 33.10 30.48 30.36ZM31.26 41.72L31.16 41.62L31.16 41.62Q31.94 41.75 33.27 41.94L33.21 41.88L33.22 41.89Q33.83 42.69 34.97 44.10L34.83 43.96L34.92 44.05Q37.80 44.57 39.90 45.22L39.86 45.18L39.87 45.19Q34.84 41.26 34.57 34.75L34.54 34.73L34.57 34.75Q34.61 32.78 35.22 30.87L35.16 30.81L35.10 30.75Q35.37 29.92 35.37 29.19L35.31 29.13L35.44 29.27Q35.35 28.26 34.74 27.69L34.83 27.78L34.69 27.60L34.82 27.73Q34.86 27.20 34.79 26.71L34.80 26.72L34.84 26.76Q34.61 26.11 34.15 25.84L34.20 25.89L34.13 25.82Q33.59 25.48 32.72 25.44L32.66 25.38L32.59 25.31Q29.82 25.29 27.16 26.24L27.13 26.20L27.05 26.12Q25.11 26.85 23.93 28.26L23.95 28.28L23.90 28.23Q22.38 25.80 17.55 25.45L17.59 25.50L17.59 25.50Q16.80 25.36 16.39 25.36L16.51 25.49L16.41 25.39Q14.49 25.52 13.88 26.78L13.75 26.64L13.80 26.69Q13.43 26.14 12.75 25.07L12.83 25.15L12.78 25.11Q10.27 24.54 8.29 23.89L8.39 23.99L8.37 23.97Q12.96 28.29 12.96 34.57L13.02 34.64L13.11 34.73Q13.08 39.42 10.23 42.88L10.24 42.90L10.12 42.77Q10.65 42.69 11.14 42.62L11.21 42.68L12.12 42.45L12.12 42.45Q11.32 43.40 10.22 44.62L10.25 44.66L10.22 44.63Q12.00 44.46 15.12 43.85L15.07 43.80L15.08 43.81Q17.75 39.70 17.75 34.79L17.66 34.70L17.79 34.83Q17.69 33.94 17.62 33.10L17.70 33.19L17.68 33.16Q17.57 32.37 18.56 31.57L18.60 31.61L18.52 31.57L18.45 31.50Q19.14 31.12 20.32 31.01L20.36 31.05L20.30 30.98Q20.71 30.98 21.02 30.98L21.10 31.07L21.22 31.37L21.22 31.38Q21.44 34.04 21.33 36.40L21.21 36.27L21.35 36.42Q21.12 38.59 20.63 41.25L20.77 41.39L20.57 41.19Q21.78 41.38 21.78 41.38L21.78 41.38L21.66 41.25Q23.11 41.26 22.77 41.26L22.75 41.25L22.83 41.32Q22.89 41.88 22.85 42.33L22.71 42.20L22.72 42.20Q22.78 42.76 22.78 43.25L22.77 43.24L25.21 43.21L25.12 43.12Q26.46 43.20 27.72 43.28L27.74 43.31L27.65 43.21Q26.17 39.56 26.36 33.62L26.39 33.66L26.33 33.59Q26.48 32.60 27.66 31.83L27.66 31.84L27.53 31.71Q28.46 30.93 29.72 30.74L29.80 30.82L30.13 30.85L30.11 30.82Q29.74 32.81 29.74 34.79L29.66 34.72L29.69 34.74Q29.74 38.56 31.26 41.72ZM25.76 30.21L25.77 29.98L25.79 30.35L25.71 30.15Z"/><path fill="#333" d="M98.26 32.22L88.95 22.16L88.97 22.18Q89.85 25.91 89.85 29.64L89.85 29.64L89.77 29.56Q89.80 35.57 87.74 41.13L87.74 41.12L87.73 41.11Q86.61 41.32 84.36 42.08L84.38 42.10L84.49 42.21Q87.19 36.30 87.19 29.60L87.24 29.66L87.18 29.60Q87.25 21.02 82.76 13.60L82.76 13.61L82.83 13.68Q83.23 13.81 83.91 14.22L83.85 14.16L83.79 14.10Q95.92 25.35 103.76 34.60L103.69 34.54L103.88 34.73Q103.53 32.25 103.53 29.81L103.55 29.83L103.39 29.67Q103.58 22.63 106.09 16.42L106.08 16.41L106.03 16.36Q108.37 15.84 109.97 15.16L109.99 15.18L109.98 15.16Q106.63 21.29 106.32 28.45L106.24 28.37L106.30 28.42Q106.03 35.80 108.99 41.97L108.88 41.86L109.04 42.02Q108.46 41.93 108.04 41.74L108.06 41.76L107.94 41.64Q103.38 37.69 98.16 32.13L98.12 32.09ZM111.59 45.13L111.50 45.04L111.63 45.18Q112.01 45.25 112.42 45.44L112.42 45.43L113.38 45.90L113.27 45.79Q108.09 38.82 108.09 29.45L108.24 29.60L108.26 29.63Q108.08 22.22 111.40 15.97L111.43 16.01L111.42 16.00Q110.76 16.22 109.36 16.83L109.33 16.80L109.42 16.89Q109.83 16.08 110.66 14.52L110.58 14.44L110.66 14.52Q108.17 15.37 105.73 15.95L105.76 15.97L105.82 16.03Q103.16 22.47 103.16 29.90L103.11 29.84L103.10 29.83Q103.16 31.76 103.35 33.74L103.39 33.78L103.35 33.74Q98.73 28.09 93.97 23.48L93.92 23.43L83.77 13.66L83.77 13.66Q83.18 13.34 81.96 12.77L82.10 12.91L81.92 12.72Q86.84 20.50 86.84 29.60L86.94 29.70L86.89 29.65Q86.80 36.68 83.72 42.70L83.85 42.83L83.72 42.70Q84.07 42.63 85.71 42.02L85.82 42.13L85.70 42.01Q85.50 42.92 84.67 44.40L84.68 44.42L84.54 44.28Q85.96 43.83 89.43 43.04L89.44 43.05L89.30 42.91Q91.75 36.90 91.75 29.71L91.78 29.74L91.72 29.68Q91.65 27.52 91.42 25.39L91.43 25.40L91.43 25.40Q103.02 38.32 111.62 45.17Z"/><path fill="#444" d="M70.06 39.96L70.06 39.96L69.99 39.90Q65.77 39.29 63.95 37.85L64.10 38.00L64.02 37.92Q62.20 36.48 61.79 33.48L61.67 33.37L61.72 33.41Q61.72 33.07 61.38 28.31L61.43 28.36L61.31 28.24Q61.53 27.24 61.45 25.99L61.34 25.88L61.41 25.94Q61.12 20.78 63.33 19.03L63.47 19.17L63.39 19.09Q66.06 17.00 73.83 16.32L73.84 16.33L73.83 16.33Q75.21 16.22 76.85 16.26L76.87 16.28L76.72 16.13Q76.82 16.23 79.79 16.23L79.69 16.13L79.84 16.27Q80.52 16.12 82.23 16.27L82.39 16.43L82.22 16.26Q81.74 17.23 80.72 20.31L80.83 20.43L80.77 20.37Q78.80 19.27 75.79 19.27L75.72 19.20L75.65 19.13Q75.03 19.27 74.23 19.34L74.22 19.34L74.10 19.22Q69.06 19.74 66.55 21.72L66.49 21.66L66.55 21.72Q64.56 23.34 64.40 26.69L64.36 26.65L64.33 26.62Q64.38 27.31 64.42 28.57L64.34 28.49L64.34 28.49Q64.56 33.43 66.96 35.52L66.92 35.49L66.96 35.53Q69.05 37.40 74.04 37.70L73.92 37.58L73.92 37.58Q77.13 37.82 80.14 36.03L80.23 36.12L80.19 36.08Q80.66 38.69 81.27 40.06L81.33 40.12L81.27 40.06Q79.20 40.34 77.56 40.30L77.57 40.31L77.65 40.39Q73.06 40.22 69.94 39.84ZM85.23 43.75L85.21 43.73L85.11 43.63Q83.28 40.58 82.60 38.00L82.64 38.04L82.65 38.04Q82.28 38.36 81.29 38.74L81.24 38.69L81.32 38.77Q80.83 37.82 80.64 36.98L80.71 37.06L80.32 35.34L80.43 35.44Q77.06 37.41 73.94 37.29L73.96 37.31L73.97 37.33Q69.64 37.06 67.31 35.31L67.28 35.28L67.27 35.27Q66.30 33.62 66.38 30.68L66.21 30.51L66.25 30.56Q66.46 26.12 68.93 23.99L68.88 23.94L68.97 24.03Q70.99 22.01 75.67 21.40L75.73 21.46L75.71 21.44Q76.48 21.30 77.21 21.30L77.25 21.34L77.32 21.41Q80.04 21.35 82.13 22.87L82.18 22.92L82.08 22.82Q82.68 20.79 83.90 17.56L83.77 17.43L83.78 17.44Q83.65 17.57 83.09 17.51L82.99 17.41L83.02 17.44Q82.45 17.37 82.18 17.37L82.18 17.36L82.11 17.30Q82.42 16.88 82.88 15.89L82.80 15.81L82.82 15.83Q82.67 15.91 80.18 15.83L80.10 15.75L80.07 15.72Q77.71 15.79 77.07 15.83L76.90 15.66L76.96 15.72Q66.45 16.06 62.99 18.65L62.94 18.60L63.06 18.72Q60.96 20.47 60.96 24.39L61.03 24.46L60.93 24.36Q60.98 25.51 61.09 28.22L61.04 28.16L61.13 28.25Q61.15 31.70 61.38 33.41L61.54 33.57L61.44 33.48Q61.88 36.66 63.48 38.18L63.42 38.11L63.46 38.16Q63.91 38.80 65.17 39.94L65.16 39.93L65.20 39.97Q68.50 41.79 73.76 42.55L73.63 42.43L73.73 42.53Q80.19 43.51 85.18 43.70Z"/><path fill="#444" d="M50.96 41.32L50.80 41.16L47.83 41.04L47.93 41.14Q45.57 41.08 44.78 40.96L44.71 40.89L44.66 40.85Q42.85 40.52 41.67 39.65L41.59 39.56L41.72 39.70Q40.41 38.27 40.18 34.92L40.10 34.84L40.12 34.86Q40.22 34.50 40.14 33.28L40.03 33.17L40.08 33.22Q40.14 32.86 40.06 31.75L40.05 31.74L39.98 31.67Q39.91 30.81 39.95 30.09L39.87 30.01L40.01 30.14Q40.25 28.25 41.27 27.49L41.14 27.36L41.19 27.40Q43.11 26.24 47.95 26.01L47.92 25.98L47.93 26.00Q50.03 25.96 50.82 25.96L50.78 25.92L50.79 25.92Q52.22 25.87 53.59 26.17L53.65 26.23L53.70 26.28Q53.08 27.49 52.55 29.32L52.53 29.30L52.60 29.37Q52.02 29.36 51.52 29.32L51.56 29.36L51.48 29.28Q51.35 29.23 50.82 29.11L50.79 29.09L49.86 28.87L49.94 28.96Q48.97 28.79 48.36 28.83L48.32 28.78L48.35 28.82Q43.45 28.71 42.84 31.53L42.86 31.54L42.94 31.63Q42.62 32.71 42.69 33.66L42.73 33.70L42.78 33.75Q42.93 36.33 44.16 37.42L44.15 37.40L44.15 37.41Q45.34 38.44 47.92 38.48L48.01 38.56L47.87 38.42Q49.43 38.53 50.15 38.23L50.13 38.20L51.18 37.73L51.16 37.71Q51.64 37.43 52.21 37.35L52.20 37.35L52.33 37.48Q52.52 39.22 52.90 40.52L52.83 40.45L52.96 40.58Q52.73 40.96 50.94 41.30ZM54.17 44.23L54.05 44.11L54.19 44.25Q54.50 44.21 55.34 44.29L55.26 44.21L55.29 44.24Q55.97 44.32 56.31 43.74L56.27 43.70L56.33 43.76Q55.18 41.73 54.68 39.64L54.60 39.56L54.65 39.60Q54.28 39.54 53.82 39.54L53.74 39.46L53.84 39.56Q53.35 39.48 52.96 39.67L53.10 39.81L53.07 39.78Q52.73 38.52 52.58 37.12L52.57 37.11L52.47 37.01Q52.00 37.07 50.79 37.64L50.60 37.46L50.71 37.57Q49.55 38.20 49.06 38.20L48.99 38.13L48.90 38.04Q48.60 38.24 47.99 38.20L47.92 38.13L47.98 38.18Q47.08 38.17 45.10 37.60L45.01 37.51L45.02 37.51Q44.61 36.72 44.64 35.58L44.82 35.75L44.82 35.75Q44.86 31.37 49.81 30.84L49.80 30.83L49.83 30.86Q50.60 30.95 51.97 31.29L51.90 31.22L51.87 31.19Q53.37 31.66 54.09 31.62L53.96 31.49L54.09 31.62Q54.41 29.28 55.10 27.45L55.10 27.46L55.11 27.46Q54.66 27.28 54.28 27.21L54.37 27.30L53.60 27.21L53.68 27.29Q53.84 26.76 54.22 25.89L54.12 25.79L54.12 25.78Q52.66 25.51 51.10 25.51L51.00 25.41L51.08 25.49Q48.66 25.47 44.28 25.85L44.23 25.80L44.30 25.87Q42.36 26.02 40.79 27.01L40.79 27.00L40.73 26.94Q39.53 27.92 39.53 29.82L39.68 29.96L39.55 29.83Q39.57 30.27 39.68 31.49L39.65 31.45L39.74 31.54Q39.79 32.55 39.76 33.16L39.83 33.24L39.77 33.18Q39.83 35.11 40.56 38.84L40.56 38.84L40.53 38.81Q40.93 39.66 41.42 40.16L41.45 40.19L41.53 40.26L41.68 40.38L41.57 40.27Q42.69 42.49 46.61 43.10L46.63 43.12L46.59 43.08Q49.79 43.61 52.45 43.88L52.36 43.79L52.39 43.82Q53.20 43.90 54.11 44.17Z"/></svg>