<svg xmlns="http://www.w3.org/2000/svg" width="150" height="50" viewBox="0,0,150,50"><path fill="#222" d="M27.50 40.93L27.45 40.88L27.62 41.05Q26.19 39.24 24.90 36.16L24.90 36.16L22.79 31.04L22.89 31.14Q21.14 34.99 20.53 36.28L20.51 36.26L20.66 36.41Q19.16 39.29 17.56 41.19L17.61 41.24L17.58 41.21Q17.25 41.26 16.49 41.38L16.38 41.27L16.41 41.30Q16.44 33.91 10.62 27.97L10.66 28.01L10.62 27.97Q8.78 26.06 6.77 24.57L6.88 24.69L6.80 24.61Q8.70 25.21 10.56 25.51L10.53 25.49L10.51 25.46Q16.68 30.53 18.13 36.77L18.04 36.68L18.09 36.73Q19.03 34.94 20.21 31.74L20.21 31.73L20.13 31.66Q21.52 27.94 22.09 26.65L22.10 26.66L23.53 26.68L23.39 26.54Q24.31 28.30 25.49 31.57L25.54 31.62L25.60 31.68Q26.85 35.26 27.50 36.67L27.40 36.57L27.35 36.52Q29.31 30.37 34.79 25.80L34.68 25.69L34.70 25.70Q35.93 25.64 38.67 25.07L38.76 25.16L38.70 25.10Q30.13 31.18 28.95 41.16L28.93 41.14L28.29 41.03L28.23 40.98Q27.90 40.94 27.55 40.98ZM30.44 43.33L32.58 43.61L32.63 43.66Q32.17 41.98 32.17 40.46L32.31 40.60L32.16 40.45Q32.18 37.23 33.58 33.99L33.64 34.05L33.61 34.02Q35.56 29.46 39.67 26.37L39.73 26.44L39.78 26.48Q38.44 26.63 36.58 26.98L36.60 27.00L36.59 26.98Q38.65 25.43 39.94 24.52L39.95 24.52L37.35 24.89L37.39 24.93Q36.20 25.19 34.87 25.34L34.87 25.35L34.79 25.26Q29.65 29.52 27.71 34.55L27.70 34.54L27.75 34.59Q27.03 32.35 25.66 28.08L25.72 28.14L25.74 28.17Q25.49 28.26 25.23 28.26L25.21 28.25L24.53 28.10L24.72 28.29Q24.54 27.92 23.74 26.17L23.78 26.20L21.68 26.16L21.65 26.13Q20.70 28.95 18.60 34.58L18.54 34.52L18.55 34.53Q17.36 30.98 14.28 27.71L14.17 27.60L14.22 27.65Q13.94 27.63 13.63 27.60L13.67 27.63L13.15 27.56L13.05 27.47Q12.25 26.71 10.46 25.11L10.48 25.13L10.45 25.09Q7.21 24.37 5.53 23.87L5.65 23.99L5.64 23.98Q16.25 31.32 15.87 41.64L16.01 41.77L16.01 41.78Q16.10 41.67 16.46 41.63L16.50 41.67L16.55 41.72Q16.90 41.67 17.09 41.67L17.12 41.70L17.11 41.70Q17.11 41.55 17.30 43.64L17.21 43.54L19.09 43.33L19.21 43.45Q21.84 40.68 24.09 34.93L24.10 34.94L24.06 34.90Q25.60 38.80 27.46 41.46L27.42 41.42L27.31 41.31Q27.63 41.29 27.90 41.31L27.99 41.40L28.01 41.42Q28.30 41.47 28.57 41.47L28.41 41.31L30.50 43.39Z"/><path fill="#333" d="M71.85 41.30L71.88 41.33L71.99 41.44Q68.99 41.48 67.73 40.95L67.69 40.90L67.75 40.97Q65.80 40.15 65.87 37.68L65.87 37.68L65.82 37.62Q66.16 34.42 66.16 34.99L66.13 34.97L66.05 34.88Q66.05 29.56 63.20 24.72L63.15 24.67L63.20 24.72Q65.28 25.78 67.26 26.16L67.14 26.04L67.16 26.06Q68.82 30.61 68.70 35.10L68.80 35.20L68.84 35.23Q68.53 36.56 69.36 37.78L69.40 37.82L69.49 37.90Q70.29 39.13 71.81 38.94L71.82 38.94L72.19 38.81L72.28 38.91Q73.58 38.80 74.40 38.04L74.50 38.13L74.45 38.09Q75.15 37.21 75.15 36.26L75.26 36.36L75.16 36.27Q75.20 36.08 75.16 35.89L75.24 35.97L75.18 35.91Q75.14 30.69 76.28 26.35L76.30 26.36L76.22 26.29Q77.24 26.20 78.23 25.97L78.33 26.08L80.35 25.58L80.31 25.55Q77.78 30.58 78.08 36.14L77.98 36.04L78.04 36.10Q78.18 39.13 76.47 40.28L76.53 40.34L76.54 40.35Q75.23 41.21 71.92 41.37ZM74.22 43.74L74.34 43.86L74.28 43.80Q77.66 43.87 79.49 43.11L79.57 43.19L79.53 43.15Q80.53 42.48 80.53 41.07L80.54 41.08L80.45 40.99Q80.49 40.11 80.23 38.55L80.19 38.52L80.26 38.59Q79.65 35.31 80.03 32.30L80.09 32.37L80.03 32.30Q80.59 29.32 81.99 26.58L81.92 26.51L81.95 26.53Q81.20 26.74 79.87 27.16L79.88 27.17L80.00 27.28Q80.10 26.55 80.41 25.98L80.53 26.10L81.04 24.90L81.12 24.98Q79.06 25.51 75.90 26.00L75.86 25.96L75.88 25.98Q74.79 30.91 74.94 36.01L74.95 36.02L74.87 35.94Q75.00 38.09 72.34 38.59L72.36 38.61L71.95 38.65L71.86 38.72L70.85 38.51L70.79 38.45Q70.80 37.65 70.84 37.16L70.71 37.03L70.65 36.97Q71.03 32.63 70.34 28.21L70.24 28.11L69.15 27.94L69.24 28.03Q68.66 27.94 68.13 27.83L68.17 27.87L68.14 27.84Q67.70 26.37 67.43 25.61L67.49 25.67L67.59 25.76Q64.66 25.19 62.41 23.90L62.43 23.91L62.58 24.07Q64.52 27.38 65.25 30.77L65.39 30.91L65.43 30.96Q65.77 33.00 65.61 36.51L65.67 36.57L65.69 36.58Q65.64 36.64 65.56 37.75L65.55 37.73L65.70 37.89Q65.47 40.17 66.84 41.12L66.84 41.12L66.91 41.18Q67.31 43.46 74.32 43.84Z"/><path fill="#333" d="M99.56 27.15L99.51 27.10L99.64 27.22Q100.44 27.23 101.85 27.08L101.73 26.96L101.88 27.11Q101.71 27.63 101.71 28.27L101.74 28.30L101.75 29.56L101.77 29.59Q100.84 29.50 100.00 29.57L100.09 29.66L100.02 29.59Q99.27 29.72 98.43 29.68L98.47 29.72L98.40 29.64Q95.58 35.84 92.15 40.45L92.04 40.34L92.20 40.50Q89.59 41.05 88.30 41.66L88.38 41.74L88.37 41.73Q92.38 35.92 95.43 29.64L95.44 29.65L92.77 29.61L92.86 29.70Q92.81 28.32 92.70 26.99L92.67 26.96L92.73 27.02Q94.71 27.25 96.76 27.25L96.78 27.27L98.65 23.54L98.62 23.51Q99.67 21.66 100.88 20.06L100.80 19.98L100.81 19.99Q99.16 20.05 97.56 20.05L97.73 20.22L97.69 20.17Q91.59 20.17 87.82 17.96L87.83 17.97L87.18 16.26L87.17 16.24Q86.69 15.27 86.31 14.39L86.31 14.40L86.31 14.39Q90.83 17.20 96.54 17.43L96.38 17.27L96.41 17.30Q101.62 17.60 106.76 15.62L106.72 15.58L106.74 15.60Q106.52 15.99 106.02 16.86L105.99 16.83L105.96 16.80Q102.34 21.56 99.49 27.08ZM107.57 18.18L107.60 18.21L108.68 16.29L108.74 16.34Q107.76 16.81 106.08 17.53L105.99 17.44L106.11 17.06L106.11 17.07Q106.31 17.00 106.43 16.89L106.45 16.91L106.45 16.91Q106.89 16.28 107.61 14.95L107.59 14.93L107.50 14.84Q102.11 17.06 96.36 16.83L96.56 17.03L96.37 16.84Q90.47 16.69 85.71 13.72L85.63 13.63L85.64 13.65Q86.80 15.64 87.64 18.31L87.56 18.24L87.46 18.13Q88.65 18.87 89.45 19.17L89.39 19.12L89.55 19.28Q89.68 19.59 90.13 21.46L89.97 21.29L90.03 21.35Q93.27 22.69 98.79 22.54L98.74 22.48L98.66 22.41Q98.38 23.00 96.40 26.77L96.52 26.89L96.46 26.83Q94.39 26.82 92.41 26.62L92.47 26.68L92.43 26.64Q92.42 27.40 92.42 28.27L92.50 28.35L92.48 30.04L94.21 30.09L94.14 31.44L94.13 31.43Q90.17 38.78 87.40 42.36L87.49 42.46L87.55 42.51Q88.97 41.58 90.61 41.08L90.72 41.19L90.71 41.18Q90.09 42.15 88.72 43.87L88.75 43.90L88.72 43.87Q91.76 42.64 94.19 42.42L94.24 42.47L94.31 42.53Q97.10 38.62 100.22 31.85L100.38 32.00L103.64 32.03L103.81 32.20Q103.63 31.18 103.63 30.27L103.62 30.26L103.67 28.52L103.67 28.52Q103.36 28.48 102.81 28.52L102.85 28.56L102.85 28.56Q102.33 28.62 102.06 28.62L102.02 28.59L102.10 28.66Q102.01 28.46 102.05 28.31L102.08 28.34L102.11 28.10L101.97 27.96Q104.65 22.99 107.73 18.34Z"/><path fill="#333" d="M128.96 40.30L129.04 40.37L128.95 40.29Q126.12 36.55 123.50 27.90L123.36 27.77L123.38 27.78Q122.74 25.66 121.94 23.53L121.90 23.49L119.21 32.45L119.11 32.35Q117.35 37.33 114.96 40.57L114.87 40.48L114.98 40.59Q113.95 40.47 112.31 40.62L112.44 40.75L112.37 40.69Q112.62 39.64 112.62 38.38L112.47 38.23L112.51 38.27Q112.45 32.20 109.71 26.08L109.72 26.08L109.70 26.06Q106.65 19.24 100.79 14.25L100.71 14.18L100.81 14.28Q102.87 14.89 105.23 15.43L105.36 15.56L105.36 15.55Q113.95 23.91 115.24 34.88L115.29 34.92L115.33 34.97Q116.89 31.57 118.33 26.20L118.38 26.25L118.42 26.29Q120.26 18.65 120.75 17.24L120.80 17.29L123.10 17.34L123.03 17.28Q123.89 19.47 124.54 21.79L124.45 21.70L125.57 26.02L125.64 26.09Q127.27 31.60 128.68 34.84L128.68 34.84L128.71 34.86Q130.34 23.21 138.26 15.86L138.32 15.92L138.19 15.80Q139.73 15.47 142.70 14.82L142.76 14.88L142.71 14.84Q137.32 19.08 134.28 25.21L134.30 25.23L134.24 25.17Q131.27 31.53 131.27 38.30L131.29 38.32L131.30 38.33Q131.26 39.40 131.33 40.54L131.29 40.49L130.20 40.44L130.26 40.49Q129.53 40.30 128.96 40.30ZM135.19 43.18L135.21 43.20L135.21 43.19Q133.98 39.64 134.09 35.76L134.06 35.72L134.06 35.73Q134.58 24.37 143.94 16.11L143.81 15.98L143.91 16.07Q142.93 16.27 140.99 16.80L140.97 16.79L141.04 16.86Q141.88 15.91 143.78 14.12L143.83 14.16L143.86 14.20Q141.21 14.97 138.28 15.47L138.19 15.38L138.27 15.46Q130.75 22.56 128.85 32.04L128.77 31.96L128.78 31.97Q128.20 30.32 125.34 18.86L125.46 18.98L125.44 18.96Q124.89 18.91 123.94 18.91L124.00 18.97L123.80 18.01L123.69 17.90Q123.59 17.38 123.37 16.89L123.38 16.90L120.56 16.97L120.54 16.95Q119.59 19.28 118.32 24.40L118.36 24.44L118.42 24.51Q117.11 29.59 116.12 32.06L116.10 32.04L116.18 32.12Q114.48 24.10 108.92 17.78L108.90 17.76L108.95 17.81Q108.53 17.81 107.58 17.62L107.47 17.52L107.63 17.67Q106.76 16.69 105.20 15.05L105.17 15.02L105.20 15.05Q101.83 14.27 99.66 13.48L99.64 13.45L99.72 13.53Q105.28 18.10 108.55 24.30L108.59 24.35L108.68 24.43Q112.10 31.01 112.10 38.02L112.04 37.96L112.08 38.00Q112.02 39.49 111.83 41.09L111.97 41.23L112.01 41.27Q112.15 41.19 112.61 41.10L112.67 41.15L112.56 41.04Q113.07 41.00 113.30 41.00L113.23 40.94L113.36 42.10L113.32 42.06Q113.38 42.57 113.46 43.10L113.31 42.96L113.39 43.04Q114.53 42.96 116.82 42.81L116.70 42.70L116.75 42.75Q120.37 37.34 123.11 27.94L123.06 27.89L123.21 28.04Q125.90 36.74 128.87 40.70L128.90 40.73L128.95 40.78Q129.48 40.85 130.31 40.97L130.22 40.87L130.25 40.90Q130.96 41.80 132.03 42.87L132.08 42.92L132.13 42.97Q132.93 43.05 135.33 43.31Z"/><path fill="#111" d="M43.69 19.37L43.64 19.33L43.72 19.41Q44.49 23.56 44.64 27.14L44.77 27.27L44.61 27.11Q45.85 27.33 46.92 27.33L46.81 27.21L49.05 27.25L49.12 27.32Q50.09 27.22 50.97 25.82L50.92 25.76L50.87 25.72Q51.63 24.58 51.75 23.40L51.70 23.36L51.85 23.50Q52.18 20.44 47.95 19.95L47.94 19.93L47.90 19.89Q46.23 19.86 43.60 19.29ZM44.68 29.93L44.63 29.87L44.70 29.94Q44.70 36.22 43.55 40.64L43.41 40.49L43.55 40.63Q42.01 40.96 39.69 42.03L39.65 41.99L39.78 42.12Q42.17 35.48 41.91 28.21L41.83 28.14L41.89 28.20Q41.45 20.68 38.67 14.25L38.68 14.25L38.77 14.34Q42.87 17.07 49.12 17.07L49.16 17.12L49.04 17.00Q55.10 17.01 55.26 20.47L55.25 20.47L55.35 20.57Q55.34 22.92 54.35 25.58L54.43 25.66L54.47 25.70Q53.93 26.68 52.98 27.90L53.01 27.94L52.96 27.88Q51.83 29.68 49.28 29.95L49.15 29.82L49.12 29.79Q46.97 29.92 44.72 29.96ZM50.77 32.13L50.85 32.21L50.85 32.21Q55.03 32.47 56.29 27.67L56.18 27.56L56.33 27.71Q57.24 24.02 57.09 22.00L57.07 21.98L56.98 21.90Q56.98 20.49 56.22 19.50L56.20 19.47L56.17 19.44Q55.79 19.07 55.30 18.84L55.42 18.96L55.28 18.82Q55.26 18.65 54.65 17.89L54.81 18.05L54.80 18.03Q53.26 16.72 49.30 16.72L49.23 16.65L49.28 16.70Q42.32 16.64 38.10 13.48L38.06 13.44L38.15 13.53Q41.17 20.47 41.43 27.93L41.42 27.92L41.55 28.04Q41.82 35.70 39.15 42.78L39.19 42.82L39.21 42.84Q40.24 42.15 41.23 41.77L41.23 41.78L40.77 42.84L40.90 42.97Q40.65 43.47 40.38 44.05L40.33 43.99L40.38 44.04Q42.71 42.91 45.60 42.38L45.64 42.42L45.77 42.55Q46.47 36.89 46.54 32.17L46.55 32.17L46.54 32.17Q47.70 32.14 48.69 32.14L48.62 32.07L48.79 32.25Q50.13 32.25 50.93 32.29ZM49.85 22.23L49.92 22.30L49.97 22.35Q50.36 22.24 51.35 22.47L51.40 22.52L51.43 22.55Q51.57 22.80 51.61 23.11L51.59 23.08L51.55 23.05Q51.66 23.38 51.58 23.65L51.46 23.53L51.53 23.60Q51.39 24.79 50.67 25.67L50.67 25.67L50.70 25.70Q50.12 26.76 49.09 26.95L49.03 26.88L49.02 26.88Q48.35 26.92 46.71 26.92L46.65 26.86L46.58 26.80Q46.59 24.56 46.37 22.20L46.31 22.15L48.14 22.30L48.12 22.28Q49.06 22.38 49.93 22.31Z"/></svg>