<svg xmlns="http://www.w3.org/2000/svg" width="150" height="50" viewBox="0,0,150,50"><path fill="#444" d="M94.62 39.85L94.73 39.97L94.61 39.85Q90.48 39.34 88.66 37.89L88.58 37.81L88.67 37.90Q86.82 36.44 86.41 33.43L86.50 33.52L86.41 33.43Q86.31 33.00 85.97 28.24L86.11 28.38L86.13 28.39Q86.17 27.22 86.09 25.96L86.12 25.99L86.09 25.96Q85.85 20.85 88.06 19.10L87.97 19.01L88.16 19.20Q90.66 16.93 98.42 16.25L98.51 16.34L98.43 16.26Q99.88 16.22 101.51 16.26L101.37 16.11L101.53 16.27Q101.37 16.11 104.34 16.11L104.43 16.21L104.51 16.28Q105.18 16.11 106.89 16.26L106.89 16.26L107.08 16.46Q106.45 17.27 105.42 20.35L105.46 20.39L105.39 20.32Q103.43 19.24 100.42 19.24L100.28 19.09L100.41 19.23Q99.60 19.18 98.80 19.25L98.84 19.29L98.76 19.21Q93.73 19.74 91.22 21.72L91.23 21.73L91.26 21.76Q89.10 23.22 88.95 26.57L89.06 26.69L88.95 26.57Q89.03 27.30 89.07 28.55L89.06 28.54L88.94 28.43Q89.11 33.31 91.51 35.41L91.43 35.33L91.58 35.48Q93.74 37.42 98.73 37.72L98.74 37.74L98.74 37.73Q101.76 37.78 104.77 35.99L104.86 36.08L104.77 35.99Q105.39 38.75 106.00 40.12L106.04 40.16L106.06 40.18Q103.91 40.39 102.28 40.35L102.27 40.35L102.30 40.38Q97.72 40.21 94.60 39.83ZM109.73 43.58L109.77 43.62L109.85 43.71Q108.08 40.72 107.40 38.13L107.40 38.13L107.24 37.97Q106.85 38.27 105.87 38.65L106.02 38.80L105.90 38.69Q105.63 37.96 105.44 37.12L105.46 37.14L105.08 35.43L105.10 35.45Q101.70 37.38 98.57 37.26L98.60 37.29L98.59 37.28Q94.27 37.03 91.95 35.28L92.07 35.41L92.09 35.42Q90.86 33.51 90.94 30.58L90.88 30.52L90.94 30.58Q91.16 26.16 93.64 24.03L93.56 23.94L93.61 24.00Q95.78 22.13 100.46 21.52L100.37 21.43L100.39 21.45Q101.13 21.28 101.86 21.28L102.02 21.44L101.89 21.32Q104.76 21.41 106.86 22.93L106.84 22.92L106.84 22.92Q107.35 20.80 108.57 17.56L108.60 17.59L108.57 17.56Q108.30 17.56 107.75 17.50L107.59 17.34L107.76 17.52Q107.08 17.33 106.81 17.33L106.87 17.38L106.80 17.31Q106.99 16.78 107.45 15.79L107.46 15.81L107.51 15.85Q107.30 15.88 104.81 15.80L104.89 15.89L104.71 15.70Q102.23 15.64 101.58 15.67L101.63 15.72L101.70 15.79Q91.08 16.02 87.61 18.61L87.67 18.67L87.59 18.58Q85.66 20.50 85.66 24.43L85.62 24.39L85.60 24.36Q85.67 25.54 85.78 28.24L85.75 28.21L85.82 28.28Q85.81 31.69 86.04 33.41L86.17 33.54L86.05 33.42Q86.54 36.65 88.14 38.17L88.00 38.04L88.01 38.04Q88.59 38.81 89.85 39.95L89.91 40.02L89.88 39.99Q93.17 41.79 98.42 42.55L98.40 42.53L98.35 42.49Q104.81 43.45 109.79 43.64Z"/><path fill="#333" d="M48.03 40.10L48.02 40.10L45.96 40.32L45.98 40.34Q45.57 40.39 44.60 40.44L44.52 40.36L44.50 40.34Q43.52 40.39 43.02 40.39L42.97 40.34L43.05 40.42Q41.49 40.49 40.46 39.65L40.41 39.61L40.35 39.54Q41.21 38.50 42.85 36.37L42.76 36.28L42.81 36.33Q44.03 37.86 46.24 37.63L46.39 37.77L46.26 37.65Q47.18 37.54 47.83 36.90L47.94 37.01L47.94 37.01Q48.59 36.37 48.48 35.49L48.40 35.41L48.44 35.45Q48.35 30.87 48.43 26.30L48.32 26.20L48.26 26.14Q48.32 21.55 48.85 16.94L48.95 17.04L48.95 17.04Q50.81 16.77 52.94 15.74L52.95 15.75L53.07 15.87Q51.22 22.62 51.22 29.86L51.14 29.78L51.14 29.77Q51.15 33.33 51.61 36.83L51.57 36.79L51.66 36.88Q51.56 37.04 51.56 37.39L51.63 37.47L51.72 37.55Q51.61 38.01 51.38 38.55L51.46 38.63L51.48 38.65Q50.89 39.88 48.08 40.15ZM52.89 42.87L53.06 43.05L53.27 42.91L53.54 42.76L53.95 42.79L53.77 42.61Q54.21 42.48 54.29 42.36L54.22 42.30L54.34 42.42Q54.53 41.23 54.26 40.24L54.27 40.25L54.09 40.08Q52.80 34.33 53.07 27.98L53.15 28.06L53.10 28.00Q53.25 21.79 55.04 15.89L55.14 15.99L55.11 15.97Q54.16 16.54 52.91 17.27L53.04 17.41L52.99 17.35Q53.10 16.51 53.52 14.99L53.55 15.01L53.65 15.11Q51.10 16.41 48.44 16.72L48.42 16.70L48.48 16.77Q48.08 21.12 48.00 26.07L47.96 26.02L47.93 25.99Q47.97 32.02 48.05 35.44L47.92 35.32L48.07 35.46Q48.00 37.11 46.25 37.26L46.33 37.34L46.23 37.24Q44.60 37.44 42.93 35.80L42.84 35.72L43.00 35.87Q40.84 38.28 39.89 39.84L39.91 39.86L39.95 39.91Q40.53 40.49 41.56 40.72L41.65 40.81L41.59 40.75Q41.58 40.96 41.31 41.19L41.24 41.12L41.18 41.06Q42.64 42.02 44.62 42.29L44.69 42.36L44.65 42.32Q45.04 42.37 48.34 42.68L48.37 42.71L48.27 42.61Q51.58 42.93 52.95 42.93Z"/><path fill="#222" d="M64.45 41.16L64.38 41.09L64.46 41.18Q67.55 36.85 74.25 28.93L74.24 28.91L74.33 29.01Q68.33 29.13 64.56 27.76L64.53 27.73L64.57 27.77Q63.94 26.38 63.18 24.97L63.22 25.01L63.21 25.00Q67.20 26.40 71.65 26.44L71.74 26.52L71.74 26.53Q76.13 26.50 80.31 25.43L80.24 25.36L80.26 25.38Q79.90 26.08 79.63 26.61L79.70 26.68L79.71 26.69Q77.06 28.81 74.25 32.42L74.38 32.55L69.49 38.78L69.35 38.65Q71.60 38.46 73.85 38.53L73.83 38.52L73.84 38.52Q76.10 38.65 78.34 39.03L78.33 39.02L78.33 39.02Q78.38 39.52 79.10 41.54L79.24 41.68L79.17 41.61Q75.55 40.88 71.55 41.00L71.50 40.95L71.51 40.96Q67.41 40.93 63.76 42.11L63.85 42.21L63.81 42.16Q63.94 42.06 64.39 41.11ZM63.24 42.77L63.33 42.86L63.25 42.78Q64.00 42.43 65.60 42.01L65.59 42.00L65.73 42.14Q65.34 42.21 64.93 42.63L65.03 42.73L64.96 42.67Q64.72 43.22 64.11 44.37L64.24 44.50L64.22 44.47Q68.83 43.03 73.82 43.18L73.79 43.15L73.82 43.19Q78.85 43.42 83.42 45.29L83.37 45.24L83.42 45.29Q81.90 43.35 80.99 41.30L81.07 41.38L80.93 41.23Q80.26 41.02 79.19 40.80L79.22 40.82L79.12 40.73Q78.93 40.00 78.55 38.55L78.58 38.58L78.67 38.68Q77.13 38.35 73.55 38.23L73.61 38.29L73.49 38.18Q75.91 34.89 80.94 28.53L80.94 28.53L80.88 28.48Q81.25 27.85 81.93 26.52L81.86 26.45L79.55 27.18L79.51 27.14Q79.68 27.16 79.83 27.04L79.73 26.95L80.09 26.92L79.96 26.79Q80.41 25.72 80.98 24.77L81.10 24.89L81.09 24.88Q76.28 26.08 71.56 26.01L71.64 26.08L71.58 26.03Q66.77 25.94 62.28 24.11L62.39 24.22L62.28 24.11Q63.61 26.12 64.41 28.18L64.33 28.10L64.44 28.21Q65.12 28.36 66.19 28.63L66.18 28.62L66.28 28.72Q66.40 29.34 66.71 30.78L66.81 30.89L66.67 30.75Q68.32 31.07 71.64 31.22L71.61 31.19L71.66 31.24Q69.17 34.46 63.99 40.90L64.00 40.90L63.98 40.89Q63.81 41.55 63.24 42.77Z"/><path fill="#333" d="M22.92 18.43L22.89 18.41L22.96 18.48Q22.25 18.87 22.10 19.67L22.13 19.70L22.09 24.80L22.11 24.82Q23.29 24.86 25.50 24.60L25.47 24.56L25.50 24.60Q25.28 24.83 25.24 25.67L25.32 25.75L25.25 25.68Q25.34 26.57 25.34 27.03L25.28 26.97L23.80 27.16L23.79 27.15Q22.89 27.12 22.01 27.12L22.08 27.19L22.01 27.12Q21.98 31.28 21.90 39.65L22.03 39.78L22.01 39.76Q19.76 39.79 18.28 40.48L18.25 40.46L18.25 40.45Q19.31 34.28 19.19 27.04L19.22 27.07L19.27 27.12Q18.50 26.97 17.21 26.70L17.31 26.80L17.29 26.78Q17.21 25.71 17.02 23.77L17.02 23.77L17.06 23.80Q18.19 24.33 19.14 24.52L19.10 24.48L19.26 24.64Q19.21 23.98 18.91 21.51L18.82 21.42L18.84 21.44Q18.66 19.43 18.66 18.48L18.67 18.49L18.56 18.38Q18.54 16.68 19.95 16.11L19.93 16.09L20.01 16.17Q20.88 15.87 25.72 15.03L25.64 14.96L25.77 15.08Q26.54 14.90 27.38 14.79L27.33 14.74L27.28 14.69Q27.18 15.57 27.02 16.45L26.93 16.35L26.56 17.85L26.58 17.87Q25.96 17.75 25.47 17.86L25.39 17.79L25.56 17.96Q24.80 17.81 22.90 18.42ZM28.40 19.61L28.46 19.67L28.33 19.54Q28.80 17.46 29.41 14.91L29.40 14.90L29.33 14.84Q28.73 15.18 27.43 15.79L27.38 15.74L27.77 14.04L27.83 14.10Q26.49 14.16 24.02 14.70L24.04 14.72L24.10 14.78Q23.02 14.96 19.83 15.88L19.81 15.86L19.66 15.71Q18.15 16.18 18.15 18.04L18.24 18.14L18.13 18.02Q18.08 18.28 18.16 18.62L18.26 18.73L18.31 18.78Q18.39 19.96 18.51 21.30L18.63 21.42L18.73 24.00L18.85 24.11Q17.47 23.72 16.82 23.27L16.85 23.30L16.70 23.14Q16.87 24.15 16.91 25.18L17.02 25.29L17.07 27.21L17.08 27.21Q17.73 27.34 18.53 27.41L18.62 27.50L18.48 29.45L18.92 29.51L18.87 29.46Q18.82 35.66 17.83 41.10L17.84 41.11L17.89 41.16Q18.79 40.57 19.97 40.31L20.08 40.42L19.91 42.49L19.76 42.35Q21.16 42.22 22.45 42.18L22.33 42.06L22.31 42.04Q23.63 42.10 24.89 42.37L24.93 42.42L24.91 42.39Q24.05 37.38 24.05 29.43L24.07 29.45L24.02 29.40Q25.03 29.31 27.13 29.38L27.27 29.53L27.25 27.64L27.29 27.68Q27.14 26.58 27.18 25.63L27.18 25.63L27.19 25.64Q26.75 25.77 25.69 26.04L25.72 26.08L25.77 26.13Q25.70 25.37 25.82 24.04L25.83 24.05L25.83 24.05Q24.86 24.15 24.06 24.22L24.24 24.40L24.19 24.35Q24.17 22.92 24.28 21.52L24.31 21.54L24.17 21.40Q24.34 20.77 24.88 20.43L24.88 20.43L24.98 20.54Q25.88 19.80 26.70 19.72L26.63 19.65L26.68 19.71Q27.52 19.65 28.36 19.57Z"/><path fill="#444" d="M119.65 29.00L119.60 28.96L119.58 28.94Q116.98 28.89 115.96 30.07L116.02 30.13L116.07 30.18Q115.01 31.34 115.01 33.96L114.88 33.83L114.97 33.92Q115.02 39.07 119.62 38.88L119.60 38.86L119.55 38.80Q121.65 39.01 123.01 37.44L123.04 37.48L122.93 37.37Q124.40 35.93 124.18 33.88L124.20 33.90L124.20 33.90Q124.04 31.18 123.16 30.16L123.21 30.21L123.29 30.29Q121.76 28.91 119.56 28.91ZM124.49 38.61L124.51 38.62L124.59 38.70Q123.38 41.15 118.69 41.15L118.71 41.17L117.28 41.18L117.30 41.20Q114.90 41.16 113.80 40.02L113.78 40.00L113.86 40.08Q112.70 38.93 112.44 36.53L112.55 36.64L112.48 36.57Q112.46 35.21 112.38 33.42L112.24 33.28L112.21 33.26Q112.33 32.42 112.18 30.48L112.11 30.42L112.14 30.44Q111.89 26.01 117.07 26.01L117.15 26.09L118.74 26.12L118.76 26.14Q121.58 26.06 123.67 27.36L123.76 27.44L123.78 27.47Q124.47 27.85 124.97 28.54L124.91 28.48L125.01 28.58Q125.32 27.82 125.85 26.18L125.86 26.20L125.77 26.10Q126.95 25.87 129.27 25.26L129.39 25.38L129.38 25.38Q126.70 29.51 126.70 34.77L126.77 34.83L126.80 34.86Q126.70 38.49 128.07 41.57L128.23 41.73L128.11 41.62Q126.94 41.28 125.04 41.05L125.05 41.07L125.05 41.07Q124.96 40.33 124.66 38.77ZM127.94 43.96L127.97 43.99L130.15 44.53L130.19 44.57Q131.30 44.77 132.29 45.23L132.24 45.18L132.31 45.25Q128.71 40.96 128.71 34.87L128.57 34.73L128.62 34.78Q128.60 30.23 130.73 26.42L130.86 26.55L130.85 26.54Q130.06 26.63 128.73 27.01L128.91 27.19L128.76 27.04Q129.24 26.42 130.12 24.90L130.00 24.78L129.99 24.76Q129.50 25.03 125.50 25.87L125.54 25.91L124.97 27.74L124.80 27.57Q123.12 25.93 118.71 25.70L118.69 25.68L118.59 25.59Q117.59 25.73 115.35 25.88L115.29 25.83L115.44 25.97Q111.70 26.27 111.81 30.31L111.86 30.35L111.82 30.31Q111.80 33.50 112.38 37.95L112.38 37.95L112.56 38.55L112.52 38.51Q112.61 39.32 113.41 40.43L113.33 40.35L113.48 40.50Q113.55 40.57 113.74 40.69L113.73 40.68L113.78 40.73Q114.05 41.23 114.43 41.80L114.41 41.77L114.41 41.77Q115.89 43.37 119.28 43.56L119.23 43.51L119.25 43.53Q120.86 43.62 121.01 43.62L121.03 43.64L122.44 43.48L122.59 43.64Q125.83 43.68 127.05 42.12L126.98 42.05L126.98 42.04Q127.28 42.61 127.89 43.91ZM121.44 31.26L121.44 31.26L121.33 31.15Q122.72 31.20 123.56 31.66L123.54 31.64L123.54 31.64Q123.83 32.42 123.83 33.87L123.75 33.80L123.92 33.96Q124.03 35.79 122.76 37.22L122.82 37.27L122.66 37.12Q121.44 38.60 119.54 38.41L119.56 38.43L119.48 38.35Q118.12 38.45 117.10 38.03L117.03 37.96L117.13 38.06Q116.98 37.26 116.98 36.04L117.00 36.06L116.83 35.89Q117.10 32.51 119.73 31.56L119.66 31.49L119.56 31.39Q120.58 31.19 121.38 31.19Z"/></svg>