<svg xmlns="http://www.w3.org/2000/svg" width="150" height="50" viewBox="0,0,150,50"><path fill="#222" d="M74.25 39.85L74.25 39.85L72.37 39.92L72.38 39.92Q71.26 39.75 70.31 39.87L70.49 40.05L70.38 39.94Q70.88 33.67 70.88 29.67L70.88 29.66L70.94 29.72Q66.95 23.03 59.30 14.35L59.35 14.41L59.34 14.39Q61.10 15.36 64.45 16.16L64.42 16.12L64.42 16.12Q69.61 21.84 72.62 27.06L72.48 26.92L72.55 27.00Q75.54 21.42 79.91 16.39L80.00 16.47L80.04 16.52Q82.32 15.98 84.84 15.18L84.79 15.14L84.80 15.15Q78.87 21.36 74.00 29.77L74.04 29.82L73.90 29.68Q73.99 36.81 74.30 39.89ZM83.41 17.34L86.00 14.36L86.13 14.49Q83.05 15.68 79.92 16.13L79.89 16.10L79.90 16.11Q75.54 20.69 72.72 25.79L72.82 25.89L72.88 25.95Q70.70 22.25 67.50 18.37L67.38 18.25L67.39 18.25Q67.19 18.32 66.69 18.25L66.81 18.36L66.80 18.35Q66.12 17.55 64.59 15.88L64.57 15.85L64.42 15.70Q61.14 15.06 58.18 13.50L58.08 13.40L58.17 13.49Q65.90 21.98 70.66 29.90L70.68 29.92L70.65 29.89Q70.54 36.22 69.93 40.37L69.88 40.32L69.99 40.43Q70.61 40.29 72.06 40.17L72.16 40.28L72.15 41.29L72.06 41.20Q72.20 41.80 72.13 42.33L72.10 42.30L72.03 42.24Q75.62 42.29 77.37 42.48L77.35 42.46L77.40 42.50Q76.12 37.80 76.00 31.82L75.98 31.80L75.89 31.70Q80.35 23.34 86.90 15.99L86.84 15.93L83.36 17.29Z"/><path fill="#222" d="M97.70 29.90L97.76 29.96L97.75 29.95Q95.09 29.69 93.76 30.90L93.91 31.06L93.75 30.89Q92.48 32.17 92.78 34.69L92.87 34.78L92.80 34.71Q93.20 37.31 94.41 38.56L94.41 38.56L94.23 38.38Q95.38 39.80 97.51 39.72L97.63 39.84L97.47 39.68Q98.08 39.72 98.28 39.72L98.34 39.78L98.33 39.78Q101.93 39.22 102.04 34.62L101.86 34.44L102.00 34.57Q102.08 32.22 101.39 31.42L101.42 31.45L101.39 31.42Q100.20 29.99 97.65 29.84ZM100.96 41.57L100.95 41.56L100.93 41.54Q99.76 42.27 98.20 42.19L98.18 42.18L98.23 42.23Q94.36 42.40 93.07 39.81L92.95 39.69L92.99 39.73Q92.78 45.04 91.45 49.30L91.48 49.34L91.59 49.44Q89.72 49.86 88.08 50.58L88.07 50.57L87.99 50.49Q90.66 44.63 90.39 37.66L90.31 37.58L90.44 37.71Q90.18 30.86 87.28 24.81L87.31 24.84L87.31 24.83Q89.26 26.03 90.98 26.49L90.98 26.49L91.39 27.85L91.41 27.87Q91.61 28.29 91.87 29.40L91.87 29.40L91.76 29.28Q92.89 27.33 96.46 27.14L96.46 27.14L96.41 27.08Q97.17 26.93 98.04 26.93L98.14 27.03L98.53 26.92L98.58 26.97Q98.72 27.00 98.91 27.04L99.03 27.15L99.27 27.09L99.23 27.05Q101.30 27.33 102.03 27.56L102.02 27.55L102.09 27.62Q103.48 27.99 104.36 28.94L104.39 28.97L104.51 29.09Q105.33 30.25 105.29 31.66L105.17 31.54L105.27 31.64Q105.30 34.53 104.50 37.19L104.36 37.05L104.50 37.19Q103.29 40.51 100.93 41.54ZM105.39 42.34L105.27 42.19L105.35 42.27Q106.40 40.23 106.70 36.12L106.73 36.14L106.78 36.20Q106.80 34.32 106.80 33.06L106.86 33.12L106.88 33.14Q106.93 31.67 106.17 30.26L106.17 30.26L106.21 30.30Q105.72 29.77 105.22 29.39L105.13 29.30L105.01 29.06L104.92 28.86L104.82 28.64L104.88 28.70Q103.12 26.63 98.78 26.63L98.81 26.67L98.16 26.63L98.17 26.63Q93.39 26.50 91.75 28.10L91.93 28.28L91.81 28.16Q91.69 27.70 91.54 27.20L91.59 27.25L91.27 26.13L91.16 26.02Q88.68 25.41 86.47 23.92L86.55 24.00L86.48 23.92Q89.78 30.28 90.09 37.51L90.03 37.45L90.15 37.57Q90.32 44.71 87.46 51.18L87.57 51.29L89.54 50.40L89.44 50.30Q89.17 51.02 88.49 52.58L88.65 52.75L88.64 52.74Q91.33 51.66 93.65 51.31L93.57 51.24L93.60 51.26Q94.73 46.46 94.89 42.73L94.77 42.61L94.84 42.68Q96.19 44.11 99.81 44.34L99.89 44.42L99.96 44.49Q103.87 44.71 105.32 42.27L105.20 42.15ZM99.68 32.21L99.65 32.19L99.60 32.14Q100.35 32.16 101.45 32.51L101.33 32.38L101.44 32.49Q101.70 33.48 101.66 34.66L101.58 34.57L101.56 34.56Q101.66 35.57 101.47 36.21L101.36 36.10L101.46 36.20Q100.68 39.05 98.17 39.35L98.17 39.35L98.21 39.27L98.22 39.29Q98.20 39.34 98.08 39.38L98.05 39.34L97.48 39.31L97.52 39.34Q96.48 39.48 95.49 38.99L95.34 38.84L95.05 36.84L95.01 36.80Q94.90 34.52 96.19 33.49L96.27 33.56L96.21 33.50Q97.24 32.44 99.64 32.18Z"/><path fill="#333" d="M49.61 39.88L49.58 39.84L47.59 39.79L47.69 39.90Q46.65 39.81 45.70 39.92L45.71 39.93L45.74 39.96Q46.32 33.77 46.32 29.78L46.33 29.78L46.24 29.69Q42.36 23.11 34.71 14.43L34.75 14.47L34.63 14.35Q36.50 15.42 39.85 16.22L39.76 16.13L39.79 16.16Q44.86 21.77 47.87 26.98L48.00 27.11L47.90 27.01Q50.93 21.47 55.31 16.45L55.21 16.35L55.21 16.35Q57.63 15.95 60.14 15.15L60.13 15.15L60.18 15.19Q54.15 21.31 49.28 29.72L49.36 29.80L49.32 29.76Q49.31 36.80 49.62 39.88ZM58.76 17.35L61.36 14.40L61.37 14.40Q58.21 15.51 55.09 15.96L55.18 16.06L55.13 16.00Q51.02 20.84 48.20 25.94L48.16 25.90L48.17 25.92Q45.94 22.16 42.74 18.27L42.77 18.31L42.75 18.28Q42.60 18.40 42.10 18.32L41.95 18.17L41.98 18.20Q41.37 17.47 39.84 15.79L39.78 15.74L39.75 15.70Q36.41 14.99 33.44 13.43L33.45 13.43L33.45 13.44Q41.17 21.92 45.93 29.84L45.92 29.83L45.87 29.78Q45.83 36.18 45.22 40.32L45.24 40.35L45.19 40.29Q45.94 40.28 47.38 40.16L47.48 40.26L47.44 41.25L47.48 41.29Q47.44 41.71 47.37 42.24L47.30 42.17L47.34 42.21Q50.89 42.23 52.64 42.42L52.59 42.36L52.61 42.38Q51.36 37.70 51.25 31.73L51.30 31.78L51.25 31.74Q55.63 23.28 62.18 15.94L62.13 15.88L58.61 17.20Z"/><path fill="#111" d="M119.57 28.58L119.52 28.54L119.57 28.58Q116.71 28.54 115.95 30.79L116.03 30.87L116.06 30.90Q115.74 31.53 115.62 32.17L115.78 32.33L115.76 32.31Q118.25 32.40 119.88 32.40L119.86 32.38L119.84 32.36Q121.50 32.38 124.09 32.27L124.25 32.43L124.13 32.31Q124.05 30.63 122.64 29.56L122.64 29.56L122.58 29.50Q121.39 28.62 119.60 28.62ZM119.62 41.12L119.60 41.10L119.77 41.27Q115.45 41.18 114.16 39.77L114.23 39.84L114.23 39.84Q113.30 38.41 113.14 35.14L113.11 35.10L113.02 35.01Q113.09 34.85 113.01 33.48L113.03 33.51L112.91 33.38Q112.91 31.22 112.91 30.49L112.80 30.38L112.90 30.48Q112.77 28.49 113.50 27.38L113.53 27.41L113.58 27.47Q114.94 26.01 117.91 26.01L117.90 26.00L119.57 26.11L119.46 26.00Q121.47 25.95 122.99 26.26L123.02 26.28L123.13 26.39Q125.05 26.72 126.04 27.94L126.13 28.03L126.13 28.02Q126.71 29.07 126.79 31.16L126.83 31.20L126.84 31.21Q126.75 32.26 126.79 34.43L126.77 34.41L126.75 34.40Q123.89 34.42 121.11 34.42L121.19 34.51L115.52 34.43L115.59 34.50Q115.85 39.03 119.92 38.80L119.92 38.79L119.93 38.80Q123.68 38.59 124.90 36.76L124.81 36.68L124.83 36.70Q125.64 37.17 127.24 38.35L127.22 38.33L127.30 38.41Q125.91 40.79 121.76 41.05L121.87 41.16L121.84 41.13Q121.14 41.19 119.77 41.27ZM121.97 43.51L122.04 43.58L121.91 43.45Q123.04 43.43 124.26 43.51L124.37 43.62L124.38 43.64Q129.26 43.72 130.17 40.94L130.18 40.94L130.20 40.97Q128.53 39.67 127.42 38.91L127.49 38.98L127.40 38.89Q127.58 38.50 127.77 38.27L127.77 38.27L127.81 38.31Q127.09 37.86 125.72 36.91L125.66 36.84L125.76 36.94Q126.78 36.94 128.84 37.24L128.87 37.28L128.85 37.25Q128.79 36.02 128.72 35.33L128.53 35.15L128.54 33.37L128.50 33.32Q128.37 30.99 127.72 29.50L127.67 29.45L127.77 29.55Q127.38 29.08 126.81 28.47L126.77 28.43L126.77 28.43Q126.64 28.16 126.41 27.59L126.41 27.58L126.53 27.70Q124.53 25.55 119.47 25.55L119.58 25.66L117.90 25.65L117.83 25.58Q114.50 25.49 113.05 26.98L113.13 27.06L113.09 27.02Q112.41 28.12 112.44 30.18L112.51 30.24L112.42 30.15Q112.57 31.22 112.69 33.46L112.74 33.51L112.64 33.42Q112.80 35.10 112.92 37.16L112.85 37.09L112.94 37.18Q113.15 39.37 114.03 40.44L113.97 40.38L114.04 40.45Q114.14 40.55 114.33 40.67L114.32 40.66L114.63 41.31L114.71 41.39Q115.46 43.21 122.05 43.59ZM119.83 38.29L119.89 38.35L119.93 38.39Q118.68 38.39 117.76 37.93L117.84 38.00L117.85 38.02Q117.80 37.62 117.61 36.94L117.45 36.79L117.45 36.78Q119.31 36.85 120.91 36.85L120.89 36.83L120.88 36.83Q122.54 36.81 124.21 36.92L124.17 36.87L124.10 36.81Q122.84 38.17 119.83 38.29ZM121.55 31.02L121.42 30.89L121.47 30.94Q122.13 30.99 123.46 31.37L123.46 31.37L123.71 31.81L123.63 31.92L123.68 31.97Q122.33 32.11 121.42 32.07L121.30 31.95L121.38 32.03Q119.05 31.94 119.01 31.94L119.15 32.09L119.00 31.93Q119.90 31.16 121.58 31.05Z"/><path fill="#222" d="M30.40 40.41L30.41 40.41L30.48 40.48Q27.32 36.41 24.70 27.77L24.79 27.86L24.84 27.92Q24.17 25.76 23.37 23.63L23.28 23.54L20.45 32.36L20.36 32.26Q18.67 37.32 16.28 40.55L16.13 40.41L16.23 40.51Q15.41 40.60 13.77 40.75L13.68 40.66L13.77 40.75Q13.78 39.47 13.78 38.21L13.88 38.31L13.78 38.21Q13.86 32.28 11.12 26.15L11.13 26.16L11.03 26.06Q8.06 19.32 2.20 14.33L2.17 14.30L2.11 14.25Q4.32 15.00 6.68 15.54L6.61 15.47L6.60 15.46Q15.34 23.97 16.64 34.94L16.67 34.97L16.58 34.89Q18.30 31.66 19.75 26.29L19.64 26.18L19.64 26.18Q21.70 18.76 22.20 17.36L22.11 17.27L24.48 17.39L24.35 17.26Q25.07 19.31 25.71 21.63L25.83 21.74L27.08 26.19L27.07 26.19Q28.56 31.56 29.97 34.80L30.03 34.85L29.93 34.76Q31.60 23.14 39.52 15.79L39.50 15.78L39.46 15.73Q41.15 15.55 44.12 14.91L43.97 14.76L43.96 14.75Q38.81 19.23 35.76 25.36L35.69 25.28L35.69 25.29Q32.55 31.47 32.55 38.25L32.62 38.33L32.53 38.24Q32.54 39.35 32.62 40.49L32.66 40.54L31.50 40.40L31.62 40.51Q30.86 40.29 30.29 40.29ZM36.56 43.21L36.56 43.21L36.65 43.31Q35.43 39.76 35.54 35.87L35.57 35.90L35.52 35.85Q35.81 24.27 45.18 16.01L45.13 15.96L45.09 15.92Q44.15 16.16 42.21 16.69L42.26 16.74L42.37 16.85Q43.15 15.84 45.05 14.05L45.19 14.19L45.12 14.13Q42.39 14.82 39.46 15.32L39.57 15.42L39.46 15.32Q32.03 22.50 30.12 31.98L30.10 31.96L30.25 32.10Q29.49 30.28 26.64 18.82L26.71 18.90L26.78 18.96Q26.36 19.05 25.41 19.05L25.40 19.03L25.05 17.92L25.05 17.92Q24.90 17.35 24.67 16.86L24.75 16.94L21.72 16.80L21.88 16.96Q21.06 19.42 19.79 24.54L19.69 24.44L19.69 24.44Q18.46 29.60 17.47 32.08L17.52 32.13L17.40 32.01Q15.91 24.20 10.35 17.88L10.35 17.88L10.34 17.87Q9.87 17.82 8.92 17.63L8.83 17.54L8.86 17.57Q8.07 16.66 6.51 15.02L6.55 15.07L6.60 15.12Q3.12 14.23 0.95 13.43L1.10 13.58L1.10 13.58Q6.67 18.16 9.94 24.36L9.96 24.38L10.02 24.43Q13.37 30.95 13.37 37.95L13.50 38.09L13.50 38.08Q13.54 39.68 13.35 41.28L13.21 41.14L13.17 41.11Q13.43 41.14 13.89 41.04L13.95 41.10L13.99 41.15Q14.36 40.96 14.59 40.96L14.71 41.09L14.63 42.03L14.57 41.97Q14.59 42.45 14.66 42.98L14.76 43.08L14.61 42.93Q15.80 42.89 18.08 42.74L18.11 42.77L18.03 42.69Q21.82 37.45 24.56 28.05L24.51 28.01L24.46 27.95Q27.30 36.81 30.27 40.76L30.32 40.82L30.25 40.75Q30.78 40.82 31.62 40.93L31.64 40.96L31.46 40.78Q32.33 41.84 33.39 42.90L33.49 43.00L33.42 42.92Q34.22 43.00 36.61 43.27Z"/></svg>