<svg xmlns="http://www.w3.org/2000/svg" width="150" height="50" viewBox="0,0,150,50"><path fill="#333" d="M46.14 40.21L46.17 40.24L46.22 40.30Q42.61 40.26 40.97 39.73L41.13 39.89L41.15 39.91Q39.05 39.14 38.75 35.75L38.85 35.86L40.19 34.68L40.17 34.66Q41.03 34.27 41.79 33.77L41.79 33.77L41.66 33.64Q41.47 35.62 43.07 36.83L43.09 36.86L43.06 36.83Q44.26 37.76 46.39 37.57L46.43 37.61L46.48 37.66Q50.88 37.26 50.68 33.72L50.74 33.77L50.72 33.76Q50.55 31.49 47.92 30.27L47.94 30.29L47.92 30.27Q45.06 29.19 42.70 27.98L42.66 27.94L42.59 27.87Q40.08 26.58 39.09 21.89L39.12 21.92L39.14 21.94Q38.96 21.42 38.85 20.66L38.97 20.78L38.83 20.64Q38.83 19.96 38.91 19.39L38.86 19.34L38.81 19.29Q38.95 17.69 40.21 17.23L40.29 17.31L40.22 17.24Q42.64 16.39 46.64 16.58L46.70 16.64L46.62 16.56Q48.48 16.70 49.28 16.78L49.28 16.78L49.30 16.80Q50.84 17.05 51.91 17.51L51.96 17.56L51.95 17.55Q53.97 17.93 54.19 20.40L54.21 20.41L54.11 20.31Q53.19 21.14 50.98 22.48L51.04 22.54L51.01 22.50Q50.49 19.40 46.12 19.40L46.12 19.41L46.11 19.40Q44.28 19.47 43.29 20.15L43.27 20.14L43.30 20.16Q42.02 20.56 42.24 22.35L42.35 22.45L42.32 22.42Q42.58 24.62 45.55 26.15L45.58 26.17L45.48 26.07Q46.06 26.35 50.55 27.99L50.52 27.96L50.52 27.95Q53.14 29.43 53.56 33.81L53.56 33.82L53.59 33.84Q53.64 34.04 53.71 35.30L53.75 35.34L53.77 35.36Q53.70 37.99 52.14 39.09L52.21 39.16L52.26 39.21Q50.27 40.04 46.08 40.15ZM48.52 42.67L48.40 42.55L48.40 42.55Q49.92 42.70 51.90 42.70L51.81 42.61L51.82 42.62Q53.98 42.68 55.23 42.26L55.20 42.23L55.25 42.28Q56.44 41.41 56.36 39.62L56.45 39.71L56.35 39.61Q56.42 38.73 56.04 36.67L56.03 36.66L55.88 36.52Q54.98 31.84 52.88 29.98L53.05 30.14L53.04 30.14Q52.13 28.43 50.80 27.70L50.88 27.78L45.50 25.64L45.57 25.71Q45.22 25.51 44.76 25.28L44.72 25.24L44.64 24.89L44.57 24.48L44.61 24.52Q44.40 23.06 45.55 22.45L45.59 22.49L45.69 22.60Q46.41 21.98 48.12 21.79L48.14 21.81L48.02 21.69Q49.31 21.72 50.45 22.17L50.45 22.18L50.33 22.06Q50.42 22.19 50.62 23.03L50.65 23.06L50.67 23.08Q50.94 23.01 51.43 22.78L51.23 22.58L51.39 22.73Q51.97 23.51 52.09 24.65L52.08 24.65L52.21 24.78Q52.33 24.78 55.99 22.19L55.98 22.18L55.86 22.07Q55.70 19.55 54.26 18.86L54.25 18.85L54.13 18.74Q53.56 17.48 52.12 16.95L52.11 16.95L52.20 17.03Q49.85 16.18 46.66 16.18L46.71 16.23L46.60 16.12Q41.70 16.13 39.84 16.82L39.87 16.85L39.91 16.89Q38.59 17.36 38.48 19.04L38.40 18.95L38.54 19.10Q38.50 19.63 38.92 21.84L38.81 21.72L38.82 21.74Q39.48 25.48 41.65 27.73L41.66 27.74L41.70 27.77Q42.54 29.54 44.05 30.22L43.94 30.12L44.00 30.17Q45.44 30.80 49.36 32.36L49.43 32.43L49.32 32.36L50.13 32.86L50.18 32.95L50.06 32.83Q50.27 33.30 50.31 33.64L50.26 33.60L50.39 33.73Q50.34 37.06 46.41 37.21L46.55 37.35L46.48 37.28Q45.22 37.20 43.92 36.82L43.91 36.80L44.05 36.94Q43.58 35.98 43.58 35.26L43.61 35.29L43.69 35.37Q43.77 35.18 43.81 34.91L43.70 34.81L43.70 34.80Q43.39 35.14 42.59 35.63L42.47 35.51L42.42 35.46Q42.06 34.49 42.21 33.12L42.13 33.04L42.24 33.16Q40.03 34.22 38.43 35.63L38.38 35.57L38.52 35.71Q38.45 36.40 38.52 37.43L38.59 37.49L38.55 37.45Q38.87 39.18 40.16 39.94L40.15 39.93L40.19 39.98Q41.47 41.86 44.02 42.24L44.02 42.24L43.95 42.17Q45.54 42.43 48.47 42.62Z"/><path fill="#222" d="M71.94 41.38L71.98 41.42L71.88 41.32Q69.06 41.55 67.81 41.02L67.72 40.93L67.84 41.05Q65.77 40.13 65.85 37.65L65.85 37.66L65.93 37.74Q66.12 34.38 66.12 34.95L66.10 34.94L66.05 34.88Q65.99 29.50 63.14 24.66L63.20 24.73L63.26 24.79Q65.16 25.65 67.14 26.03L67.21 26.11L67.09 25.99Q68.80 30.59 68.68 35.08L68.80 35.20L68.82 35.22Q68.66 36.70 69.50 37.92L69.44 37.86L69.48 37.89Q70.38 39.22 71.90 39.03L71.79 38.92L72.17 38.80L72.17 38.80Q73.61 38.83 74.43 38.07L74.33 37.97L74.33 37.97Q75.24 37.30 75.24 36.34L75.21 36.31L75.22 36.33Q75.15 36.03 75.12 35.84L75.17 35.90L75.15 35.88Q75.09 30.64 76.23 26.30L76.35 26.42L76.19 26.25Q77.35 26.31 78.34 26.08L78.21 25.96L80.27 25.50L80.37 25.60Q77.70 30.51 78.01 36.07L77.98 36.04L78.14 36.21Q78.25 39.21 76.54 40.35L76.61 40.42L76.58 40.39Q75.31 41.29 72.00 41.45ZM74.32 43.84L74.18 43.70L74.31 43.84Q77.73 43.94 79.56 43.18L79.54 43.16L79.58 43.20Q80.39 42.33 80.39 40.92L80.38 40.91L80.54 41.08Q80.38 40.01 80.12 38.45L80.19 38.52L80.26 38.59Q79.68 35.35 80.06 32.34L80.12 32.39L80.06 32.34Q80.42 29.16 81.83 26.42L81.88 26.46L81.99 26.57Q81.22 26.76 79.89 27.18L79.86 27.15L79.96 27.25Q80.21 26.66 80.51 26.09L80.53 26.10L80.98 24.84L80.92 24.79Q79.08 25.53 75.92 26.03L75.83 25.93L75.89 26.00Q74.80 30.92 74.95 36.02L74.82 35.89L74.86 35.93Q74.93 38.02 72.27 38.51L72.34 38.58L71.94 38.64L71.80 38.65L70.73 38.38L70.73 38.38Q70.72 37.57 70.75 37.08L70.81 37.13L70.68 37.01Q70.94 32.54 70.25 28.12L70.24 28.11L69.26 28.04L69.21 27.99Q68.65 27.93 68.11 27.81L68.06 27.76L68.16 27.85Q67.79 26.46 67.52 25.69L67.56 25.74L67.46 25.63Q64.76 25.30 62.52 24.01L62.53 24.02L62.54 24.03Q64.68 27.54 65.40 30.93L65.39 30.91L65.28 30.80Q65.88 33.12 65.73 36.62L65.66 36.55L65.73 36.62Q65.74 36.75 65.67 37.85L65.67 37.86L65.73 37.91Q65.50 40.20 66.87 41.15L66.87 41.15L66.77 41.05Q67.30 43.44 74.30 43.82Z"/><path fill="#222" d="M15.65 47.13L15.57 47.04L15.69 47.17Q14.64 47.25 12.73 47.56L12.80 47.63L12.77 47.60Q13.97 45.33 14.99 44.03L15.00 44.03L15.03 44.07Q16.78 44.37 16.93 44.37L17.04 44.48L16.88 44.32Q17.34 44.55 17.87 44.43L17.83 44.39L17.74 44.31Q18.55 44.35 18.74 44.35L18.72 44.33L18.60 44.21Q21.33 44.13 21.26 41.96L21.19 41.89L21.21 41.91Q21.18 40.43 21.07 34.19L20.95 34.07L20.97 34.09Q20.94 30.57 21.02 26.42L21.13 26.52L22.44 26.24L22.53 26.32Q23.09 26.13 23.78 25.90L23.82 25.94L23.72 25.84Q23.52 30.29 23.56 34.67L23.68 34.79L23.51 34.61Q23.56 39.00 24.09 43.38L24.09 43.38L24.23 43.53Q24.27 43.79 24.27 44.05L24.29 44.08L24.20 43.98Q24.32 45.74 22.64 46.12L22.52 46.00L22.57 46.05Q19.47 46.46 15.63 47.10ZM22.35 22.83L20.30 19.80L20.16 19.66Q21.36 18.41 23.18 15.64L23.17 15.62L23.07 15.52Q23.75 16.43 25.08 18.26L25.16 18.33L22.42 22.91ZM25.44 49.52L25.47 49.56L25.42 49.51Q25.90 49.49 26.66 49.15L26.60 49.09L26.76 49.25Q27.02 48.48 27.02 48.03L27.09 48.09L26.97 47.98Q27.07 47.73 26.96 47.12L26.97 47.13L26.96 47.13Q25.50 40.61 25.50 32.69L25.62 32.80L25.59 32.78Q25.54 29.87 25.69 26.98L25.61 26.90L25.62 26.91Q25.17 27.18 24.03 27.49L24.09 27.54L23.99 27.45Q23.94 26.90 23.97 26.36L24.10 26.48L24.13 25.33L24.18 25.39Q22.53 26.10 20.74 26.14L20.67 26.07L20.62 26.02Q20.54 30.31 20.57 33.89L20.59 33.91L20.81 41.85L20.74 41.78Q20.79 43.73 18.62 43.85L18.73 43.96L18.71 43.94Q18.55 44.01 18.04 44.07L17.98 44.01L17.95 43.98Q17.48 44.09 17.22 44.09L17.20 44.07L17.15 44.02Q16.75 44.08 15.19 43.66L15.12 43.59L15.18 43.64Q14.61 44.15 13.51 45.82L13.63 45.94L11.97 48.13L12.09 48.24Q12.86 47.95 14.49 47.57L14.60 47.67L14.16 48.41L13.47 48.91L13.63 49.06Q15.74 48.74 17.07 48.81L17.26 49.00L17.23 48.97Q19.48 49.09 25.42 49.51ZM22.36 23.60L22.40 23.65L22.60 22.98L22.78 23.15Q23.09 23.54 24.05 25.14L24.11 25.20L24.02 25.12Q25.48 21.93 27.04 18.85L27.04 18.84L27.10 18.91Q26.12 17.32 25.17 16.03L25.17 16.03L25.21 16.06Q24.92 16.19 24.58 16.72L24.64 16.79L24.58 16.73Q24.24 16.16 23.25 14.87L23.26 14.88L23.28 14.89Q22.12 16.51 19.80 19.86L19.80 19.86L19.78 19.85Q20.58 20.95 22.30 23.54Z"/><path fill="#444" d="M122.49 27.83L122.47 27.81L122.47 27.81Q118.96 27.73 117.86 31.08L117.85 31.07L117.73 30.95Q117.46 32.13 117.35 33.19L117.25 33.10L117.37 33.22Q117.13 35.22 118.12 36.56L118.15 36.59L118.12 36.55Q119.30 37.58 121.77 37.62L121.91 37.76L121.97 37.82Q123.60 37.66 125.01 36.52L125.03 36.54L125.18 36.68Q126.49 35.45 126.49 33.66L126.60 33.77L126.53 33.70Q126.55 33.37 126.47 32.99L126.37 32.89L126.47 32.99Q126.16 27.77 122.35 27.69ZM122.22 40.12L122.33 40.23L122.34 40.25Q118.45 40.39 116.66 38.37L116.66 38.37L116.79 38.50Q116.46 39.43 116.00 40.80L115.94 40.74L115.97 40.76Q113.97 41.46 112.71 42.03L112.71 42.03L112.75 42.08Q114.95 36.12 114.95 29.61L114.89 29.56L114.98 29.64Q114.97 21.34 111.54 13.50L111.50 13.46L111.55 13.50Q113.93 14.89 115.26 15.35L115.30 15.38L115.30 15.39Q117.38 21.99 117.53 27.82L117.41 27.70L117.48 27.77Q118.97 25.15 122.71 25.19L122.74 25.22L122.74 25.22Q125.94 25.22 127.42 27.09L127.32 26.99L127.48 27.15Q129.19 29.32 129.34 32.90L129.38 32.93L129.29 32.84Q129.35 34.00 129.27 35.60L129.38 35.71L129.35 35.68Q129.36 37.18 128.49 38.32L128.42 38.26L128.48 38.32Q126.57 39.87 122.23 40.13ZM127.83 42.76L127.80 42.73L127.77 42.71Q129.21 42.66 130.70 41.98L130.73 42.00L130.74 42.02Q131.96 40.84 132.00 38.90L131.93 38.83L131.98 38.88Q131.90 38.31 131.75 37.13L131.75 37.13L131.72 37.10Q131.77 36.53 131.65 35.62L131.53 35.50L131.58 35.55Q130.83 30.84 129.26 28.78L129.21 28.72L129.12 28.64Q129.27 28.75 128.47 27.87L128.39 27.79L128.39 27.79Q128.12 27.49 127.59 26.69L127.66 26.76L127.52 26.62Q126.01 24.77 122.66 24.80L122.67 24.81L122.61 24.75Q120.62 24.86 119.36 25.47L119.31 25.41L119.28 25.38Q118.94 20.86 118.34 17.66L118.45 17.78L118.46 17.79Q117.65 17.55 116.17 17.17L116.28 17.28L116.13 17.13Q116.14 16.53 115.68 15.08L115.63 15.04L115.66 15.06Q113.21 14.25 110.96 12.69L110.85 12.57L110.98 12.70Q114.59 20.73 114.59 29.52L114.74 29.67L114.66 29.59Q114.63 36.53 112.16 42.74L112.24 42.82L112.25 42.83Q112.88 42.43 114.21 41.86L114.29 41.94L114.20 41.85Q114.08 42.71 113.47 44.24L113.42 44.19L113.37 44.14Q115.29 43.17 118.07 42.63L118.21 42.77L118.59 40.94L118.59 40.95Q120.77 42.52 127.70 42.63ZM123.96 29.99L124.07 30.10L124.08 30.11Q124.98 29.98 125.52 30.36L125.63 30.47L125.58 30.42Q125.90 30.93 126.12 32.95L126.19 33.01L126.16 32.98Q126.42 34.92 125.16 36.23L125.10 36.17L125.15 36.22Q123.79 37.43 121.85 37.32L121.97 37.43L121.95 37.42Q120.90 37.43 119.42 36.94L119.41 36.93L119.49 37.02Q119.29 36.54 119.29 36.01L119.26 35.99L119.24 35.97Q119.15 32.79 120.71 31.19L120.84 31.32L120.67 31.19L120.71 31.23Q122.15 29.85 123.90 29.93Z"/><path fill="#222" d="M94.84 28.86L94.87 28.89L94.84 28.86Q92.27 28.84 91.24 30.02L91.41 30.20L91.26 30.04Q90.22 31.21 90.22 33.84L90.35 33.97L90.24 33.86Q90.21 38.93 94.82 38.74L94.97 38.89L94.87 38.79Q96.97 38.99 98.32 37.43L98.38 37.49L98.29 37.40Q99.60 35.79 99.37 33.74L99.54 33.90L99.45 33.82Q99.43 31.24 98.55 30.21L98.53 30.20L98.53 30.20Q97.01 28.83 94.80 28.83ZM99.99 38.78L99.87 38.65L99.88 38.66Q98.76 41.20 94.08 41.20L93.97 41.08L92.59 41.15L92.62 41.18Q90.22 41.14 89.11 40.00L89.21 40.10L89.11 40.00Q88.04 38.93 87.78 36.53L87.82 36.58L87.79 36.55Q87.64 35.07 87.57 33.28L87.60 33.31L87.67 33.38Q87.50 32.26 87.35 30.32L87.38 30.35L87.43 30.40Q87.26 26.04 92.43 26.04L92.54 26.14L93.99 26.03L94.08 26.12Q96.98 26.13 99.08 27.43L99.11 27.46L99.09 27.44Q99.81 27.86 100.31 28.54L100.39 28.62L100.29 28.53Q100.64 27.81 101.17 26.17L101.14 26.14L101.15 26.16Q102.37 25.96 104.69 25.35L104.76 25.42L104.76 25.42Q102.00 29.48 102.00 34.73L102.07 34.80L102.08 34.81Q102.10 38.56 103.47 41.64L103.43 41.60L103.52 41.69Q102.35 41.36 100.45 41.13L100.46 41.15L100.43 41.11Q100.29 40.33 99.99 38.77ZM103.25 43.93L103.28 43.96L105.53 44.57L105.45 44.49Q106.64 44.77 107.63 45.23L107.71 45.31L107.70 45.30Q104.03 40.95 104.03 34.86L103.90 34.73L104.09 34.92Q103.99 30.29 106.13 26.48L106.06 26.41L106.08 26.44Q105.42 26.65 104.08 27.03L104.22 27.17L104.16 27.11Q104.55 26.39 105.42 24.86L105.31 24.75L105.32 24.76Q104.80 25.00 100.80 25.84L100.85 25.89L100.21 27.65L100.17 27.61Q98.44 25.92 94.02 25.69L94.04 25.70L94.11 25.77Q92.95 25.76 90.71 25.91L90.75 25.95L90.60 25.80Q86.89 26.13 87.01 30.17L87.09 30.25L87.13 30.29Q87.16 33.52 87.73 37.98L87.74 37.98L87.79 38.44L87.91 38.57Q87.97 39.35 88.77 40.46L88.74 40.43L88.70 40.39Q88.93 40.62 89.12 40.73L89.08 40.69L88.98 40.59Q89.31 41.15 89.69 41.72L89.65 41.68L89.68 41.71Q91.03 43.18 94.42 43.37L94.50 43.44L94.61 43.55Q96.06 43.49 96.21 43.49L96.39 43.66L97.78 43.49L97.96 43.67Q101.09 43.60 102.31 42.04L102.36 42.10L102.35 42.08Q102.59 42.60 103.20 43.89ZM96.69 31.17L96.76 31.24L96.60 31.08Q98.03 31.17 98.86 31.63L98.88 31.65L98.79 31.56Q99.07 32.33 99.07 33.78L99.14 33.84L99.16 33.87Q99.36 35.78 98.09 37.21L98.08 37.21L98.12 37.25Q96.81 38.63 94.90 38.44L94.83 38.37L94.99 38.53Q93.36 38.34 92.33 37.93L92.49 38.08L92.34 37.94Q92.33 37.28 92.33 36.06L92.30 36.03L92.31 36.04Q92.29 32.37 94.92 31.42L94.93 31.43L95.02 31.52Q95.97 31.25 96.77 31.25Z"/></svg>