<svg xmlns="http://www.w3.org/2000/svg" width="150" height="50" viewBox="0,0,150,50"><path fill="#444" d="M23.37 40.22L23.35 40.21L23.35 40.21Q21.52 40.16 19.84 40.73L19.70 40.59L19.84 40.73Q20.40 37.14 20.52 34.02L20.44 33.94L20.52 34.03Q20.50 30.85 20.27 27.19L20.42 27.34L20.35 27.27Q18.87 26.82 18.11 26.44L18.17 26.49L17.85 23.55L17.75 23.45Q18.49 24.08 20.09 24.65L20.18 24.74L20.09 24.65Q19.97 22.62 19.55 19.88L19.47 19.80L19.55 19.88Q21.82 20.55 23.45 20.40L23.50 20.44L23.21 24.88L23.39 25.05Q24.80 24.98 26.13 24.48L26.10 24.45L26.06 24.41Q25.97 25.27 25.74 27.02L25.75 27.04L25.77 27.06Q24.21 27.37 23.19 27.37L23.30 27.48L23.25 27.43Q23.22 29.57 23.22 33.83L23.23 33.84L23.26 33.87Q23.16 37.92 23.24 40.09ZM26.41 23.78L26.36 23.73L26.41 23.78Q26.19 23.93 25.58 24.16L25.59 24.17L25.95 21.37L25.96 21.38Q25.25 21.78 23.84 22.01L23.74 21.90L23.74 21.90Q23.81 21.29 23.96 19.92L23.97 19.92L23.95 19.90Q23.26 19.90 22.69 19.90L22.79 20.00L22.81 20.02Q20.53 19.88 18.90 19.15L19.03 19.28L18.87 19.13Q19.37 21.61 19.64 24.08L19.71 24.15L19.63 24.07Q18.91 23.88 17.38 22.86L17.32 22.79L17.41 22.88Q17.69 24.12 17.92 26.82L17.91 26.81L17.85 26.75Q18.41 27.08 19.59 27.50L19.48 27.39L19.61 27.52Q19.51 28.03 19.55 29.44L19.59 29.47L19.90 29.45L20.05 29.52L20.09 29.56Q20.18 30.83 20.18 32.01L20.20 32.03L20.16 31.99Q20.06 36.84 19.26 41.18L19.34 41.26L19.40 41.32Q19.59 41.20 21.53 40.67L21.51 40.65L21.55 40.69Q21.49 41.27 21.37 42.64L21.37 42.64L21.38 42.65Q22.22 42.61 23.01 42.61L22.90 42.50L22.96 42.56Q24.75 42.64 26.39 43.21L26.42 43.24L26.31 43.13Q24.95 37.39 25.14 29.47L25.25 29.58L27.50 29.05L27.56 29.11Q27.64 28.20 27.72 27.17L27.69 27.15L27.97 25.22L27.91 25.16Q27.42 25.51 26.24 25.96L26.09 25.82L26.27 26.00Q26.51 24.59 26.43 24.25L26.37 24.19L26.35 24.17Q26.34 23.97 26.41 23.78Z"/><path fill="#222" d="M74.98 27.23L74.93 27.18L74.98 27.24Q75.66 27.12 77.07 26.97L77.05 26.95L77.12 27.02Q77.17 27.75 77.17 28.39L77.04 28.27L76.99 29.47L77.11 29.59Q76.24 29.56 75.40 29.63L75.34 29.58L75.33 29.56Q74.52 29.63 73.68 29.59L73.72 29.63L73.66 29.57Q70.90 35.83 67.47 40.44L67.39 40.35L67.49 40.46Q64.92 41.04 63.62 41.65L63.70 41.72L63.62 41.65Q67.75 35.96 70.80 29.68L70.77 29.65L68.10 29.60L68.17 29.68Q68.20 28.38 68.09 27.04L68.07 27.03L68.10 27.06Q69.87 27.08 71.93 27.08L71.96 27.11L73.96 23.51L73.93 23.49Q74.92 21.58 76.14 19.98L76.21 20.05L76.10 19.94Q74.66 20.21 73.06 20.21L72.89 20.05L72.98 20.14Q66.95 20.19 63.18 17.98L63.13 17.94L62.43 16.17L62.48 16.22Q62.09 15.34 61.71 14.46L61.66 14.41L61.75 14.50Q66.12 17.16 71.83 17.39L71.84 17.39L71.88 17.44Q76.88 17.52 82.02 15.54L82.17 15.69L81.99 15.52Q81.97 16.10 81.47 16.98L81.45 16.96L81.38 16.89Q77.70 21.58 74.84 27.10ZM83.05 18.33L83.06 18.34L84.06 16.33L83.94 16.21Q83.00 16.71 81.32 17.44L81.30 17.41L81.60 17.22L81.45 17.07Q81.73 17.08 81.85 16.97L81.82 16.94L81.81 16.94Q82.11 16.17 82.84 14.84L82.84 14.85L82.83 14.83Q77.58 17.20 71.83 16.97L71.80 16.94L71.76 16.90Q65.82 16.70 61.06 13.74L61.07 13.75L60.92 13.60Q62.11 15.63 62.95 18.29L62.95 18.29L62.82 18.16Q63.93 18.81 64.73 19.12L64.74 19.13L64.81 19.20Q65.00 19.58 65.46 21.45L65.33 21.32L65.43 21.42Q68.55 22.63 74.07 22.48L74.06 22.47L74.13 22.54Q73.68 22.97 71.70 26.74L71.71 26.75L71.79 26.83Q69.70 26.80 67.72 26.60L67.69 26.57L67.74 26.62Q67.90 27.54 67.90 28.42L67.85 28.36L67.76 30.00L69.59 30.15L69.57 31.54L69.45 31.41Q65.65 38.93 62.88 42.50L62.87 42.50L62.72 42.34Q64.31 41.58 65.95 41.09L66.12 41.26L65.95 41.08Q65.44 42.18 64.07 43.89L63.99 43.81L63.98 43.80Q67.05 42.61 69.49 42.38L69.61 42.50L69.64 42.53Q72.48 38.67 75.60 31.90L75.59 31.88L79.04 32.09L79.05 32.10Q78.99 31.21 78.99 30.30L79.06 30.37L78.92 28.43L79.04 28.55Q78.67 28.45 78.11 28.49L78.25 28.62L78.17 28.54Q77.56 28.52 77.29 28.52L77.28 28.51L77.36 28.59Q77.29 28.41 77.33 28.26L77.38 28.31L77.49 28.14L77.36 28.02Q80.00 23.00 83.08 18.36Z"/><path fill="#222" d="M123.64 39.91L123.52 39.78L121.69 39.90L121.68 39.88Q120.60 39.76 119.65 39.88L119.82 40.05L119.79 40.02Q120.37 33.82 120.37 29.82L120.41 29.86L120.36 29.81Q116.25 23.00 108.60 14.32L108.74 14.46L108.68 14.40Q110.52 15.44 113.87 16.24L113.87 16.24L113.92 16.29Q118.89 21.79 121.90 27.01L121.94 27.05L121.81 26.92Q124.89 21.44 129.27 16.41L129.20 16.34L129.27 16.41Q131.78 16.10 134.29 15.30L134.12 15.14L134.27 15.29Q128.07 21.23 123.20 29.64L123.21 29.66L123.33 29.77Q123.36 36.85 123.67 39.94ZM132.66 17.25L135.42 14.45L135.29 14.33Q132.38 15.68 129.26 16.13L129.27 16.15L129.15 16.03Q124.96 20.78 122.14 25.88L122.23 25.97L122.15 25.89Q120.10 22.32 116.90 18.43L116.86 18.39L116.80 18.33Q116.64 18.44 116.14 18.36L115.99 18.20L116.05 18.27Q115.34 17.44 113.82 15.77L113.81 15.76L113.92 15.87Q110.53 15.11 107.56 13.55L107.56 13.55L107.54 13.53Q115.22 21.97 119.98 29.88L120.01 29.92L119.94 29.85Q119.78 36.12 119.17 40.27L119.24 40.35L119.20 40.30Q119.94 40.28 121.39 40.17L121.41 40.18L121.50 41.31L121.38 41.18Q121.39 41.65 121.31 42.19L121.41 42.28L121.35 42.22Q124.85 42.18 126.60 42.37L126.73 42.50L126.72 42.49Q125.44 37.78 125.33 31.81L125.26 31.74L125.31 31.79Q129.63 23.28 136.18 15.93L136.21 15.97L132.64 17.23Z"/><path fill="#222" d="M38.34 39.05L38.31 39.02L38.27 38.99Q40.15 36.60 44.91 29.33L44.79 29.22L44.83 29.25Q48.97 23.16 51.83 19.88L51.75 19.80L51.69 19.74Q49.73 20.18 47.63 20.18L47.57 20.11L47.51 20.05Q42.39 20.19 38.39 18.40L38.25 18.26L38.39 18.40Q37.71 16.46 37.02 14.90L37.00 14.87L37.03 14.90Q41.53 17.00 47.20 17.12L47.29 17.21L47.22 17.14Q52.31 17.17 57.49 15.26L57.48 15.25L57.58 15.35Q57.04 16.04 56.74 16.84L56.77 16.87L56.23 18.49L56.21 18.47Q53.20 22.17 49.20 27.99L49.22 28.01L45.90 32.84L45.82 32.75Q44.16 35.21 42.34 37.49L42.45 37.60L42.28 37.44Q45.71 36.95 49.03 37.03L49.02 37.02L49.05 37.05Q52.29 37.05 55.45 37.97L55.41 37.93L55.93 39.55L55.91 39.53Q56.24 40.44 56.58 41.27L56.50 41.19L56.54 41.22Q51.96 39.74 46.82 39.93L46.67 39.77L46.83 39.93Q41.71 40.14 37.22 42.16L37.12 42.06L37.16 42.10Q37.55 41.05 38.28 38.99ZM36.59 42.83L36.63 42.86L36.49 42.73Q37.78 42.19 38.58 41.92L38.58 41.92L38.57 41.91Q38.25 42.62 37.57 44.15L37.62 44.20L37.59 44.17Q43.34 42.08 49.32 42.31L49.30 42.29L49.31 42.30Q55.53 42.43 60.56 45.21L60.65 45.30L60.65 45.30Q59.27 42.93 58.47 40.76L58.34 40.63L58.37 40.66Q57.88 40.44 56.36 39.87L56.45 39.96L56.39 39.90Q56.27 39.21 55.85 37.72L55.88 37.76L55.84 37.71Q51.60 36.44 46.50 36.63L46.50 36.63L46.62 36.75Q48.78 34.04 52.32 28.48L52.18 28.34L52.16 28.32Q55.89 22.68 57.79 20.13L57.85 20.19L57.88 20.22Q58.33 18.77 59.36 16.07L59.35 16.06L59.27 15.97Q58.69 16.43 57.24 17.03L57.12 16.91L57.17 16.96Q57.46 16.11 58.18 14.58L58.30 14.70L58.22 14.63Q52.92 16.79 47.21 16.71L47.27 16.77L47.19 16.69Q41.20 16.56 36.25 14.05L36.37 14.17L36.30 14.10Q37.48 16.49 38.20 18.74L38.15 18.69L38.06 18.60Q39.16 19.13 39.96 19.36L39.99 19.38L40.04 19.44Q40.28 20.10 40.55 21.55L40.59 21.59L40.65 21.65Q44.27 22.60 49.14 22.41L49.22 22.49L49.10 22.37Q46.82 25.68 43.51 30.67L43.39 30.56L37.92 38.94L37.89 38.91Q37.63 40.29 36.60 42.84Z"/><path fill="#333" d="M100.16 41.19L100.14 41.17L97.23 41.12L97.27 41.16Q94.89 41.06 94.09 40.95L94.03 40.88L93.95 40.80Q92.25 40.59 91.07 39.71L91.10 39.74L91.06 39.70Q89.63 38.15 89.40 34.80L89.55 34.96L89.54 34.95Q89.37 34.32 89.29 33.10L89.36 33.17L89.37 33.17Q89.29 32.68 89.21 31.57L89.24 31.60L89.25 31.61Q89.35 30.91 89.39 30.19L89.29 30.09L89.39 30.19Q89.51 28.18 90.54 27.42L90.52 27.40L90.58 27.46Q92.38 26.17 97.21 25.95L97.28 26.01L97.24 25.97Q99.34 25.94 100.14 25.94L100.16 25.96L100.14 25.94Q101.51 25.83 102.88 26.13L102.93 26.18L102.96 26.21Q102.45 27.53 101.92 29.36L101.82 29.25L101.90 29.34Q101.44 29.45 100.94 29.41L100.93 29.39L100.86 29.33Q100.79 29.33 100.26 29.22L100.20 29.16L99.30 28.99L99.37 29.06Q98.22 28.71 97.62 28.75L97.50 28.63L97.67 28.80Q92.89 28.82 92.28 31.64L92.27 31.62L92.32 31.67Q91.97 32.73 92.04 33.68L92.16 33.79L92.13 33.77Q92.13 36.21 93.37 37.29L93.54 37.46L93.45 37.37Q94.69 38.46 97.28 38.49L97.34 38.56L97.22 38.43Q98.81 38.58 99.53 38.28L99.41 38.15L100.44 37.67L100.57 37.79Q101.01 37.47 101.58 37.40L101.65 37.47L101.66 37.47Q101.91 39.28 102.29 40.57L102.17 40.45L102.24 40.53Q102.06 40.96 100.28 41.30ZM103.46 44.18L103.46 44.18L103.40 44.12Q103.88 44.26 104.71 44.33L104.66 44.28L104.72 44.34Q105.38 44.39 105.72 43.82L105.74 43.83L105.64 43.74Q104.51 41.73 104.01 39.63L103.86 39.48L103.98 39.61Q103.56 39.49 103.10 39.49L103.24 39.62L103.23 39.62Q102.71 39.51 102.32 39.70L102.31 39.68L102.30 39.67Q102.11 38.57 101.96 37.16L101.83 37.03L101.95 37.16Q101.22 36.96 100.00 37.53L100.01 37.54L99.95 37.47Q98.91 38.23 98.42 38.23L98.32 38.13L98.32 38.13Q97.85 38.15 97.24 38.11L97.35 38.23L97.23 38.10Q96.43 38.18 94.45 37.61L94.39 37.55L94.43 37.59Q94.08 36.86 94.12 35.72L94.03 35.63L94.15 35.75Q94.26 31.44 99.21 30.91L99.13 30.83L99.27 30.97Q99.89 30.90 101.26 31.24L101.19 31.18L101.34 31.33Q102.58 31.54 103.31 31.50L103.44 31.64L103.42 31.62Q103.81 29.34 104.49 27.51L104.35 27.38L104.52 27.54Q104.10 27.39 103.72 27.31L103.69 27.28L102.88 27.15L103.02 27.30Q103.19 26.79 103.57 25.91L103.41 25.75L103.42 25.76Q102.05 25.56 100.48 25.56L100.47 25.55L100.48 25.56Q98.02 25.50 93.64 25.88L93.66 25.90L93.65 25.89Q91.77 26.10 90.21 27.09L90.06 26.94L90.15 27.03Q88.86 27.91 88.86 29.82L88.88 29.83L88.84 29.80Q88.98 30.35 89.09 31.57L89.13 31.61L88.95 31.42Q89.19 32.61 89.15 33.22L89.08 33.15L89.15 33.23Q89.04 34.98 89.76 38.71L89.83 38.78L89.80 38.75Q90.17 39.58 90.67 40.07L90.66 40.06L90.92 40.32L91.06 40.43L90.95 40.32Q92.00 42.47 95.92 43.08L95.99 43.15L96.00 43.16Q99.11 43.60 101.77 43.87L101.85 43.94L101.68 43.78Q102.49 43.86 103.40 44.12Z"/></svg>