<svg xmlns="http://www.w3.org/2000/svg" width="150" height="50" viewBox="0,0,150,50"><path fill="#333" d="M104.55 23.22L104.67 23.33L104.64 23.30Q102.83 19.13 96.63 19.32L96.79 19.49L96.67 19.37Q92.27 19.50 90.29 20.95L90.26 20.92L90.28 20.94Q87.99 22.79 87.99 26.90L87.84 26.76L87.85 28.63L87.94 28.72Q87.96 37.57 96.98 37.57L96.84 37.43L96.87 37.46Q99.05 37.58 100.53 36.78L100.40 36.65L100.52 36.78Q102.29 35.69 102.14 33.82L102.18 33.87L102.16 33.84Q101.98 31.76 98.29 30.85L98.19 30.75L96.30 30.80L96.43 30.92Q95.34 30.79 94.38 30.83L94.35 30.80L94.37 30.81Q94.51 30.00 94.47 28.09L94.48 28.10L94.37 27.99Q102.14 28.11 106.32 27.76L106.21 27.65L106.22 27.67Q106.10 28.41 106.10 29.21L106.13 29.25L106.17 29.29Q106.24 30.15 106.28 30.95L106.13 30.81L106.15 30.83Q105.18 30.96 105.18 30.96L105.19 30.97L105.10 30.88Q103.62 30.77 104.00 30.77L104.18 30.95L104.11 30.88Q105.18 32.49 105.56 34.47L105.53 34.43L105.62 34.53Q105.64 35.15 105.64 35.61L105.69 35.66L105.60 35.57Q105.74 40.35 96.95 40.35L96.98 40.39L96.86 40.27Q89.73 40.26 87.14 38.17L87.17 38.19L87.27 38.30Q85.23 35.87 85.23 30.81L85.25 30.82L85.25 30.83Q85.28 29.79 85.13 27.09L85.15 27.11L85.13 27.09Q84.82 24.58 84.86 23.21L85.02 23.37L85.00 23.35Q85.02 20.39 86.39 18.80L86.52 18.92L86.39 18.79Q88.94 16.74 93.81 16.55L93.86 16.59L96.50 16.50L96.58 16.57Q99.50 16.30 102.93 16.72L103.12 16.91L103.01 16.80Q106.88 17.39 107.83 20.63L107.77 20.57L107.82 20.62Q106.65 21.39 104.56 23.22ZM106.07 25.54L106.12 25.47L106.18 25.53Q107.35 24.41 109.22 22.43L109.19 22.41L109.21 22.43Q108.98 21.55 107.99 19.84L107.82 19.67L107.81 19.66Q106.68 17.04 102.87 16.39L102.91 16.44L102.86 16.38Q100.87 16.41 96.57 16.10L96.55 16.08L93.80 16.16L93.77 16.12Q88.73 16.46 86.15 18.44L86.01 18.30L85.97 18.26Q84.73 20.03 84.61 23.11L84.47 22.97L84.51 23.01Q84.55 22.59 84.78 28.07L84.75 28.04L84.81 28.10Q84.85 29.48 84.93 32.22L84.97 32.26L84.90 32.19Q85.13 36.68 86.88 38.62L86.84 38.59L86.88 38.62Q87.15 39.35 88.02 40.22L88.19 40.39L88.18 40.38Q90.94 42.11 96.46 42.45L96.42 42.41L99.40 42.69L99.33 42.62Q101.08 42.89 103.10 42.77L103.09 42.77L103.05 42.73Q104.56 42.72 106.66 42.18L106.53 42.06L106.65 42.18Q108.51 41.60 108.47 39.28L108.39 39.20L108.48 39.29Q108.43 37.98 107.37 35.20L107.45 35.29L107.47 35.31Q107.08 34.31 106.55 33.51L106.64 33.61L106.57 33.54Q107.14 33.53 108.32 33.72L108.42 33.82L108.44 33.84Q107.96 30.05 108.00 29.36L108.15 29.51L108.09 29.46Q107.64 29.39 107.22 29.35L107.36 29.48L107.36 29.49Q106.94 29.41 106.56 29.49L106.56 29.48L106.61 29.54Q106.57 28.39 106.65 27.33L106.55 27.23L106.65 27.33Q100.36 27.82 94.08 27.70L94.01 27.63L94.05 27.67Q94.16 28.66 94.16 29.57L94.01 29.42L94.16 31.32L94.06 31.22Q94.48 31.26 94.89 31.22L94.82 31.15L94.99 31.32Q95.36 31.26 95.81 31.26L95.67 31.12L95.70 31.15Q95.75 31.66 95.79 32.16L95.86 32.23L95.75 32.11Q95.77 32.59 95.73 33.09L95.82 33.17L95.72 33.07Q96.75 33.04 97.77 33.00L97.92 33.14L97.80 33.03Q98.84 33.04 99.87 33.07L99.82 33.02L99.88 33.08Q100.90 33.30 101.77 33.68L101.85 33.76L101.74 33.69L101.81 33.76Q102.05 35.37 100.37 36.28L100.23 36.14L100.37 36.28Q98.66 37.15 96.94 37.15L96.84 37.05L97.03 37.24Q93.01 37.06 90.57 35.31L90.67 35.41L90.73 35.47Q89.76 33.44 89.92 30.89L89.88 30.85L89.94 30.92Q90.11 25.98 91.95 23.98L91.93 23.95L91.92 23.94Q93.81 21.98 98.49 21.68L98.46 21.65L98.46 21.66Q102.18 21.49 104.12 23.28L104.19 23.35L104.13 23.28Q104.15 23.35 104.27 23.54L104.23 23.50L104.43 23.59L104.45 23.61Q105.04 24.31 105.61 25.41L105.74 25.55L105.97 25.43Z"/><path fill="#333" d="M15.16 15.92L15.12 15.88L15.14 15.89Q17.08 20.81 17.66 25.98L17.56 25.89L17.52 25.84Q21.37 21.85 27.27 17.02L27.26 17.01L27.19 16.94Q30.35 16.60 32.98 15.80L33.02 15.84L26.41 21.42L26.54 21.54Q23.07 24.44 20.22 27.29L20.27 27.34L20.26 27.33Q28.15 36.40 33.21 41.12L33.27 41.18L33.17 41.08Q30.16 40.23 27.83 40.08L27.83 40.08L27.86 40.11Q22.06 34.69 17.76 28.87L17.76 28.87L17.75 28.86Q17.89 35.50 16.02 40.83L16.04 40.85L16.02 40.84Q15.77 40.85 15.28 41.04L15.19 40.95L15.25 41.20L15.12 41.07Q15.10 41.28 12.55 42.19L12.43 42.08L12.38 42.03Q15.31 35.44 14.97 27.98L15.02 28.03L15.08 28.09Q14.73 20.73 11.19 14.22L11.19 14.23L11.67 14.44L12.18 14.84L12.25 14.87L12.23 14.85Q12.90 15.17 15.10 15.86ZM15.34 15.52L15.32 15.51L15.40 15.58Q13.00 14.89 10.37 13.37L10.49 13.49L10.39 13.39Q14.83 20.84 14.83 29.78L14.73 29.68L14.80 29.75Q14.78 36.74 11.81 42.79L11.79 42.77L13.81 41.90L13.80 41.88Q13.40 42.89 12.71 44.19L12.75 44.22L12.76 44.23Q14.96 43.39 16.91 42.97L16.97 43.04L16.93 42.77L17.00 42.84Q17.28 42.82 17.85 42.67L17.91 42.72L17.91 42.72Q19.56 36.80 19.68 32.00L19.51 31.84L19.59 31.91Q21.73 34.48 23.56 36.34L23.50 36.28L23.44 36.22Q24.73 37.44 27.74 40.40L27.76 40.43L27.75 40.42L27.84 40.51Q28.78 41.26 30.65 42.86L30.53 42.74L30.63 42.84Q34.54 43.59 38.00 45.30L37.98 45.28L37.87 45.17Q28.62 36.65 22.38 29.22L22.50 29.35L22.40 29.25Q26.90 25.07 35.66 16.46L35.64 16.45L35.51 16.32Q33.13 17.63 31.11 18.01L30.95 17.84L30.93 17.83Q32.19 16.87 34.51 14.86L34.56 14.91L34.51 14.86Q30.40 16.26 27.05 16.45L27.14 16.54L27.11 16.52Q24.21 18.76 19.34 23.44L19.29 23.39L19.29 23.39Q18.94 20.84 18.37 18.29L18.35 18.26L18.32 18.23Q17.15 18.09 16.16 17.75L16.10 17.69L16.21 17.80Q15.86 16.91 15.29 15.47Z"/><path fill="#222" d="M113.73 41.12L113.67 41.05L113.77 41.15Q116.90 36.86 123.60 28.94L123.56 28.90L123.52 28.86Q117.70 29.17 113.93 27.80L113.84 27.71L114.00 27.87Q113.28 26.39 112.52 24.98L112.55 25.01L112.40 24.86Q116.55 26.42 121.00 26.46L120.99 26.45L120.98 26.44Q125.44 26.48 129.62 25.41L129.74 25.53L129.57 25.36Q129.26 26.11 128.99 26.64L129.05 26.70L129.03 26.68Q126.42 28.83 123.60 32.44L123.73 32.57L118.75 38.70L118.74 38.69Q120.98 38.50 123.22 38.58L123.17 38.52L123.33 38.68Q125.32 38.54 127.57 38.92L127.74 39.09L127.66 39.01Q127.73 39.54 128.45 41.56L128.46 41.57L128.60 41.71Q124.76 40.76 120.76 40.87L120.72 40.83L120.74 40.85Q116.75 40.93 113.09 42.11L113.24 42.26L113.17 42.19Q113.25 42.04 113.70 41.09ZM112.58 42.78L112.67 42.87L112.58 42.78Q113.47 42.57 115.07 42.15L115.00 42.08L114.95 42.03Q114.72 42.26 114.31 42.68L114.41 42.78L114.28 42.65Q114.02 43.19 113.41 44.33L113.57 44.49L113.49 44.41Q118.18 43.05 123.17 43.20L123.20 43.23L123.13 43.16Q128.20 43.44 132.77 45.31L132.72 45.26L132.64 45.18Q131.30 43.41 130.38 41.36L130.28 41.26L130.33 41.30Q129.55 40.98 128.48 40.75L128.56 40.83L128.60 40.87Q128.29 40.03 127.91 38.58L127.87 38.54L127.91 38.58Q126.43 38.32 122.85 38.20L122.83 38.18L122.86 38.21Q125.13 34.77 130.15 28.41L130.31 28.57L130.15 28.41Q130.46 27.73 131.15 26.40L131.24 26.49L128.92 27.22L128.97 27.27Q129.01 27.15 129.16 27.04L129.11 26.99L129.42 26.91L129.27 26.77Q129.88 25.86 130.45 24.91L130.36 24.82L130.37 24.83Q125.72 26.18 121.00 26.11L121.03 26.15L120.90 26.01Q116.11 25.94 111.61 24.11L111.67 24.17L111.72 24.22Q112.86 26.04 113.66 28.10L113.62 28.05L113.59 28.03Q114.56 28.47 115.63 28.73L115.65 28.76L115.51 28.62Q115.77 29.37 116.07 30.81L116.15 30.90L116.09 30.83Q117.75 31.16 121.06 31.31L121.07 31.33L121.03 31.28Q118.52 34.48 113.34 40.92L113.37 40.94L113.36 40.93Q113.17 41.58 112.60 42.80Z"/><path fill="#444" d="M38.22 14.21L38.30 14.29L38.26 14.25Q42.10 16.83 46.86 17.06L46.97 17.17L46.92 17.13Q51.52 17.27 55.78 15.52L55.84 15.57L55.73 15.47Q55.55 16.08 54.79 18.86L54.76 18.83L54.80 18.88Q52.07 19.92 49.10 20.07L49.10 20.07L49.04 20.01Q46.01 20.10 43.12 19.38L43.23 19.48L43.16 19.42Q43.95 23.14 44.14 26.79L44.09 26.74L44.14 26.79Q46.06 26.92 47.66 26.88L47.71 26.93L47.64 26.87Q48.93 26.93 51.33 26.82L51.19 26.69L51.32 26.81Q51.19 27.37 51.19 28.05L51.27 28.14L51.16 29.36L51.32 29.51Q48.89 29.49 44.09 29.56L44.07 29.54L44.16 29.63Q44.01 33.60 43.44 37.59L43.45 37.60L43.53 37.68Q46.10 36.98 48.84 37.09L48.89 37.14L48.82 37.06Q51.64 37.26 54.22 38.10L54.14 38.01L54.15 38.02Q54.18 38.77 54.44 39.53L54.58 39.67L54.96 41.12L54.91 41.06Q51.80 39.86 48.37 39.86L48.38 39.86L48.39 39.88Q43.53 39.89 39.27 42.14L39.11 41.97L39.17 42.04Q41.57 35.30 41.30 28.18L41.27 28.15L41.22 28.10Q40.97 20.96 38.31 14.30ZM38.69 42.77L38.74 42.83L38.64 42.72Q40.01 42.12 40.77 41.77L40.81 41.81L40.67 41.68Q40.52 42.48 39.95 44.00L39.94 43.99L39.97 44.02Q44.46 42.00 49.52 42.27L49.52 42.26L49.59 42.33Q54.81 42.68 58.81 45.38L58.79 45.36L58.76 45.33Q57.51 42.71 56.82 40.77L56.89 40.84L56.93 40.87Q55.92 40.24 54.93 39.90L54.92 39.90L54.78 39.76Q54.49 38.48 54.34 37.68L54.31 37.65L54.36 37.70Q51.19 36.62 48.03 36.62L48.01 36.60L48.07 36.67Q47.03 36.76 45.88 36.87L45.88 36.87L45.89 36.88Q45.99 35.61 46.03 34.39L45.97 34.33L45.98 31.76L45.95 31.73Q47.89 31.76 49.68 31.80L49.60 31.72L49.62 31.74Q51.42 31.75 53.21 31.90L53.21 31.91L53.31 32.00Q53.19 31.01 53.19 30.06L53.21 30.08L53.22 28.18L52.40 28.24L52.43 28.26Q51.98 28.31 51.52 28.31L51.53 28.32L51.61 28.40Q51.46 27.57 51.62 26.27L51.59 26.25L51.61 26.27Q50.15 26.63 48.97 26.67L48.82 26.53L48.89 26.59Q48.02 26.68 46.19 26.60L46.04 26.45L46.15 26.55Q46.13 25.20 45.94 22.38L45.79 22.24L45.77 22.21Q46.80 22.33 47.79 22.33L47.80 22.34L47.94 22.48Q52.57 22.39 56.26 20.49L56.38 20.60L56.33 20.56Q56.89 18.18 57.76 15.97L57.70 15.91L57.65 15.87Q56.40 16.78 55.56 17.13L55.55 17.12L55.50 17.06Q55.93 16.42 56.38 14.86L56.23 14.71L56.35 14.83Q51.64 16.90 46.77 16.59L46.85 16.68L46.77 16.59Q41.52 16.33 37.68 13.48L37.63 13.43L37.58 13.38Q40.62 20.50 40.93 28.11L40.85 28.04L40.78 27.96Q41.17 35.96 38.66 42.74Z"/><path fill="#333" d="M79.73 30.28L79.78 30.33L79.86 30.41Q80.02 30.07 79.98 29.65L79.83 29.50L79.84 29.51Q79.81 29.18 79.51 28.99L79.55 29.03L79.46 28.94Q78.83 28.46 77.95 28.61L77.83 28.49L77.87 28.53Q76.78 28.50 75.14 29.61L75.20 29.66L75.15 29.62Q73.75 30.54 73.75 31.72L73.67 31.64L73.80 31.77Q73.68 32.90 73.68 36.22L73.87 36.40L73.85 36.39Q73.80 38.93 73.96 40.95L73.92 40.91L73.82 40.81Q72.22 40.92 72.22 40.92L72.20 40.90L72.12 40.83Q71.20 40.85 70.47 40.93L70.49 40.95L70.40 40.86Q70.92 38.44 71.00 36.20L70.94 36.14L70.98 36.18Q71.18 31.59 70.54 30.29L70.56 30.31L70.48 30.23Q70.14 29.59 69.57 29.29L69.52 29.24L69.61 29.33Q68.87 28.70 67.30 28.58L67.26 28.54L67.13 28.41Q65.26 28.33 64.73 29.93L64.65 29.85L64.66 29.86Q64.51 30.36 64.63 30.86L64.71 30.94L64.72 30.95Q65.28 33.60 64.93 36.38L64.86 36.30L64.94 36.38Q64.73 39.30 63.32 41.73L63.17 41.58L63.29 41.70Q62.23 41.82 60.14 42.24L60.10 42.21L60.12 42.22Q62.62 38.97 62.62 34.67L62.66 34.72L62.68 34.73Q62.60 28.79 58.56 24.56L58.61 24.61L58.56 24.56Q59.39 24.93 60.34 25.16L60.20 25.01L61.99 25.48L62.03 25.52Q62.54 26.18 63.41 27.85L63.44 27.88L63.42 27.86Q63.49 25.87 65.93 25.83L65.87 25.78L66.02 25.93Q66.06 25.78 67.05 25.85L67.20 26.00L67.13 25.93Q72.06 26.18 73.20 28.99L73.31 29.11L73.27 29.06Q74.89 26.31 79.91 25.77L80.07 25.93L79.90 25.76Q80.69 25.67 81.56 25.79L81.63 25.86L81.52 25.74Q83.77 25.98 83.62 27.54L83.64 27.56L83.67 27.59Q83.63 28.27 83.36 29.03L83.29 28.96L83.36 29.03Q81.91 31.99 82.14 35.54L82.20 35.60L82.13 35.53Q82.37 39.05 84.28 41.86L84.15 41.74L84.16 41.75Q82.62 41.54 80.79 41.31L80.74 41.25L80.70 41.21Q79.54 38.72 79.35 35.94L79.25 35.85L79.26 35.86Q79.10 33.03 79.75 30.29ZM80.44 41.57L80.50 41.63L80.54 41.66Q81.19 41.67 82.52 41.86L82.60 41.94L82.56 41.90Q83.12 42.65 84.26 44.06L84.25 44.04L84.32 44.12Q87.13 44.56 89.22 45.21L89.34 45.33L89.18 45.17Q84.30 41.39 84.04 34.88L84.03 34.88L83.91 34.76Q83.83 32.66 84.44 30.76L84.53 30.84L84.56 30.87Q84.73 29.94 84.73 29.22L84.69 29.18L84.71 29.20Q84.77 28.35 84.16 27.78L84.21 27.83L83.99 27.57L84.08 27.66Q84.14 27.15 84.07 26.65L84.11 26.70L83.99 26.58Q84.07 26.23 83.61 25.97L83.51 25.87L83.58 25.94Q82.80 25.35 81.93 25.32L82.05 25.43L81.91 25.30Q79.11 25.23 76.44 26.19L76.40 26.15L76.42 26.16Q74.54 26.95 73.36 28.36L73.24 28.24L73.33 28.33Q71.65 25.74 66.82 25.40L66.88 25.45L66.86 25.43Q66.19 25.41 65.77 25.41L65.86 25.51L65.91 25.55Q63.71 25.40 63.10 26.66L63.24 26.80L63.08 26.65Q62.75 26.12 62.06 25.05L62.11 25.10L62.11 25.11Q59.70 24.63 57.72 23.99L57.72 23.98L57.79 24.05Q62.40 28.40 62.40 34.68L62.39 34.67L62.38 34.66Q62.36 39.36 59.51 42.83L59.50 42.82L59.52 42.84Q59.99 42.70 60.49 42.63L60.55 42.69L61.48 42.48L61.35 42.35Q60.63 43.38 59.53 44.60L59.55 44.63L59.70 44.77Q61.31 44.44 64.43 43.83L64.41 43.81L64.40 43.80Q67.00 39.62 67.00 34.71L67.09 34.80L67.01 34.72Q66.94 33.86 66.87 33.02L66.94 33.10L66.97 33.13Q66.97 32.43 67.96 31.63L67.80 31.48L67.82 31.54L67.91 31.63Q68.51 31.16 69.69 31.04L69.70 31.06L69.71 31.07Q70.04 30.98 70.35 30.98L70.43 31.06L70.43 31.25L70.43 31.25Q70.82 34.08 70.71 36.44L70.69 36.42L70.52 36.26Q70.43 38.56 69.94 41.23L69.97 41.26L70.01 41.30Q70.97 41.24 70.97 41.24L71.04 41.30L71.11 41.37Q72.48 41.29 72.13 41.29L72.13 41.29L72.03 41.19Q72.12 41.78 72.08 42.23L72.06 42.20L72.19 42.34Q72.00 42.64 72.00 43.14L72.03 43.17L74.48 43.15L74.52 43.18Q75.72 43.13 76.97 43.20L77.11 43.33L77.03 43.26Q75.48 39.54 75.67 33.60L75.66 33.59L75.81 33.74Q75.84 32.63 77.02 31.87L76.85 31.70L76.99 31.83Q77.82 30.95 79.07 30.76L79.02 30.70L79.37 30.75L79.36 30.74Q78.94 32.68 78.94 34.66L79.04 34.76L78.98 34.70Q79.03 38.52 80.55 41.68ZM74.94 30.05L75.22 30.10L75.11 30.33L74.97 30.08Z"/></svg>