<svg xmlns="http://www.w3.org/2000/svg" width="150" height="50" viewBox="0,0,150,50"><path fill="#111" d="M43.06 40.28L43.04 40.25L43.06 40.27Q41.71 40.41 40.15 39.99L40.25 40.10L40.12 39.96Q38.94 39.08 38.79 37.45L38.75 37.41L38.85 37.51Q38.73 37.24 38.92 34.61L38.90 34.59L38.86 34.55Q39.97 34.44 41.99 34.06L42.09 34.16L41.79 34.82L41.78 34.80Q41.49 36.54 42.90 37.11L42.89 37.09L42.89 37.10Q43.70 37.45 45.80 37.45L45.91 37.56L45.75 37.40Q47.39 37.30 47.58 37.22L47.57 37.21L47.71 37.35Q48.62 37.19 49.34 36.69L49.20 36.56L49.28 36.63Q50.58 35.57 50.39 33.48L50.54 33.63L50.46 33.55Q50.20 31.04 48.47 29.48L48.62 29.64L48.53 29.55Q46.79 27.98 44.32 27.98L44.33 28.00L44.44 27.88L44.26 27.69Q44.74 27.75 45.61 27.67L45.53 27.59L45.54 27.61Q47.59 27.63 48.96 26.40L48.83 26.27L48.89 26.32Q50.24 25.07 50.40 23.21L50.32 23.13L50.31 23.12Q50.44 22.83 50.44 22.49L50.43 22.48L50.53 22.58Q50.44 20.97 49.07 20.05L49.12 20.10L49.04 20.03Q47.81 19.21 46.21 19.33L46.33 19.44L46.22 19.33Q44.91 19.16 43.69 19.58L43.82 19.72L43.85 19.74Q42.36 20.24 42.06 21.38L42.03 21.35L42.12 21.44Q41.83 22.11 41.91 22.87L41.93 22.88L41.92 22.88Q40.86 22.62 38.80 21.90L38.86 21.95L38.76 21.85Q38.63 20.27 38.67 19.43L38.65 19.41L38.72 19.48Q38.84 17.97 39.91 17.29L39.76 17.14L39.82 17.20Q41.28 16.64 42.87 16.64L42.80 16.56L42.81 16.57Q45.89 16.46 49.05 16.72L49.22 16.89L49.14 16.81Q54.22 17.25 53.91 21.02L53.81 20.91L53.91 21.01Q53.76 22.42 53.26 23.98L53.31 24.03L53.38 24.10Q52.35 27.07 49.99 27.98L50.16 28.15L50.11 28.09Q52.59 28.49 53.20 31.84L53.39 32.02L53.31 31.94Q53.59 33.14 53.66 35.16L53.52 35.01L53.51 35.00Q53.84 39.63 49.23 40.09L49.18 40.04L49.17 40.03Q48.33 39.99 43.04 40.26ZM48.44 42.68L48.30 42.55L48.37 42.62Q48.99 42.67 51.85 42.74L51.83 42.72L51.87 42.76Q53.66 42.87 55.29 42.23L55.19 42.12L55.26 42.19Q56.40 41.20 56.21 39.45L56.20 39.44L56.16 39.41Q56.05 38.07 55.75 36.32L55.75 36.33L55.81 36.39Q54.95 31.76 53.01 30.12L53.19 30.30L52.99 29.92L52.86 29.75L52.96 29.84Q54.69 28.38 55.45 24.00L55.42 23.97L55.35 23.89Q55.47 23.53 55.59 22.57L55.57 22.55L55.47 22.46Q55.70 21.85 55.62 21.16L55.56 21.10L55.55 21.09Q55.30 19.32 54.01 18.63L54.07 18.70L54.01 18.71L54.08 18.78Q53.80 17.82 52.66 17.29L52.56 17.18L52.57 17.19Q51.12 16.58 45.98 16.28L45.81 16.11L45.93 16.23Q44.13 16.03 42.54 16.03L42.70 16.20L42.68 16.17Q40.96 16.05 39.43 16.70L39.47 16.74L39.59 16.85Q38.35 17.60 38.35 19.35L38.23 19.23L38.37 19.37Q38.37 18.94 38.63 22.29L38.58 22.24L38.50 22.16Q38.94 22.37 40.58 22.98L40.59 23.00L40.48 22.88Q40.48 23.42 40.44 23.91L40.55 24.02L40.54 24.01Q40.46 24.43 40.50 24.96L40.59 25.05L40.41 24.87Q42.33 25.38 44.35 25.50L44.24 25.39L44.37 25.52Q44.22 23.43 45.32 22.59L45.34 22.60L45.39 22.66Q46.08 21.86 48.10 21.63L48.10 21.63L48.12 21.65Q49.38 21.77 49.95 21.96L49.87 21.88L49.85 21.86Q49.93 22.02 49.97 22.13L49.91 22.07L50.00 22.35L50.14 22.95L50.09 22.90Q50.19 23.19 50.15 23.34L49.99 23.18L50.14 23.33Q49.99 24.98 48.47 26.16L48.40 26.08L48.54 26.22Q47.52 27.03 45.51 27.22L45.58 27.30L45.44 27.16Q44.90 27.49 44.02 27.49L43.89 27.36L43.86 27.33Q44.06 27.83 44.21 28.52L44.03 28.34L44.15 28.46Q45.88 28.44 47.33 29.16L47.25 29.09L47.19 29.13L45.59 29.29L45.69 29.39Q45.69 29.70 45.81 30.31L45.72 30.21L45.72 30.22Q47.85 30.14 49.57 31.48L49.58 31.49L49.68 31.59Q49.85 31.91 50.15 33.55L50.13 33.53L50.21 33.60Q50.36 36.50 47.43 36.92L47.49 36.98L47.41 36.89Q45.34 37.19 44.77 37.15L44.78 37.16L44.75 37.12Q44.36 37.08 43.83 37.01L43.83 37.01L43.84 36.56L43.79 35.94L43.88 35.61L43.89 35.28L44.05 35.44Q42.96 35.38 42.16 35.57L42.29 35.70L42.24 35.65Q42.23 35.44 42.23 35.25L42.10 35.13L42.21 35.24Q42.15 34.95 42.15 34.72L42.29 34.86L42.21 34.78Q42.18 34.29 42.33 33.57L42.36 33.59L42.48 33.71Q40.45 33.78 38.58 34.12L38.77 34.31L38.63 34.17Q38.72 34.76 38.61 35.88L38.48 35.75L38.57 35.84Q38.55 37.05 38.55 37.66L38.36 37.48L38.48 37.60Q38.57 39.67 39.94 40.43L39.84 40.33L39.91 40.40Q41.30 42.58 46.02 42.39L46.11 42.49L46.00 42.38Q46.76 42.38 48.29 42.53Z"/><path fill="#222" d="M13.55 38.93L13.55 38.93L13.66 39.04Q15.46 36.58 20.22 29.31L20.21 29.30L20.25 29.34Q24.31 23.16 27.17 19.89L27.06 19.78L27.16 19.88Q24.93 20.05 22.84 20.05L22.86 20.07L22.95 20.16Q17.60 20.06 13.60 18.27L13.67 18.35L13.62 18.29Q12.93 16.34 12.24 14.78L12.36 14.90L12.32 14.86Q16.82 16.96 22.49 17.08L22.56 17.14L22.61 17.19Q27.66 17.18 32.84 15.28L32.89 15.33L32.82 15.26Q32.39 16.05 32.09 16.85L32.14 16.90L31.55 18.49L31.66 18.59Q28.42 22.05 24.42 27.88L24.55 28.01L21.25 32.85L21.14 32.75Q19.44 35.15 17.61 37.44L17.66 37.49L17.75 37.57Q20.93 36.84 24.25 36.91L24.37 37.04L24.31 36.98Q27.77 37.20 30.93 38.11L30.93 38.12L31.26 39.55L31.25 39.54Q31.49 40.35 31.83 41.18L31.93 41.28L31.85 41.21Q27.17 39.61 22.03 39.80L22.05 39.82L21.99 39.76Q16.94 40.04 12.45 42.06L12.49 42.10L12.55 42.15Q12.79 40.95 13.51 38.90ZM11.87 42.77L11.85 42.75L11.86 42.76Q12.99 42.07 13.79 41.80L13.91 41.91L13.98 41.99Q13.60 42.64 12.92 44.17L12.84 44.09L13.02 44.26Q18.68 42.09 24.66 42.32L24.68 42.34L24.72 42.38Q30.97 42.54 36.00 45.32L36.06 45.38L36.00 45.32Q34.57 42.90 33.77 40.73L33.81 40.77L33.83 40.79Q33.33 40.55 31.80 39.98L31.73 39.90L31.83 40.01Q31.55 39.15 31.13 37.66L31.06 37.60L31.20 37.74Q26.93 36.44 21.83 36.63L21.82 36.62L21.98 36.78Q23.98 33.91 27.52 28.35L27.65 28.48L27.59 28.42Q31.26 22.73 33.17 20.18L33.09 20.10L33.11 20.12Q33.64 18.75 34.67 16.04L34.59 15.97L34.66 16.04Q33.97 16.37 32.52 16.98L32.47 16.93L32.48 16.94Q32.91 16.22 33.63 14.70L33.54 14.61L33.60 14.67Q28.17 16.70 22.46 16.62L22.57 16.74L22.56 16.72Q16.64 16.67 11.69 14.16L11.68 14.14L11.52 13.99Q12.69 16.37 13.41 18.62L13.40 18.61L13.47 18.67Q14.59 19.23 15.39 19.45L15.41 19.47L15.40 19.47Q15.62 20.10 15.89 21.55L15.95 21.61L15.93 21.60Q19.74 22.73 24.61 22.54L24.47 22.41L24.44 22.37Q22.08 25.61 18.76 30.59L18.73 30.56L13.28 38.97L13.28 38.97Q12.89 40.21 11.86 42.76Z"/><path fill="#333" d="M68.44 40.38L68.50 40.43L68.49 40.43Q64.43 40.67 63.44 38.35L63.47 38.38L63.38 38.29Q64.23 37.42 65.79 35.63L65.78 35.62L65.75 35.60Q66.15 37.52 69.16 37.63L69.20 37.68L69.14 37.62Q72.53 37.69 74.17 36.36L74.23 36.42L74.27 36.47Q75.59 34.77 75.51 32.07L75.47 32.03L75.51 32.07Q75.43 27.08 70.64 27.31L70.59 27.26L70.65 27.32Q67.76 27.40 66.00 28.65L65.97 28.62L65.61 28.41L65.61 28.48L65.42 28.30Q65.91 25.28 65.79 22.54L65.81 22.56L65.74 22.49Q65.63 19.86 65.28 16.55L65.36 16.62L65.29 16.55Q68.99 17.55 72.79 17.44L72.84 17.48L72.80 17.44Q76.54 17.30 80.12 16.04L80.17 16.09L79.58 17.60L79.47 17.49Q79.35 18.43 79.16 19.27L78.99 19.10L79.06 19.17Q76.01 20.27 72.13 20.27L71.98 20.12L72.07 20.22Q70.64 20.23 69.15 20.08L69.06 19.98L69.12 20.04Q69.01 20.70 68.67 25.15L68.69 25.17L68.67 25.15Q69.48 24.66 71.53 24.51L71.61 24.59L71.55 24.53Q75.30 24.78 76.75 26.45L76.80 26.51L76.85 26.55Q78.05 27.91 78.32 31.76L78.39 31.82L78.34 31.78Q78.65 36.01 77.43 38.03L77.44 38.03L77.37 37.97Q75.38 39.89 72.07 40.12L72.14 40.19L72.08 40.14Q71.11 40.23 68.44 40.38ZM74.53 42.70L74.55 42.72L74.58 42.75Q78.00 42.82 79.90 41.71L79.81 41.62L79.86 41.67Q80.84 40.13 80.84 38.04L80.78 37.98L80.90 38.10Q80.80 34.92 79.85 30.81L79.93 30.89L79.96 30.92Q79.56 29.16 78.35 27.75L78.32 27.72L78.29 27.73L78.07 27.44L77.69 27.20L77.72 27.23Q77.38 26.48 76.73 25.79L76.86 25.92L76.79 25.89L76.74 25.84Q75.21 24.16 71.52 24.16L71.63 24.27L71.37 24.28L71.22 24.13Q71.43 23.69 71.62 22.59L71.65 22.61L71.57 22.53Q76.59 22.68 80.63 21.05L80.53 20.94L80.66 21.07Q81.02 19.61 81.97 16.79L81.91 16.73L79.83 17.70L79.89 17.75Q80.34 16.68 80.83 15.54L80.66 15.36L80.68 15.39Q76.83 16.83 72.72 16.90L72.85 17.03L72.78 16.96Q68.68 17.09 64.72 15.99L64.68 15.95L64.64 15.91Q65.31 20.31 65.31 24.72L65.36 24.78L65.37 24.78Q65.34 26.66 65.23 28.56L65.32 28.65L65.29 28.63Q65.59 28.85 66.16 29.15L66.05 29.04L66.17 29.16Q66.49 28.92 67.14 28.57L67.10 28.53L67.13 28.57Q67.01 29.24 66.78 30.76L66.80 30.78L66.89 30.87Q67.26 31.01 67.68 31.24L67.78 31.34L67.78 31.34Q70.38 29.42 72.25 29.42L72.39 29.56L72.41 29.58Q73.62 29.45 74.80 30.10L74.85 30.15L74.93 30.23Q75.22 31.21 75.26 32.16L75.17 32.07L75.23 32.13Q75.37 34.79 74.34 35.89L74.32 35.86L74.27 35.81Q72.81 36.95 70.57 37.18L70.63 37.24L70.71 37.32Q69.75 37.38 69.06 37.31L69.01 37.26L68.97 37.22Q68.14 37.11 67.38 36.77L67.35 36.74L67.39 36.59L67.32 36.75L67.30 36.72Q66.44 36.17 65.90 34.83L65.99 34.92L65.91 34.84Q64.68 36.35 63.01 38.49L62.87 38.35L62.98 38.46Q63.27 39.09 64.11 40.05L63.98 39.91L64.16 40.09Q65.04 41.74 67.86 42.23L67.88 42.26L68.04 42.41Q69.06 42.48 74.42 42.59Z"/><path fill="#222" d="M119.75 27.68L119.62 27.55L119.62 27.55Q117.57 27.75 116.30 29.25L116.18 29.13L116.30 29.26Q114.99 30.72 114.88 33.01L114.89 33.02L114.88 33.01Q114.70 35.61 115.54 36.56L115.51 36.53L115.50 36.52Q116.68 37.86 119.00 37.70L118.88 37.59L118.93 37.64Q123.54 37.29 123.92 34.29L124.01 34.38L123.99 34.36Q123.98 33.43 123.98 32.63L124.02 32.67L124.13 32.78Q123.98 30.65 122.83 29.13L122.97 29.26L122.88 29.17Q121.63 27.58 119.69 27.61ZM124.44 37.62L124.55 37.73L124.62 37.81Q123.14 39.94 118.77 40.17L118.74 40.15L118.62 40.02Q114.49 40.24 112.86 39.14L112.97 39.25L112.90 39.18Q111.92 38.24 111.77 36.53L111.69 36.44L111.71 36.47Q111.81 35.50 112.00 33.63L112.02 33.65L111.84 33.48Q112.41 29.25 113.63 27.42L113.64 27.44L113.57 27.37Q115.29 24.97 119.13 25.00L119.20 25.08L119.12 24.99Q121.70 25.10 123.98 27.42L124.00 27.44L123.96 27.40Q123.96 21.45 125.56 14.94L125.63 15.02L125.55 14.94Q127.58 14.65 129.45 13.81L129.33 13.70L129.49 13.85Q126.71 20.29 126.44 27.29L126.49 27.34L126.45 27.30Q126.20 34.51 128.34 41.10L128.37 41.14L128.25 41.01Q126.64 40.43 124.93 40.05L124.96 40.08L124.98 40.11Q124.69 38.82 124.54 37.72ZM127.59 43.21L127.59 43.21L127.62 43.24Q129.70 43.80 132.25 45.32L132.26 45.33L132.16 45.23Q128.47 38.19 128.32 29.89L128.29 29.86L128.40 29.97Q128.21 21.71 131.29 14.33L131.26 14.29L131.24 14.28Q130.60 14.77 129.15 15.42L129.22 15.49L129.23 15.50Q129.43 14.21 130.04 12.99L130.21 13.16L130.22 13.18Q127.82 14.24 125.38 14.81L125.24 14.66L125.23 14.65Q123.94 20.60 123.67 26.69L123.66 26.67L123.55 26.57Q121.57 24.67 119.06 24.55L119.08 24.58L119.11 24.60Q115.74 24.55 113.84 26.64L113.75 26.55L113.81 26.62Q112.10 28.98 111.69 33.66L111.57 33.54L111.62 33.60Q111.40 36.39 111.40 36.81L111.33 36.73L111.39 36.79Q111.41 38.49 112.55 39.56L112.57 39.58L112.62 39.62Q112.77 39.77 112.96 39.85L112.94 39.83L113.54 40.62L113.54 40.62Q114.42 41.88 117.39 42.14L117.50 42.25L117.50 42.25Q119.71 42.41 121.08 42.49L120.95 42.36L121.12 42.53Q125.14 42.55 126.86 41.22L127.03 41.39L126.95 41.31Q127.19 42.12 127.65 43.27ZM121.20 29.81L121.31 29.92L121.26 29.88Q122.45 30.04 123.29 30.53L123.18 30.42L123.25 30.50Q123.76 31.80 123.83 32.83L123.70 32.70L123.82 32.81Q123.99 36.91 118.97 37.25L119.02 37.31L118.92 37.21Q118.15 37.35 117.04 37.08L117.09 37.13L117.03 37.06Q116.84 36.49 116.76 35.96L116.80 36.00L116.65 35.85Q116.69 35.28 116.73 34.67L116.68 34.62L116.73 34.67Q117.12 31.33 119.75 30.34L119.60 30.20L119.58 30.17Q120.52 29.78 121.21 29.82Z"/><path fill="#333" d="M96.93 18.45L96.97 18.49L96.88 18.40Q96.18 18.80 96.03 19.60L95.97 19.55L96.09 24.81L96.16 24.87Q97.13 24.70 99.34 24.44L99.42 24.51L99.48 24.58Q99.38 24.93 99.34 25.77L99.31 25.73L99.26 25.69Q99.36 26.58 99.36 27.04L99.37 27.05L97.83 27.19L97.79 27.15Q96.96 27.19 96.08 27.19L96.05 27.17L96.03 27.14Q96.00 31.30 95.92 39.67L95.89 39.64L95.95 39.70Q93.68 39.71 92.19 40.40L92.38 40.58L92.23 40.43Q93.28 34.25 93.16 27.01L93.20 27.05L93.26 27.11Q92.60 27.07 91.31 26.80L91.36 26.85L91.22 26.71Q91.35 25.85 91.16 23.91L91.21 23.95L91.17 23.92Q92.28 24.42 93.23 24.61L93.10 24.48L93.11 24.49Q93.03 23.80 92.73 21.33L92.76 21.36L92.90 21.50Q92.51 19.28 92.51 18.33L92.66 18.48L92.58 18.40Q92.52 16.66 93.93 16.09L93.97 16.13L93.96 16.13Q94.80 15.79 99.64 14.95L99.61 14.92L99.74 15.05Q100.40 14.76 101.24 14.65L101.31 14.72L101.31 14.72Q101.01 15.41 100.86 16.28L100.96 16.39L100.62 17.92L100.56 17.86Q99.89 17.68 99.40 17.79L99.40 17.80L99.44 17.84Q98.85 17.86 96.95 18.47ZM102.44 19.65L102.40 19.61L102.29 19.50Q102.77 17.43 103.38 14.88L103.25 14.75L103.37 14.88Q102.72 15.17 101.42 15.78L101.43 15.79L101.84 14.10L101.82 14.09Q100.57 14.25 98.10 14.78L98.19 14.88L98.02 14.71Q96.85 14.78 93.65 15.70L93.74 15.79L93.81 15.86Q92.13 16.16 92.13 18.03L92.22 18.11L92.11 18.00Q92.17 18.37 92.25 18.71L92.18 18.65L92.25 18.72Q92.41 19.98 92.53 21.32L92.54 21.33L92.88 24.15L92.76 24.02Q91.37 23.63 90.73 23.17L90.76 23.20L90.86 23.30Q90.92 24.20 90.95 25.23L91.02 25.29L91.05 27.18L90.95 27.09Q91.74 27.34 92.54 27.42L92.65 27.53L92.54 29.51L93.03 29.62L92.93 29.52Q92.92 35.76 91.93 41.20L91.93 41.20L91.90 41.17Q92.74 40.53 93.92 40.26L94.09 40.43L93.84 42.43L93.89 42.47Q95.03 42.09 96.32 42.05L96.29 42.02L96.28 42.00Q97.54 42.02 98.80 42.28L98.85 42.33L98.91 42.40Q97.95 37.29 97.95 29.33L97.98 29.35L98.05 29.42Q99.07 29.35 101.17 29.42L101.22 29.47L101.15 27.54L101.11 27.50Q101.26 26.70 101.30 25.75L101.31 25.76L101.26 25.71Q100.70 25.72 99.64 25.99L99.68 26.03L99.71 26.07Q99.60 25.27 99.72 23.94L99.83 24.05L99.73 23.95Q98.90 24.18 98.10 24.26L98.14 24.30L98.09 24.25Q98.15 22.90 98.27 21.50L98.36 21.59L98.27 21.50Q98.44 20.87 98.97 20.52L98.86 20.42L98.94 20.50Q99.86 19.78 100.68 19.71L100.63 19.65L100.76 19.78Q101.48 19.61 102.32 19.53Z"/></svg>