<svg xmlns="http://www.w3.org/2000/svg" width="150" height="50" viewBox="0,0,150,50"><path fill="#222" d="M23.44 40.18L23.28 40.02L21.37 40.39L21.21 40.24Q20.78 40.26 19.81 40.32L19.83 40.34L19.79 40.30Q18.79 40.33 18.30 40.33L18.45 40.49L18.38 40.42Q16.79 40.45 15.76 39.62L15.73 39.59L15.75 39.61Q16.45 38.41 18.09 36.28L18.24 36.43L18.10 36.28Q19.44 37.93 21.65 37.70L21.67 37.72L21.54 37.59Q22.59 37.62 23.24 36.97L23.21 36.94L23.18 36.92Q23.87 36.31 23.75 35.43L23.66 35.33L23.75 35.43Q23.69 30.88 23.77 26.31L23.65 26.19L23.60 26.14Q23.65 21.55 24.18 16.94L24.30 17.06L24.33 17.08Q26.28 16.90 28.41 15.88L28.41 15.88L28.27 15.74Q26.40 22.47 26.40 29.70L26.48 29.79L26.42 29.73Q26.44 33.28 26.89 36.78L26.90 36.78L26.94 36.83Q26.94 37.10 26.94 37.44L26.97 37.47L26.93 37.43Q27.01 38.08 26.78 38.61L26.71 38.54L26.71 38.54Q26.16 39.82 23.35 40.09ZM28.24 42.89L28.33 42.97L28.65 42.95L28.99 42.87L29.18 42.68L29.22 42.72Q29.46 42.40 29.54 42.28L29.63 42.37L29.51 42.25Q29.73 41.11 29.47 40.12L29.51 40.16L29.48 40.13Q28.17 34.37 28.44 28.01L28.38 27.96L28.46 28.04Q28.60 21.82 30.39 15.92L30.38 15.91L30.49 16.01Q29.66 16.71 28.40 17.43L28.31 17.34L28.27 17.29Q28.52 16.60 28.94 15.07L29.01 15.15L28.89 15.02Q26.39 16.36 23.72 16.67L23.78 16.73L23.83 16.78Q23.37 21.08 23.29 26.02L23.30 26.03L23.42 26.15Q23.17 31.87 23.24 35.30L23.27 35.33L23.35 35.41Q23.34 37.11 21.59 37.27L21.64 37.32L21.59 37.27Q19.97 37.47 18.29 35.83L18.24 35.78L18.28 35.82Q16.22 38.33 15.27 39.89L15.29 39.91L15.20 39.82Q15.86 40.48 16.89 40.71L16.91 40.74L16.85 40.67Q16.78 40.83 16.51 41.06L16.51 41.05L16.55 41.09Q17.92 41.97 19.90 42.23L20.03 42.37L20.00 42.34Q20.30 42.30 23.59 42.60L23.67 42.67L23.62 42.63Q26.98 43.00 28.35 43.00Z"/><path fill="#222" d="M126.96 28.61L127.12 28.77L121.15 28.78L121.16 28.79Q118.29 28.89 115.36 28.81L115.21 28.66L115.27 28.72Q115.31 35.34 113.25 40.86L113.24 40.85L113.36 40.97Q111.59 41.53 109.84 42.21L109.78 42.15L109.76 42.13Q112.55 36.43 112.55 29.77L112.64 29.85L112.53 29.75Q112.50 21.23 108.39 14.19L108.39 14.19L108.41 14.21Q110.00 15.07 112.47 15.87L112.50 15.90L112.50 15.90Q114.48 20.81 115.02 25.69L115.01 25.68L115.18 25.85Q118.38 26.27 121.24 26.24L121.18 26.18L121.19 26.18Q123.77 26.10 127.08 25.84L127.04 25.80L127.05 25.80Q127.57 21.45 129.32 16.35L129.38 16.41L129.26 16.29Q131.35 16.02 133.60 15.19L133.54 15.13L133.53 15.12Q129.96 21.90 129.96 29.86L129.93 29.83L129.90 29.79Q129.89 35.99 132.25 41.32L132.34 41.41L132.32 41.39Q130.66 40.72 128.61 40.42L128.57 40.38L128.68 40.49Q126.93 35.39 127.04 28.69ZM128.30 40.72L128.36 40.78L128.24 40.66Q129.33 40.88 130.44 41.15L130.48 41.19L130.44 41.14Q130.74 41.83 131.39 43.32L131.49 43.41L131.55 43.47Q134.74 44.26 136.52 45.18L136.68 45.33L136.56 45.21Q132.20 39.14 131.90 30.88L131.78 30.76L131.91 30.89Q131.50 22.76 135.16 15.94L135.21 15.99L134.13 16.44L134.14 16.45Q133.58 16.61 132.97 16.76L132.97 16.76L133.02 16.82Q133.54 16.11 134.37 14.55L134.23 14.41L134.19 14.37Q131.59 15.46 128.97 15.96L129.08 16.08L129.01 16.00Q127.32 20.82 126.86 25.50L126.90 25.54L126.85 25.49Q124.28 25.63 121.85 25.63L122.02 25.80L121.94 25.72Q119.52 25.69 117.00 25.54L116.95 25.48L117.05 25.59Q116.84 22.33 115.73 18.26L115.60 18.13L115.69 18.21Q115.00 18.10 113.56 17.72L113.60 17.76L113.54 17.70Q113.24 16.56 112.78 15.53L112.72 15.47L112.71 15.46Q109.97 14.70 107.69 13.45L107.79 13.55L107.75 13.51Q112.35 20.97 112.35 29.76L112.20 29.61L112.33 29.74Q112.27 36.64 109.15 42.77L109.24 42.87L109.25 42.87Q109.96 42.60 111.30 42.03L111.22 41.96L111.18 41.91Q110.96 42.87 110.16 44.39L110.16 44.40L109.97 44.20Q112.89 43.32 115.14 42.90L115.07 42.83L115.23 42.99Q117.09 37.43 117.28 31.26L117.17 31.16L117.10 31.08Q118.79 31.10 121.99 31.06L122.07 31.14L122.05 31.12Q124.75 30.93 126.65 31.00L126.78 31.13L126.75 31.10Q126.98 36.81 128.31 40.73Z"/><path fill="#444" d="M68.33 19.35L68.41 19.43L68.38 19.40Q69.26 23.66 69.41 27.24L69.42 27.26L69.27 27.11Q70.42 27.22 71.48 27.22L71.57 27.31L73.72 27.25L73.63 27.16Q74.65 27.12 75.53 25.71L75.54 25.72L75.57 25.75Q76.24 24.52 76.36 23.34L76.37 23.35L76.37 23.36Q76.75 20.34 72.52 19.85L72.69 20.01L72.53 19.85Q71.05 20.01 68.42 19.44ZM69.45 30.03L69.35 29.93L69.40 29.97Q69.35 36.20 68.20 40.62L68.16 40.57L68.22 40.63Q66.81 41.09 64.48 42.15L64.48 42.15L64.47 42.14Q66.77 35.41 66.50 28.14L66.45 28.09L66.56 28.20Q66.14 20.70 63.37 14.27L63.43 14.33L63.44 14.35Q67.56 17.10 73.81 17.10L73.81 17.10L73.70 16.99Q79.76 17.00 79.91 20.46L79.96 20.51L80.00 20.55Q80.05 22.96 79.06 25.62L79.01 25.57L79.14 25.70Q78.72 26.81 77.77 28.03L77.69 27.95L77.70 27.95Q76.38 29.57 73.83 29.83L73.77 29.77L73.89 29.89Q71.58 29.87 69.33 29.90ZM75.59 32.28L75.49 32.18L75.57 32.26Q79.63 32.40 80.89 27.60L80.98 27.70L80.94 27.65Q81.83 23.95 81.68 21.93L81.79 22.03L81.79 22.03Q81.58 20.42 80.82 19.43L80.92 19.53L80.74 19.35Q80.42 19.02 79.92 18.80L80.03 18.91L80.09 18.97Q79.97 18.70 79.36 17.93L79.35 17.92L79.33 17.90Q77.92 16.72 73.96 16.72L73.81 16.57L73.88 16.64Q66.95 16.60 62.72 13.44L62.84 13.55L62.76 13.47Q65.97 20.60 66.23 28.07L66.27 28.10L66.20 28.04Q66.58 35.79 63.91 42.87L63.78 42.74L63.73 42.70Q64.93 42.18 65.92 41.80L65.82 41.70L65.41 42.81L65.55 42.95Q65.26 43.42 64.99 43.99L65.07 44.07L65.05 44.05Q67.52 43.06 70.42 42.53L70.45 42.56L70.31 42.42Q71.24 36.99 71.32 32.27L71.18 32.14L71.32 32.28Q72.35 32.13 73.34 32.13L73.29 32.07L73.31 32.10Q74.77 32.22 75.57 32.26ZM74.60 22.30L74.56 22.27L74.56 22.26Q74.99 22.20 75.98 22.43L76.12 22.57L76.02 22.47Q76.14 22.71 76.18 23.01L76.20 23.03L76.12 22.95Q76.15 23.21 76.08 23.48L76.18 23.59L76.25 23.65Q76.13 24.87 75.41 25.74L75.26 25.59L75.28 25.61Q74.83 26.80 73.80 26.99L73.71 26.89L73.71 26.90Q72.90 26.81 71.26 26.81L71.26 26.81L71.37 26.91Q71.25 24.55 71.02 22.19L70.99 22.16L72.80 22.30L72.78 22.27Q73.71 22.37 74.59 22.30Z"/><path fill="#222" d="M55.08 40.41L55.00 40.34L55.13 40.46Q52.10 36.53 49.48 27.88L49.49 27.90L49.48 27.89Q48.83 25.75 48.03 23.62L47.89 23.48L45.09 32.33L45.03 32.27Q43.36 37.34 40.96 40.58L40.85 40.46L40.92 40.54Q40.13 40.65 38.49 40.80L38.44 40.75L38.47 40.78Q38.45 39.47 38.45 38.21L38.61 38.38L38.55 38.32Q38.54 32.29 35.79 26.16L35.71 26.07L35.71 26.07Q32.64 19.23 26.77 14.24L26.72 14.18L26.72 14.19Q29.00 15.02 31.36 15.55L31.29 15.49L31.19 15.39Q39.98 23.94 41.27 34.91L41.19 34.82L41.31 34.95Q42.91 31.60 44.36 26.23L44.34 26.21L44.36 26.23Q46.27 18.66 46.76 17.25L46.77 17.26L49.16 17.40L49.06 17.30Q49.85 19.42 50.49 21.74L50.44 21.69L51.71 26.16L51.69 26.14Q53.21 31.54 54.62 34.78L54.60 34.76L54.69 34.85Q56.22 23.10 64.14 15.75L64.13 15.73L64.28 15.89Q65.84 15.58 68.81 14.93L68.67 14.80L68.77 14.89Q63.33 19.08 60.28 25.21L60.41 25.34L60.39 25.32Q57.20 31.46 57.20 38.23L57.20 38.24L57.28 38.31Q57.34 39.48 57.42 40.62L57.23 40.43L56.23 40.46L56.21 40.44Q55.67 40.43 55.10 40.43ZM61.37 43.36L61.24 43.22L61.39 43.37Q59.96 39.63 60.08 35.74L60.06 35.72L60.19 35.85Q60.48 24.27 69.85 16.01L69.90 16.07L69.81 15.98Q68.85 16.20 66.91 16.73L66.97 16.79L66.92 16.74Q67.97 16.00 69.88 14.21L69.82 14.16L69.73 14.07Q67.11 14.87 64.18 15.36L64.16 15.35L64.23 15.42Q56.65 22.45 54.74 31.93L54.89 32.08L54.90 32.09Q54.32 30.45 51.47 18.99L51.35 18.87L51.29 18.81Q51.04 19.06 50.09 19.06L50.01 18.98L49.67 17.87L49.62 17.83Q49.53 17.32 49.30 16.82L49.38 16.90L46.51 16.92L46.41 16.82Q45.63 19.31 44.35 24.43L44.45 24.54L44.46 24.54Q43.04 29.52 42.05 31.99L42.01 31.95L42.04 31.98Q40.49 24.11 34.93 17.79L35.04 17.90L35.05 17.91Q34.54 17.82 33.59 17.63L33.57 17.62L33.46 17.50Q32.81 16.74 31.25 15.10L31.33 15.18L31.22 15.07Q27.84 14.28 25.67 13.49L25.62 13.44L25.60 13.41Q31.44 18.26 34.72 24.47L34.63 24.39L34.63 24.38Q38.08 30.99 38.08 37.99L38.16 38.08L38.20 38.12Q38.09 39.57 37.90 41.17L37.90 41.16L37.84 41.11Q38.19 41.23 38.64 41.13L38.69 41.18L38.63 41.11Q39.12 41.05 39.34 41.05L39.27 40.98L39.36 42.09L39.20 41.94Q39.21 42.40 39.28 42.93L39.30 42.95L39.32 42.96Q40.57 43.00 42.85 42.85L42.70 42.70L42.81 42.80Q46.32 37.29 49.06 27.89L49.24 28.07L49.09 27.91Q51.98 36.82 54.95 40.78L54.85 40.68L54.83 40.66Q55.46 40.84 56.30 40.95L56.27 40.92L56.15 40.81Q57.03 41.87 58.10 42.94L58.20 43.04L58.06 42.91Q58.95 43.07 61.35 43.33Z"/><path fill="#222" d="M99.88 30.82L99.97 30.91L100.02 30.96Q99.78 29.62 97.84 28.89L97.93 28.99L97.94 28.99Q97.37 28.73 96.84 28.73L96.84 28.73L96.95 28.85Q95.48 28.74 94.42 29.31L94.35 29.25L94.50 29.40Q93.10 30.09 93.22 31.31L93.23 31.33L93.18 31.28Q93.49 34.07 93.34 36.31L93.33 36.30L93.36 36.33Q93.22 38.78 92.50 41.29L92.42 41.21L92.43 41.22Q90.32 41.74 89.14 42.16L89.15 42.17L89.10 42.12Q90.76 38.57 90.76 34.57L90.74 34.55L90.81 34.62Q90.88 29.24 88.29 24.79L88.25 24.75L88.24 24.74Q89.38 25.15 91.78 25.88L91.79 25.89L91.79 25.89Q92.18 26.70 92.56 28.22L92.50 28.16L92.57 28.23Q93.84 26.08 97.72 26.15L97.66 26.08L97.80 26.22Q99.20 26.18 100.00 26.29L100.04 26.33L100.00 26.30Q102.91 26.62 102.99 28.63L103.13 28.78L103.09 28.74Q103.01 29.53 102.82 30.56L102.91 30.66L102.92 30.66Q102.42 33.13 102.61 36.14L102.64 36.17L102.67 36.20Q102.82 39.05 103.81 41.60L103.87 41.66L103.81 41.60Q102.03 41.11 100.31 40.96L100.28 40.93L100.29 40.94Q99.87 38.61 99.79 35.95L99.84 35.99L99.90 36.05Q99.77 33.26 100.00 30.94ZM99.97 41.34L100.03 41.40L99.88 41.25Q100.71 41.28 102.00 41.51L101.98 41.49L102.41 42.60L102.44 42.63Q102.55 43.04 102.78 43.58L102.86 43.66L102.80 43.60Q105.21 44.14 107.91 45.32L107.75 45.16L107.79 45.20Q105.38 42.03 104.70 38.23L104.71 38.23L104.88 38.41Q104.49 36.23 104.61 32.54L104.58 32.51L104.63 32.57Q104.57 32.19 104.60 31.39L104.62 31.41L104.58 31.37Q104.77 30.88 104.70 30.38L104.57 30.26L104.53 30.21Q104.45 28.57 103.34 28.08L103.43 28.16L103.40 28.13Q103.20 27.25 102.44 26.64L102.44 26.64L102.53 26.73Q100.77 25.66 97.73 25.74L97.78 25.79L97.75 25.76Q95.90 25.81 95.06 26.00L95.01 25.95L95.01 25.95Q93.57 26.30 92.62 27.22L92.56 27.15L92.54 27.13Q92.54 26.71 92.16 25.68L92.22 25.75L92.20 25.73Q89.29 24.95 87.46 23.96L87.43 23.93L87.43 23.93Q90.43 28.76 90.43 34.50L90.57 34.65L90.55 34.63Q90.60 39.05 88.70 42.90L88.68 42.88L88.65 42.85Q89.24 42.45 90.54 42.07L90.55 42.09L90.70 42.23Q90.04 43.32 89.51 44.31L89.65 44.46L89.65 44.46Q90.93 43.87 94.47 43.30L94.61 43.45L94.56 43.39Q95.45 38.15 95.33 33.31L95.37 33.35L95.39 33.37Q95.43 32.61 96.61 31.89L96.45 31.73L96.62 31.90Q97.65 31.25 98.75 31.14L98.58 30.96L98.74 31.13Q99.12 31.02 99.54 31.21L99.62 31.28L99.45 31.11Q99.37 33.74 99.41 36.29L99.40 36.28L99.46 36.33Q99.51 38.86 100.00 41.37Z"/></svg>