<svg xmlns="http://www.w3.org/2000/svg" width="150" height="50" viewBox="0,0,150,50"><path fill="#444" d="M129.36 23.36L129.20 23.19L129.26 23.26Q127.67 19.31 121.47 19.50L121.40 19.43L121.38 19.41Q116.92 19.48 114.94 20.93L115.07 21.05L115.04 21.02Q112.54 22.68 112.54 26.79L112.61 26.86L112.49 28.60L112.65 28.76Q112.60 37.55 121.63 37.55L121.65 37.57L121.65 37.57Q123.59 37.46 125.07 36.66L125.14 36.73L125.17 36.75Q127.03 35.76 126.88 33.90L126.90 33.91L126.90 33.92Q126.55 31.66 122.86 30.75L123.01 30.91L121.01 30.84L121.03 30.86Q120.03 30.81 119.07 30.85L119.15 30.92L119.15 30.92Q119.17 29.99 119.13 28.09L119.01 27.96L119.01 27.96Q126.71 28.02 130.90 27.68L130.89 27.67L130.96 27.73Q130.85 28.50 130.85 29.30L130.80 29.25L130.85 29.30Q130.92 30.17 130.96 30.97L130.96 30.97L130.95 30.96Q129.75 30.87 129.75 30.87L129.69 30.81L129.71 30.82Q128.41 30.89 128.79 30.89L128.69 30.79L128.68 30.79Q129.80 32.44 130.18 34.42L130.20 34.43L130.25 34.48Q130.40 35.25 130.40 35.71L130.31 35.62L130.27 35.57Q130.43 40.38 121.64 40.38L121.54 40.29L121.48 40.22Q114.48 40.34 111.89 38.24L111.93 38.28L111.84 38.19Q109.96 35.94 109.96 30.87L109.81 30.72L109.96 30.87Q109.97 29.82 109.82 27.11L109.72 27.01L109.70 26.99Q109.53 24.62 109.57 23.25L109.56 23.23L109.61 23.29Q109.73 20.44 111.10 18.84L111.15 18.89L111.06 18.80Q113.71 16.84 118.58 16.65L118.54 16.61L121.21 16.54L121.14 16.46Q124.23 16.36 127.65 16.78L127.66 16.78L127.61 16.74Q131.45 17.30 132.40 20.54L132.41 20.55L132.45 20.59Q131.31 21.38 129.21 23.21ZM130.64 25.43L130.83 25.51L130.77 25.46Q132.07 24.46 133.93 22.48L133.84 22.39L133.89 22.45Q133.50 21.40 132.51 19.69L132.48 19.66L132.53 19.71Q131.32 17.01 127.51 16.36L127.68 16.53L127.64 16.50Q125.54 16.42 121.24 16.11L121.25 16.12L118.48 16.16L118.45 16.14Q113.35 16.41 110.76 18.39L110.79 18.41L110.61 18.24Q109.36 19.99 109.24 23.07L109.22 23.05L109.25 23.08Q109.17 22.54 109.40 28.02L109.48 28.11L109.59 28.22Q109.54 29.50 109.62 32.24L109.61 32.24L109.49 32.11Q109.70 36.58 111.45 38.52L111.47 38.55L111.51 38.59Q111.87 39.41 112.75 40.28L112.81 40.34L112.83 40.37Q115.57 42.08 121.09 42.42L121.17 42.49L124.00 42.62L124.17 42.80Q125.58 42.72 127.60 42.61L127.65 42.66L127.67 42.68Q129.15 42.64 131.25 42.11L131.27 42.13L131.32 42.18Q133.21 41.64 133.18 39.32L133.22 39.36L133.17 39.31Q133.06 37.94 131.99 35.16L132.00 35.17L132.01 35.18Q131.74 34.30 131.21 33.50L131.21 33.50L131.17 33.46Q131.77 33.50 132.95 33.69L132.93 33.66L133.11 33.84Q132.69 30.11 132.73 29.43L132.77 29.46L132.73 29.43Q132.45 29.53 132.03 29.49L131.98 29.44L131.93 29.39Q131.50 29.31 131.12 29.38L131.18 29.44L131.25 29.51Q131.29 28.45 131.37 27.38L131.36 27.37L131.20 27.21Q125.09 27.88 118.80 27.76L118.61 27.57L118.80 27.76Q118.73 28.56 118.73 29.48L118.73 29.48L118.84 31.34L118.66 31.16Q119.25 31.37 119.67 31.33L119.65 31.31L119.62 31.28Q119.99 31.23 120.45 31.23L120.45 31.24L120.42 31.20Q120.35 31.59 120.38 32.08L120.44 32.14L120.55 32.24Q120.42 32.57 120.38 33.07L120.38 33.07L120.52 33.20Q121.53 33.15 122.56 33.11L122.42 32.97L122.57 33.13Q123.51 33.04 124.54 33.07L124.66 33.20L124.59 33.13Q125.66 33.40 126.53 33.78L126.48 33.72L126.51 33.79L126.42 33.71Q126.63 35.28 124.95 36.19L124.91 36.16L125.04 36.28Q123.28 37.11 121.56 37.11L121.52 37.07L121.62 37.16Q117.76 37.14 115.32 35.39L115.30 35.38L115.25 35.32Q114.38 33.39 114.54 30.84L114.53 30.84L114.55 30.86Q114.87 26.07 116.72 24.08L116.64 24.00L116.68 24.03Q118.52 22.04 123.21 21.73L123.25 21.78L123.15 21.67Q126.81 21.46 128.76 23.25L128.74 23.23L128.84 23.33Q128.93 23.46 129.04 23.65L128.97 23.57L129.13 23.63L129.18 23.67Q129.79 24.39 130.36 25.49L130.35 25.49L130.74 25.53Z"/><path fill="#111" d="M18.64 33.33L18.52 33.20L18.70 33.39Q18.39 36.05 17.21 40.69L17.29 40.77L17.20 40.68Q15.46 41.26 13.86 42.06L13.98 42.18L13.93 42.13Q16.44 35.01 16.18 27.59L16.32 27.73L16.32 27.73Q15.99 20.29 12.91 13.55L12.86 13.49L12.87 13.51Q14.81 14.76 16.67 15.33L16.72 15.38L16.75 15.41Q18.82 22.31 18.82 28.97L18.94 29.10L18.90 29.06Q18.85 30.45 18.77 31.94L18.79 31.95L18.79 31.95Q19.98 30.78 25.20 25.83L25.12 25.76L25.11 25.75Q26.21 25.75 27.20 25.67L27.24 25.71L29.21 25.44L29.32 25.54Q26.06 28.44 21.75 32.21L21.84 32.30L21.94 32.40Q25.12 34.97 31.59 40.80L31.66 40.86L31.76 40.96Q29.06 40.09 26.09 39.90L25.96 39.77L25.98 39.79Q23.58 37.81 18.71 33.39ZM28.41 42.37L28.46 42.42L28.47 42.43Q33.25 43.33 36.37 45.27L36.39 45.29L36.27 45.17Q35.22 44.00 32.59 41.61L32.53 41.54L32.48 41.49Q32.69 41.55 32.96 41.67L33.13 41.83L33.12 41.83Q30.92 39.70 28.67 37.80L28.75 37.88L24.23 33.89L24.33 33.99Q29.15 29.64 31.59 26.75L31.73 26.89L31.63 26.79Q30.46 26.91 27.99 27.18L27.90 27.09L28.01 27.20Q29.52 25.66 30.20 24.83L30.24 24.86L30.25 24.88Q27.55 25.44 25.07 25.44L24.95 25.32L25.10 25.47Q23.61 26.68 20.87 29.35L20.83 29.31L20.94 29.42Q20.89 23.58 19.90 17.76L19.96 17.81L19.90 17.76Q19.20 17.59 17.71 17.32L17.76 17.37L17.57 17.18Q17.58 16.62 17.12 15.13L17.07 15.08L17.02 15.03Q14.40 14.24 12.16 12.68L12.22 12.75L12.27 12.80Q15.51 19.42 15.85 27.53L15.98 27.66L15.87 27.55Q16.21 35.46 13.20 42.69L13.19 42.69L13.34 42.83Q13.96 42.47 15.29 41.82L15.28 41.81L15.33 41.85Q15.04 42.63 14.39 44.08L14.40 44.08L14.47 44.16Q17.16 42.92 19.29 42.54L19.32 42.57L19.36 42.61Q19.93 40.09 20.42 35.83L20.45 35.86L20.35 35.75Q23.11 38.17 28.55 42.51Z"/><path fill="#222" d="M75.61 41.31L75.51 41.20L72.51 41.06L72.59 41.14Q70.24 41.08 69.44 40.96L69.32 40.84L69.42 40.94Q67.56 40.56 66.38 39.69L66.36 39.67L66.31 39.62Q64.95 38.15 64.73 34.80L64.84 34.91L64.76 34.83Q64.76 34.38 64.69 33.16L64.65 33.12L64.70 33.17Q64.78 32.84 64.71 31.73L64.68 31.71L64.58 31.60Q64.57 30.79 64.60 30.07L64.54 30.00L64.67 30.14Q64.78 28.11 65.80 27.35L65.77 27.32L65.89 27.44Q67.71 26.17 72.54 25.94L72.72 26.11L72.55 25.95Q74.75 26.01 75.55 26.01L75.35 25.82L75.48 25.94Q77.02 26.00 78.39 26.31L78.31 26.22L78.35 26.27Q77.80 27.54 77.26 29.37L77.14 29.24L77.25 29.35Q76.77 29.45 76.28 29.41L76.16 29.29L76.31 29.44Q76.16 29.37 75.62 29.25L75.57 29.20L74.56 28.91L74.57 28.92Q73.59 28.74 72.98 28.78L72.94 28.74L72.99 28.79Q68.13 28.73 67.52 31.54L67.56 31.58L67.57 31.59Q67.42 32.84 67.49 33.80L67.50 33.80L67.44 33.74Q67.55 36.29 68.78 37.37L68.88 37.47L68.83 37.42Q70.02 38.45 72.60 38.49L72.67 38.56L72.65 38.53Q74.17 38.61 74.89 38.30L74.92 38.33L75.91 37.80L75.86 37.75Q76.35 37.48 76.92 37.40L76.89 37.37L77.02 37.50Q77.25 39.29 77.63 40.59L77.59 40.54L77.54 40.50Q77.39 40.95 75.60 41.29ZM78.86 44.25L78.73 44.12L78.84 44.23Q79.10 44.15 79.94 44.22L80.03 44.32L80.00 44.28Q80.74 44.42 81.08 43.85L80.98 43.74L81.05 43.82Q79.76 41.65 79.27 39.56L79.29 39.58L79.31 39.60Q78.85 39.44 78.39 39.44L78.54 39.59L78.53 39.58Q78.07 39.54 77.69 39.73L77.79 39.83L77.65 39.69Q77.36 38.49 77.21 37.08L77.22 37.09L77.16 37.03Q76.64 37.04 75.42 37.61L75.38 37.57L75.45 37.64Q74.25 38.23 73.75 38.23L73.63 38.10L73.70 38.18Q73.15 38.12 72.54 38.08L72.59 38.14L72.57 38.11Q71.64 38.06 69.66 37.49L69.73 37.55L69.70 37.52Q69.45 36.89 69.48 35.75L69.44 35.70L69.40 35.67Q69.50 31.35 74.44 30.81L74.46 30.82L74.55 30.92Q75.24 30.93 76.61 31.27L76.57 31.23L76.52 31.17Q78.01 31.64 78.74 31.60L78.64 31.50L78.66 31.52Q79.03 29.23 79.72 27.41L79.86 27.55L79.87 27.56Q79.32 27.27 78.94 27.20L79.08 27.34L78.23 27.17L78.20 27.14Q78.46 26.72 78.84 25.85L78.78 25.78L78.85 25.85Q77.41 25.59 75.85 25.59L75.77 25.52L75.81 25.55Q73.45 25.59 69.07 25.98L69.02 25.92L68.94 25.84Q67.09 26.09 65.53 27.08L65.55 27.09L65.51 27.06Q64.22 27.94 64.22 29.84L64.28 29.90L64.34 29.96Q64.29 30.33 64.40 31.54L64.44 31.58L64.45 31.59Q64.52 32.62 64.48 33.23L64.36 33.10L64.43 33.17Q64.40 35.01 65.12 38.74L65.12 38.73L65.25 38.86Q65.62 39.69 66.11 40.18L65.95 40.02L66.18 40.25L66.36 40.39L66.35 40.38Q67.24 42.38 71.16 42.99L71.35 43.18L71.33 43.16Q74.39 43.54 77.05 43.81L77.08 43.85L77.15 43.91Q77.84 43.87 78.75 44.14Z"/><path fill="#333" d="M93.62 26.77L93.60 26.75L93.76 26.91Q95.51 27.02 97.34 27.02L97.38 27.06L97.24 26.92Q99.02 26.91 100.84 26.76L100.89 26.80L100.85 26.77Q100.82 27.50 100.82 28.22L100.73 28.13L100.75 29.48L100.70 29.43Q98.48 29.57 93.72 29.69L93.62 29.59L93.63 29.59Q93.72 35.62 92.57 40.61L92.64 40.67L92.60 40.64Q90.38 41.31 88.90 42.11L88.77 41.98L88.78 41.99Q91.25 35.32 90.98 28.20L90.84 28.07L90.99 28.21Q90.60 20.93 87.93 14.27L87.99 14.32L88.00 14.34Q91.75 16.94 96.51 17.17L96.37 17.03L96.34 17.00Q100.97 17.13 105.12 15.38L105.26 15.53L105.24 15.51Q105.00 16.37 104.77 17.17L104.76 17.16L104.14 18.63L104.25 18.75Q101.45 19.75 98.48 19.91L98.55 19.97L98.54 19.97Q95.64 20.14 92.78 19.42L92.82 19.46L92.71 19.35Q93.53 22.87 93.72 26.87ZM105.79 14.73L105.78 14.72L105.89 14.83Q101.32 17.00 96.45 16.69L96.40 16.64L96.44 16.69Q91.15 16.42 87.42 13.56L87.35 13.50L87.28 13.42Q90.17 20.38 90.47 28.00L90.45 27.97L90.48 28.00Q90.88 36.02 88.36 42.79L88.36 42.79L88.28 42.71Q88.94 42.30 90.31 41.66L90.40 41.75L90.34 41.69Q90.09 42.38 89.52 43.91L89.68 44.07L89.70 44.09Q91.84 42.84 94.73 42.34L94.80 42.41L94.86 42.47Q95.37 37.50 95.56 31.79L95.56 31.79L95.59 31.82Q97.43 31.84 99.26 31.84L99.20 31.78L99.19 31.77Q101.00 31.78 102.82 31.97L102.87 32.02L102.92 32.07Q102.74 31.05 102.74 30.14L102.82 30.22L102.78 28.28L102.66 28.15Q101.96 28.33 101.12 28.33L101.05 28.26L101.13 28.34Q101.12 27.46 101.20 26.43L101.18 26.41L101.18 26.41Q99.94 26.73 98.53 26.73L98.35 26.55L98.53 26.73Q96.94 26.55 95.57 26.51L95.65 26.59L95.60 24.41L95.64 24.45Q95.63 23.37 95.51 22.30L95.42 22.21L95.50 22.29Q96.35 22.22 97.34 22.22L97.44 22.33L97.51 22.39Q102.24 22.37 105.86 20.46L105.69 20.30L105.72 20.33Q106.30 18.59 107.22 15.96L107.21 15.96L107.12 15.86Q105.97 16.84 105.17 17.19L105.08 17.10L105.17 17.19Q105.41 16.40 105.91 14.84Z"/><path fill="#111" d="M50.67 29.50L50.65 29.48L50.75 29.58Q49.44 28.68 48.79 28.72L48.92 28.85L48.89 28.82Q47.51 28.89 46.46 29.90L46.39 29.82L46.37 29.80Q45.46 30.95 45.57 32.32L45.57 32.32L45.47 32.21Q45.76 36.54 44.89 41.07L44.96 41.15L44.97 41.16Q42.68 41.53 41.58 42.06L41.55 42.04L41.66 42.14Q43.06 37.87 42.83 33.42L42.92 33.51L42.89 33.48Q42.60 28.93 40.89 24.85L40.93 24.90L40.92 24.89Q41.97 25.48 44.25 26.12L44.40 26.27L45.00 29.01L44.86 28.86Q45.51 25.94 49.77 25.94L49.80 25.96L49.77 25.93Q50.29 25.99 50.59 25.99L50.54 25.94L50.62 26.02Q51.89 25.99 53.14 26.68L53.18 26.71L53.04 26.58Q51.88 28.08 50.74 29.56ZM52.36 31.57L52.47 31.52L52.33 31.39Q53.30 30.30 54.98 27.87L55.02 27.91L54.93 27.82Q54.38 27.38 52.86 27.11L53.03 27.28L52.87 27.13Q53.25 26.86 53.70 26.25L53.70 26.24L53.78 26.32Q51.83 25.37 49.89 25.56L49.83 25.50L49.87 25.53Q48.05 25.84 47.32 26.11L47.25 26.04L47.19 25.98Q45.85 26.47 45.05 27.57L44.94 27.46L44.90 26.77L44.75 25.97L44.68 25.91Q42.22 25.43 40.24 24.10L40.20 24.06L40.31 24.16Q42.35 28.45 42.58 33.32L42.66 33.40L42.69 33.43Q42.85 38.27 41.10 42.81L41.16 42.87L41.17 42.88Q42.08 42.23 42.96 41.92L43.06 42.03L43.06 42.03Q42.83 43.16 42.33 44.23L42.20 44.10L42.36 44.26Q45.06 43.26 47.19 43.15L47.29 43.25L47.39 38.62L47.45 38.69Q47.57 36.45 47.57 34.20L47.49 34.12L47.64 34.27Q47.60 33.05 48.52 32.08L48.41 31.98L48.53 32.10Q49.40 31.08 50.54 31.00L50.63 31.10L50.51 30.97Q51.16 30.86 51.88 31.54L51.82 31.48L52.20 31.41ZM47.35 29.76L47.28 29.61L47.27 29.71L47.19 29.60Z"/></svg>