<svg xmlns="http://www.w3.org/2000/svg" width="150" height="50" viewBox="0,0,150,50"><path fill="#111" d="M26.21 41.24L26.21 41.24L23.26 41.15L23.14 41.02Q20.77 40.94 19.98 40.83L20.08 40.94L20.08 40.93Q18.11 40.45 16.93 39.57L17.05 39.69L17.09 39.73Q15.76 38.28 15.53 34.93L15.39 34.80L15.42 34.82Q15.55 34.50 15.48 33.28L15.47 33.28L15.30 33.10Q15.38 32.77 15.30 31.66L15.30 31.66L15.32 31.68Q15.36 30.92 15.40 30.20L15.26 30.06L15.26 30.06Q15.57 28.23 16.59 27.47L16.58 27.45L16.45 27.33Q18.44 26.24 23.28 26.01L23.35 26.08L23.21 25.94Q25.26 25.86 26.06 25.86L26.02 25.82L26.13 25.93Q27.52 25.84 28.89 26.14L28.92 26.17L28.95 26.20Q28.39 27.46 27.85 29.29L27.86 29.29L27.92 29.36Q27.39 29.40 26.90 29.36L26.94 29.41L26.82 29.29Q26.83 29.37 26.29 29.25L26.19 29.15L25.25 28.93L25.37 29.06Q24.29 28.77 23.68 28.81L23.55 28.68L23.68 28.81Q18.94 28.86 18.33 31.68L18.27 31.63L18.31 31.67Q18.03 32.79 18.11 33.75L18.02 33.66L18.12 33.75Q18.27 36.35 19.51 37.43L19.43 37.35L19.53 37.45Q20.73 38.50 23.32 38.54L23.32 38.53L23.39 38.61Q24.71 38.48 25.43 38.18L25.56 38.30L26.50 37.72L26.47 37.69Q27.09 37.55 27.66 37.47L27.72 37.53L27.71 37.52Q27.81 39.18 28.19 40.48L28.22 40.51L28.31 40.59Q28.07 40.97 26.29 41.31ZM29.46 44.19L29.55 44.28L29.45 44.17Q29.80 44.18 30.64 44.26L30.75 44.37L30.76 44.38Q31.37 44.38 31.71 43.81L31.76 43.85L31.58 43.67Q30.42 41.65 29.93 39.55L29.98 39.61L29.94 39.57Q29.69 39.62 29.23 39.62L29.21 39.59L29.06 39.45Q28.67 39.47 28.29 39.66L28.30 39.68L28.35 39.72Q28.09 38.55 27.94 37.14L27.92 37.12L27.95 37.15Q27.31 37.05 26.10 37.62L26.03 37.56L26.06 37.58Q24.85 38.17 24.36 38.17L24.39 38.20L24.39 38.20Q23.92 38.22 23.31 38.18L23.21 38.09L23.31 38.19Q22.34 38.10 20.36 37.52L20.38 37.54L20.35 37.51Q20.02 36.80 20.06 35.66L20.14 35.74L20.16 35.76Q20.30 31.48 25.25 30.95L25.30 31.00L25.23 30.93Q25.80 30.81 27.17 31.16L27.34 31.33L27.35 31.34Q28.71 31.67 29.43 31.63L29.38 31.57L29.34 31.54Q29.72 29.26 30.41 27.43L30.41 27.43L30.48 27.50Q30.06 27.35 29.68 27.27L29.62 27.21L29.01 27.29L28.98 27.25Q29.21 26.80 29.59 25.93L29.56 25.90L29.41 25.74Q28.04 25.56 26.48 25.56L26.36 25.44L26.47 25.55Q24.07 25.54 19.69 25.92L19.72 25.95L19.66 25.89Q17.69 26.02 16.13 27.01L16.14 27.02L16.04 26.92Q14.93 27.98 14.93 29.88L14.92 29.87L14.84 29.79Q14.83 30.20 14.94 31.42L15.11 31.58L14.96 31.44Q15.04 32.46 15.00 33.07L14.98 33.06L14.99 33.06Q15.01 34.95 15.74 38.68L15.77 38.72L15.89 38.83Q16.14 39.54 16.63 40.04L16.65 40.05L16.98 40.38L16.96 40.32L16.99 40.35Q18.01 42.48 21.93 43.09L21.91 43.07L21.87 43.03Q25.00 43.49 27.66 43.76L27.74 43.83L27.67 43.76Q28.47 43.85 29.39 44.11Z"/><path fill="#222" d="M113.71 15.80L113.71 15.79L113.74 15.82Q115.70 20.75 116.27 25.93L116.17 25.83L116.34 26.00Q120.04 21.86 125.94 17.02L125.89 16.98L125.78 16.87Q129.06 16.64 131.68 15.84L131.76 15.92L125.16 21.50L125.03 21.37Q121.68 24.38 118.83 27.23L118.94 27.34L118.89 27.29Q126.75 36.33 131.81 41.05L131.86 41.11L131.94 41.18Q128.85 40.26 126.52 40.11L126.40 39.98L126.55 40.13Q120.64 34.60 116.34 28.78L116.32 28.76L116.33 28.77Q116.49 35.44 114.63 40.77L114.57 40.71L114.70 40.85Q114.29 40.70 113.79 40.89L113.88 40.98L113.87 41.15L113.93 41.21Q113.65 41.16 111.10 42.08L111.13 42.11L111.10 42.08Q114.06 35.52 113.72 28.06L113.80 28.14L113.79 28.13Q113.41 20.75 109.87 14.24L109.88 14.25L110.38 14.49L110.77 14.76L110.83 14.78L110.87 14.82Q111.57 15.18 113.78 15.87ZM114.00 15.51L114.08 15.59L114.04 15.55Q111.74 14.97 109.11 13.44L109.10 13.43L109.19 13.52Q113.52 20.86 113.52 29.81L113.52 29.81L113.38 29.67Q113.47 36.76 110.50 42.81L110.55 42.87L112.45 41.87L112.43 41.85Q112.18 43.01 111.49 44.30L111.35 44.16L111.46 44.27Q113.65 43.41 115.59 42.99L115.52 42.92L115.68 42.85L115.60 42.77Q115.92 42.79 116.50 42.64L116.58 42.73L116.58 42.73Q118.20 36.77 118.31 31.97L118.30 31.96L118.22 31.88Q120.44 34.51 122.26 36.38L122.23 36.35L122.11 36.23Q123.40 37.44 126.41 40.41L126.29 40.29L126.44 40.44L126.36 40.36Q127.42 41.23 129.28 42.83L129.34 42.89L129.21 42.75Q133.25 43.63 136.71 45.35L136.61 45.24L136.71 45.34Q127.41 36.77 121.17 29.34L121.12 29.30L121.12 29.30Q125.41 24.91 134.17 16.31L134.26 16.40L134.27 16.41Q131.78 17.61 129.76 17.99L129.75 17.98L129.75 17.98Q130.84 16.86 133.17 14.85L133.17 14.85L133.30 14.98Q129.04 16.24 125.69 16.43L125.69 16.43L125.69 16.43Q122.86 18.74 117.98 23.42L117.88 23.31L118.06 23.49Q117.58 20.81 117.01 18.26L117.06 18.31L117.00 18.25Q115.81 18.08 114.82 17.74L114.88 17.81L114.84 17.76Q114.60 16.99 114.02 15.54Z"/><path fill="#222" d="M43.76 40.37L43.82 40.43L43.72 40.32Q39.78 40.69 38.79 38.37L38.76 38.33L38.64 38.21Q39.53 37.40 41.09 35.61L41.08 35.59L40.95 35.46Q41.46 37.50 44.47 37.61L44.56 37.71L44.47 37.61Q47.87 37.69 49.50 36.36L49.47 36.33L49.59 36.45Q50.99 34.84 50.92 32.14L50.94 32.17L50.83 32.06Q50.83 27.15 46.04 27.38L46.04 27.38L45.88 27.22Q43.05 27.35 41.30 28.61L41.29 28.61L41.13 28.60L40.83 28.38L40.75 28.29Q41.18 25.22 41.06 22.48L41.15 22.57L40.99 22.41Q40.91 19.82 40.57 16.50L40.61 16.55L40.52 16.45Q44.23 17.46 48.04 17.35L48.10 17.41L47.99 17.30Q51.95 17.37 55.53 16.12L55.36 15.96L54.97 17.66L54.87 17.56Q54.56 18.31 54.36 19.14L54.38 19.16L54.32 19.10Q51.37 20.30 47.49 20.30L47.32 20.13L47.45 20.26Q45.93 20.18 44.44 20.03L44.53 20.12L44.36 19.95Q44.33 20.68 43.98 25.13L43.96 25.11L44.07 25.22Q44.96 24.81 47.01 24.66L46.92 24.56L46.87 24.51Q50.66 24.80 52.10 26.47L52.11 26.48L52.10 26.47Q53.47 28.00 53.74 31.84L53.80 31.90L53.79 31.90Q54.05 36.08 52.84 38.10L52.77 38.03L52.85 38.11Q50.84 40.02 47.53 40.25L47.42 40.14L47.46 40.18Q46.43 40.22 43.77 40.37ZM49.85 42.68L49.80 42.64L49.87 42.71Q53.25 42.74 55.16 41.64L55.11 41.59L55.16 41.64Q56.22 40.18 56.22 38.09L56.16 38.03L56.13 38.00Q56.18 34.97 55.23 30.85L55.22 30.85L55.18 30.81Q54.79 29.05 53.57 27.64L53.59 27.66L53.62 27.73L53.37 27.40L53.04 27.22L53.14 27.32Q52.84 26.60 52.19 25.92L52.11 25.83L52.08 25.84L52.12 25.88Q50.53 24.14 46.83 24.14L46.96 24.26L46.67 24.24L46.69 24.26Q46.73 23.65 46.92 22.55L46.92 22.55L46.89 22.51Q51.80 22.56 55.84 20.92L55.99 21.07L55.83 20.92Q56.37 19.63 57.32 16.81L57.26 16.75L55.19 17.73L55.23 17.76Q55.63 16.64 56.12 15.50L56.01 15.38L56.11 15.48Q52.15 16.81 48.03 16.89L48.17 17.02L48.12 16.97Q43.93 17.01 39.97 15.90L39.96 15.90L39.98 15.91Q40.76 20.43 40.76 24.84L40.82 24.90L40.80 24.88Q40.77 26.76 40.66 28.66L40.60 28.60L40.58 28.58Q40.86 28.79 41.43 29.09L41.51 29.17L41.45 29.11Q41.81 28.90 42.46 28.56L42.44 28.54L42.43 28.53Q42.43 29.33 42.20 30.85L42.16 30.81L42.17 30.81Q42.51 30.93 42.93 31.16L42.94 31.17L42.95 31.18Q45.78 29.47 47.64 29.47L47.58 29.42L47.74 29.58Q48.93 29.43 50.11 30.08L50.26 30.23L50.19 30.16Q50.55 31.21 50.59 32.16L50.51 32.07L50.46 32.03Q50.67 34.75 49.64 35.85L49.67 35.88L49.65 35.86Q48.15 36.95 45.91 37.18L45.88 37.16L45.91 37.19Q45.06 37.36 44.37 37.28L44.36 37.27L44.37 37.28Q43.56 37.19 42.79 36.85L42.73 36.79L42.63 36.49L42.66 36.75L42.63 36.72Q41.73 36.13 41.20 34.80L41.21 34.80L41.33 34.93Q39.91 36.25 38.24 38.38L38.29 38.44L38.18 38.32Q38.65 39.13 39.48 40.09L39.40 40.01L39.34 39.94Q40.44 41.81 43.26 42.30L43.27 42.31L43.27 42.31Q44.43 42.52 49.80 42.64Z"/><path fill="#333" d="M72.34 18.52L72.25 18.44L72.34 18.52Q71.59 18.88 71.44 19.68L71.33 19.57L71.40 24.78L71.36 24.74Q72.61 24.84 74.82 24.58L74.77 24.53L74.72 24.48Q74.76 24.98 74.72 25.81L74.74 25.84L74.59 25.69Q74.60 26.49 74.60 26.95L74.69 27.04L72.97 27.00L73.11 27.14Q72.28 27.18 71.40 27.18L71.36 27.14L71.34 27.12Q71.47 31.44 71.40 39.81L71.36 39.78L71.36 39.77Q69.20 39.91 67.72 40.59L67.58 40.45L67.60 40.47Q68.72 34.35 68.60 27.12L68.56 27.08L68.63 27.15Q67.84 26.97 66.55 26.70L66.61 26.77L66.56 26.71Q66.56 25.72 66.37 23.78L66.40 23.81L66.49 23.90Q67.62 24.42 68.57 24.61L68.52 24.57L68.47 24.51Q68.45 23.89 68.15 21.41L68.15 21.41L68.09 21.36Q68.00 19.43 68.00 18.48L67.99 18.48L67.92 18.40Q67.94 16.75 69.35 16.18L69.39 16.23L69.42 16.25Q70.12 15.77 74.96 14.94L75.07 15.04L75.10 15.08Q75.89 14.92 76.73 14.80L76.57 14.64L76.67 14.75Q76.36 15.43 76.21 16.30L76.35 16.44L76.04 18.00L75.91 17.87Q75.37 17.82 74.87 17.93L74.91 17.97L74.79 17.86Q74.19 17.86 72.29 18.47ZM77.72 19.61L77.69 19.57L77.68 19.56Q78.04 17.37 78.65 14.82L78.57 14.75L78.63 14.80Q78.11 15.24 76.82 15.85L76.67 15.70L77.11 14.04L77.17 14.10Q75.84 14.18 73.37 14.72L73.54 14.89L73.49 14.84Q72.34 14.95 69.14 15.86L68.99 15.71L69.03 15.74Q67.44 16.14 67.44 18.00L67.47 18.03L67.44 18.00Q67.42 18.28 67.49 18.62L67.52 18.66L67.59 18.73Q67.89 20.12 68.00 21.45L67.96 21.41L68.11 24.04L68.06 23.99Q66.82 23.74 66.17 23.28L66.06 23.17L66.01 23.12Q66.18 24.13 66.22 25.16L66.20 25.14L66.41 27.22L66.42 27.22Q67.18 27.45 67.98 27.53L67.83 27.38L67.81 29.45L68.34 29.60L68.35 29.61Q68.11 35.61 67.12 41.05L67.23 41.16L67.12 41.06Q68.12 40.57 69.30 40.31L69.25 40.26L69.22 42.47L69.08 42.33Q70.37 42.09 71.66 42.06L71.65 42.04L71.70 42.09Q72.82 41.96 74.07 42.22L74.10 42.25L74.26 42.41Q73.26 37.26 73.26 29.30L73.31 29.36L73.24 29.28Q74.44 29.38 76.53 29.45L76.58 29.50L76.60 27.65L76.51 27.57Q76.50 26.61 76.54 25.66L76.53 25.65L76.54 25.65Q76.07 25.76 75.01 26.03L75.03 26.05L75.03 26.05Q75.02 25.36 75.14 24.02L75.17 24.05L75.03 23.92Q74.25 24.21 73.45 24.28L73.50 24.33L73.47 24.30Q73.50 22.92 73.62 21.52L73.67 21.57L73.69 21.58Q73.77 20.87 74.30 20.52L74.35 20.57L74.34 20.57Q75.27 19.85 76.09 19.78L76.01 19.70L75.96 19.65Q76.84 19.64 77.68 19.56Z"/><path fill="#333" d="M100.08 29.57L99.96 29.45L100.03 29.52Q98.78 28.69 98.13 28.73L98.22 28.82L98.12 28.72Q96.86 28.90 95.81 29.91L95.69 29.79L95.70 29.79Q94.65 30.81 94.77 32.18L94.82 32.23L94.75 32.16Q95.20 36.65 94.33 41.18L94.34 41.19L94.20 41.05Q91.96 41.48 90.86 42.01L91.00 42.16L91.02 42.18Q92.38 37.87 92.16 33.41L92.10 33.35L92.21 33.46Q91.95 28.95 90.24 24.87L90.30 24.93L90.32 24.95Q91.39 25.57 93.68 26.22L93.59 26.13L94.16 28.83L94.16 28.83Q94.85 25.95 99.12 25.95L99.22 26.05L99.14 25.97Q99.67 26.04 99.97 26.04L99.88 25.94L99.92 25.99Q101.27 26.04 102.53 26.73L102.52 26.72L102.41 26.61Q101.14 28.00 100.00 29.49ZM101.52 31.40L101.80 31.52L101.61 31.33Q102.68 30.34 104.35 27.91L104.20 27.75L104.32 27.87Q103.80 27.47 102.28 27.21L102.20 27.12L102.32 27.24Q102.61 26.89 103.07 26.28L102.99 26.20L102.99 26.20Q101.27 25.47 99.33 25.66L99.28 25.61L99.24 25.57Q97.23 25.70 96.51 25.96L96.66 26.11L96.48 25.94Q95.10 26.38 94.30 27.48L94.40 27.59L94.21 26.75L94.01 25.90L93.90 25.79Q91.68 25.55 89.70 24.21L89.51 24.03L89.66 24.18Q91.80 28.56 92.03 33.44L91.94 33.35L91.98 33.39Q92.25 38.34 90.50 42.87L90.42 42.79L90.39 42.77Q91.60 42.41 92.48 42.11L92.29 41.92L92.46 42.09Q92.21 43.21 91.71 44.28L91.57 44.13L91.70 44.26Q94.39 43.26 96.52 43.15L96.64 43.26L96.77 38.67L96.89 38.79Q96.99 36.53 96.99 34.28L96.89 34.19L96.88 34.18Q97.00 33.12 97.92 32.15L97.89 32.13L97.85 32.08Q98.69 31.04 99.83 30.96L99.89 31.02L99.88 31.01Q100.57 30.94 101.30 31.63L101.20 31.53L101.57 31.44ZM96.60 29.67L96.62 29.62L96.62 29.73L96.68 29.75Z"/></svg>