<svg xmlns="http://www.w3.org/2000/svg" width="150" height="50" viewBox="0,0,150,50"><path fill="#333" d="M26.03 30.87L25.96 30.81L25.98 30.83Q26.21 29.53 25.39 28.61L25.26 28.49L25.40 28.63Q24.49 27.62 23.04 27.66L22.98 27.59L22.99 27.60Q20.63 27.65 19.79 29.78L19.79 29.77L19.97 29.96Q19.58 30.63 19.55 31.32L19.55 31.32L19.66 31.43Q19.40 36.23 18.48 40.57L18.52 40.61L18.44 40.53Q16.76 41.05 14.89 42.04L14.81 41.96L14.96 42.12Q17.26 35.16 16.99 27.85L16.95 27.81L16.93 27.79Q16.56 20.34 14.01 13.53L14.03 13.55L14.12 13.63Q15.91 14.97 17.93 15.66L17.79 15.51L17.84 15.57Q19.30 21.36 19.49 27.23L19.49 27.22L19.50 27.24Q20.83 25.11 23.54 25.18L23.64 25.29L23.58 25.23Q28.75 25.41 28.87 30.78L28.79 30.70L28.82 30.73Q28.98 36.45 30.35 41.10L30.34 41.09L30.32 41.06Q28.53 40.30 26.78 40.11L26.78 40.12L26.62 39.96Q26.08 36.67 25.97 30.81ZM26.38 40.36L26.34 40.32L26.29 40.27Q27.40 40.46 28.50 40.73L28.53 40.76L28.55 40.78Q28.50 40.84 29.03 42.82L29.12 42.91L29.05 42.84Q32.02 43.79 34.04 45.24L34.11 45.31L34.16 45.36Q31.45 39.57 30.92 33.25L30.92 33.25L30.92 33.26Q30.56 29.50 29.15 27.94L29.20 27.99L29.10 27.89Q29.02 27.73 28.37 27.28L28.36 27.26L28.39 27.29Q28.26 26.90 27.61 26.14L27.59 26.12L27.54 25.99L27.57 26.02Q26.64 25.09 23.52 24.83L23.67 24.98L23.52 24.82Q22.82 24.84 21.41 25.19L21.42 25.19L21.53 25.31Q21.33 20.46 20.98 17.95L20.83 17.80L20.90 17.86Q20.19 17.80 18.71 17.50L18.66 17.45L18.73 17.52Q18.47 16.69 18.21 15.21L18.31 15.31L18.32 15.32Q15.36 14.34 13.49 12.78L13.46 12.75L13.32 12.61Q16.27 19.74 16.53 27.55L16.52 27.53L16.58 27.60Q17.00 35.51 14.45 42.86L14.45 42.86L14.27 42.68Q15.36 42.25 16.50 41.75L16.48 41.73L15.71 43.96L15.71 43.97Q18.85 42.65 20.82 42.46L20.82 42.45L20.87 42.50Q21.31 36.96 21.50 33.00L21.52 33.03L21.53 33.03Q21.75 31.32 23.69 30.21L23.69 30.21L23.68 30.20Q24.20 29.96 24.74 30.00L24.72 29.99L24.61 29.88Q24.86 29.97 25.20 30.01L25.11 29.92L25.52 29.99L25.57 30.03Q25.55 30.40 25.67 30.86L25.80 30.99L25.71 30.90Q25.90 36.95 26.40 40.38Z"/><path fill="#222" d="M96.64 30.40L96.67 30.43L96.64 30.40Q93.24 36.82 89.81 40.78L89.82 40.78L89.68 40.65Q87.87 41.12 85.44 42.00L85.38 41.94L85.39 41.96Q90.34 36.39 95.10 27.98L95.07 27.95L95.21 28.09Q90.55 21.07 84.57 14.68L84.50 14.60L84.61 14.72Q87.56 15.95 89.84 16.44L89.68 16.28L89.74 16.34Q94.48 21.65 96.91 25.61L96.93 25.63L96.79 25.48Q99.31 21.07 103.23 16.65L103.21 16.64L103.34 16.76Q104.94 16.47 108.14 15.71L108.02 15.58L107.99 15.56Q101.97 22.06 98.50 28.00L98.52 28.01L98.44 27.93Q103.66 36.66 108.04 41.22L108.14 41.32L108.06 41.25Q105.52 40.49 103.43 40.27L103.42 40.26L103.38 40.22Q100.57 37.22 96.65 30.41ZM103.33 40.59L103.26 40.52L103.33 40.59Q103.57 40.57 104.03 40.68L104.00 40.65L104.07 40.72Q104.82 41.44 106.35 43.03L106.32 43.01L106.48 43.16Q109.83 43.96 112.87 45.33L112.71 45.17L112.78 45.24Q105.60 38.60 100.50 29.84L100.54 29.88L100.58 29.92Q104.34 23.29 110.24 16.44L110.19 16.38L110.28 16.47Q108.79 17.08 106.62 17.62L106.55 17.54L106.61 17.60Q107.55 16.75 109.30 14.96L109.14 14.80L109.12 14.78Q106.89 15.83 103.20 16.40L103.16 16.35L103.12 16.32Q99.68 20.11 97.09 24.41L97.15 24.47L97.04 24.36Q96.14 22.78 94.96 21.30L95.00 21.33L92.77 18.45L92.43 18.49L92.32 18.38Q92.22 18.44 91.99 18.36L92.00 18.38L91.87 18.24Q91.19 17.41 89.71 15.85L89.74 15.88L89.89 16.03Q86.08 15.16 83.49 13.79L83.35 13.64L83.50 13.79Q90.08 20.91 94.65 27.95L94.78 28.08L94.80 28.10Q90.12 36.09 84.37 42.68L84.42 42.73L84.56 42.87Q85.89 42.22 88.02 41.65L87.93 41.56L86.54 42.91L86.56 42.93Q86.68 43.05 85.34 44.38L85.35 44.39L85.40 44.43Q88.24 43.20 91.40 42.71L91.56 42.87L91.48 42.78Q95.41 38.19 98.00 33.44L98.06 33.49L98.02 33.45Q100.63 37.74 103.34 40.59Z"/><path fill="#333" d="M118.38 26.87L118.43 26.91L118.26 26.74Q120.14 26.99 121.97 26.99L121.93 26.94L122.03 27.04Q123.67 26.89 125.49 26.74L125.61 26.86L125.65 26.90Q125.44 27.45 125.44 28.17L125.56 28.29L125.46 29.52L125.52 29.59Q123.04 29.46 118.28 29.58L118.34 29.64L118.29 29.59Q118.44 35.67 117.29 40.66L117.25 40.61L117.21 40.57Q115.06 41.32 113.57 42.12L113.43 41.97L113.48 42.02Q115.92 35.32 115.65 28.20L115.48 28.03L115.52 28.08Q115.26 20.92 112.59 14.26L112.63 14.29L112.60 14.27Q116.35 16.87 121.10 17.10L121.00 17.00L121.16 17.15Q125.83 17.33 129.98 15.58L129.78 15.38L129.83 15.44Q129.69 16.39 129.46 17.19L129.29 17.03L128.83 18.65L128.93 18.75Q126.29 19.92 123.32 20.07L123.27 20.02L123.19 19.95Q120.34 20.17 117.48 19.45L117.51 19.48L117.53 19.50Q118.23 22.91 118.42 26.90ZM130.63 14.90L130.53 14.80L130.47 14.74Q125.85 16.86 120.98 16.55L121.07 16.64L121.05 16.62Q115.70 16.31 111.97 13.45L111.95 13.43L111.91 13.39Q114.87 20.42 115.18 28.04L115.26 28.12L115.13 27.99Q115.62 36.10 113.11 42.87L113.01 42.77L112.92 42.68Q113.76 42.45 115.13 41.80L115.12 41.79L115.13 41.81Q114.75 42.38 114.18 43.90L114.34 44.07L114.22 43.94Q116.67 43.00 119.56 42.51L119.53 42.47L119.45 42.40Q120.13 37.59 120.32 31.88L120.27 31.84L120.32 31.89Q121.99 31.73 123.82 31.73L123.94 31.85L124.00 31.91Q125.75 31.87 127.58 32.06L127.54 32.03L127.44 31.92Q127.32 30.96 127.32 30.05L127.35 30.08L127.46 28.29L127.41 28.24Q126.56 28.27 125.72 28.27L125.71 28.25L125.77 28.31Q125.80 27.47 125.88 26.44L125.89 26.45L125.80 26.36Q124.43 26.55 123.02 26.55L123.09 26.62L123.10 26.64Q121.76 26.70 120.39 26.66L120.36 26.64L120.25 24.39L120.21 24.35Q120.11 23.19 120.00 22.12L120.08 22.20L120.00 22.12Q121.01 22.22 122.00 22.22L122.09 22.31L122.05 22.27Q126.82 22.28 130.44 20.38L130.46 20.40L130.46 20.40Q130.92 18.54 131.83 15.91L131.77 15.85L131.94 16.02Q130.53 16.74 129.73 17.09L129.85 17.20L129.73 17.08Q130.02 16.34 130.51 14.78Z"/><path fill="#333" d="M79.93 23.26L79.92 23.25L79.91 23.24Q78.22 19.19 72.01 19.38L71.95 19.31L72.11 19.47Q67.55 19.44 65.57 20.89L65.72 21.04L65.58 20.90Q63.20 22.67 63.20 26.78L63.25 26.83L63.24 28.69L63.20 28.65Q63.18 37.46 72.21 37.46L72.36 37.61L72.30 37.56Q74.36 37.56 75.84 36.76L75.87 36.79L75.85 36.77Q77.69 35.75 77.54 33.89L77.51 33.86L77.57 33.91Q77.36 31.80 73.67 30.89L73.68 30.90L71.72 30.88L71.60 30.77Q70.63 30.75 69.68 30.79L69.75 30.85L69.83 30.93Q69.66 29.82 69.62 27.92L69.67 27.96L69.78 28.07Q77.30 27.93 81.48 27.59L81.59 27.70L81.51 27.61Q81.59 28.57 81.59 29.37L81.49 29.27L81.56 29.34Q81.43 30.01 81.47 30.81L81.50 30.85L81.61 30.96Q80.49 30.94 80.49 30.94L80.36 30.81L80.38 30.83Q79.02 30.84 79.41 30.84L79.50 30.94L79.39 30.82Q80.50 32.47 80.88 34.45L81.00 34.57L80.89 34.45Q81.08 35.26 81.08 35.72L81.11 35.74L80.95 35.59Q81.02 40.30 72.22 40.30L72.18 40.25L72.15 40.23Q65.08 40.28 62.50 38.18L62.61 38.30L62.50 38.19Q60.53 35.84 60.53 30.77L60.60 30.85L60.54 30.79Q60.52 29.70 60.37 27.00L60.43 27.05L60.37 27.00Q60.31 24.73 60.35 23.36L60.25 23.26L60.34 23.35Q60.44 20.48 61.81 18.88L61.76 18.84L61.73 18.81Q64.21 16.68 69.09 16.49L69.16 16.56L71.86 16.52L71.88 16.54Q74.88 16.35 78.31 16.77L78.28 16.74L78.40 16.86Q82.07 17.25 83.02 20.49L83.05 20.52L83.00 20.47Q82.12 21.53 80.03 23.36ZM81.26 25.39L81.58 25.59L81.46 25.47Q82.74 24.47 84.61 22.49L84.47 22.35L84.59 22.47Q84.20 21.44 83.21 19.73L83.18 19.69L83.24 19.76Q82.14 17.17 78.33 16.52L78.28 16.47L78.32 16.51Q76.21 16.41 71.91 16.11L71.90 16.10L69.19 16.21L69.07 16.09Q63.92 16.31 61.34 18.29L61.33 18.29L61.30 18.26Q60.07 20.04 59.96 23.12L59.89 23.05L59.94 23.10Q59.90 22.61 60.13 28.09L60.07 28.03L60.20 28.16Q60.07 29.36 60.14 32.10L60.18 32.14L60.28 32.24Q60.33 36.55 62.08 38.49L62.12 38.53L62.13 38.54Q62.46 39.33 63.34 40.21L63.42 40.29L63.48 40.35Q66.37 42.21 71.89 42.55L71.84 42.50L74.76 42.72L74.76 42.72Q76.40 42.88 78.42 42.76L78.33 42.67L78.31 42.65Q79.88 42.70 81.97 42.17L81.93 42.12L81.98 42.17Q83.88 41.63 83.84 39.31L83.77 39.25L83.70 39.18Q83.86 38.07 82.79 35.29L82.83 35.34L82.65 35.15Q82.43 34.33 81.90 33.53L81.86 33.49L81.98 33.61Q82.47 33.52 83.65 33.71L83.64 33.71L83.77 33.84Q83.46 30.21 83.49 29.53L83.50 29.53L83.45 29.48Q83.06 29.47 82.64 29.43L82.70 29.50L82.67 29.46Q82.19 29.33 81.81 29.40L81.89 29.49L81.85 29.44Q81.87 28.36 81.95 27.30L81.89 27.24L81.96 27.31Q75.68 27.81 69.40 27.69L69.44 27.73L69.43 27.72Q69.37 28.54 69.37 29.45L69.41 29.49L69.39 31.22L69.49 31.32Q69.85 31.30 70.27 31.26L70.19 31.19L70.22 31.21Q70.61 31.18 71.07 31.18L71.18 31.30L71.03 31.15Q71.06 31.63 71.10 32.13L71.12 32.15L71.05 32.08Q71.05 32.54 71.01 33.03L71.13 33.16L71.04 33.06Q72.24 33.20 73.27 33.16L73.21 33.10L73.26 33.15Q74.22 33.08 75.24 33.12L75.33 33.20L75.19 33.06Q76.31 33.38 77.18 33.76L77.17 33.75L77.22 33.83L77.10 33.71Q77.26 35.24 75.58 36.16L75.68 36.25L75.70 36.27Q73.94 37.11 72.23 37.11L72.23 37.11L72.27 37.15Q68.35 37.07 65.91 35.32L66.08 35.49L66.03 35.44Q65.00 33.34 65.15 30.79L65.11 30.75L65.26 30.90Q65.57 26.11 67.42 24.11L67.42 24.11L67.28 23.97Q69.13 21.97 73.81 21.67L73.85 21.71L73.90 21.76Q77.48 21.45 79.42 23.24L79.48 23.31L79.56 23.38Q79.53 23.39 79.64 23.58L79.59 23.53L79.80 23.62L79.73 23.55Q80.40 24.34 80.97 25.44L80.97 25.44L81.27 25.40Z"/><path fill="#111" d="M46.46 19.61L46.47 19.63L44.87 19.70L44.84 19.67Q42.67 19.86 42.44 21.88L42.42 21.86L42.51 21.94Q42.41 22.64 42.45 23.63L42.32 23.50L42.37 23.56Q42.42 25.51 43.67 26.84L43.76 26.93L43.61 26.78Q44.91 28.15 46.82 28.00L46.92 28.11L46.77 27.96Q48.86 27.84 49.62 26.93L49.62 26.93L49.60 26.90Q50.84 26.16 51.11 23.92L51.10 23.91L50.93 23.74Q51.26 21.56 50.00 20.72L50.09 20.80L50.09 20.80Q49.19 19.98 46.52 19.68ZM52.58 28.93L52.61 28.96L51.32 31.25L51.25 31.18Q48.61 36.04 44.84 40.11L44.82 40.09L44.80 40.07Q43.04 40.10 40.34 40.90L40.48 41.05L40.34 40.91Q45.81 34.77 48.97 29.97L48.84 29.84L48.97 29.97Q47.80 30.47 46.16 30.54L46.28 30.66L46.27 30.66Q43.27 30.81 41.75 28.84L41.78 28.86L41.80 28.89Q40.40 27.11 39.30 22.54L39.42 22.66L39.37 22.61Q39.50 22.28 39.34 21.35L39.17 21.17L39.28 21.29Q39.12 20.35 39.12 19.89L39.14 19.91L39.04 19.81Q39.03 18.01 40.10 17.40L40.12 17.43L40.19 17.50Q41.37 16.70 43.24 16.70L43.31 16.77L43.16 16.61Q46.53 16.79 46.53 16.79L46.45 16.71L46.38 16.64Q48.63 16.76 49.89 16.95L49.91 16.97L49.85 16.91Q51.96 17.16 52.88 17.66L53.00 17.78L53.00 17.78Q54.20 18.37 54.39 20.12L54.49 20.22L54.54 20.27Q54.45 20.40 54.26 23.07L54.29 23.11L54.32 23.13Q53.90 25.23 53.67 26.06L53.58 25.97L53.62 26.01Q53.23 27.41 52.47 28.82ZM54.42 31.27L54.35 31.20L54.48 31.33Q55.37 29.02 55.91 24.72L56.06 24.87L55.88 24.69Q56.18 22.52 56.15 21.65L56.21 21.71L56.29 21.79Q56.05 19.73 54.87 18.81L54.90 18.84L54.74 18.87L54.61 18.74Q54.30 17.93 53.38 17.29L53.48 17.38L53.47 17.38Q51.16 16.36 46.36 16.21L46.48 16.32L46.47 16.31Q45.35 16.15 42.92 16.15L43.10 16.33L43.00 16.23Q41.19 16.18 39.71 16.86L39.79 16.94L39.83 16.98Q38.69 17.78 38.76 19.61L38.69 19.53L38.77 19.61Q38.84 20.41 39.03 22.43L39.09 22.48L39.14 22.54Q39.65 25.07 39.92 25.90L40.03 26.01L40.03 26.01Q40.47 27.75 41.42 29.04L41.44 29.06L41.52 29.14Q41.81 29.51 42.19 29.89L42.07 29.77L42.19 29.88Q42.35 30.24 43.00 31.15L42.99 31.15L43.01 31.16Q44.44 32.48 46.38 32.67L46.46 32.75L46.58 32.86Q44.50 35.36 42.94 37.26L42.92 37.24L39.48 41.80L39.49 41.80Q41.73 41.04 43.36 40.69L43.21 40.54L43.35 40.68Q42.55 41.51 40.99 43.23L41.01 43.25L40.86 43.10Q44.14 42.38 47.26 42.35L47.17 42.25L47.20 42.28Q49.39 39.56 53.73 32.33L53.86 32.45L53.78 32.46L53.89 32.57Q54.18 31.86 54.52 31.37ZM48.33 21.94L48.42 22.03L48.39 22.00Q48.95 21.84 49.41 21.95L49.57 22.12L49.58 22.12Q50.16 22.17 50.54 22.29L50.48 22.22L50.61 22.35Q50.72 22.73 50.80 23.15L50.74 23.09L50.73 23.08Q50.84 23.54 50.73 23.92L50.70 23.89L50.68 23.88Q50.69 25.64 49.51 26.74L49.43 26.66L49.49 26.72Q48.55 27.76 46.92 27.72L46.85 27.66L46.80 27.61Q46.42 27.65 44.90 27.34L44.97 27.41L44.83 27.27Q44.60 26.40 44.60 25.67L44.78 25.85L44.66 25.74Q44.53 25.41 44.53 25.18L44.58 25.24L44.56 25.22Q44.63 23.08 46.92 22.28L46.91 22.27L46.84 22.21Q47.66 22.11 48.50 22.11Z"/></svg>