<svg xmlns="http://www.w3.org/2000/svg" width="150" height="50" viewBox="0,0,150,50"><path fill="#111" d="M94.92 28.94L94.91 28.93L94.91 28.93Q92.26 28.83 91.23 30.01L91.27 30.05L91.29 30.07Q90.36 31.35 90.36 33.98L90.31 33.93L90.34 33.96Q90.39 39.10 94.99 38.91L94.98 38.90L94.82 38.74Q96.96 38.98 98.31 37.42L98.44 37.54L98.42 37.52Q99.69 35.88 99.46 33.83L99.49 33.85L99.43 33.80Q99.44 31.25 98.56 30.22L98.56 30.23L98.58 30.24Q97.04 28.85 94.83 28.85ZM99.95 38.73L99.99 38.77L99.97 38.76Q98.70 41.13 94.01 41.13L94.14 41.26L92.61 41.18L92.63 41.20Q90.20 41.13 89.10 39.99L89.13 40.02L89.09 39.98Q88.13 39.02 87.86 36.62L87.82 36.58L87.91 36.67Q87.71 35.13 87.63 33.34L87.57 33.28L87.70 33.41Q87.54 32.30 87.39 30.36L87.48 30.45L87.44 30.41Q87.37 26.15 92.55 26.15L92.58 26.18L94.01 26.06L94.16 26.20Q96.99 26.14 99.09 27.44L99.07 27.43L99.14 27.50Q99.83 27.87 100.32 28.56L100.29 28.53L100.37 28.61Q100.64 27.81 101.17 26.17L101.11 26.11L101.08 26.08Q102.37 25.97 104.70 25.36L104.58 25.24L104.74 25.40Q102.17 29.65 102.17 34.90L102.19 34.91L102.12 34.85Q102.02 38.48 103.39 41.56L103.54 41.71L103.45 41.62Q102.28 41.29 100.37 41.06L100.43 41.12L100.51 41.19Q100.20 40.23 99.89 38.67ZM103.28 43.96L103.27 43.96L105.53 44.57L105.41 44.45Q106.73 44.87 107.72 45.32L107.73 45.33L107.68 45.28Q104.06 40.97 104.06 34.88L103.94 34.77L103.94 34.77Q104.05 30.34 106.18 26.53L106.07 26.43L106.20 26.55Q105.51 26.75 104.18 27.13L104.10 27.04L104.14 27.09Q104.42 26.27 105.30 24.74L105.44 24.89L105.39 24.83Q104.72 24.92 100.72 25.76L100.75 25.79L100.27 27.71L100.13 27.57Q98.40 25.87 93.98 25.64L94.07 25.73L94.11 25.78Q92.89 25.69 90.64 25.85L90.68 25.88L90.70 25.91Q87.03 26.27 87.14 30.30L87.05 30.21L87.03 30.19Q87.24 33.60 87.82 38.06L87.85 38.09L87.91 38.57L87.81 38.47Q87.90 39.28 88.70 40.39L88.67 40.35L88.74 40.43Q88.91 40.60 89.10 40.71L89.04 40.65L89.14 40.75Q89.26 41.10 89.64 41.67L89.80 41.83L89.71 41.74Q91.22 43.37 94.61 43.56L94.48 43.42L94.51 43.45Q96.16 43.58 96.31 43.58L96.23 43.50L97.89 43.60L97.88 43.59Q101.13 43.64 102.35 42.08L102.34 42.08L102.38 42.11Q102.72 42.72 103.33 44.02ZM96.69 31.17L96.69 31.17L96.71 31.19Q97.97 31.12 98.81 31.58L98.82 31.58L98.88 31.65Q99.20 32.46 99.20 33.91L99.18 33.89L99.08 33.79Q99.30 35.72 98.03 37.15L97.99 37.11L98.04 37.16Q96.88 38.71 94.98 38.52L94.91 38.45L94.88 38.42Q93.42 38.41 92.39 37.99L92.48 38.07L92.50 38.10Q92.18 37.13 92.18 35.91L92.30 36.03L92.21 35.94Q92.32 32.40 94.95 31.45L94.99 31.49L94.99 31.49Q95.91 31.19 96.71 31.19Z"/><path fill="#333" d="M120.56 19.71L120.40 19.55L118.98 19.81L119.01 19.84Q116.67 19.86 116.45 21.88L116.40 21.83L116.41 21.85Q116.46 22.69 116.50 23.68L116.42 23.61L116.33 23.51Q116.48 25.57 117.74 26.91L117.62 26.79L117.62 26.79Q118.88 28.12 120.78 27.97L120.87 28.06L120.96 28.14Q122.90 27.88 123.66 26.96L123.58 26.88L123.73 27.03Q124.67 25.99 124.93 23.75L124.91 23.72L124.94 23.75Q125.23 21.53 123.98 20.70L124.00 20.72L123.95 20.67Q123.12 19.91 120.45 19.61ZM126.58 28.93L126.62 28.97L125.15 31.08L125.18 31.11Q122.55 35.99 118.79 40.06L118.74 40.01L118.72 39.99Q117.04 40.11 114.34 40.91L114.50 41.07L114.42 40.98Q119.82 34.77 122.98 29.97L122.99 29.99L122.98 29.98Q121.86 30.53 120.22 30.61L120.17 30.55L120.18 30.57Q117.18 30.73 115.66 28.75L115.64 28.73L115.80 28.89Q114.48 27.19 113.38 22.62L113.31 22.55L113.38 22.62Q113.48 22.27 113.33 21.33L113.21 21.22L113.30 21.30Q113.12 20.34 113.12 19.88L113.14 19.91L113.18 19.95Q113.07 18.05 114.14 17.44L114.22 17.52L114.22 17.52Q115.34 16.66 117.20 16.66L117.24 16.70L117.22 16.68Q120.45 16.71 120.45 16.71L120.47 16.73L120.48 16.74Q122.68 16.81 123.93 17.00L123.77 16.83L123.91 16.97Q126.05 17.24 126.96 17.74L126.92 17.70L126.95 17.73Q128.34 18.51 128.53 20.26L128.43 20.16L128.56 20.29Q128.46 20.42 128.27 23.08L128.36 23.17L128.23 23.04Q127.90 25.23 127.67 26.06L127.74 26.13L127.61 26.00Q127.31 27.49 126.55 28.90ZM128.44 31.28L128.48 31.33L128.53 31.38Q129.38 29.03 129.92 24.73L129.89 24.71L129.97 24.79Q130.18 22.52 130.14 21.64L130.11 21.61L130.10 21.60Q130.21 19.88 129.03 18.97L128.98 18.92L128.71 18.85L128.65 18.78Q128.45 18.09 127.54 17.44L127.42 17.33L127.55 17.45Q125.21 16.41 120.41 16.25L120.48 16.32L120.31 16.15Q119.53 16.32 117.09 16.32L117.09 16.32L117.08 16.31Q115.29 16.27 113.80 16.96L113.69 16.84L113.74 16.89Q112.57 17.66 112.65 19.49L112.73 19.57L112.71 19.55Q112.98 20.55 113.17 22.56L113.02 22.42L113.03 22.43Q113.65 25.06 113.91 25.90L113.96 25.94L113.99 25.97Q114.46 27.74 115.41 29.03L115.45 29.07L115.41 29.03Q115.79 29.48 116.17 29.87L116.17 29.86L116.20 29.90Q116.40 30.29 117.05 31.20L117.11 31.26L117.11 31.26Q118.53 32.57 120.48 32.76L120.53 32.82L120.46 32.75Q118.52 35.38 116.96 37.28L117.02 37.34L113.33 41.64L113.38 41.70Q115.70 41.00 117.33 40.66L117.31 40.64L117.20 40.53Q116.55 41.52 114.99 43.23L114.96 43.20L115.05 43.29Q117.96 42.20 121.08 42.16L121.13 42.21L121.09 42.17Q123.46 39.63 127.80 32.40L127.79 32.39L127.79 32.47L127.75 32.42Q128.02 31.70 128.36 31.21ZM122.36 21.97L122.39 22.00L122.51 22.12Q123.05 21.94 123.51 22.05L123.47 22.01L123.39 21.93Q124.15 22.17 124.53 22.28L124.44 22.18L124.57 22.32Q124.63 22.64 124.71 23.06L124.65 23.00L124.60 22.96Q124.82 23.51 124.70 23.89L124.75 23.94L124.57 23.76Q124.68 25.63 123.50 26.73L123.50 26.73L123.36 26.59Q122.48 27.69 120.84 27.65L120.93 27.74L120.79 27.60Q120.41 27.63 118.89 27.33L118.96 27.41L118.87 27.31Q118.64 26.44 118.64 25.72L118.68 25.76L118.62 25.69Q118.56 25.44 118.56 25.21L118.58 25.23L118.64 25.29Q118.66 23.11 120.95 22.31L120.97 22.33L120.85 22.21Q121.59 22.03 122.42 22.03Z"/><path fill="#111" d="M47.45 30.54L47.33 30.42L47.40 30.49Q43.92 36.83 40.49 40.79L40.36 40.66L40.49 40.79Q38.49 41.07 36.05 41.94L36.08 41.98L36.15 42.05Q40.99 36.37 45.75 27.96L45.81 28.02L45.73 27.94Q41.24 21.10 35.27 14.70L35.11 14.55L35.25 14.69Q38.09 15.81 40.37 16.31L40.48 16.41L40.50 16.43Q45.07 21.57 47.50 25.53L47.57 25.60L47.48 25.51Q50.02 21.12 53.94 16.71L53.91 16.67L53.89 16.65Q55.55 16.40 58.74 15.64L58.66 15.56L58.65 15.55Q52.68 22.10 49.22 28.04L49.25 28.08L49.11 27.94Q54.32 36.65 58.69 41.21L58.81 41.33L58.65 41.17Q56.20 40.51 54.11 40.28L54.10 40.27L54.05 40.22Q51.36 37.34 47.43 30.52ZM54.04 40.64L54.02 40.61L53.88 40.47Q54.24 40.57 54.70 40.68L54.73 40.71L54.73 40.71Q55.61 41.55 57.13 43.15L57.13 43.15L56.96 42.99Q60.41 43.88 63.46 45.25L63.52 45.32L63.49 45.28Q56.22 38.55 51.12 29.79L51.14 29.81L51.20 29.87Q54.87 23.15 60.77 16.30L60.96 16.48L60.90 16.43Q59.37 16.99 57.20 17.52L57.25 17.58L57.31 17.63Q58.18 16.72 59.93 14.93L59.79 14.79L59.84 14.83Q57.57 15.84 53.88 16.41L53.83 16.36L53.80 16.33Q50.27 20.04 47.68 24.34L47.84 24.50L47.80 24.46Q46.88 22.86 45.70 21.37L45.66 21.33L43.31 18.32L43.09 18.49L43.07 18.47Q42.93 18.48 42.70 18.41L42.62 18.33L42.62 18.32Q41.93 17.48 40.44 15.92L40.43 15.90L40.46 15.94Q36.58 14.99 33.99 13.62L34.10 13.73L33.97 13.59Q40.74 20.90 45.31 27.94L45.35 27.98L45.40 28.03Q40.92 36.23 35.17 42.82L35.13 42.77L35.20 42.85Q36.48 42.14 38.61 41.57L38.60 41.56L37.33 43.03L37.39 43.10Q37.22 42.92 35.88 44.25L35.93 44.29L35.91 44.27Q39.01 43.30 42.17 42.81L42.12 42.76L42.13 42.77Q46.15 38.27 48.74 33.51L48.67 33.44L48.74 33.51Q51.35 37.79 54.05 40.65Z"/><path fill="#222" d="M19.09 29.55L19.17 29.63L19.28 29.74Q19.26 33.99 18.54 38.14L18.51 38.10L18.49 38.09Q20.77 37.55 23.85 37.44L23.81 37.39L23.73 37.32Q25.21 37.65 26.28 36.64L26.24 36.60L26.22 36.59Q27.16 35.45 27.16 34.11L27.32 34.28L27.28 34.23Q27.21 33.86 27.17 33.59L27.21 33.63L27.18 33.60Q27.01 30.65 24.76 29.82L24.86 29.92L24.82 29.87Q24.04 29.55 23.36 29.63L23.32 29.59L23.36 29.64Q22.24 29.50 21.21 29.54L21.19 29.52L21.28 29.61Q20.18 29.62 19.16 29.62ZM17.93 19.17L17.94 19.19L17.95 19.20Q18.83 22.51 19.09 26.89L19.17 26.97L19.17 26.96Q20.58 27.04 23.24 27.08L23.30 27.13L23.29 27.12Q26.08 27.02 26.42 23.48L26.41 23.47L26.43 23.49Q26.78 21.71 25.37 20.87L25.18 20.68L25.33 20.83Q24.40 20.28 19.98 19.63L19.94 19.59L19.92 19.56Q18.97 19.54 18.06 19.31ZM14.22 42.00L14.33 42.11L14.22 42.01Q16.74 35.38 16.47 28.00L16.62 28.14L16.51 28.03Q16.31 20.83 13.38 14.36L13.27 14.25L13.25 14.23Q17.16 16.89 23.39 17.14L23.30 17.04L23.33 17.08Q29.51 17.28 29.85 20.17L29.87 20.19L29.96 20.28Q30.22 22.98 28.82 25.65L28.81 25.64L28.90 25.73Q27.97 27.05 26.37 27.73L26.43 27.79L26.41 27.77Q30.09 28.49 30.32 33.85L30.30 33.84L30.37 33.90Q30.46 35.02 30.38 36.43L30.37 36.42L30.37 36.41Q30.38 37.80 29.45 38.73L29.41 38.69L29.46 38.74Q28.47 39.62 27.14 39.77L27.12 39.75L27.17 39.80Q25.72 39.91 24.65 39.91L24.57 39.83L24.68 39.94Q18.87 39.84 14.34 42.13ZM27.06 42.35L27.02 42.32L27.10 42.39Q28.07 42.49 29.94 42.61L29.87 42.54L29.97 42.64Q31.40 42.70 32.51 41.82L32.43 41.75L32.43 41.75Q33.22 40.82 33.10 39.26L33.15 39.31L33.15 39.31Q32.98 38.26 32.26 34.80L32.41 34.95L32.24 34.78Q31.70 31.69 29.83 30.21L29.82 30.19L29.35 29.30L29.36 29.31Q31.12 27.99 31.69 24.22L31.51 24.04L31.50 24.03Q31.76 22.99 31.68 21.58L31.62 21.52L31.70 21.60Q31.65 20.29 30.54 19.46L30.55 19.46L30.47 19.38Q30.13 19.16 30.02 19.12L30.11 19.21L30.04 19.14Q29.75 18.58 28.91 17.78L28.95 17.82L28.95 17.83Q27.53 16.86 23.30 16.67L23.20 16.57L23.22 16.58Q16.73 16.46 12.74 13.56L12.70 13.53L12.55 13.38Q15.95 20.51 16.25 28.05L16.23 28.03L16.19 27.98Q16.46 35.75 13.64 42.68L13.80 42.84L15.81 41.84L15.88 41.91Q15.38 42.93 14.88 44.07L14.97 44.16L14.89 44.08Q19.18 42.20 24.21 42.20L24.27 42.27L24.26 42.26Q25.70 42.29 27.15 42.44ZM25.03 31.91L25.03 31.91L25.03 31.91Q25.75 31.83 26.66 32.28L26.53 32.16L26.62 32.25Q26.71 32.56 26.86 33.63L26.87 33.63L26.95 33.72Q27.06 35.01 26.13 36.06L26.08 36.01L26.15 36.08Q25.25 37.16 23.85 37.05L23.86 37.06L22.31 37.11L22.39 37.19Q21.46 37.06 20.73 37.17L20.91 37.35L20.83 37.27Q21.22 35.52 21.29 32.06L21.25 32.02L21.16 31.93Q21.76 31.80 23.01 31.76L23.13 31.87L23.10 31.84Q24.29 31.74 24.90 31.78ZM23.87 22.19L24.04 22.35L24.32 22.25L24.28 22.22Q24.62 22.33 24.81 22.37L24.75 22.30L25.18 22.35L25.42 22.40L26.03 22.48L26.09 22.54Q26.10 22.70 26.10 23.00L26.08 22.98L26.12 23.56L26.23 23.67Q26.25 24.94 25.37 25.88L25.27 25.77L25.30 25.81Q24.33 26.65 23.12 26.65L23.22 26.75L23.10 26.63Q22.22 26.78 22.22 26.78L22.21 26.77L22.23 26.79Q20.89 26.75 21.24 26.75L21.10 26.61L21.18 26.69Q21.03 25.06 20.73 22.01L20.73 22.01L20.72 22.01Q22.39 22.23 23.91 22.23Z"/><path fill="#222" d="M71.29 19.66L71.24 19.62L71.28 19.66Q69.40 19.87 68.45 20.02L68.44 20.01L68.46 20.03Q66.82 20.25 65.60 20.79L65.59 20.78L65.47 20.66Q62.02 22.15 61.90 26.84L61.92 26.85L61.95 26.89Q61.83 29.50 62.48 32.44L62.39 32.35L62.56 32.52Q63.41 36.52 67.02 37.70L66.98 37.66L66.91 37.59Q68.83 38.18 70.28 38.03L70.22 37.97L70.67 37.96L70.67 37.97Q70.93 38.03 71.12 38.07L71.10 38.05L71.08 38.03Q71.20 37.99 71.35 37.96L71.35 37.96L71.46 38.07Q73.96 37.67 75.33 37.10L75.42 37.19L71.91 33.72L71.92 33.73Q72.09 33.26 72.70 32.65L72.77 32.72L73.62 31.74L73.62 31.74Q75.59 33.94 77.57 35.99L77.52 35.94L77.56 35.98Q79.80 34.07 80.06 28.70L80.04 28.68L80.17 28.80Q80.07 27.72 80.07 26.80L80.13 26.87L80.25 26.99Q80.11 21.17 75.05 20.07L75.11 20.13L75.08 20.10Q73.72 19.73 71.20 19.58ZM84.05 41.72L83.99 41.65L84.06 41.72Q83.38 42.07 82.20 42.95L82.39 43.14L77.80 39.27L77.93 39.40Q75.45 40.61 71.19 40.65L71.22 40.69L71.06 40.52Q64.60 40.72 61.78 38.47L61.72 38.41L61.75 38.44Q59.99 36.69 59.53 33.72L59.53 33.72L59.57 33.75Q59.38 31.97 59.00 28.39L58.90 28.29L58.95 28.34Q58.89 27.55 58.77 25.80L58.88 25.91L58.80 25.82Q58.70 24.32 58.74 23.45L58.74 23.44L58.79 23.50Q58.89 20.44 60.64 18.88L60.54 18.78L60.53 18.76Q62.19 17.56 65.38 17.07L65.37 17.05L65.37 17.06Q67.89 16.72 70.78 16.80L70.64 16.65L70.68 16.70Q78.17 16.80 81.29 19.16L81.39 19.25L81.28 19.14Q83.43 21.26 83.16 26.17L83.19 26.20L83.14 26.15Q83.12 29.97 82.93 31.30L82.84 31.21L82.82 31.19Q82.26 35.77 79.93 38.09L79.81 37.97L79.87 38.03Q81.24 39.17 83.99 41.65ZM79.12 17.37L79.16 17.41L79.17 17.42Q77.19 16.73 70.68 16.23L70.60 16.16L70.74 16.29Q69.38 16.35 66.61 16.46L66.59 16.45L66.49 16.35Q62.27 16.58 60.02 18.56L60.11 18.64L59.98 18.51Q58.36 20.02 58.36 23.18L58.41 23.23L58.46 23.28Q58.40 24.06 58.55 25.77L58.51 25.73L58.58 25.80Q58.75 27.52 58.75 28.40L58.71 28.37L58.65 28.30Q58.79 30.04 59.17 33.62L59.15 33.60L59.23 33.69Q59.67 36.63 61.27 38.69L61.27 38.69L61.27 38.69Q61.59 39.51 62.81 40.65L62.82 40.66L62.74 40.58Q65.42 42.54 70.60 42.81L70.63 42.83L70.70 42.90Q71.07 42.94 73.47 43.05L73.48 43.06L73.40 42.98Q78.21 43.14 80.49 42.08L80.45 42.03L80.44 42.02Q81.31 42.70 86.03 46.28L86.15 46.40L86.02 46.27Q86.65 45.76 87.94 44.77L87.99 44.81L87.99 44.82Q87.10 44.11 86.30 43.43L86.30 43.43L84.70 42.02L84.68 41.85L84.81 41.98Q84.11 41.39 82.89 40.36L82.85 40.33L82.96 40.43Q84.93 37.98 84.93 33.45L84.94 33.47L84.77 33.30Q84.78 32.89 84.82 32.05L84.89 32.12L84.97 32.20Q84.85 31.20 84.85 30.78L84.96 30.90L84.94 30.87Q85.02 25.43 84.29 23.07L84.23 23.01L84.26 23.04Q83.87 21.74 83.00 20.67L82.86 20.54L82.85 20.53Q82.24 18.58 79.31 17.56ZM73.27 22.10L73.19 22.02L73.17 22.00Q77.35 22.03 79.17 23.63L79.05 23.50L79.10 23.55Q79.72 24.82 79.83 26.15L79.85 26.16L79.75 26.07Q79.95 27.45 79.87 28.82L79.69 28.63L79.79 28.73Q79.36 33.60 77.42 35.31L77.60 35.49L77.60 35.49Q76.25 34.14 73.74 31.40L73.79 31.46L73.62 31.28Q72.94 32.12 71.38 33.69L71.29 33.60L71.38 33.69Q71.85 34.20 73.00 35.38L72.97 35.35L72.88 35.38L73.02 35.52Q73.59 36.05 74.61 37.11L74.63 37.13L74.49 36.99Q73.57 37.32 71.25 37.63L71.20 37.58L70.79 37.71L70.39 37.72L70.35 37.72L70.22 37.59Q66.84 37.68 64.86 36.04L64.88 36.05L64.85 36.03Q63.79 33.90 63.83 30.78L63.92 30.88L63.96 30.91Q64.05 22.13 73.22 22.05Z"/></svg>