<svg xmlns="http://www.w3.org/2000/svg" width="150" height="50" viewBox="0,0,150,50"><path fill="#333" d="M122.83 32.13L113.56 22.10L113.68 22.22Q114.44 25.83 114.44 29.56L114.37 29.50L114.36 29.48Q114.38 35.48 112.32 41.04L112.47 41.19L112.42 41.14Q111.42 41.46 109.17 42.23L109.18 42.23L109.06 42.11Q111.90 36.35 111.90 29.65L111.90 29.65L111.99 29.74Q111.82 20.93 107.33 13.50L107.33 13.51L107.39 13.57Q107.77 13.68 108.46 14.10L108.58 14.22L108.56 14.20Q120.67 25.44 128.51 34.69L128.49 34.67L128.37 34.55Q128.10 32.15 128.10 29.71L128.08 29.69L128.21 29.82Q128.05 22.43 130.57 16.22L130.59 16.25L130.64 16.30Q132.90 15.71 134.50 15.02L134.68 15.20L134.50 15.02Q131.21 21.21 130.90 28.36L130.87 28.33L130.89 28.35Q130.69 35.80 133.66 41.97L133.66 41.97L133.54 41.85Q133.13 41.93 132.71 41.74L132.72 41.75L132.61 41.64Q128.11 37.75 122.89 32.19L122.79 32.09ZM136.25 45.13L136.19 45.08L136.19 45.07Q136.77 45.35 137.19 45.54L137.16 45.51L137.98 45.83L138.01 45.87Q132.81 38.87 132.81 29.50L132.80 29.50L132.80 29.49Q132.76 22.22 136.07 15.98L136.05 15.96L136.05 15.96Q135.51 16.30 134.11 16.91L134.19 16.99L134.17 16.97Q134.52 16.11 135.36 14.55L135.41 14.59L135.38 14.56Q132.92 15.46 130.48 16.03L130.41 15.96L130.41 15.96Q127.73 22.37 127.73 29.80L127.73 29.79L127.82 29.89Q127.85 31.78 128.04 33.76L127.87 33.59L128.04 33.76Q123.37 28.07 118.61 23.46L118.49 23.33L108.43 13.66L108.52 13.75Q107.93 13.43 106.72 12.86L106.68 12.82L106.63 12.77Q111.54 20.53 111.54 29.63L111.58 29.68L111.54 29.63Q111.58 36.79 108.49 42.81L108.44 42.75L108.54 42.85Q108.87 42.76 110.50 42.15L110.44 42.08L110.36 42.00Q110.12 42.87 109.29 44.36L109.33 44.40L109.34 44.41Q110.54 43.75 114.01 42.95L113.97 42.91L114.12 43.06Q116.43 36.92 116.43 29.73L116.48 29.78L116.37 29.67Q116.48 27.68 116.25 25.55L116.26 25.56L116.16 25.46Q127.63 38.26 136.24 45.12Z"/><path fill="#222" d="M74.11 39.93L73.97 39.80L74.10 39.92Q72.15 39.89 70.14 40.08L70.10 40.04L70.11 40.05Q70.78 34.82 70.78 29.99L70.76 29.97L70.77 29.97Q70.65 24.94 70.00 19.73L70.19 19.92L70.19 19.91Q65.43 19.34 62.23 17.67L62.34 17.77L61.49 15.90L61.48 15.89Q61.38 15.49 60.77 14.27L60.74 14.23L60.72 14.22Q65.89 16.98 71.90 17.17L71.89 17.16L71.89 17.16Q77.76 17.32 83.20 15.26L83.14 15.20L83.13 15.19Q82.45 16.65 81.81 18.47L81.81 18.48L81.81 18.48Q78.15 19.73 73.89 19.92L73.98 20.02L74.02 20.06Q73.63 24.88 73.63 29.83L73.80 30.00L73.81 30.00Q73.78 34.93 74.09 39.92ZM83.79 14.48L83.76 14.45L83.81 14.50Q78.00 16.80 71.80 16.61L71.85 16.66L71.85 16.66Q65.11 16.39 60.00 13.42L60.11 13.52L60.02 13.44Q60.87 14.82 62.16 18.09L62.02 17.95L62.13 18.06Q62.66 18.25 63.92 18.82L63.98 18.88L64.02 18.92Q64.22 19.58 64.56 21.10L64.54 21.08L64.69 21.23Q66.99 22.08 70.03 22.31L70.04 22.32L69.94 22.21Q70.24 25.83 70.24 29.60L70.23 29.59L70.37 29.73Q70.28 35.00 69.48 40.37L69.60 40.49L69.52 40.42Q71.14 40.25 71.68 40.25L71.68 40.25L71.71 40.27Q71.73 40.60 71.67 41.27L71.66 41.26L71.69 41.29Q71.58 41.90 71.58 42.25L71.56 42.23L71.60 42.26Q72.73 42.14 74.25 42.21L74.28 42.24L74.31 42.27Q75.32 42.40 77.15 42.56L77.15 42.56L77.04 42.45Q75.93 37.65 75.82 32.47L75.65 32.30L75.79 32.45Q75.51 26.98 76.04 22.07L76.19 22.22L76.16 22.19Q80.04 21.58 83.20 20.36L83.19 20.35L83.31 20.47Q83.91 17.99 84.94 15.93L84.99 15.99L84.91 15.91Q83.55 16.56 82.75 16.87L82.81 16.93L82.82 16.93Q83.32 15.73 83.90 14.59Z"/><path fill="#222" d="M50.73 30.91L50.63 30.81L50.80 30.98Q50.77 29.42 49.95 28.51L50.01 28.57L50.02 28.58Q49.12 27.58 47.67 27.62L47.77 27.72L47.71 27.66Q45.48 27.83 44.64 29.96L44.60 29.92L44.58 29.90Q44.23 30.61 44.19 31.30L44.21 31.32L44.21 31.32Q43.95 36.12 43.04 40.46L43.03 40.45L43.12 40.54Q41.43 41.06 39.56 42.05L39.66 42.14L39.51 41.99Q41.89 35.13 41.63 27.82L41.58 27.78L41.68 27.87Q41.29 20.41 38.74 13.59L38.80 13.64L38.81 13.66Q40.43 14.82 42.45 15.51L42.49 15.55L42.59 15.65Q44.07 21.47 44.26 27.33L44.14 27.21L44.22 27.29Q45.61 25.22 48.32 25.30L48.35 25.33L48.35 25.33Q53.26 25.26 53.38 30.62L53.51 30.76L53.49 30.73Q53.67 36.47 55.04 41.12L55.03 41.11L55.00 41.08Q53.18 40.28 51.43 40.09L51.35 40.02L51.46 40.13Q50.86 36.79 50.75 30.93ZM50.94 40.26L50.93 40.25L51.03 40.35Q52.10 40.50 53.20 40.76L53.23 40.79L53.21 40.77Q53.15 40.82 53.68 42.80L53.69 42.81L53.81 42.93Q56.83 43.94 58.85 45.39L58.70 45.24L58.68 45.21Q56.14 39.60 55.61 33.28L55.56 33.23L55.45 33.12Q55.24 29.52 53.83 27.96L53.85 27.98L53.76 27.88Q53.86 27.91 53.22 27.45L53.14 27.38L53.08 27.32Q52.85 26.82 52.20 26.06L52.29 26.15L52.27 26.05L52.29 26.07Q51.35 25.14 48.23 24.87L48.23 24.87L48.36 25.00Q47.59 24.95 46.19 25.30L46.23 25.34L46.12 25.24Q45.91 20.38 45.57 17.87L45.59 17.89L45.56 17.86Q44.90 17.85 43.42 17.54L43.33 17.46L43.42 17.54Q43.26 16.81 42.99 15.33L42.82 15.16L42.83 15.16Q39.94 14.25 38.07 12.69L37.99 12.61L38.10 12.72Q40.97 19.78 41.24 27.58L41.28 27.62L41.36 27.70Q41.58 35.42 39.03 42.77L39.10 42.85L39.00 42.74Q39.88 42.10 41.02 41.61L41.17 41.75L40.39 43.98L40.37 43.96Q43.53 42.66 45.51 42.47L45.45 42.42L45.55 42.51Q46.13 37.12 46.32 33.16L46.15 32.99L46.18 33.02Q46.34 31.23 48.28 30.13L48.33 30.18L48.36 30.22Q48.77 29.86 49.30 29.90L49.34 29.93L49.25 29.84Q49.40 29.84 49.74 29.88L49.89 30.03L50.28 30.08L50.29 30.08Q50.35 30.53 50.47 30.99L50.40 30.92L50.38 30.90Q50.59 36.97 51.08 40.40Z"/><path fill="#333" d="M92.47 40.35L92.54 40.42L92.40 40.28Q91.15 40.51 89.59 40.09L89.46 39.97L89.57 40.08Q88.35 39.16 88.20 37.52L88.03 37.36L88.03 37.35Q88.03 37.21 88.22 34.58L88.32 34.68L88.19 34.55Q89.24 34.38 91.25 33.99L91.42 34.16L91.20 34.90L91.10 34.80Q90.77 36.48 92.18 37.05L92.31 37.18L92.18 37.05Q93.03 37.44 95.12 37.44L95.17 37.49L95.13 37.45Q96.67 37.24 96.86 37.17L97.02 37.33L96.93 37.24Q97.94 37.18 98.66 36.68L98.68 36.70L98.49 36.51Q99.95 35.61 99.75 33.51L99.81 33.57L99.73 33.48Q99.64 31.15 97.91 29.59L97.89 29.57L97.79 29.47Q96.23 28.09 93.76 28.09L93.68 28.01L93.61 27.71L93.73 27.82Q94.00 27.69 94.88 27.61L95.00 27.72L94.84 27.57Q96.83 27.54 98.20 26.30L98.18 26.29L98.18 26.28Q99.52 25.01 99.67 23.15L99.80 23.28L99.82 23.30Q99.77 22.83 99.77 22.48L99.89 22.61L99.74 22.46Q99.77 20.96 98.40 20.05L98.35 20.00L98.36 20.01Q97.16 19.23 95.56 19.35L95.71 19.49L95.55 19.34Q94.26 19.19 93.04 19.60L93.12 19.68L93.18 19.74Q91.61 20.15 91.30 21.29L91.39 21.38L91.39 21.37Q91.18 22.12 91.26 22.88L91.17 22.79L91.28 22.91Q90.21 22.64 88.16 21.92L88.11 21.87L88.15 21.91Q87.95 20.26 87.99 19.42L87.96 19.40L88.05 19.48Q87.98 17.78 89.05 17.10L89.15 17.19L89.22 17.26Q90.51 16.54 92.11 16.54L92.24 16.67L92.25 16.68Q95.28 16.51 98.44 16.78L98.50 16.84L98.50 16.84Q103.55 17.24 103.24 21.01L103.15 20.92L103.26 21.03Q103.09 22.42 102.60 23.98L102.71 24.09L102.64 24.02Q101.73 27.11 99.37 28.03L99.49 28.14L99.31 27.97Q102.11 28.67 102.72 32.02L102.64 31.94L102.56 31.86Q102.85 33.06 102.92 35.08L103.02 35.18L102.93 35.09Q103.02 39.47 98.41 39.93L98.46 39.99L98.44 39.96Q97.84 40.16 92.54 40.42ZM97.73 42.64L97.76 42.67L97.74 42.65Q98.25 42.59 101.11 42.67L101.07 42.63L101.21 42.77Q102.84 42.73 104.48 42.08L104.47 42.07L104.46 42.06Q105.74 41.21 105.55 39.46L105.54 39.45L105.43 39.34Q105.45 38.14 105.15 36.39L105.16 36.40L105.03 36.27Q104.41 31.89 102.47 30.25L102.37 30.15L102.23 29.82L102.17 29.73L102.23 29.78Q103.90 28.26 104.66 23.88L104.67 23.89L104.78 23.99Q104.82 23.54 104.93 22.59L104.84 22.49L104.94 22.59Q104.92 21.73 104.84 21.05L104.80 21.01L104.88 21.09Q104.67 19.35 103.37 18.67L103.36 18.65L103.33 18.69L103.38 18.75Q103.01 17.69 101.86 17.16L101.93 17.22L101.81 17.10Q100.38 16.51 95.24 16.21L95.32 16.29L95.25 16.21Q93.50 16.07 91.90 16.07L92.04 16.20L92.02 16.18Q90.33 16.09 88.81 16.74L88.81 16.74L88.75 16.68Q87.69 17.60 87.69 19.35L87.63 19.30L87.60 19.27Q87.54 18.78 87.81 22.13L87.81 22.14L87.88 22.21Q88.22 22.32 89.86 22.93L89.92 22.99L89.77 22.84Q89.76 23.36 89.72 23.86L89.79 23.93L89.77 23.91Q89.77 24.40 89.81 24.93L89.89 25.02L89.78 24.91Q91.63 25.35 93.65 25.47L93.71 25.53L93.72 25.53Q93.57 23.44 94.67 22.60L94.59 22.52L94.76 22.69Q95.46 21.91 97.48 21.68L97.55 21.75L97.47 21.67Q98.62 21.68 99.19 21.87L99.16 21.84L99.30 21.98Q99.25 22.00 99.28 22.12L99.26 22.09L99.36 22.38L99.38 22.85L99.40 22.88Q99.44 23.10 99.40 23.26L99.30 23.16L99.34 23.20Q99.23 24.87 97.70 26.05L97.85 26.20L97.81 26.16Q96.81 26.99 94.79 27.18L94.82 27.20L94.81 27.20Q94.07 27.34 93.20 27.34L93.19 27.33L93.19 27.32Q93.35 27.79 93.50 28.48L93.51 28.49L93.51 28.49Q95.15 28.38 96.60 29.10L96.56 29.06L96.49 29.11L95.01 29.37L94.97 29.34Q94.99 29.66 95.10 30.27L95.14 30.31L95.14 30.30Q97.17 30.13 98.88 31.46L98.97 31.54L98.95 31.53Q99.15 31.88 99.46 33.52L99.52 33.58L99.44 33.51Q99.70 36.50 96.77 36.92L96.67 36.82L96.85 37.00Q94.76 37.28 94.19 37.24L94.09 37.13L94.16 37.20Q93.63 37.02 93.10 36.94L93.14 36.99L93.21 36.60L93.27 36.09L93.26 35.66L93.38 35.44L93.30 35.36Q92.38 35.46 91.58 35.65L91.63 35.71L91.55 35.62Q91.43 35.31 91.43 35.12L91.59 35.28L91.47 35.16Q91.56 35.02 91.56 34.80L91.48 34.72L91.47 34.70Q91.53 34.31 91.69 33.59L91.74 33.64L91.78 33.68Q89.83 33.83 87.97 34.17L88.03 34.24L88.06 34.27Q87.97 34.67 87.86 35.80L87.92 35.86L87.97 35.91Q87.83 37.01 87.83 37.61L87.78 37.56L87.71 37.49Q87.87 39.63 89.24 40.39L89.27 40.43L89.24 40.39Q90.77 42.72 95.49 42.53L95.34 42.38L95.47 42.51Q96.14 42.42 97.66 42.58Z"/><path fill="#111" d="M19.04 40.31L19.14 40.41L19.19 40.46Q14.97 40.55 13.98 38.22L14.07 38.31L13.97 38.21Q14.85 37.38 16.42 35.59L16.28 35.46L16.47 35.64Q16.93 37.63 19.93 37.74L19.77 37.58L19.87 37.68Q23.17 37.67 24.81 36.33L24.93 36.45L24.86 36.39Q26.36 34.88 26.29 32.18L26.29 32.18L26.22 32.11Q26.03 27.02 21.24 27.24L21.33 27.33L21.30 27.31Q18.46 27.44 16.71 28.69L16.67 28.65L16.28 28.42L16.17 28.38L16.16 28.37Q16.44 25.14 16.32 22.40L16.45 22.53L16.39 22.47Q16.26 19.83 15.92 16.52L15.93 16.53L15.88 16.48Q19.68 17.58 23.49 17.47L23.45 17.43L23.34 17.31Q27.12 17.21 30.70 15.96L30.73 15.99L30.32 17.67L30.30 17.65Q29.92 18.34 29.73 19.17L29.69 19.14L29.81 19.26Q26.64 20.23 22.75 20.23L22.73 20.21L22.74 20.21Q21.37 20.29 19.89 20.14L19.83 20.08L19.82 20.07Q19.79 20.81 19.45 25.27L19.34 25.16L19.45 25.26Q20.15 24.67 22.21 24.52L22.19 24.51L22.34 24.65Q26.02 24.83 27.47 26.51L27.36 26.40L27.53 26.56Q28.72 27.92 28.99 31.76L29.14 31.91L29.16 31.93Q29.40 36.10 28.19 38.11L28.04 37.97L28.22 38.15Q26.12 39.97 22.81 40.20L22.81 40.20L22.71 40.10Q21.84 40.29 19.17 40.44ZM25.20 42.71L25.24 42.74L25.22 42.72Q28.59 42.74 30.49 41.64L30.56 41.70L30.50 41.64Q31.55 40.18 31.55 38.09L31.45 37.99L31.52 38.06Q31.49 34.95 30.54 30.84L30.44 30.73L30.55 30.84Q30.06 28.99 28.84 27.58L28.83 27.57L28.95 27.72L28.82 27.51L28.35 27.19L28.42 27.27Q28.09 26.52 27.44 25.83L27.55 25.94L27.42 25.85L27.40 25.83Q25.99 24.27 22.30 24.27L22.23 24.20L21.87 24.10L21.94 24.18Q22.07 23.66 22.26 22.55L22.17 22.46L22.14 22.43Q27.18 22.60 31.21 20.96L31.25 21.00L31.29 21.04Q31.74 19.66 32.69 16.84L32.56 16.71L30.55 17.75L30.44 17.64Q30.83 16.50 31.32 15.36L31.49 15.53L31.50 15.54Q27.55 16.88 23.44 16.96L23.44 16.96L23.37 16.89Q19.28 17.03 15.32 15.92L15.32 15.92L15.33 15.93Q16.04 20.37 16.04 24.78L16.13 24.88L16.05 24.80Q16.16 26.81 16.04 28.71L15.91 28.58L15.95 28.61Q16.26 28.85 16.83 29.16L16.80 29.13L16.71 29.03Q17.22 28.97 17.86 28.63L17.83 28.59L17.86 28.62Q17.82 29.38 17.59 30.91L17.47 30.79L17.55 30.87Q18.01 31.09 18.43 31.32L18.38 31.27L18.38 31.28Q21.14 29.51 23.01 29.51L23.05 29.55L23.09 29.59Q24.30 29.47 25.48 30.12L25.55 30.19L25.49 30.13Q25.84 31.16 25.87 32.11L25.92 32.15L25.96 32.19Q25.96 34.71 24.93 35.81L24.92 35.80L24.93 35.81Q23.60 37.07 21.35 37.30L21.36 37.30L21.30 37.24Q20.42 37.39 19.73 37.31L19.66 37.24L19.75 37.33Q18.78 37.09 18.02 36.74L18.16 36.88L17.99 36.52L17.94 36.70L17.86 36.62Q17.08 36.15 16.55 34.82L16.64 34.91L16.57 34.83Q15.25 36.26 13.58 38.39L13.68 38.49L13.53 38.35Q13.89 39.04 14.73 39.99L14.65 39.91L14.75 40.02Q15.86 41.89 18.68 42.38L18.53 42.24L18.63 42.34Q19.86 42.62 25.23 42.73Z"/></svg>