<svg xmlns="http://www.w3.org/2000/svg" width="150" height="50" viewBox="0,0,150,50"><path fill="#333" d="M95.81 41.03L95.75 40.97L95.70 40.92Q91.60 29.73 86.46 24.75L86.49 24.78L86.51 24.79Q87.90 25.35 90.87 26.00L90.88 26.01L90.88 26.01Q94.47 29.98 97.02 36.64L96.97 36.59L97.04 36.66Q99.66 29.26 102.28 26.22L102.28 26.22L102.32 26.25Q104.13 25.97 106.57 25.28L106.67 25.39L106.75 25.47Q103.52 28.14 101.35 32.71L101.27 32.63L101.40 32.76Q100.94 33.32 97.55 40.94L97.58 40.97L97.62 41.01Q97.06 41.13 95.84 41.06ZM100.50 43.50L100.43 43.44L100.42 43.42Q103.84 31.20 108.41 26.52L108.34 26.45L106.86 26.95L106.72 26.81Q106.09 27.21 105.25 27.32L105.23 27.30L105.21 27.28Q105.66 26.86 106.48 25.98L106.48 25.98L106.53 26.03Q107.35 25.16 107.81 24.74L107.78 24.71L107.78 24.71Q105.51 25.29 102.08 25.79L102.19 25.89L102.17 25.88Q99.37 28.97 97.31 34.57L97.33 34.59L97.38 34.64Q95.80 30.50 93.97 28.03L93.98 28.04L93.40 27.99L93.38 27.97Q93.03 27.89 92.80 27.89L92.93 28.02L92.80 27.89Q92.69 27.66 90.97 25.61L90.87 25.50L90.93 25.57Q87.55 25.04 85.31 23.90L85.28 23.88L85.25 23.84Q91.42 29.59 95.42 41.32L95.50 41.40L96.54 41.46L96.47 41.39Q96.89 42.10 97.73 43.40L97.64 43.32L99.13 43.43L99.02 43.32Q99.78 43.36 100.42 43.43Z"/><path fill="#444" d="M13.52 38.90L13.53 38.91L13.62 39.00Q15.39 36.51 20.15 29.24L20.12 29.20L20.27 29.36Q24.24 23.09 27.09 19.81L27.08 19.80L27.09 19.81Q25.00 20.11 22.90 20.11L22.95 20.16L22.95 20.16Q17.63 20.09 13.63 18.30L13.73 18.40L13.69 18.36Q12.92 16.34 12.24 14.78L12.39 14.94L12.21 14.75Q16.88 17.02 22.55 17.13L22.49 17.08L22.51 17.09Q27.63 17.15 32.81 15.25L32.93 15.37L32.81 15.25Q32.38 16.04 32.07 16.84L32.10 16.87L31.63 18.56L31.65 18.58Q28.44 22.08 24.45 27.90L24.54 28.00L21.21 32.81L21.22 32.82Q19.58 35.29 17.75 37.57L17.61 37.43L17.67 37.50Q21.06 36.96 24.37 37.04L24.23 36.89L24.32 36.98Q27.58 37.02 30.74 37.93L30.77 37.96L31.35 39.64L31.33 39.62Q31.60 40.46 31.94 41.29L31.96 41.32L31.81 41.17Q27.21 39.65 22.07 39.84L22.00 39.77L22.09 39.86Q16.95 40.05 12.45 42.06L12.40 42.01L12.50 42.11Q12.91 41.07 13.63 39.02ZM11.95 42.86L11.88 42.78L11.92 42.83Q13.12 42.19 13.91 41.92L13.90 41.91L13.93 41.94Q13.64 42.67 12.95 44.20L12.99 44.23L12.92 44.17Q18.69 42.10 24.67 42.33L24.59 42.25L24.59 42.24Q30.97 42.53 35.99 45.31L35.97 45.29L35.94 45.26Q34.64 42.96 33.84 40.79L33.76 40.72L33.80 40.76Q33.22 40.44 31.70 39.87L31.77 39.95L31.80 39.98Q31.54 39.14 31.12 37.66L31.04 37.58L31.24 37.78Q26.98 36.48 21.87 36.67L21.93 36.73L21.85 36.65Q24.04 33.97 27.58 28.41L27.61 28.43L27.53 28.36Q31.22 22.68 33.12 20.13L33.09 20.10L33.04 20.05Q33.58 18.69 34.61 15.98L34.62 15.99L34.60 15.97Q33.90 16.30 32.45 16.91L32.57 17.03L32.53 16.99Q32.82 16.13 33.54 14.61L33.67 14.74L33.52 14.59Q28.20 16.74 22.49 16.66L22.48 16.64L22.45 16.61Q16.61 16.64 11.66 14.12L11.67 14.14L11.53 13.99Q12.81 16.49 13.53 18.74L13.50 18.71L13.49 18.70Q14.62 19.25 15.41 19.48L15.34 19.41L15.37 19.43Q15.60 20.08 15.87 21.53L15.82 21.49L15.99 21.65Q19.73 22.73 24.60 22.54L24.50 22.43L24.49 22.43Q22.20 25.73 18.88 30.71L18.80 30.63L13.38 39.07L13.28 38.97Q12.86 40.18 11.83 42.73Z"/><path fill="#333" d="M50.98 41.34L50.80 41.17L47.91 41.13L47.86 41.08Q45.55 41.05 44.75 40.93L44.73 40.92L44.79 40.97Q42.89 40.56 41.71 39.69L41.62 39.60L41.65 39.63Q40.30 38.16 40.07 34.81L40.22 34.96L40.12 34.86Q40.20 34.49 40.13 33.27L40.10 33.24L40.14 33.28Q39.98 32.71 39.91 31.60L40.03 31.73L39.93 31.62Q39.89 30.78 39.93 30.06L39.98 30.11L39.87 30.00Q40.16 28.16 41.19 27.40L41.26 27.47L41.15 27.36Q43.07 26.20 47.91 25.97L47.86 25.93L47.87 25.94Q50.08 26.01 50.88 26.01L50.82 25.96L50.72 25.85Q52.29 25.94 53.66 26.24L53.64 26.23L53.56 26.15Q53.16 27.57 52.63 29.40L52.46 29.23L52.47 29.24Q52.02 29.36 51.52 29.32L51.46 29.26L51.50 29.30Q51.41 29.29 50.88 29.17L50.92 29.21L49.90 28.92L49.93 28.94Q48.80 28.62 48.19 28.65L48.33 28.79L48.18 28.65Q43.60 28.86 42.99 31.68L43.03 31.72L43.04 31.72Q42.65 32.74 42.72 33.69L42.66 33.63L42.73 33.70Q42.96 36.37 44.20 37.46L44.15 37.40L44.11 37.36Q45.38 38.49 47.97 38.52L47.94 38.50L47.89 38.44Q49.50 38.61 50.23 38.31L50.08 38.15L51.12 37.67L51.27 37.82Q51.65 37.44 52.22 37.37L52.25 37.39L52.33 37.47Q52.46 39.17 52.84 40.46L52.85 40.47L52.90 40.52Q52.62 40.85 50.83 41.19ZM54.05 44.10L54.08 44.13L54.22 44.28Q54.51 44.22 55.35 44.30L55.33 44.28L55.27 44.23Q55.95 44.29 56.29 43.72L56.28 43.71L56.36 43.79Q55.02 41.58 54.53 39.48L54.71 39.67L54.54 39.49Q54.21 39.47 53.75 39.47L53.73 39.45L53.75 39.46Q53.32 39.46 52.94 39.65L53.09 39.80L52.96 39.67Q52.66 38.45 52.51 37.05L52.46 36.99L52.57 37.11Q52.00 37.07 50.78 37.64L50.65 37.51L50.68 37.54Q49.57 38.22 49.07 38.22L48.94 38.08L48.97 38.11Q48.57 38.20 47.96 38.17L47.90 38.11L47.87 38.08Q46.95 38.03 44.97 37.46L44.97 37.47L45.00 37.49Q44.63 36.74 44.67 35.60L44.63 35.56L44.66 35.59Q44.87 31.38 49.81 30.85L49.91 30.95L49.79 30.82Q50.60 30.95 51.98 31.30L51.92 31.24L51.96 31.28Q53.34 31.63 54.06 31.59L54.08 31.61L54.10 31.64Q54.43 29.30 55.12 27.47L55.05 27.40L55.08 27.43Q54.82 27.44 54.43 27.36L54.29 27.21L53.54 27.15L53.64 27.25Q53.87 26.80 54.25 25.92L54.14 25.81L54.21 25.88Q52.57 25.42 51.01 25.42L51.00 25.41L51.17 25.58Q48.64 25.45 44.26 25.83L44.24 25.81L44.22 25.79Q42.42 26.08 40.86 27.07L40.72 26.93L40.78 26.99Q39.61 27.99 39.61 29.89L39.62 29.91L39.59 29.88Q39.66 30.37 39.78 31.58L39.64 31.45L39.65 31.46Q39.70 32.46 39.67 33.07L39.80 33.21L39.76 33.16Q39.82 35.10 40.55 38.83L40.58 38.86L40.49 38.77Q40.83 39.57 41.33 40.07L41.37 40.11L41.70 40.44L41.68 40.38L41.61 40.31Q42.77 42.57 46.69 43.18L46.59 43.08L46.64 43.13Q49.70 43.53 52.37 43.79L52.39 43.81L52.37 43.79Q53.15 43.85 54.06 44.12Z"/><path fill="#222" d="M71.05 19.54L71.08 19.57L69.51 19.67L69.67 19.84Q67.34 19.87 67.11 21.88L67.03 21.80L67.03 21.80Q67.03 22.59 67.06 23.58L67.04 23.56L67.13 23.65Q67.15 25.57 68.40 26.90L68.40 26.90L68.39 26.89Q69.67 28.25 71.58 28.10L71.57 28.09L71.45 27.97Q73.54 27.85 74.30 26.93L74.29 26.93L74.39 27.03Q75.39 26.04 75.65 23.80L75.58 23.73L75.63 23.77Q75.95 21.59 74.70 20.75L74.63 20.69L74.66 20.71Q73.86 19.98 71.19 19.68ZM77.24 28.92L77.25 28.93L75.86 31.12L75.89 31.15Q73.22 35.99 69.46 40.06L69.44 40.05L69.41 40.02Q67.83 40.22 65.12 41.02L65.05 40.95L65.00 40.90Q70.41 34.69 73.56 29.89L73.52 29.85L73.62 29.95Q72.55 30.55 70.91 30.63L70.88 30.60L70.91 30.62Q67.97 30.85 66.45 28.87L66.48 28.90L66.45 28.87Q65.11 27.15 64.01 22.58L64.12 22.69L64.15 22.73Q64.00 22.12 63.85 21.18L63.88 21.22L63.83 21.17Q63.67 20.23 63.67 19.77L63.76 19.86L63.81 19.91Q63.81 18.13 64.88 17.52L64.82 17.45L64.78 17.41Q66.02 16.68 67.88 16.68L67.88 16.67L67.84 16.63Q71.20 16.80 71.20 16.80L71.12 16.72L71.17 16.76Q73.25 16.72 74.51 16.91L74.60 17.00L74.60 16.99Q76.73 17.26 77.64 17.75L77.67 17.78L77.63 17.74Q78.90 18.40 79.09 20.15L79.12 20.18L79.18 20.25Q79.12 20.41 78.93 23.08L78.98 23.12L78.92 23.06Q78.51 25.17 78.28 26.01L78.28 26.01L78.29 26.02Q77.90 27.42 77.14 28.83ZM79.17 31.35L79.03 31.21L79.12 31.30Q80.03 29.01 80.56 24.71L80.57 24.72L80.54 24.68Q80.86 22.53 80.82 21.66L80.83 21.67L80.82 21.66Q80.84 19.85 79.66 18.93L79.56 18.84L79.38 18.84L79.29 18.76Q79.10 18.07 78.18 17.42L78.10 17.34L78.13 17.37Q75.88 16.42 71.09 16.26L71.14 16.31L71.02 16.19Q70.19 16.32 67.76 16.32L67.76 16.33L67.59 16.16Q65.98 16.30 64.50 16.98L64.53 17.01L64.37 16.86Q63.36 17.79 63.44 19.61L63.33 19.50L63.43 19.61Q63.55 20.45 63.74 22.46L63.84 22.57L63.73 22.46Q64.47 25.21 64.73 26.05L64.62 25.93L64.67 25.98Q65.16 27.78 66.12 29.07L66.17 29.12L66.08 29.03Q66.38 29.41 66.76 29.79L66.79 29.82L66.87 29.90Q67.08 30.30 67.73 31.21L67.81 31.29L67.69 31.18Q69.16 32.54 71.11 32.73L71.15 32.77L71.15 32.77Q69.25 35.44 67.69 37.34L67.65 37.30L64.04 41.69L64.00 41.64Q66.29 40.93 67.92 40.59L68.00 40.67L68.01 40.67Q67.14 41.44 65.58 43.15L65.56 43.13L65.63 43.20Q68.64 42.21 71.76 42.17L71.80 42.22L71.86 42.27Q74.06 39.56 78.40 32.33L78.46 32.39L78.41 32.42L78.57 32.58Q78.78 31.79 79.12 31.30ZM73.12 22.06L73.07 22.01L73.03 21.97Q73.66 21.88 74.11 21.99L74.24 22.12L74.11 21.99Q74.86 22.20 75.24 22.32L75.23 22.31L75.15 22.23Q75.24 22.58 75.31 23.00L75.32 23.01L75.47 23.16Q75.35 23.38 75.24 23.76L75.42 23.94L75.39 23.91Q75.31 25.58 74.13 26.69L74.09 26.65L74.06 26.62Q73.21 27.75 71.57 27.71L71.49 27.63L71.47 27.61Q71.04 27.60 69.52 27.29L69.57 27.34L69.60 27.38Q69.26 26.39 69.26 25.67L69.39 25.80L69.35 25.75Q69.35 25.57 69.35 25.34L69.32 25.30L69.18 25.17Q69.28 23.06 71.57 22.26L71.57 22.27L71.64 22.33Q72.31 22.09 73.15 22.09Z"/><path fill="#222" d="M116.56 33.02L116.47 32.92L116.55 33.01Q119.56 32.56 122.76 32.67L122.75 32.66L122.70 32.61Q122.67 30.07 122.67 27.67L122.65 27.65L122.83 27.83Q122.70 25.22 122.89 22.67L122.96 22.74L122.92 22.70Q121.68 24.40 116.47 32.93ZM126.39 40.30L126.49 40.40L126.45 40.35Q124.79 40.06 123.00 39.99L122.97 39.96L122.96 39.95Q122.71 37.53 122.60 35.06L122.72 35.18L122.64 35.10Q117.26 34.86 112.54 36.27L112.55 36.27L112.65 36.37Q112.73 35.85 112.92 34.86L112.98 34.92L112.85 34.78Q114.57 31.56 118.15 25.28L118.28 25.41L118.23 25.36Q121.18 20.54 124.61 16.66L124.66 16.71L124.63 16.68Q125.54 16.52 127.21 16.26L127.05 16.10L127.11 16.16Q125.25 22.63 125.25 29.68L125.22 29.65L125.23 29.66Q125.17 31.08 125.24 32.56L125.23 32.55L126.50 32.64L126.57 32.71Q127.23 32.79 127.84 32.91L127.84 32.92L127.87 32.95Q128.01 33.96 128.28 35.90L128.10 35.72L128.15 35.77Q126.93 35.51 125.44 35.32L125.48 35.35L125.45 35.32Q125.80 37.46 126.49 40.39ZM128.01 32.43L128.10 32.53L128.11 32.54Q127.84 32.38 127.65 32.38L127.62 32.35L127.28 32.39L127.25 32.36Q127.13 30.87 127.13 29.46L127.14 29.48L127.14 29.47Q127.13 23.07 129.19 17.05L129.24 17.11L129.16 17.02Q128.44 17.34 127.00 17.72L127.02 17.74L127.10 17.82Q127.30 17.03 127.76 15.62L127.64 15.50L127.73 15.60Q126.48 16.02 124.42 16.25L124.41 16.23L124.41 16.24Q120.56 20.64 115.34 30.01L115.26 29.92L117.34 26.26L117.27 26.19Q116.91 27.27 116.64 27.84L116.58 27.78L112.27 36.95L112.15 36.83Q112.77 36.65 113.91 36.27L113.89 36.25L113.92 36.66L113.80 36.54Q113.66 37.20 113.36 38.46L113.44 38.54L113.36 38.46Q117.57 37.22 122.40 37.41L122.44 37.45L122.29 37.30Q122.45 38.37 122.64 40.35L122.61 40.32L122.58 40.29Q123.75 40.40 124.81 40.51L124.63 40.32L124.81 40.51Q124.79 41.02 125.06 42.39L125.24 42.57L125.07 42.40Q126.99 42.65 130.00 43.56L130.15 43.72L130.14 43.70Q128.99 41.41 128.08 38.14L128.15 38.21L129.55 38.63L129.51 38.58Q130.25 38.87 130.94 39.21L130.94 39.22L130.97 39.24Q130.07 36.63 129.92 34.96L129.98 35.02L130.05 35.09Q129.46 34.91 128.32 34.68L128.22 34.59L128.21 34.58Q128.17 33.47 128.17 32.59ZM120.17 32.44L120.15 32.42L120.10 32.37Q120.83 31.04 122.39 28.49L122.36 28.46L122.44 28.55Q122.38 29.43 122.34 30.38L122.37 30.41L122.31 30.35Q122.35 31.38 122.39 32.33L122.31 32.25L122.34 32.28Q121.76 32.24 121.19 32.24L121.32 32.37L121.35 32.40Q120.65 32.31 120.04 32.31Z"/></svg>