<svg xmlns="http://www.w3.org/2000/svg" width="150" height="50" viewBox="0,0,150,50"><path fill="#444" d="M127.08 28.73L127.03 28.68L121.12 28.74L121.05 28.67Q118.24 28.83 115.30 28.75L115.31 28.76L115.38 28.83Q115.49 35.52 113.43 41.04L113.39 41.01L113.25 40.86Q111.55 41.48 109.80 42.17L109.73 42.10L109.77 42.14Q112.64 36.52 112.64 29.85L112.52 29.74L112.55 29.77Q112.53 21.26 108.42 14.22L108.46 14.26L108.51 14.30Q109.91 14.98 112.39 15.78L112.40 15.79L112.34 15.74Q114.66 20.99 115.19 25.86L115.05 25.72L115.02 25.69Q118.39 26.28 121.24 26.24L121.07 26.06L121.05 26.05Q123.84 26.17 127.15 25.91L127.13 25.88L127.02 25.78Q127.68 21.56 129.43 16.46L129.31 16.34L129.32 16.35Q131.31 15.97 133.55 15.14L133.54 15.12L133.61 15.20Q129.85 21.79 129.85 29.75L129.85 29.75L129.89 29.78Q129.94 36.04 132.30 41.37L132.25 41.33L132.28 41.36Q130.59 40.65 128.54 40.35L128.68 40.49L128.56 40.37Q126.85 35.31 126.96 28.61ZM128.27 40.69L128.44 40.86L128.33 40.75Q129.29 40.84 130.40 41.10L130.37 41.08L130.47 41.18Q130.81 41.90 131.46 43.38L131.40 43.32L131.41 43.34Q134.88 44.41 136.67 45.32L136.61 45.27L136.53 45.18Q132.23 39.17 131.93 30.91L131.75 30.73L131.87 30.86Q131.63 22.89 135.29 16.07L135.24 16.03L134.15 16.46L134.11 16.41Q133.69 16.72 133.08 16.87L133.08 16.87L133.12 16.91Q133.34 15.92 134.18 14.36L134.37 14.54L134.28 14.45Q131.68 15.55 129.06 16.05L128.94 15.93L128.98 15.98Q127.39 20.90 126.94 25.58L126.91 25.55L126.94 25.58Q124.48 25.82 122.04 25.82L121.85 25.63L121.88 25.66Q119.45 25.63 116.94 25.48L116.97 25.51L117.10 25.64Q116.83 22.32 115.72 18.25L115.67 18.20L115.71 18.24Q114.95 18.05 113.51 17.67L113.47 17.63L113.54 17.70Q113.09 16.42 112.64 15.39L112.77 15.52L112.80 15.55Q110.05 14.78 107.76 13.52L107.69 13.45L107.78 13.54Q112.25 20.87 112.25 29.66L112.22 29.62L112.18 29.59Q112.30 36.67 109.18 42.80L109.13 42.76L109.10 42.73Q109.87 42.50 111.20 41.93L111.15 41.88L111.19 41.92Q110.96 42.87 110.16 44.40L110.07 44.30L109.99 44.23Q112.86 43.28 115.10 42.87L115.16 42.93L115.16 42.92Q117.04 37.38 117.23 31.21L117.25 31.23L117.14 31.12Q118.88 31.18 122.07 31.15L121.88 30.96L121.94 31.01Q124.78 30.96 126.69 31.04L126.78 31.13L126.66 31.01Q127.04 36.87 128.37 40.79Z"/><path fill="#222" d="M100.30 41.33L100.27 41.30L97.24 41.12L97.31 41.20Q94.83 41.00 94.04 40.89L93.99 40.85L94.01 40.87Q92.10 40.44 90.92 39.56L91.09 39.73L91.00 39.64Q89.67 38.20 89.44 34.85L89.44 34.84L89.59 34.99Q89.43 34.38 89.35 33.16L89.43 33.24L89.35 33.16Q89.29 32.68 89.22 31.58L89.27 31.63L89.39 31.75Q89.29 30.85 89.33 30.13L89.28 30.08L89.28 30.08Q89.48 28.15 90.51 27.39L90.50 27.38L90.61 27.49Q92.55 26.34 97.38 26.11L97.36 26.09L97.26 25.99Q99.33 25.93 100.13 25.93L100.06 25.86L100.11 25.91Q101.64 25.95 103.01 26.26L103.01 26.26L102.94 26.19Q102.34 27.42 101.81 29.25L101.90 29.34L101.92 29.36Q101.29 29.30 100.80 29.26L100.90 29.36L100.96 29.42Q100.74 29.28 100.21 29.17L100.23 29.19L99.33 29.02L99.23 28.91Q98.15 28.63 97.54 28.67L97.60 28.73L97.59 28.72Q92.94 28.87 92.33 31.68L92.22 31.57L92.23 31.59Q92.06 32.82 92.13 33.77L92.00 33.64L91.99 33.63Q92.15 36.23 93.39 37.31L93.47 37.40L93.49 37.41Q94.67 38.44 97.26 38.48L97.25 38.47L97.36 38.58Q98.78 38.55 99.50 38.25L99.44 38.19L100.50 37.72L100.59 37.81Q100.98 37.44 101.55 37.36L101.70 37.51L101.65 37.46Q101.91 39.28 102.29 40.58L102.25 40.54L102.16 40.45Q102.00 40.89 100.21 41.24ZM103.55 44.27L103.40 44.12L103.41 44.13Q103.80 44.18 104.64 44.26L104.72 44.34L104.72 44.34Q105.30 44.31 105.64 43.74L105.58 43.68L105.62 43.71Q104.54 41.76 104.05 39.67L104.05 39.67L103.94 39.57Q103.68 39.61 103.22 39.61L103.22 39.61L103.26 39.64Q102.76 39.56 102.38 39.75L102.28 39.66L102.34 39.72Q102.10 38.56 101.95 37.15L101.79 37.00L101.92 37.12Q101.32 37.06 100.10 37.63L100.05 37.57L100.12 37.64Q98.74 38.06 98.25 38.06L98.27 38.08L98.37 38.18Q97.91 38.22 97.30 38.18L97.18 38.05L97.29 38.17Q96.38 38.13 94.40 37.56L94.41 37.57L94.42 37.58Q94.10 36.88 94.14 35.74L94.00 35.60L94.11 35.71Q94.18 31.36 99.13 30.83L99.22 30.93L99.13 30.83Q99.97 30.99 101.34 31.33L101.28 31.27L101.34 31.33Q102.66 31.62 103.39 31.59L103.41 31.61L103.27 31.46Q103.71 29.24 104.39 27.42L104.55 27.57L104.41 27.44Q104.03 27.32 103.65 27.24L103.79 27.38L102.97 27.25L103.02 27.30Q103.14 26.73 103.52 25.85L103.58 25.92L103.55 25.88Q101.93 25.45 100.37 25.45L100.47 25.54L100.50 25.58Q97.93 25.41 93.55 25.79L93.55 25.79L93.58 25.81Q91.80 26.12 90.23 27.11L90.10 26.98L90.08 26.96Q88.91 27.96 88.91 29.86L88.87 29.83L88.95 29.90Q88.88 30.25 88.99 31.47L88.97 31.44L88.99 31.46Q89.13 32.55 89.09 33.16L88.99 33.06L89.00 33.07Q89.15 35.09 89.88 38.82L89.85 38.79L89.91 38.86Q90.15 39.55 90.65 40.05L90.77 40.17L90.84 40.24L91.05 40.41L91.00 40.36Q91.91 42.38 95.83 42.99L95.86 43.02L95.92 43.08Q99.15 43.64 101.81 43.91L101.68 43.78L101.78 43.87Q102.60 43.97 103.51 44.23Z"/><path fill="#333" d="M46.57 40.21L46.58 40.22L44.08 33.27L44.06 33.24Q39.75 20.71 33.81 14.31L33.74 14.25L33.89 14.39Q35.76 15.31 38.35 15.92L38.44 16.01L38.47 16.04Q43.62 22.33 47.96 35.09L47.90 35.02L47.84 34.96Q50.99 26.96 51.68 25.36L51.72 25.41L51.68 25.37Q54.02 19.71 56.83 16.40L56.83 16.39L56.78 16.34Q58.87 16.00 61.50 15.12L61.63 15.25L61.57 15.20Q57.02 19.81 53.97 27.05L53.89 26.96L54.03 27.11Q52.59 30.73 48.89 40.24L48.81 40.16L48.93 40.28Q48.31 40.23 47.74 40.19L47.61 40.07L47.68 40.14Q47.06 40.09 46.49 40.12ZM51.60 42.65L51.52 42.56L51.57 42.62Q54.39 32.65 55.95 28.61L55.92 28.58L56.00 28.66Q58.89 20.85 63.31 15.98L63.28 15.95L63.29 15.96Q62.24 16.32 60.15 17.04L60.20 17.10L61.35 15.78L61.27 15.69Q62.02 15.19 62.63 14.54L62.50 14.41L62.58 14.49Q59.82 15.54 56.82 16.11L56.63 15.92L56.70 16.00Q52.32 21.33 48.44 32.78L48.47 32.82L48.54 32.89Q44.74 22.62 41.54 18.24L41.53 18.22L41.65 18.35Q41.15 18.15 40.27 18.00L40.31 18.03L40.43 18.15Q40.05 17.62 38.45 15.57L38.54 15.66L38.49 15.60Q35.52 14.88 32.82 13.47L32.92 13.57L32.81 13.47Q39.47 20.58 43.85 33.37L43.90 33.42L43.83 33.35Q44.99 36.95 46.17 40.53L46.30 40.66L46.18 40.53Q46.69 40.74 47.53 40.63L47.41 40.52L47.40 40.50Q47.71 41.16 48.40 42.49L48.40 42.49L48.50 42.59Q49.28 42.46 50.00 42.54L50.09 42.63L49.97 42.50Q50.81 42.62 51.57 42.62Z"/><path fill="#333" d="M66.34 19.19L66.23 19.08L66.29 19.14Q67.44 23.63 67.59 26.83L67.65 26.89L67.58 26.82Q68.03 26.82 72.41 26.93L72.56 27.08L72.57 27.09Q74.96 26.97 75.34 23.50L75.34 23.50L75.46 23.62Q75.65 21.88 74.74 20.96L74.67 20.90L74.73 20.95Q73.32 19.93 71.34 19.77L71.47 19.90L71.39 19.82Q68.15 19.59 66.28 19.13ZM67.78 28.85L67.84 28.90L67.64 28.71Q67.91 34.80 66.12 40.74L66.22 40.84L66.18 40.81Q64.94 41.12 62.35 42.15L62.25 42.05L62.32 42.12Q65.17 35.64 64.83 28.18L64.82 28.18L64.73 28.08Q64.38 20.69 61.07 14.18L61.23 14.34L61.17 14.29Q66.06 17.12 73.03 17.12L73.07 17.16L73.08 17.17Q78.69 17.14 78.95 20.68L78.92 20.65L78.91 20.64Q78.97 21.24 78.90 21.84L78.92 21.87L78.76 22.92L78.79 22.95Q77.90 26.83 75.77 28.54L75.80 28.57L75.79 28.56Q75.07 29.33 74.05 29.33L74.05 29.34L71.51 29.38L71.51 29.38Q77.06 36.57 81.60 41.14L81.50 41.05L81.64 41.18Q79.44 40.43 76.51 40.09L76.45 40.03L76.45 40.03Q72.60 36.00 67.69 28.76ZM76.28 40.36L76.35 40.42L76.57 40.34L77.96 41.73L77.85 41.62Q78.37 42.11 79.02 42.72L79.04 42.73L79.11 42.80Q82.57 43.33 86.15 45.20L86.23 45.28L86.11 45.16Q79.29 38.54 73.89 31.61L73.87 31.59L75.66 31.62L75.63 31.60Q78.66 31.55 80.00 27.02L79.97 26.99L80.08 27.11Q80.70 24.82 80.70 22.12L80.77 22.20L80.67 22.09Q80.74 19.88 79.02 19.23L79.10 19.30L79.00 19.21Q78.95 18.89 78.38 18.21L78.25 18.08L78.32 18.15Q76.72 16.78 73.07 16.70L72.90 16.53L72.97 16.60Q65.10 16.46 60.42 13.45L60.46 13.50L60.40 13.43Q64.24 20.36 64.58 28.05L64.52 27.99L64.51 27.98Q64.89 35.97 61.77 42.83L61.79 42.84L61.80 42.85Q63.02 42.25 63.82 41.95L63.71 41.83L62.80 44.20L62.85 44.25Q65.55 43.18 68.21 42.68L68.10 42.57L68.24 42.71Q69.47 37.55 69.66 32.33L69.66 32.33L69.58 32.25Q73.21 37.33 76.37 40.45ZM75.11 22.51L74.95 22.36L75.00 22.41Q75.17 22.80 75.17 23.15L75.18 23.15L75.18 23.72L75.06 23.61Q75.11 24.76 74.43 25.71L74.35 25.63L74.38 25.66Q73.86 26.51 72.94 26.70L72.87 26.63L72.83 26.59Q72.73 26.76 71.14 26.80L71.06 26.73L70.95 26.62Q70.50 26.77 69.66 26.66L69.61 26.60L69.72 26.71Q69.46 25.05 69.12 22.00L69.28 22.16L69.18 22.07Q70.53 22.19 71.21 22.19L71.33 22.31L71.22 22.20Q73.11 22.27 75.06 22.46Z"/><path fill="#111" d="M19.02 40.30L19.13 40.40L19.04 40.31Q14.97 40.55 13.98 38.23L13.98 38.23L13.97 38.21Q14.78 37.31 16.34 35.52L16.38 35.56L16.34 35.52Q16.78 37.48 19.79 37.60L19.90 37.70L19.95 37.76Q23.31 37.80 24.95 36.47L24.87 36.40L24.97 36.50Q26.24 34.76 26.17 32.06L26.31 32.20L26.24 32.13Q25.99 26.97 21.19 27.20L21.38 27.38L21.19 27.19Q18.48 27.46 16.73 28.71L16.79 28.77L16.39 28.53L16.23 28.44L16.17 28.38Q16.56 25.26 16.44 22.52L16.38 22.46L16.45 22.53Q16.38 19.95 16.04 16.64L15.96 16.56L15.89 16.49Q19.68 17.58 23.49 17.46L23.31 17.29L23.36 17.34Q27.17 17.26 30.74 16.00L30.86 16.12L30.25 17.60L30.21 17.57Q29.97 18.39 29.78 19.23L29.82 19.26L29.72 19.16Q26.64 20.23 22.75 20.23L22.75 20.23L22.68 20.16Q21.34 20.26 19.85 20.11L19.81 20.07L19.79 20.05Q19.72 20.74 19.38 25.19L19.32 25.14L19.34 25.16Q20.23 24.75 22.29 24.60L22.30 24.61L22.23 24.55Q25.95 24.76 27.40 26.44L27.53 26.57L27.44 26.47Q28.76 27.95 29.02 31.79L29.18 31.95L29.09 31.86Q29.26 35.95 28.04 37.97L28.12 38.05L28.18 38.10Q26.02 39.87 22.71 40.10L22.71 40.10L22.80 40.19Q21.74 40.20 19.08 40.35ZM25.07 42.57L25.16 42.66L25.21 42.71Q28.61 42.76 30.51 41.66L30.58 41.72L30.41 41.55Q31.46 40.09 31.46 38.00L31.43 37.97L31.52 38.06Q31.49 34.94 30.53 30.83L30.51 30.81L30.63 30.92Q30.18 29.10 28.96 27.69L28.91 27.64L28.89 27.66L28.80 27.50L28.40 27.25L28.49 27.33Q28.11 26.54 27.46 25.85L27.54 25.93L27.47 25.90L27.52 25.95Q25.87 24.15 22.18 24.15L22.26 24.23L22.03 24.27L21.94 24.18Q22.05 23.64 22.24 22.53L22.29 22.58L22.18 22.48Q27.20 22.62 31.23 20.98L31.25 21.00L31.23 20.98Q31.63 19.56 32.59 16.74L32.66 16.82L30.48 17.68L30.60 17.80Q30.90 16.57 31.39 15.43L31.40 15.44L31.42 15.46Q27.51 16.84 23.39 16.91L23.35 16.87L23.48 17.00Q19.42 17.17 15.46 16.06L15.37 15.97L15.33 15.93Q16.08 20.41 16.08 24.83L16.11 24.86L16.11 24.85Q16.06 26.71 15.95 28.62L15.96 28.63L15.91 28.58Q16.24 28.83 16.81 29.13L16.83 29.16L16.75 29.08Q17.08 28.84 17.73 28.50L17.86 28.62L17.73 28.50Q17.78 29.34 17.55 30.86L17.45 30.76L17.54 30.85Q17.97 31.06 18.39 31.29L18.31 31.21L18.44 31.34Q21.09 29.46 22.96 29.46L22.91 29.41L22.96 29.46Q24.29 29.46 25.47 30.10L25.57 30.21L25.45 30.08Q25.78 31.10 25.82 32.05L25.96 32.20L25.82 32.05Q25.87 34.61 24.84 35.72L24.87 35.75L24.84 35.72Q23.50 36.97 21.25 37.20L21.35 37.29L21.25 37.19Q20.31 37.28 19.63 37.21L19.68 37.26L19.58 37.16Q18.94 37.24 18.18 36.90L18.01 36.73L18.14 36.67L18.02 36.77L17.91 36.67Q17.04 36.11 16.51 34.78L16.52 34.78L16.64 34.90Q15.27 36.27 13.59 38.40L13.66 38.48L13.53 38.34Q13.83 38.99 14.67 39.94L14.80 40.07L14.78 40.05Q15.70 41.73 18.52 42.22L18.68 42.39L18.62 42.33Q19.78 42.54 25.15 42.65Z"/></svg>