<svg xmlns="http://www.w3.org/2000/svg" width="150" height="50" viewBox="0,0,150,50"><path fill="#222" d="M129.11 40.44L128.96 40.29L128.95 40.29Q126.01 36.43 123.38 27.79L123.38 27.79L123.42 27.83Q122.70 25.62 121.90 23.49L121.94 23.53L119.01 32.25L119.12 32.36Q117.22 37.19 114.82 40.43L114.83 40.44L114.86 40.47Q114.12 40.65 112.48 40.80L112.51 40.82L112.44 40.76Q112.60 39.62 112.60 38.37L112.58 38.35L112.56 38.32Q112.60 32.35 109.86 26.22L109.81 26.17L109.76 26.12Q106.63 19.23 100.77 14.24L100.84 14.31L100.89 14.36Q102.97 14.99 105.33 15.52L105.32 15.51L105.28 15.48Q113.89 23.85 115.18 34.82L115.22 34.85L115.18 34.82Q116.98 31.66 118.42 26.29L118.28 26.15L118.35 26.22Q120.37 18.76 120.87 17.35L120.76 17.25L123.00 17.24L123.10 17.35Q123.77 19.34 124.41 21.66L124.38 21.63L125.76 26.20L125.70 26.15Q127.20 31.53 128.61 34.77L128.64 34.79L128.56 34.71Q130.32 23.19 138.23 15.84L138.20 15.80L138.29 15.90Q139.70 15.44 142.67 14.80L142.71 14.84L142.81 14.93Q137.38 19.14 134.34 25.27L134.30 25.23L134.28 25.21Q131.20 31.46 131.20 38.24L131.27 38.31L131.16 38.20Q131.24 39.38 131.31 40.52L131.30 40.50L130.25 40.49L130.10 40.33Q129.67 40.43 129.09 40.43ZM135.26 43.24L135.21 43.19L135.25 43.23Q133.93 39.60 134.05 35.71L134.24 35.91L134.23 35.90Q134.40 24.18 143.76 15.92L143.87 16.04L143.80 15.96Q142.98 16.32 141.04 16.86L141.05 16.86L140.96 16.78Q141.84 15.86 143.74 14.07L143.82 14.16L143.72 14.05Q141.13 14.90 138.20 15.39L138.23 15.42L138.19 15.38Q130.77 22.58 128.87 32.06L128.88 32.07L128.88 32.07Q128.30 30.42 125.44 18.96L125.36 18.88L125.46 18.98Q124.98 19.00 124.03 19.00L124.07 19.03L123.79 17.99L123.81 18.01Q123.61 17.40 123.38 16.90L123.37 16.89L120.43 16.85L120.49 16.91Q119.71 19.40 118.43 24.52L118.27 24.35L118.47 24.55Q117.06 29.54 116.07 32.01L116.18 32.12L116.15 32.09Q114.52 24.15 108.96 17.83L108.92 17.78L109.01 17.87Q108.55 17.83 107.60 17.64L107.47 17.51L107.51 17.56Q106.79 16.72 105.23 15.08L105.27 15.12L105.26 15.11Q101.80 14.24 99.63 13.44L99.79 13.60L99.68 13.49Q105.36 18.19 108.64 24.39L108.65 24.41L108.55 24.30Q112.20 31.11 112.20 38.12L112.11 38.03L112.02 37.94Q112.14 39.62 111.95 41.22L111.87 41.13L111.90 41.17Q112.12 41.16 112.58 41.07L112.52 41.01L112.63 41.11Q113.15 41.08 113.38 41.08L113.25 40.96L113.28 42.01L113.33 42.06Q113.20 42.39 113.28 42.92L113.45 43.10L113.36 43.01Q114.55 42.98 116.84 42.83L116.86 42.86L116.86 42.86Q120.46 37.44 123.21 28.03L123.12 27.95L123.21 28.04Q125.95 36.79 128.92 40.75L128.83 40.66L128.92 40.76Q129.32 40.69 130.15 40.81L130.23 40.88L130.23 40.88Q131.02 41.86 132.08 42.92L132.08 42.92L132.21 43.05Q132.98 43.10 135.38 43.37Z"/><path fill="#222" d="M72.79 40.20L72.63 40.04L70.71 40.40L70.53 40.23Q70.16 40.31 69.19 40.37L69.20 40.38L69.22 40.40Q68.24 40.44 67.74 40.44L67.75 40.45L67.70 40.40Q66.17 40.51 65.14 39.67L65.05 39.57L65.05 39.58Q65.85 38.47 67.49 36.34L67.50 36.35L67.41 36.27Q68.73 37.89 70.94 37.66L71.01 37.73L70.96 37.68Q71.86 37.56 72.51 36.91L72.44 36.84L72.51 36.91Q73.13 36.23 73.01 35.36L73.06 35.40L72.99 35.33Q72.87 30.72 72.94 26.15L72.97 26.18L73.06 26.27Q73.06 21.62 73.59 17.01L73.61 17.03L73.55 16.97Q75.55 16.84 77.68 15.81L77.62 15.75L77.68 15.81Q75.84 22.57 75.84 29.81L75.72 29.69L75.83 29.80Q75.71 33.22 76.17 36.72L76.16 36.72L76.18 36.74Q76.34 37.16 76.34 37.51L76.29 37.45L76.34 37.51Q76.33 38.07 76.10 38.60L76.06 38.55L76.05 38.55Q75.50 39.83 72.69 40.10ZM77.58 42.89L77.61 42.93L78.09 43.07L78.21 42.77L78.51 42.69L78.54 42.71Q78.79 42.40 78.87 42.28L78.91 42.32L78.84 42.25Q79.15 41.19 78.88 40.20L78.74 40.06L78.90 40.22Q77.57 34.43 77.84 28.07L77.84 28.07L77.78 28.02Q78.04 21.93 79.83 16.02L79.85 16.04L79.86 16.05Q78.90 16.61 77.64 17.34L77.70 17.40L77.69 17.39Q77.75 16.49 78.17 14.97L78.35 15.15L78.32 15.12Q75.82 16.46 73.15 16.77L73.06 16.68L73.05 16.67Q72.79 21.17 72.72 26.12L72.64 26.04L72.71 26.11Q72.68 32.06 72.76 35.48L72.66 35.38L72.74 35.46Q72.75 37.19 71.00 37.34L70.89 37.24L71.05 37.40Q69.29 37.46 67.61 35.82L67.50 35.71L67.58 35.79Q65.51 38.29 64.56 39.85L64.61 39.90L64.48 39.77Q65.25 40.54 66.27 40.76L66.21 40.70L66.26 40.75Q66.21 40.93 65.94 41.15L65.80 41.01L65.96 41.17Q67.38 42.10 69.36 42.37L69.42 42.42L69.22 42.23Q69.72 42.38 73.01 42.69L73.03 42.70L72.94 42.61Q76.24 42.93 77.61 42.93Z"/><path fill="#222" d="M102.40 28.72L102.47 28.79L96.45 28.74L96.53 28.83Q93.51 28.77 90.58 28.69L90.70 28.82L90.64 28.76Q90.73 35.43 88.68 40.95L88.72 41.00L88.65 40.93Q86.85 41.45 85.10 42.14L85.19 42.23L85.15 42.19Q87.91 36.46 87.91 29.80L87.90 29.79L87.90 29.78Q87.78 21.18 83.67 14.14L83.74 14.20L83.68 14.14Q85.29 15.03 87.76 15.83L87.67 15.74L87.70 15.76Q89.87 20.87 90.41 25.74L90.49 25.83L90.52 25.86Q93.61 26.17 96.47 26.13L96.56 26.22L96.38 26.04Q99.15 26.15 102.46 25.88L102.47 25.89L102.51 25.93Q102.96 21.51 104.71 16.41L104.76 16.45L104.63 16.32Q106.70 16.04 108.95 15.20L108.80 15.05L108.76 15.01Q105.15 21.75 105.15 29.71L105.17 29.73L105.26 29.83Q105.27 36.04 107.63 41.37L107.59 41.33L107.55 41.29Q105.99 40.71 103.93 40.41L103.98 40.46L103.88 40.36Q102.27 35.40 102.39 28.70ZM103.60 40.69L103.61 40.70L103.69 40.78Q104.67 40.88 105.77 41.15L105.73 41.10L105.82 41.20Q106.08 41.84 106.73 43.32L106.82 43.41L106.77 43.37Q110.11 44.30 111.90 45.22L111.86 45.17L111.93 45.25Q107.45 39.06 107.15 30.80L107.11 30.76L107.08 30.73Q106.96 22.88 110.61 16.06L110.58 16.03L109.53 16.51L109.49 16.47Q108.99 16.69 108.38 16.84L108.38 16.84L108.45 16.91Q108.81 16.05 109.65 14.49L109.60 14.44L109.55 14.39Q107.02 15.56 104.39 16.05L104.23 15.89L104.30 15.96Q102.62 20.78 102.16 25.47L102.09 25.40L102.26 25.56Q99.62 25.63 97.18 25.63L97.20 25.65L97.19 25.64Q94.93 25.77 92.41 25.62L92.46 25.67L92.33 25.54Q92.05 22.21 90.95 18.14L91.07 18.26L90.97 18.16Q90.26 18.02 88.82 17.64L89.00 17.82L88.92 17.75Q88.43 16.42 87.98 15.40L88.11 15.53L88.05 15.47Q85.26 14.65 82.97 13.40L83.09 13.51L82.97 13.40Q87.70 20.98 87.70 29.78L87.59 29.66L87.54 29.62Q87.55 36.59 84.43 42.72L84.51 42.80L84.45 42.74Q85.12 42.43 86.46 41.86L86.62 42.02L86.48 41.88Q86.19 42.77 85.39 44.29L85.33 44.23L85.41 44.31Q88.29 43.39 90.54 42.97L90.54 42.97L90.37 42.80Q92.42 37.43 92.61 31.26L92.55 31.20L92.51 31.16Q94.14 31.12 97.34 31.08L97.31 31.04L97.32 31.06Q100.17 31.01 102.07 31.09L102.08 31.09L102.14 31.16Q102.27 36.77 103.60 40.69Z"/><path fill="#444" d="M46.52 29.29L46.38 29.14L46.35 29.12Q44.51 29.14 43.29 30.48L43.35 30.54L43.36 30.54Q42.17 31.91 42.02 33.81L41.94 33.73L41.95 33.74Q41.76 35.87 42.98 36.88L43.09 37.00L42.94 36.84Q44.31 38.00 46.44 37.93L46.27 37.75L46.39 37.88Q48.68 37.69 49.63 36.74L49.54 36.64L49.62 36.73Q50.65 35.29 50.54 33.46L50.45 33.37L50.52 33.44Q50.46 31.63 49.38 30.43L49.40 30.45L49.38 30.43Q48.32 29.25 46.49 29.25ZM46.48 19.85L46.29 19.66L46.44 19.81Q44.98 19.64 43.65 20.14L43.68 20.16L43.65 20.13Q42.29 20.87 42.51 22.73L42.68 22.89L42.57 22.78Q43.01 26.46 46.36 26.46L46.32 26.43L46.36 26.47Q47.97 26.71 48.96 25.56L48.92 25.52L49.01 25.61Q49.87 24.34 49.91 22.78L49.90 22.77L49.92 22.79Q50.10 21.14 49.38 20.53L49.35 20.50L49.30 20.46Q47.66 19.65 46.37 19.73ZM46.16 40.34L46.18 40.37L43.16 40.40L43.14 40.37Q41.52 40.27 40.18 39.40L40.26 39.47L40.19 39.41Q38.76 38.20 38.91 35.34L38.92 35.35L39.07 35.51Q39.55 28.67 43.17 27.68L43.04 27.55L43.01 27.53Q40.87 26.76 39.54 21.39L39.51 21.37L39.47 21.32Q39.08 19.87 39.16 19.07L39.28 19.19L39.21 19.13Q39.45 16.93 43.15 16.89L43.17 16.91L43.25 17.00Q47.38 16.82 48.82 17.01L48.77 16.96L48.80 16.98Q52.68 17.55 53.13 19.57L53.06 19.49L53.25 19.68Q53.23 20.16 53.23 20.54L53.30 20.62L53.33 20.64Q53.25 21.25 53.06 21.86L53.03 21.82L53.14 21.94Q52.45 26.08 49.52 27.60L49.60 27.69L49.64 27.72Q52.97 28.35 53.47 33.64L53.53 33.71L53.63 33.80Q53.49 33.82 53.52 35.11L53.55 35.14L53.61 35.20Q53.74 37.99 52.14 39.05L51.99 38.90L52.13 39.05Q50.64 39.80 46.07 40.26ZM48.36 42.59L48.33 42.56L51.79 42.74L51.81 42.76Q53.41 42.73 54.93 42.00L55.01 42.08L55.03 42.10Q56.11 41.31 56.18 39.44L56.28 39.54L56.20 39.46Q56.30 38.42 55.92 36.48L55.96 36.51L55.88 36.44Q54.89 31.72 52.79 29.85L52.82 29.88L52.63 29.50L52.41 29.20L52.38 29.06L52.38 29.06Q53.87 27.54 54.78 23.39L54.87 23.47L54.80 23.41Q54.94 23.17 55.02 22.33L55.00 22.31L54.86 22.17Q54.96 21.51 54.88 20.90L54.99 21.00L54.95 20.97Q54.81 19.53 53.63 19.03L53.52 18.93L53.69 19.06L53.46 18.91L53.50 18.95Q53.21 18.19 52.03 17.39L52.00 17.37L52.04 17.37L51.99 17.32Q50.13 16.76 46.06 16.57L45.96 16.47L45.96 16.47Q44.54 16.49 43.17 16.61L43.14 16.58L43.08 16.52Q42.30 16.57 41.00 16.73L41.00 16.72L40.98 16.71Q38.99 17.04 38.76 18.67L38.73 18.65L38.72 18.63Q38.82 19.26 38.86 20.06L38.84 20.05L38.85 20.06Q38.93 20.55 39.50 22.91L39.52 22.94L39.52 22.93Q40.31 26.16 42.06 27.49L42.08 27.52L42.21 27.65L42.20 27.63Q39.39 28.90 38.86 34.08L38.83 34.04L38.87 34.09Q38.72 36.33 38.72 37.24L38.68 37.21L38.57 37.10Q38.61 38.85 39.79 39.77L39.78 39.75L39.85 39.83Q39.91 39.84 40.17 40.03L40.16 40.02L40.24 40.10Q41.29 42.40 48.41 42.63ZM48.06 31.55L48.05 31.54L48.15 31.64Q48.90 31.40 49.77 31.85L49.92 32.00L49.78 31.86Q50.23 32.92 50.19 33.46L50.15 33.41L50.22 33.48Q50.32 33.85 50.32 34.15L50.16 33.99L50.15 33.98Q50.27 36.46 47.99 37.30L47.92 37.23L47.85 37.16Q47.22 37.64 46.42 37.53L46.40 37.51L46.36 37.46Q45.16 37.48 44.01 37.02L44.07 37.08L44.16 37.17Q43.89 36.51 43.96 35.52L43.92 35.48L43.93 35.49Q43.97 33.77 45.16 32.56L45.29 32.68L45.16 32.55Q46.36 31.34 47.96 31.45ZM48.21 21.99L48.39 22.17L48.25 22.03Q49.06 21.93 49.59 22.08L49.64 22.13L49.64 22.93L49.57 22.86Q49.68 24.37 48.76 25.38L48.62 25.24L48.73 25.35Q47.77 26.31 46.40 26.12L46.32 26.05L46.42 26.14Q45.48 26.19 45.06 25.96L45.06 25.96L44.96 25.86Q44.93 25.60 44.81 24.91L44.87 24.97L44.84 24.94Q44.65 23.61 45.87 22.77L45.87 22.78L45.75 22.65Q46.80 21.95 48.21 21.99Z"/><path fill="#111" d="M15.67 47.14L15.65 47.12L15.59 47.07Q14.62 47.24 12.72 47.54L12.78 47.60L12.67 47.49Q13.97 45.33 14.99 44.03L15.15 44.18L15.11 44.14Q16.83 44.42 16.98 44.42L17.06 44.49L16.91 44.35Q17.25 44.46 17.78 44.34L17.76 44.33L17.76 44.32Q18.59 44.40 18.78 44.40L18.69 44.30L18.64 44.25Q21.30 44.09 21.22 41.92L21.25 41.95L21.17 41.87Q21.06 40.32 20.95 34.07L20.95 34.08L21.09 34.21Q20.97 30.59 21.05 26.44L21.00 26.40L22.43 26.23L22.54 26.34Q23.09 26.13 23.78 25.90L23.70 25.82L23.80 25.92Q23.63 30.40 23.67 34.77L23.57 34.67L23.54 34.64Q23.64 39.09 24.18 43.47L24.23 43.53L24.27 43.56Q24.18 43.70 24.18 43.97L24.32 44.11L24.32 44.11Q24.23 45.65 22.55 46.03L22.53 46.01L22.63 46.11Q19.54 46.53 15.70 47.17ZM22.46 22.95L20.31 19.81L20.30 19.79Q21.31 18.37 23.14 15.59L23.12 15.57L23.20 15.65Q23.82 16.50 25.16 18.33L25.16 18.34L22.32 22.81ZM25.45 49.54L25.36 49.45L25.33 49.42Q26.01 49.60 26.77 49.26L26.78 49.27L26.77 49.26Q26.95 48.41 26.95 47.96L26.95 47.95L26.94 47.95Q26.90 47.56 26.79 46.96L26.86 47.03L26.96 47.13Q25.62 40.72 25.62 32.80L25.61 32.80L25.57 32.76Q25.57 29.90 25.72 27.00L25.69 26.98L25.76 27.05Q25.25 27.26 24.11 27.56L24.06 27.52L24.10 27.55Q23.98 26.94 24.02 26.41L24.11 26.50L24.21 25.42L24.18 25.39Q22.51 26.08 20.73 26.12L20.59 25.99L20.60 25.99Q20.61 30.39 20.65 33.97L20.68 34.00L20.71 41.76L20.84 41.89Q20.81 43.75 18.64 43.87L18.73 43.96L18.78 44.01Q18.43 43.89 17.91 43.94L17.90 43.93L17.96 43.99Q17.44 44.04 17.17 44.04L17.24 44.11L17.10 43.97Q16.66 43.99 15.10 43.57L15.17 43.64L15.06 43.52Q14.58 44.11 13.47 45.79L13.51 45.82L12.08 48.24L12.03 48.19Q12.95 48.04 14.59 47.66L14.48 47.56L14.12 48.37L13.46 48.89L13.63 49.07Q15.87 48.87 17.20 48.94L17.11 48.85L17.15 48.89Q19.49 49.10 25.43 49.52ZM22.25 23.50L22.29 23.53L22.76 23.13L22.63 23.00Q23.08 23.53 24.03 25.12L24.06 25.16L23.99 25.09Q25.63 22.08 27.19 19.00L27.04 18.84L27.01 18.82Q26.17 17.37 25.22 16.07L25.07 15.92L25.13 15.99Q24.89 16.16 24.55 16.70L24.72 16.87L24.65 16.80Q24.24 16.16 23.25 14.87L23.22 14.83L23.16 14.78Q22.09 16.48 19.77 19.83L19.81 19.88L19.80 19.86Q20.57 20.95 22.29 23.53Z"/></svg>