<svg xmlns="http://www.w3.org/2000/svg" width="150" height="50" viewBox="0,0,150,50"><path fill="#333" d="M19.27 29.72L19.12 29.58L19.19 29.65Q19.27 33.99 18.55 38.14L18.44 38.04L18.46 38.06Q20.76 37.54 23.84 37.42L23.87 37.45L23.81 37.39Q25.20 37.64 26.27 36.63L26.18 36.54L26.20 36.57Q27.30 35.59 27.30 34.26L27.35 34.31L27.21 34.17Q27.33 33.99 27.29 33.72L27.22 33.65L27.28 33.70Q27.07 30.71 24.82 29.88L24.76 29.82L24.90 29.95Q24.00 29.51 23.31 29.58L23.47 29.74L23.47 29.74Q22.30 29.56 21.27 29.60L21.36 29.69L21.31 29.63Q20.18 29.61 19.15 29.61ZM17.98 19.22L18.02 19.27L17.96 19.20Q18.78 22.47 19.05 26.85L19.08 26.87L19.19 26.99Q20.61 27.07 23.27 27.11L23.25 27.09L23.19 27.02Q26.18 27.13 26.53 23.58L26.59 23.65L26.43 23.49Q26.61 21.54 25.20 20.70L25.32 20.82L25.24 20.74Q24.35 20.23 19.94 19.58L19.98 19.63L20.04 19.69Q18.98 19.54 18.07 19.31ZM14.40 42.19L14.37 42.15L14.26 42.04Q16.73 35.37 16.46 27.98L16.57 28.09L16.60 28.13Q16.14 20.66 13.21 14.19L13.26 14.24L13.38 14.36Q16.99 16.72 23.22 16.96L23.36 17.11L23.35 17.10Q29.50 17.27 29.84 20.16L29.97 20.29L29.86 20.18Q30.16 22.91 28.75 25.58L28.77 25.60L28.85 25.68Q28.03 27.11 26.44 27.80L26.40 27.76L26.42 27.78Q30.14 28.53 30.36 33.90L30.27 33.80L30.35 33.88Q30.50 35.06 30.42 36.47L30.35 36.39L30.35 36.39Q30.35 37.77 29.42 38.70L29.28 38.56L29.34 38.62Q28.37 39.51 27.04 39.66L27.15 39.78L27.14 39.77Q25.66 39.85 24.59 39.85L24.64 39.90L24.51 39.77Q18.87 39.84 14.34 42.12ZM27.18 42.47L27.14 42.43L27.05 42.35Q28.03 42.45 29.90 42.56L29.88 42.55L29.96 42.62Q31.34 42.63 32.44 41.76L32.35 41.67L32.46 41.78Q33.15 40.75 33.03 39.19L33.07 39.23L33.20 39.36Q33.04 38.33 32.32 34.86L32.32 34.86L32.26 34.80Q31.55 31.54 29.69 30.06L29.81 30.18L29.30 29.26L29.37 29.32Q31.10 27.97 31.67 24.20L31.59 24.12L31.59 24.12Q31.75 22.98 31.67 21.57L31.66 21.56L31.76 21.66Q31.54 20.19 30.44 19.35L30.50 19.41L30.55 19.47Q30.21 19.24 30.10 19.20L30.05 19.15L29.99 19.10Q29.90 18.74 29.06 17.94L29.05 17.93L28.91 17.78Q27.46 16.79 23.24 16.60L23.35 16.72L23.27 16.63Q16.73 16.46 12.74 13.56L12.72 13.55L12.67 13.50Q15.95 20.51 16.26 28.05L16.26 28.05L16.12 27.91Q16.59 35.88 13.77 42.81L13.71 42.75L15.82 41.85L15.80 41.83Q15.41 42.96 14.92 44.11L14.88 44.07L14.86 44.05Q19.19 42.21 24.21 42.21L24.34 42.33L24.22 42.22Q25.62 42.21 27.07 42.36ZM25.07 31.95L24.99 31.87L25.06 31.94Q25.72 31.80 26.63 32.26L26.68 32.31L26.57 32.19Q26.62 32.48 26.78 33.54L26.82 33.59L26.88 33.64Q27.09 35.03 26.15 36.08L26.10 36.02L26.20 36.13Q25.15 37.06 23.74 36.94L23.75 36.95L22.22 37.02L22.24 37.04Q21.52 37.11 20.79 37.23L20.77 37.20L20.76 37.19Q21.07 35.37 21.14 31.91L21.22 31.99L21.23 31.99Q21.93 31.97 23.19 31.93L23.10 31.84L23.06 31.81Q24.37 31.82 24.98 31.86ZM23.94 22.26L23.86 22.17L24.25 22.19L24.35 22.29Q24.53 22.23 24.72 22.27L24.71 22.27L25.05 22.22L25.52 22.50L26.04 22.49L26.08 22.53Q26.15 22.76 26.15 23.06L26.18 23.09L26.24 23.68L26.11 23.55Q26.13 24.82 25.25 25.75L25.32 25.83L25.37 25.88Q24.38 26.69 23.16 26.69L23.28 26.81L23.18 26.71Q22.24 26.80 22.24 26.80L22.08 26.64L22.07 26.63Q20.84 26.69 21.18 26.69L21.08 26.60L21.23 26.74Q21.05 25.08 20.75 22.03L20.80 22.08L20.80 22.08Q22.46 22.29 23.98 22.29Z"/><path fill="#444" d="M120.44 40.99L120.36 40.91L120.47 41.02Q116.23 29.70 111.09 24.71L111.08 24.70L111.09 24.71Q112.61 25.40 115.58 26.04L115.50 25.96L115.49 25.96Q119.10 29.94 121.65 36.60L121.67 36.62L121.75 36.70Q124.26 29.20 126.89 26.15L126.86 26.13L126.97 26.24Q128.88 26.06 131.32 25.37L131.34 25.40L131.30 25.35Q128.19 28.15 126.02 32.71L125.93 32.62L126.06 32.75Q125.68 33.40 122.29 41.02L122.17 40.90L122.28 41.01Q121.56 40.97 120.35 40.90ZM125.04 43.38L125.18 43.52L125.08 43.42Q128.40 31.10 132.97 26.42L133.00 26.44L131.52 26.94L131.55 26.97Q130.74 27.20 129.91 27.31L129.89 27.29L129.91 27.31Q130.28 26.81 131.10 25.93L131.07 25.90L131.15 25.98Q132.05 25.19 132.51 24.77L132.45 24.71L132.49 24.76Q130.22 25.34 126.80 25.84L126.77 25.81L126.86 25.90Q124.17 29.11 122.12 34.71L122.11 34.70L121.97 34.56Q120.37 30.41 118.54 27.94L118.56 27.96L118.05 27.98L118.06 27.99Q117.78 27.98 117.56 27.98L117.48 27.90L117.44 27.87Q117.41 27.72 115.70 25.67L115.51 25.48L115.53 25.49Q112.29 25.11 110.04 23.97L110.07 23.99L110.04 23.96Q116.09 29.60 120.09 41.33L120.16 41.40L121.13 41.37L121.03 41.27Q121.44 41.99 122.28 43.28L122.37 43.38L123.77 43.41L123.61 43.25Q124.46 43.37 125.11 43.45Z"/><path fill="#333" d="M42.58 33.03L42.45 32.91L42.59 33.05Q45.54 32.54 48.74 32.65L48.74 32.64L48.70 32.61Q48.65 30.04 48.65 27.65L48.80 27.79L48.64 27.64Q48.79 25.31 48.98 22.76L48.97 22.75L48.93 22.71Q47.76 24.48 42.55 33.00ZM52.42 40.32L52.44 40.34L52.44 40.34Q50.74 40.02 48.95 39.94L48.91 39.90L49.01 40.00Q48.73 37.55 48.62 35.08L48.56 35.02L48.73 35.19Q43.21 34.81 38.49 36.22L38.52 36.25L38.63 36.36Q38.64 35.76 38.83 34.77L38.97 34.91L38.97 34.91Q40.69 31.68 44.27 25.40L44.21 25.34L44.17 25.30Q47.07 20.44 50.50 16.55L50.60 16.65L50.64 16.69Q51.39 16.38 53.07 16.12L53.21 16.26L53.05 16.09Q51.31 22.70 51.31 29.74L51.14 29.57L51.27 29.69Q51.26 31.17 51.34 32.66L51.32 32.64L52.63 32.77L52.51 32.65Q53.13 32.70 53.74 32.82L53.82 32.90L53.84 32.91Q53.92 33.87 54.18 35.81L54.20 35.83L54.18 35.80Q52.98 35.56 51.50 35.37L51.50 35.37L51.39 35.26Q51.68 37.34 52.37 40.27ZM54.09 32.51L54.03 32.46L54.11 32.54Q53.81 32.35 53.62 32.35L53.75 32.48L53.37 32.48L53.28 32.39Q53.14 30.88 53.14 29.47L53.13 29.46L53.11 29.45Q53.18 23.12 55.24 17.10L55.16 17.03L55.20 17.07Q54.55 17.45 53.11 17.83L53.14 17.86L53.10 17.83Q53.34 17.07 53.80 15.66L53.65 15.51L53.80 15.67Q52.48 16.02 50.42 16.25L50.44 16.27L50.39 16.21Q46.54 20.63 41.32 29.99L41.23 29.90L43.39 26.31L43.27 26.19Q43.00 27.36 42.73 27.93L42.74 27.94L38.10 36.78L38.19 36.87Q38.94 36.82 40.09 36.44L39.90 36.26L39.76 36.50L39.87 36.61Q39.74 37.28 39.44 38.53L39.33 38.43L39.42 38.52Q43.61 37.26 48.44 37.45L48.33 37.34L48.26 37.27Q48.41 38.34 48.60 40.32L48.63 40.34L48.65 40.36Q49.75 40.40 50.81 40.51L50.80 40.49L50.73 40.43Q50.80 41.03 51.07 42.40L51.04 42.38L51.21 42.55Q53.09 42.75 56.10 43.66L56.00 43.57L56.00 43.57Q55.05 41.47 54.14 38.20L54.18 38.24L55.59 38.66L55.67 38.75Q56.26 38.88 56.95 39.22L57.04 39.31L57.06 39.33Q56.18 36.74 56.03 35.06L56.02 35.06L56.10 35.13Q55.47 34.92 54.33 34.70L54.24 34.60L54.23 34.60Q54.13 33.44 54.13 32.56ZM45.99 32.26L46.16 32.43L46.07 32.34Q46.90 31.11 48.46 28.56L48.38 28.48L48.42 28.52Q48.46 29.51 48.42 30.46L48.40 30.44L48.41 30.45Q48.37 31.41 48.41 32.36L48.47 32.42L48.35 32.30Q47.73 32.21 47.16 32.21L47.20 32.25L47.17 32.23Q46.76 32.42 46.15 32.42Z"/><path fill="#333" d="M70.33 28.67L70.21 28.55L70.28 28.63Q67.36 28.53 66.60 30.78L66.65 30.82L66.59 30.76Q66.55 31.67 66.43 32.32L66.43 32.32L66.25 32.14Q68.99 32.48 70.63 32.48L70.49 32.34L70.61 32.46Q72.29 32.51 74.88 32.39L74.90 32.41L74.86 32.37Q74.77 30.68 73.36 29.62L73.26 29.51L73.34 29.60Q72.00 28.56 70.21 28.56ZM70.36 41.19L70.36 41.20L70.32 41.16Q66.22 41.28 64.92 39.87L64.74 39.68L64.79 39.73Q63.89 38.34 63.74 35.07L63.71 35.04L63.75 35.08Q63.70 34.81 63.63 33.43L63.60 33.41L63.57 33.37Q63.49 31.12 63.49 30.40L63.50 30.41L63.44 30.35Q63.50 28.55 64.23 27.45L64.21 27.43L64.31 27.53Q65.54 25.95 68.51 25.95L68.60 26.03L70.08 25.96L70.08 25.95Q72.12 25.93 73.64 26.24L73.72 26.32L73.76 26.36Q75.74 26.74 76.73 27.96L76.69 27.92L76.77 28.00Q77.46 29.15 77.54 31.24L77.49 31.19L77.41 31.11Q77.48 32.33 77.52 34.50L77.45 34.43L77.44 34.42Q74.56 34.43 71.78 34.43L71.90 34.55L66.36 34.60L66.30 34.55Q66.49 39.00 70.57 38.78L70.57 38.77L70.57 38.77Q74.35 38.60 75.57 36.77L75.54 36.74L75.57 36.77Q76.37 37.23 77.97 38.41L77.88 38.32L77.94 38.38Q76.60 40.81 72.45 41.08L72.50 41.12L72.51 41.13Q71.72 41.10 70.35 41.18ZM72.63 43.51L72.71 43.58L72.69 43.56Q73.64 43.37 74.85 43.44L75.04 43.63L75.03 43.62Q79.96 43.75 80.87 40.97L80.85 40.95L80.92 41.01Q79.35 39.83 78.25 39.07L78.11 38.93L78.14 38.96Q78.22 38.47 78.41 38.24L78.41 38.24L78.40 38.23Q77.74 37.83 76.36 36.88L76.48 36.99L76.37 36.89Q77.49 36.98 79.55 37.29L79.42 37.16L79.51 37.25Q79.39 35.94 79.31 35.26L79.34 35.29L79.10 33.26L79.11 33.27Q78.96 30.91 78.31 29.43L78.42 29.53L78.26 29.37Q78.08 29.12 77.51 28.51L77.58 28.58L77.41 28.41Q77.42 28.27 77.19 27.70L77.17 27.68L77.19 27.70Q75.24 25.59 70.18 25.59L70.06 25.47L68.44 25.53L68.57 25.66Q65.31 25.64 63.86 27.12L63.80 27.06L63.71 26.97Q63.05 28.09 63.08 30.15L63.11 30.18L63.24 30.30Q63.26 31.23 63.37 33.48L63.31 33.42L63.28 33.40Q63.47 35.10 63.58 37.16L63.47 37.05L63.51 37.08Q63.83 39.39 64.71 40.45L64.61 40.36L64.73 40.48Q64.85 40.59 65.04 40.70L64.95 40.62L65.32 41.33L65.28 41.29Q66.12 43.20 72.71 43.58ZM70.58 38.37L70.62 38.41L70.49 38.28Q69.30 38.34 68.38 37.88L68.35 37.86L68.38 37.89Q68.47 37.63 68.28 36.94L68.22 36.89L68.24 36.91Q69.87 36.75 71.47 36.75L71.51 36.78L71.52 36.80Q73.13 36.73 74.80 36.84L74.82 36.86L74.80 36.84Q73.57 38.24 70.56 38.35ZM72.15 30.96L72.17 30.97L72.21 31.02Q72.83 31.03 74.17 31.41L74.10 31.34L74.39 31.82L74.28 31.91L74.33 31.95Q73.03 32.14 72.12 32.10L71.97 31.96L71.97 31.95Q69.74 31.97 69.70 31.97L69.65 31.92L69.82 32.09Q70.45 31.04 72.12 30.93Z"/><path fill="#222" d="M95.90 40.20L95.96 40.27L93.51 33.36L93.52 33.36Q89.11 20.74 83.17 14.34L83.16 14.33L83.15 14.32Q85.12 15.34 87.71 15.94L87.83 16.06L87.83 16.07Q92.96 22.34 97.30 35.10L97.21 35.00L97.28 35.07Q100.40 27.03 101.08 25.44L100.93 25.28L100.97 25.33Q103.40 19.76 106.22 16.45L106.20 16.43L106.15 16.38Q108.23 16.02 110.86 15.15L110.90 15.19L110.95 15.24Q106.29 19.76 103.24 26.99L103.33 27.07L103.31 27.05Q101.77 30.58 98.08 40.10L98.12 40.14L98.13 40.15Q97.62 40.21 97.05 40.18L97.07 40.20L97.01 40.13Q96.50 40.20 95.93 40.23ZM100.87 42.58L100.89 42.61L101.01 42.72Q103.67 32.59 105.23 28.56L105.30 28.62L105.24 28.57Q108.32 20.95 112.74 16.08L112.76 16.10L112.72 16.06Q111.59 16.34 109.50 17.06L109.54 17.10L110.70 15.79L110.68 15.77Q111.23 15.07 111.84 14.42L111.87 14.45L111.91 14.49Q109.00 15.38 105.99 15.95L106.00 15.96L106.06 16.03Q101.73 21.41 97.85 32.86L97.80 32.81L97.85 32.86Q94.08 22.62 90.88 18.24L91.00 18.36L90.89 18.25Q90.47 18.14 89.59 17.98L89.67 18.06L89.74 18.13Q89.39 17.63 87.79 15.57L87.83 15.61L87.92 15.70Q84.87 14.90 82.17 13.49L82.25 13.57L82.24 13.56Q88.86 20.64 93.24 33.43L93.15 33.34L93.15 33.34Q94.36 36.98 95.54 40.56L95.66 40.68L95.62 40.64Q95.93 40.66 96.77 40.54L96.78 40.54L96.83 40.59Q97.18 41.29 97.87 42.63L97.91 42.67L97.91 42.67Q98.69 42.54 99.42 42.61L99.48 42.68L99.37 42.57Q100.17 42.64 100.93 42.64Z"/></svg>