<svg xmlns="http://www.w3.org/2000/svg" width="150" height="50" viewBox="0,0,150,50"><path fill="#333" d="M75.39 30.90L75.31 30.82L75.43 30.94Q75.54 29.53 74.73 28.62L74.64 28.53L74.63 28.53Q73.76 27.55 72.31 27.59L72.35 27.63L72.35 27.64Q70.13 27.81 69.29 29.94L69.18 29.83L69.22 29.87Q68.87 30.59 68.83 31.27L69.01 31.45L68.86 31.30Q68.76 36.26 67.85 40.60L67.83 40.58L67.70 40.45Q66.06 41.02 64.19 42.01L64.33 42.15L64.23 42.05Q66.45 35.02 66.18 27.71L66.20 27.72L66.29 27.82Q65.88 20.33 63.33 13.51L63.48 13.66L63.47 13.65Q65.10 14.83 67.12 15.51L67.21 15.60L67.22 15.61Q68.75 21.48 68.94 27.34L68.76 27.17L68.76 27.17Q70.27 25.21 72.97 25.29L73.00 25.32L73.04 25.36Q78.06 25.38 78.17 30.75L78.15 30.73L78.06 30.64Q78.25 36.39 79.62 41.04L79.61 41.02L79.59 41.01Q77.83 40.27 76.08 40.08L76.12 40.13L76.05 40.05Q75.60 36.86 75.49 31.00ZM75.74 40.39L75.71 40.35L75.65 40.30Q76.78 40.52 77.89 40.78L77.82 40.72L77.93 40.83Q77.87 40.88 78.41 42.86L78.50 42.96L78.38 42.83Q81.33 43.77 83.34 45.21L83.39 45.26L83.36 45.23Q80.71 39.50 80.18 33.18L80.15 33.15L80.10 33.10Q79.94 29.55 78.53 27.99L78.52 27.98L78.45 27.91Q78.34 27.72 77.69 27.26L77.84 27.42L77.72 27.29Q77.60 26.91 76.95 26.14L76.87 26.06L76.92 26.04L76.90 26.01Q76.11 25.22 72.98 24.96L72.89 24.86L72.93 24.90Q72.20 24.90 70.80 25.24L70.87 25.31L70.83 25.27Q70.60 20.40 70.25 17.88L70.35 17.98L70.30 17.93Q69.42 17.70 67.93 17.39L68.09 17.54L67.99 17.44Q67.87 16.76 67.61 15.28L67.61 15.28L67.59 15.26Q64.64 14.29 62.77 12.73L62.74 12.69L62.70 12.65Q65.69 19.83 65.95 27.63L66.00 27.68L66.03 27.71Q66.32 35.49 63.77 42.84L63.80 42.87L63.80 42.88Q64.67 42.22 65.81 41.73L65.81 41.73L65.00 43.92L65.08 44.01Q68.11 42.58 70.09 42.39L70.17 42.47L70.15 42.45Q70.64 36.96 70.83 33.00L70.91 33.08L70.80 32.97Q71.06 31.29 73.00 30.19L73.05 30.24L73.01 30.19Q73.55 29.97 74.08 30.01L73.91 29.84L73.98 29.91Q74.08 29.86 74.42 29.90L74.52 29.99L74.89 30.02L74.97 30.10Q74.96 30.47 75.07 30.92L74.97 30.82L75.10 30.95Q75.22 36.94 75.72 40.37Z"/><path fill="#222" d="M120.65 19.69L120.60 19.64L120.72 19.76Q118.64 19.78 117.69 19.93L117.68 19.92L117.74 19.98Q116.01 20.11 114.79 20.65L114.88 20.73L114.81 20.67Q111.35 22.15 111.24 26.84L111.33 26.93L111.19 26.79Q111.17 29.51 111.81 32.44L111.88 32.51L111.89 32.52Q112.66 36.45 116.28 37.63L116.24 37.58L116.31 37.66Q118.25 38.26 119.69 38.11L119.65 38.07L120.03 38.00L120.01 37.97Q120.31 38.07 120.50 38.11L120.50 38.12L120.47 38.08Q120.67 38.14 120.82 38.10L120.81 38.09L120.81 38.08Q123.29 37.67 124.66 37.10L124.82 37.26L121.08 33.56L121.09 33.56Q121.52 33.35 122.12 32.74L122.16 32.77L123.05 31.83L123.12 31.90Q124.82 33.83 126.80 35.89L126.74 35.83L126.80 35.89Q129.20 34.14 129.47 28.77L129.38 28.69L129.35 28.65Q129.51 27.83 129.51 26.92L129.42 26.82L129.49 26.90Q129.57 21.30 124.51 20.20L124.39 20.08L124.36 20.05Q123.23 19.91 120.71 19.75ZM133.40 41.73L133.38 41.71L133.33 41.65Q132.79 42.15 131.61 43.02L131.57 42.99L127.16 39.29L127.20 39.34Q124.74 40.57 120.48 40.61L120.53 40.66L120.50 40.63Q113.95 40.75 111.14 38.50L111.12 38.48L111.17 38.53Q109.38 36.75 108.92 33.78L108.79 33.64L108.85 33.70Q108.76 32.01 108.38 28.43L108.27 28.32L108.26 28.32Q108.36 27.69 108.24 25.93L108.19 25.88L108.23 25.92Q107.97 24.26 108.01 23.38L108.12 23.49L108.11 23.48Q108.27 20.48 110.02 18.92L109.95 18.85L109.86 18.76Q111.44 17.48 114.63 16.99L114.60 16.95L114.75 17.10Q117.11 16.60 120.00 16.68L120.04 16.72L119.98 16.66Q127.62 16.91 130.74 19.27L130.68 19.21L130.71 19.24Q132.89 21.38 132.62 26.29L132.59 26.27L132.48 26.16Q132.38 29.89 132.19 31.23L132.20 31.24L132.24 31.28Q131.47 35.65 129.15 37.98L129.27 38.09L129.11 37.93Q130.72 39.31 133.46 41.79ZM128.62 17.54L128.51 17.43L128.61 17.52Q126.45 16.66 119.94 16.16L120.11 16.34L119.99 16.21Q118.61 16.25 115.83 16.36L115.78 16.31L115.83 16.35Q111.68 16.66 109.44 18.64L109.45 18.66L109.46 18.66Q107.75 20.08 107.75 23.24L107.72 23.21L107.67 23.16Q107.71 24.03 107.86 25.74L107.81 25.69L107.86 25.75Q107.93 27.37 107.93 28.25L108.02 28.34L107.98 28.30Q108.11 30.03 108.49 33.61L108.61 33.72L108.57 33.69Q109.00 36.63 110.60 38.69L110.60 38.69L110.55 38.63Q110.89 39.47 112.11 40.61L112.06 40.57L111.98 40.49Q114.75 42.54 119.93 42.80L120.07 42.95L120.01 42.88Q120.37 42.90 122.77 43.01L122.73 42.97L122.73 42.97Q127.53 43.13 129.82 42.07L129.84 42.09L129.83 42.08Q130.70 42.76 135.42 46.33L135.33 46.25L135.36 46.28Q136.01 45.79 137.31 44.80L137.24 44.73L137.33 44.82Q136.34 44.02 135.54 43.34L135.62 43.42L134.00 41.99L134.06 41.89L134.03 41.86Q133.46 41.41 132.24 40.38L132.32 40.46L132.26 40.40Q134.16 37.88 134.16 33.35L134.09 33.28L134.14 33.33Q134.09 32.86 134.13 32.02L134.19 32.09L134.28 32.18Q134.27 31.30 134.27 30.88L134.30 30.90L134.19 30.79Q134.17 25.25 133.45 22.89L133.51 22.95L133.57 23.01Q133.08 21.61 132.20 20.55L132.29 20.63L132.18 20.52Q131.51 18.52 128.58 17.49ZM122.63 22.12L122.53 22.03L122.44 21.94Q126.65 21.99 128.47 23.59L128.52 23.64L128.35 23.47Q129.05 24.82 129.16 26.15L129.07 26.06L129.14 26.13Q129.26 27.42 129.18 28.79L129.15 28.76L129.15 28.76Q128.86 33.77 126.92 35.48L126.86 35.42L126.79 35.34Q125.45 34.01 122.94 31.27L123.01 31.34L123.03 31.36Q122.21 32.06 120.65 33.62L120.77 33.74L120.75 33.72Q121.17 34.19 122.32 35.37L122.38 35.43L122.40 35.56L122.22 35.39Q122.84 35.96 123.86 37.03L123.94 37.10L123.94 37.10Q122.97 37.39 120.65 37.70L120.52 37.57L120.12 37.70L119.59 37.59L119.74 37.77L119.56 37.60Q116.24 37.74 114.26 36.10L114.18 36.03L114.22 36.07Q113.22 34.00 113.26 30.87L113.29 30.91L113.21 30.83Q113.43 22.18 122.60 22.10Z"/><path fill="#111" d="M89.99 49.64L90.00 49.65L89.97 49.61Q92.89 45.76 95.78 39.55L95.77 39.54L95.75 39.52Q92.70 33.05 86.61 24.98L86.47 24.84L86.59 24.95Q88.39 25.99 91.17 26.64L91.15 26.62L91.18 26.65Q94.79 31.41 97.23 36.62L97.15 36.54L97.15 36.54Q99.32 31.25 102.41 26.84L102.57 27.00L102.44 26.87Q104.64 26.52 106.73 25.72L106.75 25.74L106.72 25.71Q103.40 29.62 99.93 37.04L99.93 37.04L96.98 42.92L97.03 42.97Q95.52 46.03 93.77 48.66L93.96 48.84L93.85 48.73Q91.34 49.01 89.90 49.54ZM96.16 50.96L96.20 51.01L96.21 51.02Q97.85 48.05 99.30 44.78L99.29 44.77L102.10 38.52L102.14 38.56Q105.53 30.41 108.84 26.42L108.91 26.49L108.96 26.54Q107.52 27.11 105.62 27.80L105.61 27.80L106.73 26.47L106.69 26.43Q107.10 25.60 107.71 24.91L107.90 25.10L107.72 24.92Q105.15 26.08 102.30 26.54L102.35 26.59L102.34 26.58Q99.48 30.38 97.54 34.84L97.68 34.98L97.58 34.87Q95.87 31.49 94.08 28.68L94.17 28.77L94.27 28.86Q93.90 28.69 93.54 28.65L93.61 28.72L93.63 28.74Q93.30 28.73 93.11 28.73L93.10 28.72L93.02 28.64Q92.25 27.37 91.29 26.23L91.40 26.33L91.36 26.29Q88.14 25.59 85.40 23.87L85.48 23.96L85.54 24.02Q91.71 31.94 95.41 39.56L95.48 39.63L95.40 39.55Q93.25 44.63 89.18 50.27L89.19 50.28L89.20 50.30Q90.04 50.02 90.84 49.87L90.77 49.80L92.32 49.37L92.45 49.50Q91.74 50.12 90.56 51.76L90.62 51.82L90.51 51.71Q92.89 51.20 96.16 50.97Z"/><path fill="#222" d="M21.90 19.61L21.90 19.60L22.05 19.76Q20.00 19.80 19.05 19.96L19.00 19.90L19.11 20.02Q17.42 20.19 16.20 20.72L16.18 20.70L16.09 20.61Q12.69 22.16 12.58 26.84L12.62 26.88L12.46 26.73Q12.46 29.47 13.11 32.40L13.19 32.48L13.04 32.33Q13.98 36.43 17.59 37.61L17.66 37.67L17.58 37.59Q19.43 38.12 20.88 37.96L20.93 38.01L21.39 38.01L21.36 37.99Q21.55 37.99 21.74 38.02L21.81 38.09L21.68 37.96Q21.85 37.98 22.00 37.94L22.06 38.00L22.00 37.94Q24.67 37.72 26.05 37.15L26.01 37.11L22.58 33.72L22.55 33.69Q22.83 33.33 23.44 32.72L23.53 32.81L24.40 31.86L24.36 31.81Q26.17 33.85 28.15 35.90L28.11 35.87L28.21 35.97Q30.45 34.05 30.71 28.69L30.77 28.74L30.70 28.67Q30.79 27.78 30.79 26.86L30.91 26.98L30.78 26.85Q30.78 21.18 25.72 20.08L25.68 20.04L25.69 20.05Q24.52 19.86 22.00 19.71ZM34.80 41.80L34.73 41.72L34.70 41.69Q34.17 42.19 32.99 43.07L33.00 43.08L28.58 39.38L28.45 39.25Q26.09 40.59 21.83 40.63L21.73 40.53L21.83 40.63Q15.27 40.73 12.46 38.49L12.53 38.56L12.40 38.43Q10.66 36.69 10.20 33.72L10.26 33.78L10.19 33.71Q9.92 31.83 9.53 28.26L9.64 28.36L9.53 28.26Q9.57 27.56 9.45 25.81L9.56 25.92L9.46 25.82Q9.42 24.37 9.46 23.49L9.49 23.52L9.46 23.49Q9.46 20.34 11.21 18.77L11.29 18.86L11.36 18.92Q12.78 17.49 15.98 17.00L16.02 17.03L15.94 16.96Q18.56 16.72 21.45 16.80L21.29 16.63L21.36 16.71Q28.89 16.86 32.02 19.22L31.88 19.08L32.04 19.24Q34.07 21.23 33.81 26.14L33.80 26.14L33.87 26.21Q33.71 29.89 33.52 31.23L33.53 31.24L33.54 31.25Q32.94 35.79 30.62 38.11L30.47 37.96L30.54 38.04Q31.98 39.24 34.72 41.71ZM29.94 17.52L29.93 17.51L29.95 17.53Q27.77 16.65 21.26 16.15L21.42 16.31L21.42 16.31Q19.98 16.28 17.20 16.39L17.13 16.32L17.29 16.48Q12.97 16.61 10.72 18.59L10.64 18.52L10.82 18.69Q9.16 20.15 9.16 23.31L9.13 23.28L9.00 23.15Q9.12 24.11 9.27 25.82L9.19 25.75L9.12 25.67Q9.39 27.50 9.39 28.38L9.31 28.30L9.40 28.39Q9.42 30.01 9.80 33.59L9.87 33.65L9.98 33.76Q10.34 36.63 11.94 38.69L11.86 38.61L11.91 38.67Q12.23 39.48 13.45 40.62L13.45 40.62L13.41 40.58Q16.10 42.55 21.28 42.82L21.35 42.89L21.34 42.87Q21.72 42.92 24.12 43.03L24.00 42.91L24.05 42.96Q28.83 43.09 31.11 42.03L31.20 42.11L31.05 41.97Q32.02 42.75 36.74 46.33L36.79 46.37L36.70 46.28Q37.25 45.69 38.54 44.70L38.57 44.73L38.66 44.82Q37.72 44.06 36.92 43.38L36.93 43.39L35.26 41.91L35.49 41.99L35.37 41.87Q34.79 41.41 33.57 40.38L33.70 40.51L33.60 40.40Q35.52 37.91 35.52 33.38L35.47 33.33L35.44 33.30Q35.46 32.90 35.50 32.06L35.47 32.04L35.55 32.11Q35.60 31.29 35.60 30.87L35.51 30.78L35.49 30.76Q35.51 25.26 34.79 22.90L34.86 22.98L34.88 22.99Q34.56 21.76 33.68 20.69L33.69 20.70L33.70 20.71Q32.76 18.44 29.83 17.41ZM23.93 22.09L23.79 21.95L23.87 22.03Q27.97 21.98 29.79 23.58L29.82 23.60L29.78 23.57Q30.35 24.79 30.47 26.12L30.42 26.07L30.52 26.17Q30.58 27.42 30.51 28.79L30.37 28.65L30.49 28.77Q30.03 33.60 28.09 35.31L28.17 35.39L28.07 35.30Q26.92 34.14 24.41 31.40L24.28 31.27L24.44 31.43Q23.57 32.09 22.01 33.65L21.99 33.63L21.93 33.57Q22.50 34.18 23.64 35.36L23.79 35.50L23.64 35.47L23.67 35.50Q24.13 35.93 25.16 36.99L25.25 37.08L25.15 36.98Q24.18 37.27 21.86 37.57L21.83 37.54L21.36 37.61L21.02 37.68L21.07 37.77L20.96 37.67Q17.42 37.58 15.44 35.95L15.47 35.98L15.50 36.01Q14.43 33.88 14.47 30.76L14.51 30.79L14.57 30.85Q14.70 22.11 23.87 22.04Z"/><path fill="#222" d="M38.33 39.04L38.22 38.94L38.34 39.06Q40.18 36.63 44.94 29.36L44.81 29.23L44.79 29.21Q48.95 23.14 51.81 19.86L51.76 19.81L51.75 19.80Q49.71 20.17 47.62 20.17L47.51 20.05L47.54 20.09Q42.38 20.18 38.38 18.39L38.32 18.32L38.33 18.34Q37.67 16.42 36.99 14.86L37.05 14.93L37.02 14.90Q41.50 16.98 47.17 17.09L47.13 17.04L47.25 17.17Q52.40 17.25 57.57 15.35L57.59 15.36L57.61 15.38Q57.10 16.09 56.79 16.89L56.78 16.88L56.24 18.51L56.26 18.53Q53.20 22.16 49.20 27.99L49.21 28.00L45.97 32.90L45.81 32.75Q44.16 35.21 42.33 37.49L42.28 37.44L42.27 37.43Q45.76 36.99 49.07 37.07L48.90 36.90L49.00 37.00Q52.40 37.17 55.56 38.08L55.57 38.09L55.93 39.55L55.97 39.59Q56.13 40.32 56.47 41.16L56.49 41.18L56.63 41.32Q51.82 39.59 46.68 39.78L46.79 39.89L46.83 39.93Q41.71 40.14 37.22 42.16L37.07 42.02L37.23 42.17Q37.62 41.11 38.34 39.06ZM36.63 42.87L36.47 42.70L36.57 42.80Q37.70 42.10 38.50 41.84L38.54 41.88L38.59 41.93Q38.39 42.76 37.70 44.28L37.55 44.13L37.62 44.20Q43.36 42.10 49.34 42.32L49.38 42.37L49.30 42.29Q55.68 42.58 60.70 45.35L60.57 45.22L60.71 45.37Q59.26 42.92 58.46 40.75L58.43 40.72L58.42 40.71Q57.95 40.50 56.42 39.93L56.48 39.99L56.44 39.95Q56.31 39.25 55.90 37.77L55.78 37.66L55.84 37.71Q51.70 36.54 46.59 36.73L46.55 36.68L46.46 36.59Q48.68 33.94 52.22 28.38L52.28 28.44L52.29 28.45Q55.91 22.71 57.82 20.16L57.85 20.19L57.71 20.06Q58.26 18.70 59.29 16.00L59.26 15.96L59.26 15.96Q58.55 16.28 57.10 16.89L57.13 16.93L57.16 16.96Q57.44 16.09 58.16 14.57L58.21 14.61L58.24 14.65Q52.91 16.78 47.20 16.70L47.10 16.60L47.13 16.63Q41.19 16.55 36.24 14.04L36.26 14.05L36.34 14.14Q37.38 16.39 38.10 18.64L38.06 18.60L38.10 18.64Q39.31 19.28 40.11 19.51L40.03 19.43L40.02 19.41Q40.26 20.08 40.53 21.52L40.49 21.49L40.66 21.65Q44.22 22.55 49.09 22.36L49.21 22.48L49.11 22.38Q46.86 25.72 43.54 30.71L43.43 30.59L38.01 39.03L37.87 38.90Q37.50 40.16 36.47 42.71Z"/></svg>