<svg xmlns="http://www.w3.org/2000/svg" width="150" height="50" viewBox="0,0,150,50"><path fill="#111" d="M24.66 39.82L24.72 39.89L24.75 39.92Q22.68 39.75 20.67 39.94L20.68 39.95L20.73 40.01Q21.43 34.80 21.43 29.96L21.30 29.84L21.30 29.83Q21.42 25.05 20.77 19.83L20.71 19.77L20.69 19.74Q16.24 19.48 13.04 17.81L12.99 17.76L12.16 15.90L12.33 16.07Q12.02 15.46 11.41 14.24L11.37 14.19L11.50 14.32Q16.45 16.88 22.47 17.07L22.45 17.05L22.45 17.06Q28.35 17.24 33.79 15.19L33.84 15.23L33.82 15.21Q33.16 16.68 32.51 18.51L32.43 18.43L32.56 18.56Q28.79 19.70 24.53 19.89L24.65 20.01L24.68 20.05Q24.37 24.95 24.37 29.90L24.37 29.90L24.48 30.01Q24.38 34.86 24.68 39.84ZM34.53 14.55L34.54 14.57L34.50 14.53Q28.63 16.76 22.43 16.57L22.56 16.71L22.52 16.67Q15.81 16.43 10.71 13.46L10.66 13.42L10.79 13.54Q11.55 14.83 12.84 18.10L12.68 17.94L12.68 17.94Q13.48 18.40 14.74 18.97L14.59 18.82L14.62 18.86Q14.88 19.57 15.22 21.09L15.21 21.08L15.30 21.17Q17.61 22.03 20.65 22.26L20.51 22.12L20.51 22.12Q20.94 25.86 20.94 29.63L20.97 29.66L21.05 29.74Q20.97 35.02 20.17 40.39L20.11 40.33L20.22 40.45Q21.93 40.36 22.46 40.36L22.33 40.23L22.42 40.32Q22.33 40.54 22.27 41.20L22.41 41.34L22.42 41.35Q22.37 42.02 22.37 42.36L22.35 42.34L22.30 42.30Q23.55 42.29 25.08 42.37L25.05 42.34L25.05 42.34Q25.90 42.31 27.72 42.47L27.66 42.40L27.71 42.45Q26.54 37.59 26.43 32.42L26.39 32.38L26.39 32.38Q26.16 26.97 26.69 22.06L26.87 22.24L26.81 22.17Q30.76 21.63 33.92 20.41L33.86 20.36L33.82 20.32Q34.54 17.95 35.56 15.89L35.54 15.87L35.58 15.91Q34.38 16.72 33.58 17.03L33.53 16.98L33.54 16.99Q33.85 15.59 34.42 14.45Z"/><path fill="#333" d="M64.33 41.04L64.46 41.18L64.46 41.17Q67.57 36.86 74.27 28.94L74.33 29.01L74.24 28.91Q68.35 29.15 64.58 27.78L64.65 27.85L64.67 27.87Q63.94 26.38 63.18 24.97L63.08 24.88L63.05 24.85Q67.26 26.47 71.72 26.51L71.65 26.43L71.76 26.55Q76.13 26.50 80.32 25.44L80.32 25.43L80.26 25.38Q80.01 26.19 79.74 26.73L79.65 26.63L79.61 26.59Q77.04 28.78 74.22 32.40L74.31 32.49L69.32 38.61L69.51 38.80Q71.62 38.48 73.87 38.55L73.91 38.59L73.92 38.61Q76.10 38.66 78.35 39.04L78.25 38.93L78.37 39.06Q78.51 39.65 79.23 41.67L79.16 41.60L79.21 41.65Q75.53 40.86 71.53 40.98L71.54 40.99L71.40 40.85Q67.53 41.05 63.88 42.23L63.92 42.28L63.88 42.23Q63.86 41.99 64.32 41.03ZM63.30 42.84L63.22 42.75L63.36 42.89Q63.98 42.41 65.58 41.99L65.61 42.02L65.72 42.14Q65.49 42.36 65.07 42.78L64.94 42.65L65.02 42.72Q64.78 43.28 64.17 44.43L64.22 44.47L64.08 44.33Q68.93 43.13 73.92 43.29L73.86 43.23L73.84 43.21Q78.88 43.45 83.45 45.32L83.38 45.24L83.32 45.19Q81.98 43.43 81.07 41.37L81.12 41.43L81.01 41.32Q80.34 41.11 79.28 40.88L79.15 40.75L79.23 40.83Q79.05 40.12 78.67 38.68L78.64 38.64L78.66 38.67Q77.04 38.26 73.46 38.15L73.56 38.25L73.46 38.14Q75.96 34.93 80.98 28.58L81.01 28.60L80.95 28.55Q81.23 27.83 81.92 26.50L81.87 26.46L79.58 27.21L79.61 27.24Q79.72 27.19 79.87 27.08L79.81 27.03L80.08 26.91L80.06 26.89Q80.46 25.77 81.03 24.81L81.03 24.82L81.09 24.88Q76.44 26.24 71.72 26.16L71.59 26.03L71.66 26.10Q66.90 26.06 62.40 24.23L62.45 24.28L62.45 24.28Q63.56 26.08 64.36 28.13L64.40 28.17L64.26 28.03Q65.11 28.35 66.17 28.61L66.28 28.72L66.16 28.60Q66.53 29.46 66.83 30.91L66.81 30.89L66.67 30.75Q68.28 31.03 71.59 31.18L71.60 31.19L71.70 31.29Q69.32 34.62 64.15 41.05L64.02 40.93L64.12 41.03Q63.88 41.62 63.31 42.84Z"/><path fill="#222" d="M89.61 47.08L89.51 46.99L89.59 47.06Q88.68 47.30 86.78 47.60L86.66 47.49L86.72 47.55Q88.12 45.48 89.15 44.19L89.14 44.18L88.99 44.03Q90.81 44.40 90.96 44.40L91.02 44.46L90.97 44.41Q91.19 44.40 91.72 44.29L91.83 44.40L91.85 44.42Q92.50 44.30 92.69 44.30L92.74 44.36L92.65 44.27Q95.16 43.95 95.08 41.78L95.20 41.91L95.21 41.91Q95.05 40.30 94.93 34.06L95.02 34.14L95.00 34.12Q94.89 30.52 94.97 26.37L95.01 26.41L96.41 26.21L96.40 26.19Q97.15 26.18 97.83 25.96L97.80 25.92L97.71 25.83Q97.58 30.35 97.62 34.73L97.51 34.62L97.68 34.79Q97.61 39.06 98.15 43.44L98.23 43.52L98.19 43.48Q98.18 43.70 98.18 43.96L98.19 43.97L98.31 44.10Q98.19 45.61 96.51 45.99L96.58 46.06L96.56 46.04Q93.47 46.45 89.62 47.10ZM96.37 22.85L94.16 19.65L94.20 19.70Q95.30 18.36 97.13 15.58L97.12 15.57L97.16 15.62Q97.71 16.39 99.04 18.22L99.04 18.21L96.35 22.84ZM99.43 49.52L99.47 49.56L99.37 49.46Q99.88 49.47 100.64 49.13L100.77 49.26L100.78 49.27Q101.08 48.54 101.08 48.09L101.03 48.03L100.98 47.99Q100.93 47.59 100.81 46.98L100.83 47.00L100.89 47.06Q99.59 40.69 99.59 32.77L99.51 32.69L99.56 32.74Q99.52 29.85 99.67 26.96L99.60 26.88L99.69 26.98Q99.22 27.23 98.08 27.53L98.01 27.47L98.06 27.51Q97.95 26.91 97.99 26.38L98.13 26.52L98.18 25.39L98.10 25.30Q96.51 26.08 94.72 26.12L94.66 26.06L94.63 26.03Q94.49 30.27 94.53 33.85L94.69 34.01L94.71 41.75L94.73 41.78Q94.86 43.80 92.69 43.92L92.77 44.00L92.69 43.92Q92.50 43.96 91.99 44.02L91.95 43.98L92.01 44.04Q91.41 44.01 91.15 44.01L91.11 43.97L91.17 44.04Q90.70 44.03 89.14 43.61L89.17 43.64L89.04 43.50Q88.74 44.27 87.63 45.95L87.61 45.92L86.00 48.16L85.98 48.13Q86.92 48.01 88.56 47.63L88.46 47.54L88.00 48.25L87.57 49.00L87.57 49.01Q89.77 48.76 91.10 48.84L91.17 48.91L91.20 48.94Q93.43 49.04 99.37 49.46ZM96.32 23.57L96.28 23.53L96.65 23.02L96.60 22.97Q97.07 23.51 98.02 25.11L97.95 25.04L97.95 25.04Q99.48 21.93 101.05 18.85L101.04 18.85L101.20 19.01Q100.08 17.28 99.13 15.98L99.23 16.08L99.25 16.10Q98.91 16.19 98.57 16.72L98.54 16.69L98.71 16.86Q98.12 16.04 97.13 14.74L97.26 14.88L97.21 14.83Q96.05 16.44 93.72 19.79L93.66 19.73L93.67 19.74Q94.64 21.01 96.36 23.60Z"/><path fill="#222" d="M124.69 30.87L124.77 30.94L124.74 30.92Q124.73 29.39 123.91 28.47L123.99 28.55L123.97 28.53Q123.15 27.62 121.70 27.65L121.66 27.61L121.78 27.73Q119.38 27.73 118.54 29.86L118.59 29.91L118.49 29.81Q118.20 30.58 118.16 31.27L118.34 31.45L118.18 31.29Q118.03 36.20 117.12 40.54L117.09 40.52L117.10 40.52Q115.44 41.07 113.57 42.06L113.50 41.98L113.52 42.01Q115.84 35.08 115.58 27.77L115.54 27.73L115.66 27.85Q115.37 20.48 112.82 13.67L112.65 13.50L112.75 13.60Q114.59 14.98 116.61 15.67L116.51 15.57L116.52 15.58Q117.93 21.33 118.12 27.19L118.24 27.32L118.23 27.30Q119.49 25.10 122.19 25.17L122.19 25.17L122.26 25.24Q127.36 25.36 127.48 30.73L127.38 30.63L127.52 30.77Q127.61 36.42 128.98 41.06L128.98 41.05L128.94 41.02Q127.15 40.26 125.40 40.07L125.37 40.04L125.41 40.08Q124.84 36.77 124.72 30.90ZM125.09 40.41L125.06 40.38L124.98 40.30Q126.08 40.48 127.19 40.75L127.13 40.70L127.28 40.84Q127.27 40.95 127.80 42.93L127.84 42.97L127.72 42.85Q130.71 43.82 132.73 45.26L132.66 45.19L132.68 45.21Q130.10 39.55 129.56 33.23L129.47 33.14L129.49 33.16Q129.30 29.57 127.89 28.01L127.78 27.90L127.90 28.02Q127.82 27.87 127.18 27.42L127.15 27.39L127.09 27.33Q126.83 26.81 126.19 26.04L126.21 26.07L126.28 26.06L126.35 26.13Q125.36 25.14 122.24 24.87L122.25 24.89L122.23 24.87Q121.62 24.98 120.21 25.32L120.25 25.36L120.18 25.29Q119.89 20.36 119.55 17.84L119.64 17.94L119.58 17.88Q118.74 17.68 117.25 17.38L117.34 17.47L117.28 17.40Q117.24 16.80 116.97 15.31L116.93 15.27L116.87 15.20Q113.91 14.23 112.05 12.67L112.10 12.72L111.99 12.61Q115.11 19.92 115.38 27.72L115.36 27.71L115.28 27.63Q115.51 35.35 112.96 42.70L112.96 42.70L113.10 42.84Q113.96 42.18 115.10 41.68L115.08 41.67L114.39 43.98L114.41 44.00Q117.42 42.56 119.40 42.37L119.52 42.49L119.43 42.40Q119.95 36.94 120.14 32.98L120.29 33.13L120.30 33.14Q120.36 31.26 122.30 30.16L122.35 30.21L122.23 30.08Q122.75 29.84 123.29 29.88L123.33 29.93L123.40 30.00Q123.39 29.83 123.73 29.87L123.91 30.05L124.21 30.01L124.23 30.02Q124.21 30.39 124.32 30.85L124.43 30.95L124.44 30.96Q124.50 36.89 125.00 40.31Z"/><path fill="#222" d="M49.65 39.92L49.53 39.79L47.59 39.79L47.71 39.92Q46.63 39.79 45.68 39.90L45.69 39.92L45.68 39.90Q46.41 33.85 46.41 29.86L46.39 29.84L46.22 29.68Q42.26 23.01 34.61 14.33L34.77 14.49L34.68 14.40Q36.41 15.33 39.76 16.13L39.75 16.13L39.75 16.13Q44.88 21.78 47.89 27.00L47.96 27.08L47.92 27.04Q50.93 21.48 55.31 16.45L55.39 16.53L55.22 16.36Q57.61 15.94 60.12 15.14L60.20 15.21L60.27 15.29Q54.07 21.23 49.20 29.64L49.37 29.81L49.37 29.81Q49.34 36.83 49.64 39.91ZM58.61 17.20L61.46 14.50L61.38 14.42Q58.20 15.50 55.08 15.96L55.24 16.12L55.20 16.08Q50.88 20.70 48.06 25.81L48.09 25.83L48.12 25.86Q46.03 22.24 42.83 18.36L42.76 18.29L42.71 18.24Q42.55 18.35 42.06 18.28L42.10 18.32L42.05 18.27Q41.26 17.37 39.74 15.69L39.89 15.85L39.85 15.81Q36.42 15.00 33.45 13.44L33.49 13.47L33.40 13.39Q41.22 21.97 45.98 29.89L46.02 29.93L45.94 29.85Q45.90 36.24 45.29 40.39L45.18 40.28L45.23 40.33Q46.02 40.36 47.47 40.25L47.47 40.25L47.40 41.21L47.38 41.19Q47.36 41.62 47.28 42.15L47.34 42.21L47.43 42.30Q50.88 42.21 52.63 42.40L52.65 42.42L52.71 42.48Q51.37 37.71 51.25 31.73L51.29 31.77L51.37 31.85Q55.74 23.39 62.29 16.05L62.28 16.04L58.71 17.30Z"/></svg>