<svg xmlns="http://www.w3.org/2000/svg" width="150" height="50" viewBox="0,0,150,50"><path fill="#222" d="M124.71 29.53L124.74 29.56L124.61 29.44Q123.40 28.65 122.76 28.69L122.92 28.85L122.86 28.79Q121.52 28.90 120.47 29.91L120.32 29.76L120.39 29.82Q119.41 30.90 119.53 32.27L119.44 32.19L119.49 32.23Q119.71 36.49 118.83 41.02L118.94 41.13L118.83 41.02Q116.74 41.60 115.64 42.13L115.52 42.01L115.57 42.06Q117.15 37.97 116.92 33.51L116.81 33.40L116.87 33.46Q116.59 28.92 114.88 24.84L115.01 24.98L114.94 24.91Q116.01 25.52 118.30 26.17L118.44 26.31L118.88 28.89L118.86 28.86Q119.62 26.05 123.89 26.05L123.91 26.07L123.77 25.93Q124.32 26.02 124.62 26.02L124.49 25.89L124.58 25.98Q125.77 25.88 127.03 26.56L127.16 26.69L127.04 26.57Q125.75 27.94 124.60 29.43ZM126.24 31.45L126.29 31.35L126.34 31.39Q127.19 30.19 128.87 27.75L128.90 27.79L128.90 27.79Q128.45 27.45 126.93 27.19L126.85 27.11L126.88 27.14Q127.27 26.88 127.72 26.27L127.77 26.31L127.72 26.26Q125.93 25.46 123.99 25.65L123.94 25.61L123.96 25.63Q121.97 25.77 121.25 26.03L121.16 25.94L121.28 26.07Q119.73 26.35 118.93 27.45L118.96 27.48L118.83 26.70L118.68 25.91L118.60 25.82Q116.32 25.53 114.35 24.20L114.21 24.06L114.37 24.22Q116.43 28.53 116.66 33.41L116.72 33.46L116.65 33.40Q116.89 38.32 115.14 42.85L115.01 42.72L115.10 42.81Q116.08 42.23 116.96 41.92L117.15 42.11L117.08 42.05Q116.88 43.22 116.39 44.28L116.23 44.13L116.26 44.15Q119.14 43.34 121.27 43.23L121.26 43.22L121.52 38.75L121.43 38.66Q121.66 36.53 121.66 34.29L121.62 34.25L121.68 34.31Q121.66 33.11 122.58 32.14L122.53 32.10L122.43 31.99Q123.40 31.08 124.54 31.00L124.54 31.00L124.48 30.95Q125.19 30.89 125.91 31.57L125.92 31.59L126.36 31.56ZM121.35 29.76L121.40 29.73L121.21 29.66L121.35 29.75Z"/><path fill="#333" d="M71.09 19.58L71.24 19.73L69.62 19.78L69.66 19.82Q67.43 19.96 67.20 21.97L67.15 21.92L67.11 21.88Q66.98 22.55 67.02 23.54L67.14 23.66L67.02 23.54Q67.15 25.57 68.41 26.91L68.30 26.80L68.39 26.89Q69.68 28.25 71.58 28.10L71.61 28.13L71.55 28.07Q73.63 27.94 74.39 27.03L74.26 26.90L74.27 26.91Q75.34 25.99 75.60 23.75L75.77 23.92L75.68 23.83Q75.98 21.61 74.72 20.77L74.66 20.71L74.67 20.72Q73.78 19.91 71.12 19.61ZM77.24 28.92L77.11 28.79L75.83 31.09L75.89 31.16Q73.21 35.97 69.44 40.05L69.35 39.95L69.52 40.13Q67.86 40.25 65.16 41.05L65.17 41.06L65.02 40.91Q70.46 34.75 73.62 29.95L73.65 29.98L73.67 30.00Q72.46 30.47 70.83 30.55L70.93 30.65L70.83 30.54Q67.90 30.78 66.38 28.80L66.38 28.81L66.45 28.87Q65.13 27.17 64.02 22.60L64.09 22.66L64.12 22.69Q64.15 22.27 64.00 21.34L63.85 21.19L63.98 21.32Q63.76 20.32 63.76 19.86L63.68 19.78L63.84 19.94Q63.77 18.08 64.83 17.47L64.90 17.53L64.88 17.51Q66.06 16.72 67.93 16.72L67.81 16.60L67.92 16.71Q71.05 16.65 71.05 16.65L71.16 16.76L71.15 16.74Q73.28 16.75 74.54 16.94L74.46 16.86L74.60 16.99Q76.72 17.26 77.64 17.75L77.48 17.59L77.67 17.78Q78.89 18.39 79.08 20.14L79.09 20.15L79.05 20.11Q79.13 20.42 78.94 23.09L78.90 23.05L78.87 23.01Q78.59 25.25 78.36 26.09L78.25 25.98L78.28 26.01Q77.96 27.47 77.19 28.88ZM79.16 31.34L79.01 31.19L79.15 31.33Q80.02 29.00 80.55 24.70L80.59 24.74L80.60 24.75Q80.79 22.47 80.76 21.59L80.82 21.65L80.84 21.68Q80.82 19.83 79.64 18.92L79.60 18.88L79.27 18.73L79.41 18.87Q79.16 18.13 78.25 17.48L78.09 17.32L78.11 17.35Q75.78 16.31 70.98 16.16L71.05 16.23L71.05 16.23Q70.05 16.18 67.62 16.18L67.73 16.30L67.71 16.28Q66.03 16.34 64.54 17.03L64.42 16.90L64.46 16.94Q63.22 17.65 63.30 19.47L63.42 19.60L63.28 19.46Q63.59 20.49 63.78 22.51L63.73 22.46L63.81 22.54Q64.37 25.11 64.64 25.95L64.67 25.98L64.62 25.93Q65.19 27.80 66.14 29.10L66.24 29.19L66.22 29.18Q66.38 29.41 66.76 29.79L66.82 29.85L66.86 29.89Q67.08 30.30 67.73 31.22L67.78 31.26L67.76 31.25Q69.16 32.53 71.10 32.72L71.09 32.71L71.23 32.85Q69.18 35.37 67.62 37.27L67.74 37.39L64.03 41.68L64.09 41.73Q66.32 40.96 67.96 40.62L67.92 40.58L68.02 40.68Q67.24 41.53 65.68 43.25L65.60 43.17L65.65 43.22Q68.68 42.25 71.80 42.21L71.74 42.15L71.78 42.20Q74.10 39.61 78.44 32.37L78.44 32.37L78.44 32.45L78.50 32.51Q78.67 31.69 79.02 31.20ZM73.18 22.12L73.16 22.10L73.01 21.96Q73.64 21.86 74.10 21.98L74.17 22.05L74.23 22.10Q74.89 22.24 75.27 22.35L75.16 22.24L75.13 22.21Q75.27 22.61 75.34 23.03L75.41 23.09L75.32 23.01Q75.36 23.39 75.24 23.77L75.38 23.90L75.41 23.94Q75.38 25.66 74.20 26.76L74.11 26.67L74.19 26.75Q73.12 27.66 71.48 27.62L71.58 27.72L71.56 27.70Q71.20 27.76 69.68 27.46L69.53 27.30L69.52 27.30Q69.31 26.44 69.31 25.71L69.38 25.78L69.27 25.68Q69.22 25.43 69.22 25.20L69.19 25.18L69.26 25.25Q69.19 22.97 71.47 22.17L71.48 22.18L71.65 22.34Q72.28 22.07 73.12 22.07Z"/><path fill="#222" d="M45.31 39.88L45.37 39.94L45.39 39.96Q41.17 39.36 39.35 37.91L39.43 38.00L39.24 37.81Q37.61 36.55 37.19 33.55L37.12 33.48L37.14 33.50Q37.15 33.16 36.80 28.40L36.80 28.40L36.67 28.27Q36.75 27.13 36.68 25.88L36.79 25.99L36.66 25.86Q36.43 20.76 38.64 19.01L38.83 19.19L38.65 19.01Q41.35 16.96 49.12 16.27L49.12 16.27L49.10 16.26Q50.59 16.26 52.23 16.30L52.22 16.29L52.16 16.24Q52.14 16.21 55.10 16.21L55.17 16.27L55.04 16.14Q55.84 16.11 57.55 16.26L57.56 16.27L57.61 16.31Q57.15 17.31 56.13 20.39L56.06 20.32L56.15 20.42Q54.12 19.26 51.11 19.26L51.07 19.22L51.11 19.26Q50.30 19.21 49.50 19.29L49.48 19.27L49.45 19.24Q44.44 19.79 41.93 21.77L41.93 21.77L41.88 21.71Q39.87 23.32 39.72 26.67L39.77 26.73L39.69 26.65Q39.74 27.35 39.78 28.60L39.69 28.51L39.65 28.47Q39.88 33.42 42.28 35.52L42.12 35.35L42.15 35.38Q44.42 37.43 49.41 37.73L49.44 37.76L49.36 37.68Q52.44 37.79 55.44 36.00L55.42 35.98L55.38 35.94Q56.02 38.71 56.62 40.08L56.75 40.20L56.76 40.21Q54.52 40.34 52.89 40.30L52.89 40.31L52.90 40.31Q48.50 40.32 45.38 39.94ZM60.52 43.70L60.54 43.73L60.55 43.74Q58.75 40.72 58.07 38.13L57.93 37.99L57.96 38.02Q57.55 38.30 56.56 38.68L56.65 38.77L56.61 38.73Q56.15 37.82 55.96 36.98L56.04 37.06L55.62 35.30L55.60 35.28Q52.34 37.36 49.22 37.24L49.26 37.28L49.27 37.29Q45.05 37.14 42.73 35.39L42.66 35.33L42.67 35.33Q41.55 33.53 41.62 30.59L41.65 30.62L41.62 30.59Q41.74 26.07 44.21 23.94L44.18 23.90L44.16 23.88Q46.46 22.15 51.15 21.54L51.02 21.41L51.04 21.43Q51.91 21.39 52.64 21.39L52.62 21.38L52.65 21.41Q55.30 21.28 57.39 22.80L57.39 22.79L57.50 22.91Q58.05 20.83 59.27 17.59L59.09 17.41L59.08 17.41Q58.94 17.53 58.38 17.47L58.34 17.43L58.31 17.40Q57.85 17.43 57.59 17.43L57.49 17.34L57.57 17.41Q57.79 16.91 58.24 15.92L58.28 15.96L58.14 15.82Q57.99 15.90 55.50 15.83L55.49 15.81L55.46 15.79Q53.02 15.77 52.38 15.80L52.30 15.73L52.41 15.84Q41.91 16.18 38.44 18.77L38.42 18.75L38.39 18.72Q36.41 20.59 36.41 24.51L36.38 24.48L36.24 24.34Q36.25 25.45 36.37 28.16L36.43 28.22L36.46 28.25Q36.55 31.77 36.78 33.48L36.80 33.50L36.74 33.44Q37.21 36.65 38.81 38.18L38.81 38.18L38.80 38.16Q39.22 38.77 40.47 39.91L40.49 39.93L40.50 39.94Q43.81 41.77 49.06 42.53L49.01 42.47L49.07 42.53Q55.38 43.37 60.37 43.56Z"/><path fill="#222" d="M20.94 28.62L20.85 28.54L20.93 28.61Q18.21 28.71 17.45 30.96L17.31 30.82L17.39 30.89Q17.14 31.60 17.03 32.25L17.09 32.31L17.08 32.30Q19.60 32.42 21.23 32.42L21.32 32.50L21.24 32.42Q23.00 32.54 25.59 32.43L25.47 32.31L25.54 32.39Q25.35 30.60 23.94 29.53L23.94 29.53L24.04 29.63Q22.75 28.64 20.96 28.64ZM20.92 41.09L20.93 41.10L20.99 41.15Q16.76 41.15 15.46 39.74L15.49 39.77L15.47 39.75Q14.59 38.37 14.44 35.10L14.32 34.98L14.44 35.11Q14.34 34.77 14.26 33.40L14.22 33.36L14.32 33.46Q14.19 31.16 14.19 30.44L14.16 30.41L14.19 30.44Q14.06 28.44 14.78 27.34L14.97 27.52L14.96 27.51Q16.34 26.08 19.31 26.08L19.30 26.07L20.88 26.08L20.79 25.99Q22.91 26.06 24.43 26.36L24.34 26.27L24.40 26.33Q26.39 26.73 27.38 27.94L27.46 28.02L27.39 27.96Q28.01 29.03 28.09 31.12L28.08 31.12L28.10 31.14Q28.19 32.37 28.23 34.54L28.21 34.52L28.08 34.39Q25.32 34.53 22.55 34.53L22.50 34.49L16.92 34.50L16.86 34.44Q17.04 38.88 21.11 38.65L21.12 38.66L21.08 38.62Q24.88 38.47 26.10 36.64L26.19 36.73L26.14 36.68Q27.05 37.24 28.64 38.42L28.56 38.33L28.54 38.31Q27.27 40.81 23.12 41.08L23.11 41.07L23.01 40.97Q22.30 41.02 20.93 41.10ZM23.28 43.49L23.31 43.51L23.28 43.48Q24.46 43.52 25.68 43.60L25.60 43.52L25.61 43.53Q30.69 43.82 31.61 41.04L31.48 40.91L31.58 41.02Q29.89 39.71 28.79 38.94L28.79 38.95L28.81 38.96Q29.07 38.65 29.26 38.42L29.17 38.33L29.13 38.30Q28.53 37.97 27.16 37.01L27.00 36.85L27.02 36.87Q28.22 37.05 30.28 37.35L30.19 37.26L30.20 37.27Q29.98 35.87 29.90 35.18L29.99 35.27L29.87 33.36L29.77 33.26Q29.75 31.03 29.10 29.55L29.10 29.54L29.08 29.53Q28.69 29.06 28.12 28.45L28.08 28.42L28.11 28.44Q28.11 28.29 27.88 27.72L27.75 27.59L27.86 27.70Q25.97 25.66 20.91 25.66L20.87 25.62L19.20 25.62L19.17 25.59Q15.91 25.57 14.47 27.06L14.47 27.06L14.45 27.04Q13.78 28.16 13.81 30.21L13.79 30.19L13.83 30.23Q13.80 31.11 13.91 33.35L14.02 33.46L14.06 33.50Q14.09 35.06 14.20 37.11L14.18 37.09L14.14 37.04Q14.51 39.40 15.38 40.46L15.43 40.51L15.34 40.42Q15.47 40.55 15.66 40.66L15.65 40.65L16.04 41.39L16.01 41.35Q16.77 43.18 23.36 43.56ZM21.19 38.31L21.26 38.38L21.13 38.25Q20.03 38.41 19.12 37.96L19.12 37.95L19.13 37.97Q19.01 37.50 18.81 36.81L18.85 36.84L18.85 36.85Q20.64 36.85 22.24 36.85L22.12 36.73L22.06 36.67Q23.82 36.76 25.50 36.87L25.45 36.82L25.50 36.87Q24.22 38.22 21.21 38.33ZM22.79 30.92L22.85 30.98L22.87 31.01Q23.49 31.02 24.83 31.40L24.89 31.47L25.06 31.83L24.93 31.89L25.08 32.04Q23.72 32.16 22.81 32.12L22.66 31.98L22.74 32.06Q20.42 31.98 20.38 31.98L20.41 32.01L20.42 32.02Q21.22 31.15 22.89 31.03Z"/><path fill="#222" d="M100.10 29.59L99.95 29.45L100.08 29.58Q98.89 28.80 98.24 28.84L98.26 28.86L98.15 28.75Q96.79 28.83 95.74 29.84L95.73 29.83L95.75 29.85Q94.71 30.87 94.83 32.24L94.88 32.29L94.85 32.26Q95.21 36.66 94.34 41.19L94.30 41.15L94.31 41.16Q91.95 41.47 90.85 42.00L90.94 42.10L90.97 42.12Q92.47 37.95 92.24 33.49L92.28 33.53L92.26 33.52Q91.88 28.87 90.17 24.80L90.16 24.80L90.30 24.93Q91.47 25.65 93.76 26.30L93.76 26.29L94.19 28.86L94.23 28.90Q94.84 25.93 99.10 25.93L99.16 25.99L99.28 26.10Q99.52 25.89 99.82 25.89L99.95 26.01L99.89 25.95Q101.21 25.98 102.46 26.67L102.49 26.69L102.48 26.68Q101.11 27.97 99.97 29.46ZM101.67 31.54L101.79 31.51L101.65 31.37Q102.64 30.31 104.32 27.87L104.29 27.85L104.28 27.83Q103.89 27.56 102.37 27.30L102.32 27.24L102.35 27.28Q102.58 26.85 103.03 26.24L102.99 26.20L103.14 26.35Q101.15 25.35 99.21 25.54L99.16 25.49L99.19 25.52Q97.23 25.69 96.50 25.96L96.53 25.98L96.67 26.12Q95.21 26.49 94.41 27.60L94.29 27.48L94.12 26.66L94.03 25.93L94.05 25.94Q91.64 25.51 89.66 24.18L89.51 24.02L89.52 24.04Q91.68 28.44 91.91 33.32L91.98 33.39L91.92 33.33Q92.10 38.19 90.35 42.72L90.47 42.84L90.38 42.76Q91.49 42.30 92.36 41.99L92.42 42.05L92.35 41.98Q92.12 43.12 91.62 44.19L91.58 44.14L91.64 44.21Q94.42 43.29 96.55 43.18L96.58 43.20L96.81 38.71L96.73 38.63Q96.98 36.53 96.98 34.28L96.91 34.21L96.95 34.25Q96.85 32.96 97.76 31.99L97.93 32.16L97.80 32.03Q98.76 31.11 99.91 31.04L99.87 31.00L99.92 31.05Q100.53 30.90 101.25 31.58L101.29 31.62L101.67 31.54ZM96.61 29.68L96.55 29.55L96.61 29.72L96.61 29.68Z"/></svg>