<svg xmlns="http://www.w3.org/2000/svg" width="150" height="50" viewBox="0,0,150,50"><path fill="#222" d="M93.61 26.76L93.58 26.73L93.72 26.87Q95.50 27.01 97.33 27.01L97.29 26.98L97.30 26.99Q99.03 26.92 100.86 26.77L100.90 26.82L100.89 26.80Q100.74 27.42 100.74 28.14L100.75 28.15L100.90 29.63L100.77 29.51Q98.49 29.58 93.73 29.69L93.60 29.56L93.70 29.66Q93.62 35.52 92.48 40.51L92.62 40.66L92.53 40.56Q90.40 41.32 88.91 42.12L88.78 41.99L88.88 42.09Q91.12 35.19 90.85 28.07L90.85 28.07L90.83 28.05Q90.66 20.99 88.00 14.33L87.90 14.24L87.93 14.27Q91.67 16.87 96.43 17.09L96.45 17.11L96.41 17.08Q101.12 17.29 105.27 15.54L105.17 15.44L105.20 15.47Q104.87 16.24 104.64 17.04L104.78 17.18L104.21 18.70L104.30 18.79Q101.49 19.79 98.52 19.95L98.59 20.01L98.64 20.06Q95.63 20.14 92.78 19.42L92.86 19.50L92.69 19.33Q93.55 22.89 93.74 26.89ZM105.80 14.74L105.93 14.87L105.81 14.75Q101.18 16.85 96.31 16.55L96.29 16.53L96.38 16.63Q91.12 16.39 87.39 13.53L87.28 13.42L87.35 13.49Q90.12 20.34 90.43 27.96L90.45 27.98L90.56 28.09Q90.83 35.97 88.32 42.74L88.45 42.88L88.40 42.83Q88.99 42.36 90.36 41.71L90.31 41.65L90.27 41.62Q90.23 42.53 89.66 44.05L89.55 43.94L89.71 44.10Q91.87 42.87 94.76 42.37L94.76 42.38L94.75 42.37Q95.48 37.61 95.67 31.90L95.64 31.87L95.65 31.89Q97.45 31.85 99.28 31.85L99.29 31.87L99.23 31.81Q101.10 31.89 102.93 32.08L102.83 31.99L102.90 32.05Q102.79 31.11 102.79 30.19L102.81 30.21L102.71 28.21L102.78 28.28Q101.97 28.34 101.14 28.34L101.21 28.42L101.24 28.45Q101.19 27.52 101.27 26.50L101.30 26.52L101.21 26.44Q99.78 26.57 98.37 26.57L98.52 26.72L98.39 26.58Q97.10 26.71 95.73 26.67L95.59 26.53L95.49 24.30L95.60 24.41Q95.60 23.34 95.48 22.27L95.35 22.14L95.35 22.14Q96.46 22.33 97.44 22.33L97.49 22.37L97.42 22.31Q102.25 22.38 105.86 20.47L105.71 20.31L105.82 20.43Q106.37 18.65 107.28 16.03L107.26 16.00L107.22 15.96Q105.94 16.82 105.14 17.16L105.17 17.19L105.06 17.08Q105.46 16.45 105.95 14.89Z"/><path fill="#333" d="M112.28 39.00L112.20 38.92L112.35 39.06Q114.16 36.61 118.92 29.34L118.86 29.29L118.92 29.35Q122.95 23.14 125.81 19.86L125.85 19.90L125.86 19.91Q123.71 20.16 121.61 20.16L121.49 20.03L121.54 20.09Q116.35 20.15 112.36 18.36L112.27 18.28L112.29 18.30Q111.60 16.35 110.91 14.79L110.89 14.77L110.95 14.82Q115.62 17.09 121.29 17.21L121.29 17.21L121.23 17.15Q126.27 17.13 131.45 15.23L131.46 15.23L131.48 15.25Q131.14 16.14 130.84 16.93L130.79 16.89L130.21 18.48L130.24 18.51Q127.24 22.21 123.25 28.03L123.15 27.94L119.82 32.76L119.85 32.78Q118.19 35.23 116.36 37.52L116.44 37.60L116.30 37.46Q119.59 36.83 122.91 36.91L123.07 37.07L123.08 37.08Q126.34 37.11 129.50 38.02L129.50 38.02L130.04 39.67L130.06 39.68Q130.30 40.50 130.65 41.34L130.63 41.32L130.66 41.35Q125.85 39.63 120.71 39.82L120.83 39.93L120.83 39.93Q115.59 40.02 111.09 42.04L111.24 42.18L111.07 42.01Q111.44 40.93 112.16 38.88ZM110.53 42.76L110.45 42.68L110.46 42.70Q111.73 42.13 112.52 41.87L112.56 41.90L112.65 42.00Q112.35 42.72 111.67 44.25L111.56 44.14L111.68 44.25Q117.28 42.02 123.26 42.25L123.36 42.35L123.38 42.36Q129.69 42.59 134.72 45.37L134.70 45.35L134.56 45.21Q133.32 42.98 132.52 40.81L132.43 40.72L132.52 40.81Q131.99 40.54 130.46 39.97L130.40 39.91L130.44 39.95Q130.19 39.13 129.77 37.64L129.83 37.70L129.88 37.75Q125.70 36.54 120.60 36.73L120.58 36.72L120.57 36.70Q122.73 33.99 126.27 28.43L126.14 28.30L126.18 28.35Q129.82 22.62 131.73 20.07L131.79 20.13L131.73 20.07Q132.23 18.67 133.26 15.97L133.37 16.08L133.39 16.10Q132.71 16.44 131.26 17.05L131.23 17.03L131.23 17.02Q131.51 16.16 132.23 14.64L132.30 14.70L132.27 14.67Q126.95 16.81 121.24 16.74L121.26 16.76L121.18 16.68Q115.21 16.57 110.26 14.06L110.28 14.08L110.25 14.05Q111.35 16.37 112.08 18.62L112.07 18.61L112.07 18.61Q113.26 19.23 114.06 19.46L114.08 19.48L114.10 19.50Q114.29 20.11 114.56 21.55L114.51 21.50L114.66 21.66Q118.31 22.64 123.18 22.45L123.10 22.36L123.27 22.54Q120.87 25.74 117.56 30.72L117.41 30.58L111.92 38.94L111.96 38.98Q111.53 40.19 110.50 42.74Z"/><path fill="#222" d="M53.00 28.64L53.05 28.70L47.10 28.72L47.22 28.84Q44.25 28.85 41.32 28.77L41.29 28.74L41.33 28.78Q41.35 35.39 39.30 40.91L39.35 40.96L39.31 40.92Q37.53 41.46 35.78 42.15L35.80 42.17L35.82 42.19Q38.50 36.38 38.50 29.72L38.64 29.86L38.52 29.73Q38.51 21.24 34.40 14.20L34.44 14.24L34.50 14.29Q36.03 15.10 38.50 15.90L38.41 15.81L38.34 15.74Q40.53 20.87 41.07 25.74L41.18 25.85L41.00 25.67Q44.32 26.21 47.18 26.18L47.11 26.11L47.23 26.23Q49.77 26.10 53.08 25.84L53.03 25.78L53.17 25.92Q53.50 21.38 55.25 16.28L55.40 16.42L55.41 16.44Q57.25 15.92 59.50 15.08L59.44 15.03L59.42 15.00Q55.87 21.81 55.87 29.77L55.88 29.78L55.81 29.70Q55.94 36.04 58.30 41.37L58.21 41.28L58.27 41.34Q56.75 40.82 54.70 40.51L54.56 40.37L54.60 40.41Q52.89 35.36 53.01 28.66ZM54.35 40.77L54.28 40.70L54.37 40.79Q55.38 40.92 56.48 41.19L56.48 41.19L56.44 41.15Q56.77 41.86 57.41 43.34L57.39 43.31L57.46 43.39Q60.89 44.42 62.68 45.33L62.69 45.35L62.51 45.16Q58.10 39.04 57.79 30.78L57.92 30.91L57.84 30.82Q57.47 22.72 61.12 15.91L61.21 15.99L60.11 16.42L60.21 16.52Q59.63 16.66 59.02 16.81L58.98 16.77L59.12 16.91Q59.54 16.11 60.38 14.55L60.30 14.48L60.31 14.49Q57.58 15.45 54.96 15.95L54.91 15.91L55.06 16.05Q53.41 20.91 52.95 25.59L52.79 25.43L52.90 25.54Q50.32 25.66 47.88 25.66L47.86 25.64L47.96 25.74Q45.51 25.69 42.99 25.53L43.04 25.57L43.04 25.57Q42.78 22.27 41.67 18.20L41.73 18.25L41.61 18.13Q41.07 18.16 39.62 17.78L39.60 17.76L39.52 17.68Q39.20 16.52 38.74 15.50L38.78 15.53L38.64 15.40Q36.05 14.78 33.76 13.52L33.64 13.40L33.80 13.56Q38.33 20.95 38.33 29.74L38.34 29.75L38.21 29.62Q38.35 36.73 35.23 42.86L35.25 42.88L35.16 42.79Q35.86 42.49 37.19 41.92L37.12 41.85L37.25 41.98Q36.86 42.77 36.06 44.29L36.05 44.29L36.06 44.29Q38.92 43.35 41.17 42.93L41.19 42.95L41.05 42.81Q42.97 37.31 43.16 31.14L43.28 31.26L43.10 31.08Q44.80 31.11 48.00 31.07L48.08 31.15L48.04 31.11Q50.88 31.06 52.78 31.13L52.71 31.07L52.73 31.08Q52.98 36.82 54.32 40.74Z"/><path fill="#333" d="M19.04 40.31L19.03 40.30L19.12 40.40Q14.95 40.52 13.96 38.20L14.06 38.30L13.95 38.19Q14.87 37.40 16.44 35.61L16.41 35.59L16.28 35.46Q16.89 37.59 19.89 37.70L19.83 37.63L19.94 37.75Q23.28 37.77 24.92 36.44L24.89 36.42L24.94 36.46Q26.25 34.77 26.18 32.07L26.25 32.14L26.27 32.16Q26.02 27.00 21.22 27.23L21.23 27.23L21.20 27.21Q18.52 27.50 16.77 28.75L16.74 28.72L16.27 28.40L16.19 28.40L16.27 28.48Q16.48 25.19 16.37 22.45L16.37 22.46L16.47 22.55Q16.36 19.93 16.02 16.62L15.99 16.59L15.89 16.49Q19.66 17.56 23.47 17.44L23.36 17.33L23.35 17.33Q27.21 17.30 30.78 16.04L30.89 16.15L30.31 17.66L30.23 17.58Q29.87 18.29 29.68 19.13L29.65 19.10L29.64 19.09Q26.53 20.12 22.64 20.12L22.63 20.11L22.78 20.26Q21.28 20.21 19.80 20.05L19.86 20.11L19.80 20.06Q19.72 20.74 19.38 25.20L19.32 25.13L19.46 25.28Q20.20 24.72 22.25 24.56L22.25 24.57L22.31 24.62Q26.10 24.91 27.54 26.58L27.49 26.53L27.35 26.39Q28.85 28.04 29.11 31.88L29.04 31.81L29.10 31.87Q29.41 36.10 28.19 38.12L28.16 38.09L28.04 37.97Q26.06 39.91 22.75 40.14L22.83 40.22L22.87 40.26Q21.68 40.14 19.02 40.29ZM25.16 42.66L25.20 42.71L25.10 42.60Q28.64 42.80 30.55 41.69L30.43 41.57L30.42 41.57Q31.40 40.04 31.40 37.94L31.58 38.12L31.43 37.97Q31.42 34.87 30.46 30.76L30.62 30.92L30.60 30.90Q30.17 29.09 28.95 27.68L28.86 27.59L29.02 27.79L28.73 27.42L28.43 27.28L28.38 27.23Q28.04 26.47 27.39 25.79L27.39 25.78L27.52 25.95L27.48 25.91Q26.00 24.28 22.31 24.28L22.16 24.13L22.02 24.25L21.94 24.18Q22.01 23.60 22.20 22.50L22.29 22.58L22.28 22.57Q27.24 22.66 31.27 21.02L31.31 21.06L31.30 21.05Q31.62 19.54 32.57 16.72L32.72 16.87L30.50 17.69L30.50 17.70Q30.98 16.66 31.47 15.51L31.32 15.36L31.48 15.52Q27.50 16.83 23.38 16.90L23.49 17.01L23.47 16.98Q19.26 17.01 15.31 15.91L15.37 15.97L15.35 15.95Q15.97 20.30 15.97 24.71L16.15 24.90L16.12 24.87Q16.00 26.65 15.89 28.56L15.99 28.65L15.94 28.61Q16.19 28.78 16.76 29.09L16.72 29.04L16.75 29.07Q17.05 28.80 17.69 28.46L17.78 28.54L17.78 28.54Q17.69 29.25 17.46 30.77L17.55 30.87L17.56 30.87Q17.89 30.98 18.31 31.20L18.33 31.23L18.30 31.20Q21.03 29.39 22.89 29.39L22.98 29.48L22.91 29.41Q24.31 29.48 25.49 30.13L25.58 30.22L25.49 30.13Q25.82 31.14 25.86 32.09L25.84 32.07L25.85 32.09Q26.04 34.79 25.01 35.89L24.94 35.82L24.99 35.87Q23.51 36.97 21.26 37.20L21.26 37.20L21.32 37.27Q20.41 37.38 19.72 37.30L19.77 37.35L19.72 37.29Q18.92 37.22 18.16 36.88L18.16 36.88L17.95 36.48L17.93 36.68L17.91 36.67Q17.05 36.12 16.52 34.78L16.64 34.90L16.52 34.78Q15.20 36.20 13.52 38.33L13.57 38.39L13.54 38.35Q13.88 39.03 14.71 39.98L14.74 40.01L14.76 40.02Q15.75 41.78 18.57 42.28L18.68 42.39L18.58 42.29Q19.76 42.52 25.13 42.63Z"/><path fill="#111" d="M68.36 40.30L68.43 40.37L68.38 40.31Q64.30 40.54 63.31 38.22L63.37 38.28L63.30 38.21Q64.17 37.37 65.73 35.58L65.77 35.62L65.72 35.56Q66.16 37.53 69.17 37.64L69.14 37.61L69.17 37.64Q72.67 37.83 74.30 36.49L74.20 36.39L74.29 36.48Q75.58 34.77 75.51 32.06L75.47 32.03L75.64 32.19Q75.42 27.07 70.63 27.30L70.59 27.26L70.59 27.26Q67.74 27.38 65.99 28.64L66.10 28.75L65.60 28.41L65.50 28.38L65.44 28.32Q65.89 25.26 65.78 22.52L65.72 22.46L65.65 22.40Q65.59 19.83 65.25 16.52L65.20 16.47L65.31 16.57Q68.85 17.41 72.66 17.30L72.81 17.46L72.70 17.34Q76.47 17.23 80.05 15.97L80.16 16.09L79.65 17.67L79.63 17.65Q79.31 18.40 79.12 19.23L79.11 19.23L79.12 19.23Q75.87 20.13 71.99 20.13L72.14 20.28L72.12 20.26Q70.70 20.29 69.21 20.13L69.08 20.01L69.13 20.05Q69.13 20.81 68.78 25.27L68.80 25.29L68.78 25.26Q69.62 24.81 71.68 24.66L71.55 24.53L71.63 24.61Q75.27 24.74 76.71 26.42L76.71 26.42L76.87 26.57Q78.09 27.95 78.36 31.79L78.40 31.84L78.43 31.87Q78.63 35.99 77.41 38.01L77.48 38.07L77.55 38.14Q75.50 40.02 72.19 40.24L72.16 40.22L72.11 40.17Q71.10 40.22 68.43 40.37ZM74.47 42.64L74.42 42.59L74.45 42.62Q78.00 42.82 79.91 41.72L79.81 41.62L79.76 41.57Q80.82 40.12 80.82 38.02L80.76 37.97L80.74 37.94Q80.84 34.96 79.89 30.85L79.93 30.89L79.95 30.92Q79.48 29.07 78.26 27.67L78.19 27.59L78.34 27.78L78.08 27.44L77.73 27.25L77.72 27.24Q77.37 26.46 76.72 25.78L76.76 25.82L76.82 25.92L76.77 25.86Q75.20 24.14 71.51 24.14L71.53 24.17L71.37 24.27L71.24 24.15Q71.34 23.59 71.53 22.49L71.51 22.47L71.49 22.45Q76.51 22.60 80.55 20.96L80.62 21.04L80.56 20.98Q80.96 19.55 81.91 16.73L81.99 16.81L79.85 17.71L79.85 17.72Q80.23 16.58 80.73 15.43L80.74 15.45L80.69 15.40Q76.93 16.92 72.81 17.00L72.81 16.99L72.75 16.93Q68.74 17.15 64.78 16.05L64.80 16.07L64.72 15.99Q65.32 20.31 65.32 24.73L65.43 24.84L65.36 24.77Q65.37 26.69 65.26 28.59L65.33 28.67L65.28 28.61Q65.52 28.78 66.09 29.09L66.12 29.11L66.21 29.20Q66.44 28.86 67.08 28.51L67.19 28.62L67.20 28.64Q66.99 29.23 66.77 30.75L66.85 30.83L66.86 30.84Q67.31 31.06 67.73 31.29L67.74 31.30L67.69 31.25Q70.49 29.52 72.35 29.52L72.42 29.59L72.39 29.56Q73.58 29.42 74.76 30.06L74.85 30.16L74.80 30.10Q75.15 31.13 75.18 32.09L75.15 32.05L75.15 32.05Q75.22 34.63 74.19 35.74L74.35 35.90L74.34 35.89Q72.94 37.07 70.69 37.30L70.57 37.17L70.63 37.24Q69.67 37.31 68.98 37.23L69.11 37.36L68.96 37.21Q68.19 37.15 67.42 36.81L67.49 36.88L67.35 36.55L67.25 36.68L67.35 36.78Q66.46 36.19 65.93 34.86L66.00 34.93L65.90 34.83Q64.54 36.21 62.86 38.34L62.98 38.46L62.92 38.40Q63.32 39.14 64.15 40.09L63.98 39.92L64.08 40.01Q65.14 41.84 67.96 42.34L68.00 42.37L67.90 42.28Q69.13 42.55 74.50 42.67Z"/></svg>