<svg xmlns="http://www.w3.org/2000/svg" width="150" height="50" viewBox="0,0,150,50"><path fill="#333" d="M129.77 41.55L129.78 41.56L129.83 41.60Q127.73 41.22 125.56 41.07L125.51 41.02L125.50 41.01Q124.09 39.59 121.42 35.75L121.39 35.71L121.46 35.78Q119.21 38.83 116.82 41.27L116.73 41.18L114.74 41.67L114.76 41.68Q113.57 41.75 112.58 42.02L112.72 42.16L112.61 42.04Q116.86 38.00 119.87 33.89L119.76 33.78L119.80 33.82Q116.66 29.76 111.25 24.97L111.17 24.89L111.07 24.79Q113.49 25.72 116.19 26.14L116.16 26.11L116.05 26.00Q119.64 29.24 121.54 31.95L121.48 31.88L121.47 31.88Q123.58 28.80 126.32 26.29L126.41 26.38L126.27 26.24Q129.27 25.86 131.10 25.36L131.19 25.46L131.20 25.46Q126.74 29.19 123.05 33.75L123.02 33.72L122.89 33.60Q126.36 38.36 129.82 41.59ZM132.68 24.74L132.65 24.71L132.65 24.70Q129.71 25.50 126.17 25.84L126.18 25.84L126.22 25.89Q123.28 28.51 121.57 30.98L121.60 31.01L121.68 31.09Q120.63 29.89 118.99 27.91L119.14 28.06L118.81 27.92L118.94 28.05Q118.74 27.96 118.62 27.96L118.70 28.04L118.65 27.99Q117.83 27.09 116.19 25.64L116.27 25.72L116.22 25.67Q112.56 25.06 109.71 23.84L109.89 24.02L109.75 23.88Q115.35 28.76 119.39 33.90L119.31 33.83L119.38 33.90Q116.00 38.51 111.58 42.81L111.66 42.89L111.67 42.89Q111.74 42.63 115.24 41.79L115.25 41.79L115.40 41.94Q113.76 43.16 112.12 44.49L112.22 44.59L112.09 44.46Q115.35 43.61 118.51 43.42L118.55 43.46L118.54 43.45Q120.95 41.21 122.85 38.47L122.73 38.35L122.80 38.42Q124.30 40.26 125.52 41.44L125.37 41.29L125.37 41.30Q125.60 41.41 125.68 41.49L125.70 41.51L125.88 41.50L125.75 41.37Q127.11 42.57 128.44 43.64L128.32 43.52L128.47 43.67Q131.94 44.09 134.83 45.12L134.98 45.27L134.88 45.17Q128.77 40.77 125.08 35.59L125.05 35.57L125.12 35.63Q128.62 30.46 133.19 26.39L133.17 26.36L133.31 26.51Q132.29 26.78 131.30 27.01L131.34 27.05L129.22 27.40L129.26 27.44Q130.40 26.49 132.57 24.62Z"/><path fill="#333" d="M73.03 29.89L73.01 29.87L73.00 29.86Q70.43 29.69 69.09 30.91L69.07 30.88L69.26 31.07Q67.79 32.15 68.10 34.67L68.22 34.79L68.06 34.63Q68.48 37.26 69.70 38.52L69.68 38.50L69.66 38.48Q70.84 39.93 72.98 39.85L72.87 39.74L72.81 39.69Q73.50 39.81 73.69 39.81L73.53 39.64L73.69 39.80Q77.26 39.22 77.37 34.61L77.32 34.57L77.20 34.45Q77.27 32.08 76.58 31.28L76.72 31.42L76.71 31.41Q75.60 30.07 73.05 29.91ZM76.35 41.63L76.42 41.69L76.36 41.64Q75.10 42.28 73.54 42.20L73.48 42.14L73.50 42.17Q69.70 42.40 68.41 39.81L68.46 39.86L68.28 39.69Q68.21 45.14 66.88 49.40L66.92 49.45L66.80 49.33Q65.10 49.90 63.46 50.63L63.32 50.48L63.35 50.52Q66.00 44.63 65.73 37.67L65.63 37.57L65.65 37.59Q65.48 30.83 62.59 24.78L62.54 24.73L62.58 24.77Q64.52 25.95 66.23 26.41L66.22 26.40L66.73 27.86L66.73 27.85Q66.80 28.16 67.07 29.26L67.18 29.37L67.16 29.35Q68.09 27.19 71.66 27.00L71.75 27.09L71.71 27.05Q72.53 26.96 73.40 26.96L73.44 27.00L73.97 27.02L73.93 26.99Q74.13 27.07 74.32 27.11L74.19 26.98L74.48 26.96L74.57 27.06Q76.67 27.37 77.39 27.60L77.31 27.51L77.36 27.56Q78.96 28.14 79.84 29.09L79.84 29.09L79.73 28.98Q80.64 30.23 80.60 31.64L80.48 31.52L80.61 31.64Q80.49 34.38 79.69 37.04L79.75 37.10L79.82 37.17Q78.71 40.59 76.35 41.62ZM80.69 42.32L80.69 42.28L80.69 42.28Q81.81 40.31 82.11 36.19L82.05 36.13L81.95 36.03Q82.14 34.32 82.14 33.07L82.16 33.09L82.09 33.02Q82.32 31.72 81.56 30.31L81.49 30.25L81.56 30.31Q81.01 29.73 80.52 29.35L80.56 29.39L80.37 29.09L80.14 28.74L80.10 28.59L80.05 28.53Q78.37 26.55 74.03 26.55L74.08 26.61L73.52 26.65L73.44 26.57Q68.74 26.52 67.11 28.12L67.13 28.14L67.26 28.27Q66.96 27.63 66.81 27.14L66.83 27.16L66.63 26.15L66.61 26.14Q64.09 25.48 61.88 24.00L61.99 24.10L61.97 24.09Q65.21 30.37 65.52 37.61L65.50 37.59L65.33 37.43Q65.78 44.84 62.92 51.31L62.88 51.26L64.90 50.43L64.89 50.42Q64.66 51.18 63.97 52.74L63.85 52.62L63.87 52.64Q66.61 51.61 68.93 51.26L69.03 51.36L68.85 51.19Q70.11 46.50 70.26 42.77L70.19 42.70L70.29 42.79Q71.57 44.15 75.18 44.38L75.26 44.46L75.20 44.40Q79.18 44.69 80.63 42.25L80.66 42.28ZM74.91 32.11L75.05 32.26L75.04 32.24Q75.62 32.10 76.72 32.44L76.78 32.50L76.66 32.38Q77.05 33.49 77.01 34.67L76.86 34.52L76.90 34.56Q76.97 35.54 76.78 36.19L76.66 36.07L76.80 36.21Q76.08 39.11 73.57 39.42L73.57 39.41L73.59 39.32L73.55 39.28Q73.46 39.26 73.34 39.30L73.35 39.31L72.86 39.35L72.91 39.40Q71.71 39.38 70.72 38.89L70.77 38.94L70.35 36.81L70.29 36.74Q70.29 34.58 71.59 33.55L71.60 33.57L71.48 33.44Q72.60 32.47 75.00 32.20Z"/><path fill="#333" d="M24.96 39.90L24.96 39.89L23.01 39.88L23.05 39.92Q21.96 39.79 21.01 39.90L21.05 39.94L21.15 40.04Q21.57 33.69 21.57 29.69L21.62 29.74L21.68 29.80Q17.67 23.09 10.02 14.41L10.06 14.45L10.08 14.47Q11.75 15.33 15.10 16.13L15.22 16.26L15.25 16.29Q20.24 21.81 23.25 27.02L23.31 27.09L23.18 26.96Q26.17 21.38 30.55 16.36L30.72 16.53L30.66 16.47Q33.09 16.08 35.60 15.28L35.46 15.14L35.56 15.25Q29.57 21.39 24.69 29.81L24.59 29.71L24.69 29.80Q24.57 36.73 24.88 39.81ZM33.92 17.18L36.73 14.43L36.80 14.50Q33.66 15.63 30.54 16.08L30.56 16.10L30.55 16.09Q26.35 20.84 23.53 25.94L23.54 25.95L23.51 25.92Q21.28 22.16 18.08 18.28L18.12 18.32L18.04 18.24Q17.95 18.42 17.46 18.34L17.36 18.24L17.45 18.33Q16.74 17.52 15.22 15.84L15.15 15.77L15.26 15.87Q11.85 15.10 8.88 13.54L8.72 13.37L8.80 13.45Q16.54 21.95 21.30 29.87L21.28 29.86L21.35 29.92Q21.18 36.19 20.57 40.34L20.56 40.32L20.58 40.34Q21.39 40.40 22.84 40.28L22.80 40.24L22.85 41.33L22.84 41.31Q22.79 41.72 22.71 42.25L22.72 42.26L22.73 42.27Q26.30 42.30 28.05 42.49L28.01 42.45L28.04 42.48Q26.75 37.77 26.64 31.79L26.53 31.68L26.63 31.78Q31.00 23.32 37.55 15.98L37.64 16.07L33.94 17.20Z"/><path fill="#222" d="M40.17 46.98L40.27 47.08L40.32 47.12Q39.38 47.33 37.48 47.64L37.43 47.59L37.40 47.56Q38.66 45.36 39.69 44.06L39.69 44.07L39.72 44.09Q41.45 44.38 41.60 44.38L41.59 44.36L41.63 44.40Q42.01 44.55 42.54 44.44L42.48 44.37L42.39 44.28Q43.22 44.36 43.41 44.36L43.28 44.23L43.30 44.24Q45.83 43.96 45.76 41.79L45.76 41.80L45.88 41.91Q45.73 40.32 45.62 34.08L45.68 34.14L45.76 34.22Q45.59 30.55 45.67 26.40L45.69 26.42L47.03 26.16L47.20 26.33Q47.68 26.05 48.36 25.82L48.50 25.96L48.52 25.98Q48.26 30.36 48.30 34.74L48.20 34.64L48.30 34.74Q48.25 39.03 48.78 43.41L48.94 43.56L48.79 43.42Q48.83 43.68 48.83 43.95L48.92 44.04L48.96 44.08Q48.86 45.61 47.18 45.99L47.26 46.07L47.33 46.15Q44.05 46.36 40.20 47.01ZM47.08 22.90L44.84 19.67L44.89 19.72Q45.91 18.30 47.73 15.52L47.84 15.62L47.72 15.51Q48.38 16.39 49.71 18.22L49.87 18.38L47.14 22.96ZM50.07 49.50L50.07 49.49L50.07 49.49Q50.62 49.55 51.38 49.20L51.38 49.20L51.44 49.27Q51.78 48.57 51.78 48.11L51.69 48.02L51.75 48.09Q51.75 47.74 51.63 47.13L51.55 47.05L51.57 47.07Q50.23 40.66 50.23 32.74L50.18 32.70L50.30 32.82Q50.16 29.82 50.31 26.93L50.40 27.02L50.28 26.90Q49.73 27.07 48.59 27.38L48.61 27.40L48.72 27.50Q48.65 26.95 48.69 26.42L48.72 26.44L48.88 25.42L48.91 25.45Q47.19 26.09 45.40 26.13L45.29 26.02L45.43 26.16Q45.28 30.38 45.32 33.96L45.25 33.90L45.49 41.86L45.46 41.84Q45.48 43.76 43.31 43.88L43.34 43.90L43.44 44.01Q43.13 43.92 42.61 43.98L42.60 43.96L42.54 43.91Q42.16 44.10 41.90 44.10L41.80 44.00L41.86 44.06Q41.32 43.98 39.76 43.56L39.81 43.61L39.82 43.62Q39.31 44.18 38.21 45.85L38.14 45.78L36.63 48.12L36.76 48.25Q37.51 47.93 39.14 47.55L39.20 47.60L38.68 48.27L38.26 49.03L38.12 48.89Q40.49 48.82 41.82 48.90L41.89 48.96L41.75 48.82Q44.14 49.08 50.07 49.50ZM47.09 23.67L46.97 23.55L47.29 23.00L47.29 22.99Q47.72 23.50 48.67 25.10L48.77 25.20L48.63 25.06Q50.17 21.96 51.74 18.87L51.71 18.85L51.77 18.91Q50.74 17.27 49.79 15.98L49.85 16.04L49.77 15.96Q49.65 16.26 49.31 16.79L49.24 16.72L49.33 16.81Q48.90 16.16 47.91 14.86L47.79 14.74L47.85 14.80Q46.79 16.52 44.47 19.87L44.44 19.84L44.40 19.80Q45.38 21.08 47.09 23.67Z"/><path fill="#444" d="M99.88 30.82L100.02 30.96L99.86 30.80Q99.79 29.63 97.85 28.90L97.87 28.93L97.97 29.03Q97.37 28.73 96.84 28.73L96.88 28.78L96.88 28.77Q95.55 28.81 94.49 29.38L94.37 29.27L94.47 29.37Q92.99 29.99 93.11 31.20L93.16 31.26L93.20 31.30Q93.57 34.14 93.42 36.39L93.37 36.34L93.37 36.34Q93.21 38.77 92.49 41.28L92.49 41.28L92.54 41.34Q90.42 41.84 89.24 42.26L89.13 42.15L89.11 42.13Q90.83 38.64 90.83 34.64L90.88 34.69L90.73 34.53Q90.75 29.12 88.16 24.66L88.27 24.77L88.27 24.77Q89.38 25.15 91.78 25.88L91.78 25.88L91.76 25.86Q92.07 26.59 92.45 28.12L92.46 28.12L92.51 28.17Q93.74 25.97 97.62 26.05L97.71 26.13L97.75 26.18Q99.28 26.26 100.08 26.37L100.00 26.30L100.10 26.39Q102.96 26.67 103.04 28.68L103.10 28.74L102.96 28.61Q103.07 29.59 102.88 30.62L102.81 30.55L102.95 30.69Q102.42 33.13 102.61 36.14L102.56 36.09L102.60 36.13Q102.83 39.06 103.82 41.61L103.75 41.54L103.69 41.48Q102.13 41.22 100.42 41.06L100.40 41.05L100.43 41.08Q99.86 38.60 99.78 35.94L99.82 35.98L99.85 36.00Q99.76 33.25 99.99 30.93ZM100.04 41.41L99.87 41.24L100.03 41.40Q100.70 41.27 101.99 41.50L102.02 41.52L102.39 42.58L102.43 42.62Q102.53 43.02 102.75 43.55L102.89 43.69L102.78 43.58Q105.15 44.08 107.85 45.26L107.89 45.31L107.90 45.31Q105.50 42.15 104.81 38.34L104.87 38.40L104.71 38.23Q104.39 36.13 104.50 32.43L104.52 32.45L104.52 32.45Q104.56 32.19 104.60 31.39L104.70 31.49L104.57 31.36Q104.72 30.83 104.64 30.33L104.67 30.36L104.54 30.23Q104.57 28.69 103.46 28.20L103.37 28.11L103.43 28.16Q103.30 27.35 102.54 26.74L102.49 26.70L102.39 26.59Q100.67 25.55 97.62 25.63L97.72 25.73L97.76 25.77Q95.80 25.71 94.96 25.90L94.96 25.90L95.10 26.04Q93.65 26.38 92.70 27.29L92.70 27.30L92.69 27.28Q92.44 26.62 92.06 25.59L92.08 25.61L92.03 25.56Q89.21 24.87 87.38 23.88L87.38 23.88L87.57 24.07Q90.54 28.87 90.54 34.62L90.52 34.59L90.59 34.66Q90.59 39.04 88.68 42.88L88.63 42.83L88.68 42.88Q89.31 42.52 90.60 42.14L90.54 42.07L90.55 42.08Q90.07 43.35 89.53 44.34L89.49 44.30L89.58 44.39Q90.99 43.93 94.53 43.36L94.50 43.34L94.44 43.27Q95.48 38.19 95.37 33.35L95.42 33.40L95.48 33.46Q95.32 32.51 96.50 31.78L96.44 31.72L96.56 31.84Q97.61 31.21 98.71 31.10L98.67 31.06L98.71 31.10Q99.12 31.01 99.54 31.20L99.61 31.27L99.52 31.18Q99.40 33.77 99.44 36.32L99.45 36.33L99.46 36.34Q99.51 38.86 100.00 41.37Z"/></svg>