<svg xmlns="http://www.w3.org/2000/svg" width="150" height="50" viewBox="0,0,150,50"><path fill="#222" d="M48.78 32.08L39.56 22.10L39.65 22.19Q40.36 25.76 40.36 29.49L40.43 29.55L40.50 29.62Q40.39 35.49 38.34 41.05L38.30 41.01L38.43 41.14Q37.32 41.37 35.07 42.13L35.04 42.09L35.05 42.10Q37.90 36.35 37.90 29.65L37.95 29.70L37.96 29.71Q37.91 21.02 33.42 13.60L33.44 13.62L33.46 13.64Q33.90 13.81 34.59 14.23L34.60 14.25L34.51 14.16Q46.69 25.46 54.53 34.71L54.41 34.59L54.50 34.67Q54.25 32.29 54.25 29.86L54.11 29.72L54.06 29.67Q54.22 22.60 56.74 16.40L56.67 16.33L56.58 16.24Q59.00 15.80 60.60 15.12L60.53 15.05L60.61 15.13Q57.36 21.35 57.05 28.51L56.95 28.41L56.91 28.37Q56.68 35.79 59.65 41.96L59.66 41.97L59.67 41.98Q59.13 41.94 58.71 41.75L58.64 41.67L58.71 41.74Q54.02 37.66 48.80 32.10L48.82 32.12ZM62.34 45.22L62.29 45.17L62.29 45.17Q62.74 45.31 63.16 45.50L63.10 45.45L63.98 45.83L64.00 45.85Q58.90 38.97 58.90 29.60L58.92 29.62L58.93 29.63Q58.81 22.27 62.12 16.03L62.13 16.04L62.09 16.00Q61.51 16.30 60.10 16.91L60.13 16.93L60.09 16.89Q60.54 16.13 61.38 14.57L61.26 14.45L61.32 14.50Q58.83 15.36 56.39 15.93L56.42 15.97L56.35 15.89Q53.79 22.43 53.79 29.85L53.71 29.77L53.82 29.89Q53.83 31.76 54.02 33.74L54.01 33.73L54.03 33.76Q49.28 27.98 44.53 23.37L44.53 23.38L34.46 13.68L34.52 13.74Q33.86 13.35 32.64 12.78L32.62 12.76L32.61 12.75Q37.56 20.56 37.56 29.66L37.48 29.57L37.65 29.74Q37.54 36.75 34.46 42.77L34.40 42.71L34.37 42.68Q34.69 42.58 36.32 41.97L36.38 42.03L36.37 42.02Q36.09 42.84 35.26 44.33L35.33 44.40L35.23 44.30Q36.61 43.82 40.08 43.02L40.08 43.03L40.16 43.10Q42.41 36.90 42.41 29.70L42.35 29.65L42.46 29.75Q42.48 27.68 42.25 25.55L42.17 25.46L42.11 25.41Q53.64 38.28 62.25 45.13Z"/><path fill="#333" d="M78.96 37.86L78.94 37.83L79.07 37.97Q79.21 38.80 79.75 40.82L79.94 41.01L79.86 40.93Q75.59 39.56 70.99 39.82L71.09 39.93L70.92 39.75Q66.51 40.18 62.52 42.16L62.46 42.10L62.38 42.02Q62.71 41.45 62.75 41.52L62.73 41.50L62.65 41.42Q66.54 37.62 70.46 33.20L70.36 33.11L70.44 33.19Q74.75 28.09 75.93 23.41L75.96 23.44L75.89 23.36Q76.35 21.62 75.07 20.44L75.09 20.45L75.22 20.59Q73.79 19.25 72.00 19.41L72.01 19.41L72.03 19.44Q71.69 19.39 71.34 19.39L71.46 19.51L71.44 19.49Q69.88 19.46 68.63 20.37L68.68 20.43L68.55 20.29Q67.39 21.80 67.62 24.46L67.56 24.41L67.48 24.32Q65.67 23.96 64.45 23.50L64.62 23.67L64.55 23.60Q64.35 22.18 64.27 20.73L64.19 20.65L64.22 20.69Q64.13 19.03 64.74 17.89L64.79 17.94L64.90 18.05Q66.51 16.50 69.86 16.50L69.96 16.60L71.66 16.55L71.71 16.60Q73.95 16.60 74.90 16.71L75.03 16.83L74.88 16.68Q79.27 17.16 79.54 19.59L79.49 19.55L79.59 19.65Q79.70 20.25 79.62 21.05L79.50 20.93L79.49 20.92Q79.42 21.53 79.27 22.22L79.41 22.36L79.36 22.31Q77.65 30.35 70.08 37.20L70.18 37.30L70.12 37.25Q71.59 37.15 72.96 37.15L73.01 37.20L72.96 37.15Q76.16 37.11 79.01 37.91ZM78.49 17.14L78.39 17.03L78.47 17.12Q76.91 16.51 75.20 16.43L75.05 16.29L71.60 16.07L71.62 16.09Q67.19 15.85 64.98 16.95L65.11 17.08L65.08 17.06Q63.93 18.33 63.93 20.39L63.95 20.41L63.88 20.34Q64.06 21.21 64.36 24.02L64.30 23.96L64.28 23.94Q64.80 24.16 65.98 24.46L65.98 24.46L66.04 25.54L66.07 25.57Q65.92 25.92 65.99 26.45L66.04 26.50L66.00 26.46Q67.35 26.67 69.82 26.90L69.73 26.80L69.87 26.94Q69.68 26.41 69.68 26.07L69.81 26.20L69.70 26.09Q69.78 24.34 71.00 22.99L70.99 22.98L70.90 22.89Q72.21 21.64 74.00 21.75L73.88 21.63L74.02 21.77Q74.77 21.80 75.54 21.95L75.57 21.98L75.58 21.99Q75.58 22.26 75.66 22.68L75.61 22.63L75.67 22.69Q75.74 23.15 75.67 23.49L75.60 23.42L75.75 23.57Q74.42 28.26 70.01 33.09L70.04 33.13L69.95 33.04Q67.92 35.38 62.47 41.43L62.34 41.30L62.39 41.35Q62.15 42.14 61.80 42.71L61.84 42.75L61.96 42.86Q63.47 41.90 65.00 41.37L64.91 41.29L65.02 41.40Q64.34 42.01 63.39 43.49L63.37 43.47L63.32 43.42Q63.25 43.81 63.14 44.16L63.15 44.17L63.09 44.11Q67.96 42.05 73.44 42.24L73.42 42.22L73.37 42.16Q79.14 42.42 83.71 44.78L83.59 44.66L82.67 42.60L82.64 42.57Q82.14 41.38 81.87 40.58L81.83 40.54L81.79 40.50Q81.06 40.07 79.84 39.65L79.80 39.62L79.77 39.59Q79.78 39.03 79.40 37.65L79.28 37.53L79.31 37.56Q77.10 36.99 74.82 36.80L74.79 36.78L74.78 36.77Q79.49 32.23 81.02 23.96L81.05 24.00L81.30 21.16L81.18 21.05Q81.15 19.31 79.94 18.62L79.95 18.63L79.85 18.57L79.91 18.64Q79.89 18.57 79.81 18.57L79.84 18.60L79.83 18.59Q79.56 17.71 78.46 17.11Z"/><path fill="#444" d="M98.76 39.93L98.64 39.80L98.62 39.78Q96.68 39.75 94.66 39.94L94.76 40.04L94.67 39.95Q95.29 34.66 95.29 29.83L95.32 29.85L95.30 29.83Q95.41 25.04 94.76 19.82L94.73 19.79L94.73 19.79Q90.25 19.50 87.06 17.83L86.96 17.73L86.25 15.99L86.23 15.97Q86.09 15.52 85.48 14.31L85.36 14.18L85.51 14.34Q90.50 16.93 96.52 17.12L96.59 17.19L96.50 17.10Q102.43 17.33 107.88 15.27L107.92 15.31L107.73 15.12Q107.14 16.67 106.49 18.49L106.55 18.55L106.55 18.55Q102.91 19.82 98.65 20.01L98.62 19.99L98.56 19.92Q98.47 25.05 98.47 30.00L98.38 29.91L98.40 29.93Q98.41 34.89 98.71 39.87ZM108.60 14.62L108.53 14.55L108.53 14.55Q102.65 16.79 96.45 16.60L96.54 16.69L96.56 16.71Q89.74 16.36 84.64 13.39L84.76 13.52L84.79 13.54Q85.41 14.69 86.70 17.96L86.71 17.97L86.84 18.11Q87.34 18.26 88.60 18.83L88.59 18.82L88.63 18.87Q88.95 19.64 89.29 21.16L89.23 21.11L89.30 21.17Q91.56 21.98 94.60 22.21L94.69 22.30L94.68 22.29Q94.95 25.87 94.95 29.64L94.94 29.63L95.00 29.69Q95.04 35.09 94.24 40.46L94.29 40.51L94.25 40.47Q95.82 40.26 96.36 40.26L96.35 40.25L96.41 40.31Q96.43 40.63 96.37 41.30L96.25 41.18L96.35 41.28Q96.19 41.85 96.19 42.19L96.24 42.24L96.31 42.30Q97.50 42.24 99.02 42.31L98.93 42.22L98.90 42.20Q99.98 42.40 101.81 42.55L101.72 42.46L101.68 42.42Q100.52 37.57 100.41 32.39L100.32 32.31L100.32 32.31Q100.34 27.15 100.87 22.24L100.72 22.09L100.86 22.23Q104.84 21.71 108.00 20.49L107.96 20.45L107.84 20.33Q108.60 18.01 109.63 15.96L109.64 15.97L109.66 15.99Q108.38 16.72 107.58 17.03L107.43 16.88L107.46 16.91Q107.85 15.58 108.42 14.44Z"/><path fill="#222" d="M121.36 30.45L121.37 30.46L121.45 30.54Q117.90 36.81 114.47 40.77L114.38 40.68L114.48 40.78Q112.61 41.19 110.17 42.07L110.19 42.08L110.11 42.01Q115.11 36.50 119.87 28.09L119.88 28.09L119.83 28.04Q115.25 21.11 109.28 14.71L109.15 14.59L109.30 14.74Q112.15 15.87 114.43 16.37L114.40 16.34L114.52 16.45Q119.03 21.53 121.46 25.49L121.42 25.44L121.50 25.53Q124.00 21.10 127.92 16.68L127.99 16.75L127.98 16.74Q129.49 16.35 132.69 15.59L132.77 15.67L132.72 15.62Q126.74 22.16 123.27 28.10L123.26 28.08L123.13 27.95Q128.44 36.77 132.82 41.34L132.83 41.35L132.77 41.28Q130.17 40.48 128.08 40.25L127.97 40.14L128.04 40.21Q125.25 37.23 121.33 30.42ZM128.03 40.62L127.92 40.51L127.94 40.53Q128.35 40.67 128.80 40.79L128.78 40.77L128.71 40.70Q129.60 41.54 131.12 43.14L131.02 43.04L130.97 43.00Q134.32 43.79 137.36 45.16L137.48 45.27L137.54 45.33Q130.27 38.59 125.16 29.84L125.20 29.88L125.20 29.88Q128.90 23.18 134.80 16.33L134.85 16.38L134.78 16.31Q133.52 17.14 131.35 17.68L131.33 17.66L131.35 17.68Q132.09 16.62 133.84 14.83L133.79 14.79L133.79 14.79Q131.41 15.68 127.72 16.25L127.86 16.39L127.84 16.38Q124.42 20.19 121.83 24.49L121.82 24.48L121.80 24.45Q120.77 22.74 119.59 21.25L119.71 21.37L117.39 18.41L116.96 18.36L116.95 18.35Q116.85 18.40 116.62 18.33L116.66 18.36L116.67 18.37Q115.85 17.41 114.37 15.84L114.53 16.01L114.43 15.91Q110.64 15.04 108.05 13.67L108.13 13.75L108.00 13.63Q114.78 20.94 119.35 27.98L119.43 28.06L119.36 27.99Q114.95 36.26 109.20 42.85L109.13 42.77L109.07 42.72Q110.52 42.18 112.65 41.61L112.57 41.53L111.27 42.97L111.39 43.09Q111.31 43.01 109.97 44.34L109.88 44.25L109.92 44.29Q112.90 43.20 116.06 42.70L116.16 42.80L116.23 42.87Q120.20 38.31 122.79 33.55L122.74 33.50L122.77 33.54Q125.29 37.73 128.00 40.59Z"/><path fill="#333" d="M30.70 23.36L30.67 23.33L30.55 23.21Q28.82 19.13 22.62 19.32L22.76 19.45L22.62 19.32Q18.34 19.57 16.36 21.02L16.39 21.05L16.24 20.89Q13.86 22.67 13.86 26.78L13.88 26.79L13.86 28.64L13.91 28.69Q13.84 37.46 22.87 37.46L22.92 37.51L22.94 37.53Q24.99 37.53 26.48 36.73L26.39 36.64L26.53 36.78Q28.40 35.79 28.24 33.93L28.20 33.88L28.23 33.91Q27.93 31.70 24.23 30.79L24.23 30.78L22.27 30.76L22.26 30.76Q21.46 30.91 20.51 30.95L20.46 30.90L20.51 30.95Q20.41 29.90 20.38 28.00L20.45 28.08L20.46 28.09Q27.96 27.93 32.15 27.59L32.14 27.59L32.20 27.64Q32.22 28.54 32.22 29.34L32.10 29.22L32.14 29.25Q32.24 30.15 32.28 30.95L32.18 30.86L32.22 30.90Q31.04 30.82 31.04 30.82L31.14 30.92L31.19 30.97Q29.79 30.94 30.17 30.94L30.12 30.89L30.05 30.82Q31.17 32.48 31.55 34.46L31.52 34.42L31.57 34.47Q31.73 35.24 31.73 35.70L31.71 35.68L31.75 35.72Q31.63 40.24 22.83 40.24L22.92 40.33L22.99 40.40Q15.68 40.21 13.09 38.11L13.27 38.29L13.17 38.20Q11.11 35.75 11.11 30.69L11.25 30.82L11.12 30.69Q11.21 29.72 11.06 27.02L10.98 26.94L11.04 27.01Q10.89 24.64 10.93 23.27L10.97 23.31L10.98 23.32Q10.96 20.34 12.33 18.74L12.49 18.89L12.37 18.77Q14.98 16.78 19.85 16.59L19.89 16.63L22.43 16.42L22.56 16.56Q25.60 16.40 29.03 16.82L28.95 16.73L29.12 16.91Q32.79 17.30 33.74 20.54L33.69 20.49L33.66 20.46Q32.77 21.51 30.67 23.34ZM32.04 25.51L32.08 25.43L32.18 25.53Q33.31 24.37 35.17 22.39L35.18 22.40L35.10 22.32Q34.84 21.41 33.85 19.70L33.85 19.70L33.98 19.83Q32.71 17.07 28.90 16.42L28.95 16.47L29.00 16.53Q26.85 16.39 22.55 16.09L22.60 16.13L19.77 16.12L19.86 16.21Q14.71 16.43 12.12 18.41L12.10 18.39L11.98 18.28Q10.70 20.00 10.58 23.08L10.58 23.07L10.57 23.06Q10.64 22.68 10.87 28.16L10.89 28.19L10.82 28.11Q10.92 29.54 10.99 32.28L10.92 32.21L11.00 32.29Q11.09 36.64 12.84 38.58L12.77 38.52L12.78 38.52Q13.22 39.42 14.09 40.30L14.19 40.39L14.16 40.36Q16.93 42.10 22.45 42.45L22.54 42.54L25.34 42.63L25.39 42.68Q27.02 42.83 29.04 42.71L29.11 42.78L29.11 42.79Q30.57 42.73 32.67 42.19L32.59 42.12L32.65 42.18Q34.47 41.56 34.44 39.24L34.43 39.24L34.48 39.29Q34.44 37.99 33.37 35.21L33.48 35.32L33.47 35.30Q33.06 34.29 32.53 33.49L32.49 33.45L32.62 33.58Q33.11 33.50 34.29 33.69L34.37 33.77L34.34 33.74Q33.98 30.07 34.02 29.38L34.12 29.49L34.16 29.52Q33.65 29.39 33.23 29.35L33.24 29.36L33.29 29.42Q32.82 29.29 32.44 29.36L32.45 29.37L32.45 29.37Q32.60 28.43 32.68 27.36L32.69 27.37L32.57 27.25Q26.30 27.76 20.02 27.64L20.07 27.69L19.96 27.58Q20.01 28.51 20.01 29.43L20.17 29.58L20.17 31.33L20.14 31.31Q20.44 31.23 20.86 31.19L20.86 31.19L20.95 31.27Q21.26 31.17 21.71 31.17L21.80 31.25L21.82 31.27Q21.66 31.57 21.70 32.07L21.77 32.14L21.79 32.16Q21.74 32.57 21.71 33.06L21.67 33.03L21.70 33.06Q22.84 33.13 23.87 33.09L23.79 33.01L23.88 33.10Q24.85 33.04 25.88 33.08L25.96 33.16L25.82 33.03Q26.99 33.39 27.86 33.77L27.83 33.74L27.78 33.73L27.88 33.82Q28.04 35.36 26.37 36.28L26.23 36.14L26.37 36.28Q24.57 37.07 22.86 37.07L22.91 37.12L22.84 37.05Q19.18 37.24 16.75 35.49L16.71 35.45L16.59 35.33Q15.79 33.46 15.94 30.91L15.93 30.91L15.91 30.89Q16.10 25.97 17.95 23.98L17.94 23.97L18.07 24.10Q19.90 22.08 24.58 21.77L24.57 21.76L24.51 21.71Q28.11 21.42 30.05 23.21L30.18 23.34L30.16 23.32Q30.14 23.34 30.26 23.53L30.22 23.49L30.43 23.59L30.39 23.55Q31.07 24.34 31.64 25.45L31.62 25.42L32.09 25.55Z"/></svg>