<svg xmlns="http://www.w3.org/2000/svg" width="150" height="50" viewBox="0,0,150,50"><path fill="#333" d="M70.07 39.97L69.94 39.85L70.05 39.95Q65.91 39.43 64.09 37.99L63.98 37.88L64.04 37.94Q62.26 36.54 61.84 33.53L61.78 33.47L61.79 33.48Q61.65 33.00 61.31 28.24L61.38 28.31L61.46 28.39Q61.55 27.26 61.47 26.01L61.41 25.95L61.46 26.00Q61.15 20.81 63.36 19.06L63.39 19.09L63.43 19.13Q66.13 17.08 73.90 16.39L73.83 16.33L73.85 16.34Q75.16 16.16 76.79 16.20L76.81 16.22L76.83 16.24Q76.78 16.19 79.75 16.19L79.72 16.16L79.86 16.30Q80.64 16.24 82.36 16.40L82.29 16.33L82.30 16.34Q81.90 17.39 80.87 20.47L80.74 20.34L80.72 20.32Q78.62 19.09 75.61 19.09L75.64 19.12L75.69 19.17Q74.91 19.15 74.11 19.23L74.22 19.34L74.07 19.19Q69.12 19.80 66.61 21.78L66.44 21.61L66.46 21.63Q64.59 23.37 64.43 26.72L64.31 26.60L64.43 26.72Q64.35 27.28 64.39 28.54L64.42 28.58L64.28 28.43Q64.37 33.24 66.77 35.34L66.82 35.39L66.90 35.47Q69.10 37.45 74.09 37.75L74.01 37.67L73.96 37.61Q77.22 37.91 80.23 36.12L80.22 36.11L80.14 36.03Q80.74 38.77 81.35 40.14L81.31 40.09L81.34 40.12Q79.18 40.32 77.54 40.29L77.62 40.36L77.67 40.41Q73.13 40.29 70.01 39.91ZM85.07 43.59L85.10 43.62L85.20 43.72Q83.26 40.56 82.58 37.98L82.74 38.13L82.63 38.03Q82.24 38.32 81.25 38.70L81.29 38.74L81.18 38.63Q80.93 37.92 80.74 37.09L80.73 37.08L80.38 35.40L80.32 35.33Q77.04 37.38 73.92 37.27L73.93 37.28L73.89 37.24Q69.65 37.07 67.33 35.32L67.36 35.35L67.40 35.40Q66.15 33.47 66.23 30.53L66.26 30.56L66.31 30.62Q66.38 26.04 68.85 23.90L68.94 24.00L68.86 23.92Q71.03 22.05 75.71 21.44L75.78 21.50L75.78 21.51Q76.51 21.32 77.23 21.32L77.27 21.36L77.35 21.44Q79.99 21.31 82.09 22.83L82.19 22.93L82.18 22.92Q82.70 20.81 83.92 17.57L83.90 17.56L83.76 17.42Q83.60 17.53 83.05 17.47L83.02 17.44L82.93 17.35Q82.46 17.38 82.19 17.38L82.15 17.33L82.11 17.30Q82.35 16.81 82.81 15.82L82.88 15.89L82.83 15.84Q82.54 15.78 80.05 15.71L80.23 15.88L80.05 15.71Q77.58 15.65 76.93 15.69L76.99 15.75L77.08 15.84Q66.40 16.01 62.93 18.60L63.08 18.75L62.94 18.60Q60.91 20.42 60.91 24.34L60.98 24.41L60.96 24.39Q61.00 25.53 61.11 28.23L61.19 28.31L61.13 28.26Q61.19 31.73 61.41 33.45L61.39 33.42L61.49 33.53Q61.93 36.71 63.53 38.23L63.37 38.06L63.49 38.19Q63.84 38.73 65.10 39.87L65.09 39.87L65.18 39.96Q68.51 41.79 73.76 42.56L73.76 42.56L73.81 42.61Q80.21 43.53 85.20 43.72Z"/><path fill="#333" d="M29.62 37.85L29.77 38.00L29.63 37.86Q29.94 38.86 30.47 40.88L30.52 40.92L30.49 40.89Q26.37 39.67 21.77 39.93L21.74 39.91L21.71 39.88Q17.11 40.11 13.11 42.09L13.16 42.14L13.19 42.17Q13.38 41.45 13.42 41.52L13.42 41.52L13.40 41.50Q17.14 37.55 21.06 33.14L21.09 33.17L20.94 33.02Q25.41 28.09 26.59 23.40L26.54 23.36L26.69 23.51Q26.99 21.59 25.71 20.41L25.76 20.46L25.79 20.49Q24.45 19.24 22.66 19.40L22.84 19.58L22.69 19.42Q22.43 19.47 22.09 19.47L22.10 19.49L22.08 19.47Q20.57 19.48 19.32 20.39L19.38 20.45L19.36 20.44Q17.98 21.72 18.20 24.38L18.25 24.42L18.31 24.49Q16.40 24.02 15.18 23.57L15.12 23.51L15.19 23.58Q15.11 22.28 15.03 20.83L14.98 20.78L14.94 20.74Q14.95 19.19 15.56 18.05L15.50 17.99L15.55 18.03Q17.29 16.62 20.64 16.62L20.57 16.54L22.42 16.64L22.43 16.66Q24.66 16.64 25.61 16.75L25.62 16.76L25.55 16.69Q29.93 17.15 30.20 19.59L30.13 19.52L30.24 19.63Q30.32 20.20 30.24 21.00L30.28 21.04L30.29 21.05Q30.20 21.65 30.05 22.33L30.06 22.34L30.08 22.37Q28.34 30.37 20.76 37.22L20.89 37.35L20.75 37.21Q22.31 37.20 23.68 37.20L23.50 37.02L23.51 37.04Q26.81 37.09 29.66 37.89ZM29.18 17.16L29.07 17.05L29.14 17.12Q27.58 16.51 25.86 16.43L25.87 16.44L22.34 16.14L22.40 16.21Q17.83 15.82 15.62 16.92L15.66 16.97L15.67 16.97Q14.60 18.34 14.60 20.40L14.59 20.38L14.60 20.39Q14.74 21.23 15.05 24.04L14.94 23.93L15.08 24.07Q15.61 24.30 16.79 24.60L16.69 24.50L16.73 25.57L16.59 25.43Q16.60 25.93 16.67 26.47L16.81 26.60L16.79 26.58Q17.94 26.59 20.41 26.81L20.50 26.91L20.51 26.92Q20.52 26.58 20.52 26.24L20.52 26.24L20.48 26.20Q20.46 24.35 21.68 23.00L21.72 23.04L21.67 23.00Q22.80 21.55 24.59 21.67L24.67 21.75L24.66 21.74Q25.50 21.85 26.26 22.01L26.11 21.86L26.22 21.96Q26.26 22.27 26.33 22.69L26.45 22.80L26.29 22.64Q26.33 23.06 26.25 23.40L26.31 23.47L26.30 23.45Q25.00 28.17 20.58 33.00L20.71 33.13L20.73 33.15Q18.57 35.37 13.13 41.42L13.06 41.36L13.15 41.44Q12.84 42.17 12.50 42.74L12.55 42.78L12.62 42.86Q14.23 41.99 15.75 41.45L15.75 41.46L15.63 41.34Q14.89 41.89 13.94 43.38L13.92 43.36L13.97 43.40Q13.83 43.72 13.71 44.06L13.76 44.11L13.79 44.14Q18.70 42.12 24.18 42.31L24.17 42.30L24.03 42.16Q29.74 42.36 34.31 44.72L34.33 44.74L33.33 42.59L33.38 42.65Q32.78 41.36 32.52 40.56L32.51 40.55L32.49 40.53Q31.81 40.16 30.59 39.74L30.52 39.66L30.57 39.72Q30.27 38.85 29.89 37.48L29.92 37.51L29.91 37.49Q27.85 37.07 25.56 36.88L25.50 36.81L25.53 36.85Q30.16 32.23 31.69 23.97L31.60 23.88L31.97 21.17L31.86 21.06Q31.77 19.26 30.55 18.57L30.64 18.66L30.47 18.53L30.52 18.58Q30.46 18.48 30.38 18.48L30.50 18.59L30.51 18.60Q30.25 17.73 29.14 17.12Z"/><path fill="#222" d="M99.95 29.44L99.98 29.48L100.05 29.55Q98.87 28.79 98.23 28.82L98.09 28.68L98.17 28.77Q96.89 28.94 95.85 29.95L95.70 29.80L95.71 29.81Q94.67 30.83 94.79 32.20L94.85 32.26L94.89 32.30Q95.12 36.56 94.24 41.10L94.21 41.06L94.21 41.06Q92.03 41.54 90.92 42.08L90.87 42.02L90.95 42.10Q92.43 37.91 92.20 33.46L92.24 33.50L92.21 33.47Q91.92 28.91 90.21 24.84L90.34 24.97L90.34 24.97Q91.49 25.67 93.77 26.31L93.72 26.26L94.33 29.00L94.16 28.83Q94.84 25.93 99.11 25.93L99.24 26.07L99.16 25.99Q99.56 25.93 99.86 25.93L99.93 25.99L99.88 25.95Q101.16 25.93 102.42 26.62L102.50 26.70L102.38 26.58Q101.10 27.97 99.96 29.45ZM101.53 31.40L101.77 31.49L101.64 31.36Q102.69 30.35 104.36 27.91L104.32 27.87L104.22 27.77Q103.80 27.47 102.27 27.20L102.23 27.15L102.27 27.20Q102.59 26.87 103.05 26.26L103.00 26.22L103.05 26.26Q101.24 25.44 99.30 25.63L99.15 25.48L99.16 25.49Q97.35 25.81 96.62 26.08L96.59 26.04L96.60 26.05Q95.25 26.53 94.45 27.63L94.31 27.49L94.13 26.67L94.05 25.95L93.92 25.81Q91.61 25.48 89.63 24.15L89.53 24.05L89.57 24.09Q91.65 28.42 91.88 33.29L91.87 33.28L91.90 33.31Q92.19 38.28 90.44 42.82L90.54 42.91L90.51 42.88Q91.53 42.34 92.40 42.03L92.43 42.06L92.34 41.97Q92.05 43.06 91.56 44.12L91.53 44.09L91.63 44.20Q94.46 43.33 96.60 43.22L96.51 43.14L96.82 38.73L96.81 38.71Q97.00 36.54 97.00 34.30L96.92 34.21L96.90 34.20Q96.98 33.10 97.90 32.13L97.88 32.11L97.88 32.11Q98.79 31.13 99.93 31.06L99.91 31.04L99.84 30.97Q100.57 30.94 101.30 31.63L101.21 31.54L101.64 31.52ZM96.58 29.65L96.73 29.73L96.53 29.64L96.70 29.77Z"/><path fill="#111" d="M120.19 29.76L120.13 29.70L120.12 29.68Q115.93 29.50 115.36 32.54L115.49 32.67L115.48 32.66Q115.29 33.73 115.48 34.60L115.45 34.57L115.48 34.60Q115.31 35.20 115.77 36.60L115.91 36.74L115.84 36.68Q116.99 39.92 120.30 39.76L120.36 39.83L120.23 39.69Q122.25 39.77 123.58 38.21L123.61 38.24L123.61 38.24Q124.81 36.73 124.81 34.68L124.85 34.72L124.88 34.75Q125.00 34.14 124.84 33.08L124.78 33.01L124.83 33.07Q124.67 32.07 124.25 31.38L124.25 31.38L124.26 31.39Q122.78 29.87 120.19 29.76ZM125.01 48.20L125.02 48.22L125.04 48.23Q123.21 48.80 115.14 49.18L115.03 49.08L115.13 49.18Q113.45 49.24 111.81 48.40L111.87 48.47L111.74 48.34Q112.67 47.47 114.49 45.68L114.44 45.63L114.44 45.63Q116.87 46.68 118.96 46.49L118.99 46.52L118.86 46.40Q121.74 46.11 122.58 45.85L122.71 45.98L122.73 46.00Q124.82 45.16 124.82 43.37L125.00 43.56L124.84 43.39Q124.98 43.31 124.91 43.08L124.79 42.96L124.80 41.49L124.76 41.45Q124.72 40.64 124.72 39.84L124.81 39.93L124.82 39.94Q123.39 42.13 120.00 42.13L120.02 42.15L120.00 42.13Q115.98 42.00 114.35 39.79L114.47 39.91L114.52 39.96Q113.30 38.32 112.50 33.90L112.47 33.88L112.59 33.99Q112.27 32.45 112.27 31.05L112.24 31.02L112.30 31.08Q112.17 29.16 113.09 28.17L113.17 28.26L113.08 28.16Q114.88 26.88 119.52 26.88L119.43 26.78L121.31 27.11L121.29 27.09Q124.51 27.45 125.84 29.39L125.76 29.31L125.71 29.26Q125.91 28.43 126.32 26.79L126.37 26.84L126.33 26.80Q128.25 26.51 130.01 25.79L129.91 25.70L130.00 25.78Q127.33 31.87 127.33 39.10L127.21 38.99L127.22 39.00Q127.36 41.80 127.75 44.43L127.70 44.39L127.72 44.40Q127.87 45.05 127.79 45.73L127.70 45.64L127.76 45.70Q127.67 47.17 126.45 47.93L126.37 47.85L126.27 47.75Q125.83 48.08 125.00 48.19ZM128.03 51.19L128.06 51.21L127.98 51.13Q129.54 51.29 130.30 50.34L130.24 50.27L130.20 50.24Q130.65 49.39 130.54 48.67L130.47 48.61L130.38 48.51Q130.41 48.00 130.21 47.24L130.11 47.14L130.14 47.17Q129.05 42.08 129.39 36.82L129.27 36.70L129.27 36.70Q129.54 31.18 131.67 26.35L131.77 26.45L129.76 27.49L129.62 27.35Q129.81 26.70 130.03 26.12L130.17 26.26L130.69 25.14L130.54 24.99Q128.28 26.05 126.07 26.47L126.06 26.45L125.99 26.38Q125.73 27.31 125.58 28.33L125.63 28.38L125.59 28.34Q123.46 26.40 119.42 26.40L119.53 26.51L117.65 26.38L117.67 26.39Q114.49 26.45 112.81 27.86L112.71 27.75L112.80 27.85Q111.92 28.87 111.96 30.77L111.83 30.65L111.99 30.80Q111.98 33.23 113.00 37.49L112.97 37.45L113.08 37.57Q113.39 39.32 114.60 40.73L114.62 40.75L114.89 41.01L114.96 41.09L114.93 41.06Q116.22 43.53 118.81 44.06L118.84 44.09L118.81 44.06Q120.18 44.32 121.62 44.36L121.60 44.34L121.66 44.40Q123.40 44.42 124.47 44.04L124.44 44.02L124.33 43.91Q123.82 45.57 121.16 45.91L121.10 45.85L121.21 45.96Q120.05 46.02 119.36 46.02L119.34 46.00L118.94 45.98L119.05 46.09Q116.15 46.01 114.48 45.06L114.54 45.12L112.87 46.87L112.77 46.78Q112.01 47.69 111.17 48.64L111.11 48.58L111.21 48.68Q112.11 49.12 113.09 49.31L113.02 49.23L112.16 50.13L112.16 50.12Q114.96 51.29 120.60 51.29L120.53 51.22L120.82 51.29L120.84 51.31Q124.35 51.20 127.93 51.08ZM122.05 32.03L122.10 32.08L122.00 31.98Q123.40 32.02 124.32 32.44L124.21 32.33L124.29 32.41Q124.49 32.92 124.57 33.60L124.47 33.51L124.61 33.64Q124.67 33.97 124.63 34.88L124.57 34.82L124.51 34.76Q124.55 36.78 123.45 38.08L123.40 38.03L123.43 38.06Q122.21 39.43 120.31 39.39L120.24 39.32L120.37 39.45Q118.90 39.35 118.06 38.94L118.06 38.93L117.93 38.80Q117.61 37.72 117.57 36.69L117.55 36.67L117.63 36.75Q117.40 32.30 122.01 31.99Z"/><path fill="#222" d="M47.21 41.32L47.34 41.45L47.19 41.30Q44.35 41.51 43.09 40.97L43.16 41.04L43.21 41.09Q41.12 40.14 41.20 37.67L41.16 37.63L41.18 37.65Q41.41 34.34 41.41 34.91L41.41 34.91L41.47 34.97Q41.48 29.65 38.63 24.82L38.56 24.76L38.55 24.74Q40.48 25.64 42.46 26.02L42.47 26.04L42.53 26.10Q44.19 30.65 44.07 35.14L44.09 35.16L44.12 35.19Q43.97 36.68 44.81 37.90L44.78 37.86L44.78 37.86Q45.65 39.16 47.18 38.97L47.22 39.01L47.61 38.91L47.70 39.00Q49.02 38.90 49.83 38.14L49.65 37.96L49.80 38.10Q50.56 37.28 50.56 36.33L50.57 36.35L50.50 36.28Q50.63 36.17 50.59 35.98L50.63 36.02L50.50 35.89Q50.47 30.68 51.61 26.34L51.67 26.40L51.62 26.35Q52.62 26.25 53.61 26.02L53.62 26.03L55.68 25.58L55.68 25.58Q53.00 30.48 53.31 36.04L53.46 36.19L53.48 36.21Q53.67 39.29 51.95 40.43L51.92 40.40L51.90 40.37Q50.57 41.22 47.26 41.37ZM49.67 43.86L49.50 43.68L49.66 43.85Q53.14 44.01 54.97 43.25L54.86 43.15L54.94 43.22Q55.86 42.47 55.86 41.06L55.81 41.01L55.70 40.90Q55.78 40.07 55.52 38.51L55.58 38.58L55.43 38.43Q54.98 35.31 55.36 32.30L55.46 32.40L55.46 32.40Q55.85 29.25 57.26 26.51L57.19 26.44L57.18 26.43Q56.54 26.75 55.21 27.16L55.22 27.17L55.33 27.29Q55.47 26.59 55.78 26.02L55.75 25.99L56.43 24.96L56.36 24.89Q54.32 25.44 51.16 25.94L51.35 26.12L51.17 25.94Q50.10 30.89 50.25 35.99L50.21 35.94L50.20 35.94Q50.18 37.94 47.52 38.43L47.64 38.55L47.24 38.61L47.16 38.68L46.08 38.41L46.22 38.55Q46.13 37.66 46.17 37.16L46.15 37.14L46.07 37.05Q46.36 32.63 45.68 28.22L45.65 28.19L44.57 28.03L44.62 28.07Q43.94 27.89 43.41 27.78L43.57 27.94L43.43 27.79Q43.09 26.43 42.82 25.67L42.89 25.74L42.76 25.60Q40.13 25.33 37.88 24.04L37.80 23.95L37.83 23.98Q39.91 27.43 40.63 30.82L40.72 30.91L40.59 30.78Q41.13 33.04 40.98 36.54L40.99 36.55L41.11 36.67Q41.01 36.68 40.94 37.79L41.06 37.91L41.06 37.92Q40.88 40.24 42.25 41.19L42.13 41.08L42.17 41.12Q42.64 43.45 49.64 43.83Z"/></svg>