<svg xmlns="http://www.w3.org/2000/svg" width="150" height="50" viewBox="0,0,150,50"><path fill="#333" d="M87.74 14.40L87.67 14.33L87.71 14.37Q91.48 16.88 96.23 17.10L96.27 17.14L96.31 17.18Q100.79 17.20 105.05 15.45L105.10 15.50L105.10 15.50Q104.86 16.06 104.10 18.84L104.07 18.81L104.04 18.78Q101.28 19.79 98.31 19.94L98.38 20.01L98.29 19.92Q95.40 20.16 92.51 19.43L92.54 19.46L92.47 19.39Q93.13 22.99 93.32 26.64L93.43 26.75L93.41 26.73Q95.35 26.88 96.95 26.84L97.07 26.96L97.04 26.94Q98.18 26.85 100.57 26.74L100.63 26.79L100.61 26.77Q100.61 27.45 100.61 28.14L100.65 28.18L100.64 29.51L100.62 29.49Q98.20 29.46 93.40 29.54L93.34 29.47L93.38 29.52Q93.36 33.61 92.79 37.60L92.84 37.66L92.90 37.72Q95.50 37.04 98.24 37.16L98.18 37.09L98.15 37.07Q100.91 37.20 103.50 38.04L103.48 38.02L103.54 38.08Q103.46 38.72 103.73 39.49L103.79 39.54L104.33 41.15L104.29 41.12Q101.17 39.90 97.75 39.90L97.75 39.90L97.67 39.83Q92.87 39.90 88.61 42.14L88.57 42.10L88.57 42.11Q90.84 35.24 90.58 28.12L90.51 28.06L90.55 28.09Q90.23 20.88 87.56 14.22ZM88.12 42.87L88.10 42.85L88.03 42.78Q89.24 42.01 90.00 41.67L90.06 41.73L90.07 41.74Q89.82 42.44 89.25 43.96L89.30 44.01L89.36 44.07Q93.85 42.05 98.91 42.32L98.87 42.28L98.96 42.37Q104.00 42.54 108.00 45.24L108.03 45.27L108.00 45.24Q106.82 42.69 106.14 40.75L106.16 40.77L106.24 40.85Q105.28 40.27 104.29 39.93L104.12 39.76L104.28 39.92Q103.88 38.53 103.73 37.73L103.69 37.69L103.75 37.75Q100.67 36.76 97.51 36.76L97.36 36.62L97.51 36.76Q96.37 36.77 95.23 36.89L95.06 36.72L95.11 36.76Q95.21 35.49 95.25 34.28L95.23 34.26L95.40 31.84L95.33 31.77Q97.15 31.68 98.94 31.72L99.00 31.78L99.08 31.87Q100.73 31.73 102.52 31.88L102.57 31.93L102.69 32.05Q102.52 31.00 102.52 30.05L102.51 30.05L102.51 28.14L101.72 28.23L101.79 28.30Q101.28 28.28 100.82 28.28L100.86 28.32L100.83 28.29Q100.80 27.57 100.95 26.27L100.97 26.29L100.97 26.29Q99.31 26.47 98.13 26.50L98.17 26.54L98.32 26.69Q97.26 26.58 95.43 26.51L95.51 26.59L95.53 26.60Q95.38 25.12 95.19 22.30L95.17 22.29L95.09 22.21Q96.27 22.47 97.26 22.47L97.11 22.32L97.27 22.48Q102.02 22.51 105.71 20.61L105.66 20.55L105.69 20.58Q106.20 18.16 107.07 15.95L107.11 15.99L106.97 15.85Q105.67 16.71 104.83 17.06L104.86 17.09L104.94 17.17Q105.18 16.34 105.64 14.78L105.68 14.83L105.74 14.89Q100.93 16.85 96.06 16.54L96.17 16.66L96.04 16.53Q90.83 16.31 86.99 13.45L86.90 13.37L86.94 13.41Q89.89 20.43 90.20 28.05L90.23 28.08L90.17 28.02Q90.58 36.04 88.07 42.82Z"/><path fill="#333" d="M122.83 32.13L113.56 22.10L113.57 22.11Q114.51 25.91 114.51 29.64L114.35 29.47L114.41 29.54Q114.49 35.59 112.44 41.15L112.29 41.01L112.46 41.17Q111.24 41.28 108.99 42.05L109.01 42.07L109.11 42.16Q111.91 36.36 111.91 29.66L111.85 29.60L111.86 29.61Q111.94 21.05 107.44 13.62L107.47 13.64L107.46 13.64Q107.88 13.79 108.57 14.21L108.60 14.25L108.57 14.21Q120.68 25.45 128.52 34.70L128.50 34.68L128.43 34.61Q128.10 32.14 128.10 29.71L128.15 29.76L128.18 29.79Q128.25 22.62 130.76 16.42L130.59 16.25L130.64 16.30Q132.91 15.71 134.51 15.03L134.56 15.08L134.53 15.04Q131.31 21.31 131.01 28.47L131.06 28.52L130.99 28.45Q130.73 35.85 133.70 42.01L133.55 41.86L133.61 41.92Q133.00 41.81 132.59 41.62L132.68 41.72L132.61 41.64Q128.08 37.72 122.86 32.16L122.94 32.23ZM136.34 45.22L136.26 45.14L136.18 45.06Q136.69 45.27 137.11 45.46L137.19 45.54L138.02 45.87L137.92 45.78Q132.79 38.86 132.79 29.49L132.82 29.52L132.74 29.44Q132.93 22.40 136.24 16.15L136.17 16.08L136.12 16.03Q135.50 16.28 134.09 16.89L134.05 16.85L134.16 16.96Q134.40 15.99 135.24 14.43L135.32 14.50L135.36 14.54Q132.91 15.44 130.47 16.01L130.48 16.02L130.32 15.87Q127.85 22.49 127.85 29.92L127.86 29.93L127.84 29.90Q127.70 31.63 127.89 33.61L128.03 33.75L128.01 33.73Q123.22 27.91 118.46 23.30L118.52 23.37L108.51 13.74L108.53 13.76Q107.83 13.32 106.61 12.75L106.70 12.84L106.74 12.88Q111.49 20.49 111.49 29.59L111.64 29.73L111.52 29.62Q111.53 36.75 108.45 42.76L108.56 42.87L108.42 42.73Q108.76 42.65 110.40 42.05L110.32 41.96L110.41 42.06Q110.03 42.78 109.19 44.27L109.23 44.30L109.28 44.35Q110.56 43.77 114.03 42.97L114.07 43.02L114.14 43.08Q116.48 36.97 116.48 29.78L116.37 29.67L116.40 29.70Q116.37 27.58 116.15 25.45L116.09 25.39L116.11 25.41Q127.64 38.27 136.25 45.13Z"/><path fill="#333" d="M15.18 15.93L15.04 15.79L15.07 15.82Q17.04 20.76 17.61 25.94L17.56 25.89L17.53 25.86Q21.26 21.75 27.16 16.91L27.16 16.91L27.26 17.01Q30.42 16.66 33.04 15.87L33.08 15.90L26.53 21.53L26.50 21.50Q22.94 24.30 20.09 27.16L20.09 27.16L20.09 27.16Q28.15 36.40 33.21 41.12L33.19 41.10L33.17 41.08Q30.09 40.16 27.76 40.01L27.87 40.12L27.78 40.03Q22.07 34.70 17.76 28.87L17.68 28.79L17.64 28.75Q17.83 35.45 15.97 40.78L15.99 40.81L15.97 40.78Q15.81 40.89 15.31 41.08L15.25 41.01L15.13 41.09L15.23 41.18Q15.05 41.24 12.50 42.15L12.52 42.17L12.35 41.99Q15.32 35.45 14.97 27.98L15.13 28.14L14.99 28.00Q14.80 20.81 11.26 14.30L11.13 14.16L11.73 14.50L12.08 14.74L12.14 14.76L12.16 14.77Q12.99 15.26 15.20 15.95ZM15.29 15.47L15.47 15.65L15.46 15.64Q13.09 14.98 10.46 13.46L10.42 13.42L10.48 13.48Q14.86 20.87 14.86 29.81L14.72 29.67L14.68 29.63Q14.78 36.73 11.81 42.79L11.74 42.72L13.78 41.86L13.77 41.85Q13.52 43.02 12.84 44.31L12.84 44.32L12.80 44.27Q15.07 43.50 17.01 43.08L16.86 42.93L17.01 42.85L16.95 42.79Q17.20 42.73 17.77 42.58L17.85 42.66L17.85 42.66Q19.43 36.66 19.54 31.87L19.53 31.86L19.62 31.95Q21.74 34.48 23.56 36.34L23.62 36.40L23.52 36.30Q24.77 37.48 27.78 40.45L27.66 40.33L27.70 40.37L27.84 40.50Q28.65 41.12 30.51 42.72L30.66 42.87L30.60 42.81Q34.49 43.54 37.95 45.25L37.95 45.25L38.02 45.32Q28.64 36.66 22.40 29.24L22.49 29.33L22.34 29.18Q26.79 24.95 35.55 16.35L35.61 16.41L35.62 16.42Q33.00 17.50 30.98 17.88L30.99 17.88L31.09 17.98Q32.19 16.88 34.51 14.86L34.60 14.95L34.60 14.95Q30.40 16.27 27.05 16.46L27.15 16.55L27.08 16.49Q24.17 18.72 19.30 23.40L19.21 23.31L19.24 23.34Q18.89 20.79 18.32 18.24L18.36 18.27L18.38 18.29Q17.27 18.21 16.28 17.87L16.10 17.69L16.15 17.74Q15.90 16.96 15.33 15.51Z"/><path fill="#333" d="M70.43 29.88L70.47 29.92L70.47 29.92Q70.23 29.91 69.93 29.91L69.92 29.90L69.81 29.79Q68.56 29.87 67.11 30.71L67.15 30.75L67.01 30.61Q65.71 31.75 65.71 33.65L65.65 33.59L65.73 33.68Q65.70 37.07 67.23 38.40L67.20 38.38L67.33 38.50Q68.13 39.53 70.41 39.53L70.43 39.55L70.40 39.52Q70.72 39.62 71.03 39.62L71.11 39.70L71.17 39.76Q72.74 39.62 73.88 37.98L73.97 38.06L74.01 38.11Q74.99 36.53 74.91 34.74L74.96 34.79L74.84 34.67Q75.00 34.30 75.00 33.88L75.02 33.90L74.93 33.81Q74.94 32.03 73.57 30.87L73.51 30.81L73.65 30.95Q72.16 29.67 70.37 29.82ZM74.98 40.11L74.92 40.04L74.96 40.08Q73.87 41.93 70.14 42.04L70.29 42.19L70.11 42.01Q66.82 42.22 65.22 40.62L65.15 40.55L65.08 40.49Q63.76 38.85 62.96 34.06L62.99 34.09L62.85 33.95Q62.58 32.23 62.58 30.97L62.61 31.01L62.69 31.09Q62.66 29.26 63.38 28.20L63.38 28.20L63.26 28.08Q64.74 26.82 67.71 26.82L67.67 26.78L67.68 26.79Q73.95 26.74 75.86 29.33L75.99 29.46L75.99 29.47Q76.08 28.57 76.50 26.97L76.60 27.07L76.54 27.00Q77.72 26.63 80.16 25.83L80.30 25.97L80.28 25.95Q77.68 31.42 77.45 37.74L77.45 37.73L77.49 37.78Q77.33 44.01 79.46 49.84L79.40 49.77L79.46 49.83Q77.77 49.25 75.98 48.98L75.89 48.89L75.88 48.88Q74.94 44.90 74.83 39.95ZM75.67 49.24L75.70 49.28L75.77 49.34Q76.50 49.50 77.91 49.81L77.74 49.64L77.81 49.71Q78.09 50.49 78.66 51.89L78.53 51.76L78.53 51.76Q81.28 52.64 83.56 53.94L83.58 53.96L83.40 53.78Q79.44 47.26 79.44 38.73L79.45 38.75L79.47 38.77Q79.44 32.38 81.91 26.59L81.89 26.57L81.97 26.65Q81.15 26.82 79.78 27.46L79.81 27.50L79.85 27.54Q80.23 26.82 80.88 25.26L80.72 25.09L80.87 25.25Q79.28 25.75 76.08 26.62L76.06 26.60L76.17 26.71Q75.99 27.22 75.68 28.40L75.58 28.29L75.68 28.39Q73.71 26.54 67.58 26.38L67.56 26.37L67.53 26.34Q64.25 26.17 62.88 27.66L63.02 27.80L62.94 27.72Q62.14 28.83 62.18 30.73L62.33 30.88L62.33 30.88Q62.37 33.81 63.36 37.58L63.38 37.60L63.40 37.62Q63.99 39.96 64.90 40.91L64.86 40.87L65.20 41.21L65.29 41.31Q66.37 43.98 71.82 44.21L71.82 44.22L71.95 44.34Q72.92 44.33 74.75 44.02L74.74 44.01L74.70 43.98Q75.13 47.03 75.74 49.31ZM72.36 32.23L72.37 32.24L72.28 32.15Q73.37 32.17 74.20 32.48L74.28 32.55L74.24 32.51Q74.47 33.09 74.59 33.70L74.47 33.58L74.55 33.66Q74.68 34.25 74.60 34.86L74.50 34.75L74.57 34.82Q74.62 36.77 73.59 38.07L73.44 37.92L73.41 37.89Q72.33 39.39 70.46 39.20L70.55 39.30L70.43 39.17Q69.26 39.30 68.31 38.88L68.16 38.73L68.20 38.77Q68.01 38.12 68.01 36.90L67.89 36.79L67.90 36.79Q67.77 36.36 67.77 36.05L67.92 36.20L67.90 36.19Q67.87 34.41 69.21 33.25L69.20 33.24L69.19 33.23Q70.51 32.06 72.26 32.14Z"/><path fill="#333" d="M41.74 19.26L41.57 19.08L41.65 19.16Q42.82 23.69 42.98 26.89L42.96 26.87L42.94 26.85Q43.38 26.83 47.76 26.95L47.77 26.95L47.81 27.00Q50.36 27.04 50.74 23.57L50.78 23.61L50.70 23.54Q50.96 21.85 50.04 20.93L49.99 20.88L50.04 20.93Q48.79 20.06 46.81 19.91L46.79 19.89L46.75 19.85Q43.54 19.65 41.68 19.19ZM43.05 28.79L42.97 28.71L43.16 28.89Q43.19 34.75 41.40 40.68L41.40 40.69L41.44 40.73Q40.14 40.99 37.55 42.02L37.64 42.10L37.68 42.14Q40.47 35.61 40.13 28.15L40.02 28.04L40.04 28.06Q39.71 20.68 36.39 14.17L36.41 14.19L36.43 14.21Q41.35 17.08 48.32 17.08L48.36 17.12L48.42 17.18Q53.96 17.08 54.23 20.62L54.20 20.60L54.27 20.66Q54.23 21.16 54.16 21.77L54.16 21.78L54.16 22.99L54.23 23.06Q53.35 26.94 51.22 28.66L51.26 28.70L51.12 28.56Q50.39 29.31 49.36 29.31L49.26 29.21L46.69 29.23L46.71 29.25Q52.37 36.54 56.90 41.11L56.87 41.08L56.87 41.08Q54.75 40.41 51.82 40.07L51.68 39.93L51.79 40.04Q48.01 36.06 43.09 28.83ZM51.58 40.33L51.72 40.47L51.99 40.43L53.26 41.70L53.14 41.58Q53.77 42.17 54.42 42.78L54.51 42.87L54.51 42.88Q57.88 43.31 61.46 45.18L61.45 45.16L61.58 45.30Q54.58 38.49 49.17 31.56L49.16 31.54L50.94 31.58L50.96 31.60Q54.07 31.62 55.40 27.09L55.34 27.03L55.40 27.09Q56.08 24.88 56.08 22.18L56.10 22.19L56.15 22.24Q56.13 19.93 54.41 19.29L54.28 19.15L54.42 19.29Q54.20 18.81 53.63 18.12L53.66 18.15L53.71 18.20Q51.96 16.68 48.30 16.60L48.25 16.55L48.26 16.56Q40.38 16.41 35.70 13.41L35.85 13.55L35.80 13.50Q39.51 20.30 39.86 27.99L39.91 28.04L39.91 28.05Q40.25 36.00 37.13 42.85L37.13 42.85L37.15 42.87Q38.22 42.12 39.02 41.82L39.13 41.92L38.22 44.28L38.07 44.14Q40.81 43.11 43.48 42.61L43.48 42.61L43.44 42.58Q44.79 37.53 44.98 32.31L45.00 32.34L44.91 32.24Q48.41 37.19 51.57 40.31ZM50.41 22.48L50.47 22.53L50.39 22.46Q50.39 22.68 50.39 23.03L50.34 22.98L50.45 23.66L50.50 23.71Q50.44 24.76 49.76 25.71L49.71 25.66L49.75 25.71Q49.14 26.46 48.23 26.65L48.29 26.71L48.30 26.73Q47.97 26.66 46.37 26.70L46.47 26.80L46.41 26.74Q45.75 26.69 44.91 26.58L44.97 26.63L44.89 26.55Q44.79 25.05 44.45 22.00L44.55 22.10L44.55 22.10Q46.00 22.34 46.69 22.34L46.57 22.21L46.64 22.29Q48.51 22.33 50.45 22.52Z"/></svg>