<svg xmlns="http://www.w3.org/2000/svg" width="150" height="50" viewBox="0,0,150,50"><path fill="#222" d="M30.72 23.38L30.59 23.25L30.64 23.30Q28.88 19.18 22.67 19.37L22.74 19.44L22.67 19.37Q18.22 19.44 16.24 20.89L16.40 21.06L16.41 21.06Q13.96 22.76 13.96 26.87L13.97 26.88L13.99 28.77L13.92 28.70Q13.96 37.58 22.99 37.58L22.89 37.48L22.94 37.53Q25.02 37.55 26.50 36.75L26.39 36.64L26.42 36.67Q28.27 35.67 28.12 33.80L28.21 33.89L28.13 33.82Q28.02 31.80 24.33 30.88L24.20 30.76L22.39 30.89L22.23 30.73Q21.34 30.79 20.39 30.83L20.34 30.78L20.51 30.95Q20.44 29.93 20.40 28.03L20.40 28.02L20.32 27.95Q28.06 28.03 32.25 27.69L32.28 27.72L32.31 27.75Q32.15 28.46 32.15 29.26L32.13 29.25L32.11 29.23Q32.22 30.14 32.26 30.94L32.17 30.85L32.29 30.96Q31.11 30.90 31.11 30.90L31.05 30.83L31.12 30.90Q29.73 30.88 30.11 30.88L30.03 30.80L30.11 30.88Q31.28 32.58 31.66 34.56L31.60 34.50L31.53 34.43Q31.62 35.13 31.62 35.59L31.75 35.72L31.75 35.72Q31.77 40.38 22.98 40.38L22.93 40.34L22.84 40.25Q15.87 40.40 13.28 38.31L13.18 38.21L13.22 38.24Q11.27 35.91 11.27 30.85L11.26 30.83L11.15 30.73Q11.18 29.69 11.03 26.99L11.08 27.04L10.98 26.94Q10.91 24.66 10.95 23.29L10.88 23.22L10.92 23.27Q11.04 20.42 12.41 18.82L12.44 18.84L12.37 18.78Q14.95 16.74 19.82 16.55L19.93 16.67L22.56 16.55L22.58 16.57Q25.61 16.41 29.04 16.83L29.08 16.87L29.08 16.87Q32.73 17.24 33.68 20.48L33.79 20.59L33.67 20.47Q32.64 21.39 30.55 23.21ZM31.91 25.37L32.14 25.48L32.20 25.54Q33.35 24.41 35.21 22.43L35.19 22.41L35.25 22.47Q34.85 21.42 33.86 19.71L33.92 19.76L33.92 19.76Q32.64 17.00 28.83 16.35L28.87 16.39L28.86 16.39Q26.86 16.40 22.56 16.10L22.49 16.02L19.84 16.19L19.81 16.16Q14.55 16.28 11.97 18.26L12.02 18.31L12.13 18.42Q10.58 19.88 10.47 22.96L10.50 23.00L10.50 23.00Q10.52 22.56 10.75 28.04L10.83 28.12L10.86 28.16Q10.85 29.48 10.93 32.22L10.83 32.12L10.99 32.28Q11.00 36.56 12.75 38.50L12.84 38.59L12.83 38.58Q13.25 39.45 14.13 40.33L14.00 40.21L14.13 40.33Q16.94 42.12 22.46 42.46L22.42 42.42L25.31 42.61L25.32 42.62Q27.00 42.80 29.01 42.69L28.97 42.65L29.06 42.74Q30.54 42.69 32.63 42.16L32.62 42.14L32.60 42.13Q34.42 41.51 34.38 39.18L34.54 39.35L34.44 39.25Q34.44 37.99 33.38 35.22L33.35 35.19L33.32 35.16Q33.19 34.42 32.66 33.62L32.51 33.47L32.65 33.61Q33.16 33.55 34.34 33.74L34.36 33.77L34.26 33.66Q34.08 30.17 34.12 29.49L34.06 29.42L34.09 29.46Q33.71 29.46 33.29 29.42L33.27 29.39L33.33 29.45Q32.87 29.34 32.49 29.42L32.45 29.38L32.53 29.46Q32.48 28.30 32.55 27.23L32.58 27.26L32.51 27.19Q26.26 27.71 19.98 27.60L20.13 27.76L20.10 27.73Q20.18 28.68 20.18 29.59L20.07 29.48L20.16 31.33L20.10 31.27Q20.43 31.21 20.85 31.17L20.99 31.32L21.01 31.34Q21.24 31.15 21.70 31.15L21.72 31.17L21.78 31.23Q21.84 31.74 21.87 32.24L21.81 32.18L21.72 32.08Q21.72 32.54 21.68 33.03L21.66 33.02L21.66 33.01Q22.81 33.10 23.84 33.06L23.86 33.08L23.89 33.11Q24.86 33.05 25.88 33.09L25.95 33.16L25.87 33.08Q26.90 33.31 27.78 33.69L27.75 33.66L27.77 33.72L27.71 33.66Q27.95 35.27 26.28 36.18L26.40 36.31L26.33 36.24Q24.55 37.05 22.84 37.05L23.00 37.21L22.89 37.10Q19.12 37.18 16.68 35.42L16.59 35.33L16.60 35.34Q15.80 33.47 15.95 30.92L15.77 30.74L15.81 30.78Q16.16 26.03 18.00 24.03L17.94 23.97L17.96 23.99Q19.81 21.99 24.49 21.69L24.48 21.67L24.51 21.70Q28.25 21.56 30.19 23.35L30.04 23.20L30.05 23.20Q30.18 23.37 30.29 23.56L30.23 23.50L30.51 23.67L30.43 23.58Q31.15 24.43 31.73 25.53L31.65 25.45L32.08 25.54Z"/><path fill="#222" d="M64.89 47.03L64.92 47.06L64.87 47.01Q63.96 47.24 62.05 47.54L61.99 47.48L61.99 47.48Q63.33 45.36 64.36 44.06L64.46 44.16L64.36 44.06Q66.06 44.32 66.21 44.32L66.37 44.48L66.34 44.45Q66.62 44.50 67.15 44.38L67.16 44.39L67.18 44.41Q67.80 44.27 67.99 44.27L68.02 44.30L68.08 44.36Q70.56 44.02 70.48 41.85L70.44 41.81L70.45 41.82Q70.42 40.34 70.31 34.10L70.37 34.16L70.36 34.15Q70.39 30.68 70.46 26.53L70.45 26.51L71.81 26.27L71.72 26.18Q72.43 26.13 73.11 25.90L73.08 25.87L73.20 25.99Q72.89 30.33 72.93 34.70L73.00 34.77L73.00 34.77Q72.93 39.05 73.47 43.43L73.51 43.47L73.57 43.52Q73.58 43.76 73.58 44.03L73.62 44.07L73.60 44.05Q73.66 45.75 71.99 46.13L71.82 45.97L71.82 45.96Q68.88 46.53 65.03 47.17ZM71.81 22.96L69.55 19.72L69.60 19.76Q70.64 18.37 72.47 15.59L72.48 15.60L72.41 15.53Q73.17 16.52 74.50 18.35L74.50 18.34L71.80 22.96ZM74.75 49.50L74.67 49.43L74.72 49.47Q75.28 49.54 76.04 49.19L75.97 49.12L75.96 49.12Q76.38 48.51 76.38 48.05L76.26 47.93L76.43 48.10Q76.28 47.61 76.16 47.00L76.19 47.02L76.16 46.99Q74.90 40.67 74.90 32.75L74.89 32.74L74.84 32.69Q74.80 29.80 74.95 26.90L74.95 26.90L74.97 26.92Q74.50 27.18 73.36 27.48L73.36 27.48L73.29 27.41Q73.43 27.05 73.46 26.52L73.33 26.39L73.51 25.38L73.57 25.45Q71.76 25.99 69.97 26.03L69.94 26.01L69.95 26.01Q69.96 30.41 70.00 33.98L69.89 33.87L70.05 41.76L70.12 41.83Q70.29 43.90 68.12 44.01L67.93 43.83L68.09 43.99Q67.73 43.85 67.21 43.91L67.25 43.95L67.30 44.00Q66.75 44.02 66.48 44.02L66.52 44.05L66.60 44.13Q65.92 43.92 64.36 43.50L64.36 43.49L64.49 43.62Q63.97 44.17 62.87 45.84L62.88 45.86L61.31 48.13L61.46 48.28Q62.17 47.93 63.81 47.55L63.87 47.61L63.45 48.37L62.92 49.02L62.96 49.06Q65.23 48.89 66.56 48.97L66.41 48.81L66.53 48.94Q68.88 49.15 74.82 49.57ZM71.65 23.56L71.73 23.64L72.10 23.13L72.03 23.07Q72.41 23.53 73.36 25.13L73.36 25.12L73.27 25.03Q74.86 21.98 76.42 18.89L76.34 18.82L76.44 18.91Q75.46 17.32 74.50 16.02L74.47 15.99L74.41 15.93Q74.31 16.25 73.96 16.78L73.93 16.75L73.87 16.68Q73.57 16.16 72.58 14.86L72.49 14.77L72.59 14.87Q71.42 16.48 69.10 19.83L69.10 19.83L68.98 19.72Q69.98 21.02 71.69 23.61Z"/><path fill="#222" d="M95.91 41.17L95.79 41.05L94.08 41.05L94.23 41.19Q90.82 41.17 89.87 39.04L89.76 38.93L89.86 39.04Q90.92 37.89 92.37 36.78L92.47 36.89L92.53 36.94Q93.06 39.08 95.92 38.93L95.87 38.87L95.95 38.96Q96.73 38.90 97.76 38.67L97.80 38.71L97.64 38.55Q98.59 38.05 98.51 37.10L98.50 37.09L98.51 37.10Q98.39 35.95 96.60 35.26L96.79 35.45L92.94 33.89L92.85 33.80Q90.64 32.58 90.30 29.04L90.12 28.87L90.16 28.90Q90.03 26.83 92.20 26.26L92.12 26.18L92.28 26.34Q93.14 26.02 96.11 26.02L96.04 25.95L96.12 26.03Q100.91 25.95 101.83 28.46L102.00 28.64L101.84 28.47Q101.29 29.11 100.57 29.56L100.50 29.50L99.07 30.43L99.13 30.49Q98.60 28.55 95.37 28.33L95.44 28.40L95.34 28.30Q94.85 28.42 93.83 28.84L93.85 28.86L93.84 28.86Q93.27 29.20 93.27 30.30L93.16 30.19L93.27 30.30Q93.64 31.39 95.47 32.08L95.40 32.02L95.37 31.98Q96.53 32.46 99.20 33.56L99.21 33.58L99.10 33.46Q100.91 34.29 101.10 36.84L101.07 36.81L101.08 36.82Q101.22 37.52 101.14 38.51L101.21 38.58L101.20 38.57Q101.01 39.30 100.44 39.94L100.44 39.95L100.49 40.00Q98.88 41.09 95.83 41.09ZM100.72 43.81L100.71 43.79L100.58 43.67Q101.66 43.86 103.03 43.56L102.97 43.50L103.01 43.55Q104.03 42.81 103.84 41.59L103.84 41.59L103.75 41.51Q103.77 41.03 103.47 39.43L103.34 39.31L103.42 39.39Q102.83 36.39 101.04 35.18L101.17 35.31L101.17 35.31Q100.66 33.92 99.40 33.19L99.37 33.17L99.29 33.08Q98.15 32.78 95.68 31.83L95.54 31.69L95.54 31.69Q95.66 31.20 95.92 31.09L96.02 31.18L96.05 31.22Q96.68 30.78 97.32 30.74L97.26 30.67L97.20 30.61Q98.08 30.66 98.84 30.92L98.72 30.80L98.86 31.02L99.01 31.05L99.15 31.01L99.15 31.04L99.06 30.95Q100.28 31.57 100.47 32.82L100.42 32.77L100.52 32.87Q101.73 31.98 103.63 30.31L103.63 30.31L103.62 30.30Q103.38 29.60 102.39 28.42L102.34 28.37L102.45 28.47Q101.12 25.59 96.02 25.47L96.11 25.57L96.04 25.50Q93.05 25.63 91.07 26.20L90.92 26.05L90.92 26.05Q89.58 26.69 89.81 28.78L89.86 28.83L89.87 28.84Q89.83 29.95 90.74 32.04L90.91 32.21L90.90 32.19Q91.26 33.13 92.29 33.85L92.38 33.94L92.40 33.97Q93.04 35.40 94.33 36.08L94.38 36.13L94.31 36.06Q95.22 36.29 96.18 36.67L96.33 36.83L98.25 37.60L98.09 37.44Q97.87 38.67 95.93 38.56L95.90 38.52L95.83 38.45Q95.56 38.69 94.34 38.38L94.17 38.20L94.28 38.16L94.03 38.14L94.15 38.26Q93.17 37.78 92.52 36.29L92.49 36.26L92.50 36.27Q90.37 37.83 89.27 38.98L89.29 39.00L89.31 39.02Q89.62 39.94 90.65 40.74L90.71 40.80L90.57 40.97L90.43 40.82Q91.89 42.97 96.11 43.35L96.21 43.45L96.08 43.32Q97.33 43.42 100.57 43.65Z"/><path fill="#333" d="M112.28 38.99L112.25 38.97L112.27 38.99Q114.13 36.58 118.89 29.31L118.91 29.33L118.83 29.26Q122.96 23.14 125.81 19.87L125.84 19.89L125.69 19.74Q123.59 20.04 121.49 20.04L121.63 20.17L121.58 20.13Q116.35 20.15 112.35 18.36L112.37 18.37L112.41 18.41Q111.61 16.36 110.92 14.80L110.90 14.78L111.01 14.89Q115.44 16.91 121.11 17.03L121.17 17.08L121.20 17.12Q126.25 17.11 131.43 15.21L131.45 15.22L131.51 15.29Q131.19 16.18 130.88 16.98L130.76 16.85L130.24 18.50L130.21 18.47Q127.21 22.17 123.21 28.00L123.13 27.92L119.84 32.78L119.79 32.73Q118.27 35.31 116.44 37.60L116.40 37.56L116.41 37.57Q119.63 36.87 122.95 36.95L122.97 36.97L123.05 37.05Q126.25 37.01 129.41 37.93L129.47 37.99L129.98 39.60L129.92 39.54Q130.26 40.45 130.60 41.29L130.52 41.21L130.54 41.23Q125.85 39.62 120.71 39.81L120.80 39.90L120.73 39.83Q115.74 40.17 111.25 42.19L111.20 42.14L111.11 42.05Q111.55 41.05 112.27 38.99ZM110.47 42.71L110.57 42.81L110.62 42.86Q111.85 42.26 112.65 42.00L112.60 41.94L112.53 41.87Q112.23 42.60 111.54 44.12L111.59 44.17L111.64 44.22Q117.26 42.00 123.24 42.23L123.30 42.29L123.21 42.20Q129.55 42.44 134.57 45.22L134.63 45.29L134.62 45.27Q133.16 42.82 132.36 40.65L132.39 40.68L132.46 40.75Q131.93 40.49 130.41 39.92L130.49 40.00L130.43 39.94Q130.26 39.20 129.84 37.72L129.89 37.76L129.87 37.75Q125.62 36.46 120.52 36.65L120.47 36.60L120.65 36.78Q122.78 34.04 126.32 28.49L126.19 28.35L126.24 28.40Q129.96 22.76 131.87 20.21L131.79 20.14L131.85 20.19Q132.33 18.77 133.36 16.06L133.24 15.95L133.26 15.97Q132.57 16.31 131.13 16.92L131.17 16.96L131.24 17.03Q131.61 16.26 132.34 14.74L132.15 14.55L132.15 14.55Q126.97 16.83 121.26 16.75L121.18 16.68L121.29 16.79Q115.28 16.65 110.33 14.13L110.31 14.11L110.37 14.17Q111.42 16.44 112.14 18.68L112.09 18.63L112.07 18.61Q113.34 19.31 114.14 19.54L113.95 19.35L114.03 19.42Q114.32 20.14 114.59 21.59L114.57 21.56L114.64 21.63Q118.23 22.56 123.10 22.37L123.10 22.37L123.11 22.38Q120.87 25.73 117.56 30.72L117.55 30.71L111.86 38.88L111.88 38.90Q111.52 40.18 110.49 42.73Z"/><path fill="#333" d="M45.72 29.84L45.77 29.89L45.68 29.80Q45.56 29.90 45.25 29.90L45.26 29.91L45.14 29.79Q43.91 29.90 42.47 30.73L42.44 30.70L42.43 30.70Q41.12 31.82 41.12 33.73L41.00 33.61L41.16 33.77Q41.15 37.19 42.68 38.52L42.53 38.37L42.57 38.42Q43.63 39.70 45.91 39.70L45.84 39.63L45.92 39.71Q46.00 39.56 46.31 39.56L46.41 39.67L46.35 39.60Q48.17 39.71 49.31 38.07L49.31 38.08L49.28 38.04Q50.24 36.45 50.17 34.66L50.29 34.79L50.27 34.77Q50.23 34.19 50.23 33.77L50.29 33.84L50.36 33.91Q50.30 32.06 48.93 30.90L49.00 30.97L48.83 30.80Q47.52 29.70 45.73 29.85ZM50.33 40.12L50.19 39.98L50.33 40.12Q49.19 41.91 45.46 42.03L45.44 42.01L45.53 42.10Q42.00 42.07 40.40 40.47L40.54 40.61L40.56 40.63Q39.14 38.90 38.34 34.11L38.34 34.11L38.26 34.03Q37.88 32.20 37.88 30.95L38.02 31.08L37.87 30.93Q37.93 29.20 38.65 28.14L38.58 28.06L38.67 28.16Q40.00 26.74 42.97 26.74L42.96 26.73L43.07 26.85Q49.35 26.81 51.26 29.40L51.21 29.35L51.23 29.37Q51.39 28.54 51.81 26.95L51.78 26.91L51.94 27.07Q53.03 26.60 55.47 25.80L55.50 25.84L55.50 25.83Q53.10 31.51 52.87 37.83L52.81 37.77L52.80 37.75Q52.59 43.94 54.72 49.76L54.71 49.75L54.68 49.72Q53.06 49.21 51.27 48.94L51.37 49.04L51.27 48.94Q50.28 44.91 50.17 39.96ZM51.02 49.26L51.05 49.29L50.95 49.19Q51.71 49.38 53.12 49.68L53.21 49.77L53.20 49.76Q53.35 50.41 53.92 51.82L53.86 51.76L53.94 51.84Q56.56 52.60 58.85 53.89L58.90 53.94L58.90 53.95Q54.71 47.21 54.71 38.68L54.81 38.78L54.83 38.79Q54.70 32.30 57.17 26.52L57.19 26.54L57.18 26.52Q56.51 26.85 55.14 27.49L55.21 27.56L55.18 27.54Q55.40 26.65 56.05 25.09L56.13 25.18L56.16 25.20Q54.61 25.75 51.41 26.62L51.40 26.61L51.38 26.59Q51.36 27.26 51.06 28.44L51.11 28.49L51.05 28.43Q48.95 26.44 42.82 26.29L42.89 26.36L42.92 26.39Q39.68 26.28 38.31 27.76L38.37 27.81L38.25 27.70Q37.49 28.84 37.53 30.75L37.59 30.81L37.58 30.80Q37.71 33.82 38.69 37.58L38.71 37.60L38.74 37.63Q39.40 40.04 40.32 41.00L40.23 40.91L40.54 41.21L40.62 41.30Q41.87 44.15 47.31 44.38L47.27 44.33L47.22 44.28Q48.21 44.28 50.04 43.98L50.08 44.02L50.16 44.10Q50.31 46.88 50.92 49.16ZM47.63 32.16L47.53 32.06L47.64 32.18Q48.65 32.12 49.49 32.43L49.61 32.55L49.54 32.48Q49.77 33.05 49.88 33.66L49.78 33.55L49.93 33.71Q50.03 34.26 49.95 34.87L49.90 34.81L49.78 34.69Q49.80 36.63 48.78 37.92L48.85 37.99L48.83 37.98Q47.70 39.43 45.84 39.24L45.79 39.20L45.89 39.29Q44.52 39.22 43.57 38.80L43.52 38.75L43.59 38.82Q43.22 37.99 43.22 36.78L43.15 36.71L43.33 36.89Q43.15 36.40 43.15 36.10L43.13 36.08L43.23 36.18Q43.29 34.49 44.62 33.33L44.64 33.34L44.56 33.26Q45.93 32.14 47.68 32.22Z"/></svg>