<svg xmlns="http://www.w3.org/2000/svg" width="150" height="50" viewBox="0,0,150,50"><path fill="#333" d="M98.22 32.19L89.02 22.23L88.92 22.13Q89.70 25.76 89.70 29.49L89.88 29.67L89.73 29.52Q89.76 35.53 87.70 41.08L87.65 41.04L87.70 41.08Q86.62 41.33 84.37 42.09L84.37 42.09L84.31 42.03Q87.14 36.26 87.14 29.56L87.17 29.59L87.14 29.56Q87.20 20.98 82.71 13.56L82.67 13.51L82.67 13.51Q83.24 13.81 83.92 14.23L83.76 14.07L83.91 14.22Q96.00 25.43 103.84 34.69L103.74 34.59L103.73 34.58Q103.47 32.18 103.47 29.75L103.39 29.66L103.50 29.78Q103.40 22.45 105.91 16.24L105.94 16.27L105.98 16.30Q108.23 15.70 109.83 15.01L109.93 15.12L109.89 15.07Q106.55 21.21 106.24 28.37L106.36 28.48L106.30 28.43Q105.93 35.71 108.90 41.87L108.91 41.88L108.91 41.88Q108.35 41.82 107.93 41.63L107.96 41.66L107.98 41.68Q103.36 37.67 98.14 32.11L98.13 32.09ZM111.59 45.14L111.65 45.20L111.59 45.13Q112.10 45.34 112.52 45.53L112.46 45.48L113.27 45.79L113.41 45.93Q108.09 38.82 108.09 29.46L108.23 29.59L108.13 29.49Q108.14 22.27 111.45 16.03L111.52 16.10L111.58 16.15Q110.85 16.31 109.44 16.91L109.33 16.80L109.32 16.79Q109.82 16.07 110.66 14.51L110.58 14.43L110.64 14.49Q108.17 15.38 105.74 15.95L105.82 16.03L105.65 15.86Q103.13 22.44 103.13 29.86L103.08 29.81L103.04 29.78Q103.05 31.65 103.24 33.63L103.27 33.66L103.32 33.71Q98.65 28.01 93.89 23.40L93.97 23.48L83.77 13.66L83.83 13.72Q83.13 13.29 81.92 12.72L82.10 12.90L81.99 12.79Q86.86 20.52 86.86 29.62L86.93 29.69L86.88 29.64Q86.97 36.85 83.89 42.87L83.72 42.70L83.81 42.79Q84.13 42.69 85.77 42.08L85.66 41.97L85.66 41.98Q85.39 42.80 84.55 44.29L84.67 44.41L84.51 44.25Q86.02 43.89 89.48 43.09L89.43 43.04L89.49 43.10Q91.71 36.87 91.71 29.67L91.73 29.70L91.80 29.77Q91.65 27.52 91.42 25.39L91.47 25.44L91.41 25.38Q103.06 38.36 111.66 45.21Z"/><path fill="#111" d="M57.03 23.03L57.13 23.13L57.16 23.16Q55.28 25.81 52.62 31.44L52.54 31.37L50.67 35.74L50.57 35.64Q49.67 37.51 48.33 39.76L48.43 39.86L48.31 39.73Q48.79 39.76 47.12 39.80L47.20 39.88L47.17 39.85Q47.09 39.77 45.83 39.77L45.90 39.84L45.89 39.83Q45.18 38.36 42.25 31.20L42.22 31.17L42.32 31.27Q39.99 25.75 37.90 22.74L38.01 22.85L37.95 22.79Q38.71 25.87 38.71 29.03L38.69 29.02L38.82 29.14Q38.82 35.66 35.86 41.22L35.81 41.17L35.77 41.13Q34.43 41.46 32.07 42.19L32.09 42.20L32.11 42.23Q35.70 36.46 35.70 29.22L35.74 29.26L35.82 29.34Q35.73 20.30 30.32 13.34L30.42 13.43L30.42 13.43Q32.10 14.20 34.46 14.88L34.45 14.88L34.35 14.77Q41.38 21.50 47.47 34.82L47.52 34.87L47.60 34.95Q51.02 27.87 53.23 24.37L53.15 24.28L53.16 24.29Q56.87 18.64 60.82 15.17L60.71 15.06L60.81 15.16Q61.98 14.85 64.34 14.08L64.42 14.16L64.38 14.12Q59.46 20.81 59.46 29.42L59.39 29.35L59.43 29.39Q59.33 35.95 62.76 41.47L62.80 41.51L62.83 41.54Q61.57 41.31 58.83 40.71L58.81 40.68L58.75 40.62Q56.33 35.77 56.33 29.79L56.39 29.84L56.34 29.80Q56.43 26.46 57.12 23.11ZM58.49 40.94L58.59 41.04L58.61 41.05Q59.24 41.11 60.69 41.38L60.68 41.37L60.74 41.44Q61.23 42.22 62.18 43.71L62.04 43.57L62.10 43.63Q64.23 44.05 67.70 45.27L67.67 45.24L67.78 45.35Q61.41 38.90 61.41 29.08L61.50 29.17L61.40 29.07Q61.40 21.35 65.78 15.22L65.72 15.16L63.71 16.04L63.58 15.91Q64.68 14.46 65.33 13.58L65.16 13.41L65.28 13.54Q63.32 14.09 60.69 14.62L60.77 14.70L60.80 14.73Q54.01 20.81 47.96 33.41L47.96 33.41L47.98 33.43Q42.83 22.49 37.88 17.24L37.83 17.19L37.85 17.21Q37.37 17.03 36.80 16.92L36.83 16.95L35.69 15.74L35.59 15.63Q35.02 14.99 34.34 14.38L34.31 14.36L34.41 14.45Q31.33 13.44 29.55 12.71L29.63 12.80L29.50 12.67Q35.54 19.93 35.54 29.33L35.48 29.27L35.46 29.25Q35.57 36.98 31.43 42.84L31.36 42.78L31.42 42.83Q32.13 42.63 33.42 42.21L33.31 42.10L33.40 42.18Q33.33 42.49 31.92 44.59L31.87 44.54L31.75 44.42Q33.61 44.00 37.12 43.24L37.09 43.22L37.21 43.33Q40.88 36.23 40.69 28.47L40.56 28.34L40.63 28.40Q42.22 32.46 45.68 40.34L45.67 40.33L45.61 40.27Q45.96 40.32 46.19 40.32L46.13 40.26L46.65 40.25L46.55 40.15Q46.99 40.82 47.79 42.11L47.97 42.29L47.84 42.17Q49.58 42.27 49.58 42.27L49.54 42.22L49.47 42.16Q50.58 42.24 51.23 42.31L51.16 42.24L51.19 42.27Q52.79 38.27 56.14 30.28L56.06 30.20L56.15 30.29Q55.87 35.57 58.46 40.90Z"/><path fill="#333" d="M70.36 28.70L70.21 28.56L70.17 28.52Q67.42 28.58 66.66 30.83L66.74 30.91L66.77 30.94Q66.53 31.66 66.42 32.31L66.30 32.18L66.35 32.24Q68.85 32.34 70.49 32.34L70.56 32.41L70.64 32.49Q72.34 32.56 74.93 32.44L74.90 32.41L74.84 32.35Q74.77 30.68 73.36 29.61L73.34 29.59L73.22 29.48Q72.06 28.62 70.27 28.62ZM70.37 41.20L70.32 41.16L70.27 41.10Q66.03 41.09 64.74 39.68L64.79 39.73L64.77 39.72Q63.88 38.33 63.72 35.05L63.70 35.03L63.77 35.10Q63.69 34.79 63.62 33.42L63.69 33.50L63.70 33.51Q63.57 31.21 63.57 30.49L63.54 30.45L63.50 30.41Q63.53 28.58 64.25 27.47L64.22 27.44L64.27 27.49Q65.72 26.12 68.69 26.12L68.59 26.02L70.14 26.02L70.11 25.98Q72.21 26.03 73.73 26.33L73.70 26.30L73.64 26.24Q75.83 26.83 76.82 28.05L76.84 28.07L76.77 28.00Q77.33 29.02 77.41 31.11L77.56 31.27L77.55 31.25Q77.54 32.38 77.57 34.55L77.52 34.50L77.49 34.46Q74.64 34.51 71.86 34.51L71.91 34.56L66.19 34.44L66.36 34.61Q66.44 38.95 70.51 38.72L70.49 38.70L70.59 38.80Q74.34 38.59 75.56 36.76L75.41 36.62L75.56 36.77Q76.42 37.28 78.02 38.46L77.87 38.31L77.86 38.30Q76.58 40.79 72.43 41.05L72.50 41.12L72.48 41.10Q71.63 41.01 70.26 41.09ZM72.66 43.53L72.61 43.48L72.67 43.54Q73.75 43.48 74.97 43.56L75.05 43.64L75.01 43.60Q79.87 43.66 80.78 40.88L80.93 41.03L80.91 41.01Q79.17 39.65 78.07 38.89L78.13 38.96L78.19 39.01Q78.32 38.57 78.51 38.34L78.55 38.38L78.50 38.33Q77.79 37.89 76.42 36.93L76.36 36.87L76.42 36.93Q77.48 36.97 79.54 37.28L79.46 37.20L79.50 37.24Q79.44 36.00 79.37 35.32L79.27 35.22L79.05 33.21L79.07 33.23Q78.97 30.92 78.32 29.43L78.29 29.41L78.27 29.38Q78.05 29.08 77.48 28.48L77.50 28.50L77.54 28.54Q77.36 28.21 77.13 27.64L77.06 27.57L77.19 27.69Q75.17 25.53 70.11 25.53L70.23 25.65L68.55 25.64L68.51 25.60Q65.15 25.48 63.70 26.96L63.73 26.99L63.75 27.01Q63.14 28.19 63.18 30.25L63.18 30.24L63.16 30.22Q63.23 31.21 63.34 33.45L63.34 33.45L63.27 33.38Q63.32 34.95 63.44 37.01L63.47 37.04L63.58 37.16Q63.70 39.26 64.58 40.33L64.62 40.37L64.59 40.33Q64.89 40.64 65.09 40.75L64.96 40.63L65.24 41.25L65.31 41.32Q66.10 43.17 72.68 43.55ZM70.44 38.23L70.57 38.36L70.59 38.38Q69.30 38.34 68.38 37.89L68.36 37.86L68.42 37.92Q68.36 37.52 68.17 36.84L68.18 36.85L68.27 36.93Q69.86 36.73 71.46 36.73L71.51 36.78L71.47 36.75Q73.25 36.85 74.92 36.96L74.84 36.88L74.79 36.84Q73.51 38.18 70.50 38.29ZM72.26 31.07L72.17 30.98L72.11 30.91Q72.78 30.97 74.11 31.35L74.08 31.32L74.35 31.78L74.33 31.96L74.31 31.94Q72.93 32.04 72.02 32.01L72.02 32.00L72.00 31.99Q69.82 32.05 69.78 32.05L69.68 31.95L69.68 31.95Q70.41 31.01 72.09 30.89Z"/><path fill="#333" d="M23.81 27.81L23.79 27.80L23.76 27.77Q20.13 27.56 19.02 30.91L19.18 31.07L18.99 30.88Q18.67 32.00 18.56 33.07L18.67 33.18L18.61 33.12Q18.47 35.23 19.46 36.57L19.37 36.48L19.48 36.59Q20.67 37.62 23.14 37.65L23.28 37.79L23.14 37.65Q25.08 37.80 26.49 36.66L26.44 36.62L26.42 36.60Q27.90 35.52 27.90 33.74L27.93 33.77L27.95 33.78Q27.87 33.36 27.79 32.98L27.85 33.04L27.71 32.90Q27.54 27.82 23.73 27.74ZM23.56 40.13L23.53 40.10L23.56 40.13Q19.87 40.47 18.08 38.46L18.09 38.47L17.95 38.33Q17.75 39.38 17.29 40.75L17.32 40.78L17.34 40.81Q15.31 41.47 14.05 42.04L14.08 42.07L14.07 42.06Q16.25 36.09 16.25 29.58L16.34 29.68L16.29 29.62Q16.37 21.41 12.95 13.57L12.80 13.42L12.92 13.54Q15.24 14.87 16.57 15.32L16.55 15.31L16.51 15.27Q18.69 21.97 18.84 27.80L18.76 27.71L18.77 27.73Q20.24 25.08 23.97 25.12L24.01 25.16L23.91 25.06Q27.19 25.14 28.67 27.01L28.70 27.04L28.68 27.01Q30.50 29.29 30.65 32.87L30.71 32.93L30.61 32.83Q30.74 34.07 30.67 35.66L30.63 35.63L30.58 35.57Q30.53 37.01 29.66 38.16L29.71 38.21L29.78 38.28Q27.93 39.89 23.59 40.16ZM29.17 42.77L29.14 42.74L29.09 42.69Q30.67 42.78 32.15 42.10L32.05 42.00L32.15 42.09Q33.16 40.71 33.20 38.77L33.31 38.88L33.17 38.73Q33.24 38.32 33.09 37.14L33.08 37.12L33.06 37.10Q33.04 36.48 32.93 35.56L32.98 35.62L32.85 35.49Q32.01 30.69 30.45 28.63L30.48 28.67L30.60 28.79Q30.46 28.60 29.66 27.73L29.64 27.71L29.74 27.80Q29.55 27.58 29.02 26.78L28.91 26.67L28.86 26.62Q27.35 24.77 24.00 24.81L23.95 24.76L24.03 24.84Q21.89 24.80 20.64 25.41L20.77 25.54L20.69 25.46Q20.42 21.00 19.81 17.81L19.70 17.69L19.82 17.81Q19.00 17.56 17.52 17.18L17.56 17.22L17.50 17.17Q17.32 16.38 16.87 14.94L17.00 15.07L16.85 14.92Q14.42 14.13 12.18 12.57L12.27 12.67L12.33 12.72Q15.91 20.72 15.91 29.51L15.93 29.53L16.06 29.66Q16.03 36.59 13.55 42.80L13.46 42.71L13.60 42.85Q14.20 42.42 15.53 41.84L15.55 41.87L15.58 41.89Q15.38 42.68 14.77 44.21L14.80 44.24L14.74 44.17Q16.62 43.16 19.40 42.63L19.51 42.74L19.79 40.81L19.86 40.89Q22.21 42.62 29.14 42.74ZM25.40 30.09L25.41 30.10L25.35 30.04Q26.45 30.12 26.98 30.50L26.88 30.39L26.84 30.35Q27.21 30.91 27.43 32.93L27.34 32.83L27.42 32.91Q27.58 34.74 26.32 36.06L26.42 36.16L26.46 36.19Q25.08 37.38 23.13 37.27L23.26 37.39L23.13 37.26Q22.39 37.59 20.90 37.09L20.86 37.05L20.76 36.95Q20.59 36.51 20.59 35.98L20.59 35.98L20.49 35.88Q20.52 32.82 22.08 31.22L22.05 31.20L22.13 31.31L22.03 31.21Q23.53 29.90 25.28 29.98Z"/><path fill="#333" d="M117.75 19.44L117.61 19.30L117.68 19.37Q118.44 23.52 118.60 27.10L118.64 27.14L118.61 27.11Q119.83 27.30 120.89 27.30L120.90 27.30L122.99 27.19L122.98 27.18Q124.01 27.14 124.89 25.73L124.87 25.72L124.86 25.71Q125.73 24.67 125.84 23.49L125.79 23.44L125.79 23.44Q126.19 20.45 121.96 19.95L121.88 19.88L121.96 19.96Q120.23 19.86 117.60 19.29ZM118.64 29.88L118.79 30.03L118.77 30.01Q118.56 36.09 117.42 40.50L117.51 40.59L117.42 40.50Q115.97 40.92 113.65 41.98L113.73 42.06L113.64 41.98Q116.13 35.44 115.86 28.17L115.72 28.03L115.77 28.07Q115.51 20.74 112.74 14.31L112.72 14.29L112.75 14.32Q116.82 17.03 123.07 17.03L123.09 17.05L123.17 17.13Q129.21 17.12 129.36 20.58L129.29 20.50L129.41 20.62Q129.33 22.91 128.34 25.58L128.35 25.58L128.38 25.61Q127.90 26.66 126.95 27.87L126.97 27.89L126.95 27.87Q125.67 29.53 123.12 29.80L123.13 29.81L123.12 29.79Q120.97 29.93 118.73 29.97ZM124.83 32.19L124.84 32.20L124.82 32.18Q128.93 32.36 130.18 27.57L130.21 27.59L130.25 27.63Q131.16 23.93 131.00 21.92L131.08 22.00L130.96 21.87Q130.86 20.36 130.10 19.37L130.08 19.36L130.22 19.50Q129.88 19.15 129.38 18.93L129.38 18.92L129.26 18.80Q129.36 18.75 128.75 17.99L128.64 17.88L128.68 17.91Q127.16 16.62 123.20 16.62L123.20 16.63L123.27 16.70Q116.21 16.53 111.99 13.37L111.99 13.37L112.05 13.43Q115.20 20.50 115.47 27.97L115.45 27.95L115.47 27.97Q115.78 35.66 113.12 42.74L113.09 42.72L113.07 42.70Q114.26 42.18 115.25 41.80L115.25 41.79L114.91 42.98L114.91 42.97Q114.56 43.39 114.30 43.96L114.40 44.07L114.30 43.97Q116.77 42.97 119.67 42.44L119.62 42.40L119.77 42.55Q120.44 36.86 120.52 32.14L120.70 32.32L120.52 32.15Q121.74 32.18 122.73 32.18L122.66 32.11L122.67 32.12Q124.09 32.21 124.89 32.25ZM123.79 22.17L123.92 22.30L123.93 22.30Q124.48 22.35 125.47 22.58L125.43 22.55L125.46 22.58Q125.45 22.68 125.48 22.98L125.57 23.07L125.49 22.99Q125.55 23.28 125.47 23.54L125.47 23.54L125.50 23.56Q125.39 24.79 124.66 25.66L124.64 25.64L124.63 25.63Q123.98 26.62 122.95 26.81L122.99 26.84L123.03 26.89Q122.20 26.78 120.56 26.78L120.64 26.86L120.58 26.80Q120.58 24.55 120.35 22.19L120.32 22.16L122.07 22.24L122.08 22.24Q123.09 22.41 123.96 22.34Z"/></svg>