<svg xmlns="http://www.w3.org/2000/svg" width="150" height="50" viewBox="0,0,150,50"><path fill="#111" d="M93.03 19.38L92.92 19.28L93.11 19.46Q93.88 23.63 94.04 27.20L94.03 27.20L93.92 27.09Q95.16 27.30 96.22 27.30L96.11 27.18L98.39 27.26L98.35 27.22Q99.42 27.22 100.29 25.81L100.26 25.78L100.23 25.74Q101.00 24.61 101.12 23.43L101.09 23.41L101.07 23.38Q101.44 20.37 97.21 19.87L97.20 19.86L97.25 19.91Q95.64 19.93 93.01 19.36ZM93.94 29.85L93.98 29.88L94.10 30.01Q93.91 36.10 92.77 40.52L92.80 40.55L92.90 40.64Q91.41 41.02 89.08 42.09L88.96 41.96L89.12 42.12Q91.46 35.44 91.19 28.16L91.08 28.06L91.12 28.10Q90.75 20.64 87.97 14.21L88.05 14.28L88.13 14.37Q92.17 17.04 98.42 17.04L98.43 17.05L98.48 17.10Q104.42 16.99 104.57 20.46L104.61 20.49L104.65 20.53Q104.70 22.95 103.71 25.61L103.84 25.74L103.82 25.72Q103.42 26.84 102.47 28.06L102.40 27.99L102.33 27.92Q100.99 29.51 98.43 29.77L98.60 29.94L98.63 29.97Q96.34 29.97 94.10 30.01ZM100.07 32.10L100.09 32.12L100.19 32.21Q104.37 32.47 105.62 27.67L105.50 27.55L105.65 27.70Q106.51 23.95 106.35 21.93L106.44 22.01L106.40 21.98Q106.18 20.35 105.42 19.36L105.44 19.38L105.54 19.48Q105.12 19.06 104.63 18.83L104.65 18.86L104.64 18.85Q104.72 18.78 104.11 18.02L104.11 18.01L103.98 17.89Q102.44 16.57 98.48 16.57L98.44 16.54L98.52 16.61Q91.69 16.67 87.46 13.51L87.49 13.54L87.34 13.39Q90.57 20.53 90.83 28.00L90.79 27.95L90.90 28.07Q91.18 35.73 88.51 42.81L88.49 42.78L88.40 42.69Q89.46 42.04 90.45 41.66L90.56 41.77L90.20 42.93L90.20 42.93Q90.03 43.52 89.76 44.10L89.72 44.05L89.67 44.00Q92.05 42.92 94.95 42.39L94.95 42.39L94.98 42.42Q95.81 36.89 95.88 32.17L95.99 32.28L95.87 32.16Q97.05 32.16 98.04 32.16L97.98 32.10L98.10 32.22Q99.31 32.10 100.11 32.14ZM99.30 22.34L99.26 22.30L99.26 22.30Q99.81 22.36 100.80 22.58L100.72 22.51L100.78 22.57Q100.87 22.77 100.91 23.07L100.91 23.07L100.85 23.02Q100.86 23.25 100.78 23.52L100.79 23.53L100.72 23.46Q100.78 24.85 100.06 25.72L100.08 25.75L100.05 25.72Q99.35 26.66 98.33 26.85L98.38 26.90L98.38 26.90Q97.60 26.85 95.97 26.85L95.94 26.82L96.01 26.89Q95.86 24.50 95.63 22.14L95.70 22.21L97.43 22.26L97.55 22.38Q98.35 22.34 99.22 22.26Z"/><path fill="#333" d="M55.70 41.47L55.82 41.59L55.75 41.52Q53.57 41.06 51.40 40.91L51.52 41.03L51.39 40.90Q50.08 39.58 47.41 35.74L47.39 35.72L47.37 35.70Q45.16 38.78 42.76 41.21L42.78 41.23L40.66 41.59L40.78 41.71Q39.62 41.81 38.63 42.07L38.72 42.16L38.65 42.08Q42.80 37.94 45.80 33.82L45.81 33.83L45.84 33.86Q42.57 29.68 37.17 24.88L37.16 24.88L37.24 24.96Q39.33 25.56 42.03 25.98L42.11 26.06L42.03 25.98Q45.56 29.16 47.46 31.86L47.55 31.95L47.45 31.85Q49.65 28.87 52.39 26.36L52.30 26.27L52.36 26.33Q55.37 25.96 57.20 25.46L57.23 25.49L57.13 25.39Q52.73 29.18 49.04 33.74L48.95 33.66L49.00 33.71Q52.23 38.23 55.69 41.47ZM58.58 24.63L58.62 24.68L58.65 24.71Q55.79 25.58 52.25 25.92L52.24 25.91L52.26 25.93Q49.24 28.46 47.53 30.94L47.68 31.09L47.54 30.95Q46.63 29.89 45.00 27.91L45.08 28.00L44.86 27.97L44.95 28.06Q44.75 27.98 44.64 27.98L44.54 27.88L44.68 28.02Q43.86 27.12 42.22 25.68L42.22 25.67L42.27 25.72Q38.65 25.15 35.80 23.93L35.82 23.95L35.89 24.03Q41.38 28.79 45.42 33.93L45.34 33.86L45.26 33.78Q42.02 38.53 37.60 42.83L37.67 42.90L37.55 42.77Q37.75 42.64 41.26 41.80L41.26 41.80L41.27 41.81Q39.84 43.24 38.20 44.57L38.15 44.52L38.08 44.45Q41.35 43.61 44.51 43.42L44.53 43.44L44.61 43.52Q46.92 41.19 48.83 38.45L48.89 38.51L48.86 38.48Q50.26 40.22 51.48 41.40L51.39 41.32L51.40 41.32Q51.47 41.28 51.55 41.36L51.65 41.46L51.80 41.42L51.74 41.36Q52.98 42.45 54.32 43.52L54.47 43.67L54.34 43.54Q58.00 44.16 60.89 45.18L60.97 45.26L60.92 45.21Q54.81 40.81 51.12 35.63L50.98 35.50L50.94 35.46Q54.60 30.44 59.17 26.36L59.22 26.42L59.29 26.49Q58.23 26.72 57.24 26.95L57.24 26.95L55.29 27.47L55.21 27.39Q56.44 26.53 58.61 24.66Z"/><path fill="#111" d="M124.63 30.81L124.64 30.82L124.74 30.92Q124.88 29.54 124.07 28.63L124.05 28.61L124.05 28.61Q123.15 27.62 121.71 27.66L121.71 27.65L121.78 27.73Q119.30 27.65 118.46 29.78L118.51 29.83L118.51 29.83Q118.34 30.72 118.30 31.41L118.30 31.40L118.25 31.36Q118.07 36.24 117.16 40.58L117.17 40.59L117.08 40.51Q115.45 41.08 113.59 42.07L113.66 42.15L113.58 42.07Q115.92 35.15 115.65 27.84L115.57 27.77L115.57 27.76Q115.28 20.40 112.73 13.58L112.80 13.65L112.75 13.59Q114.56 14.95 116.58 15.64L116.47 15.53L116.52 15.57Q117.92 21.32 118.11 27.18L118.14 27.21L118.14 27.21Q119.56 25.17 122.27 25.25L122.21 25.19L122.27 25.25Q127.32 25.31 127.43 30.68L127.56 30.81L127.51 30.75Q127.63 36.44 129.00 41.08L128.90 40.98L129.09 41.17Q127.11 40.22 125.36 40.03L125.39 40.06L125.35 40.02Q124.92 36.85 124.81 30.99ZM125.06 40.38L125.06 40.37L125.04 40.35Q126.18 40.58 127.28 40.84L127.18 40.74L127.16 40.72Q127.14 40.82 127.67 42.80L127.71 42.84L127.84 42.97Q130.82 43.92 132.83 45.37L132.81 45.35L132.73 45.27Q129.99 39.44 129.46 33.12L129.55 33.22L129.59 33.26Q129.27 29.55 127.86 27.99L127.83 27.96L127.89 28.01Q127.72 27.77 127.07 27.31L127.06 27.30L127.18 27.42Q126.98 26.96 126.34 26.20L126.24 26.10L126.20 25.99L126.36 26.14Q125.40 25.18 122.28 24.91L122.29 24.93L122.38 25.01Q121.62 24.98 120.21 25.32L120.07 25.19L120.15 25.26Q120.01 20.48 119.67 17.97L119.53 17.83L119.55 17.84Q118.78 17.72 117.29 17.42L117.41 17.53L117.28 17.40Q117.24 16.80 116.98 15.31L116.84 15.18L116.91 15.24Q114.03 14.34 112.16 12.78L112.10 12.72L112.15 12.77Q114.99 19.80 115.26 27.60L115.26 27.61L115.19 27.54Q115.53 35.37 112.97 42.72L112.96 42.70L113.09 42.83Q113.90 42.12 115.05 41.63L115.16 41.74L114.29 43.88L114.31 43.90Q117.44 42.57 119.41 42.38L119.54 42.50L119.39 42.36Q120.05 37.04 120.24 33.08L120.32 33.16L120.28 33.12Q120.40 31.29 122.34 30.19L122.22 30.07L122.36 30.22Q122.80 29.89 123.33 29.93L123.41 30.00L123.35 29.95Q123.52 29.96 123.86 30.00L123.76 29.90L124.33 30.12L124.35 30.14Q124.30 30.48 124.42 30.94L124.34 30.86L124.29 30.81Q124.62 37.00 125.12 40.43Z"/><path fill="#111" d="M21.92 41.18L21.97 41.23L20.15 41.12L20.21 41.18Q16.79 41.14 15.84 39.01L15.92 39.10L15.86 39.04Q17.02 37.99 18.47 36.88L18.50 36.91L18.49 36.90Q19.07 39.08 21.92 38.93L21.89 38.90L21.93 38.94Q22.74 38.91 23.77 38.68L23.65 38.56L23.80 38.72Q24.58 38.05 24.50 37.09L24.48 37.07L24.51 37.10Q24.38 35.95 22.60 35.26L22.69 35.36L18.86 33.81L18.93 33.88Q16.64 32.58 16.30 29.04L16.12 28.86L16.17 28.91Q16.00 26.80 18.17 26.23L18.26 26.32L18.21 26.27Q19.08 25.96 22.05 25.96L22.20 26.11L22.17 26.08Q26.97 26.01 27.88 28.52L27.82 28.46L27.82 28.46Q27.35 29.17 26.63 29.62L26.46 29.46L25.18 30.54L25.21 30.57Q24.61 28.56 21.37 28.33L21.46 28.42L21.34 28.30Q20.75 28.32 19.73 28.74L19.83 28.85L19.75 28.76Q19.14 29.06 19.14 30.17L19.16 30.19L19.31 30.35Q19.57 31.32 21.39 32.01L21.39 32.00L21.42 32.03Q22.50 32.42 25.16 33.53L25.17 33.54L25.05 33.42Q26.98 34.36 27.17 36.91L27.10 36.84L27.19 36.92Q27.15 37.45 27.07 38.44L27.11 38.48L27.13 38.50Q27.05 39.34 26.48 39.99L26.45 39.96L26.62 40.12Q24.89 41.10 21.85 41.10ZM26.70 43.79L26.70 43.79L26.70 43.78Q27.56 43.77 28.94 43.47L28.92 43.45L28.99 43.52Q29.92 42.70 29.73 41.48L29.87 41.62L29.83 41.59Q29.72 40.98 29.42 39.38L29.44 39.40L29.38 39.34Q28.87 36.43 27.08 35.22L27.17 35.31L27.19 35.32Q26.61 33.87 25.35 33.15L25.25 33.05L25.24 33.04Q24.02 32.65 21.55 31.70L21.57 31.73L21.62 31.78Q21.72 31.26 21.98 31.15L21.94 31.10L22.09 31.26Q22.59 30.69 23.23 30.65L23.24 30.66L23.34 30.76Q24.08 30.66 24.84 30.93L24.79 30.88L24.81 30.97L24.97 31.01L25.10 30.96L25.22 31.12L25.14 31.03Q26.19 31.47 26.38 32.73L26.48 32.83L26.42 32.77Q27.70 31.95 29.60 30.28L29.69 30.36L29.54 30.22Q29.30 29.52 28.31 28.34L28.35 28.38L28.41 28.44Q27.13 25.60 22.03 25.49L22.08 25.54L22.04 25.50Q18.92 25.49 16.94 26.06L16.95 26.08L17.07 26.19Q15.55 26.66 15.78 28.75L15.73 28.70L15.78 28.75Q15.84 29.96 16.76 32.05L16.76 32.05L16.75 32.05Q17.41 33.27 18.44 34.00L18.34 33.90L18.42 33.98Q19.16 35.52 20.45 36.20L20.40 36.15L20.38 36.13Q21.30 36.37 22.25 36.75L22.25 36.74L24.24 37.60L24.19 37.55Q23.87 38.67 21.93 38.56L21.88 38.50L21.81 38.44Q21.49 38.61 20.27 38.30L20.24 38.28L20.15 38.03L20.16 38.27L20.16 38.27Q19.22 37.82 18.57 36.34L18.59 36.35L18.67 36.43Q16.44 37.90 15.33 39.04L15.28 38.99L15.29 39.00Q15.64 39.95 16.66 40.75L16.56 40.65L16.39 40.78L16.58 40.97Q17.99 43.07 22.22 43.45L22.15 43.38L22.11 43.34Q23.51 43.60 26.74 43.83Z"/><path fill="#222" d="M75.33 30.93L75.27 30.87L75.22 30.83Q75.17 29.67 73.22 28.94L73.31 29.03L73.14 28.86Q72.77 28.79 72.23 28.79L72.29 28.85L72.27 28.83Q70.87 28.80 69.80 29.37L69.78 29.34L69.81 29.38Q68.49 30.14 68.60 31.36L68.49 31.25L68.58 31.34Q68.78 34.02 68.63 36.27L68.69 36.32L68.70 36.33Q68.55 38.78 67.83 41.29L67.81 41.27L67.91 41.37Q65.66 41.75 64.48 42.16L64.48 42.17L64.46 42.15Q66.05 38.52 66.05 34.52L66.15 34.62L66.15 34.62Q66.06 29.09 63.47 24.63L63.47 24.63L63.57 24.74Q64.68 25.12 67.07 25.84L67.18 25.95L67.08 25.85Q67.43 26.62 67.81 28.14L67.78 28.10L67.92 28.25Q69.17 26.08 73.06 26.15L72.97 26.07L73.01 26.11Q74.59 26.24 75.39 26.35L75.24 26.20L75.27 26.23Q78.35 26.72 78.42 28.74L78.35 28.66L78.45 28.76Q78.33 29.52 78.14 30.55L78.29 30.70L78.31 30.72Q77.85 33.23 78.04 36.24L78.02 36.22L77.90 36.10Q78.08 38.98 79.07 41.53L79.14 41.60L79.07 41.53Q77.41 41.16 75.69 41.01L75.71 41.02L75.63 40.95Q75.23 38.64 75.16 35.98L75.06 35.89L75.07 35.90Q74.99 33.15 75.22 30.83ZM75.21 41.25L75.34 41.37L75.20 41.24Q76.15 41.39 77.45 41.62L77.42 41.59L77.80 42.66L77.78 42.64Q77.90 43.07 78.13 43.60L78.18 43.64L78.13 43.60Q80.46 44.06 83.16 45.24L83.12 45.19L83.25 45.33Q80.73 42.05 80.04 38.24L80.20 38.39L80.19 38.38Q79.73 36.13 79.84 32.44L79.81 32.41L79.97 32.57Q79.84 32.13 79.88 31.33L80.01 31.46L79.98 31.43Q80.01 30.78 79.93 30.28L79.93 30.28L79.84 30.20Q79.89 28.68 78.79 28.19L78.81 28.21L78.70 28.10Q78.64 27.36 77.88 26.75L77.84 26.70L77.85 26.72Q76.01 25.57 72.97 25.64L73.12 25.79L73.09 25.77Q71.09 25.67 70.25 25.86L70.37 25.97L70.32 25.93Q68.84 26.23 67.89 27.15L67.94 27.20L67.97 27.23Q67.74 26.58 67.36 25.56L67.52 25.72L67.49 25.68Q64.72 25.05 62.90 24.06L62.90 24.07L62.78 23.94Q65.82 28.81 65.82 34.56L65.95 34.69L65.86 34.60Q65.89 39.01 63.99 42.85L63.94 42.81L63.98 42.84Q64.70 42.57 65.99 42.19L66.01 42.21L65.93 42.13Q65.50 43.46 64.97 44.45L64.91 44.39L64.96 44.43Q66.39 44.00 69.93 43.43L69.87 43.37L69.94 43.44Q70.91 38.28 70.79 33.44L70.66 33.30L70.66 33.31Q70.75 32.60 71.93 31.88L71.87 31.81L71.82 31.76Q72.81 31.08 73.91 30.96L74.02 31.07L73.96 31.01Q74.42 30.98 74.84 31.17L74.80 31.13L74.85 31.18Q74.81 33.84 74.85 36.39L74.80 36.34L74.70 36.24Q74.75 38.77 75.25 41.28Z"/></svg>