<svg xmlns="http://www.w3.org/2000/svg" width="150" height="50" viewBox="0,0,150,50"><path fill="#444" d="M121.64 18.49L121.56 18.41L121.63 18.48Q120.88 18.84 120.73 19.64L120.82 19.73L120.72 24.77L120.72 24.77Q121.83 24.73 124.04 24.46L124.04 24.47L124.07 24.50Q124.13 25.02 124.10 25.86L124.00 25.76L123.96 25.72Q124.03 26.59 124.03 27.05L123.99 27.01L122.44 27.13L122.49 27.19Q121.53 27.10 120.65 27.10L120.82 27.26L120.75 27.19Q120.65 31.29 120.58 39.66L120.69 39.77L120.61 39.70Q118.44 39.81 116.96 40.49L116.92 40.46L117.04 40.58Q118.07 34.37 117.95 27.14L117.95 27.13L117.95 27.13Q117.28 27.07 115.98 26.81L115.87 26.70L115.95 26.78Q115.92 25.76 115.73 23.81L115.81 23.89L115.83 23.91Q116.94 24.41 117.89 24.60L117.80 24.51L117.79 24.50Q117.89 23.99 117.58 21.51L117.55 21.48L117.49 21.42Q117.22 19.32 117.22 18.37L117.22 18.38L117.21 18.36Q117.18 16.65 118.59 16.08L118.59 16.09L118.66 16.16Q119.55 15.87 124.38 15.03L124.30 14.94L124.44 15.08Q125.19 14.89 126.03 14.77L125.97 14.72L126.06 14.80Q125.82 15.55 125.67 16.43L125.65 16.41L125.34 17.96L125.24 17.86Q124.60 17.72 124.10 17.83L124.08 17.81L124.21 17.94Q123.59 17.93 121.69 18.54ZM127.14 19.69L127.00 19.55L126.98 19.53Q127.36 17.36 127.97 14.81L127.91 14.75L127.92 14.76Q127.31 15.10 126.01 15.71L126.03 15.72L126.54 14.14L126.53 14.13Q125.29 14.30 122.81 14.83L122.77 14.79L122.70 14.71Q121.53 14.80 118.33 15.72L118.36 15.74L118.34 15.73Q116.80 16.17 116.80 18.03L116.85 18.08L116.76 17.99Q116.83 18.36 116.90 18.70L116.99 18.79L117.01 18.81Q117.05 19.95 117.16 21.29L117.22 21.34L117.47 24.07L117.43 24.03Q116.12 23.71 115.47 23.25L115.47 23.24L115.41 23.19Q115.52 24.14 115.56 25.17L115.65 25.26L115.60 27.07L115.77 27.24Q116.36 27.29 117.16 27.37L117.26 27.48L117.14 29.45L117.51 29.43L117.69 29.61Q117.47 35.64 116.48 41.09L116.57 41.17L116.55 41.16Q117.40 40.52 118.58 40.26L118.70 40.37L118.57 42.49L118.42 42.34Q119.77 42.16 121.06 42.12L121.00 42.07L121.00 42.07Q122.22 42.02 123.47 42.29L123.52 42.34L123.47 42.29Q122.59 37.26 122.59 29.30L122.61 29.32L122.70 29.41Q123.86 29.47 125.95 29.54L125.91 29.50L125.92 27.65L125.90 27.63Q125.82 26.59 125.86 25.64L125.98 25.77L125.98 25.76Q125.41 25.76 124.34 26.02L124.39 26.07L124.24 25.93Q124.39 25.39 124.50 24.06L124.39 23.94L124.52 24.08Q123.63 24.25 122.83 24.33L122.87 24.37L122.80 24.30Q122.89 22.98 123.00 21.57L122.98 21.55L122.93 21.49Q123.04 20.80 123.57 20.46L123.58 20.47L123.62 20.51Q124.66 19.91 125.48 19.83L125.45 19.81L125.44 19.79Q126.19 19.65 127.03 19.58Z"/><path fill="#444" d="M46.29 29.06L46.38 29.15L46.43 29.20Q44.49 28.97 43.25 30.39L43.29 30.43L43.32 30.46Q42.02 31.83 41.83 33.74L41.82 33.72L41.95 33.85Q41.53 35.72 42.62 36.69L42.66 36.73L42.66 36.74Q43.74 37.70 45.84 37.59L45.85 37.60L45.83 37.58Q47.93 37.43 49.03 36.75L49.03 36.74L49.16 36.88Q50.24 35.71 50.24 34.15L50.24 34.15L50.21 34.11Q50.31 33.83 50.23 33.45L50.19 33.41L50.20 33.42Q50.15 31.62 49.05 30.27L49.05 30.28L49.05 30.27Q48.11 29.09 46.43 29.20ZM45.90 40.20L45.90 40.20L46.01 40.32Q41.47 40.15 40.06 39.39L40.13 39.46L40.09 39.42Q39.14 38.73 38.95 37.02L38.93 37.00L39.00 37.07Q38.84 36.26 38.88 35.54L38.89 35.56L38.88 35.55Q38.96 34.52 38.96 34.06L39.06 34.16L39.06 34.17Q39.45 31.24 39.61 30.56L39.60 30.56L39.66 30.61Q40.09 28.64 40.93 27.23L41.04 27.34L41.01 27.32Q43.67 22.93 49.61 16.58L49.52 16.49L49.58 16.54Q52.15 16.15 54.36 15.35L54.51 15.50L54.37 15.36Q47.53 22.83 44.33 27.06L44.30 27.03L44.29 27.02Q45.43 26.67 46.72 26.67L46.70 26.65L46.69 26.64Q50.01 26.64 51.53 28.58L51.50 28.55L51.38 28.44Q52.91 30.28 53.26 33.82L53.14 33.70L53.21 33.77Q53.27 34.47 53.27 35.08L53.28 35.09L53.32 35.14Q53.28 38.22 51.07 39.28L51.09 39.30L51.04 39.25Q49.74 39.78 45.85 40.16ZM48.23 42.65L48.26 42.67L48.23 42.65Q49.46 42.55 51.44 42.62L51.57 42.75L51.40 42.58Q53.16 42.78 54.72 42.06L54.63 41.97L54.59 41.92Q55.86 41.29 55.86 39.50L55.71 39.35L55.84 39.48Q55.88 39.02 55.71 38.03L55.64 37.96L55.65 37.98Q55.47 36.98 55.47 36.52L55.48 36.53L55.36 36.41Q54.57 31.78 52.97 29.88L52.87 29.77L52.99 29.89Q52.84 29.70 52.68 29.47L52.68 29.47L52.38 29.24L52.38 29.29L52.28 29.19Q51.92 28.67 51.31 27.72L51.40 27.80L51.32 27.72Q50.57 26.94 48.59 26.48L48.57 26.46L48.58 26.47Q49.73 24.81 52.70 21.12L52.73 21.15L56.98 15.88L56.86 15.76Q55.34 16.68 52.94 17.44L52.92 17.41L53.03 17.52Q53.84 16.43 55.63 14.45L55.67 14.49L55.60 14.42Q53.26 15.54 49.38 16.12L49.48 16.21L49.43 16.17Q43.64 21.99 40.67 26.94L40.62 26.89L40.76 27.03Q39.16 29.47 38.59 35.71L38.53 35.65L38.66 35.78Q38.53 36.29 38.60 37.24L38.55 37.19L38.68 37.32Q38.76 39.08 39.87 39.99L39.75 39.88L39.73 39.86Q40.24 40.13 40.20 40.17L40.11 40.08L40.21 40.19Q40.53 41.04 41.33 41.46L41.41 41.53L41.33 41.45Q42.83 42.20 44.78 42.39L44.67 42.29L44.71 42.32Q44.72 42.34 48.22 42.64ZM47.95 31.36L48.02 31.43L47.99 31.40Q48.58 31.31 49.53 31.80L49.52 31.80L49.55 31.83Q49.95 32.83 49.95 33.47L49.84 33.37L49.95 33.47Q50.13 35.33 49.18 36.32L49.06 36.20L49.00 36.14Q47.95 36.88 45.86 37.19L45.95 37.28L45.91 37.24Q44.48 37.26 43.95 37.00L43.91 36.96L43.91 36.96Q43.74 36.52 43.74 36.22L43.84 36.31L43.82 36.29Q43.50 32.93 46.43 31.64L46.44 31.64L46.50 31.71Q47.24 31.34 48.00 31.41Z"/><path fill="#444" d="M93.11 29.57L93.09 29.55L93.27 29.73Q93.23 33.95 92.50 38.10L92.54 38.14L92.43 38.03Q94.61 37.39 97.69 37.28L97.85 37.43L97.82 37.40Q99.09 37.53 100.16 36.52L100.15 36.51L100.10 36.47Q101.30 35.59 101.30 34.26L101.18 34.13L101.29 34.25Q101.22 33.87 101.18 33.61L101.30 33.72L101.30 33.73Q101.01 30.65 98.76 29.82L98.74 29.79L98.76 29.81Q98.05 29.56 97.37 29.64L97.41 29.68L97.45 29.73Q96.26 29.52 95.23 29.56L95.28 29.60L95.23 29.56Q94.30 29.73 93.28 29.73ZM92.04 19.28L92.01 19.26L92.02 19.27Q92.90 22.58 93.17 26.96L93.06 26.85L93.09 26.89Q94.64 27.10 97.30 27.14L97.32 27.15L97.28 27.11Q100.19 27.13 100.53 23.59L100.58 23.64L100.46 23.52Q100.71 21.64 99.31 20.80L99.18 20.68L99.25 20.75Q98.28 20.16 93.87 19.52L93.95 19.60L93.94 19.59Q92.84 19.41 91.93 19.18ZM88.31 42.09L88.35 42.13L88.34 42.12Q90.76 35.41 90.49 28.02L90.45 27.98L90.55 28.07Q90.25 20.77 87.32 14.30L87.29 14.27L87.26 14.24Q91.17 16.89 97.39 17.14L97.25 17.00L97.32 17.06Q103.48 17.25 103.82 20.14L103.93 20.25L103.84 20.16Q104.26 23.02 102.85 25.69L102.89 25.72L102.80 25.63Q102.15 27.23 100.55 27.91L100.37 27.73L100.44 27.80Q104.08 28.47 104.31 33.84L104.37 33.91L104.39 33.92Q104.50 35.06 104.42 36.46L104.27 36.31L104.41 36.45Q104.38 37.80 103.45 38.73L103.43 38.71L103.34 38.62Q102.38 39.53 101.05 39.68L101.14 39.77L101.15 39.78Q99.75 39.94 98.69 39.94L98.50 39.76L98.64 39.90Q92.84 39.81 88.31 42.09ZM101.10 42.39L101.17 42.47L101.12 42.42Q102.06 42.48 103.93 42.60L104.00 42.66L103.85 42.52Q105.31 42.60 106.41 41.73L106.41 41.73L106.46 41.77Q107.19 40.80 107.08 39.24L107.17 39.33L107.07 39.22Q107.09 38.37 106.37 34.91L106.36 34.90L106.35 34.89Q105.65 31.64 103.79 30.16L103.73 30.10L103.28 29.24L103.34 29.29Q105.06 27.93 105.63 24.16L105.66 24.19L105.54 24.07Q105.83 23.07 105.76 21.66L105.61 21.51L105.67 21.57Q105.55 20.20 104.45 19.36L104.63 19.54L104.47 19.38Q104.24 19.26 104.12 19.23L104.13 19.23L104.12 19.23Q103.94 18.78 103.10 17.98L102.95 17.82L103.08 17.95Q101.48 16.81 97.26 16.62L97.19 16.56L97.21 16.57Q90.61 16.34 86.61 13.44L86.55 13.38L86.58 13.41Q89.85 20.41 90.16 27.95L90.28 28.07L90.19 27.98Q90.57 35.86 87.75 42.79L87.71 42.75L89.75 41.78L89.73 41.76Q89.42 42.97 88.93 44.12L89.02 44.21L88.90 44.09Q93.25 42.27 98.28 42.27L98.31 42.30L98.31 42.30Q99.60 42.19 101.04 42.34ZM98.87 31.75L99.03 31.92L98.92 31.80Q99.68 31.76 100.59 32.21L100.59 32.22L100.68 32.31Q100.79 32.65 100.95 33.71L100.97 33.74L100.97 33.74Q101.00 34.95 100.07 36.00L100.06 35.98L100.21 36.13Q99.17 37.08 97.76 36.96L97.84 37.04L96.28 37.08L96.22 37.02Q95.58 37.18 94.85 37.29L94.91 37.35L94.90 37.33Q95.05 35.35 95.13 31.89L95.23 32.00L95.18 31.94Q95.93 31.97 97.19 31.93L97.13 31.88L97.06 31.81Q98.38 31.83 98.99 31.87ZM97.99 22.31L97.91 22.22L98.36 22.30L98.35 22.28Q98.59 22.30 98.78 22.34L98.69 22.24L99.16 22.33L99.55 22.54L100.13 22.58L100.06 22.51Q100.12 22.72 100.12 23.02L100.09 23.00L100.22 23.66L100.22 23.66Q100.09 24.78 99.21 25.72L99.23 25.73L99.26 25.76Q98.36 26.68 97.14 26.68L97.23 26.76L97.13 26.66Q96.18 26.74 96.18 26.74L96.24 26.79L96.23 26.79Q94.80 26.65 95.14 26.65L95.15 26.66L95.19 26.70Q95.23 25.25 94.92 22.21L94.81 22.09L94.75 22.03Q96.37 22.21 97.89 22.21Z"/><path fill="#333" d="M25.89 30.83L25.93 30.87L25.92 30.86Q25.83 29.67 23.89 28.94L23.97 29.03L23.90 28.95Q23.44 28.80 22.91 28.80L22.79 28.68L22.86 28.75Q21.53 28.79 20.46 29.36L20.50 29.40L20.44 29.33Q19.06 30.05 19.18 31.27L19.15 31.25L19.22 31.32Q19.45 34.03 19.30 36.27L19.45 36.42L19.35 36.32Q19.27 38.83 18.54 41.34L18.49 41.28L18.53 41.33Q16.27 41.69 15.09 42.11L15.25 42.27L15.09 42.11Q16.83 38.64 16.83 34.64L16.88 34.68L16.83 34.63Q16.71 29.07 14.12 24.62L14.11 24.60L14.10 24.60Q15.42 25.20 17.82 25.92L17.90 26.00L17.80 25.90Q18.17 26.68 18.55 28.21L18.46 28.12L18.42 28.08Q19.74 25.97 23.62 26.05L23.71 26.14L23.64 26.07Q25.19 26.17 25.99 26.29L25.95 26.25L25.90 26.20Q28.98 26.69 29.06 28.71L28.99 28.64L28.98 28.63Q29.02 29.54 28.83 30.57L28.94 30.69L28.87 30.61Q28.46 33.17 28.65 36.18L28.69 36.22L28.69 36.22Q28.87 39.10 29.86 41.65L29.81 41.60L29.79 41.58Q27.99 41.08 26.28 40.93L26.31 40.95L26.30 40.94Q25.81 38.56 25.74 35.89L25.78 35.93L25.80 35.95Q25.76 33.25 25.99 30.93ZM25.89 41.26L25.86 41.23L25.93 41.30Q26.76 41.33 28.06 41.56L28.01 41.51L28.42 42.61L28.51 42.70Q28.58 43.07 28.81 43.61L28.84 43.64L28.90 43.70Q31.13 44.06 33.83 45.24L33.91 45.32L33.77 45.18Q31.39 42.04 30.70 38.23L30.77 38.30L30.71 38.24Q30.52 36.26 30.64 32.57L30.62 32.56L30.59 32.52Q30.57 32.20 30.61 31.40L30.52 31.31L30.57 31.36Q30.63 30.73 30.55 30.24L30.53 30.22L30.54 30.23Q30.44 28.57 29.34 28.07L29.40 28.14L29.46 28.20Q29.17 27.22 28.41 26.61L28.54 26.75L28.50 26.70Q26.82 25.71 23.78 25.79L23.65 25.66L23.71 25.72Q21.79 25.70 20.95 25.89L20.92 25.86L21.10 26.04Q19.63 26.36 18.67 27.27L18.63 27.23L18.63 27.23Q18.52 26.70 18.14 25.67L18.12 25.65L18.21 25.73Q15.31 24.97 13.49 23.98L13.41 23.91L13.49 23.98Q16.58 28.90 16.58 34.65L16.46 34.53L16.57 34.64Q16.51 38.96 14.61 42.81L14.53 42.73L14.66 42.86Q15.26 42.47 16.55 42.09L16.68 42.22L16.55 42.08Q16.02 43.31 15.49 44.30L15.53 44.34L15.62 44.43Q16.89 43.83 20.43 43.26L20.49 43.32L20.51 43.34Q21.55 38.25 21.44 33.42L21.44 33.42L21.40 33.38Q21.35 32.54 22.53 31.81L22.60 31.88L22.61 31.89Q23.56 31.16 24.66 31.05L24.61 31.00L24.75 31.14Q25.16 31.05 25.58 31.25L25.63 31.30L25.54 31.20Q25.40 33.77 25.44 36.32L25.40 36.28L25.48 36.35Q25.48 38.84 25.98 41.35Z"/><path fill="#333" d="M62.95 39.00L62.96 39.01L62.87 38.92Q64.67 36.46 69.43 29.19L69.53 29.28L69.58 29.34Q73.49 23.00 76.34 19.73L76.39 19.78L76.51 19.90Q74.33 20.12 72.24 20.12L72.31 20.19L72.22 20.09Q66.96 20.09 62.96 18.30L62.90 18.24L63.01 18.35Q62.26 16.34 61.57 14.78L61.72 14.93L61.54 14.75Q66.29 17.10 71.97 17.22L71.83 17.08L71.77 17.02Q77.03 17.21 82.20 15.31L82.22 15.33L82.11 15.22Q81.78 16.11 81.48 16.91L81.45 16.88L81.01 18.61L80.83 18.43Q77.89 22.19 73.89 28.01L73.88 28.00L70.48 32.75L70.61 32.88Q68.77 35.15 66.94 37.43L67.12 37.61L67.12 37.61Q70.35 36.93 73.67 37.00L73.63 36.96L73.75 37.08Q76.97 37.07 80.13 37.98L80.14 37.99L80.66 39.62L80.64 39.59Q80.83 40.36 81.17 41.20L81.17 41.19L81.33 41.35Q76.51 39.61 71.37 39.80L71.35 39.78L71.38 39.81Q66.39 40.16 61.90 42.18L61.84 42.11L61.73 42.00Q62.23 41.06 62.95 39.00ZM61.27 42.84L61.18 42.75L61.21 42.78Q62.36 42.10 63.16 41.84L63.19 41.87L63.24 41.92Q62.96 42.67 62.28 44.19L62.22 44.14L62.21 44.13Q67.98 42.05 73.96 42.28L73.87 42.19L74.05 42.37Q80.31 42.54 85.33 45.32L85.40 45.38L85.21 45.19Q83.98 42.97 83.18 40.80L83.09 40.71L83.13 40.76Q82.64 40.53 81.12 39.96L81.14 39.98L81.01 39.86Q80.91 39.18 80.49 37.69L80.49 37.69L80.49 37.70Q76.30 36.47 71.20 36.66L71.18 36.64L71.14 36.61Q73.37 33.96 76.91 28.40L76.88 28.37L76.98 28.47Q80.60 22.73 82.51 20.18L82.50 20.18L82.52 20.20Q82.88 18.65 83.90 15.94L83.97 16.01L84.05 16.09Q83.27 16.34 81.83 16.95L81.92 17.04L81.91 17.04Q82.13 16.12 82.86 14.59L82.98 14.72L82.95 14.68Q77.65 16.84 71.94 16.77L71.87 16.71L71.96 16.79Q65.88 16.58 60.94 14.07L60.93 14.06L60.96 14.09Q62.00 16.35 62.73 18.60L62.88 18.75L62.81 18.68Q63.95 19.25 64.75 19.48L64.67 19.40L64.74 19.47Q65.07 20.22 65.34 21.67L65.33 21.66L65.19 21.52Q69.06 22.73 73.93 22.54L73.76 22.36L73.79 22.39Q71.51 25.71 68.20 30.69L68.17 30.66L62.59 38.95L62.57 38.92Q62.23 40.22 61.20 42.77Z"/></svg>