<svg xmlns="http://www.w3.org/2000/svg" width="150" height="50" viewBox="0,0,150,50"><path fill="#111" d="M97.43 40.29L97.42 40.27L97.31 40.17Q95.48 40.13 93.81 40.70L93.73 40.62L93.88 40.77Q94.37 37.11 94.49 33.99L94.43 33.93L94.42 33.93Q94.57 30.92 94.34 27.26L94.40 27.32L94.41 27.33Q92.92 26.87 92.16 26.49L92.21 26.54L91.69 23.39L91.85 23.55Q92.51 24.09 94.10 24.66L94.04 24.60L94.12 24.68Q93.88 22.54 93.46 19.80L93.51 19.84L93.49 19.83Q95.84 20.57 97.47 20.42L97.34 20.29L97.33 24.99L97.24 24.90Q98.77 24.95 100.10 24.46L99.95 24.30L100.12 24.48Q100.04 25.35 99.81 27.10L99.76 27.05L99.74 27.02Q98.22 27.37 97.19 27.37L97.31 27.49L97.31 27.49Q97.22 29.57 97.22 33.83L97.17 33.78L97.18 33.79Q97.34 38.10 97.41 40.27ZM100.51 23.87L100.44 23.80L100.50 23.87Q100.13 23.88 99.52 24.11L99.67 24.25L100.03 21.45L100.01 21.44Q99.15 21.67 97.74 21.90L97.77 21.94L97.83 21.99Q97.76 21.23 97.91 19.86L97.81 19.77L97.94 19.90Q97.31 19.95 96.74 19.95L96.76 19.98L96.67 19.88Q94.55 19.90 92.92 19.17L93.00 19.26L93.00 19.26Q93.43 21.67 93.70 24.14L93.74 24.18L93.80 24.24Q92.79 23.77 91.27 22.74L91.40 22.87L91.29 22.77Q91.64 24.07 91.87 26.77L91.94 26.84L91.90 26.79Q92.42 27.09 93.60 27.51L93.49 27.40L93.62 27.53Q93.64 28.16 93.68 29.57L93.62 29.51L93.97 29.51L94.14 29.61L94.13 29.60Q94.05 30.70 94.05 31.88L94.18 32.01L94.09 31.92Q94.11 36.89 93.31 41.23L93.37 41.29L93.41 41.33Q93.46 41.07 95.40 40.54L95.48 40.62L95.43 40.57Q95.48 41.27 95.37 42.64L95.39 42.66L95.34 42.61Q96.26 42.66 97.06 42.66L97.03 42.63L97.09 42.69Q98.65 42.54 100.29 43.11L100.41 43.23L100.34 43.16Q99.08 37.52 99.27 29.60L99.26 29.60L101.56 29.11L101.52 29.08Q101.75 28.31 101.82 27.28L101.77 27.23L102.02 25.27L101.84 25.09Q101.43 25.52 100.25 25.97L100.26 25.98L100.16 25.88Q100.43 24.51 100.35 24.17L100.46 24.28L100.36 24.18Q100.41 24.04 100.48 23.85Z"/><path fill="#444" d="M48.57 20.05L48.69 20.17L48.56 20.04Q44.30 20.09 40.61 19.10L40.60 19.08L40.65 19.13Q42.17 23.70 42.36 28.54L42.30 28.48L42.26 28.43Q42.48 33.26 41.26 37.86L41.38 37.99L41.21 37.81Q44.21 37.39 47.71 37.24L47.67 37.19L47.63 37.15Q51.61 37.03 53.40 34.59L53.26 34.45L53.24 34.43Q54.88 32.49 55.07 28.38L55.06 28.36L55.07 28.38Q55.16 26.64 54.71 24.93L54.70 24.92L54.65 24.87Q53.40 20.16 48.68 20.16ZM36.75 42.15L36.66 42.06L36.71 42.11Q39.65 36.48 39.65 29.78L39.58 29.72L39.69 29.82Q39.54 21.14 35.23 14.14L35.34 14.24L35.40 14.30Q40.53 16.84 48.79 17.03L48.89 17.13L48.89 17.13Q57.79 17.35 58.13 24.51L58.02 24.40L58.10 24.48Q58.15 27.11 58.11 28.56L58.06 28.51L58.09 28.55Q57.98 33.19 57.14 35.36L57.13 35.35L57.29 35.51Q56.80 36.54 56.04 37.38L56.02 37.36L56.08 37.42Q54.68 38.91 52.05 39.41L52.03 39.39L51.99 39.34Q50.55 39.77 47.54 40.00L47.55 40.00L47.46 39.91Q41.37 40.41 36.76 42.16ZM54.74 42.10L54.66 42.01L54.68 42.03Q57.47 41.74 59.11 40.26L59.08 40.23L58.99 40.14Q60.26 38.44 60.22 35.70L60.12 35.60L60.14 35.61Q60.29 34.39 60.14 30.89L60.07 30.83L59.65 26.22L59.61 26.18Q59.54 24.02 58.59 21.92L58.61 21.94L58.61 21.94Q57.99 20.91 57.31 20.26L57.41 20.36L57.36 20.16L57.24 20.04Q55.60 17.14 51.19 16.76L51.19 16.77L51.26 16.84Q48.56 16.69 41.55 15.96L41.55 15.96L41.57 15.99Q38.18 15.40 34.48 13.39L34.60 13.50L34.62 13.53Q39.43 20.89 39.43 29.64L39.37 29.58L39.34 29.55Q39.48 36.70 36.13 42.87L36.05 42.78L35.98 42.71Q36.64 42.42 37.97 41.92L38.16 42.12L38.00 41.95Q37.72 42.85 36.84 44.33L36.92 44.42L36.82 44.32Q39.85 43.23 43.20 42.73L43.22 42.76L43.18 42.71Q45.36 42.49 49.01 42.38L48.92 42.29L48.96 42.33Q52.87 42.25 54.70 42.06ZM54.63 28.32L54.77 28.46L54.79 28.47Q54.37 36.43 47.67 36.81L47.65 36.80L47.65 36.80Q45.78 36.98 43.72 37.24L43.57 37.09L43.57 37.10Q44.39 33.35 44.39 29.69L44.30 29.60L44.31 29.61Q44.33 25.93 43.60 22.09L43.59 22.07L43.55 22.03Q45.79 22.37 50.47 22.37L50.48 22.38L50.64 22.54Q51.83 22.21 53.47 23.16L53.57 23.26L53.49 23.18Q54.88 25.56 54.72 28.41Z"/><path fill="#222" d="M71.03 29.13L71.10 29.20L71.10 29.20Q69.25 29.06 68.01 30.49L67.87 30.35L67.97 30.45Q66.61 31.76 66.42 33.66L66.48 33.72L66.59 33.83Q66.29 35.81 67.38 36.78L67.44 36.85L67.37 36.78Q68.45 37.75 70.55 37.63L70.54 37.62L70.57 37.66Q72.56 37.39 73.66 36.71L73.75 36.80L73.81 36.86Q74.93 35.73 74.93 34.17L74.81 34.05L74.87 34.11Q74.93 33.79 74.85 33.41L74.74 33.30L74.84 33.40Q74.95 31.75 73.84 30.40L73.78 30.34L73.87 30.42Q72.68 28.99 71.00 29.10ZM70.61 40.25L70.54 40.17L70.65 40.28Q66.20 40.21 64.79 39.45L64.84 39.50L64.89 39.55Q63.81 38.74 63.62 37.02L63.59 37.00L63.63 37.04Q63.46 36.22 63.50 35.50L63.57 35.56L63.51 35.50Q63.70 34.59 63.70 34.13L63.72 34.16L63.78 34.21Q64.16 31.28 64.31 30.59L64.31 30.59L64.29 30.57Q64.74 28.62 65.57 27.21L65.53 27.18L65.51 27.15Q68.24 22.83 74.17 16.48L74.29 16.59L74.20 16.50Q76.90 16.23 79.11 15.43L79.14 15.46L79.03 15.35Q72.18 22.82 68.98 27.05L69.08 27.14L69.00 27.06Q70.05 26.62 71.34 26.62L71.42 26.70L71.23 26.51Q74.64 26.61 76.16 28.55L76.21 28.60L76.21 28.60Q77.52 30.21 77.86 33.75L77.87 33.77L77.92 33.81Q77.90 34.44 77.90 35.05L77.96 35.11L77.99 35.14Q77.88 38.15 75.67 39.21L75.73 39.27L75.76 39.30Q74.42 39.79 70.54 40.17ZM72.93 42.68L72.83 42.58L72.97 42.72Q74.17 42.59 76.15 42.66L76.05 42.56L76.19 42.71Q77.70 42.65 79.26 41.93L79.26 41.93L79.42 42.09Q80.42 41.19 80.42 39.40L80.54 39.51L80.47 39.45Q80.51 38.99 80.34 38.00L80.33 38.00L80.24 37.90Q80.12 36.96 80.12 36.51L80.01 36.40L80.13 36.52Q79.27 31.82 77.68 29.91L77.67 29.91L77.71 29.94Q77.61 29.81 77.46 29.58L77.44 29.57L77.05 29.25L77.09 29.33L77.00 29.24Q76.73 28.82 76.12 27.87L76.06 27.80L76.14 27.89Q75.13 26.83 73.15 26.38L73.22 26.45L73.09 26.32Q74.46 24.87 77.43 21.17L77.35 21.09L81.56 15.79L81.62 15.85Q80.11 16.78 77.71 17.54L77.58 17.41L77.59 17.42Q78.60 16.53 80.39 14.55L80.43 14.59L80.43 14.59Q77.87 15.49 73.99 16.06L74.15 16.23L74.12 16.19Q68.43 22.11 65.46 27.06L65.36 26.96L65.43 27.03Q63.80 29.44 63.23 35.68L63.32 35.78L63.26 35.71Q63.16 36.26 63.24 37.21L63.20 37.18L63.35 37.32Q63.35 39.00 64.45 39.91L64.42 39.88L64.44 39.90Q64.94 40.17 64.90 40.21L64.77 40.08L64.79 40.10Q65.17 41.01 65.97 41.43L65.98 41.44L66.01 41.47Q67.48 42.17 69.42 42.36L69.43 42.38L69.31 42.26Q69.31 42.25 72.81 42.56ZM72.57 31.32L72.70 31.45L72.74 31.48Q73.30 31.36 74.25 31.86L74.11 31.72L74.24 31.84Q74.49 32.71 74.49 33.35L74.55 33.41L74.48 33.35Q74.71 35.25 73.76 36.24L73.79 36.26L73.67 36.14Q72.60 36.86 70.50 37.17L70.52 37.19L70.55 37.21Q69.09 37.21 68.56 36.94L68.58 36.95L68.65 37.03Q68.34 36.46 68.34 36.15L68.38 36.19L68.34 36.15Q68.20 32.96 71.13 31.66L71.03 31.57L71.15 31.69Q71.87 31.30 72.63 31.37Z"/><path fill="#111" d="M21.52 29.75L21.48 29.71L21.43 29.66Q17.21 29.44 16.63 32.48L16.81 32.66L16.76 32.61Q16.49 33.59 16.68 34.47L16.65 34.43L16.77 34.56Q16.68 35.23 17.14 36.64L17.28 36.78L17.21 36.71Q18.29 39.88 21.60 39.73L21.62 39.75L21.60 39.73Q23.58 39.76 24.91 38.20L25.03 38.33L24.88 38.18Q26.18 36.77 26.18 34.72L26.11 34.64L26.19 34.73Q26.38 34.20 26.23 33.13L26.26 33.16L26.25 33.15Q26.09 32.15 25.67 31.46L25.66 31.46L25.76 31.56Q24.00 29.76 21.41 29.65ZM26.40 48.27L26.42 48.28L26.44 48.30Q24.59 48.85 16.52 49.23L16.49 49.20L16.51 49.22Q14.72 49.18 13.08 48.34L13.20 48.47L13.10 48.36Q13.98 47.46 15.81 45.67L15.70 45.56L15.81 45.67Q18.11 46.59 20.20 46.40L20.30 46.50L20.21 46.41Q23.09 46.13 23.93 45.86L23.97 45.91L24.09 46.02Q26.29 45.29 26.29 43.50L26.24 43.45L26.30 43.51Q26.17 43.16 26.10 42.93L26.14 42.97L26.15 41.50L26.00 41.35Q26.00 40.59 26.00 39.79L26.06 39.85L26.13 39.92Q24.61 42.02 21.22 42.02L21.38 42.18L21.29 42.09Q17.43 42.10 15.79 39.90L15.80 39.91L15.83 39.94Q14.65 38.34 13.85 33.92L13.82 33.90L13.92 34.00Q13.56 32.41 13.56 31.00L13.54 30.98L13.51 30.95Q13.58 29.23 14.49 28.24L14.44 28.19L14.48 28.23Q16.13 26.80 20.78 26.80L20.71 26.74L22.61 27.07L22.61 27.07Q25.75 27.36 27.08 29.30L27.10 29.32L27.08 29.30Q27.32 28.51 27.74 26.87L27.75 26.88L27.64 26.78Q29.47 26.40 31.22 25.67L31.28 25.73L31.37 25.82Q28.69 31.90 28.69 39.14L28.64 39.08L28.57 39.01Q28.53 41.64 28.91 44.26L28.95 44.30L29.04 44.39Q29.26 45.10 29.18 45.79L29.17 45.78L29.14 45.75Q28.89 47.06 27.68 47.82L27.74 47.89L27.59 47.74Q27.14 48.05 26.30 48.16ZM29.23 51.06L29.29 51.11L29.40 51.23Q30.81 51.23 31.57 50.28L31.64 50.34L31.65 50.35Q31.88 49.29 31.77 48.57L31.72 48.52L31.75 48.55Q31.61 47.88 31.42 47.12L31.57 47.27L31.54 47.23Q30.19 41.89 30.54 36.64L30.71 36.81L30.59 36.69Q30.89 31.21 33.02 26.37L33.09 26.44L30.96 27.35L31.10 27.49Q31.25 26.80 31.47 26.23L31.49 26.25L32.01 25.13L31.91 25.03Q29.60 26.03 27.40 26.45L27.46 26.52L27.36 26.42Q27.01 27.25 26.86 28.28L27.01 28.43L27.02 28.44Q24.82 26.43 20.79 26.43L20.71 26.36L18.92 26.32L19.08 26.47Q15.73 26.36 14.05 27.77L14.15 27.86L14.04 27.76Q13.28 28.90 13.32 30.80L13.22 30.70L13.25 30.74Q13.35 33.27 14.38 37.54L14.25 37.40L14.34 37.50Q14.76 39.36 15.97 40.77L15.94 40.73L16.20 40.99L16.28 41.07L16.32 41.11Q17.59 43.56 20.18 44.09L20.13 44.05L20.00 43.92Q21.39 44.21 22.84 44.25L22.84 44.24L22.91 44.32Q24.69 44.38 25.76 44.00L25.82 44.07L25.76 44.00Q25.21 45.62 22.54 45.97L22.40 45.82L22.53 45.95Q21.35 45.99 20.66 45.99L20.69 46.01L20.29 46.00L20.27 45.98Q17.52 46.04 15.84 45.09L15.79 45.04L14.12 46.79L14.15 46.83Q13.25 47.60 12.41 48.55L12.54 48.68L12.50 48.63Q13.37 49.05 14.36 49.24L14.47 49.35L13.57 50.20L13.65 50.28Q16.29 51.29 21.92 51.29L21.83 51.19L22.13 51.26L22.21 51.34Q25.70 51.21 29.27 51.10ZM23.39 32.04L23.40 32.06L23.37 32.02Q24.73 32.01 25.64 32.43L25.61 32.40L25.57 32.35Q25.72 32.81 25.79 33.49L25.85 33.54L25.88 33.58Q25.95 33.91 25.91 34.83L25.81 34.73L25.88 34.80Q25.70 36.60 24.60 37.89L24.63 37.92L24.73 38.03Q23.52 39.41 21.62 39.37L21.63 39.38L21.60 39.35Q20.21 39.33 19.37 38.91L19.39 38.93L19.24 38.78Q19.02 37.80 18.98 36.77L18.82 36.61L18.98 36.77Q18.73 32.29 23.33 31.98Z"/><path fill="#222" d="M119.43 39.99L119.44 40.01L119.40 39.97Q115.25 39.43 113.42 37.99L113.34 37.90L113.37 37.93Q111.42 36.36 111.00 33.35L111.01 33.37L111.19 33.55Q111.09 33.11 110.75 28.35L110.70 28.30L110.66 28.26Q110.85 27.23 110.77 25.97L110.76 25.96L110.77 25.97Q110.60 20.93 112.81 19.18L112.80 19.17L112.70 19.07Q115.40 17.01 123.16 16.32L123.12 16.28L123.18 16.34Q124.52 16.19 126.15 16.23L126.04 16.12L126.04 16.11Q126.22 16.29 129.19 16.29L129.18 16.28L129.03 16.13Q129.90 16.17 131.61 16.32L131.67 16.37L131.58 16.29Q131.14 17.30 130.12 20.38L130.04 20.31L130.07 20.33Q128.05 19.19 125.05 19.19L124.96 19.11L125.08 19.23Q124.36 19.27 123.56 19.35L123.53 19.31L123.47 19.25Q118.39 19.73 115.87 21.71L115.93 21.77L115.90 21.74Q113.87 23.32 113.71 26.67L113.78 26.74L113.66 26.61Q113.55 27.15 113.58 28.40L113.72 28.54L113.64 28.46Q113.89 33.43 116.28 35.52L116.16 35.39L116.16 35.40Q118.31 37.31 123.29 37.62L123.29 37.61L123.41 37.73Q126.40 37.76 129.41 35.97L129.44 36.00L129.40 35.96Q130.09 38.78 130.70 40.15L130.63 40.08L130.75 40.20Q128.69 40.50 127.06 40.47L126.95 40.36L126.89 40.30Q122.47 40.30 119.35 39.92ZM134.41 43.60L134.49 43.68L134.56 43.74Q132.74 40.71 132.05 38.12L132.07 38.14L132.02 38.08Q131.53 38.28 130.54 38.66L130.60 38.72L130.68 38.80Q130.23 37.89 130.04 37.05L129.99 37.01L129.70 35.38L129.59 35.27Q126.32 37.34 123.20 37.22L123.36 37.38L123.23 37.25Q118.98 37.07 116.66 35.32L116.75 35.41L116.67 35.33Q115.62 33.60 115.70 30.67L115.59 30.56L115.62 30.59Q115.87 26.20 118.35 24.07L118.28 24.00L118.32 24.04Q120.29 21.98 124.98 21.37L125.06 21.45L125.05 21.44Q125.86 21.34 126.58 21.34L126.56 21.32L126.60 21.35Q129.34 21.32 131.43 22.84L131.54 22.95L131.46 22.86Q132.02 20.80 133.23 17.56L133.13 17.45L133.15 17.48Q133.00 17.59 132.45 17.53L132.35 17.43L132.39 17.48Q131.80 17.38 131.53 17.38L131.48 17.33L131.62 17.47Q131.81 16.94 132.27 15.95L132.13 15.81L132.12 15.80Q131.93 15.84 129.43 15.76L129.47 15.80L129.49 15.82Q127.07 15.81 126.42 15.85L126.41 15.83L126.37 15.79Q115.81 16.08 112.34 18.67L112.44 18.77L112.26 18.59Q110.43 20.61 110.43 24.53L110.38 24.47L110.32 24.42Q110.33 25.53 110.44 28.23L110.51 28.30L110.41 28.20Q110.60 31.81 110.83 33.53L110.74 33.44L110.76 33.46Q111.24 36.68 112.84 38.20L112.70 38.07L112.70 38.06Q113.35 38.90 114.60 40.04L114.57 40.02L114.59 40.03Q117.83 41.78 123.08 42.54L123.11 42.58L123.04 42.51Q129.50 43.48 134.49 43.67Z"/></svg>