<svg xmlns="http://www.w3.org/2000/svg" width="150" height="50" viewBox="0,0,150,50"><path fill="#222" d="M80.42 41.53L80.43 41.54L80.44 41.55Q78.36 41.18 76.19 41.02L76.19 41.03L76.07 40.91Q74.70 39.54 72.04 35.69L72.16 35.82L72.07 35.72Q69.96 38.91 67.56 41.34L67.55 41.33L65.36 41.62L65.28 41.54Q64.33 41.85 63.34 42.12L63.27 42.05L63.28 42.05Q67.52 37.99 70.52 33.88L70.58 33.93L70.61 33.97Q67.33 29.77 61.92 24.97L61.87 24.92L61.82 24.87Q64.04 25.60 66.74 26.02L66.71 25.99L66.86 26.14Q70.23 29.17 72.13 31.87L72.18 31.92L72.19 31.92Q74.15 28.71 76.89 26.20L76.89 26.20L76.94 26.24Q79.99 25.91 81.82 25.42L81.78 25.38L81.87 25.47Q77.39 29.17 73.69 33.73L73.58 33.62L73.62 33.66Q76.96 38.30 80.43 41.53ZM83.37 24.76L83.40 24.79L83.25 24.63Q80.40 25.52 76.86 25.87L76.97 25.97L76.90 25.90Q73.97 28.53 72.26 31.01L72.20 30.95L72.20 30.95Q71.31 29.90 69.67 27.92L69.74 27.99L69.56 28.00L69.63 28.07Q69.49 28.05 69.38 28.05L69.28 27.95L69.23 27.90Q68.44 27.03 66.80 25.59L66.81 25.60L66.83 25.61Q63.32 25.15 60.47 23.93L60.55 24.01L60.53 23.99Q66.01 28.76 70.05 33.90L70.00 33.85L70.07 33.92Q66.73 38.57 62.31 42.87L62.19 42.75L62.19 42.75Q62.47 42.69 65.97 41.85L65.99 41.87L66.06 41.94Q64.52 43.25 62.88 44.58L62.86 44.56L62.88 44.58Q66.01 43.60 69.17 43.41L69.20 43.44L69.21 43.45Q71.49 41.09 73.39 38.35L73.55 38.50L73.49 38.44Q74.80 40.09 76.02 41.27L76.05 41.30L76.12 41.37Q76.20 41.35 76.28 41.42L76.40 41.54L76.41 41.36L76.52 41.47Q77.84 42.64 79.17 43.70L79.02 43.55L79.17 43.71Q82.58 44.07 85.47 45.10L85.52 45.14L85.49 45.11Q79.36 40.70 75.67 35.52L75.77 35.63L75.64 35.49Q79.42 30.59 83.99 26.52L83.99 26.52L83.86 26.39Q82.88 26.70 81.89 26.93L82.03 27.07L79.89 27.41L79.93 27.45Q81.13 26.55 83.29 24.68Z"/><path fill="#111" d="M13.61 14.27L13.64 14.30L13.69 14.35Q17.47 16.87 22.23 17.10L22.30 17.17L22.20 17.07Q26.89 17.30 31.15 15.55L31.08 15.49L31.08 15.48Q30.83 16.03 30.07 18.81L30.14 18.88L30.16 18.90Q27.40 19.91 24.43 20.06L24.29 19.92L24.44 20.07Q21.34 20.10 18.45 19.37L18.59 19.51L18.57 19.49Q19.15 23.00 19.34 26.66L19.42 26.74L19.45 26.76Q21.32 26.85 22.92 26.81L22.96 26.85L23.02 26.91Q24.18 26.86 26.58 26.74L26.68 26.84L26.70 26.86Q26.68 27.52 26.68 28.21L26.60 28.13L26.65 29.51L26.61 29.47Q24.23 29.49 19.43 29.57L19.49 29.63L19.41 29.54Q19.46 33.71 18.89 37.71L18.82 37.64L18.80 37.62Q21.39 36.93 24.13 37.04L24.13 37.04L24.27 37.19Q26.88 37.17 29.47 38.01L29.38 37.92L29.48 38.02Q29.50 38.76 29.76 39.52L29.74 39.49L30.23 41.05L30.30 41.13Q27.06 39.78 23.63 39.78L23.69 39.84L23.72 39.87Q18.83 39.85 14.56 42.10L14.57 42.10L14.55 42.08Q16.85 35.24 16.58 28.12L16.66 28.20L16.60 28.14Q16.31 20.96 13.64 14.30ZM14.02 42.77L14.06 42.81L13.99 42.74Q15.22 41.99 15.98 41.65L16.12 41.79L16.12 41.79Q15.81 42.43 15.24 43.96L15.23 43.94L15.27 43.98Q19.79 42.00 24.86 42.26L24.97 42.37L24.97 42.38Q30.00 42.53 33.99 45.23L33.99 45.23L34.08 45.32Q32.87 42.74 32.19 40.80L32.27 40.88L32.25 40.86Q31.29 40.28 30.30 39.94L30.15 39.79L30.21 39.85Q29.91 38.56 29.75 37.76L29.77 37.77L29.61 37.62Q26.58 36.68 23.42 36.68L23.34 36.60L23.39 36.65Q22.30 36.70 21.16 36.82L21.05 36.71L21.05 36.70Q21.23 35.52 21.27 34.30L21.38 34.41L21.39 31.83L21.27 31.71Q23.11 31.65 24.90 31.69L24.97 31.75L24.95 31.74Q26.82 31.82 28.61 31.97L28.51 31.87L28.54 31.90Q28.56 31.04 28.56 30.09L28.60 30.13L28.58 28.21L27.79 28.29L27.68 28.18Q27.34 28.34 26.89 28.34L26.90 28.35L26.79 28.25Q26.91 27.68 27.07 26.39L27.01 26.34L27.03 26.35Q25.47 26.62 24.29 26.66L24.16 26.53L24.20 26.57Q23.34 26.67 21.52 26.59L21.52 26.60L21.53 26.61Q21.36 25.10 21.17 22.28L21.23 22.34L21.11 22.23Q22.30 22.50 23.29 22.50L23.21 22.42L23.11 22.32Q27.84 22.33 31.53 20.43L31.66 20.55L31.71 20.61Q32.28 18.24 33.15 16.03L33.03 15.91L33.03 15.90Q31.67 16.72 30.83 17.06L30.88 17.11L30.84 17.07Q31.29 16.46 31.75 14.90L31.73 14.87L31.73 14.87Q26.93 16.85 22.06 16.55L22.18 16.67L22.19 16.68Q16.76 16.24 12.91 13.38L13.06 13.53L13.08 13.55Q15.90 20.44 16.21 28.05L16.22 28.07L16.20 28.05Q16.46 35.92 13.95 42.70Z"/><path fill="#222" d="M92.69 33.37L92.62 33.30L92.53 33.21Q92.50 36.16 91.32 40.80L91.27 40.75L91.31 40.79Q89.48 41.28 87.88 42.08L87.80 42.00L87.85 42.05Q90.61 35.18 90.35 27.76L90.18 27.59L90.32 27.73Q89.89 20.18 86.80 13.44L86.91 13.55L86.77 13.41Q88.85 14.80 90.72 15.37L90.77 15.42L90.76 15.41Q92.76 22.26 92.76 28.92L92.83 28.99L92.83 28.98Q92.93 30.53 92.85 32.01L92.79 31.95L92.79 31.95Q93.97 30.77 99.19 25.83L99.11 25.75L99.12 25.76Q100.16 25.70 101.15 25.62L101.14 25.60L103.19 25.41L103.31 25.53Q100.21 28.60 95.91 32.37L95.82 32.28L95.82 32.28Q99.20 35.05 105.67 40.87L105.66 40.87L105.69 40.90Q102.97 40.00 100.00 39.81L100.09 39.90L100.08 39.89Q97.44 37.67 92.57 33.26ZM102.44 42.40L102.59 42.55L102.44 42.40Q107.19 43.27 110.31 45.21L110.32 45.21L110.36 45.26Q109.20 43.98 106.57 41.58L106.61 41.62L106.61 41.62Q106.79 41.65 107.05 41.76L106.95 41.66L107.01 41.72Q105.00 39.79 102.76 37.88L102.61 37.74L98.25 33.92L98.30 33.96Q103.31 29.79 105.74 26.90L105.70 26.85L105.71 26.87Q104.53 26.99 102.06 27.25L101.97 27.16L102.06 27.25Q103.60 25.75 104.29 24.91L104.31 24.94L104.19 24.81Q101.39 25.29 98.91 25.29L98.97 25.34L98.97 25.34Q97.54 26.62 94.80 29.28L94.81 29.29L94.89 29.37Q94.78 23.48 93.79 17.65L93.94 17.80L93.89 17.74Q93.09 17.48 91.60 17.21L91.56 17.17L91.59 17.20Q91.61 16.65 91.15 15.16L91.14 15.15L91.06 15.07Q88.40 14.24 86.15 12.68L86.18 12.70L86.16 12.68Q89.59 19.50 89.93 27.61L89.86 27.54L89.92 27.59Q90.36 35.61 87.35 42.85L87.30 42.80L87.25 42.74Q87.92 42.43 89.26 41.78L89.32 41.84L89.32 41.84Q89.07 42.66 88.42 44.11L88.44 44.12L88.45 44.14Q91.20 42.96 93.33 42.58L93.36 42.61L93.39 42.64Q93.95 40.11 94.44 35.85L94.54 35.95L94.38 35.79Q97.02 38.09 102.47 42.43Z"/><path fill="#111" d="M48.34 29.87L48.41 29.94L48.40 29.93Q45.88 29.81 44.55 31.02L44.41 30.89L44.53 31.00Q43.25 32.28 43.56 34.80L43.41 34.65L43.55 34.78Q43.69 37.13 44.90 38.39L45.09 38.57L44.90 38.38Q46.01 39.76 48.14 39.68L48.13 39.67L48.30 39.85Q48.84 39.81 49.03 39.81L48.88 39.66L49.04 39.82Q52.59 39.22 52.70 34.61L52.70 34.61L52.58 34.49Q52.65 32.13 51.97 31.33L52.05 31.41L51.94 31.30Q50.93 30.06 48.38 29.91ZM51.59 41.54L51.71 41.65L51.72 41.66Q50.45 42.30 48.89 42.22L48.80 42.13L48.87 42.20Q44.96 42.32 43.66 39.73L43.62 39.69L43.70 39.77Q43.48 45.07 42.15 49.34L42.13 49.32L42.25 49.44Q40.30 49.77 38.66 50.49L38.75 50.58L38.83 50.66Q41.32 44.62 41.05 37.66L41.13 37.73L40.97 37.57Q40.75 30.77 37.86 24.72L37.97 24.83L37.87 24.73Q39.86 25.96 41.57 26.41L41.52 26.36L42.07 27.86L42.05 27.85Q42.09 28.11 42.35 29.21L42.47 29.33L42.41 29.27Q43.45 27.22 47.03 27.03L47.12 27.13L47.08 27.09Q47.83 26.92 48.71 26.92L48.71 26.93L49.35 27.07L49.37 27.10Q49.37 26.98 49.56 27.02L49.65 27.10L49.81 26.96L49.95 27.10Q51.99 27.35 52.71 27.58L52.65 27.52L52.70 27.56Q54.15 27.99 55.03 28.95L55.15 29.06L55.15 29.07Q55.93 30.18 55.89 31.59L55.88 31.59L55.81 31.51Q55.90 34.46 55.10 37.13L55.15 37.18L55.12 37.15Q54.08 40.64 51.72 41.66ZM56.04 42.33L56.00 42.25L56.03 42.28Q57.09 40.26 57.40 36.15L57.46 36.21L57.46 36.21Q57.58 34.42 57.58 33.17L57.56 33.15L57.57 33.16Q57.57 31.64 56.81 30.23L56.84 30.26L56.76 30.18Q56.27 29.66 55.78 29.27L55.83 29.33L55.72 29.11L55.52 28.79L55.41 28.56L55.56 28.71Q53.82 26.66 49.48 26.66L49.35 26.54L48.79 26.58L48.83 26.63Q44.11 26.55 42.47 28.15L42.54 28.22L42.59 28.27Q42.40 27.74 42.25 27.24L42.18 27.18L42.01 26.20L41.94 26.13Q39.36 25.42 37.15 23.93L37.16 23.94L37.32 24.10Q40.38 30.21 40.69 37.44L40.79 37.55L40.69 37.45Q41.01 44.73 38.16 51.21L38.20 51.25L40.19 50.39L40.26 50.45Q39.99 51.18 39.31 52.74L39.15 52.58L39.21 52.64Q42.04 51.70 44.36 51.36L44.34 51.34L44.20 51.20Q45.34 46.40 45.50 42.67L45.48 42.65L45.60 42.78Q46.86 44.11 50.48 44.34L50.65 44.51L50.46 44.33Q54.55 44.72 56.00 42.28L56.02 42.31ZM50.28 32.15L50.24 32.12L50.26 32.14Q50.84 31.99 51.95 32.33L51.99 32.37L51.95 32.34Q52.39 33.50 52.35 34.68L52.33 34.66L52.20 34.53Q52.32 35.57 52.13 36.21L51.99 36.07L51.98 36.06Q51.32 39.01 48.80 39.32L48.82 39.33L48.87 39.27L48.89 39.29Q48.85 39.33 48.74 39.37L48.76 39.39L48.28 39.44L48.17 39.33Q47.13 39.47 46.14 38.98L45.97 38.81L45.73 36.86L45.65 36.78Q45.66 34.61 46.95 33.58L46.77 33.40L46.77 33.40Q47.83 32.37 50.23 32.10Z"/><path fill="#222" d="M120.33 29.09L120.46 29.22L120.45 29.22Q118.47 29.11 117.26 30.44L117.39 30.57L117.34 30.52Q116.20 31.94 116.05 33.84L116.06 33.85L115.91 33.70Q115.84 35.95 117.06 36.96L116.99 36.90L117.03 36.94Q118.18 37.88 120.31 37.80L120.33 37.82L120.41 37.89Q122.72 37.73 123.67 36.77L123.64 36.75L123.71 36.82Q124.63 35.26 124.51 33.43L124.63 33.55L124.46 33.38Q124.48 31.65 123.40 30.45L123.36 30.41L123.27 30.32Q122.35 29.29 120.52 29.29ZM120.43 19.80L120.33 19.70L120.36 19.72Q119.04 19.69 117.70 20.19L117.58 20.07L117.69 20.17Q116.25 20.83 116.48 22.70L116.66 22.87L116.57 22.79Q117.09 26.55 120.44 26.55L120.35 26.45L120.51 26.61Q122.01 26.74 123.00 25.60L123.00 25.60L123.02 25.62Q124.02 24.49 124.06 22.93L123.99 22.86L124.09 22.96Q124.06 21.10 123.34 20.49L123.37 20.53L123.37 20.53Q121.67 19.67 120.38 19.74ZM120.12 40.31L120.17 40.36L116.99 40.23L117.07 40.30Q115.47 40.23 114.14 39.35L114.30 39.51L114.18 39.39Q112.77 38.21 112.92 35.36L113.07 35.50L113.07 35.50Q113.52 28.65 117.14 27.66L117.05 27.57L117.07 27.59Q114.75 26.64 113.42 21.27L113.46 21.31L113.55 21.41Q113.02 19.81 113.10 19.01L113.21 19.12L113.14 19.05Q113.49 16.96 117.18 16.92L117.16 16.90L117.14 16.89Q121.36 16.80 122.80 16.99L122.89 17.07L122.85 17.04Q126.68 17.55 127.14 19.57L127.19 19.62L127.13 19.56Q127.24 20.17 127.24 20.55L127.36 20.68L127.20 20.51Q127.30 21.30 127.11 21.91L127.09 21.89L127.03 21.83Q126.46 26.09 123.52 27.61L123.52 27.61L123.50 27.59Q126.98 28.36 127.47 33.65L127.63 33.81L127.50 33.67Q127.51 33.84 127.55 35.14L127.49 35.08L127.57 35.16Q127.65 37.90 126.05 38.97L125.98 38.89L126.14 39.06Q124.76 39.92 120.19 40.38ZM122.41 42.63L122.43 42.66L125.66 42.61L125.66 42.61Q127.40 42.71 128.92 41.99L129.02 42.08L128.98 42.05Q130.03 41.24 130.11 39.37L130.14 39.40L130.14 39.40Q130.24 38.36 129.86 36.42L129.79 36.35L129.83 36.39Q128.91 31.73 126.81 29.87L126.80 29.85L126.72 29.59L126.40 29.19L126.28 28.95L126.33 29.00Q128.04 27.70 128.95 23.56L128.95 23.55L128.89 23.50Q128.91 23.13 128.98 22.29L129.01 22.32L128.96 22.27Q128.94 21.49 128.86 20.88L128.93 20.95L128.88 20.90Q128.87 19.59 127.69 19.09L127.52 18.93L127.64 19.01L127.50 18.95L127.49 18.94Q127.22 18.21 126.04 17.41L126.01 17.37L126.15 17.48L126.14 17.47Q124.13 16.75 120.05 16.56L119.98 16.49L119.97 16.48Q118.38 16.34 117.01 16.45L117.11 16.55L117.13 16.57Q116.34 16.62 115.04 16.77L114.99 16.72L114.98 16.70Q113.05 17.10 112.83 18.74L112.77 18.68L112.88 18.79Q112.69 19.13 112.73 19.93L112.82 20.03L112.71 19.92Q112.95 20.57 113.52 22.94L113.40 22.81L113.56 22.97Q114.30 26.15 116.05 27.48L115.95 27.38L116.06 27.49L116.21 27.64Q113.38 28.88 112.84 34.06L112.81 34.02L112.90 34.11Q112.53 36.14 112.53 37.06L112.52 37.05L112.54 37.06Q112.71 38.95 113.89 39.87L113.82 39.79L113.96 39.94Q113.96 39.89 114.22 40.08L114.33 40.19L114.24 40.10Q115.36 42.47 122.48 42.70ZM122.03 31.52L122.13 31.62L121.98 31.47Q122.98 31.48 123.85 31.93L123.84 31.92L123.88 31.97Q124.16 32.85 124.12 33.38L124.13 33.39L124.12 33.38Q124.20 33.72 124.20 34.03L124.16 33.99L124.33 34.16Q124.22 36.41 121.93 37.25L121.91 37.22L121.85 37.17Q121.07 37.49 120.27 37.38L120.40 37.50L120.43 37.53Q119.25 37.57 118.11 37.12L118.05 37.06L118.13 37.13Q117.78 36.40 117.85 35.41L117.99 35.55L117.86 35.42Q118.11 33.92 119.31 32.70L119.33 32.72L119.33 32.72Q120.42 31.39 122.02 31.51ZM122.38 22.16L122.29 22.07L122.35 22.14Q123.16 22.03 123.70 22.18L123.59 22.08L123.52 22.81L123.64 22.93Q123.66 24.35 122.74 25.36L122.80 25.42L122.61 25.23Q121.82 26.36 120.45 26.17L120.44 26.16L120.40 26.12Q119.34 26.05 118.92 25.83L119.11 26.01L119.08 25.98Q119.06 25.73 118.95 25.05L118.83 24.93L118.84 24.94Q118.53 23.48 119.74 22.65L119.84 22.74L119.86 22.77Q120.92 22.07 122.32 22.11Z"/></svg>