<svg xmlns="http://www.w3.org/2000/svg" width="150" height="50" viewBox="0,0,150,50"><path fill="#222" d="M120.47 41.06L120.63 41.21L118.84 41.14L118.86 41.16Q115.50 41.19 114.55 39.06L114.60 39.10L114.49 39.00Q115.58 37.88 117.03 36.78L117.20 36.95L117.14 36.89Q117.66 39.00 120.51 38.85L120.53 38.87L120.61 38.96Q121.39 38.89 122.42 38.66L122.39 38.64L122.47 38.72Q123.20 38.00 123.13 37.05L123.24 37.16L123.13 37.06Q123.07 35.96 121.28 35.28L121.38 35.38L117.63 33.92L117.45 33.73Q115.19 32.47 114.85 28.93L114.97 29.05L114.89 28.97Q114.79 26.93 116.96 26.35L116.90 26.30L116.90 26.29Q117.84 26.06 120.81 26.06L120.75 26.00L120.72 25.96Q125.59 25.96 126.50 28.47L126.64 28.61L126.66 28.63Q125.91 29.06 125.18 29.52L125.14 29.47L123.84 30.54L123.71 30.40Q123.28 28.57 120.05 28.34L120.06 28.35L120.15 28.44Q119.50 28.40 118.47 28.82L118.45 28.80L118.50 28.84Q117.94 29.20 117.94 30.31L117.87 30.23L117.97 30.33Q118.16 31.24 119.98 31.93L120.04 31.98L120.15 32.10Q121.19 32.45 123.86 33.55L123.74 33.44L123.73 33.42Q125.71 34.42 125.90 36.97L125.79 36.86L125.87 36.94Q125.85 37.49 125.78 38.48L125.71 38.42L125.74 38.45Q125.75 39.37 125.18 40.01L125.28 40.12L125.13 39.97Q123.54 41.08 120.49 41.08ZM125.31 43.73L125.38 43.80L125.41 43.83Q126.20 43.74 127.57 43.43L127.60 43.46L127.58 43.45Q128.73 42.85 128.54 41.63L128.44 41.53L128.44 41.53Q128.39 40.99 128.09 39.39L128.18 39.48L128.07 39.37Q127.59 36.49 125.81 35.28L125.83 35.30L125.74 35.21Q125.29 33.89 124.04 33.16L123.93 33.06L124.05 33.18Q122.80 32.76 120.32 31.81L120.18 31.67L120.19 31.68Q120.34 31.22 120.61 31.11L120.72 31.22L120.67 31.17Q121.29 30.72 121.94 30.69L121.84 30.59L121.98 30.73Q122.82 30.73 123.58 31.00L123.53 30.95L123.57 31.06L123.50 30.88L123.94 31.13L123.80 31.02L123.81 31.04Q124.86 31.47 125.05 32.73L125.09 32.77L125.15 32.83Q126.46 32.05 128.37 30.38L128.24 30.25L128.37 30.38Q128.05 29.60 127.06 28.42L127.03 28.39L127.03 28.40Q125.83 25.63 120.73 25.52L120.85 25.64L120.86 25.64Q117.60 25.51 115.62 26.09L115.74 26.20L115.56 26.03Q114.28 26.72 114.51 28.81L114.49 28.80L114.53 28.83Q114.51 29.95 115.42 32.05L115.58 32.21L115.53 32.16Q115.94 33.14 116.97 33.87L117.12 34.01L117.08 33.97Q117.73 35.43 119.03 36.11L119.06 36.15L119.00 36.08Q119.92 36.31 120.87 36.70L120.99 36.82L122.84 37.52L122.82 37.51Q122.54 38.67 120.60 38.56L120.48 38.44L120.53 38.49Q120.07 38.52 118.85 38.22L118.89 38.26L118.81 38.02L118.68 38.13L118.77 38.22Q117.98 37.92 117.33 36.44L117.16 36.27L117.23 36.33Q115.07 37.87 113.97 39.01L113.92 38.96L114.10 39.15Q114.33 39.98 115.36 40.78L115.36 40.79L115.18 40.91L115.20 40.93Q116.68 43.09 120.90 43.47L120.88 43.44L120.75 43.32Q122.15 43.58 125.39 43.81Z"/><path fill="#444" d="M31.82 34.61L31.88 34.67L31.85 34.64Q31.90 38.26 28.74 39.56L28.67 39.50L28.76 39.58Q26.93 40.45 22.51 40.61L22.40 40.50L22.37 40.46Q17.64 40.65 15.40 39.47L15.31 39.38L15.38 39.45Q13.66 38.26 13.81 34.91L13.74 34.84L13.68 34.78Q13.74 34.20 13.93 32.22L13.95 32.23L13.98 32.26Q13.98 30.55 13.98 29.56L13.98 29.56L14.16 29.74Q13.97 21.56 9.78 14.13L9.97 14.32L9.86 14.21Q11.00 14.85 13.97 15.92L14.01 15.97L13.90 15.85Q16.85 22.65 16.85 30.04L16.97 30.16L16.85 30.03Q16.88 30.67 16.78 31.85L16.86 31.93L16.74 31.80Q16.70 33.05 16.70 33.65L16.62 33.57L16.69 33.64Q16.75 35.98 18.31 36.97L18.31 36.97L18.17 36.83Q19.82 37.65 22.79 37.65L22.87 37.73L22.89 37.75Q25.58 37.81 27.22 36.63L27.18 36.59L27.07 36.49Q29.00 35.22 28.85 32.70L28.89 32.74L28.90 32.75Q28.63 31.19 28.63 29.86L28.80 30.03L28.68 29.91Q28.75 22.94 31.15 16.43L31.05 16.33L33.38 15.92L33.35 15.89Q34.34 15.62 35.45 15.16L35.35 15.07L35.30 15.02Q31.74 22.31 31.74 29.89L31.60 29.75L31.65 29.79Q31.70 30.68 31.84 32.32L31.70 32.18L31.88 32.37Q31.89 33.88 31.89 34.68ZM34.00 35.53L34.14 35.68L34.11 35.65Q33.15 30.61 33.87 25.51L33.98 25.62L33.85 25.48Q34.60 20.29 36.99 15.91L36.98 15.90L37.14 16.06Q36.44 16.28 35.00 16.92L34.93 16.85L35.00 16.93Q35.42 16.13 36.22 14.57L36.13 14.48L36.07 14.42Q32.65 15.68 30.74 16.02L30.86 16.13L30.80 16.07Q28.43 22.57 28.43 29.85L28.44 29.86L28.49 29.91Q28.43 31.22 28.51 32.63L28.55 32.67L28.59 32.71Q28.56 34.93 26.78 36.15L26.87 36.25L26.81 36.19Q25.36 37.28 22.84 37.32L22.94 37.41L22.92 37.39Q20.10 37.40 18.66 36.63L18.63 36.61L18.62 36.60Q18.59 36.15 18.51 35.69L18.42 35.59L18.55 35.73Q18.42 35.14 18.54 34.65L18.50 34.61L18.46 34.58Q18.74 32.31 18.74 29.98L18.73 29.97L18.71 29.95Q18.88 24.29 17.35 18.39L17.30 18.34L17.26 18.30Q16.52 18.17 15.12 17.83L15.15 17.86L15.13 17.84Q14.73 16.53 14.28 15.62L14.20 15.54L14.35 15.69Q11.62 14.90 9.22 13.53L9.21 13.52L9.24 13.55Q13.72 21.00 13.72 29.72L13.76 29.76L13.83 29.83Q13.73 31.37 13.58 33.08L13.70 33.20L13.60 33.10Q13.34 35.47 13.42 36.65L13.50 36.73L13.40 36.63Q13.61 38.63 14.86 39.77L14.89 39.80L14.93 39.84Q15.92 42.32 20.57 42.70L20.43 42.56L20.50 42.63Q22.69 42.88 24.82 42.95L24.64 42.77L24.79 42.92Q30.08 43.03 32.86 42.08L32.82 42.04L32.82 42.04Q34.45 41.19 34.45 39.14L34.50 39.19L34.47 39.16Q34.56 38.11 34.11 35.64Z"/><path fill="#111" d="M71.90 41.35L72.01 41.46L71.83 41.28Q69.03 41.52 67.77 40.98L67.84 41.05L67.70 40.92Q65.88 40.23 65.95 37.76L65.99 37.80L65.89 37.70Q66.00 34.27 66.00 34.84L66.15 34.98L65.97 34.81Q66.04 29.55 63.19 24.71L63.15 24.68L63.15 24.68Q65.22 25.72 67.20 26.10L67.14 26.04L67.12 26.01Q68.78 30.57 68.67 35.07L68.75 35.15L68.77 35.17Q68.55 36.58 69.39 37.80L69.52 37.93L69.49 37.91Q70.29 39.13 71.82 38.94L71.84 38.97L72.18 38.81L72.32 38.95Q73.62 38.84 74.44 38.08L74.44 38.07L74.34 37.98Q75.29 37.35 75.29 36.40L75.33 36.44L75.29 36.39Q75.29 36.17 75.25 35.98L75.19 35.92L75.29 36.01Q75.11 30.66 76.25 26.32L76.23 26.29L76.34 26.41Q77.20 26.16 78.19 25.93L78.37 26.12L80.25 25.48L80.27 25.50Q77.74 30.55 78.05 36.11L78.10 36.16L77.98 36.04Q78.17 39.12 76.45 40.26L76.52 40.33L76.49 40.30Q75.18 41.16 71.87 41.31ZM74.26 43.78L74.31 43.84L74.24 43.76Q77.69 43.90 79.52 43.14L79.61 43.23L79.45 43.07Q80.45 42.40 80.45 40.99L80.53 41.06L80.44 40.98Q80.52 40.14 80.25 38.58L80.22 38.55L80.13 38.46Q79.82 35.48 80.20 32.47L80.03 32.31L80.08 32.35Q80.44 29.17 81.84 26.43L81.90 26.48L81.93 26.51Q81.26 26.80 79.93 27.22L79.83 27.12L79.99 27.28Q80.20 26.65 80.50 26.08L80.49 26.06L80.96 24.82L81.09 24.95Q79.06 25.51 75.90 26.01L75.90 26.01L76.01 26.12Q74.76 30.88 74.92 35.99L74.78 35.85L74.80 35.87Q75.02 38.10 72.35 38.60L72.31 38.56L71.96 38.67L71.81 38.67L70.90 38.56L70.84 38.50Q70.74 37.59 70.77 37.10L70.70 37.02L70.79 37.11Q70.85 32.45 70.16 28.03L70.21 28.08L69.31 28.09L69.14 27.93Q68.75 28.03 68.21 27.91L68.08 27.78L68.21 27.91Q67.87 26.54 67.60 25.78L67.49 25.67L67.46 25.64Q64.79 25.33 62.54 24.03L62.42 23.91L62.50 23.99Q64.65 27.51 65.38 30.90L65.37 30.89L65.26 30.79Q65.79 33.03 65.64 36.53L65.67 36.56L65.67 36.56Q65.71 36.72 65.64 37.82L65.68 37.87L65.57 37.76Q65.53 40.23 66.90 41.18L66.79 41.07L66.79 41.07Q67.15 43.30 74.16 43.68Z"/><path fill="#222" d="M100.27 41.29L100.15 41.18L97.21 41.09L97.13 41.01Q94.79 40.96 93.99 40.85L93.94 40.79L93.93 40.78Q92.10 40.44 90.92 39.57L91.04 39.68L91.00 39.65Q89.72 38.24 89.49 34.89L89.40 34.80L89.50 34.91Q89.49 34.44 89.41 33.22L89.35 33.15L89.43 33.23Q89.42 32.80 89.34 31.70L89.30 31.66L89.28 31.64Q89.31 30.87 89.35 30.15L89.35 30.15L89.22 30.02Q89.50 28.16 90.52 27.40L90.61 27.49L90.57 27.45Q92.48 26.27 97.31 26.04L97.27 26.00L97.29 26.02Q99.28 25.88 100.08 25.88L100.03 25.83L100.07 25.87Q101.60 25.91 102.97 26.22L102.98 26.23L102.90 26.15Q102.41 27.48 101.87 29.31L101.82 29.25L101.91 29.34Q101.33 29.34 100.84 29.30L100.85 29.31L100.93 29.40Q100.86 29.40 100.32 29.28L100.22 29.18L99.21 28.90L99.18 28.86Q98.20 28.68 97.59 28.72L97.62 28.75L97.58 28.71Q92.91 28.84 92.30 31.66L92.18 31.53L92.30 31.65Q92.06 32.82 92.14 33.77L92.10 33.74L92.12 33.76Q92.26 36.33 93.49 37.41L93.57 37.49L93.47 37.39Q94.75 38.52 97.34 38.56L97.36 38.58L97.32 38.54Q98.82 38.59 99.55 38.29L99.44 38.18L100.46 37.68L100.46 37.69Q101.11 37.57 101.68 37.49L101.68 37.49L101.69 37.51Q101.84 39.21 102.22 40.50L102.25 40.54L102.29 40.57Q102.05 40.95 100.26 41.29ZM103.43 44.15L103.45 44.17L103.43 44.15Q103.83 44.21 104.67 44.29L104.60 44.22L104.78 44.40Q105.37 44.38 105.71 43.81L105.64 43.73L105.75 43.85Q104.44 41.66 103.94 39.56L103.97 39.59L103.94 39.56Q103.70 39.62 103.24 39.62L103.15 39.54L103.07 39.45Q102.64 39.44 102.26 39.63L102.28 39.66L102.32 39.69Q101.92 38.38 101.77 36.97L101.95 37.15L101.95 37.16Q101.33 37.07 100.11 37.64L100.09 37.61L100.11 37.64Q98.73 38.04 98.23 38.04L98.26 38.07L98.26 38.07Q97.81 38.11 97.20 38.07L97.22 38.10L97.29 38.16Q96.37 38.12 94.39 37.55L94.36 37.52L94.41 37.57Q93.99 36.77 94.03 35.63L94.12 35.72L94.03 35.63Q94.23 31.42 99.18 30.88L99.21 30.91L99.15 30.85Q99.82 30.84 101.19 31.18L101.21 31.20L101.31 31.29Q102.62 31.58 103.35 31.55L103.37 31.56L103.37 31.57Q103.73 29.26 104.41 27.43L104.54 27.56L104.50 27.52Q104.01 27.30 103.63 27.22L103.64 27.23L102.84 27.11L103.02 27.29Q103.11 26.70 103.49 25.83L103.59 25.93L103.42 25.75Q101.91 25.43 100.35 25.43L100.40 25.47L100.42 25.50Q98.01 25.49 93.63 25.87L93.58 25.81L93.73 25.97Q91.68 26.00 90.11 26.99L90.16 27.04L90.22 27.10Q89.00 28.05 89.00 29.95L88.98 29.93L88.87 29.82Q88.97 30.34 89.08 31.56L89.01 31.48L89.05 31.52Q89.03 32.45 88.99 33.06L88.98 33.06L89.12 33.20Q89.15 35.09 89.88 38.82L89.86 38.81L89.90 38.85Q90.14 39.54 90.63 40.04L90.79 40.19L90.93 40.34L90.94 40.30L90.92 40.29Q91.99 42.46 95.91 43.07L95.84 42.99L96.00 43.15Q99.11 43.60 101.77 43.87L101.75 43.84L101.82 43.91Q102.56 43.93 103.48 44.20Z"/><path fill="#222" d="M38.28 14.27L38.32 14.31L38.33 14.32Q42.21 16.94 46.97 17.17L46.88 17.08L46.96 17.17Q51.55 17.30 55.81 15.55L55.77 15.50L55.79 15.52Q55.54 16.08 54.78 18.85L54.76 18.84L54.70 18.77Q52.04 19.88 49.07 20.03L49.14 20.11L49.07 20.03Q46.16 20.25 43.27 19.53L43.28 19.53L43.17 19.43Q43.77 22.96 43.97 26.62L43.98 26.63L44.12 26.77Q46.07 26.93 47.67 26.89L47.69 26.91L47.66 26.89Q48.92 26.93 51.32 26.81L51.27 26.76L51.24 26.74Q51.21 27.39 51.21 28.08L51.18 28.05L51.29 29.49L51.31 29.51Q48.82 29.42 44.03 29.50L44.14 29.61L44.14 29.61Q43.99 33.57 43.42 37.57L43.53 37.68L43.51 37.66Q46.22 37.09 48.96 37.20L48.86 37.11L48.79 37.04Q51.52 37.14 54.11 37.98L54.08 37.95L54.11 37.98Q54.16 38.76 54.43 39.52L54.42 39.51L54.98 41.14L55.01 41.16Q51.73 39.79 48.31 39.79L48.27 39.75L48.42 39.91Q43.45 39.81 39.19 42.06L39.12 41.99L39.12 41.99Q41.57 35.30 41.30 28.18L41.21 28.08L41.24 28.11Q40.93 20.92 38.27 14.26ZM38.73 42.82L38.70 42.79L38.65 42.74Q39.90 42.01 40.66 41.66L40.77 41.77L40.68 41.69Q40.46 42.41 39.88 43.93L39.87 43.91L40.00 44.05Q44.48 42.01 49.54 42.28L49.63 42.37L49.51 42.26Q54.62 42.49 58.62 45.19L58.63 45.20L58.66 45.23Q57.59 42.80 56.91 40.86L56.95 40.90L56.83 40.78Q55.86 40.19 54.87 39.85L54.86 39.84L54.89 39.87Q54.41 38.39 54.26 37.59L54.36 37.69L54.43 37.77Q51.35 36.78 48.19 36.78L48.10 36.69L48.00 36.60Q46.90 36.63 45.76 36.75L45.76 36.75L45.74 36.73Q45.91 35.53 45.94 34.31L45.90 34.27L46.01 31.78L46.02 31.80Q47.77 31.64 49.56 31.68L49.66 31.78L49.66 31.78Q51.42 31.75 53.20 31.90L53.37 32.07L53.33 32.02Q53.24 31.06 53.24 30.11L53.14 30.01L53.12 28.08L52.41 28.25L52.37 28.20Q52.05 28.38 51.59 28.38L51.59 28.38L51.55 28.34Q51.46 27.57 51.61 26.27L51.66 26.32L51.64 26.29Q50.12 26.60 48.94 26.64L48.95 26.66L48.85 26.56Q48.04 26.69 46.21 26.62L46.15 26.56L46.12 26.53Q45.99 25.06 45.80 22.24L45.80 22.25L45.77 22.22Q46.80 22.33 47.79 22.33L47.90 22.44L47.86 22.40Q52.66 22.48 56.35 20.58L56.28 20.51L56.31 20.53Q56.88 18.18 57.76 15.97L57.77 15.99L57.68 15.89Q56.44 16.82 55.60 17.16L55.55 17.11L55.47 17.03Q55.82 16.31 56.27 14.75L56.32 14.80L56.29 14.77Q51.57 16.83 46.70 16.52L46.86 16.68L46.74 16.57Q41.56 16.37 37.71 13.51L37.70 13.50L37.71 13.51Q40.61 20.48 40.91 28.10L40.84 28.02L40.79 27.97Q41.26 36.05 38.74 42.83Z"/></svg>