<svg xmlns="http://www.w3.org/2000/svg" width="150" height="50" viewBox="0,0,150,50"><path fill="#333" d="M123.67 39.94L123.61 39.87L121.64 39.85L121.58 39.79Q120.73 39.89 119.78 40.00L119.72 39.94L119.83 40.05Q120.26 33.71 120.26 29.71L120.37 29.82L120.28 29.74Q116.28 23.03 108.62 14.35L108.70 14.42L108.77 14.49Q110.57 15.49 113.92 16.29L113.92 16.29L113.88 16.25Q118.84 21.75 121.85 26.96L121.94 27.06L121.94 27.05Q125.01 21.56 129.39 16.53L129.25 16.40L129.38 16.53Q131.64 15.97 134.16 15.17L134.18 15.19L134.26 15.27Q128.12 21.28 123.25 29.69L123.22 29.66L123.25 29.70Q123.26 36.74 123.56 39.83ZM132.72 17.32L135.29 14.32L135.45 14.48Q132.23 15.53 129.11 15.99L129.10 15.98L129.23 16.10Q125.04 20.86 122.22 25.96L122.04 25.78L122.06 25.80Q119.99 22.21 116.79 18.32L116.88 18.41L116.83 18.36Q116.50 18.30 116.00 18.22L116.00 18.22L116.01 18.23Q115.31 17.42 113.79 15.74L113.90 15.86L113.75 15.71Q110.50 15.08 107.53 13.52L107.54 13.53L107.38 13.37Q115.16 21.91 119.92 29.83L120.00 29.91L119.91 29.81Q119.92 36.26 119.31 40.41L119.15 40.25L119.23 40.33Q119.92 40.25 121.36 40.14L121.49 40.26L121.49 41.30L121.36 41.17Q121.52 41.78 121.44 42.31L121.47 42.34L121.43 42.30Q124.94 42.27 126.69 42.46L126.68 42.45L126.64 42.41Q125.31 37.66 125.20 31.68L125.30 31.78L125.36 31.84Q129.62 23.27 136.16 15.92L136.16 15.92L132.75 17.34Z"/><path fill="#333" d="M18.93 19.29L18.98 19.34L19.07 19.42Q19.76 23.50 19.91 27.08L20.05 27.22L20.10 27.26Q21.09 27.23 22.16 27.23L22.19 27.26L24.42 27.28L24.35 27.22Q25.48 27.28 26.35 25.87L26.26 25.78L26.37 25.89Q26.94 24.55 27.06 23.37L27.04 23.36L27.18 23.50Q27.43 20.36 23.21 19.87L23.19 19.85L23.31 19.97Q21.55 19.85 18.93 19.28ZM19.99 29.90L20.06 29.97L20.10 30.00Q19.87 36.06 18.73 40.48L18.77 40.52L18.74 40.48Q17.39 41.01 15.07 42.07L15.12 42.12L15.09 42.09Q17.47 35.45 17.20 28.17L17.22 28.19L17.21 28.18Q16.75 20.64 13.97 14.21L14.06 14.29L14.08 14.32Q18.28 17.15 24.52 17.15L24.53 17.15L24.43 17.06Q30.49 17.07 30.65 20.53L30.60 20.49L30.76 20.64Q30.64 22.89 29.65 25.55L29.70 25.59L29.74 25.64Q29.28 26.70 28.32 27.91L28.37 27.96L28.42 28.01Q27.12 29.64 24.57 29.91L24.57 29.91L24.53 29.87Q22.22 29.84 19.97 29.88ZM26.18 32.20L26.07 32.10L26.25 32.28Q30.27 32.38 31.53 27.58L31.54 27.59L31.52 27.57Q32.44 23.89 32.29 21.87L32.33 21.91L32.38 21.96Q32.33 20.50 31.56 19.51L31.59 19.53L31.54 19.48Q31.21 19.15 30.71 18.92L30.59 18.80L30.60 18.81Q30.75 18.80 30.14 18.04L30.07 17.98L30.15 18.05Q28.46 16.59 24.50 16.59L24.57 16.66L24.60 16.70Q17.71 16.69 13.48 13.53L13.48 13.53L13.48 13.53Q16.66 20.63 16.92 28.09L16.85 28.01L16.93 28.09Q17.18 35.73 14.51 42.81L14.47 42.77L14.46 42.75Q15.47 42.05 16.46 41.67L16.54 41.75L16.10 42.83L16.20 42.94Q15.98 43.48 15.72 44.05L15.79 44.13L15.61 43.94Q18.08 42.95 20.97 42.42L20.97 42.41L20.96 42.40Q21.95 37.04 22.03 32.32L21.88 32.17L21.84 32.13Q22.98 32.09 23.97 32.09L24.12 32.24L24.05 32.17Q25.36 32.14 26.16 32.18ZM25.31 22.35L25.28 22.32L25.19 22.23Q25.63 22.17 26.62 22.40L26.69 22.47L26.62 22.40Q26.74 22.64 26.78 22.94L26.82 22.98L26.84 23.01Q26.97 23.37 26.90 23.63L26.85 23.59L26.76 23.50Q26.70 24.77 25.97 25.64L25.93 25.60L26.07 25.74Q25.38 26.69 24.35 26.88L24.46 26.98L24.40 26.92Q23.64 26.89 22.01 26.89L22.00 26.89L22.04 26.92Q21.88 24.52 21.66 22.16L21.63 22.13L23.55 22.38L23.45 22.27Q24.27 22.26 25.15 22.19Z"/><path fill="#222" d="M71.28 19.65L71.24 19.61L71.23 19.60Q69.38 19.84 68.43 20.00L68.29 19.86L68.44 20.01Q66.76 20.19 65.54 20.72L65.50 20.69L65.49 20.68Q62.03 22.17 61.92 26.85L61.85 26.78L61.94 26.87Q61.85 29.53 62.50 32.46L62.45 32.41L62.43 32.39Q63.32 36.44 66.94 37.62L66.86 37.54L67.01 37.69Q68.87 38.22 70.32 38.07L70.24 37.99L70.82 38.11L70.71 38.01Q70.87 37.98 71.06 38.01L71.16 38.11L71.03 37.99Q71.30 38.10 71.45 38.06L71.46 38.07L71.47 38.08Q74.06 37.77 75.43 37.20L75.39 37.17L71.75 33.56L71.77 33.59Q72.11 33.28 72.72 32.67L72.84 32.79L73.76 31.88L73.66 31.78Q75.57 33.92 77.55 35.98L77.46 35.88L77.51 35.94Q79.88 34.16 80.15 28.79L80.03 28.67L80.10 28.74Q80.14 27.79 80.14 26.87L80.16 26.90L80.15 26.89Q80.17 21.24 75.11 20.13L75.06 20.08L75.11 20.13Q73.74 19.75 71.23 19.60ZM84.13 41.79L84.15 41.81L83.96 41.62Q83.53 42.22 82.35 43.09L82.25 42.99L77.80 39.27L77.92 39.39Q75.47 40.64 71.21 40.67L71.16 40.62L71.09 40.55Q64.59 40.72 61.78 38.47L61.82 38.52L61.86 38.56Q59.96 36.66 59.51 33.69L59.52 33.71L59.47 33.66Q59.31 31.90 58.93 28.32L58.96 28.34L59.05 28.44Q59.00 27.67 58.89 25.92L58.88 25.91L58.76 25.78Q58.71 24.33 58.75 23.45L58.73 23.43L58.70 23.40Q58.81 20.36 60.56 18.80L60.67 18.90L60.63 18.86Q62.17 17.55 65.37 17.05L65.28 16.96L65.41 17.09Q67.85 16.68 70.75 16.76L70.75 16.76L70.74 16.75Q78.17 16.80 81.30 19.16L81.38 19.25L81.23 19.10Q83.57 21.40 83.31 26.31L83.16 26.17L83.30 26.30Q83.01 29.86 82.82 31.19L82.89 31.26L82.88 31.26Q82.14 35.65 79.82 37.97L79.81 37.97L79.89 38.05Q81.41 39.34 84.15 41.81ZM79.24 17.48L79.28 17.52L79.21 17.46Q77.19 16.73 70.68 16.23L70.77 16.33L70.60 16.16Q69.27 16.23 66.49 16.34L66.55 16.41L66.64 16.49Q62.36 16.67 60.12 18.65L60.03 18.57L60.08 18.61Q58.47 20.13 58.47 23.29L58.49 23.31L58.44 23.26Q58.46 24.11 58.61 25.83L58.58 25.79L58.50 25.72Q58.69 27.47 58.69 28.34L58.62 28.27L58.69 28.34Q58.90 30.15 59.28 33.73L59.32 33.77L59.32 33.77Q59.51 36.47 61.11 38.53L61.09 38.51L61.22 38.64Q61.43 39.35 62.65 40.49L62.79 40.63L62.78 40.62Q65.42 42.54 70.60 42.80L70.60 42.80L70.68 42.88Q71.09 42.95 73.49 43.07L73.29 42.87L73.31 42.88Q78.19 43.12 80.47 42.05L80.38 41.96L80.54 42.13Q81.39 42.78 86.11 46.36L86.06 46.31L86.00 46.25Q86.64 45.75 87.94 44.76L87.97 44.79L87.87 44.70Q87.14 44.16 86.35 43.47L86.33 43.46L84.55 41.87L84.77 41.94L84.73 41.90Q84.25 41.53 83.03 40.50L82.93 40.40L82.90 40.37Q84.83 37.88 84.83 33.35L84.87 33.40L84.81 33.34Q84.76 32.87 84.80 32.03L84.90 32.13L84.79 32.02Q85.02 31.38 85.02 30.96L84.95 30.89L84.97 30.91Q84.94 25.35 84.21 22.99L84.27 23.05L84.27 23.05Q83.88 21.75 83.00 20.68L82.89 20.56L82.86 20.53Q82.17 18.51 79.24 17.48ZM73.11 21.94L73.22 22.05L73.22 22.05Q77.20 21.88 79.03 23.48L79.18 23.63L79.02 23.48Q79.66 24.76 79.77 26.09L79.86 26.17L79.75 26.06Q79.83 27.33 79.75 28.70L79.78 28.73L79.72 28.66Q79.49 33.73 77.55 35.44L77.49 35.38L77.46 35.35Q76.21 34.10 73.69 31.36L73.65 31.32L73.64 31.30Q72.92 32.11 71.36 33.67L71.36 33.66L71.31 33.62Q71.90 34.25 73.04 35.43L73.08 35.46L73.05 35.54L72.88 35.38Q73.48 35.94 74.51 37.00L74.57 37.07L74.56 37.05Q73.54 37.30 71.22 37.60L71.33 37.71L70.67 37.59L70.36 37.69L70.37 37.74L70.32 37.69Q66.81 37.65 64.83 36.01L64.87 36.04L64.92 36.10Q63.78 33.89 63.82 30.77L63.87 30.82L63.84 30.79Q63.98 22.06 73.16 21.99Z"/><path fill="#222" d="M90.04 49.69L89.91 49.56L90.02 49.66Q92.88 45.75 95.77 39.54L95.74 39.50L95.78 39.55Q92.70 33.04 86.61 24.97L86.61 24.98L86.63 25.00Q88.46 26.06 91.24 26.71L91.32 26.79L91.19 26.66Q94.69 31.30 97.13 36.52L97.16 36.56L97.22 36.61Q99.42 31.35 102.51 26.94L102.47 26.90L102.39 26.82Q104.77 26.65 106.86 25.85L106.77 25.76L106.76 25.75Q103.26 29.48 99.79 36.90L99.85 36.96L96.98 42.92L97.09 43.03Q95.67 46.18 93.92 48.80L93.85 48.74L93.81 48.69Q91.52 49.19 90.08 49.72ZM96.18 50.99L96.25 51.05L96.06 50.87Q97.83 48.03 99.27 44.76L99.25 44.73L102.09 38.52L101.96 38.38Q105.56 30.45 108.87 26.45L108.93 26.51L108.94 26.52Q107.63 27.22 105.72 27.91L105.56 27.75L106.72 26.47L106.64 26.39Q107.18 25.68 107.79 24.99L107.79 24.99L107.71 24.91Q105.17 26.09 102.31 26.55L102.38 26.62L102.20 26.44Q99.51 30.41 97.57 34.87L97.68 34.97L97.70 34.99Q95.97 31.59 94.18 28.77L94.26 28.86L94.08 28.67Q93.96 28.75 93.60 28.71L93.63 28.73L93.56 28.67Q93.17 28.60 92.98 28.60L92.97 28.59L93.12 28.74Q92.31 27.44 91.36 26.30L91.28 26.22L91.32 26.25Q88.18 25.63 85.44 23.92L85.53 24.01L85.54 24.01Q91.77 32.00 95.47 39.62L95.37 39.52L95.43 39.58Q93.21 44.59 89.13 50.22L89.14 50.23L89.18 50.28Q90.09 50.07 90.89 49.92L90.78 49.82L92.48 49.53L92.44 49.49Q91.83 50.22 90.65 51.85L90.61 51.81L90.63 51.84Q92.79 51.11 96.07 50.88Z"/><path fill="#333" d="M45.57 28.93L45.47 28.82L45.63 28.99Q43.08 28.98 42.05 30.16L42.01 30.13L41.96 30.08Q40.88 31.20 40.88 33.83L40.98 33.93L40.94 33.89Q40.98 39.03 45.58 38.84L45.64 38.89L45.51 38.77Q47.72 39.07 49.07 37.51L49.07 37.51L48.97 37.41Q50.29 35.82 50.06 33.76L50.18 33.88L50.07 33.77Q50.12 31.27 49.25 30.25L49.16 30.16L49.19 30.19Q47.74 28.89 45.53 28.89ZM50.56 38.68L50.57 38.69L50.50 38.61Q49.51 41.28 44.82 41.28L44.72 41.18L43.32 41.22L43.24 41.14Q40.96 41.22 39.86 40.08L39.78 40.01L39.72 39.94Q38.80 39.02 38.53 36.62L38.57 36.66L38.47 36.56Q38.31 35.06 38.23 33.27L38.36 33.40L38.36 33.41Q38.23 32.32 38.08 30.38L38.03 30.33L38.05 30.36Q38.02 26.13 43.20 26.13L43.21 26.15L44.67 26.05L44.73 26.11Q47.55 26.03 49.64 27.33L49.78 27.46L49.62 27.31Q50.51 27.89 51.00 28.57L50.95 28.52L51.01 28.58Q51.28 27.78 51.81 26.15L51.89 26.22L51.71 26.04Q52.96 25.89 55.28 25.28L55.42 25.41L55.44 25.44Q52.71 29.52 52.71 34.78L52.69 34.75L52.68 34.74Q52.74 38.53 54.11 41.62L54.21 41.72L54.22 41.73Q53.01 41.35 51.10 41.12L51.03 41.05L51.11 41.12Q50.98 40.35 50.68 38.79ZM53.94 43.96L53.89 43.91L56.09 44.47L56.05 44.43Q57.32 44.79 58.31 45.25L58.25 45.18L58.39 45.33Q54.59 40.84 54.59 34.75L54.57 34.73L54.75 34.91Q54.62 30.25 56.75 26.44L56.70 26.39L56.87 26.56Q56.22 26.78 54.89 27.17L54.84 27.12L54.74 27.02Q55.11 26.28 55.99 24.76L56.11 24.88L56.08 24.86Q55.42 24.96 51.43 25.80L51.37 25.74L50.90 27.67L50.91 27.68Q49.04 25.85 44.62 25.62L44.65 25.64L44.66 25.65Q43.59 25.73 41.35 25.89L41.34 25.88L41.27 25.81Q37.59 26.16 37.70 30.20L37.86 30.35L37.79 30.28Q37.81 33.50 38.38 37.96L38.41 37.98L38.54 38.53L38.58 38.57Q38.50 39.21 39.30 40.32L39.48 40.50L39.45 40.47Q39.48 40.50 39.67 40.62L39.73 40.68L39.73 40.67Q40.05 41.22 40.43 41.80L40.29 41.66L40.41 41.77Q41.89 43.37 45.28 43.56L45.24 43.52L45.13 43.40Q46.77 43.53 46.93 43.53L46.96 43.56L48.54 43.58L48.57 43.62Q51.75 43.60 52.97 42.04L52.92 41.99L52.98 42.05Q53.30 42.63 53.91 43.93ZM47.29 31.10L47.39 31.21L47.31 31.13Q48.61 31.09 49.44 31.54L49.52 31.63L49.47 31.57Q49.87 32.47 49.87 33.91L49.80 33.84L49.91 33.95Q49.95 35.71 48.68 37.14L48.81 37.27L48.73 37.19Q47.53 38.69 45.63 38.50L45.66 38.53L45.48 38.36Q44.17 38.49 43.14 38.07L43.12 38.05L43.05 37.98Q42.87 37.15 42.87 35.93L42.91 35.97L42.91 35.97Q43.07 32.48 45.70 31.53L45.68 31.51L45.74 31.57Q46.62 31.24 47.42 31.24Z"/></svg>