<svg xmlns="http://www.w3.org/2000/svg" width="150" height="50" viewBox="0,0,150,50"><path fill="#111" d="M55.38 23.38L55.34 23.33L55.37 23.36Q53.65 19.29 47.44 19.48L47.35 19.38L47.47 19.50Q42.94 19.51 40.96 20.95L40.92 20.90L41.02 21.01Q38.51 22.64 38.51 26.76L38.55 26.80L38.54 28.65L38.48 28.60Q38.59 37.53 47.61 37.53L47.61 37.53L47.69 37.61Q49.62 37.48 51.10 36.68L51.05 36.63L51.11 36.69Q52.99 35.72 52.84 33.86L52.73 33.74L52.88 33.89Q52.53 31.64 48.83 30.73L48.97 30.86L47.03 30.86L46.98 30.81Q46.08 30.87 45.13 30.90L45.01 30.78L45.05 30.82Q45.06 29.88 45.02 27.98L45.12 28.08L45.09 28.05Q52.74 28.05 56.93 27.71L56.99 27.76L56.79 27.57Q56.88 28.53 56.88 29.33L56.78 29.23L56.95 29.40Q56.85 30.10 56.89 30.90L56.89 30.90L56.95 30.96Q55.73 30.85 55.73 30.85L55.79 30.90L55.86 30.98Q54.29 30.78 54.67 30.78L54.67 30.78L54.69 30.79Q55.85 32.49 56.23 34.47L56.21 34.45L56.29 34.53Q56.35 35.19 56.35 35.65L56.37 35.67L56.36 35.67Q56.45 40.40 47.66 40.40L47.62 40.36L47.54 40.28Q40.43 40.29 37.84 38.19L37.80 38.15L37.94 38.29Q35.89 35.87 35.89 30.80L35.94 30.85L35.97 30.89Q35.97 29.81 35.81 27.11L35.74 27.03L35.68 26.97Q35.55 24.64 35.59 23.27L35.69 23.37L35.68 23.36Q35.81 20.51 37.18 18.92L37.15 18.89L37.19 18.93Q39.66 16.79 44.53 16.60L44.45 16.51L47.22 16.55L47.09 16.42Q50.36 16.49 53.78 16.91L53.63 16.76L53.61 16.73Q57.37 17.22 58.33 20.46L58.39 20.52L58.41 20.54Q57.34 21.41 55.24 23.24ZM56.70 25.49L56.76 25.44L56.81 25.49Q57.93 24.33 59.80 22.35L59.82 22.38L59.89 22.44Q59.51 21.42 58.52 19.70L58.57 19.75L58.59 19.77Q57.29 16.99 53.48 16.34L53.61 16.47L53.56 16.42Q51.45 16.33 47.15 16.02L47.12 15.99L44.46 16.15L44.45 16.14Q39.22 16.28 36.63 18.26L36.80 18.42L36.71 18.34Q35.43 20.06 35.32 23.15L35.21 23.04L35.16 22.99Q35.34 22.71 35.57 28.19L35.59 28.22L35.50 28.12Q35.40 29.36 35.48 32.10L35.67 32.29L35.52 32.14Q35.70 36.59 37.45 38.53L37.60 38.68L37.59 38.66Q37.98 39.51 38.85 40.39L38.80 40.33L38.84 40.37Q41.58 42.09 47.10 42.43L47.11 42.44L50.00 42.63L50.17 42.80Q51.73 42.87 53.75 42.76L53.76 42.77L53.79 42.80Q55.10 42.59 57.19 42.05L57.16 42.02L57.24 42.10Q59.16 41.59 59.12 39.26L59.04 39.18L59.12 39.26Q59.22 38.11 58.16 35.33L58.09 35.26L58.06 35.23Q57.77 34.33 57.23 33.53L57.19 33.48L57.28 33.58Q57.77 33.49 58.95 33.68L58.93 33.67L59.08 33.81Q58.77 30.19 58.81 29.50L58.80 29.50L58.85 29.55Q58.31 29.39 57.90 29.36L58.01 29.47L57.96 29.42Q57.66 29.46 57.28 29.54L57.23 29.49L57.12 29.38Q57.17 28.33 57.25 27.26L57.31 27.33L57.18 27.20Q50.89 27.68 44.61 27.57L44.78 27.73L44.80 27.76Q44.66 28.49 44.66 29.40L44.74 29.49L44.76 31.25L44.72 31.22Q45.22 31.34 45.64 31.30L45.61 31.27L45.53 31.19Q46.04 31.28 46.49 31.28L46.46 31.24L46.35 31.14Q46.40 31.64 46.44 32.14L46.50 32.20L46.38 32.08Q46.39 32.54 46.35 33.04L46.48 33.16L46.44 33.13Q47.45 33.07 48.48 33.03L48.56 33.11L48.46 33.02Q49.57 33.10 50.60 33.14L50.53 33.07L50.47 33.01Q51.61 33.35 52.49 33.73L52.47 33.71L52.41 33.70L52.42 33.70Q52.57 35.22 50.89 36.13L50.95 36.19L50.99 36.24Q49.41 37.24 47.70 37.24L47.56 37.10L47.63 37.17Q43.77 37.16 41.33 35.41L41.37 35.44L41.29 35.36Q40.45 33.45 40.60 30.90L40.54 30.84L40.48 30.79Q40.88 26.09 42.73 24.09L42.74 24.09L42.65 24.00Q44.54 22.06 49.23 21.75L49.23 21.75L49.11 21.64Q52.95 21.59 54.89 23.38L54.80 23.29L54.87 23.36Q54.94 23.47 55.06 23.66L54.92 23.52L55.06 23.55L55.10 23.59Q55.65 24.26 56.22 25.36L56.28 25.42L56.60 25.39Z"/><path fill="#333" d="M113.76 41.14L113.77 41.15L113.82 41.20Q116.86 36.82 123.56 28.90L123.57 28.91L123.64 28.98Q117.65 29.12 113.88 27.75L114.00 27.86L113.83 27.70Q113.27 26.38 112.51 24.97L112.37 24.83L112.47 24.93Q116.67 26.54 121.12 26.58L120.99 26.44L121.04 26.49Q125.52 26.56 129.71 25.50L129.60 25.38L129.58 25.37Q129.23 26.08 128.96 26.61L129.00 26.65L129.09 26.74Q126.56 28.97 123.74 32.59L123.59 32.43L118.68 38.64L118.67 38.63Q121.05 38.57 123.29 38.65L123.33 38.68L123.16 38.52Q125.44 38.66 127.69 39.04L127.56 38.91L127.68 39.04Q127.77 39.58 128.49 41.60L128.59 41.69L128.46 41.57Q124.82 40.82 120.83 40.94L120.75 40.86L120.78 40.89Q116.94 41.13 113.29 42.31L113.14 42.16L113.10 42.12Q113.34 42.13 113.79 41.18ZM112.53 42.73L112.67 42.87L112.67 42.87Q113.33 42.43 114.93 42.01L114.99 42.07L114.92 41.99Q114.71 42.24 114.29 42.66L114.28 42.66L114.43 42.80Q114.10 43.28 113.49 44.42L113.51 44.43L113.45 44.37Q118.25 43.12 123.24 43.27L123.27 43.30L123.23 43.26Q128.25 43.49 132.82 45.35L132.81 45.34L132.76 45.30Q131.26 43.38 130.35 41.32L130.30 41.28L130.34 41.32Q129.54 40.97 128.47 40.74L128.56 40.83L128.45 40.72Q128.42 40.15 128.04 38.71L128.04 38.71L127.95 38.62Q126.37 38.26 122.79 38.14L122.85 38.20L122.82 38.17Q125.30 34.95 130.33 28.59L130.25 28.51L130.30 28.56Q130.55 27.82 131.24 26.49L131.26 26.51L128.99 27.29L128.85 27.15Q129.02 27.16 129.17 27.05L129.15 27.03L129.27 26.76L129.38 26.88Q129.80 25.77 130.37 24.82L130.45 24.91L130.28 24.74Q125.75 26.22 121.03 26.15L120.99 26.10L120.95 26.06Q116.11 25.94 111.62 24.12L111.71 24.21L111.70 24.20Q112.83 26.01 113.63 28.06L113.66 28.09L113.64 28.07Q114.59 28.49 115.65 28.76L115.67 28.78L115.56 28.67Q115.71 29.31 116.01 30.76L116.10 30.84L116.06 30.80Q117.59 31.01 120.91 31.16L120.99 31.24L120.94 31.19Q118.53 34.49 113.35 40.93L113.32 40.89L113.41 40.99Q113.25 41.66 112.67 42.87Z"/><path fill="#111" d="M73.50 32.13L64.35 22.23L64.33 22.21Q65.02 25.75 65.02 29.48L65.03 29.49L65.07 29.53Q65.14 35.57 63.08 41.13L63.12 41.17L63.10 41.15Q61.96 41.34 59.71 42.10L59.80 42.19L59.78 42.17Q62.53 36.32 62.53 29.62L62.48 29.56L62.55 29.63Q62.56 21.00 58.06 13.58L58.08 13.59L58.04 13.56Q58.53 13.77 59.21 14.19L59.23 14.20L59.10 14.08Q71.33 25.44 79.18 34.69L79.20 34.71L79.07 34.58Q78.78 32.16 78.78 29.72L78.90 29.84L78.82 29.77Q78.86 22.57 81.38 16.37L81.32 16.31L81.40 16.39Q83.56 15.70 85.16 15.02L85.20 15.05L85.25 15.10Q81.97 21.30 81.67 28.46L81.55 28.34L81.66 28.46Q81.41 35.85 84.38 42.02L84.22 41.86L84.37 42.01Q83.72 41.85 83.30 41.66L83.32 41.69L83.37 41.74Q78.79 37.77 73.58 32.21L73.59 32.22ZM86.97 45.18L86.94 45.15L86.90 45.11Q87.31 45.22 87.73 45.41L87.77 45.46L88.61 45.79L88.67 45.85Q83.44 38.84 83.44 29.48L83.40 29.43L83.41 29.44Q83.40 22.20 86.71 15.95L86.73 15.97L86.83 16.08Q86.26 16.38 84.85 16.99L84.68 16.82L84.82 16.96Q85.09 16.01 85.92 14.44L85.91 14.43L86.05 14.57Q83.48 15.35 81.05 15.92L81.14 16.01L80.97 15.85Q78.53 22.51 78.53 29.93L78.44 29.84L78.36 29.76Q78.50 31.76 78.69 33.74L78.67 33.73L78.59 33.64Q73.93 27.95 69.17 23.35L69.13 23.31L59.12 13.67L59.19 13.75Q58.48 13.31 57.27 12.74L57.41 12.88L57.25 12.73Q62.16 20.49 62.16 29.58L62.27 29.69L62.30 29.73Q62.17 36.72 59.09 42.73L59.18 42.83L59.21 42.85Q59.47 42.69 61.11 42.09L61.17 42.15L61.12 42.10Q60.81 42.90 59.98 44.38L60.01 44.42L59.99 44.39Q61.24 43.78 64.70 42.98L64.73 43.00L64.71 42.99Q66.97 36.79 66.97 29.60L67.12 29.75L67.09 29.72Q66.97 27.51 66.74 25.38L66.84 25.48L66.87 25.51Q78.39 38.35 86.99 45.20Z"/><path fill="#222" d="M30.31 40.31L30.44 40.44L30.44 40.44Q27.45 36.53 24.82 27.89L24.76 27.83L24.72 27.79Q24.03 25.62 23.23 23.49L23.20 23.46L20.35 32.25L20.43 32.34Q18.68 37.32 16.28 40.56L16.20 40.48L16.27 40.55Q15.35 40.55 13.72 40.70L13.67 40.66L13.77 40.76Q13.86 39.54 13.86 38.29L13.93 38.36L13.76 38.20Q13.78 32.20 11.04 26.07L11.16 26.19L11.08 26.10Q8.05 19.31 2.19 14.32L2.13 14.26L2.13 14.26Q4.18 14.87 6.54 15.40L6.70 15.56L6.62 15.48Q15.31 23.95 16.61 34.91L16.63 34.93L16.59 34.89Q18.29 31.65 19.74 26.28L19.75 26.29L19.66 26.19Q21.60 18.66 22.10 17.25L22.07 17.23L24.33 17.24L24.30 17.21Q25.22 19.46 25.86 21.78L25.68 21.60L26.99 26.10L27.08 26.20Q28.63 31.63 30.04 34.87L29.97 34.80L30.02 34.85Q31.72 23.26 39.64 15.91L39.59 15.86L39.51 15.78Q40.99 15.39 43.95 14.75L43.95 14.74L44.07 14.86Q38.66 19.08 35.61 25.21L35.68 25.28L35.75 25.34Q32.59 31.51 32.59 38.29L32.63 38.33L32.67 38.37Q32.49 39.29 32.56 40.43L32.68 40.55L31.42 40.32L31.44 40.34Q30.98 40.41 30.41 40.41ZM36.70 43.36L36.65 43.30L36.56 43.21Q35.38 39.71 35.49 35.83L35.47 35.80L35.43 35.76Q35.82 24.27 45.18 16.01L45.25 16.08L45.12 15.95Q44.14 16.15 42.20 16.68L42.20 16.69L42.38 16.87Q43.20 15.90 45.10 14.11L45.19 14.19L45.07 14.07Q42.48 14.91 39.55 15.40L39.64 15.50L39.57 15.42Q32.05 22.52 30.15 32.00L30.14 32.00L30.23 32.09Q29.63 30.42 26.78 18.96L26.77 18.95L26.76 18.95Q26.33 19.02 25.38 19.02L25.35 18.98L25.09 17.96L25.11 17.98Q24.99 17.44 24.76 16.95L24.61 16.79L21.87 16.95L21.84 16.92Q20.93 19.28 19.65 24.40L19.78 24.53L19.76 24.51Q18.43 29.58 17.44 32.05L17.53 32.14L17.35 31.96Q15.94 24.23 10.39 17.91L10.25 17.77L10.26 17.79Q9.83 17.78 8.88 17.59L8.83 17.54L8.91 17.62Q8.09 16.68 6.53 15.04L6.58 15.10L6.50 15.02Q3.26 14.37 1.09 13.57L1.10 13.58L1.02 13.50Q6.68 18.17 9.95 24.37L10.03 24.45L9.92 24.34Q13.48 31.06 13.48 38.06L13.41 37.99L13.45 38.03Q13.38 39.53 13.19 41.13L13.18 41.11L13.32 41.25Q13.49 41.19 13.94 41.10L13.98 41.13L13.93 41.08Q14.30 40.90 14.53 40.90L14.52 40.89L14.58 41.98L14.53 41.93Q14.68 42.54 14.76 43.07L14.74 43.06L14.78 43.09Q15.74 42.84 18.03 42.69L18.06 42.71L18.17 42.82Q21.80 37.44 24.54 28.03L24.43 27.93L24.55 28.04Q27.26 36.76 30.22 40.72L30.24 40.73L30.31 40.81Q30.74 40.78 31.58 40.89L31.54 40.86L31.47 40.78Q32.36 41.87 33.42 42.93L33.37 42.88L33.42 42.93Q34.29 43.08 36.69 43.34Z"/><path fill="#333" d="M87.63 14.29L87.63 14.29L87.73 14.38Q91.38 16.78 96.14 17.01L96.26 17.14L96.16 17.03Q100.86 17.28 105.12 15.52L105.17 15.57L105.17 15.57Q104.93 16.13 104.17 18.91L104.10 18.84L104.14 18.88Q101.36 19.87 98.39 20.03L98.37 20.00L98.30 19.93Q95.44 20.19 92.55 19.47L92.42 19.35L92.46 19.39Q93.19 23.05 93.38 26.70L93.45 26.77L93.43 26.75Q95.49 27.02 97.09 26.98L97.01 26.90L96.96 26.85Q98.13 26.81 100.53 26.69L100.71 26.87L100.55 26.71Q100.60 27.45 100.60 28.14L100.53 28.06L100.58 29.45L100.69 29.55Q98.22 29.48 93.42 29.56L93.33 29.47L93.44 29.58Q93.43 33.67 92.85 37.67L92.78 37.59L92.90 37.72Q95.41 36.95 98.15 37.06L98.13 37.05L98.12 37.03Q100.99 37.27 103.57 38.11L103.44 37.97L103.40 37.93Q103.47 38.73 103.73 39.49L103.84 39.59L104.21 41.03L104.26 41.09Q101.01 39.74 97.59 39.74L97.61 39.76L97.62 39.77Q92.70 39.73 88.44 41.97L88.61 42.15L88.43 41.96Q90.91 35.30 90.64 28.18L90.61 28.15L90.59 28.14Q90.40 21.06 87.74 14.40ZM88.00 42.75L88.10 42.85L88.10 42.85Q89.35 42.13 90.11 41.78L90.07 41.74L90.10 41.77Q89.90 42.52 89.33 44.04L89.19 43.91L89.20 43.91Q93.82 42.02 98.88 42.29L98.78 42.19L98.97 42.38Q104.05 42.58 108.04 45.28L108.00 45.24L108.12 45.36Q106.89 42.76 106.21 40.82L106.17 40.78L106.16 40.78Q105.14 40.14 104.15 39.79L104.12 39.77L104.18 39.83Q103.82 38.47 103.67 37.67L103.62 37.62L103.64 37.64Q100.67 36.77 97.51 36.77L97.52 36.77L97.44 36.69Q96.39 36.79 95.24 36.90L95.18 36.83L95.08 36.74Q95.29 35.57 95.32 34.35L95.36 34.39L95.44 31.88L95.43 31.87Q97.14 31.68 98.93 31.72L99.00 31.79L98.94 31.73Q100.81 31.81 102.60 31.96L102.56 31.92L102.68 32.04Q102.55 31.03 102.55 30.08L102.61 30.14L102.47 28.10L101.80 28.30L101.71 28.22Q101.30 28.30 100.85 28.30L100.90 28.36L100.95 28.40Q100.87 27.65 101.03 26.35L100.99 26.31L100.94 26.27Q99.48 26.63 98.30 26.67L98.16 26.53L98.24 26.61Q97.20 26.52 95.37 26.44L95.49 26.56L95.55 26.62Q95.29 25.03 95.10 22.21L95.24 22.35L95.10 22.21Q96.17 22.37 97.16 22.37L97.26 22.47L97.22 22.43Q102.02 22.51 105.71 20.60L105.61 20.51L105.65 20.55Q106.21 18.17 107.08 15.96L106.98 15.86L107.14 16.02Q105.77 16.82 104.93 17.16L104.82 17.05L104.87 17.10Q105.21 16.38 105.67 14.81L105.61 14.76L105.65 14.80Q100.96 16.89 96.09 16.58L96.10 16.59L96.12 16.61Q90.92 16.40 87.08 13.54L86.91 13.37L86.99 13.46Q89.94 20.48 90.24 28.09L90.11 27.96L90.27 28.12Q90.46 35.92 87.95 42.70Z"/></svg>