<svg xmlns="http://www.w3.org/2000/svg" width="150" height="50" viewBox="0,0,150,50"><path fill="#444" d="M121.35 41.46L121.21 41.32L121.30 41.41Q118.43 41.59 117.18 41.06L117.02 40.90L117.13 41.01Q115.13 40.15 115.21 37.68L115.25 37.72L115.31 37.78Q115.31 34.24 115.31 34.81L115.35 34.85L115.40 34.90Q115.46 29.64 112.61 24.80L112.47 24.67L112.59 24.78Q114.53 25.70 116.51 26.08L116.48 26.05L116.49 26.05Q118.12 30.58 118.01 35.07L118.02 35.09L118.11 35.17Q118.01 36.71 118.85 37.93L118.74 37.82L118.78 37.86Q119.62 39.12 121.14 38.93L121.16 38.95L121.60 38.89L121.58 38.87Q123.02 38.91 123.84 38.15L123.82 38.12L123.79 38.10Q124.49 37.21 124.49 36.26L124.52 36.29L124.54 36.32Q124.48 36.02 124.44 35.83L124.48 35.87L124.45 35.85Q124.47 30.68 125.61 26.34L125.68 26.41L125.63 26.36Q126.53 26.16 127.52 25.94L127.62 26.03L129.72 25.62L129.65 25.55Q127.17 30.65 127.48 36.21L127.45 36.18L127.32 36.05Q127.50 39.12 125.79 40.27L125.85 40.32L125.84 40.31Q124.66 41.30 121.34 41.46ZM123.66 43.85L123.51 43.70L123.58 43.77Q127.12 44.00 128.95 43.24L128.80 43.08L128.88 43.17Q129.72 42.33 129.72 40.92L129.86 41.07L129.74 40.95Q129.84 40.13 129.57 38.57L129.57 38.57L129.60 38.59Q129.07 35.40 129.45 32.39L129.43 32.38L129.39 32.33Q129.84 29.24 131.25 26.50L131.14 26.39L131.16 26.41Q130.58 26.78 129.25 27.20L129.25 27.20L129.28 27.23Q129.39 26.51 129.70 25.94L129.87 26.11L130.29 24.82L130.45 24.98Q128.46 25.57 125.30 26.07L125.18 25.95L125.29 26.06Q124.11 30.90 124.27 36.00L124.16 35.90L124.10 35.84Q124.36 38.11 121.70 38.61L121.69 38.60L121.33 38.70L121.09 38.61L120.06 38.39L120.13 38.45Q120.00 37.52 120.04 37.03L119.98 36.97L119.99 36.98Q120.22 32.48 119.53 28.07L119.50 28.04L118.64 28.09L118.58 28.03Q118.01 27.95 117.47 27.84L117.58 27.94L117.53 27.89Q117.03 26.37 116.77 25.61L116.91 25.75L116.85 25.70Q114.07 25.27 111.82 23.98L111.91 24.06L111.78 23.93Q114.04 27.56 114.76 30.95L114.76 30.95L114.76 30.95Q115.10 33.00 114.94 36.50L114.94 36.50L114.99 36.55Q115.11 36.78 115.03 37.88L115.04 37.89L114.91 37.76Q114.89 40.26 116.26 41.21L116.13 41.08L116.13 41.08Q116.58 43.39 123.59 43.78Z"/><path fill="#222" d="M99.49 27.07L99.66 27.25L99.67 27.26Q100.32 27.11 101.73 26.96L101.74 26.97L101.76 26.99Q101.79 27.71 101.79 28.35L101.74 28.31L101.83 29.64L101.78 29.60Q100.94 29.60 100.10 29.67L100.11 29.68L100.15 29.71Q99.33 29.78 98.49 29.74L98.40 29.64L98.42 29.66Q95.45 35.71 92.02 40.32L92.07 40.37L92.16 40.46Q89.68 41.13 88.38 41.74L88.37 41.74L88.32 41.69Q92.44 35.98 95.48 29.70L95.56 29.77L92.93 29.77L92.91 29.75Q92.94 28.45 92.82 27.11L92.76 27.05L92.69 26.98Q94.54 27.08 96.59 27.08L96.74 27.22L98.67 23.56L98.66 23.55Q99.68 21.67 100.90 20.07L100.84 20.01L100.77 19.95Q99.27 20.16 97.67 20.16L97.69 20.17L97.60 20.09Q91.65 20.23 87.88 18.02L87.79 17.93L87.10 16.17L87.21 16.29Q86.86 15.44 86.48 14.56L86.34 14.42L86.40 14.49Q90.65 17.02 96.36 17.25L96.47 17.36L96.41 17.30Q101.53 17.51 106.67 15.53L106.80 15.66L106.80 15.66Q106.52 15.99 106.02 16.86L106.04 16.88L106.14 16.98Q102.44 21.65 99.58 27.17ZM107.58 18.19L107.61 18.22L108.58 16.18L108.67 16.28Q107.71 16.76 106.04 17.49L106.05 17.50L106.27 17.22L106.25 17.21Q106.34 17.02 106.45 16.91L106.53 16.99L106.51 16.97Q106.76 16.15 107.48 14.82L107.63 14.96L107.57 14.91Q102.11 17.06 96.36 16.83L96.47 16.94L96.47 16.94Q90.50 16.72 85.74 13.75L85.72 13.73L85.69 13.70Q86.79 15.64 87.63 18.30L87.59 18.26L87.57 18.24Q88.70 18.91 89.50 19.22L89.43 19.15L89.45 19.18Q89.56 19.47 90.02 21.34L90.08 21.40L90.00 21.32Q93.31 22.73 98.83 22.57L98.84 22.59L98.72 22.46Q98.54 23.16 96.56 26.93L96.39 26.76L96.48 26.85Q94.43 26.85 92.45 26.66L92.33 26.54L92.50 26.71Q92.46 27.43 92.46 28.31L92.40 28.25L92.48 30.05L94.19 30.07L94.22 31.51L94.22 31.52Q90.31 38.91 87.53 42.49L87.52 42.48L87.42 42.38Q89.10 41.70 90.74 41.21L90.69 41.16L90.66 41.12Q89.99 42.06 88.62 43.77L88.74 43.89L88.71 43.86Q91.81 42.69 94.24 42.47L94.21 42.43L94.31 42.54Q97.22 38.75 100.35 31.97L100.28 31.90L103.80 32.19L103.76 32.15Q103.58 31.14 103.58 30.22L103.72 30.36L103.68 28.52L103.66 28.51Q103.37 28.48 102.82 28.52L102.90 28.61L102.87 28.58Q102.36 28.66 102.09 28.66L102.02 28.58L102.09 28.65Q101.98 28.43 102.02 28.28L102.14 28.40L101.97 27.96L102.12 28.11Q104.63 22.97 107.72 18.33Z"/><path fill="#111" d="M47.70 18.55L47.53 18.38L47.59 18.44Q46.87 18.82 46.72 19.62L46.75 19.66L46.73 24.77L46.69 24.73Q47.79 24.69 49.99 24.42L49.98 24.41L50.14 24.57Q50.09 24.98 50.05 25.81L49.93 25.69L50.05 25.82Q50.08 26.64 50.08 27.10L49.93 26.95L48.38 27.07L48.43 27.12Q47.63 27.20 46.75 27.20L46.63 27.08L46.65 27.09Q46.81 31.44 46.73 39.81L46.56 39.65L46.57 39.66Q44.43 39.80 42.94 40.48L42.98 40.52L43.03 40.57Q44.06 34.36 43.94 27.13L43.92 27.11L43.94 27.13Q43.21 27.01 41.92 26.74L41.93 26.75L41.98 26.80Q41.88 25.71 41.69 23.77L41.85 23.93L41.79 23.87Q42.85 24.32 43.80 24.51L43.92 24.63L43.76 24.47Q43.80 23.90 43.49 21.42L43.45 21.38L43.55 21.48Q43.26 19.36 43.26 18.41L43.30 18.46L43.19 18.35Q43.22 16.70 44.63 16.12L44.64 16.14L44.65 16.15Q45.59 15.91 50.43 15.07L50.35 14.99L50.25 14.90Q51.23 14.93 52.07 14.81L51.99 14.73L52.04 14.78Q51.73 15.47 51.58 16.34L51.65 16.41L51.21 17.84L51.23 17.86Q50.67 17.79 50.18 17.90L50.23 17.96L50.08 17.81Q49.55 17.89 47.65 18.50ZM53.11 19.66L53.10 19.65L53.04 19.59Q53.43 17.43 54.04 14.88L53.92 14.76L54.09 14.93Q53.47 15.26 52.17 15.87L52.02 15.72L52.44 14.04L52.45 14.05Q51.36 14.36 48.88 14.90L48.81 14.82L48.79 14.81Q47.54 14.81 44.34 15.72L44.45 15.83L44.50 15.88Q42.74 16.11 42.74 17.97L42.84 18.06L42.92 18.15Q42.86 18.39 42.93 18.73L42.98 18.78L42.94 18.74Q43.15 20.05 43.27 21.39L43.18 21.30L43.38 23.97L43.38 23.98Q42.03 23.62 41.38 23.16L41.47 23.25L41.38 23.15Q41.46 24.08 41.50 25.10L41.61 25.21L41.60 27.07L41.78 27.25Q42.36 27.30 43.16 27.38L43.24 27.45L43.16 29.46L43.62 29.55L43.65 29.57Q43.47 35.64 42.48 41.08L42.45 41.05L42.59 41.20Q43.57 40.68 44.75 40.42L44.64 40.31L44.56 42.48L44.57 42.49Q45.83 42.23 47.12 42.19L47.00 42.06L46.97 42.03Q48.27 42.07 49.52 42.34L49.48 42.29L49.44 42.26Q48.66 37.33 48.66 29.38L48.59 29.30L48.60 29.31Q49.87 29.47 51.96 29.55L51.88 29.47L51.91 27.64L51.95 27.68Q51.83 26.60 51.87 25.65L51.96 25.74L51.94 25.72Q51.32 25.67 50.25 25.94L50.33 26.02L50.31 26.00Q50.41 25.42 50.53 24.08L50.45 24.01L50.52 24.08Q49.54 24.16 48.74 24.23L48.75 24.25L48.83 24.32Q48.92 23.00 49.03 21.59L48.99 21.55L49.03 21.59Q49.10 20.87 49.63 20.52L49.57 20.46L49.64 20.53Q50.57 19.82 51.39 19.74L51.30 19.66L51.37 19.73Q52.22 19.68 53.06 19.61Z"/><path fill="#111" d="M13.70 14.36L13.63 14.28L13.74 14.40Q17.54 16.94 22.30 17.17L22.19 17.06L22.17 17.04Q26.85 17.27 31.12 15.52L31.14 15.54L31.12 15.52Q30.85 16.05 30.08 18.83L30.15 18.89L30.11 18.85Q27.28 19.79 24.31 19.94L24.36 20.00L24.30 19.93Q21.50 20.26 18.61 19.54L18.46 19.38L18.54 19.47Q19.25 23.10 19.44 26.76L19.43 26.75L19.42 26.74Q21.50 27.03 23.10 26.99L22.95 26.84L23.09 26.98Q24.22 26.89 26.61 26.78L26.67 26.83L26.59 26.76Q26.54 27.39 26.54 28.08L26.55 28.09L26.65 29.52L26.61 29.48Q24.15 29.42 19.36 29.49L19.32 29.46L19.36 29.50Q19.49 33.74 18.92 37.74L18.79 37.60L18.88 37.69Q21.45 36.99 24.19 37.10L24.18 37.10L24.10 37.01Q26.89 37.18 29.48 38.02L29.56 38.10L29.39 37.93Q29.53 38.79 29.80 39.56L29.90 39.66L30.24 41.06L30.20 41.02Q27.09 39.81 23.66 39.81L23.74 39.89L23.74 39.89Q18.88 39.91 14.62 42.15L14.51 42.05L14.47 42.01Q16.79 35.18 16.52 28.06L16.61 28.15L16.53 28.08Q16.32 20.97 13.66 14.31ZM13.94 42.70L14.02 42.77L13.99 42.75Q15.38 42.15 16.14 41.81L16.04 41.70L16.13 41.80Q15.82 42.44 15.25 43.97L15.31 44.02L15.19 43.90Q19.83 42.03 24.89 42.30L24.92 42.33L24.92 42.33Q30.01 42.54 34.01 45.25L33.99 45.23L33.99 45.23Q32.79 42.66 32.11 40.72L32.19 40.80L32.19 40.81Q31.23 40.23 30.24 39.88L30.21 39.85L30.15 39.80Q29.87 38.52 29.72 37.73L29.67 37.68L29.63 37.64Q26.61 36.71 23.45 36.71L23.48 36.73L23.39 36.65Q22.23 36.63 21.09 36.75L21.15 36.81L21.24 36.90Q21.27 35.56 21.31 34.34L21.25 34.28L21.41 31.85L21.45 31.89Q23.25 31.79 25.04 31.83L24.96 31.74L24.90 31.68Q26.88 31.88 28.67 32.03L28.51 31.87L28.66 32.02Q28.54 31.02 28.54 30.07L28.56 30.09L28.59 28.22L27.66 28.16L27.69 28.20Q27.34 28.34 26.88 28.34L26.79 28.25L26.84 28.29Q26.76 27.53 26.91 26.24L26.93 26.26L26.97 26.29Q25.40 26.56 24.22 26.59L24.32 26.69L24.27 26.64Q23.35 26.67 21.52 26.59L21.49 26.56L21.55 26.62Q21.30 25.04 21.11 22.23L21.25 22.37L21.13 22.24Q22.23 22.43 23.22 22.43L23.12 22.33L23.30 22.51Q27.84 22.33 31.53 20.43L31.54 20.43L31.54 20.44Q32.23 18.19 33.10 15.98L33.02 15.90L33.07 15.95Q31.81 16.86 30.97 17.20L30.98 17.21L30.91 17.14Q31.12 16.28 31.58 14.72L31.74 14.88L31.67 14.82Q26.99 16.91 22.12 16.61L22.10 16.59L22.21 16.70Q16.86 16.34 13.01 13.48L13.06 13.52L13.08 13.55Q15.84 20.38 16.15 28.00L16.17 28.02L16.17 28.02Q16.46 35.92 13.95 42.70Z"/><path fill="#222" d="M68.41 19.43L68.36 19.38L68.43 19.45Q69.22 23.62 69.37 27.20L69.44 27.27L69.37 27.21Q70.43 27.24 71.50 27.24L71.41 27.15L73.75 27.28L73.74 27.27Q74.83 27.30 75.70 25.89L75.68 25.86L75.67 25.85Q76.37 24.65 76.49 23.47L76.54 23.52L76.37 23.35Q76.93 20.53 72.70 20.03L72.66 19.98L72.65 19.97Q71.04 20.01 68.42 19.44ZM69.41 29.98L69.38 29.95L69.35 29.93Q69.38 36.24 68.24 40.65L68.23 40.64L68.22 40.64Q66.66 40.94 64.33 42.00L64.36 42.03L64.46 42.13Q66.79 35.43 66.52 28.16L66.52 28.16L66.42 28.06Q66.10 20.66 63.32 14.23L63.30 14.20L63.38 14.28Q67.48 17.02 73.72 17.02L73.72 17.01L73.81 17.10Q79.87 17.11 80.03 20.58L79.95 20.50L79.93 20.48Q79.97 22.88 78.98 25.55L79.13 25.70L79.07 25.63Q78.61 26.70 77.66 27.92L77.75 28.01L77.73 27.99Q76.33 29.52 73.78 29.78L73.84 29.85L73.88 29.89Q71.57 29.86 69.32 29.90ZM75.44 32.14L75.54 32.24L75.54 32.23Q79.55 32.32 80.81 27.53L80.87 27.59L80.95 27.66Q81.92 24.03 81.76 22.01L81.63 21.87L81.66 21.91Q81.58 20.42 80.82 19.43L80.78 19.39L80.80 19.41Q80.56 19.16 80.06 18.94L79.91 18.78L79.90 18.77Q79.93 18.65 79.32 17.89L79.46 18.03L79.36 17.94Q77.74 16.54 73.78 16.54L73.91 16.66L73.90 16.66Q67.00 16.65 62.78 13.49L62.80 13.52L62.79 13.50Q65.82 20.45 66.08 27.91L66.22 28.05L66.08 27.91Q66.58 35.79 63.91 42.87L63.74 42.71L63.81 42.78Q64.80 42.05 65.79 41.66L65.96 41.84L65.57 42.98L65.53 42.93Q65.35 43.51 65.08 44.08L64.97 43.97L65.02 44.02Q67.49 43.02 70.38 42.49L70.41 42.52L70.45 42.56Q71.20 36.95 71.27 32.23L71.37 32.32L71.21 32.16Q72.45 32.22 73.44 32.22L73.32 32.10L73.30 32.09Q74.61 32.07 75.41 32.10ZM74.57 22.28L74.63 22.34L74.59 22.30Q75.05 22.26 76.04 22.49L76.09 22.55L76.11 22.56Q76.24 22.80 76.28 23.11L76.17 23.01L76.20 23.03Q76.19 23.25 76.11 23.52L76.09 23.49L76.09 23.49Q75.98 24.72 75.26 25.59L75.29 25.63L75.28 25.62Q74.82 26.79 73.79 26.98L73.69 26.88L73.79 26.98Q72.93 26.84 71.29 26.84L71.38 26.93L71.32 26.87Q71.24 24.54 71.01 22.18L71.01 22.18L72.72 22.21L72.85 22.34Q73.78 22.43 74.65 22.36Z"/></svg>