<svg xmlns="http://www.w3.org/2000/svg" width="150" height="50" viewBox="0,0,150,50"><path fill="#111" d="M126.27 41.03L126.27 41.04L126.26 41.02Q124.77 39.15 123.47 36.07L123.54 36.13L121.55 31.13L121.47 31.05Q119.84 35.02 119.23 36.32L119.21 36.30L119.28 36.37Q117.75 39.21 116.15 41.11L116.22 41.19L116.22 41.18Q115.89 41.24 115.13 41.35L115.02 41.25L115.05 41.28Q115.04 33.84 109.22 27.90L109.27 27.95L109.26 27.94Q107.55 26.15 105.53 24.67L105.55 24.69L105.50 24.64Q107.35 25.19 109.21 25.50L109.22 25.50L109.23 25.52Q115.31 30.49 116.75 36.73L116.65 36.63L116.68 36.66Q117.68 34.92 118.86 31.72L118.79 31.65L118.79 31.65Q120.19 27.95 120.76 26.66L120.78 26.67L122.16 26.64L122.18 26.66Q123.06 28.38 124.24 31.66L124.09 31.50L124.21 31.63Q125.42 35.16 126.07 36.57L126.10 36.60L126.16 36.66Q127.95 30.34 133.44 25.78L133.43 25.77L133.36 25.70Q134.60 25.65 137.35 25.08L137.44 25.17L137.42 25.15Q128.72 31.11 127.54 41.09L127.52 41.06L126.81 40.89L126.80 40.88Q126.56 40.94 126.21 40.98ZM129.12 43.35L131.22 43.58L131.31 43.67Q131.00 42.14 131.00 40.62L131.00 40.62L130.86 40.49Q130.94 37.32 132.35 34.09L132.22 33.97L132.25 34.00Q134.25 29.49 138.36 26.40L138.33 26.37L138.41 26.44Q137.25 26.78 135.39 27.12L135.33 27.06L135.28 27.01Q137.23 25.34 138.52 24.43L138.60 24.51L136.00 24.87L136.07 24.94Q134.84 25.16 133.51 25.32L133.57 25.38L133.58 25.39Q128.31 29.52 126.37 34.55L126.39 34.57L126.44 34.62Q125.75 32.41 124.38 28.14L124.38 28.14L124.49 28.25Q124.02 28.12 123.75 28.12L123.82 28.19L123.21 28.11L123.27 28.18Q123.26 27.97 122.46 26.22L122.41 26.17L120.40 26.22L120.33 26.14Q119.41 28.99 117.32 34.63L117.19 34.50L117.30 34.61Q115.87 30.82 112.79 27.55L112.82 27.58L112.91 27.67Q112.53 27.56 112.23 27.52L112.32 27.62L111.64 27.39L111.74 27.50Q110.86 26.65 109.07 25.05L109.10 25.08L109.10 25.08Q105.88 24.37 104.21 23.88L104.28 23.96L104.18 23.85Q114.92 31.32 114.54 41.64L114.68 41.78L114.55 41.65Q114.90 41.80 115.26 41.76L115.08 41.59L115.20 41.71Q115.55 41.66 115.74 41.66L115.66 41.57L115.70 41.61Q115.69 41.45 115.88 43.54L115.92 43.58L117.81 43.39L117.79 43.36Q120.45 40.61 122.69 34.87L122.59 34.76L122.72 34.89Q124.22 38.75 126.08 41.42L125.96 41.30L126.06 41.39Q126.30 41.29 126.56 41.31L126.71 41.45L126.53 41.27Q126.88 41.37 127.14 41.37L127.07 41.30L129.20 43.43Z"/><path fill="#111" d="M67.15 32.94L67.18 32.97L67.11 32.90Q70.17 32.49 73.37 32.61L73.36 32.60L73.37 32.61Q73.42 30.15 73.42 27.75L73.46 27.79L73.40 27.74Q73.35 25.20 73.54 22.65L73.68 22.79L73.56 22.68Q72.32 24.36 67.10 32.89ZM77.09 40.33L77.01 40.25L77.13 40.37Q75.45 40.06 73.66 39.98L73.51 39.83L73.57 39.89Q73.48 37.64 73.37 35.16L73.36 35.16L73.37 35.16Q67.92 34.85 63.20 36.26L63.25 36.31L63.24 36.30Q63.34 35.80 63.53 34.81L63.65 34.92L63.50 34.77Q65.39 31.71 68.96 25.43L68.91 25.38L68.96 25.42Q71.71 20.41 75.14 16.53L75.25 16.64L75.21 16.60Q76.05 16.37 77.72 16.10L77.77 16.15L77.78 16.16Q75.88 22.60 75.88 29.64L75.92 29.68L75.84 29.60Q75.81 31.05 75.88 32.54L75.90 32.55L77.19 32.66L77.26 32.73Q77.95 32.86 78.56 32.97L78.38 32.79L78.54 32.95Q78.60 33.88 78.87 35.83L78.93 35.89L78.86 35.81Q77.69 35.60 76.21 35.41L76.20 35.40L76.08 35.28Q76.36 37.36 77.05 40.29ZM78.81 32.57L78.71 32.47L78.70 32.46Q78.61 32.49 78.42 32.49L78.36 32.43L78.05 32.50L78.05 32.50Q77.82 30.90 77.82 29.49L77.83 29.50L77.91 29.58Q77.87 23.14 79.93 17.13L79.89 17.09L79.88 17.08Q79.21 17.44 77.77 17.82L77.66 17.72L77.63 17.68Q78.00 17.06 78.45 15.65L78.42 15.62L78.45 15.65Q77.16 16.04 75.11 16.26L75.05 16.21L75.06 16.21Q71.14 20.56 65.92 29.93L65.83 29.83L67.99 26.24L68.06 26.32Q67.53 27.23 67.27 27.80L67.33 27.87L62.79 36.81L62.91 36.92Q63.58 36.79 64.72 36.41L64.74 36.43L64.45 36.52L64.55 36.62Q64.37 37.25 64.07 38.50L64.05 38.48L64.16 38.60Q68.18 37.17 73.02 37.36L72.93 37.28L72.96 37.30Q73.16 38.42 73.35 40.40L73.18 40.23L73.22 40.27Q74.32 40.30 75.39 40.42L75.41 40.44L75.45 40.48Q75.60 41.16 75.87 42.53L75.84 42.51L75.71 42.37Q77.75 42.74 80.76 43.65L80.70 43.60L80.66 43.55Q79.80 41.56 78.89 38.29L78.73 38.12L80.25 38.66L80.22 38.63Q80.94 38.89 81.63 39.23L81.63 39.24L81.72 39.32Q80.88 36.77 80.72 35.09L80.72 35.09L80.66 35.03Q80.16 34.95 79.02 34.72L78.91 34.61L78.98 34.68Q78.79 33.43 78.79 32.55ZM70.74 32.35L70.65 32.25L70.67 32.27Q71.41 30.96 72.97 28.41L73.15 28.59L73.15 28.59Q73.11 29.50 73.08 30.45L73.09 30.46L73.03 30.40Q73.05 31.42 73.09 32.37L73.08 32.36L72.99 32.27Q72.53 32.34 71.96 32.34L71.87 32.26L71.84 32.22Q71.39 32.39 70.78 32.39Z"/><path fill="#222" d="M92.40 40.28L92.49 40.37L92.56 40.44Q91.13 40.49 89.57 40.08L89.55 40.06L89.49 40.00Q88.22 39.03 88.07 37.40L88.15 37.47L88.16 37.49Q88.02 37.20 88.21 34.57L88.19 34.55L88.23 34.58Q89.21 34.35 91.23 33.97L91.33 34.07L91.19 34.89L91.04 34.73Q90.89 36.60 92.30 37.17L92.31 37.18L92.37 37.24Q92.97 37.39 95.07 37.39L95.25 37.57L95.17 37.49Q96.70 37.27 96.89 37.19L96.97 37.27L97.01 37.31Q97.83 37.07 98.55 36.57L98.63 36.65L98.60 36.62Q99.91 35.57 99.72 33.48L99.83 33.58L99.83 33.58Q99.71 31.22 97.97 29.66L97.86 29.54L97.79 29.47Q96.14 27.99 93.66 27.99L93.66 27.99L93.66 27.76L93.61 27.71Q94.08 27.77 94.96 27.69L94.90 27.63L95.00 27.73Q96.76 27.47 98.13 26.24L98.26 26.37L98.19 26.29Q99.60 25.10 99.75 23.23L99.81 23.29L99.65 23.13Q99.78 22.84 99.78 22.49L99.77 22.49L99.84 22.55Q99.77 20.96 98.40 20.05L98.41 20.06L98.49 20.14Q97.14 19.21 95.54 19.32L95.53 19.31L95.53 19.32Q94.24 19.16 93.02 19.58L93.02 19.58L93.14 19.70Q91.63 20.17 91.33 21.32L91.31 21.30L91.30 21.29Q91.22 22.16 91.30 22.92L91.19 22.82L91.28 22.91Q90.13 22.55 88.07 21.83L88.07 21.82L88.07 21.83Q87.95 20.26 87.99 19.42L88.06 19.49L87.92 19.36Q88.02 17.81 89.08 17.13L89.05 17.10L89.09 17.13Q90.52 16.55 92.12 16.55L92.07 16.50L92.20 16.63Q95.26 16.49 98.42 16.75L98.52 16.86L98.42 16.76Q103.50 17.20 103.20 20.97L103.22 20.99L103.15 20.92Q103.23 22.56 102.73 24.12L102.74 24.12L102.71 24.10Q101.72 27.10 99.36 28.01L99.43 28.09L99.38 28.03Q102.01 28.57 102.62 31.92L102.65 31.95L102.62 31.92Q102.85 33.07 102.93 35.09L102.84 35.00L102.90 35.06Q103.14 39.60 98.54 40.06L98.41 39.94L98.47 40.00Q97.77 40.09 92.48 40.36ZM97.74 42.66L97.65 42.56L97.70 42.61Q98.27 42.61 101.13 42.69L101.12 42.68L101.20 42.76Q102.86 42.74 104.49 42.10L104.55 42.15L104.56 42.17Q105.66 41.13 105.47 39.38L105.49 39.40L105.52 39.43Q105.41 38.10 105.11 36.35L105.13 36.37L105.00 36.25Q104.40 31.87 102.45 30.23L102.37 30.15L102.25 29.84L102.23 29.78L102.18 29.73Q103.92 28.28 104.69 23.90L104.71 23.92L104.74 23.95Q104.80 23.51 104.91 22.56L104.81 22.46L104.90 22.55Q105.03 21.85 104.95 21.16L104.78 20.99L104.80 21.00Q104.66 19.35 103.37 18.66L103.48 18.77L103.38 18.75L103.42 18.79Q103.03 17.72 101.89 17.18L101.97 17.26L101.88 17.17Q100.38 16.51 95.24 16.21L95.19 16.16L95.29 16.26Q93.61 16.17 92.01 16.17L91.88 16.04L92.01 16.17Q90.44 16.20 88.92 16.85L88.87 16.81L88.78 16.71Q87.59 17.50 87.59 19.25L87.57 19.23L87.68 19.34Q87.64 18.89 87.91 22.24L87.92 22.25L87.97 22.29Q88.29 22.39 89.93 23.00L89.84 22.91L89.93 23.00Q89.77 23.38 89.73 23.87L89.73 23.87L89.80 23.94Q89.82 24.45 89.85 24.98L89.88 25.00L89.92 25.05Q91.57 25.29 93.59 25.40L93.54 25.36L93.64 25.45Q93.56 23.44 94.67 22.60L94.62 22.55L94.76 22.69Q95.52 21.97 97.54 21.74L97.57 21.77L97.59 21.79Q98.69 21.75 99.26 21.94L99.31 21.99L99.32 21.99Q99.27 22.03 99.31 22.14L99.23 22.06L99.36 22.38L99.40 22.88L99.46 22.94Q99.45 23.12 99.42 23.27L99.40 23.26L99.32 23.18Q99.38 25.03 97.86 26.21L97.76 26.11L97.73 26.08Q96.84 27.02 94.82 27.21L94.81 27.19L94.79 27.18Q94.11 27.37 93.24 27.37L93.27 27.41L93.16 27.30Q93.38 27.82 93.53 28.51L93.45 28.42L93.38 28.36Q95.17 28.39 96.61 29.11L96.56 29.06L96.56 29.18L94.94 29.31L95.03 29.39Q94.98 29.65 95.10 30.26L95.17 30.33L95.22 30.38Q97.30 30.26 99.01 31.59L99.01 31.58L99.02 31.60Q99.16 31.88 99.46 33.52L99.46 33.52L99.52 33.58Q99.78 36.59 96.85 37.00L96.82 36.98L96.84 37.00Q94.62 37.13 94.05 37.10L94.16 37.21L94.11 37.16Q93.70 37.09 93.17 37.02L93.06 36.90L93.21 36.60L93.30 36.12L93.34 35.74L93.30 35.36L93.34 35.40Q92.39 35.48 91.59 35.67L91.60 35.67L91.57 35.64Q91.60 35.49 91.60 35.30L91.57 35.26L91.54 35.23Q91.51 34.97 91.51 34.74L91.53 34.77L91.56 34.79Q91.64 34.42 91.79 33.69L91.70 33.60L91.81 33.72Q89.92 33.92 88.05 34.26L88.08 34.28L87.93 34.13Q88.04 34.74 87.92 35.86L87.80 35.74L87.84 35.78Q87.74 36.92 87.74 37.53L87.74 37.53L87.74 37.52Q87.82 39.59 89.19 40.35L89.32 40.48L89.19 40.34Q90.70 42.66 95.42 42.47L95.43 42.47L95.51 42.56Q96.20 42.48 97.73 42.64Z"/><path fill="#444" d="M38.40 14.39L38.24 14.23L38.23 14.22Q42.12 16.86 46.88 17.08L46.86 17.06L46.92 17.12Q51.46 17.21 55.73 15.46L55.75 15.49L55.69 15.43Q55.49 16.03 54.73 18.81L54.79 18.86L54.81 18.89Q52.06 19.90 49.09 20.05L49.14 20.11L49.03 20.00Q46.07 20.16 43.18 19.43L43.14 19.40L43.22 19.48Q43.78 22.97 43.97 26.63L44.14 26.79L44.07 26.72Q46.07 26.93 47.67 26.90L47.76 26.98L47.77 27.00Q48.89 26.89 51.28 26.78L51.29 26.78L51.20 26.70Q51.29 27.47 51.29 28.16L51.16 28.03L51.21 29.41L51.35 29.55Q48.83 29.43 44.04 29.51L44.09 29.56L43.96 29.43Q44.04 33.63 43.47 37.62L43.58 37.73L43.57 37.72Q46.14 37.01 48.88 37.13L48.85 37.10L48.76 37.01Q51.52 37.15 54.11 37.98L54.06 37.93L54.06 37.93Q54.32 38.91 54.59 39.68L54.44 39.53L54.95 41.11L54.86 41.01Q51.69 39.74 48.26 39.74L48.27 39.75L48.31 39.80Q43.39 39.75 39.13 42.00L39.21 42.07L39.28 42.15Q41.51 35.24 41.24 28.12L41.24 28.12L41.19 28.06Q40.88 20.87 38.21 14.20ZM38.71 42.80L38.67 42.75L38.63 42.72Q39.86 41.96 40.62 41.62L40.73 41.73L40.76 41.76Q40.50 42.46 39.93 43.98L39.99 44.04L39.97 44.01Q44.39 41.93 49.45 42.19L49.56 42.30L49.61 42.35Q54.75 42.61 58.74 45.32L58.69 45.27L58.67 45.24Q57.63 42.84 56.95 40.89L56.76 40.70L56.86 40.80Q55.82 40.15 54.83 39.80L54.96 39.94L54.90 39.87Q54.41 38.39 54.26 37.59L54.31 37.65L54.37 37.71Q51.33 36.76 48.17 36.76L48.08 36.67L48.08 36.67Q46.93 36.66 45.79 36.78L45.85 36.84L45.75 36.74Q45.88 35.50 45.92 34.28L46.06 34.42L45.99 31.77L46.05 31.82Q47.97 31.84 49.76 31.88L49.60 31.72L49.57 31.68Q51.51 31.84 53.29 31.99L53.36 32.05L53.21 31.90Q53.22 31.03 53.22 30.08L53.13 30.00L53.25 28.21L52.48 28.32L52.41 28.24Q51.95 28.28 51.49 28.28L51.49 28.28L51.54 28.33Q51.53 27.63 51.68 26.34L51.68 26.34L51.77 26.42Q50.08 26.57 48.90 26.61L48.81 26.51L48.92 26.62Q47.97 26.62 46.14 26.55L46.21 26.62L46.03 26.43Q45.97 25.04 45.78 22.23L45.87 22.32L45.84 22.28Q46.83 22.36 47.82 22.36L47.92 22.46L47.92 22.46Q52.60 22.42 56.29 20.52L56.26 20.49L56.33 20.56Q56.79 18.09 57.67 15.88L57.82 16.03L57.79 16.01Q56.37 16.75 55.53 17.09L55.59 17.15L55.52 17.08Q55.96 16.46 56.42 14.89L56.36 14.84L56.36 14.84Q51.74 16.99 46.86 16.69L46.83 16.66L46.78 16.60Q41.47 16.28 37.63 13.43L37.63 13.43L37.71 13.51Q40.65 20.52 40.95 28.14L40.80 27.98L40.94 28.12Q41.13 35.93 38.62 42.70Z"/><path fill="#222" d="M23.64 29.84L23.76 29.95L23.62 29.81Q21.13 29.73 19.80 30.95L19.85 30.99L19.78 30.93Q18.42 32.12 18.73 34.63L18.74 34.64L18.88 34.78Q19.08 37.19 20.30 38.45L20.31 38.46L20.39 38.54Q21.50 39.91 23.63 39.84L23.64 39.84L23.52 39.73Q24.01 39.65 24.20 39.65L24.29 39.73L24.26 39.71Q27.75 39.05 27.87 34.45L27.99 34.57L27.96 34.54Q27.92 32.06 27.24 31.26L27.34 31.37L27.26 31.29Q26.28 30.08 23.73 29.93ZM27.12 41.73L26.93 41.54L26.93 41.54Q25.75 42.26 24.19 42.18L24.14 42.14L24.09 42.09Q20.39 42.42 19.09 39.83L19.03 39.77L19.11 39.85Q18.82 45.08 17.49 49.35L17.49 49.35L17.58 49.44Q15.76 49.90 14.12 50.62L14.04 50.54L14.12 50.62Q16.68 44.66 16.42 37.69L16.44 37.71L16.31 37.58Q16.19 30.87 13.29 24.82L13.27 24.80L13.27 24.79Q15.14 25.90 16.85 26.36L16.98 26.49L17.42 27.88L17.32 27.78Q17.43 28.12 17.70 29.22L17.84 29.36L17.83 29.36Q18.83 27.27 22.41 27.08L22.31 26.98L22.30 26.97Q23.20 26.96 24.08 26.96L24.22 27.10L24.66 27.05L24.66 27.05Q24.69 26.96 24.88 27.00L24.84 26.96L25.30 27.12L25.14 26.96Q27.35 27.38 28.07 27.60L28.10 27.64L27.99 27.52Q29.55 28.06 30.43 29.01L30.34 28.92L30.48 29.07Q31.23 30.16 31.19 31.56L31.15 31.52L31.24 31.61Q31.23 34.46 30.43 37.12L30.38 37.07L30.48 37.17Q29.44 40.66 27.08 41.69ZM31.35 42.30L31.20 42.11L31.27 42.19Q32.36 40.19 32.66 36.08L32.74 36.16L32.63 36.05Q32.89 34.40 32.89 33.14L32.83 33.08L32.88 33.14Q32.91 31.64 32.15 30.23L32.16 30.25L32.05 30.14Q31.76 29.81 31.27 29.43L31.24 29.40L30.94 28.99L30.77 28.70L30.84 28.66L30.85 28.67Q29.17 26.69 24.83 26.69L24.77 26.62L24.04 26.51L24.17 26.64Q19.51 26.62 17.87 28.22L17.78 28.12L17.85 28.19Q17.59 27.59 17.43 27.09L17.56 27.22L17.28 26.14L17.31 26.17Q14.68 25.41 12.47 23.92L12.65 24.10L12.63 24.08Q15.81 30.31 16.12 37.54L16.17 37.60L16.11 37.53Q16.47 44.86 13.61 51.33L13.57 51.29L15.60 50.46L15.48 50.34Q15.18 51.03 14.50 52.59L14.67 52.77L14.64 52.74Q17.31 51.64 19.63 51.30L19.56 51.23L19.54 51.21Q20.69 46.42 20.84 42.69L20.78 42.63L20.94 42.79Q22.30 44.22 25.92 44.45L25.80 44.33L25.82 44.35Q29.85 44.69 31.30 42.25L31.22 42.17ZM25.69 32.22L25.60 32.14L25.56 32.10Q26.17 31.99 27.28 32.33L27.28 32.33L27.28 32.33Q27.65 33.43 27.62 34.61L27.69 34.69L27.55 34.55Q27.52 35.43 27.33 36.07L27.50 36.25L27.48 36.23Q26.69 39.06 24.18 39.36L24.23 39.41L24.28 39.35L24.30 39.36Q24.18 39.32 24.06 39.36L24.12 39.42L23.48 39.31L23.51 39.34Q22.39 39.40 21.40 38.90L21.41 38.91L21.09 36.88L21.11 36.90Q20.82 34.43 22.11 33.41L22.25 33.55L22.19 33.49Q23.19 32.39 25.59 32.12Z"/></svg>