<svg xmlns="http://www.w3.org/2000/svg" width="150" height="50" viewBox="0,0,150,50"><path fill="#222" d="M124.67 29.49L124.72 29.54L124.58 29.41Q123.43 28.67 122.78 28.71L122.85 28.78L122.85 28.78Q121.54 28.92 120.50 29.93L120.36 29.79L120.38 29.81Q119.46 30.95 119.58 32.32L119.54 32.29L119.50 32.25Q119.77 36.55 118.89 41.08L118.93 41.12L118.92 41.11Q116.65 41.50 115.54 42.03L115.68 42.17L115.62 42.11Q117.19 38.00 116.96 33.55L116.87 33.46L116.93 33.52Q116.59 28.92 114.88 24.84L114.87 24.84L114.89 24.86Q116.09 25.60 118.37 26.24L118.37 26.25L118.89 28.89L118.93 28.94Q119.54 25.97 123.81 25.97L123.88 26.04L123.92 26.08Q124.19 25.89 124.49 25.89L124.47 25.87L124.53 25.93Q125.75 25.86 127.01 26.54L127.18 26.71L127.11 26.64Q125.79 27.99 124.64 29.47ZM126.35 31.56L126.31 31.36L126.40 31.46Q127.31 30.31 128.98 27.87L129.01 27.90L128.87 27.75Q128.46 27.46 126.94 27.19L126.89 27.15L126.87 27.13Q127.20 26.81 127.65 26.20L127.71 26.26L127.73 26.28Q125.78 25.31 123.84 25.50L124.00 25.66L123.98 25.64Q122.01 25.80 121.28 26.07L121.23 26.01L121.16 25.95Q119.88 26.50 119.08 27.60L119.07 27.58L118.84 26.71L118.65 25.87L118.60 25.83Q116.24 25.45 114.26 24.11L114.34 24.20L114.23 24.08Q116.45 28.54 116.68 33.42L116.54 33.28L116.54 33.29Q116.80 38.23 115.05 42.76L115.10 42.81L115.07 42.77Q116.13 42.28 117.01 41.97L116.97 41.94L117.11 42.07Q116.81 43.15 116.32 44.21L116.20 44.10L116.34 44.24Q119.20 43.40 121.33 43.29L121.31 43.27L121.54 38.77L121.53 38.77Q121.67 36.55 121.67 34.30L121.61 34.25L121.66 34.29Q121.66 33.11 122.58 32.14L122.43 31.99L122.54 32.10Q123.33 31.01 124.47 30.94L124.59 31.06L124.47 30.93Q125.16 30.86 125.88 31.54L125.89 31.55L126.33 31.54ZM121.31 29.71L121.39 29.72L121.19 29.63L121.37 29.78Z"/><path fill="#333" d="M79.82 30.37L79.81 30.36L79.77 30.32Q79.94 29.99 79.91 29.57L79.93 29.59L79.97 29.64Q79.87 29.24 79.57 29.05L79.46 28.94L79.43 28.91Q78.81 28.44 77.94 28.60L77.98 28.64L77.79 28.44Q76.78 28.50 75.14 29.61L75.27 29.73L75.17 29.63Q73.79 30.57 73.79 31.75L73.71 31.68L73.84 31.81Q73.86 33.09 73.86 36.40L73.75 36.29L73.81 36.34Q73.72 38.85 73.87 40.86L73.90 40.88L73.97 40.96Q72.12 40.82 72.12 40.82L72.22 40.93L72.14 40.84Q71.10 40.75 70.38 40.83L70.49 40.95L70.40 40.86Q70.82 38.34 70.90 36.10L71.04 36.24L70.88 36.08Q71.15 31.55 70.50 30.26L70.51 30.26L70.53 30.29Q70.25 29.70 69.68 29.39L69.71 29.43L69.61 29.33Q68.78 28.61 67.22 28.50L67.27 28.55L67.31 28.59Q65.17 28.24 64.64 29.84L64.74 29.94L64.73 29.93Q64.59 30.44 64.71 30.93L64.56 30.79L64.69 30.92Q65.19 33.51 64.85 36.29L64.99 36.43L64.95 36.39Q64.55 39.11 63.14 41.55L63.30 41.71L63.20 41.61Q62.19 41.78 60.10 42.20L60.22 42.32L60.18 42.29Q62.67 39.03 62.67 34.72L62.67 34.72L62.53 34.58Q62.53 28.72 58.50 24.50L58.55 24.55L58.68 24.68Q59.40 24.94 60.35 25.17L60.34 25.15L62.10 25.59L61.99 25.48Q62.43 26.07 63.31 27.75L63.42 27.86L63.41 27.85Q63.48 25.86 65.91 25.82L65.88 25.78L65.90 25.80Q66.19 25.91 67.18 25.98L67.04 25.85L67.06 25.86Q72.15 26.28 73.30 29.09L73.18 28.98L73.21 29.01Q74.92 26.34 79.94 25.80L80.02 25.88L79.89 25.75Q80.64 25.63 81.52 25.74L81.51 25.74L81.52 25.75Q83.91 26.11 83.76 27.68L83.74 27.66L83.64 27.56Q83.51 28.16 83.25 28.92L83.26 28.93L83.25 28.92Q81.87 31.96 82.10 35.50L82.10 35.50L82.09 35.49Q82.42 39.10 84.33 41.91L84.15 41.74L84.33 41.92Q82.58 41.50 80.75 41.27L80.80 41.32L80.70 41.22Q79.61 38.80 79.42 36.02L79.26 35.86L79.36 35.95Q79.12 33.05 79.77 30.31ZM80.53 41.65L80.42 41.55L80.49 41.62Q81.20 41.68 82.53 41.87L82.65 41.98L82.64 41.97Q83.04 42.57 84.18 43.98L84.19 43.99L84.26 44.05Q87.24 44.68 89.34 45.32L89.31 45.30L89.33 45.32Q84.26 41.35 83.99 34.84L83.97 34.82L83.90 34.74Q83.98 32.81 84.59 30.91L84.56 30.87L84.52 30.83Q84.60 29.81 84.60 29.09L84.65 29.14L84.75 29.24Q84.70 28.27 84.09 27.70L84.05 27.66L84.13 27.71L84.17 27.75Q84.18 27.19 84.11 26.69L84.13 26.72L84.17 26.75Q83.89 26.06 83.43 25.79L83.55 25.91L83.56 25.92Q82.77 25.32 81.90 25.28L81.92 25.31L81.97 25.35Q79.16 25.29 76.50 26.24L76.40 26.14L76.49 26.23Q74.55 26.96 73.37 28.37L73.32 28.31L73.38 28.38Q71.75 25.83 66.91 25.49L66.95 25.52L66.90 25.48Q66.24 25.46 65.82 25.46L65.90 25.55L65.86 25.51Q63.74 25.43 63.13 26.69L63.05 26.62L63.21 26.77Q62.87 26.25 62.19 25.18L62.08 25.07L62.19 25.18Q59.79 24.72 57.81 24.07L57.70 23.97L57.79 24.06Q62.33 28.33 62.33 34.61L62.33 34.61L62.28 34.56Q62.40 39.40 59.55 42.87L59.43 42.75L59.55 42.87Q59.94 42.65 60.44 42.58L60.50 42.65L61.48 42.48L61.33 42.33Q60.72 43.47 59.62 44.69L59.53 44.61L59.57 44.64Q61.15 44.28 64.27 43.67L64.33 43.73L64.36 43.76Q67.00 39.62 67.00 34.71L67.09 34.80L67.04 34.75Q67.12 34.03 67.04 33.20L67.04 33.20L66.96 33.11Q66.91 32.38 67.90 31.58L67.81 31.48L67.95 31.67L67.82 31.53Q68.45 31.10 69.63 30.98L69.69 31.05L69.55 30.91Q70.21 31.14 70.51 31.14L70.36 30.99L70.49 31.31L70.53 31.36Q70.70 33.96 70.59 36.32L70.56 36.29L70.66 36.39Q70.54 38.67 70.05 41.34L70.01 41.30L69.91 41.20Q71.09 41.35 71.09 41.35L71.05 41.31L70.95 41.22Q72.38 41.19 72.04 41.19L72.05 41.20L72.03 41.19Q72.08 41.74 72.04 42.19L72.07 42.22L72.04 42.19Q72.05 42.69 72.05 43.19L72.15 43.29L74.44 43.11L74.56 43.22Q75.72 43.13 76.98 43.21L77.09 43.32L77.02 43.25Q75.52 39.57 75.71 33.63L75.62 33.55L75.77 33.70Q75.73 32.51 76.91 31.75L76.84 31.69L76.88 31.73Q77.93 31.06 79.18 30.87L79.13 30.81L79.31 30.69L79.36 30.74Q78.89 32.63 78.89 34.61L78.93 34.65L79.04 34.76Q78.91 38.40 80.44 41.56ZM74.99 30.10L75.20 30.09L75.08 30.30L75.10 30.21Z"/><path fill="#333" d="M47.35 30.44L47.44 30.53L47.27 30.36Q43.87 36.78 40.44 40.74L40.35 40.65L40.40 40.70Q38.55 41.13 36.11 42.01L36.19 42.08L36.04 41.94Q40.97 36.35 45.73 27.94L45.80 28.02L45.72 27.94Q41.21 21.06 35.23 14.66L35.22 14.66L35.28 14.72Q38.20 15.92 40.48 16.42L40.48 16.41L40.35 16.28Q45.04 21.54 47.47 25.50L47.48 25.51L47.54 25.56Q49.98 21.08 53.90 16.66L54.00 16.76L53.85 16.62Q55.64 16.49 58.83 15.73L58.77 15.67L58.83 15.73Q52.72 22.15 49.26 28.09L49.28 28.10L49.20 28.03Q54.28 36.61 58.66 41.18L58.68 41.20L58.81 41.33Q56.14 40.45 54.05 40.22L54.11 40.28L54.14 40.31Q51.36 37.34 47.43 30.53ZM53.89 40.48L53.91 40.51L53.95 40.55Q54.22 40.54 54.67 40.66L54.84 40.82L54.74 40.72Q55.49 41.43 57.01 43.03L56.98 43.00L57.03 43.05Q60.47 43.94 63.52 45.31L63.39 45.18L63.41 45.20Q56.37 38.70 51.27 29.94L51.10 29.77L51.11 29.79Q54.97 23.25 60.87 16.40L60.91 16.44L60.90 16.43Q59.32 16.94 57.15 17.48L57.22 17.55L57.26 17.58Q58.06 16.59 59.81 14.80L59.79 14.79L59.97 14.97Q57.49 15.76 53.80 16.33L53.85 16.38L53.78 16.31Q50.36 20.13 47.77 24.43L47.80 24.45L47.79 24.45Q46.94 22.91 45.76 21.43L45.67 21.34L43.44 18.46L43.03 18.43L43.00 18.40Q42.82 18.37 42.59 18.29L42.54 18.25L42.69 18.39Q41.91 17.46 40.42 15.90L40.56 16.03L40.49 15.97Q36.62 15.03 34.03 13.66L33.98 13.60L34.08 13.70Q40.73 20.89 45.30 27.94L45.44 28.08L45.43 28.06Q40.84 36.15 35.09 42.73L35.04 42.68L35.07 42.71Q36.47 42.13 38.60 41.56L38.58 41.54L37.22 42.92L37.35 43.05Q37.24 42.94 35.90 44.27L35.97 44.34L36.04 44.41Q38.98 43.27 42.14 42.78L42.18 42.82L42.14 42.78Q46.14 38.25 48.72 33.49L48.76 33.53L48.73 33.50Q51.37 37.81 54.08 40.67Z"/><path fill="#333" d="M21.82 19.64L21.74 19.56L20.29 19.78L20.27 19.77Q17.95 19.81 17.72 21.83L17.84 21.94L17.78 21.88Q17.66 22.56 17.70 23.55L17.79 23.65L17.77 23.63Q17.79 25.55 19.05 26.88L19.06 26.90L19.09 26.92Q20.28 28.19 22.18 28.03L22.23 28.08L22.24 28.09Q24.32 27.97 25.09 27.06L25.09 27.06L25.03 27.00Q26.07 26.06 26.33 23.81L26.33 23.80L26.29 23.76Q26.67 21.63 25.41 20.79L25.42 20.81L25.31 20.69Q24.47 19.94 21.81 19.63ZM27.88 28.90L27.85 28.87L26.56 31.16L26.57 31.17Q23.95 36.04 20.18 40.12L20.00 39.94L20.04 39.97Q18.45 40.18 15.74 40.98L15.77 41.00L15.68 40.91Q21.16 34.78 24.32 29.98L24.26 29.92L24.21 29.87Q23.22 30.56 21.59 30.64L21.57 30.62L21.68 30.73Q18.65 30.86 17.12 28.88L17.06 28.81L17.02 28.77Q15.85 27.23 14.75 22.66L14.81 22.72L14.63 22.54Q14.67 22.13 14.52 21.19L14.67 21.34L14.62 21.29Q14.39 20.28 14.39 19.83L14.50 19.94L14.35 19.78Q14.43 18.08 15.50 17.47L15.41 17.38L15.55 17.52Q16.76 16.75 18.62 16.75L18.58 16.71L18.53 16.66Q21.82 16.75 21.82 16.75L21.85 16.78L21.73 16.66Q24.04 16.84 25.30 17.03L25.28 17.01L25.12 16.85Q27.30 17.16 28.21 17.66L28.34 17.79L28.33 17.77Q29.58 18.41 29.77 20.16L29.87 20.27L29.81 20.20Q29.71 20.33 29.52 23.00L29.55 23.03L29.61 23.09Q29.18 25.17 28.95 26.01L28.93 25.99L29.04 26.10Q28.63 27.48 27.87 28.89ZM29.75 31.26L29.75 31.27L29.76 31.28Q30.81 29.12 31.34 24.82L31.36 24.84L31.34 24.82Q31.47 22.48 31.43 21.60L31.61 21.78L31.52 21.69Q31.40 19.74 30.22 18.82L30.27 18.88L29.95 18.75L29.91 18.71Q29.63 17.93 28.72 17.29L28.80 17.37L28.87 17.44Q26.60 16.47 21.81 16.31L21.67 16.18L21.67 16.18Q20.75 16.21 18.31 16.21L18.27 16.17L18.39 16.29Q16.63 16.28 15.14 16.96L15.04 16.86L15.13 16.95Q14.00 17.76 14.08 19.59L14.03 19.54L13.97 19.48Q14.22 20.46 14.41 22.47L14.48 22.54L14.33 22.39Q15.02 25.10 15.28 25.93L15.22 25.87L15.23 25.88Q15.83 27.78 16.78 29.07L16.86 29.14L16.81 29.09Q17.09 29.45 17.47 29.83L17.54 29.90L17.39 29.76Q17.64 30.19 18.29 31.11L18.31 31.13L18.31 31.13Q19.87 32.57 21.81 32.76L21.76 32.72L21.74 32.70Q19.93 35.45 18.37 37.35L18.31 37.29L14.79 41.77L14.69 41.67Q16.95 40.93 18.59 40.58L18.53 40.52L18.55 40.54Q17.88 41.51 16.32 43.22L16.32 43.23L16.27 43.17Q19.33 42.24 22.45 42.20L22.47 42.22L22.46 42.21Q24.86 39.70 29.20 32.46L29.22 32.49L29.21 32.55L29.17 32.51Q29.50 31.85 29.84 31.36ZM23.83 22.11L23.77 22.05L23.74 22.02Q24.40 21.95 24.86 22.07L24.80 22.01L24.77 21.98Q25.46 22.14 25.84 22.25L25.89 22.30L25.91 22.32Q26.01 22.69 26.09 23.11L26.03 23.05L26.08 23.10Q26.16 23.53 26.05 23.91L25.97 23.83L26.07 23.93Q25.91 25.52 24.73 26.63L24.74 26.63L24.83 26.73Q23.83 27.70 22.19 27.66L22.23 27.70L22.10 27.57Q21.78 27.67 20.26 27.36L20.19 27.30L20.20 27.31Q20.03 26.50 20.03 25.77L20.03 25.77L19.92 25.66Q19.98 25.53 19.98 25.30L19.96 25.28L20.02 25.34Q19.94 23.06 22.23 22.26L22.23 22.26L22.17 22.20Q22.90 22.01 23.73 22.01Z"/><path fill="#222" d="M97.75 29.95L97.73 29.93L97.80 30.00Q95.22 29.82 93.89 31.03L93.77 30.91L93.87 31.02Q92.51 32.20 92.81 34.71L92.73 34.63L92.73 34.63Q93.15 37.26 94.36 38.51L94.27 38.42L94.32 38.47Q95.46 39.88 97.60 39.80L97.54 39.75L97.52 39.73Q98.17 39.81 98.36 39.81L98.34 39.79L98.25 39.69Q101.85 39.14 101.96 34.54L101.93 34.50L101.97 34.55Q102.11 32.25 101.42 31.45L101.36 31.38L101.26 31.28Q100.36 30.15 97.81 30.00ZM101.08 41.69L100.98 41.59L101.05 41.66Q99.68 42.20 98.12 42.12L98.10 42.10L98.12 42.12Q94.40 42.44 93.11 39.85L93.03 39.77L92.94 39.67Q92.80 45.06 91.46 49.32L91.44 49.30L91.51 49.37Q89.66 49.80 88.03 50.53L88.17 50.67L88.14 50.64Q90.64 44.61 90.37 37.64L90.32 37.60L90.34 37.61Q90.07 30.76 87.18 24.70L87.30 24.83L87.25 24.77Q89.11 25.87 90.82 26.33L90.97 26.48L91.45 27.91L91.35 27.81Q91.58 28.26 91.84 29.37L91.75 29.28L91.73 29.25Q92.77 27.21 96.35 27.02L96.40 27.07L96.37 27.04Q97.26 27.02 98.13 27.02L98.18 27.07L98.61 27.00L98.59 26.97Q98.70 26.98 98.89 27.02L98.87 26.99L99.18 27.00L99.14 26.96Q101.40 27.43 102.12 27.66L102.03 27.56L102.01 27.54Q103.54 28.04 104.41 29.00L104.35 28.93L104.50 29.08Q105.20 30.13 105.16 31.54L105.21 31.58L105.17 31.54Q105.22 34.45 104.42 37.11L104.41 37.10L104.35 37.05Q103.38 40.60 101.02 41.63ZM105.26 42.21L105.30 42.22L105.28 42.20Q106.31 40.14 106.61 36.03L106.71 36.12L106.70 36.11Q106.77 34.29 106.77 33.03L106.85 33.10L106.84 33.10Q106.91 31.65 106.15 30.24L106.22 30.30L106.13 30.22Q105.68 29.73 105.19 29.35L105.22 29.38L104.99 29.04L104.81 28.74L104.87 28.69L104.79 28.61Q103.03 26.54 98.69 26.54L98.80 26.66L98.12 26.59L98.20 26.67Q93.43 26.54 91.80 28.14L91.77 28.12L91.83 28.17Q91.56 27.57 91.41 27.07L91.45 27.11L91.24 26.10L91.27 26.13Q88.69 25.42 86.48 23.93L86.58 24.03L86.65 24.10Q89.80 30.29 90.10 37.53L90.09 37.51L90.19 37.61Q90.27 44.66 87.41 51.13L87.48 51.20L89.46 50.32L89.62 50.49Q89.34 51.20 88.66 52.76L88.49 52.59L88.52 52.62Q91.33 51.66 93.66 51.32L93.51 51.17L93.65 51.31Q94.74 46.47 94.90 42.74L94.93 42.77L94.89 42.74Q96.37 44.28 99.98 44.51L99.94 44.47L99.85 44.38Q103.76 44.60 105.21 42.16L105.36 42.32ZM99.68 32.22L99.64 32.18L99.71 32.25Q100.35 32.17 101.45 32.51L101.27 32.33L101.29 32.34Q101.66 33.44 101.62 34.62L101.50 34.50L101.58 34.57Q101.52 35.43 101.33 36.08L101.39 36.14L101.47 36.21Q100.68 39.04 98.17 39.35L98.16 39.34L98.27 39.34L98.37 39.44Q98.28 39.42 98.16 39.46L98.10 39.40L97.64 39.47L97.58 39.41Q96.39 39.40 95.40 38.91L95.37 38.88L95.05 36.83L94.92 36.71Q94.96 34.58 96.26 33.55L96.15 33.45L96.19 33.49Q97.16 32.37 99.56 32.10Z"/></svg>