<svg xmlns="http://www.w3.org/2000/svg" width="150" height="50" viewBox="0,0,150,50"><path fill="#222" d="M38.18 38.89L38.27 38.99L38.31 39.02Q40.08 36.53 44.84 29.26L44.76 29.19L44.88 29.30Q48.82 23.00 51.67 19.73L51.87 19.92L51.86 19.92Q49.71 20.16 47.61 20.16L47.61 20.16L47.61 20.16Q42.26 20.06 38.26 18.27L38.27 18.27L38.27 18.27Q37.60 16.36 36.92 14.79L36.88 14.75L36.96 14.84Q41.50 16.98 47.17 17.09L47.30 17.21L47.25 17.16Q52.33 17.19 57.51 15.28L57.43 15.21L57.56 15.33Q57.10 16.09 56.79 16.89L56.85 16.95L56.32 18.59L56.26 18.53Q53.22 22.18 49.22 28.01L49.28 28.07L45.86 32.80L45.95 32.88Q44.22 35.26 42.39 37.55L42.36 37.51L42.40 37.56Q45.62 36.85 48.93 36.93L48.97 36.97L48.90 36.91Q52.28 37.05 55.44 37.96L55.45 37.97L55.96 39.59L56.05 39.67Q56.28 40.47 56.62 41.31L56.50 41.19L56.63 41.32Q51.92 39.69 46.78 39.88L46.82 39.93L46.82 39.93Q41.67 40.10 37.18 42.12L37.20 42.15L37.20 42.14Q37.48 40.97 38.20 38.92ZM36.56 42.79L36.55 42.78L36.54 42.78Q37.76 42.17 38.56 41.90L38.52 41.86L38.64 41.99Q38.21 42.58 37.52 44.10L37.52 44.10L37.61 44.19Q43.26 42.00 49.24 42.23L49.22 42.21L49.30 42.29Q55.58 42.47 60.60 45.25L60.72 45.37L60.60 45.25Q59.30 42.96 58.50 40.79L58.39 40.68L58.48 40.78Q58.03 40.59 56.51 40.02L56.41 39.92L56.48 39.99Q56.24 39.18 55.82 37.69L55.88 37.75L55.77 37.64Q51.59 36.43 46.49 36.62L46.59 36.72L46.63 36.76Q48.70 33.96 52.24 28.40L52.26 28.42L52.27 28.43Q55.92 22.72 57.83 20.17L57.71 20.05L57.77 20.11Q58.34 18.78 59.37 16.07L59.36 16.06L59.24 15.95Q58.64 16.37 57.19 16.98L57.28 17.07L57.14 16.93Q57.50 16.15 58.23 14.63L58.29 14.69L58.18 14.58Q52.99 16.85 47.28 16.78L47.12 16.62L47.23 16.72Q41.29 16.65 36.34 14.14L36.18 13.98L36.18 13.98Q37.44 16.45 38.16 18.70L38.14 18.68L38.08 18.62Q39.34 19.31 40.14 19.53L40.03 19.43L40.14 19.54Q40.27 20.09 40.54 21.53L40.58 21.58L40.64 21.63Q44.26 22.59 49.13 22.40L49.17 22.44L49.22 22.49Q46.78 25.64 43.47 30.63L43.53 30.70L37.87 38.89L37.94 38.96Q37.53 40.19 36.51 42.74Z"/><path fill="#222" d="M67.87 33.23L67.95 33.30L67.97 33.32Q67.75 36.07 66.57 40.71L66.61 40.76L66.54 40.69Q64.78 41.25 63.18 42.05L63.17 42.03L63.26 42.13Q65.83 35.07 65.57 27.65L65.53 27.61L65.67 27.75Q65.34 20.30 62.26 13.56L62.12 13.42L62.23 13.54Q64.16 14.78 66.03 15.35L66.07 15.39L66.03 15.36Q68.23 22.39 68.23 29.06L68.23 29.06L68.20 29.03Q68.23 30.49 68.15 31.98L68.02 31.85L68.05 31.88Q69.27 30.74 74.49 25.79L74.55 25.86L74.39 25.70Q75.60 25.80 76.59 25.72L76.60 25.74L78.69 25.57L78.70 25.59Q75.54 28.59 71.23 32.36L71.27 32.40L71.19 32.32Q74.55 35.06 81.02 40.89L81.07 40.94L81.10 40.97Q78.36 40.06 75.39 39.87L75.24 39.72L75.31 39.78Q72.81 37.71 67.94 33.29ZM77.80 42.42L77.86 42.49L77.93 42.56Q82.58 43.33 85.70 45.27L85.64 45.21L85.62 45.19Q84.50 43.95 81.88 41.56L81.81 41.49L81.78 41.46Q82.15 41.67 82.41 41.79L82.43 41.81L82.40 41.77Q80.26 39.71 78.01 37.81L78.00 37.80L73.66 33.98L73.53 33.86Q78.61 29.77 81.05 26.87L80.94 26.77L81.02 26.84Q79.81 26.92 77.33 27.19L77.32 27.18L77.28 27.14Q78.95 25.76 79.64 24.93L79.53 24.82L79.69 24.98Q76.80 25.37 74.33 25.37L74.41 25.45L74.34 25.38Q72.99 26.73 70.25 29.40L70.24 29.39L70.25 29.39Q70.28 23.64 69.29 17.82L69.12 17.64L69.29 17.81Q68.58 17.64 67.09 17.37L67.03 17.31L67.09 17.37Q66.81 16.52 66.35 15.03L66.48 15.16L66.47 15.15Q63.81 14.32 61.56 12.75L61.45 12.64L61.53 12.72Q64.86 19.44 65.20 27.55L65.36 27.71L65.35 27.70Q65.59 35.51 62.58 42.74L62.60 42.76L62.53 42.69Q63.21 42.38 64.55 41.74L64.68 41.87L64.62 41.81Q64.36 42.62 63.72 44.07L63.76 44.12L63.67 44.02Q66.67 43.10 68.80 42.72L68.62 42.54L68.78 42.70Q69.26 40.10 69.76 35.83L69.83 35.90L69.83 35.91Q72.37 38.10 77.81 42.44Z"/><path fill="#111" d="M97.32 40.06L97.44 40.18L95.36 40.39L95.38 40.40Q94.87 40.35 93.90 40.41L93.90 40.41L93.80 40.31Q92.80 40.34 92.31 40.34L92.36 40.39L92.45 40.48Q90.69 40.36 89.66 39.52L89.82 39.68L89.65 39.51Q90.47 38.42 92.10 36.29L92.19 36.38L92.22 36.41Q93.41 37.90 95.62 37.67L95.65 37.70L95.66 37.72Q96.56 37.59 97.21 36.94L97.23 36.96L97.27 37.00Q97.74 36.18 97.63 35.30L97.78 35.45L97.78 35.46Q97.69 30.88 97.77 26.31L97.72 26.26L97.72 26.26Q97.68 21.58 98.21 16.97L98.23 16.98L98.32 17.08Q100.27 16.90 102.40 15.87L102.26 15.72L102.28 15.75Q100.55 22.61 100.55 29.85L100.44 29.74L100.46 29.76Q100.43 33.27 100.89 36.77L100.99 36.88L100.87 36.75Q101.07 37.22 101.07 37.57L101.03 37.52L100.98 37.48Q100.91 37.98 100.68 38.51L100.73 38.56L100.85 38.68Q100.23 39.88 97.41 40.15ZM102.23 42.88L102.30 42.94L102.63 42.93L102.98 42.87L103.21 42.71L103.12 42.63Q103.54 42.47 103.61 42.36L103.61 42.35L103.56 42.30Q103.77 41.14 103.50 40.15L103.56 40.21L103.44 40.09Q102.20 34.40 102.47 28.04L102.43 28.00L102.52 28.09Q102.66 21.87 104.45 15.97L104.44 15.97L104.47 16.00Q103.62 16.67 102.37 17.39L102.27 17.30L102.29 17.32Q102.41 16.49 102.83 14.97L103.03 15.16L103.00 15.13Q100.38 16.36 97.72 16.67L97.79 16.73L97.71 16.66Q97.39 21.10 97.32 26.05L97.37 26.10L97.38 26.11Q97.18 31.89 97.25 35.31L97.30 35.36L97.42 35.47Q97.32 37.09 95.57 37.25L95.70 37.37L95.66 37.34Q93.97 37.48 92.30 35.84L92.22 35.76L92.18 35.72Q90.20 38.30 89.24 39.87L89.19 39.81L89.14 39.76Q89.90 40.52 90.92 40.75L90.82 40.64L90.92 40.74Q90.91 40.96 90.65 41.19L90.51 41.05L90.65 41.20Q92.07 42.12 94.05 42.38L93.97 42.31L93.92 42.26Q94.29 42.28 97.58 42.59L97.68 42.68L97.62 42.62Q100.97 42.98 102.34 42.98Z"/><path fill="#222" d="M114.67 49.65L114.61 49.59L114.58 49.56Q117.60 45.80 120.49 39.59L120.47 39.57L120.36 39.47Q117.31 32.98 111.22 24.91L111.15 24.85L111.21 24.91Q113.16 26.10 115.94 26.74L115.88 26.68L115.86 26.67Q119.45 31.40 121.89 36.61L121.88 36.61L121.95 36.67Q123.99 31.25 127.07 26.84L127.22 26.98L127.13 26.90Q129.37 26.59 131.47 25.79L131.46 25.78L131.51 25.83Q127.97 29.52 124.50 36.94L124.55 36.99L121.77 43.04L121.78 43.05Q120.21 46.05 118.46 48.68L118.50 48.72L118.49 48.71Q116.03 49.02 114.58 49.56ZM120.78 50.92L120.76 50.90L120.90 51.04Q122.45 47.98 123.89 44.71L123.92 44.73L126.76 38.51L126.64 38.39Q130.25 30.47 133.56 26.47L133.47 26.38L133.53 26.44Q132.22 27.15 130.32 27.83L130.36 27.88L131.36 26.44L131.30 26.38Q131.80 25.62 132.41 24.94L132.41 24.94L132.45 24.98Q129.90 26.16 127.05 26.62L126.88 26.45L126.99 26.57Q124.11 30.35 122.17 34.80L122.23 34.86L122.28 34.91Q120.67 31.62 118.88 28.81L118.88 28.80L118.93 28.86Q118.58 28.70 118.22 28.66L118.26 28.70L118.30 28.74Q118.01 28.78 117.82 28.78L117.75 28.70L117.76 28.72Q116.88 27.34 115.93 26.20L116.01 26.28L116.10 26.37Q112.92 25.70 110.18 23.99L110.08 23.89L110.22 24.03Q116.35 31.91 120.04 39.53L120.02 39.50L120.16 39.64Q117.85 44.57 113.78 50.21L113.90 50.33L113.84 50.26Q114.61 49.93 115.41 49.78L115.52 49.89L117.07 49.46L117.05 49.44Q116.48 50.21 115.30 51.84L115.21 51.75L115.18 51.72Q117.48 51.13 120.76 50.90Z"/><path fill="#333" d="M21.50 40.24L21.52 40.26L21.56 40.30Q18.03 40.35 16.40 39.82L16.36 39.78L16.30 39.72Q14.42 39.18 14.12 35.79L14.17 35.84L15.59 34.75L15.47 34.63Q16.31 34.21 17.07 33.72L17.08 33.72L17.07 33.72Q16.76 35.58 18.36 36.79L18.31 36.75L18.35 36.79Q19.71 37.88 21.84 37.69L21.84 37.68L21.87 37.72Q26.11 37.16 25.92 33.62L25.92 33.62L26.06 33.76Q25.76 31.36 23.13 30.15L23.12 30.13L23.25 30.26Q20.39 29.19 18.03 27.97L18.00 27.95L17.91 27.86Q15.52 26.68 14.53 22.00L14.48 21.95L14.48 21.95Q14.43 21.56 14.31 20.79L14.17 20.65L14.16 20.64Q14.20 20.00 14.28 19.42L14.14 19.29L14.16 19.31Q14.38 17.77 15.63 17.32L15.71 17.39L15.68 17.36Q18.08 16.49 22.08 16.68L22.12 16.72L21.97 16.57Q23.80 16.69 24.60 16.76L24.63 16.80L24.63 16.79Q26.15 17.03 27.22 17.48L27.24 17.51L27.27 17.54Q29.25 17.88 29.48 20.36L29.48 20.36L29.48 20.36Q28.50 21.12 26.29 22.45L26.20 22.37L26.23 22.40Q25.87 19.44 21.49 19.44L21.50 19.45L21.57 19.53Q19.56 19.42 18.57 20.10L18.67 20.21L18.55 20.08Q17.45 20.66 17.68 22.45L17.70 22.47L17.67 22.44Q17.93 24.64 20.90 26.16L20.78 26.04L20.87 26.14Q21.50 26.46 25.99 28.10L25.88 27.98L25.90 28.00Q28.46 29.42 28.88 33.80L29.01 33.93L28.87 33.79Q28.97 34.05 29.05 35.30L29.09 35.35L28.93 35.18Q29.11 38.06 27.55 39.17L27.47 39.09L27.64 39.26Q25.60 40.03 21.41 40.15ZM23.79 42.61L23.87 42.69L23.72 42.54Q25.16 42.61 27.14 42.61L27.21 42.68L27.21 42.68Q29.28 42.65 30.53 42.23L30.56 42.25L30.52 42.22Q31.81 41.45 31.74 39.66L31.68 39.61L31.79 39.72Q31.71 38.68 31.32 36.63L31.21 36.51L31.38 36.68Q30.38 31.91 28.28 30.05L28.21 29.97L28.36 30.13Q27.58 28.55 26.25 27.82L26.12 27.69L20.86 25.66L20.84 25.64Q20.61 25.57 20.15 25.34L20.07 25.26L19.98 24.90L20.02 24.59L19.95 24.52Q19.87 23.19 21.01 22.58L20.95 22.52L20.93 22.50Q21.71 21.94 23.42 21.75L23.36 21.69L23.36 21.69Q24.61 21.69 25.76 22.15L25.69 22.08L25.63 22.02Q25.71 22.14 25.90 22.98L25.97 23.04L26.06 23.14Q26.24 22.97 26.73 22.74L26.68 22.69L26.75 22.77Q27.35 23.56 27.47 24.70L27.43 24.66L27.53 24.76Q27.59 24.70 31.24 22.11L31.27 22.14L31.25 22.12Q31.04 19.55 29.60 18.87L29.56 18.83L29.50 18.78Q29.04 17.63 27.60 17.10L27.51 17.01L27.49 16.99Q25.31 16.30 22.11 16.30L22.01 16.19L22.05 16.24Q17.13 16.23 15.26 16.91L15.29 16.94L15.22 16.87Q13.83 17.27 13.72 18.94L13.74 18.97L13.82 19.04Q13.81 19.61 14.23 21.82L14.12 21.71L14.22 21.80Q14.96 25.63 17.13 27.87L16.96 27.70L17.00 27.75Q17.88 29.54 19.39 30.23L19.43 30.27L19.38 30.22Q20.86 30.88 24.78 32.44L24.80 32.46L24.68 32.38L25.49 32.88L25.52 32.96L25.38 32.81Q25.52 33.22 25.56 33.56L25.66 33.66L25.64 33.64Q25.71 37.10 21.79 37.25L21.80 37.27L21.88 37.34Q20.67 37.32 19.38 36.94L19.42 36.98L19.27 36.83Q19.06 36.12 19.06 35.40L19.11 35.45L18.95 35.29Q18.99 35.07 19.03 34.80L19.05 34.83L18.98 34.75Q18.70 35.12 17.90 35.61L17.75 35.46L17.89 35.60Q17.26 34.36 17.41 32.99L17.48 33.07L17.40 32.98Q15.38 34.24 13.78 35.64L13.89 35.75L13.78 35.64Q13.84 36.46 13.92 37.49L13.81 37.39L13.94 37.51Q14.22 39.21 15.52 39.97L15.59 40.04L15.48 39.93Q16.80 41.86 19.35 42.24L19.30 42.19L19.34 42.23Q20.87 42.43 23.80 42.62Z"/></svg>