<svg xmlns="http://www.w3.org/2000/svg" width="150" height="50" viewBox="0,0,150,50"><path fill="#444" d="M18.53 40.41L18.41 40.29L18.45 40.33Q17.07 40.44 15.51 40.02L15.52 40.03L15.51 40.02Q14.24 39.05 14.09 37.41L14.22 37.55L14.10 37.43Q14.13 37.31 14.32 34.68L14.30 34.66L14.22 34.58Q15.31 34.45 17.32 34.07L17.25 33.99L17.03 34.72L17.03 34.72Q16.79 36.50 18.20 37.07L18.31 37.18L18.27 37.14Q19.17 37.58 21.26 37.58L21.13 37.45L21.20 37.52Q22.75 37.32 22.94 37.25L22.90 37.20L22.91 37.22Q23.88 37.12 24.60 36.62L24.67 36.69L24.52 36.55Q26.01 35.67 25.82 33.57L25.84 33.59L25.85 33.61Q25.62 31.13 23.89 29.57L23.84 29.52L23.81 29.49Q22.08 27.93 19.61 27.93L19.75 28.08L19.76 27.86L19.61 27.71Q20.09 27.77 20.97 27.70L20.96 27.69L21.01 27.74Q22.94 27.65 24.31 26.41L24.23 26.33L24.21 26.31Q25.68 25.17 25.83 23.31L25.79 23.27L25.65 23.13Q25.84 22.90 25.84 22.56L25.74 22.46L25.82 22.53Q25.91 21.10 24.54 20.19L24.53 20.18L24.42 20.07Q23.30 19.37 21.70 19.49L21.67 19.45L21.62 19.40Q20.34 19.27 19.12 19.68L19.21 19.77L19.11 19.67Q17.68 20.22 17.38 21.36L17.26 21.25L17.33 21.32Q17.08 22.02 17.16 22.78L17.22 22.84L17.21 22.84Q16.24 22.66 14.18 21.94L14.12 21.88L14.23 21.99Q13.96 20.27 13.99 19.43L13.88 19.31L13.92 19.35Q14.17 17.97 15.24 17.29L15.06 17.10L15.21 17.25Q16.58 16.61 18.18 16.61L18.19 16.62L18.15 16.58Q21.41 16.64 24.57 16.91L24.56 16.90L24.53 16.86Q29.46 17.15 29.15 20.92L29.32 21.08L29.21 20.97Q29.17 22.50 28.67 24.06L28.63 24.01L28.58 23.97Q27.67 27.05 25.31 27.96L25.47 28.13L25.35 28.00Q28.00 28.56 28.61 31.91L28.56 31.86L28.65 31.95Q28.79 33.00 28.86 35.02L28.86 35.02L29.01 35.17Q29.06 39.52 24.45 39.97L24.46 39.98L24.41 39.93Q23.67 40.00 18.38 40.26ZM23.63 42.54L23.67 42.58L23.62 42.53Q24.35 42.69 27.21 42.77L27.18 42.74L27.09 42.65Q28.94 42.83 30.58 42.18L30.52 42.13L30.57 42.17Q31.72 41.19 31.53 39.44L31.46 39.37L31.54 39.45Q31.36 38.06 31.06 36.30L31.17 36.42L31.04 36.29Q30.36 31.83 28.42 30.20L28.39 30.17L28.19 29.78L28.17 29.72L28.12 29.67Q29.97 28.32 30.73 23.94L30.68 23.89L30.77 23.99Q30.76 23.48 30.88 22.53L30.86 22.52L30.92 22.57Q30.91 21.72 30.83 21.04L30.81 21.02L30.84 21.04Q30.71 19.39 29.41 18.71L29.34 18.64L29.31 18.68L29.38 18.75Q29.12 17.80 27.98 17.27L27.83 17.12L27.83 17.12Q26.29 16.42 21.15 16.12L21.19 16.15L21.29 16.26Q19.50 16.07 17.90 16.07L18.06 16.23L18.05 16.22Q16.27 16.03 14.75 16.68L14.75 16.68L14.89 16.82Q13.61 17.52 13.61 19.27L13.59 19.26L13.72 19.38Q13.62 18.86 13.88 22.21L13.87 22.20L13.96 22.29Q14.22 22.32 15.85 22.93L15.85 22.92L15.89 22.96Q15.89 23.49 15.85 23.99L15.88 24.01L15.76 23.90Q15.74 24.37 15.78 24.90L15.86 24.98L15.78 24.90Q17.54 25.26 19.56 25.38L19.65 25.47L19.71 25.53Q19.52 23.39 20.62 22.56L20.76 22.69L20.74 22.67Q21.50 21.95 23.52 21.72L23.47 21.67L23.47 21.68Q24.66 21.72 25.23 21.91L25.19 21.87L25.26 21.93Q25.35 22.11 25.39 22.22L25.38 22.21L25.25 22.27L25.51 22.98L25.53 23.00Q25.46 23.13 25.43 23.29L25.39 23.24L25.35 23.21Q25.41 25.06 23.88 26.24L23.79 26.15L23.76 26.12Q22.90 27.07 20.88 27.26L20.88 27.26L20.87 27.26Q20.14 27.40 19.26 27.40L19.17 27.30L19.33 27.47Q19.22 27.66 19.37 28.35L19.39 28.37L19.41 28.38Q21.21 28.43 22.65 29.15L22.74 29.24L22.57 29.18L20.91 29.27L20.95 29.32Q20.97 29.64 21.08 30.25L21.17 30.34L21.06 30.23Q23.24 30.19 24.95 31.53L25.06 31.63L25.06 31.64Q25.18 31.91 25.48 33.54L25.53 33.59L25.47 33.53Q25.70 36.50 22.77 36.92L22.81 36.96L22.82 36.97Q20.77 37.28 20.20 37.24L20.17 37.21L20.12 37.16Q19.66 37.05 19.13 36.97L19.07 36.91L19.02 36.40L19.23 36.05L19.17 35.57L19.23 35.29L19.24 35.29Q18.31 35.39 17.51 35.58L17.63 35.70L17.58 35.66Q17.44 35.32 17.44 35.13L17.49 35.18L17.55 35.24Q17.47 34.93 17.47 34.70L17.63 34.87L17.63 34.86Q17.54 34.32 17.69 33.60L17.82 33.72L17.72 33.62Q15.84 33.84 13.97 34.18L14.07 34.28L13.96 34.16Q14.07 34.77 13.96 35.90L13.81 35.75L13.93 35.87Q13.87 37.05 13.87 37.66L13.85 37.64L13.71 37.50Q13.93 39.70 15.30 40.46L15.21 40.36L15.20 40.35Q16.70 42.65 21.42 42.46L21.43 42.47L21.47 42.51Q22.23 42.51 23.75 42.66Z"/><path fill="#222" d="M64.85 47.00L65.01 47.15L64.92 47.06Q63.93 47.22 62.03 47.52L62.16 47.65L62.03 47.52Q63.37 45.40 64.40 44.10L64.43 44.13L64.35 44.06Q66.14 44.39 66.29 44.39L66.23 44.34L66.35 44.45Q66.61 44.48 67.14 44.37L67.17 44.40L67.21 44.44Q67.87 44.34 68.06 44.34L68.09 44.37L68.04 44.31Q70.66 44.12 70.58 41.95L70.42 41.79L70.47 41.83Q70.50 40.42 70.38 34.17L70.30 34.09L70.27 34.07Q70.30 30.59 70.38 26.44L70.43 26.50L71.75 26.22L71.75 26.22Q72.38 26.08 73.06 25.85L73.16 25.95L73.03 25.82Q72.81 30.24 72.84 34.62L72.84 34.61L72.99 34.76Q72.88 38.99 73.41 43.37L73.49 43.45L73.47 43.43Q73.54 43.73 73.54 43.99L73.56 44.01L73.51 43.96Q73.53 45.62 71.85 46.00L71.91 46.06L71.95 46.09Q68.87 46.52 65.03 47.17ZM71.62 22.77L69.50 19.66L69.62 19.78Q70.71 18.43 72.53 15.65L72.47 15.59L72.46 15.58Q73.12 16.47 74.46 18.30L74.54 18.39L71.67 22.82ZM74.64 49.39L74.71 49.47L74.74 49.50Q75.18 49.44 75.94 49.10L76.08 49.24L76.03 49.19Q76.35 48.48 76.35 48.02L76.43 48.11L76.29 47.97Q76.37 47.70 76.25 47.09L76.21 47.04L76.13 46.96Q74.87 40.64 74.87 32.72L74.78 32.64L74.95 32.80Q74.80 29.80 74.95 26.90L75.01 26.96L75.06 27.01Q74.51 27.19 73.37 27.49L73.32 27.44L73.44 27.56Q73.41 27.04 73.45 26.51L73.32 26.37L73.55 25.42L73.43 25.31Q71.78 26.01 69.99 26.05L70.05 26.11L70.09 26.15Q69.97 30.42 70.01 33.99L69.92 33.91L70.18 41.89L70.14 41.85Q70.21 43.82 68.04 43.93L68.02 43.91L68.01 43.90Q67.79 43.92 67.28 43.98L67.26 43.95L67.32 44.02Q66.77 44.04 66.51 44.04L66.58 44.12L66.56 44.09Q65.99 43.98 64.43 43.56L64.52 43.65L64.50 43.63Q63.93 44.13 62.82 45.80L62.96 45.94L61.35 48.17L61.29 48.12Q62.30 48.06 63.94 47.68L63.81 47.55L63.42 48.34L62.81 48.91L62.88 48.98Q65.13 48.79 66.46 48.87L66.43 48.83L66.53 48.93Q68.78 49.05 74.72 49.47ZM71.66 23.57L71.73 23.64L72.12 23.15L72.08 23.12Q72.36 23.48 73.32 25.08L73.36 25.12L73.38 25.15Q74.84 21.96 76.40 18.87L76.50 18.97L76.52 18.99Q75.40 17.27 74.45 15.97L74.43 15.95L74.55 16.07Q74.29 16.23 73.95 16.77L73.98 16.79L74.00 16.81Q73.54 16.13 72.55 14.84L72.64 14.92L72.57 14.85Q71.30 16.36 68.98 19.71L69.02 19.75L68.98 19.71Q70.04 21.07 71.75 23.66Z"/><path fill="#222" d="M48.04 40.12L48.06 40.13L45.95 40.30L45.88 40.24Q45.46 40.27 44.49 40.33L44.57 40.41L44.45 40.30Q43.49 40.37 43.00 40.37L43.00 40.36L42.99 40.35Q41.32 40.33 40.30 39.49L40.41 39.61L40.36 39.55Q41.12 38.41 42.76 36.28L42.91 36.43L42.83 36.35Q44.12 37.94 46.33 37.71L46.37 37.76L46.27 37.66Q47.24 37.60 47.89 36.96L47.85 36.92L47.85 36.91Q48.54 36.31 48.42 35.43L48.31 35.32L48.42 35.43Q48.27 30.78 48.34 26.22L48.28 26.15L48.34 26.21Q48.39 21.62 48.92 17.01L48.89 16.98L48.96 17.05Q50.91 16.86 53.04 15.84L52.93 15.73L52.98 15.77Q51.21 22.61 51.21 29.84L51.13 29.77L51.09 29.72Q51.06 33.24 51.52 36.74L51.62 36.85L51.53 36.75Q51.61 37.10 51.61 37.44L51.73 37.56L51.64 37.47Q51.65 38.05 51.42 38.59L51.34 38.50L51.46 38.63Q50.77 39.76 47.95 40.02ZM52.99 42.97L53.04 43.03L53.39 43.03L53.56 42.78L53.93 42.76L53.85 42.69Q54.25 42.52 54.32 42.40L54.16 42.24L54.20 42.27Q54.50 41.21 54.23 40.22L54.10 40.09L54.25 40.23Q52.88 34.40 53.14 28.05L53.15 28.06L53.10 28.00Q53.34 21.89 55.13 15.99L55.21 16.07L55.11 15.96Q54.31 16.69 53.05 17.41L52.92 17.28L52.95 17.31Q53.25 16.65 53.66 15.13L53.60 15.06L53.68 15.15Q51.11 16.42 48.44 16.72L48.38 16.67L48.33 16.62Q47.99 21.03 47.92 25.98L48.00 26.06L48.08 26.14Q47.92 31.97 48.00 35.39L48.04 35.43L48.01 35.41Q48.03 37.14 46.28 37.29L46.22 37.23L46.30 37.30Q44.64 37.47 42.96 35.84L42.82 35.69L42.98 35.85Q40.86 38.30 39.90 39.86L39.93 39.88L39.82 39.78Q40.60 40.56 41.63 40.78L41.60 40.75L41.51 40.67Q41.43 40.82 41.17 41.05L41.31 41.19L41.30 41.18Q42.61 41.99 44.59 42.26L44.57 42.24L44.65 42.33Q45.01 42.34 48.30 42.64L48.40 42.74L48.33 42.67Q51.53 42.88 52.90 42.88Z"/><path fill="#333" d="M124.69 30.87L124.68 30.86L124.82 31.00Q124.75 29.41 123.93 28.49L124.07 28.63L123.91 28.47Q123.22 27.69 121.78 27.73L121.65 27.60L121.66 27.61Q119.32 27.66 118.48 29.80L118.49 29.80L118.46 29.77Q118.21 30.59 118.17 31.28L118.23 31.34L118.32 31.43Q117.96 36.13 117.04 40.47L117.12 40.54L117.08 40.51Q115.48 41.11 113.61 42.10L113.58 42.07L113.57 42.06Q115.83 35.07 115.57 27.76L115.63 27.83L115.58 27.77Q115.29 20.40 112.74 13.58L112.82 13.67L112.67 13.52Q114.47 14.86 116.49 15.55L116.59 15.65L116.52 15.58Q117.97 21.37 118.16 27.24L118.14 27.21L118.10 27.17Q119.53 25.14 122.23 25.21L122.19 25.17L122.30 25.28Q127.29 25.29 127.41 30.65L127.40 30.65L127.46 30.71Q127.52 36.33 128.89 40.97L129.06 41.14L128.99 41.07Q127.10 40.21 125.35 40.02L125.28 39.95L125.32 39.98Q124.88 36.81 124.77 30.94ZM124.96 40.27L125.03 40.34L124.97 40.28Q126.18 40.58 127.28 40.84L127.19 40.75L127.26 40.82Q127.16 40.83 127.69 42.81L127.82 42.95L127.72 42.84Q130.77 43.87 132.78 45.32L132.78 45.31L132.73 45.26Q130.05 39.50 129.52 33.19L129.49 33.15L129.59 33.25Q129.26 29.54 127.86 27.98L127.80 27.93L127.72 27.85Q127.81 27.86 127.17 27.41L127.16 27.40L127.16 27.40Q126.89 26.87 126.25 26.11L126.33 26.19L126.29 26.07L126.23 26.01Q125.50 25.29 122.38 25.02L122.32 24.96L122.26 24.90Q121.61 24.97 120.20 25.31L120.15 25.26L120.08 25.19Q120.02 20.49 119.68 17.98L119.66 17.95L119.52 17.82Q118.91 17.85 117.42 17.55L117.37 17.50L117.40 17.52Q117.13 16.69 116.87 15.20L116.86 15.20L116.85 15.19Q113.96 14.28 112.10 12.72L112.00 12.62L112.12 12.74Q114.93 19.74 115.20 27.54L115.30 27.65L115.22 27.57Q115.53 35.37 112.98 42.72L112.94 42.68L112.96 42.71Q113.88 42.10 115.02 41.61L115.10 41.69L114.31 43.90L114.39 43.98Q117.55 42.68 119.53 42.49L119.46 42.43L119.45 42.41Q120.04 37.02 120.23 33.07L120.21 33.05L120.32 33.16Q120.30 31.20 122.24 30.09L122.25 30.10L122.33 30.18Q122.87 29.96 123.40 30.00L123.35 29.94L123.25 29.84Q123.45 29.89 123.79 29.93L123.73 29.87L124.30 30.10L124.27 30.06Q124.17 30.35 124.29 30.81L124.39 30.91L124.39 30.92Q124.59 36.97 125.08 40.40Z"/><path fill="#333" d="M94.85 28.87L94.83 28.85L94.80 28.82Q92.42 29.00 91.40 30.18L91.37 30.16L91.23 30.01Q90.39 31.38 90.39 34.01L90.37 33.99L90.39 34.00Q90.27 38.99 94.87 38.80L94.99 38.92L94.90 38.82Q97.08 39.09 98.43 37.53L98.36 37.47L98.38 37.48Q99.63 35.82 99.40 33.77L99.40 33.77L99.49 33.85Q99.49 31.30 98.61 30.27L98.65 30.31L98.61 30.27Q97.02 28.84 94.82 28.84ZM99.95 38.73L99.87 38.66L100.01 38.79Q98.75 41.19 94.07 41.19L94.04 41.16L92.63 41.19L92.53 41.10Q90.33 41.25 89.22 40.11L89.21 40.09L89.17 40.06Q88.09 38.97 87.82 36.58L87.77 36.53L87.84 36.59Q87.74 35.17 87.67 33.38L87.61 33.32L87.59 33.30Q87.52 32.28 87.36 30.33L87.52 30.49L87.49 30.46Q87.25 26.03 92.43 26.03L92.59 26.19L94.10 26.14L94.05 26.09Q96.92 26.07 99.01 27.36L98.99 27.34L99.05 27.40Q99.94 27.99 100.44 28.67L100.33 28.56L100.30 28.54Q100.60 27.77 101.13 26.13L101.05 26.06L101.09 26.09Q102.31 25.90 104.63 25.29L104.72 25.39L104.59 25.25Q102.05 29.52 102.05 34.78L102.10 34.83L102.15 34.88Q102.19 38.65 103.56 41.73L103.53 41.70L103.46 41.64Q102.32 41.33 100.41 41.10L100.51 41.19L100.36 41.04Q100.28 40.32 99.98 38.76ZM103.32 44.01L103.18 43.87L105.52 44.57L105.48 44.53Q106.72 44.85 107.71 45.31L107.64 45.25L107.60 45.21Q104.08 41.00 104.08 34.91L104.09 34.92L104.00 34.82Q104.06 30.36 106.20 26.55L106.04 26.40L106.19 26.55Q105.48 26.71 104.14 27.09L104.21 27.15L104.22 27.17Q104.56 26.40 105.44 24.88L105.37 24.81L105.29 24.73Q104.88 25.09 100.88 25.92L100.73 25.77L100.33 27.76L100.15 27.58Q98.38 25.85 93.96 25.62L94.09 25.76L94.00 25.66Q92.98 25.78 90.73 25.94L90.59 25.79L90.73 25.93Q87.03 26.27 87.14 30.30L87.02 30.18L87.08 30.24Q87.28 33.64 87.85 38.09L87.79 38.03L87.85 38.51L87.90 38.56Q87.92 39.31 88.72 40.41L88.77 40.46L88.68 40.36Q88.88 40.57 89.07 40.68L89.00 40.61L89.09 40.71Q89.24 41.08 89.62 41.65L89.66 41.69L89.82 41.85Q91.22 43.37 94.61 43.56L94.49 43.44L94.56 43.51Q96.18 43.60 96.33 43.60L96.22 43.49L97.95 43.66L97.89 43.61Q101.08 43.59 102.30 42.03L102.28 42.02L102.31 42.05Q102.70 42.70 103.31 43.99ZM96.68 31.16L96.71 31.19L96.59 31.07Q97.98 31.12 98.81 31.58L98.85 31.62L98.88 31.65Q99.15 32.42 99.15 33.86L99.21 33.92L99.15 33.86Q99.44 35.87 98.17 37.29L98.05 37.18L98.00 37.12Q96.76 38.59 94.86 38.40L94.87 38.41L94.87 38.41Q93.39 38.38 92.36 37.96L92.36 37.96L92.45 38.05Q92.13 37.08 92.13 35.86L92.29 36.02L92.29 36.02Q92.31 32.39 94.94 31.44L94.94 31.44L94.89 31.39Q95.80 31.08 96.60 31.08Z"/></svg>