<svg xmlns="http://www.w3.org/2000/svg" width="150" height="50" viewBox="0,0,150,50"><path fill="#333" d="M95.74 29.17L95.72 29.15L95.67 29.10Q93.95 29.09 92.71 30.52L92.66 30.47L92.70 30.51Q91.43 31.91 91.24 33.81L91.09 33.66L91.14 33.71Q90.90 35.75 91.98 36.72L91.97 36.71L91.99 36.73Q93.22 37.84 95.31 37.73L95.23 37.65L95.16 37.57Q97.38 37.55 98.49 36.87L98.51 36.90L98.39 36.77Q99.46 35.60 99.46 34.04L99.65 34.23L99.52 34.09Q99.54 33.73 99.46 33.35L99.47 33.36L99.46 33.35Q99.56 31.70 98.46 30.35L98.36 30.25L98.37 30.26Q97.31 28.96 95.64 29.07ZM95.17 40.13L95.18 40.15L95.18 40.15Q90.88 40.23 89.47 39.46L89.45 39.45L89.47 39.47Q88.38 38.64 88.19 36.93L88.27 37.01L88.27 37.01Q88.15 36.24 88.19 35.52L88.17 35.50L88.29 35.62Q88.30 34.53 88.30 34.07L88.38 34.14L88.46 34.22Q88.89 31.35 89.04 30.66L89.07 30.69L88.89 30.51Q89.51 28.73 90.35 27.32L90.31 27.29L90.23 27.21Q92.99 22.92 98.93 16.57L98.84 16.48L98.79 16.43Q101.63 16.29 103.84 15.49L103.80 15.46L103.71 15.37Q96.82 22.80 93.63 27.02L93.62 27.02L93.60 27.00Q94.73 26.64 96.03 26.64L95.97 26.59L95.89 26.50Q99.29 26.60 100.81 28.54L100.89 28.61L100.81 28.53Q102.19 30.22 102.53 33.76L102.58 33.80L102.43 33.65Q102.63 34.50 102.63 35.11L102.64 35.12L102.50 34.98Q102.65 38.25 100.44 39.32L100.43 39.31L100.26 39.14Q99.16 39.87 95.28 40.25ZM97.60 42.68L97.45 42.53L97.55 42.63Q98.94 42.69 100.92 42.76L100.91 42.75L100.75 42.60Q102.47 42.76 104.03 42.03L104.01 42.01L104.00 42.00Q105.05 41.15 105.05 39.36L105.02 39.33L105.22 39.53Q105.22 39.03 105.05 38.04L104.90 37.90L105.04 38.03Q104.81 36.99 104.81 36.53L104.80 36.52L104.78 36.50Q103.81 31.69 102.21 29.78L102.25 29.82L102.26 29.83Q102.25 29.78 102.09 29.55L102.07 29.53L101.69 29.23L101.67 29.24L101.66 29.23Q101.31 28.73 100.71 27.78L100.65 27.72L100.78 27.86Q99.73 26.77 97.75 26.31L97.86 26.42L97.80 26.36Q99.01 24.76 101.98 21.06L101.96 21.05L106.27 15.83L106.27 15.83Q104.61 16.61 102.22 17.38L102.28 17.44L102.23 17.39Q103.24 16.49 105.03 14.51L105.00 14.49L104.97 14.45Q102.60 15.55 98.72 16.12L98.66 16.07L98.82 16.23Q93.04 22.05 90.07 27.00L90.04 26.97L90.13 27.06Q88.44 29.42 87.87 35.66L87.89 35.68L87.88 35.67Q87.82 36.25 87.89 37.20L88.04 37.35L88.01 37.32Q88.10 39.09 89.21 40.00L89.23 40.02L89.05 39.85Q89.44 40.00 89.40 40.04L89.50 40.14L89.57 40.21Q89.95 41.12 90.75 41.54L90.73 41.52L90.64 41.44Q92.05 42.08 93.99 42.27L93.96 42.24L94.05 42.33Q94.03 42.31 97.53 42.62ZM97.39 31.47L97.37 31.45L97.25 31.33Q97.84 31.23 98.79 31.73L98.91 31.84L98.91 31.85Q99.11 32.66 99.11 33.31L99.14 33.33L99.26 33.45Q99.39 35.26 98.44 36.25L98.35 36.16L98.34 36.15Q97.34 36.94 95.25 37.24L95.31 37.31L95.34 37.34Q93.87 37.32 93.34 37.05L93.38 37.09L93.37 37.08Q93.09 36.54 93.09 36.23L93.11 36.25L93.01 36.15Q92.85 32.95 95.79 31.66L95.83 31.70L95.82 31.69Q96.53 31.29 97.29 31.37Z"/><path fill="#333" d="M64.99 47.13L65.02 47.16L64.85 46.99Q64.02 47.31 62.12 47.61L62.12 47.62L62.11 47.60Q63.42 45.45 64.45 44.15L64.49 44.19L64.35 44.05Q66.14 44.39 66.29 44.39L66.36 44.47L66.37 44.48Q66.62 44.50 67.15 44.38L67.21 44.44L67.09 44.32Q67.78 44.25 67.98 44.25L68.10 44.38L68.03 44.31Q70.66 44.12 70.58 41.95L70.47 41.84L70.50 41.87Q70.50 40.42 70.38 34.17L70.25 34.04L70.31 34.10Q70.32 30.61 70.40 26.46L70.32 26.39L71.83 26.30L71.88 26.34Q72.51 26.21 73.19 25.98L73.03 25.82L73.18 25.97Q72.95 30.38 72.99 34.76L72.84 34.61L72.93 34.70Q72.96 39.07 73.49 43.45L73.41 43.37L73.47 43.43Q73.59 43.77 73.59 44.04L73.67 44.13L73.60 44.05Q73.53 45.62 71.85 46.00L71.85 45.99L71.89 46.04Q68.72 46.36 64.87 47.01ZM71.66 22.82L69.52 19.68L69.67 19.84Q70.64 18.36 72.46 15.58L72.38 15.50L72.42 15.54Q73.14 16.48 74.47 18.31L74.39 18.23L71.66 22.81ZM74.67 49.42L74.75 49.51L74.68 49.44Q75.28 49.54 76.04 49.20L76.06 49.22L76.08 49.24Q76.36 48.49 76.36 48.04L76.40 48.07L76.40 48.07Q76.41 47.74 76.29 47.13L76.24 47.07L76.20 47.04Q74.91 40.68 74.91 32.77L74.93 32.78L74.95 32.80Q74.84 29.83 74.99 26.94L75.11 27.06L75.05 27.00Q74.50 27.18 73.36 27.48L73.29 27.41L73.33 27.46Q73.31 26.94 73.35 26.41L73.33 26.39L73.46 25.34L73.41 25.28Q71.82 26.05 70.03 26.09L69.95 26.01L69.96 26.02Q69.86 30.30 69.90 33.88L69.98 33.96L70.11 41.82L70.20 41.91Q70.15 43.77 67.98 43.88L68.08 43.98L68.00 43.90Q67.71 43.84 67.20 43.90L67.21 43.91L67.28 43.97Q66.71 43.98 66.44 43.98L66.58 44.11L66.43 43.97Q65.95 43.94 64.39 43.52L64.39 43.53L64.38 43.52Q63.89 44.09 62.79 45.76L62.85 45.83L61.31 48.14L61.40 48.22Q62.29 48.05 63.92 47.66L63.96 47.70L63.41 48.32L62.86 48.96L62.84 48.94Q65.22 48.88 66.55 48.96L66.44 48.85L66.55 48.96Q68.73 49.00 74.66 49.42ZM71.69 23.60L71.69 23.60L72.09 23.12L71.97 23.01Q72.33 23.44 73.28 25.04L73.33 25.10L73.39 25.15Q74.87 21.99 76.43 18.90L76.48 18.96L76.45 18.92Q75.54 17.40 74.59 16.11L74.49 16.01L74.51 16.03Q74.27 16.21 73.93 16.74L73.92 16.73L73.91 16.73Q73.63 16.21 72.64 14.92L72.57 14.85L72.59 14.87Q71.44 16.50 69.12 19.85L69.13 19.87L69.01 19.74Q69.97 21.01 71.68 23.60Z"/><path fill="#111" d="M25.58 27.17L25.58 27.17L25.55 27.14Q26.29 27.08 27.70 26.93L27.74 26.97L27.86 27.09Q27.65 27.57 27.65 28.21L27.71 28.27L27.73 29.55L27.78 29.60Q26.86 29.52 26.03 29.60L25.98 29.55L26.10 29.67Q25.29 29.74 24.45 29.70L24.40 29.64L24.46 29.70Q21.61 35.87 18.18 40.48L18.17 40.47L18.12 40.41Q15.66 41.12 14.36 41.72L14.31 41.67L14.40 41.76Q18.44 35.98 21.49 29.70L21.46 29.67L18.91 29.75L18.83 29.67Q18.80 28.31 18.69 26.98L18.81 27.10L18.64 26.93Q20.65 27.19 22.70 27.19L22.78 27.26L24.66 23.54L24.53 23.42Q25.64 21.63 26.86 20.03L26.86 20.04L26.89 20.06Q25.31 20.20 23.71 20.20L23.69 20.18L23.73 20.22Q17.50 20.07 13.73 17.87L13.87 18.01L13.04 16.11L13.22 16.30Q12.71 15.29 12.33 14.42L12.31 14.40L12.42 14.50Q16.85 17.22 22.56 17.45L22.45 17.34L22.48 17.37Q27.57 17.54 32.70 15.56L32.82 15.68L32.72 15.58Q32.60 16.07 32.11 16.95L32.04 16.88L32.03 16.86Q28.34 21.56 25.49 27.08ZM33.64 18.25L33.75 18.36L34.61 16.21L34.67 16.28Q33.78 16.83 32.11 17.56L32.06 17.51L32.16 17.12L32.30 17.25Q32.25 16.93 32.36 16.82L32.53 16.99L32.40 16.86Q32.89 16.29 33.62 14.95L33.46 14.80L33.59 14.92Q28.25 17.20 22.50 16.97L22.39 16.86L22.52 17.00Q16.50 16.72 11.75 13.75L11.65 13.66L11.70 13.71Q12.64 15.49 13.48 18.15L13.54 18.21L13.63 18.31Q14.65 18.87 15.45 19.17L15.42 19.14L15.52 19.24Q15.67 19.58 16.13 21.45L16.00 21.32L16.02 21.34Q19.18 22.60 24.70 22.44L24.77 22.52L24.65 22.39Q24.45 23.07 22.47 26.84L22.54 26.91L22.39 26.76Q20.41 26.84 18.43 26.65L18.37 26.58L18.42 26.63Q18.56 27.53 18.56 28.41L18.48 28.33L18.50 30.06L20.12 30.01L20.22 31.52L20.13 31.43Q16.20 38.80 13.42 42.38L13.48 42.44L13.44 42.40Q15.06 41.66 16.70 41.17L16.78 41.25L16.72 41.19Q16.08 42.15 14.71 43.86L14.64 43.79L14.69 43.84Q17.84 42.73 20.28 42.50L20.18 42.40L20.32 42.54Q23.25 38.77 26.37 32.00L26.22 31.85L29.77 32.15L29.70 32.09Q29.70 31.25 29.70 30.34L29.73 30.37L29.75 28.60L29.58 28.42Q29.33 28.45 28.78 28.49L28.84 28.54L28.85 28.56Q28.36 28.66 28.10 28.66L27.99 28.55L28.07 28.63Q28.04 28.49 28.08 28.34L28.00 28.25L27.96 27.95L27.99 27.98Q30.47 22.81 33.55 18.17Z"/><path fill="#222" d="M50.89 41.25L50.87 41.23L47.86 41.07L47.95 41.17Q45.43 40.93 44.63 40.82L44.69 40.87L44.63 40.82Q42.82 40.49 41.64 39.62L41.78 39.75L41.74 39.71Q40.37 38.23 40.14 34.88L40.10 34.84L40.12 34.86Q40.09 34.37 40.01 33.15L39.96 33.10L40.14 33.28Q40.10 32.82 40.02 31.71L40.03 31.72L40.00 31.69Q40.02 30.91 40.05 30.19L40.01 30.15L39.87 30.00Q40.23 28.23 41.26 27.47L41.09 27.30L41.16 27.37Q43.11 26.24 47.94 26.01L48.01 26.07L48.01 26.08Q49.91 25.84 50.71 25.84L50.85 25.98L50.81 25.94Q52.36 26.01 53.73 26.32L53.54 26.12L53.72 26.30Q52.99 27.40 52.46 29.23L52.57 29.34L52.45 29.22Q52.00 29.34 51.50 29.30L51.48 29.28L51.58 29.38Q51.41 29.29 50.88 29.17L50.86 29.15L49.97 28.99L50.01 29.03Q48.95 28.77 48.34 28.81L48.35 28.81L48.21 28.67Q43.60 28.86 42.99 31.68L42.87 31.56L42.90 31.59Q42.75 32.84 42.82 33.79L42.82 33.79L42.76 33.73Q42.94 36.35 44.18 37.43L44.08 37.33L44.13 37.39Q45.42 38.52 48.01 38.56L48.06 38.61L47.91 38.46Q49.42 38.52 50.14 38.22L50.21 38.29L51.22 37.77L51.26 37.81Q51.66 37.45 52.23 37.38L52.25 37.39L52.24 37.39Q52.51 39.22 52.89 40.51L52.82 40.44L52.94 40.56Q52.61 40.84 50.82 41.18ZM54.14 44.19L54.12 44.18L54.08 44.14Q54.57 44.28 55.41 44.36L55.29 44.24L55.26 44.21Q56.07 44.41 56.41 43.84L56.32 43.75L56.43 43.86Q55.13 41.69 54.64 39.59L54.67 39.62L54.71 39.66Q54.23 39.49 53.78 39.49L53.81 39.53L53.82 39.54Q53.50 39.64 53.12 39.83L52.97 39.67L53.05 39.76Q52.62 38.42 52.47 37.01L52.56 37.10L52.62 37.15Q51.87 36.94 50.65 37.51L50.78 37.64L50.61 37.47Q49.46 38.11 48.96 38.11L49.09 38.23L48.91 38.05Q48.48 38.12 47.87 38.08L47.85 38.06L47.91 38.12Q47.04 38.13 45.06 37.56L45.07 37.57L45.05 37.54Q44.75 36.86 44.79 35.72L44.80 35.73L44.80 35.73Q44.86 31.38 49.81 30.85L49.90 30.93L49.89 30.92Q50.63 30.98 52.00 31.32L51.84 31.16L51.95 31.28Q53.32 31.62 54.05 31.58L53.92 31.46L54.05 31.58Q54.45 29.32 55.14 27.49L55.02 27.37L55.03 27.39Q54.75 27.37 54.37 27.30L54.32 27.25L53.66 27.27L53.69 27.30Q53.69 26.62 54.07 25.74L54.15 25.82L54.11 25.78Q52.60 25.45 51.04 25.45L51.06 25.47L51.09 25.50Q48.71 25.52 44.33 25.90L44.27 25.84L44.32 25.89Q42.41 26.07 40.85 27.06L40.89 27.10L40.78 26.99Q39.68 28.06 39.68 29.96L39.68 29.96L39.55 29.84Q39.65 30.35 39.76 31.57L39.65 31.46L39.76 31.56Q39.77 32.53 39.73 33.14L39.76 33.17L39.64 33.05Q39.85 35.12 40.58 38.86L40.51 38.79L40.59 38.87Q40.97 39.71 41.47 40.21L41.28 40.02L41.53 40.26L41.70 40.40L41.66 40.36Q42.77 42.57 46.69 43.18L46.61 43.10L46.59 43.08Q49.67 43.49 52.33 43.76L52.42 43.84L52.36 43.79Q53.22 43.92 54.13 44.19Z"/><path fill="#333" d="M129.20 23.19L129.26 23.26L129.37 23.37Q127.67 19.30 121.46 19.50L121.35 19.38L121.43 19.46Q117.05 19.61 115.07 21.05L114.90 20.89L114.90 20.89Q112.53 22.67 112.53 26.78L112.64 26.89L112.53 28.64L112.54 28.66Q112.64 37.59 121.67 37.59L121.56 37.48L121.62 37.55Q123.59 37.45 125.07 36.65L125.18 36.77L125.16 36.74Q126.96 35.69 126.80 33.82L126.92 33.93L126.89 33.90Q126.71 31.82 123.02 30.91L122.86 30.75L121.07 30.91L121.00 30.83Q120.12 30.90 119.17 30.94L119.00 30.77L119.00 30.77Q119.17 30.00 119.14 28.09L119.06 28.02L119.08 28.04Q126.68 27.99 130.87 27.64L130.97 27.75L130.88 27.66Q130.84 28.49 130.84 29.29L130.92 29.37L130.88 29.33Q130.94 30.19 130.98 30.99L130.86 30.87L130.94 30.95Q129.82 30.94 129.82 30.94L129.80 30.91L129.74 30.86Q128.38 30.86 128.76 30.86L128.81 30.92L128.68 30.78Q129.90 32.54 130.28 34.52L130.20 34.44L130.22 34.46Q130.38 35.22 130.38 35.68L130.42 35.72L130.36 35.67Q130.45 40.40 121.66 40.40L121.65 40.39L121.53 40.27Q114.52 40.38 111.93 38.28L111.76 38.11L111.90 38.25Q109.93 35.91 109.93 30.84L109.97 30.88L109.85 30.76Q109.97 29.81 109.81 27.11L109.65 26.94L109.74 27.03Q109.52 24.60 109.56 23.23L109.59 23.27L109.64 23.32Q109.73 20.44 111.10 18.84L111.10 18.84L111.12 18.86Q113.63 16.76 118.50 16.57L118.60 16.67L121.22 16.55L121.13 16.46Q124.22 16.35 127.64 16.77L127.67 16.79L127.69 16.81Q131.44 17.28 132.39 20.52L132.33 20.46L132.42 20.55Q131.30 21.37 129.20 23.20ZM130.75 25.54L130.83 25.51L130.83 25.51Q131.95 24.34 133.81 22.36L133.80 22.35L133.89 22.44Q133.53 21.43 132.54 19.72L132.65 19.84L132.64 19.82Q131.32 17.02 127.52 16.37L127.66 16.51L127.59 16.45Q125.52 16.40 121.22 16.09L121.22 16.09L118.39 16.08L118.50 16.18Q113.25 16.31 110.66 18.29L110.65 18.27L110.80 18.43Q109.40 20.03 109.28 23.11L109.20 23.03L109.17 23.00Q109.31 22.69 109.54 28.17L109.50 28.13L109.48 28.11Q109.55 29.51 109.62 32.25L109.61 32.23L109.60 32.22Q109.75 36.64 111.50 38.58L111.46 38.54L111.44 38.51Q111.91 39.44 112.78 40.32L112.87 40.40L112.70 40.24Q115.63 42.14 121.15 42.48L121.14 42.47L124.16 42.78L124.18 42.80Q125.62 42.77 127.64 42.65L127.63 42.64L127.76 42.77Q129.07 42.56 131.16 42.02L131.32 42.18L131.31 42.17Q133.10 41.53 133.06 39.20L133.11 39.25L133.12 39.26Q133.19 38.07 132.12 35.29L131.99 35.17L132.11 35.28Q131.72 34.28 131.19 33.48L131.20 33.49L131.15 33.45Q131.81 33.53 132.99 33.72L132.97 33.71L133.04 33.77Q132.68 30.11 132.72 29.42L132.79 29.49L132.84 29.54Q132.40 29.48 131.98 29.44L132.03 29.49L131.89 29.35Q131.59 29.39 131.21 29.46L131.10 29.36L131.13 29.39Q131.16 28.32 131.24 27.25L131.18 27.19L131.23 27.24Q125.05 27.84 118.77 27.72L118.81 27.76L118.75 27.70Q118.80 28.63 118.80 29.55L118.66 29.40L118.80 31.29L118.67 31.17Q119.26 31.38 119.68 31.34L119.53 31.19L119.65 31.31Q119.94 31.18 120.39 31.18L120.39 31.17L120.40 31.19Q120.33 31.58 120.37 32.07L120.46 32.15L120.37 32.07Q120.52 32.68 120.48 33.17L120.33 33.02L120.49 33.18Q121.45 33.07 122.48 33.03L122.42 32.97L122.54 33.10Q123.62 33.15 124.65 33.19L124.59 33.12L124.67 33.21Q125.55 33.29 126.42 33.67L126.52 33.77L126.41 33.69L126.56 33.84Q126.60 35.25 124.92 36.16L125.07 36.32L124.98 36.22Q123.41 37.24 121.69 37.24L121.65 37.20L121.66 37.20Q117.78 37.17 115.34 35.42L115.39 35.47L115.34 35.42Q114.44 33.44 114.59 30.89L114.61 30.92L114.52 30.82Q114.81 26.02 116.66 24.02L116.77 24.13L116.63 23.98Q118.62 22.13 123.30 21.83L123.20 21.73L123.29 21.82Q126.81 21.45 128.75 23.24L128.89 23.38L128.88 23.37Q128.96 23.49 129.07 23.68L129.08 23.68L129.04 23.53L129.12 23.61Q129.66 24.26 130.23 25.37L130.41 25.55L130.74 25.53Z"/></svg>