<svg xmlns="http://www.w3.org/2000/svg" width="150" height="50" viewBox="0,0,150,50"><path fill="#111" d="M19.66 26.80L19.72 26.87L19.68 26.83Q21.43 26.94 23.26 26.94L23.22 26.90L23.33 27.02Q25.16 27.05 26.99 26.90L26.86 26.78L26.81 26.73Q26.70 27.38 26.70 28.10L26.71 28.11L26.81 29.54L26.76 29.50Q24.35 29.44 19.59 29.56L19.60 29.57L19.70 29.67Q19.62 35.53 18.48 40.52L18.50 40.53L18.60 40.63Q16.29 41.22 14.81 42.02L14.87 42.09L14.90 42.11Q17.20 35.27 16.93 28.15L16.86 28.08L16.86 28.08Q16.66 20.99 13.99 14.33L14.00 14.33L13.99 14.32Q17.68 16.88 22.44 17.10L22.41 17.07L22.36 17.02Q27.13 17.30 31.28 15.55L31.30 15.57L31.26 15.52Q30.90 16.27 30.67 17.07L30.74 17.14L30.26 18.75L30.16 18.66Q27.57 19.87 24.60 20.03L24.57 20.00L24.55 19.97Q21.69 20.19 18.83 19.47L18.83 19.46L18.86 19.50Q19.56 22.90 19.75 26.90ZM31.77 14.70L31.80 14.73L31.80 14.74Q27.35 17.02 22.48 16.72L22.37 16.62L22.43 16.67Q17.08 16.35 13.35 13.49L13.40 13.55L13.38 13.52Q16.30 20.52 16.60 28.13L16.54 28.06L16.51 28.03Q16.82 35.96 14.31 42.74L14.38 42.81L14.35 42.78Q14.90 42.26 16.27 41.61L16.43 41.77L16.34 41.68Q16.21 42.51 15.64 44.03L15.56 43.95L15.61 44.01Q17.89 42.89 20.78 42.40L20.84 42.46L20.91 42.52Q21.38 37.51 21.57 31.80L21.56 31.79L21.53 31.76Q23.46 31.87 25.29 31.87L25.28 31.86L25.19 31.77Q27.11 31.89 28.93 32.08L28.90 32.05L28.89 32.04Q28.75 31.07 28.75 30.15L28.83 30.23L28.76 28.25L28.80 28.29Q27.98 28.35 27.14 28.35L27.10 28.31L27.18 28.39Q27.18 27.51 27.26 26.49L27.15 26.38L27.18 26.41Q25.90 26.69 24.49 26.69L24.47 26.67L24.34 26.54Q22.96 26.56 21.59 26.52L21.70 26.64L21.51 24.31L21.53 24.33Q21.58 23.32 21.47 22.26L21.34 22.13L21.52 22.31Q22.43 22.31 23.42 22.31L23.49 22.38L23.40 22.28Q28.22 22.34 31.83 20.44L31.78 20.39L31.70 20.31Q32.27 18.56 33.19 15.93L33.18 15.92L33.27 16.01Q31.83 16.71 31.03 17.05L31.19 17.21L31.02 17.04Q31.27 16.27 31.77 14.70Z"/><path fill="#333" d="M71.03 29.13L71.04 29.14L71.02 29.12Q69.22 29.03 67.98 30.46L67.92 30.40L67.96 30.44Q66.64 31.79 66.45 33.69L66.44 33.68L66.52 33.76Q66.37 35.90 67.46 36.87L67.47 36.88L67.42 36.83Q68.46 37.75 70.55 37.64L70.53 37.61L70.54 37.63Q72.69 37.53 73.79 36.84L73.73 36.78L73.80 36.85Q74.87 35.67 74.87 34.11L74.93 34.18L74.94 34.18Q74.92 33.78 74.85 33.40L74.73 33.28L74.75 33.31Q74.93 31.74 73.83 30.39L73.87 30.43L73.73 30.29Q72.71 29.02 71.04 29.14ZM70.51 40.15L70.53 40.17L70.66 40.29Q66.29 40.31 64.89 39.55L64.89 39.55L64.85 39.51Q63.69 38.62 63.50 36.91L63.55 36.96L63.59 36.99Q63.61 36.37 63.65 35.65L63.64 35.64L63.60 35.59Q63.75 34.64 63.75 34.19L63.74 34.17L63.67 34.10Q64.16 31.28 64.31 30.59L64.38 30.67L64.32 30.60Q64.73 28.62 65.57 27.21L65.55 27.19L65.51 27.15Q68.24 22.83 74.17 16.48L74.28 16.58L74.21 16.52Q76.86 16.20 79.07 15.40L78.99 15.32L79.17 15.49Q72.27 22.91 69.07 27.13L69.00 27.06L69.05 27.11Q70.01 26.59 71.30 26.59L71.22 26.50L71.30 26.59Q74.56 26.53 76.08 28.47L76.23 28.62L76.23 28.62Q77.51 30.20 77.85 33.75L77.76 33.65L77.80 33.69Q77.93 34.47 77.93 35.08L77.89 35.04L77.92 35.06Q77.95 38.22 75.74 39.29L75.65 39.19L75.78 39.33Q74.50 39.87 70.62 40.25ZM72.80 42.55L72.93 42.68L72.95 42.70Q74.10 42.52 76.08 42.60L76.19 42.70L76.06 42.58Q77.80 42.75 79.36 42.03L79.35 42.02L79.36 42.02Q80.48 41.24 80.48 39.45L80.35 39.33L80.51 39.49Q80.50 38.99 80.33 38.00L80.26 37.92L80.27 37.93Q80.03 36.87 80.03 36.42L80.04 36.43L80.05 36.44Q79.33 31.87 77.73 29.97L77.72 29.96L77.66 29.90Q77.62 29.82 77.47 29.59L77.43 29.55L77.16 29.36L77.12 29.36L76.96 29.20Q76.62 28.71 76.02 27.76L76.14 27.89L76.13 27.87Q75.22 26.92 73.24 26.46L73.22 26.45L73.27 26.50Q74.39 24.80 77.36 21.11L77.43 21.18L81.56 15.79L81.69 15.92Q79.96 16.63 77.56 17.39L77.70 17.53L77.59 17.42Q78.60 16.52 80.39 14.54L80.34 14.49L80.39 14.54Q78.03 15.65 74.14 16.22L74.03 16.10L74.02 16.09Q68.30 21.98 65.33 26.93L65.33 26.93L65.43 27.03Q63.81 29.45 63.24 35.69L63.25 35.70L63.25 35.71Q63.16 36.26 63.24 37.21L63.27 37.24L63.32 37.29Q63.37 39.02 64.47 39.93L64.43 39.89L64.42 39.88Q64.83 40.06 64.79 40.10L64.82 40.13L64.74 40.05Q65.20 41.04 66.00 41.46L65.94 41.40L65.89 41.35Q67.40 42.10 69.34 42.29L69.28 42.22L69.31 42.26Q69.37 42.32 72.87 42.62ZM72.64 31.38L72.67 31.42L72.73 31.47Q73.18 31.24 74.13 31.74L74.23 31.84L74.13 31.73Q74.42 32.63 74.42 33.28L74.59 33.46L74.44 33.30Q74.62 35.16 73.67 36.15L73.81 36.29L73.74 36.22Q72.69 36.96 70.60 37.26L70.57 37.23L70.50 37.17Q69.20 37.31 68.67 37.05L68.61 36.99L68.62 37.00Q68.37 36.48 68.37 36.18L68.42 36.22L68.36 36.17Q68.22 32.98 71.15 31.69L71.08 31.61L71.09 31.63Q71.96 31.40 72.72 31.47Z"/><path fill="#333" d="M46.40 40.94L46.53 41.08L46.45 41.00Q42.28 29.75 37.14 24.76L37.07 24.69L37.21 24.83Q38.63 25.42 41.60 26.06L41.50 25.97L41.66 26.12Q45.13 29.97 47.68 36.63L47.75 36.70L47.72 36.67Q50.38 29.32 53.00 26.27L52.95 26.22L52.93 26.20Q54.86 26.04 57.30 25.35L57.27 25.32L57.34 25.40Q54.21 28.17 52.04 32.74L52.04 32.73L51.95 32.64Q51.57 33.29 48.18 40.90L48.33 41.05L48.27 41.00Q47.66 41.06 46.44 40.99ZM51.03 43.37L51.06 43.40L51.11 43.45Q54.35 31.04 58.91 26.36L58.98 26.43L57.57 27.00L57.47 26.90Q56.82 27.27 55.98 27.38L55.88 27.29L55.94 27.34Q56.40 26.92 57.21 26.05L57.13 25.97L57.18 26.01Q58.01 25.15 58.47 24.73L58.48 24.74L58.49 24.76Q56.28 25.39 52.85 25.89L52.80 25.84L52.71 25.75Q50.00 28.94 47.95 34.54L48.11 34.70L47.94 34.53Q46.41 30.45 44.58 27.97L44.58 27.97L43.95 27.87L44.06 27.99Q43.81 28.01 43.58 28.01L43.44 27.86L43.53 27.95Q43.33 27.63 41.61 25.58L41.51 25.47L41.62 25.58Q38.18 25.01 35.94 23.86L35.97 23.89L35.91 23.83Q42.09 29.60 46.09 41.33L46.20 41.44L47.05 41.30L47.05 41.30Q47.48 42.03 48.32 43.33L48.27 43.28L49.81 43.44L49.66 43.30Q50.34 43.26 50.99 43.33Z"/><path fill="#222" d="M103.68 37.91L103.62 37.86L103.66 37.89Q103.97 38.89 104.50 40.90L104.58 40.98L104.49 40.89Q100.20 39.50 95.60 39.77L95.71 39.88L95.60 39.77Q91.09 40.09 87.09 42.07L87.13 42.11L87.14 42.12Q87.44 41.51 87.48 41.58L87.42 41.53L87.30 41.41Q91.18 37.59 95.10 33.18L95.06 33.14L95.00 33.08Q99.53 28.20 100.71 23.52L100.55 23.36L100.59 23.40Q101.15 21.76 99.88 20.58L99.91 20.61L99.86 20.56Q98.51 19.31 96.73 19.46L96.80 19.54L96.78 19.51Q96.48 19.52 96.14 19.52L96.02 19.41L96.12 19.50Q94.54 19.45 93.28 20.36L93.36 20.44L93.18 20.26Q91.99 21.73 92.22 24.40L92.29 24.47L92.26 24.43Q90.35 23.98 89.14 23.52L89.19 23.58L89.23 23.61Q89.03 22.20 88.96 20.75L88.85 20.65L89.03 20.83Q88.83 19.07 89.44 17.92L89.54 18.03L89.53 18.02Q91.23 16.56 94.58 16.56L94.62 16.60L96.35 16.57L96.31 16.53Q98.69 16.66 99.64 16.78L99.61 16.75L99.66 16.80Q104.03 17.25 104.29 19.68L104.16 19.55L104.14 19.52Q104.23 20.11 104.15 20.91L104.15 20.90L104.29 21.05Q104.18 21.62 104.03 22.31L103.97 22.26L104.00 22.28Q102.32 30.35 94.75 37.20L94.85 37.30L94.81 37.27Q96.17 37.06 97.54 37.06L97.59 37.12L97.50 37.03Q100.73 37.02 103.58 37.82ZM103.01 16.99L103.09 17.07L103.05 17.03Q101.58 16.51 99.86 16.43L99.84 16.41L96.28 16.09L96.38 16.18Q91.94 15.94 89.74 17.04L89.66 16.96L89.71 17.01Q88.70 18.44 88.70 20.50L88.60 20.39L88.65 20.45Q88.72 21.21 89.03 24.02L88.98 23.97L88.94 23.94Q89.47 24.16 90.65 24.47L90.60 24.41L90.66 25.50L90.75 25.59Q90.64 25.97 90.71 26.51L90.76 26.55L90.65 26.45Q91.97 26.62 94.45 26.85L94.53 26.93L94.37 26.77Q94.40 26.46 94.40 26.12L94.47 26.19L94.47 26.19Q94.47 24.37 95.69 23.02L95.65 22.98L95.55 22.87Q96.91 21.66 98.69 21.77L98.67 21.75L98.67 21.74Q99.43 21.78 100.19 21.94L100.22 21.97L100.25 22.00Q100.24 22.25 100.32 22.67L100.40 22.75L100.44 22.79Q100.47 23.21 100.40 23.55L100.32 23.48L100.38 23.53Q99.12 28.29 94.70 33.12L94.60 33.02L94.58 33.00Q92.48 35.28 87.04 41.33L87.08 41.38L87.14 41.44Q86.92 42.25 86.58 42.82L86.51 42.75L86.55 42.78Q88.22 41.98 89.75 41.45L89.75 41.46L89.74 41.45Q88.84 41.84 87.89 43.33L88.08 43.52L88.05 43.49Q87.79 43.69 87.68 44.03L87.86 44.21L87.71 44.06Q92.73 42.15 98.21 42.34L98.21 42.34L98.02 42.15Q103.87 42.48 108.44 44.84L108.39 44.79L107.46 42.72L107.33 42.59Q106.70 41.27 106.43 40.47L106.37 40.41L106.46 40.50Q105.64 39.99 104.42 39.57L104.60 39.75L104.47 39.61Q104.34 38.92 103.96 37.55L103.98 37.56L104.03 37.61Q101.84 37.06 99.55 36.87L99.49 36.80L99.44 36.76Q104.12 32.19 105.65 23.93L105.79 24.07L105.86 21.06L105.97 21.17Q105.72 19.21 104.50 18.52L104.49 18.51L104.59 18.65L104.65 18.70Q104.55 18.57 104.48 18.57L104.48 18.58L104.37 18.46Q104.19 17.68 103.09 17.07Z"/><path fill="#333" d="M122.49 27.83L122.47 27.81L122.47 27.81Q118.77 27.53 117.66 30.88L117.69 30.91L117.72 30.94Q117.33 31.99 117.21 33.06L117.34 33.19L117.21 33.06Q117.15 35.25 118.14 36.58L117.99 36.42L117.99 36.43Q119.35 37.63 121.82 37.67L121.94 37.79L121.79 37.64Q123.74 37.80 125.15 36.65L125.15 36.66L125.14 36.65Q126.46 35.42 126.46 33.63L126.60 33.77L126.42 33.59Q126.60 33.42 126.52 33.04L126.40 32.92L126.40 32.92Q126.14 27.75 122.33 27.67ZM122.29 40.19L122.33 40.24L122.20 40.10Q118.40 40.34 116.61 38.32L116.77 38.48L116.63 38.34Q116.46 39.43 116.00 40.80L116.08 40.88L116.06 40.86Q114.09 41.59 112.83 42.16L112.68 42.00L112.78 42.10Q114.91 36.09 114.91 29.58L115.06 29.73L114.91 29.58Q114.95 21.32 111.52 13.47L111.58 13.53L111.52 13.47Q113.81 14.78 115.15 15.23L115.24 15.33L115.23 15.32Q117.24 21.86 117.40 27.69L117.40 27.69L117.39 27.68Q118.96 25.14 122.69 25.18L122.65 25.14L122.66 25.15Q125.99 25.27 127.47 27.14L127.39 27.06L127.41 27.08Q129.18 29.31 129.33 32.88L129.27 32.82L129.37 32.92Q129.33 33.98 129.25 35.58L129.24 35.57L129.27 35.60Q129.20 37.01 128.32 38.16L128.46 38.29L128.44 38.27Q126.72 40.02 122.38 40.29ZM127.69 42.62L127.78 42.71L127.74 42.67Q129.21 42.66 130.69 41.97L130.82 42.10L130.81 42.09Q131.85 40.73 131.89 38.79L131.92 38.82L131.89 38.79Q131.94 38.34 131.78 37.16L131.84 37.22L131.81 37.19Q131.59 36.36 131.48 35.45L131.54 35.51L131.58 35.55Q130.76 30.77 129.20 28.71L129.08 28.60L129.17 28.69Q129.19 28.66 128.39 27.79L128.47 27.87L128.44 27.84Q128.16 27.53 127.63 26.73L127.63 26.72L127.61 26.71Q125.99 24.74 122.64 24.78L122.65 24.79L122.58 24.73Q120.55 24.79 119.29 25.39L119.29 25.39L119.30 25.40Q119.00 20.91 118.39 17.71L118.44 17.77L118.44 17.76Q117.66 17.56 116.18 17.18L116.11 17.11L116.21 17.21Q116.06 16.45 115.60 15.00L115.67 15.07L115.52 14.92Q113.24 14.28 110.99 12.71L110.91 12.63L110.94 12.66Q114.68 20.82 114.68 29.61L114.68 29.61L114.73 29.67Q114.61 36.51 112.13 42.71L112.20 42.78L112.24 42.82Q112.89 42.44 114.22 41.87L114.18 41.83L114.15 41.80Q114.09 42.73 113.48 44.25L113.42 44.19L113.28 44.05Q115.41 43.29 118.19 42.76L118.09 42.65L118.52 40.88L118.42 40.78Q120.85 42.60 127.78 42.71ZM124.02 30.04L123.91 29.93L123.93 29.95Q125.06 30.06 125.59 30.44L125.48 30.32L125.66 30.50Q125.91 30.94 126.13 32.96L126.01 32.84L126.15 32.97Q126.38 34.88 125.12 36.19L125.16 36.23L125.00 36.07Q123.73 37.37 121.79 37.25L121.85 37.32L121.82 37.28Q121.01 37.54 119.53 37.05L119.52 37.05L119.39 36.92Q119.28 36.53 119.28 36.00L119.26 35.98L119.27 36.00Q119.28 32.92 120.84 31.32L120.71 31.19L120.74 31.25L120.75 31.26Q122.19 29.89 123.94 29.96Z"/></svg>