<svg xmlns="http://www.w3.org/2000/svg" width="150" height="50" viewBox="0,0,150,50"><path fill="#222" d="M128.30 37.86L128.26 37.83L128.25 37.82Q128.66 38.92 129.20 40.93L129.21 40.94L129.16 40.90Q124.89 39.52 120.29 39.79L120.29 39.79L120.34 39.84Q115.71 40.05 111.71 42.03L111.86 42.17L111.70 42.01Q111.99 41.39 112.03 41.46L112.08 41.52L112.00 41.43Q115.68 37.43 119.60 33.01L119.75 33.16L119.75 33.16Q124.06 28.07 125.24 23.39L125.34 23.48L125.31 23.45Q125.83 21.77 124.55 20.59L124.55 20.58L124.50 20.54Q123.27 19.39 121.48 19.55L121.44 19.51L121.43 19.49Q121.10 19.47 120.76 19.47L120.77 19.49L120.71 19.43Q119.26 19.50 118.01 20.41L117.98 20.38L117.98 20.39Q116.57 21.64 116.80 24.31L116.84 24.35L116.93 24.44Q115.08 24.03 113.86 23.58L113.93 23.65L113.97 23.68Q113.58 22.08 113.51 20.64L113.52 20.65L113.57 20.70Q113.55 19.12 114.16 17.98L114.05 17.87L114.19 18.01Q115.87 16.52 119.22 16.52L119.36 16.66L121.08 16.63L120.95 16.51Q123.33 16.65 124.29 16.76L124.25 16.73L124.24 16.71Q128.60 17.15 128.87 19.59L128.96 19.68L128.81 19.53Q128.85 20.07 128.77 20.87L128.84 20.94L128.96 21.05Q128.78 21.55 128.62 22.24L128.73 22.35L128.70 22.31Q127.09 30.45 119.51 37.30L119.41 37.19L119.38 37.17Q120.83 37.06 122.20 37.06L122.23 37.09L122.27 37.13Q125.43 37.05 128.29 37.85ZM127.70 17.01L127.71 17.02L127.70 17.02Q126.22 16.48 124.50 16.41L124.51 16.41L121.04 16.18L120.97 16.11Q116.58 15.90 114.37 17.01L114.30 16.93L114.40 17.03Q113.21 18.29 113.21 20.34L113.23 20.36L113.36 20.49Q113.37 21.18 113.67 24.00L113.64 23.97L113.65 23.98Q114.09 24.12 115.27 24.42L115.33 24.48L115.40 25.58L115.32 25.50Q115.28 25.95 115.35 26.48L115.44 26.56L115.49 26.61Q116.73 26.71 119.20 26.94L119.11 26.85L119.20 26.94Q119.00 26.40 119.00 26.05L119.10 26.15L119.17 26.22Q119.08 24.31 120.30 22.96L120.30 22.96L120.35 23.01Q121.49 21.58 123.28 21.69L123.34 21.75L123.31 21.72Q124.11 21.80 124.87 21.95L124.79 21.87L124.81 21.89Q124.99 22.33 125.06 22.75L125.11 22.80L124.98 22.67Q125.07 23.14 124.99 23.48L125.04 23.52L125.06 23.55Q123.72 28.22 119.30 33.05L119.26 33.02L119.34 33.10Q117.19 35.33 111.75 41.38L111.81 41.44L111.82 41.45Q111.63 42.29 111.29 42.86L111.20 42.77L111.23 42.80Q112.71 41.81 114.23 41.27L114.40 41.44L114.28 41.32Q113.55 41.89 112.60 43.37L112.69 43.47L112.58 43.35Q112.47 43.70 112.35 44.04L112.48 44.16L112.33 44.02Q117.30 42.06 122.78 42.25L122.83 42.29L122.68 42.15Q128.39 42.33 132.95 44.69L133.00 44.73L132.10 42.69L132.00 42.59Q131.29 41.20 131.03 40.40L131.09 40.46L131.09 40.47Q130.43 40.11 129.21 39.69L129.17 39.65L129.12 39.60Q129.00 38.91 128.62 37.54L128.55 37.47L128.68 37.60Q126.39 36.95 124.11 36.76L124.15 36.80L124.13 36.78Q128.74 32.14 130.27 23.88L130.29 23.90L130.61 21.14L130.62 21.15Q130.40 19.22 129.18 18.54L129.22 18.57L129.26 18.65L129.18 18.57Q129.12 18.47 129.05 18.47L129.19 18.62L129.05 18.48Q128.79 17.61 127.68 17.00Z"/><path fill="#222" d="M90.03 49.67L90.04 49.68L89.89 49.53Q92.91 45.78 95.81 39.58L95.83 39.59L95.80 39.57Q92.73 33.07 86.64 25.00L86.52 24.88L86.47 24.83Q88.50 26.10 91.28 26.75L91.20 26.67L91.20 26.67Q94.77 31.38 97.21 36.60L97.22 36.61L97.13 36.52Q99.44 31.37 102.53 26.96L102.48 26.91L102.40 26.83Q104.74 26.62 106.84 25.82L106.77 25.75L106.69 25.67Q103.38 29.60 99.92 37.02L99.95 37.05L97.04 42.98L97.04 42.98Q95.56 46.07 93.81 48.69L93.94 48.82L93.81 48.70Q91.35 49.01 89.90 49.54ZM96.22 51.03L96.12 50.93L96.25 51.05Q97.83 48.03 99.28 44.76L99.34 44.83L102.08 38.50L102.04 38.46Q105.56 30.44 108.87 26.45L108.97 26.54L108.94 26.52Q107.47 27.06 105.56 27.75L105.57 27.76L106.76 26.51L106.64 26.39Q107.14 25.63 107.75 24.95L107.90 25.10L107.83 25.02Q105.11 26.04 102.26 26.49L102.33 26.57L102.34 26.58Q99.55 30.46 97.61 34.91L97.54 34.83L97.68 34.97Q95.99 31.61 94.20 28.79L94.24 28.84L94.18 28.77Q93.93 28.71 93.57 28.67L93.60 28.71L93.56 28.66Q93.18 28.62 92.99 28.62L92.99 28.61L93.02 28.64Q92.23 27.36 91.28 26.22L91.36 26.30L91.41 26.34Q88.26 25.71 85.52 23.99L85.53 24.01L85.51 23.99Q91.69 31.92 95.38 39.53L95.36 39.51L95.33 39.48Q93.19 44.57 89.12 50.21L89.20 50.29L89.10 50.19Q89.91 49.90 90.71 49.74L90.73 49.77L92.41 49.46L92.33 49.38Q91.86 50.24 90.68 51.88L90.60 51.81L90.57 51.77Q92.82 51.14 96.10 50.91Z"/><path fill="#333" d="M71.05 29.15L71.06 29.16L70.92 29.02Q69.22 29.03 67.98 30.46L67.96 30.44L68.04 30.52Q66.73 31.87 66.54 33.78L66.42 33.66L66.58 33.81Q66.23 35.75 67.31 36.72L67.37 36.78L67.46 36.87Q68.38 37.67 70.47 37.56L70.63 37.71L70.47 37.55Q72.55 37.39 73.66 36.71L73.66 36.71L73.82 36.87Q74.81 35.61 74.81 34.05L74.99 34.23L74.98 34.22Q74.83 33.69 74.75 33.31L74.87 33.43L74.77 33.32Q74.87 31.67 73.76 30.32L73.83 30.39L73.75 30.30Q72.76 29.07 71.08 29.18ZM70.52 40.15L70.55 40.19L70.57 40.21Q66.17 40.18 64.76 39.42L64.82 39.48L64.76 39.42Q63.72 38.65 63.53 36.93L63.59 36.99L63.54 36.94Q63.53 36.29 63.57 35.57L63.65 35.64L63.64 35.63Q63.71 34.60 63.71 34.15L63.68 34.12L63.61 34.05Q64.20 31.32 64.35 30.63L64.26 30.54L64.23 30.51Q64.83 28.72 65.67 27.31L65.60 27.24L65.56 27.20Q68.23 22.83 74.17 16.47L74.30 16.60L74.25 16.55Q76.78 16.11 78.98 15.31L79.15 15.47L79.05 15.37Q72.21 22.85 69.02 27.08L69.05 27.11L69.11 27.17Q69.99 26.56 71.28 26.56L71.22 26.51L71.26 26.54Q74.61 26.58 76.13 28.52L76.24 28.63L76.25 28.64Q77.58 30.28 77.92 33.82L77.85 33.74L77.88 33.77Q77.95 34.49 77.95 35.09L77.96 35.11L77.97 35.11Q77.93 38.20 75.72 39.27L75.67 39.21L75.72 39.26Q74.51 39.89 70.63 40.27ZM72.89 42.64L72.95 42.70L72.90 42.65Q74.13 42.54 76.11 42.62L76.16 42.67L76.09 42.60Q77.70 42.66 79.26 41.93L79.28 41.94L79.33 42.00Q80.50 41.26 80.50 39.48L80.36 39.34L80.36 39.33Q80.37 38.85 80.20 37.86L80.35 38.01L80.33 38.00Q80.10 36.95 80.10 36.49L80.13 36.51L80.14 36.53Q79.31 31.85 77.71 29.95L77.66 29.89L77.70 29.94Q77.50 29.70 77.35 29.47L77.43 29.55L77.05 29.25L77.00 29.24L77.10 29.34Q76.68 28.76 76.07 27.81L76.09 27.83L76.16 27.90Q75.12 26.82 73.14 26.36L73.19 26.42L73.16 26.39Q74.43 24.84 77.40 21.15L77.47 21.21L81.61 15.84L81.57 15.80Q79.97 16.64 77.57 17.40L77.56 17.39L77.70 17.53Q78.48 16.41 80.27 14.43L80.32 14.47L80.39 14.55Q77.90 15.52 74.01 16.09L74.16 16.23L74.10 16.18Q68.25 21.93 65.28 26.88L65.42 27.02L65.38 26.98Q63.82 29.46 63.25 35.70L63.37 35.82L63.37 35.82Q63.21 36.30 63.28 37.26L63.26 37.23L63.25 37.23Q63.36 39.01 64.46 39.92L64.47 39.93L64.50 39.96Q64.79 40.02 64.75 40.06L64.86 40.17L64.84 40.15Q65.28 41.12 66.07 41.53L65.95 41.41L65.92 41.38Q67.45 42.15 69.40 42.34L69.29 42.23L69.28 42.23Q69.36 42.31 72.86 42.61ZM72.72 31.47L72.75 31.49L72.57 31.32Q73.15 31.22 74.11 31.71L74.24 31.85L74.16 31.77Q74.51 32.72 74.51 33.37L74.55 33.41L74.53 33.40Q74.78 35.32 73.83 36.31L73.66 36.14L73.82 36.30Q72.63 36.90 70.54 37.21L70.67 37.33L70.64 37.31Q69.08 37.19 68.54 36.92L68.56 36.94L68.61 36.99Q68.35 36.46 68.35 36.16L68.47 36.27L68.42 36.23Q68.29 33.05 71.22 31.76L71.16 31.70L71.06 31.60Q71.81 31.24 72.57 31.32Z"/><path fill="#333" d="M55.02 30.23L55.22 30.43L55.04 30.25Q55.25 29.97 55.21 29.55L55.26 29.59L55.22 29.55Q55.09 29.12 54.78 28.93L54.90 29.04L54.81 28.95Q54.08 28.37 53.20 28.53L53.12 28.44L53.13 28.45Q52.23 28.62 50.59 29.72L50.54 29.67L50.55 29.68Q49.18 30.63 49.18 31.81L49.04 31.67L49.19 31.82Q49.18 33.07 49.18 36.38L49.10 36.30L49.01 36.21Q49.10 38.89 49.25 40.91L49.29 40.94L49.21 40.87Q47.52 40.89 47.52 40.89L47.56 40.92L47.43 40.80Q46.47 40.79 45.75 40.87L45.77 40.89L45.77 40.89Q46.21 38.40 46.29 36.16L46.21 36.08L46.22 36.08Q46.52 31.59 45.87 30.29L45.78 30.20L45.83 30.25Q45.56 29.68 44.99 29.38L44.98 29.36L45.05 29.43Q44.20 28.70 42.64 28.59L42.52 28.47L42.64 28.58Q40.63 28.36 40.10 29.96L40.01 29.88L40.10 29.97Q39.81 30.32 39.92 30.82L39.98 30.87L39.94 30.83Q40.61 33.60 40.27 36.38L40.20 36.31L40.36 36.47Q40.03 39.26 38.62 41.70L38.59 41.67L38.54 41.61Q37.58 41.84 35.49 42.26L35.49 42.26L35.46 42.23Q37.87 38.89 37.87 34.59L37.88 34.60L38.00 34.72Q37.96 28.82 33.93 24.60L33.99 24.66L33.86 24.53Q34.70 24.91 35.65 25.14L35.58 25.07L37.43 25.58L37.35 25.50Q37.78 26.09 38.66 27.76L38.78 27.88L38.73 27.84Q38.94 25.99 41.38 25.95L41.26 25.84L41.32 25.89Q41.46 25.84 42.45 25.92L42.37 25.84L42.43 25.90Q47.37 26.16 48.51 28.98L48.69 29.16L48.71 29.17Q50.29 26.37 55.31 25.84L55.33 25.86L55.32 25.85Q56.12 25.77 56.99 25.88L56.98 25.88L57.01 25.90Q59.16 26.04 59.01 27.60L59.00 27.59L59.06 27.64Q59.01 28.32 58.75 29.09L58.72 29.06L58.56 28.90Q57.29 32.04 57.51 35.58L57.53 35.59L57.43 35.49Q57.70 39.04 59.60 41.85L59.54 41.80L59.63 41.88Q57.83 41.42 56.01 41.19L56.00 41.18L56.12 41.30Q54.81 38.66 54.62 35.88L54.57 35.84L54.57 35.84Q54.39 32.98 55.03 30.24ZM55.76 41.55L55.83 41.62L55.83 41.62Q56.59 41.74 57.93 41.93L57.96 41.97L57.88 41.88Q58.34 42.53 59.48 43.94L59.64 44.10L59.55 44.01Q62.46 44.57 64.56 45.21L64.67 45.32L64.55 45.20Q59.53 41.29 59.26 34.78L59.32 34.83L59.22 34.73Q59.22 32.72 59.83 30.82L59.87 30.85L59.93 30.92Q60.00 29.88 60.00 29.16L59.99 29.15L59.98 29.14Q60.05 28.30 59.45 27.73L59.41 27.69L59.34 27.58L59.43 27.68Q59.59 27.26 59.51 26.77L59.52 26.77L59.40 26.66Q59.22 26.05 58.76 25.79L58.76 25.78L58.80 25.83Q58.09 25.30 57.21 25.26L57.38 25.43L57.27 25.32Q54.44 25.23 51.77 26.18L51.86 26.27L51.77 26.18Q49.89 26.97 48.71 28.38L48.67 28.34L48.61 28.28Q47.01 25.76 42.17 25.41L42.34 25.58L42.15 25.40Q41.47 25.36 41.05 25.36L41.18 25.49L41.12 25.43Q39.07 25.44 38.46 26.69L38.39 26.62L38.48 26.70Q38.25 26.29 37.56 25.22L37.57 25.23L37.52 25.18Q35.10 24.70 33.12 24.05L33.03 23.96L33.02 23.95Q37.68 28.34 37.68 34.63L37.72 34.67L37.72 34.66Q37.68 39.34 34.82 42.81L34.78 42.76L34.75 42.74Q35.32 42.70 35.82 42.63L35.78 42.59L36.74 42.40L36.68 42.34Q36.07 43.48 34.96 44.70L34.98 44.71L34.85 44.59Q36.54 44.34 39.67 43.73L39.80 43.87L39.66 43.73Q42.42 39.71 42.42 34.80L42.30 34.68L42.36 34.74Q42.41 33.99 42.33 33.15L42.24 33.06L42.35 33.16Q42.21 32.34 43.20 31.54L43.12 31.46L43.25 31.63L43.12 31.50Q43.79 31.11 44.97 30.99L44.88 30.90L44.92 30.94Q45.35 30.96 45.66 30.96L45.68 30.98L45.71 31.20L45.75 31.24Q45.97 33.89 45.85 36.25L45.87 36.27L46.03 36.42Q45.77 38.57 45.28 41.24L45.43 41.39L45.24 41.20Q46.30 41.23 46.30 41.23L46.39 41.32L46.28 41.21Q47.70 41.18 47.35 41.18L47.36 41.19L47.36 41.19Q47.45 41.78 47.42 42.23L47.47 42.29L47.49 42.30Q47.34 42.65 47.34 43.15L47.40 43.21L49.81 43.14L49.90 43.23Q51.20 43.28 52.46 43.35L52.40 43.29L52.42 43.31Q50.78 39.51 50.97 33.57L51.01 33.60L51.05 33.64Q51.09 32.55 52.27 31.78L52.17 31.68L52.31 31.83Q53.10 30.90 54.36 30.71L54.39 30.75L54.69 30.73L54.72 30.77Q54.32 32.73 54.32 34.71L54.35 34.74L54.24 34.63Q54.37 38.52 55.89 41.68ZM50.29 30.07L50.51 30.06L50.42 30.31L50.26 30.04Z"/><path fill="#444" d="M19.70 26.84L19.78 26.92L19.60 26.74Q21.40 26.92 23.23 26.92L23.32 27.00L23.39 27.08Q25.11 27.01 26.94 26.85L26.82 26.74L26.99 26.90Q26.70 27.38 26.70 28.10L26.82 28.22L26.82 29.55L26.84 29.57Q24.46 29.55 19.70 29.66L19.69 29.66L19.73 29.69Q19.72 35.62 18.58 40.61L18.61 40.64L18.45 40.48Q16.34 41.27 14.86 42.07L14.90 42.11L14.90 42.11Q17.11 35.18 16.84 28.06L16.99 28.22L16.83 28.05Q16.62 20.95 13.96 14.29L13.88 14.22L13.99 14.32Q17.75 16.94 22.51 17.17L22.49 17.15L22.44 17.10Q26.98 17.15 31.13 15.40L31.13 15.40L31.31 15.58Q30.87 16.24 30.64 17.04L30.79 17.19L30.27 18.77L30.26 18.76Q27.55 19.85 24.58 20.00L24.46 19.88L24.56 19.98Q21.72 20.22 18.86 19.50L18.85 19.49L18.83 19.47Q19.52 22.87 19.72 26.86ZM31.90 14.84L31.96 14.90L31.77 14.70Q27.16 16.83 22.28 16.53L22.29 16.53L22.34 16.58Q17.06 16.33 13.33 13.47L13.31 13.45L13.31 13.45Q16.20 20.42 16.51 28.03L16.61 28.13L16.54 28.06Q16.82 35.96 14.31 42.73L14.33 42.76L14.43 42.86Q15.09 42.46 16.47 41.81L16.35 41.70L16.45 41.79Q16.18 42.48 15.61 44.00L15.53 43.92L15.62 44.01Q18.03 43.03 20.92 42.54L20.87 42.48L20.79 42.40Q21.43 37.56 21.62 31.85L21.61 31.84L21.70 31.93Q23.36 31.76 25.18 31.76L25.18 31.75L25.21 31.78Q27.08 31.87 28.91 32.06L28.86 32.01L28.85 32.00Q28.82 31.13 28.82 30.22L28.69 30.09L28.66 28.16L28.66 28.15Q27.93 28.30 27.09 28.30L27.10 28.31L27.07 28.28Q27.16 27.49 27.24 26.47L27.23 26.46L27.28 26.51Q25.83 26.62 24.42 26.62L24.43 26.62L24.44 26.64Q23.08 26.69 21.71 26.65L21.70 26.64L21.49 24.30L21.67 24.47Q21.48 23.22 21.36 22.15L21.42 22.21L21.52 22.31Q22.35 22.23 23.34 22.23L23.42 22.30L23.38 22.27Q28.15 22.27 31.76 20.37L31.82 20.43L31.83 20.43Q32.27 18.56 33.18 15.93L33.16 15.90L33.20 15.94Q31.91 16.79 31.11 17.13L31.07 17.08L31.06 17.08Q31.28 16.27 31.78 14.71Z"/></svg>