<svg xmlns="http://www.w3.org/2000/svg" width="150" height="50" viewBox="0,0,150,50"><path fill="#111" d="M55.11 30.32L55.13 30.34L55.20 30.41Q55.35 30.06 55.31 29.64L55.20 29.54L55.15 29.49Q55.02 29.05 54.72 28.86L54.85 28.99L54.88 29.02Q54.10 28.39 53.22 28.55L53.18 28.50L53.28 28.61Q52.09 28.48 50.46 29.59L50.58 29.71L50.55 29.69Q49.07 30.52 49.07 31.70L49.03 31.66L49.10 31.73Q49.06 32.95 49.06 36.26L49.04 36.24L49.17 36.37Q49.12 38.91 49.27 40.93L49.18 40.83L49.19 40.85Q47.49 40.86 47.49 40.86L47.54 40.91L47.53 40.89Q46.52 40.84 45.80 40.92L45.71 40.83L45.79 40.91Q46.24 38.43 46.32 36.19L46.28 36.15L46.25 36.12Q46.34 31.41 45.69 30.12L45.74 30.17L45.79 30.21Q45.50 29.62 44.93 29.32L44.88 29.26L44.96 29.34Q44.20 28.70 42.64 28.58L42.60 28.54L42.49 28.43Q40.46 28.19 39.92 29.79L40.00 29.87L40.02 29.89Q39.83 30.35 39.95 30.84L40.05 30.94L40.00 30.90Q40.63 33.62 40.28 36.39L40.35 36.46L40.24 36.35Q39.96 39.19 38.55 41.63L38.51 41.59L38.60 41.68Q37.48 41.73 35.38 42.15L35.42 42.19L35.45 42.22Q37.96 38.98 37.96 34.68L37.89 34.61L37.88 34.60Q38.00 28.86 33.97 24.63L33.99 24.66L33.91 24.57Q34.59 24.80 35.54 25.02L35.55 25.03L37.30 25.45L37.44 25.59Q37.81 26.11 38.68 27.79L38.78 27.88L38.62 27.73Q38.92 25.97 41.36 25.93L41.24 25.82L41.25 25.82Q41.37 25.75 42.36 25.83L42.53 26.00L42.45 25.92Q47.50 26.29 48.64 29.10L48.64 29.10L48.63 29.09Q50.28 26.37 55.31 25.83L55.32 25.85L55.37 25.89Q55.99 25.64 56.87 25.76L56.93 25.82L56.99 25.88Q59.14 26.02 58.99 27.58L59.01 27.59L59.02 27.61Q58.88 28.19 58.61 28.95L58.56 28.90L58.60 28.94Q57.29 32.05 57.52 35.59L57.44 35.51L57.43 35.50Q57.76 39.10 59.66 41.91L59.64 41.89L59.53 41.79Q57.88 41.47 56.05 41.24L56.02 41.20L56.13 41.32Q54.94 38.79 54.75 36.01L54.59 35.85L54.64 35.91Q54.55 33.15 55.20 30.41ZM55.88 41.68L55.91 41.70L55.75 41.54Q56.49 41.63 57.82 41.82L57.86 41.87L57.94 41.94Q58.49 42.68 59.63 44.09L59.50 43.97L59.62 44.08Q62.42 44.52 64.52 45.17L64.52 45.17L64.54 45.20Q59.59 41.34 59.32 34.83L59.33 34.84L59.38 34.89Q59.20 32.70 59.81 30.79L59.83 30.81L59.89 30.88Q60.11 29.99 60.11 29.26L60.07 29.23L60.02 29.18Q59.98 28.23 59.37 27.66L59.41 27.69L59.40 27.65L59.37 27.61Q59.42 27.09 59.34 26.60L59.38 26.63L59.42 26.67Q59.39 26.23 58.94 25.96L58.76 25.79L58.95 25.97Q58.20 25.42 57.33 25.38L57.32 25.38L57.28 25.33Q54.47 25.26 51.81 26.22L51.77 26.18L51.83 26.24Q49.82 26.90 48.64 28.31L48.71 28.38L48.63 28.29Q47.10 25.85 42.27 25.51L42.18 25.42L42.24 25.48Q41.54 25.43 41.12 25.43L41.06 25.37L41.13 25.44Q39.00 25.37 38.40 26.63L38.53 26.76L38.49 26.72Q38.12 26.16 37.44 25.09L37.49 25.15L37.58 25.24Q35.06 24.66 33.08 24.01L33.07 24.01L33.10 24.03Q37.67 28.34 37.67 34.62L37.62 34.56L37.74 34.69Q37.74 39.41 34.89 42.88L34.85 42.84L34.83 42.81Q35.23 42.61 35.72 42.53L35.79 42.59L36.66 42.32L36.70 42.36Q36.12 43.54 35.02 44.76L34.96 44.70L34.93 44.66Q36.55 44.35 39.67 43.74L39.63 43.70L39.77 43.83Q42.34 39.63 42.34 34.72L42.31 34.69L42.45 34.83Q42.32 33.90 42.25 33.06L42.33 33.15L42.24 33.06Q42.14 32.27 43.13 31.47L43.11 31.45L43.30 31.68L43.17 31.55Q43.83 31.15 45.01 31.04L44.96 30.98L44.86 30.88Q45.43 31.03 45.73 31.03L45.80 31.10L45.70 31.19L45.77 31.26Q46.14 34.06 46.02 36.42L45.99 36.39L45.95 36.35Q45.82 38.62 45.33 41.28L45.36 41.32L45.30 41.26Q46.34 41.27 46.34 41.27L46.43 41.36L46.27 41.20Q47.82 41.30 47.48 41.30L47.38 41.20L47.52 41.35Q47.42 41.74 47.38 42.20L47.38 42.20L47.53 42.34Q47.31 42.62 47.31 43.11L47.33 43.14L49.87 43.20L49.89 43.22Q51.17 43.24 52.42 43.32L52.40 43.29L52.34 43.24Q50.84 39.56 51.03 33.63L51.12 33.72L51.06 33.65Q51.00 32.46 52.19 31.70L52.27 31.79L52.28 31.79Q53.11 30.91 54.37 30.72L54.43 30.78L54.64 30.69L54.80 30.85Q54.37 32.77 54.37 34.75L54.23 34.61L54.31 34.69Q54.33 38.49 55.85 41.65ZM50.28 30.06L50.45 30.00L50.43 30.32L50.45 30.23Z"/><path fill="#444" d="M71.05 29.15L71.11 29.21L71.12 29.22Q69.25 29.22 68.03 30.55L67.97 30.49L68.10 30.62Q66.78 31.85 66.63 33.75L66.69 33.81L66.59 33.72Q66.39 35.84 67.61 36.85L67.67 36.90L67.57 36.80Q68.79 37.82 70.92 37.74L71.03 37.85L71.01 37.83Q73.41 37.76 74.37 36.81L74.30 36.74L74.33 36.77Q75.32 35.29 75.21 33.46L75.29 33.55L75.11 33.36Q75.07 31.57 73.98 30.37L74.06 30.45L74.03 30.42Q72.92 29.19 71.09 29.19ZM71.04 19.74L71.03 19.73L71.11 19.80Q69.65 19.65 68.32 20.14L68.31 20.13L68.29 20.11Q67.04 20.96 67.27 22.82L67.17 22.72L67.33 22.88Q67.83 26.61 71.18 26.61L71.00 26.43L71.17 26.60Q72.66 26.72 73.65 25.58L73.54 25.47L73.57 25.51Q74.58 24.39 74.62 22.82L74.58 22.78L74.76 22.96Q74.72 21.09 73.99 20.48L74.10 20.59L74.07 20.56Q72.42 19.75 71.13 19.83ZM70.84 40.36L70.71 40.23L67.65 40.22L67.64 40.21Q66.27 40.36 64.94 39.48L64.82 39.36L64.98 39.53Q63.54 38.31 63.69 35.46L63.71 35.48L63.68 35.45Q64.21 28.67 67.83 27.68L67.65 27.50L67.73 27.58Q65.55 26.77 64.22 21.41L64.11 21.29L64.08 21.27Q63.85 19.97 63.92 19.17L63.81 19.05L63.85 19.09Q64.08 16.89 67.78 16.85L67.78 16.86L67.93 17.00Q72.06 16.83 73.50 17.02L73.59 17.11L73.61 17.13Q77.38 17.59 77.84 19.61L77.92 19.69L77.85 19.61Q78.01 20.27 78.01 20.66L77.99 20.63L77.87 20.51Q77.88 21.21 77.69 21.82L77.65 21.78L77.78 21.90Q77.09 26.05 74.16 27.57L74.27 27.69L74.30 27.72Q77.79 28.50 78.28 33.79L78.12 33.63L78.13 33.65Q78.22 33.88 78.26 35.18L78.25 35.17L78.24 35.16Q78.34 37.93 76.74 38.99L76.76 39.01L76.63 38.87Q75.39 39.88 70.82 40.34ZM73.00 42.56L73.02 42.58L76.49 42.78L76.38 42.66Q78.16 42.80 79.68 42.08L79.67 42.07L79.68 42.08Q80.80 41.34 80.88 39.47L80.89 39.48L80.83 39.43Q80.90 38.36 80.52 36.41L80.52 36.41L80.53 36.42Q79.70 31.86 77.61 30.00L77.46 29.85L77.28 29.48L77.05 29.17L77.03 29.04L77.00 29.01Q78.68 27.68 79.59 23.53L79.60 23.53L79.53 23.46Q79.55 23.11 79.62 22.27L79.68 22.32L79.63 22.28Q79.75 21.63 79.67 21.02L79.53 20.88L79.64 20.99Q79.54 19.59 78.36 19.10L78.27 19.01L78.25 18.95L78.10 18.88L78.20 18.98Q77.79 18.11 76.61 17.31L76.59 17.29L76.76 17.43L76.82 17.48Q74.76 16.71 70.68 16.52L70.70 16.54L70.67 16.51Q69.11 16.39 67.73 16.51L67.73 16.50L67.75 16.52Q66.96 16.57 65.67 16.73L65.69 16.75L65.57 16.63Q63.69 17.07 63.46 18.71L63.54 18.78L63.52 18.77Q63.50 19.28 63.54 20.08L63.57 20.11L63.47 20.01Q63.52 20.48 64.09 22.84L64.12 22.86L64.17 22.91Q64.97 26.16 66.72 27.49L66.67 27.44L66.86 27.62L66.81 27.57Q64.03 28.86 63.49 34.04L63.48 34.03L63.55 34.10Q63.35 36.30 63.35 37.21L63.34 37.20L63.37 37.23Q63.28 38.85 64.46 39.77L64.47 39.78L64.57 39.88Q64.70 39.97 64.97 40.16L64.89 40.08L65.00 40.19Q65.97 42.42 73.09 42.65ZM72.81 31.63L72.65 31.47L72.82 31.64Q73.55 31.39 74.43 31.84L74.58 32.00L74.58 32.00Q74.97 32.99 74.93 33.52L74.86 33.45L74.91 33.51Q74.82 33.68 74.82 33.98L74.98 34.14L74.90 34.07Q74.82 36.35 72.54 37.19L72.52 37.17L72.69 37.34Q71.80 37.55 71.00 37.43L70.96 37.40L70.97 37.41Q69.93 37.58 68.79 37.13L68.75 37.09L68.86 37.20Q68.57 36.53 68.64 35.54L68.50 35.40L68.52 35.41Q68.68 33.82 69.87 32.60L70.03 32.75L69.87 32.59Q71.14 31.45 72.74 31.56ZM72.90 22.01L72.89 22.00L72.95 22.07Q73.80 22.00 74.33 22.15L74.21 22.03L74.26 22.88L74.34 22.96Q74.29 24.32 73.38 25.33L73.47 25.42L73.47 25.42Q72.54 26.41 71.17 26.22L71.09 26.14L71.13 26.19Q70.02 26.07 69.60 25.84L69.77 26.01L69.60 25.84Q69.72 25.73 69.61 25.04L69.59 25.02L69.62 25.06Q69.24 23.54 70.46 22.70L70.46 22.70L70.52 22.76Q71.60 22.08 73.01 22.12Z"/><path fill="#222" d="M21.76 29.19L21.76 29.19L21.61 29.05Q19.80 28.95 18.56 30.37L18.63 30.44L18.58 30.39Q17.35 31.82 17.16 33.73L17.10 33.67L17.20 33.77Q17.05 35.91 18.14 36.88L18.06 36.79L18.01 36.75Q19.22 37.85 21.31 37.73L21.27 37.69L21.26 37.68Q23.22 37.39 24.32 36.70L24.41 36.79L24.41 36.79Q25.61 35.75 25.61 34.19L25.64 34.22L25.50 34.08Q25.55 33.75 25.48 33.37L25.50 33.39L25.48 33.37Q25.54 31.68 24.44 30.33L24.39 30.28L24.38 30.27Q23.30 28.95 21.63 29.06ZM21.29 40.26L21.32 40.29L21.29 40.26Q16.85 40.20 15.44 39.44L15.53 39.52L15.52 39.51Q14.45 38.71 14.26 36.99L14.24 36.98L14.30 37.04Q14.21 36.30 14.25 35.58L14.18 35.51L14.31 35.64Q14.43 34.65 14.43 34.19L14.40 34.17L14.29 34.05Q14.88 31.33 15.03 30.65L14.90 30.52L14.98 30.59Q15.46 28.68 16.30 27.27L16.25 27.23L16.18 27.16Q18.92 22.85 24.86 16.49L24.89 16.52L24.96 16.60Q27.49 16.16 29.70 15.36L29.78 15.43L29.79 15.45Q22.81 22.78 19.61 27.01L19.74 27.13L19.64 27.03Q20.64 26.55 21.94 26.55L21.94 26.56L21.89 26.50Q25.29 26.60 26.82 28.54L26.75 28.48L26.77 28.49Q28.08 30.10 28.42 33.64L28.41 33.63L28.50 33.73Q28.53 34.41 28.53 35.01L28.61 35.09L28.54 35.02Q28.59 38.20 26.38 39.26L26.35 39.23L26.44 39.31Q25.21 39.91 21.32 40.29ZM23.57 42.65L23.57 42.65L23.58 42.66Q24.85 42.60 26.83 42.68L26.73 42.58L26.92 42.76Q28.44 42.73 30.00 42.01L29.99 41.99L29.93 41.93Q31.09 41.19 31.09 39.40L31.21 39.52L31.09 39.40Q31.16 38.97 30.98 37.98L30.91 37.90L31.03 38.03Q30.73 36.91 30.73 36.45L30.83 36.55L30.70 36.42Q29.98 31.86 28.38 29.95L28.28 29.85L28.31 29.88Q28.24 29.77 28.09 29.54L28.01 29.46L27.85 29.39L27.76 29.33L27.75 29.32Q27.27 28.69 26.66 27.74L26.79 27.87L26.80 27.87Q25.87 26.90 23.89 26.45L23.80 26.36L23.87 26.43Q25.09 24.83 28.06 21.14L28.09 21.17L32.35 15.91L32.26 15.83Q30.65 16.65 28.25 17.41L28.21 17.37L28.31 17.47Q29.19 16.45 30.98 14.47L30.99 14.47L31.10 14.59Q28.67 15.62 24.78 16.19L24.75 16.16L24.78 16.19Q19.04 22.06 16.07 27.01L15.96 26.89L16.11 27.04Q14.48 29.45 13.91 35.69L13.98 35.77L14.01 35.80Q13.91 36.34 13.99 37.30L13.90 37.21L14.04 37.35Q14.07 39.05 15.17 39.96L15.17 39.96L15.15 39.94Q15.61 40.17 15.57 40.21L15.39 40.03L15.41 40.05Q15.81 40.98 16.61 41.40L16.69 41.48L16.55 41.35Q18.07 42.11 20.02 42.30L19.96 42.24L19.99 42.28Q20.07 42.35 23.57 42.65ZM23.36 31.44L23.36 31.44L23.26 31.34Q23.90 31.30 24.85 31.79L24.80 31.74L24.93 31.87Q25.22 32.77 25.22 33.42L25.22 33.41L25.13 33.33Q25.32 35.19 24.37 36.18L24.35 36.16L24.34 36.15Q23.28 36.88 21.19 37.19L21.24 37.24L21.25 37.25Q19.87 37.32 19.34 37.05L19.26 36.97L19.31 37.02Q19.01 36.45 19.01 36.15L19.10 36.24L19.04 36.18Q18.86 32.95 21.79 31.66L21.75 31.62L21.80 31.67Q22.47 31.24 23.23 31.31Z"/><path fill="#333" d="M100.03 29.53L100.09 29.58L100.01 29.50Q98.84 28.76 98.20 28.79L98.18 28.78L98.25 28.85Q96.84 28.89 95.80 29.90L95.76 29.86L95.75 29.84Q94.64 30.80 94.76 32.17L94.92 32.33L94.90 32.31Q95.05 36.50 94.18 41.03L94.15 41.01L94.25 41.10Q91.97 41.48 90.86 42.02L90.84 42.00L90.89 42.05Q92.49 37.97 92.26 33.52L92.15 33.41L92.25 33.51Q91.93 28.93 90.22 24.85L90.17 24.81L90.33 24.97Q91.49 25.67 93.78 26.32L93.65 26.19L94.31 28.98L94.32 28.99Q95.01 26.10 99.27 26.10L99.14 25.97L99.16 25.99Q99.54 25.92 99.85 25.92L99.82 25.89L99.95 26.02Q101.15 25.92 102.40 26.61L102.42 26.62L102.35 26.55Q101.04 27.91 99.90 29.39ZM101.69 31.57L101.80 31.52L101.71 31.43Q102.68 30.34 104.35 27.91L104.17 27.72L104.27 27.82Q103.84 27.51 102.32 27.25L102.28 27.20L102.21 27.14Q102.55 26.83 103.01 26.22L102.99 26.20L103.17 26.38Q101.19 25.39 99.25 25.58L99.24 25.57L99.17 25.50Q97.34 25.81 96.62 26.08L96.49 25.95L96.62 26.08Q95.21 26.49 94.41 27.59L94.39 27.58L94.18 26.72L94.06 25.95L93.92 25.81Q91.58 25.45 89.60 24.11L89.62 24.14L89.55 24.06Q91.64 28.41 91.87 33.28L92.01 33.42L91.97 33.38Q92.27 38.36 90.52 42.89L90.36 42.73L90.47 42.84Q91.45 42.26 92.33 41.96L92.31 41.94L92.47 42.11Q92.10 43.11 91.61 44.17L91.57 44.14L91.60 44.16Q94.48 43.35 96.61 43.24L96.67 43.30L96.82 38.72L96.79 38.69Q96.98 36.52 96.98 34.28L97.01 34.31L96.90 34.20Q96.86 32.98 97.77 32.01L97.84 32.07L97.91 32.15Q98.70 31.05 99.85 30.98L99.92 31.05L99.91 31.04Q100.48 30.85 101.20 31.53L101.22 31.55L101.54 31.41ZM96.59 29.66L96.61 29.61L96.70 29.81L96.65 29.72Z"/><path fill="#222" d="M124.28 27.20L124.19 27.12L124.23 27.16Q125.03 27.16 126.44 27.00L126.41 26.97L126.42 26.99Q126.32 27.57 126.32 28.21L126.38 28.28L126.42 29.57L126.40 29.55Q125.54 29.53 124.70 29.60L124.69 29.59L124.67 29.57Q123.95 29.73 123.11 29.69L123.13 29.70L123.13 29.71Q120.16 35.76 116.74 40.37L116.72 40.35L116.72 40.35Q114.35 41.15 113.06 41.76L112.99 41.68L113.02 41.72Q117.07 35.94 120.11 29.66L120.16 29.71L117.60 29.77L117.42 29.59Q117.51 28.35 117.39 27.02L117.37 26.99L117.46 27.09Q119.38 27.25 121.44 27.25L121.43 27.25L123.33 23.55L123.21 23.43Q124.23 21.55 125.44 19.95L125.51 20.02L125.42 19.93Q123.81 20.03 122.21 20.03L122.23 20.05L122.34 20.16Q116.24 20.16 112.48 17.95L112.40 17.88L111.86 16.26L111.81 16.21Q111.41 15.32 111.03 14.45L111.10 14.52L111.14 14.56Q115.46 17.17 121.17 17.39L121.16 17.38L121.16 17.39Q126.22 17.53 131.36 15.55L131.43 15.63L131.50 15.69Q131.28 16.08 130.78 16.96L130.68 16.85L130.75 16.93Q127.01 21.56 124.15 27.08ZM132.38 18.32L132.36 18.30L133.34 16.27L133.40 16.34Q132.28 16.66 130.60 17.38L130.69 17.47L130.91 17.20L130.84 17.13Q130.96 16.98 131.08 16.87L131.19 16.98L131.15 16.94Q131.56 16.28 132.28 14.95L132.19 14.86L132.13 14.80Q126.85 17.13 121.10 16.91L121.06 16.87L121.13 16.93Q115.12 16.67 110.36 13.70L110.31 13.65L110.44 13.78Q111.33 15.51 112.17 18.17L112.24 18.25L112.17 18.18Q113.38 18.93 114.18 19.23L114.13 19.18L114.18 19.24Q114.28 19.53 114.74 21.39L114.73 21.38L114.76 21.41Q117.95 22.70 123.47 22.55L123.34 22.42L123.31 22.39Q123.17 23.12 121.19 26.89L121.21 26.91L121.22 26.92Q119.06 26.81 117.08 26.62L117.05 26.60L117.12 26.67Q117.19 27.50 117.19 28.38L117.17 28.35L117.12 30.02L118.93 30.15L118.76 31.39L118.74 31.37Q115.00 38.94 112.22 42.52L112.05 42.34L112.21 42.51Q113.64 41.58 115.28 41.08L115.42 41.22L115.29 41.10Q114.71 42.11 113.34 43.82L113.41 43.89L113.34 43.82Q116.55 42.77 118.99 42.54L118.82 42.38L118.82 42.38Q121.88 38.74 125.00 31.96L125.01 31.96L128.35 32.07L128.40 32.13Q128.31 31.20 128.31 30.28L128.41 30.38L128.33 28.52L128.30 28.49Q128.07 28.52 127.52 28.56L127.45 28.49L127.46 28.50Q127.03 28.66 126.76 28.66L126.64 28.54L126.60 28.50Q126.72 28.50 126.76 28.35L126.74 28.33L126.64 27.96L126.78 28.10Q129.22 22.89 132.31 18.25Z"/></svg>