<svg xmlns="http://www.w3.org/2000/svg" width="150" height="50" viewBox="0,0,150,50"><path fill="#222" d="M20.92 28.94L20.82 28.84L20.87 28.89Q18.36 28.93 17.33 30.11L17.41 30.19L17.29 30.07Q16.24 31.23 16.24 33.86L16.33 33.94L16.21 33.82Q16.31 39.03 20.92 38.84L20.99 38.91L20.87 38.80Q23.07 39.09 24.42 37.53L24.32 37.43L24.27 37.37Q25.67 35.86 25.44 33.80L25.56 33.93L25.41 33.78Q25.55 31.37 24.68 30.34L24.65 30.31L24.50 30.16Q23.05 28.87 20.85 28.87ZM26.00 38.78L25.92 38.70L25.92 38.70Q24.74 41.18 20.06 41.18L19.97 41.09L18.64 41.20L18.53 41.10Q16.21 41.14 15.11 39.99L15.12 40.01L15.19 40.08Q14.06 38.95 13.80 36.55L13.81 36.57L13.79 36.55Q13.64 35.06 13.56 33.27L13.57 33.28L13.59 33.30Q13.65 32.41 13.50 30.47L13.40 30.37L13.52 30.49Q13.30 26.09 18.48 26.09L18.59 26.19L20.02 26.06L20.01 26.06Q22.92 26.07 25.01 27.36L25.05 27.40L24.96 27.31Q25.82 27.86 26.31 28.55L26.40 28.63L26.25 28.49Q26.62 27.79 27.15 26.15L27.14 26.14L27.16 26.16Q28.32 25.91 30.64 25.30L30.77 25.43L30.63 25.29Q28.04 29.52 28.04 34.77L28.19 34.92L28.17 34.89Q28.07 38.53 29.44 41.61L29.53 41.70L29.53 41.70Q28.31 41.32 26.40 41.09L26.42 41.11L26.42 41.10Q26.27 40.31 25.97 38.75ZM29.17 43.86L29.17 43.86L31.42 44.47L31.36 44.41Q32.63 44.77 33.62 45.22L33.74 45.35L33.62 45.23Q30.05 40.97 30.05 34.88L29.90 34.73L30.02 34.85Q29.90 30.20 32.03 26.39L32.20 26.56L32.19 26.55Q31.43 26.66 30.10 27.04L30.20 27.15L30.23 27.18Q30.41 26.25 31.29 24.73L31.28 24.73L31.41 24.85Q30.83 25.03 26.83 25.87L26.89 25.93L26.29 27.73L26.16 27.60Q24.50 25.98 20.09 25.75L19.99 25.65L20.05 25.71Q18.84 25.64 16.59 25.80L16.67 25.87L16.74 25.95Q12.89 26.13 13.00 30.16L13.09 30.25L13.15 30.31Q13.26 33.62 13.84 38.08L13.78 38.02L13.82 38.48L13.72 38.38Q13.93 39.31 14.73 40.42L14.81 40.50L14.72 40.41Q14.97 40.66 15.16 40.77L15.13 40.74L15.11 40.72Q15.30 41.14 15.69 41.72L15.72 41.75L15.81 41.84Q17.21 43.36 20.60 43.55L20.47 43.41L20.45 43.39Q22.24 43.66 22.39 43.66L22.37 43.64L23.88 43.59L23.87 43.58Q27.03 43.54 28.25 41.98L28.22 41.95L28.34 42.07Q28.59 42.59 29.20 43.88ZM22.79 31.27L22.74 31.22L22.67 31.15Q24.03 31.18 24.87 31.64L24.79 31.56L24.79 31.55Q25.24 32.50 25.24 33.95L25.15 33.86L25.25 33.95Q25.26 35.69 23.99 37.11L23.99 37.11L24.06 37.18Q22.88 38.71 20.98 38.52L20.89 38.43L20.92 38.46Q19.47 38.45 18.44 38.04L18.46 38.06L18.38 37.98Q18.14 37.08 18.14 35.87L18.18 35.91L18.24 35.97Q18.39 32.46 21.01 31.51L20.98 31.48L20.88 31.38Q21.83 31.10 22.62 31.10Z"/><path fill="#222" d="M122.77 32.07L113.61 22.15L113.56 22.10Q114.44 25.83 114.44 29.57L114.53 29.65L114.52 29.64Q114.46 35.56 112.41 41.12L112.30 41.01L112.31 41.03Q111.29 41.34 109.05 42.10L109.10 42.16L109.09 42.15Q111.84 36.30 111.84 29.59L111.86 29.61L111.82 29.57Q111.97 21.08 107.48 13.66L107.36 13.54L107.46 13.64Q107.75 13.66 108.43 14.08L108.47 14.12L108.60 14.25Q120.65 25.42 128.49 34.67L128.39 34.56L128.49 34.67Q128.14 32.18 128.14 29.75L128.21 29.82L128.24 29.85Q128.12 22.50 130.63 16.29L130.69 16.35L130.75 16.41Q132.99 15.80 134.59 15.11L134.67 15.19L134.50 15.02Q131.37 21.36 131.06 28.52L130.98 28.44L130.92 28.38Q130.67 35.79 133.64 41.95L133.60 41.91L133.54 41.85Q133.14 41.94 132.72 41.75L132.67 41.70L132.67 41.70Q128.00 37.64 122.78 32.08L122.79 32.09ZM136.32 45.20L136.35 45.23L136.24 45.12Q136.73 45.30 137.14 45.49L137.17 45.51L137.95 45.80L138.05 45.90Q132.75 38.82 132.75 29.45L132.76 29.46L132.88 29.58Q132.86 22.33 136.17 16.08L136.22 16.13L136.15 16.06Q135.49 16.27 134.08 16.88L134.10 16.90L134.07 16.87Q134.55 16.13 135.39 14.57L135.31 14.50L135.32 14.51Q132.79 15.32 130.35 15.89L130.36 15.91L130.45 16.00Q127.76 22.40 127.76 29.82L127.78 29.85L127.70 29.76Q127.78 31.72 127.97 33.70L127.92 33.64L128.00 33.72Q123.35 28.04 118.59 23.44L118.58 23.43L108.46 13.68L108.48 13.71Q107.92 13.41 106.70 12.84L106.74 12.88L106.75 12.89Q111.61 20.60 111.61 29.70L111.65 29.74L111.48 29.57Q111.48 36.69 108.39 42.70L108.49 42.80L108.52 42.83Q108.73 42.62 110.36 42.01L110.47 42.12L110.40 42.05Q110.03 42.78 109.19 44.26L109.19 44.27L109.35 44.42Q110.62 43.82 114.08 43.02L114.01 42.95L114.02 42.96Q116.41 36.91 116.41 29.71L116.33 29.63L116.30 29.59Q116.48 27.69 116.25 25.55L116.20 25.50L116.21 25.51Q127.70 38.33 136.30 45.18Z"/><path fill="#222" d="M92.89 30.57L92.95 30.63L92.90 30.58Q92.86 30.54 96.25 30.50L96.41 30.66L96.25 30.50Q98.58 30.55 99.64 30.58L99.58 30.51L99.74 30.68Q98.71 27.82 96.27 22.19L96.15 22.06L96.24 22.16Q95.55 23.45 94.51 26.30L94.67 26.46L94.56 26.35Q93.46 29.15 92.88 30.56ZM100.82 33.13L100.75 33.06L100.72 33.03Q98.47 33.03 96.26 33.07L96.31 33.12L96.37 33.17Q94.06 33.14 91.77 33.33L91.71 33.28L91.81 33.37Q90.17 36.68 86.94 40.87L87.05 40.99L87.08 41.01Q84.51 41.65 83.14 42.14L82.99 41.99L83.12 42.11Q88.19 36.42 92.88 23.05L92.90 23.07L92.97 23.15Q94.06 19.55 95.43 16.32L95.50 16.39L95.46 16.35Q95.82 16.40 96.16 16.40L96.25 16.49L96.82 16.34L96.83 16.35Q97.62 17.75 102.46 29.40L102.37 29.31L102.46 29.40Q105.74 37.25 109.74 41.40L109.71 41.38L109.62 41.28Q109.28 41.32 105.39 40.44L105.36 40.41L105.38 40.43Q102.73 37.21 100.75 33.06ZM105.27 40.74L105.22 40.69L105.80 40.78L105.86 40.83Q106.10 40.85 106.41 40.96L106.45 41.01L106.32 40.88Q106.72 41.32 108.55 43.34L108.53 43.32L108.47 43.26Q112.24 44.28 114.63 45.31L114.51 45.18L114.50 45.18Q109.06 40.69 105.06 32.69L105.14 32.76L105.15 32.77Q103.51 29.46 102.06 25.50L102.00 25.44L99.28 17.97L99.31 18.00Q98.97 17.99 98.74 17.99L98.72 17.98L98.33 18.12L98.26 18.04Q97.96 17.44 97.24 16.07L97.12 15.96L97.17 16.01Q96.65 16.02 96.20 15.98L96.12 15.91L96.11 15.90Q95.74 15.95 95.21 15.95L95.11 15.84L95.16 15.90Q93.87 19.94 89.99 30.10L89.85 29.97L89.91 30.02Q86.70 37.89 82.05 42.69L82.07 42.71L82.23 42.86Q83.10 42.29 85.12 41.68L85.18 41.74L85.16 41.72Q84.33 42.53 82.77 44.32L82.92 44.47L82.93 44.48Q84.65 43.83 88.57 43.07L88.49 42.99L88.45 42.95Q91.97 38.71 93.53 35.47L93.47 35.41L93.41 35.35Q95.19 35.27 97.52 35.31L97.50 35.29L97.50 35.29Q100.35 35.44 101.72 35.51L101.55 35.34L101.56 35.35Q102.79 37.69 105.15 40.62ZM97.57 26.08L97.60 26.10L97.60 26.11Q98.39 28.11 99.15 30.21L99.13 30.18L95.82 30.19L95.93 30.29Q96.54 28.89 97.61 26.11Z"/><path fill="#333" d="M81.20 34.66L81.15 34.61L81.17 34.62Q81.29 38.33 78.13 39.62L78.09 39.57L78.03 39.52Q76.17 40.36 71.75 40.51L71.72 40.48L71.80 40.56Q66.93 40.60 64.68 39.42L64.74 39.48L64.64 39.38Q62.95 38.22 63.10 34.87L63.05 34.81L63.15 34.92Q63.08 34.20 63.27 32.22L63.27 32.22L63.21 32.16Q63.31 30.55 63.31 29.56L63.31 29.56L63.36 29.61Q63.45 21.71 59.27 14.28L59.14 14.16L59.22 14.23Q60.44 14.96 63.41 16.03L63.39 16.00L63.35 15.97Q66.15 22.62 66.15 30.00L66.26 30.11L66.26 30.11Q66.15 30.60 66.05 31.78L66.16 31.89L66.19 31.92Q66.03 33.04 66.03 33.65L66.12 33.74L66.12 33.73Q66.08 35.98 67.64 36.97L67.58 36.91L67.50 36.83Q69.14 37.63 72.11 37.63L72.24 37.77L72.24 37.77Q74.82 37.72 76.46 36.54L76.51 36.59L76.39 36.47Q78.33 35.21 78.18 32.70L78.14 32.66L78.24 32.76Q78.10 31.33 78.10 30.00L78.13 30.02L77.98 29.88Q77.96 22.81 80.36 16.30L80.40 16.34L82.69 15.90L82.57 15.77Q83.54 15.49 84.65 15.03L84.65 15.04L84.80 15.18Q81.03 22.27 81.03 29.84L80.92 29.74L81.02 29.83Q80.89 30.54 81.03 32.18L81.09 32.24L81.15 32.30Q81.21 33.86 81.21 34.66ZM83.37 35.57L83.45 35.64L83.32 35.52Q82.44 30.57 83.17 25.47L83.23 25.53L83.31 25.61Q83.96 20.33 86.36 15.95L86.33 15.92L86.41 16.00Q85.74 16.24 84.30 16.89L84.34 16.93L84.34 16.94Q84.74 16.11 85.54 14.55L85.50 14.51L85.54 14.56Q82.09 15.79 80.19 16.13L80.04 15.98L80.04 15.98Q77.68 22.50 77.68 29.77L77.69 29.78L77.79 29.88Q77.79 31.25 77.87 32.66L77.80 32.58L77.80 32.59Q78.01 35.04 76.22 36.26L76.24 36.28L76.27 36.31Q74.64 37.24 72.13 37.27L72.20 37.34L72.12 37.26Q69.37 37.33 67.93 36.57L68.02 36.67L67.96 36.61Q67.79 36.02 67.72 35.56L67.91 35.75L67.79 35.64Q67.78 35.17 67.90 34.68L67.94 34.72L67.79 34.57Q68.17 32.40 68.17 30.08L68.09 30.00L68.15 30.06Q68.21 24.29 66.68 18.39L66.64 18.35L66.69 18.39Q65.82 18.13 64.41 17.79L64.39 17.77L64.41 17.79Q63.98 16.45 63.53 15.53L63.54 15.55L63.61 15.62Q60.96 14.91 58.56 13.54L58.54 13.52L58.59 13.56Q63.12 21.06 63.12 29.78L63.18 29.85L63.05 29.72Q63.09 31.39 62.93 33.10L62.89 33.06L62.87 33.04Q62.66 35.46 62.74 36.64L62.80 36.70L62.74 36.64Q63.00 38.69 64.25 39.83L64.13 39.70L64.23 39.80Q65.13 42.19 69.77 42.57L69.92 42.72L69.78 42.57Q71.85 42.70 73.98 42.78L74.02 42.82L74.02 42.82Q79.52 43.14 82.30 42.19L82.16 42.05L82.15 42.04Q83.89 41.30 83.89 39.25L83.89 39.25L83.75 39.11Q83.81 38.03 83.36 35.56Z"/><path fill="#111" d="M49.37 39.86L49.27 39.76L49.30 39.80Q47.33 39.73 45.32 39.92L45.38 39.98L45.40 40.00Q45.98 34.69 45.98 29.85L46.00 29.87L45.98 29.85Q46.15 25.11 45.51 19.90L45.49 19.88L45.36 19.75Q40.80 19.38 37.60 17.70L37.53 17.63L36.86 15.93L36.94 16.02Q36.71 15.48 36.10 14.26L36.01 14.17L36.16 14.32Q41.09 16.85 47.11 17.04L47.21 17.15L47.19 17.13Q53.14 17.37 58.59 15.31L58.47 15.20L58.53 15.25Q57.85 16.71 57.21 18.54L57.23 18.56L57.13 18.46Q53.57 19.81 49.31 20.00L49.30 20.00L49.33 20.02Q48.96 24.87 48.96 29.82L49.13 30.00L49.08 29.94Q49.12 34.93 49.43 39.92ZM59.09 14.45L59.26 14.61L59.24 14.59Q53.43 16.89 47.22 16.70L47.13 16.62L47.13 16.61Q40.51 16.46 35.41 13.49L35.37 13.46L35.30 13.39Q36.15 14.77 37.44 18.04L37.49 18.09L37.52 18.12Q38.01 18.26 39.26 18.83L39.27 18.84L39.32 18.89Q39.65 19.68 39.99 21.20L40.02 21.22L39.94 21.14Q42.31 22.07 45.36 22.30L45.27 22.21L45.35 22.29Q45.66 25.92 45.66 29.69L45.56 29.58L45.58 29.60Q45.73 35.12 44.93 40.49L44.83 40.39L44.80 40.36Q46.60 40.37 47.14 40.37L47.16 40.39L47.01 40.25Q47.16 40.70 47.11 41.37L46.98 41.24L46.98 41.24Q46.86 41.85 46.86 42.19L46.91 42.24L46.90 42.23Q48.04 42.12 49.56 42.19L49.62 42.24L49.71 42.34Q50.66 42.41 52.49 42.56L52.44 42.51L52.33 42.41Q51.13 37.52 51.02 32.34L51.13 32.45L51.04 32.36Q50.97 27.11 51.50 22.20L51.49 22.18L51.51 22.20Q55.41 21.62 58.57 20.40L58.54 20.37L58.64 20.47Q59.34 18.08 60.37 16.03L60.25 15.91L60.20 15.86Q58.96 16.64 58.16 16.94L58.08 16.86L58.12 16.90Q58.68 15.75 59.25 14.61Z"/></svg>