<svg xmlns="http://www.w3.org/2000/svg" width="150" height="50" viewBox="0,0,150,50"><path fill="#333" d="M16.01 49.65L15.98 49.62L16.07 49.71Q18.86 45.73 21.75 39.52L21.72 39.49L21.82 39.59Q18.57 32.91 12.48 24.84L12.51 24.88L12.63 24.99Q14.54 26.14 17.32 26.79L17.26 26.73L17.30 26.77Q20.85 31.46 23.29 36.68L23.24 36.63L23.14 36.53Q25.30 31.23 28.38 26.81L28.42 26.85L28.57 27.00Q30.70 26.58 32.79 25.78L32.71 25.70L32.70 25.69Q29.28 29.50 25.82 36.93L25.79 36.90L23.14 43.08L22.99 42.93Q21.65 46.16 19.90 48.78L19.90 48.79L19.80 48.68Q17.45 49.12 16.01 49.65ZM22.19 51.00L22.16 50.97L22.13 50.94Q23.96 48.17 25.41 44.89L25.36 44.84L28.12 38.54L28.15 38.58Q31.50 30.38 34.81 26.39L34.79 26.37L34.80 26.37Q33.59 27.19 31.69 27.87L31.55 27.73L32.70 26.45L32.66 26.41Q33.26 25.75 33.87 25.06L33.75 24.94L33.81 25.01Q31.21 26.14 28.36 26.60L28.24 26.48L28.36 26.60Q25.50 30.40 23.56 34.85L23.69 34.99L23.66 34.96Q22.05 31.68 20.26 28.86L20.14 28.74L20.11 28.71Q19.95 28.73 19.59 28.69L19.65 28.76L19.66 28.77Q19.25 28.69 19.06 28.69L18.97 28.60L19.01 28.63Q18.23 27.36 17.28 26.22L17.39 26.33L17.37 26.30Q14.23 25.68 11.49 23.97L11.39 23.87L11.46 23.93Q17.63 31.86 21.32 39.47L21.35 39.50L21.42 39.57Q19.28 44.66 15.21 50.30L15.19 50.28L15.11 50.20Q15.94 49.92 16.74 49.77L16.70 49.74L18.35 49.41L18.36 49.41Q17.74 50.12 16.56 51.76L16.54 51.74L16.53 51.74Q18.89 51.20 22.16 50.97Z"/><path fill="#222" d="M73.33 20.14L73.35 20.17L73.38 20.19Q68.99 20.11 65.30 19.12L65.31 19.13L65.21 19.03Q66.85 23.71 67.04 28.54L66.94 28.45L67.07 28.58Q67.28 33.40 66.07 38.00L66.05 37.99L65.99 37.93Q68.76 37.27 72.26 37.12L72.30 37.16L72.22 37.07Q76.20 36.94 77.99 34.51L78.05 34.57L77.93 34.45Q79.50 32.44 79.69 28.33L79.69 28.33L79.64 28.28Q79.79 26.60 79.34 24.89L79.43 24.98L79.38 24.94Q77.96 20.05 73.24 20.05ZM61.44 42.17L61.30 42.03L61.39 42.13Q64.23 36.40 64.23 29.70L64.29 29.76L64.25 29.72Q64.23 21.17 59.93 14.17L59.89 14.13L59.90 14.14Q65.20 16.85 73.46 17.04L73.55 17.12L73.42 16.99Q82.37 17.26 82.71 24.42L82.81 24.52L82.70 24.41Q82.80 27.10 82.76 28.54L82.88 28.66L82.73 28.51Q82.72 33.27 81.89 35.44L81.96 35.51L81.91 35.46Q81.48 36.55 80.72 37.39L80.71 37.39L80.73 37.40Q79.29 38.85 76.66 39.35L76.65 39.34L76.76 39.44Q75.18 39.73 72.17 39.96L72.23 40.01L72.22 40.01Q66.04 40.41 61.43 42.16ZM79.42 42.11L79.41 42.09L79.32 42.00Q82.11 41.71 83.75 40.23L83.71 40.19L83.63 40.11Q84.91 38.42 84.87 35.68L84.81 35.62L84.94 35.75Q84.83 34.27 84.67 30.76L84.80 30.88L84.44 26.34L84.26 26.16Q84.14 23.95 83.19 21.85L83.14 21.80L83.25 21.91Q82.67 20.92 81.98 20.27L82.11 20.39L81.93 20.07L82.02 20.16Q80.41 17.29 76.00 16.91L75.87 16.79L75.86 16.77Q73.12 16.58 66.12 15.86L66.16 15.90L66.20 15.94Q62.89 15.45 59.19 13.43L59.30 13.54L59.27 13.51Q64.15 20.93 64.15 29.69L64.01 29.55L64.00 29.54Q64.11 36.66 60.76 42.83L60.79 42.85L60.66 42.72Q61.40 42.51 62.73 42.01L62.69 41.97L62.66 41.95Q62.45 42.92 61.58 44.40L61.42 44.24L61.53 44.36Q64.49 43.20 67.84 42.71L67.86 42.73L67.84 42.71Q69.99 42.46 73.64 42.34L73.68 42.39L73.58 42.29Q77.47 42.18 79.30 41.99ZM79.38 28.41L79.42 28.44L79.34 28.36Q79.03 36.43 72.33 36.81L72.23 36.70L72.37 36.85Q70.38 36.91 68.33 37.18L68.28 37.13L68.32 37.17Q69.00 33.28 69.00 29.63L69.06 29.69L68.95 29.58Q68.97 25.91 68.25 22.06L68.21 22.02L68.34 22.16Q70.55 22.47 75.24 22.47L75.25 22.48L75.27 22.51Q76.50 22.21 78.14 23.16L78.29 23.31L78.23 23.25Q79.58 25.59 79.43 28.45Z"/><path fill="#333" d="M45.66 28.67L45.67 28.68L45.66 28.68Q42.69 28.52 41.92 30.76L42.12 30.96L42.06 30.90Q41.83 31.62 41.71 32.26L41.60 32.15L41.63 32.18Q44.36 32.52 46.00 32.52L45.99 32.50L46.01 32.52Q47.54 32.42 50.13 32.30L50.23 32.40L50.20 32.38Q49.98 30.55 48.57 29.49L48.65 29.57L48.56 29.48Q47.41 28.63 45.62 28.63ZM45.68 41.18L45.75 41.25L45.61 41.11Q41.42 41.15 40.13 39.74L40.26 39.87L40.20 39.82Q39.11 38.23 38.96 34.95L38.99 34.99L38.99 34.98Q39.06 34.82 38.98 33.45L39.01 33.48L39.06 33.53Q38.75 31.06 38.75 30.33L38.90 30.48L38.74 30.32Q38.74 28.46 39.47 27.35L39.49 27.38L39.56 27.45Q41.04 26.11 44.01 26.11L43.87 25.97L45.47 26.01L45.40 25.94Q47.51 25.99 49.03 26.30L49.10 26.37L48.97 26.24Q51.03 26.70 52.02 27.92L52.07 27.97L52.03 27.92Q52.76 29.11 52.84 31.21L52.85 31.22L52.86 31.23Q52.85 32.36 52.89 34.53L52.85 34.50L52.83 34.48Q49.89 34.43 47.11 34.43L47.19 34.51L41.55 34.46L41.69 34.60Q41.82 39.00 45.89 38.77L45.85 38.73L45.89 38.76Q49.51 38.43 50.73 36.60L50.78 36.65L50.79 36.66Q51.73 37.26 53.33 38.44L53.22 38.33L53.33 38.44Q51.83 40.71 47.68 40.97L47.71 41.00L47.82 41.12Q47.08 41.13 45.70 41.21ZM47.97 43.51L47.90 43.44L47.94 43.48Q49.01 43.40 50.22 43.48L50.21 43.47L50.23 43.49Q55.36 43.81 56.27 41.03L56.12 40.89L56.22 40.99Q54.60 39.75 53.50 38.99L53.58 39.06L53.41 38.89Q53.72 38.64 53.91 38.41L53.84 38.34L53.88 38.38Q53.01 37.78 51.64 36.83L51.71 36.90L51.64 36.83Q52.85 37.00 54.90 37.31L54.78 37.18L54.80 37.20Q54.71 35.93 54.63 35.25L54.56 35.18L54.40 33.23L54.56 33.39Q54.33 30.94 53.68 29.46L53.71 29.49L53.69 29.47Q53.38 29.09 52.81 28.48L52.77 28.43L52.93 28.60Q52.61 28.13 52.38 27.56L52.37 27.55L52.48 27.65Q50.49 25.51 45.42 25.51L45.53 25.61L43.80 25.56L43.79 25.55Q40.65 25.64 39.20 27.13L39.06 26.98L39.15 27.08Q38.54 28.25 38.58 30.31L38.45 30.18L38.57 30.30Q38.61 31.25 38.72 33.50L38.60 33.38L38.67 33.45Q38.77 35.07 38.88 37.13L38.96 37.20L38.91 37.15Q39.14 39.36 40.02 40.43L40.09 40.50L39.94 40.36Q40.25 40.67 40.44 40.78L40.27 40.61L40.70 41.38L40.63 41.31Q41.33 43.07 47.91 43.45ZM45.87 38.33L45.78 38.24L45.83 38.28Q44.61 38.32 43.70 37.86L43.73 37.89L43.74 37.91Q43.68 37.50 43.49 36.82L43.59 36.92L43.61 36.94Q45.26 36.80 46.86 36.80L46.72 36.67L46.91 36.86Q48.51 36.78 50.19 36.90L50.18 36.89L50.20 36.91Q48.83 38.16 45.82 38.28ZM47.53 31.00L47.41 30.88L47.52 30.99Q48.11 30.97 49.44 31.35L49.50 31.41L49.68 31.78L49.70 31.99L49.73 32.02Q48.21 31.99 47.30 31.95L47.44 32.09L47.36 32.01Q45.05 31.95 45.01 31.95L44.99 31.93L45.01 31.95Q45.76 31.02 47.44 30.91Z"/><path fill="#111" d="M122.42 27.76L122.40 27.74L122.33 27.67Q118.94 27.70 117.83 31.05L117.78 31.01L117.69 30.91Q117.32 31.99 117.20 33.05L117.28 33.13L117.39 33.24Q117.15 35.25 118.14 36.58L118.03 36.47L118.06 36.50Q119.32 37.60 121.79 37.64L121.77 37.62L121.79 37.63Q123.64 37.70 125.05 36.56L125.05 36.56L125.06 36.57Q126.43 35.39 126.43 33.60L126.55 33.72L126.44 33.61Q126.56 33.39 126.49 33.01L126.37 32.89L126.43 32.95Q126.17 27.78 122.36 27.70ZM122.33 40.24L122.29 40.19L122.22 40.12Q118.48 40.42 116.69 38.40L116.70 38.41L116.71 38.42Q116.45 39.42 116.00 40.79L115.95 40.75L116.08 40.87Q113.96 41.46 112.70 42.03L112.68 42.00L112.75 42.07Q114.88 36.06 114.88 29.55L114.98 29.65L114.88 29.54Q115.04 21.41 111.61 13.56L111.61 13.57L111.49 13.44Q113.80 14.76 115.13 15.22L115.17 15.26L115.13 15.21Q117.31 21.93 117.47 27.76L117.45 27.74L117.43 27.72Q118.95 25.12 122.68 25.16L122.66 25.14L122.68 25.17Q125.82 25.11 127.31 26.98L127.46 27.13L127.48 27.15Q129.16 29.28 129.31 32.86L129.24 32.79L129.32 32.87Q129.41 34.06 129.33 35.66L129.25 35.58L129.41 35.74Q129.29 37.10 128.41 38.24L128.41 38.25L128.47 38.30Q126.62 39.91 122.28 40.18ZM127.69 42.63L127.76 42.70L127.82 42.75Q129.31 42.76 130.80 42.07L130.85 42.13L130.74 42.02Q131.88 40.76 131.92 38.82L131.92 38.82L132.02 38.92Q131.97 38.38 131.82 37.20L131.77 37.14L131.80 37.17Q131.76 36.53 131.65 35.61L131.59 35.56L131.54 35.51Q130.69 30.71 129.13 28.65L129.27 28.78L129.26 28.78Q129.20 28.67 128.40 27.80L128.30 27.71L128.43 27.84Q128.20 27.56 127.67 26.76L127.72 26.81L127.67 26.76Q126.07 24.82 122.72 24.86L122.64 24.78L122.63 24.77Q120.69 24.93 119.43 25.53L119.29 25.39L119.40 25.50Q119.05 20.97 118.44 17.77L118.36 17.69L118.40 17.73Q117.62 17.51 116.13 17.13L116.16 17.16L116.11 17.11Q116.02 16.41 115.57 14.97L115.65 15.05L115.53 14.93Q113.20 14.24 110.96 12.68L110.89 12.62L110.96 12.68Q114.76 20.90 114.76 29.70L114.76 29.70L114.76 29.69Q114.75 36.65 112.28 42.86L112.16 42.74L112.13 42.71Q112.83 42.38 114.16 41.81L114.12 41.77L114.25 41.90Q113.91 42.55 113.30 44.07L113.44 44.21L113.30 44.07Q115.39 43.27 118.17 42.73L118.05 42.62L118.48 40.84L118.46 40.82Q120.88 42.63 127.81 42.74ZM123.98 30.00L124.10 30.12L124.07 30.09Q124.99 29.98 125.52 30.36L125.50 30.35L125.51 30.36Q125.79 30.82 126.01 32.84L126.06 32.89L126.01 32.84Q126.39 34.89 125.14 36.21L125.07 36.14L125.15 36.22Q123.77 37.41 121.83 37.30L121.83 37.30L121.93 37.39Q120.89 37.43 119.41 36.93L119.37 36.90L119.53 37.05Q119.29 36.55 119.29 36.02L119.18 35.90L119.29 36.01Q119.32 32.96 120.88 31.36L120.75 31.23L120.84 31.36L120.82 31.33Q122.24 29.94 123.99 30.01Z"/><path fill="#222" d="M96.63 30.38L96.73 30.49L96.72 30.48Q93.25 36.83 89.83 40.79L89.72 40.69L89.83 40.79Q87.88 41.12 85.44 42.00L85.50 42.07L85.49 42.05Q90.38 36.43 95.13 28.02L95.17 28.05L95.09 27.97Q90.58 21.10 84.61 14.71L84.55 14.65L84.57 14.67Q87.51 15.90 89.79 16.39L89.82 16.42L89.72 16.32Q94.39 21.56 96.82 25.52L96.86 25.56L96.79 25.49Q99.43 21.19 103.35 16.78L103.18 16.61L103.21 16.64Q104.94 16.47 108.14 15.70L108.01 15.57L108.11 15.68Q101.99 22.08 98.53 28.02L98.46 27.95L98.60 28.09Q103.70 36.69 108.07 41.26L108.15 41.34L108.16 41.35Q105.51 40.49 103.42 40.26L103.47 40.31L103.33 40.17Q100.52 37.17 96.60 30.36ZM103.22 40.48L103.38 40.64L103.23 40.49Q103.70 40.70 104.16 40.81L104.15 40.80L104.10 40.75Q104.96 41.57 106.48 43.17L106.33 43.01L106.36 43.05Q109.80 43.93 112.84 45.30L112.75 45.22L112.78 45.25Q105.64 38.63 100.54 29.88L100.57 29.91L100.46 29.80Q104.27 23.22 110.17 16.37L110.28 16.47L110.25 16.44Q108.67 16.96 106.50 17.49L106.66 17.65L106.49 17.48Q107.48 16.68 109.23 14.89L109.23 14.89L109.25 14.91Q106.76 15.69 103.06 16.26L103.05 16.25L103.18 16.38Q99.69 20.13 97.10 24.43L97.09 24.41L97.10 24.42Q96.15 22.79 94.97 21.30L95.04 21.38L92.82 18.51L92.26 18.32L92.28 18.35Q92.10 18.32 91.87 18.24L91.88 18.25L91.96 18.33Q91.25 17.47 89.77 15.91L89.85 15.99L89.84 15.99Q85.93 15.00 83.34 13.63L83.40 13.70L83.34 13.64Q90.15 20.97 94.71 28.01L94.76 28.06L94.73 28.03Q90.13 36.11 84.38 42.70L84.56 42.87L84.54 42.86Q85.71 42.04 87.84 41.47L87.86 41.49L86.54 42.91L86.70 43.07Q86.57 42.94 85.24 44.27L85.33 44.37L85.33 44.36Q88.39 43.35 91.55 42.86L91.43 42.74L91.57 42.88Q95.40 38.18 97.99 33.42L97.99 33.42L97.97 33.40Q100.57 37.68 103.28 40.54Z"/></svg>