<svg xmlns="http://www.w3.org/2000/svg" width="150" height="50" viewBox="0,0,150,50"><path fill="#333" d="M64.37 15.79L64.41 15.83L64.35 15.77Q66.42 20.80 66.99 25.98L66.89 25.88L66.87 25.86Q70.70 21.85 76.60 17.02L76.48 16.90L76.60 17.02Q79.65 16.57 82.28 15.77L82.41 15.90L75.80 21.47L75.83 21.50Q72.44 24.47 69.59 27.32L69.54 27.27L69.46 27.20Q77.40 36.32 82.46 41.04L82.52 41.09L82.51 41.09Q79.40 40.14 77.08 39.99L77.05 39.97L77.11 40.03Q71.34 34.64 67.04 28.82L67.12 28.89L66.97 28.74Q67.16 35.44 65.30 40.77L65.24 40.71L65.29 40.77Q65.07 40.81 64.57 41.00L64.62 41.05L64.55 41.18L64.51 41.13Q64.31 41.16 61.76 42.07L61.84 42.16L61.81 42.12Q64.65 35.45 64.31 27.98L64.28 27.95L64.35 28.02Q64.08 20.76 60.54 14.25L60.56 14.26L61.01 14.45L61.51 14.83L61.46 14.74L61.54 14.83Q62.26 15.20 64.47 15.89ZM64.81 15.66L64.81 15.65L64.75 15.60Q62.41 14.97 59.78 13.45L59.84 13.50L59.77 13.44Q64.11 20.78 64.11 29.73L64.18 29.80L64.07 29.69Q64.12 36.74 61.15 42.80L61.23 42.87L63.14 41.89L63.16 41.91Q62.81 42.97 62.12 44.26L62.07 44.21L62.01 44.15Q64.30 43.39 66.24 42.97L66.26 42.99L66.27 42.77L66.30 42.81Q66.70 42.90 67.27 42.75L67.15 42.63L67.15 42.63Q68.88 36.78 68.99 31.99L68.93 31.93L68.84 31.83Q71.01 34.42 72.84 36.29L72.83 36.27L72.80 36.25Q74.09 37.46 77.10 40.43L77.07 40.41L77.09 40.43L77.17 40.51Q78.05 41.19 79.91 42.79L79.91 42.79L79.98 42.86Q83.84 43.56 87.31 45.27L87.34 45.31L87.30 45.27Q77.98 36.67 71.74 29.25L71.83 29.34L71.74 29.25Q76.18 25.01 84.94 16.41L84.96 16.43L84.84 16.31Q82.31 17.48 80.29 17.86L80.27 17.83L80.40 17.96Q81.66 17.02 83.99 15.00L83.93 14.94L83.95 14.97Q79.70 16.23 76.35 16.42L76.50 16.58L76.48 16.56Q73.46 18.67 68.59 23.35L68.62 23.39L68.70 23.47Q68.31 20.87 67.74 18.32L67.67 18.25L67.62 18.20Q66.47 18.08 65.48 17.73L65.59 17.85L65.58 17.84Q65.35 17.07 64.78 15.62Z"/><path fill="#111" d="M18.69 33.38L18.64 33.32L18.56 33.25Q18.49 36.15 17.31 40.79L17.20 40.68L17.37 40.85Q15.43 41.23 13.83 42.03L13.95 42.15L13.83 42.03Q16.62 35.19 16.35 27.76L16.29 27.70L16.30 27.71Q15.91 20.21 12.83 13.47L12.96 13.60L12.89 13.53Q14.88 14.83 16.75 15.41L16.66 15.31L16.69 15.35Q18.76 22.25 18.76 28.92L18.85 29.01L18.88 29.03Q18.77 30.38 18.70 31.86L18.85 32.01L18.77 31.93Q19.89 30.70 25.11 25.75L25.21 25.85L25.04 25.68Q26.22 25.76 27.21 25.68L27.13 25.59L29.36 25.58L29.23 25.45Q26.20 28.59 21.90 32.36L21.76 32.22L21.78 32.24Q25.15 35.00 31.63 40.83L31.77 40.97L31.65 40.86Q29.04 40.07 26.07 39.88L25.95 39.76L25.94 39.75Q23.57 37.80 18.69 33.38ZM28.53 42.49L28.44 42.40L28.61 42.57Q33.23 43.30 36.35 45.25L36.36 45.26L36.26 45.16Q35.11 43.90 32.49 41.50L32.51 41.52L32.51 41.53Q32.80 41.66 33.06 41.77L33.07 41.78L32.95 41.65Q30.86 39.64 28.61 37.74L28.78 37.91L24.29 33.95L24.34 34.00Q29.18 29.67 31.62 26.77L31.58 26.74L31.65 26.81Q30.43 26.89 27.96 27.15L28.03 27.22L27.94 27.13Q29.62 25.77 30.31 24.93L30.20 24.82L30.35 24.97Q27.40 25.30 24.93 25.30L25.05 25.42L25.00 25.37Q23.53 26.60 20.79 29.27L20.91 29.39L20.78 29.26Q20.78 23.47 19.79 17.65L19.89 17.74L19.83 17.69Q19.20 17.59 17.72 17.33L17.71 17.32L17.68 17.29Q17.55 16.59 17.09 15.10L16.96 14.97L17.06 15.07Q14.51 14.35 12.26 12.78L12.17 12.69L12.13 12.65Q15.61 19.52 15.95 27.63L15.92 27.59L16.01 27.69Q16.21 35.47 13.21 42.70L13.27 42.77L13.37 42.87Q13.93 42.44 15.27 41.79L15.40 41.92L15.36 41.88Q15.16 42.75 14.52 44.20L14.50 44.19L14.46 44.15Q17.20 42.97 19.33 42.59L19.38 42.63L19.47 42.72Q19.93 40.10 20.43 35.83L20.44 35.85L20.51 35.92Q23.09 38.16 28.53 42.50Z"/><path fill="#333" d="M45.78 27.71L45.68 27.61L45.65 27.58Q43.41 27.58 42.13 29.09L42.15 29.10L42.27 29.22Q41.01 30.75 40.90 33.03L40.86 32.99L40.81 32.94Q40.67 35.58 41.50 36.53L41.54 36.56L41.46 36.49Q42.69 37.87 45.01 37.72L45.06 37.76L44.98 37.68Q49.55 37.30 49.93 34.30L49.96 34.32L50.04 34.41Q50.12 33.57 50.12 32.77L50.05 32.70L50.16 32.82Q49.96 30.63 48.82 29.11L48.85 29.14L48.86 29.15Q47.60 27.55 45.66 27.59ZM50.45 37.63L50.58 37.76L50.50 37.68Q49.14 39.94 44.76 40.17L44.69 40.10L44.64 40.05Q40.55 40.30 38.92 39.20L38.96 39.24L38.97 39.25Q37.90 38.22 37.75 36.51L37.73 36.49L37.71 36.47Q37.72 35.41 37.91 33.54L38.02 33.65L37.89 33.53Q38.51 29.35 39.73 27.52L39.73 27.52L39.55 27.34Q41.32 25.00 45.16 25.04L45.09 24.96L45.11 24.98Q47.56 24.96 49.85 27.28L49.94 27.37L49.91 27.34Q50.11 21.60 51.70 15.09L51.64 15.03L51.66 15.05Q53.51 14.57 55.37 13.74L55.36 13.72L55.39 13.75Q52.81 20.39 52.54 27.39L52.56 27.41L52.47 27.31Q52.27 34.58 54.40 41.17L54.27 41.03L54.28 41.04Q52.73 40.52 51.01 40.14L50.98 40.11L51.07 40.19Q50.70 38.83 50.55 37.73ZM53.67 43.29L53.49 43.10L53.60 43.22Q55.77 43.86 58.32 45.39L58.15 45.22L58.14 45.20Q54.43 38.15 54.28 29.85L54.41 29.99L54.41 29.98Q54.25 21.75 57.33 14.36L57.33 14.36L57.34 14.37Q56.54 14.71 55.09 15.36L55.16 15.43L55.23 15.50Q55.59 14.37 56.20 13.16L56.20 13.16L56.17 13.12Q53.82 14.24 51.38 14.81L51.25 14.68L51.33 14.76Q49.78 20.44 49.51 26.53L49.58 26.59L49.59 26.61Q47.63 24.73 45.12 24.61L45.21 24.70L45.22 24.71Q41.71 24.52 39.81 26.61L39.80 26.61L39.86 26.66Q38.05 28.92 37.63 33.61L37.64 33.62L37.75 33.73Q37.47 36.46 37.47 36.88L37.36 36.76L37.42 36.82Q37.57 38.65 38.72 39.72L38.57 39.57L38.52 39.53Q38.86 39.86 39.05 39.94L38.97 39.86L39.52 40.59L39.42 40.50Q40.39 41.85 43.36 42.11L43.49 42.24L43.46 42.21Q45.71 42.41 47.08 42.48L47.00 42.41L47.06 42.47Q51.27 42.68 52.98 41.35L53.01 41.38L53.00 41.36Q53.17 42.10 53.63 43.25ZM47.24 29.86L47.22 29.84L47.27 29.89Q48.32 29.91 49.16 30.40L49.19 30.43L49.25 30.49Q49.61 31.65 49.68 32.68L49.79 32.79L49.66 32.65Q50.09 37.01 45.06 37.35L44.97 37.26L45.09 37.38Q44.15 37.35 43.05 37.08L42.95 36.99L42.95 36.99Q42.73 36.39 42.65 35.85L42.81 36.00L42.76 35.96Q42.60 35.19 42.64 34.58L42.63 34.57L42.72 34.66Q43.10 31.31 45.73 30.32L45.59 30.19L45.58 30.17Q46.51 29.78 47.20 29.81Z"/><path fill="#222" d="M129.27 23.27L129.20 23.19L129.29 23.28Q127.68 19.31 121.47 19.50L121.38 19.41L121.41 19.44Q116.88 19.44 114.90 20.89L115.07 21.05L114.93 20.91Q112.57 22.71 112.57 26.82L112.61 26.85L112.59 28.70L112.52 28.64Q112.58 37.53 121.61 37.53L121.55 37.47L121.70 37.62Q123.66 37.53 125.15 36.73L125.19 36.78L125.08 36.66Q126.93 35.66 126.78 33.80L126.90 33.91L126.83 33.85Q126.66 31.77 122.97 30.86L122.94 30.83L120.96 30.79L121.01 30.84Q119.99 30.78 119.04 30.82L119.01 30.78L119.18 30.95Q119.04 29.86 119.00 27.96L119.03 27.99L118.98 27.93Q126.80 28.11 130.99 27.76L130.88 27.66L130.93 27.70Q130.90 28.55 130.90 29.35L130.79 29.24L130.93 29.38Q130.86 30.11 130.90 30.91L130.94 30.95L130.82 30.83Q129.76 30.87 129.76 30.87L129.76 30.87L129.84 30.96Q128.33 30.81 128.71 30.81L128.69 30.79L128.76 30.86Q129.87 32.51 130.26 34.49L130.16 34.39L130.23 34.46Q130.37 35.22 130.37 35.67L130.29 35.59L130.30 35.60Q130.31 40.25 121.51 40.25L121.61 40.35L121.51 40.25Q114.36 40.22 111.77 38.12L111.79 38.14L111.92 38.28Q109.79 35.77 109.79 30.70L109.90 30.81L109.87 30.78Q109.85 29.69 109.70 26.99L109.80 27.10L109.82 27.12Q109.52 24.60 109.56 23.23L109.51 23.19L109.71 23.39Q109.78 20.49 111.15 18.89L111.00 18.74L111.12 18.86Q113.62 16.75 118.49 16.56L118.44 16.51L121.20 16.53L121.17 16.50Q124.35 16.48 127.78 16.90L127.69 16.82L127.74 16.86Q131.56 17.41 132.51 20.64L132.42 20.55L132.49 20.62Q131.31 21.38 129.21 23.21ZM130.75 25.54L130.76 25.44L130.85 25.53Q132.00 24.40 133.87 22.42L133.85 22.40L133.93 22.49Q133.62 21.52 132.63 19.81L132.53 19.71L132.48 19.66Q131.41 17.10 127.60 16.46L127.60 16.46L127.56 16.41Q125.47 16.34 121.17 16.04L121.13 16.00L118.49 16.17L118.46 16.15Q113.26 16.31 110.67 18.29L110.67 18.29L110.79 18.41Q109.41 20.04 109.29 23.12L109.28 23.11L109.29 23.12Q109.25 22.62 109.48 28.11L109.59 28.22L109.41 28.04Q109.49 29.45 109.57 32.19L109.50 32.13L109.51 32.14Q109.79 36.68 111.55 38.62L111.58 38.65L111.51 38.59Q111.96 39.50 112.84 40.37L112.84 40.38L112.68 40.21Q115.63 42.13 121.15 42.48L121.26 42.59L124.09 42.71L124.16 42.79Q125.74 42.88 127.76 42.77L127.75 42.76L127.73 42.74Q129.17 42.66 131.27 42.13L131.21 42.07L131.30 42.16Q133.22 41.65 133.18 39.32L133.21 39.35L133.19 39.33Q133.20 38.08 132.13 35.30L132.14 35.32L132.16 35.33Q131.76 34.33 131.23 33.53L131.32 33.61L131.16 33.45Q131.80 33.52 132.98 33.71L133.00 33.74L132.94 33.67Q132.75 30.18 132.79 29.49L132.72 29.42L132.83 29.53Q132.28 29.35 131.86 29.32L132.06 29.52L131.91 29.37Q131.66 29.46 131.28 29.54L131.23 29.49L131.12 29.38Q131.15 28.31 131.23 27.24L131.37 27.38L131.36 27.37Q125.01 27.80 118.72 27.68L118.80 27.76L118.75 27.71Q118.78 28.61 118.78 29.53L118.81 29.56L118.79 31.29L118.67 31.16Q119.22 31.33 119.63 31.29L119.59 31.25L119.63 31.29Q119.92 31.16 120.38 31.16L120.40 31.18L120.51 31.29Q120.50 31.74 120.54 32.24L120.44 32.14L120.43 32.13Q120.37 32.53 120.34 33.02L120.47 33.16L120.33 33.02Q121.40 33.02 122.42 32.98L122.55 33.10L122.47 33.02Q123.48 33.01 124.51 33.04L124.53 33.07L124.49 33.03Q125.60 33.34 126.47 33.72L126.39 33.64L126.39 33.67L126.43 33.71Q126.59 35.24 124.91 36.16L125.00 36.24L125.03 36.27Q123.23 37.06 121.51 37.06L121.54 37.08L121.68 37.23Q117.75 37.14 115.32 35.39L115.27 35.35L115.26 35.33Q114.36 33.37 114.51 30.82L114.52 30.82L114.60 30.90Q114.81 26.01 116.66 24.01L116.58 23.94L116.69 24.05Q118.60 22.11 123.28 21.81L123.17 21.69L123.14 21.67Q126.91 21.56 128.85 23.34L128.84 23.33L128.83 23.32Q128.83 23.36 128.94 23.55L128.92 23.52L129.18 23.67L129.09 23.58Q129.66 24.27 130.24 25.37L130.24 25.37L130.71 25.51Z"/><path fill="#111" d="M95.83 41.05L95.71 40.92L95.74 40.95Q91.64 29.78 86.51 24.79L86.49 24.78L86.47 24.76Q87.95 25.39 90.91 26.04L90.94 26.07L90.83 25.96Q94.40 29.91 96.95 36.57L97.07 36.69L96.91 36.53Q99.63 29.24 102.26 26.19L102.36 26.30L102.24 26.17Q104.17 26.01 106.61 25.32L106.63 25.35L106.67 25.39Q103.52 28.14 101.35 32.71L101.43 32.79L101.40 32.76Q100.90 33.29 97.51 40.90L97.62 41.00L97.54 40.92Q97.02 41.09 95.80 41.02ZM100.48 43.49L100.38 43.39L100.34 43.35Q103.77 31.13 108.33 26.44L108.28 26.39L106.81 26.90L106.74 26.83Q106.05 27.16 105.21 27.28L105.17 27.24L105.27 27.34Q105.69 26.88 106.51 26.01L106.41 25.91L106.55 26.05Q107.30 25.10 107.76 24.69L107.81 24.74L107.70 24.63Q105.49 25.27 102.06 25.77L102.23 25.93L102.10 25.80Q99.51 29.11 97.45 34.71L97.34 34.60L97.45 34.70Q95.80 30.50 93.97 28.03L93.97 28.04L93.44 28.03L93.37 27.97Q93.07 27.93 92.84 27.93L92.86 27.95L92.78 27.87Q92.68 27.65 90.96 25.60L91.02 25.65L90.98 25.61Q87.52 25.01 85.27 23.86L85.39 23.99L85.29 23.88Q91.43 29.60 95.43 41.33L95.38 41.28L96.50 41.41L96.53 41.44Q96.83 42.05 97.67 43.34L97.65 43.32L98.95 43.25L99.09 43.40Q99.85 43.43 100.50 43.51Z"/></svg>