<svg xmlns="http://www.w3.org/2000/svg" width="150" height="50" viewBox="0,0,150,50"><path fill="#222" d="M120.57 40.21L120.65 40.28L118.17 33.35L118.18 33.36Q113.79 20.75 107.85 14.35L107.87 14.37L107.92 14.42Q109.95 15.50 112.54 16.11L112.53 16.10L112.54 16.11Q117.62 22.33 121.96 35.08L122.02 35.15L121.87 35.00Q125.01 26.98 125.70 25.38L125.67 25.35L125.74 25.43Q128.01 19.70 130.83 16.39L130.89 16.45L130.89 16.46Q132.97 16.09 135.59 15.22L135.54 15.17L135.60 15.22Q130.99 19.79 127.95 27.02L128.04 27.12L127.88 26.96Q126.49 30.64 122.80 40.15L122.93 40.29L122.94 40.29Q122.29 40.21 121.72 40.17L121.69 40.14L121.67 40.12Q121.11 40.13 120.53 40.17ZM125.48 42.53L125.54 42.58L125.65 42.70Q128.35 32.61 129.92 28.57L129.97 28.63L129.97 28.63Q132.95 20.91 137.37 16.04L137.30 15.97L137.38 16.05Q136.34 16.42 134.25 17.15L134.18 17.08L135.38 15.81L135.45 15.88Q135.90 15.07 136.51 14.42L136.49 14.40L136.58 14.49Q133.66 15.38 130.65 15.95L130.75 16.04L130.73 16.03Q126.34 21.35 122.46 32.81L122.51 32.86L122.37 32.71Q118.74 22.61 115.54 18.23L115.56 18.25L115.53 18.23Q115.19 18.19 114.32 18.04L114.36 18.08L114.35 18.07Q114.07 17.64 112.47 15.58L112.55 15.67L112.50 15.61Q109.63 14.99 106.93 13.58L106.80 13.45L106.85 13.51Q113.41 20.52 117.79 33.31L117.87 33.40L117.79 33.31Q119.05 37.01 120.23 40.59L120.24 40.59L120.18 40.54Q120.56 40.61 121.40 40.50L121.48 40.58L121.51 40.61Q121.75 41.20 122.44 42.53L122.51 42.60L122.52 42.61Q123.24 42.42 123.96 42.49L124.07 42.60L124.13 42.66Q124.79 42.60 125.55 42.60Z"/><path fill="#333" d="M99.60 27.19L99.57 27.16L99.68 27.27Q100.46 27.25 101.87 27.10L101.85 27.08L101.70 26.93Q101.82 27.74 101.82 28.39L101.71 28.27L101.72 29.54L101.76 29.58Q100.91 29.57 100.07 29.64L100.14 29.71L99.98 29.55Q99.27 29.71 98.43 29.68L98.37 29.62L98.46 29.70Q95.57 35.84 92.15 40.45L92.21 40.51L92.19 40.49Q89.56 41.02 88.26 41.62L88.23 41.60L88.22 41.59Q92.48 36.03 95.53 29.74L95.44 29.66L92.86 29.70L92.93 29.77Q92.79 28.30 92.67 26.96L92.68 26.97L92.64 26.93Q94.64 27.18 96.69 27.18L96.77 27.25L98.63 23.51L98.62 23.50Q99.48 21.47 100.70 19.88L100.77 19.95L100.80 19.98Q99.20 20.09 97.60 20.09L97.59 20.08L97.59 20.08Q91.45 20.03 87.68 17.82L87.73 17.87L87.15 16.23L87.03 16.11Q86.75 15.32 86.36 14.45L86.40 14.49L86.43 14.52Q90.66 17.03 96.37 17.26L96.51 17.40L96.51 17.39Q101.68 17.66 106.82 15.68L106.75 15.61L106.79 15.65Q106.61 16.08 106.11 16.95L106.09 16.93L106.01 16.85Q102.34 21.56 99.49 27.08ZM107.56 18.17L107.63 18.24L108.69 16.29L108.72 16.32Q107.67 16.72 106.00 17.45L106.07 17.52L106.30 17.26L106.21 17.16Q106.29 16.98 106.41 16.87L106.44 16.90L106.42 16.88Q106.73 16.12 107.45 14.79L107.60 14.94L107.45 14.78Q102.22 17.17 96.48 16.95L96.43 16.90L96.53 17.00Q90.39 16.61 85.63 13.64L85.66 13.67L85.59 13.60Q86.68 15.52 87.51 18.19L87.60 18.28L87.54 18.21Q88.70 18.92 89.50 19.22L89.40 19.12L89.38 19.11Q89.55 19.46 90.00 21.32L89.98 21.30L90.10 21.42Q93.32 22.74 98.84 22.58L98.81 22.55L98.65 22.39Q98.48 23.11 96.51 26.87L96.53 26.90L96.52 26.89Q94.49 26.91 92.51 26.72L92.39 26.60L92.38 26.60Q92.41 27.38 92.41 28.26L92.46 28.31L92.43 30.00L94.08 29.97L94.27 31.57L94.10 31.40Q90.23 38.83 87.45 42.41L87.53 42.49L87.44 42.40Q89.06 41.66 90.69 41.16L90.73 41.20L90.61 41.08Q90.11 42.18 88.74 43.89L88.75 43.90L88.75 43.90Q91.76 42.65 94.20 42.42L94.26 42.48L94.28 42.51Q97.22 38.74 100.34 31.96L100.40 32.02L103.65 32.04L103.68 32.06Q103.62 31.17 103.62 30.26L103.56 30.19L103.64 28.49L103.57 28.42Q103.32 28.43 102.76 28.47L102.77 28.47L102.74 28.45Q102.25 28.54 101.98 28.54L102.09 28.65L102.08 28.64Q101.95 28.40 101.99 28.25L102.12 28.38L101.98 27.97L102.09 28.08Q104.48 22.82 107.57 18.18Z"/><path fill="#333" d="M72.25 18.43L72.28 18.46L72.33 18.52Q71.64 18.93 71.49 19.73L71.42 19.66L71.45 24.83L71.48 24.86Q72.55 24.79 74.76 24.52L74.72 24.48L74.72 24.49Q74.76 24.98 74.72 25.82L74.67 25.77L74.76 25.86Q74.59 26.48 74.59 26.94L74.70 27.05L73.17 27.19L72.97 27.00Q72.30 27.20 71.42 27.20L71.46 27.24L71.35 27.13Q71.30 31.26 71.22 39.64L71.23 39.65L71.37 39.79Q69.10 39.80 67.62 40.49L67.54 40.41L67.55 40.42Q68.75 34.38 68.63 27.15L68.66 27.18L68.49 27.01Q67.87 26.99 66.57 26.73L66.66 26.82L66.62 26.78Q66.57 25.74 66.38 23.79L66.48 23.90L66.48 23.90Q67.64 24.45 68.59 24.64L68.52 24.56L68.59 24.63Q68.54 23.98 68.24 21.50L68.22 21.48L68.19 21.45Q67.97 19.41 67.97 18.46L67.88 18.37L67.90 18.39Q67.97 16.78 69.38 16.21L69.43 16.27L69.39 16.22Q70.08 15.74 74.92 14.90L74.95 14.93L75.10 15.07Q75.86 14.89 76.70 14.78L76.67 14.75L76.66 14.74Q76.47 15.53 76.32 16.41L76.26 16.35L75.92 17.88L75.92 17.88Q75.25 17.71 74.76 17.82L74.90 17.97L74.88 17.95Q74.13 17.80 72.23 18.41ZM77.74 19.62L77.72 19.61L77.73 19.62Q77.96 17.29 78.57 14.74L78.69 14.87L78.64 14.81Q78.07 15.19 76.77 15.80L76.84 15.87L77.22 14.15L77.20 14.13Q75.88 14.22 73.41 14.75L73.37 14.72L73.51 14.86Q72.20 14.80 69.00 15.72L69.10 15.82L69.08 15.80Q67.59 16.28 67.59 18.15L67.42 17.98L67.41 17.98Q67.47 18.34 67.55 18.68L67.54 18.67L67.56 18.70Q67.82 20.06 67.94 21.39L67.91 21.36L68.21 24.14L68.22 24.15Q66.75 23.67 66.10 23.21L66.01 23.12L66.04 23.15Q66.26 24.21 66.30 25.23L66.27 25.21L66.37 27.17L66.36 27.16Q67.00 27.27 67.80 27.34L67.90 27.45L67.98 29.62L68.27 29.53L68.28 29.54Q68.23 35.73 67.24 41.18L67.22 41.15L67.23 41.17Q68.15 40.60 69.33 40.34L69.33 40.33L69.23 42.48L69.21 42.46Q70.32 42.05 71.61 42.01L71.63 42.03L71.64 42.04Q72.88 42.02 74.13 42.28L74.10 42.25L74.18 42.33Q73.26 37.26 73.26 29.30L73.34 29.38L73.41 29.45Q74.40 29.34 76.49 29.41L76.56 29.49L76.56 27.62L76.60 27.65Q76.55 26.66 76.59 25.70L76.49 25.60L76.49 25.61Q76.13 25.82 75.06 26.08L74.93 25.95L74.97 25.99Q75.01 25.35 75.13 24.02L75.02 23.91L75.03 23.92Q74.23 24.18 73.43 24.26L73.58 24.41L73.54 24.37Q73.39 22.81 73.51 21.40L73.61 21.51L73.69 21.59Q73.69 20.79 74.22 20.44L74.19 20.42L74.23 20.46Q75.26 19.84 76.08 19.77L76.08 19.77L76.08 19.77Q76.94 19.74 77.78 19.66Z"/><path fill="#333" d="M26.02 30.87L26.10 30.94L26.01 30.85Q26.21 29.53 25.39 28.62L25.40 28.62L25.28 28.51Q24.41 27.54 22.96 27.58L22.97 27.59L22.97 27.58Q20.69 27.71 19.86 29.84L19.94 29.92L19.88 29.86Q19.55 30.60 19.52 31.29L19.68 31.45L19.54 31.31Q19.30 36.14 18.39 40.48L18.43 40.52L18.34 40.43Q16.77 41.07 14.91 42.06L14.80 41.96L14.98 42.14Q17.27 35.17 17.00 27.86L16.98 27.84L16.88 27.74Q16.57 20.35 14.02 13.54L14.06 13.58L14.11 13.63Q15.81 14.86 17.82 15.55L17.96 15.69L17.93 15.65Q19.30 21.37 19.49 27.23L19.50 27.24L19.52 27.25Q20.94 25.22 23.65 25.29L23.66 25.31L23.68 25.33Q28.69 25.35 28.80 30.71L28.82 30.73L28.74 30.65Q29.03 36.50 30.40 41.15L30.40 41.15L30.23 40.97Q28.40 40.17 26.65 39.98L26.74 40.08L26.79 40.12Q26.14 36.73 26.02 30.87ZM26.44 40.42L26.30 40.28L26.34 40.32Q27.38 40.44 28.48 40.71L28.45 40.68L28.55 40.78Q28.49 40.84 29.02 42.82L29.07 42.86L29.12 42.91Q32.11 43.88 34.13 45.33L34.12 45.32L34.05 45.25Q31.47 39.59 30.94 33.27L30.80 33.13L30.93 33.27Q30.62 29.56 29.21 28.00L29.08 27.87L29.19 27.98Q29.09 27.81 28.45 27.35L28.39 27.29L28.40 27.30Q28.13 26.77 27.48 26.01L27.62 26.15L27.70 26.15L27.57 26.02Q26.69 25.14 23.57 24.87L23.52 24.83L23.66 24.96Q22.99 25.02 21.58 25.36L21.49 25.27L21.50 25.28Q21.23 20.36 20.88 17.85L20.96 17.93L21.01 17.98Q20.06 17.67 18.57 17.36L18.69 17.48L18.74 17.53Q18.52 16.74 18.25 15.26L18.26 15.26L18.30 15.30Q15.35 14.33 13.48 12.77L13.36 12.65L13.40 12.68Q16.30 19.78 16.57 27.58L16.57 27.58L16.61 27.62Q16.84 35.35 14.29 42.70L14.44 42.85L14.31 42.71Q15.21 42.09 16.35 41.60L16.37 41.62L15.60 43.86L15.67 43.93Q18.79 42.59 20.77 42.40L20.85 42.48L20.85 42.48Q21.46 37.11 21.65 33.15L21.47 32.98L21.63 33.14Q21.66 31.22 23.60 30.12L23.55 30.07L23.70 30.22Q24.13 29.88 24.66 29.92L24.56 29.82L24.67 29.94Q24.76 29.87 25.10 29.91L25.09 29.90L25.67 30.13L25.61 30.08Q25.60 30.45 25.72 30.91L25.69 30.88L25.81 31.00Q25.80 36.85 26.29 40.27Z"/><path fill="#222" d="M46.35 40.89L46.52 41.07L46.48 41.03Q42.20 29.67 37.06 24.68L37.16 24.78L37.06 24.68Q38.54 25.32 41.51 25.97L41.62 26.09L41.58 26.04Q45.19 30.03 47.74 36.69L47.63 36.58L47.74 36.70Q50.39 29.33 53.01 26.28L52.86 26.13L53.04 26.31Q54.95 26.13 57.39 25.44L57.41 25.46L57.31 25.36Q54.13 28.08 51.96 32.65L51.92 32.61L51.96 32.65Q51.71 33.43 48.32 41.04L48.21 40.94L48.19 40.91Q47.63 41.04 46.42 40.96ZM51.07 43.41L51.14 43.48L51.16 43.50Q54.43 31.13 59.00 26.44L59.09 26.54L57.45 26.88L57.39 26.81Q56.76 27.21 55.92 27.32L55.81 27.21L55.80 27.20Q56.34 26.87 57.16 25.99L57.26 26.09L57.17 26.00Q57.91 25.04 58.36 24.63L58.41 24.67L58.41 24.68Q56.30 25.42 52.87 25.91L52.86 25.90L52.85 25.89Q50.07 29.01 48.01 34.60L48.06 34.65L47.99 34.58Q46.42 30.47 44.60 27.99L44.61 28.00L44.02 27.95L44.01 27.93Q43.78 27.97 43.55 27.97L43.49 27.92L43.43 27.85Q43.39 27.70 41.68 25.65L41.57 25.53L41.56 25.53Q38.16 24.98 35.91 23.84L36.07 23.99L35.94 23.87Q42.17 29.67 46.17 41.40L46.18 41.42L47.11 41.36L47.05 41.29Q47.57 42.12 48.40 43.41L48.27 43.28L49.75 43.39L49.78 43.41Q50.42 43.33 51.07 43.41Z"/></svg>