<svg xmlns="http://www.w3.org/2000/svg" width="150" height="50" viewBox="0,0,150,50"><path fill="#222" d="M99.49 27.08L99.54 27.13L99.49 27.08Q100.47 27.26 101.88 27.11L101.74 26.97L101.85 27.08Q101.80 27.72 101.80 28.36L101.69 28.25L101.67 29.49L101.73 29.55Q100.96 29.61 100.12 29.69L100.02 29.59L100.12 29.69Q99.20 29.65 98.36 29.61L98.35 29.59L98.39 29.63Q95.63 35.90 92.20 40.50L92.16 40.46L92.13 40.43Q89.68 41.14 88.39 41.75L88.23 41.59L88.22 41.58Q92.37 35.91 95.42 29.63L95.56 29.77L92.82 29.66L92.74 29.58Q92.83 28.34 92.72 27.01L92.65 26.94L92.63 26.92Q94.54 27.08 96.59 27.08L96.69 27.17L98.65 23.53L98.62 23.51Q99.50 21.49 100.72 19.89L100.71 19.89L100.75 19.92Q99.30 20.19 97.70 20.19L97.71 20.20L97.61 20.10Q91.55 20.13 87.78 17.92L87.75 17.89L87.09 16.17L87.12 16.20Q86.83 15.41 86.45 14.54L86.40 14.48L86.31 14.39Q90.65 17.02 96.36 17.25L96.47 17.36L96.46 17.35Q101.62 17.59 106.76 15.61L106.82 15.68L106.72 15.58Q106.49 15.96 105.99 16.83L106.03 16.87L105.97 16.81Q102.36 21.58 99.51 27.10ZM107.74 18.36L107.65 18.26L108.66 16.26L108.69 16.30Q107.62 16.67 105.94 17.39L106.04 17.49L106.24 17.19L106.15 17.10Q106.31 17.00 106.43 16.89L106.43 16.89L106.49 16.95Q106.75 16.14 107.47 14.81L107.52 14.85L107.58 14.92Q102.24 17.19 96.49 16.96L96.47 16.94L96.53 17.00Q90.49 16.71 85.73 13.74L85.74 13.75L85.68 13.69Q86.74 15.58 87.58 18.25L87.53 18.20L87.54 18.21Q88.71 18.93 89.51 19.23L89.46 19.18L89.55 19.28Q89.66 19.57 90.12 21.44L90.09 21.41L90.09 21.41Q93.14 22.56 98.66 22.40L98.72 22.46L98.81 22.56Q98.40 23.02 96.42 26.79L96.45 26.82L96.49 26.86Q94.47 26.89 92.49 26.70L92.42 26.63L92.52 26.74Q92.45 27.42 92.45 28.30L92.43 28.28L92.42 29.98L94.14 30.03L94.25 31.55L94.08 31.38Q90.28 38.88 87.50 42.46L87.50 42.46L87.57 42.53Q89.09 41.69 90.72 41.19L90.79 41.26L90.64 41.11Q90.07 42.14 88.70 43.85L88.62 43.77L88.69 43.84Q91.86 42.75 94.30 42.52L94.30 42.52L94.35 42.57Q97.25 38.78 100.37 32.00L100.25 31.88L103.79 32.18L103.78 32.17Q103.70 31.25 103.70 30.34L103.68 30.32L103.75 28.60L103.71 28.56Q103.47 28.58 102.91 28.62L102.79 28.49L102.89 28.60Q102.24 28.54 101.98 28.54L101.99 28.56L102.02 28.59Q102.06 28.51 102.10 28.36L101.97 28.23L102.00 27.99L102.02 28.02Q104.63 22.97 107.71 18.33Z"/><path fill="#222" d="M20.97 27.56L21.10 27.70L21.06 27.66Q18.90 27.74 17.62 29.24L17.51 29.13L17.57 29.19Q16.21 30.61 16.10 32.90L16.17 32.96L16.13 32.93Q16.08 35.66 16.92 36.61L16.94 36.63L16.89 36.58Q17.89 37.73 20.21 37.58L20.30 37.67L20.30 37.67Q24.87 37.29 25.25 34.29L25.28 34.31L25.22 34.25Q25.37 33.49 25.37 32.69L25.35 32.66L25.37 32.69Q25.38 30.72 24.24 29.20L24.24 29.19L24.28 29.24Q23.03 27.64 21.09 27.68ZM25.87 37.72L25.79 37.64L25.91 37.75Q24.34 39.81 19.97 40.04L20.11 40.18L20.00 40.07Q15.76 40.18 14.13 39.07L14.28 39.22L14.20 39.15Q13.23 38.21 13.08 36.50L13.10 36.52L13.03 36.45Q13.16 35.52 13.35 33.65L13.28 33.58L13.28 33.58Q13.66 29.16 14.88 27.34L14.94 27.40L14.99 27.45Q16.54 24.89 20.38 24.92L20.50 25.04L20.47 25.01Q23.00 25.07 25.29 27.39L25.18 27.28L25.33 27.44Q25.37 21.53 26.97 15.02L26.97 15.03L26.97 15.03Q28.87 14.60 30.73 13.76L30.64 13.67L30.68 13.72Q28.19 20.44 27.93 27.44L27.83 27.35L27.85 27.36Q27.51 34.49 29.64 41.07L29.65 41.08L29.71 41.14Q28.09 40.55 26.38 40.17L26.33 40.12L26.44 40.23Q26.01 38.81 25.86 37.71ZM28.96 43.25L28.89 43.17L28.90 43.19Q31.04 43.80 33.59 45.33L33.55 45.28L33.63 45.37Q29.78 38.16 29.62 29.86L29.60 29.84L29.73 29.97Q29.47 21.64 32.56 14.25L32.58 14.28L32.62 14.32Q32.03 14.87 30.58 15.52L30.58 15.51L30.46 15.40Q30.89 14.34 31.49 13.12L31.42 13.04L31.54 13.17Q29.10 14.18 26.66 14.76L26.56 14.65L26.73 14.82Q25.25 20.57 24.98 26.67L24.83 26.51L24.96 26.64Q22.89 24.65 20.38 24.54L20.38 24.54L20.47 24.63Q17.01 24.48 15.11 26.58L15.20 26.67L15.10 26.57Q13.39 28.93 12.97 33.62L13.10 33.74L13.09 33.73Q12.79 36.44 12.79 36.86L12.80 36.87L12.67 36.74Q12.78 38.53 13.93 39.59L14.05 39.72L13.96 39.63Q14.26 39.92 14.45 40.00L14.41 39.96L14.88 40.63L14.78 40.52Q15.73 41.86 18.70 42.13L18.85 42.27L18.75 42.17Q20.92 42.29 22.29 42.36L22.29 42.37L22.41 42.48Q26.60 42.68 28.32 41.34L28.29 41.32L28.36 41.39Q28.51 42.11 28.97 43.25ZM22.58 29.86L22.71 29.99L22.68 29.96Q23.63 29.89 24.47 30.38L24.45 30.36L24.60 30.51Q24.97 31.68 25.04 32.71L25.16 32.82L24.98 32.64Q25.40 36.98 20.37 37.32L20.44 37.39L20.42 37.37Q19.46 37.32 18.36 37.06L18.37 37.07L18.40 37.10Q18.14 36.46 18.07 35.93L18.01 35.88L17.97 35.83Q18.12 35.37 18.15 34.76L17.97 34.57L18.12 34.73Q18.46 31.34 21.09 30.35L20.95 30.21L21.08 30.34Q22.01 29.94 22.70 29.98Z"/><path fill="#222" d="M67.89 33.24L67.90 33.25L67.96 33.32Q67.87 36.19 66.69 40.83L66.58 40.72L66.60 40.75Q64.76 41.23 63.16 42.03L63.14 42.01L63.29 42.15Q65.83 35.06 65.56 27.64L65.59 27.67L65.64 27.72Q65.29 20.24 62.20 13.51L62.18 13.48L62.22 13.53Q64.14 14.76 66.01 15.33L65.99 15.31L66.04 15.37Q68.27 22.43 68.27 29.09L68.27 29.09L68.24 29.06Q68.11 30.38 68.04 31.87L68.07 31.90L68.01 31.84Q69.20 30.67 74.41 25.72L74.36 25.66L74.37 25.67Q75.61 25.81 76.60 25.73L76.56 25.69L78.64 25.53L78.51 25.40Q75.54 28.60 71.24 32.37L71.11 32.23L71.18 32.31Q74.47 34.98 80.94 40.81L80.99 40.86L80.98 40.85Q78.35 40.04 75.38 39.85L75.36 39.84L75.24 39.72Q72.86 37.75 67.99 33.34ZM77.82 42.45L77.91 42.54L77.81 42.44Q82.66 43.40 85.78 45.34L85.72 45.28L85.67 45.23Q84.59 44.04 81.96 41.64L81.86 41.54L81.87 41.55Q82.19 41.72 82.46 41.83L82.31 41.68L82.35 41.73Q80.35 39.80 78.10 37.90L78.11 37.90L73.56 33.89L73.55 33.87Q78.47 29.62 80.91 26.73L81.10 26.92L81.05 26.87Q79.83 26.94 77.35 27.21L77.40 27.26L77.39 27.24Q78.81 25.62 79.50 24.79L79.65 24.94L79.65 24.94Q76.78 25.34 74.31 25.34L74.41 25.45L74.30 25.34Q73.00 26.74 70.25 29.40L70.21 29.36L70.28 29.43Q70.09 23.46 69.11 17.63L69.15 17.67L69.26 17.78Q68.44 17.50 66.95 17.23L66.99 17.27L66.97 17.25Q66.92 16.63 66.47 15.15L66.39 15.06L66.33 15.01Q63.82 14.33 61.57 12.77L61.51 12.70L61.50 12.69Q65.01 19.59 65.36 27.70L65.26 27.60L65.36 27.70Q65.60 35.52 62.60 42.76L62.66 42.82L62.68 42.84Q63.30 42.47 64.63 41.82L64.72 41.91L64.59 41.79Q64.50 42.76 63.85 44.20L63.77 44.12L63.67 44.03Q66.61 43.04 68.74 42.66L68.75 42.67L68.77 42.69Q69.24 40.07 69.73 35.81L69.78 35.86L69.83 35.90Q72.32 38.06 77.77 42.40Z"/><path fill="#222" d="M48.55 20.03L48.61 20.09L48.68 20.16Q44.34 20.12 40.64 19.13L40.66 19.14L40.61 19.09Q42.15 23.68 42.34 28.51L42.29 28.47L42.36 28.54Q42.59 33.37 41.37 37.98L41.23 37.83L41.21 37.82Q44.16 37.34 47.66 37.19L47.67 37.19L47.69 37.21Q51.64 37.05 53.43 34.61L53.34 34.53L53.32 34.51Q54.77 32.37 54.96 28.26L55.13 28.44L55.00 28.31Q55.20 26.67 54.74 24.96L54.69 24.92L54.72 24.95Q53.43 20.19 48.71 20.19ZM36.69 42.09L36.80 42.20L36.63 42.03Q39.62 36.45 39.62 29.75L39.58 29.72L39.70 29.83Q39.66 21.27 35.36 14.26L35.30 14.21L35.37 14.27Q40.52 16.83 48.78 17.02L48.92 17.16L48.83 17.07Q57.72 17.28 58.06 24.44L58.13 24.51L58.06 24.44Q58.17 27.14 58.13 28.58L58.03 28.48L58.19 28.64Q58.10 33.31 57.26 35.48L57.28 35.50L57.14 35.36Q56.80 36.54 56.04 37.38L55.95 37.28L56.03 37.36Q54.73 38.96 52.10 39.46L52.02 39.38L51.98 39.33Q50.43 39.65 47.42 39.88L47.42 39.87L47.54 40.00Q41.30 40.34 36.69 42.09ZM54.70 42.06L54.66 42.01L54.57 41.92Q57.41 41.68 59.05 40.20L59.14 40.29L59.14 40.29Q60.27 38.45 60.23 35.71L60.12 35.60L60.09 35.57Q60.15 34.25 60.00 30.75L60.03 30.79L59.65 26.22L59.77 26.34Q59.44 23.91 58.49 21.82L58.49 21.83L58.62 21.95Q58.06 20.98 57.38 20.33L57.34 20.29L57.26 20.06L57.30 20.10Q55.59 17.13 51.17 16.75L51.20 16.78L51.29 16.86Q48.54 16.67 41.54 15.95L41.46 15.87L41.47 15.88Q38.28 15.51 34.59 13.49L34.63 13.53L34.50 13.40Q39.39 20.84 39.39 29.60L39.39 29.60L39.32 29.53Q39.40 36.62 36.05 42.78L35.99 42.72L36.07 42.80Q36.66 42.44 37.99 41.94L38.00 41.95L38.16 42.11Q37.70 42.83 36.83 44.32L36.86 44.35L36.84 44.33Q39.82 43.20 43.17 42.70L43.29 42.83L43.16 42.69Q45.33 42.47 48.99 42.36L48.93 42.30L49.00 42.37Q52.83 42.20 54.66 42.01ZM54.77 28.46L54.68 28.36L54.75 28.43Q54.32 36.39 47.62 36.77L47.53 36.67L47.64 36.79Q45.60 36.80 43.54 37.07L43.63 37.15L43.56 37.08Q44.43 33.39 44.43 29.73L44.35 29.65L44.44 29.74Q44.23 25.83 43.50 21.99L43.59 22.07L43.50 21.98Q45.83 22.41 50.52 22.41L50.64 22.54L50.63 22.53Q51.90 22.28 53.54 23.23L53.64 23.33L53.65 23.34Q54.86 25.54 54.71 28.40Z"/><path fill="#111" d="M122.67 20.15L122.55 20.03L122.58 20.06Q118.21 19.99 114.52 19.00L114.70 19.19L114.69 19.17Q116.12 23.65 116.31 28.48L116.28 28.45L116.37 28.55Q116.57 33.35 115.35 37.95L115.21 37.82L115.34 37.95Q118.22 37.40 121.72 37.24L121.67 37.20L121.72 37.24Q125.48 36.89 127.27 34.45L127.40 34.58L127.24 34.42Q128.93 32.54 129.12 28.43L128.97 28.28L129.01 28.31Q129.13 26.61 128.67 24.90L128.63 24.86L128.57 24.79Q127.41 20.17 122.69 20.17ZM110.73 42.13L110.83 42.23L110.70 42.10Q113.61 36.44 113.61 29.74L113.53 29.66L113.70 29.83Q113.72 21.33 109.42 14.32L109.23 14.13L109.37 14.28Q114.51 16.83 122.77 17.02L122.74 16.98L122.86 17.11Q131.64 17.20 131.98 24.36L131.99 24.37L132.02 24.40Q132.18 27.14 132.14 28.59L132.20 28.65L132.22 28.67Q132.06 33.27 131.22 35.44L131.27 35.49L131.23 35.45Q130.73 36.47 129.96 37.30L130.05 37.39L130.00 37.34Q128.72 38.95 126.09 39.45L126.09 39.45L125.95 39.31Q124.43 39.65 121.42 39.87L121.38 39.83L121.48 39.94Q115.27 40.31 110.66 42.06ZM128.69 42.05L128.70 42.06L128.66 42.02Q131.33 41.60 132.97 40.11L133.12 40.27L133.06 40.21Q134.18 38.36 134.14 35.62L134.09 35.57L134.12 35.60Q134.16 34.26 134.01 30.76L134.06 30.81L133.69 26.25L133.62 26.19Q133.50 23.98 132.55 21.89L132.48 21.81L132.46 21.80Q132.04 20.95 131.35 20.31L131.41 20.36L131.41 20.21L131.40 20.19Q129.61 17.15 125.19 16.77L125.28 16.86L125.15 16.73Q122.54 16.67 115.53 15.94L115.53 15.94L115.61 16.02Q112.18 15.41 108.49 13.39L108.62 13.52L108.52 13.42Q113.43 20.89 113.43 29.64L113.31 29.52L113.33 29.53Q113.37 36.59 110.02 42.75L110.05 42.78L110.10 42.83Q110.70 42.48 112.03 41.98L112.12 42.08L112.10 42.06Q111.70 42.83 110.82 44.32L110.83 44.32L110.94 44.43Q113.94 43.32 117.29 42.82L117.17 42.71L117.34 42.88Q119.26 42.40 122.91 42.28L122.98 42.35L123.00 42.37Q126.87 42.24 128.70 42.05ZM128.77 28.45L128.74 28.42L128.70 28.38Q128.41 36.47 121.71 36.85L121.56 36.70L121.57 36.71Q119.77 36.97 117.71 37.23L117.55 37.07L117.63 37.15Q118.34 33.29 118.34 29.64L118.30 29.60L118.26 29.56Q118.41 26.01 117.68 22.17L117.58 22.07L117.51 22.00Q119.90 22.48 124.58 22.48L124.61 22.51L124.54 22.44Q125.86 22.24 127.50 23.19L127.56 23.25L127.58 23.27Q128.85 25.53 128.70 28.38Z"/></svg>