<svg xmlns="http://www.w3.org/2000/svg" width="150" height="50" viewBox="0,0,150,50"><path fill="#333" d="M129.28 23.28L129.36 23.36L129.33 23.32Q127.56 19.19 121.35 19.38L121.37 19.40L121.40 19.43Q117.03 19.59 115.05 21.04L115.02 21.01L115.01 21.00Q112.62 22.76 112.62 26.87L112.53 26.78L112.61 28.72L112.59 28.71Q112.56 37.51 121.59 37.51L121.58 37.50L121.64 37.57Q123.63 37.50 125.12 36.70L125.07 36.65L125.22 36.80Q126.92 35.65 126.77 33.78L126.74 33.75L126.75 33.77Q126.66 31.77 122.97 30.86L122.97 30.86L121.05 30.88L121.05 30.88Q120.10 30.89 119.15 30.92L119.11 30.88L119.15 30.92Q119.12 29.94 119.08 28.04L119.00 27.95L119.11 28.06Q126.61 27.92 130.80 27.58L130.85 27.63L130.91 27.69Q130.91 28.56 130.91 29.36L130.78 29.23L130.82 29.27Q130.79 30.04 130.83 30.84L130.80 30.81L130.94 30.95Q129.77 30.88 129.77 30.88L129.79 30.91L129.81 30.93Q128.38 30.86 128.76 30.86L128.68 30.78L128.81 30.91Q129.86 32.49 130.24 34.47L130.33 34.57L130.24 34.47Q130.33 35.18 130.33 35.64L130.40 35.71L130.28 35.58Q130.43 40.38 121.64 40.38L121.49 40.23L121.50 40.24Q114.37 40.23 111.78 38.14L111.92 38.27L111.94 38.30Q109.80 35.78 109.80 30.71L109.80 30.71L109.93 30.84Q109.91 29.75 109.76 27.05L109.65 26.94L109.75 27.04Q109.55 24.63 109.58 23.26L109.67 23.35L109.65 23.33Q109.66 20.37 111.03 18.77L111.04 18.78L111.12 18.86Q113.65 16.78 118.52 16.59L118.55 16.62L121.26 16.59L121.18 16.51Q124.31 16.44 127.73 16.85L127.60 16.72L127.72 16.85Q131.51 17.36 132.46 20.60L132.34 20.47L132.39 20.52Q131.39 21.46 129.29 23.29ZM130.75 25.55L130.85 25.53L130.79 25.47Q131.98 24.37 133.84 22.39L133.94 22.49L133.92 22.47Q133.52 21.42 132.53 19.71L132.65 19.83L132.63 19.81Q131.33 17.03 127.52 16.38L127.67 16.53L127.60 16.45Q125.47 16.34 121.17 16.04L121.13 16.00L118.55 16.24L118.39 16.08Q113.23 16.29 110.65 18.27L110.63 18.25L110.69 18.31Q109.37 20.00 109.25 23.08L109.20 23.03L109.22 23.05Q109.33 22.70 109.55 28.18L109.41 28.04L109.49 28.12Q109.43 29.39 109.50 32.13L109.56 32.18L109.54 32.17Q109.80 36.69 111.55 38.63L111.58 38.65L111.51 38.58Q111.92 39.46 112.80 40.33L112.80 40.33L112.74 40.27Q115.76 42.27 121.28 42.61L121.18 42.50L124.06 42.69L124.13 42.76Q125.62 42.77 127.64 42.65L127.61 42.62L127.70 42.71Q129.10 42.59 131.19 42.05L131.31 42.17L131.19 42.05Q133.20 41.62 133.16 39.30L133.07 39.21L133.23 39.37Q133.11 37.99 132.04 35.21L132.17 35.34L132.01 35.18Q131.73 34.29 131.20 33.49L131.32 33.61L131.24 33.54Q131.77 33.50 132.95 33.69L133.00 33.73L133.03 33.76Q132.80 30.22 132.84 29.54L132.80 29.50L132.69 29.39Q132.44 29.52 132.02 29.48L131.93 29.39L131.91 29.37Q131.50 29.30 131.12 29.38L131.10 29.36L131.18 29.44Q131.21 28.36 131.28 27.30L131.17 27.19L131.25 27.26Q125.03 27.82 118.74 27.70L118.81 27.76L118.71 27.67Q118.68 28.51 118.68 29.43L118.67 29.42L118.71 31.21L118.80 31.30Q119.09 31.21 119.51 31.17L119.53 31.19L119.48 31.14Q119.92 31.16 120.37 31.16L120.42 31.21L120.51 31.29Q120.36 31.60 120.40 32.10L120.54 32.24L120.41 32.11Q120.41 32.57 120.37 33.06L120.38 33.06L120.42 33.11Q121.43 33.05 122.46 33.01L122.58 33.13L122.48 33.03Q123.49 33.02 124.52 33.06L124.56 33.10L124.48 33.02Q125.67 33.41 126.55 33.79L126.40 33.64L126.57 33.85L126.56 33.84Q126.61 35.26 124.94 36.18L124.92 36.16L125.06 36.30Q123.30 37.13 121.59 37.13L121.54 37.09L121.62 37.16Q117.80 37.19 115.36 35.44L115.39 35.47L115.25 35.32Q114.46 33.46 114.61 30.91L114.59 30.89L114.61 30.91Q114.92 26.12 116.76 24.12L116.69 24.05L116.63 23.99Q118.50 22.01 123.18 21.71L123.25 21.77L123.10 21.63Q126.89 21.53 128.83 23.32L128.79 23.28L128.84 23.33Q128.92 23.44 129.03 23.63L129.08 23.69L129.08 23.58L129.16 23.65Q129.79 24.40 130.36 25.50L130.25 25.39L130.72 25.51Z"/><path fill="#444" d="M70.41 29.86L70.48 29.93L70.49 29.95Q70.15 29.83 69.85 29.83L69.78 29.77L69.92 29.90Q68.42 29.74 66.97 30.57L66.98 30.58L67.13 30.73Q65.81 31.85 65.81 33.76L65.78 33.72L65.78 33.72Q65.73 37.10 67.25 38.43L67.26 38.44L67.33 38.50Q68.19 39.59 70.47 39.59L70.59 39.71L70.58 39.70Q70.69 39.58 70.99 39.58L71.11 39.69L71.00 39.58Q72.72 39.59 73.86 37.95L73.84 37.93L73.99 38.09Q74.86 36.40 74.78 34.61L74.78 34.62L74.95 34.78Q74.97 34.27 74.97 33.85L75.02 33.90L74.86 33.74Q74.88 31.97 73.51 30.81L73.67 30.97L73.65 30.95Q72.29 29.80 70.50 29.95ZM74.97 40.10L75.01 40.13L74.93 40.06Q73.84 41.90 70.11 42.01L70.13 42.03L70.20 42.10Q66.81 42.22 65.21 40.62L65.19 40.59L65.15 40.55Q63.81 38.91 63.01 34.11L63.00 34.10L62.95 34.05Q62.71 32.36 62.71 31.11L62.60 31.00L62.53 30.93Q62.58 29.19 63.30 28.12L63.38 28.20L63.25 28.07Q64.77 26.85 67.74 26.85L67.67 26.78L67.65 26.75Q74.00 26.79 75.90 29.37L75.93 29.41L75.91 29.38Q76.00 28.49 76.42 26.89L76.53 27.00L76.54 27.01Q77.74 26.65 80.18 25.85L80.21 25.88L80.17 25.84Q77.80 31.54 77.57 37.86L77.59 37.87L77.44 37.73Q77.24 43.93 79.37 49.75L79.48 49.85L79.51 49.88Q77.80 49.28 76.01 49.01L75.94 48.95L76.00 49.00Q75.04 45.00 74.92 40.05ZM75.75 49.33L75.64 49.22L75.62 49.19Q76.45 49.45 77.86 49.76L77.77 49.67L77.77 49.67Q78.02 50.41 78.59 51.82L78.57 51.81L78.55 51.78Q81.26 52.63 83.54 53.92L83.42 53.80L83.53 53.91Q79.50 47.32 79.50 38.80L79.49 38.79L79.36 38.66Q79.51 32.45 81.99 26.67L81.82 26.50L81.99 26.67Q81.18 26.85 79.81 27.50L79.81 27.50L79.88 27.57Q80.20 26.79 80.85 25.23L80.73 25.11L80.88 25.26Q79.33 25.80 76.13 26.67L76.06 26.61L76.18 26.72Q76.05 27.28 75.74 28.46L75.72 28.43L75.66 28.37Q73.69 26.51 67.56 26.36L67.56 26.37L67.62 26.42Q64.41 26.33 63.04 27.82L63.00 27.78L62.99 27.77Q62.26 28.95 62.30 30.85L62.32 30.87L62.29 30.84Q62.42 33.86 63.41 37.63L63.30 37.52L63.37 37.59Q64.09 40.06 65.00 41.01L64.84 40.85L65.32 41.33L65.30 41.31Q66.43 44.04 71.87 44.26L71.90 44.30L72.00 44.40Q72.91 44.31 74.73 44.01L74.83 44.11L74.83 44.10Q74.98 46.88 75.59 49.16ZM72.27 32.14L72.32 32.19L72.21 32.08Q73.31 32.11 74.14 32.41L74.33 32.60L74.27 32.54Q74.34 32.95 74.45 33.56L74.51 33.62L74.57 33.68Q74.63 34.19 74.55 34.80L74.61 34.87L74.48 34.73Q74.57 36.73 73.55 38.02L73.45 37.93L73.41 37.88Q72.33 39.39 70.46 39.20L70.52 39.26L70.49 39.23Q69.17 39.21 68.22 38.79L68.23 38.80L68.27 38.84Q67.97 38.08 67.97 36.87L67.98 36.88L67.82 36.71Q67.96 36.55 67.96 36.25L67.93 36.21L67.93 36.21Q67.81 34.35 69.15 33.18L69.30 33.34L69.22 33.26Q70.50 32.04 72.25 32.12Z"/><path fill="#222" d="M17.06 19.24L17.07 19.25L17.03 19.21Q18.20 23.73 18.35 26.93L18.21 26.79L18.25 26.82Q18.74 26.86 23.12 26.97L23.14 27.00L23.14 27.00Q25.62 26.96 26.00 23.50L26.16 23.66L26.05 23.55Q26.21 21.77 25.30 20.85L25.40 20.95L25.40 20.95Q24.10 20.04 22.12 19.88L22.12 19.88L22.03 19.80Q18.87 19.64 17.01 19.19ZM18.37 28.78L18.47 28.87L18.35 28.75Q18.65 34.88 16.86 40.82L16.74 40.70L16.86 40.81Q15.54 41.05 12.95 42.08L12.92 42.05L12.91 42.05Q15.76 35.57 15.42 28.11L15.35 28.04L15.47 28.16Q15.18 20.82 11.86 14.31L11.76 14.20L11.77 14.22Q16.59 16.98 23.56 16.98L23.68 17.10L23.68 17.11Q29.33 17.12 29.60 20.66L29.52 20.59L29.54 20.60Q29.64 21.23 29.56 21.84L29.59 21.88L29.52 23.02L29.48 22.98Q28.68 26.94 26.55 28.66L26.60 28.71L26.42 28.52Q25.67 29.26 24.64 29.26L24.73 29.35L22.17 29.37L22.04 29.25Q27.64 36.48 32.17 41.05L32.13 41.01L32.19 41.07Q29.94 40.27 27.01 39.93L27.12 40.04L27.08 39.99Q23.22 35.94 18.30 28.71ZM26.92 40.33L26.94 40.35L27.31 40.41L28.59 41.70L28.61 41.71Q29.16 42.23 29.81 42.84L29.80 42.83L29.82 42.85Q33.36 43.46 36.94 45.33L36.92 45.31L36.84 45.22Q30.00 38.58 24.60 31.65L24.58 31.63L26.38 31.69L26.38 31.68Q29.29 31.51 30.62 26.98L30.78 27.14L30.73 27.09Q31.40 24.86 31.40 22.16L31.41 22.17L31.38 22.14Q31.46 19.93 29.75 19.29L29.69 19.23L29.72 19.26Q29.66 18.93 29.09 18.25L28.91 18.07L29.04 18.20Q27.31 16.70 23.65 16.62L23.68 16.65L23.63 16.59Q15.68 16.37 11.00 13.37L11.05 13.42L11.14 13.51Q14.73 20.18 15.07 27.87L15.19 27.99L15.27 28.07Q15.61 36.02 12.49 42.87L12.42 42.81L12.37 42.76Q13.67 42.24 14.47 41.93L14.35 41.81L13.36 44.10L13.45 44.19Q16.22 43.18 18.88 42.68L18.90 42.71L18.84 42.64Q20.06 37.47 20.25 32.25L20.36 32.36L20.40 32.40Q23.85 37.30 27.01 40.42ZM25.67 22.41L25.67 22.40L25.78 22.52Q25.74 22.71 25.74 23.05L25.85 23.15L25.69 23.57L25.82 23.70Q25.67 24.65 24.99 25.60L25.14 25.76L25.10 25.72Q24.46 26.45 23.55 26.64L23.51 26.60L23.53 26.63Q23.31 26.67 21.72 26.71L21.63 26.63L21.81 26.80Q21.16 26.77 20.32 26.65L20.30 26.63L20.36 26.69Q20.28 25.20 19.93 22.15L19.84 22.06L19.83 22.05Q21.28 22.28 21.96 22.28L21.97 22.28L22.04 22.35Q23.87 22.35 25.81 22.54Z"/><path fill="#444" d="M47.28 41.39L47.21 41.33L47.26 41.37Q44.39 41.55 43.13 41.01L43.16 41.04L43.03 40.91Q41.11 40.14 41.19 37.66L41.23 37.70L41.25 37.72Q41.31 34.24 41.31 34.81L41.41 34.91L41.34 34.84Q41.49 29.66 38.63 24.83L38.54 24.74L38.46 24.65Q40.60 25.77 42.58 26.15L42.54 26.10L42.52 26.09Q44.31 30.77 44.20 35.26L44.03 35.09L44.09 35.16Q43.90 36.60 44.73 37.82L44.70 37.78L44.74 37.82Q45.74 39.25 47.27 39.05L47.27 39.06L47.68 38.97L47.60 38.89Q48.93 38.81 49.74 38.05L49.81 38.12L49.68 37.99Q50.59 37.32 50.59 36.37L50.57 36.35L50.66 36.44Q50.62 36.17 50.59 35.98L50.53 35.92L50.54 35.94Q50.39 30.61 51.53 26.27L51.53 26.27L51.53 26.26Q52.60 26.23 53.59 26.00L53.53 25.94L55.64 25.54L55.65 25.54Q53.12 30.59 53.42 36.15L53.42 36.14L53.29 36.02Q53.65 39.27 51.94 40.41L51.78 40.25L51.86 40.34Q50.63 41.27 47.31 41.43ZM49.60 43.78L49.67 43.85L49.67 43.85Q53.03 43.90 54.86 43.14L54.81 43.10L54.77 43.06Q55.79 42.40 55.79 40.99L55.85 41.05L55.82 41.02Q55.86 40.15 55.59 38.59L55.61 38.61L55.46 38.46Q55.15 35.48 55.53 32.48L55.46 32.40L55.52 32.47Q55.84 29.25 57.25 26.50L57.15 26.40L57.30 26.56Q56.60 26.80 55.27 27.22L55.23 27.18L55.16 27.11Q55.54 26.66 55.85 26.09L55.83 26.07L56.38 24.91L56.45 24.98Q54.50 25.61 51.34 26.11L51.21 25.98L51.36 26.13Q50.11 30.89 50.26 36.00L50.25 35.98L50.17 35.91Q50.33 38.08 47.67 38.58L47.53 38.44L47.34 38.71L47.17 38.69L46.24 38.56L46.15 38.47Q46.01 37.54 46.05 37.04L46.16 37.15L46.03 37.02Q46.18 32.44 45.49 28.03L45.54 28.08L44.50 27.95L44.61 28.06Q44.08 28.03 43.55 27.91L43.54 27.91L43.57 27.94Q43.14 26.48 42.88 25.72L42.75 25.59L42.88 25.72Q40.05 25.25 37.80 23.96L37.74 23.89L37.77 23.92Q40.05 27.57 40.77 30.96L40.71 30.90L40.59 30.78Q41.08 32.99 40.93 36.49L40.95 36.51L40.95 36.51Q40.96 36.64 40.89 37.74L40.97 37.82L41.02 37.88Q40.75 40.11 42.12 41.06L42.19 41.14L42.25 41.20Q42.50 43.31 49.50 43.69Z"/><path fill="#222" d="M89.56 47.04L89.57 47.04L89.52 47.00Q88.72 47.34 86.82 47.64L86.70 47.52L86.78 47.61Q88.09 45.45 89.12 44.16L89.06 44.09L89.05 44.09Q90.83 44.42 90.98 44.42L91.05 44.49L90.89 44.32Q91.19 44.40 91.73 44.29L91.84 44.41L91.87 44.43Q92.59 44.39 92.78 44.39L92.65 44.27L92.64 44.26Q95.34 44.13 95.26 41.96L95.19 41.89L95.21 41.91Q95.19 40.44 95.08 34.20L95.06 34.19L94.95 34.08Q95.00 30.62 95.07 26.47L95.02 26.41L96.46 26.26L96.52 26.32Q97.03 26.07 97.72 25.84L97.77 25.89L97.77 25.89Q97.51 30.27 97.54 34.65L97.56 34.67L97.60 34.71Q97.70 39.15 98.23 43.53L98.13 43.43L98.27 43.56Q98.25 43.77 98.25 44.04L98.24 44.03L98.35 44.13Q98.22 45.64 96.54 46.02L96.67 46.15L96.48 45.96Q93.50 46.48 89.65 47.13ZM96.44 22.93L94.22 19.71L94.28 19.77Q95.20 18.26 97.03 15.48L97.11 15.57L97.14 15.59Q97.87 16.55 99.20 18.38L99.22 18.39L96.45 22.93ZM99.31 49.40L99.37 49.46L99.37 49.46Q99.87 49.46 100.63 49.12L100.62 49.11L100.76 49.25Q101.05 48.51 101.05 48.05L100.98 47.98L101.02 48.02Q100.97 47.63 100.85 47.02L100.89 47.06L100.96 47.13Q99.49 40.60 99.49 32.68L99.55 32.74L99.62 32.80Q99.52 29.85 99.67 26.96L99.73 27.01L99.66 26.95Q99.13 27.14 97.99 27.44L98.11 27.57L97.99 27.45Q98.01 26.97 98.04 26.43L97.98 26.37L98.08 25.28L98.09 25.30Q96.49 26.06 94.71 26.10L94.57 25.97L94.60 25.99Q94.69 30.46 94.73 34.04L94.59 33.91L94.85 41.89L94.76 41.80Q94.95 43.90 92.78 44.01L92.68 43.91L92.61 43.84Q92.56 44.02 92.05 44.08L91.99 44.02L91.93 43.96Q91.47 44.07 91.21 44.07L91.15 44.02L91.18 44.05Q90.68 44.00 89.12 43.58L89.04 43.50L89.10 43.57Q88.71 44.24 87.61 45.92L87.50 45.81L86.09 48.25L86.03 48.19Q86.84 47.93 88.48 47.55L88.47 47.55L88.08 48.33L87.57 49.01L87.59 49.02Q89.82 48.82 91.15 48.89L91.24 48.98L91.09 48.83Q93.50 49.11 99.44 49.53ZM96.37 23.62L96.39 23.64L96.60 22.97L96.59 22.96Q97.12 23.56 98.07 25.16L98.06 25.16L98.09 25.18Q99.56 22.01 101.12 18.92L101.11 18.92L101.01 18.82Q100.07 17.27 99.12 15.98L99.21 16.06L99.24 16.09Q98.99 16.26 98.64 16.79L98.59 16.74L98.62 16.77Q98.24 16.16 97.26 14.87L97.29 14.90L97.24 14.86Q96.11 16.50 93.79 19.85L93.70 19.77L93.64 19.71Q94.69 21.06 96.40 23.65Z"/></svg>