<svg xmlns="http://www.w3.org/2000/svg" width="150" height="50" viewBox="0,0,150,50"><path fill="#444" d="M81.28 34.74L81.26 34.72L81.27 34.73Q81.33 38.36 78.17 39.66L78.16 39.65L78.03 39.52Q76.23 40.42 71.82 40.57L71.70 40.46L71.69 40.45Q66.91 40.58 64.67 39.40L64.81 39.55L64.68 39.42Q62.86 38.13 63.01 34.78L63.03 34.80L63.06 34.83Q63.12 34.24 63.31 32.26L63.23 32.18L63.23 32.18Q63.47 30.71 63.47 29.72L63.47 29.72L63.35 29.59Q63.50 21.75 59.31 14.32L59.16 14.17L59.22 14.23Q60.37 14.89 63.34 15.96L63.30 15.92L63.27 15.89Q66.25 22.72 66.25 30.10L66.21 30.06L66.13 29.98Q66.27 30.73 66.18 31.91L66.17 31.90L66.10 31.83Q65.96 32.97 65.96 33.58L66.11 33.73L65.99 33.61Q65.93 35.83 67.49 36.82L67.62 36.95L67.57 36.90Q69.16 37.65 72.13 37.65L72.28 37.81L72.12 37.64Q74.76 37.65 76.39 36.47L76.39 36.47L76.51 36.59Q78.30 35.18 78.15 32.67L78.09 32.61L78.26 32.79Q78.12 31.35 78.12 30.01L78.13 30.03L77.99 29.88Q78.06 22.91 80.46 16.40L80.45 16.39L82.63 15.83L82.58 15.78Q83.59 15.54 84.69 15.08L84.71 15.09L84.68 15.07Q81.01 22.24 81.01 29.82L80.96 29.77L81.01 29.82Q81.00 30.65 81.14 32.29L81.03 32.19L81.16 32.31Q81.30 33.95 81.30 34.75ZM83.47 35.67L83.44 35.64L83.35 35.55Q82.57 30.70 83.30 25.60L83.22 25.53L83.29 25.59Q84.01 20.38 86.41 16.00L86.33 15.92L86.43 16.01Q85.75 16.25 84.31 16.90L84.27 16.86L84.34 16.94Q84.60 15.97 85.40 14.41L85.41 14.43L85.48 14.50Q82.06 15.75 80.15 16.10L80.14 16.08L80.01 15.96Q77.84 22.65 77.84 29.92L77.84 29.93L77.65 29.74Q77.80 31.25 77.87 32.66L77.77 32.56L77.88 32.67Q77.94 34.98 76.15 36.20L76.17 36.22L76.22 36.26Q74.76 37.35 72.24 37.39L72.20 37.35L72.28 37.42Q69.33 37.29 67.88 36.52L67.88 36.53L67.88 36.52Q67.80 36.03 67.72 35.57L67.75 35.60L67.72 35.56Q67.82 35.20 67.93 34.71L67.90 34.68L67.91 34.69Q68.09 32.32 68.09 30.00L68.16 30.07L68.19 30.09Q68.07 24.15 66.55 18.25L66.59 18.29L66.59 18.30Q65.83 18.14 64.42 17.80L64.54 17.92L64.43 17.81Q63.98 16.45 63.52 15.53L63.52 15.53L63.69 15.69Q60.91 14.86 58.51 13.49L58.40 13.37L58.41 13.39Q63.00 20.95 63.00 29.67L63.02 29.69L63.17 29.84Q63.12 31.42 62.96 33.13L62.91 33.08L62.89 33.06Q62.73 35.53 62.81 36.71L62.84 36.74L62.81 36.71Q62.91 38.59 64.16 39.74L64.23 39.80L64.19 39.76Q65.09 42.15 69.74 42.53L69.85 42.64L69.88 42.67Q71.98 42.83 74.11 42.91L74.00 42.79L73.99 42.79Q79.51 43.13 82.28 42.17L82.25 42.14L82.22 42.11Q83.80 41.22 83.80 39.16L83.82 39.18L83.90 39.26Q83.87 38.09 83.41 35.61Z"/><path fill="#444" d="M29.63 37.86L29.71 37.94L29.77 38.00Q29.92 38.83 30.45 40.85L30.51 40.91L30.60 41.01Q26.27 39.56 21.66 39.83L21.69 39.86L21.63 39.79Q17.03 40.03 13.03 42.01L13.11 42.10L13.16 42.14Q13.43 41.49 13.46 41.57L13.39 41.50L13.34 41.44Q17.16 37.57 21.08 33.16L20.93 33.01L21.13 33.20Q25.48 28.15 26.66 23.47L26.68 23.49L26.69 23.50Q27.14 21.74 25.86 20.56L25.75 20.45L25.88 20.57Q24.52 19.32 22.73 19.47L22.84 19.58L22.72 19.46Q22.35 19.39 22.00 19.39L22.13 19.51L22.13 19.52Q20.53 19.44 19.28 20.35L19.31 20.38L19.36 20.44Q18.05 21.79 18.28 24.45L18.12 24.29L18.18 24.35Q16.38 24.00 15.16 23.55L15.16 23.55L15.11 23.49Q15.00 22.17 14.92 20.72L14.99 20.79L15.02 20.82Q14.94 19.18 15.55 18.04L15.38 17.87L15.40 17.88Q17.28 16.61 20.63 16.61L20.61 16.58L22.29 16.51L22.38 16.60Q24.67 16.65 25.62 16.76L25.60 16.74L25.63 16.77Q29.99 17.20 30.25 19.64L30.13 19.51L30.26 19.65Q30.19 20.08 30.12 20.88L30.29 21.05L30.18 20.93Q30.21 21.66 30.06 22.34L30.03 22.31L29.94 22.22Q28.36 30.39 20.79 37.24L20.90 37.35L20.82 37.27Q22.27 37.17 23.64 37.17L23.66 37.19L23.64 37.17Q26.88 37.17 29.74 37.97ZM29.04 17.01L29.18 17.16L29.03 17.01Q27.59 16.52 25.87 16.44L25.81 16.38L22.35 16.15L22.39 16.19Q17.96 15.95 15.75 17.05L15.63 16.94L15.61 16.91Q14.65 18.39 14.65 20.45L14.64 20.43L14.58 20.38Q14.70 21.18 15.01 24.00L14.90 23.90L14.95 23.95Q15.60 24.29 16.78 24.59L16.61 24.43L16.63 25.47L16.70 25.54Q16.58 25.91 16.65 26.45L16.78 26.57L16.65 26.44Q17.92 26.58 20.40 26.80L20.53 26.94L20.39 26.80Q20.46 26.52 20.46 26.18L20.51 26.23L20.48 26.20Q20.34 24.24 21.56 22.88L21.62 22.95L21.61 22.93Q22.91 21.67 24.70 21.78L24.62 21.70L24.58 21.66Q25.42 21.78 26.19 21.93L26.18 21.93L26.11 21.86Q26.22 22.23 26.30 22.65L26.30 22.66L26.45 22.80Q26.31 23.05 26.23 23.39L26.27 23.42L26.25 23.41Q25.14 28.31 20.72 33.14L20.65 33.07L20.67 33.10Q18.47 35.27 13.03 41.32L13.01 41.30L13.01 41.31Q12.85 42.17 12.51 42.74L12.45 42.68L12.60 42.84Q14.24 42.00 15.76 41.46L15.69 41.40L15.58 41.29Q14.91 41.91 13.96 43.40L14.04 43.48L13.95 43.38Q13.81 43.70 13.69 44.04L13.67 44.02L13.76 44.11Q18.68 42.11 24.17 42.30L24.11 42.24L24.15 42.28Q29.76 42.38 34.33 44.74L34.40 44.80L33.44 42.70L33.36 42.63Q32.73 41.31 32.47 40.51L32.38 40.43L32.36 40.40Q31.72 40.07 30.50 39.65L30.47 39.61L30.49 39.64Q30.29 38.87 29.91 37.50L29.96 37.54L29.94 37.52Q27.83 37.06 25.55 36.87L25.50 36.81L25.44 36.76Q30.08 32.15 31.61 23.89L31.77 24.05L31.93 21.13L31.91 21.10Q31.73 19.22 30.51 18.53L30.67 18.68L30.45 18.51L30.54 18.59Q30.46 18.48 30.39 18.48L30.36 18.45L30.52 18.62Q30.15 17.64 29.05 17.03Z"/><path fill="#222" d="M100.29 41.32L100.14 41.17L97.17 41.05L97.15 41.03Q94.87 41.04 94.07 40.92L94.11 40.96L93.97 40.82Q92.26 40.60 91.08 39.72L91.06 39.70L90.99 39.63Q89.71 38.24 89.48 34.88L89.51 34.91L89.49 34.89Q89.38 34.33 89.31 33.11L89.39 33.19L89.46 33.26Q89.40 32.79 89.32 31.68L89.37 31.73L89.38 31.74Q89.25 30.82 89.29 30.09L89.34 30.14L89.25 30.05Q89.49 28.16 90.52 27.39L90.46 27.34L90.59 27.47Q92.52 26.32 97.36 26.09L97.22 25.95L97.39 26.13Q99.35 25.95 100.15 25.95L100.12 25.92L100.01 25.82Q101.56 25.87 102.93 26.18L103.01 26.26L103.04 26.29Q102.47 27.55 101.94 29.37L101.89 29.32L101.93 29.37Q101.44 29.44 100.94 29.41L100.87 29.34L100.83 29.30Q100.67 29.21 100.13 29.09L100.15 29.11L99.26 28.95L99.37 29.05Q98.19 28.68 97.59 28.72L97.58 28.71L97.59 28.72Q92.97 28.90 92.36 31.72L92.34 31.69L92.29 31.65Q92.05 32.81 92.12 33.76L92.04 33.68L92.13 33.77Q92.25 36.33 93.49 37.41L93.43 37.35L93.42 37.34Q94.65 38.42 97.24 38.46L97.30 38.52L97.28 38.50Q98.76 38.53 99.48 38.23L99.48 38.22L100.52 37.74L100.61 37.83Q101.11 37.57 101.69 37.50L101.61 37.42L101.57 37.39Q101.77 39.14 102.15 40.44L102.30 40.58L102.33 40.62Q102.05 40.95 100.26 41.29ZM103.50 44.23L103.45 44.18L103.54 44.26Q103.77 44.15 104.60 44.22L104.61 44.23L104.76 44.37Q105.34 44.35 105.68 43.78L105.57 43.67L105.76 43.85Q104.41 41.63 103.91 39.54L104.00 39.62L103.90 39.53Q103.68 39.60 103.22 39.60L103.17 39.55L103.17 39.55Q102.66 39.46 102.28 39.66L102.38 39.75L102.37 39.75Q101.93 38.39 101.78 36.98L101.83 37.04L101.91 37.11Q101.23 36.97 100.01 37.54L99.94 37.46L100.04 37.56Q98.85 38.17 98.36 38.17L98.31 38.12L98.41 38.22Q97.85 38.15 97.24 38.11L97.22 38.10L97.23 38.11Q96.32 38.08 94.35 37.50L94.41 37.57L94.44 37.60Q93.98 36.76 94.02 35.61L94.09 35.69L94.08 35.68Q94.33 31.52 99.28 30.98L99.27 30.97L99.15 30.85Q99.79 30.81 101.17 31.15L101.17 31.16L101.26 31.25Q102.54 31.50 103.26 31.46L103.37 31.57L103.43 31.63Q103.69 29.23 104.38 27.40L104.54 27.56L104.52 27.54Q104.01 27.30 103.63 27.23L103.71 27.31L102.83 27.11L102.92 27.20Q103.13 26.73 103.51 25.85L103.43 25.76L103.46 25.79Q101.90 25.41 100.34 25.41L100.51 25.59L100.50 25.58Q98.11 25.58 93.73 25.96L93.73 25.97L93.72 25.95Q91.69 26.02 90.13 27.01L90.23 27.11L90.05 26.93Q88.88 27.93 88.88 29.84L88.96 29.91L88.96 29.91Q88.96 30.33 89.08 31.55L89.02 31.49L89.04 31.51Q89.06 32.49 89.02 33.10L89.00 33.07L89.15 33.23Q89.05 34.98 89.77 38.71L89.79 38.73L89.79 38.74Q90.26 39.66 90.76 40.16L90.79 40.19L90.92 40.32L91.04 40.41L91.02 40.38Q91.94 42.41 95.87 43.02L95.94 43.10L96.01 43.17Q99.14 43.63 101.81 43.90L101.69 43.78L101.77 43.86Q102.58 43.95 103.49 44.22Z"/><path fill="#222" d="M112.22 38.94L112.24 38.95L112.20 38.92Q114.05 36.50 118.81 29.23L118.90 29.32L118.88 29.30Q122.93 23.11 125.79 19.84L125.72 19.77L125.85 19.91Q123.61 20.06 121.51 20.06L121.54 20.08L121.68 20.23Q116.34 20.14 112.34 18.35L112.25 18.26L112.32 18.33Q111.71 16.47 111.03 14.90L111.05 14.93L111.06 14.93Q115.58 17.05 121.25 17.17L121.26 17.18L121.15 17.07Q126.25 17.10 131.42 15.20L131.60 15.37L131.42 15.19Q131.15 16.14 130.85 16.94L130.79 16.89L130.27 18.54L130.26 18.53Q127.11 22.07 123.11 27.90L123.28 28.07L119.85 32.78L119.92 32.85Q118.29 35.34 116.46 37.62L116.43 37.59L116.34 37.50Q119.60 36.83 122.91 36.91L123.02 37.02L122.97 36.97Q126.41 37.18 129.57 38.09L129.48 38.00L129.93 39.56L130.07 39.69Q130.26 40.45 130.60 41.29L130.66 41.34L130.56 41.25Q125.82 39.59 120.68 39.78L120.71 39.81L120.84 39.94Q115.61 40.05 111.12 42.06L111.23 42.17L111.15 42.09Q111.49 40.98 112.21 38.93ZM110.53 42.77L110.48 42.72L110.62 42.86Q111.85 42.26 112.65 42.00L112.61 41.95L112.62 41.96Q112.25 42.62 111.56 44.14L111.64 44.22L111.65 44.23Q117.33 42.06 123.30 42.29L123.33 42.31L123.21 42.20Q129.60 42.49 134.62 45.27L134.70 45.35L134.73 45.38Q133.17 42.83 132.37 40.66L132.43 40.72L132.35 40.64Q131.89 40.44 130.36 39.87L130.34 39.84L130.36 39.87Q130.22 39.16 129.80 37.67L129.72 37.60L129.84 37.71Q125.61 36.45 120.50 36.64L120.46 36.60L120.57 36.70Q122.72 33.98 126.26 28.42L126.29 28.45L126.19 28.35Q129.83 22.62 131.73 20.07L131.77 20.11L131.86 20.20Q132.27 18.71 133.30 16.01L133.36 16.07L133.38 16.09Q132.56 16.30 131.11 16.90L131.12 16.91L131.24 17.03Q131.60 16.25 132.32 14.72L132.34 14.74L132.21 14.61Q126.83 16.70 121.12 16.62L121.13 16.63L121.30 16.80Q115.30 16.66 110.35 14.15L110.30 14.10L110.37 14.17Q111.48 16.49 112.20 18.74L112.23 18.77L112.21 18.75Q113.27 19.24 114.07 19.47L114.06 19.46L113.97 19.37Q114.38 20.19 114.64 21.64L114.56 21.56L114.53 21.52Q118.32 22.66 123.20 22.47L123.09 22.36L123.27 22.54Q120.81 25.67 117.50 30.66L117.44 30.60L111.87 38.89L111.93 38.95Q111.53 40.18 110.50 42.74Z"/><path fill="#333" d="M55.20 30.41L55.10 30.31L55.17 30.38Q55.21 29.93 55.17 29.51L55.19 29.52L55.21 29.55Q55.16 29.19 54.85 29.00L54.73 28.88L54.90 29.04Q54.19 28.49 53.31 28.64L53.14 28.47L53.17 28.49Q52.08 28.47 50.45 29.58L50.51 29.64L50.61 29.74Q49.15 30.61 49.15 31.79L49.20 31.83L49.04 31.68Q49.05 32.94 49.05 36.25L49.11 36.32L49.11 36.31Q48.99 38.78 49.14 40.80L49.18 40.83L49.28 40.94Q47.56 40.93 47.56 40.93L47.54 40.91L47.43 40.80Q46.62 40.94 45.89 41.01L45.72 40.84L45.71 40.83Q46.15 38.34 46.23 36.10L46.30 36.16L46.37 36.24Q46.34 31.41 45.70 30.12L45.81 30.23L45.88 30.30Q45.63 29.74 45.06 29.44L44.94 29.33L44.99 29.38Q44.08 28.58 42.52 28.46L42.57 28.51L42.52 28.47Q40.45 28.19 39.92 29.79L40.04 29.91L40.08 29.95Q39.86 30.37 39.97 30.86L40.01 30.90L39.93 30.82Q40.61 33.60 40.27 36.38L40.22 36.33L40.25 36.36Q39.88 39.11 38.47 41.55L38.48 41.56L38.53 41.61Q37.64 41.90 35.55 42.32L35.52 42.29L35.44 42.21Q38.05 39.07 38.05 34.77L38.03 34.75L37.88 34.60Q37.86 28.72 33.83 24.49L33.95 24.62L33.94 24.61Q34.62 24.83 35.58 25.06L35.54 25.02L37.33 25.48L37.25 25.41Q37.91 26.21 38.78 27.89L38.71 27.82L38.78 27.89Q38.96 26.01 41.40 25.97L41.22 25.79L41.33 25.91Q41.48 25.86 42.47 25.94L42.43 25.90L42.53 26.00Q47.46 26.25 48.60 29.06L48.67 29.13L48.58 29.04Q50.20 26.29 55.23 25.76L55.25 25.78L55.40 25.93Q56.02 25.67 56.90 25.79L56.89 25.78L57.01 25.90Q59.14 26.01 58.99 27.58L58.97 27.55L59.00 27.58Q58.97 28.28 58.70 29.04L58.72 29.06L58.65 28.98Q57.20 31.96 57.43 35.50L57.53 35.59L57.41 35.47Q57.69 39.03 59.60 41.85L59.64 41.89L59.52 41.78Q57.82 41.41 56.00 41.18L56.07 41.26L56.07 41.25Q54.93 38.78 54.73 36.00L54.59 35.85L54.61 35.87Q54.49 33.09 55.14 30.35ZM55.92 41.71L55.75 41.55L55.82 41.61Q56.59 41.74 57.93 41.93L57.88 41.89L57.88 41.89Q58.42 42.61 59.56 44.02L59.62 44.08L59.67 44.13Q62.59 44.69 64.69 45.34L64.50 45.16L64.51 45.16Q59.55 41.31 59.29 34.80L59.33 34.84L59.22 34.73Q59.22 32.72 59.83 30.82L59.75 30.74L59.80 30.79Q60.07 29.95 60.07 29.23L60.11 29.27L59.97 29.13Q60.04 28.28 59.43 27.71L59.51 27.79L59.41 27.66L59.46 27.70Q59.55 27.22 59.47 26.72L59.47 26.72L59.41 26.66Q59.38 26.22 58.93 25.95L58.76 25.79L58.95 25.97Q58.17 25.38 57.29 25.34L57.35 25.41L57.27 25.32Q54.43 25.22 51.77 26.18L51.90 26.31L51.85 26.26Q49.75 26.83 48.57 28.24L48.60 28.26L48.68 28.34Q47.00 25.75 42.17 25.41L42.35 25.59L42.19 25.43Q41.50 25.39 41.08 25.39L41.24 25.55L41.20 25.50Q39.10 25.46 38.49 26.72L38.50 26.73L38.44 26.67Q38.10 26.14 37.42 25.08L37.57 25.23L37.40 25.06Q34.93 24.53 32.95 23.88L33.07 24.00L33.13 24.06Q37.73 28.40 37.73 34.68L37.74 34.69L37.70 34.65Q37.72 39.39 34.87 42.85L34.82 42.81L34.84 42.83Q35.21 42.59 35.71 42.52L35.83 42.64L36.78 42.45L36.82 42.48Q36.04 43.45 34.93 44.67L34.95 44.68L34.97 44.71Q36.59 44.39 39.71 43.78L39.69 43.76L39.66 43.73Q42.32 39.61 42.32 34.70L42.27 34.65L42.36 34.74Q42.46 34.04 42.38 33.20L42.31 33.13L42.29 33.11Q42.14 32.28 43.13 31.48L43.28 31.63L43.13 31.51L43.26 31.64Q43.73 31.04 44.91 30.93L45.05 31.07L44.96 30.98Q45.37 30.97 45.67 30.97L45.77 31.06L45.81 31.30L45.73 31.22Q46.01 33.94 45.90 36.30L45.99 36.39L45.85 36.25Q45.90 38.70 45.41 41.37L45.34 41.30L45.24 41.20Q46.35 41.28 46.35 41.28L46.42 41.35L46.30 41.23Q47.85 41.33 47.51 41.33L47.48 41.30L47.35 41.18Q47.44 41.76 47.40 42.22L47.36 42.17L47.40 42.21Q47.31 42.62 47.31 43.12L47.30 43.11L49.96 43.29L49.77 43.10Q51.13 43.20 52.38 43.28L52.34 43.23L52.31 43.20Q50.77 39.50 50.96 33.56L50.98 33.57L51.07 33.66Q51.00 32.45 52.18 31.69L52.24 31.75L52.22 31.74Q53.13 30.93 54.39 30.74L54.35 30.70L54.73 30.78L54.72 30.76Q54.25 32.66 54.25 34.63L54.27 34.65L54.36 34.75Q54.27 38.43 55.79 41.59ZM50.40 30.18L50.48 30.03L50.32 30.21L50.35 30.12Z"/></svg>