<svg xmlns="http://www.w3.org/2000/svg" width="150" height="50" viewBox="0,0,150,50"><path fill="#222" d="M87.60 38.98L87.50 38.88L87.63 39.02Q89.38 36.50 94.14 29.23L94.09 29.18L94.21 29.30Q98.17 23.02 101.03 19.75L101.02 19.74L101.09 19.81Q98.93 20.05 96.84 20.05L96.96 20.17L97.00 20.21Q91.74 20.21 87.74 18.42L87.74 18.42L87.59 18.26Q86.90 16.31 86.21 14.75L86.22 14.76L86.23 14.78Q90.87 17.01 96.54 17.13L96.63 17.22L96.60 17.19Q101.74 17.26 106.92 15.36L106.85 15.29L106.91 15.36Q106.48 16.14 106.17 16.94L106.13 16.89L105.65 18.58L105.61 18.54Q102.55 22.18 98.55 28.01L98.43 27.89L95.21 32.81L95.24 32.84Q93.54 35.25 91.71 37.54L91.80 37.62L91.72 37.55Q95.09 37.00 98.41 37.07L98.36 37.02L98.30 36.96Q101.75 37.18 104.91 38.09L104.91 38.10L105.33 39.62L105.43 39.72Q105.51 40.37 105.85 41.21L105.89 41.25L105.96 41.31Q101.26 39.70 96.12 39.89L96.00 39.77L96.12 39.89Q91.02 40.12 86.53 42.14L86.39 42.00L86.53 42.14Q86.86 41.02 87.58 38.96ZM85.89 42.79L85.86 42.76L85.84 42.74Q87.12 42.20 87.92 41.93L87.98 41.99L87.99 42.00Q87.62 42.66 86.94 44.18L86.89 44.14L86.97 44.22Q92.67 42.08 98.65 42.31L98.68 42.33L98.72 42.37Q104.97 42.54 110.00 45.31L110.02 45.34L109.94 45.26Q108.50 42.82 107.70 40.65L107.69 40.64L107.76 40.71Q107.36 40.59 105.84 40.01L105.67 39.85L105.79 39.97Q105.60 39.21 105.18 37.72L105.15 37.69L105.20 37.74Q101.02 36.53 95.92 36.72L95.83 36.63L95.88 36.68Q98.03 33.96 101.57 28.40L101.60 28.43L101.53 28.36Q105.15 22.62 107.06 20.06L107.09 20.10L107.13 20.14Q107.70 18.81 108.73 16.11L108.62 15.99L108.62 16.00Q108.02 16.42 106.57 17.03L106.50 16.96L106.60 17.06Q106.83 16.14 107.55 14.62L107.66 14.73L107.56 14.63Q102.21 16.74 96.50 16.66L96.58 16.75L96.56 16.72Q90.47 16.50 85.52 13.99L85.66 14.13L85.57 14.04Q86.76 16.44 87.48 18.69L87.55 18.76L87.43 18.63Q88.51 19.14 89.31 19.37L89.33 19.40L89.33 19.39Q89.72 20.20 89.98 21.64L89.99 21.66L89.92 21.58Q93.55 22.55 98.42 22.36L98.47 22.41L98.43 22.37Q96.08 25.61 92.77 30.60L92.78 30.61L87.21 38.90L87.22 38.90Q86.88 40.20 85.85 42.75Z"/><path fill="#111" d="M50.63 29.45L50.64 29.47L50.76 29.58Q49.54 28.78 48.89 28.82L48.76 28.69L48.76 28.69Q47.37 28.75 46.32 29.76L46.46 29.89L46.37 29.80Q45.35 30.83 45.46 32.20L45.50 32.24L45.40 32.15Q45.79 36.57 44.91 41.10L44.91 41.09L44.94 41.12Q42.75 41.60 41.65 42.14L41.66 42.15L41.63 42.11Q43.00 37.81 42.77 33.36L42.94 33.53L42.80 33.39Q42.55 28.88 40.84 24.81L40.83 24.79L40.84 24.81Q42.07 25.58 44.35 26.23L44.43 26.30L44.94 28.95L44.90 28.91Q45.61 26.03 49.87 26.03L49.81 25.97L49.86 26.02Q50.28 25.98 50.58 25.98L50.49 25.89L50.64 26.04Q51.90 26.00 53.16 26.69L53.03 26.57L53.06 26.60Q51.83 28.03 50.69 29.52ZM52.28 31.49L52.36 31.42L52.30 31.35Q53.24 30.24 54.91 27.80L54.97 27.86L55.01 27.90Q54.57 27.57 53.05 27.31L52.85 27.11L53.05 27.31Q53.20 26.81 53.65 26.20L53.70 26.25L53.70 26.25Q51.80 25.34 49.86 25.53L49.91 25.57L49.97 25.64Q47.97 25.77 47.25 26.04L47.18 25.97L47.16 25.94Q45.75 26.36 44.95 27.47L45.12 27.64L44.75 26.63L44.63 25.85L44.67 25.90Q42.26 25.47 40.28 24.13L40.28 24.13L40.32 24.17Q42.49 28.58 42.71 33.46L42.65 33.40L42.54 33.29Q42.85 38.28 41.10 42.81L41.12 42.83L41.04 42.75Q42.25 42.40 43.13 42.09L43.03 41.99L43.09 42.06Q42.73 43.07 42.24 44.14L42.28 44.18L42.30 44.20Q45.15 43.35 47.28 43.24L47.31 43.27L47.45 38.69L47.40 38.64Q47.57 36.45 47.57 34.20L47.61 34.24L47.59 34.22Q47.59 33.04 48.51 32.07L48.57 32.13L48.49 32.06Q49.36 31.04 50.50 30.97L50.52 30.98L50.64 31.10Q51.24 30.94 51.96 31.62L51.97 31.64L52.32 31.53ZM47.35 29.75L47.29 29.61L47.32 29.76L47.38 29.78Z"/><path fill="#333" d="M71.28 19.66L71.25 19.62L71.31 19.68Q69.24 19.70 68.29 19.86L68.43 20.00L68.43 20.00Q66.75 20.18 65.53 20.72L65.59 20.78L65.49 20.67Q61.96 22.10 61.85 26.78L61.95 26.88L61.99 26.92Q61.86 29.54 62.51 32.47L62.40 32.36L62.46 32.42Q63.27 36.39 66.89 37.57L67.05 37.73L66.92 37.61Q68.83 38.18 70.28 38.03L70.27 38.02L70.74 38.03L70.66 37.95Q70.84 37.94 71.03 37.98L71.19 38.15L71.11 38.06Q71.26 38.06 71.41 38.02L71.48 38.09L71.44 38.05Q74.08 37.79 75.45 37.22L75.34 37.11L71.84 33.65L71.80 33.61Q72.23 33.40 72.84 32.79L72.72 32.67L73.79 31.91L73.60 31.72Q75.61 33.96 77.59 36.02L77.44 35.87L77.58 36.00Q79.90 34.17 80.16 28.80L80.10 28.74L80.05 28.69Q80.15 27.80 80.15 26.89L80.18 26.92L80.19 26.92Q80.22 21.29 75.16 20.18L75.01 20.04L75.09 20.12Q73.82 19.83 71.30 19.68ZM84.01 41.67L84.12 41.78L84.14 41.80Q83.57 42.26 82.39 43.14L82.23 42.98L77.93 39.40L77.89 39.36Q75.42 40.58 71.16 40.62L71.11 40.58L71.24 40.71Q64.50 40.63 61.68 38.38L61.72 38.42L61.68 38.38Q60.03 36.73 59.57 33.76L59.44 33.63L59.47 33.66Q59.32 31.91 58.94 28.33L59.05 28.44L58.98 28.37Q58.95 27.62 58.84 25.86L58.76 25.79L58.89 25.92Q58.64 24.26 58.68 23.38L58.73 23.44L58.71 23.42Q58.80 20.34 60.55 18.78L60.51 18.74L60.52 18.75Q62.21 17.58 65.40 17.09L65.27 16.95L65.36 17.05Q67.77 16.60 70.66 16.68L70.68 16.69L70.76 16.77Q78.18 16.80 81.30 19.16L81.29 19.16L81.40 19.26Q83.57 21.40 83.31 26.31L83.21 26.22L83.30 26.30Q83.08 29.93 82.89 31.26L82.84 31.22L82.91 31.29Q82.28 35.79 79.95 38.11L79.96 38.12L79.94 38.09Q81.39 39.32 84.13 41.79ZM79.16 17.41L79.29 17.53L79.14 17.39Q77.19 16.74 70.68 16.24L70.63 16.19L70.66 16.21Q69.33 16.29 66.55 16.41L66.52 16.38L66.47 16.33Q62.38 16.69 60.13 18.67L60.16 18.70L60.11 18.65Q58.49 20.15 58.49 23.31L58.30 23.12L58.29 23.11Q58.42 24.08 58.58 25.79L58.61 25.83L58.50 25.71Q58.66 27.43 58.66 28.31L58.74 28.40L58.74 28.39Q58.94 30.20 59.33 33.78L59.19 33.64L59.28 33.73Q59.53 36.49 61.13 38.55L61.25 38.67L61.18 38.60Q61.51 39.42 62.72 40.56L62.76 40.60L62.75 40.59Q65.44 42.56 70.62 42.82L70.61 42.82L70.73 42.93Q71.04 42.90 73.44 43.01L73.31 42.89L73.30 42.88Q78.21 43.15 80.50 42.08L80.55 42.13L80.54 42.13Q81.30 42.69 86.02 46.27L86.09 46.34L86.12 46.37Q86.62 45.73 87.92 44.74L87.92 44.74L87.92 44.74Q87.12 44.14 86.33 43.45L86.29 43.42L84.58 41.90L84.80 41.97L84.68 41.85Q84.24 41.52 83.02 40.49L82.93 40.40L83.01 40.48Q84.78 37.84 84.78 33.31L84.86 33.39L84.77 33.30Q84.84 32.95 84.88 32.11L84.94 32.17L84.89 32.12Q85.02 31.37 85.02 30.95L84.89 30.83L84.98 30.92Q84.83 25.25 84.11 22.89L84.17 22.95L84.26 23.04Q83.88 21.74 83.00 20.68L83.00 20.68L83.04 20.72Q82.11 18.45 79.18 17.43ZM73.24 22.08L73.11 21.94L73.11 21.94Q77.30 21.98 79.13 23.58L79.03 23.48L79.04 23.49Q79.73 24.83 79.84 26.16L79.81 26.13L79.70 26.02Q79.91 27.41 79.83 28.78L79.88 28.82L79.73 28.67Q79.52 33.75 77.57 35.46L77.40 35.29L77.55 35.44Q76.12 34.01 73.61 31.27L73.69 31.35L73.61 31.28Q72.94 32.13 71.38 33.69L71.31 33.62L71.42 33.72Q71.84 34.19 72.99 35.37L72.99 35.37L73.07 35.57L73.02 35.52Q73.50 35.96 74.53 37.03L74.63 37.13L74.56 37.05Q73.54 37.30 71.22 37.60L71.34 37.72L70.71 37.63L70.29 37.62L70.29 37.66L70.37 37.74Q66.75 37.58 64.77 35.94L64.93 36.11L64.81 35.98Q63.81 33.92 63.85 30.80L63.80 30.75L63.97 30.92Q64.03 22.11 73.21 22.04Z"/><path fill="#111" d="M31.85 34.63L31.93 34.72L31.86 34.65Q31.84 38.21 28.68 39.50L28.68 39.50L28.85 39.67Q26.77 40.29 22.35 40.44L22.44 40.53L22.45 40.54Q17.63 40.64 15.39 39.46L15.48 39.55L15.33 39.40Q13.48 38.08 13.63 34.73L13.70 34.80L13.70 34.80Q13.72 34.18 13.91 32.20L14.03 32.31L14.00 32.28Q14.15 30.72 14.15 29.73L14.05 29.63L14.06 29.64Q13.98 21.56 9.79 14.14L9.91 14.26L9.86 14.21Q10.94 14.79 13.91 15.86L14.08 16.03L13.97 15.92Q16.82 22.62 16.82 30.01L16.86 30.04L16.92 30.11Q16.79 30.58 16.69 31.76L16.81 31.88L16.84 31.91Q16.73 33.08 16.73 33.68L16.66 33.61L16.69 33.64Q16.64 35.87 18.20 36.86L18.18 36.85L18.22 36.89Q19.94 37.76 22.91 37.76L22.95 37.81L22.80 37.65Q25.45 37.68 27.08 36.50L27.03 36.45L27.08 36.49Q28.97 35.19 28.82 32.67L28.88 32.73L28.76 32.61Q28.72 31.28 28.72 29.95L28.73 29.96L28.74 29.97Q28.66 22.85 31.06 16.34L31.20 16.48L33.20 15.74L33.32 15.86Q34.36 15.64 35.47 15.19L35.41 15.12L35.36 15.08Q31.69 22.26 31.69 29.84L31.67 29.81L31.69 29.84Q31.75 30.73 31.88 32.37L31.85 32.34L31.75 32.23Q31.85 33.84 31.85 34.63ZM34.08 35.61L34.13 35.66L34.01 35.54Q33.08 30.54 33.81 25.44L33.82 25.45L33.84 25.47Q34.69 20.38 37.09 16.01L37.13 16.04L37.01 15.93Q36.46 16.30 35.02 16.95L34.92 16.85L34.95 16.87Q35.36 16.06 36.16 14.50L36.07 14.42L36.10 14.44Q32.69 15.72 30.79 16.06L30.77 16.05L30.71 15.99Q28.41 22.55 28.41 29.82L28.49 29.91L28.37 29.78Q28.49 31.28 28.56 32.68L28.58 32.70L28.53 32.65Q28.65 35.02 26.86 36.24L26.83 36.21L26.88 36.25Q25.32 37.25 22.81 37.28L22.89 37.37L22.89 37.37Q20.03 37.33 18.59 36.56L18.66 36.64L18.62 36.60Q18.54 36.10 18.47 35.65L18.38 35.56L18.48 35.66Q18.50 35.22 18.61 34.72L18.65 34.76L18.56 34.67Q18.74 32.30 18.74 29.98L18.74 29.98L18.76 30.00Q18.69 24.11 17.17 18.20L17.17 18.20L17.19 18.23Q16.54 18.19 15.13 17.85L15.09 17.80L15.22 17.94Q14.73 16.53 14.27 15.61L14.26 15.61L14.21 15.56Q11.47 14.75 9.07 13.38L9.12 13.43L9.14 13.45Q13.84 21.12 13.84 29.84L13.69 29.69L13.69 29.69Q13.73 31.36 13.57 33.07L13.62 33.13L13.59 33.09Q13.32 35.45 13.40 36.63L13.51 36.74L13.37 36.60Q13.51 38.53 14.77 39.68L14.78 39.69L14.85 39.76Q15.92 42.31 20.56 42.69L20.56 42.68L20.44 42.57Q22.52 42.71 24.65 42.78L24.70 42.84L24.63 42.76Q30.17 43.12 32.95 42.17L32.89 42.11L32.85 42.07Q34.44 41.19 34.44 39.13L34.47 39.16L34.43 39.13Q34.58 38.13 34.13 35.66Z"/><path fill="#444" d="M120.16 29.73L120.18 29.74L120.20 29.76Q115.90 29.47 115.33 32.51L115.35 32.53L115.40 32.58Q115.20 33.64 115.39 34.52L115.41 34.53L115.33 34.45Q115.34 35.22 115.79 36.63L115.86 36.70L115.90 36.73Q117.01 39.94 120.32 39.79L120.33 39.79L120.36 39.82Q122.36 39.88 123.69 38.32L123.72 38.35L123.68 38.31Q124.76 36.68 124.76 34.63L124.89 34.76L124.78 34.65Q125.08 34.23 124.93 33.16L124.90 33.13L124.85 33.09Q124.80 32.20 124.39 31.52L124.36 31.49L124.35 31.48Q122.78 29.87 120.19 29.76ZM125.03 48.22L125.07 48.26L124.97 48.17Q123.06 48.66 114.99 49.04L115.11 49.15L115.13 49.18Q113.49 49.29 111.86 48.45L111.86 48.46L111.82 48.41Q112.59 47.39 114.41 45.60L114.49 45.68L114.54 45.73Q116.81 46.63 118.90 46.44L119.03 46.56L119.03 46.57Q121.76 46.13 122.60 45.87L122.69 45.96L122.71 45.98Q124.97 45.31 124.97 43.52L124.99 43.54L124.86 43.41Q124.95 43.27 124.87 43.04L124.93 43.10L124.69 41.37L124.83 41.52Q124.67 40.60 124.67 39.80L124.74 39.86L124.81 39.93Q123.32 42.07 119.94 42.07L119.98 42.11L119.94 42.07Q116.02 42.03 114.38 39.82L114.39 39.83L114.49 39.93Q113.28 38.31 112.48 33.89L112.45 33.86L112.55 33.96Q112.28 32.47 112.28 31.06L112.34 31.11L112.22 31.00Q112.24 29.23 113.16 28.24L113.14 28.23L113.12 28.20Q114.75 26.75 119.40 26.75L119.52 26.88L121.28 27.08L121.16 26.95Q124.51 27.45 125.85 29.40L125.80 29.35L125.69 29.24Q125.95 28.47 126.37 26.84L126.32 26.79L126.26 26.73Q128.23 26.49 129.98 25.76L129.95 25.73L130.03 25.81Q127.32 31.86 127.32 39.10L127.23 39.00L127.25 39.03Q127.28 41.72 127.66 44.34L127.67 44.35L127.66 44.34Q127.88 45.06 127.81 45.75L127.82 45.76L127.77 45.71Q127.51 47.01 126.29 47.77L126.33 47.81L126.34 47.82Q125.89 48.13 125.05 48.25ZM128.10 51.25L128.02 51.18L127.96 51.11Q129.46 51.21 130.22 50.26L130.24 50.28L130.15 50.18Q130.67 49.41 130.55 48.68L130.45 48.58L130.52 48.65Q130.40 48.00 130.21 47.23L130.17 47.20L130.12 47.15Q128.90 41.93 129.24 36.67L129.21 36.65L129.25 36.68Q129.56 31.20 131.69 26.37L131.78 26.46L129.58 27.31L129.69 27.41Q129.98 26.87 130.21 26.30L130.09 26.18L130.58 25.03L130.56 25.01Q128.26 26.03 126.06 26.45L126.15 26.54L126.11 26.50Q125.73 27.30 125.57 28.33L125.62 28.37L125.63 28.38Q123.49 26.43 119.46 26.43L119.49 26.47L117.63 26.35L117.65 26.37Q114.53 26.50 112.86 27.91L112.82 27.86L112.85 27.90Q111.85 28.80 111.89 30.71L111.92 30.74L111.98 30.79Q111.99 33.24 113.02 37.51L113.07 37.56L113.05 37.54Q113.53 39.46 114.74 40.87L114.74 40.87L114.94 41.06L115.06 41.19L115.05 41.18Q116.09 43.40 118.68 43.93L118.78 44.03L118.68 43.93Q120.07 44.22 121.52 44.26L121.55 44.29L121.63 44.37Q123.43 44.45 124.49 44.07L124.34 43.92L124.50 44.08Q123.77 45.52 121.11 45.86L121.21 45.96L121.12 45.87Q120.03 46.01 119.35 46.01L119.36 46.02L119.10 46.14L118.95 45.99Q116.11 45.97 114.43 45.01L114.48 45.06L112.72 46.73L112.75 46.75Q112.06 47.74 111.22 48.69L111.11 48.58L111.17 48.64Q112.13 49.15 113.12 49.34L113.18 49.39L112.31 50.27L112.27 50.23Q114.85 51.18 120.48 51.18L120.51 51.20L120.82 51.29L120.83 51.30Q124.34 51.19 127.92 51.07ZM121.98 31.97L122.00 31.99L122.06 32.04Q123.41 32.03 124.33 32.45L124.23 32.35L124.17 32.29Q124.37 32.79 124.45 33.48L124.59 33.62L124.54 33.57Q124.58 33.88 124.55 34.80L124.62 34.88L124.58 34.83Q124.43 36.66 123.32 37.95L123.33 37.96L123.43 38.06Q122.09 39.31 120.19 39.27L120.18 39.27L120.26 39.35Q118.79 39.25 117.95 38.83L118.04 38.91L118.04 38.92Q117.52 37.64 117.49 36.61L117.61 36.73L117.65 36.78Q117.42 32.32 122.03 32.02Z"/></svg>