<svg xmlns="http://www.w3.org/2000/svg" width="150" height="50" viewBox="0,0,150,50"><path fill="#333" d="M75.60 41.30L75.64 41.34L72.59 41.14L72.55 41.10Q70.08 40.91 69.28 40.80L69.45 40.97L69.29 40.81Q67.45 40.46 66.27 39.58L66.36 39.67L66.28 39.59Q65.13 38.33 64.90 34.98L64.79 34.86L64.78 34.85Q64.88 34.50 64.81 33.28L64.74 33.21L64.76 33.23Q64.64 32.70 64.57 31.59L64.68 31.71L64.68 31.71Q64.66 30.88 64.69 30.16L64.61 30.08L64.66 30.13Q64.83 28.17 65.86 27.40L65.84 27.39L65.87 27.41Q67.73 26.19 72.56 25.96L72.69 26.09L72.69 26.09Q74.58 25.85 75.38 25.85L75.38 25.85L75.44 25.90Q76.93 25.92 78.30 26.22L78.36 26.28L78.31 26.22Q77.68 27.42 77.14 29.25L77.19 29.29L77.12 29.22Q76.76 29.43 76.26 29.40L76.20 29.33L76.17 29.30Q76.09 29.30 75.55 29.18L75.56 29.19L74.53 28.88L74.62 28.97Q73.48 28.63 72.87 28.67L72.84 28.64L72.94 28.73Q68.30 28.90 67.70 31.71L67.55 31.57L67.51 31.53Q67.24 32.67 67.32 33.62L67.41 33.72L67.47 33.78Q67.56 36.30 68.79 37.38L68.83 37.42L68.73 37.32Q69.98 38.42 72.57 38.46L72.68 38.57L72.53 38.42Q74.02 38.46 74.75 38.16L74.90 38.31L75.82 37.71L75.90 37.79Q76.35 37.48 76.92 37.40L77.02 37.50L76.92 37.40Q77.12 39.16 77.50 40.46L77.56 40.52L77.65 40.61Q77.34 40.90 75.55 41.25ZM78.89 44.28L78.82 44.21L78.78 44.17Q79.27 44.32 80.11 44.39L79.95 44.23L80.05 44.33Q80.66 44.34 81.00 43.77L80.93 43.70L80.98 43.75Q79.82 41.71 79.32 39.61L79.31 39.60L79.20 39.49Q78.92 39.51 78.46 39.51L78.53 39.58L78.56 39.61Q78.08 39.55 77.70 39.74L77.62 39.66L77.74 39.78Q77.36 38.48 77.20 37.07L77.16 37.03L77.28 37.15Q76.61 37.01 75.39 37.58L75.32 37.51L75.32 37.51Q74.14 38.12 73.65 38.12L73.65 38.13L73.61 38.09Q73.20 38.17 72.59 38.14L72.52 38.07L72.66 38.21Q71.64 38.06 69.66 37.49L69.61 37.44L69.63 37.46Q69.26 36.71 69.30 35.57L69.35 35.62L69.30 35.57Q69.59 31.44 74.54 30.91L74.44 30.81L74.45 30.82Q75.28 30.96 76.65 31.30L76.50 31.15L76.59 31.25Q77.86 31.49 78.58 31.45L78.76 31.63L78.78 31.64Q79.11 29.31 79.80 27.49L79.85 27.54L79.87 27.56Q79.36 27.31 78.98 27.24L78.95 27.21L78.29 27.23L78.26 27.20Q78.38 26.64 78.77 25.77L78.81 25.81L78.84 25.84Q77.31 25.50 75.75 25.50L75.78 25.53L75.79 25.53Q73.26 25.41 68.88 25.79L69.01 25.91L69.00 25.90Q66.94 25.94 65.38 26.93L65.52 27.07L65.54 27.08Q64.16 27.88 64.16 29.78L64.19 29.81L64.30 29.92Q64.23 30.27 64.35 31.49L64.43 31.57L64.28 31.42Q64.44 32.53 64.40 33.14L64.33 33.08L64.40 33.14Q64.38 34.98 65.10 38.71L65.18 38.79L65.17 38.79Q65.61 39.68 66.10 40.17L66.13 40.20L66.35 40.42L66.25 40.28L66.32 40.35Q67.40 42.53 71.32 43.14L71.27 43.09L71.30 43.12Q74.34 43.50 77.01 43.77L77.13 43.89L77.16 43.92Q77.90 43.93 78.81 44.20Z"/><path fill="#222" d="M123.49 39.75L123.51 39.77L121.72 39.93L121.56 39.76Q120.78 39.94 119.83 40.06L119.68 39.91L119.78 40.01Q120.36 33.81 120.36 29.81L120.24 29.70L120.23 29.68Q116.29 23.04 108.64 14.36L108.74 14.46L108.71 14.43Q110.45 15.37 113.80 16.17L113.84 16.21L113.88 16.25Q118.90 21.80 121.91 27.02L121.89 27.01L121.93 27.04Q124.90 21.45 129.28 16.42L129.20 16.35L129.25 16.39Q131.74 16.07 134.26 15.27L134.11 15.12L134.24 15.25Q128.23 21.39 123.36 29.80L123.23 29.67L123.38 29.82Q123.21 36.69 123.51 39.78ZM132.73 17.32L135.36 14.39L135.33 14.37Q132.24 15.53 129.11 15.99L129.14 16.02L129.10 15.98Q125.03 20.85 122.21 25.95L122.05 25.79L122.13 25.87Q119.91 22.13 116.71 18.24L116.72 18.25L116.88 18.41Q116.63 18.43 116.14 18.36L115.95 18.17L115.99 18.21Q115.31 17.41 113.78 15.74L113.77 15.72L113.92 15.88Q110.52 15.10 107.55 13.54L107.54 13.53L107.51 13.50Q115.16 21.91 119.92 29.83L120.05 29.96L120.04 29.95Q119.82 36.16 119.21 40.31L119.21 40.31L119.28 40.38Q120.01 40.35 121.46 40.24L121.43 40.21L121.51 41.32L121.49 41.30Q121.53 41.79 121.45 42.33L121.40 42.27L121.33 42.20Q124.94 42.27 126.69 42.46L126.65 42.43L126.68 42.45Q125.49 37.84 125.38 31.86L125.34 31.82L125.39 31.87Q129.70 23.35 136.25 16.01L136.26 16.02L132.65 17.25Z"/><path fill="#111" d="M23.67 29.86L23.64 29.83L23.77 29.97Q21.22 29.82 19.89 31.03L19.92 31.06L19.86 31.01Q18.43 32.13 18.73 34.64L18.86 34.76L18.88 34.78Q19.13 37.24 20.34 38.49L20.27 38.41L20.28 38.43Q21.43 39.85 23.57 39.77L23.51 39.72L23.62 39.82Q24.08 39.72 24.27 39.72L24.32 39.76L24.37 39.82Q27.86 39.16 27.97 34.55L27.85 34.43L28.00 34.58Q27.92 32.06 27.24 31.26L27.24 31.26L27.43 31.45Q26.31 30.11 23.76 29.95ZM27.05 41.66L27.01 41.62L26.95 41.56Q25.75 42.26 24.19 42.19L24.08 42.08L24.21 42.20Q20.36 42.40 19.07 39.81L18.94 39.68L19.13 39.87Q18.90 45.15 17.56 49.42L17.47 49.33L17.48 49.34Q15.73 49.87 14.09 50.59L14.09 50.59L14.02 50.52Q16.58 44.55 16.31 37.58L16.28 37.55L16.46 37.73Q16.12 30.81 13.23 24.76L13.25 24.77L13.20 24.73Q15.12 25.88 16.83 26.34L16.85 26.36L17.45 27.91L17.33 27.79Q17.56 28.25 17.83 29.35L17.79 29.32L17.80 29.32Q18.74 27.18 22.32 26.99L22.48 27.15L22.41 27.08Q23.28 27.04 24.15 27.04L24.21 27.09L24.56 26.94L24.56 26.95Q24.82 27.10 25.01 27.13L24.83 26.96L25.19 27.01L25.34 27.15Q27.35 27.38 28.07 27.60L28.02 27.55L28.03 27.57Q29.51 28.02 30.39 28.97L30.35 28.93L30.48 29.06Q31.17 30.09 31.13 31.50L31.20 31.57L31.13 31.50Q31.26 34.49 30.46 37.15L30.44 37.13L30.38 37.07Q29.39 40.62 27.03 41.64ZM31.33 42.29L31.23 42.14L31.27 42.19Q32.30 40.14 32.61 36.03L32.69 36.10L32.63 36.05Q32.82 34.33 32.82 33.08L32.79 33.05L32.90 33.15Q32.82 31.55 32.06 30.14L32.21 30.30L32.06 30.15Q31.64 29.69 31.14 29.31L31.08 29.24L31.07 29.12L30.91 28.84L30.80 28.63L30.72 28.54Q29.01 26.53 24.67 26.53L24.66 26.52L24.05 26.52L24.18 26.65Q19.51 26.62 17.87 28.22L17.85 28.19L17.85 28.19Q17.73 27.73 17.57 27.23L17.46 27.13L17.16 26.03L17.34 26.20Q14.77 25.49 12.56 24.01L12.49 23.94L12.59 24.04Q15.79 30.28 16.09 37.51L16.06 37.49L16.12 37.54Q16.44 44.83 13.58 51.30L13.46 51.18L15.53 50.39L15.53 50.40Q15.25 51.10 14.56 52.66L14.63 52.73L14.63 52.73Q17.22 51.55 19.54 51.21L19.67 51.33L19.63 51.29Q20.67 46.40 20.83 42.67L20.79 42.63L20.86 42.70Q22.25 44.17 25.87 44.40L25.89 44.42L25.83 44.36Q29.82 44.66 31.27 42.22L31.32 42.27ZM25.67 32.21L25.53 32.07L25.70 32.24Q26.34 32.15 27.44 32.50L27.33 32.39L27.41 32.47Q27.54 33.32 27.50 34.50L27.67 34.67L27.54 34.54Q27.63 35.54 27.44 36.19L27.49 36.23L27.43 36.18Q26.63 39.00 24.12 39.30L24.23 39.41L24.34 39.40L24.30 39.36Q24.26 39.40 24.15 39.44L24.13 39.42L23.52 39.35L23.49 39.32Q22.43 39.43 21.44 38.94L21.42 38.93L21.01 36.80L20.99 36.78Q20.85 34.47 22.14 33.44L22.12 33.41L22.26 33.55Q23.18 32.39 25.58 32.12Z"/><path fill="#333" d="M52.14 40.90L52.10 40.86L52.09 40.85Q50.84 39.22 49.55 36.14L49.48 36.08L47.45 31.04L47.55 31.14Q45.94 35.12 45.33 36.41L45.17 36.26L45.30 36.38Q43.89 39.35 42.29 41.26L42.28 41.25L42.17 41.14Q41.93 41.27 41.17 41.39L41.08 41.30L41.06 41.28Q41.12 33.92 35.30 27.98L35.29 27.98L35.16 27.85Q33.48 26.09 31.46 24.60L31.46 24.60L31.39 24.53Q33.35 25.20 35.22 25.51L35.17 25.45L35.18 25.47Q41.20 30.38 42.64 36.62L42.70 36.68L42.71 36.69Q43.69 34.93 44.87 31.73L44.80 31.66L44.87 31.73Q46.16 27.92 46.73 26.62L46.75 26.64L48.05 26.53L48.21 26.70Q48.98 28.30 50.16 31.57L50.16 31.57L50.19 31.60Q51.43 35.17 52.08 36.57L52.03 36.53L52.13 36.63Q53.85 30.24 59.33 25.67L59.51 25.85L59.43 25.77Q60.70 25.74 63.44 25.17L63.43 25.16L63.38 25.12Q54.67 31.06 53.49 41.04L53.47 41.01L52.92 41.00L52.79 40.87Q52.62 41.00 52.28 41.04ZM55.12 43.35L57.25 43.62L57.18 43.54Q56.81 41.96 56.81 40.44L56.93 40.56L56.88 40.51Q56.88 37.27 58.29 34.03L58.42 34.16L58.36 34.11Q60.26 29.49 64.37 26.41L64.45 26.49L64.41 26.45Q63.12 26.64 61.26 26.99L61.26 26.99L61.29 27.02Q63.29 25.40 64.58 24.49L64.63 24.53L62.02 24.89L62.07 24.94Q60.84 25.17 59.51 25.32L59.63 25.44L59.57 25.38Q54.37 29.58 52.43 34.60L52.50 34.68L52.39 34.57Q51.78 32.43 50.41 28.17L50.30 28.06L50.36 28.12Q50.18 28.28 49.91 28.28L49.80 28.17L49.24 28.14L49.32 28.22Q49.23 27.95 48.43 26.20L48.33 26.09L46.25 26.07L46.41 26.23Q45.42 29.01 43.33 34.64L43.25 34.57L43.22 34.53Q41.87 30.82 38.78 27.54L38.90 27.66L38.83 27.59Q38.56 27.59 38.25 27.55L38.27 27.57L37.67 27.42L37.65 27.40Q36.82 26.61 35.03 25.01L35.13 25.11L35.18 25.16Q31.89 24.38 30.22 23.89L30.23 23.91L30.26 23.93Q40.99 31.38 40.60 41.70L40.62 41.72L40.52 41.61Q40.72 41.62 41.08 41.59L41.23 41.74L41.13 41.64Q41.51 41.62 41.70 41.62L41.71 41.62L41.75 41.67Q41.80 41.56 41.99 43.66L41.97 43.63L43.88 43.45L43.78 43.36Q46.40 40.57 48.65 34.82L48.66 34.84L48.61 34.79Q50.11 38.65 51.98 41.31L52.09 41.42L52.08 41.41Q52.36 41.35 52.63 41.37L52.52 41.26L52.71 41.45Q52.94 41.44 53.21 41.44L53.16 41.39L55.12 43.35Z"/><path fill="#333" d="M99.96 30.80L100.09 30.94L100.08 30.93Q100.06 29.38 99.24 28.47L99.36 28.58L99.40 28.63Q98.53 27.66 97.08 27.70L97.03 27.65L97.09 27.70Q94.65 27.66 93.81 29.79L93.85 29.83L93.93 29.91Q93.71 30.76 93.67 31.45L93.65 31.42L93.65 31.42Q93.29 36.12 92.37 40.46L92.46 40.55L92.47 40.56Q90.68 40.98 88.82 41.97L89.00 42.15L88.81 41.96Q91.21 35.12 90.95 27.81L90.86 27.72L90.88 27.74Q90.60 20.38 88.05 13.57L88.10 13.61L88.04 13.55Q89.88 14.94 91.90 15.62L91.90 15.63L91.86 15.58Q93.23 21.29 93.42 27.16L93.61 27.35L93.56 27.30Q94.92 25.19 97.62 25.27L97.58 25.23L97.56 25.20Q102.75 25.41 102.87 30.78L102.71 30.63L102.74 30.66Q103.03 36.50 104.40 41.14L104.26 41.01L104.41 41.15Q102.37 40.14 100.61 39.95L100.69 40.02L100.68 40.02Q100.26 36.85 100.15 30.99ZM100.42 40.40L100.31 40.29L100.43 40.41Q101.35 40.42 102.46 40.69L102.60 40.83L102.46 40.69Q102.56 40.90 103.09 42.88L103.10 42.89L103.17 42.96Q106.02 43.80 108.04 45.24L108.01 45.21L108.03 45.23Q105.40 39.52 104.87 33.20L104.78 33.12L104.78 33.11Q104.56 29.50 103.15 27.94L103.04 27.83L103.18 27.98Q103.08 27.80 102.43 27.34L102.51 27.42L102.52 27.42Q102.24 26.88 101.60 26.12L101.59 26.12L101.57 26.02L101.52 25.97Q100.64 25.09 97.52 24.83L97.68 24.98L97.63 24.93Q96.85 24.88 95.44 25.22L95.40 25.18L95.53 25.31Q95.30 20.43 94.95 17.92L94.98 17.95L94.98 17.95Q94.13 17.74 92.64 17.43L92.58 17.37L92.77 17.56Q92.55 16.77 92.28 15.28L92.28 15.28L92.15 15.16Q89.27 14.25 87.40 12.69L87.50 12.79L87.33 12.62Q90.35 19.82 90.61 27.62L90.65 27.66L90.65 27.66Q91.02 35.53 88.46 42.87L88.36 42.77L88.38 42.79Q89.35 42.24 90.49 41.74L90.39 41.64L89.69 43.95L89.77 44.03Q92.78 42.59 94.76 42.40L94.85 42.48L94.82 42.46Q95.28 36.94 95.47 32.98L95.63 33.14L95.62 33.13Q95.70 31.26 97.64 30.16L97.54 30.06L97.64 30.16Q98.16 29.92 98.70 29.96L98.63 29.89L98.55 29.82Q98.81 29.93 99.16 29.96L99.14 29.94L99.52 29.98L99.52 29.99Q99.70 30.54 99.81 31.00L99.75 30.94L99.77 30.96Q99.85 36.90 100.35 40.33Z"/></svg>