<svg xmlns="http://www.w3.org/2000/svg" width="150" height="50" viewBox="0,0,150,50"><path fill="#333" d="M46.30 29.07L46.38 29.15L46.41 29.17Q44.56 29.04 43.32 30.46L43.36 30.50L43.27 30.41Q41.98 31.79 41.79 33.70L41.91 33.82L41.87 33.77Q41.68 35.87 42.77 36.84L42.62 36.70L42.69 36.77Q43.75 37.71 45.84 37.59L45.85 37.60L45.95 37.70Q47.93 37.43 49.03 36.75L49.02 36.73L49.10 36.82Q50.29 35.76 50.29 34.20L50.16 34.07L50.14 34.05Q50.23 33.76 50.15 33.38L50.14 33.36L50.06 33.28Q50.29 31.76 49.19 30.41L49.09 30.32L49.12 30.35Q48.04 29.02 46.37 29.13ZM45.93 40.23L45.93 40.24L45.87 40.17Q41.51 40.19 40.10 39.43L40.09 39.42L40.17 39.50Q39.16 38.75 38.97 37.04L38.99 37.06L39.00 37.07Q38.94 36.36 38.98 35.64L38.92 35.58L38.94 35.60Q39.09 34.65 39.09 34.19L39.05 34.15L39.04 34.15Q39.58 31.37 39.73 30.68L39.70 30.66L39.59 30.54Q40.03 28.59 40.87 27.18L40.86 27.17L40.98 27.29Q43.64 22.91 49.58 16.55L49.49 16.46L49.61 16.58Q52.22 16.22 54.43 15.42L54.40 15.39L54.38 15.37Q47.48 22.79 44.28 27.01L44.28 27.01L44.40 27.12Q45.29 26.53 46.58 26.53L46.71 26.66L46.73 26.68Q49.89 26.52 51.41 28.46L51.42 28.48L51.44 28.49Q52.85 30.21 53.20 33.75L53.25 33.81L53.16 33.72Q53.27 34.47 53.27 35.08L53.24 35.06L53.25 35.07Q53.24 38.18 51.03 39.24L51.04 39.25L50.94 39.16Q49.88 39.92 46.00 40.30ZM48.13 42.54L48.24 42.65L48.24 42.65Q49.44 42.52 51.42 42.60L51.58 42.76L51.53 42.71Q53.07 42.69 54.64 41.97L54.68 42.02L54.60 41.94Q55.81 41.24 55.81 39.45L55.84 39.48L55.82 39.46Q55.73 38.87 55.56 37.88L55.59 37.92L55.65 37.98Q55.46 36.97 55.46 36.51L55.39 36.44L55.47 36.52Q54.62 31.83 53.02 29.93L52.93 29.84L53.01 29.92Q52.83 29.69 52.67 29.46L52.79 29.58L52.34 29.21L52.34 29.25L52.40 29.31Q52.11 28.86 51.50 27.91L51.46 27.87L51.45 27.86Q50.46 26.83 48.48 26.37L48.54 26.44L48.52 26.41Q49.67 24.74 52.64 21.05L52.78 21.20L56.90 15.80L56.97 15.86Q55.38 16.71 52.98 17.47L52.96 17.45L53.05 17.54Q53.91 16.50 55.70 14.52L55.58 14.41L55.62 14.44Q53.25 15.53 49.36 16.10L49.45 16.19L49.44 16.18Q43.66 22.01 40.69 26.96L40.68 26.95L40.74 27.00Q39.24 29.54 38.67 35.79L38.63 35.75L38.64 35.76Q38.51 36.27 38.58 37.22L38.57 37.21L38.57 37.22Q38.70 39.01 39.80 39.93L39.73 39.85L39.84 39.96Q40.15 40.05 40.12 40.09L40.18 40.15L40.11 40.09Q40.49 41.00 41.29 41.42L41.29 41.41L41.38 41.50Q42.81 42.17 44.75 42.36L44.80 42.42L44.66 42.28Q44.76 42.38 48.27 42.68ZM48.00 31.41L47.88 31.30L48.07 31.48Q48.60 31.33 49.55 31.83L49.53 31.80L49.47 31.74Q49.86 32.74 49.86 33.39L49.89 33.42L49.76 33.29Q50.04 35.25 49.09 36.24L49.11 36.25L49.02 36.16Q48.02 36.95 45.93 37.26L45.83 37.16L45.86 37.19Q44.45 37.23 43.92 36.96L43.93 36.97L44.02 37.07Q43.80 36.58 43.80 36.28L43.81 36.29L43.74 36.21Q43.53 32.96 46.46 31.66L46.44 31.64L46.50 31.70Q47.26 31.36 48.02 31.43Z"/><path fill="#444" d="M73.23 20.05L73.29 20.10L73.26 20.08Q69.05 20.17 65.36 19.18L65.23 19.05L65.22 19.04Q66.83 23.69 67.02 28.53L67.03 28.53L67.04 28.54Q67.25 33.36 66.03 37.97L65.99 37.93L65.89 37.82Q68.85 37.37 72.36 37.21L72.37 37.23L72.30 37.16Q76.17 36.92 77.96 34.48L77.90 34.42L78.05 34.57Q79.42 32.37 79.61 28.25L79.77 28.41L79.74 28.38Q79.70 26.51 79.24 24.80L79.25 24.80L79.24 24.80Q78.02 20.11 73.30 20.11ZM61.33 42.06L61.33 42.06L61.37 42.10Q64.24 36.41 64.24 29.71L64.31 29.78L64.33 29.79Q64.31 21.25 60.01 14.25L60.04 14.28L60.05 14.29Q65.18 16.82 73.44 17.01L73.51 17.09L73.54 17.12Q82.33 17.23 82.68 24.39L82.80 24.51L82.75 24.46Q82.76 27.06 82.72 28.50L82.85 28.63L82.88 28.66Q82.75 33.30 81.91 35.47L81.88 35.43L81.85 35.40Q81.47 36.54 80.71 37.38L80.71 37.38L80.64 37.31Q79.27 38.84 76.65 39.33L76.69 39.38L76.69 39.38Q75.07 39.62 72.06 39.85L72.12 39.91L72.05 39.84Q66.07 40.45 61.47 42.20ZM79.37 42.06L79.32 42.01L79.38 42.07Q81.98 41.59 83.62 40.10L83.79 40.27L83.81 40.29Q84.95 38.46 84.91 35.72L84.77 35.58L84.79 35.60Q84.86 34.30 84.71 30.80L84.76 30.85L84.34 26.24L84.35 26.25Q84.14 23.95 83.19 21.86L83.25 21.91L83.19 21.86Q82.63 20.88 81.94 20.23L82.00 20.29L82.04 20.17L82.04 20.17Q80.30 17.18 75.89 16.80L75.90 16.81L75.86 16.77Q73.23 16.69 66.23 15.97L66.21 15.95L66.15 15.90Q62.95 15.51 59.26 13.49L59.24 13.48L59.22 13.45Q64.15 20.94 64.15 29.69L64.00 29.55L64.05 29.59Q63.98 36.53 60.63 42.69L60.80 42.86L60.65 42.71Q61.43 42.54 62.76 42.05L62.64 41.93L62.72 42.01Q62.37 42.84 61.50 44.32L61.59 44.42L61.46 44.29Q64.48 43.20 67.83 42.70L67.85 42.72L67.86 42.73Q69.90 42.37 73.55 42.25L73.59 42.29L73.59 42.29Q77.50 42.21 79.33 42.02ZM79.43 28.45L79.31 28.33L79.36 28.38Q78.97 36.36 72.27 36.74L72.30 36.78L72.22 36.69Q70.26 36.79 68.20 37.06L68.30 37.16L68.33 37.19Q69.04 33.32 69.04 29.67L68.97 29.60L69.04 29.68Q68.90 25.84 68.18 22.00L68.24 22.06L68.18 22.00Q70.56 22.48 75.24 22.48L75.24 22.47L75.25 22.48Q76.65 22.36 78.29 23.31L78.18 23.20L78.29 23.31Q79.43 25.44 79.28 28.30Z"/><path fill="#111" d="M117.04 40.25L117.08 40.29L117.22 40.44Q115.73 40.43 114.17 40.01L114.18 40.02L114.17 40.01Q112.88 39.03 112.73 37.39L112.77 37.43L112.75 37.41Q112.69 37.20 112.88 34.57L112.87 34.57L112.94 34.63Q113.99 34.46 116.01 34.08L115.94 34.02L115.86 34.89L115.80 34.83Q115.54 36.58 116.95 37.15L116.88 37.09L116.91 37.11Q117.70 37.45 119.79 37.45L119.78 37.43L119.79 37.44Q121.48 37.39 121.67 37.31L121.55 37.19L121.53 37.17Q122.63 37.20 123.35 36.71L123.32 36.67L123.27 36.63Q124.76 35.76 124.57 33.66L124.49 33.58L124.43 33.52Q124.30 31.14 122.57 29.58L122.47 29.48L122.56 29.58Q120.78 27.97 118.31 27.97L118.43 28.09L118.35 27.79L118.33 27.77Q118.69 27.70 119.56 27.62L119.70 27.76L119.58 27.64Q121.41 27.46 122.78 26.22L122.92 26.35L122.92 26.36Q124.24 25.07 124.39 23.21L124.40 23.21L124.46 23.27Q124.47 22.87 124.47 22.52L124.51 22.56L124.43 22.48Q124.38 20.91 123.01 19.99L123.08 20.06L123.01 20.00Q121.87 19.27 120.27 19.38L120.33 19.45L120.36 19.48Q118.99 19.25 117.77 19.67L117.80 19.69L117.75 19.65Q116.40 20.27 116.10 21.42L115.97 21.29L116.10 21.43Q115.84 22.12 115.92 22.88L115.95 22.91L115.96 22.92Q114.85 22.61 112.79 21.88L112.87 21.96L112.89 21.98Q112.59 20.23 112.62 19.39L112.64 19.41L112.60 19.37Q112.72 17.85 113.79 17.17L113.91 17.28L113.88 17.26Q115.26 16.62 116.86 16.62L116.80 16.56L116.81 16.57Q120.04 16.60 123.20 16.87L123.11 16.78L123.13 16.80Q128.26 17.28 127.95 21.05L127.85 20.95L127.97 21.07Q127.85 22.51 127.35 24.07L127.25 23.97L127.26 23.98Q126.44 27.15 124.08 28.07L123.98 27.97L124.11 28.09Q126.69 28.59 127.30 31.94L127.26 31.89L127.34 31.98Q127.45 33.00 127.53 35.02L127.69 35.18L127.67 35.16Q127.73 39.53 123.13 39.98L123.16 40.02L123.10 39.95Q122.52 40.17 117.23 40.44ZM122.28 42.52L122.25 42.49L122.26 42.50Q122.97 42.64 125.82 42.72L125.73 42.62L125.74 42.63Q127.61 42.83 129.25 42.18L129.29 42.23L129.19 42.12Q130.33 41.14 130.14 39.39L130.11 39.36L130.20 39.45Q130.15 38.17 129.84 36.42L129.79 36.37L129.80 36.38Q129.11 31.92 127.17 30.28L127.11 30.22L126.85 29.77L126.88 29.76L126.87 29.75Q128.57 28.26 129.33 23.88L129.36 23.91L129.42 23.97Q129.40 23.45 129.51 22.50L129.50 22.49L129.50 22.48Q129.61 21.76 129.53 21.07L129.60 21.14L129.50 21.04Q129.42 19.43 128.12 18.75L128.01 18.64L128.01 18.71L128.00 18.71Q127.73 17.74 126.58 17.21L126.61 17.24L126.47 17.10Q125.03 16.50 119.89 16.19L119.86 16.15L119.91 16.21Q118.17 16.06 116.57 16.06L116.68 16.18L116.68 16.18Q115.01 16.11 113.49 16.75L113.46 16.73L113.45 16.72Q112.28 17.52 112.28 19.27L112.39 19.39L112.37 19.37Q112.35 18.93 112.62 22.28L112.62 22.28L112.48 22.14Q112.86 22.30 114.50 22.90L114.51 22.92L114.46 22.87Q114.42 23.36 114.38 23.85L114.49 23.96L114.44 23.91Q114.43 24.39 114.47 24.93L114.58 25.04L114.59 25.05Q116.36 25.41 118.38 25.53L118.34 25.49L118.27 25.42Q118.15 23.36 119.26 22.52L119.37 22.63L119.30 22.56Q120.19 21.97 122.21 21.74L122.16 21.70L122.17 21.70Q123.39 21.78 123.96 21.98L123.90 21.91L123.97 21.98Q124.02 22.11 124.06 22.23L123.90 22.06L123.89 22.25L124.11 22.92L124.10 22.91Q124.17 23.17 124.13 23.32L123.99 23.19L124.11 23.30Q124.03 25.01 122.50 26.19L122.49 26.18L122.42 26.11Q121.55 27.06 119.53 27.25L119.54 27.26L119.62 27.34Q118.83 27.42 117.95 27.42L117.87 27.35L117.98 27.45Q117.90 27.67 118.05 28.36L118.02 28.33L118.12 28.43Q119.78 28.34 121.23 29.06L121.24 29.07L121.26 29.21L119.58 29.28L119.64 29.33Q119.68 29.68 119.79 30.29L119.84 30.34L119.78 30.28Q121.97 30.26 123.69 31.60L123.59 31.50L123.72 31.63Q123.89 31.95 124.19 33.59L124.20 33.60L124.21 33.60Q124.33 36.46 121.40 36.88L121.37 36.85L121.48 36.97Q119.42 37.27 118.85 37.23L118.79 37.17L118.67 37.05Q118.31 37.04 117.78 36.96L117.71 36.89L117.78 36.50L117.80 35.95L117.85 35.58L118.06 35.45L118.04 35.43Q117.04 35.46 116.24 35.65L116.14 35.55L116.31 35.72Q116.18 35.40 116.18 35.21L116.26 35.28L116.12 35.15Q116.21 35.01 116.21 34.78L116.21 34.78L116.25 34.82Q116.19 34.31 116.35 33.58L116.42 33.66L116.44 33.67Q114.46 33.79 112.60 34.14L112.67 34.20L112.69 34.23Q112.74 34.77 112.62 35.89L112.64 35.91L112.63 35.90Q112.35 36.86 112.35 37.46L112.43 37.54L112.47 37.59Q112.54 39.63 113.91 40.39L113.81 40.30L113.86 40.35Q115.47 42.75 120.19 42.56L120.15 42.52L120.16 42.54Q120.75 42.37 122.27 42.52Z"/><path fill="#111" d="M92.39 40.27L92.47 40.35L92.39 40.27Q91.04 40.40 89.47 39.98L89.53 40.03L89.42 39.93Q88.22 39.03 88.07 37.40L88.19 37.51L88.10 37.43Q88.05 37.23 88.25 34.60L88.25 34.61L88.18 34.54Q89.27 34.41 91.29 34.03L91.26 34.00L91.21 34.91L91.18 34.87Q90.78 36.49 92.19 37.06L92.35 37.22L92.17 37.04Q93.01 37.42 95.10 37.42L95.13 37.45L95.11 37.44Q96.82 37.39 97.01 37.32L97.01 37.32L97.01 37.31Q97.82 37.06 98.55 36.57L98.51 36.53L98.60 36.62Q100.08 35.74 99.89 33.65L99.83 33.59L99.83 33.58Q99.56 31.07 97.83 29.51L97.89 29.57L97.96 29.64Q96.23 28.09 93.76 28.09L93.61 27.93L93.60 27.70L93.62 27.72Q93.97 27.65 94.84 27.57L94.94 27.67L94.92 27.65Q96.80 27.51 98.17 26.28L98.12 26.23L98.15 26.25Q99.53 25.02 99.68 23.16L99.65 23.13L99.79 23.27Q99.86 22.92 99.86 22.58L99.87 22.58L99.74 22.46Q99.82 21.01 98.44 20.10L98.44 20.09L98.35 20.00Q97.29 19.36 95.69 19.48L95.58 19.36L95.56 19.34Q94.25 19.18 93.04 19.60L93.04 19.60L93.09 19.65Q91.66 20.20 91.35 21.34L91.32 21.31L91.39 21.38Q91.15 22.09 91.23 22.85L91.17 22.79L91.20 22.82Q90.22 22.64 88.16 21.92L88.21 21.97L88.21 21.97Q87.99 20.31 88.03 19.47L87.92 19.35L87.99 19.43Q88.17 17.96 89.23 17.28L89.12 17.17L89.07 17.12Q90.48 16.51 92.08 16.51L92.20 16.63L92.11 16.54Q95.36 16.59 98.52 16.86L98.46 16.79L98.54 16.88Q103.52 17.22 103.22 20.99L103.25 21.01L103.33 21.10Q103.25 22.58 102.76 24.14L102.65 24.04L102.69 24.07Q101.81 27.20 99.45 28.11L99.38 28.03L99.35 28.00Q101.93 28.49 102.54 31.84L102.68 31.99L102.54 31.84Q102.90 33.12 102.98 35.14L103.03 35.18L102.98 35.13Q103.07 39.53 98.46 39.98L98.42 39.94L98.48 40.01Q97.81 40.13 92.52 40.40ZM97.60 42.51L97.71 42.62L97.63 42.54Q98.24 42.58 101.10 42.66L101.10 42.66L101.18 42.74Q102.88 42.77 104.52 42.12L104.46 42.06L104.52 42.12Q105.69 41.16 105.50 39.41L105.53 39.44L105.61 39.52Q105.49 38.18 105.19 36.43L105.02 36.27L105.09 36.33Q104.39 31.87 102.45 30.23L102.37 30.15L102.30 29.89L102.14 29.69L102.28 29.83Q103.91 28.26 104.67 23.88L104.67 23.89L104.79 24.00Q104.75 23.47 104.87 22.52L104.91 22.56L104.80 22.46Q105.02 21.84 104.95 21.15L104.92 21.13L104.89 21.10Q104.70 19.38 103.40 18.70L103.51 18.80L103.31 18.68L103.25 18.62Q103.11 17.80 101.97 17.27L101.98 17.27L101.93 17.22Q100.47 16.60 95.33 16.29L95.31 16.27L95.34 16.30Q93.54 16.11 91.95 16.11L91.98 16.14L91.93 16.09Q90.28 16.04 88.76 16.69L88.92 16.85L88.77 16.71Q87.72 17.64 87.72 19.39L87.54 19.20L87.71 19.38Q87.54 18.79 87.81 22.14L87.84 22.17L87.85 22.18Q88.26 22.36 89.90 22.97L89.91 22.98L89.85 22.92Q89.78 23.39 89.75 23.88L89.88 24.02L89.88 24.01Q89.83 24.46 89.87 24.99L89.85 24.97L89.76 24.89Q91.69 25.41 93.71 25.52L93.67 25.49L93.68 25.49Q93.64 23.52 94.75 22.68L94.60 22.53L94.60 22.53Q95.56 22.01 97.58 21.78L97.43 21.63L97.48 21.68Q98.73 21.79 99.30 21.98L99.15 21.83L99.28 21.96Q99.35 22.11 99.39 22.22L99.22 22.06L99.35 22.37L99.38 22.86L99.46 22.94Q99.48 23.15 99.44 23.30L99.47 23.33L99.31 23.17Q99.27 24.92 97.75 26.10L97.70 26.05L97.82 26.17Q96.85 27.03 94.83 27.22L94.78 27.17L94.90 27.29Q94.17 27.43 93.29 27.43L93.32 27.46L93.27 27.40Q93.36 27.81 93.52 28.49L93.36 28.33L93.36 28.34Q95.14 28.37 96.59 29.09L96.71 29.21L96.45 29.07L95.05 29.41L94.97 29.34Q95.11 29.78 95.22 30.39L95.06 30.22L95.17 30.34Q97.32 30.28 99.04 31.61L99.02 31.59L99.00 31.58Q99.26 31.99 99.56 33.62L99.59 33.65L99.59 33.65Q99.75 36.55 96.82 36.97L96.76 36.91L96.84 36.99Q94.60 37.11 94.03 37.07L94.05 37.09L94.06 37.11Q93.57 36.96 93.04 36.88L93.13 36.98L93.05 36.44L93.15 35.97L93.35 35.75L93.30 35.35L93.24 35.30Q92.25 35.34 91.45 35.53L91.60 35.67L91.62 35.69Q91.54 35.42 91.54 35.23L91.45 35.14L91.49 35.18Q91.55 35.02 91.55 34.79L91.48 34.72L91.62 34.85Q91.62 34.40 91.77 33.67L91.81 33.72L91.83 33.73Q89.84 33.84 87.98 34.18L88.06 34.26L87.99 34.20Q88.07 34.77 87.96 35.89L87.89 35.82L87.91 35.85Q87.83 37.01 87.83 37.61L87.79 37.58L87.87 37.66Q87.90 39.66 89.27 40.42L89.25 40.41L89.20 40.36Q90.75 42.71 95.47 42.52L95.39 42.43L95.48 42.53Q96.15 42.43 97.67 42.58Z"/><path fill="#333" d="M13.57 38.95L13.55 38.93L13.67 39.05Q15.43 36.55 20.19 29.28L20.15 29.24L20.25 29.34Q24.16 23.01 27.02 19.74L27.16 19.88L27.20 19.92Q25.07 20.19 22.98 20.19L22.85 20.06L22.93 20.14Q17.73 20.20 13.74 18.41L13.58 18.25L13.59 18.26Q12.97 16.39 12.29 14.83L12.26 14.81L12.30 14.84Q16.83 16.97 22.50 17.09L22.62 17.20L22.59 17.17Q27.76 17.28 32.94 15.38L32.87 15.31L32.80 15.25Q32.54 16.20 32.23 16.99L32.09 16.85L31.53 18.46L31.65 18.59Q28.60 22.23 24.60 28.06L24.49 27.94L21.27 32.87L21.27 32.87Q19.61 35.32 17.78 37.61L17.70 37.52L17.75 37.58Q21.08 36.99 24.39 37.06L24.25 36.92L24.42 37.08Q27.65 37.09 30.81 38.00L30.77 37.95L31.27 39.56L31.38 39.67Q31.52 40.38 31.87 41.22L31.91 41.27L31.95 41.30Q27.12 39.56 21.98 39.75L22.09 39.86L22.05 39.82Q16.88 39.98 12.39 42.00L12.48 42.09L12.40 42.01Q12.90 41.06 13.62 39.00ZM11.85 42.76L11.82 42.72L11.94 42.84Q13.14 42.22 13.94 41.95L13.88 41.89L13.91 41.92Q13.59 42.63 12.91 44.15L12.92 44.17L12.96 44.21Q18.60 42.00 24.57 42.23L24.61 42.27L24.70 42.36Q31.00 42.56 36.02 45.34L35.89 45.21L36.06 45.37Q34.59 42.92 33.79 40.75L33.73 40.69L33.74 40.70Q33.19 40.42 31.67 39.84L31.76 39.94L31.80 39.98Q31.48 39.08 31.06 37.60L31.07 37.61L31.10 37.64Q26.99 36.50 21.89 36.69L21.88 36.68L21.97 36.77Q24.02 33.94 27.56 28.38L27.48 28.30L27.59 28.42Q31.13 22.59 33.03 20.04L33.07 20.08L33.03 20.04Q33.70 18.81 34.73 16.10L34.65 16.02L34.58 15.95Q34.01 16.41 32.56 17.02L32.48 16.94L32.43 16.89Q32.92 16.24 33.65 14.72L33.60 14.67L33.51 14.58Q28.19 16.72 22.48 16.65L22.48 16.65L22.46 16.62Q16.55 16.58 11.60 14.06L11.61 14.07L11.54 14.00Q12.69 16.38 13.42 18.62L13.46 18.67L13.53 18.73Q14.57 19.20 15.37 19.43L15.44 19.51L15.39 19.46Q15.67 20.15 15.94 21.60L15.85 21.51L15.90 21.57Q19.62 22.62 24.49 22.43L24.51 22.44L24.48 22.41Q22.06 25.59 18.75 30.58L18.72 30.55L13.21 38.90L13.29 38.98Q12.84 40.16 11.81 42.71Z"/></svg>