<svg xmlns="http://www.w3.org/2000/svg" width="150" height="50" viewBox="0,0,150,50"><path fill="#333" d="M129.82 41.60L129.71 41.48L129.76 41.54Q127.69 41.18 125.52 41.03L125.55 41.05L125.43 40.93Q124.15 39.65 121.48 35.81L121.43 35.76L121.41 35.73Q119.13 38.74 116.73 41.18L116.73 41.18L114.67 41.59L114.62 41.55Q113.63 41.81 112.64 42.08L112.74 42.18L112.63 42.07Q116.94 38.08 119.95 33.97L119.94 33.96L119.91 33.94Q116.53 29.64 111.13 24.84L111.22 24.94L111.09 24.81Q113.46 25.69 116.17 26.11L116.08 26.03L116.12 26.06Q119.45 29.06 121.36 31.76L121.44 31.85L121.40 31.81Q123.53 28.76 126.27 26.24L126.36 26.33L126.25 26.22Q129.46 26.05 131.29 25.55L131.17 25.43L131.28 25.55Q126.76 29.20 123.06 33.77L122.91 33.62L123.04 33.75Q126.32 38.32 129.78 41.55ZM132.67 24.72L132.62 24.68L132.63 24.68Q129.84 25.63 126.30 25.97L126.30 25.96L126.23 25.90Q123.25 28.48 121.54 30.95L121.53 30.95L121.56 30.97Q120.75 30.01 119.11 28.03L119.03 27.95L118.93 28.04L118.96 28.07Q118.77 28.00 118.66 28.00L118.54 27.87L118.66 27.99Q117.78 27.04 116.14 25.59L116.21 25.66L116.17 25.62Q112.56 25.05 109.70 23.84L109.86 24.00L109.73 23.86Q115.24 28.65 119.28 33.79L119.31 33.82L119.43 33.95Q115.92 38.43 111.50 42.73L111.54 42.77L111.55 42.78Q111.86 42.75 115.36 41.91L115.39 41.93L115.33 41.88Q113.72 43.12 112.08 44.45L112.25 44.62L112.14 44.51Q115.28 43.54 118.44 43.35L118.60 43.51L118.45 43.36Q120.90 41.17 122.81 38.43L122.90 38.52L122.77 38.39Q124.27 40.23 125.49 41.41L125.50 41.42L125.54 41.46Q125.47 41.28 125.55 41.36L125.67 41.48L125.87 41.48L125.79 41.41Q127.10 42.57 128.44 43.64L128.33 43.53L128.43 43.63Q132.08 44.23 134.97 45.26L134.85 45.14L134.88 45.17Q128.66 40.67 124.97 35.49L125.04 35.56L124.95 35.47Q128.58 30.42 133.15 26.35L133.24 26.44L133.25 26.44Q132.35 26.84 131.36 27.07L131.36 27.07L129.29 27.47L129.33 27.51Q130.48 26.57 132.65 24.71Z"/><path fill="#222" d="M40.26 47.07L40.18 46.98L40.32 47.12Q39.26 47.21 37.36 47.52L37.50 47.66L37.33 47.48Q38.62 45.32 39.65 44.02L39.74 44.11L39.84 44.21Q41.42 44.34 41.57 44.34L41.73 44.50L41.63 44.40Q41.91 44.45 42.44 44.34L42.55 44.44L42.47 44.37Q43.11 44.24 43.30 44.24L43.27 44.22L43.31 44.25Q45.87 44.00 45.80 41.83L45.81 41.84L45.91 41.94Q45.72 40.31 45.60 34.06L45.59 34.05L45.65 34.11Q45.68 30.63 45.75 26.48L45.73 26.46L47.04 26.17L47.15 26.28Q47.70 26.07 48.38 25.84L48.54 26.00L48.44 25.90Q48.20 30.31 48.24 34.68L48.21 34.65L48.21 34.65Q48.35 39.13 48.88 43.51L48.90 43.53L48.89 43.52Q48.87 43.72 48.87 43.99L48.92 44.04L48.86 43.98Q48.97 45.73 47.29 46.11L47.21 46.02L47.31 46.12Q44.05 46.36 40.20 47.01ZM47.06 22.88L44.91 19.74L44.91 19.74Q45.94 18.33 47.77 15.55L47.78 15.56L47.85 15.64Q48.48 16.49 49.81 18.32L49.88 18.39L46.99 22.81ZM50.13 49.55L50.02 49.45L50.08 49.50Q50.64 49.56 51.40 49.22L51.43 49.25L51.40 49.22Q51.79 48.58 51.79 48.13L51.75 48.09L51.60 47.94Q51.56 47.55 51.44 46.94L51.55 47.05L51.44 46.95Q50.25 40.69 50.25 32.77L50.15 32.67L50.23 32.75Q50.30 29.96 50.45 27.07L50.44 27.06L50.38 27.00Q49.84 27.18 48.69 27.48L48.63 27.42L48.68 27.47Q48.74 27.03 48.78 26.50L48.74 26.46L48.91 25.45L48.94 25.48Q47.16 26.06 45.37 26.10L45.38 26.11L45.32 26.05Q45.18 30.29 45.22 33.87L45.31 33.96L45.40 41.78L45.43 41.81Q45.58 43.86 43.41 43.98L43.37 43.93L43.41 43.97Q43.22 44.01 42.71 44.07L42.61 43.97L42.63 43.99Q42.03 43.96 41.76 43.96L41.85 44.05L41.86 44.06Q41.42 44.08 39.86 43.66L39.81 43.61L39.87 43.67Q39.32 44.19 38.22 45.86L38.17 45.82L36.69 48.18L36.74 48.23Q37.61 48.04 39.25 47.66L39.30 47.70L38.71 48.29L38.24 49.01L38.28 49.04Q40.46 48.79 41.79 48.86L41.75 48.83L41.80 48.87Q44.10 49.05 50.04 49.47ZM46.97 23.55L46.94 23.52L47.37 23.08L47.29 23.00Q47.79 23.57 48.74 25.17L48.67 25.10L48.65 25.08Q50.30 22.08 51.86 19.00L51.69 18.83L51.82 18.95Q50.77 17.30 49.82 16.01L49.88 16.07L49.88 16.07Q49.60 16.20 49.25 16.73L49.25 16.73L49.20 16.68Q48.94 16.19 47.95 14.90L47.87 14.82L47.85 14.80Q46.67 16.40 44.35 19.75L44.34 19.74L44.29 19.69Q45.23 20.93 46.94 23.52Z"/><path fill="#222" d="M26.26 41.29L26.21 41.24L23.24 41.12L23.25 41.14Q20.81 40.97 20.01 40.86L20.11 40.96L20.00 40.85Q18.17 40.51 16.99 39.64L16.92 39.56L16.92 39.56Q15.74 38.26 15.51 34.91L15.46 34.87L15.51 34.91Q15.41 34.36 15.33 33.14L15.29 33.10L15.46 33.27Q15.31 32.70 15.23 31.60L15.22 31.58L15.35 31.71Q15.33 30.89 15.37 30.17L15.32 30.12L15.32 30.12Q15.43 28.09 16.45 27.33L16.52 27.40L16.48 27.36Q18.43 26.23 23.27 26.00L23.31 26.04L23.20 25.93Q25.31 25.91 26.11 25.91L26.18 25.98L26.11 25.91Q27.55 25.87 28.92 26.17L29.04 26.29L28.89 26.14Q28.44 27.52 27.91 29.35L27.77 29.21L27.84 29.28Q27.34 29.35 26.85 29.32L26.88 29.34L26.93 29.40Q26.82 29.36 26.29 29.25L26.23 29.19L25.35 29.03L25.36 29.04Q24.12 28.60 23.51 28.64L23.64 28.77L23.55 28.68Q18.91 28.84 18.30 31.65L18.34 31.69L18.23 31.58Q17.98 32.74 18.06 33.69L18.09 33.73L18.18 33.82Q18.22 36.29 19.46 37.38L19.52 37.44L19.46 37.38Q20.77 38.54 23.36 38.58L23.27 38.49L23.30 38.51Q24.72 38.49 25.44 38.19L25.46 38.20L26.58 37.80L26.59 37.81Q27.12 37.58 27.69 37.50L27.55 37.37L27.57 37.38Q27.92 39.29 28.30 40.59L28.18 40.47L28.18 40.47Q27.98 40.88 26.19 41.22ZM29.41 44.13L29.48 44.20L29.41 44.13Q29.88 44.26 30.71 44.33L30.61 44.23L30.73 44.35Q31.41 44.42 31.76 43.85L31.75 43.84L31.74 43.84Q30.44 41.66 29.94 39.56L29.97 39.59L30.00 39.63Q29.66 39.58 29.20 39.58L29.24 39.63L29.08 39.47Q28.67 39.47 28.29 39.66L28.30 39.68L28.38 39.76Q27.98 38.44 27.83 37.03L27.96 37.16L27.96 37.16Q27.25 36.98 26.03 37.55L25.97 37.50L26.06 37.59Q24.84 38.15 24.34 38.15L24.26 38.07L24.34 38.15Q23.91 38.22 23.31 38.18L23.26 38.14L23.18 38.06Q22.25 38.01 20.27 37.43L20.43 37.59L20.40 37.56Q20.10 36.88 20.14 35.73L20.00 35.60L20.10 35.69Q20.29 31.47 25.23 30.94L25.29 30.99L25.19 30.89Q25.92 30.93 27.29 31.27L27.20 31.19L27.19 31.18Q28.65 31.61 29.37 31.57L29.44 31.64L29.35 31.54Q29.81 29.35 30.50 27.52L30.53 27.55L30.45 27.47Q30.00 27.28 29.61 27.21L29.64 27.24L28.94 27.22L28.93 27.21Q29.05 26.64 29.43 25.76L29.41 25.75L29.56 25.90Q28.06 25.58 26.50 25.58L26.32 25.40L26.48 25.56Q24.03 25.51 19.65 25.89L19.61 25.84L19.59 25.82Q17.63 25.96 16.07 26.95L16.07 26.95L16.10 26.98Q14.95 28.00 14.95 29.90L14.97 29.92L14.91 29.86Q14.95 30.32 15.06 31.54L15.10 31.57L15.13 31.61Q15.12 32.55 15.08 33.16L15.07 33.15L14.98 33.05Q15.08 35.01 15.80 38.74L15.82 38.77L15.85 38.80Q16.18 39.58 16.67 40.08L16.81 40.21L17.01 40.42L16.97 40.34L17.03 40.40Q18.02 42.49 21.94 43.10L21.95 43.10L21.83 42.99Q25.10 43.59 27.76 43.86L27.65 43.75L27.66 43.76Q28.54 43.92 29.46 44.18Z"/><path fill="#222" d="M100.02 30.96L99.92 30.86L100.00 30.94Q99.78 29.62 97.84 28.89L97.91 28.97L97.86 28.91Q97.41 28.76 96.87 28.76L96.94 28.83L96.86 28.75Q95.43 28.69 94.36 29.26L94.43 29.32L94.38 29.28Q93.14 30.13 93.25 31.35L93.27 31.36L93.28 31.37Q93.43 34.00 93.28 36.25L93.43 36.40L93.35 36.32Q93.25 38.80 92.52 41.32L92.48 41.28L92.42 41.21Q90.33 41.75 89.15 42.17L89.22 42.24L89.22 42.24Q90.69 38.50 90.69 34.50L90.83 34.63L90.87 34.68Q90.72 29.08 88.13 24.63L88.24 24.74L88.14 24.63Q89.32 25.10 91.72 25.82L91.84 25.94L91.87 25.97Q92.22 26.73 92.60 28.26L92.44 28.10L92.41 28.07Q93.90 26.14 97.79 26.21L97.64 26.07L97.79 26.22Q99.29 26.27 100.09 26.39L99.96 26.25L99.91 26.21Q102.88 26.58 102.95 28.60L102.99 28.64L103.10 28.75Q103.15 29.68 102.96 30.70L102.98 30.72L102.90 30.64Q102.52 33.23 102.71 36.24L102.53 36.06L102.53 36.06Q102.70 38.93 103.68 41.48L103.71 41.51L103.82 41.61Q102.00 41.09 100.29 40.94L100.37 41.02L100.43 41.08Q99.82 38.56 99.74 35.90L99.73 35.89L99.76 35.92Q99.83 33.32 100.06 31.00ZM99.89 41.26L99.95 41.32L99.91 41.28Q100.82 41.39 102.12 41.62L101.99 41.50L102.46 42.65L102.38 42.57Q102.53 43.03 102.76 43.56L102.84 43.64L102.86 43.66Q105.22 44.15 107.92 45.33L107.76 45.18L107.84 45.25Q105.45 42.10 104.76 38.29L104.83 38.36L104.83 38.36Q104.41 36.15 104.52 32.45L104.61 32.54L104.65 32.58Q104.64 32.27 104.68 31.47L104.68 31.47L104.54 31.33Q104.69 30.79 104.61 30.30L104.62 30.30L104.68 30.37Q104.40 28.52 103.30 28.03L103.38 28.12L103.48 28.22Q103.26 27.31 102.50 26.70L102.44 26.64L102.38 26.58Q100.84 25.73 97.80 25.81L97.72 25.73L97.71 25.72Q95.89 25.80 95.05 25.99L94.95 25.89L94.96 25.90Q93.66 26.39 92.71 27.30L92.71 27.31L92.63 27.23Q92.46 26.63 92.08 25.60L92.02 25.55L92.02 25.55Q89.20 24.86 87.38 23.87L87.50 24.00L87.49 23.99Q90.61 28.94 90.61 34.68L90.56 34.63L90.44 34.52Q90.49 38.94 88.59 42.79L88.64 42.84L88.61 42.81Q89.29 42.50 90.58 42.12L90.58 42.11L90.58 42.11Q90.04 43.33 89.51 44.32L89.59 44.40L89.62 44.43Q91.05 43.99 94.59 43.42L94.62 43.45L94.48 43.31Q95.49 38.19 95.37 33.36L95.30 33.28L95.49 33.47Q95.36 32.55 96.54 31.82L96.61 31.89L96.63 31.91Q97.51 31.11 98.61 31.00L98.57 30.96L98.60 30.98Q99.10 30.99 99.52 31.18L99.50 31.16L99.53 31.19Q99.39 33.76 99.43 36.31L99.50 36.37L99.47 36.35Q99.49 38.85 99.99 41.36Z"/><path fill="#111" d="M67.24 33.03L67.12 32.91L67.20 32.99Q70.24 32.56 73.43 32.68L73.38 32.63L73.53 32.77Q73.45 30.18 73.45 27.79L73.42 27.75L73.40 27.73Q73.48 25.34 73.67 22.78L73.61 22.73L73.67 22.79Q72.40 24.45 67.19 32.98ZM77.12 40.36L77.07 40.30L77.14 40.38Q75.41 40.02 73.63 39.95L73.67 39.99L73.69 40.02Q73.36 37.51 73.24 35.04L73.31 35.10L73.23 35.03Q68.02 34.95 63.30 36.36L63.24 36.31L63.24 36.30Q63.45 35.90 63.64 34.91L63.53 34.81L63.60 34.88Q65.27 31.60 68.85 25.32L68.94 25.41L68.85 25.31Q71.90 20.60 75.33 16.72L75.31 16.70L75.16 16.54Q76.06 16.38 77.74 16.12L77.76 16.14L77.82 16.20Q75.85 22.57 75.85 29.61L75.92 29.68L75.98 29.74Q75.84 31.08 75.91 32.57L75.95 32.60L77.30 32.78L77.22 32.70Q77.84 32.74 78.44 32.85L78.48 32.88L78.48 32.89Q78.68 33.96 78.95 35.91L78.94 35.90L78.94 35.90Q77.73 35.64 76.25 35.45L76.21 35.42L76.15 35.35Q76.47 37.46 77.15 40.39ZM78.80 32.56L78.84 32.60L78.74 32.50Q78.62 32.49 78.43 32.49L78.43 32.50L77.93 32.38L77.96 32.41Q77.81 30.88 77.81 29.47L77.94 29.61L77.93 29.59Q77.91 23.18 79.97 17.17L79.96 17.16L79.98 17.18Q79.20 17.43 77.76 17.81L77.63 17.68L77.67 17.73Q77.86 16.92 78.32 15.52L78.39 15.59L78.34 15.54Q77.20 16.07 75.14 16.30L74.96 16.12L74.96 16.12Q71.08 20.50 65.87 29.87L65.87 29.87L68.05 26.31L68.10 26.35Q67.50 27.20 67.24 27.77L67.37 27.90L62.78 36.79L62.96 36.97Q63.46 36.67 64.60 36.29L64.75 36.44L64.43 36.50L64.42 36.49Q64.42 37.29 64.11 38.54L64.13 38.56L64.06 38.49Q68.22 37.21 73.06 37.40L72.99 37.34L73.12 37.47Q73.11 38.37 73.30 40.35L73.24 40.28L73.34 40.39Q74.23 40.21 75.30 40.33L75.38 40.41L75.36 40.39Q75.64 41.20 75.90 42.57L75.79 42.45L75.88 42.54Q77.68 42.67 80.69 43.59L80.66 43.55L80.80 43.70Q79.75 41.50 78.83 38.23L78.91 38.30L80.28 38.68L80.17 38.58Q80.87 38.82 81.56 39.16L81.68 39.28L81.66 39.26Q80.87 36.76 80.72 35.09L80.59 34.96L80.62 34.99Q80.15 34.94 79.01 34.71L78.87 34.57L78.88 34.58Q78.80 33.43 78.80 32.56ZM70.68 32.28L70.82 32.42L70.74 32.34Q71.57 31.12 73.13 28.57L72.98 28.41L73.12 28.55Q73.11 29.50 73.07 30.45L72.97 30.35L72.99 30.36Q73.07 31.44 73.11 32.39L73.06 32.34L73.09 32.37Q72.45 32.26 71.88 32.26L71.90 32.29L71.98 32.36Q71.28 32.27 70.67 32.27Z"/></svg>