<svg xmlns="http://www.w3.org/2000/svg" width="150" height="50" viewBox="0,0,150,50"><path fill="#333" d="M46.59 41.18L46.64 41.23L44.82 41.12L44.92 41.22Q41.46 41.15 40.51 39.02L40.56 39.07L40.48 38.99Q41.77 38.07 43.21 36.96L43.17 36.92L43.09 36.84Q43.79 39.13 46.64 38.98L46.62 38.96L46.65 38.99Q47.27 38.78 48.30 38.55L48.42 38.67L48.30 38.55Q49.36 38.16 49.29 37.21L49.30 37.23L49.21 37.14Q49.13 36.03 47.34 35.35L47.27 35.27L43.63 33.92L43.62 33.91Q41.30 32.57 40.96 29.03L40.93 29.01L40.90 28.98Q40.70 26.84 42.87 26.27L42.96 26.35L42.88 26.27Q43.72 25.94 46.69 25.94L46.77 26.02L46.73 25.98Q51.56 25.93 52.48 28.45L52.48 28.45L52.54 28.51Q51.95 29.10 51.22 29.55L51.27 29.61L49.79 30.48L49.89 30.58Q49.33 28.62 46.10 28.39L46.04 28.33L46.07 28.36Q45.53 28.43 44.50 28.85L44.50 28.85L44.47 28.82Q43.89 29.15 43.89 30.26L43.80 30.16L43.91 30.27Q44.15 31.24 45.98 31.93L46.02 31.97L46.01 31.95Q47.10 32.36 49.76 33.46L49.73 33.43L49.82 33.52Q51.53 34.24 51.72 36.79L51.83 36.90L51.83 36.89Q51.96 37.60 51.89 38.59L51.71 38.41L51.74 38.45Q51.74 39.36 51.16 40.00L51.21 40.05L51.15 39.99Q49.60 41.14 46.56 41.14ZM51.38 43.80L51.39 43.81L51.23 43.64Q52.15 43.69 53.52 43.38L53.54 43.41L53.68 43.55Q54.74 42.85 54.55 41.64L54.41 41.50L54.53 41.62Q54.31 40.91 54.01 39.31L54.13 39.43L53.99 39.29Q53.50 36.40 51.72 35.19L51.83 35.30L51.83 35.31Q51.20 33.79 49.94 33.07L50.01 33.14L50.01 33.14Q48.76 32.73 46.29 31.78L46.16 31.64L46.27 31.76Q46.48 31.36 46.75 31.25L46.68 31.18L46.69 31.19Q47.36 30.80 48.01 30.76L47.87 30.61L47.97 30.72Q48.82 30.73 49.58 31.00L49.47 30.89L49.49 30.98L49.64 31.02L49.85 31.03L49.88 31.11L49.83 31.06Q50.96 31.58 51.15 32.83L51.08 32.76L51.05 32.74Q52.43 32.02 54.34 30.35L54.37 30.38L54.28 30.29Q54.01 29.56 53.02 28.38L53.07 28.43L53.04 28.40Q51.79 25.59 46.69 25.48L46.87 25.65L46.71 25.50Q43.71 25.62 41.73 26.19L41.70 26.16L41.69 26.15Q40.29 26.73 40.52 28.83L40.38 28.69L40.52 28.82Q40.53 29.97 41.44 32.07L41.40 32.03L41.58 32.21Q41.96 33.16 42.99 33.88L43.02 33.91L43.15 34.05Q43.82 35.52 45.12 36.20L44.97 36.06L45.02 36.10Q46.06 36.46 47.01 36.84L47.01 36.84L48.89 37.58L48.93 37.61Q48.57 38.70 46.63 38.59L46.55 38.51L46.59 38.55Q46.15 38.61 44.94 38.30L44.87 38.24L44.87 38.09L44.78 38.22L44.79 38.23Q43.90 37.84 43.25 36.35L43.18 36.28L43.22 36.32Q41.10 37.89 39.99 39.03L39.93 38.97L39.96 39.00Q40.19 39.84 41.21 40.64L41.39 40.81L41.10 40.82L41.21 40.93Q42.50 42.92 46.73 43.30L46.76 43.32L46.73 43.30Q48.02 43.45 51.26 43.67Z"/><path fill="#333" d="M68.00 33.35L68.04 33.39L67.87 33.22Q67.87 36.19 66.69 40.84L66.69 40.83L66.54 40.68Q64.86 41.33 63.26 42.12L63.22 42.08L63.26 42.12Q65.87 35.11 65.61 27.68L65.50 27.58L65.64 27.72Q65.24 20.20 62.16 13.46L62.30 13.60L62.25 13.56Q64.08 14.70 65.95 15.27L65.95 15.28L66.00 15.33Q68.24 22.40 68.24 29.06L68.09 28.91L68.18 29.00Q68.09 30.36 68.02 31.84L68.12 31.95L68.19 32.02Q69.22 30.68 74.43 25.74L74.47 25.77L74.55 25.85Q75.47 25.67 76.46 25.60L76.55 25.69L78.60 25.49L78.68 25.57Q75.41 28.46 71.11 32.23L71.16 32.28L71.21 32.33Q74.51 35.03 80.98 40.85L81.06 40.93L80.91 40.78Q78.35 40.05 75.38 39.86L75.43 39.91L75.39 39.87Q72.92 37.81 68.04 33.39ZM77.92 42.55L77.79 42.42L77.77 42.40Q82.65 43.39 85.77 45.33L85.60 45.16L85.65 45.21Q84.53 43.98 81.90 41.58L81.84 41.52L81.92 41.60Q82.20 41.73 82.47 41.85L82.43 41.81L82.41 41.78Q80.22 39.68 77.98 37.77L78.06 37.85L73.55 33.87L73.53 33.86Q78.54 29.69 80.98 26.80L81.09 26.92L80.94 26.76Q79.85 26.97 77.38 27.24L77.25 27.11L77.28 27.14Q78.90 25.72 79.59 24.88L79.63 24.92L79.55 24.83Q76.88 25.45 74.41 25.45L74.33 25.37L74.38 25.42Q73.02 26.76 70.28 29.43L70.28 29.42L70.21 29.35Q70.13 23.49 69.14 17.66L69.18 17.70L69.17 17.70Q68.51 17.57 67.03 17.31L67.02 17.30L66.92 17.20Q66.91 16.62 66.46 15.13L66.46 15.13L66.42 15.10Q63.78 14.29 61.54 12.73L61.59 12.78L61.55 12.74Q64.94 19.52 65.28 27.63L65.36 27.71L65.36 27.71Q65.72 35.64 62.71 42.87L62.58 42.75L62.66 42.82Q63.31 42.49 64.65 41.84L64.64 41.83L64.60 41.79Q64.40 42.66 63.76 44.11L63.76 44.11L63.75 44.10Q66.54 42.97 68.67 42.59L68.75 42.67L68.65 42.56Q69.19 40.03 69.69 35.76L69.68 35.75L69.71 35.78Q72.32 38.06 77.77 42.40Z"/><path fill="#333" d="M18.88 30.56L18.98 30.66L19.01 30.69Q18.92 30.60 22.31 30.56L22.34 30.59L22.27 30.52Q24.67 30.63 25.73 30.67L25.64 30.58L25.74 30.68Q24.68 27.80 22.25 22.16L22.29 22.20L22.17 22.09Q21.71 23.61 20.67 26.46L20.55 26.35L20.62 26.42Q19.47 29.17 18.90 30.58ZM26.73 33.04L26.72 33.03L26.89 33.20Q24.53 33.09 22.33 33.13L22.28 33.08L22.32 33.12Q19.99 33.08 17.71 33.27L17.74 33.30L17.85 33.41Q16.26 36.77 13.03 40.96L13.09 41.03L13.03 40.96Q10.45 41.58 9.08 42.07L8.96 41.96L9.14 42.14Q14.18 36.41 18.87 23.04L18.93 23.11L18.93 23.11Q20.20 19.69 21.57 16.46L21.39 16.28L21.37 16.26Q21.84 16.42 22.18 16.42L22.20 16.44L22.83 16.35L22.82 16.34Q23.53 17.66 28.36 29.30L28.48 29.42L28.50 29.45Q31.62 37.13 35.62 41.28L35.74 41.41L35.71 41.38Q35.31 41.35 31.43 40.48L31.42 40.47L31.34 40.39Q28.84 37.32 26.86 33.17ZM31.32 40.79L31.33 40.80L31.88 40.86L31.73 40.70Q32.02 40.77 32.33 40.89L32.47 41.02L32.35 40.91Q32.67 41.26 34.50 43.28L34.54 43.33L34.51 43.29Q38.18 44.23 40.58 45.26L40.62 45.30L40.53 45.20Q35.06 40.69 31.07 32.69L31.02 32.65L31.04 32.67Q29.48 29.43 28.03 25.47L27.94 25.38L25.26 17.94L25.33 18.01Q25.03 18.06 24.80 18.06L24.77 18.03L24.30 18.09L24.24 18.03Q23.92 17.40 23.20 16.03L23.23 16.07L23.20 16.03Q22.70 16.07 22.25 16.03L22.12 15.90L22.26 16.04Q21.69 15.89 21.15 15.89L21.23 15.97L21.29 16.03Q19.75 19.81 15.86 29.98L15.92 30.03L15.98 30.09Q12.80 37.99 8.16 42.79L8.24 42.87L8.06 42.69Q9.12 42.31 11.14 41.70L11.12 41.68L11.24 41.80Q10.40 42.60 8.84 44.39L8.88 44.43L8.89 44.43Q10.62 43.80 14.54 43.04L14.46 42.96L14.50 43.01Q18.02 38.76 19.58 35.52L19.58 35.53L19.42 35.36Q21.21 35.28 23.53 35.32L23.56 35.36L23.57 35.37Q26.20 35.29 27.57 35.36L27.59 35.39L27.67 35.46Q28.98 37.87 31.34 40.81ZM23.53 26.03L23.48 25.99L23.49 25.99Q24.41 28.13 25.17 30.22L25.25 30.31L21.87 30.24L21.78 30.15Q22.43 28.78 23.50 26.00Z"/><path fill="#222" d="M120.27 29.04L120.43 29.19L120.29 29.05Q118.43 28.91 117.19 30.34L117.35 30.49L117.31 30.45Q116.04 31.85 115.85 33.75L115.85 33.75L115.79 33.69Q115.70 35.89 116.79 36.86L116.77 36.84L116.80 36.87Q117.73 37.69 119.82 37.58L119.81 37.56L119.90 37.65Q122.06 37.57 123.17 36.88L123.13 36.84L123.09 36.81Q124.20 35.67 124.20 34.11L124.15 34.06L124.16 34.07Q124.18 33.71 124.11 33.33L124.12 33.34L124.20 33.42Q124.14 31.62 123.04 30.26L123.09 30.32L123.12 30.34Q122.11 29.09 120.44 29.20ZM119.97 40.27L119.94 40.24L119.90 40.20Q115.64 40.32 114.23 39.56L114.20 39.52L114.05 39.38Q113.04 38.63 112.85 36.92L112.99 37.06L112.94 37.01Q112.96 36.38 112.99 35.66L112.87 35.53L112.98 35.64Q113.04 34.60 113.04 34.14L113.06 34.16L113.10 34.21Q113.54 31.33 113.69 30.64L113.71 30.66L113.69 30.64Q114.05 28.61 114.89 27.20L114.84 27.15L114.90 27.21Q117.59 22.85 123.52 16.49L123.62 16.58L123.59 16.56Q126.29 16.29 128.50 15.49L128.44 15.43L128.35 15.34Q121.64 22.94 118.44 27.17L118.28 27.01L118.28 27.01Q119.32 26.56 120.61 26.56L120.70 26.65L120.61 26.56Q123.91 26.55 125.44 28.49L125.56 28.61L125.49 28.54Q126.79 30.15 127.13 33.69L127.25 33.81L127.18 33.74Q127.20 34.40 127.20 35.01L127.33 35.15L127.25 35.07Q127.23 38.17 125.02 39.23L124.99 39.20L124.98 39.19Q123.74 39.78 119.86 40.16ZM122.21 42.63L122.13 42.55L122.11 42.53Q123.52 42.61 125.50 42.68L125.51 42.69L125.43 42.61Q127.15 42.77 128.71 42.05L128.64 41.97L128.65 41.99Q129.81 41.24 129.81 39.45L129.82 39.46L129.78 39.42Q129.81 38.96 129.64 37.97L129.67 38.00L129.67 37.99Q129.41 36.92 129.41 36.46L129.46 36.51L129.38 36.43Q128.61 31.82 127.01 29.92L126.91 29.82L126.91 29.82Q126.81 29.68 126.66 29.45L126.71 29.50L126.49 29.36L126.35 29.25L126.31 29.21Q126.11 28.86 125.50 27.91L125.40 27.81L125.46 27.87Q124.45 26.82 122.47 26.36L122.57 26.46L122.55 26.44Q123.83 24.90 126.79 21.21L126.74 21.16L130.93 15.83L130.87 15.76Q129.27 16.60 126.87 17.36L127.02 17.51L127.02 17.52Q127.92 16.51 129.71 14.53L129.65 14.47L129.67 14.49Q127.28 15.56 123.40 16.14L123.37 16.11L123.33 16.07Q117.64 21.99 114.67 26.94L114.66 26.93L114.67 26.94Q113.24 29.54 112.67 35.78L112.71 35.82L112.61 35.73Q112.61 36.37 112.68 37.32L112.58 37.22L112.57 37.21Q112.76 39.08 113.86 39.99L113.89 40.01L113.85 39.98Q114.11 40.01 114.08 40.05L114.21 40.18L114.15 40.12Q114.42 40.93 115.22 41.35L115.37 41.49L115.28 41.41Q116.85 42.21 118.79 42.40L118.61 42.22L118.66 42.28Q118.79 42.41 122.30 42.71ZM121.94 31.36L121.97 31.38L122.00 31.41Q122.58 31.31 123.53 31.80L123.48 31.75L123.44 31.71Q123.93 32.81 123.93 33.45L123.89 33.41L123.84 33.37Q124.00 35.21 123.05 36.20L123.05 36.19L123.03 36.17Q121.95 36.89 119.86 37.19L119.94 37.28L119.96 37.29Q118.50 37.28 117.96 37.01L117.92 36.96L117.99 37.04Q117.84 36.62 117.84 36.32L117.68 36.15L117.79 36.26Q117.61 33.04 120.54 31.75L120.53 31.74L120.41 31.62Q121.27 31.37 122.03 31.45Z"/><path fill="#333" d="M95.61 29.04L95.66 29.09L95.64 29.07Q93.91 29.06 92.67 30.49L92.60 30.41L92.55 30.36Q91.41 31.88 91.22 33.79L91.13 33.70L91.19 33.76Q90.92 35.77 92.00 36.74L92.10 36.84L92.10 36.84Q93.06 37.68 95.15 37.57L95.25 37.67L95.29 37.70Q97.29 37.46 98.39 36.78L98.48 36.86L98.44 36.82Q99.50 35.64 99.50 34.08L99.60 34.18L99.55 34.12Q99.66 33.86 99.58 33.47L99.56 33.45L99.51 33.40Q99.48 31.62 98.38 30.27L98.53 30.42L98.44 30.33Q97.37 29.01 95.69 29.12ZM95.35 40.32L95.18 40.15L95.26 40.23Q90.91 40.26 89.50 39.50L89.51 39.51L89.47 39.47Q88.44 38.70 88.25 36.99L88.35 37.09L88.34 37.08Q88.29 36.38 88.33 35.66L88.25 35.58L88.24 35.57Q88.34 34.57 88.34 34.11L88.28 34.05L88.43 34.20Q88.79 31.24 88.94 30.56L88.97 30.59L88.96 30.58Q89.36 28.58 90.20 27.17L90.32 27.30L90.29 27.26Q92.89 22.82 98.83 16.47L98.93 16.57L98.88 16.51Q101.48 16.15 103.69 15.35L103.80 15.45L103.75 15.41Q96.86 22.83 93.66 27.06L93.68 27.07L93.70 27.10Q94.59 26.50 95.89 26.50L95.96 26.58L95.91 26.53Q99.39 26.69 100.91 28.63L100.87 28.59L100.84 28.57Q102.18 30.21 102.52 33.75L102.46 33.69L102.48 33.70Q102.61 34.48 102.61 35.09L102.61 35.09L102.51 34.99Q102.58 38.18 100.37 39.25L100.43 39.31L100.37 39.24Q99.11 39.82 95.23 40.20ZM97.54 42.63L97.51 42.59L97.60 42.69Q98.88 42.63 100.86 42.70L100.77 42.61L100.75 42.60Q102.36 42.65 103.92 41.93L104.04 42.04L104.06 42.06Q105.06 41.15 105.06 39.36L105.04 39.35L105.19 39.50Q105.03 38.85 104.86 37.86L104.93 37.93L104.90 37.89Q104.68 36.86 104.68 36.40L104.76 36.48L104.71 36.43Q103.95 31.83 102.35 29.92L102.32 29.89L102.37 29.94Q102.32 29.86 102.17 29.63L102.11 29.56L101.86 29.39L101.62 29.19L101.62 29.19Q101.36 28.78 100.75 27.83L100.74 27.82L100.71 27.79Q99.92 26.96 97.94 26.51L97.89 26.45L97.81 26.37Q99.12 24.87 102.09 21.17L102.06 21.14L106.25 15.81L106.34 15.90Q104.64 16.64 102.24 17.40L102.34 17.50L102.29 17.45Q103.28 16.53 105.07 14.55L104.98 14.47L104.96 14.44Q102.67 15.62 98.79 16.19L98.75 16.15L98.68 16.09Q93.00 22.02 90.03 26.97L90.12 27.06L90.01 26.94Q88.57 29.54 88.00 35.79L87.97 35.75L88.04 35.83Q87.95 36.39 88.03 37.34L87.90 37.21L87.85 37.16Q88.09 39.07 89.20 39.99L89.20 40.00L89.10 39.89Q89.52 40.08 89.48 40.12L89.38 40.02L89.46 40.10Q89.77 40.94 90.57 41.36L90.75 41.54L90.68 41.47Q92.07 42.10 94.01 42.29L94.06 42.35L94.06 42.34Q94.13 42.41 97.63 42.72ZM97.39 31.47L97.34 31.42L97.23 31.31Q97.79 31.18 98.74 31.68L98.75 31.69L98.83 31.77Q99.16 32.71 99.16 33.36L99.18 33.38L99.12 33.31Q99.35 35.22 98.40 36.21L98.33 36.14L98.48 36.29Q97.41 37.01 95.31 37.31L95.34 37.34L95.35 37.34Q93.76 37.21 93.23 36.94L93.26 36.97L93.38 37.09Q93.02 36.47 93.02 36.16L93.01 36.15L93.07 36.21Q92.77 32.87 95.71 31.58L95.78 31.65L95.88 31.75Q96.63 31.40 97.40 31.48Z"/></svg>