<svg xmlns="http://www.w3.org/2000/svg" width="150" height="50" viewBox="0,0,150,50"><path fill="#333" d="M73.54 32.17L64.19 22.06L64.26 22.13Q65.02 25.74 65.02 29.47L65.09 29.55L65.13 29.59Q65.18 35.61 63.12 41.17L63.05 41.10L63.11 41.16Q61.90 41.29 59.66 42.05L59.77 42.16L59.67 42.06Q62.62 36.40 62.62 29.70L62.64 29.72L62.52 29.61Q62.54 20.98 58.04 13.55L58.00 13.51L58.00 13.51Q58.54 13.79 59.23 14.21L59.18 14.16L59.20 14.18Q71.22 25.32 79.06 34.57L79.04 34.56L79.18 34.70Q78.79 32.17 78.79 29.73L78.81 29.76L78.82 29.76Q78.73 22.44 81.24 16.23L81.32 16.32L81.32 16.31Q83.62 15.75 85.21 15.07L85.21 15.07L85.32 15.18Q82.01 21.34 81.71 28.50L81.61 28.40L81.64 28.44Q81.32 35.76 84.29 41.93L84.28 41.93L84.25 41.90Q83.81 41.95 83.40 41.76L83.36 41.73L83.34 41.71Q78.80 37.77 73.58 32.21L73.47 32.11ZM86.84 45.05L86.83 45.05L86.94 45.16Q87.32 45.23 87.74 45.42L87.88 45.56L88.68 45.87L88.75 45.94Q83.41 38.81 83.41 29.45L83.42 29.45L83.47 29.51Q83.55 22.35 86.86 16.10L86.79 16.03L86.82 16.07Q86.21 16.33 84.80 16.94L84.72 16.86L84.84 16.98Q85.11 16.03 85.95 14.47L86.00 14.52L85.94 14.46Q83.43 15.30 80.99 15.87L80.99 15.87L81.13 16.01Q78.35 22.33 78.35 29.75L78.37 29.77L78.34 29.74Q78.35 31.61 78.54 33.59L78.53 33.59L78.72 33.77Q74.01 28.03 69.25 23.43L69.15 23.32L59.22 13.78L59.18 13.73Q58.55 13.37 57.33 12.80L57.28 12.76L57.35 12.82Q62.25 20.58 62.25 29.68L62.30 29.72L62.26 29.69Q62.28 36.82 59.19 42.84L59.19 42.83L59.09 42.73Q59.44 42.66 61.07 42.05L61.13 42.11L61.15 42.12Q60.68 42.76 59.84 44.25L59.93 44.33L60.02 44.43Q61.25 43.79 64.71 42.99L64.67 42.95L64.80 43.08Q67.15 36.98 67.15 29.78L67.13 29.76L67.09 29.72Q66.96 27.49 66.73 25.36L66.78 25.41L66.82 25.45Q78.40 38.36 87.00 45.22Z"/><path fill="#222" d="M31.86 34.64L32.01 34.80L31.83 34.62Q31.88 38.24 28.72 39.54L28.75 39.57L28.72 39.54Q26.84 40.37 22.43 40.52L22.53 40.62L22.53 40.62Q17.62 40.63 15.38 39.45L15.41 39.48L15.40 39.47Q13.56 38.16 13.71 34.81L13.71 34.81L13.77 34.87Q13.70 34.15 13.89 32.17L13.86 32.14L13.95 32.23Q14.07 30.64 14.07 29.65L14.14 29.72L14.16 29.74Q14.01 21.59 9.82 14.17L9.82 14.17L9.84 14.19Q11.10 14.96 14.07 16.02L13.92 15.87L14.05 16.00Q16.81 22.61 16.81 29.99L16.88 30.06L16.84 30.03Q16.90 30.69 16.80 31.87L16.84 31.91L16.88 31.95Q16.71 33.05 16.71 33.66L16.72 33.68L16.73 33.68Q16.63 35.87 18.19 36.85L18.32 36.98L18.35 37.01Q19.84 37.67 22.81 37.67L22.95 37.81L22.95 37.80Q25.56 37.79 27.20 36.61L27.22 36.63L27.05 36.46Q29.04 35.26 28.89 32.74L28.82 32.68L28.87 32.72Q28.65 31.21 28.65 29.88L28.63 29.85L28.71 29.94Q28.71 22.89 31.11 16.38L31.12 16.40L33.21 15.74L33.25 15.79Q34.33 15.61 35.44 15.15L35.34 15.06L35.38 15.10Q31.56 22.13 31.56 29.71L31.64 29.78L31.71 29.85Q31.67 30.65 31.80 32.28L31.73 32.22L31.79 32.28Q31.88 33.87 31.88 34.67ZM34.12 35.66L33.97 35.50L33.99 35.53Q33.08 30.53 33.80 25.43L33.85 25.48L33.88 25.51Q34.58 20.27 36.98 15.90L37.01 15.93L37.12 16.04Q36.38 16.22 34.94 16.86L35.05 16.97L34.99 16.92Q35.28 15.99 36.08 14.43L36.23 14.58L36.16 14.51Q32.61 15.64 30.71 15.98L30.69 15.96L30.76 16.04Q28.48 22.63 28.48 29.90L28.45 29.87L28.46 29.88Q28.43 31.22 28.51 32.63L28.40 32.52L28.49 32.61Q28.70 35.07 26.91 36.29L26.78 36.15L26.93 36.30Q25.41 37.34 22.90 37.38L22.85 37.33L22.82 37.30Q20.09 37.38 18.64 36.62L18.63 36.61L18.64 36.61Q18.64 36.20 18.57 35.75L18.42 35.60L18.41 35.58Q18.42 35.14 18.53 34.65L18.60 34.72L18.64 34.75Q18.76 32.32 18.76 30.00L18.69 29.93L18.81 30.05Q18.72 24.13 17.19 18.23L17.32 18.35L17.29 18.33Q16.49 18.14 15.08 17.80L15.21 17.92L15.21 17.92Q14.62 16.42 14.17 15.51L14.16 15.51L14.30 15.64Q11.49 14.78 9.09 13.41L9.21 13.53L9.18 13.49Q13.73 21.01 13.73 29.73L13.78 29.78L13.85 29.85Q13.67 31.31 13.52 33.02L13.64 33.14L13.54 33.05Q13.41 35.53 13.48 36.71L13.46 36.70L13.41 36.64Q13.60 38.62 14.85 39.76L14.86 39.77L14.82 39.72Q15.90 42.30 20.55 42.68L20.43 42.56L20.52 42.65Q22.64 42.83 24.77 42.90L24.69 42.82L24.79 42.92Q30.12 43.08 32.90 42.13L32.91 42.13L32.81 42.03Q34.55 41.30 34.55 39.24L34.40 39.09L34.41 39.10Q34.58 38.13 34.12 35.65Z"/><path fill="#222" d="M47.31 30.40L47.28 30.37L47.35 30.44Q43.84 36.75 40.41 40.71L40.38 40.68L40.42 40.72Q38.52 41.10 36.09 41.98L36.22 42.11L36.15 42.04Q41.11 36.50 45.87 28.08L45.72 27.93L45.71 27.93Q41.20 21.05 35.22 14.66L35.25 14.68L35.29 14.73Q38.22 15.95 40.51 16.44L40.51 16.44L40.34 16.28Q45.11 21.62 47.55 25.58L47.42 25.45L47.55 25.58Q50.09 21.19 54.01 16.77L53.92 16.68L53.95 16.71Q55.49 16.35 58.69 15.59L58.80 15.70L58.80 15.70Q52.71 22.13 49.24 28.07L49.12 27.95L49.21 28.03Q54.45 36.78 58.83 41.35L58.74 41.26L58.76 41.27Q56.09 40.40 54.00 40.17L54.12 40.29L53.97 40.14Q51.23 37.21 47.30 30.39ZM53.94 40.53L54.08 40.67L53.92 40.51Q54.25 40.57 54.70 40.69L54.73 40.71L54.68 40.66Q55.49 41.43 57.01 43.03L56.99 43.01L56.97 42.99Q60.31 43.79 63.36 45.16L63.51 45.30L63.51 45.30Q56.22 38.55 51.12 29.79L51.23 29.91L51.21 29.88Q55.05 23.33 60.95 16.48L60.82 16.35L60.84 16.37Q59.35 16.97 57.18 17.50L57.33 17.65L57.19 17.52Q58.19 16.72 59.94 14.93L59.92 14.91L59.89 14.89Q57.52 15.79 53.82 16.36L53.74 16.27L53.80 16.33Q50.32 20.08 47.73 24.38L47.77 24.42L47.73 24.39Q46.92 22.89 45.74 21.40L45.70 21.37L43.42 18.44L42.98 18.38L43.10 18.50Q42.82 18.37 42.59 18.29L42.63 18.33L42.57 18.27Q41.95 17.51 40.47 15.95L40.53 16.01L40.56 16.04Q36.65 15.05 34.06 13.68L34.02 13.65L34.06 13.69Q40.86 21.02 45.43 28.07L45.44 28.07L45.43 28.06Q40.92 36.23 35.17 42.82L35.08 42.72L35.06 42.71Q36.37 42.03 38.50 41.46L38.54 41.50L37.39 43.09L37.38 43.09Q37.28 42.99 35.95 44.32L36.06 44.43L36.07 44.43Q38.99 43.28 42.15 42.79L42.17 42.81L42.13 42.77Q46.23 38.34 48.82 33.58L48.78 33.55L48.70 33.46Q51.23 37.67 53.93 40.52Z"/><path fill="#444" d="M104.45 30.32L104.49 30.37L104.52 30.39Q104.65 30.03 104.61 29.61L104.56 29.56L104.58 29.58Q104.36 29.06 104.06 28.87L104.05 28.86L104.09 28.90Q103.38 28.34 102.50 28.49L102.53 28.52L102.59 28.58Q101.43 28.49 99.80 29.59L99.88 29.68L99.76 29.55Q98.38 30.50 98.38 31.68L98.52 31.82L98.38 31.68Q98.50 33.06 98.50 36.37L98.52 36.39L98.43 36.30Q98.35 38.81 98.50 40.83L98.54 40.86L98.57 40.89Q96.85 40.88 96.85 40.88L96.86 40.89L96.86 40.90Q95.88 40.87 95.16 40.95L95.06 40.84L95.07 40.85Q95.50 38.35 95.57 36.10L95.54 36.07L95.64 36.17Q95.77 31.51 95.13 30.22L95.10 30.19L95.07 30.15Q94.93 29.72 94.36 29.41L94.39 29.44L94.34 29.40Q93.41 28.58 91.85 28.46L91.91 28.52L91.86 28.47Q89.85 28.25 89.32 29.85L89.24 29.78L89.28 29.82Q89.16 30.34 89.27 30.83L89.23 30.79L89.32 30.88Q90.02 33.67 89.68 36.45L89.58 36.35L89.68 36.45Q89.26 39.16 87.85 41.60L87.94 41.68L87.87 41.61Q86.86 41.78 84.77 42.20L84.85 42.29L84.75 42.18Q87.30 38.99 87.30 34.69L87.33 34.72L87.38 34.77Q87.29 28.81 83.25 24.59L83.16 24.49L83.31 24.64Q84.11 24.98 85.06 25.21L84.95 25.10L86.66 25.48L86.68 25.50Q87.18 26.15 88.05 27.82L88.13 27.90L88.10 27.87Q88.30 26.01 90.73 25.97L90.62 25.86L90.60 25.84Q90.73 25.78 91.72 25.86L91.79 25.93L91.70 25.84Q96.74 26.20 97.88 29.01L97.90 29.03L98.03 29.16Q99.54 26.29 104.56 25.76L104.72 25.91L104.55 25.74Q105.46 25.77 106.33 25.89L106.23 25.78L106.36 25.92Q108.46 26.00 108.31 27.56L108.33 27.59L108.35 27.60Q108.28 28.26 108.02 29.02L108.04 29.05L108.09 29.09Q106.66 32.08 106.89 35.62L106.87 35.60L106.71 35.45Q106.93 38.93 108.83 41.75L108.81 41.73L109.00 41.92Q107.18 41.43 105.35 41.20L105.42 41.27L105.41 41.26Q104.11 38.63 103.92 35.85L104.03 35.96L103.94 35.87Q103.82 33.08 104.47 30.34ZM105.09 41.55L105.13 41.59L105.12 41.58Q105.89 41.71 107.23 41.90L107.33 42.00L107.18 41.85Q107.75 42.61 108.89 44.02L108.87 44.00L108.97 44.10Q111.92 44.69 114.02 45.34L113.98 45.30L113.85 45.17Q108.98 41.40 108.71 34.90L108.70 34.88L108.56 34.74Q108.64 32.80 109.25 30.90L109.23 30.88L109.13 30.78Q109.40 29.95 109.40 29.22L109.29 29.11L109.34 29.16Q109.46 28.37 108.85 27.80L108.80 27.75L108.73 27.64L108.69 27.60Q108.82 27.16 108.74 26.66L108.73 26.65L108.82 26.74Q108.67 26.17 108.21 25.90L108.26 25.95L108.09 25.78Q107.43 25.31 106.55 25.27L106.57 25.29L106.67 25.39Q103.90 25.36 101.24 26.32L101.15 26.22L101.08 26.16Q99.17 26.91 97.99 28.32L97.99 28.32L98.08 28.41Q96.36 25.78 91.53 25.44L91.59 25.50L91.66 25.57Q90.98 25.53 90.56 25.53L90.54 25.52L90.52 25.49Q88.41 25.44 87.80 26.69L87.79 26.68L87.78 26.68Q87.42 26.13 86.74 25.06L86.75 25.08L86.80 25.13Q84.28 24.55 82.30 23.90L82.32 23.92L82.32 23.92Q86.98 28.31 86.98 34.59L86.93 34.54L86.94 34.56Q86.94 39.28 84.09 42.74L84.08 42.73L84.14 42.80Q84.65 42.69 85.14 42.62L85.08 42.56L86.10 42.43L86.14 42.47Q85.47 43.55 84.37 44.77L84.35 44.75L84.34 44.75Q85.93 44.40 89.05 43.79L89.09 43.82L88.99 43.72Q91.68 39.63 91.68 34.72L91.77 34.82L91.75 34.80Q91.71 33.96 91.64 33.12L91.58 33.07L91.59 33.07Q91.49 32.29 92.48 31.49L92.50 31.51L92.46 31.51L92.63 31.68Q93.14 31.12 94.32 31.01L94.28 30.97L94.38 31.07Q94.87 31.14 95.17 31.14L95.00 30.96L95.10 31.25L95.07 31.22Q95.41 34.00 95.30 36.36L95.30 36.37L95.30 36.37Q95.13 38.59 94.63 41.26L94.74 41.36L94.68 41.31Q95.64 41.24 95.64 41.24L95.61 41.20L95.68 41.27Q97.20 41.35 96.85 41.35L96.82 41.31L96.72 41.21Q96.89 41.88 96.86 42.34L96.75 42.23L96.77 42.25Q96.66 42.64 96.66 43.13L96.65 43.12L99.11 43.10L99.20 43.20Q100.45 43.19 101.71 43.27L101.65 43.21L101.81 43.37Q100.29 39.68 100.48 33.74L100.40 33.66L100.39 33.65Q100.50 32.61 101.68 31.85L101.67 31.85L101.55 31.73Q102.51 30.98 103.77 30.79L103.70 30.72L104.13 30.84L104.15 30.86Q103.57 32.64 103.57 34.62L103.68 34.73L103.67 34.73Q103.62 38.44 105.14 41.60ZM99.64 30.08L99.78 30.00L99.75 30.31L99.76 30.21Z"/><path fill="#333" d="M122.81 32.11L113.65 22.18L113.65 22.19Q114.35 25.75 114.35 29.48L114.51 29.64L114.42 29.54Q114.35 35.46 112.30 41.01L112.44 41.15L112.39 41.11Q111.32 41.36 109.07 42.12L109.08 42.14L109.04 42.10Q111.95 36.40 111.95 29.70L111.96 29.71L111.92 29.67Q111.82 20.93 107.33 13.50L107.35 13.52L107.44 13.61Q107.84 13.75 108.53 14.17L108.53 14.17L108.59 14.23Q120.59 25.36 128.43 34.61L128.45 34.62L128.51 34.69Q128.15 32.19 128.15 29.76L128.22 29.83L128.21 29.82Q128.21 22.59 130.72 16.38L130.73 16.39L130.61 16.27Q133.02 15.83 134.62 15.14L134.53 15.05L134.63 15.15Q131.27 21.27 130.97 28.43L130.89 28.35L130.92 28.38Q130.60 35.71 133.57 41.88L133.62 41.92L133.70 42.01Q132.99 41.79 132.57 41.60L132.59 41.62L132.74 41.77Q128.04 37.68 122.83 32.13L122.80 32.10ZM136.26 45.14L136.18 45.06L136.33 45.21Q136.77 45.35 137.19 45.54L137.09 45.44L137.94 45.79L138.07 45.93Q132.90 38.97 132.90 29.60L132.90 29.60L132.74 29.44Q132.86 22.33 136.18 16.09L136.14 16.05L136.07 15.98Q135.48 16.26 134.07 16.87L134.15 16.95L134.06 16.86Q134.50 16.09 135.34 14.53L135.38 14.57L135.36 14.55Q132.93 15.46 130.49 16.03L130.48 16.02L130.41 15.95Q127.72 22.37 127.72 29.79L127.73 29.79L127.74 29.81Q127.75 31.68 127.94 33.66L128.03 33.75L127.91 33.63Q123.34 28.03 118.58 23.42L118.63 23.48L108.37 13.60L108.38 13.61Q107.94 13.43 106.72 12.86L106.60 12.74L106.73 12.87Q111.60 20.60 111.60 29.70L111.49 29.58L111.46 29.55Q111.56 36.78 108.48 42.79L108.37 42.68L108.51 42.82Q108.76 42.65 110.39 42.04L110.31 41.96L110.40 42.05Q110.16 42.91 109.32 44.39L109.28 44.35L109.17 44.24Q110.55 43.76 114.01 42.96L114.16 43.10L114.02 42.96Q116.32 36.81 116.32 29.62L116.46 29.75L116.37 29.67Q116.43 27.63 116.20 25.50L116.18 25.47L116.16 25.45Q127.59 38.22 136.19 45.07Z"/></svg>