<svg xmlns="http://www.w3.org/2000/svg" width="150" height="50" viewBox="0,0,150,50"><path fill="#222" d="M25.60 27.18L25.55 27.14L25.60 27.19Q26.46 27.25 27.87 27.10L27.80 27.03L27.83 27.06Q27.79 27.70 27.79 28.35L27.80 28.36L27.82 29.64L27.79 29.60Q27.01 29.66 26.17 29.74L26.08 29.65L26.05 29.62Q25.23 29.68 24.40 29.64L24.50 29.74L24.34 29.58Q21.58 35.85 18.16 40.46L18.11 40.41L18.07 40.37Q15.61 41.07 14.31 41.68L14.33 41.69L14.34 41.70Q18.33 35.87 21.38 29.59L21.42 29.63L18.84 29.68L18.82 29.66Q18.78 28.29 18.67 26.96L18.72 27.01L18.64 26.93Q20.61 27.15 22.67 27.15L22.62 27.10L24.55 23.43L24.68 23.57Q25.57 21.57 26.79 19.97L26.82 19.99L26.78 19.95Q25.17 20.06 23.57 20.06L23.61 20.10L23.65 20.14Q17.57 20.15 13.80 17.94L13.77 17.91L13.15 16.23L13.08 16.16Q12.74 15.32 12.36 14.45L12.40 14.48L12.32 14.40Q16.81 17.18 22.52 17.41L22.51 17.40L22.40 17.29Q27.54 17.52 32.68 15.54L32.66 15.52L32.66 15.52Q32.57 16.04 32.08 16.92L31.99 16.83L31.96 16.80Q28.53 21.75 25.68 27.27ZM33.67 18.28L33.74 18.35L34.66 16.26L34.56 16.16Q33.71 16.76 32.04 17.49L31.94 17.38L32.26 17.21L32.27 17.22Q32.33 17.01 32.44 16.90L32.51 16.97L32.53 16.99Q32.80 16.19 33.52 14.86L33.58 14.92L33.47 14.80Q28.28 17.23 22.53 17.01L22.49 16.96L22.45 16.92Q16.52 16.74 11.76 13.77L11.73 13.74L11.74 13.74Q12.61 15.46 13.45 18.12L13.58 18.25L13.60 18.28Q14.63 18.85 15.43 19.15L15.40 19.12L15.55 19.27Q15.60 19.51 16.05 21.37L16.09 21.41L15.97 21.29Q19.18 22.60 24.70 22.45L24.72 22.46L24.83 22.57Q24.35 22.97 22.37 26.73L22.36 26.73L22.51 26.88Q20.46 26.88 18.48 26.69L18.43 26.65L18.38 26.59Q18.42 27.39 18.42 28.27L18.49 28.34L18.57 30.14L20.21 30.09L20.23 31.53L20.17 31.47Q16.19 38.79 13.41 42.37L13.43 42.39L13.54 42.50Q15.11 41.71 16.75 41.22L16.69 41.16L16.70 41.17Q15.97 42.04 14.60 43.75L14.56 43.71L14.74 43.89Q17.78 42.67 20.22 42.44L20.19 42.42L20.22 42.44Q23.15 38.67 26.27 31.89L26.33 31.95L29.82 32.21L29.66 32.05Q29.61 31.16 29.61 30.25L29.57 30.21L29.69 28.54L29.68 28.53Q29.38 28.49 28.82 28.53L28.91 28.61L28.86 28.56Q28.22 28.51 27.95 28.51L28.06 28.62L28.02 28.58Q28.09 28.54 28.13 28.39L28.14 28.40L27.99 27.98L27.98 27.97Q30.49 22.82 33.57 18.18Z"/><path fill="#333" d="M40.69 49.67L40.70 49.68L40.67 49.65Q43.55 45.75 46.44 39.55L46.42 39.52L46.44 39.54Q43.27 32.94 37.18 24.87L37.24 24.93L37.26 24.96Q39.22 26.15 42.00 26.80L41.95 26.75L42.00 26.81Q45.44 31.39 47.88 36.60L47.84 36.56L47.98 36.71Q50.13 31.40 53.22 26.98L53.11 26.87L53.07 26.84Q55.31 26.52 57.40 25.72L57.35 25.66L57.38 25.70Q53.96 29.51 50.49 36.93L50.62 37.06L47.67 42.94L47.69 42.96Q46.38 46.22 44.63 48.85L44.63 48.85L44.50 48.72Q42.18 49.17 40.73 49.71ZM46.90 51.04L46.87 51.01L46.83 50.98Q48.50 48.04 49.95 44.76L50.03 44.85L52.77 38.52L52.71 38.46Q56.18 30.40 59.49 26.41L59.54 26.45L59.56 26.47Q58.15 27.08 56.25 27.77L56.30 27.82L57.35 26.43L57.40 26.48Q57.91 25.73 58.52 25.05L58.41 24.94L58.41 24.94Q55.87 26.13 53.01 26.59L52.86 26.43L52.86 26.43Q50.22 30.46 48.28 34.91L48.20 34.83L48.33 34.96Q46.72 31.67 44.93 28.86L44.91 28.84L44.91 28.84Q44.62 28.74 44.26 28.70L44.29 28.74L44.26 28.70Q43.98 28.75 43.79 28.75L43.76 28.71L43.74 28.70Q42.95 27.41 41.99 26.26L42.11 26.38L42.04 26.31Q38.93 25.72 36.19 24.00L36.10 23.91L36.10 23.91Q42.31 31.87 46.00 39.48L46.09 39.57L46.02 39.50Q43.79 44.51 39.72 50.14L39.84 50.26L39.75 50.18Q40.59 49.91 41.39 49.76L41.43 49.79L42.97 49.36L43.08 49.47Q42.45 50.17 41.27 51.81L41.24 51.77L41.25 51.79Q43.57 51.21 46.84 50.98Z"/><path fill="#222" d="M97.36 40.22L97.37 40.23L97.40 40.26Q95.56 40.21 93.89 40.78L93.86 40.75L93.78 40.67Q94.32 37.06 94.43 33.94L94.47 33.98L94.54 34.05Q94.63 30.98 94.41 27.32L94.24 27.16L94.23 27.15Q92.91 26.86 92.15 26.48L92.15 26.48L91.76 23.46L91.77 23.47Q92.55 24.14 94.15 24.71L94.19 24.75L94.14 24.70Q93.81 22.47 93.39 19.72L93.54 19.88L93.44 19.77Q95.83 20.57 97.47 20.42L97.37 20.31L97.22 24.89L97.34 25.00Q98.67 24.85 100.00 24.35L100.10 24.45L100.04 24.39Q100.08 25.38 99.85 27.13L99.68 26.97L99.80 27.08Q98.27 27.42 97.25 27.42L97.12 27.30L97.16 27.33Q97.16 29.51 97.16 33.77L97.20 33.81L97.26 33.87Q97.26 38.03 97.34 40.20ZM100.46 23.82L100.50 23.87L100.43 23.79Q100.16 23.90 99.55 24.13L99.55 24.14L99.98 21.41L100.01 21.43Q99.09 21.61 97.68 21.84L97.85 22.02L97.78 21.94Q97.72 21.20 97.87 19.83L97.88 19.84L97.95 19.90Q97.35 19.99 96.77 19.99L96.69 19.90L96.67 19.88Q94.51 19.86 92.88 19.13L92.95 19.21L93.00 19.26Q93.43 21.67 93.70 24.14L93.79 24.23L93.74 24.18Q92.82 23.80 91.30 22.77L91.25 22.72L91.32 22.79Q91.74 24.16 91.97 26.87L91.85 26.75L91.88 26.78Q92.28 26.95 93.46 27.36L93.48 27.39L93.55 27.46Q93.53 28.05 93.57 29.46L93.52 29.41L93.97 29.51L94.08 29.55L94.06 29.53Q94.11 30.76 94.11 31.94L94.10 31.93L94.10 31.93Q94.05 36.83 93.25 41.17L93.38 41.29L93.35 41.26Q93.49 41.10 95.43 40.57L95.40 40.54L95.42 40.56Q95.42 41.21 95.31 42.58L95.48 42.75L95.41 42.69Q96.27 42.67 97.07 42.67L96.95 42.55L96.93 42.52Q98.73 42.62 100.37 43.19L100.43 43.25L100.38 43.20Q99.05 37.48 99.24 29.57L99.18 29.51L101.58 29.13L101.55 29.11Q101.61 28.17 101.69 27.15L101.71 27.17L101.99 25.24L101.97 25.22Q101.36 25.45 100.18 25.90L100.25 25.97L100.18 25.91Q100.48 24.57 100.41 24.23L100.37 24.19L100.35 24.17Q100.47 24.10 100.55 23.91Z"/><path fill="#222" d="M71.23 19.72L71.13 19.62L69.51 19.67L69.51 19.67Q67.27 19.79 67.04 21.81L67.18 21.95L67.16 21.93Q67.00 22.57 67.04 23.56L66.98 23.50L67.05 23.57Q67.02 25.44 68.27 26.77L68.38 26.88L68.28 26.78Q69.52 28.10 71.43 27.95L71.50 28.02L71.49 28.01Q73.62 27.93 74.38 27.02L74.28 26.92L74.43 27.07Q75.42 26.08 75.69 23.83L75.65 23.80L75.62 23.76Q75.93 21.56 74.67 20.72L74.75 20.80L74.60 20.65Q73.81 19.94 71.15 19.63ZM77.24 28.92L77.28 28.97L75.85 31.12L75.95 31.22Q73.26 36.02 69.49 40.09L69.52 40.13L69.45 40.05Q67.70 40.10 65.00 40.90L65.02 40.92L65.04 40.94Q70.36 34.65 73.52 29.85L73.60 29.93L73.52 29.85Q72.58 30.59 70.95 30.66L70.83 30.55L70.95 30.67Q67.84 30.72 66.32 28.74L66.32 28.74L66.48 28.90Q65.21 27.25 64.11 22.68L64.03 22.61L64.15 22.72Q64.11 22.23 63.96 21.30L63.89 21.23L63.82 21.16Q63.74 20.30 63.74 19.84L63.67 19.77L63.85 19.95Q63.69 18.00 64.75 17.39L64.85 17.49L64.74 17.37Q65.96 16.61 67.82 16.61L67.88 16.67L67.82 16.61Q71.05 16.64 71.05 16.64L71.07 16.67L71.09 16.69Q73.33 16.79 74.59 16.98L74.49 16.88L74.63 17.02Q76.70 17.24 77.62 17.73L77.52 17.63L77.53 17.65Q78.95 18.45 79.14 20.20L79.13 20.20L79.06 20.12Q79.09 20.38 78.90 23.04L78.93 23.08L79.01 23.16Q78.67 25.33 78.44 26.17L78.43 26.15L78.27 26.00Q77.87 27.38 77.10 28.79ZM79.15 31.33L79.03 31.21L79.13 31.31Q80.02 29.00 80.56 24.70L80.58 24.72L80.57 24.72Q80.84 22.51 80.80 21.64L80.91 21.75L80.81 21.65Q80.75 19.76 79.57 18.85L79.66 18.93L79.24 18.70L79.23 18.70Q79.03 18.00 78.12 17.35L78.25 17.49L78.18 17.41Q75.88 16.41 71.08 16.26L71.04 16.22L71.11 16.28Q70.19 16.32 67.75 16.32L67.60 16.16L67.76 16.32Q65.87 16.19 64.39 16.87L64.42 16.91L64.51 16.99Q63.24 17.67 63.32 19.50L63.30 19.48L63.31 19.49Q63.64 20.54 63.83 22.56L63.68 22.41L63.81 22.54Q64.32 25.07 64.59 25.90L64.66 25.98L64.65 25.97Q65.29 27.90 66.24 29.19L66.15 29.10L66.23 29.18Q66.45 29.48 66.83 29.86L66.85 29.88L66.84 29.87Q66.98 30.20 67.63 31.12L67.71 31.20L67.67 31.16Q69.25 32.63 71.20 32.82L71.05 32.67L71.22 32.85Q69.24 35.43 67.68 37.33L67.59 37.24L64.01 41.65L64.06 41.71Q66.37 41.01 68.01 40.67L67.95 40.61L67.97 40.63Q67.12 41.42 65.56 43.13L65.55 43.12L65.63 43.20Q68.67 42.25 71.79 42.21L71.74 42.16L71.90 42.31Q74.11 39.61 78.45 32.38L78.57 32.50L78.50 32.50L78.40 32.41Q78.75 31.77 79.09 31.27ZM73.15 22.09L73.07 22.01L73.10 22.04Q73.72 21.94 74.17 22.05L74.20 22.08L74.14 22.02Q74.73 22.07 75.11 22.19L75.18 22.26L75.14 22.22Q75.37 22.72 75.45 23.14L75.38 23.06L75.45 23.14Q75.49 23.52 75.38 23.90L75.43 23.95L75.25 23.77Q75.25 25.53 74.07 26.63L74.01 26.58L74.16 26.72Q73.13 27.67 71.49 27.63L71.49 27.63L71.54 27.68Q71.01 27.57 69.48 27.26L69.53 27.31L69.55 27.32Q69.37 26.50 69.37 25.78L69.39 25.79L69.45 25.86Q69.18 25.40 69.18 25.17L69.33 25.32L69.26 25.24Q69.34 23.12 71.63 22.32L71.47 22.16L71.48 22.18Q72.15 21.93 72.99 21.93Z"/><path fill="#222" d="M119.65 28.67L119.51 28.53L119.51 28.52Q116.74 28.57 115.98 30.82L116.04 30.88L115.95 30.79Q115.82 31.61 115.71 32.26L115.67 32.22L115.63 32.18Q118.29 32.45 119.93 32.45L119.84 32.36L119.92 32.44Q121.60 32.48 124.19 32.37L124.11 32.29L124.10 32.28Q124.13 30.70 122.72 29.64L122.74 29.66L122.61 29.53Q121.38 28.61 119.59 28.61ZM119.73 41.23L119.64 41.14L119.62 41.12Q115.46 41.18 114.16 39.77L114.10 39.72L114.21 39.83Q113.20 38.32 113.05 35.05L113.15 35.15L113.08 35.08Q113.11 34.87 113.03 33.50L112.92 33.39L112.96 33.43Q112.73 31.03 112.73 30.31L112.90 30.48L112.89 30.47Q112.82 28.53 113.54 27.43L113.61 27.49L113.54 27.42Q115.02 26.09 117.99 26.09L117.85 25.95L119.51 26.05L119.54 26.08Q121.59 26.08 123.12 26.38L123.04 26.31L122.99 26.25Q125.21 26.87 126.20 28.09L126.02 27.91L126.02 27.91Q126.82 29.18 126.90 31.27L126.89 31.26L126.80 31.17Q126.77 32.28 126.81 34.45L126.75 34.39L126.84 34.48Q123.97 34.50 121.19 34.50L121.21 34.53L115.59 34.50L115.56 34.47Q115.85 39.03 119.92 38.80L119.87 38.74L119.75 38.62Q123.59 38.51 124.81 36.68L124.72 36.59L124.85 36.71Q125.62 37.15 127.22 38.33L127.35 38.46L127.21 38.31Q126.02 40.90 121.87 41.16L121.81 41.10L121.74 41.03Q121.02 41.07 119.65 41.15ZM122.00 43.54L122.09 43.63L122.10 43.63Q123.12 43.52 124.34 43.60L124.37 43.62L124.19 43.45Q129.32 43.78 130.23 41.00L130.22 40.98L130.28 41.05Q128.64 39.79 127.54 39.02L127.51 39.00L127.40 38.89Q127.62 38.53 127.81 38.31L127.84 38.34L127.85 38.35Q127.15 37.91 125.78 36.96L125.70 36.89L125.83 37.01Q126.85 37.00 128.90 37.31L128.93 37.33L128.78 37.19Q128.76 35.98 128.68 35.30L128.71 35.33L128.40 33.22L128.45 33.28Q128.36 30.98 127.71 29.49L127.71 29.49L127.67 29.45Q127.50 29.21 126.93 28.60L126.81 28.48L126.89 28.56Q126.60 28.12 126.38 27.55L126.38 27.55L126.40 27.57Q124.59 25.61 119.53 25.61L119.50 25.59L117.77 25.52L117.76 25.52Q114.64 25.63 113.19 27.12L113.15 27.08L113.21 27.14Q112.36 28.07 112.40 30.13L112.48 30.21L112.44 30.18Q112.63 31.28 112.75 33.52L112.66 33.43L112.73 33.50Q112.67 34.97 112.78 37.02L112.94 37.18L112.81 37.05Q113.19 39.41 114.07 40.48L114.04 40.45L114.06 40.47Q114.18 40.60 114.37 40.71L114.36 40.70L114.58 41.26L114.68 41.36Q115.41 43.16 122.00 43.54ZM119.80 38.25L119.86 38.31L119.79 38.24Q118.66 38.37 117.74 37.91L117.85 38.02L117.77 37.94Q117.70 37.53 117.51 36.84L117.64 36.97L117.49 36.82Q119.14 36.69 120.74 36.69L120.84 36.79L120.74 36.69Q122.56 36.83 124.24 36.95L124.11 36.81L124.20 36.91Q122.93 38.26 119.92 38.37ZM121.41 30.88L121.42 30.89L121.49 30.96Q122.19 31.05 123.52 31.43L123.42 31.33L123.62 31.72L123.66 31.95L123.66 31.95Q122.21 31.98 121.29 31.94L121.32 31.97L121.44 32.09Q119.05 31.95 119.01 31.95L118.99 31.93L119.02 31.96Q119.87 31.13 121.55 31.02Z"/></svg>