<svg xmlns="http://www.w3.org/2000/svg" width="150" height="50" viewBox="0,0,150,50"><path fill="#222" d="M95.90 40.20L95.88 40.19L93.44 33.29L93.55 33.40Q89.18 20.80 83.24 14.41L83.22 14.39L83.15 14.32Q85.25 15.47 87.84 16.08L87.87 16.11L87.76 16.00Q92.90 22.27 97.24 35.03L97.28 35.07L97.35 35.14Q100.31 26.95 101.00 25.35L101.02 25.37L101.03 25.39Q103.33 19.69 106.15 16.38L106.28 16.51L106.25 16.48Q108.28 16.07 110.91 15.20L110.84 15.13L110.87 15.16Q106.40 19.87 103.35 27.10L103.21 26.96L103.35 27.10Q101.78 30.59 98.09 40.11L98.11 40.13L98.16 40.18Q97.58 40.17 97.01 40.13L97.00 40.13L97.10 40.22Q96.39 40.08 95.82 40.12ZM100.99 42.70L100.84 42.56L100.88 42.59Q103.64 32.56 105.20 28.53L105.17 28.50L105.35 28.67Q108.22 20.85 112.64 15.98L112.60 15.94L112.66 15.99Q111.64 16.39 109.55 17.11L109.46 17.02L110.77 15.86L110.74 15.83Q111.36 15.19 111.97 14.55L111.95 14.52L111.87 14.44Q109.16 15.54 106.15 16.11L106.08 16.04L106.13 16.10Q101.76 21.43 97.88 32.89L97.79 32.80L97.78 32.79Q94.20 22.74 91.00 18.36L91.01 18.38L90.95 18.31Q90.64 18.31 89.76 18.15L89.67 18.06L89.62 18.01Q89.49 17.72 87.89 15.67L87.90 15.68L87.94 15.72Q84.85 14.88 82.15 13.47L82.19 13.51L82.13 13.45Q88.85 20.63 93.23 33.42L93.14 33.33L93.28 33.47Q94.36 36.98 95.54 40.56L95.53 40.56L95.62 40.65Q95.98 40.70 96.82 40.59L96.84 40.61L96.88 40.65Q97.18 41.29 97.86 42.62L97.85 42.61L97.86 42.62Q98.76 42.60 99.48 42.68L99.34 42.54L99.39 42.58Q100.08 42.55 100.84 42.55Z"/><path fill="#333" d="M79.02 37.92L78.98 37.88L79.09 37.99Q79.24 38.82 79.77 40.84L79.81 40.88L79.80 40.87Q75.71 39.67 71.10 39.94L70.97 39.80L70.95 39.78Q66.53 40.20 62.53 42.18L62.49 42.13L62.39 42.03Q62.68 41.42 62.72 41.49L62.73 41.51L62.61 41.39Q66.43 37.51 70.35 33.10L70.33 33.07L70.35 33.09Q74.70 28.04 75.88 23.36L75.91 23.39L75.97 23.45Q76.39 21.66 75.11 20.48L75.14 20.51L75.06 20.42Q73.96 19.42 72.17 19.57L72.00 19.40L72.10 19.50Q71.70 19.40 71.36 19.40L71.47 19.52L71.46 19.51Q69.86 19.44 68.61 20.35L68.64 20.38L68.69 20.43Q67.25 21.65 67.48 24.32L67.60 24.44L67.51 24.36Q65.70 23.99 64.48 23.54L64.52 23.57L64.57 23.62Q64.26 22.09 64.18 20.65L64.34 20.80L64.37 20.83Q64.12 19.02 64.72 17.88L64.82 17.97L64.84 17.99Q66.65 16.64 70.00 16.64L70.00 16.64L71.63 16.52L71.77 16.66Q74.06 16.70 75.01 16.82L74.94 16.74L74.97 16.78Q79.19 17.07 79.45 19.51L79.54 19.59L79.52 19.58Q79.71 20.26 79.64 21.06L79.61 21.03L79.53 20.95Q79.54 21.65 79.39 22.34L79.36 22.31L79.28 22.23Q77.67 30.36 70.09 37.21L70.14 37.26L70.05 37.18Q71.47 37.03 72.84 37.03L72.84 37.03L72.86 37.05Q76.24 37.20 79.10 38.00ZM78.34 16.98L78.51 17.15L78.42 17.07Q76.82 16.42 75.11 16.34L75.14 16.37L71.65 16.12L71.72 16.19Q67.31 15.96 65.10 17.07L64.94 16.91L65.13 17.10Q64.06 18.47 64.06 20.53L64.00 20.46L64.03 20.50Q64.10 21.25 64.40 24.06L64.25 23.91L64.37 24.03Q64.82 24.17 66.00 24.48L66.01 24.49L66.11 25.62L66.02 25.53Q65.95 25.95 66.03 26.49L66.10 26.56L66.05 26.51Q67.24 26.56 69.71 26.78L69.88 26.96L69.75 26.82Q69.67 26.40 69.67 26.06L69.73 26.12L69.75 26.14Q69.72 24.28 70.94 22.93L71.07 23.06L70.97 22.96Q72.28 21.70 74.07 21.82L74.07 21.82L74.04 21.79Q74.68 21.70 75.44 21.85L75.45 21.86L75.55 21.97Q75.56 22.24 75.64 22.66L75.77 22.79L75.77 22.79Q75.77 23.18 75.70 23.52L75.59 23.41L75.65 23.48Q74.33 28.17 69.91 33.00L70.05 33.14L70.07 33.16Q67.90 35.37 62.46 41.42L62.46 41.42L62.31 41.27Q62.27 42.26 61.93 42.83L61.92 42.82L61.93 42.83Q63.42 41.85 64.95 41.32L65.05 41.43L64.93 41.30Q64.30 41.97 63.35 43.45L63.40 43.50L63.26 43.36Q63.26 43.82 63.14 44.16L62.99 44.01L63.00 44.02Q68.06 42.15 73.55 42.34L73.42 42.21L73.55 42.34Q79.22 42.49 83.78 44.85L83.60 44.67L82.71 42.64L82.69 42.62Q82.08 41.32 81.81 40.52L81.81 40.52L81.69 40.40Q81.15 40.17 79.93 39.75L79.77 39.59L79.75 39.56Q79.68 38.92 79.30 37.55L79.40 37.65L79.23 37.48Q77.19 37.08 74.91 36.89L74.72 36.71L74.79 36.77Q79.52 32.25 81.04 23.99L81.11 24.06L81.20 21.07L81.16 21.03Q81.22 19.37 80.00 18.68L79.96 18.64L79.90 18.62L79.82 18.54Q79.75 18.43 79.67 18.43L79.69 18.45L79.70 18.46Q79.60 17.75 78.50 17.14Z"/><path fill="#222" d="M23.89 20.03L23.93 20.08L24.05 20.20Q19.59 20.03 15.89 19.04L15.99 19.14L15.89 19.05Q17.56 23.76 17.75 28.59L17.58 28.42L17.68 28.53Q17.80 33.24 16.58 37.85L16.54 37.81L16.61 37.88Q19.53 37.37 23.03 37.22L22.97 37.16L22.98 37.17Q26.88 36.96 28.67 34.53L28.57 34.42L28.58 34.44Q30.19 32.47 30.39 28.36L30.38 28.35L30.31 28.28Q30.40 26.55 29.94 24.83L29.95 24.84L29.98 24.87Q28.75 20.17 24.03 20.17ZM12.14 42.21L12.03 42.10L11.98 42.04Q14.96 36.46 14.96 29.76L14.88 29.68L15.04 29.84Q14.95 21.22 10.65 14.21L10.57 14.14L10.61 14.18Q15.90 16.88 24.16 17.07L24.09 17.00L24.13 17.04Q33.08 17.31 33.43 24.47L33.41 24.45L33.44 24.49Q33.40 27.03 33.36 28.48L33.54 28.66L33.56 28.67Q33.30 33.17 32.46 35.34L32.62 35.50L32.54 35.42Q32.16 36.57 31.40 37.41L31.28 37.29L31.42 37.42Q29.90 38.80 27.27 39.29L27.35 39.37L27.38 39.40Q25.86 39.74 22.85 39.97L22.79 39.91L22.78 39.90Q16.74 40.45 12.13 42.20ZM30.06 42.08L29.93 41.95L30.10 42.12Q32.64 41.58 34.28 40.09L34.46 40.27L34.44 40.26Q35.51 38.36 35.47 35.62L35.58 35.72L35.58 35.72Q35.52 34.29 35.36 30.79L35.39 30.81L35.07 26.30L35.12 26.35Q34.92 24.06 33.97 21.97L33.80 21.80L33.96 21.96Q33.42 21.00 32.73 20.35L32.72 20.33L32.69 20.16L32.61 20.08Q30.93 17.14 26.52 16.76L26.55 16.79L26.63 16.87Q23.79 16.59 16.79 15.86L16.78 15.86L16.82 15.89Q13.63 15.53 9.94 13.51L9.92 13.49L9.96 13.53Q14.64 20.76 14.64 29.52L14.70 29.57L14.80 29.68Q14.81 36.69 11.46 42.86L11.33 42.72L11.45 42.84Q12.00 42.45 13.34 41.96L13.31 41.93L13.38 42.00Q12.99 42.78 12.11 44.27L12.21 44.37L12.18 44.34Q15.20 43.25 18.55 42.75L18.54 42.74L18.50 42.70Q20.56 42.37 24.22 42.25L24.33 42.37L24.30 42.34Q28.17 42.21 30.00 42.02ZM30.05 28.40L30.02 28.37L29.98 28.33Q29.63 36.36 22.93 36.74L22.94 36.75L22.91 36.72Q20.92 36.79 18.87 37.06L19.01 37.19L18.87 37.06Q19.76 33.38 19.76 29.73L19.69 29.66L19.72 29.69Q19.73 26.00 19.00 22.15L18.92 22.07L18.83 21.98Q21.13 22.38 25.81 22.38L25.80 22.36L25.90 22.46Q27.33 22.37 28.97 23.32L28.84 23.19L28.98 23.34Q30.11 25.45 29.96 28.31Z"/><path fill="#222" d="M48.85 32.15L39.52 22.06L39.69 22.23Q40.36 25.76 40.36 29.49L40.45 29.58L40.50 29.63Q40.37 35.47 38.32 41.03L38.35 41.06L38.46 41.17Q37.23 41.28 34.98 42.04L34.98 42.03L35.04 42.10Q37.88 36.33 37.88 29.63L37.81 29.56L37.87 29.62Q37.80 20.91 33.31 13.49L33.30 13.48L33.47 13.65Q33.75 13.66 34.44 14.08L34.55 14.19L34.49 14.14Q46.53 25.30 54.38 34.55L54.48 34.65L54.41 34.59Q54.23 32.28 54.23 29.84L54.18 29.79L54.20 29.81Q54.13 22.50 56.64 16.30L56.69 16.35L56.61 16.27Q59.05 15.85 60.65 15.17L60.54 15.06L60.59 15.10Q57.36 21.35 57.05 28.51L56.92 28.38L56.89 28.35Q56.66 35.77 59.63 41.94L59.65 41.96L59.59 41.90Q59.05 41.85 58.63 41.66L58.71 41.74L58.64 41.67Q54.09 37.73 48.87 32.17L48.81 32.11ZM62.34 45.22L62.22 45.10L62.29 45.17Q62.80 45.37 63.21 45.56L63.10 45.44L64.01 45.86L63.99 45.84Q58.78 38.84 58.78 29.48L58.92 29.61L58.80 29.50Q58.78 22.25 62.09 16.00L62.10 16.01L62.14 16.05Q61.46 16.25 60.05 16.86L60.13 16.93L60.00 16.81Q60.38 15.96 61.22 14.40L61.21 14.40L61.35 14.54Q58.88 15.41 56.44 15.98L56.43 15.97L56.35 15.89Q53.69 22.33 53.69 29.76L53.79 29.86L53.69 29.76Q53.81 31.74 54.00 33.72L53.87 33.60L53.93 33.66Q49.34 28.03 44.58 23.43L44.58 23.42L34.42 13.64L34.45 13.68Q33.85 13.34 32.63 12.77L32.58 12.72L32.61 12.75Q37.53 20.53 37.53 29.63L37.49 29.58L37.63 29.72Q37.52 36.73 34.43 42.74L34.42 42.73L34.47 42.78Q34.85 42.74 36.48 42.13L36.39 42.04L36.42 42.07Q36.03 42.78 35.19 44.26L35.35 44.42L35.34 44.41Q36.50 43.71 39.97 42.91L40.08 43.03L40.08 43.03Q42.46 36.96 42.46 29.76L42.33 29.63L42.35 29.65Q42.40 27.60 42.17 25.47L42.12 25.41L42.25 25.55Q53.60 38.23 62.20 45.08Z"/><path fill="#222" d="M123.52 39.79L123.64 39.91L121.64 39.84L121.65 39.86Q120.72 39.88 119.77 40.00L119.70 39.92L119.81 40.03Q120.26 33.71 120.26 29.71L120.28 29.74L120.30 29.75Q116.35 23.10 108.70 14.42L108.63 14.35L108.75 14.47Q110.48 15.41 113.83 16.21L113.83 16.20L113.78 16.15Q118.81 21.71 121.82 26.93L121.92 27.03L121.96 27.07Q124.83 21.37 129.20 16.35L129.23 16.37L129.33 16.47Q131.72 16.05 134.24 15.25L134.11 15.13L134.25 15.26Q128.14 21.30 123.27 29.72L123.20 29.64L123.22 29.67Q123.21 36.70 123.52 39.78ZM132.78 17.37L135.37 14.41L135.30 14.33Q132.23 15.52 129.10 15.98L129.18 16.06L129.08 15.96Q124.87 20.69 122.05 25.79L122.13 25.88L122.05 25.79Q120.00 22.22 116.80 18.34L116.81 18.35L116.75 18.29Q116.64 18.44 116.14 18.36L116.01 18.23L116.10 18.32Q115.27 17.37 113.74 15.70L113.92 15.87L113.76 15.71Q110.49 15.07 107.52 13.51L107.51 13.50L107.47 13.45Q115.11 21.86 119.87 29.78L120.04 29.95L119.92 29.83Q119.92 36.27 119.31 40.42L119.20 40.30L119.22 40.32Q119.93 40.27 121.38 40.16L121.44 40.22L121.36 41.16L121.46 41.27Q121.54 41.80 121.46 42.33L121.34 42.21L121.34 42.21Q124.94 42.27 126.69 42.46L126.59 42.36L126.76 42.53Q125.47 37.82 125.36 31.84L125.37 31.86L125.38 31.86Q129.58 23.24 136.13 15.89L136.31 16.06L132.70 17.30Z"/></svg>