<svg xmlns="http://www.w3.org/2000/svg" width="150" height="50" viewBox="0,0,150,50"><path fill="#222" d="M119.60 28.61L119.67 28.69L119.69 28.71Q116.79 28.62 116.03 30.86L116.00 30.83L115.97 30.80Q115.80 31.59 115.69 32.24L115.60 32.16L115.61 32.16Q118.26 32.41 119.89 32.41L119.96 32.48L119.84 32.36Q121.55 32.43 124.14 32.32L124.23 32.41L124.10 32.28Q123.96 30.54 122.55 29.47L122.58 29.50L122.58 29.50Q121.44 28.67 119.66 28.67ZM119.71 41.21L119.58 41.08L119.68 41.18Q115.48 41.21 114.19 39.80L114.18 39.79L114.15 39.76Q113.28 38.40 113.13 35.13L112.97 34.96L112.98 34.97Q113.07 34.83 112.99 33.46L112.97 33.45L113.02 33.49Q112.74 31.04 112.74 30.32L112.81 30.39L112.79 30.37Q112.76 28.48 113.49 27.37L113.52 27.41L113.57 27.46Q115.01 26.08 117.98 26.08L117.96 26.06L119.50 26.04L119.46 26.00Q121.52 26.00 123.04 26.31L123.05 26.31L123.07 26.34Q125.14 26.80 126.13 28.02L126.06 27.96L126.06 27.95Q126.74 29.09 126.82 31.19L126.75 31.12L126.79 31.16Q126.75 32.26 126.79 34.43L126.89 34.53L126.81 34.46Q124.05 34.58 121.27 34.58L121.19 34.51L115.53 34.44L115.58 34.49Q115.71 38.89 119.79 38.66L119.75 38.62L119.89 38.77Q123.58 38.50 124.80 36.67L124.83 36.70L124.84 36.71Q125.70 37.23 127.30 38.41L127.22 38.33L127.26 38.37Q125.84 40.72 121.69 40.98L121.74 41.03L121.68 40.97Q121.06 41.11 119.69 41.19ZM121.97 43.51L122.03 43.57L122.03 43.57Q123.07 43.47 124.29 43.55L124.38 43.63L124.22 43.47Q129.21 43.67 130.12 40.89L130.19 40.96L130.13 40.90Q128.65 39.80 127.55 39.04L127.48 38.97L127.43 38.92Q127.68 38.60 127.87 38.37L127.82 38.32L127.73 38.23Q127.04 37.81 125.67 36.85L125.70 36.89L125.68 36.86Q126.87 37.02 128.92 37.33L128.84 37.24L128.95 37.35Q128.70 35.93 128.63 35.24L128.72 35.34L128.48 33.31L128.48 33.31Q128.28 30.90 127.64 29.42L127.76 29.54L127.70 29.48Q127.46 29.16 126.89 28.55L126.75 28.42L126.84 28.51Q126.69 28.21 126.47 27.64L126.43 27.60L126.54 27.71Q124.65 25.67 119.58 25.67L119.48 25.56L117.83 25.58L117.88 25.64Q114.64 25.64 113.20 27.12L113.05 26.98L113.08 27.01Q112.39 28.10 112.43 30.16L112.53 30.27L112.39 30.12Q112.66 31.30 112.77 33.55L112.71 33.48L112.67 33.45Q112.72 35.02 112.84 37.08L112.80 37.05L112.89 37.13Q113.03 39.26 113.91 40.32L114.08 40.49L114.10 40.52Q114.25 40.66 114.44 40.78L114.43 40.76L114.60 41.28L114.61 41.29Q115.36 43.11 121.95 43.49ZM119.82 38.27L119.87 38.32L119.79 38.25Q118.78 38.50 117.87 38.04L117.83 38.00L117.72 37.88Q117.74 37.57 117.55 36.88L117.48 36.82L117.45 36.78Q119.19 36.73 120.79 36.73L120.79 36.73L120.80 36.74Q122.42 36.69 124.10 36.80L124.08 36.78L124.12 36.83Q122.87 38.21 119.86 38.32ZM121.60 31.07L121.60 31.07L121.42 30.89Q122.13 30.99 123.46 31.37L123.57 31.48L123.65 31.75L123.65 31.95L123.61 31.90Q122.21 31.99 121.30 31.95L121.41 32.06L121.45 32.10Q119.12 32.02 119.08 32.02L119.07 32.00L119.01 31.95Q119.89 31.15 121.56 31.03Z"/><path fill="#333" d="M64.30 41.02L64.35 41.07L64.44 41.16Q67.64 36.93 74.34 29.01L74.15 28.82L74.31 28.98Q68.32 29.13 64.55 27.75L64.63 27.83L64.51 27.71Q63.96 26.40 63.20 24.99L63.04 24.83L63.05 24.85Q67.15 26.35 71.60 26.39L71.74 26.53L71.73 26.52Q76.14 26.52 80.33 25.45L80.29 25.41L80.25 25.37Q79.91 26.09 79.64 26.63L79.66 26.64L79.72 26.71Q77.13 28.87 74.31 32.49L74.23 32.41L69.47 38.76L69.34 38.64Q71.64 38.49 73.88 38.57L74.00 38.69L73.98 38.67Q76.07 38.62 78.31 39.00L78.36 39.05L78.36 39.05Q78.53 39.68 79.26 41.70L79.20 41.64L79.16 41.60Q75.39 40.72 71.39 40.84L71.50 40.95L71.43 40.87Q67.50 41.02 63.85 42.20L63.86 42.21L63.86 42.21Q64.00 42.12 64.46 41.17ZM63.33 42.87L63.29 42.83L63.36 42.89Q64.08 42.51 65.68 42.09L65.74 42.15L65.75 42.16Q65.48 42.35 65.06 42.77L65.10 42.80L65.00 42.70Q64.79 43.30 64.18 44.44L64.10 44.36L64.19 44.45Q68.85 43.06 73.84 43.21L73.81 43.18L73.84 43.21Q78.76 43.33 83.33 45.20L83.41 45.28L83.36 45.22Q82.02 43.47 81.11 41.42L81.06 41.37L81.04 41.35Q80.30 41.07 79.24 40.84L79.18 40.78L79.10 40.71Q79.04 40.11 78.66 38.66L78.68 38.69L78.68 38.69Q77.06 38.28 73.48 38.16L73.53 38.21L73.47 38.16Q75.93 34.91 80.96 28.55L80.83 28.42L81.01 28.60Q81.10 27.70 81.78 26.37L81.80 26.38L79.67 27.30L79.61 27.24Q79.70 27.18 79.85 27.06L79.71 26.92L80.02 26.85L80.05 26.89Q80.40 25.71 80.97 24.76L81.04 24.83L81.05 24.83Q76.38 26.18 71.66 26.10L71.58 26.03L71.64 26.08Q66.85 26.02 62.36 24.19L62.32 24.15L62.35 24.18Q63.53 26.05 64.33 28.10L64.33 28.11L64.26 28.03Q65.23 28.46 66.29 28.73L66.24 28.68L66.22 28.66Q66.38 29.32 66.69 30.77L66.67 30.75L66.72 30.80Q68.44 31.18 71.75 31.33L71.70 31.28L71.67 31.26Q69.20 34.49 64.02 40.93L64.02 40.92L64.10 41.00Q63.89 41.63 63.32 42.85Z"/><path fill="#111" d="M21.83 41.09L21.92 41.17L20.12 41.09L20.15 41.12Q16.87 41.23 15.92 39.10L15.86 39.04L15.83 39.01Q17.08 38.05 18.53 36.94L18.44 36.86L18.43 36.85Q19.05 39.06 21.90 38.91L21.98 38.98L21.86 38.87Q22.73 38.90 23.76 38.67L23.67 38.58L23.62 38.53Q24.53 38.00 24.45 37.05L24.58 37.17L24.62 37.21Q24.56 36.12 22.77 35.43L22.78 35.45L18.93 33.88L18.88 33.83Q16.59 32.53 16.24 28.99L16.19 28.93L16.17 28.91Q15.94 26.74 18.11 26.17L18.12 26.18L18.16 26.22Q19.10 25.98 22.07 25.98L22.14 26.05L22.02 25.93Q27.01 26.05 27.92 28.56L27.99 28.63L27.92 28.56Q27.17 28.99 26.44 29.44L26.62 29.62L25.11 30.47L25.13 30.49Q24.66 28.61 21.43 28.39L21.43 28.39L21.30 28.25Q20.87 28.43 19.84 28.85L19.89 28.90L19.87 28.88Q19.12 29.05 19.12 30.15L19.26 30.29L19.15 30.19Q19.51 31.27 21.34 31.95L21.42 32.03L21.39 32.00Q22.54 32.46 25.20 33.57L25.03 33.40L25.03 33.40Q26.90 34.28 27.09 36.83L27.16 36.90L27.09 36.83Q27.14 37.45 27.07 38.44L27.18 38.55L27.06 38.44Q27.15 39.44 26.58 40.08L26.52 40.02L26.61 40.11Q24.88 41.09 21.83 41.09ZM26.67 43.75L26.56 43.65L26.73 43.81Q27.52 43.72 28.89 43.42L29.00 43.53L28.95 43.49Q29.95 42.73 29.76 41.51L29.75 41.50L29.80 41.56Q29.79 41.05 29.49 39.45L29.49 39.46L29.45 39.42Q28.96 36.53 27.17 35.31L27.03 35.17L27.12 35.26Q26.66 33.92 25.41 33.20L25.28 33.07L25.28 33.07Q24.06 32.70 21.59 31.74L21.49 31.65L21.54 31.69Q21.80 31.34 22.07 31.23L22.00 31.16L21.93 31.10Q22.65 30.75 23.30 30.71L23.30 30.71L23.21 30.62Q23.97 30.55 24.73 30.81L24.73 30.82L24.82 30.98L25.01 31.05L25.18 31.03L25.13 31.02L25.12 31.01Q26.36 31.64 26.55 32.90L26.41 32.76L26.42 32.77Q27.69 31.94 29.59 30.27L29.69 30.36L29.60 30.27Q29.34 29.56 28.35 28.38L28.38 28.41L28.27 28.30Q27.14 25.61 22.04 25.49L22.04 25.49L22.16 25.61Q18.99 25.57 17.01 26.14L17.01 26.13L17.04 26.16Q15.61 26.72 15.84 28.81L15.80 28.77L15.82 28.79Q15.92 30.03 16.83 32.12L16.81 32.11L16.90 32.19Q17.37 33.23 18.39 33.96L18.44 34.00L18.44 34.00Q19.10 35.46 20.39 36.14L20.43 36.18L20.45 36.20Q21.27 36.33 22.22 36.72L22.33 36.82L24.21 37.57L24.12 37.47Q23.82 38.62 21.88 38.51L21.86 38.49L21.92 38.55Q21.39 38.51 20.17 38.21L20.31 38.34L20.19 38.07L20.03 38.15L20.01 38.13Q19.16 37.77 18.51 36.28L18.65 36.42L18.61 36.38Q16.54 38.01 15.44 39.15L15.26 38.97L15.35 39.05Q15.64 39.96 16.67 40.76L16.56 40.65L16.43 40.82L16.57 40.96Q17.92 43.00 22.15 43.38L22.08 43.31L22.14 43.37Q23.38 43.47 26.61 43.70Z"/><path fill="#444" d="M98.92 39.86L99.01 39.94L96.98 39.85L96.96 39.83Q96.01 39.83 95.06 39.95L95.16 40.05L95.03 39.92Q95.63 33.74 95.63 29.75L95.54 29.66L95.66 29.78Q91.76 23.18 84.11 14.50L83.94 14.33L83.94 14.33Q85.84 15.42 89.19 16.22L89.24 16.27L89.14 16.17Q94.28 21.85 97.28 27.06L97.16 26.94L97.14 26.92Q100.24 21.46 104.62 16.43L104.69 16.50L104.58 16.39Q106.94 15.93 109.45 15.13L109.47 15.15L109.52 15.20Q103.48 21.31 98.61 29.72L98.57 29.68L98.60 29.72Q98.58 36.73 98.88 39.81ZM108.01 17.27L110.75 14.45L110.72 14.42Q107.70 15.66 104.57 16.12L104.49 16.03L104.45 15.99Q100.37 20.86 97.56 25.96L97.37 25.78L97.46 25.87Q95.41 22.29 92.21 18.41L92.09 18.29L92.05 18.25Q91.78 18.24 91.28 18.17L91.46 18.34L91.34 18.23Q90.72 17.50 89.20 15.82L89.11 15.73L89.12 15.74Q85.87 15.12 82.91 13.56L82.77 13.43L82.90 13.56Q90.55 21.97 95.31 29.89L95.29 29.87L95.35 29.93Q95.18 36.19 94.57 40.34L94.64 40.41L94.67 40.43Q95.42 40.43 96.87 40.32L96.72 40.16L96.84 41.32L96.85 41.33Q96.79 41.72 96.71 42.25L96.67 42.21L96.79 42.33Q100.18 42.18 101.93 42.37L101.96 42.40L101.96 42.40Q100.77 37.78 100.65 31.80L100.54 31.69L100.53 31.68Q104.99 23.31 111.53 15.96L111.48 15.91L108.08 17.34Z"/><path fill="#222" d="M54.32 37.89L54.27 37.83L54.34 37.90Q54.60 38.85 55.14 40.87L55.12 40.85L55.10 40.83Q50.86 39.49 46.26 39.76L46.34 39.84L46.44 39.94Q41.79 40.13 37.80 42.11L37.77 42.08L37.77 42.08Q38.03 41.43 38.06 41.50L38.10 41.54L38.01 41.45Q41.80 37.55 45.72 33.13L45.60 33.01L45.64 33.05Q50.19 28.20 51.37 23.51L51.33 23.47L51.23 23.38Q51.80 21.73 50.52 20.55L50.51 20.54L50.49 20.52Q49.21 19.34 47.43 19.49L47.37 19.44L47.32 19.39Q47.01 19.38 46.66 19.38L46.69 19.40L46.72 19.44Q45.19 19.42 43.93 20.34L44.03 20.44L43.90 20.31Q42.56 21.63 42.79 24.30L42.81 24.32L42.84 24.35Q41.07 24.03 39.85 23.57L39.93 23.65L39.95 23.67Q39.78 22.28 39.70 20.83L39.55 20.68L39.54 20.67Q39.58 19.15 40.19 18.01L40.04 17.86L40.18 18.00Q41.96 16.61 45.31 16.61L45.36 16.67L47.03 16.59L47.00 16.55Q49.40 16.71 50.36 16.83L50.28 16.76L50.33 16.81Q54.65 17.21 54.92 19.64L54.87 19.59L54.90 19.62Q54.91 20.13 54.84 20.93L54.80 20.89L54.85 20.94Q54.74 21.52 54.59 22.21L54.74 22.36L54.75 22.36Q52.98 30.34 45.40 37.19L45.41 37.20L45.48 37.27Q46.89 37.11 48.26 37.11L48.27 37.13L48.27 37.13Q51.58 37.20 54.44 38.00ZM53.82 17.13L53.81 17.12L53.79 17.10Q52.25 16.52 50.54 16.44L50.46 16.36L47.01 16.15L47.10 16.24Q42.56 15.89 40.35 16.99L40.29 16.93L40.42 17.06Q39.23 18.30 39.23 20.36L39.29 20.42L39.26 20.39Q39.36 21.17 39.66 23.99L39.68 24.01L39.65 23.98Q40.09 24.12 41.27 24.42L41.39 24.54L41.30 25.47L41.26 25.44Q41.33 26.00 41.40 26.53L41.38 26.51L41.31 26.44Q42.74 26.72 45.21 26.95L45.06 26.80L45.12 26.86Q45.06 26.45 45.06 26.11L45.16 26.22L45.04 26.10Q45.00 24.22 46.22 22.87L46.22 22.88L46.27 22.93Q47.49 21.58 49.28 21.70L49.25 21.66L49.28 21.69Q50.00 21.69 50.76 21.84L50.78 21.86L50.83 21.91Q50.89 22.24 50.97 22.66L51.10 22.79L51.10 22.78Q51.04 23.11 50.97 23.46L50.93 23.42L50.90 23.39Q49.78 28.29 45.37 33.12L45.39 33.14L45.29 33.05Q43.14 35.27 37.70 41.33L37.80 41.43L37.71 41.34Q37.54 42.19 37.19 42.76L37.13 42.70L37.25 42.82Q38.77 41.87 40.30 41.34L40.30 41.34L40.41 41.45Q39.57 41.91 38.62 43.39L38.66 43.43L38.56 43.33Q38.45 43.67 38.33 44.02L38.48 44.16L38.48 44.17Q43.35 42.10 48.83 42.29L48.75 42.21L48.79 42.26Q54.38 42.32 58.95 44.68L59.04 44.78L58.08 42.67L58.05 42.64Q57.34 41.25 57.08 40.45L57.03 40.40L57.21 40.58Q56.33 40.01 55.11 39.59L55.15 39.63L55.16 39.64Q54.94 38.84 54.56 37.47L54.63 37.55L54.65 37.57Q52.50 37.06 50.22 36.87L50.20 36.85L50.06 36.71Q54.74 32.14 56.27 23.88L56.44 24.05L56.62 21.15L56.62 21.15Q56.47 19.29 55.26 18.61L55.34 18.69L55.25 18.64L55.25 18.64Q55.23 18.58 55.16 18.58L55.11 18.53L55.04 18.47Q54.93 17.75 53.83 17.14Z"/></svg>