<svg xmlns="http://www.w3.org/2000/svg" width="150" height="50" viewBox="0,0,150,50"><path fill="#222" d="M72.08 30.50L72.05 30.48L72.03 30.45Q68.55 36.79 65.12 40.75L65.05 40.68L65.07 40.70Q63.23 41.14 60.79 42.02L60.72 41.94L60.77 41.99Q65.79 36.51 70.54 28.09L70.48 28.03L70.55 28.10Q65.80 20.99 59.83 14.59L59.89 14.66L59.88 14.65Q62.72 15.78 65.00 16.27L65.09 16.35L65.10 16.37Q69.75 21.59 72.19 25.55L72.09 25.45L72.12 25.48Q74.67 21.11 78.60 16.69L78.52 16.61L78.52 16.61Q80.16 16.35 83.36 15.59L83.47 15.70L83.43 15.66Q77.32 22.08 73.86 28.02L73.80 27.96L73.85 28.01Q79.10 36.76 83.48 41.33L83.31 41.16L83.38 41.23Q80.73 40.38 78.64 40.15L78.69 40.20L78.66 40.17Q75.92 37.24 72.00 30.42ZM78.74 40.67L78.73 40.66L78.72 40.64Q78.90 40.56 79.36 40.67L79.48 40.79L79.43 40.75Q80.28 41.56 81.80 43.16L81.80 43.15L81.77 43.13Q85.08 43.89 88.13 45.26L88.09 45.22L88.06 45.19Q80.99 38.65 75.89 29.89L75.92 29.93L75.82 29.83Q79.67 23.28 85.57 16.43L85.61 16.47L85.49 16.35Q84.08 17.04 81.91 17.57L81.92 17.58L81.85 17.51Q82.88 16.75 84.63 14.96L84.52 14.85L84.56 14.89Q82.09 15.69 78.40 16.26L78.36 16.22L78.40 16.27Q74.94 20.04 72.35 24.34L72.41 24.40L72.38 24.37Q71.60 22.90 70.42 21.42L70.42 21.42L68.15 18.51L67.61 18.35L67.59 18.32Q67.57 18.45 67.34 18.38L67.37 18.41L67.34 18.38Q66.60 17.48 65.11 15.92L65.03 15.84L65.14 15.95Q61.24 14.98 58.65 13.61L58.75 13.71L58.67 13.63Q65.57 21.06 70.13 28.10L70.06 28.03L70.00 27.97Q65.63 36.27 59.88 42.86L59.87 42.85L59.71 42.69Q61.21 42.21 63.34 41.64L63.32 41.62L62.00 43.03L61.93 42.97Q62.00 43.04 60.67 44.37L60.61 44.31L60.72 44.42Q63.63 43.26 66.79 42.76L66.83 42.80L66.79 42.77Q70.87 38.31 73.45 33.55L73.34 33.44L73.44 33.54Q76.03 37.81 78.73 40.66Z"/><path fill="#222" d="M15.69 47.17L15.55 47.02L15.61 47.08Q14.62 47.23 12.71 47.54L12.76 47.58L12.76 47.58Q13.96 45.32 14.99 44.02L15.12 44.16L15.06 44.10Q16.90 44.49 17.05 44.49L16.92 44.36L16.89 44.32Q17.28 44.49 17.81 44.38L17.71 44.28L17.77 44.33Q18.56 44.36 18.75 44.36L18.65 44.26L18.66 44.27Q21.21 44.01 21.14 41.84L21.13 41.83L21.18 41.88Q21.10 40.35 20.98 34.11L21.04 34.16L20.93 34.05Q20.93 30.55 21.00 26.40L21.12 26.51L22.47 26.27L22.45 26.25Q23.11 26.15 23.79 25.92L23.72 25.84L23.75 25.87Q23.57 30.34 23.61 34.72L23.52 34.63L23.54 34.65Q23.59 39.03 24.12 43.41L24.25 43.54L24.13 43.43Q24.15 43.67 24.15 43.94L24.34 44.13L24.16 43.95Q24.34 45.76 22.66 46.14L22.63 46.11L22.61 46.09Q19.38 46.36 15.53 47.01ZM22.39 22.88L20.34 19.83L20.26 19.76Q21.23 18.29 23.06 15.51L23.14 15.59L23.13 15.58Q23.80 16.48 25.13 18.30L25.08 18.25L22.36 22.85ZM25.43 49.52L25.40 49.49L25.41 49.50Q26.00 49.59 26.76 49.25L26.68 49.17L26.64 49.13Q27.11 48.57 27.11 48.11L27.08 48.08L27.10 48.10Q26.94 47.60 26.82 46.99L26.85 47.02L26.81 46.98Q25.49 40.60 25.49 32.68L25.58 32.77L25.61 32.80Q25.48 29.81 25.63 26.92L25.69 26.98L25.73 27.02Q25.18 27.18 24.03 27.49L24.04 27.49L23.95 27.41Q23.98 26.94 24.02 26.41L24.04 26.43L24.18 25.39L24.16 25.37Q22.42 25.99 20.63 26.03L20.68 26.07L20.75 26.15Q20.51 30.28 20.54 33.86L20.72 34.03L20.87 41.91L20.80 41.84Q20.89 43.84 18.72 43.95L18.75 43.98L18.77 44.00Q18.53 43.99 18.02 44.05L17.98 44.01L17.93 43.96Q17.45 44.05 17.18 44.05L17.10 43.96L17.19 44.06Q16.74 44.06 15.18 43.65L15.02 43.49L15.08 43.54Q14.73 44.26 13.63 45.94L13.48 45.80L11.94 48.10L12.02 48.18Q12.89 47.98 14.53 47.60L14.57 47.64L14.05 48.30L13.60 49.03L13.58 49.01Q15.83 48.83 17.17 48.91L17.24 48.98L17.07 48.81Q19.51 49.12 25.45 49.54ZM22.40 23.65L22.35 23.60L22.68 23.05L22.68 23.05Q23.05 23.50 24.01 25.10L23.95 25.04L24.07 25.17Q25.60 22.05 27.16 18.96L27.02 18.82L27.01 18.81Q26.11 17.31 25.16 16.01L25.15 16.00L25.25 16.11Q25.03 16.30 24.69 16.83L24.72 16.87L24.59 16.74Q24.28 16.20 23.29 14.90L23.29 14.91L23.17 14.78Q21.94 16.34 19.62 19.69L19.73 19.80L19.81 19.88Q20.61 20.98 22.32 23.57Z"/><path fill="#444" d="M104.44 40.45L104.35 40.36L104.34 40.34Q101.42 36.51 98.79 27.86L98.85 27.93L98.69 27.76Q98.12 25.71 97.32 23.57L97.37 23.63L94.50 32.40L94.49 32.40Q92.63 37.27 90.23 40.51L90.30 40.58L90.18 40.46Q89.46 40.65 87.82 40.80L87.83 40.81L87.68 40.66Q87.77 39.46 87.77 38.20L87.79 38.22L87.93 38.37Q87.79 32.21 85.05 26.08L85.14 26.17L85.15 26.18Q81.92 19.18 76.06 14.20L76.19 14.32L76.10 14.24Q78.20 14.89 80.56 15.42L80.56 15.42L80.56 15.42Q89.36 23.99 90.65 34.95L90.57 34.88L90.66 34.96Q92.32 31.68 93.77 26.31L93.72 26.26L93.61 26.15Q95.56 18.62 96.06 17.21L96.17 17.33L98.46 17.37L98.44 17.35Q99.21 19.45 99.85 21.77L99.85 21.77L100.96 26.07L100.92 26.04Q102.51 31.51 103.92 34.75L103.99 34.82L103.93 34.76Q105.62 23.16 113.54 15.81L113.64 15.91L113.47 15.74Q115.02 15.43 117.99 14.78L118.08 14.87L118.02 14.81Q112.68 19.10 109.63 25.23L109.59 25.19L109.71 25.31Q106.62 31.54 106.62 38.32L106.57 38.28L106.59 38.29Q106.50 39.30 106.57 40.44L106.68 40.55L105.56 40.46L105.61 40.51Q105.05 40.48 104.48 40.48ZM110.70 43.36L110.63 43.29L110.61 43.26Q109.33 39.66 109.44 35.77L109.54 35.87L109.55 35.88Q109.76 24.21 119.12 15.95L119.18 16.01L119.21 16.04Q118.26 16.27 116.31 16.80L116.31 16.79L116.24 16.72Q117.29 15.98 119.19 14.19L119.13 14.14L119.08 14.08Q116.56 14.99 113.63 15.49L113.46 15.32L113.57 15.42Q106.10 22.57 104.20 32.05L104.17 32.03L104.20 32.05Q103.67 30.46 100.82 19.00L100.74 18.92L100.82 19.01Q100.30 18.98 99.35 18.98L99.30 18.94L99.00 17.88L99.07 17.94Q98.92 17.37 98.69 16.88L98.73 16.91L95.80 16.88L95.81 16.89Q94.93 19.29 93.66 24.41L93.63 24.38L93.70 24.45Q92.35 29.50 91.36 31.97L91.42 32.03L91.42 32.03Q89.96 24.25 84.40 17.93L84.35 17.88L84.41 17.94Q83.75 17.70 82.80 17.51L82.85 17.56L82.94 17.65Q82.24 16.83 80.68 15.19L80.61 15.13L80.61 15.12Q77.21 14.31 75.04 13.51L75.11 13.59L74.99 13.47Q80.69 18.17 83.96 24.38L83.97 24.39L83.99 24.41Q87.54 31.11 87.54 38.12L87.47 38.05L87.51 38.09Q87.51 39.65 87.32 41.25L87.26 41.19L87.23 41.16Q87.51 41.21 87.97 41.12L88.01 41.16L87.86 41.01Q88.47 41.08 88.70 41.08L88.55 40.92L88.61 42.01L88.66 42.06Q88.66 42.52 88.74 43.05L88.67 42.98L88.76 43.07Q89.84 42.94 92.13 42.79L92.08 42.74L92.13 42.79Q95.76 37.40 98.50 27.99L98.56 28.05L98.51 28.01Q101.17 36.68 104.14 40.64L104.24 40.74L104.32 40.82Q104.77 40.81 105.60 40.92L105.63 40.95L105.60 40.92Q106.34 41.84 107.40 42.91L107.42 42.93L107.39 42.90Q108.14 42.92 110.54 43.19Z"/><path fill="#333" d="M124.29 27.21L124.23 27.16L124.17 27.09Q125.08 27.20 126.49 27.05L126.53 27.09L126.54 27.10Q126.38 27.63 126.38 28.28L126.41 28.30L126.32 29.48L126.47 29.63Q125.52 29.51 124.68 29.58L124.73 29.63L124.69 29.60Q123.93 29.71 123.09 29.67L123.16 29.73L123.03 29.61Q120.26 35.86 116.84 40.47L116.76 40.40L116.88 40.51Q114.20 40.99 112.90 41.60L113.07 41.77L112.89 41.58Q117.13 36.01 120.18 29.73L120.06 29.60L117.60 29.78L117.59 29.76Q117.44 28.28 117.32 26.94L117.40 27.03L117.43 27.05Q119.30 27.17 121.36 27.17L121.40 27.22L123.28 23.50L123.20 23.42Q124.15 21.48 125.37 19.88L125.44 19.95L125.38 19.89Q123.81 20.04 122.21 20.04L122.28 20.10L122.37 20.19Q116.25 20.16 112.48 17.95L112.40 17.87L111.87 16.28L111.74 16.15Q111.49 15.40 111.11 14.53L111.01 14.43L111.12 14.54Q115.48 17.19 121.19 17.42L121.03 17.26L121.09 17.31Q126.17 17.48 131.31 15.50L131.40 15.60L131.38 15.58Q131.27 16.07 130.77 16.95L130.62 16.80L130.66 16.83Q127.11 21.65 124.25 27.17ZM132.25 18.19L132.25 18.20L133.29 16.22L133.31 16.25Q132.39 16.78 130.72 17.50L130.66 17.45L130.91 17.19L130.92 17.21Q130.92 16.94 131.03 16.83L131.08 16.87L131.12 16.91Q131.50 16.22 132.22 14.89L132.19 14.86L132.15 14.82Q126.90 17.18 121.15 16.96L121.12 16.93L121.03 16.83Q115.15 16.71 110.39 13.74L110.31 13.65L110.39 13.73Q111.35 15.53 112.19 18.20L112.18 18.19L112.18 18.19Q113.40 18.95 114.20 19.25L114.06 19.11L114.09 19.14Q114.36 19.61 114.82 21.47L114.75 21.41L114.77 21.43Q117.95 22.70 123.47 22.55L123.45 22.53L123.47 22.54Q123.17 23.12 121.19 26.89L121.22 26.93L121.06 26.76Q119.17 26.92 117.19 26.73L117.07 26.62L117.18 26.72Q117.16 27.47 117.16 28.35L117.15 28.34L117.09 29.99L118.75 29.97L118.89 31.52L118.85 31.48Q114.99 38.93 112.21 42.51L112.20 42.50L112.09 42.38Q113.83 41.76 115.47 41.27L115.39 41.20L115.37 41.17Q114.66 42.07 113.29 43.78L113.38 43.86L113.40 43.88Q116.51 42.73 118.95 42.50L118.96 42.52L118.92 42.48Q121.83 38.69 124.95 31.91L125.04 32.00L128.35 32.07L128.30 32.03Q128.28 31.17 128.28 30.25L128.41 30.38L128.24 28.42L128.26 28.45Q128.10 28.54 127.54 28.58L127.51 28.55L127.50 28.54Q126.88 28.50 126.61 28.50L126.78 28.68L126.77 28.66Q126.70 28.48 126.74 28.33L126.76 28.35L126.80 28.12L126.75 28.08Q129.18 22.85 132.27 18.21Z"/><path fill="#444" d="M55.08 30.29L55.08 30.28L55.08 30.29Q55.19 29.90 55.15 29.48L55.24 29.58L55.28 29.61Q55.08 29.11 54.78 28.92L54.91 29.06L54.88 29.03Q54.12 28.42 53.25 28.57L53.23 28.55L53.30 28.63Q52.22 28.61 50.58 29.71L50.54 29.67L50.43 29.56Q49.01 30.47 49.01 31.65L49.09 31.73L49.11 31.74Q49.03 32.92 49.03 36.23L49.09 36.29L49.04 36.24Q49.07 38.86 49.22 40.88L49.25 40.91L49.24 40.89Q47.51 40.88 47.51 40.88L47.45 40.82L47.43 40.80Q46.45 40.77 45.73 40.85L45.87 40.99L45.81 40.93Q46.14 38.33 46.22 36.08L46.20 36.06L46.24 36.10Q46.44 31.51 45.79 30.22L45.76 30.18L45.71 30.14Q45.46 29.57 44.88 29.27L44.93 29.31L45.02 29.41Q44.08 28.58 42.52 28.47L42.56 28.51L42.58 28.52Q40.44 28.18 39.91 29.77L40.10 29.96L40.03 29.89Q39.85 30.36 39.96 30.86L39.95 30.84L40.05 30.95Q40.57 33.56 40.23 36.34L40.27 36.38L40.24 36.35Q40.03 39.26 38.62 41.70L38.48 41.56L38.50 41.58Q37.54 41.79 35.44 42.21L35.42 42.19L35.57 42.34Q38.04 39.06 38.04 34.75L37.98 34.70L37.85 34.57Q37.93 28.79 33.90 24.57L34.01 24.67L33.97 24.63Q34.72 24.93 35.67 25.16L35.69 25.17L37.42 25.58L37.42 25.57Q37.78 26.08 38.65 27.76L38.61 27.72L38.66 27.77Q38.91 25.96 41.35 25.93L41.30 25.88L41.36 25.94Q41.48 25.87 42.47 25.94L42.36 25.83L42.42 25.89Q47.48 26.27 48.63 29.09L48.63 29.10L48.55 29.02Q50.34 26.43 55.37 25.90L55.30 25.83L55.40 25.93Q56.12 25.77 57.00 25.89L57.00 25.89L56.94 25.83Q59.18 26.05 59.03 27.62L59.09 27.67L59.02 27.60Q58.98 28.28 58.71 29.05L58.66 28.99L58.65 28.98Q57.34 32.10 57.57 35.64L57.44 35.50L57.41 35.47Q57.71 39.05 59.62 41.87L59.50 41.75L59.48 41.73Q57.83 41.41 56.00 41.18L56.17 41.35L56.09 41.27Q54.95 38.80 54.76 36.03L54.70 35.97L54.58 35.84Q54.48 33.07 55.12 30.33ZM55.88 41.68L55.88 41.67L55.77 41.56Q56.47 41.61 57.80 41.80L57.83 41.83L57.82 41.82Q58.34 42.54 59.49 43.95L59.67 44.13L59.50 43.96Q62.52 44.62 64.62 45.27L64.62 45.28L64.62 45.28Q59.48 41.24 59.21 34.73L59.39 34.90L59.40 34.91Q59.20 32.70 59.81 30.79L59.79 30.77L59.82 30.81Q60.00 29.88 60.00 29.16L60.04 29.20L60.13 29.29Q60.08 28.33 59.47 27.75L59.54 27.82L59.46 27.70L59.38 27.62Q59.53 27.20 59.45 26.70L59.42 26.68L59.52 26.77Q59.29 26.13 58.84 25.86L58.80 25.83L58.89 25.92Q58.16 25.38 57.29 25.34L57.39 25.44L57.28 25.33Q54.39 25.19 51.73 26.14L51.87 26.28L51.81 26.22Q49.74 26.81 48.56 28.22L48.70 28.37L48.67 28.33Q47.11 25.86 42.27 25.52L42.27 25.51L42.23 25.47Q41.61 25.50 41.19 25.50L41.24 25.55L41.09 25.40Q39.13 25.49 38.52 26.75L38.48 26.71L38.57 26.80Q38.27 26.31 37.58 25.24L37.52 25.18L37.46 25.11Q35.04 24.64 33.06 23.99L33.10 24.03L33.11 24.04Q37.75 28.41 37.75 34.70L37.69 34.63L37.77 34.72Q37.63 39.30 34.77 42.76L34.91 42.90L34.81 42.79Q35.22 42.60 35.71 42.52L35.71 42.52L36.71 42.37L36.80 42.46Q36.10 43.52 35.00 44.74L35.02 44.76L34.99 44.73Q36.52 44.32 39.64 43.71L39.79 43.85L39.76 43.83Q42.32 39.61 42.32 34.70L42.38 34.76L42.33 34.71Q42.31 33.89 42.24 33.05L42.22 33.04L42.36 33.18Q42.23 32.37 43.22 31.57L43.13 31.47L43.15 31.53L43.12 31.50Q43.69 31.01 44.87 30.90L45.04 31.06L45.04 31.06Q45.53 31.13 45.83 31.13L45.72 31.01L45.82 31.31L45.75 31.24Q46.06 33.99 45.95 36.35L45.99 36.39L45.89 36.29Q45.75 38.55 45.26 41.22L45.37 41.33L45.40 41.36Q46.34 41.27 46.34 41.27L46.29 41.22L46.44 41.37Q47.81 41.29 47.47 41.29L47.43 41.25L47.38 41.21Q47.56 41.88 47.52 42.34L47.42 42.24L47.36 42.17Q47.34 42.65 47.34 43.15L47.30 43.11L49.86 43.19L49.95 43.29Q51.07 43.15 52.33 43.22L52.33 43.22L52.32 43.21Q50.81 39.53 51.00 33.60L51.14 33.74L50.96 33.56Q51.13 32.58 52.31 31.82L52.36 31.87L52.21 31.72Q53.23 31.03 54.49 30.84L54.51 30.86L54.81 30.85L54.80 30.85Q54.41 32.82 54.41 34.80L54.42 34.80L54.35 34.74Q54.42 38.57 55.94 41.73ZM50.33 30.10L50.61 30.16L50.37 30.27L50.39 30.17Z"/></svg>