<svg xmlns="http://www.w3.org/2000/svg" width="150" height="50" viewBox="0,0,150,50"><path fill="#444" d="M120.31 29.08L120.34 29.10L120.37 29.14Q118.49 28.97 117.25 30.40L117.24 30.38L117.28 30.43Q116.07 31.88 115.88 33.78L115.78 33.69L115.81 33.72Q115.55 35.74 116.63 36.71L116.77 36.84L116.64 36.72Q117.80 37.75 119.89 37.64L119.99 37.74L119.84 37.59Q122.06 37.57 123.17 36.88L123.03 36.75L123.14 36.85Q124.28 35.75 124.28 34.19L124.32 34.23L124.31 34.22Q124.13 33.66 124.05 33.28L124.12 33.34L124.10 33.32Q124.29 31.76 123.19 30.41L123.08 30.31L123.11 30.34Q121.94 28.92 120.27 29.04ZM119.93 40.23L119.99 40.29L119.89 40.19Q115.47 40.15 114.06 39.39L114.22 39.55L114.18 39.50Q113.05 38.64 112.86 36.93L112.84 36.91L113.02 37.09Q112.88 36.31 112.92 35.58L112.91 35.57L112.89 35.55Q112.98 34.53 112.98 34.08L113.02 34.13L112.94 34.04Q113.46 31.25 113.62 30.57L113.67 30.62L113.57 30.52Q114.12 28.67 114.96 27.26L114.84 27.15L114.93 27.23Q117.59 22.86 123.53 16.50L123.55 16.51L123.60 16.57Q126.25 16.25 128.46 15.45L128.42 15.41L128.32 15.31Q121.61 22.92 118.41 27.14L118.43 27.16L118.34 27.06Q119.32 26.56 120.61 26.56L120.75 26.69L120.64 26.59Q123.89 26.53 125.42 28.47L125.45 28.50L125.54 28.60Q126.80 30.16 127.14 33.70L127.13 33.69L127.14 33.70Q127.26 34.47 127.26 35.08L127.27 35.08L127.26 35.07Q127.24 38.18 125.04 39.25L124.96 39.17L125.09 39.30Q123.85 39.89 119.97 40.27ZM122.25 42.67L122.27 42.68L122.21 42.63Q123.56 42.65 125.54 42.72L125.55 42.73L125.53 42.71Q127.20 42.82 128.76 42.09L128.74 42.07L128.74 42.08Q129.70 41.13 129.70 39.34L129.70 39.35L129.74 39.39Q129.80 38.95 129.63 37.96L129.63 37.96L129.66 37.99Q129.37 36.88 129.37 36.43L129.38 36.44L129.51 36.57Q128.62 31.83 127.03 29.93L126.90 29.81L126.95 29.86Q126.82 29.68 126.67 29.46L126.75 29.54L126.36 29.23L126.30 29.21L126.46 29.36Q125.96 28.71 125.35 27.76L125.48 27.89L125.44 27.85Q124.43 26.80 122.45 26.35L122.52 26.42L122.52 26.41Q123.68 24.75 126.65 21.06L126.76 21.17L130.89 15.79L131.02 15.92Q129.42 16.75 127.02 17.51L126.93 17.42L126.88 17.38Q127.88 16.47 129.67 14.49L129.68 14.51L129.70 14.52Q127.17 15.46 123.29 16.03L123.41 16.15L123.44 16.18Q117.68 22.03 114.71 26.98L114.80 27.07L114.69 26.95Q113.22 29.52 112.65 35.77L112.58 35.69L112.71 35.83Q112.57 36.33 112.64 37.29L112.67 37.31L112.57 37.21Q112.68 39.00 113.78 39.91L113.70 39.82L113.88 40.00Q114.16 40.06 114.12 40.10L114.12 40.10L114.12 40.09Q114.45 40.96 115.25 41.38L115.30 41.43L115.33 41.46Q116.69 42.06 118.64 42.25L118.78 42.39L118.74 42.35Q118.63 42.24 122.13 42.55ZM121.90 31.32L122.00 31.41L121.89 31.30Q122.65 31.38 123.60 31.87L123.42 31.69L123.60 31.87Q123.81 32.69 123.81 33.34L123.89 33.42L123.75 33.28Q124.04 35.24 123.09 36.23L123.08 36.22L123.10 36.25Q121.96 36.89 119.86 37.19L119.98 37.31L119.90 37.24Q118.57 37.35 118.04 37.08L117.90 36.94L117.99 37.04Q117.66 36.44 117.66 36.13L117.66 36.13L117.70 36.17Q117.46 32.89 120.39 31.60L120.53 31.73L120.51 31.71Q121.25 31.35 122.02 31.43Z"/><path fill="#222" d="M31.03 41.48L31.20 41.64L31.03 41.47Q29.02 41.17 26.85 41.02L26.81 40.98L26.84 41.01Q25.36 39.53 22.70 35.69L22.69 35.68L22.81 35.80Q20.44 38.72 18.04 41.16L18.09 41.21L16.06 41.65L16.12 41.72Q14.90 41.75 13.91 42.01L13.98 42.08L13.90 42.01Q18.11 37.92 21.12 33.81L21.19 33.88L21.12 33.81Q17.88 29.65 12.47 24.85L12.49 24.87L12.51 24.90Q14.69 25.58 17.39 26.00L17.52 26.14L17.50 26.12Q20.83 29.10 22.74 31.81L22.79 31.86L22.72 31.79Q24.86 28.75 27.60 26.24L27.60 26.24L27.75 26.39Q30.75 26.01 32.58 25.51L32.54 25.46L32.51 25.44Q27.97 29.08 24.27 33.65L24.27 33.65L24.21 33.58Q27.69 38.36 31.16 41.60ZM34.05 24.77L33.90 24.62L33.92 24.64Q31.15 25.60 27.61 25.95L27.56 25.89L27.49 25.82Q24.71 28.60 22.99 31.07L22.96 31.05L22.96 31.04Q21.97 29.90 20.33 27.92L20.46 28.04L20.24 28.02L20.17 27.95Q20.11 28.01 20.00 28.01L19.97 27.97L19.95 27.96Q19.21 27.14 17.57 25.69L17.52 25.63L17.47 25.59Q13.93 25.09 11.07 23.88L11.21 24.01L11.20 24.00Q16.72 28.79 20.75 33.93L20.76 33.94L20.76 33.94Q17.30 38.47 12.88 42.77L12.91 42.80L12.90 42.80Q13.05 42.61 16.56 41.77L16.57 41.78L16.61 41.82Q15.05 43.11 13.41 44.45L13.58 44.62L13.54 44.57Q16.62 43.54 19.78 43.35L19.76 43.34L19.93 43.50Q22.17 41.10 24.07 38.36L24.22 38.50L24.15 38.43Q25.62 40.24 26.83 41.42L26.69 41.28L26.85 41.44Q26.80 41.28 26.88 41.36L27.01 41.48L27.25 41.54L27.10 41.39Q28.48 42.62 29.81 43.68L29.71 43.58L29.81 43.68Q33.23 44.06 36.13 45.08L36.15 45.11L36.32 45.28Q30.13 40.80 26.44 35.62L26.43 35.61L26.46 35.64Q30.06 30.57 34.63 26.50L34.61 26.47L34.56 26.42Q33.71 26.86 32.72 27.09L32.55 26.93L30.60 27.45L30.56 27.41Q31.76 26.52 33.93 24.65Z"/><path fill="#222" d="M47.99 40.18L47.93 40.12L47.97 40.16Q46.19 40.17 44.51 40.74L44.55 40.78L44.41 40.63Q44.93 37.00 45.04 33.88L45.20 34.03L45.20 34.03Q45.22 30.89 44.99 27.24L45.02 27.28L45.02 27.28Q43.54 26.83 42.78 26.44L42.80 26.46L42.37 23.40L42.51 23.54Q43.23 24.15 44.83 24.73L44.75 24.64L44.73 24.63Q44.62 22.61 44.21 19.87L44.24 19.90L44.08 19.74Q46.38 20.44 48.01 20.29L48.04 20.32L48.02 25.02L48.06 25.06Q49.27 24.79 50.60 24.29L50.80 24.48L50.80 24.49Q50.60 25.24 50.37 26.99L50.42 27.03L50.35 26.97Q48.84 27.33 47.82 27.33L47.90 27.41L47.94 27.45Q47.97 29.66 47.97 33.92L47.86 33.81L47.88 33.83Q47.94 38.03 48.01 40.20ZM51.21 23.91L51.13 23.82L51.20 23.89Q50.81 23.89 50.20 24.11L50.22 24.13L50.64 21.39L50.60 21.35Q49.76 21.62 48.35 21.85L48.42 21.92L48.32 21.82Q48.43 21.24 48.58 19.87L48.60 19.89L48.65 19.94Q48.05 20.02 47.48 20.02L47.46 20.01L47.47 20.02Q45.32 20.00 43.68 19.27L43.71 19.30L43.71 19.30Q44.15 21.72 44.42 24.20L44.33 24.10L44.41 24.19Q43.57 23.88 42.04 22.85L41.98 22.79L41.98 22.78Q42.26 24.02 42.49 26.72L42.49 26.73L42.65 26.88Q43.03 27.03 44.21 27.45L44.23 27.47L44.23 27.47Q44.21 28.06 44.25 29.47L44.22 29.44L44.69 29.57L44.78 29.59L44.86 29.66Q44.75 30.73 44.75 31.91L44.85 32.01L44.82 31.98Q44.86 36.97 44.06 41.31L44.08 41.33L44.07 41.32Q44.25 41.20 46.19 40.67L46.04 40.51L46.09 40.56Q46.08 41.20 45.97 42.57L46.11 42.71L45.97 42.58Q46.91 42.64 47.71 42.64L47.60 42.53L47.67 42.60Q49.31 42.53 50.95 43.10L50.93 43.08L51.09 43.24Q49.69 37.47 49.88 29.55L49.81 29.47L52.17 29.06L52.34 29.22Q52.30 28.19 52.37 27.16L52.42 27.21L52.52 25.10L52.59 25.18Q52.02 25.44 50.84 25.90L50.79 25.85L50.85 25.90Q51.08 24.50 51.01 24.16L51.03 24.18L51.09 24.24Q51.08 24.05 51.16 23.86Z"/><path fill="#222" d="M87.65 14.31L87.68 14.33L87.59 14.25Q91.48 16.88 96.23 17.10L96.16 17.03L96.23 17.10Q100.89 17.31 105.15 15.56L105.16 15.56L104.99 15.39Q104.91 16.11 104.15 18.89L104.19 18.93L104.14 18.88Q101.30 19.81 98.33 19.96L98.35 19.99L98.43 20.06Q95.46 20.21 92.57 19.49L92.45 19.37L92.58 19.50Q93.30 23.16 93.49 26.81L93.33 26.65L93.33 26.64Q95.38 26.91 96.98 26.88L97.10 26.99L97.04 26.93Q98.14 26.82 100.54 26.70L100.71 26.87L100.62 26.79Q100.61 27.46 100.61 28.15L100.52 28.05L100.63 29.50L100.65 29.51Q98.14 29.40 93.34 29.48L93.44 29.58L93.47 29.61Q93.30 33.55 92.73 37.55L92.74 37.55L92.83 37.65Q95.51 37.05 98.25 37.16L98.21 37.13L98.22 37.13Q100.99 37.28 103.58 38.12L103.52 38.06L103.52 38.06Q103.61 38.87 103.87 39.63L103.74 39.50L104.27 41.09L104.23 41.05Q101.13 39.85 97.70 39.85L97.58 39.74L97.72 39.87Q92.79 39.82 88.53 42.06L88.50 42.04L88.51 42.04Q90.74 35.14 90.48 28.02L90.66 28.21L90.48 28.02Q90.39 21.04 87.73 14.38ZM88.05 42.80L88.12 42.87L88.02 42.77Q89.26 42.03 90.02 41.69L90.12 41.79L90.07 41.74Q89.91 42.53 89.34 44.05L89.31 44.03L89.22 43.94Q93.91 42.11 98.97 42.38L98.89 42.30L98.92 42.33Q104.03 42.56 108.02 45.26L108.06 45.30L108.06 45.30Q106.91 42.78 106.23 40.84L106.16 40.77L106.14 40.75Q105.23 40.22 104.24 39.88L104.12 39.76L104.24 39.88Q103.78 38.43 103.63 37.63L103.58 37.59L103.59 37.59Q100.66 36.75 97.50 36.75L97.42 36.68L97.47 36.73Q96.23 36.63 95.09 36.74L95.14 36.79L95.05 36.71Q95.18 35.46 95.21 34.24L95.21 34.24L95.33 31.77L95.46 31.91Q97.12 31.66 98.91 31.70L99.06 31.84L99.05 31.84Q100.80 31.80 102.59 31.95L102.52 31.88L102.70 32.05Q102.59 31.08 102.59 30.13L102.47 30.00L102.60 28.23L101.75 28.25L101.76 28.26Q101.28 28.28 100.82 28.28L100.94 28.40L100.87 28.32Q100.87 27.64 101.02 26.34L100.95 26.27L101.03 26.35Q99.45 26.60 98.27 26.64L98.23 26.60L98.32 26.69Q97.35 26.68 95.53 26.60L95.36 26.43L95.40 26.47Q95.44 25.18 95.25 22.36L95.14 22.25L95.17 22.29Q96.12 22.33 97.11 22.33L97.25 22.46L97.12 22.33Q101.86 22.35 105.55 20.44L105.64 20.53L105.60 20.49Q106.19 18.15 107.07 15.94L107.13 16.01L107.14 16.02Q105.78 16.83 104.94 17.17L104.83 17.06L104.84 17.06Q105.19 16.35 105.64 14.79L105.69 14.84L105.66 14.81Q100.95 16.87 96.08 16.57L96.13 16.62L96.04 16.53Q90.80 16.28 86.96 13.42L86.99 13.46L86.93 13.39Q89.93 20.47 90.23 28.08L90.16 28.00L90.17 28.02Q90.53 36.00 88.02 42.77Z"/><path fill="#222" d="M73.45 32.09L64.23 22.10L64.26 22.13Q65.05 25.78 65.05 29.51L65.14 29.60L65.09 29.55Q65.06 35.49 63.00 41.05L63.00 41.05L63.13 41.18Q61.98 41.36 59.74 42.12L59.65 42.03L59.75 42.14Q62.47 36.26 62.47 29.56L62.59 29.67L62.52 29.60Q62.60 21.04 58.11 13.62L58.00 13.51L58.06 13.58Q58.48 13.72 59.16 14.14L59.25 14.23L59.27 14.25Q71.22 25.33 79.07 34.58L79.15 34.66L79.03 34.54Q78.76 32.14 78.76 29.70L78.77 29.71L78.85 29.80Q78.84 22.55 81.35 16.35L81.38 16.37L81.27 16.26Q83.65 15.79 85.25 15.10L85.19 15.04L85.23 15.09Q81.90 21.23 81.59 28.39L81.73 28.52L81.68 28.47Q81.25 35.70 84.22 41.87L84.29 41.93L84.23 41.87Q83.73 41.87 83.31 41.68L83.32 41.69L83.25 41.62Q78.76 37.73 73.54 32.18L73.50 32.13ZM86.94 45.15L86.95 45.16L86.84 45.06Q87.41 45.32 87.83 45.51L87.83 45.52L88.72 45.91L88.67 45.85Q83.42 38.82 83.42 29.46L83.56 29.60L83.57 29.60Q83.56 22.36 86.87 16.12L86.79 16.04L86.84 16.08Q86.07 16.19 84.66 16.80L84.67 16.81L84.85 16.98Q85.15 16.07 85.99 14.51L86.05 14.57L85.89 14.41Q83.56 15.43 81.12 16.00L81.07 15.94L81.05 15.93Q78.46 22.43 78.46 29.86L78.43 29.83L78.34 29.74Q78.49 31.75 78.68 33.73L78.58 33.63L78.57 33.62Q74.05 28.08 69.29 23.47L69.30 23.48L59.18 13.74L59.22 13.78Q58.54 13.36 57.32 12.79L57.36 12.83L57.41 12.88Q62.15 20.47 62.15 29.57L62.21 29.64L62.22 29.65Q62.25 36.79 59.16 42.81L59.12 42.76L59.12 42.76Q59.42 42.65 61.06 42.04L61.13 42.11L61.01 41.99Q60.86 42.95 60.03 44.43L59.99 44.40L59.87 44.28Q61.35 43.89 64.82 43.09L64.65 42.93L64.76 43.04Q67.07 36.90 67.07 29.70L67.06 29.69L67.10 29.73Q67.02 27.56 66.79 25.43L66.83 25.46L66.75 25.39Q78.23 38.20 86.84 45.05Z"/></svg>