<svg xmlns="http://www.w3.org/2000/svg" width="150" height="50" viewBox="0,0,150,50"><path fill="#333" d="M87.62 39.01L87.59 38.98L87.59 38.97Q89.35 36.47 94.11 29.20L94.08 29.17L94.26 29.35Q98.28 23.13 101.14 19.86L101.09 19.81L101.18 19.90Q99.04 20.16 96.94 20.16L96.85 20.07L96.90 20.12Q91.71 20.18 87.72 18.39L87.70 18.37L87.71 18.38Q87.02 16.44 86.34 14.88L86.32 14.86L86.21 14.75Q90.94 17.09 96.62 17.20L96.56 17.14L96.49 17.07Q101.61 17.13 106.78 15.22L106.75 15.19L106.87 15.31Q106.46 16.12 106.16 16.92L106.20 16.96L105.50 18.44L105.55 18.49Q102.44 22.07 98.44 27.90L98.60 28.05L95.21 32.81L95.16 32.77Q93.43 35.14 91.60 37.43L91.75 37.58L91.78 37.61Q94.94 36.84 98.25 36.92L98.35 37.02L98.28 36.95Q101.61 37.04 104.77 37.96L104.92 38.11L105.31 39.60L105.31 39.60Q105.48 40.34 105.82 41.18L105.82 41.17L105.85 41.21Q101.20 39.64 96.06 39.83L96.17 39.94L96.03 39.80Q91.07 40.17 86.58 42.19L86.42 42.03L86.52 42.13Q86.88 41.04 87.60 38.99ZM85.88 42.78L85.93 42.83L85.89 42.79Q87.01 42.08 87.81 41.82L87.89 41.90L87.88 41.89Q87.63 42.67 86.95 44.19L86.95 44.19L86.86 44.11Q92.65 42.05 98.62 42.28L98.62 42.27L98.69 42.34Q105.02 42.58 110.04 45.36L109.95 45.27L109.88 45.20Q108.66 42.99 107.86 40.82L107.80 40.75L107.72 40.68Q107.35 40.57 105.82 40.00L105.78 39.96L105.68 39.86Q105.53 39.13 105.11 37.65L105.19 37.73L105.13 37.66Q100.96 36.47 95.86 36.66L95.95 36.75L95.83 36.63Q98.04 33.96 101.58 28.40L101.54 28.37L101.57 28.40Q105.14 22.60 107.04 20.05L107.06 20.07L107.19 20.20Q107.64 18.75 108.67 16.04L108.59 15.96L108.61 15.98Q107.96 16.36 106.51 16.97L106.41 16.87L106.48 16.93Q106.90 16.22 107.62 14.69L107.49 14.56L107.52 14.59Q102.33 16.86 96.62 16.78L96.57 16.74L96.59 16.76Q90.56 16.59 85.61 14.08L85.71 14.17L85.70 14.16Q86.81 16.50 87.53 18.74L87.53 18.74L87.45 18.66Q88.63 19.27 89.43 19.50L89.33 19.40L89.34 19.40Q89.64 20.12 89.90 21.57L90.00 21.67L90.00 21.66Q93.61 22.61 98.48 22.42L98.45 22.38L98.45 22.39Q96.11 25.64 92.80 30.63L92.88 30.71L87.29 38.98L87.33 39.02Q86.84 40.16 85.81 42.71Z"/><path fill="#222" d="M64.44 41.15L64.37 41.09L64.31 41.03Q67.51 36.81 74.21 28.89L74.21 28.89L74.32 28.99Q68.33 29.13 64.56 27.76L64.64 27.84L64.60 27.80Q63.97 26.41 63.21 25.00L63.15 24.95L63.12 24.91Q67.15 26.35 71.60 26.39L71.62 26.41L71.65 26.44Q76.07 26.45 80.26 25.38L80.28 25.40L80.34 25.46Q80.00 26.19 79.74 26.72L79.72 26.70L79.67 26.65Q77.14 28.89 74.33 32.50L74.32 32.50L69.46 38.75L69.39 38.68Q71.58 38.43 73.82 38.51L73.93 38.62L73.96 38.65Q76.00 38.56 78.25 38.94L78.36 39.05L78.34 39.03Q78.50 39.64 79.22 41.66L79.22 41.66L79.22 41.66Q75.53 40.86 71.53 40.98L71.56 41.00L71.57 41.01Q67.60 41.12 63.95 42.30L63.85 42.21L63.80 42.15Q63.93 42.06 64.39 41.11ZM63.31 42.84L63.37 42.91L63.34 42.87Q64.09 42.52 65.69 42.10L65.72 42.13L65.61 42.02Q65.38 42.25 64.97 42.67L64.99 42.70L64.95 42.66Q64.72 43.22 64.11 44.36L64.08 44.34L64.19 44.44Q68.85 43.06 73.84 43.21L73.81 43.18L73.94 43.31Q78.74 43.31 83.31 45.18L83.31 45.18L83.48 45.35Q81.95 43.40 81.03 41.34L80.97 41.28L81.09 41.40Q80.25 41.02 79.19 40.79L79.14 40.75L79.26 40.86Q79.09 40.16 78.71 38.71L78.60 38.61L78.67 38.67Q77.02 38.24 73.44 38.12L73.58 38.26L73.54 38.22Q75.84 34.82 80.87 28.46L80.89 28.48L80.96 28.56Q81.25 27.86 81.94 26.52L81.92 26.51L79.63 27.26L79.51 27.14Q79.66 27.13 79.81 27.02L79.87 27.09L80.06 26.89L79.97 26.80Q80.53 25.84 81.10 24.88L81.10 24.89L80.93 24.72Q76.30 26.10 71.57 26.02L71.72 26.16L71.67 26.11Q66.91 26.08 62.42 24.25L62.45 24.29L62.43 24.26Q63.55 26.06 64.35 28.12L64.34 28.12L64.27 28.04Q65.16 28.40 66.23 28.67L66.26 28.70L66.16 28.60Q66.43 29.36 66.73 30.81L66.67 30.75L66.77 30.85Q68.36 31.10 71.67 31.25L71.60 31.19L71.70 31.29Q69.27 34.56 64.09 40.99L64.13 41.03L64.03 40.94Q63.89 41.63 63.32 42.85Z"/><path fill="#222" d="M121.55 18.41L121.59 18.44L121.63 18.48Q120.86 18.81 120.70 19.61L120.75 19.65L120.76 24.81L120.71 24.75Q121.79 24.69 124.00 24.43L124.10 24.53L124.03 24.46Q124.07 24.96 124.04 25.80L124.02 25.78L124.06 25.82Q123.96 26.52 123.96 26.98L123.92 26.94L122.37 27.06L122.39 27.08Q121.69 27.25 120.81 27.25L120.73 27.17L120.69 27.13Q120.66 31.29 120.58 39.67L120.62 39.70L120.55 39.64Q118.43 39.80 116.95 40.49L116.89 40.42L116.99 40.53Q118.04 34.35 117.93 27.11L117.92 27.10L117.82 27.01Q117.20 27.00 115.91 26.73L116.03 26.85L115.91 26.74Q115.96 25.79 115.77 23.85L115.68 23.76L115.81 23.89Q116.94 24.41 117.89 24.60L117.74 24.45L117.89 24.60Q117.87 23.98 117.57 21.50L117.39 21.33L117.45 21.38Q117.34 19.44 117.34 18.49L117.17 18.32L117.27 18.42Q117.23 16.71 118.64 16.14L118.73 16.23L118.75 16.25Q119.42 15.74 124.26 14.90L124.31 14.95L124.41 15.06Q125.19 14.88 126.03 14.77L126.07 14.81L126.03 14.78Q125.85 15.58 125.69 16.45L125.51 16.27L125.23 17.86L125.30 17.92Q124.70 17.82 124.20 17.93L124.11 17.84L124.20 17.93Q123.57 17.91 121.67 18.52ZM127.01 19.56L127.06 19.61L127.05 19.60Q127.46 17.46 128.07 14.91L127.95 14.79L128.06 14.90Q127.42 15.21 126.12 15.82L126.09 15.78L126.42 14.02L126.40 14.00Q125.29 14.30 122.81 14.83L122.83 14.85L122.81 14.82Q121.69 14.96 118.49 15.88L118.45 15.84L118.49 15.87Q116.79 16.16 116.79 18.02L116.91 18.14L116.90 18.12Q116.86 18.39 116.93 18.73L116.84 18.63L116.88 18.68Q117.19 20.09 117.30 21.42L117.17 21.30L117.36 23.96L117.42 24.02Q116.11 23.70 115.46 23.24L115.50 23.28L115.50 23.28Q115.52 24.13 115.55 25.16L115.64 25.24L115.79 27.26L115.62 27.09Q116.34 27.27 117.14 27.35L117.13 27.34L117.13 29.44L117.63 29.56L117.59 29.51Q117.48 35.65 116.49 41.09L116.49 41.09L116.47 41.07Q117.59 40.71 118.77 40.44L118.63 40.30L118.54 42.46L118.58 42.50Q119.79 42.19 121.09 42.15L121.05 42.11L121.06 42.12Q122.21 42.02 123.47 42.28L123.50 42.32L123.50 42.32Q122.75 37.41 122.75 29.46L122.66 29.37L122.65 29.36Q123.85 29.46 125.95 29.54L125.87 29.46L125.78 27.50L125.77 27.49Q125.78 26.55 125.82 25.60L125.81 25.59L125.88 25.66Q125.42 25.77 124.35 26.04L124.30 25.99L124.29 25.98Q124.43 25.43 124.54 24.09L124.40 23.95L124.43 23.98Q123.56 24.18 122.76 24.26L122.81 24.30L122.78 24.27Q122.92 23.01 123.03 21.60L122.91 21.47L122.89 21.45Q123.00 20.76 123.53 20.42L123.53 20.42L123.53 20.42Q124.52 19.78 125.34 19.70L125.44 19.79L125.42 19.78Q126.22 19.68 127.06 19.61Z"/><path fill="#333" d="M26.27 41.30L26.32 41.35L23.15 41.03L23.20 41.08Q20.85 41.02 20.05 40.90L19.94 40.79L20.10 40.95Q18.21 40.55 17.03 39.67L17.03 39.67L16.99 39.63Q15.67 38.20 15.44 34.85L15.45 34.85L15.51 34.92Q15.40 34.35 15.32 33.13L15.43 33.23L15.34 33.15Q15.39 32.78 15.31 31.67L15.31 31.67L15.24 31.60Q15.31 30.87 15.35 30.15L15.39 30.19L15.40 30.20Q15.54 28.21 16.57 27.45L16.42 27.30L16.51 27.39Q18.38 26.17 23.21 25.94L23.23 25.96L23.33 26.07Q25.33 25.93 26.13 25.93L26.21 26.01L26.04 25.84Q27.62 25.93 28.99 26.24L28.87 26.12L28.98 26.23Q28.30 27.38 27.77 29.20L27.85 29.29L27.89 29.32Q27.30 29.31 26.81 29.27L26.88 29.34L26.92 29.38Q26.70 29.24 26.17 29.13L26.31 29.27L25.36 29.05L25.24 28.92Q24.17 28.65 23.56 28.69L23.55 28.68L23.66 28.79Q18.80 28.73 18.19 31.54L18.23 31.58L18.33 31.68Q18.07 32.83 18.14 33.78L18.17 33.80L18.09 33.73Q18.33 36.40 19.57 37.49L19.52 37.44L19.56 37.49Q20.79 38.56 23.38 38.59L23.32 38.54L23.26 38.48Q24.86 38.63 25.58 38.33L25.45 38.19L26.44 37.67L26.58 37.80Q27.03 37.49 27.60 37.41L27.59 37.40L27.54 37.35Q27.88 39.25 28.26 40.54L28.23 40.51L28.22 40.51Q28.02 40.92 26.23 41.26ZM29.50 44.22L29.52 44.24L29.43 44.15Q29.81 44.19 30.65 44.27L30.64 44.26L30.59 44.21Q31.34 44.35 31.69 43.78L31.63 43.73L31.66 43.76Q30.39 41.61 29.90 39.52L29.98 39.60L29.93 39.56Q29.63 39.56 29.17 39.56L29.09 39.47L29.09 39.48Q28.77 39.57 28.39 39.76L28.38 39.75L28.30 39.67Q27.98 38.44 27.83 37.03L27.83 37.04L27.80 37.00Q27.34 37.08 26.12 37.65L26.02 37.55L26.09 37.61Q24.82 38.14 24.33 38.14L24.38 38.19L24.30 38.11Q23.80 38.11 23.19 38.07L23.25 38.12L23.26 38.14Q22.40 38.15 20.42 37.58L20.30 37.46L20.27 37.43Q20.06 36.84 20.10 35.70L19.98 35.58L20.03 35.63Q20.34 31.52 25.29 30.99L25.14 30.84L25.20 30.90Q25.89 30.91 27.26 31.25L27.21 31.20L27.19 31.18Q28.59 31.55 29.31 31.51L29.28 31.48L29.35 31.54Q29.73 29.26 30.41 27.43L30.54 27.57L30.48 27.50Q30.16 27.45 29.78 27.38L29.77 27.36L28.88 27.16L28.88 27.16Q29.11 26.70 29.49 25.83L29.45 25.78L29.52 25.86Q28.07 25.59 26.51 25.59L26.37 25.45L26.37 25.45Q24.08 25.55 19.70 25.93L19.59 25.82L19.73 25.97Q17.66 25.98 16.10 26.97L16.22 27.10L16.05 26.92Q14.99 28.04 14.99 29.95L14.88 29.83L15.02 29.97Q15.01 30.38 15.12 31.60L14.95 31.42L15.01 31.49Q15.12 32.55 15.08 33.16L14.99 33.07L15.12 33.19Q15.09 35.03 15.81 38.76L15.86 38.80L15.86 38.81Q16.23 39.64 16.73 40.13L16.69 40.09L17.00 40.40L17.02 40.38L16.99 40.35Q17.91 42.38 21.83 42.99L22.01 43.17L21.94 43.10Q25.06 43.55 27.72 43.82L27.68 43.77L27.70 43.79Q28.59 43.96 29.50 44.23Z"/><path fill="#111" d="M50.71 30.89L50.74 30.92L50.79 30.97Q50.73 29.39 49.92 28.48L49.92 28.48L49.96 28.52Q49.19 27.65 47.74 27.69L47.65 27.60L47.76 27.71Q45.33 27.67 44.49 29.81L44.48 29.80L44.64 29.96Q44.38 30.76 44.34 31.44L44.21 31.32L44.29 31.40Q44.12 36.29 43.21 40.63L43.11 40.53L43.21 40.63Q41.52 41.15 39.65 42.14L39.48 41.97L39.50 41.99Q41.92 35.16 41.65 27.85L41.50 27.69L41.53 27.72Q41.31 20.42 38.76 13.61L38.69 13.54L38.70 13.55Q40.60 14.99 42.62 15.68L42.46 15.52L42.49 15.55Q43.89 21.29 44.08 27.15L44.18 27.25L44.08 27.15Q45.68 25.29 48.38 25.36L48.34 25.32L48.26 25.24Q53.39 25.38 53.50 30.75L53.43 30.68L53.48 30.73Q53.54 36.35 54.91 40.99L55.06 41.14L55.04 41.12Q53.09 40.20 51.34 40.01L51.36 40.03L51.35 40.02Q50.93 36.86 50.82 31.00ZM51.10 40.41L50.95 40.27L51.09 40.40Q52.14 40.54 53.25 40.81L53.17 40.73L53.19 40.75Q53.29 40.97 53.83 42.95L53.73 42.86L53.80 42.93Q56.82 43.93 58.84 45.37L58.67 45.21L58.67 45.21Q56.03 39.48 55.50 33.17L55.50 33.17L55.58 33.24Q55.31 29.59 53.91 28.03L53.84 27.96L53.90 28.02Q53.79 27.84 53.15 27.39L53.10 27.34L53.21 27.45Q52.95 26.92 52.30 26.16L52.25 26.10L52.30 26.08L52.33 26.12Q51.39 25.17 48.27 24.90L48.31 24.95L48.19 24.83Q47.61 24.98 46.21 25.32L46.08 25.19L46.14 25.25Q45.99 20.46 45.65 17.94L45.59 17.89L45.57 17.87Q44.75 17.69 43.26 17.39L43.25 17.37L43.37 17.49Q43.14 16.69 42.87 15.21L42.97 15.31L42.96 15.29Q39.89 14.21 38.03 12.65L38.13 12.75L38.09 12.71Q41.01 19.81 41.27 27.62L41.37 27.71L41.32 27.67Q41.52 35.37 38.97 42.72L39.11 42.86L38.95 42.69Q39.89 42.11 41.03 41.61L41.06 41.64L40.39 43.98L40.28 43.87Q43.56 42.69 45.54 42.50L45.39 42.35L45.38 42.35Q46.13 37.11 46.32 33.16L46.16 33.00L46.30 33.14Q46.37 31.27 48.31 30.17L48.34 30.19L48.32 30.17Q48.79 29.88 49.32 29.92L49.28 29.87L49.38 29.97Q49.38 29.83 49.73 29.87L49.86 30.00L50.29 30.09L50.30 30.09Q50.35 30.52 50.46 30.98L50.45 30.97L50.36 30.88Q50.62 37.01 51.12 40.43Z"/></svg>