<svg xmlns="http://www.w3.org/2000/svg" width="150" height="50" viewBox="0,0,150,50"><path fill="#333" d="M15.90 49.55L16.01 49.66L15.95 49.60Q18.88 45.74 21.77 39.54L21.70 39.47L21.79 39.56Q18.71 33.06 12.62 24.98L12.48 24.84L12.47 24.83Q14.49 26.09 17.27 26.74L17.27 26.74L17.34 26.81Q20.75 31.36 23.18 36.57L23.16 36.55L23.13 36.52Q25.30 31.23 28.39 26.82L28.38 26.81L28.51 26.94Q30.75 26.63 32.84 25.83L32.83 25.81L32.73 25.71Q29.40 29.62 25.93 37.04L25.93 37.03L23.16 43.10L22.98 42.92Q21.64 46.15 19.89 48.78L19.80 48.69L19.80 48.68Q17.46 49.13 16.01 49.66ZM22.21 51.02L22.14 50.95L22.09 50.90Q23.91 48.11 25.36 44.84L25.34 44.82L27.96 38.38L28.02 38.44Q31.60 30.48 34.91 26.48L34.94 26.52L34.84 26.42Q33.49 27.08 31.58 27.77L31.64 27.83L32.74 26.48L32.60 26.35Q33.11 25.60 33.72 24.91L33.71 24.91L33.71 24.91Q31.23 26.16 28.38 26.62L28.33 26.57L28.30 26.54Q25.46 30.36 23.52 34.82L23.58 34.88L23.57 34.87Q21.92 31.54 20.13 28.72L20.14 28.73L20.10 28.70Q20.06 28.85 19.70 28.81L19.70 28.81L19.56 28.67Q19.19 28.62 19.00 28.62L19.01 28.63L19.07 28.70Q18.37 27.49 17.41 26.35L17.41 26.35L17.45 26.39Q14.13 25.58 11.39 23.87L11.46 23.94L11.49 23.97Q17.70 31.93 21.39 39.54L21.45 39.60L21.32 39.47Q19.25 44.63 15.18 50.27L15.10 50.19L15.19 50.28Q15.96 49.94 16.75 49.79L16.75 49.78L18.46 49.51L18.30 49.36Q17.87 50.25 16.69 51.89L16.62 51.83L16.52 51.73Q18.90 51.21 22.17 50.98Z"/><path fill="#444" d="M120.25 40.33L120.06 40.14L120.08 40.15Q116.67 40.32 115.03 39.79L115.09 39.84L115.02 39.78Q113.14 39.23 112.84 35.84L112.82 35.83L114.31 34.81L114.28 34.77Q114.86 34.09 115.62 33.60L115.69 33.67L115.70 33.68Q115.36 35.51 116.96 36.72L117.03 36.80L117.00 36.77Q118.33 37.83 120.46 37.64L120.45 37.63L120.42 37.60Q124.80 37.18 124.61 33.64L124.57 33.60L124.66 33.70Q124.51 31.45 121.88 30.23L121.94 30.29L121.86 30.21Q118.93 29.06 116.57 27.85L116.75 28.03L116.59 27.87Q114.00 26.50 113.01 21.82L113.18 21.99L113.03 21.83Q112.95 21.41 112.84 20.65L112.81 20.63L112.84 20.66Q112.82 19.95 112.89 19.37L112.80 19.28L112.89 19.37Q113.08 17.81 114.33 17.35L114.35 17.37L114.31 17.33Q116.77 16.52 120.77 16.71L120.69 16.63L120.75 16.69Q122.46 16.68 123.25 16.76L123.30 16.80L123.33 16.83Q124.81 17.01 125.87 17.47L125.81 17.41L125.87 17.47Q127.88 17.84 128.11 20.31L128.19 20.39L128.26 20.47Q127.19 21.14 124.98 22.48L124.85 22.35L124.96 22.46Q124.51 19.42 120.13 19.42L120.17 19.46L120.10 19.39Q118.22 19.41 117.23 20.10L117.19 20.05L117.34 20.20Q116.16 20.70 116.39 22.49L116.25 22.36L116.28 22.38Q116.67 24.71 119.64 26.24L119.50 26.10L119.64 26.23Q120.03 26.32 124.52 27.95L124.58 28.02L124.61 28.05Q127.18 29.47 127.60 33.85L127.69 33.94L127.60 33.85Q127.60 34.00 127.67 35.26L127.60 35.19L127.73 35.32Q127.71 38.00 126.15 39.11L126.30 39.26L126.12 39.07Q124.26 40.03 120.07 40.14ZM122.51 42.66L122.47 42.62L122.47 42.62Q124.00 42.77 125.98 42.77L125.86 42.66L125.97 42.76Q127.91 42.61 129.16 42.19L129.26 42.29L129.24 42.27Q130.44 41.42 130.36 39.63L130.38 39.64L130.38 39.64Q130.44 38.75 130.06 36.70L129.91 36.54L130.06 36.69Q129.10 31.96 127.00 30.10L126.90 29.99L127.06 30.16Q126.21 28.51 124.88 27.78L124.93 27.84L119.48 25.62L119.62 25.76Q119.31 25.60 118.85 25.37L118.69 25.21L118.76 25.02L118.57 24.48L118.70 24.61Q118.54 23.20 119.69 22.59L119.58 22.48L119.57 22.47Q120.45 22.02 122.16 21.83L122.07 21.74L122.04 21.71Q123.31 21.72 124.45 22.18L124.30 22.02L124.36 22.08Q124.50 22.26 124.69 23.10L124.57 22.98L124.67 23.08Q124.89 22.96 125.38 22.73L125.31 22.66L125.26 22.61Q126.15 23.69 126.26 24.83L126.11 24.67L126.23 24.80Q126.27 24.72 129.92 22.13L129.88 22.08L129.87 22.08Q129.70 19.54 128.25 18.86L128.16 18.77L128.22 18.82Q127.59 17.51 126.14 16.98L126.17 17.01L126.15 16.99Q123.82 16.14 120.62 16.14L120.68 16.20L120.74 16.26Q115.81 16.24 113.95 16.93L113.93 16.91L114.00 16.98Q112.53 17.29 112.41 18.97L112.56 19.12L112.45 19.01Q112.44 19.57 112.86 21.78L112.78 21.70L112.77 21.69Q113.57 25.57 115.74 27.82L115.68 27.76L115.73 27.81Q116.53 29.52 118.03 30.20L118.04 30.21L117.91 30.08Q119.52 30.88 123.45 32.44L123.45 32.44L123.31 32.34L124.14 32.87L124.02 32.78L124.20 32.96Q124.34 33.38 124.38 33.72L124.36 33.70L124.26 33.60Q124.36 37.08 120.44 37.23L120.47 37.27L120.47 37.27Q119.30 37.28 118.00 36.90L117.96 36.86L118.08 36.97Q117.64 36.04 117.64 35.32L117.59 35.26L117.62 35.30Q117.66 35.07 117.70 34.81L117.74 34.84L117.76 34.87Q117.27 35.02 116.47 35.51L116.47 35.51L116.49 35.53Q116.02 34.46 116.18 33.09L116.25 33.16L116.11 33.02Q114.03 34.22 112.43 35.63L112.46 35.65L112.37 35.57Q112.60 36.56 112.68 37.58L112.56 37.47L112.49 37.40Q112.84 39.16 114.14 39.92L114.26 40.05L114.23 40.01Q115.44 41.83 117.99 42.21L118.07 42.29L117.97 42.19Q119.52 42.41 122.45 42.60Z"/><path fill="#111" d="M79.72 40.39L79.68 40.35L79.81 40.48Q76.71 36.46 74.08 27.82L74.04 27.78L74.17 27.91Q73.33 25.59 72.53 23.46L72.61 23.53L69.87 32.44L69.78 32.36Q67.95 37.26 65.55 40.50L65.61 40.55L65.45 40.40Q64.70 40.56 63.06 40.71L63.07 40.72L62.99 40.64Q63.14 39.50 63.14 38.24L63.26 38.36L63.16 38.26Q63.11 32.20 60.37 26.07L60.41 26.10L60.42 26.12Q57.25 19.17 51.38 14.19L51.41 14.21L51.41 14.21Q53.66 15.01 56.02 15.54L55.89 15.42L55.99 15.51Q64.57 23.87 65.87 34.84L66.00 34.97L66.03 35.00Q67.56 31.58 69.00 26.21L69.01 26.22L69.03 26.24Q70.92 18.64 71.41 17.23L71.40 17.22L73.65 17.23L73.63 17.21Q74.46 19.37 75.11 21.69L75.08 21.67L76.31 26.09L76.28 26.06Q77.88 31.54 79.29 34.78L79.28 34.77L79.30 34.80Q80.93 23.13 88.85 15.79L88.82 15.76L88.84 15.78Q90.31 15.39 93.28 14.74L93.38 14.84L93.29 14.75Q88.06 19.15 85.01 25.28L84.98 25.25L85.04 25.30Q81.98 31.57 81.98 38.35L81.98 38.35L81.90 38.27Q81.88 39.35 81.95 40.49L82.06 40.60L80.84 40.41L80.94 40.50Q80.30 40.40 79.73 40.40ZM85.88 43.20L85.90 43.22L85.85 43.17Q84.74 39.74 84.86 35.86L84.71 35.71L84.79 35.79Q85.17 24.29 94.53 16.03L94.55 16.04L94.58 16.07Q93.48 16.16 91.54 16.69L91.56 16.72L91.62 16.77Q92.55 15.91 94.45 14.12L94.41 14.08L94.48 14.15Q91.90 15.00 88.97 15.49L88.91 15.43L88.95 15.47Q81.38 22.52 79.48 32.00L79.52 32.05L79.46 31.98Q78.86 30.32 76.00 18.86L76.05 18.90L76.07 18.92Q75.57 18.92 74.62 18.92L74.69 18.99L74.30 17.83L74.28 17.82Q74.35 17.47 74.12 16.98L74.13 16.98L71.13 16.88L71.11 16.86Q70.36 19.38 69.08 24.50L68.98 24.39L69.01 24.43Q67.78 29.59 66.79 32.06L66.80 32.08L66.84 32.12Q65.12 24.08 59.57 17.76L59.60 17.80L59.69 17.89Q59.09 17.70 58.13 17.51L58.15 17.53L58.23 17.61Q57.43 16.69 55.87 15.05L55.97 15.16L55.89 15.07Q52.58 14.36 50.41 13.56L50.30 13.44L50.45 13.60Q56.05 18.20 59.32 24.41L59.25 24.34L59.36 24.45Q62.67 30.92 62.67 37.92L62.86 38.11L62.78 38.04Q62.85 39.67 62.66 41.26L62.66 41.26L62.51 41.11Q62.81 41.18 63.27 41.09L63.20 41.02L63.26 41.08Q63.79 41.05 64.02 41.05L63.98 41.02L63.89 41.96L64.05 42.11Q63.87 42.39 63.94 42.92L64.09 43.07L63.94 42.92Q65.24 43.00 67.52 42.85L67.48 42.81L67.49 42.82Q71.11 37.41 73.85 28.01L73.78 27.94L73.78 27.94Q76.56 36.73 79.53 40.69L79.53 40.70L79.57 40.73Q80.06 40.76 80.89 40.88L80.80 40.78L80.81 40.79Q81.76 41.93 82.82 43.00L82.88 43.06L82.84 43.01Q83.56 43.02 85.96 43.28Z"/><path fill="#222" d="M95.72 19.54L95.72 19.54L94.15 19.65L94.19 19.68Q92.08 19.94 91.86 21.96L91.80 21.90L91.84 21.94Q91.73 22.64 91.77 23.63L91.79 23.65L91.79 23.64Q91.79 25.55 93.05 26.88L93.00 26.84L92.97 26.80Q94.25 28.16 96.15 28.01L96.17 28.03L96.18 28.03Q98.23 27.87 98.99 26.96L98.91 26.88L98.99 26.96Q100.01 26.00 100.27 23.75L100.37 23.85L100.43 23.91Q100.57 21.54 99.32 20.70L99.41 20.80L99.38 20.77Q98.47 19.93 95.81 19.63ZM101.96 28.98L101.88 28.90L100.60 31.20L100.57 31.17Q97.96 36.05 94.19 40.13L94.13 40.07L94.03 39.97Q92.49 40.22 89.79 41.02L89.73 40.96L89.67 40.90Q95.11 34.73 98.27 29.94L98.28 29.95L98.16 29.83Q97.21 30.54 95.57 30.62L95.52 30.57L95.59 30.64Q92.51 30.73 90.99 28.75L91.08 28.84L90.97 28.72Q89.80 27.18 88.70 22.61L88.70 22.61L88.77 22.68Q88.73 22.18 88.58 21.25L88.53 21.20L88.64 21.31Q88.51 20.41 88.51 19.95L88.44 19.88L88.52 19.96Q88.48 18.12 89.54 17.51L89.52 17.49L89.40 17.37Q90.72 16.71 92.59 16.71L92.50 16.62L92.64 16.76Q95.85 16.77 95.85 16.77L95.86 16.79L95.84 16.77Q97.95 16.74 99.20 16.93L99.28 17.01L99.18 16.91Q101.30 17.16 102.21 17.65L102.21 17.65L102.17 17.61Q103.55 18.39 103.74 20.14L103.79 20.19L103.79 20.19Q103.78 20.40 103.59 23.07L103.70 23.18L103.71 23.19Q103.25 25.24 103.02 26.08L102.91 25.97L102.91 25.97Q102.67 27.52 101.91 28.93ZM103.75 31.26L103.87 31.38L103.68 31.20Q104.72 29.03 105.25 24.73L105.38 24.86L105.28 24.76Q105.57 22.57 105.53 21.70L105.55 21.72L105.55 21.71Q105.50 19.85 104.32 18.93L104.28 18.89L103.92 18.72L103.97 18.77Q103.68 17.98 102.76 17.33L102.75 17.32L102.78 17.35Q100.51 16.37 95.71 16.22L95.73 16.23L95.77 16.28Q94.80 16.26 92.36 16.26L92.33 16.22L92.27 16.17Q90.55 16.20 89.07 16.88L89.05 16.87L89.11 16.93Q88.02 17.78 88.10 19.61L87.96 19.47L87.99 19.50Q88.18 20.42 88.37 22.44L88.42 22.48L88.53 22.59Q89.06 25.14 89.33 25.98L89.31 25.96L89.24 25.89Q89.86 27.80 90.81 29.09L90.84 29.13L90.84 29.12Q91.18 29.54 91.56 29.92L91.41 29.77L91.44 29.81Q91.64 30.19 92.29 31.11L92.36 31.18L92.46 31.28Q93.80 32.51 95.74 32.70L95.91 32.87L95.81 32.76Q93.97 35.50 92.41 37.40L92.30 37.28L88.70 41.69L88.66 41.64Q90.92 40.89 92.55 40.55L92.60 40.59L92.55 40.54Q91.82 41.45 90.26 43.17L90.31 43.21L90.36 43.26Q93.29 42.20 96.41 42.16L96.43 42.18L96.51 42.26Q98.91 39.75 103.25 32.52L103.23 32.50L103.07 32.41L103.17 32.51Q103.38 31.73 103.73 31.24ZM97.76 22.03L97.74 22.02L97.80 22.08Q98.29 21.84 98.74 21.96L98.76 21.97L98.88 22.09Q99.50 22.17 99.88 22.29L99.76 22.17L99.88 22.29Q99.97 22.65 100.05 23.07L100.01 23.03L100.10 23.13Q100.12 23.48 100.01 23.86L100.02 23.88L100.10 23.95Q99.97 25.58 98.79 26.68L98.86 26.76L98.76 26.66Q97.85 27.72 96.21 27.68L96.16 27.64L96.27 27.74Q95.84 27.74 94.32 27.43L94.31 27.42L94.30 27.41Q94.08 26.54 94.08 25.82L94.08 25.82L94.05 25.79Q93.93 25.48 93.93 25.25L93.95 25.27L94.03 25.35Q93.89 23.01 96.18 22.21L96.25 22.28L96.31 22.34Q96.85 21.96 97.69 21.96Z"/><path fill="#444" d="M46.65 19.69L46.62 19.66L46.66 19.70Q44.73 19.87 43.78 20.02L43.79 20.03L43.68 19.91Q42.03 20.13 40.81 20.66L40.83 20.69L40.75 20.61Q37.39 22.19 37.28 26.88L37.19 26.79L37.32 26.92Q37.13 29.47 37.78 32.40L37.72 32.34L37.79 32.42Q38.69 36.48 42.31 37.66L42.25 37.60L42.23 37.58Q44.22 38.23 45.66 38.08L45.70 38.12L45.98 37.94L46.11 38.07Q46.29 38.06 46.48 38.10L46.44 38.06L46.50 38.12Q46.61 38.07 46.76 38.03L46.70 37.97L46.78 38.05Q49.44 37.83 50.81 37.26L50.72 37.16L47.10 33.58L47.24 33.72Q47.53 33.36 48.14 32.75L48.20 32.81L48.99 31.77L48.93 31.72Q50.86 33.88 52.84 35.93L52.75 35.84L52.83 35.92Q55.11 34.05 55.38 28.68L55.33 28.63L55.42 28.73Q55.51 27.82 55.51 26.91L55.57 26.97L55.50 26.90Q55.58 21.31 50.52 20.21L50.34 20.03L50.41 20.10Q49.12 19.80 46.61 19.65ZM59.30 41.63L59.30 41.62L59.37 41.70Q58.83 42.18 57.65 43.06L57.72 43.13L53.14 39.27L53.26 39.40Q50.67 40.50 46.41 40.54L46.57 40.70L46.49 40.62Q39.87 40.66 37.05 38.41L37.03 38.40L37.05 38.41Q35.29 36.65 34.83 33.68L34.80 33.65L34.83 33.68Q34.58 31.84 34.20 28.26L34.26 28.31L34.22 28.28Q34.27 27.60 34.16 25.85L34.27 25.97L34.13 25.82Q33.93 24.22 33.97 23.34L34.16 23.53L34.08 23.45Q34.17 20.38 35.92 18.82L35.99 18.89L35.94 18.84Q37.47 17.52 40.67 17.02L40.58 16.93L40.70 17.06Q43.21 16.70 46.10 16.78L46.00 16.68L45.97 16.65Q53.59 16.88 56.71 19.24L56.59 19.12L56.64 19.17Q58.80 21.30 58.54 26.21L58.53 26.20L58.45 26.12Q58.31 29.83 58.12 31.16L58.14 31.18L58.15 31.19Q57.53 35.71 55.21 38.03L55.26 38.09L55.14 37.96Q56.60 39.19 59.34 41.67ZM54.47 17.38L54.46 17.37L54.62 17.53Q52.45 16.66 45.94 16.16L45.95 16.17L45.99 16.21Q44.59 16.22 41.81 16.34L41.90 16.42L41.87 16.40Q37.62 16.60 35.37 18.58L35.39 18.59L35.45 18.65Q33.82 20.15 33.82 23.31L33.66 23.14L33.67 23.16Q33.80 24.13 33.96 25.84L33.79 25.67L33.79 25.67Q34.08 27.53 34.08 28.40L34.10 28.42L34.07 28.39Q34.11 30.03 34.49 33.60L34.57 33.69L34.60 33.72Q34.87 36.50 36.47 38.55L36.45 38.54L36.58 38.66Q36.85 39.43 38.07 40.58L38.05 40.56L38.07 40.58Q40.81 42.59 45.98 42.86L46.07 42.94L46.01 42.88Q46.42 42.95 48.82 43.06L48.65 42.90L48.66 42.90Q53.49 43.09 55.78 42.03L55.73 41.98L55.88 42.13Q56.78 42.84 61.50 46.42L61.41 46.32L61.45 46.37Q61.97 45.75 63.27 44.76L63.25 44.74L63.29 44.78Q62.47 44.15 61.67 43.47L61.61 43.41L59.94 41.93L60.12 41.95L60.16 41.99Q59.57 41.52 58.35 40.49L58.26 40.40L58.23 40.37Q60.21 37.93 60.21 33.40L60.24 33.43L60.28 33.47Q60.10 32.87 60.14 32.03L60.27 32.17L60.16 32.06Q60.32 31.34 60.32 30.93L60.19 30.79L60.33 30.93Q60.34 25.42 59.61 23.06L59.63 23.08L59.49 22.94Q59.24 21.77 58.36 20.71L58.37 20.71L58.21 20.55Q57.45 18.46 54.52 17.43ZM48.62 22.12L48.58 22.08L48.56 22.05Q52.69 22.04 54.52 23.63L54.43 23.54L54.52 23.64Q54.94 24.71 55.05 26.04L55.20 26.18L55.09 26.07Q55.13 27.30 55.06 28.67L55.15 28.76L55.06 28.67Q54.79 33.69 52.85 35.40L52.84 35.40L52.76 35.32Q51.55 34.11 49.04 31.37L49.13 31.46L48.96 31.29Q48.19 32.04 46.63 33.60L46.62 33.59L46.72 33.69Q47.14 34.15 48.28 35.33L48.30 35.34L48.33 35.49L48.23 35.39Q48.97 36.09 50.00 37.16L49.93 37.09L49.90 37.06Q48.85 37.27 46.53 37.58L46.59 37.64L46.06 37.64L45.70 37.70L45.64 37.67L45.73 37.77Q42.21 37.71 40.23 36.07L40.30 36.14L40.25 36.10Q39.25 34.03 39.29 30.91L39.20 30.82L39.19 30.81Q39.30 22.05 48.48 21.97Z"/></svg>