<svg xmlns="http://www.w3.org/2000/svg" width="150" height="50" viewBox="0,0,150,50"><path fill="#333" d="M119.85 29.97L119.80 29.92L119.66 29.78Q119.48 29.83 119.18 29.83L119.12 29.77L119.28 29.93Q117.93 29.91 116.48 30.75L116.33 30.60L116.46 30.73Q115.08 31.79 115.08 33.69L114.98 33.59L114.98 33.59Q115.08 37.11 116.60 38.44L116.58 38.42L116.66 38.51Q117.59 39.66 119.88 39.66L119.76 39.55L119.90 39.69Q120.07 39.63 120.38 39.63L120.41 39.67L120.50 39.75Q122.10 39.64 123.24 38.00L123.22 37.99L123.22 37.98Q124.32 36.53 124.24 34.74L124.29 34.79L124.16 34.66Q124.27 34.24 124.27 33.82L124.25 33.80L124.31 33.86Q124.21 31.96 122.84 30.80L122.89 30.86L122.99 30.95Q121.56 29.73 119.77 29.88ZM124.24 40.03L124.20 39.99L124.28 40.07Q123.23 41.96 119.50 42.07L119.51 42.08L119.47 42.04Q116.10 42.17 114.50 40.57L114.43 40.50L114.50 40.57Q113.11 38.87 112.31 34.07L112.16 33.93L112.35 34.11Q111.98 32.31 111.98 31.05L111.90 30.97L111.87 30.93Q111.98 29.26 112.70 28.19L112.67 28.15L112.76 28.25Q114.09 26.83 117.06 26.83L117.03 26.81L117.03 26.81Q123.31 26.76 125.21 29.35L125.20 29.34L125.17 29.31Q125.42 28.57 125.84 26.97L125.95 27.08L125.83 26.97Q127.09 26.66 129.52 25.86L129.63 25.97L129.45 25.79Q127.11 31.52 126.89 37.84L126.82 37.77L126.94 37.89Q126.68 44.03 128.81 49.85L128.72 49.76L128.86 49.90Q127.09 49.24 125.30 48.97L125.27 48.94L125.27 48.94Q124.29 44.92 124.18 39.97ZM124.95 49.19L124.97 49.21L124.94 49.18Q125.66 49.33 127.07 49.64L127.10 49.67L127.19 49.75Q127.42 50.48 127.99 51.89L127.95 51.85L127.86 51.76Q130.45 52.48 132.73 53.77L132.88 53.92L132.76 53.81Q128.78 47.28 128.78 38.75L128.75 38.72L128.87 38.83Q128.78 32.39 131.25 26.60L131.34 26.69L131.30 26.65Q130.59 26.93 129.22 27.58L129.23 27.58L129.18 27.54Q129.55 26.80 130.19 25.24L130.15 25.19L130.19 25.23Q128.63 25.77 125.43 26.64L125.37 26.57L125.52 26.73Q125.33 27.23 125.03 28.41L124.97 28.35L125.00 28.38Q123.03 26.52 116.90 26.37L116.88 26.35L116.78 26.25Q113.58 26.17 112.21 27.66L112.35 27.80L112.24 27.69Q111.61 28.96 111.65 30.86L111.57 30.78L111.59 30.80Q111.72 33.83 112.71 37.60L112.76 37.65L112.73 37.62Q113.34 39.98 114.25 40.93L114.32 41.00L114.66 41.34L114.56 41.23Q115.73 44.01 121.17 44.24L121.15 44.21L121.26 44.32Q122.30 44.37 124.12 44.06L124.11 44.05L124.15 44.09Q124.31 46.88 124.92 49.16ZM121.67 32.21L121.57 32.11L121.71 32.25Q122.79 32.26 123.63 32.56L123.63 32.56L123.66 32.60Q123.75 33.03 123.86 33.64L123.87 33.64L123.77 33.54Q123.93 34.16 123.85 34.77L123.82 34.74L123.86 34.77Q123.93 36.75 122.90 38.04L122.90 38.05L122.84 37.99Q121.78 39.51 119.92 39.32L119.78 39.18L119.85 39.25Q118.45 39.15 117.50 38.73L117.63 38.87L117.53 38.77Q117.19 37.97 117.19 36.75L117.20 36.76L117.16 36.72Q117.30 36.56 117.30 36.25L117.17 36.12L117.12 36.08Q117.12 34.32 118.46 33.16L118.62 33.33L118.51 33.22Q119.83 32.04 121.58 32.11Z"/><path fill="#333" d="M55.20 23.20L55.24 23.24L55.29 23.28Q53.64 19.27 47.43 19.46L47.33 19.36L47.44 19.47Q42.87 19.44 40.90 20.88L41.07 21.06L40.97 20.96Q38.51 22.65 38.51 26.76L38.66 26.91L38.58 28.69L38.49 28.60Q38.52 37.46 47.54 37.46L47.55 37.47L47.67 37.60Q49.61 37.48 51.10 36.68L51.13 36.72L51.07 36.65Q53.01 35.74 52.86 33.87L52.89 33.91L52.81 33.83Q52.53 31.64 48.84 30.73L49.00 30.89L46.95 30.79L47.01 30.85Q46.03 30.82 45.08 30.85L45.09 30.86L45.11 30.88Q45.11 29.93 45.07 28.03L44.96 27.92L45.07 28.02Q52.63 27.94 56.82 27.60L56.82 27.59L56.85 27.62Q56.78 28.43 56.78 29.23L56.81 29.26L56.90 29.35Q56.75 30.00 56.79 30.80L56.83 30.84L56.82 30.83Q55.76 30.87 55.76 30.87L55.72 30.83L55.85 30.97Q54.33 30.82 54.71 30.82L54.79 30.89L54.70 30.80Q55.87 32.50 56.25 34.48L56.25 34.49L56.21 34.45Q56.37 35.22 56.37 35.68L56.28 35.58L56.32 35.63Q56.38 40.33 47.59 40.33L47.60 40.34L47.47 40.21Q40.44 40.30 37.85 38.21L37.89 38.24L37.82 38.17Q35.81 35.79 35.81 30.72L35.81 30.72L35.87 30.78Q35.95 29.79 35.80 27.09L35.76 27.05L35.81 27.10Q35.53 24.61 35.57 23.24L35.57 23.25L35.66 23.34Q35.64 20.35 37.01 18.75L37.15 18.89L37.08 18.82Q39.64 16.77 44.51 16.58L44.61 16.68L47.12 16.45L47.19 16.51Q50.32 16.46 53.75 16.87L53.72 16.85L53.76 16.89Q57.45 17.29 58.40 20.53L58.37 20.50L58.34 20.48Q57.43 21.50 55.34 23.33ZM56.71 25.51L56.86 25.54L56.78 25.46Q58.02 24.41 59.88 22.43L59.94 22.49L59.85 22.41Q59.47 21.37 58.48 19.66L58.58 19.76L58.49 19.67Q57.44 17.14 53.63 16.49L53.52 16.38L53.50 16.35Q51.46 16.34 47.16 16.03L47.23 16.10L44.49 16.17L44.42 16.11Q39.34 16.40 36.75 18.38L36.81 18.43L36.79 18.41Q35.31 19.94 35.20 23.03L35.17 23.00L35.17 23.00Q35.34 22.71 35.57 28.19L35.56 28.19L35.46 28.08Q35.45 29.41 35.53 32.15L35.60 32.22L35.63 32.25Q35.82 36.71 37.57 38.65L37.54 38.62L37.54 38.61Q37.95 39.48 38.82 40.36L38.77 40.31L38.79 40.32Q41.62 42.13 47.14 42.47L47.15 42.48L50.09 42.72L50.12 42.75Q51.70 42.84 53.72 42.73L53.77 42.78L53.78 42.79Q55.06 42.55 57.15 42.01L57.26 42.12L57.27 42.13Q59.17 41.59 59.13 39.27L59.21 39.35L59.23 39.37Q59.19 38.07 58.12 35.29L57.97 35.14L58.15 35.32Q57.84 34.40 57.31 33.60L57.24 33.54L57.30 33.59Q57.93 33.65 59.11 33.84L59.08 33.81L58.94 33.67Q58.69 30.11 58.73 29.43L58.72 29.42L58.66 29.36Q58.39 29.47 57.97 29.43L57.90 29.36L58.05 29.51Q57.48 29.28 57.10 29.36L57.24 29.50L57.27 29.53Q57.23 28.39 57.31 27.32L57.18 27.19L57.24 27.26Q50.89 27.68 44.61 27.57L44.64 27.60L44.77 27.73Q44.81 28.65 44.81 29.56L44.72 29.47L44.75 31.24L44.75 31.25Q45.16 31.28 45.58 31.24L45.58 31.24L45.54 31.19Q45.95 31.19 46.41 31.19L46.48 31.26L46.48 31.26Q46.32 31.56 46.36 32.06L46.41 32.11L46.56 32.25Q46.47 32.62 46.43 33.11L46.32 33.01L46.32 33.01Q47.39 33.02 48.42 32.98L48.49 33.04L48.50 33.06Q49.59 33.12 50.62 33.16L50.57 33.11L50.65 33.19Q51.54 33.28 52.41 33.66L52.43 33.68L52.49 33.77L52.49 33.77Q52.70 35.35 51.02 36.26L50.95 36.19L50.95 36.19Q49.41 37.24 47.70 37.24L47.51 37.05L47.65 37.20Q43.81 37.19 41.37 35.44L41.24 35.31L41.41 35.49Q40.33 33.33 40.48 30.78L40.60 30.90L40.62 30.92Q40.79 25.99 42.63 23.99L42.70 24.05L42.60 23.96Q44.55 22.06 49.23 21.75L49.14 21.67L49.28 21.81Q52.84 21.48 54.78 23.27L54.76 23.25L54.71 23.20Q54.95 23.48 55.06 23.67L54.97 23.57L55.18 23.67L55.12 23.61Q55.74 24.34 56.31 25.45L56.37 25.51L56.70 25.49Z"/><path fill="#222" d="M95.85 29.28L95.70 29.13L95.75 29.18Q93.91 29.21 92.69 30.54L92.64 30.49L92.58 30.43Q91.48 31.88 91.33 33.78L91.37 33.82L91.32 33.78Q91.06 35.84 92.28 36.85L92.38 36.95L92.41 36.98Q93.65 38.01 95.78 37.93L95.63 37.79L95.75 37.90Q98.01 37.68 98.96 36.73L99.00 36.77L98.90 36.68Q100.08 35.38 99.96 33.55L99.83 33.42L99.92 33.51Q99.78 31.61 98.70 30.42L98.66 30.38L98.72 30.44Q97.53 29.14 95.70 29.14ZM95.70 19.73L95.75 19.78L95.81 19.84Q94.36 19.69 93.03 20.18L92.88 20.04L92.92 20.07Q91.64 20.88 91.86 22.75L91.93 22.81L91.85 22.74Q92.35 26.47 95.70 26.47L95.81 26.57L95.70 26.47Q97.39 26.79 98.38 25.65L98.30 25.57L98.25 25.51Q99.38 24.52 99.42 22.96L99.30 22.84L99.26 22.79Q99.43 21.14 98.71 20.53L98.69 20.51L98.75 20.57Q97.04 19.70 95.75 19.78ZM95.41 40.27L95.44 40.30L92.32 40.22L92.38 40.28Q90.86 40.29 89.53 39.41L89.50 39.38L89.51 39.39Q88.24 38.35 88.39 35.49L88.32 35.42L88.27 35.37Q88.86 28.65 92.47 27.66L92.36 27.54L92.41 27.60Q90.02 26.58 88.69 21.21L88.75 21.27L88.75 21.27Q88.36 19.82 88.44 19.02L88.52 19.10L88.46 19.04Q88.85 16.99 92.54 16.95L92.49 16.90L92.43 16.84Q96.72 16.82 98.16 17.02L98.17 17.02L98.21 17.06Q101.95 17.49 102.41 19.51L102.53 19.64L102.41 19.51Q102.69 20.29 102.69 20.67L102.52 20.50L102.53 20.51Q102.53 21.19 102.34 21.80L102.50 21.96L102.52 21.98Q101.78 26.08 98.85 27.60L98.89 27.64L98.97 27.72Q102.32 28.36 102.81 33.66L102.95 33.80L102.83 33.68Q102.91 33.90 102.95 35.20L102.94 35.19L102.83 35.08Q102.92 37.84 101.32 38.90L101.31 38.89L101.30 38.88Q99.94 39.76 95.37 40.22ZM97.71 42.60L97.67 42.56L101.03 42.65L101.18 42.80Q102.88 42.86 104.40 42.14L104.26 41.99L104.40 42.13Q105.43 41.30 105.51 39.43L105.55 39.48L105.57 39.49Q105.48 38.27 105.10 36.33L105.24 36.47L105.16 36.39Q104.24 31.74 102.15 29.87L102.13 29.85L102.06 29.59L101.80 29.25L101.69 29.03L101.56 28.90Q103.28 27.61 104.19 23.46L104.12 23.39L104.21 23.48Q104.12 23.01 104.20 22.17L104.28 22.26L104.26 22.24Q104.31 21.53 104.24 20.92L104.20 20.89L104.36 21.04Q104.07 19.45 102.89 18.96L102.99 19.06L102.93 18.96L102.86 18.97L102.77 18.89Q102.55 18.21 101.37 17.41L101.35 17.39L101.29 17.29L101.44 17.44Q99.36 16.65 95.28 16.46L95.32 16.49L95.27 16.45Q93.74 16.37 92.37 16.48L92.40 16.50L92.39 16.50Q91.54 16.48 90.24 16.63L90.36 16.75L90.25 16.64Q88.38 17.09 88.15 18.73L88.23 18.81L88.23 18.80Q88.09 19.20 88.13 20.00L88.07 19.94L88.06 19.93Q88.29 20.58 88.86 22.94L88.83 22.91L88.80 22.88Q89.70 26.22 91.45 27.55L91.48 27.57L91.52 27.62L91.50 27.60Q88.65 28.82 88.12 34.00L88.12 34.00L88.08 33.96Q87.88 36.16 87.88 37.08L87.94 37.13L87.91 37.10Q87.94 38.85 89.12 39.76L89.29 39.93L89.19 39.83Q89.34 39.95 89.61 40.14L89.63 40.15L89.65 40.17Q90.68 42.46 97.79 42.69ZM97.41 31.57L97.31 31.47L97.31 31.46Q98.23 31.40 99.11 31.86L99.16 31.91L99.21 31.95Q99.47 32.83 99.43 33.36L99.50 33.43L99.56 33.49Q99.49 33.69 99.49 33.99L99.66 34.16L99.54 34.04Q99.50 36.36 97.21 37.19L97.34 37.32L97.20 37.19Q96.57 37.66 95.77 37.54L95.72 37.49L95.75 37.52Q94.67 37.66 93.53 37.20L93.38 37.06L93.43 37.10Q93.12 36.41 93.19 35.42L93.28 35.50L93.31 35.54Q93.47 33.95 94.67 32.73L94.55 32.61L94.59 32.65Q95.87 31.51 97.47 31.63ZM97.64 22.09L97.64 22.08L97.58 22.03Q98.39 21.92 98.92 22.08L99.01 22.16L99.04 23.00L98.85 22.81Q98.96 24.32 98.04 25.33L97.96 25.24L98.07 25.35Q97.21 26.41 95.84 26.22L95.67 26.06L95.72 26.11Q94.78 26.15 94.36 25.93L94.29 25.86L94.40 25.97Q94.23 25.57 94.11 24.88L94.24 25.01L94.25 25.01Q94.01 23.64 95.23 22.80L95.05 22.62L95.21 22.78Q96.18 22.00 97.59 22.03Z"/><path fill="#333" d="M21.52 29.76L21.53 29.76L21.51 29.75Q17.36 29.59 16.79 32.63L16.73 32.57L16.68 32.52Q16.51 33.61 16.70 34.49L16.73 34.52L16.78 34.57Q16.67 35.22 17.13 36.63L17.29 36.79L17.27 36.78Q18.33 39.92 21.64 39.77L21.57 39.70L21.65 39.78Q23.62 39.81 24.95 38.25L24.92 38.22L24.97 38.27Q26.17 36.76 26.17 34.71L26.14 34.68L26.22 34.76Q26.25 34.07 26.10 33.00L26.26 33.16L26.18 33.08Q26.11 32.17 25.69 31.49L25.62 31.42L25.70 31.50Q24.11 29.86 21.52 29.75ZM26.37 48.23L26.39 48.25L26.44 48.31Q24.57 48.83 16.50 49.21L16.43 49.14L16.50 49.21Q14.84 49.30 13.21 48.47L13.08 48.34L13.02 48.28Q13.93 47.41 15.76 45.62L15.79 45.65L15.76 45.61Q18.13 46.62 20.23 46.43L20.18 46.38L20.20 46.40Q23.15 46.19 23.98 45.92L23.92 45.86L24.04 45.98Q26.31 45.32 26.31 43.53L26.28 43.49L26.34 43.55Q26.31 43.30 26.24 43.07L26.19 43.03L26.02 41.37L26.16 41.51Q26.09 40.68 26.09 39.88L26.13 39.92L26.10 39.89Q24.69 42.10 21.30 42.10L21.37 42.17L21.29 42.08Q17.36 42.04 15.72 39.83L15.83 39.94L15.78 39.89Q14.73 38.42 13.93 34.00L13.80 33.87L13.85 33.92Q13.53 32.39 13.53 30.98L13.61 31.05L13.58 31.03Q13.62 29.28 14.53 28.29L14.50 28.25L14.57 28.33Q16.20 26.87 20.84 26.87L20.82 26.84L22.51 26.97L22.61 27.07Q25.83 27.44 27.17 29.38L27.04 29.26L27.02 29.24Q27.35 28.54 27.76 26.90L27.60 26.74L27.64 26.78Q29.43 26.36 31.18 25.63L31.36 25.81L31.34 25.79Q28.63 31.83 28.63 39.07L28.70 39.14L28.70 39.14Q28.56 41.67 28.94 44.29L29.00 44.35L28.93 44.28Q29.22 45.06 29.14 45.75L29.06 45.67L29.12 45.73Q28.96 47.13 27.74 47.89L27.72 47.87L27.75 47.90Q27.16 48.07 26.32 48.18ZM29.31 51.14L29.43 51.25L29.36 51.18Q30.81 51.23 31.58 50.28L31.61 50.31L31.49 50.19Q31.90 49.31 31.79 48.59L31.83 48.63L31.72 48.52Q31.79 48.05 31.60 47.29L31.60 47.29L31.58 47.27Q30.36 42.06 30.70 36.80L30.58 36.68L30.71 36.81Q30.94 31.26 33.07 26.42L33.01 26.35L31.03 27.42L31.10 27.49Q31.16 26.71 31.39 26.14L31.37 26.12L31.92 25.04L32.04 25.16Q29.69 26.12 27.48 26.54L27.46 26.52L27.48 26.53Q27.01 27.24 26.85 28.27L26.92 28.34L26.94 28.36Q24.85 26.45 20.81 26.45L20.86 26.51L19.00 26.40L19.06 26.46Q15.74 26.37 14.07 27.78L14.10 27.81L14.01 27.73Q13.10 28.72 13.14 30.62L13.24 30.73L13.31 30.79Q13.22 33.14 14.25 37.41L14.23 37.39L14.24 37.39Q14.82 39.42 16.04 40.83L15.95 40.74L16.19 40.98L16.33 41.12L16.43 41.22Q17.46 43.44 20.05 43.97L20.03 43.94L20.03 43.95Q21.50 44.31 22.94 44.35L22.91 44.32L22.86 44.27Q24.78 44.47 25.85 44.09L25.81 44.05L25.67 43.92Q25.19 45.60 22.52 45.95L22.49 45.91L22.51 45.93Q21.47 46.11 20.78 46.11L20.64 45.97L20.38 46.08L20.39 46.10Q17.58 46.10 15.90 45.15L15.85 45.10L14.22 46.90L14.20 46.88Q13.33 47.67 12.49 48.63L12.52 48.66L12.47 48.61Q13.42 49.10 14.41 49.29L14.40 49.28L13.47 50.10L13.64 50.27Q16.26 51.25 21.89 51.25L21.90 51.26L22.20 51.33L22.11 51.24Q25.80 51.32 29.38 51.21ZM23.33 31.98L23.42 32.07L23.41 32.06Q24.59 31.87 25.51 32.29L25.59 32.37L25.57 32.35Q25.74 32.83 25.81 33.51L25.84 33.54L25.78 33.48Q25.94 33.91 25.90 34.82L25.80 34.72L25.93 34.85Q25.87 36.77 24.77 38.06L24.69 37.98L24.77 38.07Q23.46 39.34 21.55 39.30L21.66 39.41L21.59 39.34Q20.08 39.20 19.24 38.78L19.29 38.83L19.23 38.77Q18.86 37.64 18.82 36.61L18.81 36.59L18.93 36.72Q18.84 32.40 23.45 32.10Z"/><path fill="#111" d="M72.30 18.49L72.27 18.45L72.29 18.47Q71.58 18.87 71.43 19.67L71.35 19.59L71.37 24.75L71.36 24.74Q72.48 24.72 74.69 24.45L74.73 24.49L74.80 24.56Q74.66 24.88 74.62 25.72L74.62 25.72L74.61 25.70Q74.63 26.53 74.63 26.98L74.62 26.97L73.02 27.04L72.99 27.02Q72.25 27.15 71.38 27.15L71.36 27.14L71.32 27.10Q71.39 31.35 71.31 39.73L71.36 39.78L71.40 39.82Q69.08 39.78 67.59 40.46L67.54 40.41L67.63 40.50Q68.73 34.37 68.61 27.13L68.55 27.07L68.67 27.18Q67.93 27.06 66.64 26.79L66.57 26.72L66.55 26.70Q66.62 25.78 66.43 23.84L66.45 23.86L66.42 23.84Q67.50 24.30 68.45 24.50L68.46 24.50L68.43 24.48Q68.45 23.88 68.14 21.41L68.25 21.52L68.23 21.49Q67.96 19.40 67.96 18.45L67.87 18.36L67.96 18.44Q67.86 16.67 69.27 16.10L69.33 16.16L69.37 16.20Q70.12 15.77 74.95 14.93L74.96 14.94L74.91 14.89Q75.75 14.78 76.59 14.67L76.65 14.72L76.74 14.82Q76.38 15.45 76.23 16.32L76.20 16.30L75.88 17.84L75.98 17.94Q75.32 17.78 74.83 17.89L74.73 17.79L74.76 17.82Q74.08 17.75 72.17 18.36ZM77.63 19.52L77.73 19.62L77.64 19.52Q78.03 17.36 78.64 14.81L78.61 14.78L78.62 14.80Q78.02 15.14 76.72 15.75L76.74 15.77L77.12 14.05L77.22 14.15Q76.02 14.36 73.54 14.89L73.38 14.73L73.51 14.86Q72.26 14.87 69.07 15.78L69.00 15.72L69.00 15.72Q67.42 16.11 67.42 17.98L67.47 18.04L67.58 18.14Q67.51 18.38 67.59 18.72L67.66 18.79L67.50 18.63Q67.75 19.99 67.86 21.32L68.02 21.47L68.18 24.11L68.03 23.96Q66.68 23.60 66.03 23.14L66.12 23.23L66.01 23.12Q66.20 24.14 66.23 25.17L66.33 25.27L66.37 27.17L66.30 27.11Q67.01 27.28 67.81 27.36L67.87 27.41L67.80 29.44L68.25 29.51L68.30 29.56Q68.11 35.61 67.12 41.06L67.22 41.15L67.07 41.01Q68.16 40.61 69.34 40.34L69.25 40.26L69.17 42.42L69.09 42.34Q70.34 42.07 71.64 42.04L71.69 42.08L71.80 42.19Q72.86 42.00 74.12 42.27L74.24 42.39L74.16 42.31Q73.32 37.32 73.32 29.36L73.32 29.37L73.31 29.35Q74.41 29.35 76.50 29.42L76.49 29.42L76.45 27.51L76.62 27.68Q76.54 26.65 76.58 25.70L76.51 25.62L76.56 25.68Q76.06 25.75 75.00 26.01L75.00 26.02L75.05 26.07Q75.08 25.42 75.20 24.08L75.21 24.10L75.19 24.08Q74.24 24.20 73.44 24.27L73.47 24.30L73.53 24.35Q73.45 22.87 73.57 21.46L73.60 21.49L73.66 21.56Q73.68 20.78 74.21 20.44L74.29 20.52L74.35 20.58Q75.26 19.85 76.08 19.77L76.03 19.72L76.11 19.80Q76.85 19.64 77.68 19.57Z"/></svg>