<svg xmlns="http://www.w3.org/2000/svg" width="150" height="50" viewBox="0,0,150,50"><path fill="#222" d="M70.87 40.28L70.80 40.20L70.73 40.14Q67.32 40.30 65.68 39.77L65.74 39.83L65.69 39.78Q63.67 39.09 63.37 35.70L63.47 35.81L64.87 34.70L64.92 34.74Q65.60 34.17 66.36 33.67L66.41 33.72L66.40 33.71Q66.16 35.64 67.76 36.86L67.70 36.80L67.70 36.80Q68.94 37.78 71.07 37.59L71.22 37.73L71.11 37.62Q75.49 37.20 75.30 33.66L75.29 33.66L75.35 33.72Q75.09 31.36 72.46 30.14L72.53 30.21L72.61 30.29Q69.60 29.07 67.24 27.85L67.26 27.87L67.27 27.88Q64.68 26.51 63.69 21.83L63.77 21.91L63.74 21.88Q63.73 21.52 63.61 20.76L63.61 20.76L63.61 20.76Q63.57 20.03 63.64 19.46L63.57 19.39L63.47 19.29Q63.69 17.75 64.94 17.30L64.99 17.34L64.88 17.23Q67.27 16.34 71.26 16.53L71.33 16.60L71.39 16.66Q73.09 16.65 73.89 16.72L73.94 16.78L73.88 16.72Q75.43 16.97 76.49 17.42L76.59 17.52L76.52 17.45Q78.55 17.84 78.77 20.31L78.76 20.30L78.92 20.46Q77.84 21.13 75.63 22.46L75.60 22.44L75.56 22.39Q75.13 19.37 70.75 19.37L70.84 19.46L70.91 19.53Q68.84 19.37 67.85 20.05L68.01 20.21L67.83 20.03Q66.74 20.62 66.97 22.41L67.00 22.44L66.89 22.33Q67.16 24.53 70.13 26.06L70.15 26.08L70.20 26.13Q70.72 26.34 75.21 27.98L75.24 28.01L75.24 28.01Q77.91 29.54 78.33 33.92L78.27 33.85L78.38 33.97Q78.37 34.11 78.44 35.36L78.46 35.38L78.31 35.23Q78.52 38.14 76.96 39.24L76.88 39.17L76.92 39.21Q75.04 40.14 70.85 40.26ZM73.07 42.55L73.12 42.60L73.13 42.62Q74.61 42.72 76.59 42.72L76.66 42.79L76.58 42.72Q78.76 42.80 80.02 42.38L79.92 42.28L79.96 42.32Q81.09 41.40 81.02 39.61L81.09 39.69L81.04 39.64Q81.01 38.65 80.63 36.60L80.66 36.63L80.57 36.54Q79.76 31.96 77.67 30.10L77.54 29.96L77.66 30.09Q76.95 28.58 75.62 27.85L75.45 27.69L70.26 25.73L70.25 25.73Q69.82 25.45 69.37 25.22L69.48 25.34L69.34 24.93L69.39 24.64L69.27 24.52Q69.05 23.04 70.19 22.43L70.38 22.62L70.19 22.43Q71.01 21.92 72.73 21.73L72.80 21.80L72.67 21.67Q73.88 21.63 75.02 22.08L75.14 22.20L75.14 22.20Q75.21 22.31 75.40 23.14L75.41 23.15L75.29 23.03Q75.48 22.88 75.97 22.65L75.94 22.62L75.96 22.63Q76.63 23.50 76.74 24.64L76.84 24.73L76.83 24.73Q76.95 24.73 80.60 22.14L80.62 22.15L80.60 22.14Q80.40 19.57 78.95 18.89L78.92 18.86L78.85 18.79Q78.30 17.56 76.86 17.03L76.93 17.10L76.74 16.91Q74.54 16.20 71.34 16.20L71.26 16.11L71.44 16.29Q66.54 16.30 64.67 16.99L64.59 16.91L64.62 16.93Q63.35 17.45 63.23 19.12L63.10 18.99L63.04 18.93Q63.18 19.64 63.60 21.85L63.47 21.73L63.61 21.86Q64.13 25.47 66.30 27.71L66.30 27.71L66.46 27.87Q67.12 29.45 68.63 30.13L68.69 30.20L68.76 30.27Q70.17 30.86 74.09 32.42L74.14 32.47L74.00 32.37L74.66 32.72L74.69 32.79L74.73 32.83Q74.93 33.30 74.97 33.64L74.93 33.60L74.90 33.57Q75.05 37.11 71.13 37.26L71.13 37.26L71.17 37.30Q70.04 37.35 68.74 36.97L68.70 36.92L68.69 36.92Q68.36 36.09 68.36 35.37L68.31 35.32L68.38 35.39Q68.34 35.08 68.38 34.81L68.37 34.80L68.39 34.83Q67.90 34.98 67.10 35.48L67.26 35.64L67.20 35.58Q66.70 34.47 66.86 33.10L66.74 32.99L66.79 33.04Q64.72 34.24 63.12 35.65L63.16 35.68L63.12 35.65Q63.10 36.38 63.17 37.41L63.17 37.41L63.32 37.57Q63.63 39.28 64.92 40.04L64.78 39.90L64.97 40.09Q66.19 41.91 68.74 42.29L68.61 42.17L68.69 42.24Q70.20 42.42 73.13 42.61Z"/><path fill="#111" d="M121.31 41.42L121.20 41.32L121.34 41.45Q118.38 41.54 117.13 41.01L117.17 41.05L117.08 40.96Q115.15 40.17 115.22 37.70L115.28 37.75L115.16 37.63Q115.32 34.25 115.32 34.82L115.47 34.97L115.32 34.82Q115.42 29.60 112.57 24.76L112.63 24.83L112.54 24.74Q114.60 25.76 116.58 26.14L116.48 26.05L116.56 26.13Q118.16 30.62 118.04 35.11L118.14 35.21L118.01 35.08Q118.02 36.72 118.86 37.94L118.74 37.82L118.86 37.94Q119.79 39.29 121.31 39.10L121.14 38.93L121.54 38.83L121.53 38.82Q122.98 38.86 123.80 38.10L123.81 38.12L123.84 38.15Q124.62 37.34 124.62 36.39L124.62 36.39L124.65 36.42Q124.61 36.16 124.57 35.97L124.62 36.01L124.45 35.84Q124.36 30.58 125.51 26.24L125.55 26.28L125.68 26.41Q126.57 26.20 127.56 25.98L127.67 26.08L129.57 25.47L129.67 25.57Q127.12 30.60 127.43 36.16L127.43 36.16L127.33 36.06Q127.67 39.29 125.96 40.43L125.96 40.44L125.91 40.39Q124.65 41.30 121.34 41.45ZM123.49 43.68L123.61 43.80L123.49 43.68Q127.01 43.88 128.83 43.12L128.93 43.22L128.78 43.06Q129.71 42.32 129.71 40.91L129.75 40.96L129.78 40.98Q129.87 40.16 129.60 38.60L129.50 38.49L129.52 38.52Q129.00 35.33 129.38 32.32L129.53 32.47L129.51 32.46Q129.73 29.14 131.14 26.39L131.24 26.49L131.20 26.46Q130.64 26.84 129.30 27.26L129.27 27.22L129.28 27.23Q129.39 26.51 129.70 25.94L129.77 26.01L130.40 24.92L130.30 24.83Q128.36 25.48 125.20 25.98L125.20 25.97L125.19 25.96Q124.01 30.80 124.16 35.90L124.28 36.01L124.17 35.90Q124.25 38.01 121.59 38.50L121.67 38.58L121.21 38.58L121.08 38.60L120.24 38.57L120.08 38.41Q120.10 37.62 120.14 37.13L120.06 37.05L120.00 36.99Q120.31 32.58 119.62 28.16L119.65 28.19L118.61 28.06L118.60 28.05Q118.09 28.04 117.56 27.93L117.52 27.88L117.45 27.81Q117.18 26.52 116.91 25.76L116.94 25.79L116.93 25.77Q114.07 25.28 111.83 23.98L111.91 24.07L111.80 23.96Q113.94 27.46 114.66 30.85L114.57 30.76L114.72 30.91Q115.11 33.01 114.95 36.51L114.95 36.51L114.94 36.50Q114.97 36.64 114.89 37.75L114.90 37.75L114.99 37.84Q114.92 40.28 116.29 41.24L116.12 41.06L116.29 41.24Q116.51 43.32 123.51 43.70Z"/><path fill="#333" d="M21.55 40.29L21.52 40.25L21.53 40.27Q18.04 40.36 16.41 39.83L16.47 39.89L16.29 39.71Q14.49 39.24 14.18 35.85L14.11 35.78L15.57 34.73L15.62 34.78Q16.27 34.17 17.03 33.68L17.10 33.74L17.08 33.72Q16.71 35.53 18.31 36.75L18.33 36.76L18.46 36.90Q19.67 37.84 21.80 37.65L21.87 37.72L21.71 37.55Q26.11 37.16 25.92 33.62L26.03 33.73L25.98 33.68Q25.85 31.46 23.22 30.24L23.19 30.20L23.25 30.26Q20.28 29.08 17.92 27.86L18.05 28.00L17.95 27.90Q15.49 26.66 14.50 21.97L14.35 21.82L14.36 21.83Q14.37 21.49 14.25 20.73L14.15 20.63L14.28 20.76Q14.20 19.99 14.27 19.42L14.29 19.44L14.28 19.42Q14.27 17.67 15.53 17.21L15.65 17.34L15.54 17.23Q18.04 16.45 22.04 16.64L21.99 16.59L21.98 16.59Q23.86 16.75 24.66 16.83L24.70 16.86L24.61 16.77Q26.20 17.07 27.27 17.53L27.14 17.40L27.10 17.36Q29.23 17.85 29.46 20.33L29.60 20.47L29.56 20.44Q28.44 21.06 26.23 22.39L26.35 22.51L26.33 22.49Q25.88 19.46 21.50 19.46L21.57 19.52L21.58 19.54Q19.57 19.43 18.58 20.11L18.56 20.10L18.63 20.16Q17.34 20.55 17.57 22.34L17.68 22.45L17.58 22.35Q17.91 24.62 20.88 26.14L20.89 26.16L20.89 26.15Q21.38 26.34 25.88 27.98L25.85 27.95L25.82 27.92Q28.56 29.53 28.98 33.90L28.92 33.84L28.93 33.85Q28.98 34.05 29.05 35.30L29.06 35.31L29.06 35.32Q29.20 38.15 27.64 39.26L27.46 39.08L27.58 39.20Q25.66 40.10 21.48 40.22ZM23.83 42.65L23.81 42.62L23.88 42.70Q25.28 42.73 27.26 42.73L27.29 42.76L27.17 42.64Q29.25 42.62 30.50 42.20L30.54 42.24L30.51 42.21Q31.83 41.47 31.75 39.68L31.74 39.67L31.81 39.74Q31.67 38.65 31.29 36.60L31.32 36.62L31.35 36.65Q30.39 31.93 28.30 30.06L28.27 30.03L28.39 30.15Q27.62 28.59 26.29 27.86L26.16 27.73L20.91 25.72L20.95 25.75Q20.58 25.54 20.12 25.31L20.06 25.24L20.09 25.02L20.01 24.59L19.91 24.49Q19.78 23.10 20.92 22.49L20.94 22.51L20.97 22.54Q21.71 21.95 23.42 21.76L23.49 21.83L23.36 21.70Q24.52 21.60 25.66 22.06L25.77 22.16L25.69 22.08Q25.77 22.20 25.96 23.04L25.89 22.97L25.90 22.98Q26.18 22.91 26.67 22.68L26.59 22.60L26.75 22.76Q27.32 23.53 27.44 24.67L27.44 24.67L27.53 24.76Q27.61 24.72 31.26 22.14L31.21 22.08L31.20 22.07Q30.95 19.47 29.51 18.78L29.52 18.80L29.48 18.76Q28.92 17.51 27.47 16.97L27.45 16.96L27.55 17.05Q25.14 16.13 21.94 16.13L22.12 16.30L22.11 16.29Q17.04 16.14 15.17 16.82L15.30 16.95L15.27 16.92Q13.97 17.40 13.85 19.08L13.79 19.01L13.83 19.06Q13.78 19.58 14.20 21.79L14.22 21.81L14.27 21.85Q14.91 25.58 17.08 27.82L17.04 27.79L17.12 27.87Q17.73 29.39 19.24 30.08L19.35 30.19L19.36 30.20Q20.87 30.89 24.79 32.45L24.79 32.45L24.70 32.40L25.41 32.81L25.38 32.82L25.40 32.84Q25.68 33.38 25.72 33.72L25.72 33.72L25.68 33.68Q25.66 37.05 21.74 37.20L21.76 37.23L21.87 37.34Q20.68 37.33 19.39 36.95L19.27 36.83L19.24 36.80Q18.97 36.03 18.97 35.31L19.05 35.39L19.11 35.45Q18.97 35.04 19.01 34.78L18.97 34.74L18.97 34.74Q18.59 35.01 17.79 35.50L17.90 35.61L17.89 35.60Q17.28 34.38 17.43 33.01L17.44 33.02L17.40 32.98Q15.40 34.25 13.80 35.66L13.73 35.60L13.77 35.63Q13.81 36.44 13.89 37.46L13.85 37.43L13.94 37.51Q14.18 39.16 15.47 39.92L15.63 40.08L15.52 39.97Q16.81 41.87 19.36 42.25L19.23 42.11L19.26 42.15Q20.95 42.51 23.88 42.70Z"/><path fill="#444" d="M47.96 40.03L48.04 40.12L46.01 40.37L45.95 40.31Q45.48 40.30 44.51 40.35L44.61 40.45L44.58 40.42Q43.50 40.37 43.00 40.37L42.98 40.34L43.11 40.48Q41.36 40.36 40.33 39.52L40.39 39.58L40.42 39.61Q41.28 38.57 42.91 36.43L42.79 36.31L42.89 36.41Q44.06 37.89 46.27 37.66L46.37 37.76L46.25 37.64Q47.25 37.61 47.90 36.96L47.93 37.00L47.92 36.99Q48.49 36.27 48.38 35.39L48.44 35.45L48.43 35.44Q48.27 30.79 48.35 26.22L48.34 26.22L48.43 26.31Q48.45 21.68 48.99 17.08L48.88 16.97L48.87 16.96Q50.80 16.75 52.93 15.73L53.08 15.88L52.99 15.79Q51.04 22.44 51.04 29.67L51.09 29.73L51.11 29.75Q51.11 33.29 51.57 36.79L51.55 36.77L51.48 36.71Q51.74 37.22 51.74 37.57L51.73 37.56L51.57 37.40Q51.75 38.15 51.52 38.68L51.47 38.63L51.50 38.67Q50.84 39.83 48.03 40.10ZM52.95 42.93L53.08 43.06L53.28 42.92L53.60 42.82L53.93 42.77L53.84 42.68Q54.16 42.43 54.23 42.31L54.25 42.33L54.14 42.22Q54.36 41.06 54.09 40.07L54.18 40.17L54.26 40.25Q52.80 34.33 53.07 27.97L53.07 27.98L53.17 28.08Q53.27 21.82 55.06 15.92L55.12 15.98L55.07 15.93Q54.25 16.63 52.99 17.35L53.05 17.41L53.02 17.38Q53.23 16.64 53.65 15.12L53.53 15.00L53.54 15.00Q51.01 16.32 48.35 16.63L48.40 16.68L48.43 16.71Q48.04 21.08 47.97 26.03L47.96 26.03L48.05 26.12Q47.84 31.89 47.92 35.31L47.99 35.38L47.93 35.32Q48.11 37.21 46.36 37.36L46.22 37.23L46.25 37.26Q44.65 37.48 42.97 35.85L42.97 35.85L42.95 35.82Q40.85 38.29 39.89 39.85L39.89 39.85L39.92 39.88Q40.57 40.53 41.60 40.76L41.57 40.73L41.55 40.70Q41.57 40.96 41.31 41.19L41.22 41.10L41.26 41.14Q42.68 42.07 44.66 42.33L44.65 42.32L44.60 42.27Q44.99 42.32 48.28 42.62L48.38 42.72L48.23 42.57Q51.63 42.98 53.00 42.98Z"/><path fill="#111" d="M94.86 28.88L94.85 28.88L94.85 28.87Q92.29 28.86 91.26 30.04L91.27 30.06L91.34 30.12Q90.37 31.36 90.37 33.99L90.30 33.92L90.25 33.87Q90.34 39.06 94.94 38.86L94.97 38.89L94.94 38.86Q96.90 38.92 98.25 37.35L98.28 37.38L98.42 37.52Q99.73 35.93 99.50 33.87L99.51 33.88L99.43 33.80Q99.47 31.28 98.59 30.25L98.69 30.35L98.53 30.19Q97.13 28.94 94.92 28.94ZM99.98 38.76L99.90 38.68L99.98 38.76Q98.82 41.25 94.14 41.25L94.11 41.23L92.62 41.19L92.64 41.21Q90.18 41.11 89.08 39.97L89.25 40.14L89.08 39.97Q88.14 39.03 87.87 36.63L87.84 36.59L87.80 36.56Q87.68 35.11 87.61 33.32L87.71 33.42L87.72 33.43Q87.62 32.38 87.47 30.44L87.47 30.44L87.53 30.50Q87.36 26.14 92.53 26.14L92.57 26.18L94.09 26.13L94.02 26.06Q97.02 26.17 99.12 27.47L98.95 27.30L99.08 27.43Q99.85 27.90 100.34 28.58L100.26 28.50L100.25 28.49Q100.54 27.71 101.08 26.08L101.12 26.12L101.23 26.23Q102.44 26.03 104.76 25.42L104.64 25.31L104.61 25.27Q102.19 29.67 102.19 34.92L102.09 34.82L102.12 34.84Q102.04 38.50 103.41 41.59L103.43 41.60L103.54 41.71Q102.41 41.42 100.50 41.19L100.39 41.07L100.34 41.03Q100.31 40.35 100.01 38.79ZM103.33 44.02L103.14 43.82L105.43 44.47L105.53 44.58Q106.61 44.74 107.60 45.20L107.59 45.19L107.62 45.22Q103.92 40.84 103.92 34.75L103.92 34.74L103.95 34.77Q103.99 30.28 106.12 26.48L106.21 26.57L106.18 26.54Q105.48 26.72 104.15 27.10L104.14 27.09L104.12 27.06Q104.47 26.31 105.34 24.79L105.27 24.71L105.37 24.81Q104.75 24.96 100.75 25.79L100.89 25.93L100.26 27.70L100.17 27.61Q98.35 25.82 93.93 25.59L93.98 25.64L93.98 25.64Q92.93 25.73 90.68 25.89L90.70 25.91L90.76 25.96Q86.97 26.21 87.08 30.24L87.12 30.28L87.03 30.19Q87.17 33.52 87.74 37.98L87.75 37.99L87.72 38.38L87.79 38.45Q87.86 39.25 88.66 40.35L88.70 40.39L88.68 40.36Q88.91 40.59 89.10 40.71L89.07 40.68L89.16 40.78Q89.44 41.28 89.82 41.85L89.71 41.74L89.64 41.67Q91.11 43.25 94.50 43.44L94.60 43.55L94.47 43.42Q96.23 43.66 96.39 43.66L96.27 43.55L97.88 43.59L97.95 43.67Q101.02 43.53 102.23 41.97L102.21 41.94L102.24 41.97Q102.63 42.63 103.24 43.93ZM96.64 31.12L96.62 31.10L96.78 31.26Q98.00 31.15 98.84 31.60L98.95 31.72L98.81 31.58Q99.15 32.41 99.15 33.85L99.21 33.91L99.10 33.81Q99.42 35.84 98.14 37.27L98.15 37.27L98.08 37.20Q96.77 38.60 94.87 38.41L94.86 38.40L94.80 38.34Q93.49 38.48 92.46 38.06L92.48 38.08L92.34 37.94Q92.15 37.10 92.15 35.88L92.26 36.00L92.30 36.03Q92.38 32.46 95.01 31.51L94.94 31.44L95.07 31.57Q95.92 31.20 96.72 31.20Z"/></svg>