<svg xmlns="http://www.w3.org/2000/svg" width="150" height="50" viewBox="0,0,150,50"><path fill="#111" d="M126.19 40.95L126.14 40.90L126.21 40.97Q124.94 39.32 123.65 36.24L123.54 36.13L121.46 31.04L121.54 31.12Q119.95 35.13 119.34 36.42L119.24 36.33L119.27 36.35Q117.88 39.34 116.28 41.24L116.20 41.16L116.28 41.25Q115.89 41.24 115.13 41.35L115.01 41.23L115.09 41.32Q115.07 33.87 109.25 27.93L109.25 27.93L109.25 27.93Q107.41 26.02 105.40 24.54L105.56 24.70L105.51 24.65Q107.32 25.16 109.18 25.47L109.27 25.55L109.22 25.50Q115.18 30.37 116.63 36.61L116.66 36.64L116.66 36.64Q117.59 34.83 118.77 31.63L118.79 31.65L118.89 31.75Q120.19 27.95 120.76 26.65L120.67 26.56L122.09 26.57L122.06 26.55Q122.92 28.24 124.10 31.52L124.11 31.52L124.13 31.55Q125.54 35.28 126.19 36.69L126.09 36.59L126.12 36.62Q127.88 30.27 133.36 25.70L133.50 25.84L133.37 25.71Q134.67 25.72 137.41 25.14L137.32 25.05L137.32 25.05Q128.63 31.02 127.45 41.00L127.57 41.11L126.84 40.92L126.89 40.97Q126.49 40.87 126.14 40.91ZM129.28 43.51L131.33 43.70L131.25 43.62Q130.97 42.12 130.97 40.60L130.94 40.57L130.99 40.61Q130.94 37.33 132.35 34.09L132.32 34.07L132.37 34.11Q134.31 29.54 138.42 26.46L138.50 26.54L138.36 26.40Q137.23 26.76 135.37 27.10L135.34 27.07L135.31 27.05Q137.40 25.51 138.69 24.60L138.50 24.41L136.04 24.91L136.16 25.04Q134.92 25.24 133.58 25.39L133.60 25.40L133.59 25.40Q128.36 29.57 126.42 34.60L126.33 34.51L126.45 34.63Q125.84 32.49 124.47 28.23L124.36 28.12L124.35 28.11Q124.16 28.27 123.90 28.27L123.82 28.19L123.37 28.27L123.27 28.18Q123.25 27.96 122.45 26.21L122.43 26.19L120.23 26.05L120.26 26.08Q119.38 28.96 117.29 34.60L117.20 34.51L117.31 34.62Q115.92 30.88 112.84 27.60L112.78 27.54L112.93 27.69Q112.66 27.69 112.35 27.65L112.34 27.64L111.69 27.45L111.82 27.57Q110.86 26.65 109.07 25.06L109.08 25.06L109.16 25.14Q105.88 24.37 104.21 23.88L104.22 23.89L104.28 23.95Q114.91 31.31 114.53 41.63L114.66 41.76L114.64 41.74Q114.80 41.71 115.16 41.67L115.20 41.71L115.21 41.72Q115.46 41.56 115.65 41.56L115.64 41.56L115.66 41.58Q115.75 41.52 115.94 43.61L115.86 43.53L117.83 43.40L117.92 43.49Q120.42 40.58 122.66 34.84L122.71 34.88L122.61 34.78Q124.08 38.61 125.94 41.28L126.09 41.42L126.02 41.36Q126.37 41.37 126.64 41.38L126.65 41.40L126.57 41.32Q126.86 41.35 127.12 41.35L127.17 41.40L129.22 43.45Z"/><path fill="#444" d="M47.53 18.38L47.61 18.46L47.65 18.50Q46.97 18.92 46.82 19.72L46.79 19.69L46.72 24.76L46.71 24.75Q47.83 24.73 50.04 24.46L50.14 24.57L49.99 24.42Q50.10 24.99 50.06 25.82L49.92 25.68L50.04 25.80Q49.96 26.52 49.96 26.98L50.10 27.12L48.34 27.04L48.36 27.05Q47.62 27.19 46.75 27.19L46.76 27.20L46.68 27.12Q46.82 31.45 46.74 39.82L46.57 39.65L46.71 39.79Q44.45 39.82 42.96 40.50L43.04 40.57L42.99 40.53Q44.00 34.31 43.89 27.07L43.88 27.07L43.92 27.10Q43.32 27.12 42.03 26.85L42.06 26.88L42.00 26.83Q42.01 25.84 41.81 23.90L41.80 23.88L41.80 23.88Q42.91 24.38 43.86 24.57L43.79 24.50L43.80 24.51Q43.80 23.90 43.50 21.43L43.53 21.47L43.54 21.47Q43.22 19.33 43.22 18.37L43.30 18.45L43.19 18.34Q43.31 16.79 44.72 16.22L44.65 16.15L44.76 16.25Q45.56 15.88 50.39 15.04L50.33 14.97L50.35 14.99Q51.14 14.83 51.98 14.72L51.94 14.68L52.05 14.79Q51.71 15.44 51.55 16.31L51.61 16.37L51.37 18.00L51.35 17.97Q50.56 17.68 50.07 17.79L50.11 17.84L50.14 17.87Q49.60 17.94 47.70 18.55ZM53.14 19.69L53.00 19.55L53.04 19.59Q53.31 17.31 53.92 14.76L53.97 14.81L53.91 14.75Q53.34 15.13 52.04 15.73L52.08 15.78L52.41 14.01L52.43 14.03Q51.31 14.32 48.84 14.85L48.82 14.84L48.69 14.71Q47.61 14.88 44.41 15.79L44.36 15.75L44.49 15.87Q42.88 16.24 42.88 18.11L42.86 18.09L42.91 18.14Q42.87 18.40 42.95 18.75L43.01 18.81L42.96 18.76Q43.21 20.11 43.32 21.44L43.34 21.46L43.43 24.03L43.39 23.99Q42.05 23.64 41.41 23.18L41.37 23.15L41.37 23.15Q41.61 24.22 41.65 25.25L41.51 25.12L41.76 27.23L41.71 27.18Q42.42 27.36 43.22 27.43L43.20 27.42L43.13 29.43L43.60 29.53L43.67 29.60Q43.49 35.66 42.50 41.11L42.41 41.02L42.45 41.06Q43.55 40.67 44.73 40.40L44.60 40.28L44.40 42.32L44.55 42.47Q45.80 42.20 47.10 42.16L47.12 42.18L46.98 42.05Q48.18 41.99 49.44 42.25L49.42 42.24L49.46 42.27Q48.67 37.34 48.67 29.38L48.70 29.41L48.64 29.35Q49.87 29.47 51.96 29.55L51.95 29.54L51.85 27.57L51.93 27.66Q51.82 26.60 51.86 25.64L51.84 25.62L51.88 25.66Q51.36 25.72 50.30 25.98L50.37 26.06L50.40 26.09Q50.43 25.43 50.55 24.10L50.52 24.08L50.45 24.00Q49.52 24.14 48.72 24.22L48.77 24.26L48.79 24.29Q48.81 22.90 48.93 21.49L48.98 21.54L48.99 21.56Q49.10 20.86 49.63 20.52L49.67 20.56L49.66 20.55Q50.65 19.90 51.47 19.82L51.39 19.74L51.40 19.76Q52.12 19.58 52.96 19.51Z"/><path fill="#111" d="M64.94 47.08L65.03 47.17L64.95 47.09Q64.02 47.31 62.12 47.61L62.06 47.56L62.04 47.53Q63.29 45.31 64.31 44.02L64.32 44.03L64.32 44.02Q66.25 44.51 66.40 44.51L66.24 44.35L66.26 44.37Q66.66 44.53 67.19 44.42L67.06 44.29L67.07 44.30Q67.93 44.40 68.12 44.40L67.96 44.24L68.04 44.32Q70.49 43.95 70.41 41.78L70.58 41.95L70.42 41.79Q70.53 40.45 70.41 34.20L70.37 34.16L70.39 34.18Q70.29 30.58 70.36 26.43L70.32 26.38L71.85 26.31L71.71 26.18Q72.41 26.12 73.10 25.89L73.18 25.97L73.09 25.88Q72.92 30.36 72.96 34.74L73.03 34.80L72.94 34.71Q72.95 39.06 73.48 43.44L73.42 43.38L73.43 43.39Q73.65 43.84 73.65 44.10L73.49 43.95L73.65 44.10Q73.62 45.71 71.95 46.10L71.92 46.07L71.91 46.05Q68.81 46.46 64.97 47.11ZM71.69 22.84L69.62 19.78L69.68 19.84Q70.53 18.25 72.35 15.47L72.50 15.62L72.53 15.65Q73.10 16.44 74.43 18.27L74.41 18.25L71.80 22.95ZM74.71 49.46L74.69 49.45L74.63 49.39Q75.23 49.49 76.00 49.15L76.05 49.21L76.02 49.18Q76.32 48.45 76.32 47.99L76.34 48.01L76.39 48.06Q76.33 47.66 76.22 47.05L76.24 47.08L76.25 47.09Q74.92 40.69 74.92 32.77L74.93 32.78L74.78 32.63Q74.80 29.80 74.95 26.90L75.01 26.96L74.96 26.91Q74.47 27.14 73.32 27.45L73.31 27.43L73.38 27.50Q73.44 27.07 73.48 26.53L73.45 26.51L73.54 25.42L73.44 25.31Q71.79 26.03 70.01 26.07L70.10 26.16L70.07 26.13Q69.94 30.38 69.98 33.96L69.98 33.97L70.03 41.74L70.08 41.79Q70.23 43.84 68.06 43.95L68.06 43.96L68.06 43.95Q67.82 43.94 67.30 44.00L67.37 44.06L67.33 44.03Q66.85 44.12 66.58 44.12L66.45 43.99L66.50 44.03Q65.96 43.95 64.40 43.54L64.50 43.63L64.53 43.66Q64.03 44.23 62.93 45.91L62.96 45.94L61.29 48.11L61.34 48.16Q62.33 48.09 63.97 47.71L63.89 47.63L63.34 48.26L62.81 48.91L62.84 48.94Q65.22 48.88 66.55 48.96L66.44 48.84L66.42 48.82Q68.83 49.11 74.77 49.53ZM71.71 23.62L71.68 23.59L72.10 23.14L71.94 22.98Q72.45 23.57 73.40 25.16L73.26 25.02L73.37 25.13Q74.86 21.97 76.42 18.89L76.48 18.95L76.44 18.91Q75.39 17.26 74.44 15.96L74.54 16.06L74.54 16.06Q74.24 16.18 73.90 16.71L74.01 16.82L74.00 16.82Q73.63 16.22 72.65 14.93L72.54 14.82L72.50 14.79Q71.33 16.39 69.00 19.74L69.10 19.84L69.03 19.76Q69.93 20.96 71.64 23.55Z"/><path fill="#111" d="M21.05 29.83L21.18 29.97L21.05 29.83Q20.78 29.79 20.47 29.79L20.56 29.88L20.49 29.81Q19.23 29.88 17.78 30.72L17.71 30.64L17.82 30.75Q16.48 31.86 16.48 33.76L16.39 33.66L16.42 33.69Q16.34 37.04 17.86 38.37L18.01 38.52L17.93 38.44Q18.92 39.66 21.20 39.66L21.09 39.55L21.17 39.62Q21.48 39.71 21.79 39.71L21.74 39.66L21.65 39.57Q23.42 39.63 24.57 37.99L24.54 37.97L24.55 37.98Q25.59 36.47 25.51 34.68L25.49 34.66L25.47 34.63Q25.67 34.31 25.67 33.89L25.60 33.81L25.63 33.85Q25.69 32.11 24.32 30.95L24.21 30.84L24.18 30.81Q22.89 29.73 21.10 29.89ZM25.66 40.12L25.66 40.12L25.49 39.95Q24.58 41.96 20.84 42.08L20.79 42.02L20.83 42.06Q17.42 42.15 15.82 40.56L15.76 40.49L15.80 40.54Q14.46 38.89 13.66 34.09L13.54 33.97L13.64 34.07Q13.27 32.26 13.27 31.00L13.36 31.09L13.25 30.99Q13.23 29.17 13.95 28.10L13.94 28.09L14.10 28.26Q15.46 26.87 18.43 26.87L18.26 26.70L18.26 26.70Q24.74 26.86 26.64 29.45L26.64 29.45L26.50 29.31Q26.70 28.52 27.12 26.92L27.16 26.96L27.13 26.93Q28.43 26.67 30.87 25.87L30.78 25.78L30.94 25.94Q28.35 31.43 28.12 37.75L28.28 37.90L28.25 37.87Q28.08 44.10 30.21 49.92L30.04 49.75L30.18 49.89Q28.48 49.29 26.69 49.02L26.60 48.94L26.51 48.85Q25.70 45.00 25.59 40.05ZM26.25 49.15L26.26 49.17L26.29 49.20Q27.09 49.42 28.50 49.73L28.44 49.67L28.44 49.68Q28.69 50.42 29.26 51.83L29.31 51.88L29.19 51.76Q31.84 52.54 34.12 53.84L34.15 53.86L34.06 53.77Q30.14 47.30 30.14 38.77L30.05 38.68L30.16 38.79Q30.15 32.43 32.63 26.64L32.59 26.61L32.49 26.50Q31.99 26.99 30.62 27.64L30.63 27.65L30.63 27.65Q30.88 26.79 31.52 25.23L31.56 25.27L31.39 25.10Q30.00 25.81 26.81 26.68L26.78 26.66L26.77 26.65Q26.73 27.29 26.42 28.47L26.29 28.34L26.31 28.36Q24.24 26.40 18.11 26.25L18.15 26.29L18.13 26.26Q14.96 26.22 13.59 27.70L13.70 27.81L13.59 27.70Q12.88 28.90 12.92 30.80L12.81 30.70L12.84 30.72Q12.97 33.75 13.96 37.51L14.05 37.61L13.92 37.48Q14.66 39.97 15.58 40.92L15.65 40.99L15.86 41.20L15.92 41.27Q17.11 44.05 22.55 44.28L22.55 44.28L22.56 44.29Q23.64 44.38 25.46 44.07L25.34 43.95L25.49 44.10Q25.65 46.88 26.26 49.17ZM22.97 32.17L23.05 32.25L22.99 32.19Q24.12 32.25 24.95 32.56L24.93 32.54L24.82 32.43Q25.01 32.96 25.12 33.57L25.29 33.74L25.16 33.60Q25.29 34.19 25.22 34.80L25.30 34.88L25.19 34.77Q25.18 36.67 24.15 37.96L24.08 37.89L24.18 37.99Q23.02 39.42 21.16 39.23L21.08 39.15L21.10 39.18Q19.89 39.26 18.94 38.84L18.95 38.85L18.98 38.88Q18.62 38.07 18.62 36.85L18.58 36.80L18.67 36.89Q18.60 36.52 18.60 36.22L18.61 36.23L18.57 36.19Q18.47 34.34 19.80 33.17L19.84 33.21L19.91 33.29Q21.28 32.16 23.03 32.24Z"/><path fill="#444" d="M93.75 26.90L93.59 26.74L93.70 26.85Q95.42 26.93 97.24 26.93L97.33 27.02L97.27 26.95Q99.09 26.98 100.92 26.83L100.99 26.90L101.01 26.92Q100.79 27.47 100.79 28.19L100.88 28.28L100.77 29.50L100.71 29.45Q98.48 29.57 93.72 29.68L93.65 29.62L93.67 29.64Q93.78 35.68 92.63 40.67L92.54 40.58L92.56 40.59Q90.25 41.17 88.76 41.97L88.87 42.09L88.76 41.97Q91.25 35.32 90.98 28.21L90.89 28.12L90.91 28.13Q90.59 20.92 87.93 14.26L88.04 14.37L88.05 14.39Q91.66 16.85 96.42 17.08L96.34 17.00L96.46 17.12Q101.11 17.28 105.26 15.53L105.26 15.53L105.21 15.48Q104.91 16.28 104.68 17.08L104.66 17.06L104.24 18.74L104.14 18.63Q101.58 19.88 98.61 20.03L98.53 19.96L98.51 19.93Q95.56 20.06 92.70 19.34L92.72 19.36L92.85 19.49Q93.49 22.84 93.68 26.83ZM105.83 14.76L105.82 14.75L105.86 14.80Q101.24 16.91 96.37 16.61L96.40 16.64L96.44 16.68Q90.98 16.25 87.25 13.39L87.42 13.56L87.30 13.45Q90.16 20.37 90.46 27.99L90.47 28.00L90.58 28.11Q90.89 36.03 88.38 42.81L88.27 42.70L88.29 42.72Q88.96 42.33 90.33 41.68L90.40 41.75L90.33 41.68Q90.20 42.50 89.63 44.02L89.70 44.09L89.67 44.06Q91.91 42.91 94.80 42.42L94.87 42.49L94.76 42.37Q95.48 37.61 95.67 31.90L95.53 31.76L95.56 31.79Q97.43 31.83 99.25 31.83L99.26 31.84L99.32 31.90Q101.09 31.88 102.92 32.07L102.77 31.92L102.79 31.94Q102.68 31.00 102.68 30.08L102.68 30.07L102.82 28.32L102.70 28.20Q102.07 28.44 101.23 28.44L101.16 28.37L101.24 28.45Q101.22 27.55 101.29 26.52L101.24 26.47L101.29 26.52Q99.82 26.61 98.41 26.61L98.39 26.59L98.39 26.59Q96.93 26.54 95.56 26.50L95.73 26.67L95.63 24.44L95.53 24.34Q95.48 23.23 95.37 22.16L95.44 22.23L95.42 22.21Q96.45 22.32 97.44 22.32L97.47 22.35L97.37 22.25Q102.07 22.20 105.69 20.29L105.81 20.42L105.76 20.37Q106.29 18.58 107.20 15.95L107.16 15.91L107.26 16.01Q105.83 16.71 105.04 17.05L105.13 17.15L105.06 17.08Q105.46 16.45 105.95 14.89Z"/></svg>