<svg xmlns="http://www.w3.org/2000/svg" width="150" height="50" viewBox="0,0,150,50"><path fill="#222" d="M117.70 40.31L117.82 40.42L117.82 40.43Q113.62 40.53 112.63 38.21L112.64 38.21L112.79 38.36Q113.52 37.38 115.08 35.59L115.06 35.57L114.95 35.46Q115.47 37.50 118.48 37.62L118.45 37.59L118.51 37.65Q122.01 37.84 123.65 36.51L123.55 36.41L123.58 36.44Q125.01 34.86 124.94 32.16L124.82 32.04L124.96 32.19Q124.73 27.04 119.93 27.27L119.96 27.30L119.86 27.20Q117.14 27.45 115.39 28.70L115.45 28.76L115.06 28.53L114.85 28.40L114.94 28.48Q115.13 25.17 115.02 22.43L115.04 22.46L115.01 22.43Q114.94 19.84 114.59 16.53L114.68 16.61L114.58 16.51Q118.27 17.50 122.08 17.39L122.16 17.47L122.03 17.34Q125.90 17.32 129.48 16.07L129.55 16.14L128.89 17.57L128.86 17.54Q128.65 18.40 128.46 19.24L128.46 19.24L128.41 19.19Q125.25 20.18 121.37 20.18L121.48 20.29L121.49 20.30Q119.95 20.21 118.47 20.06L118.54 20.13L118.50 20.09Q118.43 20.78 118.09 25.24L118.06 25.21L118.00 25.15Q118.78 24.64 120.84 24.48L120.99 24.63L120.96 24.60Q124.73 24.87 126.18 26.55L126.06 26.43L126.10 26.47Q127.52 28.04 127.78 31.89L127.75 31.85L127.81 31.91Q127.95 35.97 126.73 37.99L126.84 38.10L126.76 38.02Q124.87 40.05 121.56 40.28L121.53 40.25L121.45 40.17Q120.52 40.30 117.85 40.46ZM123.82 42.66L123.86 42.69L123.79 42.63Q127.26 42.75 129.17 41.65L129.12 41.59L129.19 41.67Q130.13 40.10 130.13 38.00L130.06 37.93L130.22 38.09Q130.06 34.85 129.11 30.74L129.16 30.79L129.11 30.74Q128.90 29.16 127.68 27.75L127.61 27.68L127.70 27.80L127.44 27.47L127.14 27.32L127.07 27.25Q126.83 26.59 126.18 25.91L126.02 25.74L126.13 25.89L126.05 25.82Q124.65 24.26 120.96 24.26L120.96 24.26L120.64 24.21L120.67 24.24Q120.80 23.73 120.99 22.62L120.86 22.49L120.80 22.43Q125.87 22.63 129.91 20.99L129.84 20.93L130.01 21.09Q130.28 19.53 131.23 16.71L131.25 16.73L129.10 17.63L129.11 17.64Q129.54 16.55 130.03 15.40L129.99 15.36L129.98 15.35Q126.31 16.97 122.20 17.05L122.13 16.98L122.02 16.87Q117.96 17.03 114.00 15.93L114.13 16.06L114.11 16.04Q114.70 20.36 114.70 24.78L114.74 24.82L114.74 24.82Q114.75 26.73 114.63 28.64L114.71 28.71L114.65 28.65Q114.83 28.75 115.40 29.06L115.38 29.04L115.44 29.10Q115.78 28.86 116.42 28.52L116.41 28.51L116.43 28.53Q116.37 29.27 116.14 30.79L116.16 30.81L116.09 30.74Q116.56 30.98 116.98 31.21L116.91 31.14L117.07 31.30Q119.81 29.51 121.67 29.51L121.63 29.47L121.61 29.44Q122.99 29.49 124.17 30.14L124.22 30.19L124.09 30.05Q124.61 31.26 124.64 32.21L124.63 32.20L124.55 32.12Q124.56 34.64 123.53 35.74L123.69 35.90L123.70 35.91Q122.32 37.12 120.08 37.35L120.07 37.34L120.01 37.29Q119.04 37.34 118.35 37.26L118.30 37.21L118.38 37.30Q117.50 37.14 116.74 36.79L116.70 36.76L116.77 36.63L116.59 36.68L116.67 36.77Q115.89 36.29 115.36 34.95L115.20 34.80L115.17 34.77Q113.96 36.30 112.28 38.43L112.30 38.44L112.21 38.36Q112.57 39.06 113.41 40.01L113.44 40.04L113.31 39.92Q114.39 41.76 117.21 42.25L117.24 42.28L117.20 42.24Q118.51 42.60 123.88 42.71Z"/><path fill="#111" d="M95.03 29.81L95.06 29.84L95.17 29.96Q94.87 29.89 94.57 29.89L94.52 29.84L94.46 29.78Q93.13 29.78 91.68 30.62L91.81 30.75L91.82 30.75Q90.41 31.78 90.41 33.68L90.38 33.65L90.41 33.68Q90.37 37.07 91.89 38.40L91.99 38.50L92.01 38.52Q92.87 39.61 95.16 39.61L95.18 39.64L95.22 39.68Q95.47 39.69 95.77 39.69L95.76 39.68L95.76 39.69Q97.41 39.61 98.55 37.98L98.65 38.08L98.69 38.12Q99.57 36.45 99.50 34.66L99.59 34.75L99.58 34.74Q99.68 34.31 99.68 33.89L99.58 33.79L99.63 33.84Q99.70 32.13 98.33 30.97L98.26 30.89L98.19 30.83Q96.92 29.76 95.13 29.92ZM99.49 39.95L99.59 40.05L99.56 40.02Q98.50 41.89 94.77 42.00L94.95 42.18L94.95 42.19Q91.35 42.08 89.75 40.48L89.76 40.49L89.87 40.61Q88.31 38.74 87.51 33.95L87.60 34.04L87.52 33.95Q87.25 32.23 87.25 30.98L87.32 31.05L87.19 30.92Q87.26 29.20 87.98 28.13L88.01 28.16L88.01 28.17Q89.32 26.73 92.29 26.73L92.44 26.88L92.32 26.76Q98.63 26.75 100.53 29.34L100.58 29.39L100.58 29.38Q100.83 28.65 101.25 27.05L101.22 27.02L101.18 26.98Q102.47 26.71 104.91 25.91L104.79 25.79L104.80 25.80Q102.48 31.56 102.26 37.88L102.15 37.77L102.18 37.80Q101.95 43.97 104.09 49.80L104.12 49.83L104.03 49.74Q102.35 49.16 100.56 48.90L100.59 48.92L100.67 49.01Q99.62 44.91 99.51 39.97ZM100.35 49.26L100.41 49.32L100.41 49.32Q101.08 49.41 102.48 49.72L102.55 49.79L102.43 49.66Q102.71 50.44 103.28 51.85L103.23 51.79L103.22 51.79Q105.79 52.49 108.07 53.79L108.06 53.77L108.17 53.88Q104.05 47.21 104.05 38.68L104.12 38.75L104.02 38.65Q104.13 32.41 106.61 26.62L106.52 26.54L106.49 26.50Q105.88 26.89 104.51 27.53L104.53 27.55L104.63 27.65Q104.89 26.81 105.54 25.25L105.58 25.29L105.44 25.15Q103.89 25.70 100.70 26.57L100.75 26.63L100.72 26.60Q100.66 27.22 100.35 28.40L100.41 28.46L100.32 28.36Q98.32 26.48 92.19 26.33L92.26 26.40L92.23 26.37Q88.93 26.19 87.56 27.68L87.60 27.71L87.55 27.67Q86.87 28.88 86.90 30.79L86.81 30.70L86.96 30.84Q86.99 33.76 87.98 37.53L87.97 37.52L88.09 37.65Q88.65 39.96 89.57 40.91L89.64 40.98L89.86 41.21L90.04 41.38Q91.14 44.09 96.59 44.31L96.50 44.23L96.65 44.38Q97.56 44.29 99.38 43.99L99.44 44.05L99.42 44.03Q99.72 46.95 100.33 49.24ZM96.93 32.13L97.01 32.22L97.04 32.24Q97.97 32.11 98.81 32.41L98.83 32.43L98.86 32.47Q99.18 33.13 99.29 33.73L99.15 33.60L99.11 33.55Q99.26 34.16 99.18 34.77L99.23 34.81L99.17 34.75Q99.16 36.65 98.13 37.94L98.11 37.92L98.20 38.01Q97.00 39.40 95.14 39.21L95.21 39.28L95.19 39.26Q93.85 39.22 92.90 38.80L92.87 38.77L92.98 38.88Q92.51 37.95 92.51 36.73L92.58 36.81L92.55 36.77Q92.54 36.46 92.54 36.16L92.53 36.15L92.55 36.16Q92.46 34.33 93.80 33.17L93.85 33.22L93.94 33.31Q95.10 31.98 96.85 32.06Z"/><path fill="#444" d="M72.10 30.53L71.95 30.37L71.95 30.37Q68.42 36.66 64.99 40.62L65.18 40.81L65.19 40.82Q63.19 41.11 60.75 41.98L60.75 41.97L60.88 42.11Q65.65 36.37 70.41 27.96L70.47 28.02L70.39 27.94Q65.93 21.12 59.96 14.73L59.85 14.61L59.93 14.70Q62.90 15.95 65.18 16.45L65.09 16.36L65.02 16.29Q69.64 21.48 72.08 25.44L72.19 25.55L72.23 25.59Q74.59 21.02 78.51 16.61L78.66 16.75L78.67 16.76Q80.30 16.50 83.50 15.73L83.48 15.71L83.36 15.59Q77.31 22.07 73.85 28.01L73.84 28.00L73.75 27.91Q79.08 36.74 83.46 41.31L83.48 41.33L83.45 41.30Q80.91 40.55 78.81 40.32L78.82 40.33L78.66 40.17Q75.87 37.19 71.95 30.37ZM78.65 40.57L78.72 40.65L78.58 40.50Q78.92 40.58 79.37 40.69L79.42 40.74L79.32 40.64Q80.25 41.53 81.78 43.13L81.76 43.12L81.80 43.15Q85.10 43.91 88.15 45.28L88.18 45.31L88.14 45.27Q81.01 38.67 75.91 29.91L75.93 29.94L75.93 29.94Q79.61 23.23 85.52 16.38L85.50 16.36L85.50 16.36Q84.14 17.10 81.97 17.63L81.91 17.57L81.86 17.52Q82.76 16.63 84.51 14.84L84.52 14.85L84.58 14.90Q82.22 15.82 78.53 16.39L78.46 16.32L78.55 16.41Q75.06 20.16 72.47 24.46L72.48 24.47L72.47 24.46Q71.48 22.79 70.30 21.30L70.28 21.28L68.10 18.45L67.77 18.51L67.61 18.34Q67.60 18.49 67.37 18.41L67.30 18.34L67.27 18.31Q66.63 17.52 65.14 15.95L65.21 16.02L65.16 15.97Q61.40 15.14 58.81 13.77L58.76 13.72L58.67 13.63Q65.46 20.95 70.03 27.99L69.96 27.93L69.99 27.96Q65.59 36.24 59.84 42.82L59.79 42.77L59.89 42.87Q61.16 42.16 63.29 41.59L63.25 41.54L61.98 43.02L61.96 43.00Q61.94 42.98 60.61 44.31L60.60 44.30L60.63 44.33Q63.58 43.21 66.74 42.71L66.76 42.74L66.79 42.76Q70.86 38.31 73.45 33.55L73.43 33.53L73.44 33.54Q75.85 37.62 78.55 40.48Z"/><path fill="#333" d="M45.76 27.69L45.67 27.60L45.62 27.55Q43.54 27.71 42.26 29.22L42.28 29.24L42.28 29.23Q41.03 30.76 40.91 33.05L40.86 32.99L40.83 32.97Q40.62 35.53 41.46 36.48L41.56 36.59L41.54 36.57Q42.59 37.77 44.92 37.62L45.04 37.74L44.96 37.67Q49.51 37.26 49.89 34.25L49.93 34.30L49.87 34.24Q50.15 33.61 50.15 32.81L50.13 32.79L50.13 32.78Q50.09 30.77 48.95 29.24L48.90 29.19L48.87 29.16Q47.67 27.62 45.73 27.66ZM50.56 37.74L50.53 37.72L50.51 37.70Q49.11 39.91 44.73 40.14L44.73 40.14L44.71 40.12Q40.46 40.21 38.83 39.10L38.86 39.14L38.80 39.08Q37.96 38.27 37.80 36.56L37.86 36.62L37.70 36.45Q37.80 35.48 37.99 33.62L37.93 33.56L38.02 33.65Q38.46 29.30 39.68 27.47L39.66 27.46L39.67 27.46Q41.36 25.04 45.20 25.08L45.11 24.98L45.09 24.96Q47.56 24.96 49.84 27.28L49.82 27.26L49.93 27.37Q49.99 21.49 51.59 14.98L51.59 14.98L51.73 15.12Q53.61 14.68 55.48 13.84L55.36 13.73L55.33 13.70Q52.83 20.41 52.56 27.41L52.44 27.29L52.49 27.34Q52.20 34.51 54.33 41.09L54.35 41.12L54.38 41.15Q52.80 40.59 51.09 40.21L51.04 40.17L51.13 40.25Q50.77 38.91 50.62 37.80ZM53.58 43.20L53.54 43.16L53.57 43.19Q55.69 43.78 58.24 45.31L58.12 45.19L58.21 45.28Q54.44 38.16 54.29 29.86L54.32 29.89L54.37 29.94Q54.21 21.71 57.30 14.33L57.40 14.43L57.23 14.27Q56.64 14.81 55.19 15.46L55.25 15.51L55.14 15.41Q55.60 14.38 56.21 13.16L56.18 13.14L56.14 13.09Q53.74 14.16 51.31 14.74L51.24 14.67L51.29 14.72Q49.82 20.48 49.56 26.58L49.56 26.58L49.66 26.68Q47.72 24.82 45.21 24.70L45.16 24.66L45.05 24.54Q41.61 24.41 39.70 26.50L39.79 26.59L39.85 26.65Q38.09 28.97 37.68 33.65L37.76 33.73L37.68 33.66Q37.49 36.48 37.49 36.90L37.34 36.74L37.39 36.80Q37.50 38.58 38.64 39.65L38.63 39.63L38.54 39.55Q38.82 39.82 39.01 39.90L39.06 39.95L39.57 40.65L39.53 40.61Q40.57 42.03 43.54 42.30L43.51 42.26L43.49 42.25Q45.64 42.34 47.01 42.42L46.99 42.40L47.03 42.43Q51.15 42.56 52.87 41.23L52.88 41.24L52.86 41.22Q53.15 42.09 53.61 43.23ZM47.39 30.00L47.36 29.97L47.21 29.83Q48.44 30.03 49.28 30.52L49.18 30.42L49.13 30.37Q49.71 31.76 49.79 32.78L49.71 32.70L49.64 32.63Q50.13 37.04 45.10 37.39L44.95 37.24L45.09 37.38Q44.22 37.41 43.11 37.15L43.12 37.15L43.03 37.07Q42.79 36.44 42.71 35.91L42.77 35.97L42.79 35.99Q42.78 35.36 42.81 34.76L42.64 34.58L42.78 34.72Q42.98 31.19 45.60 30.20L45.72 30.31L45.72 30.31Q46.58 29.84 47.26 29.88Z"/><path fill="#111" d="M30.40 40.40L30.29 40.29L30.41 40.41Q27.34 36.43 24.71 27.79L24.78 27.86L24.85 27.93Q24.19 25.78 23.39 23.65L23.37 23.63L20.45 32.36L20.52 32.43Q18.61 37.25 16.21 40.49L16.19 40.47L16.28 40.56Q15.38 40.57 13.74 40.72L13.73 40.71L13.76 40.74Q13.82 39.51 13.82 38.25L13.82 38.25L13.82 38.25Q13.93 32.34 11.19 26.21L11.18 26.21L11.12 26.14Q8.01 19.27 2.15 14.28L2.12 14.25L2.20 14.33Q4.31 15.00 6.67 15.53L6.55 15.41L6.63 15.49Q15.27 23.90 16.56 34.87L16.53 34.84L16.58 34.88Q18.13 31.49 19.58 26.12L19.74 26.28L19.71 26.25Q21.56 18.62 22.06 17.21L22.12 17.28L24.34 17.24L24.44 17.35Q25.05 19.30 25.70 21.62L25.86 21.78L27.04 26.16L27.01 26.12Q28.51 31.51 29.92 34.75L30.02 34.85L29.96 34.78Q31.60 23.14 39.52 15.79L39.62 15.89L39.57 15.84Q41.15 15.56 44.12 14.92L43.98 14.77L44.13 14.92Q38.80 19.22 35.75 25.35L35.60 25.20L35.77 25.37Q32.52 31.45 32.52 38.22L32.68 38.38L32.53 38.23Q32.51 39.31 32.58 40.45L32.66 40.53L31.47 40.37L31.46 40.36Q31.01 40.44 30.44 40.44ZM36.58 43.24L36.64 43.29L36.59 43.25Q35.29 39.62 35.40 35.73L35.40 35.73L35.52 35.85Q35.73 24.18 45.09 15.92L45.20 16.03L45.11 15.94Q44.20 16.21 42.26 16.74L42.30 16.79L42.34 16.83Q43.20 15.89 45.10 14.10L45.05 14.06L45.15 14.15Q42.44 14.86 39.50 15.36L39.47 15.33L39.47 15.32Q31.96 22.43 30.05 31.91L30.07 31.93L30.11 31.97Q29.57 30.36 26.72 18.91L26.63 18.82L26.78 18.96Q26.33 19.01 25.38 19.01L25.43 19.07L25.03 17.90L24.97 17.84Q25.03 17.48 24.80 16.99L24.61 16.80L21.76 16.84L21.77 16.85Q20.92 19.28 19.65 24.40L19.77 24.52L19.63 24.38Q18.52 29.67 17.53 32.14L17.51 32.12L17.52 32.13Q15.87 24.16 10.31 17.84L10.22 17.75L10.32 17.85Q9.78 17.73 8.83 17.53L8.95 17.66L8.92 17.63Q8.19 16.78 6.63 15.15L6.53 15.05L6.54 15.06Q3.17 14.27 1.00 13.47L1.07 13.55L0.95 13.43Q6.63 18.12 9.91 24.33L9.99 24.41L10.03 24.45Q13.46 31.04 13.46 38.04L13.44 38.02L13.35 37.93Q13.50 39.64 13.31 41.24L13.20 41.14L13.15 41.09Q13.47 41.18 13.93 41.08L13.85 41.01L13.94 41.09Q14.35 40.95 14.58 40.95L14.68 41.05L14.71 42.11L14.66 42.06Q14.56 42.41 14.63 42.95L14.68 43.00L14.67 42.98Q15.91 43.01 18.20 42.85L18.13 42.79L18.06 42.72Q21.71 37.34 24.45 27.94L24.49 27.99L24.51 28.01Q27.16 36.66 30.13 40.62L30.32 40.82L30.31 40.81Q30.63 40.67 31.46 40.78L31.59 40.91L31.59 40.91Q32.43 41.94 33.50 43.00L33.50 43.01L33.42 42.93Q34.32 43.11 36.72 43.37Z"/></svg>