<svg xmlns="http://www.w3.org/2000/svg" width="150" height="50" viewBox="0,0,150,50"><path fill="#111" d="M102.39 28.70L102.28 28.59L96.41 28.70L96.56 28.86Q93.50 28.76 90.57 28.68L90.57 28.69L90.62 28.73Q90.76 35.46 88.71 40.98L88.70 40.97L88.73 41.00Q86.85 41.45 85.10 42.13L85.17 42.20L85.18 42.21Q87.90 36.45 87.90 29.79L87.85 29.73L87.79 29.68Q87.82 21.22 83.71 14.17L83.77 14.24L83.78 14.24Q85.22 14.97 87.70 15.76L87.71 15.77L87.67 15.73Q89.89 20.89 90.43 25.76L90.51 25.85L90.50 25.84Q93.67 26.23 96.53 26.19L96.48 26.14L96.50 26.17Q99.06 26.06 102.37 25.79L102.41 25.84L102.41 25.83Q102.98 21.53 104.73 16.42L104.69 16.38L104.71 16.40Q106.55 15.88 108.79 15.04L108.79 15.04L108.93 15.18Q105.20 21.80 105.20 29.76L105.21 29.77L105.33 29.89Q105.27 36.03 107.63 41.36L107.54 41.28L107.62 41.36Q106.05 40.78 104.00 40.48L103.98 40.46L103.98 40.46Q102.31 35.44 102.43 28.74ZM103.63 40.72L103.72 40.81L103.77 40.86Q104.66 40.88 105.77 41.14L105.82 41.20L105.88 41.25Q106.17 41.92 106.81 43.41L106.79 43.38L106.84 43.43Q110.15 44.35 111.94 45.26L111.90 45.22L111.96 45.28Q107.49 39.10 107.19 30.84L107.10 30.75L107.22 30.87Q106.83 22.76 110.49 15.94L110.60 16.05L109.41 16.39L109.38 16.35Q108.96 16.66 108.36 16.82L108.26 16.72L108.33 16.79Q108.79 16.03 109.63 14.47L109.55 14.39L109.71 14.55Q106.91 15.44 104.28 15.94L104.34 16.00L104.37 16.03Q102.70 20.87 102.24 25.55L102.13 25.43L102.10 25.41Q99.79 25.80 97.35 25.80L97.32 25.77L97.25 25.70Q94.94 25.79 92.43 25.64L92.34 25.54L92.40 25.60Q92.11 22.27 91.01 18.20L90.99 18.18L91.09 18.28Q90.31 18.07 88.86 17.69L89.00 17.82L88.84 17.66Q88.54 16.53 88.09 15.51L88.12 15.54L87.97 15.39Q85.31 14.70 83.02 13.45L83.00 13.42L83.10 13.53Q87.57 20.86 87.57 29.65L87.61 29.69L87.70 29.78Q87.57 36.61 84.45 42.74L84.56 42.85L84.42 42.71Q85.27 42.57 86.60 42.00L86.55 41.95L86.46 41.86Q86.13 42.70 85.33 44.23L85.43 44.33L85.33 44.23Q88.31 43.40 90.55 42.98L90.51 42.94L90.41 42.84Q92.28 37.29 92.47 31.12L92.55 31.20L92.54 31.19Q94.21 31.18 97.41 31.14L97.36 31.10L97.24 30.97Q100.25 31.09 102.15 31.17L102.08 31.10L102.15 31.17Q102.34 36.84 103.67 40.76Z"/><path fill="#333" d="M53.04 28.69L53.03 28.68L47.11 28.74L47.24 28.86Q44.15 28.75 41.22 28.67L41.23 28.68L41.25 28.70Q41.34 35.38 39.29 40.90L39.38 40.99L39.36 40.98Q37.43 41.36 35.68 42.05L35.82 42.19L35.78 42.15Q38.52 36.40 38.52 29.74L38.53 29.75L38.63 29.85Q38.53 21.26 34.42 14.22L34.47 14.26L34.46 14.25Q35.86 14.93 38.33 15.73L38.41 15.81L38.33 15.73Q40.53 20.86 41.07 25.74L41.03 25.70L41.11 25.78Q44.21 26.10 47.06 26.06L47.17 26.17L47.16 26.16Q49.73 26.06 53.04 25.80L53.18 25.93L53.20 25.95Q53.66 21.54 55.41 16.44L55.24 16.27L55.42 16.45Q57.30 15.97 59.55 15.13L59.44 15.03L59.58 15.16Q55.82 21.76 55.82 29.72L55.88 29.78L55.81 29.71Q55.99 36.09 58.35 41.42L58.21 41.28L58.28 41.35Q56.74 40.80 54.68 40.49L54.56 40.37L54.55 40.36Q52.93 35.40 53.05 28.70ZM54.33 40.75L54.38 40.80L54.39 40.82Q55.31 40.85 56.41 41.12L56.56 41.27L56.43 41.13Q56.79 41.88 57.44 43.37L57.37 43.29L57.42 43.35Q60.72 44.25 62.51 45.16L62.64 45.30L62.55 45.20Q58.19 39.13 57.88 30.87L57.84 30.82L57.88 30.86Q57.48 22.73 61.13 15.92L61.22 16.01L60.10 16.41L60.04 16.35Q59.57 16.60 58.96 16.75L59.10 16.89L59.05 16.84Q59.35 15.92 60.19 14.36L60.36 14.53L60.35 14.53Q57.58 15.44 54.95 15.94L55.00 15.99L54.89 15.88Q53.31 20.81 52.85 25.49L52.85 25.49L52.91 25.55Q50.29 25.63 47.85 25.63L47.92 25.70L47.97 25.75Q45.50 25.68 42.99 25.53L43.04 25.57L42.94 25.47Q42.86 22.36 41.76 18.28L41.79 18.31L41.65 18.17Q41.06 18.15 39.61 17.77L39.52 17.68L39.61 17.77Q39.19 16.51 38.73 15.48L38.82 15.57L38.76 15.51Q36.07 14.80 33.79 13.55L33.69 13.45L33.72 13.48Q38.27 20.89 38.27 29.68L38.37 29.77L38.35 29.76Q38.20 36.58 35.08 42.71L35.25 42.87L35.24 42.87Q35.89 42.53 37.22 41.95L37.29 42.02L37.20 41.93Q36.78 42.70 35.98 44.22L36.00 44.23L36.07 44.30Q38.91 43.34 41.16 42.92L41.23 42.99L41.17 42.93Q43.01 37.35 43.20 31.18L43.14 31.12L43.24 31.23Q44.82 31.12 48.01 31.08L47.91 30.98L47.97 31.04Q50.89 31.07 52.79 31.14L52.81 31.16L52.73 31.08Q53.00 36.83 54.33 40.76Z"/><path fill="#333" d="M73.99 39.82L74.09 39.92L73.99 39.82Q72.06 39.79 70.04 39.98L70.01 39.95L70.10 40.04Q70.77 34.80 70.77 29.97L70.63 29.83L70.62 29.82Q70.73 25.02 70.08 19.81L70.18 19.90L70.17 19.90Q65.53 19.45 62.34 17.77L62.29 17.72L61.62 16.03L61.60 16.01Q61.45 15.55 60.84 14.33L60.84 14.33L60.72 14.22Q65.86 16.95 71.87 17.14L71.92 17.20L71.88 17.15Q77.63 17.19 83.07 15.13L83.13 15.20L83.13 15.19Q82.46 16.65 81.81 18.48L81.86 18.52L81.78 18.44Q78.15 19.73 73.89 19.92L73.86 19.89L73.89 19.92Q73.66 24.91 73.66 29.86L73.77 29.97L73.73 29.93Q73.67 34.82 73.98 39.80ZM83.89 14.58L83.75 14.44L83.78 14.47Q77.94 16.74 71.73 16.55L71.82 16.63L71.89 16.71Q65.05 16.34 59.95 13.37L60.03 13.45L60.07 13.49Q60.77 14.72 62.07 18.00L62.17 18.10L62.18 18.11Q62.71 18.30 63.97 18.87L63.91 18.81L64.08 18.98Q64.36 19.72 64.70 21.24L64.52 21.06L64.62 21.16Q66.92 22.01 69.97 22.24L69.98 22.25L69.95 22.23Q70.24 25.82 70.24 29.59L70.34 29.70L70.25 29.61Q70.40 35.12 69.60 40.49L69.54 40.43L69.43 40.32Q71.15 40.25 71.68 40.25L71.83 40.40L71.73 40.30Q71.76 40.63 71.70 41.30L71.70 41.30L71.70 41.29Q71.65 41.97 71.65 42.31L71.54 42.20L71.53 42.19Q72.83 42.23 74.35 42.31L74.26 42.22L74.32 42.28Q75.22 42.31 77.05 42.46L77.12 42.53L77.16 42.57Q75.85 37.56 75.73 32.39L75.79 32.44L75.80 32.45Q75.62 27.10 76.16 22.19L76.07 22.10L76.18 22.21Q80.06 21.60 83.22 20.38L83.16 20.32L83.23 20.39Q83.88 17.96 84.91 15.90L84.91 15.90L84.89 15.88Q83.54 16.55 82.74 16.86L82.73 16.84L82.82 16.94Q83.32 15.73 83.90 14.59Z"/><path fill="#333" d="M21.47 29.70L21.57 29.80L21.57 29.80Q17.30 29.53 16.73 32.57L16.67 32.52L16.78 32.62Q16.46 33.57 16.66 34.44L16.74 34.52L16.81 34.60Q16.72 35.27 17.17 36.68L17.26 36.76L17.10 36.60Q18.34 39.93 21.65 39.78L21.67 39.80L21.64 39.77Q23.53 39.72 24.86 38.15L25.02 38.31L25.01 38.31Q26.16 36.75 26.16 34.70L26.25 34.79L26.19 34.73Q26.26 34.07 26.11 33.01L26.07 32.97L26.14 33.05Q26.19 32.25 25.77 31.56L25.60 31.39L25.76 31.55Q24.15 29.91 21.56 29.79ZM26.40 48.26L26.40 48.27L26.38 48.24Q24.54 48.80 16.47 49.18L16.37 49.08L16.44 49.15Q14.67 49.13 13.03 48.29L13.21 48.47L13.18 48.44Q13.99 47.46 15.81 45.67L15.77 45.62L15.82 45.68Q18.27 46.75 20.36 46.56L20.31 46.51L20.24 46.44Q23.08 46.12 23.91 45.85L24.10 46.04L24.03 45.97Q26.19 45.20 26.19 43.41L26.27 43.48L26.32 43.54Q26.28 43.27 26.20 43.04L26.12 42.95L26.16 41.51L26.03 41.38Q26.06 40.65 26.06 39.85L25.99 39.78L25.96 39.76Q24.73 42.13 21.34 42.13L21.33 42.13L21.24 42.03Q17.46 42.13 15.82 39.93L15.73 39.84L15.83 39.94Q14.66 38.35 13.86 33.93L13.94 34.01L13.82 33.89Q13.53 32.38 13.53 30.97L13.54 30.99L13.54 30.99Q13.51 29.16 14.42 28.17L14.58 28.33L14.47 28.22Q16.15 26.82 20.79 26.82L20.71 26.74L22.60 27.06L22.63 27.09Q25.71 27.32 27.04 29.26L27.08 29.30L27.10 29.32Q27.22 28.41 27.64 26.77L27.63 26.76L27.68 26.82Q29.45 26.37 31.20 25.65L31.22 25.67L31.34 25.79Q28.67 31.87 28.67 39.11L28.65 39.10L28.61 39.05Q28.52 41.63 28.90 44.25L28.98 44.33L29.05 44.40Q29.22 45.07 29.15 45.75L29.04 45.65L29.18 45.79Q28.94 47.11 27.72 47.87L27.65 47.80L27.64 47.79Q27.13 48.04 26.29 48.16ZM29.41 51.23L29.36 51.18L29.32 51.14Q30.85 51.26 31.61 50.31L31.52 50.23L31.65 50.35Q32.01 49.42 31.90 48.70L31.79 48.59L31.84 48.64Q31.68 47.94 31.49 47.18L31.48 47.17L31.58 47.27Q30.38 42.08 30.72 36.82L30.66 36.76L30.68 36.78Q30.93 31.24 33.06 26.41L33.03 26.38L31.06 27.45L31.08 27.47Q31.25 26.81 31.48 26.24L31.49 26.25L31.87 24.98L32.01 25.13Q29.55 25.98 27.34 26.40L27.46 26.52L27.39 26.45Q27.07 27.31 26.92 28.34L26.91 28.33L26.91 28.33Q24.82 26.43 20.79 26.43L20.85 26.49L19.11 26.50L19.00 26.39Q15.73 26.36 14.06 27.77L14.19 27.91L14.14 27.86Q13.20 28.82 13.24 30.72L13.13 30.62L13.13 30.61Q13.36 33.28 14.39 37.54L14.28 37.44L14.35 37.51Q14.76 39.36 15.98 40.77L15.98 40.77L16.35 41.14L16.26 41.05L16.42 41.21Q17.43 43.40 20.02 43.94L20.05 43.96L20.00 43.92Q21.57 44.38 23.02 44.42L23.01 44.41L22.95 44.36Q24.76 44.45 25.83 44.07L25.75 44.00L25.73 43.98Q25.22 45.64 22.56 45.98L22.39 45.81L22.53 45.95Q21.49 46.14 20.81 46.14L20.71 46.04L20.28 45.98L20.40 46.10Q17.62 46.14 15.94 45.19L15.83 45.08L14.16 46.84L14.16 46.83Q13.22 47.57 12.39 48.52L12.56 48.70L12.38 48.52Q13.51 49.19 14.50 49.38L14.54 49.42L13.62 50.25L13.61 50.24Q16.23 51.22 21.86 51.22L21.91 51.27L22.05 51.18L22.05 51.18Q25.83 51.34 29.40 51.23ZM23.36 32.01L23.35 32.00L23.41 32.06Q24.67 31.95 25.59 32.37L25.54 32.32L25.67 32.46Q25.83 32.92 25.90 33.60L25.81 33.51L25.93 33.63Q25.95 33.91 25.91 34.83L25.89 34.81L25.84 34.76Q25.70 36.60 24.60 37.89L24.77 38.06L24.69 37.99Q23.59 39.48 21.69 39.44L21.62 39.37L21.53 39.28Q20.07 39.19 19.24 38.77L19.36 38.90L19.25 38.79Q18.99 37.76 18.95 36.74L18.97 36.76L18.89 36.68Q18.78 32.34 23.39 32.04Z"/><path fill="#222" d="M122.56 20.04L122.56 20.04L122.63 20.11Q118.29 20.07 114.60 19.08L114.54 19.03L114.67 19.15Q116.20 23.73 116.39 28.57L116.34 28.52L116.24 28.42Q116.46 33.24 115.24 37.85L115.31 37.92L115.36 37.96Q118.06 37.24 121.56 37.09L121.59 37.11L121.54 37.06Q125.63 37.04 127.42 34.60L127.24 34.43L127.35 34.53Q128.89 32.50 129.08 28.39L129.10 28.41L129.11 28.41Q129.18 26.65 128.72 24.94L128.65 24.88L128.60 24.82Q127.38 20.14 122.66 20.14ZM110.78 42.18L110.72 42.12L110.65 42.04Q113.60 36.43 113.60 29.73L113.65 29.78L113.69 29.82Q113.59 21.19 109.29 14.19L109.39 14.29L109.23 14.13Q114.53 16.84 122.79 17.03L122.86 17.10L122.75 16.99Q131.79 17.35 132.13 24.51L132.09 24.46L132.06 24.43Q132.07 27.03 132.03 28.48L132.12 28.57L132.13 28.58Q132.08 33.29 131.24 35.46L131.27 35.48L131.30 35.51Q130.85 36.59 130.09 37.43L129.99 37.33L130.12 37.46Q128.69 38.93 126.07 39.42L125.97 39.32L126.13 39.48Q124.39 39.61 121.38 39.83L121.41 39.87L121.44 39.90Q115.37 40.41 110.77 42.17ZM128.69 42.04L128.63 41.99L128.59 41.94Q131.41 41.68 133.05 40.20L132.96 40.11L133.12 40.26Q134.31 38.49 134.27 35.75L134.10 35.58L134.24 35.72Q134.23 34.34 134.08 30.84L134.15 30.91L133.77 26.34L133.63 26.20Q133.48 23.96 132.53 21.86L132.49 21.83L132.59 21.93Q132.07 20.99 131.39 20.34L131.45 20.40L131.28 20.08L131.34 20.14Q129.75 17.29 125.33 16.91L125.28 16.86L125.15 16.73Q122.46 16.59 115.45 15.86L115.58 15.99L115.61 16.02Q112.32 15.55 108.63 13.53L108.51 13.41L108.58 13.48Q113.47 20.93 113.47 29.68L113.36 29.57L113.46 29.67Q113.32 36.53 109.97 42.70L110.08 42.81L110.08 42.81Q110.71 42.49 112.04 41.99L112.04 41.99L112.01 41.96Q111.81 42.94 110.93 44.43L110.76 44.25L110.87 44.36Q113.93 43.32 117.28 42.82L117.22 42.75L117.21 42.74Q119.22 42.35 122.87 42.24L123.03 42.40L122.95 42.32Q126.90 42.27 128.72 42.08ZM128.65 28.34L128.73 28.42L128.67 28.35Q128.24 36.30 121.53 36.68L121.60 36.74L121.62 36.76Q119.75 36.95 117.69 37.21L117.53 37.05L117.58 37.10Q118.40 33.36 118.40 29.70L118.35 29.65L118.29 29.59Q118.33 25.94 117.61 22.09L117.60 22.08L117.64 22.12Q119.87 22.45 124.55 22.45L124.53 22.42L124.45 22.35Q125.90 22.28 127.54 23.23L127.50 23.19L127.62 23.31Q128.83 25.51 128.68 28.36Z"/></svg>