<svg xmlns="http://www.w3.org/2000/svg" width="150" height="50" viewBox="0,0,150,50"><path fill="#222" d="M98.97 39.90L98.91 39.84L96.97 39.84L97.06 39.93Q96.12 39.94 95.17 40.06L95.03 39.93L95.09 39.98Q95.67 33.79 95.67 29.79L95.68 29.79L95.73 29.85Q91.72 23.14 84.07 14.46L84.00 14.38L84.11 14.50Q85.88 15.47 89.23 16.27L89.19 16.23L89.11 16.15Q94.32 21.89 97.33 27.11L97.15 26.93L97.32 27.10Q100.31 21.52 104.69 16.50L104.54 16.35L104.54 16.35Q107.04 16.04 109.56 15.24L109.52 15.20L109.53 15.21Q103.56 21.38 98.69 29.80L98.53 29.64L98.55 29.66Q98.54 36.69 98.84 39.77ZM108.08 17.34L110.73 14.43L110.63 14.33Q107.66 15.63 104.54 16.08L104.48 16.02L104.50 16.04Q100.36 20.85 97.55 25.95L97.37 25.78L97.45 25.85Q95.34 22.22 92.14 18.34L92.15 18.35L92.18 18.38Q91.88 18.35 91.39 18.27L91.31 18.20L91.42 18.30Q90.74 17.51 89.21 15.83L89.14 15.76L89.20 15.82Q85.81 15.05 82.84 13.49L82.86 13.52L82.84 13.50Q90.49 21.91 95.25 29.83L95.33 29.90L95.23 29.80Q95.11 36.12 94.51 40.27L94.55 40.31L94.67 40.44Q95.33 40.33 96.77 40.22L96.84 40.28L96.72 41.19L96.86 41.33Q96.77 41.70 96.69 42.23L96.73 42.27L96.67 42.21Q100.16 42.16 101.91 42.35L102.07 42.51L101.96 42.40Q100.77 37.79 100.66 31.81L100.64 31.79L100.59 31.73Q105.02 23.34 111.57 15.99L111.54 15.96L108.05 17.31Z"/><path fill="#111" d="M38.31 39.03L38.34 39.06L38.18 38.89Q40.03 36.48 44.79 29.21L44.87 29.30L44.86 29.29Q48.97 23.15 51.82 19.88L51.78 19.84L51.73 19.78Q49.71 20.16 47.62 20.16L47.64 20.19L47.61 20.15Q42.35 20.15 38.36 18.36L38.37 18.38L38.42 18.43Q37.72 16.47 37.03 14.91L37.02 14.89L37.03 14.91Q41.47 16.94 47.14 17.06L47.11 17.02L47.26 17.18Q52.26 17.11 57.43 15.21L57.46 15.23L57.52 15.29Q57.23 16.22 56.92 17.02L56.78 16.88L56.16 18.43L56.18 18.45Q53.12 22.09 49.13 27.91L49.15 27.94L45.87 32.80L45.83 32.77Q44.26 35.30 42.43 37.59L42.28 37.44L42.44 37.60Q45.61 36.85 48.92 36.92L49.02 37.02L49.07 37.07Q52.43 37.19 55.59 38.11L55.57 38.09L56.09 39.71L55.93 39.55Q56.32 40.52 56.66 41.35L56.49 41.17L56.54 41.23Q51.85 39.63 46.71 39.82L46.82 39.92L46.78 39.88Q41.61 40.04 37.12 42.06L37.16 42.11L37.22 42.17Q37.48 40.98 38.21 38.92ZM36.61 42.84L36.46 42.70L36.46 42.69Q37.74 42.15 38.54 41.88L38.55 41.89L38.62 41.96Q38.37 42.74 37.68 44.26L37.71 44.29L37.51 44.09Q43.27 42.01 49.25 42.24L49.26 42.25L49.36 42.35Q55.59 42.49 60.61 45.26L60.71 45.37L60.57 45.22Q59.16 42.82 58.36 40.65L58.52 40.81L58.50 40.79Q57.85 40.41 56.33 39.84L56.49 40.00L56.42 39.93Q56.18 39.12 55.77 37.64L55.76 37.63L55.72 37.59Q51.74 36.58 46.64 36.77L46.59 36.72L46.47 36.61Q48.65 33.91 52.19 28.36L52.18 28.34L52.24 28.40Q55.92 22.72 57.82 20.17L57.69 20.03L57.84 20.18Q58.31 18.75 59.34 16.05L59.41 16.11L59.30 16.01Q58.61 16.34 57.16 16.95L57.25 17.04L57.16 16.95Q57.50 16.15 58.22 14.63L58.30 14.70L58.15 14.55Q52.84 16.71 47.13 16.63L47.30 16.80L47.11 16.60Q41.26 16.62 36.31 14.11L36.35 14.15L36.31 14.10Q37.37 16.39 38.10 18.64L38.19 18.73L38.22 18.76Q39.22 19.19 40.02 19.42L40.05 19.45L40.09 19.49Q40.37 20.19 40.64 21.63L40.67 21.67L40.64 21.64Q44.34 22.67 49.21 22.48L49.17 22.43L49.15 22.42Q46.83 25.69 43.52 30.68L43.51 30.67L37.93 38.95L37.97 39.00Q37.49 40.15 36.46 42.70Z"/><path fill="#222" d="M120.23 29.80L120.11 29.68L120.06 29.63Q116.04 29.60 115.47 32.65L115.41 32.59L115.46 32.64Q115.12 33.56 115.31 34.44L115.41 34.53L115.40 34.52Q115.40 35.28 115.86 36.69L115.80 36.64L115.79 36.62Q117.05 39.97 120.36 39.82L120.29 39.76L120.19 39.65Q122.31 39.83 123.64 38.27L123.67 38.30L123.69 38.32Q124.77 36.69 124.77 34.64L124.91 34.78L124.80 34.67Q125.08 34.23 124.93 33.16L124.89 33.12L124.85 33.09Q124.69 32.09 124.28 31.40L124.33 31.46L124.34 31.47Q122.77 29.86 120.18 29.75ZM125.05 48.24L124.99 48.19L125.11 48.31Q123.08 48.68 115.01 49.06L115.19 49.23L115.01 49.06Q113.35 49.15 111.71 48.31L111.78 48.37L111.76 48.35Q112.66 47.47 114.49 45.68L114.46 45.65L114.41 45.60Q116.82 46.64 118.92 46.45L118.99 46.53L118.86 46.39Q121.74 46.11 122.57 45.85L122.67 45.94L122.70 45.97Q125.01 45.35 125.01 43.56L124.90 43.45L124.91 43.46Q124.99 43.31 124.91 43.08L124.94 43.10L124.79 41.47L124.81 41.50Q124.64 40.56 124.64 39.76L124.68 39.81L124.63 39.76Q123.29 42.03 119.90 42.03L119.91 42.04L120.03 42.16Q116.14 42.16 114.51 39.95L114.53 39.97L114.42 39.86Q113.37 38.40 112.57 33.98L112.48 33.89L112.50 33.91Q112.23 32.41 112.23 31.01L112.32 31.09L112.21 30.99Q112.22 29.21 113.14 28.22L113.19 28.27L113.13 28.22Q114.74 26.74 119.39 26.74L119.50 26.86L121.19 26.99L121.21 27.01Q124.41 27.35 125.74 29.29L125.71 29.26L125.71 29.26Q125.92 28.45 126.34 26.81L126.32 26.79L126.41 26.88Q128.19 26.45 129.94 25.72L129.84 25.63L129.87 25.66Q127.28 31.82 127.28 39.06L127.27 39.04L127.21 38.99Q127.36 41.80 127.74 44.43L127.66 44.34L127.64 44.32Q127.79 44.97 127.71 45.66L127.84 45.78L127.81 45.75Q127.56 47.06 126.34 47.82L126.42 47.90L126.33 47.81Q125.85 48.09 125.01 48.20ZM128.04 51.20L128.00 51.15L127.97 51.13Q129.40 51.15 130.16 50.19L130.28 50.31L130.22 50.26Q130.60 49.35 130.49 48.62L130.53 48.66L130.37 48.51Q130.33 47.93 130.14 47.17L130.18 47.20L130.16 47.18Q128.99 42.02 129.33 36.77L129.27 36.71L129.23 36.67Q129.55 31.20 131.68 26.36L131.80 26.48L129.58 27.31L129.67 27.39Q129.98 26.87 130.21 26.30L130.05 26.14L130.57 25.02L130.56 25.01Q128.34 26.11 126.14 26.53L126.15 26.54L126.01 26.40Q125.84 27.41 125.68 28.44L125.63 28.38L125.62 28.37Q123.40 26.34 119.36 26.34L119.35 26.32L117.74 26.47L117.66 26.38Q114.50 26.46 112.82 27.87L112.83 27.88L112.83 27.88Q111.89 28.84 111.93 30.75L111.97 30.79L111.81 30.63Q111.94 33.19 112.97 37.46L113.07 37.56L112.93 37.42Q113.42 39.36 114.64 40.76L114.70 40.82L114.88 41.00L115.08 41.21L114.99 41.12Q116.18 43.49 118.77 44.02L118.70 43.96L118.70 43.95Q120.15 44.30 121.60 44.34L121.58 44.32L121.68 44.42Q123.26 44.28 124.32 43.90L124.50 44.08L124.32 43.90Q123.90 45.65 121.23 45.99L121.22 45.97L121.24 45.99Q120.11 46.09 119.43 46.09L119.33 45.98L118.98 46.02L119.03 46.07Q116.20 46.06 114.53 45.11L114.61 45.19L112.72 46.72L112.73 46.73Q112.03 47.71 111.20 48.67L111.21 48.69L111.13 48.60Q112.13 49.14 113.12 49.33L113.09 49.31L112.15 50.12L112.19 50.16Q115.03 51.36 120.67 51.36L120.54 51.23L120.86 51.32L120.74 51.21Q124.49 51.34 128.07 51.22ZM122.12 32.10L122.04 32.02L121.96 31.95Q123.39 32.01 124.31 32.43L124.29 32.41L124.21 32.33Q124.45 32.87 124.53 33.56L124.48 33.51L124.46 33.49Q124.54 33.83 124.50 34.75L124.47 34.72L124.44 34.69Q124.36 36.59 123.25 37.88L123.38 38.01L123.26 37.89Q122.16 39.37 120.25 39.34L120.34 39.42L120.28 39.37Q118.84 39.29 118.00 38.87L117.97 38.84L117.92 38.79Q117.59 37.70 117.55 36.67L117.47 36.59L117.56 36.68Q117.47 32.37 122.08 32.07Z"/><path fill="#222" d="M81.29 34.74L81.29 34.75L81.23 34.68Q81.19 38.22 78.03 39.52L78.16 39.64L78.05 39.54Q76.13 40.32 71.71 40.47L71.76 40.52L71.70 40.46Q66.96 40.63 64.71 39.45L64.77 39.50L64.68 39.41Q62.90 38.17 63.05 34.82L63.11 34.87L63.08 34.85Q63.09 34.21 63.28 32.23L63.18 32.13L63.23 32.18Q63.46 30.70 63.46 29.71L63.44 29.69L63.46 29.71Q63.41 21.66 59.22 14.23L59.21 14.22L59.15 14.17Q60.34 14.86 63.31 15.93L63.30 15.92L63.29 15.91Q66.21 22.68 66.21 30.06L66.29 30.14L66.19 30.04Q66.23 30.69 66.13 31.87L66.17 31.90L66.13 31.86Q66.07 33.08 66.07 33.69L65.98 33.60L66.09 33.71Q65.99 35.90 67.55 36.89L67.53 36.86L67.66 36.99Q69.16 37.65 72.13 37.65L72.16 37.68L72.28 37.80Q74.84 37.74 76.48 36.56L76.50 36.58L76.45 36.53Q78.31 35.19 78.15 32.67L78.09 32.61L78.09 32.61Q78.08 31.31 78.08 29.98L78.13 30.03L78.12 30.01Q78.04 22.89 80.44 16.38L80.39 16.34L82.62 15.82L82.63 15.83Q83.68 15.62 84.78 15.17L84.75 15.14L84.63 15.02Q81.00 22.23 81.00 29.81L81.06 29.87L81.04 29.85Q81.04 30.69 81.17 32.32L81.21 32.36L81.16 32.31Q81.20 33.86 81.20 34.66ZM83.40 35.60L83.35 35.55L83.42 35.62Q82.58 30.71 83.31 25.61L83.23 25.53L83.17 25.48Q83.99 20.35 86.39 15.97L86.36 15.94L86.48 16.07Q85.74 16.24 84.29 16.89L84.27 16.86L84.25 16.85Q84.62 16.00 85.42 14.44L85.39 14.40L85.40 14.42Q82.00 15.70 80.10 16.04L80.20 16.15L80.19 16.14Q77.78 22.59 77.78 29.86L77.76 29.84L77.84 29.92Q77.73 31.19 77.81 32.60L77.92 32.71L77.78 32.57Q78.06 35.10 76.27 36.31L76.12 36.16L76.12 36.16Q74.67 37.26 72.16 37.30L72.12 37.26L72.26 37.41Q69.41 37.37 67.96 36.60L67.92 36.56L67.93 36.58Q67.86 36.08 67.78 35.63L67.88 35.72L67.91 35.76Q67.80 35.19 67.92 34.70L67.98 34.76L67.92 34.70Q68.16 32.39 68.16 30.07L68.15 30.06L68.14 30.05Q68.04 24.12 66.51 18.22L66.67 18.38L66.67 18.37Q65.82 18.13 64.41 17.79L64.47 17.85L64.39 17.77Q64.04 16.51 63.58 15.59L63.50 15.50L63.54 15.55Q60.89 14.84 58.49 13.47L58.47 13.45L58.52 13.50Q63.09 21.04 63.09 29.76L63.17 29.84L63.04 29.71Q63.08 31.38 62.93 33.10L62.98 33.15L63.01 33.18Q62.73 35.52 62.80 36.70L62.69 36.59L62.70 36.60Q62.85 38.54 64.11 39.68L64.17 39.75L64.15 39.73Q65.21 42.27 69.86 42.65L69.92 42.72L69.90 42.70Q71.86 42.71 73.99 42.79L74.14 42.93L74.15 42.95Q79.38 43.00 82.16 42.05L82.27 42.16L82.25 42.14Q83.73 41.14 83.73 39.09L83.86 39.22L83.80 39.16Q83.92 38.14 83.46 35.66Z"/><path fill="#222" d="M20.68 39.91L20.77 40.00L20.68 39.91Q16.48 39.33 14.65 37.88L14.77 38.00L14.67 37.90Q12.89 36.51 12.48 33.50L12.52 33.54L12.44 33.47Q12.41 33.09 12.06 28.33L12.09 28.36L12.08 28.35Q12.17 27.21 12.09 25.96L11.99 25.86L12.12 25.99Q11.77 20.76 13.98 19.01L14.11 19.15L13.97 19.00Q16.80 17.07 24.56 16.39L24.57 16.39L24.49 16.31Q25.73 16.07 27.37 16.11L27.44 16.18L27.47 16.21Q27.51 16.25 30.48 16.25L30.47 16.25L30.46 16.24Q31.34 16.27 33.05 16.43L33.03 16.40L33.03 16.40Q32.50 17.32 31.48 20.41L31.55 20.48L31.47 20.40Q29.32 19.13 26.31 19.13L26.31 19.12L26.31 19.13Q25.50 19.08 24.70 19.16L24.75 19.21L24.89 19.34Q19.63 19.64 17.12 21.62L17.16 21.66L17.16 21.66Q15.18 23.30 15.03 26.65L15.04 26.66L15.01 26.63Q14.89 27.16 14.93 28.41L15.06 28.55L15.09 28.57Q15.03 33.24 17.43 35.33L17.53 35.43L17.49 35.39Q19.65 37.33 24.64 37.63L24.67 37.66L24.67 37.66Q27.86 37.88 30.87 36.09L30.90 36.12L30.72 35.95Q31.41 38.77 32.02 40.14L32.06 40.18L32.00 40.11Q29.95 40.43 28.31 40.39L28.37 40.44L28.37 40.44Q23.73 40.22 20.61 39.84ZM35.76 43.61L35.85 43.70L35.74 43.59Q33.99 40.62 33.30 38.03L33.26 37.99L33.30 38.03Q32.84 38.25 31.85 38.63L31.82 38.61L32.01 38.80Q31.49 37.82 31.30 36.98L31.29 36.97L31.06 35.41L31.01 35.36Q27.64 37.32 24.52 37.20L24.66 37.34L24.52 37.21Q20.40 37.16 18.08 35.41L18.00 35.33L18.04 35.37Q16.89 33.54 16.97 30.61L16.91 30.55L16.87 30.51Q17.19 26.18 19.67 24.05L19.63 24.02L19.53 23.91Q21.80 22.15 26.48 21.54L26.38 21.44L26.43 21.49Q27.25 21.40 27.97 21.40L27.82 21.25L27.93 21.35Q30.76 21.40 32.85 22.92L32.78 22.85L32.89 22.97Q33.31 20.75 34.52 17.52L34.47 17.47L34.54 17.53Q34.32 17.58 33.77 17.52L33.73 17.48L33.71 17.47Q33.16 17.41 32.90 17.41L32.88 17.40L32.92 17.44Q32.97 16.76 33.43 15.77L33.43 15.78L33.49 15.83Q33.30 15.88 30.81 15.80L30.80 15.80L30.77 15.76Q28.38 15.79 27.73 15.83L27.71 15.80L27.69 15.79Q17.09 16.03 13.63 18.62L13.70 18.70L13.78 18.77Q11.75 20.59 11.75 24.51L11.75 24.51L11.70 24.46Q11.63 25.50 11.74 28.20L11.81 28.26L11.74 28.20Q11.99 31.88 12.22 33.59L12.20 33.56L12.03 33.40Q12.44 36.54 14.04 38.07L14.15 38.18L14.14 38.17Q14.55 38.77 15.80 39.91L15.86 39.97L15.84 39.95Q19.08 41.70 24.33 42.46L24.41 42.54L24.34 42.47Q30.81 43.45 35.79 43.64Z"/></svg>