<svg xmlns="http://www.w3.org/2000/svg" width="150" height="50" viewBox="0,0,150,50"><path fill="#111" d="M30.59 23.26L30.55 23.21L30.66 23.32Q28.85 19.15 22.64 19.34L22.61 19.31L22.65 19.35Q18.35 19.58 16.37 21.03L16.25 20.91L16.29 20.94Q13.98 22.79 13.98 26.90L13.88 26.79L13.94 28.72L13.96 28.74Q13.85 37.47 22.88 37.47L22.93 37.52L22.88 37.47Q24.95 37.49 26.44 36.69L26.47 36.72L26.43 36.68Q28.38 35.78 28.23 33.91L28.21 33.89L28.09 33.77Q27.94 31.72 24.25 30.81L24.36 30.92L22.30 30.80L22.27 30.76Q21.36 30.81 20.40 30.85L20.42 30.86L20.38 30.82Q20.42 29.91 20.38 28.01L20.36 27.99L20.33 27.95Q28.07 28.04 32.26 27.70L32.27 27.71L32.20 27.64Q32.19 28.50 32.19 29.30L32.27 29.39L32.15 29.27Q32.13 30.04 32.17 30.84L32.13 30.81L32.27 30.95Q31.07 30.85 31.07 30.85L31.13 30.91L31.05 30.83Q29.74 30.89 30.12 30.89L30.07 30.84L30.03 30.80Q31.11 32.41 31.49 34.39L31.58 34.48L31.49 34.40Q31.63 35.14 31.63 35.59L31.60 35.57L31.63 35.60Q31.62 40.24 22.83 40.24L22.82 40.22L22.93 40.34Q15.85 40.37 13.26 38.28L13.29 38.31L13.28 38.30Q11.12 35.77 11.12 30.70L11.20 30.78L11.24 30.81Q11.17 29.69 11.02 26.98L11.12 27.08L11.04 27.00Q10.83 24.59 10.87 23.22L10.88 23.22L11.00 23.35Q11.06 20.44 12.43 18.84L12.50 18.90L12.41 18.81Q15.04 16.83 19.91 16.64L19.83 16.57L22.49 16.49L22.55 16.54Q25.53 16.33 28.96 16.75L29.09 16.88L29.12 16.91Q32.70 17.21 33.65 20.45L33.68 20.48L33.70 20.50Q32.73 21.47 30.64 23.30ZM32.09 25.55L32.20 25.55L32.16 25.50Q33.27 24.33 35.14 22.35L35.29 22.51L35.22 22.44Q34.83 21.40 33.84 19.69L33.87 19.72L33.93 19.77Q32.69 17.05 28.88 16.41L28.82 16.34L28.86 16.39Q26.77 16.32 22.47 16.01L22.54 16.08L19.73 16.08L19.91 16.26Q14.67 16.39 12.08 18.37L12.06 18.35L12.14 18.43Q10.70 20.00 10.59 23.09L10.54 23.04L10.54 23.03Q10.60 22.64 10.82 28.12L10.92 28.21L10.76 28.06Q10.86 29.49 10.94 32.23L10.93 32.22L10.97 32.26Q11.01 36.57 12.77 38.51L12.90 38.65L12.84 38.59Q13.23 39.43 14.11 40.31L14.13 40.34L14.01 40.21Q17.01 42.18 22.53 42.52L22.55 42.55L25.49 42.78L25.32 42.62Q27.04 42.85 29.06 42.74L28.96 42.64L28.98 42.66Q30.56 42.72 32.66 42.18L32.50 42.03L32.58 42.11Q34.58 41.67 34.54 39.35L34.38 39.19L34.39 39.20Q34.49 38.04 33.42 35.26L33.32 35.15L33.32 35.16Q33.11 34.34 32.58 33.54L32.64 33.60L32.56 33.52Q33.19 33.58 34.37 33.77L34.35 33.75L34.29 33.69Q34.11 30.20 34.15 29.51L34.16 29.53L34.05 29.41Q33.74 29.48 33.32 29.44L33.29 29.42L33.30 29.43Q32.84 29.31 32.46 29.38L32.56 29.49L32.49 29.42Q32.45 28.27 32.53 27.21L32.66 27.34L32.57 27.25Q26.31 27.77 20.03 27.66L20.09 27.71L19.98 27.60Q20.14 28.64 20.14 29.56L20.13 29.54L20.09 31.25L20.12 31.28Q20.59 31.37 21.01 31.34L20.82 31.15L20.85 31.18Q21.33 31.24 21.79 31.24L21.83 31.28L21.67 31.12Q21.84 31.75 21.88 32.24L21.88 32.24L21.76 32.12Q21.70 32.52 21.67 33.02L21.76 33.11L21.80 33.15Q22.89 33.18 23.92 33.14L23.79 33.01L23.91 33.13Q24.88 33.08 25.91 33.12L25.87 33.08L25.83 33.03Q27.02 33.43 27.90 33.81L27.74 33.65L27.77 33.72L27.75 33.70Q27.91 35.23 26.24 36.15L26.27 36.17L26.22 36.13Q24.61 37.11 22.90 37.11L23.03 37.24L22.99 37.20Q19.10 37.15 16.66 35.40L16.62 35.36L16.55 35.29Q15.70 33.37 15.85 30.82L15.80 30.77L15.82 30.79Q16.11 25.98 17.95 23.98L18.00 24.03L18.06 24.08Q19.94 22.12 24.62 21.82L24.53 21.73L24.44 21.63Q28.11 21.42 30.05 23.21L30.04 23.20L30.21 23.37Q30.14 23.33 30.25 23.52L30.33 23.60L30.48 23.64L30.53 23.69Q31.17 24.44 31.74 25.55L31.68 25.48L31.94 25.40Z"/><path fill="#111" d="M129.22 23.22L129.30 23.30L129.38 23.37Q127.56 19.19 121.35 19.38L121.41 19.44L121.29 19.32Q117.01 19.58 115.03 21.02L114.90 20.89L114.94 20.92Q112.60 22.74 112.60 26.85L112.59 26.83L112.57 28.68L112.53 28.64Q112.64 37.59 121.66 37.59L121.64 37.56L121.65 37.57Q123.72 37.58 125.20 36.78L125.17 36.76L125.23 36.82Q126.92 35.65 126.77 33.79L126.77 33.79L126.87 33.89Q126.65 31.76 122.95 30.85L122.99 30.88L120.92 30.75L121.05 30.88Q120.05 30.83 119.09 30.87L119.10 30.88L119.11 30.88Q119.00 29.82 118.96 27.92L118.96 27.92L118.99 27.95Q126.70 28.00 130.89 27.66L130.92 27.69L130.95 27.72Q130.83 28.48 130.83 29.28L130.81 29.26L130.84 29.29Q130.95 30.20 130.98 30.99L130.97 30.98L130.92 30.94Q129.83 30.95 129.83 30.95L129.79 30.91L129.79 30.90Q128.34 30.82 128.72 30.82L128.78 30.88L128.68 30.79Q129.80 32.44 130.18 34.42L130.27 34.51L130.34 34.57Q130.39 35.24 130.39 35.70L130.34 35.65L130.32 35.63Q130.32 40.26 121.52 40.26L121.48 40.22L121.52 40.26Q114.40 40.26 111.81 38.17L111.88 38.24L111.81 38.17Q109.84 35.82 109.84 30.76L109.93 30.84L109.90 30.81Q109.79 29.63 109.64 26.93L109.73 27.02L109.76 27.06Q109.56 24.64 109.59 23.27L109.53 23.21L109.67 23.35Q109.67 20.37 111.04 18.78L111.06 18.80L111.02 18.76Q113.64 16.77 118.51 16.58L118.46 16.53L121.26 16.59L121.22 16.55Q124.36 16.49 127.78 16.91L127.76 16.88L127.78 16.91Q131.43 17.28 132.38 20.51L132.36 20.49L132.41 20.55Q131.34 21.41 129.24 23.24ZM130.64 25.44L130.77 25.45L130.91 25.59Q132.03 24.42 133.89 22.44L133.87 22.42L133.82 22.38Q133.50 21.41 132.51 19.69L132.51 19.69L132.59 19.77Q131.46 17.15 127.65 16.51L127.63 16.49L127.67 16.52Q125.48 16.36 121.18 16.05L121.27 16.14L118.49 16.18L118.43 16.12Q113.33 16.39 110.74 18.37L110.65 18.28L110.64 18.26Q109.37 20.00 109.25 23.08L109.22 23.05L109.20 23.03Q109.21 22.58 109.44 28.06L109.54 28.17L109.56 28.18Q109.51 29.47 109.59 32.21L109.62 32.24L109.49 32.11Q109.75 36.64 111.51 38.58L111.61 38.69L111.44 38.51Q111.87 39.41 112.75 40.28L112.72 40.26L112.71 40.24Q115.73 42.24 121.25 42.58L121.09 42.42L124.11 42.74L124.12 42.75Q125.60 42.75 127.62 42.63L127.69 42.70L127.68 42.69Q129.16 42.65 131.25 42.11L131.17 42.03L131.21 42.07Q133.24 41.66 133.20 39.34L133.20 39.34L133.06 39.20Q133.12 38.00 132.06 35.23L132.03 35.20L132.12 35.29Q131.68 34.24 131.15 33.45L131.21 33.50L131.23 33.52Q131.90 33.62 133.08 33.81L133.04 33.77L133.01 33.75Q132.65 30.07 132.68 29.38L132.78 29.47L132.80 29.50Q132.32 29.40 131.90 29.36L132.01 29.47L131.99 29.45Q131.67 29.48 131.29 29.55L131.10 29.36L131.18 29.44Q131.24 28.40 131.32 27.33L131.33 27.35L131.36 27.37Q124.95 27.74 118.67 27.62L118.76 27.72L118.67 27.62Q118.70 28.53 118.70 29.44L118.78 29.53L118.74 31.24L118.83 31.33Q119.08 31.20 119.50 31.16L119.66 31.32L119.58 31.24Q120.06 31.30 120.51 31.30L120.49 31.28L120.36 31.14Q120.50 31.74 120.53 32.23L120.45 32.15L120.53 32.23Q120.46 32.62 120.42 33.11L120.34 33.03L120.48 33.17Q121.50 33.12 122.53 33.08L122.61 33.17L122.47 33.02Q123.53 33.05 124.55 33.09L124.52 33.06L124.57 33.11Q125.53 33.26 126.40 33.64L126.52 33.76L126.54 33.82L126.57 33.85Q126.71 35.37 125.04 36.28L124.91 36.16L125.07 36.31Q123.22 37.05 121.50 37.05L121.63 37.18L121.59 37.13Q117.77 37.16 115.33 35.41L115.39 35.46L115.39 35.47Q114.31 33.32 114.46 30.77L114.45 30.76L114.55 30.86Q114.88 26.08 116.73 24.08L116.72 24.08L116.70 24.06Q118.54 22.05 123.22 21.75L123.30 21.83L123.23 21.75Q126.90 21.55 128.85 23.34L128.71 23.20L128.79 23.28Q128.81 23.33 128.92 23.52L128.97 23.58L129.10 23.59L129.18 23.67Q129.78 24.39 130.35 25.49L130.33 25.47L130.62 25.42Z"/><path fill="#111" d="M45.76 27.69L45.74 27.67L45.71 27.64Q43.49 27.67 42.22 29.17L42.25 29.20L42.14 29.09Q40.85 30.59 40.74 32.87L40.75 32.89L40.73 32.86Q40.64 35.55 41.48 36.50L41.65 36.67L41.65 36.67Q42.61 37.79 44.94 37.64L44.98 37.68L44.99 37.70Q49.67 37.43 50.05 34.42L49.93 34.30L49.94 34.30Q50.10 33.55 50.10 32.75L50.11 32.76L50.07 32.72Q50.04 30.71 48.90 29.19L48.97 29.26L48.85 29.14Q47.72 27.67 45.77 27.70ZM50.63 37.81L50.53 37.71L50.56 37.75Q49.07 39.87 44.69 40.09L44.78 40.19L44.66 40.06Q40.56 40.30 38.92 39.20L38.94 39.21L38.79 39.07Q37.93 38.25 37.78 36.53L37.85 36.61L37.82 36.57Q37.71 35.40 37.91 33.54L37.88 33.51L37.84 33.48Q38.51 29.35 39.73 27.52L39.56 27.35L39.56 27.35Q41.24 24.92 45.09 24.96L45.11 24.99L45.14 25.01Q47.73 25.13 50.02 27.45L50.00 27.44L49.91 27.35Q49.94 21.44 51.54 14.93L51.56 14.95L51.69 15.08Q53.62 14.69 55.49 13.85L55.39 13.75L55.48 13.85Q52.84 20.41 52.57 27.42L52.61 27.45L52.42 27.27Q52.14 34.45 54.27 41.04L54.43 41.19L54.38 41.15Q52.73 40.53 51.02 40.14L50.93 40.05L50.99 40.11Q50.67 38.81 50.52 37.70ZM53.53 43.15L53.59 43.21L53.63 43.25Q55.68 43.78 58.23 45.30L58.25 45.32L58.13 45.20Q54.43 38.15 54.28 29.85L54.33 29.90L54.39 29.97Q54.25 21.75 57.33 14.36L57.24 14.28L57.30 14.33Q56.66 14.84 55.22 15.48L55.25 15.51L55.26 15.52Q55.55 14.34 56.16 13.12L56.12 13.07L56.17 13.13Q53.63 14.05 51.20 14.63L51.33 14.76L51.38 14.80Q49.90 20.56 49.63 26.65L49.53 26.55L49.59 26.60Q47.62 24.71 45.11 24.60L45.23 24.72L45.08 24.58Q41.73 24.54 39.83 26.63L39.87 26.67L39.83 26.63Q38.17 29.04 37.75 33.72L37.59 33.57L37.67 33.65Q37.38 36.36 37.38 36.78L37.35 36.75L37.31 36.71Q37.41 38.49 38.55 39.55L38.64 39.64L38.56 39.56Q38.81 39.81 39.00 39.89L38.99 39.87L39.58 40.65L39.41 40.48Q40.56 42.01 43.53 42.28L43.49 42.25L43.42 42.18Q45.70 42.40 47.08 42.48L47.07 42.48L47.11 42.52Q51.13 42.54 52.85 41.21L52.92 41.28L52.84 41.21Q53.09 42.02 53.54 43.16ZM47.27 29.88L47.34 29.96L47.34 29.96Q48.37 29.95 49.21 30.45L49.23 30.48L49.12 30.37Q49.66 31.70 49.73 32.73L49.72 32.71L49.72 32.71Q50.12 37.04 45.10 37.38L45.01 37.29L45.00 37.28Q44.08 37.27 42.97 37.01L43.04 37.08L43.07 37.11Q42.82 36.48 42.74 35.94L42.81 36.01L42.69 35.89Q42.73 35.32 42.77 34.71L42.66 34.60L42.69 34.63Q43.03 31.24 45.66 30.25L45.73 30.32L45.62 30.22Q46.69 29.95 47.38 29.99Z"/><path fill="#333" d="M70.51 29.96L70.34 29.79L70.44 29.90Q70.22 29.90 69.91 29.90L69.80 29.78L69.94 29.92Q68.48 29.80 67.03 30.64L67.12 30.72L67.17 30.77Q65.68 31.71 65.68 33.62L65.77 33.71L65.69 33.63Q65.79 37.16 67.32 38.49L67.21 38.39L67.36 38.53Q68.20 39.61 70.49 39.61L70.53 39.65L70.44 39.57Q70.68 39.57 70.99 39.57L71.05 39.64L71.14 39.72Q72.83 39.70 73.97 38.07L73.95 38.04L73.88 37.98Q74.99 36.53 74.91 34.74L74.87 34.70L74.88 34.71Q74.98 34.28 74.98 33.86L74.87 33.75L74.94 33.82Q74.93 32.02 73.56 30.86L73.50 30.80L73.62 30.92Q72.24 29.75 70.45 29.90ZM74.89 40.02L74.98 40.11L74.82 39.94Q73.86 41.92 70.13 42.03L70.20 42.10L70.19 42.09Q66.85 42.26 65.25 40.66L65.15 40.55L65.24 40.65Q63.67 38.77 62.87 33.97L62.99 34.09L63.00 34.10Q62.52 32.18 62.52 30.92L62.68 31.08L62.65 31.05Q62.53 29.14 63.26 28.08L63.44 28.26L63.35 28.17Q64.67 26.74 67.64 26.74L67.63 26.74L67.77 26.88Q74.04 26.83 75.95 29.42L75.83 29.30L76.00 29.47Q76.05 28.54 76.47 26.94L76.50 26.97L76.42 26.89Q77.81 26.72 80.25 25.92L80.17 25.84L80.26 25.93Q77.86 31.60 77.63 37.92L77.49 37.78L77.52 37.81Q77.24 43.92 79.37 49.75L79.51 49.88L79.46 49.83Q77.80 49.28 76.01 49.02L76.02 49.02L75.91 48.91Q75.04 45.00 74.93 40.05ZM75.63 49.20L75.76 49.33L75.71 49.29Q76.48 49.48 77.88 49.78L77.75 49.65L77.72 49.62Q78.07 50.47 78.64 51.88L78.52 51.76L78.62 51.85Q81.26 52.62 83.54 53.92L83.57 53.95L83.46 53.84Q79.53 47.36 79.53 38.83L79.40 38.69L79.54 38.84Q79.52 32.46 81.99 26.67L81.86 26.54L81.84 26.52Q81.17 26.84 79.80 27.48L79.77 27.46L79.88 27.57Q80.25 26.83 80.90 25.27L80.89 25.27L80.90 25.27Q79.29 25.76 76.09 26.63L76.11 26.65L76.02 26.56Q75.93 27.16 75.62 28.34L75.71 28.42L75.61 28.32Q73.57 26.39 67.44 26.24L67.61 26.42L67.53 26.33Q64.33 26.26 62.96 27.74L62.88 27.66L63.01 27.79Q62.16 28.85 62.20 30.75L62.24 30.79L62.18 30.73Q62.35 33.79 63.34 37.56L63.26 37.48L63.29 37.51Q64.03 40.01 64.95 40.96L64.91 40.92L65.29 41.30L65.37 41.38Q66.44 44.05 71.88 44.28L71.85 44.24L71.87 44.26Q72.92 44.33 74.75 44.02L74.81 44.08L74.80 44.07Q75.15 47.05 75.76 49.34ZM72.19 32.06L72.34 32.21L72.28 32.15Q73.36 32.16 74.20 32.47L74.24 32.51L74.21 32.48Q74.39 33.01 74.51 33.61L74.48 33.58L74.60 33.70Q74.65 34.21 74.57 34.82L74.46 34.71L74.53 34.79Q74.62 36.77 73.59 38.07L73.55 38.02L73.45 37.93Q72.46 39.52 70.59 39.33L70.51 39.25L70.56 39.30Q69.27 39.30 68.31 38.88L68.25 38.81L68.17 38.74Q67.89 38.00 67.89 36.79L67.99 36.88L68.00 36.89Q67.94 36.52 67.94 36.22L67.83 36.11L67.81 36.09Q67.90 34.43 69.23 33.27L69.25 33.29L69.30 33.34Q70.58 32.12 72.33 32.20Z"/><path fill="#111" d="M99.67 27.26L99.61 27.20L99.57 27.16Q100.38 27.17 101.79 27.02L101.74 26.97L101.86 27.09Q101.82 27.73 101.82 28.38L101.73 28.30L101.69 29.51L101.78 29.59Q101.01 29.67 100.17 29.74L100.00 29.57L100.08 29.65Q99.28 29.72 98.44 29.69L98.31 29.55L98.41 29.66Q95.57 35.84 92.15 40.45L92.20 40.50L92.10 40.40Q89.63 41.09 88.34 41.70L88.35 41.71L88.40 41.76Q92.38 35.92 95.43 29.64L95.46 29.68L92.88 29.72L92.90 29.74Q92.82 28.33 92.70 26.99L92.81 27.10L92.69 26.98Q94.65 27.19 96.71 27.19L96.73 27.21L98.63 23.52L98.53 23.41Q99.52 21.51 100.74 19.91L100.81 19.98L100.77 19.95Q99.26 20.15 97.66 20.15L97.70 20.18L97.67 20.16Q91.51 20.09 87.74 17.88L87.83 17.97L87.15 16.22L87.14 16.22Q86.87 15.45 86.49 14.57L86.38 14.47L86.50 14.59Q90.72 17.09 96.43 17.32L96.37 17.26L96.47 17.36Q101.67 17.65 106.81 15.67L106.80 15.66L106.74 15.60Q106.50 15.97 106.01 16.84L106.04 16.88L106.14 16.98Q102.52 21.74 99.67 27.26ZM107.75 18.36L107.74 18.35L108.67 16.27L108.72 16.32Q107.75 16.80 106.07 17.52L105.97 17.42L106.27 17.22L106.14 17.09Q106.22 16.91 106.33 16.79L106.40 16.86L106.43 16.89Q106.73 16.12 107.45 14.79L107.58 14.92L107.50 14.84Q102.16 17.11 96.42 16.89L96.45 16.92L96.52 16.99Q90.37 16.59 85.61 13.62L85.75 13.76L85.74 13.75Q86.64 15.48 87.47 18.15L87.53 18.20L87.53 18.21Q88.68 18.90 89.48 19.20L89.49 19.22L89.50 19.22Q89.58 19.49 90.03 21.35L90.02 21.34L90.03 21.35Q93.28 22.70 98.80 22.55L98.84 22.58L98.71 22.45Q98.38 23.00 96.40 26.77L96.56 26.93L96.54 26.91Q94.47 26.90 92.50 26.71L92.42 26.64L92.35 26.56Q92.42 27.39 92.42 28.27L92.52 28.37L92.41 29.98L94.25 30.14L94.24 31.54L94.25 31.55Q90.17 38.78 87.39 42.36L87.53 42.49L87.48 42.44Q89.09 41.70 90.73 41.20L90.78 41.25L90.66 41.13Q89.98 42.05 88.61 43.76L88.75 43.90L88.71 43.86Q91.77 42.66 94.21 42.43L94.17 42.39L94.31 42.53Q97.18 38.71 100.31 31.93L100.31 31.94L103.65 32.04L103.68 32.07Q103.61 31.16 103.61 30.24L103.65 30.28L103.57 28.42L103.63 28.48Q103.31 28.42 102.76 28.46L102.81 28.51L102.83 28.53Q102.36 28.65 102.09 28.65L102.11 28.67L102.00 28.56Q102.02 28.46 102.05 28.31L102.11 28.36L101.96 27.95L101.99 27.98Q104.63 22.97 107.71 18.32Z"/></svg>