<svg xmlns="http://www.w3.org/2000/svg" width="150" height="50" viewBox="0,0,150,50"><path fill="#333" d="M49.35 39.84L49.26 39.76L49.43 39.93Q47.37 39.77 45.36 39.96L45.30 39.91L45.42 40.02Q46.06 34.76 46.06 29.93L46.02 29.89L46.07 29.94Q46.02 24.98 45.38 19.77L45.53 19.92L45.48 19.87Q40.78 19.36 37.58 17.68L37.63 17.73L36.88 15.95L36.84 15.91Q36.64 15.41 36.03 14.19L36.05 14.21L36.02 14.18Q41.12 16.88 47.13 17.07L47.15 17.09L47.15 17.09Q53.03 17.26 58.47 15.20L58.53 15.26L58.53 15.26Q57.76 16.62 57.12 18.45L57.20 18.53L57.18 18.51Q53.57 19.82 49.31 20.01L49.32 20.01L49.24 19.94Q49.09 25.00 49.09 29.95L49.03 29.90L49.15 30.01Q49.01 34.82 49.31 39.81ZM59.26 14.61L59.15 14.51L59.20 14.55Q53.45 16.91 47.24 16.72L47.16 16.64L47.05 16.53Q40.52 16.47 35.42 13.50L35.47 13.55L35.34 13.42Q36.24 14.85 37.53 18.13L37.36 17.96L37.38 17.98Q38.13 18.38 39.38 18.95L39.33 18.89L39.43 19.00Q39.53 19.56 39.88 21.08L39.96 21.17L40.03 21.24Q42.14 21.90 45.18 22.13L45.32 22.26L45.33 22.27Q45.57 25.82 45.57 29.59L45.65 29.68L45.74 29.77Q45.74 35.13 44.94 40.50L44.79 40.35L44.95 40.51Q46.62 40.39 47.15 40.39L46.99 40.23L47.01 40.25Q47.10 40.64 47.04 41.31L47.10 41.37L46.92 41.18Q47.00 41.99 47.00 42.33L46.90 42.23L46.99 42.32Q48.12 42.20 49.65 42.27L49.66 42.29L49.58 42.20Q50.58 42.33 52.41 42.48L52.43 42.51L52.40 42.48Q51.27 37.65 51.15 32.47L51.13 32.45L51.13 32.45Q50.96 27.10 51.49 22.19L51.36 22.06L51.51 22.20Q55.47 21.68 58.63 20.46L58.66 20.49L58.53 20.36Q59.27 18.01 60.30 15.96L60.19 15.85L60.21 15.87Q58.97 16.64 58.17 16.95L58.15 16.93L58.07 16.86Q58.67 15.74 59.24 14.59Z"/><path fill="#333" d="M68.49 40.43L68.50 40.44L68.42 40.36Q64.45 40.69 63.46 38.36L63.34 38.25L63.36 38.27Q64.16 37.36 65.72 35.57L65.68 35.53L65.67 35.51Q66.20 37.57 69.21 37.68L69.17 37.64L69.20 37.67Q72.51 37.67 74.14 36.34L74.17 36.36L74.31 36.51Q75.54 34.73 75.47 32.03L75.49 32.05L75.49 32.05Q75.40 27.05 70.61 27.28L70.64 27.31L70.60 27.27Q67.73 27.37 65.98 28.63L66.09 28.73L65.73 28.54L65.54 28.42L65.57 28.44Q65.84 25.21 65.72 22.47L65.80 22.54L65.70 22.45Q65.71 19.95 65.37 16.63L65.27 16.53L65.32 16.59Q68.92 17.48 72.73 17.37L72.69 17.33L72.67 17.31Q76.53 17.29 80.11 16.03L80.21 16.13L79.65 17.67L79.55 17.57Q79.22 18.30 79.03 19.14L79.15 19.26L78.98 19.09Q76.00 20.26 72.12 20.26L71.99 20.13L72.11 20.25Q70.70 20.29 69.21 20.14L69.05 19.97L69.14 20.06Q68.98 20.67 68.64 25.12L68.69 25.17L68.76 25.24Q69.50 24.69 71.56 24.54L71.65 24.63L71.56 24.54Q75.40 24.88 76.85 26.55L76.87 26.57L76.78 26.48Q78.14 28.00 78.41 31.84L78.37 31.80L78.34 31.78Q78.67 36.03 77.46 38.05L77.51 38.11L77.54 38.13Q75.35 39.86 72.04 40.09L72.14 40.20L72.10 40.15Q71.10 40.22 68.44 40.37ZM74.58 42.75L74.44 42.61L74.50 42.67Q77.86 42.68 79.77 41.58L79.88 41.69L79.89 41.71Q80.82 40.12 80.82 38.03L80.76 37.96L80.84 38.05Q80.85 34.97 79.90 30.86L79.85 30.81L79.94 30.90Q79.50 29.09 78.28 27.68L78.24 27.64L78.33 27.77L78.09 27.46L77.66 27.18L77.81 27.32Q77.36 26.46 76.71 25.77L76.72 25.78L76.79 25.88L76.86 25.95Q75.28 24.23 71.59 24.23L71.62 24.26L71.33 24.24L71.26 24.17Q71.36 23.61 71.55 22.51L71.50 22.47L71.50 22.46Q76.46 22.55 80.49 20.91L80.57 20.99L80.53 20.95Q81.06 19.65 82.01 16.83L82.03 16.85L79.83 17.70L79.77 17.63Q80.33 16.68 80.83 15.54L80.64 15.35L80.73 15.44Q76.98 16.98 72.87 17.06L72.88 17.07L72.87 17.06Q68.62 17.03 64.66 15.92L64.77 16.03L64.80 16.07Q65.31 20.30 65.31 24.72L65.42 24.84L65.38 24.80Q65.34 26.65 65.22 28.56L65.21 28.54L65.24 28.57Q65.64 28.90 66.21 29.20L66.20 29.19L66.15 29.14Q66.51 28.93 67.16 28.59L67.03 28.46L67.11 28.54Q66.99 29.22 66.77 30.75L66.84 30.82L66.84 30.82Q67.24 30.99 67.66 31.22L67.59 31.15L67.69 31.25Q70.36 29.40 72.23 29.40L72.23 29.39L72.32 29.48Q73.66 29.50 74.84 30.14L74.77 30.07L74.83 30.13Q75.13 31.12 75.17 32.07L75.22 32.12L75.12 32.02Q75.33 34.74 74.30 35.85L74.17 35.71L74.21 35.76Q72.83 36.97 70.59 37.19L70.57 37.18L70.66 37.27Q69.68 37.32 68.99 37.24L69.07 37.32L68.92 37.16Q68.12 37.09 67.36 36.75L67.40 36.78L67.29 36.49L67.23 36.66L67.28 36.71Q66.50 36.23 65.96 34.89L65.99 34.92L66.01 34.94Q64.53 36.20 62.86 38.33L62.91 38.39L63.00 38.47Q63.32 39.14 64.15 40.09L64.00 39.93L63.98 39.92Q65.23 41.92 68.04 42.42L67.91 42.29L68.01 42.38Q69.09 42.52 74.46 42.63Z"/><path fill="#444" d="M96.85 18.37L97.02 18.54L96.91 18.43Q96.15 18.78 96.00 19.58L96.11 19.68L96.14 24.86L96.02 24.73Q97.13 24.70 99.33 24.43L99.50 24.60L99.35 24.44Q99.45 25.01 99.42 25.84L99.34 25.77L99.31 25.74Q99.28 26.51 99.28 26.97L99.41 27.10L97.79 27.15L97.74 27.10Q96.89 27.12 96.01 27.12L96.09 27.20L96.10 27.21Q96.05 31.35 95.97 39.72L95.98 39.73L96.04 39.79Q93.69 39.72 92.20 40.41L92.25 40.46L92.30 40.50Q93.45 34.43 93.34 27.19L93.16 27.01L93.34 27.19Q92.52 26.98 91.22 26.71L91.38 26.87L91.24 26.73Q91.25 25.75 91.06 23.81L91.14 23.89L91.12 23.87Q92.29 24.43 93.25 24.62L93.14 24.52L93.22 24.60Q93.06 23.83 92.76 21.36L92.89 21.49L92.74 21.34Q92.55 19.32 92.55 18.37L92.69 18.51L92.63 18.45Q92.63 16.78 94.04 16.21L94.00 16.16L94.06 16.23Q94.79 15.78 99.63 14.94L99.60 14.91L99.70 15.01Q100.54 14.91 101.38 14.79L101.26 14.67L101.34 14.75Q101.11 15.51 100.96 16.38L100.88 16.31L100.70 17.99L100.56 17.85Q99.93 17.71 99.43 17.83L99.54 17.93L99.43 17.83Q98.86 17.86 96.95 18.47ZM102.44 19.66L102.44 19.65L102.38 19.59Q102.72 17.38 103.33 14.83L103.28 14.79L103.30 14.80Q102.82 15.27 101.52 15.88L101.46 15.82L101.88 14.15L101.76 14.02Q100.63 14.30 98.15 14.84L98.05 14.73L98.03 14.71Q96.90 14.84 93.71 15.76L93.76 15.81L93.82 15.88Q92.19 16.22 92.19 18.09L92.08 17.97L92.15 18.05Q92.10 18.30 92.17 18.64L92.22 18.68L92.16 18.63Q92.56 20.13 92.68 21.47L92.65 21.44L92.88 24.15L92.81 24.08Q91.51 23.77 90.87 23.31L90.76 23.20L90.85 23.29Q90.84 24.12 90.88 25.15L90.87 25.14L91.06 27.19L90.94 27.07Q91.71 27.32 92.51 27.39L92.48 27.36L92.52 29.50L93.00 29.60L92.98 29.57Q92.80 35.63 91.81 41.08L91.92 41.19L91.74 41.01Q92.77 40.56 93.95 40.29L94.03 40.37L93.82 42.40L93.90 42.49Q95.12 42.18 96.41 42.14L96.46 42.19L96.31 42.04Q97.55 42.02 98.81 42.29L98.86 42.34L98.75 42.23Q98.03 37.37 98.03 29.41L97.96 29.34L98.02 29.40Q99.05 29.32 101.14 29.39L101.21 29.47L101.15 27.54L101.18 27.57Q101.11 26.55 101.15 25.60L101.24 25.69L101.31 25.76Q100.79 25.81 99.72 26.07L99.62 25.97L99.76 26.11Q99.77 25.43 99.88 24.10L99.83 24.05L99.87 24.09Q98.95 24.23 98.15 24.31L98.22 24.38L98.20 24.36Q98.25 23.00 98.36 21.59L98.18 21.41L98.24 21.47Q98.52 20.95 99.05 20.60L99.02 20.57L99.00 20.55Q99.89 19.81 100.71 19.74L100.71 19.73L100.69 19.71Q101.52 19.65 102.36 19.58Z"/><path fill="#222" d="M19.73 26.87L19.77 26.92L19.66 26.80Q21.40 26.91 23.22 26.91L23.31 27.00L23.30 26.99Q25.08 26.98 26.91 26.82L26.84 26.76L26.94 26.85Q26.79 27.46 26.79 28.19L26.90 28.30L26.76 29.50L26.84 29.57Q24.53 29.62 19.77 29.74L19.73 29.70L19.66 29.62Q19.69 35.59 18.54 40.58L18.47 40.50L18.48 40.51Q16.42 41.34 14.93 42.14L14.90 42.11L14.90 42.11Q17.08 35.15 16.81 28.03L16.89 28.11L16.90 28.13Q16.68 21.01 14.02 14.35L14.01 14.35L14.00 14.33Q17.65 16.84 22.41 17.07L22.42 17.08L22.36 17.02Q27.03 17.20 31.18 15.45L31.12 15.38L31.23 15.49Q30.85 16.23 30.63 17.03L30.65 17.05L30.15 18.64L30.29 18.79Q27.50 19.80 24.53 19.95L24.54 19.97L24.60 20.03Q21.59 20.10 18.74 19.38L18.80 19.44L18.73 19.37Q19.53 22.87 19.72 26.87ZM31.85 14.78L31.92 14.86L31.94 14.88Q27.27 16.94 22.39 16.63L22.29 16.53L22.44 16.68Q17.02 16.29 13.29 13.43L13.38 13.52L13.41 13.55Q16.30 20.52 16.60 28.13L16.42 27.95L16.52 28.04Q16.83 35.97 14.32 42.75L14.37 42.80L14.39 42.81Q15.09 42.45 16.46 41.81L16.28 41.63L16.37 41.71Q16.13 42.43 15.56 43.95L15.67 44.06L15.57 43.96Q17.88 42.89 20.78 42.39L20.82 42.44L20.89 42.50Q21.33 37.46 21.52 31.75L21.72 31.95L21.61 31.84Q23.38 31.79 25.21 31.79L25.16 31.74L25.28 31.86Q27.04 31.82 28.86 32.02L28.94 32.09L28.86 32.01Q28.75 31.07 28.75 30.15L28.76 30.16L28.75 28.25L28.71 28.20Q28.03 28.40 27.19 28.40L27.06 28.27L27.22 28.43Q27.21 27.54 27.29 26.52L27.15 26.38L27.20 26.43Q25.91 26.70 24.50 26.70L24.35 26.55L24.53 26.72Q23.01 26.62 21.64 26.58L21.70 26.64L21.63 24.44L21.54 24.35Q21.56 23.30 21.44 22.23L21.36 22.15L21.49 22.28Q22.38 22.26 23.37 22.26L23.45 22.34L23.46 22.35Q28.14 22.26 31.75 20.36L31.79 20.40L31.75 20.36Q32.18 18.47 33.10 15.84L33.10 15.84L33.18 15.92Q31.97 16.84 31.17 17.19L31.04 17.06L31.08 17.10Q31.44 16.43 31.94 14.87Z"/><path fill="#444" d="M121.26 41.38L121.28 41.39L121.26 41.37Q118.33 41.49 117.07 40.95L117.09 40.97L117.19 41.07Q115.11 40.13 115.18 37.66L115.26 37.74L115.20 37.67Q115.30 34.23 115.30 34.81L115.32 34.83L115.42 34.92Q115.36 29.53 112.50 24.70L112.63 24.82L112.63 24.82Q114.59 25.76 116.57 26.14L116.58 26.15L116.47 26.03Q118.13 30.59 118.02 35.08L118.04 35.11L118.13 35.19Q118.01 36.71 118.85 37.93L118.77 37.85L118.71 37.80Q119.61 39.11 121.14 38.92L121.18 38.97L121.56 38.85L121.67 38.96Q122.97 38.85 123.78 38.09L123.66 37.96L123.68 37.98Q124.51 37.23 124.51 36.28L124.57 36.35L124.59 36.36Q124.66 36.20 124.62 36.01L124.62 36.01L124.50 35.89Q124.54 30.76 125.68 26.42L125.60 26.33L125.51 26.24Q126.53 26.16 127.52 25.94L127.65 26.06L129.59 25.49L129.70 25.60Q127.14 30.61 127.44 36.17L127.34 36.07L127.44 36.17Q127.62 39.24 125.90 40.38L125.78 40.25L125.90 40.38Q124.58 41.23 121.27 41.38ZM123.58 43.77L123.60 43.79L123.49 43.67Q127.10 43.97 128.92 43.21L128.90 43.18L128.89 43.17Q129.80 42.41 129.80 41.01L129.71 40.92L129.79 40.99Q129.84 40.13 129.57 38.57L129.43 38.42L129.57 38.57Q129.13 35.46 129.51 32.45L129.50 32.45L129.37 32.31Q129.73 29.13 131.13 26.39L131.23 26.48L131.16 26.41Q130.51 26.71 129.18 27.13L129.27 27.23L129.22 27.18Q129.44 26.56 129.75 25.99L129.83 26.07L130.29 24.82L130.27 24.80Q128.34 25.46 125.18 25.95L125.17 25.94L125.20 25.97Q124.09 30.88 124.24 35.98L124.23 35.97L124.15 35.89Q124.18 37.93 121.52 38.43L121.62 38.53L121.24 38.61L121.20 38.72L120.21 38.53L120.11 38.43Q120.08 37.60 120.12 37.11L120.17 37.16L120.02 37.01Q120.23 32.50 119.54 28.08L119.65 28.19L118.65 28.10L118.64 28.09Q118.09 28.04 117.56 27.93L117.58 27.94L117.44 27.80Q117.10 26.43 116.83 25.67L116.76 25.60L116.88 25.72Q114.06 25.26 111.81 23.97L111.90 24.06L111.78 23.93Q114.00 27.53 114.73 30.92L114.57 30.76L114.73 30.92Q115.26 33.16 115.10 36.66L115.03 36.59L115.11 36.67Q115.15 36.82 115.07 37.92L115.01 37.86L114.97 37.82Q114.79 40.16 116.16 41.11L116.13 41.08L116.29 41.24Q116.61 43.42 123.62 43.81Z"/></svg>