<svg xmlns="http://www.w3.org/2000/svg" width="150" height="50" viewBox="0,0,150,50"><path fill="#222" d="M54.32 37.89L54.37 37.93L54.31 37.88Q54.59 38.84 55.12 40.86L55.18 40.91L55.17 40.90Q50.96 39.59 46.36 39.86L46.38 39.88L46.30 39.80Q41.72 40.06 37.72 42.04L37.84 42.15L37.84 42.16Q38.10 41.51 38.14 41.58L38.03 41.47L38.08 41.52Q41.77 37.52 45.69 33.11L45.71 33.12L45.72 33.13Q50.06 28.07 51.24 23.38L51.22 23.37L51.25 23.40Q51.66 21.60 50.39 20.42L50.54 20.57L50.50 20.54Q49.16 19.29 47.37 19.44L47.49 19.56L47.50 19.57Q47.01 19.39 46.67 19.39L46.64 19.35L46.72 19.44Q45.22 19.46 43.96 20.37L43.98 20.39L43.88 20.29Q42.67 21.75 42.90 24.41L42.83 24.34L42.94 24.45Q41.14 24.10 39.93 23.64L39.89 23.61L39.93 23.65Q39.72 22.22 39.64 20.77L39.65 20.78L39.57 20.70Q39.53 19.10 40.14 17.96L40.10 17.92L40.19 18.01Q41.90 16.55 45.25 16.55L45.21 16.51L46.99 16.54L47.04 16.60Q49.31 16.62 50.26 16.73L50.33 16.80L50.21 16.68Q54.66 17.21 54.92 19.64L54.82 19.54L54.82 19.55Q54.86 20.08 54.78 20.88L54.90 20.99L54.93 21.02Q54.93 21.70 54.78 22.39L54.69 22.31L54.78 22.39Q53.00 30.36 45.43 37.21L45.43 37.22L45.57 37.36Q46.84 37.07 48.21 37.07L48.24 37.10L48.20 37.05Q51.54 37.16 54.39 37.96ZM53.82 17.13L53.81 17.12L53.75 17.06Q52.21 16.48 50.50 16.40L50.36 16.26L47.12 16.25L46.95 16.09Q42.61 15.94 40.41 17.04L40.35 16.99L40.32 16.96Q39.21 18.28 39.21 20.34L39.36 20.49L39.26 20.39Q39.39 21.21 39.70 24.02L39.60 23.93L39.59 23.91Q40.14 24.16 41.32 24.47L41.37 24.52L41.35 25.52L41.34 25.52Q41.33 26.00 41.40 26.53L41.37 26.49L41.31 26.43Q42.63 26.61 45.10 26.84L45.20 26.94L45.05 26.79Q45.18 26.57 45.18 26.23L45.00 26.05L45.03 26.08Q45.19 24.41 46.41 23.06L46.26 22.92L46.35 23.00Q47.61 21.70 49.40 21.81L49.32 21.73L49.37 21.78Q50.08 21.77 50.85 21.93L50.82 21.90L50.81 21.89Q50.89 22.23 50.96 22.65L51.09 22.78L51.05 22.74Q51.00 23.07 50.92 23.41L50.90 23.38L51.06 23.55Q49.83 28.33 45.41 33.17L45.25 33.01L45.33 33.09Q43.25 35.39 37.81 41.44L37.68 41.30L37.78 41.41Q37.64 42.29 37.30 42.87L37.18 42.75L37.26 42.83Q38.77 41.87 40.30 41.34L40.23 41.27L40.28 41.32Q39.54 41.88 38.59 43.36L38.67 43.44L38.64 43.41Q38.56 43.78 38.44 44.13L38.48 44.17L38.36 44.05Q43.24 42.00 48.72 42.19L48.75 42.21L48.71 42.17Q54.41 42.36 58.98 44.72L58.94 44.68L58.13 42.72L58.11 42.70Q57.40 41.31 57.13 40.51L57.07 40.45L57.09 40.46Q56.42 40.10 55.20 39.68L55.25 39.73L55.11 39.59Q55.03 38.94 54.65 37.57L54.73 37.65L54.70 37.61Q52.43 36.99 50.15 36.80L50.08 36.73L50.11 36.76Q54.79 32.18 56.31 23.92L56.32 23.93L56.55 21.08L56.59 21.12Q56.55 19.37 55.33 18.68L55.16 18.51L55.26 18.65L55.26 18.65Q55.16 18.51 55.09 18.51L55.06 18.49L55.01 18.44Q54.80 17.61 53.69 17.00Z"/><path fill="#444" d="M13.61 14.27L13.66 14.31L13.71 14.37Q17.52 16.92 22.28 17.15L22.16 17.03L22.12 16.99Q26.84 17.25 31.10 15.50L31.11 15.51L31.07 15.47Q30.76 15.96 30.00 18.74L30.14 18.88L30.18 18.92Q27.35 19.86 24.38 20.02L24.41 20.04L24.30 19.94Q21.38 20.13 18.48 19.41L18.57 19.49L18.43 19.36Q19.27 23.12 19.46 26.78L19.41 26.73L19.42 26.74Q21.40 26.93 23.00 26.89L22.99 26.89L22.95 26.84Q24.24 26.92 26.64 26.80L26.55 26.71L26.57 26.73Q26.62 27.46 26.62 28.15L26.68 28.21L26.66 29.53L26.50 29.37Q24.11 29.38 19.32 29.45L19.33 29.47L19.39 29.53Q19.32 33.56 18.75 37.56L18.79 37.61L18.78 37.60Q21.36 36.91 24.11 37.02L24.29 37.21L24.19 37.10Q26.80 37.09 29.39 37.93L29.40 37.93L29.48 38.02Q29.46 38.72 29.73 39.49L29.79 39.54L30.28 41.10L30.28 41.10Q27.13 39.86 23.71 39.86L23.63 39.79L23.66 39.81Q18.78 39.81 14.52 42.05L14.45 41.98L14.60 42.13Q16.84 35.23 16.57 28.11L16.63 28.18L16.61 28.16Q16.36 21.02 13.70 14.35ZM13.98 42.73L14.04 42.79L14.03 42.79Q15.36 42.13 16.12 41.78L16.00 41.67L16.13 41.79Q15.88 42.50 15.31 44.02L15.32 44.03L15.35 44.06Q19.77 41.97 24.83 42.24L24.78 42.19L24.88 42.28Q30.12 42.66 34.12 45.36L34.14 45.38L33.95 45.19Q32.77 42.64 32.09 40.70L32.09 40.71L32.23 40.84Q31.11 40.10 30.12 39.76L30.14 39.78L30.17 39.81Q29.86 38.52 29.71 37.72L29.67 37.67L29.63 37.63Q26.64 36.74 23.48 36.74L23.40 36.66L23.36 36.62Q22.19 36.59 21.05 36.71L21.08 36.74L21.23 36.88Q21.34 35.63 21.38 34.41L21.36 34.39L21.46 31.90L21.33 31.77Q23.29 31.83 25.08 31.87L24.95 31.74L24.99 31.78Q26.90 31.90 28.69 32.05L28.54 31.90L28.67 32.03Q28.59 31.07 28.59 30.12L28.61 30.14L28.44 28.07L27.83 28.33L27.63 28.14Q27.33 28.32 26.87 28.32L26.88 28.33L26.92 28.37Q26.95 27.72 27.10 26.42L27.02 26.34L27.03 26.35Q25.41 26.56 24.23 26.60L24.27 26.64L24.32 26.69Q23.34 26.66 21.51 26.58L21.37 26.44L21.38 26.45Q21.31 25.05 21.12 22.24L21.21 22.33L21.27 22.38Q22.24 22.44 23.23 22.44L23.12 22.33L23.21 22.42Q27.93 22.42 31.62 20.51L31.57 20.47L31.61 20.50Q32.16 18.12 33.04 15.91L32.97 15.84L33.00 15.88Q31.68 16.73 30.84 17.07L30.82 17.05L30.96 17.19Q31.26 16.42 31.72 14.86L31.58 14.73L31.74 14.89Q26.91 16.83 22.04 16.53L22.04 16.53L22.17 16.66Q16.77 16.25 12.93 13.39L12.95 13.41L12.94 13.40Q15.81 20.35 16.12 27.97L16.24 28.09L16.23 28.08Q16.56 36.03 14.05 42.80Z"/><path fill="#222" d="M121.38 30.47L121.37 30.46L121.30 30.39Q117.83 36.75 114.41 40.71L114.33 40.62L114.41 40.71Q112.65 41.23 110.21 42.10L110.20 42.09L110.19 42.08Q115.02 36.41 119.78 28.00L119.88 28.09L119.72 27.93Q115.27 21.12 109.29 14.73L109.21 14.65L109.27 14.70Q112.18 15.90 114.46 16.40L114.40 16.34L114.33 16.26Q119.09 21.59 121.52 25.55L121.58 25.61L121.44 25.47Q124.10 21.20 128.02 16.78L127.93 16.69L127.85 16.61Q129.55 16.41 132.75 15.65L132.68 15.58L132.65 15.54Q126.71 22.14 123.25 28.07L123.22 28.04L123.18 28.00Q128.36 36.69 132.74 41.26L132.78 41.29L132.67 41.19Q130.16 40.47 128.07 40.24L128.13 40.30L127.99 40.16Q125.29 37.28 121.37 30.46ZM127.88 40.48L128.06 40.65L127.89 40.49Q128.30 40.62 128.75 40.74L128.83 40.82L128.69 40.68Q129.54 41.49 131.07 43.09L131.08 43.10L130.98 43.00Q134.47 43.94 137.52 45.31L137.50 45.30L137.48 45.27Q130.25 38.58 125.15 29.82L125.11 29.78L125.20 29.88Q129.06 23.34 134.96 16.49L134.94 16.46L134.78 16.31Q133.33 16.96 131.16 17.49L131.35 17.68L131.21 17.53Q132.11 16.64 133.86 14.85L133.90 14.89L133.81 14.81Q131.52 15.79 127.83 16.36L127.83 16.36L127.74 16.27Q124.36 20.13 121.77 24.43L121.81 24.47L121.84 24.50Q120.77 22.74 119.59 21.26L119.62 21.29L117.49 18.51L116.96 18.36L116.98 18.38Q116.78 18.33 116.55 18.26L116.66 18.36L116.65 18.36Q115.95 17.50 114.46 15.94L114.52 15.99L114.45 15.93Q110.66 15.07 108.07 13.70L108.09 13.72L107.98 13.60Q114.82 20.98 119.39 28.03L119.41 28.04L119.33 27.97Q114.98 36.29 109.23 42.88L109.20 42.85L109.04 42.69Q110.39 42.05 112.52 41.48L112.66 41.63L111.25 42.96L111.30 43.00Q111.30 43.00 109.97 44.34L109.99 44.36L110.04 44.41Q113.05 43.35 116.21 42.85L116.18 42.82L116.09 42.73Q120.12 38.24 122.71 33.48L122.73 33.49L122.74 33.51Q125.37 37.81 128.07 40.66Z"/><path fill="#333" d="M71.19 41.07L71.14 41.02L71.05 40.94Q67.00 29.80 61.86 24.81L61.74 24.69L61.83 24.78Q63.35 25.47 66.32 26.11L66.16 25.95L66.19 25.98Q69.73 29.90 72.28 36.56L72.23 36.51L72.42 36.71Q74.95 29.23 77.58 26.18L77.59 26.19L77.57 26.17Q79.64 26.15 82.08 25.47L81.91 25.29L81.94 25.33Q78.82 28.10 76.65 32.67L76.59 32.62L76.57 32.59Q76.30 33.36 72.92 40.97L72.93 40.99L72.85 40.91Q72.25 40.99 71.03 40.91ZM75.76 43.43L75.85 43.52L75.75 43.43Q79.01 31.04 83.58 26.36L83.72 26.49L82.07 26.82L82.22 26.98Q81.44 27.22 80.60 27.34L80.61 27.34L80.59 27.33Q81.08 26.94 81.89 26.06L81.81 25.97L81.76 25.92Q82.67 25.14 83.13 24.72L83.02 24.62L83.07 24.67Q80.94 25.39 77.52 25.89L77.43 25.80L77.44 25.81Q74.72 28.99 72.66 34.59L72.62 34.55L72.75 34.68Q71.16 30.54 69.33 28.06L69.30 28.03L68.80 28.06L68.78 28.04Q68.37 27.89 68.14 27.89L68.09 27.85L68.26 28.02Q68.01 27.65 66.30 25.60L66.28 25.58L66.20 25.50Q62.94 25.10 60.70 23.95L60.65 23.91L60.65 23.91Q66.85 29.69 70.85 41.42L70.77 41.34L71.87 41.45L71.83 41.40Q72.16 42.04 73.00 43.34L72.99 43.33L74.30 43.27L74.35 43.31Q75.09 43.34 75.74 43.42Z"/><path fill="#333" d="M97.74 29.93L97.74 29.94L97.62 29.81Q95.21 29.80 93.88 31.02L93.76 30.90L93.91 31.06Q92.49 32.19 92.80 34.70L92.82 34.73L92.88 34.78Q93.02 37.13 94.23 38.38L94.40 38.55L94.25 38.40Q95.51 39.92 97.64 39.85L97.59 39.80L97.65 39.86Q98.06 39.69 98.25 39.69L98.38 39.83L98.27 39.71Q101.86 39.16 101.97 34.55L101.97 34.55L101.84 34.42Q102.10 32.24 101.41 31.44L101.31 31.34L101.24 31.27Q100.22 30.01 97.66 29.86ZM101.12 41.73L101.11 41.72L101.12 41.73Q99.70 42.21 98.14 42.14L98.13 42.13L98.04 42.04Q94.29 42.33 93.00 39.74L93.00 39.74L92.96 39.70Q92.94 45.20 91.60 49.46L91.43 49.29L91.56 49.41Q89.71 49.85 88.07 50.57L88.18 50.68L88.03 50.53Q90.66 44.63 90.39 37.66L90.30 37.58L90.27 37.54Q90.07 30.76 87.18 24.70L87.28 24.81L87.31 24.84Q89.26 26.03 90.97 26.48L90.93 26.44L91.39 27.85L91.30 27.76Q91.48 28.17 91.75 29.28L91.75 29.28L91.85 29.38Q92.86 27.30 96.43 27.11L96.42 27.09L96.47 27.14Q97.33 27.09 98.21 27.09L98.15 27.03L98.63 27.01L98.54 26.93Q98.77 27.05 98.97 27.09L98.84 26.97L99.30 27.12L99.17 26.99Q101.35 27.38 102.07 27.61L102.08 27.61L102.08 27.61Q103.45 27.95 104.32 28.91L104.43 29.01L104.46 29.04Q105.24 30.16 105.20 31.57L105.13 31.51L105.26 31.63Q105.20 34.42 104.40 37.09L104.41 37.11L104.40 37.09Q103.43 40.65 101.07 41.68ZM105.26 42.22L105.29 42.21L105.26 42.17Q106.43 40.26 106.73 36.15L106.71 36.12L106.71 36.13Q106.89 34.40 106.89 33.15L106.84 33.09L106.94 33.20Q106.80 31.53 106.04 30.13L106.16 30.25L106.11 30.20Q105.76 29.81 105.26 29.43L105.21 29.38L104.95 29.00L104.80 28.73L104.86 28.69L104.76 28.58Q103.01 26.53 98.67 26.53L98.78 26.64L98.23 26.69L98.04 26.51Q93.54 26.65 91.90 28.25L91.94 28.29L91.87 28.21Q91.67 27.68 91.52 27.18L91.41 27.07L91.20 26.06L91.26 26.13Q88.77 25.50 86.56 24.01L86.64 24.09L86.53 23.98Q89.86 30.36 90.17 37.59L90.16 37.59L90.09 37.52Q90.36 44.75 87.51 51.22L87.50 51.22L89.54 50.40L89.46 50.32Q89.28 51.13 88.60 52.70L88.51 52.61L88.50 52.59Q91.36 51.69 93.68 51.35L93.58 51.24L93.69 51.36Q94.75 46.48 94.91 42.75L94.77 42.61L94.82 42.66Q96.17 44.09 99.79 44.32L99.95 44.48L99.98 44.51Q103.91 44.75 105.36 42.31L105.30 42.26ZM99.66 32.20L99.70 32.24L99.68 32.22Q100.36 32.17 101.46 32.51L101.31 32.37L101.32 32.37Q101.71 33.48 101.67 34.66L101.66 34.65L101.63 34.63Q101.67 35.58 101.48 36.23L101.49 36.24L101.36 36.11Q100.77 39.13 98.26 39.44L98.15 39.33L98.38 39.44L98.39 39.45Q98.12 39.27 98.01 39.31L98.01 39.30L97.52 39.35L97.54 39.37Q96.39 39.40 95.40 38.90L95.32 38.82L95.01 36.80L95.09 36.88Q94.96 34.58 96.26 33.55L96.10 33.40L96.12 33.42Q97.15 32.36 99.55 32.09Z"/></svg>