<svg xmlns="http://www.w3.org/2000/svg" width="150" height="50" viewBox="0,0,150,50"><path fill="#111" d="M70.09 39.99L70.00 39.90L70.04 39.94Q65.82 39.34 64.00 37.90L63.93 37.83L63.92 37.82Q62.12 36.40 61.70 33.39L61.67 33.36L61.71 33.40Q61.79 33.14 61.45 28.38L61.39 28.32L61.45 28.38Q61.42 27.13 61.34 25.87L61.38 25.91L61.47 26.00Q61.16 20.82 63.37 19.07L63.33 19.03L63.47 19.17Q66.16 17.10 73.93 16.42L73.91 16.41L73.78 16.27Q75.15 16.15 76.78 16.19L76.79 16.20L76.72 16.12Q76.86 16.27 79.83 16.27L79.79 16.23L79.81 16.25Q80.58 16.18 82.29 16.33L82.26 16.30L82.29 16.33Q81.74 17.23 80.71 20.31L80.78 20.37L80.85 20.45Q78.65 19.12 75.64 19.12L75.66 19.14L75.66 19.14Q75.00 19.24 74.20 19.32L74.07 19.19L74.15 19.27Q69.06 19.74 66.55 21.72L66.57 21.74L66.49 21.66Q64.43 23.21 64.28 26.56L64.39 26.68L64.32 26.60Q64.33 27.27 64.37 28.52L64.29 28.45L64.32 28.47Q64.41 33.28 66.81 35.38L66.94 35.51L66.85 35.42Q68.98 37.32 73.97 37.62L73.97 37.63L74.09 37.75Q77.16 37.85 80.17 36.06L80.05 35.94L80.18 36.07Q80.82 38.85 81.43 40.22L81.32 40.11L81.40 40.18Q79.35 40.50 77.71 40.46L77.54 40.29L77.65 40.39Q73.20 40.36 70.08 39.98ZM85.17 43.69L85.11 43.63L85.17 43.68Q83.27 40.57 82.58 37.98L82.69 38.09L82.67 38.07Q82.23 38.32 81.24 38.70L81.18 38.64L81.25 38.70Q80.95 37.95 80.76 37.11L80.63 36.98L80.27 35.29L80.24 35.26Q77.06 37.41 73.94 37.29L74.02 37.37L74.03 37.38Q69.76 37.18 67.43 35.43L67.40 35.40L67.38 35.38Q66.22 33.53 66.29 30.60L66.27 30.57L66.35 30.66Q66.44 26.10 68.92 23.97L68.97 24.03L68.91 23.97Q71.02 22.04 75.70 21.43L75.75 21.48L75.67 21.40Q76.58 21.39 77.30 21.39L77.31 21.40L77.32 21.41Q79.98 21.29 82.07 22.81L82.13 22.87L82.09 22.83Q82.68 20.79 83.90 17.56L83.87 17.53L83.78 17.44Q83.58 17.50 83.02 17.44L83.04 17.46L83.11 17.53Q82.40 17.31 82.13 17.31L82.21 17.39L82.18 17.36Q82.39 16.85 82.84 15.86L82.80 15.81L82.95 15.96Q82.60 15.85 80.11 15.77L80.08 15.74L80.19 15.85Q77.57 15.65 76.92 15.68L76.95 15.71L76.91 15.67Q66.49 16.10 63.02 18.68L62.93 18.60L63.08 18.74Q61.00 20.51 61.00 24.43L61.01 24.44L61.08 24.51Q61.01 25.54 61.12 28.24L61.18 28.31L61.09 28.22Q61.13 31.68 61.36 33.40L61.46 33.49L61.50 33.53Q61.89 36.67 63.49 38.19L63.37 38.07L63.47 38.17Q63.87 38.76 65.13 39.90L65.25 40.02L65.27 40.04Q68.50 41.79 73.75 42.55L73.77 42.56L73.81 42.61Q80.21 43.53 85.20 43.72Z"/><path fill="#333" d="M24.93 39.86L24.82 39.75L22.90 39.78L22.95 39.83Q22.05 39.88 21.10 39.99L21.08 39.98L21.14 40.03Q21.55 33.67 21.55 29.67L21.61 29.72L21.68 29.79Q17.61 23.02 9.95 14.34L10.04 14.43L10.05 14.44Q11.83 15.42 15.18 16.22L15.24 16.28L15.25 16.29Q20.28 21.85 23.29 27.06L23.25 27.03L23.27 27.05Q26.17 21.38 30.55 16.36L30.71 16.52L30.55 16.36Q33.11 16.11 35.63 15.31L35.52 15.20L35.55 15.23Q29.52 21.34 24.65 29.76L24.64 29.75L24.57 29.68Q24.53 36.68 24.83 39.76ZM34.06 17.32L36.67 14.37L36.81 14.51Q33.61 15.58 30.49 16.03L30.52 16.06L30.47 16.01Q26.33 20.82 23.52 25.92L23.43 25.84L23.37 25.78Q21.34 22.22 18.14 18.34L18.17 18.37L18.19 18.39Q17.92 18.38 17.42 18.31L17.44 18.32L17.37 18.26Q16.60 17.37 15.07 15.69L15.16 15.78L15.08 15.69Q11.85 15.09 8.88 13.53L8.86 13.51L8.76 13.42Q16.64 22.05 21.40 29.97L21.26 29.84L21.31 29.88Q21.16 36.17 20.55 40.32L20.58 40.35L20.59 40.36Q21.31 40.31 22.75 40.20L22.71 40.15L22.70 41.17L22.84 41.32Q22.86 41.79 22.79 42.33L22.77 42.31L22.69 42.23Q26.23 42.23 27.98 42.42L28.08 42.52L27.90 42.34Q26.64 37.66 26.53 31.68L26.57 31.72L26.59 31.74Q31.05 23.37 37.60 16.03L37.65 16.07L33.97 17.23Z"/><path fill="#444" d="M49.53 39.80L49.56 39.83L47.54 39.75L47.62 39.82Q46.60 39.76 45.65 39.88L45.77 39.99L45.75 39.98Q46.35 33.80 46.35 29.81L46.31 29.76L46.30 29.75Q42.26 23.01 34.61 14.33L34.60 14.32L34.62 14.34Q36.40 15.32 39.75 16.12L39.92 16.29L39.89 16.27Q44.87 21.77 47.87 26.99L48.00 27.11L47.99 27.10Q50.82 21.36 55.19 16.34L55.21 16.35L55.32 16.47Q57.76 16.09 60.27 15.29L60.23 15.24L60.18 15.20Q54.08 21.23 49.20 29.65L49.23 29.67L49.18 29.63Q49.33 36.82 49.64 39.90ZM58.71 17.30L61.37 14.40L61.37 14.41Q58.20 15.50 55.08 15.96L55.19 16.07L55.19 16.06Q50.90 20.72 48.08 25.82L48.16 25.90L48.17 25.91Q46.06 22.28 42.86 18.39L42.78 18.31L42.84 18.38Q42.54 18.34 42.04 18.26L42.00 18.22L42.14 18.35Q41.35 17.45 39.82 15.77L39.74 15.70L39.76 15.71Q36.44 15.02 33.47 13.45L33.42 13.41L33.40 13.39Q41.20 21.95 45.96 29.87L46.02 29.93L46.06 29.97Q45.86 36.20 45.25 40.35L45.27 40.37L45.32 40.42Q45.95 40.28 47.39 40.17L47.50 40.28L47.42 41.22L47.50 41.30Q47.42 41.68 47.34 42.22L47.42 42.29L47.38 42.25Q50.98 42.31 52.73 42.50L52.73 42.50L52.69 42.46Q51.42 37.77 51.31 31.79L51.34 31.82L51.38 31.87Q55.63 23.29 62.18 15.94L62.29 16.05L58.72 17.32Z"/><path fill="#333" d="M119.60 28.96L119.57 28.92L119.56 28.92Q116.94 28.85 115.92 30.03L115.89 30.00L116.08 30.20Q114.93 31.25 114.93 33.88L115.02 33.97L114.94 33.89Q114.97 39.02 119.58 38.83L119.52 38.77L119.59 38.85Q121.58 38.93 122.93 37.37L123.10 37.54L122.93 37.37Q124.36 35.89 124.13 33.83L124.08 33.77L124.15 33.85Q124.21 31.36 123.34 30.33L123.21 30.21L123.16 30.16Q121.80 28.95 119.59 28.95ZM124.66 38.77L124.65 38.77L124.55 38.66Q123.47 41.24 118.79 41.24L118.77 41.22L117.31 41.21L117.30 41.20Q114.98 41.24 113.88 40.10L113.72 39.94L113.84 40.07Q112.78 39.00 112.51 36.60L112.51 36.60L112.58 36.67Q112.29 35.05 112.21 33.26L112.37 33.41L112.36 33.40Q112.33 32.42 112.18 30.48L112.07 30.38L112.06 30.36Q111.95 26.07 117.13 26.07L117.21 26.15L118.78 26.16L118.68 26.06Q121.62 26.10 123.71 27.39L123.77 27.45L123.76 27.44Q124.60 27.98 125.09 28.66L125.07 28.64L125.01 28.58Q125.25 27.76 125.79 26.12L125.75 26.08L125.89 26.22Q127.13 26.05 129.45 25.44L129.34 25.34L129.40 25.39Q126.85 29.66 126.85 34.92L126.84 34.90L126.69 34.75Q126.75 38.55 128.12 41.63L128.09 41.59L128.14 41.64Q127.04 41.38 125.14 41.16L125.13 41.14L125.08 41.10Q124.80 40.17 124.49 38.61ZM127.88 43.90L127.80 43.82L130.09 44.48L130.16 44.54Q131.35 44.82 132.34 45.27L132.28 45.22L132.39 45.32Q128.61 40.86 128.61 34.77L128.75 34.91L128.71 34.87Q128.75 30.38 130.88 26.57L130.75 26.44L130.75 26.44Q130.23 26.80 128.90 27.18L128.76 27.04L128.77 27.04Q129.09 26.26 129.97 24.74L130.12 24.89L130.00 24.77Q129.51 25.05 125.51 25.89L125.52 25.89L124.90 27.68L124.82 27.59Q123.11 25.92 118.69 25.69L118.66 25.65L118.72 25.71Q117.65 25.79 115.40 25.94L115.27 25.81L115.43 25.97Q111.66 26.23 111.77 30.26L111.79 30.28L111.71 30.20Q111.86 33.55 112.43 38.01L112.43 38.00L112.47 38.47L112.56 38.56Q112.62 39.33 113.42 40.44L113.36 40.38L113.40 40.42Q113.59 40.61 113.78 40.72L113.77 40.71L113.68 40.63Q114.07 41.24 114.45 41.81L114.45 41.82L114.48 41.84Q115.84 43.32 119.23 43.51L119.27 43.55L119.13 43.41Q120.91 43.67 121.07 43.67L120.89 43.49L122.58 43.62L122.52 43.56Q125.64 43.49 126.86 41.93L126.99 42.06L126.96 42.03Q127.39 42.72 128.00 44.02ZM121.34 31.16L121.33 31.14L121.37 31.18Q122.64 31.12 123.48 31.58L123.60 31.70L123.44 31.54Q123.83 32.43 123.83 33.88L123.92 33.97L123.81 33.85Q123.94 35.70 122.67 37.13L122.70 37.16L122.66 37.11Q121.48 38.64 119.58 38.45L119.50 38.38L119.54 38.41Q118.08 38.40 117.05 37.98L117.04 37.97L117.10 38.03Q116.93 37.21 116.93 35.99L116.87 35.93L116.98 36.05Q117.10 32.51 119.72 31.56L119.66 31.49L119.61 31.45Q120.61 31.23 121.41 31.23Z"/><path fill="#222" d="M99.99 29.48L99.98 29.47L100.00 29.50Q98.84 28.75 98.19 28.79L98.13 28.73L98.14 28.74Q96.89 28.93 95.84 29.94L95.73 29.83L95.73 29.83Q94.64 30.80 94.76 32.17L94.80 32.21L94.83 32.24Q95.05 36.49 94.17 41.02L94.34 41.20L94.17 41.02Q92.02 41.54 90.92 42.08L90.89 42.04L90.93 42.08Q92.51 38.00 92.28 33.54L92.26 33.51L92.27 33.53Q92.05 29.05 90.34 24.97L90.21 24.85L90.24 24.87Q91.49 25.66 93.77 26.31L93.62 26.16L94.27 28.94L94.30 28.97Q95.01 26.10 99.27 26.10L99.18 26.01L99.13 25.96Q99.55 25.92 99.85 25.92L99.94 26.01L99.81 25.88Q101.25 26.02 102.51 26.71L102.41 26.61L102.39 26.59Q101.22 28.08 100.08 29.57ZM101.68 31.55L101.78 31.51L101.62 31.35Q102.60 30.26 104.27 27.83L104.29 27.85L104.20 27.75Q103.78 27.45 102.26 27.18L102.26 27.18L102.21 27.13Q102.59 26.87 103.04 26.26L103.13 26.34L103.14 26.35Q101.16 25.36 99.21 25.55L99.19 25.52L99.17 25.51Q97.39 25.86 96.67 26.13L96.63 26.09L96.54 26.00Q95.13 26.41 94.33 27.52L94.27 27.46L94.11 26.65L93.94 25.83L93.95 25.84Q91.63 25.50 89.65 24.17L89.69 24.21L89.58 24.09Q91.66 28.42 91.88 33.29L91.89 33.30L91.97 33.38Q92.23 38.32 90.48 42.85L90.49 42.86L90.36 42.74Q91.44 42.25 92.31 41.95L92.44 42.07L92.33 41.96Q92.09 43.09 91.60 44.16L91.65 44.21L91.65 44.21Q94.55 43.42 96.68 43.31L96.60 43.22L96.75 38.66L96.74 38.65Q96.84 36.39 96.84 34.14L96.82 34.12L96.88 34.17Q96.91 33.03 97.82 32.06L97.86 32.09L97.84 32.07Q98.83 31.18 99.97 31.10L99.84 30.97L99.91 31.04Q100.55 30.92 101.28 31.61L101.31 31.64L101.63 31.50ZM96.65 29.72L96.67 29.66L96.63 29.74L96.67 29.74Z"/></svg>