<svg xmlns="http://www.w3.org/2000/svg" width="150" height="50" viewBox="0,0,150,50"><path fill="#333" d="M94.90 28.58L94.86 28.54L94.91 28.59Q92.12 28.61 91.35 30.86L91.36 30.87L91.35 30.85Q91.17 31.63 91.05 32.27L90.94 32.16L91.03 32.24Q93.61 32.43 95.24 32.43L95.29 32.48L95.19 32.37Q96.99 32.54 99.58 32.43L99.51 32.36L99.41 32.25Q99.31 30.56 97.90 29.49L97.99 29.58L97.91 29.50Q96.64 28.53 94.85 28.53ZM94.92 41.09L94.94 41.11L95.07 41.24Q90.71 41.10 89.41 39.69L89.48 39.76L89.41 39.69Q88.49 38.28 88.34 35.00L88.46 35.12L88.48 35.15Q88.43 34.86 88.35 33.49L88.41 33.55L88.31 33.45Q88.26 31.22 88.26 30.50L88.23 30.47L88.07 30.32Q88.23 28.61 88.95 27.51L88.80 27.36L88.82 27.37Q90.20 25.93 93.17 25.93L93.35 26.12L94.88 26.09L94.77 25.97Q96.86 26.01 98.38 26.32L98.41 26.34L98.41 26.35Q100.41 26.74 101.40 27.96L101.43 27.99L101.42 27.98Q102.03 29.05 102.11 31.14L102.20 31.23L102.19 31.22Q102.05 32.23 102.09 34.40L102.23 34.54L102.20 34.51Q99.29 34.49 96.51 34.49L96.46 34.44L90.84 34.42L90.88 34.45Q91.05 38.89 95.12 38.66L95.24 38.78L95.16 38.70Q99.01 38.59 100.23 36.77L100.19 36.72L100.20 36.73Q101.10 37.30 102.70 38.48L102.72 38.50L102.53 38.30Q101.23 40.77 97.08 41.04L97.20 41.16L97.11 41.06Q96.32 41.04 94.95 41.11ZM97.28 43.48L97.41 43.61L97.36 43.56Q98.44 43.50 99.66 43.58L99.58 43.51L99.71 43.63Q104.56 43.68 105.47 40.90L105.46 40.89L105.59 41.02Q103.92 39.74 102.82 38.98L102.88 39.03L102.91 39.06Q103.05 38.63 103.24 38.40L103.13 38.30L103.10 38.27Q102.42 37.85 101.05 36.90L101.08 36.93L101.06 36.91Q102.04 36.87 104.10 37.17L104.28 37.35L104.14 37.21Q104.00 35.89 103.93 35.21L103.86 35.15L103.88 33.37L103.81 33.30Q103.71 31.00 103.07 29.51L102.94 29.39L102.96 29.40Q102.64 29.01 102.07 28.40L102.25 28.58L102.17 28.51Q102.03 28.21 101.80 27.64L101.80 27.64L101.73 27.57Q99.85 25.54 94.79 25.54L94.83 25.58L93.22 25.64L93.07 25.49Q89.86 25.52 88.41 27.00L88.52 27.11L88.53 27.12Q87.69 28.07 87.73 30.12L87.82 30.22L87.91 30.31Q87.86 31.17 87.97 33.42L88.10 33.55L88.00 33.44Q88.10 35.06 88.21 37.12L88.27 37.18L88.23 37.14Q88.54 39.43 89.42 40.50L89.37 40.45L89.34 40.42Q89.40 40.48 89.59 40.59L89.72 40.72L89.92 41.26L90.08 41.42Q90.73 43.14 97.31 43.52ZM95.28 38.40L95.21 38.33L95.20 38.32Q93.93 38.31 93.02 37.85L93.01 37.85L93.06 37.89Q92.99 37.48 92.80 36.80L92.89 36.89L92.81 36.81Q94.54 36.75 96.14 36.75L96.08 36.69L96.21 36.82Q97.78 36.71 99.45 36.83L99.56 36.93L99.46 36.83Q98.20 38.20 95.19 38.31ZM96.91 31.04L96.90 31.04L96.91 31.04Q97.48 31.01 98.81 31.39L98.84 31.41L99.01 31.77L98.95 31.91L99.02 31.98Q97.58 32.02 96.67 31.98L96.74 32.06L96.76 32.08Q94.46 32.03 94.43 32.03L94.44 32.05L94.31 31.91Q95.11 31.03 96.78 30.92Z"/><path fill="#333" d="M50.17 27.09L50.20 27.12L50.32 27.24Q51.02 27.14 52.43 26.99L52.54 27.11L52.47 27.03Q52.41 27.65 52.41 28.30L52.37 28.27L52.33 29.48L52.32 29.47Q51.65 29.64 50.82 29.72L50.70 29.60L50.81 29.71Q49.96 29.73 49.12 29.70L48.99 29.56L48.99 29.57Q46.25 35.85 42.83 40.46L42.80 40.44L42.87 40.50Q40.28 41.08 38.99 41.68L39.03 41.73L38.94 41.64Q43.04 35.91 46.08 29.63L46.08 29.63L43.52 29.70L43.57 29.75Q43.44 28.28 43.32 26.94L43.30 26.92L43.35 26.97Q45.29 27.16 47.35 27.16L47.32 27.14L49.24 23.46L49.25 23.47Q50.19 21.52 51.41 19.92L51.49 20.00L51.40 19.91Q49.93 20.15 48.33 20.15L48.40 20.23L48.23 20.05Q42.30 20.21 38.53 18.01L38.37 17.84L37.81 16.22L37.74 16.15Q37.40 15.31 37.02 14.43L37.00 14.42L37.06 14.48Q41.35 17.05 47.06 17.28L47.04 17.26L47.10 17.33Q52.20 17.51 57.34 15.53L57.44 15.63L57.50 15.69Q57.19 15.99 56.70 16.87L56.76 16.94L56.80 16.98Q53.07 21.62 50.22 27.14ZM58.41 18.35L58.39 18.33L59.24 16.17L59.23 16.17Q58.26 16.64 56.58 17.36L56.69 17.47L56.83 17.11L56.83 17.11Q56.95 16.97 57.07 16.86L57.02 16.81L57.12 16.91Q57.44 16.17 58.16 14.83L58.19 14.86L58.22 14.89Q52.94 17.22 47.19 16.99L47.15 16.96L47.03 16.83Q41.18 16.74 36.43 13.77L36.36 13.70L36.31 13.65Q37.29 15.47 38.13 18.13L38.17 18.18L38.20 18.20Q39.35 18.90 40.15 19.20L40.05 19.10L40.14 19.19Q40.25 19.49 40.70 21.36L40.72 21.37L40.75 21.41Q43.93 22.68 49.45 22.53L49.47 22.55L49.49 22.57Q49.09 23.04 47.11 26.81L47.13 26.83L47.03 26.74Q45.14 26.89 43.16 26.70L43.12 26.67L43.02 26.57Q43.16 27.47 43.16 28.35L43.24 28.43L43.15 30.05L44.74 29.96L44.78 31.41L44.87 31.50Q40.92 38.86 38.14 42.44L38.11 42.40L38.24 42.53Q39.82 41.76 41.46 41.26L41.43 41.23L41.30 41.10Q40.68 42.08 39.31 43.79L39.31 43.80L39.25 43.73Q42.38 42.61 44.82 42.38L44.83 42.39L44.84 42.40Q47.86 38.72 50.98 31.94L51.07 32.02L54.32 32.05L54.47 32.19Q54.29 31.18 54.29 30.26L54.23 30.20L54.33 28.52L54.22 28.40Q54.02 28.47 53.47 28.51L53.55 28.59L53.51 28.54Q52.95 28.58 52.68 28.58L52.73 28.62L52.65 28.54Q52.71 28.49 52.75 28.34L52.72 28.31L52.76 28.08L52.66 27.99Q55.31 22.99 58.40 18.34Z"/><path fill="#222" d="M129.37 23.37L129.33 23.33L129.21 23.21Q127.63 19.27 121.43 19.46L121.31 19.34L121.28 19.31Q116.94 19.50 114.96 20.95L115.01 20.99L114.91 20.90Q112.59 22.73 112.59 26.84L112.61 26.86L112.51 28.62L112.51 28.62Q112.52 37.46 121.54 37.46L121.65 37.57L121.61 37.54Q123.56 37.42 125.04 36.63L125.21 36.80L125.12 36.70Q126.98 35.71 126.82 33.84L126.79 33.80L126.74 33.75Q126.57 31.69 122.88 30.77L123.00 30.89L121.01 30.85L121.02 30.85Q120.10 30.88 119.15 30.92L119.07 30.84L119.05 30.83Q119.03 29.85 118.99 27.95L119.11 28.06L119.01 27.97Q126.62 27.93 130.81 27.59L130.87 27.64L130.92 27.69Q130.85 28.50 130.85 29.30L130.88 29.33L130.85 29.30Q130.91 30.16 130.95 30.96L130.96 30.97L130.97 30.98Q129.69 30.81 129.69 30.81L129.85 30.97L129.82 30.94Q128.45 30.93 128.83 30.93L128.81 30.91L128.84 30.95Q129.85 32.49 130.23 34.47L130.20 34.43L130.14 34.38Q130.39 35.23 130.39 35.69L130.34 35.65L130.38 35.68Q130.37 40.31 121.57 40.31L121.65 40.40L121.65 40.39Q114.47 40.33 111.88 38.23L111.80 38.15L111.77 38.13Q109.90 35.87 109.90 30.81L109.89 30.80L109.87 30.78Q109.86 29.70 109.70 27.00L109.82 27.11L109.65 26.94Q109.55 24.64 109.59 23.27L109.66 23.34L109.67 23.35Q109.70 20.41 111.07 18.81L111.17 18.91L111.13 18.87Q113.64 16.77 118.51 16.58L118.42 16.49L121.16 16.49L121.15 16.48Q124.23 16.36 127.66 16.78L127.72 16.84L127.62 16.74Q131.38 17.22 132.33 20.46L132.32 20.45L132.40 20.53Q131.41 21.48 129.31 23.31ZM130.64 25.43L130.87 25.55L130.77 25.45Q131.91 24.31 133.78 22.33L133.90 22.45L133.77 22.32Q133.49 21.40 132.50 19.68L132.63 19.81L132.64 19.82Q131.47 17.16 127.66 16.52L127.50 16.35L127.65 16.51Q125.47 16.34 121.17 16.04L121.12 15.99L118.57 16.25L118.43 16.12Q113.36 16.42 110.77 18.40L110.65 18.27L110.68 18.30Q109.37 20.00 109.25 23.08L109.29 23.12L109.14 22.97Q109.19 22.56 109.42 28.05L109.52 28.15L109.59 28.22Q109.59 29.55 109.67 32.29L109.50 32.13L109.59 32.22Q109.74 36.62 111.49 38.56L111.51 38.59L111.43 38.51Q111.86 39.40 112.74 40.27L112.75 40.28L112.84 40.37Q115.76 42.27 121.28 42.61L121.17 42.50L124.15 42.78L124.14 42.77Q125.71 42.86 127.73 42.74L127.62 42.63L127.71 42.72Q129.09 42.58 131.18 42.04L131.22 42.08L131.23 42.09Q133.20 41.63 133.17 39.31L133.13 39.27L133.05 39.19Q133.23 38.11 132.16 35.33L131.98 35.16L132.04 35.21Q131.80 34.36 131.27 33.56L131.33 33.63L131.25 33.55Q131.79 33.51 132.97 33.70L133.04 33.77L133.04 33.77Q132.68 30.10 132.72 29.42L132.85 29.54L132.78 29.48Q132.44 29.52 132.02 29.48L131.89 29.35L131.97 29.43Q131.62 29.42 131.24 29.50L131.20 29.46L131.19 29.45Q131.21 28.37 131.29 27.30L131.21 27.22L131.18 27.20Q124.94 27.73 118.66 27.61L118.65 27.61L118.77 27.72Q118.74 28.57 118.74 29.49L118.82 29.57L118.69 31.19L118.65 31.15Q119.21 31.33 119.63 31.29L119.68 31.34L119.58 31.24Q119.89 31.13 120.35 31.13L120.38 31.16L120.40 31.18Q120.45 31.69 120.49 32.19L120.39 32.09L120.55 32.25Q120.54 32.70 120.50 33.19L120.45 33.14L120.37 33.06Q121.54 33.16 122.57 33.13L122.61 33.17L122.48 33.04Q123.46 32.99 124.49 33.03L124.66 33.20L124.61 33.14Q125.60 33.34 126.47 33.72L126.38 33.63L126.50 33.78L126.40 33.68Q126.75 35.40 125.08 36.32L125.01 36.26L124.93 36.17Q123.41 37.24 121.70 37.24L121.51 37.05L121.65 37.19Q117.83 37.21 115.39 35.46L115.26 35.34L115.32 35.39Q114.30 33.31 114.45 30.76L114.58 30.88L114.50 30.80Q114.91 26.11 116.76 24.12L116.73 24.09L116.69 24.05Q118.58 22.10 123.27 21.79L123.21 21.73L123.28 21.81Q126.86 21.50 128.80 23.29L128.86 23.35L128.71 23.20Q128.92 23.45 129.03 23.64L128.96 23.57L129.17 23.66L129.07 23.56Q129.71 24.31 130.28 25.42L130.35 25.49L130.61 25.41Z"/><path fill="#111" d="M74.15 39.75L74.35 39.95L72.33 39.87L72.39 39.93Q71.44 39.93 70.49 40.05L70.38 39.94L70.33 39.89Q71.01 33.80 71.01 29.80L71.06 29.85L70.95 29.73Q66.98 23.06 59.33 14.38L59.40 14.45L59.42 14.47Q61.16 15.41 64.51 16.21L64.57 16.28L64.48 16.19Q69.55 21.79 72.56 27.00L72.64 27.09L72.53 26.98Q75.63 21.51 80.00 16.48L80.00 16.47L79.96 16.44Q82.34 16.00 84.85 15.20L84.85 15.20L84.95 15.29Q78.82 21.31 73.95 29.73L73.90 29.67L73.97 29.75Q73.85 36.67 74.16 39.76ZM83.41 17.33L86.01 14.38L86.03 14.39Q82.94 15.57 79.82 16.03L79.83 16.04L79.76 15.97Q75.66 20.82 72.84 25.92L72.75 25.82L72.79 25.87Q70.67 22.22 67.47 18.34L67.39 18.26L67.47 18.34Q67.18 18.31 66.68 18.24L66.64 18.19L66.63 18.18Q65.98 17.41 64.45 15.74L64.50 15.79L64.41 15.69Q61.07 14.98 58.10 13.42L58.12 13.44L58.20 13.52Q65.87 21.95 70.63 29.87L70.55 29.79L70.62 29.86Q70.52 36.19 69.91 40.34L69.97 40.40L69.89 40.32Q70.73 40.40 72.17 40.29L72.19 40.30L72.20 41.34L72.11 41.25Q72.21 41.81 72.14 42.34L71.94 42.15L71.99 42.20Q75.62 42.29 77.37 42.48L77.34 42.45L77.38 42.48Q76.13 37.81 76.02 31.83L76.01 31.82L75.92 31.73Q80.37 23.36 86.92 16.01L86.91 16.00L83.42 17.34Z"/><path fill="#444" d="M32.30 22.97L32.48 23.15L32.37 23.03Q30.49 25.69 27.83 31.32L27.90 31.39L25.90 35.64L26.02 35.75Q25.05 37.56 23.71 39.81L23.79 39.88L23.62 39.71Q24.09 39.73 22.42 39.77L22.40 39.76L22.49 39.84Q22.54 39.89 21.28 39.89L21.20 39.81L21.31 39.92Q20.61 38.46 17.68 31.30L17.53 31.15L17.62 31.24Q15.40 25.82 13.31 22.82L13.28 22.79L13.40 22.90Q14.13 25.96 14.13 29.12L14.04 29.03L14.13 29.12Q14.03 35.53 11.06 41.09L11.17 41.20L11.16 41.19Q9.83 41.54 7.47 42.26L7.34 42.12L7.51 42.29Q11.05 36.47 11.05 29.24L11.06 29.25L11.11 29.30Q11.05 20.29 5.64 13.32L5.67 13.35L5.79 13.47Q7.33 14.10 9.69 14.78L9.66 14.76L9.62 14.71Q16.81 21.59 22.90 34.92L22.80 34.82L22.79 34.81Q26.40 27.92 28.61 24.41L28.56 24.36L28.57 24.37Q32.20 18.64 36.16 15.18L36.17 15.18L36.16 15.18Q37.31 14.84 39.67 14.08L39.61 14.02L39.80 14.21Q34.75 20.77 34.75 29.38L34.67 29.29L34.80 29.43Q34.75 36.03 38.17 41.55L38.14 41.52L38.08 41.45Q36.76 41.16 34.02 40.55L34.13 40.66L34.11 40.65Q31.71 35.82 31.71 29.84L31.71 29.83L31.74 29.87Q31.73 26.43 32.41 23.08ZM33.80 40.91L33.81 40.92L33.81 40.92Q34.55 41.09 35.99 41.35L35.97 41.32L36.00 41.36Q36.39 42.06 37.34 43.54L37.51 43.71L37.42 43.62Q39.65 44.13 43.11 45.35L43.01 45.25L43.03 45.27Q36.70 38.86 36.70 29.03L36.69 29.03L36.80 29.14Q36.81 21.42 41.18 15.29L41.12 15.22L38.91 15.91L39.00 16.00Q39.99 14.44 40.64 13.56L40.62 13.54L40.62 13.54Q38.76 14.20 36.13 14.73L36.14 14.74L36.13 14.72Q29.34 20.80 23.28 33.40L23.32 33.44L23.20 33.31Q18.17 22.50 13.22 17.25L13.14 17.16L13.12 17.15Q12.83 17.16 12.26 17.05L12.24 17.02L10.93 15.64L10.95 15.66Q10.42 15.06 9.74 14.45L9.63 14.34L9.71 14.42Q6.57 13.34 4.79 12.62L4.90 12.73L4.84 12.68Q10.90 19.95 10.90 29.36L10.93 29.38L10.82 29.27Q10.75 36.82 6.60 42.68L6.79 42.87L6.72 42.80Q7.42 42.59 8.72 42.17L8.65 42.10L8.65 42.10Q8.64 42.48 7.23 44.57L7.10 44.44L7.11 44.45Q8.91 43.96 12.41 43.20L12.47 43.26L12.40 43.19Q16.19 36.20 16.00 28.44L15.90 28.34L15.90 28.34Q17.42 32.33 20.88 40.21L20.91 40.24L20.90 40.23Q21.20 40.23 21.43 40.23L21.34 40.13L22.01 40.27L21.99 40.25Q22.48 40.97 23.28 42.27L23.24 42.23L23.22 42.21Q24.84 42.19 24.84 42.19L24.89 42.24L24.89 42.24Q25.80 42.13 26.45 42.20L26.54 42.29L26.56 42.31Q28.03 38.18 31.38 30.19L31.34 30.15L31.50 30.31Q31.36 35.73 33.95 41.06Z"/></svg>