<svg xmlns="http://www.w3.org/2000/svg" width="150" height="50" viewBox="0,0,150,50"><path fill="#222" d="M55.30 23.30L55.34 23.34L55.23 23.22Q53.54 19.17 47.33 19.36L47.36 19.39L47.39 19.42Q43.01 19.57 41.03 21.02L40.94 20.92L41.00 20.98Q38.60 22.74 38.60 26.85L38.53 26.78L38.67 28.79L38.55 28.66Q38.65 37.60 47.67 37.60L47.50 37.43L47.69 37.61Q49.61 37.47 51.09 36.67L51.07 36.66L51.21 36.79Q52.91 35.64 52.76 33.77L52.78 33.80L52.88 33.89Q52.60 31.71 48.90 30.79L48.86 30.76L47.08 30.92L47.06 30.89Q46.05 30.83 45.10 30.87L45.11 30.88L45.09 30.86Q45.17 29.99 45.13 28.09L45.01 27.96L45.14 28.10Q52.61 27.91 56.80 27.57L56.79 27.57L56.94 27.72Q56.80 28.45 56.80 29.25L56.81 29.26L56.85 29.30Q56.79 30.04 56.83 30.84L56.88 30.89L56.93 30.94Q55.77 30.88 55.77 30.88L55.88 30.99L55.87 30.98Q54.36 30.84 54.74 30.84L54.79 30.89L54.85 30.95Q55.91 32.55 56.29 34.53L56.19 34.42L56.24 34.48Q56.36 35.21 56.36 35.66L56.27 35.57L56.34 35.64Q56.37 40.32 47.58 40.32L47.60 40.34L47.48 40.22Q40.51 40.37 37.92 38.28L37.92 38.28L37.82 38.18Q35.96 35.93 35.96 30.87L35.87 30.78L35.85 30.76Q35.96 29.81 35.81 27.10L35.82 27.11L35.75 27.04Q35.59 24.68 35.63 23.31L35.70 23.38L35.53 23.21Q35.66 20.37 37.04 18.77L37.18 18.92L37.09 18.82Q39.56 16.70 44.44 16.51L44.56 16.63L47.11 16.44L47.15 16.47Q50.25 16.38 53.67 16.80L53.65 16.78L53.78 16.91Q57.51 17.36 58.46 20.59L58.46 20.60L58.40 20.53Q57.41 21.48 55.32 23.31ZM56.75 25.54L56.79 25.47L56.76 25.44Q57.95 24.35 59.82 22.37L59.88 22.43L59.81 22.36Q59.65 21.56 58.66 19.84L58.52 19.70L58.64 19.82Q57.48 17.18 53.67 16.53L53.58 16.44L53.57 16.43Q51.52 16.39 47.22 16.09L47.15 16.02L44.41 16.10L44.52 16.21Q39.33 16.38 36.74 18.36L36.74 18.37L36.68 18.30Q35.28 19.91 35.16 22.99L35.21 23.04L35.20 23.03Q35.21 22.59 35.44 28.07L35.46 28.08L35.53 28.15Q35.50 29.45 35.57 32.20L35.67 32.29L35.50 32.13Q35.74 36.63 37.49 38.57L37.43 38.50L37.44 38.51Q37.94 39.48 38.82 40.35L38.78 40.32L38.76 40.30Q41.70 42.21 47.22 42.55L47.18 42.51L50.10 42.73L50.10 42.73Q51.70 42.84 53.71 42.72L53.69 42.70L53.77 42.78Q55.23 42.72 57.32 42.19L57.28 42.14L57.19 42.05Q59.21 41.63 59.17 39.31L59.19 39.33L59.24 39.38Q59.11 37.99 58.04 35.21L58.08 35.25L57.99 35.16Q57.72 34.28 57.18 33.48L57.32 33.62L57.26 33.55Q57.87 33.60 59.05 33.79L59.07 33.81L59.08 33.81Q58.68 30.10 58.71 29.41L58.80 29.50L58.82 29.52Q58.35 29.43 57.93 29.39L57.98 29.44L57.93 29.39Q57.53 29.33 57.15 29.41L57.24 29.50L57.21 29.47Q57.28 28.44 57.36 27.37L57.23 27.24L57.35 27.36Q51.04 27.83 44.76 27.72L44.69 27.65L44.68 27.64Q44.82 28.66 44.82 29.57L44.81 29.56L44.66 31.16L44.68 31.17Q45.23 31.35 45.65 31.31L45.67 31.33L45.55 31.21Q46.00 31.25 46.46 31.25L46.38 31.17L46.41 31.20Q46.35 31.59 46.38 32.08L46.43 32.13L46.47 32.17Q46.40 32.55 46.36 33.05L46.39 33.08L46.46 33.15Q47.39 33.01 48.42 32.98L48.49 33.04L48.51 33.06Q49.49 33.02 50.52 33.06L50.53 33.07L50.67 33.20Q51.61 33.35 52.49 33.73L52.39 33.64L52.39 33.67L52.42 33.70Q52.70 35.35 51.03 36.27L51.00 36.24L51.00 36.24Q49.28 37.11 47.56 37.11L47.61 37.15L47.66 37.21Q43.80 37.19 41.36 35.44L41.26 35.34L41.33 35.41Q40.40 33.41 40.55 30.86L40.57 30.87L40.58 30.88Q40.74 25.94 42.58 23.94L42.59 23.95L42.70 24.05Q44.54 22.06 49.23 21.75L49.20 21.72L49.18 21.70Q52.79 21.43 54.73 23.22L54.86 23.35L54.83 23.32Q54.82 23.35 54.93 23.54L55.08 23.68L55.07 23.56L55.07 23.56Q55.72 24.32 56.29 25.43L56.22 25.36L56.71 25.51Z"/><path fill="#222" d="M24.65 39.81L24.67 39.84L24.67 39.84Q22.73 39.79 20.71 39.98L20.65 39.93L20.77 40.04Q21.33 34.70 21.33 29.86L21.29 29.83L21.46 29.99Q21.39 25.02 20.74 19.80L20.67 19.72L20.82 19.88Q16.19 19.44 12.99 17.76L12.98 17.74L12.29 16.03L12.15 15.89Q12.07 15.51 11.46 14.29L11.50 14.32L11.35 14.17Q16.53 16.96 22.55 17.15L22.51 17.11L22.58 17.18Q28.46 17.35 33.90 15.30L33.92 15.31L33.81 15.20Q33.13 16.66 32.48 18.48L32.51 18.51L32.41 18.41Q28.89 19.80 24.62 19.99L24.52 19.89L24.52 19.89Q24.43 25.01 24.43 29.96L24.47 30.00L24.29 29.82Q24.41 34.89 24.71 39.87ZM34.53 14.55L34.43 14.45L34.44 14.46Q28.59 16.72 22.38 16.53L22.47 16.62L22.44 16.58Q15.74 16.36 10.64 13.39L10.77 13.52L10.72 13.47Q11.48 14.76 12.77 18.03L12.76 18.02L12.83 18.09Q13.48 18.40 14.74 18.97L14.74 18.97L14.69 18.93Q14.93 19.63 15.28 21.15L15.24 21.11L15.29 21.16Q17.59 22.01 20.63 22.24L20.68 22.29L20.53 22.14Q20.97 25.89 20.97 29.66L20.99 29.68L20.99 29.68Q21.03 35.08 20.23 40.45L20.21 40.44L20.23 40.45Q21.85 40.29 22.38 40.29L22.45 40.36L22.46 40.36Q22.37 40.58 22.32 41.25L22.40 41.33L22.33 41.26Q22.37 42.03 22.37 42.37L22.27 42.26L22.31 42.30Q23.55 42.29 25.07 42.36L25.08 42.37L24.94 42.23Q25.96 42.38 27.79 42.53L27.71 42.45L27.78 42.53Q26.53 37.58 26.42 32.40L26.49 32.48L26.33 32.32Q26.32 27.13 26.85 22.22L26.72 22.09L26.76 22.12Q30.67 21.54 33.83 20.32L33.96 20.45L33.91 20.41Q34.67 18.08 35.69 16.02L35.62 15.95L35.63 15.95Q34.31 16.66 33.51 16.96L33.50 16.95L33.51 16.96Q33.91 15.65 34.48 14.51Z"/><path fill="#222" d="M112.35 39.07L112.25 38.97L112.21 38.93Q114.08 36.53 118.84 29.26L118.85 29.27L118.76 29.18Q122.99 23.17 125.84 19.89L125.78 19.83L125.76 19.81Q123.73 20.19 121.64 20.19L121.61 20.16L121.58 20.13Q116.26 20.06 112.26 18.27L112.27 18.28L112.28 18.29Q111.61 16.36 110.92 14.80L110.90 14.77L111.02 14.90Q115.48 16.96 121.15 17.07L121.25 17.17L121.14 17.06Q126.26 17.12 131.44 15.21L131.43 15.21L131.49 15.26Q131.19 16.18 130.88 16.98L130.86 16.96L130.19 18.45L130.19 18.46Q127.21 22.18 123.22 28.01L123.23 28.02L119.97 32.90L119.80 32.74Q118.13 35.18 116.31 37.47L116.28 37.44L116.46 37.62Q119.67 36.91 122.99 36.99L123.04 37.04L123.06 37.06Q126.40 37.17 129.56 38.08L129.51 38.03L130.08 39.70L130.09 39.71Q130.27 40.47 130.62 41.31L130.62 41.31L130.65 41.33Q125.88 39.66 120.74 39.85L120.77 39.87L120.70 39.80Q115.58 40.01 111.08 42.03L111.16 42.11L111.25 42.19Q111.52 41.02 112.25 38.96ZM110.53 42.76L110.61 42.85L110.62 42.86Q111.77 42.18 112.57 41.91L112.53 41.88L112.61 41.95Q112.28 42.66 111.60 44.18L111.60 44.18L111.62 44.19Q117.34 42.08 123.32 42.31L123.29 42.28L123.39 42.38Q129.62 42.52 134.65 45.30L134.71 45.36L134.65 45.30Q133.29 42.95 132.49 40.78L132.47 40.76L132.46 40.75Q132.02 40.58 130.50 40.00L130.42 39.93L130.36 39.87Q130.21 39.15 129.80 37.67L129.79 37.66L129.76 37.63Q125.61 36.46 120.51 36.65L120.49 36.63L120.64 36.78Q122.66 33.92 126.20 28.36L126.20 28.36L126.27 28.43Q129.88 22.68 131.79 20.13L131.69 20.03L131.82 20.16Q132.34 18.78 133.37 16.08L133.30 16.01L133.30 16.01Q132.71 16.44 131.26 17.05L131.19 16.98L131.16 16.95Q131.53 16.18 132.25 14.65L132.14 14.55L132.25 14.65Q126.94 16.80 121.23 16.73L121.15 16.65L121.15 16.65Q115.20 16.56 110.25 14.05L110.35 14.15L110.19 13.99Q111.46 16.47 112.18 18.72L112.14 18.68L112.16 18.70Q113.16 19.13 113.96 19.36L114.12 19.52L114.02 19.42Q114.33 20.14 114.59 21.59L114.51 21.51L114.64 21.64Q118.31 22.64 123.18 22.45L123.26 22.53L123.17 22.44Q120.71 25.57 117.40 30.56L117.38 30.54L111.94 38.96L112.03 39.05Q111.60 40.26 110.57 42.81Z"/><path fill="#333" d="M77.81 28.79L77.78 28.76L71.77 28.72L71.77 28.73Q68.82 28.75 65.89 28.67L65.95 28.74L65.91 28.69Q66.12 35.49 64.06 41.01L63.91 40.86L64.03 40.98Q62.22 41.49 60.47 42.17L60.52 42.22L60.44 42.14Q63.13 36.34 63.13 29.68L63.25 29.80L63.19 29.74Q63.21 21.27 59.10 14.23L59.05 14.18L59.07 14.20Q60.70 15.11 63.18 15.91L63.12 15.85L63.15 15.89Q65.31 20.98 65.85 25.85L65.80 25.80L65.75 25.75Q68.86 26.09 71.72 26.05L71.78 26.11L71.90 26.23Q74.47 26.13 77.78 25.87L77.77 25.85L77.79 25.88Q78.27 21.48 80.02 16.38L80.00 16.36L80.02 16.38Q81.85 15.85 84.10 15.02L84.24 15.16L84.13 15.05Q80.64 21.91 80.64 29.87L80.51 29.74L80.56 29.79Q80.56 36.00 82.92 41.33L83.00 41.41L83.01 41.41Q81.24 40.63 79.18 40.33L79.36 40.51L79.20 40.34Q77.51 35.31 77.63 28.61ZM79.05 40.81L78.97 40.73L79.05 40.80Q80.07 40.95 81.18 41.22L81.20 41.25L81.13 41.17Q81.52 41.94 82.17 43.42L82.11 43.37L82.12 43.38Q85.51 44.37 87.30 45.29L87.30 45.29L87.23 45.21Q82.80 39.07 82.49 30.81L82.58 30.90L82.53 30.84Q82.20 22.78 85.85 15.97L85.93 16.05L84.73 16.38L84.79 16.43Q84.35 16.71 83.74 16.86L83.79 16.92L83.65 16.77Q84.09 16.00 84.93 14.44L84.95 14.46L84.93 14.44Q82.34 15.54 79.71 16.04L79.74 16.06L79.59 15.91Q77.90 20.73 77.44 25.41L77.46 25.44L77.45 25.43Q75.12 25.80 72.68 25.80L72.58 25.70L72.57 25.69Q70.16 25.67 67.65 25.52L67.79 25.66L67.62 25.49Q67.45 22.27 66.34 18.20L66.28 18.13L66.40 18.26Q65.77 18.20 64.32 17.82L64.31 17.81L64.17 17.66Q63.84 16.50 63.39 15.47L63.30 15.39L63.41 15.49Q60.57 14.64 58.29 13.38L58.28 13.37L58.33 13.42Q62.86 20.81 62.86 29.61L62.87 29.61L62.99 29.73Q62.98 36.69 59.86 42.82L59.72 42.68L59.83 42.79Q60.53 42.50 61.86 41.93L61.97 42.04L61.93 42.00Q61.46 42.71 60.66 44.23L60.82 44.39L60.77 44.34Q63.53 43.29 65.78 42.87L65.82 42.91L65.73 42.83Q67.61 37.29 67.80 31.12L67.95 31.27L67.79 31.11Q69.52 31.16 72.72 31.12L72.70 31.11L72.71 31.12Q75.47 30.98 77.37 31.06L77.36 31.04L77.42 31.10Q77.73 36.89 79.06 40.82Z"/><path fill="#222" d="M88.99 41.04L89.15 41.20L88.99 41.04Q92.24 36.86 98.94 28.95L99.01 29.02L98.94 28.95Q93.04 29.18 89.27 27.81L89.22 27.76L89.20 27.73Q88.46 26.23 87.70 24.83L87.78 24.91L87.84 24.96Q91.82 26.35 96.27 26.39L96.32 26.44L96.44 26.57Q100.86 26.56 105.04 25.49L104.97 25.43L105.10 25.55Q104.68 26.19 104.41 26.73L104.26 26.58L104.33 26.65Q101.80 28.88 98.98 32.49L99.07 32.58L94.11 38.74L94.14 38.77Q96.28 38.47 98.53 38.55L98.52 38.54L98.48 38.50Q100.84 38.72 103.08 39.10L103.01 39.03L103.04 39.07Q103.21 39.69 103.93 41.71L103.86 41.63L103.94 41.72Q100.10 40.77 96.10 40.88L96.14 40.92L96.13 40.91Q92.19 41.04 88.53 42.22L88.54 42.22L88.59 42.27Q88.57 42.03 89.03 41.08ZM87.86 42.72L87.93 42.79L87.92 42.78Q88.72 42.48 90.32 42.06L90.29 42.04L90.26 42.01Q90.00 42.20 89.58 42.62L89.66 42.70L89.74 42.78Q89.47 43.31 88.86 44.45L88.82 44.41L88.74 44.33Q93.46 43.00 98.45 43.15L98.51 43.21L98.59 43.29Q103.55 43.46 108.12 45.32L108.03 45.23L108.11 45.31Q106.68 43.47 105.77 41.41L105.70 41.34L105.77 41.41Q105.00 41.10 103.94 40.87L103.79 40.73L103.89 40.83Q103.58 39.98 103.20 38.53L103.23 38.56L103.27 38.61Q101.78 38.34 98.20 38.22L98.16 38.18L98.19 38.21Q100.50 34.81 105.53 28.45L105.48 28.41L105.61 28.53Q105.89 27.83 106.58 26.49L106.59 26.51L104.33 27.29L104.29 27.26Q104.34 27.15 104.49 27.04L104.47 27.02L104.59 26.76L104.75 26.92Q105.11 25.75 105.68 24.80L105.64 24.76L105.68 24.80Q100.99 26.13 96.27 26.05L96.34 26.11L96.36 26.14Q91.56 26.06 87.07 24.23L86.95 24.11L87.01 24.17Q88.31 26.16 89.11 28.21L89.10 28.20L88.93 28.04Q89.88 28.45 90.95 28.72L90.92 28.69L90.97 28.74Q91.04 29.31 91.35 30.76L91.47 30.88L91.35 30.76Q92.98 31.06 96.30 31.21L96.27 31.19L96.36 31.28Q93.91 34.54 88.74 40.97L88.74 40.98L88.74 40.98Q88.44 41.52 87.87 42.74Z"/></svg>