<svg xmlns="http://www.w3.org/2000/svg" width="150" height="50" viewBox="0,0,150,50"><path fill="#111" d="M57.13 23.13L57.05 23.05L57.07 23.07Q55.17 25.70 52.51 31.34L52.56 31.38L50.56 35.63L50.59 35.66Q49.66 37.51 48.33 39.76L48.35 39.77L48.44 39.87Q48.77 39.74 47.10 39.78L47.10 39.79L47.08 39.76Q47.07 39.76 45.82 39.76L45.91 39.85L45.87 39.81Q45.14 38.32 42.21 31.16L42.25 31.20L42.22 31.18Q40.13 25.88 38.03 22.88L37.89 22.73L37.92 22.76Q38.66 25.82 38.66 28.98L38.77 29.09L38.77 29.09Q38.66 35.49 35.69 41.05L35.86 41.22L35.86 41.22Q34.38 41.41 32.02 42.14L32.14 42.26L32.03 42.15Q35.69 36.44 35.69 29.21L35.84 29.36L35.82 29.34Q35.84 20.41 30.43 13.45L30.35 13.36L30.37 13.38Q31.97 14.07 34.33 14.76L34.36 14.78L34.40 14.82Q41.38 21.50 47.47 34.82L47.45 34.81L47.42 34.78Q51.08 27.93 53.29 24.43L53.23 24.37L53.24 24.37Q56.75 18.52 60.71 15.06L60.70 15.05L60.72 15.07Q61.99 14.86 64.35 14.10L64.31 14.05L64.44 14.18Q59.40 20.76 59.40 29.36L59.39 29.34L59.36 29.31Q59.33 35.94 62.75 41.46L62.86 41.57L62.87 41.58Q61.50 41.24 58.76 40.63L58.79 40.66L58.76 40.63Q56.42 35.85 56.42 29.88L56.37 29.83L56.31 29.76Q56.33 26.37 57.02 23.02ZM58.52 40.96L58.46 40.90L58.65 41.09Q59.25 41.12 60.70 41.39L60.77 41.46L60.71 41.41Q61.06 42.05 62.01 43.54L62.01 43.54L62.17 43.70Q64.31 44.13 67.78 45.35L67.71 45.28L67.71 45.28Q61.47 38.96 61.47 29.14L61.35 29.02L61.33 29.00Q61.42 21.37 65.80 15.24L65.82 15.26L63.56 15.89L63.56 15.89Q64.54 14.32 65.19 13.45L65.25 13.51L65.18 13.44Q63.45 14.22 60.82 14.75L60.79 14.72L60.81 14.74Q54.05 20.85 48.00 33.45L47.90 33.35L47.94 33.39Q42.80 22.46 37.85 17.21L37.85 17.21L37.88 17.24Q37.36 17.02 36.79 16.91L36.77 16.90L35.64 15.68L35.55 15.60Q35.10 15.07 34.41 14.46L34.29 14.34L34.29 14.34Q31.29 13.39 29.50 12.67L29.45 12.62L29.47 12.64Q35.51 19.90 35.51 29.30L35.52 29.30L35.48 29.27Q35.54 36.94 31.39 42.80L31.27 42.69L31.45 42.86Q31.98 42.48 33.27 42.06L33.43 42.22L33.41 42.19Q33.24 42.41 31.83 44.50L31.76 44.43L31.74 44.41Q33.59 43.98 37.09 43.22L37.19 43.31L37.20 43.32Q40.77 36.12 40.58 28.35L40.67 28.45L40.56 28.33Q42.20 32.45 45.67 40.33L45.65 40.31L45.68 40.34Q45.84 40.20 46.06 40.20L46.14 40.27L46.61 40.21L46.71 40.31Q47.14 40.96 47.94 42.26L47.93 42.25L47.81 42.13Q49.59 42.27 49.59 42.27L49.57 42.25L49.54 42.22Q50.44 42.09 51.08 42.17L51.12 42.21L51.13 42.21Q52.66 38.15 56.01 30.15L56.13 30.28L55.99 30.13Q55.98 35.68 58.57 41.01Z"/><path fill="#222" d="M115.62 19.13L115.64 19.15L115.56 19.08Q116.74 23.60 116.89 26.80L116.90 26.81L116.91 26.82Q117.42 26.87 121.80 26.98L121.77 26.96L121.76 26.94Q124.28 26.96 124.66 23.49L124.72 23.55L124.73 23.56Q124.91 21.80 124.00 20.89L123.97 20.86L124.01 20.89Q122.78 20.05 120.81 19.90L120.79 19.89L120.69 19.79Q117.44 19.55 115.58 19.09ZM117.09 28.83L117.04 28.78L117.08 28.81Q117.27 34.83 115.48 40.77L115.45 40.74L115.49 40.78Q114.17 41.02 111.58 42.05L111.60 42.06L111.72 42.19Q114.50 35.64 114.16 28.18L114.11 28.13L114.15 28.17Q113.85 20.82 110.54 14.31L110.52 14.30L110.58 14.36Q115.45 17.17 122.41 17.17L122.39 17.15L122.36 17.11Q128.05 17.18 128.32 20.72L128.27 20.67L128.28 20.68Q128.22 21.15 128.14 21.76L128.20 21.81L128.19 23.02L128.23 23.06Q127.21 26.81 125.08 28.52L125.26 28.70L125.21 28.64Q124.31 29.24 123.29 29.24L123.39 29.34L120.68 29.22L120.73 29.27Q126.45 36.62 130.98 41.19L130.84 41.05L130.92 41.13Q128.73 40.39 125.80 40.05L125.73 39.98L125.75 40.00Q121.98 36.04 117.07 28.80ZM125.58 40.32L125.67 40.41L125.89 40.33L127.13 41.57L127.27 41.71Q127.76 42.16 128.41 42.77L128.32 42.69L128.47 42.83Q132.00 43.43 135.58 45.30L135.53 45.25L135.60 45.32Q128.54 38.45 123.14 31.52L123.26 31.64L124.99 31.63L124.96 31.59Q127.94 31.49 129.27 26.96L129.40 27.09L129.41 27.10Q130.04 24.83 130.04 22.13L130.01 22.10L130.11 22.20Q129.98 19.79 128.26 19.14L128.32 19.20L128.44 19.31Q128.16 18.77 127.59 18.08L127.57 18.07L127.73 18.23Q126.08 16.80 122.42 16.72L122.23 16.53L122.40 16.70Q114.51 16.54 109.83 13.53L109.74 13.45L109.81 13.51Q113.50 20.29 113.84 27.98L113.88 28.02L113.86 28.00Q114.19 35.94 111.07 42.79L111.15 42.88L110.99 42.71Q112.25 42.15 113.05 41.84L113.16 41.95L112.03 44.10L112.04 44.10Q114.79 43.09 117.46 42.60L117.53 42.67L117.56 42.70Q118.76 37.50 118.95 32.29L119.04 32.37L118.92 32.26Q122.39 37.17 125.55 40.30ZM124.47 22.54L124.40 22.47L124.45 22.51Q124.32 22.62 124.32 22.96L124.36 23.00L124.49 23.70L124.41 23.62Q124.39 24.70 123.70 25.65L123.66 25.61L123.82 25.77Q123.22 26.54 122.31 26.74L122.25 26.67L122.28 26.71Q121.93 26.62 120.33 26.66L120.32 26.65L120.46 26.79Q119.72 26.66 118.88 26.54L119.07 26.73L118.93 26.59Q118.80 25.05 118.46 22.01L118.60 22.15L118.43 21.98Q119.88 22.21 120.56 22.21L120.57 22.22L120.57 22.22Q122.43 22.25 124.37 22.44Z"/><path fill="#222" d="M72.74 40.15L72.69 40.10L70.63 40.32L70.58 40.27Q70.18 40.33 69.21 40.39L69.18 40.35L69.09 40.27Q68.25 40.46 67.76 40.46L67.69 40.39L67.74 40.44Q66.02 40.36 64.99 39.52L65.14 39.67L65.04 39.56Q65.76 38.38 67.40 36.25L67.45 36.31L67.45 36.30Q68.66 37.82 70.86 37.59L70.92 37.64L70.95 37.67Q71.88 37.57 72.53 36.93L72.44 36.84L72.59 36.99Q73.21 36.32 73.10 35.44L72.97 35.31L73.09 35.44Q73.03 30.88 73.11 26.31L72.97 26.18L73.05 26.25Q73.11 21.68 73.64 17.07L73.63 17.06L73.63 17.05Q75.54 16.83 77.67 15.80L77.57 15.70L77.60 15.74Q75.71 22.44 75.71 29.67L75.79 29.76L75.87 29.84Q75.84 33.35 76.30 36.86L76.19 36.75L76.16 36.71Q76.26 37.08 76.26 37.43L76.24 37.40L76.36 37.53Q76.32 38.05 76.09 38.59L76.10 38.60L76.18 38.68Q75.57 39.90 72.75 40.16ZM77.71 43.02L77.66 42.98L78.04 43.02L78.35 42.91L78.48 42.65L78.53 42.70Q78.79 42.40 78.87 42.28L79.00 42.41L78.82 42.23Q79.19 41.23 78.93 40.24L78.81 40.13L78.87 40.19Q77.51 34.38 77.78 28.02L77.73 27.97L77.77 28.01Q77.99 21.87 79.78 15.97L79.72 15.91L79.76 15.95Q78.86 16.57 77.60 17.30L77.63 17.33L77.59 17.29Q77.81 16.56 78.23 15.03L78.19 14.99L78.33 15.13Q75.75 16.39 73.08 16.70L73.16 16.77L73.08 16.70Q72.71 21.08 72.63 26.03L72.71 26.10L72.68 26.08Q72.52 31.89 72.59 35.32L72.75 35.47L72.66 35.38Q72.61 37.05 70.86 37.20L70.98 37.32L71.05 37.40Q69.26 37.43 67.58 35.79L67.60 35.81L67.53 35.73Q65.49 38.26 64.53 39.82L64.57 39.86L64.57 39.86Q65.27 40.56 66.30 40.79L66.26 40.75L66.24 40.73Q66.12 40.84 65.85 41.06L65.88 41.10L65.96 41.18Q67.27 41.99 69.25 42.26L69.35 42.35L69.22 42.22Q69.64 42.30 72.93 42.60L72.94 42.62L72.96 42.63Q76.22 42.90 77.59 42.90Z"/><path fill="#222" d="M25.98 30.83L25.99 30.84L26.11 30.96Q26.10 29.42 25.28 28.51L25.32 28.55L25.35 28.58Q24.57 27.70 23.12 27.74L23.05 27.67L23.14 27.76Q20.71 27.72 19.87 29.86L19.88 29.86L19.98 29.97Q19.61 30.66 19.57 31.35L19.54 31.32L19.49 31.26Q19.39 36.23 18.48 40.57L18.51 40.60L18.42 40.51Q16.81 41.11 14.94 42.10L14.81 41.96L15.00 42.15Q17.13 35.03 16.86 27.72L16.98 27.84L16.92 27.78Q16.70 20.48 14.15 13.66L14.05 13.56L14.07 13.59Q15.90 14.96 17.92 15.65L17.83 15.56L17.80 15.53Q19.25 21.31 19.44 27.18L19.60 27.34L19.55 27.29Q20.91 25.19 23.62 25.26L23.59 25.24L23.64 25.29Q28.63 25.29 28.74 30.65L28.73 30.64L28.77 30.68Q28.93 36.40 30.30 41.04L30.29 41.03L30.27 41.01Q28.51 40.29 26.76 40.10L26.80 40.13L26.67 40.00Q26.26 36.86 26.15 31.00ZM26.30 40.28L26.33 40.31L26.30 40.28Q27.34 40.40 28.44 40.67L28.46 40.69L28.47 40.70Q28.65 40.99 29.18 42.97L29.10 42.89L29.11 42.90Q32.14 43.91 34.16 45.36L34.00 45.21L34.05 45.26Q31.31 39.42 30.77 33.10L30.92 33.25L30.90 33.23Q30.50 29.45 29.10 27.89L29.17 27.96L29.19 27.98Q29.01 27.73 28.37 27.27L28.42 27.33L28.45 27.35Q28.13 26.77 27.49 26.01L27.57 26.10L27.53 25.97L27.60 26.05Q26.66 25.10 23.53 24.84L23.61 24.91L23.68 24.98Q22.87 24.90 21.46 25.24L21.47 25.24L21.54 25.32Q21.29 20.42 20.95 17.91L20.97 17.94L20.92 17.88Q20.11 17.72 18.63 17.42L18.65 17.44L18.66 17.45Q18.42 16.64 18.15 15.15L18.18 15.18L18.32 15.33Q15.34 14.32 13.47 12.76L13.38 12.66L13.35 12.64Q16.44 19.91 16.71 27.72L16.64 27.65L16.63 27.64Q16.99 35.50 14.44 42.85L14.31 42.72L14.44 42.85Q15.31 42.20 16.46 41.71L16.34 41.59L15.61 43.87L15.63 43.89Q18.73 42.53 20.71 42.34L20.77 42.40L20.83 42.46Q21.42 37.07 21.61 33.11L21.52 33.02L21.65 33.15Q21.64 31.21 23.59 30.10L23.62 30.14L23.54 30.06Q24.12 29.88 24.66 29.92L24.64 29.90L24.73 30.00Q24.80 29.91 25.14 29.95L25.17 29.97L25.56 30.02L25.66 30.13Q25.60 30.44 25.71 30.90L25.63 30.81L25.79 30.97Q25.91 36.96 26.41 40.39Z"/><path fill="#333" d="M101.45 40.88L101.56 40.99L101.50 40.93Q100.15 39.19 98.85 36.11L98.91 36.17L96.89 31.15L96.86 31.11Q95.16 35.01 94.55 36.30L94.51 36.26L94.60 36.35Q93.19 39.32 91.59 41.22L91.55 41.18L91.60 41.23Q91.25 41.27 90.49 41.38L90.34 41.23L90.33 41.22Q90.31 33.78 84.49 27.84L84.61 27.96L84.57 27.92Q82.75 26.03 80.74 24.54L80.90 24.71L80.74 24.55Q82.72 25.23 84.59 25.54L84.58 25.54L84.57 25.52Q90.67 30.52 92.12 36.76L92.03 36.67L92.02 36.66Q93.04 34.94 94.22 31.75L94.17 31.70L94.06 31.58Q95.40 27.83 95.97 26.53L96.10 26.66L97.48 26.63L97.48 26.63Q98.38 28.37 99.56 31.64L99.57 31.65L99.60 31.68Q100.79 35.20 101.44 36.60L101.40 36.56L101.47 36.63Q103.30 30.36 108.78 25.79L108.72 25.72L108.73 25.73Q109.90 25.61 112.64 25.04L112.73 25.13L112.79 25.19Q104.07 31.13 102.89 41.10L102.77 40.98L102.26 41.01L102.30 41.05Q101.77 40.82 101.43 40.86ZM104.56 43.45L106.59 43.62L106.56 43.59Q106.14 41.96 106.14 40.43L106.20 40.49L106.16 40.45Q106.32 37.38 107.73 34.14L107.65 34.06L107.74 34.15Q109.71 29.61 113.82 26.53L113.66 26.36L113.73 26.43Q112.57 26.76 110.71 27.10L110.70 27.10L110.58 26.98Q112.71 25.49 114.01 24.58L114.01 24.58L111.42 24.96L111.39 24.93Q110.25 25.24 108.91 25.39L108.83 25.30L108.89 25.36Q103.75 29.63 101.81 34.65L101.76 34.61L101.73 34.57Q101.10 32.42 99.73 28.16L99.74 28.17L99.68 28.11Q99.48 28.25 99.22 28.25L99.14 28.18L98.72 28.29L98.62 28.19Q98.50 27.88 97.70 26.12L97.78 26.20L95.69 26.17L95.75 26.23Q94.77 29.02 92.68 34.66L92.53 34.51L92.68 34.66Q91.34 30.96 88.26 27.69L88.20 27.63L88.28 27.71Q87.87 27.56 87.56 27.52L87.66 27.63L87.02 27.44L87.02 27.44Q86.28 26.73 84.49 25.14L84.53 25.18L84.47 25.11Q81.32 24.48 79.65 23.99L79.50 23.84L79.52 23.86Q90.42 31.48 90.03 41.80L89.99 41.75L89.89 41.65Q90.11 41.68 90.47 41.64L90.53 41.70L90.42 41.59Q90.79 41.56 90.98 41.56L91.03 41.61L91.10 41.68Q91.03 41.46 91.22 43.56L91.34 43.67L93.22 43.46L93.17 43.41Q95.84 40.67 98.09 34.93L98.11 34.95L97.93 34.77Q99.42 38.63 101.29 41.29L101.28 41.28L101.42 41.42Q101.69 41.35 101.96 41.37L101.86 41.27L102.01 41.42Q102.25 41.42 102.52 41.42L102.51 41.40L104.61 43.51Z"/></svg>