<svg xmlns="http://www.w3.org/2000/svg" width="150" height="50" viewBox="0,0,150,50"><path fill="#333" d="M19.16 29.62L19.26 29.72L19.28 29.74Q19.24 33.96 18.52 38.11L18.46 38.06L18.52 38.11Q20.71 37.49 23.80 37.38L23.72 37.30L23.86 37.44Q25.15 37.59 26.22 36.58L26.14 36.51L26.25 36.61Q27.32 35.61 27.32 34.28L27.35 34.30L27.17 34.12Q27.27 33.92 27.23 33.66L27.13 33.55L27.28 33.71Q27.09 30.73 24.84 29.89L24.82 29.87L24.73 29.78Q24.05 29.56 23.36 29.64L23.33 29.60L23.38 29.65Q22.22 29.48 21.19 29.52L21.30 29.63L21.33 29.66Q20.11 29.55 19.09 29.55ZM17.98 19.23L17.89 19.14L18.04 19.29Q18.93 22.61 19.20 26.99L19.20 26.99L19.20 27.00Q20.53 27.00 23.20 27.03L23.21 27.05L23.30 27.13Q26.06 27.00 26.40 23.46L26.41 23.47L26.50 23.56Q26.76 21.69 25.35 20.85L25.28 20.78L25.18 20.68Q24.34 20.22 19.93 19.57L20.04 19.69L19.90 19.55Q18.93 19.50 18.02 19.27ZM14.29 42.07L14.39 42.17L14.35 42.13Q16.74 35.38 16.47 28.00L16.56 28.08L16.46 27.99Q16.18 20.70 13.24 14.22L13.34 14.32L13.27 14.25Q17.19 16.91 23.41 17.16L23.24 16.99L23.37 17.12Q29.54 17.31 29.89 20.21L29.80 20.12L29.89 20.21Q30.22 22.98 28.82 25.65L28.90 25.73L28.73 25.57Q28.14 27.21 26.54 27.90L26.40 27.76L26.40 27.76Q30.04 28.44 30.27 33.80L30.34 33.88L30.43 33.96Q30.35 34.91 30.28 36.32L30.26 36.30L30.36 36.40Q30.32 37.73 29.39 38.67L29.28 38.56L29.44 38.72Q28.43 39.57 27.09 39.72L27.10 39.73L27.08 39.70Q25.72 39.91 24.66 39.91L24.52 39.78L24.57 39.83Q18.82 39.78 14.29 42.07ZM27.15 42.45L27.09 42.38L27.09 42.38Q27.97 42.39 29.83 42.50L29.99 42.66L29.92 42.59Q31.39 42.68 32.49 41.81L32.34 41.66L32.49 41.81Q33.17 40.77 33.06 39.21L33.06 39.22L33.05 39.21Q32.98 38.26 32.25 34.80L32.40 34.94L32.24 34.78Q31.69 31.68 29.82 30.19L29.78 30.15L29.29 29.24L29.30 29.26Q31.06 27.93 31.63 24.16L31.59 24.12L31.52 24.05Q31.70 22.94 31.63 21.53L31.63 21.53L31.58 21.49Q31.58 20.23 30.48 19.39L30.60 19.51L30.52 19.44Q30.19 19.22 30.08 19.18L30.01 19.11L30.09 19.19Q29.83 18.67 28.99 17.87L29.03 17.91L29.00 17.87Q27.48 16.81 23.25 16.62L23.22 16.58L23.23 16.60Q16.65 16.37 12.65 13.48L12.70 13.53L12.71 13.53Q16.00 20.56 16.31 28.10L16.15 27.94L16.19 27.99Q16.64 35.93 13.82 42.86L13.76 42.79L15.71 41.74L15.84 41.87Q15.44 43.00 14.95 44.14L14.87 44.06L14.97 44.16Q19.29 42.31 24.31 42.31L24.32 42.32L24.16 42.16Q25.75 42.34 27.20 42.49ZM24.97 31.85L24.95 31.83L25.02 31.91Q25.70 31.78 26.62 32.24L26.54 32.17L26.69 32.31Q26.74 32.59 26.89 33.66L26.88 33.64L26.78 33.54Q27.03 34.98 26.10 36.03L26.21 36.14L26.07 35.99Q25.12 37.03 23.71 36.91L23.81 37.01L22.37 37.17L22.27 37.07Q21.60 37.20 20.88 37.32L20.80 37.24L20.82 37.26Q21.15 35.45 21.22 31.99L21.15 31.92L21.21 31.98Q21.87 31.91 23.13 31.87L23.13 31.87L23.15 31.90Q24.35 31.80 24.96 31.84ZM23.97 22.29L24.01 22.33L24.40 22.33L24.33 22.26Q24.49 22.20 24.68 22.24L24.66 22.21L25.06 22.23L25.45 22.43L26.08 22.54L26.14 22.59Q26.22 22.82 26.22 23.13L26.16 23.07L26.12 23.56L26.16 23.60Q26.21 24.91 25.34 25.84L25.30 25.81L25.25 25.76Q24.30 26.62 23.09 26.62L23.20 26.74L23.26 26.79Q22.12 26.68 22.12 26.68L22.20 26.76L22.22 26.78Q20.76 26.61 21.10 26.61L21.23 26.74L21.10 26.61Q21.16 25.19 20.86 22.14L20.92 22.20L20.92 22.20Q22.42 22.26 23.94 22.26Z"/><path fill="#222" d="M46.67 19.71L46.60 19.64L46.71 19.75Q44.60 19.74 43.65 19.89L43.62 19.86L43.75 19.99Q42.09 20.19 40.87 20.72L40.82 20.68L40.84 20.70Q37.41 22.21 37.30 26.90L37.21 26.81L37.30 26.90Q37.08 29.42 37.73 32.35L37.86 32.49L37.75 32.38Q38.61 36.39 42.22 37.57L42.26 37.61L42.24 37.59Q44.14 38.16 45.59 38.00L45.62 38.04L46.06 38.02L46.05 38.01Q46.31 38.08 46.50 38.11L46.42 38.04L46.50 38.11Q46.66 38.13 46.81 38.09L46.75 38.02L46.65 37.93Q49.31 37.69 50.68 37.12L50.84 37.28L47.14 33.62L47.25 33.73Q47.46 33.30 48.07 32.69L48.08 32.69L49.01 31.80L49.08 31.86Q50.92 33.93 52.90 35.99L52.91 36.00L52.79 35.88Q55.17 34.11 55.44 28.74L55.50 28.81L55.51 28.82Q55.54 27.85 55.54 26.94L55.50 26.90L55.47 26.87Q55.53 21.26 50.47 20.16L50.41 20.10L50.42 20.11Q49.11 19.79 46.60 19.64ZM59.45 41.78L59.42 41.75L59.46 41.79Q58.78 42.13 57.60 43.01L57.60 43.01L53.21 39.35L53.15 39.28Q50.66 40.49 46.40 40.53L46.48 40.61L46.56 40.69Q39.84 40.63 37.02 38.38L37.20 38.57L37.11 38.48Q35.24 36.61 34.79 33.64L34.88 33.73L34.87 33.72Q34.76 32.01 34.38 28.43L34.34 28.40L34.21 28.27Q34.39 27.72 34.28 25.97L34.25 25.95L34.20 25.89Q33.97 24.25 34.00 23.38L34.04 23.41L34.09 23.46Q34.18 20.39 35.93 18.83L35.94 18.84L36.02 18.92Q37.48 17.52 40.67 17.03L40.63 16.98L40.67 17.02Q43.14 16.63 46.03 16.71L46.05 16.73L46.06 16.74Q53.47 16.76 56.59 19.12L56.57 19.10L56.55 19.08Q58.84 21.34 58.58 26.25L58.54 26.21L58.48 26.16Q58.44 29.95 58.25 31.29L58.19 31.23L58.22 31.26Q57.46 35.64 55.13 37.96L55.13 37.96L55.23 38.06Q56.68 39.27 59.42 41.75ZM54.46 17.37L54.54 17.45L54.49 17.40Q52.49 16.70 45.98 16.20L46.02 16.24L45.93 16.16Q44.69 16.32 41.91 16.44L41.86 16.38L41.90 16.43Q37.62 16.60 35.37 18.58L35.44 18.64L35.38 18.58Q33.63 19.96 33.63 23.12L33.78 23.27L33.77 23.25Q33.64 23.97 33.80 25.68L33.87 25.76L33.78 25.66Q34.02 27.46 34.02 28.34L34.02 28.35L34.02 28.34Q34.16 30.08 34.54 33.66L34.61 33.73L34.62 33.74Q34.82 36.45 36.42 38.50L36.45 38.53L36.54 38.63Q36.94 39.52 38.16 40.67L38.07 40.58L38.04 40.55Q40.73 42.51 45.90 42.77L45.91 42.78L45.93 42.80Q46.35 42.88 48.75 42.99L48.63 42.87L48.80 43.04Q53.47 43.07 55.76 42.01L55.77 42.02L55.81 42.06Q56.61 42.67 61.33 46.25L61.35 46.27L61.41 46.33Q61.98 45.75 63.27 44.76L63.31 44.80L63.22 44.71Q62.34 44.02 61.54 43.33L61.71 43.50L60.04 42.03L60.10 41.94L60.00 41.83Q59.55 41.49 58.33 40.47L58.36 40.50L58.28 40.41Q60.12 37.84 60.12 33.31L60.24 33.43L60.12 33.31Q60.14 32.92 60.18 32.08L60.21 32.10L60.18 32.07Q60.30 31.33 60.30 30.91L60.23 30.83L60.17 30.78Q60.33 25.42 59.61 23.06L59.57 23.02L59.47 22.91Q59.24 21.77 58.36 20.71L58.24 20.58L58.18 20.53Q57.54 18.55 54.61 17.52ZM48.51 22.01L48.58 22.08L48.58 22.07Q52.63 21.98 54.46 23.57L54.46 23.58L54.51 23.63Q55.02 24.79 55.13 26.12L55.19 26.17L55.05 26.03Q55.22 27.39 55.14 28.76L55.22 28.83L55.14 28.75Q54.76 33.67 52.82 35.38L52.88 35.44L52.86 35.42Q51.47 34.03 48.96 31.29L49.04 31.37L49.08 31.41Q48.23 32.08 46.67 33.65L46.77 33.74L46.58 33.55Q47.20 34.21 48.34 35.39L48.30 35.35L48.34 35.50L48.26 35.43Q48.88 36.01 49.91 37.08L49.91 37.07L50.00 37.17Q48.92 37.34 46.59 37.64L46.62 37.67L45.97 37.55L45.66 37.66L45.72 37.76L45.63 37.67Q42.16 37.66 40.18 36.02L40.10 35.94L40.23 36.07Q39.15 33.93 39.19 30.81L39.18 30.79L39.22 30.84Q39.29 22.04 48.47 21.96Z"/><path fill="#222" d="M122.07 40.15L122.03 40.10L120.01 40.37L120.00 40.36Q119.53 40.34 118.55 40.40L118.62 40.46L118.61 40.45Q117.50 40.37 117.00 40.37L116.98 40.35L117.10 40.47Q115.35 40.35 114.32 39.51L114.42 39.62L114.29 39.49Q115.15 38.44 116.79 36.31L116.80 36.32L116.82 36.34Q118.00 37.83 120.21 37.60L120.32 37.71L120.22 37.61Q121.20 37.56 121.85 36.92L121.82 36.89L121.79 36.85Q122.46 36.23 122.35 35.36L122.42 35.43L122.41 35.43Q122.19 30.70 122.26 26.14L122.37 26.24L122.43 26.31Q122.45 21.68 122.99 17.08L122.82 16.91L122.93 17.02Q124.81 16.77 126.94 15.74L127.05 15.85L126.89 15.69Q125.11 22.52 125.11 29.75L125.12 29.76L125.18 29.81Q125.09 33.27 125.55 36.77L125.60 36.83L125.56 36.78Q125.57 37.06 125.57 37.40L125.64 37.47L125.69 37.52Q125.69 38.09 125.46 38.62L125.42 38.59L125.52 38.68Q124.83 39.82 122.01 40.08ZM127.08 43.06L126.93 42.92L127.36 43.00L127.50 42.72L127.89 42.73L127.91 42.75Q128.11 42.38 128.19 42.26L128.25 42.33L128.28 42.36Q128.47 41.18 128.21 40.19L128.11 40.10L128.22 40.20Q126.87 34.40 127.13 28.04L127.10 28.00L127.03 27.94Q127.25 21.80 129.04 15.90L129.13 15.99L129.20 16.06Q128.33 16.71 127.07 17.43L126.90 17.26L126.95 17.31Q127.15 16.56 127.57 15.04L127.69 15.16L127.56 15.03Q125.01 16.32 122.34 16.63L122.47 16.75L122.36 16.64Q122.03 21.07 121.95 26.02L121.99 26.06L121.93 26.00Q122.01 32.05 122.09 35.48L121.96 35.35L122.04 35.43Q121.95 37.06 120.20 37.21L120.21 37.22L120.20 37.20Q118.65 37.48 116.97 35.84L116.88 35.76L116.92 35.80Q114.85 38.29 113.90 39.85L113.94 39.89L113.98 39.93Q114.44 40.40 115.47 40.62L115.57 40.72L115.60 40.75Q115.57 40.95 115.30 41.18L115.18 41.06L115.25 41.13Q116.68 42.06 118.66 42.33L118.74 42.42L118.69 42.36Q119.06 42.39 122.35 42.69L122.40 42.74L122.31 42.65Q125.63 42.98 127.00 42.98Z"/><path fill="#111" d="M64.95 47.09L64.94 47.08L64.98 47.12Q63.91 47.19 62.00 47.49L62.04 47.53L62.06 47.55Q63.29 45.31 64.32 44.02L64.35 44.05L64.49 44.19Q66.21 44.47 66.36 44.47L66.22 44.33L66.30 44.41Q66.70 44.58 67.23 44.46L67.09 44.32L67.12 44.35Q67.81 44.28 68.00 44.28L67.97 44.25L68.12 44.40Q70.54 44.00 70.46 41.83L70.50 41.87L70.45 41.82Q70.40 40.32 70.28 34.07L70.34 34.13L70.33 34.12Q70.31 30.60 70.38 26.45L70.28 26.35L71.79 26.25L71.84 26.30Q72.39 26.10 73.08 25.87L73.19 25.98L73.09 25.88Q72.93 30.36 72.97 34.74L72.91 34.68L72.86 34.63Q73.04 39.15 73.57 43.53L73.52 43.48L73.43 43.39Q73.62 43.80 73.62 44.07L73.65 44.10L73.62 44.07Q73.62 45.71 71.94 46.09L71.85 46.00L71.82 45.97Q68.83 46.48 64.98 47.13ZM71.69 22.85L69.58 19.74L69.55 19.71Q70.63 18.36 72.46 15.58L72.51 15.63L72.50 15.62Q73.19 16.54 74.52 18.37L74.45 18.29L71.70 22.86ZM74.82 49.57L74.63 49.38L74.62 49.38Q75.17 49.43 75.93 49.09L76.02 49.18L75.94 49.10Q76.30 48.43 76.30 47.97L76.32 47.99L76.41 48.09Q76.27 47.60 76.16 46.99L76.19 47.03L76.21 47.04Q74.91 40.68 74.91 32.76L74.91 32.76L74.95 32.80Q74.84 29.83 74.99 26.94L75.05 27.01L74.96 26.92Q74.58 27.25 73.44 27.56L73.35 27.47L73.30 27.42Q73.32 26.95 73.36 26.42L73.38 26.44L73.41 25.29L73.53 25.40Q71.71 25.95 69.92 25.99L69.93 26.00L70.02 26.08Q69.84 30.28 69.88 33.86L69.87 33.85L70.13 41.84L70.03 41.74Q70.15 43.76 67.98 43.88L68.00 43.90L68.00 43.90Q67.81 43.94 67.30 43.99L67.30 44.00L67.32 44.01Q66.71 43.97 66.44 43.97L66.45 43.98L66.56 44.10Q65.93 43.92 64.37 43.50L64.49 43.62L64.53 43.66Q63.93 44.12 62.82 45.80L62.91 45.89L61.27 48.09L61.32 48.14Q62.19 47.95 63.83 47.57L63.92 47.66L63.52 48.44L62.81 48.91L62.85 48.95Q65.08 48.75 66.42 48.82L66.57 48.98L66.53 48.94Q68.81 49.09 74.75 49.51ZM71.70 23.61L71.61 23.53L71.97 23.00L71.98 23.02Q72.45 23.56 73.40 25.16L73.27 25.03L73.42 25.18Q74.90 22.02 76.46 18.93L76.47 18.94L76.37 18.84Q75.53 17.40 74.58 16.10L74.50 16.02L74.54 16.06Q74.32 16.26 73.98 16.79L74.01 16.83L73.96 16.78Q73.57 16.16 72.58 14.86L72.61 14.89L72.55 14.84Q71.46 16.52 69.13 19.87L69.05 19.78L69.06 19.79Q70.05 21.08 71.76 23.67Z"/><path fill="#333" d="M89.06 41.11L89.00 41.05L89.07 41.12Q92.13 36.75 98.83 28.83L98.83 28.83L98.90 28.91Q93.03 29.16 89.26 27.79L89.16 27.69L89.30 27.84Q88.65 26.42 87.89 25.01L87.71 24.83L87.71 24.84Q91.93 26.46 96.38 26.50L96.36 26.48L96.45 26.57Q100.76 26.46 104.94 25.40L104.97 25.42L105.03 25.48Q104.51 26.03 104.24 26.56L104.23 26.55L104.32 26.64Q101.84 28.91 99.02 32.53L99.03 32.54L94.10 38.73L94.16 38.78Q96.42 38.61 98.67 38.69L98.62 38.64L98.52 38.54Q100.79 38.67 103.03 39.05L102.99 39.01L102.95 38.97Q103.12 39.60 103.84 41.62L103.83 41.61L103.84 41.61Q100.15 40.81 96.15 40.93L96.21 40.99L96.20 40.98Q92.08 40.93 88.42 42.11L88.52 42.20L88.47 42.16Q88.53 41.99 88.99 41.03ZM88.04 42.90L87.93 42.80L87.97 42.84Q88.74 42.50 90.34 42.08L90.30 42.05L90.43 42.17Q90.15 42.35 89.73 42.77L89.71 42.75L89.76 42.80Q89.40 43.24 88.79 44.38L88.76 44.35L88.76 44.35Q93.54 43.08 98.53 43.23L98.50 43.20L98.43 43.14Q103.39 43.30 107.96 45.17L108.10 45.31L108.06 45.27Q106.55 43.33 105.63 41.28L105.69 41.33L105.76 41.40Q104.93 41.03 103.86 40.80L103.88 40.81L103.83 40.77Q103.71 40.12 103.33 38.67L103.21 38.55L103.39 38.73Q101.73 38.29 98.16 38.17L98.29 38.31L98.27 38.28Q100.54 34.85 105.57 28.50L105.59 28.51L105.66 28.59Q105.93 27.87 106.62 26.54L106.50 26.42L104.24 27.21L104.30 27.26Q104.28 27.10 104.44 26.98L104.38 26.92L104.73 26.89L104.66 26.82Q105.18 25.82 105.75 24.87L105.65 24.77L105.64 24.76Q101.01 26.14 96.29 26.06L96.36 26.14L96.42 26.19Q91.54 26.04 87.05 24.21L87.10 24.27L87.07 24.23Q88.12 25.97 88.92 28.02L89.02 28.13L88.99 28.10Q89.81 28.38 90.87 28.65L90.84 28.61L90.89 28.66Q91.15 29.42 91.46 30.87L91.45 30.86L91.39 30.80Q92.97 31.05 96.28 31.20L96.38 31.30L96.34 31.26Q93.96 34.59 88.78 41.02L88.74 40.98L88.79 41.03Q88.51 41.59 87.94 42.80Z"/></svg>