<svg xmlns="http://www.w3.org/2000/svg" width="150" height="50" viewBox="0,0,150,50"><path fill="#333" d="M68.31 19.33L68.36 19.38L68.31 19.33Q69.18 23.59 69.33 27.17L69.30 27.13L69.42 27.25Q70.43 27.24 71.50 27.24L71.45 27.19L73.77 27.30L73.81 27.34Q74.84 27.30 75.71 25.89L75.62 25.81L75.69 25.87Q76.42 24.70 76.53 23.52L76.49 23.47L76.47 23.45Q76.87 20.47 72.65 19.97L72.63 19.95L72.71 20.04Q71.06 20.02 68.43 19.45ZM69.47 30.04L69.42 30.00L69.39 29.96Q69.32 36.17 68.18 40.59L68.10 40.52L68.06 40.47Q66.75 41.03 64.43 42.10L64.41 42.08L64.32 41.98Q66.80 35.44 66.53 28.17L66.49 28.13L66.54 28.18Q66.16 20.72 63.38 14.29L63.45 14.35L63.41 14.32Q67.62 17.16 73.87 17.16L73.78 17.07L73.80 17.10Q79.85 17.09 80.00 20.55L79.96 20.51L79.90 20.45Q80.16 23.07 79.17 25.73L79.02 25.58L79.12 25.68Q78.70 26.79 77.75 28.01L77.69 27.95L77.69 27.95Q76.45 29.64 73.90 29.91L73.90 29.91L73.82 29.83Q71.65 29.94 69.41 29.98ZM75.47 32.16L75.49 32.19L75.46 32.15Q79.67 32.44 80.93 27.65L80.90 27.62L80.84 27.56Q81.93 24.04 81.78 22.02L81.76 22.00L81.73 21.97Q81.58 20.42 80.82 19.43L80.86 19.47L80.81 19.42Q80.47 19.07 79.97 18.85L80.00 18.87L79.99 18.87Q80.02 18.74 79.41 17.98L79.42 17.99L79.47 18.04Q77.91 16.71 73.95 16.71L73.78 16.54L73.79 16.55Q67.00 16.64 62.77 13.48L62.85 13.56L62.82 13.53Q65.99 20.63 66.26 28.09L66.14 27.97L66.23 28.06Q66.45 35.66 63.78 42.74L63.84 42.80L63.90 42.86Q64.86 42.10 65.84 41.72L65.90 41.78L65.58 42.98L65.57 42.97Q65.25 43.42 64.99 43.99L64.96 43.96L65.09 44.09Q67.50 43.04 70.40 42.51L70.38 42.48L70.31 42.42Q71.28 37.04 71.36 32.32L71.33 32.29L71.36 32.32Q72.48 32.25 73.47 32.25L73.35 32.14L73.46 32.25Q74.61 32.06 75.41 32.10ZM74.64 22.35L74.63 22.34L74.55 22.26Q75.02 22.23 76.01 22.46L76.12 22.57L76.03 22.48Q76.19 22.76 76.23 23.06L76.21 23.05L76.28 23.11Q76.16 23.21 76.08 23.48L76.21 23.61L76.11 23.52Q76.07 24.81 75.35 25.68L75.27 25.61L75.36 25.69Q74.74 26.71 73.71 26.90L73.66 26.85L73.65 26.83Q72.92 26.84 71.29 26.84L71.35 26.90L71.30 26.85Q71.25 24.56 71.02 22.19L71.14 22.31L72.75 22.25L72.74 22.23Q73.63 22.29 74.51 22.21Z"/><path fill="#222" d="M53.05 28.70L53.04 28.69L47.05 28.68L47.06 28.69Q44.22 28.81 41.28 28.73L41.19 28.64L41.36 28.80Q41.49 35.53 39.43 41.05L39.30 40.91L39.25 40.86Q37.42 41.35 35.66 42.03L35.80 42.17L35.85 42.22Q38.60 36.48 38.60 29.81L38.49 29.70L38.55 29.77Q38.49 21.22 34.38 14.18L34.48 14.27L34.35 14.15Q35.94 15.01 38.41 15.81L38.38 15.78L38.34 15.74Q40.49 20.82 41.02 25.69L41.10 25.77L41.09 25.76Q44.25 26.14 47.11 26.11L47.23 26.23L47.20 26.20Q49.77 26.11 53.09 25.84L53.17 25.93L53.08 25.83Q53.65 21.53 55.40 16.43L55.38 16.41L55.34 16.37Q57.37 16.04 59.62 15.20L59.45 15.04L59.47 15.05Q55.95 21.89 55.95 29.84L55.94 29.84L55.99 29.88Q55.98 36.08 58.34 41.41L58.18 41.25L58.34 41.41Q56.74 40.80 54.69 40.50L54.70 40.51L54.67 40.48Q52.83 35.30 52.95 28.60ZM54.43 40.85L54.26 40.68L54.43 40.86Q55.46 41.00 56.56 41.27L56.49 41.20L56.50 41.21Q56.72 41.81 57.37 43.30L57.55 43.48L57.39 43.32Q60.73 44.26 62.52 45.18L62.62 45.27L62.69 45.34Q58.16 39.10 57.85 30.83L57.84 30.83L57.94 30.92Q57.57 22.83 61.23 16.01L61.15 15.94L60.09 16.40L60.04 16.35Q59.68 16.71 59.07 16.86L59.03 16.82L59.11 16.90Q59.41 15.98 60.25 14.42L60.27 14.44L60.23 14.41Q57.58 15.45 54.95 15.94L54.98 15.97L55.01 16.00Q53.32 20.82 52.87 25.51L52.87 25.51L52.78 25.42Q50.36 25.70 47.92 25.70L47.93 25.71L47.97 25.75Q45.51 25.69 42.99 25.53L43.13 25.66L43.13 25.67Q42.81 22.30 41.71 18.23L41.65 18.18L41.71 18.23Q40.98 18.07 39.53 17.69L39.54 17.70L39.63 17.79Q39.14 16.47 38.69 15.44L38.69 15.44L38.68 15.43Q35.89 14.62 33.61 13.37L33.65 13.41L33.73 13.49Q38.34 20.96 38.34 29.75L38.22 29.62L38.22 29.63Q38.35 36.73 35.23 42.86L35.10 42.73L35.21 42.84Q35.82 42.46 37.15 41.89L37.25 41.98L37.31 42.04Q36.77 42.68 35.97 44.21L35.97 44.20L36.14 44.38Q38.95 43.38 41.20 42.96L41.11 42.87L41.21 42.97Q42.92 37.26 43.11 31.09L43.25 31.24L43.09 31.08Q44.78 31.09 47.98 31.05L48.03 31.10L47.89 30.96Q50.92 31.10 52.83 31.18L52.74 31.09L52.67 31.02Q52.96 36.79 54.29 40.71Z"/><path fill="#111" d="M14.96 41.01L15.06 41.11L15.14 41.19Q18.13 36.76 24.83 28.84L24.93 28.93L24.97 28.97Q19.02 29.16 15.25 27.79L15.31 27.84L15.32 27.85Q14.61 26.38 13.85 24.98L13.79 24.92L13.84 24.96Q17.97 26.51 22.43 26.55L22.33 26.45L22.45 26.57Q26.75 26.45 30.93 25.39L30.97 25.42L31.07 25.52Q30.66 26.17 30.39 26.71L30.33 26.65L30.33 26.64Q27.79 28.86 24.97 32.48L25.06 32.57L20.04 38.67L20.06 38.69Q22.37 38.56 24.62 38.64L24.60 38.62L24.67 38.69Q26.80 38.69 29.05 39.07L29.06 39.08L28.94 38.96Q29.14 39.62 29.87 41.64L29.83 41.60L29.79 41.56Q26.11 40.78 22.12 40.89L22.17 40.95L22.11 40.89Q18.10 40.95 14.45 42.13L14.57 42.26L14.56 42.24Q14.57 42.03 15.03 41.08ZM13.88 42.74L13.90 42.76L14.01 42.88Q14.73 42.49 16.33 42.08L16.41 42.15L16.28 42.02Q16.04 42.24 15.62 42.66L15.66 42.70L15.64 42.68Q15.42 43.26 14.81 44.40L14.76 44.35L14.86 44.45Q19.49 43.03 24.48 43.18L24.59 43.29L24.51 43.21Q29.47 43.38 34.04 45.25L34.04 45.24L34.13 45.33Q32.51 43.29 31.59 41.23L31.64 41.28L31.65 41.29Q30.84 40.94 29.78 40.71L29.84 40.77L29.81 40.74Q29.72 40.12 29.34 38.67L29.27 38.61L29.26 38.60Q27.67 38.23 24.09 38.11L24.23 38.25L24.27 38.29Q26.60 34.91 31.63 28.56L31.57 28.50L31.61 28.53Q31.79 27.73 32.48 26.39L32.49 26.41L30.19 27.15L30.31 27.27Q30.35 27.16 30.50 27.05L30.42 26.97L30.71 26.88L30.69 26.85Q31.13 25.77 31.70 24.82L31.59 24.71L31.71 24.83Q27.02 26.15 22.30 26.07L22.34 26.11L22.40 26.18Q17.45 25.95 12.96 24.12L13.12 24.29L12.96 24.12Q14.27 26.12 15.07 28.18L14.98 28.09L15.11 28.22Q15.90 28.47 16.96 28.74L16.85 28.62L16.91 28.69Q17.02 29.29 17.32 30.73L17.50 30.91L17.45 30.86Q19.05 31.13 22.37 31.28L22.39 31.31L22.36 31.27Q19.89 34.52 14.71 40.95L14.85 41.09L14.73 40.97Q14.47 41.55 13.90 42.77Z"/><path fill="#333" d="M90.91 19.09L90.93 19.11L91.00 19.18Q92.14 23.67 92.29 26.86L92.21 26.79L92.33 26.91Q92.71 26.83 97.09 26.94L97.15 27.01L97.18 27.03Q99.74 27.08 100.12 23.62L100.12 23.62L100.19 23.69Q100.29 21.85 99.38 20.94L99.39 20.95L99.33 20.88Q98.01 19.95 96.03 19.79L96.10 19.86L96.10 19.87Q92.91 19.68 91.05 19.23ZM92.46 28.86L92.34 28.74L92.34 28.74Q92.67 34.90 90.88 40.84L90.80 40.75L90.75 40.71Q89.55 41.07 86.96 42.10L86.97 42.11L87.05 42.19Q89.83 35.64 89.49 28.17L89.43 28.11L89.34 28.03Q89.19 20.83 85.88 14.32L85.87 14.32L85.80 14.24Q90.68 17.07 97.65 17.07L97.66 17.08L97.74 17.16Q103.24 17.03 103.50 20.57L103.59 20.65L103.59 20.65Q103.72 21.31 103.64 21.92L103.63 21.91L103.42 22.92L103.41 22.91Q102.67 26.93 100.54 28.64L100.47 28.57L100.55 28.66Q99.63 29.22 98.60 29.22L98.62 29.24L96.11 29.31L96.19 29.40Q101.79 36.63 106.32 41.20L106.17 41.05L106.25 41.13Q103.94 40.27 101.01 39.92L101.08 40.00L101.03 39.95Q97.31 36.03 92.40 28.80ZM101.00 40.41L100.88 40.29L101.22 40.33L102.58 41.69L102.47 41.58Q103.17 42.24 103.82 42.85L103.73 42.76L103.79 42.82Q107.34 43.44 110.92 45.30L110.96 45.34L110.81 45.20Q103.93 38.50 98.52 31.58L98.49 31.54L100.25 31.55L100.20 31.50Q103.34 31.56 104.67 27.03L104.68 27.03L104.64 26.99Q105.35 24.82 105.35 22.11L105.30 22.06L105.37 22.13Q105.37 19.84 103.66 19.20L103.75 19.29L103.65 19.19Q103.65 18.93 103.08 18.24L103.07 18.23L102.93 18.09Q101.30 16.69 97.65 16.62L97.62 16.58L97.67 16.64Q89.82 16.51 85.13 13.51L85.14 13.51L85.14 13.51Q88.92 20.38 89.27 28.07L89.23 28.04L89.17 27.97Q89.57 35.99 86.45 42.84L86.39 42.78L86.45 42.84Q87.58 42.14 88.38 41.84L88.38 41.84L87.47 44.20L87.37 44.10Q90.29 43.25 92.95 42.76L92.85 42.65L92.89 42.69Q94.04 37.45 94.23 32.23L94.26 32.27L94.28 32.28Q97.77 37.22 100.93 40.34ZM99.72 22.46L99.72 22.45L99.73 22.47Q99.70 22.67 99.70 23.01L99.67 22.98L99.73 23.60L99.66 23.54Q99.83 24.81 99.15 25.76L99.01 25.63L99.12 25.74Q98.49 26.48 97.58 26.67L97.51 26.61L97.63 26.73Q97.24 26.60 95.65 26.64L95.77 26.77L95.72 26.71Q95.17 26.77 94.33 26.66L94.38 26.71L94.21 26.54Q94.21 25.13 93.87 22.09L93.82 22.04L93.93 22.14Q95.34 22.34 96.03 22.34L95.85 22.16L95.93 22.25Q97.76 22.25 99.70 22.44Z"/><path fill="#111" d="M124.84 41.20L124.98 41.34L121.96 41.17L121.93 41.15Q119.46 40.96 118.66 40.85L118.75 40.94L118.63 40.82Q116.91 40.58 115.73 39.70L115.72 39.70L115.63 39.60Q114.38 38.25 114.16 34.90L114.12 34.86L114.17 34.91Q114.14 34.43 114.07 33.21L114.06 33.20L114.07 33.21Q114.07 32.79 113.99 31.69L114.05 31.74L113.99 31.69Q113.87 30.76 113.90 30.04L113.91 30.04L113.88 30.01Q114.13 28.13 115.16 27.37L115.14 27.35L115.20 27.41Q117.05 26.17 121.88 25.95L121.87 25.94L121.89 25.95Q124.08 26.01 124.88 26.01L124.73 25.86L124.85 25.99Q126.33 25.98 127.70 26.28L127.71 26.30L127.60 26.18Q127.13 27.54 126.60 29.37L126.58 29.35L126.53 29.30Q126.00 29.34 125.50 29.30L125.54 29.34L125.56 29.35Q125.44 29.32 124.91 29.20L124.94 29.23L123.92 28.93L124.00 29.01Q122.82 28.64 122.21 28.68L122.22 28.68L122.30 28.77Q117.45 28.71 116.84 31.53L116.87 31.56L116.93 31.61Q116.61 32.70 116.68 33.66L116.78 33.75L116.80 33.77Q116.91 36.32 118.15 37.40L118.19 37.45L118.15 37.40Q119.32 38.42 121.91 38.46L122.04 38.59L121.93 38.49Q123.41 38.51 124.13 38.21L124.21 38.29L125.24 37.79L125.10 37.65Q125.72 37.51 126.29 37.44L126.25 37.39L126.22 37.37Q126.53 39.23 126.91 40.53L126.99 40.61L127.00 40.62Q126.66 40.89 124.87 41.23ZM128.16 44.22L128.13 44.19L128.14 44.19Q128.45 44.17 129.29 44.24L129.41 44.36L129.42 44.37Q130.02 44.36 130.36 43.79L130.41 43.84L130.33 43.76Q129.19 41.74 128.69 39.65L128.58 39.53L128.65 39.61Q128.38 39.64 127.92 39.64L127.90 39.62L127.92 39.63Q127.37 39.51 126.99 39.70L127.12 39.82L126.94 39.65Q126.59 38.38 126.43 36.97L126.53 37.06L126.55 37.09Q125.85 36.92 124.63 37.49L124.68 37.54L124.68 37.54Q123.54 38.19 123.05 38.19L123.04 38.18L123.09 38.23Q122.56 38.20 121.95 38.16L121.83 38.03L121.84 38.05Q120.99 38.08 119.02 37.51L119.02 37.51L119.01 37.50Q118.62 36.73 118.66 35.59L118.77 35.70L118.69 35.62Q118.92 31.44 123.87 30.90L123.92 30.95L123.93 30.97Q124.56 30.91 125.93 31.25L125.95 31.27L125.92 31.24Q127.28 31.57 128.00 31.53L127.99 31.52L128.10 31.63Q128.46 29.32 129.14 27.49L129.10 27.45L129.10 27.46Q128.79 27.41 128.41 27.34L128.38 27.31L127.55 27.16L127.60 27.22Q127.88 26.81 128.26 25.93L128.24 25.91L128.23 25.90Q126.68 25.53 125.12 25.53L125.03 25.44L125.14 25.55Q122.74 25.55 118.36 25.93L118.40 25.97L118.31 25.88Q116.46 26.12 114.90 27.11L114.81 27.02L114.86 27.07Q113.67 28.05 113.67 29.96L113.58 29.87L113.64 29.93Q113.63 30.33 113.74 31.55L113.70 31.51L113.67 31.48Q113.74 32.50 113.70 33.11L113.77 33.18L113.71 33.12Q113.70 34.97 114.42 38.70L114.46 38.74L114.43 38.71Q114.87 39.61 115.36 40.10L115.33 40.06L115.67 40.40L115.72 40.41L115.69 40.39Q116.64 42.44 120.56 43.05L120.64 43.13L120.67 43.16Q123.78 43.60 126.44 43.87L126.39 43.82L126.34 43.77Q127.19 43.90 128.11 44.16Z"/></svg>