<svg xmlns="http://www.w3.org/2000/svg" width="150" height="50" viewBox="0,0,150,50"><path fill="#333" d="M97.45 40.19L97.32 40.06L95.36 40.38L95.38 40.40Q94.81 40.29 93.84 40.35L93.93 40.44L93.90 40.41Q92.81 40.35 92.32 40.35L92.48 40.51L92.36 40.39Q90.74 40.41 89.71 39.57L89.80 39.66L89.70 39.56Q90.54 38.50 92.18 36.37L92.15 36.34L92.23 36.42Q93.42 37.91 95.63 37.68L95.53 37.59L95.61 37.66Q96.44 37.47 97.08 36.82L97.10 36.84L97.28 37.01Q97.89 36.33 97.78 35.46L97.75 35.43L97.78 35.46Q97.55 30.73 97.62 26.17L97.77 26.31L97.64 26.18Q97.70 21.60 98.24 17.00L98.19 16.94L98.24 17.00Q100.25 16.88 102.39 15.85L102.25 15.71L102.26 15.73Q100.38 22.45 100.38 29.68L100.37 29.67L100.43 29.74Q100.44 33.28 100.90 36.78L100.97 36.86L101.01 36.90Q100.98 37.14 100.98 37.48L100.90 37.40L101.05 37.55Q101.05 38.12 100.82 38.65L100.77 38.60L100.75 38.58Q100.25 39.90 97.43 40.17ZM102.30 42.95L102.39 43.03L102.63 42.93L102.94 42.83L103.12 42.63L103.24 42.74Q103.52 42.45 103.59 42.34L103.50 42.24L103.48 42.23Q103.68 41.06 103.42 40.07L103.58 40.23L103.44 40.09Q102.08 34.27 102.34 27.91L102.45 28.02L102.52 28.09Q102.73 21.95 104.52 16.05L104.39 15.91L104.48 16.00Q103.50 16.55 102.25 17.27L102.41 17.44L102.25 17.27Q102.42 16.50 102.84 14.98L103.03 15.16L102.87 15.00Q100.46 16.44 97.79 16.74L97.72 16.66L97.79 16.74Q97.51 21.21 97.43 26.16L97.32 26.05L97.40 26.13Q97.21 31.91 97.28 35.34L97.40 35.46L97.40 35.46Q97.36 37.13 95.61 37.28L95.59 37.27L95.55 37.22Q93.89 37.40 92.22 35.76L92.20 35.75L92.29 35.83Q90.12 38.23 89.17 39.79L89.14 39.77L89.14 39.77Q89.88 40.50 90.91 40.73L90.89 40.71L90.84 40.66Q90.74 40.79 90.47 41.02L90.56 41.11L90.63 41.18Q91.95 42.00 93.93 42.27L93.98 42.32L93.90 42.24Q94.38 42.37 97.67 42.68L97.67 42.67L97.76 42.76Q101.02 43.03 102.39 43.03Z"/><path fill="#222" d="M18.53 33.21L18.67 33.35L18.64 33.32Q18.43 36.08 17.25 40.73L17.21 40.69L17.28 40.76Q15.53 41.33 13.93 42.13L13.84 42.04L13.85 42.05Q16.42 34.99 16.15 27.57L16.22 27.63L16.28 27.69Q15.88 20.17 12.80 13.43L12.81 13.45L12.94 13.58Q14.79 14.75 16.66 15.32L16.75 15.41L16.70 15.36Q18.80 22.29 18.80 28.96L18.86 29.01L18.82 28.97Q18.89 30.49 18.81 31.98L18.79 31.95L18.67 31.83Q19.95 30.75 25.17 25.80L25.05 25.69L25.06 25.69Q26.30 25.84 27.29 25.76L27.16 25.63L29.25 25.47L29.31 25.53Q26.09 28.48 21.79 32.25L21.88 32.34L21.95 32.41Q25.12 34.97 31.59 40.79L31.62 40.83L31.65 40.85Q28.93 39.96 25.96 39.77L26.06 39.87L25.95 39.76Q23.48 37.71 18.61 33.30ZM28.46 42.42L28.58 42.54L28.41 42.37Q33.24 43.32 36.36 45.26L36.39 45.28L36.28 45.18Q35.16 43.94 32.53 41.54L32.62 41.64L32.47 41.49Q32.80 41.66 33.07 41.77L33.05 41.76L32.96 41.67Q30.93 39.71 28.68 37.81L28.67 37.80L24.22 33.88L24.22 33.88Q29.15 29.63 31.58 26.74L31.74 26.89L31.66 26.81Q30.47 26.93 28.00 27.19L27.99 27.18L27.96 27.15Q29.63 25.77 30.31 24.94L30.30 24.93L30.20 24.82Q27.57 25.47 25.10 25.47L24.98 25.35L25.05 25.42Q23.67 26.75 20.93 29.41L20.93 29.41L20.81 29.29Q20.84 23.54 19.86 17.71L19.90 17.76L19.95 17.81Q19.21 17.60 17.73 17.34L17.59 17.20L17.63 17.24Q17.51 16.54 17.05 15.06L16.97 14.98L16.96 14.97Q14.52 14.36 12.27 12.80L12.17 12.69L12.19 12.72Q15.69 19.61 16.04 27.71L15.97 27.65L15.89 27.57Q16.35 35.61 13.35 42.84L13.26 42.75L13.19 42.68Q13.89 42.40 15.23 41.75L15.34 41.86L15.38 41.91Q15.15 42.74 14.50 44.19L14.47 44.16L14.44 44.13Q17.20 42.96 19.33 42.58L19.40 42.65L19.36 42.62Q19.98 40.15 20.48 35.88L20.34 35.75L20.46 35.87Q23.02 38.09 28.47 42.43Z"/><path fill="#444" d="M117.26 33.27L117.24 33.26L117.34 33.36Q117.11 36.10 115.93 40.74L115.87 40.69L115.97 40.78Q114.18 41.31 112.58 42.11L112.61 42.15L112.65 42.18Q115.21 35.11 114.94 27.68L115.00 27.75L114.91 27.65Q114.64 20.27 111.56 13.53L111.59 13.56L111.46 13.43Q113.59 14.88 115.46 15.45L115.41 15.40L115.38 15.37Q117.45 22.28 117.45 28.94L117.49 28.98L117.58 29.07Q117.48 30.41 117.40 31.90L117.46 31.96L117.49 31.99Q118.52 30.66 123.74 25.71L123.84 25.81L123.70 25.67Q124.93 25.80 125.92 25.73L125.80 25.60L128.01 25.56L127.85 25.41Q124.79 28.51 120.48 32.28L120.49 32.29L120.54 32.34Q123.89 35.07 130.36 40.90L130.28 40.82L130.33 40.87Q127.70 40.06 124.73 39.87L124.57 39.71L124.67 39.81Q122.12 37.69 117.25 33.27ZM127.22 42.52L127.21 42.51L127.11 42.40Q131.89 43.30 135.01 45.25L135.04 45.27L134.97 45.20Q133.76 43.87 131.13 41.47L131.26 41.61L131.27 41.61Q131.45 41.65 131.72 41.76L131.70 41.74L131.75 41.79Q129.56 39.67 127.31 37.77L127.36 37.82L123.03 34.02L122.88 33.88Q127.85 29.67 130.28 26.77L130.40 26.89L130.26 26.75Q129.15 26.93 126.67 27.20L126.69 27.22L126.55 27.08Q128.18 25.66 128.87 24.83L128.97 24.92L128.87 24.83Q126.13 25.36 123.65 25.36L123.70 25.40L123.76 25.47Q122.23 26.63 119.48 29.30L119.53 29.34L119.54 29.36Q119.62 23.64 118.63 17.82L118.54 17.73L118.45 17.65Q117.78 17.51 116.30 17.24L116.27 17.21L116.35 17.29Q116.13 16.51 115.68 15.02L115.70 15.05L115.72 15.06Q113.02 14.19 110.77 12.63L110.91 12.77L110.78 12.63Q114.36 19.61 114.70 27.72L114.67 27.68L114.57 27.58Q114.87 35.46 111.87 42.69L112.03 42.86L111.94 42.77Q112.69 42.53 114.03 41.88L113.91 41.77L113.99 41.85Q113.77 42.69 113.12 44.14L113.09 44.11L113.19 44.21Q115.92 43.01 118.05 42.63L118.02 42.61L118.12 42.71Q118.61 40.11 119.11 35.85L119.10 35.84L119.19 35.93Q121.65 38.05 127.09 42.39Z"/><path fill="#333" d="M50.57 30.84L50.54 30.81L50.67 30.94Q50.47 29.63 48.52 28.91L48.53 28.91L48.64 29.03Q48.10 28.79 47.56 28.79L47.63 28.85L47.48 28.70Q46.08 28.68 45.02 29.25L45.08 29.31L45.06 29.29Q43.71 30.03 43.82 31.25L43.77 31.20L43.78 31.21Q44.17 34.07 44.01 36.32L44.06 36.36L43.96 36.26Q43.85 38.74 43.13 41.26L43.13 41.26L43.11 41.24Q41.10 41.86 39.92 42.28L39.92 42.27L39.77 42.13Q41.35 38.49 41.35 34.50L41.45 34.59L41.53 34.67Q41.41 29.10 38.82 24.65L38.79 24.62L38.86 24.69Q39.99 25.10 42.39 25.82L42.51 25.94L42.40 25.84Q42.86 26.72 43.24 28.24L43.17 28.16L43.15 28.15Q44.52 26.08 48.40 26.16L48.39 26.15L48.46 26.22Q49.93 26.24 50.73 26.36L50.74 26.37L50.59 26.22Q53.69 26.73 53.77 28.75L53.75 28.74L53.66 28.65Q53.73 29.59 53.54 30.62L53.46 30.54L53.47 30.54Q53.09 33.13 53.28 36.14L53.33 36.19L53.22 36.08Q53.44 39.00 54.43 41.55L54.48 41.61L54.36 41.48Q52.82 41.24 51.11 41.09L51.07 41.05L51.05 41.03Q50.46 38.54 50.39 35.88L50.52 36.00L50.53 36.02Q50.48 33.31 50.71 30.99ZM50.56 41.26L50.70 41.41L50.62 41.32Q51.35 41.25 52.64 41.48L52.64 41.48L53.06 42.59L53.18 42.71Q53.28 43.11 53.51 43.64L53.46 43.59L53.46 43.59Q55.72 43.98 58.42 45.16L58.57 45.31L58.50 45.24Q56.19 42.18 55.51 38.37L55.56 38.42L55.47 38.34Q55.20 36.28 55.32 32.58L55.24 32.51L55.29 32.55Q55.29 32.25 55.32 31.45L55.26 31.38L55.36 31.48Q55.40 30.84 55.32 30.34L55.32 30.34L55.21 30.23Q55.22 28.68 54.12 28.19L54.11 28.18L54.01 28.08Q53.84 27.22 53.08 26.61L53.10 26.63L53.22 26.75Q51.49 25.71 48.44 25.79L48.33 25.67L48.42 25.76Q46.50 25.75 45.67 25.94L45.60 25.87L45.77 26.04Q44.27 26.33 43.31 27.24L43.28 27.21L43.27 27.20Q43.24 26.75 42.86 25.72L42.80 25.66L42.80 25.66Q40.06 25.05 38.23 24.06L38.10 23.93L38.17 24.00Q41.18 28.84 41.18 34.58L41.23 34.63L41.21 34.61Q41.25 39.03 39.34 42.88L39.37 42.90L39.26 42.79Q39.94 42.48 41.23 42.10L41.31 42.17L41.25 42.12Q40.71 43.33 40.18 44.32L40.19 44.34L40.29 44.43Q41.56 43.84 45.10 43.27L45.09 43.26L45.21 43.38Q46.14 38.18 46.03 33.34L45.97 33.29L45.98 33.30Q46.04 32.56 47.22 31.83L47.26 31.87L47.21 31.83Q48.22 31.16 49.33 31.05L49.43 31.15L49.36 31.08Q49.83 31.05 50.25 31.24L50.26 31.25L50.27 31.27Q50.07 33.77 50.11 36.32L50.12 36.33L50.12 36.33Q50.19 38.88 50.68 41.39Z"/><path fill="#333" d="M78.94 37.84L79.07 37.97L79.01 37.91Q79.32 38.91 79.86 40.93L79.78 40.85L79.92 40.99Q75.54 39.50 70.93 39.76L70.93 39.76L71.06 39.90Q66.53 40.20 62.53 42.18L62.50 42.15L62.52 42.17Q62.77 41.50 62.81 41.58L62.77 41.54L62.72 41.49Q66.38 37.46 70.30 33.04L70.37 33.11L70.37 33.11Q74.76 28.10 75.94 23.42L75.97 23.44L76.04 23.51Q76.41 21.68 75.13 20.50L75.09 20.46L75.14 20.51Q73.92 19.38 72.13 19.53L72.03 19.43L72.07 19.47Q71.67 19.38 71.33 19.38L71.39 19.44L71.44 19.49Q69.78 19.35 68.52 20.26L68.66 20.40L68.55 20.29Q67.32 21.73 67.55 24.39L67.59 24.43L67.54 24.38Q65.81 24.10 64.59 23.64L64.57 23.62L64.51 23.56Q64.36 22.20 64.29 20.75L64.29 20.75L64.28 20.74Q64.25 19.15 64.86 18.01L64.72 17.87L64.87 18.02Q66.50 16.50 69.85 16.50L69.90 16.54L71.72 16.61L71.72 16.61Q74.03 16.68 74.98 16.79L74.85 16.66L74.89 16.70Q79.25 17.14 79.52 19.57L79.63 19.68L79.55 19.61Q79.68 20.23 79.61 21.03L79.59 21.01L79.57 20.99Q79.43 21.54 79.27 22.22L79.34 22.29L79.30 22.25Q77.67 30.37 70.10 37.22L70.11 37.23L70.20 37.32Q71.52 37.09 72.89 37.09L72.91 37.10L72.94 37.13Q76.18 37.14 79.04 37.94ZM78.48 17.13L78.40 17.05L78.39 17.04Q76.78 16.37 75.06 16.30L75.19 16.42L71.77 16.24L71.77 16.24Q67.33 15.99 65.12 17.09L64.95 16.92L65.07 17.04Q63.87 18.28 63.87 20.34L64.06 20.52L63.94 20.40Q64.09 21.24 64.39 24.05L64.30 23.96L64.38 24.04Q64.94 24.29 66.12 24.60L66.08 24.56L65.98 25.49L66.06 25.57Q65.89 25.89 65.97 26.43L65.97 26.43L66.10 26.56Q67.42 26.74 69.89 26.97L69.82 26.89L69.77 26.85Q69.78 26.51 69.78 26.16L69.67 26.06L69.79 26.18Q69.85 24.41 71.07 23.06L70.93 22.92L71.00 22.99Q72.18 21.60 73.97 21.71L73.90 21.65L73.96 21.71Q74.76 21.78 75.52 21.93L75.47 21.88L75.43 21.84Q75.54 22.22 75.62 22.64L75.67 22.69L75.78 22.80Q75.67 23.07 75.59 23.41L75.58 23.41L75.66 23.48Q74.46 28.30 70.05 33.13L70.07 33.16L70.03 33.12Q67.81 35.27 62.36 41.32L62.47 41.43L62.47 41.43Q62.18 42.17 61.84 42.74L61.89 42.79L61.85 42.76Q63.47 41.90 65.00 41.37L64.99 41.36L64.96 41.33Q64.19 41.86 63.24 43.34L63.40 43.51L63.30 43.40Q63.29 43.85 63.18 44.20L63.02 44.03L63.01 44.03Q68.04 42.13 73.52 42.32L73.40 42.20L73.41 42.20Q79.16 42.44 83.73 44.80L83.70 44.77L82.66 42.59L82.64 42.57Q82.14 41.38 81.87 40.58L81.87 40.58L81.75 40.46Q81.01 40.02 79.79 39.60L79.75 39.56L79.77 39.58Q79.60 38.84 79.22 37.47L79.23 37.49L79.40 37.65Q77.03 36.91 74.74 36.72L74.82 36.80L74.74 36.72Q79.47 32.21 81.00 23.94L81.08 24.02L81.15 21.02L81.18 21.04Q81.09 19.24 79.87 18.55L79.83 18.51L79.88 18.60L79.83 18.55Q79.81 18.50 79.74 18.50L79.76 18.52L79.86 18.62Q79.59 17.74 78.49 17.13Z"/></svg>