<svg xmlns="http://www.w3.org/2000/svg" width="150" height="50" viewBox="0,0,150,50"><path fill="#444" d="M92.93 30.61L93.05 30.72L92.96 30.64Q92.95 30.63 96.34 30.59L96.27 30.52L96.42 30.67Q98.66 30.63 99.73 30.67L99.63 30.57L99.59 30.53Q98.72 27.83 96.29 22.20L96.22 22.14L96.12 22.03Q95.69 23.58 94.64 26.44L94.66 26.46L94.52 26.31Q93.50 29.20 92.93 30.61ZM100.86 33.17L100.72 33.03L100.87 33.18Q98.47 33.03 96.26 33.07L96.35 33.15L96.22 33.02Q94.03 33.12 91.75 33.31L91.80 33.36L91.72 33.28Q90.19 36.70 86.96 40.89L86.95 40.88L86.92 40.85Q84.44 41.57 83.06 42.06L83.06 42.06L82.96 41.96Q88.29 36.51 92.97 23.15L92.97 23.15L92.82 23.00Q94.06 19.56 95.43 16.32L95.48 16.37L95.40 16.29Q95.75 16.34 96.09 16.34L96.24 16.48L96.82 16.34L96.90 16.41Q97.58 17.71 102.42 29.36L102.46 29.40L102.43 29.37Q105.61 37.12 109.61 41.27L109.62 41.29L109.61 41.27Q109.12 41.16 105.23 40.29L105.37 40.42L105.41 40.46Q102.79 37.27 100.81 33.12ZM105.25 40.72L105.26 40.73L105.76 40.73L105.89 40.86Q106.07 40.82 106.37 40.93L106.34 40.90L106.31 40.87Q106.68 41.28 108.51 43.30L108.64 43.43L108.50 43.29Q112.16 44.20 114.56 45.23L114.58 45.26L114.61 45.28Q109.17 40.79 105.17 32.80L105.03 32.66L105.05 32.68Q103.50 29.46 102.06 25.50L102.06 25.50L99.24 17.93L99.22 17.91Q99.00 18.03 98.77 18.03L98.74 17.99L98.20 17.98L98.19 17.97Q97.93 17.41 97.20 16.04L97.14 15.97L97.16 15.99Q96.66 16.03 96.21 15.99L96.24 16.02L96.19 15.98Q95.77 15.98 95.24 15.98L95.23 15.97L95.20 15.94Q93.86 19.93 89.98 30.09L89.94 30.05L89.85 29.96Q86.81 38.00 82.16 42.80L82.09 42.72L82.22 42.86Q83.23 42.42 85.25 41.81L85.26 41.82L85.16 41.72Q84.40 42.60 82.84 44.39L82.89 44.43L82.93 44.47Q84.53 43.72 88.45 42.96L88.41 42.92L88.41 42.92Q92.02 38.76 93.58 35.52L93.53 35.48L93.44 35.38Q95.31 35.39 97.64 35.43L97.48 35.27L97.58 35.37Q100.18 35.27 101.55 35.34L101.59 35.39L101.69 35.48Q102.79 37.69 105.15 40.62ZM97.56 26.06L97.61 26.11L97.58 26.08Q98.39 28.11 99.15 30.21L99.09 30.15L95.85 30.21L95.95 30.31Q96.52 28.87 97.59 26.09Z"/><path fill="#444" d="M19.03 30.71L18.91 30.58L19.05 30.73Q18.87 30.55 22.26 30.51L22.25 30.51L22.38 30.63Q24.62 30.59 25.69 30.63L25.63 30.57L25.59 30.53Q24.68 27.79 22.24 22.16L22.12 22.03L22.15 22.06Q21.58 23.47 20.53 26.33L20.58 26.38L20.61 26.41Q19.49 29.19 18.92 30.59ZM26.83 33.14L26.82 33.13L26.84 33.15Q24.50 33.05 22.29 33.09L22.39 33.19L22.40 33.21Q20.14 33.22 17.85 33.41L17.72 33.29L17.72 33.28Q16.27 36.78 13.04 40.97L12.98 40.91L13.12 41.05Q10.33 41.46 8.96 41.96L8.96 41.96L9.07 42.07Q14.22 36.45 18.90 23.08L18.86 23.04L18.85 23.03Q20.01 19.50 21.38 16.27L21.44 16.33L21.45 16.34Q21.76 16.34 22.10 16.34L22.09 16.33L22.81 16.33L22.78 16.30Q23.54 17.67 28.37 29.31L28.36 29.30L28.41 29.36Q31.68 37.19 35.67 41.34L35.72 41.38L35.77 41.43Q35.25 41.29 31.37 40.42L31.32 40.37L31.25 40.30Q28.77 37.25 26.79 33.10ZM31.28 40.75L31.25 40.72L31.74 40.71L31.73 40.70Q32.19 40.93 32.49 41.05L32.36 40.91L32.43 40.98Q32.68 41.28 34.51 43.30L34.55 43.33L34.60 43.38Q38.16 44.20 40.55 45.23L40.60 45.28L40.58 45.26Q35.07 40.70 31.08 32.70L31.12 32.75L31.14 32.77Q29.53 29.49 28.09 25.53L28.06 25.50L25.26 17.94L25.27 17.95Q25.00 18.03 24.77 18.03L24.74 17.99L24.23 18.01L24.18 17.97Q23.92 17.40 23.19 16.03L23.17 16.00L23.19 16.02Q22.60 15.97 22.14 15.93L22.24 16.02L22.29 16.07Q21.65 15.85 21.11 15.85L21.22 15.96L21.12 15.86Q19.74 19.81 15.86 29.97L15.91 30.02L15.88 29.99Q12.82 38.01 8.17 42.81L8.24 42.88L8.09 42.72Q9.26 42.45 11.28 41.84L11.23 41.79L11.19 41.75Q10.41 42.61 8.85 44.40L8.78 44.33L8.93 44.48Q10.54 43.72 14.46 42.96L14.49 43.00L14.59 43.09Q18.03 38.77 19.59 35.53L19.46 35.40L19.45 35.39Q21.23 35.31 23.55 35.35L23.58 35.38L23.66 35.45Q26.25 35.34 27.62 35.41L27.73 35.53L27.58 35.38Q28.87 37.77 31.23 40.70ZM23.52 26.03L23.45 25.95L23.43 25.93Q24.41 28.13 25.17 30.22L25.08 30.13L21.84 30.20L21.80 30.16Q22.54 28.89 23.61 26.11Z"/><path fill="#444" d="M71.18 41.10L71.22 41.14L69.41 41.04L69.55 41.18Q66.02 41.05 65.07 38.91L65.20 39.04L65.20 39.04Q66.29 37.93 67.74 36.82L67.77 36.86L67.77 36.85Q68.44 39.12 71.29 38.97L71.16 38.84L71.26 38.94Q72.00 38.84 73.03 38.61L73.08 38.66L73.15 38.73Q73.91 38.04 73.83 37.09L73.82 37.08L73.92 37.18Q73.85 36.08 72.06 35.40L72.05 35.38L68.27 33.89L68.29 33.91Q65.82 32.43 65.48 28.89L65.57 28.99L65.53 28.94Q65.33 26.80 67.50 26.23L67.63 26.36L67.51 26.24Q68.46 26.01 71.43 26.01L71.47 26.05L71.45 26.03Q76.31 26.01 77.22 28.53L77.33 28.64L77.22 28.53Q76.65 29.13 75.93 29.59L75.89 29.56L74.43 30.45L74.47 30.49Q74.05 28.66 70.81 28.43L70.65 28.27L70.82 28.45Q70.16 28.39 69.13 28.81L69.07 28.75L69.09 28.77Q68.51 29.10 68.51 30.21L68.64 30.34L68.47 30.17Q68.85 31.27 70.68 31.96L70.78 32.05L70.75 32.03Q71.85 32.45 74.52 33.55L74.54 33.57L74.49 33.52Q76.29 34.33 76.48 36.88L76.40 36.81L76.51 36.92Q76.57 37.55 76.50 38.54L76.42 38.46L76.49 38.53Q76.34 39.29 75.77 39.94L75.81 39.98L75.88 40.05Q74.33 41.20 71.28 41.20ZM76.07 43.82L75.94 43.69L75.93 43.68Q76.94 43.82 78.31 43.51L78.35 43.55L78.31 43.51Q79.36 42.81 79.17 41.59L79.23 41.65L79.16 41.58Q79.16 41.09 78.86 39.49L78.79 39.42L78.83 39.46Q78.31 36.54 76.52 35.32L76.44 35.24L76.51 35.32Q75.88 33.80 74.62 33.08L74.63 33.10L74.63 33.09Q73.30 32.60 70.83 31.65L70.85 31.67L70.96 31.78Q71.07 31.28 71.34 31.17L71.40 31.23L71.27 31.10Q72.01 30.78 72.66 30.74L72.66 30.74L72.58 30.66Q73.44 30.68 74.20 30.95L74.06 30.81L74.14 30.97L74.25 30.96L74.49 31.01L74.56 31.11L74.47 31.02Q75.68 31.63 75.88 32.89L75.81 32.82L75.89 32.90Q77.09 32.01 79.00 30.34L78.90 30.25L78.98 30.32Q78.78 29.67 77.79 28.49L77.75 28.44L77.60 28.30Q76.57 25.70 71.47 25.59L71.36 25.49L71.44 25.56Q68.27 25.52 66.29 26.09L66.36 26.16L66.27 26.06Q64.92 26.69 65.14 28.78L65.21 28.85L65.05 28.69Q65.17 29.95 66.08 32.04L66.08 32.04L66.08 32.04Q66.75 33.28 67.78 34.01L67.74 33.96L67.69 33.92Q68.35 35.38 69.65 36.07L69.74 36.16L69.73 36.15Q70.60 36.34 71.56 36.72L71.62 36.78L73.42 37.44L73.51 37.53Q73.19 38.65 71.25 38.54L71.29 38.58L71.15 38.44Q70.89 38.68 69.67 38.37L69.52 38.23L69.49 38.04L69.33 38.11L69.40 38.18Q68.55 37.82 67.90 36.33L67.87 36.30L68.01 36.44Q65.76 37.89 64.66 39.03L64.74 39.12L64.67 39.04Q64.86 39.85 65.89 40.65L65.98 40.73L65.80 40.86L65.86 40.92Q67.35 43.10 71.58 43.48L71.46 43.36L71.46 43.36Q72.67 43.43 75.90 43.65Z"/><path fill="#333" d="M48.72 20.20L48.68 20.16L48.55 20.03Q44.26 20.04 40.56 19.05L40.59 19.07L40.53 19.01Q42.17 23.70 42.36 28.54L42.40 28.57L42.30 28.47Q42.46 33.24 41.24 37.85L41.31 37.91L41.28 37.88Q44.03 37.20 47.53 37.05L47.70 37.23L47.63 37.15Q51.63 37.04 53.42 34.60L53.31 34.49L53.29 34.48Q54.82 32.43 55.01 28.32L55.12 28.43L54.96 28.26Q55.14 26.62 54.69 24.91L54.67 24.89L54.66 24.88Q53.29 20.05 48.57 20.05ZM36.71 42.11L36.69 42.09L36.82 42.22Q39.60 36.44 39.60 29.74L39.67 29.80L39.57 29.70Q39.55 21.16 35.25 14.15L35.25 14.15L35.33 14.24Q40.61 16.92 48.87 17.11L48.88 17.13L48.89 17.13Q57.80 17.36 58.14 24.52L58.11 24.48L57.97 24.35Q58.19 27.16 58.15 28.61L58.05 28.50L58.18 28.63Q58.00 33.21 57.16 35.38L57.27 35.49L57.29 35.50Q56.83 36.57 56.07 37.40L56.06 37.40L56.06 37.39Q54.67 38.90 52.04 39.40L52.13 39.48L52.05 39.41Q50.52 39.73 47.51 39.96L47.42 39.88L47.49 39.94Q41.39 40.43 36.79 42.18ZM54.67 42.02L54.60 41.95L54.63 41.98Q57.47 41.74 59.11 40.26L58.97 40.12L59.05 40.20Q60.24 38.42 60.20 35.68L60.23 35.71L60.14 35.62Q60.30 34.41 60.15 30.90L60.15 30.91L59.73 26.30L59.75 26.32Q59.49 23.97 58.54 21.87L58.47 21.81L58.54 21.87Q57.98 20.89 57.29 20.25L57.33 20.28L57.39 20.19L57.35 20.15Q55.74 17.29 51.33 16.91L51.31 16.89L51.14 16.72Q48.62 16.75 41.62 16.03L41.50 15.91L41.49 15.90Q38.20 15.42 34.50 13.41L34.49 13.39L34.48 13.39Q39.35 20.81 39.35 29.56L39.36 29.57L39.34 29.55Q39.30 36.51 35.95 42.68L36.05 42.78L36.03 42.76Q36.72 42.50 38.06 42.01L38.15 42.10L38.03 41.99Q37.66 42.79 36.78 44.27L36.92 44.41L36.90 44.40Q39.88 43.26 43.23 42.76L43.26 42.80L43.24 42.77Q45.21 42.35 48.86 42.23L48.87 42.24L48.92 42.29Q52.79 42.17 54.62 41.97ZM54.66 28.35L54.62 28.31L54.70 28.39Q54.42 36.48 47.72 36.86L47.60 36.74L47.69 36.83Q45.75 36.95 43.69 37.21L43.56 37.08L43.60 37.12Q44.27 33.23 44.27 29.57L44.25 29.55L44.28 29.58Q44.30 25.90 43.57 22.06L43.54 22.02L43.51 22.00Q45.87 22.45 50.55 22.45L50.60 22.50L50.62 22.52Q51.94 22.31 53.57 23.26L53.53 23.22L53.66 23.35Q54.80 25.48 54.65 28.34Z"/><path fill="#111" d="M122.33 27.67L122.35 27.69L122.41 27.75Q118.78 27.54 117.67 30.89L117.77 30.99L117.84 31.06Q117.45 32.12 117.34 33.18L117.22 33.06L117.24 33.09Q117.14 35.24 118.13 36.57L118.09 36.52L118.04 36.48Q119.40 37.69 121.88 37.72L121.88 37.72L121.84 37.69Q123.73 37.79 125.14 36.65L125.09 36.60L125.12 36.63Q126.58 35.53 126.58 33.74L126.51 33.67L126.42 33.59Q126.56 33.39 126.49 33.01L126.49 33.01L126.50 33.02Q126.13 27.74 122.32 27.66ZM122.36 40.26L122.29 40.19L122.27 40.17Q118.56 40.49 116.77 38.48L116.76 38.47L116.66 38.37Q116.38 39.35 115.93 40.72L115.94 40.73L116.02 40.82Q114.03 41.53 112.77 42.10L112.68 42.00L112.79 42.11Q114.90 36.08 114.90 29.57L114.93 29.59L114.95 29.62Q114.94 21.31 111.52 13.47L111.47 13.42L111.59 13.54Q113.79 14.75 115.12 15.21L115.28 15.37L115.13 15.22Q117.39 22.01 117.54 27.83L117.39 27.68L117.38 27.67Q119.03 25.21 122.76 25.25L122.72 25.21L122.68 25.16Q125.99 25.28 127.47 27.14L127.36 27.03L127.29 26.96Q129.13 29.26 129.28 32.84L129.34 32.89L129.29 32.85Q129.43 34.08 129.35 35.68L129.26 35.59L129.42 35.75Q129.34 37.15 128.46 38.29L128.35 38.18L128.44 38.27Q126.61 39.90 122.27 40.17ZM127.70 42.63L127.76 42.69L127.81 42.74Q129.22 42.67 130.70 41.98L130.82 42.10L130.68 41.96Q131.80 40.68 131.83 38.74L131.97 38.87L131.96 38.86Q131.97 38.38 131.82 37.20L131.71 37.08L131.73 37.11Q131.69 36.46 131.58 35.55L131.55 35.52L131.62 35.59Q130.71 30.72 129.15 28.66L129.11 28.62L129.26 28.78Q129.25 28.73 128.45 27.86L128.39 27.79L128.29 27.69Q128.18 27.54 127.64 26.74L127.65 26.74L127.69 26.78Q125.98 24.73 122.63 24.77L122.58 24.72L122.65 24.79Q120.62 24.85 119.36 25.46L119.36 25.46L119.45 25.55Q119.07 20.99 118.46 17.79L118.35 17.67L118.32 17.64Q117.59 17.49 116.11 17.11L116.11 17.11L116.28 17.28Q115.99 16.38 115.53 14.94L115.66 15.07L115.61 15.01Q113.14 14.18 110.90 12.62L110.97 12.69L110.96 12.69Q114.63 20.77 114.63 29.57L114.70 29.63L114.65 29.58Q114.65 36.55 112.18 42.76L112.21 42.79L112.26 42.84Q112.89 42.44 114.22 41.87L114.17 41.81L114.31 41.95Q113.90 42.54 113.29 44.06L113.44 44.21L113.30 44.07Q115.44 43.32 118.22 42.78L118.08 42.64L118.59 40.94L118.60 40.96Q120.82 42.57 127.75 42.69ZM124.05 30.08L124.04 30.07L124.09 30.11Q125.03 30.03 125.56 30.41L125.60 30.44L125.48 30.32Q125.91 30.95 126.14 32.97L126.13 32.96L126.13 32.95Q126.27 34.77 125.02 36.09L124.99 36.06L125.15 36.22Q123.71 37.35 121.77 37.24L121.81 37.27L121.92 37.39Q120.88 37.41 119.40 36.92L119.53 37.06L119.39 36.91Q119.27 36.53 119.27 36.00L119.33 36.06L119.32 36.04Q119.30 32.94 120.86 31.34L120.70 31.18L120.83 31.35L120.71 31.22Q122.28 29.98 124.03 30.06Z"/></svg>