<svg xmlns="http://www.w3.org/2000/svg" width="150" height="50" viewBox="0,0,150,50"><path fill="#111" d="M15.65 47.12L15.58 47.06L15.62 47.09Q14.65 47.27 12.75 47.57L12.72 47.54L12.75 47.57Q14.01 45.37 15.04 44.08L15.14 44.18L14.99 44.02Q16.83 44.42 16.98 44.42L17.04 44.48L16.90 44.34Q17.28 44.49 17.82 44.38L17.83 44.40L17.79 44.35Q18.44 44.25 18.63 44.25L18.59 44.20L18.60 44.21Q21.27 44.07 21.20 41.90L21.12 41.82L21.20 41.90Q21.13 40.38 21.01 34.14L21.05 34.18L20.97 34.09Q21.00 30.62 21.08 26.47L21.12 26.52L22.41 26.21L22.52 26.31Q23.05 26.09 23.74 25.86L23.71 25.83L23.71 25.83Q23.53 30.30 23.57 34.67L23.61 34.72L23.66 34.76Q23.63 39.08 24.16 43.45L24.19 43.48L24.10 43.40Q24.26 43.78 24.26 44.04L24.18 43.96L24.30 44.09Q24.20 45.62 22.52 46.00L22.57 46.05L22.59 46.07Q19.45 46.43 15.60 47.08ZM22.37 22.86L20.15 19.65L20.32 19.81Q21.28 18.34 23.11 15.56L23.15 15.60L23.20 15.65Q23.80 16.48 25.13 18.31L25.09 18.26L22.32 22.81ZM25.44 49.53L25.30 49.39L25.46 49.54Q25.84 49.43 26.60 49.09L26.64 49.12L26.65 49.14Q27.00 48.46 27.00 48.00L27.03 48.04L27.04 48.05Q26.96 47.63 26.85 47.02L26.79 46.95L26.87 47.04Q25.49 40.59 25.49 32.67L25.51 32.70L25.62 32.81Q25.56 29.90 25.72 27.00L25.79 27.07L25.62 26.91Q25.07 27.08 23.93 27.38L24.09 27.54L24.04 27.49Q24.06 27.02 24.10 26.49L24.11 26.50L24.26 25.47L24.27 25.48Q22.55 26.12 20.76 26.16L20.59 25.98L20.59 25.98Q20.58 30.36 20.62 33.93L20.61 33.92L20.71 41.75L20.87 41.91Q20.88 43.82 18.71 43.94L18.67 43.90L18.77 44.00Q18.42 43.88 17.90 43.93L18.01 44.04L17.90 43.93Q17.50 44.10 17.23 44.10L17.08 43.94L17.20 44.07Q16.69 44.02 15.13 43.60L15.21 43.67L15.08 43.55Q14.57 44.10 13.46 45.77L13.57 45.88L12.00 48.15L12.11 48.27Q12.98 48.07 14.62 47.69L14.57 47.64L14.10 48.35L13.51 48.95L13.55 48.99Q15.79 48.78 17.12 48.86L17.19 48.93L17.25 49.00Q19.47 49.08 25.41 49.50ZM22.28 23.53L22.42 23.67L22.75 23.12L22.71 23.08Q23.00 23.45 23.95 25.04L23.94 25.03L24.12 25.21Q25.56 22.01 27.12 18.93L27.08 18.89L27.02 18.83Q26.17 17.37 25.22 16.07L25.17 16.03L25.24 16.10Q24.91 16.18 24.57 16.71L24.59 16.74L24.68 16.83Q24.26 16.18 23.27 14.89L23.26 14.88L23.19 14.80Q22.07 16.47 19.75 19.82L19.64 19.71L19.74 19.80Q20.63 21.00 22.34 23.59Z"/><path fill="#222" d="M50.81 41.17L50.95 41.31L47.91 41.13L47.86 41.07Q45.52 41.02 44.72 40.91L44.72 40.91L44.61 40.79Q42.89 40.56 41.71 39.68L41.74 39.71L41.74 39.72Q40.44 38.30 40.21 34.95L40.15 34.89L40.09 34.82Q40.19 34.47 40.11 33.26L40.07 33.21L40.10 33.25Q40.06 32.78 39.98 31.68L39.95 31.64L40.06 31.75Q40.01 30.90 40.05 30.18L39.89 30.02L40.05 30.19Q40.22 28.22 41.25 27.46L41.10 27.31L41.22 27.43Q43.15 26.27 47.98 26.05L48.01 26.07L48.02 26.09Q49.94 25.87 50.74 25.87L50.78 25.92L50.86 25.99Q52.17 25.82 53.54 26.12L53.70 26.28L53.66 26.24Q52.99 27.40 52.46 29.23L52.50 29.27L52.57 29.34Q52.05 29.39 51.56 29.36L51.63 29.43L51.45 29.25Q51.45 29.33 50.92 29.21L50.91 29.20L49.86 28.88L49.92 28.93Q48.97 28.79 48.36 28.83L48.36 28.82L48.17 28.63Q43.52 28.78 42.91 31.60L42.95 31.64L43.03 31.71Q42.57 32.67 42.65 33.62L42.71 33.68L42.84 33.82Q42.97 36.38 44.21 37.47L44.06 37.32L44.23 37.49Q45.40 38.50 47.99 38.54L47.91 38.46L47.89 38.44Q49.35 38.46 50.07 38.15L50.17 38.24L51.23 37.78L51.27 37.83Q51.68 37.47 52.25 37.39L52.35 37.49L52.28 37.42Q52.43 39.14 52.81 40.43L53.00 40.62L52.88 40.50Q52.64 40.87 50.85 41.21ZM54.05 44.10L54.18 44.23L54.15 44.20Q54.44 44.16 55.28 44.23L55.33 44.29L55.31 44.26Q55.91 44.25 56.25 43.68L56.37 43.80L56.30 43.73Q55.08 41.63 54.58 39.54L54.69 39.64L54.64 39.59Q54.31 39.57 53.85 39.57L53.81 39.53L53.86 39.58Q53.49 39.62 53.11 39.81L52.97 39.67L52.99 39.70Q52.73 38.52 52.58 37.11L52.44 36.97L52.57 37.10Q51.91 36.98 50.70 37.55L50.71 37.57L50.77 37.63Q49.53 38.18 49.03 38.18L49.08 38.22L49.07 38.21Q48.48 38.11 47.87 38.08L47.97 38.18L47.97 38.18Q47.02 38.11 45.04 37.53L44.97 37.47L45.08 37.57Q44.78 36.89 44.82 35.75L44.78 35.71L44.67 35.60Q44.87 31.39 49.82 30.85L49.94 30.98L49.77 30.80Q50.59 30.93 51.96 31.28L51.87 31.19L51.97 31.29Q53.35 31.64 54.07 31.61L54.04 31.57L54.02 31.55Q54.49 29.36 55.18 27.53L55.18 27.54L55.15 27.51Q54.83 27.46 54.45 27.38L54.33 27.25L53.54 27.15L53.66 27.27Q53.71 26.64 54.09 25.76L54.18 25.85L54.11 25.78Q52.57 25.42 51.01 25.42L51.15 25.56L51.01 25.42Q48.69 25.50 44.32 25.88L44.37 25.93L44.37 25.94Q42.36 26.02 40.80 27.01L40.79 27.00L40.82 27.03Q39.58 27.96 39.58 29.87L39.55 29.84L39.54 29.82Q39.58 30.29 39.70 31.50L39.64 31.45L39.65 31.46Q39.73 32.49 39.69 33.10L39.69 33.10L39.70 33.11Q39.87 35.14 40.59 38.87L40.52 38.80L40.58 38.86Q40.97 39.71 41.46 40.20L41.39 40.13L41.63 40.37L41.73 40.43L41.71 40.41Q42.77 42.57 46.69 43.18L46.68 43.17L46.57 43.06Q49.65 43.48 52.32 43.75L52.38 43.81L52.43 43.86Q53.21 43.91 54.12 44.18Z"/><path fill="#111" d="M120.61 41.19L120.62 41.20L118.87 41.17L118.80 41.10Q115.46 41.15 114.51 39.02L114.45 38.96L114.56 39.07Q115.75 38.05 117.20 36.95L117.04 36.79L117.11 36.86Q117.72 39.07 120.58 38.92L120.63 38.97L120.46 38.80Q121.26 38.76 122.29 38.53L122.37 38.61L122.35 38.60Q123.20 38.00 123.12 37.05L123.13 37.05L123.20 37.13Q123.10 36.00 121.32 35.32L121.34 35.34L117.56 33.85L117.62 33.90Q115.13 32.41 114.79 28.87L114.98 29.06L114.92 29.00Q114.64 26.78 116.81 26.21L116.86 26.25L116.79 26.19Q117.81 26.03 120.78 26.03L120.69 25.94L120.80 26.05Q125.57 25.94 126.48 28.45L126.51 28.48L126.62 28.60Q125.95 29.10 125.23 29.56L125.10 29.43L123.85 30.55L123.83 30.52Q123.24 28.52 120.01 28.30L120.14 28.43L119.97 28.26Q119.59 28.49 118.56 28.91L118.44 28.78L118.46 28.81Q117.80 29.06 117.80 30.16L117.98 30.35L117.94 30.30Q118.31 31.40 120.14 32.09L120.03 31.97L120.02 31.97Q121.05 32.31 123.72 33.42L123.80 33.50L123.88 33.58Q125.53 34.24 125.72 36.79L125.91 36.98L125.78 36.85Q125.95 37.59 125.87 38.58L125.84 38.55L125.89 38.59Q125.73 39.35 125.16 40.00L125.19 40.03L125.25 40.09Q123.52 41.06 120.48 41.06ZM125.32 43.74L125.22 43.64L125.29 43.71Q126.27 43.81 127.64 43.51L127.56 43.42L127.65 43.51Q128.74 42.86 128.55 41.64L128.56 41.65L128.39 41.48Q128.45 41.04 128.14 39.44L128.16 39.46L128.00 39.30Q127.46 36.36 125.67 35.14L125.74 35.21L125.80 35.27Q125.15 33.74 123.89 33.02L124.00 33.13L123.99 33.12Q122.70 32.66 120.22 31.71L120.16 31.65L120.19 31.68Q120.34 31.21 120.60 31.10L120.62 31.12L120.58 31.08Q121.33 30.77 121.98 30.73L121.84 30.59L122.02 30.77Q122.73 30.64 123.49 30.90L123.57 30.99L123.58 31.08L123.60 30.97L123.82 31.01L123.92 31.14L123.82 31.04Q124.86 31.47 125.05 32.73L125.21 32.89L125.22 32.90Q126.46 32.05 128.36 30.37L128.29 30.30L128.33 30.34Q128.02 29.58 127.03 28.40L127.06 28.42L126.99 28.35Q125.85 25.65 120.75 25.54L120.87 25.66L120.72 25.51Q117.60 25.51 115.62 26.09L115.66 26.12L115.69 26.15Q114.22 26.66 114.45 28.76L114.46 28.77L114.38 28.69Q114.57 30.02 115.49 32.11L115.58 32.21L115.51 32.14Q115.93 33.13 116.96 33.86L117.14 34.03L117.06 33.96Q117.70 35.39 118.99 36.07L119.03 36.11L119.07 36.15Q119.91 36.31 120.86 36.69L120.89 36.71L122.77 37.46L122.84 37.52Q122.55 38.68 120.61 38.57L120.54 38.50L120.58 38.54Q120.21 38.66 118.99 38.36L118.94 38.31L118.92 38.14L118.84 38.28L118.83 38.27Q117.90 37.84 117.26 36.36L117.25 36.35L117.25 36.35Q115.18 37.97 114.07 39.11L113.93 38.97L114.06 39.10Q114.29 39.94 115.32 40.74L115.39 40.81L115.12 40.84L115.22 40.95Q116.67 43.08 120.89 43.46L120.86 43.42L120.90 43.47Q122.00 43.42 125.23 43.65Z"/><path fill="#222" d="M65.32 49.63L65.26 49.57L65.35 49.66Q68.25 45.79 71.15 39.58L71.07 39.50L71.05 39.49Q68.04 33.05 61.95 24.98L61.93 24.96L61.85 24.88Q63.76 26.02 66.54 26.67L66.67 26.81L66.67 26.81Q70.15 31.43 72.59 36.64L72.60 36.66L72.48 36.54Q74.78 31.38 77.87 26.96L77.89 26.98L77.73 26.83Q80.05 26.59 82.14 25.79L82.17 25.82L82.19 25.84Q78.63 29.51 75.16 36.94L75.31 37.08L72.39 43.00L72.42 43.02Q70.87 46.05 69.12 48.67L69.25 48.80L69.30 48.85Q66.76 49.10 65.32 49.63ZM71.59 51.06L71.53 51.01L71.49 50.96Q73.11 47.98 74.55 44.70L74.60 44.74L77.35 38.44L77.29 38.38Q80.92 30.47 84.23 26.47L84.11 26.36L84.15 26.40Q82.85 27.11 80.94 27.79L80.93 27.78L81.97 26.38L82.03 26.44Q82.47 25.63 83.08 24.94L83.23 25.10L83.14 25.00Q80.41 26.00 77.55 26.46L77.59 26.49L77.62 26.53Q74.92 30.49 72.98 34.95L73.03 35.00L73.02 34.98Q71.33 31.62 69.54 28.80L69.41 28.67L69.57 28.83Q69.22 28.67 68.86 28.64L68.98 28.76L68.89 28.66Q68.51 28.61 68.32 28.61L68.40 28.69L68.30 28.59Q67.72 27.51 66.76 26.37L66.77 26.38L66.61 26.21Q63.54 25.66 60.80 23.95L60.79 23.94L60.74 23.89Q67.06 31.96 70.76 39.57L70.78 39.59L70.81 39.63Q68.51 44.56 64.44 50.20L64.40 50.16L64.54 50.30Q65.33 49.99 66.13 49.83L66.08 49.78L67.67 49.40L67.75 49.47Q67.17 50.23 65.99 51.86L65.94 51.81L66.02 51.89Q68.22 51.20 71.50 50.97Z"/><path fill="#222" d="M104.63 23.29L104.72 23.38L104.68 23.34Q102.83 19.13 96.63 19.32L96.73 19.42L96.69 19.39Q92.31 19.54 90.33 20.99L90.32 20.98L90.31 20.97Q87.84 22.64 87.84 26.75L87.94 26.86L87.91 28.69L87.90 28.68Q87.95 37.56 96.97 37.56L96.90 37.49L96.88 37.47Q99.02 37.55 100.50 36.75L100.51 36.76L100.38 36.63Q102.24 35.64 102.09 33.77L102.24 33.92L102.14 33.83Q101.88 31.66 98.19 30.75L98.24 30.80L96.36 30.86L96.24 30.74Q95.44 30.89 94.49 30.93L94.39 30.83L94.39 30.83Q94.34 29.83 94.31 27.93L94.36 27.98L94.30 27.92Q101.99 27.97 106.18 27.62L106.31 27.75L106.15 27.60Q106.21 28.53 106.21 29.33L106.11 29.22L106.16 29.28Q106.23 30.15 106.27 30.95L106.14 30.82L106.30 30.97Q105.10 30.88 105.10 30.88L105.08 30.87L105.03 30.81Q103.76 30.91 104.14 30.91L104.12 30.89L104.02 30.79Q105.19 32.50 105.58 34.48L105.65 34.55L105.51 34.41Q105.63 35.14 105.63 35.60L105.74 35.71L105.69 35.66Q105.75 40.36 96.95 40.36L96.92 40.33L96.96 40.36Q89.72 40.25 87.14 38.16L87.20 38.22L87.10 38.12Q85.26 35.90 85.26 30.84L85.22 30.80L85.17 30.75Q85.19 29.70 85.04 27.00L85.10 27.06L84.96 26.92Q84.96 24.72 85.00 23.35L84.98 23.32L84.97 23.32Q85.07 20.44 86.44 18.85L86.36 18.76L86.36 18.77Q88.88 16.68 93.75 16.49L93.79 16.53L96.60 16.60L96.42 16.42Q99.61 16.41 103.04 16.83L103.00 16.79L102.98 16.77Q106.83 17.35 107.78 20.58L107.84 20.64L107.73 20.53Q106.73 21.47 104.64 23.30ZM105.98 25.44L106.08 25.42L106.11 25.45Q107.30 24.36 109.16 22.38L109.20 22.42L109.19 22.41Q108.90 21.47 107.91 19.76L107.96 19.81L107.98 19.82Q106.62 16.99 102.82 16.34L102.96 16.49L103.00 16.52Q100.82 16.36 96.52 16.06L96.49 16.03L93.88 16.23L93.76 16.12Q88.60 16.32 86.01 18.30L86.05 18.34L86.10 18.39Q84.60 19.90 84.49 22.98L84.50 23.00L84.58 23.08Q84.51 22.55 84.74 28.03L84.82 28.11L84.81 28.10Q84.89 29.52 84.97 32.26L84.88 32.17L84.95 32.24Q85.15 36.70 86.90 38.64L86.75 38.49L86.81 38.56Q87.28 39.48 88.16 40.36L88.08 40.29L88.03 40.23Q91.01 42.18 96.53 42.52L96.55 42.54L99.45 42.75L99.40 42.69Q101.06 42.87 103.08 42.76L103.12 42.80L103.09 42.76Q104.51 42.66 106.60 42.13L106.57 42.09L106.63 42.16Q108.48 41.57 108.44 39.25L108.41 39.22L108.53 39.34Q108.54 38.09 107.48 35.31L107.47 35.30L107.38 35.22Q107.17 34.40 106.64 33.60L106.52 33.48L106.48 33.44Q107.21 33.60 108.39 33.79L108.42 33.82L108.27 33.67Q108.11 30.20 108.15 29.51L108.03 29.40L108.12 29.48Q107.68 29.42 107.26 29.38L107.33 29.46L107.28 29.41Q106.84 29.30 106.45 29.38L106.58 29.51L106.59 29.51Q106.57 28.39 106.64 27.32L106.55 27.23L106.59 27.27Q100.39 27.85 94.11 27.73L94.06 27.68L93.96 27.58Q94.09 28.59 94.09 29.50L94.01 29.42L94.10 31.27L94.06 31.22Q94.57 31.35 94.99 31.32L94.92 31.25L94.86 31.19Q95.38 31.28 95.83 31.28L95.77 31.22L95.69 31.14Q95.74 31.64 95.77 32.14L95.72 32.08L95.71 32.07Q95.74 32.56 95.70 33.05L95.79 33.15L95.68 33.03Q96.76 33.04 97.78 33.01L97.88 33.10L97.79 33.01Q98.78 32.97 99.80 33.01L99.88 33.08L99.84 33.04Q100.90 33.30 101.77 33.69L101.89 33.80L101.82 33.77L101.73 33.68Q101.93 35.25 100.26 36.16L100.34 36.25L100.35 36.26Q98.65 37.15 96.94 37.15L96.97 37.18L96.85 37.06Q93.13 37.18 90.69 35.43L90.67 35.41L90.64 35.38Q89.77 33.45 89.92 30.89L89.78 30.75L89.93 30.91Q90.16 26.03 92.00 24.03L92.05 24.08L91.95 23.97Q93.93 22.11 98.62 21.81L98.60 21.79L98.58 21.77Q102.20 21.51 104.15 23.30L104.07 23.23L104.16 23.31Q104.22 23.41 104.33 23.60L104.31 23.58L104.39 23.55L104.35 23.51Q105.11 24.38 105.68 25.48L105.70 25.51L105.96 25.42Z"/></svg>