<svg xmlns="http://www.w3.org/2000/svg" width="150" height="50" viewBox="0,0,150,50"><path fill="#333" d="M71.37 19.75L71.25 19.62L71.25 19.62Q69.36 19.83 68.41 19.98L68.36 19.93L68.46 20.03Q66.67 20.11 65.46 20.64L65.47 20.66L65.49 20.68Q61.97 22.11 61.86 26.79L61.97 26.91L61.87 26.81Q61.90 29.57 62.54 32.50L62.40 32.36L62.45 32.40Q63.26 36.38 66.87 37.56L67.03 37.71L67.05 37.74Q68.77 38.12 70.22 37.97L70.28 38.03L70.78 38.07L70.82 38.11Q70.91 38.01 71.10 38.05L71.12 38.07L71.13 38.08Q71.18 37.98 71.33 37.94L71.47 38.08L71.36 37.96Q74.08 37.79 75.45 37.22L75.42 37.19L71.87 33.68L71.74 33.56Q72.21 33.37 72.82 32.76L72.68 32.63L73.75 31.86L73.78 31.90Q75.56 33.91 77.54 35.96L77.52 35.95L77.55 35.98Q79.73 34.00 80.00 28.64L80.12 28.76L80.17 28.81Q80.22 27.87 80.22 26.95L80.26 26.99L80.10 26.83Q80.26 21.32 75.19 20.22L75.19 20.21L75.04 20.07Q73.81 19.83 71.30 19.67ZM84.05 41.71L84.03 41.69L84.00 41.66Q83.42 42.11 82.24 42.98L82.29 43.04L77.89 39.36L77.81 39.28Q75.43 40.59 71.16 40.63L71.05 40.52L71.23 40.70Q64.68 40.80 61.86 38.56L61.70 38.40L61.74 38.43Q60.03 36.73 59.58 33.76L59.60 33.78L59.47 33.66Q59.28 31.86 58.90 28.29L58.95 28.33L58.87 28.25Q59.00 27.66 58.88 25.91L58.76 25.79L58.79 25.82Q58.61 24.23 58.65 23.36L58.80 23.50L58.67 23.38Q58.95 20.49 60.70 18.93L60.65 18.89L60.54 18.77Q62.13 17.51 65.33 17.01L65.28 16.97L65.31 16.99Q67.82 16.65 70.72 16.73L70.59 16.60L70.71 16.72Q78.25 16.88 81.37 19.24L81.24 19.10L81.37 19.24Q83.48 21.31 83.22 26.22L83.21 26.22L83.12 26.12Q83.12 29.97 82.93 31.30L82.78 31.15L82.74 31.11Q82.18 35.69 79.86 38.01L79.77 37.93L79.82 37.98Q81.40 39.32 84.14 41.80ZM79.20 17.44L79.20 17.44L79.13 17.38Q77.14 16.68 70.63 16.19L70.76 16.31L70.63 16.18Q69.24 16.21 66.46 16.32L66.50 16.36L66.52 16.38Q62.31 16.63 60.07 18.61L60.16 18.70L60.09 18.63Q58.41 20.07 58.41 23.23L58.49 23.31L58.48 23.30Q58.32 23.97 58.47 25.69L58.63 25.85L58.58 25.80Q58.76 27.54 58.76 28.41L58.65 28.30L58.76 28.42Q58.76 30.01 59.14 33.59L59.18 33.63L59.23 33.68Q59.52 36.49 61.12 38.54L61.14 38.56L61.10 38.52Q61.55 39.47 62.77 40.61L62.70 40.54L62.76 40.60Q65.52 42.64 70.70 42.90L70.61 42.82L70.74 42.95Q71.05 42.91 73.45 43.03L73.33 42.91L73.37 42.95Q78.22 43.15 80.50 42.09L80.37 41.96L80.52 42.10Q81.37 42.76 86.09 46.34L86.11 46.36L86.14 46.39Q86.59 45.70 87.88 44.71L87.89 44.72L88.04 44.87Q87.01 44.03 86.21 43.34L86.22 43.35L84.62 41.94L84.78 41.95L84.72 41.88Q84.10 41.38 82.88 40.36L82.97 40.44L82.91 40.38Q84.75 37.81 84.75 33.28L84.93 33.46L84.79 33.31Q84.91 33.02 84.95 32.18L84.94 32.17L84.90 32.13Q84.93 31.29 84.93 30.87L84.84 30.78L84.96 30.90Q84.97 25.38 84.24 23.02L84.23 23.01L84.28 23.06Q83.76 21.63 82.89 20.56L82.92 20.60L82.91 20.59Q82.08 18.42 79.15 17.40ZM73.13 21.96L73.13 21.96L73.28 22.11Q77.30 21.98 79.13 23.58L79.13 23.58L79.17 23.63Q79.62 24.72 79.73 26.05L79.86 26.18L79.71 26.03Q79.90 27.40 79.83 28.77L79.82 28.76L79.74 28.68Q79.39 33.62 77.44 35.33L77.54 35.43L77.47 35.36Q76.26 34.15 73.74 31.41L73.64 31.30L73.61 31.27Q72.99 32.17 71.42 33.73L71.34 33.65L71.41 33.72Q71.93 34.27 73.07 35.45L72.97 35.35L73.01 35.51L72.88 35.37Q73.55 36.01 74.58 37.08L74.61 37.10L74.58 37.08Q73.61 37.36 71.29 37.67L71.25 37.63L70.73 37.64L70.33 37.66L70.28 37.65L70.24 37.61Q66.84 37.67 64.86 36.03L64.82 36.00L64.84 36.01Q63.89 34.00 63.93 30.88L63.96 30.91L63.79 30.75Q63.98 22.06 73.16 21.99Z"/><path fill="#333" d="M43.88 29.67L43.90 29.69L43.82 29.61Q43.85 33.91 43.13 38.06L43.06 37.99L43.23 38.16Q45.42 37.53 48.50 37.42L48.55 37.47L48.41 37.32Q49.74 37.52 50.81 36.51L50.90 36.60L50.82 36.52Q51.83 35.45 51.83 34.12L52.02 34.31L51.88 34.17Q51.89 33.88 51.85 33.61L51.93 33.69L51.89 33.65Q51.75 30.73 49.51 29.90L49.42 29.81L49.43 29.81Q48.82 29.66 48.13 29.74L48.07 29.68L48.07 29.68Q47.06 29.65 46.03 29.69L45.93 29.60L45.90 29.56Q44.84 29.60 43.81 29.60ZM42.64 19.22L42.70 19.28L42.66 19.24Q43.51 22.53 43.78 26.90L43.71 26.84L43.68 26.81Q45.30 27.10 47.97 27.14L47.93 27.10L47.91 27.08Q50.76 27.04 51.10 23.50L51.09 23.48L51.16 23.55Q51.45 21.71 50.04 20.87L49.95 20.78L49.92 20.75Q49.08 20.30 44.67 19.65L44.60 19.58L44.71 19.69Q43.60 19.50 42.69 19.27ZM38.98 42.09L39.06 42.18L39.05 42.17Q41.51 35.49 41.24 28.10L41.13 27.99L41.25 28.11Q40.82 20.67 37.89 14.20L37.93 14.25L37.90 14.21Q41.74 16.80 47.96 17.04L48.04 17.12L47.90 16.98Q54.15 17.26 54.50 20.15L54.63 20.28L54.62 20.28Q54.90 23.00 53.50 25.66L53.57 25.74L53.40 25.56Q52.78 27.19 51.19 27.88L51.10 27.79L51.16 27.85Q54.84 28.56 55.07 33.93L55.08 33.94L55.02 33.89Q54.99 34.89 54.92 36.30L55.03 36.40L54.99 36.36Q54.91 37.66 53.98 38.59L54.11 38.72L54.10 38.72Q53.03 39.51 51.70 39.66L51.75 39.71L51.79 39.75Q50.27 39.80 49.21 39.80L49.26 39.85L49.26 39.85Q43.58 39.88 39.05 42.16ZM51.77 42.40L51.74 42.37L51.79 42.41Q52.66 42.42 54.53 42.53L54.61 42.61L54.63 42.63Q55.91 42.54 57.01 41.66L57.01 41.66L57.08 41.73Q57.96 40.90 57.85 39.34L57.71 39.20L57.69 39.18Q57.79 38.41 57.07 34.94L57.05 34.92L57.02 34.89Q56.35 31.68 54.49 30.19L54.37 30.08L53.95 29.24L53.93 29.21Q55.62 27.82 56.19 24.05L56.20 24.07L56.32 24.19Q56.50 23.07 56.43 21.66L56.43 21.67L56.40 21.64Q56.32 20.30 55.22 19.46L55.12 19.36L55.27 19.52Q54.94 19.30 54.83 19.26L54.77 19.21L54.68 19.11Q54.45 18.62 53.62 17.82L53.67 17.88L53.75 17.96Q52.14 16.80 47.91 16.61L47.94 16.64L47.83 16.53Q41.22 16.28 37.22 13.39L37.33 13.49L37.34 13.50Q40.67 20.56 40.97 28.10L40.82 27.95L40.78 27.91Q41.30 35.93 38.49 42.86L38.39 42.76L40.47 41.83L40.46 41.82Q40.13 43.01 39.63 44.16L39.64 44.17L39.68 44.20Q43.94 42.29 48.96 42.29L48.97 42.30L48.99 42.32Q50.24 42.16 51.69 42.32ZM49.72 31.93L49.62 31.83L49.59 31.80Q50.46 31.87 51.37 32.33L51.24 32.20L51.36 32.32Q51.44 32.63 51.60 33.70L51.45 33.55L51.60 33.70Q51.77 35.05 50.83 36.09L50.79 36.05L50.76 36.02Q49.94 37.18 48.54 37.07L48.54 37.07L46.90 37.04L47.00 37.13Q46.25 37.18 45.53 37.30L45.55 37.32L45.57 37.34Q45.77 35.41 45.85 31.95L45.96 32.06L45.82 31.92Q46.58 31.95 47.84 31.92L47.78 31.86L47.71 31.79Q49.08 31.87 49.69 31.90ZM48.64 22.29L48.59 22.24L49.08 22.35L49.02 22.29Q49.16 22.20 49.35 22.24L49.44 22.33L49.72 22.22L50.11 22.42L50.71 22.49L50.83 22.61Q50.88 22.81 50.88 23.12L50.91 23.15L50.76 23.53L50.78 23.56Q50.92 24.95 50.04 25.88L49.88 25.72L49.86 25.70Q49.16 26.81 47.94 26.81L47.84 26.70L47.91 26.78Q46.80 26.70 46.80 26.70L46.87 26.77L46.90 26.79Q45.40 26.58 45.74 26.58L45.92 26.77L45.88 26.73Q45.74 25.10 45.44 22.05L45.39 22.01L45.51 22.13Q47.16 22.33 48.68 22.33Z"/><path fill="#333" d="M22.57 41.35L22.60 41.38L22.56 41.34Q19.70 41.53 18.45 40.99L18.43 40.98L18.39 40.94Q16.50 40.19 16.57 37.71L16.56 37.70L16.56 37.69Q16.83 34.43 16.83 35.00L16.75 34.92L16.73 34.90Q16.83 29.67 13.97 24.83L13.94 24.80L13.90 24.76Q15.93 25.76 17.91 26.14L17.76 26.00L17.80 26.04Q19.56 30.69 19.45 35.18L19.49 35.22L19.39 35.12Q19.21 36.58 20.05 37.80L20.19 37.94L20.02 37.77Q21.01 39.18 22.53 38.99L22.57 39.02L22.97 38.93L23.00 38.96Q24.27 38.83 25.09 38.07L25.17 38.15L25.05 38.02Q25.81 37.20 25.81 36.25L25.96 36.40L25.97 36.41Q25.95 36.16 25.91 35.97L25.86 35.92L25.88 35.94Q25.81 30.69 26.95 26.35L26.84 26.24L26.98 26.39Q27.93 26.23 28.92 26.00L29.03 26.11L31.06 25.63L30.95 25.52Q28.43 30.57 28.74 36.13L28.77 36.17L28.76 36.15Q28.98 39.26 27.26 40.41L27.20 40.35L27.24 40.39Q25.99 41.31 22.68 41.46ZM24.88 43.74L24.83 43.68L24.94 43.80Q28.40 43.94 30.22 43.18L30.26 43.22L30.22 43.18Q31.12 42.40 31.12 40.99L31.04 40.91L31.02 40.89Q31.22 40.17 30.95 38.61L30.81 38.47L30.85 38.51Q30.40 35.40 30.78 32.39L30.81 32.42L30.73 32.34Q31.06 29.13 32.47 26.39L32.52 26.44L32.51 26.43Q31.89 26.76 30.56 27.18L30.65 27.27L30.54 27.16Q30.81 26.59 31.11 26.02L31.03 25.94L31.68 24.88L31.69 24.88Q29.84 25.62 26.68 26.12L26.50 25.94L26.51 25.95Q25.45 30.91 25.60 36.01L25.59 35.99L25.62 36.02Q25.63 38.05 22.97 38.55L22.85 38.43L22.65 38.69L22.36 38.55L21.57 38.56L21.53 38.52Q21.44 37.63 21.48 37.13L21.32 36.97L21.45 37.10Q21.55 32.48 20.86 28.07L20.99 28.19L19.79 27.91L19.98 28.10Q19.35 27.97 18.82 27.85L18.77 27.80L18.73 27.77Q18.53 26.53 18.26 25.77L18.21 25.72L18.13 25.64Q15.35 25.22 13.11 23.93L13.16 23.98L13.12 23.94Q15.25 27.44 15.97 30.83L16.03 30.89L16.00 30.86Q16.59 33.16 16.44 36.66L16.39 36.61L16.31 36.54Q16.31 36.65 16.23 37.75L16.31 37.83L16.23 37.75Q16.06 40.09 17.43 41.05L17.58 41.19L17.58 41.19Q17.85 43.33 24.86 43.71Z"/><path fill="#222" d="M98.65 39.81L98.65 39.81L98.60 39.76Q96.78 39.85 94.76 40.04L94.74 40.01L94.71 39.99Q95.30 34.67 95.30 29.84L95.37 29.90L95.46 30.00Q95.36 24.99 94.72 19.77L94.85 19.91L94.80 19.86Q90.22 19.47 87.03 17.79L87.04 17.80L86.27 16.01L86.16 15.90Q86.05 15.48 85.44 14.27L85.38 14.21L85.47 14.30Q90.43 16.86 96.44 17.05L96.48 17.08L96.59 17.20Q102.38 17.27 107.82 15.21L107.78 15.17L107.91 15.30Q107.07 16.59 106.42 18.42L106.53 18.53L106.51 18.51Q102.86 19.78 98.60 19.97L98.58 19.95L98.57 19.94Q98.45 25.03 98.45 29.98L98.40 29.93L98.43 29.96Q98.33 34.81 98.64 39.80ZM108.50 14.52L108.44 14.47L108.57 14.59Q102.63 16.76 96.42 16.57L96.55 16.70L96.54 16.68Q89.89 16.51 84.79 13.54L84.69 13.44L84.77 13.53Q85.38 14.66 86.67 17.94L86.85 18.11L86.83 18.10Q87.39 18.31 88.65 18.88L88.75 18.99L88.67 18.90Q88.89 19.58 89.23 21.10L89.24 21.11L89.21 21.08Q91.53 21.95 94.57 22.18L94.53 22.14L94.52 22.13Q95.03 25.95 95.03 29.72L95.01 29.70L94.98 29.67Q94.99 35.04 94.19 40.41L94.17 40.40L94.13 40.36Q95.87 40.30 96.40 40.30L96.41 40.31L96.37 40.27Q96.31 40.52 96.26 41.19L96.30 41.23L96.34 41.27Q96.30 41.96 96.30 42.30L96.22 42.22L96.30 42.30Q97.49 42.23 99.01 42.31L99.05 42.35L99.07 42.36Q99.91 42.33 101.74 42.48L101.72 42.47L101.80 42.54Q100.55 37.60 100.44 32.43L100.42 32.41L100.36 32.35Q100.24 27.05 100.78 22.14L100.85 22.21L100.79 22.16Q104.77 21.64 107.93 20.42L107.97 20.47L107.87 20.37Q108.59 18.00 109.62 15.95L109.63 15.95L109.62 15.95Q108.24 16.59 107.45 16.90L107.57 17.02L107.40 16.85Q108.00 15.74 108.57 14.59Z"/><path fill="#222" d="M122.09 40.16L122.13 40.20L119.99 40.34L120.01 40.37Q119.53 40.35 118.56 40.40L118.45 40.29L118.53 40.37Q117.54 40.41 117.05 40.41L117.05 40.42L117.13 40.50Q115.33 40.33 114.30 39.49L114.44 39.63L114.30 39.49Q115.12 38.41 116.76 36.28L116.88 36.40L116.88 36.40Q118.18 38.00 120.39 37.77L120.36 37.75L120.36 37.75Q121.22 37.58 121.86 36.93L121.87 36.94L121.94 37.00Q122.57 36.34 122.45 35.46L122.48 35.49L122.38 35.39Q122.21 30.73 122.28 26.16L122.33 26.20L122.35 26.22Q122.40 21.63 122.93 17.02L122.84 16.93L122.92 17.01Q124.76 16.72 126.89 15.69L127.03 15.83L126.91 15.71Q125.05 22.45 125.05 29.68L125.17 29.81L125.22 29.86Q125.07 33.24 125.52 36.74L125.58 36.81L125.53 36.75Q125.68 37.16 125.68 37.51L125.68 37.51L125.58 37.41Q125.56 37.97 125.34 38.50L125.39 38.55L125.47 38.63Q124.95 39.94 122.13 40.21ZM126.92 42.90L126.89 42.87L127.31 42.94L127.60 42.82L127.78 42.62L127.84 42.68Q128.17 42.44 128.25 42.33L128.32 42.40L128.19 42.27Q128.37 41.08 128.11 40.09L128.14 40.12L128.23 40.22Q126.77 34.30 127.03 27.94L127.15 28.05L127.15 28.06Q127.26 21.81 129.05 15.91L129.10 15.96L129.03 15.89Q128.21 16.59 126.95 17.31L126.91 17.27L126.96 17.32Q127.10 16.51 127.52 14.99L127.69 15.15L127.51 14.97Q125.11 16.43 122.45 16.73L122.51 16.79L122.41 16.69Q122.16 21.20 122.08 26.15L121.94 26.00L121.90 25.97Q121.86 31.90 121.94 35.33L121.91 35.30L122.09 35.48Q122.03 37.13 120.28 37.29L120.38 37.39L120.23 37.24Q118.56 37.40 116.89 35.76L116.91 35.78L116.98 35.85Q114.86 38.30 113.90 39.86L113.96 39.92L113.80 39.76Q114.53 40.49 115.56 40.72L115.50 40.65L115.47 40.62Q115.49 40.88 115.23 41.11L115.13 41.01L115.23 41.10Q116.58 41.97 118.56 42.23L118.56 42.23L118.57 42.24Q119.12 42.45 122.41 42.75L122.41 42.75L122.29 42.63Q125.67 43.02 127.04 43.02Z"/></svg>