<svg xmlns="http://www.w3.org/2000/svg" width="150" height="50" viewBox="0,0,150,50"><path fill="#444" d="M87.65 39.03L87.58 38.97L87.69 39.07Q89.34 36.45 94.09 29.18L94.22 29.31L94.08 29.17Q98.30 23.15 101.15 19.87L101.16 19.87L101.02 19.74Q98.93 20.04 96.83 20.04L96.92 20.13L96.94 20.15Q91.70 20.17 87.71 18.38L87.62 18.29L87.66 18.33Q86.95 16.37 86.27 14.81L86.33 14.87L86.39 14.94Q90.94 17.08 96.61 17.19L96.55 17.14L96.48 17.07Q101.60 17.13 106.78 15.22L106.80 15.24L106.79 15.23Q106.47 16.13 106.17 16.93L106.15 16.91L105.50 18.43L105.50 18.43Q102.42 22.05 98.42 27.88L98.51 27.97L95.26 32.86L95.16 32.77Q93.56 35.27 91.73 37.56L91.79 37.61L91.66 37.49Q95.03 36.94 98.34 37.01L98.23 36.90L98.34 37.01Q101.75 37.19 104.91 38.10L104.88 38.06L105.41 39.70L105.24 39.53Q105.47 40.33 105.81 41.16L105.97 41.33L105.85 41.21Q101.12 39.56 95.98 39.75L96.07 39.84L96.06 39.82Q90.88 39.98 86.38 41.99L86.43 42.04L86.43 42.04Q86.88 41.04 87.60 38.99ZM85.87 42.78L85.85 42.75L85.94 42.85Q87.11 42.19 87.91 41.92L87.88 41.89L87.82 41.83Q87.64 42.67 86.95 44.20L86.93 44.18L86.86 44.10Q92.56 41.97 98.54 42.20L98.62 42.27L98.56 42.22Q104.92 42.48 109.94 45.26L109.96 45.28L109.99 45.31Q108.62 42.95 107.82 40.78L107.70 40.66L107.72 40.67Q107.25 40.47 105.72 39.90L105.67 39.85L105.69 39.86Q105.63 39.24 105.21 37.75L105.19 37.72L105.15 37.69Q100.98 36.49 95.88 36.68L95.99 36.79L95.89 36.68Q98.04 33.97 101.58 28.41L101.60 28.42L101.53 28.35Q105.27 22.73 107.17 20.18L107.21 20.22L107.07 20.08Q107.59 18.69 108.61 15.99L108.65 16.03L108.61 15.98Q107.96 16.36 106.51 16.97L106.57 17.02L106.48 16.94Q106.83 16.15 107.55 14.62L107.60 14.67L107.65 14.72Q102.15 16.68 96.44 16.60L96.51 16.68L96.54 16.71Q90.58 16.61 85.63 14.09L85.64 14.10L85.52 13.99Q86.83 16.51 87.55 18.76L87.43 18.63L87.44 18.65Q88.63 19.27 89.43 19.50L89.32 19.38L89.37 19.43Q89.64 20.12 89.91 21.57L90.00 21.67L89.96 21.62Q93.67 22.67 98.54 22.48L98.54 22.48L98.50 22.43Q96.14 25.67 92.83 30.66L92.82 30.65L87.32 39.01L87.37 39.06Q86.91 40.23 85.88 42.79Z"/><path fill="#444" d="M26.25 41.28L26.20 41.22L23.31 41.19L23.26 41.15Q20.85 41.02 20.05 40.90L19.94 40.79L20.00 40.85Q18.18 40.52 17.00 39.64L17.03 39.68L16.94 39.58Q15.69 38.22 15.47 34.87L15.41 34.82L15.49 34.90Q15.49 34.44 15.42 33.22L15.39 33.19L15.32 33.12Q15.40 32.79 15.32 31.68L15.31 31.67L15.31 31.67Q15.32 30.88 15.36 30.16L15.25 30.05L15.30 30.10Q15.42 28.09 16.45 27.33L16.61 27.49L16.47 27.35Q18.51 26.31 23.35 26.08L23.40 26.13L23.22 25.95Q25.26 25.86 26.06 25.86L26.21 26.01L26.02 25.82Q27.61 25.92 28.98 26.23L29.00 26.25L28.98 26.23Q28.37 27.44 27.83 29.27L27.96 29.40L27.78 29.21Q27.37 29.38 26.87 29.34L26.82 29.29L26.80 29.26Q26.69 29.24 26.16 29.12L26.32 29.28L25.32 29.01L25.25 28.93Q24.26 28.75 23.65 28.78L23.64 28.77L23.68 28.81Q18.92 28.85 18.31 31.67L18.22 31.57L18.24 31.60Q18.08 32.85 18.16 33.80L18.08 33.72L18.05 33.69Q18.31 36.38 19.55 37.47L19.51 37.44L19.44 37.36Q20.68 38.45 23.27 38.49L23.36 38.58L23.30 38.51Q24.81 38.58 25.53 38.28L25.52 38.26L26.61 37.83L26.55 37.78Q26.98 37.44 27.55 37.37L27.62 37.43L27.73 37.54Q27.78 39.15 28.16 40.44L28.25 40.54L28.17 40.45Q27.97 40.86 26.18 41.21ZM29.50 44.22L29.44 44.16L29.53 44.26Q29.89 44.27 30.73 44.35L30.65 44.27L30.71 44.33Q31.34 44.35 31.69 43.78L31.63 43.73L31.61 43.71Q30.49 41.71 30.00 39.62L29.93 39.55L30.03 39.65Q29.62 39.55 29.17 39.55L29.15 39.53L29.24 39.62Q28.79 39.60 28.41 39.79L28.44 39.81L28.30 39.68Q28.05 38.51 27.90 37.10L27.89 37.10L27.91 37.11Q27.27 37.01 26.05 37.58L26.00 37.53L26.10 37.62Q24.86 38.18 24.37 38.18L24.38 38.19L24.29 38.10Q23.96 38.26 23.35 38.22L23.27 38.14L23.30 38.18Q22.39 38.14 20.41 37.57L20.43 37.59L20.46 37.62Q19.92 36.70 19.96 35.56L20.02 35.62L20.15 35.75Q20.28 31.47 25.23 30.93L25.29 30.99L25.29 30.99Q25.90 30.92 27.27 31.26L27.32 31.31L27.18 31.17Q28.61 31.57 29.33 31.53L29.26 31.46L29.40 31.60Q29.83 29.36 30.51 27.53L30.38 27.41L30.47 27.49Q29.98 27.27 29.60 27.19L29.75 27.35L28.90 27.17L28.98 27.26Q29.10 26.69 29.48 25.82L29.53 25.87L29.49 25.83Q27.94 25.46 26.38 25.46L26.35 25.43L26.35 25.43Q24.03 25.51 19.65 25.89L19.64 25.87L19.62 25.85Q17.61 25.94 16.05 26.93L16.05 26.93L16.19 27.07Q14.91 27.96 14.91 29.86L14.91 29.86L14.83 29.78Q14.98 30.35 15.09 31.57L14.94 31.41L15.08 31.56Q15.13 32.55 15.09 33.16L15.04 33.12L15.06 33.14Q15.03 34.97 15.76 38.70L15.93 38.88L15.77 38.72Q16.12 39.52 16.61 40.02L16.80 40.21L16.93 40.33L17.06 40.43L17.05 40.42Q17.97 42.43 21.89 43.04L21.98 43.14L21.91 43.07Q25.13 43.62 27.79 43.88L27.75 43.84L27.65 43.74Q28.52 43.89 29.44 44.16Z"/><path fill="#333" d="M122.67 20.14L122.64 20.12L122.63 20.11Q118.21 20.00 114.52 19.01L114.67 19.15L114.56 19.05Q116.10 23.63 116.29 28.46L116.41 28.59L116.36 28.53Q116.59 33.37 115.37 37.97L115.23 37.83L115.34 37.95Q118.07 37.25 121.57 37.09L121.63 37.15L121.68 37.20Q125.55 36.96 127.34 34.53L127.39 34.58L127.34 34.53Q128.76 32.36 128.95 28.25L129.14 28.45L128.97 28.28Q129.02 26.50 128.56 24.79L128.57 24.80L128.59 24.81Q127.32 20.08 122.60 20.08ZM110.78 42.18L110.69 42.08L110.73 42.13Q113.66 36.49 113.66 29.79L113.58 29.71L113.69 29.82Q113.55 21.15 109.25 14.15L109.35 14.26L109.42 14.33Q114.60 16.92 122.86 17.11L122.75 16.99L122.74 16.99Q131.62 17.19 131.97 24.34L132.10 24.48L131.99 24.36Q132.26 27.22 132.22 28.67L132.16 28.61L132.18 28.63Q132.14 33.35 131.30 35.52L131.25 35.47L131.20 35.42Q130.89 36.63 130.13 37.47L130.07 37.40L130.06 37.39Q128.67 38.90 126.04 39.40L126.01 39.36L125.98 39.34Q124.43 39.65 121.42 39.88L121.50 39.96L121.48 39.94Q115.27 40.31 110.66 42.06ZM128.71 42.06L128.66 42.02L128.62 41.97Q131.41 41.68 133.05 40.20L133.06 40.21L132.97 40.11Q134.22 38.40 134.19 35.66L134.19 35.67L134.22 35.70Q134.27 34.37 134.12 30.87L134.11 30.87L133.73 26.30L133.68 26.25Q133.54 24.01 132.58 21.92L132.46 21.80L132.60 21.93Q131.98 20.89 131.29 20.24L131.31 20.26L131.23 20.03L131.34 20.14Q129.69 17.24 125.28 16.86L125.22 16.80L125.30 16.88Q122.56 16.69 115.56 15.97L115.54 15.95L115.60 16.01Q112.16 15.39 108.47 13.37L108.56 13.46L108.58 13.48Q113.37 20.82 113.37 29.57L113.33 29.54L113.40 29.61Q113.37 36.58 110.02 42.75L110.12 42.85L109.98 42.71Q110.82 42.60 112.15 42.11L111.99 41.94L112.06 42.02Q111.81 42.94 110.93 44.43L110.88 44.37L110.88 44.38Q113.85 43.23 117.20 42.74L117.33 42.87L117.22 42.75Q119.35 42.49 123.01 42.37L122.86 42.23L122.87 42.24Q126.83 42.20 128.66 42.01ZM128.64 28.33L128.68 28.37L128.74 28.42Q128.37 36.43 121.67 36.81L121.59 36.73L121.67 36.82Q119.77 36.97 117.71 37.24L117.72 37.24L117.65 37.17Q118.33 33.28 118.33 29.63L118.35 29.64L118.25 29.55Q118.24 25.84 117.51 22.00L117.64 22.12L117.67 22.15Q119.79 22.37 124.47 22.37L124.45 22.35L124.60 22.50Q125.83 22.20 127.46 23.15L127.55 23.24L127.48 23.17Q128.80 25.48 128.64 28.33Z"/><path fill="#444" d="M46.25 29.02L46.44 29.20L46.31 29.08Q44.61 29.09 43.37 30.52L43.34 30.48L43.27 30.42Q42.14 31.95 41.95 33.85L41.77 33.67L41.81 33.71Q41.53 35.72 42.61 36.69L42.77 36.84L42.74 36.81Q43.83 37.79 45.92 37.67L45.87 37.62L45.88 37.63Q48.04 37.54 49.14 36.86L49.15 36.87L49.00 36.71Q50.28 35.75 50.28 34.19L50.27 34.18L50.25 34.15Q50.16 33.69 50.09 33.31L50.08 33.30L50.24 33.46Q50.14 31.61 49.03 30.26L49.21 30.44L49.20 30.42Q48.07 29.05 46.40 29.16ZM45.99 40.30L45.97 40.28L45.93 40.23Q41.59 40.27 40.18 39.51L40.23 39.55L40.14 39.47Q39.19 38.79 39.00 37.07L38.99 37.07L38.93 37.00Q38.94 36.36 38.98 35.64L38.94 35.60L38.93 35.59Q38.97 34.53 38.97 34.07L39.02 34.12L39.01 34.11Q39.46 31.25 39.62 30.57L39.59 30.54L39.64 30.59Q40.02 28.58 40.86 27.17L40.95 27.26L40.99 27.29Q43.55 22.81 49.48 16.45L49.61 16.58L49.52 16.49Q52.11 16.11 54.32 15.31L54.49 15.49L54.52 15.51Q47.48 22.78 44.28 27.01L44.33 27.06L44.31 27.04Q45.26 26.50 46.55 26.50L46.58 26.52L46.73 26.68Q49.91 26.55 51.43 28.49L51.48 28.53L51.56 28.61Q52.88 30.24 53.22 33.78L53.21 33.77L53.25 33.81Q53.27 34.48 53.27 35.09L53.31 35.13L53.19 35.01Q53.15 38.09 50.94 39.15L50.93 39.14L51.07 39.28Q49.87 39.90 45.98 40.29ZM48.27 42.68L48.26 42.68L48.21 42.62Q49.54 42.62 51.52 42.70L51.41 42.59L51.58 42.76Q53.16 42.78 54.72 42.06L54.78 42.11L54.74 42.07Q55.80 41.23 55.80 39.44L55.78 39.43L55.87 39.51Q55.81 38.96 55.64 37.97L55.54 37.87L55.58 37.91Q55.38 36.89 55.38 36.43L55.54 36.59L55.49 36.54Q54.54 31.75 52.94 29.84L53.05 29.96L52.91 29.82Q52.88 29.75 52.73 29.52L52.70 29.49L52.52 29.39L52.38 29.29L52.36 29.26Q52.09 28.84 51.48 27.89L51.47 27.88L51.44 27.85Q50.42 26.79 48.44 26.34L48.49 26.38L48.59 26.49Q49.76 24.83 52.73 21.14L52.69 21.10L56.96 15.86L56.88 15.78Q55.44 16.77 53.04 17.54L52.88 17.38L53.01 17.51Q53.88 16.47 55.67 14.49L55.69 14.52L55.71 14.53Q53.28 15.56 49.40 16.14L49.44 16.18L49.40 16.14Q43.62 21.97 40.65 26.92L40.74 27.01L40.77 27.04Q39.27 29.57 38.69 35.81L38.54 35.66L38.58 35.70Q38.62 36.39 38.70 37.34L38.67 37.31L38.59 37.23Q38.73 39.05 39.84 39.97L39.88 40.01L39.89 40.02Q40.25 40.15 40.22 40.19L40.17 40.14L40.12 40.09Q40.49 40.99 41.29 41.41L41.29 41.42L41.26 41.38Q42.86 42.22 44.80 42.41L44.71 42.32L44.76 42.37Q44.74 42.35 48.24 42.66ZM47.95 31.36L47.89 31.31L48.01 31.43Q48.51 31.24 49.46 31.73L49.53 31.80L49.57 31.84Q49.86 32.74 49.86 33.39L49.77 33.29L49.84 33.37Q50.12 35.33 49.17 36.32L49.07 36.22L49.11 36.26Q47.95 36.88 45.86 37.19L46.02 37.35L45.97 37.30Q44.43 37.21 43.89 36.94L43.86 36.91L43.97 37.02Q43.83 36.61 43.83 36.30L43.78 36.26L43.79 36.27Q43.51 32.94 46.44 31.64L46.48 31.68L46.53 31.74Q47.18 31.28 47.95 31.36Z"/><path fill="#444" d="M71.26 40.23L71.18 40.15L68.91 33.42L68.82 33.33Q64.44 20.73 58.50 14.33L58.52 14.36L58.50 14.33Q60.51 15.40 63.10 16.01L63.12 16.03L63.07 15.98Q68.24 22.28 72.58 35.04L72.50 34.96L72.69 35.15Q75.65 26.96 76.34 25.36L76.29 25.31L76.22 25.24Q78.70 19.73 81.52 16.42L81.59 16.49L81.59 16.49Q83.67 16.14 86.30 15.26L86.22 15.18L86.25 15.21Q81.55 19.69 78.51 26.92L78.58 26.99L78.64 27.05Q77.29 30.76 73.60 40.28L73.58 40.27L73.58 40.26Q73.02 40.28 72.45 40.24L72.36 40.14L72.42 40.21Q71.85 40.21 71.28 40.25ZM76.23 42.61L76.16 42.54L76.16 42.54Q78.93 32.52 80.49 28.48L80.60 28.60L80.50 28.49Q83.52 20.82 87.94 15.95L88.04 16.05L87.94 15.94Q87.06 16.47 84.96 17.20L84.94 17.17L86.13 15.89L85.99 15.75Q86.52 15.03 87.13 14.38L87.12 14.36L87.20 14.45Q84.39 15.44 81.38 16.01L81.30 15.93L81.37 16.00Q76.98 21.31 73.09 32.77L73.12 32.80L73.03 32.71Q69.39 22.60 66.19 18.22L66.34 18.37L66.29 18.32Q65.86 18.19 64.98 18.04L64.97 18.03L65.06 18.11Q64.74 17.64 63.14 15.58L63.25 15.70L63.24 15.68Q60.25 14.95 57.55 13.54L57.43 13.42L57.59 13.58Q64.21 20.65 68.59 33.44L68.49 33.35L68.52 33.37Q69.79 37.08 70.97 40.66L70.97 40.66L70.83 40.52Q71.37 40.76 72.21 40.65L72.07 40.50L72.12 40.55Q72.46 41.23 73.14 42.57L73.08 42.50L73.18 42.61Q74.03 42.54 74.75 42.61L74.67 42.54L74.80 42.66Q75.55 42.69 76.31 42.69Z"/></svg>