<svg xmlns="http://www.w3.org/2000/svg" width="150" height="50" viewBox="0,0,150,50"><path fill="#333" d="M31.06 41.50L31.19 41.63L31.22 41.66Q28.91 41.07 26.74 40.91L26.72 40.89L26.89 41.07Q25.34 39.51 22.67 35.66L22.79 35.78L22.67 35.66Q20.59 38.87 18.19 41.31L18.10 41.22L15.98 41.57L15.95 41.54Q14.91 41.75 13.92 42.02L14.03 42.13L13.92 42.02Q18.10 37.91 21.11 33.79L21.16 33.84L21.16 33.85Q17.87 29.64 12.46 24.85L12.42 24.80L12.43 24.81Q14.70 25.60 17.40 26.02L17.40 26.01L17.50 26.12Q20.97 29.24 22.87 31.94L22.78 31.85L22.84 31.91Q24.95 28.84 27.69 26.33L27.69 26.33L27.58 26.22Q30.70 25.95 32.53 25.46L32.54 25.47L32.48 25.41Q27.94 29.06 24.25 33.63L24.26 33.63L24.37 33.74Q27.62 38.29 31.09 41.53ZM33.88 24.60L34.02 24.74L34.06 24.78Q31.08 25.53 27.54 25.88L27.47 25.81L27.63 25.96Q24.59 28.48 22.88 30.96L22.91 30.99L22.91 30.99Q22.10 30.03 20.46 28.05L20.35 27.93L20.15 27.93L20.21 27.99Q20.16 28.05 20.05 28.05L19.89 27.89L19.95 27.95Q19.26 27.19 17.63 25.74L17.51 25.63L17.66 25.78Q14.08 25.24 11.22 24.03L11.04 23.84L11.22 24.02Q16.70 28.78 20.74 33.92L20.73 33.91L20.61 33.79Q17.34 38.51 12.92 42.82L13.01 42.90L12.91 42.81Q13.13 42.68 16.63 41.84L16.63 41.84L16.57 41.79Q15.18 43.25 13.55 44.58L13.57 44.61L13.54 44.58Q16.74 43.66 19.90 43.47L19.91 43.48L19.86 43.44Q22.21 41.14 24.11 38.40L24.08 38.36L24.20 38.49Q25.61 40.24 26.83 41.42L26.70 41.29L26.76 41.35Q26.97 41.45 27.05 41.52L27.07 41.54L27.24 41.53L27.23 41.52Q28.39 42.52 29.72 43.59L29.84 43.70L29.71 43.58Q33.42 44.25 36.32 45.27L36.28 45.24L36.20 45.15Q29.97 40.64 26.28 35.46L26.43 35.61L26.45 35.64Q30.01 30.52 34.58 26.45L34.66 26.52L34.53 26.40Q33.70 26.86 32.71 27.09L32.65 27.03L30.68 27.53L30.65 27.50Q31.75 26.51 33.92 24.64Z"/><path fill="#333" d="M46.51 19.66L46.40 19.55L44.96 19.79L44.91 19.74Q42.62 19.81 42.40 21.83L42.38 21.81L42.35 21.78Q42.46 22.69 42.50 23.68L42.41 23.60L42.35 23.54Q42.48 25.57 43.73 26.90L43.72 26.89L43.66 26.82Q44.93 28.17 46.83 28.02L46.88 28.07L46.86 28.05Q48.85 27.83 49.61 26.92L49.60 26.90L49.59 26.90Q50.70 26.02 50.96 23.78L51.07 23.88L50.91 23.72Q51.24 21.54 49.98 20.70L49.96 20.67L50.08 20.80Q49.20 19.99 46.54 19.69ZM52.47 28.82L52.48 28.83L51.15 31.08L51.18 31.11Q48.47 35.90 44.70 39.98L44.69 39.96L44.77 40.04Q43.12 40.18 40.41 40.98L40.46 41.02L40.43 41.00Q45.70 34.66 48.86 29.86L48.90 29.90L48.83 29.83Q47.84 30.51 46.20 30.59L46.28 30.67L46.26 30.64Q43.31 30.85 41.79 28.87L41.66 28.75L41.64 28.73Q40.44 27.14 39.33 22.58L39.41 22.65L39.36 22.60Q39.33 22.11 39.18 21.18L39.31 21.31L39.16 21.17Q39.19 20.41 39.19 19.95L39.00 19.77L39.03 19.80Q39.10 18.08 40.17 17.47L40.12 17.42L40.09 17.39Q41.41 16.73 43.27 16.73L43.29 16.75L43.30 16.76Q46.38 16.64 46.38 16.64L46.43 16.69L46.47 16.73Q48.70 16.83 49.96 17.02L49.88 16.94L49.89 16.95Q52.00 17.19 52.91 17.69L52.94 17.72L52.92 17.70Q54.33 18.50 54.52 20.25L54.49 20.22L54.38 20.11Q54.55 20.51 54.36 23.18L54.33 23.14L54.37 23.18Q53.94 25.27 53.72 26.11L53.59 25.99L53.71 26.10Q53.26 27.44 52.50 28.85ZM54.51 31.36L54.35 31.19L54.46 31.31Q55.45 29.10 55.99 24.80L56.03 24.84L55.96 24.78Q56.13 22.47 56.09 21.59L56.16 21.66L56.21 21.71Q56.16 19.84 54.98 18.92L55.01 18.95L54.62 18.75L54.61 18.75Q54.37 18.01 53.46 17.36L53.56 17.46L53.42 17.32Q51.22 16.42 46.42 16.27L46.49 16.34L46.39 16.23Q45.50 16.30 43.07 16.30L43.01 16.24L42.92 16.15Q41.21 16.19 39.72 16.88L39.84 16.99L39.82 16.98Q38.54 17.64 38.62 19.46L38.69 19.54L38.67 19.51Q38.96 20.53 39.15 22.55L39.01 22.41L39.09 22.49Q39.61 25.02 39.88 25.86L39.89 25.88L40.00 25.98Q40.52 27.80 41.47 29.09L41.53 29.15L41.48 29.10Q41.85 29.54 42.23 29.92L42.17 29.87L42.06 29.76Q42.38 30.27 43.03 31.18L43.04 31.19L43.14 31.29Q44.56 32.59 46.50 32.79L46.46 32.75L46.51 32.80Q44.50 35.36 42.94 37.26L42.98 37.30L39.49 41.80L39.44 41.75Q41.67 40.98 43.31 40.64L43.29 40.61L43.27 40.60Q42.58 41.55 41.02 43.26L40.91 43.14L40.95 43.18Q44.12 42.37 47.25 42.33L47.09 42.17L47.19 42.28Q49.50 39.67 53.84 32.44L53.91 32.51L53.89 32.57L53.78 32.46Q54.15 31.84 54.50 31.34ZM48.36 21.97L48.37 21.98L48.38 21.99Q49.06 21.94 49.51 22.06L49.48 22.02L49.39 21.94Q50.09 22.10 50.47 22.22L50.59 22.33L50.42 22.16Q50.61 22.62 50.68 23.04L50.74 23.09L50.80 23.15Q50.83 23.53 50.72 23.91L50.71 23.90L50.62 23.81Q50.68 25.62 49.50 26.73L49.38 26.61L49.49 26.72Q48.41 27.62 46.77 27.58L46.91 27.71L46.81 27.62Q46.34 27.57 44.82 27.26L44.87 27.32L44.87 27.32Q44.63 26.43 44.63 25.71L44.62 25.69L44.76 25.83Q44.53 25.42 44.53 25.19L44.64 25.30L44.60 25.25Q44.55 22.99 46.83 22.19L46.92 22.29L46.93 22.29Q47.66 22.11 48.50 22.11Z"/><path fill="#222" d="M73.13 27.80L73.13 27.80L73.16 27.84Q69.57 27.67 68.47 31.02L68.37 30.92L68.40 30.95Q68.02 32.02 67.91 33.09L67.96 33.14L68.00 33.18Q67.74 35.16 68.73 36.50L68.63 36.40L68.69 36.46Q69.97 37.59 72.45 37.63L72.52 37.70L72.56 37.74Q74.33 37.72 75.74 36.58L75.76 36.60L75.85 36.69Q77.16 35.45 77.16 33.66L77.17 33.67L77.10 33.60Q77.22 33.38 77.15 33.00L77.18 33.03L77.12 32.97Q76.79 27.74 72.99 27.66ZM73.03 40.26L73.05 40.28L72.87 40.11Q69.07 40.34 67.28 38.32L67.42 38.46L67.40 38.44Q67.15 39.45 66.70 40.82L66.75 40.88L66.73 40.86Q64.74 41.57 63.49 42.15L63.52 42.18L63.44 42.10Q65.70 36.21 65.70 29.70L65.55 29.55L65.69 29.69Q65.73 21.43 62.30 13.59L62.12 13.41L62.25 13.54Q64.50 14.79 65.83 15.25L65.81 15.23L65.87 15.29Q67.87 21.82 68.03 27.65L68.11 27.73L68.09 27.72Q69.58 25.09 73.31 25.13L73.34 25.16L73.38 25.20Q76.58 25.20 78.06 27.06L78.01 27.01L78.13 27.14Q79.88 29.33 80.03 32.91L79.90 32.79L79.96 32.85Q80.00 33.99 79.92 35.59L80.02 35.68L80.08 35.75Q79.96 37.11 79.09 38.25L79.01 38.17L79.05 38.22Q77.33 39.96 72.99 40.22ZM78.47 42.74L78.37 42.63L78.42 42.69Q79.87 42.66 81.36 41.97L81.37 41.98L81.38 41.99Q82.58 40.80 82.62 38.85L82.52 38.76L82.55 38.79Q82.55 38.28 82.39 37.10L82.51 37.22L82.47 37.18Q82.28 36.38 82.16 35.47L82.18 35.49L82.32 35.62Q81.34 30.69 79.78 28.63L79.80 28.64L79.75 28.60Q79.90 28.72 79.11 27.84L79.06 27.79L79.07 27.80Q78.78 27.47 78.24 26.67L78.30 26.73L78.33 26.76Q76.65 24.74 73.30 24.78L73.40 24.87L73.36 24.84Q71.21 24.78 69.95 25.39L69.95 25.39L70.12 25.55Q69.67 20.92 69.06 17.72L69.12 17.77L69.06 17.72Q68.40 17.63 66.92 17.25L66.81 17.15L66.78 17.11Q66.68 16.41 66.23 14.96L66.17 14.91L66.21 14.95Q63.83 14.20 61.58 12.64L61.54 12.59L61.50 12.55Q65.25 20.73 65.25 29.52L65.42 29.69L65.27 29.54Q65.43 36.67 62.96 42.87L62.87 42.78L62.77 42.69Q63.50 42.38 64.83 41.81L64.96 41.94L64.90 41.88Q64.62 42.59 64.01 44.12L64.06 44.16L64.05 44.15Q66.01 43.22 68.79 42.68L68.90 42.79L69.10 40.79L69.12 40.81Q71.53 42.61 78.45 42.72ZM74.60 29.96L74.60 29.96L74.74 30.10Q75.79 30.12 76.33 30.51L76.18 30.36L76.16 30.34Q76.48 30.85 76.71 32.87L76.72 32.87L76.73 32.89Q77.06 34.90 75.81 36.21L75.78 36.18L75.82 36.22Q74.52 37.50 72.58 37.38L72.61 37.41L72.49 37.29Q71.55 37.42 70.07 36.92L70.11 36.96L70.05 36.91Q69.82 36.41 69.82 35.87L70.00 36.05L69.85 35.91Q69.82 32.79 71.38 31.19L71.43 31.24L71.43 31.28L71.42 31.27Q72.93 29.97 74.68 30.04Z"/><path fill="#111" d="M122.10 40.18L121.97 40.04L119.91 40.27L119.87 40.23Q119.56 40.38 118.59 40.44L118.59 40.43L118.61 40.45Q117.54 40.41 117.04 40.41L117.03 40.40L117.06 40.43Q115.33 40.33 114.30 39.49L114.41 39.60L114.48 39.67Q115.28 38.57 116.92 36.44L116.91 36.43L116.85 36.37Q118.04 37.87 120.25 37.64L120.29 37.68L120.35 37.73Q121.21 37.57 121.86 36.92L121.88 36.95L121.83 36.90Q122.51 36.28 122.40 35.41L122.48 35.49L122.39 35.40Q122.36 30.88 122.43 26.31L122.32 26.19L122.27 26.14Q122.47 21.70 123.00 17.09L122.85 16.94L122.95 17.04Q124.79 16.75 126.92 15.72L127.02 15.82L126.95 15.75Q125.21 22.62 125.21 29.85L125.20 29.84L125.13 29.76Q125.21 33.39 125.67 36.89L125.64 36.87L125.49 36.72Q125.72 37.21 125.72 37.56L125.65 37.48L125.70 37.53Q125.62 38.03 125.39 38.56L125.48 38.65L125.34 38.50Q124.85 39.84 122.04 40.11ZM127.05 43.03L126.99 42.97L127.28 42.92L127.65 42.87L127.84 42.68L127.90 42.74Q128.20 42.47 128.28 42.36L128.28 42.36L128.17 42.25Q128.43 41.13 128.16 40.14L128.08 40.06L128.23 40.21Q126.84 34.37 127.10 28.01L127.12 28.02L127.18 28.08Q127.39 21.94 129.18 16.04L129.03 15.89L129.21 16.07Q128.28 16.66 127.02 17.38L127.08 17.44L126.89 17.25Q127.19 16.59 127.60 15.07L127.58 15.05L127.50 14.97Q125.10 16.41 122.43 16.71L122.33 16.61L122.36 16.65Q122.06 21.10 121.98 26.05L122.08 26.14L121.95 26.01Q121.94 31.99 122.02 35.41L121.95 35.34L121.95 35.34Q122.11 37.21 120.36 37.37L120.21 37.21L120.25 37.26Q118.62 37.45 116.94 35.81L117.00 35.87L116.85 35.73Q114.92 38.37 113.97 39.93L113.91 39.87L113.92 39.88Q114.46 40.41 115.49 40.64L115.65 40.80L115.63 40.78Q115.48 40.86 115.21 41.09L115.24 41.12L115.24 41.12Q116.69 42.08 118.67 42.34L118.67 42.34L118.61 42.28Q119.11 42.44 122.41 42.75L122.31 42.65L122.35 42.69Q125.71 43.06 127.08 43.06Z"/><path fill="#222" d="M95.94 40.24L95.87 40.17L93.49 33.33L93.43 33.28Q89.11 20.73 83.17 14.33L83.13 14.30L83.11 14.27Q85.10 15.32 87.69 15.93L87.68 15.92L87.71 15.94Q92.91 22.29 97.25 35.04L97.21 35.00L97.27 35.06Q100.30 26.93 100.98 25.33L101.08 25.44L100.92 25.27Q103.36 19.72 106.18 16.41L106.25 16.48L106.18 16.41Q108.17 15.97 110.80 15.09L110.80 15.09L110.84 15.13Q106.38 19.85 103.33 27.08L103.30 27.05L103.33 27.08Q101.88 30.68 98.18 40.20L98.08 40.10L98.23 40.25Q97.64 40.23 97.07 40.19L97.02 40.14L96.94 40.06Q96.40 40.10 95.83 40.13ZM100.82 42.53L100.85 42.56L100.93 42.64Q103.71 32.63 105.27 28.59L105.34 28.66L105.32 28.65Q108.33 20.96 112.75 16.09L112.64 15.98L112.75 16.09Q111.65 16.40 109.55 17.12L109.51 17.08L110.79 15.88L110.67 15.76Q111.30 15.14 111.91 14.49L111.96 14.54L111.82 14.40Q109.16 15.54 106.15 16.11L106.08 16.05L106.13 16.09Q101.70 21.37 97.82 32.83L97.81 32.83L97.88 32.89Q94.09 22.63 90.89 18.25L90.90 18.26L90.90 18.26Q90.57 18.24 89.70 18.09L89.62 18.01L89.60 17.99Q89.55 17.78 87.95 15.73L87.82 15.60L87.83 15.61Q84.80 14.83 82.10 13.42L82.28 13.60L82.17 13.49Q88.75 20.53 93.13 33.32L93.26 33.45L93.12 33.31Q94.44 37.07 95.62 40.64L95.68 40.71L95.50 40.53Q95.98 40.70 96.82 40.59L96.83 40.60L96.75 40.52Q97.21 41.32 97.89 42.65L97.83 42.59L97.76 42.52Q98.69 42.54 99.42 42.61L99.41 42.60L99.41 42.61Q100.13 42.60 100.89 42.60Z"/></svg>