<svg xmlns="http://www.w3.org/2000/svg" width="150" height="50" viewBox="0,0,150,50"><path fill="#333" d="M93.20 29.66L93.14 29.60L93.25 29.71Q93.18 33.90 92.45 38.05L92.51 38.11L92.51 38.11Q94.66 37.44 97.74 37.32L97.79 37.37L97.80 37.38Q99.11 37.55 100.18 36.54L100.16 36.53L100.24 36.60Q101.27 35.56 101.27 34.23L101.19 34.15L101.20 34.15Q101.31 33.96 101.27 33.69L101.28 33.70L101.15 33.57Q101.11 30.75 98.86 29.92L98.92 29.97L98.77 29.83Q98.00 29.51 97.31 29.58L97.36 29.63L97.29 29.56Q96.29 29.55 95.26 29.59L95.30 29.63L95.25 29.58Q94.13 29.56 93.10 29.56ZM91.93 19.18L92.03 19.28L91.91 19.16Q92.94 22.62 93.20 27.00L93.13 26.92L93.06 26.86Q94.47 26.93 97.14 26.97L97.24 27.08L97.20 27.03Q100.23 27.17 100.57 23.63L100.51 23.57L100.40 23.46Q100.66 21.59 99.25 20.75L99.21 20.71L99.23 20.73Q98.32 20.20 93.91 19.55L93.85 19.50L93.85 19.50Q92.79 19.36 91.88 19.13ZM88.37 42.15L88.39 42.17L88.31 42.09Q90.88 35.53 90.61 28.14L90.61 28.14L90.57 28.09Q90.14 20.66 87.21 14.19L87.27 14.26L87.20 14.18Q91.18 16.91 97.41 17.16L97.33 17.07L97.23 16.98Q103.64 17.41 103.98 20.30L103.83 20.15L103.98 20.30Q104.32 23.07 102.91 25.74L102.88 25.71L102.74 25.58Q102.05 27.13 100.45 27.81L100.39 27.75L100.38 27.74Q104.06 28.45 104.29 33.82L104.38 33.91L104.32 33.85Q104.42 34.98 104.34 36.39L104.39 36.43L104.34 36.38Q104.29 37.71 103.36 38.64L103.33 38.61L103.34 38.62Q102.53 39.68 101.20 39.83L101.19 39.82L101.12 39.75Q99.71 39.90 98.64 39.90L98.55 39.80L98.68 39.93Q92.81 39.78 88.28 42.06ZM101.17 42.46L101.12 42.42L101.05 42.35Q102.15 42.57 104.01 42.68L103.87 42.54L103.85 42.52Q105.35 42.65 106.45 41.77L106.49 41.80L106.37 41.69Q107.22 40.82 107.10 39.26L107.11 39.26L107.06 39.22Q106.98 38.26 106.26 34.80L106.33 34.87L106.32 34.86Q105.72 31.71 103.85 30.22L103.74 30.11L103.25 29.21L103.34 29.29Q105.03 27.90 105.60 24.13L105.56 24.09L105.67 24.20Q105.71 22.95 105.64 21.54L105.59 21.49L105.65 21.55Q105.69 20.33 104.58 19.50L104.48 19.39L104.61 19.53Q104.12 19.14 104.00 19.11L104.06 19.16L104.02 19.12Q103.91 18.75 103.07 17.95L103.01 17.88L102.94 17.82Q101.53 16.86 97.31 16.67L97.25 16.61L97.34 16.71Q90.62 16.34 86.62 13.45L86.66 13.49L86.61 13.44Q89.99 20.55 90.29 28.08L90.27 28.06L90.17 27.96Q90.65 35.94 87.83 42.87L87.82 42.86L89.85 41.88L89.84 41.87Q89.32 42.87 88.82 44.01L88.94 44.13L88.91 44.10Q93.27 42.29 98.29 42.29L98.31 42.31L98.24 42.24Q99.61 42.20 101.06 42.36ZM99.07 31.95L99.00 31.88L98.88 31.76Q99.67 31.75 100.58 32.21L100.64 32.26L100.56 32.19Q100.73 32.58 100.88 33.65L100.93 33.70L100.96 33.72Q101.14 35.08 100.20 36.13L100.13 36.06L100.06 35.98Q99.18 37.09 97.77 36.97L97.76 36.96L96.29 37.09L96.40 37.20Q95.48 37.08 94.76 37.20L94.84 37.28L94.86 37.30Q95.07 35.38 95.15 31.92L95.25 32.01L95.29 32.06Q95.89 31.93 97.15 31.89L97.15 31.90L97.16 31.90Q98.41 31.86 99.02 31.90ZM98.04 22.35L97.94 22.26L98.30 22.23L98.40 22.33Q98.61 22.32 98.80 22.36L98.65 22.20L99.03 22.20L99.46 22.45L100.10 22.55L100.03 22.48Q100.19 22.80 100.19 23.10L100.07 22.98L100.20 23.64L100.22 23.66Q100.18 24.88 99.31 25.81L99.32 25.82L99.32 25.83Q98.37 26.68 97.15 26.68L97.16 26.69L97.26 26.79Q96.16 26.72 96.16 26.72L96.13 26.69L96.08 26.64Q94.90 26.75 95.24 26.75L95.22 26.73L95.19 26.70Q95.14 25.17 94.84 22.12L94.78 22.06L94.72 22.01Q96.39 22.23 97.92 22.23Z"/><path fill="#111" d="M75.35 30.86L75.40 30.91L75.45 30.96Q75.38 29.37 74.56 28.45L74.71 28.61L74.71 28.60Q73.87 27.67 72.43 27.71L72.40 27.68L72.45 27.73Q69.99 27.67 69.15 29.81L69.29 29.94L69.30 29.95Q68.96 30.67 68.92 31.36L68.88 31.32L68.98 31.42Q68.61 36.11 67.70 40.45L67.75 40.51L67.69 40.45Q66.07 41.03 64.20 42.02L64.24 42.06L64.28 42.10Q66.49 35.06 66.23 27.75L66.28 27.81L66.30 27.82Q65.91 20.35 63.36 13.54L63.32 13.50L63.50 13.68Q65.16 14.88 67.18 15.57L67.22 15.62L67.22 15.61Q68.70 21.43 68.89 27.29L68.84 27.25L68.79 27.19Q70.17 25.11 72.87 25.19L72.93 25.24L72.95 25.26Q77.95 25.28 78.07 30.65L78.05 30.63L78.18 30.76Q78.25 36.39 79.62 41.03L79.73 41.15L79.56 40.98Q77.73 40.17 75.98 39.98L75.99 39.99L76.06 40.06Q75.57 36.83 75.46 30.97ZM75.60 40.25L75.72 40.37L75.63 40.28Q76.82 40.55 77.92 40.82L77.89 40.79L77.79 40.69Q78.00 41.01 78.53 42.99L78.50 42.96L78.52 42.98Q81.37 43.81 83.39 45.26L83.39 45.26L83.49 45.36Q80.77 39.55 80.24 33.23L80.21 33.21L80.15 33.15Q79.79 29.40 78.38 27.84L78.40 27.85L78.50 27.95Q78.36 27.74 77.71 27.28L77.79 27.36L77.73 27.31Q77.58 26.89 76.93 26.13L76.86 26.05L77.04 26.15L76.88 26.00Q76.03 25.14 72.91 24.88L73.05 25.02L73.01 24.98Q72.17 24.86 70.76 25.20L70.88 25.32L70.76 25.21Q70.63 20.43 70.29 17.92L70.15 17.78L70.16 17.79Q69.55 17.83 68.07 17.53L68.00 17.46L68.02 17.48Q67.83 16.71 67.56 15.23L67.54 15.21L67.68 15.35Q64.60 14.25 62.74 12.69L62.81 12.76L62.75 12.70Q65.75 19.89 66.02 27.70L65.93 27.61L65.95 27.62Q66.26 35.44 63.71 42.79L63.73 42.81L63.75 42.82Q64.68 42.23 65.82 41.74L65.71 41.63L65.11 44.03L64.95 43.87Q68.20 42.67 70.18 42.47L70.17 42.47L70.10 42.40Q70.70 37.02 70.89 33.06L70.94 33.11L70.92 33.10Q70.91 31.15 72.86 30.04L73.00 30.18L72.94 30.13Q73.52 29.94 74.05 29.98L73.99 29.92L74.00 29.93Q74.07 29.85 74.41 29.89L74.42 29.90L74.97 30.10L74.96 30.09Q74.94 30.45 75.06 30.91L74.98 30.84L75.12 30.97Q75.12 36.84 75.62 40.27Z"/><path fill="#111" d="M120.56 19.71L120.43 19.58L118.97 19.80L118.82 19.65Q116.61 19.80 116.38 21.81L116.47 21.90L116.54 21.98Q116.45 22.69 116.49 23.68L116.39 23.57L116.43 23.62Q116.46 25.55 117.71 26.88L117.64 26.80L117.74 26.90Q118.93 28.17 120.83 28.02L120.79 27.98L120.78 27.96Q122.97 27.95 123.73 27.04L123.63 26.93L123.76 27.06Q124.74 26.06 125.01 23.82L125.06 23.87L125.08 23.89Q125.27 21.57 124.01 20.73L123.93 20.65L123.95 20.66Q123.16 19.96 120.50 19.65ZM126.44 28.79L126.62 28.98L125.27 31.20L125.28 31.21Q122.45 35.88 118.68 39.95L118.70 39.97L118.86 40.13Q117.05 40.11 114.35 40.91L114.33 40.89L114.36 40.92Q119.66 34.62 122.82 29.82L122.96 29.96L123.00 29.99Q121.81 30.48 120.17 30.56L120.19 30.57L120.18 30.57Q117.22 30.76 115.70 28.78L115.69 28.78L115.68 28.77Q114.50 27.21 113.40 22.64L113.39 22.63L113.46 22.70Q113.33 22.12 113.18 21.18L113.24 21.25L113.25 21.26Q113.08 20.30 113.08 19.85L113.17 19.94L113.18 19.95Q113.03 18.01 114.09 17.40L114.17 17.48L114.17 17.47Q115.30 16.62 117.16 16.62L117.30 16.76L117.32 16.77Q120.51 16.77 120.51 16.77L120.35 16.61L120.51 16.77Q122.55 16.68 123.81 16.87L123.81 16.87L123.87 16.94Q125.96 17.15 126.87 17.65L126.89 17.67L126.89 17.67Q128.33 18.50 128.52 20.25L128.45 20.18L128.43 20.16Q128.57 20.52 128.38 23.19L128.23 23.04L128.33 23.14Q127.87 25.20 127.64 26.04L127.71 26.10L127.60 25.99Q127.21 27.39 126.45 28.80ZM128.40 31.24L128.47 31.31L128.45 31.29Q129.37 29.02 129.91 24.72L129.98 24.79L129.96 24.77Q130.14 22.48 130.10 21.60L130.25 21.75L130.25 21.75Q130.16 19.84 128.98 18.92L128.88 18.82L128.72 18.86L128.66 18.79Q128.46 18.10 127.55 17.45L127.41 17.31L127.46 17.37Q125.12 16.32 120.32 16.17L120.42 16.27L120.46 16.30Q119.42 16.22 116.99 16.22L117.01 16.24L116.95 16.18Q115.23 16.21 113.74 16.89L113.86 17.01L113.81 16.96Q112.68 17.77 112.75 19.60L112.81 19.65L112.70 19.55Q112.91 20.47 113.10 22.49L113.07 22.47L113.02 22.42Q113.62 25.03 113.88 25.87L114.02 26.00L114.07 26.05Q114.49 27.77 115.45 29.07L115.43 29.06L115.59 29.21Q115.72 29.42 116.10 29.80L116.09 29.79L116.05 29.74Q116.44 30.32 117.08 31.24L117.13 31.28L117.11 31.26Q118.45 32.49 120.39 32.68L120.39 32.68L120.41 32.70Q118.56 35.42 117.00 37.32L117.07 37.39L113.33 41.64L113.48 41.80Q115.67 40.98 117.31 40.64L117.38 40.70L117.36 40.69Q116.42 41.38 114.86 43.10L115.00 43.24L115.04 43.28Q117.97 42.21 121.09 42.18L121.06 42.15L121.09 42.17Q123.53 39.70 127.87 32.47L127.92 32.51L127.80 32.48L127.76 32.43Q128.09 31.77 128.43 31.28ZM122.49 22.10L122.36 21.97L122.41 22.02Q123.04 21.92 123.49 22.04L123.50 22.05L123.53 22.08Q124.12 22.13 124.50 22.24L124.56 22.31L124.57 22.32Q124.56 22.57 124.63 22.99L124.67 23.02L124.77 23.12Q124.70 23.40 124.59 23.78L124.76 23.95L124.73 23.93Q124.68 25.62 123.50 26.72L123.37 26.59L123.55 26.77Q122.51 27.71 120.87 27.67L120.96 27.76L120.81 27.62Q120.49 27.71 118.96 27.41L118.85 27.29L118.95 27.40Q118.76 26.55 118.76 25.83L118.70 25.78L118.70 25.77Q118.71 25.59 118.71 25.37L118.54 25.19L118.59 25.24Q118.62 23.07 120.91 22.27L120.80 22.16L120.95 22.32Q121.50 21.95 122.34 21.95Z"/><path fill="#333" d="M18.53 33.22L18.60 33.29L18.71 33.40Q18.53 36.18 17.35 40.83L17.22 40.70L17.25 40.73Q15.44 41.24 13.84 42.04L13.93 42.13L13.84 42.04Q16.56 35.13 16.29 27.70L16.34 27.76L16.30 27.71Q15.95 20.24 12.87 13.50L12.90 13.54L12.97 13.60Q14.92 14.87 16.78 15.44L16.78 15.44L16.67 15.33Q18.94 22.43 18.94 29.09L18.86 29.02L18.87 29.02Q18.75 30.36 18.68 31.84L18.83 31.99L18.76 31.92Q19.85 30.66 25.07 25.71L25.05 25.69L25.19 25.82Q26.31 25.84 27.30 25.76L27.12 25.59L29.21 25.43L29.22 25.45Q26.08 28.47 21.78 32.24L21.75 32.21L21.89 32.35Q25.14 34.99 31.61 40.82L31.63 40.83L31.63 40.84Q28.89 39.92 25.92 39.73L26.07 39.88L26.08 39.89Q23.40 37.63 18.53 33.22ZM28.47 42.43L28.42 42.38L28.56 42.53Q33.31 43.39 36.43 45.33L36.29 45.19L36.28 45.17Q35.23 44.02 32.61 41.62L32.64 41.66L32.55 41.57Q32.87 41.73 33.14 41.85L33.12 41.82L33.02 41.73Q30.96 39.75 28.72 37.85L28.73 37.86L24.23 33.89L24.30 33.96Q29.20 29.68 31.63 26.79L31.63 26.79L31.72 26.88Q30.43 26.88 27.95 27.14L28.08 27.27L28.04 27.23Q29.52 25.66 30.20 24.82L30.24 24.86L30.34 24.96Q27.43 25.33 24.96 25.33L25.10 25.48L25.11 25.48Q23.51 26.59 20.77 29.25L20.76 29.24L20.80 29.28Q20.92 23.61 19.93 17.79L19.87 17.73L19.78 17.64Q19.15 17.55 17.67 17.28L17.59 17.20L17.74 17.35Q17.46 16.50 17.00 15.02L17.11 15.12L17.00 15.01Q14.39 14.23 12.14 12.67L12.10 12.62L12.24 12.77Q15.66 19.57 16.01 27.68L15.90 27.58L16.00 27.68Q16.25 35.51 13.24 42.74L13.24 42.74L13.32 42.81Q14.04 42.54 15.37 41.90L15.25 41.78L15.28 41.80Q15.12 42.71 14.48 44.16L14.39 44.08L14.47 44.15Q17.32 43.08 19.45 42.70L19.41 42.66L19.39 42.64Q19.95 40.12 20.45 35.85L20.40 35.81L20.54 35.95Q23.10 38.16 28.54 42.50Z"/><path fill="#333" d="M46.21 29.77L46.08 29.64L46.08 29.65Q41.87 29.44 41.30 32.48L41.48 32.66L41.42 32.60Q41.17 33.61 41.36 34.48L41.30 34.42L41.36 34.48Q41.36 35.25 41.82 36.66L41.94 36.77L41.90 36.73Q42.87 39.80 46.18 39.65L46.17 39.63L46.31 39.77Q48.22 39.74 49.55 38.18L49.53 38.16L49.68 38.31Q50.83 36.75 50.83 34.70L50.75 34.62L50.90 34.77Q50.92 34.07 50.77 33.00L50.80 33.03L50.84 33.07Q50.81 32.21 50.39 31.52L50.43 31.56L50.31 31.44Q48.79 29.89 46.21 29.77ZM50.99 48.19L51.10 48.29L51.01 48.20Q49.21 48.80 41.14 49.18L41.08 49.12L41.16 49.21Q39.39 49.18 37.75 48.34L37.84 48.43L37.76 48.35Q38.71 47.52 40.54 45.73L40.48 45.67L40.48 45.67Q42.88 46.70 44.97 46.51L44.89 46.43L45.03 46.57Q47.78 46.16 48.62 45.89L48.67 45.94L48.59 45.86Q50.92 45.26 50.92 43.47L50.93 43.48L50.86 43.41Q50.88 43.20 50.80 42.97L50.86 43.02L50.81 41.50L50.77 41.46Q50.73 40.66 50.73 39.86L50.74 39.87L50.77 39.90Q49.35 42.09 45.96 42.09L45.88 42.00L45.94 42.07Q42.10 42.11 40.46 39.90L40.36 39.80L40.52 39.96Q39.26 38.28 38.46 33.86L38.50 33.91L38.52 33.93Q38.31 32.49 38.31 31.08L38.25 31.03L38.26 31.04Q38.24 29.23 39.15 28.24L39.11 28.19L39.17 28.26Q40.82 26.82 45.46 26.82L45.42 26.77L47.18 26.98L47.13 26.92Q50.39 27.33 51.73 29.28L51.75 29.30L51.82 29.37Q51.94 28.46 52.35 26.82L52.28 26.75L52.40 26.87Q54.19 26.45 55.95 25.73L55.93 25.71L55.87 25.66Q53.34 31.88 53.34 39.11L53.30 39.07L53.35 39.12Q53.17 41.61 53.55 44.24L53.57 44.26L53.71 44.39Q53.89 45.07 53.81 45.76L53.67 45.62L53.80 45.74Q53.51 47.01 52.29 47.77L52.45 47.94L52.35 47.83Q51.87 48.11 51.03 48.23ZM54.04 51.20L54.02 51.18L53.94 51.10Q55.44 51.19 56.21 50.24L56.29 50.33L56.16 50.20Q56.55 49.29 56.43 48.56L56.55 48.68L56.52 48.65Q56.42 48.02 56.23 47.26L56.21 47.24L56.17 47.20Q55.00 42.03 55.34 36.78L55.27 36.71L55.23 36.67Q55.72 31.37 57.85 26.54L57.70 26.38L55.62 27.34L55.72 27.44Q55.86 26.74 56.08 26.17L56.11 26.20L56.61 25.06L56.63 25.08Q54.19 25.95 51.98 26.37L52.02 26.41L51.98 26.37Q51.72 27.29 51.57 28.32L51.50 28.25L51.63 28.38Q49.42 26.36 45.39 26.36L45.43 26.40L43.75 26.48L43.77 26.50Q40.35 26.31 38.67 27.72L38.85 27.89L38.82 27.87Q37.84 28.79 37.87 30.69L37.92 30.74L37.85 30.67Q37.90 33.15 38.93 37.42L38.94 37.43L38.91 37.40Q39.41 39.35 40.63 40.76L40.66 40.78L40.85 40.97L41.07 41.20L41.09 41.21Q42.09 43.40 44.68 43.93L44.69 43.94L44.71 43.96Q46.06 44.20 47.50 44.24L47.60 44.34L47.68 44.42Q49.26 44.29 50.33 43.91L50.39 43.97L50.52 44.10Q49.81 45.55 47.14 45.90L47.24 45.99L47.19 45.95Q46.13 46.11 45.45 46.11L45.33 45.99L45.09 46.13L44.93 45.97Q42.11 45.97 40.44 45.02L40.56 45.14L38.78 46.79L38.86 46.86Q37.96 47.64 37.12 48.60L37.03 48.51L37.20 48.67Q38.04 49.06 39.03 49.25L39.09 49.31L38.14 50.10L38.25 50.21Q40.93 51.26 46.57 51.26L46.59 51.29L46.81 51.28L46.73 51.19Q50.50 51.35 54.08 51.24ZM48.08 32.06L48.01 32.00L48.01 32.00Q49.43 32.04 50.34 32.46L50.19 32.31L50.19 32.31Q50.42 32.84 50.49 33.53L50.51 33.55L50.60 33.63Q50.52 33.82 50.49 34.74L50.52 34.77L50.62 34.88Q50.49 36.72 49.39 38.01L49.38 38.01L49.36 37.99Q48.12 39.33 46.21 39.30L46.24 39.32L46.35 39.44Q44.76 39.21 43.92 38.79L43.97 38.85L44.05 38.92Q43.56 37.67 43.52 36.64L43.58 36.70L43.49 36.61Q43.45 32.35 48.06 32.04Z"/></svg>