<svg xmlns="http://www.w3.org/2000/svg" width="150" height="50" viewBox="0,0,150,50"><path fill="#333" d="M99.99 29.48L99.95 29.44L99.95 29.45Q98.73 28.64 98.08 28.68L98.14 28.74L98.09 28.68Q96.77 28.82 95.73 29.83L95.80 29.90L95.76 29.86Q94.81 30.96 94.92 32.33L94.89 32.30L94.83 32.24Q95.12 36.56 94.24 41.09L94.29 41.14L94.28 41.14Q91.97 41.49 90.87 42.02L91.03 42.18L90.89 42.05Q92.35 37.83 92.12 33.38L92.25 33.51L92.23 33.48Q91.88 28.87 90.17 24.80L90.31 24.94L90.20 24.83Q91.44 25.61 93.72 26.26L93.63 26.16L94.18 28.85L94.21 28.88Q94.88 25.97 99.15 25.97L99.19 26.02L99.18 26.01Q99.64 26.01 99.94 26.01L99.93 25.99L99.84 25.91Q101.24 26.01 102.49 26.69L102.40 26.60L102.53 26.74Q101.23 28.09 100.08 29.58ZM101.62 31.49L101.71 31.43L101.80 31.53Q102.56 30.23 104.24 27.79L104.20 27.75L104.23 27.79Q103.88 27.55 102.36 27.29L102.24 27.16L102.32 27.24Q102.68 26.96 103.13 26.35L103.08 26.29L103.10 26.31Q101.10 25.30 99.16 25.49L99.22 25.55L99.23 25.56Q97.31 25.77 96.59 26.04L96.66 26.12L96.61 26.06Q95.10 26.38 94.30 27.49L94.35 27.53L94.20 26.73L94.02 25.91L93.98 25.88Q91.68 25.55 89.70 24.21L89.66 24.18L89.69 24.21Q91.74 28.51 91.97 33.38L91.87 33.28L91.95 33.36Q92.12 38.21 90.37 42.74L90.38 42.75L90.37 42.75Q91.59 42.40 92.47 42.10L92.36 41.99L92.34 41.97Q92.02 43.02 91.52 44.09L91.61 44.17L91.64 44.20Q94.41 43.28 96.55 43.17L96.67 43.30L96.76 38.67L96.73 38.63Q96.83 36.37 96.83 34.13L96.82 34.11L96.95 34.24Q96.99 33.11 97.91 32.14L97.87 32.11L97.81 32.05Q98.67 31.01 99.81 30.94L99.85 30.98L99.86 30.99Q100.56 30.93 101.29 31.62L101.15 31.48L101.59 31.47ZM96.52 29.60L96.65 29.65L96.62 29.73L96.59 29.66Z"/><path fill="#111" d="M49.51 39.78L49.55 39.81L47.58 39.78L47.58 39.79Q46.75 39.91 45.80 40.03L45.65 39.87L45.81 40.04Q46.38 33.83 46.38 29.83L46.25 29.70L46.33 29.78Q42.33 23.08 34.68 14.40L34.67 14.39L34.73 14.45Q36.52 15.44 39.87 16.24L39.75 16.12L39.90 16.27Q44.96 21.87 47.97 27.08L48.00 27.12L47.98 27.09Q50.88 21.43 55.26 16.40L55.31 16.46L55.37 16.51Q57.74 16.07 60.25 15.27L60.15 15.16L60.19 15.20Q54.23 21.39 49.36 29.80L49.24 29.68L49.21 29.66Q49.31 36.80 49.61 39.88ZM58.74 17.34L61.45 14.49L61.38 14.42Q58.33 15.63 55.21 16.09L55.10 15.98L55.10 15.98Q50.88 20.70 48.06 25.80L48.17 25.91L48.05 25.79Q46.08 22.30 42.89 18.42L42.84 18.37L42.89 18.43Q42.62 18.42 42.13 18.35L42.09 18.31L42.10 18.32Q41.41 17.51 39.89 15.84L39.74 15.69L39.88 15.84Q36.45 15.03 33.48 13.47L33.47 13.46L33.51 13.50Q41.19 21.94 45.94 29.85L45.91 29.82L45.87 29.78Q45.85 36.19 45.24 40.34L45.30 40.40L45.32 40.42Q46.05 40.39 47.50 40.28L47.48 40.26L47.36 41.17L47.40 41.20Q47.54 41.81 47.47 42.34L47.41 42.28L47.44 42.31Q50.91 42.24 52.66 42.43L52.76 42.54L52.69 42.46Q51.49 37.84 51.38 31.86L51.23 31.71L51.35 31.83Q55.68 23.33 62.23 15.98L62.16 15.92L58.65 17.24Z"/><path fill="#222" d="M15.13 15.88L15.07 15.82L15.21 15.96Q16.98 20.70 17.55 25.88L17.67 26.00L17.54 25.87Q21.26 21.74 27.16 16.91L27.26 17.01L27.24 16.99Q30.30 16.55 32.93 15.75L33.04 15.86L26.41 21.41L26.45 21.46Q22.95 24.31 20.09 27.16L20.13 27.20L20.26 27.33Q28.14 36.39 33.20 41.11L33.17 41.08L33.25 41.16Q30.12 40.20 27.80 40.05L27.87 40.12L27.74 39.99Q21.92 34.55 17.62 28.72L17.61 28.72L17.71 28.82Q17.86 35.48 15.99 40.81L15.93 40.74L15.86 40.68Q15.71 40.79 15.22 40.98L15.13 40.90L15.28 41.23L15.26 41.22Q14.93 41.11 12.38 42.02L12.46 42.10L12.49 42.13Q15.39 35.52 15.05 28.06L14.94 27.95L14.99 28.00Q14.74 20.75 11.20 14.24L11.17 14.21L11.81 14.58L12.17 14.83L12.16 14.78L12.11 14.72Q12.99 15.27 15.20 15.95ZM15.46 15.64L15.36 15.54L15.41 15.59Q13.07 14.97 10.45 13.45L10.49 13.49L10.48 13.48Q14.76 20.77 14.76 29.71L14.81 29.76L14.75 29.70Q14.79 36.75 11.82 42.80L11.72 42.70L13.87 41.96L13.84 41.93Q13.53 43.02 12.84 44.32L12.76 44.23L12.71 44.18Q15.07 43.50 17.02 43.08L16.87 42.94L17.08 42.92L16.98 42.82Q17.32 42.86 17.89 42.71L17.84 42.65L17.77 42.58Q19.49 36.73 19.61 31.93L19.66 31.98L19.56 31.89Q21.62 34.36 23.44 36.23L23.57 36.35L23.50 36.29Q24.61 37.32 27.62 40.29L27.77 40.43L27.84 40.51L27.72 40.39Q28.75 41.23 30.61 42.82L30.64 42.85L30.55 42.76Q34.47 43.52 37.94 45.24L37.94 45.24L38.03 45.33Q28.59 36.61 22.35 29.19L22.37 29.21L22.34 29.19Q26.88 25.04 35.63 16.44L35.66 16.46L35.50 16.30Q32.99 17.49 30.97 17.87L31.01 17.91L30.99 17.88Q32.26 16.95 34.58 14.93L34.58 14.93L34.64 14.99Q30.55 16.42 27.20 16.61L27.03 16.44L27.13 16.54Q24.18 18.73 19.31 23.41L19.34 23.44L19.31 23.41Q18.85 20.75 18.28 18.20L18.43 18.34L18.44 18.36Q17.26 18.20 16.27 17.86L16.14 17.73L16.16 17.75Q15.90 16.96 15.33 15.51Z"/><path fill="#222" d="M130.54 34.67L130.53 34.65L130.49 34.61Q130.62 38.32 127.46 39.61L127.49 39.65L127.42 39.58Q125.56 40.42 121.14 40.57L121.17 40.59L121.19 40.61Q116.28 40.61 114.03 39.43L114.12 39.52L114.08 39.48Q112.15 38.08 112.30 34.73L112.40 34.84L112.29 34.72Q112.47 34.26 112.66 32.28L112.67 32.28L112.53 32.15Q112.68 30.58 112.68 29.59L112.79 29.71L112.71 29.62Q112.70 21.62 108.51 14.19L108.45 14.13L108.51 14.20Q109.75 14.94 112.72 16.00L112.66 15.94L112.63 15.91Q115.59 22.72 115.59 30.10L115.46 29.98L115.57 30.08Q115.60 30.73 115.51 31.91L115.42 31.82L115.50 31.90Q115.36 33.03 115.36 33.64L115.29 33.57L115.32 33.60Q115.35 35.92 116.91 36.91L116.86 36.86L116.92 36.91Q118.58 37.74 121.54 37.74L121.49 37.68L121.57 37.76Q124.23 37.79 125.87 36.61L125.76 36.50L125.86 36.61Q127.62 35.17 127.47 32.65L127.56 32.75L127.59 32.78Q127.40 31.29 127.40 29.96L127.44 30.00L127.45 30.01Q127.44 22.95 129.83 16.44L129.73 16.34L131.92 15.79L132.04 15.91Q133.03 15.64 134.13 15.19L134.11 15.16L134.13 15.18Q130.41 22.32 130.41 29.89L130.39 29.87L130.25 29.72Q130.40 30.72 130.54 32.36L130.53 32.35L130.41 32.23Q130.62 33.94 130.62 34.74ZM132.72 35.58L132.77 35.63L132.66 35.52Q131.83 30.62 132.56 25.52L132.60 25.56L132.62 25.58Q133.35 20.37 135.74 16.00L135.80 16.06L135.66 15.91Q135.17 16.34 133.73 16.99L133.58 16.84L133.59 16.85Q134.11 16.15 134.91 14.59L134.72 14.40L134.73 14.41Q131.44 15.80 129.54 16.15L129.52 16.13L129.52 16.13Q127.12 22.60 127.12 29.87L127.11 29.86L127.10 29.85Q127.08 31.20 127.16 32.61L127.22 32.68L127.20 32.66Q127.40 35.10 125.61 36.32L125.49 36.20L125.62 36.33Q123.99 37.25 121.47 37.28L121.56 37.37L121.61 37.42Q118.77 37.40 117.33 36.64L117.39 36.70L117.26 36.57Q117.21 36.10 117.13 35.64L117.24 35.75L117.12 35.64Q117.10 35.15 117.21 34.66L117.18 34.62L117.19 34.64Q117.53 32.42 117.53 30.10L117.49 30.07L117.55 30.12Q117.47 24.22 115.94 18.31L115.96 18.33L115.98 18.35Q115.17 18.15 113.76 17.80L113.77 17.82L113.71 17.75Q113.42 16.55 112.96 15.64L112.85 15.53L112.83 15.51Q110.17 14.79 107.77 13.41L107.90 13.54L107.91 13.55Q112.46 21.08 112.46 29.79L112.42 29.75L112.51 29.84Q112.40 31.37 112.25 33.08L112.27 33.10L112.24 33.07Q112.08 35.54 112.15 36.72L112.13 36.69L112.10 36.66Q112.33 38.69 113.59 39.83L113.46 39.70L113.46 39.70Q114.57 42.29 119.21 42.67L119.12 42.58L119.16 42.62Q121.17 42.69 123.30 42.77L123.32 42.79L123.35 42.81Q128.78 43.07 131.56 42.12L131.52 42.07L131.63 42.19Q133.05 41.13 133.05 39.08L133.16 39.19L133.20 39.22Q133.12 38.00 132.66 35.53Z"/><path fill="#333" d="M75.49 31.00L75.49 31.00L75.31 30.82Q75.42 29.41 74.61 28.50L74.67 28.56L74.68 28.57Q73.78 27.57 72.33 27.61L72.29 27.57L72.29 27.57Q69.97 27.65 69.13 29.78L69.26 29.91L69.26 29.91Q68.96 30.67 68.92 31.36L68.94 31.38L68.95 31.39Q68.64 36.15 67.73 40.49L67.69 40.45L67.87 40.62Q66.07 41.03 64.20 42.02L64.30 42.12L64.30 42.12Q66.46 35.03 66.20 27.72L66.22 27.74L66.25 27.78Q65.88 20.33 63.33 13.51L63.44 13.62L63.32 13.51Q65.19 14.92 67.21 15.60L67.11 15.51L67.17 15.57Q68.58 21.31 68.77 27.17L68.89 27.30L68.94 27.34Q70.28 25.22 72.98 25.29L72.88 25.19L72.92 25.23Q77.95 25.28 78.06 30.64L78.17 30.75L78.13 30.71Q78.25 36.38 79.62 41.03L79.60 41.01L79.67 41.08Q77.78 40.22 76.03 40.03L76.08 40.08L76.09 40.09Q75.49 36.75 75.37 30.88ZM75.61 40.26L75.72 40.37L75.70 40.35Q76.74 40.47 77.84 40.74L77.89 40.78L77.93 40.83Q77.87 40.88 78.40 42.86L78.39 42.85L78.37 42.83Q81.42 43.86 83.43 45.30L83.35 45.22L83.42 45.29Q80.76 39.54 80.22 33.22L80.10 33.10L80.17 33.17Q79.84 29.45 78.43 27.89L78.39 27.85L78.38 27.84Q78.45 27.83 77.80 27.37L77.83 27.40L77.85 27.43Q77.59 26.89 76.94 26.13L76.87 26.06L77.05 26.16L76.90 26.01Q76.03 25.14 72.91 24.88L72.95 24.93L72.98 24.95Q72.22 24.91 70.81 25.25L70.74 25.19L70.91 25.35Q70.65 20.46 70.31 17.94L70.33 17.96L70.22 17.85Q69.50 17.78 68.01 17.47L68.10 17.56L68.02 17.48Q67.86 16.75 67.60 15.26L67.67 15.34L67.66 15.33Q64.60 14.25 62.73 12.69L62.67 12.62L62.80 12.75Q65.73 19.87 66.00 27.67L65.86 27.54L66.00 27.68Q66.35 35.52 63.79 42.87L63.76 42.83L63.61 42.69Q64.54 42.10 65.69 41.60L65.75 41.66L65.12 44.04L64.99 43.91Q68.07 42.54 70.05 42.35L70.05 42.35L70.16 42.46Q70.69 37.01 70.88 33.05L70.82 32.99L70.88 33.06Q71.04 31.27 72.98 30.17L72.92 30.11L72.93 30.11Q73.47 29.90 74.00 29.93L73.95 29.88L74.01 29.94Q74.21 29.98 74.55 30.02L74.46 29.93L74.97 30.10L74.98 30.11Q74.95 30.46 75.07 30.92L74.95 30.80L75.03 30.89Q75.21 36.93 75.71 40.36Z"/></svg>