<svg xmlns="http://www.w3.org/2000/svg" width="150" height="50" viewBox="0,0,150,50"><path fill="#222" d="M67.11 32.90L67.25 33.04L67.16 32.95Q70.21 32.53 73.40 32.65L73.35 32.60L73.38 32.63Q73.43 30.16 73.43 27.76L73.44 27.78L73.40 27.73Q73.38 25.23 73.57 22.68L73.63 22.75L73.62 22.73Q72.37 24.42 67.16 32.95ZM77.12 40.36L77.12 40.36L76.97 40.21Q75.30 39.91 73.51 39.83L73.62 39.94L73.63 39.95Q73.41 37.56 73.29 35.09L73.36 35.15L73.27 35.06Q68.06 35.00 63.34 36.40L63.15 36.21L63.25 36.31Q63.38 35.83 63.57 34.84L63.52 34.79L63.49 34.76Q65.27 31.59 68.85 25.31L68.93 25.39L68.97 25.44Q71.78 20.48 75.21 16.60L75.18 16.57L75.30 16.69Q76.08 16.40 77.75 16.13L77.77 16.15L77.71 16.09Q75.81 22.53 75.81 29.57L75.87 29.63L75.82 29.58Q75.85 31.09 75.93 32.58L75.90 32.56L77.33 32.81L77.19 32.67Q77.83 32.73 78.44 32.84L78.37 32.78L78.40 32.80Q78.51 33.79 78.78 35.74L78.85 35.81L78.95 35.90Q77.64 35.55 76.16 35.36L76.19 35.40L76.14 35.35Q76.43 37.42 77.11 40.35ZM78.71 32.47L78.70 32.46L78.83 32.59Q78.56 32.44 78.37 32.44L78.34 32.41L78.00 32.45L78.02 32.47Q77.85 30.93 77.85 29.52L77.91 29.58L77.92 29.59Q77.81 23.08 79.86 17.06L79.97 17.17L79.97 17.17Q79.16 17.39 77.72 17.77L77.64 17.69L77.76 17.82Q78.02 17.08 78.48 15.68L78.48 15.68L78.38 15.58Q77.02 15.89 74.96 16.12L75.12 16.28L74.97 16.13Q71.09 20.51 65.88 29.88L65.94 29.94L68.06 26.31L68.07 26.32Q67.64 27.34 67.37 27.91L67.41 27.95L62.78 36.80L62.84 36.85Q63.54 36.76 64.69 36.38L64.72 36.41L64.51 36.58L64.57 36.64Q64.30 37.17 63.99 38.42L64.15 38.58L64.02 38.45Q68.21 37.20 73.04 37.39L72.98 37.32L73.11 37.45Q72.99 38.25 73.18 40.23L73.29 40.34L73.22 40.27Q74.24 40.22 75.31 40.33L75.33 40.36L75.42 40.45Q75.57 41.13 75.84 42.50L75.82 42.49L75.86 42.52Q77.63 42.62 80.63 43.53L80.76 43.66L80.63 43.52Q79.80 41.56 78.89 38.28L78.72 38.12L80.33 38.73L80.22 38.62Q80.95 38.90 81.64 39.24L81.66 39.26L81.55 39.16Q80.80 36.69 80.65 35.02L80.63 35.00L80.62 34.99Q80.13 34.92 78.99 34.69L79.05 34.75L78.93 34.64Q78.75 33.39 78.75 32.51ZM70.70 32.31L70.74 32.34L70.69 32.29Q71.50 31.04 73.06 28.49L73.13 28.57L73.10 28.54Q73.05 29.44 73.01 30.39L73.11 30.49L73.07 30.44Q73.09 31.46 73.13 32.41L73.01 32.29L73.12 32.40Q72.44 32.25 71.86 32.25L71.90 32.29L71.89 32.28Q71.36 32.36 70.75 32.36Z"/><path fill="#333" d="M112.24 14.23L112.37 14.36L112.40 14.39Q116.16 16.89 120.92 17.12L120.90 17.11L120.91 17.11Q125.38 17.13 129.65 15.38L129.71 15.45L129.65 15.38Q129.62 16.15 128.85 18.93L128.79 18.86L128.85 18.93Q125.94 19.78 122.97 19.94L122.99 19.96L122.96 19.92Q120.02 20.10 117.12 19.38L117.20 19.46L117.19 19.44Q117.82 23.01 118.01 26.66L118.08 26.74L118.09 26.74Q120.02 26.88 121.62 26.84L121.59 26.81L121.69 26.92Q122.96 26.97 125.36 26.86L125.20 26.69L125.39 26.89Q125.16 27.34 125.16 28.02L125.18 28.05L125.24 29.44L125.35 29.55Q122.87 29.46 118.07 29.54L118.14 29.61L118.15 29.62Q118.01 33.59 117.44 37.59L117.54 37.69L117.54 37.69Q120.13 37.00 122.87 37.12L122.94 37.19L122.92 37.17Q125.55 37.17 128.13 38.00L128.09 37.96L128.21 38.08Q128.23 38.82 128.50 39.59L128.54 39.63L128.93 41.08L128.90 41.06Q125.79 39.85 122.36 39.85L122.29 39.77L122.27 39.76Q117.37 39.73 113.11 41.98L113.24 42.11L113.12 41.99Q115.54 35.27 115.27 28.15L115.32 28.20L115.16 28.04Q114.95 20.94 112.29 14.28ZM112.71 42.79L112.60 42.69L112.65 42.74Q114.02 42.12 114.78 41.78L114.79 41.79L114.76 41.76Q114.52 42.47 113.95 44.00L113.95 44.00L113.87 43.91Q118.42 41.96 123.49 42.23L123.64 42.38L123.49 42.23Q128.77 42.63 132.76 45.34L132.79 45.36L132.64 45.22Q131.44 42.64 130.76 40.70L130.84 40.79L130.77 40.72Q129.83 40.16 128.84 39.81L128.78 39.75L128.84 39.81Q128.55 38.53 128.39 37.73L128.32 37.66L128.33 37.67Q125.24 36.67 122.08 36.67L122.11 36.70L122.09 36.68Q121.05 36.78 119.91 36.90L119.79 36.78L119.89 36.88Q119.94 35.56 119.98 34.34L119.89 34.25L120.04 31.82L119.96 31.73Q121.83 31.70 123.62 31.74L123.59 31.70L123.73 31.85Q125.56 31.89 127.35 32.04L127.28 31.97L127.19 31.89Q127.10 30.92 127.10 29.97L127.10 29.97L127.18 28.14L126.50 28.33L126.44 28.28Q125.99 28.32 125.53 28.32L125.46 28.25L125.53 28.32Q125.44 27.54 125.59 26.25L125.58 26.23L125.73 26.39Q124.01 26.50 122.83 26.54L122.81 26.51L122.88 26.59Q122.03 26.68 120.20 26.61L120.08 26.49L120.05 26.46Q120.05 25.12 119.86 22.31L119.77 22.21L119.93 22.38Q120.79 22.32 121.78 22.32L121.86 22.41L121.93 22.48Q126.61 22.43 130.30 20.53L130.36 20.59L130.19 20.42Q130.91 18.20 131.78 16.00L131.66 15.87L131.70 15.92Q130.37 16.76 129.54 17.10L129.53 17.09L129.62 17.19Q129.90 16.40 130.36 14.84L130.24 14.72L130.30 14.78Q125.71 16.97 120.84 16.66L120.74 16.56L120.74 16.56Q115.59 16.40 111.75 13.55L111.60 13.40L111.69 13.49Q114.63 20.51 114.94 28.12L114.88 28.07L114.77 27.95Q115.14 35.94 112.63 42.72Z"/><path fill="#333" d="M24.95 39.88L24.88 39.82L22.95 39.83L23.00 39.88Q22.04 39.87 21.09 39.98L21.16 40.05L20.98 39.88Q21.57 33.69 21.57 29.69L21.58 29.70L21.71 29.83Q17.75 23.16 10.10 14.48L10.11 14.50L10.09 14.47Q11.74 15.33 15.09 16.13L15.11 16.15L15.26 16.30Q20.22 21.79 23.23 27.00L23.20 26.97L23.29 27.07Q26.22 21.43 30.60 16.41L30.56 16.37L30.71 16.52Q33.06 16.05 35.57 15.25L35.58 15.26L35.51 15.19Q29.52 21.34 24.64 29.76L24.57 29.68L24.68 29.79Q24.64 36.79 24.94 39.87ZM34.07 17.33L36.70 14.40L36.74 14.44Q33.67 15.63 30.55 16.09L30.51 16.05L30.49 16.04Q26.19 20.68 23.37 25.78L23.51 25.92L23.55 25.95Q21.28 22.17 18.09 18.29L18.05 18.25L18.15 18.35Q17.86 18.33 17.37 18.26L17.33 18.22L17.33 18.22Q16.78 17.55 15.25 15.87L15.09 15.70L15.12 15.74Q11.81 15.06 8.84 13.49L8.84 13.50L8.76 13.41Q16.54 21.96 21.30 29.87L21.33 29.90L21.23 29.80Q21.21 36.22 20.60 40.37L20.62 40.39L20.66 40.43Q21.30 40.31 22.75 40.19L22.88 40.32L22.83 41.31L22.80 41.27Q22.76 41.69 22.68 42.22L22.63 42.17L22.78 42.31Q26.28 42.27 28.03 42.46L27.98 42.41L27.91 42.35Q26.76 37.77 26.65 31.80L26.58 31.73L26.65 31.80Q30.97 23.29 37.52 15.94L37.53 15.96L33.98 17.24Z"/><path fill="#333" d="M95.90 41.15L95.90 41.15L94.17 41.14L94.23 41.20Q90.79 41.14 89.84 39.01L89.93 39.10L89.91 39.08Q91.09 38.06 92.54 36.96L92.43 36.84L92.42 36.84Q92.93 38.95 95.79 38.80L95.99 39.00L95.86 38.87Q96.65 38.82 97.68 38.59L97.67 38.59L97.80 38.72Q98.59 38.06 98.52 37.11L98.51 37.10L98.48 37.07Q98.39 35.95 96.60 35.26L96.75 35.41L92.81 33.76L92.87 33.82Q90.62 32.56 90.27 29.02L90.19 28.94L90.23 28.97Q89.99 26.79 92.16 26.22L92.17 26.23L92.10 26.16Q93.09 25.97 96.06 25.97L96.19 26.10L96.07 25.99Q100.95 25.99 101.86 28.50L101.94 28.58L101.83 28.46Q101.35 29.17 100.63 29.62L100.52 29.52L99.15 30.51L99.03 30.39Q98.56 28.51 95.32 28.28L95.44 28.40L95.32 28.28Q94.75 28.32 93.72 28.74L93.73 28.74L93.78 28.79Q93.17 29.10 93.17 30.21L93.19 30.22L93.19 30.22Q93.60 31.35 95.42 32.04L95.41 32.02L95.39 32.00Q96.55 32.48 99.22 33.58L99.06 33.43L99.03 33.40Q100.93 34.31 101.12 36.86L101.15 36.89L101.14 36.88Q101.21 37.52 101.14 38.51L101.08 38.45L101.17 38.55Q101.17 39.46 100.60 40.11L100.60 40.11L100.53 40.04Q98.95 41.16 95.90 41.16ZM100.58 43.66L100.66 43.74L100.56 43.64Q101.57 43.78 102.94 43.47L102.84 43.37L102.97 43.50Q104.01 42.79 103.82 41.57L103.83 41.59L103.72 41.47Q103.64 40.89 103.33 39.30L103.36 39.32L103.41 39.37Q102.90 36.47 101.11 35.25L101.04 35.17L101.15 35.29Q100.58 33.85 99.33 33.12L99.39 33.19L99.31 33.10Q98.04 32.67 95.56 31.72L95.55 31.71L95.50 31.66Q95.65 31.19 95.91 31.08L96.04 31.21L95.91 31.07Q96.66 30.76 97.31 30.72L97.17 30.59L97.20 30.62Q98.11 30.68 98.87 30.95L98.75 30.83L98.92 31.08L99.03 31.07L99.22 31.07L99.07 30.96L99.16 31.06Q100.26 31.54 100.45 32.80L100.52 32.87L100.49 32.84Q101.78 32.04 103.69 30.36L103.66 30.34L103.68 30.36Q103.30 29.52 102.31 28.34L102.29 28.32L102.27 28.30Q101.12 25.59 96.02 25.48L96.07 25.52L96.16 25.62Q92.97 25.55 90.99 26.12L90.99 26.12L90.97 26.10Q89.50 26.61 89.73 28.71L89.77 28.74L89.79 28.76Q89.96 30.08 90.88 32.17L90.75 32.04L90.82 32.12Q91.43 33.30 92.46 34.02L92.31 33.87L92.45 34.01Q93.05 35.41 94.34 36.09L94.28 36.03L94.28 36.03Q95.24 36.31 96.19 36.69L96.34 36.83L98.10 37.46L98.23 37.58Q97.85 38.65 95.91 38.53L95.81 38.44L95.87 38.50Q95.52 38.64 94.30 38.34L94.24 38.28L94.12 38.00L94.05 38.17L94.10 38.21Q93.16 37.76 92.51 36.28L92.65 36.42L92.62 36.39Q90.50 37.96 89.39 39.10L89.34 39.05L89.25 38.96Q89.68 40.00 90.71 40.80L90.65 40.74L90.57 40.97L90.41 40.80Q91.95 43.03 96.18 43.41L96.25 43.48L96.21 43.45Q97.44 43.53 100.68 43.76Z"/><path fill="#111" d="M46.52 41.10L46.61 41.20L44.88 41.18L44.74 41.04Q41.44 41.13 40.49 39.00L40.58 39.08L40.44 38.95Q41.64 37.94 43.09 36.84L43.18 36.93L43.05 36.80Q43.66 39.01 46.52 38.86L46.65 38.99L46.63 38.97Q47.38 38.89 48.41 38.66L48.38 38.63L48.39 38.64Q49.29 38.09 49.22 37.14L49.28 37.20L49.18 37.11Q49.15 36.05 47.36 35.37L47.33 35.33L43.49 33.77L43.56 33.84Q41.31 32.58 40.97 29.04L40.93 29.00L40.82 28.90Q40.68 26.82 42.85 26.25L42.95 26.35L42.83 26.22Q43.86 26.07 46.83 26.07L46.83 26.07L46.86 26.11Q51.67 26.05 52.59 28.56L52.54 28.52L52.60 28.58Q51.93 29.08 51.21 29.54L51.14 29.47L49.84 30.53L49.79 30.48Q49.34 28.62 46.10 28.39L45.97 28.26L46.01 28.30Q45.56 28.46 44.53 28.88L44.47 28.82L44.55 28.90Q43.98 29.24 43.98 30.34L43.86 30.22L43.84 30.21Q44.16 31.25 45.99 31.94L45.97 31.92L45.97 31.92Q47.03 32.29 49.70 33.40L49.86 33.56L49.83 33.53Q51.67 34.38 51.86 36.93L51.82 36.89L51.81 36.88Q51.81 37.45 51.73 38.44L51.75 38.45L51.89 38.59Q51.74 39.36 51.17 40.01L51.10 39.94L51.13 39.97Q49.57 41.11 46.52 41.11ZM51.24 43.65L51.34 43.76L51.28 43.70Q52.21 43.75 53.58 43.45L53.55 43.42L53.67 43.54Q54.73 42.85 54.54 41.63L54.41 41.49L54.46 41.55Q54.35 40.94 54.04 39.34L54.03 39.32L54.00 39.30Q53.59 36.49 51.80 35.27L51.82 35.30L51.81 35.28Q51.18 33.78 49.92 33.05L50.00 33.13L50.00 33.13Q48.72 32.68 46.24 31.73L46.24 31.73L46.32 31.81Q46.37 31.25 46.63 31.13L46.76 31.26L46.68 31.18Q47.32 30.75 47.97 30.72L47.84 30.59L47.89 30.64Q48.68 30.59 49.44 30.86L49.43 30.85L49.46 30.96L49.61 30.99L49.80 30.99L49.86 31.09L49.80 31.03Q50.90 31.52 51.09 32.77L51.06 32.74L51.21 32.89Q52.45 32.03 54.35 30.36L54.22 30.22L54.35 30.36Q54.01 29.56 53.02 28.38L52.95 28.31L53.08 28.44Q51.82 25.62 46.72 25.50L46.86 25.65L46.77 25.56Q43.70 25.61 41.72 26.18L41.61 26.07L41.63 26.09Q40.30 26.74 40.53 28.84L40.55 28.86L40.46 28.77Q40.68 30.12 41.59 32.22L41.58 32.20L41.44 32.07Q41.94 33.14 42.96 33.86L43.07 33.96L43.04 33.93Q43.71 35.41 45.01 36.09L45.06 36.15L45.05 36.13Q45.89 36.29 46.85 36.67L46.87 36.70L48.86 37.55L48.88 37.57Q48.59 38.72 46.65 38.61L46.57 38.53L46.54 38.50Q46.16 38.62 44.94 38.31L44.97 38.34L44.87 38.08L44.82 38.26L44.83 38.27Q43.95 37.89 43.30 36.40L43.33 36.43L43.27 36.38Q41.09 37.89 39.99 39.03L40.05 39.10L39.97 39.01Q40.28 39.93 41.30 40.73L41.39 40.82L41.23 40.96L41.25 40.97Q42.63 43.04 46.85 43.42L46.84 43.40L46.83 43.40Q48.11 43.53 51.34 43.76Z"/></svg>