<svg xmlns="http://www.w3.org/2000/svg" width="150" height="50" viewBox="0,0,150,50"><path fill="#333" d="M16.91 19.09L17.08 19.26L17.03 19.21Q18.15 23.68 18.30 26.87L18.36 26.94L18.29 26.87Q18.73 26.85 23.11 26.96L23.12 26.97L23.24 27.10Q25.64 26.99 26.02 23.52L26.18 23.67L26.00 23.49Q26.36 21.92 25.45 21.00L25.45 21.01L25.45 21.01Q24.00 19.93 22.02 19.78L22.15 19.92L22.05 19.82Q18.80 19.57 16.93 19.11ZM18.43 28.84L18.38 28.79L18.37 28.77Q18.52 34.75 16.73 40.69L16.74 40.70L16.90 40.85Q15.47 40.98 12.88 42.01L12.88 42.01L13.04 42.17Q15.83 35.64 15.49 28.18L15.48 28.16L15.48 28.16Q15.19 20.83 11.88 14.32L11.77 14.22L11.76 14.20Q16.69 17.08 23.66 17.08L23.58 17.00L23.76 17.18Q29.26 17.05 29.52 20.59L29.51 20.57L29.49 20.55Q29.73 21.32 29.65 21.93L29.63 21.91L29.44 22.94L29.57 23.07Q28.70 26.96 26.57 28.67L26.49 28.59L26.61 28.72Q25.68 29.27 24.66 29.27L24.69 29.30L22.19 29.39L22.00 29.21Q27.78 36.62 32.31 41.19L32.25 41.13L32.21 41.09Q29.99 40.31 27.06 39.97L27.02 39.93L27.09 40.01Q23.35 36.08 18.44 28.84ZM26.96 40.37L26.96 40.37L27.18 40.29L28.60 41.71L28.46 41.56Q29.12 42.18 29.76 42.79L29.72 42.75L29.73 42.76Q33.34 43.44 36.92 45.30L36.78 45.17L36.96 45.34Q29.92 38.50 24.52 31.57L24.53 31.58L26.19 31.49L26.28 31.58Q29.32 31.53 30.65 27.00L30.68 27.03L30.80 27.16Q31.45 24.91 31.45 22.21L31.42 22.18L31.32 22.08Q31.30 19.78 29.59 19.13L29.60 19.14L29.71 19.25Q29.65 18.92 29.08 18.24L28.95 18.11L29.07 18.23Q27.40 16.78 23.74 16.71L23.74 16.71L23.58 16.54Q15.82 16.51 11.13 13.50L11.04 13.41L11.01 13.38Q14.84 20.29 15.18 27.98L15.17 27.98L15.08 27.88Q15.57 35.99 12.45 42.84L12.36 42.75L12.43 42.82Q13.57 42.13 14.37 41.83L14.48 41.94L13.37 44.10L13.37 44.11Q16.22 43.18 18.88 42.69L18.84 42.64L18.84 42.64Q20.19 37.60 20.38 32.38L20.32 32.32L20.30 32.30Q23.87 37.32 27.03 40.44ZM25.71 22.45L25.76 22.50L25.71 22.45Q25.74 22.70 25.74 23.05L25.66 22.97L25.84 23.72L25.67 23.55Q25.73 24.71 25.05 25.66L25.05 25.67L25.16 25.78Q24.42 26.41 23.51 26.60L23.59 26.68L23.56 26.65Q23.41 26.77 21.81 26.81L21.69 26.68L21.77 26.77Q21.14 26.74 20.30 26.63L20.26 26.59L20.21 26.54Q20.11 25.03 19.77 21.99L19.75 21.97L19.94 22.16Q21.33 22.33 22.02 22.33L21.87 22.18L21.85 22.17Q23.73 22.22 25.67 22.41Z"/><path fill="#333" d="M105.97 34.75L105.88 34.67L106.02 34.80Q105.86 38.23 102.70 39.53L102.71 39.53L102.75 39.57Q100.91 40.43 96.49 40.59L96.51 40.60L96.51 40.60Q91.67 40.67 89.42 39.49L89.36 39.43L89.36 39.43Q87.51 38.12 87.67 34.77L87.71 34.81L87.73 34.83Q87.76 34.21 87.95 32.23L87.87 32.15L87.93 32.21Q88.13 30.70 88.13 29.71L88.06 29.64L88.09 29.67Q88.04 21.63 83.86 14.21L83.81 14.16L83.79 14.14Q85.06 14.91 88.03 15.98L87.96 15.91L87.98 15.94Q90.92 22.71 90.92 30.10L90.91 30.09L90.88 30.07Q90.95 30.74 90.85 31.92L90.71 31.77L90.85 31.92Q90.64 32.98 90.64 33.59L90.72 33.67L90.73 33.68Q90.71 35.95 92.27 36.94L92.19 36.85L92.30 36.96Q93.84 37.67 96.81 37.67L96.83 37.68L96.83 37.69Q99.48 37.71 101.11 36.53L101.02 36.44L101.09 36.51Q102.94 35.16 102.79 32.64L102.93 32.78L102.88 32.74Q102.80 31.36 102.80 30.03L102.73 29.96L102.66 29.89Q102.73 22.91 105.13 16.40L105.17 16.45L107.30 15.83L107.27 15.80Q108.34 15.62 109.45 15.16L109.39 15.11L109.32 15.04Q105.66 22.23 105.66 29.80L105.63 29.78L105.75 29.89Q105.70 30.68 105.83 32.32L105.87 32.36L105.86 32.34Q105.90 33.89 105.90 34.69ZM108.13 35.66L108.00 35.54L107.97 35.50Q107.21 30.67 107.93 25.56L107.88 25.51L107.97 25.60Q108.71 20.41 111.11 16.03L111.06 15.98L110.97 15.89Q110.47 16.30 109.02 16.95L109.02 16.94L109.04 16.96Q109.32 16.02 110.12 14.46L110.10 14.45L110.18 14.53Q106.58 15.61 104.68 15.96L104.74 16.02L104.82 16.09Q102.41 22.56 102.41 29.83L102.51 29.93L102.51 29.93Q102.37 31.15 102.44 32.56L102.40 32.52L102.43 32.55Q102.61 34.98 100.82 36.19L100.90 36.27L100.79 36.17Q99.27 37.20 96.76 37.24L96.86 37.34L96.92 37.40Q94.17 37.47 92.73 36.70L92.56 36.54L92.55 36.53Q92.48 36.04 92.41 35.59L92.45 35.62L92.42 35.60Q92.35 35.07 92.47 34.58L92.55 34.66L92.46 34.57Q92.82 32.39 92.82 30.06L92.69 29.93L92.75 29.99Q92.88 24.29 91.35 18.39L91.17 18.21L91.31 18.35Q90.58 18.23 89.17 17.88L89.19 17.90L89.19 17.91Q88.79 16.59 88.33 15.67L88.27 15.61L88.22 15.56Q85.52 14.80 83.12 13.43L83.10 13.41L83.24 13.55Q87.83 21.11 87.83 29.83L87.81 29.81L87.69 29.69Q87.69 31.33 87.54 33.04L87.70 33.21L87.67 33.17Q87.35 35.47 87.42 36.65L87.48 36.72L87.38 36.61Q87.57 38.59 88.82 39.73L88.89 39.80L88.83 39.74Q89.77 42.17 94.42 42.55L94.40 42.53L94.55 42.68Q96.52 42.70 98.65 42.78L98.74 42.87L98.73 42.86Q104.09 43.04 106.87 42.09L106.85 42.07L106.85 42.07Q108.41 41.16 108.41 39.10L108.48 39.17L108.42 39.12Q108.53 38.08 108.07 35.60Z"/><path fill="#222" d="M122.13 40.20L122.10 40.18L119.85 40.21L119.88 40.24Q119.45 40.27 118.48 40.33L118.54 40.39L118.52 40.36Q117.48 40.35 116.99 40.35L116.96 40.32L117.07 40.43Q115.43 40.44 114.41 39.60L114.46 39.66L114.40 39.60Q115.14 38.43 116.77 36.29L116.80 36.33L116.91 36.43Q118.12 37.95 120.33 37.72L120.27 37.66L120.29 37.68Q121.24 37.60 121.88 36.95L121.81 36.88L121.87 36.94Q122.57 36.34 122.46 35.47L122.40 35.41L122.34 35.35Q122.22 30.74 122.29 26.17L122.39 26.26L122.30 26.17Q122.29 21.52 122.82 16.91L122.85 16.94L122.94 17.03Q124.83 16.79 126.97 15.77L126.97 15.77L127.04 15.83Q125.07 22.47 125.07 29.70L125.21 29.85L125.21 29.84Q125.06 33.24 125.52 36.74L125.54 36.77L125.61 36.84Q125.59 37.08 125.59 37.42L125.72 37.56L125.65 37.48Q125.61 38.01 125.38 38.55L125.33 38.49L125.35 38.51Q124.83 39.82 122.01 40.08ZM126.97 42.96L126.97 42.95L127.33 42.97L127.65 42.87L127.94 42.78L127.96 42.80Q128.14 42.41 128.22 42.30L128.33 42.41L128.20 42.28Q128.42 41.13 128.16 40.14L128.21 40.20L128.10 40.09Q126.74 34.27 127.01 27.92L127.09 28.00L127.12 28.03Q127.37 21.92 129.16 16.02L129.11 15.97L129.09 15.94Q128.29 16.67 127.03 17.39L126.98 17.34L126.91 17.27Q127.12 16.53 127.54 15.01L127.68 15.14L127.51 14.98Q125.15 16.47 122.49 16.77L122.43 16.71L122.33 16.62Q122.06 21.10 121.98 26.05L122.02 26.09L121.99 26.05Q121.83 31.87 121.90 35.30L122.02 35.41L122.10 35.49Q122.07 37.18 120.32 37.33L120.23 37.24L120.26 37.27Q118.66 37.49 116.98 35.86L116.93 35.81L116.92 35.80Q114.93 38.37 113.97 39.93L113.81 39.77L113.90 39.85Q114.49 40.45 115.52 40.68L115.58 40.74L115.56 40.71Q115.46 40.84 115.19 41.07L115.27 41.15L115.18 41.05Q116.66 42.05 118.64 42.32L118.65 42.32L118.55 42.22Q119.12 42.45 122.41 42.75L122.30 42.64L122.28 42.62Q125.54 42.89 126.91 42.89Z"/><path fill="#444" d="M75.24 29.40L75.34 29.50L75.37 29.53Q74.12 28.69 73.47 28.73L73.49 28.75L73.56 28.82Q72.10 28.81 71.05 29.82L71.00 29.77L71.17 29.94Q70.08 30.90 70.19 32.27L70.07 32.14L70.16 32.24Q70.50 36.61 69.62 41.14L69.54 41.06L69.66 41.18Q67.38 41.57 66.28 42.10L66.24 42.06L66.34 42.16Q67.80 37.95 67.58 33.50L67.45 33.38L67.52 33.44Q67.29 28.95 65.58 24.88L65.60 24.90L65.68 24.98Q66.82 25.66 69.10 26.31L69.01 26.22L69.61 28.95L69.62 28.96Q70.18 25.93 74.44 25.93L74.51 26.00L74.56 26.06Q74.91 25.95 75.21 25.95L75.26 25.99L75.20 25.93Q76.48 25.92 77.73 26.60L77.77 26.64L77.76 26.63Q76.40 27.93 75.26 29.42ZM76.98 31.52L77.14 31.52L77.03 31.42Q77.92 30.26 79.60 27.82L79.63 27.85L79.56 27.78Q79.06 27.39 77.54 27.13L77.70 27.29L77.53 27.12Q77.98 26.92 78.43 26.31L78.33 26.21L78.49 26.36Q76.60 25.46 74.66 25.66L74.54 25.54L74.66 25.66Q72.59 25.72 71.86 25.98L71.91 26.04L71.81 25.94Q70.59 26.54 69.80 27.65L69.65 27.51L69.54 26.74L69.25 25.81L69.29 25.85Q66.93 25.46 64.95 24.13L64.92 24.11L64.93 24.12Q67.10 28.53 67.33 33.40L67.31 33.38L67.26 33.34Q67.44 38.20 65.69 42.73L65.85 42.89L65.70 42.74Q66.77 42.25 67.64 41.94L67.76 42.06L67.67 41.97Q67.53 43.20 67.04 44.27L66.96 44.19L66.88 44.11Q69.78 43.31 71.91 43.20L72.04 43.33L72.17 38.74L72.10 38.67Q72.22 36.43 72.22 34.18L72.34 34.31L72.26 34.22Q72.15 32.93 73.06 31.96L73.19 32.09L73.07 31.96Q74.01 31.03 75.15 30.95L75.21 31.00L75.16 30.96Q75.76 30.79 76.48 31.48L76.59 31.58L77.00 31.54ZM71.99 29.72L71.96 29.62L71.88 29.65L72.03 29.77Z"/><path fill="#222" d="M48.81 32.11L39.69 22.23L39.64 22.17Q40.43 25.82 40.43 29.55L40.43 29.55L40.38 29.51Q40.43 35.53 38.37 41.08L38.47 41.18L38.45 41.16Q37.34 41.39 35.10 42.15L35.09 42.14L35.00 42.06Q37.92 36.37 37.92 29.67L37.85 29.60L37.93 29.68Q37.85 20.96 33.35 13.53L33.43 13.61L33.34 13.52Q33.74 13.66 34.43 14.07L34.43 14.07L34.53 14.18Q46.68 25.45 54.52 34.70L54.54 34.72L54.42 34.60Q54.21 32.26 54.21 29.82L54.14 29.74L54.13 29.74Q54.14 22.52 56.65 16.31L56.71 16.37L56.57 16.22Q58.99 15.79 60.59 15.11L60.57 15.09L60.56 15.08Q57.26 21.26 56.96 28.42L57.02 28.48L56.89 28.35Q56.65 35.76 59.62 41.93L59.58 41.89L59.53 41.84Q59.05 41.85 58.63 41.66L58.68 41.71L58.56 41.59Q54.11 37.75 48.89 32.19L48.87 32.17ZM62.27 45.15L62.31 45.19L62.27 45.15Q62.64 45.21 63.05 45.40L63.22 45.57L64.01 45.86L64.02 45.87Q58.80 38.86 58.80 29.50L58.77 29.47L58.91 29.61Q58.86 22.33 62.17 16.08L62.23 16.14L62.06 15.97Q61.41 16.19 60.00 16.80L60.17 16.98L60.17 16.97Q60.52 16.11 61.36 14.55L61.24 14.43L61.33 14.52Q58.78 15.32 56.34 15.89L56.37 15.91L56.37 15.92Q53.82 22.47 53.82 29.89L53.72 29.79L53.80 29.87Q53.68 31.61 53.87 33.59L53.87 33.59L53.99 33.71Q49.37 28.06 44.61 23.45L44.64 23.49L34.48 13.70L34.52 13.74Q33.81 13.31 32.60 12.73L32.59 12.73L32.59 12.73Q37.65 20.64 37.65 29.74L37.54 29.63L37.57 29.67Q37.62 36.84 34.54 42.85L34.52 42.83L34.52 42.84Q34.81 42.70 36.45 42.09L36.35 41.99L36.41 42.05Q36.09 42.84 35.25 44.32L35.19 44.27L35.32 44.39Q36.54 43.75 40.00 42.95L40.08 43.02L40.03 42.97Q42.42 36.91 42.42 29.72L42.47 29.77L42.33 29.63Q42.45 27.66 42.23 25.53L42.22 25.52L42.21 25.51Q53.70 38.33 62.30 45.18Z"/></svg>