<svg xmlns="http://www.w3.org/2000/svg" width="150" height="50" viewBox="0,0,150,50"><path fill="#111" d="M106.37 23.04L106.34 23.00L106.47 23.13Q104.48 25.67 101.81 31.31L101.96 31.45L100.02 35.75L99.98 35.72Q98.99 37.50 97.65 39.75L97.75 39.85L97.66 39.76Q98.16 39.79 96.48 39.83L96.56 39.91L96.42 39.77Q96.41 39.76 95.15 39.76L95.25 39.86L95.27 39.88Q94.61 38.45 91.68 31.29L91.66 31.28L91.61 31.23Q89.34 25.76 87.24 22.75L87.28 22.79L87.38 22.89Q88.01 25.84 88.01 29.00L88.08 29.07L88.01 29.00Q88.05 35.55 85.08 41.10L85.10 41.13L85.13 41.15Q83.71 41.41 81.35 42.13L81.38 42.16L81.37 42.16Q85.11 36.53 85.11 29.29L85.13 29.31L85.21 29.40Q85.19 20.43 79.78 13.46L79.73 13.41L79.68 13.36Q81.28 14.05 83.64 14.73L83.69 14.78L83.69 14.78Q90.82 21.60 96.91 34.93L96.93 34.95L96.81 34.83Q100.41 27.93 102.62 24.42L102.57 24.37L102.47 24.27Q106.08 18.52 110.04 15.06L110.10 15.12L109.99 15.01Q111.34 14.87 113.70 14.11L113.75 14.16L113.74 14.15Q108.75 20.77 108.75 29.37L108.69 29.31L108.67 29.29Q108.71 36.00 112.14 41.52L112.15 41.53L112.07 41.45Q110.80 41.21 108.06 40.60L108.16 40.70L108.02 40.56Q105.78 35.88 105.78 29.90L105.62 29.75L105.65 29.78Q105.64 26.34 106.33 22.99ZM107.86 40.97L107.92 41.03L107.79 40.90Q108.52 41.05 109.96 41.32L109.96 41.32L110.08 41.44Q110.41 42.07 111.36 43.55L111.48 43.67L111.35 43.55Q113.51 43.99 116.98 45.21L117.09 45.33L117.09 45.33Q110.74 38.90 110.74 29.08L110.81 29.15L110.76 29.10Q110.80 21.41 115.17 15.28L115.07 15.17L112.97 15.97L112.85 15.85Q113.89 14.34 114.54 13.46L114.58 13.51L114.67 13.60Q112.73 14.17 110.10 14.70L110.13 14.72L110.00 14.59Q103.29 20.76 97.24 33.36L97.34 33.45L97.22 33.34Q92.01 22.34 87.07 17.09L87.03 17.06L87.16 17.19Q86.73 17.06 86.16 16.95L86.08 16.87L84.92 15.63L84.91 15.62Q84.37 15.01 83.69 14.40L83.70 14.41L83.77 14.48Q80.70 13.47 78.91 12.74L78.81 12.65L78.84 12.68Q84.79 19.84 84.79 29.24L84.91 29.36L84.84 29.30Q84.84 36.91 80.69 42.77L80.63 42.71L80.71 42.79Q81.35 42.52 82.65 42.10L82.67 42.12L82.66 42.12Q82.65 42.49 81.24 44.58L81.14 44.48L81.14 44.47Q82.90 43.95 86.40 43.19L86.42 43.21L86.46 43.25Q90.08 36.09 89.89 28.33L89.98 28.42L90.04 28.48Q91.56 32.48 95.03 40.36L94.93 40.26L94.95 40.28Q95.23 40.25 95.46 40.25L95.37 40.17L96.06 40.33L96.02 40.29Q96.39 40.88 97.19 42.17L97.15 42.14L97.15 42.14Q98.77 42.12 98.77 42.12L98.90 42.25L98.95 42.30Q99.75 42.08 100.40 42.15L100.48 42.23L100.44 42.20Q101.97 38.13 105.32 30.14L105.40 30.22L105.43 30.24Q105.36 35.73 107.95 41.06Z"/><path fill="#222" d="M71.00 29.10L71.04 29.14L70.91 29.01Q69.27 29.08 68.03 30.51L67.91 30.39L68.02 30.50Q66.63 31.77 66.44 33.68L66.49 33.73L66.54 33.77Q66.32 35.84 67.41 36.81L67.40 36.81L67.34 36.74Q68.38 37.67 70.47 37.55L70.48 37.56L70.52 37.61Q72.61 37.45 73.72 36.77L73.74 36.78L73.72 36.77Q74.88 35.69 74.88 34.13L74.84 34.08L74.80 34.04Q74.89 33.75 74.82 33.37L74.77 33.33L74.85 33.41Q74.86 31.67 73.76 30.31L73.71 30.27L73.71 30.27Q72.70 29.01 71.02 29.12ZM70.58 40.21L70.52 40.16L70.60 40.24Q66.16 40.17 64.75 39.41L64.72 39.38L64.84 39.50Q63.84 38.76 63.65 37.05L63.63 37.03L63.63 37.03Q63.46 36.22 63.50 35.49L63.50 35.50L63.58 35.57Q63.69 34.58 63.69 34.12L63.79 34.22L63.63 34.06Q64.13 31.25 64.28 30.57L64.24 30.53L64.23 30.52Q64.73 28.61 65.56 27.20L65.64 27.28L65.63 27.27Q68.34 22.94 74.28 16.58L74.16 16.46L74.26 16.56Q76.81 16.14 79.02 15.34L79.08 15.40L78.99 15.32Q72.27 22.91 69.07 27.14L69.01 27.07L69.07 27.13Q70.01 26.59 71.31 26.59L71.40 26.69L71.38 26.67Q74.66 26.63 76.18 28.57L76.15 28.54L76.07 28.46Q77.41 30.10 77.75 33.64L77.87 33.76L77.75 33.64Q77.88 34.42 77.88 35.03L77.98 35.12L77.99 35.13Q78.00 38.27 75.79 39.34L75.67 39.21L75.78 39.33Q74.39 39.76 70.51 40.15ZM72.79 42.54L72.80 42.55L72.94 42.69Q74.12 42.53 76.10 42.61L76.07 42.58L76.25 42.76Q77.71 42.66 79.27 41.94L79.34 42.01L79.40 42.06Q80.54 41.31 80.54 39.52L80.55 39.53L80.49 39.46Q80.46 38.94 80.29 37.95L80.19 37.85L80.29 37.95Q80.15 36.99 80.15 36.53L80.15 36.53L80.14 36.53Q79.26 31.80 77.66 29.90L77.63 29.87L77.55 29.79Q77.54 29.74 77.39 29.52L77.50 29.62L77.10 29.30L77.03 29.27L77.10 29.33Q76.67 28.75 76.06 27.80L76.12 27.86L76.13 27.88Q75.16 26.87 73.18 26.41L73.28 26.51L73.15 26.37Q74.38 24.79 77.35 21.10L77.33 21.08L81.57 15.80L81.52 15.75Q79.98 16.65 77.58 17.41L77.57 17.39L77.63 17.46Q78.48 16.41 80.27 14.43L80.25 14.40L80.26 14.41Q77.87 15.49 73.99 16.06L74.09 16.16L74.01 16.08Q68.27 21.95 65.30 26.90L65.47 27.08L65.40 27.01Q63.94 29.58 63.37 35.82L63.29 35.75L63.33 35.78Q63.19 36.29 63.26 37.24L63.27 37.24L63.29 37.26Q63.32 38.97 64.42 39.88L64.54 40.00L64.42 39.88Q64.77 40.00 64.74 40.04L64.81 40.12L64.86 40.17Q65.13 40.97 65.93 41.39L65.95 41.41L65.95 41.41Q67.39 42.09 69.33 42.28L69.47 42.41L69.31 42.26Q69.43 42.37 72.93 42.68ZM72.69 31.43L72.67 31.41L72.62 31.36Q73.19 31.25 74.14 31.75L74.08 31.69L74.12 31.73Q74.41 32.63 74.41 33.28L74.56 33.42L74.57 33.43Q74.67 35.20 73.71 36.19L73.74 36.22L73.73 36.21Q72.72 36.98 70.62 37.29L70.52 37.19L70.64 37.30Q69.09 37.20 68.56 36.93L68.65 37.03L68.63 37.01Q68.38 36.49 68.38 36.19L68.36 36.17L68.45 36.26Q68.20 32.97 71.14 31.67L71.08 31.62L71.12 31.66Q71.98 31.41 72.74 31.49Z"/><path fill="#222" d="M25.92 30.86L25.99 30.93L25.89 30.83Q25.86 29.70 23.92 28.98L23.97 29.03L23.93 28.99Q23.44 28.80 22.91 28.80L22.82 28.71L22.82 28.71Q21.44 28.70 20.37 29.27L20.39 29.29L20.36 29.26Q19.07 30.06 19.18 31.28L19.13 31.22L19.25 31.35Q19.61 34.18 19.45 36.42L19.40 36.37L19.30 36.27Q19.16 38.72 18.44 41.24L18.55 41.34L18.56 41.36Q16.46 41.88 15.28 42.30L15.17 42.19L15.17 42.19Q16.73 38.53 16.73 34.53L16.73 34.54L16.79 34.60Q16.73 29.10 14.14 24.64L14.28 24.78L14.21 24.71Q15.47 25.25 17.87 25.97L17.78 25.88L17.81 25.91Q18.17 26.69 18.55 28.21L18.50 28.16L18.59 28.25Q19.85 26.09 23.73 26.16L23.80 26.22L23.77 26.20Q25.19 26.17 25.99 26.29L25.90 26.20L25.92 26.21Q28.90 26.60 28.97 28.62L29.07 28.72L29.06 28.71Q29.08 29.60 28.89 30.63L28.91 30.65L28.85 30.59Q28.49 33.20 28.68 36.21L28.71 36.24L28.71 36.24Q28.79 39.02 29.78 41.57L29.75 41.54L29.76 41.55Q28.11 41.20 26.40 41.05L26.41 41.06L26.39 41.04Q25.95 38.69 25.87 36.03L25.81 35.97L25.83 35.99Q25.74 33.23 25.97 30.91ZM26.04 41.41L26.02 41.39L25.90 41.27Q26.78 41.35 28.08 41.58L28.10 41.61L28.36 42.55L28.53 42.72Q28.71 43.20 28.93 43.73L28.79 43.59L28.80 43.60Q31.14 44.07 33.84 45.25L33.85 45.26L33.90 45.31Q31.50 42.15 30.81 38.34L30.72 38.25L30.86 38.39Q30.40 36.14 30.51 32.45L30.63 32.56L30.56 32.49Q30.47 32.10 30.51 31.30L30.51 31.30L30.68 31.47Q30.71 30.81 30.63 30.32L30.65 30.33L30.58 30.27Q30.42 28.55 29.32 28.05L29.46 28.19L29.36 28.09Q29.30 27.35 28.54 26.74L28.44 26.64L28.45 26.66Q26.73 25.62 23.69 25.70L23.62 25.63L23.72 25.73Q21.81 25.72 20.97 25.91L21.11 26.05L21.04 25.98Q19.61 26.33 18.65 27.25L18.71 27.30L18.70 27.30Q18.43 26.61 18.05 25.58L18.07 25.59L18.05 25.58Q15.39 25.05 13.56 24.06L13.52 24.02L13.44 23.93Q16.51 28.84 16.51 34.59L16.47 34.54L16.60 34.67Q16.51 38.96 14.61 42.81L14.69 42.89L14.66 42.86Q15.36 42.57 16.65 42.18L16.55 42.09L16.63 42.17Q16.09 43.38 15.56 44.37L15.49 44.30L15.49 44.30Q17.07 44.02 20.61 43.44L20.46 43.30L20.56 43.39Q21.43 38.13 21.31 33.29L21.42 33.40L21.30 33.28Q21.30 32.49 22.48 31.76L22.51 31.79L22.54 31.82Q23.55 31.16 24.66 31.05L24.69 31.07L24.73 31.12Q25.04 30.93 25.46 31.12L25.57 31.23L25.61 31.27Q25.35 33.71 25.39 36.26L25.50 36.37L25.46 36.34Q25.38 38.73 25.88 41.25Z"/><path fill="#222" d="M114.72 49.70L114.73 49.71L114.74 49.71Q117.57 45.77 120.46 39.57L120.54 39.64L120.40 39.50Q117.30 32.98 111.21 24.91L111.19 24.89L111.13 24.82Q113.19 26.12 115.97 26.77L115.99 26.80L115.91 26.71Q119.41 31.35 121.84 36.57L121.80 36.52L121.82 36.55Q123.98 31.25 127.07 26.83L127.15 26.91L127.16 26.92Q129.32 26.53 131.41 25.73L131.41 25.73L131.37 25.69Q128.02 29.57 124.56 37.00L124.62 37.06L121.77 43.04L121.83 43.11Q120.20 46.04 118.44 48.66L118.52 48.74L118.47 48.69Q116.09 49.09 114.64 49.62ZM120.89 51.03L120.74 50.88L120.76 50.91Q122.57 48.11 124.02 44.84L124.04 44.86L126.69 38.44L126.64 38.39Q130.20 30.42 133.52 26.43L133.62 26.53L133.50 26.41Q132.29 27.22 130.38 27.90L130.24 27.75L131.27 26.35L131.26 26.34Q131.87 25.69 132.48 25.01L132.39 24.92L132.49 25.02Q129.89 26.15 127.04 26.61L127.04 26.62L126.87 26.44Q124.31 30.54 122.36 34.99L122.32 34.95L122.18 34.81Q120.72 31.67 118.93 28.86L118.92 28.85L118.88 28.81Q118.57 28.69 118.21 28.65L118.27 28.71L118.38 28.82Q118.02 28.78 117.83 28.78L117.78 28.74L117.80 28.75Q117.00 27.47 116.05 26.32L116.10 26.37L116.00 26.28Q112.85 25.63 110.11 23.92L110.14 23.95L110.04 23.85Q116.32 31.88 120.01 39.50L120.05 39.53L120.15 39.63Q117.79 44.51 113.72 50.14L113.72 50.14L113.81 50.23Q114.70 50.02 115.50 49.87L115.42 49.78L117.07 49.46L117.12 49.51Q116.41 50.13 115.23 51.77L115.27 51.80L115.25 51.78Q117.50 51.14 120.77 50.91Z"/><path fill="#444" d="M50.82 30.99L50.66 30.83L50.69 30.87Q50.78 29.44 49.96 28.52L50.06 28.62L49.98 28.54Q49.17 27.63 47.72 27.67L47.72 27.67L47.79 27.74Q45.35 27.70 44.51 29.83L44.60 29.92L44.53 29.85Q44.19 30.57 44.15 31.26L44.32 31.42L44.31 31.41Q43.99 36.16 43.07 40.50L43.05 40.47L43.13 40.55Q41.43 41.07 39.57 42.06L39.53 42.01L39.54 42.03Q41.78 35.02 41.52 27.71L41.61 27.81L41.54 27.74Q41.18 20.29 38.63 13.48L38.68 13.53L38.79 13.64Q40.60 14.99 42.61 15.67L42.54 15.60L42.62 15.68Q44.03 21.43 44.22 27.29L44.15 27.22L44.23 27.30Q45.55 25.16 48.26 25.24L48.36 25.34L48.25 25.23Q53.36 25.35 53.47 30.72L53.54 30.79L53.49 30.74Q53.54 36.35 54.91 40.99L54.98 41.06L55.01 41.09Q53.16 40.26 51.41 40.07L51.40 40.07L51.27 39.94Q50.87 36.80 50.76 30.94ZM51.03 40.34L50.98 40.29L51.12 40.44Q52.09 40.49 53.19 40.76L53.19 40.75L53.10 40.66Q53.31 40.99 53.84 42.97L53.70 42.82L53.71 42.84Q56.65 43.75 58.66 45.20L58.84 45.38L58.74 45.28Q56.12 39.57 55.58 33.25L55.54 33.20L55.51 33.17Q55.26 29.53 53.85 27.97L53.88 28.01L53.71 27.84Q53.86 27.91 53.21 27.45L53.08 27.32L53.13 27.37Q52.95 26.92 52.30 26.16L52.15 26.01L52.28 26.06L52.20 25.99Q51.33 25.12 48.21 24.85L48.23 24.86L48.28 24.92Q47.55 24.92 46.15 25.26L46.14 25.25L46.17 25.28Q45.83 20.30 45.49 17.79L45.60 17.90L45.54 17.84Q44.84 17.79 43.36 17.48L43.43 17.56L43.38 17.51Q43.19 16.75 42.93 15.26L42.94 15.28L42.84 15.18Q39.99 14.31 38.12 12.74L38.06 12.68L38.13 12.75Q41.06 19.86 41.32 27.67L41.27 27.61L41.24 27.59Q41.53 35.37 38.98 42.72L38.98 42.73L39.01 42.75Q39.87 42.09 41.01 41.59L41.02 41.61L40.39 43.98L40.29 43.88Q43.58 42.72 45.56 42.53L45.40 42.37L45.49 42.45Q46.05 37.04 46.24 33.08L46.15 32.99L46.26 33.10Q46.25 31.15 48.19 30.04L48.32 30.17L48.36 30.21Q48.87 29.96 49.41 30.00L49.26 29.86L49.31 29.90Q49.40 29.85 49.74 29.88L49.85 29.99L50.36 30.16L50.24 30.03Q50.25 30.42 50.36 30.88L50.29 30.81L50.28 30.80Q50.48 36.86 50.97 40.29Z"/></svg>