<svg xmlns="http://www.w3.org/2000/svg" width="150" height="50" viewBox="0,0,150,50"><path fill="#111" d="M79.67 40.34L79.69 40.36L79.71 40.38Q76.68 36.44 74.05 27.79L74.18 27.93L74.17 27.91Q73.45 25.71 72.65 23.58L72.68 23.60L69.86 32.43L69.83 32.40Q67.96 37.27 65.56 40.50L65.55 40.49L65.48 40.43Q64.78 40.64 63.15 40.80L62.98 40.63L63.06 40.71Q63.28 39.64 63.28 38.38L63.19 38.29L63.15 38.25Q63.24 32.32 60.50 26.19L60.39 26.09L60.35 26.05Q57.31 19.24 51.45 14.25L51.48 14.29L51.52 14.33Q53.67 15.02 56.03 15.56L55.96 15.49L56.05 15.58Q64.69 23.99 65.99 34.96L65.99 34.96L65.95 34.92Q67.51 31.53 68.96 26.17L69.11 26.31L68.94 26.15Q70.90 18.62 71.39 17.21L71.52 17.34L73.78 17.36L73.65 17.23Q74.38 19.28 75.02 21.61L75.07 21.65L76.23 26.01L76.28 26.06Q77.98 31.64 79.39 34.88L79.32 34.81L79.38 34.87Q80.90 23.11 88.82 15.76L88.82 15.76L88.85 15.79Q90.40 15.47 93.37 14.82L93.41 14.87L93.29 14.75Q88.07 19.16 85.03 25.29L85.06 25.32L84.91 25.17Q81.95 31.55 81.95 38.32L81.98 38.35L81.90 38.27Q81.98 39.45 82.06 40.59L81.97 40.51L80.95 40.51L80.94 40.51Q80.21 40.31 79.64 40.31ZM85.90 43.21L85.99 43.31L85.87 43.18Q84.73 39.73 84.84 35.84L84.87 35.87L84.74 35.74Q85.23 24.35 94.59 16.09L94.43 15.93L94.60 16.09Q93.51 16.19 91.57 16.72L91.65 16.80L91.62 16.77Q92.56 15.93 94.47 14.14L94.57 14.24L94.55 14.21Q91.80 14.90 88.87 15.39L88.94 15.46L88.85 15.37Q81.39 22.53 79.48 32.01L79.47 31.99L79.48 32.00Q79.00 30.45 76.14 18.99L76.01 18.86L76.15 19.00Q75.72 19.07 74.77 19.07L74.71 19.01L74.33 17.87L74.32 17.86Q74.35 17.47 74.12 16.97L73.98 16.84L71.16 16.91L71.14 16.88Q70.29 19.31 69.02 24.43L69.07 24.48L69.12 24.54Q67.69 29.50 66.70 31.97L66.85 32.13L66.75 32.03Q65.21 24.17 59.65 17.85L59.59 17.79L59.66 17.86Q59.20 17.81 58.24 17.62L58.26 17.64L58.25 17.63Q57.54 16.81 55.98 15.17L55.93 15.11L55.93 15.11Q52.44 14.22 50.27 13.42L50.33 13.47L50.33 13.48Q56.06 18.21 59.33 24.41L59.28 24.37L59.22 24.31Q62.80 31.05 62.80 38.05L62.67 37.93L62.77 38.02Q62.81 39.62 62.62 41.22L62.64 41.24L62.50 41.10Q62.88 41.25 63.34 41.16L63.35 41.17L63.36 41.18Q63.67 40.94 63.90 40.94L63.88 40.92L63.86 41.93L63.91 41.98Q63.88 42.40 63.95 42.93L64.03 43.01L64.02 43.00Q65.24 43.00 67.52 42.85L67.39 42.72L67.51 42.84Q71.12 37.42 73.86 28.02L73.74 27.90L73.80 27.96Q76.58 36.76 79.55 40.72L79.65 40.81L79.52 40.68Q80.14 40.85 80.98 40.96L80.84 40.83L80.82 40.81Q81.70 41.88 82.77 42.94L82.71 42.88L82.70 42.88Q83.61 43.06 86.01 43.33Z"/><path fill="#333" d="M117.80 40.41L117.74 40.34L117.68 40.28Q113.73 40.64 112.74 38.32L112.68 38.25L112.80 38.38Q113.41 37.27 114.97 35.48L114.98 35.49L115.05 35.56Q115.47 37.51 118.48 37.62L118.63 37.77L118.58 37.73Q121.99 37.82 123.63 36.49L123.61 36.47L123.49 36.35Q124.89 34.75 124.82 32.04L124.89 32.11L124.91 32.13Q124.72 27.03 119.92 27.26L120.00 27.33L119.88 27.22Q117.13 27.44 115.38 28.70L115.42 28.74L114.98 28.44L114.89 28.43L114.92 28.47Q115.11 25.16 115.00 22.41L115.03 22.45L114.99 22.40Q114.86 19.76 114.52 16.45L114.66 16.59L114.56 16.50Q118.20 17.43 122.01 17.31L122.12 17.43L122.14 17.45Q125.81 17.24 129.39 15.98L129.52 16.11L128.85 17.53L128.89 17.58Q128.63 18.38 128.44 19.22L128.31 19.09L128.31 19.09Q125.24 20.17 121.35 20.17L121.40 20.22L121.42 20.23Q119.90 20.16 118.42 20.01L118.53 20.12L118.49 20.08Q118.29 20.64 117.94 25.09L117.97 25.12L118.00 25.15Q118.89 24.75 120.95 24.59L120.86 24.50L120.93 24.57Q124.60 24.74 126.05 26.42L126.11 26.48L126.16 26.53Q127.55 28.07 127.81 31.92L127.75 31.86L127.67 31.78Q128.04 36.06 126.82 38.08L126.71 37.97L126.72 37.98Q124.75 39.93 121.44 40.16L121.54 40.26L121.46 40.18Q120.45 40.23 117.78 40.39ZM123.73 42.57L123.79 42.62L123.76 42.59Q127.33 42.82 129.24 41.71L129.17 41.65L129.14 41.62Q130.11 40.08 130.11 37.98L130.24 38.11L130.23 38.10Q130.07 34.86 129.12 30.75L129.27 30.90L129.26 30.89Q128.78 29.04 127.56 27.63L127.56 27.63L127.64 27.75L127.33 27.36L127.05 27.23L126.99 27.17Q126.77 26.53 126.12 25.85L126.20 25.92L126.19 25.95L126.13 25.89Q124.64 24.25 120.95 24.25L120.90 24.21L120.72 24.29L120.56 24.13Q120.80 23.73 120.99 22.62L120.96 22.59L120.93 22.56Q125.98 22.74 130.02 21.10L129.91 20.99L129.99 21.07Q130.34 19.59 131.29 16.78L131.38 16.87L129.24 17.77L129.29 17.82Q129.49 16.50 129.99 15.36L129.98 15.35L130.01 15.38Q126.13 16.79 122.02 16.87L122.03 16.88L122.21 17.06Q118.06 17.14 114.10 16.04L114.13 16.06L114.08 16.01Q114.78 20.44 114.78 24.86L114.73 24.81L114.79 24.87Q114.71 26.70 114.60 28.60L114.69 28.69L114.59 28.59Q114.86 28.79 115.43 29.09L115.38 29.03L115.38 29.04Q115.88 28.97 116.53 28.62L116.37 28.46L116.41 28.51Q116.48 29.37 116.25 30.90L116.11 30.76L116.24 30.89Q116.69 31.11 117.11 31.34L116.98 31.20L117.08 31.31Q119.72 29.42 121.59 29.42L121.70 29.53L121.67 29.51Q122.96 29.46 124.14 30.10L124.16 30.13L124.18 30.15Q124.42 31.07 124.46 32.02L124.47 32.03L124.64 32.21Q124.62 34.70 123.59 35.80L123.57 35.79L123.59 35.80Q122.21 37.01 119.96 37.24L119.92 37.20L120.06 37.34Q119.12 37.42 118.43 37.34L118.29 37.20L118.33 37.25Q117.53 37.17 116.77 36.82L116.67 36.73L116.80 36.67L116.57 36.67L116.57 36.66Q115.70 36.10 115.17 34.77L115.20 34.80L115.31 34.90Q113.95 36.29 112.28 38.42L112.21 38.35L112.27 38.42Q112.58 39.06 113.41 40.02L113.45 40.05L113.47 40.07Q114.54 41.91 117.36 42.40L117.21 42.25L117.24 42.28Q118.50 42.59 123.87 42.71Z"/><path fill="#222" d="M43.06 40.28L43.13 40.34L43.10 40.31Q41.74 40.44 40.18 40.02L40.21 40.05L40.13 39.97Q38.95 39.10 38.80 37.46L38.77 37.43L38.74 37.40Q38.84 37.35 39.03 34.73L38.87 34.56L38.86 34.55Q40.06 34.54 42.08 34.16L41.92 33.99L41.81 34.84L41.88 34.90Q41.55 36.60 42.96 37.17L42.97 37.18L42.99 37.20Q43.65 37.40 45.74 37.40L45.89 37.55L45.86 37.51Q47.35 37.25 47.54 37.18L47.64 37.28L47.67 37.31Q48.54 37.11 49.26 36.61L49.27 36.63L49.17 36.52Q50.74 35.74 50.55 33.64L50.57 33.66L50.53 33.62Q50.32 31.17 48.59 29.61L48.65 29.67L48.47 29.48Q46.84 28.03 44.37 28.03L44.42 28.08L44.36 27.79L44.43 27.86Q44.64 27.66 45.52 27.58L45.54 27.61L45.53 27.59Q47.55 27.60 48.92 26.36L48.91 26.35L48.94 26.37Q50.17 25.00 50.33 23.14L50.32 23.13L50.43 23.24Q50.48 22.88 50.48 22.53L50.45 22.50L50.57 22.62Q50.55 21.08 49.18 20.17L49.04 20.02L49.02 20.01Q47.83 19.23 46.23 19.35L46.35 19.47L46.22 19.34Q45.01 19.27 43.80 19.69L43.78 19.68L43.75 19.64Q42.28 20.16 41.98 21.30L42.05 21.37L42.08 21.41Q41.88 22.15 41.95 22.91L41.98 22.93L41.93 22.89Q40.79 22.55 38.74 21.83L38.89 21.98L38.75 21.84Q38.66 20.31 38.70 19.47L38.64 19.41L38.72 19.49Q38.76 17.90 39.83 17.21L39.91 17.29L39.82 17.20Q41.31 16.67 42.91 16.67L42.91 16.67L42.82 16.58Q45.94 16.50 49.10 16.77L49.20 16.87L49.13 16.80Q54.14 17.16 53.83 20.93L53.82 20.92L53.87 20.97Q53.89 22.55 53.40 24.11L53.35 24.07L53.24 23.96Q52.45 27.17 50.09 28.08L50.14 28.13L50.14 28.13Q52.64 28.53 53.25 31.88L53.31 31.95L53.31 31.95Q53.57 33.12 53.64 35.13L53.68 35.17L53.50 34.99Q53.77 39.57 49.17 40.02L49.12 39.98L49.18 40.04Q48.43 40.09 43.14 40.35ZM48.44 42.68L48.42 42.66L48.39 42.64Q48.98 42.65 51.83 42.73L51.74 42.64L51.83 42.73Q53.61 42.83 55.25 42.18L55.21 42.15L55.26 42.19Q56.31 41.11 56.12 39.36L56.26 39.51L56.25 39.49Q56.11 38.14 55.81 36.39L55.69 36.27L55.69 36.27Q55.01 31.81 53.06 30.18L53.17 30.28L52.84 29.76L52.96 29.84L52.82 29.70Q54.71 28.40 55.47 24.02L55.31 23.86L55.32 23.87Q55.50 23.55 55.61 22.60L55.56 22.55L55.62 22.60Q55.66 21.81 55.59 21.13L55.49 21.03L55.46 21.00Q55.41 19.43 54.12 18.75L54.01 18.64L53.96 18.66L53.92 18.62Q53.77 17.78 52.62 17.25L52.66 17.29L52.49 17.12Q51.14 16.60 46.00 16.30L45.97 16.27L45.96 16.25Q44.13 16.03 42.53 16.03L42.73 16.22L42.59 16.09Q41.05 16.14 39.52 16.79L39.53 16.80L39.49 16.76Q38.20 17.44 38.20 19.19L38.31 19.30L38.22 19.22Q38.25 18.83 38.52 22.18L38.55 22.21L38.53 22.19Q38.89 22.32 40.53 22.93L40.55 22.96L40.51 22.91Q40.49 23.43 40.45 23.92L40.50 23.97L40.44 23.91Q40.42 24.39 40.46 24.92L40.55 25.01L40.56 25.02Q42.36 25.41 44.38 25.53L44.37 25.51L44.27 25.42Q44.20 23.41 45.31 22.57L45.38 22.65L45.26 22.53Q46.13 21.92 48.15 21.69L48.24 21.78L48.11 21.64Q49.25 21.64 49.82 21.83L49.96 21.97L49.88 21.89Q49.93 22.02 49.97 22.14L50.01 22.17L49.98 22.34L50.00 22.81L50.11 22.92Q50.05 23.05 50.01 23.21L49.99 23.18L50.01 23.21Q50.04 25.02 48.52 26.20L48.55 26.24L48.46 26.14Q47.55 27.06 45.53 27.25L45.52 27.23L45.54 27.26Q44.77 27.36 43.89 27.36L43.96 27.43L43.92 27.39Q43.89 27.66 44.04 28.35L44.18 28.49L44.12 28.43Q45.83 28.39 47.28 29.11L47.28 29.12L47.25 29.20L45.64 29.34L45.58 29.28Q45.59 29.59 45.70 30.20L45.84 30.34L45.79 30.29Q47.94 30.23 49.65 31.56L49.71 31.62L49.65 31.56Q49.85 31.91 50.15 33.55L50.23 33.62L50.12 33.52Q50.45 36.58 47.52 37.00L47.36 36.84L47.40 36.88Q45.38 37.23 44.81 37.19L44.79 37.17L44.81 37.19Q44.27 36.99 43.73 36.91L43.73 36.90L43.73 36.45L43.87 36.02L43.87 35.60L43.97 35.36L43.96 35.35Q43.05 35.47 42.25 35.66L42.13 35.54L42.28 35.69Q42.10 35.32 42.10 35.13L42.13 35.15L42.26 35.29Q42.30 35.10 42.30 34.87L42.12 34.69L42.13 34.70Q42.22 34.34 42.38 33.61L42.40 33.63L42.33 33.57Q40.60 33.94 38.74 34.28L38.68 34.22L38.75 34.29Q38.65 34.68 38.53 35.80L38.65 35.92L38.65 35.92Q38.51 37.02 38.51 37.63L38.42 37.54L38.40 37.51Q38.60 39.69 39.97 40.45L39.81 40.30L39.96 40.45Q41.31 42.60 46.03 42.41L46.16 42.53L46.02 42.39Q46.72 42.34 48.25 42.49Z"/><path fill="#111" d="M32.38 23.04L32.32 22.98L32.43 23.09Q30.65 25.84 27.98 31.48L27.88 31.37L25.99 35.73L25.98 35.72Q25.12 37.64 23.79 39.88L23.81 39.91L23.65 39.74Q24.12 39.76 22.45 39.80L22.45 39.80L22.45 39.80Q22.52 39.87 21.26 39.87L21.22 39.83L21.28 39.89Q20.61 38.45 17.68 31.30L17.67 31.29L17.53 31.15Q15.48 25.90 13.39 22.90L13.26 22.77L13.28 22.79Q14.02 25.85 14.02 29.01L14.03 29.02L14.13 29.12Q14.05 35.55 11.08 41.11L11.19 41.22L11.12 41.15Q9.83 41.53 7.47 42.25L7.37 42.15L7.52 42.30Q11.07 36.50 11.07 29.26L11.19 29.37L11.04 29.22Q11.09 20.33 5.68 13.36L5.68 13.36L5.78 13.46Q7.25 14.02 9.61 14.71L9.61 14.70L9.64 14.73Q16.70 21.49 22.79 34.81L22.91 34.94L22.89 34.91Q26.31 27.83 28.52 24.32L28.50 24.30L28.48 24.28Q32.04 18.48 36.00 15.01L36.11 15.13L36.06 15.08Q37.25 14.78 39.61 14.02L39.67 14.08L39.78 14.19Q34.68 20.70 34.68 29.30L34.65 29.27L34.78 29.40Q34.67 35.95 38.09 41.47L38.17 41.55L38.22 41.59Q36.78 41.18 34.04 40.57L34.11 40.65L33.98 40.52Q31.67 35.78 31.67 29.80L31.62 29.75L31.66 29.78Q31.68 26.38 32.37 23.03ZM33.91 41.02L33.87 40.98L33.93 41.04Q34.62 41.16 36.07 41.43L36.03 41.39L36.06 41.42Q36.43 42.09 37.38 43.57L37.44 43.63L37.44 43.64Q39.56 44.04 43.03 45.26L42.92 45.16L43.04 45.28Q36.65 38.81 36.65 28.99L36.70 29.04L36.70 29.04Q36.68 21.29 41.05 15.16L41.09 15.19L38.92 15.92L38.90 15.90Q39.91 14.36 40.56 13.48L40.68 13.60L40.53 13.45Q38.80 14.23 36.17 14.76L36.10 14.70L36.15 14.75Q29.33 20.79 23.28 33.39L23.22 33.33L23.29 33.41Q18.14 22.47 13.19 17.22L13.20 17.23L13.12 17.14Q12.82 17.15 12.25 17.04L12.27 17.06L10.93 15.64L11.04 15.75Q10.46 15.09 9.77 14.48L9.76 14.47L9.71 14.42Q6.60 13.37 4.81 12.64L4.86 12.70L4.93 12.76Q10.91 19.96 10.91 29.37L10.82 29.27L10.86 29.32Q10.84 36.90 6.69 42.77L6.64 42.72L6.67 42.75Q7.38 42.55 8.67 42.13L8.67 42.13L8.59 42.05Q8.54 42.38 7.14 44.47L7.09 44.43L7.15 44.49Q8.87 43.92 12.37 43.16L12.48 43.26L12.40 43.19Q16.26 36.27 16.07 28.51L15.94 28.37L15.96 28.40Q17.61 32.52 21.07 40.40L21.03 40.36L20.88 40.21Q21.25 40.28 21.48 40.28L21.49 40.29L21.95 40.21L21.91 40.18Q22.48 40.97 23.27 42.26L23.13 42.11L23.26 42.25Q24.93 42.28 24.93 42.28L24.86 42.21L24.91 42.26Q25.82 42.14 26.46 42.22L26.42 42.17L26.57 42.32Q28.15 38.30 31.50 30.31L31.39 30.20L31.37 30.18Q31.19 35.56 33.78 40.89Z"/><path fill="#333" d="M93.17 29.63L93.17 29.63L93.23 29.69Q93.13 33.85 92.40 38.00L92.49 38.08L92.36 37.96Q94.76 37.54 97.84 37.42L97.85 37.43L97.70 37.28Q99.12 37.56 100.19 36.55L100.27 36.64L100.19 36.55Q101.23 35.52 101.23 34.19L101.31 34.27L101.22 34.18Q101.18 33.84 101.15 33.57L101.26 33.68L101.25 33.68Q100.97 30.62 98.73 29.78L98.78 29.83L98.79 29.85Q98.04 29.55 97.35 29.63L97.42 29.69L97.36 29.63Q96.22 29.48 95.20 29.52L95.20 29.53L95.26 29.58Q94.23 29.66 93.20 29.66ZM92.04 19.28L91.91 19.16L91.97 19.22Q92.80 22.49 93.07 26.86L93.13 26.93L93.11 26.91Q94.50 26.96 97.17 27.00L97.24 27.08L97.13 26.96Q100.17 27.12 100.52 23.57L100.43 23.49L100.59 23.64Q100.69 21.62 99.28 20.78L99.19 20.69L99.22 20.72Q98.44 20.32 94.02 19.67L93.85 19.50L93.97 19.62Q92.97 19.53 92.06 19.30ZM88.35 42.13L88.26 42.04L88.41 42.19Q90.81 35.46 90.55 28.07L90.52 28.04L90.46 27.98Q90.14 20.67 87.21 14.19L87.36 14.34L87.24 14.22Q91.00 16.73 97.23 16.98L97.34 17.09L97.23 16.98Q103.62 17.39 103.96 20.28L103.97 20.29L103.85 20.17Q104.16 22.92 102.76 25.59L102.77 25.60L102.87 25.70Q102.12 27.20 100.52 27.88L100.51 27.87L100.54 27.90Q104.10 28.49 104.33 33.86L104.26 33.79L104.37 33.90Q104.43 34.99 104.36 36.40L104.33 36.37L104.25 36.30Q104.33 37.74 103.40 38.68L103.43 38.71L103.36 38.64Q102.35 39.50 101.02 39.65L101.15 39.78L101.19 39.82Q99.64 39.83 98.57 39.83L98.63 39.89L98.51 39.77Q92.80 39.77 88.27 42.05ZM101.00 42.30L101.11 42.41L101.12 42.42Q102.00 42.42 103.87 42.54L104.01 42.67L104.00 42.66Q105.36 42.66 106.46 41.78L106.38 41.69L106.35 41.67Q107.21 40.81 107.09 39.25L107.14 39.30L107.11 39.26Q107.03 38.31 106.30 34.84L106.22 34.76L106.37 34.91Q105.57 31.56 103.71 30.08L103.69 30.06L103.37 29.33L103.32 29.27Q105.08 27.95 105.65 24.18L105.57 24.10L105.66 24.19Q105.76 22.99 105.68 21.58L105.69 21.59L105.63 21.54Q105.60 20.25 104.50 19.41L104.62 19.54L104.62 19.53Q104.13 19.15 104.01 19.11L104.13 19.23L104.14 19.24Q103.76 18.59 102.92 17.79L102.97 17.84L103.03 17.90Q101.40 16.73 97.17 16.54L97.27 16.63L97.18 16.55Q90.60 16.32 86.60 13.43L86.63 13.46L86.58 13.41Q89.96 20.52 90.26 28.05L90.28 28.07L90.12 27.91Q90.53 35.82 87.71 42.75L87.82 42.86L89.72 41.75L89.74 41.77Q89.38 42.94 88.89 44.08L88.89 44.08L88.87 44.06Q93.21 42.24 98.24 42.24L98.22 42.22L98.16 42.16Q99.56 42.15 101.01 42.30ZM98.93 31.81L99.02 31.91L98.88 31.76Q99.72 31.80 100.63 32.26L100.59 32.21L100.66 32.28Q100.64 32.49 100.79 33.56L100.84 33.61L100.96 33.72Q101.08 35.02 100.14 36.07L100.17 36.10L100.13 36.06Q99.19 37.09 97.78 36.98L97.73 36.93L96.37 37.17L96.28 37.08Q95.52 37.12 94.80 37.23L94.86 37.29L94.81 37.25Q95.13 35.43 95.21 31.97L95.12 31.89L95.24 32.00Q95.82 31.86 97.07 31.82L97.12 31.86L97.15 31.90Q98.26 31.72 98.87 31.75ZM97.95 22.27L97.89 22.20L98.24 22.17L98.25 22.18Q98.59 22.30 98.78 22.33L98.71 22.26L99.21 22.38L99.38 22.36L100.13 22.58L100.03 22.48Q100.21 22.81 100.21 23.11L100.09 23.00L100.13 23.57L100.22 23.66Q100.09 24.78 99.21 25.71L99.30 25.80L99.22 25.73Q98.33 26.64 97.11 26.64L97.21 26.74L97.16 26.69Q96.18 26.74 96.18 26.74L96.25 26.81L96.06 26.62Q94.84 26.70 95.19 26.70L95.20 26.72L95.10 26.61Q95.17 25.20 94.87 22.15L94.89 22.17L94.83 22.12Q96.47 22.30 97.99 22.30Z"/></svg>