<svg xmlns="http://www.w3.org/2000/svg" width="150" height="50" viewBox="0,0,150,50"><path fill="#333" d="M91.82 32.95L91.87 32.99L91.74 32.86Q94.82 32.48 98.01 32.59L98.05 32.62L98.07 32.64Q98.12 30.18 98.12 27.78L98.01 27.68L98.16 27.82Q98.16 25.35 98.35 22.80L98.31 22.76L98.24 22.69Q97.08 24.46 91.87 32.99ZM101.74 40.31L101.82 40.40L101.68 40.26Q100.14 40.09 98.35 40.01L98.31 39.96L98.29 39.94Q97.98 37.47 97.87 34.99L98.04 35.16L98.02 35.15Q92.55 34.82 87.83 36.23L87.96 36.35L88.00 36.40Q88.04 35.82 88.23 34.83L88.31 34.91L88.13 34.74Q90.03 31.68 93.60 25.40L93.52 25.32L93.60 25.40Q96.53 20.56 99.95 16.67L99.92 16.65L99.97 16.69Q100.76 16.41 102.43 16.14L102.49 16.20L102.52 16.23Q100.53 22.58 100.53 29.62L100.54 29.63L100.61 29.70Q100.61 31.18 100.68 32.67L100.69 32.68L101.97 32.78L101.88 32.69Q102.60 32.84 103.21 32.95L103.22 32.96L103.08 32.82Q103.30 33.92 103.57 35.86L103.62 35.91L103.48 35.77Q102.34 35.58 100.85 35.39L100.80 35.34L100.75 35.29Q100.95 37.28 101.64 40.21ZM103.43 32.52L103.49 32.59L103.33 32.43Q103.26 32.47 103.07 32.47L103.09 32.48L102.57 32.35L102.58 32.36Q102.53 30.93 102.53 29.53L102.51 29.51L102.61 29.61Q102.48 23.09 104.54 17.07L104.67 17.20L104.64 17.17Q103.75 17.31 102.30 17.69L102.41 17.80L102.42 17.81Q102.52 16.92 102.98 15.51L103.07 15.60L103.09 15.62Q101.67 15.88 99.62 16.11L99.78 16.27L99.80 16.29Q95.72 20.47 90.51 29.84L90.61 29.94L92.63 26.22L92.57 26.16Q92.19 27.22 91.92 27.79L92.05 27.92L87.54 36.88L87.48 36.83Q88.20 36.74 89.34 36.36L89.36 36.38L89.23 36.63L89.10 36.51Q89.01 37.21 88.71 38.47L88.77 38.53L88.83 38.60Q92.84 37.16 97.67 37.35L97.65 37.33L97.78 37.46Q97.74 38.33 97.93 40.31L97.91 40.29L97.85 40.23Q98.90 40.22 99.97 40.33L99.99 40.35L100.00 40.36Q100.28 41.18 100.55 42.55L100.51 42.51L100.44 42.43Q102.46 42.78 105.47 43.70L105.36 43.59L105.44 43.67Q104.39 41.48 103.48 38.21L103.47 38.20L104.98 38.72L104.97 38.71Q105.66 38.94 106.34 39.28L106.21 39.15L106.29 39.23Q105.50 36.72 105.35 35.05L105.32 35.02L105.40 35.10Q104.79 34.92 103.65 34.69L103.72 34.76L103.56 34.59Q103.39 33.36 103.39 32.48ZM95.40 32.34L95.46 32.39L95.31 32.25Q96.27 31.15 97.83 28.60L97.74 28.51L97.68 28.45Q97.76 29.49 97.73 30.44L97.71 30.42L97.78 30.49Q97.64 31.34 97.67 32.29L97.65 32.26L97.79 32.40Q97.07 32.22 96.50 32.22L96.65 32.36L96.67 32.39Q95.99 32.31 95.38 32.31Z"/><path fill="#222" d="M122.00 40.19L122.05 40.24L122.09 40.28Q120.21 40.19 118.54 40.76L118.41 40.63L118.45 40.67Q118.92 37.00 119.04 33.87L119.20 34.04L119.18 34.02Q119.15 30.83 118.93 27.18L118.92 27.18L118.99 27.24Q117.60 26.88 116.83 26.50L116.92 26.58L116.53 23.57L116.40 23.44Q117.19 24.11 118.79 24.68L118.88 24.77L118.75 24.64Q118.57 22.56 118.15 19.81L118.24 19.91L118.21 19.87Q120.51 20.58 122.15 20.42L121.98 20.26L121.95 24.95L121.93 24.93Q123.32 24.84 124.66 24.34L124.63 24.32L124.69 24.38Q124.57 25.21 124.34 26.96L124.52 27.14L124.48 27.10Q122.92 27.41 121.90 27.41L121.88 27.39L121.98 27.49Q121.82 29.50 121.82 33.77L121.79 33.73L121.81 33.76Q122.01 38.10 122.08 40.27ZM125.03 23.73L125.05 23.74L125.12 23.81Q124.80 23.88 124.19 24.11L124.15 24.07L124.71 21.47L124.54 21.29Q123.85 21.71 122.44 21.94L122.48 21.97L122.49 21.99Q122.42 21.23 122.57 19.86L122.53 19.81L122.59 19.88Q122.05 20.02 121.48 20.02L121.37 19.91L121.33 19.87Q119.22 19.90 117.58 19.17L117.61 19.20L117.54 19.13Q118.09 21.66 118.35 24.13L118.29 24.07L118.39 24.16Q117.47 23.79 115.95 22.76L115.92 22.73L115.90 22.70Q116.29 24.05 116.52 26.75L116.59 26.82L116.48 26.71Q117.04 27.05 118.22 27.46L118.25 27.49L118.26 27.51Q118.15 28.00 118.18 29.41L118.20 29.42L118.57 29.45L118.72 29.53L118.82 29.63Q118.78 30.76 118.78 31.94L118.85 32.02L118.76 31.93Q118.76 36.87 117.96 41.21L118.03 41.28L117.96 41.21Q118.17 41.12 120.11 40.58L120.04 40.52L120.17 40.64Q120.21 41.33 120.09 42.70L120.12 42.73L120.05 42.65Q120.93 42.66 121.73 42.66L121.64 42.57L121.72 42.65Q123.46 42.68 125.10 43.25L125.07 43.22L125.08 43.23Q123.69 37.46 123.88 29.54L123.81 29.48L126.34 29.22L126.21 29.09Q126.26 28.16 126.34 27.13L126.41 27.21L126.64 25.22L126.55 25.14Q126.03 25.45 124.85 25.90L124.95 26.00L124.90 25.96Q125.21 24.63 125.13 24.29L124.99 24.15L125.02 24.17Q125.02 23.98 125.09 23.79Z"/><path fill="#111" d="M32.37 23.03L32.32 22.98L32.46 23.13Q30.60 25.79 27.94 31.43L27.96 31.45L25.93 35.67L25.87 35.61Q25.00 37.51 23.66 39.76L23.68 39.78L23.66 39.76Q24.09 39.73 22.42 39.77L22.53 39.88L22.50 39.85Q22.50 39.85 21.24 39.85L21.28 39.89L21.16 39.76Q20.61 38.45 17.68 31.30L17.59 31.21L17.63 31.25Q15.44 25.86 13.34 22.85L13.36 22.87L13.31 22.82Q14.14 25.97 14.14 29.13L14.17 29.16L14.08 29.07Q14.05 35.55 11.08 41.10L11.11 41.13L11.04 41.07Q9.85 41.55 7.49 42.27L7.37 42.15L7.33 42.12Q11.02 36.44 11.02 29.21L11.16 29.35L11.07 29.26Q11.16 20.41 5.76 13.44L5.78 13.46L5.67 13.35Q7.42 14.18 9.78 14.87L9.74 14.83L9.70 14.79Q16.78 21.56 22.87 34.89L22.92 34.94L22.85 34.88Q26.44 27.95 28.65 24.45L28.46 24.26L28.64 24.44Q32.21 18.65 36.17 15.19L36.03 15.04L36.06 15.07Q37.29 14.82 39.65 14.05L39.80 14.21L39.78 14.19Q34.62 20.64 34.62 29.24L34.77 29.40L34.70 29.32Q34.65 35.93 38.07 41.45L38.10 41.48L38.06 41.44Q36.83 41.24 34.09 40.63L34.16 40.70L34.07 40.61Q31.78 35.88 31.78 29.91L31.69 29.82L31.65 29.78Q31.71 26.41 32.40 23.06ZM33.85 40.96L33.89 41.00L33.92 41.03Q34.60 41.14 36.05 41.41L35.94 41.29L36.07 41.42Q36.38 42.05 37.33 43.53L37.50 43.69L37.52 43.71Q39.56 44.05 43.03 45.26L43.11 45.34L43.09 45.33Q36.69 38.85 36.69 29.03L36.71 29.05L36.83 29.17Q36.73 21.34 41.11 15.21L41.04 15.15L38.90 15.90L39.01 16.00Q39.86 14.31 40.51 13.43L40.64 13.57L40.48 13.41Q38.67 14.10 36.04 14.63L36.11 14.71L36.03 14.63Q29.30 20.77 23.25 33.37L23.31 33.42L23.16 33.28Q18.00 22.33 13.05 17.08L13.22 17.25L13.08 17.10Q12.77 17.10 12.20 16.98L12.09 16.88L10.95 15.66L10.96 15.67Q10.42 15.06 9.74 14.45L9.79 14.50L9.63 14.34Q6.60 13.37 4.81 12.65L4.85 12.68L4.84 12.67Q10.75 19.80 10.75 29.21L10.83 29.28L10.95 29.40Q10.89 36.96 6.74 42.82L6.69 42.77L6.63 42.71Q7.41 42.58 8.71 42.16L8.74 42.19L8.66 42.11Q8.62 42.45 7.21 44.55L7.11 44.45L7.18 44.52Q9.02 44.07 12.52 43.31L12.40 43.19L12.35 43.14Q16.16 36.17 15.97 28.41L16.03 28.47L15.91 28.35Q17.44 32.35 20.90 40.23L20.91 40.24L20.93 40.26Q21.21 40.24 21.44 40.24L21.53 40.32L21.91 40.17L21.90 40.16Q22.44 40.93 23.23 42.22L23.31 42.30L23.29 42.28Q24.90 42.25 24.90 42.25L24.87 42.22L24.93 42.28Q25.80 42.12 26.45 42.20L26.48 42.23L26.44 42.20Q28.07 38.22 31.42 30.23L31.37 30.18L31.37 30.18Q31.19 35.56 33.78 40.89Z"/><path fill="#333" d="M57.14 23.14L57.10 23.09L56.98 22.98Q55.17 25.69 52.50 31.33L52.58 31.41L50.58 35.65L50.58 35.65Q49.69 37.54 48.36 39.79L48.46 39.88L48.39 39.82Q48.75 39.73 47.08 39.76L47.14 39.82L47.24 39.92Q47.09 39.78 45.84 39.78L45.93 39.87L45.93 39.87Q45.14 38.32 42.21 31.16L42.31 31.27L42.31 31.26Q40.10 25.86 38.01 22.85L37.92 22.76L38.05 22.89Q38.80 25.96 38.80 29.12L38.67 29.00L38.67 28.99Q38.80 35.63 35.83 41.19L35.70 41.06L35.82 41.19Q34.41 41.45 32.05 42.17L32.06 42.18L32.16 42.28Q35.88 36.63 35.88 29.40L35.77 29.29L35.77 29.30Q35.87 20.44 30.46 13.48L30.36 13.37L30.40 13.41Q32.02 14.12 34.38 14.81L34.35 14.77L34.39 14.82Q41.40 21.52 47.50 34.85L47.55 34.90L47.46 34.82Q50.94 27.79 53.15 24.28L53.30 24.43L53.15 24.29Q56.80 18.57 60.76 15.11L60.74 15.08L60.66 15.00Q62.03 14.89 64.39 14.13L64.42 14.16L64.38 14.12Q59.47 20.82 59.47 29.42L59.30 29.26L59.29 29.25Q59.37 35.99 62.80 41.51L62.78 41.50L62.91 41.62Q61.54 41.28 58.80 40.68L58.66 40.53L58.64 40.52Q56.43 35.86 56.43 29.88L56.31 29.77L56.34 29.80Q56.30 26.34 56.99 22.99ZM58.50 40.94L58.63 41.08L58.52 40.97Q59.14 41.01 60.59 41.28L60.68 41.37L60.71 41.40Q61.19 42.19 62.14 43.67L62.06 43.59L62.16 43.69Q64.18 44.00 67.64 45.21L67.65 45.22L67.66 45.23Q61.40 38.90 61.40 29.07L61.44 29.11L61.37 29.04Q61.35 21.30 65.73 15.17L65.87 15.30L63.57 15.90L63.60 15.93Q64.58 14.36 65.23 13.49L65.32 13.58L65.16 13.41Q63.31 14.07 60.68 14.61L60.71 14.63L60.69 14.62Q54.02 20.82 47.97 33.42L47.99 33.44L48.02 33.47Q42.81 22.47 37.86 17.22L37.82 17.18L37.85 17.21Q37.50 17.17 36.93 17.05L36.87 17.00L35.61 15.66L35.65 15.69Q34.98 14.95 34.30 14.34L34.46 14.51L34.35 14.39Q31.28 13.38 29.49 12.66L29.61 12.78L29.54 12.71Q35.57 19.95 35.57 29.36L35.42 29.21L35.51 29.30Q35.60 37.00 31.45 42.87L31.28 42.69L31.31 42.72Q32.09 42.59 33.39 42.17L33.36 42.15L33.43 42.22Q33.25 42.42 31.84 44.51L31.89 44.56L31.78 44.45Q33.70 44.08 37.20 43.32L37.04 43.16L37.08 43.20Q40.85 36.20 40.66 28.43L40.66 28.44L40.64 28.41Q42.10 32.34 45.56 40.22L45.56 40.23L45.70 40.37Q45.94 40.30 46.17 40.30L46.05 40.18L46.63 40.23L46.58 40.17Q47.18 41.01 47.98 42.30L47.82 42.14L47.81 42.13Q49.45 42.14 49.45 42.14L49.52 42.21L49.49 42.17Q50.59 42.25 51.24 42.33L51.17 42.25L51.13 42.22Q52.73 38.22 56.08 30.23L56.07 30.21L56.04 30.18Q56.04 35.74 58.63 41.07Z"/><path fill="#444" d="M75.23 30.83L75.38 30.99L75.33 30.93Q75.11 29.61 73.17 28.89L73.16 28.88L73.22 28.94Q72.72 28.74 72.18 28.74L72.28 28.83L72.22 28.78Q70.91 28.84 69.85 29.41L69.75 29.31L69.85 29.42Q68.39 30.05 68.50 31.27L68.55 31.31L68.45 31.21Q68.93 34.17 68.78 36.41L68.62 36.26L68.75 36.39Q68.47 38.70 67.75 41.21L67.83 41.29L67.88 41.34Q65.68 41.77 64.50 42.19L64.56 42.24L64.44 42.13Q66.05 38.52 66.05 34.53L66.14 34.61L66.19 34.66Q66.16 29.19 63.57 24.73L63.54 24.70L63.44 24.60Q64.82 25.26 67.22 25.99L67.10 25.87L67.24 26.01Q67.46 26.64 67.84 28.16L67.92 28.25L67.93 28.25Q69.17 26.08 73.06 26.15L73.00 26.09L73.03 26.12Q74.46 26.11 75.26 26.22L75.39 26.36L75.33 26.29Q78.28 26.66 78.36 28.68L78.31 28.63L78.41 28.73Q78.45 29.64 78.26 30.67L78.25 30.66L78.14 30.55Q77.69 33.07 77.88 36.08L77.98 36.18L77.90 36.09Q78.18 39.08 79.17 41.63L79.17 41.63L79.04 41.50Q77.31 41.06 75.60 40.91L75.72 41.04L75.68 41.00Q75.22 38.63 75.15 35.97L75.04 35.87L75.12 35.94Q75.03 33.19 75.26 30.87ZM75.35 41.39L75.21 41.25L75.21 41.25Q76.12 41.36 77.42 41.59L77.34 41.51L77.81 42.67L77.80 42.65Q77.91 43.08 78.14 43.61L78.26 43.73L78.14 43.60Q80.46 44.06 83.16 45.24L83.23 45.30L83.24 45.31Q80.87 42.19 80.19 38.38L80.04 38.24L80.10 38.29Q79.81 36.22 79.93 32.53L79.83 32.43L79.89 32.48Q79.99 32.29 80.03 31.49L79.97 31.43L79.95 31.41Q80.07 30.84 80.00 30.35L79.85 30.20L79.99 30.34Q79.78 28.58 78.68 28.08L78.67 28.07L78.75 28.15Q78.54 27.26 77.78 26.65L77.71 26.58L77.80 26.67Q76.03 25.58 72.98 25.66L73.09 25.76L72.98 25.66Q71.21 25.79 70.37 25.98L70.27 25.88L70.27 25.87Q68.83 26.23 67.88 27.14L67.97 27.23L68.01 27.27Q67.77 26.61 67.39 25.58L67.50 25.69L67.37 25.56Q64.71 25.04 62.89 24.05L62.88 24.05L62.76 23.92Q65.76 28.76 65.76 34.51L65.89 34.63L65.92 34.66Q65.90 39.02 63.99 42.86L63.93 42.80L63.95 42.82Q64.58 42.46 65.88 42.08L65.94 42.15L66.03 42.23Q65.52 43.48 64.99 44.47L64.87 44.35L64.98 44.45Q66.36 43.97 69.90 43.40L69.78 43.28L69.77 43.27Q70.84 38.21 70.73 33.38L70.67 33.32L70.77 33.42Q70.67 32.52 71.85 31.80L71.81 31.76L71.95 31.90Q72.83 31.10 73.93 30.98L73.97 31.02L74.00 31.05Q74.41 30.97 74.83 31.16L74.83 31.16L74.96 31.29Q74.78 33.81 74.82 36.36L74.67 36.21L74.76 36.31Q74.78 38.80 75.27 41.31Z"/></svg>