<svg xmlns="http://www.w3.org/2000/svg" width="150" height="50" viewBox="0,0,150,50"><path fill="#111" d="M21.10 27.70L20.99 27.59L21.06 27.65Q18.75 27.59 17.48 29.10L17.46 29.09L17.50 29.12Q16.24 30.64 16.13 32.93L16.22 33.02L16.20 32.99Q16.05 35.63 16.89 36.58L16.84 36.53L16.97 36.66Q17.99 37.84 20.32 37.69L20.23 37.60L20.35 37.72Q24.97 37.39 25.35 34.38L25.33 34.36L25.28 34.31Q25.50 33.62 25.50 32.82L25.50 32.82L25.50 32.82Q25.40 30.74 24.26 29.22L24.24 29.20L24.28 29.24Q22.88 27.50 20.94 27.54ZM25.96 37.81L25.94 37.79L25.78 37.63Q24.43 39.90 20.05 40.13L20.08 40.15L20.05 40.12Q15.76 40.18 14.13 39.07L14.15 39.09L14.18 39.12Q13.21 38.20 13.06 36.48L13.14 36.56L13.02 36.44Q13.01 35.37 13.20 33.50L13.22 33.52L13.23 33.53Q13.69 29.20 14.91 27.37L14.94 27.39L14.88 27.34Q16.66 25.01 20.50 25.04L20.36 24.90L20.55 25.09Q22.91 24.98 25.20 27.30L25.16 27.26L25.31 27.41Q25.33 21.50 26.93 14.99L26.93 14.99L27.04 15.09Q28.78 14.51 30.64 13.68L30.76 13.79L30.71 13.74Q28.02 20.26 27.75 27.27L27.82 27.34L27.92 27.43Q27.58 34.56 29.71 41.14L29.61 41.04L29.77 41.20Q27.98 40.44 26.27 40.06L26.39 40.18L26.41 40.20Q25.96 38.76 25.81 37.66ZM28.96 43.24L28.92 43.21L28.92 43.20Q30.92 43.68 33.47 45.20L33.59 45.33L33.52 45.25Q29.75 38.14 29.60 29.84L29.69 29.92L29.72 29.96Q29.61 21.78 32.70 14.40L32.67 14.37L32.68 14.38Q31.89 14.73 30.44 15.38L30.57 15.51L30.47 15.40Q30.90 14.35 31.50 13.13L31.48 13.11L31.43 13.05Q29.15 14.24 26.72 14.81L26.65 14.75L26.56 14.66Q25.26 20.59 24.99 26.68L24.86 26.55L24.99 26.67Q22.96 24.72 20.44 24.60L20.38 24.54L20.44 24.60Q17.02 24.49 15.11 26.58L15.22 26.69L15.08 26.55Q13.47 29.02 13.06 33.70L13.08 33.73L13.06 33.70Q12.77 36.42 12.77 36.84L12.66 36.73L12.71 36.78Q12.89 38.64 14.03 39.70L13.92 39.59L14.04 39.71Q14.18 39.85 14.37 39.93L14.29 39.84L14.85 40.59L14.86 40.60Q15.91 42.03 18.87 42.30L18.73 42.16L18.85 42.27Q20.97 42.33 22.34 42.41L22.38 42.45L22.28 42.35Q26.62 42.70 28.33 41.36L28.20 41.23L28.29 41.32Q28.52 42.12 28.97 43.26ZM22.67 29.95L22.71 29.99L22.53 29.81Q23.63 29.88 24.47 30.38L24.62 30.53L24.51 30.42Q25.00 31.71 25.07 32.73L25.14 32.81L25.04 32.70Q25.46 37.04 20.43 37.38L20.32 37.27L20.40 37.35Q19.52 37.38 18.42 37.12L18.45 37.15L18.28 36.98Q18.22 36.54 18.14 36.01L18.04 35.90L17.99 35.85Q17.93 35.19 17.97 34.58L18.01 34.62L18.01 34.62Q18.45 31.33 21.08 30.34L20.95 30.21L20.97 30.23Q21.90 29.83 22.59 29.87Z"/><path fill="#222" d="M48.81 32.11L39.51 22.05L39.65 22.18Q40.54 25.93 40.54 29.66L40.47 29.60L40.44 29.57Q40.54 35.64 38.48 41.20L38.43 41.14L38.48 41.19Q37.31 41.36 35.07 42.12L35.14 42.20L35.17 42.22Q37.99 36.44 37.99 29.74L37.82 29.58L37.81 29.56Q37.82 20.93 33.33 13.50L33.37 13.55L33.45 13.63Q33.74 13.65 34.42 14.07L34.44 14.09L34.49 14.13Q46.69 25.46 54.53 34.71L54.43 34.61L54.43 34.60Q54.24 32.28 54.24 29.85L54.11 29.72L54.23 29.84Q54.06 22.44 56.58 16.23L56.67 16.32L56.71 16.36Q58.95 15.75 60.54 15.06L60.67 15.19L60.65 15.17Q57.28 21.28 56.97 28.43L57.05 28.51L56.95 28.41Q56.68 35.79 59.65 41.96L59.58 41.89L59.55 41.86Q59.03 41.83 58.61 41.64L58.55 41.58L58.64 41.67Q54.15 37.79 48.94 32.24L48.87 32.17ZM62.22 45.10L62.20 45.08L62.26 45.14Q62.72 45.30 63.14 45.49L63.21 45.56L63.92 45.77L64.00 45.86Q58.83 38.89 58.83 29.53L58.84 29.54L58.80 29.50Q58.79 22.26 62.10 16.01L62.15 16.06L62.21 16.12Q61.45 16.23 60.04 16.84L60.08 16.88L60.08 16.88Q60.50 16.09 61.34 14.53L61.27 14.46L61.29 14.48Q58.77 15.31 56.34 15.88L56.45 16.00L56.40 15.95Q53.78 22.43 53.78 29.85L53.81 29.88L53.79 29.86Q53.73 31.66 53.92 33.64L53.90 33.62L53.91 33.63Q49.31 28.00 44.55 23.40L44.50 23.34L34.40 13.63L34.52 13.75Q33.91 13.40 32.69 12.83L32.68 12.82L32.67 12.81Q37.62 20.62 37.62 29.71L37.58 29.67L37.62 29.72Q37.63 36.84 34.54 42.86L34.44 42.75L34.42 42.73Q34.75 42.64 36.38 42.03L36.43 42.08L36.46 42.10Q36.08 42.83 35.24 44.31L35.31 44.38L35.17 44.25Q36.68 43.89 40.14 43.09L40.12 43.06L40.00 42.94Q42.46 36.96 42.46 29.76L42.32 29.62L42.47 29.77Q42.45 27.66 42.23 25.53L42.14 25.44L42.08 25.38Q53.67 38.30 62.28 45.16Z"/><path fill="#222" d="M72.75 40.28L72.73 40.26L72.70 40.23Q70.76 40.07 69.08 40.64L69.15 40.71L69.06 40.62Q69.75 37.16 69.87 34.04L69.82 33.99L69.70 33.87Q69.85 30.86 69.62 27.21L69.70 27.29L69.72 27.31Q68.21 26.82 67.45 26.44L67.46 26.46L67.07 23.44L67.10 23.47Q67.86 24.12 69.46 24.69L69.55 24.78L69.46 24.68Q69.29 22.61 68.87 19.87L68.75 19.75L68.77 19.77Q71.01 20.41 72.65 20.26L72.76 20.38L72.70 25.03L72.63 24.96Q73.98 24.83 75.31 24.33L75.42 24.44L75.46 24.48Q75.34 25.31 75.11 27.06L75.02 26.98L75.10 27.05Q73.56 27.38 72.53 27.38L72.47 27.32L72.63 27.48Q72.51 29.53 72.51 33.79L72.61 33.89L72.47 33.75Q72.63 38.06 72.71 40.23ZM75.77 23.80L75.88 23.91L75.86 23.89Q75.60 24.01 74.99 24.24L74.94 24.19L75.32 21.41L75.27 21.36Q74.48 21.67 73.07 21.90L73.10 21.93L73.11 21.94Q73.04 21.19 73.20 19.82L73.18 19.80L73.23 19.85Q72.62 19.93 72.05 19.93L72.04 19.92L72.02 19.90Q69.93 19.94 68.30 19.22L68.37 19.29L68.25 19.18Q68.70 21.61 68.97 24.08L69.13 24.24L69.11 24.23Q68.25 23.89 66.72 22.86L66.59 22.73L66.72 22.86Q67.05 24.14 67.28 26.84L67.16 26.72L67.31 26.87Q67.74 27.07 68.92 27.49L68.76 27.34L68.89 27.47Q68.91 28.09 68.95 29.50L68.98 29.54L69.33 29.55L69.40 29.54L69.35 29.49Q69.53 30.85 69.53 32.03L69.43 31.93L69.49 31.99Q69.39 36.84 68.59 41.18L68.60 41.19L68.61 41.20Q68.90 41.18 70.84 40.64L70.70 40.51L70.78 40.58Q70.78 41.23 70.66 42.60L70.69 42.63L70.74 42.68Q71.52 42.58 72.32 42.58L72.35 42.62L72.42 42.68Q74.06 42.61 75.70 43.18L75.66 43.14L75.59 43.08Q74.31 37.41 74.50 29.50L74.50 29.50L77.02 29.23L76.84 29.06Q76.98 28.20 77.05 27.18L77.04 27.16L77.26 25.17L77.21 25.13Q76.75 25.50 75.57 25.96L75.61 26.00L75.53 25.92Q75.76 24.51 75.68 24.17L75.65 24.14L75.79 24.28Q75.75 24.05 75.83 23.86Z"/><path fill="#222" d="M99.98 29.47L99.97 29.46L100.10 29.59Q98.77 28.68 98.12 28.72L98.21 28.80L98.25 28.85Q96.83 28.87 95.78 29.88L95.71 29.81L95.73 29.83Q94.79 30.94 94.90 32.31L94.80 32.22L94.77 32.18Q95.06 36.51 94.19 41.04L94.30 41.15L94.33 41.19Q92.00 41.52 90.90 42.05L90.90 42.06L90.89 42.05Q92.50 37.98 92.27 33.52L92.23 33.49L92.26 33.52Q91.89 28.88 90.17 24.81L90.24 24.87L90.27 24.91Q91.44 25.61 93.72 26.26L93.66 26.20L94.22 28.89L94.20 28.87Q94.89 25.99 99.16 25.99L99.21 26.04L99.24 26.07Q99.62 25.99 99.92 25.99L99.92 25.99L99.82 25.89Q101.17 25.95 102.43 26.63L102.51 26.71L102.36 26.56Q101.19 28.05 100.05 29.54ZM101.53 31.40L101.74 31.46L101.64 31.36Q102.61 30.27 104.28 27.84L104.29 27.84L104.29 27.84Q103.84 27.51 102.32 27.24L102.38 27.31L102.22 27.14Q102.59 26.87 103.05 26.26L103.12 26.33L103.16 26.37Q101.12 25.32 99.18 25.51L99.21 25.54L99.15 25.48Q97.26 25.73 96.54 25.99L96.56 26.02L96.50 25.96Q95.14 26.42 94.34 27.52L94.40 27.58L94.19 26.73L94.04 25.93L93.90 25.79Q91.59 25.46 89.61 24.13L89.54 24.06L89.61 24.13Q91.75 28.51 91.97 33.38L92.05 33.46L91.90 33.31Q92.12 38.21 90.37 42.74L90.54 42.91L90.37 42.75Q91.58 42.40 92.46 42.09L92.41 42.04L92.32 41.95Q92.10 43.10 91.60 44.16L91.63 44.19L91.57 44.14Q94.46 43.33 96.60 43.22L96.56 43.19L96.90 38.80L96.73 38.63Q97.01 36.55 97.01 34.30L96.94 34.24L96.99 34.29Q96.86 32.98 97.78 32.01L97.84 32.07L97.83 32.06Q98.70 31.04 99.84 30.97L99.92 31.05L99.85 30.98Q100.58 30.94 101.30 31.63L101.26 31.59L101.68 31.55ZM96.68 29.75L96.74 29.74L96.68 29.79L96.56 29.63Z"/><path fill="#111" d="M129.16 30.37L129.16 30.37L129.02 30.23Q129.32 30.04 129.28 29.62L129.26 29.60L129.19 29.52Q129.08 29.11 128.78 28.92L128.87 29.01L128.84 28.99Q128.09 28.39 127.22 28.54L127.26 28.59L127.22 28.54Q126.16 28.55 124.52 29.65L124.44 29.58L124.53 29.66Q123.18 30.63 123.18 31.81L123.20 31.84L123.15 31.79Q123.08 32.97 123.08 36.29L123.17 36.37L123.04 36.24Q123.15 38.94 123.30 40.96L123.12 40.78L123.26 40.92Q121.56 40.93 121.56 40.93L121.55 40.92L121.51 40.88Q120.60 40.92 119.88 41.00L119.81 40.93L119.80 40.92Q120.20 38.39 120.28 36.14L120.21 36.07L120.33 36.20Q120.50 31.57 119.85 30.27L119.69 30.12L119.89 30.31Q119.53 29.65 118.96 29.34L118.92 29.31L118.95 29.33Q118.13 28.62 116.56 28.51L116.50 28.45L116.65 28.60Q114.55 28.29 114.02 29.89L113.94 29.81L114.00 29.87Q113.76 30.27 113.87 30.77L113.91 30.80L114.02 30.91Q114.60 33.59 114.26 36.37L114.25 36.36L114.35 36.45Q114.03 39.27 112.63 41.70L112.53 41.61L112.66 41.73Q111.58 41.84 109.49 42.26L109.47 42.24L109.41 42.18Q111.91 38.93 111.91 34.63L111.95 34.67L111.97 34.69Q111.90 28.75 107.86 24.53L107.87 24.54L107.96 24.62Q108.72 24.93 109.67 25.16L109.60 25.08L111.36 25.52L111.41 25.56Q111.79 26.10 112.67 27.77L112.75 27.85L112.71 27.82Q112.92 25.97 115.36 25.93L115.30 25.87L115.22 25.79Q115.37 25.76 116.36 25.83L116.52 25.99L116.53 26.00Q121.52 26.30 122.66 29.12L122.53 28.99L122.59 29.05Q124.33 26.42 129.36 25.88L129.27 25.79L129.39 25.91Q130.15 25.81 131.03 25.92L130.90 25.80L130.93 25.82Q133.18 26.05 133.02 27.61L133.04 27.62L133.01 27.60Q132.84 28.15 132.57 28.91L132.69 29.03L132.57 28.91Q131.33 32.09 131.56 35.63L131.53 35.59L131.40 35.47Q131.64 38.98 133.54 41.79L133.52 41.77L133.60 41.85Q131.91 41.50 130.09 41.27L130.12 41.31L130.01 41.20Q128.80 38.65 128.61 35.87L128.73 35.99L128.57 35.84Q128.57 33.16 129.21 30.42ZM129.78 41.57L129.77 41.56L129.78 41.57Q130.52 41.66 131.85 41.85L131.97 41.97L131.95 41.95Q132.53 42.72 133.67 44.13L133.66 44.12L133.56 44.02Q136.51 44.61 138.60 45.26L138.63 45.28L138.50 45.15Q133.54 41.29 133.27 34.78L133.32 34.83L133.38 34.89Q133.27 32.77 133.88 30.86L133.84 30.83L133.93 30.92Q134.03 29.91 134.03 29.19L134.06 29.22L134.01 29.17Q134.14 28.39 133.53 27.81L133.42 27.70L133.50 27.74L133.49 27.73Q133.50 27.18 133.43 26.68L133.42 26.67L133.34 26.59Q133.35 26.18 132.89 25.92L132.94 25.96L132.77 25.79Q132.14 25.36 131.27 25.32L131.38 25.43L131.27 25.32Q128.40 25.19 125.73 26.14L125.71 26.12L125.83 26.24Q123.91 26.99 122.73 28.40L122.59 28.25L122.70 28.37Q121.12 25.87 116.29 25.53L116.24 25.48L116.29 25.53Q115.48 25.37 115.07 25.37L115.24 25.54L115.07 25.37Q113.17 25.53 112.56 26.79L112.47 26.70L112.47 26.70Q112.12 26.16 111.43 25.09L111.54 25.20L111.54 25.20Q109.10 24.70 107.12 24.05L107.11 24.04L107.01 23.94Q111.71 28.38 111.71 34.66L111.69 34.63L111.65 34.59Q111.76 39.42 108.90 42.89L108.84 42.83L108.92 42.90Q109.36 42.74 109.86 42.66L109.81 42.62L110.64 42.30L110.71 42.37Q110.01 43.43 108.91 44.65L108.95 44.69L109.00 44.74Q110.59 44.38 113.71 43.78L113.77 43.84L113.77 43.84Q116.32 39.61 116.32 34.70L116.36 34.74L116.38 34.76Q116.42 34.00 116.34 33.16L116.19 33.01L116.24 33.06Q116.22 32.36 117.21 31.56L117.29 31.64L117.24 31.62L117.17 31.55Q117.79 31.10 118.97 30.99L118.90 30.93L118.92 30.94Q119.42 31.02 119.72 31.02L119.66 30.96L119.78 31.27L119.83 31.32Q120.06 33.98 119.95 36.34L119.95 36.35L119.96 36.36Q119.79 38.59 119.30 41.26L119.28 41.23L119.37 41.33Q120.37 41.30 120.37 41.30L120.32 41.25L120.46 41.39Q121.80 41.29 121.46 41.29L121.41 41.23L121.38 41.21Q121.41 41.73 121.37 42.19L121.39 42.20L121.41 42.22Q121.44 42.75 121.44 43.24L121.43 43.24L123.81 43.14L123.81 43.14Q125.03 43.11 126.29 43.18L126.40 43.30L126.31 43.20Q124.94 39.66 125.13 33.73L124.97 33.56L125.01 33.60Q125.18 32.64 126.36 31.87L126.32 31.83L126.19 31.70Q127.19 30.98 128.44 30.79L128.37 30.72L128.79 30.84L128.76 30.80Q128.35 32.76 128.35 34.74L128.34 34.73L128.36 34.75Q128.28 38.43 129.80 41.59ZM124.39 30.17L124.50 30.05L124.28 30.17L124.40 30.18Z"/></svg>