<svg xmlns="http://www.w3.org/2000/svg" width="150" height="50" viewBox="0,0,150,50"><path fill="#333" d="M15.00 41.05L15.12 41.17L15.11 41.16Q18.16 36.79 24.86 28.87L24.91 28.92L24.83 28.84Q19.09 29.22 15.32 27.85L15.27 27.80L15.32 27.86Q14.56 26.33 13.80 24.92L13.85 24.97L13.74 24.87Q17.99 26.53 22.45 26.57L22.34 26.46L22.33 26.45Q26.77 26.47 30.95 25.41L31.08 25.53L30.96 25.41Q30.68 26.20 30.41 26.73L30.36 26.67L30.23 26.54Q27.87 28.95 25.05 32.56L24.91 32.41L20.14 38.76L20.09 38.72Q22.33 38.52 24.57 38.59L24.58 38.60L24.60 38.62Q26.82 38.70 29.06 39.08L28.98 39.00L28.96 38.98Q29.05 39.53 29.77 41.55L29.90 41.67L29.95 41.73Q26.08 40.75 22.08 40.86L22.22 40.99L22.11 40.89Q18.14 40.99 14.49 42.18L14.54 42.23L14.45 42.13Q14.55 42.01 15.01 41.06ZM13.90 42.76L13.93 42.79L13.87 42.73Q14.79 42.55 16.39 42.14L16.39 42.14L16.27 42.01Q16.07 42.27 15.65 42.69L15.71 42.75L15.74 42.78Q15.49 43.33 14.88 44.47L14.86 44.44L14.81 44.40Q19.56 43.10 24.55 43.25L24.56 43.26L24.50 43.20Q29.46 43.36 34.03 45.23L33.98 45.18L34.08 45.28Q32.70 43.48 31.78 41.42L31.70 41.35L31.77 41.41Q30.98 41.08 29.92 40.85L29.93 40.87L29.84 40.78Q29.67 40.07 29.29 38.62L29.22 38.56L29.26 38.60Q27.69 38.25 24.12 38.14L24.10 38.12L24.17 38.19Q26.50 34.80 31.52 28.45L31.64 28.57L31.62 28.55Q31.84 27.78 32.53 26.45L32.55 26.47L30.21 27.17L30.24 27.20Q30.33 27.14 30.48 27.02L30.39 26.94L30.75 26.91L30.58 26.74Q31.14 25.78 31.71 24.83L31.66 24.77L31.66 24.78Q26.99 26.12 22.27 26.05L22.40 26.18L22.38 26.16Q17.59 26.09 13.10 24.26L13.02 24.19L13.02 24.18Q14.29 26.14 15.09 28.20L14.98 28.09L14.93 28.04Q15.76 28.33 16.82 28.60L16.96 28.73L16.94 28.72Q17.01 29.28 17.32 30.73L17.43 30.84L17.42 30.83Q19.01 31.09 22.33 31.24L22.36 31.28L22.36 31.28Q19.90 34.53 14.73 40.97L14.71 40.95L14.75 40.99Q14.50 41.58 13.93 42.80Z"/><path fill="#222" d="M70.86 29.76L70.82 29.72L70.91 29.81Q66.66 29.55 66.08 32.60L66.01 32.53L65.98 32.49Q65.95 33.72 66.14 34.59L66.14 34.60L66.03 34.49Q66.02 35.23 66.48 36.64L66.60 36.77L66.42 36.59Q67.63 39.89 70.95 39.74L70.93 39.73L70.91 39.71Q73.00 39.86 74.33 38.30L74.25 38.21L74.35 38.31Q75.57 36.83 75.57 34.77L75.42 34.62L75.49 34.69Q75.63 34.11 75.48 33.05L75.50 33.06L75.43 33.00Q75.33 32.06 74.91 31.37L74.94 31.41L74.99 31.45Q73.50 29.93 70.92 29.81ZM75.62 48.15L75.70 48.22L75.67 48.20Q73.84 48.76 65.77 49.15L65.68 49.06L65.81 49.18Q64.05 49.18 62.41 48.34L62.49 48.42L62.48 48.40Q63.22 47.36 65.04 45.57L65.17 45.69L65.11 45.63Q67.49 46.64 69.58 46.45L69.67 46.54L69.56 46.42Q72.50 46.21 73.34 45.95L73.27 45.87L73.35 45.95Q75.51 45.19 75.51 43.40L75.63 43.52L75.57 43.45Q75.67 43.33 75.60 43.10L75.45 42.95L75.41 41.43L75.36 41.38Q75.42 40.68 75.42 39.88L75.38 39.84L75.33 39.78Q74.02 42.09 70.63 42.09L70.68 42.15L70.60 42.06Q66.79 42.13 65.15 39.92L65.01 39.79L65.18 39.96Q64.01 38.36 63.21 33.95L63.29 34.03L63.16 33.90Q62.99 32.51 62.99 31.10L62.90 31.01L62.94 31.05Q62.99 29.31 63.90 28.32L63.85 28.27L63.76 28.18Q65.54 26.88 70.19 26.88L70.04 26.73L71.87 27.00L71.91 27.04Q75.05 27.33 76.39 29.27L76.36 29.25L76.47 29.35Q76.54 28.40 76.96 26.76L76.95 26.75L77.04 26.84Q78.89 26.49 80.64 25.76L80.54 25.66L80.55 25.66Q78.02 31.89 78.02 39.13L78.01 39.12L77.87 38.97Q77.89 41.66 78.27 44.29L78.41 44.43L78.41 44.42Q78.59 45.10 78.51 45.79L78.51 45.79L78.40 45.67Q78.30 47.13 77.08 47.89L77.09 47.90L77.10 47.91Q76.47 48.04 75.63 48.16ZM78.67 51.16L78.74 51.23L78.61 51.10Q80.10 51.18 80.86 50.23L80.97 50.34L80.98 50.35Q81.31 49.38 81.19 48.66L81.19 48.66L81.19 48.66Q81.04 47.98 80.85 47.21L80.82 47.18L80.89 47.25Q79.68 42.04 80.02 36.79L79.92 36.68L79.97 36.74Q80.20 31.19 82.34 26.35L82.42 26.43L80.41 27.47L80.34 27.40Q80.57 26.79 80.80 26.22L80.76 26.18L81.39 25.17L81.28 25.06Q78.88 25.97 76.67 26.39L76.81 26.54L76.69 26.41Q76.52 27.42 76.36 28.45L76.28 28.37L76.19 28.27Q74.06 26.33 70.02 26.33L70.09 26.40L68.43 26.49L68.35 26.41Q65.13 26.43 63.46 27.84L63.49 27.87L63.44 27.82Q62.44 28.73 62.48 30.63L62.61 30.76L62.59 30.74Q62.72 33.30 63.74 37.57L63.72 37.54L63.67 37.49Q64.09 39.36 65.31 40.77L65.37 40.83L65.53 40.99L65.62 41.08L65.59 41.05Q66.86 43.50 69.45 44.04L69.47 44.06L69.51 44.09Q70.91 44.39 72.35 44.42L72.30 44.38L72.29 44.36Q73.99 44.35 75.05 43.97L75.00 43.91L75.02 43.93Q74.53 45.61 71.86 45.95L71.79 45.88L71.76 45.85Q70.81 46.12 70.13 46.12L70.04 46.03L69.76 46.13L69.78 46.15Q66.83 46.02 65.16 45.07L65.15 45.06L63.56 46.90L63.48 46.82Q62.56 47.57 61.72 48.53L61.83 48.64L61.81 48.62Q62.79 49.14 63.78 49.33L63.86 49.41L62.82 50.12L62.88 50.17Q65.61 51.27 71.24 51.27L71.30 51.33L71.44 51.24L71.50 51.30Q75.13 51.31 78.71 51.20ZM72.66 31.97L72.70 32.02L72.81 32.13Q74.11 32.05 75.02 32.47L74.87 32.32L74.95 32.40Q75.21 32.97 75.29 33.65L75.17 33.54L75.15 33.51Q75.14 33.78 75.11 34.69L75.23 34.82L75.18 34.77Q75.19 36.76 74.09 38.05L74.08 38.04L73.97 37.94Q72.83 39.38 70.92 39.34L70.93 39.34L70.84 39.26Q69.56 39.34 68.72 38.92L68.57 38.78L68.75 38.95Q68.33 37.78 68.30 36.75L68.29 36.75L68.28 36.74Q68.14 32.37 72.75 32.07Z"/><path fill="#222" d="M87.50 38.88L87.61 38.99L87.58 38.97Q89.33 36.45 94.09 29.18L94.18 29.27L94.13 29.22Q98.30 23.15 101.15 19.87L101.18 19.90L101.09 19.80Q99.02 20.14 96.92 20.14L96.84 20.06L96.96 20.17Q91.58 20.05 87.59 18.26L87.72 18.39L87.75 18.42Q86.89 16.31 86.21 14.75L86.26 14.80L86.22 14.76Q90.82 16.97 96.49 17.08L96.57 17.15L96.49 17.08Q101.65 17.18 106.83 15.27L106.79 15.23L106.92 15.36Q106.55 16.20 106.24 17.00L106.07 16.84L105.56 18.49L105.51 18.45Q102.55 22.18 98.55 28.01L98.47 27.93L95.26 32.86L95.22 32.82Q93.63 35.34 91.80 37.62L91.78 37.61L91.75 37.58Q94.94 36.85 98.26 36.92L98.35 37.02L98.33 36.99Q101.69 37.12 104.84 38.03L104.91 38.09L105.28 39.57L105.24 39.53Q105.64 40.50 105.98 41.34L105.81 41.17L105.93 41.29Q101.23 39.66 96.09 39.85L96.02 39.79L96.09 39.86Q90.95 40.04 86.45 42.06L86.39 42.00L86.41 42.01Q86.83 40.99 87.55 38.93ZM85.97 42.88L85.85 42.75L85.81 42.71Q87.08 42.16 87.88 41.89L87.93 41.94L87.81 41.82Q87.59 42.62 86.90 44.15L87.01 44.26L86.97 44.21Q92.74 42.14 98.71 42.37L98.64 42.30L98.54 42.20Q105.00 42.56 110.02 45.34L109.96 45.28L109.92 45.24Q108.53 42.86 107.73 40.69L107.86 40.82L107.79 40.75Q107.23 40.46 105.71 39.89L105.71 39.88L105.79 39.96Q105.65 39.25 105.23 37.77L105.10 37.64L105.12 37.66Q101.04 36.55 95.94 36.74L95.91 36.71L95.98 36.78Q98.05 33.98 101.59 28.42L101.47 28.30L101.62 28.45Q105.12 22.58 107.02 20.03L107.19 20.20L107.04 20.05Q107.53 18.63 108.55 15.93L108.61 15.99L108.55 15.92Q107.90 16.30 106.45 16.91L106.51 16.97L106.46 16.92Q106.84 16.16 107.57 14.64L107.57 14.64L107.63 14.70Q102.15 16.68 96.44 16.61L96.59 16.75L96.59 16.75Q90.51 16.54 85.56 14.03L85.69 14.16L85.55 14.02Q86.84 16.53 87.57 18.77L87.45 18.65L87.55 18.76Q88.64 19.27 89.44 19.50L89.41 19.47L89.39 19.46Q89.65 20.14 89.92 21.58L89.96 21.62L90.00 21.67Q93.68 22.68 98.55 22.49L98.55 22.48L98.56 22.50Q96.13 25.66 92.82 30.65L92.83 30.66L87.30 38.99L87.35 39.04Q86.95 40.28 85.93 42.83Z"/><path fill="#333" d="M114.28 47.09L114.23 47.04L114.35 47.16Q113.39 47.34 111.48 47.64L111.46 47.62L111.46 47.61Q112.71 45.40 113.73 44.11L113.70 44.07L113.76 44.13Q115.49 44.41 115.64 44.41L115.60 44.38L115.64 44.42Q115.94 44.49 116.48 44.37L116.41 44.30L116.46 44.35Q117.12 44.26 117.31 44.26L117.27 44.22L117.28 44.22Q119.84 43.96 119.76 41.79L119.82 41.85L119.75 41.78Q119.87 40.46 119.76 34.22L119.71 34.17L119.59 34.05Q119.71 30.67 119.79 26.52L119.76 26.49L121.17 26.31L121.20 26.33Q121.81 26.18 122.49 25.95L122.40 25.85L122.38 25.83Q122.19 30.30 122.23 34.67L122.19 34.63L122.32 34.76Q122.25 39.03 122.78 43.41L122.94 43.56L122.79 43.42Q123.01 43.86 123.01 44.13L122.92 44.04L122.83 43.95Q122.91 45.67 121.24 46.05L121.22 46.03L121.26 46.08Q118.21 46.53 114.37 47.17ZM121.02 22.84L118.91 19.74L118.86 19.69Q120.01 18.40 121.84 15.63L121.77 15.55L121.83 15.62Q122.50 16.52 123.83 18.34L123.72 18.23L121.13 22.94ZM124.03 49.46L124.05 49.47L124.08 49.50Q124.57 49.49 125.33 49.15L125.38 49.21L125.44 49.27Q125.64 48.44 125.64 47.98L125.64 47.98L125.74 48.08Q125.72 47.71 125.60 47.10L125.61 47.11L125.46 46.96Q124.15 40.58 124.15 32.66L124.19 32.71L124.12 32.64Q124.25 29.91 124.40 27.02L124.38 27.00L124.27 26.89Q123.87 27.21 122.72 27.51L122.72 27.51L122.68 27.47Q122.66 26.95 122.70 26.42L122.82 26.54L122.93 25.47L122.74 25.28Q121.08 25.98 119.29 26.02L119.39 26.12L119.37 26.10Q119.25 30.36 119.29 33.93L119.32 33.96L119.40 41.77L119.36 41.73Q119.56 43.84 117.39 43.95L117.26 43.83L117.33 43.90Q117.20 44.00 116.69 44.05L116.53 43.89L116.60 43.97Q116.06 44.00 115.80 44.00L115.77 43.97L115.90 44.10Q115.36 44.02 113.80 43.60L113.87 43.67L113.73 43.53Q113.22 44.09 112.12 45.76L112.24 45.88L110.72 48.21L110.70 48.19Q111.58 48.00 113.22 47.62L113.15 47.56L112.78 48.37L112.14 48.90L112.29 49.06Q114.49 48.82 115.82 48.89L115.93 49.00L115.74 48.81Q118.05 48.99 123.99 49.41ZM121.08 23.66L121.00 23.58L121.37 23.07L121.31 23.02Q121.70 23.48 122.65 25.08L122.75 25.17L122.66 25.09Q124.31 22.09 125.87 19.01L125.82 18.96L125.86 19.00Q124.87 17.40 123.92 16.10L123.83 16.02L123.85 16.04Q123.54 16.15 123.20 16.68L123.33 16.81L123.34 16.82Q122.81 16.06 121.82 14.76L121.93 14.88L121.81 14.76Q120.75 16.48 118.43 19.83L118.30 19.70L118.45 19.86Q119.31 21.02 121.03 23.61Z"/><path fill="#333" d="M55.32 23.32L55.24 23.24L55.29 23.28Q53.68 19.31 47.47 19.50L47.34 19.37L47.34 19.37Q42.87 19.44 40.89 20.88L41.03 21.02L40.88 20.87Q38.50 22.63 38.50 26.74L38.67 26.92L38.59 28.70L38.49 28.60Q38.48 37.43 47.50 37.43L47.59 37.52L47.69 37.61Q49.73 37.60 51.21 36.80L51.23 36.82L51.16 36.74Q52.93 35.66 52.78 33.79L52.82 33.83L52.74 33.76Q52.67 31.79 48.98 30.87L48.90 30.79L47.06 30.89L47.04 30.87Q45.98 30.76 45.03 30.80L45.11 30.89L45.15 30.93Q45.18 30.00 45.14 28.10L44.96 27.92L44.97 27.93Q52.77 28.07 56.95 27.73L56.82 27.60L56.82 27.59Q56.85 28.50 56.85 29.30L56.86 29.31L56.90 29.35Q56.93 30.17 56.96 30.97L56.84 30.85L56.91 30.92Q55.76 30.87 55.76 30.87L55.72 30.83L55.88 30.99Q54.45 30.93 54.83 30.93L54.81 30.92L54.77 30.88Q55.92 32.56 56.30 34.54L56.25 34.49L56.31 34.54Q56.36 35.21 56.36 35.67L56.38 35.69L56.36 35.66Q56.30 40.25 47.51 40.25L47.48 40.22L47.65 40.39Q40.44 40.30 37.85 38.21L37.88 38.23L37.91 38.27Q35.92 35.89 35.92 30.83L35.94 30.85L35.91 30.82Q35.94 29.79 35.79 27.09L35.82 27.12L35.75 27.05Q35.56 24.64 35.60 23.27L35.51 23.19L35.70 23.38Q35.74 20.45 37.11 18.85L37.13 18.87L37.09 18.83Q39.65 16.78 44.52 16.59L44.48 16.55L47.09 16.42L47.09 16.41Q50.24 16.37 53.67 16.79L53.73 16.85L53.75 16.87Q57.55 17.40 58.50 20.64L58.47 20.60L58.35 20.49Q57.38 21.45 55.28 23.28ZM56.69 25.49L56.74 25.42L56.76 25.44Q57.93 24.32 59.79 22.34L59.92 22.47L59.95 22.50Q59.56 21.46 58.57 19.75L58.58 19.76L58.62 19.80Q57.33 17.03 53.53 16.38L53.65 16.50L53.63 16.49Q51.52 16.40 47.22 16.09L47.18 16.05L44.51 16.20L44.42 16.11Q39.36 16.41 36.77 18.39L36.63 18.25L36.63 18.26Q35.38 20.01 35.26 23.09L35.17 23.00L35.17 23.00Q35.18 22.56 35.41 28.04L35.43 28.06L35.46 28.09Q35.58 29.54 35.66 32.28L35.49 32.11L35.54 32.16Q35.67 36.56 37.42 38.50L37.50 38.58L37.51 38.59Q37.99 39.53 38.87 40.40L38.73 40.27L38.76 40.30Q41.69 42.20 47.21 42.54L47.12 42.45L50.10 42.73L50.11 42.74Q51.65 42.79 53.67 42.68L53.72 42.73L53.72 42.73Q55.07 42.55 57.16 42.02L57.22 42.08L57.30 42.16Q59.24 41.67 59.21 39.35L59.09 39.23L59.17 39.31Q59.21 38.10 58.15 35.32L58.06 35.23L58.06 35.23Q57.68 34.24 57.14 33.44L57.28 33.57L57.15 33.45Q57.89 33.61 59.07 33.80L58.94 33.67L59.08 33.81Q58.76 30.18 58.80 29.49L58.80 29.50L58.67 29.37Q58.46 29.54 58.04 29.50L57.92 29.38L57.92 29.38Q57.60 29.40 57.22 29.48L57.16 29.42L57.15 29.40Q57.10 28.26 57.18 27.19L57.33 27.35L57.19 27.20Q51.08 27.87 44.80 27.76L44.64 27.60L44.75 27.71Q44.74 28.57 44.74 29.49L44.69 29.43L44.70 31.20L44.78 31.28Q45.19 31.30 45.61 31.27L45.63 31.29L45.54 31.20Q45.90 31.14 46.35 31.14L46.50 31.29L46.45 31.23Q46.40 31.64 46.44 32.14L46.54 32.23L46.53 32.23Q46.38 32.53 46.34 33.03L46.49 33.18L46.41 33.10Q47.57 33.20 48.60 33.16L48.55 33.10L48.46 33.01Q49.54 33.07 50.57 33.11L50.56 33.10L50.57 33.11Q51.68 33.42 52.55 33.80L52.55 33.80L52.50 33.78L52.51 33.79Q52.71 35.36 51.03 36.27L50.94 36.18L50.98 36.23Q49.22 37.05 47.50 37.05L47.58 37.12L47.55 37.09Q43.84 37.23 41.40 35.48L41.22 35.30L41.30 35.38Q40.43 33.43 40.58 30.88L40.53 30.84L40.56 30.87Q40.92 26.12 42.76 24.12L42.59 23.95L42.77 24.12Q44.62 22.13 49.30 21.82L49.14 21.67L49.28 21.81Q52.93 21.57 54.87 23.36L54.71 23.20L54.90 23.39Q54.82 23.35 54.93 23.54L55.02 23.63L55.13 23.62L55.11 23.60Q55.66 24.27 56.23 25.37L56.38 25.52L56.62 25.41Z"/></svg>