<svg xmlns="http://www.w3.org/2000/svg" width="150" height="50" viewBox="0,0,150,50"><path fill="#333" d="M71.05 40.94L71.06 40.94L71.16 41.04Q66.93 29.73 61.79 24.74L61.86 24.82L61.78 24.73Q63.24 25.36 66.21 26.01L66.19 25.98L66.25 26.04Q69.79 29.96 72.34 36.63L72.24 36.53L72.27 36.56Q74.98 29.26 77.61 26.21L77.54 26.14L77.60 26.20Q79.47 25.98 81.91 25.29L81.97 25.36L82.02 25.41Q78.80 28.09 76.63 32.66L76.76 32.78L76.74 32.77Q76.31 33.37 72.93 40.98L72.99 41.04L73.01 41.07Q72.32 41.06 71.10 40.98ZM75.75 43.42L75.78 43.45L75.79 43.46Q79.01 31.04 83.58 26.36L83.59 26.36L82.21 26.97L82.08 26.84Q81.39 27.17 80.55 27.28L80.59 27.32L80.53 27.26Q81.10 26.97 81.92 26.09L81.77 25.93L81.75 25.92Q82.56 25.03 83.02 24.61L83.01 24.61L83.10 24.69Q80.98 25.43 77.56 25.93L77.40 25.77L77.53 25.90Q74.70 28.97 72.64 34.57L72.66 34.58L72.80 34.73Q71.14 30.51 69.31 28.04L69.25 27.98L68.65 27.91L68.73 27.99Q68.39 27.92 68.16 27.92L68.22 27.97L68.24 28.00Q68.00 27.64 66.29 25.59L66.19 25.49L66.27 25.57Q62.83 24.99 60.59 23.84L60.70 23.96L60.60 23.86Q66.73 29.57 70.73 41.29L70.88 41.45L71.86 41.44L71.75 41.33Q72.08 41.97 72.92 43.26L73.10 43.44L74.30 43.27L74.34 43.31Q75.07 43.31 75.72 43.39Z"/><path fill="#444" d="M21.97 41.23L21.88 41.13L20.22 41.19L20.11 41.08Q16.83 41.18 15.88 39.05L15.92 39.09L15.80 38.98Q17.00 37.97 18.45 36.86L18.44 36.86L18.38 36.79Q19.01 39.03 21.87 38.88L21.79 38.80L21.79 38.80Q22.73 38.90 23.76 38.68L23.81 38.73L23.68 38.59Q24.59 38.06 24.52 37.11L24.54 37.13L24.61 37.20Q24.49 36.06 22.71 35.37L22.62 35.29L18.84 33.79L18.86 33.81Q16.50 32.44 16.16 28.90L16.15 28.90L16.28 29.03Q15.96 26.76 18.13 26.19L18.10 26.17L18.20 26.26Q19.16 26.04 22.13 26.04L22.14 26.06L22.16 26.07Q26.96 26.00 27.87 28.51L27.86 28.50L27.91 28.55Q27.20 29.01 26.47 29.47L26.59 29.58L25.04 30.40L25.12 30.48Q24.63 28.58 21.40 28.36L21.33 28.28L21.39 28.35Q20.76 28.33 19.73 28.75L19.85 28.86L19.88 28.90Q19.21 29.13 19.21 30.24L19.23 30.26L19.26 30.29Q19.59 31.34 21.42 32.03L21.31 31.92L21.31 31.93Q22.41 32.33 25.07 33.44L25.10 33.46L25.18 33.55Q26.95 34.33 27.14 36.88L27.22 36.96L27.15 36.89Q27.17 37.48 27.09 38.47L27.23 38.61L27.04 38.42Q27.09 39.38 26.52 40.02L26.44 39.95L26.58 40.09Q24.91 41.11 21.86 41.11ZM26.67 43.75L26.60 43.68L26.67 43.75Q27.50 43.71 28.87 43.41L29.00 43.53L28.98 43.51Q30.02 42.80 29.83 41.58L29.87 41.63L29.75 41.50Q29.66 40.92 29.35 39.32L29.37 39.34L29.38 39.34Q28.81 36.38 27.02 35.16L27.17 35.31L27.10 35.24Q26.60 33.86 25.34 33.14L25.27 33.07L25.32 33.12Q24.10 32.73 21.62 31.78L21.56 31.71L21.60 31.75Q21.65 31.20 21.92 31.09L21.99 31.16L21.93 31.09Q22.62 30.72 23.27 30.68L23.28 30.69L23.27 30.68Q24.04 30.61 24.80 30.88L24.74 30.82L24.92 31.08L24.87 30.91L25.12 30.97L25.24 31.13L25.09 30.98Q26.33 31.62 26.52 32.87L26.48 32.83L26.39 32.74Q27.76 32.02 29.66 30.34L29.61 30.28L29.52 30.20Q29.41 29.63 28.42 28.45L28.41 28.44L28.37 28.40Q27.19 25.66 22.09 25.54L22.12 25.57L22.21 25.67Q18.91 25.48 16.93 26.05L16.95 26.08L17.04 26.16Q15.57 26.67 15.80 28.77L15.76 28.74L15.72 28.69Q15.92 30.03 16.83 32.13L16.73 32.03L16.87 32.17Q17.28 33.15 18.31 33.87L18.36 33.92L18.31 33.87Q19.06 35.43 20.36 36.11L20.29 36.05L20.46 36.21Q21.29 36.36 22.24 36.74L22.31 36.81L24.07 37.43L24.10 37.45Q23.91 38.71 21.97 38.59L21.92 38.54L21.80 38.43Q21.54 38.67 20.33 38.36L20.31 38.34L20.21 38.09L20.13 38.25L20.17 38.28Q19.23 37.83 18.58 36.35L18.55 36.32L18.67 36.44Q16.42 37.88 15.32 39.02L15.29 39.00L15.30 39.01Q15.66 39.98 16.69 40.77L16.73 40.82L16.40 40.80L16.40 40.79Q17.86 42.94 22.09 43.32L22.23 43.46L22.21 43.44Q23.35 43.44 26.58 43.67Z"/><path fill="#444" d="M95.96 19.66L96.05 19.76L95.91 19.62Q94.08 19.88 93.13 20.04L93.12 20.02L93.01 19.91Q91.46 20.23 90.24 20.77L90.18 20.70L90.23 20.75Q86.66 22.13 86.55 26.82L86.51 26.78L86.54 26.81Q86.57 29.57 87.21 32.51L87.11 32.40L87.19 32.48Q88.00 36.45 91.62 37.63L91.53 37.54L91.60 37.62Q93.53 38.21 94.97 38.06L94.93 38.01L95.42 38.05L95.35 37.98Q95.67 38.10 95.86 38.14L95.82 38.10L95.86 38.15Q95.89 38.03 96.05 37.99L96.11 38.05L96.03 37.97Q98.76 37.81 100.13 37.24L100.01 37.12L96.57 33.72L96.56 33.71Q96.86 33.36 97.47 32.75L97.43 32.71L98.28 31.73L98.39 31.84Q100.17 33.85 102.15 35.91L102.20 35.96L102.12 35.87Q104.44 34.05 104.71 28.68L104.76 28.73L104.67 28.64Q104.82 27.80 104.82 26.89L104.91 26.98L104.90 26.97Q104.87 21.26 99.80 20.16L99.81 20.17L99.80 20.15Q98.50 19.85 95.99 19.70ZM108.68 41.68L108.73 41.72L108.81 41.81Q108.10 42.12 106.92 43.00L107.02 43.10L102.62 39.42L102.50 39.30Q100.00 40.50 95.74 40.53L95.88 40.68L95.84 40.64Q89.32 40.78 86.50 38.53L86.46 38.49L86.49 38.52Q84.71 36.74 84.25 33.77L84.27 33.79L84.27 33.79Q84.08 32.00 83.70 28.42L83.69 28.42L83.55 28.27Q83.69 27.68 83.57 25.93L83.48 25.84L83.56 25.92Q83.36 24.31 83.40 23.44L83.49 23.53L83.31 23.35Q83.43 20.31 85.18 18.75L85.24 18.80L85.32 18.89Q86.76 17.48 89.96 16.98L89.97 16.99L90.01 17.03Q92.48 16.64 95.37 16.72L95.27 16.62L95.31 16.65Q102.92 16.88 106.04 19.24L105.92 19.12L106.07 19.27Q108.07 21.23 107.80 26.14L107.78 26.12L107.89 26.23Q107.67 29.85 107.48 31.18L107.49 31.20L107.43 31.14Q106.90 35.75 104.58 38.07L104.47 37.96L104.49 37.98Q106.04 39.30 108.78 41.78ZM103.92 17.50L103.85 17.43L103.98 17.56Q101.81 16.68 95.30 16.19L95.41 16.30L95.45 16.34Q94.04 16.33 91.26 16.45L91.22 16.41L91.11 16.30Q86.94 16.58 84.69 18.56L84.71 18.58L84.80 18.67Q83.08 20.07 83.08 23.23L83.01 23.16L83.06 23.21Q82.98 23.97 83.13 25.68L83.14 25.69L83.31 25.86Q83.46 27.57 83.46 28.44L83.43 28.41L83.44 28.42Q83.58 30.16 83.96 33.74L83.96 33.74L83.98 33.77Q84.27 36.57 85.87 38.62L85.74 38.49L85.79 38.55Q86.23 39.48 87.45 40.62L87.33 40.50L87.35 40.52Q90.05 42.50 95.22 42.76L95.30 42.84L95.37 42.91Q95.69 42.89 98.09 43.00L98.03 42.94L97.96 42.87Q102.78 43.05 105.07 41.99L105.07 41.98L105.16 42.08Q106.03 42.75 110.75 46.33L110.68 46.27L110.80 46.39Q111.44 45.88 112.73 44.89L112.59 44.75L112.57 44.73Q111.84 44.19 111.04 43.50L110.88 43.34L109.37 42.02L109.36 41.86L109.34 41.84Q108.91 41.53 107.69 40.50L107.61 40.42L107.64 40.45Q109.52 37.91 109.52 33.38L109.53 33.39L109.57 33.43Q109.54 32.98 109.57 32.14L109.59 32.15L109.52 32.09Q109.62 31.31 109.62 30.89L109.69 30.96L109.66 30.93Q109.59 25.34 108.87 22.98L108.91 23.02L108.93 23.04Q108.42 21.62 107.55 20.56L107.55 20.56L107.53 20.54Q106.74 18.42 103.81 17.39ZM97.92 22.09L97.95 22.11L97.89 22.05Q101.97 21.99 103.80 23.59L103.67 23.46L103.78 23.56Q104.28 24.71 104.39 26.05L104.45 26.10L104.52 26.17Q104.54 27.37 104.46 28.74L104.49 28.77L104.37 28.64Q104.04 33.61 102.10 35.33L102.16 35.39L102.08 35.31Q100.96 34.18 98.45 31.44L98.31 31.31L98.42 31.42Q97.61 32.12 96.05 33.69L95.98 33.62L96.07 33.71Q96.63 34.31 97.77 35.49L97.80 35.52L97.63 35.46L97.57 35.40Q98.19 35.98 99.21 37.04L99.28 37.11L99.22 37.05Q98.24 37.33 95.92 37.63L95.83 37.54L95.36 37.61L95.09 37.75L94.90 37.60L94.91 37.62Q91.58 37.75 89.60 36.11L89.54 36.05L89.53 36.04Q88.59 34.03 88.63 30.91L88.54 30.83L88.60 30.88Q88.67 22.08 97.84 22.01Z"/><path fill="#333" d="M112.39 14.38L112.36 14.35L112.30 14.29Q116.10 16.84 120.86 17.07L120.95 17.16L120.97 17.17Q125.56 17.31 129.83 15.56L129.79 15.52L129.83 15.56Q129.52 16.06 128.76 18.84L128.74 18.81L128.85 18.93Q126.10 19.94 123.13 20.09L122.95 19.92L122.96 19.93Q119.98 20.07 117.09 19.35L117.11 19.37L117.09 19.34Q117.92 23.11 118.11 26.76L118.10 26.75L117.98 26.63Q120.08 26.94 121.67 26.90L121.65 26.88L121.58 26.81Q122.87 26.88 125.27 26.77L125.26 26.75L125.39 26.89Q125.25 27.43 125.25 28.11L125.18 28.05L125.22 29.42L125.31 29.51Q122.93 29.52 118.13 29.60L117.99 29.46L118.12 29.59Q118.10 33.68 117.53 37.68L117.53 37.68L117.53 37.68Q120.10 36.97 122.84 37.09L122.87 37.12L122.80 37.05Q125.59 37.22 128.18 38.05L128.05 37.93L128.20 38.07Q128.28 38.87 128.54 39.63L128.58 39.67L128.85 41.00L128.85 41.01Q125.76 39.82 122.33 39.82L122.38 39.86L122.23 39.71Q117.47 39.83 113.21 42.08L113.15 42.02L113.11 41.98Q115.42 35.15 115.15 28.03L115.21 28.08L115.16 28.04Q114.97 20.96 112.31 14.30ZM112.70 42.79L112.60 42.68L112.73 42.81Q113.97 42.08 114.73 41.74L114.65 41.66L114.62 41.62Q114.44 42.39 113.87 43.92L113.95 44.00L113.87 43.91Q118.46 41.99 123.52 42.26L123.60 42.34L123.47 42.21Q128.75 42.62 132.75 45.32L132.80 45.37L132.72 45.30Q131.55 42.75 130.86 40.81L130.94 40.89L130.86 40.81Q129.90 40.22 128.91 39.88L128.80 39.77L128.93 39.91Q128.54 38.53 128.39 37.73L128.34 37.68L128.40 37.74Q125.34 36.77 122.18 36.77L122.18 36.77L122.11 36.70Q120.87 36.61 119.73 36.72L119.81 36.80L119.72 36.71Q119.89 35.51 119.93 34.29L119.94 34.31L120.07 31.84L120.06 31.84Q121.85 31.72 123.64 31.76L123.66 31.78L123.68 31.80Q125.58 31.91 127.37 32.07L127.30 32.00L127.36 32.06Q127.12 30.94 127.12 29.99L127.14 30.01L127.14 28.11L126.40 28.24L126.31 28.15Q126.06 28.39 125.60 28.39L125.56 28.35L125.47 28.26Q125.52 27.62 125.67 26.33L125.71 26.37L125.76 26.42Q124.06 26.55 122.88 26.58L122.91 26.62L122.96 26.66Q121.86 26.52 120.03 26.44L120.13 26.53L120.10 26.51Q120.03 25.11 119.84 22.29L119.92 22.36L119.81 22.26Q120.93 22.46 121.92 22.46L121.91 22.45L121.88 22.42Q126.65 22.47 130.34 20.57L130.24 20.46L130.32 20.54Q130.92 18.22 131.80 16.01L131.76 15.98L131.76 15.97Q130.40 16.79 129.57 17.13L129.50 17.06L129.63 17.19Q129.85 16.35 130.31 14.78L130.41 14.88L130.42 14.90Q125.68 16.94 120.81 16.63L120.85 16.68L120.86 16.69Q115.49 16.30 111.65 13.45L111.64 13.44L111.67 13.47Q114.49 20.37 114.80 27.98L114.79 27.97L114.92 28.10Q115.20 36.00 112.69 42.78Z"/><path fill="#333" d="M40.31 47.12L40.20 47.01L40.29 47.10Q39.31 47.26 37.40 47.56L37.46 47.62L37.41 47.57Q38.61 45.31 39.64 44.01L39.77 44.14L39.82 44.19Q41.43 44.35 41.58 44.35L41.60 44.37L41.61 44.39Q41.90 44.45 42.44 44.33L42.47 44.37L42.53 44.42Q43.15 44.29 43.34 44.29L43.27 44.22L43.41 44.36Q45.93 44.05 45.85 41.88L45.87 41.90L45.89 41.92Q45.88 40.46 45.76 34.22L45.73 34.19L45.75 34.21Q45.63 30.59 45.71 26.44L45.69 26.42L47.12 26.25L47.22 26.35Q47.85 26.22 48.54 26.00L48.37 25.82L48.43 25.88Q48.18 30.28 48.22 34.66L48.32 34.76L48.28 34.72Q48.32 39.10 48.85 43.48L48.89 43.51L48.78 43.41Q48.96 43.82 48.96 44.08L48.93 44.06L48.93 44.05Q48.99 45.75 47.31 46.13L47.23 46.04L47.26 46.07Q44.12 46.44 40.28 47.08ZM47.07 22.89L44.84 19.67L44.97 19.79Q45.86 18.25 47.69 15.47L47.76 15.55L47.69 15.48Q48.52 16.54 49.85 18.36L49.79 18.30L46.97 22.79ZM50.01 49.43L50.16 49.58L50.08 49.50Q50.59 49.52 51.35 49.17L51.42 49.24L51.36 49.18Q51.61 48.41 51.61 47.95L51.74 48.08L51.63 47.97Q51.57 47.57 51.46 46.96L51.49 46.99L51.58 47.09Q50.23 40.67 50.23 32.75L50.14 32.66L50.27 32.79Q50.14 29.80 50.29 26.91L50.29 26.91L50.43 27.05Q49.89 27.24 48.75 27.54L48.72 27.51L48.76 27.55Q48.65 26.95 48.69 26.42L48.63 26.35L48.77 25.31L48.79 25.34Q47.20 26.10 45.41 26.14L45.41 26.14L45.24 25.97Q45.33 30.44 45.37 34.02L45.27 33.91L45.41 41.79L45.43 41.81Q45.48 43.76 43.31 43.87L43.28 43.85L43.36 43.92Q43.05 43.84 42.53 43.89L42.58 43.95L42.65 44.01Q42.02 43.95 41.75 43.95L41.78 43.98L41.84 44.04Q41.39 44.04 39.83 43.63L39.84 43.64L39.81 43.61Q39.33 44.19 38.22 45.87L38.32 45.96L36.66 48.15L36.63 48.12Q37.57 47.99 39.21 47.61L39.15 47.56L38.85 48.43L38.15 48.92L38.20 48.96Q40.57 48.90 41.90 48.97L41.91 48.98L41.84 48.91Q44.21 49.15 50.14 49.57ZM47.09 23.67L47.07 23.65L47.34 23.04L47.34 23.04Q47.74 23.53 48.70 25.12L48.66 25.09L48.60 25.03Q50.13 21.92 51.69 18.83L51.79 18.93L51.69 18.83Q50.72 17.25 49.77 15.96L49.93 16.11L49.86 16.04Q49.61 16.21 49.27 16.75L49.37 16.86L49.24 16.72Q48.91 16.16 47.92 14.87L47.97 14.92L47.90 14.85Q46.79 16.52 44.47 19.87L44.42 19.82L44.37 19.77Q45.29 20.99 47.00 23.58Z"/></svg>