<svg xmlns="http://www.w3.org/2000/svg" width="150" height="50" viewBox="0,0,150,50"><path fill="#333" d="M124.23 27.15L124.28 27.20L124.31 27.24Q124.98 27.10 126.39 26.95L126.53 27.09L126.52 27.09Q126.33 27.57 126.33 28.22L126.42 28.32L126.32 29.47L126.52 29.67Q125.59 29.58 124.75 29.65L124.65 29.56L124.78 29.68Q123.81 29.59 122.97 29.55L123.11 29.69L123.11 29.69Q120.15 35.75 116.73 40.36L116.79 40.42L116.82 40.45Q114.33 41.12 113.03 41.73L113.03 41.72L112.92 41.61Q117.11 35.99 120.16 29.71L120.23 29.77L117.43 29.61L117.44 29.61Q117.55 28.39 117.44 27.06L117.49 27.11L117.45 27.07Q119.34 27.21 121.39 27.21L121.43 27.25L123.33 23.55L123.23 23.45Q124.23 21.56 125.45 19.96L125.38 19.89L125.37 19.88Q123.96 20.19 122.36 20.19L122.22 20.04L122.27 20.10Q116.25 20.16 112.48 17.96L112.47 17.95L111.79 16.20L111.80 16.21Q111.51 15.43 111.13 14.55L111.12 14.53L111.10 14.52Q115.40 17.11 121.11 17.34L121.15 17.37L121.06 17.28Q126.33 17.64 131.47 15.66L131.42 15.62L131.46 15.65Q131.20 16.00 130.71 16.88L130.71 16.88L130.66 16.84Q127.13 21.68 124.27 27.20ZM132.37 18.31L132.34 18.28L133.29 16.23L133.27 16.20Q132.34 16.72 130.66 17.45L130.61 17.40L130.97 17.26L130.89 17.18Q131.06 17.08 131.18 16.97L131.07 16.86L131.10 16.90Q131.50 16.23 132.23 14.90L132.25 14.92L132.22 14.89Q126.83 17.11 121.08 16.88L121.10 16.90L121.18 16.99Q115.17 16.72 110.41 13.75L110.26 13.60L110.33 13.68Q111.45 15.63 112.28 18.29L112.17 18.17L112.30 18.31Q113.32 18.87 114.12 19.18L114.13 19.18L114.15 19.21Q114.24 19.48 114.69 21.35L114.83 21.48L114.76 21.42Q117.96 22.71 123.48 22.56L123.38 22.46L123.31 22.39Q123.06 23.01 121.08 26.78L121.08 26.78L121.14 26.84Q119.05 26.81 117.07 26.62L117.08 26.63L117.10 26.65Q117.19 27.50 117.19 28.38L117.24 28.43L117.12 30.02L118.76 29.99L118.77 31.40L118.78 31.41Q114.97 38.90 112.19 42.48L112.19 42.48L112.20 42.49Q113.79 41.73 115.43 41.23L115.37 41.17L115.35 41.15Q114.61 42.01 113.24 43.73L113.28 43.76L113.23 43.71Q116.39 42.61 118.83 42.38L118.85 42.40L118.86 42.41Q121.81 38.66 124.93 31.89L125.06 32.02L128.41 32.13L128.47 32.20Q128.29 31.18 128.29 30.26L128.40 30.37L128.28 28.46L128.28 28.46Q128.08 28.53 127.53 28.57L127.54 28.58L127.55 28.59Q126.92 28.55 126.65 28.55L126.69 28.58L126.75 28.65Q126.63 28.41 126.66 28.25L126.74 28.33L126.82 28.14L126.69 28.02Q129.17 22.84 132.25 18.20Z"/><path fill="#111" d="M18.97 19.32L18.98 19.33L19.03 19.38Q19.93 23.67 20.09 27.25L20.01 27.17L20.07 27.23Q21.12 27.26 22.19 27.26L22.14 27.21L24.29 27.16L24.31 27.18Q25.41 27.21 26.29 25.80L26.22 25.74L26.19 25.70Q26.99 24.60 27.10 23.42L27.11 23.43L27.12 23.44Q27.43 20.35 23.20 19.86L23.32 19.98L23.28 19.94Q21.68 19.98 19.06 19.41ZM20.08 29.99L19.99 29.90L20.12 30.02Q19.91 36.10 18.77 40.52L18.81 40.56L18.74 40.49Q17.32 40.93 15.00 42.00L15.05 42.05L15.01 42.01Q17.38 35.36 17.11 28.09L17.14 28.12L17.15 28.12Q16.88 20.77 14.10 14.34L14.16 14.40L14.07 14.31Q18.23 17.10 24.47 17.10L24.43 17.06L24.39 17.01Q30.44 17.01 30.59 20.47L30.68 20.56L30.75 20.64Q30.77 23.01 29.78 25.68L29.72 25.62L29.79 25.68Q29.35 26.77 28.40 27.99L28.33 27.92L28.32 27.91Q27.01 29.53 24.46 29.80L24.44 29.78L24.62 29.96Q22.34 29.96 20.09 30.00ZM26.13 32.15L26.26 32.28L26.20 32.23Q30.35 32.45 31.60 27.65L31.63 27.68L31.50 27.55Q32.46 23.90 32.30 21.88L32.42 22.00L32.43 22.01Q32.32 20.49 31.56 19.50L31.56 19.50L31.42 19.36Q31.25 19.20 30.76 18.97L30.64 18.85L30.61 18.82Q30.73 18.78 30.12 18.02L30.13 18.03L30.09 17.99Q28.50 16.63 24.54 16.63L24.61 16.70L24.50 16.59Q17.59 16.57 13.36 13.41L13.35 13.40L13.45 13.49Q16.67 20.64 16.94 28.10L16.75 27.91L16.75 27.92Q17.16 35.71 14.49 42.79L14.57 42.86L14.53 42.82Q15.54 42.12 16.53 41.74L16.51 41.72L16.07 42.81L16.20 42.93Q15.90 43.40 15.64 43.97L15.76 44.09L15.63 43.96Q18.22 43.09 21.12 42.56L21.12 42.56L21.01 42.45Q21.88 36.96 21.96 32.24L21.93 32.22L21.86 32.14Q23.10 32.21 24.09 32.21L23.95 32.07L24.05 32.17Q25.38 32.16 26.18 32.20ZM25.13 22.17L25.31 22.35L25.20 22.24Q25.62 22.17 26.61 22.40L26.71 22.49L26.63 22.41Q26.86 22.76 26.90 23.07L26.79 22.96L26.77 22.94Q26.87 23.27 26.80 23.53L26.74 23.47L26.87 23.60Q26.62 24.69 25.90 25.57L25.99 25.66L26.07 25.74Q25.48 26.78 24.45 26.97L24.33 26.85L24.31 26.83Q23.53 26.77 21.89 26.77L22.06 26.94L21.89 26.78Q22.03 24.66 21.80 22.30L21.76 22.26L23.54 22.37L23.40 22.23Q24.35 22.34 25.23 22.27Z"/><path fill="#111" d="M68.44 19.46L68.41 19.43L68.36 19.38Q69.14 23.55 69.29 27.12L69.24 27.07L69.28 27.11Q70.50 27.31 71.57 27.31L71.53 27.27L73.80 27.33L73.74 27.27Q74.72 27.19 75.60 25.78L75.58 25.76L75.72 25.90Q76.39 24.67 76.50 23.49L76.37 23.35L76.36 23.34Q76.89 20.49 72.66 19.99L72.56 19.89L72.59 19.91Q70.97 19.93 68.34 19.36ZM69.40 29.97L69.40 29.98L69.47 30.05Q69.24 36.10 68.10 40.51L68.07 40.48L68.24 40.65Q66.74 41.02 64.42 42.08L64.36 42.03L64.31 41.98Q66.73 35.37 66.46 28.10L66.40 28.04L66.40 28.04Q66.23 20.79 63.45 14.35L63.41 14.32L63.36 14.26Q67.60 17.13 73.84 17.13L73.69 16.98L73.88 17.17Q79.83 17.07 79.98 20.53L80.02 20.57L79.94 20.49Q79.97 22.88 78.98 25.55L79.00 25.57L79.16 25.73Q78.57 26.66 77.62 27.87L77.67 27.93L77.74 28.00Q76.37 29.56 73.82 29.83L73.91 29.92L73.82 29.83Q71.55 29.84 69.31 29.88ZM75.44 32.13L75.53 32.22L75.43 32.12Q79.75 32.52 81.01 27.72L80.86 27.58L80.88 27.60Q81.80 23.91 81.65 21.89L81.78 22.02L81.78 22.03Q81.61 20.45 80.85 19.46L80.92 19.53L80.79 19.39Q80.53 19.13 80.03 18.91L79.95 18.83L79.97 18.84Q79.93 18.65 79.32 17.89L79.30 17.87L79.48 18.05Q77.77 16.56 73.81 16.56L73.78 16.54L73.81 16.57Q67.00 16.65 62.78 13.49L62.69 13.40L62.84 13.55Q65.84 20.47 66.11 27.94L66.21 28.04L66.18 28.01Q66.43 35.65 63.77 42.73L63.78 42.75L63.74 42.70Q64.86 42.11 65.85 41.73L65.84 41.72L65.56 42.96L65.52 42.92Q65.31 43.48 65.05 44.05L65.05 44.05L64.99 43.99Q67.38 42.92 70.27 42.38L70.40 42.51L70.40 42.51Q71.30 37.05 71.37 32.33L71.28 32.24L71.26 32.21Q72.36 32.13 73.35 32.13L73.29 32.08L73.41 32.19Q74.80 32.25 75.60 32.29ZM74.61 22.32L74.58 22.28L74.51 22.21Q75.08 22.30 76.07 22.52L76.09 22.54L75.99 22.44Q76.14 22.71 76.18 23.01L76.09 22.93L76.22 23.05Q76.25 23.31 76.17 23.57L76.14 23.54L76.20 23.60Q75.94 24.67 75.21 25.55L75.32 25.65L75.26 25.59Q74.78 26.75 73.75 26.94L73.66 26.85L73.81 27.00Q72.99 26.91 71.36 26.91L71.30 26.85L71.24 26.79Q71.34 24.64 71.11 22.28L71.05 22.22L72.88 22.37L72.71 22.20Q73.60 22.26 74.47 22.18Z"/><path fill="#333" d="M100.12 30.97L99.97 30.82L100.05 30.89Q100.17 29.49 99.35 28.58L99.36 28.59L99.24 28.47Q98.56 27.69 97.12 27.73L97.13 27.74L97.13 27.74Q94.72 27.73 93.88 29.87L93.90 29.89L93.84 29.82Q93.71 30.76 93.67 31.45L93.62 31.40L93.59 31.36Q93.32 36.16 92.41 40.50L92.44 40.53L92.42 40.51Q90.75 41.05 88.89 42.04L88.81 41.97L88.88 42.03Q91.22 35.13 90.96 27.82L90.96 27.82L90.86 27.72Q90.69 20.47 88.14 13.66L88.15 13.67L88.14 13.66Q89.90 14.96 91.92 15.65L91.95 15.68L91.86 15.59Q93.37 21.44 93.56 27.30L93.58 27.32L93.51 27.25Q94.98 25.26 97.68 25.33L97.69 25.34L97.65 25.30Q102.70 25.36 102.82 30.73L102.82 30.73L102.82 30.74Q102.86 36.33 104.23 40.98L104.28 41.02L104.38 41.12Q102.43 40.20 100.67 40.01L100.79 40.12L100.64 39.97Q100.12 36.71 100.01 30.85ZM100.45 40.44L100.39 40.37L100.45 40.43Q101.39 40.46 102.50 40.73L102.44 40.67L102.49 40.72Q102.53 40.87 103.06 42.85L103.08 42.88L103.08 42.87Q105.97 43.75 107.99 45.19L108.17 45.37L108.00 45.21Q105.38 39.50 104.85 33.18L104.92 33.25L104.77 33.10Q104.52 29.47 103.11 27.90L103.20 27.99L103.21 28.00Q103.18 27.89 102.53 27.43L102.38 27.28L102.45 27.35Q102.21 26.85 101.57 26.09L101.50 26.02L101.66 26.11L101.52 25.97Q100.81 25.26 97.69 24.99L97.70 25.01L97.54 24.84Q96.99 25.02 95.58 25.36L95.46 25.24L95.48 25.25Q95.22 20.36 94.88 17.85L95.00 17.96L95.02 17.98Q94.18 17.79 92.70 17.49L92.75 17.54L92.62 17.41Q92.44 16.66 92.18 15.18L92.17 15.17L92.29 15.29Q89.33 14.31 87.46 12.75L87.37 12.66L87.50 12.79Q90.43 19.91 90.70 27.71L90.58 27.59L90.70 27.71Q90.83 35.35 88.28 42.69L88.40 42.81L88.35 42.76Q89.21 42.10 90.35 41.60L90.37 41.62L89.74 43.99L89.67 43.93Q92.90 42.71 94.88 42.52L94.76 42.40L94.74 42.37Q95.42 37.07 95.61 33.11L95.50 33.01L95.64 33.15Q95.64 31.21 97.58 30.10L97.69 30.20L97.66 30.18Q98.16 29.91 98.69 29.95L98.71 29.98L98.60 29.87Q98.73 29.84 99.08 29.88L99.17 29.97L99.62 30.09L99.70 30.16Q99.52 30.37 99.64 30.82L99.75 30.94L99.67 30.86Q99.92 36.97 100.41 40.40Z"/><path fill="#222" d="M57.12 23.12L56.97 22.97L57.06 23.06Q55.32 25.84 52.65 31.48L52.53 31.36L50.68 35.75L50.60 35.67Q49.74 37.59 48.41 39.83L48.37 39.79L48.36 39.79Q48.88 39.85 47.20 39.89L47.16 39.84L47.16 39.84Q47.17 39.85 45.91 39.85L45.86 39.80L45.94 39.88Q45.28 38.45 42.34 31.30L42.19 31.14L42.21 31.17Q40.14 25.89 38.05 22.89L38.02 22.86L37.98 22.82Q38.70 25.86 38.70 29.02L38.84 29.17L38.79 29.11Q38.80 35.64 35.83 41.19L35.88 41.24L35.79 41.15Q34.50 41.54 32.14 42.26L32.10 42.22L32.00 42.12Q35.74 36.50 35.74 29.27L35.73 29.25L35.69 29.21Q35.77 20.34 30.36 13.38L30.30 13.31L30.42 13.43Q32.04 14.14 34.40 14.83L34.28 14.71L34.41 14.84Q41.50 21.62 47.59 34.94L47.52 34.88L47.52 34.88Q50.92 27.76 53.12 24.26L53.14 24.28L53.12 24.25Q56.83 18.60 60.78 15.13L60.66 15.00L60.84 15.19Q62.04 14.90 64.40 14.14L64.40 14.15L64.37 14.11Q59.34 20.70 59.34 29.30L59.39 29.34L59.47 29.42Q59.39 36.01 62.82 41.53L62.72 41.43L62.79 41.50Q61.51 41.25 58.77 40.64L58.68 40.56L58.79 40.66Q56.30 35.73 56.30 29.76L56.33 29.79L56.47 29.93Q56.30 26.33 56.98 22.98ZM58.45 40.89L58.58 41.02L58.60 41.04Q59.19 41.06 60.64 41.33L60.65 41.34L60.73 41.43Q61.07 42.06 62.02 43.55L62.03 43.55L62.12 43.65Q64.21 44.03 67.68 45.25L67.65 45.22L67.70 45.27Q61.32 38.82 61.32 28.99L61.37 29.04L61.48 29.15Q61.40 21.35 65.78 15.22L65.86 15.30L63.60 15.93L63.61 15.94Q64.51 14.29 65.16 13.41L65.27 13.53L65.34 13.60Q63.46 14.23 60.83 14.76L60.80 14.73L60.74 14.67Q53.89 20.69 47.84 33.29L47.90 33.35L47.92 33.37Q42.68 22.34 37.73 17.09L37.84 17.19L37.80 17.16Q37.32 16.99 36.75 16.87L36.94 17.06L35.55 15.59L35.57 15.61Q35.04 15.01 34.36 14.40L34.38 14.42L34.36 14.41Q31.38 13.49 29.60 12.76L29.49 12.65L29.44 12.60Q35.45 19.83 35.45 29.24L35.45 29.24L35.46 29.25Q35.59 36.99 31.44 42.85L31.42 42.84L31.45 42.87Q32.06 42.56 33.35 42.14L33.43 42.21L33.29 42.08Q33.22 42.39 31.81 44.48L31.79 44.46L31.84 44.51Q33.61 44.00 37.11 43.24L37.07 43.19L37.09 43.21Q40.78 36.13 40.59 28.37L40.60 28.37L40.59 28.36Q42.11 32.36 45.58 40.24L45.62 40.29L45.72 40.38Q45.96 40.32 46.19 40.32L46.15 40.28L46.67 40.27L46.67 40.27Q47.13 40.96 47.93 42.25L47.88 42.20L47.84 42.16Q49.62 42.30 49.62 42.30L49.62 42.31L49.50 42.18Q50.43 42.08 51.07 42.16L51.25 42.33L51.20 42.28Q52.63 38.11 55.98 30.12L56.06 30.20L56.06 30.20Q55.96 35.66 58.54 40.99Z"/></svg>