<svg xmlns="http://www.w3.org/2000/svg" width="150" height="50" viewBox="0,0,150,50"><path fill="#222" d="M20.73 39.96L20.75 39.99L20.70 39.93Q16.48 39.34 14.66 37.89L14.71 37.94L14.61 37.85Q12.81 36.42 12.39 33.41L12.43 33.46L12.38 33.40Q12.48 33.16 12.14 28.40L12.02 28.29L11.97 28.24Q12.21 27.25 12.13 26.00L12.04 25.91L11.97 25.83Q11.91 20.91 14.12 19.16L13.99 19.03L14.05 19.09Q16.76 17.04 24.53 16.35L24.57 16.39L24.44 16.27Q25.77 16.11 27.41 16.15L27.45 16.19L27.40 16.15Q27.49 16.23 30.46 16.23L30.40 16.17L30.49 16.26Q31.32 16.25 33.03 16.41L32.90 16.28L32.98 16.35Q32.43 17.25 31.40 20.33L31.39 20.32L31.38 20.32Q29.31 19.12 26.31 19.12L26.43 19.25L26.37 19.19Q25.60 19.18 24.80 19.25L24.73 19.18L24.78 19.23Q19.76 19.77 17.25 21.75L17.10 21.60L17.15 21.65Q15.23 23.35 15.08 26.70L14.94 26.56L14.94 26.56Q14.90 27.16 14.93 28.42L15.06 28.55L14.97 28.45Q15.07 33.28 17.47 35.37L17.55 35.46L17.45 35.36Q19.77 37.44 24.75 37.74L24.74 37.73L24.69 37.68Q27.84 37.87 30.85 36.08L30.83 36.05L30.88 36.11Q31.48 38.84 32.09 40.21L32.12 40.23L31.95 40.07Q29.87 40.35 28.23 40.31L28.33 40.41L28.21 40.28Q23.85 40.34 20.73 39.96ZM35.80 43.65L35.89 43.74L35.75 43.60Q33.92 40.55 33.23 37.96L33.30 38.03L33.28 38.01Q32.84 38.25 31.85 38.63L31.85 38.64L31.91 38.70Q31.62 37.95 31.43 37.11L31.41 37.09L31.09 35.44L30.97 35.32Q27.82 37.50 24.70 37.38L24.58 37.26L24.68 37.37Q20.37 37.13 18.05 35.38L18.05 35.38L17.99 35.32Q16.96 33.61 17.04 30.67L16.90 30.54L16.91 30.55Q17.09 26.08 19.56 23.95L19.55 23.94L19.67 24.06Q21.73 22.08 26.41 21.48L26.37 21.43L26.33 21.39Q27.13 21.28 27.85 21.28L28.00 21.42L27.93 21.36Q30.63 21.27 32.72 22.80L32.83 22.90L32.80 22.87Q33.27 20.72 34.49 17.48L34.52 17.51L34.50 17.49Q34.20 17.46 33.65 17.40L33.62 17.37L33.77 17.53Q33.14 17.39 32.87 17.39L32.87 17.38L32.79 17.30Q33.10 16.89 33.55 15.90L33.61 15.95L33.61 15.95Q33.34 15.92 30.85 15.84L30.89 15.88L30.80 15.79Q28.21 15.61 27.56 15.65L27.72 15.82L27.62 15.71Q17.20 16.15 13.74 18.74L13.67 18.66L13.59 18.59Q11.62 20.46 11.62 24.38L11.75 24.51L11.68 24.44Q11.72 25.59 11.84 28.29L11.73 28.19L11.72 28.18Q11.81 31.70 12.04 33.41L12.11 33.48L12.10 33.47Q12.53 36.64 14.13 38.16L14.17 38.20L14.18 38.21Q14.53 38.75 15.79 39.90L15.88 39.98L15.76 39.87Q19.15 41.77 24.40 42.53L24.44 42.57L24.35 42.48Q30.91 43.55 35.89 43.74Z"/><path fill="#222" d="M106.49 23.16L106.34 23.01L106.31 22.98Q104.50 25.69 101.83 31.33L101.83 31.32L99.90 35.64L99.85 35.58Q99.00 37.52 97.67 39.76L97.70 39.80L97.63 39.72Q98.14 39.78 96.47 39.82L96.52 39.87L96.52 39.87Q96.49 39.84 95.24 39.84L95.17 39.77L95.22 39.83Q94.52 38.36 91.59 31.21L91.57 31.19L91.55 31.17Q89.44 25.86 87.35 22.86L87.35 22.86L87.24 22.75Q88.14 25.97 88.14 29.13L88.08 29.07L88.12 29.11Q88.16 35.66 85.19 41.22L85.06 41.08L85.04 41.07Q83.81 41.51 81.45 42.24L81.39 42.18L81.41 42.20Q85.10 36.52 85.10 29.29L85.19 29.38L85.21 29.40Q85.10 20.34 79.69 13.37L79.72 13.40L79.77 13.45Q81.44 14.21 83.80 14.90L83.80 14.89L83.74 14.83Q90.74 21.52 96.83 34.85L96.77 34.79L96.80 34.82Q100.27 27.78 102.48 24.28L102.46 24.27L102.59 24.40Q106.12 18.55 110.08 15.09L110.16 15.17L110.12 15.14Q111.26 14.79 113.62 14.02L113.68 14.08L113.66 14.07Q108.65 20.67 108.65 29.27L108.78 29.40L108.66 29.29Q108.82 36.10 112.24 41.62L112.11 41.49L112.24 41.62Q110.72 41.12 107.97 40.51L108.08 40.62L108.14 40.67Q105.65 35.75 105.65 29.78L105.81 29.93L105.61 29.74Q105.74 26.44 106.42 23.09ZM107.92 41.03L107.79 40.89L107.93 41.04Q108.47 41.01 109.92 41.28L110.01 41.36L110.06 41.42Q110.55 42.22 111.50 43.70L111.35 43.55L111.38 43.57Q113.52 44.00 116.98 45.22L117.05 45.29L117.11 45.35Q110.75 38.91 110.75 29.09L110.67 29.01L110.70 29.04Q110.73 21.34 115.11 15.21L115.09 15.19L112.98 15.97L112.94 15.94Q114.00 14.45 114.65 13.57L114.50 13.43L114.55 13.48Q112.67 14.11 110.05 14.64L110.00 14.60L110.01 14.60Q103.40 20.86 97.35 33.47L97.24 33.36L97.30 33.42Q92.15 22.48 87.20 17.23L87.11 17.14L87.07 17.10Q86.68 17.02 86.11 16.90L86.14 16.92L84.97 15.68L84.89 15.60Q84.38 15.02 83.70 14.41L83.65 14.36L83.67 14.38Q80.72 13.49 78.93 12.77L78.96 12.80L78.87 12.70Q84.79 19.84 84.79 29.24L84.80 29.25L84.94 29.40Q84.92 36.99 80.77 42.85L80.70 42.78L80.77 42.85Q81.32 42.49 82.62 42.07L82.59 42.05L82.69 42.14Q82.66 42.49 81.25 44.59L81.08 44.42L81.23 44.57Q83.04 44.10 86.54 43.33L86.42 43.20L86.48 43.27Q90.13 36.15 89.94 28.38L90.06 28.50L90.04 28.48Q91.48 32.40 94.95 40.28L94.96 40.29L95.01 40.34Q95.20 40.23 95.43 40.23L95.43 40.23L95.97 40.23L95.91 40.18Q96.42 40.91 97.22 42.20L97.32 42.31L97.31 42.30Q98.84 42.19 98.84 42.19L98.76 42.11L98.94 42.30Q99.85 42.18 100.50 42.25L100.55 42.30L100.53 42.29Q102.04 38.19 105.39 30.20L105.41 30.22L105.33 30.14Q105.24 35.61 107.83 40.94Z"/><path fill="#222" d="M73.02 29.89L73.09 29.95L72.99 29.85Q70.40 29.66 69.07 30.88L69.19 31.00L69.21 31.02Q67.85 32.21 68.15 34.72L68.15 34.72L68.09 34.67Q68.36 37.14 69.58 38.39L69.76 38.57L69.61 38.43Q70.67 39.75 72.80 39.68L72.86 39.73L72.93 39.81Q73.46 39.76 73.65 39.76L73.63 39.75L73.59 39.71Q77.17 39.13 77.28 34.53L77.31 34.56L77.24 34.48Q77.45 32.25 76.76 31.45L76.70 31.39L76.61 31.31Q75.59 30.05 73.04 29.90ZM76.36 41.64L76.32 41.59L76.37 41.65Q75.13 42.31 73.57 42.23L73.40 42.07L73.47 42.13Q69.59 42.28 68.29 39.70L68.36 39.76L68.33 39.74Q68.13 45.06 66.80 49.32L66.79 49.31L66.76 49.28Q65.00 49.81 63.37 50.53L63.50 50.67L63.47 50.63Q65.94 44.58 65.67 37.61L65.74 37.68L65.79 37.73Q65.50 30.85 62.60 24.80L62.62 24.82L62.58 24.77Q64.45 25.88 66.16 26.34L66.28 26.45L66.82 27.95L66.70 27.82Q66.84 28.19 67.11 29.30L67.07 29.26L67.18 29.37Q68.06 27.17 71.64 26.98L71.69 27.03L71.65 26.99Q72.67 27.10 73.55 27.10L73.38 26.93L73.91 26.97L74.01 27.07Q74.03 26.97 74.22 27.01L74.22 27.01L74.62 27.11L74.48 26.96Q76.68 27.38 77.40 27.60L77.36 27.56L77.42 27.62Q78.85 28.03 79.73 28.98L79.85 29.10L79.76 29.01Q80.67 30.26 80.63 31.67L80.64 31.67L80.57 31.61Q80.45 34.34 79.65 37.01L79.78 37.13L79.72 37.08Q78.68 40.57 76.32 41.60ZM80.57 42.19L80.65 42.23L80.65 42.23Q81.75 40.25 82.05 36.13L82.12 36.20L82.00 36.08Q82.18 34.36 82.18 33.11L82.14 33.06L82.15 33.08Q82.23 31.63 81.46 30.22L81.41 30.16L81.51 30.26Q81.02 29.73 80.52 29.35L80.47 29.30L80.35 29.06L80.11 28.71L80.08 28.57L80.11 28.60Q78.42 26.60 74.08 26.60L74.06 26.58L73.48 26.61L73.56 26.69Q68.85 26.62 67.21 28.22L67.14 28.16L67.27 28.28Q67.08 27.75 66.93 27.26L66.79 27.12L66.62 26.15L66.63 26.15Q64.16 25.55 61.95 24.07L61.99 24.11L61.96 24.08Q65.12 30.28 65.42 37.51L65.48 37.57L65.52 37.61Q65.76 44.82 62.91 51.29L62.85 51.23L64.82 50.35L64.87 50.40Q64.58 51.09 63.89 52.66L63.90 52.67L63.82 52.59Q66.56 51.56 68.89 51.22L69.03 51.36L68.99 51.32Q69.97 46.36 70.12 42.63L70.12 42.63L70.20 42.71Q71.63 44.21 75.24 44.44L75.30 44.50L75.19 44.39Q79.13 44.64 80.58 42.20L80.60 42.22ZM74.90 32.11L75.05 32.25L75.05 32.25Q75.68 32.17 76.79 32.51L76.66 32.38L76.64 32.36Q76.96 33.41 76.93 34.59L77.02 34.69L76.91 34.58Q77.03 35.61 76.84 36.25L76.67 36.08L76.78 36.20Q76.09 39.12 73.58 39.43L73.47 39.32L73.59 39.32L73.70 39.43Q73.47 39.28 73.36 39.32L73.33 39.29L72.99 39.48L73.00 39.49Q71.71 39.38 70.72 38.89L70.66 38.83L70.41 36.86L70.42 36.87Q70.32 34.61 71.61 33.58L71.46 33.43L71.44 33.41Q72.46 32.33 74.86 32.06Z"/><path fill="#444" d="M123.43 39.92L123.28 39.77L123.44 39.93Q121.46 39.86 119.44 40.05L119.34 39.94L119.38 39.98Q120.05 34.75 120.05 29.92L120.03 29.90L120.09 29.96Q120.03 24.99 119.38 19.77L119.37 19.77L119.52 19.91Q114.77 19.34 111.57 17.67L111.57 17.67L110.83 15.91L110.89 15.96Q110.73 15.49 110.12 14.28L110.04 14.20L110.02 14.18Q115.23 17.00 121.25 17.19L121.10 17.03L121.09 17.03Q126.95 17.17 132.39 15.12L132.58 15.31L132.44 15.17Q131.80 16.66 131.16 18.49L131.12 18.46L131.24 18.57Q127.51 19.76 123.25 19.95L123.20 19.90L123.37 20.07Q123.08 25.00 123.08 29.95L123.14 30.01L123.08 29.94Q123.12 34.93 123.42 39.92ZM133.22 14.58L133.17 14.52L133.26 14.62Q127.25 16.72 121.04 16.53L121.12 16.60L121.13 16.61Q114.44 16.39 109.34 13.42L109.34 13.43L109.40 13.48Q110.10 14.71 111.39 17.99L111.43 18.03L111.42 18.02Q112.16 18.41 113.41 18.98L113.26 18.83L113.37 18.94Q113.51 19.53 113.85 21.06L114.03 21.23L113.94 21.15Q116.31 22.07 119.36 22.30L119.33 22.27L119.25 22.19Q119.64 25.90 119.64 29.66L119.61 29.63L119.70 29.72Q119.61 35.00 118.81 40.36L118.92 40.48L118.82 40.38Q120.60 40.37 121.14 40.37L121.05 40.29L121.08 40.32Q121.01 40.55 120.95 41.21L121.06 41.32L121.10 41.36Q120.88 41.86 120.88 42.21L120.88 42.21L120.95 42.28Q122.08 42.16 123.61 42.23L123.57 42.20L123.73 42.35Q124.65 42.40 126.48 42.55L126.35 42.43L126.40 42.48Q125.11 37.50 125.00 32.32L125.08 32.40L125.16 32.48Q124.94 27.09 125.48 22.18L125.37 22.07L125.45 22.15Q129.49 21.69 132.65 20.48L132.66 20.49L132.58 20.41Q133.24 17.99 134.27 15.93L134.35 16.01L134.24 15.91Q132.98 16.66 132.18 16.97L132.12 16.90L132.24 17.03Q132.67 15.74 133.24 14.60Z"/><path fill="#222" d="M48.31 27.65L48.33 27.67L48.46 27.80Q44.89 27.65 43.78 31.00L43.85 31.07L43.77 30.99Q43.43 32.10 43.32 33.17L43.31 33.16L43.24 33.09Q43.17 35.26 44.16 36.59L44.04 36.47L43.96 36.40Q45.34 37.62 47.82 37.66L47.87 37.72L47.95 37.80Q49.67 37.73 51.08 36.59L51.02 36.53L51.00 36.51Q52.46 35.42 52.46 33.63L52.48 33.65L52.44 33.61Q52.46 33.29 52.39 32.91L52.47 32.99L52.46 32.98Q52.22 27.83 48.41 27.75ZM48.30 40.21L48.25 40.15L48.25 40.15Q44.42 40.36 42.63 38.34L42.65 38.36L42.67 38.39Q42.47 39.44 42.02 40.81L41.97 40.77L41.91 40.71Q39.94 41.43 38.68 42.00L38.80 42.12L38.75 42.08Q41.03 36.21 41.03 29.70L41.06 29.73L40.90 29.57Q41.05 21.42 37.63 13.58L37.53 13.48L37.48 13.43Q39.82 14.78 41.15 15.24L41.25 15.34L41.25 15.34Q43.28 21.90 43.43 27.72L43.55 27.83L43.42 27.71Q44.93 25.10 48.66 25.14L48.72 25.21L48.65 25.14Q51.83 25.12 53.32 26.98L53.38 27.05L53.30 26.97Q55.27 29.39 55.42 32.97L55.38 32.93L55.42 32.97Q55.33 33.98 55.25 35.58L55.39 35.72L55.31 35.64Q55.31 37.12 54.43 38.26L54.42 38.25L54.49 38.33Q52.71 40.01 48.37 40.28ZM53.71 42.64L53.82 42.75L53.74 42.68Q55.31 42.76 56.79 42.07L56.68 41.96L56.80 42.08Q57.83 40.71 57.87 38.77L57.94 38.84L57.84 38.75Q58.00 38.41 57.85 37.23L57.71 37.09L57.78 37.16Q57.66 36.43 57.55 35.52L57.48 35.45L57.65 35.62Q56.75 30.76 55.19 28.70L55.15 28.67L55.28 28.79Q55.15 28.63 54.35 27.75L54.35 27.75L54.36 27.76Q54.20 27.57 53.67 26.77L53.68 26.77L53.70 26.80Q52.08 24.84 48.73 24.88L48.58 24.72L48.60 24.74Q46.62 24.85 45.36 25.46L45.42 25.53L45.29 25.40Q44.94 20.86 44.33 17.66L44.49 17.81L44.36 17.69Q43.68 17.58 42.20 17.20L42.14 17.14L42.10 17.10Q42.10 16.49 41.64 15.04L41.54 14.94L41.51 14.92Q39.18 14.22 36.94 12.66L36.82 12.55L36.93 12.65Q40.69 20.83 40.69 29.63L40.76 29.69L40.61 29.54Q40.65 36.55 38.17 42.75L38.25 42.84L38.15 42.73Q38.95 42.50 40.28 41.93L40.24 41.89L40.19 41.84Q40.07 42.70 39.46 44.23L39.44 44.21L39.38 44.15Q41.36 43.23 44.14 42.70L44.21 42.78L44.55 40.91L44.45 40.81Q46.91 42.65 53.83 42.77ZM50.09 30.12L49.92 29.95L49.94 29.97Q51.11 30.11 51.64 30.49L51.54 30.38L51.50 30.35Q51.89 30.93 52.12 32.95L52.13 32.96L52.13 32.96Q52.26 34.76 51.01 36.08L50.99 36.06L51.07 36.14Q49.80 37.44 47.86 37.32L47.86 37.32L47.95 37.41Q47.05 37.58 45.57 37.09L45.52 37.04L45.54 37.06Q45.30 36.56 45.30 36.02L45.29 36.01L45.31 36.03Q45.26 32.90 46.82 31.30L46.82 31.30L46.80 31.31L46.85 31.36Q48.22 29.92 49.98 30.00Z"/></svg>