<svg xmlns="http://www.w3.org/2000/svg" width="150" height="50" viewBox="0,0,150,50"><path fill="#111" d="M23.34 40.20L23.24 40.09L23.33 40.18Q21.44 40.08 19.76 40.65L19.76 40.65L19.79 40.68Q20.28 37.02 20.40 33.90L20.46 33.96L20.36 33.86Q20.56 30.91 20.33 27.25L20.30 27.22L20.27 27.19Q18.97 26.92 18.21 26.54L18.23 26.56L17.68 23.39L17.77 23.47Q18.53 24.11 20.13 24.68L20.21 24.77L20.19 24.75Q19.82 22.47 19.40 19.73L19.45 19.78L19.40 19.74Q21.83 20.57 23.47 20.41L23.37 20.32L23.37 25.04L23.34 25.00Q24.71 24.89 26.04 24.40L26.01 24.37L25.97 24.32Q26.10 25.40 25.87 27.15L25.73 27.01L25.87 27.15Q24.29 27.44 23.26 27.44L23.26 27.43L23.18 27.36Q23.28 29.63 23.28 33.90L23.21 33.82L23.26 33.87Q23.17 37.94 23.25 40.11ZM26.36 23.72L26.40 23.76L26.51 23.87Q26.27 24.01 25.66 24.24L25.63 24.22L25.93 21.35L26.01 21.43Q25.08 21.61 23.68 21.84L23.69 21.86L23.85 22.01Q23.73 21.20 23.88 19.83L24.01 19.96L23.96 19.92Q23.33 19.97 22.76 19.97L22.67 19.88L22.79 20.00Q20.64 19.99 19.01 19.26L18.93 19.19L19.04 19.30Q19.38 21.62 19.65 24.09L19.70 24.15L19.71 24.15Q18.89 23.87 17.37 22.84L17.38 22.85L17.35 22.82Q17.68 24.11 17.91 26.81L17.87 26.77L17.81 26.71Q18.27 26.94 19.45 27.35L19.53 27.44L19.43 27.34Q19.53 28.05 19.57 29.46L19.64 29.53L19.97 29.52L20.02 29.49L20.20 29.67Q20.04 30.69 20.04 31.87L20.11 31.94L20.13 31.96Q20.23 37.01 19.43 41.35L19.34 41.26L19.37 41.29Q19.60 41.22 21.54 40.68L21.38 40.52L21.47 40.61Q21.47 41.25 21.35 42.62L21.36 42.63L21.30 42.57Q22.26 42.65 23.06 42.65L22.97 42.56L23.01 42.61Q24.61 42.50 26.25 43.07L26.33 43.15L26.38 43.19Q25.03 37.47 25.22 29.55L25.12 29.45L27.55 29.10L27.66 29.21Q27.68 28.24 27.75 27.21L27.70 27.16L27.88 25.13L27.92 25.17Q27.33 25.42 26.15 25.87L26.12 25.85L26.19 25.92Q26.42 24.51 26.35 24.17L26.40 24.22L26.43 24.25Q26.30 23.93 26.37 23.74Z"/><path fill="#333" d="M70.42 27.69L70.37 27.63L70.35 27.61Q68.09 27.60 66.81 29.10L66.84 29.13L66.80 29.08Q65.58 30.65 65.46 32.93L65.57 33.04L65.48 32.95Q65.46 35.70 66.29 36.65L66.26 36.62L66.21 36.57Q67.34 37.85 69.66 37.70L69.72 37.76L69.66 37.70Q74.33 37.42 74.71 34.41L74.62 34.32L74.62 34.32Q74.68 33.46 74.68 32.66L74.79 32.78L74.77 32.76Q74.70 30.70 73.56 29.18L73.47 29.10L73.47 29.09Q72.24 27.52 70.30 27.56ZM75.15 37.67L75.26 37.78L75.17 37.69Q73.75 39.88 69.37 40.11L69.45 40.18L69.38 40.12Q65.27 40.35 63.64 39.25L63.52 39.13L63.58 39.19Q62.60 38.25 62.45 36.54L62.51 36.60L62.35 36.44Q62.45 35.47 62.64 33.61L62.53 33.50L62.60 33.56Q63.18 29.35 64.40 27.52L64.35 27.47L64.40 27.53Q65.87 24.89 69.72 24.92L69.86 25.06L69.76 24.96Q72.38 25.11 74.66 27.43L74.55 27.32L74.59 27.36Q74.75 21.59 76.35 15.08L76.39 15.12L76.33 15.06Q78.30 14.71 80.17 13.87L80.12 13.82L80.13 13.83Q77.51 20.42 77.24 27.42L77.12 27.31L77.14 27.32Q76.79 34.43 78.92 41.02L79.00 41.10L79.01 41.10Q77.43 40.56 75.72 40.18L75.73 40.18L75.61 40.06Q75.31 38.78 75.16 37.67ZM78.28 43.24L78.28 43.24L78.17 43.12Q80.38 43.81 82.93 45.33L82.86 45.26L82.99 45.39Q79.15 38.20 79.00 29.90L79.08 29.99L78.98 29.88Q78.92 21.76 82.00 14.37L81.92 14.29L81.88 14.25Q81.34 14.85 79.89 15.49L79.92 15.52L79.87 15.47Q80.28 14.40 80.89 13.18L80.79 13.08L80.78 13.07Q78.36 14.11 75.92 14.68L76.02 14.78L75.92 14.68Q74.55 20.55 74.29 26.64L74.15 26.50L74.28 26.63Q72.22 24.65 69.71 24.53L69.86 24.69L69.86 24.68Q66.30 24.44 64.40 26.53L64.40 26.54L64.44 26.58Q62.79 29.00 62.38 33.69L62.43 33.74L62.29 33.60Q61.99 36.31 61.99 36.73L62.12 36.86L62.11 36.84Q62.07 38.48 63.21 39.54L63.32 39.65L63.34 39.67Q63.47 39.81 63.66 39.89L63.69 39.91L64.19 40.60L64.11 40.53Q65.15 41.94 68.12 42.21L68.14 42.23L68.05 42.14Q70.29 42.33 71.66 42.40L71.61 42.35L71.74 42.48Q75.95 42.70 77.67 41.36L77.60 41.30L77.58 41.28Q77.73 42.00 78.19 43.14ZM72.00 29.95L71.97 29.92L71.90 29.85Q73.12 30.04 73.96 30.53L73.95 30.53L73.83 30.41Q74.24 31.62 74.32 32.64L74.37 32.70L74.39 32.72Q74.64 36.89 69.61 37.23L69.78 37.40L69.67 37.29Q68.87 37.40 67.77 37.14L67.71 37.08L67.62 36.98Q67.49 36.48 67.41 35.94L67.49 36.02L67.42 35.95Q67.29 35.22 67.33 34.61L67.43 34.71L67.34 34.62Q67.78 31.33 70.41 30.34L70.38 30.31L70.37 30.30Q71.25 29.84 71.93 29.88Z"/><path fill="#333" d="M124.93 41.29L124.88 41.24L121.88 41.10L121.84 41.05Q119.55 41.05 118.75 40.93L118.61 40.79L118.73 40.92Q116.90 40.57 115.72 39.69L115.62 39.59L115.66 39.64Q114.33 38.19 114.10 34.84L114.19 34.93L114.19 34.93Q114.20 34.48 114.13 33.27L114.07 33.21L114.05 33.19Q114.06 32.78 113.98 31.68L114.05 31.74L113.88 31.58Q114.02 30.92 114.06 30.19L114.02 30.15L113.97 30.10Q114.11 28.11 115.14 27.35L115.18 27.39L115.15 27.36Q117.04 26.17 121.87 25.94L121.87 25.94L122.01 26.08Q123.99 25.92 124.79 25.92L124.80 25.94L124.84 25.97Q126.21 25.86 127.58 26.16L127.72 26.30L127.54 26.12Q127.00 27.41 126.47 29.24L126.49 29.26L126.50 29.27Q126.05 29.39 125.56 29.35L125.61 29.41L125.56 29.36Q125.49 29.36 124.96 29.25L124.98 29.28L123.88 28.90L124.03 29.05Q122.82 28.64 122.21 28.67L122.23 28.70L122.23 28.69Q117.58 28.84 116.97 31.66L117.00 31.69L116.98 31.66Q116.65 32.75 116.73 33.70L116.73 33.70L116.74 33.71Q116.87 36.28 118.11 37.36L118.24 37.49L118.15 37.41Q119.38 38.48 121.97 38.52L122.04 38.59L121.95 38.50Q123.50 38.60 124.22 38.30L124.18 38.26L125.10 37.66L125.21 37.77Q125.69 37.48 126.26 37.41L126.28 37.42L126.36 37.51Q126.58 39.28 126.96 40.58L126.83 40.46L126.89 40.51Q126.72 40.95 124.93 41.29ZM128.07 44.13L128.12 44.18L128.04 44.10Q128.60 44.31 129.43 44.39L129.39 44.34L129.33 44.28Q129.92 44.26 130.26 43.69L130.27 43.70L130.35 43.78Q129.12 41.68 128.63 39.58L128.56 39.52L128.71 39.66Q128.28 39.54 127.83 39.54L127.76 39.48L127.81 39.53Q127.31 39.44 126.93 39.63L126.99 39.70L127.08 39.79Q126.61 38.40 126.46 37.00L126.55 37.08L126.60 37.14Q125.89 36.96 124.68 37.54L124.62 37.48L124.70 37.56Q123.42 38.07 122.92 38.07L123.02 38.17L123.04 38.18Q122.58 38.22 121.97 38.18L122.02 38.23L121.91 38.12Q120.94 38.02 118.96 37.45L119.11 37.60L119.10 37.59Q118.75 36.86 118.78 35.72L118.63 35.56L118.79 35.72Q118.84 31.35 123.79 30.82L123.83 30.87L123.78 30.81Q124.59 30.94 125.96 31.28L125.90 31.22L125.86 31.18Q127.22 31.52 127.95 31.48L128.09 31.62L127.98 31.51Q128.35 29.22 129.03 27.39L129.03 27.39L129.11 27.47Q128.70 27.32 128.32 27.24L128.31 27.24L127.53 27.14L127.64 27.25Q127.78 26.70 128.16 25.83L128.17 25.84L128.08 25.75Q126.58 25.43 125.02 25.43L125.16 25.57L125.03 25.44Q122.78 25.58 118.40 25.97L118.37 25.94L118.36 25.93Q116.37 26.04 114.81 27.03L114.87 27.08L114.74 26.95Q113.66 28.04 113.66 29.95L113.56 29.84L113.54 29.83Q113.51 30.22 113.63 31.44L113.65 31.46L113.62 31.43Q113.83 32.59 113.79 33.20L113.65 33.06L113.82 33.23Q113.79 35.06 114.51 38.79L114.56 38.84L114.49 38.77Q114.87 39.61 115.37 40.10L115.44 40.17L115.70 40.44L115.70 40.40L115.61 40.31Q116.63 42.43 120.55 43.04L120.55 43.04L120.68 43.17Q123.76 43.58 126.42 43.85L126.41 43.84L126.46 43.89Q127.15 43.85 128.06 44.12Z"/><path fill="#111" d="M45.73 29.85L45.74 29.86L45.67 29.79Q45.42 29.77 45.12 29.77L45.12 29.77L45.10 29.75Q43.84 29.82 42.39 30.66L42.49 30.76L42.41 30.68Q41.01 31.71 41.01 33.61L41.07 33.68L40.99 33.60Q41.02 37.05 42.54 38.38L42.65 38.50L42.60 38.44Q43.52 39.59 45.81 39.59L45.80 39.58L45.79 39.58Q46.00 39.56 46.30 39.56L46.31 39.56L46.32 39.58Q48.17 39.71 49.31 38.07L49.18 37.94L49.34 38.10Q50.37 36.58 50.29 34.79L50.13 34.63L50.21 34.71Q50.19 34.16 50.19 33.74L50.24 33.79L50.21 33.75Q50.38 32.14 49.01 30.98L48.96 30.93L48.97 30.94Q47.45 29.63 45.66 29.78ZM50.27 40.06L50.24 40.03L50.33 40.12Q49.18 41.90 45.45 42.01L45.48 42.04L45.46 42.03Q42.11 42.18 40.51 40.58L40.51 40.58L40.56 40.63Q39.03 38.79 38.23 33.99L38.21 33.98L38.18 33.95Q38.03 32.35 38.03 31.10L37.91 30.98L37.91 30.97Q37.91 29.18 38.63 28.12L38.67 28.16L38.73 28.21Q40.07 26.81 43.04 26.81L43.05 26.82L43.02 26.80Q49.41 26.87 51.32 29.46L51.33 29.47L51.21 29.35Q51.41 28.56 51.83 26.96L51.88 27.02L51.82 26.96Q53.02 26.59 55.45 25.79L55.56 25.90L55.45 25.79Q53.16 31.57 52.93 37.89L52.82 37.77L52.93 37.88Q52.73 44.08 54.86 49.90L54.71 49.75L54.69 49.73Q53.11 49.26 51.32 48.99L51.22 48.89L51.21 48.88Q50.42 45.05 50.31 40.10ZM50.92 49.17L50.95 49.19L51.08 49.32Q51.64 49.31 53.05 49.61L53.05 49.61L53.22 49.79Q53.43 50.49 54.00 51.90L53.95 51.85L53.90 51.80Q56.48 52.51 58.76 53.81L58.73 53.77L58.79 53.84Q54.74 47.23 54.74 38.70L54.87 38.83L54.73 38.70Q54.74 32.34 57.21 26.56L57.15 26.50L57.31 26.66Q56.52 26.86 55.15 27.50L55.24 27.59L55.15 27.50Q55.41 26.66 56.06 25.10L56.11 25.16L56.16 25.21Q54.56 25.70 51.36 26.57L51.47 26.68L51.41 26.62Q51.24 27.13 50.93 28.31L51.01 28.39L51.00 28.38Q49.01 26.51 42.88 26.35L42.78 26.26L42.84 26.31Q39.74 26.34 38.37 27.82L38.24 27.69L38.32 27.77Q37.59 28.94 37.63 30.84L37.52 30.74L37.56 30.78Q37.62 33.73 38.61 37.49L38.69 37.58L38.70 37.59Q39.32 39.96 40.24 40.92L40.28 40.96L40.60 41.27L40.67 41.35Q41.70 43.98 47.14 44.20L47.28 44.35L47.28 44.34Q48.30 44.37 50.12 44.06L50.14 44.08L50.19 44.13Q50.40 46.97 51.01 49.26ZM47.64 32.18L47.65 32.19L47.59 32.12Q48.63 32.10 49.47 32.41L49.46 32.40L49.51 32.45Q49.81 33.09 49.92 33.70L49.88 33.66L49.91 33.68Q49.94 34.18 49.87 34.79L49.95 34.87L49.89 34.80Q49.89 36.71 48.86 38.00L48.92 38.07L48.87 38.02Q47.77 39.50 45.90 39.31L45.86 39.27L45.75 39.16Q44.55 39.26 43.60 38.84L43.62 38.85L43.51 38.74Q43.33 38.11 43.33 36.89L43.26 36.82L43.23 36.79Q43.20 36.45 43.20 36.15L43.27 36.22L43.18 36.13Q43.14 34.34 44.47 33.18L44.53 33.23L44.62 33.32Q45.97 32.18 47.72 32.26Z"/><path fill="#222" d="M92.56 33.24L92.59 33.28L92.57 33.26Q92.41 36.07 91.23 40.71L91.25 40.73L91.21 40.69Q89.59 41.39 87.99 42.19L87.86 42.06L87.81 42.01Q90.44 35.01 90.17 27.59L90.16 27.57L90.22 27.63Q89.88 20.17 86.79 13.43L86.92 13.56L86.93 13.56Q88.90 14.85 90.76 15.42L90.78 15.44L90.68 15.34Q92.84 22.33 92.84 29.00L92.85 29.00L92.87 29.02Q92.83 30.43 92.75 31.91L92.71 31.88L92.81 31.98Q94.00 30.80 99.21 25.85L99.12 25.76L99.08 25.71Q100.20 25.73 101.19 25.66L101.24 25.71L103.34 25.57L103.22 25.44Q100.06 28.45 95.76 32.22L95.95 32.41L95.94 32.40Q99.25 35.10 105.72 40.93L105.58 40.78L105.60 40.81Q103.02 40.05 100.05 39.86L100.03 39.84L100.05 39.86Q97.50 37.73 92.63 33.31ZM102.43 42.39L102.55 42.51L102.59 42.55Q107.26 43.34 110.38 45.28L110.33 45.22L110.45 45.35Q109.25 44.04 106.63 41.64L106.52 41.53L106.45 41.47Q106.84 41.70 107.11 41.82L107.04 41.75L106.96 41.67Q104.89 39.67 102.64 37.77L102.63 37.76L98.19 33.85L98.37 34.03Q103.20 29.69 105.64 26.80L105.70 26.86L105.60 26.75Q104.50 26.95 102.03 27.22L102.02 27.21L102.03 27.22Q103.51 25.65 104.19 24.82L104.32 24.94L104.33 24.96Q101.41 25.31 98.94 25.31L99.09 25.46L98.98 25.35Q97.59 26.66 94.84 29.32L94.91 29.39L94.84 29.32Q94.93 23.62 93.94 17.80L93.80 17.66L93.84 17.70Q93.18 17.57 91.70 17.31L91.74 17.35L91.72 17.33Q91.56 16.60 91.10 15.12L91.03 15.04L91.04 15.05Q88.37 14.20 86.12 12.64L86.26 12.78L86.21 12.73Q89.59 19.50 89.93 27.61L89.94 27.62L89.90 27.58Q90.19 35.45 87.19 42.68L87.20 42.70L87.32 42.81Q87.99 42.50 89.33 41.85L89.33 41.86L89.26 41.79Q89.16 42.75 88.52 44.20L88.40 44.08L88.39 44.08Q91.32 43.08 93.45 42.70L93.32 42.57L93.41 42.66Q93.85 40.02 94.34 35.75L94.54 35.94L94.35 35.76Q96.98 38.05 102.42 42.39Z"/></svg>