<svg xmlns="http://www.w3.org/2000/svg" width="150" height="50" viewBox="0,0,150,50"><path fill="#444" d="M115.72 19.23L115.58 19.09L115.76 19.27Q116.82 23.68 116.97 26.88L117.04 26.95L116.86 26.77Q117.55 27.00 121.93 27.12L121.81 27.00L121.87 27.06Q124.29 26.97 124.67 23.50L124.74 23.57L124.79 23.62Q125.00 21.88 124.08 20.97L124.00 20.88L123.99 20.87Q122.82 20.09 120.84 19.94L120.68 19.78L120.77 19.87Q117.49 19.59 115.62 19.13ZM117.02 28.76L117.03 28.77L117.12 28.86Q117.26 34.83 115.48 40.76L115.43 40.72L115.52 40.80Q114.18 41.03 111.59 42.05L111.55 42.02L111.61 42.08Q114.53 35.67 114.19 28.21L114.17 28.19L114.03 28.05Q113.73 20.71 110.42 14.20L110.45 14.23L110.55 14.33Q115.26 16.99 122.23 16.99L122.27 17.02L122.42 17.18Q128.01 17.13 128.27 20.67L128.26 20.66L128.19 20.59Q128.21 21.14 128.13 21.75L128.16 21.77L128.12 22.95L128.17 23.00Q127.37 26.96 125.24 28.68L125.09 28.52L125.12 28.56Q124.33 29.25 123.30 29.25L123.36 29.30L120.81 29.35L120.86 29.40Q126.31 36.48 130.84 41.05L130.87 41.08L130.81 41.03Q128.63 40.29 125.70 39.95L125.79 40.04L125.75 40.00Q122.04 36.10 117.13 28.86ZM125.68 40.43L125.73 40.48L126.02 40.46L127.21 41.64L127.14 41.58Q127.86 42.26 128.51 42.87L128.48 42.85L128.43 42.79Q131.96 43.40 135.54 45.26L135.56 45.28L135.57 45.28Q128.58 38.49 123.17 31.56L123.10 31.49L124.87 31.51L124.92 31.56Q127.95 31.50 129.28 26.97L129.44 27.13L129.46 27.14Q130.06 24.86 130.06 22.16L130.04 22.13L130.10 22.19Q130.04 19.85 128.33 19.20L128.25 19.12L128.43 19.30Q128.24 18.85 127.67 18.16L127.56 18.05L127.57 18.06Q125.89 16.61 122.24 16.54L122.24 16.54L122.39 16.69Q114.53 16.56 109.84 13.55L109.74 13.44L109.75 13.45Q113.45 20.23 113.79 27.92L113.75 27.88L113.90 28.03Q114.18 35.93 111.06 42.78L111.06 42.79L111.03 42.76Q112.36 42.26 113.16 41.95L113.08 41.87L112.08 44.14L112.14 44.20Q114.91 43.21 117.58 42.72L117.51 42.64L117.48 42.62Q118.81 37.55 119.00 32.34L118.98 32.31L118.90 32.24Q122.48 37.27 125.64 40.39ZM124.46 22.53L124.40 22.47L124.39 22.46Q124.47 22.77 124.47 23.11L124.46 23.10L124.39 23.60L124.42 23.63Q124.32 24.64 123.64 25.59L123.83 25.78L123.76 25.71Q123.09 26.41 122.18 26.60L122.22 26.64L122.25 26.67Q121.95 26.64 120.35 26.68L120.41 26.74L120.43 26.76Q119.86 26.80 119.02 26.69L118.91 26.57L118.94 26.60Q118.84 25.09 118.49 22.05L118.58 22.13L118.55 22.10Q119.84 22.17 120.52 22.17L120.62 22.27L120.69 22.34Q122.45 22.27 124.39 22.46Z"/><path fill="#222" d="M21.00 29.79L21.00 29.78L21.05 29.83Q20.89 29.90 20.58 29.90L20.56 29.87L20.45 29.77Q19.16 29.81 17.71 30.65L17.71 30.65L17.74 30.67Q16.37 31.74 16.37 33.64L16.35 33.62L16.37 33.65Q16.35 37.05 17.88 38.39L17.95 38.46L17.84 38.35Q18.85 39.59 21.14 39.59L21.08 39.53L21.23 39.68Q21.43 39.65 21.73 39.65L21.70 39.62L21.83 39.76Q23.54 39.75 24.68 38.11L24.51 37.94L24.67 38.10Q25.56 36.43 25.48 34.64L25.61 34.77L25.54 34.70Q25.68 34.32 25.68 33.90L25.53 33.74L25.66 33.88Q25.58 32.01 24.21 30.85L24.29 30.93L24.32 30.95Q22.93 29.77 21.14 29.92ZM25.67 40.13L25.67 40.13L25.49 39.95Q24.62 42.01 20.89 42.12L20.80 42.03L20.82 42.05Q17.41 42.14 15.81 40.54L15.89 40.63L15.88 40.61Q14.31 38.74 13.51 33.95L13.58 34.01L13.65 34.08Q13.31 32.30 13.31 31.04L13.22 30.96L13.33 31.06Q13.27 29.21 13.99 28.15L14.06 28.21L13.94 28.09Q15.44 26.85 18.41 26.85L18.43 26.88L18.28 26.72Q24.74 26.86 26.64 29.45L26.63 29.44L26.47 29.28Q26.69 28.51 27.11 26.91L27.24 27.04L27.26 27.06Q28.35 26.58 30.78 25.79L30.95 25.95L30.89 25.89Q28.37 31.44 28.14 37.76L28.30 37.93L28.30 37.92Q27.91 43.92 30.04 49.75L30.17 49.88L30.20 49.91Q28.32 49.14 26.53 48.87L26.51 48.85L26.51 48.85Q25.70 45.00 25.59 40.05ZM26.25 49.16L26.28 49.19L26.27 49.18Q27.04 49.38 28.45 49.69L28.57 49.81L28.53 49.77Q28.67 50.39 29.24 51.80L29.26 51.83L29.26 51.83Q31.87 52.57 34.16 53.87L34.09 53.80L34.20 53.91Q30.10 47.26 30.10 38.74L30.19 38.82L30.09 38.72Q30.10 32.37 32.57 26.59L32.56 26.58L32.68 26.70Q31.83 26.83 30.46 27.48L30.48 27.50L30.56 27.58Q30.85 26.77 31.50 25.21L31.43 25.14L31.54 25.25Q29.99 25.79 26.79 26.67L26.84 26.71L26.84 26.72Q26.70 27.26 26.39 28.44L26.39 28.43L26.32 28.36Q24.36 26.52 18.23 26.36L18.10 26.24L18.23 26.37Q14.92 26.18 13.55 27.66L13.58 27.70L13.61 27.73Q12.80 28.81 12.83 30.72L12.95 30.84L12.96 30.85Q12.96 33.74 13.95 37.51L14.08 37.64L13.98 37.53Q14.68 39.99 15.59 40.94L15.57 40.91L15.87 41.22L15.88 41.23Q17.11 44.05 22.55 44.28L22.53 44.26L22.54 44.27Q23.60 44.33 25.42 44.03L25.44 44.04L25.35 43.96Q25.75 46.98 26.36 49.26ZM23.02 32.22L23.04 32.25L22.85 32.06Q24.16 32.29 24.99 32.60L24.89 32.50L24.96 32.56Q25.17 33.12 25.29 33.73L25.13 33.57L25.11 33.56Q25.29 34.19 25.22 34.80L25.17 34.75L25.15 34.73Q25.25 36.74 24.22 38.03L24.17 37.98L24.21 38.02Q23.08 39.48 21.21 39.29L21.14 39.21L21.08 39.15Q19.96 39.33 19.01 38.91L19.01 38.91L18.96 38.86Q18.57 38.01 18.57 36.79L18.67 36.90L18.62 36.85Q18.53 36.45 18.53 36.14L18.46 36.08L18.62 36.23Q18.49 34.36 19.82 33.20L19.79 33.16L19.94 33.31Q21.21 32.09 22.96 32.16Z"/><path fill="#222" d="M72.68 40.09L72.66 40.07L70.54 40.23L70.62 40.31Q70.13 40.27 69.15 40.33L69.23 40.40L69.22 40.40Q68.22 40.42 67.72 40.42L67.64 40.33L67.77 40.47Q66.14 40.47 65.11 39.64L65.04 39.56L65.06 39.58Q65.79 38.42 67.43 36.28L67.56 36.41L67.52 36.38Q68.73 37.89 70.94 37.67L70.85 37.58L70.99 37.71Q71.85 37.55 72.50 36.90L72.44 36.84L72.56 36.96Q73.07 36.18 72.96 35.30L73.03 35.38L73.13 35.47Q73.00 30.86 73.08 26.29L73.11 26.32L73.06 26.27Q73.05 21.61 73.58 17.01L73.65 17.07L73.57 16.99Q75.55 16.84 77.68 15.81L77.72 15.86L77.74 15.88Q75.85 22.59 75.85 29.82L75.81 29.78L75.69 29.66Q75.79 33.30 76.25 36.80L76.17 36.73L76.29 36.84Q76.37 37.19 76.37 37.54L76.23 37.39L76.27 37.43Q76.41 38.14 76.18 38.68L76.16 38.65L76.17 38.66Q75.50 39.82 72.68 40.09ZM77.65 42.96L77.64 42.96L78.10 43.07L78.33 42.88L78.50 42.68L78.55 42.73Q78.74 42.34 78.82 42.23L78.86 42.27L78.98 42.39Q79.06 41.10 78.79 40.11L78.88 40.20L78.91 40.23Q77.58 34.44 77.85 28.09L77.82 28.05L77.74 27.98Q77.96 21.84 79.75 15.94L79.76 15.95L79.74 15.93Q78.84 16.55 77.58 17.28L77.68 17.38L77.72 17.41Q77.92 16.66 78.34 15.14L78.25 15.05L78.29 15.09Q75.80 16.45 73.14 16.75L73.11 16.72L73.00 16.62Q72.84 21.22 72.77 26.16L72.69 26.09L72.72 26.12Q72.53 31.91 72.61 35.34L72.58 35.30L72.58 35.31Q72.74 37.18 70.99 37.33L70.99 37.34L70.90 37.24Q69.20 37.37 67.53 35.73L67.60 35.81L67.64 35.84Q65.42 38.19 64.46 39.75L64.52 39.81L64.48 39.76Q65.22 40.51 66.25 40.74L66.24 40.73L66.29 40.77Q66.20 40.92 65.94 41.15L65.95 41.16L65.82 41.03Q67.43 42.15 69.41 42.41L69.37 42.37L69.36 42.36Q69.76 42.43 73.06 42.73L72.96 42.63L73.02 42.69Q76.22 42.90 77.59 42.90Z"/><path fill="#444" d="M89.17 15.92L89.06 15.81L89.10 15.85Q90.92 20.64 91.49 25.81L91.60 25.93L91.54 25.87Q95.22 21.70 101.12 16.87L101.15 16.90L101.23 16.98Q104.39 16.64 107.02 15.84L107.05 15.87L100.36 21.37L100.41 21.41Q97.00 24.36 94.15 27.22L94.16 27.23L94.24 27.31Q102.14 36.39 107.20 41.11L107.12 41.03L107.19 41.10Q104.13 40.20 101.80 40.05L101.78 40.03L101.72 39.97Q96.01 34.64 91.71 28.82L91.73 28.84L91.69 28.80Q91.81 35.43 89.95 40.76L89.98 40.79L89.86 40.67Q89.79 40.87 89.29 41.06L89.19 40.95L89.18 41.13L89.27 41.22Q89.07 41.25 86.51 42.16L86.38 42.03L86.53 42.18Q89.46 35.59 89.11 28.12L88.94 27.95L88.98 27.99Q88.71 20.72 85.17 14.21L85.27 14.31L85.81 14.58L86.22 14.88L86.27 14.89L86.09 14.71Q86.97 15.25 89.18 15.93ZM89.33 15.51L89.31 15.49L89.39 15.57Q87.10 14.99 84.47 13.47L84.46 13.46L84.54 13.54Q88.68 20.69 88.68 29.63L88.83 29.78L88.79 29.74Q88.84 36.79 85.87 42.85L85.70 42.68L87.85 41.93L87.76 41.84Q87.35 42.84 86.66 44.13L86.80 44.27L86.80 44.28Q89.07 43.50 91.01 43.08L90.99 43.06L90.93 42.77L90.92 42.76Q91.30 42.83 91.87 42.68L91.78 42.59L91.82 42.63Q93.50 36.74 93.62 31.94L93.56 31.89L93.53 31.85Q95.61 34.36 97.44 36.22L97.59 36.37L97.59 36.37Q98.67 37.38 101.68 40.34L101.80 40.47L101.81 40.48L101.66 40.33Q102.80 41.28 104.67 42.88L104.62 42.83L104.53 42.74Q108.51 43.56 111.97 45.27L112.01 45.31L111.89 45.19Q102.58 36.60 96.33 29.18L96.40 29.24L96.46 29.30Q100.92 25.08 109.67 16.48L109.60 16.40L109.59 16.39Q107.06 17.56 105.05 17.94L105.06 17.96L105.01 17.90Q106.33 17.02 108.66 15.00L108.49 14.83L108.55 14.90Q104.46 16.33 101.11 16.52L101.10 16.50L101.20 16.61Q98.16 18.71 93.29 23.39L93.33 23.44L93.33 23.44Q92.84 20.74 92.27 18.19L92.39 18.31L92.34 18.26Q91.10 18.04 90.11 17.70L90.12 17.70L90.19 17.78Q89.99 17.05 89.42 15.60Z"/><path fill="#333" d="M50.30 27.22L50.21 27.13L50.31 27.23Q51.01 27.14 52.42 26.98L52.54 27.10L52.36 26.92Q52.49 27.74 52.49 28.39L52.41 28.31L52.37 29.52L52.52 29.67Q51.64 29.63 50.80 29.71L50.77 29.67L50.80 29.70Q49.81 29.59 48.97 29.55L49.13 29.71L49.10 29.68Q46.31 35.91 42.88 40.52L42.74 40.38L42.69 40.32Q40.27 41.06 38.97 41.67L39.07 41.76L39.02 41.72Q43.13 36.00 46.18 29.72L46.17 29.71L43.42 29.59L43.46 29.64Q43.51 28.35 43.39 27.01L43.37 26.99L43.45 27.08Q45.24 27.12 47.30 27.12L47.32 27.13L49.27 23.49L49.26 23.48Q50.24 21.57 51.46 19.97L51.46 19.97L51.55 20.06Q49.90 20.12 48.30 20.12L48.35 20.17L48.40 20.23Q42.13 20.05 38.37 17.84L38.36 17.84L37.84 16.25L37.72 16.13Q37.44 15.36 37.06 14.48L37.01 14.43L37.08 14.50Q41.39 17.10 47.10 17.33L47.15 17.38L47.21 17.44Q52.30 17.61 57.44 15.63L57.49 15.68L57.35 15.54Q57.17 15.97 56.67 16.85L56.70 16.87L56.63 16.81Q53.01 21.56 50.16 27.08ZM58.40 18.34L58.38 18.33L59.23 16.17L59.26 16.19Q58.34 16.72 56.66 17.45L56.73 17.52L56.80 17.08L56.79 17.08Q56.99 17.01 57.10 16.89L57.06 16.85L57.02 16.81Q57.40 16.12 58.12 14.79L58.28 14.95L58.21 14.88Q52.95 17.24 47.20 17.01L47.03 16.83L47.22 17.02Q41.12 16.67 36.36 13.70L36.33 13.67L36.39 13.73Q37.31 15.49 38.15 18.16L38.24 18.25L38.17 18.18Q39.24 18.79 40.04 19.09L40.18 19.24L40.08 19.13Q40.34 19.58 40.80 21.45L40.76 21.41L40.81 21.46Q43.91 22.66 49.43 22.51L49.50 22.58L49.34 22.42Q49.19 23.14 47.21 26.91L47.14 26.84L47.05 26.75Q45.16 26.92 43.18 26.73L43.14 26.68L43.08 26.63Q43.19 27.50 43.19 28.37L43.10 28.28L43.07 29.97L44.89 30.11L44.86 31.49L44.82 31.45Q41.00 38.94 38.22 42.52L38.14 42.44L38.22 42.52Q39.82 41.76 41.46 41.26L41.30 41.10L41.43 41.23Q40.67 42.08 39.30 43.79L39.29 43.78L39.37 43.86Q42.55 42.77 44.98 42.54L44.98 42.53L44.96 42.52Q47.92 38.78 51.04 32.00L50.90 31.86L54.32 32.04L54.37 32.10Q54.38 31.26 54.38 30.35L54.35 30.33L54.38 28.56L54.31 28.50Q53.97 28.42 53.42 28.45L53.58 28.62L53.49 28.53Q52.99 28.62 52.72 28.62L52.77 28.66L52.64 28.53Q52.78 28.56 52.82 28.41L52.77 28.37L52.67 27.99L52.77 28.09Q55.19 22.86 58.27 18.22Z"/></svg>