<svg xmlns="http://www.w3.org/2000/svg" width="150" height="50" viewBox="0,0,150,50"><path fill="#222" d="M45.54 28.90L45.56 28.92L45.49 28.84Q43.11 29.02 42.08 30.20L41.93 30.04L41.94 30.06Q41.05 31.37 41.05 34.00L40.90 33.85L40.91 33.86Q40.98 39.03 45.59 38.84L45.66 38.91L45.57 38.82Q47.66 39.01 49.01 37.45L49.08 37.52L49.04 37.48Q50.27 35.80 50.04 33.74L50.16 33.86L50.16 33.86Q50.04 31.19 49.16 30.16L49.18 30.18L49.25 30.25Q47.84 28.99 45.63 28.99ZM50.63 38.74L50.50 38.61L50.68 38.79Q49.40 41.17 44.72 41.17L44.81 41.26L43.36 41.26L43.31 41.21Q40.98 41.24 39.88 40.10L39.75 39.97L39.83 40.05Q38.82 39.04 38.55 36.64L38.62 36.71L38.51 36.60Q38.37 35.12 38.29 33.33L38.38 33.43L38.36 33.40Q38.28 32.38 38.13 30.43L38.02 30.33L38.20 30.51Q38.08 26.20 43.26 26.20L43.09 26.03L44.72 26.10L44.72 26.10Q47.64 26.12 49.73 27.42L49.71 27.39L49.71 27.40Q50.59 27.97 51.08 28.65L51.01 28.58L51.08 28.65Q51.23 27.73 51.76 26.09L51.84 26.17L51.83 26.17Q53.00 25.93 55.33 25.32L55.38 25.37L55.38 25.37Q52.81 29.62 52.81 34.88L52.76 34.82L52.77 34.83Q52.84 38.63 54.21 41.72L54.21 41.72L54.23 41.74Q52.91 41.26 51.01 41.03L50.99 41.01L51.04 41.05Q50.82 40.20 50.52 38.64ZM53.91 43.93L53.97 43.99L56.10 44.48L56.09 44.47Q57.24 44.70 58.23 45.16L58.29 45.23L58.27 45.20Q54.67 40.92 54.67 34.83L54.75 34.91L54.62 34.78Q54.75 30.38 56.88 26.57L56.81 26.50L56.79 26.48Q56.21 26.78 54.88 27.16L54.72 27.00L54.78 27.06Q55.23 26.40 56.10 24.88L56.01 24.78L55.95 24.73Q55.52 25.06 51.52 25.90L51.48 25.85L50.95 27.72L50.90 27.67Q49.15 25.95 44.73 25.73L44.70 25.69L44.62 25.61Q43.61 25.74 41.36 25.90L41.37 25.90L41.41 25.94Q37.66 26.23 37.77 30.26L37.73 30.22L37.74 30.23Q37.83 33.52 38.40 37.97L38.43 38.00L38.57 38.56L38.56 38.55Q38.51 39.22 39.31 40.33L39.46 40.48L39.48 40.50Q39.53 40.55 39.72 40.67L39.66 40.61L39.84 40.78Q39.97 41.14 40.35 41.71L40.42 41.79L40.30 41.67Q41.89 43.37 45.28 43.56L45.13 43.41L45.17 43.45Q46.87 43.63 47.03 43.63L46.95 43.56L48.55 43.59L48.53 43.57Q51.75 43.59 52.96 42.03L52.99 42.06L53.00 42.07Q53.38 42.71 53.99 44.01ZM47.26 31.08L47.39 31.20L47.45 31.26Q48.79 31.27 49.62 31.72L49.49 31.59L49.44 31.54Q49.84 32.43 49.84 33.88L49.82 33.86L49.89 33.93Q50.10 35.86 48.83 37.29L48.67 37.12L48.82 37.27Q47.57 38.73 45.66 38.54L45.61 38.49L45.60 38.48Q44.03 38.35 43.00 37.93L43.12 38.05L43.09 38.02Q42.86 37.14 42.86 35.93L43.00 36.06L42.93 36.00Q43.11 32.52 45.73 31.56L45.71 31.54L45.71 31.55Q46.52 31.14 47.32 31.14Z"/><path fill="#333" d="M21.12 29.90L21.08 29.87L21.17 29.96Q20.89 29.90 20.59 29.90L20.55 29.87L20.48 29.80Q19.16 29.81 17.72 30.65L17.69 30.62L17.72 30.66Q16.37 31.75 16.37 33.65L16.34 33.61L16.35 33.63Q16.42 37.12 17.94 38.45L17.97 38.48L18.03 38.54Q18.79 39.53 21.07 39.53L21.20 39.65L21.25 39.70Q21.51 39.73 21.81 39.73L21.83 39.75L21.78 39.70Q23.40 39.61 24.54 37.97L24.49 37.92L24.55 37.98Q25.54 36.42 25.47 34.63L25.63 34.80L25.59 34.75Q25.54 34.17 25.54 33.75L25.53 33.74L25.57 33.78Q25.60 32.02 24.23 30.86L24.25 30.88L24.19 30.82Q22.86 29.70 21.07 29.86ZM25.50 39.96L25.67 40.13L25.62 40.08Q24.54 41.93 20.81 42.04L20.92 42.15L20.87 42.10Q17.36 42.09 15.76 40.49L15.79 40.53L15.80 40.53Q14.36 38.79 13.56 33.99L13.54 33.98L13.62 34.05Q13.37 32.36 13.37 31.10L13.26 30.99L13.34 31.07Q13.23 29.17 13.95 28.10L13.98 28.13L13.98 28.13Q15.44 26.85 18.41 26.85L18.37 26.81L18.34 26.78Q24.71 26.84 26.62 29.43L26.66 29.47L26.55 29.36Q26.68 28.49 27.09 26.89L27.11 26.91L27.23 27.03Q28.35 26.59 30.79 25.79L30.78 25.78L30.79 25.79Q28.41 31.48 28.18 37.80L28.24 37.87L28.18 37.80Q28.06 44.08 30.19 49.91L30.18 49.89L30.19 49.90Q28.33 49.14 26.54 48.87L26.55 48.88L26.60 48.94Q25.72 45.01 25.61 40.06ZM26.25 49.16L26.32 49.23L26.32 49.23Q27.16 49.50 28.57 49.80L28.49 49.72L28.53 49.76Q28.77 50.49 29.34 51.90L29.29 51.85L29.33 51.89Q31.77 52.47 34.05 53.76L34.05 53.76L34.17 53.88Q30.14 47.30 30.14 38.78L30.16 38.79L30.06 38.69Q30.18 32.46 32.66 26.67L32.65 26.66L32.67 26.68Q31.98 26.99 30.61 27.63L30.46 27.48L30.44 27.46Q30.76 26.68 31.41 25.12L31.41 25.12L31.51 25.22Q30.02 25.82 26.82 26.70L26.85 26.73L26.71 26.59Q26.67 27.23 26.36 28.41L26.34 28.38L26.43 28.47Q24.31 26.47 18.18 26.32L18.28 26.42L18.12 26.26Q15.00 26.26 13.63 27.74L13.72 27.83L13.67 27.79Q12.87 28.89 12.91 30.80L12.97 30.85L12.88 30.77Q12.93 33.71 13.92 37.48L14.00 37.55L13.97 37.53Q14.60 39.91 15.51 40.86L15.60 40.94L15.95 41.29L15.87 41.21Q17.14 44.08 22.58 44.31L22.53 44.26L22.50 44.23Q23.68 44.42 25.51 44.11L25.47 44.08L25.37 43.98Q25.75 46.99 26.36 49.27ZM22.96 32.17L22.93 32.13L22.91 32.12Q23.99 32.13 24.83 32.43L24.98 32.59L24.83 32.43Q25.14 33.09 25.25 33.69L25.23 33.67L25.16 33.60Q25.19 34.09 25.12 34.70L25.12 34.71L25.22 34.80Q25.13 36.62 24.10 37.91L24.15 37.96L24.27 38.08Q23.11 39.51 21.25 39.32L21.09 39.16L21.21 39.29Q19.93 39.29 18.97 38.87L18.87 38.77L18.83 38.73Q18.59 38.03 18.59 36.81L18.58 36.81L18.65 36.88Q18.56 36.49 18.56 36.18L18.62 36.24L18.48 36.10Q18.55 34.41 19.88 33.25L19.86 33.23L19.79 33.16Q21.25 32.13 23.00 32.20Z"/><path fill="#333" d="M98.99 39.92L98.83 39.76L97.02 39.89L96.93 39.81Q96.09 39.92 95.14 40.03L95.12 40.01L95.07 39.97Q95.64 33.76 95.64 29.76L95.61 29.73L95.63 29.74Q91.72 23.14 84.07 14.46L84.02 14.41L84.12 14.50Q85.91 15.50 89.26 16.30L89.21 16.25L89.13 16.17Q94.18 21.75 97.19 26.97L97.32 27.09L97.23 27.01Q100.21 21.42 104.59 16.40L104.55 16.36L104.54 16.35Q107.00 15.99 109.51 15.19L109.55 15.23L109.55 15.23Q103.38 21.21 98.51 29.62L98.58 29.69L98.71 29.82Q98.66 36.82 98.97 39.90ZM107.96 17.22L110.79 14.49L110.65 14.35Q107.56 15.53 104.44 15.99L104.55 16.09L104.44 15.98Q100.38 20.87 97.56 25.97L97.42 25.82L97.47 25.88Q95.31 22.19 92.11 18.31L92.23 18.43L92.13 18.33Q91.84 18.31 91.34 18.23L91.28 18.17L91.32 18.21Q90.70 17.47 89.18 15.80L89.12 15.74L89.13 15.75Q85.83 15.08 82.86 13.51L82.80 13.46L82.85 13.51Q90.55 21.96 95.30 29.88L95.34 29.92L95.37 29.94Q95.26 36.27 94.65 40.42L94.54 40.31L94.59 40.35Q95.34 40.34 96.79 40.23L96.85 40.29L96.74 41.21L96.88 41.35Q96.75 41.68 96.67 42.21L96.63 42.17L96.73 42.27Q100.16 42.16 101.91 42.35L102.05 42.49L101.94 42.38Q100.70 37.71 100.58 31.73L100.66 31.81L100.60 31.75Q105.09 23.41 111.64 16.07L111.54 15.96L107.93 17.19Z"/><path fill="#222" d="M124.23 27.16L124.20 27.12L124.21 27.13Q125.02 27.15 126.43 26.99L126.52 27.08L126.50 27.06Q126.46 27.71 126.46 28.36L126.34 28.23L126.35 29.51L126.39 29.54Q125.56 29.55 124.72 29.63L124.70 29.60L124.79 29.69Q123.89 29.67 123.05 29.63L123.15 29.73L123.07 29.65Q120.26 35.86 116.83 40.47L116.87 40.50L116.85 40.49Q114.21 41.00 112.91 41.61L113.06 41.76L112.96 41.66Q117.09 35.97 120.14 29.69L120.10 29.65L117.52 29.70L117.52 29.69Q117.50 28.34 117.38 27.01L117.49 27.12L117.48 27.10Q119.33 27.20 121.39 27.20L121.39 27.21L123.34 23.56L123.20 23.42Q124.33 21.66 125.55 20.06L125.47 19.98L125.54 20.05Q123.87 20.10 122.27 20.10L122.32 20.14L122.36 20.18Q116.22 20.13 112.45 17.93L112.53 18.00L111.88 16.28L111.82 16.23Q111.55 15.46 111.17 14.59L111.15 14.57L111.15 14.57Q115.39 17.09 121.10 17.32L121.08 17.31L121.20 17.42Q126.36 17.68 131.50 15.70L131.45 15.64L131.41 15.60Q131.31 16.12 130.82 16.99L130.75 16.93L130.67 16.84Q127.17 21.72 124.31 27.24ZM132.34 18.29L132.35 18.29L133.25 16.19L133.38 16.31Q132.44 16.82 130.76 17.54L130.76 17.54L130.83 17.12L130.95 17.23Q130.99 17.01 131.10 16.89L131.06 16.85L131.06 16.85Q131.47 16.20 132.20 14.87L132.15 14.82L132.20 14.87Q126.83 17.12 121.08 16.89L121.07 16.87L121.16 16.97Q115.10 16.66 110.34 13.69L110.41 13.75L110.32 13.66Q111.28 15.46 112.12 18.13L112.12 18.13L112.23 18.23Q113.28 18.82 114.07 19.13L114.09 19.15L114.17 19.23Q114.19 19.43 114.64 21.30L114.82 21.48L114.75 21.40Q117.82 22.57 123.34 22.42L123.36 22.44L123.38 22.45Q123.09 23.04 121.11 26.81L121.17 26.87L121.11 26.81Q119.00 26.76 117.02 26.57L116.99 26.54L117.11 26.66Q117.23 27.54 117.23 28.42L117.23 28.41L117.15 30.05L118.90 30.12L118.93 31.56L118.76 31.39Q114.99 38.93 112.21 42.51L112.08 42.38L112.15 42.45Q113.83 41.76 115.47 41.27L115.38 41.18L115.45 41.25Q114.67 42.07 113.30 43.78L113.40 43.89L113.36 43.85Q116.50 42.72 118.93 42.49L118.84 42.40L119.01 42.57Q121.94 38.80 125.07 32.02L124.91 31.87L128.46 32.18L128.37 32.09Q128.31 31.19 128.31 30.28L128.29 30.26L128.38 28.56L128.37 28.55Q128.04 28.49 127.49 28.52L127.47 28.51L127.60 28.64Q127.02 28.65 126.75 28.65L126.72 28.61L126.58 28.48Q126.62 28.40 126.66 28.25L126.81 28.40L126.70 28.02L126.76 28.08Q129.29 22.97 132.38 18.32Z"/><path fill="#222" d="M75.39 29.55L75.39 29.55L75.29 29.45Q74.10 28.68 73.45 28.72L73.55 28.81L73.51 28.78Q72.04 28.75 70.99 29.76L71.13 29.89L71.14 29.90Q70.05 30.87 70.17 32.24L70.22 32.29L70.22 32.30Q70.38 36.49 69.50 41.02L69.63 41.15L69.65 41.17Q67.47 41.66 66.37 42.19L66.37 42.19L66.20 42.02Q67.84 37.99 67.61 33.53L67.51 33.44L67.59 33.52Q67.21 28.87 65.50 24.79L65.54 24.83L65.53 24.83Q66.72 25.56 69.00 26.21L69.03 26.24L69.57 28.91L69.50 28.83Q70.31 26.07 74.57 26.07L74.60 26.10L74.46 25.96Q74.90 25.94 75.21 25.94L75.26 25.99L75.29 26.03Q76.52 25.96 77.78 26.65L77.77 26.64L77.70 26.57Q76.43 27.97 75.29 29.45ZM77.00 31.54L77.04 31.42L77.02 31.40Q77.87 30.20 79.54 27.77L79.57 27.79L79.51 27.73Q79.07 27.41 77.55 27.14L77.54 27.13L77.58 27.17Q77.89 26.84 78.35 26.23L78.36 26.24L78.50 26.38Q76.51 25.38 74.57 25.57L74.48 25.48L74.59 25.59Q72.58 25.71 71.86 25.98L71.92 26.04L71.85 25.97Q70.52 26.47 69.72 27.57L69.74 27.60L69.44 26.64L69.27 25.83L69.32 25.87Q66.88 25.42 64.90 24.08L64.91 24.09L64.94 24.12Q67.07 28.50 67.30 33.38L67.39 33.47L67.24 33.32Q67.48 38.24 65.73 42.77L65.77 42.81L65.68 42.72Q66.81 42.29 67.69 41.99L67.74 42.04L67.71 42.01Q67.55 43.22 67.05 44.28L66.93 44.16L66.99 44.22Q69.85 43.39 71.99 43.28L71.95 43.25L72.21 38.78L72.04 38.62Q72.20 36.41 72.20 34.16L72.30 34.27L72.17 34.13Q72.23 33.01 73.14 32.04L73.21 32.11L73.16 32.06Q74.11 31.12 75.25 31.05L75.14 30.94L75.24 31.04Q75.81 30.84 76.53 31.53L76.56 31.55L76.94 31.48ZM72.03 29.76L72.07 29.73L71.88 29.66L72.01 29.75Z"/></svg>