<svg xmlns="http://www.w3.org/2000/svg" width="150" height="50" viewBox="0,0,150,50"><path fill="#333" d="M98.95 39.88L98.93 39.87L96.96 39.83L96.95 39.83Q95.94 39.76 94.99 39.88L95.13 40.02L94.99 39.88Q95.73 33.85 95.73 29.85L95.63 29.75L95.67 29.79Q91.76 23.17 84.11 14.49L84.09 14.48L83.98 14.37Q85.72 15.31 89.07 16.11L89.25 16.29L89.13 16.17Q94.25 21.82 97.26 27.04L97.20 26.98L97.23 27.01Q100.26 21.47 104.64 16.45L104.70 16.51L104.59 16.40Q107.03 16.03 109.55 15.23L109.48 15.17L109.49 15.17Q103.52 21.34 98.64 29.76L98.61 29.72L98.58 29.70Q98.70 36.85 99.00 39.93ZM107.93 17.18L110.72 14.42L110.81 14.52Q107.62 15.59 104.50 16.04L104.54 16.08L104.56 16.10Q100.33 20.82 97.51 25.92L97.46 25.86L97.41 25.82Q95.33 22.22 92.13 18.33L92.07 18.27L92.11 18.31Q91.83 18.30 91.34 18.23L91.46 18.34L91.42 18.31Q90.75 17.53 89.23 15.85L89.16 15.78L89.16 15.78Q85.87 15.11 82.90 13.55L82.90 13.55L82.86 13.51Q90.57 21.98 95.33 29.90L95.38 29.95L95.27 29.85Q95.26 36.27 94.65 40.42L94.52 40.29L94.65 40.42Q95.30 40.30 96.74 40.19L96.73 40.17L96.86 41.33L96.72 41.19Q96.87 41.80 96.79 42.33L96.75 42.29L96.75 42.29Q100.28 42.28 102.03 42.47L102.00 42.44L102.03 42.47Q100.69 37.70 100.57 31.72L100.64 31.78L100.67 31.82Q104.94 23.26 111.49 15.91L111.53 15.95L108.08 17.34Z"/><path fill="#333" d="M71.02 29.12L71.14 29.24L71.03 29.13Q69.13 29.10 67.91 30.43L67.91 30.43L67.97 30.48Q66.84 31.90 66.69 33.81L66.67 33.79L66.54 33.66Q66.42 35.87 67.64 36.88L67.67 36.90L67.68 36.92Q68.96 37.98 71.09 37.91L71.02 37.84L70.94 37.76Q73.38 37.72 74.33 36.77L74.36 36.80L74.25 36.69Q75.41 35.38 75.30 33.55L75.29 33.54L75.17 33.42Q75.08 31.58 73.99 30.38L73.91 30.30L73.92 30.31Q72.96 29.23 71.13 29.23ZM70.98 19.68L71.04 19.73L71.00 19.69Q69.58 19.57 68.25 20.06L68.31 20.13L68.35 20.17Q67.01 20.92 67.24 22.78L67.28 22.83L67.26 22.81Q67.80 26.58 71.15 26.58L71.16 26.59L71.16 26.60Q72.64 26.70 73.63 25.56L73.64 25.57L73.72 25.65Q74.56 24.36 74.60 22.80L74.61 22.81L74.57 22.77Q74.84 21.21 74.12 20.61L73.97 20.45L73.93 20.42Q72.40 19.73 71.11 19.80ZM70.80 40.32L70.87 40.39L67.82 40.38L67.68 40.24Q66.22 40.31 64.89 39.43L64.86 39.40L64.82 39.37Q63.43 38.21 63.59 35.35L63.67 35.43L63.64 35.41Q64.02 28.48 67.64 27.49L67.69 27.54L67.65 27.50Q65.44 26.66 64.10 21.29L64.16 21.35L64.06 21.24Q63.81 19.93 63.89 19.13L63.83 19.07L63.88 19.13Q64.15 16.96 67.84 16.92L67.95 17.03L67.82 16.89Q72.15 16.93 73.60 17.12L73.62 17.14L73.59 17.11Q77.29 17.50 77.75 19.52L77.80 19.56L77.85 19.62Q77.87 20.13 77.87 20.51L77.89 20.54L77.91 20.55Q77.98 21.30 77.78 21.91L77.84 21.97L77.82 21.94Q77.07 26.03 74.14 27.56L74.30 27.72L74.18 27.60Q77.66 28.38 78.16 33.67L78.30 33.81L78.30 33.81Q78.13 33.79 78.17 35.09L78.31 35.23L78.32 35.24Q78.36 37.94 76.76 39.01L76.74 38.99L76.64 38.89Q75.44 39.93 70.87 40.39ZM73.13 42.69L73.08 42.64L76.47 42.76L76.36 42.64Q78.13 42.78 79.65 42.06L79.62 42.02L79.65 42.06Q80.76 41.29 80.83 39.43L80.93 39.52L80.89 39.49Q80.93 38.38 80.55 36.44L80.52 36.41L80.47 36.36Q79.65 31.82 77.56 29.95L77.61 30.00L77.39 29.59L77.11 29.23L77.05 29.06L76.96 28.97Q78.71 27.71 79.63 23.56L79.63 23.57L79.50 23.44Q79.47 23.03 79.55 22.19L79.63 22.27L79.68 22.32Q79.65 21.53 79.57 20.92L79.69 21.04L79.58 20.93Q79.52 19.57 78.34 19.08L78.34 19.08L78.30 19.00L78.08 18.86L78.05 18.83Q77.85 18.17 76.67 17.37L76.78 17.48L76.68 17.35L76.72 17.39Q74.69 16.64 70.61 16.45L70.67 16.52L70.57 16.42Q69.03 16.32 67.66 16.43L67.65 16.42L67.65 16.43Q66.84 16.45 65.55 16.60L65.58 16.64L65.70 16.75Q63.74 17.12 63.52 18.76L63.47 18.72L63.44 18.69Q63.42 19.19 63.45 19.99L63.43 19.97L63.49 20.03Q63.63 20.59 64.20 22.95L64.08 22.83L64.07 22.81Q65.04 26.23 66.79 27.56L66.72 27.48L66.86 27.63L66.73 27.50Q63.99 28.83 63.46 34.00L63.55 34.10L63.49 34.04Q63.31 36.25 63.31 37.17L63.38 37.24L63.24 37.10Q63.29 38.87 64.47 39.78L64.44 39.75L64.58 39.89Q64.73 40.00 64.99 40.19L64.89 40.08L64.87 40.06Q65.98 42.43 73.10 42.66ZM72.64 31.47L72.79 31.62L72.82 31.64Q73.57 31.40 74.44 31.86L74.61 32.03L74.58 32.00Q74.92 32.94 74.88 33.47L74.89 33.49L74.85 33.44Q74.97 33.83 74.97 34.14L74.95 34.12L74.88 34.05Q74.86 36.39 72.58 37.22L72.64 37.29L72.54 37.19Q71.73 37.49 70.93 37.37L70.99 37.43L71.11 37.55Q69.96 37.62 68.82 37.16L68.80 37.14L68.80 37.14Q68.58 36.54 68.65 35.55L68.56 35.45L68.58 35.47Q68.77 33.91 69.97 32.70L69.85 32.57L70.00 32.72Q71.17 31.47 72.77 31.59ZM73.04 22.15L73.05 22.17L72.96 22.08Q73.80 22.00 74.34 22.16L74.22 22.04L74.22 22.84L74.19 22.81Q74.33 24.36 73.42 25.37L73.39 25.34L73.45 25.40Q72.54 26.41 71.17 26.22L71.08 26.14L71.05 26.10Q70.08 26.13 69.66 25.90L69.65 25.88L69.72 25.96Q69.67 25.67 69.55 24.99L69.51 24.95L69.50 24.94Q69.26 23.55 70.48 22.71L70.54 22.77L70.39 22.62Q71.45 21.94 72.86 21.97Z"/><path fill="#444" d="M46.25 40.32L46.06 40.13L46.14 40.22Q42.64 40.29 41.00 39.76L41.10 39.86L41.12 39.88Q39.15 39.23 38.84 35.85L38.74 35.75L40.19 34.68L40.16 34.65Q40.92 34.16 41.69 33.66L41.61 33.59L41.77 33.75Q41.48 35.63 43.08 36.85L42.97 36.74L42.99 36.76Q44.39 37.89 46.52 37.70L46.38 37.56L46.44 37.62Q50.83 37.21 50.64 33.67L50.72 33.75L50.73 33.76Q50.57 31.51 47.94 30.29L47.79 30.14L47.87 30.22Q45.00 29.14 42.64 27.92L42.61 27.89L42.64 27.92Q40.09 26.59 39.10 21.91L39.15 21.95L39.11 21.92Q38.92 21.38 38.80 20.62L38.96 20.77L38.87 20.68Q38.78 19.91 38.86 19.34L38.93 19.41L38.90 19.38Q39.13 17.86 40.39 17.41L40.26 17.28L40.27 17.29Q42.70 16.45 46.70 16.64L46.75 16.69L46.71 16.64Q48.52 16.75 49.32 16.82L49.37 16.87L49.27 16.77Q50.78 16.99 51.85 17.44L51.89 17.49L51.96 17.55Q53.99 17.95 54.22 20.43L54.09 20.30L54.19 20.40Q53.13 21.08 50.92 22.42L50.86 22.36L50.95 22.45Q50.48 19.39 46.10 19.39L46.11 19.39L46.13 19.42Q44.26 19.45 43.27 20.14L43.23 20.10L43.19 20.05Q42.00 20.54 42.22 22.33L42.33 22.43L42.21 22.31Q42.66 24.70 45.63 26.23L45.63 26.23L45.59 26.19Q46.17 26.46 50.66 28.10L50.64 28.08L50.53 27.97Q53.15 29.44 53.57 33.82L53.53 33.78L53.63 33.88Q53.59 34.00 53.67 35.26L53.65 35.23L53.64 35.22Q53.71 38.00 52.15 39.10L52.26 39.22L52.16 39.11Q50.35 40.12 46.16 40.24ZM48.46 42.60L48.49 42.64L48.53 42.67Q49.93 42.71 51.91 42.71L51.89 42.69L51.89 42.68Q54.00 42.71 55.26 42.29L55.18 42.21L55.25 42.28Q56.48 41.46 56.41 39.67L56.43 39.69L56.37 39.63Q56.42 38.73 56.04 36.67L55.94 36.57L56.06 36.69Q55.08 31.95 52.99 30.08L52.87 29.97L52.94 30.04Q52.17 28.46 50.84 27.74L50.94 27.84L45.60 25.74L45.57 25.71Q45.26 25.56 44.81 25.33L44.76 25.28L44.60 24.86L44.57 24.48L44.60 24.52Q44.40 23.06 45.54 22.45L45.55 22.46L45.57 22.47Q46.46 22.03 48.18 21.84L48.13 21.80L48.03 21.70Q49.24 21.65 50.38 22.10L50.47 22.20L50.38 22.11Q50.41 22.17 50.60 23.01L50.63 23.04L50.61 23.03Q50.81 22.88 51.31 22.65L51.25 22.60L51.28 22.63Q51.99 23.53 52.11 24.67L52.16 24.72L52.10 24.66Q52.19 24.64 55.85 22.05L55.88 22.09L55.89 22.10Q55.54 19.39 54.10 18.70L54.27 18.88L54.20 18.81Q53.58 17.50 52.13 16.97L52.22 17.06L52.23 17.07Q49.79 16.11 46.59 16.11L46.62 16.14L46.68 16.20Q41.85 16.28 39.98 16.96L39.98 16.96L39.96 16.94Q38.62 17.39 38.51 19.07L38.41 18.97L38.41 18.97Q38.36 19.48 38.77 21.69L38.87 21.79L38.78 21.70Q39.62 25.62 41.79 27.87L41.66 27.74L41.66 27.74Q42.58 29.57 44.08 30.25L44.04 30.22L44.04 30.22Q45.49 30.85 49.41 32.41L49.40 32.40L49.32 32.36L50.00 32.73L50.05 32.82L50.06 32.82Q50.30 33.34 50.34 33.68L50.32 33.66L50.34 33.67Q50.39 37.12 46.47 37.27L46.39 37.19L46.50 37.30Q45.20 37.18 43.90 36.79L43.93 36.82L44.06 36.95Q43.66 36.06 43.66 35.33L43.61 35.29L43.59 35.26Q43.68 35.08 43.71 34.82L43.67 34.78L43.74 34.85Q43.36 35.11 42.56 35.60L42.48 35.53L42.46 35.50Q41.95 34.39 42.11 33.02L42.21 33.12L42.07 32.99Q40.14 34.33 38.55 35.74L38.39 35.59L38.46 35.65Q38.47 36.43 38.55 37.46L38.66 37.57L38.58 37.49Q38.98 39.30 40.28 40.06L40.22 40.00L40.26 40.05Q41.43 41.83 43.98 42.21L44.05 42.27L43.90 42.12Q45.48 42.37 48.41 42.56Z"/><path fill="#222" d="M123.32 39.81L123.29 39.78L123.26 39.76Q121.35 39.75 119.33 39.94L119.42 40.02L119.48 40.09Q119.97 34.67 119.97 29.84L120.10 29.97L120.07 29.94Q120.04 25.00 119.39 19.79L119.38 19.77L119.41 19.80Q114.82 19.40 111.62 17.72L111.57 17.67L110.98 16.05L110.90 15.98Q110.75 15.52 110.14 14.30L110.20 14.36L110.05 14.21Q115.24 17.00 121.25 17.19L121.09 17.02L121.12 17.05Q126.97 17.20 132.42 15.15L132.40 15.13L132.53 15.25Q131.79 16.65 131.15 18.48L131.14 18.47L131.08 18.42Q127.58 19.83 123.32 20.02L123.33 20.03L123.19 19.89Q123.09 25.01 123.09 29.96L123.00 29.86L123.14 30.00Q123.07 34.88 123.37 39.87ZM133.14 14.50L133.18 14.53L133.14 14.50Q127.37 16.83 121.16 16.64L121.18 16.66L121.11 16.59Q114.46 16.41 109.36 13.44L109.35 13.43L109.37 13.46Q110.10 14.72 111.40 17.99L111.39 17.98L111.53 18.12Q112.11 18.37 113.37 18.94L113.26 18.83L113.41 18.98Q113.55 19.58 113.90 21.10L114.05 21.25L113.94 21.15Q116.14 21.90 119.19 22.13L119.36 22.30L119.19 22.14Q119.67 25.92 119.67 29.69L119.64 29.67L119.62 29.65Q119.72 35.11 118.92 40.48L118.77 40.33L118.82 40.37Q120.53 40.30 121.06 40.30L121.14 40.37L121.07 40.30Q121.10 40.64 121.04 41.30L121.01 41.27L120.93 41.20Q120.98 41.97 120.98 42.31L120.90 42.23L120.90 42.22Q122.23 42.30 123.75 42.38L123.74 42.37L123.72 42.34Q124.58 42.34 126.41 42.49L126.37 42.45L126.45 42.52Q125.16 37.54 125.05 32.37L125.15 32.47L125.02 32.34Q124.99 27.13 125.52 22.22L125.43 22.13L125.38 22.08Q129.50 21.71 132.66 20.49L132.63 20.46L132.52 20.35Q133.20 17.94 134.23 15.89L134.33 15.99L134.32 15.98Q132.88 16.55 132.08 16.86L132.20 16.98L132.12 16.90Q132.56 15.63 133.13 14.49Z"/><path fill="#444" d="M13.58 38.96L13.69 39.07L13.61 38.99Q15.33 36.45 20.09 29.18L20.09 29.18L20.10 29.19Q24.23 23.08 27.09 19.81L27.19 19.91L27.15 19.87Q24.97 20.09 22.88 20.09L22.99 20.21L22.94 20.15Q17.58 20.04 13.58 18.25L13.60 18.28L13.64 18.32Q13.05 16.46 12.36 14.90L12.31 14.85L12.22 14.76Q16.81 16.95 22.48 17.06L22.56 17.14L22.54 17.12Q27.73 17.25 32.91 15.35L32.79 15.23L32.89 15.33Q32.50 16.16 32.20 16.96L32.07 16.84L31.69 18.63L31.60 18.54Q28.44 22.08 24.45 27.90L24.45 27.90L21.28 32.88L21.20 32.81Q19.58 35.29 17.75 37.57L17.61 37.43L17.76 37.58Q20.96 36.86 24.27 36.94L24.36 37.02L24.23 36.90Q27.65 37.08 30.81 37.99L30.92 38.10L31.30 39.59L31.41 39.70Q31.47 40.33 31.81 41.16L31.83 41.18L31.91 41.26Q27.25 39.69 22.12 39.88L22.09 39.86L22.08 39.85Q17.03 40.13 12.54 42.15L12.50 42.11L12.51 42.11Q12.79 40.95 13.51 38.89ZM11.97 42.87L11.93 42.83L11.95 42.85Q13.13 42.20 13.93 41.94L13.98 41.99L13.91 41.91Q13.53 42.57 12.85 44.09L12.90 44.15L12.93 44.17Q18.62 42.03 24.60 42.26L24.71 42.36L24.62 42.27Q30.95 42.51 35.97 45.29L36.06 45.38L36.03 45.35Q34.64 42.97 33.84 40.80L33.85 40.81L33.86 40.82Q33.34 40.57 31.82 40.00L31.75 39.93L31.77 39.94Q31.64 39.25 31.23 37.76L31.21 37.75L31.23 37.77Q26.95 36.46 21.85 36.65L21.97 36.77L21.89 36.69Q24.01 33.93 27.55 28.37L27.53 28.35L27.60 28.43Q31.18 22.64 33.08 20.09L33.15 20.16L33.15 20.15Q33.59 18.69 34.62 15.99L34.71 16.09L34.70 16.07Q33.94 16.35 32.50 16.95L32.58 17.04L32.58 17.03Q32.94 16.25 33.66 14.73L33.49 14.56L33.51 14.58Q28.29 16.82 22.58 16.75L22.61 16.77L22.47 16.63Q16.58 16.61 11.63 14.09L11.51 13.98L11.65 14.12Q12.78 16.47 13.51 18.71L13.44 18.65L13.40 18.61Q14.53 19.17 15.33 19.39L15.45 19.51L15.37 19.43Q15.74 20.22 16.01 21.67L15.94 21.60L15.87 21.54Q19.58 22.58 24.45 22.39L24.42 22.36L24.53 22.47Q22.09 25.63 18.78 30.61L18.72 30.55L13.38 39.07L13.35 39.04Q12.82 40.15 11.79 42.70Z"/></svg>