<svg xmlns="http://www.w3.org/2000/svg" width="150" height="50" viewBox="0,0,150,50"><path fill="#444" d="M112.20 38.92L112.24 38.96L112.21 38.92Q114.16 36.61 118.92 29.34L118.91 29.33L118.81 29.24Q122.89 23.07 125.74 19.79L125.85 19.90L125.85 19.91Q123.75 20.20 121.66 20.20L121.65 20.20L121.58 20.13Q116.32 20.12 112.33 18.33L112.35 18.36L112.24 18.25Q111.70 16.45 111.01 14.89L111.06 14.93L111.03 14.90Q115.44 16.92 121.12 17.04L121.20 17.12L121.29 17.21Q126.26 17.12 131.44 15.22L131.59 15.36L131.42 15.20Q131.20 16.19 130.89 16.99L130.83 16.92L130.27 18.53L130.22 18.49Q127.10 22.07 123.10 27.89L123.27 28.06L119.87 32.81L119.95 32.89Q118.21 35.26 116.39 37.54L116.35 37.50L116.41 37.57Q119.58 36.82 122.89 36.89L122.93 36.93L123.00 37.00Q126.43 37.19 129.59 38.10L129.54 38.06L129.98 39.60L130.02 39.65Q130.13 40.32 130.47 41.16L130.62 41.30L130.64 41.33Q125.89 39.67 120.76 39.86L120.83 39.93L120.65 39.75Q115.60 40.03 111.11 42.05L111.12 42.06L111.20 42.15Q111.60 41.10 112.32 39.04ZM110.57 42.81L110.46 42.70L110.59 42.83Q111.69 42.10 112.49 41.84L112.55 41.90L112.55 41.89Q112.24 42.61 111.55 44.13L111.69 44.27L111.65 44.23Q117.27 42.01 123.25 42.24L123.37 42.36L123.32 42.31Q129.52 42.41 134.54 45.19L134.70 45.35L134.67 45.32Q133.21 42.87 132.41 40.70L132.46 40.75L132.45 40.74Q131.94 40.49 130.41 39.92L130.46 39.97L130.42 39.93Q130.29 39.23 129.87 37.74L129.86 37.73L129.86 37.73Q125.71 36.55 120.61 36.74L120.65 36.79L120.58 36.71Q122.65 33.91 126.19 28.35L126.31 28.47L126.20 28.37Q129.83 22.63 131.74 20.08L131.88 20.22L131.82 20.16Q132.38 18.81 133.40 16.11L133.23 15.93L133.38 16.09Q132.63 16.37 131.19 16.98L131.16 16.95L131.25 17.04Q131.56 16.21 132.28 14.69L132.18 14.58L132.18 14.59Q126.98 16.85 121.27 16.77L121.19 16.69L121.17 16.67Q115.13 16.49 110.18 13.98L110.28 14.08L110.21 14.01Q111.34 16.36 112.06 18.60L112.09 18.63L112.17 18.71Q113.32 19.29 114.12 19.52L113.99 19.39L114.11 19.51Q114.34 20.15 114.60 21.60L114.65 21.65L114.63 21.63Q118.38 22.71 123.25 22.52L123.11 22.38L123.27 22.54Q120.78 25.64 117.47 30.63L117.38 30.54L111.89 38.91L111.92 38.95Q111.51 40.16 110.48 42.71Z"/><path fill="#333" d="M75.48 30.99L75.49 31.00L75.29 30.80Q75.43 29.42 74.61 28.51L74.60 28.49L74.58 28.47Q73.76 27.56 72.32 27.60L72.44 27.72L72.34 27.62Q70.04 27.72 69.21 29.86L69.16 29.81L69.31 29.96Q69.05 30.77 69.01 31.45L69.00 31.44L68.82 31.26Q68.78 36.28 67.86 40.62L67.78 40.54L67.68 40.44Q66.18 41.15 64.32 42.14L64.27 42.09L64.20 42.02Q66.43 35.00 66.16 27.69L66.27 27.79L66.31 27.83Q65.93 20.38 63.38 13.56L63.44 13.62L63.35 13.53Q65.10 14.83 67.12 15.51L67.25 15.64L67.18 15.58Q68.70 21.43 68.89 27.29L68.79 27.19L68.92 27.32Q70.34 25.28 73.04 25.35L73.05 25.36L73.00 25.31Q78.04 25.37 78.16 30.74L78.17 30.75L78.10 30.68Q78.30 36.44 79.67 41.08L79.62 41.03L79.74 41.15Q77.85 40.29 76.09 40.09L76.09 40.09L75.99 39.99Q75.55 36.81 75.44 30.95ZM75.75 40.40L75.67 40.32L75.61 40.25Q76.82 40.55 77.92 40.82L77.90 40.80L77.85 40.74Q77.97 40.98 78.50 42.96L78.48 42.94L78.49 42.95Q81.31 43.75 83.33 45.20L83.42 45.28L83.43 45.30Q80.82 39.60 80.28 33.28L80.19 33.19L80.16 33.16Q79.95 29.56 78.54 28.00L78.53 27.99L78.50 27.96Q78.37 27.76 77.73 27.30L77.85 27.43L77.83 27.40Q77.54 26.85 76.89 26.08L76.94 26.14L77.03 26.14L76.88 26.00Q76.12 25.23 72.99 24.97L72.91 24.88L73.04 25.01Q72.14 24.83 70.73 25.17L70.89 25.34L70.82 25.27Q70.57 20.37 70.23 17.86L70.35 17.98L70.34 17.97Q69.45 17.73 67.96 17.42L68.01 17.46L67.98 17.44Q67.93 16.82 67.67 15.34L67.68 15.35L67.55 15.22Q64.61 14.26 62.74 12.70L62.80 12.75L62.79 12.74Q65.67 19.81 65.93 27.61L65.92 27.60L65.93 27.60Q66.35 35.53 63.80 42.88L63.60 42.68L63.74 42.81Q64.68 42.23 65.82 41.74L65.85 41.77L64.99 43.91L64.98 43.90Q68.16 42.63 70.14 42.44L70.18 42.48L70.14 42.44Q70.68 37.00 70.87 33.04L70.92 33.10L70.96 33.13Q70.92 31.15 72.86 30.05L72.98 30.16L72.87 30.06Q73.49 29.91 74.02 29.95L74.02 29.95L74.07 30.00Q74.17 29.95 74.51 29.98L74.39 29.86L74.99 30.13L74.95 30.08Q74.84 30.36 74.96 30.81L74.99 30.85L75.02 30.87Q75.22 36.93 75.71 40.36Z"/><path fill="#111" d="M103.73 37.96L103.60 37.83L103.71 37.95Q103.99 38.91 104.52 40.93L104.53 40.93L104.44 40.85Q100.27 39.57 95.67 39.83L95.63 39.80L95.72 39.89Q91.06 40.07 87.07 42.05L87.04 42.02L87.05 42.03Q87.33 41.40 87.37 41.47L87.31 41.42L87.43 41.54Q91.14 37.56 95.06 33.14L94.96 33.04L94.94 33.02Q99.48 28.15 100.66 23.47L100.54 23.35L100.56 23.38Q101.08 21.69 99.81 20.51L99.90 20.60L99.90 20.60Q98.56 19.35 96.77 19.51L96.76 19.49L96.75 19.48Q96.47 19.51 96.13 19.51L96.03 19.42L96.06 19.44Q94.58 19.49 93.33 20.40L93.31 20.39L93.21 20.28Q91.93 21.67 92.16 24.34L92.30 24.48L92.26 24.43Q90.36 23.99 89.15 23.53L89.23 23.61L89.21 23.59Q88.99 22.16 88.91 20.71L88.92 20.72L88.84 20.64Q88.85 19.09 89.46 17.95L89.51 18.00L89.53 18.02Q91.34 16.67 94.69 16.67L94.66 16.64L96.27 16.50L96.27 16.49Q98.74 16.72 99.69 16.83L99.66 16.80L99.65 16.79Q103.86 17.08 104.12 19.51L104.20 19.59L104.20 19.59Q104.38 20.26 104.30 21.06L104.24 21.00L104.24 21.00Q104.25 21.69 104.10 22.38L103.98 22.26L104.00 22.29Q102.39 30.41 94.81 37.27L94.81 37.26L94.88 37.33Q96.11 37.01 97.48 37.01L97.60 37.12L97.61 37.13Q100.87 37.16 103.73 37.96ZM103.04 17.02L103.18 17.16L103.19 17.17Q101.41 16.34 99.69 16.26L99.70 16.27L96.27 16.07L96.36 16.16Q91.98 15.98 89.78 17.08L89.78 17.09L89.73 17.03Q88.65 18.39 88.65 20.44L88.65 20.45L88.65 20.45Q88.63 21.11 88.93 23.93L88.98 23.97L89.05 24.04Q89.51 24.20 90.69 24.51L90.78 24.59L90.63 25.47L90.63 25.47Q90.58 25.91 90.65 26.45L90.76 26.55L90.78 26.58Q91.93 26.59 94.41 26.81L94.49 26.89L94.53 26.94Q94.38 26.45 94.38 26.11L94.45 26.17L94.44 26.17Q94.40 24.30 95.62 22.95L95.60 22.92L95.71 23.03Q96.84 21.60 98.63 21.71L98.61 21.69L98.63 21.71Q99.32 21.68 100.09 21.83L100.27 22.01L100.14 21.88Q100.24 22.25 100.32 22.67L100.34 22.70L100.42 22.77Q100.38 23.12 100.30 23.46L100.25 23.40L100.23 23.38Q99.05 28.22 94.64 33.06L94.58 33.00L94.64 33.06Q92.51 35.31 87.06 41.36L87.06 41.35L87.05 41.35Q86.83 42.16 86.49 42.73L86.50 42.74L86.48 42.72Q88.07 41.83 89.59 41.30L89.74 41.45L89.68 41.38Q88.87 41.87 87.92 43.36L87.95 43.39L87.91 43.34Q87.94 43.84 87.83 44.18L87.76 44.11L87.82 44.17Q92.70 42.12 98.18 42.31L98.08 42.21L98.10 42.23Q103.74 42.35 108.31 44.71L108.34 44.74L107.35 42.61L107.34 42.60Q106.73 41.31 106.47 40.51L106.39 40.44L106.45 40.49Q105.68 40.03 104.46 39.61L104.54 39.69L104.54 39.69Q104.40 38.98 104.02 37.61L103.99 37.58L103.94 37.52Q101.68 36.90 99.39 36.71L99.47 36.78L99.45 36.77Q104.10 32.16 105.62 23.90L105.71 23.99L105.86 21.06L105.93 21.13Q105.85 19.34 104.64 18.65L104.55 18.56L104.49 18.55L104.56 18.61Q104.57 18.59 104.49 18.59L104.49 18.58L104.43 18.53Q104.26 17.74 103.16 17.14Z"/><path fill="#111" d="M26.20 41.23L26.28 41.31L23.13 41.02L23.18 41.06Q20.76 40.92 19.96 40.81L20.02 40.87L20.06 40.91Q18.16 40.50 16.98 39.62L16.99 39.64L16.96 39.60Q15.66 38.19 15.43 34.84L15.51 34.92L15.54 34.94Q15.42 34.37 15.35 33.16L15.29 33.10L15.46 33.27Q15.38 32.77 15.30 31.66L15.25 31.61L15.36 31.72Q15.23 30.79 15.27 30.07L15.36 30.16L15.31 30.11Q15.57 28.24 16.60 27.48L16.52 27.40L16.52 27.40Q18.42 26.21 23.25 25.99L23.33 26.07L23.33 26.06Q25.30 25.90 26.10 25.90L26.15 25.95L26.02 25.82Q27.69 26.01 29.06 26.31L29.04 26.29L29.07 26.32Q28.33 27.41 27.80 29.24L27.89 29.33L27.78 29.22Q27.44 29.44 26.94 29.41L26.84 29.30L26.92 29.39Q26.70 29.24 26.16 29.12L26.20 29.16L25.32 29.00L25.20 28.88Q24.15 28.63 23.54 28.67L23.55 28.68L23.59 28.72Q18.96 28.89 18.35 31.71L18.25 31.60L18.21 31.57Q17.95 32.72 18.03 33.67L18.17 33.81L18.14 33.78Q18.14 36.21 19.37 37.30L19.38 37.30L19.49 37.41Q20.72 38.49 23.31 38.53L23.23 38.45L23.30 38.52Q24.83 38.60 25.55 38.30L25.45 38.19L26.58 37.80L26.60 37.82Q27.07 37.53 27.64 37.45L27.64 37.46L27.71 37.52Q27.77 39.14 28.15 40.43L28.20 40.48L28.24 40.53Q28.00 40.90 26.22 41.24ZM29.37 44.10L29.41 44.13L29.41 44.13Q29.90 44.29 30.74 44.36L30.70 44.32L30.77 44.39Q31.34 44.35 31.69 43.78L31.73 43.83L31.72 43.81Q30.49 41.71 29.99 39.61L29.94 39.56L30.03 39.65Q29.55 39.48 29.10 39.48L29.24 39.62L29.25 39.63Q28.77 39.57 28.39 39.76L28.40 39.78L28.30 39.67Q28.07 38.53 27.92 37.12L27.92 37.13L27.92 37.13Q27.26 36.99 26.04 37.56L25.98 37.51L25.94 37.47Q24.75 38.06 24.25 38.06L24.38 38.19L24.29 38.10Q23.96 38.26 23.35 38.22L23.35 38.23L23.33 38.21Q22.27 38.02 20.29 37.45L20.41 37.57L20.28 37.44Q19.98 36.76 20.01 35.61L20.10 35.70L20.14 35.74Q20.25 31.43 25.20 30.90L25.26 30.97L25.24 30.94Q25.95 30.96 27.32 31.31L27.26 31.25L27.32 31.31Q28.55 31.51 29.27 31.47L29.31 31.50L29.31 31.50Q29.68 29.21 30.37 27.39L30.50 27.52L30.47 27.50Q30.04 27.32 29.66 27.25L29.70 27.30L28.84 27.12L29.00 27.28Q29.22 26.81 29.60 25.94L29.51 25.85L29.49 25.83Q28.08 25.59 26.52 25.59L26.45 25.53L26.40 25.48Q24.07 25.54 19.69 25.92L19.56 25.80L19.65 25.89Q17.71 26.03 16.14 27.02L16.19 27.07L16.14 27.02Q15.01 28.06 15.01 29.96L14.97 29.92L14.90 29.85Q14.93 30.31 15.05 31.52L14.99 31.46L14.98 31.45Q15.03 32.46 14.99 33.06L15.11 33.18L15.15 33.23Q15.08 35.02 15.81 38.75L15.76 38.71L15.87 38.82Q16.28 39.69 16.78 40.18L16.73 40.13L16.98 40.38L17.07 40.43L16.98 40.35Q17.98 42.45 21.90 43.06L21.86 43.01L21.84 43.00Q25.15 43.64 27.82 43.91L27.84 43.94L27.82 43.91Q28.60 43.97 29.52 44.24Z"/><path fill="#222" d="M50.90 41.26L50.93 41.29L47.92 41.14L47.88 41.10Q45.43 40.93 44.63 40.81L44.71 40.89L44.73 40.92Q42.80 40.47 41.62 39.60L41.69 39.67L41.72 39.69Q40.42 38.28 40.19 34.93L40.16 34.90L40.17 34.91Q40.04 34.32 39.96 33.10L40.05 33.19L40.00 33.14Q39.95 32.67 39.87 31.57L39.92 31.61L39.88 31.57Q39.85 30.74 39.88 30.02L40.05 30.18L40.04 30.17Q40.20 28.20 41.23 27.44L41.10 27.31L41.26 27.47Q43.17 26.30 48.01 26.07L47.88 25.95L47.96 26.02Q49.99 25.92 50.79 25.92L50.78 25.92L50.87 26.01Q52.25 25.90 53.62 26.20L53.57 26.16L53.62 26.20Q53.04 27.45 52.51 29.28L52.56 29.33L52.51 29.28Q52.07 29.41 51.57 29.37L51.53 29.33L51.47 29.27Q51.35 29.22 50.81 29.11L50.83 29.13L49.96 28.98L49.86 28.88Q48.86 28.68 48.25 28.71L48.26 28.72L48.21 28.67Q43.61 28.87 43.00 31.68L42.94 31.63L42.98 31.67Q42.60 32.69 42.67 33.64L42.81 33.78L42.84 33.81Q43.00 36.40 44.23 37.49L44.19 37.44L44.10 37.36Q45.44 38.54 48.03 38.58L48.01 38.57L47.98 38.53Q49.36 38.47 50.09 38.16L50.13 38.21L51.22 37.77L51.16 37.71Q51.69 37.49 52.26 37.41L52.25 37.40L52.22 37.37Q52.43 39.14 52.81 40.43L52.91 40.53L52.87 40.49Q52.76 40.99 50.97 41.33ZM54.12 44.18L54.12 44.17L54.12 44.17Q54.54 44.25 55.37 44.33L55.38 44.34L55.43 44.38Q56.03 44.37 56.37 43.80L56.25 43.68L56.30 43.73Q55.15 41.71 54.66 39.62L54.65 39.60L54.61 39.56Q54.37 39.63 53.92 39.63L53.82 39.54L53.91 39.63Q53.38 39.52 53.00 39.71L53.07 39.77L53.08 39.79Q52.60 38.40 52.45 36.99L52.50 37.03L52.43 36.97Q51.92 36.99 50.70 37.56L50.75 37.61L50.67 37.53Q49.53 38.17 49.03 38.17L48.89 38.03L48.98 38.12Q48.61 38.25 48.00 38.21L47.98 38.19L47.90 38.10Q47.09 38.17 45.11 37.60L44.96 37.45L45.01 37.50Q44.78 36.89 44.82 35.75L44.64 35.57L44.78 35.71Q44.97 31.49 49.92 30.95L49.93 30.96L49.90 30.93Q50.63 30.97 52.00 31.32L51.87 31.19L51.96 31.28Q53.25 31.54 53.97 31.51L53.93 31.46L54.07 31.60Q54.52 29.39 55.21 27.56L55.18 27.53L55.21 27.56Q54.68 27.30 54.30 27.22L54.45 27.38L53.63 27.24L53.52 27.13Q53.86 26.79 54.25 25.91L54.14 25.81L54.27 25.94Q52.61 25.46 51.05 25.46L51.08 25.49L51.02 25.43Q48.73 25.54 44.35 25.92L44.30 25.87L44.32 25.88Q42.34 26.00 40.78 26.99L40.72 26.93L40.74 26.96Q39.54 27.93 39.54 29.83L39.55 29.83L39.51 29.80Q39.57 30.27 39.68 31.49L39.65 31.46L39.70 31.51Q39.87 32.63 39.83 33.24L39.73 33.13L39.73 33.14Q39.84 35.12 40.57 38.85L40.56 38.84L40.59 38.87Q40.97 39.70 41.46 40.20L41.39 40.13L41.65 40.38L41.65 40.35L41.60 40.30Q42.60 42.40 46.52 43.01L46.51 43.00L46.66 43.15Q49.73 43.56 52.40 43.82L52.49 43.91L52.40 43.83Q53.15 43.85 54.06 44.12Z"/></svg>