<svg xmlns="http://www.w3.org/2000/svg" width="150" height="50" viewBox="0,0,150,50"><path fill="#444" d="M117.65 19.34L117.63 19.32L117.74 19.43Q118.58 23.66 118.74 27.24L118.59 27.09L118.67 27.17Q119.74 27.21 120.81 27.21L120.81 27.21L123.09 27.29L122.97 27.17Q124.05 27.18 124.93 25.78L124.91 25.76L124.90 25.75Q125.64 24.58 125.75 23.40L125.76 23.41L125.79 23.44Q126.21 20.47 121.99 19.98L122.03 20.02L121.98 19.97Q120.39 20.02 117.76 19.45ZM118.79 30.03L118.69 29.93L118.74 29.98Q118.67 36.19 117.53 40.61L117.40 40.48L117.54 40.62Q116.13 41.08 113.81 42.14L113.70 42.04L113.72 42.06Q116.05 35.36 115.78 28.09L115.91 28.21L115.74 28.04Q115.60 20.83 112.82 14.39L112.76 14.33L112.75 14.32Q116.97 17.17 123.21 17.17L123.18 17.14L123.17 17.12Q129.14 17.05 129.30 20.51L129.37 20.58L129.37 20.59Q129.47 23.04 128.48 25.71L128.45 25.68L128.34 25.57Q128.01 26.76 127.06 27.98L127.09 28.02L126.97 27.89Q125.66 29.51 123.11 29.78L123.15 29.83L123.28 29.95Q120.88 29.84 118.64 29.88ZM124.89 32.25L124.91 32.27L124.87 32.22Q129.02 32.46 130.28 27.66L130.27 27.66L130.23 27.61Q131.11 23.89 130.96 21.87L131.04 21.95L131.09 22.00Q130.83 20.34 130.07 19.35L130.10 19.38L130.25 19.52Q129.88 19.16 129.39 18.93L129.42 18.96L129.26 18.80Q129.37 18.76 128.77 18.00L128.73 17.96L128.70 17.94Q127.24 16.70 123.28 16.70L123.21 16.64L123.11 16.53Q116.27 16.59 112.05 13.43L112.09 13.47L112.08 13.46Q115.32 20.62 115.59 28.08L115.58 28.08L115.49 27.99Q115.76 35.64 113.09 42.72L113.12 42.75L113.05 42.68Q114.19 42.11 115.18 41.73L115.11 41.65L114.76 42.83L114.84 42.91Q114.71 43.54 114.45 44.11L114.35 44.01L114.31 43.98Q116.78 42.98 119.67 42.45L119.68 42.45L119.64 42.42Q120.60 37.02 120.68 32.30L120.64 32.26L120.67 32.29Q121.72 32.17 122.71 32.17L122.65 32.10L122.77 32.22Q123.99 32.11 124.79 32.14ZM123.92 22.29L123.90 22.27L123.90 22.27Q124.43 22.31 125.42 22.54L125.37 22.49L125.29 22.41Q125.52 22.75 125.56 23.06L125.47 22.97L125.45 22.95Q125.65 23.37 125.57 23.64L125.58 23.65L125.54 23.61Q125.45 24.86 124.73 25.73L124.62 25.62L124.67 25.67Q124.00 26.64 122.97 26.83L123.12 26.97L123.07 26.93Q122.36 26.94 120.72 26.94L120.62 26.84L120.71 26.92Q120.65 24.62 120.42 22.26L120.41 22.25L122.17 22.33L122.16 22.32Q122.95 22.27 123.82 22.20Z"/><path fill="#222" d="M54.37 37.93L54.39 37.95L54.27 37.83Q54.70 38.95 55.23 40.97L55.11 40.84L55.21 40.95Q50.95 39.58 46.34 39.84L46.31 39.81L46.30 39.80Q41.87 40.21 37.88 42.19L37.86 42.18L37.74 42.05Q38.00 41.40 38.04 41.47L38.08 41.52L38.09 41.53Q41.76 37.51 45.68 33.09L45.76 33.17L45.77 33.18Q50.13 28.14 51.31 23.46L51.21 23.36L51.22 23.37Q51.70 21.64 50.43 20.46L50.53 20.56L50.42 20.46Q49.20 19.33 47.41 19.48L47.43 19.50L47.32 19.39Q47.03 19.40 46.69 19.40L46.65 19.37L46.73 19.45Q45.26 19.50 44.00 20.41L43.99 20.40L43.86 20.27Q42.64 21.72 42.87 24.38L42.83 24.34L42.93 24.44Q41.14 24.10 39.92 23.64L39.95 23.67L39.96 23.67Q39.74 22.24 39.66 20.79L39.68 20.80L39.62 20.75Q39.63 19.20 40.24 18.05L40.07 17.89L40.11 17.93Q42.00 16.66 45.35 16.66L45.33 16.64L46.94 16.50L47.03 16.59Q49.27 16.58 50.22 16.70L50.36 16.84L50.32 16.80Q54.52 17.07 54.79 19.51L54.86 19.58L54.94 19.66Q55.04 20.26 54.97 21.06L54.92 21.01L54.96 21.05Q54.81 21.58 54.65 22.27L54.74 22.35L54.70 22.32Q53.12 30.48 45.55 37.34L45.47 37.26L45.42 37.21Q46.91 37.14 48.28 37.14L48.24 37.10L48.33 37.19Q51.50 37.12 54.35 37.92ZM53.73 17.04L53.71 17.03L53.84 17.16Q52.13 16.40 50.42 16.32L50.55 16.45L47.12 16.26L46.99 16.13Q42.52 15.85 40.31 16.95L40.46 17.09L40.45 17.08Q39.38 18.46 39.38 20.51L39.27 20.40L39.36 20.49Q39.27 21.09 39.58 23.91L39.56 23.89L39.65 23.98Q40.21 24.24 41.39 24.54L41.41 24.56L41.27 25.45L41.37 25.54Q41.35 26.02 41.43 26.55L41.45 26.58L41.41 26.53Q42.74 26.73 45.22 26.96L45.05 26.79L45.12 26.86Q45.18 26.58 45.18 26.24L45.08 26.13L45.11 26.17Q45.16 24.39 46.38 23.03L46.28 22.93L46.40 23.06Q47.61 21.70 49.40 21.82L49.39 21.80L49.25 21.66Q50.04 21.72 50.80 21.88L50.90 21.98L50.90 21.98Q50.87 22.21 50.94 22.63L50.98 22.67L51.06 22.75Q51.00 23.06 50.92 23.41L51.09 23.58L51.02 23.51Q49.75 28.25 45.34 33.09L45.32 33.07L45.34 33.10Q43.26 35.39 37.82 41.45L37.78 41.41L37.73 41.36Q37.50 42.16 37.16 42.73L37.14 42.71L37.19 42.76Q38.75 41.85 40.27 41.31L40.42 41.46L40.38 41.42Q39.66 42.00 38.71 43.48L38.73 43.50L38.65 43.42Q38.45 43.67 38.33 44.02L38.43 44.11L38.48 44.17Q43.24 42.00 48.72 42.19L48.84 42.30L48.80 42.26Q54.51 42.45 59.08 44.81L59.08 44.82L57.98 42.57L58.10 42.69Q57.43 41.34 57.16 40.54L57.05 40.43L57.17 40.54Q56.48 40.16 55.26 39.74L55.27 39.75L55.25 39.73Q55.08 38.99 54.70 37.62L54.58 37.50L54.59 37.51Q52.36 36.92 50.08 36.73L50.25 36.90L50.11 36.75Q54.85 32.25 56.37 23.99L56.35 23.97L56.60 21.13L56.50 21.03Q56.56 19.38 55.34 18.69L55.31 18.66L55.13 18.51L55.19 18.58Q55.19 18.54 55.11 18.54L55.07 18.50L55.11 18.53Q54.80 17.62 53.70 17.01Z"/><path fill="#222" d="M23.35 40.09L23.42 40.16L21.30 40.33L21.32 40.34Q20.81 40.29 19.84 40.35L19.81 40.32L19.89 40.40Q18.91 40.45 18.41 40.45L18.42 40.45L18.36 40.39Q16.74 40.41 15.71 39.57L15.75 39.61L15.70 39.56Q16.52 38.48 18.16 36.35L18.14 36.33L18.07 36.26Q19.34 37.83 21.55 37.60L21.67 37.73L21.57 37.62Q22.51 37.54 23.16 36.89L23.12 36.86L23.18 36.91Q23.77 36.21 23.65 35.33L23.62 35.30L23.63 35.31Q23.66 30.85 23.74 26.28L23.77 26.31L23.76 26.31Q23.63 21.53 24.16 16.92L24.17 16.93L24.32 17.08Q26.10 16.72 28.23 15.70L28.34 15.81L28.42 15.88Q26.48 22.55 26.48 29.79L26.54 29.84L26.55 29.86Q26.52 33.36 26.97 36.86L27.01 36.90L26.98 36.87Q27.04 37.20 27.04 37.54L26.91 37.41L26.99 37.49Q27.04 38.11 26.81 38.64L26.70 38.53L26.69 38.52Q26.27 39.92 23.45 40.19ZM28.28 42.93L28.37 43.02L28.69 42.99L29.02 42.90L29.29 42.79L29.16 42.67Q29.49 42.42 29.56 42.31L29.67 42.41L29.62 42.36Q29.81 41.19 29.55 40.20L29.48 40.13L29.43 40.08Q28.18 34.38 28.45 28.02L28.42 27.99L28.46 28.03Q28.67 21.88 30.46 15.98L30.46 15.99L30.44 15.97Q29.67 16.71 28.41 17.44L28.28 17.31L28.27 17.30Q28.42 16.50 28.84 14.97L28.90 15.04L28.84 14.97Q26.35 16.33 23.69 16.64L23.76 16.71L23.81 16.76Q23.37 21.07 23.29 26.02L23.42 26.15L23.34 26.07Q23.33 32.04 23.41 35.47L23.31 35.37L23.25 35.31Q23.35 37.12 21.60 37.28L21.70 37.37L21.55 37.22Q19.85 37.35 18.17 35.71L18.31 35.85L18.15 35.69Q16.11 38.22 15.16 39.78L15.31 39.93L15.17 39.79Q15.89 40.51 16.91 40.74L16.80 40.62L16.99 40.81Q16.90 40.95 16.64 41.18L16.56 41.11L16.50 41.05Q18.00 42.05 19.98 42.32L19.97 42.31L20.02 42.35Q20.45 42.44 23.74 42.75L23.62 42.63L23.62 42.62Q26.87 42.89 28.24 42.89Z"/><path fill="#111" d="M79.61 40.28L79.64 40.31L79.80 40.47Q76.78 36.54 74.16 27.90L74.13 27.87L74.08 27.83Q73.46 25.72 72.66 23.59L72.66 23.58L69.75 32.33L69.86 32.44Q67.99 37.31 65.60 40.54L65.50 40.45L65.64 40.58Q64.69 40.55 63.06 40.71L63.01 40.66L63.01 40.66Q63.27 39.63 63.27 38.37L63.17 38.27L63.28 38.38Q63.24 32.33 60.50 26.20L60.46 26.15L60.52 26.21Q57.32 19.24 51.45 14.26L51.53 14.33L51.44 14.24Q53.57 14.92 55.93 15.45L55.99 15.52L55.89 15.42Q64.67 23.97 65.97 34.94L65.84 34.81L65.96 34.93Q67.61 31.63 69.05 26.26L69.06 26.27L69.02 26.23Q71.07 18.79 71.56 17.39L71.50 17.32L73.79 17.37L73.81 17.38Q74.38 19.29 75.03 21.61L75.08 21.66L76.28 26.06L76.41 26.19Q77.94 31.61 79.35 34.84L79.28 34.77L79.36 34.85Q80.90 23.10 88.81 15.75L88.85 15.79L88.95 15.89Q90.46 15.54 93.43 14.89L93.32 14.78L93.42 14.87Q88.00 19.09 84.96 25.22L85.02 25.28L84.98 25.24Q81.97 31.56 81.97 38.34L81.91 38.28L81.93 38.30Q81.95 39.42 82.02 40.56L81.93 40.47L80.78 40.35L80.85 40.42Q80.22 40.32 79.65 40.32ZM86.02 43.34L85.90 43.22L85.87 43.19Q84.73 39.73 84.84 35.84L84.78 35.78L84.90 35.90Q85.20 24.33 94.57 16.06L94.57 16.06L94.57 16.07Q93.54 16.22 91.60 16.75L91.64 16.79L91.61 16.76Q92.48 15.84 94.39 14.06L94.56 14.23L94.43 14.10Q91.87 14.96 88.94 15.46L88.93 15.45L88.83 15.35Q81.34 22.48 79.43 31.96L79.54 32.06L79.51 32.03Q78.96 30.41 76.10 18.95L76.15 19.01L75.96 18.81Q75.57 18.92 74.62 18.92L74.68 18.98L74.44 17.98L74.47 18.01Q74.24 17.36 74.01 16.86L74.13 16.98L71.05 16.80L71.08 16.83Q70.21 19.23 68.94 24.35L69.04 24.45L68.97 24.38Q67.70 29.51 66.71 31.98L66.70 31.97L66.71 31.99Q65.27 24.23 59.71 17.91L59.58 17.77L59.62 17.81Q59.18 17.79 58.22 17.60L58.24 17.61L58.24 17.61Q57.57 16.83 56.01 15.19L55.87 15.06L55.96 15.14Q52.58 14.35 50.41 13.55L50.27 13.41L50.31 13.46Q56.08 18.23 59.35 24.44L59.32 24.40L59.35 24.44Q62.85 31.10 62.85 38.10L62.81 38.06L62.83 38.08Q62.72 39.53 62.53 41.13L62.57 41.18L62.53 41.13Q62.79 41.16 63.25 41.07L63.23 41.05L63.29 41.11Q63.75 41.02 63.98 41.02L64.01 41.05L64.05 42.11L63.98 42.05Q64.02 42.54 64.09 43.08L64.03 43.01L63.95 42.93Q65.13 42.89 67.41 42.74L67.47 42.80L67.48 42.81Q71.14 37.45 73.88 28.04L73.85 28.01L73.80 27.96Q76.65 36.83 79.62 40.79L79.63 40.80L79.49 40.65Q79.98 40.68 80.81 40.80L80.87 40.85L80.86 40.85Q81.77 41.95 82.84 43.02L82.87 43.05L82.80 42.97Q83.47 42.92 85.87 43.19Z"/><path fill="#333" d="M94.96 28.98L94.86 28.89L94.93 28.95Q92.37 28.95 91.34 30.13L91.34 30.13L91.25 30.03Q90.24 31.23 90.24 33.85L90.22 33.83L90.38 34.00Q90.26 38.97 94.86 38.78L94.97 38.90L94.80 38.72Q97.07 39.08 98.42 37.52L98.43 37.53L98.30 37.41Q99.72 35.92 99.49 33.86L99.51 33.87L99.41 33.77Q99.40 31.22 98.53 30.19L98.57 30.24L98.61 30.27Q97.16 28.97 94.95 28.97ZM100.00 38.78L99.90 38.68L99.96 38.74Q98.80 41.24 94.12 41.24L94.07 41.19L92.62 41.19L92.61 41.18Q90.30 41.23 89.20 40.09L89.20 40.09L89.20 40.08Q88.13 39.02 87.86 36.62L87.80 36.56L87.82 36.57Q87.65 35.08 87.58 33.29L87.63 33.34L87.53 33.24Q87.66 32.42 87.51 30.48L87.34 30.31L87.43 30.40Q87.30 26.08 92.48 26.08L92.41 26.01L93.99 26.03L94.03 26.07Q97.00 26.15 99.09 27.45L99.01 27.36L99.04 27.39Q99.85 27.90 100.35 28.58L100.38 28.62L100.36 28.60Q100.54 27.71 101.07 26.07L101.09 26.09L101.12 26.12Q102.27 25.86 104.59 25.26L104.61 25.27L104.60 25.26Q102.05 29.53 102.05 34.78L102.09 34.82L102.15 34.88Q102.09 38.55 103.46 41.63L103.37 41.54L103.54 41.71Q102.25 41.26 100.34 41.03L100.49 41.17L100.52 41.20Q100.24 40.28 99.94 38.72ZM103.16 43.85L103.14 43.82L105.36 44.41L105.51 44.56Q106.73 44.87 107.72 45.33L107.75 45.35L107.63 45.23Q104.00 40.92 104.00 34.83L103.90 34.73L104.09 34.92Q103.95 30.24 106.08 26.44L106.06 26.41L106.11 26.46Q105.42 26.65 104.09 27.03L104.14 27.08L104.22 27.17Q104.52 26.36 105.39 24.83L105.37 24.82L105.37 24.82Q104.70 24.91 100.71 25.74L100.78 25.82L100.33 27.76L100.20 27.64Q98.36 25.83 93.94 25.60L94.09 25.75L94.08 25.74Q92.99 25.80 90.75 25.95L90.66 25.87L90.77 25.97Q87.05 26.29 87.16 30.32L87.06 30.22L87.06 30.22Q87.27 33.63 87.84 38.09L87.74 37.98L87.81 38.47L87.72 38.38Q87.85 39.23 88.65 40.34L88.65 40.34L88.79 40.48Q88.82 40.51 89.01 40.63L89.00 40.61L89.13 40.74Q89.29 41.13 89.67 41.70L89.79 41.82L89.82 41.85Q91.07 43.21 94.46 43.40L94.44 43.38L94.57 43.52Q96.20 43.63 96.36 43.63L96.40 43.67L97.77 43.48L97.78 43.49Q101.04 43.55 102.26 41.99L102.19 41.92L102.31 42.04Q102.65 42.65 103.26 43.94ZM96.69 31.17L96.74 31.22L96.61 31.09Q98.06 31.21 98.90 31.66L98.89 31.65L98.89 31.66Q99.17 32.43 99.17 33.88L99.11 33.82L99.18 33.89Q99.32 35.74 98.05 37.17L98.09 37.21L98.00 37.13Q96.77 38.59 94.86 38.40L94.97 38.51L94.94 38.48Q93.45 38.44 92.43 38.02L92.43 38.02L92.45 38.05Q92.21 37.16 92.21 35.94L92.33 36.06L92.28 36.01Q92.27 32.35 94.90 31.40L95.00 31.50L94.88 31.37Q95.84 31.12 96.64 31.12Z"/></svg>