<svg xmlns="http://www.w3.org/2000/svg" width="150" height="50" viewBox="0,0,150,50"><path fill="#333" d="M95.95 41.20L95.83 41.09L94.23 41.20L94.20 41.17Q90.71 41.07 89.76 38.94L89.84 39.01L89.82 39.00Q91.07 38.03 92.51 36.93L92.42 36.84L92.54 36.96Q92.98 38.99 95.83 38.84L95.90 38.90L95.95 38.96Q96.66 38.83 97.69 38.60L97.80 38.71L97.71 38.63Q98.71 38.18 98.63 37.22L98.52 37.11L98.53 37.13Q98.50 36.06 96.71 35.37L96.73 35.40L92.89 33.84L92.85 33.80Q90.57 32.51 90.23 28.97L90.26 29.00L90.26 29.00Q90.09 26.89 92.26 26.32L92.25 26.32L92.27 26.33Q93.10 25.98 96.07 25.98L96.06 25.98L96.13 26.04Q100.97 26.01 101.88 28.52L101.90 28.54L101.84 28.47Q101.19 29.01 100.47 29.46L100.61 29.61L99.11 30.47L99.04 30.39Q98.65 28.60 95.42 28.37L95.38 28.34L95.32 28.27Q94.91 28.48 93.88 28.89L93.72 28.73L93.76 28.77Q93.27 29.19 93.27 30.30L93.20 30.23L93.31 30.34Q93.55 31.31 95.38 31.99L95.38 31.99L95.42 32.04Q96.55 32.47 99.21 33.58L99.11 33.47L99.08 33.45Q101.02 34.40 101.21 36.95L101.11 36.85L101.06 36.79Q101.25 37.56 101.18 38.55L101.12 38.50L101.06 38.44Q101.15 39.44 100.58 40.09L100.63 40.13L100.44 39.95Q98.93 41.14 95.88 41.14ZM100.68 43.76L100.71 43.80L100.60 43.68Q101.61 43.81 102.98 43.51L102.89 43.42L102.85 43.38Q103.96 42.74 103.77 41.53L103.71 41.46L103.79 41.55Q103.65 40.91 103.34 39.31L103.43 39.39L103.38 39.34Q102.79 36.36 101.00 35.14L101.08 35.22L101.04 35.18Q100.51 33.77 99.25 33.05L99.31 33.10L99.41 33.20Q97.99 32.62 95.52 31.67L95.55 31.70L95.49 31.65Q95.69 31.24 95.96 31.12L95.95 31.12L95.97 31.14Q96.59 30.69 97.23 30.65L97.25 30.67L97.24 30.65Q98.02 30.60 98.78 30.86L98.76 30.84L98.90 31.05L98.99 31.03L99.11 30.97L99.18 31.07L99.19 31.08Q100.21 31.49 100.40 32.75L100.49 32.84L100.41 32.76Q101.81 32.07 103.71 30.39L103.60 30.28L103.59 30.26Q103.27 29.49 102.28 28.31L102.27 28.30L102.28 28.30Q101.17 25.64 96.07 25.52L96.08 25.53L96.21 25.66Q92.93 25.51 90.95 26.08L91.08 26.20L90.99 26.12Q89.63 26.74 89.86 28.83L89.76 28.73L89.79 28.76Q89.99 30.11 90.91 32.20L90.79 32.09L90.77 32.07Q91.31 33.17 92.33 33.90L92.41 33.97L92.46 34.02Q93.10 35.46 94.39 36.15L94.28 36.04L94.43 36.18Q95.27 36.34 96.23 36.72L96.24 36.73L98.21 37.56L98.17 37.52Q97.75 38.55 95.81 38.44L95.94 38.56L95.90 38.53Q95.51 38.63 94.29 38.33L94.24 38.28L94.25 38.14L94.01 38.12L94.11 38.22Q93.28 37.88 92.63 36.40L92.51 36.28L92.63 36.39Q90.38 37.85 89.28 38.99L89.41 39.12L89.42 39.13Q89.63 39.94 90.65 40.74L90.71 40.80L90.40 40.79L90.49 40.88Q91.89 42.97 96.12 43.35L96.18 43.41L96.16 43.39Q97.37 43.46 100.61 43.69Z"/><path fill="#333" d="M122.47 27.81L122.34 27.68L122.45 27.79Q118.95 27.72 117.85 31.07L117.77 30.99L117.79 31.01Q117.34 32.01 117.23 33.08L117.27 33.12L117.34 33.19Q117.01 35.11 118.00 36.44L117.99 36.43L117.99 36.42Q119.48 37.76 121.95 37.80L121.92 37.77L121.90 37.75Q123.77 37.83 125.18 36.68L125.16 36.67L125.05 36.55Q126.52 35.48 126.52 33.69L126.48 33.64L126.45 33.61Q126.54 33.36 126.46 32.98L126.41 32.93L126.50 33.02Q126.21 27.82 122.40 27.74ZM122.36 40.26L122.39 40.29L122.22 40.13Q118.45 40.39 116.66 38.37L116.64 38.35L116.65 38.36Q116.40 39.36 115.94 40.73L115.95 40.75L116.03 40.82Q114.07 41.57 112.82 42.14L112.84 42.16L112.73 42.06Q115.04 36.22 115.04 29.71L115.03 29.69L114.95 29.61Q114.96 21.33 111.53 13.48L111.47 13.42L111.54 13.50Q113.94 14.90 115.27 15.36L115.27 15.36L115.25 15.34Q117.28 21.90 117.43 27.72L117.54 27.83L117.48 27.77Q118.94 25.11 122.67 25.15L122.72 25.20L122.58 25.07Q125.93 25.22 127.41 27.08L127.48 27.15L127.35 27.02Q129.14 29.27 129.29 32.84L129.35 32.90L129.40 32.95Q129.37 34.03 129.30 35.63L129.23 35.56L129.36 35.69Q129.38 37.20 128.51 38.34L128.33 38.16L128.40 38.23Q126.63 39.92 122.29 40.19ZM127.69 42.62L127.84 42.78L127.80 42.74Q129.28 42.73 130.76 42.04L130.75 42.03L130.80 42.08Q131.90 40.78 131.94 38.84L131.91 38.81L131.86 38.76Q131.82 38.23 131.67 37.05L131.71 37.09L131.72 37.10Q131.73 36.50 131.61 35.58L131.62 35.59L131.65 35.62Q130.74 30.75 129.18 28.70L129.17 28.69L129.22 28.74Q129.18 28.65 128.38 27.78L128.47 27.87L128.46 27.86Q128.08 27.44 127.54 26.64L127.71 26.81L127.70 26.79Q126.06 24.81 122.71 24.85L122.66 24.80L122.68 24.82Q120.63 24.87 119.38 25.48L119.35 25.45L119.30 25.40Q119.03 20.94 118.42 17.75L118.46 17.79L118.31 17.64Q117.64 17.54 116.16 17.16L116.18 17.18L116.24 17.24Q116.04 16.44 115.59 14.99L115.63 15.03L115.66 15.07Q113.08 14.11 110.83 12.55L110.88 12.60L110.93 12.65Q114.77 20.91 114.77 29.70L114.59 29.52L114.76 29.70Q114.67 36.57 112.20 42.78L112.21 42.79L112.26 42.84Q112.93 42.48 114.26 41.91L114.17 41.81L114.19 41.84Q113.93 42.57 113.32 44.09L113.39 44.16L113.47 44.24Q115.27 43.14 118.04 42.61L118.05 42.62L118.49 40.84L118.53 40.88Q120.82 42.57 127.75 42.68ZM124.07 30.09L124.03 30.05L124.07 30.09Q124.97 29.96 125.50 30.34L125.61 30.45L125.53 30.38Q125.87 30.91 126.10 32.93L126.04 32.87L126.02 32.84Q126.40 34.90 125.14 36.21L125.12 36.19L125.12 36.19Q123.88 37.52 121.94 37.40L121.88 37.35L121.77 37.24Q120.99 37.52 119.51 37.03L119.41 36.94L119.54 37.06Q119.28 36.54 119.28 36.01L119.22 35.95L119.15 35.87Q119.28 32.92 120.84 31.32L120.71 31.19L120.79 31.31L120.86 31.38Q122.23 29.93 123.98 30.00Z"/><path fill="#333" d="M31.08 41.52L31.18 41.62L31.03 41.47Q29.06 41.22 26.89 41.07L26.91 41.09L26.86 41.03Q25.35 39.53 22.69 35.68L22.68 35.67L22.74 35.73Q20.50 38.78 18.10 41.22L18.22 41.34L15.98 41.57L16.06 41.66Q14.95 41.80 13.96 42.06L13.98 42.08L14.04 42.15Q18.11 37.92 21.12 33.80L21.11 33.80L21.22 33.90Q17.94 29.71 12.54 24.92L12.58 24.97L12.48 24.86Q14.66 25.56 17.36 25.98L17.36 25.97L17.44 26.05Q20.92 29.19 22.83 31.90L22.69 31.76L22.77 31.84Q24.93 28.82 27.67 26.31L27.68 26.32L27.67 26.31Q30.68 25.93 32.51 25.44L32.62 25.55L32.46 25.39Q27.91 29.02 24.21 33.59L24.32 33.69L24.26 33.63Q27.70 38.36 31.16 41.60ZM33.90 24.62L33.94 24.66L33.93 24.65Q31.02 25.47 27.48 25.81L27.64 25.97L27.57 25.90Q24.62 28.52 22.91 30.99L22.95 31.03L23.02 31.10Q22.10 30.02 20.46 28.05L20.40 27.98L20.23 28.01L20.15 27.93Q20.10 27.99 19.98 27.99L19.91 27.91L19.96 27.97Q19.29 27.22 17.66 25.77L17.60 25.72L17.60 25.71Q14.06 25.22 11.20 24.00L11.06 23.86L11.18 23.98Q16.60 28.68 20.63 33.81L20.67 33.85L20.78 33.96Q17.43 38.61 13.02 42.91L12.96 42.86L12.99 42.88Q13.17 42.72 16.68 41.89L16.57 41.78L16.73 41.94Q15.05 43.11 13.41 44.45L13.55 44.58L13.48 44.52Q16.68 43.61 19.84 43.42L19.79 43.37L19.85 43.43Q22.17 41.10 24.07 38.36L24.22 38.50L24.18 38.47Q25.50 40.13 26.72 41.31L26.83 41.42L26.78 41.37Q26.93 41.41 27.01 41.49L26.96 41.44L27.09 41.37L27.20 41.49Q28.49 42.62 29.82 43.69L29.74 43.60L29.74 43.61Q33.29 44.11 36.18 45.14L36.12 45.08L36.26 45.22Q30.14 40.81 26.44 35.63L26.30 35.49L26.32 35.50Q30.04 30.55 34.61 26.47L34.64 26.50L34.59 26.45Q33.73 26.88 32.74 27.11L32.71 27.08L30.65 27.50L30.61 27.46Q31.72 26.47 33.89 24.61Z"/><path fill="#444" d="M49.59 39.86L49.64 39.91L47.59 39.80L47.59 39.79Q46.73 39.89 45.78 40.00L45.64 39.86L45.77 40.00Q46.22 33.67 46.22 29.68L46.34 29.79L46.24 29.69Q42.43 23.18 34.78 14.50L34.79 14.51L34.75 14.47Q36.43 15.35 39.78 16.15L39.84 16.21L39.82 16.19Q44.87 21.78 47.88 26.99L47.89 27.00L47.86 26.97Q51.00 21.55 55.38 16.52L55.34 16.48L55.25 16.39Q57.74 16.07 60.26 15.27L60.26 15.28L60.29 15.30Q54.23 21.39 49.36 29.80L49.29 29.74L49.29 29.73Q49.36 36.84 49.66 39.93ZM58.66 17.25L61.39 14.43L61.46 14.49Q58.38 15.67 55.25 16.13L55.10 15.98L55.15 16.03Q51.00 20.83 48.19 25.93L48.11 25.86L48.12 25.86Q46.09 22.31 42.90 18.43L42.90 18.43L42.76 18.29Q42.59 18.39 42.10 18.32L41.99 18.21L42.07 18.29Q41.30 17.40 39.78 15.73L39.93 15.88L39.83 15.78Q36.53 15.11 33.56 13.54L33.52 13.51L33.57 13.55Q41.24 21.99 46.00 29.91L46.02 29.93L45.89 29.79Q45.78 36.13 45.17 40.27L45.23 40.33L45.18 40.28Q45.97 40.31 47.41 40.19L47.38 40.15L47.50 41.31L47.53 41.34Q47.50 41.77 47.43 42.30L47.41 42.29L47.45 42.32Q50.85 42.18 52.60 42.37L52.73 42.50L52.58 42.35Q51.42 37.77 51.31 31.79L51.22 31.70L51.35 31.83Q55.70 23.36 62.25 16.01L62.14 15.90L58.61 17.20Z"/><path fill="#111" d="M76.80 40.90L76.87 40.97L76.86 40.96Q75.54 39.26 74.25 36.17L74.19 36.11L72.20 31.12L72.15 31.07Q70.52 35.03 69.91 36.33L69.91 36.33L69.85 36.27Q68.50 39.29 66.90 41.19L66.94 41.24L66.81 41.11Q66.43 41.11 65.67 41.23L65.70 41.25L65.76 41.31Q65.68 33.81 59.86 27.88L59.99 28.01L59.92 27.94Q58.18 26.13 56.17 24.64L56.20 24.67L56.08 24.56Q57.93 25.11 59.80 25.42L59.78 25.40L59.93 25.54Q66.00 30.51 67.44 36.75L67.45 36.76L67.41 36.72Q68.27 34.84 69.45 31.64L69.43 31.62L69.43 31.62Q70.70 27.79 71.27 26.50L71.46 26.69L72.85 26.67L72.83 26.65Q73.70 28.36 74.88 31.63L74.93 31.68L74.75 31.49Q76.20 35.27 76.85 36.68L76.70 36.53L76.71 36.54Q78.66 30.38 84.14 25.81L84.17 25.84L84.12 25.79Q85.22 25.60 87.96 25.03L88.11 25.18L88.03 25.09Q79.39 31.11 78.21 41.09L78.22 41.10L77.62 41.03L77.57 40.98Q77.10 40.82 76.76 40.85ZM79.96 43.52L82.02 43.72L81.82 43.52Q81.54 42.02 81.54 40.50L81.54 40.49L81.60 40.56Q81.58 37.30 82.99 34.07L83.07 34.14L83.05 34.13Q85.05 29.61 89.16 26.53L89.11 26.48L89.08 26.45Q87.86 26.71 85.99 27.05L86.06 27.13L86.06 27.13Q87.98 25.43 89.27 24.51L89.19 24.42L86.67 24.88L86.80 25.01Q85.63 25.29 84.30 25.44L84.19 25.33L84.30 25.44Q78.99 29.53 77.05 34.56L77.18 34.69L77.11 34.62Q76.36 32.35 74.99 28.09L75.01 28.11L75.07 28.16Q74.67 28.11 74.41 28.11L74.54 28.25L74.01 28.25L73.91 28.14Q73.79 27.83 72.99 26.08L73.12 26.21L71.02 26.17L70.99 26.14Q70.04 28.96 67.94 34.59L68.02 34.66L67.92 34.56Q66.65 30.93 63.56 27.66L63.51 27.60L63.57 27.67Q63.19 27.55 62.89 27.51L62.99 27.62L62.47 27.56L62.35 27.43Q61.58 26.70 59.79 25.10L59.68 24.99L59.84 25.16Q56.68 24.51 55.01 24.01L54.93 23.93L54.86 23.87Q65.63 31.36 65.24 41.67L65.23 41.66L65.18 41.61Q65.44 41.68 65.80 41.64L65.81 41.65L65.77 41.61Q66.22 41.66 66.41 41.66L66.46 41.71L66.40 41.65Q66.32 41.42 66.51 43.51L66.59 43.59L68.51 43.42L68.58 43.49Q71.01 40.51 73.25 34.76L73.39 34.90L73.35 34.86Q74.94 38.80 76.80 41.47L76.66 41.32L76.70 41.37Q76.92 41.24 77.18 41.26L77.31 41.39L77.20 41.28Q77.49 41.32 77.75 41.32L77.81 41.37L79.85 43.41Z"/></svg>