<svg xmlns="http://www.w3.org/2000/svg" width="150" height="50" viewBox="0,0,150,50"><path fill="#222" d="M47.64 18.49L47.52 18.37L47.66 18.52Q46.88 18.84 46.73 19.64L46.64 19.55L46.73 24.78L46.66 24.71Q47.85 24.76 50.06 24.49L50.00 24.42L50.13 24.56Q50.07 24.96 50.03 25.80L49.97 25.73L49.99 25.76Q50.07 26.63 50.07 27.09L50.02 27.04L48.39 27.08L48.38 27.07Q47.52 27.09 46.65 27.09L46.67 27.11L46.73 27.17Q46.81 31.44 46.73 39.81L46.60 39.69L46.70 39.79Q44.44 39.80 42.95 40.49L43.00 40.54L42.99 40.53Q43.98 34.29 43.87 27.06L43.88 27.06L43.93 27.12Q43.29 27.09 42.00 26.82L41.95 26.77L42.01 26.83Q41.99 25.82 41.80 23.88L41.70 23.79L41.85 23.93Q42.86 24.33 43.81 24.53L43.82 24.53L43.90 24.61Q43.81 23.91 43.50 21.44L43.51 21.44L43.40 21.33Q43.33 19.44 43.33 18.49L43.26 18.42L43.30 18.45Q43.19 16.67 44.60 16.10L44.62 16.12L44.72 16.21Q45.45 15.76 50.28 14.93L50.36 15.01L50.29 14.94Q51.09 14.79 51.93 14.67L52.03 14.78L51.93 14.67Q51.71 15.44 51.55 16.31L51.63 16.39L51.24 17.87L51.28 17.90Q50.71 17.83 50.22 17.95L50.08 17.81L50.19 17.92Q49.49 17.83 47.59 18.44ZM53.05 19.59L53.05 19.60L53.07 19.61Q53.38 17.38 53.99 14.83L53.93 14.77L53.93 14.77Q53.42 15.21 52.12 15.82L52.17 15.86L52.57 14.17L52.52 14.12Q51.26 14.26 48.78 14.80L48.78 14.80L48.77 14.78Q47.64 14.91 44.44 15.83L44.35 15.73L44.48 15.87Q42.88 16.25 42.88 18.11L42.80 18.03L42.89 18.12Q42.87 18.41 42.95 18.75L42.86 18.66L42.91 18.71Q43.07 19.97 43.18 21.31L43.26 21.39L43.45 24.04L43.42 24.02Q42.02 23.61 41.38 23.15L41.37 23.15L41.52 23.30Q41.56 24.17 41.59 25.20L41.56 25.16L41.66 27.13L41.76 27.23Q42.47 27.40 43.27 27.48L43.13 27.34L43.23 29.54L43.60 29.53L43.60 29.52Q43.56 35.73 42.57 41.17L42.49 41.09L42.56 41.16Q43.55 40.67 44.73 40.41L44.62 40.29L44.46 42.38L44.38 42.30Q45.78 42.18 47.07 42.14L46.96 42.02L47.06 42.12Q48.21 42.02 49.47 42.28L49.56 42.38L49.47 42.29Q48.74 37.41 48.74 29.45L48.63 29.34L48.62 29.33Q49.80 29.41 51.90 29.49L51.96 29.55L51.85 27.58L51.95 27.67Q51.94 26.72 51.98 25.77L51.92 25.70L51.81 25.59Q51.50 25.86 50.44 26.12L50.34 26.03L50.32 26.00Q50.38 25.38 50.50 24.05L50.40 23.96L50.47 24.02Q49.56 24.18 48.76 24.25L48.87 24.36L48.90 24.39Q48.76 22.84 48.87 21.44L49.01 21.57L48.92 21.48Q49.09 20.85 49.62 20.51L49.64 20.53L49.57 20.46Q50.51 19.76 51.33 19.69L51.31 19.67L51.43 19.79Q52.20 19.66 53.03 19.58Z"/><path fill="#222" d="M74.85 27.11L74.98 27.23L74.97 27.23Q75.64 27.09 77.05 26.94L77.17 27.07L77.14 27.04Q77.10 27.69 77.10 28.33L77.04 28.27L77.04 29.53L77.04 29.53Q76.24 29.57 75.41 29.64L75.33 29.57L75.48 29.71Q74.63 29.75 73.80 29.71L73.71 29.62L73.66 29.57Q70.98 35.91 67.55 40.52L67.36 40.33L67.44 40.41Q65.01 41.14 63.72 41.75L63.63 41.65L63.57 41.60Q67.68 35.89 70.72 29.60L70.72 29.60L68.27 29.77L68.25 29.76Q68.23 28.41 68.12 27.07L68.11 27.06L67.98 26.93Q69.95 27.15 72.00 27.15L72.05 27.20L73.98 23.53L73.91 23.47Q74.93 21.59 76.15 19.99L76.20 20.04L76.05 19.89Q74.56 20.12 72.96 20.12L72.97 20.13L72.90 20.05Q66.82 20.07 63.05 17.86L63.21 18.02L62.47 16.22L62.55 16.29Q62.20 15.45 61.82 14.57L61.69 14.44L61.78 14.53Q66.15 17.19 71.86 17.42L71.77 17.32L71.70 17.26Q76.86 17.51 82.00 15.53L82.11 15.64L82.08 15.61Q81.90 16.03 81.40 16.91L81.40 16.90L81.42 16.92Q77.69 21.57 74.84 27.09ZM82.95 18.23L83.01 18.29L83.89 16.16L83.91 16.18Q83.07 16.79 81.40 17.51L81.40 17.52L81.48 17.10L81.47 17.09Q81.72 17.08 81.84 16.96L81.68 16.81L81.73 16.85Q82.06 16.12 82.78 14.79L82.96 14.96L82.78 14.78Q77.61 17.23 71.86 17.00L71.89 17.03L71.81 16.94Q65.84 16.72 61.08 13.75L60.92 13.59L61.07 13.74Q62.10 15.62 62.94 18.28L62.92 18.26L62.90 18.24Q63.95 18.83 64.75 19.14L64.77 19.16L64.81 19.19Q64.95 19.53 65.41 21.39L65.36 21.35L65.44 21.43Q68.50 22.59 74.02 22.43L74.13 22.55L74.01 22.42Q73.87 23.16 71.89 26.92L71.78 26.82L71.81 26.84Q69.71 26.80 67.73 26.61L67.66 26.54L67.71 26.59Q67.91 27.56 67.91 28.43L67.92 28.44L67.74 29.97L69.56 30.11L69.53 31.50L69.42 31.38Q65.62 38.89 62.84 42.46L62.72 42.34L62.77 42.39Q64.31 41.58 65.95 41.08L65.95 41.09L66.12 41.26Q65.39 42.13 64.02 43.84L63.90 43.72L64.04 43.86Q67.17 42.72 69.60 42.49L69.56 42.45L69.49 42.38Q72.48 38.67 75.60 31.90L75.71 32.00L79.05 32.10L79.01 32.06Q78.95 31.17 78.95 30.26L79.06 30.36L78.96 28.47L78.91 28.43Q78.78 28.56 78.23 28.60L78.12 28.49L78.19 28.56Q77.61 28.57 77.34 28.57L77.31 28.54L77.25 28.48Q77.41 28.53 77.45 28.38L77.31 28.23L77.41 28.07L77.47 28.13Q79.89 22.89 82.97 18.25Z"/><path fill="#222" d="M120.31 29.07L120.28 29.04L120.40 29.16Q118.46 28.94 117.22 30.37L117.25 30.39L117.32 30.46Q116.08 31.89 115.89 33.79L115.92 33.83L115.77 33.68Q115.70 35.89 116.79 36.86L116.81 36.88L116.74 36.81Q117.77 37.73 119.86 37.61L119.96 37.71L119.85 37.60Q122.02 37.52 123.12 36.84L123.08 36.79L123.04 36.76Q124.26 35.73 124.26 34.17L124.25 34.16L124.16 34.07Q124.16 33.69 124.09 33.31L124.14 33.36L124.09 33.32Q124.17 31.64 123.06 30.29L123.11 30.33L123.05 30.28Q121.94 28.92 120.26 29.03ZM119.96 40.26L119.89 40.19L120.02 40.32Q115.62 40.30 114.21 39.54L114.22 39.54L114.14 39.46Q113.08 38.68 112.89 36.96L113.01 37.08L112.91 36.98Q112.94 36.37 112.98 35.64L112.88 35.55L112.96 35.62Q113.03 34.59 113.03 34.14L112.99 34.09L113.08 34.18Q113.45 31.24 113.61 30.56L113.60 30.56L113.68 30.63Q114.11 28.66 114.94 27.25L114.86 27.17L114.98 27.28Q117.56 22.82 123.50 16.46L123.57 16.53L123.48 16.45Q126.15 16.15 128.36 15.35L128.37 15.36L128.50 15.49Q121.47 22.78 118.27 27.00L118.35 27.08L118.29 27.01Q119.43 26.67 120.72 26.67L120.75 26.70L120.66 26.61Q124.05 26.68 125.57 28.63L125.52 28.57L125.48 28.54Q126.81 30.17 127.15 33.71L127.14 33.70L127.06 33.62Q127.30 34.50 127.30 35.11L127.21 35.02L127.17 34.98Q127.22 38.15 125.01 39.22L125.11 39.32L125.00 39.21Q123.80 39.83 119.91 40.21ZM122.23 42.65L122.15 42.57L122.21 42.62Q123.60 42.69 125.58 42.76L125.44 42.62L125.43 42.61Q127.10 42.72 128.66 41.99L128.62 41.95L128.73 42.07Q129.83 41.27 129.83 39.48L129.71 39.35L129.86 39.51Q129.86 39.00 129.69 38.01L129.67 38.00L129.59 37.92Q129.43 36.94 129.43 36.49L129.51 36.56L129.48 36.54Q128.66 31.87 127.06 29.96L126.95 29.85L126.90 29.80Q126.92 29.79 126.77 29.56L126.76 29.55L126.45 29.32L126.26 29.17L126.37 29.27Q126.02 28.77 125.41 27.82L125.38 27.79L125.38 27.79Q124.56 26.93 122.58 26.47L122.61 26.51L122.44 26.34Q123.78 24.86 126.75 21.17L126.68 21.10L130.88 15.78L130.95 15.85Q129.43 16.77 127.03 17.53L126.92 17.41L127.05 17.54Q127.89 16.48 129.68 14.50L129.61 14.44L129.70 14.53Q127.23 15.52 123.35 16.09L123.44 16.18L123.44 16.18Q117.66 22.01 114.69 26.96L114.72 26.99L114.73 27.00Q113.23 29.54 112.66 35.78L112.57 35.69L112.63 35.75Q112.62 36.38 112.69 37.34L112.62 37.26L112.62 37.26Q112.64 38.96 113.74 39.87L113.83 39.96L113.78 39.91Q114.10 39.99 114.06 40.03L114.15 40.12L114.05 40.02Q114.59 41.10 115.39 41.52L115.40 41.53L115.40 41.53Q116.70 42.07 118.65 42.26L118.72 42.33L118.69 42.31Q118.61 42.23 122.12 42.53ZM122.07 31.48L122.08 31.49L122.00 31.41Q122.57 31.30 123.52 31.79L123.49 31.76L123.43 31.70Q123.85 32.73 123.85 33.38L123.91 33.43L123.78 33.31Q123.99 35.19 123.03 36.18L123.01 36.16L123.02 36.16Q122.02 36.95 119.92 37.26L119.97 37.30L119.83 37.16Q118.53 37.31 118.00 37.05L117.95 36.99L118.00 37.05Q117.70 36.48 117.70 36.18L117.74 36.22L117.68 36.15Q117.49 32.92 120.42 31.62L120.43 31.63L120.44 31.64Q121.29 31.39 122.05 31.47Z"/><path fill="#111" d="M23.35 40.09L23.45 40.19L21.22 40.24L21.37 40.40Q20.75 40.23 19.78 40.29L19.93 40.44L19.91 40.42Q18.84 40.38 18.35 40.38L18.43 40.46L18.48 40.52Q16.77 40.44 15.75 39.61L15.77 39.63L15.77 39.63Q16.48 38.43 18.11 36.30L18.17 36.35L18.21 36.40Q19.35 37.84 21.55 37.61L21.62 37.67L21.62 37.68Q22.54 37.57 23.18 36.92L23.18 36.91L23.14 36.88Q23.91 36.35 23.79 35.47L23.76 35.43L23.73 35.41Q23.53 30.71 23.60 26.14L23.69 26.23L23.78 26.32Q23.76 21.66 24.30 17.06L24.18 16.94L24.17 16.93Q26.10 16.73 28.23 15.70L28.31 15.78L28.35 15.82Q26.54 22.61 26.54 29.84L26.50 29.80L26.46 29.76Q26.43 33.27 26.89 36.78L26.82 36.71L26.91 36.80Q26.96 37.12 26.96 37.46L27.05 37.55L26.92 37.41Q27.07 38.14 26.84 38.67L26.72 38.55L26.73 38.56Q26.21 39.86 23.39 40.13ZM28.26 42.90L28.26 42.91L28.67 42.98L28.87 42.76L29.11 42.61L29.20 42.70Q29.57 42.50 29.64 42.39L29.53 42.28L29.66 42.40Q29.71 41.08 29.44 40.09L29.48 40.13L29.41 40.06Q28.16 34.35 28.42 27.99L28.43 28.00L28.34 27.91Q28.56 21.78 30.35 15.88L30.49 16.01L30.49 16.01Q29.68 16.72 28.42 17.45L28.30 17.33L28.31 17.33Q28.58 16.66 29.00 15.14L28.89 15.03L28.99 15.12Q26.51 16.49 23.85 16.80L23.81 16.76L23.66 16.61Q23.49 21.20 23.42 26.15L23.40 26.13L23.35 26.08Q23.31 32.02 23.39 35.45L23.35 35.41L23.28 35.34Q23.45 37.23 21.70 37.38L21.61 37.29L21.69 37.36Q19.93 37.43 18.26 35.80L18.14 35.68L18.22 35.77Q16.15 38.26 15.20 39.82L15.20 39.83L15.28 39.90Q15.93 40.55 16.96 40.78L16.89 40.72L16.95 40.78Q16.90 40.95 16.63 41.18L16.57 41.12L16.49 41.03Q17.96 42.01 19.94 42.28L19.97 42.31L19.95 42.29Q20.34 42.34 23.64 42.64L23.72 42.73L23.65 42.65Q26.90 42.92 28.27 42.92Z"/><path fill="#222" d="M89.11 15.86L89.14 15.89L89.02 15.77Q91.02 20.74 91.59 25.92L91.54 25.87L91.52 25.85Q95.23 21.71 101.13 16.88L101.25 17.00L101.27 17.02Q104.32 16.56 106.94 15.77L107.07 15.89L100.46 21.47L100.53 21.53Q97.10 24.46 94.25 27.32L94.13 27.20L94.11 27.18Q102.14 36.39 107.20 41.11L107.18 41.09L107.13 41.04Q104.18 40.25 101.85 40.10L101.87 40.11L101.85 40.10Q96.03 34.66 91.73 28.84L91.71 28.82L91.61 28.72Q91.85 35.47 89.99 40.80L89.90 40.71L89.98 40.79Q89.66 40.74 89.17 40.93L89.31 41.07L89.09 41.05L89.24 41.19Q88.99 41.17 86.44 42.08L86.53 42.18L86.49 42.13Q89.47 35.60 89.13 28.14L89.07 28.08L89.03 28.04Q88.70 20.70 85.16 14.19L85.18 14.21L85.75 14.52L86.20 14.85L86.27 14.89L86.15 14.76Q86.91 15.18 89.12 15.87ZM89.42 15.60L89.42 15.60L89.34 15.52Q87.19 15.08 84.56 13.56L84.54 13.54L84.49 13.49Q88.74 20.74 88.74 29.69L88.77 29.72L88.73 29.69Q88.67 36.63 85.70 42.68L85.84 42.82L87.79 41.88L87.76 41.85Q87.43 42.92 86.74 44.22L86.66 44.14L86.71 44.19Q89.03 43.46 90.97 43.04L90.85 42.92L91.08 42.92L90.98 42.82Q91.20 42.74 91.77 42.59L91.79 42.61L91.94 42.76Q93.51 36.75 93.63 31.95L93.52 31.84L93.53 31.86Q95.79 34.53 97.62 36.40L97.55 36.34L97.46 36.25Q98.63 37.34 101.64 40.31L101.64 40.30L101.81 40.48L101.84 40.51Q102.83 41.30 104.69 42.90L104.67 42.88L104.62 42.83Q108.58 43.64 112.05 45.35L112.00 45.30L112.00 45.30Q102.59 36.61 96.34 29.19L96.32 29.16L96.39 29.23Q100.86 25.02 109.61 16.42L109.53 16.33L109.51 16.32Q106.97 17.47 104.95 17.85L104.97 17.86L105.04 17.93Q106.17 16.85 108.49 14.84L108.66 15.01L108.52 14.87Q104.45 16.31 101.10 16.50L101.14 16.55L101.17 16.58Q98.26 18.81 93.39 23.49L93.22 23.33L93.28 23.38Q92.91 20.80 92.34 18.25L92.43 18.34L92.44 18.36Q91.24 18.18 90.25 17.84L90.25 17.84L90.11 17.70Q89.94 17.00 89.37 15.55Z"/></svg>