<svg xmlns="http://www.w3.org/2000/svg" width="150" height="50" viewBox="0,0,150,50"><path fill="#111" d="M113.63 41.02L113.75 41.13L113.82 41.20Q116.92 36.88 123.62 28.96L123.54 28.89L123.65 28.99Q117.69 29.15 113.92 27.78L113.95 27.82L113.85 27.71Q113.15 26.26 112.39 24.85L112.37 24.83L112.45 24.91Q116.52 26.39 120.98 26.43L121.02 26.48L121.07 26.53Q125.51 26.55 129.70 25.48L129.66 25.44L129.61 25.39Q129.33 26.18 129.06 26.71L128.94 26.59L129.02 26.67Q126.47 28.88 123.65 32.49L123.60 32.44L118.69 38.65L118.84 38.80Q121.05 38.58 123.30 38.65L123.29 38.64L123.22 38.57Q125.47 38.69 127.71 39.07L127.67 39.02L127.71 39.06Q127.80 39.61 128.52 41.63L128.43 41.54L128.61 41.72Q124.83 40.83 120.84 40.95L120.81 40.92L120.74 40.85Q116.84 41.02 113.18 42.20L113.27 42.29L113.16 42.18Q113.31 42.10 113.77 41.15ZM112.57 42.77L112.56 42.76L112.56 42.76Q113.46 42.56 115.06 42.14L114.93 42.01L115.04 42.12Q114.76 42.30 114.34 42.72L114.37 42.74L114.27 42.64Q114.04 43.21 113.43 44.35L113.58 44.51L113.41 44.33Q118.27 43.14 123.26 43.29L123.18 43.22L123.15 43.19Q128.22 43.46 132.79 45.33L132.64 45.17L132.67 45.20Q131.26 43.37 130.34 41.32L130.34 41.31L130.41 41.38Q129.60 41.03 128.53 40.80L128.45 40.72L128.53 40.80Q128.33 40.06 127.95 38.62L127.90 38.57L128.03 38.70Q126.47 38.36 122.89 38.24L122.84 38.19L122.78 38.14Q125.18 34.82 130.20 28.46L130.26 28.52L130.20 28.46Q130.58 27.85 131.26 26.52L131.17 26.43L128.89 27.19L128.82 27.12Q128.99 27.14 129.15 27.02L129.20 27.07L129.38 26.88L129.29 26.78Q129.72 25.69 130.29 24.74L130.42 24.87L130.42 24.87Q125.76 26.23 121.04 26.15L121.07 26.18L121.02 26.13Q116.14 25.97 111.65 24.14L111.68 24.18L111.68 24.18Q112.87 26.05 113.67 28.11L113.76 28.20L113.62 28.06Q114.57 28.47 115.63 28.74L115.50 28.60L115.50 28.60Q115.82 29.42 116.12 30.87L116.06 30.80L115.98 30.73Q117.70 31.11 121.02 31.27L120.93 31.19L120.91 31.16Q118.55 34.51 113.37 40.95L113.35 40.92L113.37 40.95Q113.13 41.54 112.56 42.76Z"/><path fill="#222" d="M28.37 28.68L28.41 28.72L22.55 28.84L22.44 28.73Q19.58 28.84 16.65 28.76L16.65 28.77L16.53 28.64Q16.81 35.51 14.75 41.03L14.68 40.96L14.58 40.85Q12.87 41.47 11.12 42.15L11.09 42.12L11.14 42.17Q13.90 36.45 13.90 29.79L13.88 29.77L13.83 29.71Q13.79 21.18 9.68 14.14L9.82 14.28L9.80 14.26Q11.22 14.96 13.69 15.76L13.80 15.86L13.73 15.80Q15.85 20.85 16.38 25.72L16.50 25.84L16.45 25.79Q19.55 26.11 22.41 26.07L22.40 26.07L22.55 26.21Q25.12 26.12 28.43 25.85L28.45 25.87L28.46 25.88Q28.87 21.42 30.62 16.31L30.68 16.38L30.76 16.46Q32.54 15.88 34.79 15.04L34.89 15.14L34.76 15.02Q31.28 21.89 31.28 29.84L31.27 29.84L31.16 29.72Q31.14 35.91 33.50 41.24L33.68 41.42L33.60 41.34Q32.04 40.77 29.99 40.47L29.99 40.47L30.00 40.48Q28.19 35.32 28.30 28.62ZM29.73 40.82L29.57 40.66L29.70 40.79Q30.61 40.83 31.72 41.09L31.78 41.15L31.86 41.24Q32.05 41.80 32.70 43.29L32.83 43.43L32.85 43.44Q36.24 44.44 38.03 45.35L37.84 45.16L37.85 45.17Q33.55 39.15 33.24 30.89L33.23 30.88L33.09 30.74Q32.91 22.84 36.57 16.02L36.45 15.90L35.43 16.40L35.55 16.52Q34.98 16.68 34.37 16.83L34.40 16.86L34.38 16.84Q34.76 16.01 35.60 14.45L35.57 14.41L35.57 14.41Q33.00 15.54 30.38 16.03L30.27 15.93L30.26 15.92Q28.61 20.78 28.15 25.46L28.19 25.49L28.18 25.49Q25.80 25.81 23.37 25.81L23.23 25.68L23.26 25.70Q20.80 25.64 18.29 25.49L18.27 25.47L18.46 25.66Q18.11 22.27 17.01 18.20L17.13 18.32L17.01 18.20Q16.41 18.17 14.97 17.79L14.89 17.72L14.98 17.81Q14.47 16.46 14.01 15.43L13.98 15.40L14.09 15.51Q11.25 14.65 8.97 13.40L9.03 13.46L8.99 13.41Q13.67 20.95 13.67 29.75L13.52 29.59L13.57 29.65Q13.59 36.63 10.47 42.76L10.55 42.84L10.43 42.73Q11.22 42.52 12.55 41.95L12.55 41.95L12.62 42.02Q12.12 42.70 11.32 44.22L11.46 44.36L11.47 44.37Q14.15 43.24 16.39 42.82L16.39 42.82L16.46 42.89Q18.29 37.30 18.48 31.13L18.48 31.13L18.59 31.24Q20.13 31.10 23.33 31.07L23.29 31.03L23.30 31.04Q26.25 31.10 28.15 31.17L28.06 31.07L28.06 31.08Q28.43 36.92 29.76 40.85Z"/><path fill="#333" d="M71.06 29.16L70.94 29.04L71.06 29.16Q69.18 29.00 67.95 30.43L67.96 30.43L67.92 30.40Q66.75 31.89 66.56 33.79L66.54 33.78L66.52 33.75Q66.21 35.73 67.29 36.70L67.37 36.77L67.29 36.70Q68.48 37.77 70.57 37.65L70.54 37.63L70.53 37.61Q72.74 37.58 73.84 36.89L73.78 36.83L73.68 36.73Q74.85 35.66 74.85 34.09L74.88 34.12L74.86 34.10Q74.82 33.68 74.74 33.30L74.86 33.42L74.76 33.31Q74.93 31.73 73.82 30.38L73.75 30.30L73.72 30.28Q72.62 28.93 70.95 29.05ZM70.58 40.22L70.58 40.21L70.60 40.24Q66.28 40.29 64.87 39.53L64.74 39.40L64.72 39.38Q63.75 38.68 63.56 36.97L63.66 37.07L63.56 36.97Q63.47 36.23 63.51 35.50L63.51 35.50L63.50 35.50Q63.68 34.57 63.68 34.11L63.78 34.22L63.69 34.12Q64.15 31.27 64.30 30.59L64.29 30.58L64.24 30.52Q64.74 28.63 65.58 27.22L65.70 27.34L65.61 27.25Q68.21 22.81 74.15 16.45L74.18 16.48L74.16 16.46Q76.94 16.27 79.15 15.47L79.17 15.49L79.17 15.49Q72.19 22.83 68.99 27.05L69.09 27.15L69.09 27.15Q70.08 26.65 71.37 26.65L71.32 26.61L71.27 26.55Q74.70 26.67 76.22 28.61L76.20 28.59L76.21 28.60Q77.51 30.21 77.86 33.75L77.81 33.70L77.85 33.74Q77.96 34.50 77.96 35.11L77.81 34.96L77.86 35.01Q77.98 38.25 75.77 39.31L75.79 39.34L75.79 39.34Q74.51 39.88 70.63 40.26ZM72.84 42.59L72.93 42.67L72.92 42.67Q74.19 42.61 76.17 42.68L76.20 42.71L76.20 42.71Q77.79 42.74 79.35 42.02L79.27 41.94L79.28 41.95Q80.41 41.18 80.41 39.39L80.47 39.44L80.50 39.47Q80.39 38.87 80.21 37.88L80.28 37.94L80.38 38.04Q80.04 36.88 80.04 36.43L80.11 36.50L80.12 36.50Q79.31 31.85 77.71 29.95L77.64 29.87L77.60 29.83Q77.56 29.76 77.41 29.53L77.49 29.61L77.18 29.38L76.93 29.16L76.94 29.18Q76.62 28.70 76.01 27.75L76.05 27.79L76.15 27.89Q75.11 26.82 73.14 26.36L73.24 26.46L73.28 26.51Q74.35 24.76 77.32 21.06L77.41 21.16L81.64 15.87L81.57 15.80Q80.11 16.78 77.72 17.54L77.72 17.55L77.54 17.37Q78.47 16.39 80.26 14.41L80.26 14.41L80.27 14.42Q77.94 15.56 74.06 16.13L74.15 16.22L74.13 16.20Q68.28 21.96 65.31 26.91L65.34 26.95L65.42 27.02Q63.85 29.48 63.27 35.73L63.37 35.82L63.20 35.66Q63.21 36.31 63.29 37.26L63.28 37.26L63.32 37.30Q63.34 38.99 64.44 39.90L64.52 39.98L64.51 39.97Q64.76 39.99 64.72 40.03L64.85 40.16L64.89 40.20Q65.26 41.10 66.06 41.52L65.99 41.45L66.04 41.50Q67.44 42.14 69.38 42.33L69.32 42.27L69.40 42.35Q69.32 42.26 72.82 42.57ZM72.72 31.46L72.55 31.30L72.57 31.32Q73.25 31.31 74.20 31.81L74.25 31.86L74.26 31.87Q74.60 32.82 74.60 33.46L74.51 33.37L74.44 33.30Q74.76 35.30 73.81 36.29L73.82 36.30L73.85 36.33Q72.75 37.02 70.66 37.33L70.56 37.22L70.57 37.23Q69.06 37.17 68.52 36.90L68.62 37.00L68.57 36.95Q68.33 36.44 68.33 36.13L68.40 36.21L68.52 36.33Q68.19 32.95 71.12 31.66L71.04 31.58L71.08 31.62Q71.89 31.33 72.65 31.40Z"/><path fill="#333" d="M89.92 49.56L89.96 49.60L89.89 49.54Q92.87 45.74 95.76 39.53L95.68 39.45L95.79 39.56Q92.61 32.95 86.52 24.88L86.48 24.84L86.59 24.95Q88.38 25.98 91.16 26.63L91.22 26.69L91.24 26.71Q94.83 31.44 97.27 36.66L97.25 36.64L97.23 36.62Q99.45 31.38 102.54 26.97L102.48 26.91L102.43 26.86Q104.62 26.50 106.72 25.70L106.80 25.79L106.81 25.79Q103.39 29.61 99.92 37.03L99.80 36.90L97.00 42.94L97.04 42.98Q95.59 46.10 93.84 48.72L93.89 48.78L93.96 48.85Q91.48 49.14 90.03 49.67ZM96.10 50.91L96.16 50.97L96.06 50.87Q97.94 48.14 99.39 44.87L99.24 44.72L102.03 38.45L102.03 38.45Q105.65 30.53 108.96 26.54L108.93 26.51L108.79 26.36Q107.52 27.12 105.62 27.80L105.66 27.84L106.57 26.31L106.61 26.35Q107.26 25.75 107.87 25.06L107.88 25.08L107.89 25.09Q105.19 26.12 102.34 26.58L102.34 26.58L102.27 26.51Q99.52 30.42 97.58 34.88L97.61 34.90L97.59 34.89Q96.05 31.68 94.26 28.86L94.24 28.83L94.26 28.86Q93.91 28.70 93.55 28.66L93.58 28.68L93.71 28.82Q93.17 28.60 92.98 28.60L93.15 28.77L93.15 28.77Q92.33 27.46 91.38 26.32L91.43 26.37L91.40 26.34Q88.11 25.56 85.37 23.85L85.45 23.93L85.50 23.97Q91.62 31.85 95.31 39.46L95.45 39.60L95.48 39.62Q93.23 44.61 89.16 50.25L89.24 50.33L89.09 50.18Q89.91 49.90 90.71 49.75L90.73 49.77L92.40 49.46L92.43 49.49Q91.75 50.14 90.57 51.78L90.53 51.73L90.58 51.78Q92.84 51.16 96.12 50.93Z"/><path fill="#333" d="M50.65 30.92L50.58 30.85L50.64 30.91Q50.54 29.71 48.60 28.98L48.55 28.94L48.66 29.04Q48.18 28.87 47.64 28.87L47.51 28.74L47.51 28.73Q46.24 28.84 45.17 29.41L45.18 29.42L45.11 29.35Q43.74 30.07 43.86 31.29L43.86 31.29L43.76 31.19Q44.16 34.06 44.01 36.31L44.05 36.35L43.96 36.26Q43.96 38.85 43.23 41.36L43.12 41.25L43.19 41.32Q41.04 41.79 39.86 42.21L39.84 42.20L39.85 42.20Q41.42 38.56 41.42 34.56L41.46 34.60L41.40 34.54Q41.51 29.20 38.92 24.75L38.82 24.65L38.82 24.65Q40.18 25.29 42.58 26.01L42.56 25.99L42.56 26.00Q42.83 26.68 43.21 28.20L43.20 28.20L43.19 28.18Q44.50 26.07 48.38 26.14L48.37 26.13L48.41 26.17Q49.86 26.17 50.66 26.29L50.75 26.38L50.57 26.20Q53.70 26.74 53.77 28.75L53.77 28.75L53.63 28.61Q53.73 29.59 53.54 30.62L53.56 30.64L53.56 30.64Q53.15 33.19 53.34 36.20L53.30 36.16L53.25 36.12Q53.37 38.93 54.36 41.48L54.47 41.59L54.46 41.58Q52.77 41.19 51.06 41.04L51.06 41.04L50.95 40.93Q50.51 38.58 50.43 35.92L50.44 35.93L50.39 35.87Q50.47 33.29 50.69 30.97ZM50.56 41.26L50.65 41.36L50.60 41.30Q51.38 41.29 52.68 41.52L52.78 41.62L53.07 42.60L53.09 42.61Q53.20 43.03 53.43 43.57L53.45 43.58L53.51 43.64Q55.77 44.04 58.47 45.22L58.47 45.21L58.58 45.32Q56.07 42.05 55.39 38.25L55.49 38.35L55.51 38.37Q55.20 36.28 55.32 32.58L55.18 32.45L55.28 32.55Q55.20 32.16 55.24 31.36L55.35 31.48L55.25 31.37Q55.30 30.73 55.22 30.24L55.32 30.34L55.29 30.31Q55.18 28.63 54.07 28.14L53.99 28.06L54.08 28.15Q53.90 27.28 53.14 26.68L53.04 26.58L53.17 26.70Q51.33 25.55 48.29 25.63L48.45 25.79L48.36 25.70Q46.48 25.72 45.64 25.91L45.71 25.99L45.76 26.04Q44.14 26.20 43.18 27.11L43.24 27.16L43.28 27.20Q43.11 26.62 42.73 25.59L42.85 25.71L42.85 25.71Q39.96 24.96 38.14 23.97L38.14 23.97L38.16 23.99Q41.16 28.81 41.16 34.56L41.10 34.51L41.25 34.66Q41.27 39.06 39.37 42.90L39.33 42.87L39.25 42.78Q39.99 42.54 41.29 42.16L41.24 42.11L41.32 42.18Q40.80 43.42 40.27 44.41L40.17 44.32L40.31 44.45Q41.67 43.95 45.21 43.38L45.09 43.25L45.16 43.33Q46.22 38.26 46.11 33.43L46.00 33.32L46.09 33.41Q46.04 32.56 47.23 31.84L47.22 31.83L47.18 31.79Q48.22 31.16 49.33 31.05L49.37 31.09L49.30 31.02Q49.86 31.09 50.28 31.28L50.31 31.30L50.19 31.19Q49.97 33.67 50.01 36.22L50.14 36.35L50.17 36.38Q50.06 38.75 50.56 41.26Z"/></svg>