<svg xmlns="http://www.w3.org/2000/svg" width="150" height="50" viewBox="0,0,150,50"><path fill="#222" d="M93.70 26.84L93.64 26.78L93.69 26.83Q95.40 26.92 97.23 26.92L97.33 27.01L97.32 27.01Q99.08 26.98 100.91 26.82L100.96 26.88L100.84 26.76Q100.81 27.49 100.81 28.21L100.84 28.24L100.78 29.51L100.83 29.56Q98.46 29.56 93.71 29.67L93.75 29.71L93.58 29.55Q93.67 35.58 92.53 40.56L92.54 40.57L92.61 40.64Q90.30 41.23 88.82 42.03L88.87 42.08L88.78 41.99Q91.20 35.28 90.94 28.16L90.93 28.15L90.84 28.07Q90.69 21.02 88.03 14.36L87.94 14.27L88.01 14.34Q91.57 16.76 96.33 16.99L96.44 17.10L96.40 17.06Q101.09 17.26 105.24 15.51L105.18 15.45L105.31 15.58Q105.02 16.40 104.80 17.20L104.80 17.20L104.14 18.63L104.16 18.66Q101.56 19.86 98.59 20.01L98.49 19.92L98.48 19.91Q95.62 20.12 92.76 19.40L92.75 19.39L92.73 19.37Q93.56 22.90 93.75 26.90ZM105.93 14.86L105.93 14.86L105.93 14.87Q101.33 17.00 96.45 16.70L96.34 16.58L96.31 16.55Q91.08 16.35 87.35 13.49L87.33 13.47L87.40 13.54Q90.26 20.47 90.56 28.09L90.55 28.07L90.50 28.03Q90.86 36.00 88.35 42.78L88.38 42.81L88.42 42.85Q89.00 42.36 90.37 41.72L90.41 41.76L90.28 41.62Q90.23 42.53 89.66 44.05L89.70 44.09L89.53 43.92Q92.02 43.02 94.91 42.53L94.85 42.46L94.83 42.44Q95.50 37.63 95.69 31.92L95.68 31.92L95.63 31.86Q97.43 31.84 99.26 31.84L99.27 31.84L99.34 31.91Q101.02 31.80 102.84 31.99L102.84 31.99L102.87 32.02Q102.72 31.03 102.72 30.12L102.67 30.07L102.77 28.26L102.83 28.33Q101.98 28.35 101.14 28.35L101.11 28.32L101.09 28.30Q101.23 27.57 101.31 26.54L101.29 26.52L101.22 26.45Q99.80 26.59 98.39 26.59L98.41 26.61L98.46 26.66Q97.02 26.63 95.65 26.59L95.72 26.66L95.53 24.34L95.49 24.30Q95.62 23.36 95.50 22.29L95.45 22.24L95.38 22.17Q96.33 22.21 97.32 22.21L97.42 22.30L97.44 22.33Q102.16 22.29 105.78 20.39L105.85 20.45L105.74 20.35Q106.36 18.65 107.28 16.02L107.24 15.99L107.21 15.95Q105.95 16.83 105.16 17.17L105.07 17.09L105.10 17.12Q105.42 16.41 105.91 14.85Z"/><path fill="#222" d="M49.41 39.91L49.45 39.94L49.43 39.92Q47.38 39.78 45.36 39.97L45.48 40.08L45.46 40.07Q46.08 34.79 46.08 29.95L46.00 29.87L45.99 29.86Q46.01 24.97 45.36 19.75L45.35 19.74L45.45 19.84Q40.88 19.46 37.69 17.79L37.67 17.77L36.91 15.98L36.93 16.00Q36.64 15.41 36.03 14.19L36.14 14.30L36.14 14.30Q41.08 16.84 47.09 17.03L47.20 17.14L47.16 17.10Q52.96 17.19 58.41 15.13L58.39 15.12L58.43 15.16Q57.73 16.59 57.09 18.42L57.18 18.51L57.06 18.40Q53.64 19.88 49.37 20.07L49.36 20.06L49.24 19.94Q49.06 24.98 49.06 29.93L49.12 29.99L49.13 29.99Q48.99 34.80 49.30 39.79ZM59.18 14.54L59.14 14.50L59.24 14.60Q53.34 16.81 47.14 16.62L47.21 16.69L47.19 16.67Q40.47 16.42 35.37 13.45L35.42 13.50L35.40 13.49Q36.12 14.74 37.42 18.01L37.46 18.06L37.36 17.95Q38.10 18.35 39.35 18.92L39.33 18.90L39.34 18.91Q39.70 19.73 40.04 21.25L39.92 21.12L39.94 21.15Q42.22 21.98 45.27 22.21L45.33 22.28L45.24 22.18Q45.71 25.96 45.71 29.73L45.75 29.77L45.67 29.69Q45.76 35.15 44.96 40.52L44.87 40.42L44.82 40.38Q46.46 40.23 46.99 40.23L47.09 40.33L47.10 40.33Q47.10 40.64 47.04 41.30L46.92 41.18L46.97 41.24Q46.88 41.87 46.88 42.21L47.03 42.36L47.03 42.36Q48.18 42.25 49.70 42.33L49.62 42.25L49.58 42.21Q50.48 42.23 52.31 42.38L52.47 42.54L52.49 42.56Q51.26 37.64 51.14 32.46L51.03 32.35L51.08 32.40Q50.82 26.96 51.35 22.05L51.36 22.06L51.45 22.15Q55.38 21.58 58.54 20.36L58.48 20.31L58.55 20.38Q59.17 17.91 60.20 15.86L60.30 15.96L60.38 16.04Q58.87 16.55 58.07 16.85L58.12 16.90L58.21 17.00Q58.62 15.69 59.19 14.55Z"/><path fill="#444" d="M127.02 28.66L127.12 28.77L121.10 28.72L121.11 28.73Q118.28 28.87 115.34 28.79L115.35 28.80L115.28 28.73Q115.32 35.36 113.27 40.88L113.32 40.93L113.29 40.90Q111.55 41.49 109.80 42.17L109.67 42.04L109.80 42.17Q112.57 36.45 112.57 29.79L112.54 29.76L112.52 29.73Q112.52 21.25 108.41 14.20L108.37 14.17L108.36 14.16Q110.04 15.11 112.51 15.91L112.52 15.92L112.48 15.88Q114.52 20.85 115.05 25.72L115.19 25.86L115.03 25.70Q118.23 26.12 121.09 26.09L121.22 26.22L121.07 26.07Q123.90 26.23 127.21 25.96L127.18 25.94L127.09 25.85Q127.64 21.52 129.39 16.42L129.35 16.38L129.41 16.44Q131.22 15.88 133.46 15.05L133.53 15.11L133.56 15.15Q129.96 21.90 129.96 29.86L129.97 29.86L129.94 29.84Q129.80 35.90 132.16 41.23L132.33 41.40L132.33 41.40Q130.64 40.70 128.58 40.39L128.52 40.33L128.64 40.45Q126.83 35.29 126.95 28.59ZM128.40 40.82L128.34 40.76L128.44 40.86Q129.31 40.86 130.42 41.13L130.38 41.09L130.43 41.14Q130.80 41.89 131.45 43.38L131.51 43.44L131.47 43.40Q134.71 44.24 136.50 45.15L136.53 45.18L136.62 45.28Q132.06 39.00 131.76 30.74L131.89 30.87L131.89 30.87Q131.62 22.87 135.27 16.06L135.20 15.98L134.06 16.37L134.17 16.48Q133.58 16.61 132.97 16.76L133.06 16.85L133.06 16.86Q133.34 15.92 134.18 14.36L134.24 14.42L134.32 14.50Q131.70 15.57 129.07 16.06L128.94 15.94L129.06 16.05Q127.40 20.90 126.95 25.59L126.76 25.40L126.78 25.42Q124.33 25.68 121.90 25.68L121.92 25.70L121.88 25.66Q119.63 25.81 117.12 25.66L116.96 25.50L117.01 25.54Q116.74 22.24 115.64 18.16L115.62 18.14L115.60 18.13Q115.02 18.12 113.58 17.74L113.65 17.81L113.58 17.74Q113.14 16.46 112.68 15.43L112.83 15.58L112.63 15.38Q109.93 14.66 107.65 13.41L107.78 13.54L107.76 13.52Q112.27 20.88 112.27 29.68L112.31 29.72L112.34 29.75Q112.25 36.63 109.13 42.76L109.25 42.87L109.20 42.83Q109.93 42.56 111.26 41.99L111.22 41.95L111.26 42.00Q110.94 42.85 110.14 44.38L110.12 44.35L110.05 44.28Q112.86 43.29 115.11 42.87L115.22 42.98L115.19 42.95Q117.00 37.34 117.20 31.18L117.25 31.24L117.25 31.23Q118.79 31.10 121.99 31.06L122.01 31.08L121.91 30.98Q124.90 31.07 126.80 31.15L126.76 31.11L126.76 31.11Q126.95 36.78 128.28 40.70Z"/><path fill="#111" d="M21.01 28.69L20.84 28.52L20.97 28.65Q18.08 28.58 17.32 30.82L17.31 30.81L17.33 30.84Q17.06 31.52 16.95 32.16L17.04 32.26L17.11 32.33Q19.68 32.50 21.32 32.50L21.20 32.38L21.31 32.49Q23.01 32.56 25.60 32.44L25.44 32.28L25.44 32.29Q25.46 30.71 24.06 29.64L24.04 29.63L23.93 29.52Q22.64 28.54 20.85 28.54ZM21.00 41.17L21.00 41.17L21.05 41.22Q16.74 41.14 15.45 39.73L15.45 39.73L15.53 39.81Q14.48 38.27 14.33 34.99L14.41 35.07L14.42 35.08Q14.39 34.82 14.31 33.45L14.28 33.42L14.22 33.36Q14.15 31.12 14.15 30.40L14.11 30.36L14.14 30.38Q14.07 28.46 14.80 27.35L14.94 27.50L14.83 27.39Q16.36 26.10 19.33 26.10L19.27 26.04L20.79 26.00L20.73 25.94Q22.84 25.99 24.36 26.29L24.46 26.40L24.37 26.30Q26.50 26.83 27.49 28.05L27.40 27.96L27.54 28.11Q28.02 29.04 28.10 31.14L28.13 31.17L28.20 31.23Q28.11 32.29 28.15 34.46L28.12 34.43L28.22 34.53Q25.33 34.54 22.55 34.54L22.52 34.50L16.88 34.46L16.91 34.49Q17.01 38.85 21.08 38.62L21.10 38.64L21.25 38.79Q24.84 38.42 26.06 36.60L26.16 36.69L26.10 36.64Q27.10 37.29 28.70 38.47L28.62 38.40L28.54 38.32Q27.29 40.83 23.14 41.10L23.04 41.00L23.13 41.09Q22.48 41.20 21.11 41.27ZM23.40 43.61L23.41 43.61L23.38 43.59Q24.33 43.39 25.55 43.47L25.58 43.51L25.63 43.55Q30.51 43.63 31.42 40.85L31.43 40.86L31.45 40.88Q29.84 39.66 28.74 38.89L28.83 38.99L28.91 39.07Q28.94 38.53 29.13 38.30L29.08 38.25L29.10 38.26Q28.45 37.88 27.08 36.93L27.09 36.94L27.06 36.91Q28.12 36.94 30.18 37.25L30.27 37.34L30.15 37.23Q29.94 35.83 29.86 35.15L29.99 35.28L29.88 33.37L29.84 33.33Q29.72 31.01 29.08 29.52L28.95 29.39L29.10 29.54Q28.73 29.10 28.16 28.49L28.16 28.49L28.22 28.55Q28.10 28.28 27.87 27.71L27.75 27.59L27.88 27.72Q25.89 25.58 20.83 25.58L20.91 25.66L19.07 25.50L19.20 25.62Q15.86 25.52 14.41 27.01L14.54 27.13L14.45 27.04Q13.82 28.20 13.85 30.25L13.79 30.19L13.84 30.24Q13.82 31.13 13.94 33.38L13.94 33.38L14.08 33.52Q14.08 35.04 14.19 37.10L14.24 37.15L14.24 37.14Q14.49 39.37 15.36 40.44L15.36 40.44L15.28 40.36Q15.50 40.58 15.69 40.69L15.75 40.75L15.91 41.25L15.90 41.25Q16.81 43.22 23.40 43.60ZM21.23 38.35L21.15 38.27L21.23 38.36Q19.96 38.34 19.05 37.88L19.19 38.03L19.19 38.02Q18.97 37.47 18.78 36.78L18.91 36.91L18.78 36.78Q20.48 36.69 22.08 36.69L22.14 36.74L22.07 36.68Q23.89 36.83 25.57 36.94L25.52 36.89L25.45 36.82Q24.26 38.26 21.25 38.37ZM22.87 31.01L22.80 30.93L22.80 30.94Q23.57 31.10 24.90 31.48L24.72 31.30L25.06 31.82L25.06 32.02L25.05 32.00Q23.73 32.17 22.81 32.13L22.72 32.04L22.78 32.10Q20.53 32.10 20.49 32.10L20.49 32.09L20.48 32.08Q21.26 31.18 22.93 31.07Z"/><path fill="#111" d="M74.90 27.16L74.94 27.19L74.94 27.19Q75.70 27.16 77.11 27.01L77.17 27.07L77.08 26.97Q77.07 27.65 77.07 28.30L77.08 28.31L77.16 29.64L77.02 29.51Q76.28 29.61 75.45 29.68L75.51 29.74L75.42 29.65Q74.57 29.68 73.73 29.64L73.82 29.73L73.72 29.63Q70.84 35.78 67.42 40.38L67.53 40.50L67.45 40.41Q64.97 41.09 63.67 41.70L63.55 41.58L63.64 41.67Q67.80 36.00 70.84 29.72L70.77 29.65L68.20 29.70L68.21 29.72Q68.16 28.33 68.04 27.00L68.07 27.03L67.98 26.94Q69.92 27.13 71.98 27.13L72.05 27.20L73.85 23.41L73.87 23.42Q74.94 21.60 76.16 20.00L76.13 19.97L76.23 20.07Q74.64 20.19 73.04 20.19L72.98 20.13L73.06 20.22Q66.88 20.12 63.11 17.92L63.14 17.95L62.48 16.22L62.44 16.18Q62.15 15.39 61.76 14.52L61.75 14.51L61.65 14.40Q66.14 17.17 71.85 17.40L71.88 17.44L71.86 17.42Q77.00 17.65 82.14 15.67L82.06 15.59L81.98 15.51Q81.89 16.03 81.40 16.90L81.35 16.85L81.46 16.97Q77.76 21.64 74.91 27.16ZM82.89 18.17L82.97 18.25L84.02 16.29L83.93 16.20Q83.10 16.82 81.43 17.54L81.32 17.43L81.53 17.15L81.63 17.25Q81.73 17.08 81.85 16.97L81.82 16.95L81.68 16.80Q82.09 16.15 82.81 14.82L82.92 14.92L82.90 14.90Q77.45 17.07 71.70 16.84L71.80 16.94L71.74 16.87Q65.69 16.58 60.93 13.61L61.06 13.73L61.03 13.71Q62.03 15.54 62.86 18.20L62.91 18.25L62.86 18.20Q64.08 18.96 64.87 19.26L64.79 19.18L64.84 19.23Q64.90 19.48 65.36 21.35L65.38 21.37L65.41 21.39Q68.63 22.71 74.15 22.56L74.03 22.44L74.15 22.56Q73.84 23.12 71.86 26.89L71.71 26.74L71.80 26.84Q69.67 26.76 67.69 26.57L67.76 26.64L67.67 26.55Q67.87 27.51 67.87 28.39L67.83 28.35L67.76 29.99L69.47 30.03L69.53 31.49L69.43 31.39Q65.68 38.95 62.90 42.53L62.85 42.48L62.72 42.35Q64.50 41.77 66.14 41.28L66.13 41.26L66.05 41.19Q65.30 42.03 63.93 43.74L64.02 43.84L64.03 43.85Q67.08 42.63 69.51 42.40L69.62 42.51L69.56 42.45Q72.57 38.76 75.69 31.98L75.64 31.93L79.05 32.11L79.05 32.11Q78.90 31.12 78.90 30.20L78.91 30.21L79.01 28.53L79.06 28.57Q78.65 28.43 78.09 28.46L78.09 28.46L78.21 28.58Q77.64 28.60 77.37 28.60L77.29 28.52L77.32 28.55Q77.41 28.52 77.45 28.37L77.37 28.29L77.42 28.08L77.40 28.06Q79.92 22.93 83.01 18.28Z"/></svg>