<svg xmlns="http://www.w3.org/2000/svg" width="150" height="50" viewBox="0,0,150,50"><path fill="#222" d="M72.19 18.37L72.26 18.44L72.22 18.41Q71.56 18.85 71.40 19.64L71.49 19.73L71.41 24.79L71.43 24.81Q72.59 24.82 74.79 24.56L74.73 24.49L74.82 24.58Q74.66 24.88 74.62 25.71L74.70 25.79L74.60 25.70Q74.71 26.61 74.71 27.06L74.68 27.03L72.99 27.02L72.97 27.00Q72.37 27.27 71.49 27.27L71.44 27.22L71.41 27.19Q71.45 31.41 71.37 39.79L71.35 39.77L71.28 39.69Q69.14 39.84 67.65 40.52L67.58 40.45L67.65 40.52Q68.69 34.33 68.58 27.10L68.57 27.09L68.55 27.07Q67.86 26.99 66.56 26.72L66.69 26.84L66.57 26.73Q66.65 25.81 66.46 23.87L66.46 23.87L66.41 23.83Q67.56 24.36 68.51 24.55L68.47 24.51L68.59 24.63Q68.47 23.90 68.16 21.43L68.18 21.44L68.09 21.36Q67.99 19.42 67.99 18.47L67.83 18.32L67.90 18.38Q67.96 16.77 69.37 16.20L69.41 16.24L69.26 16.09Q70.10 15.75 74.93 14.91L74.91 14.89L74.98 14.96Q75.79 14.82 76.63 14.70L76.59 14.67L76.73 14.81Q76.34 15.41 76.19 16.29L76.33 16.42L75.91 17.87L76.05 18.00Q75.40 17.85 74.90 17.96L74.91 17.97L74.83 17.89Q74.27 17.94 72.36 18.55ZM77.65 19.54L77.81 19.69L77.68 19.57Q78.05 17.38 78.66 14.83L78.57 14.74L78.71 14.88Q78.13 15.25 76.83 15.86L76.77 15.80L77.20 14.13L77.04 13.98Q75.85 14.19 73.38 14.72L73.49 14.84L73.49 14.84Q72.26 14.86 69.06 15.77L68.97 15.69L69.00 15.71Q67.58 16.28 67.58 18.15L67.42 17.99L67.42 17.98Q67.51 18.38 67.59 18.72L67.51 18.64L67.56 18.69Q67.86 20.09 67.97 21.43L67.95 21.41L68.03 23.96L68.14 24.07Q66.66 23.58 66.01 23.12L66.16 23.27L66.04 23.15Q66.20 24.15 66.24 25.18L66.23 25.16L66.32 27.12L66.27 27.07Q67.03 27.30 67.83 27.37L67.91 27.45L67.87 29.51L68.37 29.63L68.24 29.50Q68.26 35.76 67.27 41.20L67.23 41.16L67.17 41.10Q68.14 40.59 69.32 40.33L69.28 40.29L69.14 42.40L69.20 42.45Q70.40 42.13 71.70 42.09L71.65 42.05L71.65 42.05Q72.83 41.97 74.09 42.24L74.12 42.27L74.12 42.27Q73.37 37.37 73.37 29.41L73.43 29.48L73.43 29.47Q74.36 29.30 76.46 29.38L76.55 29.47L76.44 27.49L76.48 27.54Q76.50 26.61 76.54 25.65L76.53 25.65L76.64 25.76Q76.02 25.70 74.95 25.97L75.01 26.03L74.94 25.96Q74.92 25.25 75.03 23.92L75.07 23.96L75.07 23.96Q74.19 24.14 73.39 24.22L73.55 24.38L73.41 24.24Q73.58 23.00 73.70 21.59L73.63 21.52L73.68 21.58Q73.82 20.92 74.35 20.58L74.36 20.59L74.24 20.46Q75.32 19.91 76.14 19.83L75.97 19.66L76.08 19.77Q76.89 19.68 77.72 19.61Z"/><path fill="#222" d="M129.14 30.35L129.04 30.25L129.22 30.43Q129.31 30.03 129.27 29.61L129.18 29.51L129.19 29.52Q129.16 29.19 128.86 29.00L128.76 28.91L128.90 29.04Q128.09 28.39 127.22 28.54L127.16 28.48L127.27 28.60Q126.24 28.63 124.60 29.73L124.43 29.57L124.43 29.56Q123.12 30.57 123.12 31.75L123.01 31.64L123.11 31.75Q123.18 33.07 123.18 36.38L123.08 36.29L123.01 36.21Q123.16 38.95 123.32 40.97L123.25 40.90L123.15 40.80Q121.59 40.96 121.59 40.96L121.49 40.86L121.50 40.87Q120.55 40.87 119.83 40.95L119.83 40.95L119.78 40.90Q120.23 38.42 120.31 36.17L120.25 36.12L120.34 36.21Q120.40 31.47 119.75 30.18L119.71 30.13L119.84 30.26Q119.54 29.66 118.97 29.36L118.99 29.38L119.01 29.39Q118.21 28.71 116.65 28.59L116.51 28.46L116.58 28.53Q114.46 28.19 113.93 29.79L114.01 29.88L114.08 29.95Q113.91 30.43 114.03 30.92L113.97 30.87L113.89 30.79Q114.54 33.53 114.19 36.30L114.23 36.34L114.24 36.35Q113.92 39.15 112.51 41.59L112.65 41.72L112.66 41.74Q111.62 41.88 109.53 42.30L109.57 42.34L109.57 42.34Q112.05 39.07 112.05 34.77L112.02 34.74L111.97 34.69Q111.90 28.76 107.87 24.53L107.93 24.60L107.84 24.51Q108.69 24.90 109.64 25.13L109.63 25.12L111.42 25.58L111.34 25.49Q111.78 26.08 112.65 27.76L112.62 27.73L112.62 27.73Q112.82 25.87 115.25 25.83L115.21 25.78L115.32 25.90Q115.47 25.85 116.46 25.93L116.39 25.86L116.48 25.95Q121.48 26.27 122.63 29.09L122.55 29.01L122.65 29.11Q124.28 26.36 129.30 25.83L129.30 25.83L129.23 25.75Q130.12 25.78 131.00 25.89L130.93 25.82L130.86 25.75Q133.11 25.99 132.96 27.55L132.95 27.54L132.94 27.53Q132.93 28.24 132.67 29.00L132.68 29.02L132.63 28.97Q131.21 31.96 131.44 35.50L131.44 35.50L131.45 35.52Q131.69 39.02 133.59 41.84L133.48 41.73L133.58 41.83Q131.99 41.58 130.17 41.35L130.16 41.34L130.11 41.29Q128.93 38.78 128.74 36.00L128.76 36.02L128.69 35.95Q128.43 33.03 129.08 30.29ZM129.77 41.56L129.81 41.60L129.83 41.62Q130.49 41.64 131.83 41.83L131.99 42.00L131.93 41.94Q132.43 42.62 133.57 44.03L133.60 44.06L133.52 43.98Q136.54 44.64 138.63 45.28L138.59 45.24L138.60 45.25Q133.58 41.34 133.32 34.83L133.29 34.81L133.22 34.74Q133.27 32.77 133.88 30.86L133.88 30.87L133.93 30.92Q133.99 29.87 133.99 29.15L134.04 29.19L134.04 29.20Q134.04 28.28 133.43 27.71L133.42 27.70L133.51 27.76L133.35 27.59Q133.47 27.14 133.40 26.65L133.34 26.59L133.36 26.61Q133.29 26.13 132.83 25.86L132.88 25.91L132.81 25.84Q132.22 25.43 131.34 25.40L131.21 25.26L131.28 25.33Q128.50 25.30 125.84 26.25L125.71 26.12L125.76 26.17Q123.87 26.94 122.69 28.35L122.62 28.28L122.71 28.38Q121.09 25.84 116.25 25.50L116.29 25.53L116.18 25.42Q115.49 25.38 115.07 25.38L115.22 25.53L115.23 25.54Q113.10 25.47 112.49 26.72L112.49 26.72L112.41 26.64Q112.18 26.22 111.49 25.15L111.44 25.10L111.45 25.11Q108.95 24.55 106.97 23.90L107.10 24.03L107.09 24.02Q111.69 28.36 111.69 34.64L111.75 34.70L111.76 34.71Q111.74 39.41 108.89 42.87L108.86 42.84L108.74 42.73Q109.26 42.63 109.75 42.56L109.86 42.66L110.73 42.40L110.79 42.45Q110.14 43.56 109.04 44.78L108.97 44.70L108.89 44.63Q110.49 44.29 113.62 43.68L113.76 43.83L113.74 43.80Q116.46 39.75 116.46 34.84L116.33 34.71L116.31 34.69Q116.30 33.88 116.23 33.05L116.25 33.07L116.22 33.04Q116.13 32.27 117.12 31.47L117.19 31.53L117.18 31.57L117.22 31.60Q117.76 31.07 118.94 30.96L118.95 30.97L118.92 30.94Q119.46 31.06 119.76 31.06L119.71 31.01L119.89 31.38L119.71 31.20Q120.02 33.95 119.91 36.31L120.03 36.43L119.89 36.29Q119.78 38.58 119.28 41.24L119.41 41.37L119.43 41.39Q120.40 41.33 120.40 41.33L120.42 41.35L120.32 41.25Q121.77 41.26 121.43 41.26L121.43 41.25L121.46 41.28Q121.38 41.70 121.34 42.16L121.48 42.29L121.47 42.29Q121.44 42.76 121.44 43.25L121.45 43.25L123.81 43.14L123.92 43.25Q125.11 43.18 126.36 43.26L126.40 43.29L126.39 43.28Q124.89 39.61 125.08 33.67L125.11 33.70L125.14 33.74Q125.18 32.63 126.36 31.87L126.33 31.84L126.32 31.83Q127.14 30.94 128.40 30.75L128.51 30.86L128.78 30.83L128.79 30.84Q128.41 32.82 128.41 34.80L128.23 34.62L128.36 34.74Q128.37 38.52 129.89 41.68ZM124.44 30.22L124.57 30.12L124.33 30.23L124.27 30.05Z"/><path fill="#333" d="M23.42 40.16L23.36 40.11L21.36 40.39L21.35 40.38Q20.81 40.29 19.84 40.35L19.94 40.45L19.82 40.33Q18.81 40.35 18.32 40.35L18.38 40.41L18.36 40.39Q16.72 40.39 15.69 39.55L15.64 39.50L15.68 39.54Q16.43 38.39 18.07 36.26L18.21 36.40L18.17 36.36Q19.50 38.00 21.71 37.77L21.65 37.70L21.65 37.70Q22.50 37.53 23.15 36.88L23.19 36.92L23.09 36.82Q23.83 36.27 23.71 35.39L23.62 35.30L23.69 35.37Q23.57 30.75 23.64 26.18L23.60 26.14L23.71 26.25Q23.75 21.65 24.29 17.04L24.31 17.07L24.16 16.92Q26.10 16.73 28.24 15.70L28.32 15.79L28.39 15.86Q26.42 22.49 26.42 29.72L26.37 29.67L26.48 29.78Q26.51 33.36 26.97 36.86L26.96 36.85L26.93 36.82Q26.89 37.05 26.89 37.39L27.01 37.50L27.02 37.52Q26.97 38.04 26.74 38.57L26.83 38.66L26.70 38.53Q26.15 39.80 23.33 40.07ZM28.26 42.91L28.32 42.97L28.64 42.94L28.93 42.82L29.24 42.74L29.22 42.72Q29.53 42.46 29.60 42.35L29.60 42.35L29.53 42.28Q29.86 41.24 29.60 40.25L29.51 40.16L29.58 40.23Q28.23 34.43 28.50 28.07L28.53 28.10L28.49 28.06Q28.60 21.81 30.39 15.91L30.52 16.05L30.50 16.03Q29.56 16.60 28.30 17.33L28.29 17.31L28.28 17.30Q28.55 16.62 28.97 15.10L28.95 15.08L28.86 15.00Q26.41 16.39 23.74 16.69L23.77 16.72L23.68 16.63Q23.41 21.11 23.33 26.06L23.39 26.12L23.39 26.12Q23.34 32.05 23.42 35.47L23.42 35.47L23.31 35.37Q23.31 37.08 21.56 37.23L21.68 37.36L21.54 37.22Q19.82 37.32 18.14 35.69L18.26 35.80L18.33 35.87Q16.14 38.25 15.19 39.81L15.24 39.86L15.25 39.88Q15.89 40.51 16.92 40.74L16.98 40.80L16.99 40.82Q16.85 40.90 16.58 41.13L16.57 41.11L16.58 41.12Q17.91 41.96 19.89 42.23L19.98 42.32L19.98 42.32Q20.28 42.28 23.58 42.58L23.59 42.59L23.76 42.76Q26.86 42.88 28.23 42.88Z"/><path fill="#222" d="M55.20 30.41L55.14 30.35L55.13 30.34Q55.29 30.00 55.25 29.58L55.25 29.58L55.30 29.64Q55.19 29.22 54.89 29.03L54.77 28.92L54.84 28.99Q54.08 28.38 53.21 28.53L53.14 28.46L53.21 28.53Q52.12 28.51 50.48 29.61L50.50 29.63L50.49 29.62Q49.06 30.51 49.06 31.69L49.02 31.65L49.05 31.68Q49.05 32.94 49.05 36.26L49.06 36.26L49.17 36.38Q48.99 38.78 49.14 40.80L49.16 40.81L49.20 40.85Q47.57 40.94 47.57 40.94L47.48 40.85L47.60 40.96Q46.47 40.79 45.74 40.86L45.71 40.83L45.75 40.87Q46.18 38.37 46.26 36.13L46.32 36.19L46.35 36.22Q46.47 31.54 45.83 30.25L45.86 30.28L45.77 30.19Q45.59 29.71 45.02 29.41L44.91 29.29L44.94 29.32Q44.21 28.71 42.65 28.60L42.53 28.48L42.62 28.57Q40.54 28.28 40.01 29.88L40.09 29.95L40.02 29.89Q39.76 30.27 39.87 30.76L39.94 30.83L39.88 30.78Q40.56 33.55 40.22 36.33L40.25 36.36L40.29 36.40Q39.88 39.11 38.47 41.55L38.49 41.57L38.55 41.63Q37.62 41.88 35.53 42.30L35.53 42.30L35.55 42.32Q37.88 38.90 37.88 34.60L37.95 34.66L37.88 34.60Q37.99 28.85 33.96 24.62L33.91 24.57L33.84 24.51Q34.76 24.97 35.71 25.20L35.53 25.02L37.32 25.47L37.29 25.44Q37.93 26.23 38.80 27.91L38.74 27.85L38.64 27.75Q38.88 25.93 41.32 25.89L41.29 25.87L41.37 25.94Q41.54 25.93 42.53 26.00L42.47 25.94L42.38 25.85Q47.39 26.18 48.54 29.00L48.51 28.97L48.58 29.05Q50.32 26.41 55.35 25.88L55.24 25.76L55.36 25.89Q56.12 25.77 56.99 25.88L56.90 25.79L56.94 25.83Q59.17 26.04 59.02 27.60L58.96 27.55L58.92 27.50Q58.93 28.24 58.66 29.00L58.65 28.99L58.62 28.96Q57.34 32.09 57.57 35.63L57.44 35.50L57.46 35.53Q57.73 39.07 59.64 41.89L59.59 41.84L59.65 41.90Q57.93 41.51 56.10 41.28L55.97 41.16L56.15 41.34Q54.89 38.75 54.70 35.97L54.69 35.95L54.65 35.92Q54.38 32.98 55.03 30.24ZM55.93 41.73L55.94 41.73L55.78 41.57Q56.65 41.80 57.98 41.99L57.90 41.90L57.86 41.86Q58.50 42.70 59.65 44.11L59.66 44.12L59.58 44.04Q62.52 44.62 64.61 45.26L64.64 45.29L64.67 45.32Q59.63 41.39 59.36 34.88L59.29 34.80L59.22 34.73Q59.25 32.74 59.86 30.84L59.92 30.90L59.94 30.92Q60.03 29.91 60.03 29.18L60.05 29.21L60.11 29.26Q60.08 28.32 59.47 27.75L59.49 27.77L59.43 27.67L59.37 27.61Q59.51 27.18 59.43 26.68L59.40 26.65L59.49 26.74Q59.29 26.12 58.83 25.86L58.91 25.93L58.85 25.87Q58.21 25.43 57.34 25.39L57.19 25.24L57.26 25.31Q54.38 25.17 51.71 26.12L51.74 26.15L51.83 26.24Q49.86 26.93 48.67 28.34L48.69 28.36L48.65 28.32Q47.15 25.90 42.32 25.56L42.19 25.43L42.16 25.41Q41.66 25.55 41.24 25.55L41.16 25.47L41.19 25.50Q39.13 25.50 38.52 26.75L38.41 26.64L38.45 26.68Q38.22 26.26 37.54 25.20L37.57 25.23L37.41 25.07Q35.02 24.62 33.04 23.97L33.07 24.00L33.09 24.02Q37.78 28.44 37.78 34.72L37.68 34.62L37.60 34.55Q37.76 39.43 34.91 42.89L34.86 42.84L34.82 42.80Q35.24 42.62 35.74 42.54L35.79 42.60L36.72 42.39L36.72 42.39Q35.97 43.39 34.87 44.60L34.93 44.67L34.90 44.64Q36.59 44.39 39.72 43.78L39.69 43.75L39.70 43.77Q42.35 39.64 42.35 34.73L42.34 34.72L42.31 34.69Q42.30 33.88 42.23 33.04L42.26 33.08L42.30 33.12Q42.21 32.35 43.20 31.55L43.29 31.63L43.14 31.52L43.23 31.61Q43.86 31.18 45.04 31.06L44.97 30.99L44.90 30.92Q45.53 31.13 45.83 31.13L45.78 31.07L45.78 31.27L45.80 31.29Q46.03 33.95 45.91 36.31L45.85 36.25L45.97 36.37Q45.92 38.72 45.43 41.39L45.33 41.29L45.41 41.37Q46.41 41.34 46.41 41.34L46.30 41.23L46.38 41.31Q47.80 41.28 47.45 41.28L47.47 41.29L47.42 41.24Q47.40 41.72 47.36 42.18L47.39 42.20L47.40 42.21Q47.31 42.62 47.31 43.12L47.31 43.12L49.83 43.16L49.96 43.29Q51.14 43.21 52.39 43.29L52.45 43.35L52.47 43.36Q50.89 39.61 51.08 33.67L51.06 33.65L51.12 33.71Q51.17 32.62 52.35 31.86L52.31 31.83L52.27 31.78Q53.17 30.97 54.43 30.78L54.43 30.78L54.80 30.85L54.67 30.72Q54.41 32.81 54.41 34.79L54.34 34.73L54.30 34.68Q54.25 38.41 55.77 41.56ZM50.33 30.11L50.60 30.15L50.31 30.21L50.27 30.05Z"/><path fill="#444" d="M92.55 33.23L92.67 33.35L92.54 33.23Q92.42 36.07 91.24 40.72L91.37 40.85L91.22 40.70Q89.43 41.23 87.83 42.03L87.85 42.05L87.83 42.03Q90.55 35.12 90.29 27.70L90.24 27.65L90.30 27.71Q90.04 20.33 86.96 13.59L86.94 13.58L86.95 13.59Q88.94 14.89 90.80 15.46L90.77 15.43L90.77 15.42Q92.78 22.27 92.78 28.94L92.82 28.97L92.85 29.00Q92.76 30.36 92.68 31.84L92.78 31.94L92.83 31.99Q93.97 30.77 99.18 25.82L99.08 25.71L99.08 25.71Q100.22 25.75 101.21 25.68L101.16 25.63L103.21 25.43L103.19 25.42Q100.16 28.55 95.86 32.32L95.79 32.25L95.95 32.41Q99.13 34.98 105.60 40.81L105.69 40.89L105.77 40.97Q103.03 40.06 100.06 39.87L100.08 39.89L100.00 39.81Q97.47 37.70 92.60 33.28ZM102.58 42.54L102.42 42.38L102.46 42.42Q107.26 43.33 110.38 45.28L110.41 45.31L110.41 45.31Q109.23 44.01 106.60 41.62L106.60 41.61L106.55 41.56Q106.74 41.60 107.00 41.71L107.07 41.78L106.95 41.66Q104.89 39.68 102.65 37.77L102.65 37.77L98.27 33.93L98.34 34.00Q103.33 29.81 105.76 26.92L105.62 26.77L105.72 26.88Q104.40 26.85 101.93 27.12L102.02 27.22L101.94 27.13Q103.66 25.81 104.35 24.97L104.33 24.95L104.17 24.79Q101.58 25.48 99.11 25.48L99.08 25.45L98.92 25.29Q97.51 26.58 94.77 29.25L94.95 29.44L94.90 29.38Q94.89 23.58 93.90 17.76L93.88 17.74L93.87 17.73Q93.09 17.48 91.60 17.21L91.60 17.21L91.74 17.35Q91.48 16.52 91.02 15.03L91.02 15.03L91.00 15.01Q88.46 14.30 86.21 12.73L86.26 12.78L86.12 12.65Q89.63 19.54 89.97 27.65L89.98 27.66L90.00 27.68Q90.35 35.60 87.34 42.84L87.33 42.82L87.21 42.71Q87.91 42.42 89.24 41.77L89.34 41.86L89.35 41.88Q89.15 42.74 88.51 44.19L88.37 44.05L88.36 44.04Q91.24 43.00 93.37 42.62L93.31 42.56L93.42 42.67Q93.89 40.06 94.39 35.80L94.52 35.93L94.50 35.91Q96.99 38.05 102.43 42.39Z"/></svg>